<?xml version="1.0" encoding="utf-8"?>
<!-- Generator: Adobe Illustrator 14.0.0, SVG Export Plug-In . SVG Version: 6.00 Build 43363)  -->
<!DOCTYPE svg PUBLIC "-//W3C//DTD SVG 1.1//EN" "http://www.w3.org/Graphics/SVG/1.1/DTD/svg11.dtd">
<svg version="1.1" id="content" xmlns="http://www.w3.org/2000/svg" xmlns:xlink="http://www.w3.org/1999/xlink" x="0px" y="0px"
	 width="500px" height="500px" viewBox="0 0 500 500" enable-background="new 0 0 500 500" xml:space="preserve">
<rect id="position" x="0" y="0" display="none" fill="none" stroke="#000000" width="500" height="500"/>
<g id="bounds" display="none">
	
		<rect id="bounds_1_" x="192.024" y="137.649" display="inline" fill="none" stroke="#000000" stroke-width="0.2981" width="115.368" height="121.71"/>
</g>
<g>
	<path opacity="0.3" fill="#141409" enable-background="new    " d="M249.667,204.148c-32.36,0-39.502-28.39-39.568-28.658
		l1.938,1.631c0.268,1.03,6.859,25.027,37.633,25.027L249.667,204.148L249.667,204.148z"/>
	<path opacity="0.3" fill="#141409" enable-background="new    " d="M249.667,204.148v-2c30.826,0,37.568-24.774,37.633-25.027
		l1.938-1.631C289.169,175.758,282.029,204.148,249.667,204.148L249.667,204.148z"/>
	<path fill="#E8E366" d="M249.667,202.518c-32.36,0-39.502-26.761-39.568-27.029h1.938c0.268,1.032,6.859,25.029,37.633,25.029
		L249.667,202.518L249.667,202.518z"/>
	<path fill="#E8E366" d="M249.667,202.518v-2c30.826,0,37.568-24.774,37.633-25.029h1.938
		C289.169,175.758,282.029,202.518,249.667,202.518L249.667,202.518z"/>
	<path fill="#945BC2" d="M244.527,201.048c0,0,0.699,21.373,12.184,24.967c-8.188-9.588-7.262-22.055-7.262-22.055l-1.336-8.461
		l-2.738,3.097L244.527,201.048z"/>
	<path fill="#975CC4" d="M240.465,224.027c8.188-9.588,9.202-22.508,9.202-22.508l2.979,0.482
		C252.646,202.001,251.947,220.433,240.465,224.027z"/>
	<path fill="#A465D6" d="M240.869,208.467c0,0,8.373,7.016,3.08,17.218c8.197-4.245,5.389-16.843,3.131-19.239
		c-3.932-0.137-5.203,0-5.203,0L240.869,208.467z"/>
	<path fill="#B16CE8" d="M252.813,210.576c-1.371,3.883-3.771,8.38-7.932,13c7.16-3.234,11.102-8.281,13.271-13H252.813z"/>
	<path fill="#A465D6" d="M248.783,195.531c0,0,4.583,17.624,15.662,27.021c-15.758-5.707-21.334-17.101-22.305-27.041
		C248.783,195.531,248.783,195.531,248.783,195.531z"/>
	<path fill="#BA72F2" d="M257.456,205.137c0,0-6.844,8.515,0.337,17.488c-8.867-2.564-8.567-15.471-6.82-18.259
		c3.828-0.9,5.104-1.016,5.104-1.016L257.456,205.137z"/>
	<path fill="#975CC4" d="M244.199,202.217c0,0-6.966,5.353-1.673,15.555c-8.197-4.245-6.795-15.18-4.538-17.576
		c3.932-0.137,5.203,0,5.203,0L244.199,202.217z"/>
	<path fill="#A465D6" d="M243.095,207.274c0,0-4.578,9.848-18.754,7.087c6.773,4.768,21.689-0.126,21.689-0.126L243.095,207.274z"/>
	<path fill="#AA69DE" d="M249.435,198.655c0,0-3.879,18.293-22.506,20.75c12.869,0.905,25.936-11.512,25.936-11.512l0.928-9.239
		L249.435,198.655L249.435,198.655z"/>
	<path fill="#BA72F2" d="M247.15,198.545c0,0-3.336,18.241-15.662,27.021c15.758-5.707,21.334-17.101,22.305-27.041
		C247.15,198.545,247.15,198.545,247.15,198.545z"/>
	<path fill="#AE6BE6" d="M232.519,213.792c8.188-9.588,9.202-22.508,9.202-22.508l2.979,0.48
		C244.701,191.766,244.002,210.198,232.519,213.792z"/>
	<path fill="#BA72F2" d="M252.195,192.76c0,0-5.089,17.813-30.229,20.395c18.002-5.31,25.969-21.869,25.969-21.869L252.195,192.76z"
		/>
	<path fill="#A465D6" d="M253.652,202.079c0,0,8.896,6.264,3.604,16.466c8.197-4.245,4.865-16.091,2.607-18.488
		c-3.932-0.137-5.203,0-5.203,0L253.652,202.079z"/>
	<path fill="#A465D6" d="M256.629,207.274c0,0,4.578,9.848,18.752,7.087c-8.887,5.7-21.688-1.126-21.688-1.126L256.629,207.274z"/>
	<path fill="#AA69DE" d="M250.289,198.655c0,0,3.879,18.293,22.506,20.75c-11.271,0.793-22.918-8.644-25.936-11.512l-0.928-9.239
		L250.289,198.655L250.289,198.655z"/>
	<path fill="#AE6BE6" d="M267.205,213.792c-8.188-9.588-9.202-22.508-9.202-22.508l-2.979,0.48
		C255.023,191.766,255.722,210.198,267.205,213.792z"/>
	<path fill="#BA72F2" d="M247.529,192.76c0,0,5.089,17.813,30.229,20.395c-18.002-5.31-25.967-21.869-25.967-21.869L247.529,192.76z
		"/>
	<circle opacity="0.3" fill="#141409" enable-background="new    " cx="249.862" cy="205.334" r="12.574"/>
	<path fill="#31BD0F" d="M246.381,201.377c0,0,5.142,4.773,7.082-2.449c2.43,0.067,6.608,0.237,6.608,0.237
		s-1.675,11.289-11.507,9.576c-4.823-0.707-7.011-4.609-5.844-9.073C246.074,201.327,246.381,201.377,246.381,201.377z"/>
	<path fill="#64BFD8" d="M240.556,192.184l2.768,3.75c0,0-4.988,11.25,6.08,12.962c5.57-0.69,9.596-1.675,10.441-9.867
		c0.591-3.275,0.37-3.275,0.37-3.275l2.112,3.775c0,0,0.691,12.604-10.887,14.116c-9.029,0.567-14.547-3.548-14.229-14.871
		C237.243,195.279,240.556,192.184,240.556,192.184z"/>
	<path fill="#E69E2C" d="M241.288,193.176l2.166,3.177c0,0,7.532-5.025,9.358,2.635c5.948-0.03,6.498,0.18,6.498,0.18
		s-0.182-9.114-6.943-10.319C249.127,188.287,245.942,188.027,241.288,193.176z"/>
	<path fill="#E8E366" d="M250.436,209.697c-2.501,0-5.003-0.95-6.908-2.854c-3.125-3.124-3.125-8.208,0-11.334
		c2.578-2.578,6.771-2.578,9.351,0c2.142,2.141,2.142,5.623,0,7.763c-1.791,1.79-4.703,1.79-6.491,0
		c-0.731-0.729-1.136-1.704-1.136-2.738c0-1.033,0.403-2.008,1.136-2.737c1.244-1.246,3.418-1.246,4.662,0
		c0.393,0.391,0.393,1.021,0,1.414c-0.391,0.391-1.021,0.391-1.412,0c-0.49-0.49-1.348-0.49-1.838,0
		c-0.354,0.354-0.548,0.823-0.548,1.323s0.195,0.972,0.548,1.324c1.012,1.012,2.656,1.012,3.665,0c1.36-1.358,1.36-3.571,0-4.934
		c-1.799-1.798-4.724-1.798-6.521,0c-2.344,2.346-2.345,6.161,0,8.506c3.03,3.029,7.958,3.029,10.986,0
		c3.884-3.883,3.884-10.203,0-14.086c-0.393-0.391-0.393-1.023,0-1.414c0.391-0.391,1.021-0.391,1.412,0
		c4.663,4.663,4.663,12.251,0,16.914C255.438,208.745,252.937,209.697,250.436,209.697L250.436,209.697z"/>
	<path fill="#E8E366" d="M249.862,214.744c-7.485,0-13.574-6.091-13.574-13.574c0-7.485,6.089-13.574,13.574-13.574
		c7.484,0,13.574,6.089,13.574,13.574C263.436,208.655,257.346,214.744,249.862,214.744L249.862,214.744z M249.862,189.596
		c-6.382,0-11.574,5.192-11.574,11.574s5.192,11.574,11.574,11.574s11.574-5.192,11.574-11.574S256.244,189.596,249.862,189.596
		L249.862,189.596z"/>
	<path fill="none" d="M249.667,201.518"/>
</g>
</svg>
