<?xml version="1.0" encoding="utf-8"?>
<!-- Generator: Adobe Illustrator 14.0.0, SVG Export Plug-In . SVG Version: 6.00 Build 43363)  -->
<!DOCTYPE svg PUBLIC "-//W3C//DTD SVG 1.1//EN" "http://www.w3.org/Graphics/SVG/1.1/DTD/svg11.dtd">
<svg version="1.1" id="content" xmlns="http://www.w3.org/2000/svg" xmlns:xlink="http://www.w3.org/1999/xlink" x="0px" y="0px"
	 width="500px" height="500px" viewBox="0 0 500 500" enable-background="new 0 0 500 500" xml:space="preserve">
<rect id="position" x="-0.008" y="0.008" display="none" fill="none" stroke="#000000" width="500" height="500"/>
<g id="bounds" display="none">
	
		<rect x="179.052" y="117.294" display="inline" fill="none" stroke="#000000" stroke-width="0.4393" width="141.011" height="148.764"/>
</g>
<g>
	<circle fill="#E0E08C" cx="222.927" cy="177.49" r="2.357"/>
	<circle fill="#FFFF9F" cx="223.345" cy="176.707" r="0.739"/>
	<circle fill="#E0E08C" cx="223.802" cy="184.692" r="2.357"/>
	<circle fill="#E0E08C" cx="250.089" cy="210.65" r="2.357"/>
	<circle fill="#E0E08C" cx="242.846" cy="209.422" r="2.357"/>
	<circle fill="#E0E08C" cx="236.39" cy="206.858" r="2.357"/>
	<circle fill="#E0E08C" cx="231.281" cy="202.143" r="2.357"/>
	<circle fill="#E0E08C" cx="227.441" cy="196.299" r="2.357"/>
	<circle fill="#E0E08C" cx="225.084" cy="190.758" r="2.357"/>
	<circle fill="#E0E08C" cx="277.599" cy="177.49" r="2.357"/>
	<circle fill="#E0E08C" cx="276.725" cy="184.692" r="2.357"/>
	<circle fill="#E0E08C" cx="257.68" cy="209.422" r="2.357"/>
	<circle fill="#E0E08C" cx="264.136" cy="206.858" r="2.357"/>
	<circle fill="#E0E08C" cx="269.246" cy="202.143" r="2.357"/>
	<circle fill="#E0E08C" cx="273.086" cy="196.299" r="2.357"/>
	<circle fill="#E0E08C" cx="275.443" cy="190.758" r="2.357"/>
	<circle fill="#71E3FC" cx="232.383" cy="177.224" r="1.542"/>
	<circle fill="#71E3FC" cx="232.954" cy="181.935" r="1.542"/>
	<circle fill="#71E3FC" cx="250.149" cy="198.915" r="1.542"/>
	<circle fill="#71E3FC" cx="245.412" cy="198.112" r="1.542"/>
	<circle fill="#71E3FC" cx="241.189" cy="196.435" r="1.542"/>
	<circle fill="#71E3FC" cx="237.847" cy="193.351" r="1.542"/>
	<circle fill="#71E3FC" cx="235.335" cy="189.528" r="1.542"/>
	<circle fill="#71E3FC" cx="233.793" cy="185.904" r="1.542"/>
	<circle fill="#71E3FC" cx="268.144" cy="177.224" r="1.542"/>
	<circle fill="#71E3FC" cx="267.573" cy="181.935" r="1.542"/>
	<circle fill="#71E3FC" cx="255.115" cy="198.112" r="1.542"/>
	<circle fill="#71E3FC" cx="259.338" cy="196.435" r="1.542"/>
	<circle fill="#71E3FC" cx="262.68" cy="193.351" r="1.542"/>
	<circle fill="#71E3FC" cx="265.192" cy="189.528" r="1.542"/>
	<circle fill="#71E3FC" cx="266.734" cy="185.904" r="1.542"/>
	<circle fill="#6815B0" cx="228.442" cy="177.849" r="1.882"/>
	<circle fill="#6815B0" cx="244.343" cy="203.341" r="1.882"/>
	<circle fill="#6815B0" cx="235.11" cy="197.531" r="1.882"/>
	<circle fill="#6815B0" cx="230.163" cy="188.442" r="1.882"/>
	<circle fill="#6815B0" cx="272.085" cy="177.849" r="1.882"/>
	<circle fill="#6815B0" cx="271.441" cy="183.114" r="1.172"/>
	<circle fill="#6815B0" cx="268.314" cy="193.068" r="1.172"/>
	<circle fill="#6815B0" cx="261.58" cy="201.132" r="1.172"/>
	<circle fill="#6815B0" cx="256.184" cy="203.341" r="1.882"/>
	<circle fill="#6815B0" cx="265.417" cy="197.531" r="1.882"/>
	<circle fill="#6815B0" cx="270.364" cy="188.442" r="1.882"/>
	<circle fill="#6815B0" cx="250.081" cy="204.313" r="1.172"/>
	<circle fill="#6815B0" cx="239.341" cy="201.235" r="1.172"/>
	<circle fill="#6815B0" cx="232.276" cy="193.125" r="1.172"/>
	<circle fill="#6815B0" cx="228.922" cy="183.18" r="1.172"/>
	<ellipse fill="#BA1549" cx="216.357" cy="184.621" rx="3.021" ry="3.113"/>
	<ellipse fill="#BA1549" cx="250.075" cy="217.059" rx="3.021" ry="3.113"/>
	<ellipse fill="#BA1549" cx="240.793" cy="215.446" rx="3.021" ry="3.113"/>
	<ellipse fill="#BA1549" cx="232.515" cy="212.068" rx="3.021" ry="3.112"/>
	<ellipse fill="#BA1549" cx="225.963" cy="205.849" rx="3.021" ry="3.113"/>
	<ellipse fill="#BA1549" cx="221.356" cy="199.346" rx="3.021" ry="3.113"/>
	<ellipse fill="#BA1549" cx="218.254" cy="192.109" rx="3.021" ry="3.113"/>
	<ellipse fill="#FA1C62" cx="217.18" cy="183.779" rx="1.072" ry="1.108"/>
	<ellipse fill="#BA1549" cx="215.233" cy="177.217" rx="3.021" ry="3.113"/>
	<path fill="#FA1C62" d="M217.129,176.378c0-0.612-0.48-1.109-1.073-1.11c-0.592-0.001-1.071,0.494-1.071,1.106
		c0.001,0.611,0.481,1.108,1.075,1.109C216.649,177.485,217.13,176.99,217.129,176.378z"/>
	<ellipse fill="#FA1C62" cx="218.932" cy="190.977" rx="1.071" ry="1.108"/>
	<ellipse fill="#FA1C62" cx="222.208" cy="198.313" rx="1.073" ry="1.108"/>
	<ellipse fill="#FA1C62" cx="226.666" cy="204.686" rx="1.073" ry="1.108"/>
	<ellipse fill="#FA1C62" cx="233.254" cy="210.917" rx="1.073" ry="1.108"/>
	<ellipse fill="#FA1C62" cx="241.243" cy="214.564" rx="1.073" ry="1.108"/>
	<ellipse fill="#BA1549" cx="284.774" cy="184.62" rx="3.021" ry="3.113"/>
	<ellipse fill="#BA1549" cx="260.338" cy="215.445" rx="3.021" ry="3.113"/>
	<ellipse fill="#BA1549" cx="268.615" cy="212.067" rx="3.021" ry="3.112"/>
	<ellipse fill="#BA1549" cx="275.169" cy="205.848" rx="3.021" ry="3.113"/>
	<ellipse fill="#BA1549" cx="279.776" cy="199.345" rx="3.021" ry="3.112"/>
	<ellipse fill="#BA1549" cx="282.878" cy="192.107" rx="3.021" ry="3.112"/>
	<ellipse fill="#FA1C62" cx="283.95" cy="183.779" rx="1.073" ry="1.107"/>
	<ellipse fill="#BA1549" cx="285.898" cy="177.216" rx="3.021" ry="3.113"/>
	<ellipse fill="#FA1C62" cx="285.075" cy="176.375" rx="1.072" ry="1.108"/>
	<ellipse fill="#FA1C62" cx="282.198" cy="190.976" rx="1.073" ry="1.108"/>
	<ellipse fill="#FA1C62" cx="278.924" cy="198.312" rx="1.072" ry="1.108"/>
	<ellipse fill="#FA1C62" cx="274.465" cy="204.685" rx="1.072" ry="1.108"/>
	<ellipse fill="#FA1C62" cx="267.877" cy="210.917" rx="1.072" ry="1.108"/>
	<ellipse fill="#FA1C62" cx="259.888" cy="214.564" rx="1.071" ry="1.108"/>
	<ellipse fill="#FA1C62" cx="250.279" cy="215.677" rx="1.072" ry="1.108"/>
	<circle fill="#FFFF9F" cx="224.541" cy="183.919" r="0.739"/>
	<circle fill="#FFFF9F" cx="225.687" cy="190.019" r="0.739"/>
	<circle fill="#FFFF9F" cx="227.907" cy="195.516" r="0.739"/>
	<circle fill="#FFFF9F" cx="231.843" cy="201.235" r="0.739"/>
	<circle fill="#FFFF9F" cx="236.877" cy="205.899" r="0.739"/>
	<circle fill="#FFFF9F" cx="243.33" cy="208.293" r="0.739"/>
	<circle fill="#FFFF9F" cx="250.05" cy="209.422" r="0.739"/>
	<circle fill="#FFFF9F" cx="257.327" cy="208.293" r="0.739"/>
	<circle fill="#FFFF9F" cx="263.805" cy="205.733" r="0.739"/>
	<circle fill="#FFFF9F" cx="268.583" cy="201.197" r="0.739"/>
	<circle fill="#FFFF9F" cx="272.246" cy="195.259" r="0.739"/>
	<circle fill="#FFFF9F" cx="274.738" cy="189.968" r="0.739"/>
	<circle fill="#FFFF9F" cx="275.511" cy="184.285" r="0.739"/>
	<circle fill="#FFFF9F" cx="276.551" cy="177.49" r="0.739"/>
	<circle fill="#961EFC" cx="228.758" cy="177.391" r="0.669"/>
	<circle fill="#961EFC" cx="230.649" cy="187.902" r="0.669"/>
	<circle fill="#961EFC" cx="235.558" cy="196.789" r="0.669"/>
	<circle fill="#961EFC" cx="244.534" cy="202.644" r="0.669"/>
	<circle fill="#961EFC" cx="255.992" cy="202.532" r="0.669"/>
	<circle fill="#961EFC" cx="264.892" cy="196.969" r="0.669"/>
	<circle fill="#961EFC" cx="269.695" cy="188.181" r="0.669"/>
	<circle fill="#961EFC" cx="271.576" cy="177.628" r="0.669"/>
	<path fill="#BAF3FF" d="M268.4,176.946c-0.008-0.31-0.271-0.56-0.587-0.56c-0.317,0-0.567,0.251-0.561,0.561
		c0.009,0.311,0.271,0.562,0.588,0.562C268.157,177.508,268.408,177.256,268.4,176.946z"/>
	<path fill="#BAF3FF" d="M267.784,181.654c-0.008-0.31-0.271-0.56-0.587-0.56c-0.317,0-0.567,0.251-0.56,0.561
		c0.008,0.311,0.27,0.562,0.588,0.562C267.541,182.216,267.792,181.964,267.784,181.654z"/>
	<path fill="#BAF3FF" d="M266.945,185.557c-0.008-0.31-0.271-0.56-0.587-0.56c-0.317,0-0.567,0.251-0.561,0.561
		c0.009,0.311,0.271,0.562,0.589,0.562C266.702,186.119,266.953,185.867,266.945,185.557z"/>
	<path fill="#BAF3FF" d="M265.351,189.145c-0.008-0.31-0.271-0.56-0.587-0.56c-0.317,0-0.567,0.251-0.561,0.561
		c0.008,0.311,0.271,0.562,0.588,0.562C265.108,189.707,265.359,189.455,265.351,189.145z"/>
	<path fill="#BAF3FF" d="M263.061,192.858c-0.008-0.31-0.271-0.56-0.587-0.56c-0.317,0-0.567,0.251-0.561,0.561
		c0.008,0.311,0.271,0.562,0.588,0.562C262.818,193.42,263.069,193.168,263.061,192.858z"/>
	<path fill="#BAF3FF" d="M259.732,195.833c-0.008-0.311-0.271-0.561-0.587-0.561c-0.317,0-0.567,0.251-0.561,0.562
		c0.008,0.31,0.271,0.561,0.588,0.561C259.489,196.395,259.74,196.143,259.732,195.833z"/>
	<path fill="#BAF3FF" d="M255.489,197.583c-0.008-0.311-0.271-0.561-0.587-0.561c-0.317,0-0.567,0.251-0.561,0.562
		c0.009,0.31,0.271,0.561,0.589,0.561C255.246,198.145,255.497,197.893,255.489,197.583z"/>
	<path fill="#BAF3FF" d="M250.792,198.334c-0.008-0.311-0.271-0.561-0.587-0.561s-0.566,0.251-0.56,0.562
		c0.008,0.31,0.27,0.561,0.588,0.561C250.549,198.896,250.8,198.644,250.792,198.334z"/>
	<path fill="#BAF3FF" d="M246.242,197.568c-0.008-0.31-0.271-0.56-0.587-0.56c-0.317,0-0.567,0.251-0.56,0.561
		c0.008,0.311,0.27,0.562,0.588,0.562C245.999,198.13,246.25,197.878,246.242,197.568z"/>
	<path fill="#BAF3FF" d="M242.087,195.888c-0.008-0.31-0.271-0.56-0.587-0.56s-0.566,0.251-0.56,0.561
		c0.008,0.311,0.27,0.562,0.588,0.562C241.844,196.45,242.094,196.198,242.087,195.888z"/>
	<path fill="#BAF3FF" d="M238.924,192.948c-0.008-0.31-0.271-0.56-0.587-0.56s-0.566,0.251-0.56,0.562
		c0.008,0.31,0.27,0.561,0.588,0.561C238.68,193.51,238.931,193.258,238.924,192.948z"/>
	<path fill="#BAF3FF" d="M236.344,189.195c-0.009-0.31-0.271-0.56-0.588-0.56s-0.566,0.251-0.56,0.561
		c0.008,0.311,0.27,0.562,0.588,0.562C236.101,189.757,236.352,189.505,236.344,189.195z"/>
	<path fill="#BAF3FF" d="M234.837,185.529c-0.008-0.31-0.271-0.56-0.587-0.56s-0.566,0.251-0.56,0.561
		c0.008,0.311,0.27,0.562,0.588,0.562C234.594,186.091,234.844,185.839,234.837,185.529z"/>
	<path fill="#BAF3FF" d="M234.008,181.641c-0.008-0.31-0.271-0.56-0.587-0.56s-0.566,0.251-0.56,0.561
		c0.008,0.311,0.27,0.562,0.588,0.562C233.764,182.203,234.015,181.951,234.008,181.641z"/>
	<path fill="#BAF3FF" d="M233.512,177.218c-0.009-0.31-0.271-0.56-0.588-0.56s-0.566,0.251-0.56,0.561
		c0.008,0.31,0.27,0.561,0.588,0.561C233.269,177.78,233.52,177.528,233.512,177.218z"/>
</g>
</svg>
