<?xml version="1.0" encoding="utf-8"?>
<!-- Generator: Adobe Illustrator 14.0.0, SVG Export Plug-In . SVG Version: 6.00 Build 43363)  -->
<!DOCTYPE svg PUBLIC "-//W3C//DTD SVG 1.1//EN" "http://www.w3.org/Graphics/SVG/1.1/DTD/svg11.dtd">
<svg version="1.1" id="content" xmlns="http://www.w3.org/2000/svg" xmlns:xlink="http://www.w3.org/1999/xlink" x="0px" y="0px"
	 width="500px" height="500px" viewBox="0 0 500 500" enable-background="new 0 0 500 500" xml:space="preserve">
<g id="bounds" display="none">
	<rect x="175.27" y="164.74" fill="none" stroke="#000000" stroke-width="0.8446" width="146.731" height="146.732"/>
</g>
<g id="accessory">
	<path fill="#D8D9DA" d="M192.598,181.658c-3.141,0.133-5.645,2.28-5.645,4.934c0,2.737,2.661,4.958,5.943,4.958
		s5.943-2.221,5.943-4.958c0-2.738-2.662-4.958-5.943-4.958c-0.016,0-0.03,0.004-0.047,0.004l-0.139,0.115L192.598,181.658z
		 M194.823,184.986c1.064,0,1.927,0.72,1.927,1.607c0,0.887-0.862,1.606-1.927,1.606s-1.927-0.72-1.927-1.606
		C192.896,185.704,193.758,184.986,194.823,184.986z"/>
	<ellipse fill="#FFFFFF" cx="194.823" cy="186.593" rx="1.926" ry="1.607"/>
	<polygon fill="#D8D9DA" points="185.882,176.055 192.598,181.658 192.71,181.754 192.849,181.638 199.541,176.055 198.816,175.448 
		196.164,175.448 196.89,176.055 194.801,177.799 192.711,176.055 193.439,175.448 186.609,175.448 	"/>
	<polygon fill="#FFFFFF" points="194.801,177.799 196.89,176.055 196.164,175.448 193.439,175.448 192.711,176.055 	"/>
	<path fill="#D8D9DA" d="M192.598,203.462c-3.142,0.132-5.646,2.278-5.646,4.933c0,2.739,2.661,4.958,5.943,4.958
		s5.943-2.22,5.943-4.958s-2.662-4.958-5.943-4.958c-0.017,0-0.03,0.004-0.048,0.004l-0.139,0.115L192.598,203.462z
		 M194.823,206.786c1.064,0,1.927,0.721,1.927,1.607s-0.862,1.607-1.927,1.607s-1.927-0.721-1.927-1.607
		C192.896,207.508,193.758,206.786,194.823,206.786z"/>
	<ellipse fill="#FFFFFF" cx="194.823" cy="208.394" rx="1.926" ry="1.607"/>
	<path fill="#D8D9DA" d="M192.71,192.16l-6.827,5.696l6.717,5.604l0.111,0.094l0.139-0.115l6.692-5.583L192.71,192.16z
		 M192.711,197.857l2.09-1.742l2.089,1.742l-2.089,1.743L192.711,197.857z"/>
	<polygon fill="#FFFFFF" points="192.707,197.856 194.796,196.114 196.887,197.857 194.797,199.599 	"/>
	<path fill="#D8D9DA" d="M192.598,225.263c-3.141,0.132-5.645,2.28-5.645,4.933c0,2.738,2.661,4.958,5.943,4.958
		s5.943-2.22,5.943-4.958c0-2.737-2.662-4.958-5.943-4.958c-0.016,0-0.03,0.004-0.047,0.004l-0.139,0.115L192.598,225.263z
		 M194.823,228.59c1.064,0,1.927,0.72,1.927,1.606c0,0.888-0.862,1.607-1.927,1.607s-1.927-0.72-1.927-1.607
		C192.896,229.31,193.758,228.59,194.823,228.59z"/>
	<ellipse fill="#FFFFFF" cx="194.823" cy="230.197" rx="1.926" ry="1.607"/>
	<path fill="#D8D9DA" d="M192.71,213.964l-6.827,5.695l6.715,5.604l0.112,0.094l0.139-0.115l6.692-5.583L192.71,213.964z
		 M192.711,219.658l2.09-1.741l2.089,1.741l-2.089,1.744L192.711,219.658z"/>
	<polygon fill="#FFFFFF" points="192.708,219.659 194.796,217.918 196.887,219.661 194.796,221.404 	"/>
	<path fill="#D8D9DA" d="M192.598,247.065c-1.52,0.064-2.896,0.586-3.903,1.428c-1.078,0.891-1.729,2.32-1.604,3.816
		c0.119,1.508,0.964,2.816,2.198,3.643c1.22,0.83,2.819,1.178,4.43,0.939c1.621-0.236,2.959-0.979,3.894-1.92
		c0.918-0.945,1.438-2.096,1.34-3.311c-0.101-1.228-0.774-2.266-1.853-3.17c-1.074-0.896-2.561-1.453-4.202-1.453
		c-0.016,0-0.03,0.004-0.047,0.004l-0.139,0.115L192.598,247.065z M194.85,250.337c1.073-0.022,1.942,0.625,2.015,1.44
		c0.059,0.814-0.708,1.551-1.773,1.646c-1.051,0.092-2.009-0.553-2.071-1.438C192.943,251.097,193.795,250.358,194.85,250.337z"/>
	<path fill="#FFFFFF" d="M195.092,253.426c1.064-0.098,1.832-0.83,1.774-1.646c-0.072-0.814-0.942-1.464-2.015-1.441
		c-1.057,0.021-1.909,0.761-1.831,1.648C193.082,252.873,194.04,253.513,195.092,253.426z"/>
	<path fill="#D8D9DA" d="M192.71,247.158l0.139-0.114l6.692-5.583l-6.831-5.696l-6.827,5.696l6.715,5.604L192.71,247.158z
		 M194.801,239.719l2.089,1.742l-2.089,1.743l-2.09-1.743L194.801,239.719z"/>
	<polygon fill="#FFFFFF" points="194.802,239.716 196.891,241.458 194.804,243.201 192.713,241.459 	"/>
	<path fill="#D8D9DA" d="M194.87,271.041c-0.464,1.26-0.274,2.738,0.648,4.041c0.925,1.303,2.388,2.152,3.935,2.42
		c1.543,0.277,3.15-0.014,4.461-0.83c1.316-0.822,2.114-1.992,2.432-3.182c0.306-1.189,0.148-2.412-0.596-3.459
		c-0.741-1.047-1.945-1.748-3.343-2.098c-1.406-0.34-3.015-0.32-4.516,0.244c-0.012,0.006-0.021,0.014-0.031,0.018
		c-0.025,0.053-0.051,0.105-0.077,0.156c-0.049-0.018-0.096-0.033-0.146-0.049C196.286,268.886,195.292,269.855,194.87,271.041z
		 M201.373,270.396c0.944-0.424,2.071-0.178,2.576,0.523c0.493,0.705,0.21,1.648-0.689,2.137c-0.887,0.479-2.089,0.27-2.627-0.5
		C200.083,271.797,200.442,270.812,201.373,270.396z"/>
	<path fill="#FFFFFF" d="M203.26,273.056c0.899-0.484,1.183-1.434,0.689-2.139c-0.505-0.699-1.632-0.945-2.576-0.521
		c-0.931,0.416-1.29,1.396-0.74,2.16C201.171,273.326,202.373,273.537,203.26,273.056z"/>
	<path fill="#D8D9DA" d="M197.86,268.195c1.099-2.457,2.447-4.766,3.974-6.879c-2.781-1.012-5.509-2.281-8.168-3.801
		c-1.815,2.215-3.461,4.641-4.851,7.246c2.902,1.436,5.848,2.615,8.823,3.541c0.05,0.016,0.099,0.031,0.146,0.049
		C197.809,268.301,197.834,268.248,197.86,268.195z M195.324,263.039c0.454-0.729,0.924-1.438,1.419-2.133
		c0.848,0.385,1.706,0.742,2.563,1.08c-0.471,0.688-0.921,1.395-1.347,2.115C197.076,263.773,196.197,263.418,195.324,263.039z"/>
	<path fill="#FFFFFF" d="M199.307,261.986c-0.857-0.338-1.716-0.695-2.563-1.08c-0.495,0.693-0.965,1.402-1.419,2.133
		c0.874,0.379,1.752,0.734,2.636,1.064C198.386,263.381,198.836,262.674,199.307,261.986z"/>
	<path fill="#D8D9DA" d="M212.581,288.865c0.272,1.291,1.226,2.555,2.753,3.369c1.526,0.818,3.298,1.018,4.82,0.688
		c1.531-0.334,2.805-1.188,3.539-2.416c0.729-1.227,0.818-2.572,0.459-3.752c-0.36-1.188-1.165-2.205-2.394-2.863
		c-1.228-0.656-2.671-0.848-4.116-0.627c-1.438,0.221-2.871,0.846-3.899,1.91c-0.01,0.008-0.015,0.02-0.022,0.027
		c0.007,0.057,0.009,0.109,0.018,0.164c-0.051,0.006-0.104,0.008-0.154,0.014C212.688,286.408,212.324,287.642,212.581,288.865z
		 M218.05,285.849c0.608-0.727,1.759-0.938,2.58-0.49c0.825,0.438,1.073,1.398,0.536,2.162c-0.541,0.77-1.719,1.018-2.618,0.541
		C217.653,287.578,217.435,286.578,218.05,285.849z"/>
	<path fill="#FFFFFF" d="M218.548,288.062c0.899,0.477,2.077,0.229,2.618-0.541c0.537-0.764,0.293-1.727-0.536-2.162
		c-0.824-0.445-1.974-0.232-2.58,0.49C217.435,286.578,217.653,287.578,218.548,288.062z"/>
	<path fill="#D8D9DA" d="M213.722,285.203c-0.336-2.607-0.391-5.168-0.164-7.639c-3.028,0.137-6.162,0.037-9.351-0.316
		c-0.427,2.664-0.571,5.439-0.409,8.287c3.354,0.193,6.635,0.131,9.787-0.152c0.05-0.006,0.103-0.01,0.154-0.014
		C213.731,285.314,213.729,285.261,213.722,285.203z M211.604,281.511c-0.962,0.029-1.945,0.055-2.926,0.039
		c0.007-0.816,0.052-1.639,0.109-2.438c0.974,0.02,1.923,0.023,2.876-0.002C211.612,279.906,211.601,280.697,211.604,281.511z"/>
	<path fill="#FFFFFF" d="M208.678,281.551c0.98,0.016,1.964-0.01,2.926-0.039c-0.002-0.814,0.008-1.605,0.06-2.396
		c-0.953,0.023-1.902,0.021-2.876,0.002C208.73,279.912,208.683,280.73,208.678,281.551z"/>
	<path fill="#D8D9DA" d="M238.026,298.136c0.943,1.045,2.479,1.813,4.282,1.967c1.806,0.15,3.492-0.338,4.669-1.203
		c1.186-0.881,1.858-2.115,1.849-3.488c-0.008-1.363-0.66-2.609-1.621-3.521c-0.966-0.924-2.238-1.529-3.69-1.65
		c-1.45-0.125-2.841,0.252-4.011,0.996c-1.159,0.73-2.101,1.838-2.442,3.172c-0.002,0.014-0.001,0.023-0.004,0.035
		c0.036,0.047,0.069,0.096,0.104,0.145c-0.042,0.021-0.089,0.045-0.131,0.066C236.787,295.908,237.134,297.138,238.026,298.136z
		 M241.267,293.386c0.15-0.875,1.061-1.5,2.035-1.414c0.975,0.078,1.717,0.85,1.651,1.729c-0.065,0.893-0.981,1.557-2.044,1.473
		C241.85,295.076,241.116,294.265,241.267,293.386z"/>
	<path fill="#FFFFFF" d="M242.912,295.172c1.061,0.084,1.977-0.58,2.042-1.473c0.065-0.881-0.676-1.648-1.651-1.729
		c-0.975-0.086-1.885,0.539-2.035,1.414C241.116,294.265,241.85,295.076,242.912,295.172z"/>
	<path fill="#D8D9DA" d="M237.057,294.441c-1.714-2.207-3.145-4.469-4.273-6.756c-2.623,1.258-5.475,2.35-8.517,3.229
		c1.055,2.535,2.425,5.064,4.107,7.559c3.105-1.09,6-2.381,8.657-3.82c0.044-0.021,0.09-0.045,0.131-0.066
		C237.126,294.537,237.093,294.488,237.057,294.441z M230.579,293.08c-0.432-0.74-0.842-1.477-1.216-2.223
		c0.875-0.338,1.731-0.703,2.564-1.076c0.386,0.715,0.796,1.449,1.241,2.158C232.324,292.344,231.464,292.713,230.579,293.08z"/>
	<path fill="#FFFFFF" d="M229.363,290.857c0.375,0.748,0.784,1.48,1.215,2.223c0.887-0.367,1.747-0.736,2.589-1.141
		c-0.443-0.711-0.854-1.443-1.24-2.158C231.094,290.154,230.238,290.519,229.363,290.857z"/>
	<path fill="#D8D9DA" d="M262.973,294.109c0.459,1.209,1.438,2.195,2.768,2.74c1.409,0.592,3.191,0.688,4.885,0.146
		c1.694-0.541,2.947-1.6,3.524-2.826c0.588-1.225,0.516-2.594-0.23-3.807c-0.752-1.227-2-2.076-3.351-2.539
		c-1.355-0.451-2.822-0.525-4.179-0.092c-1.363,0.434-2.396,1.303-3.044,2.395c-0.638,1.1-0.891,2.422-0.476,3.75
		c0.004,0.014,0.012,0.021,0.019,0.033c0.057,0.027,0.111,0.061,0.169,0.086C263.026,294.035,262.998,294.072,262.973,294.109z"/>
	<path fill="#FFFFFF" d="M271.378,292.638c0.996-0.314,1.453-1.266,1.034-2.074c-0.424-0.822-1.492-1.217-2.411-0.93
		c-0.912,0.301-1.396,1.182-1.055,2.029C269.286,292.502,270.386,292.965,271.378,292.638z"/>
	<path fill="#D8D9DA" d="M262.973,294.109c0.025-0.037,0.057-0.074,0.081-0.111c-0.058-0.025-0.111-0.057-0.171-0.086
		c-2.72-1.32-5.216-2.814-7.457-4.436c-1.669,2.111-3.629,4.154-5.869,6.08c2.313,1.871,4.897,3.621,7.741,5.207
		C259.479,298.627,261.376,296.398,262.973,294.109z"/>
	<path fill="#FFFFFF" d="M256.715,292.058c-0.541,0.658-1.112,1.287-1.709,1.93c0.734,0.516,1.498,1.035,2.279,1.523
		c0.597-0.648,1.162-1.318,1.701-1.984C258.206,293.049,257.449,292.566,256.715,292.058z"/>
	<path fill="#D8D9DA" d="M285.832,283.869c1.064,0.908,2.464,1.414,3.948,1.406c1.571-0.01,3.222-0.58,4.442-1.699
		c1.224-1.117,1.755-2.541,1.622-3.846c-0.136-1.314-0.931-2.508-2.262-3.318c-1.321-0.805-2.904-1.104-4.355-1.008
		c-1.467,0.102-2.804,0.592-3.788,1.488c-0.98,0.902-1.448,2.061-1.43,3.283c0.023,1.219,0.521,2.5,1.609,3.523
		c0.008,0.01,0.021,0.016,0.027,0.023c0.067,0.002,0.131,0.01,0.199,0.014C285.843,283.783,285.834,283.826,285.832,283.869z"/>
	<path fill="#FFFFFF" d="M293.759,280.613c0.715-0.66,0.617-1.672-0.198-2.246c-0.813-0.566-1.992-0.525-2.649,0.078
		c-0.666,0.605-0.606,1.586,0.148,2.209C291.82,281.279,293.038,281.267,293.759,280.613z"/>
	<path fill="#D8D9DA" d="M285.832,283.869c0.002-0.043,0.011-0.086,0.014-0.131c-0.068-0.002-0.132-0.01-0.199-0.014
		c-3.145-0.158-6.174-0.543-9.06-1.145c-0.341,2.516-0.979,5.072-1.937,7.637c3.075,0.799,6.332,1.383,9.726,1.727
		C285.165,289.217,285.642,286.51,285.832,283.869z"/>
	<path fill="#FFFFFF" d="M280.813,287.338c0.934,0.184,1.896,0.355,2.863,0.498c0.178-0.805,0.32-1.615,0.44-2.412
		c-0.96-0.135-1.892-0.273-2.823-0.451C281.164,285.761,280.998,286.541,280.813,287.338z"/>
	<path fill="#D8D9DA" d="M305.019,265.922c1.405-0.598,2.56-1.732,3.047-3.189c0.492-1.459,0.194-2.932-0.636-4.049
		c-0.825-1.119-2.193-1.885-3.813-2.105c-1.621-0.221-3.183,0.109-4.432,0.742c-1.25,0.641-2.172,1.582-2.572,2.754
		c-0.393,1.168-0.175,2.377,0.501,3.463c0.669,1.076,1.816,2.039,3.337,2.545c0.013,0.006,0.026,0.006,0.04,0.012
		c0.063-0.021,0.124-0.041,0.182-0.064c0.022,0.039,0.039,0.08,0.062,0.121C302.178,266.558,303.693,266.482,305.019,265.922z"/>
	<path fill="#FFFFFF" d="M305.443,259.47c-1.036-0.201-2.06,0.279-2.323,1.066c-0.266,0.785,0.321,1.643,1.33,1.91
		c1.015,0.275,2.095-0.191,2.381-1.051C307.123,260.545,306.48,259.677,305.443,259.47z"/>
	<path fill="#D8D9DA" d="M300.491,266.092c-2.9,1.037-5.817,1.828-8.705,2.373c1.036,2.367,1.846,4.896,2.373,7.549
		c3.173-0.441,6.395-1.143,9.618-2.104c-0.77-2.736-1.801-5.334-3.049-7.762c-0.021-0.041-0.039-0.082-0.06-0.121
		C300.615,266.052,300.554,266.068,300.491,266.092z"/>
	<path fill="#FFFFFF" d="M297.958,269.781c0.296,0.748,0.585,1.518,0.836,2.291c0.946-0.182,1.879-0.395,2.833-0.623
		c-0.288-0.793-0.578-1.561-0.913-2.322C299.801,269.371,298.869,269.586,297.958,269.781z"/>
	<path fill="#D8D9DA" d="M304.674,244.727c3.141-0.132,5.646-2.28,5.646-4.933c0-2.739-2.663-4.958-5.944-4.958
		s-5.942,2.22-5.942,4.958c0,2.737,2.661,4.958,5.942,4.958c0.016,0,0.031-0.004,0.049-0.004l0.137-0.115L304.674,244.727z"/>
	<ellipse fill="#FFFFFF" cx="306.943" cy="239.794" rx="1.928" ry="1.607"/>
	<path fill="#D8D9DA" d="M311.358,250.502c-0.547-0.546-1.118-1.08-1.674-1.595l-1.708-1.424l-3.302-2.755l-0.113-0.094
		l-0.137,0.115l-3.277,2.733l-1.71,1.424c-0.575,0.435-1.146,0.852-1.729,1.254c2.213,1.726,4.301,3.677,6.213,5.839
		C306.506,254.41,309.004,252.57,311.358,250.502z"/>
	<path fill="#FFFFFF" d="M306.967,248.588c-0.7,0.587-1.401,1.112-2.117,1.639c0.675,0.554,1.345,1.13,1.989,1.728
		c0.744-0.521,1.468-1.063,2.187-1.625C308.35,249.727,307.66,249.167,306.967,248.588z"/>
	<path fill="#D8D9DA" d="M304.674,222.925c3.141-0.132,5.646-2.28,5.646-4.934c0-2.737-2.663-4.958-5.944-4.958
		s-5.942,2.221-5.942,4.958c0,2.738,2.661,4.958,5.942,4.958c0.016,0,0.031-0.004,0.049-0.004l0.137-0.115L304.674,222.925z"/>
	<ellipse fill="#FFFFFF" cx="306.943" cy="217.992" rx="1.928" ry="1.607"/>
	<path fill="#D8D9DA" d="M304.674,222.925l-0.113-0.095l-0.137,0.115l-6.694,5.583l6.831,5.696l6.827-5.696L304.674,222.925z"/>
	<polygon fill="#FFFFFF" points="306.967,230.276 304.875,228.533 306.961,226.791 309.052,228.532 	"/>
	<path fill="#D8D9DA" d="M304.672,201.122c3.143-0.132,5.647-2.279,5.647-4.933c0-2.739-2.663-4.958-5.944-4.958
		s-5.942,2.22-5.942,4.958s2.661,4.958,5.942,4.958c0.016,0,0.031-0.004,0.049-0.004l0.137-0.115L304.672,201.122z"/>
	<ellipse fill="#FFFFFF" cx="306.943" cy="196.19" rx="1.928" ry="1.607"/>
	<path fill="#D8D9DA" d="M304.561,212.423l6.827-5.696l-6.718-5.604l-0.111-0.094l-0.139,0.115l-6.693,5.583L304.561,212.423z"/>
	<polygon fill="#FFFFFF" points="309.059,206.725 306.97,208.466 304.882,206.722 306.97,204.982 	"/>
	<path fill="#D8D9DA" d="M310.171,175.448h-11.595c0.582,2.228,2.953,3.896,5.799,3.896c0.019,0,0.031-0.004,0.049-0.004
		l0.137-0.115l0.113,0.094C307.379,179.207,309.606,177.592,310.171,175.448z"/>
	<path fill="#FFFFFF" d="M306.943,175.993c0.574,0,1.081-0.213,1.435-0.545h-2.872C305.861,175.781,306.371,175.993,306.943,175.993
		z"/>
	<path fill="#D8D9DA" d="M304.424,179.342l-6.694,5.583l6.831,5.695l6.827-5.695l-6.718-5.604l-0.112-0.094L304.424,179.342z"/>
	<polygon fill="#FFFFFF" points="306.967,186.67 304.875,184.927 306.962,183.185 309.053,184.928 	"/>
	<path fill="#D8D9DA" d="M205.837,177.263c1.253,0,2.269,0.845,2.274,1.888c0-0.003,0.001-0.006,0.001-0.009
		c0-1.047-1.02-1.897-2.275-1.897c-1.255,0-2.273,0.851-2.273,1.897c0,0.003,0.001,0.006,0.001,0.009
		C203.571,178.108,204.585,177.263,205.837,177.263z"/>
	<path fill="#D8D9DA" d="M205.837,181.105c1.251,0,2.267,0.844,2.273,1.886c0-0.004,0.001-0.008,0.001-0.012
		c0-1.048-1.02-1.896-2.275-1.896c-1.255,0-2.273,0.85-2.273,1.896c0,0.004,0.001,0.008,0.001,0.012
		C203.573,181.948,204.586,181.105,205.837,181.105z"/>
	<path fill="#D8D9DA" d="M205.837,184.948c1.249,0,2.264,0.842,2.273,1.882c0-0.005,0.001-0.01,0.001-0.015
		c0-1.048-1.02-1.897-2.275-1.897c-1.255,0-2.273,0.85-2.273,1.897c0,0.005,0.001,0.01,0.001,0.015
		C203.575,185.789,204.588,184.948,205.837,184.948z"/>
	<path fill="#D8D9DA" d="M205.837,188.789c1.249,0,2.262,0.841,2.273,1.88c0-0.007,0.002-0.013,0.002-0.019
		c0-1.047-1.02-1.896-2.275-1.896c-1.255,0-2.273,0.85-2.273,1.896c0,0.006,0.002,0.012,0.002,0.019
		C203.578,189.63,204.589,188.789,205.837,188.789z"/>
	<path fill="#D8D9DA" d="M205.837,192.632c1.247,0,2.258,0.838,2.273,1.876c0-0.007,0.002-0.015,0.002-0.021
		c0-1.048-1.02-1.897-2.275-1.897c-1.255,0-2.273,0.85-2.273,1.897c0,0.007,0.002,0.015,0.002,0.021
		C203.58,193.47,204.59,192.632,205.837,192.632z"/>
	<path fill="#D8D9DA" d="M205.837,196.474c1.246,0,2.256,0.837,2.273,1.873c0-0.008,0.002-0.017,0.002-0.024
		c0-1.045-1.014-1.893-2.267-1.896c-0.003,0-0.007,0.001-0.009,0.001s-0.006-0.001-0.009-0.001
		c-1.251,0.004-2.265,0.852-2.265,1.896c0,0.008,0.002,0.017,0.002,0.024C203.582,197.312,204.592,196.474,205.837,196.474z"/>
	<path fill="#D8D9DA" d="M205.837,200.317c1.245,0,2.254,0.835,2.272,1.87c0-0.009,0.003-0.018,0.003-0.027
		c0-1.035-0.996-1.874-2.23-1.894c-0.016,0-0.028,0.003-0.045,0.003c-0.016,0-0.028-0.003-0.044-0.003
		c-1.233,0.02-2.229,0.858-2.229,1.894c0,0.01,0.002,0.019,0.003,0.027C203.584,201.152,204.593,200.317,205.837,200.317z"/>
	<path fill="#D8D9DA" d="M205.837,204.158c1.244,0,2.252,0.833,2.272,1.867c0-0.01,0.003-0.02,0.003-0.03
		c0-1.023-0.976-1.854-2.193-1.891c-0.028,0.001-0.054,0.007-0.082,0.007c-0.027,0-0.054-0.006-0.081-0.007
		c-1.219,0.037-2.193,0.867-2.193,1.891c0,0.011,0.003,0.021,0.003,0.03C203.587,204.991,204.594,204.158,205.837,204.158z"/>
	<path fill="#D8D9DA" d="M205.837,208.001c1.243,0,2.249,0.833,2.272,1.863c0-0.012,0.003-0.021,0.003-0.034
		c0-1.013-0.956-1.835-2.155-1.888c-0.039,0.002-0.078,0.01-0.12,0.01c-0.04,0-0.079-0.008-0.119-0.01
		c-1.199,0.053-2.155,0.875-2.155,1.888c0,0.012,0.003,0.022,0.003,0.034C203.588,208.834,204.595,208.001,205.837,208.001z"/>
	<path fill="#D8D9DA" d="M205.837,211.844c1.242,0,2.247,0.831,2.272,1.86c0-0.012,0.003-0.023,0.003-0.036
		c0-1.005-0.939-1.818-2.123-1.885c-0.051,0.003-0.1,0.014-0.151,0.014s-0.1-0.011-0.151-0.014c-1.183,0.066-2.122,0.88-2.122,1.885
		c0,0.013,0.004,0.023,0.004,0.036C203.591,212.674,204.596,211.844,205.837,211.844z"/>
	<path fill="#D8D9DA" d="M205.837,215.686c1.239,0,2.245,0.829,2.271,1.858c0-0.015,0.004-0.026,0.004-0.04
		c0-0.994-0.92-1.801-2.086-1.881c-0.063,0.004-0.124,0.016-0.189,0.016c-0.064,0-0.125-0.011-0.189-0.016
		c-1.166,0.081-2.085,0.888-2.085,1.881c0,0.014,0.003,0.025,0.004,0.04C203.593,216.515,204.599,215.686,205.837,215.686z"/>
	<path fill="#D8D9DA" d="M205.837,219.528c1.238,0,2.243,0.828,2.271,1.855c0-0.016,0.004-0.028,0.004-0.042
		c0-0.983-0.898-1.782-2.048-1.878c-0.075,0.006-0.148,0.019-0.228,0.019c-0.075,0-0.151-0.013-0.226-0.019
		c-1.148,0.096-2.048,0.896-2.048,1.878c0,0.015,0.005,0.027,0.005,0.042C203.596,220.356,204.6,219.528,205.837,219.528z"/>
	<path fill="#D8D9DA" d="M205.837,223.37c1.237,0,2.24,0.825,2.271,1.853c0-0.016,0.004-0.03,0.004-0.046
		c0-0.974-0.883-1.767-2.013-1.875c-0.088,0.008-0.173,0.021-0.263,0.021s-0.174-0.014-0.262-0.021
		c-1.131,0.109-2.013,0.902-2.013,1.875c0,0.016,0.004,0.03,0.004,0.046C203.598,224.196,204.602,223.37,205.837,223.37z"/>
	<path fill="#D8D9DA" d="M205.837,227.213c1.236,0,2.237,0.823,2.271,1.849c0-0.017,0.005-0.032,0.005-0.048
		c0-0.963-0.862-1.75-1.978-1.873c-0.099,0.011-0.196,0.025-0.298,0.025c-0.101,0-0.199-0.016-0.298-0.025
		c-1.112,0.123-1.976,0.91-1.976,1.873c0,0.017,0.005,0.032,0.006,0.049C203.6,228.036,204.603,227.213,205.837,227.213z"/>
	<path fill="#D8D9DA" d="M208.113,232.952c0,0.418-0.168,0.803-0.443,1.117c0.391-0.373,0.609-0.857,0.561-1.366
		c-0.075-0.883-0.929-1.602-2.014-1.727c-0.125,0.018-0.249,0.032-0.378,0.032c-0.102,0-0.2-0.015-0.299-0.025
		c-0.563,0.075-1.049,0.332-1.383,0.705c0.416-0.386,1.013-0.633,1.682-0.633C207.093,231.055,208.113,231.905,208.113,232.952z"/>
	<path fill="#D8D9DA" d="M205.837,234.898c1.256,0,2.275,0.85,2.275,1.897c0,0.782-0.569,1.454-1.38,1.743
		c0.1-0.009,0.198-0.014,0.297-0.034c1.22-0.255,1.975-1.234,1.763-2.201c-0.2-0.897-1.188-1.547-2.33-1.534
		c-0.2,0.047-0.405,0.081-0.624,0.081c-0.007,0-0.013-0.001-0.02-0.002c-0.072,0.019-0.14,0.044-0.207,0.069
		C205.686,234.909,205.759,234.898,205.837,234.898z"/>
	<path fill="#D8D9DA" d="M208.113,240.637c0,0.668-0.418,1.254-1.043,1.592c0.41,0.087,0.853,0.079,1.275-0.051
		c1.179-0.364,1.805-1.406,1.469-2.348c-0.342-0.938-1.549-1.522-2.773-1.286c-0.249,0.048-0.474,0.139-0.678,0.25
		C207.365,238.992,208.113,239.74,208.113,240.637z"/>
	<path fill="#D8D9DA" d="M208.113,244.48c-0.001,0.368-0.131,0.703-0.343,0.988c0.659,0.45,1.569,0.572,2.359,0.244
		c1.122-0.468,1.616-1.563,1.154-2.466c-0.455-0.904-1.738-1.375-2.922-1.029c-0.492,0.144-0.875,0.426-1.128,0.774
		C207.766,243.34,208.113,243.874,208.113,244.48z"/>
	<path fill="#D8D9DA" d="M210.152,245.747c-1.132,0.45-1.586,1.632-0.936,2.604c0.646,0.976,2.089,1.277,3.145,0.712
		c1.058-0.566,1.399-1.695,0.83-2.555C212.619,245.652,211.286,245.298,210.152,245.747z"/>
	<path fill="#D8D9DA" d="M212.387,249.099c-1.067,0.548-1.37,1.764-0.598,2.672c0.771,0.908,2.24,1.082,3.217,0.428
		c0.979-0.656,1.18-1.814,0.5-2.615C214.824,248.782,213.458,248.549,212.387,249.099z"/>
	<path fill="#D8D9DA" d="M215.037,252.23c-0.99,0.639-1.131,1.875-0.25,2.711c0.88,0.836,2.368,0.875,3.256,0.137
		c0.891-0.74,0.935-1.902,0.161-2.646C217.424,251.697,216.032,251.59,215.037,252.23z"/>
	<path fill="#D8D9DA" d="M218.077,255.107c-0.903,0.725-0.889,1.967,0.096,2.719c0.985,0.75,2.467,0.66,3.254-0.152
		c0.791-0.814,0.69-1.98-0.177-2.645C220.378,254.365,218.984,254.381,218.077,255.107z"/>
	<path fill="#D8D9DA" d="M224.61,257.34c-0.948-0.584-2.336-0.443-3.146,0.357c-0.806,0.803-0.628,2.031,0.445,2.691
		c1.073,0.666,2.537,0.438,3.216-0.439C225.808,259.066,225.556,257.926,224.61,257.34z"/>
	<path fill="#D8D9DA" d="M228.246,259.332c-1.021-0.488-2.38-0.23-3.079,0.641s-0.368,2.08,0.786,2.641
		c1.153,0.563,2.579,0.207,3.142-0.727C229.659,260.945,229.262,259.828,228.246,259.332z"/>
	<path fill="#D8D9DA" d="M232.116,260.99c-1.074-0.4-2.396-0.02-2.979,0.914c-0.583,0.924-0.097,2.094,1.123,2.551
		c1.219,0.457,2.591-0.023,3.029-1.006C233.731,262.469,233.19,261.392,232.116,260.99z"/>
	<path fill="#D8D9DA" d="M236.179,262.289c-1.122-0.299-2.383,0.199-2.843,1.178c-0.461,0.975,0.173,2.098,1.447,2.438
		c1.27,0.344,2.569-0.26,2.879-1.271C237.973,263.613,237.298,262.594,236.179,262.289z"/>
	<path fill="#D8D9DA" d="M240.386,263.219c-1.152-0.201-2.344,0.412-2.676,1.422c-0.331,1.014,0.447,2.066,1.753,2.295
		c1.31,0.223,2.523-0.486,2.701-1.521C242.339,264.371,241.538,263.414,240.386,263.219z"/>
	<path fill="#D8D9DA" d="M244.25,267.535c1.328,0.109,2.445-0.711,2.487-1.756c0.043-1.049-0.877-1.924-2.051-2.021
		c-1.171-0.098-2.276,0.619-2.474,1.656C242.014,266.447,242.922,267.429,244.25,267.535z"/>
	<path fill="#D8D9DA" d="M251.333,265.744c-0.09-1.045-1.116-1.836-2.294-1.83c-1.179,0.014-2.188,0.82-2.253,1.867
		c-0.064,1.045,0.964,1.939,2.298,1.928C250.417,267.701,251.424,266.787,251.333,265.744z"/>
	<path fill="#D8D9DA" d="M253.386,263.685c-1.17,0.115-2.07,1.01-2,2.055c0.067,1.047,1.201,1.848,2.528,1.715
		c1.325-0.127,2.215-1.123,1.988-2.152C255.678,264.267,254.555,263.574,253.386,263.685z"/>
	<path fill="#D8D9DA" d="M257.675,263.072c-1.147,0.221-1.925,1.189-1.724,2.225c0.201,1.031,1.429,1.727,2.731,1.479
		c1.304-0.25,2.056-1.316,1.699-2.32C260.028,263.445,258.822,262.851,257.675,263.072z"/>
	<path fill="#D8D9DA" d="M261.857,262.076c-1.112,0.318-1.762,1.355-1.426,2.365c0.331,1.008,1.647,1.584,2.914,1.223
		c1.262-0.359,1.87-1.494,1.384-2.461C264.243,262.236,262.971,261.761,261.857,262.076z"/>
	<path fill="#D8D9DA" d="M265.886,260.709c-1.064,0.422-1.575,1.504-1.113,2.479s1.845,1.432,3.051,0.955
		c1.211-0.477,1.668-1.654,1.064-2.57C268.281,260.65,266.95,260.293,265.886,260.709z"/>
	<path fill="#D8D9DA" d="M269.719,258.988c-1.008,0.51-1.373,1.639-0.786,2.564c0.585,0.926,2.018,1.25,3.158,0.674
		c1.14-0.58,1.443-1.795,0.724-2.652C272.091,258.717,270.722,258.474,269.719,258.988z"/>
	<path fill="#D8D9DA" d="M273.306,256.929c-0.933,0.604-1.155,1.752-0.454,2.621c0.701,0.867,2.17,1.068,3.226,0.389
		c1.06-0.678,1.206-1.91,0.379-2.699C275.63,256.451,274.24,256.336,273.306,256.929z"/>
	<path fill="#D8D9DA" d="M276.612,254.568c-0.855,0.676-0.924,1.846-0.116,2.646c0.812,0.805,2.289,0.865,3.258,0.102
		c0.963-0.771,0.953-2.01,0.031-2.721C278.86,253.885,277.46,253.886,276.612,254.568z"/>
	<path fill="#D8D9DA" d="M279.594,251.924c-0.758,0.754-0.684,1.916,0.223,2.643c0.909,0.725,2.394,0.66,3.254-0.191
		c0.864-0.848,0.691-2.08-0.317-2.703C281.745,251.043,280.357,251.176,279.594,251.924z"/>
	<path fill="#D8D9DA" d="M282.223,249.03c-0.663,0.813-0.434,1.964,0.559,2.605c0.997,0.643,2.46,0.439,3.212-0.479
		c0.742-0.925,0.425-2.131-0.662-2.664C284.251,247.963,282.88,248.214,282.223,249.03z"/>
	<path fill="#D8D9DA" d="M284.46,245.917c-0.548,0.868-0.176,1.992,0.895,2.54s2.503,0.222,3.125-0.765
		c0.627-0.981,0.146-2.156-1-2.588C286.339,244.674,285.019,245.051,284.46,245.917z"/>
	<path fill="#D8D9DA" d="M286.29,242.622c-0.431,0.913,0.079,1.996,1.216,2.445c0.71,0.28,1.519,0.208,2.142-0.137
		c-0.302-0.322-0.489-0.722-0.489-1.163c0-0.677,0.427-1.267,1.071-1.603c-0.258-0.281-0.608-0.504-1.035-0.62
		C287.995,241.219,286.726,241.711,286.29,242.622z"/>
	<path fill="#D8D9DA" d="M287.68,239.184c-0.316,0.945,0.336,1.978,1.524,2.322c0.368,0.105,0.739,0.114,1.099,0.058
		c-0.682-0.327-1.148-0.935-1.148-1.639c0-0.938,0.819-1.711,1.89-1.865c-0.191-0.093-0.397-0.17-0.624-0.209
		C289.192,237.635,287.999,238.239,287.68,239.184z"/>
	<path fill="#D8D9DA" d="M288.615,235.64c-0.187,0.97,0.591,1.937,1.815,2.171c0.029,0.005,0.061,0.004,0.089,0.009
		c-0.802-0.294-1.365-0.959-1.365-1.736c0-1.048,1.021-1.897,2.273-1.897c0.128,0,0.258,0.014,0.377,0.032
		c-0.091-0.034-0.184-0.064-0.283-0.087c-0.029,0.001-0.063,0.008-0.094,0.008c-0.204,0-0.398-0.03-0.585-0.072
		C289.734,234.097,288.793,234.757,288.615,235.64z"/>
	<path fill="#D8D9DA" d="M291.432,230.344c0.901,0,1.673,0.44,2.041,1.076c-0.288-0.611-0.932-1.053-1.707-1.151
		c-0.113,0.013-0.223,0.028-0.334,0.028c-0.116,0-0.227-0.015-0.338-0.028c-1.098,0.133-1.942,0.871-2.004,1.762
		c-0.019,0.313,0.068,0.61,0.225,0.882c-0.095-0.209-0.156-0.434-0.156-0.671C289.155,231.193,290.176,230.344,291.432,230.344z"/>
	<path fill="#D8D9DA" d="M291.432,226.501c1.236,0,2.236,0.824,2.269,1.849c0-0.017,0.009-0.032,0.009-0.049
		c0-0.963-0.866-1.75-1.977-1.872c-0.099,0.011-0.194,0.024-0.298,0.024c-0.103,0-0.195-0.014-0.294-0.024
		c-1.117,0.123-1.977,0.909-1.977,1.872c0,0.017,0.006,0.032,0.006,0.049C289.196,227.324,290.196,226.501,291.432,226.501z"/>
	<path fill="#D8D9DA" d="M291.432,222.658c1.237,0,2.238,0.825,2.269,1.853c0.003-0.017,0.009-0.03,0.009-0.046
		c0-0.973-0.88-1.767-2.015-1.875c-0.087,0.008-0.174,0.021-0.263,0.021s-0.176-0.014-0.262-0.021
		c-1.132,0.109-2.016,0.902-2.016,1.875c0,0.016,0.006,0.029,0.008,0.046C289.194,223.484,290.196,222.658,291.432,222.658z"/>
	<path fill="#D8D9DA" d="M291.432,218.816c1.238,0,2.24,0.828,2.271,1.855c0-0.016,0.006-0.028,0.006-0.043
		c0-0.983-0.898-1.782-2.045-1.878c-0.077,0.006-0.151,0.019-0.229,0.019c-0.075,0-0.152-0.013-0.227-0.019
		c-1.146,0.097-2.044,0.896-2.044,1.878c0,0.015,0.005,0.027,0.005,0.043C289.192,219.644,290.194,218.816,291.432,218.816z"/>
	<path fill="#D8D9DA" d="M291.432,214.974c1.239,0,2.242,0.829,2.271,1.858c0-0.015,0.006-0.026,0.006-0.04
		c0-0.994-0.922-1.801-2.085-1.882c-0.064,0.006-0.125,0.017-0.189,0.017c-0.063,0-0.125-0.011-0.188-0.017
		c-1.168,0.082-2.086,0.889-2.086,1.882c0,0.014,0.008,0.025,0.008,0.04C289.189,215.803,290.194,214.974,291.432,214.974z"/>
	<path fill="#D8D9DA" d="M291.432,211.132c1.24,0,2.246,0.83,2.271,1.859c0.002-0.012,0.006-0.022,0.006-0.037
		c0-1.004-0.938-1.817-2.123-1.884c-0.052,0.003-0.101,0.014-0.152,0.014s-0.101-0.011-0.152-0.014
		c-1.182,0.066-2.123,0.88-2.123,1.884c0,0.014,0.004,0.024,0.008,0.037C289.186,211.962,290.191,211.132,291.432,211.132z"/>
	<path fill="#D8D9DA" d="M291.432,207.288c1.242,0,2.249,0.833,2.271,1.864c0-0.012,0.006-0.021,0.006-0.034
		c0-1.013-0.959-1.835-2.158-1.888c-0.037,0.002-0.074,0.01-0.119,0.01c-0.042,0-0.078-0.008-0.122-0.01
		c-1.198,0.053-2.155,0.875-2.155,1.888c0,0.012,0.005,0.022,0.005,0.034C289.184,208.121,290.191,207.288,291.432,207.288z"/>
	<path fill="#D8D9DA" d="M291.432,203.447c1.243,0,2.253,0.834,2.271,1.867c0-0.01,0.006-0.021,0.006-0.03
		c0-1.023-0.975-1.854-2.193-1.891c-0.025,0.001-0.053,0.007-0.081,0.007c-0.023,0-0.054-0.006-0.079-0.007
		c-1.221,0.037-2.191,0.867-2.191,1.891c0,0.011,0.004,0.021,0.004,0.03C289.18,204.281,290.189,203.447,291.432,203.447z"/>
	<path fill="#D8D9DA" d="M291.432,199.605c1.246,0,2.255,0.835,2.271,1.87c0-0.009,0.006-0.019,0.006-0.027
		c0-1.036-0.994-1.874-2.23-1.894c-0.016,0-0.027,0.003-0.044,0.003c-0.015,0-0.025-0.003-0.041-0.003
		c-1.236,0.02-2.232,0.857-2.232,1.894c0,0.01,0.007,0.02,0.007,0.027C289.178,200.44,290.187,199.605,291.432,199.605z"/>
	<path fill="#D8D9DA" d="M291.432,195.762c1.246,0,2.257,0.837,2.271,1.873c0.003-0.008,0.006-0.017,0.006-0.024
		c0-1.045-1.016-1.892-2.268-1.896c-0.002,0-0.006,0.001-0.01,0.001s-0.006-0.001-0.008-0.001c-1.253,0.004-2.27,0.852-2.27,1.896
		c0,0.008,0.003,0.017,0.005,0.024C289.176,196.6,290.187,195.762,291.432,195.762z"/>
	<path fill="#D8D9DA" d="M291.432,191.921c1.248,0,2.259,0.838,2.272,1.876c0-0.008,0.002-0.015,0.002-0.021
		c0-1.048-1.019-1.897-2.273-1.897s-2.273,0.85-2.273,1.897c0,0.007,0.003,0.015,0.003,0.021
		C289.174,192.759,290.185,191.921,291.432,191.921z"/>
	<path fill="#D8D9DA" d="M291.432,188.077c1.249,0,2.262,0.841,2.272,1.88c0-0.007,0.002-0.013,0.002-0.02
		c0-1.047-1.019-1.896-2.273-1.896s-2.273,0.85-2.273,1.896c0,0.006,0.003,0.012,0.003,0.02
		C289.171,188.918,290.182,188.077,291.432,188.077z"/>
	<path fill="#D8D9DA" d="M291.432,184.236c1.25,0,2.264,0.842,2.272,1.882c0.001-0.005,0.002-0.01,0.002-0.015
		c0-1.048-1.019-1.897-2.273-1.897s-2.273,0.85-2.273,1.897c0,0.005,0.001,0.01,0.003,0.015
		C289.169,185.077,290.181,184.236,291.432,184.236z"/>
	<path fill="#D8D9DA" d="M291.432,180.393c1.253,0,2.267,0.844,2.272,1.886c0-0.004,0.001-0.008,0.001-0.012
		c0-1.048-1.02-1.897-2.273-1.897s-2.273,0.851-2.273,1.897c0,0.004,0.002,0.008,0.002,0.012
		C289.167,181.237,290.18,180.393,291.432,180.393z"/>
	<path fill="#D8D9DA" d="M291.432,176.551c1.253,0,2.269,0.845,2.272,1.888c0-0.003,0.001-0.006,0.001-0.009
		c0-1.047-1.02-1.897-2.273-1.897s-2.273,0.851-2.273,1.897c0,0.003,0.002,0.006,0.002,0.009
		C289.164,177.396,290.179,176.551,291.432,176.551z"/>
	<path fill="#D8D9DA" d="M205.837,177.215c1.201,0,2.177-0.78,2.259-1.767h-4.517C203.662,176.435,204.636,177.215,205.837,177.215z
		"/>
	<path fill="#D8D9DA" d="M205.837,181.058c1.256,0,2.275-0.85,2.275-1.898c0-0.003-0.001-0.006-0.001-0.009
		c-0.006-1.043-1.021-1.888-2.274-1.888c-1.252,0-2.268,0.845-2.272,1.888c0,0.003-0.001,0.006-0.001,0.009
		C203.564,180.208,204.582,181.058,205.837,181.058z"/>
	<path fill="#D8D9DA" d="M205.837,184.9c1.256,0,2.275-0.85,2.275-1.896c0-0.004-0.001-0.009-0.001-0.013
		c-0.008-1.042-1.022-1.886-2.273-1.886c-1.25,0-2.264,0.844-2.272,1.886c0,0.004-0.001,0.009-0.001,0.013
		C203.564,184.05,204.582,184.9,205.837,184.9z"/>
	<path fill="#D8D9DA" d="M205.837,188.741c1.256,0,2.275-0.85,2.275-1.896c0-0.005-0.001-0.01-0.001-0.016
		c-0.01-1.039-1.023-1.882-2.273-1.882c-1.249,0-2.263,0.842-2.272,1.882c0,0.006-0.001,0.011-0.001,0.016
		C203.564,187.893,204.582,188.741,205.837,188.741z"/>
	<path fill="#D8D9DA" d="M205.837,192.585c1.256,0,2.275-0.851,2.275-1.896c0-0.007-0.002-0.012-0.002-0.021
		c-0.012-1.039-1.024-1.88-2.273-1.88c-1.248,0-2.261,0.841-2.272,1.88c0,0.006-0.002,0.012-0.002,0.021
		C203.564,191.735,204.582,192.585,205.837,192.585z"/>
	<path fill="#D8D9DA" d="M205.846,196.426c1.253-0.004,2.268-0.853,2.268-1.896c0-0.007-0.002-0.014-0.002-0.021
		c-0.014-1.038-1.025-1.876-2.273-1.876c-1.246,0-2.258,0.838-2.272,1.876c0,0.007-0.002,0.014-0.002,0.021
		c0,1.045,1.014,1.894,2.265,1.896c0.003,0,0.007,0.001,0.009,0.001S205.843,196.426,205.846,196.426z"/>
	<path fill="#D8D9DA" d="M205.882,200.266c1.234-0.021,2.23-0.859,2.23-1.895c0-0.008-0.002-0.016-0.002-0.023
		c-0.017-1.036-1.027-1.873-2.273-1.873c-1.245,0-2.256,0.837-2.271,1.873c0,0.008-0.002,0.016-0.002,0.023
		c0,1.035,0.996,1.874,2.229,1.895c0.016,0,0.028,0.003,0.044,0.003C205.854,200.269,205.866,200.266,205.882,200.266z"/>
	<path fill="#D8D9DA" d="M205.92,204.105c1.217-0.037,2.193-0.866,2.193-1.891c0-0.01-0.002-0.019-0.003-0.028
		c-0.019-1.034-1.027-1.87-2.272-1.87c-1.244,0-2.254,0.835-2.271,1.87c0,0.01-0.003,0.019-0.003,0.028
		c0,1.023,0.976,1.854,2.193,1.891c0.027,0.001,0.053,0.007,0.081,0.007C205.867,204.112,205.892,204.106,205.92,204.105z"/>
	<path fill="#D8D9DA" d="M205.957,207.944c1.199-0.053,2.155-0.875,2.155-1.888c0-0.01-0.003-0.021-0.003-0.03
		c-0.021-1.034-1.028-1.867-2.272-1.867c-1.243,0-2.252,0.833-2.271,1.867c0,0.01-0.003,0.021-0.003,0.03
		c0,1.013,0.955,1.834,2.155,1.888c0.04,0.002,0.077,0.01,0.119,0.01S205.918,207.946,205.957,207.944z"/>
	<path fill="#D8D9DA" d="M205.99,211.782c1.184-0.065,2.123-0.88,2.123-1.884c0-0.012-0.003-0.021-0.003-0.034
		c-0.022-1.031-1.029-1.863-2.272-1.863c-1.242,0-2.249,0.833-2.271,1.863c0,0.012-0.003,0.021-0.003,0.034
		c0,1.004,0.939,1.818,2.122,1.884c0.052,0.003,0.1,0.014,0.151,0.014C205.89,211.796,205.938,211.785,205.99,211.782z"/>
	<path fill="#D8D9DA" d="M206.028,215.622c1.166-0.081,2.086-0.888,2.086-1.882c0-0.012-0.003-0.023-0.003-0.037
		c-0.024-1.029-1.03-1.86-2.272-1.86c-1.24,0-2.246,0.831-2.27,1.86c0,0.014-0.004,0.024-0.004,0.037
		c0,0.994,0.919,1.801,2.086,1.882c0.063,0.005,0.124,0.017,0.188,0.017C205.904,215.638,205.963,215.627,206.028,215.622z"/>
	<path fill="#D8D9DA" d="M206.065,219.462c1.149-0.098,2.048-0.896,2.048-1.879c0-0.015-0.003-0.026-0.004-0.04
		c-0.026-1.029-1.032-1.858-2.271-1.858s-2.244,0.829-2.271,1.858c0,0.014-0.004,0.025-0.004,0.04c0,0.982,0.899,1.781,2.048,1.879
		c0.074,0.006,0.148,0.019,0.226,0.019C205.916,219.481,205.99,219.469,206.065,219.462z"/>
	<path fill="#D8D9DA" d="M206.1,223.301c1.13-0.11,2.013-0.902,2.013-1.875c0-0.016-0.004-0.028-0.004-0.043
		c-0.028-1.027-1.032-1.855-2.271-1.855c-1.238,0-2.241,0.828-2.269,1.855c0,0.015-0.005,0.027-0.005,0.043
		c0,0.973,0.882,1.765,2.013,1.875c0.088,0.008,0.172,0.021,0.262,0.021S206.012,223.309,206.1,223.301z"/>
	<path fill="#D8D9DA" d="M206.135,227.14c1.115-0.123,1.978-0.909,1.978-1.873c0-0.016-0.004-0.03-0.004-0.045
		c-0.031-1.026-1.033-1.853-2.271-1.853c-1.237,0-2.239,0.825-2.269,1.853c0,0.016-0.005,0.03-0.005,0.045
		c0,0.963,0.863,1.75,1.976,1.873c0.099,0.011,0.197,0.024,0.298,0.024C205.939,227.166,206.037,227.151,206.135,227.14z"/>
	<path fill="#D8D9DA" d="M206.216,230.976c1.074-0.151,1.897-0.926,1.897-1.866c0-0.017-0.004-0.032-0.005-0.049
		c-0.033-1.024-1.034-1.849-2.271-1.849c-1.235,0-2.237,0.824-2.269,1.849c0,0.017-0.006,0.032-0.006,0.048
		c0,0.962,0.863,1.75,1.975,1.873c0.1,0.011,0.197,0.025,0.299,0.025C205.967,231.008,206.091,230.993,206.216,230.976z"/>
	<path fill="#D8D9DA" d="M206.461,234.769c0.492-0.118,0.913-0.365,1.208-0.7c0.275-0.313,0.443-0.698,0.443-1.117
		c0-1.048-1.02-1.897-2.275-1.897c-0.669,0-1.267,0.247-1.682,0.633c-0.366,0.336-0.592,0.777-0.592,1.265
		c0,1.042,1.008,1.887,2.255,1.896c0.006,0,0.013,0.002,0.02,0.002C206.056,234.85,206.262,234.817,206.461,234.769z"/>
	<path fill="#D8D9DA" d="M208.113,236.795c0-1.048-1.02-1.897-2.275-1.897c-0.078,0-0.151,0.013-0.226,0.02
		c-1.148,0.097-2.048,0.896-2.048,1.878c0,1.048,1.019,1.897,2.273,1.897c0.318,0,0.622-0.056,0.896-0.154
		C207.544,238.249,208.113,237.577,208.113,236.795z"/>
	<path fill="#D8D9DA" d="M205.837,242.534c0.454,0,0.876-0.113,1.232-0.306c0.625-0.338,1.043-0.923,1.043-1.592
		c0-0.897-0.749-1.646-1.751-1.842c-0.17-0.034-0.343-0.057-0.524-0.057c-1.255,0-2.273,0.851-2.273,1.898
		S204.582,242.534,205.837,242.534z"/>
	<path fill="#D8D9DA" d="M205.848,246.377c0.819-0.02,1.525-0.373,1.923-0.91c0.212-0.285,0.341-0.62,0.343-0.988
		c0-0.606-0.347-1.14-0.878-1.487c-0.386-0.253-0.867-0.41-1.397-0.41c-1.255,0-2.273,0.851-2.273,1.897
		C203.559,245.516,204.592,246.406,205.848,246.377z"/>
	<path fill="#D8D9DA" d="M206.18,250.207c1.248-0.142,2.132-1.047,2.045-2.026c-0.086-0.98-1.119-1.77-2.375-1.756
		c-1.257,0.011-2.259,0.924-2.163,2.034C203.786,249.569,204.939,250.349,206.18,250.207z"/>
	<path fill="#D8D9DA" d="M207.008,253.986c1.22-0.254,1.976-1.23,1.768-2.199c-0.21-0.965-1.338-1.656-2.587-1.533
		c-1.245,0.123-2.126,1.119-1.889,2.214C204.536,253.566,205.789,254.238,207.008,253.986z"/>
	<path fill="#D8D9DA" d="M208.317,257.668c1.178-0.361,1.805-1.402,1.474-2.346c-0.338-0.938-1.546-1.523-2.77-1.291
		c-1.224,0.234-1.976,1.307-1.59,2.373C205.808,257.47,207.138,258.029,208.317,257.668z"/>
	<path fill="#D8D9DA" d="M210.093,261.211c1.124-0.469,1.619-1.561,1.162-2.465c-0.457-0.902-1.734-1.377-2.921-1.033
		c-1.185,0.344-1.793,1.479-1.273,2.504S208.97,261.676,210.093,261.211z"/>
	<path fill="#D8D9DA" d="M212.322,264.57c1.06-0.563,1.402-1.693,0.837-2.555c-0.572-0.857-1.902-1.215-3.04-0.764
		c-1.132,0.445-1.589,1.627-0.941,2.602C209.822,264.83,211.265,265.135,212.322,264.57z"/>
	<path fill="#D8D9DA" d="M214.966,267.717c0.983-0.658,1.184-1.814,0.505-2.617c-0.681-0.799-2.048-1.035-3.119-0.486
		c-1.069,0.547-1.374,1.764-0.603,2.672C212.52,268.193,213.989,268.367,214.966,267.717z"/>
	<path fill="#D8D9DA" d="M218.003,270.599c0.891-0.738,0.938-1.9,0.164-2.645c-0.776-0.738-2.169-0.85-3.165-0.205
		c-0.991,0.639-1.135,1.869-0.254,2.707C215.625,271.301,217.113,271.34,218.003,270.599z"/>
	<path fill="#D8D9DA" d="M221.388,273.203c0.793-0.814,0.693-1.979-0.175-2.645c-0.869-0.662-2.263-0.65-3.171,0.074
		c-0.905,0.727-0.893,1.967,0.092,2.719C219.117,274.105,220.599,274.013,221.388,273.203z"/>
	<path fill="#D8D9DA" d="M221.872,275.929c1.072,0.662,2.536,0.438,3.218-0.439c0.682-0.883,0.431-2.023-0.515-2.613
		c-0.947-0.582-2.334-0.441-3.146,0.361C220.624,274.033,220.799,275.263,221.872,275.929z"/>
	<path fill="#D8D9DA" d="M225.919,278.152c1.152,0.563,2.578,0.209,3.142-0.725c0.566-0.938,0.172-2.059-0.845-2.555
		c-1.019-0.49-2.378-0.232-3.08,0.639C224.437,276.383,224.765,277.594,225.919,278.152z"/>
	<path fill="#D8D9DA" d="M230.234,280.006c1.217,0.457,2.59-0.025,3.028-1.006c0.441-0.98-0.099-2.057-1.171-2.461
		c-1.074-0.4-2.395-0.02-2.979,0.912C228.528,278.377,229.014,279.549,230.234,280.006z"/>
	<path fill="#D8D9DA" d="M234.759,281.453c1.271,0.346,2.573-0.256,2.882-1.271c0.311-1.018-0.362-2.035-1.481-2.34
		c-1.121-0.303-2.382,0.195-2.845,1.172C232.854,279.99,233.488,281.113,234.759,281.453z"/>
	<path fill="#D8D9DA" d="M239.449,282.488c1.308,0.225,2.523-0.484,2.699-1.521c0.178-1.039-0.624-1.996-1.776-2.193
		c-1.152-0.201-2.344,0.41-2.675,1.424C237.365,281.205,238.142,282.261,239.449,282.488z"/>
	<path fill="#D8D9DA" d="M244.242,283.095c1.328,0.107,2.445-0.711,2.489-1.756c0.043-1.053-0.878-1.926-2.05-2.021
		c-1.173-0.096-2.277,0.619-2.478,1.656C242.005,282.006,242.915,282.984,244.242,283.095z"/>
	<path fill="#D8D9DA" d="M251.333,281.302c-0.09-1.045-1.116-1.834-2.294-1.828c-1.179,0.012-2.188,0.818-2.253,1.867
		c-0.064,1.045,0.964,1.939,2.298,1.926C250.417,283.26,251.424,282.345,251.333,281.302z"/>
	<path fill="#D8D9DA" d="M253.389,279.242c-1.17,0.119-2.069,1.012-1.998,2.057c0.067,1.049,1.202,1.85,2.53,1.715
		c1.325-0.125,2.211-1.123,1.986-2.152C255.682,279.826,254.562,279.133,253.389,279.242z"/>
	<path fill="#D8D9DA" d="M258.699,282.33c1.302-0.252,2.053-1.316,1.697-2.32c-0.358-1.008-1.564-1.6-2.712-1.379
		c-1.146,0.217-1.924,1.188-1.723,2.223C256.165,281.886,257.397,282.576,258.699,282.33z"/>
	<path fill="#D8D9DA" d="M263.362,281.217c1.265-0.359,1.873-1.496,1.387-2.461c-0.485-0.971-1.76-1.441-2.873-1.125
		c-1.112,0.32-1.762,1.354-1.424,2.363C260.783,281.002,262.101,281.58,263.362,281.217z"/>
	<path fill="#D8D9DA" d="M267.853,279.687c1.21-0.475,1.667-1.654,1.061-2.568c-0.608-0.92-1.937-1.279-3.002-0.861
		c-1.063,0.424-1.573,1.506-1.11,2.479C265.265,279.711,266.647,280.168,267.853,279.687z"/>
	<path fill="#D8D9DA" d="M272.119,277.767c1.141-0.58,1.44-1.797,0.723-2.652c-0.725-0.857-2.09-1.096-3.096-0.584
		c-1.004,0.51-1.373,1.641-0.784,2.563C269.549,278.019,270.98,278.345,272.119,277.767z"/>
	<path fill="#D8D9DA" d="M276.112,275.472c1.059-0.678,1.203-1.912,0.375-2.697c-0.826-0.791-2.222-0.906-3.152-0.309
		c-0.929,0.604-1.154,1.754-0.449,2.621C273.59,275.957,275.059,276.156,276.112,275.472z"/>
	<path fill="#D8D9DA" d="M276.646,270.097c-0.854,0.678-0.923,1.846-0.112,2.646c0.812,0.805,2.29,0.861,3.258,0.098
		c0.964-0.771,0.95-2.012,0.023-2.723C278.895,269.41,277.496,269.422,276.646,270.097z"/>
	<path fill="#D8D9DA" d="M283.108,269.89c0.859-0.852,0.688-2.082-0.324-2.705c-1.009-0.625-2.396-0.488-3.158,0.26
		c-0.757,0.754-0.68,1.916,0.226,2.645C280.763,270.81,282.251,270.744,283.108,269.89z"/>
	<path fill="#D8D9DA" d="M286.031,266.666c0.745-0.924,0.419-2.133-0.668-2.66c-1.081-0.529-2.449-0.273-3.105,0.541
		c-0.663,0.813-0.429,1.967,0.567,2.604C283.821,267.789,285.281,267.588,286.031,266.666z"/>
	<path fill="#D8D9DA" d="M288.519,263.193c0.624-0.982,0.141-2.156-1.005-2.586c-1.144-0.43-2.468-0.051-3.021,0.814
		c-0.546,0.871-0.175,1.99,0.896,2.541C286.463,264.51,287.899,264.179,288.519,263.193z"/>
	<path fill="#D8D9DA" d="M290.548,259.519c0.489-1.035-0.14-2.156-1.334-2.48c-1.193-0.322-2.466,0.172-2.895,1.082
		c-0.435,0.914,0.082,1.998,1.222,2.443C288.675,261.011,290.054,260.556,290.548,259.519z"/>
	<path fill="#D8D9DA" d="M292.088,255.683c0.357-1.074-0.42-2.135-1.648-2.35s-2.421,0.395-2.738,1.342
		c-0.311,0.943,0.342,1.977,1.53,2.314C290.418,257.338,291.734,256.76,292.088,255.683z"/>
	<path fill="#D8D9DA" d="M293.121,251.73c0.214-1.1-0.693-2.082-1.941-2.183c-1.252-0.103-2.359,0.606-2.551,1.578
		c-0.183,0.971,0.597,1.936,1.822,2.168C291.676,253.523,292.911,252.83,293.121,251.73z"/>
	<path fill="#D8D9DA" d="M291.432,245.713c-1.26,0.008-2.273,0.813-2.334,1.795c-0.064,0.98,0.843,1.872,2.089,1.992
		c1.247,0.121,2.381-0.679,2.453-1.79C293.708,246.599,292.685,245.703,291.432,245.713z"/>
	<path fill="#D8D9DA" d="M289.155,243.768c0,0.441,0.188,0.841,0.49,1.163c0.416,0.442,1.056,0.733,1.783,0.733
		c1.258,0,2.272-0.85,2.272-1.896s-1.019-1.897-2.272-1.897c-0.442,0-0.855,0.111-1.205,0.294
		C289.585,242.501,289.155,243.091,289.155,243.768z"/>
	<path fill="#D8D9DA" d="M289.155,239.926c0,0.704,0.467,1.312,1.148,1.639c0.334,0.161,0.716,0.259,1.125,0.259
		c1.258,0,2.272-0.85,2.272-1.896c0-1.048-1.019-1.898-2.272-1.898c-0.131,0-0.259,0.015-0.384,0.033
		C289.974,238.214,289.155,238.988,289.155,239.926z"/>
	<path fill="#D8D9DA" d="M289.155,236.083c0,0.776,0.563,1.442,1.365,1.736c0.279,0.103,0.586,0.161,0.912,0.161
		c1.257,0,2.273-0.85,2.273-1.897c0-0.939-0.82-1.715-1.896-1.865c-0.123-0.019-0.249-0.032-0.377-0.032
		C290.176,234.186,289.155,235.034,289.155,236.083z"/>
	<path fill="#D8D9DA" d="M291.526,234.131c1.213-0.042,2.18-0.869,2.18-1.891c0-0.295-0.088-0.571-0.232-0.821
		c-0.368-0.635-1.14-1.076-2.041-1.076c-1.256,0-2.273,0.85-2.273,1.896c0,0.237,0.062,0.461,0.156,0.671
		c0.258,0.565,0.825,0.997,1.532,1.155c0.188,0.042,0.38,0.072,0.585,0.072C291.463,234.138,291.495,234.132,291.526,234.131z"/>
	<path fill="#D8D9DA" d="M291.766,230.268c1.096-0.136,1.939-0.917,1.939-1.87c0-0.017-0.006-0.033-0.006-0.049
		c-0.031-1.024-1.031-1.849-2.271-1.849c-1.239,0-2.235,0.824-2.27,1.849c0,0.017-0.007,0.032-0.007,0.049
		c0,0.951,0.84,1.732,1.937,1.869c0.109,0.014,0.225,0.028,0.337,0.028C291.546,230.296,291.653,230.281,291.766,230.268z"/>
	<path fill="#D8D9DA" d="M291.73,226.429c1.113-0.123,1.976-0.91,1.976-1.873c0-0.017-0.006-0.03-0.006-0.045
		c-0.029-1.026-1.03-1.853-2.271-1.853c-1.236,0-2.238,0.825-2.27,1.853c-0.002,0.016-0.007,0.03-0.007,0.045
		c0,0.963,0.865,1.75,1.976,1.873c0.099,0.011,0.195,0.024,0.298,0.024C291.533,226.453,291.631,226.44,291.73,226.429z"/>
	<path fill="#D8D9DA" d="M291.695,222.589c1.131-0.11,2.015-0.902,2.015-1.875c0-0.016-0.006-0.028-0.006-0.042
		c-0.027-1.028-1.029-1.855-2.271-1.855c-1.238,0-2.24,0.828-2.271,1.855c0,0.015-0.006,0.027-0.006,0.042
		c0,0.973,0.88,1.765,2.016,1.875c0.085,0.008,0.173,0.021,0.262,0.021S291.604,222.597,291.695,222.589z"/>
	<path fill="#D8D9DA" d="M291.658,218.75c1.147-0.098,2.047-0.896,2.047-1.88c0-0.014-0.006-0.025-0.006-0.04
		c-0.025-1.028-1.028-1.857-2.271-1.857c-1.238,0-2.243,0.829-2.271,1.857c0,0.015-0.005,0.026-0.005,0.04
		c0,0.983,0.899,1.782,2.046,1.88c0.076,0.006,0.15,0.019,0.228,0.019C291.501,218.769,291.583,218.757,291.658,218.75z"/>
	<path fill="#D8D9DA" d="M291.621,214.91c1.166-0.082,2.084-0.888,2.084-1.882c0-0.012-0.004-0.023-0.006-0.037
		c-0.025-1.029-1.027-1.859-2.271-1.859c-1.243,0-2.247,0.83-2.271,1.859c0,0.014-0.005,0.024-0.005,0.037
		c0,0.994,0.921,1.8,2.083,1.882c0.063,0.006,0.126,0.017,0.19,0.017C291.495,214.927,291.554,214.916,291.621,214.91z"/>
	<path fill="#D8D9DA" d="M291.583,211.072c1.185-0.065,2.122-0.88,2.122-1.884c0-0.012-0.004-0.021-0.004-0.034
		c-0.024-1.032-1.027-1.864-2.271-1.864c-1.241,0-2.25,0.833-2.272,1.864c0,0.011-0.005,0.022-0.005,0.034
		c0,1.004,0.937,1.818,2.124,1.884c0.051,0.003,0.101,0.014,0.151,0.014C291.48,211.085,291.532,211.073,291.583,211.072z"/>
	<path fill="#D8D9DA" d="M291.55,207.232c1.199-0.053,2.155-0.874,2.155-1.888c0-0.01-0.004-0.021-0.004-0.03
		c-0.021-1.033-1.026-1.867-2.271-1.867s-2.252,0.834-2.272,1.867c0,0.01-0.005,0.021-0.005,0.03c0,1.014,0.956,1.834,2.155,1.888
		c0.041,0.002,0.078,0.01,0.122,0.01C291.472,207.241,291.509,207.234,291.55,207.232z"/>
	<path fill="#D8D9DA" d="M291.513,203.393c1.219-0.037,2.192-0.866,2.192-1.891c0-0.01-0.004-0.019-0.004-0.027
		c-0.019-1.035-1.023-1.87-2.271-1.87c-1.249,0-2.254,0.835-2.272,1.87c0,0.01-0.005,0.018-0.005,0.027
		c0,1.023,0.975,1.854,2.193,1.891c0.026,0.001,0.052,0.007,0.08,0.007C291.452,203.4,291.486,203.394,291.513,203.393z"/>
	<path fill="#D8D9DA" d="M291.476,199.554c1.235-0.021,2.229-0.859,2.229-1.895c0-0.008-0.004-0.016-0.004-0.023
		c-0.016-1.036-1.023-1.873-2.271-1.873c-1.249,0-2.256,0.837-2.272,1.873c-0.003,0.008-0.005,0.016-0.005,0.023
		c0,1.035,0.992,1.874,2.231,1.895c0.014,0,0.027,0.003,0.042,0.003C291.446,199.557,291.459,199.554,291.476,199.554z"/>
	<path fill="#D8D9DA" d="M291.442,195.715c1.252-0.004,2.268-0.853,2.268-1.897c0-0.007-0.004-0.014-0.004-0.021
		c-0.015-1.038-1.023-1.876-2.272-1.876c-1.248,0-2.258,0.838-2.273,1.876c0,0.007-0.005,0.014-0.005,0.021
		c0,1.045,1.018,1.894,2.271,1.897c0.002,0,0.005,0.001,0.008,0.001S291.44,195.715,291.442,195.715z"/>
	<path fill="#D8D9DA" d="M291.432,191.872c1.257,0,2.273-0.85,2.273-1.896c0-0.006-0.004-0.012-0.004-0.018
		c-0.012-1.04-1.022-1.88-2.271-1.88c-1.25,0-2.261,0.841-2.273,1.88c0,0.006-0.003,0.012-0.003,0.018
		C289.155,191.023,290.176,191.872,291.432,191.872z"/>
	<path fill="#D8D9DA" d="M291.432,188.031c1.257,0,2.273-0.85,2.273-1.896c0-0.005-0.001-0.01-0.004-0.016
		c-0.01-1.04-1.022-1.882-2.271-1.882c-1.25,0-2.263,0.842-2.273,1.882c-0.003,0.006-0.003,0.011-0.003,0.016
		C289.155,187.181,290.176,188.031,291.432,188.031z"/>
	<path fill="#D8D9DA" d="M291.432,184.188c1.257,0,2.273-0.85,2.273-1.896c0-0.005-0.001-0.009-0.001-0.013
		c-0.01-1.042-1.023-1.886-2.272-1.886c-1.25,0-2.265,0.844-2.273,1.886c0,0.004,0,0.008,0,0.013
		C289.155,183.338,290.176,184.188,291.432,184.188z"/>
	<path fill="#D8D9DA" d="M291.432,180.346c1.257,0,2.273-0.851,2.273-1.898c0-0.003-0.001-0.006-0.001-0.009
		c-0.007-1.043-1.023-1.888-2.272-1.888c-1.25,0-2.268,0.845-2.273,1.888c0,0.003,0,0.006,0,0.009
		C289.155,179.495,290.176,180.346,291.432,180.346z"/>
	<path fill="#D8D9DA" d="M291.432,176.504c0.892,0,1.655-0.433,2.028-1.055h-4.058C289.776,176.072,290.542,176.504,291.432,176.504
		z"/>
</g>
<rect id="position" x="0" y="0" display="none" fill="none" stroke="#000000" width="500" height="500"/>
</svg>
