<?xml version="1.0" encoding="utf-8"?>
<!-- Generator: Adobe Illustrator 14.0.0, SVG Export Plug-In . SVG Version: 6.00 Build 43363)  -->
<!DOCTYPE svg PUBLIC "-//W3C//DTD SVG 1.1//EN" "http://www.w3.org/Graphics/SVG/1.1/DTD/svg11.dtd">
<svg version="1.1" id="content" xmlns="http://www.w3.org/2000/svg" xmlns:xlink="http://www.w3.org/1999/xlink" x="0px" y="0px"
	 width="500px" height="500px" viewBox="0 0 500 500" enable-background="new 0 0 500 500" xml:space="preserve">
<rect id="position" x="0" y="0" display="none" fill="none" stroke="#000000" width="500" height="500"/>
<g id="bounds" display="none">
	<rect x="174.477" y="138.687" fill="none" stroke="#000000" stroke-width="0.9177" width="149.91" height="149.911"/>
</g>
<g id="accessory">
	<path fill="#E8E8E8" d="M226.393,220.784c-1.301-0.814-2.729-1.28-3.916-1.28c-0.535,0-0.996,0.107-1.383,0.293
		c0.045-0.202,0.072-0.413,0.055-0.639c-0.082-1.167-0.988-2.541-2.422-3.674c-1.189-0.943-2.549-1.552-3.729-1.674
		c-0.354-0.037-0.676-0.013-0.979,0.04c0.004-0.02,0.014-0.037,0.018-0.058c0.232-1.151-0.277-2.681-1.365-4.093
		c-0.902-1.174-2.059-2.063-3.17-2.437c-0.43-0.145-0.846-0.206-1.23-0.188c0.127-0.152,0.242-0.316,0.334-0.508
		c0.504-1.077,0.377-2.672-0.342-4.263c-0.598-1.323-1.51-2.417-2.504-3.002c-0.391-0.229-0.787-0.373-1.172-0.429
		c0.025-0.028,0.053-0.05,0.076-0.08c0.764-0.947,1.041-2.524,0.744-4.222c-0.246-1.411-0.859-2.663-1.68-3.437
		c-0.297-0.279-0.617-0.48-0.947-0.616c0.184-0.116,0.359-0.25,0.518-0.421c0.83-0.899,1.223-2.458,1.051-4.168
		c-0.145-1.422-0.664-2.708-1.426-3.529c-0.199-0.214-0.418-0.379-0.641-0.52c0.09-0.062,0.18-0.122,0.264-0.196
		c0.926-0.821,1.486-2.336,1.506-4.054c0.006-0.753-0.1-1.472-0.295-2.118h-1.641c0.24,0.598,0.381,1.33,0.371,2.105
		c-0.014,1.492-0.531,2.613-1.037,3.061c-0.117,0.104-0.295,0.226-0.477,0.224c-0.213-0.002-0.469-0.176-0.693-0.479
		c-0.488-0.644-0.771-1.704-0.76-2.834c0.006-0.825,0.17-1.529,0.4-2.076h-1.646c-0.195,0.625-0.311,1.323-0.316,2.063
		c-0.016,1.428,0.361,2.754,1.027,3.639c0.219,0.291,0.475,0.514,0.744,0.692c-0.141,0.101-0.275,0.213-0.4,0.347
		c-0.83,0.899-1.223,2.457-1.049,4.168c0.141,1.422,0.662,2.708,1.424,3.528c0.309,0.331,0.65,0.574,1.012,0.729
		c-0.213,0.138-0.412,0.309-0.584,0.522c-0.764,0.947-1.041,2.524-0.744,4.221c0.246,1.411,0.859,2.664,1.68,3.437
		c0.463,0.436,0.982,0.694,1.508,0.774c-0.113,0.142-0.217,0.295-0.299,0.471c-0.506,1.078-0.379,2.671,0.34,4.264
		c0.596,1.322,1.51,2.416,2.504,3.001c0.541,0.318,1.092,0.46,1.607,0.444c-0.209,0.255-0.361,0.561-0.432,0.919
		c-0.232,1.151,0.277,2.682,1.363,4.094c0.904,1.173,2.059,2.061,3.172,2.436c0.527,0.178,1.027,0.217,1.48,0.15
		c-0.029,0.167-0.045,0.339-0.031,0.522c0.084,1.167,0.988,2.541,2.422,3.675c1.189,0.942,2.549,1.551,3.729,1.673
		c0.621,0.064,1.166-0.026,1.611-0.232c-0.057,0.263-0.057,0.546,0.002,0.844c0.23,1.151,1.303,2.423,2.869,3.402
		c1.303,0.814,2.729,1.28,3.916,1.28c0.939,0,1.689-0.302,2.113-0.852c0.324-0.421,0.436-0.952,0.318-1.536
		C229.031,223.035,227.959,221.764,226.393,220.784z M199.836,186.293c-0.15-1.485,0.24-2.646,0.695-3.138
		c0.104-0.113,0.268-0.25,0.449-0.266c0.213-0.018,0.484,0.134,0.744,0.415c0.555,0.597,0.955,1.627,1.068,2.752
		c0.15,1.486-0.24,2.648-0.695,3.139c-0.105,0.113-0.268,0.251-0.449,0.266c-0.213,0.017-0.484-0.133-0.744-0.415
		C200.35,188.449,199.949,187.419,199.836,186.293z M202.971,198.254c-0.211,0.03-0.492-0.104-0.773-0.37
		c-0.598-0.563-1.07-1.566-1.266-2.683c-0.26-1.473,0.047-2.654,0.465-3.172c0.096-0.12,0.248-0.266,0.43-0.292
		c0.211-0.03,0.492,0.105,0.773,0.37c0.596,0.563,1.07,1.567,1.266,2.683c0.258,1.474-0.047,2.657-0.467,3.173
		C203.303,198.082,203.151,198.229,202.971,198.254z M207.164,206.02c-0.064,0.135-0.174,0.311-0.344,0.372
		c-0.199,0.072-0.506-0.001-0.848-0.201c-0.723-0.427-1.436-1.306-1.908-2.354c-0.625-1.382-0.625-2.594-0.35-3.184
		c0.064-0.136,0.176-0.312,0.346-0.374c0.197-0.072,0.506,0.001,0.846,0.202c0.723,0.426,1.439,1.305,1.91,2.353
		C207.44,204.217,207.44,205.43,207.164,206.02z M212.498,213.541c-0.027,0.146-0.094,0.337-0.244,0.431
		c-0.176,0.11-0.494,0.098-0.875-0.03c-0.811-0.273-1.719-0.992-2.434-1.92c-0.943-1.226-1.238-2.409-1.111-3.039
		c0.027-0.146,0.094-0.338,0.246-0.432c0.174-0.109,0.492-0.098,0.873,0.03c0.809,0.273,1.721,0.99,2.436,1.919
		C212.332,211.728,212.625,212.912,212.498,213.541z M219.467,219.72c-0.143,0.146-0.453,0.204-0.857,0.162
		c-0.859-0.089-1.934-0.588-2.877-1.333c-1.244-0.984-1.848-2.069-1.893-2.708c-0.01-0.147,0.002-0.348,0.123-0.472
		c0.141-0.145,0.453-0.204,0.857-0.162c0.857,0.089,1.934,0.587,2.877,1.333c1.242,0.985,1.846,2.07,1.893,2.708
		C219.6,219.397,219.588,219.597,219.467,219.72z M227.66,224.919c-0.119,0.158-0.422,0.248-0.83,0.248
		c-0.863,0-1.994-0.384-3.025-1.029c-1.359-0.851-2.096-1.866-2.223-2.495c-0.029-0.145-0.041-0.346,0.063-0.482
		c0.123-0.158,0.426-0.248,0.832-0.248c0.863,0,1.994,0.385,3.025,1.029c1.361,0.851,2.098,1.867,2.223,2.496
		C227.754,224.583,227.766,224.784,227.66,224.919z"/>
	<path fill="#E8E8E8" d="M299.879,181.214c0.666-0.884,1.043-2.21,1.025-3.639c-0.006-0.74-0.119-1.438-0.314-2.063h-1.646
		c0.229,0.547,0.393,1.251,0.4,2.076c0.012,1.13-0.273,2.191-0.76,2.834c-0.227,0.303-0.48,0.478-0.695,0.479
		c-0.18,0.002-0.357-0.121-0.475-0.224c-0.506-0.448-1.025-1.569-1.039-3.061c-0.008-0.775,0.131-1.507,0.371-2.105h-1.639
		c-0.195,0.646-0.303,1.365-0.295,2.118c0.018,1.718,0.58,3.233,1.506,4.054c0.084,0.074,0.174,0.135,0.262,0.196
		c-0.223,0.141-0.439,0.306-0.639,0.52c-0.762,0.82-1.283,2.106-1.426,3.529c-0.174,1.711,0.219,3.269,1.049,4.168
		c0.158,0.17,0.334,0.305,0.52,0.421c-0.33,0.136-0.652,0.336-0.949,0.616c-0.818,0.773-1.432,2.026-1.68,3.437
		c-0.297,1.697-0.018,3.275,0.744,4.222c0.023,0.03,0.053,0.052,0.078,0.08c-0.385,0.057-0.781,0.2-1.174,0.429
		c-0.994,0.585-1.906,1.679-2.502,3.002c-0.719,1.591-0.848,3.186-0.342,4.263c0.09,0.192,0.205,0.356,0.332,0.508
		c-0.385-0.018-0.799,0.042-1.229,0.188c-1.111,0.375-2.268,1.263-3.17,2.437c-1.088,1.412-1.598,2.942-1.367,4.093
		c0.006,0.021,0.014,0.038,0.018,0.058c-0.303-0.053-0.625-0.077-0.979-0.04c-1.18,0.122-2.539,0.731-3.729,1.674
		c-1.434,1.133-2.338,2.507-2.422,3.674c-0.016,0.227,0.01,0.438,0.057,0.639c-0.387-0.186-0.85-0.293-1.383-0.293
		c-1.188,0-2.615,0.466-3.916,1.28c-1.566,0.979-2.641,2.251-2.869,3.403c-0.117,0.584-0.008,1.115,0.316,1.536
		c0.424,0.549,1.176,0.852,2.113,0.852c1.188,0,2.615-0.466,3.916-1.28c1.566-0.979,2.639-2.251,2.869-3.402
		c0.061-0.298,0.059-0.581,0.002-0.844c0.447,0.207,0.992,0.296,1.611,0.232c1.18-0.122,2.539-0.731,3.729-1.673
		c1.434-1.134,2.338-2.507,2.422-3.675c0.014-0.183-0.002-0.355-0.029-0.522c0.453,0.067,0.951,0.027,1.48-0.15
		c1.111-0.375,2.266-1.263,3.17-2.436c1.086-1.412,1.596-2.942,1.365-4.094c-0.072-0.358-0.225-0.664-0.434-0.919
		c0.518,0.017,1.068-0.125,1.609-0.444c0.994-0.585,1.906-1.679,2.502-3.001c0.719-1.592,0.846-3.186,0.342-4.264
		c-0.084-0.176-0.188-0.329-0.301-0.471c0.527-0.08,1.047-0.339,1.51-0.774c0.82-0.773,1.432-2.026,1.678-3.437
		c0.299-1.697,0.02-3.274-0.744-4.221c-0.172-0.213-0.369-0.384-0.584-0.522c0.361-0.154,0.705-0.398,1.012-0.729
		c0.762-0.82,1.283-2.106,1.426-3.528c0.172-1.711-0.219-3.269-1.051-4.168c-0.123-0.134-0.26-0.247-0.4-0.347
		C299.403,181.728,299.658,181.505,299.879,181.214z M277.281,221.643c-0.125,0.629-0.861,1.644-2.221,2.495
		c-1.031,0.645-2.164,1.029-3.027,1.029c-0.406,0-0.709-0.09-0.83-0.248c-0.105-0.135-0.092-0.336-0.063-0.481
		c0.125-0.629,0.861-1.645,2.221-2.496c1.031-0.644,2.164-1.029,3.027-1.029c0.406,0,0.709,0.09,0.83,0.248
		C277.323,221.297,277.311,221.498,277.281,221.643z M283.131,218.55c-0.941,0.745-2.018,1.244-2.877,1.333
		c-0.402,0.042-0.715-0.017-0.857-0.162c-0.119-0.123-0.133-0.324-0.121-0.471c0.045-0.638,0.648-1.723,1.893-2.708
		c0.941-0.746,2.018-1.244,2.875-1.333c0.404-0.042,0.719,0.017,0.859,0.162c0.121,0.124,0.133,0.324,0.123,0.472
		C284.979,216.481,284.375,217.565,283.131,218.55z M289.92,212.022c-0.715,0.929-1.625,1.647-2.436,1.92
		c-0.381,0.128-0.697,0.14-0.873,0.03c-0.15-0.094-0.217-0.286-0.246-0.431c-0.127-0.628,0.168-1.813,1.109-3.04
		c0.717-0.929,1.627-1.646,2.436-1.919c0.383-0.128,0.701-0.14,0.875-0.03c0.15,0.094,0.217,0.286,0.246,0.432
		C291.156,209.613,290.864,210.796,289.92,212.022z M294.799,203.837c-0.471,1.047-1.184,1.927-1.908,2.354
		c-0.342,0.2-0.648,0.273-0.848,0.201c-0.17-0.061-0.279-0.237-0.342-0.372c-0.277-0.589-0.277-1.803,0.348-3.186
		c0.471-1.047,1.186-1.927,1.908-2.353c0.342-0.2,0.65-0.273,0.848-0.202c0.17,0.062,0.281,0.237,0.344,0.374
		C295.426,201.243,295.424,202.455,294.799,203.837z M297.934,195.201c-0.195,1.117-0.67,2.121-1.268,2.683
		c-0.281,0.265-0.563,0.399-0.773,0.37c-0.18-0.025-0.332-0.172-0.428-0.292c-0.418-0.517-0.723-1.699-0.465-3.173
		c0.193-1.116,0.668-2.12,1.264-2.683c0.283-0.265,0.564-0.399,0.773-0.37c0.182,0.026,0.334,0.172,0.432,0.292
		C297.885,192.547,298.192,193.728,297.934,195.201z M299.028,186.293c-0.111,1.126-0.512,2.156-1.068,2.752
		c-0.26,0.281-0.531,0.432-0.744,0.415c-0.18-0.014-0.342-0.152-0.447-0.266c-0.455-0.491-0.846-1.653-0.695-3.139
		c0.111-1.125,0.514-2.155,1.066-2.752c0.262-0.281,0.533-0.432,0.744-0.415c0.184,0.016,0.346,0.152,0.451,0.266
		C298.787,183.648,299.18,184.808,299.028,186.293z"/>
	<ellipse fill="#CECECE" cx="249.03" cy="231.103" rx="22.789" ry="20.542"/>
	<path fill="#E8E8E8" d="M249.174,210.689c-0.322,0,14.846,21.815-12.781,37.549c3.646,2.229,8.043,3.535,12.781,3.535
		c12.584,0,22.787-9.196,22.787-20.542C271.961,219.886,261.758,210.689,249.174,210.689z"/>
</g>
</svg>
