<?xml version="1.0" encoding="utf-8"?>
<!-- Generator: Adobe Illustrator 14.0.0, SVG Export Plug-In . SVG Version: 6.00 Build 43363)  -->
<!DOCTYPE svg PUBLIC "-//W3C//DTD SVG 1.1//EN" "http://www.w3.org/Graphics/SVG/1.1/DTD/svg11.dtd">
<svg version="1.1" id="content" xmlns="http://www.w3.org/2000/svg" xmlns:xlink="http://www.w3.org/1999/xlink" x="0px" y="0px"
	 width="500px" height="500px" viewBox="0 0 500 500" enable-background="new 0 0 500 500" xml:space="preserve">
<g id="bounds" display="none">
	<rect x="107.358" y="113.559" fill="none" stroke="#23170D" stroke-width="1.2602" width="284.07" height="284.07"/>
</g>
<g id="accessory">
	<path fill="#2D2D2D" d="M289.707,249.605v-7.661c0-2.416-2.418-4.374-5.4-4.374h-69.04c-2.981,0-5.399,1.958-5.399,4.374v7.948
		v20.566v22.118v13.528v6.553c0,2.416,2.418,4.374,5.399,4.374h69.04c2.982,0,5.4-1.958,5.4-4.375v-6.552l0.001-13.53v-22.228
		L289.707,249.605z"/>
	<path fill="#2D2D2D" d="M306.24,309.549c0,0,52.48,0.57,52.48-24.648s-0.006-23.834-0.006-23.834s-3.986,29.17-52.475,29.17
		h-17.094l-1.522,19.313H306.24z"/>
	<path fill="#2D2D2D" d="M309.192,262.51c24.752-17.046,40.193-40.441,49.529-59.992v-27.016h-14.658
		c-5.377,15.426-16.65,40.186-37.826,59.119c0,0-6.034,5.923-19.186,10.35c0,10.923,0,25.873,0,25.873
		S297.151,270.138,309.192,262.51z"/>
	<path fill="#2D2D2D" d="M211.49,309.549l-1.521-19.313h-17.096c-48.49,0-52.477-29.17-52.477-29.17s-0.004-1.387-0.004,23.834
		c0,25.223,52.48,24.648,52.48,24.648H211.49z"/>
	<path fill="#2D2D2D" d="M212.061,270.844c0,0,0-14.949,0-25.873c-13.152-4.427-19.188-10.35-19.188-10.35
		c-21.176-18.935-32.446-43.693-37.826-59.119h-14.656v27.016c9.338,19.551,24.779,42.945,49.531,59.992
		C201.965,270.138,212.061,270.844,212.061,270.844z"/>
	<path fill="#1E1E1E" d="M285.739,285.76c0,1.936-1.713,3.502-3.827,3.502h-64.444c-2.112,0-3.83-1.566-3.83-3.502v-39.444
		c0-1.935,1.718-3.503,3.83-3.503h64.442c2.114,0,3.829,1.568,3.829,3.503V285.76L285.739,285.76z"/>
	<path fill="#1E1E1E" d="M237.301,309.5c0,2.256-1.83,4.084-4.09,4.084h-4.248c-2.258,0-4.089-1.828-4.089-4.084v-9.271
		c0-2.256,1.831-4.082,4.089-4.082h4.248c2.26,0,4.09,1.826,4.09,4.08V309.5L237.301,309.5z"/>
	<path fill="#1E1E1E" d="M274.411,309.5c0,2.256-1.829,4.084-4.088,4.084h-4.249c-2.257,0-4.088-1.828-4.088-4.084v-9.271
		c0-2.256,1.831-4.082,4.088-4.082h4.249c2.259,0,4.088,1.826,4.088,4.08V309.5z"/>
	<rect x="215.589" y="262.756" fill="#9FBF3B" width="67.934" height="26.506"/>
	<path fill="#9FBF3B" d="M265.66,234.112l6.276-9.096c0.37-0.541,0.276-1.25-0.205-1.586c-0.485-0.333-1.189-0.169-1.559,0.373
		l-6.52,9.448c-4.296-1.69-9.066-2.631-14.096-2.631s-9.802,0.938-14.097,2.631l-6.518-9.448c-0.374-0.541-1.068-0.706-1.558-0.373
		c-0.485,0.334-0.579,1.044-0.207,1.586l6.274,9.096c-9.976,4.634-16.971,13.439-17.864,23.718h67.934
		C282.635,247.552,275.638,238.746,265.66,234.112"/>
	<path fill="#FFFFFF" d="M235.748,252.312c-4.061,0-7.351-3.284-7.351-7.34c0-4.054,3.286-7.341,7.351-7.341
		c4.059,0,7.345,3.286,7.345,7.341C243.095,249.026,239.807,252.312,235.748,252.312"/>
	<path fill="#FFFFFF" d="M263.237,252.312c4.061,0,7.351-3.284,7.351-7.34c0-4.054-3.288-7.341-7.351-7.341
		c-4.059,0-7.347,3.286-7.347,7.341C255.888,249.026,259.178,252.312,263.237,252.312"/>
	<ellipse fill="#AEEAED" cx="249.491" cy="253.783" rx="7.28" ry="7.269"/>
	<ellipse fill="#52AFAF" cx="249.491" cy="253.784" rx="2.931" ry="2.925"/>
	<path fill="#9FBF3B" d="M209.838,254.801c2.488,1.91,2.958,5.471,1.045,7.957l0,0c-1.909,2.484-5.479,2.951-7.965,1.043
		l-18.229-13.978c-2.488-1.909-2.958-5.472-1.045-7.955l0,0c1.909-2.485,5.478-2.953,7.967-1.045L209.838,254.801z"/>
	<path fill="#9FBF3B" d="M225.43,308.133c-0.455-3.102,1.692-5.98,4.797-6.438l0,0c3.104-0.455,5.991,1.688,6.446,4.787
		l3.343,22.705c0.454,3.104-1.691,5.982-4.796,6.438l0,0c-3.106,0.455-5.991-1.688-6.449-4.787L225.43,308.133z"/>
	<path fill="#9FBF3B" d="M273.901,308.074c0.454-3.102-1.691-5.98-4.796-6.439l0,0c-3.108-0.455-5.991,1.689-6.447,4.789
		l-3.343,22.703c-0.456,3.102,1.69,5.982,4.796,6.439l0,0c3.106,0.455,5.992-1.689,6.447-4.787L273.901,308.074z"/>
	<path fill="#9FBF3B" d="M289.145,254.801c-2.486,1.91-2.956,5.471-1.045,7.957l0,0c1.911,2.484,5.479,2.951,7.967,1.043
		l18.227-13.978c2.488-1.909,2.958-5.472,1.045-7.955l0,0c-1.909-2.485-5.479-2.953-7.967-1.045L289.145,254.801z"/>
	<path fill="#AEEAED" d="M273.36,262.756c0,0-2.23,16.092-23.868,16.092c-21.64,0-23.866-16.092-23.866-16.092h-10.036v26.506
		h33.904h33.902l0.002-26.506H273.36z"/>
	<rect x="241.675" y="289.261" fill="#474747" width="3.53" height="27.785"/>
	<rect x="254.051" y="289.261" fill="#474747" width="3.528" height="27.785"/>
	<path fill="#6D99AF" d="M238.264,229.948c0,0,0.061-1.691,1.868-3.177c1.811-1.481,7.114-5.233,3.179-7.686
		c0.324-2.055,0.324-2.055,0.324-2.055s13.88-0.648,17.401,12.086l-3.343,4.602h-7.97L238.264,229.948z"/>
	<path fill="#45697F" d="M261.036,229.118c-3.106,3.003-11.309,2.985-11.309,2.985s-8.201,0.019-11.308-2.985
		c-0.554,2.546-0.554,5.37-0.554,5.37s4.118,2.768,11.859,2.768c7.744,0,11.864-2.768,11.864-2.768S261.592,231.664,261.036,229.118
		z"/>
	<path fill="#CDEFF7" d="M245.265,217.161c0-1.135-0.922-2.055-2.057-2.055c-0.436,0-0.841,0.137-1.173,0.367
		c-0.368-0.34-0.859-0.55-1.399-0.55c-1.136,0-2.058,0.92-2.058,2.055c0,0.046,0.004,0.088,0.006,0.132
		c-0.86,0.169-1.512,0.928-1.512,1.838c0,1.035,0.839,1.875,1.878,1.875c0.458,0,0.878-0.166,1.205-0.439
		c0.295,0.649,0.948,1.104,1.709,1.104c1.037,0,1.876-0.84,1.876-1.875c0-0.156-0.021-0.309-0.059-0.452
		C244.59,218.944,245.265,218.132,245.265,217.161z"/>
</g>
<rect id="position" x="0" y="0" display="none" fill="none" stroke="#2D2D2D" width="500" height="500"/>
</svg>
