<?xml version="1.0" encoding="utf-8"?>
<!-- Generator: Adobe Illustrator 18.0.0, SVG Export Plug-In . SVG Version: 6.00 Build 0)  -->
<!DOCTYPE svg PUBLIC "-//W3C//DTD SVG 1.1//EN" "http://www.w3.org/Graphics/SVG/1.1/DTD/svg11.dtd">
<svg version="1.1" id="content" xmlns="http://www.w3.org/2000/svg" xmlns:xlink="http://www.w3.org/1999/xlink" x="0px" y="0px"
	 width="500px" height="500px" viewBox="0 0 500 500" enable-background="new 0 0 500 500" xml:space="preserve">
<rect id="position" display="none" fill="none" stroke="#000000" width="500" height="500"/>
<g id="bounds" display="none">
	<rect x="0.2" y="80.2" display="inline" fill="none" stroke="#EAEAEA" stroke-miterlimit="10" width="499.5" height="499.5"/>
</g>
<g>
	<path fill="#2D2D2D" d="M343.8,271v-17.9c0-5.6-5.6-10.2-12.6-10.2H170.1c-7,0-12.6,4.6-12.6,10.2v18.5v48v51.6v31.6v15.3
		c0,5.6,5.6,10.2,12.6,10.2h161.1c7,0,12.6-4.6,12.6-10.2v-15.3l0-31.6v-51.9L343.8,271z"/>
	<path fill="#1E1E1E" d="M334.6,355.4c0,4.5-4,8.2-8.9,8.2H175.3c-4.9,0-8.9-3.7-8.9-8.2v-92c0-4.5,4-8.2,8.9-8.2h150.4
		c4.9,0,8.9,3.7,8.9,8.2L334.6,355.4L334.6,355.4z"/>
	<path fill="#1E1E1E" d="M221.6,410.8c0,5.3-4.3,9.5-9.5,9.5h-9.9c-5.3,0-9.5-4.3-9.5-9.5v-21.6c0-5.3,4.3-9.5,9.5-9.5h9.9
		c5.3,0,9.5,4.3,9.5,9.5V410.8L221.6,410.8z"/>
	<path fill="#1E1E1E" d="M308.1,410.8c0,5.3-4.3,9.5-9.5,9.5h-9.9c-5.3,0-9.5-4.3-9.5-9.5v-21.6c0-5.3,4.3-9.5,9.5-9.5h9.9
		c5.3,0,9.5,4.3,9.5,9.5V410.8z"/>
	<rect x="170.9" y="301.7" fill="#9FBF3B" width="158.5" height="61.8"/>
	<path fill="#9FBF3B" d="M287.7,234.9l14.6-21.2c0.9-1.3,0.6-2.9-0.5-3.7c-1.1-0.8-2.8-0.4-3.6,0.9l-15.2,22
		c-10-3.9-21.2-6.1-32.9-6.1s-22.9,2.2-32.9,6.1l-15.2-22c-0.9-1.3-2.5-1.6-3.6-0.9c-1.1,0.8-1.4,2.4-0.5,3.7l14.6,21.2
		c-23.3,10.8-39.6,31.4-41.7,55.3h158.5C327.3,266.2,311,245.7,287.7,234.9"/>
	<path fill="#FFFFFF" d="M217.9,277.4c-9.5,0-17.2-7.7-17.2-17.1c0-9.5,7.7-17.1,17.2-17.1c9.5,0,17.1,7.7,17.1,17.1
		C235.1,269.7,227.4,277.4,217.9,277.4"/>
	<path fill="#FFFFFF" d="M282.1,277.4c9.5,0,17.2-7.7,17.2-17.1c0-9.5-7.7-17.1-17.2-17.1c-9.5,0-17.1,7.7-17.1,17.1
		C264.9,269.7,272.6,277.4,282.1,277.4"/>
	<ellipse fill="#FFB8E6" cx="250" cy="280.8" rx="17" ry="17"/>
	<ellipse fill="#C16CA7" cx="250" cy="280.8" rx="6.8" ry="6.8"/>
	<path fill="#9FBF3B" d="M157.5,283.2c5.8,4.5,6.9,12.8,2.4,18.6l0,0c-4.5,5.8-12.8,6.9-18.6,2.4l-42.5-32.6
		c-5.8-4.5-6.9-12.8-2.4-18.6l0,0c4.5-5.8,12.8-6.9,18.6-2.4L157.5,283.2z"/>
	<path fill="#9FBF3B" d="M193.9,407.6c-1.1-7.2,3.9-14,11.2-15l0,0c7.2-1.1,14,3.9,15,11.2l7.8,53c1.1,7.2-3.9,14-11.2,15l0,0
		c-7.2,1.1-14-3.9-15-11.2L193.9,407.6z"/>
	<path fill="#9FBF3B" d="M307,407.5c1.1-7.2-3.9-14-11.2-15l0,0c-7.3-1.1-14,3.9-15,11.2l-7.8,53c-1.1,7.2,3.9,14,11.2,15l0,0
		c7.2,1.1,14-3.9,15-11.2L307,407.5z"/>
	<path fill="#9FBF3B" d="M342.5,283.2c-5.8,4.5-6.9,12.8-2.4,18.6l0,0c4.5,5.8,12.8,6.9,18.6,2.4l42.5-32.6
		c5.8-4.5,6.9-12.8,2.4-18.6l0,0c-4.5-5.8-12.8-6.9-18.6-2.4L342.5,283.2z"/>
	<path fill="#FFB8E6" d="M305.7,301.7c0,0-5.2,37.5-55.7,37.5c-50.5,0-55.7-37.5-55.7-37.5h-23.4v61.8H250h79.1l0-61.8H305.7z"/>
	<rect x="231.8" y="363.6" fill="#474747" width="8.2" height="64.8"/>
	<rect x="260.6" y="363.6" fill="#474747" width="8.2" height="64.8"/>
	<path fill="#FFB8E6" d="M223.8,225.2c0,0,0.1-3.9,4.4-7.4c4.2-3.5,16.6-12.2,7.4-17.9c0.8-4.8,0.8-4.8,0.8-4.8s32.4-1.5,40.6,28.2
		l-7.8,10.7h-18.6L223.8,225.2z"/>
	<path fill="#C16CA7" d="M276.9,223.2c-7.2,7-26.4,7-26.4,7s-19.1,0-26.4-7c-1.3,5.9-1.3,12.5-1.3,12.5s9.6,6.5,27.7,6.5
		c18.1,0,27.7-6.5,27.7-6.5S278.2,229.2,276.9,223.2z"/>
	<path fill="#FFEBF9" d="M240.1,195.3c0-2.6-2.2-4.8-4.8-4.8c-1,0-2,0.3-2.7,0.9c-0.9-0.8-2-1.3-3.3-1.3c-2.7,0-4.8,2.1-4.8,4.8
		c0,0.1,0,0.2,0,0.3c-2,0.4-3.5,2.2-3.5,4.3c0,2.4,2,4.4,4.4,4.4c1.1,0,2-0.4,2.8-1c0.7,1.5,2.2,2.6,4,2.6c2.4,0,4.4-2,4.4-4.4
		c0-0.4,0-0.7-0.1-1.1C238.6,199.5,240.1,197.6,240.1,195.3z"/>
</g>
</svg>
