<?xml version="1.0" encoding="utf-8"?>
<!-- Generator: Adobe Illustrator 18.0.0, SVG Export Plug-In . SVG Version: 6.00 Build 0)  -->
<!DOCTYPE svg PUBLIC "-//W3C//DTD SVG 1.1//EN" "http://www.w3.org/Graphics/SVG/1.1/DTD/svg11.dtd">
<svg version="1.1" id="content" xmlns="http://www.w3.org/2000/svg" xmlns:xlink="http://www.w3.org/1999/xlink" x="0px" y="0px"
	 width="500px" height="500px" viewBox="0 0 500 500" enable-background="new 0 0 500 500" xml:space="preserve">
<g id="bounds" display="none">
	<rect x="122.8" y="205.9" display="inline" fill="none" stroke="#000000" stroke-width="0.8446" width="254.3" height="254.3"/>
</g>
<path id="position" display="none" d="M499,1v498H1V1H499 M500,0H0v500h500V0L500,0z"/>
<g>
	<g opacity="0.1">
		<path d="M300.4,315.6H198.7l-7-9.1v38.3l7.4,15l0,0c0.7,1.7,2.4,2.9,4.3,2.9h92.3c1.9,0,3.6-1.2,4.3-2.9l0,0l7.4-15v-38.3
			L300.4,315.6z"/>
	</g>
	<g>
		<rect x="303" y="303.8" fill="#404041" width="55.8" height="19.8"/>
	</g>
	<g>
		<rect x="140.8" y="303.8" fill="#404041" width="55.8" height="19.8"/>
	</g>
	<g>
		<g>
			<g>
				<path fill="#F2F2F2" d="M278.7,330.8c-0.9,0-1.6,0.8-1.6,1.8s0.7,1.8,1.6,1.8s1.6-0.8,1.6-1.8
					C280.3,331.6,279.6,330.8,278.7,330.8z"/>
			</g>
		</g>
		<g>
			<g>
				<polygon fill="#F2F2F2" points="278.7,332.9 281.1,342 278.7,342 276.3,342 				"/>
			</g>
		</g>
	</g>
	<g>
		<polygon fill="#E53A35" points="300.4,312.7 198.7,312.7 191.7,303.8 307.4,303.8 		"/>
	</g>
	<g>
		<path fill="#D41F26" d="M295.7,359.2h-92.3c-2.6,0-4.7-2.1-4.7-4.7v-41.7h101.7v41.7C300.4,357.1,298.3,359.2,295.7,359.2z"/>
	</g>
	<g>
		<path fill="#EF4438" d="M270.2,351.2h-41.3c-1.8,0-3.3-1.5-3.3-3.3v-16.6h48v16.6C273.5,349.7,272,351.2,270.2,351.2z"/>
	</g>
	<g>
		<polygon fill="#C62828" points="199,356.3 191.7,339.9 191.7,303.8 198.7,312.7 		"/>
	</g>
	<g>
		<polygon fill="#58595B" points="191.7,317.8 198.7,326.7 198.7,323.5 191.7,314.7 		"/>
	</g>
	<g opacity="0.1">
		<polygon points="191.7,314.7 198.7,323.6 198.7,320.4 191.7,311.6 		"/>
	</g>
	<g>
		<polygon fill="#C62828" points="300,356.3 307.4,339.9 307.4,303.8 300.4,312.7 		"/>
	</g>
	<g>
		<polygon fill="#58595B" points="307.4,317.8 300.3,326.6 300.3,323.6 307.4,314.7 		"/>
	</g>
	<g opacity="0.1">
		<polygon points="307.4,314.8 300.3,323.6 300.3,320.6 307.4,311.7 		"/>
	</g>
	<g>
		<g>
			<g>
				<rect x="198.6" y="323.6" fill="#58595B" width="101.6" height="3"/>
			</g>
			<g opacity="0.1">
				<rect x="198.6" y="320.5" width="101.6" height="3"/>
			</g>
		</g>
		<g>
			<g>
				<rect x="290.7" y="323.6" fill="#CCCCCC" width="3.1" height="10.2"/>
			</g>
		</g>
		<g>
			<g>
				<rect x="290.7" y="330.5" fill="#B6BFBF" width="3.1" height="3.3"/>
			</g>
		</g>
	</g>
	<g>
		<g>
			<g>
				<rect x="225.5" y="337.7" fill="#58595B" width="48" height="3"/>
			</g>
			<g opacity="0.1">
				<rect x="225.5" y="334.7" width="48" height="3"/>
			</g>
		</g>
		<g>
			<g>
				<rect x="263.9" y="337.7" fill="#CCCCCC" width="3.1" height="10.2"/>
			</g>
		</g>
		<g>
			<g>
				<rect x="263.9" y="344.6" fill="#B6BFBF" width="3.1" height="3.3"/>
			</g>
		</g>
	</g>
</g>
</svg>
