<?xml version="1.0" encoding="utf-8"?>
<!-- Generator: Adobe Illustrator 18.0.0, SVG Export Plug-In . SVG Version: 6.00 Build 0)  -->
<!DOCTYPE svg PUBLIC "-//W3C//DTD SVG 1.1//EN" "http://www.w3.org/Graphics/SVG/1.1/DTD/svg11.dtd">
<svg version="1.1" id="content" xmlns="http://www.w3.org/2000/svg" xmlns:xlink="http://www.w3.org/1999/xlink" x="0px" y="0px"
	 width="500px" height="500px" viewBox="0 0 500 500" enable-background="new 0 0 500 500" xml:space="preserve">
<rect id="position" display="none" fill="none" stroke="#000000" width="500" height="500"/>
<g id="bounds">
	<rect x="0.2" y="80.2" fill="none" stroke="#EAEAEA" stroke-miterlimit="10" width="499.5" height="499.5"/>
</g>
<g>
	<g>
		<path fill="#F0D426" d="M78.4,141.5c-0.6,7.9,5.1,14.4,13,15c7.9,0.6,14.4-5.1,15-13c0.6-7.9-5.1-14.4-13-15
			C86.1,127.7,79.2,133.6,78.4,141.5z M103.2,143.3c-0.4,5.9-5.5,10.3-11.4,9.9c-5.9-0.4-10.3-5.5-9.9-11.4
			c0.4-5.9,5.5-10.3,11.4-9.9C99.5,132.1,104,137.4,103.2,143.3z"/>
	</g>
	<g>
		<path fill="#F0D426" d="M84.7,159.3c1,7.5,7.9,13,15.8,12.4c7.5-1,13-7.9,12.4-15.8c-1-7.5-7.9-13-15.8-12.4
			C89.6,144.5,83.9,151.4,84.7,159.3z M109.5,156.3c0.6,5.9-3.4,11.4-9.3,12c-5.9,0.6-11.4-3.4-12-9.3c-0.6-5.9,3.4-11.4,9.3-12
			C103.2,146.3,108.7,150.4,109.5,156.3z"/>
	</g>
	<g>
		<path fill="#F0D426" d="M90.8,174.3c1,7.5,7.9,13,15.8,12.4c7.5-1,13-7.9,12.4-15.8c-1-7.5-7.9-13-15.8-12.4
			C95.3,159.7,89.8,166.6,90.8,174.3z M115.6,171.3c0.6,5.9-3.4,11.4-9.3,12s-11.4-3.4-12-9.3c-0.6-5.9,3.4-11.4,9.3-12
			C109.5,161.4,115,165.4,115.6,171.3z"/>
	</g>
	<g>
		<path fill="#F0D426" d="M97.1,190.6c1.4,7.5,8.9,12.8,16.4,11.4c7.5-1.4,12.8-8.9,11.4-16.4c-1.4-7.5-8.9-12.8-16.4-11.4
			C100.7,175.4,95.7,182.7,97.1,190.6z M121.4,185.7c1,5.9-2.8,11.4-8.5,12.4c-5.9,1-11.4-2.8-12.4-8.5c-1-5.9,2.8-11.4,8.5-12.4
			C115,176.2,120.4,179.8,121.4,185.7z"/>
	</g>
	<g>
		<path fill="#F0D426" d="M103.2,205.6c1.4,7.5,8.9,12.8,16.4,11.4c7.5-1.4,12.8-8.9,11.4-16.4s-8.9-12.8-16.4-11.4
			C106.6,190.6,101.8,197.7,103.2,205.6z M127.5,200.9c1,5.9-2.8,11.4-8.5,12.4c-5.9,1-11.4-2.8-12.4-8.5c-1-5.9,2.8-11.4,8.5-12.4
			C120.6,191.2,126.5,195,127.5,200.9z"/>
	</g>
	<g>
		<path fill="#F0D426" d="M109.5,220.8c1.4,7.5,8.9,12.8,16.4,11.4c7.5-1.4,12.8-8.9,11.4-16.4c-1.4-7.5-8.9-12.8-16.4-11.4
			C112.9,205.6,108.1,213.3,109.5,220.8z M133.8,215.9c1,5.9-2.8,11.4-8.5,12.4c-5.9,1-11.4-2.8-12.4-8.5c-1-5.9,2.8-11.4,8.5-12.4
			C126.9,206.4,132.4,210.1,133.8,215.9z"/>
	</g>
	<g>
		<path fill="#F0D426" d="M115.6,235.8c1.4,7.5,8.9,12.8,16.4,11.4c7.5-1.4,12.8-8.9,11.4-16.4s-8.9-12.8-16.4-11.4
			C119,220.8,113.9,228.3,115.6,235.8z M139.5,231c1,5.9-2.8,11.4-8.5,12.4c-5.9,1-11.4-2.8-12.4-8.5c-1-5.9,2.8-11.4,8.5-12.4
			C133,221.4,138.5,225.5,139.5,231z"/>
	</g>
	<g>
		<path fill="#F0D426" d="M121.4,251.1c1.4,7.5,8.9,12.8,16.4,11.4c7.5-1.4,12.8-8.9,11.4-16.4s-8.9-12.8-16.4-11.4
			C125.1,235.8,120,243.3,121.4,251.1z M145.8,246.6c1,5.9-2.8,11.4-8.5,12.4c-5.9,1-11.4-2.8-12.4-8.5c-1-5.9,2.8-11.4,8.5-12.4
			C139.3,236.8,144.8,240.7,145.8,246.6z"/>
	</g>
	<g>
		<path fill="#F0D426" d="M127.5,266.1c1.4,7.5,8.9,12.8,16.4,11.4c7.5-1.4,12.8-8.9,11.4-16.4c-1.4-7.5-8.9-12.8-16.4-11.4
			C131,251.1,126.3,258.6,127.5,266.1z M151.9,261.6c1,5.9-2.8,11.4-8.5,12.4c-5.7,1-11.4-2.8-12.4-8.5c-1-5.9,2.8-11.4,8.5-12.4
			S150.9,255.7,151.9,261.6z"/>
	</g>
	<g>
		<path fill="#F0D426" d="M133.8,281.1c1.4,7.5,8.9,12.8,16.4,11.4c7.5-1.4,12.8-8.9,11.4-16.4c-1.4-7.5-8.9-12.8-16.4-11.4
			C137.3,266.5,132.4,273.6,133.8,281.1z M158.2,276.6c1,5.9-2.8,11.4-8.5,12.4c-5.7,1-11.4-2.8-12.4-8.5c-1-5.9,2.8-11.4,8.5-12.4
			C151.3,267.1,156.8,270.9,158.2,276.6z"/>
	</g>
	<g>
		<path fill="#F0D426" d="M139.9,296.3c1.4,7.5,8.9,12.8,16.4,11.4c7.5-1.4,12.8-8.9,11.4-16.4c-1.4-7.5-8.9-12.8-16.4-11.4
			C143.4,281.5,138.3,288.8,139.9,296.3z M164.1,291.8c1,5.9-2.8,11.4-8.5,12.4c-5.9,1-11.4-2.8-12.4-8.5c-1-5.9,2.8-11.4,8.5-12.4
			C157.4,282.3,162.8,286,164.1,291.8z"/>
	</g>
	<g>
		<path fill="#F0D426" d="M145.8,311.3c1.4,7.5,8.9,12.8,16.4,11.4c7.5-1.4,12.8-8.9,11.4-16.4c-1.4-7.5-8.9-12.8-16.4-11.4
			C149.7,296.7,144.4,303.8,145.8,311.3z M170.2,306.9c1,5.9-2.8,11.4-8.5,12.4c-5.9,1-11.4-2.8-12.4-8.5c-1-5.9,2.8-11.4,8.5-12.4
			C163.7,297.3,169.1,301.2,170.2,306.9z"/>
	</g>
	<g>
		<path fill="#F0D426" d="M151.9,326.5c1.4,7.5,8.9,12.8,16.4,11.4c7.5-1.4,12.8-8.9,11.4-16.4c-1.4-7.5-8.9-12.8-16.4-11.4
			C155.3,311.7,150.7,318.8,151.9,326.5z M176.2,322.1c1,5.9-2.8,11.4-8.5,12.4c-5.9,1-11.4-2.8-12.4-8.5c-1-5.9,2.8-11.4,8.5-12.4
			C169.5,312.3,175.2,316.2,176.2,322.1z"/>
	</g>
	<g>
		<path fill="#F0D426" d="M158.2,342c1.4,7.5,8.9,12.8,16.4,11.4c7.5-1.4,12.8-8.9,11.4-16.4c-1.4-7.5-8.9-12.8-16.4-11.4
			C161.6,326.8,156.8,334.1,158.2,342z M182.5,337.1c1,5.9-2.8,11.4-8.5,12.4c-5.9,1-11.4-2.8-12.4-8.5c-1-5.7,2.8-11.4,8.5-12.4
			C175.6,327.6,181.1,331.2,182.5,337.1z"/>
	</g>
	<g>
		<path fill="#F0D426" d="M406.6,128.5c-7.9,0.6-13.4,7.3-13,15c0.6,7.9,7.3,13.4,15,13c7.9-0.6,13.4-7.3,13-15
			C421,133.6,414.3,127.7,406.6,128.5z M407,131.9c5.9-0.4,11,4.1,11.4,9.9c0.4,5.9-4.1,11-9.9,11.4c-5.9,0.4-11-4.1-11.4-9.9
			C396.6,137.4,400.9,132.1,407,131.9z"/>
	</g>
	<g>
		<path fill="#F0D426" d="M403.1,143.5c-7.5-1-14.8,4.5-15.8,12.4c-1,7.5,4.5,14.8,12.4,15.8c7.5,1,14.8-4.5,15.8-12.4
			C416.3,151.4,411,144.5,403.1,143.5z M402.9,146.9c5.9,0.6,9.9,6.1,9.3,12s-6.1,9.9-12,9.3c-5.9-0.6-9.9-6.1-9.3-12
			C391.6,150.4,397,146.3,402.9,146.9z"/>
	</g>
	<g>
		<path fill="#F0D426" d="M397,158.7c-7.5-1-14.8,4.5-15.8,12.4c-1,7.5,4.5,14.8,12.4,15.8c7.5,1,14.8-4.5,15.8-12.4
			C410.4,166.6,405,159.7,397,158.7z M396.6,162.2c5.9,0.6,9.9,6.1,9.3,12s-6.1,9.9-12,9.3c-5.9-0.6-9.9-6.1-9.3-12
			C385.7,165.4,391,161.4,396.6,162.2z"/>
	</g>
	<g>
		<path fill="#F0D426" d="M392,174.1c-7.5-1.4-15,3.4-16.4,11.4c-1.4,7.5,3.4,15,11.4,16.4c7.5,1.4,15-3.4,16.4-11.4
			C404.5,182.7,399.5,175.4,392,174.1z M391.2,177.2c5.9,1,9.5,6.5,8.5,12.4c-1,5.9-6.5,9.5-12.4,8.5s-9.5-6.5-8.5-12.4
			C379.8,179.8,385.3,176.2,391.2,177.2z"/>
	</g>
	<g>
		<path fill="#F0D426" d="M385.7,189.2c-7.5-1.4-15,3.4-16.4,11.4c-1.4,7.5,3.4,15,11.4,16.4c7.5,1.4,15-3.4,16.4-11.4
			C398.5,197.7,393.6,190.6,385.7,189.2z M385.3,192.2c5.9,1,9.5,6.5,8.5,12.4c-1,5.9-6.5,9.5-12.4,8.5s-9.5-6.5-8.5-12.4
			C373.7,195,379.6,191.2,385.3,192.2z"/>
	</g>
	<g>
		<path fill="#F0D426" d="M379.8,204.4c-7.5-1.4-15,3.4-16.4,11.4c-1.4,7.5,3.4,15,11.4,16.4c7.5,1.4,15-3.4,16.4-11.4
			C392.2,213.3,387.5,205.6,379.8,204.4z M379.2,207.6c5.9,1,9.5,6.5,8.5,12.4c-1,5.9-6.5,9.5-12.4,8.5c-5.9-1-9.5-6.5-8.5-12.4
			C367.8,210.1,373.3,206.4,379.2,207.6z"/>
	</g>
	<g>
		<path fill="#F0D426" d="M373.7,219.4c-7.5-1.4-15,3.4-16.4,11.4c-1.4,7.5,3.4,15,11.4,16.4c7.5,1.4,15-3.4,16.4-11.4
			C386.5,228.3,381.2,220.8,373.7,219.4z M373.1,222.8c5.9,1,9.5,6.5,8.5,12.4c-1,5.9-6.5,9.5-12.4,8.5s-9.5-6.5-8.5-12.4
			S367.2,221.4,373.1,222.8z"/>
	</g>
	<g>
		<path fill="#F0D426" d="M367.6,234.4c-7.5-1.4-15,3.4-16.4,11.4c-1.4,7.5,3.5,15,11.4,16.4s15-3.4,16.4-11.4
			C380.2,243.3,375.1,235.8,367.6,234.4z M366.8,237.9c5.9,1,9.5,6.5,8.5,12.4c-1,5.9-6.5,9.5-12.4,8.5c-5.9-1-9.5-6.5-8.5-12.4
			C355.4,240.7,360.9,236.8,366.8,237.9z"/>
	</g>
	<g>
		<path fill="#F0D426" d="M361.3,249.6c-7.5-1.4-15,3.4-16.4,11.4c-1.4,7.5,3.4,15,11.4,16.4c7.5,1.4,15-3.4,16.4-11.4
			C374.1,258.6,369.2,251.1,361.3,249.6z M360.9,253.1c5.9,1,9.5,6.5,8.5,12.4c-1,5.9-6.5,9.5-12.4,8.5c-5.9-1-9.5-6.5-8.5-12.4
			C349.4,255.7,355.2,252.1,360.9,253.1z"/>
	</g>
	<g>
		<path fill="#F0D426" d="M355.4,264.7c-7.5-1.4-15,3.4-16.4,11.4c-1.4,7.5,3.4,15,11.4,16.4c7.5,1.4,15-3.4,16.4-11.4
			C367.8,273.6,363.2,266.5,355.4,264.7z M354.8,268.1c5.9,1,9.5,6.5,8.5,12.4c-1,5.9-6.5,9.5-12.4,8.5s-9.5-6.5-8.5-12.4
			C343.5,270.9,348.9,267.1,354.8,268.1z"/>
	</g>
	<g>
		<path fill="#F0D426" d="M349.4,279.9c-7.5-1.4-15,3.4-16.4,11.4c-1.4,7.5,3.5,15,11.4,16.4c7.5,1.4,15-3.5,16.4-11.4
			C361.9,288.8,356.9,281.5,349.4,279.9z M348.7,283.3c5.9,1,9.5,6.5,8.5,12.4c-1,5.9-6.5,9.5-12.4,8.5c-5.9-1-9.5-6.5-8.5-12.4
			C337.4,286,342.9,282.3,348.7,283.3z"/>
	</g>
	<g>
		<path fill="#F0D426" d="M343.1,295.3c-7.5-1.4-15,3.4-16.4,11.4s3.4,15,11.4,16.4c7.5,1.4,15-3.4,16.4-11.4
			C355.8,303.8,350.8,296.7,343.1,295.3z M342.5,298.3c5.9,1,9.5,6.5,8.5,12.4c-1,5.9-6.5,9.5-12.4,8.5c-5.9-1-9.5-6.5-8.5-12.4
			S336.6,297.3,342.5,298.3z"/>
	</g>
	<g>
		<path fill="#F0D426" d="M337,310.3c-7.5-1.4-15,3.4-16.4,11.4c-1.4,7.9,3.5,15,11.4,16.4s15-3.4,16.4-11.4S344.9,311.7,337,310.3z
			 M336.6,313.4c5.9,1,9.5,6.5,8.5,12.4c-1,5.9-6.5,9.5-12.4,8.5c-5.9-1-9.5-6.5-8.5-12.4C325,316.2,330.9,312.3,336.6,313.4z"/>
	</g>
	<g>
		<path fill="#F0D426" d="M331.1,325.5c-7.5-1.4-15,3.4-16.4,11.4c-1.4,7.5,3.5,15,11.4,16.4c7.5,1.4,15-3.5,16.4-11.4
			S338.6,326.8,331.1,325.5z M330.5,328.6c5.9,1,9.5,6.5,8.5,12.4c-1,5.9-6.5,9.5-12.4,8.5c-5.9-1-9.5-6.5-8.5-12.4
			C319.1,331.2,324.6,327.6,330.5,328.6z"/>
	</g>
	<g opacity="0.1">
		<circle cx="250.1" cy="429.8" r="102.7"/>
	</g>
	<g>
		<circle fill="#F0D426" cx="250.1" cy="418.5" r="102.7"/>
	</g>
	<g>
		<circle fill="#CCAF2D" cx="250.1" cy="418.5" r="87.3"/>
	</g>
	<g>
		<circle fill="#F1F1F2" cx="250.1" cy="415.6" r="72.4"/>
	</g>
	<g>
		<circle fill="#F0D426" cx="250.1" cy="418.5" r="78.9"/>
	</g>
	<g opacity="0.5">
		<rect x="194.1" y="362.3" fill="#CCAF2D" width="111.8" height="111.8"/>
	</g>
	<g opacity="0.5">
		
			<rect x="194" y="362.2" transform="matrix(0.7071 -0.7071 0.7071 0.7071 -222.463 299.1935)" fill="#CCAF2D" width="111.8" height="111.8"/>
	</g>
	<g opacity="0.5">
		
			<rect x="194.1" y="362.2" transform="matrix(0.385 -0.9229 0.9229 0.385 -232.1377 487.8403)" fill="#CCAF2D" width="111.8" height="111.8"/>
	</g>
	<g opacity="0.5">
		
			<rect x="193.9" y="362.4" transform="matrix(-0.385 -0.9229 0.9229 -0.385 -40.0639 809.8841)" fill="#CCAF2D" width="111.8" height="111.8"/>
	</g>
	<g opacity="0.5">
		<circle fill="#F0D426" cx="250.1" cy="418.5" r="57.6"/>
	</g>
	<g>
		<circle fill="#F0D426" cx="250.1" cy="418.5" r="38.8"/>
	</g>
</g>
</svg>
