<?xml version="1.0" encoding="utf-8"?>
<!-- Generator: Adobe Illustrator 16.0.0, SVG Export Plug-In . SVG Version: 6.00 Build 0)  -->
<!DOCTYPE svg PUBLIC "-//W3C//DTD SVG 1.1//EN" "http://www.w3.org/Graphics/SVG/1.1/DTD/svg11.dtd">
<svg version="1.1" id="content" xmlns="http://www.w3.org/2000/svg" xmlns:xlink="http://www.w3.org/1999/xlink" x="0px" y="0px"
	 width="500px" height="500px" viewBox="0 0 500 500" enable-background="new 0 0 500 500" xml:space="preserve">
<g id="bounds">
	<rect x="107.768" y="61.053" fill="none" stroke="#000000" stroke-width="1.0678" width="285.654" height="285.654"/>
</g>
<g id="accessory">
	<g>
		<polygon fill="#E6B012" points="303.588,177.893 358.716,215.762 360,215.762 360,177.893 		"/>
	</g>
	<g>
		<polygon fill="#CA225A" points="303.588,173 358.716,210.869 360,210.869 360,173 		"/>
	</g>
	<g opacity="0.2">
		<circle fill="#141414" cx="276.375" cy="260.083" r="9.835"/>
	</g>
	<g opacity="0.2">
		<circle fill="#141414" cx="164.875" cy="240.444" r="7.538"/>
	</g>
	<g>
		<rect x="275.428" y="234.286" fill="#EDD4C8" width="2" height="30.667"/>
	</g>
	<g>
		<g>
			<circle fill="#EDD4C8" cx="276.375" cy="256.751" r="9.835"/>
		</g>
		<g>
			<path fill="#D5C0B6" d="M276.375,246.914c-5.432,0-9.835,4.405-9.835,9.837s4.403,9.836,9.835,9.836V246.914z"/>
		</g>
	</g>
	<g opacity="0.2">
		<circle fill="#141414" cx="314.875" cy="222.88" r="7.161"/>
	</g>
	<g>
		<rect x="313.928" y="195.536" fill="#EDD4C8" width="2" height="30.667"/>
	</g>
	<g>
		<g>
			<circle fill="#EDD4C8" cx="314.875" cy="220.454" r="7.161"/>
		</g>
		<g>
			<path fill="#D5C0B6" d="M314.875,213.292c-3.955,0-7.161,3.207-7.161,7.162c0,3.955,3.206,7.162,7.161,7.162V213.292z"/>
		</g>
	</g>
	<g>
		<rect x="164" y="210.167" fill="#EDD4C8" width="2" height="30.667"/>
	</g>
	<g opacity="0.2">
		<path fill="#141414" d="M352.184,173.478H140.919v21.178l71.966,93.315c2.779,3.604,6.938,5.67,11.411,5.67
			c3.787,0,7.387-1.488,10.137-4.191l110.704-108.825C346.433,179.35,351.49,174.947,352.184,173.478z"/>
	</g>
	<g>
		<path fill="#CA225A" d="M336.167,173c2.75,0,3.396,1.577,1.435,3.505L226.9,285.329c-1.961,1.928-4.94,1.724-6.62-0.454
			l-83.226-107.916C135.374,174.782,136.25,173,139,173H336.167z"/>
	</g>
	<g>
		<path fill="#BE1F55" d="M195.667,222.059C244.822,219.24,312.745,173,312.745,173l6.91,3.759l-95.785,88.847L195.667,222.059z"/>
	</g>
	<g>
		<g>
			<g>
				<polygon fill="#E64C79" points="157.302,203.215 165.004,184.603 144.987,187.245 				"/>
			</g>
			<g>
				<polygon fill="#E64C79" points="173.296,223.953 181.004,205.325 160.969,207.97 				"/>
			</g>
			<g>
				<polygon fill="#E64C79" points="189.289,244.691 197.004,226.047 176.953,228.695 				"/>
			</g>
			<g>
				<polygon fill="#E64C79" points="205.283,265.429 213.004,246.77 192.936,249.419 				"/>
			</g>
		</g>
	</g>
	<g>
		<g>
			<polygon fill="#E64C79" points="312.745,178.3 317.681,196.089 330.979,183.016 			"/>
		</g>
		<g>
			<polygon fill="#E64C79" points="294.495,196.3 299.417,214.042 312.681,201.004 			"/>
		</g>
		<g>
			<polygon fill="#E64C79" points="276.245,214.3 281.155,231.995 294.382,218.991 			"/>
		</g>
		<g>
			<polygon fill="#E64C79" points="257.995,232.3 262.892,249.948 276.084,236.979 			"/>
		</g>
		<g>
			<polygon fill="#E64C79" points="239.745,250.3 244.628,267.901 257.786,254.967 			"/>
		</g>
	</g>
	<g>
		<polygon fill="#993366" points="323.485,173 316.347,173 225.143,262.524 156.11,173 149.797,173 224.625,270.04 		"/>
	</g>
	<g>
		<circle fill="#E6B012" cx="164.667" cy="201.333" r="2"/>
	</g>
	<g>
		<circle fill="#E6B012" cx="197.167" cy="242.167" r="2"/>
	</g>
	<g>
		<circle fill="#E6B012" cx="255.333" cy="247.167" r="2"/>
	</g>
	<g>
		<circle fill="#E6B012" cx="273.333" cy="229.833" r="2"/>
	</g>
	<g>
		<circle fill="#E6B012" cx="291.333" cy="211.5" r="2"/>
	</g>
	<g>
		<circle fill="#E6B012" cx="310" cy="193.667" r="2"/>
	</g>
	<g>
		<circle fill="#E6B012" cx="180.667" cy="221.667" r="2"/>
	</g>
	<g>
		<path fill="#E6B012" d="M238.554,272.189c1.092,1.247,0.967,3.141-0.278,4.233l-12.535,10.985
			c-1.246,1.092-3.141,0.967-4.233-0.279l-10.985-12.534c-1.092-1.247-0.968-3.141,0.279-4.233l12.535-10.984
			c1.246-1.093,3.14-0.968,4.232,0.278L238.554,272.189z"/>
	</g>
	<g>
		<path fill="#CA225A" d="M232.326,272.723c0.607,0.693,0.538,1.745-0.154,2.352l-6.964,6.104c-0.692,0.606-1.746,0.537-2.352-0.155
			l-6.104-6.962c-0.607-0.693-0.538-1.745,0.155-2.353l6.964-6.103c0.692-0.607,1.745-0.537,2.352,0.154L232.326,272.723z"/>
	</g>
	<g>
		<g>
			<circle fill="#EDD4C8" cx="164.875" cy="237.89" r="7.538"/>
		</g>
		<g>
			<path fill="#D5C0B6" d="M164.875,230.352c-4.163,0-7.538,3.375-7.538,7.539c0,4.163,3.375,7.538,7.538,7.538V230.352z"/>
		</g>
	</g>
	<g>
		<polygon fill="#E6B012" points="316.347,173 312.065,173 225.454,258.016 159.899,173 156.11,173 225.143,262.524 		"/>
	</g>
	<g>
		<path fill="#E6B012" d="M230.297,185.215c-0.554,0-1.066,0.092-1.503,0.245c0.153-0.437,0.245-0.95,0.245-1.503
			c0-1.57-0.709-2.842-1.583-2.842s-1.583,1.272-1.583,2.842c0,0.554,0.092,1.066,0.245,1.503c-0.437-0.153-0.95-0.245-1.503-0.245
			c-1.57,0-2.842,0.709-2.842,1.583s1.272,1.583,2.842,1.583s2.842-0.709,2.842-1.583c0,0.875,1.272,1.583,2.842,1.583
			s2.842-0.709,2.842-1.583S231.866,185.215,230.297,185.215z"/>
	</g>
	<g>
		<path fill="#E6B012" d="M186.377,185.215c-0.554,0-1.066,0.092-1.503,0.245c0.153-0.437,0.245-0.95,0.245-1.503
			c0-1.57-0.709-2.842-1.583-2.842s-1.583,1.272-1.583,2.842c0,0.554,0.092,1.066,0.245,1.503c-0.437-0.153-0.95-0.245-1.503-0.245
			c-1.57,0-2.842,0.709-2.842,1.583s1.272,1.583,2.842,1.583s2.842-0.709,2.842-1.583c0,0.875,1.272,1.583,2.842,1.583
			s2.842-0.709,2.842-1.583S187.947,185.215,186.377,185.215z"/>
	</g>
	<g>
		<path fill="#E6B012" d="M277.604,185.215c-0.555,0-1.066,0.092-1.504,0.245c0.152-0.437,0.244-0.95,0.244-1.503
			c0-1.57-0.709-2.842-1.583-2.842s-1.583,1.272-1.583,2.842c0,0.554,0.092,1.066,0.244,1.503c-0.438-0.153-0.949-0.245-1.504-0.245
			c-1.569,0-2.842,0.709-2.842,1.583s1.272,1.583,2.842,1.583c1.57,0,2.843-0.709,2.843-1.583c0,0.875,1.272,1.583,2.843,1.583
			c1.569,0,2.842-0.709,2.842-1.583S279.173,185.215,277.604,185.215z"/>
	</g>
	<g>
		<path fill="#E6B012" d="M250.272,205.634c-0.553,0-1.066,0.092-1.503,0.245c0.153-0.437,0.245-0.95,0.245-1.503
			c0-1.57-0.709-2.842-1.584-2.842s-1.583,1.272-1.583,2.842c0,0.554,0.092,1.066,0.245,1.503c-0.437-0.153-0.95-0.245-1.503-0.245
			c-1.57,0-2.842,0.709-2.842,1.583s1.272,1.583,2.842,1.583s2.842-0.709,2.842-1.583c0,0.875,1.272,1.583,2.842,1.583
			c1.57,0,2.843-0.709,2.843-1.583S251.842,205.634,250.272,205.634z"/>
	</g>
	<g>
		<path fill="#E6B012" d="M204.636,205.634c0.554,0,1.066,0.092,1.503,0.245c-0.153-0.437-0.245-0.95-0.245-1.503
			c0-1.57,0.709-2.842,1.583-2.842s1.583,1.272,1.583,2.842c0,0.554-0.092,1.066-0.245,1.503c0.437-0.153,0.95-0.245,1.503-0.245
			c1.57,0,2.842,0.709,2.842,1.583s-1.272,1.583-2.842,1.583s-2.842-0.709-2.842-1.583c0,0.875-1.272,1.583-2.842,1.583
			s-2.842-0.709-2.842-1.583S203.067,205.634,204.636,205.634z"/>
	</g>
	<g>
		<path fill="#E6B012" d="M230.297,230.357c-0.554,0-1.066,0.092-1.503,0.245c0.153-0.437,0.245-0.95,0.245-1.503
			c0-1.57-0.709-2.842-1.583-2.842s-1.583,1.272-1.583,2.842c0,0.554,0.092,1.066,0.245,1.503c-0.437-0.153-0.95-0.245-1.503-0.245
			c-1.57,0-2.842,0.709-2.842,1.583s1.272,1.583,2.842,1.583s2.842-0.709,2.842-1.583c0,0.875,1.272,1.583,2.842,1.583
			s2.842-0.709,2.842-1.583S231.866,230.357,230.297,230.357z"/>
	</g>
</g>
<path id="position" display="none" d="M499,1v498H1V1H499 M500,0H0v500h500V0L500,0z"/>
</svg>
