<?xml version="1.0" encoding="utf-8"?>
<!-- Generator: Adobe Illustrator 16.0.0, SVG Export Plug-In . SVG Version: 6.00 Build 0)  -->
<!DOCTYPE svg PUBLIC "-//W3C//DTD SVG 1.1//EN" "http://www.w3.org/Graphics/SVG/1.1/DTD/svg11.dtd">
<svg version="1.1" id="content" xmlns="http://www.w3.org/2000/svg" xmlns:xlink="http://www.w3.org/1999/xlink" x="0px" y="0px"
	 width="500px" height="500px" viewBox="0 0 500 500" enable-background="new 0 0 500 500" xml:space="preserve">
<g id="accessory">
	<g>
		<g>
			<rect x="328.691" y="287.232" fill="#EDD4C8" width="4.207" height="64.529"/>
		</g>
		<g>
			<g>
				<circle fill="#EDD4C8" cx="330.683" cy="334.503" r="20.694"/>
			</g>
			<g>
				<path fill="#D5C0B6" d="M330.683,313.805c-11.429,0-20.694,9.27-20.694,20.698c0,11.43,9.266,20.696,20.694,20.696V313.805z"/>
			</g>
		</g>
		<g>
			<rect x="409.699" y="205.696" fill="#EDD4C8" width="4.209" height="64.529"/>
		</g>
		<g>
			<g>
				<circle fill="#EDD4C8" cx="411.694" cy="258.127" r="15.068"/>
			</g>
			<g>
				<path fill="#D5C0B6" d="M411.693,243.06c-8.322,0-15.067,6.747-15.067,15.067c0,8.322,6.745,15.071,15.067,15.071V243.06z"/>
			</g>
		</g>
		<g>
			<rect x="94.228" y="236.482" fill="#EDD4C8" width="4.208" height="64.528"/>
		</g>
		<g>
			<path fill="#CA225A" d="M456.495,158.278c5.786,0,7.145,3.318,3.018,7.376L226.579,394.637
				c-4.127,4.056-10.395,3.627-13.929-0.956L37.529,166.609c-3.535-4.583-1.691-8.332,4.095-8.332H456.495z"/>
		</g>
		<g>
			<path fill="#BE1F55" d="M160.86,261.504c103.43-5.929,246.352-103.226,246.352-103.226l14.541,7.909L220.204,353.135
				L160.86,261.504z"/>
		</g>
		<g>
			<g>
				<g>
					<polygon fill="#E64C79" points="80.135,221.854 96.341,182.691 54.22,188.252 					"/>
				</g>
				<g>
					<polygon fill="#E64C79" points="113.787,265.49 130.006,226.294 87.851,231.86 					"/>
				</g>
				<g>
					<polygon fill="#E64C79" points="147.441,309.127 163.674,269.898 121.483,275.468 					"/>
				</g>
				<g>
					<polygon fill="#E64C79" points="181.094,352.763 197.34,313.501 155.114,319.076 					"/>
				</g>
			</g>
		</g>
		<g>
			<g>
				<polygon fill="#E64C79" points="407.211,169.429 417.596,206.86 445.577,179.353 				"/>
			</g>
			<g>
				<polygon fill="#E64C79" points="368.811,207.305 379.167,244.637 407.075,217.203 				"/>
			</g>
			<g>
				<polygon fill="#E64C79" points="330.409,245.18 340.74,282.414 368.573,255.051 				"/>
			</g>
			<g>
				<polygon fill="#E64C79" points="292.009,283.055 302.311,320.189 330.071,292.9 				"/>
			</g>
			<g>
				<polygon fill="#E64C79" points="253.607,320.93 263.882,357.966 291.569,330.749 				"/>
			</g>
		</g>
		<g>
			<polygon fill="#993366" points="429.809,158.278 414.79,158.278 222.883,346.652 77.626,158.278 64.342,158.278 221.792,362.466 
							"/>
		</g>
		<g>
			<circle fill="#E6B012" cx="95.631" cy="217.896" r="4.208"/>
		</g>
		<g>
			<circle fill="#E6B012" cx="164.016" cy="303.814" r="4.208"/>
		</g>
		<g>
			<circle fill="#E6B012" cx="286.407" cy="314.337" r="4.208"/>
		</g>
		<g>
			<circle fill="#E6B012" cx="324.282" cy="277.863" r="4.208"/>
		</g>
		<g>
			<circle fill="#E6B012" cx="362.157" cy="239.286" r="4.208"/>
		</g>
		<g>
			<circle fill="#E6B012" cx="401.436" cy="201.764" r="4.208"/>
		</g>
		<g>
			<circle fill="#E6B012" cx="129.297" cy="260.681" r="4.208"/>
		</g>
		<g>
			<path fill="#E6B012" d="M251.102,366.989c2.296,2.624,2.034,6.607-0.585,8.907l-26.376,23.114
				c-2.621,2.298-6.609,2.034-8.907-0.587l-23.115-26.375c-2.298-2.624-2.036-6.607,0.586-8.907l26.375-23.113
				c2.621-2.299,6.607-2.035,8.905,0.586L251.102,366.989z"/>
		</g>
		<g>
			<path fill="#CA225A" d="M237.996,368.111c1.278,1.458,1.131,3.672-0.323,4.947l-14.654,12.843
				c-1.457,1.275-3.673,1.13-4.949-0.326l-12.845-14.649c-1.277-1.46-1.132-3.673,0.326-4.95l14.654-12.841
				c1.456-1.278,3.671-1.13,4.949,0.325L237.996,368.111z"/>
		</g>
		<g>
			<g>
				<circle fill="#EDD4C8" cx="96.069" cy="294.816" r="15.86"/>
			</g>
			<g>
				<path fill="#D5C0B6" d="M96.07,278.955c-8.759,0-15.86,7.103-15.86,15.861c0,8.76,7.102,15.86,15.86,15.86V278.955z"/>
			</g>
		</g>
		<g>
			<polygon fill="#E6B012" points="414.79,158.278 405.78,158.278 223.538,337.164 85.598,158.278 77.626,158.278 222.883,346.652 
							"/>
		</g>
		<g>
			<path fill="#E6B012" d="M233.727,183.981c-1.165,0-2.244,0.193-3.164,0.515c0.322-0.92,0.515-1.999,0.515-3.164
				c0-3.303-1.492-5.98-3.332-5.98c-1.841,0-3.333,2.678-3.333,5.98c0,1.165,0.193,2.244,0.515,3.164
				c-0.919-0.322-1.999-0.515-3.164-0.515c-3.303,0-5.98,1.492-5.98,3.332c0,1.841,2.677,3.333,5.98,3.333s5.981-1.492,5.981-3.333
				c0,1.841,2.677,3.333,5.98,3.333s5.981-1.492,5.981-3.333C239.708,185.473,237.03,183.981,233.727,183.981z"/>
		</g>
		<g>
			<path fill="#E6B012" d="M141.312,183.981c-1.166,0-2.244,0.193-3.164,0.515c0.322-0.92,0.515-1.999,0.515-3.164
				c0-3.303-1.492-5.98-3.332-5.98s-3.332,2.678-3.332,5.98c0,1.165,0.193,2.244,0.515,3.164c-0.919-0.322-1.999-0.515-3.164-0.515
				c-3.303,0-5.98,1.492-5.98,3.332c0,1.841,2.677,3.333,5.98,3.333c3.303,0,5.98-1.492,5.98-3.333c0,1.841,2.678,3.333,5.981,3.333
				c3.303,0,5.98-1.492,5.98-3.333C147.293,185.473,144.615,183.981,141.312,183.981z"/>
		</g>
		<g>
			<path fill="#E6B012" d="M333.268,183.981c-1.167,0-2.244,0.193-3.164,0.515c0.32-0.92,0.513-1.999,0.513-3.164
				c0-3.303-1.491-5.98-3.33-5.98s-3.331,2.678-3.331,5.98c0,1.165,0.192,2.244,0.514,3.164c-0.921-0.322-1.997-0.515-3.165-0.515
				c-3.302,0-5.979,1.492-5.979,3.332c0,1.841,2.678,3.333,5.979,3.333c3.305,0,5.982-1.492,5.982-3.333
				c0,1.841,2.677,3.333,5.981,3.333c3.302,0,5.979-1.492,5.979-3.333C339.247,185.473,336.57,183.981,333.268,183.981z"/>
		</g>
		<g>
			<path fill="#E6B012" d="M275.757,226.945c-1.163,0-2.244,0.193-3.162,0.514c0.321-0.919,0.515-1.998,0.515-3.163
				c0-3.303-1.492-5.98-3.332-5.98s-3.332,2.678-3.332,5.98c0,1.165,0.192,2.244,0.515,3.163c-0.92-0.32-1.998-0.514-3.163-0.514
				c-3.304,0-5.981,1.49-5.981,3.331c0,1.84,2.678,3.332,5.981,3.332c3.303,0,5.98-1.492,5.98-3.332c0,1.84,2.677,3.332,5.979,3.332
				c3.304,0,5.981-1.492,5.981-3.332C281.739,228.436,279.061,226.945,275.757,226.945z"/>
		</g>
		<g>
			<path fill="#E6B012" d="M179.733,226.945c1.166,0,2.244,0.193,3.164,0.514c-0.322-0.919-0.515-1.998-0.515-3.163
				c0-3.303,1.492-5.98,3.332-5.98s3.332,2.678,3.332,5.98c0,1.165-0.193,2.244-0.515,3.163c0.919-0.32,1.998-0.514,3.163-0.514
				c3.303,0,5.98,1.49,5.98,3.331c0,1.84-2.677,3.332-5.98,3.332s-5.98-1.492-5.98-3.332c0,1.84-2.678,3.332-5.981,3.332
				s-5.98-1.492-5.98-3.332C173.753,228.436,176.43,226.945,179.733,226.945z"/>
		</g>
		<g>
			<path fill="#E6B012" d="M233.727,278.967c-1.165,0-2.244,0.193-3.164,0.516c0.322-0.92,0.515-1.999,0.515-3.164
				c0-3.304-1.492-5.98-3.332-5.98c-1.841,0-3.333,2.677-3.333,5.98c0,1.165,0.193,2.244,0.515,3.164
				c-0.919-0.322-1.999-0.516-3.164-0.516c-3.303,0-5.98,1.492-5.98,3.332s2.677,3.333,5.98,3.333s5.981-1.493,5.981-3.333
				c0,1.84,2.677,3.333,5.98,3.333s5.981-1.493,5.981-3.333S237.03,278.967,233.727,278.967z"/>
		</g>
	</g>
</g>
<g id="bounds_2_">
	<rect x="-0.933" y="-0.323" fill="none" stroke="#EAEAEA" stroke-miterlimit="10" width="499.5" height="499.5"/>
</g>
</svg>
