<?xml version="1.0" encoding="utf-8"?>
<!-- Generator: Adobe Illustrator 18.0.0, SVG Export Plug-In . SVG Version: 6.00 Build 0)  -->
<!DOCTYPE svg PUBLIC "-//W3C//DTD SVG 1.1//EN" "http://www.w3.org/Graphics/SVG/1.1/DTD/svg11.dtd">
<svg version="1.1" id="content" xmlns="http://www.w3.org/2000/svg" xmlns:xlink="http://www.w3.org/1999/xlink" x="0px" y="0px"
	 width="500px" height="500px" viewBox="0 0 500 500" enable-background="new 0 0 500 500" xml:space="preserve">
<g id="bounds" display="none">
	<rect x="95.4" y="48.9" display="inline" fill="none" stroke="#000000" stroke-width="0.8446" width="309.1" height="336.3"/>
</g>
<path id="position" display="none" d="M499,1v498H1V1H499 M500,0H0v500h500V0L500,0z"/>
<g>
	<circle fill="#D81B60" cx="150" cy="171" r="11.1"/>
	<path fill="#F28CB4" d="M171,173.4c1.6-5.3-1.3-11-6.7-12.6c-0.6-0.2-1.1-0.3-1.7-0.4c0.8-4.9-2.2-9.7-7-11.2s-10,0.8-12.1,5.3
		c-0.5-0.3-1.1-0.5-1.6-0.7c-5.3-1.6-11,1.3-12.6,6.7c-1.2,3.8,0,7.7,2.7,10.3c-1.2,1.1-2.1,2.6-2.6,4.2c-1.6,5.3,1.3,11,6.7,12.6
		c2.8,0.9,5.6,0.5,7.9-0.9c1.2,2.4,3.3,4.3,6.1,5.2c5.3,1.6,11-1.3,12.6-6.7c0.5-1.6,0.6-3.3,0.3-4.9
		C166.6,179.8,169.8,177.2,171,173.4z M146.3,179.3c-4.8-1.5-7.4-6.5-6-11.3c1.5-4.8,6.5-7.4,11.3-6c4.8,1.5,7.4,6.5,6,11.3
		C156.2,178.1,151.1,180.8,146.3,179.3z"/>
	<circle fill="#D81B60" cx="157.3" cy="207" r="11.1"/>
	<path fill="#B39DDB" d="M178.3,209.4c1.6-5.3-1.3-11-6.7-12.6c-0.6-0.2-1.1-0.3-1.7-0.4c0.8-4.9-2.2-9.7-7-11.2s-10,0.8-12.1,5.3
		c-0.5-0.3-1.1-0.5-1.6-0.7c-5.3-1.6-11,1.3-12.6,6.7c-1.2,3.8,0,7.7,2.7,10.3c-1.2,1.1-2.1,2.6-2.6,4.2c-1.6,5.3,1.3,11,6.7,12.6
		c2.8,0.9,5.6,0.5,7.9-0.9c1.2,2.4,3.3,4.3,6.1,5.2c5.3,1.6,11-1.3,12.6-6.7c0.5-1.6,0.6-3.3,0.3-4.9
		C173.9,215.8,177.2,213.2,178.3,209.4z M153.7,215.3c-4.8-1.5-7.4-6.5-6-11.3c1.5-4.8,6.5-7.4,11.3-6c4.8,1.5,7.4,6.5,6,11.3
		C163.5,214.1,158.4,216.8,153.7,215.3z"/>
	<circle fill="#D81B60" cx="180.7" cy="234" r="11.1"/>
	<path fill="#F8981D" d="M201.7,236.4c1.6-5.3-1.3-11-6.7-12.6c-0.6-0.2-1.1-0.3-1.7-0.4c0.8-4.9-2.2-9.7-7-11.2s-10,0.8-12.1,5.3
		c-0.5-0.3-1.1-0.5-1.6-0.7c-5.3-1.6-11,1.3-12.6,6.7c-1.2,3.8,0,7.7,2.7,10.3c-1.2,1.1-2.1,2.6-2.6,4.2c-1.6,5.3,1.3,11,6.7,12.6
		c2.8,0.9,5.6,0.5,7.9-0.9c1.2,2.4,3.3,4.3,6.1,5.2c5.3,1.6,11-1.3,12.6-6.7c0.5-1.6,0.6-3.3,0.3-4.9
		C197.3,242.8,200.5,240.2,201.7,236.4z M177,242.3c-4.8-1.5-7.4-6.5-6-11.3c1.5-4.8,6.5-7.4,11.3-6c4.8,1.5,7.4,6.5,6,11.3
		C186.8,241.1,181.8,243.8,177,242.3z"/>
	<circle fill="#D81B60" cx="212" cy="254" r="11.1"/>
	<path fill="#F28CB4" d="M233,256.4c1.6-5.3-1.3-11-6.7-12.6c-0.6-0.2-1.1-0.3-1.7-0.4c0.8-4.9-2.2-9.7-7-11.2s-10,0.8-12.1,5.3
		c-0.5-0.3-1.1-0.5-1.6-0.7c-5.3-1.6-11,1.3-12.6,6.7c-1.2,3.8,0,7.7,2.7,10.3c-1.2,1.1-2.1,2.6-2.6,4.2c-1.6,5.3,1.3,11,6.7,12.6
		c2.8,0.9,5.6,0.5,7.9-0.9c1.2,2.4,3.3,4.3,6.1,5.2c5.3,1.6,11-1.3,12.6-6.7c0.5-1.6,0.6-3.3,0.3-4.9
		C228.6,262.8,231.8,260.2,233,256.4z M208.3,262.3c-4.8-1.5-7.4-6.5-6-11.3c1.5-4.8,6.5-7.4,11.3-6c4.8,1.5,7.4,6.5,6,11.3
		C218.2,261.1,213.1,263.8,208.3,262.3z"/>
	<circle fill="#D81B60" cx="249" cy="263.3" r="11.1"/>
	<path fill="#F8981D" d="M270,265.8c1.6-5.3-1.3-11-6.7-12.6c-0.6-0.2-1.1-0.3-1.7-0.4c0.8-4.9-2.2-9.7-7-11.2
		c-4.8-1.5-10,0.8-12.1,5.3c-0.5-0.3-1.1-0.5-1.6-0.7c-5.3-1.6-11,1.3-12.6,6.7c-1.2,3.8,0,7.7,2.7,10.3c-1.2,1.1-2.1,2.6-2.6,4.2
		c-1.6,5.3,1.3,11,6.7,12.6c2.8,0.9,5.6,0.5,7.9-0.9c1.2,2.4,3.3,4.3,6.1,5.2c5.3,1.6,11-1.3,12.6-6.7c0.5-1.6,0.6-3.3,0.3-4.9
		C265.6,272.2,268.8,269.6,270,265.8z M245.3,271.6c-4.8-1.5-7.4-6.5-6-11.3c1.5-4.8,6.5-7.4,11.3-6c4.8,1.5,7.4,6.5,6,11.3
		C255.2,270.4,250.1,273.1,245.3,271.6z"/>
	<circle fill="#D81B60" cx="344.9" cy="171" r="11.1"/>
	<path fill="#F28CB4" d="M332,180.4c-0.3,1.6-0.2,3.3,0.3,4.9c1.6,5.3,7.3,8.3,12.6,6.7c2.8-0.9,4.9-2.8,6.1-5.2
		c2.3,1.3,5.2,1.7,7.9,0.9c5.3-1.6,8.3-7.3,6.7-12.6c-0.5-1.7-1.4-3.1-2.6-4.2c2.7-2.6,3.8-6.5,2.7-10.3c-1.6-5.3-7.3-8.3-12.6-6.7
		c-0.6,0.2-1.1,0.4-1.6,0.7c-2.1-4.4-7.2-6.8-12.1-5.3c-4.8,1.5-7.7,6.3-7,11.2c-0.6,0.1-1.2,0.2-1.7,0.4c-5.3,1.6-8.3,7.3-6.7,12.6
		C325.1,177.2,328.3,179.8,332,180.4z M337.3,173.3c-1.5-4.8,1.2-9.8,6-11.3s9.8,1.2,11.3,6s-1.2,9.8-6,11.3
		S338.8,178.1,337.3,173.3z"/>
	<circle fill="#D81B60" cx="337.6" cy="207" r="11.1"/>
	<path fill="#F8981D" d="M324.7,216.4c-0.3,1.6-0.2,3.3,0.3,4.9c1.6,5.3,7.3,8.3,12.6,6.7c2.8-0.9,4.9-2.8,6.1-5.2
		c2.3,1.3,5.2,1.7,7.9,0.9c5.3-1.6,8.3-7.3,6.7-12.6c-0.5-1.7-1.4-3.1-2.6-4.2c2.7-2.6,3.8-6.5,2.7-10.3c-1.6-5.3-7.3-8.3-12.6-6.7
		c-0.6,0.2-1.1,0.4-1.6,0.7c-2.1-4.4-7.2-6.8-12.1-5.3c-4.8,1.5-7.7,6.3-7,11.2c-0.6,0.1-1.2,0.2-1.7,0.4c-5.3,1.6-8.3,7.3-6.7,12.6
		C317.8,213.2,321,215.8,324.7,216.4z M330,209.3c-1.5-4.8,1.2-9.8,6-11.3s9.8,1.2,11.3,6s-1.2,9.8-6,11.3S331.5,214.1,330,209.3z"
		/>
	<circle fill="#D81B60" cx="314.3" cy="234" r="11.1"/>
	<path fill="#F28CB4" d="M301.3,243.4c-0.3,1.6-0.2,3.3,0.3,4.9c1.6,5.3,7.3,8.3,12.6,6.7c2.8-0.9,4.9-2.8,6.1-5.2
		c2.3,1.3,5.2,1.7,7.9,0.9c5.3-1.6,8.3-7.3,6.7-12.6c-0.5-1.7-1.4-3.1-2.6-4.2c2.7-2.6,3.8-6.5,2.7-10.3c-1.6-5.3-7.3-8.3-12.6-6.7
		c-0.6,0.2-1.1,0.4-1.6,0.7c-2.1-4.4-7.2-6.8-12.1-5.3c-4.8,1.5-7.7,6.3-7,11.2c-0.6,0.1-1.2,0.2-1.7,0.4c-5.3,1.6-8.3,7.3-6.7,12.6
		C294.5,240.2,297.7,242.8,301.3,243.4z M306.6,236.3c-1.5-4.8,1.2-9.8,6-11.3s9.8,1.2,11.3,6s-1.2,9.8-6,11.3
		C313.2,243.8,308.1,241.1,306.6,236.3z"/>
	<circle fill="#D81B60" cx="282.9" cy="254" r="11.1"/>
	<path fill="#B39DDB" d="M270,263.4c-0.3,1.6-0.2,3.3,0.3,4.9c1.6,5.3,7.3,8.3,12.6,6.7c2.8-0.9,4.9-2.8,6.1-5.2
		c2.3,1.3,5.2,1.7,7.9,0.9c5.3-1.6,8.3-7.3,6.7-12.6c-0.5-1.7-1.4-3.1-2.6-4.2c2.7-2.6,3.8-6.5,2.7-10.3c-1.6-5.3-7.3-8.3-12.6-6.7
		c-0.6,0.2-1.1,0.4-1.6,0.7c-2.1-4.4-7.2-6.8-12.1-5.3c-4.8,1.5-7.7,6.3-7,11.2c-0.6,0.1-1.2,0.2-1.7,0.4c-5.3,1.6-8.3,7.3-6.7,12.6
		C263.1,260.2,266.3,262.8,270,263.4z M275.3,256.3c-1.5-4.8,1.2-9.8,6-11.3s9.8,1.2,11.3,6s-1.2,9.8-6,11.3
		S276.8,261.1,275.3,256.3z"/>
</g>
</svg>
