<?xml version="1.0" encoding="utf-8"?>
<!-- Generator: Adobe Illustrator 16.0.0, SVG Export Plug-In . SVG Version: 6.00 Build 0)  -->
<!DOCTYPE svg PUBLIC "-//W3C//DTD SVG 1.1//EN" "http://www.w3.org/Graphics/SVG/1.1/DTD/svg11.dtd">
<svg version="1.1" id="content" xmlns="http://www.w3.org/2000/svg" xmlns:xlink="http://www.w3.org/1999/xlink" x="0px" y="0px"
	 width="500px" height="500px" viewBox="0 0 500 500" enable-background="new 0 0 500 500" xml:space="preserve">
<g id="bounds" display="none">
	<rect x="158.8" y="138.1" display="inline" fill="none" stroke="#000000" stroke-width="0.4584" width="177.4" height="187.2"/>
</g>
<rect id="position" display="none" fill="none" stroke="#000000" width="500" height="500"/>
<g>
	<g opacity="0.1">
		<g>
			<path d="M326.4,181.1h-50.2c0,12.5-14.601,22.7-26.2,22.7s-26.1-9.4-26.1-21.9l-50.3-0.8c0,43.1,34.3,78.1,76.399,78.1
				c4.7,0,9.4-0.5,13.9-1.3C278.3,275.5,300.2,286.8,324.8,286.8l-5.6-5.6l5.6-5.601l-5.6-5.6l5.6-5.6l-5.6-5.601l5.6-5.6l-5.6-5.6
				l5.6-5.6l-5.6-5.6l5.6-5.6l0,0c-4.7,0-9.1-1.5-12.7-4C321.1,213.7,326.4,198.1,326.4,181.1z"/>
		</g>
	</g>
	<path fill="#F07BAF" d="M324.7,270.2L319.1,264.6l5.601-5.6l-5.601-5.6l5.601-5.601l-5.601-5.6l5.601-5.6L319.1,231l5.601-5.6l0,0
		c-12.3,0-22.3-10-22.3-22.3h-56.3c0,43.3,35.199,78.6,78.6,78.6L319.1,276.1L324.7,270.2z"/>
	<path opacity="0.1" enable-background="new    " d="M302.5,202.9h-56.3c0,20.1,7.6,38.4,20,52.3c19.7-4.3,36.6-16.5,47.399-33.1
		C307,218.3,302.5,211.1,302.5,202.9z"/>
	<g>
		<path fill="#F07BAF" d="M250,254.1c-43.3,0-78.6-35.2-78.6-78.6h56.3c0,12.3,10,22.3,22.3,22.3s22.3-10,22.3-22.3h56.3
			C328.6,218.8,293.3,254.1,250,254.1z"/>
	</g>
	<path opacity="0.1" enable-background="new    " d="M305,198.3c0,0.6-16.9,26.3-43.9,33.4C297.2,227.4,305,198.3,305,198.3z"/>
	<path opacity="0.1" enable-background="new    " d="M213.3,190c0,0.4,8.101,19.3,28.2,21.4C213.3,215,213.3,190,213.3,190z"/>
	<path opacity="0.1" enable-background="new    " d="M211.7,227.2c-11.5-8.8-24.2-27.1-24.2-51.7h8.2
		C195.601,187.6,199.3,211.4,211.7,227.2z"/>
</g>
</svg>
