<?xml version="1.0" encoding="utf-8"?>
<!-- Generator: Adobe Illustrator 18.0.0, SVG Export Plug-In . SVG Version: 6.00 Build 0)  -->
<!DOCTYPE svg PUBLIC "-//W3C//DTD SVG 1.1 Basic//EN" "http://www.w3.org/Graphics/SVG/1.1/DTD/svg11-basic.dtd">
<svg version="1.1" baseProfile="basic" id="Layer_1"
	 xmlns="http://www.w3.org/2000/svg" xmlns:xlink="http://www.w3.org/1999/xlink" x="0px" y="0px" viewBox="0 0 96 96"
	 xml:space="preserve">
<g id="bounds" display="none">
	<rect x="19" y="20.3" display="inline" fill="#FFFFFF" stroke="#000000" width="58.7" height="58.7"/>
</g>
<g id="Layer_1_1_">
	<rect display="none" fill="#FFFFFF" stroke="#000000" width="96" height="96"/>
</g>
<path fill="#B0B0B0" d="M60.7,40.8L60.7,40.8L60.7,40.8c-2.7-3.9-7.2-6.5-12.4-6.5c-8.3,0-15,6.7-15,15s6.7,15,15,15
	c8.3,0,15-6.7,15-15C63.3,46.1,62.3,43.2,60.7,40.8z M48.3,38.7c2.4,0,4.5,0.8,6.3,2.1L39.8,55.6c-1.3-1.8-2.1-3.9-2.1-6.3
	C37.7,43.4,42.5,38.7,48.3,38.7z M48.3,59.9c-1.9,0-3.8-0.5-5.3-1.4l14.5-14.5c0.9,1.6,1.4,3.4,1.4,5.3
	C58.9,55.1,54.2,59.9,48.3,59.9z"/>
</svg>
