<?xml version="1.0" encoding="utf-8"?>
<!-- Generator: Adobe Illustrator 14.0.0, SVG Export Plug-In . SVG Version: 6.00 Build 43363)  -->
<!DOCTYPE svg PUBLIC "-//W3C//DTD SVG 1.1//EN" "http://www.w3.org/Graphics/SVG/1.1/DTD/svg11.dtd">
<svg version="1.1" id="content" xmlns="http://www.w3.org/2000/svg" xmlns:xlink="http://www.w3.org/1999/xlink" x="0px" y="0px"
	 width="500px" height="500px" viewBox="0 0 500 500" enable-background="new 0 0 500 500" xml:space="preserve">
<path fill="#496F94" d="M356.91,367.906L344.723,166.39l-10.997-32.1l-161.938,1.188l-8.369,10.105l-22.886,214.296l0.133,1.115
	c-0.593,7.605,12.75,17.152,38.789,19.176c26.033,2.021,47.619-2.524,48.208-10.142l22.813-159.883h0.045l22.812,159.883
	c0.593,7.609,22.185,12.156,48.216,10.142c26.034-2.021,45.899-9.669,45.307-17.274L356.91,367.906z"/>
<g id="bounds" display="none">
	<rect x="0" y="0" display="inline" fill="none" stroke="#000000" stroke-miterlimit="10" width="500" height="500"/>
</g>
<path fill="#E2D31B" d="M140.601,295.75l-6.935,66.503c-0.117,1.396,0.277,2.816,1.082,4.223c2.299,2.89,7.352,5.662,14.254,7.979
	l22.107-226.982l0.676-10.263l-14.029-0.422L140.601,295.75z"/>
<path fill="#96462D" d="M183.493,155.344l1.496-18.708h-14.75l-24.188,233.489c-0.098,1.175,0.167,2.36,0.728,3.545
	c4.26,1.586,9.362,2.988,15.053,4.116L183.493,155.344z"/>
<g>
	<path fill="#6C9E2B" d="M158.527,377.089c4.958,1.122,10.438,2.029,16.26,2.65l21.088-216.522l1.793-22.425l-14.62-0.408
		L158.527,377.089z"/>
	<path fill="#E2D31B" d="M360.441,295.75l6.932,66.503c0.117,1.396-0.273,2.816-1.081,4.223c-2.3,2.89-7.35,5.662-14.254,7.979
		L329.93,147.471l-0.679-10.263l14.028-0.422L360.441,295.75z"/>
	<path fill="#96462D" d="M317.549,155.344l-1.493-18.708h14.75l24.188,233.489c0.098,1.175-0.167,2.36-0.725,3.545
		c-4.263,1.586-9.362,2.988-15.056,4.116L317.549,155.344z"/>
	<path fill="#6C9E2B" d="M342.515,377.089c-4.958,1.122-10.438,2.029-16.264,2.65l-21.088-216.522l-1.793-22.425l14.62-0.408
		L342.515,377.089z"/>
	<polygon fill="#6C9E2B" points="181.935,140.353 183.049,140.384 183.052,140.353 	"/>
</g>
<path fill="#395573" d="M157.775,136.636c0,8.991,41.521,16.292,92.743,16.292c51.227,0,92.75-7.301,92.75-16.292
	c0-8.992-41.523-16.291-92.75-16.291C199.301,120.345,157.775,127.644,157.775,136.636z"/>
<g id="chooser">
	<path fill="#496F94" d="M70.06,352.615"/>
	<path fill="#496F94" d="M343.269,136.636H157.775"/>
</g>
</svg>
