<?xml version="1.0" encoding="utf-8"?>
<!-- Generator: Adobe Illustrator 17.1.0, SVG Export Plug-In . SVG Version: 6.00 Build 0)  -->
<!DOCTYPE svg PUBLIC "-//W3C//DTD SVG 1.1//EN" "http://www.w3.org/Graphics/SVG/1.1/DTD/svg11.dtd">
<svg version="1.1" id="content" xmlns="http://www.w3.org/2000/svg" xmlns:xlink="http://www.w3.org/1999/xlink" x="0px" y="0px"
	 width="500px" height="500px" viewBox="0 0 500 500" enable-background="new 0 0 500 500" xml:space="preserve">
<rect id="position" display="none" fill="none" stroke="#000000" width="500" height="500"/>
<path fill="#A10000" d="M249.9,387.8l0.2,0.6L249.9,387.8z"/>
<path fill="#A10000" d="M250,388.4"/>
<polygon fill="#CA0000" points="358.7,353.4 262.5,353.4 236.6,353.4 140.4,353.4 134,406.7 236.6,406.7 262.5,406.7 365.1,406.7 
	"/>
<polygon fill="#A50303" points="331.8,406.7 365.1,406.7 358.7,353.4 331.8,353.4 "/>
<path fill="#E0E0E0" d="M365.5,406.7H134.6c-1.1,0-2,0.9-2,2v7.8c0,1.1,0.9,2,2,2h230.9c1.1,0,2-0.9,2-2v-7.8
	C367.5,407.6,366.6,406.7,365.5,406.7z"/>
</svg>
