<?xml version="1.0" encoding="utf-8"?>
<!-- Generator: Adobe Illustrator 18.0.0, SVG Export Plug-In . SVG Version: 6.00 Build 0)  -->
<!DOCTYPE svg PUBLIC "-//W3C//DTD SVG 1.1//EN" "http://www.w3.org/Graphics/SVG/1.1/DTD/svg11.dtd">
<svg version="1.1" id="content" xmlns="http://www.w3.org/2000/svg" xmlns:xlink="http://www.w3.org/1999/xlink" x="0px" y="0px"
	 width="500px" height="500px" viewBox="0 0 500 500" enable-background="new 0 0 500 500" xml:space="preserve">
<g id="bounds" display="none">
	<rect display="inline" fill="none" stroke="#000000" stroke-miterlimit="10" width="500" height="500"/>
</g>
<path fill="#526787" d="M123.8,348.5l1.6-16.3c0.7-13.1,26.8-21,58.3-17.5c31.5,3.5,56.5,17,55.7,30.1l-2.2,22.2
	C227.3,365.1,132.2,349.9,123.8,348.5z"/>
<path fill="#526787" d="M377.3,348.5l-1.6-16.3c-0.7-13.1-26.8-21-58.3-17.5c-31.5,3.5-56.5,17-55.7,30.1l2.2,22.2
	C273.7,365.1,368.9,349.9,377.3,348.5z"/>
<g id="chooser">
	<path fill="#617BA1" d="M343.3,136.6H157.8l-24.4,226.1c-0.6,7.6,20,15.4,46.1,17.5c26,2,47.6-2.5,48.2-10.1l22.8-159.9h0
		L273.3,370c0.6,7.6,22.2,12.2,48.2,10.1c26-2,46.7-9.8,46.1-17.5L343.3,136.6z"/>
</g>
<path fill="#526787" d="M157.8,136.6c0,9,41.5,16.3,92.7,16.3c51.2,0,92.8-7.3,92.8-16.3c0-9-41.5-16.3-92.8-16.3
	C199.3,120.3,157.8,127.6,157.8,136.6z"/>
<g>
	<path fill="#D3DBE5" d="M209.4,206.3c0,0.8-0.7,1.5-1.5,1.5h-4.6c-0.8,0-1.5-0.7-1.5-1.5l0-13.4c0-0.8,0.7-1.5,1.5-1.5h4.6
		c0.8,0,1.5,0.7,1.5,1.5L209.4,206.3z"/>
	<polygon opacity="0.2" fill="#343536" enable-background="new    " points="148.8,220.1 162.3,220.1 217.7,193.7 217.7,183.6 
		152.7,183.6 	"/>
	<polygon fill="#6884AD" points="144,215.1 162.3,215.1 217.7,188.6 217.7,178.5 144,178.5 	"/>
</g>
<g>
	<path fill="#D3DBE5" d="M291.5,206.3c0,0.8,0.7,1.5,1.5,1.5h4.6c0.8,0,1.5-0.7,1.5-1.5l0-13.4c0-0.8-0.7-1.5-1.5-1.5H293
		c-0.8,0-1.5,0.7-1.5,1.5L291.5,206.3z"/>
	<polygon opacity="0.2" fill="#343536" enable-background="new    " points="352.3,220.1 348.3,183.6 283.2,183.6 283.2,193.7 
		338.7,220.1 	"/>
	<polygon fill="#6884AD" points="356.9,215.1 338.7,215.1 283.2,188.6 283.2,178.5 356.9,178.5 	"/>
</g>
<path fill="#6984AD" d="M123.3,352.9c-0.7,13.1,24.2,26.6,55.7,30.1c31.5,3.5,57.6-4.4,58.3-17.5l2-21
	c-0.7,13.1-25.8,19.8-58.2,16.3c-31.5-3.5-56.5-16.1-55.8-29.2L123.3,352.9z"/>
<path fill="#6984AD" d="M377.7,352.9c0.7,13.1-24.2,26.6-55.7,30.1c-31.5,3.5-57.6-4.4-58.3-17.5l-2-21
	c0.7,13.1,25.8,19.8,58.2,16.3c31.5-3.5,56.5-16.1,55.8-29.2L377.7,352.9z"/>
</svg>
