<?xml version="1.0" encoding="utf-8"?>
<!-- Generator: Adobe Illustrator 18.0.0, SVG Export Plug-In . SVG Version: 6.00 Build 0)  -->
<!DOCTYPE svg PUBLIC "-//W3C//DTD SVG 1.1//EN" "http://www.w3.org/Graphics/SVG/1.1/DTD/svg11.dtd">
<svg version="1.1" id="content" xmlns="http://www.w3.org/2000/svg" xmlns:xlink="http://www.w3.org/1999/xlink" x="0px" y="0px"
	 width="500px" height="500px" viewBox="0 0 500 500" enable-background="new 0 0 500 500" xml:space="preserve">
<g id="bounds" display="none">
	<rect display="inline" fill="none" stroke="#000000" stroke-miterlimit="10" width="500" height="500"/>
</g>
<g id="chooser">
	<path fill="#97B6C7" d="M343.3,136.6H157.8l-24.4,226.1c-0.6,7.6,20,15.4,46.1,17.5c26,2,47.6-2.5,48.2-10.1l22.8-159.9l0,0
		L273.3,370c0.6,7.6,22.2,12.2,48.2,10.1c26-2,46.7-9.8,46.1-17.5L343.3,136.6z"/>
</g>
<path fill="#8DA9BA" d="M133.4,363.7c0,0.2,0.1,0.4,0.1,0.6c1,3.6,6.7,7.2,15.2,10.1l24.5-230.8l-15.4-6.9L133.4,363.7L133.4,363.7z
	"/>
<path fill="#8DA9BA" d="M164.6,378.3c4.6,0.8,9.6,1.5,14.8,1.9c0.5,0,0.9,0.1,1.4,0.1l27.8-244.8h-16.1L164.6,378.3z"/>
<path fill="#8DA9BA" d="M197.2,380.4c6.2-0.1,11.8-0.6,16.4-1.5l29.6-244.8l-15.9-0.5L197.2,380.4z"/>
<path fill="#8DA9BA" d="M367.6,363.7c0,0.2-0.1,0.4-0.1,0.6c-1,3.6-6.7,7.2-15.2,10.1l-24.5-230.8l15.4-6.9L367.6,363.7L367.6,363.7
	z"/>
<path fill="#8DA9BA" d="M336.4,378.3c-4.6,0.8-9.6,1.5-14.8,1.9c-0.5,0-0.9,0.1-1.4,0.1l-27.8-244.8h16.1L336.4,378.3z"/>
<path fill="#8DA9BA" d="M303.8,380.4c-6.2-0.1-11.8-0.6-16.4-1.5l-29.6-244.8l15.9-0.5L303.8,380.4z"/>
<path fill="#839FAD" d="M157.8,136.6c0,9,41.5,16.3,92.7,16.3s92.8-7.3,92.8-16.3s-41.5-16.3-92.8-16.3
	C199.3,120.3,157.8,127.6,157.8,136.6z"/>
</svg>
