<?xml version="1.0" encoding="utf-8"?>
<!-- Generator: Adobe Illustrator 14.0.0, SVG Export Plug-In . SVG Version: 6.00 Build 43363)  -->
<!DOCTYPE svg PUBLIC "-//W3C//DTD SVG 1.1//EN" "http://www.w3.org/Graphics/SVG/1.1/DTD/svg11.dtd">
<svg version="1.1" id="content" xmlns="http://www.w3.org/2000/svg" xmlns:xlink="http://www.w3.org/1999/xlink" x="0px" y="0px"
	 width="500px" height="500px" viewBox="0 0 500 500" enable-background="new 0 0 500 500" xml:space="preserve">
<g id="bounds" display="none">
	<rect x="0" y="0" display="inline" fill="none" stroke="#000000" stroke-miterlimit="10" width="500" height="500"/>
</g>
<g id="chooser">
	<path fill="#D9A4B4" d="M343.269,136.636H157.775l-24.403,226.087c-0.593,7.606,20.044,15.43,46.083,17.45
		c26.033,2.021,47.619-2.524,48.208-10.138l22.813-159.883h0.045l22.812,159.883c0.593,7.609,22.181,12.156,48.216,10.138
		c26.034-2.021,46.675-9.844,46.08-17.45L343.269,136.636z"/>
</g>
<path fill="#C797A5" d="M133.422,363.684c0.034,0.188,0.076,0.369,0.113,0.553c1.028,3.633,6.658,7.224,15.163,10.117
	l24.517-230.771l-15.439-6.946l-24.36,227.009C133.417,363.656,133.42,363.671,133.422,363.684z"/>
<path fill="#C797A5" d="M164.642,378.277c4.623,0.84,9.583,1.499,14.769,1.921c0.455,0.037,0.905,0.068,1.357,0.102l27.816-244.846
	l-16.105-0.049L164.642,378.277z"/>
<path fill="#C797A5" d="M197.193,380.422c6.184-0.053,11.754-0.558,16.383-1.457l29.577-244.791l-15.933-0.526L197.193,380.422z"/>
<path fill="#C797A5" d="M367.62,363.684c-0.033,0.188-0.075,0.369-0.113,0.553c-1.026,3.633-6.656,7.224-15.162,10.117
	l-24.518-230.771l15.44-6.946l24.358,227.009C367.625,363.656,367.622,363.671,367.62,363.684z"/>
<path fill="#C797A5" d="M336.4,378.277c-4.623,0.84-9.584,1.499-14.77,1.921c-0.455,0.037-0.904,0.068-1.356,0.102l-27.817-244.846
	l16.106-0.049L336.4,378.277z"/>
<path fill="#C797A5" d="M303.849,380.422c-6.186-0.053-11.754-0.558-16.385-1.457l-29.576-244.791l15.933-0.526L303.849,380.422z"/>
<path fill="#B08691" d="M157.775,136.636c0,8.991,41.523,16.292,92.743,16.292c51.227,0,92.75-7.301,92.75-16.292
	c0-8.992-41.523-16.291-92.75-16.291C199.301,120.345,157.775,127.644,157.775,136.636z"/>
</svg>
