<?xml version="1.0" encoding="utf-8"?>
<!-- Generator: Adobe Illustrator 18.0.0, SVG Export Plug-In . SVG Version: 6.00 Build 0)  -->
<!DOCTYPE svg PUBLIC "-//W3C//DTD SVG 1.1//EN" "http://www.w3.org/Graphics/SVG/1.1/DTD/svg11.dtd">
<svg version="1.1" id="content" xmlns="http://www.w3.org/2000/svg" xmlns:xlink="http://www.w3.org/1999/xlink" x="0px" y="0px"
	 width="500px" height="500px" viewBox="0 0 500 500" enable-background="new 0 0 500 500" xml:space="preserve">
<g id="bounds" display="none">
	<rect x="0.5" y="0.5" display="inline" fill="none" stroke="#2B2B2B" stroke-miterlimit="10" width="500" height="500"/>
</g>
<g id="chooser">
	<path fill="#CA0000" d="M338.8,229.7c0-0.2,0-0.2,0-0.2l0,0c0-0.3-0.1-0.5-0.2-0.8l0.2-87H163.4l0.2,87c-0.1,0.3-0.2,0.6-0.2,0.9
		c-0.5,7.1,18.2,14.3,42.2,16.4c16,2.3,75,2.3,91,0C320.3,243.8,338.9,236.7,338.8,229.7z"/>
	<path fill="#A10000" d="M163.4,141.6c0,8.5,39.3,15.4,87.7,15.4s87.7-6.9,87.7-15.4s-39.3-15.4-87.7-15.4
		C202.7,126.2,163.4,133.1,163.4,141.6z"/>
	<path fill="#E0E0E0" d="M344.2,230.2c0-2.6-0.8-11.5-6.2-6.5c0,0-5.2,13.4-86.2,13.4s-88.2-13.4-88.2-13.4c-5.4-5-6.2,3.9-6.2,6.5
		s-1.1,10.1,3.7,12.1c25.1,13.5,90.7,11.8,90.7,11.8s63.6,1.7,88.7-11.8C345.4,240.3,344.2,232.8,344.2,230.2z"/>
</g>
</svg>
