<?xml version="1.0" encoding="utf-8"?>
<!-- Generator: Adobe Illustrator 14.0.0, SVG Export Plug-In . SVG Version: 6.00 Build 43363)  -->
<!DOCTYPE svg PUBLIC "-//W3C//DTD SVG 1.1//EN" "http://www.w3.org/Graphics/SVG/1.1/DTD/svg11.dtd">
<svg version="1.1" id="content" xmlns="http://www.w3.org/2000/svg" xmlns:xlink="http://www.w3.org/1999/xlink" x="0px" y="0px"
	 width="500px" height="500px" viewBox="0 0 500 500" enable-background="new 0 0 500 500" xml:space="preserve">
<g id="bounds" display="none">
	<rect x="0" y="0" display="inline" fill="none" stroke="#000000" stroke-miterlimit="10" width="500" height="500"/>
</g>
<g id="chooser">
	<path fill="#182B38" d="M343.269,136.636H157.775l-24.403,226.087c-0.593,7.608,20.044,15.43,46.083,17.45
		c26.033,2.021,47.619-2.524,48.208-10.136l22.813-159.883h0.045l22.812,159.883c0.593,7.61,22.178,12.157,48.216,10.136
		c26.034-2.021,46.673-9.842,46.08-17.45L343.269,136.636z"/>
	<path fill="#0A1216" d="M157.775,136.636c0,8.991,41.525,16.292,92.743,16.292c51.226,0,92.75-7.301,92.75-16.292
		c0-8.992-41.524-16.291-92.75-16.291C199.301,120.345,157.775,127.644,157.775,136.636z"/>
	<path fill="#635B0F" d="M340.488,246.715l-1.987,0.222l-0.496-4.462l1.988-0.222L340.488,246.715L340.488,246.715z
		 M339.481,237.635l-1.989,0.221l-0.573-5.167l1.987-0.221L339.481,237.635L339.481,237.635z M338.332,227.296l-1.986,0.222
		l-0.574-5.171l1.986-0.221L338.332,227.296L338.332,227.296z M337.185,216.958l-1.986,0.222l-0.577-5.176l1.99-0.221
		L337.185,216.958L337.185,216.958z M336.035,206.617l-1.986,0.221l-0.575-5.176l1.987-0.221L336.035,206.617L336.035,206.617z
		 M334.889,196.274l-1.988,0.221l-0.574-5.175l1.986-0.221L334.889,196.274L334.889,196.274z M333.738,185.933l-1.985,0.221
		l-0.573-5.171l1.985-0.221L333.738,185.933L333.738,185.933z M332.591,175.59l-1.985,0.222l-0.574-5.167l1.987-0.222
		L332.591,175.59L332.591,175.59z M331.443,165.249l-1.988,0.221l-0.572-5.167l1.986-0.222L331.443,165.249L331.443,165.249z
		 M330.294,154.911l-1.985,0.22l-0.574-5.17l1.988-0.221L330.294,154.911L330.294,154.911z"/>
	<path fill="#635B0F" d="M352.599,351.04l-1.986,0.223l-0.497-4.463l1.988-0.221L352.599,351.04L352.599,351.04z M351.592,341.96
		l-1.989,0.223l-0.573-5.168l1.987-0.223L351.592,341.96L351.592,341.96z M350.443,331.622l-1.987,0.222l-0.574-5.173l1.986-0.221
		L350.443,331.622L350.443,331.622z M349.295,321.284l-1.987,0.221l-0.576-5.176l1.989-0.222L349.295,321.284L349.295,321.284z
		 M348.146,310.941l-1.987,0.222l-0.574-5.177l1.986-0.221L348.146,310.941L348.146,310.941z M346.998,300.6l-1.988,0.221
		l-0.574-5.174l1.987-0.222L346.998,300.6L346.998,300.6z M345.849,290.258l-1.985,0.222l-0.572-5.17l1.985-0.223L345.849,290.258
		L345.849,290.258z M344.7,279.915l-1.985,0.223l-0.574-5.166l1.988-0.223L344.7,279.915L344.7,279.915z M343.554,269.574
		l-1.987,0.22l-0.573-5.166l1.987-0.221L343.554,269.574L343.554,269.574z M342.404,259.234l-1.984,0.222l-0.575-5.17l1.988-0.222
		L342.404,259.234L342.404,259.234z"/>
	<path fill="#635B0F" d="M160.465,246.715l0.495-4.462l1.988,0.222l-0.496,4.462L160.465,246.715L160.465,246.715z M161.472,237.635
		l0.575-5.167l1.988,0.221l-0.574,5.167L161.472,237.635L161.472,237.635z M162.62,227.296l0.574-5.171l1.987,0.221l-0.575,5.171
		L162.62,227.296L162.62,227.296z M163.769,216.958l0.574-5.175l1.99,0.221l-0.577,5.176L163.769,216.958L163.769,216.958z
		 M164.917,206.617l0.575-5.176l1.986,0.221l-0.575,5.176L164.917,206.617L164.917,206.617z M166.064,196.274l0.576-5.175
		l1.987,0.221l-0.574,5.175L166.064,196.274L166.064,196.274z M167.215,185.933l0.573-5.171l1.985,0.221l-0.572,5.171
		L167.215,185.933L167.215,185.933z M168.362,175.59l0.572-5.167l1.988,0.222l-0.574,5.167L168.362,175.59L168.362,175.59z
		 M169.51,165.249l0.574-5.167l1.986,0.222l-0.572,5.167L169.51,165.249L169.51,165.249z M170.659,154.911l0.57-5.171l1.989,0.221
		l-0.575,5.17L170.659,154.911L170.659,154.911z"/>
	<path fill="#635B0F" d="M148.354,351.04l0.495-4.461l1.989,0.222l-0.497,4.462L148.354,351.04L148.354,351.04z M149.361,341.96
		l0.575-5.168l1.988,0.223l-0.574,5.168L149.361,341.96L149.361,341.96z M150.51,331.622l0.575-5.172l1.986,0.221l-0.574,5.173
		L150.51,331.622L150.51,331.622z M151.658,321.284l0.573-5.177l1.99,0.222l-0.577,5.176L151.658,321.284L151.658,321.284z
		 M152.807,310.941l0.575-5.176l1.987,0.221l-0.575,5.177L152.807,310.941L152.807,310.941z M153.954,300.6l0.575-5.175l1.987,0.222
		l-0.574,5.174L153.954,300.6L153.954,300.6z M155.104,290.258l0.573-5.171l1.986,0.223l-0.573,5.17L155.104,290.258
		L155.104,290.258z M156.252,279.915l0.571-5.166l1.988,0.223l-0.574,5.166L156.252,279.915L156.252,279.915z M157.399,269.574
		l0.574-5.167l1.987,0.221l-0.573,5.166L157.399,269.574L157.399,269.574z M158.549,259.234l0.571-5.17l1.988,0.222l-0.574,5.17
		L158.549,259.234L158.549,259.234z"/>
	<path fill="#635B0F" d="M201.698,185.747c-0.122-0.031-0.217-0.057-0.28-0.076l-3.544-0.693l0.51-2.601l3.965,0.804
		L201.698,185.747L201.698,185.747z M193.976,184.211l-3.9-0.764l0.509-2.6l3.899,0.764L193.976,184.211L193.976,184.211z
		 M186.175,182.683l-3.9-0.765l0.511-2.6l3.899,0.765L186.175,182.683L186.175,182.683z M206.119,186.049l-0.289-2.633
		c1.184-0.13,2.269-0.48,3.225-1.042l1.343,2.282C209.118,185.41,207.678,185.877,206.119,186.049L206.119,186.049z
		 M213.689,181.606l-2.153-1.543c0.638-0.891,1.179-1.965,1.604-3.195l2.504,0.866C215.134,179.207,214.478,180.509,213.689,181.606
		L213.689,181.606z"/>
	<path fill="#635B0F" d="M299.254,185.747l-0.65-2.566l3.966-0.804l0.511,2.601l-3.545,0.693
		C299.471,185.689,299.377,185.717,299.254,185.747L299.254,185.747z M306.978,184.211l-0.509-2.6l3.899-0.764l0.51,2.6
		L306.978,184.211L306.978,184.211z M314.778,182.683l-0.511-2.601l3.899-0.765l0.51,2.6L314.778,182.683L314.778,182.683z
		 M294.834,186.049c-1.562-0.171-2.999-0.639-4.277-1.393l1.342-2.282c0.955,0.562,2.041,0.912,3.227,1.042L294.834,186.049
		L294.834,186.049z M287.264,181.606c-0.789-1.098-1.445-2.399-1.953-3.873l2.504-0.866c0.424,1.23,0.965,2.305,1.604,3.195
		L287.264,181.606L287.264,181.606z"/>
</g>
</svg>
