<?xml version="1.0" encoding="utf-8"?>
<!-- Generator: Adobe Illustrator 16.0.0, SVG Export Plug-In . SVG Version: 6.00 Build 0)  -->
<!DOCTYPE svg PUBLIC "-//W3C//DTD SVG 1.1//EN" "http://www.w3.org/Graphics/SVG/1.1/DTD/svg11.dtd">
<svg version="1.1" id="content" xmlns="http://www.w3.org/2000/svg" xmlns:xlink="http://www.w3.org/1999/xlink" x="0px" y="0px"
	 width="500px" height="500px" viewBox="0 0 500 500" enable-background="new 0 0 500 500" xml:space="preserve">
<rect x="181.2" y="344.2" fill="#182B38" width="50.5" height="84.2"/>
<g>
	<path fill="#8C8315" d="M227,395.4h-2v-1.1h2V395.4L227,395.4z M227,393.2h-2V392h2V393.2L227,393.2z M227,390.8h-2v-1.2h2V390.8
		L227,390.8z M227,388.4h-2v-1.2h2V388.4L227,388.4z M227,385.9h-2v-1.2h2V385.9L227,385.9z M227,383.5h-2v-1.2h2V383.5L227,383.5z
		 M227,381.1h-2v-1.2h2V381.1L227,381.1z M227,378.6h-2v-1.2h2V378.6L227,378.6z M227,376.2h-2V375h2V376.2L227,376.2z M227,373.8
		h-2v-1.2h2V373.8L227,373.8z"/>
	<path fill="#8C8315" d="M227,418.9h-2v-1h2V418.9L227,418.9z M227,417.1h-2v-1.2h2V417.1L227,417.1z M227,414.6h-2v-1.2h2V414.6
		L227,414.6z M227,412.2h-2V411h2V412.2L227,412.2z M227,409.8h-2v-1.2h2V409.8L227,409.8z M227,407.3h-2v-1.2h2V407.3L227,407.3z
		 M227,404.9h-2v-1.2h2V404.9L227,404.9z M227,402.5h-2v-1.2h2V402.5L227,402.5z M227,400h-2v-1.2h2V400L227,400z M227,397.6h-2
		v-1.2h2V397.6L227,397.6z"/>
	<path fill="#8C8315" d="M227,428.3h-2v-1.2h2V428.3L227,428.3z M227,425.9h-2v-1.2h2V425.9L227,425.9z M227,423.5h-2v-1.2h2V423.5
		L227,423.5z M227,421h-2v-1.2h2V421L227,421z"/>
	<polygon fill="#8C8315" points="227,361.9 225,361.9 225,360.9 227,360.9 	"/>
	<polygon fill="#8C8315" points="227,360.1 225,360.1 225,358.9 227,358.9 	"/>
	<polygon fill="#8C8315" points="227,357.6 225,357.6 225,356.4 227,356.4 	"/>
	<polygon fill="#8C8315" points="227,355.2 225,355.2 225,354 227,354 	"/>
	<polygon fill="#8C8315" points="227,352.8 225,352.8 225,351.5 227,351.5 	"/>
	<polygon fill="#8C8315" points="227,350.3 225,350.3 225,349.1 227,349.1 	"/>
	<polygon fill="#8C8315" points="227,347.9 225,347.9 225,346.7 227,346.7 	"/>
	<polygon fill="#8C8315" points="227,345.5 225,345.5 225,344.2 227,344.2 	"/>
	<path fill="#8C8315" d="M227,371.3h-2v-1.2h2V371.3L227,371.3z M227,368.9h-2v-1.2h2V368.9L227,368.9z M227,366.5h-2v-1.2h2V366.5
		L227,366.5z M227,364h-2v-1.2h2V364L227,364z"/>
</g>
</svg>
