<?xml version="1.0" encoding="utf-8"?>
<!-- Generator: Adobe Illustrator 18.0.0, SVG Export Plug-In . SVG Version: 6.00 Build 0)  -->
<!DOCTYPE svg PUBLIC "-//W3C//DTD SVG 1.1//EN" "http://www.w3.org/Graphics/SVG/1.1/DTD/svg11.dtd">
<svg version="1.1" id="content" xmlns="http://www.w3.org/2000/svg" xmlns:xlink="http://www.w3.org/1999/xlink" x="0px" y="0px"
	 width="500px" height="500px" viewBox="0 0 500 500" enable-background="new 0 0 500 500" xml:space="preserve">
<rect id="position" display="none" fill="none" stroke="#000000" width="500" height="500"/>
<g>
	<circle fill="#494746" cx="206.5" cy="372.3" r="24.3"/>
	<path fill="#494746" d="M182.2,372.2v50.6h48.7v-50.6H182.2z M201.6,403.9l2.8-2.7l-4.2-1.9l18.2-4.3l-3.1,6.4l4.5,3.6L201.6,403.9
		z"/>
	<polygon fill="#7A7B72" points="201.5,403.9 217,408.6 219.7,404.8 	"/>
	<path fill="#7A7B72" d="M215.2,401.2c0,0,4.7-2.7,8.2-1.8c-1.3-3.1-5.1-4.5-5.1-4.5L215.2,401.2z"/>
	<path fill="#7A7B72" d="M204.3,401.2c0,0-5.4,0.4-6.4,1.6c0-3.2,2.1-3.6,2.1-3.6L204.3,401.2z"/>
	<rect x="182.2" y="416" fill="#605D62" width="48.7" height="7.4"/>
</g>
</svg>
