<?xml version="1.0" encoding="utf-8"?>
<!-- Generator: Adobe Illustrator 18.0.0, SVG Export Plug-In . SVG Version: 6.00 Build 0)  -->
<!DOCTYPE svg PUBLIC "-//W3C//DTD SVG 1.1//EN" "http://www.w3.org/Graphics/SVG/1.1/DTD/svg11.dtd">
<svg version="1.1" id="content" xmlns="http://www.w3.org/2000/svg" xmlns:xlink="http://www.w3.org/1999/xlink" x="0px" y="0px"
	 width="500px" height="500px" viewBox="0 0 500 500" enable-background="new 0 0 500 500" xml:space="preserve">
<g id="bounds" display="none">
	<rect x="0.5" y="0.5" display="inline" fill="none" stroke="#9EB0B7" stroke-miterlimit="10" width="500" height="500"/>
</g>
<g id="chooser">
	<path fill="#F1F1F1" d="M361.5,223.6l-22.7-91.9H163.4l-22.8,91.9c-0.2,0.4-0.3,0.8-0.3,1.2c-0.6,7.2,18.9,14.6,43.6,16.5
		c24.6,1.9,37.4-5.5,45.6-9.6c0,0,0,0,0,0h0l21.6-27.1l21.6,27.1c0,0,0,0,0,0c8.8,7.4,21,11.5,45.6,9.6c24.6-1.9,44.1-9.3,43.6-16.5
		C361.8,224.4,361.7,224,361.5,223.6z"/>
	<path fill="#A3A3A3" d="M163.4,131.6c0,8.5,39.3,15.4,87.7,15.4c48.4,0,87.7-6.9,87.7-15.4c0-8.5-39.3-15.4-87.7-15.4
		C202.7,116.2,163.4,123.1,163.4,131.6z"/>
	<path fill="#2D2D2D" d="M327.7,228c-1.3-7-19.6-84.7-19.6-84.7l16.4-3.3l20.5,83.9C345.1,224,339.7,231.7,327.7,228z"/>
	<path fill="#2D2D2D" d="M174.5,228c1.3-7,19.6-84.7,19.6-84.7l-16.4-3.3L157.1,224C157.1,224,162.5,231.7,174.5,228z"/>
	<path fill="#2D2D2D" d="M187.5,223.5c-24.6-1.9-44.1-9.3-43.6-16.5l-3.6,17.8c-0.6,7.2,18.9,14.6,43.6,16.5
		c24.6,1.9,37.8-2.7,45.6-9.6l12-15C234.6,222.1,212.2,225.4,187.5,223.5z"/>
	<path fill="#2D2D2D" d="M314.7,223.5c24.6-1.9,44.1-9.3,43.6-16.5l3.6,17.8c0.6,7.2-18.9,14.6-43.6,16.5
		c-24.6,1.9-39.3-1.8-45.6-9.6l-13.5-16.9C266.5,220.7,290,225.4,314.7,223.5z"/>
</g>
</svg>
