<?xml version="1.0" encoding="utf-8"?>
<!-- Generator: Adobe Illustrator 18.0.0, SVG Export Plug-In . SVG Version: 6.00 Build 0)  -->
<!DOCTYPE svg PUBLIC "-//W3C//DTD SVG 1.1//EN" "http://www.w3.org/Graphics/SVG/1.1/DTD/svg11.dtd">
<svg version="1.1" id="content" xmlns="http://www.w3.org/2000/svg" xmlns:xlink="http://www.w3.org/1999/xlink" x="0px" y="0px"
	 width="500px" height="500px" viewBox="0 0 500 500" enable-background="new 0 0 500 500" xml:space="preserve">
<g id="bounds" display="none">
	<rect x="0.5" y="0.5" display="inline" fill="none" stroke="#9EB0B7" stroke-miterlimit="10" width="500" height="500"/>
</g>
<g>
	<g>
		<polygon fill="#42499D" points="144.6,207.4 144.6,207.3 144.6,207.4 		"/>
		<path fill="#42499D" d="M314.7,223.5c24.6-1.9,43.3-9,42.8-16.2l0,0l-18.7-75.7H163.4l-18.8,75.6l0-0.1
			c-0.5,7.2,18.2,14.3,42.8,16.2c24.6,1.9,46.9-1.4,53.9-6.7l9.7-12.2l8.2,10.3C266.7,220.7,290.1,225.4,314.7,223.5z"/>
	</g>
	<path fill="#3F385E" d="M163.4,131.6c0,8.5,39.3,15.4,87.7,15.4s87.7-6.9,87.7-15.4s-39.3-15.4-87.7-15.4
		C202.7,116.2,163.4,123.1,163.4,131.6z"/>
	<path fill="#FFFFFF" d="M187.5,223.5c-24.6-1.9-43.3-9-42.8-16.2l-4.4,17.5c-0.6,7.2,18.9,14.6,43.6,16.5
		c24.6,1.9,37.8-2.7,45.6-9.6l12-15C234.6,222.1,212.2,225.4,187.5,223.5z"/>
	<path fill="#FFFFFF" d="M314.7,223.5c24.6-1.9,43.3-9,42.8-16.2l4.4,17.5c0.6,7.2-18.9,14.6-43.6,16.5c-24.6,1.9-39.3-1.8-45.6-9.6
		l-13.5-16.9C266.5,220.7,290,225.4,314.7,223.5z"/>
</g>
</svg>
