<?xml version="1.0" encoding="utf-8"?>
<!-- Generator: Adobe Illustrator 14.0.0, SVG Export Plug-In . SVG Version: 6.00 Build 43363)  -->
<!DOCTYPE svg PUBLIC "-//W3C//DTD SVG 1.1//EN" "http://www.w3.org/Graphics/SVG/1.1/DTD/svg11.dtd">
<svg version="1.1" id="content" xmlns="http://www.w3.org/2000/svg" xmlns:xlink="http://www.w3.org/1999/xlink" x="0px" y="0px"
	 width="500px" height="500px" viewBox="0 0 500 500" enable-background="new 0 0 500 500" xml:space="preserve">
<g id="bounds" display="none">
	<rect x="0.5" y="0.5" display="inline" fill="none" stroke="#9EB0B7" stroke-miterlimit="10" width="500" height="500"/>
</g>
<g id="chooser">
	<path fill="#E4E4EA" d="M361.823,244.799l-0.001-0.004c-0.022-0.286-0.087-0.565-0.171-0.842l-22.854-112.322h-175.35
		l-22.895,112.316c-0.086,0.28-0.152,0.564-0.175,0.854c-0.561,7.194,18.948,14.584,43.562,16.495
		c24.61,1.912,45.017-2.386,45.572-9.579v-0.001h0.001l21.588-47.107l21.583,47.102c0,0.002,0,0.004,0,0.006
		c0.562,7.193,20.965,11.491,45.578,9.579C342.873,259.385,362.382,251.994,361.823,244.799
		C361.823,244.799,361.823,244.799,361.823,244.799L361.823,244.799z"/>
	<path fill="#B4B4B5" d="M163.448,131.631c0,8.501,39.255,15.4,87.671,15.4c48.424,0,87.679-6.899,87.679-15.4
		c0-8.5-39.255-15.398-87.679-15.398C202.703,116.231,163.448,123.131,163.448,131.631z"/>
</g>
</svg>
