<?xml version="1.0" encoding="utf-8"?>
<!-- Generator: Adobe Illustrator 16.0.0, SVG Export Plug-In . SVG Version: 6.00 Build 0)  -->
<!DOCTYPE svg PUBLIC "-//W3C//DTD SVG 1.1//EN" "http://www.w3.org/Graphics/SVG/1.1/DTD/svg11.dtd">
<svg version="1.1" id="content" xmlns="http://www.w3.org/2000/svg" xmlns:xlink="http://www.w3.org/1999/xlink" x="0px" y="0px"
	 width="500px" height="500px" viewBox="0 0 500 500" enable-background="new 0 0 500 500" xml:space="preserve">
<rect id="position" display="none" fill="none" stroke="#000000" width="500" height="500"/>
<g>
	<circle fill="#FFFFFF" cx="206.5" cy="369" r="24.4"/>
	<rect x="182.2" y="369.5" fill="#FFFFFF" width="48.7" height="43"/>
	<path fill="#286AA7" d="M230.9,396.2c-0.3-0.3-0.8-0.5-1.4-0.5c-0.3-2.1-4.3-7.8-13.6-0.6c2.8-1.1,6.9-2.3,8.1-1.4
		c1.1,0.9,0.1,1.8-0.9,2.1c2.4,0.4,4.4,2.3,3.3,3.5c-1,1.3-3.3-0.3-3.3-0.3c1.4,2,0.6,3.5-0.4,3.3c-1.3,0-5.1-2.8-6.5-2.7
		c0,0,4.4,4.8,6.7,6.5c2.3,1.7,3.5-0.1,4.1-1.7c1.8,0.3,3.9-3.2,3.9-3.2V396.2L230.9,396.2z M201.7,392.7c2.8,0.3,6.1,1.4,6.1,1.4
		c-2.6-2.6-7.1-3.3-7.1-4.4c0-1,1-1.8,3-0.9c0,0-1.6-1.1-0.4-2.1c1.3-1,3.5,1.6,4.4,3.4c0,0,0.1-2.4-1.6-5.5c-1.8-3.1-3-0.4-4-1
		c-3.1-2.1-5.2,1.3-4.1,2.7C194.5,389.9,198.9,392.4,201.7,392.7z M214.6,388c2.3-3.3,3-4.3,4.1-3.4c1.1,1-0.7,2.8-0.7,2.8
		c2-1.1,2.3,0.7,1.8,1.3c-2,2.4-3.8,4.4-3.8,4.4s7.4-2.6,9.4-5.2c1.3-2.1-0.9-3.7-2.6-3.5c-0.1-2.1-0.6-3.4-2.8-3.7
		c-1.6-0.3-1.8,1.6-1.8,1.6s-3.1-3.7-5,1.7c-0.9-1.4-4.3,3.3-0.9,8.1c-0.3-4.1,0.9-6.4,1.8-5.7C214.8,386.6,214.6,388,214.6,388z
		 M210.7,392c-2-2.7-1.4-7.5-1-8.2c0.6-0.7,1.8-0.3,1.6-1.1c-0.4-0.9-1.1-0.3-1.1,0s-0.4,0.9-0.6,0.3c-0.1-0.7,0.6-1.4,1-1.3
		c0.7,0.4,1.3,0,1.1-0.4c-0.1-0.7-1.1-0.3-1.1-0.3c-0.6,0-0.3-0.9,0.1-1c0.6-0.3,0.9-0.1,1.1,0.1c0.3,0.3,0.6,0.7,1,0.1
		c0.4-0.6,0-1-1.3-0.9c-0.4,0-0.7-0.1-0.1-0.6c1.7-0.4,1.8,0.3,2.1,0.4c1,0.6,1.6-0.6,1.1-1c-0.3-0.3-1.1-0.3-2.7-0.1
		c0,0,0.1-0.3,1.4-1.1c0,0,0.7,0.4,1.3,0.3c0.6-0.1,1-1.1-0.1-2.4l-2.8,2.6c0,0-0.6-0.4,0.6-1.3c1.1-0.9,0.1-2.1-0.7-1.8
		c-1.4,0.3-0.6,2.3-0.6,3c0.1,0.7-0.7,0.7-0.6,0.4c0.3-1-0.6-1.6-1.1-1c-0.6,0.6-0.3,1.3,0.4,1.6c0.7,0.3,0.6,0.9,0.4,1.1
		c-0.1,0.1-0.6,0.1-0.7-0.6c-0.3-0.7-1-0.9-1.3-0.4c-0.3,0.5-0.1,0.7,0.7,1c0.9,0.3,1,0.7,0.9,1c-0.1,0.4-0.7,0.3-0.9-0.1
		c-0.1-0.4-0.4-0.9-0.9-0.3c-0.4,0.4,0.4,1,0.9,1c0.4,0,0.9,0.7,0.3,0.9c-0.6,0.1-0.7-0.6-1-0.6c-0.9-0.1-1,1-0.4,1.1
		c0.7,0.1,0.9-0.1,1.3,0.1c-2.3,12.5,3,15.3,3,15.3c0.3,0.1,1,0.6,1.6-0.9C214.6,395.1,212.5,394.7,210.7,392z M202.4,405.6
		c-0.7-0.4-0.7-2.6,1.6-4.8c-3.4,2.1-5.7,3.8-6.4,3c-0.7-0.9,1.1-3.4,4.1-4.8c0,0-3.4,0.4-3.7-0.3c-0.3-0.6-0.3-1.4,2.6-2.4
		c2.8-1,7.9-0.3,7.9-0.3s-1.6-1.4-3.4-1.7c-11.6-2.4-12.9,4-12.2,5.5c-2.4,1.4-1.8,4.1,0.6,5.4c-1.8,3.7,2.6,5.1,4.5,4
		c0.3,0.4,2.4,2.8,5.5,0.4c4.1-3.3,6.8-10.2,6.8-10.2C205.6,405.2,202.9,406.3,202.4,405.6z M215.5,400.3c-1-0.9-1.1-0.6-1.1-0.3
		c0,0,3.3,3.1,3.7,5.7c0.4,2.6,0.4,3-0.3,3.4c-0.7,0.4-1.4-1.4-2.3-2.4c-0.1-0.1-0.7,0.1-0.4,1.6c0.2,1.1,0.2,2.8-0.1,4.2h6.6
		C222.1,408.9,218.3,402.2,215.5,400.3z M211.2,411.4c-0.3,0.7-0.7,1.1-1.2,1.1h2.6c0-0.3,0-0.6,0-1
		C212.8,410.5,212.2,409,211.2,411.4z M209.8,408c2.4-4.3,1.7-9.2,0.7-7.5s-5.7,10.8-5.7,10.8c-0.2,0.5-0.4,0.9-0.5,1.3h5.5
		C208.9,412.4,208.2,410.8,209.8,408z"/>
	<path fill="#286AA7" d="M193.7,368.8c-4.1-2.7-10.9-3-10.9-3c6.4,2.4,8.2,4.5,7.8,5.1c-0.1,0.7-2,1.3-4.7,0c2.8,2.4,5,3.8,4.4,4.7
		c-0.6,0.9-3.3,0-5.4-2.3c0,0,1.1,3,0.7,3.4c-0.4,0.4-1.1,0.6-2.8-1.6c-0.2-0.3-0.4-0.6-0.6-0.9v4.7c2.2,3,5.2,2.5,6,1.8
		c1.8,1.8,4.1,0.4,4.5-2c3.7,0.6,3.7-3.7,2.1-5.1C195.3,373.3,196.7,370.8,193.7,368.8z"/>
	<path fill="#286AA7" d="M182.2,384v5.1c0.5-0.6,1.1-1.6,1.1-2.9C183.3,385,182.8,384.3,182.2,384z M188.4,389.2
		c-0.4-1.1-1.1-2.3-3.3-1.7c-1.8,0.6-2.7,2.2-2.9,2.7v0.2l0.1,0.2c0,0,1.8-1,3.5-0.7c-1.1,1.3-3.3,1.6-3.3,1.6l0.1,0.3
		c0,0,2,1.3,4.1,0.6C188.8,391.7,188.8,390.4,188.4,389.2z M182.4,392.7l-0.2,0.1v0.1c0.3,0.3,1.5,1.5,1.8,3.1
		c-0.7-0.3-1.3-1-1.8-1.5v3.4c1.3,1.6,2.4,1,3.3,0.4c1-0.7,1.8-1.8,0.6-3.7C184.8,392.7,182.4,392.7,182.4,392.7z"/>
	<g>
		<circle fill="#286AA7" cx="208.1" cy="367.2" r="1.2"/>
		<path fill="#286AA7" d="M204.6,360.4c-1,0.6-2.1,1.4-1,3.3c1.1,1.9,3.1,2.3,3.1,2.3l0.2-0.2c0,0-1.2-1.6-1.2-3.3
			c1.4,1,1.9,2.9,1.9,2.9l0.2-0.2c0,0,0.8-2.1,0-3.9C207.1,359.6,205.6,359.8,204.6,360.4z"/>
		<path fill="#286AA7" d="M213.7,361.6c-0.8-0.8-2.1-1.4-3.5,0c-1.4,1.4-1.2,3.7-1.2,3.7l0.2,0.2c0,0,1-1.6,2.7-2.3
			c-0.4,1.6-2.1,2.7-2.1,2.7l0.2,0.2c0,0,2.3,0.2,3.7-1.2C215.1,363.7,214.5,362.4,213.7,361.6z"/>
		<path fill="#286AA7" d="M215.1,370.7c0.6-1,0.8-2.3-1-3.3c-1.9-1-3.9,0-3.9,0l-0.2,0.2c0,0,2.1,0.6,2.9,1.9
			c-1.6,0-3.3-1.2-3.3-1.2l-0.2,0.2c0,0,0.4,2.1,2.5,3.1C213.7,372.8,214.5,371.7,215.1,370.7z"/>
		<path fill="#286AA7" d="M207.1,374.8c1.2,0.2,2.5,0,2.9-2.1c0.2-2.1-1.2-3.7-1.2-3.7h-0.4c0,0,0.2,2.1-0.8,3.3
			c-0.6-1.6,0-3.5,0-3.5h-0.4c0,0-1.9,1-2.3,3.3C204.6,374.2,205.8,374.8,207.1,374.8z"/>
		<path fill="#286AA7" d="M200.5,368.6c0.2,1.2,0.8,2.5,2.9,2.1c2.1-0.4,3.1-2.3,3.1-2.3V368c0,0-1.9,0.8-3.5,0.2c1.2-1,3.3-1,3.3-1
			v-0.4c0,0-1.6-1.4-3.7-1C200.5,366.2,200.3,367.4,200.5,368.6z"/>
	</g>
	<rect x="182.2" y="408.8" fill="#286AA7" width="48.7" height="11.8"/>
	<path fill="#286AA7" d="M229.4,368.7c0,0-2.3,3.5-5.5,4.1c1.2-3.4,4.5-5.5,4.5-5.5l-0.6-0.5c0,0-4.2-0.8-7.8,2.2
		c-3,2.9-1.8,5.5,0.1,7.1c1.7,1.9,3.9,3.2,7.1,0.5c3-2.9,2.9-7.4,2.9-7.4L229.4,368.7z"/>
	<path fill="#286AA7" d="M227.3,365.4l0.5-0.6c0,0-4-1.1-5.7-4.2c3.3,0,6.5,2.6,6.5,2.6l0.5-0.6c0,0-0.7-4.4-4.5-6.4
		c-3.7-2-5.7-0.4-6.9,1.8c-1.3,2.2-1.9,4.9,1.8,6.9C223.3,366.9,227.3,365.4,227.3,365.4z"/>
	<path fill="#286AA7" d="M229.6,364c-0.9,1.1-0.7,2.6,0.3,3.5c0.3,0.3,0.6,0.4,1,0.5c-0.1-1.6-0.3-3.1-0.6-4.6
		C230,363.6,229.8,363.7,229.6,364z"/>
	<path fill="#286AA7" d="M186.1,357.1c2.1-1.1,2.4-1.3,3-0.7c0.6,0.6-0.9,1.7-1.4,2.6c-0.1,0.1,0.4,0.6,1.6-0.1
		c1.1-0.6,3.3-1.1,4.8-1.1s2.6,1.3-1.3,2.3c-1,0.1-2.1,1.1,0.3,1.3c2.4,0.1,1.8,3-2.6,2.1s-8.6,1.1-6.8,1.6
		c1.8,0.4,11.1,1.8,11.1,1.8c2.8,0.4,3.7-0.7,4.7-2.6c1-1.8-0.9-3.7-0.9-3.7c1.8-1.9,1.3-4.1,0.1-5c-1.3-1-3.7-0.9-3.7-0.9
		s0-0.2-0.1-0.6c0-0.7-0.4-3.1-3.1-3c-1.1,0-2,0.4-2.7,0.9c-0.7,0.7-1.4,1.5-2,2.3l0,0l0,0c-1,1.3-1.8,2.6-2.5,4
		C185.1,357.9,185.6,357.4,186.1,357.1z"/>
</g>
</svg>
