<?xml version="1.0" encoding="utf-8"?>
<!-- Generator: Adobe Illustrator 18.0.0, SVG Export Plug-In . SVG Version: 6.00 Build 0)  -->
<!DOCTYPE svg PUBLIC "-//W3C//DTD SVG 1.1//EN" "http://www.w3.org/Graphics/SVG/1.1/DTD/svg11.dtd">
<svg version="1.1" id="content" xmlns="http://www.w3.org/2000/svg" xmlns:xlink="http://www.w3.org/1999/xlink" x="0px" y="0px"
	 width="500px" height="500px" viewBox="0 0 500 500" enable-background="new 0 0 500 500" xml:space="preserve">
<rect id="position" display="none" fill="none" stroke="#000000" width="500" height="500"/>
<g>
	<path fill="#806D40" d="M236.8,369c0-0.6,0.1-1.2,0.1-1.8c0-1.8-0.2-3.6-0.5-5.4c-1.3-6.9-5-12.9-10.2-17.1
		c-5-4.1-11.4-6.5-18.3-6.5s-13.3,2.4-18.3,6.5c-5.5,4.5-9.3,10.9-10.4,18.3c-0.2,1.4-0.3,2.8-0.3,4.3c0,0.2,0,0.4,0,0.5l-2,31
		l7.6,6.5l8.8-4.2l7,5.6l6.5-5.4l6.5,5.4l7-5.6l8.8,4.2l9.6-6.5L236.8,369z"/>
	<path fill="#6B5936" d="M236.9,367.7c0-0.1,0-0.3,0-0.4c0,0,0,0,0-0.1c0,0,0,0,0,0c0-1.8-0.2-3.5-0.5-5.2c-1.3-7-5-13-10.3-17.3
		H226c-5-4-11.3-6.4-18.2-6.4s-13.2,2.4-18.2,6.4h-0.1c-5.3,4.3-9.1,10.5-10.3,17.6c0,0.3-0.1,0.5-0.1,0.8c0,0,0,0,0,0c0,0,0,0,0,0
		c-0.1,0.7-0.2,1.4-0.2,2.1c0,0,0,0,0,0c0,0.7-0.1,1.4-0.1,2c0,0,0,0,0,0.1c0,0.4-0.3,5.3-0.3,5.3l0.8,0.3l5.7,1.7
		c0,0,0.3,0.1-0.3,3.6l3.6-3.8c0,0,0.1,2.5-0.8,5.9l4-6.3h24l-2,3.7l4.1-1.7c0,0,0.3,1.3-1.6,4.1c4.9-1.6,5.1-4.7,5.1-4.7
		s7.1,0.3,14.4,0.5c0.6,0,1.1,0.1,1.7,0.1C237.3,375.8,236.9,368,236.9,367.7z"/>
	<polygon fill="#736239" points="228.7,398.6 219.8,394.3 213.6,399.5 206.5,393.8 200,398.9 193.2,393.4 184.3,398.4 177.2,393.4 
		176.9,398.8 184.5,405.3 193.3,401 200.3,406.7 206.9,401.2 213.4,406.7 220.4,401 229.2,405.3 238.8,398.8 238.3,392.7 	"/>
</g>
</svg>
