<?xml version="1.0" encoding="utf-8"?>
<!-- Generator: Adobe Illustrator 18.0.0, SVG Export Plug-In . SVG Version: 6.00 Build 0)  -->
<!DOCTYPE svg PUBLIC "-//W3C//DTD SVG 1.1//EN" "http://www.w3.org/Graphics/SVG/1.1/DTD/svg11.dtd">
<svg version="1.1" id="content" xmlns="http://www.w3.org/2000/svg" xmlns:xlink="http://www.w3.org/1999/xlink" x="0px" y="0px"
	 width="500px" height="500px" viewBox="0 0 500 500" enable-background="new 0 0 500 500" xml:space="preserve">
<g id="bounds" display="none">
	<rect x="0.5" y="0.5" display="inline" fill="none" stroke="#9EB0B7" stroke-miterlimit="10" width="500" height="500"/>
</g>
<g id="chooser">
	<path fill="#E8E8E8" d="M361.8,216.8L361.8,216.8c0-0.3-0.1-0.6-0.2-0.8l-22.9-84.3H163.4l-22.9,84.3c-0.1,0.3-0.2,0.6-0.2,0.9
		c-0.6,7.2,18.9,14.6,43.6,16.5c32.3,2.8,45.6-9.6,45.6-9.6h0l21.6-19.1l21.6,19.1c0,0,16,11.8,45.6,9.6
		C342.9,231.4,362.4,224,361.8,216.8L361.8,216.8L361.8,216.8z"/>
	<path fill="#C4C4C4" d="M163.4,131.6c0,8.5,39.3,15.4,87.7,15.4c48.4,0,87.7-6.9,87.7-15.4c0-8.5-39.3-15.4-87.7-15.4
		C202.7,116.2,163.4,123.1,163.4,131.6z"/>
	<rect x="248" y="147" fill="#D9D9D9" width="7.3" height="57.4"/>
	<path fill="#FF3D3D" d="M313.6,164.1c3.6-7.4,12.3-2.7,12.3-2.7s7.2-6.8,12.6-0.6c5.4,6.2-3.9,15.7-10.2,19
		C321.4,178.2,309.9,171.4,313.6,164.1z"/>
	<path fill="#FF3D3D" d="M291.5,193.2c3.5-7.1,11.8-2.6,11.8-2.6s6.9-6.5,12.1-0.6c5.2,5.9-3.7,15-9.7,18.2
		C299,206.7,288,200.3,291.5,193.2z"/>
	<path fill="#FF3D3D" d="M261.7,172c3.5-7.1,11.8-2.6,11.8-2.6s6.9-6.5,12.1-0.6c5.2,5.9-3.7,15-9.8,18.2
		C269.2,185.5,258.2,179,261.7,172z"/>
	<path fill="#FF3D3D" d="M173.9,179.7c-6.3-3.3-15.6-12.8-10.2-19c5.4-6.2,12.6,0.6,12.6,0.6s8.7-4.7,12.3,2.7
		C192.3,171.4,180.8,178.2,173.9,179.7z"/>
	<path fill="#FF3D3D" d="M196.6,208.2c-6-3.2-14.9-12.3-9.7-18.2c5.2-5.9,12.1,0.6,12.1,0.6s8.4-4.5,11.8,2.6
		C214.2,200.3,203.2,206.7,196.6,208.2z"/>
	<path fill="#FF3D3D" d="M226.4,187c-6-3.2-14.9-12.3-9.8-18.2c5.2-5.9,12.1,0.6,12.1,0.6s8.4-4.5,11.8,2.6
		C244,179,233,185.5,226.4,187z"/>
</g>
</svg>
