<?xml version="1.0" encoding="utf-8"?>
<!-- Generator: Adobe Illustrator 18.0.0, SVG Export Plug-In . SVG Version: 6.00 Build 0)  -->
<!DOCTYPE svg PUBLIC "-//W3C//DTD SVG 1.1//EN" "http://www.w3.org/Graphics/SVG/1.1/DTD/svg11.dtd">
<svg version="1.1" id="content" xmlns="http://www.w3.org/2000/svg" xmlns:xlink="http://www.w3.org/1999/xlink" x="0px" y="0px"
	 width="500px" height="500px" viewBox="0 0 500 500" enable-background="new 0 0 500 500" xml:space="preserve">
<rect id="position" display="none" fill="none" stroke="#000000" width="500" height="500"/>
<g>
	<g>
		<path fill="#6A6B44" d="M231,368.9c0-0.7,0-1.4-0.1-2.2v4.3C231,370.3,231,369.6,231,368.9z"/>
		<g>
			<path fill="#565636" d="M208.2,381.1h11.2v-33c-3.3-2-7.1-3.3-11.2-3.6V381.1z"/>
			<path fill="#565636" d="M193.5,381.1h11.2v-36.5c-4.1,0.3-7.9,1.6-11.2,3.7V381.1z"/>
			<path fill="#565636" d="M182.2,368.9v12.2h3.3h4.5V351C185.2,355.5,182.2,361.8,182.2,368.9z"/>
			<path fill="#565636" d="M222.9,350.7v30.4h4.8h3.2v-10v-4.3C230.3,360.4,227.4,354.8,222.9,350.7z"/>
		</g>
		<g>
			<path fill="#7C7C4E" d="M219.4,348.1v33v1.5h3.5v-1.5v-30.4C221.8,349.8,220.6,348.9,219.4,348.1z"/>
			<path fill="#7C7C4E" d="M204.7,344.6v36.5v1.5h3.5v-1.5v-36.5c-0.5,0-1.1-0.1-1.6-0.1C206,344.5,205.3,344.5,204.7,344.6z"/>
			<path fill="#7C7C4E" d="M190,381.1v1.5h3.5v-1.5v-32.8c-1.2,0.8-2.4,1.7-3.5,2.7V381.1z"/>
		</g>
	</g>
	<rect x="182.2" y="396.8" fill="#565636" width="48.7" height="4.7"/>
	<path fill="#8E8D5C" d="M203.1,411.1c0,2-1.6,3.6-3.6,3.6h-12.1c-2,0-3.6-1.6-3.6-3.6v-20c0-2,1.6-3.6,3.6-3.6h12.1
		c2,0,3.6,1.6,3.6,3.6V411.1z"/>
	<path fill="#BAB67B" d="M199.5,387.6h-6h-6c-2,0-3.6,1.6-3.6,3.6v3.9c1.7,1,9.6,6.3,9.6,6.3s8-5.3,9.6-6.3v-3.9
		C203.1,389.2,201.5,387.6,199.5,387.6z"/>
	<circle fill="#7C7C4E" cx="193.4" cy="397.7" r="1.3"/>
</g>
</svg>
