<?xml version="1.0" encoding="utf-8"?>
<!-- Generator: Adobe Illustrator 14.0.0, SVG Export Plug-In . SVG Version: 6.00 Build 43363)  -->
<!DOCTYPE svg PUBLIC "-//W3C//DTD SVG 1.1//EN" "http://www.w3.org/Graphics/SVG/1.1/DTD/svg11.dtd">
<svg version="1.1" id="content" xmlns="http://www.w3.org/2000/svg" xmlns:xlink="http://www.w3.org/1999/xlink" x="0px" y="0px"
	 width="500px" height="500px" viewBox="0 0 500 500" enable-background="new 0 0 500 500" xml:space="preserve">
<g id="bounds" display="none">
	<rect x="0" y="0" display="inline" fill="none" stroke="#000000" stroke-miterlimit="10" width="500" height="500"/>
</g>
<g id="chooser">
	<path fill="#006CB0" d="M343.27,136.636H157.775l-24.401,226.087c-0.595,7.606,20.044,15.43,46.083,17.448
		c26.031,2.021,47.619-2.522,48.208-10.136l22.813-159.883h0.045l22.813,159.883c0.593,7.609,22.178,12.156,48.217,10.136
		c26.032-2.021,46.672-9.842,46.08-17.448L343.27,136.636z"/>
	<path fill="#FFFFFF" d="M137.506,369.227c1.566,1.05,3.481,2.064,5.704,3.027l25.882-235.868h-6.035L137.506,369.227z"/>
	<path fill="#FFFFFF" d="M363.592,369.227c-1.568,1.05-3.483,2.064-5.704,3.027l-25.882-235.868h6.035L363.592,369.227z"/>
	<path fill="#003651" d="M157.775,136.636c0,8.989,41.525,16.292,92.743,16.292c51.227,0,92.75-7.303,92.75-16.292
		c0-8.992-41.523-16.291-92.75-16.291C199.301,120.345,157.775,127.644,157.775,136.636z"/>
</g>
</svg>
