<?xml version="1.0" encoding="utf-8"?>
<!-- Generator: Adobe Illustrator 18.0.0, SVG Export Plug-In . SVG Version: 6.00 Build 0)  -->
<!DOCTYPE svg PUBLIC "-//W3C//DTD SVG 1.1//EN" "http://www.w3.org/Graphics/SVG/1.1/DTD/svg11.dtd">
<svg version="1.1" id="content" xmlns="http://www.w3.org/2000/svg" xmlns:xlink="http://www.w3.org/1999/xlink" x="0px" y="0px"
	 width="500px" height="500px" viewBox="0 0 500 500" enable-background="new 0 0 500 500" xml:space="preserve">
<g id="bounds" display="none">
	<rect x="0.5" y="0.5" display="inline" fill="none" stroke="#37393A" stroke-miterlimit="10" width="500" height="500"/>
</g>
<g>
	<path fill="#E6E6E6" d="M156.3,128.9l-18.9,198.6c0,1.5,6.9,2.7,15.3,2.7c8.5,0,15.3-1.2,15.3-2.7l80.9-198.6H156.3z"/>
	<path fill="#666666" d="M156.3,128.9c0,4.5,20.7,8.1,46.3,8.1c25.6,0,46.3-3.6,46.3-8.1c0-4.5-20.7-8.1-46.3-8.1
		C177,120.8,156.3,124.4,156.3,128.9z"/>
	<path fill="#1A1A1A" d="M215.3,136.7l11.5,11.5l-11.9,11.9l-11.9-11.9l11.4-11.4c-0.3,0-0.5,0-0.8,0l-11,11l-11-11
		c-0.3,0-0.5,0-0.8,0l11.4,11.4l-11.9,11.9l-11.9-11.9l11.5-11.5c-0.2,0-0.5,0-0.7,0l-11.1,11.1l-11.9-11.9l1.7-1.7
		c-0.2,0-0.4-0.1-0.6-0.1l-1.4,1.4l-2.4-2.4c-0.4-0.1-0.7-0.2-1.1-0.3l3,3l-10.4,10.4l-0.1,0.8l10.9-10.9l11.9,11.9l-11.9,11.9
		L154.4,149l-0.1,0.7l10.8,10.8l-11.9,11.9l-0.9-0.9l-0.1,0.7l0.6,0.6l-0.7,0.7l-0.1,0.8l1.2-1.2l11.9,11.9l-11.9,11.9l-3-3
		l-0.1,0.7l2.7,2.7l-3.3,3.3l-0.1,0.8l3.8-3.8l11.9,11.9l-11.9,11.9l-5.2-5.2l-0.1,0.7l4.9,4.9l-5.9,5.9l-0.1,0.8l6.4-6.4l11.9,11.9
		l-11.9,11.9l-7.3-7.3l-0.1,0.7l7,7l-8.5,8.5l-0.1,0.8l9-9l11.9,11.9l-11.9,11.9l-9.5-9.5l-0.1,0.7l9.2,9.2l-11.1,11.1l-0.1,0.8
		l11.6-11.6l11.9,11.9l-11.9,11.9l-11.6-11.6l-0.1,0.7l11.3,11.3l-11.9,11.9l-1.4-1.4l-0.1,0.7l1.1,1.1l-1.4,1.4l-0.1,0.8l1.8-1.8
		l11.9,11.9l-8.9,8.9c0.2,0,0.5,0.1,0.7,0.1l8.6-8.6l8.5,8.5c0.2,0,0.5-0.1,0.7-0.1l-8.8-8.8l11.9-11.9l7.2,7.2l0.2-0.5l-7-7
		l11.9-11.9l2,2l0.2-0.5l-1.9-1.9l4.4-4.4l0.5-1.3l-5.3,5.3l-11.9-11.9l11.9-11.9l9.1,9.1l0.2-0.5l-9-9l11.9-11.9l4,4l0.2-0.5
		l-3.8-3.8l9-9l0.5-1.3l-9.9,9.9l-11.9-11.9l11.9-11.9l11.1,11.1l0.2-0.5l-10.9-10.9l11.9-11.9l5.9,5.9l0.2-0.5l-5.7-5.7l11.9-11.9
		l0.7,0.7l0.2-0.5l-0.5-0.5l1.3-1.3l0.5-1.3l-2.2,2.2l-11.9-11.9l11.9-11.9l7.8,7.8l0.2-0.5l-7.7-7.7l11.9-11.9l2.6,2.6l0.2-0.5
		l-2.5-2.5l5.9-5.9l0.5-1.3l-6.8,6.8l-11.9-11.9l11.9-11.9l9.8,9.8l0.2-0.5L216,136.7C215.7,136.7,215.5,136.7,215.3,136.7z
		 M202.5,148.6l11.9,11.9l-11.9,11.9l-11.9-11.9L202.5,148.6z M202.1,172.8l-11.9,11.9l-11.9-11.9l11.9-11.9L202.1,172.8z
		 M189.8,209.8l-11.9,11.9l-11.9-11.9l11.9-11.9L189.8,209.8z M165.9,185.2l11.9-11.9l11.9,11.9l-11.9,11.9L165.9,185.2z
		 M178.2,197.5l11.9-11.9l11.9,11.9l-11.9,11.9L178.2,197.5z M177.8,148.6l11.9,11.9l-11.9,11.9l-11.9-11.9L177.8,148.6z
		 M153.5,172.8l11.9-11.9l11.9,11.9l-11.9,11.9L153.5,172.8z M153.5,197.5l11.9-11.9l11.9,11.9l-11.9,11.9L153.5,197.5z
		 M153.5,222.1l11.9-11.9l11.9,11.9l-11.9,11.9L153.5,222.1z M153.5,246.8l11.9-11.9l11.9,11.9l-11.9,11.9L153.5,246.8z
		 M153.2,320.4l-11.9-11.9l11.9-11.9l11.9,11.9L153.2,320.4z M177.4,296.1l-11.9,11.9l-11.9-11.9l11.9-11.9L177.4,296.1z
		 M165.5,283.4l-11.9-11.9l11.9-11.9l11.9,11.9L165.5,283.4z M189.8,259.1l-11.9,11.9l-11.9-11.9l11.9-11.9L189.8,259.1z
		 M177.8,246.4l-11.9-11.9l11.9-11.9l11.9,11.9L177.8,246.4z M190.1,234.1l-11.9-11.9l11.9-11.9l11.9,11.9L190.1,234.1z
		 M214.4,209.8l-11.9,11.9l-11.9-11.9l11.9-11.9L214.4,209.8z M202.5,197.1l-11.9-11.9l11.9-11.9l11.9,11.9L202.5,197.1z
		 M226.7,172.8l-11.9,11.9l-11.9-11.9l11.9-11.9L226.7,172.8z"/>
	<circle fill="#1A1A1A" cx="160.6" cy="158.3" r="6.9"/>
	<circle fill="#1A1A1A" cx="172.9" cy="162.8" r="6.9"/>
	<circle fill="#1A1A1A" cx="186.7" cy="165.2" r="7.3"/>
	<circle fill="#1A1A1A" cx="200.5" cy="166" r="7.3"/>
	<circle fill="#1A1A1A" cx="214.3" cy="165.2" r="6.9"/>
	<path fill="#1A1A1A" d="M220.9,162.9c0-3.9,17.3-7.7,17.3-7.7s-2.3,5.6-3.9,9.4c-1.5,3.6-2.5,5.3-6.4,5.3
		C224.1,169.9,220.9,166.7,220.9,162.9z"/>
	<path fill="#1A1A1A" d="M248.6,129.9c-2.9,4-22.3,7.1-45.9,7.1c-25.6,0-46.4-3.6-46.4-8.1l-2.7,28.8c0,0,0,0,0,0
		c0,4,18.8,7.5,41.9,7.5c23,0,40-3.3,41.7-7.3c0,0,0,0,0,0l0,0L248.6,129.9z"/>
	<circle fill="#666666" cx="160.6" cy="158.3" r="3.9"/>
	<circle fill="#666666" cx="172.9" cy="162.1" r="3.9"/>
	<circle fill="#666666" cx="186.7" cy="164.3" r="3.9"/>
	<circle fill="#666666" cx="200.5" cy="165.2" r="3.9"/>
	<circle fill="#666666" cx="214.3" cy="163.8" r="3.9"/>
	<circle fill="#666666" cx="228.4" cy="161.3" r="3.9"/>
	<path fill="#E6E6E6" d="M348.1,128.9L367,327.5c0,1.5-6.9,2.7-15.3,2.7c-8.5,0-15.3-1.2-15.3-2.7l-80.9-198.6H348.1z"/>
	<path fill="#666666" d="M301.8,120.8c-25.6,0-46.3,3.6-46.3,8.1c0,4.5,20.7,8.1,46.3,8.1c25.6,0,46.3-3.6,46.3-8.1
		S327.3,120.8,301.8,120.8z"/>
	<path fill="#1A1A1A" d="M288.4,136.7l-21.1,21.1l0.2,0.5l9.8-9.8l11.9,11.9l-11.9,11.9l-6.8-6.8l0.5,1.3l5.9,5.9l-2.5,2.5l0.2,0.5
		l2.6-2.6l11.9,11.9l-7.7,7.7l0.2,0.5l7.8-7.8l11.9,11.9l-11.9,11.9l-2.2-2.2l0.5,1.3l1.3,1.3l-0.5,0.5l0.2,0.5l0.7-0.7l11.9,11.9
		l-5.7,5.7l0.2,0.5l5.9-5.9l11.9,11.9l-10.9,10.9l0.2,0.5l11.1-11.1l11.9,11.9l-11.9,11.9l-9.9-9.9l0.5,1.3l9,9l-3.8,3.8l0.2,0.5
		l4-4l11.9,11.9l-9,9l0.2,0.5l9.1-9.1l11.9,11.9l-11.9,11.9l-5.3-5.3l0.5,1.3l4.4,4.4l-1.9,1.9l0.2,0.5l2-2l11.9,11.9l-7,7l0.2,0.5
		l7.2-7.2l11.9,11.9l-8.8,8.8c0.2,0,0.4,0.1,0.7,0.1l8.5-8.5l8.6,8.6c0.2,0,0.5-0.1,0.7-0.1l-8.9-8.9l11.9-11.9l1.8,1.8l-0.1-0.8
		l-1.4-1.4l1.1-1.1l-0.1-0.7l-1.4,1.4l-11.9-11.9l11.3-11.3l-0.1-0.7l-11.6,11.6l-11.9-11.9l11.9-11.9l11.6,11.6l-0.1-0.8
		l-11.1-11.1l9.2-9.2l-0.1-0.7l-9.5,9.5l-11.9-11.9l11.9-11.9l9,9l-0.1-0.8l-8.5-8.5l7-7l-0.1-0.7l-7.3,7.3l-11.9-11.9l11.9-11.9
		l6.4,6.4l-0.1-0.8l-5.9-5.9l4.9-4.9l-0.1-0.7l-5.2,5.2l-11.9-11.9l11.9-11.9l3.8,3.8l-0.1-0.8l-3.3-3.3l2.7-2.7l-0.1-0.7l-3,3
		l-11.9-11.9l11.9-11.9l1.2,1.2l-0.1-0.8l-0.7-0.7l0.6-0.6l-0.1-0.7l-0.9,0.9l-11.9-11.9l10.8-10.8L350,149l-11.1,11.1l-11.9-11.9
		l11.9-11.9l10.9,10.9l-0.1-0.8l-10.4-10.4l3-3c-0.3,0.1-0.7,0.2-1.1,0.3l-2.4,2.4l-1.4-1.4c-0.2,0-0.4,0.1-0.6,0.1l1.7,1.7
		l-11.9,11.9l-11.1-11.1c-0.2,0-0.5,0-0.7,0l11.5,11.5l-11.9,11.9l-11.9-11.9l11.4-11.4c-0.3,0-0.5,0-0.8,0l-11,11l-11-11
		c-0.3,0-0.5,0-0.8,0l11.4,11.4l-11.9,11.9l-11.9-11.9l11.5-11.5C288.9,136.7,288.6,136.7,288.4,136.7z M313.9,160.5l-11.9,11.9
		L290,160.5l11.9-11.9L313.9,160.5z M314.2,160.9l11.9,11.9l-11.9,11.9l-11.9-11.9L314.2,160.9z M326.6,197.9l11.9,11.9l-11.9,11.9
		l-11.9-11.9L326.6,197.9z M326.6,197.1l-11.9-11.9l11.9-11.9l11.9,11.9L326.6,197.1z M314.2,209.4l-11.9-11.9l11.9-11.9l11.9,11.9
		L314.2,209.4z M338.5,160.5l-11.9,11.9l-11.9-11.9l11.9-11.9L338.5,160.5z M338.9,184.8l-11.9-11.9l11.9-11.9l11.9,11.9
		L338.9,184.8z M338.9,209.4l-11.9-11.9l11.9-11.9l11.9,11.9L338.9,209.4z M338.9,234.1l-11.9-11.9l11.9-11.9l11.9,11.9L338.9,234.1
		z M338.9,258.7l-11.9-11.9l11.9-11.9l11.9,11.9L338.9,258.7z M339.3,308.4l11.9-11.9l11.9,11.9l-11.9,11.9L339.3,308.4z
		 M338.9,284.2l11.9,11.9l-11.9,11.9l-11.9-11.9L338.9,284.2z M326.9,271.5l11.9-11.9l11.9,11.9l-11.9,11.9L326.9,271.5z
		 M326.6,247.2l11.9,11.9l-11.9,11.9l-11.9-11.9L326.6,247.2z M314.6,234.5l11.9-11.9l11.9,11.9l-11.9,11.9L314.6,234.5z
		 M302.3,222.1l11.9-11.9l11.9,11.9l-11.9,11.9L302.3,222.1z M301.9,197.9l11.9,11.9l-11.9,11.9L290,209.8L301.9,197.9z M290,185.2
		l11.9-11.9l11.9,11.9l-11.9,11.9L290,185.2z M289.6,160.9l11.9,11.9l-11.9,11.9l-11.9-11.9L289.6,160.9z"/>
	<circle fill="#1A1A1A" cx="343.8" cy="158.3" r="6.9"/>
	<circle fill="#1A1A1A" cx="331.5" cy="162.8" r="6.9"/>
	<circle fill="#1A1A1A" cx="317.7" cy="165.2" r="7.3"/>
	<circle fill="#1A1A1A" cx="303.9" cy="166" r="7.3"/>
	<circle fill="#1A1A1A" cx="290.1" cy="165.2" r="6.9"/>
	<path fill="#1A1A1A" d="M283.4,162.9c0-3.9-17.3-7.7-17.3-7.7s2.3,5.6,3.9,9.4c1.5,3.6,2.5,5.3,6.4,5.3
		C280.3,169.9,283.4,166.7,283.4,162.9z"/>
	<path fill="#1A1A1A" d="M255.8,129.9c2.9,4,22.3,7.1,45.9,7.1c25.6,0,46.4-3.6,46.4-8.1l2.7,28.8c0,0,0,0,0,0
		c0,4-18.8,7.5-41.9,7.5c-23,0-40-3.3-41.7-7.3c0,0,0,0,0,0l0,0L255.8,129.9z"/>
	<circle fill="#666666" cx="343.8" cy="158.3" r="3.9"/>
	<circle fill="#666666" cx="331.5" cy="162.1" r="3.9"/>
	<circle fill="#666666" cx="317.7" cy="164.3" r="3.9"/>
	<circle fill="#666666" cx="303.9" cy="165.2" r="3.9"/>
	<circle fill="#666666" cx="290.1" cy="163.8" r="3.9"/>
	<circle fill="#666666" cx="275.9" cy="161.3" r="3.9"/>
</g>
</svg>
