<?xml version="1.0" encoding="utf-8"?>
<!-- Generator: Adobe Illustrator 18.0.0, SVG Export Plug-In . SVG Version: 6.00 Build 0)  -->
<!DOCTYPE svg PUBLIC "-//W3C//DTD SVG 1.1//EN" "http://www.w3.org/Graphics/SVG/1.1/DTD/svg11.dtd">
<svg version="1.1" id="content" xmlns="http://www.w3.org/2000/svg" xmlns:xlink="http://www.w3.org/1999/xlink" x="0px" y="0px"
	 width="500px" height="500px" viewBox="0 0 500 500" enable-background="new 0 0 500 500" xml:space="preserve">
<rect id="position" display="none" fill="none" stroke="#000000" width="500" height="500"/>
<path d="M230.9,387.7l-4.5-4.6l-2.7-2.7l6.8-6.9c0.2-0.8,0.3-1.6,0.3-2.4l-7.1-7.2l5-5.1c-0.1-0.3-0.3-0.6-0.4-0.9l-5.5,5.5
	l-7.2-7.3l6.2-6.3c-0.4-0.3-0.8-0.6-1.1-0.9l-6,6.1l-7.2-7.3l3-3c-0.5-0.1-1.1-0.1-1.6-0.2l-2.3,2.3l-2.3-2.3
	c-0.5,0.1-1.1,0.1-1.6,0.2l2.9,3l-7.2,7.3l-6-6.1c-0.4,0.3-0.7,0.5-1.1,0.8l6.2,6.3l-7.2,7.3l-5.5-5.5c-0.2,0.4-0.4,0.7-0.5,1.1
	l5.2,5.3l-7.2,7.3c0.1,0.8,0.2,1.5,0.3,2.2l6.8,6.9l-2.6,2.6l-4.6,4.7v1.8l7.2,7.3l-7.2,7.3v1.8l7.2,7.3l-7.2,7.3v1.8l7.2,7.3h1.8
	l7.2-7.3l7.2,7.3h1.8l7.2-7.3l7.2,7.3h1.8l7.2-7.3v-1.9l-7.2-7.3l7.2-7.3v-1.9l-7.2-7.3l7.2-7.3V387.7z M230,372.7l-7.2,7.3
	l-7.2-7.3l7.2-7.3L230,372.7z M199.3,372.7l7.2-7.3l7.2,7.3l-7.2,7.3L199.3,372.7z M213.7,389.2l-3.8,3.9l-3.4,3.4l-3.4-3.4
	l-3.8-3.9l7.2-7.3L213.7,389.2z M205.6,381l-7.2,7.3l-7.2-7.3l7.2-7.3L205.6,381z M200.8,392.6l4.8,4.9l-7.2,7.3l-7.2-7.3l6-6.1
	l1.2-1.2L200.8,392.6z M206.5,398.4l7.2,7.3l-7.2,7.3l-7.2-7.3L206.5,398.4z M207.4,397.5l4.8-4.9l2.4-2.4l1.2,1.3l6,6l-7.2,7.3
	L207.4,397.5z M207.4,381l7.2-7.3l7.2,7.3l-7.2,7.3L207.4,381z M221.8,364.5l-7.2,7.3l-7.2-7.3l7.2-7.3L221.8,364.5z M206.5,348.9
	l7.2,7.3l-7.2,7.3l-7.2-7.3L206.5,348.9z M198.4,357.2l7.2,7.3l-7.2,7.3l-7.2-7.3L198.4,357.2z M183.1,372.7l7.2-7.3l7.2,7.3
	l-7.2,7.3L183.1,372.7z M183.1,389.2l4.7-4.7l2.5-2.6l7.2,7.3l-1.6,1.6l-5.6,5.7L183.1,389.2z M183.1,405.7l7.2-7.3l7.2,7.3
	l-7.2,7.3L183.1,405.7z M190.3,429.6l-7.2-7.3l7.2-7.3l7.2,7.3L190.3,429.6z M198.4,421.3l-7.2-7.3l7.2-7.3l7.2,7.3L198.4,421.3z
	 M206.5,429.6l-7.2-7.3l7.2-7.3l7.2,7.3L206.5,429.6z M214.6,421.3l-7.2-7.3l7.2-7.3l7.2,7.3L214.6,421.3z M230,422.2l-7.2,7.3
	l-7.2-7.3l7.2-7.3L230,422.2z M230,405.7l-7.2,7.3l-7.2-7.3l7.2-7.3L230,405.7z M222.8,396.5l-5.6-5.7l-1.6-1.6l7.2-7.3l2.5,2.6
	l4.7,4.7L222.8,396.5z"/>
</svg>
