<?xml version="1.0" encoding="utf-8"?>
<!-- Generator: Adobe Illustrator 16.0.0, SVG Export Plug-In . SVG Version: 6.00 Build 0)  -->
<!DOCTYPE svg PUBLIC "-//W3C//DTD SVG 1.1//EN" "http://www.w3.org/Graphics/SVG/1.1/DTD/svg11.dtd">
<svg version="1.1" id="content" xmlns="http://www.w3.org/2000/svg" xmlns:xlink="http://www.w3.org/1999/xlink" x="0px" y="0px"
	 width="500px" height="500px" viewBox="0 0 500 500" enable-background="new 0 0 500 500" xml:space="preserve">
<rect id="position" display="none" fill="none" stroke="#000000" width="500" height="500"/>
<g id="leg">
	<path fill="#535353" d="M173.2,372.6l-3.4,33.7v6.3c0,0,6.6-3.4,13.4,0c0,0,6.6-3,13.4,0c0,0,6.3-2.7,13.4,0c0,0,7-3.4,13.4,0
		c0,0,6.2-3.1,13.4,0c0,0,6.5-3.1,13.4,0c0-2.9,0-6.3,0-6.3v-33.7H173.2z"/>
	<path fill="#7A7A7A" d="M173.2,372.6h10.8v32.6v7l-0.8,0.3c0,0-3.1-1.3-6.9-1.3s-6.5,1.3-6.5,1.3v-6.3L173.2,372.6z"/>
	<path fill="#7A7A7A" d="M199.5,372.6h10.8v39.8l-0.4,0.2c0,0-3.1-1-5.4-1.1c-2.4-0.1-4.9,0.2-4.9,0.2V372.6z"/>
	<path fill="#7A7A7A" d="M225.9,372.6h10.8v39.9c0,0-2.8-1.1-5.6-1.3c-2.8-0.1-5.2,0.4-5.2,0.4L225.9,372.6L225.9,372.6z"/>
	<rect x="173.2" y="383.3" fill="#464646" width="76.8" height="4.6"/>
	<polygon fill="#464646" points="250,377.1 173.2,377.1 173.2,372.6 250,372.6 	"/>
	<rect x="199.5" y="372.6" fill="#5D5D5D" width="10.8" height="4.6"/>
	<polygon fill="#5D5D5D" points="173.2,372.6 183.9,372.6 183.9,377.1 172.7,377.1 	"/>
	<rect x="199.5" y="383.3" fill="#5D5D5D" width="10.8" height="4.6"/>
	<polygon fill="#5D5D5D" points="172.1,383.3 183.9,383.3 183.9,387.9 171.6,387.9 	"/>
	<rect x="173.2" y="394.1" fill="#464646" width="76.8" height="4.6"/>
	<rect x="173.2" y="403" fill="#464646" width="76.8" height="4.6"/>
	<rect x="199.5" y="394.1" fill="#5D5D5D" width="10.8" height="4.6"/>
	<rect x="199.5" y="403" fill="#5D5D5D" width="10.8" height="4.6"/>
	<polygon fill="#5D5D5D" points="171,394.1 183.9,394.1 183.9,398.7 170.6,398.7 	"/>
	<polygon fill="#5D5D5D" points="169.8,406.2 170.1,403 183.9,403 183.9,407.5 169.8,407.5 	"/>
	<rect x="225.9" y="372.6" fill="#5D5D5D" width="10.8" height="4.6"/>
	<rect x="225.9" y="383.3" fill="#5D5D5D" width="10.8" height="4.6"/>
	<rect x="225.9" y="394.1" fill="#5D5D5D" width="10.8" height="4.6"/>
	<rect x="225.9" y="403" fill="#5D5D5D" width="10.8" height="4.6"/>
</g>
<path fill="#7A7A7A" d="M249.6,372.6v33.7c0,0,0,3.4,0,6.3c6.8-3.1,13.4,0,13.4,0c7.2-3.1,13.4,0,13.4,0c6.4-3.4,13.4,0,13.4,0
	c7.1-2.7,13.4,0,13.4,0c6.8-3,13.4,0,13.4,0c6.8-3.4,13.4,0,13.4,0v-6.3l-3.4-33.7H249.6z"/>
<path fill="#535353" d="M329.8,406.2v6.3c0,0-2.7-1.3-6.5-1.3c-3.8,0-6.9,1.3-6.9,1.3l-0.8-0.3v-7v-32.6h10.8L329.8,406.2z"/>
<path fill="#535353" d="M300.1,411.6c0,0-2.5-0.3-4.9-0.2c-2.4,0.1-5.4,1.1-5.4,1.1l-0.4-0.2v-39.8h10.8V411.6z"/>
<path fill="#535353" d="M273.7,372.6v39c0,0-2.4-0.5-5.2-0.4c-2.8,0.1-5.6,1.3-5.6,1.3v-39.9H273.7L273.7,372.6z"/>
<rect x="249.6" y="383.3" fill="#5D5D5D" width="76.8" height="4.6"/>
<polygon fill="#5D5D5D" points="249.6,372.6 326.4,372.6 326.4,377.1 249.6,377.1 "/>
<rect x="289.3" y="372.6" fill="#464646" width="10.8" height="4.6"/>
<polygon fill="#464646" points="326.9,377.1 315.6,377.1 315.6,372.6 326.4,372.6 "/>
<rect x="289.3" y="383.3" fill="#464646" width="10.8" height="4.6"/>
<polygon fill="#464646" points="327.9,387.9 315.6,387.9 315.6,383.3 327.5,383.3 "/>
<rect x="249.6" y="394.1" fill="#5D5D5D" width="76.8" height="4.6"/>
<rect x="249.6" y="403" fill="#5D5D5D" width="76.8" height="4.6"/>
<rect x="289.3" y="394.1" fill="#464646" width="10.8" height="4.6"/>
<rect x="289.3" y="403" fill="#464646" width="10.8" height="4.6"/>
<polygon fill="#464646" points="329,398.7 315.6,398.7 315.6,394.1 328.6,394.1 "/>
<polygon fill="#464646" points="329.8,407.5 315.6,407.5 315.6,403 329.5,403 329.8,406.2 "/>
<rect x="262.9" y="372.6" fill="#464646" width="10.8" height="4.6"/>
<rect x="262.9" y="383.3" fill="#464646" width="10.8" height="4.6"/>
<rect x="262.9" y="394.1" fill="#464646" width="10.8" height="4.6"/>
<rect x="262.9" y="403" fill="#464646" width="10.8" height="4.6"/>
<polygon opacity="0.5" fill="#2D2D2D" enable-background="new    " points="326.6,372.6 173.2,372.6 172.6,378.5 327.2,378.5 "/>
</svg>
