<?xml version="1.0" encoding="utf-8"?>
<!-- Generator: Adobe Illustrator 16.0.0, SVG Export Plug-In . SVG Version: 6.00 Build 0)  -->
<!DOCTYPE svg PUBLIC "-//W3C//DTD SVG 1.1//EN" "http://www.w3.org/Graphics/SVG/1.1/DTD/svg11.dtd">
<svg version="1.1" id="content" xmlns="http://www.w3.org/2000/svg" xmlns:xlink="http://www.w3.org/1999/xlink" x="0px" y="0px"
	 width="500px" height="500px" viewBox="0 0 500 500" enable-background="new 0 0 500 500" xml:space="preserve">
<rect id="position" display="none" fill="none" stroke="#000000" width="500" height="500"/>
<g>
	<polygon fill="#DFD96F" points="357.1,398.2 355.6,403.3 143.5,403.3 142.1,356.2 355.9,355.8 360.1,398.4 	"/>
	<g>
		<path fill="#CCCC66" d="M250.4,403.3c-2.8,0-5-2.2-5-5v-42.5c0-2.8,2.2-5,5-5c2.8,0,5,2.2,5,5v42.5
			C255.4,401.1,253.2,403.3,250.4,403.3z"/>
	</g>
	<g>
		<g>
			<path fill="#CCCC66" d="M250,403.3c-2.8,0-5-2.2-5-5v-42.5c0-2.8,2.2-5,5-5s5,2.2,5,5v42.5C255,401.1,252.7,403.3,250,403.3z"/>
		</g>
		<g>
			<path fill="#CCCC66" d="M221.1,403.4c-0.2,0-0.4,0-0.6,0c-2.7-0.2-4.8-2.5-4.7-5.4l2.8-42.7c0.2-2.7,2.5-4.8,5.4-4.7
				c2.7,0.2,4.8,2.5,4.7,5.4l-2.8,42.7C225.7,401.4,223.6,403.3,221.1,403.4z"/>
		</g>
		<g>
			<path fill="#CCCC66" d="M192.7,403.2c-0.4,0-0.8,0.2-1.2,0.1c-2.7-0.2-4.7-2.8-4.5-5.5l4.5-43.5c0.2-2.7,2.8-4.7,5.5-4.5
				c2.7,0.2,4.7,2.8,4.5,5.5l-4.4,43.5C196.8,401.2,195,402.9,192.7,403.2z"/>
		</g>
		<g>
			<path fill="#CCCC66" d="M167.6,403.3c-0.6,0.1-1.1,0-1.7,0c-2.7-0.5-4.5-3.1-4-5.9l4-43.6c0.5-2.7,3.1-4.5,5.9-4
				c2.7,0.5,4.5,3.1,4,5.9l-4,43.6C171.4,401.4,169.7,402.9,167.6,403.3z"/>
		</g>
		<g>
			<path fill="#CCCC66" d="M143.5,403.3c-0.7,0-1.5-0.2-2.2-0.5c-2.2-0.8-2.7-2.2-2.5-4.5l1.6-38.3c1.2-2.5,7.2-9.9,9.7-8.7
				s2.5,4.2,1.3,6.7l-3.4,42.5C147.2,402.3,145.4,403.3,143.5,403.3z"/>
		</g>
	</g>
	<g>
		<g>
			<path fill="#CCCC66" d="M273.2,398.7l-2.8-42.7c-0.1-2.8,2-5.2,4.7-5.4c2.8-0.1,5.2,2,5.4,4.7l2.8,42.7c0.1,2.8-2,5.2-4.7,5.4
				c-0.2,0-0.4,0-0.6,0C275.5,403.2,273.4,401.3,273.2,398.7z"/>
		</g>
		<g>
			<path fill="#CCCC66" d="M302,398.8l-4.4-43.5c-0.2-2.7,1.8-5.3,4.5-5.5c2.7-0.2,5.3,1.8,5.5,4.5l4.5,43.5
				c0.2,2.7-1.8,5.3-4.5,5.5c-0.4,0.1-0.8-0.1-1.2-0.1C304.1,402.9,302.3,401.2,302,398.8z"/>
		</g>
		<g>
			<path fill="#CCCC66" d="M327.3,399.3l-4-43.6c-0.5-2.8,1.3-5.4,4-5.9c2.8-0.5,5.4,1.3,5.9,4l4,43.6c0.5,2.8-1.3,5.4-4,5.9
				c-0.6,0-1.1,0.1-1.7,0C329.4,402.9,327.7,401.4,327.3,399.3z"/>
		</g>
		<g>
			<path fill="#CCCC66" d="M351.1,400.5l-3.4-42.5c-1.2-2.5-1.2-5.5,1.3-6.7s8.5,6.2,9.7,8.7l1.6,38.3c0.2,2.3-0.3,3.7-2.5,4.5
				c-0.7,0.3-1.5,0.5-2.2,0.5C353.7,403.3,351.9,402.3,351.1,400.5z"/>
		</g>
	</g>
	<rect x="140.4" y="348" fill="#A7A253" width="218.3" height="12"/>
</g>
</svg>
