<?xml version="1.0" encoding="utf-8"?>
<!-- Generator: Adobe Illustrator 18.0.0, SVG Export Plug-In . SVG Version: 6.00 Build 0)  -->
<!DOCTYPE svg PUBLIC "-//W3C//DTD SVG 1.1//EN" "http://www.w3.org/Graphics/SVG/1.1/DTD/svg11.dtd">
<svg version="1.1" id="content" xmlns="http://www.w3.org/2000/svg" xmlns:xlink="http://www.w3.org/1999/xlink" x="0px" y="0px"
	 width="500px" height="500px" viewBox="0 0 500 500" enable-background="new 0 0 500 500" xml:space="preserve">
<g id="bounds" display="none">
	<rect display="inline" fill="none" stroke="#000000" stroke-miterlimit="10" width="500" height="500"/>
</g>
<g id="chooser">
	<path fill="#E0E0E0" d="M236.6,367.5l2.2-22.2c0.7-13.1-24.2-26.6-55.7-30.1c-31.5-3.5-57.6,4.4-58.3,17.5l-2.2,22.1
		C122.7,351.5,236.8,364.5,236.6,367.5z"/>
	<path fill="#E0E0E0" d="M378.4,354.8l-2.2-22.1c-0.7-13.1-26.8-21-58.3-17.5c-31.5,3.5-56.5,17-55.7,30.1l2.2,22.2
		C264.2,364.5,378.2,351.5,378.4,354.8z"/>
	<path fill="#CA0000" d="M343.3,136.6H157.8l-24.4,226.1c-0.6,7.6,20,15.4,46.1,17.5c26,2,47.6-2.5,48.2-10.1l22.8-159.9h0
		L273.3,370c0.6,7.6,22.2,12.2,48.2,10.1c26-2,46.7-9.8,46.1-17.5L343.3,136.6z"/>
	<path fill="#930000" d="M157.8,136.6c0,9,41.5,16.3,92.7,16.3c51.2,0,92.8-7.3,92.8-16.3c0-9-41.5-16.3-92.8-16.3
		C199.3,120.3,157.8,127.6,157.8,136.6z"/>
	<path fill="#E0E0E0" d="M378.2,353.4c0.7,13.1-24.2,26.6-55.7,30.1c-31.5,3.5-57.6-4.4-58.3-17.5l-2.2-22.1
		c0.7,13.1,27,20.9,58.5,17.4c31.5-3.5,56.5-16.1,55.8-29.2L378.2,353.4z"/>
	<path fill="#E0E0E0" d="M124.8,332.1c-0.7,13.1,24.3,25.7,55.8,29.2c31.5,3.5,57.7-4.2,58.5-17.4l-2.2,22.1
		c-0.7,13.1-26.8,21-58.3,17.5c-31.5-3.5-56.5-17-55.7-30.1L124.8,332.1z"/>
</g>
</svg>
