<?xml version="1.0" encoding="utf-8"?>
<!-- Generator: Adobe Illustrator 18.0.0, SVG Export Plug-In . SVG Version: 6.00 Build 0)  -->
<!DOCTYPE svg PUBLIC "-//W3C//DTD SVG 1.1//EN" "http://www.w3.org/Graphics/SVG/1.1/DTD/svg11.dtd">
<svg version="1.1" id="content" xmlns="http://www.w3.org/2000/svg" xmlns:xlink="http://www.w3.org/1999/xlink" x="0px" y="0px"
	 width="500px" height="500px" viewBox="0 0 500 500" enable-background="new 0 0 500 500" xml:space="preserve">
<g id="bounds" display="none">
	<rect display="inline" fill="none" stroke="#000000" stroke-miterlimit="10" width="500" height="500"/>
</g>
<g id="chooser">
	<path fill="#063147" d="M343.3,136.6H157.8l-24.4,226.1c-0.6,7.6,20,15.4,46.1,17.5c26,2,47.6-2.5,48.2-10.1l22.8-159.9h0
		L273.3,370c0.6,7.6,22.2,12.2,48.2,10.1c26-2,46.7-9.8,46.1-17.5L343.3,136.6z"/>
	<path fill="#04212D" d="M157.8,136.6c0,9,41.5,16.3,92.7,16.3c51.2,0,92.8-7.3,92.8-16.3c0-9-41.5-16.3-92.8-16.3
		C199.3,120.3,157.8,127.6,157.8,136.6z"/>
</g>
</svg>
