<?xml version="1.0" encoding="utf-8"?>
<!-- Generator: Adobe Illustrator 16.2.0, SVG Export Plug-In . SVG Version: 6.00 Build 0)  -->
<!DOCTYPE svg PUBLIC "-//W3C//DTD SVG 1.1//EN" "http://www.w3.org/Graphics/SVG/1.1/DTD/svg11.dtd">
<svg version="1.1" id="content" xmlns="http://www.w3.org/2000/svg" xmlns:xlink="http://www.w3.org/1999/xlink" x="0px" y="0px"
	 width="500px" height="500px" viewBox="0 0 500 500" enable-background="new 0 0 500 500" xml:space="preserve">
<g id="bounds" display="none">
	<rect x="0.5" y="0.5" display="inline" fill="none" stroke="#9EB0B7" stroke-miterlimit="10" width="500" height="500"/>
</g>
<path fill="#ED1F24" d="M361.848,244.799l-0.002-0.004c-0.021-0.286-0.088-0.565-0.172-0.842L338.82,131.631H163.47l-22.896,112.316
	c-0.086,0.28-0.152,0.563-0.175,0.854c-0.561,7.194,18.948,14.584,43.562,16.495c24.61,1.912,45.017-2.386,45.572-9.579v-0.001
	h0.001l21.588-47.107l21.584,47.102c0,0.002,0,0.004,0,0.006c0.562,7.193,20.965,11.491,45.577,9.579
	C342.896,259.385,362.405,251.994,361.848,244.799L361.848,244.799L361.848,244.799z"/>
<path fill="#FF8A8A" d="M323.064,196.47h0.52c0.283,0,1.287,1.002,3.008,3.008c-1.199,1.61-2.248,2.663-3.139,3.157
	c-2.512,0-5.303-1.053-8.373-3.157C318.139,197.472,320.799,196.47,323.064,196.47z M317.178,191.512
	c2.031,0,3.295,0.738,3.789,2.21V194h-0.26c-1.82,0-2.996-0.743-3.529-2.227V191.512z M322.936,186.019h0.258
	c3.766,1.993,5.941,3.955,6.535,5.886v0.129c0,1.114-0.391,2.375-1.17,3.787c-2.883-0.373-4.326-0.892-4.326-1.56
	c-0.949-1.51-1.43-3.998-1.43-7.463L322.936,186.019z M328.689,203.153c0.691,1.807,1.039,3.07,1.039,3.788v0.129
	c-0.357,1.733-2.58,3.738-6.664,6.015c-0.174-0.358-0.264-0.617-0.264-0.779c0.199-5.668,1.117-8.503,2.75-8.503
	C326.246,203.543,327.291,203.328,328.689,203.153z M330.119,198.048h1.316c0.605,0.755,0.908,1.325,0.908,1.709
	c-0.506,0.779-0.809,1.168-0.908,1.168h-1.316c-0.607-0.581-0.91-1.107-0.91-1.578C329.682,198.482,329.982,198.048,330.119,198.048
	z M330.787,210.858c0.605,0.73,0.91,1.43,0.91,2.098c0,0.805-0.305,1.548-0.91,2.227c-0.619-0.617-0.928-1.318-0.928-2.098v-0.26
	C329.859,212.058,330.168,211.403,330.787,210.858z M338.621,186.019v2.617c-0.334,4.271-1.119,6.404-2.357,6.404
	c-1.215,0.521-2.387,0.781-3.527,0.781c-0.52-1.622-0.863-2.971-1.037-4.047C332.947,189.409,335.254,187.491,338.621,186.019z
	 M332.996,203.153c2.971,0.421,4.457,1.071,4.457,1.95c0.779,1.362,1.168,3.236,1.168,5.625v2.097l-0.131,0.26
	c-3.402-1.757-5.668-3.718-6.793-5.883c0-0.744,0.389-2.092,1.17-4.049H332.996z M337.973,196.47h0.779
	c2.104,0,4.635,1.002,7.594,3.008c-1.574,1.276-3.709,2.283-6.406,3.027c-0.137,0-0.748,0.043-1.838,0.13
	c-0.891-0.472-1.936-1.524-3.137-3.157C336.301,197.819,337.303,196.816,337.973,196.47z M344.246,191.512l0.131,0.261
	c-0.568,1.484-1.746,2.227-3.527,2.227h-0.131l-0.26-0.129C341.066,192.3,342.328,191.512,344.246,191.512z"/>
<path fill="#FFFFFF" d="M197.469,210.231h0.432c0.235,0,1.068,0.831,2.493,2.494c-0.995,1.334-1.862,2.207-2.601,2.617
	c-2.082,0-4.396-0.873-6.94-2.617C193.386,211.062,195.591,210.231,197.469,210.231z M192.59,206.121
	c1.685,0,2.73,0.612,3.141,1.833v0.231h-0.217c-1.507,0-2.481-0.616-2.924-1.847V206.121L192.59,206.121z M197.363,201.568h0.213
	c3.122,1.653,4.926,3.278,5.419,4.879v0.105c0,0.922-0.325,1.968-0.971,3.139c-2.39-0.31-3.585-0.74-3.585-1.293
	c-0.788-1.252-1.184-3.313-1.184-6.186L197.363,201.568z M202.132,215.771c0.575,1.498,0.863,2.545,0.863,3.14v0.107
	c-0.299,1.436-2.14,3.099-5.525,4.985c-0.144-0.297-0.214-0.512-0.214-0.646c0.162-4.698,0.924-7.048,2.278-7.048
	C200.106,216.094,200.974,215.916,202.132,215.771z M203.317,211.54h1.092c0.502,0.625,0.754,1.098,0.754,1.416
	c-0.42,0.646-0.672,0.968-0.754,0.968h-1.092c-0.502-0.481-0.754-0.918-0.754-1.308C202.954,211.899,203.204,211.54,203.317,211.54z
	 M203.872,222.158c0.5,0.605,0.754,1.185,0.754,1.739c0,0.667-0.254,1.283-0.754,1.846c-0.513-0.512-0.769-1.093-0.769-1.739v-0.216
	C203.103,223.152,203.359,222.609,203.872,222.158z M210.366,201.568v2.17c-0.278,3.538-0.93,5.308-1.957,5.308
	c-1.005,0.432-1.978,0.647-2.922,0.647c-0.431-1.345-0.719-2.463-0.861-3.355C205.661,204.378,207.575,202.788,210.366,201.568z
	 M205.702,215.771c2.462,0.349,3.693,0.888,3.693,1.616c0.646,1.129,0.971,2.684,0.971,4.664v1.737l-0.108,0.216
	c-2.821-1.457-4.7-3.082-5.631-4.876c0-0.617,0.321-1.734,0.969-3.356L205.702,215.771L205.702,215.771z M209.827,210.231h0.646
	c1.744,0,3.843,0.831,6.294,2.494c-1.303,1.058-3.073,1.893-5.311,2.509c-0.112,0-0.62,0.036-1.521,0.108
	c-0.739-0.391-1.606-1.263-2.601-2.617C208.441,211.35,209.272,210.519,209.827,210.231z M215.027,206.121l0.108,0.217
	c-0.471,1.23-1.445,1.847-2.924,1.847h-0.106l-0.216-0.107C212.39,206.774,213.436,206.121,215.027,206.121z"/>
<path fill="#FFD1D1" d="M183.925,173.469l0.529,0.594l0.623,0.505l-0.172,0.211l-2.479-2.01l0.171-0.211l0.722,0.585
	C183.553,173.333,183.755,173.44,183.925,173.469z M186.517,177.449l0.199,0.162l-0.09,0.112c-0.751,0.08-1.293,0.321-1.623,0.728
	l-0.333,0.411l0.112,0.091c0.545-0.672,1.307-0.908,2.286-0.704l0.198,0.161l-1.429,0.718l-0.073,0.292l-0.081,0.101
	c-2.951-0.398-5.064-0.744-6.341-1.037c0.65-0.189,2.21-0.918,4.684-2.187c0.753,0.157,1.209,0.299,1.367,0.426l-0.082,0.101
	c-0.86,0.347-1.424,0.688-1.694,1.021l-0.171,0.21l0.112,0.09C184.843,177.123,185.828,176.891,186.517,177.449z M187.65,168.442
	l0.212,0.172c1.8,4.803,2.596,7.333,2.387,7.591l-0.122,0.583l-0.292-0.072c-0.331-0.999-0.342-1.689-0.033-2.07l-0.1-0.081
	l-0.252,0.311l-0.255,1.155l-0.198-0.16c-0.421-0.893-0.348-1.687,0.218-2.384l-0.112-0.091l-0.586,0.722
	c-0.111,0.393-0.152,0.868-0.125,1.426l-0.09,0.112l-0.511-0.414c-0.29-1.184-0.165-2.113,0.382-2.787l-0.111-0.091l-0.253,0.313
	c-0.402,0.733-0.591,1.323-0.568,1.769l-0.081,0.099c-0.863-0.7-0.737-2.476,0.378-5.327
	C187.472,169.164,187.509,168.904,187.65,168.442z M191.848,170.647l0.212,0.172c0.587,0.82,0.797,1.334,0.629,1.542l-0.082,0.101
	l-0.313-0.253c-0.349-0.283-0.816-0.545-1.403-0.789l-0.081,0.1l0.1,0.081c0.436,0.242,0.736,0.432,0.902,0.566
	c0.79,0.86,1.071,1.427,0.849,1.7l-0.171,0.212l-0.43-0.514l-0.311-0.252c-0.757-0.475-1.212-0.618-1.367-0.427l0.099,0.081
	c0.363,0.062,0.733,0.244,1.105,0.546c0.341,0.276,0.544,0.73,0.61,1.363l-0.081,0.099c-0.076-0.062-0.153-0.179-0.232-0.353
	c-0.584-0.365-1.046-0.567-1.384-0.607c-1.06-2.291-1.829-4.229-2.305-5.812L191.848,170.647z M185.564,180.102
	c0.154,0.469,0.552,0.965,1.191,1.483c-0.195,0.241-0.714,0.107-1.559-0.397c-0.173-0.14-0.428-0.464-0.761-0.968
	c-0.148,0.183,0.014,0.542,0.488,1.077l1.033,0.838l-0.09,0.111c-0.276,0.341-0.956,0.127-2.039-0.641l-0.54-0.605l-0.1-0.082
	l-0.081,0.101c0.335,0.504,0.584,0.824,0.75,0.959l0.735,0.596l-0.171,0.211c-0.083-0.067-0.63-0.173-1.641-0.319
	c-1.35-1.439-2.3-2.381-2.848-2.825l-0.61-0.495l0.162-0.2L185.564,180.102z M194.925,167.488c-0.107,2.033-0.325,3.287-0.656,3.761
	C194.417,169.099,194.636,167.846,194.925,167.488z M184.09,184.233l-0.162,0.199c-2.075,0.862-3.354,1.311-3.836,1.346l0.171-0.212
	C182.405,184.675,183.68,184.23,184.09,184.233z M187.889,178.914l0.212,0.172l-0.081,0.099c-0.316,0.39-0.967,0.487-1.952,0.295
	l-0.113-0.092C186.292,178.973,186.937,178.814,187.889,178.914z M187.15,180.027c-0.168,0.208-0.613,0.129-1.334-0.236
	C186.364,179.672,186.811,179.752,187.15,180.027z M190.811,174.266l0.723,0.587c0.447,0.5,0.61,0.859,0.488,1.075l-0.081,0.101
	l-0.813-0.474c-0.161-0.598-0.32-0.961-0.479-1.09L190.811,174.266z M190.397,174.776l0.201,0.163
	c0.187,0.33,0.238,0.544,0.158,0.643l-0.281-0.062L190.397,174.776z M187.3,180.479l0.532,0.617l-0.082,0.1
	c-0.464,0.201-1.087-0.016-1.868-0.648l0.071-0.293l0.082-0.1C186.152,180.249,186.573,180.357,187.3,180.479z M190.967,175.753
	c0.707,1.522,0.985,2.375,0.837,2.558l-0.2-0.162c-0.365-0.296-0.638-1.09-0.817-2.375
	C190.853,175.828,190.913,175.82,190.967,175.753z M189.938,180.409l-0.081,0.101c-0.155,0.191-0.987,0.086-2.495-0.311l0.073-0.292
	C188.821,180.012,189.655,180.18,189.938,180.409z M194.239,171.72l0.099,0.08l-0.172,0.212l-0.099-0.081L194.239,171.72z
	 M190.594,176.648l0.1,0.081c0.12,0.138,0.133,0.267,0.039,0.382l-0.081,0.1l-0.112-0.09c-0.132-0.107-0.142-0.233-0.027-0.374
	L190.594,176.648z M188.723,179.59l-0.171,0.21l-0.211-0.171C188.479,179.509,188.607,179.496,188.723,179.59z M190.225,178.579
	c0.062,0.16,0.172,0.304,0.331,0.433l-0.172,0.211l-0.822-0.667l0.172-0.211C189.883,178.466,190.047,178.544,190.225,178.579z
	 M191.689,176.339l0.101,0.082c0.12,0.139,0.132,0.267,0.038,0.382l-0.311-0.252L191.689,176.339z M188.357,180.654l0.21,0.17
	c-0.115,0.142-0.242,0.155-0.382,0.042L188.357,180.654z M201.064,170.073l0.2,0.162c-0.902,0.974-1.551,1.708-1.948,2.197
	l-2.009,2.478c-1.146,0.142-1.792,0.3-1.934,0.475l-0.198-0.161l0.252-0.311c0.485-0.598,1.176-0.89,2.073-0.877l-0.1-0.081
	c-1.004-0.168-1.713,0-2.123,0.506l-0.112-0.09c-0.099-0.081-0.088-0.299,0.034-0.654c0.431-0.531,1.244-0.904,2.436-1.121
	l-0.099-0.08c-1.033,0.003-1.651,0.126-1.854,0.375l-0.198-0.16l0.301-0.602c0.458-0.564,2.133-1.146,5.026-1.745L201.064,170.073z
	 M187.713,184.425l0.198,0.161c-0.195,0.241-0.195,0.811-0.002,1.71L187.502,187l-2.09,2.578c-0.296,0.365-0.738,0.977-1.323,1.836
	l-0.2-0.162c0.218-0.69,0.371-2.223,0.467-4.596c0.039-0.338,0.134-0.599,0.283-0.781l0.172-0.212l0.526-0.419l0.198,0.161
	c-0.202,0.249-0.196,0.88,0.017,1.89l0.099,0.08c-0.1-0.945,0.099-1.817,0.593-2.613c0.323-0.194,0.534-0.249,0.633-0.168
	l0.111,0.09c-0.424,0.523-0.437,1.311-0.038,2.363l0.162-0.199c-0.359-0.677-0.242-1.38,0.35-2.11L187.713,184.425z
	 M193.349,176.839l0.1,0.081c0.183,0.148,0.098,0.533-0.257,1.155C193.101,177.491,193.153,177.08,193.349,176.839z
	 M190.092,181.896l-0.253,0.312c-0.458,0.194-0.732,0.251-0.823,0.178l0.162-0.199C189.67,181.899,189.977,181.802,190.092,181.896z
	 M196.682,175.25l0.111,0.09l-0.838,1.033c-0.074,0.092-0.39,0.125-0.947,0.1l0.073-0.292l0.081-0.1
	C195.6,175.541,196.104,175.264,196.682,175.25z M189,184.085l-0.082,0.966l-0.757,0.934l-0.111-0.09
	c-0.106-0.567,0.062-1.119,0.499-1.659l0.081-0.1C188.76,184.009,188.883,183.991,189,184.085z M195.258,177.006l-0.252,0.311
	l-0.2-0.162l0.081-0.1C195.018,176.928,195.141,176.911,195.258,177.006z M189.543,183.847l0.1,0.081l-0.171,0.212l-0.1-0.081
	L189.543,183.847z M196.074,176.635l0.211,0.172l-1.082,1.537l-0.513,0.429l-0.211-0.171l0.485-0.803l0.171-0.211L196.074,176.635z
	 M192.902,180.75c0.12,0.139,0.134,0.266,0.04,0.383c-0.108,0.133-0.232,0.142-0.373,0.028c-0.134-0.108-0.147-0.229-0.039-0.362
	C192.662,180.671,192.785,180.655,192.902,180.75z M190.874,183.047l0.211,0.172l-0.486,0.803c-0.645,0.66-1.015,1.048-1.109,1.164
	l-0.212-0.172l0.738-1.114l0.172-0.211L190.874,183.047z M197.407,174.991l0.211,0.171l-1.091,1.345l-0.211-0.171L197.407,174.991z
	 M189.037,185.312l0.211,0.172l-1.091,1.345l-0.212-0.172L189.037,185.312z M201.395,170.506l0.2,0.162
	c-0.115,0.142-0.265,1.734-0.448,4.775c-0.221,0.427-0.353,0.665-0.393,0.714l-0.617,0.53l-0.2-0.162
	c0.336-0.414,0.328-1.107-0.023-2.083l-0.091,0.113c0.163,1.053-0.004,1.889-0.502,2.502c-0.313,0.117-0.52,0.233-0.614,0.35
	l-0.211-0.171c0.533-1.166,0.545-1.953,0.039-2.363c0.17,0.909,0.027,1.646-0.431,2.21l-0.343,0.424l-0.2-0.162
	c0.264-0.325,0.289-0.993,0.077-2.003l0.081-0.1C198.357,174.455,199.583,172.875,201.395,170.506z M190.19,186.434l0.2,0.162
	l-0.252,0.311c-0.592,0.73-1.256,0.989-1.993,0.778l-0.162,0.199c1.118,0.164,1.887-0.011,2.304-0.526l0.112,0.091l0.046,0.554
	c-0.498,0.614-1.336,1.019-2.516,1.218l0.099,0.081c1.033,0,1.65-0.126,1.852-0.375l0.199,0.162
	c-0.214,0.417-0.342,0.651-0.383,0.702c-0.39,0.48-2.039,1.028-4.944,1.644l-0.252,0.311l-0.2-0.162
	c2.025-2.362,3.398-3.986,4.119-4.875C189.336,186.85,189.928,186.758,190.19,186.434z M197.404,175.835l0.111,0.09
	c0.104,0.567-0.062,1.12-0.499,1.659l-0.081,0.1c-0.114,0.141-0.24,0.157-0.372,0.05l0.002-0.866L197.404,175.835z M196.062,177.491
	l0.211,0.172l-0.253,0.312l-0.211-0.172L196.062,177.491z M190.366,184.514l0.211,0.171l-0.252,0.311l-0.212-0.172L190.366,184.514z
	 M190.555,185.347l-0.072,0.293l-0.081,0.101c-0.438,0.539-0.945,0.816-1.521,0.831l-0.111-0.09l0.839-1.034
	C189.683,185.355,189.999,185.322,190.555,185.347z M192.26,183.654l0.111,0.09c0.174,0.141,0.089,0.528-0.255,1.156
	C192.009,184.318,192.057,183.904,192.26,183.654z M196.548,179.435l-0.252,0.311c-0.452,0.185-0.727,0.243-0.825,0.178l0.253-0.312
	C196.182,179.419,196.457,179.36,196.548,179.435z M198.202,181.621l-0.073,0.292l-2.191-0.25l-0.411-0.333
	C195.956,181.156,196.848,181.252,198.202,181.621z M193.86,183.59c0.374,0.303,0.679,1.123,0.917,2.458
	c-0.066-0.054-0.126-0.048-0.18,0.019c-0.701-1.394-0.973-2.185-0.818-2.376L193.86,183.59z M195.591,182.93
	c0.071,0.167,0.182,0.312,0.33,0.433l-0.171,0.211l-0.822-0.666l0.172-0.212C195.258,182.825,195.421,182.902,195.591,182.93z
	 M197.367,180.944l0.112,0.091l-0.172,0.212l-0.312-0.253C197.126,180.867,197.25,180.849,197.367,180.944z M193.734,185.016
	l0.199,0.162l-0.172,0.212l-0.199-0.162L193.734,185.016z M194.335,186.184c0.261,0.679,0.455,1.069,0.579,1.169l-0.082,0.101
	c-0.115,0.142-0.275,0.128-0.483-0.041c-0.768-0.885-1.075-1.421-0.92-1.613C193.892,185.941,194.193,186.069,194.335,186.184z
	 M199.066,180.961l0.734,0.595c-0.107,0.132-0.656,0.031-1.649-0.306l-0.42-0.525l0.081-0.101
	C198.125,180.424,198.543,180.537,199.066,180.961z M194.812,184.528l0.099,0.081c0.121,0.139,0.135,0.267,0.042,0.383l-0.312-0.253
	L194.812,184.528z M197.011,182.019l0.213,0.172c-0.114,0.14-0.243,0.154-0.384,0.04L197.011,182.019z M202.493,179.281l0.521,0.423
	c1.858,1.851,2.906,2.874,3.147,3.069c-3.415-0.403-5.535-0.809-6.362-1.217c0.115-0.142-0.112-0.497-0.681-1.068
	c-0.186-0.042-0.316-0.092-0.392-0.152l0.081-0.1c0.548-0.135,1.138,0.055,1.769,0.566c0.116,0.094,0.267,0.334,0.452,0.717
	l0.099,0.08l0.08-0.099c-0.271-0.564-0.53-0.948-0.78-1.15l-0.312-0.253l-0.591-0.314l0.171-0.211c0.53-0.245,1.21-0.031,2.04,0.642
	c0.311,0.362,0.492,0.565,0.541,0.605l0.101,0.081l0.081-0.1c-0.359-0.524-0.713-0.927-1.063-1.211l-0.423-0.343l0.172-0.212
	C201.269,179.136,201.718,179.218,202.493,179.281z M195.064,187.807l2.384,5.711l-0.162,0.199l-0.611-0.495
	c-0.622-0.504-1.706-1.212-3.252-2.123c-0.503-0.821-0.723-1.398-0.66-1.732l0.081-0.099l0.723,0.586
	c0.174,0.141,0.544,0.323,1.105,0.546l0.082-0.101l-0.803-0.485c-0.976-0.9-1.326-1.522-1.049-1.863l0.09-0.112l1.033,0.838
	c0.374,0.303,0.759,0.388,1.156,0.256l-0.099-0.08c-0.374-0.068-0.708-0.223-1.007-0.466c-0.667-0.72-0.904-1.2-0.708-1.44
	C194.005,187.465,194.571,187.751,195.064,187.807z M205.472,176.042l-0.172,0.211c-2.142,0.892-3.417,1.337-3.827,1.333
	l0.161-0.199C203.688,176.535,204.966,176.085,205.472,176.042z M199.497,182.341l0.099,0.08c-0.384,0.473-1.089,0.638-2.115,0.494
	l-0.118-0.26C197.68,182.264,198.391,182.159,199.497,182.341z M191.325,190.1c-0.124,2.018-0.374,3.522-0.749,4.511
	C190.712,192.424,190.961,190.92,191.325,190.1z M195.533,185.113l0.212,0.172c0.244,0.955,0.219,1.614-0.078,1.979l-0.099-0.08
	c-0.434-0.875-0.472-1.532-0.115-1.972L195.533,185.113z M199.275,181.976c-0.081,0.099-0.362,0.098-0.844-0.003l0.049-0.291
	C198.827,181.729,199.094,181.829,199.275,181.976z M194.795,186.227l0.212,0.172c0.266,0.656,0.37,1.022,0.31,1.097l-0.201-0.163
	C194.81,186.796,194.703,186.428,194.795,186.227z M205.829,183.185l0.211,0.171c-2.691,1.367-4.225,2.063-4.604,2.086
	c-0.585-0.022-1.008-0.137-1.265-0.345l0.081-0.099c0.86-0.349,1.425-0.689,1.694-1.021l0.081-0.099l-0.113-0.092
	c-1.272,0.909-2.229,1.103-2.868,0.584l-0.198-0.161l0.09-0.111c0.743-0.086,1.28-0.333,1.609-0.739l0.333-0.411l-0.1-0.081
	c-0.983,0.908-1.812,1.09-2.485,0.544c0.666-0.258,1.225-0.603,1.683-1.031L205.829,183.185z M197.263,186.165l0.198,0.161
	c0.639,0.519,0.647,1.494,0.021,2.926l0.113,0.091l0.162-0.199c0.128-0.158,0.343-0.78,0.648-1.869l0.112,0.091
	c0.738,0.598,0.568,2.285-0.511,5.056c0.05,0.04,0.025,0.419-0.075,1.136l-0.099-0.081l-2.225-5.911l0.333-0.411
	c0.202-0.25,0.319-0.671,0.346-1.27l0.081-0.099l0.201,0.163c0.406,0.906,0.302,1.738-0.31,2.492l0.099,0.081l0.504-0.622
	c0.202-0.249,0.305-0.792,0.31-1.627L197.263,186.165z M201.792,187.959l0.542,0.604l0.721,0.585l-0.171,0.212l-2.478-2.009
	l0.172-0.211l0.622,0.504C201.425,187.827,201.622,187.931,201.792,187.959z"/>
<g>
	<path fill="#AA0505" d="M167.616,216.587c-0.002-5.863-4.995-10.854-10.858-10.852c5.863-0.002,10.856-4.994,10.858-10.857
		c-0.002,5.863,4.987,10.853,10.851,10.851C172.604,205.73,167.614,210.724,167.616,216.587z"/>
</g>
<g>
	<path fill="#FF8A8A" d="M311.645,225.359c-0.002-3.995-3.402-7.396-7.398-7.395c3.996-0.001,7.396-3.403,7.398-7.398
		c-0.002,3.995,3.398,7.396,7.396,7.395C315.043,217.961,311.643,221.364,311.645,225.359z"/>
</g>
<g>
	<polygon fill="#FFFFFF" points="174.623,160.78 170.816,161.139 172.407,164.619 170.19,161.5 167.973,164.619 169.563,161.139 
		165.756,160.78 169.563,160.42 167.972,156.941 170.19,160.059 172.408,156.941 170.816,160.42 	"/>
</g>
<g>
	<polygon fill="#FFFFFF" points="295.631,200.602 287.641,201.354 290.979,208.658 286.326,202.114 281.672,208.658 
		285.012,201.356 277.021,200.602 285.012,199.847 281.67,192.544 286.326,199.087 290.982,192.546 287.641,199.848 	"/>
</g>
<circle fill="#FFFFFF" cx="181.706" cy="217.964" r="1.234"/>
<circle fill="#AA0505" cx="200.206" cy="236.463" r="1.234"/>
<circle fill="#AA0505" cx="224.357" cy="183.853" r="1.667"/>
<circle fill="#FFFFFF" cx="156.523" cy="195.193" r="1.234"/>
<circle fill="#FFFFFF" cx="157.204" cy="219.746" r="1.656"/>
<circle fill="#FFFFFF" cx="294.711" cy="178.922" r="1.656"/>
<path fill="#FFFFFF" d="M355.174,242.068c0.004,0.692-0.559,1.265-1.252,1.265c-0.697,0.006-1.266-0.553-1.27-1.25
	c0-0.697,0.559-1.261,1.256-1.266C354.6,240.812,355.168,241.375,355.174,242.068z"/>
<polygon fill="#FFFFFF" points="167.612,180.821 165.872,178.274 166.575,178.274 165.438,176.608 166.139,176.608 163.331,172.496 
	160.522,176.608 161.224,176.608 160.086,178.274 160.789,178.274 159.05,180.821 163.048,180.821 163.048,182.183 163.614,182.183 
	163.614,180.821 "/>
<polygon fill="#AA0505" points="309.398,181.487 308.115,179.61 308.633,179.61 307.795,178.382 308.313,178.382 306.242,175.35 
	304.172,178.382 304.689,178.382 303.85,179.61 304.367,179.61 303.086,181.487 306.033,181.487 306.033,182.491 306.451,182.491 
	306.451,181.487 "/>
<polygon fill="#FFFFFF" points="330.713,238.961 328.342,235.492 329.299,235.492 327.748,233.222 328.705,233.222 324.879,227.618 
	321.051,233.222 322.008,233.222 320.455,235.492 321.414,235.492 319.047,238.961 324.494,238.961 324.494,240.817 
	325.264,240.817 325.264,238.961 "/>
<g>
	<path fill="#FFFFFF" d="M271.813,241.995c0-0.614-0.482-1.526-1.455-2.733h-2.105c-0.145,0-0.402,0.306-0.777,0.905l1.693,3.697
		h1.189C270.52,243.863,271.003,243.242,271.813,241.995z"/>
	<path fill="#FFFFFF" d="M267.626,229.435c-0.872-2.835-3.885-5.711-9.024-8.629l6.801,14.843c0.121,0.016,0.228,0.035,0.354,0.051
		c1.247-2.259,1.872-4.277,1.872-6.058L267.626,229.435L267.626,229.435z"/>
	<path fill="#FFFFFF" d="M281.839,259.02c-0.057-3.565-0.67-6.396-1.856-8.474c0-1.406-2.379-2.444-7.129-3.119h-0.207
		c-0.317,0.801-0.597,1.536-0.834,2.209l1.119,2.445c0,0.002,0,0.004,0,0.006C273.152,254.912,276.443,257.288,281.839,259.02z"/>
	<path fill="#FFFFFF" d="M280.811,236.736c-1.067,0.555-2.672,2.159-4.81,4.811c1.92,2.613,3.593,4.296,5.019,5.052
		c1.741-0.141,2.723-0.209,2.938-0.209c4.313-1.19,7.729-2.801,10.247-4.842c-4.732-3.207-8.781-4.811-12.146-4.811L280.811,236.736
		L280.811,236.736z"/>
	<path fill="#FFFFFF" d="M278.079,234.449c1.979,0,3.235-3.415,3.771-10.243v-4.187c-5.386,2.355-9.074,5.423-11.074,9.206
		c0.275,1.721,0.83,3.878,1.662,6.473C274.26,235.699,276.136,235.283,278.079,234.449z"/>
	<path fill="#FFFFFF" d="M291.055,229.226l-0.209-0.419c-3.068,0-5.085,1.259-6.057,3.774l0.416,0.206h0.209
		C288.264,232.787,290.146,231.6,291.055,229.226z"/>
</g>
<g>
	<path fill="#FF8A8A" d="M228.264,225.833c-0.281,0.326-0.826,0.557-1.639,0.691v0.086c0,0.056,0.49,0.286,1.469,0.691
		c0.158-0.854,0.531-1.283,1.115-1.283v-0.186c-0.553-0.631-0.865-0.945-0.945-0.945l0.086,0.607v0.168L228.264,225.833z"/>
	<polygon fill="#FF8A8A" points="226.117,227.034 226.117,227.219 226.625,227.302 226.625,227.136 226.203,227.034 	"/>
	<path fill="#FF8A8A" d="M226.287,232.795v0.338c0,0.653-0.512,1.194-1.537,1.624h-0.254c-0.16,0-0.332-0.058-0.525-0.169
		c-0.111,0.246-0.166,0.421-0.166,0.522c0,0.574,0.342,0.862,1.029,0.862c1.824-0.451,2.738-1.256,2.738-2.417v-0.085
		c-0.744-0.246-1.117-0.618-1.117-1.114v-0.084l0.086-0.592c-0.059,0-0.086-0.028-0.086-0.086c-0.258,0-0.572,0.113-0.945,0.34
		C225.51,232.092,225.768,232.378,226.287,232.795z"/>
	<path fill="#FF8A8A" d="M226.287,227.726l0.254,0.338c0.629,0.383,0.945,0.783,0.945,1.2c0,0.19-0.084,0.394-0.252,0.608v0.085
		c0.066,0,0.465-0.113,1.199-0.338v-0.085c-0.361-0.359-0.561-0.731-0.592-1.115l0.17-0.524l-1.725-0.253L226.287,227.726
		L226.287,227.726z"/>
	<rect x="225.779" y="226.948" fill="#FF8A8A" width="0.17" height="0.188"/>
	<path fill="#FF8A8A" d="M221.74,233.302h-0.506c-0.236,0.092-0.355,0.294-0.355,0.608v0.254c0,0.597,0.457,1.026,1.369,1.284h0.439
		c0.527,0,0.873-0.344,1.031-1.029c-0.17-0.441-0.252-0.756-0.252-0.948v-0.083c0-0.338,0.342-0.71,1.029-1.115v-0.086
		c-1.205,0.305-1.809,0.564-1.809,0.777v0.086c0.281,0.371,0.422,0.657,0.422,0.86v0.254c-0.146,0.282-0.371,0.424-0.676,0.424
		h-0.438c-0.283-0.203-0.424-0.344-0.424-0.424v-0.085C221.572,233.934,221.629,233.673,221.74,233.302z"/>
	<path fill="#FF8A8A" d="M223.971,227.219c-1.295,0-2.039,0.399-2.23,1.2v0.084c0,0.315,0.17,0.57,0.508,0.761
		c0.35-0.451,0.666-0.676,0.947-0.676h0.609c0.607,0,1.092,0.286,1.451,0.86v0.086l-0.254,0.844l0.17,0.271
		c0.428-0.18,0.742-0.271,0.945-0.271v-0.252c-0.281,0-0.482-0.288-0.607-0.862v-0.255c0-0.212,0.119-0.437,0.355-0.676v-0.185
		C225.391,227.528,224.76,227.219,223.971,227.219z"/>
	<path fill="#FF8A8A" d="M231.002,235.786l-0.676,0.187c-0.508,0-0.879-0.344-1.117-1.031c-1.227,0-1.998,0.94-2.313,2.822v0.169
		c0,0.542,0.279,0.828,0.844,0.862c0.158,0,0.332-0.056,0.523-0.169l-0.17-0.608v-0.254c0.396-1.081,0.938-1.622,1.625-1.622
		c0.246,0,0.563,0.225,0.945,0.676h0.084c0.17,0,0.287-0.28,0.355-0.845L231.002,235.786z"/>
	<path fill="#FF8A8A" d="M231.441,234.671c0-0.021,0.057-0.449,0.168-1.283c-0.168,0-0.398,0.055-0.691,0.168
		c-0.338-0.055-0.684-0.254-1.031-0.592h-0.086c0,0.203-0.281,0.632-0.844,1.286v0.083h0.506c0.307-0.225,0.564-0.338,0.779-0.338
		h0.252c0.428,0,0.688,0.227,0.777,0.676H231.441z"/>
	<path fill="#FF8A8A" d="M228.688,233.827c-0.563,0.494-0.846,0.776-0.846,0.844v0.086c0.563-0.497,0.846-0.779,0.846-0.847V233.827
		z"/>
	<rect x="227.74" y="233.302" fill="#FF8A8A" width="0.186" height="0.169"/>
	<path fill="#FF8A8A" d="M227.234,235.448c0.168-0.09,0.252-0.175,0.252-0.252v-0.086c-0.17,0.092-0.252,0.175-0.252,0.254V235.448z
		"/>
	<path fill="#FF8A8A" d="M227.74,233.302l0.497-0.375c0.001-0.005,0.002-0.011,0.004-0.017L227.74,233.302z"/>
	<path fill="#FF8A8A" d="M224.309,236.817c1.32-0.338,1.979-0.682,1.979-1.031c-0.619,0.236-1.021,0.355-1.199,0.355h-0.51
		c-0.246,0-0.533-0.146-0.859-0.439h-0.086C223.633,236.446,223.859,236.817,224.309,236.817z"/>
	<path fill="#FF8A8A" d="M226.896,239.05h0.084c0.113,0,0.168-0.059,0.168-0.17c-0.348-0.361-0.523-0.732-0.523-1.116
		c0-0.225,0.09-0.624,0.271-1.198v-0.17c-0.576,0.563-0.863,1.25-0.863,2.062C226.033,238.853,226.32,239.05,226.896,239.05z"/>
	<path fill="#FF8A8A" d="M221.91,221.541v0.439c0.125,0.855,0.467,1.283,1.031,1.283h0.607c0.508-0.63,0.936-0.945,1.285-0.945
		c0.078,0,0.422,0.174,1.031,0.524h0.084v-0.086c-0.734-0.743-1.217-1.148-1.453-1.216h-0.102c-0.406,0.688-0.688,1.029-0.846,1.029
		c-0.451,0-0.766-0.309-0.945-0.928c0-0.236,0.055-0.355,0.168-0.355l0.777-0.422l-0.354-0.525
		C222.338,220.487,221.91,220.887,221.91,221.541z"/>
	<path fill="#FF8A8A" d="M227.402,219.41h0.084c0.98,0.147,1.471,0.773,1.471,1.877c0,0.26-0.09,0.518-0.27,0.776
		c-0.689,0.147-1.033,0.288-1.033,0.423v0.084c0,0.092,0.23,0.294,0.695,0.61h0.168c0.08-0.802,0.395-1.2,0.945-1.2h0.17
		l0.439,0.083c0.17-0.292,0.254-0.578,0.254-0.86c0-0.203-0.027-0.463-0.084-0.779c-0.6-1.361-1.285-2.043-2.063-2.043
		c-0.43,0-0.688,0.252-0.777,0.76L227.402,219.41L227.402,219.41z"/>
	<path fill="#FF8A8A" d="M228.35,218.194c0.404,0,0.918,0.344,1.537,1.031h0.086v-0.169c-0.656-1.081-1.197-1.623-1.623-1.623
		c-0.271,0-0.531,0.287-0.777,0.861c0.055,0,0.082,0.03,0.082,0.086c0.191-0.125,0.367-0.187,0.525-0.187L228.35,218.194
		L228.35,218.194z"/>
	<path fill="#FF8A8A" d="M236.156,214.51c-0.158,0-0.271,0.288-0.338,0.862l0.592-0.085h0.084c0.18,0,0.271,0.113,0.271,0.34h0.082
		c0.113,0,0.17-0.059,0.17-0.17v-0.693h-0.084l-0.355,0.354l-0.168-0.083v0.083c-0.09,0-0.148-0.061-0.17-0.184v-0.424H236.156z"/>
	<path fill="#FF8A8A" d="M222.941,219.141v-0.084c-0.092-0.171-0.176-0.254-0.254-0.254h-0.084
		C222.738,219.029,222.85,219.141,222.941,219.141z"/>
	<rect x="230.072" y="243.002" fill="#FF8A8A" width="0.17" height="0.085"/>
	<path fill="#FF8A8A" d="M234.447,236.142c-0.234,0.338-0.521,0.507-0.859,0.507c-0.328,0-0.697-0.169-1.115-0.507h-0.086
		c0,0.09-0.09,0.405-0.27,0.946l0.355,0.169l0.592-0.354h0.084c0.596,0,0.998,0.544,1.199,1.637v0.424
		c0,0.328-0.197,0.614-0.592,0.862c0.215,0.348,0.473,0.522,0.777,0.522c0.008,0,0.014-0.005,0.021-0.005l1.066-2.327
		C235.554,237.104,235.174,236.468,234.447,236.142z"/>
	<path fill="#FF8A8A" d="M229.801,241.278v-0.423l-0.082-0.169c-0.215,0.169-0.469,0.255-0.762,0.255h-0.102
		c-0.281-0.147-0.422-0.378-0.422-0.694v-0.168c0-0.305,0.141-0.529,0.422-0.676h0.27c0.17,0,0.451,0.113,0.848,0.338
		c0.27,0,0.5-0.603,0.691-1.809h-0.084c-0.395,0.745-0.768,1.117-1.117,1.117c-0.281,0-0.568-0.086-0.861-0.255
		c-0.744,0.236-1.115,0.638-1.115,1.2c0.281,1.094,0.736,1.64,1.369,1.64h0.354C229.516,241.635,229.713,241.516,229.801,241.278z"
		/>
	<path fill="#FF8A8A" d="M222.434,219.226c0.146,0.384,0.316,0.614,0.508,0.693h0.168c0-0.463,0.23-0.693,0.695-0.693v-0.085
		c-0.227-0.338-0.457-0.508-0.695-0.508h-0.084c0,0.102,0.055,0.243,0.17,0.424c0,0.09-0.057,0.209-0.17,0.354
		c-0.283-0.043-0.422-0.135-0.422-0.27L222.434,219.226z"/>
	<path fill="#FF8A8A" d="M235.564,236.056h0.17c-0.113-0.371-0.17-0.602-0.17-0.691h-0.186
		C235.504,235.725,235.564,235.957,235.564,236.056z"/>
	<path fill="#FF8A8A" d="M232.473,226.019h0.168l0.086-0.608h0.084v0.085c-0.057,0.305-0.084,0.563-0.084,0.777v0.169h0.168v-0.338
		h0.17v0.593h0.168l0.355-2.063l-1.641,0.694h-0.592l-0.438,0.083v0.169l1.469,1.369h0.086l-0.254-0.507v-0.085h0.168v0.168h0.17
		v-0.168c0-0.034-0.176-0.236-0.523-0.608h0.084L232.473,226.019z"/>
	<path fill="#FF8A8A" d="M231.865,238.202c-0.17,0.801-0.256,1.369-0.256,1.707v0.086c0,0.111,0.057,0.169,0.17,0.169h0.947
		c0.223,0.102,0.338,0.304,0.338,0.608v0.083c0,0.351-0.227,0.638-0.678,0.862c-0.236,0-0.521-0.202-0.859-0.607h-0.086
		c-0.113,0.405-0.17,0.638-0.17,0.693c0.271,0.396,0.588,0.59,0.947,0.59h0.082c1.084-0.179,1.625-0.664,1.625-1.452v-0.169
		c0-0.213-0.113-0.473-0.338-0.777c-1.035-0.125-1.555-0.469-1.555-1.031v-0.762H231.865z"/>
	<path fill="#FF8A8A" d="M230.58,243.002c0.146,0,0.287-0.313,0.422-0.946h-0.17l-0.252,0.17h-0.254
		c-0.033,0-0.182-0.111-0.439-0.338h-0.086l-0.082,0.423v0.438h0.082c0.08-0.012,0.199-0.156,0.357-0.438
		c0.1,0.056,0.211,0.083,0.336,0.083v0.608H230.58z"/>
	<path fill="#FF8A8A" d="M236.072,235.364c0.113-0.304,0.168-0.534,0.168-0.693c0-0.799,0.43-1.2,1.283-1.2
		c-0.066-0.157-0.381-0.438-0.945-0.845h-0.084c-0.146,0.801-0.518,1.201-1.115,1.201h-0.084c0.404,0.855,0.607,1.369,0.607,1.537
		H236.072z"/>
	<rect x="236.494" y="214.426" fill="#FF8A8A" width="0.188" height="0.17"/>
	<path fill="#FF8A8A" d="M237.881,218.111c-0.283,0-0.682-0.142-1.199-0.424c-0.281,0.528-0.484,1.16-0.609,1.892h0.084
		c0.395-0.743,0.766-1.114,1.115-1.114h0.252c0.16,0,0.334,0.055,0.525,0.168c0.652,0,1.053-0.344,1.201-1.029
		c-0.191-1.206-0.676-1.811-1.455-1.811c-0.574,0-0.861,0.316-0.861,0.948c0.406-0.113,0.631-0.169,0.676-0.169h0.355
		c0.146,0,0.287,0.259,0.422,0.777C238.387,217.632,238.219,217.885,237.881,218.111z"/>
	<path fill="#FF8A8A" d="M235.734,221.726c0.201-0.123,0.426-0.185,0.676-0.185h0.084c0.428,0,0.799,0.316,1.115,0.945h0.271
		c0.936,0,1.623-0.939,2.061-2.821c-0.18-0.688-0.496-1.032-0.947-1.032l-0.523,0.253l0.254,0.61c0,0.832-0.568,1.459-1.707,1.876
		c-0.133,0-0.479-0.255-1.031-0.761c-0.111,0-0.225,0.31-0.338,0.93L235.734,221.726z"/>
	<path fill="#FF8A8A" d="M228.094,233.642h0.086l1.283-1.117v-0.083c-0.119,0-0.231-0.066-0.338-0.186l-0.888,0.671
		C228.145,233.259,228.094,233.505,228.094,233.642z"/>
	<path fill="#FF8A8A" d="M230.664,218.025v0.439l0.084,0.592h0.17v-0.424c0-0.789,0.398-1.391,1.199-1.808v-0.084
		c-0.385-0.169-0.609-0.254-0.676-0.254C230.922,216.487,230.664,217,230.664,218.025z"/>
	<path fill="#FF8A8A" d="M232.301,217.165h-0.354c-0.527,0.302-0.813,0.934-0.844,1.892c0,1.093,0.371,1.836,1.115,2.23
		c0.404-0.283,0.688-0.422,0.846-0.422h0.354c0.227,0,0.508,0.169,0.846,0.507c0.125,0,0.242-0.316,0.355-0.948
		c0-0.09-0.057-0.145-0.172-0.167h-0.27l-0.592,0.354c-0.574,0-0.977-0.603-1.201-1.809c0.033-0.688,0.232-1.029,0.592-1.029v-0.17
		C232.832,217.31,232.607,217.165,232.301,217.165z"/>
	<path fill="#FF8A8A" d="M230.918,221.034c0.123,0.359,0.186,0.59,0.186,0.691h0.168c-0.111-0.372-0.168-0.603-0.168-0.691H230.918z
		"/>
	<path fill="#FF8A8A" d="M226.811,223.518h-0.086c-0.156,0-0.246,0.146-0.27,0.439c0,0.621-0.314,0.931-0.945,0.931h-0.168
		c-1.195-0.126-1.793-0.581-1.793-1.37c-0.574,0.057-0.861,0.314-0.861,0.777v0.255c0.652,1.204,1.564,1.807,2.738,1.807
		c0.516-0.113,0.861-0.225,1.029-0.338c0-0.111-0.057-0.286-0.168-0.523c0-0.632,0.398-1.03,1.199-1.2v-0.085
		C227.104,223.749,226.879,223.518,226.811,223.518z"/>
	<path fill="#FF8A8A" d="M229.719,224.041l-0.424-0.084h-0.086c0.498,0.564,0.783,0.845,0.863,0.845h0.254
		c0-0.653,0.4-1.053,1.201-1.2c-0.463-0.753-0.695-1.238-0.695-1.453h-0.168C230.473,223.411,230.158,224.041,229.719,224.041z"/>
	<path fill="#FF8A8A" d="M234.619,215.117h-0.271c-1.025,0.215-1.537,0.672-1.537,1.37v0.169c0,0.248,0.139,0.536,0.422,0.862
		c0.98,0,1.471,0.315,1.471,0.946v0.761h0.084c0.137,0,0.277-0.599,0.424-1.792l-0.17-0.084h-0.947
		c-0.281-0.181-0.422-0.384-0.422-0.608c0.158-0.632,0.355-0.948,0.592-0.948h0.084c0.225,0,0.514,0.176,0.863,0.525
		c0.168-0.034,0.252-0.265,0.252-0.691C235.238,215.287,234.957,215.117,234.619,215.117z"/>
	<path fill="#FF8A8A" d="M240.701,219.057c0-0.396-0.195-0.592-0.592-0.592h-0.521v0.085c0.35,0.336,0.521,0.71,0.521,1.115v0.083
		c0,0.34-0.09,0.768-0.268,1.286v0.083c0.572-0.596,0.859-1.228,0.859-1.892L240.701,219.057L240.701,219.057z"/>
	<path fill="#FF8A8A" d="M235.463,222.926c-0.125,0-0.236,0.344-0.338,1.031h0.777c0.258,0,0.574,0.17,0.945,0.508l0.947-1.201
		v-0.169c-0.135,0-0.596,0.142-1.385,0.423c-0.563-0.066-0.846-0.264-0.846-0.592H235.463z"/>
	<path fill="#FF8A8A" d="M219.512,232.626v0.086h0.504c0,0.123,0.035,0.236,0.104,0.338c-0.193,0.168-0.338,0.252-0.441,0.252v0.169
		h0.441c0.146,0,0.314-0.056,0.508-0.169c-0.283-0.246-0.424-0.388-0.424-0.422v-0.168l0.084-0.439
		C219.85,232.272,219.588,232.39,219.512,232.626z"/>
	<path fill="#FF8A8A" d="M236.682,235.448c-0.177,0.327-0.261,0.604-0.267,0.836l0.375-0.818
		C236.751,235.459,236.723,235.455,236.682,235.448z"/>
	<path fill="#FF8A8A" d="M242.764,220.696h-0.422c-1.205,0.28-1.809,0.597-1.809,0.946c0.719-0.236,1.176-0.355,1.369-0.355
		c0.406,0,0.777,0.146,1.115,0.438h0.069l0.015-0.032v-0.238C243.102,221.028,242.99,220.773,242.764,220.696z"/>
	<path fill="#FF8A8A" d="M239.504,222.148v-0.085c-0.283,0.204-0.426,0.346-0.426,0.423v0.084
		C239.361,222.367,239.504,222.229,239.504,222.148z"/>
	<path fill="#FF8A8A" d="M219.85,230.817c0,0.52,0.258,0.891,0.777,1.117c0.336-0.137,0.506-0.248,0.506-0.34
		c-0.383-0.382-0.58-0.642-0.592-0.777c0.135-0.517,0.422-0.777,0.861-0.777h0.338l0.256,0.17c0.076,0.676,0.162,1.076,0.252,1.2
		c1.205-0.169,1.809-0.338,1.809-0.507v-0.086c-0.125,0-0.439,0.028-0.947,0.086c-0.135,0-0.332-0.113-0.592-0.338
		c-0.215-0.98-0.613-1.471-1.197-1.471C220.553,229.095,220.064,229.669,219.85,230.817z"/>
	<path fill="#FF8A8A" d="M221.74,224.55v0.083c0.588,0.979,1.189,1.471,1.809,1.471h0.084v-0.187h-0.084
		c-0.553-0.271-0.924-0.783-1.115-1.536c0-0.046,0.027-0.215,0.084-0.509h-0.168C221.943,224.064,221.74,224.289,221.74,224.55z"/>
	<path fill="#FF8A8A" d="M225.865,217.856h-0.439c-0.801,0.181-1.201,0.552-1.201,1.114v0.255c0,0.102,0.176,0.219,0.525,0.354
		c0.191-0.686,0.445-1.029,0.76-1.029c0.383,0,0.699,0.286,0.945,0.86c0,0.282-0.314,0.564-0.945,0.847
		c0,0.314,0.432,0.833,1.301,1.554h0.086c0-0.079-0.203-0.451-0.609-1.114c0-0.113,0.057-0.288,0.168-0.524
		c0.463-0.507,0.693-0.851,0.693-1.031C227.148,218.363,226.721,217.936,225.865,217.856z"/>
	<path fill="#FF8A8A" d="M221.049,227.557v0.169c0.123,0.519,0.271,0.777,0.438,0.777h0.086c0.135-0.98,0.766-1.469,1.895-1.469
		v-0.17c-0.195,0-0.34-0.029-0.441-0.085C221.707,226.982,221.049,227.242,221.049,227.557z"/>
	<path fill="#FF8A8A" d="M232.219,230.649c-0.123,0-0.186,0.085-0.186,0.254h-0.168c0-0.058,0.027-0.141,0.082-0.254v-0.084h-0.082
		c-0.17,0-0.283,0.311-0.338,0.93h-0.086v-0.678l-0.439,0.086h-0.088l-0.393,0.296c0.479,0.365,0.874,0.804,1.174,1.325
		c0.182,0,0.383-0.623,0.605-1.875H232.219z"/>
	<path fill="#FF8A8A" d="M229.381,229.264c0.055,0,0.715-0.169,1.975-0.507v-0.169h-0.607l0.17-0.255v-0.083
		c-0.115,0-0.395,0.083-0.846,0.253v-0.17c0.338-0.055,0.508-0.146,0.508-0.27c0-0.021-0.113-0.163-0.338-0.422v-0.085
		c0.395,0.338,0.619,0.507,0.676,0.507v-0.252c0.213,0,0.359,0.027,0.438,0.083h0.172l-1.455-1.37l-0.271,0.172l0.086,0.777
		c-0.135,0.607-0.332,1.148-0.592,1.621L229.381,229.264z"/>
	<path fill="#FF8A8A" d="M228.771,231.595l0.084-0.521v-0.169c-0.123,0-0.525,0.083-1.201,0.252v0.169
		c0.463,0,0.723,0.316,0.779,0.948c-0.08,0.247-0.141,0.452-0.193,0.638l0.864-0.674
		C228.986,232.096,228.875,231.883,228.771,231.595z"/>
	<path fill="#FF8A8A" d="M233.336,234.671h0.166c0.146,0,0.316,0.063,0.508,0.188c0.518,0.563,0.834,0.844,0.947,0.844h0.084
		c-0.225-1.059-0.338-1.627-0.338-1.707l-0.609,0.255c-0.246,0-0.619-0.171-1.115-0.509c-0.113,0.169-0.225,0.598-0.338,1.285h0.17
		C232.811,234.79,232.984,234.671,233.336,234.671z"/>
	<path fill="#FF8A8A" d="M232.641,223.264h0.17c0.338,0,0.623,0.169,0.861,0.507c0.168,0,0.311-0.399,0.422-1.2h-0.084l-0.422,0.271
		h-0.355c-0.168,0-0.652-0.374-1.453-1.117c0.113,0.767,0.168,1.252,0.168,1.455v0.252
		C232.006,223.433,232.236,223.377,232.641,223.264z"/>
	<path fill="#FF8A8A" d="M230.748,230.903v-0.086c0.088-0.014,0.156-0.028,0.23-0.044l0.377-0.294c0-0.067-0.027-0.102-0.084-0.102
		c0.283-0.246,0.424-0.387,0.424-0.421c-1.139,0.348-1.771,0.522-1.895,0.522v0.255c0.245,0.127,0.467,0.273,0.677,0.43l0.334-0.261
		L230.748,230.903L230.748,230.903z"/>
	<path fill="#FF8A8A" d="M230.914,230.903l0.207-0.156c-0.041,0.009-0.097,0.019-0.143,0.026l-0.166,0.13H230.914z"/>
	<path fill="#FF8A8A" d="M229.104,232.236c0.007,0.008,0.014,0.012,0.021,0.02l1.396-1.057c-0.015-0.011-0.028-0.023-0.043-0.035
		L229.104,232.236z"/>
	<path fill="#FF8A8A" d="M231.609,230.479v-0.102l-0.488,0.369C231.447,230.672,231.609,230.582,231.609,230.479z"/>
	<path fill="#FF8A8A" d="M235.564,228.841h0.422v0.168h-0.252v0.172c0.404,0,0.721-0.059,0.947-0.172h0.084v0.086
		c-0.125,0-0.328,0.09-0.609,0.271l0.338,0.423v0.084l-0.676-0.507h-0.17v0.169c0.17,0,0.254,0.058,0.254,0.168l-0.523-0.083h-0.084
		c0,0.044,0.488,0.501,1.471,1.367c0.111,0,0.168-0.056,0.168-0.169v-1.029l0.17-0.254v-0.086l-0.086-0.185
		c0.281-0.451,0.424-0.761,0.424-0.931l-0.084-0.185c-0.982,0.349-1.578,0.522-1.793,0.522L235.564,228.841L235.564,228.841z"/>
	<path fill="#FF8A8A" d="M242.172,221.541h-0.355c-1.713,0.439-2.566,1.182-2.566,2.229v0.271c0.688,0.215,1.029,0.559,1.029,1.031
		v0.338l-0.084,0.423c0.055,0,0.084,0.028,0.084,0.084c0.631-0.157,0.945-0.298,0.945-0.422v-0.085
		c-0.518-0.473-0.775-0.731-0.775-0.777v-0.083c0-0.801,0.541-1.433,1.623-1.894c0.081,0,0.272,0.051,0.526,0.135l0.305-0.664
		C242.834,221.808,242.597,221.607,242.172,221.541z"/>
	<path fill="#FF8A8A" d="M235.041,224.986c-0.158,0-0.355,0.654-0.594,1.962h0.172c0-0.102,0.055-0.242,0.168-0.424l0.17,0.086
		l-0.086,0.169v0.085c0.227-0.057,0.34-0.34,0.34-0.846h0.168l-0.084,0.423v0.083l0.084,0.172c0.293-0.113,0.496-0.172,0.607-0.172
		v0.086c-0.572,0.169-0.861,0.311-0.861,0.424v0.102c0.068,0,0.152-0.034,0.254-0.102h0.084v0.185l-0.422,0.169v0.169
		c1.172-0.348,1.832-0.581,1.977-0.692l-0.084-0.168C236.305,226.447,235.672,225.877,235.041,224.986z"/>
	<path fill="#FF8A8A" d="M238.387,231.935v-0.086l0.129-0.149l0.587-1.281c-0.167-0.061-0.345-0.129-0.546-0.208v0.355
		c0,0.473-0.346,0.783-1.033,0.93v0.186c0,0.038,0.247,0.259,0.706,0.644l0.162-0.354L238.387,231.935z"/>
	<path fill="#FF8A8A" d="M238.912,222.843v-0.086c-0.576,0.497-0.863,0.777-0.863,0.845v0.086
		C238.623,223.192,238.912,222.908,238.912,222.843z"/>
	<path fill="#FF8A8A" d="M237.965,225.917l-0.084,0.607c0.057,0,0.084,0.028,0.084,0.086c0.158,0,0.529-0.113,1.113-0.338
		c-0.461-0.26-0.691-0.547-0.691-0.862v-0.338c0-0.193,0.084-0.396,0.254-0.607v-0.593h-0.084c-0.496,0.463-0.926,0.801-1.285,1.016
		C237.732,225.257,237.965,225.603,237.965,225.917z"/>
	<path fill="#FF8A8A" d="M238.387,227.812v0.252c0.35,0.328,0.525,0.67,0.525,1.031c0,0.157-0.064,0.332-0.188,0.524l0.188,0.083
		h0.166c0.097,0,0.228,0.008,0.347,0.013l0.315-0.688c-0.314-0.342-0.491-0.607-0.491-0.777c0-0.225,0.111-0.457,0.338-0.693
		C239.451,227.557,239.051,227.642,238.387,227.812z"/>
	<path fill="#FF8A8A" d="M235.734,232.104l0.168-0.085c-0.822-0.912-1.307-1.369-1.455-1.369l0.086,0.423v0.083l-0.27-0.169h-0.084
		v0.086l0.607,0.691h-0.084l-0.355-0.269h-0.168c-0.059,0.348-0.141,0.523-0.254,0.523l0.084-0.424v-0.608h-0.17v0.338h-0.168
		v-0.421h-0.17c0,0.181-0.117,0.783-0.354,1.809v0.083h0.354c0.307-0.271,0.846-0.501,1.623-0.691H235.734z"/>
</g>
<g>
	<rect x="159.923" y="250.596" fill="#FFFFFF" width="0.405" height="0.596"/>
	<path fill="#FFFFFF" d="M161.305,247.834c0,0.476,0.334,1,1,1.57c-0.19-1.047-0.453-1.57-0.785-1.57H161.305z"/>
	<path fill="#FFFFFF" d="M159.923,224.108h-0.381c0.128,4.431,0.192,7.399,0.192,8.908v0.192c1.19,0.968,1.787,1.763,1.787,2.381
		h0.379v-0.81c0-1.079-0.524-2.063-1.571-2.953c0.968,0,1.692,0.921,2.168,2.763h0.403c0-0.223,0.128-0.547,0.383-0.976
		c0-1.176-0.589-2.295-1.763-3.36v-0.213c1.316,0.794,1.977,1.589,1.977,2.382h0.381l0.213-1.19c0-0.097-0.071-0.492-0.213-1.192
		C161.241,226.355,159.923,224.378,159.923,224.108z"/>
	<path fill="#FFFFFF" d="M162.305,238.949c-0.174,0-0.437,0.324-0.785,0.977v0.594c0.174-0.016,0.435-0.342,0.785-0.976V238.949z"/>
	<path fill="#FFFFFF" d="M176.525,234.589l-7.503,4.55c-0.126,0.922-0.453,1.842-0.976,2.764c1.287,0,2.071-0.984,2.358-2.953h0.192
		v0.785c0,0.777-0.392,1.564-1.168,2.357v0.215h0.381c1.222,0,2.143-1.12,2.763-3.357h0.213v0.189c0,0.635-0.332,1.558-1,2.764
		v0.189c0.492,0,1.087-0.262,1.787-0.785c0.413-0.381,1.533-2.621,3.36-6.718H176.525z"/>
	<rect x="164.283" y="248.025" fill="#FFFFFF" width="0.379" height="0.402"/>
	<path fill="#FFFFFF" d="M166.641,248.428c0.079,0.318,0.547,0.646,1.405,0.979h0.381c0-0.145-0.46-0.469-1.381-0.979H166.641z"/>
	<path fill="#FFFFFF" d="M167.236,250.215c0.397,0,0.597-0.135,0.597-0.405v-0.189c-0.239,0-0.826-0.269-1.763-0.811
		c-0.271,0-0.739,0.136-1.407,0.405C164.663,249.58,165.521,249.914,167.236,250.215z"/>
	<path fill="#FFFFFF" d="M158.542,237.352c-0.224,0-0.35,0.135-0.381,0.406v0.189h0.381V237.352z"/>
	<rect x="159.136" y="252.764" fill="#FFFFFF" width="0.405" height="2.572"/>
	<rect x="158.35" y="250.596" fill="#FFFFFF" width="0.192" height="0.406"/>
	<path fill="#FFFFFF" d="M159.923,254.361h0.213c0.652-0.559,0.979-1.354,0.979-2.383v-0.191l-0.191-0.404c-0.667,0.492-1,0.826-1,1
		L159.923,254.361L159.923,254.361z"/>
	<rect x="159.923" y="237.162" fill="#FFFFFF" width="0.405" height="0.596"/>
	<path fill="#FFFFFF" d="M159.733,249.81l-0.192-1.382h-0.405l-0.188,1.382v0.405l0.188,1.979h0.405
		C159.542,251.971,159.605,251.176,159.733,249.81z"/>
	<path fill="#FFFFFF" d="M161.115,236.375c0-1.031-0.326-1.826-0.979-2.381h-0.213v1.977l0.811,1c0.253,0,0.381-0.135,0.381-0.405
		V236.375z"/>
	<path fill="#FFFFFF" d="M169.428,226.679c-0.54,0.525-1.595,2.239-3.168,5.146v0.382c0.477-0.382,1.534-2.089,3.168-5.123V226.679z
		"/>
	<path fill="#FFFFFF" d="M170.023,233.208h-1c-0.953,0.65-1.549,0.976-1.787,0.976v0.405h0.811c0.668,0,1.453,0.134,2.358,0.405
		v0.19h-0.19c-0.097,0-0.492-0.063-1.192-0.19c-1.589,0-2.573,0.389-2.953,1.166v0.405l0.977-0.19h0.595
		c0.477,0,1.137,0.2,1.979,0.596v0.191h-0.192c-0.571-0.271-0.968-0.404-1.192-0.404c-1.206,0-2.063,0.332-2.571,1v0.189
		c0.143,0,0.342-0.063,0.595-0.189c1.192,0.126,1.787,0.326,1.787,0.594c1.334-0.3,4.16-1.818,8.479-4.549
		C176.067,233.802,173.898,233.604,170.023,233.208z"/>
	<path fill="#FFFFFF" d="M164.878,239.139v0.189l0.977,0.216c1.46-0.54,2.192-0.937,2.192-1.192h-1.405
		C165.639,238.352,165.052,238.615,164.878,239.139z"/>
	<path fill="#FFFFFF" d="M164.663,239.926c-0.222,0-0.348,0.135-0.379,0.404h0.595v-0.404H164.663z"/>
	<path fill="#FFFFFF" d="M162.899,242.092h0.787l2.763-1.762l-0.19-0.404C164.354,240.768,163.233,241.488,162.899,242.092z"/>
	<path fill="#FFFFFF" d="M157.565,251.787v0.191c0,1.029,0.326,1.826,0.977,2.383h0.215v-1.789l-0.81-1.189
		C157.723,251.383,157.597,251.518,157.565,251.787z"/>
	<path fill="#FFFFFF" d="M158.757,254.957c-1.065-0.859-1.597-1.52-1.597-1.979h-0.381v0.596c0,1.398,0.524,2.318,1.571,2.764v0.238
		c0.196,0.059,0.399,0.115,0.597,0.174v-0.604L158.757,254.957z"/>
	<path fill="#FFFFFF" d="M146.894,242.092v-0.189c-0.446-0.492-0.779-1.351-1-2.574v-0.595h0.213c0,1.286,0.721,2.477,2.167,3.573
		h0.976v-0.215c-0.555-0.619-0.953-1.205-1.19-1.762v-1.381h0.214c0,1.332,0.66,2.318,1.979,2.953h0.381l-0.786-1.572v-0.596h0.189
		c0,0.73,0.66,1.518,1.979,2.357l0.405-0.189l-0.405-0.787c0-0.467-2.969-2.456-8.896-5.958l-0.344,1.684
		C144.039,240.333,145.412,242.092,146.894,242.092z"/>
	<path fill="#FFFFFF" d="M165.07,246.451v0.406h0.595c0-0.225-0.136-0.358-0.405-0.406H165.07z"/>
	<path fill="#FFFFFF" d="M166.641,242.092c1.318-0.793,1.977-1.643,1.977-2.548h-0.19c-1.445,0.826-2.168,1.612-2.168,2.358
		L166.641,242.092z"/>
	<path fill="#FFFFFF" d="M167.833,239.328c-0.35,0-0.747,0.137-1.191,0.406l0.213,0.381
		C167.505,239.781,167.833,239.52,167.833,239.328z"/>
	<path fill="#FFFFFF" d="M163.091,246.451c0,0.366,1.058,1.024,3.168,1.977c0-0.126,0.063-0.188,0.19-0.188
		c-1.524-1.318-2.643-1.977-3.358-1.977V246.451z"/>
	<path fill="#FFFFFF" d="M165.665,241.496h-0.405v0.406C165.528,241.902,165.665,241.768,165.665,241.496z"/>
	<path fill="#FFFFFF" d="M168.618,248.81c0-0.698-0.587-1.484-1.763-2.358h-0.405v0.189c0,0.843,0.66,1.566,1.979,2.169H168.618z"/>
	<path fill="#FFFFFF" d="M168.618,253.764h-1.382v0.193c0.237,0.443,1.032,0.904,2.384,1.379c2.635-0.396,4.55-0.596,5.739-0.596
		h1.167v-0.379l-8.098-4.359c-0.619,0.396-1.542,0.594-2.763,0.594c0,0.461,0.722,0.795,2.168,1c0.569,0,1.103-0.135,1.595-0.404
		h0.192c-0.334,0.525-0.858,0.787-1.573,0.787h-1.977v0.215c0,0.65,0.984,1.039,2.953,1.166l1.382-0.188v0.188
		C169.546,253.631,168.952,253.764,168.618,253.764z"/>
	<path fill="#FFFFFF" d="M163.686,244.07v0.404h1.573v-0.404c-0.286,0-0.549-0.063-0.787-0.191
		C164.251,244.007,163.989,244.07,163.686,244.07z"/>
	<path fill="#FFFFFF" d="M177.122,253.957c-0.557-0.924-0.881-1.385-0.976-1.385c-1.35-4.207-2.731-6.313-4.145-6.313h-0.216
		c0.668,1.54,1,2.461,1,2.764v0.379h-0.213c-0.621-2.237-1.542-3.357-2.763-3.357h-0.381v0.215c0.777,0.969,1.168,1.689,1.168,2.166
		v1.192h-0.192c0-1.444-0.658-2.501-1.977-3.169h-0.381v0.189c0.523,0.717,0.787,1.311,0.787,1.787v0.787l8.1,4.742L177.122,253.957
		L177.122,253.957z"/>
	<path fill="#FFFFFF" d="M150.252,238.352c0.429-0.268,1.152-0.468,2.168-0.594c0.253,0.126,0.451,0.189,0.595,0.189v-0.189
		c-0.666-0.668-1.326-1-1.979-1c-0.713,0-1.308,0.134-1.787,0.404h-0.19c0-0.365,0.66-0.629,1.977-0.787h0.597l0.976,0.19v-0.405
		c0-0.523-0.857-0.911-2.573-1.166c-0.316,0-0.842,0.063-1.571,0.19h-0.191v-0.19c0.905-0.271,1.691-0.405,2.359-0.405h0.595v-0.19
		c0-0.397-0.721-0.794-2.168-1.191h-0.403l-5.239,0.479l-0.169,0.83C145.126,235.703,147.456,236.98,150.252,238.352z"/>
	<path fill="#FFFFFF" d="M141.205,244.475h3.305v-0.404h-1.189l-1.168-0.191c-0.197,0.112-0.493,0.166-0.86,0.18
		C141.256,244.196,141.227,244.335,141.205,244.475z"/>
	<path fill="#FFFFFF" d="M149.25,226.679c0,0.684,0.921,2.336,2.765,4.957C151.95,230.776,151.029,229.126,149.25,226.679z"/>
	<path fill="#FFFFFF" d="M149.847,249.215v-0.189l-0.19-0.406l0.976-2.168h-0.381c-1.318,0.684-1.979,1.668-1.979,2.953h-0.214
		v-0.785c0-0.777,0.397-1.563,1.19-2.357v-0.215h-0.379c-1.318,0-2.239,1.191-2.763,3.573h-0.213v-0.405
		c0-0.635,0.332-1.556,1-2.764v-0.189c-0.302,0-0.962,0.262-1.979,0.785c-0.418,0.949-0.802,1.805-1.152,2.568
		c0.683,0.607,1.485,1.209,2.41,1.797C147.269,250.771,148.49,250.041,149.847,249.215z"/>
	<path fill="#FFFFFF" d="M159.328,243.879c-0.223,0-0.35,0.136-0.381,0.404c0,0.256,0.126,0.382,0.381,0.382
		c0.271,0,0.405-0.126,0.405-0.382C159.733,244.063,159.599,243.928,159.328,243.879z"/>
	<rect x="152.42" y="232.208" fill="#FFFFFF" width="0.189" height="0.405"/>
	<polygon fill="#FFFFFF" points="159.542,236.16 159.136,236.16 158.947,238.139 158.947,238.544 159.136,239.926 159.542,239.926 
		159.733,238.949 	"/>
	<path fill="#FFFFFF" d="M150.633,253.764c0.263,0.117,0.538,0.232,0.811,0.351v-0.351H150.633z"/>
	<path fill="#FFFFFF" d="M163.878,256.146h-0.381c0,0.367-0.365,0.887-1.074,1.547c0.487,0.123,0.978,0.244,1.478,0.363
		c0.118-0.299,0.191-0.555,0.191-0.742C164.091,257.219,164.02,256.83,163.878,256.146z"/>
	<path fill="#FFFFFF" d="M166.259,256.146c0.189,0.695,0.613,1.604,1.256,2.705c0.199,0.039,0.404,0.076,0.605,0.115
		C167.608,258.109,166.993,257.173,166.259,256.146z"/>
	<path fill="#FFFFFF" d="M176.335,243.879c-0.221,0.128-0.547,0.191-0.977,0.191h-1.189v0.404h4.739v-0.404h-1.381L176.335,243.879z
		"/>
	<path fill="#FFFFFF" d="M156.184,253.957h-0.213c-0.192,0-0.384,0.26-0.573,0.783c0.042,0.328,0.11,0.645,0.198,0.949
		c0.747,0.256,1.516,0.506,2.309,0.748C156.76,255.674,156.184,254.848,156.184,253.957z"/>
	<rect x="159.136" y="233.016" fill="#FFFFFF" width="0.405" height="2.573"/>
	<path fill="#FFFFFF" d="M163.283,254.551l-0.573-0.594h-0.213c0,0.982-0.724,1.902-2.168,2.762v-0.381
		c1.047-0.445,1.571-1.365,1.571-2.764v-0.596h-0.379c0,0.619-0.597,1.275-1.787,1.979c0,0.525-0.007,1.209-0.019,2.016
		c0.768,0.217,1.555,0.428,2.359,0.635C162.864,256.536,163.283,255.516,163.283,254.551z"/>
	<path fill="#FFFFFF" d="M152.61,252.193v-0.215h-1.977c-1.047-0.174-1.573-0.438-1.573-0.787c0.858,0.27,1.455,0.402,1.787,0.402
		c1.445-0.203,2.168-0.537,2.168-1c-1.223,0-2.145-0.197-2.763-0.594l-3.395,1.827c0.874,0.521,1.838,1.026,2.887,1.522
		C151.651,253.219,152.61,252.833,152.61,252.193z"/>
	<path fill="#FFFFFF" d="M150.847,239.328l0.787,0.787l0.381-0.189c0-0.191-0.263-0.39-0.787-0.598H150.847z"/>
	<path fill="#FFFFFF" d="M154.397,248.025h-0.405v0.402C154.262,248.428,154.397,248.293,154.397,248.025z"/>
	<path fill="#FFFFFF" d="M152.015,248.428c-0.652,0-1.239,0.326-1.763,0.979C151.428,249.151,152.015,248.828,152.015,248.428z"/>
	<path fill="#FFFFFF" d="M155.586,246.451v-0.189c-0.537,0-1.658,0.588-3.358,1.764l0.192,0.402
		C154.531,247.476,155.586,246.817,155.586,246.451z"/>
	<path fill="#FFFFFF" d="M158.947,228.276c0-0.937,0.063-2.389,0.188-4.36h-0.379v0.597c-2.779,3.397-4.17,5.637-4.17,6.718
		l0.216,0.977h0.381c0-0.477,0.595-1.2,1.787-2.168h0.189c-1.174,1.366-1.763,2.558-1.763,3.574
		c0.189,0.523,0.381,0.786,0.573,0.786h0.213c0-0.968,0.658-1.826,1.977-2.573h0.189c-1.047,0.826-1.571,1.811-1.571,2.953v0.597
		h0.381c0-0.334,0.595-1.121,1.787-2.36v-4.741H158.947z"/>
	<path fill="#FFFFFF" d="M156.374,249.404c0.174,0,0.437-0.324,0.786-0.977v-0.594c-0.221,0-0.484,0.396-0.786,1.191V249.404z"/>
	<path fill="#FFFFFF" d="M153.8,240.33h0.597c0-0.223-0.135-0.357-0.405-0.404H153.8V240.33z"/>
	<path fill="#FFFFFF" d="M156.374,238.949h-0.19c0,0.461,0.324,0.984,0.976,1.57C156.986,239.473,156.723,238.949,156.374,238.949z"
		/>
	<path fill="#FFFFFF" d="M152.229,246.641v-0.189h-0.405c-1.19,0.779-1.787,1.566-1.787,2.358h0.216
		C151.57,248.111,152.229,247.389,152.229,246.641z"/>
	<path fill="#FFFFFF" d="M152.42,239.926c0,0.126-0.063,0.189-0.192,0.189c1.413,1.318,2.469,1.977,3.168,1.977h0.381
		C155.778,241.744,154.658,241.021,152.42,239.926z"/>
	<path fill="#FFFFFF" d="M153.8,239.328v-0.189c-0.063-0.365-0.587-0.627-1.571-0.787h-1.381v0.382c0.302,0,0.826,0.271,1.573,0.811
		L153.8,239.328z"/>
	<path fill="#FFFFFF" d="M158.757,233.994h-0.215c-0.65,0.555-0.977,1.35-0.977,2.381v0.19l0.19,0.405
		c0.668-0.492,1.002-0.826,1.002-1V233.994z"/>
	<path fill="#FFFFFF" d="M153.015,246.857h0.405v-0.406C153.197,246.451,153.063,246.588,153.015,246.857z"/>
	<path fill="#FFFFFF" d="M153.8,249.215v-0.189l-1.19-0.216c-0.952,0.542-1.542,0.811-1.763,0.811v0.189l0.189,0.405
		C152.531,250.215,153.452,249.883,153.8,249.215z"/>
	<path fill="#FFFFFF" d="M153.015,241.307h-0.191v0.189c0,0.271,0.128,0.406,0.383,0.406h0.213v-0.189
		C153.42,241.488,153.286,241.354,153.015,241.307z"/>
	<path fill="#FFFFFF" d="M153.42,244.475h1.571v-0.404c-0.302,0-0.563-0.063-0.785-0.191c-0.239,0.128-0.502,0.191-0.787,0.191
		L153.42,244.475L153.42,244.475z"/>
</g>
<g>
	<path fill="#FFFFFF" d="M329.801,169.585h0.086l1.283-1.117v-0.083c-0.118,0-0.23-0.067-0.338-0.186l-0.889,0.671
		C329.852,169.203,329.801,169.449,329.801,169.585z"/>
	<path fill="#FFFFFF" d="M332.622,166.847l0.206-0.156c-0.041,0.01-0.098,0.018-0.143,0.027l-0.166,0.129H332.622z"/>
	<path fill="#FFFFFF" d="M333.402,168.469c0.182,0,0.383-0.624,0.604-1.876h-0.082c-0.123,0-0.186,0.085-0.186,0.254h-0.168
		c0-0.058,0.025-0.141,0.08-0.254v-0.083h-0.08c-0.172,0-0.283,0.31-0.34,0.93h-0.086v-0.677l-0.438,0.085h-0.087l-0.396,0.297
		C332.707,167.509,333.104,167.947,333.402,168.469z"/>
	<path fill="#FFFFFF" d="M329.971,161.777c-0.281,0.326-0.826,0.556-1.639,0.691v0.085c0,0.056,0.49,0.286,1.469,0.692
		c0.158-0.855,0.531-1.284,1.115-1.284v-0.185c-0.553-0.632-0.865-0.946-0.945-0.946l0.086,0.608v0.167L329.971,161.777z"/>
	<path fill="#FFFFFF" d="M333.316,166.424v-0.102l-0.488,0.369C333.154,166.615,333.316,166.526,333.316,166.424z"/>
	<rect x="329.447" y="169.246" fill="#FFFFFF" width="0.186" height="0.169"/>
	<path fill="#FFFFFF" d="M330.479,167.539l0.084-0.522v-0.169c-0.123,0-0.523,0.083-1.199,0.252v0.169
		c0.463,0,0.723,0.316,0.777,0.948c-0.08,0.247-0.141,0.452-0.19,0.639l0.862-0.674C330.693,168.04,330.582,167.827,330.479,167.539
		z"/>
	<path fill="#FFFFFF" d="M329.447,169.246l0.496-0.375c0.002-0.005,0.002-0.01,0.005-0.016L329.447,169.246z"/>
	<rect x="327.486" y="162.892" fill="#FFFFFF" width="0.17" height="0.187"/>
	<path fill="#FFFFFF" d="M328.941,171.392c0.168-0.089,0.252-0.175,0.252-0.252v-0.085c-0.17,0.091-0.252,0.175-0.252,0.254V171.392
		z"/>
	<path fill="#FFFFFF" d="M329.279,169.415c-0.744-0.246-1.117-0.618-1.117-1.115v-0.083l0.086-0.592
		c-0.059,0-0.086-0.028-0.086-0.085c-0.258,0-0.572,0.113-0.945,0.34c0,0.157,0.258,0.443,0.777,0.86v0.338
		c0,0.654-0.512,1.194-1.537,1.624h-0.254c-0.16,0-0.332-0.058-0.525-0.169c-0.111,0.246-0.166,0.421-0.166,0.522
		c0,0.574,0.342,0.862,1.029,0.862c1.824-0.451,2.738-1.256,2.738-2.417V169.415L329.279,169.415z"/>
	<path fill="#FFFFFF" d="M329.549,170.615v0.086c0.563-0.497,0.846-0.779,0.846-0.847v-0.083
		C329.832,170.265,329.549,170.547,329.549,170.615z"/>
	<path fill="#FFFFFF" d="M325.678,163.163c-1.295,0-2.039,0.399-2.229,1.2v0.083c0,0.316,0.17,0.57,0.508,0.761
		c0.352-0.451,0.666-0.676,0.945-0.676h0.609c0.607,0,1.092,0.286,1.451,0.86v0.086l-0.254,0.844l0.17,0.271
		c0.428-0.179,0.742-0.271,0.945-0.271v-0.252c-0.281,0-0.482-0.288-0.607-0.862v-0.254c0-0.212,0.119-0.437,0.355-0.676v-0.185
		C327.098,163.473,326.467,163.163,325.678,163.163z"/>
	<path fill="#FFFFFF" d="M330.141,165.478c-0.359-0.36-0.561-0.731-0.592-1.115l0.17-0.524l-1.725-0.252v0.083l0.254,0.338
		c0.629,0.383,0.945,0.783,0.945,1.2c0,0.19-0.084,0.394-0.252,0.608v0.085c0.064,0,0.465-0.113,1.199-0.338V165.478
		L330.141,165.478z"/>
	<path fill="#FFFFFF" d="M332.455,166.847v-0.085c0.088-0.014,0.156-0.029,0.23-0.043l0.377-0.294c0-0.068-0.027-0.102-0.084-0.102
		c0.281-0.247,0.424-0.387,0.424-0.421c-1.139,0.348-1.771,0.523-1.896,0.523v0.254c0.244,0.127,0.469,0.273,0.68,0.431l0.334-0.262
		L332.455,166.847L332.455,166.847z"/>
	<polygon fill="#FFFFFF" points="328.332,163.079 327.91,162.978 327.824,162.978 327.824,163.163 328.332,163.246 	"/>
	<path fill="#FFFFFF" d="M332.186,167.109l-1.373,1.072c0.006,0.008,0.016,0.011,0.021,0.019l1.396-1.055
		C332.214,167.133,332.2,167.12,332.186,167.109z"/>
	<path fill="#FFFFFF" d="M340.619,167.185c0.854-0.09,1.283-0.23,1.283-0.423v-0.083c-0.203,0-0.75-0.175-1.641-0.525v0.356
		c0,0.473-0.346,0.783-1.031,0.93v0.185c0,0.046,0.316,0.326,0.945,0.845l-0.084-0.59v-0.085L340.619,167.185z"/>
	<rect x="331.779" y="178.946" fill="#FFFFFF" width="0.17" height="0.085"/>
	<path fill="#FFFFFF" d="M324.648,155.084V155c-0.092-0.171-0.176-0.254-0.254-0.254h-0.084
		C324.445,154.973,324.557,155.084,324.648,155.084z"/>
	<path fill="#FFFFFF" d="M330.563,175.347h0.271c0.17,0,0.451,0.113,0.85,0.338c0.27,0,0.5-0.602,0.689-1.808h-0.084
		c-0.396,0.745-0.77,1.117-1.117,1.117c-0.279,0-0.566-0.085-0.859-0.254c-0.744,0.236-1.115,0.638-1.115,1.2
		c0.281,1.093,0.736,1.64,1.369,1.64h0.354c0.307,0,0.504-0.119,0.592-0.356v-0.423l-0.082-0.169
		c-0.215,0.169-0.469,0.255-0.762,0.255h-0.102c-0.281-0.146-0.422-0.378-0.422-0.694v-0.169
		C330.141,175.718,330.281,175.494,330.563,175.347z"/>
	<path fill="#FFFFFF" d="M332.709,171.73l-0.676,0.187c-0.508,0-0.879-0.344-1.117-1.031c-1.227,0-1.998,0.94-2.313,2.822v0.169
		c0,0.542,0.277,0.828,0.844,0.862c0.158,0,0.332-0.056,0.523-0.169l-0.172-0.608v-0.254c0.396-1.082,0.938-1.622,1.625-1.622
		c0.246,0,0.563,0.225,0.945,0.676h0.084c0.17,0,0.287-0.28,0.354-0.845L332.709,171.73z"/>
	<path fill="#FFFFFF" d="M324.141,155.169c0.146,0.384,0.316,0.614,0.508,0.693h0.168c0-0.463,0.23-0.693,0.695-0.693v-0.085
		c-0.227-0.338-0.457-0.507-0.695-0.507h-0.084c0,0.102,0.057,0.243,0.17,0.423c0,0.089-0.057,0.209-0.17,0.354
		c-0.281-0.043-0.422-0.135-0.422-0.27L324.141,155.169z"/>
	<path fill="#FFFFFF" d="M332.287,178.946c0.146,0,0.287-0.314,0.422-0.946h-0.17l-0.252,0.169h-0.254
		c-0.033,0-0.182-0.111-0.439-0.338h-0.086l-0.082,0.423v0.439h0.082c0.08-0.012,0.199-0.157,0.357-0.439
		c0.1,0.056,0.211,0.083,0.336,0.083v0.608L332.287,178.946L332.287,178.946z"/>
	<path fill="#FFFFFF" d="M342.766,168.57h0.59c1.027,0.125,1.537,0.581,1.537,1.37c0.633-0.135,0.947-0.394,0.947-0.777
		c0-1.025-0.941-1.713-2.822-2.063c-0.189,0-0.508,0.086-0.947,0.255c0.059,0.417,0.088,0.647,0.088,0.693
		c0,0.584-0.373,0.928-1.117,1.029v0.169c0.385,0.463,0.614,0.694,0.691,0.694c0.113-0.022,0.227-0.169,0.338-0.439l-0.084-0.338
		C342.111,168.769,342.369,168.57,342.766,168.57z"/>
	<path fill="#FFFFFF" d="M343.018,173.032c0-0.09-0.428-0.581-1.285-1.471l-0.184,0.085c0,0.034,0.203,0.35,0.607,0.946v0.085
		l-0.086,0.523c-0.52,0.564-0.775,0.964-0.775,1.2c0,0.632,0.457,1.031,1.369,1.2c1.09,0,1.639-0.457,1.639-1.369l-0.605-0.439
		h-0.088v0.169c0,0.451-0.141,0.737-0.424,0.863h-0.254c-0.326,0-0.609-0.197-0.859-0.592v-0.187
		C342.07,173.765,342.387,173.427,343.018,173.032z"/>
	<path fill="#FFFFFF" d="M340.264,175.263c-0.508,0-1.076-0.374-1.709-1.117h-0.082v0.169c0.619,1.083,1.16,1.624,1.621,1.624
		c0.383,0,0.646-0.26,0.777-0.777c-0.057,0-0.086-0.03-0.086-0.085C340.539,175.202,340.363,175.263,340.264,175.263z"/>
	<path fill="#FFFFFF" d="M340.871,173.961c-0.721,0-1.148-0.513-1.283-1.538v-0.507c0-0.19,0.084-0.394,0.252-0.608
		c0.688-0.08,1.031-0.221,1.031-0.423c0-0.034-0.26-0.264-0.777-0.691h-0.084c0,0.596-0.313,1.023-0.945,1.284
		c-0.146,0-0.373-0.03-0.676-0.085c-0.184,0.338-0.271,0.626-0.271,0.862c0.438,1.824,1.127,2.739,2.062,2.739h0.17
		c0.438,0,0.696-0.282,0.776-0.847C341.125,174.023,341.039,173.961,340.871,173.961z"/>
	<path fill="#FFFFFF" d="M330.057,154.138c0.404,0,0.918,0.344,1.537,1.031h0.086V155c-0.656-1.081-1.197-1.624-1.623-1.624
		c-0.271,0-0.531,0.288-0.775,0.862c0.055,0,0.08,0.03,0.08,0.085c0.191-0.125,0.367-0.188,0.525-0.188h0.17V154.138z"/>
	<path fill="#FFFFFF" d="M342.24,165.732c-0.857-0.745-1.283-1.258-1.283-1.538c0-0.225,0.111-0.457,0.338-0.693
		c-0.137,0-0.537,0.085-1.201,0.254v0.252c0.35,0.328,0.525,0.669,0.525,1.031c0,0.157-0.064,0.332-0.188,0.524l0.188,0.083h0.166
		c0.328,0,0.783,0.03,1.371,0.085h0.084V165.732z"/>
	<rect x="341.986" y="166.153" fill="#FFFFFF" width="0.17" height="0.169"/>
	<path fill="#FFFFFF" d="M331.088,165.208c0.055,0,0.715-0.169,1.975-0.507v-0.169h-0.605l0.17-0.254v-0.083
		c-0.113,0-0.396,0.083-0.846,0.252v-0.169c0.338-0.056,0.508-0.147,0.508-0.27c0-0.022-0.113-0.163-0.338-0.421V163.5
		c0.395,0.338,0.617,0.507,0.676,0.507v-0.252c0.213,0,0.357,0.028,0.438,0.083h0.172l-1.454-1.37l-0.271,0.171l0.087,0.777
		c-0.136,0.608-0.332,1.148-0.593,1.622L331.088,165.208z"/>
	<path fill="#FFFFFF" d="M339.064,164.092c-0.982,0.348-1.578,0.523-1.793,0.523v0.169h0.422v0.169h-0.252v0.171
		c0.402,0,0.721-0.058,0.945-0.171h0.086v0.085c-0.125,0-0.328,0.089-0.609,0.271l0.338,0.423v0.083l-0.676-0.506h-0.17v0.169
		c0.17,0,0.254,0.058,0.254,0.168l-0.523-0.083h-0.084c0,0.044,0.488,0.501,1.471,1.367c0.111,0,0.168-0.056,0.168-0.168v-1.03
		l0.17-0.254v-0.086l-0.086-0.185c0.281-0.451,0.424-0.761,0.424-0.93L339.064,164.092z"/>
	<path fill="#FFFFFF" d="M343.523,157.485c-1.713,0.439-2.566,1.182-2.566,2.229v0.271c0.688,0.214,1.029,0.559,1.029,1.031v0.338
		l-0.084,0.423c0.055,0,0.084,0.028,0.084,0.083c0.631-0.157,0.945-0.298,0.945-0.421v-0.085c-0.52-0.473-0.775-0.731-0.775-0.777
		v-0.083c0-0.801,0.541-1.433,1.623-1.894c0.068,0,0.223,0.041,0.416,0.1l-0.243-1.194c-0.026-0.005-0.045-0.016-0.073-0.021
		H343.523z"/>
	<path fill="#FFFFFF" d="M334.18,161.962h0.168l0.086-0.608h0.084v0.085c-0.057,0.304-0.084,0.563-0.084,0.777v0.169h0.168v-0.338
		h0.17v0.592h0.168l0.355-2.063l-1.641,0.693h-0.592l-0.438,0.083v0.169l1.469,1.369h0.087l-0.255-0.507V162.3h0.168v0.169h0.171
		V162.3c0-0.034-0.177-0.236-0.522-0.608h0.084L334.18,161.962z"/>
	<rect x="342.324" y="166.239" fill="#FFFFFF" width="0.17" height="0.185"/>
	<path fill="#FFFFFF" d="M329.109,155.354h0.084c0.979,0.147,1.471,0.773,1.471,1.876c0,0.26-0.09,0.519-0.27,0.777
		c-0.689,0.147-1.033,0.288-1.033,0.423v0.083c0,0.091,0.229,0.294,0.695,0.61h0.168c0.08-0.801,0.395-1.201,0.943-1.201h0.17
		l0.439,0.083c0.17-0.292,0.254-0.578,0.254-0.86c0-0.203-0.027-0.463-0.084-0.779c-0.602-1.361-1.285-2.043-2.063-2.043
		c-0.43,0-0.688,0.252-0.776,0.759v0.272H329.109z"/>
	<path fill="#FFFFFF" d="M323.617,157.485v0.439c0.125,0.856,0.467,1.284,1.031,1.284h0.605c0.51-0.63,0.938-0.946,1.285-0.946
		c0.078,0,0.422,0.175,1.031,0.525h0.084v-0.086c-0.734-0.743-1.219-1.148-1.453-1.216H326.1c-0.406,0.688-0.688,1.029-0.846,1.029
		c-0.451,0-0.766-0.308-0.945-0.928c0-0.236,0.057-0.355,0.168-0.355l0.777-0.421l-0.354-0.525
		C324.045,156.431,323.617,156.831,323.617,157.485z"/>
	<path fill="#FFFFFF" d="M338.725,157.316c-0.133,0-0.479-0.254-1.031-0.761c-0.109,0-0.225,0.31-0.338,0.93l0.086,0.185
		c0.201-0.123,0.428-0.185,0.678-0.185h0.084c0.428,0,0.799,0.316,1.113,0.946h0.271c0.936,0,1.623-0.94,2.061-2.822
		c-0.18-0.688-0.496-1.032-0.945-1.032l-0.523,0.252l0.256,0.61C340.432,156.272,339.863,156.898,338.725,157.316z"/>
	<rect x="342.664" y="166.322" fill="#FFFFFF" width="0.184" height="0.187"/>
	<path fill="#FFFFFF" d="M345.248,166.593h0.17c0.141,0,0.252-0.018,0.378-0.026l-0.067-0.332c-0.193,0.07-0.405,0.135-0.648,0.189
		C345.078,166.537,345.135,166.593,345.248,166.593z"/>
	<path fill="#FFFFFF" d="M339.23,169.415c-0.066-0.157-0.381-0.439-0.945-0.845h-0.084c-0.146,0.801-0.518,1.201-1.115,1.201h-0.084
		c0.404,0.856,0.607,1.369,0.607,1.538h0.17c0.113-0.304,0.168-0.535,0.168-0.694C337.947,169.816,338.377,169.415,339.23,169.415z"
		/>
	<path fill="#FFFFFF" d="M345.434,164.789c-0.084,0.028-0.166,0.057-0.268,0.081h-0.088c-1.26-0.135-1.893-0.479-1.893-1.031
		c0.17-0.406,0.256-0.658,0.256-0.759v-0.102l-0.086-0.169c-0.213,0-0.559,0.118-1.031,0.354c0.463,0.439,0.693,0.811,0.693,1.115
		c0,0.362-0.146,0.614-0.439,0.761c0,0.618,0.631,0.992,1.893,1.115h0.254c0.373-0.035,0.688-0.092,0.953-0.167L345.434,164.789z"/>
	<polygon fill="#FFFFFF" points="344.387,162.554 344.979,162.554 344.92,162.261 344.387,162.385 	"/>
	<path fill="#FFFFFF" d="M337.271,176.885c0.271,0,0.467-0.575,0.592-1.723l-0.084-0.592h-0.17c0,1.037-0.432,1.667-1.283,1.892
		v0.086c0.146,0.225,0.371,0.338,0.676,0.338L337.271,176.885L337.271,176.885z"/>
	<path fill="#FFFFFF" d="M333.926,178.338h0.082c1.084-0.179,1.625-0.664,1.625-1.453v-0.169c0-0.213-0.113-0.473-0.338-0.777
		c-1.035-0.125-1.555-0.469-1.555-1.031v-0.761h-0.168c-0.17,0.801-0.256,1.369-0.256,1.707v0.085c0,0.111,0.057,0.169,0.17,0.169
		h0.947c0.223,0.102,0.338,0.304,0.338,0.608v0.083c0,0.35-0.229,0.638-0.68,0.863c-0.234,0-0.521-0.203-0.857-0.608h-0.086
		c-0.113,0.405-0.17,0.638-0.17,0.693C333.25,178.141,333.566,178.338,333.926,178.338z"/>
	<path fill="#FFFFFF" d="M333.148,170.615c0-0.021,0.057-0.449,0.168-1.284c-0.168,0-0.398,0.056-0.691,0.169
		c-0.338-0.056-0.684-0.254-1.031-0.592h-0.086c0,0.203-0.281,0.632-0.844,1.286v0.083h0.506c0.307-0.224,0.564-0.337,0.779-0.337
		h0.252c0.428,0,0.688,0.227,0.777,0.675H333.148z"/>
	<path fill="#FFFFFF" d="M337.271,171.309h-0.188c0.125,0.36,0.188,0.592,0.188,0.691h0.17
		C337.328,171.628,337.271,171.398,337.271,171.309z"/>
	<path fill="#FFFFFF" d="M337.355,174.484v-0.252c0-1.071-0.4-1.787-1.201-2.146c-0.234,0.338-0.521,0.507-0.859,0.507
		c-0.328,0-0.697-0.169-1.115-0.507h-0.086c0,0.09-0.09,0.405-0.27,0.946l0.355,0.169l0.592-0.354h0.084
		c0.596,0,0.998,0.544,1.199,1.638v0.423c0,0.328-0.197,0.614-0.594,0.862c0.217,0.348,0.475,0.522,0.777,0.522
		C336.883,176.292,337.256,175.69,337.355,174.484z"/>
	<path fill="#FFFFFF" d="M345.418,170.108l-0.525,0.086c-0.463,0.574-0.857,0.86-1.195,0.86c-0.217,0-0.525-0.145-0.932-0.439
		h-0.188v0.086c0.473,0.562,0.961,0.968,1.471,1.216c0.418-0.688,0.67-1.031,0.76-1.031h0.188c0.451,0,0.73,0.282,0.846,0.845
		c0,0.463-0.279,0.693-0.846,0.693c0,0.405,0.111,0.608,0.338,0.608h0.17c0.586,0,0.957-0.461,1.115-1.385
		C346.471,170.621,346.07,170.108,345.418,170.108z"/>
	<path fill="#FFFFFF" d="M345.502,173.455h-0.084c-0.045,0.517-0.275,0.777-0.693,0.777v0.083c0.215,0.338,0.475,0.509,0.777,0.509
		v-0.085l-0.254-0.423c0.111-0.078,0.17-0.169,0.17-0.271c0.156,0,0.326,0.064,0.506,0.187
		C345.924,173.972,345.783,173.713,345.502,173.455z"/>
	<path fill="#FFFFFF" d="M321.826,168.993c-0.193,0.169-0.338,0.252-0.441,0.252v0.169h0.441c0.146,0,0.314-0.056,0.508-0.169
		c-0.283-0.246-0.424-0.388-0.424-0.421v-0.168l0.084-0.439c-0.438,0-0.699,0.117-0.775,0.354v0.086h0.504
		C321.723,168.779,321.758,168.892,321.826,168.993z"/>
	<path fill="#FFFFFF" d="M345.586,174.401c0.09,0.169,0.176,0.252,0.254,0.252v-0.083c0-0.102-0.057-0.157-0.17-0.169H345.586z"/>
	<path fill="#FFFFFF" d="M343.965,161.185v0.085c0.27-0.079,0.5-0.152,0.708-0.222l-0.071-0.35
		C344.438,160.831,344.236,160.987,343.965,161.185z"/>
	<path fill="#FFFFFF" d="M344.809,167.268v0.086c0.801,0.62,1.199,1.194,1.199,1.723v0.085c0,0.124-0.027,0.237-0.084,0.338v0.085
		c0.186,0,0.334-0.057,0.455-0.152l-0.314-1.546C345.757,167.671,345.343,167.464,344.809,167.268z"/>
	<path fill="#FFFFFF" d="M328.604,174.993h0.084c0.113,0,0.168-0.058,0.168-0.169c-0.348-0.362-0.521-0.733-0.521-1.117
		c0-0.225,0.09-0.624,0.271-1.199v-0.169c-0.576,0.563-0.862,1.25-0.862,2.061C327.74,174.796,328.027,174.993,328.604,174.993z"/>
	<path fill="#FFFFFF" d="M339.316,152.516h0.354c0.146,0,0.287,0.259,0.422,0.777c0,0.282-0.168,0.535-0.506,0.761
		c-0.282,0-0.682-0.141-1.197-0.423c-0.281,0.528-0.484,1.161-0.609,1.892h0.084c0.395-0.743,0.766-1.115,1.115-1.115h0.252
		c0.16,0,0.334,0.056,0.523,0.169c0.652,0,1.055-0.344,1.201-1.029c-0.189-1.207-0.676-1.811-1.455-1.811
		c-0.574,0-0.859,0.316-0.859,0.948C339.047,152.572,339.271,152.516,339.316,152.516z"/>
	<path fill="#FFFFFF" d="M342.24,157.586c0.719-0.236,1.176-0.355,1.369-0.355c0.104,0,0.199,0.037,0.299,0.056l-0.117-0.576
		C342.773,156.974,342.24,157.265,342.24,157.586z"/>
	<path fill="#FFFFFF" d="M338.285,151.062l-0.168-0.083v0.083c-0.09,0-0.148-0.062-0.17-0.185v-0.423h-0.084
		c-0.158,0-0.271,0.288-0.338,0.862l0.592-0.085h0.084c0.18,0,0.271,0.113,0.271,0.34h0.08c0.113,0,0.172-0.058,0.172-0.169v-0.693
		h-0.084L338.285,151.062z"/>
	<rect x="338.201" y="150.37" fill="#FFFFFF" width="0.188" height="0.169"/>
	<path fill="#FFFFFF" d="M328.518,159.462h-0.086c-0.156,0-0.246,0.145-0.27,0.439c0,0.62-0.314,0.93-0.945,0.93h-0.168
		c-1.195-0.125-1.793-0.581-1.793-1.37c-0.574,0.056-0.861,0.314-0.861,0.777v0.254c0.652,1.204,1.564,1.806,2.738,1.806
		c0.516-0.113,0.861-0.224,1.029-0.337c0-0.111-0.057-0.286-0.168-0.523c0-0.632,0.398-1.031,1.199-1.2v-0.085
		C328.811,159.693,328.586,159.462,328.518,159.462z"/>
	<path fill="#FFFFFF" d="M340.619,158.787v-0.086c-0.576,0.497-0.863,0.777-0.863,0.845v0.085
		C340.33,159.136,340.619,158.852,340.619,158.787z"/>
	<path fill="#FFFFFF" d="M341.211,158.093v-0.085c-0.283,0.205-0.426,0.346-0.426,0.423v0.083
		C341.068,158.312,341.211,158.172,341.211,158.093z"/>
	<path fill="#FFFFFF" d="M326.016,172.761c1.32-0.338,1.979-0.682,1.979-1.031c-0.619,0.236-1.021,0.355-1.199,0.355h-0.51
		c-0.246,0-0.533-0.147-0.859-0.439h-0.086C325.34,172.39,325.566,172.761,326.016,172.761z"/>
	<path fill="#FFFFFF" d="M337.17,158.87c-0.125,0-0.236,0.344-0.338,1.032h0.777c0.258,0,0.574,0.169,0.945,0.507l0.945-1.201
		v-0.169c-0.135,0-0.596,0.142-1.385,0.423c-0.563-0.067-0.848-0.264-0.848-0.592H337.17z"/>
	<path fill="#FFFFFF" d="M336.326,151.062h-0.271c-1.023,0.215-1.537,0.672-1.537,1.37v0.169c0,0.248,0.141,0.536,0.422,0.862
		c0.98,0,1.473,0.316,1.473,0.946v0.761h0.084c0.137,0,0.275-0.598,0.424-1.792l-0.17-0.083h-0.947
		c-0.279-0.181-0.422-0.384-0.422-0.608c0.158-0.632,0.354-0.948,0.594-0.948h0.084c0.225,0,0.514,0.175,0.861,0.525
		c0.168-0.034,0.252-0.265,0.252-0.692C336.945,151.23,336.664,151.062,336.326,151.062z"/>
	<path fill="#FFFFFF" d="M337.441,168.047l0.168-0.085c-0.822-0.912-1.309-1.369-1.455-1.369l0.086,0.423v0.083l-0.27-0.169h-0.086
		v0.086l0.607,0.691h-0.084l-0.355-0.269h-0.168c-0.059,0.348-0.141,0.523-0.254,0.523l0.084-0.423v-0.608h-0.17v0.338h-0.168
		v-0.421h-0.17c0,0.181-0.117,0.783-0.354,1.809v0.083h0.354c0.309-0.27,0.846-0.5,1.623-0.691L337.441,168.047L337.441,168.047z"/>
	<path fill="#FFFFFF" d="M334.008,153.109h-0.354c-0.527,0.302-0.813,0.934-0.844,1.892c0,1.093,0.371,1.836,1.113,2.23
		c0.404-0.282,0.688-0.421,0.848-0.421h0.354c0.227,0,0.508,0.169,0.846,0.507c0.125,0,0.242-0.316,0.355-0.948
		c0-0.089-0.057-0.145-0.172-0.167h-0.27l-0.592,0.354c-0.574,0-0.979-0.602-1.201-1.809c0.033-0.688,0.232-1.029,0.594-1.029
		v-0.169C334.539,153.253,334.314,153.109,334.008,153.109z"/>
	<path fill="#FFFFFF" d="M335.043,170.615h0.166c0.146,0,0.316,0.062,0.508,0.187c0.518,0.563,0.834,0.845,0.947,0.845h0.084
		c-0.225-1.059-0.338-1.627-0.338-1.707l-0.609,0.254c-0.246,0-0.619-0.171-1.115-0.509c-0.111,0.169-0.225,0.598-0.338,1.286h0.17
		C334.518,170.734,334.691,170.615,335.043,170.615z"/>
	<path fill="#FFFFFF" d="M339.672,161.861l-0.084,0.608c0.057,0,0.084,0.028,0.084,0.085c0.158,0,0.529-0.113,1.113-0.338
		c-0.461-0.26-0.691-0.546-0.691-0.862v-0.338c0-0.193,0.084-0.394,0.254-0.608v-0.592h-0.084c-0.496,0.463-0.926,0.801-1.285,1.016
		C339.439,161.201,339.672,161.547,339.672,161.861z"/>
	<path fill="#FFFFFF" d="M336.748,163.332v0.169c1.172-0.348,1.832-0.581,1.977-0.692l-0.084-0.169
		c-0.629-0.249-1.262-0.819-1.893-1.709c-0.158,0-0.355,0.654-0.594,1.961h0.172c0-0.101,0.055-0.242,0.168-0.423l0.17,0.085
		l-0.086,0.169v0.085c0.227-0.058,0.34-0.34,0.34-0.846h0.168l-0.084,0.423v0.083l0.084,0.171c0.293-0.113,0.496-0.171,0.607-0.171
		v0.085c-0.572,0.169-0.861,0.31-0.861,0.423v0.102c0.068,0,0.152-0.034,0.254-0.102h0.084v0.185L336.748,163.332z"/>
	<path fill="#FFFFFF" d="M342.408,155c0-0.396-0.195-0.592-0.592-0.592h-0.521v0.085c0.35,0.336,0.521,0.709,0.521,1.115v0.083
		c0,0.34-0.09,0.768-0.27,1.286v0.083c0.572-0.596,0.859-1.228,0.859-1.892L342.408,155L342.408,155z"/>
	<path fill="#FFFFFF" d="M321.557,166.762c0,0.521,0.258,0.89,0.777,1.117c0.336-0.137,0.506-0.249,0.506-0.34
		c-0.383-0.382-0.58-0.642-0.592-0.777c0.135-0.517,0.422-0.777,0.861-0.777h0.338l0.256,0.169c0.076,0.676,0.162,1.077,0.252,1.201
		c1.205-0.169,1.809-0.338,1.809-0.507v-0.085c-0.125,0-0.438,0.028-0.947,0.085c-0.135,0-0.332-0.113-0.592-0.338
		c-0.215-0.979-0.611-1.471-1.195-1.471C322.26,165.039,321.771,165.613,321.557,166.762z"/>
	<path fill="#FFFFFF" d="M322.756,163.5v0.169c0.123,0.519,0.271,0.777,0.438,0.777h0.088c0.135-0.98,0.766-1.469,1.895-1.469
		v-0.169c-0.193,0-0.34-0.03-0.439-0.085C323.414,162.926,322.756,163.186,322.756,163.5z"/>
	<path fill="#FFFFFF" d="M323.447,160.494v0.083c0.588,0.979,1.188,1.47,1.809,1.47h0.084v-0.187h-0.084
		c-0.553-0.271-0.924-0.783-1.115-1.536c0-0.046,0.027-0.215,0.084-0.509h-0.168C323.65,160.008,323.447,160.233,323.447,160.494z"
		/>
	<path fill="#FFFFFF" d="M323.955,171.392h0.439c0.525,0,0.873-0.344,1.029-1.029c-0.17-0.441-0.252-0.755-0.252-0.948v-0.083
		c0-0.338,0.344-0.709,1.029-1.115v-0.085c-1.205,0.304-1.811,0.564-1.811,0.777v0.085c0.281,0.372,0.422,0.658,0.422,0.861v0.254
		c-0.146,0.282-0.371,0.424-0.676,0.424h-0.438c-0.283-0.203-0.424-0.344-0.424-0.424v-0.085c0-0.146,0.057-0.406,0.168-0.777
		h-0.506c-0.236,0.092-0.355,0.294-0.355,0.608v0.254C322.586,170.705,323.043,171.134,323.955,171.392z"/>
	<path fill="#FFFFFF" d="M334.348,159.208h0.17c0.338,0,0.623,0.169,0.861,0.507c0.168,0,0.311-0.399,0.422-1.2h-0.084l-0.422,0.272
		h-0.355c-0.168,0-0.65-0.374-1.453-1.117c0.113,0.767,0.168,1.252,0.168,1.455v0.252
		C333.713,159.376,333.943,159.321,334.348,159.208z"/>
	<path fill="#FFFFFF" d="M332.371,153.969v0.439l0.084,0.592h0.17v-0.423c0-0.789,0.398-1.391,1.199-1.808v-0.084
		c-0.385-0.169-0.609-0.254-0.676-0.254C332.629,152.431,332.371,152.944,332.371,153.969z"/>
	<path fill="#FFFFFF" d="M331.426,159.985l-0.424-0.083h-0.086c0.498,0.564,0.783,0.844,0.863,0.844h0.254
		c0-0.653,0.4-1.053,1.201-1.2c-0.463-0.753-0.695-1.238-0.695-1.453h-0.168C332.18,159.355,331.865,159.985,331.426,159.985z"/>
	<path fill="#FFFFFF" d="M332.625,156.978c0.123,0.359,0.186,0.59,0.186,0.691h0.168c-0.109-0.372-0.168-0.602-0.168-0.691H332.625z
		"/>
	<path fill="#FFFFFF" d="M327.572,153.8h-0.439c-0.801,0.181-1.201,0.552-1.201,1.115v0.254c0,0.102,0.176,0.219,0.525,0.354
		c0.191-0.686,0.445-1.029,0.76-1.029c0.383,0,0.699,0.286,0.945,0.86c0,0.282-0.314,0.564-0.945,0.847
		c0,0.314,0.432,0.833,1.301,1.554h0.086c0-0.08-0.203-0.451-0.607-1.115c0-0.113,0.057-0.288,0.168-0.524
		c0.463-0.507,0.691-0.851,0.691-1.032C328.855,154.307,328.428,153.879,327.572,153.8z"/>
</g>
<g>
	<path fill="#AA0505" d="M315.477,261.614c-1.313-0.778-3.108-1.474-5.481-1.985c0.165,0.764,0.35,1.467,0.55,2.113
		C312.158,261.729,313.803,261.686,315.477,261.614z"/>
	<path fill="#AA0505" d="M307.686,261.74c0.2-0.646,0.387-1.348,0.549-2.111c-2.344,0.506-4.125,1.191-5.436,1.959
		C304.386,261.668,306.016,261.721,307.686,261.74z"/>
	<path fill="#AA0505" d="M309.993,257.87C327.244,254.143,313.717,240.615,309.993,257.87L309.993,257.87z"/>
	<path fill="#AA0505" d="M309.678,257.938c-0.354-2.205-0.563-4.823-0.563-7.938c0,3.111-0.21,5.732-0.563,7.938
		c-0.106-0.021-0.21-0.045-0.313-0.065c0.021,0.104,0.047,0.207,0.068,0.313c-2.205,0.354-4.824,0.564-7.938,0.565
		c3.109-0.001,5.729,0.209,7.938,0.563c-0.021,0.105-0.047,0.209-0.068,0.313c0.104-0.021,0.207-0.047,0.313-0.066
		c0.11,0.688,0.208,1.414,0.288,2.187c0.186,0.001,0.366,0.003,0.553,0.003c0.078-0.773,0.178-1.5,0.289-2.189
		c0.105,0.021,0.209,0.045,0.313,0.068c-0.021-0.105-0.046-0.208-0.068-0.314c2.204-0.354,4.823-0.564,7.937-0.564
		c-3.111,0-5.73-0.209-7.937-0.563c0.022-0.106,0.048-0.211,0.068-0.314C309.889,257.893,309.785,257.916,309.678,257.938z"/>
	<path fill="#AA0505" d="M308.234,257.871C304.514,240.616,290.982,254.15,308.234,257.871L308.234,257.871z"/>
</g>
<path fill="#E5E3E3" d="M342.675,150.231l-3.874-19.041h-80.832c-2.438,0.186-4.729,0.288-6.845,0.288
	c-2.457,0-5.059-0.106-7.758-0.288H163.45l-3.879,19.031c6.791,7.807,45.197,13.794,91.553,13.794
	C297.466,164.016,335.857,158.034,342.675,150.231z"/>
<path fill="#C61212" d="M163.449,131.631c0,8.501,39.255,15.4,87.671,15.4c48.424,0,87.679-6.899,87.679-15.4
	c0-8.5-39.255-15.398-87.679-15.398C202.704,116.231,163.449,123.131,163.449,131.631z"/>
<g>
	<circle fill="none" stroke="#AA0505" stroke-miterlimit="10" cx="243.947" cy="151.502" r="1.949"/>
	<circle fill="none" stroke="#AA0505" stroke-miterlimit="10" cx="243.947" cy="159.182" r="1.949"/>
</g>
<g>
	<circle fill="none" stroke="#AA0505" stroke-miterlimit="10" cx="257.861" cy="151.502" r="1.949"/>
	<circle fill="none" stroke="#AA0505" stroke-miterlimit="10" cx="257.861" cy="159.182" r="1.949"/>
</g>
<g opacity="0.4">
	<path fill="#9A0A0A" d="M254.088,152.367c-1.283-0.384-2.638,0.347-3.021,1.63l-13.573,45.373
		c-0.225,0.754-0.032,1.511,0.401,2.103l-1.732,5.793c-0.229,0.762,0.205,1.562,0.966,1.792c0.761,0.227,1.563-0.204,1.792-0.967
		l1.732-5.791c0.688-0.256,1.266-0.783,1.492-1.538l13.574-45.372C256.102,154.104,255.372,152.751,254.088,152.367z"/>
	<path fill="#9A0A0A" d="M252.833,152.367c1.284-0.384,2.638,0.347,3.021,1.63l13.575,45.373c0.227,0.754,0.032,1.511-0.401,2.103
		l1.732,5.793c0.229,0.762-0.205,1.562-0.966,1.792c-0.761,0.227-1.563-0.204-1.792-0.967l-1.732-5.791
		c-0.688-0.256-1.266-0.783-1.492-1.538l-13.572-45.372C250.818,154.104,251.549,152.751,252.833,152.367z"/>
</g>
<g>
	<path fill="#F2F2F2" d="M251.729,151.604c-1.285-0.384-2.639,0.347-3.021,1.63l-13.575,45.373
		c-0.225,0.754-0.032,1.511,0.401,2.103l-1.732,5.793c-0.229,0.762,0.205,1.562,0.966,1.792c0.761,0.227,1.563-0.204,1.792-0.967
		l1.732-5.791c0.688-0.256,1.266-0.783,1.492-1.538l13.573-45.372C253.741,153.342,253.012,151.989,251.729,151.604z"/>
	<path fill="#F2F2F2" d="M250.473,151.604c1.284-0.384,2.638,0.347,3.021,1.63l13.574,45.373c0.226,0.754,0.033,1.511-0.4,2.103
		l1.732,5.793c0.229,0.762-0.205,1.562-0.967,1.792c-0.762,0.227-1.563-0.204-1.791-0.967l-1.732-5.791
		c-0.688-0.256-1.266-0.783-1.492-1.538l-13.574-45.372C248.459,153.342,249.188,151.989,250.473,151.604z"/>
</g>
</svg>
