<?xml version="1.0" encoding="utf-8"?>
<!-- Generator: Adobe Illustrator 16.2.0, SVG Export Plug-In . SVG Version: 6.00 Build 0)  -->
<!DOCTYPE svg PUBLIC "-//W3C//DTD SVG 1.1//EN" "http://www.w3.org/Graphics/SVG/1.1/DTD/svg11.dtd">
<svg version="1.1" id="content" xmlns="http://www.w3.org/2000/svg" xmlns:xlink="http://www.w3.org/1999/xlink" x="0px" y="0px"
	 width="500px" height="500px" viewBox="0 0 500 500" enable-background="new 0 0 500 500" xml:space="preserve">
<g id="bounds" display="none">
	<rect display="inline" fill="none" stroke="#000000" stroke-miterlimit="10" width="500" height="500"/>
</g>
<g>
	<path fill="#CC3333" d="M273.673,348.082c31.384-1.533,57.752-5.617,73.324-11.086c2.803-8.438,5.453-18.721,7.215-30.764
		c-17.451,6.895-50.91,11.897-90.629,13.053C266.725,330.783,270.352,340.461,273.673,348.082z"/>
	<path fill="#CC3333" d="M145.645,276.225c0,6.664,0.312,12.965,0.845,18.922c19.611,6.492,54.691,10.914,95.05,11.22
		c0.508-2.404,0.99-4.863,1.438-7.39c0.9-5.094,1.924-12.896,2.947-21.799c-41.651-0.004-78.369-4.213-100.167-10.611
		C145.685,269.852,145.645,273.08,145.645,276.225z"/>
	<path fill="#CC3333" d="M148.041,224.849c-0.749,9.303-1.375,18.7-1.8,27.848c20.273,6.777,57.351,11.322,99.752,11.322
		c0.457,0,0.91-0.004,1.367-0.007c1.033-9.948,2.004-20.276,2.775-29.214c-1.375,0.009-2.754,0.016-4.141,0.016
		C205.734,234.815,170.081,230.886,148.041,224.849z"/>
	<path fill="#CC3333" d="M156.112,340.229c17.73,4.326,43.119,7.353,72.042,8.244c3.35-7.637,7.023-17.377,10.205-28.981
		c-36.946-0.459-69.395-4.228-90.043-9.838C150.308,321.777,153.182,331.996,156.112,340.229z"/>
	<path fill="#CC3333" d="M259.021,298.975c0.438,2.472,0.907,4.877,1.403,7.23c44.57-1.104,81.287-7.258,95.437-15.5
		c0.313-4.629,0.494-9.449,0.494-14.48c0-4.256-0.072-8.66-0.203-13.158c-17.81,7.732-55.412,13.275-99.861,14.023
		C257.186,286.027,258.116,293.865,259.021,298.975z"/>
	<path fill="#CC3333" d="M255.064,263.949c46.638-0.721,85.539-6.949,100.486-15.426c-0.465-8.86-1.107-17.903-1.852-26.821
		c-19.18,7.408-56.926,12.587-100.955,13.072C253.396,243.699,254.193,254.008,255.064,263.949z"/>
	<path fill="#CC3333" d="M167.737,364.725c-0.01,9.002,6.787,15.177,23.24,15.177c26,0.432,25.918-4.425,27-11.925
		c0,0,1.525-2.266,3.862-6.555c-22.793-0.922-43.256-3.123-59.454-6.211C165.466,361.477,167.737,364.725,167.737,364.725z"/>
	<path fill="#CC3333" d="M153.692,170.164c21.221,5.546,54.661,9.128,92.301,9.128c43.975,0,82.229-4.888,101.944-12.086
		c-2.311-18.468-4.192-30.843-4.192-30.843c0,8.988-41.521,16.292-92.75,16.292c-51.214,0-92.738-7.303-92.743-16.291h-0.002
		C158.25,136.365,156.166,150.069,153.692,170.164z"/>
	<path fill="#CC3333" d="M284.021,367.975c1.084,7.5,1,12.354,27,11.925c16.453,0,23.25-6.175,23.239-15.175
		c0,0,2.857-4.09,6.515-11.946c-15.396,3.854-36.558,6.75-60.877,8.164C282.384,365.547,284.021,367.975,284.021,367.975z"/>
	<path fill="#CC3333" d="M152.105,183.54c-0.989,8.664-1.982,18.049-2.884,27.742c20.806,6.251,56.377,10.375,96.772,10.375
		c1.746,0,3.484-0.009,5.213-0.024c0.119-1.606,0.228-3.099,0.313-4.423v-0.002c0.088,1.323,0.188,2.813,0.297,4.418
		c45.111-0.446,83.437-6.036,100.625-13.891c-0.907-9.455-1.895-18.563-2.864-26.931c-21.269,6.979-59.688,11.647-103.582,11.647
		C208.126,192.451,174.329,188.976,152.105,183.54z"/>
	<path fill="#961A23" d="M250.995,120.073c-51.217,0-92.743,7.299-92.743,16.291v0.001c0.005,8.988,41.528,16.291,92.743,16.291
		c51.229,0,92.75-7.304,92.75-16.292C343.745,127.372,302.225,120.073,250.995,120.073z"/>
	<path fill="#EDEDED" d="M153.692,170.164c-0.517,4.2-1.051,8.684-1.587,13.375c22.224,5.437,56.021,8.911,93.89,8.911
		c43.896,0,82.313-4.668,103.582-11.647c-0.558-4.803-1.109-9.36-1.64-13.597c-19.717,7.198-57.971,12.086-101.944,12.086
		C208.353,179.292,174.913,175.71,153.692,170.164z"/>
	<path fill="#EDEDED" d="M149.221,211.281c-0.416,4.472-0.813,9.007-1.181,13.568c22.04,6.037,57.693,9.966,97.955,9.966
		c1.387,0,2.766-0.007,4.141-0.016c0.425-4.912,0.787-9.393,1.07-13.167c-1.729,0.015-3.467,0.024-5.213,0.024
		C205.598,221.656,170.027,217.532,149.221,211.281z"/>
	<path fill="#EDEDED" d="M252.745,234.774c44.028-0.484,81.774-5.664,100.955-13.072c-0.396-4.708-0.816-9.377-1.259-13.968
		c-17.188,7.854-55.514,13.445-100.625,13.891C252.075,225.394,252.389,229.869,252.745,234.774z"/>
	<path fill="#EDEDED" d="M146.241,252.697c-0.219,4.707-0.383,9.344-0.482,13.869c21.798,6.397,58.516,10.606,100.167,10.61
		c0.484-4.198,0.965-8.639,1.436-13.163c-0.457,0.002-0.91,0.006-1.367,0.006C203.591,264.02,166.514,259.475,146.241,252.697z"/>
	<path fill="#EDEDED" d="M256.29,277.09c44.449-0.748,82.053-6.291,99.86-14.023c-0.137-4.756-0.34-9.621-0.6-14.542
		c-14.947,8.477-53.85,14.707-100.486,15.426C255.46,268.465,255.872,272.896,256.29,277.09z"/>
	<path fill="#EDEDED" d="M148.315,309.652c20.648,5.61,53.098,9.379,90.043,9.838c1.137-4.146,2.211-8.519,3.182-13.125
		c-40.359-0.305-75.439-4.727-95.05-11.219C146.946,300.242,147.564,305.086,148.315,309.652z"/>
	<path fill="#EDEDED" d="M263.583,319.285c39.719-1.154,73.178-6.158,90.629-13.053c0.713-4.89,1.277-10.066,1.647-15.527
		c-14.147,8.242-50.864,14.396-95.436,15.5C261.391,310.795,262.454,315.154,263.583,319.285z"/>
	<path fill="#EDEDED" d="M162.385,355.211c16.198,3.088,36.661,5.289,59.454,6.211c1.746-3.207,3.945-7.551,6.314-12.949
		c-28.922-0.893-54.311-3.918-72.042-8.244C158.288,346.342,160.489,351.354,162.385,355.211z"/>
	<path fill="#EDEDED" d="M279.896,360.941c24.32-1.414,45.482-4.31,60.877-8.164c1.951-4.195,4.125-9.47,6.224-15.781
		c-15.572,5.469-41.94,9.553-73.324,11.086C275.989,353.393,278.15,357.707,279.896,360.941z"/>
</g>
</svg>
