<?xml version="1.0" encoding="utf-8"?>
<!-- Generator: Adobe Illustrator 16.2.0, SVG Export Plug-In . SVG Version: 6.00 Build 0)  -->
<!DOCTYPE svg PUBLIC "-//W3C//DTD SVG 1.1//EN" "http://www.w3.org/Graphics/SVG/1.1/DTD/svg11.dtd">
<svg version="1.1" id="content" xmlns="http://www.w3.org/2000/svg" xmlns:xlink="http://www.w3.org/1999/xlink" x="0px" y="0px"
	 width="500px" height="500px" viewBox="0 0 500 500" enable-background="new 0 0 500 500" xml:space="preserve">
<g id="bounds" display="none">
	<rect display="inline" fill="none" stroke="#000000" stroke-miterlimit="10" width="500" height="500"/>
</g>
<g>
	<path fill="#0A783D" d="M255.065,263.949c46.638-0.721,85.539-6.949,100.487-15.426c-0.466-8.86-1.107-17.903-1.853-26.821
		c-19.18,7.407-56.926,12.588-100.954,13.071C253.396,243.699,254.194,254.009,255.065,263.949z"/>
	<path fill="#0A783D" d="M167.737,364.725c-0.01,9.002,6.787,15.176,23.24,15.176c26,0.432,25.918-4.424,27-11.924
		c0,0,1.525-2.266,3.862-6.555c-22.792-0.922-43.255-3.123-59.454-6.211C165.467,361.477,167.737,364.725,167.737,364.725z"/>
	<path fill="#0A783D" d="M156.112,340.229c17.731,4.326,43.12,7.351,72.042,8.243c3.35-7.637,7.023-17.377,10.205-28.982
		c-36.946-0.459-69.396-4.227-90.044-9.838C150.308,321.778,153.182,331.997,156.112,340.229z"/>
	<path fill="#0A783D" d="M145.646,276.226c0,6.663,0.312,12.964,0.845,18.921c19.611,6.493,54.691,10.915,95.051,11.219
		c0.507-2.403,0.99-4.863,1.437-7.389c0.901-5.093,1.925-12.896,2.948-21.798c-41.652-0.005-78.369-4.213-100.167-10.611
		C145.686,269.853,145.646,273.08,145.646,276.226z"/>
	<path fill="#0A783D" d="M273.674,348.083c31.383-1.534,57.751-5.618,73.324-11.086c2.803-8.438,5.453-18.721,7.214-30.765
		c-17.45,6.895-50.91,11.898-90.629,13.053C266.725,330.783,270.351,340.461,273.674,348.083z"/>
	<path fill="#0A783D" d="M284.021,367.975c1.084,7.5,1,12.354,27,11.924c16.453,0,23.25-6.174,23.24-15.174
		c0,0,2.857-4.09,6.514-11.947c-15.395,3.855-36.556,6.75-60.877,8.164C282.384,365.547,284.021,367.975,284.021,367.975z"/>
	<path fill="#0A783D" d="M259.021,298.975c0.438,2.471,0.909,4.877,1.404,7.231c44.57-1.104,81.288-7.259,95.436-15.5
		c0.314-4.629,0.494-9.45,0.494-14.481c0-4.256-0.071-8.659-0.202-13.158c-17.81,7.733-55.413,13.275-99.861,14.023
		C257.186,286.028,258.117,293.865,259.021,298.975z"/>
	<path fill="#0A783D" d="M152.105,183.54c-0.989,8.664-1.982,18.049-2.884,27.742c20.806,6.251,56.377,10.375,96.772,10.375
		c1.748,0,3.484-0.009,5.213-0.024c0.119-1.606,0.227-3.099,0.314-4.423v-0.002c0.088,1.323,0.188,2.813,0.298,4.418
		c45.111-0.446,83.435-6.036,100.624-13.891c-0.908-9.455-1.894-18.563-2.865-26.931c-21.268,6.979-59.687,11.647-103.582,11.647
		C208.127,192.451,174.329,188.977,152.105,183.54z"/>
	<path fill="#0A783D" d="M153.692,170.165c21.221,5.546,54.662,9.128,92.301,9.128c43.975,0,82.229-4.888,101.944-12.086
		c-2.31-18.468-4.192-30.843-4.192-30.843c0,8.988-41.521,16.292-92.75,16.292c-51.214,0-92.737-7.303-92.742-16.291h-0.002
		C158.251,136.366,156.166,150.07,153.692,170.165z"/>
	<path fill="#0A783D" d="M148.042,224.85c-0.75,9.303-1.375,18.7-1.8,27.848c20.273,6.778,57.351,11.323,99.752,11.323
		c0.458,0,0.911-0.005,1.368-0.006c1.033-9.95,2.003-20.276,2.776-29.215c-1.375,0.009-2.754,0.016-4.141,0.016
		C205.734,234.815,170.081,230.887,148.042,224.85z"/>
	<path fill="#0A4222" d="M250.995,120.074c-51.217,0-92.742,7.299-92.742,16.291c0,0,0,0.001,0,0.001
		c0.005,8.988,41.528,16.291,92.742,16.291c51.229,0,92.75-7.304,92.75-16.292C343.745,127.373,302.224,120.074,250.995,120.074z"/>
	<path fill="#EDEDED" d="M153.692,170.165c-0.517,4.2-1.051,8.684-1.587,13.375c22.224,5.437,56.021,8.911,93.89,8.911
		c43.896,0,82.314-4.668,103.582-11.647c-0.558-4.803-1.109-9.36-1.64-13.597c-19.716,7.198-57.97,12.086-101.944,12.086
		C208.354,179.293,174.914,175.71,153.692,170.165z"/>
	<path fill="#EDEDED" d="M252.746,234.774c44.028-0.483,81.774-5.664,100.954-13.071c-0.394-4.708-0.817-9.377-1.258-13.968
		c-17.189,7.854-55.513,13.445-100.624,13.891C252.075,225.394,252.389,229.869,252.746,234.774z"/>
	<path fill="#EDEDED" d="M149.221,211.282c-0.416,4.472-0.813,9.007-1.18,13.568c22.039,6.037,57.693,9.966,97.954,9.966
		c1.387,0,2.766-0.007,4.141-0.016c0.424-4.912,0.787-9.393,1.069-13.167c-1.729,0.015-3.465,0.024-5.213,0.024
		C205.599,221.657,170.027,217.533,149.221,211.282z"/>
	<path fill="#EDEDED" d="M146.241,252.697c-0.219,4.707-0.383,9.345-0.483,13.87c21.798,6.398,58.516,10.606,100.167,10.611
		c0.483-4.199,0.965-8.639,1.435-13.164c-0.457,0.001-0.91,0.006-1.368,0.006C203.592,264.021,166.515,259.476,146.241,252.697z"/>
	<path fill="#EDEDED" d="M256.291,277.09c44.448-0.748,82.052-6.29,99.861-14.023c-0.137-4.756-0.341-9.62-0.6-14.543
		c-14.948,8.477-53.85,14.705-100.487,15.426C255.461,268.465,255.872,272.896,256.291,277.09z"/>
	<path fill="#EDEDED" d="M148.315,309.652c20.648,5.611,53.098,9.379,90.044,9.838c1.136-4.144,2.21-8.518,3.182-13.125
		c-40.359-0.304-75.439-4.726-95.051-11.219C146.946,300.242,147.564,305.087,148.315,309.652z"/>
	<path fill="#EDEDED" d="M263.583,319.285c39.719-1.154,73.179-6.158,90.629-13.053c0.714-4.889,1.278-10.066,1.648-15.526
		c-14.147,8.241-50.865,14.396-95.436,15.5C261.39,310.795,262.455,315.155,263.583,319.285z"/>
	<path fill="#EDEDED" d="M279.897,360.941c24.321-1.414,45.482-4.309,60.877-8.164c1.952-4.195,4.126-9.468,6.224-15.78
		c-15.573,5.468-41.941,9.552-73.324,11.086C275.989,353.393,278.152,357.708,279.897,360.941z"/>
	<path fill="#EDEDED" d="M162.386,355.211c16.199,3.088,36.661,5.289,59.454,6.211c1.747-3.206,3.946-7.551,6.314-12.949
		c-28.922-0.893-54.311-3.917-72.042-8.243C158.288,346.342,160.489,351.354,162.386,355.211z"/>
</g>
</svg>
