<?xml version="1.0" encoding="utf-8"?>
<!-- Generator: Adobe Illustrator 16.0.0, SVG Export Plug-In . SVG Version: 6.00 Build 0)  -->
<!DOCTYPE svg PUBLIC "-//W3C//DTD SVG 1.1//EN" "http://www.w3.org/Graphics/SVG/1.1/DTD/svg11.dtd">
<svg version="1.1" id="content" xmlns="http://www.w3.org/2000/svg" xmlns:xlink="http://www.w3.org/1999/xlink" x="0px" y="0px"
	 width="500px" height="500px" viewBox="0 0 500 500" enable-background="new 0 0 500 500" xml:space="preserve">
<rect id="position" display="none" fill="none" stroke="#000000" width="500" height="500"/>
<path fill="#EC1C24" d="M340.2,372.5H252h-4.5h-88.2c0,0,0.7,8.6-7.5,26.8h95.6h4.5h95.6C339.6,381.1,340.2,372.5,340.2,372.5z"/>
<path fill="#F2F2F2" d="M347.7,399.3H252h-4.5h-95.6c-0.8,1.8-1.6,3.6-2.6,5.6c47.8,0,85.7,0,98.2,0c2.9,0,4.5,0,4.5,0
	c12.6,0,50.4,0,98.2,0C349.3,403,348.5,401.1,347.7,399.3z"/>
<polygon points="250,370.6 249.8,370.6 158.7,370.6 158.7,379 249.8,379 250,379 341.1,379 341.1,370.6 "/>
<g>
	<g>
		<g>
			<g>
				<path fill="#B29522" d="M258.6,381.4H241v-13.1h17.6V381.4z M244.3,378.1h11v-6.5h-11V378.1z"/>
			</g>
		</g>
		<g>
			<path fill="#DCC565" d="M248.2,368.6c0.5,0,9.6,0.2,9.6,0.2v12.1c0,0-0.6-10.5-1.1-11.1C256,368.9,248.2,368.6,248.2,368.6z"/>
		</g>
	</g>
</g>
</svg>
