<?xml version="1.0" encoding="utf-8"?>
<!-- Generator: Adobe Illustrator 16.2.0, SVG Export Plug-In . SVG Version: 6.00 Build 0)  -->
<!DOCTYPE svg PUBLIC "-//W3C//DTD SVG 1.1//EN" "http://www.w3.org/Graphics/SVG/1.1/DTD/svg11.dtd">
<svg version="1.1" id="content" xmlns="http://www.w3.org/2000/svg" xmlns:xlink="http://www.w3.org/1999/xlink" x="0px" y="0px"
	 width="500px" height="500px" viewBox="0 0 500 500" enable-background="new 0 0 500 500" xml:space="preserve">
<g id="bounds" display="none">
	<rect display="inline" fill="none" stroke="#000000" stroke-miterlimit="10" width="500" height="500"/>
</g>
<g>
	<g id="chooser">
		<path fill="#E3E5E4" d="M343.27,136.636H157.775l-24.403,226.087c-0.593,7.608,20.044,15.432,46.083,17.45
			c26.033,2.021,47.619-2.522,48.208-10.136l22.813-159.883h0.045l22.812,159.883c0.593,7.61,22.178,12.157,48.216,10.136
			c26.034-2.021,46.674-9.842,46.08-17.45L343.27,136.636z"/>
		<path fill="#98A09C" d="M157.775,136.636c0,8.991,41.525,16.292,92.743,16.292c51.228,0,92.75-7.301,92.75-16.292
			c0-8.992-41.522-16.291-92.75-16.291C199.301,120.345,157.775,127.644,157.775,136.636z"/>
	</g>
	<path fill="#E3E5E4" d="M157.5,140.75c-1.094,4.747-3.201,9.642-4.688,14.256c-0.828,2.567-2.975,5.516-2.761,8.218
		c0.764-0.554,1.599-1.187,2.455-1.617c0.912,1.828-0.95,6.531-1.262,8.643c-0.463,3.14-0.871,6.246-1.256,9.412
		c0.29-0.506,0.939-0.799,1.211-1.129c0.661,1.403-0.629,3.65-0.949,5.217c-0.469,2.294-0.548,4.694-1,6.999
		c-0.804,4.101-4.15,8.521-3.962,12.725c0.661-0.426,1.505-0.51,2.175-0.686c0.504,3.138-1.57,6.138-2.407,8.962
		c-0.894,3.018-0.173,7.168-1.51,9.714c1.526-2.36,3.98-2.819,3.96,0.534c-0.015,2.43-2.031,4.693-3.068,6.764
		c-1.358,2.71-3.336,6.433-3.15,9.45c2.991-1.083,1.86,3.915,1.962,5.788c0.146,2.669,0.64,5.04,0.75,7.75
		c0.233,5.73-2.989,9.364-3.698,14.475c0.501-0.34,1.173-0.227,1.661-0.436c0.443,2.82-1.633,5.938-2.645,8.461
		c-1.257,3.138-2.048,5.479-2.517,8.727c4.216-2.564,2.821,1.373,2.255,4.273c-0.429,2.198-2.023,6.449-0.994,8.475
		c0.422-0.438,1.257-0.642,1.644-0.941c-0.045,0.035-2.111,5.201-2.243,5.708c-0.411,1.573-0.534,4.251-0.713,6.01
		c-0.206,2.022,0.562,3.634,0.5,5.5c-0.121,3.64-3.054,6.801-2.457,10.718c0.218-0.042,0.433-0.146,0.643-0.18
		c1.758,2.753-4.523,9.688-3.893,13.43c0.263-0.214,1.061-0.387,1.393-0.68c2.308,4.634-6.213,10.928-3.242,14.431
		c0.436-0.983,1.225-1.634,2.269-1.68c0.373,2.993,0.471,7.076-0.275,9.905c-0.898,3.408-0.898,5.4,2.519,7.349
		c0.069,0.228,0.054,0.823,0.043,0.707"/>
	<path fill="#E3E5E4" d="M135.833,367.167c2.368,0.726,3.664,3.901,5.333,5.684c1.644,1.755,3.808,3.386,5.899,4.699
		c-1.042-0.762-0.738-0.84-1.181-1.666c5.449,0.364,11.054,5.334,16.582,5.898c-0.313-0.354-0.633-1.195-0.941-1.559
		c2.675-0.154,10.231-0.609,10.025,3.226c2.995-0.061,6.591-0.985,9.2-2.566c2.803,2.145,8.211,2.354,11.717,2.917
		c-0.142-0.396-0.138-0.992-0.257-1.323c3.823-1.578,9.807,2.296,14.291,0.348c2.842-1.234,2.364-2.435,6-1.917
		c2.421,0.344,4.315,0.979,6.416-0.324c6.724-4.17,12.37-11.896,13.252-19.649c0.097,1.325,0.741,1.479,1.599,2.2
		c2.552-5.623-3.075-11.898-3.476-17.273c2.595,2.051,3.017-6.599,2.934-8.648c0.624,0.319,1.547,0.03,2.217,0.232
		c1.664-3.608,0.136-8.028-1.025-11.609c-1.02-3.144-2.46-7.679-4.319-10.281c-0.484,0.122-1.171,0.319-1.598,0.615"/>
	<path fill="#E3E5E4" d="M233.5,322.833c-0.271-2.693,1.185-4.677,2.341-6.898c0.067,0.625,0.374,1.205,0.392,1.872
		c3.394-4.386,3.793-12.771,2.169-17.923c-0.117-0.126-0.123-0.122-0.018,0.011c0.288,0.317,0.812,0.637,1.031,0.896
		c1.875-2.93,1.245-9.134,1.417-12.623c0.222-4.508,0.313-7.684,1.001-11.882c0.22,0.29,0.243,0.545,0.416,0.849
		c1.653-2.882,0.366-6.992,1.95-10.167c-0.321,0.157-0.683,0.339-0.973,0.5c0.519-5.765,1.628-11.446,1.94-17.3
		c0.282-5.291,1.878-13.378,0-18"/>
	<path fill="#E3E5E4" d="M343.167,138.5c-0.803,6.305,4.11,12.019,3.69,18.217c-0.278-0.146-0.726-0.372-0.977-0.517
		c-1.775,5.722,2.995,14.863,3.909,20.576c-5.381,0.061,0.489,16.89,1.065,19.584c-2.834,1.475,1.41,11.391,1.959,14.157
		c1.012,5.092-1.332,9.943,1.302,14.583c-1.709,0.952-1.252,6.503-0.616,8.265c0.389-0.703,1.234-1.253,1.6-1.832
		c0.271,4.109-1.352,8.114-0.601,11.966c0.747,3.828,2.696,7.271,2.666,11.382c0.007,0.249,0.013,0.238,0.019-0.031
		c0.029-0.258-0.063-0.365-0.275-0.324c-0.333,4.563-0.727,9.785,0.133,14.242c0.794,4.121,3.2,7.713,4.398,11.69
		c-0.59-0.433-1.338-0.332-1.891-0.573c-0.049,5.687,2.592,10.321,2.227,16.571c-0.34-0.054-0.551-0.194-0.875-0.257
		c-0.495,7.438,1.422,14.741,2.125,21.933c-0.149-0.233-0.428-0.595-0.549-0.84c3.198,4.809,1.733,10.612,3.021,16.094
		c0.001-0.146,0.001-0.293,0.001-0.438c-0.082,3.448,1.056,6.674,1.185,10.023c0.065,1.754-0.598,3.039-0.231,4.958
		c0.331,1.742,1.269,3.32,1.397,5.119c-0.25-0.229-0.441-0.545-0.699-0.768c0.559,5.57,2.486,11.027,1.299,16.834
		c-3.604-1.063-11.171,5.563-13.698,8.332c-0.267-0.382-1.247-0.856-1.51-1.24c-1.479,3.574-8.663,3.517-11.623,4.658
		c0.757-0.424,1.864-1.212,2.173-1.476c-3.24,1.704-11.109,3.559-14.523,1.85c1.24-0.081,1.76-0.354,2.791-1.008
		c-2.696-0.079-4.968,0.756-7.559,1.273c-1.838,0.367-6.018-0.229-6.939,0.877c0.334-0.245,1.116-0.942,0.988-0.884
		c-5.15,0.287-10.48,0.939-15.681,0.6c0.157-0.282,0.425-0.689,0.599-0.939c-1.876-0.176-4.343,0.356-6.633-0.012
		c-2.355-0.38-4.184-0.793-6.667-0.981c-2.264-0.173-4.451,0.037-6.667-0.407c-2.193-0.439-3.879-2.101-5.95-2.309
		c0.404-4.092-5.438-1.621-2.383-7.302c1.58-2.938,3.853-6.489,6.333-8.649"/>
	<path fill="#E3E5E4" d="M252,219c6.623,12.154,8.132,26.444,8.988,40.5c0.861,14.135-4.367,27.191-3.401,40.962
		c1.031-1.006,2.253-0.833,3.339-1.385c-0.076,5.595,0.772,12.364,1.176,18.262c0.379-0.262,0.512-0.64,0.898-0.901
		c6.295,4.93-0.52,20.882,2.002,27.861c5.721-4.071,3.586,11.243,3.875,12.813c0.833,4.521,7.484,11.854,11.623,11.389"/>
</g>
</svg>
