<?xml version="1.0" encoding="utf-8"?>
<!-- Generator: Adobe Illustrator 16.0.0, SVG Export Plug-In . SVG Version: 6.00 Build 0)  -->
<!DOCTYPE svg PUBLIC "-//W3C//DTD SVG 1.1//EN" "http://www.w3.org/Graphics/SVG/1.1/DTD/svg11.dtd">
<svg version="1.1" id="content" xmlns="http://www.w3.org/2000/svg" xmlns:xlink="http://www.w3.org/1999/xlink" x="0px" y="0px"
	 width="500px" height="500px" viewBox="0 0 500 500" enable-background="new 0 0 500 500" xml:space="preserve">
<path fill="#72BB53" d="M133.4,362.7c-0.6,7.6,20,15.399,46.1,17.399c26,2,47.6-2.5,48.2-10.104l2.584-19.076l-94.3-7.295
	L133.4,362.7z"/>
<path fill="#72BB53" d="M365.016,343.624l-94.301,7.295l2.585,19.076c0.601,7.604,22.2,12.104,48.2,10.104
	c26.1-2,46.7-9.8,46.1-17.399L365.016,343.624z"/>
<g id="chooser_1_">
	<path fill="#E8E8E8" d="M253.166,136.6H343.2l21.815,207.024c0.6,7.6-20,15.399-46.1,17.399c-26,2-47.601-2.5-48.201-10.104
		L250.5,210.095l-20.215,140.824c-0.6,7.604-22.2,12.104-48.2,10.104c-26.1-2-46.7-9.8-46.1-17.399L157.8,136.6h90.034"/>
</g>
<g id="bounds" display="none">
	<g id="bounds_1_" display="inline">
		<rect fill="none" stroke="#000000" stroke-miterlimit="10" width="500" height="500"/>
	</g>
</g>
<path fill="#C4C4C4" d="M157.8,136.6c0,9,41.5,16.3,92.7,16.3s92.8-7.3,92.8-16.3s-41.5-16.3-92.8-16.3
	C199.3,120.3,157.8,127.6,157.8,136.6z"/>
<line fill="none" stroke="#C4C4C4" stroke-width="3" stroke-miterlimit="10" x1="157.8" y1="357.16" x2="181.836" y2="147.55"/>
<line fill="none" stroke="#C4C4C4" stroke-width="3" stroke-miterlimit="10" x1="343.2" y1="357.16" x2="319.164" y2="147.55"/>
</svg>
