<?xml version="1.0" encoding="utf-8"?>
<!-- Generator: Adobe Illustrator 16.0.0, SVG Export Plug-In . SVG Version: 6.00 Build 0)  -->
<!DOCTYPE svg PUBLIC "-//W3C//DTD SVG 1.1//EN" "http://www.w3.org/Graphics/SVG/1.1/DTD/svg11.dtd">
<svg version="1.1" id="content" xmlns="http://www.w3.org/2000/svg" xmlns:xlink="http://www.w3.org/1999/xlink" x="0px" y="0px"
	 width="500px" height="500px" viewBox="0 0 500 500" enable-background="new 0 0 500 500" xml:space="preserve">
<g id="bounds" display="none">
	<rect x="0.5" y="0.5" display="inline" fill="none" stroke="#2B2B2B" stroke-miterlimit="10" width="500" height="500"/>
</g>
<g>
	<path fill="#F0F0F0" d="M141.339,241.307l-2.932,14.376c-0.6,7.1,18.305,14.254,42.705,16.154c24.4,1.896,39.462-1.997,43.2-9.5
		l5.651-13.185"/>
	<path fill="#F0F0F0" d="M358.278,241.307l2.932,14.376c0.601,7.1-18.305,14.254-42.704,16.154c-24.4,1.896-39.463-1.997-43.201-9.5
		l-5.65-13.185"/>
	<g>
		<path fill="#B80030" d="M335.926,131.8h-86.117h-86.117c0,0-21.667,106.095-22.9,112.2c-0.6,7.1,18.8,14.5,43.2,16.4
			c24.4,1.896,41.462-1.997,45.2-9.5l20.617-46.7l20.617,46.7c3.738,7.503,20.8,11.396,45.2,9.5c24.399-1.9,43.8-9.301,43.2-16.4
			C357.592,237.895,335.926,131.8,335.926,131.8z"/>
		<path fill="#A1002A" d="M163.691,131.8c0,8.4,38.505,15.3,86.117,15.3c47.513,0,86.117-6.8,86.117-15.3
			c0-8.4-38.506-15.3-86.117-15.3C202.296,116.5,163.691,123.3,163.691,131.8z"/>
	</g>
</g>
<path fill="#B80030" d="M193.667,267.939c14.5,0,25.529-2.403,31.143-6.762l1.903-4.44l-0.439-0.219
	c-3.608,7.245-20.968,10.758-44.228,8.949c-19.292-1.503-36.176-6.564-41.058-12.309c-0.892-1.05-1.303-2.062-1.223-3.011
	l-0.225-0.019l-0.709,3.478c0.189,0.283,0.395,0.566,0.633,0.847c5.282,6.215,22.332,11.442,42.427,13.008
	C186.021,267.783,189.955,267.939,193.667,267.939z"/>
<path fill="#B80030" d="M305.951,267.939c-14.5,0-25.529-2.403-31.143-6.762l-1.904-4.44l0.439-0.219
	c3.608,7.245,20.969,10.758,44.228,8.949c19.292-1.503,36.177-6.564,41.058-12.309c0.893-1.05,1.303-2.062,1.223-3.011l0.226-0.019
	l0.71,3.478c-0.189,0.283-0.395,0.566-0.634,0.847c-5.282,6.215-22.331,11.442-42.427,13.008
	C313.597,267.783,309.662,267.939,305.951,267.939z"/>
</svg>
