<?xml version="1.0" encoding="utf-8"?>
<!-- Generator: Adobe Illustrator 16.0.0, SVG Export Plug-In . SVG Version: 6.00 Build 0)  -->
<!DOCTYPE svg PUBLIC "-//W3C//DTD SVG 1.1//EN" "http://www.w3.org/Graphics/SVG/1.1/DTD/svg11.dtd">
<svg version="1.1" id="content" xmlns="http://www.w3.org/2000/svg" xmlns:xlink="http://www.w3.org/1999/xlink" x="0px" y="0px"
	 width="500px" height="500px" viewBox="0 0 500 500" enable-background="new 0 0 500 500" xml:space="preserve">
<g id="bounds">
	<rect y="0.408" fill="none" stroke="#000000" stroke-miterlimit="10" width="500" height="500"/>
</g>
<g>
	<path fill="#CA0E51" d="M324.667,261.916V145.933h-99.602v115.983l-36.623,11.652c-45.5,16.646-38.841,52.158-34.958,66.584
		c3.884,14.429,25.524,37.412,56.321,29.805c30.797-7.607,88.5-31.48,88.5-31.48C326.882,327.934,324.667,287.162,324.667,261.916z"
		/>
</g>
<path opacity="0.2" fill="#242424" enable-background="new    " d="M322.054,306.377c-12.991,9.17-29.889,16.675-50.655,25.869
	c-54.517,24.138-91.972,24.554-99.876-7.074c-6.328-21.721-1.899-36.549,5.51-46.486c-32.869,17.969-27.066,48.39-23.544,61.469
	c3.884,14.43,25.524,37.41,56.321,29.806s88.5-31.479,88.5-31.479C312.375,333.285,318.973,320.762,322.054,306.377z"/>
<rect x="225.065" y="138.933" width="99.602" height="15.5"/>
<path d="M209.706,266.803l44.963,88.637c23.104-8.469,43.636-16.963,43.636-16.963c28.577-10.543,26.362-51.314,26.362-76.561
	v-20.152h-99.602v20.152L209.706,266.803z"/>
</svg>
