<?xml version="1.0" encoding="utf-8"?>
<!-- Generator: Adobe Illustrator 16.0.0, SVG Export Plug-In . SVG Version: 6.00 Build 0)  -->
<!DOCTYPE svg PUBLIC "-//W3C//DTD SVG 1.1//EN" "http://www.w3.org/Graphics/SVG/1.1/DTD/svg11.dtd">
<svg version="1.1" id="content" xmlns="http://www.w3.org/2000/svg" xmlns:xlink="http://www.w3.org/1999/xlink" x="0px" y="0px"
	 width="500px" height="500px" viewBox="0 0 500 500" enable-background="new 0 0 500 500" xml:space="preserve">
<rect id="position" display="none" fill="none" stroke="#000000" width="500" height="500"/>
<path fill="#CA0E51" d="M206.916,389.75c-16.209,0-24.716-2.75-24.716-2.75v42.15h0.005c0.118,13.549,11.133,24.496,24.71,24.496
	s24.592-10.947,24.71-24.496h0.005V387C231.632,387,223.125,389.75,206.916,389.75z"/>
<path fill="#242424" d="M182.2,381v9.639c2.84,0.754,11.215,2.611,24.716,2.611s21.876-1.857,24.716-2.611V381
	c0,0-8.507,2.75-24.716,2.75S182.2,381,182.2,381z"/>
<path fill="#242424" d="M182.2,407.312v19.639c2.84,0.753,11.215,3.611,24.716,3.611s21.876-2.858,24.716-3.611v-19.639
	c0,0-8.507,3.75-24.716,3.75S182.2,407.312,182.2,407.312z"/>
<path opacity="0.2" fill="#161616" enable-background="new    " d="M220.125,449.814c-19.193,1.014-30.508-11.957-30.508-25.476
	v-35.788c-4.888-0.74-7.417-1.551-7.417-1.551v42.15h0.005c0.118,13.549,11.133,24.496,24.71,24.496
	C211.776,453.646,216.304,452.238,220.125,449.814z"/>
</svg>
