<?xml version="1.0" encoding="utf-8"?>
<!-- Generator: Adobe Illustrator 16.0.0, SVG Export Plug-In . SVG Version: 6.00 Build 0)  -->
<!DOCTYPE svg PUBLIC "-//W3C//DTD SVG 1.1//EN" "http://www.w3.org/Graphics/SVG/1.1/DTD/svg11.dtd">
<svg version="1.1" id="content" xmlns="http://www.w3.org/2000/svg" xmlns:xlink="http://www.w3.org/1999/xlink" x="0px" y="0px"
	 width="500px" height="500px" viewBox="0 0 500 500" enable-background="new 0 0 500 500" xml:space="preserve">
<g id="bounds" display="none">
	<g id="bounds_1_" display="inline">
		<rect fill="none" stroke="#000000" stroke-miterlimit="10" width="500" height="500"/>
	</g>
</g>
<g id="chooser">
	<path fill="#EBA718" d="M343.3,136.6H157.8l-24.4,226.1c-0.6,7.6,20,15.399,46.1,17.399c26,2,47.6-2.5,48.2-10.102l22.8-159.9l0,0
		L273.3,370c0.601,7.6,22.2,12.2,48.2,10.1c26-2,46.7-9.8,46.1-17.397L343.3,136.6z"/>
</g>
<path opacity="0.2" fill="#D49616" enable-background="new    " d="M190.215,136.6H157.8l-24.4,226.1
	c-0.485,6.145,12.891,12.418,31.824,15.653L190.215,136.6z"/>
<path fill="#C28A14" d="M157.8,136.6c0,9,41.5,16.3,92.7,16.3s92.8-7.3,92.8-16.3s-41.5-16.3-92.8-16.3
	C199.3,120.3,157.8,127.6,157.8,136.6z"/>
<g id="chooser_2_">
	<path fill="#FFF700" d="M233.723,333.068c-0.605,7.664-23.611,12.239-49.821,10.223c-26.311-2.016-47.199-9.879-46.594-17.539
		l-1.315,12.781c-0.605,7.66,20.309,15.596,46.62,17.611c26.21,2.017,48.678-2.591,49.283-10.254L233.723,333.068z"/>
</g>
<g id="chooser_1_">
	<path fill="#E6DEC5" d="M235.572,320.4c-0.608,7.664-23.743,12.239-50.099,10.223c-26.458-2.016-47.463-9.879-46.854-17.541
		l-1.322,12.783c-0.608,7.66,20.421,15.596,46.88,17.611c26.356,2.017,48.949-2.591,49.558-10.254L235.572,320.4z"/>
</g>
<g id="chooser_3_">
	<path fill="#FFF700" d="M237.439,307.178c-0.613,7.94-23.908,12.68-50.448,10.592c-26.642-2.09-47.792-10.237-47.18-18.176
		l-1.332,13.244c-0.612,7.939,20.564,16.16,47.207,18.248c26.539,2.092,49.29-2.682,49.902-10.623L237.439,307.178z"/>
</g>
<path fill="#D6CFB7" d="M185.175,333.188c25.267,1.934,47.558-2.193,49.896-9.29l0.501-3.497
	c-0.608,7.664-23.743,12.239-50.099,10.223c-26.458-2.016-47.463-9.879-46.854-17.541l-0.295,2.857
	C138.262,323.508,159.053,331.197,185.175,333.188z"/>
<path opacity="0.2" fill="#D49616" enable-background="new    " d="M310.785,136.6H343.2L367.6,362.7
	c0.486,6.145-12.891,12.418-31.823,15.653L310.785,136.6z"/>
<g id="chooser_6_">
	<path fill="#FFF700" d="M269.105,345.891c0.604,7.663,23.072,12.271,49.283,10.254c26.311-2.016,47.225-9.951,46.619-17.611
		l-1.315-12.781c0.604,7.66-20.283,15.523-46.595,17.539c-26.21,2.017-49.216-2.559-49.82-10.223L269.105,345.891z"/>
</g>
<g id="chooser_5_">
	<path fill="#E6DEC5" d="M267.267,333.223c0.608,7.663,23.201,12.271,49.558,10.254c26.459-2.016,47.488-9.951,46.88-17.611
		l-1.322-12.783c0.608,7.662-20.396,15.525-46.854,17.541c-26.356,2.017-49.49-2.559-50.1-10.223L267.267,333.223z"/>
</g>
<g id="chooser_4_">
	<path fill="#FFF700" d="M265.412,320.463c0.613,7.941,23.363,12.715,49.902,10.623c26.643-2.088,47.818-10.309,47.207-18.248
		l-1.332-13.244c0.611,7.938-20.539,16.086-47.181,18.176c-26.54,2.088-49.835-2.651-50.448-10.592L265.412,320.463z"/>
</g>
<path fill="#D6CFB7" d="M315.825,333.188c-25.267,1.934-47.558-2.193-49.896-9.29l-0.502-3.497
	c0.609,7.664,23.743,12.239,50.1,10.223c26.458-2.016,47.463-9.879,46.854-17.541l0.296,2.857
	C362.738,323.508,341.947,331.197,315.825,333.188z"/>
</svg>
