<?xml version="1.0" encoding="utf-8"?>
<!-- Generator: Adobe Illustrator 16.0.0, SVG Export Plug-In . SVG Version: 6.00 Build 0)  -->
<!DOCTYPE svg PUBLIC "-//W3C//DTD SVG 1.1//EN" "http://www.w3.org/Graphics/SVG/1.1/DTD/svg11.dtd">
<svg version="1.1" id="content" xmlns="http://www.w3.org/2000/svg" xmlns:xlink="http://www.w3.org/1999/xlink" x="0px" y="0px"
	 width="500px" height="500px" viewBox="0 0 500 500" enable-background="new 0 0 500 500" xml:space="preserve">
<g id="bounds" display="none">
	<rect x="0.5" y="0.5" display="inline" fill="none" stroke="#2B2B2B" stroke-miterlimit="10" width="500" height="500"/>
</g>
<path fill="#1A3354" d="M229.963,249.153l-5.651,13.185c-3.738,7.503-18.8,11.396-43.2,9.5c-15.7-1.223-29.125-4.621-36.542-8.779
	l4.417-19.958"/>
<path fill="#1A3354" d="M269.654,249.153l5.65,13.185c3.737,7.503,18.801,11.396,43.2,9.5c17.381-1.354,31.974-5.374,38.715-10.141
	c0.136-0.098,0.27-0.193,0.398-0.29l-5.36-22.214"/>
<path fill="#1A3354" d="M327.45,131.8h-77.642h-77.642l-24.935,119.722c7.59,4.197,21.151,7.664,36.759,8.879
	c24.4,1.896,41.462-1.996,45.2-9.5l20.617-46.699l20.617,46.699c3.738,7.504,20.801,11.396,45.2,9.5
	c15.607-1.215,29.169-4.682,36.759-8.879L327.45,131.8z"/>
<path fill="#EFEFEF" d="M140.589,260.217c1.537,1.479,3.835,2.906,6.756,4.232l29.824-140.882c-1.988,0.554-3.782,1.132-5.365,1.731
	L140.589,260.217z"/>
<path fill="#DC3A42" d="M174.332,124.419c-6.77,2.184-10.641,4.696-10.641,7.381c0,0-18.812,92.12-22.374,109.612l-2.91,14.271
	c-0.218,2.588,2.165,5.18,6.449,7.523l26.038-125.293L174.332,124.419z"/>
<path fill="#EFEFEF" d="M359.027,260.217c-1.536,1.479-3.835,2.906-6.756,4.232l-29.823-140.882
	c1.987,0.554,3.782,1.132,5.364,1.731L359.027,260.217z"/>
<path fill="#DC3A42" d="M325.285,124.419c6.77,2.184,10.641,4.696,10.641,7.381c0,0,18.812,92.12,22.374,109.612l2.91,14.271
	c0.218,2.588-2.165,5.18-6.448,7.523l-26.038-125.293L325.285,124.419z"/>
<path fill="#142740" d="M163.691,131.8c0,8.4,38.505,15.3,86.117,15.3c47.512,0,86.117-6.8,86.117-15.3
	c0-8.4-38.506-15.3-86.117-15.3C202.296,116.5,163.691,123.3,163.691,131.8z"/>
</svg>
