<?xml version="1.0" encoding="utf-8"?>
<!-- Generator: Adobe Illustrator 16.0.0, SVG Export Plug-In . SVG Version: 6.00 Build 0)  -->
<!DOCTYPE svg PUBLIC "-//W3C//DTD SVG 1.1//EN" "http://www.w3.org/Graphics/SVG/1.1/DTD/svg11.dtd">
<svg version="1.1" id="content" xmlns="http://www.w3.org/2000/svg" xmlns:xlink="http://www.w3.org/1999/xlink" x="0px" y="0px"
	 width="500px" height="500px" viewBox="0 0 500 500" enable-background="new 0 0 500 500" xml:space="preserve">
<rect id="position" display="none" fill="none" stroke="#000000" width="500" height="500"/>
<path fill="#E88090" d="M217.028,346.326c-3.729,7.62,2.95,12.271,2.95,12.271s4.412,4.62,10.312,1.982
	C228.039,354.196,223.201,349.029,217.028,346.326z"/>
<path fill="#BD3952" d="M230.3,360.61c-1.002,0.575-2.042,0.875-3.119,0.875c-2.95-0.001-5.499-2.097-6.724-3.104l-0.326-0.266
	c-1.144-0.915-4.18-3.346-4.295-6.852c-0.051-1.545,0.483-3.138,1.585-4.76c-0.612-0.281-1.236-0.542-1.875-0.773
	c-1.188,1.865-1.771,3.738-1.71,5.6c0.145,4.425,3.832,7.377,5.065,8.363l0.284,0.232c1.295,1.064,4.328,3.559,7.994,3.56
	c0,0,0,0,0.001,0c1.298,0,2.54-0.307,3.722-0.912C230.731,361.907,230.526,361.254,230.3,360.61z"/>
<circle fill="#BD3952" cx="220.78" cy="352.154" r="1.503"/>
<circle fill="#BD3952" cx="226.44" cy="356.629" r="1.503"/>
<path fill="#779E72" d="M205.882,366.794c0,0,3.919,1.207,7.049-1.127c3.133-2.332,2.778-6.193,2.778-6.193s-3.6-1.446-6.729,0.887
	C205.846,362.694,205.882,366.794,205.882,366.794z"/>
<path fill="#779E72" d="M216.432,374.735c0,0-2.341-3.367-1.073-7.062c1.27-3.696,5.057-4.527,5.057-4.527s2.473,2.985,1.203,6.679
	C220.35,373.519,216.432,374.735,216.432,374.735z"/>
<path fill="#E88090" d="M182.392,382.748c1.273,0.559,9.514,1.128,13.746-8.553c4.458-10.188-4.437-13.072-4.437-13.072
	s-4.373-2.466-8.448,0.465c-0.688,2.251-1.06,4.639-1.06,7.113c0,0.728,0.038,1.445,0.101,2.156v11.841
	C182.328,382.717,182.363,382.735,182.392,382.748z"/>
<path fill="#BD3952" d="M183.888,383.968C183.888,383.968,183.888,383.968,183.888,383.968c1.787,0,8.009-0.668,13.11-9.262
	c2.052-3.456,2.646-6.528,1.764-9.13c-1.253-3.696-5.103-5.239-6.393-5.757l-0.295-0.121c-1.073-0.445-3.07-1.274-5.322-1.274
	c-0.772,0-1.61,0.107-2.455,0.385c-0.412,0.923-0.769,1.875-1.064,2.854c0.98-0.812,2.142-1.238,3.519-1.238
	c1.853,0,3.61,0.729,4.555,1.121l0.343,0.142c1.165,0.467,4.26,1.707,5.218,4.532c0.686,2.023,0.151,4.535-1.589,7.466
	c-4.562,7.686-9.871,8.283-11.39,8.283c-0.645,0-1.008-0.098-1.076-0.127c-0.117-0.067-0.301-0.263-0.518-0.551v2.479
	C182.72,383.896,183.268,383.968,183.888,383.968z"/>
<circle fill="#BD3952" cx="183.99" cy="367.367" r="1.305"/>
<circle fill="#BD3952" cx="184.128" cy="372.226" r="1.305"/>
<circle fill="#BD3952" cx="189.465" cy="374.407" r="1.305"/>
<circle fill="#BD3952" cx="192.66" cy="366.681" r="1.305"/>
<circle fill="#BD3952" cx="186.828" cy="364.389" r="1.306"/>
<circle fill="#BD3952" cx="184.623" cy="377.306" r="1.305"/>
<circle fill="#BD3952" cx="188.441" cy="369.286" r="1.305"/>
<path fill="#BD3952" d="M194.085,371.729c0.289-0.66-0.013-1.432-0.673-1.718c-0.66-0.288-1.428,0.012-1.719,0.673
	c-0.287,0.659,0.015,1.428,0.676,1.717C193.027,372.688,193.796,372.388,194.085,371.729z"/>
<path fill="#779E72" d="M201.352,350.762c0,0-3.562-0.016-5.574,2.712c-2.017,2.728-0.748,5.847-0.748,5.847
	s3.355,0.296,5.367-2.431C202.415,354.16,201.352,350.762,201.352,350.762z"/>
<path fill="#779E72" d="M187.594,353.422c0.459,2.615,2.6,4.034,2.6,4.034s2.938-1.647,3.061-5.038
	c0.05-1.384-0.388-2.565-0.921-3.486C190.559,350.213,188.965,351.723,187.594,353.422z"/>
<path fill="#E88090" d="M214.833,397.691c0,0,7.848-2.893,3.345-12.103c-4.28-8.743-11.84-7.894-12.992-7.332
	s-6.463,6.016-2.184,14.759C207.506,402.222,214.833,397.691,214.833,397.691z"/>
<path fill="none" stroke="#BD3952" stroke-width="2" stroke-miterlimit="10" d="M214.923,398.122
	c1.686-0.893,9.231-4.206,3.256-12.533c-4.894-6.817-11.84-7.894-12.992-7.332s-5.433,5.324-2.184,14.759
	C206.338,402.706,213.237,399.011,214.923,398.122z"/>
<circle fill="#BD3952" cx="215.045" cy="388.549" r="1.202"/>
<circle fill="#BD3952" cx="211.547" cy="385.749" r="1.203"/>
<path fill="#BD3952" d="M205.753,388.729c0.292,0.595,1.012,0.843,1.607,0.55c0.597-0.292,0.845-1.01,0.553-1.606
	c-0.293-0.599-1.012-0.844-1.61-0.551C205.708,387.411,205.461,388.132,205.753,388.729z"/>
<circle fill="#BD3952" cx="210.358" cy="395.051" r="1.203"/>
<circle fill="#BD3952" cx="215.446" cy="392.319" r="1.202"/>
<circle fill="#BD3952" cx="207.68" cy="383.068" r="1.203"/>
<circle fill="#BD3952" cx="211.042" cy="390.532" r="1.202"/>
<circle fill="#BD3952" cx="207.041" cy="392.515" r="1.202"/>
<path fill="#779E72" d="M216.366,410.65c0,0,2.133-2.495,1.416-5.536c-0.715-3.044-3.664-4.011-3.664-4.011
	s-2.208,2.183-1.491,5.223C213.343,409.37,216.366,410.65,216.366,410.65z"/>
<path fill="#779E72" d="M225.554,405.431c0,0-3.218,0.646-5.526-1.459c-2.309-2.11-1.715-5.156-1.715-5.156s2.98-0.863,5.286,1.243
	C225.909,402.167,225.554,405.431,225.554,405.431z"/>
<path fill="#E88090" d="M191.04,399.684c0,0-4.381,2.81-0.41,7.803c3.773,4.739,8.254,3.209,8.878,2.715
	c0.625-0.497,3.121-4.522-0.652-9.263C194.885,395.947,191.04,399.684,191.04,399.684z"/>
<path fill="none" stroke="#BD3952" stroke-width="2" stroke-miterlimit="10" d="M190.928,399.434
	c-0.905,0.769-5.046,3.794-0.298,8.053c3.889,3.487,8.254,3.209,8.878,2.715c0.625-0.497,2.587-3.965-0.652-9.263
	C195.53,395.497,191.833,398.668,190.928,399.434z"/>
<circle fill="#BD3952" cx="192.137" cy="405.268" r="0.748"/>
<circle fill="#BD3952" cx="194.639" cy="406.5" r="0.748"/>
<circle fill="#BD3952" cx="197.175" cy="404.378" r="0.748"/>
<circle fill="#BD3952" cx="194.114" cy="400.688" r="0.748"/>
<circle fill="#BD3952" cx="191.388" cy="403.03" r="0.749"/>
<circle fill="#BD3952" cx="197.348" cy="407.611" r="0.749"/>
<circle fill="#BD3952" cx="194.304" cy="403.525" r="0.748"/>
<circle fill="#BD3952" cx="196.47" cy="401.784" r="0.748"/>
<path fill="#779E72" d="M188.371,392.014c0,0-0.962,1.802-0.118,3.555c0.843,1.754,2.764,1.945,2.764,1.945s1.05-1.621,0.206-3.372
	C190.379,392.387,188.371,392.014,188.371,392.014z"/>
<path fill="#779E72" d="M183.487,396.418c0,0,1.869-0.824,3.554,0.146c1.686,0.974,1.734,2.903,1.734,2.903
	s-1.695,0.924-3.379-0.047C183.709,398.449,183.487,396.418,183.487,396.418z"/>
</svg>
