<?xml version="1.0" encoding="utf-8"?>
<!-- Generator: Adobe Illustrator 16.0.0, SVG Export Plug-In . SVG Version: 6.00 Build 0)  -->
<!DOCTYPE svg PUBLIC "-//W3C//DTD SVG 1.1//EN" "http://www.w3.org/Graphics/SVG/1.1/DTD/svg11.dtd">
<svg version="1.1" id="content" xmlns="http://www.w3.org/2000/svg" xmlns:xlink="http://www.w3.org/1999/xlink" x="0px" y="0px"
	 width="500px" height="500px" viewBox="0 0 500 500" enable-background="new 0 0 500 500" xml:space="preserve">
<path fill="#1A62B0" d="M359.555,247.564L359.555,247.564l-1.255-6.153C354.738,223.92,335.926,131.8,335.926,131.8
	c0-2.685-3.871-5.197-10.641-7.381l1.619,6.358l-77.088,0.913l-77.3-0.145l1.816-7.127c-6.77,2.184-10.641,4.696-10.641,7.381
	c0,0-18.812,92.12-22.374,109.612l-1.255,6.153h0.001l-1.656,8.12c-0.6,7.1,18.305,14.254,42.705,16.152
	c24.4,1.896,39.462-1.997,43.2-9.5l5.651-13.185l-0.039-0.003l19.892-45.058l19.892,45.057l-0.054,0.004l5.649,13.185
	c3.738,7.503,18.802,11.396,43.201,9.5c24.399-1.898,43.305-9.054,42.704-16.152L359.555,247.564z"/>
<g id="bounds" display="none">
	<rect x="0.5" y="0.5" display="inline" fill="none" stroke="#2B2B2B" stroke-miterlimit="10" width="500" height="500"/>
</g>
<path fill="#124378" d="M163.691,131.8c0,8.4,38.505,15.3,86.117,15.3c47.512,0,86.117-6.8,86.117-15.3
	c0-8.4-38.506-15.3-86.117-15.3C202.296,116.5,163.691,123.3,163.691,131.8z"/>
</svg>
