<?xml version="1.0" encoding="utf-8"?>
<!-- Generator: Adobe Illustrator 16.0.0, SVG Export Plug-In . SVG Version: 6.00 Build 0)  -->
<!DOCTYPE svg PUBLIC "-//W3C//DTD SVG 1.1//EN" "http://www.w3.org/Graphics/SVG/1.1/DTD/svg11.dtd">
<svg version="1.1" id="content" xmlns="http://www.w3.org/2000/svg" xmlns:xlink="http://www.w3.org/1999/xlink" x="0px" y="0px"
	 width="500px" height="500px" viewBox="0 0 500 500" enable-background="new 0 0 500 500" xml:space="preserve">
<path fill="#EDAE36" d="M359.555,247.564L359.555,247.564l-1.255-6.153C354.738,223.92,335.926,131.8,335.926,131.8
	c0-2.685-3.871-5.197-10.641-7.381l1.619,6.358l-77.088,0.913l-77.3-0.145l1.816-7.127c-6.77,2.184-10.641,4.696-10.641,7.381
	c0,0-18.812,92.12-22.374,109.612l-1.255,6.153h0.001l-1.656,8.12c-0.6,7.1,18.305,14.254,42.705,16.152
	c24.4,1.896,39.462-1.997,43.2-9.5l5.651-13.185l-0.039-0.003l19.892-45.058l19.892,45.057l-0.054,0.004l5.649,13.185
	c3.738,7.503,18.802,11.396,43.201,9.5c24.399-1.898,43.305-9.054,42.704-16.152L359.555,247.564z"/>
<g id="bounds" display="none">
	<rect x="0.5" y="0.5" display="inline" fill="none" stroke="#2B2B2B" stroke-miterlimit="10" width="500" height="500"/>
</g>
<path fill="#C9932E" d="M163.691,131.8c0,8.4,38.505,15.3,86.117,15.3c47.512,0,86.117-6.8,86.117-15.3
	c0-8.4-38.506-15.3-86.117-15.3C202.296,116.5,163.691,123.3,163.691,131.8z"/>
<path fill="#002E61" d="M194.154,218.226l1.604-8.336c-23.626-0.849-38.17-9.326-38.314-9.412l-0.059,0.099l-1.879,8.378
	C160.746,211.558,174.38,217.292,194.154,218.226z"/>
<path fill="#5391CB" d="M153.71,216.96c5.537,2.703,19.242,8.307,38.93,9.129l1.022-5.312l0.586-3.045
	c-21.858-0.753-36.447-8.04-38.638-9.246L153.71,216.96z"/>
<path fill="#FFFFFF" d="M153.715,216.942l-1.683,7.503c5.062,2.547,18.899,8.49,39.115,9.407l1.526-7.932l0.015-0.408
	c-23.717-0.817-38.602-9.494-38.747-9.58L153.715,216.942z"/>
<path fill="#002E61" d="M305.479,218.226l-1.604-8.336c23.626-0.849,38.171-9.326,38.314-9.412l0.06,0.099l1.879,8.378
	C338.886,211.558,325.252,217.292,305.479,218.226z"/>
<path fill="#5391CB" d="M345.922,216.96c-5.537,2.703-19.242,8.307-38.931,9.129l-1.022-5.312l-0.586-3.045
	c21.857-0.753,36.447-8.04,38.638-9.246L345.922,216.96z"/>
<path fill="#FFFFFF" d="M345.917,216.942l1.683,7.503c-5.062,2.547-18.898,8.49-39.115,9.407l-1.525-7.932l-0.015-0.408
	c23.717-0.817,38.603-9.494,38.747-9.58L345.917,216.942z"/>
</svg>
