<?xml version="1.0" encoding="utf-8"?>
<!-- Generator: Adobe Illustrator 18.0.0, SVG Export Plug-In . SVG Version: 6.00 Build 0)  -->
<!DOCTYPE svg PUBLIC "-//W3C//DTD SVG 1.1//EN" "http://www.w3.org/Graphics/SVG/1.1/DTD/svg11.dtd">
<svg version="1.1" id="content" xmlns="http://www.w3.org/2000/svg" xmlns:xlink="http://www.w3.org/1999/xlink" x="0px" y="0px"
	 width="500px" height="500px" viewBox="0 0 500 500" enable-background="new 0 0 500 500" xml:space="preserve">
<rect id="position" display="none" fill="none" stroke="#000000" width="500" height="500"/>
<g>
	<path fill="#F07BAF" d="M371.1,395.8l-12.3-45.1H250H140.4l-11.4,45.1c-0.1,0.4-0.3,0.8-0.3,1.3c0,6.8,14.6,12.2,37.1,12.2
		s41.1-5.5,41.1-12.2c0,6.8,18.5,12.2,41.1,12.2c0.7,0,1.4,0,2.1,0c0.7,0,1.4,0,2.1,0c22.6,0,41.1-5.5,41.1-12.2
		c0,6.8,18.5,12.2,41.1,12.2c22.6,0,37.1-5.5,37.1-12.2C371.3,396.6,371.2,396.2,371.1,395.8z"/>
	<g opacity="0.1">
		<path d="M197.2,401.5l-1.2,3.9l1.4-0.4l0,0c5.9-2.2,9.4-4.8,9.4-7.8v-25.9L197.2,401.5z"/>
	</g>
	<g opacity="0.1">
		<path d="M302.8,403l0.6,2.2l-0.8-0.3l0,0c-5.9-2.2-9.4-4.8-9.4-7.8v-25.9L302.8,403z"/>
	</g>
</g>
</svg>
