<?xml version="1.0" encoding="utf-8"?>
<!-- Generator: Adobe Illustrator 16.0.0, SVG Export Plug-In . SVG Version: 6.00 Build 0)  -->
<!DOCTYPE svg PUBLIC "-//W3C//DTD SVG 1.1//EN" "http://www.w3.org/Graphics/SVG/1.1/DTD/svg11.dtd">
<svg version="1.1" id="content" xmlns="http://www.w3.org/2000/svg" xmlns:xlink="http://www.w3.org/1999/xlink" x="0px" y="0px"
	 width="500px" height="500px" viewBox="0 0 500 500" enable-background="new 0 0 500 500" xml:space="preserve">
<path fill="#912E3D" d="M318,141h-67.5H183l-24.353,236.061c6.241,1.4,13.317,2.462,20.853,3.039c26,2,47.6-2.5,48.2-10.104
	l22.8-159.9l22.8,159.9c0.601,7.604,22.2,12.104,48.2,10.104c7.535-0.577,14.611-1.639,20.853-3.039L318,141z"/>
<g id="bounds" display="none">
	<g id="bounds_1_" display="inline">
		<rect fill="none" stroke="#000000" stroke-miterlimit="10" width="500" height="500"/>
	</g>
</g>
<polygon fill="#D6C45B" points="157.8,136.6 144.91,256.041 176.961,264.814 190.215,136.6 "/>
<g>
	<path fill="#BAAB4F" d="M133.4,362.7c-0.485,6.146,12.891,12.418,31.824,15.653l11.737-113.539l-32.051-8.773L133.4,362.7z"/>
</g>
<polygon fill="#D6C45B" points="343.2,136.6 356.09,256.041 324.039,264.814 310.785,136.6 "/>
<g>
	<path fill="#BAAB4F" d="M367.6,362.7c0.485,6.146-12.891,12.418-31.824,15.653l-11.736-113.539l32.051-8.773L367.6,362.7z"/>
</g>
<path fill="#7D2835" d="M157.8,136.6c0,9,41.5,16.3,92.7,16.3s92.8-7.3,92.8-16.3s-41.5-16.3-92.8-16.3
	C199.3,120.3,157.8,127.6,157.8,136.6z"/>
</svg>
