<?xml version="1.0" encoding="utf-8"?>
<!-- Generator: Adobe Illustrator 16.0.0, SVG Export Plug-In . SVG Version: 6.00 Build 0)  -->
<!DOCTYPE svg PUBLIC "-//W3C//DTD SVG 1.1//EN" "http://www.w3.org/Graphics/SVG/1.1/DTD/svg11.dtd">
<svg version="1.1" id="content" xmlns="http://www.w3.org/2000/svg" xmlns:xlink="http://www.w3.org/1999/xlink" x="0px" y="0px"
	 width="500px" height="500px" viewBox="0 0 500 500" enable-background="new 0 0 500 500" xml:space="preserve">
<rect id="position" display="none" fill="none" stroke="#000000" width="500" height="500"/>
<path fill="#32363B" d="M231.486,397.167v32.857h-0.004c-0.056,12.715-11.021,23.006-24.543,23.006
	c-13.523,0-24.49-10.291-24.547-23.005h-0.002v-32.857L231.486,397.167z"/>
<path fill="#2B2D30" d="M182.395,428.462h-0.004v-35.089h9.928l-0.676,35.271c0,8.346,5.135,18.239,16.558,24.354
	c-0.417,0.021-0.837,0.032-1.261,0.032C193.416,453.03,182.449,442.04,182.395,428.462z"/>
<path fill="#F2F2F2" d="M206.938,393.373c18.797,0,24.721-2.222,24.721-2.222v13.427c0,0-5.924,2.963-24.721,2.963
	c-18.795,0-24.72-2.963-24.72-2.963v-13.427C182.219,391.151,188.143,393.373,206.938,393.373z"/>
<path fill="#32363B" d="M206.938,399.935c18.797,0,24.721-2.767,24.721-2.767v4.556c0,0-5.924,2.964-24.721,2.964
	c-18.795,0-24.72-2.964-24.72-2.964v-4.556C182.219,397.168,188.143,399.935,206.938,399.935z"/>
</svg>
