<?xml version="1.0" encoding="utf-8"?>
<!-- Generator: Adobe Illustrator 16.0.0, SVG Export Plug-In . SVG Version: 6.00 Build 0)  -->
<!DOCTYPE svg PUBLIC "-//W3C//DTD SVG 1.1//EN" "http://www.w3.org/Graphics/SVG/1.1/DTD/svg11.dtd">
<svg version="1.1" id="content" xmlns="http://www.w3.org/2000/svg" xmlns:xlink="http://www.w3.org/1999/xlink" x="0px" y="0px"
	 width="500px" height="500px" viewBox="0 0 500 500" enable-background="new 0 0 500 500" xml:space="preserve">
<g id="bounds">
	<rect fill="none" stroke="#000000" stroke-miterlimit="10" width="500" height="500"/>
</g>
<g>
	<path fill="#32363B" d="M324.667,261.916V145.933h-99.602v115.983l-36.623,11.652c-45.5,16.646-38.841,52.158-34.958,66.584
		c3.884,14.429,25.524,37.412,56.321,29.805c30.797-7.607,88.5-31.48,88.5-31.48C326.882,327.934,324.667,287.162,324.667,261.916z"
		/>
	<rect x="224.538" y="177.305" fill="#F2F2F2" width="100.758" height="9.507"/>
	<rect x="224.538" y="136.563" fill="#F2F2F2" width="100.758" height="23.116"/>
	<path fill="#2B2D30" d="M322.054,306.377c-12.991,9.17-29.889,16.675-50.655,25.869c-54.517,24.138-91.972,24.554-99.878-7.074
		c-6.328-21.721-1.899-36.549,5.51-46.486c-32.869,17.969-27.066,48.388-23.544,61.469c3.884,14.428,25.524,37.41,56.321,29.804
		c30.797-7.606,88.5-31.481,88.5-31.481C312.375,333.285,318.973,320.762,322.054,306.377z"/>
</g>
</svg>
