<?xml version="1.0" encoding="utf-8"?>
<!-- Generator: Adobe Illustrator 18.0.0, SVG Export Plug-In . SVG Version: 6.00 Build 0)  -->
<!DOCTYPE svg PUBLIC "-//W3C//DTD SVG 1.1//EN" "http://www.w3.org/Graphics/SVG/1.1/DTD/svg11.dtd">
<svg version="1.1" id="content" xmlns="http://www.w3.org/2000/svg" xmlns:xlink="http://www.w3.org/1999/xlink" x="0px" y="0px"
	 width="500px" height="500px" viewBox="0 0 500 500" enable-background="new 0 0 500 500" xml:space="preserve">
<rect id="position" display="none" fill="none" stroke="#000000" width="500" height="500"/>
<g>
	<g>
		<path fill="#C12814" d="M344.7,406.1l-0.6-43.3l9.3,40.8c5.5-0.7,10.1-1.5,13.8-2.5c-5.2-25-8.6-53.2-8.6-53.2L140.4,348
			c0,0-9,45-9.8,53.2c3.2,0.8,7.8,1.7,13.6,2.5l10.2-42.9l-1.6,44.2l30.9,2.5l7.2-45.7l-1.2,47.2l36.3,1.2L230,363l2.3,47.5
			c11,0.2,22.1,0.2,33.1,0.2L269,363l2.5,47.7c12.5-0.1,24.7-0.2,36-0.7l0.2-46.7l6.2,45.2L344.7,406.1z"/>
	</g>
	<path fill="#C12814" d="M140.4,348h218.1c0,0,2.5,25.4,7.8,50.4c-40.4,10.5-206.4,6.7-234.8-1.5C132.3,388.7,140.4,348,140.4,348z"
		/>
	<g>
		<path opacity="0.25" fill="#700C05" enable-background="new    " d="M361.4,366.4c0,0-41.1,4.2-113.1,4.2s-111.7-4.1-111.7-4.1
			l2.3-11.4c0,0,41.1,2.2,108.2,2.2s112.6-2.3,112.6-2.3L361.4,366.4z"/>
		<path opacity="0.25" fill="#700C05" enable-background="new    " d="M365.4,391.5c-7,3.8-172.4,10.4-233.1,0
			c0.4-3,0.8-4.4,2.1-11.4c13.6,3.2,176.5,9.2,228.9-0.1C364.1,384.5,365.1,389.6,365.4,391.5z"/>
		<polygon opacity="0.25" fill="#700C05" enable-background="new    " points="154.4,405.3 152.7,405 152.9,400.3 145.2,399.3 
			144.1,403.7 140.4,403.3 147.9,348 160.9,348 		"/>
		<polygon opacity="0.25" fill="#700C05" enable-background="new    " points="205.9,409.6 192.8,409.3 192.8,348 205.8,348 		"/>
		<polygon opacity="0.25" fill="#700C05" enable-background="new    " points="253.6,410.7 240.6,410.5 240.8,348 253.8,348 		"/>
		<polygon opacity="0.25" fill="#700C05" enable-background="new    " points="301.8,410.1 288.6,410.5 288.7,348 301.8,348 		"/>
		<polygon opacity="0.25" fill="#700C05" enable-background="new    " points="352.7,400.9 344.6,401.8 344.7,406.1 338.9,406.5 
			334.4,348 347.4,348 		"/>
	</g>
	<g>
		<polygon opacity="0.35" enable-background="new    " points="154,375 145.2,399.3 152.9,400.3 		"/>
		<polygon opacity="0.35" enable-background="new    " points="190.4,375.9 184.3,402.7 189.7,403.1 		"/>
		<polygon opacity="0.35" enable-background="new    " points="343.8,376.7 352.7,400.9 344.5,401.8 		"/>
		<polygon opacity="0.35" enable-background="new    " points="307.5,377.1 313.2,403.9 307.5,404.1 		"/>
		<polygon opacity="0.35" enable-background="new    " points="229.5,377 226.3,404.4 231.9,404.4 		"/>
		<polygon opacity="0.35" enable-background="new    " points="268.6,377 271,404.8 265.7,404.8 		"/>
	</g>
</g>
</svg>
