<?xml version="1.0" encoding="utf-8"?>
<!-- Generator: Adobe Illustrator 16.0.0, SVG Export Plug-In . SVG Version: 6.00 Build 0)  -->
<!DOCTYPE svg PUBLIC "-//W3C//DTD SVG 1.1//EN" "http://www.w3.org/Graphics/SVG/1.1/DTD/svg11.dtd">
<svg version="1.1" id="content" xmlns="http://www.w3.org/2000/svg" xmlns:xlink="http://www.w3.org/1999/xlink" x="0px" y="0px"
	 width="500px" height="500px" viewBox="0 0 500 500" enable-background="new 0 0 500 500" xml:space="preserve">
<path fill="#005182" d="M355.117,225.799c-6.511-31.91-19.191-94-19.191-94c0-3.04-4.959-5.86-13.478-8.232l1.743,8.233h-74.384
	h-74.384l1.743-8.233c-8.519,2.372-13.478,5.192-13.478,8.232c0,0-12.681,62.09-19.191,94l-0.083,0.413l1.575,7.164l21,31.375
	l34.723,7.19c12.325-1.088,20.064-4.517,22.598-9.604l5.585-13.032l19.913-45.104l19.913,45.104l5.586,13.032
	c2.532,5.087,10.271,8.516,22.598,9.604l34.723-7.19l21-31.375l1.575-7.164L355.117,225.799z"/>
<g id="bounds" display="none">
	<rect x="0.5" y="0.5" display="inline" fill="none" stroke="#2B2B2B" stroke-miterlimit="10" width="500" height="500"/>
</g>
<path fill="#00446E" d="M163.691,131.8c0,8.4,38.505,15.3,86.117,15.3c47.512,0,86.117-6.8,86.117-15.3
	c0-8.4-38.506-15.3-86.117-15.3C202.296,116.5,163.691,123.3,163.691,131.8z"/>
<path fill="#A7A9AC" d="M318.505,271.838c13.911-1.083,26.023-3.877,33.768-7.393c0,0,3.338-1.492,5.347-3.038l-0.002-0.007
	c2.46-1.838,3.758-3.778,3.594-5.717l-2.91-14.272c-0.822-4.037-2.457-12.053-4.483-21.989
	c-5.951,12.871-24.872,47.379-58.497,52.247C301.697,272.445,309.458,272.541,318.505,271.838z"/>
<path fill="#A7A9AC" d="M181.109,271.838c-13.911-1.083-26.023-3.877-33.767-7.393c0,0-3.338-1.492-5.347-3.038l0.002-0.007
	c-2.46-1.838-3.758-3.778-3.594-5.717l2.91-14.272c0.822-4.037,2.457-12.053,4.484-21.989c5.951,12.871,24.872,47.379,58.496,52.247
	C197.917,272.445,190.156,272.541,181.109,271.838z"/>
</svg>
