<?xml version="1.0" encoding="utf-8"?>
<!-- Generator: Adobe Illustrator 18.0.0, SVG Export Plug-In . SVG Version: 6.00 Build 0)  -->
<!DOCTYPE svg PUBLIC "-//W3C//DTD SVG 1.1//EN" "http://www.w3.org/Graphics/SVG/1.1/DTD/svg11.dtd">
<svg version="1.1" id="content" xmlns="http://www.w3.org/2000/svg" xmlns:xlink="http://www.w3.org/1999/xlink" x="0px" y="0px"
	 width="500px" height="500px" viewBox="0 0 500 500" enable-background="new 0 0 500 500" xml:space="preserve">
<rect id="position" display="none" fill="none" stroke="#000000" width="500" height="500"/>
<g>
	<g>
		<circle fill="#DBDCDD" cx="206.5" cy="368.4" r="24.4"/>
		<path id="leg_2_" fill="#DBDCDD" d="M182.2,427.8v-59.5h48.7v59.5H182.2z"/>
	</g>
	<g>
		<path d="M221.9,368.8c-2.2-0.1-4.5-0.3-6.7-0.5c-2.9-0.2-5.8-0.4-8.7-1c-2.8-0.6-5.6-1.5-7.9-3.2c-6.1-4.4-9.6-6.5-13.1-8
			c-0.8,1.4-1.5,2.6-2.1,4.7c3.5,3.3,6.6,7,10.8,9.3c3.4,1.9,7.3,2.7,11.2,2.7c8.2,0.1,15.6-4.4,23.8-1.5c0.6,0.2,1.2,0.4,1.7,0.7
			v-3.6v-0.2c0,0-0.3,0-0.4,0c-1.9,0-3.8,0.4-5.7,0.6C223.9,368.8,222.9,368.8,221.9,368.8z"/>
		<path d="M213.7,376.7c-4.5,0.1-9.3,1-13.6,1c-9.4,0-14.9-3.6-17.9-7.5v4.1c1.2,1.4,2.7,2.7,4.3,3.7c6.2,3.7,14.7,3.6,21.7,2.2
			c2.5-0.5,5.2-1.6,7.8-1.6c2.2,0,4.7,0.7,6.7,1.4c1.9,0.7,4.3,1.4,6.3,0.5c0.7-0.3,1.4-0.7,1.9-1l0-3.8c-2.5,0.3-5,1.2-7.6,1.3
			C220.2,377,216.9,376.6,213.7,376.7z"/>
		<path d="M182.2,381.2v5.1c6.1,0.1,18.4,11.3,22.2,13.6c4.3,2.5,8.5,5.9,13.4,7.1c2.6,0.7,5.1,1,7.6,2.1c0.7,0.3,3.9,1.7,5.5,2.9
			V407c-4.5-0.5-8.2-3.8-12.6-4.9c-2.6-0.6-4.3-1.2-6.6-2.8c-3.1-2.2-6.7-3.5-9.9-5.5c-1.5-0.9-3.1-2.7-4.6-3.3
			c2.2,0.8,11.4,1,11.4,1c9.5-0.1,18-4.2,22.3-6.6v-3.2c-12.5,6.8-25.4,6.7-25.4,6.7C194.3,389.1,185.5,383.7,182.2,381.2z"/>
		<path d="M212.4,413.8c-3.6-1.9-4.9-5.6-7.7-8.1c-2-1.8-4.7-1.8-7.1-2.9c-3.3-1.5-5.9-4.1-8.5-6.2c-1.9-1.5-4.8-3.3-6.9-5.1v0.9
			c3.3,5,10.2,14.5,16.9,17.5c3.3,1.5,4.3,4.3,6.7,6.6c4.1,3.9,9.7,4.9,14.8,7.5c2.1,1.1,3.4,2.4,4.6,3.8h5.7l0-1
			c-2.9-0.8-4.3-1.2-6.7-3c-2.7-2-5.7-2.5-8.6-4c0,0-2.8-1.5-5.9-4.6c0.5,0.5,4.6,0.9,5.6,1.2c2.4,0.6,4.7,1.4,6.9,2.2
			c2,0.7,6.6,1.9,8.7,3.8v-6c-1.4-0.5-3.9-1.3-4.2-1.4C222,413.4,216.7,416,212.4,413.8z"/>
		<path d="M206.5,422.5c-3.2-0.8-5.1-4.5-7-6.8s-5.2-5.2-8.2-6.2c-3.3-1.1-6.5-4-9.1-6.7v6.6c1.4,1.2,2.7,2.3,3.7,2.8
			c4,2.2,8.4,2.9,11.7,6.5c1.4,1.5,2.5,3.5,4,4.8c1.1,1,2.6,1.5,3.8,2.5c0.7,0.6,1.3,1.2,1.9,1.9h6.3
			C212.1,425.3,209.9,423.4,206.5,422.5z"/>
		<path d="M196.5,427.8h4.4c-0.7-0.8-1.6-1.8-2.5-2.7c-2.7-2.7-7.5-1-12.3-3.3c-1.6-0.8-2.8-1.5-3.9-2.3v4.7
			c2.3,0.5,5.7,1.1,6.9,1.2C190.8,425.5,194.7,426.3,196.5,427.8z"/>
		<path d="M221,395.2c4-0.2,8.3-2.8,9.9-3.9v-3c-2.3,2-5.7,3-8.7,3.9c-2.9,0.8-5.9,1.4-8.9,2c-1.1,0.2-0.4,0.5-0.4,0.5
			c1.8,0.5,2,1.1,3.8,1.9c2.6,1.1,4.6,1.1,7.2,2.2c1.3,0.6,2.6,1.2,3.8,2c0.6,0.4,1.2,0.7,1.8,1.1c0.2,0.1,1.4,0.8,1.4,0.9v-4.7
			C228.1,396.1,221,395.2,221,395.2z"/>
		<path d="M217.8,358.9c-5.8-0.5-17.6-1.4-17.3-0.8c-0.1,0.7,9.9,3.9,14.7,5.2c5.5,1.4,10.2,3.5,15.6,2.8c-0.2-1.9-0.6-3.8-1.2-5.6
			c-1,0-2.1,0-3.2-0.3C223.5,359.7,220.7,359.2,217.8,358.9z"/>
		<path d="M205.3,355.3c4,0.7,8.1,1.5,12.2,1.5c0.1,0,0.1,0,0.2,0c4.4,0,8.5,0.7,11,1.4c-0.5-1.1-1-2-1.7-3c-2.1-0.4-4.9-0.7-8-0.6
			c-4.8-0.1-9.6-0.5-14.1-2.1c-3.3-1.2-6.2-2.7-9.7-3.3c-1-0.2-2.1-0.5-3.1-0.5c-1.6,1.1-3.6,3-5.2,5.1c1.5-0.2,3.2-0.5,4.7-0.5
			C196.3,353.1,200.8,354.5,205.3,355.3z"/>
		<path d="M224.6,352.1c-0.9-1-1.9-1.9-2.9-2.7c-3.6-0.6-8.8-1.7-11.6-3.3c-1.3-0.8-2.6-1.6-3.5-2.1c-0.2,0-0.5,0-0.7,0
			c-2.3,0-4.4,0.4-6.5,1c2.3,1.1,6.7,3.1,9.4,3.8C212.5,349.8,219.6,351.9,224.6,352.1z"/>
	</g>
</g>
</svg>
