<?xml version="1.0" encoding="utf-8"?>
<!-- Generator: Adobe Illustrator 14.0.0, SVG Export Plug-In . SVG Version: 6.00 Build 43363)  -->
<!DOCTYPE svg PUBLIC "-//W3C//DTD SVG 1.1//EN" "http://www.w3.org/Graphics/SVG/1.1/DTD/svg11.dtd">
<svg version="1.1" id="content" xmlns="http://www.w3.org/2000/svg" xmlns:xlink="http://www.w3.org/1999/xlink" x="0px" y="0px"
	 width="500px" height="500px" viewBox="0 0 500 500" enable-background="new 0 0 500 500" xml:space="preserve">
<rect id="position" x="0.208" y="0" display="none" fill="none" stroke="#000000" stroke-width="1.002" width="500.003" height="500"/>
<g id="bounds" display="none">
	<rect x="0" y="80.372" display="inline" fill="none" stroke="#EAEAEA" stroke-miterlimit="10" width="499.505" height="499.492"/>
</g>
<g>
	<path fill="none" stroke="#F4DCDC" stroke-width="1.5577" stroke-dasharray="0,1.5,0" d="M85.103,208.725
		c0,0-0.92,42.046,16.936,42.046c17.856,0,16.938-42.046,16.938-42.046"/>
	<path fill="#6E2900" d="M132.195,169.517v38.86l-77.918-1.516L36.473,169.6C36.473,169.601,94.277,169.517,132.195,169.517z"/>
	<path fill="#943800" d="M132.828,183.996c0,0-41.387,17.766-88.652,0.587c9.338,20.677,10.104,22.278,10.104,22.278h76.392
		L132.828,183.996z"/>
	<path fill="#D1D1D1" d="M134.276,210.499l-81.323-1.58l-18.355-38.421c0,0,0.896-0.702,1.98-0.981s2.853,0.08,2.853,0.08
		l16.173,35.211l74.513,1.448v-36.739h4.162L134.276,210.499L134.276,210.499z"/>
	<path fill="#C2A100" d="M133.765,169.517c0,0-38.421,22.611-80.651,3.809c-23.02-11.641-22.716-20.024-22.716-20.024
		s22.106,16.464,52.446,10.367C113.182,157.57,133.765,169.517,133.765,169.517z"/>
	<path fill="#D9B400" d="M133.765,169.517c0,0-0.914-10.882-24.853-13.931c-23.937-3.049-61.592-1.22-76.991-26.527
		C39.09,153.757,59.825,178.722,133.765,169.517z"/>
	<path fill="#D9B400" d="M133.765,169.517c0,0-44.484,32.334-76.886,22.575c39.326-8.751,59.636-28.482,59.636-28.482
		L133.765,169.517z"/>
	<path fill="#C99000" d="M133.765,169.003c0,0-6.101,31.813-53.819,30.771c12.35-3.177,30.032-25.814,30.032-25.814L133.765,169.003
		z"/>
	<path fill="#C99000" d="M93.719,160.714c0,0-19.783-7.026-33.364-6.813c17.822,13.839,36.347,11.079,36.347,11.079L93.719,160.714z
		"/>
	<path fill="#A87900" d="M133.765,169.517c0,0-53.68-13.033-58.359-42.364c1.305,25.183,8.812,38.451,32.801,48.946
		C124.083,176.453,133.765,169.517,133.765,169.517z"/>
	<path fill="none" stroke="#F4DCDC" stroke-width="1.5577" stroke-dasharray="0,1.5,0" d="M413.862,208.725
		c0,0,0.92,42.046-16.938,42.046c-17.854,0-16.936-42.046-16.936-42.046"/>
	<path fill="#6E2900" d="M366.77,169.517v38.86l77.918-1.516l17.804-37.262C462.492,169.601,404.688,169.517,366.77,169.517z"/>
	<path fill="#943800" d="M366.137,183.996c0,0,41.387,17.766,88.65,0.587c-9.336,20.677-10.102,22.278-10.102,22.278h-76.394
		L366.137,183.996z"/>
	<path fill="#D1D1D1" d="M364.689,210.499l81.323-1.58l18.355-38.421c0,0-0.896-0.702-1.98-0.981s-2.853,0.08-2.853,0.08
		l-16.173,35.211l-74.513,1.448v-36.739h-4.162L364.689,210.499L364.689,210.499z"/>
	<path fill="#C2A100" d="M365.2,169.517c0,0,38.421,22.611,80.651,3.809c23.02-11.641,22.716-20.024,22.716-20.024
		s-22.106,16.464-52.446,10.367C385.783,157.57,365.2,169.517,365.2,169.517z"/>
	<path fill="#D9B400" d="M365.2,169.517c0,0,0.914-10.882,24.853-13.931c23.937-3.049,61.592-1.22,76.991-26.527
		C459.878,153.757,439.14,178.722,365.2,169.517z"/>
	<path fill="#D9B400" d="M365.2,169.517c0,0,44.484,32.334,76.886,22.575c-39.328-8.751-59.636-28.482-59.636-28.482L365.2,169.517z
		"/>
	<path fill="#C99000" d="M365.2,169.003c0,0,6.099,31.813,53.819,30.771c-12.352-3.177-30.032-25.814-30.032-25.814L365.2,169.003z"
		/>
	<path fill="#C99000" d="M405.247,160.714c0,0,19.783-7.026,33.364-6.813c-17.822,13.839-36.347,11.079-36.347,11.079
		L405.247,160.714z"/>
	<path fill="#A87900" d="M365.2,169.517c0,0,53.678-13.033,58.359-42.364c-1.305,25.183-8.813,38.451-32.803,48.946
		C374.883,176.453,365.2,169.517,365.2,169.517z"/>
</g>
<g>
	<path fill="#D1D1D1" d="M358.72,317.51v3.238c-2.788,1.64-10.268,5.103-24.646,5.576l-0.1-2.998
		C349.829,322.804,357.29,318.439,358.72,317.51z"/>
	<path fill="#D1D1D1" d="M140.279,317.51v3.238c2.788,1.64,10.268,5.103,24.646,5.576l0.1-2.998
		C149.171,322.804,141.71,318.439,140.279,317.51z"/>
	<path opacity="0.1" fill="#210A00" enable-background="new    " d="M249.558,271.856c-18.873,0-29.247-10.44-29.681-10.885
		l2.15-2.092c0.096,0.098,9.979,9.977,27.529,9.977c17.55,0,27.434-9.879,27.53-9.979l2.148,2.094
		C278.805,261.414,268.431,271.856,249.558,271.856L249.558,271.856z"/>
	<path opacity="0.2" fill="#210A00" enable-background="new    " d="M218.01,356.536c0,0-4.352-7.455-28.885-8.58
		c-16.88-0.977-22.311-13.655-22.311-13.655l51.194,8.254l3.302,7.953L218.01,356.536z"/>
	<path opacity="0.2" fill="#210A00" enable-background="new    " d="M280.376,356.536c0,0,4.353-7.455,28.886-8.58
		c16.88-0.977,22.311-13.655,22.311-13.655l-51.195,8.254l-3.301,7.953L280.376,356.536z"/>
	<path opacity="0.2" fill="#210A00" enable-background="new    " d="M171.001,180.563c14.696,32.24,65.067,34.106,78.56,34.106
		s63.861-1.867,78.559-34.106H171.001z"/>
	<circle opacity="0.2" fill="#210A00" enable-background="new    " cx="164.907" cy="180.607" r="5.303"/>
	<path fill="#F4DCDC" d="M346.82,225.993l-0.062-0.851l1.552-0.12l0.068,0.851L346.82,225.993L346.82,225.993z M346.66,224.174
		l-0.03-0.25c-0.05-0.49-0.108-0.98-0.18-1.46l-0.03-0.25l1.54-0.22l0.03,0.25c0.07,0.5,0.14,1,0.19,1.51l0.028,0.25L346.66,224.174
		L346.66,224.174z M346.27,221.243l-0.051-0.24c-0.079-0.49-0.171-0.98-0.271-1.46l-0.04-0.24l1.543-0.309
		c0,0,0.217,1.238,0.307,1.738l0.04,0.25L346.27,221.243L346.27,221.243z M345.7,218.344l-0.06-0.24
		c-0.11-0.479-0.23-0.96-0.352-1.43l-0.069-0.25l1.511-0.39l0.068,0.239c0.12,0.49,0.25,0.98,0.36,1.48l0.05,0.24L345.7,218.344
		L345.7,218.344z M344.969,215.484l-0.069-0.239c-0.142-0.48-0.29-0.95-0.44-1.41l-0.068-0.24l1.479-0.48l0.08,0.24
		c0.15,0.48,0.3,0.96,0.43,1.41l0.104,0.278L344.969,215.484L344.969,215.484z M344.08,212.663l-0.09-0.24
		c-0.16-0.46-0.33-0.93-0.51-1.39l-0.09-0.23l1.46-0.55l0.09,0.229c0.18,0.471,0.35,0.95,0.52,1.431l0.09,0.229L344.08,212.663
		L344.08,212.663z M343.03,209.893l-0.09-0.229c-0.19-0.46-0.38-0.91-0.58-1.36l-0.102-0.23l1.422-0.63l0.1,0.23
		c0.21,0.46,0.41,0.93,0.6,1.399l0.102,0.23L343.03,209.893L343.03,209.893z M341.85,207.183l-0.11-0.229
		c-0.21-0.45-0.42-0.9-0.64-1.33l-0.11-0.23l1.39-0.7l0.11,0.23c0.22,0.45,0.45,0.899,0.66,1.37l0.109,0.22L341.85,207.183
		L341.85,207.183z M340.53,204.524l-0.11-0.22c-0.238-0.44-0.47-0.87-0.71-1.3l-0.13-0.22l1.36-0.761l0.13,0.221
		c0.24,0.43,0.479,0.88,0.72,1.33l0.12,0.22L340.53,204.524L340.53,204.524z M339.09,201.933l-0.119-0.22
		c-0.229-0.38-0.471-0.771-0.699-1.15l-0.194-0.339l1.33-0.807l0.114,0.207c0.26,0.43,0.528,0.859,0.79,1.3l0.13,0.22
		L339.09,201.933L339.09,201.933z M337.53,199.413l-0.13-0.21c-0.271-0.42-0.55-0.83-0.83-1.24l-0.14-0.2l1.289-0.88l0.141,0.2
		c0.28,0.41,0.56,0.84,0.84,1.26l0.14,0.21L337.53,199.413L337.53,199.413z M335.87,196.953l-0.149-0.2
		c-0.289-0.41-0.579-0.811-0.869-1.2l-0.16-0.2l1.25-0.939l0.148,0.199c0.302,0.4,0.602,0.811,0.9,1.23l0.14,0.2l-0.198,0.149l0,0
		L335.87,196.953L335.87,196.953z M334.1,194.573l-0.16-0.199c-0.312-0.4-0.61-0.79-0.92-1.16l-0.16-0.2l1.21-0.979l0.16,0.189
		c0.26,0.32,0.52,0.66,0.79,0.99l0.21,0.27l0.1,0.12L334.1,194.573L334.1,194.573z M332.23,192.254l-0.16-0.19
		c-0.33-0.39-0.65-0.76-0.97-1.12l-0.17-0.189l1.17-1.03l0.17,0.19c0.318,0.37,0.648,0.75,0.989,1.14l0.159,0.2L332.23,192.254
		L332.23,192.254z M330.27,190.013l-0.16-0.18c-0.352-0.38-0.69-0.74-1.021-1.08l-0.18-0.181l1.13-1.079l0.17,0.18
		c0.32,0.33,0.642,0.67,0.972,1.03l0.304,0.369L330.27,190.013L330.27,190.013z M328.23,187.864l-0.182-0.17
		c-0.368-0.38-0.729-0.72-1.06-1.05l-0.18-0.17l1.08-1.12l0.18,0.17c0.34,0.33,0.7,0.681,1.08,1.061l0.18,0.18l-0.18,0.18l0,0
		L328.23,187.864L328.23,187.864z M326.09,185.793l-0.18-0.16c-0.43-0.39-0.8-0.72-1.11-0.99l-0.188-0.16l1.02-1.18l0.19,0.16
		c0.32,0.28,0.71,0.62,1.14,1.02l0.182,0.17L326.09,185.793L326.09,185.793z M324.02,183.663l-0.392-0.311l0.642-0.83l0.398,0.3
		L324.02,183.663L324.02,183.663z"/>
	<path fill="#F4DCDC" d="M333.06,211.323l-0.08-0.239c-0.17-0.46-0.33-0.931-0.511-1.38l-0.091-0.23l1.45-0.57l0.09,0.24
		c0.182,0.47,0.36,0.94,0.521,1.4l0.12,0.25L333.06,211.323L333.06,211.323z M333.896,213.946l-0.068-0.243
		c-0.147-0.468-0.286-0.944-0.445-1.402l-0.078-0.234l1.476-0.501l0.078,0.244c0.158,0.479,0.315,0.956,0.454,1.423l0.107,0.255
		L333.896,213.946L333.896,213.946z M332.01,208.563l-0.091-0.229c-0.199-0.46-0.39-0.91-0.6-1.351l-0.101-0.22l1.409-0.65
		l0.11,0.221c0.2,0.46,0.41,0.92,0.61,1.399l0.1,0.23L332.01,208.563L332.01,208.563z M330.79,205.884l-0.108-0.23
		c-0.222-0.439-0.45-0.88-0.682-1.3l-0.12-0.22l1.37-0.75l0.12,0.22c0.24,0.45,0.48,0.9,0.71,1.36l0.11,0.22L330.79,205.884
		L330.79,205.884z M329.4,203.274l-0.12-0.21c-0.25-0.43-0.51-0.85-0.76-1.26l-0.142-0.22l1.32-0.82l0.14,0.21
		c0.262,0.42,0.521,0.86,0.78,1.3l0.13,0.221L329.4,203.274L329.4,203.274z M327.85,200.763l-0.142-0.2
		c-0.27-0.42-0.55-0.819-0.84-1.21l-0.14-0.21l1.26-0.91l0.15,0.21c0.29,0.4,0.579,0.82,0.868,1.25l0.142,0.21L327.85,200.763
		L327.85,200.763z M326.14,198.364l-0.15-0.199c-0.3-0.4-0.61-0.78-0.92-1.15l-0.15-0.2l1.2-0.979l0.16,0.189
		c0.31,0.38,0.63,0.78,0.95,1.19l0.148,0.2L326.14,198.364L326.14,198.364z M324.28,196.073l-0.16-0.189
		c-0.33-0.38-0.66-0.74-0.99-1.09l-0.17-0.181l1.142-1.069l0.17,0.18c0.34,0.37,0.68,0.74,1.02,1.14l0.17,0.181L324.28,196.073
		L324.28,196.073z M322.28,193.904l-0.17-0.17c-0.36-0.359-0.72-0.71-1.07-1.04l-0.17-0.17l1.062-1.13l0.18,0.17
		c0.359,0.34,0.729,0.69,1.1,1.07l0.17,0.17l-0.17,0.18l0,0L322.28,193.904L322.28,193.904z M320.14,191.873l-0.19-0.16
		c-0.39-0.351-0.76-0.66-1.12-0.96l-0.188-0.15l0.818-1.02l0.16-0.23l0.19,0.2c0.38,0.3,0.77,0.63,1.17,0.99l0.188,0.16
		L320.14,191.873L320.14,191.873z M317.87,190.004l-0.2-0.15c-0.449-0.34-0.85-0.63-1.188-0.859l-0.21-0.141l0.89-1.29l0.2,0.141
		c0.31,0.21,0.66,0.46,1.05,0.75l0.3-0.391v0.62l0.102,0.07L317.87,190.004L317.87,190.004z M315.57,188.174l-0.4-0.3l0.16-0.28
		l0.12,0.07l-0.12-0.07l0.37-0.64l0.43,0.25L315.57,188.174L315.57,188.174L315.57,188.174z"/>
	<path fill="#F4DCDC" d="M322.094,214.379l-0.011-0.25c-0.01-0.271-0.02-0.54-0.04-0.811l-0.02-0.25l1.55-0.119l0.02,0.25
		c0.021,0.289,0.04,0.579,0.052,0.869l0.01,0.25L322.094,214.379L322.094,214.379z M321.915,212.129l-0.029-0.25
		c-0.069-0.47-0.16-0.95-0.261-1.42l-0.06-0.25l1.529-0.32l0.051,0.24c0.108,0.51,0.199,1.01,0.278,1.53l0.03,0.239L321.915,212.129
		L321.915,212.129z M321.344,209.279l-0.069-0.239c-0.12-0.471-0.271-0.931-0.42-1.4l-0.08-0.229l1.479-0.49l0.08,0.24
		c0.16,0.479,0.312,0.97,0.45,1.47l0.061,0.24L321.344,209.279L321.344,209.279z M316.16,199.114l-0.14-0.21
		c-0.28-0.42-0.562-0.819-0.84-1.22l-0.15-0.2l1.27-0.91l0.15,0.211c0.29,0.409,0.58,0.819,0.86,1.25l0.14,0.21L316.16,199.114
		L316.16,199.114z M317.718,201.422l-0.14-0.21c-0.28-0.42-0.561-0.82-0.84-1.22l-0.15-0.2l1.271-0.91l0.149,0.21
		c0.29,0.41,0.58,0.82,0.86,1.25l0.14,0.21L317.718,201.422L317.718,201.422z M319.122,203.704l-0.119-0.223
		c-0.237-0.444-0.479-0.871-0.719-1.295l-0.131-0.213l1.352-0.784l0.131,0.225c0.248,0.436,0.498,0.871,0.735,1.327l0.119,0.222
		L319.122,203.704L319.122,203.704z M320.48,206.346l-0.099-0.232c-0.196-0.465-0.396-0.91-0.599-1.354l-0.11-0.224l1.417-0.658
		l0.108,0.234c0.209,0.457,0.418,0.913,0.613,1.389l0.099,0.231L320.48,206.346L320.48,206.346z M314.46,196.694l-0.148-0.199
		c-0.312-0.41-0.61-0.801-0.91-1.181l-0.16-0.189l1.22-0.971l0.16,0.19c0.312,0.39,0.61,0.79,0.93,1.21l0.15,0.2L314.46,196.694
		L314.46,196.694z M312.62,194.353l-0.16-0.189c-0.33-0.4-0.66-0.771-0.96-1.12l-0.17-0.19l1.17-1.03l0.17,0.19
		c0.312,0.36,0.65,0.75,0.99,1.16l0.16,0.189l-0.19,0.16l0,0L312.62,194.353L312.62,194.353z M310.67,192.123l-0.17-0.181
		c-0.38-0.42-0.729-0.779-1.02-1.069l-0.17-0.181l1.108-1.09l0.17,0.181c0.312,0.3,0.66,0.67,1.062,1.1l0.16,0.18L310.67,192.123
		L310.67,192.123z M308.78,189.823l-0.36-0.329l0.352-0.391l0.188,0.16l-0.188-0.16l0.358-0.39l0.37,0.33L308.78,189.823
		L308.78,189.823z"/>
	<path fill="#F4DCDC" d="M312.71,216.714l-0.02-0.25c-0.04-0.4-0.09-0.8-0.15-1.2l-0.029-0.25l1.539-0.2l0.04,0.24
		c0.062,0.42,0.102,0.83,0.15,1.25l0.021,0.25L312.71,216.714L312.71,216.714z M312.36,214.053l-0.04-0.25
		c-0.09-0.48-0.18-0.96-0.28-1.45l-0.05-0.24l1.53-0.31l0.05,0.24c0.1,0.5,0.2,1,0.28,1.5l0.05,0.25L312.36,214.053L312.36,214.053z
		 M311.78,211.163l-0.061-0.25c-0.109-0.48-0.239-0.95-0.359-1.431l-0.07-0.239l1.51-0.4l0.062,0.24
		c0.13,0.489,0.26,0.979,0.38,1.47l0.05,0.25L311.78,211.163L311.78,211.163z M311.03,208.293l-0.08-0.23
		c-0.14-0.479-0.28-0.95-0.43-1.42l-0.08-0.24l1.49-0.479l0.068,0.24c0.16,0.479,0.312,0.97,0.45,1.46l0.07,0.239L311.03,208.293
		L311.03,208.293z M310.13,205.473l-0.08-0.24c-0.158-0.47-0.329-0.939-0.5-1.399l-0.09-0.23l1.46-0.54l0.091,0.23
		c0.171,0.47,0.341,0.95,0.511,1.43l0.08,0.24L310.13,205.473L310.13,205.473z M309.137,202.711l-0.097-0.233
		c-0.19-0.458-0.394-0.916-0.595-1.363l-0.105-0.223l1.421-0.639l0.104,0.224c0.202,0.457,0.404,0.924,0.606,1.393l0.097,0.233
		L309.137,202.711L309.137,202.711z M307.941,200.036l-0.096-0.233c-0.191-0.458-0.395-0.916-0.596-1.363l-0.104-0.223l1.42-0.639
		l0.104,0.224c0.202,0.457,0.404,0.924,0.606,1.392l0.097,0.234L307.941,200.036L307.941,200.036z M306.75,197.223l-0.108-0.229
		c-0.222-0.471-0.45-0.921-0.65-1.341l-0.11-0.22l1.392-0.7l0.108,0.23c0.21,0.42,0.432,0.88,0.671,1.359l0.101,0.221
		L306.75,197.223L306.75,197.223z M305.42,194.553l-0.108-0.22c-0.271-0.5-0.5-0.94-0.71-1.311l-0.12-0.22l1.37-0.75l0.119,0.22
		c0.211,0.37,0.449,0.82,0.721,1.34l0.108,0.221L305.42,194.553L305.42,194.553z M304.219,191.823l-0.261-0.42l0.91-0.55l0.25,0.431
		L304.219,191.823L304.219,191.823z"/>
	<path fill="#F4DCDC" d="M301.96,217.993l-0.068-0.24c-0.08-0.271-0.15-0.55-0.23-0.83l-0.06-0.24l1.51-0.38l0.06,0.24
		c0.07,0.26,0.142,0.52,0.222,0.779l0.06,0.24L301.96,217.993L301.96,217.993z M301.37,215.674l-0.05-0.25
		c-0.09-0.49-0.18-0.99-0.271-1.51l-0.028-0.24l1.528-0.25l0.04,0.25c0.08,0.49,0.171,0.97,0.262,1.45l0.05,0.239L301.37,215.674
		L301.37,215.674z M300.57,209.623l-0.021-0.25c-0.04-0.5-0.068-1-0.09-1.511l-0.01-0.25l1.55-0.079l0.021,0.25
		c0.02,0.5,0.05,0.989,0.08,1.479l0.02,0.25L300.57,209.623L300.57,209.623z M300.847,212.541l-0.029-0.249
		c-0.056-0.498-0.103-0.997-0.14-1.505l-0.019-0.25l1.546-0.132l0.028,0.249c0.036,0.499,0.084,0.988,0.13,1.478l0.027,0.249
		L300.847,212.541L300.847,212.541z M300.41,206.603l-0.01-0.25c-0.021-0.51-0.03-1.01-0.03-1.52l-0.01-0.25l1.56-0.011v0.24
		c0.012,0.49,0.021,0.99,0.04,1.49v0.25L300.41,206.603L300.41,206.603z M301.91,203.573h-1.55v-0.25c0-0.51,0-1.01,0.01-1.51
		l0.01-0.25l1.552,0.021v0.25c-0.012,0.489-0.021,0.989-0.021,1.489V203.573L301.91,203.573z M301.95,200.594l-1.56-0.04l0.079-2.01
		l1.551,0.06l-0.011,0.26c-0.021,0.48-0.029,0.98-0.051,1.49L301.95,200.594L301.95,200.594z M302.07,197.614l-1.562-0.079
		l0.021-0.25c0.03-0.53,0.06-1.03,0.09-1.511l0.01-0.25l1.562,0.101l-0.021,0.25c-0.028,0.47-0.06,0.97-0.09,1.489L302.07,197.614
		L302.07,197.614z M302.26,194.643l-1.561-0.12l0.021-0.25c0.051-0.58,0.091-1.08,0.131-1.51l0.02-0.25l1.55,0.14l-0.02,0.25
		c-0.04,0.42-0.08,0.92-0.12,1.49L302.26,194.643L302.26,194.643z M302.36,191.663l-1.05-0.12l0.06-0.5l-0.149,0.479l0.051-0.489
		l1.739,0.189L302.36,191.663L302.36,191.663z"/>
	<path fill="#F4DCDC" d="M291.07,214.444l-1.562-0.029l0.012-0.49c0-0.2,0-0.4,0-0.59l0.01-0.25l1.55,0.02v0.26
		c0,0.181,0,0.37,0,0.631L291.07,214.444L291.07,214.444z M291.11,212.134l-1.55-0.08l0.01-0.25c0.03-0.5,0.06-1.01,0.1-1.52
		l0.021-0.25l1.56,0.119l-0.02,0.261c-0.05,0.489-0.08,0.979-0.102,1.47L291.11,212.134L291.11,212.134z M291.34,209.183l-1.55-0.17
		l0.03-0.25c0.05-0.5,0.11-1.01,0.18-1.51l0.03-0.24l1.55,0.2l-0.04,0.25c-0.06,0.49-0.12,0.979-0.18,1.47L291.34,209.183
		L291.34,209.183z M291.719,206.243l-1.539-0.24l0.039-0.25c0.079-0.5,0.159-1,0.25-1.49l0.051-0.25l1.528,0.271l-0.05,0.25
		c-0.08,0.479-0.16,0.97-0.24,1.46L291.719,206.243L291.719,206.243z M292.01,203.274l-1.311-0.26l0.05-0.25
		c0.102-0.5,0.2-0.99,0.312-1.479l0.05-0.24l1.53,0.33l-0.062,0.239c-0.1,0.48-0.2,0.961-0.3,1.461l-0.04,0.199H292.01
		L292.01,203.274z M292.85,200.404l-1.512-0.35l0.062-0.25c0.109-0.5,0.229-0.99,0.35-1.47l0.07-0.24l1.5,0.38l-0.061,0.24
		c-0.109,0.47-0.229,0.95-0.351,1.45L292.85,200.404L292.85,200.404z M293.57,197.513l-1.5-0.4l0.07-0.239
		c0.13-0.511,0.27-1,0.398-1.46l0.07-0.24l1.5,0.43l-0.07,0.24c-0.13,0.45-0.26,0.93-0.398,1.43L293.57,197.513L293.57,197.513z
		 M294.39,194.654l-1.49-0.46l0.08-0.229c0.16-0.561,0.318-1.05,0.46-1.45l0.068-0.24l1.48,0.49l-0.08,0.23
		c-0.13,0.399-0.28,0.88-0.45,1.42L294.39,194.654L294.39,194.654z M294.91,191.884l-0.979-0.89l0.35-0.351l0.71,0.641l-0.05,0.06
		l0.05-0.06l0.25,0.22L294.91,191.884L294.91,191.884z"/>
	<path fill="#F4DCDC" d="M277.67,216.853l-0.028-0.91l1.56-0.02v0.25c0,0.11,0.01,0.229,0.01,0.35l0.021,0.25L277.67,216.853
		L277.67,216.853z M279.26,215.033l-1.551-0.2l0.03-0.25c0.07-0.48,0.16-0.99,0.28-1.55l0.06-0.24l1.521,0.34l-0.062,0.25
		c-0.108,0.47-0.188,0.95-0.25,1.4L279.26,215.033L279.26,215.033z M279.84,212.223l-1.488-0.45l0.068-0.239
		c0.15-0.48,0.312-0.971,0.48-1.471l0.09-0.229l0.729,0.26l0.779,0.25l-0.13,0.25c-0.17,0.47-0.32,0.93-0.46,1.39L279.84,212.223
		L279.84,212.223z M280.8,209.453l-1.438-0.591l0.09-0.229c0.19-0.47,0.39-0.94,0.6-1.41l0.102-0.22l1.43,0.63l-0.1,0.229
		c-0.21,0.45-0.4,0.9-0.58,1.351L280.8,209.453L280.8,209.453z M281.99,206.743l-1.41-0.681l0.11-0.22
		c0.22-0.46,0.45-0.91,0.68-1.36l0.11-0.229l1.39,0.71l-0.11,0.22c-0.229,0.44-0.448,0.89-0.658,1.33L281.99,206.743L281.99,206.743
		z M283.33,204.094l-1.38-0.74l0.12-0.22c0.24-0.45,0.49-0.89,0.729-1.33l0.132-0.22l1.35,0.77l-0.12,0.21
		c-0.24,0.431-0.479,0.87-0.72,1.311L283.33,204.094L283.33,204.094z M284.77,201.493l-1.34-0.79l0.118-0.21
		c0.262-0.45,0.521-0.881,0.78-1.311l0.13-0.21l1.33,0.811l-0.13,0.21c-0.25,0.409-0.5,0.84-0.76,1.279L284.77,201.493
		L284.77,201.493z M286.31,198.933l-1.32-0.82l0.13-0.22c0.28-0.45,0.55-0.87,0.812-1.28l0.14-0.21l1.31,0.851l-0.14,0.21
		c-0.25,0.39-0.521,0.82-0.8,1.26L286.31,198.933L286.31,198.933z M287.92,196.424l-1.3-0.87l0.141-0.2
		c0.319-0.479,0.609-0.899,0.851-1.26l0.14-0.21l1.29,0.88l-0.148,0.21c-0.24,0.351-0.521,0.771-0.83,1.24L287.92,196.424
		L287.92,196.424z M289.4,193.803l-0.86-0.62l0.29-0.399l0.86,0.619L289.4,193.803L289.4,193.803z"/>
	<path fill="#A87900" d="M327.185,312.653c0,0-1.777,14.105,12.101,11.492c-5.13-3.521-5.432-13.285-5.432-13.285L327.185,312.653z"
		/>
	<path fill="#C99000" d="M329.788,311.963c0,0,0.584,10.604,14.167,8.512c-5.917-1.262-7.084-9.324-7.084-9.324L329.788,311.963z"/>
	<path fill="#D9B400" d="M332.456,310.407c0,0,3.869,11.054,16.491,4.679c-7.758-4.597-12.205-9.854-12.205-9.854L332.456,310.407z"
		/>
	<path fill="#C2A100" d="M340.462,306.04c0,0,4.854,8.572,12.939,5.742c-5.257,5.338-10.028,5.83-16.094-2.584
		C339.491,306.528,340.462,306.04,340.462,306.04z"/>
	<path fill="#6E2900" d="M339.194,281.963c0,0-4.717,22.623,10.891,16.881c-7.764,11.322-14.369,15.205-22.898,15.77
		C327.794,302.323,333.144,291.442,339.194,281.963z"/>
	<path fill="#943800" d="M331.679,294.321c0,0,1.455,12.472,9.318,10.146c-6.073,7.021-13.813,7.664-13.813,7.664L331.679,294.321z"
		/>
	<path fill="#D1D1D1" d="M334.12,326.69c1.062,0,1.973-0.469,2.528-1.309l-2.479-1.664c-0.143,0.035-1.174-0.158-2.329-1.625
		c-4.739-6.015-4.111-22.092,13.258-47.613c14.41-22.813,19.286-43.615,14.523-61.873c-5.921-22.686-24.494-32.897-25.281-33.321
		l-1.405,2.646c0.183,0.099,18.25,10.07,23.814,31.483c4.524,17.405-0.23,37.396-14.138,59.412
		c-20.091,29.522-16.835,44.01-14.503,48.864c1.408,2.93,3.615,4.844,5.756,4.99C333.952,326.686,334.037,326.69,334.12,326.69
		L334.12,326.69z"/>
	<circle fill="#D1D1D1" cx="334.221" cy="179.247" r="5.303"/>
	<circle fill="#E8E8E8" cx="334.221" cy="179.247" r="3.325"/>
	<circle fill="#E8E8E8" cx="335.696" cy="325.354" r="3.325"/>
	<path fill="#F4DCDC" d="M152.308,225.993l-1.561-0.12l0.069-0.851l1.551,0.12L152.308,225.993L152.308,225.993z M152.469,224.174
		l-1.551-0.17l0.029-0.25c0.051-0.51,0.12-1.01,0.19-1.51l0.029-0.25l1.54,0.22l-0.029,0.25c-0.07,0.479-0.131,0.97-0.181,1.46
		L152.469,224.174L152.469,224.174z M152.858,221.243l-1.529-0.261l0.04-0.25c0.09-0.5,0.307-1.738,0.307-1.738l1.544,0.309
		l-0.04,0.24c-0.101,0.479-0.19,0.97-0.271,1.46L152.858,221.243L152.858,221.243z M153.428,218.344l-1.511-0.35l0.05-0.24
		c0.11-0.5,0.24-0.99,0.36-1.48l0.069-0.239l1.511,0.39l-0.07,0.25c-0.12,0.47-0.239,0.95-0.351,1.43L153.428,218.344
		L153.428,218.344z M154.159,215.484l-1.515-0.441l0.104-0.278c0.13-0.45,0.279-0.93,0.431-1.41l0.079-0.24l1.479,0.48l-0.069,0.24
		c-0.149,0.46-0.3,0.93-0.439,1.41L154.159,215.484L154.159,215.484z M155.049,212.663l-1.47-0.521l0.09-0.229
		c0.17-0.48,0.34-0.96,0.521-1.431l0.09-0.229l1.46,0.55l-0.09,0.23c-0.18,0.46-0.351,0.93-0.51,1.39L155.049,212.663
		L155.049,212.663z M156.098,209.893l-1.45-0.59l0.101-0.23c0.189-0.47,0.391-0.939,0.601-1.399l0.1-0.23l1.421,0.631l-0.101,0.229
		c-0.2,0.45-0.391,0.9-0.58,1.36L156.098,209.893L156.098,209.893z M157.278,207.183l-1.409-0.67l0.109-0.22
		c0.21-0.471,0.439-0.92,0.66-1.37l0.109-0.23l1.391,0.7l-0.11,0.23c-0.22,0.43-0.43,0.88-0.64,1.33L157.278,207.183
		L157.278,207.183z M158.598,204.524l-1.381-0.729l0.12-0.22c0.24-0.45,0.479-0.9,0.721-1.33l0.13-0.221l1.359,0.761l-0.13,0.22
		c-0.239,0.43-0.471,0.859-0.71,1.3L158.598,204.524L158.598,204.524z M160.039,201.933l-1.351-0.79l0.13-0.22
		c0.261-0.44,0.53-0.87,0.79-1.3l0.114-0.207l1.33,0.807l-0.194,0.339c-0.229,0.38-0.47,0.771-0.699,1.15L160.039,201.933
		L160.039,201.933z M161.598,199.413l-1.311-0.86l0.141-0.21c0.279-0.42,0.56-0.85,0.84-1.26l0.141-0.2l1.289,0.88l-0.14,0.2
		c-0.28,0.41-0.561,0.82-0.83,1.24L161.598,199.413L161.598,199.413z M163.259,196.953l-1.061-0.761l0,0l-0.199-0.149l0.141-0.2
		c0.3-0.42,0.6-0.83,0.899-1.23l0.149-0.199l1.25,0.939l-0.16,0.2c-0.29,0.39-0.58,0.79-0.869,1.2L163.259,196.953L163.259,196.953z
		 M165.028,194.573l-1.229-0.97l0.101-0.12l0.21-0.27c0.271-0.33,0.53-0.67,0.79-0.99l0.16-0.189l1.21,0.979l-0.16,0.2
		c-0.311,0.37-0.609,0.76-0.92,1.16L165.028,194.573L165.028,194.573z M166.898,192.254l-1.189-1l0.16-0.2
		c0.34-0.39,0.67-0.77,0.989-1.14l0.17-0.19l1.17,1.03l-0.17,0.189c-0.319,0.36-0.64,0.73-0.97,1.12L166.898,192.254
		L166.898,192.254z M168.858,190.013l-1.214-0.94l0.304-0.369c0.33-0.36,0.65-0.7,0.971-1.03l0.17-0.18l1.131,1.079l-0.181,0.181
		c-0.33,0.34-0.67,0.7-1.021,1.08L168.858,190.013L168.858,190.013z M170.898,187.864l-0.92-0.92l0,0l-0.181-0.18l0.181-0.18
		c0.38-0.38,0.739-0.73,1.08-1.061l0.18-0.17l1.08,1.12l-0.18,0.17c-0.33,0.33-0.69,0.67-1.061,1.05L170.898,187.864
		L170.898,187.864z M173.039,185.793l-1.051-1.141l0.181-0.17c0.431-0.399,0.819-0.739,1.141-1.02l0.189-0.16l1.021,1.18
		l-0.189,0.16c-0.311,0.271-0.681,0.601-1.109,0.99L173.039,185.793L173.039,185.793z M175.108,183.663l-0.649-0.841l0.399-0.3
		l0.641,0.83L175.108,183.663L175.108,183.663z"/>
	<path fill="#F4DCDC" d="M166.068,211.323l-1.5-0.529l0.12-0.25c0.16-0.46,0.34-0.931,0.521-1.4l0.09-0.24l1.45,0.57l-0.09,0.23
		c-0.181,0.449-0.341,0.92-0.511,1.38L166.068,211.323L166.068,211.323z M165.232,213.946l-1.523-0.459l0.108-0.255
		c0.138-0.467,0.296-0.944,0.454-1.423l0.078-0.244l1.476,0.501l-0.079,0.234c-0.159,0.458-0.297,0.935-0.445,1.402L165.232,213.946
		L165.232,213.946z M167.119,208.563l-1.439-0.6l0.1-0.23c0.2-0.479,0.41-0.939,0.61-1.399l0.109-0.221l1.41,0.65l-0.101,0.22
		c-0.21,0.44-0.399,0.891-0.601,1.351L167.119,208.563L167.119,208.563z M168.339,205.884l-1.399-0.7l0.109-0.22
		c0.229-0.46,0.471-0.91,0.71-1.36l0.12-0.22l1.37,0.75l-0.12,0.22c-0.229,0.42-0.46,0.86-0.681,1.3L168.339,205.884
		L168.339,205.884z M169.728,203.274l-1.351-0.779l0.13-0.221c0.261-0.439,0.521-0.88,0.78-1.3l0.141-0.21l1.319,0.82l-0.141,0.22
		c-0.25,0.41-0.51,0.83-0.76,1.26L169.728,203.274L169.728,203.274z M171.278,200.763l-1.3-0.86l0.141-0.21
		c0.29-0.43,0.579-0.85,0.869-1.25l0.15-0.21l1.26,0.91l-0.141,0.21c-0.29,0.391-0.569,0.79-0.84,1.21L171.278,200.763
		L171.278,200.763z M172.988,198.364l-1.239-0.949l0.149-0.2c0.32-0.41,0.641-0.811,0.95-1.19l0.159-0.189l1.2,0.979l-0.149,0.2
		c-0.311,0.37-0.62,0.75-0.92,1.15L172.988,198.364L172.988,198.364z M174.848,196.073l-1.181-1.029l0.17-0.181
		c0.341-0.399,0.681-0.77,1.021-1.14l0.17-0.18l1.141,1.069l-0.17,0.181c-0.33,0.35-0.66,0.71-0.99,1.09L174.848,196.073
		L174.848,196.073z M176.848,193.904l-0.931-0.92l0,0l-0.17-0.18l0.17-0.17c0.37-0.38,0.74-0.73,1.101-1.07l0.18-0.17l1.061,1.13
		l-0.17,0.17c-0.351,0.33-0.71,0.681-1.069,1.04L176.848,193.904L176.848,193.904z M178.988,191.873l-1.029-1.17l0.189-0.16
		c0.399-0.36,0.79-0.69,1.17-0.99l0.189-0.2l0.16,0.23l0.819,1.02l-0.189,0.15c-0.359,0.3-0.729,0.609-1.119,0.96L178.988,191.873
		L178.988,191.873z M181.259,190.004l-0.939-1.25l0.101-0.07v-0.62l0.301,0.391c0.39-0.29,0.739-0.54,1.05-0.75l0.2-0.141l0.89,1.29
		l-0.21,0.141c-0.34,0.229-0.739,0.52-1.189,0.859L181.259,190.004L181.259,190.004z M183.558,188.174L183.558,188.174l-0.561-0.97
		l0.431-0.25l0.369,0.64l-0.119,0.07l0.119-0.07l0.16,0.28L183.558,188.174L183.558,188.174z"/>
	<path fill="#F4DCDC" d="M177.034,214.379l-1.561-0.061l0.01-0.25c0.011-0.29,0.03-0.58,0.051-0.869l0.021-0.25l1.55,0.119
		l-0.021,0.25c-0.021,0.271-0.029,0.54-0.04,0.811L177.034,214.379L177.034,214.379z M177.214,212.129l-1.54-0.23l0.03-0.239
		c0.08-0.521,0.17-1.021,0.279-1.53l0.051-0.24l1.529,0.32l-0.061,0.25c-0.1,0.47-0.189,0.95-0.26,1.42L177.214,212.129
		L177.214,212.129z M177.784,209.279l-1.5-0.409l0.061-0.24c0.14-0.5,0.289-0.99,0.449-1.47l0.08-0.24l1.479,0.49l-0.08,0.229
		c-0.149,0.47-0.3,0.93-0.42,1.4L177.784,209.279L177.784,209.279z M182.969,199.114l-1.29-0.869l0.14-0.21
		c0.28-0.431,0.57-0.841,0.86-1.25l0.149-0.211l1.271,0.91l-0.15,0.2c-0.279,0.4-0.56,0.8-0.84,1.22L182.969,199.114
		L182.969,199.114z M181.411,201.422l-1.29-0.87l0.141-0.21c0.279-0.43,0.569-0.84,0.859-1.25l0.15-0.21l1.27,0.91l-0.149,0.2
		c-0.279,0.399-0.561,0.8-0.841,1.22L181.411,201.422L181.411,201.422z M180.007,203.704l-1.367-0.742l0.118-0.223
		c0.237-0.455,0.487-0.891,0.736-1.326l0.13-0.225l1.353,0.784l-0.131,0.213c-0.24,0.425-0.48,0.851-0.72,1.295L180.007,203.704
		L180.007,203.704z M178.648,206.346l-1.432-0.615l0.1-0.231c0.195-0.476,0.404-0.932,0.613-1.389l0.107-0.234l1.417,0.658
		l-0.109,0.224c-0.201,0.445-0.401,0.891-0.6,1.354L178.648,206.346L178.648,206.346z M184.669,196.694l-1.239-0.939l0.149-0.2
		c0.319-0.42,0.619-0.82,0.93-1.21l0.16-0.19l1.221,0.971l-0.16,0.189c-0.3,0.38-0.601,0.771-0.91,1.181L184.669,196.694
		L184.669,196.694z M186.509,194.353l-1.01-0.83l0,0l-0.189-0.16l0.16-0.189c0.34-0.41,0.68-0.8,0.989-1.16l0.17-0.19l1.17,1.03
		l-0.17,0.19c-0.3,0.35-0.63,0.72-0.96,1.12L186.509,194.353L186.509,194.353z M188.459,192.123l-1.141-1.061l0.16-0.18
		c0.399-0.43,0.75-0.8,1.061-1.1l0.17-0.181l1.109,1.09l-0.17,0.181c-0.29,0.29-0.641,0.649-1.021,1.069L188.459,192.123
		L188.459,192.123z M190.348,189.823l-0.721-0.779l0.37-0.33l0.359,0.39l-0.189,0.16l0.189-0.16l0.351,0.391L190.348,189.823
		L190.348,189.823z"/>
	<path fill="#F4DCDC" d="M186.419,216.714l-1.55-0.16l0.021-0.25c0.05-0.42,0.09-0.83,0.149-1.25l0.04-0.24l1.54,0.2l-0.03,0.25
		c-0.061,0.4-0.109,0.8-0.149,1.2L186.419,216.714L186.419,216.714z M186.768,214.053l-1.54-0.26l0.05-0.25
		c0.08-0.5,0.181-1,0.28-1.5l0.05-0.24l1.53,0.31l-0.051,0.24c-0.101,0.49-0.189,0.97-0.279,1.45L186.768,214.053L186.768,214.053z
		 M187.348,211.163l-1.511-0.36l0.051-0.25c0.119-0.49,0.25-0.98,0.38-1.47l0.061-0.24l1.51,0.4l-0.069,0.239
		c-0.12,0.48-0.25,0.95-0.359,1.431L187.348,211.163L187.348,211.163z M188.098,208.293l-1.49-0.431l0.07-0.239
		c0.14-0.49,0.289-0.98,0.449-1.46l0.069-0.24l1.49,0.479l-0.08,0.24c-0.149,0.47-0.29,0.94-0.43,1.42L188.098,208.293
		L188.098,208.293z M188.999,205.473l-1.471-0.51l0.08-0.24c0.17-0.479,0.34-0.96,0.511-1.43l0.09-0.23l1.46,0.54l-0.09,0.23
		c-0.17,0.46-0.341,0.93-0.5,1.399L188.999,205.473L188.999,205.473z M189.991,202.711l-1.433-0.609l0.097-0.233
		c0.202-0.468,0.404-0.936,0.606-1.393l0.104-0.224l1.42,0.639l-0.104,0.223c-0.201,0.447-0.403,0.905-0.596,1.363L189.991,202.711
		L189.991,202.711z M191.187,200.036l-1.434-0.609l0.098-0.234c0.202-0.467,0.403-0.935,0.605-1.392l0.105-0.224l1.42,0.639
		l-0.105,0.223c-0.201,0.447-0.402,0.905-0.595,1.363L191.187,200.036L191.187,200.036z M192.379,197.223l-1.399-0.68l0.101-0.221
		c0.239-0.479,0.46-0.939,0.67-1.359l0.109-0.23l1.391,0.7l-0.109,0.22c-0.2,0.42-0.431,0.87-0.65,1.341L192.379,197.223
		L192.379,197.223z M193.709,194.553l-1.38-0.72l0.109-0.221c0.271-0.52,0.51-0.97,0.721-1.34l0.119-0.22l1.37,0.75l-0.12,0.22
		c-0.21,0.37-0.439,0.811-0.71,1.311L193.709,194.553L193.709,194.553z M194.909,191.823l-0.9-0.539l0.25-0.431l0.91,0.55
		L194.909,191.823L194.909,191.823z"/>
	<path fill="#F4DCDC" d="M197.169,217.993l-1.489-0.431l0.06-0.24c0.08-0.26,0.15-0.52,0.221-0.779l0.061-0.24l1.51,0.38l-0.06,0.24
		c-0.08,0.28-0.15,0.56-0.23,0.83L197.169,217.993L197.169,217.993z M197.759,215.674l-1.529-0.311l0.05-0.239
		c0.091-0.48,0.181-0.96,0.261-1.45l0.04-0.25l1.529,0.25l-0.029,0.24c-0.091,0.52-0.181,1.02-0.271,1.51L197.759,215.674
		L197.759,215.674z M198.558,209.623l-1.551-0.11l0.021-0.25c0.03-0.49,0.061-0.979,0.08-1.479l0.021-0.25l1.551,0.079l-0.011,0.25
		c-0.021,0.511-0.05,1.011-0.09,1.511L198.558,209.623L198.558,209.623z M198.281,212.541l-1.545-0.161l0.027-0.249
		c0.046-0.489,0.094-0.979,0.13-1.478l0.027-0.249l1.546,0.132l-0.018,0.25c-0.038,0.508-0.084,1.007-0.14,1.505L198.281,212.541
		L198.281,212.541z M198.719,206.603l-1.551-0.05v-0.25c0.021-0.5,0.029-1,0.04-1.49v-0.24l1.561,0.011l-0.011,0.25
		c0,0.51-0.01,1.01-0.029,1.52L198.719,206.603L198.719,206.603z M197.219,203.573v-0.25c0-0.5-0.011-1-0.021-1.489v-0.25
		l1.551-0.021l0.01,0.25c0.011,0.5,0.011,1,0.011,1.51v0.25H197.219L197.219,203.573z M197.178,200.594l-0.011-0.24
		c-0.021-0.51-0.029-1.01-0.05-1.49l-0.011-0.26l1.551-0.06l0.079,2.01L197.178,200.594L197.178,200.594z M197.058,197.614
		l-0.011-0.25c-0.029-0.52-0.061-1.02-0.09-1.489l-0.021-0.25l1.561-0.101l0.01,0.25c0.03,0.48,0.061,0.98,0.091,1.511l0.021,0.25
		L197.058,197.614L197.058,197.614z M196.869,194.643l-0.021-0.25c-0.04-0.57-0.08-1.07-0.12-1.49l-0.021-0.25l1.55-0.14l0.021,0.25
		c0.04,0.43,0.08,0.93,0.131,1.51l0.021,0.25L196.869,194.643L196.869,194.643z M196.768,191.663l-0.649-0.44l1.739-0.189
		l0.051,0.489l-0.15-0.479l0.061,0.5L196.768,191.663L196.768,191.663z"/>
	<path fill="#F4DCDC" d="M208.058,214.444l-0.011-0.449c0-0.261,0-0.45,0-0.631v-0.26l1.551-0.02l0.01,0.25c0,0.189,0,0.39,0,0.59
		l0.011,0.49L208.058,214.444L208.058,214.444z M208.018,212.134l-0.021-0.25c-0.021-0.49-0.051-0.98-0.101-1.47l-0.021-0.261
		l1.561-0.119l0.021,0.25c0.04,0.51,0.069,1.02,0.101,1.52l0.01,0.25L208.018,212.134L208.018,212.134z M207.789,209.183
		l-0.021-0.25c-0.061-0.49-0.12-0.979-0.181-1.47l-0.04-0.25l1.551-0.2l0.029,0.24c0.069,0.5,0.13,1.01,0.181,1.51l0.029,0.25
		L207.789,209.183L207.789,209.183z M207.409,206.243l-0.04-0.25c-0.08-0.49-0.16-0.98-0.24-1.46l-0.05-0.25l1.529-0.271l0.051,0.25
		c0.09,0.49,0.17,0.99,0.25,1.49l0.039,0.25L207.409,206.243L207.409,206.243z M207.119,203.274h-0.229l-0.04-0.199
		c-0.101-0.5-0.2-0.98-0.301-1.461l-0.061-0.239l1.53-0.33l0.05,0.24c0.11,0.489,0.21,0.979,0.311,1.479l0.051,0.25L207.119,203.274
		L207.119,203.274z M206.278,200.404l-0.061-0.239c-0.119-0.5-0.239-0.98-0.35-1.45l-0.061-0.24l1.5-0.38l0.069,0.24
		c0.12,0.479,0.24,0.97,0.351,1.47l0.061,0.25L206.278,200.404L206.278,200.404z M205.558,197.513l-0.07-0.24
		c-0.14-0.5-0.271-0.979-0.399-1.43l-0.069-0.24l1.5-0.43l0.069,0.24c0.131,0.46,0.271,0.949,0.399,1.46l0.07,0.239L205.558,197.513
		L205.558,197.513z M204.738,194.654l-0.069-0.239c-0.17-0.54-0.319-1.021-0.449-1.42l-0.08-0.23l1.479-0.49l0.069,0.24
		c0.141,0.4,0.3,0.89,0.46,1.45l0.08,0.229L204.738,194.654L204.738,194.654z M204.219,191.884l-0.33-0.38l0.25-0.22l0.05,0.06
		l-0.05-0.06l0.71-0.641l0.35,0.351L204.219,191.884L204.219,191.884z"/>
	<path fill="#F4DCDC" d="M221.459,216.853l-1.561-0.08l0.021-0.25c0-0.12,0.011-0.239,0.011-0.35v-0.25l1.56,0.02L221.459,216.853
		L221.459,216.853z M219.869,215.033l-0.03-0.25c-0.061-0.45-0.141-0.931-0.25-1.4l-0.061-0.25l1.521-0.34l0.061,0.24
		c0.12,0.56,0.21,1.069,0.28,1.55l0.029,0.25L219.869,215.033L219.869,215.033z M219.289,212.223l-0.069-0.24
		c-0.141-0.46-0.29-0.92-0.461-1.39l-0.13-0.25l0.78-0.25l0.729-0.26l0.09,0.229c0.17,0.5,0.33,0.99,0.479,1.471l0.069,0.239
		L219.289,212.223L219.289,212.223z M218.329,209.453l-0.101-0.24c-0.181-0.45-0.37-0.9-0.58-1.351l-0.101-0.229l1.431-0.63
		l0.101,0.22c0.21,0.47,0.409,0.94,0.601,1.41l0.09,0.229L218.329,209.453L218.329,209.453z M217.138,206.743l-0.11-0.23
		c-0.21-0.44-0.43-0.89-0.659-1.33l-0.11-0.22l1.391-0.71l0.109,0.229c0.229,0.45,0.461,0.9,0.681,1.36l0.109,0.22L217.138,206.743
		L217.138,206.743z M215.799,204.094l-0.109-0.22c-0.24-0.44-0.479-0.88-0.72-1.311l-0.12-0.21l1.35-0.77l0.131,0.22
		c0.239,0.44,0.489,0.88,0.729,1.33l0.12,0.22L215.799,204.094L215.799,204.094z M214.358,201.493l-0.13-0.221
		c-0.261-0.439-0.511-0.87-0.761-1.279l-0.13-0.21l1.33-0.811l0.13,0.21c0.261,0.43,0.521,0.86,0.78,1.311l0.119,0.21
		L214.358,201.493L214.358,201.493z M212.818,198.933l-0.13-0.21c-0.279-0.439-0.55-0.87-0.8-1.26l-0.141-0.21l1.311-0.851
		l0.14,0.21c0.261,0.41,0.53,0.83,0.811,1.28l0.131,0.22L212.818,198.933L212.818,198.933z M211.209,196.424l-0.141-0.21
		c-0.311-0.47-0.59-0.891-0.83-1.24l-0.149-0.21l1.29-0.88l0.141,0.21c0.239,0.36,0.529,0.78,0.851,1.26l0.14,0.2L211.209,196.424
		L211.209,196.424z M209.728,193.803l-0.29-0.4l0.859-0.619l0.29,0.399L209.728,193.803L209.728,193.803z"/>
	<path fill="#6E2900" d="M267.873,339.547c0,0,13.101-13.188,40.632-12.148c15.614,1.26,23.541-1.047,23.541-1.047l3.411,4.816
		l-60.573,14.217L267.873,339.547z"/>
	<path fill="#6E2900" d="M230.513,339.547c0,0-13.101-13.188-40.633-12.148c-15.613,1.26-23.541-1.047-23.541-1.047l-3.41,4.816
		l60.572,14.217L230.513,339.547z"/>
	<path fill="#943800" d="M272.907,343.379c0,0,0.859-14.414,38.138-11.81c14.437,1.354,23.669-2.557,23.669-2.557
		s3.626,9.354-19.837,10.846c-23.463,1.492-30.285,2.463-35.764,10.223C274.129,345.836,272.907,343.379,272.907,343.379z"/>
	<path fill="#943800" d="M225.479,343.379c0,0-4.576-14.814-41.854-12.211c-16,1.823-19.952-2.154-19.952-2.154
		s-3.626,9.354,19.838,10.846c23.463,1.492,30.284,2.463,35.764,10.223C224.258,345.836,225.479,343.379,225.479,343.379z"/>
	<path fill="#A87900" d="M171.802,312.615c0,0,1.919,14.144-11.96,11.529c5.131-3.521,5.433-13.285,5.433-13.285L171.802,312.615z"
		/>
	<path fill="#C99000" d="M169.341,311.963c0,0-0.584,10.604-14.167,8.512c5.917-1.262,7.084-9.324,7.084-9.324L169.341,311.963z"/>
	<path fill="#D9B400" d="M166.673,310.407c0,0-3.868,11.054-16.49,4.679c7.758-4.597,12.205-9.854,12.205-9.854L166.673,310.407z"/>
	<path fill="#C2A100" d="M158.667,306.04c0,0-4.853,8.572-12.938,5.742c5.257,5.338,10.027,5.83,16.094-2.584
		C159.637,306.528,158.667,306.04,158.667,306.04z"/>
	<path fill="#6E2900" d="M159.934,281.963c0,0,4.717,22.623-10.892,16.881c7.765,11.322,14.369,15.205,22.899,15.77
		C171.335,302.323,165.984,291.442,159.934,281.963z"/>
	<path fill="#943800" d="M167.449,294.321c0,0-1.456,12.472-9.319,10.146c6.073,7.021,13.813,7.664,13.813,7.664L167.449,294.321z"
		/>
	<path fill="#6E2900" d="M171.001,175.492c14.696,32.239,65.067,34.105,78.56,34.105s63.861-1.867,78.559-34.105H171.001z"/>
	<path fill="#943800" d="M267.556,182.486c-10.354,4.62-14.236,13.155-14.236,13.155s1.611-7.255-4.127-15.493
		c-5.739,8.238-4.127,15.493-4.127,15.493s-3.883-8.535-14.236-13.155c0.048,11.647,14.297,22.98,17.949,25.695
		c0.414,0.304,0.414,0.304,0.414,0.304s0,0,0.414-0.304C253.26,205.466,267.508,194.133,267.556,182.486z"/>
	<path fill="#943800" d="M262.815,196.323c0,0,12.929-4.817,24.313-17.247c-2.939,9.202-15.749,22.105-15.749,22.105
		s25.049-5.124,33.587-14.611c-3.937,11.491-21.074,19.236-21.074,19.236s-29.21,3.011-29.686,2.989
		C253.733,208.773,262.815,196.323,262.815,196.323z"/>
	<path fill="#943800" d="M236.44,196.323c0,0-12.929-4.817-24.314-17.247c2.94,9.202,15.749,22.105,15.749,22.105
		s-25.049-5.124-33.587-14.611c3.937,11.491,21.076,19.236,21.076,19.236s29.209,3.011,29.684,2.989
		C245.522,208.773,236.44,196.323,236.44,196.323z"/>
	<path fill="#D1D1D1" d="M326.462,175.492c-13.243,25.577-49.972,31.143-67.396,32.321c13.041-5.098,36.527-16.139,45.627-32.321
		h-3.459c-13.01,20.514-51.624,32.561-52.04,32.688l0.393,2.9c0.212,0.005,0.813,0.02,1.749,0.02c10.371,0,62.684-2.316,79.1-35.606
		L326.462,175.492L326.462,175.492z"/>
	<path fill="#D1D1D1" d="M276.673,175.492c-6.531,13.994-23.069,28.741-27.087,32.195c-4.016-3.454-20.553-18.201-27.086-32.195
		h-3.228c4.97,11.639,16.556,23.602,23.604,30.173c-11.864-4.539-35.348-15.058-44.934-30.173h-3.463
		c9.099,16.183,32.586,27.224,45.627,32.321c-17.426-1.179-54.152-6.744-67.396-32.321h-4.291
		c16.479,33.205,69.057,35.606,79.418,35.606c0.937,0,1.536-0.014,1.747-0.02l0.18-1.315l0.806,0.979
		c0.958-0.79,22.142-18.368,29.349-35.25H276.673z"/>
	<circle fill="#F4DCDC" cx="249.627" cy="208.795" r="2.984"/>
	<ellipse fill="#FFEEEE" cx="249.564" cy="207.393" rx="1.556" ry="1.079"/>
	<circle fill="#943800" cx="308.287" cy="188.736" r="1.281"/>
	<circle fill="#943800" cx="318.985" cy="177.892" r="1.281"/>
	<circle fill="#943800" cx="311.829" cy="179.909" r="1.281"/>
	<circle fill="#943800" cx="307.006" cy="180.131" r="1.281"/>
	<circle fill="#943800" cx="318.718" cy="182.228" r="1.281"/>
	<circle fill="#A33F00" cx="309.348" cy="183.765" r="1.281"/>
	<circle fill="#A33F00" cx="312.449" cy="186.652" r="0.885"/>
	<circle fill="#A33F00" cx="314.244" cy="177.085" r="0.62"/>
	<circle fill="#A33D00" cx="315.81" cy="180.131" r="0.884"/>
	<circle fill="#A33F00" cx="309.178" cy="177.152" r="0.885"/>
	<circle fill="#C74C00" cx="304.146" cy="183.092" r="0.937"/>
	<circle fill="#C74C00" cx="322.969" cy="177.417" r="0.937"/>
	<circle fill="#C74C00" cx="313.989" cy="183.524" r="0.937"/>
	<circle fill="#943800" cx="190.842" cy="188.736" r="1.281"/>
	<circle fill="#943800" cx="180.143" cy="177.892" r="1.281"/>
	<circle fill="#943800" cx="187.299" cy="179.909" r="1.282"/>
	<circle fill="#943800" cx="192.123" cy="180.131" r="1.281"/>
	<circle fill="#943800" cx="180.411" cy="182.228" r="1.281"/>
	<circle fill="#A33F00" cx="189.78" cy="183.765" r="1.281"/>
	<circle fill="#A33F00" cx="186.679" cy="186.652" r="0.885"/>
	<circle fill="#A33F00" cx="184.883" cy="177.085" r="0.62"/>
	<circle fill="#A33D00" cx="183.318" cy="180.131" r="0.885"/>
	<circle fill="#A33F00" cx="189.95" cy="177.152" r="0.885"/>
	<circle fill="#C74C00" cx="194.983" cy="183.092" r="0.937"/>
	<circle fill="#C74C00" cx="176.158" cy="177.417" r="0.937"/>
	<circle fill="#C74C00" cx="185.14" cy="183.524" r="0.937"/>
	<path fill="#D1D1D1" d="M165.009,326.69c-1.061,0-1.972-0.469-2.528-1.309l2.479-1.664c0.144,0.035,1.175-0.158,2.329-1.625
		c4.74-6.015,4.112-22.092-13.257-47.613c-14.41-22.813-19.286-43.615-14.523-61.873c5.92-22.686,24.494-32.897,25.281-33.321
		l1.405,2.646c-0.183,0.099-18.25,10.07-23.815,31.483c-4.524,17.405,0.231,37.396,14.138,59.412
		c20.092,29.522,16.836,44.01,14.504,48.864c-1.408,2.93-3.615,4.844-5.756,4.99C165.177,326.686,165.092,326.69,165.009,326.69
		L165.009,326.69z"/>
	<circle fill="#D1D1D1" cx="164.907" cy="179.247" r="5.303"/>
	<circle fill="#E8E8E8" cx="164.907" cy="179.247" r="3.325"/>
	<path fill="#D1D1D1" d="M278.789,350.821c-0.343-0.553-8.365-13.647-5.257-23.02c1.147-3.459,3.633-5.961,7.388-7.439l0.139-0.045
		c1.825-0.508,3.604,0.063,4.749,1.529c1.137,1.457,1.367,3.463,0.563,4.875l-2.434-1.385c0.212-0.371,0.142-1.152-0.339-1.769
		c-0.435-0.559-1.015-0.75-1.728-0.572c-2.943,1.179-4.804,3.037-5.683,5.688c-2.7,8.141,4.9,20.537,4.979,20.66L278.789,350.821
		L278.789,350.821z"/>
	<path fill="#D1D1D1" d="M219.948,350.821l-2.379-1.475c0.077-0.125,7.676-12.541,4.977-20.666
		c-0.879-2.648-2.736-4.508-5.681-5.685c-0.713-0.178-1.292,0.015-1.727,0.572c-0.48,0.615-0.552,1.396-0.34,1.769l-2.434,1.385
		c-0.804-1.412-0.572-3.418,0.564-4.875c1.145-1.467,2.924-2.039,4.749-1.529l0.138,0.045c3.755,1.479,6.24,3.98,7.388,7.439
		C228.313,337.172,220.291,350.268,219.948,350.821L219.948,350.821z"/>
	<path fill="#D1D1D1" d="M280.257,350.891l-2.286-1.615c5.977-8.465,13.604-9.336,36.817-10.813
		c12.935-0.822,16.863-4.07,18.054-5.935c1.033-1.615,0.362-3.62,0.357-3.632l2.819-0.39c0.381,0.981,0.638,3.252-0.818,5.528
		c-2.623,4.104-9.431,6.533-20.234,7.22C291.282,342.764,285.239,343.831,280.257,350.891L280.257,350.891z"/>
	<path fill="#D1D1D1" d="M218.45,350.891c-4.982-7.06-11.025-8.127-34.709-9.635c-10.804-0.687-17.611-3.115-20.234-7.22
		c-1.456-2.276-1.198-4.547-0.817-5.528l2.608,1.012l-1.305-0.506l1.313,0.483c-0.021,0.06-0.488,1.455,0.604,3.104
		c1.221,1.84,5.184,5.047,18.007,5.861c23.214,1.477,30.843,2.348,36.818,10.813L218.45,350.891L218.45,350.891z"/>
	<circle fill="#D1D1D1" cx="335.782" cy="324.354" r="5.303"/>
	<circle fill="#E8E8E8" cx="335.782" cy="324.354" r="3.325"/>
	<circle fill="#D1D1D1" cx="163.432" cy="325.354" r="5.303"/>
	<circle fill="#E8E8E8" cx="163.432" cy="325.354" r="3.325"/>
	<circle fill="#D9B400" cx="284.719" cy="325.656" r="4.357"/>
	<ellipse fill="#F0C600" cx="284.719" cy="324.375" rx="2.926" ry="1.676"/>
	<circle fill="#D9B400" cx="214.409" cy="325.656" r="4.357"/>
	<ellipse fill="#F0C600" cx="214.409" cy="324.375" rx="2.926" ry="1.676"/>
	<path fill="#F4DCDC" d="M250.188,251.973l-0.16-1.549l0.25-0.03c0.45-0.05,0.91-0.13,1.351-0.24l0.24-0.069l0.39,1.511
		l-0.239,0.068c-0.511,0.131-1.04,0.229-1.58,0.28L250.188,251.973L250.188,251.973z M249.061,252.073l-0.252-0.008
		c-0.542-0.004-1.079-0.057-1.6-0.141l-0.245-0.049l0.257-1.539l0.244,0.049c0.449,0.07,0.914,0.11,1.367,0.121l0.251,0.008
		L249.061,252.073L249.061,252.073z M245.938,251.524l-0.229-0.061c-0.529-0.17-1.029-0.381-1.5-0.619l-0.229-0.111l0.71-1.389
		l0.221,0.11c0.409,0.209,0.84,0.39,1.271,0.528l0.239,0.08L245.938,251.524L245.938,251.524z M243.039,250.174l-0.21-0.14
		c-0.42-0.302-0.841-0.632-1.24-0.99l-0.189-0.17l1.03-1.16l0.189,0.17c0.359,0.32,0.729,0.609,1.101,0.859l0.21,0.149
		L243.039,250.174L243.039,250.174z M240.629,248.114l-0.159-0.181c-0.351-0.39-0.681-0.79-1-1.21l-0.16-0.2l1.25-0.939l0.149,0.2
		c0.29,0.39,0.601,0.76,0.91,1.1l0.17,0.18L240.629,248.114L240.629,248.114z M238.709,245.654l-0.13-0.21
		c-0.28-0.43-0.54-0.88-0.801-1.33l-0.119-0.22l1.271-0.67h0.14l0.08,0.13c0.229,0.431,0.479,0.851,0.74,1.25l0.13,0.21
		L238.709,245.654L238.709,245.654z M237.178,242.964l-0.11-0.22c-0.22-0.46-0.43-0.931-0.63-1.41l-0.101-0.23l1.431-0.609
		l0.101,0.229c0.189,0.46,0.39,0.9,0.6,1.34l0.11,0.221L237.178,242.964L237.178,242.964z M235.948,240.154l-0.09-0.239
		c-0.18-0.471-0.351-0.95-0.521-1.44l-0.08-0.229l1.479-0.511l0.08,0.24c0.16,0.47,0.33,0.94,0.5,1.39l0.091,0.23L235.948,240.154
		L235.948,240.154z M234.948,237.263l-0.069-0.24c-0.149-0.479-0.29-0.97-0.431-1.46l-0.06-0.25l1.5-0.41l0.069,0.24
		c0.13,0.48,0.26,0.96,0.41,1.42l0.069,0.24L234.948,237.263L234.948,237.263z M234.129,234.333l-0.061-0.25
		c-0.12-0.49-0.239-0.98-0.351-1.48l-0.05-0.24l1.521-0.34l0.05,0.25c0.11,0.48,0.221,0.96,0.341,1.44l0.061,0.24L234.129,234.333
		L234.129,234.333z M233.459,231.364l-0.05-0.239c-0.101-0.5-0.2-1-0.29-1.5l-0.04-0.24l1.529-0.28l0.04,0.25
		c0.09,0.48,0.189,0.97,0.29,1.46l0.05,0.24L233.459,231.364L233.459,231.364z M232.909,228.384l-0.04-0.25
		c-0.07-0.43-0.141-0.86-0.2-1.28h-0.029l-0.011-0.47l1.511-0.22l0.04,0.25c0.069,0.489,0.14,0.979,0.229,1.47l0.039,0.25
		L232.909,228.384L232.909,228.384z M232.459,225.384l-0.029-0.25c-0.07-0.5-0.131-1-0.181-1.5l-0.029-0.25l1.539-0.18l0.03,0.25
		c0.061,0.489,0.12,0.979,0.181,1.479l0.039,0.25L232.459,225.384L232.459,225.384z M232.108,222.373l-0.029-0.24
		c-0.051-0.521-0.101-1.021-0.141-1.51l-0.021-0.25l1.55-0.141l0.021,0.25c0.04,0.49,0.091,0.98,0.141,1.49l0.03,0.25
		L232.108,222.373L232.108,222.373z M231.509,213.313v-0.25c-0.021-0.55-0.029-1.06-0.039-1.51v-0.25l1.56-0.02v0.25
		c0.011,0.439,0.021,0.939,0.03,1.489l0.01,0.25L231.509,213.313L231.509,213.313z M231.59,216.221v-0.25
		c-0.021-0.55-0.029-1.06-0.04-1.51v-0.25l1.561-0.021v0.25c0.011,0.44,0.021,0.94,0.03,1.49l0.01,0.25L231.59,216.221
		L231.59,216.221z M231.769,219.281v-0.25c-0.021-0.55-0.03-1.06-0.04-1.51v-0.25l1.56-0.02v0.25c0.011,0.439,0.021,0.939,0.03,1.49
		l0.01,0.25L231.769,219.281L231.769,219.281z M233.018,210.283h-1.561l0.01-0.25c0-0.511,0-0.801,0-0.851l0.011-0.26h0.25
		l1.311,0.03l-0.011,0.25c0,0.01-0.01,0.3-0.01,0.83V210.283L233.018,210.283z M253.19,251.524l-0.48-1.46l0.24-0.08
		c0.43-0.14,0.86-0.319,1.271-0.528l0.221-0.11l0.71,1.389l-0.23,0.111c-0.47,0.238-0.97,0.449-1.5,0.619L253.19,251.524
		L253.19,251.524z M256.09,250.174l-0.89-1.28l0.21-0.149c0.37-0.25,0.74-0.539,1.101-0.859l0.189-0.17l1.03,1.16l-0.19,0.17
		c-0.398,0.358-0.819,0.688-1.24,0.99L256.09,250.174L256.09,250.174z M258.5,248.114l-1.16-1.051l0.171-0.18
		c0.311-0.34,0.619-0.71,0.909-1.1l0.15-0.2l1.25,0.939l-0.16,0.2c-0.32,0.42-0.649,0.82-1,1.21L258.5,248.114L258.5,248.114z
		 M260.42,245.654l-1.31-0.84l0.13-0.21c0.26-0.399,0.51-0.819,0.74-1.25l0.08-0.13h0.14l1.271,0.67l-0.119,0.22
		c-0.262,0.45-0.521,0.9-0.802,1.33L260.42,245.654L260.42,245.654z M261.95,242.964l-1.4-0.68l0.11-0.221
		c0.21-0.439,0.41-0.88,0.601-1.34l0.101-0.229l1.43,0.609l-0.1,0.23c-0.2,0.479-0.41,0.95-0.63,1.41L261.95,242.964L261.95,242.964
		z M263.18,240.154l-1.461-0.56l0.091-0.23c0.17-0.449,0.34-0.92,0.5-1.39l0.08-0.24l1.479,0.511l-0.08,0.229
		c-0.17,0.49-0.34,0.97-0.52,1.44L263.18,240.154L263.18,240.154z M264.18,237.263l-1.49-0.46l0.068-0.24
		c0.15-0.46,0.28-0.939,0.41-1.42l0.07-0.24l1.5,0.41l-0.06,0.25c-0.142,0.49-0.28,0.98-0.432,1.46L264.18,237.263L264.18,237.263z
		 M265,234.333l-1.51-0.38l0.06-0.24c0.12-0.48,0.23-0.96,0.342-1.44l0.05-0.25l1.52,0.34l-0.05,0.24
		c-0.11,0.5-0.229,0.99-0.35,1.48L265,234.333L265,234.333z M265.67,231.364l-1.528-0.31l0.05-0.24c0.1-0.49,0.2-0.979,0.29-1.46
		l0.04-0.25l1.528,0.28l-0.039,0.24c-0.091,0.5-0.189,1-0.29,1.5L265.67,231.364L265.67,231.364z M266.219,228.384l-1.539-0.25
		l0.039-0.25c0.091-0.49,0.159-0.98,0.229-1.47l0.04-0.25l1.51,0.22l-0.01,0.47h-0.03c-0.06,0.42-0.13,0.851-0.2,1.28
		L266.219,228.384L266.219,228.384z M266.67,225.384l-1.55-0.2l0.04-0.25c0.061-0.5,0.12-0.99,0.18-1.479l0.03-0.25l1.54,0.18
		l-0.03,0.25c-0.05,0.5-0.108,1-0.18,1.5L266.67,225.384L266.67,225.384z M267.02,222.373l-1.551-0.15l0.029-0.25
		c0.05-0.51,0.102-1,0.142-1.49l0.02-0.25l1.55,0.141l-0.02,0.25c-0.04,0.489-0.09,0.989-0.142,1.51L267.02,222.373L267.02,222.373z
		 M267.62,213.313l-1.56-0.04l0.01-0.25c0.01-0.55,0.02-1.05,0.03-1.489v-0.25l1.56,0.02v0.25c-0.01,0.45-0.02,0.96-0.04,1.51
		V213.313L267.62,213.313z M267.539,216.221l-1.56-0.04l0.01-0.25c0.01-0.55,0.02-1.05,0.03-1.49v-0.25l1.56,0.021v0.25
		c-0.01,0.45-0.02,0.96-0.04,1.51V216.221L267.539,216.221z M267.359,219.281l-1.561-0.039l0.011-0.25
		c0.01-0.551,0.02-1.051,0.029-1.49v-0.25l1.561,0.02v0.25c-0.01,0.45-0.021,0.96-0.04,1.51V219.281L267.359,219.281z
		 M266.11,210.283v-0.25c0-0.53-0.01-0.82-0.01-0.83l-0.012-0.25l1.312-0.03h0.25l0.01,0.26c0,0.05,0,0.34,0,0.851l0.01,0.25H266.11
		L266.11,210.283z"/>
	<path fill="#D1D1D1" d="M249.558,269.793c-18.873,0-29.247-10.441-29.681-10.885l2.15-2.093c0.096,0.099,9.979,9.978,27.529,9.978
		c17.55,0,27.434-9.879,27.53-9.979l2.148,2.094C278.805,259.352,268.431,269.793,249.558,269.793L249.558,269.793z"/>
	<path opacity="0.1" fill="#210A00" enable-background="new    " d="M261.64,268.76c0.006-0.691-0.554-1.258-1.246-1.264
		l-2.952-0.021l1.739-1.715c0.489-0.486,0.497-1.279,0.01-1.773l-3.091-3.135c-0.488-0.492-1.282-0.498-1.774-0.012l-2.102,2.072
		l0.016-2.441c0.005-0.691-0.552-1.258-1.244-1.262l-4.407-0.031c-0.689-0.004-1.257,0.555-1.26,1.246l-0.021,2.953l-1.715-1.738
		c-0.485-0.494-1.28-0.498-1.774-0.014l-3.135,3.094c-0.493,0.486-0.498,1.281-0.013,1.775l2.073,2.1l-2.44-0.016
		c-0.691-0.007-1.259,0.551-1.262,1.243v0.054c-0.001,0-0.001,0-0.001,0l-0.029,4.352c-0.006,0.693,0.551,1.26,1.246,1.265
		l2.949,0.021l-1.737,1.711c-0.492,0.488-0.497,1.281-0.014,1.775l3.096,3.135c0.483,0.494,1.278,0.5,1.773,0.014l2.103-2.074
		l-0.018,2.441c-0.006,0.693,0.551,1.258,1.245,1.262l4.405,0.031c0.691,0.006,1.256-0.553,1.26-1.246l0.021-2.951l1.716,1.736
		c0.484,0.494,1.278,0.5,1.771,0.014l3.136-3.094c0.493-0.486,0.498-1.281,0.013-1.772l-2.071-2.103l2.438,0.017
		c0.693,0.006,1.259-0.552,1.264-1.246l0.023-3.271c0,0.002-0.001,0.002-0.001,0.002L261.64,268.76z"/>
	<path fill="#E0E0E0" d="M237.044,267.364l-0.03,4.406c-0.006,0.693,0.551,1.258,1.245,1.265l2.95,0.02l-1.737,1.713
		c-0.492,0.488-0.497,1.281-0.014,1.773l3.096,3.137c0.483,0.494,1.278,0.498,1.773,0.012l2.103-2.071l-0.018,2.438
		c-0.006,0.693,0.551,1.258,1.245,1.264l4.405,0.029c0.691,0.006,1.256-0.553,1.26-1.244l0.021-2.953l1.717,1.738
		c0.484,0.494,1.278,0.5,1.771,0.012l3.136-3.092c0.493-0.485,0.498-1.281,0.013-1.774l-2.071-2.103l2.438,0.019
		c0.693,0.004,1.259-0.552,1.264-1.246l0.031-4.404c0.006-0.691-0.554-1.258-1.246-1.262l-2.952-0.021l1.739-1.713
		c0.489-0.486,0.497-1.279,0.01-1.772l-3.091-3.138c-0.488-0.492-1.282-0.498-1.774-0.012l-2.102,2.072l0.016-2.439
		c0.005-0.692-0.552-1.258-1.244-1.264l-4.407-0.029c-0.689-0.006-1.257,0.553-1.26,1.246l-0.021,2.951l-1.715-1.738
		c-0.485-0.492-1.28-0.498-1.774-0.012l-3.135,3.094c-0.493,0.486-0.498,1.281-0.013,1.773l2.073,2.102l-2.44-0.018
		C237.613,266.115,237.047,266.672,237.044,267.364z"/>
	<path fill="#D1D1D1" d="M246.412,280.055l0.018-2.438l-2.103,2.071c-0.495,0.486-1.29,0.482-1.773-0.012l-3.096-3.137
		c-0.483-0.492-0.479-1.285,0.014-1.773l1.737-1.713l-2.95-0.02c-0.694-0.007-1.251-0.57-1.245-1.265l0.029-4.354
		c2.751,1.6,5.399,2.567,7.901,3.069l-0.002,0.359c0.057,0.039,0.108,0.08,0.158,0.129l2.404,2.439
		c0.068-0.013,0.135-0.021,0.206-0.021l3.424,0.023c0.04-0.056,0.079-0.109,0.133-0.158l2.438-2.406
		c-0.012-0.065-0.02-0.133-0.02-0.203l0.001-0.157c3.183-0.63,5.887-1.854,7.946-3.062l-0.023,3.271
		c-0.005,0.694-0.569,1.25-1.264,1.245l-2.438-0.018l2.071,2.102c0.485,0.494,0.48,1.289-0.013,1.775l-3.136,3.092
		c-0.493,0.488-1.287,0.482-1.771-0.012l-1.716-1.738l-0.021,2.953c-0.004,0.691-0.567,1.25-1.26,1.244l-4.405-0.029
		C246.963,281.313,246.406,280.748,246.412,280.055z"/>
	<circle fill="#6E2900" cx="249.326" cy="268.922" r="5.504"/>
	
		<ellipse transform="matrix(-0.0069 1 -1 -0.0069 517.9597 19.4042)" fill="#943800" cx="249.344" cy="266.901" rx="2.405" ry="3.84"/>
	<path fill="#6E2900" d="M247.658,259.598c0.005-0.738,0.607-1.332,1.346-1.328c0.742,0.006,1.336,0.609,1.33,1.349
		c-0.006,0.738-0.606,1.334-1.347,1.327C248.247,260.942,247.653,260.338,247.658,259.598z"/>
	<circle fill="#6E2900" cx="242.508" cy="262.571" r="1.338"/>
	<circle fill="#6E2900" cx="240.013" cy="269.254" r="1.338"/>
	<circle fill="#6E2900" cx="242.975" cy="275.741" r="1.338"/>
	<circle fill="#6E2900" cx="249.658" cy="278.236" r="1.338"/>
	<circle fill="#6E2900" cx="256.148" cy="275.274" r="1.339"/>
	<circle fill="#6E2900" cx="258.641" cy="268.59" r="1.338"/>
	<circle fill="#6E2900" cx="255.677" cy="262.102" r="1.339"/>
	<path fill="#6E2900" d="M280.68,353.25c0-14.959-15.187-18.873-15.187-18.873h-16.148h-16.15c0,0-15.186,3.914-15.186,18.873
		s31.336,31.797,31.336,31.797S280.68,368.209,280.68,353.25z"/>
	<path fill="#943800" d="M269.563,336.014c1.979,1.252,4.951,6.438,4.054,8.977c-8.148-0.492-14.017-8.109-14.017-8.109
		s1.519,3.195,1.035,7.371c-7.457-1.474-9.46-9.037-9.46-9.037S260.635,334.015,269.563,336.014z"/>
	<path fill="#943800" d="M228.855,336.014c-1.978,1.252-4.95,6.438-4.053,8.977c8.148-0.492,14.018-8.109,14.018-8.109
		s-1.519,3.195-1.035,7.371c7.456-1.474,9.46-9.037,9.46-9.037S237.785,334.015,228.855,336.014z"/>
	<path fill="#D1D1D1" d="M249.469,332.977v54.261l-1.675-0.922c-1.279-0.703-31.325-17.395-31.325-33.066
		c0-15.897,15.613-20.198,15.772-20.239L249.469,332.977L249.469,332.977z M232.634,335.776
		c-1.455,0.418-13.806,4.358-13.806,17.475c0,10.824,19.053,24.188,28.282,29.576v-47.051H232.634L232.634,335.776z"/>
	<path fill="#D1D1D1" d="M266.233,332.977l0.126,0.034c0.158,0.041,15.773,4.342,15.773,20.239
		c0,15.671-30.045,32.363-31.325,33.066l-1.675,0.922v-54.262H266.233L266.233,332.977z M251.808,335.776v47.051
		c9.229-5.388,28.282-18.752,28.282-29.576c0-13.117-12.352-17.057-13.807-17.475H251.808L251.808,335.776z"/>
	<ellipse fill="#943800" cx="266.8" cy="355.634" rx="1.08" ry="1.281"/>
	<ellipse fill="#943800" cx="269.786" cy="364.461" rx="1.08" ry="1.28"/>
	<ellipse fill="#943800" cx="265.72" cy="364.239" rx="1.08" ry="1.281"/>
	<ellipse fill="#A33F00" cx="267.696" cy="360.604" rx="1.08" ry="1.281"/>
	<ellipse fill="#A33F00" cx="270.309" cy="357.718" rx="0.747" ry="0.886"/>
	<ellipse fill="#C74C00" cx="271.607" cy="360.847" rx="0.79" ry="0.938"/>
	<ellipse fill="#943800" cx="231.889" cy="355.634" rx="1.08" ry="1.281"/>
	<ellipse fill="#943800" cx="228.903" cy="364.461" rx="1.08" ry="1.28"/>
	<ellipse fill="#943800" cx="232.969" cy="364.239" rx="1.08" ry="1.281"/>
	<ellipse fill="#A33F00" cx="230.995" cy="360.604" rx="1.08" ry="1.281"/>
	<ellipse fill="#A33F00" cx="228.381" cy="357.718" rx="0.746" ry="0.886"/>
	<ellipse fill="#C74C00" cx="227.083" cy="360.847" rx="0.79" ry="0.938"/>
	<path fill="#D1D1D1" d="M232.757,346.765c5.09,0,10.846,2.112,16.374,8.754l-1.68,1.967c-13.623-16.367-28.385-2.637-29.007-2.043
		l-1.481-2.18C217.069,353.16,223.905,346.765,232.757,346.765L232.757,346.765z"/>
	<path fill="#D1D1D1" d="M265.933,346.765c8.851,0,15.688,6.396,15.795,6.498l-1.481,2.18c-0.623-0.594-15.382-14.326-29.007,2.043
		l-1.68-1.967C255.089,348.877,260.844,346.765,265.933,346.765L265.933,346.765z"/>
	<path fill="#D1D1D1" d="M247.245,354.666l1.08,2.49c-10.52,6.42-12.104,19.256-12.119,19.385l-2.34-0.369
		C233.93,375.586,235.598,361.776,247.245,354.666L247.245,354.666z"/>
	<path fill="#D1D1D1" d="M251.176,354.666c11.646,7.109,13.313,20.92,13.379,21.506l-2.34,0.369
		c-0.015-0.129-1.6-12.965-12.119-19.385L251.176,354.666L251.176,354.666z"/>
	<path opacity="0.1" fill="#210A00" enable-background="new    " d="M227.584,223.417c0,0,12.842,47.397-32.613,53.672
		c-21.733,1.367-41.163-12.947-40.688-41.201c6.293,17.479,5.59,35.037,42.38,35.037c7.476,0,29.318-3.668,29.318-46.596
		L227.584,223.417z"/>
	<path fill="#6E2900" d="M153.822,235.648c5.241,33.062,23.796,38.306,42.165,35.896c38.393-6.181,30.912-48.14,30.912-48.14
		L153.822,235.648z M211.889,261.765c4.444-13.606,0.375-33.081,0.375-33.081l11.289-0.668
		C223.573,227.422,225.568,252.353,211.889,261.765z M157.515,238.306l10.591-2.505c0,0,1.811,19.394,9.509,31.462
		C160.043,260.835,157.998,239.826,157.515,238.306z M176.698,233.556l12.9-1.921l12.899-1.922c0,0-1.7,16.405-9.974,21.571
		C183.106,248.753,176.698,233.556,176.698,233.556z"/>
	<path fill="#943800" d="M219.261,259.161c0,0,2.69-7.689-0.604-15.64c-8.86,3.621-11.931,15.492-11.931,15.492l-8.874,12.223
		C197.854,271.238,214.009,267.042,219.261,259.161z"/>
	<path fill="#913600" d="M204.943,261.544c0,0-3.303,8.156-9.512,9.035c-9.363-3.775-11.433-6.447-11.433-6.447l9.884-4.166
		L204.943,261.544z"/>
	<path fill="#943800" d="M169.587,266.562c0,0-4.815-6.571-3.981-15.137c9.531,0.883,15.929,11.342,15.929,11.342l12.051,9.107
		C193.584,271.874,176.908,272.568,169.587,266.562z"/>
	<path fill="#6E2900" d="M178.057,238.904c3.595,5.721,8.8,6.425,8.8,6.425s0.618-5.619,3.51-9.222
		c3.815,2.603,6.045,7.797,6.045,7.797s4.687-2.369,6.456-8.89c1.386,2.407,0.024,7.239,0.024,7.239
		c-1.569,6.146-9.517,14.057-9.517,14.057s-9.906-5.252-13.2-10.674C180.176,245.636,177.433,241.61,178.057,238.904z"/>
	<circle fill="#943800" cx="193.346" cy="244.18" r="1.281"/>
	<path fill="#913600" d="M192.628,250.806c6.483-0.966,10.422-8.719,10.422-8.719c0.013,6.285-9.457,15.197-9.457,15.197
		s-11.654-5.767-13.476-11.781C180.117,245.503,186.145,251.771,192.628,250.806z"/>
	<path fill="#D1D1D1" d="M188.7,273.56c-20.375,0-32.256-12.391-36.263-37.665l2.963-0.47c4.175,26.334,17.413,37.67,40.488,34.643
		c10.259-1.649,18.07-6.133,23.178-13.315c9.741-13.701,6.486-32.879,6.453-33.072l2.835-0.504
		c0.147,0.833,3.636,20.556-6.831,35.297c-5.589,7.873-14.068,12.773-25.201,14.564C193.662,273.384,191.12,273.56,188.7,273.56
		L188.7,273.56z"/>
	<path fill="#D1D1D1" d="M195.58,272.652l-1.27-2.719c13.104-6.119,13.843-22.339,12.945-32.196
		c-2.725,9.588-9.452,24.497-25.265,27.303l-0.523-2.953c20.98-3.726,24.488-32.566,24.521-32.857l2.945-0.197
		C209.279,230.397,217.104,262.601,195.58,272.652L195.58,272.652z"/>
	<path fill="#D1D1D1" d="M195.674,272.425c-0.224-0.002-22.318-0.639-25.597-36.529l2.811-0.856
		c0.145,0.265,14.745,26.463,32.895,23.239l0.523,2.955c-14.615,2.595-26.585-10.851-32.351-18.967
		c4.823,26.656,21.566,27.156,21.748,27.158L195.674,272.425L195.674,272.425z"/>
	<circle fill="#A33F00" cx="189.781" cy="247.354" r="0.885"/>
	<circle fill="#C74C00" cx="213.662" cy="254.677" r="0.937"/>
	<circle fill="#C74C00" cx="210.508" cy="259.676" r="0.937"/>
	<circle fill="#AD4200" cx="217.517" cy="252.541" r="1.282"/>
	<circle fill="#A33F00" cx="214.266" cy="249.885" r="0.885"/>
	<circle fill="#A33F00" cx="214.039" cy="258.571" r="0.885"/>
	<circle fill="#A33F00" cx="217.485" cy="247.325" r="0.885"/>
	<circle fill="#C74C00" cx="173.419" cy="260.671" r="0.937"/>
	<circle fill="#C74C00" cx="177.894" cy="264.534" r="0.937"/>
	<circle fill="#AD4200" cx="169.11" cy="259.752" r="1.282"/>
	<circle fill="#A33F00" cx="171.446" cy="256.263" r="0.885"/>
	<circle fill="#A33F00" cx="174.194" cy="264.506" r="0.885"/>
	<circle fill="#A33F00" cx="167.619" cy="254.752" r="0.885"/>
	<circle fill="#C74C00" cx="190.262" cy="242.025" r="0.937"/>
	<circle fill="#A33F00" cx="192.047" cy="240.186" r="0.619"/>
	<circle fill="#F4DCDC" cx="193.679" cy="258.6" r="2.984"/>
	
		<ellipse transform="matrix(0.1475 0.9891 -0.9891 0.1475 419.3624 27.8356)" fill="#FFEEEE" cx="193.534" cy="257.188" rx="1.079" ry="1.556"/>
	<path fill="#6E2900" d="M152.499,235.821c0,0,8.51-10.694,18.785-4.395c4.366-5.383,24.479-12.094,35.86-4.683
		c7.259-8.367,17.468-6.646,21.379-3.326C214.728,228.594,182.01,236.705,152.499,235.821z"/>
	<path fill="#D1D1D1" d="M145.118,237.388c-1.593,0-3.147-0.021-4.664-0.068l-0.214-3.002c29.733,0.896,74.814-7.448,87.756-12.305
		l1.055,2.809C215.103,230.055,174.221,237.388,145.118,237.388L145.118,237.388z"/>
	<path fill="#943800" d="M172.615,231.894c15.175-9.47,31.372-5.246,31.372-5.246S189.921,231.39,172.615,231.894z"/>
	<path fill="#943800" d="M168.721,231.423c0,0-5.848-1.772-11.188,1.304C165.653,233.016,168.721,231.423,168.721,231.423z"/>
	<path fill="#943800" d="M211.325,225.042c0,0,4.772-3.814,10.874-2.938C214.765,225.384,211.325,225.042,211.325,225.042z"/>
	<circle fill="#D9B400" cx="188.897" cy="227.305" r="1.945"/>
	<path fill="#E0E0E0" d="M181.979,260.462l0.482,4.379c0.076,0.688,0.694,1.186,1.386,1.109l2.933-0.324l-1.526,1.901
		c-0.432,0.543-0.345,1.33,0.194,1.765l3.439,2.754c0.538,0.434,1.328,0.346,1.764-0.195l1.846-2.305l0.269,2.426
		c0.074,0.689,0.693,1.187,1.385,1.109l4.378-0.484c0.688-0.074,1.184-0.695,1.105-1.383l-0.323-2.937l1.906,1.525
		c0.539,0.434,1.328,0.348,1.763-0.193l2.753-3.438c0.433-0.541,0.346-1.33-0.195-1.764l-2.303-1.847l2.424-0.268
		c0.69-0.076,1.188-0.695,1.11-1.385l-0.483-4.378c-0.075-0.688-0.695-1.186-1.385-1.108l-2.936,0.324l1.527-1.904
		c0.431-0.541,0.345-1.33-0.197-1.764l-3.436-2.752c-0.542-0.434-1.332-0.347-1.764,0.193l-1.847,2.305l-0.269-2.427
		c-0.076-0.688-0.695-1.185-1.384-1.107l-4.381,0.482c-0.687,0.076-1.184,0.697-1.105,1.386l0.324,2.934l-1.905-1.525
		c-0.54-0.434-1.33-0.346-1.764,0.193l-2.753,3.439c-0.434,0.538-0.346,1.329,0.194,1.764l2.306,1.844l-2.428,0.269
		C182.399,259.154,181.902,259.773,181.979,260.462z M190.403,263.107c-0.055-0.043-0.112-0.078-0.173-0.108l-0.376-3.406
		c-0.008-0.07-0.025-0.135-0.043-0.201l2.141-2.672c0.043-0.055,0.079-0.113,0.11-0.174l3.404-0.377
		c0.07-0.006,0.138-0.023,0.201-0.041l2.673,2.141c0.056,0.043,0.114,0.078,0.175,0.111l0.376,3.403
		c0.008,0.07,0.022,0.138,0.043,0.201l-2.142,2.672c-0.046,0.058-0.079,0.115-0.111,0.175l-3.403,0.375
		c-0.071,0.01-0.136,0.024-0.202,0.045L190.403,263.107z"/>
	<path fill="#D1D1D1" d="M192.764,271.972l-0.269-2.426l-1.846,2.305c-0.436,0.541-1.226,0.629-1.764,0.195l-3.439-2.754
		c-0.539-0.435-0.626-1.222-0.194-1.765l1.526-1.901l-2.933,0.324c-0.69,0.075-1.31-0.423-1.386-1.109l-0.478-4.328
		c2.918,1.268,5.662,1.92,8.205,2.127l0.04,0.357c0.061,0.03,0.118,0.065,0.173,0.108l2.673,2.144
		c0.066-0.021,0.131-0.035,0.202-0.045l3.403-0.375c0.032-0.06,0.065-0.117,0.111-0.175l2.142-2.672
		c-0.021-0.063-0.035-0.131-0.043-0.201l-0.019-0.157c3.087-0.994,5.63-2.525,7.535-3.965l0.358,3.252
		c0.075,0.688-0.42,1.309-1.11,1.385l-2.424,0.268l2.303,1.847c0.541,0.434,0.628,1.223,0.195,1.764l-2.753,3.438
		c-0.435,0.541-1.224,0.628-1.763,0.193l-1.906-1.525l0.323,2.937c0.077,0.688-0.418,1.309-1.105,1.383l-4.378,0.484
		C193.458,273.157,192.839,272.661,192.764,271.972z"/>
	<circle fill="#6E2900" cx="194.36" cy="260.575" r="5.504"/>
	
		<ellipse transform="matrix(0.1099 0.9939 -0.9939 0.1099 429.8511 37.1915)" fill="#943800" cx="194.161" cy="258.584" rx="2.405" ry="3.841"/>
	<circle fill="#6E2900" cx="192.945" cy="251.363" r="1.338"/>
	<circle fill="#6E2900" cx="186.846" cy="255.063" r="1.337"/>
	<circle fill="#6E2900" cx="185.148" cy="261.991" r="1.338"/>
	<circle fill="#6E2900" cx="188.848" cy="268.089" r="1.337"/>
	<circle fill="#6E2900" cx="195.776" cy="269.785" r="1.338"/>
	<circle fill="#6E2900" cx="201.876" cy="266.087" r="1.339"/>
	<circle fill="#6E2900" cx="203.572" cy="259.159" r="1.338"/>
	<circle fill="#6E2900" cx="199.871" cy="253.06" r="1.338"/>
	<path opacity="0.1" fill="#210A00" enable-background="new    " d="M273.018,224.329c0,42.928,21.843,46.596,29.318,46.596
		c36.79,0,36.087-17.558,42.38-35.037c0.476,28.254-18.954,42.568-40.688,41.201c-45.455-6.274-32.613-53.672-32.613-53.672
		L273.018,224.329z"/>
	<path fill="#6E2900" d="M272.1,223.405c0,0-7.48,41.959,30.912,48.14c18.369,2.409,36.924-2.835,42.165-35.896L272.1,223.405z
		 M275.446,228.016l11.289,0.668c0,0-4.069,19.475,0.375,33.081C273.431,252.353,275.427,227.422,275.446,228.016z M321.385,267.263
		c7.698-12.068,9.509-31.462,9.509-31.462l10.591,2.505C341.002,239.826,338.957,260.835,321.385,267.263z M306.475,251.284
		c-8.273-5.166-9.974-21.571-9.974-21.571l12.899,1.922l12.9,1.921C322.302,233.556,315.893,248.753,306.475,251.284z"/>
	<path fill="#943800" d="M301.146,271.237l-8.874-12.223c0,0-3.07-11.871-11.931-15.492c-3.294,7.95-0.604,15.64-0.604,15.64
		C284.991,267.042,301.145,271.238,301.146,271.237z"/>
	<path fill="#913600" d="M305.117,259.966l9.884,4.166c0,0-2.069,2.672-11.433,6.447c-6.209-0.879-9.512-9.035-9.512-9.035
		L305.117,259.966z"/>
	<path fill="#943800" d="M305.415,271.874l12.051-9.107c0,0,6.397-10.459,15.929-11.342c0.834,8.565-3.981,15.137-3.981,15.137
		C322.092,272.568,305.416,271.874,305.415,271.874z"/>
	<path fill="#6E2900" d="M318.824,245.636c-3.294,5.422-13.2,10.674-13.2,10.674s-7.947-7.911-9.517-14.057
		c0,0-1.361-4.832,0.024-7.239c1.77,6.521,6.456,8.89,6.456,8.89s2.229-5.194,6.045-7.797c2.892,3.603,3.51,9.222,3.51,9.222
		s5.205-0.704,8.8-6.425C321.566,241.61,318.824,245.636,318.824,245.636z"/>
	<circle fill="#943800" cx="305.654" cy="244.18" r="1.281"/>
	<path fill="#913600" d="M318.883,245.503c-1.821,6.015-13.476,11.781-13.476,11.781s-9.47-8.912-9.457-15.197
		c0,0,3.938,7.753,10.422,8.719C312.854,251.771,318.883,245.503,318.883,245.503z"/>
	<path fill="#D1D1D1" d="M310.3,273.56c-2.42,0-4.962-0.176-7.622-0.522c-11.133-1.791-19.612-6.691-25.201-14.564
		c-10.467-14.741-6.979-34.464-6.831-35.297l2.835,0.504c-0.033,0.193-3.288,19.371,6.453,33.072
		c5.107,7.183,12.919,11.666,23.178,13.315c23.075,3.027,36.313-8.309,40.488-34.643l2.963,0.47
		C342.555,261.169,330.675,273.56,310.3,273.56L310.3,273.56z"/>
	<path fill="#D1D1D1" d="M303.42,272.652c-21.524-10.051-13.699-42.255-13.354-43.62l2.945,0.197
		c0.033,0.291,3.541,29.132,24.521,32.857l-0.523,2.953c-15.813-2.806-22.54-17.715-25.265-27.303
		c-0.897,9.857-0.159,26.077,12.945,32.196L303.42,272.652L303.42,272.652z"/>
	<path fill="#D1D1D1" d="M303.326,272.425l-0.029-3c0.182-0.002,16.925-0.502,21.748-27.158
		c-5.766,8.116-17.735,21.562-32.351,18.967l0.523-2.955c18.149,3.224,32.75-22.975,32.895-23.239l2.811,0.856
		C325.644,271.786,303.55,272.423,303.326,272.425L303.326,272.425z"/>
	<circle fill="#A33F00" cx="309.219" cy="247.354" r="0.885"/>
	<circle fill="#C74C00" cx="285.337" cy="254.677" r="0.937"/>
	<circle fill="#C74C00" cx="288.491" cy="259.676" r="0.937"/>
	<circle fill="#AD4200" cx="281.483" cy="252.541" r="1.282"/>
	<circle fill="#A33F00" cx="284.734" cy="249.885" r="0.885"/>
	<circle fill="#A33F00" cx="284.961" cy="258.571" r="0.885"/>
	<circle fill="#A33F00" cx="281.514" cy="247.325" r="0.885"/>
	<circle fill="#C74C00" cx="325.58" cy="260.671" r="0.937"/>
	<circle fill="#C74C00" cx="321.106" cy="264.534" r="0.937"/>
	<circle fill="#AD4200" cx="329.889" cy="259.752" r="1.282"/>
	<circle fill="#A33F00" cx="327.553" cy="256.263" r="0.885"/>
	<circle fill="#A33F00" cx="324.805" cy="264.506" r="0.885"/>
	<circle fill="#A33F00" cx="331.381" cy="254.752" r="0.885"/>
	<circle fill="#C74C00" cx="308.738" cy="242.025" r="0.937"/>
	<circle fill="#A33F00" cx="306.952" cy="240.186" r="0.619"/>
	<circle fill="#F4DCDC" cx="305.321" cy="258.6" r="2.984"/>
	
		<ellipse transform="matrix(-0.9891 -0.1475 0.1475 -0.9891 569.6605 556.6135)" fill="#FFEEEE" cx="305.466" cy="257.188" rx="1.556" ry="1.079"/>
	<path fill="#6E2900" d="M270.476,223.417c3.911-3.319,14.12-5.041,21.379,3.326c11.382-7.411,31.494-0.7,35.86,4.683
		c10.275-6.3,18.785,4.395,18.785,4.395C316.99,236.705,284.271,228.594,270.476,223.417z"/>
	<path fill="#D1D1D1" d="M353.882,237.388c-29.104,0-69.985-7.333-83.933-12.566l1.055-2.809
		c12.941,4.856,58.022,13.2,87.756,12.305l-0.214,3.002C357.029,237.366,355.474,237.388,353.882,237.388L353.882,237.388z"/>
	<path fill="#943800" d="M295.012,226.648c0,0,16.197-4.224,31.372,5.246C309.079,231.39,295.012,226.648,295.012,226.648z"/>
	<path fill="#943800" d="M341.467,232.727c-5.341-3.076-11.188-1.304-11.188-1.304S333.346,233.016,341.467,232.727z"/>
	<path fill="#943800" d="M276.801,222.105c6.102-0.877,10.874,2.938,10.874,2.938S284.234,225.384,276.801,222.105z"/>
	<circle fill="#D9B400" cx="310.103" cy="227.305" r="1.945"/>
	<path fill="#E0E0E0" d="M315.915,259.076l-2.428-0.269l2.306-1.844c0.54-0.435,0.628-1.226,0.194-1.764l-2.753-3.439
		c-0.434-0.539-1.224-0.627-1.764-0.193l-1.905,1.525l0.324-2.934c0.078-0.688-0.419-1.31-1.105-1.386l-4.381-0.482
		c-0.688-0.077-1.308,0.42-1.384,1.107l-0.269,2.427l-1.847-2.305c-0.432-0.54-1.222-0.627-1.764-0.193l-3.436,2.752
		c-0.542,0.434-0.628,1.223-0.197,1.764l1.527,1.904l-2.936-0.324c-0.689-0.077-1.31,0.421-1.385,1.108l-0.483,4.378
		c-0.077,0.689,0.42,1.309,1.11,1.385l2.424,0.268l-2.303,1.847c-0.541,0.434-0.628,1.223-0.195,1.764l2.753,3.438
		c0.435,0.541,1.224,0.627,1.763,0.193l1.906-1.525l-0.323,2.937c-0.078,0.688,0.418,1.309,1.105,1.383l4.378,0.484
		c0.691,0.077,1.311-0.42,1.385-1.109l0.269-2.426l1.846,2.305c0.436,0.541,1.226,0.629,1.764,0.195l3.439-2.754
		c0.539-0.435,0.626-1.222,0.194-1.765l-1.526-1.901l2.933,0.324c0.691,0.076,1.31-0.422,1.386-1.109l0.482-4.379
		C317.097,259.773,316.6,259.154,315.915,259.076z M305.924,265.25c-0.066-0.021-0.131-0.035-0.202-0.045l-3.403-0.375
		c-0.032-0.06-0.065-0.117-0.111-0.175l-2.142-2.672c0.021-0.063,0.035-0.131,0.043-0.201l0.376-3.403
		c0.061-0.033,0.119-0.068,0.175-0.111l2.673-2.141c0.063,0.018,0.131,0.035,0.201,0.041l3.404,0.377
		c0.031,0.061,0.067,0.119,0.11,0.174l2.141,2.672c-0.018,0.066-0.035,0.131-0.043,0.201l-0.376,3.406
		c-0.061,0.03-0.118,0.065-0.173,0.108L305.924,265.25z"/>
	<path fill="#D1D1D1" d="M304.853,273.083l-4.378-0.484c-0.688-0.074-1.183-0.695-1.105-1.383l0.323-2.937l-1.906,1.525
		c-0.539,0.435-1.328,0.348-1.763-0.193l-2.753-3.438c-0.433-0.541-0.346-1.33,0.195-1.764l2.303-1.847l-2.424-0.268
		c-0.69-0.076-1.186-0.696-1.11-1.385l0.358-3.252c1.905,1.439,4.448,2.971,7.535,3.965l-0.019,0.157
		c-0.008,0.07-0.022,0.138-0.043,0.201l2.142,2.672c0.046,0.058,0.079,0.115,0.111,0.175l3.403,0.375
		c0.071,0.01,0.136,0.024,0.202,0.045l2.673-2.144c0.055-0.043,0.112-0.078,0.173-0.108l0.04-0.357
		c2.543-0.207,5.287-0.859,8.205-2.127l-0.478,4.328c-0.076,0.687-0.695,1.185-1.386,1.109l-2.933-0.324l1.526,1.901
		c0.432,0.543,0.345,1.33-0.194,1.765l-3.439,2.754c-0.538,0.434-1.328,0.346-1.764-0.195l-1.846-2.305l-0.269,2.426
		C306.161,272.661,305.542,273.157,304.853,273.083z"/>
	<circle fill="#6E2900" cx="304.639" cy="260.575" r="5.504"/>
	
		<ellipse transform="matrix(-0.9939 -0.1098 0.1098 -0.9939 579.4284 549.0869)" fill="#943800" cx="304.839" cy="258.583" rx="3.841" ry="2.404"/>
	<circle fill="#6E2900" cx="306.054" cy="251.363" r="1.338"/>
	<circle fill="#6E2900" cx="312.154" cy="255.063" r="1.337"/>
	<circle fill="#6E2900" cx="313.851" cy="261.991" r="1.338"/>
	<circle fill="#6E2900" cx="310.151" cy="268.089" r="1.337"/>
	<circle fill="#6E2900" cx="303.223" cy="269.785" r="1.338"/>
	<circle fill="#6E2900" cx="297.124" cy="266.087" r="1.339"/>
	<circle fill="#6E2900" cx="295.427" cy="259.159" r="1.338"/>
	<circle fill="#6E2900" cx="299.129" cy="253.06" r="1.338"/>
	<path fill="#D1D1D1" d="M168.735,334.281"/>
</g>
</svg>
