<?xml version="1.0" encoding="utf-8"?>
<!-- Generator: Adobe Illustrator 14.0.0, SVG Export Plug-In . SVG Version: 6.00 Build 43363)  -->
<!DOCTYPE svg PUBLIC "-//W3C//DTD SVG 1.1//EN" "http://www.w3.org/Graphics/SVG/1.1/DTD/svg11.dtd">
<svg version="1.1" id="content" xmlns="http://www.w3.org/2000/svg" xmlns:xlink="http://www.w3.org/1999/xlink" x="0px" y="0px"
	 width="500px" height="500px" viewBox="0 0 500 500" enable-background="new 0 0 500 500" xml:space="preserve">
<rect id="position" x="0" y="0" display="none" fill="none" stroke="#000000" stroke-width="1.002" width="500" height="500"/>
<path fill="#F4B227" d="M259.887,274.34c0-0.978-0.794-1.771-1.772-1.771h-17.646c-0.978,0-1.771,0.794-1.771,1.771v10.463
	c0,0.98,0.794,1.773,1.771,1.773h17.646c0.979,0,1.772-0.793,1.772-1.773V274.34z"/>
<path fill="#F4B227" d="M259.887,292.444c0-0.979-0.794-1.772-1.772-1.772h-17.646c-0.978,0-1.771,0.794-1.771,1.772v10.465
	c0,0.979,0.794,1.771,1.771,1.771h17.646c0.979,0,1.772-0.793,1.772-1.771V292.444z"/>
<path fill="#F4B227" d="M259.887,310.548c0-0.979-0.794-1.773-1.772-1.773h-17.646c-0.978,0-1.771,0.795-1.771,1.773v10.463
	c0,0.979,0.794,1.771,1.771,1.771h17.646c0.979,0,1.772-0.792,1.772-1.771V310.548z"/>
<path fill="#F4B227" d="M259.887,328.65c0-0.979-0.794-1.771-1.772-1.771h-17.646c-0.978,0-1.771,0.793-1.771,1.771v10.464
	c0,0.979,0.794,1.772,1.771,1.772h17.646c0.979,0,1.772-0.794,1.772-1.772V328.65z"/>
<path fill="#FF6A03" d="M284.425,241.263c-10.353,5.574-22.183,8.746-34.741,8.746c-40.548,0-73.534-32.988-73.534-73.536
	c0-0.329,0.02-0.655,0.023-0.985h-9.153c-0.005,0.329-0.014,0.656-0.014,0.985c0,45.588,37.089,82.678,82.677,82.678
	c18.072,0,34.804-5.833,48.425-15.709c-0.895,0.09-1.798,0.136-2.716,0.136C291.489,243.578,287.779,242.748,284.425,241.263z"/>
<path fill="#FF6A03" d="M323.192,175.49c0.004,0.33,0.024,0.655,0.024,0.985c0,9.065-1.657,17.745-4.671,25.768
	c2.392,3.896,3.822,8.443,3.976,13.313c6.271-11.644,9.837-24.954,9.837-39.082c0-0.329-0.009-0.656-0.012-0.985H323.192z"/>
<path fill="#F4B227" d="M249.683,199.315c-12.595,0-22.84-10.246-22.84-22.84c0-0.33,0.012-0.658,0.024-0.985h-10.635
	c-0.01,0.328-0.024,0.655-0.024,0.985c0,18.458,15.018,33.475,33.475,33.475c9.983,0,18.956-4.399,25.094-11.354l-7.923-7.084
	C262.665,196.288,256.522,199.315,249.683,199.315z"/>
<path fill="#F4B227" d="M272.498,175.49c0.016,0.327,0.026,0.655,0.026,0.985c0,2.991-0.585,5.848-1.635,8.468l9.794,4.143
	c1.591-3.895,2.475-8.151,2.475-12.61c0-0.331-0.017-0.658-0.025-0.986H272.498L272.498,175.49z"/>
<path fill="#3BA895" d="M303.313,175.49c0.006,0.329,0.025,0.655,0.025,0.985c0,4.672-0.604,9.203-1.729,13.526
	c4.227,0.991,8.071,2.965,11.282,5.673c1.849-6.078,2.853-12.523,2.853-19.199c0-0.33-0.019-0.655-0.023-0.985H303.313z"/>
<path fill="#3BA895" d="M270.026,226.113c-6.278,2.583-13.144,4.018-20.343,4.018c-29.585,0-53.656-24.07-53.656-53.656
	c0-0.33,0.021-0.656,0.026-0.985h-12.408c-0.005,0.33-0.024,0.655-0.024,0.985c0,36.427,29.636,66.063,66.063,66.063
	c9.797,0,19.092-2.161,27.464-6.002C274.017,233.693,271.561,230.131,270.026,226.113z"/>
<path fill="#FF6A03" d="M210.549,176.474c0-0.33,0.018-0.656,0.025-0.985h-9.748c-0.007,0.329-0.024,0.655-0.024,0.985
	c0,10.863,3.512,21.16,10.157,29.781l1.086,1.409l7.693-5.979l-1.076-1.398C213.353,193.393,210.549,185.158,210.549,176.474z"/>
<path fill="#FF6A03" d="M288.792,175.49c0.01,0.329,0.025,0.655,0.025,0.985c0,4.51-0.77,8.942-2.289,13.174l-0.454,1.269
	c2.898-1.09,6.038-1.69,9.317-1.69c0.489,0,0.974,0.015,1.455,0.042c1.136-4.184,1.719-8.486,1.719-12.794
	c0-0.33-0.018-0.656-0.024-0.985H288.792z"/>
<path fill="#F73B15" d="M302.048,206.627c-5.063,0-6.496,4.774-6.496,4.774s-1.434-4.774-6.498-4.774
	c-4.413,0-6.375,3.939-6.375,6.574c0,2.637,1.16,5.689,5.44,9.309c4.279,3.62,7.433,7.476,7.433,7.476s3.154-3.856,7.434-7.476
	c4.281-3.62,5.44-6.672,5.44-9.309C308.426,210.566,306.461,206.627,302.048,206.627z"/>
<path fill="#3BA895" d="M277.955,221.77l-3.19,0.779c0.941,3.165,2.59,6.031,4.766,8.404l2.524-2.124
	C280.2,226.834,278.774,224.437,277.955,221.77z"/>
<path fill="#3BA895" d="M286.519,232.35l-1.704,2.808c2.688,1.525,5.735,2.485,8.981,2.726l0.284-3.282
	C291.351,234.406,288.788,233.618,286.519,232.35z"/>
<path fill="#3BA895" d="M299.633,234.151l0.78,3.2c3.122-0.748,5.977-2.175,8.405-4.118l-2.118-2.518
	C304.654,232.339,302.252,233.523,299.633,234.151z"/>
<path fill="#3BA895" d="M279.404,207.66l-2.805-1.704c-1.608,2.876-2.573,6.155-2.706,9.646l3.287,0.284
	C277.268,212.913,278.053,210.115,279.404,207.66z"/>
<path fill="#3BA895" d="M305.432,201.21l1.704-2.807c-2.826-1.848-6.11-3.052-9.643-3.396l-0.283,3.269
	C300.228,198.577,303.027,199.618,305.432,201.21z"/>
<path fill="#3BA895" d="M310.545,226.573l2.805,1.703c1.752-2.645,2.932-5.697,3.371-8.981l-3.287-0.284
	C313.037,221.776,312.038,224.35,310.545,226.573z"/>
<path fill="#3BA895" d="M313.323,213.131l3.201-0.782c-0.647-3.366-2.083-6.453-4.105-9.065l-2.522,2.122
	C311.596,207.638,312.797,210.264,313.323,213.131z"/>
<path fill="#3BA895" d="M290.983,198.746l-0.782-3.205c-3.416,0.85-6.514,2.517-9.066,4.783l2.122,2.523
	C285.43,200.903,288.065,199.475,290.983,198.746z"/>
<path fill="#FF6A03" d="M267.886,216.803c0-2.517,0.369-4.947,1.047-7.247l-2.233,1.162c-5.435,2.827-11.297,4.26-17.425,4.26
	c-6.53,0-12.982-1.706-18.662-4.934l-1.508-0.857l-4.583,8.254l1.48,0.84c7.083,4.016,15.131,6.138,23.272,6.138
	c6.533,0,12.877-1.321,18.855-3.926l0.022-0.01C267.981,219.281,267.886,218.052,267.886,216.803z"/>
<path fill="#F4B227" d="M282.719,228.218l-4.098,3.597c1.668,1.816,3.627,3.361,5.804,4.56l2.686-4.724
	C285.462,230.751,283.989,229.581,282.719,228.218z"/>
<path fill="#F4B227" d="M295.391,233.756c-0.464,0-0.921-0.034-1.378-0.07l-0.45,5.424c0.604,0.047,1.212,0.079,1.828,0.079
	c1.89,0,3.723-0.233,5.477-0.667l-1.349-5.281C298.195,233.565,296.817,233.756,295.391,233.756z"/>
<path fill="#F4B227" d="M278.063,216.427c0-0.186,0.021-0.364,0.028-0.548l-5.438-0.382c-0.012,0.31-0.022,0.618-0.022,0.93
	c0,2.273,0.336,4.467,0.957,6.539l5.248-1.414C278.335,219.932,278.063,218.212,278.063,216.427z"/>
<path fill="#F4B227" d="M314.509,228.778l-4.641-2.837c-1.035,1.572-2.323,2.958-3.799,4.117l3.461,4.202
	C311.473,232.718,313.156,230.866,314.509,228.778z"/>
<path fill="#F4B227" d="M309.163,205.94l4.235-3.429c-1.581-2.044-3.502-3.81-5.679-5.215l-2.876,4.618
	C306.506,202.999,307.963,204.365,309.163,205.94z"/>
<path fill="#F4B227" d="M312.72,216.427c0,0.869-0.084,1.716-0.207,2.55l5.421,0.597c0.141-1.029,0.222-2.078,0.222-3.147
	c0-1.509-0.15-2.982-0.432-4.41l-5.311,1.207C312.607,214.263,312.72,215.331,312.72,216.427z"/>
<path fill="#F4B227" d="M283.866,203.513l-3.526-4.155c-1.928,1.702-3.563,3.724-4.827,5.983l4.679,2.765
	C281.144,206.369,282.398,204.823,283.866,203.513z"/>
<path fill="#F4B227" d="M295.391,199.098c0.607,0,1.205,0.032,1.795,0.093l0.541-5.408c-0.769-0.078-1.548-0.118-2.336-0.118
	c-1.863,0-3.676,0.229-5.411,0.652l1.261,5.302C292.574,199.292,293.959,199.098,295.391,199.098z"/>
<path fill="#3D8F8D" d="M358.183,175.49h-18.17c-0.027,7.393-0.952,14.744-2.754,21.89l17.677,4.2
	C357.062,193.057,358.154,184.295,358.183,175.49z"/>
<path fill="#3D8F8D" d="M268.551,263.641l3.922,17.748c8.393-1.826,16.534-4.651,24.249-8.384l-8.014-16.31
	C282.294,259.787,275.525,262.127,268.551,263.641z"/>
<path fill="#3D8F8D" d="M333.516,208.891c-2.65,6.607-6.11,12.937-10.351,18.849l14.935,10.364
	c5.075-7.118,9.21-14.737,12.374-22.686L333.516,208.891z"/>
<path fill="#3D8F8D" d="M306.583,245.347c-2.391,1.945-4.88,3.755-7.445,5.442l10.125,15.096c3.03-1.998,5.968-4.143,8.795-6.443
	c3.905-3.178,7.527-6.572,10.872-10.141l-13.415-12.268C312.76,239.957,309.787,242.739,306.583,245.347z"/>
<path fill="#3D8F8D" d="M141.182,175.49h18.171c0.027,7.393,0.951,14.744,2.753,21.89l-17.677,4.2
	C142.303,193.057,141.212,184.295,141.182,175.49z"/>
<path fill="#3D8F8D" d="M230.816,263.641l-3.923,17.748c-8.391-1.826-16.533-4.651-24.249-8.384l8.014-16.31
	C217.073,259.787,223.841,262.127,230.816,263.641z"/>
<path fill="#3D8F8D" d="M165.849,208.891c2.651,6.607,6.11,12.937,10.351,18.849l-14.935,10.364
	c-5.076-7.118-9.21-14.737-12.374-22.686L165.849,208.891z"/>
<path fill="#3D8F8D" d="M192.783,245.347c2.392,1.945,4.881,3.755,7.447,5.442l-10.125,15.096c-3.03-1.998-5.971-4.143-8.795-6.443
	c-3.906-3.178-7.527-6.572-10.874-10.141l13.416-12.268C186.605,239.957,189.58,242.739,192.783,245.347z"/>
</svg>
