<?xml version="1.0" encoding="utf-8"?>
<!-- Generator: Adobe Illustrator 14.0.0, SVG Export Plug-In . SVG Version: 6.00 Build 43363)  -->
<!DOCTYPE svg PUBLIC "-//W3C//DTD SVG 1.1//EN" "http://www.w3.org/Graphics/SVG/1.1/DTD/svg11.dtd">
<svg version="1.1" id="content" xmlns="http://www.w3.org/2000/svg" xmlns:xlink="http://www.w3.org/1999/xlink" x="0px" y="0px"
	 width="500px" height="500px" viewBox="0 0 500 500" enable-background="new 0 0 500 500" xml:space="preserve">
<rect id="position" x="0" y="0" display="none" fill="none" stroke="#000000" stroke-width="1.002" width="500" height="500"/>
<g>
	<polygon fill="#B5B264" points="337.422,194.081 357.765,175.49 297.871,175.49 278.32,195.784 287.805,221.201 275.887,247.347 
		249.558,271.304 223.229,247.347 211.311,221.201 220.797,195.784 201.246,175.49 141.363,175.49 161.707,194.081 116.708,216.767 
		116.708,480.5 382.542,480.5 382.542,216.828 	"/>
	<path fill="#D9D27A" d="M268.244,262.836c-14.774,4.742-18.55,6-18.55,6s-3.774-1.258-18.55-6
		C229.347,346.452,189.26,480.5,189.26,480.5h60.435h60.434C310.128,480.5,270.041,346.452,268.244,262.836z"/>
	<polyline fill="#C2BC6D" points="303.892,168.454 277.961,196.239 288.064,221.834 272.909,253.491 	"/>
	<polyline fill="#C2BC6D" points="195.236,168.454 221.168,196.239 211.064,221.834 226.219,253.491 	"/>
	<polygon fill="#E6E37F" points="357.765,175.49 335.53,175.49 311.245,197.683 382.542,233.626 382.542,216.828 337.422,194.081 	
		"/>
	<polygon fill="#E6E37F" points="141.363,175.49 163.598,175.49 187.884,197.683 116.587,233.626 116.587,216.828 161.707,194.081 	
		"/>
	<path fill="#C2BC6D" d="M382.542,267.621c-27.641-11.797-46.621-25.315-46.621-25.315l-28.251,13.356l74.872,113.583V267.621
		L382.542,267.621z"/>
	<path fill="#D9D27A" d="M317.572,251.396h-34.485l54.08,229.104h45.375V355.186C331.532,300.922,317.572,251.396,317.572,251.396z"
		/>
	<path fill="#C2BC6D" d="M292.599,254.446c0,0,29.233,147.055,78.233,226.055c-69,0-78.233,0-78.233,0l-32.1-212.409
		L292.599,254.446z"/>
	<path fill="#A3A15A" d="M250,268.618c0,0,48.879,20.169,100.497-17.224c-8.71-5.083-8.71-5.083-8.71-5.083L250,268.618z"/>
	<path fill="#C2BC6D" d="M250.469,268.527c0,0,59.036-38.494,110.301-35.532C336.711,260.94,283.227,274.633,250.469,268.527z"/>
	<path fill="#D9D27A" d="M252.077,268.09c0,0,46.827-1.031,87.358-26.563c-14.083-4.007-58.048,9.869-58.048,9.869L252.077,268.09z"
		/>
	<path fill="#27C1AE" d="M249.694,268.836c0,0,54.445-2.715,111.076-58.236C336.156,213.006,324.982,215.29,249.694,268.836z"/>
	<circle fill="#2BD4BF" cx="324.273" cy="232.831" r="1.87"/>
	<circle fill="#2BD4BF" cx="310.034" cy="243.794" r="1.488"/>
	<circle fill="#2BD4BF" cx="302.431" cy="243.597" r="2.289"/>
	<circle fill="#2DDEC8" cx="319.486" cy="238.682" r="1.039"/>
	<circle fill="#34FFE6" cx="313.115" cy="236.572" r="1.282"/>
	<circle fill="#34FFE6" cx="298.846" cy="250.29" r="1.282"/>
	<path fill="#34FFE6" d="M336.942,226.889c-0.008-0.349-0.301-0.632-0.655-0.632c-0.354,0-0.636,0.283-0.628,0.632
		s0.302,0.632,0.656,0.632C336.669,227.521,336.95,227.238,336.942,226.889z"/>
	<circle fill="#34FFE6" cx="327.426" cy="225.265" r="1.282"/>
	<circle fill="#34FFE6" cx="288.644" cy="252.308" r="1.282"/>
	<path fill="#D1CA75" d="M249.694,268.836c0,0,39.011-55.396,100.803-76.305C339.105,218.747,270.915,262.126,249.694,268.836z"/>
	<path fill="#E6E37F" d="M249.694,268.836c0,0,33.729-45.72,67.878-51.183C301.36,239.699,256.824,267.244,249.694,268.836z"/>
	<path fill="#C2BC6D" d="M116.846,267.621c27.641-11.797,46.623-25.315,46.623-25.315l28.248,13.356l-74.871,113.583V267.621z"/>
	<path fill="#D9D27A" d="M181.816,251.396h34.484L162.221,480.5h-45.375V355.186C167.856,300.922,181.816,251.396,181.816,251.396z"
		/>
	<path fill="#C2BC6D" d="M206.789,254.446c0,0-29.233,147.055-78.233,226.055c69,0,78.233,0,78.233,0l32.1-212.409L206.789,254.446z
		"/>
	<path fill="#A3A15A" d="M249.388,268.618c0,0-48.88,20.169-100.497-17.224c8.71-5.083,8.71-5.083,8.71-5.083L249.388,268.618z"/>
	<path fill="#C2BC6D" d="M248.919,268.527c0,0-59.037-38.494-110.301-35.532C162.677,260.94,216.161,274.633,248.919,268.527z"/>
	<path fill="#D9D27A" d="M247.311,268.09c0,0-46.827-1.031-87.358-26.563c14.083-4.007,58.048,9.869,58.048,9.869L247.311,268.09z"
		/>
	<path fill="#27C1AE" d="M249.694,268.836c0,0-54.445-2.715-111.076-58.236C163.232,213.006,174.406,215.29,249.694,268.836z"/>
	<path fill="#D1CA75" d="M249.694,268.836c0,0-39.011-55.396-100.803-76.305C160.283,218.747,228.473,262.126,249.694,268.836z"/>
	<path fill="#E6E37F" d="M249.694,268.836c0,0-33.729-45.72-67.878-51.183C198.028,239.699,242.564,267.244,249.694,268.836z"/>
	<circle fill="#D6D376" cx="315.041" cy="184.91" r="1.803"/>
	<circle fill="#EDEA83" cx="297.539" cy="204.842" r="1.689"/>
	<circle fill="#EDEA83" cx="306.606" cy="180.932" r="1.689"/>
	<circle fill="#EDEA83" cx="292.602" cy="218.316" r="1.306"/>
	<circle fill="#CCC970" cx="300.617" cy="196.158" r="1.803"/>
	<circle fill="#CCC970" cx="303.478" cy="207.481" r="1.803"/>
	<circle fill="#CCC970" cx="311.518" cy="191.975" r="1.803"/>
	<circle fill="#D6D376" cx="305.144" cy="189.176" r="2.659"/>
	<circle fill="#C2C06B" cx="313.16" cy="203.798" r="2.659"/>
	<circle fill="#BFBD69" cx="305.77" cy="201.395" r="1.87"/>
	<circle fill="#BFBD69" cx="313.563" cy="178.709" r="1.316"/>
	<circle fill="#BFBD69" cx="322.768" cy="180.391" r="1.87"/>
	<circle fill="#C4C26C" cx="292.47" cy="210.786" r="1.87"/>
	<circle fill="#BFBD69" cx="298.319" cy="212.064" r="1.303"/>
	<circle fill="#D6D376" cx="184.088" cy="184.91" r="1.803"/>
	<circle fill="#EDEA83" cx="201.59" cy="204.842" r="1.689"/>
	<circle fill="#EDEA83" cx="192.522" cy="180.932" r="1.689"/>
	<circle fill="#EDEA83" cx="206.526" cy="218.316" r="1.306"/>
	<circle fill="#CCC970" cx="198.511" cy="196.158" r="1.803"/>
	<circle fill="#CCC970" cx="195.65" cy="207.481" r="1.803"/>
	<circle fill="#CCC970" cx="187.61" cy="191.975" r="1.803"/>
	<circle fill="#D6D376" cx="193.984" cy="189.176" r="2.659"/>
	<circle fill="#C2C06B" cx="185.969" cy="203.798" r="2.659"/>
	<circle fill="#BFBD69" cx="193.358" cy="201.395" r="1.87"/>
	<circle fill="#BFBD69" cx="185.565" cy="178.709" r="1.316"/>
	<circle fill="#BFBD69" cx="176.36" cy="180.391" r="1.87"/>
	<circle fill="#C4C26C" cx="206.658" cy="210.786" r="1.87"/>
	<circle fill="#BFBD69" cx="200.809" cy="212.064" r="1.303"/>
	<circle fill="#2BD4BF" cx="174.855" cy="232.831" r="1.87"/>
	<circle fill="#2BD4BF" cx="189.094" cy="243.794" r="1.488"/>
	<circle fill="#2BD4BF" cx="196.698" cy="243.597" r="2.289"/>
	<circle fill="#2DDEC8" cx="179.643" cy="238.682" r="1.039"/>
	<circle fill="#34FFE6" cx="186.013" cy="236.572" r="1.282"/>
	<circle fill="#34FFE6" cx="200.282" cy="250.29" r="1.282"/>
	<path fill="#34FFE6" d="M162.186,226.889c0.008-0.349,0.301-0.632,0.654-0.632c0.354,0,0.637,0.283,0.629,0.632
		c-0.009,0.349-0.303,0.632-0.656,0.632C162.459,227.521,162.178,227.238,162.186,226.889z"/>
	<circle fill="#34FFE6" cx="171.703" cy="225.265" r="1.282"/>
	<circle fill="#34FFE6" cx="210.484" cy="252.308" r="1.282"/>
</g>
</svg>
