<?xml version="1.0" encoding="utf-8"?>
<!-- Generator: Adobe Illustrator 14.0.0, SVG Export Plug-In . SVG Version: 6.00 Build 43363)  -->
<!DOCTYPE svg PUBLIC "-//W3C//DTD SVG 1.1//EN" "http://www.w3.org/Graphics/SVG/1.1/DTD/svg11.dtd">
<svg version="1.1" id="content" xmlns="http://www.w3.org/2000/svg" xmlns:xlink="http://www.w3.org/1999/xlink" x="0px" y="0px"
	 width="500px" height="500px" viewBox="0 0 500 500" enable-background="new 0 0 500 500" xml:space="preserve">
<rect id="position" x="0" y="0" display="none" fill="none" stroke="#000000" stroke-width="1.002" width="500" height="500"/>
<g>
	<rect x="197.963" y="175.534" fill="#C8E0D9" width="99.928" height="72.223"/>
	<polygon fill="#BA49BA" points="254.708,195.988 250.625,194.573 246.542,195.988 231.58,228.503 250.554,247.757 269.67,228.503 	
		"/>
	<polygon fill="#963B96" points="238.363,239.702 252.775,252.312 256.325,248.722 268.017,224.793 259.925,207.326 	"/>
	<path fill="#963B96" d="M240.659,221.165l14.908-23.425l-1.04-2.12l-3.902-1.046l-4.083,1.414l-9.145,19.872
		C237.969,215.287,240.659,221.165,240.659,221.165z"/>
	<path fill="#BA49BA" d="M250.625,175.534h-15.276l0.59,14.917c0,0,4.516,10.603,14.687,10.603s14.687-10.603,14.687-10.603
		l0.59-14.917H250.625z"/>
	<polygon opacity="0.3" fill="#333837" points="298.752,187.522 297.89,175.534 250.564,175.534 203.238,175.534 202.377,187.522 
		234.914,203.661 250.564,181.464 266.215,203.661 	"/>
	<polygon fill="#E1FCF4" points="250.558,175.534 266.215,198.108 298.752,181.968 297.89,175.534 	"/>
	<polygon fill="#E1FCF4" points="250.558,175.534 234.902,198.108 202.365,181.968 203.226,175.534 	"/>
	<path fill="#EBE40E" d="M117.708,175.534V480.5h265.834V175.534H117.708z M250.558,250.021l-36.715-74.487h36.715h36.715
		L250.558,250.021z"/>
	<path fill="#C7C000" d="M297.738,200.615c-3.235-9.555-6.934-19.572-6.934-19.572l-6.49,0.178l-33.76,63.554v-0.178l-33.846-63.554
		h-6.396c0,0-3.698,10.018-6.934,19.572s2.311,12.329,2.311,12.329l19.65,11.559c0,0-14.333,1.85-14.333,5.163
		s2.851,5.548,2.851,5.548l36.697,38.801l36.705-38.801c0,0,2.851-2.234,2.851-5.548s-14.333-5.163-14.333-5.163l19.65-11.559
		C295.427,212.944,300.973,210.169,297.738,200.615z"/>
	<path fill="#D6CF00" d="M297.738,195.105c-3.235-9.555-6.934-19.571-6.934-19.571h-6.396l-33.854,63.553l-33.846-63.553h-6.396
		c0,0-3.698,10.017-6.934,19.571s2.311,12.329,2.311,12.329l19.65,11.559c0,0-14.333,1.85-14.333,5.163s2.851,5.548,2.851,5.548
		l36.701,38.8l36.701-38.8c0,0,2.851-2.234,2.851-5.548s-14.333-5.163-14.333-5.163l19.65-11.559
		C295.427,207.434,300.973,204.66,297.738,195.105z"/>
	<circle fill="#C7C000" cx="260.481" cy="291.822" r="4.104"/>
	<circle fill="#C7C000" cx="260.481" cy="321.699" r="4.104"/>
	<circle fill="#C7C000" cx="260.481" cy="351.578" r="4.104"/>
	<circle fill="#C7C000" cx="260.481" cy="381.457" r="4.104"/>
	<circle fill="#C7C000" cx="260.481" cy="411.335" r="4.104"/>
	<path fill="#FAF30F" d="M337.051,263.457c0,1.301-1.056,2.357-2.357,2.357h-31.038c-1.302,0-2.357-1.057-2.357-2.357v-25.581
		c0-1.302,1.056-2.357,2.357-2.357h31.038c1.302,0,2.357,1.056,2.357,2.357V263.457z"/>
	<line fill="none" stroke="#C7C000" stroke-width="1.5" x1="250.554" y1="269.851" x2="250.554" y2="480.5"/>
</g>
</svg>
