<?xml version="1.0" encoding="utf-8"?>
<!-- Generator: Adobe Illustrator 14.0.0, SVG Export Plug-In . SVG Version: 6.00 Build 43363)  -->
<!DOCTYPE svg PUBLIC "-//W3C//DTD SVG 1.1//EN" "http://www.w3.org/Graphics/SVG/1.1/DTD/svg11.dtd">
<svg version="1.1" id="content" xmlns="http://www.w3.org/2000/svg" xmlns:xlink="http://www.w3.org/1999/xlink" x="0px" y="0px"
	 width="500px" height="500px" viewBox="0 0 500 500" enable-background="new 0 0 500 500" xml:space="preserve">
<rect id="position" x="0" y="0" display="none" fill="none" stroke="#000000" stroke-width="1.002" width="500" height="500"/>
<g id="bounds" display="none">
	
		<rect x="-0.104" y="80.372" display="inline" fill="none" stroke="#EAEAEA" stroke-miterlimit="10" width="499.502" height="499.494"/>
</g>
<path fill="#EBE40E" d="M145.875,174.617l-20.212,14.352L69.975,259.97v110.977h61.256v-92.878l14.644-5.396V174.617z"/>
<path fill="#EBE40E" d="M353.242,272.672l14.644,5.396v92.878h61.256V259.97l-55.688-71.001l-20.212-14.352V272.672z"/>
<g>
	<rect x="197.36" y="174.534" fill="#C8E0D9" width="99.928" height="72.222"/>
	<polygon fill="#BA49BA" points="254.105,194.988 250.022,193.573 245.939,194.988 230.977,227.502 249.952,246.756 
		269.067,227.502 	"/>
	<polygon fill="#963B96" points="237.76,238.701 252.173,251.312 255.722,247.723 267.415,223.793 259.322,206.326 	"/>
	<path fill="#963B96" d="M240.056,220.165l14.908-23.425l-1.04-2.121l-3.902-1.046l-4.083,1.414l-9.145,19.872
		C237.366,214.287,240.056,220.165,240.056,220.165z"/>
	<path fill="#BA49BA" d="M250.022,174.534h-15.276l0.59,14.917c0,0,4.516,10.603,14.687,10.603s14.687-10.603,14.687-10.603
		l0.59-14.917H250.022z"/>
	<polygon opacity="0.3" fill="#333837" points="298.149,186.522 297.288,174.534 249.962,174.534 202.635,174.534 201.774,186.522 
		234.311,202.661 249.962,180.464 265.612,202.661 	"/>
	<polygon fill="#E1FCF4" points="249.956,174.534 265.612,197.108 298.149,180.968 297.288,174.534 	"/>
	<polygon fill="#E1FCF4" points="249.956,174.534 234.3,197.108 201.762,180.968 202.624,174.534 	"/>
	<path fill="#EBE40E" d="M145.875,174.534V479.5h207.367V174.534H145.875z M249.956,249.022l-36.715-74.488h36.715h36.715
		L249.956,249.022z"/>
	<path fill="#C7C000" d="M297.135,199.615c-3.235-9.555-6.934-19.572-6.934-19.572l-6.49,0.178l-33.76,63.554v-0.178l-33.846-63.554
		h-6.396c0,0-3.698,10.018-6.934,19.572s2.311,12.329,2.311,12.329l19.65,11.559c0,0-14.333,1.85-14.333,5.163
		s2.851,5.548,2.851,5.548l36.697,38.801l36.705-38.801c0,0,2.851-2.234,2.851-5.548s-14.333-5.163-14.333-5.163l19.65-11.559
		C294.825,211.944,300.371,209.169,297.135,199.615z"/>
	<path fill="#D6CF00" d="M297.135,194.106c-3.235-9.555-6.934-19.572-6.934-19.572h-6.396l-33.854,63.553l-33.846-63.553h-6.396
		c0,0-3.698,10.017-6.934,19.572c-3.235,9.555,2.311,12.328,2.311,12.328l19.65,11.559c0,0-14.333,1.85-14.333,5.164
		c0,3.313,2.851,5.547,2.851,5.547l36.701,38.801l36.701-38.801c0,0,2.851-2.234,2.851-5.547c0-3.314-14.333-5.164-14.333-5.164
		l19.65-11.559C294.825,206.434,300.371,203.66,297.135,194.106z"/>
	<circle fill="#C7C000" cx="259.879" cy="290.822" r="4.104"/>
	<circle fill="#C7C000" cx="259.879" cy="320.699" r="4.104"/>
	<circle fill="#C7C000" cx="259.879" cy="350.578" r="4.104"/>
	<circle fill="#C7C000" cx="82.695" cy="354.683" r="4.104"/>
	<circle fill="#C7C000" cx="82.695" cy="339.546" r="4.104"/>
	<circle fill="#C7C000" cx="417.209" cy="354.683" r="4.104"/>
	<circle fill="#C7C000" cx="417.209" cy="339.546" r="4.104"/>
	<circle fill="#C7C000" cx="259.879" cy="380.457" r="4.104"/>
	<circle fill="#C7C000" cx="259.879" cy="410.335" r="4.104"/>
	<path fill="#FAF30F" d="M336.448,262.457c0,1.301-1.056,2.357-2.357,2.357h-31.038c-1.302,0-2.357-1.057-2.357-2.357v-25.581
		c0-1.302,1.056-2.357,2.357-2.357h31.038c1.302,0,2.357,1.056,2.357,2.357V262.457z"/>
	<line fill="none" stroke="#C7C000" stroke-width="1.5" x1="249.952" y1="268.851" x2="249.952" y2="479.5"/>
</g>
</svg>
