<?xml version="1.0" encoding="utf-8"?>
<!-- Generator: Adobe Illustrator 14.0.0, SVG Export Plug-In . SVG Version: 6.00 Build 43363)  -->
<!DOCTYPE svg PUBLIC "-//W3C//DTD SVG 1.1//EN" "http://www.w3.org/Graphics/SVG/1.1/DTD/svg11.dtd">
<svg version="1.1" id="content" xmlns="http://www.w3.org/2000/svg" xmlns:xlink="http://www.w3.org/1999/xlink" x="0px" y="0px"
	 width="500px" height="500px" viewBox="0 0 500 500" enable-background="new 0 0 500 500" xml:space="preserve">
<rect id="position" x="0" y="0" display="none" fill="none" stroke="#000000" stroke-width="1.002" width="500" height="500"/>
<g>
	<path fill="#8F57BA" d="M120.686,357.125c-0.392,3.098-0.609,6.211-0.609,9.301c6.573-20.927,35.598-43.139,51.436-53.996
		l-34.943-0.067c-1.641,2.789-3.544,6.354-5.461,10.477l-0.849,1.837l2.504,5.954l-8.562,22.804l-3.307,2.056L120.686,357.125z"/>
	<path fill="#8F57BA" d="M379.387,357.125c0.392,3.098,0.609,6.211,0.609,9.301c-6.573-20.927-35.598-43.139-51.436-53.996
		l34.943-0.067c1.641,2.789,3.544,6.354,5.461,10.477l0.849,1.837l-2.504,5.954l8.562,22.804l3.307,2.056L379.387,357.125z"/>
	<path fill="#B16CE8" d="M148.793,312.43l-7.239,7.387c0,0-28.072,28.725-13.899,76.421c18.261-52.876,50.677-81.493,50.677-81.493
		l-2.088-2.314H148.793z"/>
	<path fill="#8954B3" d="M242.912,356.967l-21.158-44.537h-9.277c-8.943,26.682-27.327,95.356,4.021,135.57
		C214.045,397.85,242.912,356.967,242.912,356.967z"/>
	<path fill="#8954B3" d="M277.219,312.43l-21.158,44.537c0,0,28.867,40.883,26.414,91.033
		c31.349-40.214,12.965-108.889,4.021-135.57H277.219z"/>
	<path fill="#814FA8" d="M208.233,332.319c0,0-38.409,43.336-32.92,109.839c-23.129-27.8-21.222-54.783-22.584-61.87
		c10.902-40.61,29.161-70.684,29.161-70.684L208.233,332.319z"/>
	<path fill="#8F57BA" d="M163.903,316.924c0,0-39.521,47.425-21.26,105.206c13.083-52.876,46.323-96.212,46.323-96.212
		l-20.659-10.246L163.903,316.924z"/>
	<path fill="#9A5FC9" d="M191.005,333.177c0,0-27.123,62.515-2.038,99.037c8.732-61.052,46.89-92.396,46.89-92.396L191.005,333.177z
		"/>
	<path fill="#9A5FC9" d="M265.566,393.405c0,0,19.749,9.346,24.733,37.076c11.907-37.953-13.695-86.948-13.695-86.948
		L265.566,393.405z"/>
	<path fill="#8954B3" d="M249.486,443.557c0,0-31.66-50.738-28.504-125.941c25.426,0,28.504,0,28.504,0s3.078,0,28.504,0
		C281.146,392.819,249.486,443.557,249.486,443.557z"/>
	<path fill="#814FA8" d="M290.739,332.319c0,0,38.409,43.336,32.92,109.839c23.129-27.8,21.222-54.783,22.584-61.87
		c-10.902-40.61-29.161-66.35-29.161-66.35L290.739,332.319z"/>
	<path fill="#8F57BA" d="M335.069,316.924c0,0,39.521,47.425,21.26,105.206c-13.083-52.876-46.323-96.212-46.323-96.212
		l20.659-8.963L335.069,316.924z"/>
	<path fill="#A162D1" d="M307.968,333.177c0,0,27.123,62.515,2.038,99.037c-8.732-61.052-46.89-92.396-46.89-92.396L307.968,333.177
		z"/>
	<path fill="#9A5FC9" d="M249.486,404.928c-22.171-32.33-23.417-87.313-23.417-87.313h23.417h23.417
		C272.903,317.615,271.657,372.598,249.486,404.928z"/>
	<path fill="#8F57BA" d="M277.671,349.372c0,0,43.361,18.08,56.042,43.342c-6.797-37.872-28.837-60.008-28.837-60.008
		L277.671,349.372z"/>
	<path fill="#A162D1" d="M218.528,351.647c0,0-43.361,18.08-56.042,43.342c6.797-37.872,28.837-60.008,28.837-60.008
		L218.528,351.647z"/>
	<path fill="#B16CE8" d="M351.281,312.43l7.239,7.387c0,0,28.072,28.725,13.899,76.421c-18.261-52.876-50.677-81.493-50.677-81.493
		l2.088-2.314H351.281z"/>
	<path opacity="0.2" fill="#1E2021" d="M375.228,355.866c-0.339-1.827-0.476-4.448-0.476-4.448l-10.425-3.172v-7.584H250.037
		H135.746v7.584l-10.425,3.172c0,0-0.137,2.621-0.476,4.448s-0.644,4.447-0.644,4.447l3.958-4.824l7.586-4.071l15.037,10.338
		l16.264-11.662l16.82,11.662l16.264-11.662l16.821,11.662l16.265-11.662l16.82,11.662l16.82-11.662l16.265,11.662l16.821-11.662
		l16.264,11.662l16.82-11.662l16.264,11.662l15.037-10.338l7.586,4.071l3.958,4.824
		C375.872,360.314,375.567,357.694,375.228,355.866z"/>
	<polygon fill="#8F57BA" points="364.328,338.348 250.037,338.348 135.804,338.348 135.804,349.143 150.782,359.44 167.047,347.778 
		183.867,359.44 200.131,347.778 216.952,359.44 233.216,347.778 250.037,359.44 266.857,347.778 283.122,359.44 299.943,347.778 
		316.207,359.44 333.027,347.778 349.291,359.44 364.328,349.143 	"/>
	<polygon fill="#A162D1" points="364.328,331.35 362.774,329.131 250.037,329.131 140.41,329.131 135.804,331.35 135.804,339.926 
		150.782,350.223 167.047,338.561 183.867,350.223 200.131,338.561 216.952,350.223 233.216,338.561 250.037,350.223 
		266.857,338.561 283.122,350.223 299.943,338.561 316.207,350.223 333.027,338.561 349.291,350.223 364.328,339.926 	"/>
	<polygon fill="#FFD606" points="364.328,323.09 349.906,330.83 333.123,320.557 316.278,320.557 300.068,320.557 283.685,320.557 
		266.964,320.557 250.581,320.557 250.037,319.612 139.089,322.073 135.804,323.09 135.804,331.35 150.782,341.649 167.047,329.987 
		183.867,341.649 200.131,329.987 216.952,341.649 233.216,329.987 250.037,341.649 266.857,329.987 283.122,341.649 
		299.943,329.987 316.207,341.649 333.027,329.987 349.291,341.649 364.328,331.35 	"/>
	<polygon fill="#8F57BA" points="364.328,321.199 363.47,312.363 250.037,312.295 136.569,312.363 135.804,323.09 150.782,333.387 
		167.047,321.725 183.867,333.387 200.131,321.725 216.952,333.387 233.216,321.725 250.037,333.387 266.857,321.725 
		283.122,333.387 299.943,321.725 316.207,333.387 333.027,321.725 349.291,333.387 364.328,323.09 	"/>
	<path fill="#FFD606" d="M129.876,324.785c-0.757,0.866-3.242,6.663-3.892,9.5l9.82-2.936l2.02-5.208l-2.02-3.052L129.876,324.785z"
		/>
	<path opacity="0.3" fill="#1E2021" d="M361.505,306.461h-0.255h-4.166h-0.255c-1.104,0-2,0.895-2,2v4.676c0,1.104,0.896,2,2,2
		h4.676c1.104,0,2-0.896,2-2v-4.676C363.505,307.356,362.609,306.461,361.505,306.461z"/>
	<path opacity="0.3" fill="#1E2021" d="M351.584,306.461h-0.255h-4.166h-0.255c-1.104,0-2,0.895-2,2v4.676c0,1.104,0.896,2,2,2
		h4.676c1.104,0,2-0.896,2-2v-4.676C353.584,307.356,352.688,306.461,351.584,306.461z"/>
	<path opacity="0.3" fill="#1E2021" d="M341.663,306.461h-0.255h-4.166h-0.255c-1.104,0-2,0.895-2,2v4.676c0,1.104,0.896,2,2,2
		h4.676c1.104,0,2-0.896,2-2v-4.676C343.663,307.356,342.767,306.461,341.663,306.461z"/>
	<path opacity="0.3" fill="#1E2021" d="M311.9,306.461h-0.255h-4.166h-0.255c-1.104,0-2,0.895-2,2v4.676c0,1.104,0.896,2,2,2h4.676
		c1.104,0,2-0.896,2-2v-4.676C313.9,307.356,313.005,306.461,311.9,306.461z"/>
	<path opacity="0.3" fill="#1E2021" d="M301.979,306.461h-0.255h-4.166h-0.255c-1.104,0-2,0.895-2,2v4.676c0,1.104,0.896,2,2,2
		h4.676c1.104,0,2-0.896,2-2v-4.676C303.979,307.356,303.084,306.461,301.979,306.461z"/>
	<path opacity="0.3" fill="#1E2021" d="M292.058,306.461h-0.255h-4.166h-0.255c-1.104,0-2,0.895-2,2v4.676c0,1.104,0.896,2,2,2
		h4.676c1.104,0,2-0.896,2-2v-4.676C294.058,307.356,293.163,306.461,292.058,306.461z"/>
	<path opacity="0.3" fill="#1E2021" d="M282.137,306.461h-0.255h-4.166h-0.255c-1.104,0-2,0.895-2,2v4.676c0,1.104,0.896,2,2,2
		h4.676c1.104,0,2-0.896,2-2v-4.676C284.137,307.356,283.242,306.461,282.137,306.461z"/>
	<path opacity="0.3" fill="#1E2021" d="M222.612,306.461h-0.255h-4.166h-0.255c-1.104,0-2,0.895-2,2v4.676c0,1.104,0.896,2,2,2
		h4.676c1.104,0,2-0.896,2-2v-4.676C224.612,307.356,223.717,306.461,222.612,306.461z"/>
	<path opacity="0.3" fill="#1E2021" d="M212.691,306.461h-0.255h-4.166h-0.255c-1.104,0-2,0.895-2,2v4.676c0,1.104,0.896,2,2,2
		h4.676c1.104,0,2-0.896,2-2v-4.676C214.691,307.356,213.796,306.461,212.691,306.461z"/>
	<path opacity="0.3" fill="#1E2021" d="M202.77,306.461h-0.255h-4.166h-0.255c-1.104,0-2,0.895-2,2v4.676c0,1.104,0.896,2,2,2h4.676
		c1.104,0,2-0.896,2-2v-4.676C204.77,307.356,203.875,306.461,202.77,306.461z"/>
	<path opacity="0.3" fill="#1E2021" d="M192.849,306.461h-0.255h-4.166h-0.255c-1.104,0-2,0.895-2,2v4.676c0,1.104,0.896,2,2,2
		h4.676c1.104,0,2-0.896,2-2v-4.676C194.849,307.356,193.954,306.461,192.849,306.461z"/>
	<path opacity="0.3" fill="#1E2021" d="M182.928,306.461h-0.255h-4.166h-0.255c-1.104,0-2,0.895-2,2v4.676c0,1.104,0.896,2,2,2
		h4.676c1.104,0,2-0.896,2-2v-4.676C184.928,307.356,184.033,306.461,182.928,306.461z"/>
	<path opacity="0.3" fill="#1E2021" d="M173.008,306.461h-0.255h-4.166h-0.255c-1.104,0-2,0.895-2,2v4.676c0,1.104,0.896,2,2,2
		h4.676c1.104,0,2-0.896,2-2v-4.676C175.008,307.356,174.112,306.461,173.008,306.461z"/>
	<path opacity="0.3" fill="#1E2021" d="M163.087,306.461h-0.255h-4.166h-0.255c-1.104,0-2,0.895-2,2v4.676c0,1.104,0.896,2,2,2
		h4.676c1.104,0,2-0.896,2-2v-4.676C165.087,307.356,164.191,306.461,163.087,306.461z"/>
	<path opacity="0.3" fill="#1E2021" d="M153.166,306.461h-0.255h-4.166h-0.255c-1.104,0-2,0.895-2,2v4.676c0,1.104,0.896,2,2,2
		h4.676c1.104,0,2-0.896,2-2v-4.676C155.166,307.356,154.27,306.461,153.166,306.461z"/>
	<path opacity="0.3" fill="#1E2021" d="M143.245,306.461h-0.255h-4.166h-0.255c-1.104,0-2,0.895-2,2v4.676c0,1.104,0.896,2,2,2
		h4.676c1.104,0,2-0.896,2-2v-4.676C145.245,307.356,144.349,306.461,143.245,306.461z"/>
	<path opacity="0.3" fill="#1E2021" d="M321.821,306.461h-0.255H317.4h-0.255c-1.104,0-2,0.895-2,2v4.676c0,1.104,0.896,2,2,2h4.676
		c1.104,0,2-0.896,2-2v-4.676C323.821,307.356,322.926,306.461,321.821,306.461z"/>
	<path opacity="0.3" fill="#1E2021" d="M331.742,306.461h-0.255h-4.166h-0.255c-1.104,0-2,0.895-2,2v4.676c0,1.104,0.896,2,2,2
		h4.676c1.104,0,2-0.896,2-2v-4.676C333.742,307.356,332.846,306.461,331.742,306.461z"/>
	<path fill="#DED962" d="M363.505,306.897c0-1.105-0.896-2-2-2h-4.676c-1.104,0-2,0.895-2,2v4.676c0,1.104,0.896,2,2,2h4.676
		c1.104,0,2-0.896,2-2V306.897z"/>
	<path fill="#F2ED6B" d="M363.032,306.257c0-0.751-0.798-1.36-1.782-1.36h-4.166c-0.984,0-1.782,0.609-1.782,1.36v3.181
		c0,0.752,0.798,1.361,1.782,1.361h4.166c0.984,0,1.782-0.609,1.782-1.361V306.257z"/>
	<path fill="#DED962" d="M353.584,306.897c0-1.105-0.896-2-2-2h-4.676c-1.104,0-2,0.895-2,2v4.676c0,1.104,0.896,2,2,2h4.676
		c1.104,0,2-0.896,2-2V306.897z"/>
	<path fill="#F2ED6B" d="M353.111,306.257c0-0.751-0.798-1.36-1.782-1.36h-4.166c-0.984,0-1.782,0.609-1.782,1.36v3.181
		c0,0.752,0.798,1.361,1.782,1.361h4.166c0.984,0,1.782-0.609,1.782-1.361V306.257z"/>
	<path fill="#DED962" d="M343.663,306.897c0-1.105-0.896-2-2-2h-4.676c-1.104,0-2,0.895-2,2v4.676c0,1.104,0.896,2,2,2h4.676
		c1.104,0,2-0.896,2-2V306.897z"/>
	<path fill="#F2ED6B" d="M343.19,306.257c0-0.751-0.798-1.36-1.782-1.36h-4.166c-0.984,0-1.782,0.609-1.782,1.36v3.181
		c0,0.752,0.798,1.361,1.782,1.361h4.166c0.984,0,1.782-0.609,1.782-1.361V306.257z"/>
	<path fill="#DED962" d="M333.742,306.897c0-1.105-0.896-2-2-2h-4.676c-1.104,0-2,0.895-2,2v4.676c0,1.104,0.896,2,2,2h4.676
		c1.104,0,2-0.896,2-2V306.897z"/>
	<path fill="#F2ED6B" d="M333.269,306.257c0-0.751-0.798-1.36-1.782-1.36h-4.166c-0.984,0-1.782,0.609-1.782,1.36v3.181
		c0,0.752,0.798,1.361,1.782,1.361h4.166c0.984,0,1.782-0.609,1.782-1.361V306.257z"/>
	<path fill="#DED962" d="M323.821,306.897c0-1.105-0.896-2-2-2h-4.676c-1.104,0-2,0.895-2,2v4.676c0,1.104,0.896,2,2,2h4.676
		c1.104,0,2-0.896,2-2V306.897z"/>
	<path fill="#F2ED6B" d="M323.348,306.257c0-0.751-0.798-1.36-1.782-1.36H317.4c-0.984,0-1.782,0.609-1.782,1.36v3.181
		c0,0.752,0.798,1.361,1.782,1.361h4.166c0.984,0,1.782-0.609,1.782-1.361V306.257z"/>
	<path fill="#DED962" d="M313.9,306.897c0-1.105-0.896-2-2-2h-4.676c-1.104,0-2,0.895-2,2v4.676c0,1.104,0.896,2,2,2h4.676
		c1.104,0,2-0.896,2-2V306.897z"/>
	<path fill="#F2ED6B" d="M313.427,306.257c0-0.751-0.798-1.36-1.782-1.36h-4.166c-0.984,0-1.782,0.609-1.782,1.36v3.181
		c0,0.752,0.798,1.361,1.782,1.361h4.166c0.984,0,1.782-0.609,1.782-1.361V306.257z"/>
	<path fill="#DED962" d="M303.979,306.897c0-1.105-0.896-2-2-2h-4.676c-1.104,0-2,0.895-2,2v4.676c0,1.104,0.896,2,2,2h4.676
		c1.104,0,2-0.896,2-2V306.897z"/>
	<path fill="#F2ED6B" d="M303.507,306.257c0-0.751-0.798-1.36-1.782-1.36h-4.166c-0.984,0-1.782,0.609-1.782,1.36v3.181
		c0,0.752,0.798,1.361,1.782,1.361h4.166c0.984,0,1.782-0.609,1.782-1.361V306.257z"/>
	<path fill="#DED962" d="M294.058,306.897c0-1.105-0.896-2-2-2h-4.676c-1.104,0-2,0.895-2,2v4.676c0,1.104,0.896,2,2,2h4.676
		c1.104,0,2-0.896,2-2V306.897z"/>
	<path fill="#F2ED6B" d="M293.586,306.257c0-0.751-0.798-1.36-1.782-1.36h-4.166c-0.984,0-1.782,0.609-1.782,1.36v3.181
		c0,0.752,0.798,1.361,1.782,1.361h4.166c0.984,0,1.782-0.609,1.782-1.361V306.257z"/>
	<path fill="#DED962" d="M284.137,306.897c0-1.105-0.896-2-2-2h-4.676c-1.104,0-2,0.895-2,2v4.676c0,1.104,0.896,2,2,2h4.676
		c1.104,0,2-0.896,2-2V306.897z"/>
	<path fill="#F2ED6B" d="M283.665,306.257c0-0.751-0.798-1.36-1.782-1.36h-4.166c-0.984,0-1.782,0.609-1.782,1.36v3.181
		c0,0.752,0.798,1.361,1.782,1.361h4.166c0.984,0,1.782-0.609,1.782-1.361V306.257z"/>
	<path fill="#DED962" d="M224.612,306.897c0-1.105-0.896-2-2-2h-4.676c-1.104,0-2,0.895-2,2v4.676c0,1.104,0.896,2,2,2h4.676
		c1.104,0,2-0.896,2-2V306.897z"/>
	<path fill="#F2ED6B" d="M224.139,306.257c0-0.751-0.798-1.36-1.782-1.36h-4.166c-0.984,0-1.782,0.609-1.782,1.36v3.181
		c0,0.752,0.798,1.361,1.782,1.361h4.166c0.984,0,1.782-0.609,1.782-1.361V306.257z"/>
	<path fill="#DED962" d="M214.691,306.897c0-1.105-0.896-2-2-2h-4.676c-1.104,0-2,0.895-2,2v4.676c0,1.104,0.896,2,2,2h4.676
		c1.104,0,2-0.896,2-2V306.897z"/>
	<path fill="#F2ED6B" d="M214.219,306.257c0-0.751-0.798-1.36-1.782-1.36h-4.166c-0.984,0-1.782,0.609-1.782,1.36v3.181
		c0,0.752,0.798,1.361,1.782,1.361h4.166c0.984,0,1.782-0.609,1.782-1.361V306.257z"/>
	<path fill="#DED962" d="M204.77,306.897c0-1.105-0.896-2-2-2h-4.676c-1.104,0-2,0.895-2,2v4.676c0,1.104,0.896,2,2,2h4.676
		c1.104,0,2-0.896,2-2V306.897z"/>
	<path fill="#F2ED6B" d="M204.298,306.257c0-0.751-0.798-1.36-1.782-1.36h-4.166c-0.984,0-1.782,0.609-1.782,1.36v3.181
		c0,0.752,0.798,1.361,1.782,1.361h4.166c0.984,0,1.782-0.609,1.782-1.361V306.257z"/>
	<path fill="#DED962" d="M194.849,306.897c0-1.105-0.896-2-2-2h-4.676c-1.104,0-2,0.895-2,2v4.676c0,1.104,0.896,2,2,2h4.676
		c1.104,0,2-0.896,2-2V306.897z"/>
	<path fill="#F2ED6B" d="M194.377,306.257c0-0.751-0.798-1.36-1.782-1.36h-4.166c-0.984,0-1.782,0.609-1.782,1.36v3.181
		c0,0.752,0.798,1.361,1.782,1.361h4.166c0.984,0,1.782-0.609,1.782-1.361V306.257z"/>
	<path fill="#DED962" d="M184.928,306.897c0-1.105-0.896-2-2-2h-4.676c-1.104,0-2,0.895-2,2v4.676c0,1.104,0.896,2,2,2h4.676
		c1.104,0,2-0.896,2-2V306.897z"/>
	<path fill="#F2ED6B" d="M184.456,306.257c0-0.751-0.798-1.36-1.782-1.36h-4.166c-0.984,0-1.782,0.609-1.782,1.36v3.181
		c0,0.752,0.798,1.361,1.782,1.361h4.166c0.984,0,1.782-0.609,1.782-1.361V306.257z"/>
	<path fill="#DED962" d="M175.008,306.897c0-1.105-0.896-2-2-2h-4.676c-1.104,0-2,0.895-2,2v4.676c0,1.104,0.896,2,2,2h4.676
		c1.104,0,2-0.896,2-2V306.897z"/>
	<path fill="#F2ED6B" d="M174.535,306.257c0-0.751-0.798-1.36-1.782-1.36h-4.166c-0.984,0-1.782,0.609-1.782,1.36v3.181
		c0,0.752,0.798,1.361,1.782,1.361h4.166c0.984,0,1.782-0.609,1.782-1.361V306.257z"/>
	<path fill="#DED962" d="M165.087,306.897c0-1.105-0.896-2-2-2h-4.676c-1.104,0-2,0.895-2,2v4.676c0,1.104,0.896,2,2,2h4.676
		c1.104,0,2-0.896,2-2V306.897z"/>
	<path fill="#F2ED6B" d="M164.614,306.257c0-0.751-0.798-1.36-1.782-1.36h-4.166c-0.984,0-1.782,0.609-1.782,1.36v3.181
		c0,0.752,0.798,1.361,1.782,1.361h4.166c0.984,0,1.782-0.609,1.782-1.361V306.257z"/>
	<path fill="#DED962" d="M155.166,306.897c0-1.105-0.896-2-2-2h-4.676c-1.104,0-2,0.895-2,2v4.676c0,1.104,0.896,2,2,2h4.676
		c1.104,0,2-0.896,2-2V306.897z"/>
	<path fill="#F2ED6B" d="M154.693,306.257c0-0.751-0.798-1.36-1.782-1.36h-4.166c-0.984,0-1.782,0.609-1.782,1.36v3.181
		c0,0.752,0.798,1.361,1.782,1.361h4.166c0.984,0,1.782-0.609,1.782-1.361V306.257z"/>
	<path fill="#DED962" d="M145.245,306.897c0-1.105-0.896-2-2-2h-4.676c-1.104,0-2,0.895-2,2v4.676c0,1.104,0.896,2,2,2h4.676
		c1.104,0,2-0.896,2-2V306.897z"/>
	<path fill="#F2ED6B" d="M144.772,306.257c0-0.751-0.798-1.36-1.782-1.36h-4.166c-0.984,0-1.782,0.609-1.782,1.36v3.181
		c0,0.752,0.798,1.361,1.782,1.361h4.166c0.984,0,1.782-0.609,1.782-1.361V306.257z"/>
	<circle opacity="0.3" fill="#1E2021" cx="249.563" cy="314.295" r="22.274"/>
	<circle fill="#A3A049" cx="249.563" cy="311.167" r="22.274"/>
	<path fill="#D9D561" d="M267.623,306.444c-0.086-0.328-0.165-0.66-0.269-0.981c-0.89-2.776-2.412-5.265-4.395-7.306
		c-0.236-0.242-0.483-0.471-0.732-0.699c-2.089-1.932-4.611-3.395-7.415-4.215c-0.324-0.094-0.653-0.176-0.984-0.253
		c-1.372-0.321-2.795-0.508-4.265-0.508s-2.893,0.187-4.265,0.508c-0.951,0.223-1.877,0.511-2.767,0.872
		c-2.689,1.094-5.058,2.801-6.951,4.939c-0.224,0.254-0.445,0.508-0.655,0.773c-1.759,2.219-3.031,4.84-3.638,7.71
		c-0.07,0.33-0.114,0.669-0.166,1.005c-0.146,0.939-0.244,1.896-0.244,2.878c0,1.961,0.305,3.85,0.865,5.626
		c0.103,0.326,0.231,0.641,0.352,0.959c1.026,2.721,2.664,5.135,4.755,7.08c0.248,0.231,0.492,0.467,0.753,0.685
		c2.177,1.817,4.777,3.132,7.627,3.81c0.329,0.078,0.658,0.15,0.993,0.211c1.086,0.197,2.198,0.315,3.341,0.315
		c1.798,0,3.53-0.269,5.176-0.742c0.327-0.095,0.647-0.201,0.967-0.313c2.749-0.958,5.209-2.528,7.203-4.564
		c0.236-0.242,0.459-0.497,0.683-0.751c1.876-2.136,3.266-4.697,4.015-7.527c0.087-0.328,0.185-0.652,0.254-0.988
		c0.254-1.227,0.389-2.498,0.389-3.8C268.249,309.532,268.017,307.955,267.623,306.444z"/>
	<path fill="#F2ED6B" d="M231.288,307.965c0.606-2.871,1.879-5.492,3.638-7.711c0.21-0.264,0.432-0.519,0.655-0.771
		c1.894-2.141,4.262-3.846,6.951-4.94c0.89-0.362,1.815-0.649,2.767-0.872c1.372-0.32,2.795-0.508,4.265-0.508
		s2.893,0.188,4.265,0.508c0.331,0.078,0.66,0.158,0.984,0.254c2.804,0.819,5.326,2.282,7.415,4.213
		c0.249,0.229,0.496,0.457,0.732,0.7c1.982,2.042,3.505,4.53,4.395,7.306c0.104,0.322,0.183,0.652,0.269,0.982
		c0.395,1.511,0.626,3.088,0.626,4.723c0-1.742-0.231-3.422-0.626-5.033c-0.086-0.35-0.165-0.703-0.269-1.046
		c-0.89-2.958-2.412-5.608-4.395-7.784c-0.236-0.259-0.483-0.502-0.732-0.746c-2.089-2.057-4.611-3.616-7.415-4.49
		c-0.324-0.101-0.653-0.187-0.984-0.27c-1.372-0.342-2.795-0.541-4.265-0.541s-2.893,0.199-4.265,0.541
		c-0.951,0.237-1.877,0.544-2.767,0.93c-2.689,1.166-5.058,2.983-6.951,5.264c-0.224,0.27-0.445,0.541-0.655,0.822
		c-1.759,2.365-3.031,5.158-3.638,8.217c-0.07,0.352-0.114,0.712-0.166,1.07c-0.146,1.002-0.244,2.021-0.244,3.066
		c0-0.981,0.099-1.938,0.244-2.879C231.174,308.633,231.218,308.295,231.288,307.965z"/>
	<path fill="#C9C55A" d="M250.919,304.346c0.223,1.271,0.289,2.424,0.175,3.408c0.892-0.84,2.155-1.609,3.689-2.293
		c0.837-2.017,1.51-4.499,1.944-7.306C254.225,300.24,252.235,302.371,250.919,304.346z"/>
	<path fill="#F2ED6B" d="M252.887,308.823c1.099-0.203,2.399-0.23,3.858-0.09c1.723-1.342,3.528-3.172,5.291-5.4
		c-2.794,0.508-5.259,1.24-7.254,2.129C254.221,306.815,253.585,307.949,252.887,308.823z"/>
	<path fill="#C9C55A" d="M253.44,310.724c1.057,0.365,2.203,0.98,3.401,1.822c2.16-0.319,4.633-1.021,7.266-2.091
		c-2.683-0.937-5.188-1.513-7.361-1.723C255.591,309.633,254.477,310.307,253.44,310.724z"/>
	<path fill="#F2ED6B" d="M256.842,312.546c-1.449,0.215-2.75,0.252-3.857,0.104c0.74,0.837,1.433,1.938,2.062,3.262
		c2.038,0.787,4.536,1.395,7.354,1.76C260.525,315.535,258.63,313.799,256.842,312.546z"/>
	<path fill="#C9C55A" d="M251.638,314.103c0.231,1.093,0.291,2.392,0.187,3.854c1.386,1.688,3.26,3.446,5.531,5.152
		c-0.578-2.781-1.372-5.226-2.311-7.197C253.679,315.385,252.53,314.776,251.638,314.103z"/>
	<path fill="#C9C55A" d="M247.556,308.143c-0.174-1.076-0.18-2.348-0.027-3.772c-1.225-1.699-2.9-3.485-4.948-5.233
		c0.431,2.737,1.076,5.154,1.873,7.115C245.705,306.817,246.752,307.452,247.556,308.143z"/>
	<path fill="#F2ED6B" d="M249.75,314.703c-0.336,1.064-0.924,2.225-1.734,3.445c0.373,2.15,1.138,4.604,2.274,7.207
		c0.866-2.703,1.38-5.223,1.535-7.398C250.895,316.823,250.194,315.728,249.75,314.703z"/>
	<path fill="#C9C55A" d="M248.015,318.149c-0.252-1.443-0.322-2.742-0.202-3.854c-0.818,0.76-1.9,1.48-3.207,2.143
		c-0.735,2.057-1.279,4.568-1.572,7.395C245.12,321.906,246.807,319.967,248.015,318.149z"/>
	<path fill="#F2ED6B" d="M246.328,312.987c-1.085,0.258-2.384,0.352-3.849,0.283c-1.651,1.428-3.363,3.346-5.01,5.659
		c2.765-0.647,5.188-1.503,7.137-2.491C245.098,315.059,245.677,313.893,246.328,312.987z"/>
	<path fill="#C9C55A" d="M245.681,311.115c-1.072-0.312-2.249-0.869-3.488-1.65c-2.142,0.43-4.577,1.255-7.15,2.457
		c2.726,0.799,5.256,1.248,7.437,1.348C243.589,312.313,244.668,311.584,245.681,311.115z"/>
	<path fill="#F2ED6B" d="M249.384,307.394c0.292-0.946,0.816-1.975,1.535-3.048c-0.33-1.865-1.008-3.992-2.006-6.257
		c-0.765,2.354-1.224,4.538-1.363,6.427C248.372,305.512,248.997,306.481,249.384,307.394z"/>
	<path fill="#F2ED6B" d="M242.193,309.465c1.645-0.328,3.122-0.43,4.333-0.26c-0.659-0.738-1.273-1.717-1.824-2.884
		c-2.218-0.85-5.071-1.438-8.316-1.694C238.364,306.666,240.344,308.304,242.193,309.465z"/>
	<circle fill="#F2ED6B" cx="249.564" cy="311.167" r="4.479"/>
	<path fill="#A162D1" d="M135.804,339.926l-13.018,5.156c0.685-3.614,2.057-8.457,3.197-10.797c6.576-1.965,9.82-2.936,9.82-2.936
		l2.695,8.045L135.804,339.926z"/>
	<path fill="#8F57BA" d="M135.804,349.143l-14.909,6.347c0,0,0.975-7.781,1.892-10.407c7.771-3.078,13.018-5.156,13.018-5.156
		l2.476,3.816L135.804,349.143z"/>
	<path fill="#FFD606" d="M370.198,324.785c0.697,1.225,2.981,6.564,3.892,9.5l-9.82-2.936l-2.02-5.208l2.02-3.052L370.198,324.785z"
		/>
	<path fill="#A162D1" d="M364.269,339.926l13.018,5.156c-0.87-3.848-2.409-8.862-3.197-10.797c-6.576-1.965-9.82-2.936-9.82-2.936
		l-2.695,8.045L364.269,339.926z"/>
	<path fill="#8F57BA" d="M364.269,349.143l14.909,6.347c0,0-0.666-6.251-1.892-10.407c-7.771-3.078-13.018-5.156-13.018-5.156
		l-2.476,3.816L364.269,349.143z"/>
</g>
</svg>
