<?xml version="1.0" encoding="utf-8"?>
<!-- Generator: Adobe Illustrator 14.0.0, SVG Export Plug-In . SVG Version: 6.00 Build 43363)  -->
<!DOCTYPE svg PUBLIC "-//W3C//DTD SVG 1.1//EN" "http://www.w3.org/Graphics/SVG/1.1/DTD/svg11.dtd">
<svg version="1.1" id="content" xmlns="http://www.w3.org/2000/svg" xmlns:xlink="http://www.w3.org/1999/xlink" x="0px" y="0px"
	 width="500px" height="500px" viewBox="0 0 500 500" enable-background="new 0 0 500 500" xml:space="preserve">
<rect id="position" x="0" y="0" display="none" fill="none" stroke="#000000" stroke-width="1.002" width="500" height="500"/>
<g>
	<path opacity="0.3" fill="#263B19" d="M249.5,346.424c-10.417,0-26.396-33.981-26.396-33.981l7.769,60.006H249.5h18.627
		l6.718-60.006C274.844,312.443,259.917,346.424,249.5,346.424z"/>
	<path fill="#6AA345" d="M249.5,353.644c-10.417,0-26.396-33.981-26.396-33.981l7.769,60.006H249.5h18.627l6.718-60.006
		C274.844,319.662,259.917,353.644,249.5,353.644z"/>
	<path fill="#6AA345" d="M216.517,419.204c0,0,21.197,23.574,65.213-2.213c-15.064-28.644-14.318-48.322-14.318-48.322
		l-36.539,1.896L216.517,419.204z"/>
	<path fill="#6AA345" d="M280.641,426.022c2.38-5.414,3.101-9.03,3.101-9.03l-7.775-30.322l-26.467,2l-26.467-2l-7.775,30.322
		c0,0,5.26,26.381,34.242,43.297C267.751,449.636,276.594,435.23,280.641,426.022"/>
	<path fill="#5A8A3A" d="M249.5,375.712c9.004,0,21.37-24.626,24.562-31.311l0.783-6.997c0,0-14.928,33.981-25.345,33.981
		s-26.396-33.981-26.396-33.981l0.93,7.18C227.577,351.52,240.575,375.712,249.5,375.712z"/>
	<path fill="#C5DD5E" d="M249.5,371.811c9.004,0,21.37-24.626,24.562-31.311l0.783-6.997c0,0-14.928,33.981-25.345,33.981
		s-26.396-33.981-26.396-33.981l0.93,7.18C227.577,347.618,240.575,371.811,249.5,371.811z"/>
	<path fill="#5A8A3A" d="M249.5,394.865c9.004,0,21.37-24.626,24.562-31.311l0.783-6.997c0,0-14.928,33.981-25.345,33.981
		s-26.396-33.981-26.396-33.981l0.93,7.18C227.577,370.673,240.575,394.865,249.5,394.865z"/>
	<path fill="#C5DD5E" d="M249.5,390.964c9.004,0,21.37-24.626,24.562-31.311l0.783-6.997c0,0-14.928,33.981-25.345,33.981
		s-26.396-33.981-26.396-33.981l0.93,7.18C227.577,366.772,240.575,390.964,249.5,390.964z"/>
	<path fill="#5A8A3A" d="M249.5,419.967c9.004,0,21.37-24.626,24.562-31.311l0.783-6.997c0,0-14.928,33.981-25.345,33.981
		s-26.396-33.981-26.396-33.981l0.93,7.18C227.577,395.775,240.575,419.967,249.5,419.967z"/>
	<path fill="#C5DD5E" d="M249.5,416.066c9.004,0,21.37-24.626,24.562-31.311l0.783-6.997c0,0-14.928,33.981-25.345,33.981
		s-26.396-33.981-26.396-33.981l0.93,7.18C227.577,391.873,240.575,416.066,249.5,416.066z"/>
	<path fill="#5A8A3A" d="M249.563,447.973c10.093,0,23.955-27.604,27.532-35.098l0.878-7.844c0,0-16.733,38.092-28.41,38.092
		s-29.588-38.092-29.588-38.092l1.042,8.048C224.989,420.855,239.559,447.973,249.563,447.973z"/>
	<path fill="#C5DD5E" d="M249.563,443.6c10.093,0,23.955-27.604,27.532-35.098l0.878-7.844c0,0-16.733,38.092-28.41,38.092
		s-29.588-38.092-29.588-38.092l1.042,8.048C224.989,416.481,239.559,443.6,249.563,443.6z"/>
	<path opacity="0.2" fill="#2F3326" enable-background="new    " d="M292.599,250.576c0,0-12.662,20.118,0.405,34.384
		c13.068,14.265,33.647,31.543,65.716,31.543c0,12.921,0,14.472,0,14.472s-21.222,0.549-39.562-8.008
		c-16.911-7.892-31.062-24.933-30.973-25.14c0.186-0.43-6.277-36.254-6.277-36.254l7.612-12.744L292.599,250.576z"/>
	<path opacity="0.2" fill="#2F3326" enable-background="new    " d="M206.694,250.576c0,0,12.662,20.118-0.406,34.384
		c-13.067,14.265-33.646,31.543-65.715,31.543c0,12.921,0,14.472,0,14.472s21.221,0.549,39.561-8.008
		c16.911-7.892,31.063-24.933,30.974-25.14c-0.187-0.43,6.276-36.254,6.276-36.254l-7.611-12.744L206.694,250.576z"/>
	<path fill="#B4AB68" d="M370.429,433.489l-0.058-0.998c24.658-1.406,47.946-16.841,48.86-32.381
		c0.918-15.616-11.761-22.068-11.89-22.132l0.443-0.896c0.134,0.066,13.4,6.816,12.443,23.087
		C419.29,416.173,395.553,432.056,370.429,433.489L370.429,433.489z"/>
	<path fill="#B4AB68" d="M373.428,441.955l-0.046-0.787c19.464-1.109,37.847-13.292,38.568-25.56
		c0.724-12.326-9.283-17.419-9.385-17.47l0.35-0.707c0.105,0.052,10.577,5.38,9.822,18.224
		C411.996,428.289,393.26,440.826,373.428,441.955L373.428,441.955z"/>
	<path fill="#B4AB68" d="M125.7,441.955c-19.831-1.13-38.567-13.666-39.311-26.3c-0.755-12.844,9.717-18.172,9.822-18.224
		l0.351,0.707c-0.103,0.051-10.108,5.161-9.386,17.47c0.723,12.268,19.104,24.449,38.568,25.56L125.7,441.955L125.7,441.955z"/>
	<path fill="#B4AB68" d="M128.097,433.489c-25.124-1.433-48.861-17.313-49.803-33.32c-0.957-16.271,12.311-23.021,12.443-23.087
		l0.443,0.896c-0.128,0.063-12.806,6.538-11.89,22.132c0.914,15.54,24.203,30.975,48.86,32.381L128.097,433.489L128.097,433.489z"/>
	<path opacity="0.2" fill="#16210E" d="M285.513,413.65c-0.132-0.963-0.239-1.484-0.239-1.484l-19.075-75.718l-3.584,5.689
		c0,0-4.093,51.8,18.213,83.445L285.513,413.65z"/>
	<path opacity="0.2" fill="#16210E" d="M213.615,414.252c0.132-0.963,0.239-1.484,0.239-1.484l19.014-75.363l3.646,5.335
		c0,0,4.093,51.8-18.213,83.445L213.615,414.252z"/>
	<path fill="#C5DD5E" d="M270.949,284.186c0,0-31.367,141.408,53.769,178.404c36.944,14.61,75.574-1.422,75.574-1.422
		s-32.423,0.819-49.174-14.001C339.414,426.58,270.949,284.186,270.949,284.186z"/>
	<path fill="#6AA345" d="M270.085,280.507c0,0-5.35,83.248,100.737,116.096c13.844,29.015,57.091,45.163,70.229,21.076
		c-4.38,50.363-96.479,47.365-137.172-3.896C261.957,360.969,261.432,317.967,270.085,280.507z"/>
	<path fill="#83CC54" d="M382.542,412.598L382.542,412.598c-4.188-4.64-7.803-8.77-11.435-16.015
		c-63.927-19.793-87.667-57.863-96.22-85.017l-7.712-5.699c-0.007,0.512-0.022,1.435-0.022,1.946
		C267.469,318.935,279.345,399.848,382.542,412.598z"/>
	<path fill="#C5DD5E" d="M298.235,239.007c0,0-38.956,38.319-9.203,78.43c29.753,40.109,76.948,40.979,76.948,40.979
		s4.97,23.226,16.124,42.468c0,0-92.791-9.92-113.86-85.577C260.871,277.204,283.781,255.458,298.235,239.007z"/>
	<path fill="#83CC54" d="M298.962,239.007c0,0-30.525,26.251-3.204,57.883c27.521,31.631,64.046,28.27,64.046,28.27
		s1.258,17.286,12.414,41.715c0.9,1.972-85.513-11.729-96.78-75.85C270.889,264.863,293.822,241.618,298.962,239.007z"/>
	<path fill="#C5DD5E" d="M229.077,283.616c0,0,31.367,141.408-53.769,178.404c-36.944,14.61-82.598-0.968-82.598-0.968
		s36.735,4.563,56.198-14.455C160.611,426.011,229.077,283.616,229.077,283.616z"/>
	<path fill="#6AA345" d="M228.915,280.507c0,0,5.35,83.248-100.737,116.096c-13.844,29.015-57.091,45.163-70.229,21.076
		c4.38,50.363,96.479,47.365,137.172-3.896C237.043,360.969,237.567,317.967,228.915,280.507z"/>
	<path fill="#83CC54" d="M116.458,412.598L116.458,412.598c4.188-4.64,7.803-8.77,11.435-16.015
		c63.927-19.793,87.667-57.863,96.22-85.017l7.712-5.699c0.007,0.512,0.022,1.435,0.022,1.946
		C231.53,318.935,219.654,399.848,116.458,412.598z"/>
	<path fill="#C5DD5E" d="M200.764,239.007c0,0,38.956,38.319,9.203,78.43c-29.753,40.109-76.948,40.979-76.948,40.979
		s-4.97,23.226-16.124,42.468c0,0,92.791-9.92,113.86-85.577C238.129,277.204,215.219,255.458,200.764,239.007z"/>
	<path fill="#83CC54" d="M200.038,239.007c0,0,30.525,26.251,3.204,57.883c-27.521,31.631-64.046,28.27-64.046,28.27
		s-1.258,17.286-12.414,41.715c-0.9,1.972,85.513-11.729,96.78-75.85C228.11,264.863,205.177,241.618,200.038,239.007z"/>
	<path fill="#79BA4F" d="M219.365,363.483c0,0-36.24,93.024-121.296,83.215c-25.495-3.127-30.332-14.246-30.332-14.246
		s20.846,8.638,49.96-13.624C141.687,412.165,174.539,413.525,219.365,363.483z"/>
	<path fill="#C5DD5E" d="M288.187,242.344c0,0-25.729,14.38-36.562,37.582c0,13.874,0,19.439,0,19.439
		S261.748,270.722,288.187,242.344z"/>
	<path fill="#C5DD5E" d="M210.941,242.344c0,0,25.728,14.38,36.561,37.582c0,13.874,0,19.439,0,19.439
		S237.381,270.722,210.941,242.344z"/>
	<path fill="#D6E39D" d="M164.551,285.594v-0.581h2.323v0.581H164.551L164.551,285.594z M164.551,282.691v-2.324h2.323v2.324
		H164.551L164.551,282.691z M164.551,278.044v-2.324h2.323v2.324H164.551L164.551,278.044z M164.551,273.398v-2.323h2.323v2.323
		H164.551L164.551,273.398z M164.551,268.751v-2.322h2.323v2.322H164.551L164.551,268.751z M164.551,264.105v-2.322h2.323v2.322
		H164.551L164.551,264.105z M164.551,259.458v-2.322h2.323v2.322H164.551L164.551,259.458z M164.551,254.812v-2.322h2.323v2.322
		H164.551L164.551,254.812z M164.551,250.166v-2.323h2.323v2.323H164.551L164.551,250.166z M164.551,245.52v-2.323h2.323v2.323
		H164.551L164.551,245.52z"/>
	<path fill="#D6E39D" d="M172.469,291.402v-1.743h2.322v1.743H172.469L172.469,291.402z M172.469,287.335v-2.322h2.322v2.322
		H172.469L172.469,287.335z M172.469,282.691v-2.324h2.322v2.324H172.469L172.469,282.691z M172.469,278.044v-2.324h2.322v2.324
		H172.469L172.469,278.044z M172.469,273.398v-2.323h2.322v2.323H172.469L172.469,273.398z M172.469,268.751v-2.322h2.322v2.322
		H172.469L172.469,268.751z M172.469,264.105v-2.322h2.322v2.322H172.469L172.469,264.105z M172.469,259.458v-2.322h2.322v2.322
		H172.469L172.469,259.458z M172.469,254.812v-2.322h2.322v2.322H172.469L172.469,254.812z M172.469,250.166v-2.323h2.322v2.323
		H172.469L172.469,250.166z M172.469,245.52v-2.323h2.322v2.323H172.469L172.469,245.52z"/>
	<path fill="#D6E39D" d="M180.385,296.627v-2.322h2.324v2.322H180.385L180.385,296.627z M180.385,291.982v-2.323h2.324v2.323
		H180.385L180.385,291.982z M180.385,287.335v-2.322h2.324v2.322H180.385L180.385,287.335z M180.385,282.691v-2.324h2.324v2.324
		H180.385L180.385,282.691z M180.385,278.044v-2.324h2.324v2.324H180.385L180.385,278.044z M180.385,273.398v-2.323h2.324v2.323
		H180.385L180.385,273.398z M180.385,268.751v-2.322h2.324v2.322H180.385L180.385,268.751z M180.385,264.105v-2.322h2.324v2.322
		H180.385L180.385,264.105z M180.385,259.458v-2.322h2.324v2.322H180.385L180.385,259.458z M180.385,254.812v-2.322h2.324v2.322
		H180.385L180.385,254.812z M180.385,250.166v-2.323h2.324v2.323H180.385L180.385,250.166z M180.385,245.52v-2.323h2.324v2.323
		H180.385L180.385,245.52z"/>
	<path fill="#D6E39D" d="M188.303,301.275v-2.323h2.321v2.323H188.303L188.303,301.275z M188.303,296.627v-2.322h2.321v2.322
		H188.303L188.303,296.627z M188.303,291.982v-2.323h2.321v2.323H188.303L188.303,291.982z M188.303,287.335v-2.322h2.321v2.322
		H188.303L188.303,287.335z M188.303,282.691v-2.324h2.321v2.324H188.303L188.303,282.691z M188.303,278.044v-2.324h2.321v2.324
		H188.303L188.303,278.044z M188.303,273.398v-2.323h2.321v2.323H188.303L188.303,273.398z M188.303,268.751v-2.322h2.321v2.322
		H188.303L188.303,268.751z M188.303,264.105v-2.322h2.321v2.322H188.303L188.303,264.105z M188.303,259.458v-2.322h2.321v2.322
		H188.303L188.303,259.458z M188.303,254.812v-2.322h2.321v2.322H188.303L188.303,254.812z M188.303,250.166v-2.323h2.321v2.323
		H188.303L188.303,250.166z M188.303,245.52v-2.323h2.321v2.323H188.303L188.303,245.52z"/>
	<path fill="#D6E39D" d="M196.22,308.824v-0.581h2.321v0.581H196.22L196.22,308.824z M196.22,305.92v-2.322h2.321v2.322H196.22
		L196.22,305.92z M196.22,301.275v-2.323h2.321v2.323H196.22L196.22,301.275z M196.22,296.627v-2.322h2.321v2.322H196.22
		L196.22,296.627z M196.22,291.982v-2.323h2.321v2.323H196.22L196.22,291.982z M196.22,287.335v-2.322h2.321v2.322H196.22
		L196.22,287.335z M196.22,282.691v-2.324h2.321v2.324H196.22L196.22,282.691z M196.22,278.044v-2.324h2.321v2.324H196.22
		L196.22,278.044z M196.22,273.398v-2.323h2.321v2.323H196.22L196.22,273.398z M196.22,268.751v-2.322h2.321v2.322H196.22
		L196.22,268.751z M196.22,264.105v-2.322h2.321v2.322H196.22L196.22,264.105z M196.22,259.458v-2.322h2.321v2.322H196.22
		L196.22,259.458z M196.22,254.812v-2.322h2.321v2.322H196.22L196.22,254.812z M196.22,250.166v-2.323h2.321v2.323H196.22
		L196.22,250.166z M196.22,245.52v-2.323h2.321v2.323H196.22L196.22,245.52z"/>
	<path opacity="0.2" fill="#2F3326" enable-background="new    " d="M150.11,238.423c-3.345,10.963,9.189,26.264,19.342,26.488
		c8.878,0.206,11.881-4.485,12.366-5.363c0.482,0.878,3.486,5.569,12.364,5.363c10.089-0.224,22.522-15.333,19.396-26.28
		L150.11,238.423z"/>
	<path fill="#FEFE9E" d="M162.624,286.755c0-1.709,1.389-3.097,3.098-3.097c1.707,0,3.097,1.388,3.097,3.097
		c0,1.71-1.39,3.096-3.097,3.096C164.011,289.851,162.624,288.465,162.624,286.755z"/>
	<path fill="#DEDE8A" d="M166.798,283.864c1.178,0.438,2.021,1.563,2.021,2.893c0,1.71-1.39,3.096-3.097,3.096
		c-0.854,0-1.623-0.344-2.183-0.9C166.067,287.753,166.668,285.246,166.798,283.864z"/>
	<circle fill="#FEFE9E" cx="173.631" cy="291.917" r="3.096"/>
	<path fill="#DEDE8A" d="M174.709,289.025c1.178,0.438,2.02,1.563,2.02,2.894c0,1.709-1.39,3.096-3.098,3.096
		c-0.852,0-1.622-0.347-2.181-0.902C173.978,292.914,174.58,290.407,174.709,289.025z"/>
	<circle fill="#FEFE9E" cx="181.547" cy="296.628" r="3.096"/>
	<path fill="#DEDE8A" d="M182.626,293.737c1.177,0.438,2.019,1.563,2.019,2.892c0,1.711-1.388,3.098-3.097,3.098
		c-0.852,0-1.621-0.346-2.181-0.901C181.894,297.625,182.495,295.12,182.626,293.737z"/>
	<circle fill="#FEFE9E" cx="189.463" cy="301.275" r="3.096"/>
	<path fill="#DEDE8A" d="M190.543,298.382c1.177,0.438,2.018,1.563,2.018,2.893c0,1.709-1.388,3.096-3.097,3.096
		c-0.851,0-1.621-0.344-2.181-0.899C189.81,302.273,190.411,299.767,190.543,298.382z"/>
	<circle fill="#FEFE9E" cx="197.383" cy="306.51" r="3.096"/>
	<path fill="#DEDE8A" d="M198.462,303.618c1.177,0.439,2.018,1.563,2.018,2.894c0,1.709-1.388,3.096-3.096,3.096
		c-0.853,0-1.621-0.345-2.182-0.901C197.728,307.509,198.33,305.001,198.462,303.618z"/>
	<path fill="#D6E39D" d="M333.976,285.594h-2.323v-0.581h2.323V285.594L333.976,285.594z M333.976,282.691h-2.323v-2.324h2.323
		V282.691L333.976,282.691z M333.976,278.044h-2.323v-2.324h2.323V278.044L333.976,278.044z M333.976,273.398h-2.323v-2.323h2.323
		V273.398L333.976,273.398z M333.976,268.751h-2.323v-2.322h2.323V268.751L333.976,268.751z M333.976,264.105h-2.323v-2.322h2.323
		V264.105L333.976,264.105z M333.976,259.458h-2.323v-2.322h2.323V259.458L333.976,259.458z M333.976,254.812h-2.323v-2.322h2.323
		V254.812L333.976,254.812z M333.976,250.166h-2.323v-2.323h2.323V250.166L333.976,250.166z M333.976,245.52h-2.323v-2.323h2.323
		V245.52L333.976,245.52z"/>
	<path fill="#D6E39D" d="M326.058,291.402h-2.323v-1.743h2.323V291.402L326.058,291.402z M326.058,287.335h-2.323v-2.322h2.323
		V287.335L326.058,287.335z M326.058,282.691h-2.323v-2.324h2.323V282.691L326.058,282.691z M326.058,278.044h-2.323v-2.324h2.323
		V278.044L326.058,278.044z M326.058,273.398h-2.323v-2.323h2.323V273.398L326.058,273.398z M326.058,268.751h-2.323v-2.322h2.323
		V268.751L326.058,268.751z M326.058,264.105h-2.323v-2.322h2.323V264.105L326.058,264.105z M326.058,259.458h-2.323v-2.322h2.323
		V259.458L326.058,259.458z M326.058,254.812h-2.323v-2.322h2.323V254.812L326.058,254.812z M326.058,250.166h-2.323v-2.323h2.323
		V250.166L326.058,250.166z M326.058,245.52h-2.323v-2.323h2.323V245.52L326.058,245.52z"/>
	<path fill="#D6E39D" d="M318.142,296.627h-2.324v-2.322h2.324V296.627L318.142,296.627z M318.142,291.982h-2.324v-2.323h2.324
		V291.982L318.142,291.982z M318.142,287.335h-2.324v-2.322h2.324V287.335L318.142,287.335z M318.142,282.691h-2.324v-2.324h2.324
		V282.691L318.142,282.691z M318.142,278.044h-2.324v-2.324h2.324V278.044L318.142,278.044z M318.142,273.398h-2.324v-2.323h2.324
		V273.398L318.142,273.398z M318.142,268.751h-2.324v-2.322h2.324V268.751L318.142,268.751z M318.142,264.105h-2.324v-2.322h2.324
		V264.105L318.142,264.105z M318.142,259.458h-2.324v-2.322h2.324V259.458L318.142,259.458z M318.142,254.812h-2.324v-2.322h2.324
		V254.812L318.142,254.812z M318.142,250.166h-2.324v-2.323h2.324V250.166L318.142,250.166z M318.142,245.52h-2.324v-2.323h2.324
		V245.52L318.142,245.52z"/>
	<path fill="#D6E39D" d="M310.223,301.275h-2.322v-2.323h2.322V301.275L310.223,301.275z M310.223,296.627h-2.322v-2.322h2.322
		V296.627L310.223,296.627z M310.223,291.982h-2.322v-2.323h2.322V291.982L310.223,291.982z M310.223,287.335h-2.322v-2.322h2.322
		V287.335L310.223,287.335z M310.223,282.691h-2.322v-2.324h2.322V282.691L310.223,282.691z M310.223,278.044h-2.322v-2.324h2.322
		V278.044L310.223,278.044z M310.223,273.398h-2.322v-2.323h2.322V273.398L310.223,273.398z M310.223,268.751h-2.322v-2.322h2.322
		V268.751L310.223,268.751z M310.223,264.105h-2.322v-2.322h2.322V264.105L310.223,264.105z M310.223,259.458h-2.322v-2.322h2.322
		V259.458L310.223,259.458z M310.223,254.812h-2.322v-2.322h2.322V254.812L310.223,254.812z M310.223,250.166h-2.322v-2.323h2.322
		V250.166L310.223,250.166z M310.223,245.52h-2.322v-2.323h2.322V245.52L310.223,245.52z"/>
	<path fill="#D6E39D" d="M302.306,308.824h-2.322v-0.581h2.322V308.824L302.306,308.824z M302.306,305.92h-2.322v-2.322h2.322
		V305.92L302.306,305.92z M302.306,301.275h-2.322v-2.323h2.322V301.275L302.306,301.275z M302.306,296.627h-2.322v-2.322h2.322
		V296.627L302.306,296.627z M302.306,291.982h-2.322v-2.323h2.322V291.982L302.306,291.982z M302.306,287.335h-2.322v-2.322h2.322
		V287.335L302.306,287.335z M302.306,282.691h-2.322v-2.324h2.322V282.691L302.306,282.691z M302.306,278.044h-2.322v-2.324h2.322
		V278.044L302.306,278.044z M302.306,273.398h-2.322v-2.323h2.322V273.398L302.306,273.398z M302.306,268.751h-2.322v-2.322h2.322
		V268.751L302.306,268.751z M302.306,264.105h-2.322v-2.322h2.322V264.105L302.306,264.105z M302.306,259.458h-2.322v-2.322h2.322
		V259.458L302.306,259.458z M302.306,254.812h-2.322v-2.322h2.322V254.812L302.306,254.812z M302.306,250.166h-2.322v-2.323h2.322
		V250.166L302.306,250.166z M302.306,245.52h-2.322v-2.323h2.322V245.52L302.306,245.52z"/>
	<path opacity="0.2" fill="#2F3326" enable-background="new    " d="M284.947,238.632c-3.126,10.947,9.309,26.057,19.397,26.28
		c8.878,0.206,11.881-4.485,12.363-5.363c0.485,0.878,3.488,5.569,12.366,5.363c10.151-0.226,22.688-15.525,19.342-26.488
		L284.947,238.632z"/>
	<g>
		<circle fill="#DEC875" cx="316.656" cy="242.984" r="23.395"/>
		<path fill="#EDD67D" d="M316.741,262.681c0,0,4.494,0.195,12.018-2.591c0,0-3.975,5.183-12.018,5.183
			c-8.042,0-12.017-5.183-12.017-5.183C312.247,262.876,316.741,262.681,316.741,262.681z"/>
		<path fill="#83CC54" d="M329.96,188.073c0,0,15.012,12.987,8.21,36.749c-5.305,14.69-21.513,28.406-21.513,28.406
			S315.314,209.738,329.96,188.073z"/>
		<path fill="#75B84B" d="M316.717,245.855c-0.093,2.504-0.125,4.618-0.131,6.219c1.453-0.436,3.449-1.099,5.747-2.019
			c5.214-5.305,12.582-13.9,15.837-22.91c2.118-7.403,2.413-14.31,1.411-19.555c-2.309,4.271-5.583,9.082-7.956,12.978
			C327.429,227.454,320.865,236.811,316.717,245.855z"/>
		<path fill="#C5DD5E" d="M316.657,253.229c3.24-10.947,12.245-23.64,17.522-32.306s13.594-19.13,10.722-27.496
			c0,0,13.985,12.86,6.493,33.215C343.902,246.995,316.657,253.229,316.657,253.229z"/>
		<path fill="#83CC54" d="M303.265,188.073c0,0-15.012,12.987-8.21,36.749c5.305,14.69,21.602,28.406,21.602,28.406
			S317.912,209.738,303.265,188.073z"/>
		<path fill="#75B84B" d="M316.509,245.855c0.094,2.504,0.125,4.618,0.133,6.219c-1.454-0.436-3.45-1.099-5.748-2.019
			c-5.214-5.305-12.582-13.9-15.837-22.91c-2.118-7.403-2.413-14.31-1.411-19.555c2.309,4.271,5.583,9.082,7.956,12.978
			C305.795,227.454,312.36,236.811,316.509,245.855z"/>
		<path fill="#C5DD5E" d="M316.657,253.229c-3.241-10.947-12.334-23.64-17.611-32.306s-13.593-19.13-10.722-27.496
			c0,0-13.985,12.86-6.493,33.215C289.323,246.995,316.657,253.229,316.657,253.229z"/>
		<path fill="#C5DD5E" d="M316.612,184.589c0,0-17.467,24.183,0.045,68.64C334.602,210.049,316.612,184.589,316.612,184.589z"/>
		<path fill="#F0F267" d="M316.709,201.16c-11.988,13.023-0.052,52.068-0.052,52.068S328.697,214.184,316.709,201.16z"/>
		<path fill="#D1EB64" d="M351.394,226.642c2.397-6.519,2.592-12.264,1.75-17.069c-1.855,5.855-5.689,12.958-13.483,19.648
			c-9.513,8.163-13.515,15.924-15.186,21.354C333.138,247.169,346.498,239.948,351.394,226.642z"/>
		<path fill="#D1EB64" d="M281.831,226.642c-2.397-6.519-2.591-12.264-1.749-17.068c1.854,5.854,5.688,12.958,13.482,19.647
			c9.513,8.163,13.515,15.924,15.186,21.354C300.087,247.169,286.728,239.948,281.831,226.642z"/>
		<path fill="#588739" d="M316.657,253.229c0,0,23.729-8.438,31.745-20.69c3.403,10.968-9.157,26.321-19.327,26.547
			C319.285,259.313,316.657,253.229,316.657,253.229z"/>
		<path fill="#588739" d="M316.657,253.229c0,0-23.882-8.438-31.898-20.688c-3.402,10.967,9.416,26.319,19.587,26.546
			C314.133,259.313,316.657,253.229,316.657,253.229z"/>
		<path fill="#76B54C" d="M329.075,259.085c8.857-0.197,19.527-11.872,19.882-22.127c-1.708,4.591-5.04,10.817-11.331,15.188
			c-11.134,7.734-20.969,1.082-20.969,1.082S319.285,259.313,329.075,259.085z"/>
		<path fill="#76B54C" d="M304.082,259.085c-8.857-0.197-19.526-11.872-19.882-22.127c1.708,4.591,5.039,10.817,11.329,15.188
			c11.134,7.734,20.971,1.082,20.971,1.082S313.871,259.313,304.082,259.085z"/>
		<path fill="#8DDB5A" d="M329.833,191.612c0,0,2.956,8.075-0.277,20.467c6.526-3.125,7.701-4.694,7.701-4.694
			S337.003,198.038,329.833,191.612z"/>
		<path fill="#8DDB5A" d="M303.392,191.612c0,0-2.956,8.075,0.277,20.467c-6.526-3.125-7.701-4.694-7.701-4.694
			S296.222,198.038,303.392,191.612z"/>
	</g>
	<g>
		<circle fill="#DEC875" cx="182.344" cy="242.984" r="23.395"/>
		<path fill="#EDD67D" d="M182.259,262.681c0,0-4.494,0.195-12.018-2.591c0,0,3.975,5.183,12.018,5.183
			c8.042,0,12.017-5.183,12.017-5.183C186.753,262.876,182.259,262.681,182.259,262.681z"/>
		<path fill="#83CC54" d="M169.04,188.073c0,0-15.012,12.987-8.21,36.749c5.305,14.69,21.513,28.406,21.513,28.406
			S183.685,209.738,169.04,188.073z"/>
		<path fill="#75B84B" d="M182.283,245.855c0.093,2.504,0.125,4.618,0.131,6.219c-1.453-0.436-3.449-1.099-5.747-2.019
			c-5.214-5.305-12.582-13.9-15.837-22.91c-2.118-7.403-2.413-14.31-1.411-19.555c2.309,4.271,5.583,9.082,7.956,12.978
			C171.57,227.454,178.135,236.811,182.283,245.855z"/>
		<path fill="#C5DD5E" d="M182.343,253.229c-3.24-10.947-12.245-23.64-17.522-32.306s-13.594-19.13-10.722-27.496
			c0,0-13.985,12.86-6.493,33.215C155.097,246.995,182.343,253.229,182.343,253.229z"/>
		<path fill="#83CC54" d="M195.734,188.073c0,0,15.012,12.987,8.21,36.749c-5.305,14.69-21.602,28.406-21.602,28.406
			S181.088,209.738,195.734,188.073z"/>
		<path fill="#75B84B" d="M182.491,245.855c-0.094,2.504-0.125,4.618-0.133,6.219c1.454-0.436,3.45-1.099,5.748-2.019
			c5.214-5.305,12.582-13.9,15.837-22.91c2.118-7.403,2.413-14.31,1.411-19.555c-2.309,4.271-5.583,9.082-7.956,12.978
			C193.205,227.454,186.639,236.811,182.491,245.855z"/>
		<path fill="#C5DD5E" d="M182.343,253.229c3.241-10.947,12.334-23.64,17.611-32.306s13.593-19.13,10.722-27.496
			c0,0,13.985,12.86,6.493,33.215C209.677,246.995,182.343,253.229,182.343,253.229z"/>
		<path fill="#C5DD5E" d="M182.387,184.589c0,0,17.467,24.183-0.045,68.64C164.397,210.049,182.387,184.589,182.387,184.589z"/>
		<path fill="#F0F267" d="M182.291,201.16c11.988,13.023,0.052,52.068,0.052,52.068S170.302,214.184,182.291,201.16z"/>
		<path fill="#D1EB64" d="M147.605,226.642c-2.397-6.519-2.592-12.264-1.75-17.069c1.855,5.855,5.689,12.958,13.483,19.648
			c9.513,8.163,13.515,15.924,15.186,21.354C165.861,247.169,152.502,239.948,147.605,226.642z"/>
		<path fill="#D1EB64" d="M217.169,226.642c2.397-6.519,2.591-12.264,1.749-17.068c-1.854,5.854-5.688,12.958-13.482,19.647
			c-9.513,8.163-13.515,15.924-15.186,21.354C198.913,247.169,212.271,239.948,217.169,226.642z"/>
		<path fill="#588739" d="M182.343,253.229c0,0-23.729-8.438-31.745-20.69c-3.403,10.968,9.157,26.321,19.327,26.547
			C179.715,259.313,182.343,253.229,182.343,253.229z"/>
		<path fill="#588739" d="M182.343,253.229c0,0,23.882-8.438,31.898-20.688c3.402,10.967-9.416,26.319-19.587,26.546
			C184.867,259.313,182.343,253.229,182.343,253.229z"/>
		<path fill="#76B54C" d="M169.925,259.085c-8.857-0.197-19.527-11.872-19.882-22.127c1.708,4.591,5.04,10.817,11.331,15.188
			c11.134,7.734,20.969,1.082,20.969,1.082S179.715,259.313,169.925,259.085z"/>
		<path fill="#76B54C" d="M194.918,259.085c8.857-0.197,19.526-11.872,19.882-22.127c-1.708,4.591-5.039,10.817-11.329,15.188
			c-11.134,7.734-20.971,1.082-20.971,1.082S185.129,259.313,194.918,259.085z"/>
		<path fill="#8DDB5A" d="M169.51,191.269c0,0-2.956,8.075,0.277,20.467c-6.526-3.125-7.701-4.694-7.701-4.694
			S162.34,197.696,169.51,191.269z"/>
		<path fill="#8DDB5A" d="M195.95,191.269c0,0,2.956,8.075-0.277,20.467c6.526-3.125,7.701-4.694,7.701-4.694
			S203.12,197.696,195.95,191.269z"/>
	</g>
	<path fill="#FEFE9E" d="M335.903,286.755c0-1.709-1.388-3.097-3.097-3.097c-1.707,0-3.098,1.388-3.098,3.097
		c0,1.71,1.391,3.096,3.098,3.096C334.515,289.851,335.903,288.465,335.903,286.755z"/>
	<path fill="#DEDE8A" d="M331.729,283.864c-1.177,0.438-2.021,1.563-2.021,2.893c0,1.71,1.391,3.096,3.098,3.096
		c0.853,0,1.623-0.344,2.182-0.9C332.46,287.753,331.859,285.246,331.729,283.864z"/>
	<circle fill="#FEFE9E" cx="324.896" cy="291.917" r="3.096"/>
	<path fill="#DEDE8A" d="M323.818,289.025c-1.177,0.438-2.02,1.563-2.02,2.894c0,1.709,1.39,3.096,3.098,3.096
		c0.852,0,1.622-0.347,2.181-0.902C324.549,292.914,323.947,290.407,323.818,289.025z"/>
	<circle fill="#FEFE9E" cx="316.98" cy="296.628" r="3.096"/>
	<path fill="#DEDE8A" d="M315.901,293.737c-1.176,0.438-2.019,1.563-2.019,2.892c0,1.711,1.388,3.098,3.097,3.098
		c0.852,0,1.622-0.346,2.181-0.901C316.633,297.625,316.032,295.12,315.901,293.737z"/>
	<circle fill="#FEFE9E" cx="309.064" cy="301.275" r="3.096"/>
	<path fill="#DEDE8A" d="M307.984,298.382c-1.176,0.438-2.018,1.563-2.018,2.893c0,1.709,1.388,3.096,3.097,3.096
		c0.851,0,1.621-0.344,2.181-0.899C308.717,302.273,308.116,299.767,307.984,298.382z"/>
	<circle fill="#FEFE9E" cx="301.144" cy="306.51" r="3.096"/>
	<path fill="#DEDE8A" d="M300.065,303.618c-1.176,0.439-2.018,1.563-2.018,2.894c0,1.709,1.388,3.096,3.096,3.096
		c0.853,0,1.622-0.345,2.182-0.901C300.799,307.509,300.197,305.001,300.065,303.618z"/>
	<path fill="#79BA4F" d="M279.635,363.483c0,0,36.24,93.024,121.296,83.215c25.495-3.127,30.332-14.246,30.332-14.246
		s-20.846,8.638-49.96-13.624C357.312,412.165,324.461,413.525,279.635,363.483z"/>
	<path opacity="0.2" fill="#2F3326" enable-background="new    " d="M277.201,294.714c0-2.847-5.737-5.229-13.457-5.873
		c5.002-5.915,7.375-11.655,5.362-13.668c-2.015-2.015-7.755,0.358-13.67,5.36c-0.646-7.719-3.025-13.456-5.872-13.456
		c-2.848,0-5.229,5.737-5.874,13.458c-5.914-5.002-11.655-7.377-13.668-5.362c-2.015,2.013,0.358,7.754,5.361,13.67
		c-7.719,0.645-13.456,3.024-13.456,5.871c0,2.848,5.737,5.229,13.458,5.875c-5.004,5.913-7.377,11.653-5.363,13.668
		c2.014,2.013,7.755-0.359,13.669-5.362c0.646,7.719,3.025,13.456,5.873,13.456c2.847,0,5.229-5.737,5.874-13.457
		c5.914,5.002,11.655,7.376,13.668,5.363c2.014-2.015-0.359-7.756-5.361-13.671C271.464,299.943,277.201,297.562,277.201,294.714z"
		/>
	<path fill="#F0F267" d="M277.201,290.021c0-2.847-5.737-5.229-13.457-5.874c5.002-5.915,7.375-11.655,5.362-13.667
		c-2.015-2.014-7.755,0.359-13.67,5.361c-0.646-7.719-3.025-13.457-5.872-13.457c-2.848,0-5.229,5.738-5.874,13.458
		c-5.914-5.002-11.655-7.376-13.668-5.363c-2.015,2.013,0.358,7.755,5.361,13.67c-7.719,0.646-13.456,3.025-13.456,5.872
		c0,2.848,5.737,5.229,13.458,5.875c-5.004,5.914-7.377,11.654-5.363,13.667s7.755-0.359,13.669-5.362
		c0.646,7.719,3.025,13.457,5.873,13.457c2.847,0,5.229-5.738,5.874-13.457c5.914,5.002,11.655,7.375,13.668,5.363
		c2.014-2.014-0.359-7.756-5.361-13.67C271.464,295.248,277.201,292.868,277.201,290.021z"/>
	<path fill="#6AA345" d="M249.775,276.454c2.122-0.862,4.22-1.3,6.151-1.286c-1.776-1.753-3.885-2.782-6.151-2.782
		c-2.268,0-4.375,1.029-6.153,2.783C245.555,275.155,247.653,275.591,249.775,276.454z"/>
	<path fill="#6AA345" d="M249.775,303.588c-2.122,0.862-4.22,1.3-6.152,1.285c1.777,1.754,3.885,2.783,6.152,2.783
		c2.267,0,4.374-1.029,6.151-2.782C253.995,304.888,251.897,304.451,249.775,303.588z"/>
	<path fill="#6AA345" d="M240.181,299.615c-2.11-0.89-3.902-2.063-5.261-3.439c0.019,2.496,0.78,4.715,2.384,6.316
		c1.604,1.604,3.82,2.365,6.317,2.383C242.247,303.518,241.072,301.726,240.181,299.615z"/>
	<path fill="#6AA345" d="M259.369,280.428c2.11,0.89,3.903,2.063,5.26,3.439c-0.018-2.496-0.778-4.715-2.383-6.317
		c-1.603-1.604-3.821-2.365-6.317-2.383C257.304,276.525,258.478,278.318,259.369,280.428z"/>
	<path fill="#FEFE9E" d="M249.775,276.454c1.535,0.624,3.076,1.475,4.573,2.527c1.804,0.314,3.493,0.803,5.021,1.446
		c-0.891-2.11-2.063-3.903-3.44-5.261C253.995,275.155,251.897,275.591,249.775,276.454z"/>
	<path fill="#FEFE9E" d="M249.775,303.588c-1.534-0.625-3.075-1.475-4.572-2.526c-1.804-0.314-3.494-0.803-5.021-1.447
		c0.891,2.111,2.064,3.903,3.44,5.26C245.555,304.888,247.653,304.451,249.775,303.588z"/>
	<path fill="#6AA345" d="M236.208,290.021c-0.861-2.121-1.3-4.219-1.286-6.152c-1.753,1.778-2.781,3.887-2.781,6.152
		c0,2.269,1.028,4.375,2.781,6.152C234.908,294.241,235.345,292.144,236.208,290.021z"/>
	<path fill="#6AA345" d="M264.629,283.868c0.015,1.935-0.423,4.031-1.286,6.152c0.862,2.123,1.301,4.221,1.287,6.152
		c1.753-1.777,2.782-3.886,2.782-6.152S266.383,285.647,264.629,283.868z"/>
	<path fill="#FEFE9E" d="M259.369,280.428c0.645,1.525,1.133,3.218,1.446,5.021c1.054,1.498,1.903,3.039,2.526,4.572
		c0.863-2.121,1.301-4.219,1.286-6.152C263.272,282.492,261.479,281.318,259.369,280.428z"/>
	<path fill="#FEFE9E" d="M240.181,299.615c-0.645-1.525-1.133-3.217-1.446-5.021c-1.054-1.497-1.903-3.038-2.527-4.573
		c-0.861,2.123-1.3,4.221-1.286,6.152C236.279,297.55,238.071,298.725,240.181,299.615z"/>
	<path fill="#B4AB68" d="M238.735,294.594c0.313,1.804,0.803,3.494,1.446,5.021c1.526,0.646,3.218,1.133,5.021,1.447
		c-1.213-0.854-2.397-1.829-3.519-2.949C240.564,296.991,239.589,295.807,238.735,294.594z"/>
	<path fill="#B4AB68" d="M260.815,285.448c-0.313-1.803-0.803-3.494-1.446-5.021c-1.526-0.645-3.217-1.132-5.021-1.446
		c1.213,0.854,2.396,1.828,3.518,2.949C258.986,283.051,259.962,284.236,260.815,285.448z"/>
	<path fill="#6AA345" d="M259.369,299.615c-0.891,2.111-2.064,3.903-3.44,5.261c2.496-0.017,4.716-0.778,6.318-2.383
		c1.604-1.604,2.365-3.821,2.383-6.319C263.272,297.55,261.479,298.724,259.369,299.615z"/>
	<path fill="#6AA345" d="M240.181,280.428c0.891-2.11,2.063-3.903,3.439-5.26c-2.496,0.018-4.714,0.779-6.315,2.383
		c-1.604,1.603-2.365,3.82-2.385,6.316C236.279,282.492,238.071,281.319,240.181,280.428z"/>
	<path fill="#FEFE9E" d="M259.369,299.615c-1.526,0.646-3.217,1.133-5.021,1.447c-1.498,1.053-3.038,1.901-4.573,2.526
		c2.122,0.862,4.22,1.3,6.151,1.286C257.303,303.518,258.478,301.726,259.369,299.615z"/>
	<path fill="#FEFE9E" d="M240.181,280.428c1.525-0.645,3.217-1.132,5.021-1.446c1.498-1.054,3.039-1.903,4.573-2.527
		c-2.122-0.862-4.22-1.3-6.153-1.285C242.246,276.525,241.072,278.318,240.181,280.428z"/>
	<path fill="#B4AB68" d="M245.203,301.062c1.497,1.053,3.038,1.901,4.572,2.526c1.535-0.625,3.075-1.475,4.573-2.526
		c-1.461,0.254-2.989,0.401-4.573,0.401S246.664,301.316,245.203,301.062z"/>
	<path fill="#B4AB68" d="M254.348,278.982c-1.497-1.054-3.038-1.903-4.573-2.527c-1.534,0.624-3.075,1.475-4.573,2.527
		c1.461-0.254,2.988-0.402,4.573-0.402S252.887,278.728,254.348,278.982z"/>
	<path fill="#FEFE9E" d="M263.343,290.021c-0.623,1.535-1.474,3.076-2.526,4.573c-0.314,1.804-0.803,3.493-1.446,5.021
		c2.11-0.891,3.903-2.063,5.261-3.441C264.642,294.241,264.205,292.144,263.343,290.021z"/>
	<path fill="#FEFE9E" d="M236.208,290.021c0.624-1.534,1.475-3.074,2.527-4.572c0.313-1.804,0.803-3.493,1.446-5.021
		c-2.11,0.891-3.902,2.063-5.261,3.439C234.908,285.802,235.345,287.9,236.208,290.021z"/>
	<path fill="#B4AB68" d="M245.202,278.982c-1.804,0.314-3.494,0.803-5.021,1.446c-0.645,1.525-1.134,3.217-1.446,5.021
		c0.854-1.213,1.829-2.396,2.949-3.518S243.99,279.835,245.202,278.982z"/>
	<path fill="#B4AB68" d="M254.348,301.062c1.804-0.314,3.493-0.803,5.021-1.447c0.645-1.526,1.132-3.217,1.446-5.021
		c-0.854,1.213-1.829,2.396-2.949,3.519C256.746,299.233,255.56,300.207,254.348,301.062z"/>
	<path fill="#B4AB68" d="M261.218,290.021c0,1.585-0.147,3.112-0.401,4.573c1.054-1.497,1.903-3.038,2.526-4.573
		c-0.623-1.533-1.474-3.074-2.526-4.572C261.069,286.909,261.218,288.437,261.218,290.021z"/>
	<path fill="#B4AB68" d="M238.735,285.448c-1.054,1.498-1.903,3.038-2.527,4.572c0.624,1.535,1.475,3.076,2.527,4.573
		c-0.254-1.46-0.402-2.988-0.402-4.573C238.333,288.437,238.481,286.909,238.735,285.448z"/>
	<path fill="#85CC56" d="M260.815,285.448c-0.854-1.213-1.829-2.396-2.949-3.518s-2.305-2.096-3.518-2.949
		c-1.461-0.254-2.988-0.402-4.573-0.402s-3.112,0.148-4.573,0.402c-1.212,0.854-2.396,1.828-3.518,2.949
		c-1.12,1.12-2.097,2.305-2.949,3.518c-0.254,1.461-0.402,2.988-0.402,4.572c0,1.585,0.148,3.113,0.402,4.573
		c0.854,1.213,1.829,2.396,2.949,3.519c1.12,1.12,2.306,2.096,3.519,2.949c1.461,0.254,2.988,0.401,4.572,0.401
		s3.112-0.147,4.573-0.401c1.212-0.854,2.396-1.829,3.518-2.949c1.12-1.121,2.096-2.306,2.949-3.519
		c0.254-1.461,0.401-2.988,0.401-4.573C261.218,288.437,261.069,286.909,260.815,285.448z"/>
	<circle fill="#C5DD5E" cx="249.5" cy="289.943" r="6.369"/>
	<circle fill="#6AA345" cx="407.566" cy="377.529" r="3.104"/>
	<circle fill="#6AA345" cx="402.742" cy="397.785" r="2.45"/>
	<circle fill="#6AA345" cx="96.386" cy="397.785" r="2.45"/>
	<circle fill="#6AA345" cx="90.961" cy="377.529" r="3.104"/>
</g>
</svg>
