<?xml version="1.0" encoding="utf-8"?>
<!-- Generator: Adobe Illustrator 14.0.0, SVG Export Plug-In . SVG Version: 6.00 Build 43363)  -->
<!DOCTYPE svg PUBLIC "-//W3C//DTD SVG 1.1//EN" "http://www.w3.org/Graphics/SVG/1.1/DTD/svg11.dtd">
<svg version="1.1" id="content" xmlns="http://www.w3.org/2000/svg" xmlns:xlink="http://www.w3.org/1999/xlink" x="0px" y="0px"
	 width="500px" height="500px" viewBox="0 0 500 500" enable-background="new 0 0 500 500" xml:space="preserve">
<rect id="position" x="0" y="0" display="none" fill="none" stroke="#000000" stroke-width="1.002" width="500" height="500"/>
<g>
	<path fill="#663944" d="M250,452.088c78.229,0,133.154-22.212,155.998-33.487c-15.87-63.834-46.308-117.23-46.308-117.23H250.535
		H141.366c0,0-30.583,53.655-46.421,117.694C118.336,430.474,172.832,452.088,250,452.088z"/>
	<path fill="#4F2C35" d="M194.928,448.313c3.475,0.484,7.024,0.928,10.64,1.329l-2.771-65.817l-67.128-71.597
		c-1.113,2.175-2.358,4.648-3.709,7.399c6.814,8.776,32.947,43.187,47.502,72.871C187.448,408.787,192.17,430.25,194.928,448.313z"
		/>
	<path fill="#AB2B4C" d="M202.241,449.258c11.022,1.321,22.713,2.244,35.036,2.627c-3.64-39.447-16.367-117.109-60.769-155.721
		c-25.95,0-31.47,0-32.445,0l-10.478,19.77C133.586,315.934,190.578,370.526,202.241,449.258z"/>
	<path fill="#85213B" d="M167.839,318.345c0.753-0.802,1.985-0.802,2.738,0l9.848,10.493c0.754,0.802,0.731,2.093-0.049,2.867
		l-9.75,9.696c-0.779,0.775-2.056,0.775-2.836,0l-9.751-9.696c-0.778-0.774-0.802-2.065-0.049-2.867L167.839,318.345z"/>
	<path fill="#DBC868" d="M167.839,315.612c0.753-0.802,1.985-0.802,2.738,0l9.848,10.493c0.754,0.802,0.731,2.093-0.049,2.868
		l-9.75,9.697c-0.779,0.774-2.056,0.774-2.836,0l-9.751-9.697c-0.778-0.775-0.802-2.066-0.049-2.867L167.839,315.612z"/>
	<polygon fill="#4A4863" points="169.208,318.51 177.564,327.412 169.208,335.723 160.85,327.412 	"/>
	<polygon fill="#A49FDB" points="169.208,335.723 169.208,326.94 160.85,327.412 	"/>
	<polygon fill="#37364A" points="169.208,326.94 177.519,327.456 169.208,335.723 	"/>
	<polygon fill="#69668C" points="169.208,326.94 169.208,318.51 160.85,327.412 	"/>
	<path fill="#85213B" d="M208.148,391.612c0.753-0.802,1.984-0.802,2.738,0l9.848,10.493c0.753,0.802,0.73,2.093-0.049,2.868
		l-9.75,9.697c-0.78,0.774-2.057,0.774-2.836,0l-9.751-9.697c-0.779-0.775-0.803-2.066-0.05-2.867L208.148,391.612z"/>
	<path fill="#DBC868" d="M208.148,388.901c0.753-0.803,1.984-0.803,2.738,0l9.848,10.492c0.753,0.803,0.73,2.094-0.049,2.869
		l-9.75,9.697c-0.78,0.774-2.057,0.774-2.836,0l-9.751-9.697c-0.779-0.775-0.803-2.066-0.05-2.868L208.148,388.901z"/>
	<polygon fill="#4A4863" points="209.517,391.799 217.874,400.7 209.517,409.012 201.16,400.7 	"/>
	<polygon fill="#A49FDB" points="209.517,409.012 209.517,400.228 201.16,400.7 	"/>
	<polygon fill="#37364A" points="209.517,400.228 217.829,400.745 209.517,409.012 	"/>
	<polygon fill="#69668C" points="209.517,400.228 209.517,391.799 201.16,400.7 	"/>
	<path fill="#85213B" d="M191.921,350.832c0.753-0.802,1.985-0.802,2.738,0l9.848,10.493c0.754,0.803,0.731,2.094-0.049,2.868
		l-9.75,9.697c-0.779,0.775-2.056,0.775-2.836,0l-9.751-9.697c-0.779-0.774-0.802-2.065-0.049-2.867L191.921,350.832z"/>
	<path fill="#DBC868" d="M191.921,348.121c0.753-0.803,1.985-0.803,2.738,0l9.848,10.492c0.754,0.804,0.731,2.094-0.049,2.869
		l-9.75,9.697c-0.779,0.774-2.056,0.774-2.836,0l-9.751-9.697c-0.779-0.775-0.802-2.066-0.049-2.868L191.921,348.121z"/>
	<polygon fill="#4A4863" points="193.29,351.021 201.646,359.923 193.29,368.234 184.932,359.923 	"/>
	<polygon fill="#A49FDB" points="193.29,368.234 193.29,359.448 184.932,359.923 	"/>
	<polygon fill="#37364A" points="193.29,359.448 201.601,359.968 193.29,368.234 	"/>
	<polygon fill="#69668C" points="193.29,359.448 193.29,351.021 184.932,359.923 	"/>
	<path fill="#85213B" d="M216.182,426.078c0.595-0.633,1.566-0.633,2.162,0l7.771,8.282c0.595,0.633,0.578,1.652-0.038,2.266
		l-7.696,7.652c-0.615,0.612-1.623,0.612-2.237,0l-7.697-7.652c-0.615-0.612-0.633-1.633-0.038-2.266L216.182,426.078z"/>
	<path fill="#DBC868" d="M216.182,423.429c0.595-0.633,1.566-0.633,2.162,0l7.771,8.282c0.595,0.633,0.578,1.651-0.038,2.265
		l-7.696,7.653c-0.615,0.611-1.623,0.611-2.237,0l-7.697-7.653c-0.615-0.612-0.633-1.632-0.038-2.265L216.182,423.429z"/>
	<polygon fill="#4A4863" points="217.263,425.717 223.859,432.743 217.263,439.304 210.667,432.743 	"/>
	<polygon fill="#A49FDB" points="217.263,439.304 217.263,432.368 210.667,432.743 	"/>
	<polygon fill="#37364A" points="217.263,432.368 223.824,432.78 217.263,439.304 	"/>
	<polygon fill="#69668C" points="217.263,432.368 217.263,425.717 210.667,432.743 	"/>
	<path fill="#4F2C35" d="M306.357,448.129c2.756-18.084,7.48-39.597,15.481-55.916c14.556-29.685,40.688-64.096,47.502-72.872
		c-1.351-2.751-3.027-5.226-4.141-7.399l-66.696,71.598l-2.776,65.961C299.344,449.085,302.884,448.625,306.357,448.129z"/>
	<path fill="#AB2B4C" d="M298.91,449.118c11.709-78.657,68.635-133.185,68.635-133.185l-10.477-19.77c-0.975,0-6.495,0-32.446,0
		c-44.39,38.601-57.121,116.229-60.765,155.687C276.193,451.434,287.887,450.474,298.91,449.118z"/>
	<path fill="#85213B" d="M333.292,318.345c-0.753-0.802-1.984-0.802-2.737,0l-9.849,10.493c-0.753,0.802-0.73,2.093,0.049,2.867
		l9.75,9.696c0.78,0.775,2.057,0.775,2.836,0l9.751-9.696c0.779-0.774,0.803-2.065,0.05-2.867L333.292,318.345z"/>
	<path fill="#DBC868" d="M333.292,315.612c-0.753-0.802-1.984-0.802-2.737,0l-9.849,10.493c-0.753,0.802-0.73,2.093,0.049,2.868
		l9.75,9.697c0.78,0.774,2.057,0.774,2.836,0l9.751-9.697c0.779-0.775,0.803-2.066,0.05-2.867L333.292,315.612z"/>
	<polygon fill="#4A4863" points="331.923,318.51 323.566,327.412 331.923,335.723 340.28,327.412 	"/>
	<polygon fill="#A49FDB" points="331.923,335.723 331.923,326.94 340.28,327.412 	"/>
	<polygon fill="#37364A" points="331.923,326.94 323.611,327.456 331.923,335.723 	"/>
	<polygon fill="#69668C" points="331.923,326.94 331.923,318.51 340.28,327.412 	"/>
	<path fill="#85213B" d="M292.982,391.612c-0.753-0.802-1.985-0.802-2.738,0l-9.848,10.493c-0.753,0.802-0.731,2.093,0.049,2.868
		l9.75,9.697c0.78,0.774,2.056,0.774,2.836,0l9.751-9.697c0.779-0.775,0.802-2.066,0.049-2.867L292.982,391.612z"/>
	<path fill="#DBC868" d="M292.982,388.901c-0.753-0.803-1.985-0.803-2.738,0l-9.848,10.492c-0.753,0.803-0.731,2.094,0.049,2.869
		l9.75,9.697c0.78,0.774,2.056,0.774,2.836,0l9.751-9.697c0.779-0.775,0.802-2.066,0.049-2.868L292.982,388.901z"/>
	<polygon fill="#4A4863" points="291.613,391.799 283.257,400.7 291.613,409.012 299.97,400.7 	"/>
	<polygon fill="#A49FDB" points="291.613,409.012 291.613,400.228 299.97,400.7 	"/>
	<polygon fill="#37364A" points="291.613,400.228 283.302,400.745 291.613,409.012 	"/>
	<polygon fill="#69668C" points="291.613,400.228 291.613,391.799 299.97,400.7 	"/>
	<path fill="#85213B" d="M309.21,350.832c-0.753-0.802-1.984-0.802-2.737,0l-9.849,10.493c-0.753,0.803-0.73,2.094,0.049,2.868
		l9.75,9.697c0.78,0.775,2.057,0.775,2.836,0l9.752-9.697c0.778-0.774,0.802-2.065,0.049-2.867L309.21,350.832z"/>
	<path fill="#DBC868" d="M309.21,348.121c-0.753-0.803-1.984-0.803-2.737,0l-9.849,10.492c-0.753,0.804-0.73,2.094,0.049,2.869
		l9.75,9.697c0.78,0.774,2.057,0.774,2.836,0l9.752-9.697c0.778-0.775,0.802-2.066,0.049-2.868L309.21,348.121z"/>
	<polygon fill="#4A4863" points="307.841,351.021 299.484,359.923 307.841,368.234 316.198,359.923 	"/>
	<polygon fill="#A49FDB" points="307.841,368.234 307.841,359.448 316.198,359.923 	"/>
	<polygon fill="#37364A" points="307.841,359.448 299.529,359.968 307.841,368.234 	"/>
	<polygon fill="#69668C" points="307.841,359.448 307.841,351.021 316.198,359.923 	"/>
	<path fill="#85213B" d="M284.948,426.078c-0.595-0.633-1.567-0.633-2.162,0l-7.771,8.282c-0.596,0.633-0.578,1.652,0.038,2.266
		l7.695,7.652c0.616,0.612,1.623,0.612,2.238,0l7.697-7.652c0.614-0.612,0.633-1.633,0.038-2.266L284.948,426.078z"/>
	<path fill="#DBC868" d="M284.948,423.429c-0.595-0.633-1.567-0.633-2.162,0l-7.771,8.282c-0.596,0.633-0.578,1.651,0.038,2.265
		l7.695,7.653c0.616,0.611,1.623,0.611,2.238,0l7.697-7.653c0.614-0.612,0.633-1.632,0.038-2.265L284.948,423.429z"/>
	<polygon fill="#4A4863" points="283.867,425.717 277.271,432.743 283.867,439.304 290.464,432.743 	"/>
	<polygon fill="#A49FDB" points="283.867,439.304 283.867,432.368 290.464,432.743 	"/>
	<polygon fill="#37364A" points="283.867,432.368 277.306,432.78 283.867,439.304 	"/>
	<polygon fill="#69668C" points="283.867,432.368 283.867,425.717 290.464,432.743 	"/>
	<path fill="#6B1B30" d="M250.565,311.471l-111.121-12.887v3.605v6.479c0,0,46.205,11.079,111.121,12.079
		c64.916-1,111.156-12.079,111.156-12.079v-6.479v-3.605L250.565,311.471z"/>
	<path fill="#AB2B4C" d="M361.696,280.461c-47.233,11.385-111.131,11.234-111.131,11.234s-63.862,0.149-111.096-11.234
		c-0.023,20.544-0.025,21.729-0.025,21.729s69.398,12.739,111.121,12.739s111.156-12.739,111.156-12.739
		S361.719,301.005,361.696,280.461z"/>
	<path fill="#7A4451" d="M405.987,418.607c-7.545-30.348-18.371-58.343-27.665-79.354c-0.006,0.005-41.558,40.709-44.245,103.868
		C367.968,435.666,392.535,425.245,405.987,418.607z"/>
	<path fill="#7A4451" d="M167.002,443.356c-2.595-63.293-44.249-104.099-44.254-104.104c-9.342,21.119-20.232,49.295-27.782,79.823
		C108.757,425.8,133.347,436.06,167.002,443.356z"/>
	<path fill="#7A4451" d="M250.528,324.625c-29.573,0-43.324-2.728-43.324-2.728c29.915,35.021,36.947,120.416,36.947,120.416h6.377
		h6.377c0,0,7.032-85.396,36.947-120.416C293.852,321.899,280.101,324.625,250.528,324.625z"/>
	<circle fill="#EDD870" cx="122.87" cy="339.373" r="2.277"/>
	<circle fill="#EDD870" cx="126.08" cy="343.112" r="2.277"/>
	<circle fill="#EDD870" cx="129.29" cy="346.852" r="2.277"/>
	<circle fill="#EDD870" cx="132.447" cy="350.631" r="2.277"/>
	<circle fill="#EDD870" cx="135.327" cy="354.631" r="2.277"/>
	<circle fill="#EDD870" cx="138.206" cy="358.629" r="2.277"/>
	<circle fill="#EDD870" cx="140.837" cy="362.794" r="2.277"/>
	<circle fill="#EDD870" cx="143.414" cy="366.994" r="2.277"/>
	<circle fill="#EDD870" cx="145.992" cy="371.194" r="2.277"/>
	<circle fill="#EDD870" cx="148.319" cy="375.537" r="2.277"/>
	<circle fill="#EDD870" cx="150.558" cy="379.926" r="2.277"/>
	<circle fill="#EDD870" cx="152.657" cy="384.384" r="2.277"/>
	<circle fill="#EDD870" cx="154.615" cy="388.906" r="2.277"/>
	<circle fill="#EDD870" cx="156.456" cy="393.475" r="2.277"/>
	<circle fill="#EDD870" cx="158.166" cy="398.096" r="2.277"/>
	<circle fill="#EDD870" cx="159.74" cy="402.765" r="2.277"/>
	<circle fill="#EDD870" cx="161.176" cy="407.477" r="2.277"/>
	<circle fill="#EDD870" cx="162.377" cy="412.257" r="2.277"/>
	<circle fill="#EDD870" cx="163.539" cy="417.045" r="2.277"/>
	<circle fill="#EDD870" cx="164.554" cy="421.866" r="2.277"/>
	<circle fill="#EDD870" cx="165.424" cy="426.716" r="2.277"/>
	<circle fill="#EDD870" cx="166.062" cy="431.598" r="2.277"/>
	<circle fill="#EDD870" cx="166.497" cy="436.506" r="2.277"/>
	<circle fill="#EDD870" cx="166.908" cy="441.416" r="2.277"/>
	<circle fill="#EDD870" cx="378.259" cy="339.373" r="2.277"/>
	<circle fill="#EDD870" cx="375.049" cy="343.112" r="2.277"/>
	<circle fill="#EDD870" cx="371.839" cy="346.852" r="2.277"/>
	<circle fill="#EDD870" cx="368.681" cy="350.631" r="2.277"/>
	<circle fill="#EDD870" cx="365.802" cy="354.631" r="2.277"/>
	<circle fill="#EDD870" cx="362.923" cy="358.629" r="2.277"/>
	<circle fill="#EDD870" cx="360.292" cy="362.794" r="2.277"/>
	<circle fill="#EDD870" cx="357.715" cy="366.994" r="2.277"/>
	<circle fill="#EDD870" cx="355.136" cy="371.194" r="2.277"/>
	<circle fill="#EDD870" cx="352.809" cy="375.537" r="2.277"/>
	<circle fill="#EDD870" cx="350.57" cy="379.926" r="2.277"/>
	<circle fill="#EDD870" cx="348.471" cy="384.384" r="2.277"/>
	<circle fill="#EDD870" cx="346.513" cy="388.906" r="2.277"/>
	<circle fill="#EDD870" cx="344.673" cy="393.475" r="2.277"/>
	<circle fill="#EDD870" cx="342.963" cy="398.096" r="2.277"/>
	<circle fill="#EDD870" cx="341.388" cy="402.765" r="2.277"/>
	<circle fill="#EDD870" cx="339.953" cy="407.477" r="2.277"/>
	<circle fill="#EDD870" cx="338.752" cy="412.257" r="2.277"/>
	<circle fill="#EDD870" cx="337.59" cy="417.045" r="2.277"/>
	<circle fill="#EDD870" cx="336.574" cy="421.866" r="2.277"/>
	<circle fill="#EDD870" cx="335.705" cy="426.716" r="2.277"/>
	<circle fill="#EDD870" cx="335.066" cy="431.598" r="2.277"/>
	<circle fill="#EDD870" cx="334.632" cy="436.506" r="2.277"/>
	<circle fill="#EDD870" cx="334.22" cy="441.416" r="2.277"/>
	<circle fill="#EDD870" cx="293.888" cy="321.953" r="2.277"/>
	<circle fill="#EDD870" cx="290.969" cy="325.682" r="2.277"/>
	<circle fill="#EDD870" cx="288.297" cy="329.59" r="2.277"/>
	<circle fill="#EDD870" cx="285.766" cy="333.59" r="2.277"/>
	<circle fill="#EDD870" cx="283.48" cy="337.739" r="2.277"/>
	<circle fill="#EDD870" cx="281.344" cy="341.963" r="2.277"/>
	<circle fill="#EDD870" cx="279.35" cy="346.258" r="2.277"/>
	<circle fill="#EDD870" cx="277.481" cy="350.609" r="2.277"/>
	<circle fill="#EDD870" cx="275.739" cy="355.011" r="2.277"/>
	<circle fill="#EDD870" cx="274.112" cy="359.459" r="2.277"/>
	<circle fill="#EDD870" cx="272.58" cy="363.941" r="2.277"/>
	<circle fill="#EDD870" cx="271.145" cy="368.453" r="2.277"/>
	<circle fill="#EDD870" cx="269.809" cy="372.998" r="2.277"/>
	<circle fill="#EDD870" cx="268.475" cy="377.542" r="2.277"/>
	<circle fill="#EDD870" cx="267.305" cy="382.131" r="2.277"/>
	<circle fill="#EDD870" cx="266.138" cy="386.721" r="2.277"/>
	<circle fill="#EDD870" cx="265.102" cy="391.343" r="2.277"/>
	<circle fill="#EDD870" cx="264.065" cy="395.964" r="2.277"/>
	<circle fill="#EDD870" cx="263.155" cy="400.612" r="2.277"/>
	<circle fill="#EDD870" cx="262.272" cy="405.265" r="2.277"/>
	<circle fill="#EDD870" cx="261.389" cy="409.918" r="2.277"/>
	<circle fill="#EDD870" cx="260.604" cy="414.588" r="2.277"/>
	<circle fill="#EDD870" cx="259.89" cy="419.27" r="2.277"/>
	<circle fill="#EDD870" cx="259.176" cy="423.953" r="2.277"/>
	<circle fill="#EDD870" cx="258.5" cy="428.64" r="2.277"/>
	<circle fill="#EDD870" cx="257.927" cy="433.342" r="2.277"/>
	<circle fill="#EDD870" cx="257.353" cy="438.043" r="2.277"/>
	<circle fill="#EDD870" cx="256.779" cy="442.744" r="2.277"/>
	<circle fill="#EDD870" cx="207.168" cy="321.953" r="2.277"/>
	<circle fill="#EDD870" cx="210.088" cy="325.682" r="2.277"/>
	<circle fill="#EDD870" cx="212.76" cy="329.59" r="2.277"/>
	<circle fill="#EDD870" cx="215.29" cy="333.59" r="2.277"/>
	<circle fill="#EDD870" cx="217.576" cy="337.739" r="2.277"/>
	<circle fill="#EDD870" cx="219.713" cy="341.963" r="2.277"/>
	<circle fill="#EDD870" cx="221.706" cy="346.258" r="2.277"/>
	<circle fill="#EDD870" cx="223.575" cy="350.609" r="2.277"/>
	<circle fill="#EDD870" cx="225.317" cy="355.011" r="2.277"/>
	<circle fill="#EDD870" cx="226.944" cy="359.459" r="2.277"/>
	<circle fill="#EDD870" cx="228.476" cy="363.941" r="2.277"/>
	<circle fill="#EDD870" cx="229.911" cy="368.453" r="2.277"/>
	<circle fill="#EDD870" cx="231.247" cy="372.998" r="2.277"/>
	<circle fill="#EDD870" cx="232.581" cy="377.542" r="2.277"/>
	<circle fill="#EDD870" cx="233.751" cy="382.131" r="2.277"/>
	<circle fill="#EDD870" cx="234.918" cy="386.721" r="2.277"/>
	<circle fill="#EDD870" cx="235.954" cy="391.343" r="2.277"/>
	<circle fill="#EDD870" cx="236.991" cy="395.964" r="2.277"/>
	<circle fill="#EDD870" cx="237.901" cy="400.612" r="2.277"/>
	<circle fill="#EDD870" cx="238.784" cy="405.265" r="2.277"/>
	<circle fill="#EDD870" cx="239.667" cy="409.918" r="2.277"/>
	<circle fill="#EDD870" cx="240.452" cy="414.588" r="2.277"/>
	<circle fill="#EDD870" cx="241.166" cy="419.27" r="2.277"/>
	<circle fill="#EDD870" cx="241.881" cy="423.953" r="2.277"/>
	<circle fill="#EDD870" cx="242.556" cy="428.64" r="2.277"/>
	<circle fill="#EDD870" cx="243.13" cy="433.342" r="2.277"/>
	<circle fill="#EDD870" cx="243.703" cy="438.043" r="2.277"/>
	<circle fill="#EDD870" cx="244.277" cy="442.744" r="2.277"/>
	<path fill="#4F2C35" d="M410.141,416.5l-0.023-0.103c-1.796-8.085-3.951-16.468-6.405-24.913l-0.479-1.647l-1.701,0.223
		c-15.881,2.082-27.119,15.988-25.916,31.857c-5.105-3.781-11.32-5.876-17.732-5.876c-1.019,0-2.053,0.054-3.073,0.158
		c-13.394,1.375-23.96,11.41-26.337,24.225c-5.606-6.112-13.503-9.644-21.958-9.644c-1.023,0-2.062,0.053-3.084,0.158
		c-11.982,1.229-21.647,9.339-25.282,20.177C346.242,446.384,392.688,425.61,410.141,416.5z"/>
	<path fill="#4F2C35" d="M223.638,451.231c-3.723-10.677-13.368-18.787-25.173-19.996c-1.022-0.105-2.061-0.158-3.083-0.158
		c-8.364,0-16.206,3.472-21.807,9.482c-2.324-12.884-12.906-22.978-26.365-24.359c-1.02-0.104-2.054-0.158-3.073-0.158
		c-6.412,0-12.626,2.094-17.732,5.874c0.576-7.656-1.761-15.117-6.627-21.096c-5.041-6.193-12.192-10.054-20.136-10.867
		l-1.813-0.146l-0.455,1.565c-2.466,8.477-4.633,16.896-6.438,25.025l-0.133,0.594C109.106,426.415,155.772,446.82,223.638,451.231z
		"/>
	<path fill="#4F2C35" d="M250,452.088c9.548,0,18.743-0.334,27.581-0.936c-5.019-9.704-15.183-16.279-26.543-16.279
		c-0.669,0-1.349,0.022-2.021,0.068c-10.808,0.721-20.031,7.136-24.675,16.334C232.59,451.797,241.141,452.088,250,452.088z"/>
	<path fill="#663944" d="M282.885,447.748c4.19-7.65,11.964-12.914,20.854-13.825c0.918-0.095,1.852-0.143,2.778-0.143
		c7.197,0,14.121,2.915,19.136,8.027C312.626,444.382,298.343,446.478,282.885,447.748L282.885,447.748z M331.495,440.604
		c2.29-11.438,11.952-20.222,23.623-21.42c0.923-0.095,1.854-0.143,2.767-0.143c5.681,0,11.344,1.878,15.947,5.287l4.013,2.972
		C365.246,431.916,349.699,436.699,331.495,440.604L331.495,440.604z M378.608,421.691c-1.056-13.929,8.756-26.295,22.466-28.531
		c2.121,7.354,4.011,14.65,5.63,21.735c-6.206,3.145-15.53,7.466-27.702,11.979L378.608,421.691z"/>
	<path fill="#663944" d="M218.85,447.881c-15.38-1.196-29.638-3.222-42.649-5.728c5.021-5.141,11.976-8.077,19.182-8.077
		c0.926,0,1.859,0.048,2.775,0.143C206.89,435.114,214.6,440.314,218.85,447.881L218.85,447.881z M170.613,441.033
		c-18.475-3.854-34.28-8.629-47.091-13.251l4.668-3.456c4.604-3.408,10.267-5.285,15.947-5.285c0.914,0,1.844,0.048,2.768,0.143
		C158.743,420.4,168.484,429.38,170.613,441.033L170.613,441.033z M122.97,427.582c-12.642-4.587-22.325-9.01-28.729-12.212
		c1.652-7.276,3.593-14.784,5.78-22.356c6.836,0.859,13.027,4.29,17.43,9.699c4.362,5.359,6.479,12.1,5.962,18.977L122.97,427.582z"
		/>
	<path fill="#663944" d="M250,449.088c-6.771,0-13.627-0.175-20.446-0.521c4.653-6.148,11.839-10.111,19.664-10.633
		c0.601-0.041,1.212-0.062,1.821-0.062c8.301,0,16.229,4.043,21.289,10.598C264.913,448.881,257.424,449.088,250,449.088
		L250,449.088z"/>
	<circle fill="#EDD870" cx="106.058" cy="410.154" r="4.069"/>
	<circle fill="#FFE879" cx="107.058" cy="409.154" r="1.896"/>
	<circle fill="#EDD870" cx="148.792" cy="427.42" r="4.069"/>
	<circle fill="#FFE879" cx="149.792" cy="426.42" r="1.896"/>
	<circle fill="#EDD870" cx="198.501" cy="440.004" r="4.069"/>
	<circle fill="#FFE879" cx="199.501" cy="439.004" r="1.896"/>
	<circle fill="#EDD870" cx="250.962" cy="443.481" r="4.069"/>
	<circle fill="#FFE879" cx="251.962" cy="442.481" r="1.896"/>
	<circle fill="#EDD870" cx="303.555" cy="440.013" r="4.069"/>
	<circle fill="#FFE879" cx="304.555" cy="439.013" r="1.896"/>
	<circle fill="#EDD870" cx="352.648" cy="428.268" r="4.069"/>
	<circle fill="#FFE879" cx="353.648" cy="427.268" r="1.896"/>
	<circle fill="#EDD870" cx="393.602" cy="411.485" r="4.069"/>
	<circle fill="#FFE879" cx="394.602" cy="410.485" r="1.896"/>
	<path fill="#9E5869" d="M251.364,332.323c-9.256,0-20.856,0-20.856,0c8.583,16.875,20.856,65.772,20.856,65.772
		s12.273-48.897,20.856-65.772C272.22,332.323,260.62,332.323,251.364,332.323z"/>
</g>
</svg>
