<?xml version="1.0" encoding="utf-8"?>
<!-- Generator: Adobe Illustrator 14.0.0, SVG Export Plug-In . SVG Version: 6.00 Build 43363)  -->
<!DOCTYPE svg PUBLIC "-//W3C//DTD SVG 1.1 Basic//EN" "http://www.w3.org/Graphics/SVG/1.1/DTD/svg11-basic.dtd">
<svg version="1.1" baseProfile="basic" id="content"
	 xmlns="http://www.w3.org/2000/svg" xmlns:xlink="http://www.w3.org/1999/xlink" x="0px" y="0px" width="500px" height="500px"
	 viewBox="0 0 500 500" xml:space="preserve">
<rect id="position" x="0.5" y="0.5" display="none" fill="none" stroke="#000000" width="499" height="499"/>
<g id="bounds" display="none">
	
		<rect x="-0.208" y="80.372" display="inline" fill="none" stroke="#EAEAEA" stroke-miterlimit="10" width="499.501" height="499.497"/>
</g>
<g>
	<g>
		<path fill="#D9A4B4" d="M145.905,175.617l-20.242,14.353L69.975,260.97v111.132h61.256v-93.033l14.673-5.396L145.905,175.617
			L145.905,175.617z"/>
	</g>
	<g>
		<polygon fill="#D9A4B4" points="271.462,175.493 249.566,209.474 227.67,175.493 145.905,175.493 145.944,480.5 353.242,480.5 
			353.242,175.493 		"/>
		<rect x="145.925" y="175.493" fill="#C797A5" width="17.948" height="305.007"/>
		<rect x="179.247" y="175.493" fill="#C797A5" width="15.864" height="305.007"/>
		<line fill="none" x1="210.485" y1="175.493" x2="221.5" y2="175.493"/>
		<polygon fill="#C797A5" points="249.558,209.474 241.724,197.304 241.724,480.5 257.588,480.5 257.588,197.025 		"/>
		<polygon fill="#C797A5" points="280.109,175.493 277.617,175.493 272.963,175.493 272.963,480.5 288.827,480.5 288.827,175.493 		
			"/>
		<polygon fill="#C797A5" points="219.007,175.493 221.5,175.493 226.154,175.493 226.154,480.5 210.29,480.5 210.29,175.493 		"/>
		<rect x="304.201" y="175.493" fill="#C797A5" width="15.863" height="305.007"/>
		<rect x="335.439" y="175.493" fill="#C797A5" width="17.803" height="305.007"/>
	</g>
	<polygon fill="#C797A5" points="145.905,193.209 132.215,199.752 84.253,261.677 84.253,372.102 69.975,372.102 69.975,260.97 
		125.663,189.969 145.905,175.493 	"/>
	<polygon fill="#C797A5" points="139.78,237.339 115.312,268.115 115.312,372.102 101.035,372.102 101.035,267.408 137.254,221.839 
		145.905,215.44 145.905,233.619 	"/>
	<g>
		<path fill="#D9A4B4" d="M353.227,175.617l20.242,14.353l55.688,71.001v111.132H367.9v-93.033l-14.674-5.396V175.617
			L353.227,175.617z"/>
	</g>
	<polygon fill="#C797A5" points="353.227,193.209 366.918,199.752 414.881,261.677 414.881,372.102 429.156,372.102 429.156,260.97 
		373.469,189.969 353.227,175.493 	"/>
	<polygon fill="#C797A5" points="359.352,237.339 383.82,268.115 383.82,372.102 398.098,372.102 398.098,267.408 361.879,221.839 
		353.227,215.44 353.227,233.619 	"/>
	<polygon opacity="0.5" fill="#B88C99" points="304.201,219.748 270.527,219.748 270.525,257.099 304.199,267.762 337.873,257.099 
		337.875,219.748 	"/>
	<polygon fill="#DEA8B8" points="304.201,216.861 270.527,216.861 270.525,254.212 304.199,264.874 337.873,254.212 
		337.875,216.861 	"/>
	<polygon fill="#D19FAD" points="285.303,258.891 285.303,216.861 270.527,216.861 270.527,254.213 	"/>
	<polygon fill="#D19FAD" points="323.1,258.89 337.873,254.212 337.875,216.861 323.1,216.861 	"/>
	<polygon fill="#D19FAD" points="296.5,262.436 304.199,264.874 311.273,262.635 311.273,216.861 304.201,216.861 296.5,216.861 	
		"/>
	<rect x="270.527" y="214.019" fill="#EDB3C4" width="67.348" height="2.842"/>
</g>
</svg>
