<?xml version="1.0" encoding="utf-8"?>
<!-- Generator: Adobe Illustrator 18.0.0, SVG Export Plug-In . SVG Version: 6.00 Build 0)  -->
<!DOCTYPE svg PUBLIC "-//W3C//DTD SVG 1.1//EN" "http://www.w3.org/Graphics/SVG/1.1/DTD/svg11.dtd">
<svg version="1.1" id="content" xmlns="http://www.w3.org/2000/svg" xmlns:xlink="http://www.w3.org/1999/xlink" x="0px" y="0px"
	 viewBox="0 0 500 500" enable-background="new 0 0 500 500" xml:space="preserve">
<rect id="position" display="none" fill="none" stroke="#000000" stroke-width="0.9955" width="500" height="500"/>
<g>
	<g>
		<path fill="#A51938" d="M77.7,297.5V199c0-13.4,11-24.4,24.7-24.4l0,0c13.6,0,24.7,10.9,24.7,24.4v98.5H77.7z"/>
	</g>
	<path fill="#B31B3D" d="M83.2,275.2c-3.2,0-5.5,2.5-5.5,2.5v19.7h10.4v-19.7C88.2,277.8,86.3,275.2,83.2,275.2z"/>
	<path fill="#B31B3D" d="M96,275.2c-3.2,0-5.5,2.5-5.5,2.5v19.7h10.5v-19.7C101,277.8,99.3,275.2,96,275.2z"/>
	<path fill="#B31B3D" d="M108.9,275.2c-3.2,0-5.5,2.5-5.5,2.5v19.7H114v-19.7C114.1,277.8,112.2,275.2,108.9,275.2z"/>
	<path fill="#B31B3D" d="M122,275.2c-3.2,0-5.5,2.5-5.5,2.5v19.7h10.5v-19.7C127.2,277.8,125.2,275.2,122,275.2z"/>
	<rect x="77.7" y="267.7" fill="#C95F77" width="49.4" height="4.7"/>
	<g>
		<rect x="112.4" y="236.5" fill="#C95F77" width="4.9" height="4.8"/>
		<rect x="117.2" y="241.4" fill="#C95F77" width="4.9" height="4.8"/>
		<rect x="122.1" y="246.2" fill="#C95F77" width="4.9" height="4.8"/>
		<rect x="97.5" y="221.9" fill="#C95F77" width="4.9" height="4.8"/>
		<rect x="102.4" y="226.7" fill="#C95F77" width="4.9" height="4.8"/>
		<rect x="107.3" y="231.6" fill="#C95F77" width="4.9" height="4.8"/>
		<rect x="82.6" y="207.2" fill="#C95F77" width="4.9" height="4.8"/>
		<rect x="87.5" y="212.1" fill="#C95F77" width="4.9" height="4.8"/>
		<rect x="92.5" y="216.9" fill="#C95F77" width="4.9" height="4.8"/>
		<rect x="77.7" y="202.3" fill="#C95F77" width="4.9" height="4.8"/>
	</g>
</g>
</svg>
