<?xml version="1.0" encoding="utf-8"?>
<!-- Generator: Adobe Illustrator 14.0.0, SVG Export Plug-In . SVG Version: 6.00 Build 43363)  -->
<!DOCTYPE svg PUBLIC "-//W3C//DTD SVG 1.1 Basic//EN" "http://www.w3.org/Graphics/SVG/1.1/DTD/svg11-basic.dtd">
<svg version="1.1" baseProfile="basic" id="content"
	 xmlns="http://www.w3.org/2000/svg" xmlns:xlink="http://www.w3.org/1999/xlink" x="0px" y="0px" width="500px" height="500px"
	 viewBox="0 0 500 500" xml:space="preserve">
<rect id="position" x="0.5" y="0.5" display="none" fill="none" stroke="#000000" width="499" height="499"/>
<g id="bounds" display="none">
	
		<rect x="-0.208" y="80.372" display="inline" fill="none" stroke="#EAEAEA" stroke-miterlimit="10" width="499.501" height="499.494"/>
</g>
<g>
	<g>
		<path fill="#615A4C" d="M145.594,174.97l-19.934,15.36l-55.688,71.001v111.132h61.256v-93.032l14.361-5.396V174.97H145.594z"/>
		<path fill="#615A4C" d="M353.154,174.608l20.314,15.361l55.688,71.001v111.132H367.9v-93.033l-14.746-5.396V174.608
			L353.154,174.608z"/>
		<polygon fill="#615A4C" points="295.006,174.608 245.31,238 200.143,174.608 200.143,174.608 145.594,174.608 145.881,480.5 
			353.203,480.5 353.154,174.608 		"/>
		<path fill="#665F50" d="M162.583,333.594c-5.699-14.646-5.204-22.298-5.204-22.298s20.319,22.185,12.64,40.313
			c9.663-14.577,12.146-25.975,12.146-25.975s6.687,29.455-2.979,47.188c19.328-23.151,13.382-49.914,13.382-49.914
			s8.622,22.055,23.465,16.604C203.965,335.053,200,318.99,200,318.99s9.168,0.605,11.896,11.558
			c-1.982-19.622-22.055-43.707-22.055-43.707s10.159,4.852,17.563,18.566c-1.691-18.992-20.039-43.45-20.039-43.45
			s9.664,8.178,15.363,16.603C197.77,257.991,172,241.638,172,241.638s8.672,1.486,13.876-1.734
			c-21.31-3.717-21.31-39.646-21.31-39.646s4.955,5.699,7.434,16.603c0.744-19.327-4.98-42.251-4.98-42.251h-21.422l0.285,122.671
			C150.551,310.947,156.842,326.951,162.583,333.594z"/>
		<path fill="#665F50" d="M327.131,216.859c2.479-10.901,7.436-16.603,7.436-16.603s0,35.931-21.313,39.646
			c5.203,3.223,13.877,1.734,13.877,1.734s-25.771,16.354-30.727,36.92c5.699-8.426,15.363-16.603,15.363-16.603
			s-18.351,24.458-20.039,43.45c7.398-13.718,17.561-18.566,17.561-18.566s-20.068,24.084-22.053,43.707
			c2.726-10.949,11.895-11.558,11.895-11.558s-3.966,16.063-16.029,20.521c14.842,5.451,23.465-16.604,23.465-16.604
			s-5.947,26.763,13.381,49.914c-9.662-17.73-2.979-47.188-2.979-47.188s2.482,11.396,12.146,25.976
			c-7.682-18.132,12.639-40.313,12.639-40.313s0.494,7.648-5.205,22.297c5.727-6.618,11.992-22.546,16.656-36.187l-0.049-122.802
			h-21.041C332.111,174.608,326.385,197.531,327.131,216.859z"/>
		<path fill="#D6C7AB" d="M249.708,239.413c-0.024-0.015-0.067-0.044-0.083-0.044C249.594,239.369,249.626,239.385,249.708,239.413z
			"/>
		<path fill="#E5D5B7" d="M368.447,369.878h29.938h29.938c0,0,4.465,5.878,1.234,12.798c-0.268-4.198-1.234-5.313-1.234-5.313
			s-0.912,5.809-4.975,7.537c-4.064,1.729-14.584,0.866-24.965,0.866c-10.379,0-20.896,0.863-24.961-0.866s-4.977-7.537-4.977-7.537
			s-0.971,1.113-1.234,5.313C363.982,375.756,368.447,369.878,368.447,369.878z"/>
		<path fill="#E5D5B7" d="M130.121,370.088h-29.937H70.248c0,0-4.465,5.878-1.233,12.799c0.265-4.199,1.233-5.313,1.233-5.313
			s0.912,5.809,4.977,7.537c4.063,1.729,14.583,0.866,24.962,0.866s20.897,0.863,24.962-0.866c4.063-1.729,4.975-7.537,4.975-7.537
			s0.972,1.113,1.235,5.313C134.586,375.966,130.121,370.088,130.121,370.088z"/>
		<path fill="#665F50" d="M145.594,180.476c-6.732,4.823-31.999,26.419-35.971,42.898c5.699-8.425,15.363-16.604,15.363-16.604
			s-18.348,24.458-20.039,43.452c7.401-13.718,17.561-18.565,17.561-18.565s-20.068,24.084-22.053,43.704
			c2.728-10.947,11.896-11.555,11.896-11.555s-3.965,16.063-16.031,20.521c14.843,5.449,23.465-16.604,23.465-16.604
			s-4.967,22.415,9.006,43.965h1.852c-5.794-17.665-0.452-41.236-0.452-41.236s0.692,3.187,2.773,8.339l12.634-3.773
			c0.785-2.013,1.527-68.479,1.527-68.479C147.122,199.503,150.685,185.161,145.594,180.476z"/>
		<path fill="#665F50" d="M353.154,179.645c6.732,4.824,31.541,26.419,35.512,42.898c-5.697-8.425-15.359-16.604-15.359-16.604
			s18.348,24.458,20.037,43.452c-7.4-13.718-17.563-18.565-17.563-18.565s20.07,24.084,22.055,43.706
			c-2.727-10.949-11.895-11.557-11.895-11.557s3.965,16.063,16.031,20.521c-14.846,5.451-23.467-16.604-23.467-16.604
			s4.969,22.415-9.008,43.965h-1.6c5.795-17.665,0.203-41.236,0.203-41.236s-0.693,3.187-2.773,8.339l-12.176-3.773
			c-0.787-2.013-5.729-29.964-6.689-31.771l6.689-36.84C353.154,198.54,348.063,184.33,353.154,179.645z"/>
	</g>
	<path fill="#E5D5B7" d="M264.387,366.805c0.775-2.122,1.407-4.119,1.938-6.024c0.45,1.404,0.204,3.417-0.132,5.136
		c4.806-7.331,3.404-16.786,3.404-16.786s0.573,0.063,1.139,4.155c2.322-15.174-8.536-25.888-9.969-26.858
		c3.405-5.354,5.809-12.479,5.809-12.479s0.893,1.46,0.973,4.461c3.895-6.648,2.84-14.923,2.84-14.923s1.299,1.379,1.702,4.866
		c1.622-6.083-1.62-22.304-7.702-25.547c0.774-2.122,1.406-4.119,1.938-6.023c0.451,1.403,0.205,3.417-0.133,5.136
		c4.807-7.332,3.404-16.787,3.404-16.787s0.574,0.063,1.141,4.156c2.32-15.175-8.99-23.063-10.422-24.035h-21.504
		c-1.433,0.974-12.743,8.86-10.422,24.035c0.563-4.093,1.14-4.156,1.14-4.156s-1.401,9.455,3.404,16.787
		c-0.337-1.719-0.583-3.73-0.132-5.136c0.529,1.904,1.161,3.901,1.938,6.023c-6.082,3.243-9.326,19.464-7.704,25.547
		c0.405-3.487,1.703-4.866,1.703-4.866s-1.054,8.271,2.839,14.923c0.081-3.001,0.974-4.461,0.974-4.461s2.4,7.125,5.808,12.479
		c-1.432,0.973-12.29,11.687-9.969,26.858c0.563-4.092,1.14-4.155,1.14-4.155s-1.401,9.455,3.404,16.786
		c-0.337-1.719-0.583-3.729-0.132-5.136c0.529,1.905,1.161,3.902,1.938,6.024c-6.082,3.243-9.326,19.464-7.704,25.547
		c0.405-3.487,1.703-4.866,1.703-4.866s-1.054,8.271,2.839,14.923c0.081-3.001,0.974-4.461,0.974-4.461s1.946,7.3,5.354,12.652
		c-1.027,0.979-1.935,2.101-2.728,3.335c-0.002-0.063-0.004-0.102-0.004-0.102s-8.101,9.489-6.301,23.893
		c0.823-3.646,1.229-3.521,1.229-3.521s-1.08,12.766,2.772,19.558c-0.38-2.739-0.423-5.892-0.047-8.225
		c1.575,5.66,4.045,10.938,7.256,15.017c0,0-7.572,6.444-9.198,13.194c0.861-1.252,2.086-2,2.968-2.411
		c-1.313,2.977-2.387,6.021-3.237,8.896h18.099h0.45h0.801h18.55c-0.854-2.876-1.926-5.922-3.237-8.896
		c0.882,0.411,2.104,1.159,2.968,2.411c-1.626-6.75-9.199-13.194-9.199-13.194c3.211-4.077,5.682-9.354,7.258-15.017
		c0.375,2.333,0.332,5.483-0.049,8.225c3.854-6.792,2.773-19.558,2.773-19.558s0.404-0.125,1.229,3.521
		c1.801-14.401-6.302-23.893-6.302-23.893s-0.001,0.037-0.003,0.102c-0.793-1.234-1.7-2.354-2.729-3.335
		c3.405-5.354,5.354-12.652,5.354-12.652s0.894,1.46,0.974,4.461c3.894-6.648,2.84-14.923,2.84-14.923s1.297,1.379,1.703,4.866
		C273.714,386.269,270.469,370.049,264.387,366.805z"/>
	<rect x="216.03" y="174.008" fill="#CCBFA3" width="65.158" height="53.032"/>
	<path fill="#E5D5B7" d="M266.053,207.589l0.031-0.089c0.027,0.048,0.045,0.074,0.045,0.074S266.098,207.579,266.053,207.589z"/>
	<g>
		<path fill="#D9CAAD" d="M283.391,208.197c-0.011-0.002-0.021-0.002-0.029-0.004c0.006,0.008,0.009,0.015,0.014,0.021
			C283.463,208.284,283.469,208.278,283.391,208.197z"/>
	</g>
	<g>
		<path fill="#D6C7AB" d="M249.708,239.413c-0.025-0.014-0.068-0.044-0.083-0.044C249.594,239.369,249.626,239.385,249.708,239.413z
			"/>
	</g>
	<path fill="#D6C7AB" d="M249.564,327.115c0,0,10.396,6.636,9.396,20.563c2.752-3.087,3.782-7.749,3.782-7.749
		s1.109,9.43-5.559,18.717c4.086-1.085,6.635-4.367,6.635-4.367s0.455,6.839-8.469,11.677c9.733,4.255,12.297,27.354,1.039,36.195
		c3.336-0.834,6.217-4.254,6.217-4.254s-0.594,6.581-7.729,13.284c11.186,7.757,4.798,30.757,4.798,30.757
		c3.421-6.588,3.41-6.199,3.41-6.199s2.099,11.883-10.423,24.633c4.031,4.646,8.586,15.505,8.586,15.505l0.229-7.711l2.584,12.071
		h4.451c-0.854-2.876-1.927-5.922-3.238-8.896c0.883,0.411,2.104,1.161,2.969,2.411c-1.626-6.75-9.199-13.194-9.199-13.194
		c3.211-4.077,5.682-9.354,7.256-15.017c0.376,2.334,0.333,5.483-0.047,8.225c3.854-6.792,2.773-19.557,2.773-19.557
		s0.404-0.125,1.228,3.52c1.802-14.401-5.291-24.024-9.03-27.126c3.405-5.354,5.354-12.652,5.354-12.652s0.894,1.46,0.973,4.461
		c3.894-6.648,2.841-14.923,2.841-14.923s1.297,1.379,1.701,4.866c1.622-6.083,1.439-20.645-7.703-25.547
		c0.775-2.122,1.407-4.119,1.938-6.024c0.45,1.404,0.204,3.417-0.132,5.136c4.806-7.331,3.404-16.786,3.404-16.786
		s0.573,0.063,1.139,4.155c2.322-15.174-8.193-25.703-9.625-26.676"/>
	<path fill="#E5D5B7" d="M262.876,246.424l0.765-0.01c4.055,0.253,8.52-0.553,12.471-2.112c0.111-0.044,0.222-0.087,0.332-0.132
		c0.355-0.146,0.707-0.298,1.055-0.457c0.154-0.069,0.311-0.144,0.462-0.216c0.315-0.15,0.629-0.305,0.937-0.464
		c0.181-0.095,0.354-0.193,0.529-0.291c0.276-0.154,0.557-0.307,0.823-0.469c0.255-0.153,0.497-0.317,0.742-0.479
		c0.317-0.21,0.628-0.425,0.928-0.646c0.255-0.188,0.511-0.375,0.749-0.569c0.158-0.129,0.307-0.264,0.458-0.396
		c0.224-0.193,0.438-0.388,0.646-0.587c0.142-0.137,0.273-0.274,0.408-0.414c0.198-0.209,0.389-0.421,0.57-0.637
		c0.116-0.137,0.23-0.272,0.339-0.412c0.188-0.238,0.356-0.483,0.521-0.729c0.08-0.121,0.168-0.239,0.242-0.362
		c0.227-0.372,0.431-0.75,0.601-1.136l0.813,2.92c0,0,6.082-7.705,3.404-15.572c7.584,1.498,14.355-3.405,14.355-3.405
		s-0.486,1.054-1.865,3.405c7.057-2.027,12.57-13.463,12.57-13.463s1.217,1.541,0,5.027c5.598-5.108,11.109-20.194,3.326-30.818
		c7.543-1.622,6.813-9.991,6.813-9.991h-56.316c0,0-0.285,4.991,4.082,8.693c-9.021,5.695-11.299,13.954-11.299,13.954
		s2.942-2.752,5.031-3.512c-4.336,6.859-2.324,12.267-1.518,13.904c-1.521-0.042-11.137,0.696-16.737,10.237
		c-4.794-8.391-14.086-10.286-15.828-10.237c0.809-1.639,2.819-7.045-1.517-13.904c2.089,0.76,5.03,3.512,5.03,3.512
		s-2.277-8.259-11.297-13.954c4.367-3.703,4.082-8.693,4.082-8.693h-56.317c0,0-0.73,8.37,6.813,9.991
		c-7.785,10.624-2.271,25.709,3.325,30.818c-1.216-3.486,0-5.027,0-5.027s5.516,11.436,12.571,13.463
		c-1.379-2.353-1.865-3.405-1.865-3.405s6.771,4.903,14.354,3.405c-2.677,7.867,3.406,15.572,3.406,15.572l0.813-2.92
		c2.447,5.577,10.999,9.771,19.053,10.458"/>
	<path fill="#D6C7AB" d="M245.227,221.228c0,0-7.848,16.909-19.65,14.728c3.287,2.729,5.296,3.414,5.296,3.414
		s-12.554,0.586-17.281-6.869c1.818,5.638,6.744,12.373,17.281,13.914c5.082-5.914,8.9-7.045,8.9-7.045l-4.626-1.431
		C242.839,234.465,245.227,221.228,245.227,221.228z"/>
	<path fill="#D6C7AB" d="M213.999,214.941c-0.763,1.375-3.466,3.162-3.466,3.162s21.585-7.311,18.877-23.126
		c-1.195,5.64-10.271,14.456-19.212,12.522c5.832,2.469,10.527-0.404,9.733,0s-9.184,7.145-15.098,6.73
		c6.051,0.688,9.902-1.514,9.902-1.514S214.761,213.566,213.999,214.941z"/>
	<path fill="#D6C7AB" d="M319.053,183.999c7.543-1.622,6.813-9.991,6.813-9.991h-11.887c5.234,3.709,1.729,9.004-6.127,10.021
		c13.197,8.724,6.699,19.214,2.295,24.232c1.127-5.326-1.07-8.607-1.07-8.607s-2.34,14.007-11.354,17.796
		c3.176-5.635,2.15-9.952,2.15-9.952s-6.35,13.435-16.49,11.282c5.939,4.609,3.073,13.93,3.073,13.93
		c-0.205-5.633-2.05-7.169-2.05-7.169s0.41,13.212-13.008,15.875c-8.793,1.243-20.543-1.616-21.692-2.004
		c0.636,0.324,5.063,4.433,13.419,6.971c0.169,0.015,0.342,0.021,0.514,0.03l3.758-0.052c2.944-0.251,5.957-0.976,8.713-2.063
		c0.111-0.043,0.223-0.086,0.332-0.131c0.354-0.146,0.707-0.299,1.055-0.457c0.154-0.069,0.311-0.144,0.462-0.216
		c0.315-0.149,0.629-0.305,0.937-0.465c0.181-0.094,0.354-0.192,0.528-0.29c0.277-0.154,0.558-0.307,0.824-0.469
		c0.255-0.154,0.497-0.317,0.741-0.479c0.32-0.21,0.629-0.425,0.929-0.646c0.255-0.188,0.509-0.375,0.749-0.569
		c0.158-0.13,0.307-0.265,0.458-0.396c0.224-0.193,0.438-0.388,0.646-0.587c0.142-0.137,0.273-0.275,0.408-0.414
		c0.198-0.209,0.391-0.422,0.57-0.637c0.116-0.137,0.23-0.272,0.339-0.412c0.188-0.238,0.356-0.483,0.521-0.729
		c0.08-0.121,0.168-0.239,0.242-0.362c0.227-0.372,0.432-0.75,0.601-1.136l0.813,2.919c0,0,6.082-7.704,3.404-15.571
		c7.242,2.077,14.355-3.405,14.355-3.405s-0.486,1.054-1.865,3.405c7.057-2.027,12.57-13.463,12.57-13.463s1.217,1.541,0,5.027
		C321.324,209.709,326.84,194.623,319.053,183.999z"/>
	<path fill="#D6C7AB" d="M260.316,243.25c1.432,0.974,12.742,10.86,10.422,26.035c-0.564-4.093-1.141-4.156-1.141-4.156
		s1.4,9.455-3.404,16.787c0.338-1.72,0.584-3.73,0.133-5.137c-0.53,1.905-1.162,3.902-1.938,6.024
		c9.144,4.903,9.324,19.464,7.702,25.547c-0.403-3.487-1.702-4.866-1.702-4.866s1.055,8.271-2.84,14.923
		c-0.08-3.001-0.973-4.461-0.973-4.461s-1.947,7.3-5.354,12.652l-11.66,0.516c10.066-2.824,13.041-13.219,13.041-13.219
		s-2.881,3.42-6.217,4.254c11.26-8.841,8.695-31.94-1.037-36.194c8.922-4.838,8.469-11.678,8.469-11.678s-2.549,3.282-6.637,4.367
		c6.668-9.287,5.56-18.717,5.56-18.717s-1.03,4.662-3.782,7.749c1.001-13.929-7.665-23.106-7.665-23.106"/>
	<path fill="#E5D5B7" d="M352.82,449.819c0,0,2.402,21.712-12.293,23.665c-4.645,0.851-11.582-2.215-15.705-7.494
		c0.447,2.754,1.633,3.977,1.633,3.977s-8.439-1.511-15.963,5.039c4.162-1.836,5.801-0.962,5.801-0.962s-1.906,4.234-6.496,1.969
		c-4.59-2.267-12.021-6.802-23.65-7.5c4.119,1.571,5.531,2.096,5.531,2.096s-9.58-2.271-21.529,1.105
		c4.479-0.06,5.271,0.176,5.271,0.176s-6.888,0.658-14.479,4.551c-7.537-2.63-11.375-2.305-11.375-2.305s-3.838-0.325-11.375,2.305
		c-7.594-3.893-14.48-4.551-14.48-4.551s0.79-0.232,5.27-0.176c-11.947-3.377-21.529-1.105-21.529-1.105s1.412-0.522,5.533-2.096
		c-11.63,0.698-19.061,5.233-23.651,7.5c-4.589,2.268-6.496-1.969-6.496-1.969s1.637-0.874,5.8,0.962
		c-7.524-6.55-15.965-5.039-15.965-5.039s1.188-1.223,1.636-3.977c-4.126,5.279-11.062,8.345-15.708,7.494
		c-14.695-1.953-12.291-23.665-12.291-23.665s-11.758,18.112-2.041,34.501c-1.854-5.796-0.549-10.276-0.549-10.276
		s1.479,12.634,13.721,17.176c-4.13-2.97-5.245-8.038-5.245-8.038s9.048,9.168,22.591,8.615c-4.354-0.669-4.972-3.599-4.972-3.599
		s6.354,3.406,13.292,1.059c8.592,5.166,14.958,8.914,28.733,8.738c-2.542-0.908-4.011-2.815-4.011-2.815s13.849,2.455,22.883-0.049
		c-3.057-0.41-4.002-1.677-4.002-1.677s6.193,0.479,10.27-2.293c4.347,1.747,9.427,2.678,12.587,2.678
		c3.161,0,8.241-0.931,12.586-2.678c2.478,1.388,5.341,2.829,13.559,2.76c0,0-2.104,1.02-5.49,1.02
		c9.033,2.504,23.461-0.352,23.461-0.352s-1.148,2.219-4.705,2.742c13.775,0.176,18.453-2.908,27.049-8.074
		c6.578,2.884,13.291-1.059,13.291-1.059s-0.738,2.971-5.092,3.641c13.543,0.553,22.711-8.657,22.711-8.657
		s-1.115,5.068-5.246,8.038c12.242-4.542,13.723-17.176,13.723-17.176s1.305,4.48-0.553,10.276
		C364.576,467.932,352.82,449.819,352.82,449.819z"/>
	<path fill="#D6C7AB" d="M205.222,474.652c0,0,3.495,0.867,4.749,2.465c-11.684-1.426-23.115,2.765-23.115,2.765
		s1.034,1.199,4.204,1.467c-4.339,1.479-7.568,0.134-9.732-3.65c-6.177-9.229-15.747-1.319-15.747-1.319l5.348,1.654
		c0,0-8.044,2.441-13.799,1.241c-14.855-3.76-12.041-24.017-10.856-29.044c-0.24,2.952-1.191,21.458,12.327,23.256
		c4.646,0.851,11.582-2.215,15.708-7.494c-0.448,2.754-1.635,3.977-1.635,3.977s8.44-1.51,15.964,5.039
		c-4.164-1.836-5.8-0.962-5.8-0.962s1.906,4.234,6.496,1.969c4.589-2.267,12.02-6.802,23.651-7.5
		c-4.121,1.571-5.533,2.096-5.533,2.096s9.583-2.271,21.529,1.105c-4.479-0.059-5.27,0.176-5.27,0.176
		c2.174-0.093,10.52,2.33,14.48,4.551c0,0-8.278-1.127-15.029,3.222C217.114,474.544,209.618,473.912,205.222,474.652z"/>
	<path fill="#D6C7AB" d="M293.907,474.652c0,0-3.494,0.867-4.748,2.465c11.683-1.426,23.114,2.765,23.114,2.765
		s-1.035,1.199-4.205,1.467c4.338,1.479,7.568,0.134,9.732-3.65c6.178-9.229,15.748-1.319,15.748-1.319l-5.352,1.654
		c0,0,8.045,2.441,13.801,1.241c14.855-3.76,12.041-24.017,10.857-29.044c0.238,2.952,1.191,21.458-12.328,23.256
		c-4.646,0.851-11.582-2.215-15.707-7.494c0.449,2.754,1.635,3.977,1.635,3.977s-8.441-1.51-15.965,5.039
		c4.164-1.836,5.803-0.962,5.803-0.962s-1.908,4.234-6.496,1.969c-4.592-2.267-12.021-6.802-23.652-7.5
		c4.121,1.571,5.533,2.096,5.533,2.096s-9.582-2.271-21.531,1.105c4.479-0.059,5.271,0.176,5.271,0.176
		c-2.174-0.093-10.521,2.33-14.48,4.551c0,0,8.278-1.127,15.028,3.222C282.014,474.544,289.51,473.912,293.907,474.652z"/>
</g>
</svg>
