<?xml version="1.0" encoding="utf-8"?>
<!-- Generator: Adobe Illustrator 14.0.0, SVG Export Plug-In . SVG Version: 6.00 Build 43363)  -->
<!DOCTYPE svg PUBLIC "-//W3C//DTD SVG 1.1//EN" "http://www.w3.org/Graphics/SVG/1.1/DTD/svg11.dtd">
<svg version="1.1" id="content" xmlns="http://www.w3.org/2000/svg" xmlns:xlink="http://www.w3.org/1999/xlink" x="0px" y="0px"
	 width="500px" height="500px" viewBox="0 0 500 500" enable-background="new 0 0 500 500" xml:space="preserve">
<rect id="position" x="0.5" y="0.5" display="none" fill="none" stroke="#000000" width="499" height="499"/>
<polygon fill="#615A4C" points="295.029,176.008 245.334,238 200.167,174.008 200.167,174.008 116.708,174.008 116.708,480.5 
	382.542,480.5 382.542,174.008 "/>
<rect x="216.03" y="174.008" fill="#CCBFA3" width="65.158" height="53.032"/>
<path fill="#665F50" d="M211.892,330.547c-2.726-10.95-11.894-11.556-11.894-11.556s3.965,16.063,16.031,20.522
	c-14.843,5.451-23.465-16.602-23.465-16.602s5.946,26.761-13.382,49.914c9.663-17.732,2.979-47.188,2.979-47.188
	s-2.482,11.397-12.146,25.975c7.682-18.132-12.638-40.315-12.638-40.315s-0.495,7.65,5.204,22.297
	c-10.902-12.609-23.788-59-23.788-59s-2.974,1.238-1.238,17.097c-9.168-21.558-7.899-56.751-7.899-56.751s-2.261,6.203-3.274,16.114
	c-8.447-29.239-1.162-77.045-1.162-77.045h41.796c0,0,5.727,23.523,4.982,42.851c-2.479-10.903-7.434-16.602-7.434-16.602
	s0,35.93,21.31,39.646c-5.204,3.221-13.876,1.734-13.876,1.734s25.77,16.354,30.726,36.92c-5.699-8.425-15.363-16.602-15.363-16.602
	s18.348,24.458,20.039,43.452c-7.401-13.718-17.561-18.568-17.561-18.568S212.327,310.887,211.892,330.547z"/>
<path fill="#E5D5B7" d="M266.052,207.589l0.033-0.089c0.028,0.048,0.045,0.074,0.045,0.074S266.098,207.579,266.052,207.589z"/>
<path fill="#665F50" d="M287.236,330.547c2.726-10.95,11.894-11.556,11.894-11.556s-3.965,16.063-16.031,20.522
	c14.843,5.451,23.465-16.602,23.465-16.602s-5.946,26.761,13.382,49.914c-9.663-17.732-2.979-47.188-2.979-47.188
	s2.482,11.397,12.146,25.975c-7.682-18.132,12.638-40.315,12.638-40.315s0.495,7.65-5.204,22.297c10.902-12.609,23.788-59,23.788-59
	s2.974,1.238,1.238,17.097c9.168-21.558,7.899-56.751,7.899-56.751s2.261,6.203,3.274,16.114
	c8.447-29.239,1.162-77.045,1.162-77.045h-41.796c0,0-5.727,23.523-4.982,42.851c2.479-10.903,7.434-16.602,7.434-16.602
	s0,35.93-21.31,39.646c5.204,3.221,13.876,1.734,13.876,1.734s-25.77,16.354-30.726,36.92c5.699-8.425,15.363-16.602,15.363-16.602
	s-18.348,24.458-20.039,43.452c7.401-13.718,17.561-18.568,17.561-18.568S287.369,309.733,287.236,330.547z"/>
<g>
	<path fill="#D9CAAD" d="M283.391,208.197c-0.01-0.002-0.02-0.002-0.029-0.004c0.005,0.007,0.008,0.014,0.013,0.021
		C283.463,208.284,283.469,208.278,283.391,208.197z"/>
</g>
<g>
	<path fill="#D6C7AB" d="M249.708,239.413c-0.026-0.013-0.069-0.044-0.083-0.044C249.594,239.369,249.626,239.385,249.708,239.413z"
		/>
</g>
<path fill="#E5D5B7" d="M264.077,365.454c0.776-2.122,5.521-16.325,5.521-16.325s1.288,0.184,1.853,4.276
	c2.321-15.175-9.25-26.008-10.682-26.98c3.406-5.353,5.808-12.478,5.808-12.478s0.892,1.46,0.973,4.461
	c3.893-6.65,2.839-14.923,2.839-14.923s1.298,1.379,1.703,4.866c1.622-6.083-1.622-22.303-7.704-25.547
	c0.776-2.122,2.283-3.944,2.813-5.85c0.908,1.111,1.37,2.785,1.033,4.505c4.806-7.333,1.878-16.264,1.878-16.264
	s2.685,1.829,3.061,6.395c2.321-15.175-11.425-25.368-12.856-26.341h-21.504c-1.432,0.973-13.994,9.869-11.673,25.043
	c0.564-4.092,2.391-5.164,2.391-5.164s-2.804,9.498,2.002,16.832c-0.337-1.721,0.115-3.633,1.271-5.181
	c-0.305,2.422,0.086,4.882,2.431,5.388c-6.082,3.244-9.818,20.101-8.196,26.184c0.405-3.487,1.703-4.866,1.703-4.866
	s-1.054,8.272,2.839,14.923c0.081-3.001,0.973-4.461,0.973-4.461s2.401,7.125,5.808,12.478c-1.432,0.973-13.643,11.36-11.321,26.534
	c0.695-3.517,2.492-3.83,2.492-3.83s-1.896,9.098,5.376,16.059c-8.284,5.479-9.491,21.081-7.869,27.164
	c0.405-3.487,1.703-4.866,1.703-4.866s-1.054,8.272,2.839,14.923c0.081-3.001,0.973-4.461,0.973-4.461s1.947,7.3,5.354,12.652
	c-1.027,0.981-1.935,2.101-2.728,3.335c-0.002-0.063-0.003-0.101-0.003-0.101s-8.101,9.49-6.301,23.892
	c0.823-3.644,1.228-3.519,1.228-3.519s-1.08,12.764,2.773,19.556c-0.38-2.739-0.423-5.89-0.047-8.223
	c1.575,5.66,4.045,10.938,7.256,15.015c0,0-7.573,6.445-9.199,13.195c0.862-1.251,2.086-2,2.968-2.412
	c-1.313,2.977-2.386,6.022-3.237,8.898h18.099h0.45h0.801h18.549c-0.852-2.876-1.925-5.922-3.237-8.898
	c0.882,0.412,2.105,1.161,2.968,2.412c-1.626-6.75-9.199-13.195-9.199-13.195c3.211-4.077,5.681-9.354,7.256-15.015
	c0.376,2.333,1.019,4.389,0.639,7.128c3.854-6.792,2.088-18.461,2.088-18.461s0.944-0.079,1.768,3.564
	c1.8-14.401-6.841-23.938-6.841-23.938s-0.001,0.038-0.003,0.101c-0.793-1.234-1.7-2.354-2.728-3.335
	c3.406-5.353,5.354-12.652,5.354-12.652s0.27,3.044,0.351,6.045c3.893-6.65,3.461-16.507,3.461-16.507s1.298,1.379,1.703,4.866
	C273.714,386.269,270.159,368.698,264.077,365.454z"/>
<path fill="#D6C7AB" d="M249.564,327.115c0,0,10.396,6.635,9.396,20.563c2.752-3.086,3.782-7.749,3.782-7.749
	s1.109,9.43-5.559,18.717c4.087-1.085,6.636-4.367,6.636-4.367s0.454,6.839-8.469,11.677c9.734,4.254,12.297,27.354,1.038,36.195
	c3.336-0.834,6.217-4.254,6.217-4.254s-0.593,6.581-7.727,13.284c11.184,7.757,4.798,30.757,4.798,30.757
	c3.42-6.588,3.41-6.199,3.41-6.199s2.097,11.883-10.423,24.633c4.031,4.645,8.586,15.504,8.586,15.504l0.229-7.71l2.583,12.071
	h4.451c-0.852-2.876-1.925-5.922-3.237-8.898c0.882,0.412,2.105,1.161,2.968,2.412c-1.626-6.75-9.199-13.195-9.199-13.195
	c3.211-4.077,5.681-9.354,7.256-15.015c0.376,2.333,0.729,4.632,0.639,7.128c4.511-6.57,2.088-18.461,2.088-18.461
	s0.944-0.079,1.768,3.564c1.8-14.401-5.831-24.07-9.571-27.172c3.406-5.353,5.354-12.652,5.354-12.652s0.27,3.044,0.351,6.045
	c4.914-6.774,3.461-16.507,3.461-16.507s1.298,1.379,1.703,4.866c1.622-6.083,1.129-21.992-8.015-26.897
	c5.796-5.19,5.521-16.325,5.521-16.325s1.288,0.184,1.853,4.276c2.321-15.175-8.907-25.823-10.339-26.796"/>
<path fill="#E5D5B7" d="M262.876,246.424l0.763-0.01c4.055,0.253,8.52-0.552,12.471-2.113c0.111-0.043,0.222-0.086,0.332-0.131
	c0.357-0.146,0.708-0.298,1.055-0.457c0.155-0.07,0.309-0.143,0.462-0.216c0.315-0.151,0.629-0.304,0.936-0.464
	c0.18-0.094,0.353-0.193,0.529-0.291c0.277-0.154,0.557-0.306,0.824-0.468c0.255-0.154,0.497-0.318,0.742-0.479
	c0.318-0.21,0.628-0.425,0.928-0.646c0.255-0.188,0.509-0.375,0.749-0.57c0.158-0.129,0.306-0.263,0.458-0.396
	c0.222-0.193,0.438-0.387,0.646-0.587c0.141-0.136,0.274-0.274,0.407-0.414c0.2-0.209,0.39-0.421,0.572-0.636
	c0.116-0.137,0.231-0.273,0.339-0.412c0.187-0.239,0.356-0.484,0.52-0.73c0.08-0.121,0.167-0.24,0.242-0.363
	c0.226-0.372,0.43-0.75,0.6-1.135l0.812,2.919c0,0,6.083-7.705,3.406-15.572c7.583,1.498,14.355-3.406,14.355-3.406
	s-0.486,1.054-1.865,3.406c7.056-2.028,12.571-13.463,12.571-13.463s1.216,1.541,0,5.028c5.597-5.109,11.11-20.195,3.325-30.819
	c7.543-1.622,6.813-9.991,6.813-9.991h-56.318c0,0-0.285,4.991,4.082,8.693c-9.019,5.696-11.297,13.955-11.297,13.955
	s2.942-2.752,5.031-3.512c-4.336,6.86-2.324,12.266-1.517,13.905c-1.521-0.042-11.136,0.696-16.738,10.237
	c-4.794-8.39-14.086-10.286-15.828-10.237c0.808-1.639,2.819-7.045-1.517-13.905c2.089,0.76,5.031,3.512,5.031,3.512
	s-2.278-8.259-11.297-13.955c4.367-3.703,4.082-8.693,4.082-8.693h-56.318c0,0-0.73,8.37,6.813,9.991
	c-7.785,10.624-2.271,25.709,3.325,30.819c-1.216-3.487,0-5.028,0-5.028s5.516,11.435,12.571,13.463
	c-1.379-2.352-1.865-3.406-1.865-3.406s6.772,4.904,14.355,3.406c-2.677,7.867,3.406,15.572,3.406,15.572l0.812-2.919
	c2.448,5.577,10.999,9.771,19.053,10.458"/>
<path fill="#D6C7AB" d="M245.227,221.228c0,0-7.847,16.909-19.65,14.727c3.287,2.728,5.296,3.414,5.296,3.414
	s-12.554,0.586-17.281-6.869c1.818,5.637,7.389,11.209,17.926,12.75c0.851-0.394,2.361-1.231,2.361-1.231l-4.233-1.898l7.069,0.008
	l3.059-2.76l-4.626-1.43C242.839,234.465,245.227,221.228,245.227,221.228z"/>
<path fill="#D6C7AB" d="M213.999,214.941c-0.763,1.375-3.466,3.162-3.466,3.162s21.585-7.31,18.877-23.126
	c-1.195,5.639-10.272,14.456-19.212,12.523c5.832,2.468,10.527-0.405,9.733,0s-9.183,7.144-15.097,6.731
	c6.051,0.688,9.902-1.513,9.902-1.513S214.761,213.566,213.999,214.941z"/>
<path fill="#D6C7AB" d="M319.053,183.999c7.543-1.622,6.813-9.991,6.813-9.991h-11.888c5.236,3.709,1.731,9.003-6.127,10.022
	c13.199,8.723,6.7,19.213,2.296,24.232c1.127-5.326-1.07-8.607-1.07-8.607s-2.341,14.006-11.354,17.795
	c3.176-5.634,2.151-9.952,2.151-9.952s-6.35,13.434-16.49,11.283c5.94,4.609,3.073,13.929,3.073,13.929
	c-0.205-5.633-2.049-7.169-2.049-7.169s-0.329,14.02-13.747,16.683c-11.113,2.069-19.805-2.424-20.954-2.812
	c0.636,0.325,5.063,4.432,13.419,6.971c0.169,0.014,0.342,0.02,0.512,0.03c0,0,0.471,0.274,3.877,0.165s8.188-1.484,11.859-3.543
	c5.333-2.991,6.905-6.744,7.074-7.13l0.812,2.919c0,0,6.083-7.705,3.406-15.572c7.242,2.077,14.355-3.406,14.355-3.406
	s-0.486,1.054-1.865,3.406c7.056-2.028,12.571-13.463,12.571-13.463s1.216,1.541,0,5.028
	C321.325,209.709,326.839,194.623,319.053,183.999z"/>
<path fill="#D6C7AB" d="M260.316,243.25c1.432,0.973,15.59,12.329,12.856,28.341c-0.341-4.188-3.061-6.395-3.061-6.395
	s2.711,9.271-2.095,16.604c0.337-1.72-0.002-3.5-0.816-4.846c0.252,1.768-0.452,4.752-2.813,5.85
	c9.144,4.904,9.326,19.464,7.704,25.547c-0.405-3.487-1.703-4.866-1.703-4.866s1.054,8.272-2.839,14.923
	c-0.081-3.001-0.973-4.461-0.973-4.461s-1.947,7.3-5.354,12.652l-11.659,0.516c10.067-2.824,13.041-13.219,13.041-13.219
	s-2.881,3.42-6.217,4.254c11.259-8.841,8.696-31.941-1.038-36.195c8.923-4.838,8.469-11.677,8.469-11.677s-2.549,3.282-6.636,4.367
	c6.668-9.287,5.559-18.717,5.559-18.717s-1.03,4.663-3.782,7.749c1.001-13.928-7.665-23.106-7.665-23.106"/>
</svg>
