<?xml version="1.0" encoding="utf-8"?>
<!-- Generator: Adobe Illustrator 14.0.0, SVG Export Plug-In . SVG Version: 6.00 Build 43363)  -->
<!DOCTYPE svg PUBLIC "-//W3C//DTD SVG 1.1//EN" "http://www.w3.org/Graphics/SVG/1.1/DTD/svg11.dtd">
<svg version="1.1" id="content" xmlns="http://www.w3.org/2000/svg" xmlns:xlink="http://www.w3.org/1999/xlink" x="0px" y="0px"
	 width="500px" height="500px" viewBox="0 0 500 500" enable-background="new 0 0 500 500" xml:space="preserve">
<rect id="position" x="0" y="0" display="none" fill="none" stroke="#000000" stroke-width="0.9955" width="500" height="500"/>
<g>
	<path fill="#615A4C" d="M131.237,286.824v-90.286c0-14.376-13.078-26.031-29.21-26.031l0,0c-16.132,0-29.21,11.655-29.21,26.031
		v90.286H131.237z"/>
	<g>
		<path fill="#665F50" d="M131.237,196.539c0-7.037-3.139-13.417-8.229-18.102c-6.732,4.824-24.056,18.589-28.026,35.068
			c5.699-8.425,15.363-16.602,15.363-16.602s-18.348,24.458-20.039,43.452c7.401-13.718,17.561-18.568,17.561-18.568
			s-20.07,24.084-22.053,43.706c2.726-10.949,11.894-11.555,11.894-11.555s-3.965,16.063-16.031,20.521
			c14.843,5.451,23.465-16.602,23.465-16.602s-4.967,7.415,9.006,28.965h1.85c-5.794-17.665-0.452-26.238-0.452-26.238
			s2.482,11.397,12.146,25.975c-3.874-9.146-0.624-19.318,3.548-27.159V196.539z"/>
	</g>
	<path fill="#E5D5B7" d="M131.237,282.073h-29.21h-29.21c0,0-2.635,3.73-2.341,7.856c1.087-2.73,2.341-3.105,2.341-3.105
		s-1.596,5.021,0.53,8.223c-0.084-1.842,0.624-2.521,0.624-2.521s0.391,5.722,11.499,5.553c11.108-0.17,16.557-0.113,16.557-0.113
		s5.448-0.057,16.557,0.113c11.108,0.169,11.499-5.553,11.499-5.553s0.708,0.68,0.624,2.521c2.126-3.201,0.53-8.223,0.53-8.223
		s1.254,0.375,2.341,3.105C133.872,285.804,131.237,282.073,131.237,282.073z"/>
</g>
</svg>
