<?xml version="1.0" encoding="utf-8"?>
<!-- Generator: Adobe Illustrator 14.0.0, SVG Export Plug-In . SVG Version: 6.00 Build 43363)  -->
<!DOCTYPE svg PUBLIC "-//W3C//DTD SVG 1.1 Basic//EN" "http://www.w3.org/Graphics/SVG/1.1/DTD/svg11-basic.dtd">
<svg version="1.1" baseProfile="basic" id="content"
	 xmlns="http://www.w3.org/2000/svg" xmlns:xlink="http://www.w3.org/1999/xlink" x="0px" y="0px" width="500px" height="500px"
	 viewBox="0 0 500 500" xml:space="preserve">
<rect id="position" x="0.5" y="0.5" display="none" fill="none" stroke="#000000" width="499" height="499"/>
<g id="bounds" display="none">
	
		<rect x="-0.208" y="80.372" display="inline" fill="none" stroke="#EAEAEA" stroke-miterlimit="10" width="499.501" height="499.492"/>
</g>
<g>
	<g>
		<path fill="#5C7599" d="M145.594,174.97l-19.936,15.36L69.97,261.332v111.132h61.256v-93.032l14.448-5.396l-0.089-99.064H145.594z
			"/>
	</g>
	<polygon fill="#995C5C" points="145.594,174.735 145.881,480.5 353.203,480.5 353.154,174.735 	"/>
	<polygon fill="#5C7599" points="145.677,244.885 145.881,480.5 249.558,480.5 249.559,306.281 	"/>
	<polygon fill="#D3DBE5" points="145.623,205.046 145.677,238.586 249.559,301.479 353.164,238.767 353.158,205.248 
		249.559,267.957 	"/>
	<polygon fill="#5C7599" points="249.559,306.281 249.558,480.5 353.203,480.5 353.166,245.057 	"/>
	<polygon fill="#EFF1F4" points="145.677,238.434 145.677,249.448 249.559,312.334 353.166,249.621 353.164,238.615 
		249.559,301.325 	"/>
	<polygon fill="#EFF1F4" points="145.614,195.473 145.624,206.487 249.241,269.204 353.158,206.303 353.156,195.297 
		249.241,258.198 	"/>
	<rect x="236.271" y="185.275" fill="#D3DBE5" width="26.575" height="295.227"/>
	<rect x="242.371" y="185.275" fill="#995C5C" width="14.375" height="295.227"/>
	<rect x="262.846" y="185.275" opacity="0.2" fill="#343536" width="8.03" height="295.227"/>
	<rect x="228.239" y="185.275" opacity="0.2" fill="#343536" width="8.032" height="295.227"/>
	<g>
		<path fill="#576F91" d="M293.126,244.236l-2.205-0.392c5.154-28.988-9.497-50.53-9.646-50.744l1.838-1.278
			C283.268,192.044,298.447,214.307,293.126,244.236L293.126,244.236z"/>
	</g>
	<g>
		<path fill="#576F91" d="M206.003,244.236c-5.321-29.929,9.858-52.192,10.013-52.414l1.839,1.278
			c-0.149,0.214-14.801,21.756-9.646,50.744L206.003,244.236L206.003,244.236z"/>
	</g>
	<g>
		<path fill="#6883AD" d="M283.346,244.028c-0.293,1.482,0.672,2.921,2.152,3.213l11.236,2.218c1.484,0.293,2.922-0.671,3.215-2.153
			l0.422-2.137c0.291-1.481-0.672-2.921-2.152-3.213l-11.24-2.217c-1.48-0.292-2.92,0.671-3.213,2.153L283.346,244.028z"/>
	</g>
	<g>
		<path fill="#53698A" d="M286.559,244.024l13.521,2.611l-0.131,0.669c-0.293,1.482-1.73,2.446-3.215,2.153l-10.936-2.157
			L286.559,244.024z"/>
	</g>
	<g>
		<path fill="#6883AD" d="M215.547,244.043c0.284,1.441-0.653,2.84-2.094,3.124l-10.926,2.156c-1.441,0.285-2.84-0.653-3.124-2.095
			l-0.41-2.077c-0.284-1.44,0.653-2.839,2.093-3.124l10.928-2.156c1.44-0.284,2.839,0.653,3.123,2.094L215.547,244.043z"/>
	</g>
	<g>
		<path fill="#53698A" d="M212.422,244.04l-13.146,2.539l0.128,0.65c0.284,1.44,1.683,2.379,3.124,2.095l10.632-2.099
			L212.422,244.04z"/>
	</g>
	<path fill="#53698A" d="M249.558,174.735c0,0-32.978,0-61.496,0c13.154,35.021,61.496,33.385,61.496,33.385
		s48.34,1.636,61.497-33.385C282.535,174.735,249.558,174.735,249.558,174.735z"/>
	<circle fill="#EFF1F4" cx="267.486" cy="189.02" r="5.262"/>
	<g>
		<rect x="164.389" y="307.344" fill="#647FA6" width="47.266" height="33.44"/>
		<path fill="#D3DBE5" d="M186.483,323.805c0.001,0.399-0.322,0.727-0.722,0.727h-2.23c-0.396,0-0.723-0.322-0.721-0.724
			l-0.001-6.535c-0.001-0.401,0.324-0.728,0.723-0.728h2.229c0.398,0,0.722,0.322,0.723,0.726L186.483,323.805z"/>
		<rect x="164.389" y="317.379" opacity="0.2" fill="#343536" width="47.266" height="2.286"/>
		<rect x="164.389" y="307.344" fill="#6A87B0" width="47.266" height="10.085"/>
	</g>
	<g>
		<rect x="287.462" y="307.344" fill="#647FA6" width="47.267" height="33.44"/>
		<path fill="#D3DBE5" d="M312.635,323.805c-0.002,0.399,0.32,0.727,0.723,0.727h2.229c0.396,0,0.725-0.322,0.723-0.724v-6.535
			c0.002-0.401-0.324-0.728-0.723-0.728h-2.23c-0.398,0-0.721,0.322-0.723,0.726L312.635,323.805z"/>
		<rect x="287.462" y="317.379" opacity="0.2" fill="#343536" width="47.267" height="2.286"/>
		<rect x="287.462" y="307.344" fill="#6A87B0" width="47.267" height="10.085"/>
	</g>
	<polygon fill="#EFF1F4" points="100.548,222.356 145.677,242.909 145.677,231.42 107.066,214.139 	"/>
	<polygon fill="#EFF1F4" points="87.365,239.156 80.76,247.578 140.671,275.905 145.677,274.035 145.671,266.428 	"/>
	<polygon fill="#D3DBE5" points="87.26,239.107 100.548,222.356 145.677,242.909 145.677,266.431 	"/>
	<polygon fill="#995C5C" points="145.677,231.414 145.589,174.735 125.66,190.331 107.066,214.139 	"/>
	<g>
		<path fill="#5C7599" d="M353.105,174.97l-0.088,99.064l14.447,5.396v93.032h61.258V261.332l-55.689-71.001L353.1,174.97H353.105z"
			/>
	</g>
	<polygon fill="#EFF1F4" points="398.146,222.356 353.018,242.909 353.018,231.42 391.629,214.139 	"/>
	<polygon fill="#EFF1F4" points="411.328,239.156 417.936,247.578 358.023,275.905 353.018,274.035 353.023,266.428 	"/>
	<polygon fill="#D3DBE5" points="411.434,239.107 398.146,222.356 353.018,242.909 353.018,266.431 	"/>
	<polygon fill="#995C5C" points="353.018,231.414 353.105,174.735 373.035,190.331 391.629,214.139 	"/>
</g>
</svg>
