<?xml version="1.0" encoding="utf-8"?>
<!-- Generator: Adobe Illustrator 18.0.0, SVG Export Plug-In . SVG Version: 6.00 Build 0)  -->
<!DOCTYPE svg PUBLIC "-//W3C//DTD SVG 1.1//EN" "http://www.w3.org/Graphics/SVG/1.1/DTD/svg11.dtd">
<svg version="1.1" id="content" xmlns="http://www.w3.org/2000/svg" xmlns:xlink="http://www.w3.org/1999/xlink" x="0px" y="0px"
	 width="500px" height="500px" viewBox="0 0 500 500" enable-background="new 0 0 500 500" xml:space="preserve">
<rect id="position" x="0.5" y="0.5" display="none" fill="none" stroke="#000000" width="499" height="499"/>
<g id="bounds" display="none">
	<rect x="-0.2" y="80.4" display="inline" fill="none" stroke="#EAEAEA" stroke-miterlimit="10" width="499.5" height="499.5"/>
</g>
<g>
	<g>
		<path fill="#6C755D" d="M145.9,175.6L125.7,190L70,261v111h61.3v-92.9l14.6-5.4L145.9,175.6L145.9,175.6z"/>
	</g>
	<polygon fill="#869175" points="145.9,175.6 145.9,448.3 353.2,448.3 353.2,175.6 249.6,175.6 	"/>
	<g>
		<polygon fill="#B4BFA6" points="209.2,279.2 183.1,313.3 156.9,279.2 183.1,245.1 		"/>
		<polygon fill="#7C876C" points="196.8,279.2 183.1,297 169.4,279.2 183.1,261.4 		"/>
	</g>
	<g>
		<polygon fill="#B4BFA6" points="275.7,279.2 249.6,313.3 223.4,279.2 249.6,245.1 		"/>
		<polygon fill="#7C876C" points="263.2,279.2 249.6,297 235.9,279.2 249.6,261.4 		"/>
	</g>
	<g>
		<polygon fill="#B4BFA6" points="342.2,279.2 316.1,313.3 289.9,279.2 316.1,245.1 		"/>
		<polygon fill="#7C876C" points="329.7,279.2 316.1,297 302.4,279.2 316.1,261.4 		"/>
	</g>
	<polygon fill="#6C755D" points="145.9,448.3 353.2,448.3 353.2,310.5 349.4,306.4 318.1,341.4 281.3,300.2 247.3,338.2 
		216.5,303.7 183.1,341.1 148.9,302.9 145.9,306.2 	"/>
	<polygon fill="#B4BFA6" points="353.2,295.4 349.4,290.5 316.2,332.9 282.9,290.4 249.7,332.9 216.4,290.4 183.2,332.9 
		149.9,290.4 145.9,295.6 145.9,318.9 149.9,313.7 183.2,356.2 216.4,313.7 249.7,356.2 282.9,313.7 316.2,356.2 349.4,313.8 
		353.2,318.7 	"/>
	<polygon fill="#737D64" points="353.2,308.1 349.4,303.2 316.2,345.6 282.9,303.1 249.7,345.6 216.4,303.1 183.2,345.6 
		149.9,303.1 145.9,308.3 145.9,331.6 149.9,326.4 183.2,368.9 216.4,326.4 249.7,368.9 282.9,326.4 316.2,368.9 349.4,326.5 
		353.2,331.4 	"/>
	<g>
		<polygon fill="#6C755D" points="146.2,175.6 145.9,175.6 145.9,176 		"/>
		<polygon fill="#6C755D" points="213.1,175.6 153.3,175.6 183.2,211.5 		"/>
		<polygon fill="#6C755D" points="249.6,175.6 214.9,175.6 247.9,215.3 280.9,175.6 		"/>
		<polygon fill="#6C755D" points="343.8,175.6 288.6,175.6 316.1,208.6 		"/>
	</g>
	<polygon fill="#B4BFA6" points="316.1,212.8 287,175.6 278.7,175.6 249.6,212.8 220.5,175.6 212.2,175.6 183.1,212.8 154,175.6 
		145.9,175.6 145.9,198.7 149.9,193.6 183.1,236.1 216.4,193.6 249.6,236.1 282.9,193.6 316.1,236.1 349.2,193.7 353.2,198.9 
		353.2,175.6 345.1,175.6 	"/>
	<g>
		<g>
			<g>
				<polygon fill="#B4BFA6" points="284.9,259.3 284.9,242.1 297.3,225.9 297.3,245.2 				"/>
			</g>
		</g>
		<g>
			<g>
				<polygon fill="#B4BFA6" points="280.8,259.3 280.8,242.1 268.4,225.9 268.4,245.2 				"/>
			</g>
		</g>
		<polygon fill="#B4BFA6" points="282.9,218.7 278,227.1 282.9,235.5 287.7,227.1 		"/>
	</g>
	<g>
		<g>
			<g>
				<polygon fill="#B4BFA6" points="347.8,259.3 347.8,242.1 335.4,225.9 335.4,245.2 				"/>
			</g>
		</g>
		<polygon fill="#B4BFA6" points="353.2,224.6 349.9,218.7 345,227.1 349.9,235.5 353.2,229.7 		"/>
	</g>
	<g>
		<g>
			<g>
				<polygon fill="#B4BFA6" points="218.5,259.3 218.5,242.1 230.9,225.9 230.9,245.2 				"/>
			</g>
		</g>
		<g>
			<g>
				<polygon fill="#B4BFA6" points="214.4,259.3 214.4,242.1 202,225.9 202,245.2 				"/>
			</g>
		</g>
		<polygon fill="#B4BFA6" points="216.5,218.7 211.6,227.1 216.5,235.5 221.3,227.1 		"/>
	</g>
	<g>
		<g>
			<g>
				<polygon fill="#B4BFA6" points="152.1,259.3 152.1,242.1 164.5,225.9 164.5,245.2 				"/>
			</g>
		</g>
		<polygon fill="#B4BFA6" points="145.9,226 145.9,228.2 150.1,235.5 154.9,227.1 150.1,218.7 		"/>
	</g>
	<polygon fill="#7C876C" points="316.1,200 297,175.6 268.7,175.6 249.6,200.1 230.5,175.6 202.2,175.6 183.1,200.1 164,175.6 
		145.9,175.6 145.9,186 149.9,180.9 183.1,223.4 216.4,180.9 249.6,223.4 282.9,180.9 316.1,223.3 349.2,181 353.2,186.1 
		353.2,175.6 335.1,175.6 	"/>
	<polygon fill="#869175" points="131.2,279.1 70,261 125.7,190 145.9,203.4 145.9,273.7 	"/>
	<polygon fill="#B4BFA6" points="131.2,279.1 70,261 70,274.9 131.2,293 	"/>
	<rect x="67.4" y="361.8" fill="#606953" width="66.7" height="14.3"/>
	<polygon fill="#B4BFA6" points="145.9,220.6 116.8,201.2 125.7,190 145.9,203.4 	"/>
	<polygon opacity="0.5" fill="#616953" enable-background="new    " points="141.9,275.1 145.9,273.7 145.9,175.6 141.9,178.4 	"/>
	<path fill="#6C755D" d="M353.3,175.6l20.2,14.4l55.7,71v111h-61.3v-92.9l-14.6-5.4L353.3,175.6L353.3,175.6z"/>
	<polygon fill="#869175" points="367.9,279.1 429.2,261 373.5,190 353.3,203.4 353.3,273.7 	"/>
	<polygon fill="#B4BFA6" points="367.9,279.1 429.2,261 429.2,274.9 367.9,293 	"/>
	<rect x="365.1" y="361.8" fill="#606953" width="66.7" height="14.3"/>
	<polygon fill="#B4BFA6" points="353.3,220.6 382.3,201.2 373.5,190 353.3,203.4 	"/>
	<polygon opacity="0.5" fill="#616953" enable-background="new    " points="357.2,275.1 353.3,273.7 353.3,175.6 357.2,178.4 	"/>
	<rect x="173.1" y="467" fill="#606953" width="153" height="12.5"/>
	<path fill="#6C755D" d="M353.2,458c0,5.5-4.5,10-10.1,10H155.9c-5.6,0-10.1-4.5-10.1-10v-59.8c0-5.5,4.5-10,10.1-10h187.2
		c5.6,0,10.1,4.5,10.1,10L353.2,458L353.2,458z"/>
</g>
</svg>
