<?xml version="1.0" encoding="utf-8"?>
<!-- Generator: Adobe Illustrator 18.0.0, SVG Export Plug-In . SVG Version: 6.00 Build 0)  -->
<!DOCTYPE svg PUBLIC "-//W3C//DTD SVG 1.1//EN" "http://www.w3.org/Graphics/SVG/1.1/DTD/svg11.dtd">
<svg version="1.1" id="content" xmlns="http://www.w3.org/2000/svg" xmlns:xlink="http://www.w3.org/1999/xlink" x="0px" y="0px"
	 width="500px" height="500px" viewBox="0 0 500 500" enable-background="new 0 0 500 500" xml:space="preserve">
<rect id="position" x="0.5" y="0.5" display="none" fill="none" stroke="#000000" width="499" height="499"/>
<g>
	<g>
		<polygon fill="#3D5789" points="220.2,174.5 243.8,190.6 250.2,206.9 256.5,190.6 279.8,174.5 382.4,174.5 382.4,480.2 
			116.6,480.3 116.6,174.5 		"/>
	</g>
	<rect x="116.6" y="174.5" fill="#314262" width="104.5" height="17.1"/>
	<rect x="280.8" y="174.5" fill="#314262" width="101.5" height="17.1"/>
	<polygon fill="#5F78A1" points="359.6,174.5 343,174.5 343,480.3 359.6,480.3 	"/>
	<rect x="302.4" y="174.5" fill="#5F78A1" width="16.6" height="305.8"/>
	<polygon fill="#5F78A1" points="278.5,174.8 261.9,192.4 261.9,480.3 278.5,480.3 	"/>
	<polygon fill="#5F78A1" points="238,192.7 221.4,175.5 221.4,480.3 238,480.3 	"/>
	<rect x="180.9" y="174.5" fill="#5F78A1" width="16.6" height="305.8"/>
	<rect x="140.5" y="174.5" fill="#5F78A1" width="16.6" height="305.8"/>
	<g>
		<g>
			<rect x="116.6" y="214.8" fill="#314262" width="265.7" height="17.1"/>
		</g>
		<g>
			<g>
				<rect x="140.5" y="174.5" fill="#3E5176" width="16.6" height="17.1"/>
			</g>
			<g>
				<rect x="180.9" y="174.5" fill="#3E5176" width="16.6" height="17.1"/>
			</g>
			<g>
				<rect x="302.4" y="174.5" fill="#3E5176" width="16.6" height="17.1"/>
			</g>
			<g>
				<rect x="343" y="174.5" fill="#3E5176" width="16.6" height="17.1"/>
			</g>
		</g>
		<g>
			<rect x="140.5" y="214.8" fill="#3E5176" width="16.6" height="17.1"/>
		</g>
		<g>
			<rect x="180.9" y="214.8" fill="#3E5176" width="16.6" height="17.1"/>
		</g>
		<g>
			<rect x="221.4" y="214.8" fill="#3E5176" width="16.6" height="17.1"/>
		</g>
		<g>
			<rect x="261.9" y="214.8" fill="#3E5176" width="16.6" height="17.1"/>
		</g>
		<g>
			<rect x="302.4" y="214.8" fill="#3E5176" width="16.6" height="17.1"/>
		</g>
		<g>
			<rect x="343" y="214.8" fill="#3E5176" width="16.6" height="17.1"/>
		</g>
	</g>
	<rect x="116.6" y="255.1" fill="#314262" width="265.7" height="17.1"/>
	<g>
		<rect x="140.5" y="255.1" fill="#3E5176" width="16.6" height="17.1"/>
	</g>
	<g>
		<rect x="180.9" y="255.1" fill="#3E5176" width="16.6" height="17.1"/>
	</g>
	<g>
		<rect x="221.4" y="255.1" fill="#3E5176" width="16.6" height="17.1"/>
	</g>
	<g>
		<rect x="261.9" y="255.1" fill="#3E5176" width="16.6" height="17.1"/>
	</g>
	<g>
		<rect x="302.4" y="255.1" fill="#3E5176" width="16.6" height="17.1"/>
	</g>
	<g>
		<rect x="343" y="255.1" fill="#3E5176" width="16.6" height="17.1"/>
	</g>
	<g>
		<g>
			<rect x="116.6" y="295.3" fill="#314262" width="265.7" height="17.1"/>
		</g>
		<g>
			<rect x="140.5" y="295.3" fill="#3E5176" width="16.6" height="17.1"/>
		</g>
		<g>
			<rect x="180.9" y="295.3" fill="#3E5176" width="16.6" height="17.1"/>
		</g>
		<g>
			<rect x="221.4" y="295.3" fill="#3E5176" width="16.6" height="17.1"/>
		</g>
		<g>
			<rect x="261.9" y="295.3" fill="#3E5176" width="16.6" height="17.1"/>
		</g>
		<g>
			<rect x="302.4" y="295.3" fill="#3E5176" width="16.6" height="17.1"/>
		</g>
		<g>
			<rect x="343" y="295.3" fill="#3E5176" width="16.6" height="17.1"/>
		</g>
	</g>
	<g>
		<g>
			<rect x="116.6" y="335.6" fill="#314262" width="265.7" height="17.1"/>
		</g>
		<g>
			<rect x="140.5" y="335.6" fill="#3E5176" width="16.6" height="17.1"/>
		</g>
		<g>
			<rect x="180.9" y="335.6" fill="#3E5176" width="16.6" height="17.1"/>
		</g>
		<g>
			<rect x="221.4" y="335.6" fill="#3E5176" width="16.6" height="17.1"/>
		</g>
		<g>
			<rect x="261.9" y="335.6" fill="#3E5176" width="16.6" height="17.1"/>
		</g>
		<g>
			<rect x="302.4" y="335.6" fill="#3E5176" width="16.6" height="17.1"/>
		</g>
		<g>
			<rect x="343" y="335.6" fill="#3E5176" width="16.6" height="17.1"/>
		</g>
	</g>
	<g>
		<g>
			<path fill="#2D3C54" d="M250.3,206.8c-0.1,0-0.2,0-0.3-0.1c-0.4-0.2-0.5-0.6-0.4-0.9l6.1-14.2c0.2-0.4,0.6-0.5,0.9-0.4
				c0.4,0.2,0.5,0.6,0.4,0.9l-6.1,14.2C250.8,206.7,250.5,206.8,250.3,206.8z"/>
		</g>
		<g>
			<path fill="#2D3C54" d="M250.3,206.8c-0.3,0-0.5-0.1-0.6-0.4l-6.8-14.2c-0.2-0.3,0-0.8,0.3-0.9c0.3-0.2,0.8,0,0.9,0.3l6.8,14.2
				c0.2,0.3,0,0.8-0.3,0.9C250.5,206.8,250.4,206.8,250.3,206.8z"/>
		</g>
		<g>
			<g>
				<polygon fill="#314262" points="302.2,174.5 279.5,218 255.6,191.9 256.3,189.7 279.1,174.5 				"/>
			</g>
			<g>
				<polygon fill="#3D5789" points="256.3,189.7 279.2,212.6 299.4,174.5 278.7,174.5 				"/>
			</g>
			<g>
				<polygon fill="#314262" points="197.9,174.5 220.5,218 244.4,191.9 243.7,189.7 220.9,174.5 				"/>
			</g>
			<g>
				<polygon fill="#3D5789" points="200.6,174.5 220.8,213.3 243.7,189.7 220.9,174.5 				"/>
			</g>
		</g>
	</g>
	<g>
		<g>
			<path fill="#FFFFFF" d="M243.3,221.4c-1.1,0-2,0.9-2,2.1c0,1.1,0.9,2.1,2,2.1s2-0.9,2-2.1C245.3,222.3,244.4,221.4,243.3,221.4z"
				/>
		</g>
		<g>
			<path fill="#FFFFFF" d="M243.3,261.3c-1.1,0-2,0.9-2,2.1c0,1.1,0.9,2.1,2,2.1s2-0.9,2-2.1C245.3,262.3,244.4,261.3,243.3,261.3z"
				/>
		</g>
		<g>
			<path fill="#FFFFFF" d="M243.3,301.3c-1.1,0-2,0.9-2,2.1c0,1.1,0.9,2.1,2,2.1s2-0.9,2-2.1C245.3,302.3,244.4,301.3,243.3,301.3z"
				/>
		</g>
		<g>
			<path fill="#FFFFFF" d="M241.3,343.4c0,1.2,0.9,2.1,2,2.1s2-0.9,2-2.1c0-1.1-0.9-2.1-2-2.1S241.3,342.3,241.3,343.4z"/>
		</g>
	</g>
	<g>
		<g>
			<rect x="116.6" y="375.9" fill="#314262" width="265.7" height="17.1"/>
		</g>
		<g>
			<rect x="140.5" y="375.9" fill="#3E5176" width="16.6" height="17.1"/>
		</g>
		<g>
			<rect x="180.9" y="375.9" fill="#3E5176" width="16.6" height="17.1"/>
		</g>
		<g>
			<rect x="221.4" y="375.9" fill="#3E5176" width="16.6" height="17.1"/>
		</g>
		<g>
			<rect x="261.9" y="375.9" fill="#3E5176" width="16.6" height="17.1"/>
		</g>
		<g>
			<rect x="302.4" y="375.9" fill="#3E5176" width="16.6" height="17.1"/>
		</g>
		<g>
			<rect x="343" y="375.9" fill="#3E5176" width="16.6" height="17.1"/>
		</g>
	</g>
	<g>
		<g>
			<rect x="116.6" y="416.2" fill="#314262" width="265.7" height="17.1"/>
		</g>
		<g>
			<rect x="140.5" y="416.2" fill="#3E5176" width="16.6" height="17.1"/>
		</g>
		<g>
			<rect x="180.9" y="416.2" fill="#3E5176" width="16.6" height="17.1"/>
		</g>
		<g>
			<rect x="221.4" y="416.2" fill="#3E5176" width="16.6" height="17.1"/>
		</g>
		<g>
			<rect x="261.9" y="416.2" fill="#3E5176" width="16.6" height="17.1"/>
		</g>
		<g>
			<rect x="302.4" y="416.2" fill="#3E5176" width="16.6" height="17.1"/>
		</g>
		<g>
			<rect x="343" y="416.2" fill="#3E5176" width="16.6" height="17.1"/>
		</g>
	</g>
	<g>
		<g>
			<rect x="116.6" y="456.5" fill="#314262" width="265.7" height="17.1"/>
		</g>
		<g>
			<rect x="140.5" y="456.5" fill="#3E5176" width="16.6" height="17.1"/>
		</g>
		<g>
			<rect x="180.9" y="456.5" fill="#3E5176" width="16.6" height="17.1"/>
		</g>
		<g>
			<rect x="221.4" y="456.5" fill="#3E5176" width="16.6" height="17.1"/>
		</g>
		<g>
			<rect x="261.9" y="456.5" fill="#3E5176" width="16.6" height="17.1"/>
		</g>
		<g>
			<rect x="302.4" y="456.5" fill="#3E5176" width="16.6" height="17.1"/>
		</g>
		<g>
			<rect x="343" y="456.5" fill="#3E5176" width="16.6" height="17.1"/>
		</g>
	</g>
	<g>
		<path fill="#2D3C54" d="M249.3,480.3l0.3-274.2c0-0.4,0.3-0.7,0.7-0.7l0,0c0.4,0,0.7,0.3,0.7,0.7l-0.3,274.2H249.3z"/>
	</g>
	<g>
		<g>
			<path fill="#FFFFFF" d="M243.3,381.9c-1.1,0-2,0.9-2,2.1c0,1.1,0.9,2.1,2,2.1s2-0.9,2-2.1C245.3,382.9,244.4,381.9,243.3,381.9z"
				/>
		</g>
		<g>
			<path fill="#FFFFFF" d="M243.3,421.9c-1.1,0-2,0.9-2,2.1c0,1.1,0.9,2.1,2,2.1s2-0.9,2-2.1C245.3,422.9,244.4,421.9,243.3,421.9z"
				/>
		</g>
		<g>
			<path fill="#FFFFFF" d="M243.3,461.9c-1.1,0-2,0.9-2,2.1c0,1.1,0.9,2.1,2,2.1s2-0.9,2-2.1C245.3,462.9,244.4,461.9,243.3,461.9z"
				/>
		</g>
	</g>
</g>
</svg>
