<?xml version="1.0" encoding="utf-8"?>
<!-- Generator: Adobe Illustrator 14.0.0, SVG Export Plug-In . SVG Version: 6.00 Build 43363)  -->
<!DOCTYPE svg PUBLIC "-//W3C//DTD SVG 1.1//EN" "http://www.w3.org/Graphics/SVG/1.1/DTD/svg11.dtd">
<svg version="1.1" id="content" xmlns="http://www.w3.org/2000/svg" xmlns:xlink="http://www.w3.org/1999/xlink" x="0px" y="0px"
	 width="500px" height="500px" viewBox="0 0 500 500" enable-background="new 0 0 500 500" xml:space="preserve">
<rect id="position" x="0.5" y="0.5" display="none" fill="none" stroke="#000000" width="499" height="499"/>
<g id="body">
	<path fill="#2F71A8" d="M317.978,175.489c-37.353,6.331-68.42,42.125-68.42,42.125l-68.421-42.125H116.65V480.5H382.5V175.489
		H317.978z"/>
	<path fill="#166591" d="M249.557,217.614c0,0,19.5,1.057,37.63,15.819c15.243-28.885,36.265-58.185,36.265-58.185l-5.474,0.239
		l-32.396,38.367C285.583,213.856,261.989,205.004,249.557,217.614z"/>
	<path fill="#74A0C5" d="M249.557,217.614c0,0,7.625-9.08,36.188,0c21.66-31.517,32.231-42.125,32.231-42.125
		s-22.009,3.446-43.81,20.104C252.367,212.251,249.557,217.614,249.557,217.614z"/>
	<path fill="#166591" d="M249.557,217.614c0,0-19.499,1.057-37.631,15.819c-15.243-28.885-36.264-58.185-36.264-58.185l5.474,0.239
		l32.396,38.367C213.53,213.856,237.124,205.004,249.557,217.614z"/>
	<path fill="#74A0C5" d="M249.557,217.614c0,0-7.625-9.08-36.187,0c-21.662-31.517-32.234-42.125-32.234-42.125
		s22.009,3.446,43.81,20.104C246.747,212.251,249.557,217.614,249.557,217.614z"/>
	<circle fill="#91BBD8" cx="249.468" cy="227.188" r="3.276"/>
	<circle fill="#91BBD8" cx="249.468" cy="240.26" r="3.276"/>
	<circle fill="#91BBD8" cx="249.468" cy="253.333" r="3.276"/>
	<path fill="none" stroke="#105482" d="M259.217,217.36v43.531c0,2.762-2.238,5-5,5h-9.5c-2.761,0-5-2.238-5-5V217.36"/>
</g>
</svg>
