<?xml version="1.0" encoding="utf-8"?>
<!-- Generator: Adobe Illustrator 14.0.0, SVG Export Plug-In . SVG Version: 6.00 Build 43363)  -->
<!DOCTYPE svg PUBLIC "-//W3C//DTD SVG 1.1//EN" "http://www.w3.org/Graphics/SVG/1.1/DTD/svg11.dtd">
<svg version="1.1" id="content" xmlns="http://www.w3.org/2000/svg" xmlns:xlink="http://www.w3.org/1999/xlink" x="0px" y="0px"
	 width="500px" height="500px" viewBox="0 0 500 500" enable-background="new 0 0 500 500" xml:space="preserve">
<rect id="position" x="0.5" y="0.5" display="none" fill="none" stroke="#000000" width="499" height="499"/>
<g id="body">
	<path fill="#EFDAE5" d="M288.361,234.323H210.39v-52.437c0,0,22.637,7.057,38.985,7.057c16.348,0,38.984-7.057,38.984-7.057
		L288.361,234.323L288.361,234.323z"/>
	<polygon fill="#F495BC" points="288.473,175.455 258.392,195.08 249.665,215.706 241.036,195.177 210.854,175.455 116.694,175.455 
		116.694,480.51 392.5,480.51 392.5,175.455 	"/>
	<circle fill="#FFFFFF" cx="267.058" cy="235.861" r="4.429"/>
	<path fill="#FFFFFF" d="M267.058,260.142c-2.445,0-4.431,1.981-4.431,4.431c0,2.443,1.983,4.43,4.431,4.43
		c2.444,0,4.43-1.984,4.43-4.43C271.487,262.125,269.502,260.142,267.058,260.142z"/>
	<circle fill="#FFFFFF" cx="267.058" cy="293.282" r="4.43"/>
	<circle fill="#FFFFFF" cx="267.058" cy="321.99" r="4.43"/>
	<path fill="#FFFFFF" d="M267.058,346.271c-2.445,0-4.431,1.98-4.431,4.433c0,2.444,1.983,4.427,4.431,4.427
		c2.444,0,4.43-1.98,4.43-4.427C271.487,348.254,269.502,346.271,267.058,346.271z"/>
	<path fill="#FFFFFF" d="M267.058,374.981c-2.445,0-4.431,1.98-4.431,4.432c0,2.445,1.983,4.428,4.431,4.428
		c2.444,0,4.43-1.98,4.43-4.428C271.487,376.964,269.502,374.981,267.058,374.981z"/>
	<circle fill="#FFFFFF" cx="267.058" cy="408.123" r="4.43"/>
	<path fill="#FFFFFF" d="M267.058,432.402c-2.445,0-4.431,1.982-4.431,4.435c0,2.442,1.983,4.427,4.431,4.427
		c2.444,0,4.43-1.982,4.43-4.427C271.487,434.385,269.502,432.402,267.058,432.402z"/>
	<path fill="#FFFFFF" d="M267.058,461.112c-2.445,0-4.431,1.983-4.431,4.435c0,2.441,1.983,4.428,4.431,4.428
		c2.444,0,4.43-1.984,4.43-4.428C271.487,463.096,269.502,461.112,267.058,461.112z"/>
	<polygon fill="#F8BED6" stroke="#C9749B" stroke-width="1.8488" stroke-linejoin="round" points="169.216,252.283 169.216,278.543 
		186.714,295.829 204.213,278.543 204.213,252.283 	"/>
	
		<line fill="none" stroke="#C9749B" stroke-width="1.8488" stroke-linejoin="round" x1="204.213" y1="262.016" x2="169.216" y2="262.016"/>
	<polygon fill="#D887AF" points="259.161,203.47 300.483,221.058 306.277,175.455 288.571,175.455 258.392,195.08 255.946,200.901 
		255.946,200.901 249.802,213.988 243.561,200.901 243.561,200.901 241.134,195.08 210.955,175.455 193.249,175.455 
		201.043,223.058 240.315,203.691 248.647,219.959 248.647,480.412 250.878,480.412 250.878,220.01 	"/>
	<polygon fill="#F8BED6" points="258.487,194.988 296.169,211.988 301.013,175.455 288.571,175.455 	"/>
	<polygon fill="#F8BED6" points="210.955,175.455 198.318,175.455 205.161,213.988 241.134,195.08 	"/>
</g>
</svg>
