<?xml version="1.0" encoding="utf-8"?>
<!-- Generator: Adobe Illustrator 18.0.0, SVG Export Plug-In . SVG Version: 6.00 Build 0)  -->
<!DOCTYPE svg PUBLIC "-//W3C//DTD SVG 1.1//EN" "http://www.w3.org/Graphics/SVG/1.1/DTD/svg11.dtd">
<svg version="1.1" id="content" xmlns="http://www.w3.org/2000/svg" xmlns:xlink="http://www.w3.org/1999/xlink" x="0px" y="0px"
	 width="500px" height="500px" viewBox="0 0 500 500" enable-background="new 0 0 500 500" xml:space="preserve">
<rect id="position" x="0.5" y="0.5" display="none" fill="none" stroke="#000000" width="499" height="499"/>
<g id="bounds" display="none">
	<rect x="-0.2" y="80.4" display="inline" fill="none" stroke="#EAEAEA" stroke-miterlimit="10" width="499.5" height="499.5"/>
</g>
<g>
	<path fill="none" d="M384.3,414.5c4.9-2.3,7.4-4.8,7.5-7.5c-1.9-0.4-4.6,0.2-8.3,1.9v6C383.8,414.7,384.1,414.6,384.3,414.5z"/>
	<path fill="none" d="M342.6,173.9c-0.3,0.2-0.6,0.6-1,1.1h2.6C343.7,174.4,343.1,174,342.6,173.9z"/>
	<path fill="none" d="M115.5,443.7c-1.1,1.7-1.3,3.7-0.8,5.9c0.6-0.3,1.2-0.7,1.8-1.1v-6.9C116.2,442.5,115.9,443.1,115.5,443.7z"/>
	<polygon fill="#206689" points="116.6,175.1 116.6,175.1 116.6,175.1 	"/>
	<path fill="#206689" d="M383.6,191.3v65.9c0.1,0.1,0.3,0.1,0.4,0.2c5.2,1.3,9.2,1.9,12,1.8c2.8-0.1,7.1,1.1,12.7,3.6
		c2.2,1.8,2.6,5.2,1.4,10c-0.8,1.5-2.2,3.5-4.3,6l29.9,16.2l26-76.6l-76.2-42.2C386.4,181.2,385.8,186.3,383.6,191.3z"/>
	<path fill="#206689" d="M383.5,404.1c0,0,0.1,0,0.1,0v-12c0,0-0.1,0-0.1-0.1V404.1z"/>
	<polygon fill="#206689" points="116.6,175.1 116.6,175.1 116.6,175.1 	"/>
	<path fill="#206689" d="M383.5,414.9c0,0,0.1,0,0.1-0.1v-6c0,0-0.1,0-0.1,0.1V414.9z"/>
	<path fill="#206689" d="M383.5,391.3c0,0,0.1,0.1,0.1,0.1v-5c0,0-0.1,0-0.1,0V391.3z"/>
	<path fill="#206689" d="M383.5,334.6c0,0,0.1-0.1,0.1-0.1v-35.3c0,0-0.1,0-0.1,0V334.6z"/>
	<path fill="#206689" d="M383.5,377.7c0,0,0.1,0.1,0.1,0.1v-9.2c0,0-0.1-0.1-0.1-0.1V377.7z"/>
	<polygon fill="#206689" points="127.5,175.1 127.5,175.1 116.6,175.1 116.7,175.1 	"/>
	<path fill="#206689" d="M325.2,175h-19.4l-0.1,0.1L325.2,175C325.2,175.1,325.2,175,325.2,175z"/>
	<path fill="#206689" d="M154,175.1C154,175.1,154,175.1,154,175.1l-2.9,0c0,0,0,0,0,0H154z"/>
	<polygon fill="#206689" points="278.4,197.2 278.4,197.2 272.4,202 272.4,202 	"/>
	<path fill="#206689" d="M344.2,175h-2.6c0,0,0,0,0,0.1L344.2,175C344.3,175.1,344.2,175,344.2,175z"/>
	<path fill="#206689" d="M231.4,205.7c0-0.1,0-0.1,0-0.2l-5.9-4.8c0,0,0,0.1,0,0.1L231.4,205.7z"/>
	<path fill="#206689" d="M196.3,176.7C196.3,176.7,196.3,176.6,196.3,176.7l-1.8-1.6h-11.6c0,0,0,0,0,0h11.6L196.3,176.7z"/>
	<path fill="#206689" d="M383.5,478c0,0,0.1,0.1,0.1,0.1v-26.7c0,0-0.1,0-0.1,0V478z"/>
	<path fill="#206689" d="M383.5,257.2c0,0,0.1,0,0.1,0v-65.9c0,0.1-0.1,0.2-0.1,0.3V257.2z"/>
	<polygon fill="#206689" points="116.7,175.1 116.6,175.1 116.6,175.1 116.6,175.1 	"/>
	<polygon fill="#91ADAA" points="383.6,175 383.3,175 383.6,175.2 	"/>
	<polygon fill="#91ADAA" points="290.1,187.7 278.4,197.2 278.4,197.2 	"/>
	<path fill="#91ADAA" d="M341.5,175.1C341.6,175.1,341.6,175,341.5,175.1l-16.4-0.1c0,0,0,0,0,0.1H341.5z"/>
	<path fill="#91ADAA" d="M383.2,175.1c0.1,0,0.1-0.1,0.1-0.1h-39.1c0,0,0,0,0.1,0.1H383.2z"/>
	<path fill="#91ADAA" d="M383.5,175.1v16.5c0-0.1,0.1-0.2,0.1-0.3v-16.2l-0.2-0.1c0,0-0.1,0-0.1,0.1H383.5z"/>
	<path fill="#91ADAA" d="M383.5,266.7v32.6c0,0,0.1,0,0.1,0v-32.5L383.5,266.7z"/>
	<path fill="#91ADAA" d="M383.5,266.7l0.1,0.1v-9.5c0,0-0.1,0-0.1,0V266.7z"/>
	<path fill="#91ADAA" d="M231.4,205.5c0,0.1,0,0.1,0,0.2l18.1,14.9l22.9-18.6c0,0,0,0,0,0l-22.8,18.5L231.4,205.5z"/>
	<polygon fill="#91ADAA" points="151.1,175.1 151.1,175.1 127.5,175.1 127.5,175.1 	"/>
	<path fill="#91ADAA" d="M225.5,200.8c0,0,0-0.1,0-0.1l-29.2-24c0,0,0,0,0,0L225.5,200.8z"/>
	<path fill="#91ADAA" d="M182.8,175.1C182.8,175.1,182.8,175.1,182.8,175.1l-28.8,0c0,0,0,0,0,0H182.8z"/>
	<path fill="#91ADAA" d="M116.6,255.4c-0.3,0-0.6-0.1-0.9-0.1c-0.2,4.2-0.6,8.2-0.5,12.1l1.4-0.8V255.4z"/>
	<path fill="#91ADAA" d="M115.2,362.2c0.4,2.5,0.9,4.5,1.4,6.2v-8.8C115.8,360.3,115.3,361.2,115.2,362.2z"/>
	<path fill="#91ADAA" d="M384.7,392.5c-0.4-0.4-0.7-0.7-1.1-1.1v0.6C383.9,392.2,384.3,392.3,384.7,392.5z"/>
	<path fill="#91ADAA" d="M383.5,386.4c0,0,0.1,0,0.1,0v-8.6c0,0-0.1-0.1-0.1-0.1V386.4z"/>
	<path fill="#91ADAA" d="M383.5,392c0,0,0.1,0,0.1,0.1v-0.6c0,0-0.1-0.1-0.1-0.1V392z"/>
	<path fill="#91ADAA" d="M383.5,409c0,0,0.1,0,0.1-0.1v-4.8c0,0-0.1,0-0.1,0V409z"/>
	<path fill="#91ADAA" d="M383.5,414.9v36.5c0,0,0.1,0,0.1,0v-36.6C383.5,414.9,383.5,414.9,383.5,414.9z"/>
	<path fill="#91ADAA" d="M383.5,368.5c0,0,0.1,0.1,0.1,0.1v-34.1c0,0-0.1,0.1-0.1,0.1V368.5z"/>
	<path fill="#91ADAA" d="M383.5,484.6h0.1v-6.5c0,0-0.1-0.1-0.1-0.1V484.6z"/>
	<path fill="none" d="M299.4,484.6C299.4,484.6,299.4,484.7,299.4,484.6l30.3,0.1c0,0,0,0-0.1-0.1H299.4z"/>
	<path fill="none" d="M342.1,484.6C342.1,484.6,342.1,484.7,342.1,484.6l23.4,0.1c0.1,0,0.1,0,0.2-0.1H342.1z"/>
	<path fill="none" d="M116.6,484.6l0-9.3c0,0,0,0-0.1,0L116.6,484.6l17.2,0.1c0,0,0,0,0-0.1H116.6z"/>
	<path fill="none" d="M116.6,276.3c0-0.1-0.1-0.2-0.1-0.2v11.5c0,0,0.1,0,0.1,0L116.6,276.3z"/>
	<polygon fill="none" points="305.7,175.1 305.7,175.1 297.2,182 297.2,182 	"/>
	<path fill="none" d="M116.6,321.6C116.6,321.6,116.6,321.6,116.6,321.6l-0.1,37.9c0,0,0.1-0.1,0.1-0.1L116.6,321.6z"/>
	<polygon fill="none" points="116.6,175.1 116.6,175.1 116.6,175.1 	"/>
	<path fill="none" d="M207.1,484.6C207.1,484.6,207.1,484.7,207.1,484.6l5.6,0.1c0,0,0,0,0-0.1H207.1z"/>
	<path fill="none" d="M116.6,368.6c0-0.1-0.1-0.1-0.1-0.2v58.6c0,0.1,0,0.1,0.1,0.2L116.6,368.6z"/>
	<path fill="none" d="M116.6,441.7v6.9c0,0,0,0,0.1-0.1l0-7C116.6,441.6,116.6,441.7,116.6,441.7z"/>
	<path fill="none" d="M173.4,484.6C173.4,484.6,173.4,484.7,173.4,484.6l16.3,0.1c0,0,0,0,0-0.1H173.4z"/>
	<path fill="none" d="M157,484.6C157,484.6,157,484.7,157,484.6l5.5,0.1c0,0,0,0,0-0.1H157z"/>
	<path fill="#206689" d="M116.6,255.4l0-80.3h0l-0.1,0L116.6,255.4C116.6,255.4,116.6,255.4,116.6,255.4z"/>
	<path fill="#206689" d="M145.2,182.8c0.5,0.3,2-3,8.8-7.7h-2.9C145.4,179.7,144.7,182.5,145.2,182.8z"/>
	<path fill="#206689" d="M383.3,377.6c0,0,0.1,0.1,0.1,0.1v-9.2c0,0-0.1-0.1-0.1-0.1V377.6z"/>
	<path fill="#206689" d="M383.3,404.1c0,0,0.1,0,0.1,0V392c0,0-0.1,0-0.1-0.1V404.1z"/>
	<path fill="#206689" d="M383.3,391.2c0,0,0.1,0.1,0.1,0.1v-4.9c0,0-0.1,0-0.1,0V391.2z"/>
	<path fill="#206689" d="M383.3,334.7c0,0,0.1-0.1,0.1-0.1v-35.4c0,0-0.1,0-0.1,0V334.7z"/>
	<path fill="#206689" d="M353.6,191.7c1.1-0.6,2.2-1.2,3.3-1.8c0,0-0.1-0.1-0.1-0.1C355.8,189.8,354.7,190.5,353.6,191.7z"/>
	<path fill="#206689" d="M328.7,483.6c-0.4-0.5-0.6-1-0.8-1.5h-30.7c0.8,0.8,1.5,1.7,2.2,2.5h30.3
		C329.3,484.3,328.9,483.9,328.7,483.6z"/>
	<path fill="#206689" d="M383.3,409v6c0,0,0.1,0,0.1-0.1v-6C383.4,409,383.4,409,383.3,409z"/>
	<path fill="#206689" d="M157.9,482.1c-0.3,0.8-0.6,1.6-0.9,2.5h5.5c0.4-0.8,0.7-1.7,1-2.5H157.9z"/>
	<path fill="#206689" d="M116.7,441.4c0,0,0,0.1-0.1,0.1l0,7c0,0,0,0,0.1,0V441.4z"/>
	<path fill="#206689" d="M116.7,368.7c0,0,0-0.1,0-0.1l0,58.5c0,0,0,0.1,0.1,0.1V368.7z"/>
	<path fill="#206689" d="M116.7,276.4c0,0,0-0.1,0-0.1l0,11.3c0,0,0,0,0,0V276.4z"/>
	<path fill="#206689" d="M116.7,321.6C116.7,321.6,116.6,321.6,116.7,321.6l0,37.9c0,0,0,0,0,0V321.6z"/>
	<path fill="#206689" d="M383.3,477.8c0,0,0.1,0.1,0.1,0.1v-26.6c0,0-0.1,0-0.1,0V477.8z"/>
	<path fill="#206689" d="M208.6,482.1c-0.5,0.8-1,1.7-1.5,2.5h5.6c0.6-0.8,1.3-1.7,1.9-2.5H208.6z"/>
	<path fill="#206689" d="M247.8,482.1h-14.4c-0.2,0.8-0.5,1.7-0.8,2.5h15C247,484.2,247.1,483.3,247.8,482.1z"/>
	<path fill="#206689" d="M363.1,482.1c-1.6,0.7-3.3,1.4-5.3,2c0.8-0.7,1.5-1.4,2.1-2h-6.3c-0.1,0.2-0.2,0.4-0.3,0.7
		c-0.4-0.3-0.7-0.5-1-0.7h-12.8c0.8,1,1.6,1.8,2.6,2.5h23.6c2.4-0.7,4.3-1.6,5.7-2.5H363.1z"/>
	<path fill="#206689" d="M173.7,482.1c0,0.8-0.2,1.7-0.3,2.5h16.2c-0.7-1.1-1.4-1.9-2.1-2.5H173.7z"/>
	<path fill="#206689" d="M250.1,484.6c-0.1,0-0.1,0-0.2,0h19.2C261.6,483.3,254.6,483.3,250.1,484.6z"/>
	<path fill="#206689" d="M116.7,482.1v-6.8c0,0,0,0-0.1,0l0,9.3h17.2c0.2-0.8,0.5-1.6,0.8-2.5H116.7z"/>
	<path fill="#206689" d="M347.3,478.6c-0.9-1.5-1.5-2.8-1.7-3.9c-0.2-1.1-0.9-1.9-1.9-2.6c-1,2.9-0.5,5.8,1.5,8.7
		c-2.2-0.2-3.8-0.5-4.7-1.1c-0.9-0.5-1.8-0.8-2.9-0.8c0.5,1.2,1.2,2.3,1.9,3.2h12.8c-0.6-0.3-1.1-0.6-1.6-0.8
		C349.9,481.1,348.8,480.2,347.3,478.6z"/>
	<path fill="#206689" d="M378.8,387.1c1.4,1.1,2.9,2.5,4.6,4.1v-4.8C381.3,386,379.7,386.3,378.8,387.1z"/>
	<path fill="#206689" d="M150.4,294.3c2.6,5.4,3-6.5-12.9-21c-3.7-3.4-7.1-0.9-3.5,5.4C137.7,285,145.5,284.2,150.4,294.3z"/>
	<path fill="#206689" d="M158.6,479.8c-0.3,0.7-0.5,1.5-0.8,2.3h5.6c0.5-1.5,0.8-2.9,0.9-4.3C165,468.4,159.4,477.6,158.6,479.8z"/>
	<path fill="#206689" d="M363.5,475.9c-1,0.7-2.3,1.3-3.8,2c2.6-2.5,3.5-4.6,2.7-6.1c-1-0.2-2.5,1.1-4.6,3.8c1.3-4.4,1.9-7.4,1.6-9
		c-0.3-1.6-0.7-2.5-1.2-2.7c-0.5,0.2-1.2,1.1-2.1,2.6c-0.9,1.5-1.5,3.2-1.7,5.2c-0.3,1.9-0.4,5-0.5,9.3c0.1,0.4,0,0.8-0.1,1.2h6.3
		C362.8,479.3,364,477.2,363.5,475.9z"/>
	<path fill="#206689" d="M125.8,304.2c-6.8-4-9.9,1.1-6.4,7.3c4.2,7.5,15.9,5.8,20.2,17.2C140.9,332.1,139.6,312.4,125.8,304.2z"/>
	<path fill="#206689" d="M215.3,465.7c-1.6,4.3-3.2,10.2-6.7,16.4h6c4.5-6.3,8-13.1,8.4-19.2C223.8,450.3,216.4,462.7,215.3,465.7z"
		/>
	<path fill="#206689" d="M239.7,415.9L239.7,415.9c-2.6-1.6-5.5-3-8.7-3.8c-4.8-1.3-7.8-0.1-8.7,2.2c-0.9,2.3,0.1,5.6,3.3,8.8
		c7.7,7.6,21.5,1.6,30.5,13.9C258.5,440.2,253.1,424.2,239.7,415.9z"/>
	<path fill="#206689" d="M372.3,391.5c0.3,1.9,3.4,3.8,9.5,5.8c-8.5,0.4-14,1.3-16.6,2.7c-2.6,1.4-3.9,2.7-4,3.7
		c0.7,0.8,2.6,1.5,5.8,2.1c3.2,0.6,6.5,0.6,10.1-0.1c1.7-0.3,3.8-0.9,6.3-1.6v-12.2C378,389.5,374.3,389.3,372.3,391.5z"/>
	<path fill="#206689" d="M136.9,305.8c2.9,8.6,6.3,11.2,9,10.9c4.8-0.6,3.9-15.7-1.7-20.8c-6.3-5.7-20.7-7.1-25.5-15.3
		c-0.8-1.4-1.5-2.8-2-4.2v11.2C124.7,289.5,132.8,293.9,136.9,305.8z"/>
	<g>
		<path fill="#206689" d="M300.6,179.9c0.9-0.9,3.2-1.4,6.7-1.6c7.8,2.1,13.9,10.1,18.4,23.9c0.5,1.4,1,2.7,1.6,3.9
			c2,4.1,4.3,6.3,7,6.8c0.7-2.2,0.4-5.5-1-10c-1-3.1-2.4-6.6-4.4-10.7c-1.7-4.1-2.9-8.3-3.5-12.5c-0.2-1.6-0.2-3-0.2-4.5h-19.5
			l-8.5,6.9c0,0,0,0,0,0C298.6,181.4,299.7,180.8,300.6,179.9z"/>
		<g>
			<path fill="#206689" d="M64.3,295l50.8-27.6c-0.1-4,0.3-8,0.5-12.1c0.3,0,0.6,0.1,0.9,0.1v-80.3l-78.2,43.3L64.3,295z"/>
			<path fill="#206689" d="M383.5,191.6c-4.3,9.7-14.4,19.5-30.3,29.3c8-11.5,10.8-18.9,8.4-22.3c-2,2.1-4.6,4.4-7.8,6.8
				c4.6-7.2,5.6-12.4,3-15.6c-1.1,0.6-2.1,1.2-3.3,1.8c-1.7,1.8-3.5,5-5.5,9.5c0.1-2.4,0.2-4.5,0.3-6.6c0.1-7.3-0.4-12.3-1.6-15.1
				c-0.9-2-1.7-3.5-2.5-4.4h-2.7c-0.8,1.2-1.6,3.2-2.4,6c-1.2,4-1.6,8.3-1.2,12.9c0.1,1.6,0.4,3.6,0.8,5.9c0.7,4.2,1.8,9.5,3.2,15.9
				c0.7,1.2,0.7,2.7,0,4.5c-2.7-1.1-5-1.7-7-1.8c-2-0.1-5.1-1.6-9.2-4.4c-1.7-1.8-3.1-3.4-4.2-5c-0.8-1.1-1.5-2.2-1.9-3.2
				c-1.1-2.3-3.1-4-5.9-5c-0.4,4,0.3,7.7,2,11.2c1.4,2.8,3.4,5.5,6.1,8c-5.3,0.8-9.1,0.8-11.4,0.1c-2.3-0.7-4.7-0.8-7.2-0.3
				c8.8,11.5,20.3,15.2,34.6,11.1c-4.3,8.8-15.4,19.2-33.1,31.3c5.3,1.8,11.5,0.9,18.6-2.8c-0.9,4.9-3.7,10.4-8.4,16.6
				c8.3-1.8,15.3-8.5,21-20.2c0.3,3.9,0.1,7.1-0.7,9.7c-0.8,2.6-1.2,5.6-1.1,9.1c1.4,4.6,0.9,9-1.5,13.2
				c-6.3,7.4-17.1,10.8-32.4,10.1c-3.4-0.4-7.3-3.6-11.7-9.7c-1.2-2.4-2-6.3-2.4-11.8c-0.4-0.8-1.5-1.9-3.3-3.1
				c-1.8-1.3-3.3-3.4-4.7-6.3c-0.8-3.9-0.1-6.7,2.1-8.6c2.8-2.9,7.2-5,13.2-6.2c4-1.7,8.2-3,12.6-3.9c4.4-0.9,7.8-3.2,10.1-6.8
				c-2-1-3.8-1.3-5.5-0.8c-4,1.3-8.7,1.3-13.9,0c-5.3-1.3-9.1-3-11.4-5c-2.3-2-3.4-4-3.3-5.8c0-0.2,0-0.5-0.1-0.7
				c-0.1-1.5-1-2.8-2.6-3.7c-1.9-1.1-2.8-2.2-2.8-3.4c0.2-1.8,0.9-3.6,2.2-5.4c1.3-1.8,1.9-3.7,1.8-5.6c0.2-3.1-0.6-7.2-2.2-12.2
				c0-0.5,0.1-1.1,0.2-1.7l-5.9,4.8c0.2,5.6-0.3,11.3-2.3,16.5c-3.2,8.4-12.1,12.6-20.2,14.8c-7.9,2.1-15,2.1-15,2.1
				c6-3.1-1.7-15.3-3.5-29.7l-5.9-4.9c-0.7,2.4-1.6,4.7-3.1,6.6c-5.9,7.6-13.8,10.4-22.2,13c-2,0.6-4.1,1.2-6.1,1.9
				c-0.5-2.2-1.1-4.1-1.8-6c-5.4-14.2-14.3-19.8,4-39.6l-1.9-1.6h-11.6c-7.1,8.8-10,18.6-21.5,24.7c-0.9,0.5-1.9,1-3,1.4
				c-13,5.4-23.7,1.7-30.3,1.8c-1.6-3.7-3.8-13.2-2-22.6c0.4-1.8,0.9-3.5,1.5-5.3h-10.9h0l0,80.3c15.7,1.7,22.7-8.3,34.5,20.5
				c1.5,3.6,7.7,3.6,6.1-5.2c-2.9-16.1-15.6-19.6-16.2-36c-0.4-11.2,5.4-18.1,7.2-23c4.6-0.1,18.5,2,24.4,12.3
				c8.6,14.9-4.9,31.8-1.2,38.5c0.8,1.5,3.7,4.1,7-9.8c4.8-20.1,17.4-17.4,17.4-17.4c11.5,28.8-11.3,36-21.1,49
				c-9.8,13-1.1,16.2,7.5,5.8c8.6-10.5,18.4-15.3,27-10c-2.6,46.4-34.6,42-41.7,42.3c-7.1,0.3-11,5.4-8.2,8.9
				c4.6,5.8,25.4-10.1,39.7-6.3c11.4,3.1,14.6,20.7,14.7,21c-19.9,20.4-29.6,17.6-51.2,7.2c-8.8-4.2-13.4-6.6-20.6-5.7
				c-3.7,0.5-16.2,3.5-12.9,0c0.8-0.8,3.8-2.2,3.8-2.2c5.7-3,15.3-4.2,26.7-2c15.3,3.1,29.6,0.9,30.1-3.1c0.5-4.5-16.4-5.4-22.9-3.9
				c-29.7,6.9-21.1-0.9-18.7-4.8c11.7-19,24.3-18.7,31.9-21c7.5-2.3,19.1-15.3,17.5-16.8c-1.6-1.5-11.1,3.8-11.1,3.8
				c-4.6,2.2-21.7,21.2-25.9,11.2c-4.2-10,7-26.6,11.5-31.7c4.5-5.1,17.5-16.6,13.8-19.3c-3.7-2.7-12.5,13.1-14.3,15.7
				c-1.8,2.5-5.2,5.7-5.2,0.7c-0.1-38.1-7.1-44.6-8-43.9c-0.9,0.7,10.4,9.9,1.7,57.7c-8,44-20.5,47.9-28.2,54.1
				c-3.5,2.8-7.6-1.7-5.7-3.6c3-3.1,13-3.5,4.3-12.2c-2.1-2.1-7.5-3.1-13.7-4.6v37.8c1-0.9,2.5-1.7,4.4-2.4c1.5-0.2,3.7,0,6.7,0.4
				c3,0.4,5.2,0.1,6.8-1.1c1.6-1.2,3.1-1.9,4.7-2.2c5.4,1.6,9,5,10.7,10.2c0,0,1.5,4.3,1,7.1c-1.4,12.4-6.8,21.3-16.2,26.7
				c4.7-12.2,5.7-20,3-23.3c-2.3-0.1-4.5,3.8-6.5,11.7c-1.6,5.7-4.6,11.2-9,16.4c1.3-7.5,1.2-15.1-0.4-22.8c-1-4.3-3.4-7.6-3.8-8.2
				c-0.6-0.8-1.1-1.9-1.5-3.2v58.5c0.2,0.4,0.4,0.8,0.6,1.1c0.8,1.3,1.1,4,1,7.9c-0.5,2-1,3.7-1.6,5.1v7.1c3.8-2.7,6.3-6.8,7.2-12.3
				c2.7,3.1,4.4,5.6,4.9,7.4c0.5,1.8,1.5,3.4,2.9,4.8c3.8-10.6,1.4-19.6-7.4-27.2c7.6-0.9,19,1.9,34.3,8.4c-1-4.2-4.2-7.9-9.6-11
				c3.6-1.5,8.4-2,14.3-1.5c-4.7-4.7-12-6.4-22-5.2c2.4-1.8,4.6-3,6.6-3.6c2-0.6,4.2-1.6,6.4-3.1c2.4-2.8,5.5-4.4,9.3-4.6
				c7.5,1,14.3,6.6,20.2,16.9c1.2,2.4,0.7,6.3-1.4,11.8c-1.1,1.8-3.3,4-6.7,6.6c-0.4,0.6-0.6,1.8-0.6,3.4c-0.1,1.7-0.8,3.6-2.1,5.7
				c-2.2,2.1-4.4,2.9-6.5,2.3c-3.1-0.6-6.3-2.6-9.6-6c-2.8-1.9-5.4-4-7.9-6.5c-2.5-2.5-5.4-3.7-8.7-3.7c0.2,1.7,0.8,3,1.8,3.9
				c2.5,2.1,4.5,5.1,5.9,9.1c1.4,4,1.9,7.2,1.6,9.5c-0.3,2.4-1.1,3.9-2.4,4.6c-1.3,0.7-1.8,1.9-1.7,3.6c0.1,1.7-0.3,2.8-1,3.3
				c-1.3,0.6-2.8,0.9-4.5,0.8c-1.7-0.1-3.2,0.3-4.4,1.2c-2.1,1.2-4.5,3.4-7,6.6c-1.9,1.2-4.5,2-7.9,2.3c-1.4,0-2.7-0.3-3.9-0.7v6.8
				h18c2.2-5.8,7.2-13.2,17.6-16.9c9.3-3.3,11-4.5,11.6-5.2c0.5-0.6,10.9,4.2,9.8,22.1h13.9c-3.4-3.1-5.9-1.1-6.5-2.7
				c-0.8-2.1,1.8-24.9,25.7-33.5c12.5-4.5,14.8-6.1,15.6-7c0.7-0.9,18.9,7.6,11.6,41.2c-0.1,0.7-0.4,1.3-0.6,2h14.4
				c3.4-5.7,20.9-17.8,39.3-7.8c4,2.2,7.3,4.9,10.1,7.8h30.7c-0.1-0.4-0.1-0.9,0-1.2c0.2-0.7,0-1.4-0.7-2.1
				c-0.7-0.6-0.9-1.2-0.8-1.7c0.3-0.7,0.7-1.4,1.4-2c0.7-0.6,1.1-1.3,1.3-2.1c0.4-1.3,0.5-3,0.3-5.2c0.3-1.2,1-2.5,2.2-3.9
				c1-0.9,2-1.4,3.2-1.6c2,0.1,3.4,0.3,4,0.4c0.6-0.1,1.1-0.2,1.6-0.5c0.5-0.3,1.4-0.3,2.9,0c3,1.6,4.7,5.5,5.2,11.5
				c0.3,2.9,1.1,4.6,2.5,5.2c0.9-1.4,0.8-4.4-0.2-9c-0.3-1.8-0.4-3.7-0.2-5.5c0.4-3.3,1.6-5.7,3.6-7.2c1.1-0.4,1.9-0.5,2.6-0.2
				c0.6,0.2,1.4,0.2,2.2-0.1c3.4-1.7,6-1.9,8-0.6c1.6,1.4,2.6,2.7,2.9,4.1c0.3,1.4,1,2.8,2.2,4.4c0.3,0.3,0.8,0.6,1.5,0.9
				c0.7,0.3,1.4,1.1,2,2.5c0,5.5-4.1,10.1-12.3,13.7h8.3c0.6-0.4,1.2-0.9,1.6-1.4c1.6-1.8,3.2-3.2,4.8-4.1c2.3-0.9,4.1-0.5,5.6,1.1
				v-26.4c-1.7-0.2-3.7-0.6-5.8-1.5c-2.1-1.2-3.7-2.7-4.8-4.5c-1-3.6-1.6-6-1.7-7.3c-0.5-1-1.1-1.8-1.9-2.4
				c-0.7-0.6-1.3-2.3-1.8-5.1c1-6,6.4-11.2,16-15.6v-6c-2.1,1-4.4,2.2-7,3.9c-3,1.7-6.2,2.9-9.4,3.7c-6,1.3-10.9,0.6-14.7-1.9
				c-1.3-1.7-2-3.1-2-4.4c0-1.3-0.5-2.5-1.4-3.7c-5-4.9-7-9.4-5.8-13.6c1.4-3.6,3.2-6.1,5.4-7.5c2.2-1.4,4.3-3.5,6.4-6.5
				c0.4-0.7,0.6-1.8,0.6-3.2c0.1-1.4,1.1-3.1,3.1-5.1c7.7-2.8,16-0.5,24.9,6.9v-9.2c-0.6-0.4-1.2-0.7-1.8-0.9
				c-4.1-1.7-7.5-3.6-10-5.8c-3.1-3.7-3.4-7.4-1-11.3c0.4-0.7,0.4-0.8,1.2-2c0.8-1.2,2.9-2.6,4.6-3.1c2.4-0.8,4.1-3,4.8-6.5
				c0.4-1.7,1.1-3,2.2-4v-35.5c-3.3-0.7-6.7-2.1-10.3-4.3c-12.4-10.2-18.2-22.3-17.5-36.2c9.9,13.7,17.6,20.2,23.1,19.6
				c1.7-2.5-1-7.5-8.1-15.2c-5.1-5.7-8.9-12.8-11.5-21.2c7,6.5,15.2,11.6,24.4,15.3V191.6z M162.8,372.8c0.4-0.5,0.9-0.7,1.5-0.8
				c0.6-0.1,1.1,0.1,1.6,0.5c0.5,0.4,0.8,0.9,0.9,1.5c0.1,0.6-0.1,1.1-0.5,1.6c-0.4,0.5-0.9,0.8-1.5,0.8c-0.7,0.1-1.2-0.1-1.7-0.5
				c-0.5-0.4-0.7-0.9-0.8-1.5C162.3,373.8,162.4,373.3,162.8,372.8z M145.1,403.4c-6.4,4.2-12.3,7.4-17.4,9.8
				c-5.2,2.4-8.2,2.7-9.1,1.1c-1.2-2.7,2.6-5.3,11.5-7.7c8.9-2.4,18.8-8.3,29.8-17.6C156.4,394.4,151.5,399.2,145.1,403.4z
				 M161.9,382.1c-0.4,0.5-0.9,0.7-1.5,0.8c-0.7,0.1-1.2-0.1-1.7-0.4c-0.5-0.4-0.7-0.8-0.8-1.3c-0.1-0.6,0.1-1.1,0.5-1.5
				c0.4-0.4,0.9-0.7,1.5-0.7c0.6-0.1,1.1,0.1,1.6,0.4c0.5,0.3,0.8,0.8,0.8,1.3C162.5,381.2,162.4,381.7,161.9,382.1z M166.5,387.7
				c-0.4,0.5-0.9,0.7-1.5,0.8c-0.7,0.1-1.2-0.1-1.7-0.5c-0.5-0.4-0.7-0.8-0.8-1.3c-0.1-0.6,0.1-1.1,0.5-1.5c0.4-0.4,0.9-0.7,1.6-0.7
				c0.6-0.1,1.1,0.1,1.6,0.4c0.5,0.3,0.8,0.8,0.8,1.4C167.1,386.7,166.9,387.2,166.5,387.7z M170.2,372.5c0.3-0.5,0.8-0.7,1.4-0.8
				c0.5-0.1,1,0.1,1.4,0.5c0.5,0.4,0.7,0.9,0.8,1.5c0.1,0.6-0.1,1.1-0.5,1.6c-0.4,0.5-0.8,0.8-1.3,0.8c-0.6,0.1-1.1-0.1-1.5-0.5
				c-0.4-0.4-0.7-0.9-0.7-1.5C169.7,373.5,169.9,373,170.2,372.5z M173.7,384.3c-0.4,0.5-0.8,0.8-1.3,0.9c-0.6,0.1-1.1-0.1-1.5-0.6
				c-0.4-0.5-0.7-1-0.7-1.7c-0.1-0.7,0-1.4,0.4-1.9c0.3-0.5,0.8-0.8,1.3-0.8c0.5,0,1,0.1,1.4,0.5c0.5,0.4,0.7,1,0.8,1.7
				C174.2,383.1,174.1,383.7,173.7,384.3z M353.2,314.2c0.3-0.7,0.9-1.1,1.6-1.2c0.7-0.2,1.4-0.1,2.1,0.3c0.8,0.4,1.3,0.9,1.5,1.6
				c0.3,0.7,0.2,1.3-0.1,2c-0.3,0.6-0.8,1-1.5,1.2c-0.7,0.2-1.5,0.2-2.2-0.2c-0.7-0.3-1.1-0.9-1.4-1.6
				C352.9,315.5,352.9,314.8,353.2,314.2z M344.2,240.3c1.1-7.3,2.8-10.8,5.2-10.6c3.8,0.6,3.9,6.5,0.3,17.8
				c-3.6,11.3-4.2,26.1-1.8,44.6c-3.5-7.5-5.2-16.2-5.3-26.1C342.6,256.2,343.1,247.6,344.2,240.3z M347.8,301.9
				c-0.7,0.3-1.4,0.3-2,0c-0.6-0.3-1-0.8-1.2-1.6c-0.2-0.8-0.1-1.5,0.2-2.1c0.4-0.8,0.9-1.3,1.7-1.5c0.7-0.2,1.4-0.2,1.9,0.1
				c0.7,0.3,1.1,0.9,1.3,1.5c0.2,0.7,0.1,1.4-0.3,2.2C349.1,301.1,348.5,301.6,347.8,301.9z M348.9,311.3c-0.3,0.6-0.8,1-1.6,1.2
				c-0.8,0.2-1.6,0.1-2.4-0.3c-0.8-0.4-1.3-1-1.6-1.7c-0.3-0.8-0.3-1.4-0.1-2c0.3-0.7,0.9-1.1,1.7-1.2c0.8-0.1,1.6,0,2.3,0.4
				c0.9,0.4,1.4,1,1.7,1.7C349.3,310,349.2,310.7,348.9,311.3z M250.4,252.3c0.8,0,1.5,0.7,2.1,2c0.1,0.5,0.1,1.4,0.1,2.5
				c-0.1,1.1,0.2,1.9,0.7,2.5c0.5,0.5,0.8,1.1,1,1.7c-0.5,2.9-2.6,4.6-6.1,5.1c-4.6-0.1-8.1-1.7-10.5-5c4.7,1.3,7.6,1.4,8.7,0.2
				c-0.1-0.9-1.6-1.5-4.6-2c-2.2-0.4-4.3-1.3-6.4-2.7c2.8,0.2,5.6-0.1,8.4-1c1.4-0.6,2.4-1.2,3-1.8
				C247.5,253.3,248.7,252.8,250.4,252.3z M247.3,273.4c0.1-0.2,0.3-0.3,0.5-0.3c0.2,0,0.5,0,0.6,0.1c0.2,0.1,0.3,0.3,0.3,0.5
				c0,0.2,0,0.4-0.1,0.5c-0.1,0.2-0.3,0.3-0.5,0.4c-0.2,0-0.4,0-0.6-0.1c-0.2-0.1-0.3-0.3-0.4-0.4
				C247.2,273.7,247.2,273.5,247.3,273.4z M247.2,271.8c-0.2-0.1-0.3-0.3-0.4-0.5c-0.1-0.2,0-0.4,0.1-0.6c0.1-0.2,0.3-0.3,0.5-0.3
				c0.2,0,0.4,0,0.6,0.1c0.2,0.1,0.3,0.3,0.4,0.5c0,0.2,0,0.4-0.1,0.6c-0.1,0.2-0.3,0.3-0.5,0.4C247.6,272,247.4,271.9,247.2,271.8z
				 M245.6,270.2c-0.1,0.2-0.3,0.3-0.5,0.4c-0.2,0-0.4,0-0.6-0.1c-0.2-0.1-0.3-0.3-0.3-0.5c0-0.2,0-0.5,0.1-0.6
				c0.1-0.2,0.3-0.3,0.4-0.3c0.2,0,0.4,0,0.6,0.1c0.2,0.1,0.3,0.3,0.3,0.5C245.8,269.8,245.7,270,245.6,270.2z M245.7,274.1
				c0,0.2,0,0.4-0.1,0.6c-0.1,0.2-0.3,0.3-0.6,0.4c-0.2,0.1-0.5,0-0.7-0.1c-0.2-0.1-0.3-0.3-0.4-0.4c0-0.2,0-0.4,0.2-0.6
				c0.2-0.2,0.3-0.3,0.6-0.3c0.3-0.1,0.5,0,0.7,0.1C245.6,273.7,245.7,273.9,245.7,274.1z M243.8,272.1c-0.1,0.2-0.3,0.3-0.5,0.4
				c-0.2,0-0.4,0-0.5-0.1c-0.2-0.1-0.3-0.3-0.3-0.5c-0.1-0.2,0-0.5,0.1-0.6c0.1-0.2,0.3-0.3,0.4-0.3c0.2,0,0.4,0,0.6,0.1
				c0.2,0.1,0.3,0.3,0.3,0.5C243.9,271.7,243.9,271.9,243.8,272.1z M234.8,243.3c-0.3-1.6-0.4-3.1-0.2-4.3c0.2-0.8,0.6-1.4,1.2-1.9
				c0.6-0.5,1.3-0.7,2.2-0.7c1.2-0.1,2.2,0.1,2.9,0.7c0.8,0.6,1.8,0.7,3,0.2c1.2-0.5,2.3-0.2,3.3,0.9c0.6,0.6,0.9,1.4,0.8,2.4
				c0,0.2,0,0.4,0.1,0.6c0.1,0.6,0.2,1.1,0.6,1.4c0.5,0.4,0.8,1,1,1.9c0.2,3.4-1.2,5.8-4.4,7.4c-3.6,1.4-6.8,1.9-9.8,1.7
				c2.4-0.8,4.2-1.9,5.3-3.2c1.1-1.3,1.5-2.4,1.3-3.3c-0.6,0.3-1.3,0.7-2,1.3c-0.7,0.6-1.8,1.2-3.2,1.8c1.5-2.3,1.8-4,1-4.9
				c-0.5,0.2-1.1,0.8-1.6,1.8c-0.6,1-1.6,2-3,3.1C234.6,247.2,235.2,244.9,234.8,243.3z M234.3,259.6c1.2,3.2,3.8,6.6,7.7,10.4
				c-2.1-1.1-4.1-2.7-5.9-4.9c-1.8-2.2-3.2-4.3-4.3-6.1c-1.1-1.8-1.3-2.9-0.7-3.3C232,255.1,233.1,256.4,234.3,259.6z M213.3,267.1
				c-0.3-0.4-0.4-1-0.5-1.6c0-0.6-0.2-1.2-0.6-1.6c-0.5-0.7-1.4-1.5-2.7-2.4c-0.5-0.7-0.9-1.6-1.2-2.8c-0.1-0.9,0.1-1.7,0.4-2.4
				c0.9-1,1.6-1.7,1.9-2c0.2-0.4,0.3-0.7,0.4-1.1c0.1-0.4,0.5-0.9,1.2-1.6c2.1-0.9,5-0.2,8.5,2c1.7,1.1,3,1.3,3.9,0.8
				c-0.4-1.1-2-2.3-5-3.7c-1.1-0.6-2.2-1.3-3.1-2.2c-1.6-1.6-2.4-3.3-2.4-5c0.3-0.7,0.6-1.2,1-1.5c0.4-0.3,0.7-0.7,0.9-1.2
				c0.5-2.6,1.5-4.1,3.1-4.6c1.4-0.3,2.6-0.2,3.4,0.2c0.9,0.4,2,0.6,3.3,0.7c0.3,0,0.7-0.2,1.1-0.5c0.4-0.3,1.2-0.3,2.2-0.1
				c3.6,2.8,4,8.2,1.1,16.2c-0.3-4-1-6.2-2.1-6.5c-0.1,0.8-0.2,1.8-0.5,2.9c-0.3-2.5-1-3.9-2.2-4.1c-0.5,0.5-0.5,1.8,0.1,4.1
				c-1.8-2.6-3.2-4.1-4.2-4.6c-1-0.5-1.6-0.7-2-0.5c-0.1,0.4,0.1,1.1,0.5,2.2c0.5,1.1,1.1,2.2,2.1,3.1c0.9,1,2.5,2.4,4.8,4.2
				c0.4,0.1,0.7,0.5,0.8,1c-0.8,0.2-1.4,0.5-1.9,0.8c-0.5,0.3-1.4,0.6-2.9,0.7c-1.2-0.2-2.2-0.4-2.8-0.7c-0.7-0.3-1.4-0.3-2.2-0.1
				c1.2,1.7,2.9,2.7,5.3,2.8c-1.1,1.1-1.9,1.8-2.5,2.1c-0.6,0.3-1.2,0.7-1.7,1.3c4.1,1,7.3-0.3,9.8-3.8c0.6,2.8,0,7.1-1.8,13
				c1.5-0.5,2.8-1.9,3.7-4c0.7,1.3,1,3,1.1,5.2c1.6-1.9,1.9-4.7,1.1-8.3c0.8,0.8,1.3,1.6,1.6,2.3c0.3,0.7,0.8,1.5,1.4,2.3
				c1.1,0.8,1.8,1.9,2.1,3.3c-0.1,2.8-1.9,5.5-5.5,8.1c-0.8,0.5-2.3,0.5-4.4-0.1c-0.7-0.3-1.6-1.1-2.7-2.2c-0.2-0.1-0.7-0.1-1.3-0.1
				c-0.6,0-1.4-0.2-2.2-0.6c-0.9-0.7-1.2-1.5-1.1-2.3c0.1-1.2,0.7-2.4,1.8-3.8c0.6-1.1,1.3-2.2,2.1-3.2c0.8-1,1.2-2.1,1-3.4
				c-0.6,0.1-1.1,0.4-1.4,0.8c-0.7,1-1.7,1.9-3.1,2.5c-1.4,0.7-2.6,1-3.5,0.9c-0.9,0-1.5-0.3-1.8-0.7c-0.3-0.4-0.8-0.6-1.4-0.5
				C213.9,267.5,213.5,267.4,213.3,267.1z M347.4,425.9L347.4,425.9c1.9,2.3,3.8,4.7,5.6,7.3c-17.5,31.5-30.4,31.5-60.3,26.2
				c-12.2-2.1-18.6-3.4-27.2,0.2c-4.4,1.8-18.7,9.8-15.8,4.4c3.9-7.3,17.1-14.6,35.8-16c19.7-1.5,36.6-9,35.8-14.1
				c-0.9-5.7-21.9-0.9-29.4,3.2c-34.1,18.6-26.1,6.1-24.5,0.6c2.3-7.9,5.3-13.8,8.5-18.4l0,0c7.9-11,17.5-14.2,23.5-18
				c8.5-5.4,18.3-25.1,15.8-26.4c-2.5-1.3-12.3,8.4-12.3,8.4c-4.9,4.2-19.4,33.1-28,22.5c-8.6-10.7-0.4-34.7,3.4-42.3
				c3.8-7.7,15.9-26.1,10.5-28.1c-5.4-2-10.9,20.2-12.2,23.9c-1.3,3.7-4.4,8.7-6.1,2.6c-13-46.1-23.8-51.6-24.6-50.4
				c-0.9,1.1,16.1,8.4,21.6,69.4c1.5,16.1,1.4,28.3,0.3,37.8c-2.7,23.5-11.4,30.2-16.6,37.5c-3.4,4.7-9.8,0.6-8.2-2.4
				c2.6-4.8,14.8-8.7,1.2-16.3c-6.7-3.8-29.4,3-45.4-4.8c-8.1-3.9-11.5-13.3-12.8-21.5c-1.3-8.1-0.7-15.1-0.7-15.1
				c4.3,10.7,39-16.1,59.9,14.5c2,2.9,3.8,5.1,5.5,6.7c3.9,3.6,6.9,4.3,9.1,3.4c1-0.4,1.6-1.2,1.9-2.4c1.6-5.7-3.8-18.7-11-22.3
				c-9.7-4.8-27.7-1.6-36.4-9.8c-8.7-8.2-9.8-18.7-12.2-29.5c20.9-2.9,25.7-18.6,50.5,12.8c3.1,3.9,10.6,1.7,5.7-8.4
				c-9-18.5-25.8-18.4-32-38.1c-4.2-13.4,0.5-23.8,1.1-30.3c5.6-1.7,23.3-3.9,34.1,6.6c15.7,15.1,4.8,40.3,11.5,47
				c1.5,1.6,5.9,3.7,5.3-14.2c-0.9-26,15.4-27,15.4-27c23.9,31-1.6,47.5-9.3,66.6c-7.6,19.1,4.1,20.1,11.2,4.4
				c7-15.6,17.4-24.8,29.6-21.4c12.5,57.1-28.3,62.7-36.9,65.5c-0.5,0.2-0.9,0.3-1.4,0.5l0,0c-7.5,3.1-10,9.9-5.6,13.1
				c4.5,3.2,13.2-4.4,23.5-11.4l0,0c7.2-4.9,15.2-9.5,23-9.7C334,412.1,340.8,418.1,347.4,425.9z M369,342.7
				c-0.2,1.1-2.7,2.3-4.3,4.8c0,0-0.6,0.8-0.8,1.3c-1,3.2,1.5,8.3-1.3,7.4c-8.7-2.8-11.9-7.4-13.9-11.7c0,0-1.7-3.6-2.5-5.1
				c-1.5-3-6.9-7.3-6.2-2.4c0.3,1.9,2.4,5.9,2.4,5.9c4.8,8.6,15.8,16.5,22,18.4c8.5,2.6-16.3,8.3-27.3-8.4
				c-2.6-3.9-4.5-11.4-4.5-11.4c-1.1-8.8,2.4-15.7,2.9-15.4c0.6,0.5,2.5,1.1,11.5,1.8C364.5,329.3,369.3,341.3,369,342.7z
				 M361.8,305c0.8,0.4,1.3,0.9,1.5,1.7c0.2,0.7,0.2,1.4-0.2,2.2c-0.3,0.7-0.9,1.1-1.6,1.4c-0.7,0.3-1.5,0.2-2.3-0.2
				c-0.7-0.3-1.1-0.9-1.4-1.7c-0.3-0.8-0.2-1.5,0.1-2.2c0.4-0.8,1-1.2,1.7-1.5C360.4,304.6,361.1,304.6,361.8,305z M355.6,295.6
				c0.7-0.2,1.4-0.2,1.9,0.1c0.7,0.3,1.1,0.8,1.3,1.5c0.2,0.7,0.1,1.4-0.3,2.2c-0.3,0.7-0.9,1.2-1.6,1.5c-0.7,0.3-1.4,0.3-2,0
				c-0.6-0.3-1-0.8-1.2-1.6c-0.2-0.8-0.1-1.5,0.2-2.1C354.4,296.3,354.9,295.8,355.6,295.6z"/>
		</g>
	</g>
	<polygon fill="#91ADAA" points="297.2,182 297.2,182 290.1,187.7 	"/>
	<path fill="#91ADAA" d="M282,230c-0.1,1.9,1,3.8,3.3,5.8c2.3,2,6.1,3.7,11.4,5c5.3,1.3,9.9,1.3,13.9,0c1.7-0.5,3.5-0.2,5.5,0.8
		c-2.3,3.6-5.7,5.9-10.1,6.8c-4.4,0.9-8.6,2.2-12.6,3.9c-6,1.2-10.4,3.3-13.2,6.2c-2.2,1.9-2.8,4.8-2.1,8.6c1.4,3,2.9,5.1,4.7,6.3
		c1.8,1.2,2.9,2.3,3.3,3.1c0.4,5.5,1.3,9.4,2.4,11.8c4.4,6.1,8.4,9.3,11.7,9.7c15.3,0.7,26.1-2.7,32.4-10.1
		c2.4-4.2,2.9-8.6,1.5-13.2c0-3.5,0.3-6.5,1.1-9.1c0.8-2.6,1-5.8,0.7-9.7c-5.7,11.7-12.7,18.4-21,20.2c4.7-6.1,7.5-11.6,8.4-16.6
		c-7.1,3.7-13.3,4.6-18.6,2.8c17.7-12.1,28.8-22.5,33.1-31.3c-14.3,4.1-25.8,0.4-34.6-11.1c2.5-0.5,4.9-0.4,7.2,0.3
		c2.3,0.7,6.1,0.6,11.4-0.1c-2.7-2.5-4.8-5.2-6.1-8c-11.8,6.2-23.5,12.2-33.9,17.2C281.9,229.6,282,229.8,282,230z"/>
	<g>
		<path fill="#91ADAA" d="M385.5,176.2l-1.9-1v16.2C385.8,186.3,386.4,181.2,385.5,176.2z"/>
		<path fill="#91ADAA" d="M338.7,199.9c-0.4-2.3-0.6-4.2-0.8-5.9c-0.4-4.6,0-9,1.2-12.9c0.8-2.8,1.6-4.8,2.4-6h-16.4
			c0,1.4,0,2.9,0.2,4.5c0.6,4.3,1.8,8.4,3.5,12.5c2,4.1,3.4,7.7,4.4,10.7c1.4,4.5,1.8,7.8,1,10c-2.7-0.4-5-2.7-7-6.8
			c-0.6-1.2-1.1-2.4-1.6-3.9c-4.5-13.8-10.6-21.7-18.4-23.9c-3.6,0.2-5.8,0.8-6.7,1.6c-0.9,0.9-2,1.5-3.4,2.1c0,0,0,0,0,0l-7.1,5.8
			l-11.7,9.5c-0.1,0.6-0.1,1.2-0.2,1.7c1.6,5,2.4,9.1,2.2,12.2c0.1,2-0.5,3.8-1.8,5.6c-1.3,1.8-2,3.6-2.2,5.4c0,1.2,0.9,2.3,2.8,3.4
			c1.7,0.9,2.5,2.2,2.6,3.7c10.3-5,22.1-11,33.9-17.2c-1.7-3.5-2.4-7.2-2-11.2c2.9,1,4.8,2.6,5.9,5c0.5,1,1.1,2,1.9,3.2
			c1.1,1.5,2.5,3.2,4.2,5c4.2,2.8,7.3,4.3,9.2,4.4c2,0.1,4.3,0.7,7,1.8c0.7-1.8,0.7-3.3,0-4.5C340.5,209.4,339.4,204.1,338.7,199.9z
			"/>
		<path fill="#91ADAA" d="M344.3,175.1c0.8,0.9,1.7,2.4,2.5,4.4c1.2,2.8,1.7,7.8,1.6,15.1c0,2-0.1,4.2-0.3,6.6
			c2-4.5,3.8-7.6,5.5-9.5c1.1-1.2,2.2-1.9,3.2-1.9c0,0,0.1,0.1,0.1,0.1c2.6,3.2,1.6,8.4-3,15.6c3.2-2.5,5.7-4.7,7.8-6.8
			c2.4,3.4-0.4,10.8-8.4,22.3c15.9-9.8,26-19.6,30.3-29.3v-16.5h-0.3H344.3z"/>
	</g>
	<path fill="#91ADAA" d="M383.3,299.2c0,0,0.1,0,0.1,0v-32.6l-0.1-0.1V299.2z"/>
	<g>
		<path fill="#91ADAA" d="M408.7,262.8c-5.7-2.5-9.9-3.7-12.7-3.6c-2.8,0.1-6.8-0.5-12-1.8c-0.1-0.1-0.3-0.1-0.4-0.2v9.5l22.2,12
			c2.1-2.5,3.6-4.5,4.3-6C411.4,267.9,410.9,264.6,408.7,262.8z"/>
		<path fill="#91ADAA" d="M370.5,263.1c7.1,7.7,9.8,12.7,8.1,15.2c-5.4,0.6-13.1-5.9-23.1-19.6c-0.7,13.9,5.1,25.9,17.5,36.2
			c3.6,2.2,7,3.7,10.3,4.3v-32.6l0.1,0.1v-9.5c-9.2-3.7-17.4-8.8-24.4-15.3C361.6,250.3,365.4,257.4,370.5,263.1z"/>
	</g>
	<path fill="#91ADAA" d="M355,300.8c0.7,0.3,1.3,0.4,2,0c0.7-0.3,1.2-0.8,1.6-1.5c0.4-0.8,0.5-1.5,0.3-2.2c-0.2-0.7-0.6-1.2-1.3-1.5
		c-0.6-0.3-1.2-0.3-1.9-0.1c-0.7,0.2-1.3,0.7-1.7,1.5c-0.3,0.7-0.4,1.4-0.2,2.1C354,300,354.4,300.5,355,300.8z"/>
	<path fill="#91ADAA" d="M357.9,306.2c-0.3,0.7-0.4,1.4-0.1,2.2c0.3,0.8,0.7,1.4,1.4,1.7c0.8,0.4,1.5,0.4,2.3,0.2
		c0.7-0.3,1.3-0.8,1.6-1.4c0.4-0.8,0.5-1.5,0.2-2.2c-0.2-0.7-0.7-1.3-1.5-1.7c-0.7-0.3-1.4-0.4-2.1-0.2
		C358.9,305,358.3,305.5,357.9,306.2z"/>
	<path fill="#91ADAA" d="M347.2,307.6c-0.8-0.4-1.5-0.5-2.3-0.4c-0.8,0.1-1.4,0.5-1.7,1.2c-0.3,0.6-0.3,1.2,0.1,2
		c0.3,0.8,0.9,1.3,1.6,1.7c0.9,0.4,1.7,0.5,2.4,0.3c0.8-0.2,1.3-0.6,1.6-1.2c0.3-0.7,0.4-1.3,0-2C348.6,308.6,348.1,308,347.2,307.6
		z"/>
	<path fill="#91ADAA" d="M349.7,247.6c3.6-11.3,3.5-17.2-0.3-17.8c-2.4-0.3-4.1,3.3-5.2,10.6c-1.1,7.3-1.6,15.9-1.6,25.7
		c0,9.9,1.8,18.6,5.3,26.1C345.5,273.7,346.1,258.9,349.7,247.6z"/>
	<path fill="#91ADAA" d="M354.6,317.8c0.8,0.4,1.5,0.5,2.2,0.2c0.7-0.2,1.2-0.6,1.5-1.2c0.3-0.7,0.4-1.3,0.1-2
		c-0.3-0.7-0.8-1.2-1.5-1.6c-0.7-0.3-1.4-0.4-2.1-0.3c-0.7,0.2-1.3,0.6-1.6,1.2c-0.3,0.6-0.3,1.2,0,2
		C353.4,316.9,353.9,317.5,354.6,317.8z"/>
	<path fill="#91ADAA" d="M349.7,298.3c-0.2-0.7-0.6-1.2-1.3-1.5c-0.6-0.3-1.2-0.3-1.9-0.1c-0.7,0.2-1.3,0.7-1.7,1.5
		c-0.3,0.7-0.4,1.4-0.2,2.1c0.2,0.8,0.6,1.3,1.2,1.6c0.7,0.3,1.3,0.4,2,0c0.7-0.3,1.2-0.8,1.5-1.5
		C349.8,299.7,349.9,299,349.7,298.3z"/>
	<path fill="#91ADAA" d="M161.3,199.8c11.6-6.1,14.5-15.9,21.5-24.7H154c-6.8,4.8-8.2,8.1-8.8,7.7c-0.6-0.4,0.2-3.1,5.9-7.7h-23.6
		c-0.7,1.7-1.2,3.5-1.5,5.3C134.2,184.9,146.9,192,161.3,199.8z"/>
	<path fill="#91ADAA" d="M222.4,207.3c1.5-1.9,2.5-4.1,3.1-6.6l-29.2-24.1c-18.3,19.7-9.4,25.4-4,39.6c2.7,1.4,5.3,2.8,8,4.1
		C208.6,217.8,216.5,214.9,222.4,207.3z"/>
	<path fill="#91ADAA" d="M194.1,222.2c2.1-0.7,4.1-1.3,6.1-1.9c-2.6-1.3-5.3-2.7-8-4.1C193,218.1,193.6,220.1,194.1,222.2z"/>
	<path fill="#91ADAA" d="M128,203c6.6-0.1,17.3,3.7,30.3-1.8c1.1-0.4,2.1-0.9,3-1.4c-14.3-7.8-27.1-14.9-35.3-19.4
		C124.1,189.7,126.4,199.3,128,203z"/>
	<path fill="#91ADAA" d="M116.6,287.6C116.6,287.6,116.6,287.6,116.6,287.6l-0.1,34c0,0,0.1,0,0.1,0L116.6,287.6z"/>
	<path fill="#91ADAA" d="M116.6,266.6L116.6,266.6l-0.1,9.4c0,0.1,0.1,0.2,0.1,0.2L116.6,266.6z"/>
	<path fill="#91ADAA" d="M116.6,255.4v11.3l0.1,0L116.6,255.4C116.6,255.4,116.6,255.4,116.6,255.4z"/>
	<path fill="#91ADAA" d="M116.7,266.6L116.7,266.6l0,9.7c0,0,0,0.1,0,0.1V266.6z"/>
	<path fill="#91ADAA" d="M116.7,287.6C116.7,287.6,116.7,287.6,116.7,287.6l0,34c0,0,0,0,0,0V287.6z"/>
	<path fill="#91ADAA" d="M116.7,276.4c0.5,1.4,1.1,2.8,2,4.2c4.8,8.2,19.2,9.5,25.5,15.3c5.6,5.1,6.4,20.2,1.7,20.8
		c-2.7,0.3-6.1-2.2-9-10.9c-4-11.9-12.1-16.3-20.2-18.2v34c6.2,1.5,11.7,2.5,13.7,4.6c8.7,8.8-1.4,9.1-4.3,12.2
		c-1.9,2,2.2,6.5,5.7,3.6c7.7-6.2,20.3-10.2,28.2-54.1c8.6-47.9-2.6-57.1-1.7-57.7c0.9-0.7,7.9,5.8,8,43.9c0,5.1,3.4,1.9,5.2-0.7
		c1.8-2.5,10.6-18.4,14.3-15.7c3.7,2.7-9.4,14.2-13.8,19.3c-4.5,5.1-15.8,21.7-11.5,31.7c4.2,10,21.3-9,25.9-11.2
		c0,0,9.5-5.4,11.1-3.8c1.6,1.5-10,14.5-17.5,16.8c-7.6,2.3-20.2,2-31.9,21c-2.4,3.9-11.1,11.7,18.7,4.8c6.5-1.5,23.5-0.7,22.9,3.9
		c-0.5,4.1-14.8,6.2-30.1,3.1c-11.4-2.3-21-1-26.7,2c0,0-3,1.4-3.8,2.2c-3.3,3.5,9.1,0.5,12.9,0c7.2-0.9,11.8,1.4,20.6,5.7
		c21.5,10.4,31.3,13.2,51.2-7.2c-0.1-0.2-3.3-17.9-14.7-21c-14.3-3.9-35.1,12.1-39.7,6.3c-2.8-3.6,1.1-8.6,8.2-8.9
		c7.1-0.3,39.2,4.1,41.7-42.3c-8.6-5.3-18.3-0.4-27,10c-8.6,10.4-17.3,7.2-7.5-5.8c9.8-13,32.6-20.2,21.1-49c0,0-12.6-2.7-17.4,17.4
		c-3.3,13.9-6.1,11.3-7,9.8c-3.7-6.6,9.9-23.5,1.2-38.5c-6-10.3-19.8-12.4-24.4-12.3c-1.8,4.9-7.6,11.8-7.2,23
		c0.5,16.4,13.3,19.9,16.2,36c1.6,8.8-4.6,8.8-6.1,5.2c-11.9-28.7-18.9-18.8-34.5-20.5l0,11.2l0,0V276.4z M139.6,328.6
		c-4.2-11.4-15.9-9.7-20.2-17.2c-3.5-6.2-0.4-11.3,6.4-7.3C139.6,312.4,140.9,332.1,139.6,328.6z M137.5,273.4
		c15.9,14.5,15.5,26.4,12.9,21c-4.9-10.1-12.7-9.3-16.3-15.6C130.3,272.5,133.8,270,137.5,273.4z"/>
	<path fill="#91ADAA" d="M160.1,379c-0.7,0.1-1.2,0.3-1.5,0.7c-0.4,0.4-0.5,0.9-0.5,1.5c0,0.5,0.3,0.9,0.8,1.3
		c0.5,0.4,1,0.5,1.7,0.4c0.6-0.1,1.1-0.3,1.5-0.8c0.4-0.5,0.6-0.9,0.5-1.4c-0.1-0.6-0.3-1-0.8-1.3C161.2,379,160.6,378.9,160.1,379z
		"/>
	<path fill="#91ADAA" d="M118.6,414.3c0.8,1.7,3.9,1.3,9.1-1.1c5.2-2.4,11-5.7,17.4-9.8c6.4-4.2,11.4-9,14.8-14.4
		c-11,9.3-20.9,15.2-29.8,17.6C121.2,409,117.4,411.6,118.6,414.3z"/>
	<path fill="#91ADAA" d="M164.6,384.5c-0.7,0.1-1.2,0.3-1.6,0.7c-0.4,0.4-0.5,0.9-0.5,1.5c0,0.5,0.3,0.9,0.8,1.3
		c0.5,0.4,1,0.5,1.7,0.5c0.6-0.1,1.1-0.3,1.5-0.8c0.4-0.5,0.6-0.9,0.5-1.4c-0.1-0.6-0.3-1-0.8-1.4
		C165.7,384.6,165.2,384.4,164.6,384.5z"/>
	<path fill="#91ADAA" d="M164.8,376.5c0.6-0.1,1.1-0.3,1.5-0.8c0.4-0.5,0.6-1,0.5-1.6c-0.1-0.7-0.4-1.2-0.9-1.5
		c-0.5-0.4-1-0.5-1.6-0.5c-0.7,0.1-1.2,0.3-1.5,0.8c-0.4,0.5-0.5,1-0.4,1.7c0.1,0.6,0.3,1.1,0.8,1.5
		C163.6,376.4,164.1,376.5,164.8,376.5z"/>
	<path fill="#91ADAA" d="M172,376.2c0.5,0,0.9-0.3,1.3-0.8c0.4-0.5,0.5-1,0.5-1.6c-0.1-0.7-0.3-1.2-0.8-1.5
		c-0.5-0.4-0.9-0.5-1.4-0.5c-0.6,0.1-1,0.3-1.4,0.8c-0.3,0.5-0.5,1-0.4,1.7c0.1,0.6,0.3,1.1,0.7,1.5
		C170.9,376.1,171.4,376.3,172,376.2z"/>
	<path fill="#91ADAA" d="M171.9,380.2c-0.6,0.1-1,0.3-1.3,0.8c-0.3,0.5-0.4,1.1-0.4,1.9c0.1,0.7,0.3,1.2,0.7,1.7
		c0.4,0.5,0.9,0.7,1.5,0.6c0.5,0,0.9-0.4,1.3-0.9c0.4-0.5,0.5-1.1,0.4-1.8c-0.1-0.7-0.3-1.3-0.8-1.7
		C172.9,380.3,172.4,380.2,171.9,380.2z"/>
	<path fill="#91ADAA" d="M116.6,441.5l0-14.4c0-0.1,0-0.1-0.1-0.2v14.8C116.6,441.7,116.6,441.6,116.6,441.5z"/>
	<path fill="#91ADAA" d="M116.6,448.5C116.6,448.6,116.6,448.6,116.6,448.5l-0.1,26.7c0,0,0,0,0.1,0L116.6,448.5z"/>
	<path fill="#91ADAA" d="M116.7,448.5C116.7,448.5,116.6,448.5,116.7,448.5l-0.1,26.8c0,0,0,0,0.1,0V448.5z"/>
	<path fill="#91ADAA" d="M116.7,427.3c0,0,0-0.1-0.1-0.1l0,14.4c0,0,0-0.1,0.1-0.1V427.3z"/>
	<path fill="#91ADAA" d="M128.4,473.7c2.6-3.2,4.9-5.4,7-6.6c1.2-0.9,2.7-1.3,4.4-1.2c1.7,0.1,3.2-0.2,4.5-0.8
		c0.8-0.5,1.1-1.6,1-3.3c-0.1-1.7,0.5-2.9,1.7-3.6c1.3-0.7,2.1-2.3,2.4-4.6c0.3-2.4-0.2-5.5-1.6-9.5c-1.4-4-3.3-7-5.9-9.1
		c-1-0.9-1.6-2.2-1.8-3.9c3.3,0,6.2,1.2,8.7,3.7c2.5,2.5,5.1,4.7,7.9,6.5c3.4,3.4,6.6,5.4,9.6,6c2.1,0.6,4.3-0.2,6.5-2.3
		c1.4-2.1,2.1-4,2.1-5.7c0.1-1.7,0.3-2.8,0.6-3.4c3.4-2.6,5.6-4.8,6.7-6.6c2.1-5.5,2.6-9.4,1.4-11.8c-6-10.3-12.7-15.9-20.2-16.9
		c-3.7,0.2-6.8,1.8-9.3,4.6c-2.3,1.5-4.4,2.5-6.4,3.1c-2,0.6-4.2,1.8-6.6,3.6c10-1.2,17.4,0.5,22,5.2c-6-0.5-10.7,0-14.3,1.5
		c5.4,3.1,8.6,6.7,9.6,11c-15.3-6.5-26.8-9.2-34.3-8.4c8.7,7.6,11.1,16.6,7.4,27.2c-1.4-1.4-2.4-3-2.9-4.8c-0.5-1.8-2.2-4.2-4.9-7.4
		c-0.9,5.5-3.3,9.6-7.2,12.3v26.8c1.2,0.4,2.5,0.7,3.9,0.7C123.9,475.7,126.6,474.9,128.4,473.7z"/>
	<path fill="#91ADAA" d="M117.2,428.4c-0.2-0.4-0.4-0.7-0.6-1.1v14.1c0.6-1.4,1.1-3.1,1.6-5.1C118.3,432.4,118,429.8,117.2,428.4z"
		/>
	<path fill="#91ADAA" d="M116.6,359.5C116.6,359.5,116.6,359.5,116.6,359.5l-0.1,8.9c0,0.1,0.1,0.2,0.1,0.2L116.6,359.5z"/>
	<path fill="#91ADAA" d="M116.7,359.4C116.7,359.4,116.6,359.4,116.7,359.4l0,9.2c0,0,0,0.1,0,0.1V359.4z"/>
	<path fill="#91ADAA" d="M122,380.1c1.6,7.7,1.7,15.3,0.4,22.8c4.4-5.2,7.4-10.7,9-16.4c2-7.9,4.2-11.8,6.5-11.7
		c2.7,3.3,1.7,11.1-3,23.3c9.3-5.4,14.7-14.3,16.2-26.7c0.4-2.7-1-7.1-1-7.1c-1.7-5.2-5.2-8.6-10.7-10.2c-1.6,0.3-3.1,1.1-4.7,2.2
		c-1.6,1.2-3.9,1.5-6.8,1.1c-3-0.4-5.2-0.6-6.7-0.4c-2,0.7-3.4,1.4-4.4,2.4v9.3c0.5,1.3,1,2.4,1.5,3.2
		C118.6,372.5,120.9,375.8,122,380.1z"/>
	<path fill="#91ADAA" d="M189.7,484.6C189.7,484.6,189.7,484.7,189.7,484.6l17.4,0.1c0,0,0,0,0-0.1H189.7z"/>
	<path fill="#91ADAA" d="M187.6,482.1c0.7,0.6,1.4,1.4,2.1,2.5h17.4c0.5-0.8,1-1.7,1.5-2.5H187.6z"/>
	<path fill="#91ADAA" d="M222.3,439c-0.8,1-3.1,2.6-15.6,7c-23.9,8.6-26.5,31.3-25.7,33.5c0.6,1.6,3.1-0.5,6.5,2.7h21
		c3.5-6.2,5.1-12.1,6.7-16.4c1.1-3,8.5-15.4,7.7-2.7c-0.4,6.1-3.9,12.9-8.4,19.2c-0.6,0.8-1.2,1.7-1.9,2.5c0,0,0,0,0,0.1h19.9
		c0,0,0,0,0-0.1c0.3-0.8,0.5-1.7,0.8-2.5c0.2-0.7,0.4-1.3,0.6-2C241.2,446.5,223,438,222.3,439z"/>
	<path fill="#91ADAA" d="M162.5,484.6C162.5,484.6,162.5,484.7,162.5,484.6l10.9,0.1c0,0,0,0,0-0.1H162.5z"/>
	<path fill="#91ADAA" d="M133.9,484.6C133.8,484.6,133.8,484.7,133.9,484.6l23.1,0.1c0,0,0,0,0-0.1H133.9z"/>
	<path fill="#91ADAA" d="M163.5,482.1c-0.3,0.8-0.6,1.7-1,2.5h10.9c0.1-0.8,0.2-1.7,0.3-2.5H163.5z"/>
	<path fill="#91ADAA" d="M134.7,482.1c-0.3,0.9-0.6,1.7-0.8,2.5H157c0.3-0.9,0.6-1.7,0.9-2.5H134.7z"/>
	<path fill="#91ADAA" d="M163.8,460c-0.6,0.7-2.3,1.9-11.6,5.2c-10.4,3.8-15.4,11.1-17.6,16.9h23.2c0.3-0.8,0.5-1.6,0.8-2.3
		c0.8-2.2,6.3-11.4,5.7-2c-0.1,1.4-0.4,2.8-0.9,4.3h10.2C174.7,464.1,164.3,459.4,163.8,460z"/>
	<path fill="#91ADAA" d="M383.3,451.4c0,0,0.1,0,0.1,0v-36.5c0,0-0.1,0-0.1,0.1V451.4z"/>
	<path fill="#91ADAA" d="M383.3,386.3c0,0,0.1,0,0.1,0v-8.7c0,0-0.1-0.1-0.1-0.1V386.3z"/>
	<path fill="#91ADAA" d="M383.3,391.9c0,0,0.1,0,0.1,0.1v-0.7c0,0-0.1-0.1-0.1-0.1V391.9z"/>
	<path fill="#91ADAA" d="M383.3,409c0,0,0.1,0,0.1-0.1v-4.8c0,0-0.1,0-0.1,0V409z"/>
	<path fill="#91ADAA" d="M377.1,405.7c-3.5,0.7-6.9,0.7-10.1,0.1c-3.2-0.6-5.1-1.3-5.8-2.1c0-1,1.4-2.3,4-3.7
		c2.6-1.4,8.1-2.3,16.6-2.7c-6.1-2-9.2-3.9-9.5-5.8c2.1-2.2,5.8-2,11,0.4v-0.7c-1.6-1.6-3.2-3-4.6-4.1c1-0.8,2.5-1.1,4.6-0.7v-8.7
		c-8.8-7.3-17.1-9.6-24.9-6.9c-2,2-3,3.7-3.1,5.1c-0.1,1.4-0.3,2.5-0.6,3.2c-2.1,2.9-4.2,5.1-6.4,6.5c-2.2,1.4-4,3.9-5.4,7.5
		c-1.2,4.2,0.8,8.7,5.8,13.6c0.9,1.2,1.4,2.5,1.4,3.7c0,1.2,0.7,2.7,2,4.4c3.8,2.5,8.7,3.2,14.7,1.9c3.2-0.8,6.4-2,9.4-3.7
		c2.6-1.6,5-2.9,7-3.9v-4.9C380.8,404.9,378.7,405.4,377.1,405.7z"/>
	<path fill="#91ADAA" d="M367.4,430.6c0.5,2.7,1,4.4,1.8,5.1c0.7,0.6,1.3,1.4,1.9,2.4c0.1,1.3,0.7,3.7,1.7,7.3
		c1.1,1.8,2.7,3.3,4.8,4.5c2.2,0.8,4.1,1.3,5.8,1.5V415C373.7,419.4,368.4,424.6,367.4,430.6z"/>
	<path fill="#91ADAA" d="M383.3,334.7v33.7c0,0,0.1,0.1,0.1,0.1v-33.9C383.4,334.7,383.4,334.7,383.3,334.7z"/>
	<path fill="#91ADAA" d="M381.1,338.8c-0.8,3.5-2.4,5.6-4.8,6.5c-1.7,0.6-3.8,1.9-4.6,3.1s-0.9,1.3-1.2,2c-2.5,3.8-2.1,7.6,1,11.3
		c2.5,2.2,5.9,4.2,10,5.8c0.6,0.2,1.2,0.6,1.8,0.9v-33.7C382.2,335.8,381.5,337.1,381.1,338.8z"/>
	<path fill="#91ADAA" d="M337.2,352.9c11,16.7,35.9,11,27.3,8.4c-6.3-1.9-17.2-9.8-22-18.4c0,0-2.1-4-2.4-5.9
		c-0.7-4.9,4.7-0.6,6.2,2.4c0.8,1.5,2.5,5.1,2.5,5.1c2,4.3,5.1,8.9,13.9,11.7c2.8,0.9,0.3-4.2,1.3-7.4c0.2-0.5,0.8-1.3,0.8-1.3
		c1.5-2.5,4.1-3.7,4.3-4.8c0.3-1.4-4.6-13.4-21.9-14.8c-9.1-0.7-10.9-1.3-11.5-1.8c-0.5-0.3-3.9,6.6-2.9,15.4
		C332.7,341.5,334.7,349.1,337.2,352.9z"/>
	<path fill="#91ADAA" d="M212.2,263.9c0.4,0.4,0.6,1,0.6,1.6c0,0.6,0.2,1.2,0.5,1.6c0.2,0.3,0.6,0.4,1.3,0.3
		c0.6-0.1,1.1,0.1,1.4,0.5c0.3,0.4,0.9,0.7,1.8,0.7c0.9,0,2-0.3,3.5-0.9c1.4-0.7,2.5-1.5,3.1-2.5c0.3-0.4,0.8-0.7,1.4-0.8
		c0.1,1.2-0.2,2.3-1,3.4c-0.8,1-1.5,2.1-2.1,3.2c-1.1,1.4-1.7,2.6-1.8,3.8c-0.1,0.8,0.2,1.6,1.1,2.3c0.8,0.4,1.6,0.6,2.2,0.6
		c0.6,0,1.1,0,1.3,0.1c1.1,1.2,2,1.9,2.7,2.2c2.1,0.6,3.6,0.6,4.4,0.1c3.6-2.6,5.4-5.3,5.5-8.1c-0.2-1.4-0.9-2.5-2.1-3.3
		c-0.6-0.8-1.1-1.5-1.4-2.3c-0.3-0.7-0.8-1.5-1.6-2.3c0.8,3.7,0.5,6.4-1.1,8.3c-0.1-2.2-0.4-4-1.1-5.2c-0.9,2.1-2.2,3.4-3.7,4
		c1.8-5.9,2.4-10.3,1.8-13c-2.5,3.5-5.7,4.8-9.8,3.8c0.5-0.6,1-1,1.7-1.3c0.6-0.3,1.5-1,2.5-2.1c-2.4-0.2-4.2-1.1-5.3-2.8
		c0.8-0.3,1.6-0.3,2.2,0.1c0.7,0.3,1.6,0.6,2.8,0.7c1.5-0.1,2.4-0.3,2.9-0.7c0.5-0.3,1.1-0.6,1.9-0.8c-0.2-0.5-0.4-0.9-0.8-1
		c-2.3-1.8-3.9-3.2-4.8-4.2c-0.9-1-1.6-2-2.1-3.1c-0.5-1.1-0.6-1.9-0.5-2.2c0.3-0.2,1,0,2,0.5c1,0.5,2.4,2.1,4.2,4.6
		c-0.6-2.3-0.6-3.7-0.1-4.1c1.2,0.2,1.9,1.6,2.2,4.1c0.3-1.1,0.4-2.1,0.5-2.9c1.1,0.3,1.9,2.5,2.1,6.5c2.8-8,2.5-13.4-1.1-16.2
		c-1-0.2-1.8-0.2-2.2,0.1c-0.4,0.3-0.8,0.4-1.1,0.5c-1.3-0.1-2.4-0.3-3.3-0.7c-0.9-0.4-2-0.4-3.4-0.2c-1.5,0.5-2.6,2-3.1,4.6
		c-0.2,0.5-0.5,0.9-0.9,1.2c-0.4,0.3-0.7,0.8-1,1.5c0,1.7,0.8,3.4,2.4,5c0.9,0.8,1.9,1.6,3.1,2.2c2.9,1.4,4.6,2.6,5,3.7
		c-0.9,0.5-2.2,0.2-3.9-0.8c-3.5-2.3-6.3-3-8.5-2c-0.8,0.7-1.2,1.2-1.2,1.6c0,0.4-0.2,0.7-0.4,1.1c-0.4,0.3-1,1-1.9,2
		c-0.4,0.7-0.5,1.5-0.4,2.4c0.3,1.2,0.6,2.2,1.2,2.8C210.7,262.4,211.6,263.2,212.2,263.9z"/>
	<path fill="#91ADAA" d="M383.5,484.6h-17.7c-0.1,0-0.1,0-0.2,0.1L383.5,484.6L383.5,484.6z"/>
	<path fill="#91ADAA" d="M383.3,482.1h-11.9c-1.4,0.9-3.3,1.8-5.7,2.5h17.7V478c0,0-0.1-0.1-0.1-0.1V482.1z"/>
	<path fill="#91ADAA" d="M377.7,476.7c-1.6,0.9-3.2,2.2-4.8,4.1c-0.4,0.5-1,0.9-1.6,1.4h11.9v-4.3
		C381.8,476.2,380,475.8,377.7,476.7z"/>
	<path fill="#91ADAA" d="M329.6,484.6C329.7,484.6,329.7,484.7,329.6,484.6l12.5,0.1c0,0,0,0-0.1-0.1H329.6z"/>
	<path fill="#91ADAA" d="M357.8,484.1c1.9-0.6,3.7-1.3,5.3-2H360C359.3,482.8,358.6,483.4,357.8,484.1z"/>
	<path fill="#91ADAA" d="M339.5,482.1h-11.6c0.1,0.5,0.4,0.9,0.8,1.5c0.2,0.3,0.6,0.7,1,1h12.5C341.1,483.9,340.3,483.1,339.5,482.1
		z"/>
	<path fill="#91ADAA" d="M353.3,482.8c0.2-0.2,0.2-0.4,0.3-0.7h-1.3C352.6,482.3,353,482.5,353.3,482.8z"/>
	<path fill="#91ADAA" d="M375.4,468.4c-0.7-1.4-1.3-2.2-2-2.5c-0.7-0.3-1.2-0.6-1.5-0.9c-1.1-1.6-1.8-3.1-2.2-4.4
		c-0.3-1.4-1.3-2.7-2.9-4.1c-1.9-1.3-4.6-1.2-8,0.6c-0.8,0.3-1.5,0.3-2.2,0.1c-0.6-0.2-1.5-0.1-2.6,0.2c-2,1.5-3.2,3.9-3.6,7.2
		c-0.2,1.8-0.1,3.6,0.2,5.5c1,4.6,1.1,7.6,0.2,9c-1.3-0.6-2.2-2.3-2.5-5.2c-0.5-6.1-2.2-9.9-5.2-11.5c-1.5-0.3-2.5-0.3-2.9,0
		c-0.5,0.3-1,0.4-1.6,0.5c-0.7-0.2-2-0.3-4-0.4c-1.1,0.2-2.2,0.8-3.2,1.6c-1.2,1.4-1.9,2.7-2.2,3.9c0.2,2.2,0.1,3.9-0.3,5.2
		c-0.2,0.8-0.6,1.5-1.3,2.1c-0.7,0.6-1.2,1.3-1.4,2c-0.1,0.5,0.2,1,0.8,1.7c0.7,0.6,0.9,1.3,0.7,2.1c-0.1,0.4-0.1,0.8,0,1.2h11.6
		c-0.7-0.9-1.4-2-1.9-3.2c1.1,0,2.1,0.3,2.9,0.8c0.9,0.5,2.4,0.8,4.7,1.1c-2-2.9-2.4-5.8-1.5-8.7c1.1,0.7,1.7,1.5,1.9,2.6
		c0.2,1.1,0.8,2.4,1.7,3.9c1.4,1.6,2.5,2.5,3.3,2.7c0.5,0.1,1.1,0.4,1.6,0.8h1.3c0.2-0.4,0.2-0.8,0.1-1.2c0-4.3,0.2-7.4,0.5-9.3
		c0.3-1.9,0.9-3.7,1.7-5.2c0.9-1.5,1.6-2.4,2.1-2.6c0.5,0.2,0.9,1.1,1.2,2.7c0.3,1.6-0.3,4.6-1.6,9c2.1-2.7,3.6-4,4.6-3.8
		c0.8,1.6-0.1,3.6-2.7,6.1c1.5-0.7,2.8-1.4,3.8-2c0.5,1.3-0.7,3.4-3.5,6.3h3.1C371.3,478.5,375.5,473.9,375.4,468.4z"/>
	<g>
		<path fill="#91ADAA" d="M122.3,236.1c0.7,1.9,2.9-1.7,5.5-2.6c3-1.1,5.7,0.2,6.6-0.3c1.1-0.5,6.7-8.6-0.4-18.6
			c-3.7-5.2-4.1-6.5-4.1-7c0-0.6-12.3,2.2-17.1,13.3c-5.8,13.6,9.3,24.4,7.1,18.6c-2-5.3-1.3-18.7,5-24.5c2.9-2.6,2.6,2.2,1.3,4.4
			C123.8,223.2,119.1,227.3,122.3,236.1z"/>
		<g>
			<path fill="#91ADAA" d="M45.3,238.9l1.2,3.5c3-1.4,6.5-3,10.8-4.6c3.1-1.2,0.3-2.5-1.6-3c-2-0.5-13.7-2.2-12.9-5.1
				c0.8-2.9,10.9,2.5,15.1,4.1c4.1,1.6,17,4.7,22.1-0.3c5.1-5-10.6-11.1-13-13.4c0,0-5.5-4.6-5-6c0.6-1.4,11.2,2.8,14.4,6.9
				c2.3,2.9,4.3,7.7,10.4,11.3v0c2.5,1.5,5.7,2.7,9.9,3.5c2.9,0.6,9.8,4.1-1.5-12.7c-2.5-3.7-5.9-14.3-3.1-15.1
				c2.6-0.7,7.3,7.7,9,17.8c1.6,9.6,6,16,10,17.7c2.9,1.2-1.9-5.8-3-7.9c-2.3-4.2-1.9-7.6-1.4-14.1c1.3-15.7,0.7-22.4-16.5-29.9
				c-1.2,1.1-2.4,2.2-3.5,3.3v0c-3.8,3.8-6.5,7.6-6.1,10.8c0.5,4,3.2,7.9,6.1,11.4v0c4.1,5,8.5,9.1,7.1,11.6
				c-1.4,2.4-5.1,1.5-7.1-2.3v0c-0.1-0.2-0.2-0.4-0.3-0.7c-1.7-4-6.1-22.4-30.1-17.4l-5.7,3.1c-0.1,5.7,5,10,12.6,12.6
				c8.4,2.9,8.5,9-1.8,6c-6.9-2.1-13.6-8.4-21.9-8l4.3,12.8c6.4-0.4,5.6,1.5,5,2.3C48.3,238.2,47,238.7,45.3,238.9z"/>
			<path fill="#91ADAA" d="M72.5,265.8c3.8-4.9,1.3-14.1,3.3-19.3c1.5-3.9,8-7.3,11-6.8c0.6,0.1,1.1,0.4,1.3,0.9
				c0.6,1.1,0.4,2.7-1.3,4.9c-0.8,1-1.8,2-3.2,3.2c-14.8,12.3,0.7,29-4.6,31.7c0,0,3.7,0,7.8-1.1c4.2-1.1,8.9-3.3,10.5-7.7
				c3.2-8.6-1.3-20.1,0.3-23.7c3.3-7.4,5.9-1.3,8.5-0.2c1.6,0.7,3.4-2.8,0.9-4.4c-4-2.4-7.9-6.5-20.2-6.8c-5-0.1-11.3,0.4-19.5,2
				c-8.8,1.6-15.4,3.5-20.2,5.4l2.8,8.1c1.8-2.8,3.9-5.6,7.6-7.8c5-3,6.5,0.8,4.6,2.5c-15,14.3-6.7,16.1-4.2,26.7
				C63.3,271.8,68.7,270.7,72.5,265.8z M96.9,241.6c-5.9,5.3-2.2,12.1-5.7,16.5c-1.5,1.8-3.2,2.5-4.4,2.1c-1.2-0.4-2-1.8-1.5-4.4
				c0.3-1.7,0.8-3.3,1.5-4.7v0C90.5,243.8,98.5,240.3,96.9,241.6z"/>
		</g>
	</g>
	<path fill="#F7F2CB" d="M164.5,337.8"/>
	<g>
		<path fill="#91ADAA" d="M444.7,259c0.4,0.2,0.7,0.3,1.1,0.3c0.4-0.1,0.8-0.3,1-0.7c0.2-0.4,0.3-0.7,0.2-1.1
			c-0.1-0.4-0.3-0.8-0.6-1c-0.3-0.2-0.7-0.3-1.2-0.2c-0.4,0.1-0.7,0.3-0.9,0.6c-0.2,0.3-0.3,0.7-0.2,1.2
			C444.1,258.5,444.4,258.8,444.7,259z"/>
		<path fill="#91ADAA" d="M441,256.8c0.4-0.1,0.7-0.3,0.9-0.7c0.2-0.4,0.2-0.7,0.2-1.1c-0.1-0.4-0.3-0.8-0.6-1
			c-0.3-0.2-0.7-0.3-1-0.2c-0.3,0.1-0.6,0.3-0.8,0.6c-0.2,0.3-0.3,0.7-0.2,1.2c0.1,0.4,0.3,0.7,0.6,1
			C440.3,256.8,440.7,256.9,441,256.8z"/>
		<path fill="#91ADAA" d="M446,261.3c-0.4,0.1-0.7,0.3-1,0.6c-0.2,0.3-0.3,0.7-0.3,1.1c0.1,0.3,0.3,0.6,0.6,0.8
			c0.2,0.1,0.5,0.2,0.8,0.2l0.9-2.6C446.7,261.3,446.4,261.2,446,261.3z"/>
		<path fill="#91ADAA" d="M438.7,263.9c0.1,0.3,0.3,0.6,0.7,0.8c0.4,0.2,0.8,0.3,1.3,0.2c0.5-0.1,0.9-0.3,1.1-0.7
			c0.2-0.3,0.3-0.7,0.3-1c-0.1-0.4-0.3-0.7-0.7-0.9c-0.4-0.2-0.8-0.2-1.3-0.1c-0.4,0.1-0.8,0.3-1.1,0.6
			C438.7,263.2,438.6,263.5,438.7,263.9z"/>
		<path fill="#91ADAA" d="M437.6,260.3c0.4-0.1,0.7-0.3,0.9-0.7c0.2-0.4,0.2-0.7,0.2-1.1c-0.1-0.4-0.3-0.8-0.6-1
			c-0.3-0.2-0.7-0.3-1-0.2c-0.3,0.1-0.6,0.3-0.8,0.6c-0.2,0.3-0.3,0.7-0.2,1.2c0.1,0.4,0.3,0.7,0.6,1
			C436.9,260.3,437.2,260.4,437.6,260.3z"/>
		<path fill="#91ADAA" d="M454.7,231.4c0.1-2,0-3.6-0.2-4.6c-1.1-2.4-2.4-3.7-3.9-3.7c-3.2,0.8-5.3,1.8-6.5,2.8
			c-1.1,1-3,2.1-5.6,3.3c-5.2,1.6-10.4,2.2-15.5,1.9c3.9,2.7,7.8,4.3,11.8,5c5.5,0.8,8.3,2,8.4,3.6c-2.1,2.1-7.4,1.9-16.1-0.4
			c4.3,6,10.8,9,19.3,9.2c2.1-0.3,3.9-0.8,5.5-1.5l3.8-11.1C455,234.7,454.6,233.3,454.7,231.4z"/>
		<path fill="#91ADAA" d="M423.2,225.4c5.4,0.4,11.4-0.6,18-3.1c4.9-2.4,7.6-5.9,8.1-10.7l-26.9-14.9c-0.3,0.6-0.6,1.2-0.8,1.9
			c-0.3,2.3-0.2,4.9,0.4,7.9c0.6,3-0.4,7.3-2.8,12.8c2.5-2,4.4-4,5.5-5.8c1.1-1.8,2.1-2.9,3-3.3c1.4,1.8,0.8,4.8-1.9,9.1
			c2.7-1.1,4.6-2.2,5.9-3.4c1.3-1.2,2.5-2,3.7-2.5c0.4,1.7-0.4,3.7-2.4,6.1C431,221.9,427.7,223.8,423.2,225.4z"/>
		<path fill="#91ADAA" d="M421.1,236.5c-2.3-5.9-4.3-8.3-6.1-7.3c-1.1,0.7-0.6,2.7,1.4,6.1c2,3.4,4.6,7.1,7.9,11.2
			c3.3,4.1,6.9,7.1,10.9,9.1C428,248.7,423.3,242.4,421.1,236.5z"/>
		<path fill="#91ADAA" d="M384.5,250.9c1.1-0.2,2,0.1,2.6,0.9c0.6,0.8,1.7,1.2,3.3,1.3c1.6,0.1,3.8-0.5,6.4-1.7
			c2.6-1.2,4.5-2.8,5.8-4.7c0.5-0.8,1.4-1.3,2.6-1.5c0.2,2.3-0.4,4.3-1.9,6.2c-1.5,1.9-2.8,3.8-3.9,5.8c-2.1,2.5-3.2,4.8-3.4,7
			c-0.3,1.5,0.4,2.9,2,4.3c1.6,0.8,2.9,1.1,4.1,1.1c1.1-0.1,1.9,0,2.4,0.2c2,2.1,3.7,3.5,5,4.1c3.9,1,6.6,1.1,8.1,0.1
			c6.6-4.8,9.9-9.8,10.1-15c-0.4-2.5-1.7-4.5-3.8-6c-1.2-1.4-2-2.8-2.6-4.2c-0.5-1.3-1.5-2.8-2.9-4.3c1.5,6.8,0.9,11.9-2,15.4
			c-0.1-4.1-0.8-7.3-2-9.7c-1.7,3.9-4,6.4-6.8,7.4c3.3-10.9,4.4-18.9,3.3-24c-4.6,6.5-10.6,8.8-18,6.9c0.9-1.1,1.9-1.8,3.1-2.3
			c1.2-0.5,2.7-1.8,4.7-3.9c-4.4-0.3-7.7-2-9.8-5.2c1.5-0.5,2.9-0.5,4.1,0.1c1.2,0.6,3,1.1,5.2,1.3c2.7-0.2,4.5-0.6,5.3-1.2
			c0.9-0.6,2-1.1,3.5-1.6c-0.3-1-0.8-1.6-1.5-1.9c-4.2-3.3-7.2-5.9-8.9-7.7c-1.7-1.8-3-3.7-3.8-5.8c-0.8-2.1-1.2-3.4-1-4.1
			c0.6-0.4,1.8-0.1,3.6,0.9c1.8,1,4.4,3.8,7.8,8.6c-1.1-4.2-1.2-6.8-0.2-7.6c2.2,0.4,3.5,2.9,4,7.5c0.5-2.1,0.8-3.9,0.9-5.4
			c2.1,0.6,3.4,4.6,3.9,12.1c5.2-14.8,4.5-24.8-2.1-29.9c-1.9-0.4-3.2-0.4-4.1,0.1c-0.8,0.5-1.5,0.8-2.1,0.8
			c-2.5-0.1-4.5-0.5-6.1-1.3c-1.6-0.7-3.7-0.8-6.3-0.3c-2.8,0.9-4.7,3.7-5.6,8.4c-0.4,1-0.9,1.7-1.6,2.2c-0.7,0.5-1.3,1.4-1.8,2.8
			c0,3.1,1.4,6.2,4.4,9.2c1.7,1.6,3.5,2.9,5.6,4c5.4,2.6,8.5,4.8,9.2,6.8c-1.6,0.9-4,0.4-7.1-1.5c-6.5-4.2-11.7-5.5-15.6-3.8
			c-1.4,1.3-2.2,2.3-2.3,2.9c-0.1,0.7-0.3,1.3-0.7,2c-0.7,0.5-1.9,1.8-3.6,3.7c-0.7,1.3-0.9,2.8-0.8,4.4c0.5,2.3,1.2,4,2.1,5.2
			c2.4,1.5,4,3,5,4.3c0.7,0.8,1.1,1.8,1.1,2.9c0.1,1.2,0.4,2.2,0.9,3C382.6,250.9,383.4,251,384.5,250.9z"/>
	</g>
	<path fill="#91ADAA" d="M227.3,292.3c-0.5,6.6-5.3,16.9-1.1,30.3c6.2,19.7,23,19.6,32,38.1c4.9,10.1-2.6,12.3-5.7,8.4
		c-24.8-31.4-29.6-15.6-50.5-12.8c2.4,10.8,3.5,21.3,12.2,29.5c8.7,8.2,26.8,5,36.4,9.8c7.1,3.6,12.6,16.6,11,22.3
		c-0.3,1.1-0.9,2-1.9,2.4c-2.2,0.9-5.3,0.2-9.1-3.4c-1.7-1.6-3.5-3.8-5.5-6.7c-20.9-30.6-55.6-3.7-59.9-14.5c0,0-0.6,7.1,0.7,15.1
		c1.4,8.3,4.7,17.6,12.8,21.5c16,7.8,38.7,1,45.4,4.8c13.6,7.6,1.4,11.6-1.2,16.3c-1.6,3,4.8,7.1,8.2,2.4
		c5.2-7.3,13.9-13.9,16.6-37.5c1.1-9.5,1.2-21.7-0.3-37.8c-5.6-61-22.5-68.3-21.6-69.4c0.9-1.1,11.6,4.4,24.6,50.4
		c1.7,6.1,4.8,1.1,6.1-2.6c1.3-3.7,6.7-25.9,12.2-23.9c5.4,2-6.7,20.5-10.5,28.1c-3.7,7.6-12,31.7-3.4,42.3
		c8.6,10.7,23.1-18.2,28-22.5c0,0,9.8-9.8,12.3-8.4c2.5,1.3-7.3,21-15.8,26.4c-6,3.8-15.6,7-23.5,18l0,0c-3.3,4.6-6.2,10.5-8.5,18.4
		c-1.6,5.5-9.6,18,24.5-0.6c7.5-4.1,28.5-8.8,29.4-3.2c0.8,5.1-16.1,12.5-35.8,14.1c-18.7,1.4-31.8,8.7-35.8,16
		c-2.9,5.4,11.4-2.5,15.8-4.4c8.5-3.6,15-2.3,27.2-0.2c29.9,5.3,42.8,5.3,60.3-26.2c-1.8-2.5-3.7-5-5.6-7.2l0,0
		c-6.6-7.9-13.4-13.8-19.6-13.7c-7.8,0.2-15.8,4.8-23,9.7l0,0c-10.3,7-19,14.7-23.5,11.4c-4.4-3.2-1.9-10,5.6-13.1l0,0
		c0.4-0.2,0.9-0.4,1.4-0.5c8.6-2.8,49.4-8.5,36.9-65.5c-12.3-3.5-22.6,5.8-29.6,21.4c-7,15.6-18.8,14.7-11.2-4.4
		c7.6-19.1,33.2-35.6,9.3-66.6c0,0-16.3,1-15.4,27c0.6,17.9-3.7,15.8-5.3,14.2c-6.7-6.8,4.2-31.9-11.5-47
		C250.7,288.4,232.9,290.5,227.3,292.3z M256.2,437c-9-12.3-22.8-6.3-30.5-13.9c-3.2-3.1-4.3-6.5-3.3-8.8c0.9-2.3,3.9-3.4,8.7-2.2
		c3.2,0.8,6.1,2.2,8.7,3.8l0,0C253.1,424.2,258.5,440.2,256.2,437z"/>
	<path fill="#91ADAA" d="M299.4,484.6c-0.7-0.8-1.4-1.7-2.2-2.5c-2.8-2.9-6.1-5.6-10.1-7.8c-18.4-10-36,2-39.3,7.8
		c-0.7,1.2-0.8,2.1-0.2,2.5h2h0.4c0.1,0,0.1,0,0.2,0c4.4-1.2,11.5-1.3,19,0c0.1,0,0.2,0,0.3,0.1L299.4,484.6
		C299.4,484.7,299.4,484.6,299.4,484.6z"/>
	<g>
		<path fill="#91ADAA" d="M247.4,270.3c-0.2,0-0.4,0.2-0.5,0.3c-0.1,0.2-0.2,0.4-0.1,0.6c0.1,0.2,0.2,0.4,0.4,0.5
			c0.2,0.1,0.4,0.2,0.6,0.1c0.2,0,0.4-0.2,0.5-0.4c0.1-0.2,0.1-0.4,0.1-0.6c-0.1-0.2-0.2-0.4-0.4-0.5
			C247.9,270.3,247.7,270.3,247.4,270.3z"/>
		<path fill="#91ADAA" d="M247.3,273.4c-0.1,0.2-0.2,0.4-0.1,0.6c0,0.2,0.2,0.3,0.4,0.4c0.2,0.1,0.4,0.2,0.6,0.1
			c0.2-0.1,0.4-0.2,0.5-0.4c0.1-0.2,0.2-0.4,0.1-0.5c0-0.2-0.2-0.4-0.3-0.5c-0.2-0.1-0.4-0.1-0.6-0.1
			C247.7,273.1,247.5,273.2,247.3,273.4z"/>
		<path fill="#91ADAA" d="M243.9,274.5c0,0.2,0.2,0.3,0.4,0.4c0.2,0.1,0.4,0.1,0.7,0.1c0.3-0.1,0.5-0.2,0.6-0.4
			c0.1-0.2,0.2-0.4,0.1-0.6c0-0.2-0.2-0.4-0.4-0.5c-0.2-0.1-0.4-0.1-0.7-0.1c-0.2,0.1-0.4,0.2-0.6,0.3
			C243.9,274,243.9,274.2,243.9,274.5z"/>
		<g>
			<path fill="#91ADAA" d="M253.3,259.3c-0.5-0.5-0.7-1.4-0.7-2.5c0-1.1,0-1.9-0.1-2.5c-0.6-1.3-1.3-2-2.1-2c-1.7,0.5-2.9,1-3.5,1.5
				c-0.6,0.5-1.6,1.1-3,1.8c-2.8,0.9-5.6,1.2-8.4,1c2.1,1.4,4.2,2.4,6.4,2.7c3,0.4,4.5,1.1,4.6,2c-1.1,1.1-4,1-8.7-0.2
				c2.4,3.3,5.9,4.9,10.5,5c3.5-0.4,5.6-2.1,6.1-5.1C254.1,260.4,253.8,259.8,253.3,259.3z"/>
			<path fill="#91ADAA" d="M236.3,247.1c0.6-1,1.1-1.6,1.6-1.8c0.8,1,0.4,2.6-1,4.9c1.5-0.6,2.5-1.2,3.2-1.8c0.7-0.6,1.3-1.1,2-1.3
				c0.2,0.9-0.2,2-1.3,3.3c-1.1,1.3-2.8,2.3-5.3,3.2c2.9,0.2,6.2-0.3,9.8-1.7c3.2-1.5,4.6-4,4.4-7.4c-0.2-0.8-0.5-1.5-1-1.9
				c-0.4-0.3-0.5-0.8-0.6-1.4c0-0.2-0.1-0.4-0.1-0.6c0.1-1-0.2-1.8-0.8-2.4c-1-1.1-2.1-1.4-3.3-0.9c-1.2,0.5-2.2,0.4-3-0.2
				c-0.8-0.6-1.7-0.8-2.9-0.7c-0.9,0-1.6,0.3-2.2,0.7c-0.5,0.4-0.9,1-1.2,1.9c-0.2,1.2-0.1,2.7,0.2,4.3c0.3,1.6-0.2,3.9-1.5,6.9
				C234.7,249.1,235.7,248.1,236.3,247.1z"/>
			<path fill="#91ADAA" d="M234.3,259.6c-1.2-3.2-2.3-4.5-3.3-4c-0.6,0.4-0.3,1.5,0.7,3.3c1.1,1.8,2.5,3.9,4.3,6.1
				c1.8,2.2,3.8,3.9,5.9,4.9C238.1,266.2,235.6,262.8,234.3,259.6z"/>
			<path fill="#91ADAA" d="M243,270.9c-0.2,0-0.3,0.1-0.4,0.3c-0.1,0.2-0.2,0.4-0.1,0.6c0,0.2,0.2,0.4,0.3,0.5
				c0.2,0.1,0.4,0.2,0.5,0.1c0.2,0,0.4-0.2,0.5-0.4c0.1-0.2,0.1-0.4,0.1-0.6c-0.1-0.2-0.2-0.4-0.3-0.5
				C243.4,270.9,243.2,270.8,243,270.9z"/>
		</g>
		<path fill="#91ADAA" d="M245.2,270.6c0.2,0,0.4-0.2,0.5-0.4c0.1-0.2,0.1-0.4,0.1-0.6c-0.1-0.2-0.2-0.4-0.3-0.5
			c-0.2-0.1-0.4-0.2-0.6-0.1c-0.2,0-0.3,0.1-0.4,0.3c-0.1,0.2-0.2,0.4-0.1,0.6c0,0.2,0.2,0.4,0.3,0.5
			C244.8,270.6,245,270.6,245.2,270.6z"/>
	</g>
	<path fill="#91ADAA" d="M234.9,235.4c0,0,7.1-0.1,15-2.1c8.1-2.1,17.1-6.4,20.2-14.8c1.9-5.2,2.4-10.9,2.3-16.5l-22.9,18.6
		l-18.1-14.9C233.2,220.1,240.9,232.3,234.9,235.4z"/>
	<polygon opacity="0.5" fill="#0C2630" enable-background="new    " points="249.6,220.5 189.4,219.3 197.5,192.4 	"/>
	<polygon fill="#247696" points="249.6,220.5 190.6,206.5 194.4,175.1 	"/>
	<g>
		<g>
			<circle opacity="0.5" fill="#2E2E2E" enable-background="new    " cx="250.6" cy="234" r="3.9"/>
			<circle fill="#EDEBEB" cx="250.6" cy="230.8" r="3.9"/>
		</g>
		<g>
			<circle opacity="0.5" fill="#2E2E2E" enable-background="new    " cx="250.6" cy="293.1" r="3.9"/>
			<circle fill="#EDEBEB" cx="250.6" cy="289.8" r="3.9"/>
		</g>
		<g>
			<circle opacity="0.5" fill="#2E2E2E" enable-background="new    " cx="250.6" cy="352.1" r="3.9"/>
			<circle fill="#EDEBEB" cx="250.6" cy="348.9" r="3.9"/>
		</g>
		<g>
			<circle opacity="0.5" fill="#2E2E2E" enable-background="new    " cx="250.6" cy="411.1" r="3.9"/>
			<circle fill="#EDEBEB" cx="250.6" cy="407.9" r="3.9"/>
		</g>
		<g>
			<circle opacity="0.5" fill="#2E2E2E" enable-background="new    " cx="250.6" cy="470.1" r="3.9"/>
			<circle fill="#EDEBEB" cx="250.6" cy="466.9" r="3.9"/>
		</g>
	</g>
	<rect x="255.9" y="217.9" opacity="0.5" fill="#184E63" enable-background="new    " width="4.1" height="266.7"/>
	<polygon opacity="0.5" fill="#0C2630" enable-background="new    " points="249.6,220.5 307.5,219.3 302.7,192.4 	"/>
	<polygon fill="#247696" points="249.6,220.5 309.5,206.5 305.8,175 	"/>
</g>
</svg>
