<?xml version="1.0" encoding="utf-8"?>
<!-- Generator: Adobe Illustrator 18.0.0, SVG Export Plug-In . SVG Version: 6.00 Build 0)  -->
<!DOCTYPE svg PUBLIC "-//W3C//DTD SVG 1.1//EN" "http://www.w3.org/Graphics/SVG/1.1/DTD/svg11.dtd">
<svg version="1.1" id="Layer_1" xmlns="http://www.w3.org/2000/svg" xmlns:xlink="http://www.w3.org/1999/xlink" x="0px" y="0px"
	 width="500px" height="500px" viewBox="0 0 500 500" enable-background="new 0 0 500 500" xml:space="preserve">
<rect x="0.5" y="0.5" display="none" fill="#FFFFFF" stroke="#000000" width="500" height="500"/>
<g>
	<g>
		<polygon fill="#206689" points="305.1,174.2 249,219.6 193.9,174.2 116.2,174.2 116.2,483.5 249,483.5 382.8,483.5 382.8,174.2 		
			"/>
	</g>
	<polygon fill="#237291" points="255.4,483.5 242.5,483.5 242.5,217.1 249,219.6 255.4,217.1 	"/>
	<path fill="#F7F2CB" d="M164,336.9"/>
	<g>
		<path fill="#91ADAA" d="M275.1,267.9c1.6,0.9,2.4,2.2,2.3,3.8c-0.1,1.6,0.9,3.2,2.8,5c2,1.7,5.2,3.1,9.7,4.3
			c4.5,1.1,8.5,1.1,11.9,0c1.4-0.4,3-0.2,4.7,0.7c-2,3.1-4.9,5-8.6,5.8c-3.8,0.8-7.4,1.9-10.8,3.4c-5.1,1.1-8.9,2.8-11.3,5.3
			c-1.8,1.6-2.4,4.1-1.8,7.4c1.2,2.5,2.5,4.3,4,5.4c1.5,1.1,2.4,1.9,2.8,2.6c0.4,4.7,1.1,8.1,2.1,10.1c3.8,5.2,7.2,8,10,8.3
			c13.1,0.6,22.3-2.3,27.7-8.7c2-3.6,2.5-7.4,1.3-11.3c0-3,0.3-5.6,1-7.8c0.7-2.2,0.9-5,0.6-8.3c-4.9,10-10.9,15.8-18,17.3
			c4-5.2,6.4-10,7.2-14.2c-6.1,3.1-11.4,3.9-15.9,2.4c15.2-10.3,24.6-19.2,28.3-26.8c-12.2,3.5-22.1,0.4-29.6-9.5
			c2.2-0.4,4.2-0.4,6.2,0.2c2,0.6,5.2,0.5,9.7-0.1c-5.2-4.8-7.6-10.3-7-16.4c2.4,0.8,4.1,2.3,5.1,4.3c0.9,2,2.7,4.3,5.2,6.9
			c3.6,2.4,6.2,3.7,7.9,3.8c1.7,0.1,3.7,0.6,6,1.6c0.6-1.5,0.6-2.8,0-3.9c-1.9-8.5-3.1-14.7-3.4-18.6c-0.3-4,0-7.7,1-11.1
			c1-3.4,2-5.5,2.9-6.1c1.1,0.2,2.4,1.8,3.6,4.8c1.3,3,1.7,9.2,1.1,18.5c2.9-6.4,5.3-9.7,7.4-9.8c2.3,2.7,1.5,7.2-2.5,13.5
			c2.7-2.1,4.9-4.1,6.6-5.8c2,2.9-0.4,9.2-7.2,19.1c21.5-13.3,30.6-26.4,27.4-39.5c-1.9-2.4-3.7-3.7-5.2-3.9
			c-1.5-0.2-2.7-0.6-3.4-1.1c-3-2.6-5.1-5.2-6.4-7.8c-1.3-2.5-3.8-4.8-7.6-6.7c-4.4-1.7-9.6-0.1-15.5,4.9c-1.5,0.9-2.9,1.3-4.3,1.1
			c-1.4-0.1-3,0.4-5,1.7c-3.2,3.9-4.5,9.2-3.8,15.9c0.5,3.6,1.5,7.2,3,10.7c4.2,8.7,5.7,14.6,4.7,17.7c-2.9-0.5-5.4-3.5-7.4-9.1
			c-3.9-11.8-9.1-18.6-15.7-20.4c-3.1,0.2-5,0.6-5.8,1.4c-0.8,0.7-1.7,1.3-2.9,1.8c-1.4,0-4.2,0.3-8.2,1.1c-2.1,1-3.9,2.5-5.5,4.7
			c-1.7,3.3-2.5,6.2-2.6,8.7c1.4,4.3,2,7.8,1.9,10.5c0.1,1.7-0.4,3.3-1.5,4.8c-1.1,1.5-1.7,3.1-1.9,4.6
			C272.6,266,273.4,266.9,275.1,267.9z"/>
		<path fill="#91ADAA" d="M364.6,295.1c-8.1-3.2-15.2-7.6-21.3-13.3c2.2,7.2,5.4,13.3,9.8,18.2c6.1,6.6,8.4,10.9,6.9,13
			c-4.7,0.5-11.2-5.1-19.7-16.8c-0.6,11.9,4.4,22.2,15,30.9c8.9,5.6,16.8,5.4,23.5-0.4c0.6-1.6,0.9-3.5,0.7-5.7
			c-0.1-2.2,0.9-4.5,3.1-7c0.1-0.1,0.1-0.2,0.2-0.2v-15.5c-3.4-1.3-6-1.9-7.9-1.8C372.5,296.7,369.1,296.2,364.6,295.1z"/>
		<path fill="#91ADAA" d="M374.1,239.7c-2.7,2.5-5.2,5.9-7.5,10.3c-2.3,4.4-7.8,8.7-16.4,13.2c5.2,0,9.5-0.6,12.7-1.7
			c3.1-1.2,5.5-1.5,7.2-1.1c0,3.7-3.9,6.8-11.6,9.5c4.4,1.3,8,1.9,10.8,1.7s5.1,0,7.1,0.6c-1.2,2.6-4.2,4.3-9.1,5.3
			c-4.9,1-10.9,0.1-18.1-2.5c6.3,5.9,14.8,10.7,25.6,14.2c2.8,0.7,5.5,0.9,8,0.7v-52.1C380,237,377.1,237.7,374.1,239.7z"/>
		<path fill="#91ADAA" d="M339,329c-0.3,0.6-0.3,1.2-0.2,1.8c0.2,0.7,0.5,1.1,1,1.4c0.6,0.3,1.1,0.3,1.7,0c0.6-0.3,1-0.7,1.3-1.2
			c0.3-0.7,0.4-1.3,0.3-1.9c-0.2-0.6-0.5-1-1.1-1.3c-0.5-0.2-1-0.3-1.7-0.1C339.8,327.9,339.3,328.3,339,329z"/>
		<path fill="#91ADAA" d="M342.4,336.9c-0.3,0.6-0.3,1.2-0.1,1.9c0.2,0.7,0.6,1.2,1.2,1.4c0.7,0.3,1.3,0.4,1.9,0.1
			c0.6-0.2,1.1-0.7,1.4-1.2c0.3-0.7,0.4-1.3,0.2-1.9c-0.2-0.6-0.6-1.1-1.3-1.4c-0.6-0.3-1.2-0.3-1.8-0.2
			C343.2,335.8,342.7,336.2,342.4,336.9z"/>
		<path fill="#91ADAA" d="M333.2,338c-0.6-0.3-1.3-0.4-2-0.3c-0.7,0.1-1.2,0.5-1.4,1c-0.2,0.5-0.2,1.1,0,1.7
			c0.3,0.7,0.7,1.1,1.4,1.5c0.7,0.4,1.4,0.5,2.1,0.3c0.7-0.2,1.1-0.5,1.4-1c0.3-0.6,0.3-1.1,0-1.7
			C334.4,338.9,333.9,338.4,333.2,338z"/>
		<path fill="#91ADAA" d="M335,271.4c-2-0.2-3.5,2.8-4.4,9c-0.9,6.2-1.4,13.6-1.4,22c0,8.4,1.5,15.9,4.5,22.3
			c-2-15.8-1.5-28.5,1.5-38.1C338.3,277,338.2,271.9,335,271.4z"/>
		<path fill="#91ADAA" d="M339.5,346.8c0.7,0.3,1.3,0.4,1.9,0.2c0.6-0.2,1-0.5,1.3-1c0.3-0.6,0.3-1.1,0.1-1.7
			c-0.2-0.6-0.7-1-1.3-1.4c-0.6-0.3-1.2-0.4-1.8-0.2c-0.6,0.1-1.1,0.5-1.4,1.1c-0.2,0.5-0.2,1.1,0,1.7
			C338.5,346,338.9,346.5,339.5,346.8z"/>
		<path fill="#91ADAA" d="M335.3,330c-0.2-0.6-0.5-1-1.1-1.3c-0.5-0.2-1-0.3-1.7-0.1c-0.6,0.2-1.1,0.6-1.4,1.3
			c-0.3,0.6-0.3,1.2-0.2,1.8c0.2,0.7,0.5,1.1,1,1.4c0.6,0.3,1.2,0.3,1.7,0c0.6-0.3,1-0.7,1.3-1.3C335.4,331.3,335.5,330.6,335.3,330
			z"/>
		<path fill="#91ADAA" d="M290.1,215.8c4.8,2.1-3.1-9.5-5-13.1c-1.8-3.4-2.6-6.5-2.9-10l-5.8,4.7
			C279.9,207.2,285.2,213.7,290.1,215.8z"/>
		<path fill="#91ADAA" d="M208.3,193.7c-16.9-5-32.9-25.4-57.4-2.6c0,0,2.1,13.8,24.2,11c15.2-2,13.8,1.9,12.6,3.4
			c-5.2,6.3-27.5-1-39.2,13.5c-8,10-4.8,24.9-2.9,29.5c5.6-0.1,14.8,3.1,25.9-1.5c16.3-6.8,14.9-21.1,29.9-30.3
			c8.2-5,10.7,1.3,7.6,4.2c-24.8,23.6-11,26.5-6.9,44c9-2.9,17.9-4.7,24.2-12.7c6.3-8.1,2.1-23.2,5.4-31.8c1.2-3.2,4.5-6.2,8.1-8.3
			l-8.5-7c-4.2,0.5-8.7,1.2-13.7,2.1c-51.5,9.6-56.4,24.6-57.4,23.9c-1-0.7,2.8-10.3,41-25c5.1-2,0.6-4.2-2.7-5
			c-3.2-0.8-22.6-3.7-21.3-8.5c1.3-4.8,18,4.1,24.8,6.7c4.9,1.9,17.1,5,26.7,3.6l-10.1-8.4C216.6,195.3,213.2,195.1,208.3,193.7z"/>
		<path fill="#91ADAA" d="M244.7,224c-24.4,20.3,1.2,47.7-7.6,52.2c0,0,6.1-0.1,12.8-1.8c6.9-1.8,14.6-5.4,17.3-12.6
			c5.3-14.2-2.2-33,0.5-39c5.4-12.2,9.7-2.1,14-0.3c2.7,1.2,5.7-4.7,1.4-7.2c-4.5-2.6-8.9-6.6-17.6-9.1l-15.9,12.9
			C248.5,220.6,246.8,222.2,244.7,224z M266.6,212.5c-9.8,8.7-3.6,19.9-9.4,27.1c-2.4,3-5.2,4.1-7.2,3.5c-2-0.6-3.2-3-2.6-7.2
			c0.5-2.8,1.4-5.4,2.6-7.8v0C256,216.1,269.1,210.2,266.6,212.5z"/>
		<path fill="#91ADAA" d="M119.1,342.5c8.9,8,24.9,7.7,28.5,11.4c7.4,7.5-1.2,7.8-3.7,10.5c-1.6,1.7,1.8,5.5,4.9,3.1
			c6.6-5.3,17.4-8.7,24.2-46.3c7.4-40.9-2.2-48.8-1.5-49.4c0.8-0.6,6.7,5,6.8,37.6c0,4.3,2.9,1.6,4.4-0.6c1.5-2.2,9-15.7,12.2-13.4
			c3.2,2.3-8,12.2-11.8,16.5c-3.8,4.3-13.5,18.6-9.9,27.1c3.6,8.6,18.2-7.7,22.2-9.6c0,0,8.1-4.6,9.5-3.3c1.4,1.3-8.5,12.4-15,14.4
			c-6.5,2-17.3,1.7-27.3,18c-2,3.3-9.5,10,16,4.1c5.6-1.3,20.1-0.6,19.6,3.3c-0.4,3.5-12.7,5.3-25.7,2.7c-9.8-2-17.9-0.9-22.8,1.7
			c0,0-2.6,1.2-3.2,1.9c-2.9,3,7.8,0.4,11,0c6.2-0.8,10.1,1.2,17.6,4.8c18.4,8.9,26.8,11.3,43.8-6.2c-0.1-0.2-2.9-15.3-12.6-17.9
			c-12.2-3.3-30,10.3-33.9,5.3c-2.4-3.1,0.9-7.4,7-7.6c6.1-0.3,33.5,3.5,35.7-36.2c-7.3-4.5-15.7-0.4-23.1,8.6
			c-7.4,8.9-14.8,6.2-6.4-5c8.4-11.1,27.9-17.3,18-41.9c0,0-10.8-2.3-14.9,14.8c-2.8,11.9-5.3,9.7-6,8.4c-3.1-5.7,8.5-20.1,1.1-32.9
			c-5.1-8.8-17-10.6-20.9-10.5c-1.5,4.2-6.5,10.1-6.2,19.7c0.4,14,11.3,17.1,13.8,30.8c1.4,7.5-3.9,7.6-5.2,4.5
			c-10.4-25.1-16.4-15.7-30.4-17.6c-0.4,7.5-1.6,14.6,2.6,21.6c4.1,7,16.4,8.2,21.8,13.1c4.8,4.4,5.5,17.3,1.4,17.8
			c-2.3,0.3-5.2-1.9-7.7-9.3c-8-23.8-35.4-12.6-36.2-20.4c0,0-0.4,1-0.8,2.7v19.7C116.9,339.9,117.8,341.4,119.1,342.5z
			 M150.8,313.3c-3.1-5.4-0.2-7.5,3-4.6c13.6,12.4,13.3,22.6,11,17.9C160.6,318,153.9,318.7,150.8,313.3z M143.7,335.1
			c11.9,7,12.9,23.9,11.8,20.9c-3.6-9.7-13.6-8.3-17.3-14.7C135.2,336,137.9,331.7,143.7,335.1z"/>
		<path fill="#91ADAA" d="M174.4,399.4c-0.4-0.3-0.9-0.4-1.4-0.3c-0.6,0.1-1,0.3-1.3,0.6c-0.3,0.4-0.5,0.8-0.4,1.3
			c0,0.4,0.3,0.8,0.6,1.1c0.4,0.3,0.9,0.4,1.4,0.4c0.5,0,0.9-0.3,1.3-0.7c0.3-0.4,0.5-0.8,0.5-1.2
			C175.1,400.1,174.8,399.7,174.4,399.4z"/>
		<path fill="#91ADAA" d="M137.5,429.3c0.7,1.4,3.3,1.1,7.8-0.9c4.4-2,9.4-4.8,14.9-8.4c5.5-3.6,9.7-7.7,12.6-12.3
			c-9.4,8-17.9,13-25.5,15.1C139.8,424.8,136.5,427,137.5,429.3z"/>
		<path fill="#91ADAA" d="M178.3,404.1c-0.4-0.3-0.9-0.4-1.4-0.3c-0.6,0.1-1,0.3-1.3,0.6c-0.3,0.4-0.5,0.8-0.4,1.3
			c0,0.4,0.3,0.8,0.6,1.1c0.4,0.3,0.9,0.4,1.4,0.4c0.5-0.1,0.9-0.3,1.3-0.7c0.3-0.4,0.5-0.8,0.5-1.2
			C179,404.8,178.7,404.4,178.3,404.1z"/>
		<path fill="#91ADAA" d="M175.7,396.5c0.4,0.3,0.9,0.5,1.4,0.4c0.5-0.1,0.9-0.3,1.3-0.7c0.3-0.4,0.5-0.9,0.4-1.4
			c-0.1-0.6-0.3-1-0.7-1.3c-0.4-0.3-0.9-0.4-1.4-0.4c-0.6,0.1-1,0.3-1.3,0.7c-0.3,0.4-0.4,0.9-0.4,1.4
			C175,395.7,175.3,396.2,175.7,396.5z"/>
		<path fill="#91ADAA" d="M183.3,396.7c0.4,0,0.8-0.3,1.1-0.7c0.3-0.4,0.4-0.9,0.4-1.4c-0.1-0.6-0.3-1-0.7-1.3
			c-0.4-0.3-0.8-0.5-1.2-0.4c-0.5,0-0.9,0.3-1.2,0.7c-0.3,0.4-0.4,0.9-0.3,1.4c0.1,0.5,0.3,0.9,0.6,1.3
			C182.3,396.6,182.8,396.8,183.3,396.7z"/>
		<path fill="#91ADAA" d="M184.4,400.6c-0.4-0.4-0.8-0.5-1.2-0.5c-0.5,0.1-0.9,0.3-1.2,0.7c-0.3,0.4-0.4,0.9-0.3,1.6
			c0.1,0.6,0.3,1,0.6,1.4c0.4,0.4,0.8,0.6,1.3,0.5c0.4,0,0.8-0.3,1.1-0.8c0.3-0.5,0.4-1,0.4-1.5C185,401.4,184.8,401,184.4,400.6z"
			/>
		<path fill="#91ADAA" d="M123.9,454.3c3.9-6.4,7.1-9.9,9.6-10.5c0.9,2.1,0,5-2.8,8.6c-6.1,7.5-8.3,13.8-6.7,18.9
			c1.4,1.9,2.5,3,3.3,3.2c0.8,0.2,1.6,0.6,2.4,1.1c0.6,0.9,2,2.6,4.1,4.9c1.5,1,3.3,1.5,5.4,1.6c2.9-0.3,5.1-1,6.7-2
			c2.2-2.7,4.2-4.6,6-5.7c1.1-0.8,2.3-1.1,3.8-1c1.5,0.1,2.7-0.2,3.8-0.7c0.7-0.4,1-1.4,0.9-2.8c-0.1-1.5,0.4-2.5,1.5-3.1
			c1.1-0.6,1.8-1.9,2-4c0.3-2-0.2-4.7-1.3-8.1c-1.2-3.4-2.9-6-5-7.8c-0.9-0.8-1.4-1.9-1.5-3.4c2.8,0,5.3,1,7.4,3.2
			c2.1,2.1,4.4,4,6.7,5.6c2.9,2.9,5.6,4.6,8.2,5.1c1.8,0.5,3.7-0.1,5.6-2c1.2-1.8,1.8-3.5,1.8-4.9c0.1-1.4,0.2-2.4,0.5-2.9
			c2.9-2.2,4.8-4.1,5.7-5.6c1.8-4.7,2.2-8,1.2-10.1c-5.1-8.8-10.9-13.6-17.3-14.4c-3.2,0.2-5.8,1.5-7.9,3.9
			c-1.9,1.3-3.8,2.2-5.5,2.7c-1.7,0.5-3.6,1.5-5.7,3.1c8.6-1,14.9,0.4,18.8,4.4c-5.1-0.4-9.2,0-12.3,1.3c4.6,2.6,7.4,5.8,8.3,9.4
			c-13.1-5.5-22.9-7.9-29.4-7.2c7.4,6.5,9.5,14.2,6.3,23.3c-1.2-1.2-2-2.6-2.5-4.1c-0.4-1.5-1.8-3.6-4.2-6.3
			c-0.9,5.4-3.5,9.3-7.8,11.5c-0.5-1.9-0.3-3.6,0.6-5.1c0.9-1.5,1.7-3.6,2.3-6.3c0.1-3.4-0.2-5.6-0.9-6.7c-0.7-1.1-1.2-2.7-1.5-4.5
			c-1.3,0.3-2.1,0.8-2.5,1.7c-4.7,4.8-8.3,8.2-10.7,10.1c-1.8,1.4-3.7,2.5-5.6,3.3v10.4c0.7-0.4,1.4-0.9,2-1.5
			C120.4,459,122.3,456.8,123.9,454.3z"/>
		<path fill="#91ADAA" d="M131.2,430.4c-5.5-2.6-10.6-4.5-15.1-5.5v8.2C117.7,431,122.8,430.1,131.2,430.4z"/>
		<path fill="#91ADAA" d="M119.3,415.3c-1.5-1.1-2.5-2.1-3.1-3v6.3c2.8,0.8,6,2.2,9.6,4.3C123.5,419.4,121.4,416.9,119.3,415.3z"/>
		<path fill="#91ADAA" d="M126.6,414.6c-1-3.5-2.2-6-3.4-7.8c-1.3-1.7-2.2-3.3-2.6-4.9c2.2-0.3,4.6,0.9,7.3,3.7
			c2.7,2.8,4.7,7.1,6,12.8c1.2-6.5,0.7-13.9-1.4-22.2l0,0c0-0.1-0.1-0.3-0.1-0.4l0,0c-2.7-7.5-8-11.3-15.7-11.6
			c-0.2,0-0.3,0.1-0.5,0.1v26.3C118.6,409.8,122,411.1,126.6,414.6z"/>
		<path fill="#91ADAA" d="M140.8,419.6c3.8-4.5,6.4-9.1,7.7-14.1c1.7-6.7,3.6-10.1,5.6-10c2.3,2.8,1.4,9.5-2.6,19.9
			c8-4.6,12.6-12.2,13.8-22.8c0.4-2.3-0.9-6.1-0.9-6.1c-1.5-4.5-4.5-7.4-9.1-8.7c-1.3,0.3-2.7,0.9-4,1.9c-1.4,1-3.3,1.3-5.8,0.9
			c-2.5-0.4-4.4-0.5-5.7-0.4c-3.2,1-4.9,2.5-5.1,4.4c0.6,4.1,1.5,6.9,2.6,8.4c0.3,0.5,2.4,3.3,3.2,7
			C141.8,406.7,141.9,413.2,140.8,419.6z"/>
		<path fill="#91ADAA" d="M226.3,450.4c-0.6,0.8-2.7,2.2-13.3,6c-17.8,6.4-21.8,21.9-22.1,27.1h25.6c1.7-3.9,2.8-7.4,3.8-10.2
			c0.9-2.6,7.3-13.1,6.6-2.3c-0.3,4-2.1,8.3-4.6,12.6h14.4C241.7,456.5,226.9,449.6,226.3,450.4z"/>
		<path fill="#91ADAA" d="M176.3,468.4c-0.5,0.6-2,1.6-9.9,4.5c-6.7,2.4-10.8,6.6-13.2,10.6h19.6c1.6-2.7,4.3-6.1,4,0h8
			C184.1,471.3,176.7,467.9,176.3,468.4z"/>
		<path fill="#91ADAA" d="M251.7,483.5h34.4c-1.3-1-2.8-2-4.3-2.8C269.5,474,257.7,478.8,251.7,483.5z"/>
		<path fill="#91ADAA" d="M381.6,412c0,0.7,0.4,1.2,1.2,1.6v-3.4C382,410.6,381.6,411.2,381.6,412z"/>
		<path fill="#91ADAA" d="M378.3,443c-0.5-1.6-0.6-3.2-0.3-4.8c0.3-1.5,0-4.1-0.9-7.5c-3.3,4.4-7.3,6.7-12.1,6.7
			c0.5-1.9,1.4-3.4,2.9-4.2c1.5-0.9,3.1-2.4,5-4.6c1.6-3,2.4-5.1,2.3-6.4c-0.1-1.3,0.2-2.9,0.7-4.7c-1.2-0.3-2.2-0.2-3,0.3
			c-6.4,2.2-11.1,3.6-14.1,4.1c-3,0.6-5.9,0.6-8.6,0.1c-2.7-0.5-4.4-1.1-4.9-1.8c0-0.9,1.2-2,3.4-3.2c2.2-1.2,7-2,14.2-2.3
			c-5.2-1.7-7.9-3.3-8.1-4.9c1.9-2,5.4-1.7,10.6,0.9c-1.8-1.9-3.5-3.5-5-4.7c2.1-1.8,7.2-0.4,15.3,4.1c-11.9-15.5-22.8-21.5-32.7-18
			c-1.7,1.7-2.6,3.1-2.6,4.3c0,1.2-0.2,2.1-0.5,2.8c-1.8,2.5-3.6,4.3-5.5,5.5c-1.9,1.2-3.4,3.3-4.6,6.4c-1,3.6,0.7,7.4,5,11.6
			c0.8,1.1,1.2,2.1,1.2,3.2c0,1.1,0.6,2.3,1.7,3.7c3.3,2.2,7.5,2.7,12.6,1.6c2.8-0.7,5.5-1.7,8.1-3.2c6.4-3.9,10.8-5.6,13.3-5
			c-0.1,2.3-2.3,4.4-6.4,6.4c-8.8,3.9-13.6,8.5-14.5,13.8c0.4,2.3,0.9,3.8,1.5,4.3c0.6,0.5,1.1,1.2,1.6,2.1c0.1,1.1,0.6,3.2,1.5,6.3
			c0.9,1.6,2.3,2.8,4.1,3.8c2.7,1,5,1.5,6.9,1.3c3.2-1.4,5.9-2.2,7.9-2.3c1.3-0.2,2.6,0.1,3.9,0.8c1.3,0.7,2.5,1.1,3.7,1.1
			c0.5,0,0.9-0.3,1.3-0.8v-22.5C381.7,439.3,380.2,441.2,378.3,443z"/>
		<path fill="#91ADAA" d="M378.5,362.1c-1.4,0.5-3,0-4.7-1.3c-1.8-1.3-3.6-1.8-5.6-1.4c-3.3,0.5-5.3,2.3-6,5.3c-0.7,3-2,4.8-4.1,5.5
			c-1.4,0.5-3.2,1.6-3.9,2.7c-0.7,1.1-0.7,1.1-1.1,1.7c-2.1,3.3-1.8,6.5,0.8,9.7c2.2,1.9,5,3.6,8.6,5c3.5,1.4,7.4,5.3,11.5,11.6
			c-0.4-4-1.2-7.3-2.3-9.7c-1.2-2.3-1.6-4.2-1.4-5.4c2.8-0.3,5.6,2.4,8.2,8.2c0.7-3.5,0.8-6.4,0.5-8.5c-0.4-2.1-0.4-4-0.1-5.5
			c1.6,0.6,2.9,2,4,4.4v-22C381.2,361.8,379.7,361.7,378.5,362.1z"/>
		<path fill="#91ADAA" d="M323.2,353.9c-0.4-0.3-3.4,5.6-2.4,13.2c0,0,1.6,6.4,3.8,9.7c9.5,14.3,30.7,9.4,23.4,7.2
			c-5.4-1.6-14.7-8.4-18.9-15.8c0,0-1.8-3.4-2-5c-0.6-4.2,4-0.6,5.3,2c0.7,1.3,2.1,4.4,2.1,4.4c1.7,3.7,4.4,7.6,11.9,10
			c2.4,0.8,0.3-3.6,1.2-6.3c0.1-0.4,0.6-1.1,0.6-1.1c1.3-2.1,3.5-3.2,3.6-4.1c0.2-1.2-3.9-11.5-18.8-12.7
			C325.3,354.8,323.8,354.3,323.2,353.9z"/>
		<path fill="#91ADAA" d="M333.3,439.3c-5.6-6.7-11.5-11.8-16.8-11.7c-6.7,0.2-13.5,4.1-19.7,8.3l0,0c-8.8,6-16.3,12.6-20.1,9.8
			c-3.7-2.7-1.6-8.6,4.8-11.2l0,0c0.4-0.2,0.8-0.3,1.2-0.4c7.4-2.4,42.2-7.2,31.5-56.1c-10.5-3-19.4,4.9-25.4,18.3
			c-6,13.4-16.1,12.5-9.6-3.8c6.5-16.3,28.4-30.4,7.9-56.9c0,0-14,0.8-13.2,23.1c0.5,15.3-3.2,13.5-4.5,12.2
			c-5.8-5.8,3.6-27.3-9.8-40.2c-9.2-8.9-24.4-7.1-29.2-5.6c-0.5,5.6-4.5,14.4-0.9,25.9c5.3,16.9,19.7,16.8,27.4,32.6
			c4.2,8.7-2.3,10.5-4.9,7.2c-21.2-26.9-25.4-13.4-43.2-10.9c2,9.3,3,18.3,10.4,25.3c7.4,7,22.9,4.3,31.2,8.4
			c6.1,3,10.8,14.2,9.4,19.1c-0.3,1-0.8,1.7-1.6,2c-1.9,0.8-4.5,0.2-7.8-2.9c-1.5-1.4-3-3.3-4.7-5.7c-17.9-26.1-47.6-3.2-51.3-12.4
			c0,0-0.5,6,0.6,13c1.2,7.1,4.1,15.1,11,18.4c13.7,6.6,33.1,0.9,38.8,4.1c11.6,6.5,1.2,9.9-1,14c-1.4,2.6,4.1,6.1,7,2.1
			c4.5-6.2,11.9-11.9,14.2-32c0.9-8.1,1-18.6-0.2-32.4c-4.8-52.1-19.2-58.4-18.5-59.4c0.7-1,10,3.7,21.1,43.2c1.5,5.3,4.1,1,5.2-2.2
			c1.1-3.1,5.8-22.2,10.4-20.4c4.7,1.7-5.7,17.5-8.9,24.1c-3.2,6.5-10.2,27.1-2.9,36.2c7.3,9.1,19.8-15.6,23.9-19.2
			c0,0,8.4-8.3,10.5-7.2c2.1,1.1-6.2,17.9-13.5,22.6c-5.1,3.3-13.3,5.9-20.1,15.4l0,0c-2.8,3.9-5.3,9-7.3,15.7
			c-1.4,4.7-8.2,15.4,21-0.5c6.4-3.5,24.4-7.6,25.2-2.7c0.7,4.3-13.7,10.7-30.6,12c-16,1.2-27.2,7.4-30.6,13.7
			c-2.5,4.6,9.7-2.2,13.5-3.7c7.3-3.1,12.8-2,23.3-0.2c25.6,4.5,36.6,4.5,51.6-22.5C336.6,443.3,335,441.2,333.3,439.3L333.3,439.3z
			 M255.3,448.7c-7.7-10.5-19.5-5.4-26.1-11.9c-2.7-2.7-3.6-5.6-2.8-7.5c0.8-1.9,3.3-3,7.4-1.9c2.8,0.7,5.2,1.9,7.5,3.3l0,0
			C252.7,437.8,257.3,451.4,255.3,448.7z"/>
		<path fill="#91ADAA" d="M244.7,293.5c-2.4,0.7-4.8,1-7.2,0.9c1.8,1.2,3.6,2,5.5,2.3c2.6,0.4,3.9,0.9,3.9,1.7c-1,1-3.4,0.9-7.5-0.2
			c2,2.8,5,4.2,9,4.3c3-0.4,4.8-1.8,5.2-4.3c-0.2-0.5-0.4-1-0.9-1.4c-0.4-0.5-0.6-1.2-0.6-2.1c0-1,0-1.7-0.1-2.1
			c-0.5-1.1-1.1-1.7-1.8-1.7c-1.5,0.4-2.5,0.8-3,1.3C246.8,292.4,245.9,292.9,244.7,293.5z"/>
		<path fill="#91ADAA" d="M238.3,286.2c0.5-0.8,1-1.3,1.4-1.6c0.7,0.8,0.4,2.2-0.9,4.2c1.2-0.5,2.2-1,2.7-1.6
			c0.6-0.5,1.2-0.9,1.7-1.1c0.2,0.8-0.2,1.7-1.1,2.8c-0.9,1.1-2.4,2-4.5,2.7c2.5,0.2,5.3-0.3,8.3-1.4c2.7-1.3,4-3.4,3.8-6.3
			c-0.2-0.7-0.4-1.3-0.9-1.6c-0.4-0.3-0.6-0.9-0.5-1.7c0.1-0.8-0.2-1.5-0.7-2c-0.8-0.9-1.8-1.2-2.9-0.8c-1.1,0.4-1.9,0.3-2.6-0.2
			c-0.6-0.5-1.5-0.7-2.5-0.6c-1.5,0-2.4,0.7-2.8,2.2c-0.2,1.1-0.1,2.3,0.2,3.7c0.3,1.4-0.2,3.4-1.3,5.9
			C236.9,288,237.8,287.1,238.3,286.2z"/>
		<path fill="#91ADAA" d="M219.6,303.6c0.5-0.1,0.9,0.1,1.2,0.4c0.3,0.4,0.8,0.6,1.5,0.6c0.8,0,1.7-0.2,3-0.8
			c1.2-0.6,2.1-1.3,2.7-2.2c0.2-0.4,0.6-0.6,1.2-0.7c0.1,1.1-0.2,2-0.9,2.9c-0.7,0.9-1.3,1.8-1.8,2.7c-1,1.2-1.5,2.3-1.6,3.2
			c-0.1,0.7,0.2,1.4,0.9,2c0.7,0.4,1.3,0.5,1.9,0.5c0.5,0,0.9,0,1.1,0.1c0.9,1,1.7,1.6,2.3,1.9c1.8,0.5,3.1,0.5,3.8,0.1
			c3.1-2.2,4.6-4.6,4.7-7c-0.2-1.2-0.8-2.1-1.8-2.8c-0.5-0.7-0.9-1.3-1.2-1.9c-0.3-0.6-0.7-1.3-1.4-2c0.7,3.1,0.4,5.5-0.9,7.1
			c-0.1-1.9-0.4-3.4-0.9-4.5c-0.8,1.8-1.9,2.9-3.2,3.4c1.5-5.1,2.1-8.8,1.5-11.2c-2.1,3-4.9,4.1-8.4,3.2c0.4-0.5,0.9-0.8,1.4-1.1
			c0.5-0.2,1.3-0.8,2.2-1.8c-2-0.1-3.6-0.9-4.6-2.4c0.7-0.3,1.3-0.2,1.9,0c0.6,0.3,1.4,0.5,2.4,0.6c1.2-0.1,2.1-0.3,2.5-0.6
			c0.4-0.3,0.9-0.5,1.6-0.7c-0.1-0.5-0.4-0.7-0.7-0.9c-2-1.6-3.4-2.7-4.1-3.6c-0.8-0.8-1.4-1.7-1.8-2.7c-0.4-1-0.5-1.6-0.4-1.9
			c0.3-0.2,0.8,0,1.7,0.4c0.8,0.4,2,1.8,3.6,4c-0.5-2-0.6-3.1-0.1-3.5c1,0.2,1.6,1.4,1.9,3.5c0.2-1,0.4-1.8,0.4-2.5
			c1,0.3,1.6,2.1,1.8,5.6c2.4-6.9,2.1-11.5-1-13.9c-0.9-0.2-1.5-0.2-1.9,0.1c-0.4,0.2-0.7,0.4-1,0.4c-1.1-0.1-2.1-0.3-2.8-0.6
			c-0.7-0.3-1.7-0.4-2.9-0.1c-1.3,0.4-2.2,1.7-2.6,3.9c-0.2,0.5-0.4,0.8-0.8,1c-0.3,0.2-0.6,0.6-0.8,1.3c0,1.5,0.7,2.9,2,4.3
			c0.8,0.7,1.6,1.4,2.6,1.9c2.5,1.2,3.9,2.2,4.3,3.1c-0.7,0.4-1.8,0.2-3.3-0.7c-3-2-5.4-2.5-7.2-1.7c-0.7,0.6-1,1-1,1.4
			c0,0.3-0.2,0.6-0.3,0.9c-0.3,0.3-0.9,0.8-1.7,1.7c-0.3,0.6-0.4,1.3-0.4,2.1c0.2,1.1,0.6,1.9,1,2.4c1.1,0.7,1.9,1.4,2.3,2
			c0.3,0.4,0.5,0.8,0.5,1.4c0,0.5,0.2,1,0.4,1.4C218.8,303.6,219.1,303.7,219.6,303.6z"/>
		<path fill="#91ADAA" d="M233.8,293.5c-0.5,0.3-0.3,1.3,0.6,2.8c0.9,1.6,2.2,3.3,3.7,5.2c1.5,1.9,3.2,3.3,5,4.2
			c-3.3-3.2-5.5-6.1-6.6-8.9C235.5,294.2,234.6,293.1,233.8,293.5z"/>
		<path fill="#91ADAA" d="M248.6,307.2c0.1-0.2,0.1-0.3,0.1-0.5c0-0.2-0.1-0.4-0.3-0.5c-0.2-0.1-0.3-0.1-0.5-0.1
			c-0.2,0-0.3,0.1-0.4,0.3c-0.1,0.2-0.1,0.3-0.1,0.5c0,0.2,0.1,0.3,0.3,0.4c0.2,0.1,0.3,0.2,0.5,0.1
			C248.3,307.5,248.5,307.4,248.6,307.2z"/>
		<path fill="#91ADAA" d="M247.9,309.6c0.2,0.1,0.3,0.1,0.5,0.1c0.2,0,0.4-0.1,0.5-0.3c0.1-0.2,0.1-0.3,0.1-0.5
			c0-0.2-0.1-0.3-0.3-0.4c-0.2-0.1-0.3-0.1-0.5-0.1c-0.2,0-0.3,0.1-0.4,0.3c-0.1,0.1-0.2,0.3-0.1,0.5
			C247.6,309.4,247.7,309.5,247.9,309.6z"/>
		<path fill="#91ADAA" d="M246,308.9c-0.2-0.1-0.4-0.1-0.6-0.1c-0.2,0-0.4,0.1-0.5,0.3c-0.1,0.2-0.2,0.3-0.1,0.5
			c0,0.2,0.1,0.3,0.3,0.4c0.2,0.1,0.4,0.1,0.6,0.1c0.2-0.1,0.4-0.2,0.5-0.3c0.1-0.2,0.2-0.3,0.1-0.5
			C246.3,309.1,246.2,309,246,308.9z"/>
		<path fill="#91ADAA" d="M244,306.6c-0.2,0-0.3,0.1-0.4,0.3c-0.1,0.2-0.1,0.3-0.1,0.5c0,0.2,0.1,0.3,0.3,0.4
			c0.2,0.1,0.3,0.2,0.5,0.1c0.2,0,0.3-0.1,0.4-0.3c0.1-0.2,0.1-0.3,0.1-0.5c0-0.2-0.1-0.4-0.3-0.5
			C244.3,306.6,244.2,306.5,244,306.6z"/>
		<path fill="#91ADAA" d="M246.3,305.5c0-0.2-0.1-0.4-0.3-0.5c-0.1-0.1-0.3-0.1-0.5-0.1c-0.2,0-0.3,0.1-0.4,0.3
			c-0.1,0.2-0.1,0.3-0.1,0.5c0,0.2,0.1,0.3,0.3,0.4c0.2,0.1,0.3,0.2,0.5,0.1c0.2,0,0.3-0.1,0.4-0.3
			C246.4,305.9,246.4,305.7,246.3,305.5z"/>
		<path fill="#91ADAA" d="M357.3,475.6c-0.6-1.2-1.1-1.9-1.7-2.1c-0.6-0.2-1-0.5-1.3-0.8c-1-1.4-1.6-2.6-1.8-3.8
			c-0.3-1.2-1.1-2.3-2.5-3.5c-1.6-1.1-3.9-1-6.8,0.5c-0.7,0.2-1.3,0.2-1.8,0c-0.5-0.2-1.3-0.1-2.2,0.2c-1.7,1.3-2.7,3.3-3.1,6.1
			c-0.1,1.5-0.1,3.1,0.2,4.7c0.6,3,0.8,5.2,0.6,6.6h2.1c0.1-2.2,0.2-3.9,0.4-5.1c0.2-1.7,0.7-3.1,1.5-4.4c0.8-1.3,1.4-2,1.8-2.2
			c0.5,0.2,0.8,0.9,1,2.3c0.2,1.4-0.2,3.9-1.4,7.7c1.8-2.3,3.1-3.4,4-3.3c0.7,1.3-0.1,3-2.1,5h0.2c1.1-0.5,2.1-1,2.8-1.5
			c0.2,0.4,0.1,0.9-0.1,1.5h6.3C356,481.2,357.3,478.5,357.3,475.6z"/>
		<path fill="#91ADAA" d="M334.2,480.2c-0.4-5.2-1.9-8.5-4.4-9.9c-1.3-0.2-2.1-0.2-2.5,0c-0.4,0.2-0.8,0.4-1.4,0.4
			c-0.6-0.1-1.7-0.3-3.5-0.4c-1,0.2-1.9,0.7-2.7,1.4c-1,1.2-1.6,2.3-1.9,3.3c0.2,1.9,0.1,3.4-0.2,4.5c-0.1,0.7-0.5,1.3-1.1,1.8
			c-0.6,0.5-1,1.1-1.2,1.7c0,0.1,0,0.3,0,0.4h14.7c-0.5-1.6-0.5-3.2,0.1-4.7c0.9,0.6,1.5,1.3,1.6,2.2c0.1,0.7,0.5,1.5,1,2.5h2.4
			C334.7,482.7,334.4,481.6,334.2,480.2z"/>
	</g>
	<g>
		<rect x="255.3" y="217.1" opacity="0.5" fill="#184E63" enable-background="new    " width="4.1" height="266.4"/>
		<polygon opacity="0.5" fill="#0C2630" enable-background="new    " points="249,219.6 188.9,218.5 196.9,191.6 		"/>
		<polygon opacity="0.5" fill="#0C2630" enable-background="new    " points="249,219.6 306.8,218.5 302,191.6 		"/>
		<polygon fill="#247696" points="249,219.6 190.1,205.7 193.9,174.2 		"/>
		<polygon fill="#247696" points="249,219.6 308.9,205.7 305.1,174.2 		"/>
		<g>
			<circle opacity="0.5" fill="#2E2E2E" enable-background="new    " cx="250" cy="233.2" r="3.9"/>
			<circle fill="#EDEBEB" cx="250" cy="230" r="3.9"/>
		</g>
		<g>
			<circle opacity="0.5" fill="#2E2E2E" enable-background="new    " cx="250" cy="292.2" r="3.9"/>
			<circle fill="#EDEBEB" cx="250" cy="288.9" r="3.9"/>
		</g>
		<g>
			<circle opacity="0.5" fill="#2E2E2E" enable-background="new    " cx="250" cy="351.1" r="3.9"/>
			<circle fill="#EDEBEB" cx="250" cy="347.9" r="3.9"/>
		</g>
		<g>
			<circle opacity="0.5" fill="#2E2E2E" enable-background="new    " cx="250" cy="410.1" r="3.9"/>
			<circle fill="#EDEBEB" cx="250" cy="406.8" r="3.9"/>
		</g>
		<g>
			<circle opacity="0.5" fill="#2E2E2E" enable-background="new    " cx="250" cy="469" r="3.9"/>
			<circle fill="#EDEBEB" cx="250" cy="465.8" r="3.9"/>
		</g>
	</g>
</g>
</svg>
