<?xml version="1.0" encoding="utf-8"?>
<!-- Generator: Adobe Illustrator 14.0.0, SVG Export Plug-In . SVG Version: 6.00 Build 43363)  -->
<!DOCTYPE svg PUBLIC "-//W3C//DTD SVG 1.1//EN" "http://www.w3.org/Graphics/SVG/1.1/DTD/svg11.dtd">
<svg version="1.1" id="Layer_1" xmlns="http://www.w3.org/2000/svg" xmlns:xlink="http://www.w3.org/1999/xlink" x="0px" y="0px"
	 width="500px" height="500px" viewBox="0 0 500 500" enable-background="new 0 0 500 500" xml:space="preserve">
<rect x="0.5" y="0.5" display="none" fill="#FFFFFF" stroke="#000000" width="500" height="500"/>
<g>
	<path fill="#F7F7F7" d="M290.656,175.18c0.064,0.604,0.109,1.215,0.109,1.832c0,14.604-18.459,26.439-41.23,26.439
		s-41.232-11.838-41.232-26.439c0-0.617,0.045-1.228,0.109-1.832h-91.793V480.5h265.831V175.18H290.656z"/>
	<rect x="116.617" y="225.5" fill="#2F3975" width="265.832" height="6.624"/>
	<rect x="116.617" y="248.08" fill="#2F3975" width="265.832" height="6.624"/>
	<rect x="116.617" y="270.659" fill="#2F3975" width="265.832" height="6.624"/>
	<rect x="116.617" y="293.239" fill="#2F3975" width="265.832" height="6.624"/>
	<rect x="116.617" y="315.818" fill="#2F3975" width="265.832" height="6.624"/>
	<rect x="116.617" y="338.398" fill="#2F3975" width="265.832" height="6.624"/>
	<rect x="116.617" y="360.977" fill="#2F3975" width="265.832" height="6.624"/>
	<rect x="116.617" y="383.557" fill="#2F3975" width="265.832" height="6.624"/>
	<rect x="116.617" y="406.136" fill="#2F3975" width="265.832" height="6.623"/>
	<rect x="116.617" y="428.718" fill="#2F3975" width="265.832" height="6.624"/>
	<rect x="116.617" y="451.297" fill="#2F3975" width="265.832" height="6.624"/>
	<rect x="116.617" y="473.877" fill="#2F3975" width="265.832" height="6.623"/>
</g>
</svg>
