<?xml version="1.0" encoding="utf-8"?>
<!-- Generator: Adobe Illustrator 14.0.0, SVG Export Plug-In . SVG Version: 6.00 Build 43363)  -->
<!DOCTYPE svg PUBLIC "-//W3C//DTD SVG 1.1//EN" "http://www.w3.org/Graphics/SVG/1.1/DTD/svg11.dtd">
<svg version="1.1" id="content" xmlns="http://www.w3.org/2000/svg" xmlns:xlink="http://www.w3.org/1999/xlink" x="0px" y="0px"
	 width="500px" height="500px" viewBox="0 0 500 500" enable-background="new 0 0 500 500" xml:space="preserve">
<g id="bounds" display="none">
	<rect x="-0.517" y="80.388" fill="none" stroke="#EAEAEA" stroke-miterlimit="10" width="499.5" height="499.5"/>
</g>
<rect id="position" x="0.5" y="0.5" display="none" fill="none" stroke="#000000" width="499" height="499"/>
<g id="chooser">
	<g>
		<polygon fill="#282828" points="375.034,191.982 356.363,177.619 291.321,177.619 269.074,205.802 250.513,249.47 
			231.734,205.802 209.701,177.619 142.106,177.619 123.434,191.982 67.746,262.982 67.746,443.96 129.002,443.96 129.002,281.081 
			145.185,275.683 145.185,482.659 353.282,482.659 353.282,275.683 369.464,281.081 369.464,443.96 430.72,443.96 430.72,262.982 
					"/>
		<circle fill="#1C1C1C" cx="263.802" cy="259.466" r="2.215"/>
		<circle fill="#1C1C1C" cx="272.335" cy="237.865" r="2.215"/>
		<circle fill="#1C1C1C" cx="263.802" cy="285.923" r="2.215"/>
		<circle fill="#1C1C1C" cx="263.802" cy="312.378" r="2.215"/>
		<path fill="#1C1C1C" d="M263.802,336.618c-1.225,0-2.217,0.99-2.217,2.221c0,1.223,0.992,2.213,2.217,2.213
			c1.224,0,2.216-0.99,2.216-2.213C266.018,337.608,265.026,336.618,263.802,336.618z"/>
		<circle fill="#1C1C1C" cx="263.802" cy="365.289" r="2.215"/>
		<circle fill="#1C1C1C" cx="263.802" cy="391.745" r="2.215"/>
		<circle fill="#1C1C1C" cx="263.802" cy="418.201" r="2.215"/>
		<circle fill="#1C1C1C" cx="263.802" cy="444.657" r="2.215"/>
		<circle fill="#1C1C1C" cx="263.802" cy="469.507" r="2.215"/>
		<polygon fill="#1C1C1C" points="250.278,246.542 249.423,254.72 227.582,215.07 199.73,234.562 185.556,177.619 193.445,177.619 
			206.039,220.398 232.273,205.611 		"/>
		<polygon fill="#303030" points="232.273,205.611 203.007,225.136 189.904,177.619 209.704,177.619 		"/>
		<polygon fill="#1C1C1C" points="250.746,246.542 251.658,254.72 273.442,215.07 301.294,234.562 315.466,177.619 307.58,177.619 
			294.985,220.398 269.007,205.868 		"/>
		<polygon fill="#303030" points="269.074,205.802 297.8,225.136 310.906,177.619 291.105,177.619 		"/>
		<polygon fill="#1C1C1C" points="251.391,481.546 249.158,481.544 249.417,246.497 251.649,246.497 		"/>
		<circle fill="#1C1C1C" cx="79.977" cy="433.403" r="2.215"/>
		<circle fill="#1C1C1C" cx="381.968" cy="433.403" r="2.215"/>
	</g>
</g>
</svg>
