<?xml version="1.0" encoding="utf-8"?>
<!-- Generator: Adobe Illustrator 14.0.0, SVG Export Plug-In . SVG Version: 6.00 Build 43363)  -->
<!DOCTYPE svg PUBLIC "-//W3C//DTD SVG 1.1//EN" "http://www.w3.org/Graphics/SVG/1.1/DTD/svg11.dtd">
<svg version="1.1" id="content" xmlns="http://www.w3.org/2000/svg" xmlns:xlink="http://www.w3.org/1999/xlink" x="0px" y="0px"
	 width="500px" height="500px" viewBox="0 0 500 500" enable-background="new 0 0 500 500" xml:space="preserve">
<rect id="position" x="0.5" y="0.5" display="none" fill="none" stroke="#000000" width="499" height="499"/>
<g id="body">
	<polygon fill="#282828" points="290.303,175.502 268.057,203.691 249.495,247.359 230.716,203.691 208.684,175.502 
		116.524,175.502 116.524,480.548 382.327,480.548 382.327,175.502 	"/>
	<circle fill="#1C1C1C" cx="262.784" cy="257.354" r="2.215"/>
	<circle fill="#1C1C1C" cx="271.318" cy="235.753" r="2.215"/>
	<circle fill="#1C1C1C" cx="262.784" cy="283.811" r="2.215"/>
	<circle fill="#1C1C1C" cx="262.784" cy="310.266" r="2.215"/>
	<path fill="#1C1C1C" d="M262.784,334.507c-1.225,0-2.217,0.99-2.217,2.221c0,1.221,0.992,2.213,2.217,2.213
		c1.224,0,2.216-0.992,2.216-2.213C265,335.497,264.008,334.507,262.784,334.507z"/>
	<circle fill="#1C1C1C" cx="262.784" cy="363.178" r="2.215"/>
	<circle fill="#1C1C1C" cx="262.784" cy="389.634" r="2.215"/>
	<circle fill="#1C1C1C" cx="262.784" cy="416.09" r="2.215"/>
	<circle fill="#1C1C1C" cx="262.784" cy="442.546" r="2.215"/>
	<circle fill="#1C1C1C" cx="262.784" cy="467.395" r="2.215"/>
	<polygon fill="#232323" points="249.26,244.43 248.406,252.609 226.565,212.959 198.712,232.451 184.538,175.502 192.427,175.502 
		205.022,218.287 231.255,203.5 	"/>
	<polygon fill="#383838" points="231.255,203.5 201.99,223.025 188.886,175.502 208.687,175.502 	"/>
	<polygon fill="#232323" points="249.729,244.43 250.641,252.609 272.424,212.959 300.277,232.451 314.448,175.502 306.563,175.502 
		293.967,218.287 267.99,203.757 	"/>
	<polygon fill="#383838" points="268.057,203.691 296.782,223.025 309.888,175.502 290.087,175.502 	"/>
	<polygon fill="#232323" points="250.373,479.434 248.141,479.432 248.4,244.385 250.631,244.385 	"/>
</g>
</svg>
