<?xml version="1.0" encoding="utf-8"?>
<!-- Generator: Adobe Illustrator 14.0.0, SVG Export Plug-In . SVG Version: 6.00 Build 43363)  -->
<!DOCTYPE svg PUBLIC "-//W3C//DTD SVG 1.1//EN" "http://www.w3.org/Graphics/SVG/1.1/DTD/svg11.dtd">
<svg version="1.1" id="content" xmlns="http://www.w3.org/2000/svg" xmlns:xlink="http://www.w3.org/1999/xlink" x="0px" y="0px"
	 width="500px" height="500px" viewBox="0 0 500 500" enable-background="new 0 0 500 500" xml:space="preserve">
<g id="bounds">
	<rect x="-0.208" y="80.121" fill="none" stroke="#EAEAEA" stroke-miterlimit="10" width="499.499" height="499.5"/>
</g>
<rect id="position" x="0.5" y="0.5" display="none" fill="none" stroke="#000000" width="499" height="499"/>
<g id="chooser">
	<polygon fill="#F8B4B1" points="148.834,176.748 143.755,176.748 125.083,191.244 69.396,262.244 69.396,443.22 130.652,443.22 
		130.652,280.344 148.834,274.945 	"/>
	<polygon id="shirt_1_" fill="#2E2E6D" points="352.836,482.375 146.835,482.375 146.835,176.748 220.602,176.748 249.435,244.218 
		278.604,176.748 352.836,176.748 	"/>
	<polygon fill="#F8B4B1" points="350.834,176.748 355.911,176.748 374.584,191.244 430.271,262.244 430.271,443.22 369.016,443.22 
		369.016,280.344 350.834,274.945 	"/>
	<path fill="#3D3D7F" d="M352.834,176.748h-74.232l-29.167,67.471l-28.833-67.471h-73.767v112.239
		c28.29,9.636,63.707,15.37,102.157,15.37c39.218,0,75.28-5.964,103.844-15.95V176.748H352.834z"/>
	<path fill="#F6921E" d="M298.557,176.748h0.545l-8.619,92.338c-0.541,4.088-3.41,7.084-7.471,7.084h-68.034
		c-4.066,0-6.936-2.993-7.49-7.114l-8.612-92.308h0.543h-3.436l8.708,92.565c0.585,5.117,4.537,9.479,10.286,9.479h68.033
		c5.742,0,9.695-4.358,10.27-9.446L302,176.748H298.557L298.557,176.748z"/>
	<path fill="#FFF100" d="M257.756,319.813h-6.958V309.51h5.637h0.666v-0.622v-9.065v-0.619h-0.666h-5.637v-10.301h6.958
		c7.926,0,14.365,6.009,14.365,13.396v4.106C272.123,313.802,265.682,319.813,257.756,319.813L257.756,319.813z M246.982,319.813
		h-6.893c-7.923,0-14.368-6.016-14.368-13.404v-4.105c0-7.392,6.445-13.396,14.368-13.396h6.893v10.301h-5.576h-0.663v0.619v9.067
		v0.62h0.663h5.576V319.813L246.982,319.813z"/>
	<path fill="#F6921E" d="M257.823,288.28c8.304,0,15.033,6.275,15.033,14.021v4.109c0,7.744-6.729,14.021-15.033,14.021h-7.621
		v-11.543h6.299v-9.064h-6.299V288.28H257.823 M247.717,288.28v11.543h-6.241v9.064h6.241v11.547h-7.561
		c-8.303,0-15.032-6.277-15.032-14.021v-4.109c0-7.741,6.729-14.021,15.032-14.021L247.717,288.28 M257.823,289.518h-6.293v9.066
		h6.3v11.537h-6.3v9.07h6.294c7.563,0,13.706-5.736,13.706-12.784v-4.11C271.531,295.254,265.385,289.518,257.823,289.518
		L257.823,289.518z M246.391,289.518h-6.232c-7.56,0-13.706,5.732-13.706,12.782v4.109c0,7.048,6.146,12.784,13.706,12.784h6.232
		v-9.07h-6.241v-11.536h6.241V289.518L246.391,289.518z"/>
	<polygon fill="#F8B4B1" points="267.615,176.748 248.541,214.334 230.233,176.748 211.26,176.748 211.26,259.312 286.729,259.312 
		286.729,176.748 	"/>
	<path fill="#90278E" d="M275.303,176.748l-9.004,69.201c-0.313,2.563-2.213,4.609-4.938,4.609h-24.764
		c-2.729,0-4.63-2.047-4.944-4.609l-8.761-69.201h-25.349h-0.107l8.662,92.231c0.566,4.604,3.978,8.276,8.882,8.276h68.033
		c4.904,0,8.316-3.674,8.877-8.276l8.668-92.231h-0.107H275.303z"/>
	<polygon fill="#E6E7E8" points="262.059,176.748 248.992,207.648 235.928,176.748 222.795,176.748 242.423,223.225 
		241.729,224.871 248.276,240.239 275.168,176.748 	"/>
	<polygon fill="#E6E7E8" points="275.037,176.748 266.328,246.053 278.504,253.822 287.805,176.748 	"/>
	<polygon fill="#E6E7E8" points="210.195,176.748 219.495,253.822 231.671,246.053 222.96,176.748 	"/>
	<rect x="247.703" y="250.663" fill="#171643" width="2.438" height="230.762"/>
</g>
</svg>
