<?xml version="1.0" encoding="utf-8"?>
<!-- Generator: Adobe Illustrator 14.0.0, SVG Export Plug-In . SVG Version: 6.00 Build 43363)  -->
<!DOCTYPE svg PUBLIC "-//W3C//DTD SVG 1.1//EN" "http://www.w3.org/Graphics/SVG/1.1/DTD/svg11.dtd">
<svg version="1.1" id="content" xmlns="http://www.w3.org/2000/svg" xmlns:xlink="http://www.w3.org/1999/xlink" x="0px" y="0px"
	 width="500px" height="500px" viewBox="0 0 500 500" enable-background="new 0 0 500 500" xml:space="preserve">
<rect id="position" x="0.5" y="0.5" display="none" fill="none" stroke="#000000" width="499" height="499"/>
<g id="arm">
	<path fill="#D3F261" d="M127.819,290.5v-90.388c0-14.245-11.547-25.792-25.791-25.792c-14.243,0-25.792,11.547-25.792,25.792V290.5
		H127.819z"/>
	<rect x="76.236" y="274.959" fill="#2F1A59" width="51.583" height="15.541"/>
	<rect x="76.236" y="212.795" fill="#2F1A59" width="51.583" height="15.541"/>
	<path fill="#FFFFFF" d="M83.959,181.713h36.137c-4.653-4.569-11.03-7.393-18.068-7.393S88.613,177.142,83.959,181.713z"/>
	<path fill="#CC1717" d="M76.397,197.254h51.263c-0.67-6.062-3.438-11.487-7.563-15.541H83.959
		C79.833,185.765,77.066,191.192,76.397,197.254z"/>
	<rect x="76.236" y="243.877" fill="#CC1717" width="51.583" height="15.541"/>
	<rect x="76.236" y="228.336" fill="#FFFFFF" width="51.583" height="15.541"/>
</g>
</svg>
