<?xml version="1.0" encoding="utf-8"?>
<!-- Generator: Adobe Illustrator 14.0.0, SVG Export Plug-In . SVG Version: 6.00 Build 43363)  -->
<!DOCTYPE svg PUBLIC "-//W3C//DTD SVG 1.1//EN" "http://www.w3.org/Graphics/SVG/1.1/DTD/svg11.dtd">
<svg version="1.1" id="content" xmlns="http://www.w3.org/2000/svg" xmlns:xlink="http://www.w3.org/1999/xlink" x="0px" y="0px"
	 width="500px" height="500px" viewBox="0 0 500 500" enable-background="new 0 0 500 500" xml:space="preserve">
<rect id="position" x="0.5" y="0.5" display="none" fill="none" stroke="#000000" width="499" height="499"/>
<g id="body">
	<polygon fill="#D3F261" points="272.052,175.365 250.267,228.472 228.278,175.365 203.435,175.365 203.435,256.003 
		295.677,256.003 295.677,175.365 	"/>
	<polygon fill="#9ACD6C" points="282.978,175.365 255.181,247.638 235.681,247.638 239.802,236.897 216.135,175.365 
		213.997,175.365 237.662,236.897 233.812,246.918 232.761,249.638 256.552,249.638 257.043,248.357 285.117,175.365 	"/>
	<polygon fill="#D1D3D4" points="263.475,175.365 249.552,211.558 235.634,175.365 216.135,175.365 239.802,236.897 
		235.681,247.638 255.181,247.638 282.978,175.365 	"/>
	<path fill="#CC1717" d="M289.689,175.365c-4.04,22.266-8.914,49.1-10.512,57.772c-2.334,12.667-9.334,14.667-29.621,14.667
		s-27.287-2-29.621-14.667c-1.598-8.675-6.472-35.509-10.512-57.772H116.63v305.01h265.852v-305.01H289.689z"/>
	<path fill="#A0000C" d="M307.802,175.365c-5.425,29.886-10.938,60.215-12.998,71.396c-1.857,9.778-5.166,14.855-11.891,17.965
		c-6.777,3.108-17.408,3.955-33.359,3.938c-15.951,0.017-26.582-0.83-33.359-3.938c-6.721-3.107-10.031-8.187-11.891-17.965
		c-2.059-11.183-7.573-41.513-12.999-71.396h-3.049c5.457,30.061,11.023,60.687,13.099,71.938
		c1.826,10.197,5.875,16.688,13.6,20.151c7.66,3.464,18.555,4.197,34.602,4.21c16.049-0.013,26.938-0.746,34.603-4.21
		c7.724-3.464,11.771-9.954,13.599-20.151c2.071-11.253,7.642-41.882,13.099-71.938H307.802z"/>
	<path fill="#A0000C" d="M288.164,175.365c-0.371,2.042-0.748,4.12-1.129,6.221c-3.766,20.738-7.891,43.439-9.332,51.279
		c-1.184,6.125-3.148,9.084-7.229,10.99c-4.133,1.907-10.826,2.464-20.922,2.448c-10.094,0.016-16.789-0.541-20.922-2.448
		c-4.076-1.906-6.041-4.865-7.223-10.99c-1.445-7.84-5.57-30.541-9.335-51.279c-0.383-2.104-0.76-4.181-1.131-6.221h-3.072
		c4.067,22.362,8.983,49.354,10.587,58.043c1.15,6.543,3.854,10.915,8.932,13.178c5.021,2.26,11.973,2.705,22.164,2.72
		c10.193-0.015,17.143-0.46,22.164-2.72c5.078-2.263,7.779-6.635,8.934-13.178c1.602-8.685,6.494-35.673,10.547-58.043H288.164z"/>
	<path fill="#A0000C" d="M233.441,480.375V269.638c-0.941-0.196-3.168-0.754-3.168-0.754v211.49H233.441L233.441,480.375z"/>
	<circle fill="#A0000C" cx="232.182" cy="253.2" r="4.958"/>
	<circle fill="#CC1717" cx="232.183" cy="253.2" r="3.084"/>
	<circle fill="#A0000C" cx="232.182" cy="263.013" r="4.958"/>
	<circle fill="#CC1717" cx="232.183" cy="263.013" r="3.084"/>
	<circle fill="#E24242" cx="231.059" cy="251.889" r="1.333"/>
	<circle fill="#E24242" cx="231.059" cy="261.972" r="1.333"/>
	<rect x="116.631" y="306.041" fill="#2F1A59" width="265.852" height="31.5"/>
	<path fill="#4B368E" d="M267.556,333.832c0,3.131-2.537,5.669-5.668,5.669h-24.662c-3.131,0-5.67-2.538-5.67-5.669V309.17
		c0-3.131,2.539-5.669,5.67-5.669h24.662c3.131,0,5.668,2.538,5.668,5.669V333.832z"/>
	<path fill="#2F1A59" d="M237.226,341c-3.961,0-7.17-3.209-7.172-7.168l0,0v-24.661c0.002-3.961,3.211-7.17,7.172-7.172l0,0h24.662
		c3.957,0.002,7.166,3.211,7.168,7.172l0,0v24.661c-0.002,3.959-3.211,7.168-7.168,7.168l0,0H237.226L237.226,341z M233.056,309.171
		v24.661c0.004,2.305,1.865,4.164,4.17,4.168l0,0h24.662c2.301-0.004,4.162-1.863,4.168-4.168l0,0v-24.661
		c-0.006-2.305-1.867-4.166-4.168-4.17l0,0h-24.662C234.922,305.005,233.06,306.866,233.056,309.171L233.056,309.171z"/>
</g>
</svg>
