<?xml version="1.0" encoding="utf-8"?>
<!-- Generator: Adobe Illustrator 14.0.0, SVG Export Plug-In . SVG Version: 6.00 Build 43363)  -->
<!DOCTYPE svg PUBLIC "-//W3C//DTD SVG 1.1//EN" "http://www.w3.org/Graphics/SVG/1.1/DTD/svg11.dtd">
<svg version="1.1" id="content" xmlns="http://www.w3.org/2000/svg" xmlns:xlink="http://www.w3.org/1999/xlink" x="0px" y="0px"
	 width="500px" height="500px" viewBox="0 0 500 500" enable-background="new 0 0 500 500" xml:space="preserve">
<rect id="position" x="0.5" y="0.5" display="none" fill="none" stroke="#000000" width="499" height="499"/>
<g id="body">
	<polygon id="shirt_8_" fill="#C92435" points="146.834,175.365 236.667,175.365 250.333,202.073 264.167,175.365 352.834,175.365 
		352.834,480.375 146.834,480.375 	"/>
	<rect id="shirt_7_" x="116.631" y="175.365" fill="#B52338" width="67.646" height="305.01"/>
	<rect id="shirt_6_" x="315.389" y="175.365" fill="#B52338" width="67.094" height="305.01"/>
	<path fill="#FFF100" d="M199.302,290.464c2.406,7.214,11.688,7.794,11.688,7.794s5.042-0.93,0.115-3.145
		c-9.098-4.079-7.08-15.021-7.102-15.021c0,0,0,0.003-0.003,0.013c-0.005,0.021-0.01,0.028-0.017,0.028
		c-0.036,0-0.042-0.89-0.254-1.778c-0.209-0.895-0.625-1.782-1.484-1.785c-0.313,0-0.676,0.119-1.111,0.394
		c-1.207,0.753-2.516,1.031-3.792,1.031c-2.203,0-4.313-0.833-5.65-1.501c-0.006,0.416-0.028,0.828-0.028,1.238
		c0,1.146,0.039,2.274,0.101,3.399C193.92,282.508,197.644,285.49,199.302,290.464z"/>
	<path fill="#FFF100" d="M214.198,265.904c-0.5,1.184,2.063,3.029,2.75,5.356c0.688,2.323-0.461,4.068,0.688,4.886
		c0.135,0.1,0.328,0.145,0.562,0.145c1.727,0,5.801-2.499,7.92-5.268c2.407-3.143-3.782-5.354-3.782-5.354s-2.74-1.641-5.117-1.641
		C215.957,264.031,214.795,264.494,214.198,265.904z"/>
	<path fill="#FFF100" d="M195.254,269.438c0.15-0.699,3.744-3.492,5.348-4.191c1.604-0.696,1.375-3.956-1.375-5.193
		c-1.039-0.469-2.149-2.581-3.134-5.032c-1.87,4.592-3.18,9.473-3.869,14.554c0.508,0.347,1.045,0.473,1.528,0.473
		C194.556,270.043,195.197,269.689,195.254,269.438z"/>
	<path fill="#FFF100" d="M228.637,267.533c0.406,0.501,1.073,0.717,1.771,0.717c1.085,0,2.238-0.518,2.588-1.298
		c0.568-1.281-1.146-1.862-4.125-3.377c-2.875-1.458-5.958-5.837-7.719-5.837c-0.063,0-0.131,0.01-0.19,0.021
		c-1.358,0.273-2.29,4.071-0.229,5.118C222.796,263.927,227.606,266.254,228.637,267.533z"/>
	<path fill="#FFF100" d="M233.985,238.014c0.835,1.417,2.06,1.992,2.891,1.992c0.986,0,1.426-0.815,0.015-1.992
		c-2.596-2.172-1.221-11.481,1.835-11.793c3.055-0.312,1.375-2.326,1.375-2.326c-1.381-1.845-2.888-3.073-4.433-3.865
		c-4.351,1.14-8.497,2.782-12.395,4.846c1.076,0.171,2.396,0.288,3.837,0.568C231.082,226.22,232.152,234.911,233.985,238.014z"/>
	<path fill="#FFF100" d="M275.549,225.443c5.043,1.864,8.1,7.448,9.168,10.397c0.813,2.242,0.479,8.077,2.018,8.077
		c0.488,0,1.154-0.575,2.107-2.025c1.455-2.223,1.943-4.834,1.979-7.257c-6.658-6.452-14.807-11.331-23.872-14.042
		C268.504,225.391,270.938,223.742,275.549,225.443z"/>
	<path fill="#FFF100" d="M293.424,245.151c0.633,0.321,7.727,5.214,12.123,12.393c-2.74-7.728-7.015-14.7-12.439-20.569
		c-0.428,2.612-1.096,4.975-2.129,5.854C288.229,245.151,292.508,244.684,293.424,245.151z"/>
	<path fill="#FFF100" d="M203.656,260.591c1.226,1.831,2.508,2.162,4.313,2.162c0.511,0,1.066-0.025,1.674-0.058
		c0.61-0.021,1.273-0.053,1.999-0.053h0.251c6.811,0,6.088-3.969,5.744-6.398c-0.125-0.895-0.708-1.184-1.448-1.184
		c-1.289,0-3.053,0.875-3.708,0.945c-0.314,0.037-0.683,0.112-1.033,0.112c-0.796,0-1.495-0.406-1.259-2.672
		c0.346-3.257,0.688-2.678-2.177-9.191c-2.863-6.52,6.534-7.801,6.534-7.801c-0.34-1.822,1.191-4.105,1.792-7.271
		c-8.054,5.829-14.605,13.66-18.922,22.792c0.133,0.987,0.334,1.885,0.624,2.639C200.217,260.203,201.708,257.68,203.656,260.591z"
		/>
	<path fill="#FFF100" d="M209.5,300.471c0,0-1.033,0.646-2.571,0.646c-2.087,0-5.104-1.191-7.743-6.815
		c-2.816-6.011-5.374-7.708-6.926-8.123c1.257,9.006,4.492,17.363,9.256,24.605c0.477,0.024,0.933,0.038,1.359,0.038
		c1.168,0,2.134-0.1,2.729-0.346C208.698,309.197,209.5,300.471,209.5,300.471z"/>
	<path fill="#FFF100" d="M229.632,240.886c0,0,0.841,4.109,1.755,6.438c0.828,2.1,3.021,4.112,6.904,4.112
		c0.429,0,0.878-0.022,1.347-0.076c2.827-0.308,2.827-6.521,0.917-7.604c-4.539-2.58-7.576-3.092-9.277-3.092
		C230.167,240.663,229.632,240.886,229.632,240.886z"/>
	<path fill="#FFF100" d="M223.902,237.469c2.7,0,4.893-2.224,4.893-4.966s-2.191-4.961-4.893-4.961c-2.697,0-4.888,2.22-4.888,4.961
		C219.014,235.247,221.204,237.469,223.902,237.469z"/>
	<path fill="#FFF100" d="M267.227,272.623c-0.125,0-0.258,0.021-0.388,0.068c-1.069,0.389-4.661,3.262-4.966,4.58
		c-0.307,1.315,0.918,5.117,6.109,5.896c0,0-0.838-5.437,0.076-7.523C268.865,273.805,268.141,272.623,267.227,272.623z"/>
	<path fill="#FFF100" d="M265.58,267.732c-0.28,0-0.646,0.063-1.109,0.229c-3.852,1.333-7.813,1.484-9.42,1.484
		c-0.473,0-0.74-0.014-0.74-0.014s2.864,5.67,5.209,5.67c0.043,0,0.094,0,0.141-0.009c2.367-0.229,6.417-5.118,6.417-5.118
		S267.182,267.732,265.58,267.732z"/>
	<path fill="#FFF100" d="M297.777,312.783c1.27-1.766,2.438-3.604,3.506-5.506c-1.566,1.262-3.021,2.439-3.885,3.043
		C297.396,310.324,297.482,311.5,297.777,312.783z"/>
	<path fill="#FFF100" d="M230.069,293.52c0.489-0.059,0.942-0.113,1.364-0.113c0.145,0,0.282,0.011,0.415,0.021
		c1.991,0.226,4.357,4.791,8.748,4.791c0.155,0,0.316-0.006,0.477-0.021c4.699-0.351,8.883-4.188,8.883-4.188
		c-2.063-1.05-8.883-11.23-12.262-11.292h-0.021c-1.729,0-5.036,3.563-8.69,6.345c-2.198,1.676-3.864,2.014-4.846,2.014
		c-0.653,0-1-0.147-1-0.147c1.987,2.242,3.803,2.702,5.376,2.702C229.061,293.63,229.581,293.575,230.069,293.52z"/>
	<path fill="#FFF100" d="M307.773,288.581c-1.262,0-4.715,5.707-6.365,7.002c-2.061,1.61-11.036,3.723-10.73,5.896
		c0.305,2.172,3.67,3.565,3.209,6.359c0,0,6.518-1.425,10.819-7.702c1.468-3.653,2.575-7.487,3.306-11.468
		C307.939,288.609,307.861,288.581,307.773,288.581z"/>
	<path fill="#FFF100" d="M222.908,318.855c-0.11-0.035-0.223-0.049-0.333-0.049c-1.888,0-4.167,4.365-6.655,4.59
		c-0.141,0.013-0.274,0.021-0.403,0.021c-2.345,0-3.358-1.974-5.1-5.724c-1.483-3.205-4.247-3.508-5.244-3.508
		c-0.234,0-0.37,0.015-0.37,0.015s0.15,0.608,0.396,1.603c4.912,6.003,10.972,11,17.825,14.671c0.932-0.574,1.629-1.188,1.948-1.841
		C226.689,325.143,224.857,319.439,222.908,318.855z"/>
	<path fill="#FFF100" d="M237.349,312.415c-2.998-2.642-5.957-6.263-8.808-6.263c-0.999,0-1.987,0.443-2.958,1.531
		c0,0,3.131,2.174,3.055,6.674c-0.076,4.498-2.214,7.99,0.918,10.703c2.515,2.185,3.899,3.114,5.649,3.114
		c0.429,0,0.881-0.061,1.378-0.165c2.521-0.541,3.438-0.777,3.819-1.705c0.383-0.935-2.365-4.5-1.146-5.666
		c1.224-1.164,6.495-0.464,6.799-2.869C246.361,315.363,241.397,315.986,237.349,312.415z"/>
	<path fill="#FFF100" d="M249.531,327.396c0.09,0,0.183-0.006,0.271-0.008c3.135-0.074,3.516-3.104,5.958-3.955
		c2.444-0.854,6.188-2.711,6.881-5.194c0.688-2.483,0.457-8.615-2.369-9.08c-0.067-0.015-0.142-0.019-0.213-0.019
		c-2.844,0-7.248,8.744-9.106,10.334c-1.91,1.629-5.427,2.406-9.095,2.635C241.855,322.113,243.268,327.396,249.531,327.396z"/>
	<path fill="#FFF100" d="M279.598,322.113c-1.229-1.116-2.203-1.475-3.049-1.475c-0.77,0-1.428,0.295-2.093,0.588
		c-0.663,0.299-1.321,0.592-2.079,0.592c-0.087,0-0.18-0.002-0.27-0.014c-2.52-0.232-3.207-2.402-5.651-2.64
		c-0.045-0.005-0.09-0.007-0.133-0.007c-2.372,0-3.974,5.983-6.819,6.137c-2.904,0.153-6.188,2.868-6.876,6.438
		c-0.325,1.688-0.532,3.791-0.655,5.541c13.451-0.375,25.772-5.33,35.492-13.408c-0.607,0.053-1.229,0.083-1.854,0.083
		C283.391,323.952,281.161,323.535,279.598,322.113z"/>
	<path fill="#FFF100" d="M292.661,310.867c-0.25-0.126-0.578-0.172-0.945-0.172c-0.442,0-0.94,0.062-1.424,0.127
		c-0.485,0.064-0.961,0.128-1.358,0.128c-0.697,0-1.154-0.196-1.01-0.938c0.383-1.939,1.376-1.939,2.369-2.173
		c0.993-0.232,0.995-1.938,0.46-2.401c-0.265-0.229-0.935-0.478-1.667-0.478c-0.77,0-1.607,0.263-2.15,1.097
		c-0.992,1.514-1.197,3.762-2.509,3.762c-0.1,0-0.206-0.012-0.319-0.039c-1.604-0.387,0.383-2.869,0-3.646
		c-0.162-0.328-0.461-0.488-0.916-0.488c-0.614,0-1.521,0.299-2.75,0.875c-2.141,1.01,0.688,5.588,0.688,5.588l0.094,0.207
		c-1.475,0.158-3.05,0.291-4.359,0.291c-1.508,0-2.661-0.172-2.909-0.654c-0.845-1.626,3.28-3.023,3.97-6.594
		c0.438-2.264,0.35-3.892,0.229-4.791c4.402-0.487,9.404-1.826,15.203-4.599c2.721-1.301,12.244-6.729,13.676-17.085
		c0.988-7.142-1.479-16.529-5.955-22.9c-5.323-7.575-12.199-9.136-16.229-9.136c-1.521,0-2.638,0.225-3.105,0.429
		c4.662-4.488-1.145-10.033-0.266-13.063c-1.264,0.699-1.871,3.337-2.521,4.538c-1.146,2.128-2.746,3.357-4.896,4.353
		c-2.438,1.118-3.24,1.507-7.174,2.438c-2.089,0.493-3.095,3.065-2.292,4.188c-0.817,0.267-1.541,0.382-2.153,0.382
		c-2.998,0-3.457-2.783,0.476-5.036c3.771-2.163,7.743-3.571,10.942-6.691c1.443-1.41,2.808-4.309,2.063-6.865
		c-0.584-2.02-3.229-3.919-5.103-4.539c-1.09-0.361-2.305-0.484-3.563-0.484c-0.501,0-1.019,0.021-1.528,0.053
		c-0.048-2.001-0.77-4.602-3.767-6.374c-1.624-0.961-3.25-1.207-4.794-1.207c-0.809,0-1.588,0.063-2.346,0.131
		c-0.75,0.069-1.467,0.133-2.145,0.133c-1.222,0-2.303-0.219-3.177-1.054c-1.753,0.024-3.49,0.115-5.201,0.294
		c0.864,1.613,2.129,3.186,3.905,3.718c4.128,1.242,5.652,2.021,6.725,4.192c0.047,0.095,0.114,0.188,0.193,0.279
		c-2.191-0.344-4.167-0.792-5.772-0.792c-0.548,0-1.054,0.053-1.511,0.182c-1.563,0.431-2.484,2.082-2.808,3.55
		c-1.062-0.883-2.033-1.256-2.879-1.256c-1.933,0-3.188,1.948-3.313,4.167c-0.307,5.474,4.114,6.927,8.462,6.927
		c0.766,0,1.524-0.042,2.26-0.121l0.284,1.69c-3.424,3.237-7.073,8.073-6.931,13.32c0,0-0.574,0.05-1.503,0.05
		c-3.098,0-10.127-0.52-12.995-4.992c-0.859-1.343-0.626-2.289-2.3-2.88c-0.254-0.093-0.521-0.113-0.782-0.113
		c-0.112,0-0.224,0.006-0.33,0.011c-0.107,0.003-0.209,0.005-0.305,0.005c-0.518,0-0.845-0.114-0.618-0.979
		c0.82-3.146,3.357-3.453,3.419-5.609c0.015-0.573-0.494-0.813-1.104-0.813c-0.416,0-0.877,0.108-1.249,0.311
		c-1.558,0.838-2.412,4.961-3.335,4.961c-0.017,0-0.034-0.003-0.05-0.003c-0.556-0.091-1.294-1.081-1.582-1.524
		c-0.477-0.735-1.161-1.601-0.936-2.754c0.26-1.346-0.546-1.839-1.245-1.839c-0.221,0-0.429,0.046-0.592,0.132
		c-1.907,1.011-0.648,5.2,0.573,7.257c-0.458,0.063-0.82,0.1-1.127,0.1c-1.011,0-1.38-0.369-2.464-1.146
		c-1.188-0.855-1.553-2.445-2.248-2.445c-0.063,0-0.127,0.014-0.196,0.041c-3.648,1.443,0.805,6.438,3.792,7.3
		c-2.146,0.247-4.288,3.056-3.639,3.952c0.301,0.412,0.624,0.572,0.983,0.572c0.85,0,1.903-0.896,3.407-1.468
		c0.478-0.182,0.945-0.264,1.403-0.264c2.877,0,5.362,3.252,7.31,5.521c3.386,3.941,8.444,6.5,13.958,6.5
		c2.697,0,5.507-0.61,8.277-1.979c0.04,3.613,2.667,4.748,5.957,4.748c5.57,0,13.037-3.264,13.037-3.264
		c0.715,2.547,4.146,3.428,5.184,3.941c2.349,1.164,2.497,4.51,1.031,6.054c-1.439,1.521-2.813,3.665-2.121,5.876
		c0.56,1.777,2.144,2.477,3.8,2.477c0.396,0,0.799-0.041,1.187-0.115c0.711-0.131,1.34-0.471,1.851-0.983
		c-0.688,1.036-0.919,2.317-0.341,3.43c0.951,1.83,2.127,1.89,2.266,1.89c0.006,0,0.012,0,0.012,0
		c-0.115-0.872,0.137-1.668,0.592-2.325c0.867-1.242,3.017-1.502,4.334-2.149c2.36-1.166,5.388-2.959,5.787-5.763
		c0.573-4.016-2.339-5.188-3.83-8.008c1.479-0.186,1.949-2.251,1.965-3.488c0.854,2.65,4.203,3.757,5.244,6.378
		c1.258,3.147,1.265,7.444-1.432,10.707c-3.587,4.336-9.964,6.367-16.26,6.367c-2.671,0-5.323-0.361-7.748-1.074
		c-9.88-2.896-15.839-19.963-25.787-20.503c-0.241-0.014-0.48-0.02-0.718-0.02c-5.346,0-9.881,3.218-13.849,6.438
		c-3.97,3.219-7.373,6.436-10.45,6.436c-0.22,0-0.438-0.018-0.654-0.053c-1.866-0.291-2.215-8.531-4.125-10.781
		c-0.994-1.174-2.727-1.771-4.407-1.771c-1.094,0-2.164,0.251-3.002,0.761c-1.112,0.676-4.59,3.692-5.576,3.877
		c-0.314,0.062-0.662,0.074-1.012,0.074c-0.143,0-0.285-0.004-0.427-0.006c-0.141,0-0.282-0.006-0.419-0.006
		c-1.074,0-1.983,0.132-1.889,1.414c0.09,1.171,1.342,1.491,2.949,1.491c0.982,0,2.095-0.12,3.154-0.239
		c1.061-0.12,2.066-0.24,2.839-0.24c0.551,0,0.979,0.063,1.22,0.229c2.138,1.472-0.917,11.25,6.876,15.517
		c1.063,0.581,2.188,0.837,3.349,0.837c8.101,0,17.991-12.418,21.901-12.568c0.106-0.004,0.218-0.004,0.322-0.004
		c4.464,0,6.359,3.688,8.275,6.297c2.795,3.795,5.772,7.229,9.639,10.068c-2.408,2.145-8.885,7.344-15.036,7.344
		c-0.239,0-0.479-0.011-0.716-0.024c-7.756-0.533-7.943-4.974-12.205-4.974c-0.105,0-0.216,0.002-0.325,0.009
		c-4.232,0.217-9.046,3.809-11.808,9.489c-0.601-0.613-2.076-2.006-3.115-2.006c-0.099,0-0.188,0.014-0.28,0.037
		c-1.299,0.393-2.596,1.785-2.141,2.482c0.458,0.698,3.744,0.155,3.438,2.021c-0.309,1.859-4.511,1.938-4.511,3.721
		c0,1.787,1.146,2.484,2.142,2.484c0.994,0-0.229,5.041,1.833,5.434c0.095,0.02,0.182,0.023,0.261,0.023
		c1.72,0,0.873-3.777,2.186-4.369c0.13-0.063,0.246-0.088,0.354-0.088c1.015,0,1.077,2.441,3.083,2.725
		c0.236,0.033,0.442,0.05,0.622,0.05c1.499,0,1.118-1.069,0.983-1.835c-0.152-0.852-2.674-3.178-2.143-4.109
		c0.162-0.278,0.453-0.379,0.83-0.379c0.883,0,2.241,0.531,3.523,0.531c1.835,0,1.835-3.489,0.229-4.188
		c-1.108-0.485-2.695-1.004-3.565-1.281c1.804-2.051,4.995-5.107,7.992-5.107c0.31,0,0.618,0.033,0.923,0.104
		c4.738,1.088,8.327,10.397,16.657,10.397c5.191,0,12.941-5.313,18.038-9.313c0.13,3.154,1.022,10.533,6.483,13.496
		c1.097,0.597,3.201,0.797,5.523,0.797c2.73,0,5.766-0.275,7.796-0.504c0.093,2.049-0.723,3.438,1.729,3.438
		c2.599,0,1.451-3.414,3.285-3.803c0.097-0.021,0.189-0.031,0.281-0.031c0.701,0,1.239,0.566,1.747,1.133
		c0.511,0.563,0.989,1.128,1.56,1.128c0.193,0,0.396-0.064,0.613-0.21c1.606-1.09-1.758-4.034-1.301-4.271
		c0.055-0.021,0.124-0.035,0.207-0.035c0.236,0,0.583,0.091,0.955,0.185c0.374,0.092,0.771,0.182,1.117,0.182
		c0.247,0,0.464-0.049,0.625-0.174C294.723,314.126,294.038,311.566,292.661,310.867z M248.234,231.224
		c-0.82,0-1.486-0.678-1.486-1.515c0-0.833,0.666-1.513,1.486-1.513c0.824,0,1.491,0.681,1.491,1.513
		C249.725,230.548,249.058,231.224,248.234,231.224z M252.587,232.852c-0.821,0-1.487-0.677-1.487-1.51
		c0-0.834,0.666-1.513,1.487-1.513c0.824,0,1.492,0.679,1.492,1.513S253.414,232.852,252.587,232.852z"/>
	<path fill="#FFF100" d="M244.834,329.486c-0.118-0.016-0.237-0.021-0.359-0.021c-1.271,0-2.787,0.724-4.396,1.443
		c-1.609,0.723-3.315,1.443-4.977,1.443h-0.125c-3.515-0.078-6.875-4.27-6.875-4.27c-0.785,0.028-1.559,1.75-2.208,3.813
		c7.333,3.42,15.473,5.354,24.053,5.41c0.097-0.322,0.182-0.632,0.232-0.923C250.871,332.747,247.432,329.797,244.834,329.486z"/>
	<polygon fill="#E6E7E8" points="260.986,175.365 250.365,196.179 239.744,175.365 222.899,175.365 243.265,215.342 
		257.468,215.342 277.833,175.365 	"/>
</g>
</svg>
