<?xml version="1.0" encoding="utf-8"?>
<!-- Generator: Adobe Illustrator 18.0.0, SVG Export Plug-In . SVG Version: 6.00 Build 0)  -->
<!DOCTYPE svg PUBLIC "-//W3C//DTD SVG 1.1//EN" "http://www.w3.org/Graphics/SVG/1.1/DTD/svg11.dtd">
<svg version="1.1" id="content" xmlns="http://www.w3.org/2000/svg" xmlns:xlink="http://www.w3.org/1999/xlink" x="0px" y="0px"
	 width="500px" height="500px" viewBox="0 0 500 500" enable-background="new 0 0 500 500" xml:space="preserve">
<g id="bounds" display="none">
	<rect x="-0.7" y="88" display="inline" fill="none" stroke="#EAEAEA" stroke-miterlimit="10" width="499.5" height="499.5"/>
</g>
<rect id="position" x="0.5" y="0.5" display="none" fill="none" stroke="#000000" width="499" height="499"/>
<g id="chooser">
	<rect x="69.6" y="423" fill="#F8B9D3" width="61.3" height="13.3"/>
	<rect x="367.3" y="423" fill="#F8B9D3" width="61.3" height="13.3"/>
	<polygon fill="#FDE6EA" points="372.8,184.3 354.1,169.5 353.7,169.5 308.4,169.5 274.2,199.5 250.2,268.1 227.5,199.5 
		198.2,169.5 144,169.5 125.3,183.6 69.6,254.6 69.6,435.6 130.9,435.6 130.9,272.7 146.9,267.4 146.9,505.5 353.7,506.1 
		353.7,268.9 367.3,273.4 367.3,436.3 428.5,436.3 428.5,255.3 	"/>
	<polygon fill="#FACDDB" points="244.1,276.7 221.8,200.7 188.4,169.5 207.2,169.5 233.1,193.8 257.6,276.7 	"/>
	<polygon fill="#FACDDB" points="257.8,277.4 280.1,201.4 313.5,169.5 294.7,169.5 268.8,194.4 244.3,277.3 	"/>
	<rect x="157.9" y="287.5" fill="#FACDDB" width="63" height="12"/>
	<rect x="279.2" y="287.5" fill="#FACDDB" width="63" height="12"/>
	<path fill="#F06852" d="M194.1,223.3c-2.7,2.7-2.7,7.1,0,9.9c1.7,1.7,4.2,2.4,6.4,1.9c-0.5,2.2,0.1,4.7,1.9,6.4
		c2.7,2.7,7.1,2.7,9.9,0c1.7-1.7,2.4-4.2,1.9-6.4c2.2,0.5,4.7-0.1,6.4-1.9c2.7-2.7,2.7-7.1,0-9.9c-1.8-1.7-4.2-2.4-6.4-1.9
		c0.5-2.2-0.1-4.7-1.9-6.4c-2.7-2.7-7.1-2.7-9.9,0c-1.7,1.7-2.4,4.2-1.9,6.4C198.3,220.9,195.9,221.5,194.1,223.3z M204.5,224.8
		c0.1-0.1,0.3-0.2,0.4-0.4c1.5-1.1,3.5-1.2,5-0.3c0.3,0.2,0.5,0.4,0.8,0.6c1.7,1.7,1.7,4.5,0,6.2c-0.3,0.3-0.7,0.5-1,0.7
		c-1.4,0.8-3.2,0.7-4.6-0.2c-0.2-0.2-0.4-0.3-0.6-0.5C202.8,229.4,202.8,226.6,204.5,224.8z"/>
	<path fill="#F06852" d="M203.6,254.3c0-2.8-2.3-5.1-5.1-5.1s-5.1,2.3-5.1,5.1s2.3,5.1,5.1,5.1S203.6,257.1,203.6,254.3z"/>
	<path fill="#F06852" d="M192.9,209.7L192.9,209.7C192.9,209.8,192.9,209.7,192.9,209.7L192.9,209.7L192.9,209.7
		c2.3-7.8-1.2-21.1-11.1-30.8c-4.8-4.7-10.3-7.6-15.6-9.4h-15.6c-1.7,7.9,1.8,20.2,11.4,29.6C171.8,208.9,185.1,212.1,192.9,209.7z"
		/>
	<path fill="#F06852" d="M157.4,262.2c4.2,2.5,12.5,2.5,19.7-1.9s11.1-11.6,10.9-16.5l0,0l0,0l0,0l0,0c-4.2-2.5-12.5-2.5-19.7,1.9
		C161.1,250,157.1,257.3,157.4,262.2L157.4,262.2L157.4,262.2L157.4,262.2L157.4,262.2z"/>
	<path fill="#F06852" d="M299.2,204.3c0-1.9-1.5-3.4-3.4-3.4c-1.2,0-2.3,0.6-2.9,1.6c-0.6-0.9-1.7-1.6-2.9-1.6
		c-1.9,0-3.4,1.5-3.4,3.4c0,1.2,0.6,2.3,1.6,2.9c-0.9,0.6-1.6,1.7-1.6,2.9c0,1.9,1.5,3.4,3.4,3.4c1.2,0,2.3-0.6,2.9-1.6
		c0.6,0.9,1.7,1.6,2.9,1.6c1.9,0,3.4-1.5,3.4-3.4c0-1.2-0.6-2.3-1.6-2.9C298.5,206.5,299.2,205.5,299.2,204.3z M292.7,209.3
		c-0.1,0-0.2,0-0.3,0c-0.9-0.1-1.6-0.8-1.8-1.6c0-0.2-0.1-0.3-0.1-0.5c0-1.2,1-2.1,2.1-2.1c0.2,0,0.4,0,0.6,0.1
		c0.8,0.2,1.3,0.9,1.5,1.6c0,0.1,0,0.3,0,0.4C294.9,208.3,293.9,209.3,292.7,209.3z"/>
	<circle fill="#F06852" cx="304.9" cy="201.2" r="2.5"/>
	<path fill="#F06852" d="M291.8,247.2L291.8,247.2L291.8,247.2c3.5-1.9,6.8-7.7,6.8-14.4c-0.1-6.8-3.5-12.5-7-14.3l0,0l0,0l0,0l0,0
		c-3.4,1.9-6.8,7.6-6.8,14.4C284.8,239.7,288.3,245.4,291.8,247.2L291.8,247.2L291.8,247.2z"/>
	<path fill="#F06852" d="M312.8,220.9c-3.9-4.3-9.4-6.1-12.6-5.3l0,0l0,0l0,0l0,0c-1.1,3.2,0,8.8,3.8,13.1c3.9,4.3,9.4,6.1,12.6,5.3
		l0,0l0,0l0,0l0,0C317.8,230.9,316.7,225.3,312.8,220.9z"/>
	<path fill="#F06852" d="M321.8,212.6c-0.6-2.3-3.5-5.1-7.4-6.1c-4-1-7.8,0.2-9.4,1.9l0,0l0,0l0,0l0,0c0.6,2.3,3.4,5.1,7.4,6.1
		C316.3,215.6,320.2,214.4,321.8,212.6L321.8,212.6C321.8,212.7,321.8,212.7,321.8,212.6C321.8,212.7,321.8,212.6,321.8,212.6
		L321.8,212.6z"/>
	<path fill="#F06852" d="M330.8,254.3c-0.5,2.3,1,4.6,3.4,5.1s4.6-1,5.1-3.4c0.5-2.3-1-4.6-3.4-5.1
		C333.6,250.4,331.3,251.9,330.8,254.3z"/>
	<path fill="#F06852" d="M348.9,248.9L348.9,248.9L348.9,248.9L348.9,248.9L348.9,248.9c2.8-3.1,4.2-10,1.8-16.7
		c-2.4-6.7-7.8-11.2-11.9-11.8l0,0l0,0l0,0l0,0c-2.8,3.1-4.1,10-1.7,16.7C339.4,243.8,344.8,248.3,348.9,248.9z"/>
	<path fill="#F06852" d="M161.2,212.9c10.6,0.9,19.1,6.9,21.5,12.6l0,0l0,0l0,0l0,0c-3.4,5.2-12.7,9.8-23.3,8.9
		c-10.6-0.9-19.1-6.9-21.5-12.6l0,0l0,0l0,0l0,0C141.3,216.6,150.7,212,161.2,212.9z"/>
	<path fill="#F06852" d="M302.4,457.5c-2.2-2.2-5.8-2.2-7.9,0c-1.4,1.4-1.9,3.4-1.5,5.2c-1.8-0.4-3.8,0.1-5.2,1.5
		c-2.2,2.2-2.2,5.8,0,7.9c1.4,1.4,3.4,1.9,5.2,1.5c-0.4,1.8,0.1,3.8,1.5,5.2c2.2,2.2,5.8,2.2,8,0c1.4-1.4,1.9-3.4,1.5-5.2
		c1.8,0.4,3.8-0.1,5.2-1.5c2.2-2.2,2.2-5.8,0-7.9c-1.4-1.4-3.4-1.9-5.2-1.5C304.3,460.8,303.8,458.9,302.4,457.5z M300.8,470.8
		c-0.1,0.1-0.2,0.2-0.4,0.3c-1.2,0.9-2.8,1-4,0.2c-0.2-0.1-0.4-0.3-0.6-0.5c-1.4-1.4-1.4-3.6,0-5c0.3-0.3,0.5-0.4,0.8-0.6
		c1.2-0.6,2.6-0.6,3.7,0.2c0.2,0.1,0.4,0.3,0.5,0.4C302.1,467.2,302.1,469.5,300.8,470.8z"/>
	<path fill="#F06852" d="M255.6,416.5c-3-3-7.7-2.9-10.7,0c-1.9,1.9-2.6,4.5-2,7c-2.4-0.5-5.1,0.1-7,2c-2.9,3-2.9,7.7,0,10.7
		c1.9,1.9,4.5,2.6,7,2c-0.5,2.4,0.1,5.1,2,7c3,3,7.7,2.9,10.7,0c1.9-1.9,2.6-4.5,2-7c2.4,0.5,5.1-0.1,7-2c2.9-3,2.9-7.7,0-10.7
		c-1.9-1.9-4.5-2.6-7-2C258.1,421,257.5,418.4,255.6,416.5z M253.3,434.5c-0.1,0.1-0.3,0.3-0.5,0.4c-1.6,1.2-3.8,1.3-5.4,0.3
		c-0.3-0.2-0.6-0.4-0.8-0.7c-1.9-1.9-1.9-4.9,0-6.8c0.3-0.3,0.7-0.6,1.1-0.8c1.6-0.8,3.5-0.8,4.9,0.2c0.2,0.2,0.5,0.4,0.7,0.6
		C255.2,429.6,255.2,432.6,253.3,434.5z"/>
	<path fill="#F06852" d="M305.6,451.3c2.3,0,4.1-1.8,4.1-4.1c0-2.3-1.8-4.1-4.1-4.1c-2.3,0-4.1,1.8-4.1,4.1
		C301.5,449.4,303.3,451.3,305.6,451.3z"/>
	<path fill="#F06852" d="M335.1,491.5c-8-7.9-18.7-10.5-24.9-8.5l0,0l0,0l0,0l0,0c-1.6,5.6,0.5,14.8,6.7,22.3h26.6
		C342.1,500.7,339.3,495.7,335.1,491.5z"/>
	<path fill="#F06852" d="M353.7,466.8c-3.8-3.1-9.4-5.6-15.8-5.9c-9.6-0.5-18,3.9-20.9,8.6l0,0l0,0l0,0l0,0
		c2.4,5.1,10.2,10.3,19.9,10.9c6.7,0.4,12.8-1.6,16.8-4.5V466.8L353.7,466.8z"/>
	<path fill="#F06852" d="M338.7,440.7c-3.4-2-10.1-2-15.9,1.5s-9,9.4-8.8,13.3l0,0l0,0l0,0l0,0c3.4,2,10.1,2,15.9-1.5
		C335.7,450.6,338.9,444.7,338.7,440.7L338.7,440.7C338.7,440.8,338.7,440.7,338.7,440.7L338.7,440.7L338.7,440.7z"/>
	<path fill="#F06852" d="M192.9,465.5c-1.7-0.4-3.5,0.1-4.8,1.4c-2,2-2,5.4,0,7.4c1.3,1.3,3.1,1.8,4.8,1.4c-0.4,1.7,0.1,3.5,1.4,4.8
		c2,2,5.4,2.1,7.4,0c1.3-1.3,1.8-3.1,1.4-4.8c1.7,0.4,3.5-0.1,4.8-1.4c2-2,2-5.4,0-7.4c-1.3-1.3-3.1-1.8-4.8-1.4
		c0.4-1.7-0.1-3.5-1.4-4.8c-2-2-5.4-2-7.4,0C193,462,192.5,463.9,192.9,465.5z M195.8,468.5c0.2-0.1,0.3-0.3,0.5-0.4
		c1-0.7,2.3-0.7,3.4-0.2c0.3,0.1,0.5,0.3,0.8,0.6c1.3,1.3,1.3,3.4,0,4.7c-0.2,0.2-0.4,0.3-0.6,0.5c-1.2,0.7-2.7,0.7-3.8-0.2
		c-0.1-0.1-0.2-0.2-0.3-0.3C194.5,471.9,194.5,469.8,195.8,468.5z"/>
	<path fill="#F06852" d="M191.3,454.9c-2.1,0-3.8-1.7-3.8-3.8c0-2.1,1.7-3.8,3.8-3.8s3.8,1.7,3.8,3.8
		C195.1,453.2,193.4,454.9,191.3,454.9z"/>
	<path fill="#F06852" d="M187.1,484.5L187.1,484.5L187.1,484.5L187.1,484.5c-5.9-1.8-15.8,0.6-23.3,7.9c-4,3.9-6.5,8.5-7.8,12.9
		h24.8C186.6,498.3,188.6,489.8,187.1,484.5L187.1,484.5z"/>
	<path fill="#F06852" d="M180.7,472c-2.7-4.4-10.5-8.6-19.5-8.1c-5.8,0.3-10.8,2.5-14.3,5.2v9.1c3.8,2.5,9.3,4.3,15.3,3.9
		C171.2,481.7,178.5,476.8,180.7,472L180.7,472C180.8,472,180.8,472,180.7,472C180.8,472,180.8,472,180.7,472L180.7,472z"/>
	<path fill="#F06852" d="M160.5,445.1c3.2-1.9,9.4-1.8,14.8,1.4c5.4,3.3,8.4,8.7,8.2,12.4l0,0l0,0l0,0l0,0
		c-3.2,1.9-9.4,1.8-14.8-1.4C163.2,454.3,160.3,448.8,160.5,445.1L160.5,445.1C160.4,445.1,160.5,445.1,160.5,445.1L160.5,445.1
		L160.5,445.1z"/>
	<path fill="#FDE6EA" d="M86.1,302.9L86.1,302.9L86.1,302.9L86.1,302.9L86.1,302.9c-2-5.2-0.2-14.5,6.2-21.6
		c6.4-7.1,15.4-10,20.8-8.7l0,0l0,0l0,0l0,0c1.9,5.2,0.2,14.4-6.2,21.6C100.6,301.3,91.6,304.2,86.1,302.9z"/>
	<path fill="#F06852" d="M114.6,302.3c-11.1,1.4-19.8,8.1-22.1,14.1l0,0l0,0l0,0l0,0c3.8,5.2,13.9,9.6,25,8.2
		c5.1-0.6,9.7-2.4,13.5-4.7v-15.6C126.3,302.5,120.6,301.5,114.6,302.3z"/>
	<path fill="#F06852" d="M107,294.1c6.4-7.2,8.1-16.4,6.2-21.6l0,0l0,0l0,0l0,0c-5.4-1.3-14.5,1.6-20.8,8.7
		c-6.4,7.2-8.1,16.4-6.2,21.6l0,0l0,0l0,0l0,0C91.6,304.2,100.6,301.3,107,294.1z"/>
	<path fill="#F06852" d="M73.3,296.5L73.3,296.5C73.3,296.5,73.4,296.5,73.3,296.5C73.4,296.5,73.4,296.5,73.3,296.5L73.3,296.5
		c3.7-1.4,7.8-6.6,8.7-13.3c0.9-6.7-1.8-12.7-5-15l0,0l0,0l0,0l0,0c-2.7,1-5.7,4.2-7.4,8.4v14.7C70.6,293.7,71.9,295.5,73.3,296.5z"
		/>
	<path fill="#FDE6EA" d="M391.1,294.1c-6.4-7.1-8.1-16.4-6.2-21.6l0,0l0,0l0,0l0,0c5.4-1.3,14.5,1.6,20.8,8.7
		c6.4,7.2,8.1,16.4,6.2,21.6l0,0l0,0l0,0l0,0C406.5,304.2,397.5,301.3,391.1,294.1z"/>
	<path fill="#F06852" d="M428.1,327.1c0.1,0,0.3,0,0.4,0v-20.2c-1.2,0.3-2.2,1-3,1.9c-0.8-1.6-2.4-2.9-4.4-3.1
		c-3.1-0.4-5.9,1.8-6.2,4.9c-0.2,2,0.6,3.8,2,5c-1.7,0.8-2.9,2.4-3.1,4.4c-0.4,3.1,1.8,5.8,4.9,6.2c2,0.2,3.8-0.6,5-2
		C424.5,325.6,426.1,326.8,428.1,327.1z M428.1,317c-0.2,1.9-2,3.3-3.9,3.1c-0.3,0-0.5-0.1-0.8-0.2c-1.4-0.5-2.3-1.8-2.3-3.3
		c0-0.1,0-0.3,0-0.5c0.2-1.9,2-3.3,3.9-3.1c0.2,0,0.4,0.1,0.7,0.1c1.3,0.4,2.2,1.5,2.4,2.7C428.1,316.4,428.1,316.7,428.1,317z"/>
	<path fill="#F06852" d="M367.3,304.3v15.6c3.7,2.3,8.3,4.1,13.5,4.7c11.1,1.4,21.2-3,25-8.2l0,0l0,0l0,0l0,0
		c-2.3-6-11-12.7-22.1-14.1C377.5,301.5,371.8,302.5,367.3,304.3z"/>
	<path fill="#F06852" d="M412,302.9L412,302.9L412,302.9L412,302.9L412,302.9c2-5.2,0.2-14.4-6.2-21.6c-6.4-7.1-15.4-10-20.8-8.7
		l0,0l0,0l0,0l0,0c-1.9,5.2-0.2,14.4,6.2,21.6C397.5,301.3,406.5,304.2,412,302.9z"/>
	<path fill="#F06852" d="M428.5,291.4v-14.7c-1.7-4.3-4.7-7.4-7.4-8.4l0,0l0,0l0,0l0,0c-3.2,2.3-5.9,8.3-5,15s5,11.9,8.6,13.3l0,0
		l0,0l0,0l0,0C426.2,295.5,427.5,293.7,428.5,291.4z"/>
	<path fill="#F06852" d="M84.3,319.8c-0.2-2-1.5-3.6-3.1-4.4c1.4-1.2,2.3-3,2-5c-0.4-3.1-3.2-5.2-6.2-4.9c-2,0.2-3.6,1.5-4.4,3.1
		c-0.8-0.9-1.8-1.6-3-1.9v20.2c0.1,0,0.3,0,0.4,0c2-0.2,3.6-1.5,4.4-3.1c1.2,1.4,3,2.2,5,2C82.5,325.6,84.7,322.9,84.3,319.8z
		 M74.7,319.9c-0.2,0.1-0.5,0.2-0.8,0.2c-1.5,0.2-2.8-0.6-3.5-1.8c-0.2-0.4-0.4-0.8-0.4-1.3c0-0.3,0-0.7,0-1
		c0.2-1.3,1.1-2.3,2.4-2.7c0.2-0.1,0.4-0.1,0.7-0.1c1.7-0.2,3.3,0.8,3.8,2.4c0,0.1,0.1,0.3,0.1,0.4s0,0.2,0.1,0.3l0,0l0,0
		c0,0.1,0,0.3,0,0.4C77,318.2,76.1,319.4,74.7,319.9z"/>
</g>
</svg>
