<?xml version="1.0" encoding="utf-8"?>
<!-- Generator: Adobe Illustrator 18.0.0, SVG Export Plug-In . SVG Version: 6.00 Build 0)  -->
<!DOCTYPE svg PUBLIC "-//W3C//DTD SVG 1.1//EN" "http://www.w3.org/Graphics/SVG/1.1/DTD/svg11.dtd">
<svg version="1.1" id="content" xmlns="http://www.w3.org/2000/svg" xmlns:xlink="http://www.w3.org/1999/xlink" x="0px" y="0px"
	 width="500px" height="500px" viewBox="0 0 500 500" enable-background="new 0 0 500 500" xml:space="preserve">
<rect id="position" x="0.5" y="0.5" display="none" fill="none" stroke="#000000" width="499" height="499"/>
<g id="arm">
	<path fill="#FDE6EA" d="M80.3,242c0.2,0,0.4-0.1,0.6-0.2c1.1-0.4,1.9-1.5,1.9-2.7c0-0.1,0-0.3,0-0.4c-0.2-1.6-1.6-2.8-3.3-2.6
		c-0.2,0-0.4,0.1-0.5,0.1c-1,0.3-1.8,1.2-2,2.3c0,0.3-0.1,0.6,0,0.8C77.2,241.1,78.7,242.2,80.3,242z"/>
	<path fill="#FDE6EA" d="M127.3,241.9c-3.1,1.9-6.9,3.4-11.1,4c-9.2,1.2-17.6-2.5-20.7-6.9l0,0c0,0,0,0,0,0c0,0,0,0,0,0l0,0
		c1.9-5,9.1-10.6,18.3-11.8c5-0.6,9.7,0.2,13.5,1.7v-29.5c0-14-11.4-25.4-25.4-25.4s-25.4,11.4-25.4,25.4v6.4c1.4-3.6,3.9-6.2,6.1-7
		l0,0c0,0,0,0,0,0c0,0,0,0,0,0l0,0c2.6,1.9,4.8,7,4.1,12.5c-0.7,5.6-4.1,9.9-7.2,11.1l0,0c0,0,0,0,0,0c0,0,0,0,0,0l0,0
		c-1.2-0.9-2.3-2.4-3.1-4.3v12.9c1,0.2,1.9,0.8,2.5,1.6c0.7-1.4,2-2.4,3.6-2.6c2.6-0.3,4.9,1.5,5.2,4.1c0.2,1.6-0.5,3.2-1.7,4.1
		c1.4,0.7,2.4,2,2.6,3.6c0.3,2.6-1.5,4.9-4.1,5.2c-1.6,0.2-3.2-0.5-4.1-1.7c-0.7,1.4-2,2.4-3.6,2.6c-0.1,0-0.2,0-0.3,0v17.3h50.7
		L127.3,241.9L127.3,241.9z M90.3,227.6L90.3,227.6C90.3,227.6,90.3,227.6,90.3,227.6C90.3,227.6,90.2,227.6,90.3,227.6L90.3,227.6
		c-1.6-4.4-0.2-12.1,5.1-18.1c5.3-6,12.8-8.4,17.3-7.3l0,0c0,0,0,0,0,0c0,0,0,0,0,0l0,0c1.6,4.3,0.1,12-5.1,18
		C102.3,226.3,94.8,228.7,90.3,227.6z"/>
	<polygon fill="#FACDDB" points="76.7,265.2 75.5,265.2 75.5,277.7 76.7,277.7 127.5,277.7 128.4,277.7 128.4,265.2 127.5,265.2 	
		"/>
	<path fill="#F06852" d="M80.6,245.2c1,1.2,2.5,1.9,4.1,1.7c2.6-0.3,4.4-2.6,4.1-5.2c-0.2-1.6-1.2-3-2.6-3.6c1.2-1,1.9-2.5,1.7-4.1
		c-0.3-2.5-2.6-4.4-5.2-4.1c-1.6,0.2-3,1.2-3.6,2.6c-0.6-0.8-1.5-1.3-2.5-1.6v16.9c0.1,0,0.2,0,0.3,0
		C78.6,247.6,80,246.6,80.6,245.2z M77.1,238.6c0.2-1.1,0.9-2,2-2.3c0.2-0.1,0.4-0.1,0.5-0.1c1.6-0.2,3.1,1,3.3,2.6
		c0,0.1,0,0.3,0,0.4c0,1.2-0.8,2.3-1.9,2.7c-0.2,0.1-0.4,0.1-0.6,0.2c-1.6,0.2-3.1-1-3.3-2.6C77,239.2,77,238.9,77.1,238.6z"/>
	<path fill="#F06852" d="M113.9,227.1c-9.2,1.2-16.4,6.8-18.3,11.8l0,0c0,0,0,0,0,0c0,0,0,0,0,0l0,0c3.1,4.4,11.5,8,20.7,6.9
		c4.3-0.5,8.1-2,11.1-4v-13C123.6,227.3,118.9,226.5,113.9,227.1z"/>
	<path fill="#F06852" d="M107.6,220.3c5.3-6,6.7-13.7,5.1-18l0,0c0,0,0,0,0,0c0,0,0,0,0,0l0,0c-4.5-1.1-12,1.3-17.3,7.3
		c-5.3,6-6.7,13.7-5.1,18l0,0c0,0,0,0,0,0c0,0,0,0,0,0l0,0C94.9,228.7,102.3,226.3,107.6,220.3z"/>
	<path fill="#F06852" d="M79.8,222.3L79.8,222.3C79.8,222.3,79.8,222.3,79.8,222.3C79.8,222.3,79.8,222.3,79.8,222.3L79.8,222.3
		c3.1-1.2,6.5-5.5,7.2-11.1c0.7-5.6-1.5-10.6-4.1-12.5l0,0c0,0,0,0,0,0c0,0,0,0,0,0l0,0c-2.3,0.9-4.7,3.5-6.1,7V218
		C77.5,219.9,78.6,221.4,79.8,222.3z"/>
</g>
</svg>
