<?xml version="1.0" encoding="utf-8"?>
<!-- Generator: Adobe Illustrator 17.1.0, SVG Export Plug-In . SVG Version: 6.00 Build 0)  -->
<!DOCTYPE svg PUBLIC "-//W3C//DTD SVG 1.1//EN" "http://www.w3.org/Graphics/SVG/1.1/DTD/svg11.dtd">
<svg version="1.1" id="content" xmlns="http://www.w3.org/2000/svg" xmlns:xlink="http://www.w3.org/1999/xlink" x="0px" y="0px"
	 width="500px" height="500px" viewBox="0 0 500 500" enable-background="new 0 0 500 500" xml:space="preserve">
<rect id="position" x="0.5" y="0.5" display="none" fill="none" stroke="#000000" width="499" height="499"/>
<path fill="#CFC6BF" d="M357.6,307.6c0,10.2-48.4,28.5-108,28.5s-108-18.3-108-28.5h-0.1c0,0-23.9,40-23.9,108.9c17,1,39.8,2,39.8,2
	v14c0,0,9.7,4.7,38.1,4.7s32.3-8,54-8c18.6,0,22.9,8.5,48,8.5c25.1,0,45.4-5.1,45.4-5.1v-14c0,0,22.8-1,39.8-2
	C382.4,347.5,357.6,307.6,357.6,307.6z"/>
<path fill="#B5ACA5" d="M157.4,418.5c0,0-0.7-56.5,2.3-74.4c-10.7,14.1-17,73.7-17,73.7L157.4,418.5z"/>
<path fill="#B5ACA5" d="M342.5,418.5c0,0,0.7-50.5-2.3-68.4c10.7,14.1,17,67.7,17,67.7L342.5,418.5z"/>
<polygon fill="#9E9590" points="249.8,429.2 248.8,429.2 248.8,336 249.8,336 "/>
</svg>
