<?xml version="1.0" encoding="utf-8"?>
<!-- Generator: Adobe Illustrator 14.0.0, SVG Export Plug-In . SVG Version: 6.00 Build 43363)  -->
<!DOCTYPE svg PUBLIC "-//W3C//DTD SVG 1.1//EN" "http://www.w3.org/Graphics/SVG/1.1/DTD/svg11.dtd">
<svg version="1.1" id="content" xmlns="http://www.w3.org/2000/svg" xmlns:xlink="http://www.w3.org/1999/xlink" x="0px" y="0px"
	 width="500px" height="500px" viewBox="0 0 500 500" enable-background="new 0 0 500 500" xml:space="preserve">
<rect id="position" x="0.5" y="0.5" display="none" fill="none" stroke="#000000" width="499" height="499"/>
<g id="body">
	<path fill="#CFC6BF" d="M278.391,175.668c-0.002,0.86-0.24,5.048-4.48,8.913c-4.758,4.331-11.469,3.262-11.469,3.262
		l-13.106,50.658l-13.11-50.658c0,0-6.71,1.068-11.466-3.262c-4.243-3.863-4.482-8.053-4.485-8.913h-103.87v305.514h265.854V175.668
		H278.391z"/>
	<path fill="#E0DAD5" d="M224.756,184.58c-4.241-3.86-4.482-8.048-4.484-8.912c-5.188,0-12.778,0-20.854,0
		c-10.494,19.998,10.926,38.054,10.926,38.054l25.88-25.881C236.221,187.843,229.511,188.911,224.756,184.58z"/>
	<path fill="#E0DAD5" d="M273.906,184.58c4.24-3.86,4.482-8.048,4.484-8.912c5.188,0,12.778,0,20.854,0
		c10.493,19.998-10.928,38.054-10.928,38.054l-25.881-25.881C262.441,187.843,269.152,188.911,273.906,184.58z"/>
	<polygon fill="#9E9590" points="237.136,190.805 214.514,215.248 212.174,211.607 236.221,187.843 	"/>
	<polygon fill="#9E9590" points="261.527,190.805 284.148,215.248 286.489,211.607 262.441,187.843 	"/>
	<path fill="#9E9590" d="M249.331,481.182c-0.276,0-0.5,0.275-0.5,0V234.501c0-0.274,0.224-0.5,0.5-0.5c0.274,0,0.5,0.226,0.5,0.5
		v246.682C249.831,481.458,249.608,481.182,249.331,481.182L249.331,481.182z"/>
	<circle fill="#E0DAD5" cx="230.469" cy="220" r="7.167"/>
	<circle fill="#CCC6C2" cx="230.47" cy="220" r="4.39"/>
	<circle fill="#968B84" cx="228.623" cy="221.095" r="0.735"/>
	<circle fill="#968B84" cx="231.858" cy="218.987" r="0.735"/>
	<circle fill="#E0DAD5" cx="230.469" cy="250" r="7.167"/>
	<circle fill="#CCC6C2" cx="230.47" cy="250" r="4.39"/>
	<circle fill="#968B84" cx="228.623" cy="251.095" r="0.735"/>
	<circle fill="#968B84" cx="231.858" cy="248.987" r="0.735"/>
	<circle fill="#E0DAD5" cx="230.469" cy="311.562" r="7.167"/>
	<circle fill="#CCC6C2" cx="230.47" cy="311.563" r="4.39"/>
	<circle fill="#968B84" cx="228.328" cy="311.717" r="0.735"/>
	<circle fill="#968B84" cx="232.164" cy="311.277" r="0.735"/>
	<circle fill="#E0DAD5" cx="230.47" cy="348.979" r="7.167"/>
	<circle fill="#CCC6C2" cx="230.47" cy="348.98" r="4.39"/>
	<circle fill="#968B84" cx="229.375" cy="347.133" r="0.734"/>
	<circle fill="#968B84" cx="231.483" cy="350.368" r="0.735"/>
	<circle fill="#E0DAD5" cx="230.47" cy="388.809" r="7.166"/>
	<circle fill="#CCC6C2" cx="230.469" cy="388.809" r="4.39"/>
	<circle fill="#968B84" cx="231.636" cy="387.008" r="0.734"/>
	<circle fill="#968B84" cx="229.677" cy="390.334" r="0.735"/>
	<circle fill="#E0DAD5" cx="230.469" cy="461.23" r="7.167"/>
	<circle fill="#CCC6C2" cx="230.47" cy="461.23" r="4.39"/>
	<circle fill="#968B84" cx="228.623" cy="462.326" r="0.735"/>
	<circle fill="#968B84" cx="231.858" cy="460.218" r="0.735"/>
	<rect x="116.405" y="270.107" fill="#968B84" width="265.854" height="20.377"/>
	<path fill="#E0DAD5" d="M175.916,293.738c0,1.104-0.896,2-2,2h-5.788c-1.104,0-2-0.896-2-2v-27.855c0-1.104,0.896-2,2-2h5.788
		c1.104,0,2,0.896,2,2V293.738z"/>
	<path fill="#E0DAD5" d="M321.656,293.738c0,1.104,0.896,2,2,2h5.788c1.104,0,2-0.896,2-2v-27.855c0-1.104-0.896-2-2-2h-5.788
		c-1.104,0-2,0.896-2,2V293.738z"/>
	<path fill="#E0DAD5" d="M223.303,293.738c0,1.104-0.896,2-2,2h-5.788c-1.104,0-2-0.896-2-2v-27.855c0-1.104,0.896-2,2-2h5.788
		c1.104,0,2,0.896,2,2V293.738z"/>
	<path fill="#E0DAD5" d="M275.83,293.738c0,1.104,0.896,2,2,2h5.786c1.104,0,2-0.896,2-2v-27.855c0-1.104-0.896-2-2-2h-5.786
		c-1.104,0-2,0.896-2,2V293.738z"/>
	<circle fill="#E0DAD5" cx="230.47" cy="428.639" r="7.167"/>
	<circle fill="#CCC6C2" cx="230.47" cy="428.64" r="4.39"/>
	<circle fill="#968B84" cx="228.341" cy="428.91" r="0.734"/>
	<circle fill="#968B84" cx="232.147" cy="428.262" r="0.735"/>
</g>
</svg>
