<?xml version="1.0" encoding="utf-8"?>
<!-- Generator: Adobe Illustrator 14.0.0, SVG Export Plug-In . SVG Version: 6.00 Build 43363)  -->
<!DOCTYPE svg PUBLIC "-//W3C//DTD SVG 1.1//EN" "http://www.w3.org/Graphics/SVG/1.1/DTD/svg11.dtd">
<svg version="1.1" id="content" xmlns="http://www.w3.org/2000/svg" xmlns:xlink="http://www.w3.org/1999/xlink" x="0px" y="0px"
	 width="500px" height="500px" viewBox="0 0 500 500" enable-background="new 0 0 500 500" xml:space="preserve">
<g id="bounds" display="none">
	<rect x="0.198" y="72.291" fill="none" stroke="#EAEAEA" stroke-miterlimit="10" width="499.5" height="499.5"/>
</g>
<g id="chooser">
	<path fill="#CFC6BF" d="M277.603,186.118l-1.613,13.866h-14.744l-11.58,49.227l-11.584-49.227h-15.172l-2.831-13.866h-63.436
		l-50.881,15.705l16.876,54.866l34.005-6.005v171.042h186.609V250.682l34.004,6.005l16.878-54.866l-50.883-15.704H277.603z"/>
	<path fill="#E0DAD5" d="M226.129,195.289c-4.241-3.86-4.482-8.308-4.484-9.171c-5.188,0-12.778,0-20.854,0
		c-10.494,19.998,10.926,38.314,10.926,38.314l25.88-25.881C237.594,198.552,230.884,199.62,226.129,195.289z"/>
	<path fill="#E0DAD5" d="M273.135,195.289c4.24-3.86,4.482-8.308,4.484-9.171c5.188,0,12.776,0,20.854,0
		c10.493,19.998-10.928,38.314-10.928,38.314l-25.881-25.881C261.67,198.552,268.381,199.62,273.135,195.289z"/>
	<polygon fill="#9E9590" points="238.509,201.515 215.886,225.957 213.547,222.317 237.594,198.552 	"/>
	<polygon fill="#9E9590" points="260.756,201.515 283.377,225.957 285.718,222.317 261.67,198.552 	"/>
	<path fill="#9E9590" d="M249.662,422.225c-0.251,0-0.455-0.227-0.455-0.5V245.21c0-0.274,0.203-0.5,0.455-0.5
		c0.25,0,0.455,0.226,0.455,0.5v176.517C250.116,422.002,249.662,422.225,249.662,422.225z"/>
	<circle fill="#E0DAD5" cx="230.771" cy="230.709" r="7.167"/>
	<circle fill="#CCC6C2" cx="230.772" cy="230.71" r="4.39"/>
	<circle fill="#968B84" cx="228.925" cy="231.804" r="0.735"/>
	<circle fill="#968B84" cx="232.159" cy="229.697" r="0.735"/>
	<circle fill="#E0DAD5" cx="230.771" cy="260.709" r="7.167"/>
	<circle fill="#CCC6C2" cx="230.772" cy="260.709" r="4.39"/>
	<circle fill="#968B84" cx="228.925" cy="261.804" r="0.735"/>
	<circle fill="#968B84" cx="232.159" cy="259.696" r="0.735"/>
	<ellipse fill="#E0DAD5" cx="232.51" cy="322.271" rx="6.517" ry="7.167"/>
	<ellipse fill="#CCC6C2" cx="232.511" cy="322.272" rx="3.991" ry="4.39"/>
	<ellipse fill="#968B84" cx="230.563" cy="322.426" rx="0.668" ry="0.735"/>
	<ellipse fill="#968B84" cx="234.052" cy="321.986" rx="0.667" ry="0.735"/>
	<ellipse fill="#E0DAD5" cx="232.511" cy="359.688" rx="6.517" ry="7.167"/>
	<ellipse fill="#CCC6C2" cx="232.511" cy="359.689" rx="3.991" ry="4.39"/>
	<ellipse fill="#968B84" cx="231.515" cy="357.842" rx="0.667" ry="0.734"/>
	<ellipse fill="#968B84" cx="233.431" cy="361.077" rx="0.669" ry="0.735"/>
	<ellipse fill="#E0DAD5" cx="232.511" cy="399.518" rx="6.516" ry="7.166"/>
	<ellipse fill="#CCC6C2" cx="232.51" cy="399.518" rx="3.991" ry="4.39"/>
	<ellipse fill="#968B84" cx="233.571" cy="397.717" rx="0.667" ry="0.734"/>
	<ellipse fill="#968B84" cx="231.79" cy="401.043" rx="0.667" ry="0.734"/>
	<rect x="156.643" y="280.816" fill="#968B84" width="186.609" height="20.377"/>
	<path fill="#E0DAD5" d="M182.904,304.447c0,1.104-0.815,2-1.819,2h-5.263c-1.004,0-1.818-0.896-1.818-2v-27.855
		c0-1.104,0.814-2,1.818-2h5.263c1.004,0,1.819,0.896,1.819,2V304.447z"/>
	<path fill="#E0DAD5" d="M315.428,304.447c0,1.104,0.815,2,1.819,2h5.263c1.005,0,1.818-0.896,1.818-2v-27.855
		c0-1.104-0.813-2-1.818-2h-5.263c-1.004,0-1.819,0.896-1.819,2V304.447z"/>
	<path fill="#E0DAD5" d="M225.993,304.447c0,1.104-0.815,2-1.818,2h-5.263c-1.003,0-1.819-0.896-1.819-2v-27.855
		c0-1.104,0.815-2,1.819-2h5.263c1.003,0,1.818,0.896,1.818,2V304.447z"/>
	<path fill="#E0DAD5" d="M273.758,304.447c0,1.104,0.813,2,1.818,2h5.262c1.004,0,1.818-0.896,1.818-2v-27.855
		c0-1.104-0.814-2-1.818-2h-5.262c-1.005,0-1.818,0.896-1.818,2V304.447z"/>
	<ellipse fill="#E0DAD5" cx="232.511" cy="439.348" rx="6.517" ry="7.167"/>
	<ellipse fill="#CCC6C2" cx="232.511" cy="439.349" rx="3.991" ry="4.39"/>
	<ellipse fill="#968B84" cx="230.575" cy="439.619" rx="0.667" ry="0.734"/>
	<ellipse fill="#968B84" cx="234.035" cy="438.971" rx="0.669" ry="0.735"/>
	<path fill="#CFC6BF" d="M343.113,328.209c0,0-6.162,9.563-6.162,34.297c0,24.732-18.356,21.369-18.356,21.369H250.27h-68.324
		c0,0-18.355,3.363-18.355-21.369c0-24.731-6.922-34.297-6.922-34.297s-20.597,40-20.597,109c14.651,1,34.271,1.993,34.271,1.993
		v14.007c0,0,8.397,4.676,32.85,4.676c24.454,0,27.814-8.008,46.502-8.008c16.056,0,19.726,8.463,41.393,8.463
		c21.668,0,39.111-5.131,39.111-5.131v-14.007c0,0,19.619-0.993,34.271-1.993C364.469,368.209,343.113,328.209,343.113,328.209z"/>
	<path fill="#B5ACA5" d="M170.342,439.202c0,0-0.577-56.472,1.955-74.519c-9.225,14.061-14.641,73.837-14.641,73.837
		L170.342,439.202z"/>
	<path fill="#B5ACA5" d="M330.115,439.202c0,0,0.579-50.472-1.954-68.519c9.225,14.061,14.642,67.837,14.642,67.837L330.115,439.202
		z"/>
	<polygon fill="#9E9590" points="250.124,449.877 249.262,449.877 249.262,383.875 250.124,383.875 	"/>
</g>
<rect id="position" x="0" y="0" display="none" fill="none" stroke="#000000" width="500" height="500"/>
</svg>
