<?xml version="1.0" encoding="utf-8"?>
<!-- Generator: Adobe Illustrator 14.0.0, SVG Export Plug-In . SVG Version: 6.00 Build 43363)  -->
<!DOCTYPE svg PUBLIC "-//W3C//DTD SVG 1.1//EN" "http://www.w3.org/Graphics/SVG/1.1/DTD/svg11.dtd">
<svg version="1.1" id="content" xmlns="http://www.w3.org/2000/svg" xmlns:xlink="http://www.w3.org/1999/xlink" x="0px" y="0px"
	 width="500px" height="500px" viewBox="0 0 500 500" enable-background="new 0 0 500 500" xml:space="preserve">
<g id="bounds" display="none">
	<rect x="-0.106" y="84.055" fill="none" stroke="#EAEAEA" stroke-miterlimit="10" width="499.5" height="499.5"/>
</g>
<g id="chooser">
	<path fill="#F0EBE5" d="M280.553,172.025c0,0,0.126,52.169-30.641,52.169c-30.768,0-30.642-52.169-30.642-52.169h-15.329
		l3.354,62.302h42.618h42.618l3.353-62.302H280.553z"/>
	<path fill="#F0EBE5" d="M146.908,226.306c0,0,3.876,0.056,9.53,0.056c8.365,0,20.146-1.632,26.589-14.396
		c11.715-23.213,4.566-43.262,5.583-39.941h11.009v67.181h-52.711V226.306z"/>
	<path fill="#F0EBE5" d="M352.973,226.306c0,0-3.876,0.056-9.529,0.056c-8.366,0-20.146-1.632-26.589-14.396
		c-10.7-21.201-5.582-39.941-5.582-39.941h-11.011v67.181h52.711V226.306z"/>
	<path fill="#E8BEBF" d="M320.753,230.132c-20.221-14.068-19.113-49.027-18.237-58.107h-12.816c0,0,2.865,60.824-39.666,60.91
		c-42.531-0.086-39.667-60.91-39.667-60.91h-12.818c0.876,9.08,1.983,44.039-18.236,58.107c-7.474,5.199-18.017,4.583-32.402,4.583
		v204.679h102.904h0.438h102.748v-204.68C338.615,234.714,328.226,235.33,320.753,230.132z"/>
	<path fill="#91BCDE" d="M210.343,172.025h-12.728c0.228,2.688,0.433,9.357,0.233,14.424h13.047
		C210.284,180.648,210.304,173.735,210.343,172.025z"/>
	<path fill="#91BCDE" d="M302.449,172.025h-12.729c0.039,1.71,0.061,8.624-0.553,14.424h13.048
		C302.017,181.382,302.221,174.713,302.449,172.025z"/>
	<path fill="#91BCDE" d="M286.531,200.812c-1.104,4.044-2.578,8.15-4.556,12.015h25.497c-1.625-3.903-2.776-7.989-3.589-12.015
		H286.531z"/>
	<path fill="#91BCDE" d="M218.091,212.826c-1.976-3.864-3.451-7.971-4.556-12.015h-17.354c-0.812,4.025-1.964,8.111-3.59,12.015
		H218.091z"/>
	<path fill="#91BCDE" d="M320.753,230.132c-1.3-0.904-2.509-1.891-3.638-2.942h-47.279c-5.16,3.531-11.645,5.729-19.803,5.745
		c-8.161-0.017-14.646-2.213-19.803-5.745h-47.282c-1.129,1.052-2.337,2.038-3.637,2.942c-7.474,5.199-18.017,4.583-32.402,4.583
		v4.491h206.089v-4.491C338.615,234.714,328.226,235.33,320.753,230.132z"/>
	<rect x="146.908" y="253.568" fill="#F0EBE5" width="206.091" height="12.016"/>
	<rect x="146.908" y="279.945" fill="#91BCDE" width="206.091" height="12.016"/>
	<rect x="146.908" y="306.324" fill="#91BCDE" width="206.091" height="13.316"/>
	<rect x="146.908" y="332.701" fill="#91BCDE" width="206.091" height="12.016"/>
	<rect x="146.908" y="359.08" fill="#91BCDE" width="206.091" height="12.016"/>
	<rect x="146.908" y="385.469" fill="#91BCDE" width="206.091" height="12.016"/>
	<path fill="#E8BEBF" d="M289.169,186.448c-0.451,4.285-1.248,9.273-2.64,14.363h17.354c-1.02-5.054-1.494-10.003-1.666-14.363
		H289.169z"/>
	<path fill="#E8BEBF" d="M213.535,200.812c-1.39-5.089-2.188-10.078-2.64-14.363h-13.047c-0.173,4.359-0.649,9.31-1.666,14.363
		H213.535z"/>
	<rect x="146.908" y="319.64" fill="#EEF0E5" width="206.091" height="14.361"/>
	<rect x="146.908" y="410.67" fill="#EEF0E5" width="206.091" height="14.363"/>
	<rect x="146.908" y="342.445" fill="#DAD07B" width="206.091" height="14.363"/>
	<rect x="146.908" y="265.584" fill="#DAD07B" width="206.091" height="14.361"/>
	<rect x="146.908" y="425.033" fill="#91BCDE" width="206.091" height="14.361"/>
	<rect x="146.908" y="239.205" fill="#E8BEBF" width="206.091" height="14.363"/>
	<rect x="146.908" y="291.961" fill="#DAD07B" width="206.091" height="14.361"/>
	<rect x="146.908" y="371.095" fill="#DAD07B" width="206.091" height="14.359"/>
	<path fill="#DAD07B" d="M230.23,227.19c-5.349-3.66-9.271-8.754-12.14-14.363h-25.498c-2.228,5.351-5.336,10.351-9.645,14.363
		H230.23z"/>
	<path fill="#DAD07B" d="M269.835,227.19h47.28c-4.31-4.013-7.416-9.013-9.646-14.363h-25.496
		C279.107,218.436,275.183,223.53,269.835,227.19z"/>
	<path fill="#91BCDE" d="M352.689,391.324H249.644H147.331c0,0-23.871,18.51-23.647,80.619c12.61,10.107,27.704,12.799,44.225,6.877
		c11.516,19.646,49.461,14.357,53.632,7.307c0,0,9.303,9.258,28.104,9.258c18.801,0,28.104-9.258,28.104-9.258
		c4.17,7.055,42.116,12.344,53.632-7.307c16.52,5.922,31.613,3.23,44.224-6.877C375.828,409.834,352.689,391.324,352.689,391.324z"
		/>
	<path fill="#DAD07B" d="M157.105,391.324c0,0-24.649,16.596-24.649,79.637c11.896,2.668,17.099,5.715,23.466,5.789l17.736-85.426
		H157.105z"/>
	<path fill="#E8BEBF" d="M170.11,391.324c0,0-26.781,36.396-17.262,84.146c14.188-2.25,14.188-2.25,14.188-2.25l19.155-81.896
		H170.11z"/>
	<path fill="#F0EBE5" d="M177.365,479.31c0,0-11.713-1.287-13.106-8.352c-2.902-25.09,4.236-51.686,18.176-79.637
		c12.526,0,12.526,0,12.526,0l-15.375,90.014L177.365,479.31z"/>
	<path fill="#91BCDE" d="M207.49,391.324c0,0-6.274,59.242-6.932,93.65c-10.202,1.158-23.29-4.557-23.29-4.557
		s0-62.443,14.173-89.098C198.163,391.324,207.49,391.324,207.49,391.324z"/>
	<path fill="#DAD07B" d="M342.183,391.324c0,0,26.567,22.145,24.647,79.637c-11.896,2.668-17.099,5.715-23.467,5.789l-17.734-85.426
		H342.183z"/>
	<path fill="#E8BEBF" d="M329.176,391.324c0,0,29.228,38.666,17.263,84.146c-14.188-2.25-14.188-2.25-14.188-2.25l-19.154-81.896
		H329.176z"/>
	<path fill="#F0EBE5" d="M321.921,479.31c0,0,11.771-1.506,13.162-8.568c0.598-25.551-10.834-73.275-18.23-79.418
		c-12.526,0-12.526,0-12.526,0l15.377,90.014L321.921,479.31z"/>
	<path fill="#91BCDE" d="M291.797,391.324c0,0,6.273,59.242,6.933,93.65c10.201,1.158,23.291-4.557,23.291-4.557
		s-5.933-69.613-14.173-89.098C301.125,391.324,291.797,391.324,291.797,391.324z"/>
	<rect x="230.571" y="391.324" fill="#91BCDE" width="19.073" height="93.807"/>
	<rect x="249.644" y="391.324" fill="#E8BEBF" width="19.073" height="93.807"/>
	<path fill="#F0EBE5" d="M221.854,391.398v84.068c0,0,4.345,5.191,11.776,7.289c-1.858-33.041-0.62-78.678,4.128-91.436
		C224.96,391.324,221.854,391.398,221.854,391.398z"/>
	<path fill="#F0EBE5" d="M277.434,391.398l1.49,84.602c0,0-5.838,4.662-13.269,6.76c1.857-33.041,0.618-78.68-4.129-91.436
		C274.327,391.324,277.434,391.398,277.434,391.398z"/>
	<path fill="#DAD07B" d="M228.757,391.219c0,0-6.903,32.766-6.509,86.311c-6.498,5.229-18.794,7.566-18.794,7.566
		s-2.365-53.518,7.566-93.877C218.115,391.219,228.757,391.219,228.757,391.219z"/>
	<path fill="#DAD07B" d="M271.085,391.219c0,0,10.17,40.5,5.955,86.311c6.496,5.229,18.793,7.566,18.793,7.566
		s2.365-53.518-7.566-93.877C281.17,391.219,271.085,391.219,271.085,391.219z"/>
	<path fill="#F0EBE5" d="M167.908,479.383c11.516,19.646,49.461,14.357,53.632,7.305c0,0,9.303,9.26,28.104,9.26
		c18.801,0,28.104-9.26,28.104-9.26c4.17,7.057,42.116,12.346,53.632-7.305c16.497,5.912,31.573,3.236,44.174-6.842l0.021-4.627
		c-0.038-2.479-0.111-4.881-0.224-7.213c-12.561,9.943-27.561,12.566-43.97,6.688c-11.516,19.646-49.463,14.357-53.633,7.305
		c0,0-9.304,9.258-28.104,9.258c-18.801,0-28.104-9.258-28.104-9.258c-4.171,7.055-42.115,12.344-53.632-7.305
		c-16.411,5.881-31.412,3.258-43.97-6.688c-0.179,3.748-0.27,7.678-0.255,11.803C136.294,482.613,151.387,485.302,167.908,479.383z"
		/>
	<rect x="146.981" y="384.416" fill="#F0EBE5" width="206.021" height="7.182"/>
</g>
<rect id="position" x="0" y="0" display="none" fill="none" stroke="#000000" width="500" height="500"/>
</svg>
