<?xml version="1.0" encoding="utf-8"?>
<!-- Generator: Adobe Illustrator 14.0.0, SVG Export Plug-In . SVG Version: 6.00 Build 43363)  -->
<!DOCTYPE svg PUBLIC "-//W3C//DTD SVG 1.1//EN" "http://www.w3.org/Graphics/SVG/1.1/DTD/svg11.dtd">
<svg version="1.1" id="content" xmlns="http://www.w3.org/2000/svg" xmlns:xlink="http://www.w3.org/1999/xlink" x="0px" y="0px"
	 width="500px" height="500px" viewBox="0 0 500 500" enable-background="new 0 0 500 500" xml:space="preserve">
<rect id="position" x="0.5" y="0.5" display="none" fill="none" stroke="#000000" width="499" height="499"/>
<g id="body">
	<path fill="#F0EBE5" d="M288.817,173.08c0,0,0.162,52.169-39.522,52.169c-39.686,0-39.523-52.169-39.523-52.169h-19.771
		l4.324,62.302h54.972h54.97l4.324-62.302H288.817z"/>
	<path fill="#F0EBE5" d="M116.436,227.361c0,0,5,0.056,12.292,0.056c10.791,0,25.987-1.632,34.296-14.396
		c15.11-23.213,5.892-43.262,7.201-39.941h14.2v67.181h-67.989V227.361L116.436,227.361z"/>
	<path fill="#F0EBE5" d="M382.226,227.361c0,0-4.999,0.056-12.292,0.056c-10.791,0-25.987-1.632-34.296-14.396
		c-13.801-21.201-7.201-39.941-7.201-39.941h-14.2v67.181h67.989V227.361z"/>
	<path fill="#E8BEBF" d="M340.668,231.187c-26.081-14.068-24.653-49.027-23.523-58.107h-16.533c0,0,3.696,60.824-51.161,60.91
		c-54.858-0.086-51.163-60.91-51.163-60.91h-16.533c1.13,9.08,2.558,44.039-23.523,58.107c-9.639,5.199-23.237,4.583-41.794,4.583
		v245.246h132.73h0.564H382.26V235.769C363.703,235.769,350.307,236.385,340.668,231.187z"/>
	<path fill="#91BCDE" d="M198.256,173.08H181.84c0.294,2.688,0.558,9.357,0.3,14.424h16.829
		C198.18,181.703,198.206,174.79,198.256,173.08z"/>
	<path fill="#91BCDE" d="M317.058,173.08h-16.416c0.051,1.71,0.076,8.624-0.712,14.424h16.828
		C316.5,182.437,316.764,175.768,317.058,173.08z"/>
	<path fill="#91BCDE" d="M296.526,201.867c-1.424,4.044-3.327,8.15-5.877,12.015h32.888c-2.097-3.903-3.583-7.989-4.629-12.015
		H296.526z"/>
	<path fill="#91BCDE" d="M208.25,213.882c-2.549-3.864-4.453-7.971-5.877-12.015H179.99c-1.045,4.025-2.531,8.111-4.629,12.015
		H208.25z"/>
	<path fill="#91BCDE" d="M340.668,231.187c-1.677-0.904-3.235-1.891-4.691-2.942h-60.983c-6.654,3.531-15.019,5.729-25.544,5.745
		c-10.525-0.017-18.889-2.213-25.543-5.745h-60.984c-1.457,1.052-3.016,2.038-4.691,2.942c-9.639,5.199-23.237,4.583-41.794,4.583
		v4.491H382.26v-4.491C363.703,235.769,350.307,236.385,340.668,231.187z"/>
	<rect x="116.436" y="254.623" fill="#F0EBE5" width="265.824" height="12.017"/>
	<rect x="116.436" y="281.001" fill="#91BCDE" width="265.824" height="12.016"/>
	<rect x="116.436" y="307.379" fill="#91BCDE" width="265.824" height="13.316"/>
	<rect x="116.436" y="333.757" fill="#91BCDE" width="265.824" height="12.016"/>
	<rect x="116.436" y="360.135" fill="#91BCDE" width="265.824" height="12.016"/>
	<rect x="116.436" y="386.523" fill="#91BCDE" width="265.824" height="12.016"/>
	<rect x="116.436" y="454.774" fill="#91BCDE" width="265.824" height="13.429"/>
	<path fill="#E8BEBF" d="M299.93,187.504c-0.583,4.285-1.612,9.273-3.404,14.363h22.382c-1.313-5.054-1.928-10.003-2.148-14.363
		H299.93z"/>
	<path fill="#E8BEBF" d="M202.373,201.867c-1.792-5.089-2.821-10.078-3.404-14.363H182.14c-0.222,4.359-0.837,9.31-2.149,14.363
		H202.373z"/>
	<rect x="116.436" y="320.695" fill="#EEF0E5" width="265.824" height="14.362"/>
	<rect x="116.436" y="411.724" fill="#EEF0E5" width="265.824" height="14.363"/>
	<rect x="116.436" y="343.5" fill="#DAD07B" width="265.824" height="14.363"/>
	<rect x="116.436" y="266.638" fill="#DAD07B" width="265.824" height="14.361"/>
	<rect x="116.436" y="426.089" fill="#91BCDE" width="265.824" height="14.361"/>
	<rect x="116.436" y="240.26" fill="#E8BEBF" width="265.824" height="14.362"/>
	<rect x="116.436" y="293.015" fill="#DAD07B" width="265.824" height="14.362"/>
	<rect x="116.436" y="372.15" fill="#DAD07B" width="265.824" height="14.362"/>
	<rect x="116.436" y="440.412" fill="#DAD07B" width="265.824" height="14.363"/>
	<path fill="#DAD07B" d="M223.906,228.245c-6.896-3.66-11.957-8.754-15.656-14.363h-32.889c-2.873,5.351-6.883,10.351-12.439,14.363
		H223.906z"/>
	<path fill="#DAD07B" d="M274.992,228.245h60.983c-5.558-4.013-9.566-9.013-12.44-14.363h-32.888
		C286.948,219.491,281.889,224.585,274.992,228.245z"/>
</g>
</svg>
