<?xml version="1.0" encoding="utf-8"?>
<!-- Generator: Adobe Illustrator 18.0.0, SVG Export Plug-In . SVG Version: 6.00 Build 0)  -->
<!DOCTYPE svg PUBLIC "-//W3C//DTD SVG 1.1//EN" "http://www.w3.org/Graphics/SVG/1.1/DTD/svg11.dtd">
<svg version="1.1" id="content" xmlns="http://www.w3.org/2000/svg" xmlns:xlink="http://www.w3.org/1999/xlink" x="0px" y="0px"
	 width="500px" height="500px" viewBox="0 0 500 500" enable-background="new 0 0 500 500" xml:space="preserve">
<rect id="position" x="0.5" y="0.5" display="none" fill="none" stroke="#000000" width="499" height="499"/>
<g>
	<path fill="#7487CF" d="M382.4,258.9c-34.9-0.1-63.2-28.5-63.2-63.4c0,0,0-20.1,0-20.1h-6v20.1c0,35.2-63.7,75.8-63.7,75.8
		s-63.7-40.7-63.7-75.8v-20.1h-6c0,0,0,20.1,0,20.1c0,34.9-28.3,63.3-63.2,63.4l0,221.5h265.7L382.4,258.9z"/>
	<g>
		<path fill="#9DAADD" d="M116.7,262.6l0-7.3c32.8-0.1,59.5-26.9,59.5-59.8l0-20.1h7.3l0,20.1C183.5,232.4,153.6,262.5,116.7,262.6z
			"/>
	</g>
	<g>
		<path fill="#9DAADD" d="M382.4,262.6c-36.8-0.1-66.8-30.2-66.8-67.1l0-20.1h7.3l0,20.1c0,32.8,26.7,59.6,59.5,59.8L382.4,262.6z"
			/>
	</g>
	<g>
		<path fill="#9DAADD" d="M249.6,275.7l-2-1.3c-2.7-1.7-65.3-42.2-65.3-78.9v-20.1h7.3v20.1c0,13.3,10.6,30.1,30.6,48.4
			c12.3,11.2,24.7,19.9,29.4,23c4.7-3.2,17.2-11.9,29.4-23.1c20-18.3,30.6-35,30.6-48.3v-20.1h7.3v20.1c0,36.7-62.7,77.2-65.3,78.9
			L249.6,275.7z"/>
	</g>
	<g>
		<circle fill="#9DAADD" cx="249.5" cy="288.4" r="4.8"/>
	</g>
	<g>
		<circle fill="#9DAADD" cx="249.5" cy="304.8" r="4.8"/>
	</g>
</g>
</svg>
