<?xml version="1.0" encoding="utf-8"?>
<!-- Generator: Adobe Illustrator 18.0.0, SVG Export Plug-In . SVG Version: 6.00 Build 0)  -->
<!DOCTYPE svg PUBLIC "-//W3C//DTD SVG 1.1//EN" "http://www.w3.org/Graphics/SVG/1.1/DTD/svg11.dtd">
<svg version="1.1" id="content" xmlns="http://www.w3.org/2000/svg" xmlns:xlink="http://www.w3.org/1999/xlink" x="0px" y="0px"
	 width="500px" height="500px" viewBox="0 0 500 500" enable-background="new 0 0 500 500" xml:space="preserve">
<g id="bounds" display="none">
	<rect x="0.2" y="74.8" display="inline" fill="none" stroke="#EAEAEA" stroke-miterlimit="10" width="499.5" height="499.5"/>
</g>
<rect id="position" display="none" fill="none" stroke="#000000" width="500" height="500"/>
<g>
	<g>
		<path fill="#7487CF" d="M303.6,199.2c0,0,0-15.6,0-15.6H299v15.6c0,27.2-49.3,58.7-49.3,58.7s-49.3-31.5-49.3-58.7v-15.6h-4.6
			c0,0,0,15.6,0,15.6c0,27.1-21.9,49-48.9,49.1v108.2h205.7V248.3C325.5,248.2,303.6,226.2,303.6,199.2z"/>
	</g>
	<g>
		<path fill="#9DAADD" d="M146.9,251.1l0-5.7c25.4-0.1,46.1-20.8,46.1-46.3l0-15.6h5.7l0,15.6C198.6,227.7,175.4,251,146.9,251.1z"
			/>
	</g>
	<g>
		<path fill="#9DAADD" d="M352.5,251.1c-28.5-0.1-51.7-23.4-51.7-51.9l0-15.6h5.7l0,15.6c0,25.4,20.7,46.2,46.1,46.3L352.5,251.1z"
			/>
	</g>
	<g>
		<path fill="#9DAADD" d="M249.7,261.2l-1.5-1c-2.1-1.3-50.6-32.7-50.6-61.1v-15.6h5.7v15.6c0,22.8,38.3,49.8,46.5,55.3
			c8.2-5.5,46.5-32.6,46.5-55.3v-15.6h5.7v15.6c0,28.4-48.5,59.8-50.6,61.1L249.7,261.2z"/>
	</g>
	<g>
		<circle fill="#9DAADD" cx="249.7" cy="271.1" r="3.7"/>
	</g>
	<g>
		<circle fill="#9DAADD" cx="249.7" cy="283.8" r="3.7"/>
	</g>
	<g>
		<path fill="#0065C4" d="M147.1,341.6c-10.8,14.9-17.5,36-17.5,59.3c17.2,23.9,46.4,13.7,56,0c17.8-25.3,56,45.2,56,0
			c0-23.3-6.7-44.4-17.5-59.3H147.1z"/>
	</g>
	<g opacity="0.1">
		<path d="M171.9,411.7c5.8-2.7,10.7-6.6,13.7-10.9c17.8-25.3,56,45.2,56,0c0-23.3-6.7-44.4-17.5-59.3h-31.8
			c-10.8,14.9-22,44.9-22,68.2C170.9,410.4,171.4,411.1,171.9,411.7z"/>
	</g>
	<g>
		<path fill="#0065C4" d="M192.4,341.6c-10.8,14.9-16.6,44.9-16.6,68.2c17.2,23.9,64.4,17.7,74,4c17.8-25.3,10.8-57.3,0-72.2H192.4z
			"/>
	</g>
	<g>
		<path fill="#0065C4" d="M352.5,341.6c10.8,14.9,17.5,36,17.5,59.3c-17.2,23.9-46.4,13.7-56,0c-17.8-25.3-56,45.2-56,0
			c0-23.3,6.7-44.4,17.5-59.3H352.5z"/>
	</g>
	<g opacity="0.1">
		<path d="M327.7,411.7c-5.8-2.7-10.7-6.6-13.7-10.9c-17.8-25.3-56,45.2-56,0c0-23.3,6.7-44.4,17.5-59.3h31.8
			c10.8,14.9,22,44.9,22,68.2C328.7,410.4,328.2,411.1,327.7,411.7z"/>
	</g>
	<g>
		<path fill="#0065C4" d="M307.2,341.6c10.8,14.9,16.6,44.9,16.6,68.2c-17.2,23.9-64.4,17.7-74,4c-17.8-25.3-10.8-57.3,0-72.2H307.2
			z"/>
	</g>
	<g>
		<rect x="147.1" y="321.6" fill="#0065C4" width="205.5" height="20"/>
	</g>
	<g>
		<rect x="147.1" y="321.6" fill="#0045A5" width="205.5" height="10"/>
	</g>
	<g opacity="0.1">
		<path d="M247,416.7c1.1-0.9,2-1.9,2.8-2.9c0,0,0,0,0,0c0,0,0,0,0,0c0.6,0.9,1.5,1.8,2.4,2.7c1.1,1-2.6-60-2.6-60
			S245.9,417.7,247,416.7z"/>
	</g>
</g>
</svg>
