<?xml version="1.0" encoding="utf-8"?>
<!-- Generator: Adobe Illustrator 18.0.0, SVG Export Plug-In . SVG Version: 6.00 Build 0)  -->
<!DOCTYPE svg PUBLIC "-//W3C//DTD SVG 1.1//EN" "http://www.w3.org/Graphics/SVG/1.1/DTD/svg11.dtd">
<svg version="1.1" id="content" xmlns="http://www.w3.org/2000/svg" xmlns:xlink="http://www.w3.org/1999/xlink" x="0px" y="0px"
	 width="500px" height="500px" viewBox="0 0 500 500" enable-background="new 0 0 500 500" xml:space="preserve">
<rect id="position" x="0.5" y="0.5" display="none" fill="none" stroke="#000000" width="499" height="499"/>
<g>
	<path fill="#0065C4" d="M140.7,343.5c-11.4,15.8-18.5,38.2-18.5,62.9c18.3,25.4,49.2,14.5,59.4,0c18.9-26.9,59.4,47.9,59.4,0
		c0-24.8-7.1-47.1-18.5-62.9H140.7z"/>
	<path opacity="0.1" d="M167,418c6.2-2.8,11.4-7,14.6-11.5c18.9-26.9,59.4,47.9,59.4,0c0-24.8-7.1-47.1-18.5-62.9h-33.7
		c-11.4,15.8-23.4,47.6-23.4,72.4C165.9,416.6,166.5,417.3,167,418z"/>
	<path fill="#0065C4" d="M188.8,343.5c-11.4,15.8-17.6,47.6-17.6,72.4c18.3,25.4,68.3,18.8,78.5,4.3c18.9-26.9,11.4-60.8,0-76.7
		H188.8z"/>
	<path fill="#0065C4" d="M358.7,343.5c11.4,15.8,18.5,38.2,18.5,62.9c-18.3,25.4-49.2,14.5-59.4,0c-18.9-26.9-59.4,47.9-59.4,0
		c0-24.8,7.1-47.1,18.5-62.9H358.7z"/>
	<path opacity="0.1" d="M332.4,418c-6.2-2.8-11.4-7-14.6-11.5c-18.9-26.9-59.4,47.9-59.4,0c0-24.8,7.1-47.1,18.5-62.9h33.7
		c11.4,15.8,23.4,47.6,23.4,72.4C333.5,416.6,332.9,417.3,332.4,418z"/>
	<path fill="#0065C4" d="M310.6,343.5c11.4,15.8,17.6,47.6,17.6,72.4c-18.3,25.4-68.3,18.8-78.5,4.3c-18.9-26.9-11.4-60.8,0-76.7
		H310.6z"/>
	<rect x="140.7" y="322.3" fill="#0065C4" width="218.1" height="21.2"/>
	<rect x="140.7" y="322.3" fill="#0045A5" width="218.1" height="10.6"/>
	<path opacity="0.1" d="M246.7,423.3c1.2-1,2.2-2,2.9-3.1c0,0,0,0,0,0c0,0,0,0,0,0c0.7,1,1.6,1.9,2.6,2.8c1.2,1-2.7-63.7-2.7-63.7
		S245.6,424.3,246.7,423.3z"/>
</g>
</svg>
