<?xml version="1.0" encoding="utf-8"?>
<!-- Generator: Adobe Illustrator 14.0.0, SVG Export Plug-In . SVG Version: 6.00 Build 43363)  -->
<!DOCTYPE svg PUBLIC "-//W3C//DTD SVG 1.1//EN" "http://www.w3.org/Graphics/SVG/1.1/DTD/svg11.dtd">
<svg version="1.1" id="content" xmlns="http://www.w3.org/2000/svg" xmlns:xlink="http://www.w3.org/1999/xlink" x="0px" y="0px"
	 width="500px" height="500px" viewBox="0 0 500 500" enable-background="new 0 0 500 500" xml:space="preserve">
<g id="bounds" display="none">
	<rect x="-0.152" y="66.6" fill="none" stroke="#EAEAEA" stroke-miterlimit="10" width="499.5" height="499.5"/>
</g>
<g id="chooser">
	<path fill="#539DC1" d="M331.502,235.649h21.544v166.537H250.027H147.007V235.649h21.544c0,0,20.492-1.425,20.492-46.016
		c1.463,0,2.718,0,2.718,0h20.116c0,0-2.035,47.766,38.15,47.766c40.186,0,38.15-47.766,38.15-47.766h20.114
		C308.292,189.633,306.775,235.649,331.502,235.649z"/>
	<path fill="#64B7D8" d="M285.888,189.633c0,0,0.484,12.212-5.803,22.63c-9.865,16.708-30.237,16.199-30.237,16.199
		s-20.371,0.509-30.235-16.199c-6.288-10.418-5.803-22.63-5.803-22.63h-8.704c0,0,0.898,51.158,44.742,51.158
		c43.845,0,44.743-51.158,44.743-51.158H285.888z"/>
	<path fill="#64B7D8" d="M326.403,284.399c0,8.836-7.163,16-16,16h-13c-8.837,0-16-7.164-16-16v-14.5c0-8.836,7.163-16,16-16h13
		c8.837,0,16,7.164,16,16V284.399z"/>
	<path fill="#417E96" d="M357.384,427.009c-0.582-3.473-5.039-33.875-5.039-33.875c-3.3,12.447-13.009,14.002-13.009,14.002h-89.649
		h-89.649c0,0-9.903-2.775-13.201-15.223c0,0-4.46,30.401-5.042,33.873c-0.582,3.473-1.563,12.274,18.242,12.274
		s31.629,4.38,50.816,4.813c19.187,0.436,38.834,0,38.834,0s19.646,0.438,38.833,0c19.188-0.437,31.011-4.813,50.813-4.813
		C359.142,438.06,357.965,430.477,357.384,427.009z"/>
	<path fill="#539DC1" d="M357.326,420.666c-0.582-3.472-5.042-33.875-5.042-33.875c-3.296,12.445-12.946,12.254-12.946,12.254
		h-89.649H160.04c0,0-9.65,0.191-12.947-12.254c0,0-4.46,30.403-5.042,33.875c-0.581,3.471-1.816,9.305,17.988,9.305
		c19.806,0,31.629,4.38,50.815,4.813c19.188,0.436,38.834,0,38.834,0s19.646,0.438,38.835,0c19.186-0.437,31.009-4.813,50.813-4.813
		S357.907,424.134,357.326,420.666z"/>
</g>
<rect id="position" x="0" y="0" display="none" fill="none" stroke="#000000" width="500" height="500"/>
</svg>
