<?xml version="1.0" encoding="utf-8"?>
<!-- Generator: Adobe Illustrator 17.1.0, SVG Export Plug-In . SVG Version: 6.00 Build 0)  -->
<!DOCTYPE svg PUBLIC "-//W3C//DTD SVG 1.1//EN" "http://www.w3.org/Graphics/SVG/1.1/DTD/svg11.dtd">
<svg version="1.1" id="content" xmlns="http://www.w3.org/2000/svg" xmlns:xlink="http://www.w3.org/1999/xlink" x="0px" y="0px"
	 width="500px" height="500px" viewBox="0 0 500 500" enable-background="new 0 0 500 500" xml:space="preserve">
<rect id="position" x="0.5" y="0.5" display="none" fill="none" stroke="#000000" width="499" height="499"/>
<g id="top">
	<path fill="#C29F07" d="M358.7,285.4h-3c0,0,0,1.4,0,24.2s-14.2,28.2-14.2,28.2h-87.2h-95.9c0,0-14.2-5.3-14.2-28.2s0-24.2,0-24.2
		h-3c0,0-9.8,46.1-22.1,79.8c0,0,7.4,22.5,39.6,18.3c28.4,21.5,59,5.8,59,5.8c14,9.2,50.7,9.2,64.7,0c0,0,32.5,14,59-5.8
		c31.5,4.1,39.6-18.3,39.6-18.3C368.5,331.5,358.7,285.4,358.7,285.4z"/>
</g>
</svg>
