<?xml version="1.0" encoding="utf-8"?>
<!-- Generator: Adobe Illustrator 14.0.0, SVG Export Plug-In . SVG Version: 6.00 Build 43363)  -->
<!DOCTYPE svg PUBLIC "-//W3C//DTD SVG 1.1//EN" "http://www.w3.org/Graphics/SVG/1.1/DTD/svg11.dtd">
<svg version="1.1" id="content" xmlns="http://www.w3.org/2000/svg" xmlns:xlink="http://www.w3.org/1999/xlink" x="0px" y="0px"
	 width="500px" height="500px" viewBox="0 0 500 500" enable-background="new 0 0 500 500" xml:space="preserve">
<g id="bounds" display="none">
	<rect x="0.019" y="73.966" fill="none" stroke="#EAEAEA" stroke-miterlimit="10" width="499.5" height="499.5"/>
</g>
<g id="chooser">
	<path fill="#C29F07" d="M318.518,246.033c-14.605-17.969-9.498-60.225-8.779-63.767h-10.953
		c-1.736,26.798-16.828,56.267-48.822,56.267c-31.995,0-45.969-23.899-48.821-56.267h-10.953c0.718,3.542,7.212,47.339-8.779,63.767
		c-15.991,16.429-31.708,14.871-34.612,14.775v180.727h206.333V260.808C350.225,260.904,333.123,264.004,318.518,246.033z"/>
	<circle fill="#D6BB4C" cx="249.618" cy="260.283" r="5.75"/>
	<circle fill="#D6BB4C" cx="249.618" cy="294.385" r="5.75"/>
	<circle fill="#D6BB4C" cx="249.618" cy="328.482" r="5.75"/>
	<circle fill="#D6BB4C" cx="249.618" cy="362.58" r="5.75"/>
	<circle fill="#D6BB4C" cx="249.618" cy="396.679" r="5.75"/>
	<circle fill="#D6BB4C" cx="249.618" cy="428.123" r="5.75"/>
	<path fill="#D6BB4C" d="M348.526,263.531c-12.346,0-22.875-5.266-31.348-15.689c-13.775-16.949-10.965-52.364-9.727-63.075h-6.912
		c-2.582,28.378-18.986,56.267-50.577,56.267c-36.645,0-47.787-30.074-50.537-56.267h-6.778c2.05,11.946,5.939,45.136-9.958,63.145
		c-9.87,11.18-21.715,16.372-35.189,15.442c-0.31-0.021-0.563-0.037-0.753-0.045c-1.071-0.033-1.917-1.184-1.891-2.563
		c0.026-1.381,0.954-2.482,1.988-2.436c0.219,0.006,0.509,0.025,0.863,0.051c12.436,0.854,23.337-3.92,32.418-14.207
		c15.944-18.06,9.615-54.193,8.185-61.254c-0.151-0.75-0.025-1.549,0.342-2.162c0.368-0.612,0.934-0.974,1.535-0.974h10.953
		c0.985,0,1.815,0.955,1.928,2.218c2.174,24.658,12.074,54.05,46.895,54.05c29.975,0,45.147-27.108,46.889-53.975
		c0.084-1.295,0.926-2.292,1.934-2.292h10.953c0.604,0,1.168,0.359,1.535,0.972c0.367,0.613,0.494,1.411,0.342,2.16
		c-1.033,5.106-5.016,45.016,8.242,61.328c12.818,15.768,27.391,14.555,32.18,14.159c0.439-0.037,0.793-0.064,1.043-0.074
		c1.074-0.025,1.961,1.055,1.988,2.436s-0.816,2.527-1.891,2.564c-0.215,0.008-0.516,0.033-0.891,0.063
		C351.016,263.478,349.76,263.531,348.526,263.531z"/>
	<path fill="#D6BB4C" d="M288.912,273.857v28.225c0,2.211,1.791,4,4,4H324.6c2.209,0,4-1.789,4-4v-28.225H288.912z"/>
	<rect x="288.912" y="262.619" fill="#D6BB4C" width="39.688" height="7.238"/>
	<path fill="#C29F07" d="M353.139,356.83h-2.824c0,0,0,31.4,0,54.23c0,22.826-13.535,28.172-13.535,28.172h-82.879h-91.143
		c0,0-13.536-5.348-13.536-28.174s0-54.229,0-54.229h-2.824c0,0-9.285,46.148-21.001,79.816c0,0,7.042,22.479,37.6,18.334
		c27.022,21.5,56.044,5.75,56.044,5.75c13.304,9.25,48.156,9.25,61.458,0c0,0,30.871,14,56.043-5.75
		c29.906,4.146,37.602-18.334,37.602-18.334C362.426,402.98,353.139,356.83,353.139,356.83z"/>
</g>
<rect id="position" x="0" y="0" display="none" fill="none" stroke="#000000" width="500" height="500"/>
</svg>
