<?xml version="1.0" encoding="utf-8"?>
<!-- Generator: Adobe Illustrator 14.0.0, SVG Export Plug-In . SVG Version: 6.00 Build 43363)  -->
<!DOCTYPE svg PUBLIC "-//W3C//DTD SVG 1.1//EN" "http://www.w3.org/Graphics/SVG/1.1/DTD/svg11.dtd">
<svg version="1.1" id="content" xmlns="http://www.w3.org/2000/svg" xmlns:xlink="http://www.w3.org/1999/xlink" x="0px" y="0px"
	 width="500px" height="500px" viewBox="0 0 500 500" enable-background="new 0 0 500 500" xml:space="preserve">
<rect id="position" x="0.5" y="0.5" display="none" fill="none" stroke="#000000" width="499" height="499"/>
<g id="body">
	<path fill="#C29F07" d="M337.661,237c-18.817-17.969-12.235-60.225-11.312-63.767h-14.113
		c-2.238,26.798-21.682,56.267-62.905,56.267c-41.226,0-59.23-23.899-62.906-56.267h-14.113c0.925,3.542,9.293,47.339-11.312,63.767
		c-20.604,16.429-40.854,14.871-44.597,14.775v229.239h265.854V251.775C378.516,251.871,356.48,254.969,337.661,237z"/>
	<circle fill="#D6BB4C" cx="249.137" cy="251.25" r="5.75"/>
	<circle fill="#D6BB4C" cx="249.137" cy="285.35" r="5.75"/>
	<circle fill="#D6BB4C" cx="249.137" cy="319.448" r="5.75"/>
	<circle fill="#D6BB4C" cx="249.137" cy="353.547" r="5.75"/>
	<circle fill="#D6BB4C" cx="249.137" cy="387.646" r="5.75"/>
	<circle fill="#D6BB4C" cx="249.137" cy="421.746" r="5.75"/>
	<circle fill="#D6BB4C" cx="249.137" cy="455.846" r="5.75"/>
	<path fill="#D6BB4C" d="M376.323,254.498c-15.903,0-29.472-5.266-40.389-15.689c-17.75-16.949-14.126-52.364-12.531-63.075h-8.905
		C311.171,204.111,290.034,232,249.331,232c-47.217,0-61.572-30.074-65.115-56.267h-8.735c2.643,11.946,7.654,45.136-12.831,63.145
		c-12.717,11.181-27.979,16.371-45.34,15.443c-0.398-0.021-0.725-0.039-0.97-0.045c-1.38-0.035-2.471-1.183-2.437-2.563
		c0.035-1.381,1.229-2.481,2.563-2.436c0.281,0.007,0.654,0.026,1.111,0.051c16.021,0.854,30.069-3.92,41.771-14.206
		c20.543-18.06,12.388-54.193,10.544-61.254c-0.195-0.75-0.033-1.549,0.44-2.162c0.474-0.612,1.204-0.974,1.978-0.974h14.113
		c1.271,0,2.34,0.955,2.484,2.218c2.801,24.658,15.557,54.05,60.423,54.05c38.62,0,58.171-27.108,60.414-53.975
		c0.108-1.295,1.191-2.292,2.491-2.292h14.113c0.773,0,1.505,0.359,1.979,0.972c0.475,0.613,0.637,1.411,0.44,2.16
		c-1.333,5.106-6.464,45.016,10.619,61.328c16.515,15.769,35.292,14.556,41.464,14.158c0.566-0.037,1.018-0.064,1.342-0.073
		c1.384-0.025,2.527,1.055,2.563,2.436c0.034,1.381-1.056,2.527-2.437,2.563c-0.277,0.007-0.663,0.033-1.146,0.063
		C379.533,254.445,377.916,254.498,376.323,254.498z"/>
	<path fill="#D6BB4C" d="M288.431,264.824v28.225c0,2.21,1.791,4,4,4h31.687c2.209,0,4-1.79,4-4v-28.225H288.431z"/>
	<rect x="288.431" y="253.585" fill="#D6BB4C" width="39.687" height="7.239"/>
</g>
</svg>
