<?xml version="1.0" encoding="utf-8"?>
<!-- Generator: Adobe Illustrator 17.1.0, SVG Export Plug-In . SVG Version: 6.00 Build 0)  -->
<!DOCTYPE svg PUBLIC "-//W3C//DTD SVG 1.1//EN" "http://www.w3.org/Graphics/SVG/1.1/DTD/svg11.dtd">
<svg version="1.1" id="content" xmlns="http://www.w3.org/2000/svg" xmlns:xlink="http://www.w3.org/1999/xlink" x="0px" y="0px"
	 width="500px" height="500px" viewBox="0 0 500 500" enable-background="new 0 0 500 500" xml:space="preserve">
<rect id="position" x="0.5" y="0.5" display="none" fill="none" stroke="#000000" width="499" height="499"/>
<g id="top">
	<path fill="#E1E1E1" d="M357.5,305.5l-21.7,27H162.9l-21.7-27l-24.7,70.3c0,0,4.9,5.2,21.5,5.2c16.6,0,24.7-5.2,34.8-5.2
		s20.1,5.2,36.8,5.2s23.8-5.2,39.7-5.2c16,0,23.1,5.2,39.7,5.2s26.6-5.2,36.8-5.2c10.1,0,18.2,5.2,34.8,5.2
		c16.6,0,21.5-5.2,21.5-5.2L357.5,305.5z"/>
</g>
</svg>
