<?xml version="1.0" encoding="utf-8"?>
<!-- Generator: Adobe Illustrator 14.0.0, SVG Export Plug-In . SVG Version: 6.00 Build 43363)  -->
<!DOCTYPE svg PUBLIC "-//W3C//DTD SVG 1.1//EN" "http://www.w3.org/Graphics/SVG/1.1/DTD/svg11.dtd">
<svg version="1.1" id="content" xmlns="http://www.w3.org/2000/svg" xmlns:xlink="http://www.w3.org/1999/xlink" x="0px" y="0px"
	 width="500px" height="500px" viewBox="0 0 500 500" enable-background="new 0 0 500 500" xml:space="preserve">
<g id="body">
	<path fill="#E1E1E1" d="M364.25,272.5V267c0,0-29.046-65.5-63.41-83.75c0,0-36.311,15.5-47.332,52.25c-4.177,0-4.177,0-4.177,0
		s0,0-4.178,0c-11.021-36.75-47.333-52.25-47.333-52.25C163.456,201.5,134.411,267,134.411,267v5.5h-18.009v208.516h18.009H249.33
		h114.92h18.008V272.5H364.25z"/>
	<path fill="#C0C0C0" d="M229.593,173.233c0,0-53.766,22.267-95.181,99.267c0-10.25,0-6.879,0-6.879s19.751-65.654,63.625-92.388
		C222.893,173.233,229.593,173.233,229.593,173.233z"/>
	<path fill="#C0C0C0" d="M269.069,173.233c0,0,53.766,22.267,95.182,99.267c0-10.25,0-6.879,0-6.879s-19.752-65.654-63.627-92.388
		C275.769,173.233,269.069,173.233,269.069,173.233z"/>
	<path fill="#B1B1B1" d="M249.331,244.834c-69.019,0-133.577,27.667-133.577,27.667c0,16.833,0,16.916,0,16.916
		s64.559-27.708,133.577-27.708c69.017,0,133.575,27.708,133.575,27.708s0-0.083,0-16.916
		C382.906,272.501,318.349,244.834,249.331,244.834z"/>
	<path fill="none" stroke="#9B9B9B" stroke-width="3.493" stroke-miterlimit="10" d="M261.785,266.208
		c0,1.558-1.092,2.817-2.438,2.817H239.28c-1.345,0-2.436-1.261-2.436-2.817v-19.916c0-1.556,1.091-2.817,2.436-2.817h20.067
		c1.347,0,2.438,1.262,2.438,2.817V266.208z"/>
	<path fill="none" stroke="#FFFFFF" stroke-width="3.493" stroke-miterlimit="10" d="M261.785,263.48
		c0,1.557-1.092,2.816-2.438,2.816H239.28c-1.345,0-2.436-1.261-2.436-2.816v-19.916c0-1.556,1.091-2.818,2.436-2.818h20.067
		c1.347,0,2.438,1.263,2.438,2.818V263.48z"/>
</g>
<rect id="position" x="0.5" y="0.5" display="none" fill="none" stroke="#000000" width="499" height="499"/>
</svg>
