<?xml version="1.0" encoding="utf-8"?>
<!-- Generator: Adobe Illustrator 18.0.0, SVG Export Plug-In . SVG Version: 6.00 Build 0)  -->
<!DOCTYPE svg PUBLIC "-//W3C//DTD SVG 1.1//EN" "http://www.w3.org/Graphics/SVG/1.1/DTD/svg11.dtd">
<svg version="1.1" id="Layer_1" xmlns="http://www.w3.org/2000/svg" xmlns:xlink="http://www.w3.org/1999/xlink" x="0px" y="0px"
	 width="500px" height="500px" viewBox="0 0 500 500" enable-background="new 0 0 500 500" xml:space="preserve">
<rect x="0.5" y="0.5" display="none" fill="#FFFFFF" stroke="#000000" width="500" height="500"/>
<g>
	<path fill="#151515" d="M302,175.5c0,29-52.4,52.4-52.4,52.4s-52.4-23.5-52.4-52.4h-80.4v239.1v65.9h132.9h132.8v-65.9V175.5H302z"
		/>
	<path fill="#FFFFFF" d="M213.4,198.6l29.3,17.3c3.1,1.8,3.1,6.3,0,8.1l-29.3,17.3c-3.2,1.9-7.1-0.4-7.1-4.1v-34.5
		C206.3,199.1,210.3,196.8,213.4,198.6z"/>
	<path fill="#F2F2F2" d="M244.9,220.7c-0.2,1.3-1,2.6-2.3,3.3l-29.3,17.3c-3.2,1.9-7.1-0.4-7.1-4.1
		C206.3,237.2,245.2,218.9,244.9,220.7z"/>
	<path fill="#FFFFFF" d="M285.7,241.3L256.5,224c-3.1-1.8-3.1-6.3,0-8.1l29.3-17.3c3.2-1.9,7.1,0.4,7.1,4.1v34.5
		C292.8,240.9,288.9,243.2,285.7,241.3z"/>
	<path fill="#F2F2F2" d="M254.2,220.7c0.2,1.3,1,2.6,2.3,3.3l29.3,17.3c3.2,1.9,7.1-0.4,7.1-4.1
		C292.8,237.2,253.9,218.9,254.2,220.7z"/>
	<path fill="#CCCCCC" d="M241.5,221.8c0,0-27.5,10.2-31.4,11.7s-1.7,7.5,1.9,6c0,0-3-1.8-0.9-3.1C213.3,235,241.5,221.8,241.5,221.8
		z"/>
	<path fill="#CCCCCC" d="M257.6,221.8c0,0,27.5,10.2,31.4,11.7c3.9,1.4,1.7,7.5-1.9,6c0,0,3-1.8,0.9-3.1
		C285.9,235,257.6,221.8,257.6,221.8z"/>
	<circle fill="#FFFFFF" cx="249.6" cy="220" r="13.5"/>
	<path fill="#F2F2F2" d="M249.6,206.5c-0.5,0-1,0-1.4,0.1c5.4,0.6,9.6,5.2,9.6,10.8c0,6-4.8,10.8-10.8,10.8
		c-5.6,0-10.1-4.2-10.8-9.6c0,0.5-0.1,0.9-0.1,1.4c0,7.5,6,13.5,13.5,13.5c7.5,0,13.5-6,13.5-13.5
		C263.1,212.5,257,206.5,249.6,206.5z"/>
</g>
</svg>
