<?xml version="1.0" encoding="utf-8"?>
<!-- Generator: Adobe Illustrator 18.0.0, SVG Export Plug-In . SVG Version: 6.00 Build 0)  -->
<!DOCTYPE svg PUBLIC "-//W3C//DTD SVG 1.1//EN" "http://www.w3.org/Graphics/SVG/1.1/DTD/svg11.dtd">
<svg version="1.1" id="Layer_1" xmlns="http://www.w3.org/2000/svg" xmlns:xlink="http://www.w3.org/1999/xlink" x="0px" y="0px"
	 width="500px" height="500px" viewBox="0 0 500 500" enable-background="new 0 0 500 500" xml:space="preserve">
<rect x="0.5" y="0.5" display="none" fill="#FFFFFF" stroke="#000000" width="500" height="500"/>
<path fill="#E0E0E0" d="M301.2,175.5c0,0-3.8,1.4-5.9,6c-3.6-3.1-19.2-0.1-22.4,7.3c-14.1-3.6-20.9,5.4-20.9,5.4h-2.5H247
	c0,0-6.8-9-20.9-5.4c-3.1-7.4-18.8-10.5-22.4-7.3c-2.1-4.6-5.9-6-5.9-6h-81.2v305h132.8l0,0h132.8v-305H301.2z"/>
<path fill="#CECECE" d="M249.6,242.5c-83.7,0-132.9-25.7-132.9-25.7s0,8,0,38.7c38.5,28.8,132.9,29.3,132.9,29.3
	s94.4-0.5,132.8-29.3c0-30.7,0-38.7,0-38.7S333.3,242.5,249.6,242.5z"/>
</svg>
