<?xml version="1.0" encoding="utf-8"?>
<!-- Generator: Adobe Illustrator 18.0.0, SVG Export Plug-In . SVG Version: 6.00 Build 0)  -->
<!DOCTYPE svg PUBLIC "-//W3C//DTD SVG 1.1 Basic//EN" "http://www.w3.org/Graphics/SVG/1.1/DTD/svg11-basic.dtd">
<svg version="1.1" baseProfile="basic" id="content"
	 xmlns="http://www.w3.org/2000/svg" xmlns:xlink="http://www.w3.org/1999/xlink" x="0px" y="0px" viewBox="0 0 500 500"
	 xml:space="preserve">
<rect id="position" x="0.5" y="0.5" display="none" fill="none" stroke="#000000" width="499" height="499"/>
<g id="bounds" display="none">
	<rect x="-0.2" y="80.4" display="inline" fill="none" stroke="#EAEAEA" stroke-miterlimit="10" width="499.5" height="499.5"/>
</g>
<g>
	<path fill="#151515" d="M299.3,179.3c0,27.3-49.3,49.3-49.3,49.3s-49.3-22-49.3-49.3H125v225h250v-225H299.3z"/>
	<path fill="#FFFFFF" d="M216,220.3l27.5,16.2c2.9,1.7,2.9,5.9,0,7.7L216,260.4c-2.9,1.7-6.8-0.3-6.8-3.8v-32.5
		C209.3,220.7,213,218.6,216,220.3z"/>
	<path fill="#F2F2F2" d="M245.7,241.1c-0.2,1.3-0.9,2.4-2.1,3.1l-27.5,16.2c-2.9,1.7-6.8-0.3-6.8-3.8
		C209.3,256.6,245.9,239.5,245.7,241.1z"/>
	<path fill="#FFFFFF" d="M284,260.4l-27.5-16.2c-2.9-1.7-2.9-5.9,0-7.7l27.5-16.2c2.9-1.7,6.8,0.3,6.8,3.8v32.5
		C290.7,260.1,287,262.2,284,260.4z"/>
	<path fill="#F2F2F2" d="M254.3,241.1c0.2,1.3,0.9,2.4,2.1,3.1l27.5,16.2c2.9,1.7,6.8-0.3,6.8-3.8
		C290.7,256.6,254.1,239.5,254.3,241.1z"/>
	<path fill="#CCCCCC" d="M242.4,242.1c0,0-25.9,9.7-29.5,11c-3.6,1.4-1.6,7.1,1.9,5.6c0,0-2.8-1.7-0.8-2.9
		C216,254.6,242.4,242.1,242.4,242.1z"/>
	<path fill="#CCCCCC" d="M257.6,242.1c0,0,25.9,9.7,29.5,11c3.6,1.4,1.6,7.1-1.9,5.6c0,0,2.8-1.7,0.8-2.9
		C284,254.6,257.6,242.1,257.6,242.1z"/>
	<circle fill="#FFFFFF" cx="250" cy="240.4" r="12.7"/>
	<path fill="#F2F2F2" d="M250,227.7c-0.5,0-0.9,0-1.3,0.1c5.1,0.6,9,4.9,9,10.1c0,5.6-4.5,10.1-10.1,10.1c-5.2,0-9.6-4-10.1-9
		c0,0.5-0.1,0.9-0.1,1.3c0,7,5.7,12.7,12.7,12.7c7,0,12.7-5.7,12.7-12.7C262.7,233.4,257,227.7,250,227.7z"/>
	<path fill="#FFFFFF" d="M131.7,389.9c-12.4,17.1-20.1,41.4-20.1,68.3c19.8,27.6,53.4,15.7,64.5,0c20.5-29.1,64.5,52,64.5,0
		c0-26.9-7.7-51.2-20.1-68.3H131.7z"/>
	<path opacity="0.1" d="M160.3,470.7c6.8-3,12.4-7.6,15.9-12.5c20.5-29.1,64.5,52,64.5,0c0-26.9-7.7-51.2-20.1-68.3H184
		c-12.4,17.1-25.3,51.7-25.3,78.6C159.1,469.2,159.6,470,160.3,470.7z"/>
	<path fill="#FFFFFF" d="M183.9,389.9c-12.4,17.1-19.1,51.7-19.1,78.6c19.8,27.6,74.2,20.4,85.2,4.7c20.5-29.1,12.4-66,0-83.1h-66.1
		V389.9z"/>
	<path fill="#FFFFFF" d="M368.3,389.9c12.4,17.1,20.1,41.4,20.1,68.3c-19.8,27.6-53.4,15.7-64.5,0c-20.5-29.1-64.5,52-64.5,0
		c0-26.9,7.7-51.2,20.1-68.3H368.3z"/>
	<path opacity="0.1" d="M339.7,470.7c-6.8-3-12.4-7.6-15.9-12.5c-20.5-29.1-64.5,52-64.5,0c0-26.9,7.7-51.2,20.1-68.3H316
		c12.4,17.1,25.3,51.7,25.3,78.6C340.9,469.2,340.4,470,339.7,470.7z"/>
	<path fill="#FFFFFF" d="M316.1,389.9c12.4,17.1,19.1,51.7,19.1,78.6c-19.8,27.6-74.2,20.4-85.2,4.7c-20.5-29.1-12.4-66,0-83.1h66.1
		V389.9z"/>
	<path opacity="0.1" d="M246.9,476.4c1.3-1,2.3-2.2,3.1-3.4l0,0l0,0c0.7,1,1.7,2.1,2.8,3c1.3,1.2-2.9-69.1-2.9-69.1
		S245.6,477.4,246.9,476.4z"/>
	<path fill="#151515" d="M125.2,371.3c-13.1,18.1-21.2,43.7-21.2,72.1c20.9,29.1,56.4,16.6,68.1,0c21.6-30.8,68.1,54.9,68.1,0
		c0-28.3-8.2-54-21.2-72.1H125.2z"/>
	<path fill="#151515" d="M180.3,371.3c-13.1,18.1-20.2,54.6-20.2,82.9c20.9,29.1,78.2,21.5,89.9,4.9c21.6-30.8,13.1-69.6,0-87.8
		H180.3z"/>
	<path fill="#151515" d="M374.9,371.3c13.1,18.1,21.2,43.7,21.2,72.1c-20.9,29.1-56.4,16.6-68.1,0c-21.6-30.8-68.1,54.9-68.1,0
		c0-28.3,8.2-54,21.2-72.1H374.9z"/>
	<path fill="#151515" d="M319.7,371.3c13.1,18.1,20.2,54.6,20.2,82.9c-20.9,29.1-78.2,21.5-89.9,4.9c-21.6-30.8-13.1-69.6,0-87.8
		H319.7z"/>
	<path opacity="0.1" d="M135.3,253.9l0.1-35.9c0-17.7-14.5-32.1-32.2-32.1c-9.8,0-17.6,4.5-23.3,10c-0.2,1.3-0.2,2.6-0.2,4v39.8
		C92.6,250.8,113.2,253.9,135.3,253.9z"/>
	<path fill="#FFFFFF" d="M133.3,246.5l-0.5-30.9c0-16.3-10.7-29.6-27.1-29.6c-23.2,0-33.2,25.4-33.2,25.4
		C77.3,240.2,102.4,246.5,133.3,246.5z"/>
	<path fill="#151515" d="M79.5,195.6c1.3,29.6,25.8,53.2,55.6,53.2c0.1,0,0.1,0,0.2,0V199c0-15.5-12.6-28.1-28.1-28.1
		C93.1,170.9,81.2,181.7,79.5,195.6z"/>
	<path opacity="0.1" d="M364.7,253.9l-0.1-35.9c0-17.7,14.5-32.1,32.2-32.1c9.8,0,17.6,4.5,23.3,10c0.2,1.3,0.2,2.6,0.2,4v39.8
		C407.4,250.8,386.8,253.9,364.7,253.9z"/>
	<path fill="#FFFFFF" d="M366.7,246.5l0.5-30.9c0-16.3,10.7-29.6,27.1-29.6c23.2,0,33.2,25.4,33.2,25.4
		C422.7,240.2,397.6,246.5,366.7,246.5z"/>
	<path fill="#151515" d="M420.5,195.6c-1.3,29.6-25.8,53.2-55.6,53.2c-0.1,0-0.1,0-0.2,0V199c0-15.5,12.6-28.1,28.1-28.1
		C406.9,170.9,418.8,181.7,420.5,195.6z"/>
	<rect x="224" y="337.9" opacity="0.1" width="5.9" height="7.6"/>
</g>
</svg>
