<?xml version="1.0" encoding="utf-8"?>
<!-- Generator: Adobe Illustrator 18.0.0, SVG Export Plug-In . SVG Version: 6.00 Build 0)  -->
<!DOCTYPE svg PUBLIC "-//W3C//DTD SVG 1.1//EN" "http://www.w3.org/Graphics/SVG/1.1/DTD/svg11.dtd">
<svg version="1.1" id="content" xmlns="http://www.w3.org/2000/svg" xmlns:xlink="http://www.w3.org/1999/xlink" x="0px" y="0px"
	 width="500px" height="500px" viewBox="0 0 500 500" enable-background="new 0 0 500 500" xml:space="preserve">
<rect id="position" x="0.5" y="0.5" display="none" fill="none" stroke="#000000" width="499" height="499"/>
<g id="bounds" display="none">
	<rect x="-0.2" y="80.4" display="inline" fill="none" stroke="#EAEAEA" stroke-miterlimit="10" width="499.5" height="499.5"/>
</g>
<g>
	<path fill="#FFCED3" d="M358,175.6h-35.2c0,0-21.4,51.4-74.1,51.4s-73.2-51.1-73.2-51.1l-33.9,0.1v248.6h216.5L358,175.6L358,175.6
		z"/>
	<path opacity="0.4" fill="#FFCED3" enable-background="new    " d="M325,175.6c0,0-29.5,57.5-76.4,57.5S172.4,176,172.4,176
		s48.1,29.5,76.6,29.5S325,175.6,325,175.6z"/>
	<path opacity="0.4" fill="#FFCED3" enable-background="new    " d="M323.6,175.6c0,0-28.1,55.1-74.8,55.1s-75-54.7-75-54.7
		s27.2,39.3,75.5,39.3S323.6,175.6,323.6,175.6z"/>
	<path fill="#AB8980" d="M257.4,190.8"/>
	<path fill="#AB8980" d="M302.1,206.1c-0.8,2.8-4.5,4.9-14.3,5.3c-13.2,0.5-14.6,11.4-14.1,15.9c0.1-0.3,0.3-0.5,0.4-0.8
		c0.4-0.5,0.8-1.2,1.2-1.8c0.4-0.6,0.9-1.3,1.4-1.9s1-1.3,1.7-1.8c0.6-0.5,1.3-1.2,1.9-1.7s1.4-1,2.1-1.5c0.6-0.5,1.4-0.9,2.1-1.3
		c1.4-0.8,2.8-1.3,4-1.7c1.3-0.4,2.3-0.5,3-0.5c0.8-0.1,1.2-0.1,1.2-0.1s-0.4,0.1-1.2,0.3c-0.8,0.1-1.7,0.4-2.8,0.8
		c-1.2,0.4-2.4,1-3.7,1.9c-0.5,0.5-1.3,0.9-1.9,1.4c-0.6,0.5-1.3,1-1.8,1.7c-0.5,0.5-1.2,1.2-1.7,1.8s-1,1.3-1.4,1.9
		s-0.8,1.3-1.2,1.9c-0.4,0.5-0.6,1.3-0.9,1.7c-0.5,1-0.8,2.1-1,2.7l0,0c2.1,2.6,6.7,4,10.5,2.6l3.9-1.4l-2.7-1.9l4.4,0.5l4.8-3
		l-4.6-1.5l5.3,0.1l2.7-6.5l-4.6-0.8l5-0.8C303.4,214.3,303,203.2,302.1,206.1z"/>
	<path fill="#AB8980" d="M306.7,189c0.5,3.9,1.4,5-0.6,10c-1,2.6-3,4.6-3,4.6l1.4-0.1c0,0-1.9,3.3-3.5,4.6c-2.8,2.3-6.3,3-7.7,3
		c0.1-0.1,0.4-0.1,0.5-0.4c0.4-0.3,0.8-0.5,1.3-0.8c0.5-0.3,0.9-0.6,1.4-1c0.5-0.4,0.9-0.8,1.4-1.3c0.4-0.4,0.9-0.9,1.3-1.4
		c1.3-1.4,2.6-4,2.6-4s-1.4,1.7-1.8,2.2c-0.4,0.4-0.8,0.9-1.3,1.3c-0.4,0.4-0.9,0.8-1.3,1.3c-0.5,0.4-0.9,0.8-1.4,1
		c-0.5,0.4-0.9,0.5-1.3,0.8c-0.4,0.3-0.8,0.5-1.3,0.6c-0.8,0.4-1.4,0.6-1.9,0.8l0,0c-1.4-1.4-1.9-4.4-0.6-7.1l1.3-2.7l1,1.8l0.1-3
		l2.4-3.5l0.5,3.1l0.4-3.6c0,0,2.3,0.5,5.3-0.8C304.8,193.2,305.7,192.2,306.7,189z"/>
	<path fill="#FFCED3" d="M358,375.1H141.5l-8.9,47.4c0,28.5,49.7,51.5,117.1,51.5s117.1-23.1,117.1-51.5L358,375.1z"/>
	<path opacity="0.25" fill="#AB8980" enable-background="new    " d="M358,370.1c-5.6,4.9-13.4,9.4-22.7,13.4
		c-22.9,9.6-53.2,14.9-85.5,14.9s-62.7-5.3-85.5-14.9c-9.4-4-17.1-8.5-22.7-13.4v5c5.6,4.4,12.7,8.3,21.2,11.9
		c23.2,9.9,54.2,15.3,87,15.3s63.7-5.4,87-15.3c8.5-3.6,15.5-7.6,21.2-11.9L358,370.1L358,370.1z"/>
	<g>
		<path fill="#FFCED3" d="M358,175.5l-45.2,45.2l60.9,60.9l45.2-45.2l-8.1-8.2L358,175.5z"/>
		
			<rect x="370.2" y="256.5" transform="matrix(-0.7071 0.7071 -0.7071 -0.7071 873.6592 167.7225)" opacity="0.4" fill="#FFCED3" enable-background="new    " width="63.8" height="16.6"/>
		
			<rect x="382.9" y="268" transform="matrix(-0.7071 0.7071 -0.7071 -0.7071 904.377 180.565)" opacity="0.4" fill="#FFCED3" enable-background="new    " width="63.8" height="19.3"/>
		
			<rect x="382.9" y="268" transform="matrix(-0.7071 0.7071 -0.7071 -0.7071 904.377 180.565)" opacity="0.4" fill="#FFCED3" enable-background="new    " width="63.8" height="19.3"/>
	</g>
	<g>
		<path fill="#FFCED3" d="M89.2,228.3l-8.1,8.2l45.2,45.2l60.9-60.9L142,175.6L89.2,228.3z"/>
		
			<rect x="65.8" y="256.6" transform="matrix(0.7071 0.7071 -0.7071 0.7071 215.8937 8.4843)" opacity="0.4" fill="#FFCED3" enable-background="new    " width="63.8" height="16.6"/>
		
			<rect x="53.4" y="267.9" transform="matrix(0.7071 0.7071 -0.7071 0.7071 221.1911 20.9733)" opacity="0.4" fill="#FFCED3" enable-background="new    " width="63.8" height="19.3"/>
		
			<rect x="53.4" y="267.9" transform="matrix(0.7071 0.7071 -0.7071 0.7071 221.1911 20.9733)" opacity="0.4" fill="#FFCED3" enable-background="new    " width="63.8" height="19.3"/>
	</g>
</g>
</svg>
