<?xml version="1.0" encoding="utf-8"?>
<!-- Generator: Adobe Illustrator 17.1.0, SVG Export Plug-In . SVG Version: 6.00 Build 0)  -->
<!DOCTYPE svg PUBLIC "-//W3C//DTD SVG 1.1//EN" "http://www.w3.org/Graphics/SVG/1.1/DTD/svg11.dtd">
<svg version="1.1" id="Layer_1" xmlns="http://www.w3.org/2000/svg" xmlns:xlink="http://www.w3.org/1999/xlink" x="0px" y="0px"
	 width="500px" height="500px" viewBox="0 0 500 500" enable-background="new 0 0 500 500" xml:space="preserve">
<rect x="0.5" y="0.5" display="none" fill="#FFFFFF" stroke="#000000" width="500" height="500"/>
<g>
	<path fill="#FFFFFF" d="M145.8,343c-10.9,15.1-17.7,73.5-17.7,73.2c17.5,24.3,47.1,13.9,56.8,0c18-25.7,56.8,45.8,56.8,0
		c0,0.3-6.8-59-17.7-74.2L145.8,343z"/>
	<path opacity="0.1" enable-background="new    " d="M170.9,427.2c5.9-2.7,10.9-6.7,13.9-11c18-25.7,56.8,45.8,56.8,0
		c0-23.7-6.8-60-17.7-75.2h-32.2c-10.9,15.1-22.3,60.5-22.3,84.2C169.9,425.9,170.4,426.5,170.9,427.2z"/>
	<path fill="#FFFFFF" d="M191.7,343c-10.9,15.1-16.8,58.5-16.8,82.2c17.5,24.3,65.3,17.9,75,4.1c18-25.7,10.9-71.1,0-86.3H191.7
		L191.7,343z"/>
	<path fill="#FFFFFF" d="M354.1,342c10.9,15.1,17.7,50.5,17.7,74.2c-17.5,24.3-47.1,13.9-56.8,0c-18-25.7-56.8,45.8-56.8,0
		c0-23.7,6.8-51,17.7-66.2L354.1,342z"/>
	<path opacity="0.1" enable-background="new    " d="M328.9,427.2c-5.9-2.7-10.9-6.7-13.9-11c-18-25.7-56.8,45.8-56.8,0
		c0-23.7,6.8-59,17.7-74.2l32.2,8c10.9,15.1,22.3,51.5,22.3,75.2C330,425.9,329.5,426.5,328.9,427.2z"/>
	<path fill="#FFFFFF" d="M308.2,342c10.9,15.1,16.8,59.5,16.8,83.2c-17.5,24.3-65.3,17.9-75,4.1c-18-25.7-10.9-72.1,0-87.3H308.2z"
		/>
	<path opacity="0.1" enable-background="new    " d="M247.1,432.2c1.1-0.9,2.1-1.9,2.8-3l0,0l0,0c0.7,0.9,1.5,1.8,2.5,2.7
		c1.1,1-2.6-83.9-2.6-83.9S246,433.2,247.1,432.2z"/>
	<path fill="#151515" d="M358.4,316.7C358.2,316.4,358.4,316.7,358.4,316.7c-4.1,24.4-24.2,22.5-24.2,22.5H250h-84.2
		c0,0-20.1,1.9-24.2-22.5c0,0,0.2-0.2,0,0c-11.2,15.9-20.2,61.9-20.2,86.4c14,19.5,35.4,17.8,49.4,9.4v0.1
		c18.4,25.6,68.9,18.9,79.2,4.3l0,0l0,0c10.3,14.6,60.7,21.3,79.2-4.3v-0.1c14,8.4,35.4,10.1,49.4-9.4
		C378.5,378.6,369.6,332.6,358.4,316.7z"/>
</g>
</svg>
