<?xml version="1.0" encoding="utf-8"?>
<!-- Generator: Adobe Illustrator 18.0.0, SVG Export Plug-In . SVG Version: 6.00 Build 0)  -->
<!DOCTYPE svg PUBLIC "-//W3C//DTD SVG 1.1 Basic//EN" "http://www.w3.org/Graphics/SVG/1.1/DTD/svg11-basic.dtd">
<svg version="1.1" baseProfile="basic" id="content"
	 xmlns="http://www.w3.org/2000/svg" xmlns:xlink="http://www.w3.org/1999/xlink" x="0px" y="0px" viewBox="0 0 500 500"
	 xml:space="preserve">
<rect id="position" x="0.5" y="0.5" display="none" fill="none" stroke="#000000" width="499" height="499"/>
<g id="bounds">
	<rect x="-0.2" y="80.4" fill="none" stroke="#EAEAEA" stroke-miterlimit="10" width="499.5" height="499.5"/>
</g>
<g>
	<path fill="#E0E0E0" d="M159.3,439h180.4c10.6,0,19.1-11.5,19.1-25.5l-1.2-237.9h-56.3c0,0-3.7,1.9-5.9,8
		c-3.6-4.1-19.3-0.1-22.5,9.8c-14.2-4.8-21,7.2-21,7.2h-2.5h-2.5c0,0-6.8-12-21-7.2c-3.1-9.9-18.9-14-22.5-9.8c-2.1-6.2-5.9-8-5.9-8
		h-56.3l-1.2,237.9C140.2,427.6,148.8,439,159.3,439z"/>
	<path fill="#CECECE" d="M140.2,299.1c44.1,22.2,109.4,22.7,109.4,22.7s65.1-0.4,109.4-22.7v-55.8c-22.3,9.8-59.8,21.8-109.4,21.8
		s-87.1-12-109.4-21.8L140.2,299.1L140.2,299.1z"/>
	<path fill="#E0E0E0" d="M141.4,175.5l-68.6,45.3l48,54.3l21.8-12.8L141.4,175.5z"/>
	<path fill="#E0E0E0" d="M356.5,261l21.8,14.2l48-54.3l-68.6-45.3L356.5,261z"/>
	<path fill="#E0E0E0" d="M376.5,416c-11.1-53-22.9-69-22.9-69s1.3,20.3,1.3,52.6s-14.6,31.7-14.6,31.7h-90.8h-90.8
		c0,0-14.6,0.4-14.6-31.7s1.3-52.6,1.3-52.6s-11.9,16-23,69c-4.5,19.4-17.5,21.3-17.5,21.3s41.5,53.4,89.5,24.1
		c30.8,23.3,55.1,19.7,55.1,19.7s24.3,3.6,55.1-19.7c47.9,29.3,89.5-24.1,89.5-24.1S381.1,435.5,376.5,416z"/>
	<path fill="#E0E0E0" d="M122.8,274.2L140,263c16.6-10.8,21.1-33.2,10.3-49.6c-10.8-16.6-33.2-21.1-49.6-10.3l-17.1,11.2
		c0,0-10.3,6.3-18.7-1.6c-9.5,10.2-0.3,23,5.1,25c-15.8,10.4-6.7,26.7-3.9,31.2c2.8,4.3,14.3,19.1,30.1,8.8
		c-0.3,5.8,7.8,19.4,20.9,14.6C112.9,281.2,122.8,274.2,122.8,274.2z"/>
	<path fill="#E0E0E0" d="M376.3,274.2L359.1,263c-16.6-10.8-21.1-33.2-10.3-49.6c10.8-16.6,33.2-21.1,49.6-10.3l17.1,11.2
		c0,0,10.3,6.3,18.7-1.6c9.5,10.2,0.3,23-5.1,25c15.8,10.4,6.7,26.7,3.9,31.2c-2.8,4.3-14.3,19.1-30.1,8.8
		c0.3,5.8-7.8,19.4-20.9,14.6C386.2,281.2,376.3,274.2,376.3,274.2z"/>
</g>
</svg>
