<?xml version="1.0" encoding="utf-8"?>
<!-- Generator: Adobe Illustrator 18.0.0, SVG Export Plug-In . SVG Version: 6.00 Build 0)  -->
<!DOCTYPE svg PUBLIC "-//W3C//DTD SVG 1.1//EN" "http://www.w3.org/Graphics/SVG/1.1/DTD/svg11.dtd">
<svg version="1.1" id="content" xmlns="http://www.w3.org/2000/svg" xmlns:xlink="http://www.w3.org/1999/xlink" x="0px" y="0px"
	 width="500px" height="500px" viewBox="0 0 500 500" enable-background="new 0 0 500 500" xml:space="preserve">
<rect id="position" x="0.5" y="0.5" display="none" fill="none" stroke="#000000" width="499" height="499"/>
<g>
	<path fill="#FFCED3" d="M382.4,175h-43.2c0,0-26.4,63.1-91,63.1s-89.9-62.7-89.9-62.7l-41.7,0.2v304.8h265.8L382.4,175L382.4,175z"
		/>
	<g>
		<path fill="#FFCED3" d="M359.7,175H324c0,0-21.8,52.1-75.1,52.1s-74.2-51.8-74.2-51.8l-34.4,0.2v196.8h219.5L359.7,175L359.7,175z
			"/>
		<path opacity="0.4" fill="#FFCED3" enable-background="new    " d="M326.4,175c0,0-30,58.4-77.5,58.4s-77.2-58-77.2-58
			s48.9,29.9,77.7,29.9S326.4,175,326.4,175z"/>
		<path opacity="0.4" fill="#FFCED3" enable-background="new    " d="M324.9,175.1c0,0-28.6,55.8-76,55.8s-76-55.5-76-55.5
			s27.6,39.9,76.5,39.9S324.9,175.1,324.9,175.1z"/>
		<path fill="#AB8980" d="M257.8,190.4"/>
		<path fill="#AB8980" d="M303.2,205.9c-0.7,2.9-4.5,5-14.5,5.3c-13.5,0.5-14.9,11.6-14.4,16.1c0.2-0.2,0.2-0.5,0.4-0.7
			c0.3-0.6,0.7-1.2,1.2-1.8s0.9-1.2,1.4-1.9s1.1-1.2,1.7-1.8c0.7-0.6,1.2-1.2,1.9-1.7c0.7-0.6,1.4-1.1,2.1-1.6s1.4-0.9,2.1-1.3
			c1.4-0.8,2.9-1.3,4-1.7c1.2-0.3,2.3-0.5,3.1-0.6c0.7-0.1,1.2-0.1,1.2-0.1s-0.4,0.1-1.2,0.2c-0.7,0.2-1.7,0.4-2.9,0.8
			c-1.2,0.4-2.5,1.1-3.8,2c-0.6,0.5-1.3,0.9-1.9,1.5c-0.7,0.5-1.2,1.1-1.8,1.7c-0.6,0.6-1.2,1.2-1.7,1.8c-0.5,0.7-1,1.2-1.4,1.9
			s-0.8,1.2-1.2,1.9c-0.3,0.6-0.7,1.2-0.9,1.7c-0.5,1.1-0.8,2.1-1,2.7l0,0c2.1,2.6,6.8,4,10.7,2.6l3.9-1.4l-2.7-1.9l4.4,0.6l4.9-3.1
			l-4.7-1.6l5.4,0.2l2.7-6.7l-4.6-0.7l5-0.7C304.5,214.3,304,203,303.2,205.9z"/>
		<path fill="#AB8980" d="M307.9,188.5c0.6,3.9,1.5,5.1-0.7,10.2c-1.1,2.6-3.1,4.6-3.1,4.6l1.4-0.2c0,0-1.9,3.4-3.6,4.7
			c-2.9,2.3-6.4,3.1-7.8,3c0.2-0.1,0.3-0.2,0.6-0.3c0.4-0.2,0.8-0.5,1.3-0.8s0.9-0.7,1.4-1.1c0.5-0.4,0.9-0.8,1.4-1.2
			c0.4-0.4,0.9-0.9,1.3-1.4c1.3-1.5,2.6-4,2.6-4s-1.4,1.7-1.8,2.2c-0.4,0.4-0.8,0.9-1.3,1.3c-0.4,0.4-0.9,0.8-1.3,1.2
			c-0.5,0.4-0.9,0.7-1.4,1.1c-0.5,0.3-0.9,0.6-1.3,0.8s-0.8,0.5-1.2,0.7c-0.7,0.4-1.4,0.7-1.9,0.8l0,0c-1.5-1.4-2-4.5-0.7-7.2
			l1.3-2.7l1,1.8l0.1-3l2.5-3.5l0.6,3.1l0.4-3.6c0,0,2.3,0.6,5.3-0.8C305.8,192.8,306.7,191.8,307.9,188.5z"/>
	</g>
</g>
</svg>
