<?xml version="1.0" encoding="utf-8"?>
<!-- Generator: Adobe Illustrator 18.0.0, SVG Export Plug-In . SVG Version: 6.00 Build 0)  -->
<!DOCTYPE svg PUBLIC "-//W3C//DTD SVG 1.1//EN" "http://www.w3.org/Graphics/SVG/1.1/DTD/svg11.dtd">
<svg version="1.1" id="content" xmlns="http://www.w3.org/2000/svg" xmlns:xlink="http://www.w3.org/1999/xlink" x="0px" y="0px"
	 width="500px" height="500px" viewBox="0 0 500 500" enable-background="new 0 0 500 500" xml:space="preserve">
<g id="bounds" display="none">
	<rect x="0.1" y="78.6" display="inline" fill="none" stroke="#EAEAEA" stroke-miterlimit="10" width="499.5" height="499.5"/>
</g>
<rect id="position" x="0.5" y="0.5" display="none" fill="none" stroke="#000000" width="499" height="499"/>
<g id="chooser">
	<path fill="#EBEBEB" d="M379.8,192.9l-18.7-14.3H358v46.6l-5.6,20.3v-66.8h-32.7c-2.1,11.7-17.4,87.9-69.8,131.2
		c-52.4-43.3-67.8-119.5-69.8-131.2h-33.6v56.4l-4.7-17.3v-39.3h-3.1L120,191.2l-55.7,71v181h61.3V280.3l20.9-3.5v207.6h206V278.1
		l21.8,3.9v162.9h61.3v-181L379.8,192.9z"/>
	<path fill="#C5C5C5" d="M89.8,348.3c0,0,25.1,14.1,25.1,43.3c0,17.6-19,33.3-19,33.3L83,407.1c0,0,14.4-12.5,14.4-29.1
		c0-16.7-14.4-25.9-14.4-25.9L89.8,348.3z"/>
	<ellipse fill="#E8D600" cx="111.4" cy="434.2" rx="5.7" ry="5.5"/>
	<ellipse fill="#E8D600" cx="77.7" cy="434.2" rx="5.3" ry="5"/>
	<ellipse fill="#E8D600" cx="421.9" cy="434.2" rx="5.7" ry="5.5"/>
	<ellipse fill="#E8D600" cx="388.2" cy="434.2" rx="5.3" ry="5"/>
	<path fill="#C5C5C5" d="M416.2,352.1c0,0-14.4,9.2-14.4,25.9c0,16.7,14.4,29.1,14.4,29.1l-12.9,17.8c0,0-19-15.8-19-33.3
		c0-29.2,25.1-43.3,25.1-43.3L416.2,352.1z"/>
	<path fill="#E8D600" d="M64.3,262.2c0,0,34.8-2.8,50.6-21.8s5.8-49.6,5.8-49.6L64.3,262.2z"/>
	<path fill="#E8D600" d="M435,263.6c0,0-34.8-2.8-50.6-21.8s-5.8-49.6-5.8-49.6L435,263.6z"/>
	<path fill="#A2A2A2" d="M249.9,311.9c-56.9-47-70.1-133.4-70.1-133.4h-41.2V221v0.3c3.1,25.4,19.8,41.4,20.5,42.1l2.2,2.1l2.8-0.9
		c0.8-0.3,3.3-1.3,7.3-4.6c27.5,39.9,74.8,56,76.8,56.7l3.6-6.4C251.2,310.8,250.6,311.3,249.9,311.9z"/>
	<path fill="#EFEFEF" d="M179.8,178.5h-0.1h-0.3h-35.7c0,0,0,28.6,0,42.2c2.9,23.9,19,39.1,19,39.1s3.4-1.1,9.9-7.6
		c26.2,42.5,77.9,56.2,77.9,56.2C193.4,261.4,179.8,178.5,179.8,178.5z"/>
	<path fill="#A2A2A2" d="M254.2,313.3c56.9-47,65.9-134.8,65.9-134.8h41.2V221v0.3c-3.1,25.4-19.8,41.4-20.5,42.1l-2.2,2.1l-2.8-0.9
		c-0.8-0.3-3.3-1.3-7.3-4.6c-27.5,39.9-74.8,56-76.8,56.7l-3.6-6.4C248.6,310.8,253.5,312.8,254.2,313.3z"/>
	<polygon fill="#A2A2A2" points="251.9,313.4 251.9,310.2 251.9,484.4 248,484.4 	"/>
	<path fill="#EFEFEF" d="M320,178.5h-0.4H320h36.2c0,0,0,28.5,0,42.2c-2.9,23.9-19,39.1-19,39.1s-3.4-1.1-9.9-7.6
		c-26.2,42.5-77,56.2-77,56.2C307.3,261.4,320,178.5,320,178.5z"/>
	<circle fill="#E8D600" cx="165.1" cy="211.8" r="11.1"/>
	<circle fill="#FFFF00" cx="166.8" cy="209.6" r="7"/>
	<circle fill="#E8D600" cx="179.3" cy="239.1" r="7.8"/>
	<circle fill="#FFFF00" cx="180.5" cy="237.6" r="4.9"/>
	<circle fill="#E8D600" cx="193.9" cy="260.7" r="5.5"/>
	<circle fill="#FFFF00" cx="194.7" cy="259.6" r="3.5"/>
	<circle fill="#E8D600" cx="334.7" cy="211.8" r="11.1"/>
	<circle fill="#FFFF00" cx="333" cy="209.6" r="7"/>
	<circle fill="#E8D600" cx="320.6" cy="239.1" r="7.8"/>
	<circle fill="#FFFF00" cx="319.4" cy="237.6" r="4.9"/>
	<circle fill="#E8D600" cx="306" cy="260.7" r="5.5"/>
	<circle fill="#FFFF00" cx="305.1" cy="259.6" r="3.5"/>
	<path fill="#EFEFEF" d="M212.3,184.2c-0.9-1.5-2.4-2.7-4.1-3.2c0.9-1.6,1.1-3.4,0.6-5.2c-1.7-0.5-3.6-0.3-5.2,0.6
		c-0.5-1.7-1.7-3.2-3.2-4.1c-1.5,0.9-2.7,2.4-3.2,4.1c-1.6-0.9-3.4-1.1-5.2-0.6c-0.5,1.7-0.3,3.6,0.6,5.2c-1.8,0.5-3.2,1.7-4.1,3.2
		c0.9,1.5,2.4,2.7,4.1,3.2c-0.9,1.6-1.1,3.4-0.6,5.2c1.7,0.5,3.6,0.3,5.2-0.6c0.5,1.8,1.7,3.2,3.2,4.1c1.5-0.9,2.7-2.4,3.2-4.1
		c1.6,0.9,3.4,1.1,5.2,0.6c0.5-1.7,0.3-3.6-0.6-5.2C209.9,186.9,211.4,185.7,212.3,184.2z"/>
	<circle fill="#E8D600" cx="200.4" cy="184.2" r="4.8"/>
	<path fill="#EFEFEF" d="M206.1,191.5c-1.8,0-3.5,0.8-4.8,2.1c-1-1.5-2.5-2.6-4.2-3c-1.2,1.3-2,3-1.9,4.8c-1.8-0.4-3.6-0.1-5.1,0.8
		c0,1.8,0.8,3.5,2.1,4.8c-1.5,1-2.6,2.5-3,4.2c1.3,1.2,3,2,4.8,1.9c-0.4,1.8-0.1,3.6,0.8,5.1c1.8,0,3.5-0.8,4.8-2.1
		c1,1.5,2.5,2.6,4.2,3c1.2-1.3,2-3,1.9-4.8c1.8,0.4,3.6,0.1,5.1-0.8c0-1.8-0.8-3.5-2.1-4.8c1.5-1,2.6-2.5,3-4.2
		c-1.3-1.2-3-2-4.8-1.9C207.4,194.8,207.1,193,206.1,191.5z"/>
	<circle fill="#E8D600" cx="200.4" cy="201.8" r="4.8"/>
	<path fill="#EFEFEF" d="M207.3,208.1c-1.6,0.9-2.8,2.3-3.3,4c-1.6-0.9-3.4-1.2-5.2-0.7c-0.5,1.7-0.3,3.6,0.5,5.2
		c-1.8,0.5-3.2,1.6-4.2,3.1c0.9,1.6,2.3,2.8,4,3.3c-0.9,1.6-1.2,3.4-0.7,5.2c1.7,0.5,3.6,0.3,5.2-0.5c0.5,1.8,1.6,3.2,3.1,4.2
		c1.6-0.9,2.8-2.3,3.3-4c1.6,0.9,3.4,1.2,5.2,0.7c0.5-1.7,0.3-3.6-0.5-5.2c1.8-0.5,3.2-1.6,4.2-3.1c-0.9-1.6-2.3-2.8-4-3.3
		c0.9-1.6,1.2-3.4,0.7-5.2c-1.7-0.5-3.6-0.3-5.2,0.5C210,210.5,208.8,209,207.3,208.1z"/>
	<circle fill="#E8D600" cx="207.1" cy="220" r="4.8"/>
	<path fill="#EFEFEF" d="M224.4,224c-1.8,0-3.5,0.7-4.8,2c-0.9-1.6-2.4-2.7-4.2-3.1c-1.3,1.3-2,3-2,4.8c-1.8-0.4-3.6-0.2-5.2,0.7
		c0,1.8,0.7,3.5,2,4.8c-1.6,0.9-2.7,2.4-3.1,4.2c1.3,1.3,3,2,4.8,2c-0.4,1.8-0.2,3.6,0.7,5.2c1.8,0,3.5-0.7,4.8-2
		c0.9,1.6,2.4,2.7,4.2,3.1c1.3-1.3,2-3,2-4.8c1.8,0.4,3.6,0.2,5.2-0.7c0-1.8-0.7-3.5-2-4.8c1.6-0.9,2.7-2.4,3.1-4.2
		c-1.3-1.3-3-2-4.8-2C225.6,227.4,225.3,225.5,224.4,224z"/>
	<circle fill="#E8D600" cx="218.5" cy="234.2" r="4.8"/>
	<path fill="#EFEFEF" d="M229.2,235.8c-1.4,1.1-2.4,2.7-2.6,4.5c-1.7-0.7-3.6-0.6-5.2,0c-0.2,1.8,0.2,3.6,1.3,5
		c-1.7,0.7-3,2.1-3.7,3.7c1.1,1.4,2.7,2.4,4.5,2.6c-0.7,1.7-0.6,3.6,0,5.2c1.8,0.2,3.6-0.2,5-1.3c0.7,1.7,2.1,3,3.7,3.7
		c1.4-1.1,2.4-2.7,2.6-4.5c1.7,0.7,3.6,0.6,5.2,0c0.2-1.8-0.2-3.6-1.3-5c1.7-0.7,3-2.1,3.6-3.7c-1.1-1.4-2.7-2.4-4.5-2.6
		c0.7-1.7,0.6-3.6,0-5.2c-1.8-0.2-3.6,0.2-5,1.3C232.2,237.8,230.9,236.5,229.2,235.8z"/>
	<circle fill="#E8D600" cx="230.8" cy="247.5" r="4.8"/>
	<path fill="#EFEFEF" d="M287.6,184.2c0.9-1.5,2.4-2.7,4.1-3.2c-0.9-1.6-1.1-3.4-0.6-5.2c1.7-0.5,3.6-0.3,5.2,0.6
		c0.5-1.7,1.7-3.2,3.2-4.1c1.5,0.9,2.7,2.4,3.2,4.1c1.6-0.9,3.4-1.1,5.2-0.6c0.5,1.7,0.3,3.6-0.6,5.2c1.8,0.5,3.2,1.7,4.1,3.2
		c-0.9,1.5-2.4,2.7-4.1,3.2c0.9,1.6,1.1,3.4,0.6,5.2c-1.7,0.5-3.6,0.3-5.2-0.6c-0.5,1.8-1.7,3.2-3.2,4.1c-1.5-0.9-2.7-2.4-3.2-4.1
		c-1.6,0.9-3.4,1.1-5.2,0.6c-0.5-1.7-0.3-3.6,0.6-5.2C289.9,186.9,288.5,185.7,287.6,184.2z"/>
	<circle fill="#E8D600" cx="299.4" cy="184.2" r="4.8"/>
	<path fill="#EFEFEF" d="M293.7,191.5c1.8,0,3.5,0.8,4.8,2.1c1-1.5,2.5-2.6,4.2-3c1.2,1.3,2,3,1.9,4.8c1.8-0.4,3.6-0.1,5.1,0.8
		c0,1.8-0.8,3.5-2.1,4.8c1.5,1,2.6,2.5,3,4.2c-1.3,1.2-3,2-4.8,1.9c0.4,1.8,0.1,3.6-0.8,5.1c-1.8,0-3.5-0.8-4.8-2.1
		c-1,1.5-2.5,2.6-4.2,3c-1.2-1.3-2-3-1.9-4.8c-1.8,0.4-3.6,0.1-5.1-0.8c0-1.8,0.8-3.5,2.1-4.8c-1.5-1-2.6-2.5-3-4.2
		c1.3-1.2,3-2,4.8-1.9C292.5,194.8,292.8,193,293.7,191.5z"/>
	<circle fill="#E8D600" cx="299.4" cy="201.8" r="4.8"/>
	<path fill="#EFEFEF" d="M292.6,208.1c1.6,0.9,2.8,2.3,3.3,4c1.6-0.9,3.4-1.2,5.2-0.7c0.5,1.7,0.3,3.6-0.5,5.2
		c1.8,0.5,3.2,1.6,4.2,3.1c-0.9,1.6-2.3,2.8-4,3.3c0.9,1.6,1.2,3.4,0.7,5.2c-1.7,0.5-3.6,0.3-5.2-0.5c-0.5,1.8-1.6,3.2-3.1,4.2
		c-1.6-0.9-2.8-2.3-3.3-4c-1.6,0.9-3.4,1.2-5.2,0.7c-0.5-1.7-0.3-3.6,0.5-5.2c-1.8-0.5-3.2-1.6-4.2-3.1c0.9-1.6,2.3-2.8,4-3.3
		c-0.9-1.6-1.2-3.4-0.7-5.2c1.7-0.5,3.6-0.3,5.2,0.5C289.9,210.5,291,209,292.6,208.1z"/>
	<circle fill="#E8D600" cx="292.8" cy="220" r="4.8"/>
	<path fill="#EFEFEF" d="M275.5,224c1.8,0,3.5,0.7,4.8,2c0.9-1.6,2.4-2.7,4.2-3.1c1.3,1.3,2,3,2,4.8c1.8-0.4,3.6-0.2,5.2,0.7
		c0,1.8-0.7,3.5-2,4.8c1.6,0.9,2.7,2.4,3.1,4.2c-1.3,1.3-3,2-4.8,2c0.4,1.8,0.2,3.6-0.7,5.2c-1.8,0-3.5-0.7-4.8-2
		c-0.9,1.6-2.4,2.7-4.2,3.1c-1.3-1.3-2-3-2-4.8c-1.8,0.4-3.6,0.2-5.2-0.7c0-1.8,0.7-3.5,2-4.8c-1.6-0.9-2.7-2.4-3.1-4.2
		c1.3-1.3,3-2,4.8-2C274.3,227.4,274.6,225.5,275.5,224z"/>
	<circle fill="#E8D600" cx="281.3" cy="234.2" r="4.8"/>
	<path fill="#EFEFEF" d="M270.6,235.8c1.4,1.1,2.4,2.7,2.6,4.5c1.7-0.7,3.6-0.6,5.2,0c0.2,1.8-0.2,3.6-1.3,5c1.7,0.7,3,2.1,3.7,3.7
		c-1.1,1.4-2.7,2.4-4.5,2.6c0.7,1.7,0.6,3.6,0,5.2c-1.8,0.2-3.6-0.2-5-1.3c-0.7,1.7-2.1,3-3.7,3.7c-1.4-1.1-2.4-2.7-2.6-4.5
		c-1.7,0.7-3.6,0.6-5.2,0c-0.2-1.8,0.2-3.6,1.3-5c-1.7-0.7-3-2.1-3.6-3.7c1.1-1.4,2.7-2.4,4.5-2.6c-0.7-1.7-0.6-3.6,0-5.2
		c1.8-0.2,3.6,0.2,5,1.3C267.6,237.8,269,236.5,270.6,235.8z"/>
	<circle fill="#E8D600" cx="269.1" cy="247.5" r="4.8"/>
	<path fill="#EFEFEF" d="M249.9,238.2c-1.8,1-3.2,2.7-3.7,4.8c-1.8-1-4-1.3-6-0.7c-0.5,2-0.3,4.2,0.7,6c-2,0.6-3.7,1.9-4.8,3.7
		c1,1.8,2.7,3.2,4.8,3.7c-1,1.8-1.3,4-0.7,6c2,0.5,4.2,0.3,6-0.7c0.6,2,1.9,3.7,3.7,4.8c1.8-1,3.2-2.7,3.7-4.8c1.8,1,4,1.3,6,0.7
		c0.5-2,0.3-4.2-0.7-6c2-0.6,3.7-1.9,4.8-3.7c-1-1.8-2.7-3.2-4.8-3.7c1-1.8,1.3-4,0.7-6c-2-0.5-4.2-0.3-6,0.7
		C253.1,240.9,251.7,239.3,249.9,238.2z"/>
	<circle fill="#E8D600" cx="249.9" cy="252" r="5.5"/>
	<path fill="#6B4B35" d="M352.5,327.2c0,0-21.3,28.2-102.5,28.2s-103.5-22.5-103.5-22.5v-42c0,0,22.3,22.5,103.5,22.5
		s102.5-28.2,102.5-28.2V327.2z"/>
	<ellipse fill="#542F16" cx="157.4" cy="318.2" rx="6.1" ry="9.3"/>
	<ellipse fill="#6B4B35" cx="157.7" cy="316.6" rx="2.5" ry="3.9"/>
	<ellipse fill="#542F16" cx="190.3" cy="329.6" rx="7.9" ry="10.9"/>
	<ellipse fill="#6B4B35" cx="190.7" cy="327.7" rx="3.3" ry="4.5"/>
	<ellipse fill="#542F16" cx="342" cy="316.2" rx="6.1" ry="9.3"/>
	<ellipse fill="#6B4B35" cx="341.7" cy="314.6" rx="2.5" ry="3.9"/>
	<ellipse fill="#542F16" cx="309.1" cy="329.6" rx="7.9" ry="10.9"/>
	<ellipse fill="#6B4B35" cx="308.7" cy="327.7" rx="3.3" ry="4.5"/>
	<circle fill="#E8D600" cx="250.4" cy="333.7" r="28.8"/>
	<circle fill="#FFFF00" cx="250.4" cy="333.7" r="19.2"/>
	<path fill="#BABABA" d="M340.5,429.4h-31.6c-3.1,0-5.6-2.5-5.6-5.6v-31.6c0-3.1,2.5-5.6,5.6-5.6h31.6c3.1,0,5.6,2.5,5.6,5.6v31.6
		C346.1,426.8,343.6,429.4,340.5,429.4L340.5,429.4z M308.9,388.8c-1.9,0-3.4,1.5-3.4,3.4v31.6c0,1.9,1.5,3.4,3.4,3.4h31.6
		c1.9,0,3.4-1.5,3.4-3.4v-31.6c0-1.9-1.5-3.4-3.4-3.4H308.9L308.9,388.8z"/>
	<path fill="#BABABA" d="M190.9,429.4h-31.6c-3.1,0-5.6-2.5-5.6-5.6v-31.6c0-3.1,2.5-5.6,5.6-5.6h31.6c3.1,0,5.6,2.5,5.6,5.6v31.6
		C196.5,426.8,194,429.4,190.9,429.4L190.9,429.4z M159.4,388.8c-1.9,0-3.4,1.5-3.4,3.4v31.6c0,1.9,1.5,3.4,3.4,3.4H191
		c1.9,0,3.4-1.5,3.4-3.4v-31.6c0-1.9-1.5-3.4-3.4-3.4H159.4L159.4,388.8z"/>
</g>
</svg>
