<?xml version="1.0" encoding="utf-8"?>
<!-- Generator: Adobe Illustrator 18.0.0, SVG Export Plug-In . SVG Version: 6.00 Build 0)  -->
<!DOCTYPE svg PUBLIC "-//W3C//DTD SVG 1.1//EN" "http://www.w3.org/Graphics/SVG/1.1/DTD/svg11.dtd">
<svg version="1.1" id="content" xmlns="http://www.w3.org/2000/svg" xmlns:xlink="http://www.w3.org/1999/xlink" x="0px" y="0px"
	 width="500px" height="500px" viewBox="0 0 500 500" enable-background="new 0 0 500 500" xml:space="preserve">
<rect id="position" x="0.5" y="0.5" display="none" fill="none" stroke="#000000" width="499" height="499"/>
<g>
	<path fill="#0065C4" d="M367.7,387.6c-5.2-22.9-8.2-46.4-8.8-70v7.7H140v-1.6c-1,21.4-3.9,42.9-8.6,63.8l-0.7,2.9l29.8-7.9
		c4.1-1.1,8.4-0.5,12.1,1.6l4.8,2.8c4.1,2.4,9.1,2.7,13.5,1.1l13.4-5c3.5-1.3,7.2-1.4,10.7-0.2l18,6c3.6,1.2,7.4,1.1,11-0.3
		l11.5-4.4c4.9-1.9,10.5-1.3,14.8,1.6l0,0c4.5,3.1,10.4,3.6,15.5,1.4l7.6-3.4c3.9-1.7,8.3-1.8,12.3-0.3l12.5,4.8
		c4,1.5,8.4,1.4,12.3-0.3l9.3-4.1c4.1-1.8,8.8-1.9,12.8-0.1l15.8,6.8L367.7,387.6z"/>
	<path fill="#0045A5" d="M358.9,325.3v-7.7c-0.1-2.2-0.1-4.2-0.1-6.4H140.3c0,4.1-0.1,8.3-0.3,12.4v1.6L358.9,325.3L358.9,325.3z"/>
</g>
</svg>
