<?xml version="1.0" encoding="utf-8"?>
<!-- Generator: Adobe Illustrator 14.0.0, SVG Export Plug-In . SVG Version: 6.00 Build 43363)  -->
<!DOCTYPE svg PUBLIC "-//W3C//DTD SVG 1.1//EN" "http://www.w3.org/Graphics/SVG/1.1/DTD/svg11.dtd">
<svg version="1.1" id="content" xmlns="http://www.w3.org/2000/svg" xmlns:xlink="http://www.w3.org/1999/xlink" x="0px" y="0px"
	 width="500px" height="500px" viewBox="0 0 500 500" enable-background="new 0 0 500 500" xml:space="preserve">
<rect id="position" x="0.5" y="0.5" display="none" fill="none" stroke="#000000" width="499" height="499"/>
<g id="body">
	<rect x="116.648" y="174.107" fill="#212121" width="265.853" height="306.393"/>
	<path fill="#A50F53" d="M209.856,204.875c0,0-12.959,53.146,19.084,110.249c28.145-12.995,39.72-18.563,39.72-18.563
		s-26.164-30.194-11.128-76.043C227.406,210.978,209.856,204.875,209.856,204.875z"/>
	<polygon fill="#BD0F57" points="268.657,296.561 277.328,306.985 237.61,325.548 228.94,315.124 	"/>
	<polygon fill="#A50F53" points="228.934,315.17 239.624,321.974 236.484,311.647 	"/>
	<polygon fill="#A50F53" points="236.91,311.397 247.601,318.202 244.461,307.875 	"/>
	<polygon fill="#A50F53" points="244.887,307.625 255.577,314.43 252.438,304.103 	"/>
	<polygon fill="#A50F53" points="252.863,303.853 263.554,310.658 260.415,300.33 	"/>
	<polygon fill="#A50F53" points="260.84,300.08 271.53,306.887 268.393,296.558 	"/>
	<path fill="#BD0F57" d="M269.347,174.107c-1.812,9.599-10.31,16.872-20.539,16.872s-18.728-7.273-20.539-16.872h-49.348
		c-0.062,0.85-0.102,1.704-0.102,2.564c0,27.266,31.333,49.367,69.987,49.367c38.652,0,69.984-22.103,69.984-49.367
		c0-0.861-0.039-1.715-0.102-2.564H269.347z"/>
</g>
</svg>
