<?xml version="1.0" encoding="utf-8"?>
<!-- Generator: Adobe Illustrator 14.0.0, SVG Export Plug-In . SVG Version: 6.00 Build 43363)  -->
<!DOCTYPE svg PUBLIC "-//W3C//DTD SVG 1.1//EN" "http://www.w3.org/Graphics/SVG/1.1/DTD/svg11.dtd">
<svg version="1.1" id="content" xmlns="http://www.w3.org/2000/svg" xmlns:xlink="http://www.w3.org/1999/xlink" x="0px" y="0px"
	 width="500px" height="500px" viewBox="0 0 500 500" enable-background="new 0 0 500 500" xml:space="preserve">
<g id="bounds" display="none">
	<rect x="0.04" y="79.958" fill="none" stroke="#EAEAEA" stroke-miterlimit="10" width="499.5" height="499.5"/>
</g>
<g id="chooser">
	<path fill="#C60017" d="M249.835,212.738c-75.292-47.06-103.021,12.554-103.021,12.554v163.037h103.021h103.018V225.292
		C352.854,225.292,325.126,165.678,249.835,212.738z"/>
	<path fill="#AD001D" d="M166.929,434.983c0,0,20.312,28.594,83.5,28.594c63.188,0,83.5-28.594,83.5-28.594V419.79h-161.55
		L166.929,434.983z"/>
	<path fill="#C60017" d="M249.819,389.237l-74.772,44.098c0,0,20,20.182,75.383,20.182c55.382,0,75.382-20.182,75.382-20.182
		L249.819,389.237z"/>
	<path fill="#C60017" d="M360.486,407.247c0,0,0,0,4.136-3.131c-1.907-3.756-10.339-29.834-10.339-29.834s0,0,2.545-1.043
		l-4.771-22.74c0.243,23.058-24.688,30.688-24.688,30.688l-77.577,4.568l-79.762-6.889c0,0-24.731-4.587-22.505-28.369
		l-4.771,22.739c2.545,1.043,2.545,1.043,2.545,1.043s-8.43,26.08-10.339,29.835c4.135,3.131,4.135,3.131,4.135,3.131
		l-14.474,31.296c10.179,17.524,55.689,57.791,125.196-19.401c69.508,77.192,114.961,36.927,125.141,19.401L360.486,407.247z"/>
	<path fill="#AD001D" d="M353.746,357.175c-28.039,30.246-98.364,22.416-103.927,21.742c-5.561,0.674-75.944,8.504-103.984-21.742
		c-2.479,13.188-3.082,16.063-3.082,16.063s38.197,23.367,107.065,14.813c68.869,8.555,107.009-14.813,107.009-14.813
		S356.225,370.364,353.746,357.175z"/>
	<path fill="#AD001D" d="M249.819,378.878c-0.009,0-0.006,0.002,0,0.004C249.825,378.88,249.829,378.878,249.819,378.878z"/>
	<path fill="#AD001D" d="M249.819,378.899c0.065-0.008,0.019-0.014,0-0.02C249.802,378.888,249.755,378.894,249.819,378.899z"/>
	<path fill="#AD001D" d="M249.819,378.872c0,0,0.002,0.002,0.005,0.002C249.829,378.868,249.819,378.872,249.819,378.872z"/>
	<path fill="#AD001D" d="M249.824,378.874c-0.001,0.002,0.002,0-0.005,0.004C249.835,378.876,249.829,378.874,249.824,378.874z"/>
	<path fill="#AD001D" d="M249.819,378.878c-0.005-0.006-0.003-0.004-0.004-0.006C249.811,378.874,249.806,378.876,249.819,378.878z"
		/>
	<path fill="#AD001D" d="M249.815,378.874c0.001,0,0.004-0.002,0.004-0.002S249.811,378.868,249.815,378.874z"/>
	<path fill="#AD001D" d="M249.819,407.635c0-5.813,0-11.652,0-11.652s-65.656,27.386-110.378-4.041
		c-2.698,7.699-4.48,12.177-4.48,12.177S177.392,438.898,249.819,407.635z"/>
	<path fill="#AD001D" d="M147.739,447.528c-15.327-7.721-17.642-20.824-17.642-20.824l-5.475,11.838
		c0,0,11.469,25.716,48.518,26.209c37.049,0.494,71.587-36.643,76.679-45.61c0-5.806,0-9.181,0-9.181
		S200.603,470.061,147.739,447.528z"/>
	<path fill="#AD001D" d="M249.819,395.98c0,0,0,5.844,0,11.652c72.428,31.267,114.803-3.518,114.803-3.518s-1.783-4.478-4.48-12.179
		C315.419,423.366,249.819,395.98,249.819,395.98z"/>
	<path fill="#AD001D" d="M369.485,426.704c0,0-5.554,13.104-20.882,20.824c-52.864,22.531-98.785-37.568-98.785-37.568
		s0,3.375,0,9.181c5.094,8.971,39.573,46.104,76.623,45.61c37.049-0.494,48.52-26.209,48.52-26.209L369.485,426.704z"/>
</g>
<rect id="position" x="0.5" y="1.677" display="none" fill="none" stroke="#000000" width="499" height="499"/>
</svg>
