<?xml version="1.0" encoding="utf-8"?>
<!-- Generator: Adobe Illustrator 14.0.0, SVG Export Plug-In . SVG Version: 6.00 Build 43363)  -->
<!DOCTYPE svg PUBLIC "-//W3C//DTD SVG 1.1//EN" "http://www.w3.org/Graphics/SVG/1.1/DTD/svg11.dtd">
<svg version="1.1" id="content" xmlns="http://www.w3.org/2000/svg" xmlns:xlink="http://www.w3.org/1999/xlink" x="0px" y="0px"
	 width="500px" height="500px" viewBox="0 0 500 500" enable-background="new 0 0 500 500" xml:space="preserve">
<g id="bounds" display="none">
	<rect x="0.228" y="79.782" fill="none" stroke="#EAEAEA" stroke-miterlimit="10" width="499.5" height="499.5"/>
</g>
<rect id="position" x="0.5" y="0.5" display="none" fill="none" stroke="#000000" width="499" height="499"/>
<g id="chooser">
	<g>
		<polygon fill="#151517" points="374.107,190.25 355.434,175.908 144.52,175.908 125.848,190.25 70.16,261.25 70.16,426.549 
			131.416,426.549 131.416,279.347 147.447,274.002 147.447,483.156 352.537,483.156 352.537,274.011 368.537,279.347 
			368.537,426.549 429.793,426.549 429.793,261.25 		"/>
		<polygon opacity="0.5" enable-background="new    " points="338.754,175.908 236.852,303.902 249.585,284.994 303.557,175.908 		
			"/>
		<polygon fill="#EAEAEA" points="210.031,175.908 249.585,284.994 296.809,175.908 		"/>
		<path fill="#2B2B35" d="M322.442,175.908H283.36c0,0-47.024,126.384-47.024,127.994c0,1.607,0.019,179.254,0.019,179.254h1
			c0,0-0.193-178.299-0.003-179.254C237.538,302.947,322.442,175.908,322.442,175.908z"/>
		<polygon fill="#2B2B35" points="248.865,283.494 218.619,175.908 176.766,175.908 		"/>
		<path fill="#A3A3A3" d="M243.189,192.91c1.62,0.935,1.62,2.467,0,3.402l-3.905,2.253c-1.621,0.936-4.271,2.468-5.891,3.401
			l-3.903,2.254c-1.621,0.935-2.946,0.17-2.946-1.699v-4.508c0-1.871,0-4.932,0-6.803v-4.508c0-1.872,1.325-2.636,2.944-1.702
			l3.905,2.254c1.619,0.935,4.271,2.466,5.891,3.4L243.189,192.91z"/>
		<path fill="#A3A3A3" d="M256.02,192.91c-1.62,0.935-1.62,2.467,0,3.402l3.902,2.253c1.619,0.936,4.271,2.468,5.895,3.401
			l3.9,2.254c1.621,0.935,2.947,0.17,2.947-1.699v-4.509c0-1.872,0-4.932,0-6.803v-4.508c0-1.872-1.326-2.636-2.945-1.702
			l-3.902,2.254c-1.621,0.935-4.271,2.466-5.895,3.4L256.02,192.91z"/>
		<circle fill="#A3A3A3" cx="249.605" cy="193.342" r="7.719"/>
		<circle cx="249.605" cy="189.475" r="7.719"/>
		<path d="M256.019,191.054c-1.619-0.935-1.619-2.466,0-3.401l3.903-2.254c1.619-0.936,4.271-2.468,5.895-3.401l3.9-2.254
			c1.621-0.935,2.945-0.171,2.945,1.701v4.509c0,1.87,0,4.931,0.002,6.803v4.508c0,1.871-1.326,2.636-2.945,1.701l-3.902-2.254
			c-1.621-0.935-4.271-2.466-5.895-3.4L256.019,191.054z"/>
		<path d="M243.189,187.898c1.62,0.935,1.62,2.466,0,3.401l-3.905,2.253c-1.621,0.937-4.271,2.468-5.891,3.401l-3.903,2.254
			c-1.621,0.934-2.946,0.169-2.946-1.701v-4.508c0-1.871,0-4.931,0-6.803v-4.508c0-1.871,1.325-2.636,2.944-1.7l3.905,2.254
			c1.619,0.934,4.271,2.467,5.891,3.401L243.189,187.898z"/>
		<circle fill="#151517" cx="250.273" cy="205.735" r="1.625"/>
		<circle fill="#151517" cx="250.273" cy="222.328" r="1.625"/>
		<circle fill="#151517" cx="250.273" cy="238.919" r="1.625"/>
		<circle fill="#151517" cx="250.273" cy="255.511" r="1.625"/>
		<circle fill="#2B2B35" cx="252.997" cy="305.582" r="3.816"/>
		<rect x="368.537" y="426.549" fill="#EAEAEA" width="61.257" height="15.68"/>
		<rect x="70.16" y="426.549" fill="#EAEAEA" width="61.256" height="15.68"/>
	</g>
</g>
</svg>
