<?xml version="1.0" encoding="utf-8"?>
<!-- Generator: Adobe Illustrator 18.0.0, SVG Export Plug-In . SVG Version: 6.00 Build 0)  -->
<!DOCTYPE svg PUBLIC "-//W3C//DTD SVG 1.1//EN" "http://www.w3.org/Graphics/SVG/1.1/DTD/svg11.dtd">
<svg version="1.1" id="content" xmlns="http://www.w3.org/2000/svg" xmlns:xlink="http://www.w3.org/1999/xlink" x="0px" y="0px"
	 width="500px" height="500px" viewBox="0 0 500 500" enable-background="new 0 0 500 500" xml:space="preserve">
<rect id="position" x="0.5" y="0.5" display="none" fill="none" stroke="#000000" width="499" height="499"/>
<g>
	<polygon fill="#FFFFFF" points="241.6,231.9 241.6,231.9 241.6,231.9 	"/>
	<polygon fill="#424242" points="237.7,230.5 237.7,230.5 237.7,230.5 	"/>
	<rect x="202.8" y="175.2" fill="#F5F5F5" width="94.4" height="132.3"/>
	<path fill="#1A237E" d="M231.7,304.8h36.6c0-93.1-18.3-110.9-18.3-110.9S231.7,211.7,231.7,304.8z"/>
	<path fill="#1A237E" d="M231.7,175.2h36.6c0,10.1-18.3,27.9-18.3,27.9S231.7,185.3,231.7,175.2z"/>
	<path opacity="0.2" d="M250,175.2c0,0-19.6,15-19.6,32.2c0,0-23.9-11.8-34.6-28.9L250,175.2z"/>
	<path fill="#F5F5F5" d="M250,175.2c0,0-22.8,9.8-22.8,27c0,0-22.4-9.9-33.2-27L250,175.2z"/>
	<path opacity="0.2" d="M250,175.2c0,0,19.6,15,19.6,32.2c0,0,23.9-11.8,34.6-28.9L250,175.2z"/>
	<path fill="#F5F5F5" d="M250,175.2c0,0,22.8,9.8,22.8,27c0,0,22.4-9.9,33.2-27L250,175.2z"/>
	<path d="M291.4,175.2c0,69.2-42.1,124.4-42.1,124.4s-42.1-55.1-42.1-124.4l-90.6,0v305.1h265.8V175.2L291.4,175.2z"/>
	<path fill="#333333" d="M207.2,175.2c0,69.3,42.1,124.4,42.1,124.4s-39.5-30.8-59.4-76.3l8.7-7.3l-13.1-4c0,0-5.9-18.2-5.9-36.9
		L207.2,175.2z"/>
	<path fill="#333333" d="M291.4,175.2c0,69.3-42.1,124.4-42.1,124.4s39.5-30.8,59.4-76.3l-8.7-7.3l13.1-4c0,0,5.9-18.2,5.9-36.9
		L291.4,175.2z"/>
	<path opacity="0.2" d="M250,196.7c1.2,0,2.2,0.8,2.6,1.9c0.1-0.3,0.2-0.6,0.2-0.9c0-1.6-1.3-2.8-2.8-2.8c-1.6,0-2.8,1.3-2.8,2.8
		c0,0.3,0.1,0.6,0.2,0.9C247.8,197.4,248.8,196.7,250,196.7z"/>
	<polygon fill="#F5F5F5" points="320.5,228.2 334.9,213.8 349.3,228.2 	"/>
</g>
</svg>
