<?xml version="1.0" encoding="utf-8"?>
<!-- Generator: Adobe Illustrator 14.0.0, SVG Export Plug-In . SVG Version: 6.00 Build 43363)  -->
<!DOCTYPE svg PUBLIC "-//W3C//DTD SVG 1.1//EN" "http://www.w3.org/Graphics/SVG/1.1/DTD/svg11.dtd">
<svg version="1.1" id="content" xmlns="http://www.w3.org/2000/svg" xmlns:xlink="http://www.w3.org/1999/xlink" x="0px" y="0px"
	 width="500px" height="500px" viewBox="0 0 500 500" enable-background="new 0 0 500 500" xml:space="preserve">
<g id="bounds" display="none">
	<rect x="0.275" y="81.191" fill="none" stroke="#EAEAEA" stroke-miterlimit="10" width="499.5" height="499.5"/>
</g>
<g id="chooser">
	<polygon fill="#666666" points="374.468,190.151 353.646,178.248 142.106,178.248 125.584,190.151 69.896,261.151 69.896,442.129 
		131.153,442.129 131.153,279.249 147.335,273.852 147.335,483.634 352.716,483.634 352.716,273.852 368.898,279.249 
		368.898,442.129 430.154,442.129 430.154,261.151 	"/>
	<circle fill="#4D4D4D" cx="82.973" cy="409.679" r="2.903"/>
	<circle fill="#4D4D4D" cx="82.973" cy="402.307" r="2.903"/>
	<circle fill="#4D4D4D" cx="82.973" cy="394.933" r="2.903"/>
	<rect x="67.834" y="419.396" fill="#FFFFFF" width="65.381" height="23.473"/>
	<circle fill="#4D4D4D" cx="417.076" cy="409.68" r="2.903"/>
	<circle fill="#4D4D4D" cx="417.076" cy="402.307" r="2.903"/>
	<circle fill="#4D4D4D" cx="417.076" cy="394.933" r="2.903"/>
	<rect x="367.184" y="419.521" fill="#FFFFFF" width="64.683" height="23.223"/>
	<line fill="none" stroke="#4D4D4D" stroke-miterlimit="10" x1="248.142" y1="266.592" x2="248.142" y2="483.634"/>
	<polygon fill="#FFFFFF" points="298.615,178.248 248.142,267.597 197.671,178.248 	"/>
	<polygon fill="#C1272D" points="248.142,178.248 264.689,183.686 248.142,200.232 231.596,183.686 	"/>
	<polygon fill="#C1272D" points="248.142,268.198 237.112,236.717 248.142,178.248 259.174,236.717 	"/>
	<path opacity="0.2" fill="#191919" enable-background="new    " d="M259.174,198.54c-3.924-9.33-11.033-20.292-11.033-20.292
		h51.381L259.174,198.54z"/>
	<path fill="#FFFFFF" d="M262.56,193.747c-3.924-9.331-14.418-15.499-14.418-15.499h51.381L262.56,193.747z"/>
	<path opacity="0.2" fill="#191919" enable-background="new    " d="M235.996,198.54c3.922-9.33,12.146-20.292,12.146-20.292h-51.38
		L235.996,198.54z"/>
	<path fill="#FFFFFF" d="M233.725,193.747c3.922-9.331,14.417-15.499,14.417-15.499h-51.38L233.725,193.747z"/>
	<polygon fill="#4D4D4D" points="282.097,178.248 317.058,178.248 296.109,207.346 285.951,207.346 294.285,212.44 248.142,269.42 
		248.142,267.597 	"/>
	<polygon opacity="0.2" fill="#191919" enable-background="new    " points="220.01,178.248 248.142,257.249 275.096,178.248 
		284.433,178.248 248.142,269.42 211.052,178.248 	"/>
	<polygon fill="#4D4D4D" points="214.189,178.248 179.227,178.248 200.177,207.346 210.336,207.346 202.002,212.44 248.142,269.42 
		248.142,267.597 	"/>
	<polygon fill="#666666" points="216.398,178.248 181.892,178.248 202.044,205.596 215.892,205.596 205.892,212.846 
		248.142,267.597 	"/>
	<polygon fill="#666666" points="279.889,178.248 314.392,178.248 294.243,205.596 280.392,205.596 290.392,212.846 
		248.142,267.597 	"/>
	<circle fill="#4D4D4D" cx="260.951" cy="279.44" r="6"/>
	<circle fill="#4D4D4D" cx="260.951" cy="307.559" r="6"/>
	<path fill="none" stroke="#4D4D4D" stroke-miterlimit="10" d="M335.495,339.578c0,2.75-2.221,5-4.934,5h-34.778
		c-2.714,0-4.935-2.25-4.935-5v-26.585h44.646V339.578z"/>
	<path fill="none" stroke="#4D4D4D" stroke-miterlimit="10" d="M160.791,312.993h44.646v26.585c0,2.75-2.22,5-4.934,5h-34.779
		c-2.713,0-4.933-2.25-4.933-5V312.993L160.791,312.993z"/>
	<polygon fill="#FFFFFF" points="336.303,224.785 295.614,224.785 293.269,232.923 333.959,232.923 	"/>
	<rect x="290.547" y="231.625" fill="#4D4D4D" width="45.252" height="9.607"/>
	<rect x="289.017" y="232.923" fill="#666666" width="48.31" height="10.347"/>
	<path opacity="0.1" enable-background="new    " d="M248.141,194.052c1.653,0,3.01,0.976,3.242,2.243
		c0.022-0.125,0.047-0.25,0.047-0.38c0-1.447-1.472-2.62-3.289-2.62c-1.814,0-3.287,1.173-3.287,2.62c0,0.13,0.024,0.255,0.049,0.38
		C245.135,195.027,246.49,194.052,248.141,194.052z"/>
	<circle fill="#666666" cx="258.467" cy="281.006" r="1.1"/>
	<circle fill="#666666" cx="262.903" cy="278.343" r="1.1"/>
	<circle fill="#666666" cx="258.221" cy="306.783" r="1.101"/>
	<circle fill="#666666" cx="263.24" cy="308.036" r="1.1"/>
</g>
<rect id="position" x="0.5" y="1.677" display="none" fill="none" stroke="#000000" width="499" height="499"/>
</svg>
