<?xml version="1.0" encoding="utf-8"?>
<!-- Generator: Adobe Illustrator 14.0.0, SVG Export Plug-In . SVG Version: 6.00 Build 43363)  -->
<!DOCTYPE svg PUBLIC "-//W3C//DTD SVG 1.1//EN" "http://www.w3.org/Graphics/SVG/1.1/DTD/svg11.dtd">
<svg version="1.1" id="content" xmlns="http://www.w3.org/2000/svg" xmlns:xlink="http://www.w3.org/1999/xlink" x="0px" y="0px"
	 width="500px" height="500px" viewBox="0 0 500 500" enable-background="new 0 0 500 500" xml:space="preserve">
<rect x="0.5" y="0.5" display="none" fill="none" stroke="#000000" width="499" height="499"/>
<g id="body">
	<polygon fill="#DEDEDE" points="273.775,174.794 259.481,187.761 249.563,215.089 249.575,295.834 309.666,295.834 
		309.666,174.794 	"/>
	<polygon fill="#DEDEDE" points="225.198,174.794 189.458,174.794 189.458,295.834 249.55,295.834 249.563,215.089 239.645,187.761 
			"/>
	<polygon fill="#A7A7AA" points="250.063,236.125 249.063,236.125 248.883,213.217 249.559,213.76 250.25,213.217 	"/>
	<circle fill="#7C7C7C" cx="257.091" cy="216.149" r="1.601"/>
	<circle fill="#7C7C7C" cx="257.091" cy="225.468" r="1.601"/>
	<polygon fill="#878787" points="286.803,174.794 249.558,236.018 213.417,174.794 116.648,174.794 116.648,480.5 382.5,480.5 
		382.5,174.794 	"/>
	<path fill="#9B9B9B" d="M286.469,174.794l-33.874,56.289l-0.407,0.684c-0.021,0.032-0.046,0.056-0.065,0.088l-2.563,4.165
		l-2.203-3.69c-0.146-0.175-0.294-0.348-0.426-0.563l-31.412-52.772l-0.137-0.229c-0.671-1.084-1.904-2.979-3.305-3.972h-11.798
		c-0.519,1.302-0.465,3.658,0.297,4.896l46.365,75.476c1.439,2.345,3.803,2.349,5.247,0.008l46.746-75.605
		c0.739-1.196,0.816-3.5,0.354-4.774h-12.113C286.932,174.966,286.698,174.607,286.469,174.794z"/>
	<polygon opacity="0.5" fill="#6B6B6B" enable-background="new    " points="240.88,191.103 210.137,213.76 208.911,207.139 
		238.026,186.568 239.645,187.761 	"/>
	<polygon fill="#D3D3D3" points="239.645,187.761 208.226,211.686 198.49,174.794 225.198,174.794 	"/>
	<polygon opacity="0.5" fill="#6B6B6B" enable-background="new    " points="258.238,191.103 288.98,213.76 290.737,206.475 
		262.215,185.918 259.473,187.761 	"/>
	<polygon fill="#D3D3D3" points="259.473,187.761 290.892,211.686 301.161,174.794 273.841,174.794 	"/>
</g>
</svg>
