<?xml version="1.0" encoding="utf-8"?>
<!-- Generator: Adobe Illustrator 14.0.0, SVG Export Plug-In . SVG Version: 6.00 Build 43363)  -->
<!DOCTYPE svg PUBLIC "-//W3C//DTD SVG 1.1//EN" "http://www.w3.org/Graphics/SVG/1.1/DTD/svg11.dtd">
<svg version="1.1" id="content" xmlns="http://www.w3.org/2000/svg" xmlns:xlink="http://www.w3.org/1999/xlink" x="0px" y="0px"
	 width="500px" height="500px" viewBox="0 0 500 500" enable-background="new 0 0 500 500" xml:space="preserve">
<g id="bounds" display="none">
	<rect x="-0.088" y="80.368" fill="none" stroke="#EAEAEA" stroke-miterlimit="10" width="499.5" height="499.5"/>
</g>
<rect id="position" x="0.5" y="0.5" display="none" fill="none" stroke="#000000" width="499" height="499"/>
<g id="chooser">
	<rect x="71.076" y="438.051" fill="#DEDEDE" width="57.511" height="17.428"/>
	<ellipse fill="#7C7C7C" cx="79.68" cy="448.673" rx="2.865" ry="2.729"/>
	<rect x="370.739" y="438.051" fill="#DEDEDE" width="57.51" height="17.428"/>
	<ellipse fill="#7C7C7C" cx="419.646" cy="448.673" rx="2.865" ry="2.729"/>
	<polygon fill="#DEDEDE" points="274.363,177.929 260.068,189.893 250.151,217.22 250.163,297.965 310.254,297.965 310.254,177.929 
			"/>
	<polygon fill="#DEDEDE" points="225.786,177.929 190.046,177.929 190.046,297.965 250.138,297.965 250.151,217.22 240.233,189.893 
			"/>
	<polygon fill="#A7A7AA" points="250.651,238.256 249.651,238.256 249.471,215.348 250.147,215.892 250.838,215.348 	"/>
	<circle fill="#7C7C7C" cx="257.679" cy="218.28" r="1.601"/>
	<circle fill="#7C7C7C" cx="257.679" cy="227.599" r="1.601"/>
	<polygon fill="#878787" points="374.605,192.002 355.933,177.929 287.391,177.929 250.146,238.15 214.005,177.929 143.343,177.929 
		124.671,192.002 68.984,263.002 68.984,443.979 130.24,443.979 130.24,281.1 146.422,275.703 146.422,482.631 352.853,482.631 
		352.853,275.703 369.034,281.1 369.034,443.979 430.29,443.979 430.29,263.002 	"/>
	<rect x="68.984" y="435.403" fill="#9B9B9B" width="61.255" height="8.574"/>
	<rect x="369.085" y="435.403" fill="#9B9B9B" width="61.256" height="8.574"/>
	<path fill="#9B9B9B" d="M287.057,177.929l-33.873,55.285l-0.408,0.684c-0.021,0.032-0.045,0.056-0.063,0.088l-2.563,4.165
		l-2.203-3.69c-0.146-0.175-0.294-0.348-0.426-0.563l-31.412-55.969h-0.137c-0.671-1.084-1.904,0.993-3.305,0h-11.798
		c-0.519,1.302-0.465,2.654,0.297,3.893l46.365,75.475c1.439,2.345,3.803,2.349,5.248,0.008l46.745-75.605
		c0.739-1.196,0.816-2.496,0.354-3.771h-12.113C287.52,178.101,287.285,177.742,287.057,177.929z"/>
	<polygon opacity="0.5" fill="#6B6B6B" enable-background="new    " points="241.468,193.235 210.725,215.892 209.499,209.271 
		238.614,188.699 240.233,189.893 	"/>
	<polygon fill="#D3D3D3" points="240.233,189.893 208.814,213.818 199.078,177.929 225.786,177.929 	"/>
	<polygon opacity="0.5" fill="#6B6B6B" enable-background="new    " points="258.825,193.235 289.568,215.892 291.323,208.607 
		262.803,188.049 260.061,189.893 	"/>
	<polygon fill="#D3D3D3" points="260.061,189.893 291.481,213.818 301.749,177.929 274.429,177.929 	"/>
</g>
</svg>
