<?xml version="1.0" encoding="utf-8"?>
<!-- Generator: Adobe Illustrator 14.0.0, SVG Export Plug-In . SVG Version: 6.00 Build 43363)  -->
<!DOCTYPE svg PUBLIC "-//W3C//DTD SVG 1.1//EN" "http://www.w3.org/Graphics/SVG/1.1/DTD/svg11.dtd">
<svg version="1.1" id="content" xmlns="http://www.w3.org/2000/svg" xmlns:xlink="http://www.w3.org/1999/xlink" x="0px" y="0px"
	 width="500px" height="500px" viewBox="0 0 500 500" enable-background="new 0 0 500 500" xml:space="preserve">
<g id="bounds" display="none">
	<rect x="0.063" y="79.948" fill="none" stroke="#EAEAEA" stroke-miterlimit="10" width="499.5" height="499.5"/>
</g>
<g id="chooser">
	<path fill="#E5E6C4" d="M200.957,207.718c0,0,12.396,19.58,33.625,19.67c6.754,12.607,6.754,12.607,6.754,12.607l9.972-12.607
		c0,0,9.607,2.847,32.468-13.894c0,102.742,0,269.894,0,269.894H195.47L200.957,207.718z"/>
	<polygon fill="#7A7B72" points="144.242,176.008 125.571,190.433 69.883,261.434 69.883,442.411 131.14,442.411 131.14,279.532 
		146.414,274.439 146.414,483.387 204.314,483.387 204.314,176.008 	"/>
	<path fill="#605D62" d="M177.143,196.065c0,0-18.865,12.6-14.66,44.446c4.085-4.598,5.68-6.167,5.68-6.167l7.988,7.824l5.519-7.362
		c3.553,5.72,5.481,8.694,5.481,8.694l4.687-7.463l4.125,7.551C195.963,243.588,203.198,207.153,177.143,196.065z"/>
	<path fill="#706E72" d="M165.485,217.766c0,0-2.557,4.588-1.566,16.066c4.288-5.944,4.288-5.944,4.288-5.944l7.547,7.377
		l6.307-7.273l4.694,8.606l4.017-7.119l4.659,9.252c0,0,1.683-16.939-2.503-20.409c2.199,5.526,0.901,13.563,0.901,13.563
		l-3.006-8.342l-3.496,7.602l-4.987-7.503l-7.073,8.758l-7.47-8.313l-2.501,5.252C165.294,229.342,164.148,220.264,165.485,217.766z
		"/>
	<path fill="#706E72" d="M169.432,209.909c0,0-0.53,1.71-0.658,9.829c3.805-4.878,5.087-6.141,5.087-6.141l5.592,7.769l3.338-8.578
		l5.641,6.987c0,0,2.361-7.987-2.956-13.043c1.115,4.39,1.466,7.505,1.466,7.505l-5.864-5.044l-1.893,6.23l-5.621-6.668
		l-3.354,6.868L169.432,209.909z"/>
	<path fill="#706E72" d="M176.298,198.292c0,0-2.769,2.974-3.897,6.855c3.016-3.26,3.96-4.091,3.96-4.091l1.463,4.354l0.721-4.798
		l5.187,3.78C183.732,204.391,180.509,199.354,176.298,198.292z"/>
	<path fill="#605D62" d="M177.143,318.011c0,0-18.865,12.602-14.66,44.446c4.085-4.598,5.68-6.167,5.68-6.167l7.988,7.823
		l5.519-7.361c3.553,5.719,5.481,8.693,5.481,8.693l4.687-7.463l4.125,7.551C195.963,365.534,203.198,329.1,177.143,318.011z"/>
	<path fill="#706E72" d="M165.485,339.714c0,0-2.557,4.588-1.566,16.066c4.288-5.943,4.288-5.943,4.288-5.943l7.547,7.377
		l6.307-7.272l4.694,8.606l4.017-7.119l4.659,9.252c0,0,1.683-16.938-2.503-20.407c2.199,5.525,0.901,13.563,0.901,13.563
		l-3.006-8.343l-3.496,7.603l-4.987-7.503l-7.073,8.757l-7.47-8.313l-2.501,5.252C165.294,351.288,164.148,342.212,165.485,339.714z
		"/>
	<path fill="#706E72" d="M169.432,331.857c0,0-0.53,1.709-0.658,9.827c3.805-4.877,5.087-6.14,5.087-6.14l5.592,7.77l3.338-8.578
		l5.641,6.985c0,0,2.361-7.985-2.956-13.043c1.115,4.392,1.466,7.505,1.466,7.505l-5.864-5.044l-1.893,6.23l-5.621-6.668
		l-3.354,6.867L169.432,331.857z"/>
	<path fill="#706E72" d="M176.298,320.24c0,0-2.769,2.975-3.897,6.854c3.016-3.26,3.96-4.09,3.96-4.09l1.463,4.354l0.721-4.8
		l5.187,3.779C183.732,326.339,180.509,321.301,176.298,320.24z"/>
	<path fill="#605D62" d="M181.615,257.697c0,0,18.866,12.602,14.66,44.445c-4.085-4.598-5.679-6.167-5.679-6.167l-7.989,7.823
		l-5.52-7.361c-3.553,5.719-5.481,8.693-5.481,8.693l-4.688-7.463l-4.125,7.551C162.792,305.219,155.56,268.784,181.615,257.697z"/>
	<path fill="#706E72" d="M193.272,279.4c0,0,2.556,4.586,1.565,16.064c-4.288-5.943-4.288-5.943-4.288-5.943l-7.546,7.379
		l-6.306-7.273l-4.695,8.605l-4.016-7.119l-4.659,9.252c0,0-1.683-16.938,2.502-20.406c-2.199,5.525-0.901,13.563-0.901,13.563
		l3.007-8.343l3.496,7.603l4.986-7.502l7.074,8.756l7.469-8.313l2.501,5.252C193.462,290.972,194.608,281.898,193.272,279.4z"/>
	<path fill="#706E72" d="M189.324,271.54c0,0,0.53,1.71,0.658,9.828c-3.806-4.877-5.087-6.141-5.087-6.141l-5.593,7.77l-3.338-8.578
		l-5.64,6.986c0,0-2.362-7.986,2.956-13.043c-1.116,4.391-1.466,7.506-1.466,7.506l5.864-5.045l1.893,6.229l5.621-6.669l3.354,6.869
		L189.324,271.54z"/>
	<path fill="#706E72" d="M182.457,259.923c0,0,2.77,2.976,3.898,6.855c-3.017-3.262-3.96-4.09-3.96-4.09l-1.463,4.354l-0.722-4.799
		l-5.186,3.779C175.026,266.025,178.247,260.986,182.457,259.923z"/>
	<path fill="#605D62" d="M181.615,381.894c0,0,18.866,12.6,14.66,44.446c-4.085-4.598-5.679-6.168-5.679-6.168l-7.989,7.824
		l-5.52-7.363c-3.553,5.72-5.481,8.695-5.481,8.695l-4.688-7.463l-4.125,7.551C162.792,429.417,155.56,392.982,181.615,381.894z"/>
	<path fill="#706E72" d="M193.272,403.596c0,0,2.556,4.587,1.565,16.066c-4.288-5.944-4.288-5.944-4.288-5.944l-7.546,7.378
		l-6.306-7.272l-4.695,8.605l-4.016-7.12l-4.659,9.253c0,0-1.683-16.938,2.502-20.408c-2.199,5.526-0.901,13.563-0.901,13.563
		l3.007-8.342l3.496,7.6l4.986-7.502l7.074,8.759l7.469-8.313l2.501,5.252C193.462,415.171,194.608,406.094,193.272,403.596z"/>
	<path fill="#706E72" d="M189.324,395.738c0,0,0.53,1.711,0.658,9.83c-3.806-4.879-5.087-6.142-5.087-6.142l-5.593,7.769
		l-3.338-8.578l-5.64,6.987c0,0-2.362-7.987,2.956-13.045c-1.116,4.392-1.466,7.507-1.466,7.507l5.864-5.043l1.893,6.229
		l5.621-6.669l3.354,6.868L189.324,395.738z"/>
	<path fill="#706E72" d="M182.457,384.12c0,0,2.77,2.975,3.898,6.854c-3.017-3.258-3.96-4.09-3.96-4.09l-1.463,4.354l-0.722-4.799
		l-5.186,3.779C175.026,390.221,178.247,385.182,182.457,384.12z"/>
	<path fill="#87AF9F" d="M247.235,275.679c-15.021,0-27.197,10.803-27.197,24.127c0,10.35,7.345,19.172,17.66,22.6v7.106
		c0,1.371,1.968,2.482,4.395,2.482h10.686c2.428,0,4.395-1.111,4.395-2.482v-7.247c10.104-3.521,17.264-12.244,17.264-22.459
		C274.432,286.482,262.255,275.679,247.235,275.679z M247.276,304.365l6.086,12.436l-12.174-0.001L247.276,304.365z
		 M235.982,306.156c-3.417,0-6.188-3.269-6.188-7.297c0-4.029,2.771-7.297,6.188-7.297c3.417,0,6.188,3.268,6.188,7.297
		C242.169,302.887,239.4,306.156,235.982,306.156z M258.729,306.156c-3.417,0-6.188-3.269-6.188-7.297
		c0-4.029,2.771-7.297,6.188-7.297s6.188,3.268,6.188,7.297C264.916,302.887,262.146,306.156,258.729,306.156z"/>
	<polygon fill="#7A7B72" points="374.454,190.285 355.782,176.008 272.44,176.008 272.44,483.387 352.911,483.387 352.911,274.056 
		368.884,279.384 368.884,442.263 430.14,442.263 430.14,261.286 	"/>
	<ellipse fill="#898D77" cx="326.513" cy="204.654" rx="3.732" ry="4.402"/>
	<ellipse fill="#898D77" cx="327.958" cy="316.759" rx="3.732" ry="4.402"/>
	<ellipse fill="#898D77" cx="323.873" cy="359.531" rx="3.732" ry="4.402"/>
	<ellipse fill="#898D77" cx="304.865" cy="212.069" rx="6.896" ry="8.132"/>
	<ellipse fill="#898D77" cx="309.712" cy="275.68" rx="6.896" ry="8.132"/>
	<ellipse fill="#898D77" cx="323.578" cy="233.128" rx="4.33" ry="5.105"/>
	<ellipse fill="#898D77" cx="309.712" cy="337.925" rx="6.896" ry="8.132"/>
	<ellipse fill="#898D77" cx="310.79" cy="433.531" rx="3.733" ry="4.402"/>
	<ellipse fill="#898D77" cx="314.875" cy="390.759" rx="3.733" ry="4.402"/>
	<ellipse fill="#898D77" cx="329.038" cy="412.365" rx="6.896" ry="8.132"/>
	<rect x="272.44" y="176.008" fill="#898D77" width="18.938" height="307.379"/>
	<rect x="263.393" y="176.008" opacity="0.4" fill="#494746" enable-background="new    " width="9.047" height="307.379"/>
	<rect x="204.314" y="176.008" opacity="0.4" fill="#494746" enable-background="new    " width="9.046" height="307.379"/>
	<ellipse fill="#605D62" cx="281.908" cy="215.796" rx="5.717" ry="6.74"/>
	<ellipse fill="#605D62" cx="281.908" cy="254.193" rx="5.717" ry="6.74"/>
	<ellipse fill="#605D62" cx="281.908" cy="292.589" rx="5.717" ry="6.74"/>
	<ellipse fill="#605D62" cx="281.908" cy="330.987" rx="5.717" ry="6.74"/>
	<ellipse fill="#605D62" cx="281.908" cy="369.384" rx="5.717" ry="6.74"/>
	<ellipse fill="#605D62" cx="281.908" cy="407.781" rx="5.717" ry="6.74"/>
	<ellipse fill="#605D62" cx="281.908" cy="446.177" rx="5.717" ry="6.74"/>
	<polygon fill="#9A9B8F" points="204.388,204.228 180.766,176.008 204.388,176.008 	"/>
	<polygon fill="#A6AA8D" points="272.494,204.228 296.117,176.008 272.494,176.008 	"/>
	<polygon fill="#878A78" points="407.754,434.023 391.022,374.781 407.754,359.337 382.74,297.986 416.429,288.538 377.99,194.721 
		429.74,261.286 429.74,442.263 	"/>
	<polygon fill="#E5E6C4" points="368.752,434.023 366.084,458.995 429.352,467.257 429.352,456.501 	"/>
	<polygon opacity="0.4" fill="#494746" enable-background="new    " points="368.752,433.503 367.677,444.083 429.352,458.034 	"/>
	<polygon fill="#67685F" points="429.352,457.589 365.168,435.349 365.168,423.986 437.153,440.952 	"/>
	<polygon fill="#878A78" points="91.869,434.171 108.603,374.928 91.869,359.486 116.884,298.134 83.195,288.687 121.633,194.87 
		69.883,261.434 69.883,442.411 	"/>
	<polygon fill="#E5E6C4" points="70.271,456.65 70.271,467.406 133.539,459.144 130.871,434.171 	"/>
	<polygon opacity="0.4" fill="#494746" enable-background="new    " points="70.271,458.183 131.946,444.232 130.871,433.652 	"/>
	<polygon fill="#67685F" points="62.472,441.101 134.455,424.134 134.455,435.497 70.271,457.738 	"/>
</g>
<rect id="position" x="0.5" y="1.677" display="none" fill="none" stroke="#000000" width="499" height="499"/>
</svg>
