<?xml version="1.0" encoding="utf-8"?>
<!-- Generator: Adobe Illustrator 18.0.0, SVG Export Plug-In . SVG Version: 6.00 Build 0)  -->
<!DOCTYPE svg PUBLIC "-//W3C//DTD SVG 1.1 Basic//EN" "http://www.w3.org/Graphics/SVG/1.1/DTD/svg11-basic.dtd">
<svg version="1.1" baseProfile="basic" id="content"
	 xmlns="http://www.w3.org/2000/svg" xmlns:xlink="http://www.w3.org/1999/xlink" x="0px" y="0px" viewBox="0 0 500 500"
	 xml:space="preserve">
<rect id="position" x="0.5" y="0.5" display="none" fill="none" stroke="#000000" width="499" height="499"/>
<g id="bounds">
	<rect x="-0.2" y="80.4" fill="none" stroke="#EAEAEA" stroke-miterlimit="10" width="499.5" height="499.5"/>
</g>
<g>
	<path opacity="0.2" d="M103,179.2c0,0-24.9,25.6-20.5,51.1c4.5,25.6,11.8,26.7,56.8,26.7c44.9,0,68.9,0,68.9,0s26.9-0.8,33.1-20
		c2.2-5.2,1.8-16.1,1.8-16.1s14.8,45.6-29.6,45.6s-103.2,0-103.2,0s-33.5,1.5-37.7-33C68.7,199.2,97.5,181.2,103,179.2z"/>
	<ellipse opacity="0.2" cx="108.9" cy="242" rx="6.9" ry="5.9"/>
	<path opacity="0.2" d="M153.1,402.7c0,0,6.9,26.9,41.7,30.3c14.3,1,26.6-2.4,36.7-9.4c8.4-5.5,13.6-4,14.6,0.7
		c-10.4,3.9-18.5,14.1-45.7,15.6C173.1,441.2,154.1,421.4,153.1,402.7z"/>
	<path opacity="0.2" d="M108.6,410.3c0,0,3.4,23.9,23.2,32.3c19.2,8.1,24.9,2,29.9,14.8c5,12.6,19.7,23.7,19.7,23.7
		c-19.2-2-26.9-20.9-26.9-20.9c-4.2-8.2-26.7-1.3-39.7-23.5C101.7,414.1,108.6,410.3,108.6,410.3z"/>
	<path opacity="0.2" d="M92.8,271.2c0,0-5.4,17.7,20.3,35.1c10.3,9.1,1.2,36,9.8,48.6c-10.4-5-9.9-19.3-10.4-29.8
		C111.4,307.7,78,294.8,92.8,271.2z"/>
	<path opacity="0.2" d="M397,179.2c0,0,24.9,25.6,20.5,51.1c-4.5,25.6-11.8,26.7-56.8,26.7s-68.9,0-68.9,0s-26.9-0.8-33.1-20
		c-2-5.2-1.8-16.1-1.8-16.1s-14.8,45.6,29.6,45.6s103.2,0,103.2,0s33.5,1.5,37.7-33C431.4,199.2,402.7,181.2,397,179.2z"/>
	<ellipse opacity="0.2" cx="391.1" cy="242" rx="6.9" ry="5.9"/>
	<path opacity="0.2" d="M275,294.6c-19.7-3.9-23.9-13.8-24.9-16.6c0-0.3-0.2-0.5-0.2-0.8c0,0.3-0.2,0.5-0.2,0.8
		c-0.8,2.9-5.2,12.6-24.9,16.6c-23,4.7-75.3,6.2-72.5,41.2c4.9-20.5,25.7-26.4,45.4-29.3c16.3-2.4,46.6-4.7,52-19
		c5.4,14.5,35.6,16.6,52,19c19.7,2.9,40.5,8.7,45.4,29.3C350.4,300.6,298.1,299.1,275,294.6z"/>
	<path opacity="0.2" d="M167.8,350.2c15.8,11.3,46.4,11.4,57.5,1.2c8.9-8.4,18-11.9,24.7-12.3c6.7,0.3,15.8,4,24.7,12.3
		c11.1,10.3,41.7,10.1,57.5-1.2c14-9.6,4.9-18.5-0.5-20.9c0,0,5.7,9.6-3.9,14.1c-9.6,4.5-33.8,10.6-48.4-0.2
		c-11.3-8.4-22.9-10.8-29.4-7.9c-6.6-2.9-18.2-0.5-29.4,7.9c-14.6,10.8-38.8,4.7-48.4,0.2c-9.6-4.5-3.9-14.1-3.9-14.1
		C162.9,331.6,153.8,340.7,167.8,350.2z"/>
	<path opacity="0.2" d="M335.6,353.1c11.1,24.4-16.8,38.2-28.6,38.2c-21.7,0-30.6-5.4-44.2-11.4c-6.4-2.9-10.4-1.7-12.6,0.5
		c-2.4-2-6.2-3.4-12.6-0.5c-13.6,6.1-22.5,11.4-44.2,11.4c-11.8,0-39.7-13.8-28.6-38.2c-13.1,7.9-11.8,27.9,11.8,41.2
		c23.5,13.3,53.3-1.7,65.1-8.2c2.7-1.7,4.5-0.2,6.6,0.8c0.7,0.3,1.3,0.5,1.8,0.5c0.2,0,0.2,0,0.3,0c0.2,0,0.2,0,0.3,0
		c0.5,0,1.2-0.2,1.8-0.5c2-0.8,3.7-2.4,6.6-0.8c11.8,6.6,41.5,21.5,65.1,8.2C347.7,381,348.7,361,335.6,353.1z"/>
	<path opacity="0.2" d="M347,402.7c0,0-6.9,26.9-41.7,30.3c-14.3,1-26.6-2.4-36.7-9.4c-8.4-5.5-13.6-4-14.6,0.7
		c10.4,3.9,18.5,14.1,45.7,15.6C327,441.2,345.8,421.4,347,402.7z"/>
	<path opacity="0.2" d="M391.6,410.3c0,0-3.4,23.9-23.2,32.3c-19.2,8.1-24.9,2-29.9,14.8c-5,12.6-19.7,23.7-19.7,23.7
		c19.2-2,26.9-20.9,26.9-20.9c4.2-8.2,26.7-1.3,39.7-23.5C398.5,414.1,391.6,410.3,391.6,410.3z"/>
	<path opacity="0.2" d="M407.2,271.2c0,0,5.4,17.7-20.3,35.1c-10.3,9.1-1.2,36-9.8,48.6c10.4-5,9.9-19.3,10.4-29.8
		C388.7,307.7,422.2,294.8,407.2,271.2z"/>
	<ellipse opacity="0.2" cx="249.8" cy="407.2" rx="6.2" ry="3.9"/>
</g>
</svg>
