<?xml version="1.0" encoding="utf-8"?>
<!-- Generator: Adobe Illustrator 14.0.0, SVG Export Plug-In . SVG Version: 6.00 Build 43363)  -->
<!DOCTYPE svg PUBLIC "-//W3C//DTD SVG 1.1//EN" "http://www.w3.org/Graphics/SVG/1.1/DTD/svg11.dtd">
<svg version="1.1" id="content" xmlns="http://www.w3.org/2000/svg" xmlns:xlink="http://www.w3.org/1999/xlink" x="0px" y="0px"
	 width="500px" height="500px" viewBox="0 0 500 500" enable-background="new 0 0 500 500" xml:space="preserve">
<rect id="position" x="0.5" y="0.5" display="none" fill="none" stroke="#000000" width="499" height="499"/>
<g id="bounds">
	<rect x="-0.208" y="80.372" fill="none" stroke="#EAEAEA" stroke-miterlimit="10" width="499.494" height="499.5"/>
</g>
<path fill="#595959" d="M315.962,248.967c-8.383-32.185-5.307-73.478-5.307-73.478h-8.36c0,0,13.437,104.143-45.685,104.143
	c-5.673,0-8.419,0-14.092,0c-59.121,0-45.684-104.143-45.684-104.143h-8.36c0,0,3.076,41.292-5.307,73.478
	c-8.382,32.186-66.458,21.262-66.458,21.262V480.5h132.855H382.42V270.228C382.42,270.228,324.344,281.152,315.962,248.967z"/>
</svg>
