<?xml version="1.0" encoding="utf-8"?>
<!-- Generator: Adobe Illustrator 14.0.0, SVG Export Plug-In . SVG Version: 6.00 Build 43363)  -->
<!DOCTYPE svg PUBLIC "-//W3C//DTD SVG 1.1//EN" "http://www.w3.org/Graphics/SVG/1.1/DTD/svg11.dtd">
<svg version="1.1" id="content" xmlns="http://www.w3.org/2000/svg" xmlns:xlink="http://www.w3.org/1999/xlink" x="0px" y="0px"
	 width="500px" height="500px" viewBox="0 0 500 500" enable-background="new 0 0 500 500" xml:space="preserve">
<rect id="position" x="0.5" y="0.5" display="none" fill="none" stroke="#000000" width="499" height="499"/>
<g id="body">
	<rect x="200.191" y="195.817" fill="#42423D" width="98.576" height="52.527"/>
	<path fill="#C9C797" d="M201,224.833c0,0,85.5,18.28,85.5-52.793c93,0,95.758,0,95.758,0V481.5H201V224.833z"/>
	<path fill="#B7B38A" d="M242.83,254.353c0,0,78.858-11.974,79.651-82.313c11.499,0,27.757,0,27.757,0s-14.504,83.005-94.588,90.937
		C250.328,259.803,242.83,254.353,242.83,254.353z"/>
	<path fill="#DCDBAC" d="M207.951,172.04c0,0-6.213,46.769,75.136,95.794c0,80,0,213.666,0,213.666H107.833V172.04H207.951z"/>
	<path fill="#BFBD85" d="M170.832,172.04c0,0,9.508,79.794,112.255,94.794c0,2.262,0,4.695,0,6.949
		c-32.011,8.254-134.92-20.398-134.92-101.743C165.833,172.04,170.832,172.04,170.832,172.04z"/>
	<circle fill="#1D1E14" cx="230.845" cy="291.244" r="8.832"/>
	<circle fill="#313322" cx="230.844" cy="291.244" r="7.158"/>
	<circle fill="#1D1E14" cx="228.377" cy="292.517" r="1.305"/>
	<circle fill="#1D1E14" cx="233.05" cy="289.336" r="1.305"/>
	<circle fill="#1D1E14" cx="260.613" cy="291.244" r="8.832"/>
	<circle fill="#313322" cx="260.613" cy="291.244" r="7.159"/>
	<circle fill="#1D1E14" cx="258.145" cy="292.517" r="1.305"/>
	<circle fill="#1D1E14" cx="262.818" cy="289.336" r="1.305"/>
	<circle fill="#1D1E14" cx="230.845" cy="325.01" r="8.832"/>
	<circle fill="#313322" cx="230.844" cy="325.01" r="7.158"/>
	<circle fill="#1D1E14" cx="228.377" cy="326.281" r="1.305"/>
	<circle fill="#1D1E14" cx="233.05" cy="323.102" r="1.305"/>
	<circle fill="#1D1E14" cx="260.613" cy="325.01" r="8.832"/>
	<circle fill="#313322" cx="260.613" cy="325.01" r="7.159"/>
	<circle fill="#1D1E14" cx="258.145" cy="326.281" r="1.305"/>
	<circle fill="#1D1E14" cx="262.818" cy="323.102" r="1.305"/>
	<circle fill="#1D1E14" cx="230.845" cy="355.01" r="8.832"/>
	<circle fill="#313322" cx="230.844" cy="355.01" r="7.158"/>
	<circle fill="#1D1E14" cx="228.377" cy="356.281" r="1.305"/>
	<circle fill="#1D1E14" cx="233.05" cy="353.102" r="1.305"/>
	<circle fill="#1D1E14" cx="260.613" cy="355.01" r="8.832"/>
	<circle fill="#313322" cx="260.613" cy="355.01" r="7.159"/>
	<circle fill="#1D1E14" cx="258.145" cy="356.281" r="1.305"/>
	<circle fill="#1D1E14" cx="262.818" cy="353.102" r="1.305"/>
</g>
</svg>
