<?xml version="1.0" encoding="utf-8"?>
<!-- Generator: Adobe Illustrator 13.0.0, SVG Export Plug-In . SVG Version: 6.00 Build 14948)  -->
<!DOCTYPE svg PUBLIC "-//W3C//DTD SVG 1.1//EN" "http://www.w3.org/Graphics/SVG/1.1/DTD/svg11.dtd">
<svg version="1.1" id="content" xmlns="http://www.w3.org/2000/svg" xmlns:xlink="http://www.w3.org/1999/xlink" x="0px" y="0px"
	 width="500px" height="500px" viewBox="0 0 500 500" enable-background="new 0 0 500 500" xml:space="preserve">
<rect id="position" x="0.5" y="0.5" display="none" fill="none" stroke="#000000" width="499" height="499"/>
<g id="body">
	<path fill="#E8E9F0" d="M287.695,173.232c-3.153,14.487-19.571,25.534-39.363,25.534s-36.21-11.046-39.364-25.534h-92.563v307.783
		h265.854V173.232H287.695z"/>
	<g>
		<path fill="#C8C9CE" d="M230.841,216.985l4.311,4.311v122.983c0,0,0.192,10.34-7.877,10.34c-8.068,0-110.726,0-110.726,0v-8.194
			H223.3v-129.44H230.841z"/>
		<path fill="#3E3B3E" d="M116.404,173.232h76.037c0,0,13.688,27.435,38.399,42.452c0,18.25-0.702,129.076-0.702,129.076
			s-0.819,5.321-12.415,5.321c-11.596,0-101.32,0-101.32,0L116.404,173.232L116.404,173.232z"/>
		<rect x="116.404" y="173.232" fill="#645D64" width="75.473" height="16.03"/>
		<polygon fill="#645D64" points="225.025,225 116.404,225 116.404,208.971 211.295,208.971 		"/>
		<rect x="116.404" y="244.708" fill="#645D64" width="108.621" height="16.028"/>
		<rect x="116.404" y="280.445" fill="#645D64" width="108.621" height="16.029"/>
		<rect x="116.404" y="316.184" fill="#645D64" width="108.621" height="16.028"/>
		<path fill="#2B262B" d="M192.441,173.232h-11.236c1.775,3.364,18.159,33.626,40.364,48.156c0,19.39,0,113.867,0,113.867
			s0.529,6.464-6.314,6.464c-6.843,0-98.47,0-98.47,0l-0.236,8.362c3.789,0,89.835,0,101.176,0c11.596,0,13.117-2.979,13.117-7.468
			c0-2.145,0-108.681,0-126.93C206.128,200.667,192.441,173.232,192.441,173.232z"/>
	</g>
	<path fill="#C8C9CE" d="M267.82,216.985l-4.311,4.311v122.983c0,0-0.191,10.34,7.877,10.34c8.069,0,110.727,0,110.727,0v-8.194
		H275.361v-129.44H267.82z"/>
	<g>
		<path fill="#3E3B3E" d="M382.258,173.232h-76.037c0,0-13.687,27.435-38.398,42.452c0,18.25,0.701,129.076,0.701,129.076
			s0.818,5.321,12.414,5.321c11.598,0,101.32,0,101.32,0V173.232L382.258,173.232z"/>
		<rect x="306.785" y="173.232" fill="#645D64" width="75.473" height="16.03"/>
		<polygon fill="#645D64" points="273.637,225 382.258,225 382.258,208.971 287.367,208.971 		"/>
		<rect x="273.637" y="244.708" fill="#645D64" width="108.621" height="16.028"/>
		<rect x="273.637" y="280.445" fill="#645D64" width="108.621" height="16.029"/>
		<rect x="273.637" y="316.184" fill="#645D64" width="108.621" height="16.028"/>
		<path fill="#2B262B" d="M306.221,173.232h15.853c-1.775,3.364-18.16,33.626-40.364,48.156c0,19.39,0,113.867,0,113.867
			s-0.527,6.464,6.314,6.464c6.844,0,93.854,0,93.854,0l0.234,8.362c-3.788,0-89.835,0-101.177,0c-11.596,0-13.115-1.5-13.115-7.468
			c0-2.145,0-108.681,0-126.93C292.534,200.667,306.221,173.232,306.221,173.232z"/>
	</g>
	<g>
		<circle fill="#C2BDC2" cx="274.25" cy="233.25" r="2.863"/>
		<circle fill="#C2BDC2" cx="274.25" cy="252.242" r="2.863"/>
		<circle fill="#C2BDC2" cx="274.25" cy="271.235" r="2.863"/>
		<circle fill="#C2BDC2" cx="274.25" cy="290.229" r="2.863"/>
		<circle fill="#C2BDC2" cx="274.25" cy="309.221" r="2.863"/>
		<circle fill="#C2BDC2" cx="274.25" cy="328.213" r="2.863"/>
	</g>
</g>
</svg>
