<?xml version="1.0" encoding="utf-8"?>
<!-- Generator: Adobe Illustrator 14.0.0, SVG Export Plug-In . SVG Version: 6.00 Build 43363)  -->
<!DOCTYPE svg PUBLIC "-//W3C//DTD SVG 1.1//EN" "http://www.w3.org/Graphics/SVG/1.1/DTD/svg11.dtd">
<svg version="1.1" id="content" xmlns="http://www.w3.org/2000/svg" xmlns:xlink="http://www.w3.org/1999/xlink" x="0px" y="0px"
	 width="500px" height="500px" viewBox="0 0 500 500" enable-background="new 0 0 500 500" xml:space="preserve">
<g id="bounds" display="none">
	<rect x="-0.03" y="79.938" fill="none" stroke="#EAEAEA" stroke-miterlimit="10" width="499.5" height="499.5"/>
</g>
<g id="chooser">
	<g>
		<path fill="#E8E9F0" d="M288.225,175.799c-3.153,14.487-19.571,25.529-39.363,25.529s-36.21-11.041-39.364-25.529h-63.322v307.778
			h206.811V175.799H288.225z"/>
		<path fill="#C8C9CE" d="M231.371,219.547l4.311,4.311v122.983c0,0,0.192,10.34-7.877,10.34c-8.068,0-81.484,0-81.484,0v-8.194
			h77.51V219.547H231.371z"/>
		<path fill="#3E3B3E" d="M192.971,175.799h-46.796h-0.001l0,0h-2.889l-18.672,14.351l-55.688,71v180.979h61.256v-162.88
			l15.992-5.021v78.419c0,0,60.483,0,72.08,0c11.596,0,12.415-5.32,12.415-5.32s0.702-110.827,0.702-129.077
			C206.658,203.228,192.971,175.799,192.971,175.799z"/>
		<polygon fill="#645D64" points="143.285,175.799 124.614,190.148 123.3,191.824 192.406,191.824 192.406,175.799 146.175,175.799 
			146.175,175.799 		"/>
		<polygon fill="#645D64" points="107.842,211.533 95.27,227.561 225.555,227.561 211.825,211.533 		"/>
		<polygon fill="#645D64" points="225.555,263.298 225.555,247.269 79.812,247.269 68.926,261.149 68.926,263.298 		"/>
		<rect x="146.175" y="283.007" fill="#645D64" width="79.38" height="16.029"/>
		<rect x="68.926" y="283.007" fill="#645D64" width="61.474" height="16.029"/>
		<rect x="68.926" y="318.746" fill="#645D64" width="61.474" height="16.028"/>
		<rect x="68.926" y="354.483" fill="#645D64" width="61.474" height="16.029"/>
		<rect x="68.926" y="390.221" fill="#645D64" width="61.474" height="16.029"/>
		<rect x="68.926" y="425.96" fill="#645D64" width="61.474" height="16.028"/>
		<rect x="146.175" y="318.746" fill="#645D64" width="79.38" height="16.028"/>
		<path fill="#2B262B" d="M192.971,175.799h-11.236c1.775,3.364,18.159,33.621,40.364,48.151c0,19.39,0,113.867,0,113.867
			s0.529,6.464-6.314,6.464s-69.229,0-69.229,0l-0.235,8.362c3.789,0,60.594,0,71.936,0c11.596,0,13.117-2.979,13.117-7.467
			c0-2.145,0-108.682,0-126.931C206.658,203.228,192.971,175.799,192.971,175.799z"/>
		<path fill="#C8C9CE" d="M268.35,219.547l-4.312,4.311v122.983c0,0-0.19,10.34,7.878,10.34s80.923,0,80.923,0v-8.194h-76.948
			V219.547H268.35z"/>
		<path fill="#3E3B3E" d="M374.547,190.148l-18.672-14.35h-2.891l0,0h-46.233c0,0-13.688,27.429-38.398,42.446
			c0,18.25,0.701,129.076,0.701,129.076s0.818,5.321,12.414,5.321c11.599,0,71.519,0,71.519,0v-77.896l15.992,4.498v162.88h61.256
			V261.149L374.547,190.148z"/>
		<polygon fill="#645D64" points="375.86,191.824 374.547,190.148 355.875,175.799 352.985,175.799 352.985,175.799 
			307.316,175.799 307.316,191.824 		"/>
		<polygon fill="#645D64" points="274.167,227.561 403.889,227.561 391.318,211.533 287.898,211.533 		"/>
		<polygon fill="#645D64" points="274.167,263.298 430.233,263.298 430.233,261.149 419.347,247.269 274.167,247.269 		"/>
		<rect x="274.167" y="283.007" fill="#645D64" width="78.817" height="16.029"/>
		<rect x="274.167" y="318.746" fill="#645D64" width="78.817" height="16.028"/>
		<path fill="#2B262B" d="M306.751,175.799h15.854c-1.775,3.364-18.16,33.621-40.364,48.151c0,19.39,0,113.867,0,113.867
			s-0.527,6.464,6.313,6.464c6.845,0,64.053,0,64.053,0l0.234,8.362c-3.787,0-60.033,0-71.373,0c-11.597,0-13.117-1.5-13.117-7.467
			c0-2.145,0-108.682,0-126.931C293.065,203.228,306.751,175.799,306.751,175.799z"/>
		<circle fill="#C2BDC2" cx="274.781" cy="235.812" r="2.863"/>
		<circle fill="#C2BDC2" cx="274.781" cy="254.803" r="2.863"/>
		<circle fill="#C2BDC2" cx="274.781" cy="273.797" r="2.863"/>
		<circle fill="#C2BDC2" cx="274.781" cy="292.791" r="2.863"/>
		<circle fill="#C2BDC2" cx="274.781" cy="311.782" r="2.863"/>
		<circle fill="#C2BDC2" cx="274.781" cy="330.775" r="2.863"/>
		<rect x="369.04" y="283.007" fill="#645D64" width="61.474" height="16.029"/>
		<rect x="369.04" y="318.746" fill="#645D64" width="61.474" height="16.028"/>
		<rect x="369.04" y="354.483" fill="#645D64" width="61.474" height="16.029"/>
		<rect x="369.04" y="390.221" fill="#645D64" width="61.474" height="16.029"/>
		<rect x="369.04" y="425.96" fill="#645D64" width="61.474" height="16.028"/>
		<rect x="68.926" y="442.128" fill="#E8E9F0" width="61.474" height="7.061"/>
		<rect x="369.04" y="442.128" fill="#E8E9F0" width="61.474" height="7.061"/>
	</g>
</g>
<rect id="position" x="0.5" y="0.5" display="none" fill="none" stroke="#000000" width="499" height="499"/>
</svg>
