<?xml version="1.0" encoding="utf-8"?>
<!-- Generator: Adobe Illustrator 18.0.0, SVG Export Plug-In . SVG Version: 6.00 Build 0)  -->
<!DOCTYPE svg PUBLIC "-//W3C//DTD SVG 1.1//EN" "http://www.w3.org/Graphics/SVG/1.1/DTD/svg11.dtd">
<svg version="1.1" id="content" xmlns="http://www.w3.org/2000/svg" xmlns:xlink="http://www.w3.org/1999/xlink" x="0px" y="0px"
	 width="500px" height="500px" viewBox="0 0 500 500" enable-background="new 0 0 500 500" xml:space="preserve">
<rect id="position" x="0.5" y="0.5" display="none" fill="none" stroke="#000000" width="499" height="499"/>
<g id="arm">
	<path fill="#212121" d="M76.5,297.6v-98.5c0-13.4,11.5-24.4,25.6-24.4l0,0c14.1,0,25.6,10.9,25.6,24.4l0,98.5L76.5,297.6
		L76.5,297.6z"/>
	<path fill="#020202" d="M76.6,196.1h50.8c-1.3-10-9-18.2-19-20.7c0,0-2.6-0.8-6.3-0.8s-6.3,0.8-6.3,0.8
		C85.6,177.9,77.9,186.1,76.6,196.1z"/>
	<rect x="76.5" y="276.9" fill="#020202" width="51.1" height="20.7"/>
	<rect x="76.5" y="243.1" fill="#020202" width="51.1" height="20.7"/>
	<rect x="76.5" y="209.3" fill="#020202" width="51.1" height="20.7"/>
</g>
</svg>
