<?xml version="1.0" encoding="utf-8"?>
<!-- Generator: Adobe Illustrator 18.0.0, SVG Export Plug-In . SVG Version: 6.00 Build 0)  -->
<!DOCTYPE svg PUBLIC "-//W3C//DTD SVG 1.1//EN" "http://www.w3.org/Graphics/SVG/1.1/DTD/svg11.dtd">
<svg version="1.1" id="content" xmlns="http://www.w3.org/2000/svg" xmlns:xlink="http://www.w3.org/1999/xlink" x="0px" y="0px"
	 width="500px" height="500px" viewBox="0 0 500 500" enable-background="new 0 0 500 500" xml:space="preserve">
<rect id="position" x="0.5" y="0.5" display="none" fill="none" stroke="#000000" width="499" height="499"/>
<g>
	<path fill="#003055" d="M128.2,286.7v-87.6c0-14.2-11.5-25.7-25.7-25.7l0,0c-14.2,0-25.7,11.5-25.7,25.7v87.6H128.2z"/>
	<path fill="#FCEE21" d="M126.5,295.8h-48c-0.9,0-1.7-0.8-1.7-1.7v-7.5h51.4v7.5C128.2,295.1,127.4,295.8,126.5,295.8z"/>
	<path opacity="0.1" d="M76.8,286.7v7.5c0,0.9,0.8,1.7,1.7,1.7h5.6v-9.2H76.8z"/>
	<rect x="91.5" y="286.7" opacity="0.1" width="7.3" height="9.1"/>
	<rect x="106.1" y="286.7" opacity="0.1" width="7.3" height="9.1"/>
	<path opacity="0.1" d="M120.8,286.7v9.2h5.6c0.9,0,1.7-0.8,1.7-1.7v-7.5H120.8z"/>
</g>
</svg>
