<?xml version="1.0" encoding="utf-8"?>
<!-- Generator: Adobe Illustrator 18.0.0, SVG Export Plug-In . SVG Version: 6.00 Build 0)  -->
<!DOCTYPE svg PUBLIC "-//W3C//DTD SVG 1.1//EN" "http://www.w3.org/Graphics/SVG/1.1/DTD/svg11.dtd">
<svg version="1.1" id="content" xmlns="http://www.w3.org/2000/svg" xmlns:xlink="http://www.w3.org/1999/xlink" x="0px" y="0px"
	 width="500px" height="500px" viewBox="0 0 500 500" enable-background="new 0 0 500 500" xml:space="preserve">
<g id="bounds" display="none">
	<rect x="0.2" y="80.2" display="inline" fill="none" stroke="#EAEAEA" stroke-miterlimit="10" width="499.5" height="499.5"/>
</g>
<rect id="position" x="0.5" y="0.5" display="none" fill="none" stroke="#000000" width="499" height="499"/>
<g>
	<path fill="#003055" d="M289.4,176.7c0,18.5-20.9,39.4-39.4,39.4c-18.5,0-39.4-20.9-39.4-39.4H134v275.9c0,11.2,9.1,20.3,20.3,20.3
		h191.4c11.2,0,20.3-9.1,20.3-20.3V176.7H289.4z"/>
	<path fill="#FCEE21" d="M250,210.1c-18.5,0-33.5-15-33.5-33.5h-10.6c0,24.3,19.8,44.1,44.1,44.1s44.1-19.8,44.1-44.1h-10.6
		C283.5,195.2,268.5,210.1,250,210.1z"/>
	<path opacity="0.1" d="M235.4,218.3c3.1,1.1,6.3,1.8,9.7,2.2l1.2-10.6c-2.5-0.3-5-0.8-7.3-1.7L235.4,218.3z M253.8,209.9l1.2,10.6
		c3.3-0.4,6.6-1.1,9.7-2.2l-3.5-10C258.8,209.1,256.3,209.6,253.8,209.9z M278.4,194.4l9,5.6c1.7-2.8,3.2-5.8,4.3-8.9l-10-3.5
		C280.8,190,279.7,192.3,278.4,194.4z M267.9,205l5.7,9c2.8-1.8,5.4-3.8,7.7-6.2l-7.5-7.5C272,202.1,270,203.6,267.9,205z
		 M283.5,176.7c0,1.2-0.1,2.4-0.2,3.6l10.6,1.1c0.2-1.6,0.3-3.2,0.3-4.8H283.5z M218.8,207.8c2.3,2.3,4.9,4.4,7.7,6.2l5.7-9
		c-2.1-1.3-4.1-2.9-5.9-4.7L218.8,207.8z M218.4,187.7l-10,3.5c1.1,3.1,2.5,6.1,4.3,8.9l9-5.6C220.3,192.3,219.2,190,218.4,187.7z
		 M216.5,176.7h-10.6c0,1.6,0.1,3.2,0.3,4.8l10.6-1.1C216.6,179.1,216.5,177.9,216.5,176.7z"/>
	<g>
		<g opacity="0.2">
			<path d="M177.2,276l-5.7,6.1l-2.8-2.6l-1.4,0l-3,3.3l0,1.4l10.8,10.1l1.4-0.1l3-3.3l0-1.3l-2.7-2.5l5.7-6.1l4.8,4.5l0.2,6.9
				l-9.2,9.8l-6.9,0.2l-15.2-14.2l-0.3-6.9l9.2-9.8l6.9-0.2L177.2,276z"/>
			<path d="M180.1,265.4l2.2-6.6l12-6l6.6,2.2l9.3,18.5L208,280l-12,6l-6.5-2.2L180.1,265.4z M194.7,261.4l-1.3-0.5l-4,2l-0.4,1.3
				l6.6,13.2l1.3,0.4l4-2l0.4-1.3L194.7,261.4z"/>
			<path d="M218.6,252l3.5,16.4l5.4-1.2l-0.4-1.8l6.7-1.4l1.8,8.5l-22.1,4.7l-1.4-6.7l1.8-0.4l-3.5-16.4l-1.8,0.4l-1.5-6.7l11.8-2.5
				l1.4,6.7L218.6,252z"/>
			<path d="M247.8,248.7l0.2,16.7l5.5-0.1l0-1.8l6.9-0.1l0.1,8.7l-22.6,0.2l-0.1-6.9l1.8,0l-0.2-16.7l-1.8,0l-0.1-6.9l12.1-0.1
				l0.1,6.9L247.8,248.7z"/>
			<path d="M274.1,267.5l5.2,1.1l0.2-1.2l6.7,1.4l-1.7,7.9l-22-4.6l1.4-6.7l1.8,0.4l3.4-16.4l-1.8-0.4l1.4-6.7l22,4.6l-1.7,7.9
				l-6.7-1.4l0.2-1.1l-5.2-1.1l-1,4.8l1.2,0.3l0.2-1.1l6.7,1.4l-1.9,9.1l-6.7-1.4l0.2-1.2l-1.2-0.3L274.1,267.5z"/>
			<path d="M314.2,271.8l-5.4,10.8l-6.5,2.2l-12-6l-2.2-6.5l9.2-18.6l6.5-2.2l12,6l2.2,6.5l-3,6.1l-7.5-3.7l1.7-3.4l-0.4-1.3l-4-2
				l-1.3,0.4l-6.6,13.3l0.5,1.3l4,2l1.3-0.4l1.3-2.6l-2.1-1l2.8-5.6L314.2,271.8z"/>
			<path d="M319.9,289.7l3.7,3.9l0.9-0.8l4.8,5l-5.9,5.6l-15.5-16.2l5-4.8l1.3,1.3l12.1-11.6l-1.3-1.3l5-4.8l15.5,16.2l-5.8,5.6
				l-4.8-5l0.8-0.8l-3.7-3.9l-3.5,3.4l0.9,0.9l0.8-0.8l4.7,5l-6.7,6.4l-4.7-5l0.9-0.8l-0.9-0.9L319.9,289.7z"/>
		</g>
		<g>
			<g>
				<g>
					<path fill="#EDD900" d="M177.2,274.4l-5.7,6.1l-2.8-2.6l-1.4,0l-3,3.3l0,1.4l10.8,10.1l1.4-0.1l3-3.3l0-1.3l-2.7-2.5l5.7-6.1
						l4.8,4.5l0.2,6.9l-9.2,9.8l-6.9,0.2l-15.2-14.2l-0.3-6.9l9.2-9.8l6.9-0.2L177.2,274.4z"/>
				</g>
				<g>
					<path fill="#EDD900" d="M180.1,263.7l2.2-6.6l12-6l6.6,2.2l9.3,18.5l-2.2,6.5l-12,6l-6.5-2.2L180.1,263.7z M194.7,259.8
						l-1.3-0.5l-4,2l-0.4,1.3l6.6,13.2l1.3,0.4l4-2l0.4-1.3L194.7,259.8z"/>
				</g>
				<g>
					<path fill="#EDD900" d="M218.6,250.4l3.5,16.4l5.4-1.2l-0.4-1.8l6.7-1.4l1.8,8.5l-22.1,4.7l-1.4-6.7l1.8-0.4l-3.5-16.4
						l-1.8,0.4l-1.5-6.7l11.8-2.5l1.4,6.7L218.6,250.4z"/>
				</g>
				<g>
					<path fill="#EDD900" d="M247.8,247l0.2,16.7l5.5-0.1l0-1.8l6.9-0.1l0.1,8.7l-22.6,0.2l-0.1-6.9l1.8,0l-0.2-16.7l-1.8,0
						l-0.1-6.9l12.1-0.1l0.1,6.9L247.8,247z"/>
				</g>
				<g>
					<path fill="#EDD900" d="M274.1,265.8l5.2,1.1l0.2-1.2l6.7,1.4l-1.7,7.9l-22-4.6l1.4-6.7l1.8,0.4l3.4-16.4l-1.8-0.4l1.4-6.7
						l22,4.6l-1.7,7.9l-6.7-1.4l0.2-1.1l-5.2-1.1l-1,4.8l1.2,0.3l0.2-1.1l6.7,1.4l-1.9,9.1l-6.7-1.4l0.2-1.2l-1.2-0.3L274.1,265.8z"
						/>
				</g>
				<g>
					<path fill="#EDD900" d="M314.2,270.2l-5.4,10.8l-6.5,2.2l-12-6l-2.2-6.5l9.2-18.6l6.5-2.2l12,6l2.2,6.5l-3,6.1l-7.5-3.7
						l1.7-3.4l-0.4-1.3l-4-2l-1.3,0.4l-6.6,13.3l0.5,1.3l4,2l1.3-0.4l1.3-2.6l-2.1-1l2.8-5.6L314.2,270.2z"/>
				</g>
				<g>
					<path fill="#EDD900" d="M319.9,288.1l3.7,3.9l0.9-0.8l4.8,5l-5.9,5.6l-15.5-16.2l5-4.8l1.3,1.3l12.1-11.6l-1.3-1.3l5-4.8
						l15.5,16.2l-5.8,5.6l-4.8-5l0.8-0.8l-3.7-3.9l-3.5,3.4l0.9,0.9l0.8-0.8l4.7,5l-6.7,6.4l-4.7-5l0.9-0.8l-0.9-0.9L319.9,288.1z"
						/>
				</g>
			</g>
		</g>
	</g>
	<path fill="#FCEE21" d="M342.6,482.8H159c-2.6,0-4.7-2.1-4.7-4.7v-5.2h193v5.2C347.3,480.7,345.2,482.8,342.6,482.8z"/>
	<g>
		<path fill="#003055" d="M120.5,431.7V251.4c1.4,0-52.3,0-54.6,0v180.3H120.5z"/>
		<path fill="#FCEE21" d="M118.7,441.4h-51c-1,0-1.8-0.8-1.8-1.8v-7.9h54.6v7.9C120.5,440.6,119.7,441.4,118.7,441.4z"/>
		<path opacity="0.1" d="M65.9,431.7v7.9c0,1,0.8,1.8,1.8,1.8h6v-9.7H65.9z"/>
		<rect x="81.5" y="431.7" opacity="0.1" width="7.8" height="9.7"/>
		<rect x="97.1" y="431.7" opacity="0.1" width="7.8" height="9.7"/>
		<path opacity="0.1" d="M112.7,431.7v9.7h6c1,0,1.8-0.8,1.8-1.8v-7.9H112.7z"/>
	</g>
	<path opacity="0.1" d="M347.3,478.2v-5.3h-7.7v9.9h3C345.1,482.8,347.2,480.8,347.3,478.2z"/>
	<rect x="324.1" y="472.9" opacity="0.1" width="7.7" height="9.9"/>
	<rect x="308.7" y="472.9" opacity="0.1" width="7.7" height="9.9"/>
	<rect x="293.2" y="472.9" opacity="0.1" width="7.7" height="9.9"/>
	<rect x="277.8" y="472.9" opacity="0.1" width="7.7" height="9.9"/>
	<rect x="262.4" y="472.9" opacity="0.1" width="7.7" height="9.9"/>
	<rect x="246.9" y="472.9" opacity="0.1" width="7.7" height="9.9"/>
	<rect x="231.5" y="472.9" opacity="0.1" width="7.7" height="9.9"/>
	<rect x="216.1" y="472.9" opacity="0.1" width="7.7" height="9.9"/>
	<rect x="200.6" y="472.9" opacity="0.1" width="7.7" height="9.9"/>
	<rect x="185.2" y="472.9" opacity="0.1" width="7.7" height="9.9"/>
	<rect x="169.7" y="472.9" opacity="0.1" width="7.7" height="9.9"/>
	<path opacity="0.1" d="M154.3,472.9v5.2c0,2.6,2.1,4.7,4.7,4.7h3v-9.9H154.3z"/>
	<polygon fill="#003055" points="134,176.7 65.9,251.4 120.5,276.3 147.3,249.1 	"/>
	<g>
		<path fill="#003055" d="M379.5,431.7V251.4c-1.4,0,52.3,0,54.6,0v180.3H379.5z"/>
		<path fill="#FCEE21" d="M381.3,441.4h51c1,0,1.8-0.8,1.8-1.8v-7.9h-54.6v7.9C379.5,440.6,380.3,441.4,381.3,441.4z"/>
		<path opacity="0.1" d="M434.1,431.7v7.9c0,1-0.8,1.8-1.8,1.8h-6v-9.7H434.1z"/>
		<rect x="410.7" y="431.7" opacity="0.1" width="7.8" height="9.7"/>
		<rect x="395.1" y="431.7" opacity="0.1" width="7.8" height="9.7"/>
		<path opacity="0.1" d="M387.3,431.7v9.7h-6c-1,0-1.8-0.8-1.8-1.8v-7.9H387.3z"/>
	</g>
	<polygon fill="#003055" points="366,176.7 434.1,251.4 379.5,276.3 352.7,249.1 	"/>
</g>
</svg>
