<?xml version="1.0" encoding="utf-8"?>
<!-- Generator: Adobe Illustrator 14.0.0, SVG Export Plug-In . SVG Version: 6.00 Build 43363)  -->
<!DOCTYPE svg PUBLIC "-//W3C//DTD SVG 1.1//EN" "http://www.w3.org/Graphics/SVG/1.1/DTD/svg11.dtd">
<svg version="1.1" id="content" xmlns="http://www.w3.org/2000/svg" xmlns:xlink="http://www.w3.org/1999/xlink" x="0px" y="0px"
	 width="500px" height="500px" viewBox="0 0 500 500" enable-background="new 0 0 500 500" xml:space="preserve">
<g id="arm">
	<path fill="#564E49" d="M76.45,283.811V199.09c0-13.447,11.445-24.354,25.57-24.354l0,0c14.124,0,25.573,10.904,25.573,24.354
		v84.726L76.45,283.811L76.45,283.811z"/>
	<polygon fill="#47413D" points="127.594,268.188 76.45,268.188 76.45,270.937 82.45,270.937 82.45,282.813 85.198,282.813 
		85.198,270.937 94.582,270.937 94.582,282.813 97.331,282.813 97.331,270.937 106.713,270.937 106.713,282.813 109.462,282.813 
		109.462,270.937 118.845,270.937 118.845,282.813 121.594,282.813 121.594,270.937 127.594,270.937 	"/>
</g>
<rect id="position" x="0" y="0" display="none" fill="none" stroke="#000000" width="500" height="500"/>
</svg>
