<?xml version="1.0" encoding="utf-8"?>
<!-- Generator: Adobe Illustrator 14.0.0, SVG Export Plug-In . SVG Version: 6.00 Build 43363)  -->
<!DOCTYPE svg PUBLIC "-//W3C//DTD SVG 1.1//EN" "http://www.w3.org/Graphics/SVG/1.1/DTD/svg11.dtd">
<svg version="1.1" id="content" xmlns="http://www.w3.org/2000/svg" xmlns:xlink="http://www.w3.org/1999/xlink" x="0px" y="0px"
	 width="500px" height="500px" viewBox="0 0 500 500" enable-background="new 0 0 500 500" xml:space="preserve">
<g id="bounds" display="none">
	<rect x="0.162" y="79.973" fill="none" stroke="#EAEAEA" stroke-miterlimit="10" width="499.5" height="499.5"/>
</g>
<g id="chooser">
	<g>
		<rect x="199.749" y="177.219" fill="#34352F" width="97.845" height="70.235"/>
		<polygon fill="#564E49" points="374.355,191.603 355.683,177.219 309.17,177.219 249.895,240.35 186.505,177.219 144.143,177.219 
			125.471,191.603 69.783,262.603 69.783,443.581 131.04,443.581 131.04,280.701 147.222,275.303 147.222,482.229 352.603,482.229 
			352.603,275.303 368.784,280.701 368.784,443.581 430.04,443.581 430.04,262.603 		"/>
		<path fill="#564E49" d="M204.29,244.122c-0.829,0-1.5-0.672-1.5-1.5v-37.513c0-0.828,0.671-1.5,1.5-1.5c0.827,0,1.5,0.672,1.5,1.5
			v37.514C205.79,243.449,205.118,244.122,204.29,244.122L204.29,244.122z"/>
		<path fill="#A59C98" d="M204.29,244.122c-0.829,0-1.5-0.672-1.5-1.5v-37.513c0-0.828,0.671-1.5,1.5-1.5c0.827,0,1.5,0.672,1.5,1.5
			v37.514C205.79,243.449,205.118,244.122,204.29,244.122L204.29,244.122z"/>
		<path fill="#564E49" d="M295.499,244.122c-0.828,0-1.5-0.672-1.5-1.5v-37.513c0-0.828,0.672-1.5,1.5-1.5
			c0.826,0,1.5,0.672,1.5,1.5v37.514C296.999,243.449,296.327,244.122,295.499,244.122L295.499,244.122z"/>
		<path fill="#A59C98" d="M295.499,244.122c-0.828,0-1.5-0.672-1.5-1.5v-37.513c0-0.828,0.672-1.5,1.5-1.5
			c0.826,0,1.5,0.672,1.5,1.5v37.514C296.999,243.449,296.327,244.122,295.499,244.122L295.499,244.122z"/>
		<path fill="#FFFFFF" d="M295.499,248.886c-0.276,0-0.5-0.224-0.5-0.5v-4.674c0-0.276,0.224-0.5,0.5-0.5c0.273,0,0.5,0.224,0.5,0.5
			v4.674C295.999,248.664,295.776,248.886,295.499,248.886L295.499,248.886z"/>
		<path fill="#FFFFFF" d="M204.29,248.886c-0.276,0-0.5-0.224-0.5-0.5v-4.674c0-0.276,0.224-0.5,0.5-0.5c0.274,0,0.5,0.224,0.5,0.5
			v4.674C204.79,248.664,204.566,248.886,204.29,248.886L204.29,248.886z"/>
		<polygon opacity="0.8" fill="#3D3836" enable-background="new    " points="156.22,177.219 248.172,242.622 171.458,177.219 		"/>
		<polygon opacity="0.8" fill="#3D3836" enable-background="new    " points="343.57,177.219 251.616,242.622 328.33,177.219 		"/>
		<polygon fill="#C4BFBC" points="292.268,177.219 249.895,237.038 207.522,177.219 165.061,177.219 249.895,243.974 
			334.729,177.219 		"/>
		<polygon fill="#BCB5B3" points="248.672,239.493 179.348,177.219 194.237,177.219 		"/>
		<polygon fill="#BCB5B3" points="249.895,239.797 319.218,177.219 304.328,177.219 		"/>
		<polygon fill="#635C57" points="185.497,284.428 185.497,344.934 249.911,344.934 249.911,284.428 		"/>
		<polygon fill="#A59C98" points="197.424,284.428 197.424,344.934 185.497,344.934 185.497,284.428 		"/>
		<polygon fill="#635C57" points="249.911,284.428 249.911,344.934 314.327,344.934 314.327,284.428 		"/>
		<polygon fill="#A59C98" points="314.327,284.428 314.327,344.934 302.401,344.934 302.401,284.428 		"/>
		<rect x="248.172" y="242.622" fill="#898785" width="3.514" height="239.606"/>
		<circle fill="#D3D3D3" cx="249.895" cy="240.073" r="3.829"/>
		<polygon fill="#D3D3D3" points="249.895,240.077 249.895,240.073 249.894,240.074 249.894,240.073 249.894,240.077 
			244.445,256.955 249.894,256.955 255.344,256.955 		"/>
		<rect x="185.497" y="338.184" fill="#B2AAA8" width="11.927" height="6.75"/>
		<rect x="185.497" y="324.746" fill="#B2AAA8" width="11.927" height="6.75"/>
		<rect x="185.497" y="311.305" fill="#B2AAA8" width="11.927" height="6.75"/>
		<rect x="185.497" y="297.869" fill="#B2AAA8" width="11.927" height="6.75"/>
		<rect x="185.497" y="284.428" fill="#B2AAA8" width="11.927" height="6.75"/>
		<rect x="302.358" y="338.291" fill="#B2AAA8" width="11.929" height="6.75"/>
		<rect x="302.358" y="324.85" fill="#B2AAA8" width="11.929" height="6.75"/>
		<rect x="302.358" y="311.412" fill="#B2AAA8" width="11.929" height="6.75"/>
		<rect x="302.358" y="297.973" fill="#B2AAA8" width="11.929" height="6.75"/>
		<rect x="302.358" y="284.534" fill="#B2AAA8" width="11.929" height="6.75"/>
		<polygon fill="#47413D" points="131.122,428.713 69.783,428.713 69.783,431.462 80.343,431.462 80.343,443.338 83.091,443.338 
			83.091,431.462 92.475,431.462 92.475,443.338 95.224,443.338 95.224,431.462 104.606,431.462 104.606,443.338 107.355,443.338 
			107.355,431.462 116.738,431.462 116.738,443.338 119.487,443.338 119.487,431.462 131.122,431.462 		"/>
		<polygon fill="#47413D" points="430.04,428.713 368.701,428.713 368.701,431.462 379.26,431.462 379.26,443.338 382.008,443.338 
			382.008,431.462 391.393,431.462 391.393,443.338 394.141,443.338 394.141,431.462 403.524,431.462 403.524,443.338 
			406.272,443.338 406.272,431.462 415.655,431.462 415.655,443.338 418.405,443.338 418.405,431.462 430.04,431.462 		"/>
	</g>
</g>
<rect id="position" x="0.5" y="0.5" display="none" fill="none" stroke="#000000" width="499" height="499"/>
</svg>
