<?xml version="1.0" encoding="utf-8"?>
<!-- Generator: Adobe Illustrator 14.0.0, SVG Export Plug-In . SVG Version: 6.00 Build 43363)  -->
<!DOCTYPE svg PUBLIC "-//W3C//DTD SVG 1.1//EN" "http://www.w3.org/Graphics/SVG/1.1/DTD/svg11.dtd">
<svg version="1.1" id="content" xmlns="http://www.w3.org/2000/svg" xmlns:xlink="http://www.w3.org/1999/xlink" x="0px" y="0px"
	 width="500px" height="500px" viewBox="0 0 500 500" enable-background="new 0 0 500 500" xml:space="preserve">
<rect id="position" x="0.5" y="0.5" display="none" fill="none" stroke="#000000" width="499" height="499"/>
<g id="body">
	<g>
		<g>
			<rect x="199.411" y="175.31" fill="#34352F" width="97.845" height="70.414"/>
		</g>
		<g>
			<polygon fill="#564E49" points="249.557,238.621 308.832,175.31 382.5,175.31 382.5,480.5 116.648,480.5 116.648,175.31 
				186.167,175.31 			"/>
		</g>
		<g>
			<g>
				<path fill="#564E49" d="M203.952,242.392c-0.829,0-1.5-0.671-1.5-1.5V203.38c0-0.827,0.671-1.5,1.5-1.5
					c0.827,0,1.5,0.673,1.5,1.5v37.514C205.452,241.72,204.781,242.392,203.952,242.392L203.952,242.392z"/>
			</g>
			<g>
				<path fill="#A59C98" d="M203.952,242.392c-0.829,0-1.5-0.671-1.5-1.5V203.38c0-0.827,0.671-1.5,1.5-1.5
					c0.827,0,1.5,0.673,1.5,1.5v37.514C205.452,241.72,204.781,242.392,203.952,242.392L203.952,242.392z"/>
			</g>
		</g>
		<g>
			<g>
				<g>
					<path fill="#564E49" d="M295.161,242.392c-0.828,0-1.5-0.671-1.5-1.5V203.38c0-0.827,0.672-1.5,1.5-1.5
						c0.826,0,1.5,0.673,1.5,1.5v37.514C296.661,241.72,295.99,242.392,295.161,242.392L295.161,242.392z"/>
				</g>
			</g>
			<g>
				<g>
					<path fill="#A59C98" d="M295.161,242.392c-0.828,0-1.5-0.671-1.5-1.5V203.38c0-0.827,0.672-1.5,1.5-1.5
						c0.826,0,1.5,0.673,1.5,1.5v37.514C296.661,241.72,295.99,242.392,295.161,242.392L295.161,242.392z"/>
				</g>
			</g>
		</g>
		<g>
			<path fill="#FFFFFF" d="M295.161,247.157c-0.276,0-0.5-0.224-0.5-0.5v-4.674c0-0.276,0.224-0.5,0.5-0.5
				c0.274,0,0.5,0.224,0.5,0.5v4.674C295.661,246.934,295.438,247.157,295.161,247.157L295.161,247.157z"/>
		</g>
		<g>
			<path fill="#FFFFFF" d="M203.952,247.157c-0.276,0-0.5-0.224-0.5-0.5v-4.674c0-0.276,0.224-0.5,0.5-0.5
				c0.274,0,0.5,0.224,0.5,0.5v4.674C204.452,246.934,204.228,247.157,203.952,247.157L203.952,247.157z"/>
		</g>
		<polygon opacity="0.8" fill="#3D3836" enable-background="new    " points="155.882,175.31 247.834,240.892 171.12,175.31 		"/>
		<polygon opacity="0.8" fill="#3D3836" enable-background="new    " points="343.232,175.31 251.28,240.892 327.992,175.31 		"/>
		<g>
			<polygon fill="#C4BFBC" points="291.93,175.31 249.557,235.308 207.184,175.31 164.723,175.31 249.557,242.245 334.391,175.31 
							"/>
		</g>
		<polygon fill="#BCB5B3" points="248.334,237.763 179.01,175.31 193.899,175.31 		"/>
		<polygon fill="#BCB5B3" points="249.557,238.067 318.88,175.31 303.99,175.31 		"/>
		<g>
			<g>
				<polygon fill="#635C57" points="185.159,282.699 185.159,343.205 249.573,343.205 249.573,282.699 				"/>
			</g>
			<g>
				<polygon fill="#A59C98" points="197.086,282.699 197.086,343.205 185.159,343.205 185.159,282.699 				"/>
			</g>
		</g>
		<g>
			<g>
				<polygon fill="#635C57" points="249.573,282.699 249.573,343.205 313.99,343.205 313.99,282.699 				"/>
			</g>
			<g>
				<polygon fill="#A59C98" points="313.99,282.699 313.99,343.205 302.063,343.205 302.063,282.699 				"/>
			</g>
		</g>
		<g>
			<rect x="247.834" y="240.892" fill="#898785" width="3.514" height="239.607"/>
		</g>
		<g>
			<circle fill="#D3D3D3" cx="249.557" cy="238.344" r="3.829"/>
		</g>
		<g>
			<polygon fill="#D3D3D3" points="249.557,238.347 249.557,238.344 249.556,238.345 249.556,238.344 249.556,238.347 
				244.107,255.224 249.556,255.224 255.006,255.224 			"/>
		</g>
		<g>
			<g>
				<path fill="none" d="M203.952,203.38"/>
			</g>
		</g>
	</g>
	<g>
		<rect x="185.159" y="336.455" fill="#B2AAA8" width="11.927" height="6.75"/>
		<rect x="185.159" y="323.015" fill="#B2AAA8" width="11.927" height="6.75"/>
		<rect x="185.159" y="309.577" fill="#B2AAA8" width="11.927" height="6.75"/>
		<rect x="185.159" y="296.138" fill="#B2AAA8" width="11.927" height="6.75"/>
		<rect x="185.159" y="282.699" fill="#B2AAA8" width="11.927" height="6.75"/>
	</g>
	<g>
		<rect x="302.02" y="336.56" fill="#B2AAA8" width="11.927" height="6.75"/>
		<rect x="302.02" y="323.121" fill="#B2AAA8" width="11.927" height="6.75"/>
		<rect x="302.02" y="309.682" fill="#B2AAA8" width="11.927" height="6.75"/>
		<rect x="302.02" y="296.244" fill="#B2AAA8" width="11.927" height="6.75"/>
		<rect x="302.02" y="282.804" fill="#B2AAA8" width="11.927" height="6.75"/>
	</g>
</g>
</svg>
