<?xml version="1.0" encoding="utf-8"?>
<!-- Generator: Adobe Illustrator 14.0.0, SVG Export Plug-In . SVG Version: 6.00 Build 43363)  -->
<!DOCTYPE svg PUBLIC "-//W3C//DTD SVG 1.1//EN" "http://www.w3.org/Graphics/SVG/1.1/DTD/svg11.dtd">
<svg version="1.1" id="content" xmlns="http://www.w3.org/2000/svg" xmlns:xlink="http://www.w3.org/1999/xlink" x="0px" y="0px"
	 width="500px" height="500px" viewBox="0 0 500 500" enable-background="new 0 0 500 500" xml:space="preserve">
<g id="bounds">
	<rect x="0.162" y="80.681" fill="none" stroke="#EAEAEA" stroke-miterlimit="10" width="499.5" height="499.5"/>
</g>
<g id="chooser">
	<rect x="222.838" y="188.486" fill="#787878" width="52.667" height="52.333"/>
	<polygon fill="#898989" points="374.355,190.895 355.683,176.528 280.268,176.528 249.71,207.11 249.629,207.11 219.071,176.528 
		144.143,176.528 125.471,190.895 69.783,261.895 69.783,442.873 131.04,442.873 131.04,279.993 147.222,274.595 147.222,484.334 
		147.222,484.335 352.603,484.335 352.603,484.334 352.603,274.595 368.784,279.993 368.784,442.873 430.04,442.873 430.04,261.895 
			"/>
	<rect x="119.312" y="422.687" fill="#7F7F7F" width="3.658" height="20.186"/>
	<rect x="69.876" y="420.232" fill="#7F7F7F" width="61.141" height="3.479"/>
	<rect x="76.546" y="422.687" fill="#7F7F7F" width="3.657" height="20.186"/>
	<rect x="90.8" y="422.687" fill="#7F7F7F" width="3.658" height="20.186"/>
	<rect x="105.056" y="422.687" fill="#7F7F7F" width="3.657" height="20.186"/>
	<rect x="368.901" y="420.232" fill="#7F7F7F" width="61.142" height="3.479"/>
	<rect x="375.569" y="422.687" fill="#7F7F7F" width="3.656" height="20.186"/>
	<rect x="389.823" y="422.687" fill="#7F7F7F" width="3.657" height="20.186"/>
	<rect x="404.079" y="422.687" fill="#7F7F7F" width="3.656" height="20.186"/>
	<rect x="418.334" y="422.687" fill="#7F7F7F" width="3.657" height="20.186"/>
	<path fill="#A1A1A1" d="M249.669,225.681c-27.527,0-50.519-21.717-52.343-49.154h5.986c1.616,24.296,21.979,43.155,46.356,43.155
		s44.738-18.858,46.354-43.155h5.985C300.187,203.965,277.195,225.681,249.669,225.681z"/>
	<path fill="#A1A1A1" d="M249.649,282.162h30.509c0,0,3.449-0.282,3.449,4.867c0,5.15-0.438,29.767,24.576,29.767
		c0,0,5.434-0.857,5.434,6.289c0,7.146,0,30.521,0,30.521s0.645,4.217-6.935,4.217s-56.964,0-56.964,0L249.649,282.162z"/>
	<path fill="#A1A1A1" d="M249.69,282.162h-30.508c0,0-3.451-0.282-3.451,4.867c0,5.15,0.439,29.767-24.577,29.767
		c0,0-5.432-0.857-5.432,6.289c0,7.146,0,30.521,0,30.521s-0.644,4.217,6.933,4.217s56.964,0,56.964,0L249.69,282.162z"/>
	<polygon fill="#7F7F7F" points="249.618,357.819 189.923,357.819 193.193,361.09 249.548,361.09 249.69,361.09 306.043,361.09 
		309.315,357.819 	"/>
	<rect x="246.629" y="207.11" fill="#CECECE" width="6" height="277.225"/>
	<circle fill="#CECECE" cx="249.629" cy="207.11" r="4.459"/>
	<path fill="#7A7A7A" d="M249.629,208.928c0,0,8.697,19.876,9.684,22.332c1.545,3.846-0.938,4.142-0.938,4.142h-17.49
		c0,0-2.483-0.296-0.938-4.142C240.931,228.805,249.629,208.928,249.629,208.928"/>
	<path fill="#CECECE" d="M249.629,207.11c0,0,8.697,19.876,9.684,22.332c1.545,3.847-0.938,4.143-0.938,4.143h-17.49
		c0,0-2.483-0.296-0.938-4.143C240.931,226.986,249.629,207.11,249.629,207.11"/>
	<path fill="#BABABA" d="M249.629,213.575c0,0,5.764,13.172,6.417,14.799c1.021,2.549-0.621,2.745-0.621,2.745h-11.59
		c0,0-1.646-0.196-0.622-2.745C243.865,226.747,249.629,213.575,249.629,213.575"/>
	<rect x="202.408" y="176.528" fill="#787878" width="4" height="71.958"/>
	<rect x="292.929" y="176.528" fill="#787878" width="4" height="71.958"/>
	<path fill="#6B6B6B" d="M205.429,257.861c0,0.554-0.448,1-1,1l0,0c-0.552,0-1-0.446-1-1v-6.968c0-0.552,0.448-1,1-1l0,0
		c0.552,0,1,0.448,1,1V257.861z"/>
	<circle fill="#787878" cx="204.408" cy="248.176" r="3.354"/>
	<path fill="#6B6B6B" d="M293.907,257.861c0,0.554,0.447,1,1,1l0,0c0.554,0,1-0.446,1-1v-6.968c0-0.552-0.446-1-1-1l0,0
		c-0.553,0-1,0.448-1,1V257.861z"/>
	<circle fill="#787878" cx="294.929" cy="248.176" r="3.354"/>
</g>
<rect id="position" x="0.5" y="0.5" display="none" fill="none" stroke="#000000" width="499" height="499"/>
</svg>
