<?xml version="1.0" encoding="utf-8"?>
<!-- Generator: Adobe Illustrator 18.0.0, SVG Export Plug-In . SVG Version: 6.00 Build 0)  -->
<!DOCTYPE svg PUBLIC "-//W3C//DTD SVG 1.1//EN" "http://www.w3.org/Graphics/SVG/1.1/DTD/svg11.dtd">
<svg version="1.1" id="content" xmlns="http://www.w3.org/2000/svg" xmlns:xlink="http://www.w3.org/1999/xlink" x="0px" y="0px"
	 width="500px" height="500px" viewBox="0 0 500 500" enable-background="new 0 0 500 500" xml:space="preserve">
<rect id="position" x="0.5" y="0.5" display="none" fill="none" stroke="#000000" width="499" height="499"/>
<g>
	<path fill="#19235E" d="M75.1,295.9v-98.8c0-14.2,12.1-25.7,27-25.7l0,0c14.9,0,27,11.5,27,25.7v98.8H75.1z"/>
	<g>
		<g>
			<rect x="75.1" y="287.4" fill="#283067" width="1.1" height="6.4"/>
		</g>
		<g>
			<path fill="#283067" d="M126,293.8h-2.1v-6.4h2.1V293.8z M121.8,293.8h-2.1v-6.4h2.1V293.8z M117.7,293.8h-2.1v-6.4h2.1V293.8z
				 M113.5,293.8h-2.1v-6.4h2.1V293.8z M109.4,293.8h-2.1v-6.4h2.1V293.8z M105.2,293.8h-2.1v-6.4h2.1V293.8z M101.1,293.8H99v-6.4
				h2.1V293.8z M96.9,293.8h-2.1v-6.4h2.1V293.8z M92.8,293.8h-2.1v-6.4h2.1V293.8z M88.6,293.8h-2.1v-6.4h2.1V293.8z M84.5,293.8
				h-2.1v-6.4h2.1V293.8z M80.3,293.8h-2.1v-6.4h2.1V293.8z"/>
		</g>
		<g>
			<rect x="128" y="287.4" fill="#283067" width="1.1" height="6.4"/>
		</g>
	</g>
</g>
</svg>
