<?xml version="1.0" encoding="utf-8"?>
<!-- Generator: Adobe Illustrator 18.0.0, SVG Export Plug-In . SVG Version: 6.00 Build 0)  -->
<!DOCTYPE svg PUBLIC "-//W3C//DTD SVG 1.1//EN" "http://www.w3.org/Graphics/SVG/1.1/DTD/svg11.dtd">
<svg version="1.1" id="content" xmlns="http://www.w3.org/2000/svg" xmlns:xlink="http://www.w3.org/1999/xlink" x="0px" y="0px"
	 width="500px" height="500px" viewBox="0 0 500 500" enable-background="new 0 0 500 500" xml:space="preserve">
<rect id="position" x="0.5" y="0.5" display="none" fill="none" stroke="#000000" width="499" height="499"/>
<g>
	<g>
		<g>
			<rect x="157.9" y="372.5" fill="#0D1E81" width="184.3" height="7.8"/>
		</g>
	</g>
	<g>
		<g>
			<g>
				<rect x="157.9" y="373.5" fill="#283067" width="1" height="5.8"/>
			</g>
		</g>
		<g>
			<g>
				<path fill="#283067" d="M339.3,379.3h-1.9v-5.8h1.9V379.3z M335.4,379.3h-1.9v-5.8h1.9V379.3z M331.6,379.3h-1.9v-5.8h1.9V379.3
					z M327.7,379.3h-1.9v-5.8h1.9V379.3z M323.9,379.3H322v-5.8h1.9V379.3z M320.1,379.3h-1.9v-5.8h1.9V379.3z M316.2,379.3h-1.9
					v-5.8h1.9V379.3z M312.4,379.3h-1.9v-5.8h1.9V379.3z M308.5,379.3h-1.9v-5.8h1.9V379.3z M304.7,379.3h-1.9v-5.8h1.9V379.3z
					 M300.9,379.3h-1.9v-5.8h1.9V379.3z M297,379.3h-1.9v-5.8h1.9V379.3z M293.2,379.3h-1.9v-5.8h1.9V379.3z M289.4,379.3h-1.9v-5.8
					h1.9V379.3z M285.5,379.3h-1.9v-5.8h1.9V379.3z M281.7,379.3h-1.9v-5.8h1.9V379.3z M277.8,379.3h-1.9v-5.8h1.9V379.3z
					 M274,379.3h-1.9v-5.8h1.9V379.3z M270.2,379.3h-1.9v-5.8h1.9V379.3z M266.3,379.3h-1.9v-5.8h1.9V379.3z M262.5,379.3h-1.9v-5.8
					h1.9V379.3z M258.6,379.3h-1.9v-5.8h1.9V379.3z M254.8,379.3h-1.9v-5.8h1.9V379.3z M251,379.3H249v-5.8h1.9V379.3z M247.1,379.3
					h-1.9v-5.8h1.9V379.3z M243.3,379.3h-1.9v-5.8h1.9V379.3z M239.4,379.3h-1.9v-5.8h1.9V379.3z M235.6,379.3h-1.9v-5.8h1.9V379.3z
					 M231.8,379.3h-1.9v-5.8h1.9V379.3z M227.9,379.3H226v-5.8h1.9V379.3z M224.1,379.3h-1.9v-5.8h1.9V379.3z M220.2,379.3h-1.9
					v-5.8h1.9V379.3z M216.4,379.3h-1.9v-5.8h1.9V379.3z M212.6,379.3h-1.9v-5.8h1.9V379.3z M208.7,379.3h-1.9v-5.8h1.9V379.3z
					 M204.9,379.3H203v-5.8h1.9V379.3z M201.1,379.3h-1.9v-5.8h1.9V379.3z M197.2,379.3h-1.9v-5.8h1.9V379.3z M193.4,379.3h-1.9
					v-5.8h1.9V379.3z M189.5,379.3h-1.9v-5.8h1.9V379.3z M185.7,379.3h-1.9v-5.8h1.9V379.3z M181.9,379.3h-1.9v-5.8h1.9V379.3z
					 M178,379.3h-1.9v-5.8h1.9V379.3z M174.2,379.3h-1.9v-5.8h1.9V379.3z M170.3,379.3h-1.9v-5.8h1.9V379.3z M166.5,379.3h-1.9v-5.8
					h1.9V379.3z M162.7,379.3h-1.9v-5.8h1.9V379.3z"/>
			</g>
		</g>
		<g>
			<g>
				<rect x="341.2" y="373.5" fill="#283067" width="1" height="5.8"/>
			</g>
		</g>
	</g>
</g>
</svg>
