<?xml version="1.0" encoding="utf-8"?>
<!-- Generator: Adobe Illustrator 14.0.0, SVG Export Plug-In . SVG Version: 6.00 Build 43363)  -->
<!DOCTYPE svg PUBLIC "-//W3C//DTD SVG 1.1//EN" "http://www.w3.org/Graphics/SVG/1.1/DTD/svg11.dtd">
<svg version="1.1" id="content" xmlns="http://www.w3.org/2000/svg" xmlns:xlink="http://www.w3.org/1999/xlink" x="0px" y="0px"
	 width="500px" height="500px" viewBox="0 0 500 500" enable-background="new 0 0 500 500" xml:space="preserve">
<g id="bounds" display="none">
	<rect x="0.054" y="79.25" fill="none" stroke="#EAEAEA" stroke-miterlimit="10" width="499.5" height="499.5"/>
</g>
<g id="chooser">
	<rect x="233.853" y="192.963" fill="#890909" width="32.499" height="36.18"/>
	<polygon fill="#C10606" points="237.828,176.495 250.102,193.157 235.038,205.71 217.605,176.495 	"/>
	<polygon fill="#C10606" points="262.376,176.495 250.102,193.157 265.165,205.71 282.598,176.495 	"/>
	<polygon fill="#332D27" points="374.463,190.837 355.791,176.495 352.711,176.495 277.594,176.495 250.034,226.934 
		222.473,176.495 146.281,176.495 143.201,176.495 124.53,190.837 68.842,261.838 68.842,442.814 130.098,442.814 130.098,279.936 
		146.281,274.539 146.281,481.505 352.711,481.505 352.711,274.539 368.893,279.936 368.893,442.814 430.149,442.814 
		430.149,261.838 	"/>
	<polygon fill="#45403A" points="71.406,258.57 427.587,258.57 400.009,223.41 251.96,223.41 250.034,226.934 248.109,223.41 
		98.983,223.41 	"/>
	<rect x="146.281" y="291.969" fill="#45403A" width="206.431" height="35.159"/>
	<rect x="146.281" y="360.527" fill="#45403A" width="206.431" height="35.16"/>
	<rect x="146.281" y="429.089" fill="#45403A" width="206.431" height="35.159"/>
	<polygon fill="#544F49" points="250.034,226.934 226.697,176.495 194.909,176.495 	"/>
	<polygon fill="#544F49" points="250.034,226.934 273.372,176.495 305.159,176.495 	"/>
	<line fill="none" stroke="#5D5D5D" stroke-width="2.2316" x1="250.505" y1="223.41" x2="250.505" y2="481.505"/>
	<path fill="#898989" d="M253.397,234.677c-0.487-1.125-0.119-2.692,0.818-3.482c0,0,2.029-1.708,2.029-4.26
		c0-3.434-2.779-6.215-6.213-6.215c-3.433,0-6.213,2.781-6.213,6.215c0,2.552,2.031,4.259,2.031,4.259
		c0.939,0.791,1.309,2.357,0.819,3.482l-7.083,16.309c-0.491,1.125,0.113,2.046,1.343,2.046h6.871c1.228,0,3.236,0,4.463,0h6.869
		c1.229,0,1.832-0.922,1.345-2.046L253.397,234.677z"/>
	<rect x="68.842" y="291.969" fill="#45403A" width="61.255" height="35.159"/>
	<rect x="68.842" y="360.527" fill="#45403A" width="61.255" height="35.16"/>
	<rect x="368.893" y="291.969" fill="#45403A" width="61.256" height="35.159"/>
	<rect x="368.893" y="360.527" fill="#45403A" width="61.256" height="35.16"/>
	<rect x="68.842" y="429.089" fill="#C10606" width="61.255" height="13.728"/>
	<rect x="369.509" y="429.089" fill="#C10606" width="61.257" height="13.728"/>
</g>
<rect id="position" x="0.5" y="0.5" display="none" fill="none" stroke="#000000" width="499" height="499"/>
</svg>
