<?xml version="1.0" encoding="utf-8"?>
<!-- Generator: Adobe Illustrator 14.0.0, SVG Export Plug-In . SVG Version: 6.00 Build 43363)  -->
<!DOCTYPE svg PUBLIC "-//W3C//DTD SVG 1.1//EN" "http://www.w3.org/Graphics/SVG/1.1/DTD/svg11.dtd">
<svg version="1.1" id="content" xmlns="http://www.w3.org/2000/svg" xmlns:xlink="http://www.w3.org/1999/xlink" x="0px" y="0px"
	 width="500px" height="500px" viewBox="0 0 500 500" enable-background="new 0 0 500 500" xml:space="preserve">
<rect id="position" x="0.5" y="0.5" display="none" fill="none" stroke="#000000" width="499" height="499"/>
<g id="body">
	<rect x="233.406" y="191.974" fill="#890909" width="32.499" height="36.179"/>
	<polygon fill="#C10606" points="237.382,175.506 249.656,192.168 234.592,204.721 217.158,175.506 	"/>
	<polygon fill="#C10606" points="261.93,175.506 249.656,192.168 264.719,204.721 282.153,175.506 	"/>
	<polygon fill="#332D27" points="277.149,175.506 249.588,225.945 222.027,175.506 116.633,175.506 116.633,480.515 
		382.508,480.515 382.508,175.506 	"/>
	<rect x="116.633" y="222.421" fill="#45403A" width="265.875" height="35.161"/>
	<rect x="116.633" y="290.981" fill="#45403A" width="265.875" height="35.16"/>
	<rect x="116.633" y="359.538" fill="#45403A" width="265.875" height="35.161"/>
	<rect x="116.633" y="428.099" fill="#45403A" width="265.875" height="35.16"/>
	<polygon fill="#544F49" points="249.588,225.945 226.25,175.506 194.463,175.506 	"/>
	<polygon fill="#544F49" points="249.588,225.945 272.926,175.506 304.713,175.506 	"/>
	<line fill="none" stroke="#5D5D5D" stroke-width="2.2316" x1="250.059" y1="222.421" x2="250.059" y2="480.515"/>
	<path fill="#898989" d="M252.95,233.688c-0.487-1.125-0.119-2.692,0.819-3.482c0,0,2.03-1.708,2.03-4.26
		c0-3.433-2.78-6.215-6.213-6.215s-6.213,2.782-6.213,6.215c0,2.552,2.031,4.259,2.031,4.259c0.939,0.791,1.309,2.357,0.819,3.482
		l-7.083,16.309c-0.491,1.125,0.113,2.046,1.343,2.046h6.871c1.228,0,3.236,0,4.464,0h6.87c1.229,0,1.831-0.922,1.343-2.046
		L252.95,233.688z"/>
</g>
</svg>
