<?xml version="1.0" encoding="utf-8"?>
<!-- Generator: Adobe Illustrator 14.0.0, SVG Export Plug-In . SVG Version: 6.00 Build 43363)  -->
<!DOCTYPE svg PUBLIC "-//W3C//DTD SVG 1.1//EN" "http://www.w3.org/Graphics/SVG/1.1/DTD/svg11.dtd">
<svg version="1.1" id="content" xmlns="http://www.w3.org/2000/svg" xmlns:xlink="http://www.w3.org/1999/xlink" x="0px" y="0px"
	 width="500px" height="500px" viewBox="0 0 500 500" enable-background="new 0 0 500 500" xml:space="preserve">
<g id="bounds" display="none">
	<rect x="0.174" y="80.805" fill="none" stroke="#EAEAEA" stroke-miterlimit="10" width="499.5" height="499.5"/>
</g>
<g id="chooser">
	<g>
		<polygon fill="#DDDDDD" points="221.698,187.532 271.569,187.532 268.471,220.914 231.991,220.914 		"/>
		<path fill="#6B1E1E" d="M374.343,190.771l-18.672-14.278h-3.08l0,0h-48.248c-42.051,0-54.686,37.916-54.686,37.916
			s-12.636-37.916-54.687-37.916h-47.716l0,0h-3.079l-18.672,14.278l-55.687,71v180.978h61.256v-162.88l16.146-5.386v210.134
			h205.371V274.471l16.184,5.396v162.88h61.256V261.771L374.343,190.771z"/>
		<rect x="69.955" y="432.08" fill="#4C1818" width="61.073" height="10.731"/>
		<rect x="92.368" y="283.827" fill="#993131" width="16.255" height="148.253"/>
		<rect x="88.907" y="283.827" fill="#C14949" width="3.461" height="148.253"/>
		<rect x="108.622" y="283.827" fill="#C14949" width="3.46" height="148.253"/>
		<polygon fill="#993131" points="92.368,283.827 92.368,261.405 147.2,176.493 147.2,194.871 108.623,261.784 108.623,283.827 		
			"/>
		<polygon fill="#C14949" points="108.623,283.827 108.623,261.784 147.2,194.871 147.2,198.184 112.082,262.427 112.082,285.057 		
			"/>
		<polygon fill="#C14949" points="92.368,283.827 92.368,261.405 147.2,176.493 144.131,176.493 88.907,260.438 88.907,283.827 		
			"/>
		<rect x="368.773" y="432.08" fill="#4C1818" width="61.07" height="10.731"/>
		<rect x="391.179" y="283.827" fill="#993131" width="16.257" height="148.253"/>
		<rect x="407.433" y="283.827" fill="#C14949" width="3.461" height="148.253"/>
		<rect x="387.719" y="283.827" fill="#C14949" width="3.461" height="148.253"/>
		<polygon fill="#993131" points="407.433,283.827 407.433,261.405 352.601,176.493 352.601,194.871 391.179,261.784 
			391.179,283.827 		"/>
		<polygon fill="#C14949" points="391.179,283.827 391.179,261.784 352.601,194.871 352.601,198.184 387.719,262.427 
			387.719,285.057 		"/>
		<polygon fill="#C14949" points="407.433,283.827 407.433,261.405 352.601,176.493 355.67,176.493 410.894,260.438 
			410.894,283.827 		"/>
		<path fill="#FF8080" d="M318.505,232.637l3.382-4.792c0.2-0.284,0.148-0.658-0.109-0.835c-0.266-0.177-0.642-0.089-0.838,0.196
			l-3.517,4.979c-2.313-0.891-4.888-1.387-7.599-1.387c-2.71,0-5.282,0.496-7.599,1.387l-3.517-4.979
			c-0.201-0.285-0.577-0.373-0.839-0.196c-0.264,0.176-0.313,0.55-0.107,0.835l3.382,4.792c-5.378,2.441-9.147,7.082-9.63,12.497
			h36.613C327.653,239.719,323.883,235.08,318.505,232.637z M302.176,240.366c-1.115,0-2.021-0.854-2.021-1.908
			s0.905-1.907,2.021-1.907c1.119,0,2.023,0.854,2.023,1.907C304.201,239.511,303.295,240.366,302.176,240.366z M317.474,240.366
			c-1.119,0-2.024-0.854-2.024-1.907c0-1.055,0.905-1.907,2.024-1.907c1.115,0,2.021,0.854,2.021,1.907
			C319.498,239.511,318.592,240.366,317.474,240.366z"/>
		<polygon fill="#E55151" points="250.657,484.617 248.657,484.617 248.657,214.409 250.657,214.409 		"/>
		<polygon fill="#993131" points="239.159,198.184 147.2,198.184 147.2,176.493 188.804,176.493 		"/>
		<rect x="147.2" y="194.871" fill="#C14949" width="91.053" height="3.313"/>
		<polygon fill="#993131" points="262.155,198.184 352.592,198.184 352.592,176.493 302.51,176.493 		"/>
		<rect x="263.06" y="194.871" fill="#C14949" width="89.528" height="3.313"/>
		<path fill="#4C1818" d="M249.657,214.409c0,0-34.427-29.909-75.913-37.916c36.521,0,43.568,0,43.568,0
			S245.801,190.838,249.657,214.409z"/>
		<path fill="#4C1818" d="M249.657,214.409c0,0,34.426-29.909,75.911-37.916c-36.521,0-43.567,0-43.567,0
			S253.514,190.838,249.657,214.409z"/>
		<circle fill="#FF5555" cx="249.658" cy="214.409" r="3.536"/>
		<polygon fill="#FF5555" points="249.657,215.076 244.383,233.177 249.657,233.177 254.931,233.177 		"/>
	</g>
</g>
<rect id="position" x="0.5" y="0.5" display="none" fill="none" stroke="#000000" width="499" height="499"/>
</svg>
