<?xml version="1.0" encoding="utf-8"?>
<!-- Generator: Adobe Illustrator 14.0.0, SVG Export Plug-In . SVG Version: 6.00 Build 43363)  -->
<!DOCTYPE svg PUBLIC "-//W3C//DTD SVG 1.1//EN" "http://www.w3.org/Graphics/SVG/1.1/DTD/svg11.dtd">
<svg version="1.1" id="content" xmlns="http://www.w3.org/2000/svg" xmlns:xlink="http://www.w3.org/1999/xlink" x="0px" y="0px"
	 width="500px" height="500px" viewBox="0 0 500 500" enable-background="new 0 0 500 500" xml:space="preserve">
<g id="bounds" display="none">
	<rect x="0.04" y="80.503" fill="none" stroke="#EAEAEA" stroke-miterlimit="10" width="499.5" height="499.5"/>
</g>
<g id="chooser">
	<g>
		<polygon fill="#6CA2B8" points="116.864,268.254 64.689,276.634 38.794,200.082 116.864,177.199 		"/>
		<polygon fill="#6CA2B8" points="382.718,268.253 434.893,276.633 460.786,200.082 382.718,177.199 		"/>
		<polygon fill="#6CA2B8" points="274.398,177.199 254.788,201.33 249.791,209.403 244.793,201.33 225.184,177.199 116.864,177.199 
			116.864,483.307 382.718,483.307 382.718,177.199 		"/>
		<rect x="116.864" y="177.199" fill="#76B3C1" width="40.764" height="306.108"/>
		<rect x="341.954" y="177.199" fill="#76B3C1" width="40.764" height="306.108"/>
		<polygon fill="#76B3C1" points="232.656,483.307 191.895,483.307 191.895,177.199 221.289,177.199 232.656,190.138 		"/>
		<polygon fill="#76B3C1" points="307.688,483.307 266.925,483.307 266.925,190.138 279.919,177.199 307.688,177.199 		"/>
		<polygon fill="#6292A5" points="258.788,205.164 249.791,206.83 240.793,205.164 214.869,177.199 249.791,228.052 
			284.713,177.199 		"/>
		<polygon fill="#F1F1F1" points="274.28,177.199 250.251,206.83 225.643,177.199 214.752,177.199 249.674,218.907 284.596,177.199 
					"/>
		<path fill="#F1F1F1" d="M188.83,224.562l3.074-4.464c0.184-0.266,0.138-0.613-0.102-0.778c-0.239-0.164-0.581-0.083-0.762,0.183
			l-3.195,4.639c-2.106-0.83-4.444-1.292-6.909-1.292s-4.804,0.462-6.909,1.292l-3.194-4.639c-0.184-0.265-0.524-0.346-0.764-0.183
			c-0.237,0.165-0.283,0.513-0.102,0.779l3.076,4.464c-4.891,2.275-8.32,6.598-8.757,11.644h33.297
			C197.149,231.16,193.72,226.839,188.83,224.562z M173.981,231.6c-1.017,0-1.842-0.825-1.842-1.842
			c0-1.019,0.824-1.844,1.842-1.844c1.019,0,1.842,0.825,1.842,1.844C175.823,230.775,174.999,231.6,173.981,231.6z M187.892,231.6
			c-1.017,0-1.841-0.825-1.841-1.842c0-1.02,0.824-1.844,1.841-1.844c1.019,0,1.842,0.825,1.842,1.844
			C189.734,230.775,188.91,231.6,187.892,231.6z"/>
		<path fill="#6292A5" d="M298.865,213.551c-2.311,0-4.2,1.891-4.2,4.201v13.961c0,2.312,1.336,5.539,2.971,7.174l15.854,15.854
			c1.635,1.633,4.309,1.633,5.939,0l15.854-15.854c1.635-1.635,2.972-4.862,2.972-7.174v-13.961c0-2.311-1.892-4.201-4.201-4.201
			H298.865z"/>
		<path fill="#D5DDBA" d="M299.71,211.872c-2.2,0-4,1.801-4,4v13.292c0,2.2,1.271,5.273,2.828,6.829l15.094,15.093
			c1.556,1.557,4.103,1.557,5.655,0l15.095-15.093c1.556-1.556,2.828-4.628,2.828-6.829v-13.292c0-2.199-1.801-4-4-4H299.71z"/>
		<path fill="#A0BF3C" d="M316.46,248.527c-1.176,0-2.276-0.44-3.102-1.238l-12.646-12.241c-1.492-1.445-2.66-4.178-2.66-6.22
			v-10.782c0-2.323,1.963-4.215,4.374-4.215h28.063c2.411,0,4.374,1.892,4.374,4.215v10.782c0,2.042-1.168,4.773-2.66,6.218
			l-12.644,12.243C318.736,248.087,317.636,248.527,316.46,248.527z M302.429,215.772c-1.282,0-2.325,1.02-2.325,2.273v10.782
			c0,1.519,0.972,3.79,2.076,4.861l12.646,12.242c0.873,0.846,2.399,0.845,3.271,0l12.646-12.243
			c1.104-1.071,2.076-3.342,2.076-4.86v-10.782c0-1.254-1.044-2.273-2.325-2.273H302.429z"/>
		<path fill="#A0BF3C" d="M316.221,218.907c-5.136,0-9.298,4.094-9.298,9.146c0,5.05,4.162,9.145,9.298,9.145
			s9.298-4.095,9.298-9.145C325.519,223.001,321.356,218.907,316.221,218.907z M313.424,226.944c-1.546,0-2.796-1.252-2.796-2.796
			s1.251-2.796,2.796-2.796c1.546,0,2.797,1.252,2.797,2.796S314.97,226.944,313.424,226.944z M321.133,230.529
			c-1.545,0-2.796-1.252-2.796-2.796s1.251-2.796,2.796-2.796s2.797,1.252,2.797,2.796S322.678,230.529,321.133,230.529z
			 M314.321,234.914c-1.545,0-2.797-1.252-2.797-2.796s1.252-2.797,2.797-2.797s2.796,1.252,2.796,2.797
			S315.865,234.914,314.321,234.914z"/>
		<polygon fill="#232526" points="228.78,262.308 228.78,266.817 234.949,266.817 234.949,308.659 241.433,308.659 241.433,266.817 
			241.433,266.706 241.433,262.308 		"/>
		<path fill="#232526" d="M262.961,262.38c-3.957,0-4.899,0-4.899,0s-0.94,0-4.897,0c-5.466,0-6.03,4.354-6.03,4.354
			s0,30.195,0,35.979c0,5.779,6.877,6.054,6.877,6.054h4.054h4.051c0,0,6.88-0.271,6.88-6.054c0-5.781,0-35.979,0-35.979
			S268.426,262.38,262.961,262.38z M262.112,303.864h-4.052h-4.052v-36.656h4.052h4.053L262.112,303.864L262.112,303.864z"/>
	</g>
</g>
<rect id="position" x="0" y="0" display="none" fill="none" stroke="#000000" width="500" height="500"/>
</svg>
