<?xml version="1.0" encoding="utf-8"?>
<!-- Generator: Adobe Illustrator 14.0.0, SVG Export Plug-In . SVG Version: 6.00 Build 43363)  -->
<!DOCTYPE svg PUBLIC "-//W3C//DTD SVG 1.1//EN" "http://www.w3.org/Graphics/SVG/1.1/DTD/svg11.dtd">
<svg version="1.1" id="content" xmlns="http://www.w3.org/2000/svg" xmlns:xlink="http://www.w3.org/1999/xlink" x="0px" y="0px"
	 width="500px" height="500px" viewBox="0 0 500 500" enable-background="new 0 0 500 500" xml:space="preserve">
<g id="bounds" display="none">
	<g id="bounds_1_" display="inline">
		<g id="bounds_2_">
			<rect x="-0.208" y="80.122" fill="none" stroke="#EAEAEA" stroke-miterlimit="10" width="499.499" height="499.5"/>
		</g>
	</g>
</g>
<rect id="position" x="0.5" y="0.5" display="none" fill="none" stroke="#000000" width="499" height="499"/>
<g id="chooser">
	<path fill="#074E9D" d="M293.559,177.657c-11.037,8.271-26.479,13.379-43.593,13.379c-17.115,0-32.557-5.106-43.594-13.379h-59.538
		v305.717h206V177.657H293.559z"/>
	<path fill="#074E9D" d="M352.834,177.657h-59.273c-11.037,8.271-26.479,13.379-43.595,13.379c-17.115,0-32.558-5.106-43.594-13.379
		h-59.538v305.714h206V177.657z"/>
	<path fill="#074E9D" d="M293.56,177.657c-11.037,8.271-26.479,13.379-43.594,13.379c-17.117,0-32.56-5.106-43.594-13.379h-59.538
		v305.714h206V177.657H293.56z"/>
	<circle fill="#1369B7" cx="248.834" cy="200.764" r="4.764"/>
	<circle fill="#1369B7" cx="248.834" cy="288.776" r="4.764"/>
	<circle fill="#1369B7" cx="248.834" cy="342.332" r="4.764"/>
	<circle fill="#1369B7" cx="248.834" cy="395.887" r="4.764"/>
	<circle fill="#1369B7" cx="248.834" cy="449.443" r="4.764"/>
	<path fill="#808285" d="M306.978,243.828c-1.229-0.205-2.076-0.289-2.922-0.289c-0.926,0-1.779,0.104-2.896,0.267
		c0.166-0.963,1.045-2.615,1.761-3.957c1.186-2.229,2.123-3.99,1.889-5.563c-0.107-0.729-0.34-1.359-0.691-1.894
		c0.41-0.604,0.57-1.245,0.472-1.915c-0.236-1.609-2.269-3.948-5.326-3.949c-0.356,0-0.725,0.032-1.092,0.095
		c-6.381,1.124-17.738,8.596-20.233,15.865c-1.964,2.107-5.304,5.569-8.107,5.987c-0.22,0.033-0.43,0.05-0.627,0.05
		c-0.939,0-1.021-0.261-1.042-0.529c11.373-6.019,12.447-11.393,12.044-14.108c-0.365-2.461-2.303-3.932-5.177-3.932
		c-0.5,0-1.037,0.042-1.6,0.125c-6.715,0.952-13.34,7.603-14.756,14.69c-0.228,0.255-0.467,0.532-0.719,0.823
		c-1.027,1.183-3.08,3.548-4.301,4.035c0.146-1.017,1.072-2.878,3.001-5.115l0.045-0.049c1.183-1.313,2.653-2.949,2.255-5.608
		l-0.017-0.108l-0.027-0.104c-0.37-1.402-1.104-2.563-2.381-3.759l-0.02-0.019l-0.021-0.017c-0.496-0.444-1.149-0.669-1.94-0.669
		c-1.215,0-2.943,0.526-5.807,1.4c-0.191,0.061-0.388,0.119-0.588,0.182c-0.465-1.069-1.554-1.812-2.779-1.812
		c-0.152,0-0.307,0.011-0.457,0.034c-2.117,0.313-4.703,3.547-4.992,3.916c-0.711,0.907-1.687,2.351-2.25,4.033
		c-0.196-0.354-0.445-0.699-0.762-1.013c0.096-0.381,0.125-0.81,0.053-1.287c-0.306-2.042-2.108-3.362-4.592-3.362
		c-0.414,0-0.82,0.039-1.207,0.115c-3.961,0.791-8.205,3.237-11.084,6.393c-2.326,2.411-5.283,6.277-4.267,12.049
		c0.181,0.923,0.426,1.762,0.714,2.533l-15.504-6.159c-0.167-0.067-0.396-0.15-0.644-0.241c-0.256-0.091-0.717-0.256-1.014-0.405
		c0.045-0.062,0.115-0.146,0.227-0.256l18.639-13.042c1.779-0.053,3.491-0.977,4.959-2.68c1.527-1.771,3.133-4.99,2.909-6.482
		c-0.23-1.557-1.47-2.644-3.015-2.645c-0.166,0-0.334,0.015-0.502,0.038c-0.756,0.113-1.682,0.595-3.809,1.984l-0.201,0.132
		l-11.084,7.425c0.313-0.829,0.533-1.761,0.391-2.71c-0.26-1.765-1.807-3.225-2.729-4.098l-0.025-0.024l-0.025-0.021l-0.102-0.092
		c-0.834-0.734-1.699-1.496-3.192-1.496c-0.405,0-0.833,0.056-1.351,0.173c-5.781,1.175-11.27,3.966-15.127,6.161
		c-0.447-0.79-1.254-1.282-2.193-1.283l0,0c-0.133,0-0.271,0.01-0.418,0.032c-1.137,0.167-1.946,0.928-2.482,1.432l-0.188,0.176
		l-0.041,0.036l-0.037,0.038l-2.782,2.8c-0.229,0.235-0.429,0.432-0.607,0.611c-1.384,1.376-2.068,2.147-2.513,4.676
		c-0.396,2.072-0.833,4.861-0.633,6.204c0.281,1.897,1.738,3.177,3.623,3.177c0.219,0,0.443-0.018,0.67-0.052
		c1.525-0.225,2.896-1.178,3.896-1.875l1.394-0.963c5.834-4.035,9.153-6.33,14.487-8.807l-1.922,4.311l-5.132,3.714
		c-1.173,0.844-4.295,3.093-3.729,6.89c0.142,0.938,0.473,1.629,0.871,2.193l-6.162,10.967c-0.547,0.961-1.303,2.289-1.047,4.013
		c0.242,1.621,1.637,2.754,3.392,2.754c0.201,0,0.405-0.017,0.604-0.046c2.203-0.326,4.516-2.559,5.828-4.366
		c0.881-1.22,1.854-2.961,1.873-4.747l2.553-4.195l22.74,8.412c0.098,0.041,0.182,0.066,0.276,0.104
		c-12.414,3.382-24.646,6.766-25.569,7.021l-1.559,0.431l0.095,1.613l0.056,0.96l0.108,1.865l1.868,0.019
		c0.124,0.001,12.635,0.215,19.754,6.161c1.253,1.047,2.727,1.578,4.378,1.578c2.604,0,4.813-1.354,5.486-1.812
		c2.957-1.357,46.173-21.02,78.211-24.91c9.01-1.096,13.629-4.028,13.732-8.722C314.312,248.641,309.128,244.186,306.978,243.828z
		 M226.089,252.312c0.115,0.766,0.342,1.407,0.625,1.993c-0.627,0.684-1.158,1.063-1.91,1.178c-0.151,0.021-0.289,0.034-0.405,0.034
		c-0.05,0-0.091-0.002-0.124-0.005c-0.01-0.034-0.018-0.078-0.024-0.136c-0.168-1.13,0.373-3.007,1.182-4.096
		c0.178-0.231,0.377-0.465,0.595-0.698C225.989,251.164,226.003,251.745,226.089,252.312z M285.921,245.438
		c0.312-1.063,1.353-2.604,4.476-4.745C288.128,243.445,286.763,244.773,285.921,245.438z M224.117,264.69
		c-0.049-0.323-0.118-0.629-0.198-0.924c0.112,0.006,0.228,0.018,0.34,0.018c0.319,0,0.643-0.021,0.959-0.071
		c3.429-0.509,6.365-2.382,8.955-5.717c1.252-0.243,2.363-0.6,3.371-1.082l2.483-1.622c1.161-0.99,2.191-2.265,3.142-3.877
		c0.707-0.878,1.479-1.912,2.194-3.188c-0.813,1.906-1.313,3.998-0.979,6.244c0.472,3.165,3.029,5.552,5.949,5.552
		c0.279,0,0.564-0.021,0.848-0.063c2.74-0.41,6.094-3.813,8.523-6.74c1.498,2.977,4.098,4.769,7.186,4.769
		c0.412,0,0.836-0.032,1.259-0.095c4.571-0.684,8.646-4.251,11.36-7.289c1.67,2.095,4.047,3.7,5.838,3.7
		c0.158,0,0.316-0.013,0.468-0.033c1.41-0.211,3.086-1.542,6.405-5.087l0.219-0.232l0.083-0.09c0.007,0.288,0.028,0.557,0.065,0.806
		c0.396,2.646,2.221,4.354,4.646,4.354c0.265,0,0.535-0.021,0.81-0.063c2.696-0.4,4.352-1.689,5.704-3.072
		c0.912,0.123,2.533,1.366,2.597,2.187c0.02,0.244-0.814,1.052-3.67,1.496c-3.166,0.495-9.043,1.114-15.847,1.831
		c-14.034,1.479-33.255,3.505-44.081,6.077c-3.238,0.77-10.59,2.723-18.715,4.92C224.229,266.62,224.27,265.711,224.117,264.69z"/>
	<path fill="#FFFFFF" d="M193.779,258.161l24.319,8.996c0.621,0.257,2.353,0.933,3.035,0.829c1.192-0.179,1.133-2.146,1.006-3.001
		c-0.482-3.243-3.422-4.607-6.204-5.708l-15.644-6.216c-0.934-0.388-2.798-0.806-2.977-2c-0.146-0.967,0.282-1.613,0.995-2.304
		l19.33-13.526c4.031,0.503,6.597-6.104,6.486-6.843c-0.096-0.628-0.563-1.022-1.244-0.921c-0.625,0.094-2.637,1.438-3.219,1.815
		l-16.873,11.302l-0.132-0.097l2.274-4.645c0.44-0.938,1.126-2.203,0.972-3.229c-0.159-1.081-1.381-2.237-2.126-2.94
		c-1.07-0.941-1.413-1.301-2.879-0.967c-8.638,1.756-16.545,7.238-19.298,8.695l-0.129-0.096c2.432-2.811,2.279-2.669,2.211-3.121
		c-0.053-0.345-0.264-0.604-0.662-0.541c-0.626,0.092-1.176,0.696-1.637,1.113l-2.782,2.801c-1.666,1.703-2.161,1.893-2.568,4.223
		c-0.229,1.197-0.796,4.424-0.625,5.563c0.16,1.081,0.938,1.604,2.02,1.441c1.08-0.158,2.238-0.975,3.082-1.563
		c8.281-5.718,11.74-8.27,20.902-11.963l-4.229,9.475l-5.564,4.029c-1.63,1.173-3.265,2.696-2.925,4.975
		c0.153,1.023,0.639,1.534,1.324,2.245l-6.851,12.188c-0.508,0.892-0.965,1.717-0.813,2.738c0.128,0.855,0.981,1.135,1.725,1.023
		c2.274-0.339,6.424-4.914,5.959-7.639L193.779,258.161z"/>
	<path fill="#FFFFFF" d="M306.651,245.802c-2.359-0.396-3.215-0.313-5.604,0.042c-0.91,0.139-2.06-0.199-1.9-2.041
		c0.234-2.695,3.957-7.398,3.688-9.223c-0.188-1.251-0.85-1.789-1.997-2.086c0.485-0.246,1.879-1.037,1.774-1.721
		c-0.1-0.682-1.494-2.626-4.104-2.18c-5.738,1.011-16.901,8.363-18.801,14.927c-2.613,2.813-6.14,6.419-9.584,6.933
		c-1.82,0.273-3.811-0.184-3.963-2.373l-0.07-1.268c10.392-5.217,12.551-9.844,12.135-12.633c-0.338-2.277-2.682-2.393-4.504-2.121
		c-6.2,0.879-12.178,7.229-13.18,13.629c-1.709,1.842-4.546,5.651-6.871,6.001c-0.854,0.126-1.865-0.419-2.002-1.331
		c-0.34-2.275,2.033-5.479,3.473-7.149c1.148-1.275,2.103-2.292,1.837-4.056c-0.267-1.006-0.8-1.857-1.814-2.812
		c-0.67-0.6-3.697,0.55-8.938,2.088c0.152-0.544,0.246-1.083,0.16-1.651c-0.076-0.512-0.599-0.9-1.166-0.813
		c-1.367,0.201-6.563,5.165-5.951,9.265c0.18,1.193,0.589,1.6,1.802,1.535c-0.277,0.551-0.574,1.088-0.888,1.613
		c-1.368,1.535-2.629,3.456-4.938,3.387c0.751-2.383,1.593-4.543,1.22-7.045c-0.256-1.71-0.774-2.855-2.552-3.055
		c0.576-0.437,1.207-0.881,1.078-1.731c-0.229-1.536-2.19-1.827-3.436-1.582c-3.446,0.688-7.313,2.836-10.012,5.8
		c-2.824,2.922-4.504,6.08-3.754,10.332c1.002,5.146,4.172,7.696,7.131,7.254c3.588-0.533,6.103-2.77,8.129-5.575
		c2.311-0.345,4.037-1.054,5.479-2.223l0.003,0.009c0.01-0.011,0.018-0.02,0.022-0.031c1.115-0.907,2.065-2.094,2.961-3.64
		c1.035-1.277,2.002-2.626,2.793-4.404l5.724-2.189l0.133,0.097c-1.869,3.07-4.379,6.529-3.804,10.399
		c0.322,2.163,2.135,4.161,4.525,3.806c2.762-0.414,7.225-5.755,9.602-9.045c0.021,0.147,0.021,0.301,0.052,0.449
		c0.674,3.736,3.158,7.146,7.313,6.525c4.492-0.669,8.871-4.803,11.92-8.758c1.021,2.689,4.304,5.353,5.747,5.136
		c1.309-0.193,4.507-3.696,5.462-4.712l4.607-4.994l0.131,0.102c-0.51,1.646-1.426,4.865-1.154,6.687
		c0.247,1.649,1.306,2.891,3.183,2.609c2.129-0.317,3.42-1.278,4.793-2.729c2.27-2.16,11.579,5.557,0.438,7.291
		c-9.819,1.533-43.859,4.1-59.771,7.88c-8.979,2.133-50.599,13.65-50.599,13.65l0.058,0.96c0,0,13.242,0.134,21.016,6.626
		c3.275,2.739,7.58-0.438,7.58-0.438s45.242-21.06,78.973-25.156C320.946,257.552,309.013,246.194,306.651,245.802z
		 M272.619,235.599c0.384-0.173,0.718,0.126,0.776,0.522c0.2,0.957-2.628,5.396-7.382,7.85
		C266.992,239.987,269.886,236.762,272.619,235.599z M228.067,252.017c0.146,0.966,0.541,1.664,1.074,2.516
		c-1.131,1.394-2.163,2.648-4.043,2.929c-1.422,0.213-2.579-0.136-2.827-1.784c-0.263-1.769,0.487-4.149,1.555-5.586
		c1.46-1.903,3.934-3.671,5.696-5.097C229.767,245.073,227.628,249.059,228.067,252.017z M285.188,248.094
		c-0.829,0.298-1.209-0.692-1.31-0.97c-0.416-2.789,0.717-6.506,13.643-12.682l0.131,0.098
		C288.081,247.604,286.292,247.696,285.188,248.094z"/>
	<path fill="#1369B7" d="M220.032,185.294c-5.046-2.085-9.646-4.628-13.66-7.636h-57.538h-2h-3.079l-18.672,14.586l-55.688,71
		v35.029h61.256v-16.929l18.183-5.399v-51.589L220.032,185.294z"/>
	<path fill="#1369B7" d="M374.584,192.244l-18.673-14.586h-3.077h-2h-57.29c-4.014,3.008-8.613,5.551-13.66,7.636l70.95,39.058
		v51.593l18.182,5.399v16.929h61.255v-35.029L374.584,192.244z"/>
	<path fill="#C90E18" d="M183.138,177.657c6.438,6.307,14.098,11.551,22.57,15.702l14.323-8.064
		c-5.047-2.085-9.647-4.629-13.66-7.637H183.138L183.138,177.657z"/>
	<path fill="#C90E18" d="M316.778,177.657c-6.438,6.307-14.096,11.551-22.569,15.702l-14.322-8.064
		c5.047-2.085,9.646-4.629,13.66-7.637H316.778L316.778,177.657z"/>
	<rect x="69.396" y="289.924" fill="#C90E18" width="61.256" height="8.351"/>
	<rect x="369.016" y="289.924" fill="#C90E18" width="61.256" height="8.351"/>
</g>
</svg>
