<?xml version="1.0" encoding="utf-8"?>
<!-- Generator: Adobe Illustrator 14.0.0, SVG Export Plug-In . SVG Version: 6.00 Build 43363)  -->
<!DOCTYPE svg PUBLIC "-//W3C//DTD SVG 1.1//EN" "http://www.w3.org/Graphics/SVG/1.1/DTD/svg11.dtd">
<svg version="1.1" id="content" xmlns="http://www.w3.org/2000/svg" xmlns:xlink="http://www.w3.org/1999/xlink" x="0px" y="0px"
	 width="500px" height="500px" viewBox="0 0 500 500" enable-background="new 0 0 500 500" xml:space="preserve">
<rect id="position" x="0.5" y="0.5" display="none" fill="none" stroke="#000000" width="499" height="499"/>
<g id="body">
	<path fill="#074E9D" d="M294.281,174.616c-11.036,8.271-26.479,13.424-43.594,13.424c-17.117,0-32.559-5.15-43.594-13.424H116.63
		v305.759h265.853V174.616H294.281z"/>
	<circle fill="#1369B7" cx="249.556" cy="197.767" r="4.764"/>
	<circle fill="#1369B7" cx="249.556" cy="285.779" r="4.764"/>
	<circle fill="#1369B7" cx="249.556" cy="339.335" r="4.764"/>
	<circle fill="#1369B7" cx="249.556" cy="392.89" r="4.764"/>
	<circle fill="#1369B7" cx="249.556" cy="446.447" r="4.764"/>
	<path fill="#808285" d="M307.698,240.831c-1.229-0.205-2.075-0.289-2.922-0.289c-0.926,0-1.778,0.104-2.895,0.267
		c0.166-0.963,1.045-2.615,1.76-3.957c1.186-2.229,2.123-3.99,1.889-5.563c-0.106-0.729-0.34-1.359-0.69-1.894
		c0.41-0.604,0.569-1.245,0.471-1.915c-0.236-1.609-2.268-3.948-5.326-3.949c-0.356,0-0.725,0.032-1.092,0.095
		c-6.381,1.124-17.738,8.596-20.232,15.865c-1.965,2.107-5.305,5.569-8.108,5.987c-0.219,0.033-0.429,0.05-0.627,0.05
		c-0.939,0-1.021-0.261-1.042-0.529c11.373-6.019,12.448-11.393,12.044-14.108c-0.365-2.461-2.302-3.932-5.176-3.932
		c-0.5,0-1.038,0.042-1.601,0.125c-6.715,0.952-13.34,7.603-14.756,14.69c-0.227,0.255-0.467,0.532-0.719,0.823
		c-1.027,1.183-3.08,3.548-4.3,4.035c0.146-1.017,1.071-2.878,3.001-5.115l0.044-0.048c1.183-1.314,2.654-2.95,2.255-5.609
		l-0.016-0.108l-0.028-0.104c-0.37-1.402-1.104-2.563-2.38-3.759l-0.021-0.019l-0.02-0.017c-0.497-0.444-1.15-0.669-1.941-0.669
		c-1.215,0-2.942,0.526-5.807,1.4c-0.191,0.061-0.387,0.119-0.587,0.182c-0.465-1.069-1.555-1.812-2.78-1.812
		c-0.152,0-0.306,0.011-0.457,0.034c-2.117,0.313-4.704,3.547-4.992,3.916c-0.711,0.907-1.686,2.351-2.251,4.033
		c-0.195-0.354-0.444-0.699-0.761-1.012c0.095-0.382,0.125-0.811,0.053-1.288c-0.306-2.042-2.108-3.362-4.593-3.362
		c-0.414,0-0.82,0.039-1.207,0.115c-3.961,0.791-8.204,3.237-11.084,6.393c-2.326,2.411-5.283,6.277-4.265,12.049
		c0.18,0.923,0.425,1.763,0.714,2.533l-15.504-6.159c-0.167-0.067-0.396-0.15-0.644-0.241c-0.256-0.091-0.718-0.256-1.015-0.405
		c0.046-0.062,0.117-0.146,0.227-0.256l18.64-13.042c1.778-0.053,3.49-0.977,4.959-2.68c1.527-1.771,3.132-4.989,2.909-6.482
		c-0.231-1.557-1.471-2.644-3.015-2.645c-0.166,0-0.334,0.015-0.502,0.038c-0.756,0.113-1.681,0.595-3.808,1.984l-0.202,0.132
		l-11.084,7.425c0.313-0.829,0.534-1.761,0.391-2.71c-0.261-1.765-1.807-3.225-2.729-4.098l-0.026-0.024l-0.025-0.021l-0.103-0.092
		c-0.834-0.734-1.698-1.495-3.192-1.495c-0.404,0-0.833,0.055-1.35,0.172c-5.782,1.175-11.269,3.966-15.127,6.162
		c-0.447-0.791-1.254-1.283-2.193-1.284c0,0,0,0-0.001,0c-0.132,0-0.271,0.01-0.418,0.033c-1.136,0.167-1.945,0.927-2.481,1.431
		l-0.19,0.176l-0.04,0.036l-0.038,0.038l-2.781,2.8c-0.23,0.235-0.43,0.432-0.608,0.611c-1.384,1.376-2.069,2.147-2.512,4.676
		c-0.396,2.072-0.833,4.861-0.633,6.204c0.281,1.897,1.737,3.177,3.622,3.177c0.22,0,0.444-0.018,0.671-0.052
		c1.524-0.225,2.895-1.178,3.894-1.875l1.394-0.963c5.834-4.035,9.153-6.33,14.488-8.807l-1.923,4.311l-5.131,3.714
		c-1.172,0.844-4.295,3.093-3.729,6.89c0.141,0.938,0.473,1.629,0.871,2.193l-6.163,10.967c-0.547,0.961-1.303,2.289-1.047,4.013
		c0.243,1.621,1.638,2.755,3.393,2.755c0.2,0,0.404-0.018,0.604-0.047c2.203-0.326,4.517-2.559,5.828-4.366
		c0.882-1.22,1.855-2.961,1.874-4.747l2.553-4.195l22.739,8.412c0.099,0.041,0.183,0.066,0.278,0.104
		c-12.414,3.382-24.647,6.766-25.571,7.021l-1.557,0.431l0.094,1.613l0.056,0.96l0.108,1.865l1.869,0.019
		c0.124,0.001,12.634,0.215,19.754,6.161c1.252,1.047,2.725,1.578,4.377,1.578c2.604,0,4.813-1.353,5.486-1.811
		c2.957-1.358,46.174-21.021,78.211-24.911c9.011-1.096,13.629-4.028,13.732-8.722C315.032,245.644,309.85,241.189,307.698,240.831z
		 M226.81,249.315c0.116,0.766,0.342,1.407,0.625,1.993c-0.627,0.684-1.157,1.063-1.91,1.178c-0.15,0.021-0.288,0.034-0.404,0.034
		c-0.051,0-0.092-0.002-0.124-0.005c-0.01-0.034-0.019-0.078-0.026-0.136c-0.167-1.13,0.374-3.007,1.182-4.096
		c0.179-0.23,0.377-0.465,0.596-0.698C226.711,248.167,226.725,248.748,226.81,249.315z M286.643,242.441
		c0.313-1.063,1.354-2.604,4.477-4.745C288.85,240.448,287.484,241.776,286.643,242.441z M224.839,261.693
		c-0.048-0.323-0.118-0.629-0.199-0.924c0.114,0.006,0.229,0.018,0.341,0.018c0.319,0,0.643-0.021,0.958-0.071
		c3.43-0.509,6.366-2.382,8.956-5.717c1.252-0.243,2.363-0.6,3.37-1.082l2.485-1.622c1.161-0.99,2.19-2.265,3.141-3.877
		c0.706-0.878,1.479-1.912,2.195-3.188c-0.815,1.907-1.313,3.998-0.979,6.244c0.473,3.165,3.03,5.552,5.95,5.552
		c0.28,0,0.565-0.021,0.848-0.063c2.74-0.409,6.095-3.813,8.523-6.74c1.498,2.977,4.098,4.769,7.186,4.769
		c0.412,0,0.837-0.032,1.26-0.095c4.57-0.684,8.646-4.251,11.359-7.289c1.67,2.095,4.047,3.7,5.838,3.7
		c0.158,0,0.316-0.013,0.469-0.033c1.409-0.211,3.086-1.542,6.404-5.087l0.22-0.232l0.083-0.09c0.007,0.288,0.027,0.557,0.064,0.806
		c0.396,2.646,2.221,4.354,4.646,4.354c0.264,0,0.534-0.021,0.809-0.063c2.697-0.4,4.352-1.689,5.705-3.072
		c0.912,0.123,2.533,1.366,2.596,2.187c0.021,0.244-0.813,1.052-3.67,1.496c-3.166,0.495-9.043,1.114-15.847,1.831
		c-14.034,1.479-33.254,3.505-44.082,6.077c-3.237,0.77-10.588,2.723-18.713,4.92C224.95,263.623,224.99,262.714,224.839,261.693z"
		/>
	<path fill="#FFFFFF" d="M194.501,255.164l24.319,8.996c0.62,0.257,2.352,0.934,3.034,0.829c1.193-0.179,1.134-2.146,1.007-3.001
		c-0.482-3.243-3.422-4.607-6.205-5.708l-15.644-6.216c-0.932-0.387-2.797-0.805-2.975-2c-0.146-0.967,0.282-1.613,0.995-2.303
		l19.33-13.527c4.03,0.503,6.597-6.104,6.485-6.843c-0.094-0.628-0.562-1.022-1.244-0.921c-0.625,0.094-2.636,1.438-3.219,1.815
		l-16.872,11.302l-0.132-0.097l2.274-4.645c0.441-0.938,1.127-2.203,0.973-3.229c-0.16-1.081-1.381-2.237-2.126-2.939
		c-1.071-0.942-1.413-1.302-2.879-0.968c-8.639,1.756-16.545,7.238-19.298,8.695l-0.129-0.096c2.432-2.811,2.278-2.669,2.21-3.121
		c-0.052-0.344-0.264-0.604-0.661-0.541c-0.626,0.092-1.177,0.697-1.638,1.114l-2.781,2.8c-1.666,1.703-2.161,1.893-2.569,4.223
		c-0.229,1.197-0.795,4.424-0.625,5.563c0.161,1.081,0.938,1.604,2.02,1.441c1.08-0.158,2.238-0.975,3.082-1.563
		c8.28-5.717,11.739-8.27,20.902-11.963l-4.229,9.475l-5.564,4.029c-1.629,1.173-3.264,2.696-2.924,4.975
		c0.152,1.023,0.638,1.534,1.324,2.245l-6.852,12.189c-0.507,0.891-0.964,1.716-0.813,2.737c0.128,0.855,0.981,1.136,1.723,1.023
		c2.276-0.339,6.424-4.914,5.959-7.638L194.501,255.164z"/>
	<path fill="#FFFFFF" d="M307.372,242.803c-2.358-0.396-3.215-0.313-5.604,0.042c-0.91,0.139-2.06-0.199-1.9-2.041
		c0.234-2.695,3.957-7.398,3.688-9.223c-0.189-1.251-0.851-1.789-1.998-2.086c0.486-0.246,1.879-1.037,1.775-1.721
		c-0.101-0.682-1.494-2.626-4.104-2.18c-5.738,1.011-16.9,8.363-18.801,14.927c-2.613,2.813-6.139,6.419-9.584,6.933
		c-1.82,0.273-3.81-0.184-3.963-2.373l-0.07-1.268c10.393-5.217,12.551-9.844,12.135-12.633c-0.338-2.277-2.682-2.393-4.504-2.121
		c-6.2,0.879-12.178,7.229-13.18,13.629c-1.709,1.842-4.546,5.651-6.871,6.001c-0.854,0.126-1.865-0.419-2.002-1.331
		c-0.34-2.275,2.033-5.479,3.473-7.149c1.148-1.275,2.103-2.292,1.837-4.056c-0.267-1.006-0.8-1.857-1.814-2.812
		c-0.67-0.6-3.697,0.55-8.938,2.088c0.151-0.544,0.246-1.083,0.16-1.651c-0.077-0.512-0.599-0.9-1.167-0.813
		c-1.367,0.2-6.561,5.164-5.951,9.264c0.181,1.194,0.59,1.6,1.803,1.535c-0.278,0.551-0.575,1.088-0.888,1.613
		c-1.368,1.535-2.63,3.456-4.938,3.387c0.751-2.382,1.593-4.543,1.219-7.045c-0.256-1.71-0.773-2.855-2.551-3.055
		c0.577-0.437,1.207-0.881,1.079-1.731c-0.229-1.536-2.192-1.827-3.436-1.582c-3.446,0.688-7.313,2.836-10.013,5.8
		c-2.824,2.922-4.504,6.08-3.754,10.332c1.002,5.146,4.172,7.696,7.132,7.254c3.587-0.533,6.103-2.77,8.129-5.575
		c2.311-0.345,4.037-1.054,5.48-2.223l0.003,0.009c0.008-0.011,0.016-0.02,0.021-0.031c1.115-0.907,2.066-2.094,2.962-3.64
		c1.035-1.277,2.001-2.626,2.792-4.404l5.725-2.189l0.132,0.097c-1.87,3.07-4.379,6.529-3.803,10.399
		c0.321,2.163,2.134,4.162,4.524,3.806c2.763-0.414,7.226-5.755,9.603-9.045c0.021,0.147,0.021,0.301,0.051,0.449
		c0.674,3.736,3.159,7.146,7.314,6.525c4.491-0.669,8.87-4.803,11.92-8.758c1.021,2.689,4.303,5.353,5.747,5.136
		c1.308-0.193,4.507-3.696,5.462-4.712l4.606-4.994l0.131,0.102c-0.51,1.646-1.426,4.865-1.153,6.687
		c0.247,1.649,1.305,2.891,3.182,2.609c2.129-0.317,3.42-1.278,4.793-2.729c2.27-2.16,11.58,5.557,0.438,7.291
		c-9.819,1.533-43.859,4.1-59.771,7.88c-8.978,2.133-50.597,13.65-50.597,13.65l0.056,0.96c0,0,13.243,0.134,21.017,6.626
		c3.275,2.739,7.58-0.438,7.58-0.438s45.242-21.06,78.972-25.156C321.668,254.553,309.734,243.197,307.372,242.803z
		 M273.341,232.602c0.384-0.173,0.718,0.126,0.777,0.522c0.199,0.957-2.629,5.396-7.383,7.85
		C267.714,236.99,270.607,233.765,273.341,232.602z M228.789,249.02c0.146,0.966,0.541,1.664,1.074,2.516
		c-1.132,1.394-2.163,2.648-4.043,2.929c-1.423,0.214-2.58-0.136-2.827-1.784c-0.263-1.769,0.487-4.149,1.554-5.585
		c1.46-1.904,3.933-3.672,5.697-5.098C230.489,242.076,228.349,246.062,228.789,249.02z M285.909,245.096
		c-0.829,0.298-1.21-0.692-1.311-0.97c-0.416-2.789,0.717-6.506,13.643-12.682l0.132,0.098
		C288.803,244.607,287.014,244.699,285.909,245.096z"/>
	<path fill="#1369B7" d="M116.63,240.919l104.125-58.622c-5.046-2.085-9.648-4.673-13.661-7.681H116.63V240.919z"/>
	<path fill="#1369B7" d="M382.482,240.919l-101.877-58.622c5.047-2.085,9.647-4.673,13.66-7.681h88.217V240.919z"/>
	<path fill="#C90E18" d="M183.86,174.616c6.438,6.307,14.098,11.596,22.57,15.746l14.324-8.064
		c-5.047-2.085-9.648-4.673-13.661-7.681L183.86,174.616L183.86,174.616z"/>
	<path fill="#C90E18" d="M317.5,174.616c-6.438,6.307-14.097,11.596-22.57,15.746l-14.322-8.064
		c5.047-2.085,9.646-4.673,13.66-7.681L317.5,174.616L317.5,174.616z"/>
</g>
</svg>
