<?xml version="1.0" encoding="utf-8"?>
<!-- Generator: Adobe Illustrator 16.0.0, SVG Export Plug-In . SVG Version: 6.00 Build 0)  -->
<!DOCTYPE svg PUBLIC "-//W3C//DTD SVG 1.1//EN" "http://www.w3.org/Graphics/SVG/1.1/DTD/svg11.dtd">
<svg version="1.1" id="content" xmlns="http://www.w3.org/2000/svg" xmlns:xlink="http://www.w3.org/1999/xlink" x="0px" y="0px"
	 width="500px" height="500px" viewBox="0 0 500 500" enable-background="new 0 0 500 500" xml:space="preserve">
<rect id="position" x="0.5" y="0.5" display="none" fill="none" stroke="#000000" width="499" height="499"/>
<g>
	<g>
		<polygon fill="#DEDEDE" points="281.3,175.5 249.5,220.9 217.6,175.5 116.6,175.5 116.6,480.3 382.4,480.3 382.4,312 382.4,175.5 
					"/>
		<polygon fill="#FFFFFF" points="245.1,240.9 199.1,175.5 220.5,175.5 255.7,225.6 		"/>
		<path fill="#FFFFFF" d="M241.5,231.9L241.5,231.9L241.5,231.9z"/>
		<polygon fill="#FFFFFF" points="281.6,175.5 242,231.9 242,231.9 242,248.3 242,480.4 261.9,480.4 261.9,233.9 303,175.5 		"/>
		<path fill="#424242" d="M237.6,230.5L237.6,230.5L237.6,230.5z"/>
		<polygon opacity="0.4" fill="#424242" enable-background="new    " points="276.7,175.5 238.1,230.5 238.1,230.5 238.1,237.5 
			238.1,480.4 242,480.4 242,231.9 281.6,175.5 		"/>
	</g>
	<g id="androd_1_">
		<path fill="#D32F2F" d="M311.1,219l1.8-2.6c0.1-0.2,0.1-0.4-0.1-0.5c-0.1-0.1-0.3,0-0.5,0.1l-1.9,2.7c-1.2-0.5-2.6-0.8-4.1-0.8
			s-2.8,0.3-4.1,0.8l-1.9-2.7c-0.1-0.2-0.3-0.2-0.5-0.1c-0.1,0.1-0.2,0.3-0.1,0.5l1.8,2.6c-2.9,1.3-4.9,3.9-5.2,6.9H316
			C316,222.9,314,220.3,311.1,219z M302.3,223.2c-0.6,0-1.1-0.5-1.1-1.1s0.5-1.1,1.1-1.1c0.6,0,1.1,0.5,1.1,1.1
			S302.9,223.2,302.3,223.2z M310.5,223.2c-0.6,0-1.1-0.5-1.1-1.1s0.5-1.1,1.1-1.1s1.1,0.5,1.1,1.1S311.2,223.2,310.5,223.2z"/>
		<path fill="#D32F2F" d="M295.3,238.4c0,1.2-1,2.2-2.2,2.2l0,0c-1.2,0-2.2-1-2.2-2.2v-8.9c0-1.2,1-2.2,2.2-2.2l0,0
			c1.2,0,2.2,1,2.2,2.2V238.4z"/>
		<path fill="#D32F2F" d="M296.6,227.3v16.1c0,1,0.8,1.7,1.7,1.7h2v4.9c0,1.2,1,2.2,2.2,2.2s2.2-1,2.2-2.2v-4.9h3.4v4.9
			c0,1.2,1,2.2,2.2,2.2s2.2-1,2.2-2.2v-4.9h2c1,0,1.7-0.8,1.7-1.7v-16.1H296.6z"/>
		<path fill="#D32F2F" d="M317.6,238.4c0,1.2,1,2.2,2.2,2.2l0,0c1.2,0,2.2-1,2.2-2.2v-8.9c0-1.2-1-2.2-2.2-2.2l0,0
			c-1.2,0-2.2,1-2.2,2.2V238.4z"/>
	</g>
</g>
</svg>
