<?xml version="1.0" encoding="utf-8"?>
<!-- Generator: Adobe Illustrator 18.0.0, SVG Export Plug-In . SVG Version: 6.00 Build 0)  -->
<!DOCTYPE svg PUBLIC "-//W3C//DTD SVG 1.1//EN" "http://www.w3.org/Graphics/SVG/1.1/DTD/svg11.dtd">
<svg version="1.1" id="content" xmlns="http://www.w3.org/2000/svg" xmlns:xlink="http://www.w3.org/1999/xlink" x="0px" y="0px"
	 width="500px" height="500px" viewBox="0 0 500 500" enable-background="new 0 0 500 500" xml:space="preserve">
<g>
	<g>
		<g>
			<polygon fill="#DEDEDE" points="38.8,199.7 64.7,276.3 116.9,267.9 116.9,177.2 116.9,177.2 			"/>
			<polygon fill="#DEDEDE" points="382.7,177.2 382.7,177.2 382.7,267.9 434.9,276.3 460.8,199.7 			"/>
			<polygon fill="#DEDEDE" points="249.8,222.6 217.9,177.2 116.9,177.2 116.9,483.9 382.7,483.9 382.7,313.8 382.7,177.2 
				281.6,177.2 			"/>
		</g>
		<polygon fill="#FFFFFF" points="245.4,242.6 199.4,177.2 220.8,177.2 256,227.3 		"/>
		<path fill="#FFFFFF" d="M241.8,233.6L241.8,233.6L241.8,233.6z"/>
		<polygon fill="#FFFFFF" points="281.9,177.2 242.3,233.6 242.3,233.6 242.3,250 242.3,483.9 262.2,483.9 262.2,235.6 303.3,177.2 
					"/>
		<path fill="#424242" d="M237.9,232.2L237.9,232.2L237.9,232.2z"/>
		<polygon opacity="0.4" fill="#424242" enable-background="new    " points="277,177.2 238.4,232.2 238.4,232.2 238.4,239.2 
			238.4,483.9 242.3,483.9 242.3,233.6 281.9,177.2 		"/>
		<g id="androd_1_">
			<path fill="#D32F2F" d="M311.4,220.7l1.8-2.6c0.1-0.2,0.1-0.4-0.1-0.5c-0.1-0.1-0.3,0-0.5,0.1l-1.9,2.7c-1.2-0.5-2.6-0.8-4.1-0.8
				s-2.8,0.3-4.1,0.8l-1.9-2.7c-0.1-0.2-0.3-0.2-0.5-0.1c-0.1,0.1-0.2,0.3-0.1,0.5l1.8,2.6c-2.9,1.3-4.9,3.9-5.2,6.9h19.7
				C316.3,224.6,314.3,222,311.4,220.7z M302.6,224.9c-0.6,0-1.1-0.5-1.1-1.1s0.5-1.1,1.1-1.1s1.1,0.5,1.1,1.1
				S303.2,224.9,302.6,224.9z M310.8,224.9c-0.6,0-1.1-0.5-1.1-1.1s0.5-1.1,1.1-1.1s1.1,0.5,1.1,1.1S311.5,224.9,310.8,224.9z"/>
			<path fill="#D32F2F" d="M295.6,240.1c0,1.2-1,2.2-2.2,2.2l0,0c-1.2,0-2.2-1-2.2-2.2v-8.9c0-1.2,1-2.2,2.2-2.2l0,0
				c1.2,0,2.2,1,2.2,2.2V240.1z"/>
			<path fill="#D32F2F" d="M296.9,229v16.1c0,1,0.8,1.7,1.7,1.7h2v4.9c0,1.2,1,2.2,2.2,2.2s2.2-1,2.2-2.2v-4.9h3.4v4.9
				c0,1.2,1,2.2,2.2,2.2s2.2-1,2.2-2.2v-4.9h2c1,0,1.7-0.8,1.7-1.7V229H296.9z"/>
			<path fill="#D32F2F" d="M317.9,240.1c0,1.2,1,2.2,2.2,2.2l0,0c1.2,0,2.2-1,2.2-2.2v-8.9c0-1.2-1-2.2-2.2-2.2l0,0
				c-1.2,0-2.2,1-2.2,2.2V240.1z"/>
		</g>
		<rect x="242.7" y="405.8" fill="#FFFFFF" width="0" height="0.3"/>
		<rect x="242.7" y="405.8" opacity="0.4" fill="#424242" enable-background="new    " width="0" height="0.3"/>
		<rect x="242.7" y="303.4" fill="#FFFFFF" width="0" height="102.5"/>
		<g>
			<rect x="116.9" y="303.4" width="265.8" height="21.4"/>
			<circle cx="231.4" cy="314.4" r="19.4"/>
			<rect x="191" y="333.1" transform="matrix(-0.3754 0.9269 -0.9269 -0.3754 619.44 270.1611)" width="55.4" height="21.4"/>
			<rect x="216.2" y="333" transform="matrix(0.3899 0.9209 -0.9209 0.3899 465.3116 -14.8799)" width="55.4" height="21.4"/>
		</g>
	</g>
	<polygon fill="#FFFFFF" points="64.7,276.3 38.8,199.7 61.5,193.2 88.1,272.5 	"/>
	<polygon fill="#FFFFFF" points="434.9,276.3 460.8,199.7 438.1,193.2 411.6,272.5 	"/>
</g>
<g id="bounds" display="none">
	<rect x="0" y="80.8" display="inline" fill="none" stroke="#EAEAEA" stroke-miterlimit="10" width="499.5" height="499.5"/>
</g>
<rect id="position" display="none" fill="none" stroke="#000000" width="500" height="500"/>
</svg>
