<?xml version="1.0" encoding="utf-8"?>
<!-- Generator: Adobe Illustrator 14.0.0, SVG Export Plug-In . SVG Version: 6.00 Build 43363)  -->
<!DOCTYPE svg PUBLIC "-//W3C//DTD SVG 1.1//EN" "http://www.w3.org/Graphics/SVG/1.1/DTD/svg11.dtd">
<svg version="1.1" id="content" xmlns="http://www.w3.org/2000/svg" xmlns:xlink="http://www.w3.org/1999/xlink" x="0px" y="0px"
	 width="500px" height="500px" viewBox="0 0 500 500" enable-background="new 0 0 500 500" xml:space="preserve">
<g id="bounds" display="none">
	
		<rect x="-0.208" y="80.266" display="inline" fill="none" stroke="#EAEAEA" stroke-miterlimit="10" width="499.499" height="499.5"/>
</g>
<rect id="position" x="0.5" y="0.5" display="none" fill="none" stroke="#000000" width="499" height="499"/>
<g id="chooser">
	<polygon fill="#D1D3D4" points="375.584,191.244 356.911,177.045 353.834,177.045 351.834,177.045 300.527,177.045 
		299.111,177.045 251.724,220.889 205.193,177.045 203.778,177.045 149.834,177.045 147.834,177.045 144.755,177.045 
		126.083,191.244 70.396,262.244 70.396,443.22 131.652,443.22 131.652,280.344 147.834,275.539 147.834,482.186 147.834,482.375 
		353.834,482.375 353.834,275.539 370.016,280.344 370.016,443.22 431.271,443.22 431.271,262.244 	"/>
	<g>
		<rect id="shirt_4_" x="147.834" y="297.895" fill="#231F20" width="206" height="24.01"/>
		<rect id="shirt_2_" x="147.834" y="309.9" fill="#CE0000" width="206" height="12.005"/>
		<polygon fill="#231F20" points="285.682,177.045 250.835,211.837 215.987,177.045 185.854,177.045 185.835,177.045 
			250.835,242.01 315.836,177.045 315.816,177.045 		"/>
		<polygon fill="#CE0000" points="315.816,177.045 300.482,177.045 300.502,177.045 243.169,234.344 250.835,242.01 
			315.836,177.045 		"/>
		<polygon fill="#CE0000" points="185.854,177.045 201.188,177.045 201.169,177.045 258.502,234.344 250.833,242.01 
			185.835,177.045 		"/>
		<rect x="287.315" y="225.34" fill="#231F20" width="34.964" height="27.596"/>
		<path fill="#FFFFFF" d="M283.887,223.321v31.651h41.893v-31.651H283.887z M316.792,226.591l2.004,2.829l-0.965,0.684l-2.003-2.83
			L316.792,226.591z M315.165,227.774l4.433,6.263l-0.965,0.684l-4.433-6.264L315.165,227.774z M317.005,242.524l0.962,0.684
			l-2.008,2.827l-0.962-0.683L317.005,242.524z M315.089,232.911l0.963-0.68l1.996,2.83l-0.963,0.68L315.089,232.911z
			 M318.612,243.547l0.964,0.683l-2.004,2.831l-0.964-0.682L318.612,243.547z M297.04,229.573l-4.438,6.262l-0.964-0.684
			l4.438-6.262L297.04,229.573z M295.425,228.436l-4.434,6.263l-0.965-0.683l4.434-6.263L295.425,228.436z M293.028,246.442
			l-0.965,0.684l-2.002-2.828l0.964-0.684L293.028,246.442z M292.964,226.64l0.964,0.682l-4.436,6.266l-0.963-0.682L292.964,226.64z
			 M292.951,251.664l-4.432-6.263l0.961-0.68l4.431,6.263L292.951,251.664z M294.514,250.468l-2.004-2.828l0.963-0.683l2.004,2.828
			L294.514,250.468z M296.087,249.427l-4.436-6.264l0.963-0.682l4.436,6.264L296.087,249.427z M313.55,228.833l2,2.831l-0.96,0.679
			l-2-2.832L313.55,228.833z M312.653,248.782l2.002-2.828l0.964,0.683l-2.002,2.828L312.653,248.782z M314.275,249.83l2.004-2.827
			l0.964,0.683l-2.004,2.827L314.275,249.83z M316.659,251.675l-0.963-0.683l2.006-2.828l0.963,0.683L316.659,251.675z
			 M319.098,248.257l-0.963-0.682l2.002-2.83l0.963,0.681L319.098,248.257z M320.168,233.609l-2-2.827l0.965-0.683l2,2.827
			L320.168,233.609z"/>
		<g>
			<g>
				<path fill="#CC0014" d="M309.788,236.861c2,0.739,3.023,2.957,2.283,4.959c1.479-4.002-0.569-8.44-4.565-9.915
					c-4.002-1.477-8.441,0.567-9.916,4.567c-0.74,2,0.283,4.219,2.285,4.957c1.995,0.737,4.215-0.279,4.956-2.28
					C305.57,237.148,307.788,236.124,309.788,236.861z"/>
				<path fill="#0B52D1" d="M299.875,241.429c-1.998-0.737-3.021-2.957-2.283-4.957c-1.479,3.998,0.57,8.44,4.569,9.914
					c3.996,1.479,8.441-0.568,9.91-4.566c0.748-2.002-0.276-4.22-2.278-4.959c-2.004-0.737-4.222,0.285-4.959,2.286
					C304.094,241.146,301.875,242.168,299.875,241.429z"/>
			</g>
		</g>
		<g>
			<g>
				<path fill="#CE0000" d="M246.503,319.014c0,0-20.043,12.306-26.556,44.204c-25.219,0-25.721,0-25.721,0
					s11.664-37.245,43.326-47.935C245.501,317.791,246.503,319.014,246.503,319.014z"/>
				<path fill="#231F20" d="M242.047,316.829c-1.174-0.446-2.638-0.96-4.493-1.544c-31.662,10.688-43.326,47.935-43.326,47.935
					s0.334,0,13.277,0C207.505,363.219,215.947,330.354,242.047,316.829z"/>
			</g>
			<g>
				<path fill="#CE0000" d="M264.113,315.285c31.662,10.688,43.326,47.935,43.326,47.935s-0.502,0-25.721,0
					c-6.512-31.898-26.555-44.204-26.555-44.204S256.166,317.791,264.113,315.285z"/>
				<path fill="#231F20" d="M259.619,316.829c1.174-0.446,2.639-0.96,4.493-1.544c31.662,10.688,43.326,47.935,43.326,47.935
					s-0.334,0-13.276,0C294.162,363.219,285.719,330.354,259.619,316.829z"/>
			</g>
			<path fill="#CE0000" d="M250.833,299.768h-10.972c-1.272,0-2.308,1.034-2.308,2.308v14.631c0,1.273,1.034,2.309,2.308,2.309
				h10.972V299.768z"/>
			<path fill="#231F20" d="M250.833,299.768h10.97c1.273,0,2.309,1.034,2.309,2.308v14.631c0,1.273-1.034,2.309-2.309,2.309h-10.97
				V299.768z"/>
		</g>
	</g>
</g>
</svg>
