<?xml version="1.0" encoding="utf-8"?>
<!-- Generator: Adobe Illustrator 14.0.0, SVG Export Plug-In . SVG Version: 6.00 Build 43363)  -->
<!DOCTYPE svg PUBLIC "-//W3C//DTD SVG 1.1//EN" "http://www.w3.org/Graphics/SVG/1.1/DTD/svg11.dtd">
<svg version="1.1" id="content" xmlns="http://www.w3.org/2000/svg" xmlns:xlink="http://www.w3.org/1999/xlink" x="0px" y="0px"
	 width="500px" height="500px" viewBox="0 0 500 500" enable-background="new 0 0 500 500" xml:space="preserve">
<rect id="position" x="0.5" y="0.5" display="none" fill="none" stroke="#000000" width="499" height="499"/>
<g id="arm">
	<path fill="#E8AC42" d="M127.811,299.5c0.001-0.102,0.008-0.2,0.008-0.301v-99.087c0-14.245-11.547-25.792-25.791-25.792
		c-14.241,0-25.792,11.547-25.792,25.792v99.087c0,0.104,0.01,0.199,0.012,0.301H127.811z"/>
	<path fill="#89601F" d="M103.288,189.528l5.279-14.493c-0.767-0.201-1.548-0.364-2.341-0.494l-4.203,11.529l-4.198-11.529
		c-0.796,0.13-1.575,0.293-2.346,0.494l5.283,14.494l-17.572,48.206l-6.959-19.093v6.913l5.7,15.636l-5.7,15.637v6.916l6.96-19.095
		l17.571,48.207l-0.188,0.52h2.896l-0.188-0.518l17.568-48.207l6.914,18.967v-6.916l-5.651-15.509l5.651-15.508v-6.917
		l-6.914,18.967L103.288,189.528z M102.028,289.396L84.46,241.191l17.567-48.206l17.571,48.206L102.028,289.396z"/>
	<path fill="#EDBE72" d="M108.64,211.123l-6.612-18.138L84.46,241.191l7.938,21.783C91.563,244.489,93.524,220.498,108.64,211.123z"
		/>
	<path fill="#EDBE72" d="M89.806,262.787l-6.612-18.138l-6.958,19.091v19.508C78.621,274.624,82.798,267.135,89.806,262.787z"/>
	<path fill="#EDBE72" d="M103.286,292.857l2.421,6.643h5.614c0.975-14.805,4.948-29.767,16.146-36.711l-6.612-18.138
		L103.286,292.857z"/>
	<path fill="#EDBE72" d="M114.601,177.594c-1.891-1.061-3.926-1.891-6.072-2.446l-5.238,14.38l7.938,21.783
		C110.745,200.615,111.205,188.079,114.601,177.594z"/>
	<path fill="#EDBE72" d="M78.565,224.808c-0.717-15.872,0.639-35.794,10.602-47.047c-7.728,4.456-12.931,12.793-12.931,22.352
		v18.306L78.565,224.808z"/>
	<rect x="76.244" y="291.167" fill="#89601F" width="51.571" height="8.333"/>
	<path fill="#E8AC42" d="M127.811,299.5c0.002-0.102,0.008-0.2,0.008-0.301v-99.087c0-14.245-11.547-25.792-25.791-25.792
		c-14.243,0-25.791,11.547-25.791,25.792v99.087c0,0.104,0.007,0.199,0.009,0.301H127.811z"/>
	<path fill="#89601F" d="M83.534,299.5l18.492-50.738l18.491,50.738h2.031l5.269-14.457v-3.59l-6.283,17.242l-18.854-51.729
		l18.851-51.725l6.286,17.246v-3.59l-5.632-15.451l2.232-6.126c-0.261-0.455-0.533-0.902-0.819-1.34l-2.067,5.672l-4.58-12.569
		c-0.559-0.396-1.13-0.772-1.719-1.125l5.646,15.488l-18.852,51.726l-18.853-51.726l5.646-15.487
		c-0.59,0.353-1.162,0.729-1.72,1.126l-4.58,12.567l-2.065-5.67c-0.287,0.438-0.561,0.885-0.82,1.34l2.231,6.124l-5.63,15.447v3.59
		l6.284-17.242l18.854,51.725l-18.854,51.729l-6.282-17.238v3.587l5.27,14.456H83.534z"/>
	<path fill="#EDBE72" d="M96.674,292.83c5.798-14.137,13.741-21.049,18.604-7.704l-13.251-36.364l-16.06,44.068H96.674z"/>
	<path fill="#EDBE72" d="M82.521,195.241l-6.284,17.244v24.045c4.743-14.882,12.572-24.032,17.113-11.571L82.521,195.241z"/>
	<path fill="#EDBE72" d="M127.818,212.696l-6.323-17.354l-18.813,51.623l10.83,29.719c-7.565-20.763,5.158-59.688,14.307-57.367
		V212.696z"/>
	<path fill="#EDBE72" d="M88.819,177.959l-5.644,15.487l13.252,36.365c-5.729-15.718-1.95-39.941,4.414-55.461
		C96.459,174.549,92.364,175.842,88.819,177.959z"/>
	<rect x="76.236" y="279.005" fill="#89601F" width="51.582" height="20.495"/>
	<rect x="97.003" y="281.25" fill="#E8AC42" width="2.398" height="18.25"/>
	<rect x="80.716" y="281.25" fill="#E8AC42" width="2.397" height="18.25"/>
	<rect x="113.292" y="281.25" fill="#E8AC42" width="2.397" height="18.25"/>
	<rect x="105.147" y="281.25" fill="#E8AC42" width="2.398" height="18.25"/>
	<rect x="88.859" y="281.25" fill="#E8AC42" width="2.398" height="18.25"/>
	<rect x="121.436" y="281.25" fill="#E8AC42" width="2.398" height="18.25"/>
</g>
</svg>
