<?xml version="1.0" encoding="utf-8"?>
<!-- Generator: Adobe Illustrator 14.0.0, SVG Export Plug-In . SVG Version: 6.00 Build 43363)  -->
<!DOCTYPE svg PUBLIC "-//W3C//DTD SVG 1.1//EN" "http://www.w3.org/Graphics/SVG/1.1/DTD/svg11.dtd">
<svg version="1.1" id="content" xmlns="http://www.w3.org/2000/svg" xmlns:xlink="http://www.w3.org/1999/xlink" x="0px" y="0px"
	 width="500px" height="500px" viewBox="0 0 500 500" enable-background="new 0 0 500 500" xml:space="preserve">
<g id="bounds" display="none">
	<rect x="-0.572" y="80.645" display="inline" fill="none" stroke="#EAEAEA" stroke-miterlimit="10" width="499.5" height="499.5"/>
</g>
<rect id="position" x="0.5" y="0.5" display="none" fill="none" stroke="#000000" width="499" height="499"/>
<g id="chooser">
	<polygon fill="#E8AC42" points="147.106,175.943 147.106,273.986 128.927,279.386 128.927,433.541 67.669,433.541 67.669,261.285 
		123.354,190.285 142.026,175.943 	"/>
	<path fill="#89601F" d="M73.72,304.743l-6.051,16.603v4.383l6.85-18.793l23.023,63.171l-23.024,63.171l-6.849-18.791v4.383
		l5.348,14.674h3.002l22.321-61.245l22.321,61.245h3.004l5.262-14.438v-4.383l-6.764,18.558l-23.024-63.173l23.023-63.17
		l6.765,18.561v-4.384l-5.966-16.368l5.966-16.368v-4.384l-6.765,18.562l-23.023-63.171l12.407-34.04l-2.984,3.805L98.34,237.191
		l-3.735-10.249l-1.091,1.391l4.027,11.051l-23.022,63.169l-6.85-18.795v4.385L73.72,304.743z M75.316,304.743l23.023-63.169
		l23.022,63.17l-23.022,63.17L75.316,304.743z"/>
	<polygon fill="#89601F" points="147.106,240.264 147.106,244.648 145.985,241.572 132.602,278.295 130.81,278.826 145.187,239.381 
		126.432,187.922 127.68,186.963 145.985,237.189 147.106,234.113 147.106,238.497 146.784,239.381 	"/>
	<path fill="#EDBE72" d="M111.591,277.939L98.34,241.574l-23.021,63.17l13.252,36.365C77.625,311.07,101.39,249.945,111.591,277.939
		z"/>
	<path fill="#EDBE72" d="M135.413,212.104l-8.85-24.285l-3.21,2.465l-12.129,15.464l-12.084,33.16l13.252,36.365
		C101.447,245.235,125.212,184.11,135.413,212.104z"/>
	<path fill="#EDBE72" d="M67.754,325.499v29.205c5.854-16.538,14.745-25.866,20.016-11.401l-13.251-36.365L67.754,325.499z"/>
	<path fill="#EDBE72" d="M129.012,336.156v-10.423l-6.85-18.798l-23.021,63.17l13.252,36.365
		C103.379,381.731,117.906,335.917,129.012,336.156z"/>
	<path fill="#EDBE72" d="M87.864,433.541c4.902-23.874,17.141-42.954,23.728-24.879L98.34,372.297l-22.318,61.244H87.864z"/>
	<rect x="67.669" y="409.201" fill="#89601F" width="61.258" height="24.34"/>
	<rect x="101.416" y="411.868" fill="#E8AC42" width="2.848" height="21.673"/>
	<rect x="120.759" y="411.868" fill="#E8AC42" width="2.848" height="21.673"/>
	<rect x="82.073" y="411.868" fill="#E8AC42" width="2.849" height="21.673"/>
	<rect x="91.745" y="411.868" fill="#E8AC42" width="2.848" height="21.673"/>
	<rect x="111.089" y="411.868" fill="#E8AC42" width="2.847" height="21.673"/>
	<rect x="72.402" y="411.868" fill="#E8AC42" width="2.849" height="21.673"/>
	<rect x="143.458" y="175.943" fill="#89601F" width="3.647" height="99.127"/>
	<polygon fill="#E8AC42" points="354.188,175.943 372.859,190.285 428.545,261.285 428.545,433.541 367.286,433.541 
		367.286,279.386 349.107,273.986 349.107,175.943 	"/>
	<path fill="#89601F" d="M428.545,288.141v-4.385l-6.851,18.795l-23.021-63.17l4.026-11.05l-1.091-1.391l-3.735,10.249
		l-10.222-28.045l-2.983-3.806l12.406,34.041l-23.022,63.17l-6.766-18.561v4.384l5.967,16.368l-5.967,16.368v4.384l6.766-18.561
		l23.022,63.17l-23.023,63.173l-6.765-18.559v4.384l5.263,14.438h3.004l22.32-61.244l22.321,61.244h3.002l5.349-14.673v-4.383
		l-6.85,18.791l-23.023-63.171l23.022-63.171l6.851,18.793v-4.384l-6.052-16.602L428.545,288.141z M397.873,367.914l-23.022-63.17
		l23.022-63.17l23.023,63.169L397.873,367.914z"/>
	<polygon fill="#89601F" points="349.107,240.264 349.107,244.648 350.229,241.572 363.612,278.295 365.404,278.826 
		351.027,239.381 369.781,187.922 368.533,186.963 350.229,237.189 349.107,234.113 349.107,238.497 349.43,239.381 	"/>
	<path fill="#EDBE72" d="M411.125,277.939l-13.252-36.365l-23.021,63.17l13.252,36.365
		C377.158,311.07,400.924,249.945,411.125,277.939z"/>
	<path fill="#EDBE72" d="M367.286,325.498v29.205c5.854-16.538,14.745-25.866,20.017-11.402l-13.251-36.364L367.286,325.498z"/>
	<path fill="#EDBE72" d="M428.545,336.155v-10.423l-6.851-18.798l-23.021,63.17l13.252,36.365
		C402.911,381.73,417.439,335.916,428.545,336.155z"/>
	<path fill="#EDBE72" d="M402.699,228.332l-4.026,11.052l13.252,36.364c-3.742-10.271-3.427-24.174-0.983-36.907L402.699,228.332z"
		/>
	<path fill="#EDBE72" d="M369.78,187.92l-18.753,51.461l13.252,36.365c-10.946-30.039,12.818-91.164,23.021-63.17l-2.642-7.248
		l-11.799-15.043L369.78,187.92z"/>
	<path fill="#EDBE72" d="M363.479,277.937l-13.251-36.365l-1.121,3.076v29.338l1.949,0.579
		C355.53,269.157,360.203,268.949,363.479,277.937z"/>
	<path fill="#EDBE72" d="M387.398,433.541c4.902-23.874,17.14-42.954,23.728-24.879l-13.252-36.365l-22.317,61.244H387.398z"/>
	<rect x="367.286" y="409.201" fill="#89601F" width="61.259" height="24.34"/>
	<rect x="391.949" y="411.868" fill="#E8AC42" width="2.849" height="21.673"/>
	<rect x="372.607" y="411.868" fill="#E8AC42" width="2.848" height="21.673"/>
	<rect x="411.293" y="411.868" fill="#E8AC42" width="2.848" height="21.673"/>
	<rect x="401.62" y="411.868" fill="#E8AC42" width="2.849" height="21.673"/>
	<rect x="382.278" y="411.868" fill="#E8AC42" width="2.848" height="21.673"/>
	<rect x="420.964" y="411.868" fill="#E8AC42" width="2.848" height="21.673"/>
	<rect x="349.107" y="175.943" fill="#89601F" width="3.648" height="99.127"/>
	<path fill="#EDBE72" d="M152.42,399.165l-7.313,20.063v23.865c3.182-8.901,8.13-16.481,15.624-21.129L152.42,399.165z"/>
	<polygon fill="#E8AC42" points="277.273,175.531 247.272,251.666 219.272,175.531 145.106,175.531 145.106,480.541 
		351.107,480.541 351.107,175.531 	"/>
	<path fill="#EDBE72" d="M332.27,232.554l-13.251-36.365l-23.021,63.17l13.252,36.365
		C298.304,265.685,322.068,204.56,332.27,232.554z"/>
	<path fill="#EDBE72" d="M284.623,232.554l-13.251-36.365l-23.021,63.17l13.252,36.365
		C250.656,265.685,274.422,204.56,284.623,232.554z"/>
	<path fill="#EDBE72" d="M236.98,232.554l-13.251-36.365l-23.021,63.17l13.252,36.365
		C203.015,265.685,226.779,204.56,236.98,232.554z"/>
	<path fill="#EDBE72" d="M189.334,232.554l-13.251-36.365l-23.021,63.17l13.252,36.365
		C155.368,265.685,179.133,204.56,189.334,232.554z"/>
	<path fill="#EDBE72" d="M332.268,363.278l-13.251-36.365l-23.021,63.17l13.252,36.365
		C298.302,396.409,322.066,335.284,332.268,363.278z"/>
	<path fill="#EDBE72" d="M284.621,363.278l-13.251-36.365l-23.021,63.17l13.252,36.365
		C250.655,396.409,274.42,335.284,284.621,363.278z"/>
	<path fill="#EDBE72" d="M236.979,363.278l-13.251-36.365l-23.021,63.17l13.252,36.365
		C203.013,396.409,226.777,335.284,236.979,363.278z"/>
	<path fill="#EDBE72" d="M189.332,363.278l-13.251-36.365l-23.021,63.17l13.252,36.365
		C155.365,396.409,179.131,335.284,189.332,363.278z"/>
	<path fill="#EDBE72" d="M308.447,297.916l-13.251-36.364l-23.021,63.17l13.252,36.364
		C274.481,331.047,298.245,269.922,308.447,297.916z"/>
	<path fill="#EDBE72" d="M260.801,297.916l-13.251-36.364l-23.021,63.17l13.252,36.364
		C226.835,331.047,250.6,269.922,260.801,297.916z"/>
	<path fill="#EDBE72" d="M213.158,297.916l-13.252-36.364l-23.021,63.17l13.252,36.364
		C179.192,331.047,202.957,269.922,213.158,297.916z"/>
	<path fill="#EDBE72" d="M194.291,175.531h-10.679l-6.729,18.467l13.252,36.365C184.485,214.857,188.084,191.07,194.291,175.531z"/>
	<path fill="#EDBE72" d="M289.58,175.531h-10.679l-6.729,18.467l13.252,36.365C279.774,214.857,283.373,191.07,289.58,175.531z"/>
	<path fill="#EDBE72" d="M337.225,175.531h-10.678l-6.729,18.467l13.252,36.365C327.419,214.857,331.018,191.07,337.225,175.531z"/>
	<path fill="#EDBE72" d="M187.685,480.541c-3.262-31.512,16.433-76.71,25.475-51.896l-13.252-36.365l-23.021,63.17l9.145,25.094
		h1.653V480.541z"/>
	<path fill="#EDBE72" d="M235.327,480.541c-3.263-31.512,16.432-76.71,25.474-51.896l-13.251-36.366l-23.021,63.17l9.146,25.093
		H235.327z"/>
	<polygon fill="#89601F" points="279.208,175.531 272.804,175.531 248.107,243.295 223.41,175.531 217.006,175.531 245.152,252.756 
		245.152,480.541 251.062,480.541 251.062,252.758 	"/>
	<path fill="#89601F" d="M351.107,234.487l-8.267,22.682l-23.023-63.171l6.73-18.467h-1.598l-5.932,16.275l-5.932-16.275h-1.599
		l6.73,18.467l-23.024,63.172l-23.023-63.172l6.729-18.467h-1.598l-5.932,16.275l-1.002-2.751l-0.8,2.191l1.002,2.75l-23.021,63.168
		l-23.022-63.168l0.902-2.477l-0.803-2.183l-0.898,2.468l-5.932-16.275h-1.599l6.73,18.467l-23.024,63.172l-23.023-63.172
		l6.729-18.467h-1.598l-5.932,16.275l-5.933-16.275h-1.598l6.729,18.467l-23.022,63.171l-7.154-19.63v4.384l6.355,17.438
		l-6.355,17.438v4.383l7.154-19.631l23.023,63.174l-23.023,63.172l-7.154-19.63v4.381l6.356,17.439l-6.356,17.439v4.381
		l7.154-19.629l23.022,63.17l-9.146,25.093h1.598l8.348-22.9l8.347,22.9h1.598l-9.146-25.093l23.023-63.173l23.023,63.171
		l-9.146,25.095h1.599l8.348-22.902l8.347,22.902h1.599l-9.146-25.095l23.023-63.17l23.022,63.17l-9.146,25.095h1.598l8.348-22.902
		l8.348,22.902h1.598l-9.146-25.095l23.023-63.171l23.023,63.173l-9.146,25.093h1.599l8.347-22.9l8.347,22.9h1.598l-9.146-25.093
		l23.023-63.17l8.267,22.682v-4.384l-7.468-20.489l7.468-20.489v-4.384l-8.267,22.683l-23.024-63.172l23.024-63.174l8.267,22.684
		v-4.383l-7.468-20.49l7.468-20.49v-4.383H351.107z M271.372,196.189l23.023,63.172l-23.021,63.169l-23.024-63.173L271.372,196.189z
		 M223.729,196.189l23.022,63.168l-23.024,63.173l-23.021-63.169L223.729,196.189z M153.06,259.359l23.023-63.17l23.023,63.172
		l-23.022,63.171L153.06,259.359z M176.083,453.258l-23.023-63.171l23.024-63.172l23.022,63.169L176.083,453.258z M176.883,324.723
		l23.022-63.171l23.023,63.169l-23.023,63.171L176.883,324.723z M223.729,453.256l-23.023-63.172l23.022-63.171l23.024,63.172
		L223.729,453.256z M224.526,324.721l23.024-63.174l23.023,63.174l-23.023,63.172L224.526,324.721z M271.373,453.256l-23.023-63.171
		l23.024-63.172l23.022,63.171L271.373,453.256z M272.172,324.721l23.022-63.169l23.023,63.171l-23.022,63.169L272.172,324.721z
		 M342.041,390.087l-23.022,63.171l-23.023-63.174l23.022-63.169L342.041,390.087z M319.018,322.532l-23.022-63.171l23.023-63.172
		l23.022,63.17L319.018,322.532z"/>
	<polygon fill="#EDBE72" points="351.107,238.875 343.643,259.359 351.107,279.844 	"/>
	<polygon fill="#EDBE72" points="351.107,369.594 343.641,390.083 351.107,410.573 	"/>
	<path fill="#EDBE72" d="M351.107,284.237l-8.267-22.688l-23.021,63.171l13.252,36.364c-9.404-25.807,6.813-74.557,18.035-70.029
		L351.107,284.237L351.107,284.237z"/>
	<path fill="#EDBE72" d="M351.107,414.965l-8.267-22.687l-23.021,63.17l9.146,25.093h1.652
		c-2.743-26.503,10.751-62.682,20.489-58.753L351.107,414.965L351.107,414.965z"/>
	<path fill="#EDBE72" d="M152.261,261.552l-7.154,19.632v29.264c5.844-17.232,15.017-27.319,20.405-12.53L152.261,261.552z"/>
	<path fill="#EDBE72" d="M152.261,392.278l-7.154,19.632v29.269c5.841-17.236,15.017-27.325,20.405-12.534L152.261,392.278z"/>
	<path fill="#BCBEC0" d="M249.277,257.398c1.539-0.497,2.66-1.924,2.66-3.627c0-2.115-1.715-3.829-3.83-3.829
		c-2.114,0-3.828,1.714-3.828,3.829c0,1.703,1.119,3.13,2.658,3.627l-4.279,13.253h5.449h5.449L249.277,257.398z"/>
	<path fill="#EDBE72" d="M295.196,392.278l-23.021,63.17l9.145,25.093h1.658c-3.263-31.512,16.427-76.711,25.469-51.896
		L295.196,392.278z"/>
	<rect x="145.106" y="471.168" fill="#89601F" width="206.001" height="9.373"/>
</g>
</svg>
