<?xml version="1.0" encoding="utf-8"?>
<!-- Generator: Adobe Illustrator 14.0.0, SVG Export Plug-In . SVG Version: 6.00 Build 43363)  -->
<!DOCTYPE svg PUBLIC "-//W3C//DTD SVG 1.1//EN" "http://www.w3.org/Graphics/SVG/1.1/DTD/svg11.dtd">
<svg version="1.1" id="content" xmlns="http://www.w3.org/2000/svg" xmlns:xlink="http://www.w3.org/1999/xlink" x="0px" y="0px"
	 width="500px" height="500px" viewBox="0 0 500 500" enable-background="new 0 0 500 500" xml:space="preserve">
<rect id="position" x="0.5" y="0.5" display="none" fill="none" stroke="#000000" width="499" height="499"/>
<g id="body">
	<rect x="212.404" y="175.53" fill="#C6BDA8" width="74.426" height="28.444"/>
	<polygon fill="#806B2F" points="116.694,175.53 116.694,480.517 382.454,480.517 382.454,175.53 262.067,175.53 248.562,191.063 
		235.448,175.53 	"/>
	<rect x="285.25" y="264" fill="#725C2B" width="97.008" height="36.5"/>
	<polygon fill="#625225" points="308.75,300.5 116,300.5 116,264 308.75,264 327.262,282.25 	"/>
	<circle fill="#625225" cx="248.5" cy="216.167" r="7"/>
	<circle fill="#625225" cx="248.5" cy="250" r="7"/>
	<circle fill="#625225" cx="248.5" cy="317.666" r="7"/>
	<circle fill="#625225" cx="248.5" cy="351.499" r="7"/>
	<circle fill="#625225" cx="248.5" cy="385.332" r="7"/>
	<circle fill="#625225" cx="248.5" cy="419.165" r="7"/>
	<circle fill="#625225" cx="248.5" cy="452.998" r="7"/>
	<rect x="295.72" y="216.391" fill="#937837" width="46.362" height="33.608"/>
	<rect x="295.72" y="209.167" fill="#6B5828" width="46.362" height="7.225"/>
	<rect x="156.579" y="216.391" fill="#937837" width="46.362" height="33.608"/>
	<rect x="156.579" y="209.167" fill="#6B5828" width="46.362" height="7.225"/>
	<rect x="273.384" y="259.494" fill="#937837" width="16.233" height="45.995"/>
	<rect x="216.648" y="259.494" fill="#937837" width="16.233" height="45.995"/>
	<rect x="159.912" y="259.494" fill="#937837" width="16.232" height="45.995"/>
</g>
</svg>
