<?xml version="1.0" encoding="utf-8"?>
<!-- Generator: Adobe Illustrator 14.0.0, SVG Export Plug-In . SVG Version: 6.00 Build 43363)  -->
<!DOCTYPE svg PUBLIC "-//W3C//DTD SVG 1.1//EN" "http://www.w3.org/Graphics/SVG/1.1/DTD/svg11.dtd">
<svg version="1.1" id="content" xmlns="http://www.w3.org/2000/svg" xmlns:xlink="http://www.w3.org/1999/xlink" x="0px" y="0px"
	 width="500px" height="500px" viewBox="0 0 500 500" enable-background="new 0 0 500 500" xml:space="preserve">
<rect id="position" x="0.5" y="0.5" display="none" fill="none" stroke="#000000" width="499" height="499"/>
<g id="top">
	<path fill="#D0B97D" d="M358.119,166.722c-2.717,0-5.231,0.755-7.311,2.038c-2.077-1.283-4.594-2.038-7.312-2.038
		c-3.497,0-6.665,1.25-8.987,3.273c-2.32-2.022-5.49-3.273-8.987-3.273s-6.667,1.25-8.987,3.273
		c-2.321-2.022-5.489-3.273-8.987-3.273c-2.718,0-5.233,0.755-7.312,2.038c-2.078-1.283-4.594-2.038-7.311-2.038
		c-7.116,0-12.887,5.158-12.887,11.524s5.771,11.525,12.887,11.525c2.717,0,5.231-0.755,7.311-2.039
		c2.077,1.283,4.594,2.039,7.312,2.039c3.498,0,6.666-1.251,8.987-3.274c2.32,2.023,5.49,3.274,8.987,3.274s6.667-1.251,8.987-3.274
		c2.321,2.023,5.49,3.274,8.987,3.274c2.718,0,5.233-0.755,7.312-2.039c2.078,1.283,4.594,2.039,7.311,2.039
		c7.116,0,12.888-5.16,12.888-11.525S365.236,166.722,358.119,166.722z"/>
	<path fill="#BDA871" d="M358.119,166.722c-2.717,0-5.231,0.755-7.311,2.038c-2.077-1.283-4.594-2.038-7.312-2.038
		c-3.497,0-6.665,1.25-8.987,3.273c-2.313-2.016-5.469-3.263-8.95-3.271v-0.001c-0.006,0-0.013,0.001-0.02,0.001
		c-0.006,0-0.013-0.001-0.019-0.001v0.001c-3.482,0.009-6.639,1.256-8.95,3.271c-2.322-2.022-5.49-3.273-8.988-3.273
		c-2.717,0-5.232,0.755-7.311,2.038c-2.078-1.283-4.594-2.038-7.311-2.038c-7.116,0-12.888,5.158-12.888,11.524
		c0,0.438,0.033,0.87,0.086,1.295c0.044-0.026,8.8-7.374,18.719-1.114c5.729-4.053,13.717-3.823,16.908-0.181
		c3.174-2.44,6.674-3.351,9.752-3.335c3.079-0.016,6.578,0.896,9.752,3.335c3.192-3.643,11.18-3.872,16.909,0.181
		c9.919-6.26,18.675,1.088,18.718,1.114c0.054-0.426,0.086-0.856,0.086-1.295C371.007,171.881,365.236,166.722,358.119,166.722z"/>
	<path fill="#D0B97D" d="M140.542,166.722c2.717,0,5.231,0.755,7.311,2.038c2.077-1.283,4.594-2.038,7.312-2.038
		c3.498,0,6.666,1.25,8.987,3.273c2.32-2.022,5.49-3.273,8.987-3.273s6.667,1.25,8.987,3.273c2.321-2.022,5.49-3.273,8.987-3.273
		c2.718,0,5.233,0.755,7.312,2.038c2.078-1.283,4.594-2.038,7.311-2.038c7.116,0,12.888,5.158,12.888,11.524
		s-5.771,11.525-12.888,11.525c-2.717,0-5.231-0.755-7.311-2.039c-2.077,1.283-4.594,2.039-7.312,2.039
		c-3.497,0-6.666-1.251-8.987-3.274c-2.32,2.023-5.49,3.274-8.987,3.274s-6.667-1.251-8.987-3.274
		c-2.321,2.023-5.489,3.274-8.987,3.274c-2.718,0-5.233-0.755-7.312-2.039c-2.078,1.283-4.594,2.039-7.311,2.039
		c-7.116,0-12.888-5.16-12.888-11.525S133.426,166.722,140.542,166.722z"/>
	<path fill="#BDA871" d="M140.542,166.722c2.717,0,5.231,0.755,7.311,2.038c2.077-1.283,4.594-2.038,7.312-2.038
		c3.498,0,6.666,1.25,8.987,3.273c2.313-2.016,5.469-3.263,8.95-3.271v-0.001c0.006,0,0.013,0.001,0.02,0.001
		c0.006,0,0.013-0.001,0.019-0.001v0.001c3.482,0.009,6.639,1.256,8.95,3.271c2.322-2.022,5.49-3.273,8.988-3.273
		c2.717,0,5.232,0.755,7.311,2.038c2.078-1.283,4.594-2.038,7.312-2.038c7.115,0,12.887,5.158,12.887,11.524
		c0,0.438-0.033,0.87-0.086,1.295c-0.043-0.026-8.799-7.374-18.718-1.114c-5.73-4.053-13.718-3.823-16.909-0.181
		c-3.174-2.44-6.673-3.351-9.752-3.335c-3.079-0.016-6.578,0.896-9.752,3.335c-3.192-3.643-11.18-3.872-16.909,0.181
		c-9.919-6.26-18.675,1.088-18.718,1.114c-0.054-0.426-0.086-0.856-0.086-1.295C127.655,171.881,133.426,166.722,140.542,166.722z"
		/>
</g>
</svg>
