<?xml version="1.0" encoding="utf-8"?>
<!-- Generator: Adobe Illustrator 14.0.0, SVG Export Plug-In . SVG Version: 6.00 Build 43363)  -->
<!DOCTYPE svg PUBLIC "-//W3C//DTD SVG 1.1//EN" "http://www.w3.org/Graphics/SVG/1.1/DTD/svg11.dtd">
<svg version="1.1" id="content" xmlns="http://www.w3.org/2000/svg" xmlns:xlink="http://www.w3.org/1999/xlink" x="0px" y="0px"
	 width="500px" height="500px" viewBox="0 0 500 500" enable-background="new 0 0 500 500" xml:space="preserve">
<rect id="position" x="0.5" y="0.5" display="none" fill="none" stroke="#000000" width="499" height="499"/>
<g id="body">
	<rect x="202.335" y="173.51" fill="#846414" width="95.435" height="61.047"/>
	<path fill="#6C520F" d="M286.834,186.643c0,1.485-1.204,2.689-2.69,2.689h-74.501c-1.486,0-2.689-1.205-2.689-2.689l0,0
		c0-1.486,1.205-2.69,2.689-2.69h74.501C285.63,183.952,286.834,185.157,286.834,186.643L286.834,186.643z"/>
	<path fill="#9B7516" d="M297.77,180.952c0,1.657-1.343,3-3,3h-87.817c-1.657,0-3-1.343-3-3v-7.442c-0.26,0,1.343,0,3,0h87.817
		c1.657,0,3.145,0,3,0V180.952z"/>
	<polygon fill="#797467" points="292.389,173.51 249.331,209.669 249.331,209.669 206.727,173.51 116.405,173.51 116.405,481.015 
		382.258,481.015 382.258,173.51 	"/>
	<polygon fill="#8B8575" points="249.331,209.669 209.971,173.51 176.067,173.51 249.331,232.434 	"/>
	<path fill="#6C6B59" d="M327.698,178.349c-1.531,0-4.042,0-5.574,0h-4.767c-1.532,0-2.787,1.254-2.787,2.787v43.118
		c0,1.533,0.888,3.675,1.972,4.759l6.398,6.398c1.083,1.084,2.857,1.084,3.941,0l6.398-6.398c1.083-1.084,1.971-3.226,1.971-4.759
		v-43.118c0-1.533-1.255-2.787-2.787-2.787H327.698z"/>
	<path fill="#8B8575" d="M327.698,173.51c-1.531,0-4.042,0-5.574,0h-4.767c-1.532,0-2.787,1.031-2.787,2.564v43.119
		c0,1.533,0.888,3.674,1.972,4.758l6.398,6.399c1.083,1.084,2.857,1.084,3.941,0l6.398-6.399c1.083-1.084,1.971-3.225,1.971-4.758
		v-43.119c0-1.533-1.255-2.564-2.787-2.564H327.698z"/>
	<circle fill="#635F53" cx="324.91" cy="218.233" r="4.26"/>
	<path fill="#6C6B59" d="M170.965,178.349c1.532,0,4.042,0,5.574,0h4.767c1.532,0,2.787,1.254,2.787,2.787v43.118
		c0,1.533-0.888,3.675-1.971,4.759l-6.399,6.398c-1.083,1.084-2.856,1.084-3.941,0l-6.398-6.398c-1.083-1.084-1.97-3.226-1.97-4.759
		v-43.118c0-1.533,1.254-2.787,2.787-2.787H170.965z"/>
	<path fill="#8B8575" d="M170.965,173.51c1.532,0,4.042,0,5.574,0h4.767c1.532,0,2.787,1.031,2.787,2.564v43.119
		c0,1.533-0.888,3.674-1.971,4.758l-6.399,6.399c-1.083,1.084-2.856,1.084-3.941,0l-6.398-6.399c-1.083-1.084-1.97-3.225-1.97-4.758
		v-43.119c0-1.533,1.254-2.564,2.787-2.564H170.965z"/>
	<circle fill="#635F53" cx="173.752" cy="218.233" r="4.259"/>
	<polygon opacity="0.5" fill="#49463F" enable-background="new    " points="245.327,205.962 226.271,225.74 226.271,480.834 
		249.035,480.834 249.331,209.669 	"/>
	<path fill="#8B8575" d="M314.038,173.51c0.855-0.69,0.655,0-0.443,0H290.69c-1.1,0-2.501,0-3.468,0l-36.424,34.802
		c-0.807,0.748-2.104,1.995-2.882,2.772L233.98,226.02c-0.777,0.777-1.414,2.313-1.414,3.414v249.399c0,1.101,0.9,2,2,2h12.765
		c1.1,0,2-0.899,2-2V234.435c0-1.101,0.699-2.565,1.555-3.257L314.038,173.51z"/>
	<circle fill="#635F53" cx="240.5" cy="244.5" r="4.267"/>
	<circle fill="#635F53" cx="240.5" cy="299.602" r="4.267"/>
	<circle fill="#635F53" cx="240.5" cy="354.703" r="4.267"/>
	<circle fill="#635F53" cx="240.5" cy="409.804" r="4.267"/>
	<circle fill="#635F53" cx="240.5" cy="464.906" r="4.267"/>
	<path fill="#8B8575" d="M170.009,327.686c0,1.656,1.343,3,3,3h22.313c1.657,0,3-1.344,3-3v-51.722c0-1.656-1.343-3-3-3h-22.313
		c-1.657,0-3,1.344-3,3V327.686z"/>
	<path fill="#6C6B59" d="M168.009,327.686v-51.722c0-2.758,2.243-5,5-5h22.313c2.758,0,5,2.242,5,5v51.722c0,2.756-2.242,5-5,5
		h-22.313C170.252,332.686,168.009,330.441,168.009,327.686z M173.009,274.965c-0.552,0-1,0.448-1,1v51.722c0,0.551,0.448,1,1,1
		h22.313c0.553,0,1-0.449,1-1v-51.722c0-0.552-0.447-1-1-1H173.009z"/>
	<path fill="#8B8575" d="M327.997,327.686c0,1.656-1.343,3-3,3h-22.313c-1.657,0-3-1.344-3-3v-51.722c0-1.656,1.343-3,3-3h22.313
		c1.657,0,3,1.344,3,3V327.686z"/>
	<path fill="#6C6B59" d="M324.997,332.686h-22.313c-2.757,0-5-2.244-5-5v-51.722c0-2.758,2.243-5,5-5h22.313c2.758,0,5,2.242,5,5
		v51.722C329.997,330.441,327.755,332.686,324.997,332.686z M302.686,274.965c-0.552,0-1,0.448-1,1v51.722c0,0.551,0.448,1,1,1
		h22.313c0.553,0,1-0.449,1-1v-51.722c0-0.552-0.447-1-1-1H302.686z"/>
</g>
</svg>
