<?xml version="1.0" encoding="utf-8"?>
<!-- Generator: Adobe Illustrator 14.0.0, SVG Export Plug-In . SVG Version: 6.00 Build 43363)  -->
<!DOCTYPE svg PUBLIC "-//W3C//DTD SVG 1.1//EN" "http://www.w3.org/Graphics/SVG/1.1/DTD/svg11.dtd">
<svg version="1.1" id="content" xmlns="http://www.w3.org/2000/svg" xmlns:xlink="http://www.w3.org/1999/xlink" x="0px" y="0px"
	 width="500px" height="500px" viewBox="0 0 500 500" enable-background="new 0 0 500 500" xml:space="preserve">
<g id="bounds">
	<g id="bounds_1_">
		<g id="bounds_2_">
			<rect x="0.177" y="80.049" fill="none" stroke="#EAEAEA" stroke-miterlimit="10" width="499.5" height="499.5"/>
		</g>
	</g>
</g>
<rect id="position" x="0.5" y="0.5" display="none" fill="none" stroke="#000000" width="499" height="499"/>
<g id="chooser">
	<rect x="203.322" y="176.132" fill="#606060" width="95.938" height="69.025"/>
	<polygon opacity="0.8" fill="#333333" enable-background="new    " points="204.673,176.132 249.883,237.283 253.827,234.659 
		213.611,176.132 	"/>
	<polygon fill="#282828" points="373.957,190.486 355.285,176.132 352.588,176.132 352.588,176.132 300.218,176.132 
		248.797,238.614 203.684,176.132 147.497,176.132 147.497,176.132 144.571,176.132 125.899,190.486 70.212,261.486 70.212,442.464 
		131.468,442.464 131.468,279.584 147.497,274.238 147.497,483.467 352.588,483.467 352.588,274.314 368.387,279.584 
		368.387,442.464 429.643,442.464 429.643,261.486 	"/>
	<polygon fill="#191919" points="236.826,378.389 232.431,255.808 233.635,251.428 237.073,252.186 	"/>
	<polygon fill="#191919" points="179.801,208.453 178.823,218.719 211.587,205.474 210.975,197.406 	"/>
	<polygon fill="#191919" points="241.431,245.57 202.173,232.736 206.33,225.156 244.274,241.051 	"/>
	<polygon fill="#404040" points="256.397,245.516 193.725,225.156 207.823,202.859 175.316,212.355 172.287,176.132 
		204.673,176.132 	"/>
	<polygon opacity="0.8" fill="#333333" enable-background="new    " points="243.406,241.399 301.218,176.132 295.594,176.132 
		238.979,239.775 	"/>
	<polygon fill="#191919" points="232.431,255.808 298.72,233.346 294.616,222.751 235.695,249.531 233.431,252.186 	"/>
	<polygon fill="#191919" points="290.84,205.709 323.531,214.513 322.762,204.96 289.907,199.395 	"/>
	<polygon fill="#404040" points="233.431,252.186 302.261,228.321 292.787,202.859 327.295,209.355 328.323,176.132 
		298.657,176.132 	"/>
	<circle fill="#404040" cx="262.655" cy="277.69" r="7.062"/>
	<path fill="#333333" d="M262.655,272.23c-3.016,0-5.458,2.444-5.458,5.459c0,3.014,2.442,5.457,5.458,5.457
		c3.015,0,5.458-2.443,5.458-5.457S265.669,272.23,262.655,272.23z M261.053,279.302c-0.402,0-0.729-0.327-0.729-0.73
		c0-0.402,0.327-0.729,0.729-0.729c0.403,0,0.73,0.327,0.73,0.729C261.783,278.975,261.457,279.302,261.053,279.302z
		 M263.863,277.195c-0.403,0-0.73-0.327-0.73-0.729c0-0.403,0.327-0.73,0.73-0.73c0.402,0,0.729,0.327,0.729,0.73
		C264.592,276.868,264.265,277.195,263.863,277.195z"/>
	<circle fill="#404040" cx="301.218" cy="277.69" r="7.062"/>
	<path fill="#333333" d="M305.578,274.405c-1.813-2.407-5.236-2.89-7.645-1.076c-2.407,1.814-2.89,5.236-1.075,7.645
		c1.813,2.408,5.234,2.89,7.644,1.076C306.909,280.235,307.391,276.813,305.578,274.405z M298.967,277.382
		c-0.242-0.322-0.178-0.78,0.145-1.023c0.322-0.242,0.78-0.178,1.022,0.146c0.243,0.321,0.179,0.779-0.145,1.022
		C299.668,277.767,299.21,277.703,298.967,277.382z M302.339,278.357c-0.242-0.322-0.178-0.781,0.145-1.023
		c0.323-0.241,0.78-0.178,1.022,0.146c0.243,0.322,0.179,0.779-0.145,1.021C303.039,278.744,302.582,278.68,302.339,278.357z"/>
	<circle fill="#404040" cx="262.655" cy="312.071" r="7.062"/>
	<path fill="#333333" d="M262.655,306.611c-3.016,0-5.458,2.444-5.458,5.459s2.442,5.457,5.458,5.457
		c3.015,0,5.458-2.442,5.458-5.457S265.669,306.611,262.655,306.611z M261.053,313.682c-0.402,0-0.729-0.327-0.729-0.73
		c0-0.402,0.327-0.729,0.729-0.729c0.403,0,0.73,0.327,0.73,0.729C261.783,313.355,261.457,313.682,261.053,313.682z
		 M263.863,311.576c-0.403,0-0.73-0.327-0.73-0.729c0-0.403,0.327-0.73,0.73-0.73c0.402,0,0.729,0.327,0.729,0.73
		C264.592,311.249,264.265,311.576,263.863,311.576z"/>
	<circle fill="#404040" cx="85.692" cy="385.45" r="7.062"/>
	<path fill="#333333" d="M85.692,379.991c-3.016,0-5.458,2.444-5.458,5.459s2.442,5.457,5.458,5.457
		c3.015,0,5.458-2.442,5.458-5.457S88.706,379.991,85.692,379.991z M84.091,387.062c-0.403,0-0.729-0.327-0.729-0.73
		c0-0.402,0.326-0.729,0.729-0.729s0.73,0.327,0.73,0.729C84.822,386.735,84.494,387.062,84.091,387.062z M86.9,384.956
		c-0.403,0-0.73-0.326-0.73-0.729s0.327-0.73,0.73-0.73c0.402,0,0.729,0.327,0.729,0.73S87.302,384.956,86.9,384.956z"/>
	<circle fill="#404040" cx="85.692" cy="419.831" r="7.062"/>
	<path fill="#333333" d="M85.692,414.372c-3.016,0-5.458,2.444-5.458,5.459s2.442,5.458,5.458,5.458
		c3.015,0,5.458-2.443,5.458-5.458S88.706,414.372,85.692,414.372z M84.091,421.443c-0.403,0-0.729-0.327-0.729-0.729
		c0-0.403,0.326-0.73,0.729-0.73s0.73,0.327,0.73,0.73C84.822,421.116,84.494,421.443,84.091,421.443z M86.9,419.338
		c-0.403,0-0.73-0.327-0.73-0.73s0.327-0.73,0.73-0.73c0.402,0,0.729,0.327,0.729,0.73S87.302,419.338,86.9,419.338z"/>
	<circle fill="#404040" cx="409.314" cy="385.45" r="7.062"/>
	<path fill="#333333" d="M409.314,379.991c-3.015,0-5.458,2.444-5.458,5.459s2.443,5.457,5.458,5.457
		c3.016,0,5.458-2.442,5.458-5.457S412.329,379.991,409.314,379.991z M407.714,387.062c-0.403,0-0.73-0.327-0.73-0.73
		c0-0.402,0.327-0.729,0.73-0.729s0.729,0.327,0.729,0.729C408.444,386.735,408.117,387.062,407.714,387.062z M410.522,384.956
		c-0.402,0-0.729-0.326-0.729-0.729s0.327-0.73,0.729-0.73c0.403,0,0.73,0.327,0.73,0.73S410.926,384.956,410.522,384.956z"/>
	<circle fill="#404040" cx="409.314" cy="419.831" r="7.062"/>
	<path fill="#333333" d="M409.314,414.372c-3.015,0-5.458,2.444-5.458,5.459s2.443,5.458,5.458,5.458
		c3.016,0,5.458-2.443,5.458-5.458S412.329,414.372,409.314,414.372z M407.714,421.443c-0.403,0-0.73-0.327-0.73-0.729
		c0-0.403,0.327-0.73,0.73-0.73s0.729,0.327,0.729,0.73C408.444,421.116,408.117,421.443,407.714,421.443z M410.522,419.338
		c-0.402,0-0.729-0.327-0.729-0.73s0.327-0.73,0.729-0.73c0.403,0,0.73,0.327,0.73,0.73S410.926,419.338,410.522,419.338z"/>
	<circle fill="#404040" cx="301.218" cy="312.071" r="7.062"/>
	<path fill="#333333" d="M305.578,308.786c-1.813-2.406-5.236-2.89-7.645-1.075c-2.407,1.813-2.89,5.235-1.075,7.644
		c1.813,2.408,5.234,2.89,7.644,1.076C306.909,314.616,307.391,311.194,305.578,308.786z M298.967,311.762
		c-0.242-0.322-0.178-0.78,0.145-1.023c0.322-0.242,0.78-0.178,1.022,0.146c0.243,0.321,0.179,0.779-0.145,1.022
		C299.668,312.148,299.21,312.084,298.967,311.762z M302.339,312.738c-0.242-0.322-0.178-0.781,0.145-1.022
		c0.323-0.242,0.78-0.179,1.022,0.145c0.243,0.322,0.179,0.779-0.145,1.022C303.039,313.125,302.582,313.06,302.339,312.738z"/>
	<circle fill="#404040" cx="262.655" cy="346.451" r="7.062"/>
	<path fill="#333333" d="M262.655,340.992c-3.016,0-5.458,2.444-5.458,5.459s2.442,5.457,5.458,5.457
		c3.015,0,5.458-2.442,5.458-5.457S265.669,340.992,262.655,340.992z M261.053,348.063c-0.402,0-0.729-0.327-0.729-0.73
		c0-0.402,0.327-0.729,0.729-0.729c0.403,0,0.73,0.327,0.73,0.729C261.783,347.736,261.457,348.063,261.053,348.063z
		 M263.863,345.957c-0.403,0-0.73-0.326-0.73-0.729s0.327-0.73,0.73-0.73c0.402,0,0.729,0.327,0.729,0.73
		S264.265,345.957,263.863,345.957z"/>
	<circle fill="#404040" cx="301.218" cy="346.451" r="7.062"/>
	<path fill="#333333" d="M305.578,343.167c-1.813-2.406-5.236-2.89-7.645-1.075c-2.407,1.813-2.89,5.235-1.075,7.644
		c1.813,2.408,5.234,2.891,7.644,1.076C306.909,348.997,307.391,345.575,305.578,343.167z M298.967,346.142
		c-0.242-0.322-0.178-0.78,0.145-1.023c0.322-0.241,0.78-0.178,1.022,0.146c0.243,0.322,0.179,0.78-0.145,1.022
		C299.668,346.529,299.21,346.466,298.967,346.142z M302.339,347.119c-0.242-0.321-0.178-0.78,0.145-1.022
		c0.323-0.242,0.78-0.179,1.022,0.145c0.243,0.322,0.179,0.779-0.145,1.022C303.039,347.507,302.582,347.441,302.339,347.119z"/>
</g>
</svg>
