<?xml version="1.0" encoding="utf-8"?>
<!-- Generator: Adobe Illustrator 14.0.0, SVG Export Plug-In . SVG Version: 6.00 Build 43363)  -->
<!DOCTYPE svg PUBLIC "-//W3C//DTD SVG 1.1//EN" "http://www.w3.org/Graphics/SVG/1.1/DTD/svg11.dtd">
<svg version="1.1" id="content" xmlns="http://www.w3.org/2000/svg" xmlns:xlink="http://www.w3.org/1999/xlink" x="0px" y="0px"
	 width="500px" height="500px" viewBox="0 0 500 500" enable-background="new 0 0 500 500" xml:space="preserve">
<rect id="position" x="0.5" y="0.5" display="none" fill="none" stroke="#000000" width="499" height="499"/>
<g id="body">
	<rect x="116.631" y="175.366" fill="#231F20" width="265.852" height="305.008"/>
	<rect x="116.631" y="350.502" fill="#58595B" width="265.852" height="3.349"/>
	<polygon fill="#58595B" points="234.747,350.127 186.154,175.366 182.831,175.366 231.422,350.127 231.422,480.375 
		234.854,480.375 234.854,350.127 	"/>
	<polygon fill="#333132" points="213.329,260.877 279.311,246.877 271.311,218.121 319.811,207.377 310.855,175.366 
		287.803,175.366 	"/>
	<polygon fill="#333132" points="249.936,216.239 245.025,221.734 182.329,207.377 190.188,175.366 214.337,175.366 	"/>
	<circle fill="#D1D3D4" cx="310.098" cy="201.627" r="4.259"/>
	<circle fill="#D1D3D4" cx="269.098" cy="240.627" r="4.259"/>
	<circle fill="#BCBEC0" cx="193.523" cy="200.544" r="4.259"/>
	<path fill="#58595B" d="M336.814,221.384c-0.193-0.806-1.002-1.303-1.809-1.108l-40.626,9.77c-0.808,0.194-1.303,1.004-1.106,1.81
		c0.164,0.688,0.779,1.149,1.457,1.149c0.115,0,0.231-0.014,0.353-0.042l40.625-9.77
		C336.512,222.998,337.008,222.187,336.814,221.384z"/>
	<path fill="#58595B" d="M204.721,321.29c0-0.828-0.672-1.499-1.502-1.497l-41.783,0.069c-0.83,0.002-1.5,0.673-1.498,1.502
		c0.002,0.708,0.492,1.3,1.15,1.457c0.113,0.026,0.229,0.04,0.352,0.04l41.785-0.069C204.053,322.79,204.723,322.119,204.721,321.29
		z"/>
	<path fill="#58595B" d="M342.2,321.29c0-0.828-0.672-1.499-1.502-1.497l-41.782,0.069c-0.828,0.002-1.498,0.673-1.496,1.502
		c0,0.708,0.49,1.3,1.149,1.457c0.111,0.026,0.229,0.04,0.353,0.04l41.782-0.069C341.532,322.79,342.202,322.119,342.2,321.29z"/>
	<circle fill="#D3D3D3" cx="210.17" cy="266.241" r="3.829"/>
	<polygon fill="#D3D3D3" points="210.17,266.246 210.17,266.242 210.169,266.243 210.169,266.242 210.169,266.246 204.721,283.122 
		210.169,283.122 215.619,283.122 	"/>
	<circle fill="#D3D3D3" cx="295.417" cy="231.599" r="3.829"/>
	<polygon fill="#D3D3D3" points="295.417,231.603 295.417,231.599 295.416,231.6 295.416,231.599 295.416,231.603 289.967,248.479 
		295.416,248.479 300.865,248.479 	"/>
	<circle fill="#D3D3D3" cx="299.246" cy="321.345" r="3.829"/>
	<polygon fill="#D3D3D3" points="299.246,321.349 299.246,321.345 299.245,321.346 299.245,321.345 299.245,321.349 
		293.797,338.225 299.245,338.225 304.696,338.225 	"/>
	<circle fill="#D3D3D3" cx="203.232" cy="321.345" r="3.829"/>
	<polygon fill="#D3D3D3" points="203.232,321.349 203.232,321.345 203.231,321.346 203.231,321.345 203.231,321.349 
		197.781,338.225 203.231,338.225 208.682,338.225 	"/>
</g>
</svg>
