<?xml version="1.0" encoding="utf-8"?>
<!-- Generator: Adobe Illustrator 14.0.0, SVG Export Plug-In . SVG Version: 6.00 Build 43363)  -->
<!DOCTYPE svg PUBLIC "-//W3C//DTD SVG 1.1//EN" "http://www.w3.org/Graphics/SVG/1.1/DTD/svg11.dtd">
<svg version="1.1" id="content" xmlns="http://www.w3.org/2000/svg" xmlns:xlink="http://www.w3.org/1999/xlink" x="0px" y="0px"
	 width="500px" height="500px" viewBox="0 0 500 500" enable-background="new 0 0 500 500" xml:space="preserve">
<rect id="position" x="0.5" y="0.5" display="none" fill="none" stroke="#000000" width="499" height="499"/>
<g id="body">
	<rect id="shirt_6_" x="116.631" y="176.255" fill="#231F20" width="265.852" height="304.12"/>
	<rect id="shirt_3_" x="207.164" y="176.255" fill="#414142" width="3.461" height="304.12"/>
	<path fill="#414142" d="M279.977,307.461V291.67v-1.501h57.668v17.292l-28.836,8.439L279.977,307.461L279.977,307.461z"/>
	<path fill="#231F20" d="M308.811,300.755c2.902,0,5.25,2.354,5.25,5.25c0,2.9-2.348,5.25-5.25,5.25c-2.898,0-5.25-2.35-5.25-5.25
		C303.561,303.106,305.911,300.755,308.811,300.755z"/>
	<path fill="#414142" d="M245.198,220.723c-4.668-8.034-11.713-11.688-18.891-11.655c-4.583,0.002-9.193,1.425-13.406,3.892
		c-9.326,5.382-11.711,12.772-11.639,19.021c0,0.361,0.008,0.722,0.021,1.077c-3-1.785-6.688-3.294-11.108-3.294
		c-3.654-0.007-7.737,1.046-12.187,3.656c-8.031,4.691-12.37,12.286-12.365,19.922c0,3.537,0.93,7.068,2.813,10.279
		c5.18,8.742,16.699,15.759,29.702,21.339c13.015,5.554,27.553,9.537,38.815,11.603l1.502,0.272l0.444-1.461
		c4.771-15.688,9.793-38.843,9.806-56.163C248.688,231.657,247.791,225.199,245.198,220.723z"/>
	<path fill="#DE1F2A" d="M203.301,236.613c-0.881-6.839-0.706-15.504,10.467-22.051c10.24-6.002,22.674-5.273,29.955,7.147
		c7.662,13.075,0.344,50.961-6.462,73.286c-22.272-4.075-57.817-15.854-67.348-32.121c-5.46-9.313-2.139-21.361,8.939-27.854
		c10.894-6.384,18.629-2.573,23.974,1.213L203.301,236.613z"/>
	<path fill="#414142" d="M198.107,176.255c13.057,8.063,31.275,12.108,51.447,12.119c20.17-0.012,38.389-4.054,51.443-12.119
		H198.107z"/>
	<circle fill="#D3D3D3" cx="208.895" cy="189.844" r="3.829"/>
	<polygon fill="#D3D3D3" points="208.895,189.847 208.895,189.844 208.894,189.845 208.894,189.844 208.894,189.847 
		203.445,206.724 208.894,206.724 214.344,206.724 	"/>
</g>
</svg>
