<?xml version="1.0" encoding="utf-8"?>
<!-- Generator: Adobe Illustrator 14.0.0, SVG Export Plug-In . SVG Version: 6.00 Build 43363)  -->
<!DOCTYPE svg PUBLIC "-//W3C//DTD SVG 1.1//EN" "http://www.w3.org/Graphics/SVG/1.1/DTD/svg11.dtd">
<svg version="1.1" id="content" xmlns="http://www.w3.org/2000/svg" xmlns:xlink="http://www.w3.org/1999/xlink" x="0px" y="0px"
	 width="500px" height="500px" viewBox="0 0 500 500" enable-background="new 0 0 500 500" xml:space="preserve">
<g id="bounds" display="none">
	
		<rect x="-0.208" y="80.365" display="inline" fill="none" stroke="#EAEAEA" stroke-miterlimit="10" width="499.499" height="499.5"/>
</g>
<rect id="position" x="0.5" y="0.5" display="none" fill="none" stroke="#000000" width="499" height="499"/>
<g id="chooser">
	<polygon fill="#414142" points="130.652,385.166 130.652,280.344 148.834,274.945 148.834,177.266 143.755,177.266 
		125.083,191.244 69.396,262.244 69.396,385.166 	"/>
	<rect x="69.396" y="401.833" fill="#231F20" width="61.256" height="41.391"/>
	<polygon fill="#414142" points="369.016,385.166 430.271,385.166 430.271,262.244 374.584,191.244 355.911,177.266 
		350.834,177.266 350.834,274.945 369.016,280.344 	"/>
	<rect x="369.016" y="401.833" fill="#231F20" width="61.256" height="41.391"/>
	<polygon id="shirt_8_" fill="#231F20" points="352.834,482.427 146.834,482.375 146.834,177.266 352.834,177.266 	"/>
	<circle fill="#414042" cx="100.173" cy="427" r="6.23"/>
	<circle fill="#414042" cx="82.846" cy="427" r="6.23"/>
	<circle fill="#414042" cx="117.5" cy="427" r="6.23"/>
	<circle fill="#414042" cx="399.645" cy="427" r="6.23"/>
	<circle fill="#414042" cx="382.316" cy="427" r="6.23"/>
	<circle fill="#414042" cx="416.971" cy="427" r="6.23"/>
	<rect id="shirt_7_" x="207.441" y="177.266" fill="#414142" width="3.461" height="305.162"/>
	<path fill="#414142" d="M280.254,308.707v-15.791v-1.502h57.668v17.293l-28.836,8.439L280.254,308.707L280.254,308.707z"/>
	<path fill="#231F20" d="M309.088,302c2.901,0,5.25,2.354,5.25,5.25c0,2.9-2.349,5.25-5.25,5.25c-2.898,0-5.25-2.35-5.25-5.25
		C303.838,304.351,306.189,302,309.088,302z"/>
	<path fill="#414142" d="M245.477,221.969c-4.668-8.034-11.713-11.688-18.891-11.655c-4.583,0.002-9.193,1.425-13.406,3.892
		c-9.327,5.381-11.711,12.772-11.639,19.021c0,0.36,0.008,0.722,0.02,1.077c-3-1.785-6.688-3.295-11.107-3.295
		c-3.654-0.006-7.737,1.047-12.187,3.657c-8.032,4.692-12.371,12.286-12.366,19.923c0,3.537,0.931,7.068,2.813,10.279
		c5.18,8.742,16.699,15.758,29.702,21.338c13.015,5.555,27.553,9.537,38.814,11.604l1.502,0.271l0.445-1.461
		c4.77-15.688,9.793-38.842,9.805-56.163C248.965,232.902,248.068,226.444,245.477,221.969z"/>
	<path fill="#DE1F2A" d="M203.578,237.859c-0.882-6.839-0.706-15.504,10.467-22.051c10.24-6.002,22.674-5.273,29.955,7.147
		c7.662,13.075,0.344,50.961-6.462,73.287c-22.272-4.076-57.817-15.854-67.349-32.121c-5.46-9.314-2.138-21.362,8.94-27.855
		c10.893-6.386,18.629-2.573,23.973,1.212L203.578,237.859z"/>
	<path fill="#414142" d="M198.384,177.266c13.056,8.063,31.275,12.342,51.448,12.353c20.17-0.012,38.389-4.29,51.442-12.353H198.384
		z"/>
	<circle fill="#D3D3D3" cx="209.172" cy="191.089" r="3.829"/>
	<polygon fill="#D3D3D3" points="209.172,191.094 209.172,191.09 209.171,191.092 209.171,191.09 209.171,191.094 203.722,207.969 
		209.171,207.969 214.621,207.969 	"/>
</g>
</svg>
