<?xml version="1.0" encoding="utf-8"?>
<!-- Generator: Adobe Illustrator 14.0.0, SVG Export Plug-In . SVG Version: 6.00 Build 43363)  -->
<!DOCTYPE svg PUBLIC "-//W3C//DTD SVG 1.1//EN" "http://www.w3.org/Graphics/SVG/1.1/DTD/svg11.dtd">
<svg version="1.1" id="content" xmlns="http://www.w3.org/2000/svg" xmlns:xlink="http://www.w3.org/1999/xlink" x="0px" y="0px"
	 width="500px" height="500px" viewBox="0 0 500 500" enable-background="new 0 0 500 500" xml:space="preserve">
<g id="bounds" display="none">
	<rect x="0.179" y="80.121" fill="none" stroke="#EAEAEA" stroke-miterlimit="10" width="499.5" height="499.5"/>
</g>
<rect id="position" x="0.5" y="0.5" display="none" fill="none" stroke="#000000" width="499" height="499"/>
<g id="chooser">
	<polygon fill="#43533A" points="352.445,273.613 368.628,279.01 368.628,441.889 429.884,441.889 429.884,260.912 374.197,189.912 
		355.525,176.24 352.445,176.24 	"/>
	<path fill="#635C42" d="M429.567,263.93h-29.806c-5.598,4.45-8.088,14.688-6.271,22.877c1.847,8.313,9.292,9.842,11.67,17.362
		c2.313,7.318-4.358,14.631-6.474,20.648c-3.591,10.229,1.758,14.078,8.038,18.375c9.559,6.539,5.837,15.146,8.062,26.529
		c1.149,5.895,5.615,13.034,9.82,17.508c-13.688,14.879-43.994-8.397-55.98,7.578v27.631c4.945-5.399,10.28-11.393,17.049-6.992
		c2.093,1.359,4.002,3.729,5.241,6.289c1.126,2.328,1.243,4.453,3.576,5.568c4.126,1.974,8.521-2.351,12.728-1.774
		c5.184,0.705,7.897,6.574,11.616,10.483c1.592,1.672,2.84,3.722,3.99,5.874h6.844v-64.692c-0.032,0.125-0.07,0.238-0.104,0.361
		L429.567,263.93L429.567,263.93z"/>
	<path fill="#635C42" d="M368.63,365.102c0.751,0.957,1.814,0.241,2.822-0.312c2.843-1.557,8.735-3.494,10.584,1.046
		c1.057,2.598,1.271,5.346,2.949,7.573c2.206,2.933,5.449,4.771,8.603,5.063c3.438,0.316,17.968-6.541,13.339-13.064
		c-1.395-1.961-3.499-2.416-4.841-4.479c-1.463-2.25-1.334-3.645-1.071-6.397c0.568-5.98,4.6-12.795,2.824-18.853
		c-2.236-7.645-10-9.651-14.789-13.538c-2.477-2.009-4.12-5.449-5.674-8.578c-1.273-2.564-1.908-5.601-3.317-8.054
		c-2.688-4.675-7.041-6.717-11.431-6.741v66.334H368.63L368.63,365.102z"/>
	<path fill="#929563" d="M429.884,348.568c-2.422,0.84-4.563,2.485-6.075,5.692c-3.644,7.726-2.774,13.741-11.672,14.485
		c-3.094,0.259-6.548-0.703-9.563,0.11c-0.792,0.215-2.952,0.963-3.559,1.892c-1.646,2.522-0.504,1.819,0.01,4.399
		c0.332,1.681,2.139,1.506,1.552,4.123c-0.297,1.325-2.572,2.482-3.479,2.987c-2.646,1.472-6.313,1.794-9.271,1.985
		c-3.136,0.202-18.175,3.141-9.347,9.125c5.039,3.415,13.181-0.876,18.22-2.152c2.68-0.679,5.272-1.919,8.104-1.973
		c5.229-0.101,3.571,1.396,4.62,6c1.017,4.46,2.761,4.259,6.568,4c3.534-0.24,4.674-0.308,7.621,2.624
		c2.143,2.129,3.911,4.255,6.27,5.525V348.568z"/>
	<path fill="#635C42" d="M393.178,222.717c-5.354-3.68-9.055-9.022-7.55-17.172c0.052-0.276,0.126-0.543,0.189-0.813l-11.623-14.819
		l-11.718-9.001h-10.034v1.367c1.271,1.297,2.543,3.176,3.457,4.077c2.598,2.559,4.617,5.213,6.03,9.056
		c1.883,5.131,1.81,10.129,2.249,15.637c0.43,5.39,1.51,11.074,2.906,16.166c1.532,5.583,3.738,9.747,7.814,12.638
		c4.916,3.483,9.704,2.671,15.065,3.093c3.467,0.272,6.986,1.237,9.903,3.727c2.349,2.003,4.848,3.933,7.691,4.364
		c5.954,0.902,5.446-8.62,3.706-13.442c-0.11-0.307-0.242-0.584-0.364-0.875l-5.416-6.905
		C401.679,226.908,397.009,225.348,393.178,222.717z"/>
	<path fill="#323120" d="M392.603,403.626c1.85-2.787,4.321-6.312,7.378-4.556c2.634,1.513,3.361,6.078,6.187,7.562
		c2.917,1.53,5.564-1.671,7.504-4.299c2.253-3.052,4.89-5.688,8.113-6.257c2.996-0.526,5.928,1.848,4.44,6.313
		c-1.399,4.217-6.433,5.541-9.028,7.992c-3.479,3.284-1.615,6.301,1.307,8.501c2.978,2.242,4.109,6.071,0,7.692
		c-3.423,1.353-5.395-1.659-8.104-3.693c-2.57-1.933-6.64-2.406-9.266-0.25c-4.525,3.72,0.77,5.668,3.135,6.945
		c4.749,2.563,0.299,7.19-2.938,7.857c-6.641,1.369-12.879-3.212-19.305-1.315c-1.906,0.563-7.373,2.683-8.488-0.977
		c-1.354-4.443,6.011-4.639,7.728-5c2.42-0.508,6.591-0.604,7.861-4.021c1.786-4.801-3.265-5.313-5.739-4.993
		c-2.845,0.368-8.539,4.95-11.148,1.446c-2.026-2.719,1.959-3.422,3.313-4.357c2.48-1.719,3.159-5.026,5.327-7.088
		c1.823-1.731,4.203-1.114,6.222-2.11C389.24,407.966,391.134,405.841,392.603,403.626z"/>
	<path fill="#929563" d="M402.621,280.009c-1.459-2.175-7.425-5.463-4.243-11.498c1.888-3.574,7.438-3.865,10.289-6
		c3.135-2.341,8.738-8.475,12.874-5.684c4.791,3.231-0.934,8.505-2.507,12.514c2.149,4.399,6.246,3.62,6.363,8.701
		c0.039,1.69-2.421,3.026-2.337,5.446c0.078,2.193,2.935,3.535,2.724,5.836c-0.5,5.453-6.318,4.475-9.158,6.164
		c-4.502,2.679-2.582,5.627-5.387,9.688c-3.207,4.646-18.285,7.317-22.908,6.686c-3.756-0.518-6.851-3.393-10.918-3.852
		c-4.116-0.464-7.57-2.046-2.029-5.299c2.653-1.56,5.798,0.483,8.126-2.167c-0.972-2.338-2.574-4.178-3.575-6.534
		c2.229-4.32,4.988-2.357,8.283-3.334c2.813-0.835,4.549-3.271,7.189-4.017c2.739-0.774,7.188,3.142,8.771-1.338
		c1.272-3.604-2.702-6.201-4.644-7.98"/>
	<path fill="#323120" d="M429.884,293.338c-1.213-1.057-2.748-1.608-4.183-1.464c-1.868,0.194-4.485,1.875-4.197,4.725
		c0.385,3.77,4.822,3.282,6.516,5.783c0.787,1.165,1.914,3.317,1.254,4.936c-0.7,1.723-2.989,1.182-4.124,0.811
		c-1.063-0.348-3.408-1.104-3.98,0.724c-0.659,2.104,1.613,3.553,2.749,3.973c3.973,1.474-0.162,5.716-2.626,5.402
		c-1.397-0.179-2.959-1.521-4.441-1.007c-1.896,0.656-0.975,3.478,0.025,4.722c1.17,1.457,2.949,1.556,4.026,3.031
		c0.86,1.18,0.628,2.913-0.538,3.559c-0.591,0.326-1.214,0.324-1.826,0.656c-0.744,0.397-1.469,0.86-2.215,1.258
		c-3.195,1.688-6.53,2.943-9.918,3.791c-1.828,0.457-4.447,1.213-6.196,0.004c-2.65-1.834-4.435-4.944-6.435-7.73
		c-1.313-1.831-3.932-3.776-5.5-1.431c-1.919,2.87,0.573,7.963,1.933,10.551c2.162,4.119,5.374,7.438,8.518,10.221
		c8.715,7.709,15.308-2.98,22.725-7.053c2.576-1.414,5.612-2.173,8.438-3.355V293.34h-0.003V293.338z"/>
	<path fill="#929563" d="M362.479,180.911c0,0-2.736,13.441,6.147,15.647c8.886,2.206,6.05,8.826,6.05,8.826
		c-3.783,6.62,5.382,10.924,10.729,5.619c5.025-0.392,10.86,7.048,10.86,7.048l-22.069-28.14L362.479,180.911z"/>
	<polygon fill="#43533A" points="147.41,176.24 144.33,176.24 125.658,189.912 69.971,260.912 69.971,441.889 131.227,441.889 
		131.227,279.01 147.41,273.613 	"/>
	<path fill="#635C42" d="M70.288,263.93h29.806c5.598,4.45,8.087,14.688,6.271,22.877c-1.848,8.313-9.292,9.842-11.67,17.362
		c-2.313,7.318,4.358,14.631,6.473,20.648c3.591,10.229-1.757,14.078-8.038,18.375c-9.558,6.539-5.837,15.146-8.061,26.529
		c-1.15,5.895-5.616,13.034-9.821,17.508c13.687,14.879,43.995-8.397,55.98,7.578v27.631c-4.944-5.399-10.279-11.393-17.048-6.992
		c-2.093,1.359-4.002,3.729-5.241,6.289c-1.127,2.328-1.243,4.453-3.576,5.568c-4.126,1.974-8.522-2.351-12.728-1.774
		c-5.183,0.705-7.897,6.574-11.617,10.483c-1.591,1.672-2.839,3.722-3.989,5.874h-6.845v-64.692
		c0.033,0.125,0.071,0.238,0.104,0.361V263.93z"/>
	<path fill="#635C42" d="M131.227,365.102v-66.334c-4.389,0.024-8.741,2.066-11.43,6.741c-1.409,2.453-2.044,5.487-3.317,8.054
		c-1.554,3.129-3.198,6.569-5.675,8.578c-4.789,3.887-12.552,5.896-14.789,13.539c-1.772,6.057,2.257,12.869,2.825,18.852
		c0.262,2.756,0.392,4.148-1.072,6.398c-1.341,2.063-3.446,2.518-4.84,4.479c-4.629,6.523,9.899,13.383,13.338,13.064
		c3.152-0.292,6.396-2.131,8.603-5.063c1.68-2.229,1.894-4.977,2.95-7.573c1.848-4.54,7.74-2.603,10.584-1.046
		c1.007,0.553,2.07,1.269,2.821,0.312H131.227L131.227,365.102z"/>
	<path fill="#929563" d="M69.971,348.568c2.422,0.84,4.564,2.485,6.076,5.692c3.644,7.726,2.775,13.741,11.672,14.485
		c3.093,0.259,6.547-0.703,9.563,0.11c0.792,0.215,2.952,0.963,3.558,1.892c1.646,2.522,0.504,1.819-0.01,4.399
		c-0.332,1.681-2.138,1.506-1.551,4.123c0.297,1.325,2.571,2.482,3.479,2.987c2.646,1.472,6.313,1.794,9.271,1.985
		c3.135,0.202,18.174,3.141,9.346,9.125c-5.039,3.415-13.18-0.876-18.219-2.152c-2.681-0.679-5.273-1.919-8.105-1.973
		c-5.229-0.101-3.571,1.396-4.621,6c-1.016,4.46-2.76,4.259-6.567,4c-3.535-0.24-4.674-0.308-7.622,2.624
		c-2.143,2.129-3.911,4.255-6.27,5.525V348.568z"/>
	<path fill="#635C42" d="M106.676,222.717c5.355-3.68,9.055-9.022,7.549-17.172c-0.051-0.276-0.126-0.543-0.189-0.813l11.623-14.819
		l11.718-9.001h10.034v1.367c-1.271,1.297-2.543,3.176-3.457,4.077c-2.597,2.559-4.617,5.213-6.03,9.056
		c-1.883,5.131-1.809,10.129-2.249,15.637c-0.43,5.39-1.51,11.074-2.907,16.166c-1.531,5.583-3.737,9.747-7.814,12.638
		c-4.916,3.483-9.704,2.671-15.065,3.093c-3.467,0.272-6.986,1.237-9.903,3.727c-2.349,2.003-4.848,3.933-7.692,4.364
		c-5.954,0.902-5.446-8.62-3.706-13.442c0.111-0.307,0.242-0.584,0.365-0.875l5.416-6.905
		C98.175,226.908,102.846,225.348,106.676,222.717z"/>
	<path fill="#323120" d="M112.755,409.022c2.019,0.996,4.397,0.379,6.221,2.11c2.168,2.062,2.848,5.369,5.328,7.089
		c1.354,0.936,5.339,1.639,3.313,4.356c-2.61,3.504-8.307-1.078-11.149-1.446c-2.476-0.318-7.525,0.192-5.74,4.993
		c1.271,3.416,5.442,3.513,7.862,4.021c1.717,0.36,9.082,0.557,7.728,5c-1.115,3.657-6.582,1.538-8.488,0.977
		c-6.426-1.896-12.665,2.687-19.305,1.315c-3.234-0.667-7.687-5.294-2.938-7.857c2.365-1.277,7.66-3.228,3.135-6.945
		c-2.626-2.156-6.693-1.682-9.266,0.25c-2.709,2.034-4.68,5.046-8.104,3.693c-4.109-1.621-2.977-5.45,0-7.692
		c2.923-2.2,4.785-5.217,1.308-8.501c-2.598-2.451-7.629-3.775-9.029-7.992c-1.485-4.467,1.445-6.841,4.441-6.313
		c3.225,0.568,5.859,3.205,8.112,6.257c1.938,2.628,4.588,5.829,7.505,4.299c2.823-1.482,3.553-6.049,6.186-7.562
		c3.057-1.756,5.529,1.769,7.378,4.556C108.72,405.841,110.615,407.966,112.755,409.022z"/>
	<path fill="#929563" d="M100.321,277.342c-1.94,1.779-5.916,4.376-4.644,7.98c1.583,4.479,6.03,0.563,8.771,1.338
		c2.642,0.746,4.377,3.182,7.189,4.017c3.294,0.977,6.055-0.986,8.283,3.335c-1.001,2.355-2.604,4.195-3.575,6.533
		c2.328,2.65,5.473,0.607,8.126,2.167c5.541,3.253,2.086,4.835-2.029,5.3c-4.068,0.459-7.162,3.334-10.918,3.851
		c-4.623,0.634-19.701-2.037-22.908-6.685c-2.806-4.062-0.885-7.011-5.387-9.688c-2.841-1.689-8.658-0.711-9.158-6.163
		c-0.211-2.302,2.645-3.644,2.723-5.837c0.084-2.42-2.376-3.756-2.337-5.446c0.118-5.081,4.214-4.302,6.364-8.701
		c-1.574-4.009-7.298-9.279-2.507-12.514c4.136-2.791,9.739,3.343,12.874,5.685c2.852,2.134,8.401,2.425,10.288,6
		c3.183,6.034-2.783,9.322-4.242,11.497"/>
	<path fill="#323120" d="M69.971,293.338c1.213-1.057,2.749-1.608,4.184-1.464c1.868,0.194,4.484,1.875,4.196,4.725
		c-0.384,3.77-4.821,3.282-6.515,5.783c-0.787,1.165-1.914,3.317-1.254,4.936c0.701,1.723,2.99,1.182,4.124,0.811
		c1.062-0.348,3.409-1.104,3.981,0.724c0.659,2.104-1.613,3.553-2.749,3.973c-3.973,1.474,0.161,5.716,2.626,5.402
		c1.397-0.179,2.959-1.521,4.441-1.007c1.897,0.656,0.975,3.478-0.025,4.722c-1.171,1.457-2.949,1.556-4.027,3.031
		c-0.86,1.18-0.628,2.913,0.538,3.559c0.591,0.326,1.214,0.324,1.827,0.656c0.744,0.397,1.468,0.86,2.215,1.258
		c3.194,1.688,6.53,2.943,9.918,3.791c1.828,0.457,4.447,1.213,6.196,0.004c2.65-1.834,4.434-4.944,6.434-7.73
		c1.313-1.831,3.932-3.776,5.5-1.431c1.919,2.87-0.573,7.963-1.932,10.551c-2.162,4.119-5.374,7.438-8.518,10.221
		c-8.715,7.709-15.307-2.98-22.724-7.053c-2.577-1.414-5.613-2.173-8.438-3.355L69.971,293.338L69.971,293.338z"/>
	<path fill="#929563" d="M137.376,180.911c0,0,2.737,13.441-6.148,15.647c-8.885,2.206-6.049,8.826-6.049,8.826
		c3.783,6.62-5.382,10.924-10.729,5.619c-5.026-0.392-10.861,7.048-10.861,7.048l22.07-28.14L137.376,180.911z"/>
	<path fill="#E2E2E2" d="M287.979,185.286c0,0-19.32,18.61-38.014,18.61c-18.691,0-38.014-18.61-38.014-18.61l-6.417,98.704h44.431
		h44.43L287.979,185.286z"/>
	<polygon fill="#3C4C38" points="281.962,176.24 256.277,228.836 242.122,228.836 217.673,176.24 147.382,176.24 147.382,483.352 
		352.55,483.352 352.55,176.24 	"/>
	<path fill="#635C42" d="M258.912,415.817c0.751,0.957,1.814,0.242,2.822-0.312c2.843-1.557,8.734-3.494,10.584,1.047
		c1.058,2.597,1.271,5.345,2.949,7.572c2.205,2.935,5.449,4.771,8.603,5.063c3.438,0.317,17.967-6.541,13.338-13.063
		c-1.393-1.961-3.498-2.416-4.84-4.479c-1.463-2.25-1.334-3.644-1.072-6.397c0.569-5.979,4.601-12.796,2.825-18.853
		c-2.237-7.646-10-9.652-14.788-13.539c-2.477-2.008-4.121-5.449-5.675-8.578c-1.274-2.563-1.909-5.601-3.317-8.053
		c-2.688-4.675-7.041-6.718-11.431-6.742v66.334L258.912,415.817L258.912,415.817z"/>
	<polygon fill="#43533A" points="147.382,176.24 203.461,176.24 242.922,229.789 256.403,229.711 257.417,236.409 257.417,244.815 
		257.417,483.322 147.382,483.322 	"/>
	<polygon fill="#2A3527" points="245.752,230.268 214.237,251.06 186.994,176.24 195.371,176.24 217.478,241.51 241.416,227.836 	
		"/>
	<polygon fill="#43533A" points="191.83,176.24 216.474,243.502 241.416,227.836 217.673,176.24 	"/>
	<polygon fill="#2A3527" points="257.175,234.821 286.314,251.06 312.936,176.24 304.56,176.24 282.455,241.51 256.277,228.836 	"/>
	<polygon fill="#43533A" points="308.101,176.24 283.457,243.502 256.277,228.836 282.259,176.24 	"/>
	<ellipse fill="#BFBFBF" cx="247.61" cy="244.961" rx="3.605" ry="4.672"/>
	<path fill="#635C42" d="M255.941,338.584c-2.062-2.192-4.294-4.092-5.164-7.496c-0.868-3.397-0.068-7.44-1.026-10.733
		c-1.596-5.486-8.075-9.642-11.176-13.938c-4.548-6.305-6.122-12.66-1.286-19.387c1.511-2.102,3.971-3.816,3.472-7.16
		c-0.41-2.748-3.221-4.166-3.478-7.07c-0.69-7.823,6.059-8.784,8.778-13.241c2.52-4.125,4.296-11.526,9.867-8.839L255.941,338.584z"
		/>
	<ellipse fill="#BFBFBF" cx="247.61" cy="299.404" rx="3.605" ry="4.672"/>
	<ellipse fill="#BFBFBF" cx="247.61" cy="353.848" rx="3.605" ry="4.672"/>
	<ellipse fill="#BFBFBF" cx="247.61" cy="408.291" rx="3.605" ry="4.672"/>
	<path fill="#635C42" d="M219.998,400.836c-9.501,1.789-15.448,4.607-23.807-4.5c-6.322-6.889-8.936-16.85-17.353-19.537
		c-7.948-2.536-16.655,2.388-23.152,8.037l-8.78,1.334l0.475,97.332h62.327c1.146-5.157,0.877-15.12-1.417-21.329
		c-2.613-7.076-8.113-13.382-5.271-22.037c4.47-13.608,21.811-11.108,28.169-22.132
		C237.798,406.552,227.637,399.399,219.998,400.836z"/>
	<path fill="#323120" d="M156.319,462.968c-0.974-1.089-2.284,0.258-3.248-0.613c-0.859-0.774-1.178-2.973-1.134-4.207
		c0.048-1.354,0.295-2.965,1.021-4.004c0.867-1.239,2.239-1.849,3.212-2.946c1.194-1.353,1.173-3.136,2.719-4.095
		c1.469-0.909,2.978-1.215,4.479-0.246c1.813,1.171,1.707,3.236,2.873,5.021c1.168,1.787,3.721,1.414,5.346,1.787
		c1.267,0.289,3.662,1.289,3.482,3.601c-0.153,1.959-3.979,2.412-2.513,4.793c1.395,2.267,4.292,2.058,4.948,5.412
		c0.61,3.12-2.077,4.104-3.968,3.901c-1.993-0.215-3.755-2.063-5.103-3.801c-1.71-2.207-3.914-4.636-6.521-3.236
		c-0.696,0.373-1.719,1.33-1.738,2.429c-0.021,1.233,1.146,2.101,1.421,3.254c0.871,3.67-3.088,6.033-5.349,4.899
		c-2.077-1.043-3.826-3.391-2.492-6.315C154.333,467.326,157.853,464.682,156.319,462.968z"/>
	<path fill="#929563" d="M255.499,416.836c-5.864,0-12.643-0.838-16.111,6.517c-3.643,7.726-2.774,13.74-11.672,14.483
		c-3.092,0.261-6.546-0.702-9.561,0.111c-0.792,0.215-2.953,0.963-3.558,1.891c-1.645,2.523-0.504,1.82,0.01,4.4
		c0.333,1.68,2.138,1.506,1.552,4.123c-0.298,1.325-2.572,2.483-3.48,2.987c-2.646,1.472-6.313,1.795-9.271,1.985
		c-3.135,0.203-18.174,3.142-9.347,9.125c5.04,3.416,13.181-0.877,18.221-2.151c2.68-0.681,5.271-1.92,8.104-1.974
		c5.229-0.1,3.573,1.396,4.621,6c1.017,4.459,2.761,4.259,6.569,4c3.535-0.239,4.673-0.309,7.622,2.623
		c2.365,2.353,4.269,4.711,7.02,5.904c2.771,1.2,6.783,0.082,9.283,1.473L255.499,416.836L255.499,416.836z"/>
	<ellipse fill="#BFBFBF" cx="247.61" cy="462.734" rx="3.605" ry="4.672"/>
	<path fill="#2A3527" d="M255.941,483.322V234.336c0.021-0.527-0.021-2.009-0.476-2.627c-0.131-0.178-0.283-0.258-0.496-0.258
		c-1.922,0-12.96,0.063-12.96,0.063l-0.848,0.005l0.255-3.685h14.861c0.445,0,2.563,0.298,2.563,6.08v249.406L255.941,483.322
		L255.941,483.322z"/>
	<path fill="#635C42" d="M293.417,266.59c0.918-2.625,0.504-5.475-1.479-6.981c-2.35-1.785-4.616-0.272-7.086-0.278
		c-3.004-0.007-2.027-3.031-3.371-5.474c-1.309-2.373-3.771-2.789-5.84-2.32c-2.998,0.676-5.385,2.546-5.74,6.714
		c-0.123,1.442,0.253,2.849-0.324,4.151c-0.709,1.604-2.343,2.058-3.188,3.531c-1.674,2.922-1.409,7.639-0.379,10.754
		c1.304,3.935,3.887,5.342,7.104,5.019c1.913-0.195,3.328-0.606,5.094,0.719c1.493,1.123,2.642,3.291,3.688,5.082
		c2.482,4.248,6.175,7.629,10.478,7.211c2.994-0.289,5.275-3.387,5.11-7.488c-0.188-4.654-5.598-5.986-7.229-9.701
		C288.247,272.949,292.092,270.389,293.417,266.59z"/>
	<path fill="none" stroke="#2A3527" stroke-width="2.6354" d="M320.224,281.037c0,2.762-1.729,5-3.857,5h-36.648
		c-2.131,0-3.858-2.238-3.858-5v-9.856c0-2.763,1.729-5,3.858-5h36.648c2.131,0,3.857,2.237,3.857,5V281.037L320.224,281.037z"/>
	<path fill="#2A3527" d="M285.977,280.402h-1.189l-0.477-1.943h-2.176l-0.449,1.943h-1.167l2.116-8.59h1.162L285.977,280.402z
		 M283.958,277.006l-0.751-3.188l-0.735,3.188H283.958z"/>
	<path fill="#2A3527" d="M286.566,280.402v-8.59h1.065l2.228,5.734v-5.734h1.021v8.59h-1.104l-2.188-5.604v5.604H286.566z"/>
	<path fill="#2A3527" d="M292.028,271.813h2.001c0.507,0,0.889,0.073,1.146,0.221c0.256,0.146,0.494,0.396,0.711,0.74
		c0.218,0.349,0.388,0.799,0.511,1.354c0.124,0.556,0.188,1.244,0.188,2.066c0,0.742-0.064,1.389-0.195,1.938
		c-0.129,0.55-0.293,0.982-0.492,1.306c-0.197,0.319-0.438,0.563-0.721,0.726c-0.281,0.159-0.644,0.241-1.086,0.241h-2.062V271.813
		L292.028,271.813z M293.121,273.266v5.684h0.823c0.354,0,0.606-0.043,0.768-0.129c0.157-0.084,0.287-0.215,0.389-0.389
		c0.103-0.175,0.186-0.447,0.25-0.822c0.066-0.375,0.102-0.867,0.102-1.479c0-0.638-0.034-1.138-0.104-1.504
		c-0.066-0.367-0.174-0.656-0.314-0.867c-0.145-0.211-0.317-0.351-0.522-0.414c-0.152-0.051-0.45-0.074-0.891-0.074h-0.5V273.266z"
		/>
	<path fill="#2A3527" d="M297.516,280.402v-8.59h2.313c0.591,0,1.015,0.078,1.268,0.23c0.253,0.151,0.461,0.422,0.624,0.804
		c0.161,0.382,0.243,0.837,0.243,1.366c0,0.672-0.124,1.213-0.373,1.623c-0.247,0.41-0.602,0.668-1.06,0.772
		c0.233,0.22,0.43,0.457,0.583,0.72c0.152,0.26,0.362,0.725,0.628,1.396l0.66,1.676h-1.312l-0.794-1.869
		c-0.284-0.676-0.479-1.1-0.583-1.271c-0.103-0.17-0.209-0.286-0.324-0.352s-0.299-0.098-0.553-0.098h-0.227v3.586h-1.095
		L297.516,280.402L297.516,280.402z M298.611,275.445h0.813c0.498,0,0.813-0.027,0.949-0.084c0.136-0.059,0.245-0.172,0.33-0.344
		c0.086-0.174,0.126-0.398,0.126-0.688c0-0.271-0.041-0.492-0.126-0.658c-0.084-0.166-0.199-0.279-0.345-0.344
		c-0.104-0.043-0.398-0.063-0.891-0.063h-0.858L298.611,275.445L298.611,275.445z"/>
	<path fill="#2A3527" d="M302.771,276.162c0-1.022,0.117-1.867,0.352-2.529c0.233-0.661,0.539-1.153,0.917-1.479
		c0.376-0.324,0.832-0.486,1.369-0.486c0.776,0,1.411,0.385,1.9,1.154c0.489,0.769,0.733,1.865,0.733,3.287
		c0,1.438-0.26,2.561-0.776,3.369c-0.455,0.715-1.074,1.07-1.854,1.07c-0.786,0-1.407-0.354-1.862-1.063
		C303.031,278.68,302.771,277.57,302.771,276.162z M303.902,276.102c0,0.987,0.146,1.729,0.436,2.226
		c0.289,0.493,0.647,0.739,1.077,0.739c0.433,0,0.79-0.244,1.073-0.733c0.284-0.49,0.427-1.242,0.427-2.261
		c0-0.993-0.14-1.729-0.415-2.209c-0.274-0.477-0.639-0.715-1.084-0.715c-0.447,0-0.813,0.24-1.092,0.724
		C304.043,274.35,303.902,275.096,303.902,276.102z"/>
	<path fill="#2A3527" d="M308.872,280.402v-8.59h1.094v8.59H308.872z"/>
	<path fill="#2A3527" d="M311.01,271.813h2.002c0.505,0,0.887,0.073,1.145,0.221c0.258,0.146,0.494,0.396,0.712,0.74
		c0.218,0.349,0.387,0.799,0.511,1.354c0.123,0.556,0.186,1.244,0.186,2.066c0,0.742-0.063,1.389-0.193,1.938
		c-0.13,0.55-0.293,0.982-0.491,1.306c-0.199,0.319-0.439,0.563-0.722,0.726c-0.282,0.159-0.645,0.241-1.087,0.241h-2.061
		L311.01,271.813L311.01,271.813z M312.104,273.266v5.684h0.823c0.354,0,0.606-0.043,0.767-0.129
		c0.158-0.084,0.288-0.215,0.39-0.389c0.102-0.175,0.186-0.447,0.251-0.822s0.101-0.867,0.101-1.479
		c0-0.638-0.034-1.138-0.104-1.504c-0.066-0.367-0.174-0.656-0.314-0.867c-0.145-0.211-0.316-0.351-0.521-0.414
		c-0.153-0.051-0.451-0.074-0.892-0.074h-0.498L312.104,273.266L312.104,273.266z"/>
	<path fill="#635C42" d="M156.918,187.33c1.528,4.162,1.467,8.217,1.824,12.685c0.349,4.371,1.225,8.982,2.358,13.113
		c1.243,4.529,3.032,7.906,6.341,10.251c3.986,2.826,7.872,2.167,12.221,2.51c2.813,0.221,5.668,1.003,8.034,3.022
		c1.904,1.625,3.932,3.189,6.239,3.54c4.831,0.732,4.418-6.992,3.007-10.904c-2.683-7.424-9.598-8.576-14.677-12.065
		c-4.345-2.985-7.345-7.32-6.125-13.931c0.652-3.535,2.667-6.392,3.25-9.889c0.294-1.765-0.212-7.92-0.916-9.422
		c-1.184,0-0.78,0-2.058,0h-28.944c1.479,0.108,2.157,1.833,4.555,0C154.134,178.315,155.773,184.213,156.918,187.33z"/>
	<path fill="#635C42" d="M226.585,304.168c-8.555-31.705-33.753,12.14-42.459-15.479c-3.482-11.049-4.354-22.738-13.52-29.054
		c-6.928-4.772-17.096-3.975-23.246,1.867c0,0-0.014,74.367,0,75.23c8.333,0.313,6.204-15.688,12.569-19.73
		c7.224-4.59,13.167,5.229,13.764,13.168c0.737,9.834-6.501,21.771,1.543,28.533c6.875,5.775,15.306,1.363,20.179-5.832
		c4.084-6.031,12.311-24.041,19.577-11.518c2.285,3.938,0.574,10.604,2.305,14.965c2.265,5.703,6.939,6.303,11.561,4.496
		c10.943-4.277,1.178-18.525-1.773-26.48C223.234,323.945,229.429,314.705,226.585,304.168z"/>
	<path fill="#323120" d="M113.472,242.535c4.738-3.78,3.293-16.576,11.182-12.483c4.064,2.109,4.547,7.22,6.755,11.378
		c2.594,4.889,6.62,5.706,10.995,7.084c4.468,1.403,3.84,2.449,2.238,6.911c-1.176,3.28-2.031,4.771,1.622,7.237
		c0.358,0.24,0.79,0.396,1.263,0.504v7.751c-2.379-0.367-4.758-1.351-6.656-2.879c-1.358-1.095-2.482-2.502-3.626-3.892
		c-0.47-0.567-0.944-1.136-1.438-1.674c-0.863-0.939-1.944-1.759-2.91-2.523c-2.237-1.774-5.059-1.209-7.373,0.197
		c-3.607,2.192-6.108,7.049-8.479,10.889c-3.146,5.09-13.83,7.662-10.525-2.514c1.568-4.832,14.042-7.063,10.72-13.359
		c-1.506-2.851-5.919-2.66-8.018-1.526c-3.472,1.875-2.695,6.241-4.976,8.916c-6.457,7.567-9.081-8.261-5.914-14.036
		C103.011,239.974,108.079,246.838,113.472,242.535z"/>
	<path fill="#929563" d="M147.009,330.576c2.354,1.268,4.676-1.648,7.125-1.699c2.667-0.057,4.842,1.691,7.45,1.304
		c5.534-0.826,10.151-2.564,15.868-2.216c2.852,0.177,5.127,1.338,7.771,1.771c2.088,0.344,7.069-1.352,4.228,3.041
		c-1.417,2.188-16.189,1.737-9.092,5.359c1.336,0.684,3.383,0.482,4.809,0.902c0.715,5.26-7.177,5.803-9.676,4.563
		c-3.678-1.824-5.125-5.08-9.707-4.227c-3.051,0.565-6.914,4.217-9.958,1.594c-1.326-1.143-1.554-3.166-3.24-4.203
		c-1.653-1.021-3.61-0.678-5.529-0.803C147.057,334.539,147.009,330.576,147.009,330.576z"/>
	<path fill="#635C42" d="M341.932,429.836c-3.122-4.6-3.038-10.274-1.293-15.647c1.847-5.687,7.898-12.854,5.864-19.274
		c-2.158-6.82-8.786-7.108-13.068-10.481c-6.397-5.036-9.225-14.581-13.368-22.177c-3.368-6.168-8.533-11.465-14.405-6.508
		c-12.365,10.438,12.479,28.625,11.833,40.092c-0.345,6.078-5.769,9.125-7.271,15c-1.741,6.795,1.357,14.044,4.442,19.314
		c2.621,4.478,7.794,14.353,3.355,19.426c-3.772,4.313-9.24,1.976-13.709,2.261c-5.946,0.377-11.948,3.409-12.55,12.323
		c-0.494,7.343,3.303,13.752,6.694,19.009l54.092,0.184v-49.85C349.399,433.397,344.773,434.02,341.932,429.836z"/>
	<path fill="#929563" d="M320.504,478.309c-0.562,0.037-1.117,0.099-1.678,0.188c-2.714,0.438-5.283,1.302-7.923,2.195
		c-1.132,0.385-2.175,1.127-3.319,1.448c-1.011,0.283-2.331,0.084-3.315-0.287c-1.222-0.463-1.951-1.588-1.673-3.286
		c0.321-1.974,1.56-2.388,2.929-2.675c0.783-0.164,5.116-0.696,4.871-2.213c-0.25-1.541-4.223,0.405-4.974-0.438
		c-0.812-0.908,0.911-1.66,1.438-1.865c1.479-0.577,3.021-0.743,4.563-0.739c1.376,0.002,2.755,0.06,4.128,0.209
		c1.25,0.142,2.483,0.541,3.732,0.408c2.613-0.279,5.244-0.611,7.733-1.748c1.527-0.699,3.197-1.263,4.649-2.146
		c1.542-0.941,3.154-1.322,4.799-1.855c2.2-0.715,5.037-1.176,7.237-0.258c1.503,0.627,3.422,2.515,2.358,4.83
		c-0.406,0.887-1.241,1.299-1.949,1.637c-1.15,0.552-2.343,0.933-3.533,1.3c-1.063,0.325-2.158,0.44-3.201,0.869
		c-0.297,0.12-1.365,0.526-1.436,1.021c-0.084,0.598,1.368,0.6,1.696,0.641c0.941,0.115,1.918,0.185,2.867,0.183
		c0.35-0.002,1.465-0.112,1.71,0.321c0.386,0.685-1.599,1.234-1.863,1.285c-0.937,0.179-1.784,0.537-2.715,0.81
		c-2.163,0.627-4.4,0.619-6.605,0.619C327.539,478.759,324.003,478.078,320.504,478.309z"/>
	<path fill="#635C42" d="M352.445,289.197V176.24h-29.806c-5.598,4.451-8.087,14.016-6.271,22.207
		c1.847,8.313,9.292,9.84,11.67,17.363c2.313,7.317-4.358,14.63-6.474,20.648c-3.591,10.228,1.757,14.078,8.038,18.375
		c9.559,6.539,5.837,15.146,8.062,26.529c1.149,5.895,5.616,13.035,9.821,17.508c-14.113,15.342-45.901-9.889-57.05,9.188
		c-1.731,2.965-2.209,7.004-4.069,9.772c-1.977,2.937-4.755,3.76-6.771,6.281c-3.301,4.131-6.813,10.832-0.773,15.5
		c9.445,7.303,17.088-20.744,29.73-12.525c2.093,1.359,4.002,3.729,5.241,6.289c1.126,2.328,1.243,4.453,3.576,5.568
		c4.126,1.973,8.521-2.352,12.728-1.775c5.184,0.705,7.897,6.576,11.616,10.484c4.513,4.742,6.28,12.486,10.835,17.182v-76
		C352.516,288.961,352.478,289.074,352.445,289.197z"/>
	<path fill="#323120" d="M386.419,242.535c-4.737-3.78-3.293-16.576-11.182-12.483c-4.064,2.109-4.547,7.22-6.755,11.378
		c-2.594,4.889-6.62,5.706-10.995,7.084c-4.468,1.403-3.84,2.449-2.238,6.911c1.176,3.28,2.031,4.771-1.622,7.237
		c-0.357,0.24-0.79,0.396-1.263,0.504v7.751c2.38-0.367,4.758-1.351,6.656-2.879c1.357-1.095,2.481-2.502,3.626-3.892
		c0.471-0.567,0.943-1.136,1.438-1.674c0.864-0.939,1.945-1.759,2.91-2.523c2.237-1.774,5.06-1.209,7.374,0.197
		c3.606,2.192,6.107,7.049,8.479,10.889c3.146,5.09,13.83,7.662,10.524-2.514c-1.567-4.832-14.042-7.063-10.72-13.359
		c1.507-2.851,5.919-2.66,8.018-1.526c3.473,1.875,2.696,6.241,4.977,8.916c6.457,7.567,9.081-8.261,5.914-14.036
		C396.88,239.974,391.812,246.838,386.419,242.535z"/>
	<path fill="#929563" d="M352.544,223.317c-1.741-2.895-12.955,3.279-14.941,3.906c-2.156,0.68-5.84,1.815-6.878-1.39
		c-1.119-3.463,2.655-6.524,2.729-9.485c0.046-1.872-0.26-3.904-1.451-5.125c-0.983-1.009-2.235-1.594-3.479-1.515
		c-3.793,0.243-7.804,2.008-11.349,4.08c-2.341,1.368-4.638,3.134-6.787,4.923c-0.854,0.71-1.708,1.399-2.568,2.11
		c-0.995,0.823-1.938,1.73-2.957,2.501c-0.97,0.729-1.966,1.52-2.528,2.825c-1.079,2.495,2.145,2.408,2.123,4.5
		c-0.019,1.672-1.452,2.808-2.48,3.42c-1.261,0.75-2.955,0.583-4.028,1.769c-2.131,2.353-2.13,5.099,0.404,6.996
		c2.166,1.622,5.594-1.394,4.994,3.002c-0.366,2.685-4.745,4.165-4.938,6.601c-0.387,4.883,4.32,1.336,5.809,0.022
		c5.271-4.646,3.763-12.128,7.9-17.271c1.768-2.197,5.664-4.38,7.726-1.727c2.119,2.73-0.147,7.104,1.546,10.511
		c3.771,7.585,10.622,4.364,15.53,0.987c3.467-2.384,6.575-5.84,10.319-7.497c1.003-0.441,2.036-0.752,3.082-0.948
		c0.61-0.114,1.643,0.088,2.226-0.257L352.544,223.317L352.544,223.317z"/>
	<path fill="#929563" d="M361.438,234.152c0.538-0.889,1.325-2.355,0.627-3.439c-0.548-0.85-1.602-1.101-2.378-1.389
		c-0.884-0.328-2.258-0.667-2.626-1.938c-0.534-1.841,0.561-5.793-1.717-6.258c-1.362-0.277-2.865,0.946-3.934,1.907
		c-1.106,0.997-1.871,2.334-1.355,4.134c0.285,1.001,1.25,1.425,1.554,2.332c0.379,1.132-0.114,2.978-0.104,4.146
		c0.03,3.179,2.008,5.007,4.387,4.215c0.966-0.323,1.707-1.273,2.708-1.712C359.661,235.685,360.669,235.421,361.438,234.152z"/>
	<path fill="#929563" d="M186.447,195.312c-1.319-5.137-4.77,0.042-6.271,1.399c-3.369,3.053-4.525,1.935-6.078-1.876
		c-0.877-2.158,0.145-3.395-1.554-4.512c-1.055-0.693-3.813-0.012-4.563,1.137c-2.564,3.935,1.968,6.018,2.624,8.375
		c1.234,4.437-2.087,3.996-5.016,5.002c-3.7,1.271-4.204,2.542-6.271,5.985c-2.313,3.853-4.56,2.433-7.149,5.125
		c-4.351,4.52,3.131,17.134-4.697,17.926v12.994c4.609-5.374,9.661-3.271,15.113-1.143c2.129,0.831,6.603,2.641,8.521-0.253
		c2.881-4.348-1.687-6.333-3.954-7.163c-3.035-1.112-6.034-0.772-8.228-4.373c-1.091-1.79-3.342-7.887-2.326-10.138
		c1.261-2.792,5.857-1.354,7.737-3.56c2.013-2.364,1.725-6.282,4.341-8.4c4.989-4.04,13.446,1.408,15.441-7.004
		c0.358-1.517,0.023-3.213,0.474-4.875C185.042,198.307,187.037,197.607,186.447,195.312z"/>
	<path fill="#929563" d="M141.728,245.394c1.063,0.466,1.851,1.475,2.875,1.816c2.525,0.841,4.624-1.1,4.656-4.475
		c0.014-1.241-0.512-3.199-0.108-4.401c0.321-0.963,1.346-1.413,1.648-2.476c0.546-1.911-0.265-3.331-1.439-4.389
		c-1.134-1.021-2.729-2.32-4.177-2.025c-2.416,0.493-1.255,4.688-1.821,6.644c-0.392,1.351-1.851,1.71-2.788,2.059
		c-0.825,0.306-1.942,0.573-2.524,1.475c-0.741,1.15,0.095,2.707,0.666,3.651C139.531,244.621,140.601,244.9,141.728,245.394z"/>
	<path fill="#929563" d="M296.042,374.004c-3.822,4.959-12.098,11.566-0.953,10.797c7.1-0.489,14.207-1.737,21.546-1.182
		c4.107,9.66-15.973,6.932-19.382,9.387c1.62,2.957,8.271,6.104,4.421,10.33c-3.862,4.236-6.854-4.688-8.989-6.684
		c-5.231-4.893-5.691-0.76-9.775,2.199c-6.964,5.045-2.244-1.717-1.761-6.582c-3.88-0.313-14.115,10.34-16.278,4.441
		c-2.005-5.461,6.329-7.146,8.814-8.271c4.421-1.996,8.813-5.152,12.254-9.313c3.627-4.381,6.365-10.664,12.274-9.701
		C298.093,371.334,297.149,372.567,296.042,374.004z"/>
	<path fill="#929563" d="M216.672,351.555c-1.459-2.175-7.425-5.464-4.243-11.498c1.888-3.576,7.438-3.867,10.29-6
		c3.133-2.341,8.737-8.476,12.874-5.685c4.791,3.232-0.932,8.506-2.507,12.515c2.151,4.399,6.247,3.62,6.365,8.7
		c0.039,1.691-2.421,3.027-2.336,5.447c0.077,2.193,2.933,3.535,2.722,5.836c-0.5,5.453-6.319,4.476-9.158,6.164
		c-4.501,2.678-2.583,5.627-5.387,9.688c-3.207,4.646-18.285,7.317-22.909,6.684c-3.755-0.516-6.85-3.391-10.918-3.85
		c-4.116-0.464-7.571-2.046-2.03-5.3c2.654-1.559,5.798,0.484,8.125-2.166c-0.971-2.338-2.573-4.178-3.574-6.534
		c2.229-4.322,4.988-2.359,8.282-3.334c2.814-0.835,4.55-3.271,7.191-4.017c2.74-0.774,7.188,3.142,8.771-1.338
		c1.272-3.605-2.702-6.201-4.644-7.98"/>
	<path fill="#323120" d="M217.453,268.692c-0.762-0.446-1.5-1.039-2.083-1.604c-2.997-2.895-1.955-8.764-4.657-11.877
		c-1.274-1.471-3.126-2.272-4.826-2.1c-1.869,0.193-4.484,1.875-4.196,4.725c0.383,3.769,4.821,3.283,6.515,5.783
		c0.788,1.166,1.914,3.318,1.254,4.937c-0.702,1.721-2.991,1.18-4.124,0.809c-1.061-0.348-3.409-1.103-3.98,0.724
		c-0.661,2.104,1.613,3.554,2.748,3.975c3.972,1.473-0.161,5.715-2.626,5.4c-1.397-0.179-2.959-1.521-4.441-1.006
		c-1.897,0.655-0.974,3.478,0.025,4.721c1.171,1.457,2.949,1.557,4.028,3.031c0.86,1.181,0.627,2.914-0.539,3.561
		c-0.591,0.324-1.213,0.322-1.827,0.654c-0.744,0.397-1.468,0.86-2.215,1.259c-3.196,1.688-6.531,2.942-9.919,3.791
		c-1.827,0.456-4.447,1.214-6.196,0.005c-2.65-1.835-4.434-4.945-6.434-7.73c-1.313-1.832-3.932-3.779-5.5-1.432
		c-1.919,2.871,0.573,7.963,1.932,10.551c2.162,4.119,5.374,7.438,8.517,10.221c8.715,7.709,15.307-2.981,22.724-7.053
		c4.277-2.346,9.82-2.881,13.56-6.564c3.587-3.536,7.262-6.571,9.607-11.754c1.918-4.235,3.78-9.391,3.379-14.5
		c-0.21-2.686-1.671-4.848-3.934-4.256c-0.893,0.23-1.753,0.865-2.278,1.847c-0.564,1.053-0.268,1.94-0.508,3.008
		C220.925,270.158,218.705,269.427,217.453,268.692z"/>
	<path fill="#323120" d="M171.91,400.08c1.848-2.787,4.321-6.313,7.378-4.557c2.632,1.514,3.36,6.078,6.186,7.563
		c2.917,1.529,5.565-1.672,7.504-4.299c2.253-3.053,4.889-5.688,8.113-6.258c2.996-0.525,5.928,1.848,4.442,6.313
		c-1.401,4.216-6.433,5.541-9.03,7.992c-3.479,3.285-1.615,6.301,1.307,8.502c2.978,2.242,4.11,6.069,0,7.69
		c-3.423,1.353-5.394-1.657-8.103-3.692c-2.571-1.933-6.639-2.408-9.266-0.25c-4.525,3.719,0.77,5.668,3.135,6.945
		c4.749,2.563,0.297,7.19-2.938,7.858c-6.639,1.368-12.878-3.213-19.304-1.315c-1.907,0.563-7.373,2.682-8.489-0.978
		c-1.355-4.442,6.011-4.64,7.728-5c2.42-0.509,6.591-0.604,7.861-4.021c1.786-4.801-3.264-5.313-5.739-4.992
		c-2.845,0.367-8.539,4.949-11.15,1.445c-2.026-2.719,1.959-3.422,3.313-4.357c2.481-1.719,3.16-5.026,5.329-7.088
		c1.822-1.731,4.202-1.115,6.22-2.11C168.547,404.42,170.443,402.295,171.91,400.08z"/>
	<path fill="#323120" d="M271.891,447.086c-2.153-0.598-5.42-4.092-3.394-7.297c1.628-2.576,5.376,1.697,7.837,0.81
		c2.944-1.063,4.221-4.627,7.719-3.955c3.623,0.694,6.826,4.168,10.613,3.942c9.149-0.543,1.299-17.016,7.521-18
		c4.429-0.699,3.536,5.574,4.435,9.015c1.226,4.699,4.845,6.774,8.297,4.8c3.054-1.748,6.848-4.546,10.229-2.748
		c5.587,2.963-0.979,6.28-3.516,7.438c-2.476,1.125-8.363,5.313-3.043,7.006c3.826,1.222,7.938-0.013,11.769,1.549
		c3.41,1.394,5.582,5.222,1.395,7.765c-3.466,2.104-6.559,0.426-10.074-0.067c-6.419-0.897-12.952-0.119-18.907,3.058
		c-3.273,1.745-6.343,3.5-9.841,4.182c-1.93,0.375-8.701-0.239-4.974-4.424c2.573-2.89,7.072-1.586,9.989-3.75
		c1.102-0.817,2.881-2.388,2.699-4.313c-0.222-2.354-2.775-2.717-4.242-3.002c-3.447-0.67-7.29-0.22-10.419,1.563
		c-3.241,1.846-5.391,4.981-8.143,7.618c-2.633,2.521-6.129,3.564-9.414,3.318c-3.84-0.287-5.199-4.33-0.772-5.244
		c3.047-0.629,6.337-0.879,9.021-3.062c1.521-1.235,6.176-9.021,1.39-8.207C275.7,445.475,274.66,447.852,271.891,447.086z"/>
	<path fill="#323120" d="M303.499,353.947c-1.145,1.389-2.269,2.797-3.626,3.891c-3.104,2.498-7.483,3.56-11.063,2.813
		c-2.25-0.467-6.508-1.899-6.277-5.813c0.245-4.232,8.746-0.215,11.944-2.373c3.653-2.467,2.799-3.957,1.622-7.236
		c-1.602-4.462-2.229-5.51,2.238-6.912c4.375-1.377,8.401-2.195,10.995-7.084c2.208-4.158,2.688-9.27,6.755-11.377
		c7.889-4.094,6.442,8.702,11.182,12.482c5.395,4.304,10.461-2.563,15.144,5.979c3.167,5.775,0.543,21.604-5.914,14.037
		c-2.278-2.676-1.504-7.041-4.977-8.916c-2.099-1.135-6.511-1.324-8.018,1.525c-3.322,6.299,9.15,8.526,10.72,13.358
		c3.306,10.177-7.38,7.604-10.524,2.515c-2.371-3.84-4.872-8.693-8.479-10.89c-2.315-1.405-5.137-1.973-7.374-0.196
		c-0.966,0.768-2.046,1.584-2.91,2.522C304.443,352.813,303.968,353.379,303.499,353.947z"/>
	<path fill="#323120" d="M352.586,176.24h-29.405c-4.146,7.196,12.759,10.268,14.478,13.79c1.594,3.27,0.525,10.638,5.004,10.805
		c4.191,0.157,2.645-8.377,7.089-8.645c1.061-0.063,1.94,0.366,2.835,0.695V176.24L352.586,176.24z"/>
	<path fill="#929563" d="M182.393,271.799c-0.684-0.121-1.386-0.125-1.993-0.026c-0.936,0.149-1.867,0.33-2.781,0.627
		c-1.67,0.543-3.454,1.781-5.194,1.771c-1-0.006-3.902-1.172-2.553-3.092c0.583-0.83,2.064-0.703,2.525-1.596
		c1.025-1.99-2.611-2.566-3.332-2.896c-0.967-0.438-1.964-1.433-1.399-2.898c0.477-1.24,1.878-1.396,2.799-1.584
		c1.813-0.365,3.488-0.605,5.175-1.688c2.825-1.808,6.113-4.813,9.369-4.914c1.197-0.037,2.419,0.138,3.602,0.354
		c1.142,0.209,2.444,0.188,3.56,0.586c1.356,0.486,2.701,0.896,4.037,1.455c1.011,0.426,2.791,0.813,3.099,2.354
		c0.643,3.193-3.388,3.604-4.931,3.635c-2.141,0.041-5.997-2.12-6.318,2.267c-0.39,5.324,13.612,1.83,6.086,9.201
		c-2.216,2.17-4.529,1.479-6.744-0.259c-1.051-0.823-2.04-1.776-3.117-2.547C183.747,272.166,183.079,271.922,182.393,271.799z"/>
	<path fill="#929563" d="M287.987,181.95c1.021-0.809,1.675-3.904,2.684-4.282c0.818-0.306,2.182,0.249,2.763-0.563
		c0.312-0.435,4.093-0.865,4.093-0.865s-2.639,0-2.711,0c-0.004,0-13.135,0-13.135,0s-3.239,6.268-3.959,7.689
		c-0.854,1.689-1.394,3.313-2.248,5.005c-0.9,1.784-1.805,3.57-2.709,5.355c-0.86,1.708-1.726,3.415-2.588,5.123
		c-0.735,1.456-1.475,2.913-2.209,4.369c-0.424,0.838-1.02,1.623-0.905,2.71c0.057,0.534,0.37,0.634,0.728,0.493
		c0.164-0.065,0.312-0.193,0.472-0.252c0.184-0.067,0.396-0.074,0.584-0.086c0.754-0.052,1.498,0.148,2.197,0.505
		c1.498,0.764,2.771,2.118,4.086,3.293c1.344,1.203,2.803,2.335,4.459,2.568c0.115,0.016,0.233,0.027,0.352,0.035
		c2.662,0.168,6.724-2.335,6.096-6.697c-0.541-3.754-5.706-4.26-5.315-8.64c0.187-2.094,1.522-2.319,2.812-2.915
		c1.444-0.668,3.002-1.118,4.397-1.973c1.528-0.935,1.942-3.125,1.084-4.992c-0.655-1.429-2.479-2.525-1.945-4.468
		C287.239,182.729,287.57,182.28,287.987,181.95z"/>
	<path fill="#635C42" d="M288.732,217.398c-1.945,2.829-1.339,7.085-5.056,6.674c-3.188-0.354-4.771-3.637-7.688,0.027
		c-1.188,1.49-1.473,2.629-3.329,2.499c-1.453-0.103-2.625-1.278-4.234-1.025c-2.119,0.332-2.767,1.934-2.726,4.464
		c0.021,1.195,0.035,2.547,0.081,3.927l17.677,9.539l10.875-29.148C292.443,213.907,289.898,215.702,288.732,217.398z"/>
	<path fill="#929563" d="M276.703,322.836c-0.722-2.397,0.431-5.272-1.188-7.231c-1.582-1.914-3.789-0.817-5.674-1
		c-3.67-0.349-8.779-1.511-7.879-7.877c1.785-12.58,11.346-2.263,16.004-2.91c4.785-0.668,6.521-11.201,11.78-5.465
		c2.593,2.825,3.03,4.019,6.354,5.373c2.427,0.991,5.841,1.639,4.938,6.623c-0.897,4.956-5.351,3.493-8.111,3.477
		c-4.205-0.022-4.573,1.15-6.563,5.486C284.456,323.479,279.216,331.192,276.703,322.836z"/>
	<path fill="#635C42" d="M241.742,227.836l-24.069-51.596h-4.731c-1.339,0-1.445,0-2.583,0c-1.921,2.225-5.908,8.317-1.746,11.152
		c2.435,1.657,6.304,3.447,7.571,6.883c1.779,4.823-4.177,4.988-4.48,9.062c-0.772,10.393,15.375,4.501,15.049,14.25
		c-0.14,4.174-4.054,5.308-1.351,9.75c2.379,3.908,5.9,3.511,9.067,4.75l-0.039,0.139L241.742,227.836z"/>
	<path fill="#929563" d="M227.772,225.619c0.571-0.944,1.407-2.501,0.665-3.651c-0.581-0.901-1.698-1.169-2.523-1.475
		c-0.938-0.348-2.397-0.708-2.789-2.058c-0.567-1.955,0.594-6.151-1.822-6.645c-1.446-0.295-3.043,1.005-4.176,2.025
		c-1.175,1.058-1.986,2.478-1.44,4.389c0.305,1.063,1.327,1.513,1.649,2.477c0.402,1.201-0.122,3.159-0.11,4.4
		c0.033,3.375,2.133,5.316,4.656,4.476c1.025-0.343,1.813-1.352,2.876-1.817C225.885,227.246,226.956,226.967,227.772,225.619z"/>
</g>
</svg>
