<?xml version="1.0" encoding="utf-8"?>
<!-- Generator: Adobe Illustrator 14.0.0, SVG Export Plug-In . SVG Version: 6.00 Build 43363)  -->
<!DOCTYPE svg PUBLIC "-//W3C//DTD SVG 1.1//EN" "http://www.w3.org/Graphics/SVG/1.1/DTD/svg11.dtd">
<svg version="1.1" id="content" xmlns="http://www.w3.org/2000/svg" xmlns:xlink="http://www.w3.org/1999/xlink" x="0px" y="0px"
	 width="500px" height="500px" viewBox="0 0 500 500" enable-background="new 0 0 500 500" xml:space="preserve">
<rect id="position" x="0.5" y="0.5" display="none" fill="none" stroke="#000000" width="499" height="499"/>
<g id="arm">
	<path fill="#26222D" d="M76.456,297.598v-99.041c0-13.519,11.449-24.485,25.57-24.485l0,0c14.124,0,25.573,10.963,25.573,24.485
		V297.6L76.456,297.598L76.456,297.598z"/>
	<polygon fill="#F8C7FF" points="102.454,191.537 103.335,202.057 113.799,202.943 103.335,203.829 102.454,214.349 
		101.573,203.829 91.109,202.943 101.573,202.057 	"/>
	<polygon fill="#F8C7FF" points="110.987,184.582 111.868,195.103 122.332,195.989 111.868,196.873 110.987,207.394 
		110.106,196.873 99.642,195.989 110.106,195.103 	"/>
	<polygon fill="#F8C7FF" points="93.07,176.985 93.951,187.507 104.415,188.392 93.951,189.277 93.07,199.798 92.189,189.277 
		81.725,188.392 92.189,187.507 	"/>
	<polygon fill="#F8C7FF" points="101.716,167.406 102.597,177.927 113.061,178.812 102.597,179.698 101.716,190.219 
		100.835,179.698 90.371,178.812 100.835,177.927 	"/>
</g>
</svg>
