<?xml version="1.0" encoding="utf-8"?>
<!-- Generator: Adobe Illustrator 14.0.0, SVG Export Plug-In . SVG Version: 6.00 Build 43363)  -->
<!DOCTYPE svg PUBLIC "-//W3C//DTD SVG 1.1//EN" "http://www.w3.org/Graphics/SVG/1.1/DTD/svg11.dtd">
<svg version="1.1" id="content" xmlns="http://www.w3.org/2000/svg" xmlns:xlink="http://www.w3.org/1999/xlink" x="0px" y="0px"
	 width="500px" height="500px" viewBox="0 0 500 500" enable-background="new 0 0 500 500" xml:space="preserve">
<rect id="position" x="0.5" y="0.5" display="none" fill="none" stroke="#000000" width="499" height="499"/>
<g id="top">
	<polygon fill="#F8C7FF" points="163.688,202.923 164.726,215.256 177.058,216.294 164.726,217.332 163.688,229.666 162.65,217.332 
		150.316,216.294 162.65,215.256 	"/>
	<polygon fill="#F8C7FF" points="154.566,213.527 155.727,227.322 169.521,228.483 155.727,229.644 154.566,243.438 
		153.405,229.644 139.61,228.483 153.405,227.322 	"/>
	<polygon fill="#F8C7FF" points="166.466,228.482 167.412,239.714 178.643,240.66 167.412,241.605 166.466,252.837 165.521,241.605 
		154.289,240.66 165.521,239.714 	"/>
	<polygon fill="#F8C7FF" points="159.661,241.43 160.497,251.354 170.419,252.188 160.497,253.023 159.661,262.947 158.827,253.023 
		148.904,252.189 158.827,251.354 	"/>
	<polygon fill="#F8C7FF" points="166.247,252.758 166.935,260.918 175.094,261.605 166.935,262.292 166.247,270.451 
		165.561,262.292 157.401,261.605 165.561,260.918 	"/>
	<polygon fill="#F8C7FF" points="161.279,261.873 161.877,268.971 168.974,269.568 161.877,270.166 161.279,277.262 
		160.682,270.166 153.585,269.568 160.682,268.971 	"/>
	<polygon opacity="0.5" fill="#F8C7FF" enable-background="new    " points="166.451,267.904 167.049,275.002 174.146,275.599 
		167.049,276.196 166.451,283.293 165.854,276.196 158.757,275.599 165.854,275.001 	"/>
	<polygon fill="#F8C7FF" points="175.577,241.844 176.264,250.003 184.424,250.689 176.264,251.377 175.577,259.536 174.89,251.377 
		166.73,250.689 174.89,250.003 	"/>
	<polygon fill="#F8C7FF" points="174.936,188.827 176.36,205.75 193.284,207.176 176.36,208.599 174.936,225.524 173.511,208.599 
		156.587,207.176 173.511,205.75 	"/>
	<polygon fill="#F8C7FF" points="151.316,182.26 152.478,196.053 166.273,197.215 152.478,198.376 151.316,212.17 150.155,198.376 
		136.362,197.214 150.155,196.053 	"/>
	<polygon fill="#F8C7FF" points="162.715,169.699 163.876,183.493 177.67,184.655 163.876,185.816 162.715,199.611 161.554,185.816 
		147.76,184.655 161.554,183.493 	"/>
	<polygon fill="#F8C7FF" points="334.974,202.923 333.937,215.256 321.604,216.294 333.937,217.332 334.974,229.666 
		336.012,217.332 348.346,216.294 336.012,215.256 	"/>
	<polygon fill="#F8C7FF" points="344.096,213.527 342.935,227.322 329.141,228.483 342.935,229.644 344.096,243.438 
		345.257,229.644 359.052,228.483 345.257,227.322 	"/>
	<polygon fill="#F8C7FF" points="332.196,228.482 331.25,239.714 320.019,240.66 331.25,241.605 332.196,252.837 333.141,241.605 
		344.372,240.66 333.141,239.714 	"/>
	<polygon fill="#F8C7FF" points="339,241.43 338.164,251.354 328.241,252.188 338.164,253.023 339,262.947 339.834,253.023 
		349.758,252.189 339.834,251.354 	"/>
	<polygon fill="#F8C7FF" points="332.414,252.758 331.728,260.918 323.567,261.605 331.728,262.292 332.414,270.451 
		333.101,262.292 341.261,261.605 333.101,260.918 	"/>
	<polygon fill="#F8C7FF" points="337.383,261.873 336.784,268.971 329.688,269.568 336.784,270.166 337.383,277.262 337.98,270.166 
		345.076,269.568 337.98,268.971 	"/>
	<polygon opacity="0.5" fill="#F8C7FF" enable-background="new    " points="332.211,267.904 331.613,275.002 324.517,275.599 
		331.613,276.196 332.211,283.293 332.808,276.196 339.905,275.599 332.808,275.001 	"/>
	<polygon fill="#F8C7FF" points="323.084,241.844 322.397,250.003 314.238,250.689 322.397,251.377 323.084,259.536 
		323.771,251.377 331.932,250.689 323.771,250.003 	"/>
	<polygon fill="#F8C7FF" points="323.727,188.827 322.302,205.75 305.378,207.176 322.302,208.599 323.727,225.524 325.15,208.599 
		342.073,207.176 325.15,205.75 	"/>
	<polygon fill="#F8C7FF" points="347.346,182.26 346.184,196.053 332.389,197.215 346.184,198.376 347.346,212.17 348.507,198.376 
		362.3,197.214 348.507,196.053 	"/>
	<polygon fill="#F8C7FF" points="335.947,169.699 334.785,183.493 320.99,184.655 334.785,185.816 335.947,199.611 337.108,185.816 
		350.902,184.655 337.108,183.493 	"/>
</g>
</svg>
