<?xml version="1.0" encoding="utf-8"?>
<!-- Generator: Adobe Illustrator 14.0.0, SVG Export Plug-In . SVG Version: 6.00 Build 43363)  -->
<!DOCTYPE svg PUBLIC "-//W3C//DTD SVG 1.1//EN" "http://www.w3.org/Graphics/SVG/1.1/DTD/svg11.dtd">
<svg version="1.1" id="content" xmlns="http://www.w3.org/2000/svg" xmlns:xlink="http://www.w3.org/1999/xlink" x="0px" y="0px"
	 width="500px" height="500px" viewBox="0 0 500 500" enable-background="new 0 0 500 500" xml:space="preserve">
<rect id="position" x="0.5" y="0.5" display="none" fill="none" stroke="#000000" width="499" height="499"/>
<g id="body">
	<path id="shirt_1_" fill="#9F7028" d="M382.48,312.208v168.167H116.63v-305.01h81.31
		C225.88,242.403,338.236,295.403,382.48,312.208z"/>
	<path fill="#382426" d="M184.83,479.797c-0.314,0.008-0.56,0.037-0.771,0.096c-0.308,0.09-0.209,0.248-0.488,0.482h1.688
		c0.063-0.142,0.029-0.27,0.018-0.365C185.267,479.869,185.146,479.786,184.83,479.797z"/>
	<path fill="#382426" d="M182.176,479.744c-1.101-0.332-1.544-0.195-2.82,0.631h3.119
		C182.472,480.08,182.486,479.839,182.176,479.744z"/>
	<path fill="#382426" d="M231.935,271.602c-2.403,1.376-3.436,0.686-6.53,2.063c-3.098,1.374-3.438,2.407-5.85,4.473
		c-2.406,2.061-4.124,8.252-4.469,11.006c-0.348,2.75,4.444,7.079,3.778,9.287c-1.029,3.438,1.381,9.283,4.82,13.412
		c3.438,4.13,8.599,2.75,9.97,1.719c1.38-1.03,6.538-2.063,10.317-3.098c3.787-1.029,2.064-4.813,2.412-11.003
		c0.342-6.19-0.348-3.781,1.03-4.813c1.375-1.031,3.097-1.377,3.781-5.16c0.688-3.785,0.688-7.224,3.097-11.005
		c2.409-3.785-5.157-1.033-7.224-3.101c-2.063-2.06-2.063-0.343-5.846,1.035c-3.785,1.376-4.471-1.035-5.501-2.752
		C234.689,271.946,234.345,270.226,231.935,271.602z M236.577,294.681c-0.301,2.388-0.45,1.645-0.896,4.029
		c-0.45,2.392-2.688,6.866-4.329,5.374c-1.641-1.491-0.596-4.479-1.791-4.774c-1.192-0.301-2.538-2.688-2.389-6.567
		c0.145-3.728,1.791-4.18,3.283-4.628c1.491-0.449,2.837-0.447,3.583,0.148c0.743,0.598,0.296,1.792,1.044,2.983
		C235.828,292.445,236.875,292.298,236.577,294.681z"/>
	<path fill="#382426" d="M258.656,353.526c0.937-2.369,4.021-1.662,4.449-7.39c0.574-7.604-4.916-9.635-5.511-9.79
		c-0.592-0.16-0.545-3.147-1.432-3.607c-0.891-0.466-0.654,3.426-2.077-0.78c-1.426-4.207-5.708-6.962-7.914-9.089
		c-2.204-2.126-4.118-3.801-4.429-2.909c-0.313,0.893-0.902,0.434-1.936-0.479c-1.03-0.913-2.963-1.394-3.554-1.852
		c-0.586-0.46-1.338-0.318-0.8,3.422c0.531,3.736-0.521,4.172-1.003,6.553c-0.486,2.381-6.798-2.925-11.118,10.036
		c-3.091,9.286,3.325,9.839,2.095,11.904c-1.227,2.073-0.234,5.226,0.201,6.126c0.431,0.901,0.867,1.657,0.702,2.553
		c-0.162,0.894,0.368,4.928,0.807,5.384c0.44,0.459-0.021,1.345,0.564,2.102c0.584,0.755,3.254,1.848,4.402,0.668
		c1.153-1.175,1.103,0.472,1.687,1.226c0.584,0.755,1.458,2.111,2.068,1.228c0.612-0.885,1.796-0.271,4.219-2.316
		c2.424-2.055,4.714-5.299,6.982-7.053c2.271-1.755,1.021,1.661,1.632,0.626c0.613-1.034,0.927-1.928,2.283-2.648
		c1.354-0.728,0.979,4.047,1.9,2.418c0.922-1.626,2.167-4.592,3.671-5.313C258.055,353.818,257.723,355.904,258.656,353.526z
		 M249.185,348.594c-0.938,2.675-6.101,7.813-7.145,7.798c-1.045-0.021,0.669-4.316-0.522-4.491c-1.19-0.167-1.332-0.617-1.766-1.52
		c-0.436-0.901-1.184-0.766-1.914-1.82c-0.729-1.062-1.885-3.315-1.395-5.997c0.49-2.678,0.664-4.021,0.983-5.21
		c0.316-1.188,1.848-3.55,2.596-3.539c0.744,0.015,0.709,2.103,1.616,1.521c0.905-0.583,2.564-1.6,2.854-0.999
		c0.286,0.603,0.029,7.174,1.797,8.689c1.766,1.521,4.647-1.265,5.173,3.071C251.683,347.88,250.125,345.927,249.185,348.594z"/>
	<path fill="#382426" d="M151.803,201.828c0.543,6.354,4.167,7.994,4.167,9.838c0,1.846,1.813-2.864,3.08-1.639
		c1.268,1.229,0.726,3.891,1.812,4.301c1.087,0.409,3.626-2.868,4.532-2.049c0.904,0.822,1.45-0.613,2.354-1.844
		c0.903-1.229,0.544-2.867,2.175-4.713c1.629-1.847,3.079-2.662,1.268-7.582c-1.811-4.918-4.529-5.535-4.893-4.307
		c-0.363,1.229-1.271-2.866-1.993-3.48c-0.725-0.614-0.363,1.229-1.449,1.844c-1.087,0.613-3.08-6.56-3.984-5.534
		c-0.907,1.024,0.544,4.306-0.184,5.738c-0.725,1.434-1.812-3.689-2.537-2.46c-0.724,1.229-3.804,2.664-2.897,5.33
		C154.159,197.933,151.383,196.935,151.803,201.828z"/>
	<path fill="#382426" d="M194.981,436.387c0,0-0.118,0.149-0.328,0.388c0.086,0.182,0.189,0.358,0.278,0.538
		C194.97,436.75,194.981,436.387,194.981,436.387z"/>
	<path fill="#382426" d="M200.113,426.802c1.666-3.178,1.514-4.39,1.063-4.994c-0.456-0.604-1.362-0.147-1.819-0.755
		c-0.452-0.606,0.307-2.425-0.755-2.875c-1.059-0.456-1.059-0.456-1.666-0.761c-0.604-0.301-0.301-2.118-0.909-2.423
		c-0.604-0.299-1.059,0.456-2.422-0.302c-1.357-0.757-0.3-1.361-1.357-0.452c-1.061,0.905-1.973,0.605-4.693,0.908
		c-2.725,0.302-2.977,1.21-4.995,3.633c-1.287,1.543-0.604,3.519-0.373,4.54c0.774,1.104,1.657,3.262,2.335,3.769
		c1.111,0.832,2.499,0,3.332,0.553c0.533,0.353-0.271,1.791-0.42,2.292c0.218-0.051,0.463-0.182,0.729-0.407
		c1.91-1.885,4.41-2.717,3.576-0.495c-0.834,2.219-1.666,4.163-0.275,3.89c1.388-0.279,4.717,0.552,3.33,2.491
		c-0.309,0.433-0.322,0.776-0.233,1.095C196.137,435.938,198.615,429.662,200.113,426.802z"/>
	<path fill="#382426" d="M205.259,409.477c1.259-0.527,2.837-0.792,4.412-2.107c1.575-1.316,5.216,1.688,6.792-1.745
		c1.574-3.426,3.353-3.953,3.667-5.272c0.752-3.147,2.293-3.439,3.668-7.797c1.159-3.662,1.313-3.389,2.89-7.347
		s-2.839-8.705-3.15-10.813c-0.314-2.11,1.573-4.223-0.945-3.167c-2.521,1.057-3.152,5.274-3.782,2.902
		c-0.629-2.375,1.892-6.857,2.837-8.181c0.945-1.316-0.313-2.372-0.313-2.372s-5.357,2.898-4.097,1.58
		c1.263-1.313,2.836-2.634,2.836-2.634s-3.78,0.261-4.728,0c-0.945-0.266-7.877,0.791-9.141,2.105
		c-1.258,1.318-0.313,2.111-3.148,2.111s-4.411,0.793-6.618,1.317c-2.206,0.527-5.673,8.44-5.985,10.553
		c-0.316,2.113-2.384,6.346-1.123,12.413c1.26,6.063,0.492,15.289,0.492,15.289s1.89,4.747,3.468,3.689
		c1.573-1.058,2.836-2.108,3.149-1.058c0.315,1.058,0.63,3.958,1.893,3.43c1.261-0.522,2.834-1.317,4.097-1.847
		C203.684,410.008,203.998,410.008,205.259,409.477z M197.838,394.971c-0.811-3.167-1.883-3.167-1.077-5.277
		c0.808-2.11,1.614-3.432,1.614-3.432c0.81-4.222-1.881-6.857,3.229-8.703c5.111-1.85,5.111-1.317,5.917,0
		c0.811,1.318-1.344,1.846,1.887,2.376c3.227,0.524,7.53,2.372,5.11,5.538c-2.421,3.167-1.348,2.897-1.348,5.539
		c0,2.639-1.073,5.805-3.228,6.067c-2.152,0.267-8.61,1.58-9.956,1.58C198.643,398.662,198.643,398.135,197.838,394.971z"/>
	<path fill="#382426" d="M229.717,413.27c0.88,1.694,1.14,4.186,2.661,4.186c1.521,0.003,2.63,5.1,3.041,6.094
		c0.41,0.999,1.991-0.817,2.578-2.981c0.587-2.167,2.753-0.814,3.69-2.458c0.938-1.638,2.021-0.962,3.983-4.678
		c1.966-3.719,1.902,0.38,2.664-0.38c0.763-0.76,2.898-3.832,3.753-5.788c0.852-1.968,0.387-7.23,2.471-10.773
		c2.08-3.539,2.758-9.188-1.162-12.41c-3.919-3.224-9.297-12.829-10.353-9.087c-1.058,3.748-2.552,5.123-6.829,7.457
		c-4.275,2.339-4.86,2.982-6.098,7.608c-1.232,4.623-4.486,6.327-4.225,11.937C226.239,409.372,228.843,411.571,229.717,413.27z
		 M235.119,400.043c0.62-5.41,2.845-7.344,6.063-8.218c3.22-0.877,4.451-0.63,4.188,0.689c-0.269,1.313,0.639,4.085,0.637,6.365
		c-0.002,2.282,1.136,5.709-0.622,6.882c-1.759,1.167-4.481,3.358-5.623,2.218c-1.139-1.145-0.7-3.337-1.548-2.899
		c-0.851,0.439-0.619,3.835-1.496,2.899c-0.876-0.939-0.814-2.754-1.254-3.605c-0.438-0.849-0.884,3.631-1.378,0.793
		C233.593,402.323,234.911,401.829,235.119,400.043z"/>
	<path fill="#382426" d="M228.755,250.447c-0.284,1.035-0.994-2.404-1.56-2.922c-0.571-0.514-0.284,1.031-1.139,1.548
		c-0.852,0.516-2.412-5.503-3.124-4.643c-0.71,0.858,0.425,3.611-0.14,4.813c-0.57,1.203-1.421-3.094-1.989-2.063
		c-0.568,1.03,0,1.55,0.708,3.782c0.71,2.239-1.604,1.396-1.276,5.507c0.427,5.327,0.427,7.394,0.427,8.939s1.419-2.409,2.416-1.378
		c0.989,1.035,0.566,3.27,1.419,3.614c0.852,0.344,2.841-2.405,3.552-1.724c0.706,0.688,1.135-0.515,1.845-1.545
		c0.712-1.031,0.426-2.406,1.702-3.96c1.28-1.544,2.417-2.23,0.994-6.358C231.171,249.934,229.042,249.416,228.755,250.447z"/>
	<path fill="#382426" d="M132.236,177.649c0.705,0.141,0.869,2.7,3.956,6.92c2.685,3.671,5.226,1.412,7.063,2.686
		c1.835,1.271,1.977,1.271,3.249,1.271c1.271,0,1.691-2.543,3.249-3.955c1.553-1.413-1.131-3.389-2.402-4.377
		c-0.751-0.588-1.695-2.889-2.434-4.827h-13.886c0.042,0.183,0.074,0.343,0.074,0.447
		C131.105,176.376,131.528,177.507,132.236,177.649z"/>
	<path fill="#382426" d="M185.849,195.856c0.776,1.102,1.66,3.262,2.337,3.771c1.111,0.832,2.5,0,3.333,0.557
		c0.532,0.354-0.268,1.79-0.418,2.292c0.216-0.049,0.462-0.184,0.728-0.407c1.912-1.885,4.409-2.718,3.576-0.495
		c-0.833,2.219-1.667,4.159-0.276,3.883c1.387-0.275,4.716,0.557,3.33,2.496c-0.309,0.43-0.323,0.776-0.232,1.091
		c1.582-0.563,4.061-6.839,5.556-9.699c1.666-3.18,1.516-4.39,1.063-4.996c-0.456-0.604-1.364-0.149-1.82-0.754
		c-0.454-0.606,0.307-2.422-0.755-2.875c-1.059-0.455-1.059-0.455-1.665-0.76c-0.604-0.3-0.302-2.115-0.909-2.422
		c-0.604-0.302-1.058,0.453-2.421-0.302c-1.359-0.754-0.303-1.361-1.359-0.455c-1.061,0.908-1.969,0.605-4.691,0.909
		c-2.724,0.3-2.979,1.214-4.996,3.632C184.94,192.862,185.615,194.832,185.849,195.856z"/>
	<path fill="#382426" d="M170.497,190.499c0.776,0.733,0.563,2.003,1.188,1.858c0.628-0.145,1.229-1.298,1.618-0.929
		c0.389,0.365,3.272-0.35,4.274-0.628c0.374-0.104,0.472,0.046,0.484,0.293c0.007,0.249-0.065,0.584-0.043,0.861
		c0.013,0.2,0.069,0.375,0.235,0.464c0.641,0.364,0.974-1.289,1.188-2.558c0.219-1.271,0.872-0.404,2.104-1.451
		c1.231-1.044,2.085-2.202,2.552-3.479c0.47-1.277,0.571-2.164,1.68-3.077c0.281-0.232,0.377-0.401,0.353-0.533
		c-0.043-0.413-1.25-0.471-2.03-0.833c-0.248-0.116-0.354-0.202-0.373-0.278c0.003-0.219,0.843-0.317,1.484-0.612
		c0.33-0.155,0.456-0.467,0.45-0.824c0.002-0.596-0.365-1.329-0.775-1.714c-0.114-0.111-0.148-0.248-0.137-0.396
		c0.045-0.438,0.465-0.971,0.51-1.298h-1.688c-0.38,0.242-0.75,0.642-1.474,1.267c-0.271,0.235-0.381,0.318-0.399,0.31
		c0.077-0.161,0.797-1.029,0.778-1.561l-0.005-0.016h-3.116c-0.182,0.104-0.368,0.216-0.564,0.354
		c-1.364,0.924-2.137,0.438-3.14,0.723c-1.002,0.281-2.096,1.698-2.096,1.698l0.003,0.019l-0.003,0.003c0,0,0.069,0.305,0.066,0.694
		c-0.009,0.394-0.087,0.866-0.393,1.187c-0.611,0.648-1.526,2.391-2.4,4.361c-0.654,1.479-0.933,2.818-0.945,3.879
		C169.864,189.344,170.107,190.13,170.497,190.499z M174.881,183.184c0.036-0.448,0.156-1.498,0.156-1.498
		c1.438-2.032,1.074,1.014,2.856-1.077c1.567-1.843,2.095-2.263,2.091-1.459c0.001,0.117-0.009,0.258-0.026,0.426
		c-0.123,0.966-1.222,2.402-1.152,3.3c0.026,0.301,0.191,0.538,0.567,0.678c0.759,0.278,1.042,0.672,1.006,1.018
		c-0.027,0.35-0.379,0.655-0.909,0.745c-1.038,0.179-3.529,0.25-4.077,0.115c-0.419-0.102-0.516-1.068-0.522-1.727
		C174.865,183.487,174.872,183.302,174.881,183.184z"/>
	<path fill="#382426" d="M155.958,177.263c5.026-0.692,15.731,1.874,13.697-1.44c-0.097-0.156-0.183-0.308-0.268-0.458h-19.632
		C151.427,176.76,153.536,177.596,155.958,177.263z"/>
	<path fill="#382426" d="M247.972,258.478c-3.384-4.145-4.559-5.841-5.437-7.114c-0.882-1.272,0.2,2.788-1.204,2.508
		c-1.405-0.283-2.327-2.368-3.226-2.165c-0.895,0.205-0.965,3.599-1.938,3.438c-0.979-0.163-0.643,1.066-0.641,2.32
		c0,1.255,1.021,2.222,0.854,4.226c-0.171,1.999-0.714,3.212,2.8,5.797c3.516,2.586,5.563,1.799,5.208,0.789
		c-0.353-1.008,2.188,1.417,2.946,1.518c0.765,0.101-0.354-1.014,0.055-1.921c0.408-0.911,5.113,3.151,5.212,2.038
		c0.093-1.105-2.407-2.728-2.623-4.037c-0.216-1.313,2.931,1.737,2.81,0.564c-0.12-1.173-0.878-1.272-2.733-2.706
		C248.196,262.297,250.577,261.672,247.972,258.478z"/>
	<path fill="#382426" d="M164.887,329.19c-4.479-2.393-11.643-10.749-11.941-6.87c-0.297,3.882-1.491,5.523-5.226,8.658
		c-3.731,3.138-4.178,3.885-4.477,8.66c-0.3,4.771-3.154,7.085-1.791,12.533c1.791,7.165,4.775,8.81,5.971,10.304
		c1.194,1.492,1.938,3.88,3.432,3.58c1.492-0.296,3.583,4.479,4.178,5.374c0.601,0.895,1.794-1.196,1.942-3.436
		c0.148-2.238,2.536-1.342,3.133-3.133c0.599-1.795,1.792-1.345,2.986-5.374c1.194-4.032,1.938,0,2.538-0.896
		c0.595-0.896,2.089-4.324,2.538-6.42c0.448-2.088-1.045-7.165,0.298-11.047C169.812,337.249,169.364,331.579,164.887,329.19z
		 M161.304,352.025c-1.491,1.492-3.732,4.18-5.074,3.283c-1.343-0.896-1.343-3.137-2.089-2.536
		c-0.747,0.598,0.149,3.881-0.896,3.135c-1.044-0.746-1.345-2.537-1.94-3.283s-0.149,3.73-1.193,1.045
		c-1.047-2.688,0.147-3.434,0-5.225c-0.45-5.428,1.344-7.761,4.328-9.256c2.984-1.493,4.239-1.493,4.239-0.146
		c0,1.344,1.433,3.878,1.882,6.12C161.006,347.398,162.797,350.533,161.304,352.025z"/>
	<path fill="#382426" d="M120.437,271.436c0.423,3.248,1.13,0.563,1.979,4.38c0.849,3.813,2.823,3.53,2.823,6.216
		c0,0,0,0,1.414-0.707c1.415-0.707,2.825-5.086,3.675-6.072c0.848-0.988,1.13-1.416,2.542-2.83c1.41-1.407,1.554-4.233,1.694-6.354
		c0.143-2.116-0.284-7.201,0.143-8.758c0.424-1.557-0.85-2.963-1.413-3.107c-0.565-0.139-1.555-1.835-1.836-4.379
		c-0.283-2.54-0.566-2.964-1.13-2.258c-0.566,0.705-1.555,0.281-1.979-0.142c-0.423-0.425-1.413-4.805-1.837-4.52
		c-0.422,0.283-0.565,1.414-0.988,2.682c-0.423,1.272-1.412,2.119-1.694,2.966c-0.281,0.849-0.848,3.39-1.413,4.237
		c-0.563,0.851-0.563-0.276-0.987-1.41c-0.424-1.131-0.849,0.706-0.989,1.692c-0.141,0.991-0.848,3.675-1.693,6.217
		c-0.851,2.543-1.837,3.957-2.12,5.365c-0.282,1.413,0.708,1.98,1.554,0.709c0.848-1.271,1.13-0.143,1.978,1.271
		C121.002,268.048,120.013,268.187,120.437,271.436z M127.564,258.047c1.083-1.444,1.537-2.353,1.717-1.99
		c0.184,0.361,0.905,1.534,0.905,2.079c0,0.544-0.271,2.174,0.726,2.441c0.994,0.271,1.718,1.174,1.085,1.72
		c-0.635,0.541-0.813-1.541-1.628,1.445c-0.814,2.984-1.355,4.251-2.079,3.526c-0.726-0.725-0.635-3.166-0.904-3.615
		c-0.271-0.453-1.446-1.356-1.446-1.902l-0.091-0.178C125.847,259.403,126.48,259.491,127.564,258.047z"/>
	<path fill="#382426" d="M129.787,213.474c-1.146,0-0.688-2.98-1.835-1.833c-1.146,1.145-0.917,1.604-1.146,3.895
		c-0.229,2.296,0-2.289-1.377-1.603c-1.375,0.688-2.063,1.603-2.521,3.67c-0.458,2.062-1.604,2.294-2.292,3.438
		c-0.688,1.147-0.459,3.44-0.459,3.44s1.377,0.917,1.377,2.062c0,1.149,0.682,3.58,1.604,6.192c1.377,3.9,3.671,5.965,5.045,5.965
		c1.377,0,2.293,1.374,2.752,0.687c0.457-0.687,0-2.294,0.688-2.294c0.688,0,2.752-3.211,3.438-4.355
		c0.688-1.146,1.147,1.146,2.064,0.917c0.917-0.228-0.23-2.063-1.146-3.438c-0.917-1.375,0.459-1.146,0.691-3.21
		c0.227-2.064,0-3.896-0.691-5.502c-0.688-1.604-1.376-2.521-1.146-4.356c0.229-1.833-1.376-0.229-2.752,0.229
		c-1.377,0.459-0.229-0.688,0.229-1.836C132.768,214.394,130.935,213.474,129.787,213.474z M131.996,225.944
		c-0.813,1.086-3.075,3.349-3.708,3.708c-0.635,0.361-2.079-1.176-2.441-1.63c-0.361-0.45-1.174-1.536-1.174-1.536
		c-0.453-3.167,1.896,0,1.716-3.525c-0.181-3.525,0-4.159,0.996-2.804c0.994,1.356,1.085,5.064,2.983,4.249
		C132.266,223.594,132.809,224.859,131.996,225.944z"/>
	<path fill="#382426" d="M136.399,240.362c-0.707,2.116-0.849,5.084-0.849,6.497c0,1.412-0.846-0.563-1.693,0.424
		c-0.849,0.986,0,2.967,0,3.528c0,0.566,0.422,1.7,1.13,1.836c0.705,0.143,0.869,2.702,3.953,6.923
		c2.686,3.675,5.229,1.416,7.065,2.686c1.835,1.271,1.978,1.271,3.249,1.271c1.271,0,1.692-2.541,3.248-3.957
		c1.554-1.414-1.13-3.386-2.4-4.378c-1.27-0.99-3.106-6.923-3.53-7.627c-0.425-0.706-0.708-4.522-1.133-3.246
		c-0.423,1.268-0.706,3.104-0.847,1.833c-0.142-1.271-0.708-2.263-1.413-2.964c-0.706-0.71-1.412-1.981-1.695-2.826
		c-0.278-0.847-0.563-2.825-0.563-2.825s-0.143,1.552-1.272,1.834c-1.129,0.285-0.423-3.387-1.553-3.387s-0.14,1.411-0.284,3.104
		C137.671,240.783,137.106,238.24,136.399,240.362z"/>
	<path fill="#382426" d="M144.154,217.198c-1.06-0.455-1.512-0.302-1.661,1.059c-0.151,1.363-0.152,6.661,1.358,10.444
		c1.514,3.782,1.912,8.961,4.995,15.738c2.271,4.993,7.265,10.747,8.172,11.049s-0.756-3.634,0-3.33
		c0.569,0.229,3.458,2.086,4.654,2.927c-0.607-0.647-1.333-1.832-0.417-1.714c1.21,0.146,4.689,1.814,5.6,1.059
		c0.911-0.76-0.757-2.874-0.604-3.782c0.152-0.909,0-1.212,0.604-1.365c0.605-0.15-1.359-1.966-0.453-2.268
		c0.906-0.305,2.117-2.271,3.177-3.936c1.062-1.668,1.666-0.91,2.876-0.758c1.211,0.15,0-2.12,0-6.205
		c0-4.088-3.329-7.415-5.903-9.078c-2.572-1.668-2.419-2.425-3.782-4.241c-1.363-1.813-4.089-2.569-5.448-2.877
		c-1.355-0.3-2.269-1.813-3.327-4.384c-1.063-2.563-2.424-1.063-3.937-1.063c-1.515,0-3.329-2.116-3.177-1.665
		c0.149,0.455,0.453,2.728-0.152,4.088C146.123,218.254,145.213,217.653,144.154,217.198z M154.331,233.359
		c0.361-0.904,0.632-2.084,0-4.25c-0.635-2.168,0.361-2.35,0.813-1.266c0.453,1.085,0.541,2.621,1.267,2.979
		c0.724,0.363,2.268-1.445,2.268-1.532c0-0.094,0.988,0.901,1.621,1.263c0.633,0.36,1.719,1.355,2.713,1.719
		c0.996,0.362,1.537-0.634,1.357,2.08c-0.183,2.713,0.271,3.797-0.543,5.246c-0.814,1.444-0.452,1.807-0.904,2.981
		c-0.453,1.174,0.541,2.622-0.905,2.984c-1.447,0.36-0.457-1.269-1.897,0c-1.44,1.268-1.44,1.899-1.44,1.268
		s-1.814-3.525-2.178-3.89c-0.362-0.362-0.543-0.631-2.259-2.893c-2.617-3.443-2.354-4.521-2.263-5.244
		c0.091-0.727-0.633-3.438-0.724-4.163C151.167,229.927,153.97,234.263,154.331,233.359z"/>
	<path fill="#382426" d="M222.139,329.984c1.011-1.678,0.127-4.188-0.253-4.908c-0.381-0.717-0.758-1.315-0.633-2.033
		c0.127-0.72-0.378-3.95-0.758-4.311c-0.379-0.357,0-1.076-0.504-1.676c-0.508-0.599-1.268,0.239-2.148-0.358
		c-0.886-0.6-0.633-1.076-1.593-0.121c-0.958,0.959-0.937-0.358-1.442-0.955c-0.506-0.599-1.265-1.68-1.769-0.96
		c-0.511,0.719-1.521,0.242-3.543,1.915c-2.022,1.679-3.915,4.313-5.814,5.746c-1.895,1.438-0.885-1.315-1.39-0.478
		c-0.504,0.835-0.757,1.556-1.896,2.149c-1.139,0.601-0.883-3.23-1.644-1.915c-0.758,1.319-1.77,3.715-3.033,4.313
		c-1.263,0.6-1.01-1.078-1.767,0.839c-0.76,1.917-3.384,1.386-3.668,5.985c-0.38,6.104,4.301,7.658,4.804,7.778
		c0.507,0.116,0.507,2.515,1.263,2.87c0.759,0.362,0.508-2.754,1.771,0.602c1.265,3.35,1.988,7.798,3.887,9.473
		c1.896,1.676,3.54,2.993,3.791,2.271c0.254-0.717,0.76-0.356,1.645,0.362c0.888,0.718,5.469-1.216,5.976-0.857
		c0.504,0.362,1.139,0.242,0.629-2.75c-0.504-2.994,0-0.722,0.888-2.15c0.884-1.438-0.508-1.199-0.127-3.114
		c0.378-1.913,1.442,2.034,2.526-0.6c1.089-2.635,0.38-6.464,0.635-8.856C218.219,335.847,221.128,331.658,222.139,329.984z
		 M211.706,335.728c-0.359,2.156-0.479,3.23-0.719,4.188c-0.237,0.961-1.436,2.875-2.032,2.875c-0.603,0-0.603-1.678-1.319-1.193
		c-0.715,0.476-2.034,1.313-2.272,0.834c-0.239-0.478-0.117-5.741-1.558-6.938c-1.435-1.199-3.708,1.073-4.188-2.395
		c-0.196-1.433,1.075,0.118,1.793-2.036c0.721-2.153,4.788-6.344,5.625-6.344c0.839,0-0.479,3.469,0.479,3.589
		s1.076,0.479,1.438,1.198c0.356,0.719,0.957,0.601,1.555,1.438C211.109,331.778,212.067,333.572,211.706,335.728z"/>
	<path fill="#382426" d="M169.962,323.78c0.895,0.143,2.386,2.878,2.982,2.305c0.6-0.573,2.391-1.296,3.137,0.864
		c0.746,2.161,3.583-0.291,4.627-1.438c1.045-1.153,0.746,1.146,1.492,0.572s1.642-4.606,1.642-5.041
		c0-0.428,0.896,0.866,1.343,0.725c0.447-0.146,0.447-3.313,0.896-4.32c0.446-1.007,0.896,1.439,1.342,0.864
		c0.447-0.576-1.042-3.601-1.342-6.767c-0.301-3.169,0-1.875,0.896-3.023c0.897-1.149,0.299-2.736,0.151-5.903
		c-0.151-3.165-0.6-2.303-1.495-5.182c-0.896-2.88-2.09-2.88-2.984-3.457c-0.896-0.574-1.494-0.146-2.238-0.146
		c-0.745,0,0.148-1.438-1.345-1.438c-1.491,0-1.344-2.02-2.537-2.02c-1.194,0-1.792,3.891-3.435,4.752
		c-1.642,0.865-1.342,2.019-2.389,3.171c-1.042,1.15-0.743-3.023-0.896-2.593c-0.146,0.433-1.938,2.015-3.583,3.743
		c-1.642,1.729-4.179,6.038-4.179,13.532c0,5.326,2.24,8.782,3.286,9.354c1.044,0.578,3.433,4.465,4.027,3.744
		C169.962,325.366,169.065,323.635,169.962,323.78z M174.737,301.872c1.494-0.444,2.836-0.442,3.583,0.149
		c0.746,0.598,0.301,1.792,1.045,2.985c0.746,1.194,1.791,1.047,1.494,3.437c-0.3,2.387-0.447,1.643-0.896,4.025
		c-0.447,2.389-2.687,6.868-4.327,5.376c-1.645-1.492-0.596-4.479-1.79-4.776c-1.196-0.299-2.538-2.688-2.391-6.567
		C171.6,302.773,173.247,302.321,174.737,301.872z"/>
	<path fill="#382426" d="M183.245,376.355c2.09-0.597,3.432-4.031,4.178-5.227c0.747-1.194,1.045,1.791,1.939,0.896
		c0.896-0.896,2.688-4.778,3.435-6.868c0.746-2.088,3.583-6.416,4.328-9.851c0.748-3.433-2.09-6.415-4.624-8.356
		c-2.538-1.943-1.646-3.583-2.09-6.719c-0.45-3.132-1.196-2.984-3.583-4.328c-2.391-1.342-3.436-2.088-4.182-3.729
		c-0.746-1.645-5.673-3.285-6.417-3.137c-0.748,0.148,0.147,1.646,0.147,2.239s-0.745-0.152-1.341,0.443
		c-0.6,0.599,0.148,1.347,0,1.938c-0.151,0.603-1.194-1.641-2.092-1.339c-0.896,0.296-2.239,5.969-2.536,9.55
		c-0.3,3.585,0.747,8.955,0.599,10.598c-0.151,1.645-1.829,6.513-0.749,11.798c1.345,6.564,3.584,8.056,4.778,7.01
		c1.192-1.045,2.388,3.286,2.686,3.732c0.299,0.445,1.645-0.597,1.645-0.597l0.744,1.643c0,0,0.6-0.744,1.792-1.787
		C183.095,373.221,181.154,376.954,183.245,376.355z M177.573,363.518c-1.045-2.238,0.148-1.346,0.148-2.687
		c0-2.538-1.193-6.419-0.596-8.36c0.596-1.938,1.938-4.478,2.236-5.97c0.301-1.493,1.346-0.146,1.643-0.896
		c0.3-0.745,0.3-2.24,0.147-3.881c-0.147-1.643,0.896,2.54,1.796,3.281c0.895,0.749,1.19,1.35,1.19,3.138
		c0,1.792,1.046,2.091,1.046,2.836c0,0.747,1.342-2.238,1.342,0.45c0,2.685-0.146,3.132,0.6,3.581
		c0.746,0.446,0.893,0.896,0.296,2.391c-0.595,1.489-1.643-0.45-1.938,0.592c-0.298,1.051,0,3.286-1.191,3.882
		c-1.195,0.602-0.897,0.746-1.792,1.495C181.604,364.117,178.619,365.76,177.573,363.518z"/>
	<path fill="#382426" d="M161.672,255.086c0.196,0.21,0.38,0.367,0.489,0.403C162.276,255.527,162.063,255.359,161.672,255.086z"/>
	<path fill="#382426" d="M176.842,244.29c0.456,2.57,1.814,2.27,3.784,3.48c1.968,1.211,1.514,0.147,2.119-0.756
		c0.605-0.907,1.968-1.816,3.936-4.996c1.968-3.181-2.117-3.782-3.479-6.507s-1.361-0.604-2.575-0.604
		c-1.21,0-2.271-2.572-2.724-2.118c-0.456,0.455-0.456,2.271-0.757,3.48c-0.302,1.211-0.909,0.302-1.815,1.061
		c-0.908,0.754,0,1.509,0.755,2.119C176.842,240.052,176.147,240.344,176.842,244.29z"/>
	<path fill="#382426" d="M133.571,303.931c-1.376-2.405-1.72,1.721-2.406,0.172c-0.688-1.546-0.859-3.439-1.376-2.235
		c-0.518,1.204-3.955,9.458-3.955,14.445c0,4.989,1.892,4.302,0.516,7.91c-1.375,3.613-0.516,7.055,2.063,7.396
		c2.578,0.347,10.487-1.72,11.521-11.181C140.661,313.771,134.947,306.34,133.571,303.931z"/>
	<path fill="#382426" d="M191.156,315.906c0.747,0,3.285,3.131,3.733,3.879c0.446,0.747,0.598-0.895,2.388-1.494
		c1.791-0.594,3.134-0.746,3.582-1.644c0.448-0.896,1.345-1.34,2.388-1.34c1.047,0,1.49-2.391,1.938-3.731
		c0.45-1.343,1.048-1.191,2.84-1.643c1.792-0.446,3.731-4.925,4.328-5.228c0.596-0.295,1.191-1.641,1.493-3.58
		c0.296-1.938,0.446-2.688,0.595-4.775c0.148-2.091-1.19-0.743-2.386-3.281s-1.046-1.642-2.39-2.092
		c-1.346-0.446-1.793-2.241-2.836-3.732c-1.045-1.491-1.791-0.747-2.687,0c-0.896,0.744-0.598-1.046-1.196-0.447
		c-0.597,0.6-0.299,2.537-2.236,3.733c-1.939,1.193-2.391-1.941-2.984-2.241c-0.599-0.301-1.791,3.436-2.835,5.675
		c-1.046,2.237-4.932,6.271-5.076,13.281C189.662,314.56,190.411,315.906,191.156,315.906z M193.693,305.905
		c0.303-1.492,5.227-2.691,7.166-5.526c1.938-2.835,3.284-5.368,4.03-4.924c0.745,0.447-0.298,2.535,0.598,2.984
		c0.896,0.45,1.789,1.494,1.493,2.838c-0.3,1.342-1.795,5.074-2.389,4.178c-0.599-0.896-1.343-1.34-2.24,0.45
		c-0.896,1.791-1.044,2.982-2.241,2.688c-1.189-0.302-1.34-1.197-1.79,0.146c-0.445,1.347-3.431,1.494-3.431,0.298
		C194.889,307.844,193.099,308.889,193.693,305.905z"/>
	<path fill="#382426" d="M213.768,265.021c-0.754-0.753-2.421-0.753-3.327,0.305c-0.905,1.061-1.361,0.756-3.784,1.21
		c-2.421,0.456-1.965,0.605-3.779,2.421c-1.82,1.816-3.028,3.48-3.332,4.538c-0.301,1.063,1.816-0.452,2.424,0.607
		c0.603,1.059-0.989,3.892-0.305,5.601c1.815,4.54,5.599,2.876,7.264,3.631c1.667,0.758,2.575-0.15,4.237-1.664
		c1.668-1.514,2.879-3.024,3.181-3.781c0.302-0.76,1.513-5.901,0.906-6.204C216.646,271.38,214.528,265.78,213.768,265.021z"/>
	<path fill="#382426" d="M208.474,242.017c-0.305-3.181-4.389-7.111-5.45-8.322c-1.056-1.211-5.9-3.027-6.96-3.633
		c-1.059-0.604-3.784-4.692-3.784-1.968c0,2.724-0.451,1.212-0.755,2.875c-0.303,1.664-0.455,2.421-0.604,3.78
		c-0.15,1.364-1.211,2.576-1.517,4.541c-0.301,1.971-1.212,2.576-0.303,6.963c0.907,4.392,0.606-0.604,3.329,5.75
		c0,0,0.909,2.425,1.363,3.331c0.457,0.907,0.15-0.906,1.211-1.666c1.059-0.756,0.604,2.12,1.513,3.938
		c0.908,1.813,1.967,5.145,3.026,5.897c1.06,0.764,1.06-2.269,1.666-2.567c0.604-0.304,1.967,1.511,2.725,1.813
		c0.755,0.305,1.06-1.667,1.512-2.57c0.453-0.907,2.426-0.452,4.089-1.665c1.66-1.209,0-1.667-0.155-6.511
		C209.23,247.163,208.776,245.197,208.474,242.017z M203.798,249.094c-1.087-0.361-0.634-3.166-1.63-0.45
		c-0.992,2.711-0.271,4.157-1.268,4.063c-0.99-0.089-3.435-1.534-3.255-2.169c0.183-0.633-0.724-0.633-0.724-0.633
		c-0.993-1.448-0.09-2.352,0.271-3.075c0.364-0.723,0-3.434,0-3.797c0-0.362,0.814-0.181,1.178-0.455
		c0.359-0.27,1.086,2.082,1.445,1.538c0.361-0.541,0-1.716,0.631-1.716c0.637,0,2.985,1.72,3.617,1.355
		c0.637-0.363,0.997-0.271,1.181,0.996C205.424,246.018,204.882,249.457,203.798,249.094z"/>
	<path fill="#382426" d="M179.172,202.504c-0.049-0.424-0.134-0.738-0.362-0.738c-0.755,0-0.604,0.755-1.968,2.872
		c-1.36,2.121-0.757-0.754-2.571-0.301c-1.815,0.451-2.574,5.599-2.574,7.415c0,0-0.451,1.059,0,1.814
		c0.455,0.756,1.518,0.907,1.063,1.813c-0.456,0.91-2.272,3.183-1.515,3.936c0.758,0.758,1.666,0,1.362,0.912
		c-0.302,0.905-0.456,1.059,0.605,4.387c1.058,3.331,1.813,1.667,3.177,2.573c1.364,0.908,6.054-2.118,6.054-2.118
		s-1.36,2.27,1.663,1.97c3.03-0.308,9.839-6.966,11.958-8.477c1.419-1.016,1.409-4.257,1.252-6.294
		c-0.426,0.287-0.953,0.602-1.633,0.957c-5.83,3.053-12.211,4.72-14.154-0.831c-1.939-5.551,0.951-7.284-0.277-7.217
		c-0.334,0.019-0.693,0.044-1.032,0.049l-0.194,0.018l-0.04-0.021c-0.795-0.023-1.415-0.237-1.229-1.156
		C178.87,203.489,179.015,202.98,179.172,202.504z"/>
	<path fill="#382426" d="M145.332,311.723c2.238,2.091,4.181,3.731,4.479,2.837c0.298-0.896,0.896-0.447,1.94,0.444
		c1.045,0.896,2.984,1.348,3.583,1.793c0.597,0.447,1.343,0.3,0.747-3.432c-0.601-3.73,0-0.897,1.044-2.688
		c1.045-1.788-0.598-1.49-0.15-3.881c0.447-2.386,1.705,2.536,2.985-0.743c1.283-3.285,0.445-8.063,0.745-11.047
		c0.301-2.983,3.731-8.211,4.928-10.302c1.193-2.086,0.146-5.224-0.298-6.12c-0.45-0.896-0.897-1.641-0.749-2.537
		c0.148-0.896-0.446-4.925-0.896-5.371c-0.447-0.446,0-1.347-0.596-2.093c-0.598-0.745-1.492,0.303-2.54-0.443
		c-1.044-0.747-0.743-1.348-1.877-0.149c-1.134,1.193-1.108-0.45-1.705-1.196c-0.597-0.741-1.493-2.09-2.088-1.191
		c-0.597,0.896-1.792,0.298-4.18,2.39c-2.39,2.089-4.628,5.372-6.866,7.162c-2.239,1.793-1.045-1.641-1.643-0.595
		c-0.598,1.044-0.896,1.938-2.239,2.688c-1.344,0.746-1.044-4.033-1.94-2.39c-0.895,1.641-2.09,4.626-3.581,5.372
		c-1.494,0.747-1.191-1.345-2.089,1.045c-0.895,2.39-3.994,1.729-4.328,7.462c-0.449,7.611,5.074,9.557,5.67,9.703
		c0.597,0.149,0.598,3.135,1.494,3.582c0.896,0.45,0.595-3.433,2.087,0.747C138.766,306.95,143.094,309.635,145.332,311.723z
		 M141.9,286.052c0.896-2.688,5.973-7.909,7.018-7.909c1.043,0-0.6,4.322,0.597,4.479c1.193,0.146,1.343,0.594,1.791,1.488
		c0.448,0.898,1.194,0.749,1.941,1.793c0.747,1.046,1.938,3.284,1.491,5.968c-0.446,2.688-0.597,4.032-0.896,5.228
		c-0.298,1.195-1.79,3.584-2.537,3.584s-0.747-2.089-1.641-1.492c-0.896,0.596-2.538,1.642-2.837,1.045
		c-0.3-0.598-0.148-7.163-1.94-8.656c-1.791-1.495-4.626,1.341-5.224-2.984C139.416,286.81,141.005,288.737,141.9,286.052z"/>
	<path fill="#382426" d="M167.914,258.212c-1.364,0.759,3.479,5.9,4.691,8.626c1.21,2.729,0.104,7.284,1.814,11.503
		c1.968,4.846,3.025,6.657,3.936,6.354c0.908-0.301,1.816,2.574,2.574,2.876c0.756,0.306,2.116-0.758,2.875-0.758
		c0.756,0,0.757,1.666,1.208,1.666c0.452,0,1.515-0.756,2.118-0.456c0.605,0.305,0,3.182,0,3.182s0.605-1.059,1.364-1.515
		c0.755-0.452,1.058,0.91,2.116,0.757c1.061-0.15,1.515-2.876,2.118-4.841c0.605-1.968-1.209-6.813-0.907-7.872
		c0.303-1.06,0.756-0.152,1.968-1.06c1.211-0.907-0.15-1.815-0.454-3.182c-0.302-1.36-0.151-1.36,0.454-2.267
		c0.604-0.908,0.604-0.605,0.457-2.729c-0.153-2.116-1.212-4.688-3.028-8.018c-1.817-3.329-2.875-3.481-4.088-3.179
		c-1.21,0.303-2.271-0.15-3.176-1.063c-0.91-0.907-2.422-2.573-3.182-2.271c-0.756,0.307-0.301,0.907-0.903,1.214
		c-0.606,0.303-1.817-0.607-2.727-1.214c-0.909-0.603-1.062-0.603-2.27-0.304c-1.212,0.305-0.151,0.608-1.363,0.908
		c-1.209,0.303-3.632-1.964-3.632-1.964s1.359,2.571,1.359,3.021c0,0.454-0.904-0.757-1.512-0.147
		c-0.607,0.604,1.061,2.271,1.512,3.178C171.696,259.576,169.275,257.454,167.914,258.212z M179.47,264.102
		c0.273-0.991,1.268,1.354,1.991,0.454c0.723-0.903,0.452-1.721,0.906-1.897c0.451-0.184,0.9,0.452,0.9,0.452
		s0.453-0.729,0.903-0.814c0.453-0.09,1.356,1.991,2.172,2.623c0.815,0.636,3.796,3.704,3.617,7.323
		c-0.182,3.618-1.175,6.417-1.719,6.782c-0.543,0.362-0.452-1.174-1.63,0c-1.176,1.173-0.991,1.988-1.445,1.808
		c-0.453-0.178-0.904-1.087-1.175-1.176c-0.271-0.089-3.257,0.634-3.438-0.089c-0.178-0.725-0.633-5.605-0.633-5.605
		c-0.271-1.72,0.906-3.348,0.813-5.064C180.646,267.181,179.2,265.096,179.47,264.102z"/>
	<path fill="#382426" d="M146.641,389.922c0.86-1.034,0.519-2.409,2.064-3.958c1.547-1.55,2.923-2.232,1.2-6.362
		c-1.72-4.127-4.299-4.643-4.642-3.611c-0.345,1.031-1.206-2.405-1.893-2.922c-0.688-0.52-0.346,1.032-1.375,1.547
		c-1.033,0.516-2.925-5.505-3.783-4.644c-0.86,0.857,0.516,3.611-0.172,4.813c-0.688,1.204-1.721-3.093-2.408-2.062
		c-0.688,1.029,0,1.55,0.861,3.779c0.857,2.236-1.947,1.396-1.55,5.502c0.517,5.334,0.517,7.396,0.517,8.945
		c0,1.546,1.719-2.409,2.923-1.376s0.688,3.27,1.72,3.61c1.032,0.34,3.438-2.406,4.299-1.721
		C145.265,392.155,145.78,390.951,146.641,389.922z"/>
	<path fill="#382426" d="M221.285,468.878c0.107-3.894,1.222-5.592,4.793-8.901c3.572-3.315,3.985-4.082,4.05-8.867
		c0.062-4.788,2.802-7.232,1.173-12.612c-2.139-7.063-5.2-8.561-6.469-9.99c-1.271-1.436-2.128-3.782-3.604-3.408
		c-1.474,0.369-3.797-4.3-4.438-5.163c-0.641-0.866-1.729,1.276-1.771,3.521c-0.039,2.244-2.468,1.469-2.975,3.285
		c-0.51,1.816-1.724,1.433-2.722,5.515c-0.992,4.085-1.937,0.095-2.486,1.021c-0.553,0.922-1.876,4.422-2.222,6.534
		c-0.346,2.109,1.396,7.104,0.241,11.046c-1.146,3.941-0.424,9.586,4.167,11.75C213.613,464.77,221.176,472.767,221.285,468.878z
		 M214.74,452.462c-0.064-1.344-1.62-3.81-2.177-6.021c-0.558-2.215-2.5-5.259-1.083-6.822c1.418-1.561,3.522-4.354,4.907-3.527
		c1.387,0.832,1.495,3.065,2.213,2.434c0.715-0.634-0.34-3.868,0.74-3.176c1.078,0.694,1.465,2.473,2.098,3.186
		c0.632,0.716-0.034-3.733,1.143-1.101c1.177,2.63,0.021,3.436,0.257,5.217c0.72,5.399-0.961,7.82-3.87,9.456
		C216.056,453.739,214.807,453.801,214.74,452.462z"/>
	<path fill="#382426" d="M230.759,475.657c-0.62-3.938-4.134-5.26-6.104-5.841c-0.613-0.183-0.87-0.18-0.899-0.017
		c-0.035,0.159,0.156,0.476,0.435,0.916c0.342,0.528,0.812,1.237,1.184,2.075c0.124,0.278,0.174,0.467,0.168,0.591
		c-0.024,0.489-0.959-0.102-1.76-0.38c-0.597-0.204-1.114-0.237-1.111,0.488c0.003,0.481,0.079,0.985,0.183,1.49
		c0.266,1.261,0.704,2.521,0.609,3.469c-0.019,0.19-0.059,0.368-0.125,0.532c-0.502,1.218-0.265-1.399-0.996-2.449l-0.157-0.185
		c-0.93-0.869-0.613,2.064-1.494,2.753c-0.165,0.131-0.282,0.147-0.373,0.085c-0.385-0.261-0.23-1.996-1-2.545
		c-0.354-0.256-0.554-0.057-0.705,0.354c-0.25,0.692-0.362,1.982-0.82,2.785c-0.739,1.281-1.885-3.481-2.199-2.352
		c-0.078,0.281-0.199,0.62-0.384,1.031c-0.23,0.511-0.417,1.146-0.877,1.91h17.545c-0.23-0.771-0.425-1.637-0.661-2.569
		C231.031,477.114,230.873,476.394,230.759,475.657z"/>
	<path fill="#382426" d="M202.437,464.01c-0.223-1.598-1.95-2.394-2.521-2.299c-0.576,0.097-2.154-1.072-3.418-3.296
		c-1.267-2.228-1.693-2.503-1.933-1.632c-0.237,0.875-1.314,0.877-1.872,0.651c-0.558-0.219-3.196-3.854-3.474-3.426
		c-0.277,0.427,0.04,1.521,0.153,2.855c0.111,1.334-0.461,2.505-0.388,3.396c0.074,0.889,0.563,3.447,0.377,4.449
		c-0.185,1.001-0.632-0.034-1.466-0.905c-0.837-0.872-0.499,0.982-0.236,1.946c0.261,0.964,0.673,3.707,0.896,6.38
		c0.229,2.671-0.123,4.357,0.177,5.766c0.296,1.409,1.431,1.538,1.706,0.038c0.276-1.504,0.981-0.579,2.319,0.384
		c0.862,0.621,0.742,1.065,1.047,2.053h12.344c0.154-0.456,0.27-0.985,0.576-1.757c0.736-1.854-0.249-4.508-0.956-6.51
		C205.06,470.104,202.662,465.601,202.437,464.01z M201.922,469.656c-0.368,0.747-1.355-1.09-0.925,1.973
		c0.431,3.065,0.431,4.44-0.518,4.063c-0.951-0.379-1.832-2.657-2.26-2.968c-0.429-0.309-1.866-0.675-2.082-1.17l-0.153-0.136
		c-0.858-1.991-0.24-2.153,0.185-3.914c0.427-1.758,0.482-2.767,0.792-2.504c0.31,0.257,1.438,1.055,1.652,1.55
		c0.217,0.499,0.61,2.102,1.631,1.957C201.264,468.365,202.286,468.908,201.922,469.656z"/>
	<path fill="#382426" d="M179.531,463.007c-1.362-3.204-1.362-0.714-2.57-0.714c-1.211,0-2.272-3.025-2.728-2.49
		c-0.456,0.531-0.456,2.668-0.757,4.096c-0.302,1.424-0.909,0.356-1.815,1.243c-0.907,0.893,0,1.783,0.759,2.496
		c0.755,0.711,0.058,1.05,0.756,5.694c0.453,3.029,1.815,2.676,3.785,4.099c1.967,1.423,1.512,0.18,2.118-0.894
		c0.604-1.065,1.968-2.136,3.935-5.877C184.978,466.922,180.894,466.209,179.531,463.007z"/>
	<path fill="#382426" d="M142.688,474.068c-0.425,1.272-0.707,3.109-0.848,1.836c-0.143-1.27-0.708-2.257-1.412-2.967
		c-0.706-0.703-1.413-1.977-1.695-2.824c-0.279-0.847-0.563-2.822-0.563-2.822s-0.145,1.554-1.273,1.836
		c-1.128,0.279-0.421-3.392-1.553-3.392c-1.128,0-0.139,1.413-0.282,3.107c-0.141,1.691-0.706-0.848-1.413,1.271
		c-0.705,2.121-0.848,5.085-0.848,6.498c0,1.415-0.847-0.563-1.694,0.424c-0.772,0.903-0.189,2.617-0.074,3.34h13.886
		c-0.559-1.449-0.913-2.75-1.1-3.055C143.395,476.611,143.112,472.8,142.688,474.068z"/>
	<path fill="#382426" d="M177.67,451.166c0,0-1.785,2.459,1.259,2.594c3.045,0.135,11.06-6.623,13.447-8.066
		c1.542-0.934,2.178-4.542,2.435-6.98c-0.384,0.513-1.191,1.14-2.797,1.979c-5.829,3.057-12.211,4.719-14.154-0.834
		c-1.94-5.547,0.95-7.278-0.275-7.213c-1.229,0.063-2.777,0.279-2.5-1.11c0.697-3.483,2.251-4.979,3.603-6.049
		c0.1-1.134,0.358-2.367-0.063-2.438c-0.746-0.122-0.745,0.794-2.502,3.075c-1.759,2.279-0.602-1.016-2.48-0.773
		c-1.879,0.24-3.628,6.195-3.979,8.34c0,0-0.655,1.176-0.355,2.145c0.301,0.97,1.317,1.321,0.693,2.317
		c-0.624,0.999-2.858,3.387-2.261,4.399c0.602,1.02,1.645,0.271,1.167,1.296c-0.475,1.023-0.651,1.18-0.256,5.279
		c0.396,4.107,1.47,2.268,2.635,3.561C172.451,453.974,177.67,451.166,177.67,451.166z"/>
	<path fill="#382426" d="M167.359,460.863c-2.561-4.044-1.602-7.589-5.901-11.205c-5.653-4.751-9.036-4.331-10.876-4.842
		c-1.846-0.503-3.85-2.004-4.884-0.889c-1.032,1.122-5.527-1.522-6.536-1.896c-1.01-0.376-0.749,2.019,0.44,3.918
		c1.193,1.902-1.267,2.577-0.699,4.377c0.566,1.799-0.663,2.139,0.732,6.104c1.396,3.964-1.57,1.137-1.529,2.213
		c0.042,1.076,0.849,4.731,1.709,6.687c0.864,1.956,5.05,5.188,6.236,9.12c0.653,2.155,1.743,4.425,3.705,5.927h19.672
		c-1.911-3.196-1.777-5.243-0.618-9.872C169.994,465.773,169.916,464.907,167.359,460.863z M158.556,467.793
		c-1.543,2.955-2.559,3.695-3.346,2.604c-0.788-1.089-3.438-2.301-5.112-3.854c-1.677-1.549-4.966-3.037-4.633-5.117
		c0.333-2.085,0.571-5.576,2.185-5.642c1.612-0.063,2.927,1.752,3.183,0.83c0.255-0.921-2.396-3.056-1.114-3.062
		c1.286-0.01,2.575,1.267,3.498,1.521c0.921,0.254-2.068-3.112,0.354-1.549c2.425,1.565,1.896,2.871,3.063,4.231
		C160.182,461.888,160.097,464.832,158.556,467.793z"/>
	<path fill="#382426" d="M254.318,303.419c-0.566,7.858,3.919,16.615,4.999,19.452c1.079,2.837,1.35-2.023,1.889-0.203
		c0.539,1.826,0.679,4.056,1.083,2.639c0.401-1.42,3.104-11.146,3.104-17.022c0-5.27,3.238-7.365,4.689-10.811v-0.095
		c0.149-0.364,0.286-0.741,0.391-1.146c0.325-1.279,0.109-2.161-0.391-2.79v-0.055c-1.195-1.427-3.934-1.489-5.336-1.771
		c-1.208-0.239-3.217-4.544-5.763-1.92c-0.405,0.422-0.028,1.468-0.77,2.691c-0.604,0.989-2.325,2.104-2.688,3.068
		C254.436,298.35,254.507,300.839,254.318,303.419z M259.422,297.921c0.823-2.007,1.373-1.683,2.925-2.611
		c1.549-0.931,2.315-1.596,2.344-1.191c0.03,0.402,0.256,1.765,0.051,2.268c-0.208,0.503-1.072,1.906-0.254,2.533
		c0.815,0.63,1.146,1.737,0.356,2c-0.791,0.267-0.173-1.729-2.057,0.728c-1.884,2.454-2.86,3.419-3.262,2.479
		c-0.396-0.941,0.612-3.173,0.531-3.69c-0.079-0.521-0.824-1.802-0.62-2.307L259.422,297.921z"/>
	<path fill="#382426" d="M180.173,413.997c1.034-0.52,5.676-6.365,7.051-10.318c1.377-3.954,0.517-8.081,0.517-8.081
		s-1.376-0.518-1.547-2.239c-0.171-1.72-0.858-3.264-1.72-4.471c-0.86-1.204,0.345-1.719-0.172-3.268
		c-0.514-1.547-2.923-0.856-4.128-1.206c-1.202-0.341-1.202-3.438-1.716-2.75c-0.521,0.688-1.377,2.924-2.237,3.611
		c-0.859,0.688,0.515-3.611,0.688-4.816c0.172-1.2-2.236-3.266-3.611-3.438c-1.377-0.174-2.751-3.438-4.473-3.608
		c-1.72-0.173-0.517,1.548-1.547,2.577c-1.032,1.031-2.583,1.205-3.441,1.376c-0.859,0.173-1.891,1.55-2.921,2.064
		c-1.035,0.516-4.475,1.546-6.536,6.707c-2.064,5.158-4.977,6.708-5.159,12.382c-0.172,5.333,1.033,7.913,1.376,8.77
		c0.344,0.861,3.094,1.896,3.61,3.097c0.518,1.203,2.234,1.203,2.753,0.175c0.517-1.031,0.688-2.408,3.783,1.547
		s1.891,1.549,3.61,0.858c1.72-0.688,1.895,0.688,1.895,1.892c0,1.205,0,1.892,1.205,3.27c1.2,1.375,1.546-1.204,2.576-0.174
		c1.033,1.033,2.754-0.517,3.613-1.546c0.857-1.033,1.893-0.517,2.921-0.175c1.033,0.346,4.129-8.77,4.987-7.906
		C182.412,409.18,179.145,414.511,180.173,413.997z M178.457,404.537c-2.754,1.896-2.41-0.687-3.959,0
		c-1.546,0.688-4.472,0.859-4.297-0.687c0.171-1.552-1.03,0.687-1.721,0.342c-0.687-0.342-0.516-0.342-1.029,0.345
		c-0.519,0.688-1.205,1.896-2.238,1.896c-1.03,0-0.171,0.17-1.03,1.546s-1.033,1.028-1.721,1.376
		c-0.688,0.345-2.751,0.173-3.782-5.849c-0.699-4.067,1.375-9.289,1.891-9.46c0.519-0.174,0.86,2.927,1.377,0.688
		c0.516-2.237,0.343-5.159,1.201-5.334c0.861-0.17,1.205,2.236,1.377,1.722c0.171-0.514,1.031-3.953,1.722-4.127
		c0.688-0.17,1.72,2.235,3.268,2.235c1.547,0,2.923,0.86,3.783,1.378c0.855,0.514-0.171,2.059-0.345,4.813s0.345,3.781,1.375,3.27
		c1.032-0.516,2.063-2.063,2.925-1.721c0.857,0.346,1.034,1.549,1.205,2.406C178.627,400.236,181.207,402.645,178.457,404.537z"/>
	<path fill="#382426" d="M254.111,477.932c-1.343-0.448-1.789-2.239-2.835-3.73c-1.045-1.49-1.79-0.746-2.686,0
		c-0.7,0.583-0.675-0.37-0.916-0.534c-0.065-0.05-0.147-0.043-0.28,0.089c-0.297,0.299-0.372,0.932-0.614,1.64
		c-0.24,0.71-0.651,1.495-1.625,2.094c-0.665,0.407-1.15,0.303-1.532-0.021c-0.729-0.615-1.061-2.026-1.449-2.222
		c-0.485-0.242-1.366,2.177-2.239,4.29c-0.119,0.291-0.127,0.567-0.245,0.837h16.862c-0.063-0.114-0.473-0.763-0.539-0.897
		C254.823,476.941,255.456,478.381,254.111,477.932z"/>
	<path fill="#382426" d="M266.735,429.809c0.082-0.655,1.797-3.396-3.133-4.636c-4.935-1.242-3.483-4.191-4.979-3.687
		c-1.492,0.506-3.512,4.451-4.571,3.854c-1.063-0.598,0.438-2.78-0.764-1.808c-1.208,0.975-2.188,3.329-3.218,3.24
		c-1.022-0.086-1.147-1.871-2.887,0.608s-3.299,5.576-3.743,4.748c-0.439-0.829-4.922,0.688-8.905,7.407
		c-3.993,6.732-2.392,13.032-1.311,17.494c1.079,4.461-0.689,10.04,0.153,11.19c0.848,1.146,1.938,3.933,3.812,5.168
		c1.874,1.236,1.754,1.384,1.575,2.443c-0.181,1.063,1.827-4.817,3.474-4.961c1.648-0.146,1.662,0.106,3.857-1.283
		c2.199-1.396,3.726-5,4.87-8.674c1.143-3.674,2.993-6.301,3.75-6.427c0.757-0.122,2.279,1.56,5.051-2.514
		c2.771-4.07,2.438-10.591,3.984-13.942C265.297,434.688,266.654,430.469,266.735,429.809z M250.664,447.693
		c-1.421,1.522-2.979,6.555-4.576,9.141c-1.604,2.589-1.813,1.463-2.944-0.155c-1.136-1.614-1.548-0.258-2.961-0.409
		c-1.416-0.15-2.51-2.537,0.093-11.229c2.685-8.958,6.875-7.331,8.76-7.773c1.878-0.44,4.643,0.771,6.279,2.308
		C256.956,441.103,252.086,446.168,250.664,447.693z"/>
	<path fill="#382426" d="M260.151,409.711c0,1.148,0.686,3.58,1.606,6.19c1.372,3.896,3.666,5.961,5.045,5.961
		c1.373,0,2.292,1.379,2.751,0.691c0.41-0.624,0.089-1.984,0.526-2.244v-0.014l0.123-0.041c0.688,0,2.752-3.208,3.438-4.354
		c0.69-1.147,1.148,1.146,2.065,0.916c0.916-0.229-0.229-2.063-1.146-3.438c-0.919-1.375,0.459-1.146,0.688-3.209
		c0.229-2.063,0-3.897-0.688-5.502c-0.688-1.606-1.377-2.521-1.146-4.358c0.229-1.835-1.375-0.229-2.75,0.231
		c-0.322,0.106-0.496,0.116-0.583,0.072v-0.042c-0.03-0.047-0.03-0.118,0-0.209v-0.113c0.16-0.371,0.573-0.953,0.811-1.542
		c0.25-0.626-0.186-1.175-0.811-1.551v-0.023c-0.521-0.305-1.161-0.491-1.676-0.491c-1.146,0-0.688-2.979-1.838-1.833
		c-1.145,1.145-0.916,1.604-1.145,3.898c-0.23,2.29,0-2.295-1.374-1.606c-1.379,0.688-2.063,1.606-2.523,3.669
		c-0.455,2.064-1.604,2.292-2.292,3.44c-0.688,1.146-0.459,3.438-0.459,3.438S260.151,408.562,260.151,409.711z M265.007,406.126
		c-0.181-3.527,0-4.164,0.996-2.804c0.993,1.354,1.085,5.063,2.979,4.247c0.439-0.188,0.806-0.254,1.098-0.248v-0.003
		c0.943,0.045,1.113,0.966,0.497,1.793c-0.131,0.172-0.308,0.38-0.497,0.603v0.041c-1.014,1.158-2.65,2.762-3.177,3.063
		c-0.632,0.358-2.077-1.178-2.438-1.629c-0.365-0.453-1.177-1.541-1.177-1.541C262.84,406.487,265.186,409.648,265.007,406.126z"/>
	<path fill="#382426" d="M152.315,439.791c2.408-1.376,3.269-1.03,3.784-1.03c0.514,0,2.58-1.378,4.299-2.411
		c1.722-1.027,1.549-1.718,3.784-2.402c2.235-0.688,3.613-6.881,4.127-8.948c0.515-2.062-0.688-3.264-1.719-3.949
		c-1.033-0.688-1.719-2.408-2.237-3.271c-0.517-0.858-2.233-0.345-3.783-0.345c-1.548,0-0.859-1.546-1.891-1.72
		c-1.03-0.172-1.892,0.174-3.785,1.375c-1.891,1.204-4.685,1.198-5.159,4.988c-0.344,2.751-0.857,4.302-1.376,5.33
		c-0.515,1.032,0.86,1.723,1.722,2.578c0.858,0.86-0.346,3.271-0.86,4.129c-0.515,0.859-1.89,1.893-1.375,2.063
		s1.719-0.347,2.235,0.346c0.516,0.688-0.346,1.207-0.346,2.063C149.735,439.446,149.906,441.168,152.315,439.791z"/>
	<path fill="#382426" d="M124.473,474.954c-1.921-0.768-2.688-1.533-4.226-1.148c-1.535,0.38-0.385,2.688-0.768,3.841
		c-0.252,0.746-1.062,1.659-1.983,2.729h9.926c-0.078-0.894-0.154-1.72-0.259-2.349C126.78,475.722,126.394,475.722,124.473,474.954
		z"/>
	<path fill="#382426" d="M300.965,366.927c0.707,0.704,0.423-2.685,1.554-1.979c1.132,0.71,1.272,2.688,2.826,2.688
		c1.556,0,2.401,0.279,2.401,0.847c0,0.564-0.988,1.978,0.987,0.847c1.978-1.129,2.26-0.985,2.542,0
		c0.281,0.989,1.836,2.404,1.979,0.852c0.141-1.557,0.563-1.557,1.271-1.412c0.706,0.14,1.554-0.99,1.695-1.694
		c0.14-0.709,0.14-1.559,0.14-2.828c0-1.269,1.415-4.665,1.272-7.062c-0.143-2.404,0.143-1.979,0.143-4.098
		c0-2.122-2.263-4.521-2.263-5.65s0.851-0.426,0.99-1.691c0.142-1.272-0.426-1.84,0.142-2.262c0.563-0.427,1.553,0,1.553-0.708
		c0-0.706-1.977-2.264-1.413-3.672c0.565-1.414,0.991-3.394,0.425-4.803c-0.563-1.414-3.248-5.651-4.097-5.936
		c-0.848-0.282-1.553-0.143-2.26-0.565c-0.706-0.421-3.955-3.813-4.236-2.824c-0.284,0.988,2.966,3.249,1.979,3.249
		c-0.99,0-4.945-2.119-5.511-2.824c-0.564-0.706-3.25-0.985-3.106,0.563c0.144,1.556,0.142,5.229-2.543,7.909
		c-2.683,2.688-4.939,10.315-4.519,13.704c0.422,3.388,0.986,6.64,1.552,5.225c0.565-1.407,1.695-1.834,2.402-0.135
		c0.704,1.689,2.26,5.363,2.26,5.363C298.985,363.819,300.259,366.221,300.965,366.927z M299.324,351.595
		c0.794-3.069,1.926-3.148,1.932-4.057c0.005-0.9,0.841-3.882,1.298-4.784c0.459-0.897-1.35-1.005,0.649-2.616
		c2.004-1.61,3.181-1.514,3.629-1.331c0.451,0.184,1.694,3.089,3.41,3.553c1.717,0.462,1.613,2.093,1.516,3.354
		c-0.102,1.271,0.063,3.981-0.127,4.978c-0.188,0.992-0.364,0.541-1.002,1.17c-0.638,0.624,0.172,1.535-0.646,1.891
		c-0.816,0.355-1.357-0.009-1.719,0.081c-0.362,0.088,0.091,0,0.349,1.725c0.261,1.717-0.827,1.893-1.364,1.161
		c-0.534-0.728-0.521-2.807-0.976-2.631c-0.454,0.183-0.64,0.992-1.184,0.989c-0.543-0.006-2.169-0.104-2.169-0.104
		s-2.45,1.427-2.896,0.155C299.582,353.859,299.234,351.958,299.324,351.595z"/>
	<path fill="#382426" d="M305.191,282.728c-0.757,1.967-2.875,2.12-5.601,4.995c-2.723,2.877-5.534,6.239-5.751,9.686
		c-0.151,2.422-0.605,4.237,0.604,4.541c1.211,0.302,0.453,3.48,0.76,5.296c0.3,1.815,2.269,3.938,3.023,4.392
		c0.756,0.452,1.21,1.36,1.968,2.117c0.756,0.754,0.455,2.117,0.906,2.426c0.456,0.3,1.213-0.911,1.817-0.763
		c0.604,0.152,1.06,1.667,2.571,0.605c1.514-1.06,1.514,3.479,2.119,6.355c0.605,2.874,1.664,1.362,2.723,1.362
		c1.063,0,1.666,1.208,2.271,1.663c0.604,0.455,2.119-2.726,2.725-2.874c0.604-0.151,0.757,2.874,2.117,3.024
		c1.362,0.155-0.301-1.969,0.304-3.024c0.604-1.06,1.515-0.909,2.727,0.305c0.579,0.578,0.637,0.844,0.623,0.93
		c0.027-0.036,0.102-0.103,0.284-0.177c0.758-0.301,3.479-1.512,5.6-3.323c2.118-1.817,0.605-7.569,0.152-10.9
		c-0.455-3.327,0.453-1.358,1.663-3.479c1.21-2.118,1.969-3.327,1.514-4.39c-0.452-1.059-0.454-3.024,0.302-4.39
		c0.758-1.359-2.269-4.39-3.934-4.841c-1.666-0.454-1.212-1.212-1.515-3.026c-0.303-1.818-1.514-0.305-2.571,0.452
		c-1.062,0.756-0.305,0.757-1.062,1.666c-0.756,0.908-1.059-0.151-2.12-0.304c-1.059-0.151-1.512,0.906-2.422,1.514
		c-0.905,0.605-3.479,0.906-4.084,0.757c-0.604-0.153,0-1.665,0.304-3.48c0.303-1.817-1.513-1.059-2.878-3.937
		c-1.358-2.874-0.604-2.874-1.358-2.874c-0.757,0-1.211-0.456-1.971-0.759C306.253,281.97,305.947,280.761,305.191,282.728z
		 M310.203,296.572c0.635,0.271-0.45,2.079,0.813,1.445c1.265-0.636,1.445-0.361,1.897-1.354c0.451-0.997-0.271-0.813,1.811-1.089
		c2.08-0.27,3.163-1.896,4.249-0.541c1.086,1.356,2.714,5.606,2.714,6.962c0,1.356,0.362,5.426-1.265,6.693
		c-1.632,1.266-3.164,1.354-3.164,3.164c0,1.807-0.907,6.785-2.534,5.518c-1.628-1.269-1.175-5.063-3.438-4.433
		c-2.261,0.632-2.715,1.084-2.715,0.271c0-0.813,0.727-3.979,0.183-4.067c-0.542-0.092-3.979,0.091-4.884-1.177
		c-0.904-1.265-0.451-3.257-1.086-3.348c-0.633-0.09-1.355,0.091-1.445-0.902c-0.18-1.987,1.537-4.791,1.988-4.699
		c0.452,0.092,0.904-1.813,1.447-2.082c0.541-0.271,1.084,2.353,2.532,1.809C308.757,298.198,309.572,296.302,310.203,296.572z"/>
	<path fill="#382426" d="M274.148,439.101c0,1.549,1.721-2.409,2.924-1.372c1.204,1.029,0.688,3.266,1.723,3.608
		c1.027,0.344,3.438-2.407,4.299-1.723c0.86,0.688,1.374-0.516,2.236-1.546c0.856-1.034,0.514-2.409,2.062-3.956
		c1.549-1.545,2.924-2.233,1.205-6.363c-1.72-4.125-4.3-4.644-4.643-3.609c-0.347,1.03-1.204-2.407-1.896-2.922
		c-0.688-0.518-0.345,1.028-1.375,1.546c-1.031,0.516-2.924-5.505-3.784-4.644c-0.857,0.859,0.519,3.61-0.171,4.813
		c-0.688,1.205-1.719-3.098-2.406-2.063c-0.688,1.03,0,1.547,0.858,3.781c0.859,2.239-1.946,1.396-1.549,5.504
		C274.148,435.488,274.148,437.555,274.148,439.101z"/>
	<path fill="#382426" d="M321.446,397.577c2.26-3.531,3.533-6.354,3.533-6.92c0-2.774,1.41-7.201,0.565-10.172
		c-0.849-2.961-1.837-2.683-2.969-4.093c-1.132-1.414-3.249-2.826-3.956-2.4c-0.708,0.421-0.708,0.986-0.708,1.553
		c0,0.563,1.413,2.54,0.853,2.821c-0.566,0.283-1.696-2.541-2.967-2.398c-1.271,0.143-2.118-1.693-2.543-2.399
		c-0.427-0.706-0.706,2.685-1.271,2.259c-0.563-0.423-0.706-2.118-1.553-2.118c-0.851,0,0,1.838-0.99,1.132
		c-0.988-0.705-0.988-1.411-0.988-1.411s-1.27,1.271-1.693-0.144c-0.426-1.414-1.133-0.847-1.133-0.143
		c0,0.706-0.141,1.978-0.847,1.978c-0.707,0-0.987,0.849-0.987,0.849s-0.563,0.283-0.989,0.989c-0.423,0.706,0.426,1.837,0.989,3.39
		c0.563,1.554,1.271,4.519,0.28,3.957c-0.986-0.566-0.422-1.413-1.271-1.271c-0.849,0.141,0.283,1.978-1.551,4.377
		c-1.839,2.403-0.706,4.804-0.706,7.913c0,3.104-0.285,5.226-0.285,5.932s0.424,2.401,0.991,3.813
		c0.365,0.92,0.968,1.656,1.269,2.255c0.027-0.928,0.175-2.195,0.426-2.115c0.424,0.144,0.563,3.676,0.563,4.661
		c0,0.992,0.143-2.824,1.131-2.683c0.986,0.143,0.986,2.119,1.271,3.105c0.281,0.99,0.704,1.696,1.271,0.426
		c0.565-1.272,1.131-2.399,1.555-2.542c0.423-0.146,1.695-0.849,2.26-1.271c0.563-0.424,2.262-0.565,2.262,0.141
		c0,0.705-0.281,3.249-0.281,3.249S319.186,401.107,321.446,397.577z M312.555,396.221c-0.271,0.815-0.183,3.438-1.084,2.17
		c-0.903-1.267-0.992-2.17-1.447-2.17c-0.451,0-0.993,0.183-1.718-3.437c-0.581-2.904,0.36-2.353,1.086-3.255
		c0.724-0.905,0.902-3.979,1.446-4.251c0.543-0.271,2.352,4.065,3.346,3.255c0.994-0.813,1.988-3.077,2.714-2.17
		c0.723,0.905,1.626,4.068,2.078,4.251c0.454,0.179,1.719,1.085,0.726,2.441c-0.996,1.354-2.53,3.163-3.256,3.522
		c-0.724,0.361-0.906,2.17-1.898,0.729C313.552,395.86,312.825,395.41,312.555,396.221z"/>
	<path fill="#382426" d="M294.154,406.05c0.934-1.907,2.465-6.776,3.44-8.055c0.98-1.278,0.339-3.067-0.131-3.41
		c-0.47-0.346-0.743-2.288-0.045-4.747c0.699-2.461,0.6-2.963-0.189-2.521c-0.791,0.438-1.546-0.327-1.78-0.879
		c-0.229-0.553,0.512-4.98,0.013-4.876c-0.498,0.101-1.06,1.09-1.932,2.105c-0.872,1.019-2.107,1.431-2.689,2.104
		c-0.583,0.682-2.064,2.822-2.909,3.391c-0.845,0.571-0.419-0.476-0.381-1.683c0.036-1.207-1.052,0.333-1.561,1.2
		c-0.503,0.857-2.172,3.075-3.92,5.109c-1.744,2.029-3.19,2.967-3.988,4.166c-0.794,1.201-0.094,2.101,1.17,1.241
		c1.268-0.854,1.102,0.296,1.354,1.925c0.248,1.629-0.72,1.384-1.557,4.554c-0.834,3.167,0.833,0.948,0.177,4.803
		c-0.658,3.851,1.278,4.338,0.264,6.821c0,0,0,0,1.575-0.121c1.574-0.117,4.539-3.638,5.699-4.23
		c1.157-0.598,1.579-0.884,3.419-1.655C292.023,410.516,293.222,407.958,294.154,406.05z M287.892,404.786
		c-0.396-0.938,0.612-3.169,0.531-3.688c-0.08-0.522-0.827-1.802-0.622-2.305l-0.015-0.202c0.818-2.011,1.37-1.684,2.924-2.616
		c1.552-0.931,2.313-1.596,2.344-1.191c0.03,0.403,0.256,1.77,0.05,2.271c-0.205,0.503-1.071,1.908-0.254,2.532
		c0.819,0.628,1.146,1.737,0.354,2.001c-0.79,0.265-0.173-1.729-2.054,0.726C289.27,404.763,288.289,405.73,287.892,404.786z"/>
	<path fill="#382426" d="M348.153,349.506c-1.032-7.057-6.189-10.66-9.802-13.24c-3.609-2.577-5.675-7.565-7.05-7.91
		c-1.377-0.345-3.958-1.722-6.192-1.55c-2.232,0.175-2.232,0-2.752-0.859c-0.515-0.861,1.551,4.47,0.346,5.504
		c-1.204,1.034-1.377,0.86-2.236,3.096c-0.856,2.238,0.173,5.678,1.549,8.944c1.377,3.267,1.551,6.188,1.033,6.705
		c-0.516,0.516-2.752,0.171-2.409,4.643c0.346,4.473,4.646,8.941,5.504,12.208c0.86,3.271,2.408,7.057,2.751,7.569
		c0.346,0.516,0.688,3.44,5.332,1.546c4.644-1.887,5.331,1.034,6.191-0.171c0.856-1.204,0-5.159,1.2-5.33
		c1.204-0.174,1.375,2.235,1.722,0.859c0.346-1.377-0.347-3.611,0.517-4.127c0.861-0.52,2.063,0.688,1.893-2.063
		c-0.174-2.751-0.858-5.848,0-5.503C346.606,360.17,349.186,356.556,348.153,349.506z M338.18,359.306
		c-1.204,1.379-4.128,2.064-6.363,1.892c-2.234-0.168-1.548-6.534-1.375-8.426c0.171-1.891-1.72-6.363-2.063-9.113
		c-0.347-2.75,0.515-2.062,2.405-1.547c1.894,0.516,1.377-0.688,2.578-1.378c1.205-0.688,3.542,0.401,6.88,8.082
		C343.684,356.73,339.384,357.928,338.18,359.306z"/>
	<path fill="#382426" d="M374.655,329.19c-4.479-2.393-11.644-10.749-11.939-6.87c-0.299,3.882-1.492,5.523-5.228,8.658
		c-3.729,3.138-4.178,3.885-4.478,8.66c-0.298,4.771-3.154,7.085-1.79,12.533c1.79,7.165,4.773,8.81,5.971,10.304
		c1.193,1.492,1.94,3.88,3.433,3.58c1.492-0.296,3.584,4.479,4.18,5.374c0.6,0.895,1.792-1.196,1.94-3.436
		c0.148-2.238,2.535-1.342,3.132-3.133c0.601-1.795,1.794-1.345,2.986-5.374c1.195-4.032,1.94,0,2.539-0.896
		c0.596-0.896,2.089-4.324,2.537-6.42c0.449-2.088-1.045-7.165,0.299-11.047C379.577,337.249,379.132,331.579,374.655,329.19z
		 M371.071,352.025c-1.49,1.492-3.729,4.18-5.074,3.283c-1.343-0.896-1.343-3.137-2.09-2.536c-0.746,0.598,0.149,3.881-0.896,3.135
		c-1.044-0.746-1.342-2.537-1.939-3.283c-0.599-0.746-0.148,3.73-1.193,1.045c-1.048-2.688,0.147-3.434,0-5.225
		c-0.451-5.428,1.345-7.761,4.329-9.256c2.983-1.493,4.237-1.493,4.237-0.146c0,1.344,1.435,3.878,1.881,6.12
		C370.774,347.398,372.564,350.533,371.071,352.025z"/>
	<path fill="#382426" d="M343.338,303.931c-1.376-2.405-1.722,1.721-2.406,0.172c-0.688-1.546-0.859-3.439-1.376-2.235
		c-0.519,1.204-3.955,9.458-3.955,14.445c0,4.989,1.892,4.302,0.518,7.91c-1.376,3.613-0.518,7.055,2.063,7.396
		c2.581,0.347,10.489-1.72,11.521-11.181C350.429,313.771,344.716,306.34,343.338,303.931z"/>
	<path fill="#382426" d="M356.406,389.922c0.861-1.034,0.52-2.409,2.064-3.958c1.549-1.55,2.924-2.232,1.203-6.362
		c-1.722-4.127-4.301-4.643-4.645-3.611c-0.346,1.031-1.206-2.405-1.893-2.922c-0.688-0.52-0.344,1.032-1.376,1.547
		c-1.031,0.516-2.923-5.505-3.782-4.644c-0.86,0.857,0.516,3.611-0.173,4.813c-0.688,1.204-1.719-3.093-2.408-2.062
		c-0.686,1.029,0,1.55,0.861,3.779c0.857,2.236-1.946,1.396-1.547,5.502c0.515,5.334,0.515,7.396,0.515,8.945
		c0,1.546,1.718-2.409,2.923-1.376s0.688,3.27,1.719,3.61c1.033,0.342,3.441-2.406,4.3-1.721
		C355.031,392.155,355.549,390.951,356.406,389.922z"/>
	<path fill="#382426" d="M341.849,462.03c0.916-0.228-0.229-2.062-1.146-3.438c-0.916-1.375,0.457-1.146,0.688-3.209
		c0.229-2.063,0-3.896-0.688-5.502c-0.688-1.604-1.377-2.523-1.146-4.357c0.229-1.833-1.376-0.229-2.752,0.229
		c-1.374,0.462-0.229-0.688,0.229-1.834c0.459-1.146-1.373-2.063-2.521-2.063c-1.146,0-0.688-2.979-1.834-1.834
		c-1.147,1.146-0.917,1.606-1.147,3.897c-0.228,2.296,0-2.291-1.375-1.604c-1.376,0.688-2.063,1.604-2.521,3.67
		c-0.458,2.063-1.604,2.297-2.293,3.44c-0.689,1.145-0.458,3.438-0.458,3.438s1.376,0.917,1.376,2.063
		c0,1.145,0.682,3.579,1.604,6.189c1.376,3.9,3.667,5.963,5.043,5.963s2.294,1.375,2.755,0.688c0.458-0.688,0-2.292,0.687-2.292
		c0.688,0,2.753-3.21,3.44-4.357C340.471,459.969,340.932,462.261,341.849,462.03z M336.719,454.322
		c-0.813,1.085-3.075,3.349-3.708,3.708c-0.631,0.361-2.079-1.177-2.44-1.632c-0.361-0.448-1.176-1.535-1.176-1.535
		c-0.451-3.163,1.898,0,1.719-3.522c-0.182-3.529,0-4.161,0.994-2.806c0.995,1.356,1.085,5.063,2.983,4.25
		C336.989,451.973,337.531,453.237,336.719,454.322z"/>
	<path fill="#382426" d="M352.453,474.068c-0.425,1.272-0.705,3.109-0.848,1.836c-0.142-1.27-0.707-2.257-1.413-2.967
		c-0.704-0.703-1.411-1.977-1.692-2.824c-0.279-0.847-0.564-2.822-0.564-2.822s-0.142,1.554-1.273,1.836
		c-1.127,0.279-0.422-3.392-1.553-3.392c-1.129,0-0.139,1.413-0.282,3.107c-0.14,1.691-0.704-0.848-1.411,1.271
		c-0.707,2.121-0.849,5.085-0.849,6.498c0,1.415-0.848-0.563-1.694,0.424c-0.772,0.903-0.189,2.617-0.072,3.34h13.884
		c-0.56-1.449-0.913-2.75-1.098-3.055C353.16,476.611,352.88,472.8,352.453,474.068z"/>
	<path fill="#382426" d="M377.127,460.863c-2.562-4.044-1.604-7.589-5.902-11.205c-5.654-4.751-9.036-4.331-10.877-4.842
		c-1.844-0.503-3.851-2.004-4.882-0.889c-1.035,1.122-5.529-1.522-6.537-1.896c-1.009-0.376-0.748,2.019,0.44,3.918
		c1.191,1.902-1.27,2.577-0.696,4.377c0.563,1.799-0.663,2.139,0.729,6.104c1.397,3.964-1.568,1.137-1.527,2.213
		s0.846,4.731,1.709,6.687c0.862,1.956,5.05,5.188,6.234,9.12c0.653,2.155,1.743,4.425,3.704,5.927h19.673
		c-1.911-3.196-1.775-5.243-0.619-9.872C379.762,465.773,379.685,464.907,377.127,460.863z M368.323,467.793
		c-1.543,2.955-2.56,3.695-3.347,2.604c-0.787-1.089-3.438-2.301-5.111-3.854c-1.676-1.549-4.965-3.037-4.633-5.117
		c0.332-2.085,0.571-5.576,2.185-5.642c1.612-0.063,2.929,1.752,3.184,0.83c0.255-0.921-2.396-3.056-1.114-3.062
		c1.285-0.01,2.575,1.267,3.498,1.521c0.921,0.254-2.065-3.112,0.354-1.549c2.422,1.565,1.895,2.871,3.063,4.231
		C369.948,461.888,369.864,464.832,368.323,467.793z"/>
	<path fill="#382426" d="M283.398,383.816c0.614-1.035,0.931-1.927,2.283-2.654c1.356-0.722,0.98,4.05,1.9,2.421
		c0.924-1.623,2.168-4.59,3.671-5.311c1.505-0.726,1.173,1.356,2.104-1.016c0.938-2.37,4.021-1.658,4.452-7.389
		c0.573-7.601-4.918-9.635-5.511-9.794c-0.595-0.16-0.546-3.144-1.436-3.608c-0.889-0.463-0.651,3.428-2.075-0.777
		c-1.428-4.203-5.708-6.959-7.914-9.087c-2.202-2.128-4.114-3.8-4.432-2.908c-0.312,0.889-0.899,0.432-1.933-0.481
		c-1.029-0.913-2.963-1.392-3.55-1.848c-0.33-0.254-0.704-0.322-0.883,0.307v0.175c-0.081,0.403-0.095,1.033,0,1.971v0.356
		c0.021,0.192,0.048,0.394,0.076,0.611c0.32,2.218,0.251,2.119-0.076,2.044v-0.008c-0.229-0.049-0.563-0.049-0.976,0.631
		c-1.076,1.771,0.573,1.502,0.086,3.886c-0.485,2.378-1.664-2.564-2.998,0.694c-1.337,3.264-0.581,8.056-0.928,11.031
		c-0.348,2.979-3.868,8.146-5.096,10.219c-1.229,2.069-0.234,5.219,0.194,6.121c0.438,0.907,0.871,1.658,0.707,2.55
		c-0.162,0.896,0.367,4.936,0.811,5.388c0.438,0.455-0.023,1.349,0.561,2.102c0.583,0.757,1.498-0.275,2.531,0.491
		c1.028,0.761,0.724,1.354,1.874,0.177c1.153-1.173,1.1,0.469,1.684,1.222c0.435,0.563,1.021,1.443,1.55,1.515v0.002
		c0.171,0.012,0.335-0.067,0.484-0.284c0.611-0.886,1.796-0.271,4.217-2.318c2.425-2.051,4.72-5.296,6.983-7.051
		C284.036,381.433,282.785,384.847,283.398,383.816z M276.742,380.12c-1.047-0.014,0.668-4.315-0.525-4.482
		c-1.188-0.174-1.331-0.621-1.764-1.521c-0.435-0.905-1.185-0.77-1.91-1.825c-0.731-1.057-1.89-3.313-1.396-5.995
		c0.493-2.677,0.664-4.018,0.981-5.207c0.316-1.188,1.852-3.552,2.596-3.54c0.747,0.013,0.712,2.104,1.618,1.521
		c0.904-0.585,2.563-1.604,2.854-1.001c0.287,0.604,0.029,7.167,1.8,8.688c1.767,1.524,4.646-1.264,5.174,3.074
		c0.214,1.781-1.34-0.175-2.28,2.497C282.947,375.001,277.786,380.138,276.742,380.12z"/>
	<path fill="#382426" d="M302.659,408.174c0.102-0.246,0.021-0.531-0.143-0.853C302.5,407.979,302.544,408.466,302.659,408.174z"/>
	<path fill="#382426" d="M324.595,435.488c0.688-0.342,0.343,0,2.063-0.168c1.722-0.174,1.894,0.168,3.269-0.688
		c1.377-0.858,2.064,0,3.095-0.687c1.032-0.688,0.86,1.543,1.894,0.514c1.031-1.031,0.858-1.545,2.063-3.268
		c1.204-1.718,3.956-2.407,5.674-2.925c1.722-0.517,1.722,1.548,2.752,0.174c1.033-1.376,0.172-1.891,2.408-3.956
		c2.236-2.063,2.236-1.549,2.924-2.58c0.688-1.03,2.236-6.188,2.924-8.597c2.772-9.708-1.893-13.585-2.234-14.79
		c-0.345-1.203-2.752,2.063-3.098-0.342c-0.343-2.406-0.516-2.756-1.377-2.58c-0.855,0.174-1.718-1.034-3.265-3.101
		c-1.549-2.063-1.895-4.984-2.065-6.017s-2.063,1.374-2.577-0.688c-0.516-2.062-1.549-2.581-2.063-3.439
		c-0.514-0.858-2.063-2.751-2.233-2.233c-0.174,0.513,0.346,2.233-0.688,2.233c-1.032,0-1.375-0.347-2.235,0.688
		c-0.857,1.034-3.095,5.16-3.783,8.6c-0.688,3.441-1.719,12.214-0.688,12.04c1.034-0.173,1.549-1.201,2.408-0.69
		c0.858,0.521-0.171,4.301-1.03,4.99c-0.86,0.688-2.063,2.58-2.407,1.028c-0.344-1.546,0.172-2.754-1.03-1.375
		c-1.203,1.375-1.72,3.611-1.894,5.158c-0.172,1.548-1.033,6.021-1.721,6.883c-0.688,0.856,0.173,3.953,1.205,4.124
		c1.031,0.175,2.063,3.438,1.891,4.472c-0.171,1.034-1.375,3.613-0.171,3.441C325.798,431.535,323.906,435.832,324.595,435.488z
		 M332.85,407.632c0.514-3.608,0.514-2.578,1.03-3.095c0.518-0.516,0.86-3.609,1.55-3.096c0.688,0.515,2.232,1.034,2.75,0.173
		c0.515-0.859,2.236,0.342,4.126,2.063c1.893,1.72,6.974,1.229,6.363,8.255c-0.346,3.955-3.27,3.955-5.678,4.127
		c-2.403,0.17-2.23,0.345-3.607,1.029c-1.376,0.688-0.859-0.516-1.722-0.171c-0.858,0.343-0.858-0.516-1.376-1.549
		c-0.517-1.032-1.375-1.202-2.579-0.688C332.507,415.198,332.334,411.243,332.85,407.632z"/>
	<path fill="#382426" d="M277.233,465.427c-0.346-3.135-0.923-2.983-2.765-4.328c-1.844-1.34,2.094-11.205,1.517-12.845
		c-0.39-1.114-3.653-2.659-5.903-3.652c-1.319-0.612-2.414-1.017-2.632-0.96c-0.576,0.148,0.113,1.645,0.113,2.24
		c0,0.597-0.575-0.149-1.036,0.444c-0.459,0.6,0.116,1.347,0,1.943c-0.111,0.595-2.61,8.946-3.302,9.248
		c-0.694,0.295-1.728,5.969-1.962,9.552c-0.228,3.579,0.482,7.557,0.727,9.185c0.134,0.903,0.134,2.917-0.051,4.119h4.98
		c-0.085-1.052,0.037-3.554,0.203-4.255c0.46-1.938,0.823-2.933,1.056-4.425c0.229-1.489,1.034-0.146,1.265-0.896
		c0.23-0.746,0.23-2.235,0.117-3.879c-0.064-0.941,0.174,0.039,0.521,1.186v12.27l12.385,0.012c0.499-3.381-1.688-6.325-3.618-8.238
		C276.888,470.201,277.578,468.563,277.233,465.427z"/>
	<path fill="#382426" d="M294.662,310.88c-2.141-7.064-5.203-8.562-6.47-9.992c-1.267-1.433-2.127-3.78-3.604-3.409
		c-1.479,0.371-3.798-4.297-4.438-5.162c-0.64-0.865-1.729,1.28-1.77,3.521c-0.04,2.247-2.469,1.469-2.979,3.284
		c-0.508,1.818-1.722,1.434-2.719,5.515c-0.994,4.085-1.938,0.099-2.489,1.02l-0.115,0.226v0.07
		c-0.612,1.206-1.75,4.302-2.066,6.242c-0.348,2.108,1.395,7.103,0.242,11.043c-0.914,3.137-0.637,7.344,1.824,10.023v0.044
		c0.625,0.673,1.384,1.25,2.304,1.686c4.591,2.164,12.157,10.163,12.263,6.271c0.108-3.891,1.22-5.594,4.794-8.904
		c3.573-3.313,3.984-4.08,4.048-8.865C293.553,318.705,296.29,316.26,294.662,310.88z M286.198,315.031
		c0.721,5.399-0.96,7.817-3.867,9.457c-2.908,1.638-4.161,1.697-4.229,0.356c-0.063-1.345-1.622-3.811-2.177-6.021
		c-0.56-2.215-2.5-5.26-1.083-6.821c1.419-1.563,3.521-4.356,4.908-3.529c1.385,0.831,1.496,3.063,2.213,2.435
		c0.713-0.633-0.339-3.87,0.74-3.176c1.077,0.692,1.466,2.469,2.098,3.185c0.634,0.716-0.033-3.732,1.143-1.099
		C287.118,312.445,285.962,313.249,286.198,315.031z"/>
	<path fill="#382426" d="M314.95,477.497c-0.632-0.141-3.979,1.409-5.354,2.878h7.267c0.015-0.059,0.319-0.613,0.357-0.714
		c0.628-1.62,1.107-2.804,1.107-2.804S315.682,477.659,314.95,477.497z"/>
	<path fill="#382426" d="M319.449,477.85c0,0-1.307,1.958-2.021,2.524h2.788C320.589,478.821,319.449,477.85,319.449,477.85z"/>
	<path fill="#382426" d="M324.882,461.003c-0.314-0.185-0.678-0.479-0.994-1.122c-0.212-0.436-0.364-0.72-0.492-0.912
		c-0.321-0.481-0.484-0.378-0.992-0.492c-0.1-0.023-0.218-0.056-0.35-0.104c-1.07-0.368-1.35-1.563-2.121-2.601
		c-0.775-1.033-1.417-0.593-2.178-0.16c-0.764,0.436-0.438-0.713-0.947-0.361c-0.515,0.354-0.364,1.637-1.993,2.301
		c-0.306,0.123-0.563,0.148-0.781,0.112c-0.938-0.165-1.149-1.565-1.533-1.754c-0.47-0.229-1.617,2.129-2.57,3.527
		c-0.954,1.396-4.299,3.79-4.752,8.35c-0.118,1.188-0.176,2.137-0.182,2.893c-0.004,0.378,0.006,0.712,0.023,0.993
		c0.012,0.147,0.023,0.274,0.038,0.403c0.13,1.104,0.451,1.406,0.79,1.434c0.532,0.04,2.056,1.723,2.647,2.483
		c0.085,0.109,0.151,0.2,0.191,0.265c0.328,0.515,0.525-0.547,2.009-0.828c1.48-0.279,2.577-0.296,2.984-0.854
		c0.402-0.556,1.148-0.795,2-0.73c0.848,0.062,1.325-1.471,1.751-2.314c0.429-0.852,0.905-0.718,2.38-0.898
		c1.472-0.187,3.262-2.984,3.761-3.146c0.497-0.161,1.047-0.999,1.381-2.246c0.335-1.248,0.492-1.725,0.717-3.075
		c0.024-0.172,0.03-0.306,0.021-0.416C325.641,461.301,325.302,461.25,324.882,461.003z M319.383,464.923
		c-0.313,0.856-1.699,3.199-2.143,2.579c-0.438-0.617-1.021-0.953-1.834,0.157c-0.813,1.115-0.99,1.884-1.945,1.616
		c-0.955-0.265-1.031-0.857-1.459-0.009c-0.428,0.847-2.854,0.767-2.802-0.011c0.062-0.776-1.44-0.206-0.814-2.113
		c0.059-0.176,0.249-0.342,0.529-0.499c1.222-0.681,4.155-1.264,5.546-2.67c1.064-1.083,1.94-2.104,2.59-2.634
		c0.389-0.319,0.693-0.46,0.915-0.334c0.145,0.085,0.192,0.228,0.196,0.398c0.011,0.353-0.165,0.821-0.127,1.172l0.077,0.238
		l0.192,0.168C319.01,463.332,319.688,464.068,319.383,464.923z"/>
	<path fill="#382426" d="M306.871,458.618c0.295-0.963,1.299-0.534,2.732-2.911c1.435-2.382,2.549-5.911,3.924-7.977
		c1.373-2.063,1.074,1.475,1.341,0.367c0.271-1.108,0.336-2.033,1.221-2.948c0.883-0.914,1.493,3.831,1.882,2.093
		c0.387-1.735,0.766-4.835,1.759-5.769c0.995-0.938,1.137,1.158,1.396-1.313c0.257-2.474,2.705-2.235,1.954-7.928
		c-0.994-7.555-5.499-8.724-5.977-8.794c-0.478-0.063-0.998-3.004-1.754-3.325c-0.752-0.322,0.151,3.463-1.703-0.455
		c-1.858-3.913-6.89-1.501-8.943-3.258c-2.055-1.76-2.913-2.528-2.979-1.606c-0.07,0.925-0.661-1.778-1.605-2.521
		c-0.943-0.743-2.354,0.354-2.826,2.258c-0.479,1.909-1.842,0.604-1.761,3.017c0.08,2.408-2.59-0.422-2.979,2.979
		c-0.392,3.406,4.485,6.94,4.782,9.918c0.299,2.978-1.377,8.583-1.91,10.799c-0.534,2.224,0.803,5.166,1.299,5.988
		c0.494,0.817,0.962,1.493,1.003,2.396c0.047,0.903,1.201,4.791,1.619,5.171c0.418,0.379,0.232,1.32,0.813,1.978
		c0.582,0.655,1.075-0.495,1.992,0.104c0.918,0.596,0.799,1.223,1.442-0.104c0.646-1.331,0.914,0.291,1.495,0.944
		C305.669,458.38,306.576,459.579,306.871,458.618z M304.554,438.409c-0.744-0.928-2.037-2.97-2.171-5.675
		c-0.133-2.705-0.255-4.049-0.237-5.265c0.015-1.218,0.723-3.771,1.284-3.867c0.563-0.101,0.93,1.955,1.499,1.246
		c0.571-0.705,1.628-1.953,1.957-1.407c0.331,0.548,1.367,7.035,2.979,8.265s3.253-1.94,4.461,2.239
		c0.497,1.717-1.039,0.031-1.243,2.798c-0.203,2.766-3.114,8.589-3.902,8.729c-0.79,0.139-0.312-4.34-1.236-4.328
		c-0.928,0.012-1.115-0.407-1.611-1.229C305.837,439.094,305.301,439.34,304.554,438.409z"/>
	<path fill="#382426" d="M362.082,439.791c2.407-1.376,3.268-1.03,3.783-1.03s2.58-1.378,4.301-2.411
		c1.721-1.027,1.55-1.718,3.782-2.402c2.234-0.688,3.613-6.881,4.127-8.948c0.518-2.062-0.688-3.264-1.719-3.949
		c-1.034-0.688-1.72-2.408-2.237-3.271c-0.517-0.858-2.232-0.345-3.78-0.345c-1.551,0-0.862-1.546-1.894-1.72
		c-1.029-0.172-1.893,0.174-3.785,1.375c-1.891,1.204-4.684,1.198-5.157,4.988c-0.346,2.751-0.859,4.302-1.376,5.33
		c-0.516,1.032,0.858,1.723,1.721,2.578c0.859,0.86-0.345,3.271-0.86,4.129c-0.515,0.859-1.89,1.893-1.374,2.063
		s1.719-0.347,2.234,0.346c0.516,0.688-0.345,1.207-0.345,2.063C359.503,439.446,359.676,441.168,362.082,439.791z"/>
	<path fill="#382426" d="M295.275,449.239c-0.605-0.144-1.67-1.839-1.974-4.38c-0.304-2.542-0.609-2.968-1.214-2.261
		c-0.608,0.705-1.674,0.282-2.128-0.14c-0.456-0.426-1.521-4.806-1.978-4.521c-0.455,0.283-0.605,1.411-1.063,2.682
		c-0.454,1.272-1.521,2.122-1.823,2.969c-0.305,0.85-0.911,3.393-1.519,4.239c-0.609,0.847-0.609-0.284-1.063-1.415
		c-0.457-1.131-0.911,0.709-1.063,1.697c-0.15,0.986-0.911,3.67-1.823,6.213c-0.911,2.544-1.976,3.956-2.278,5.367
		c-0.305,1.413,0.759,1.977,1.67,0.707c0.911-1.271,1.216-0.145,2.13,1.27c0.909,1.413-0.151,1.558,0.304,4.807
		c0.455,3.246,1.215,0.563,2.128,4.379c0.908,3.81,3.036,3.531,3.036,6.215c0,0,0,0,1.521-0.706c1.52-0.707,3.04-5.086,3.951-6.075
		c0.91-0.986,1.214-1.412,2.73-2.824c1.521-1.411,1.675-4.235,1.823-6.354c0.151-2.119-0.303-7.205,0.151-8.757
		C297.251,450.791,295.885,449.38,295.275,449.239z M292.718,457.33c-0.632,0.543-0.813-1.542-1.627,1.445
		c-0.814,2.984-1.357,4.25-2.081,3.526c-0.723-0.726-0.631-3.163-0.903-3.617c-0.271-0.452-1.444-1.354-1.444-1.898l-0.093-0.18
		c0-2.17,0.636-2.079,1.72-3.524c1.086-1.448,1.534-2.354,1.719-1.99c0.18,0.36,0.901,1.533,0.901,2.079
		c0,0.545-0.27,2.173,0.727,2.44C292.627,455.885,293.354,456.786,292.718,457.33z"/>
	<path fill="#382426" d="M334.24,474.954c-1.921-0.768-2.688-1.533-4.226-1.148c-1.535,0.38-0.384,2.688-0.764,3.841
		c-0.255,0.746-1.064,1.659-1.986,2.729h9.925c-0.077-0.894-0.152-1.72-0.258-2.349C336.548,475.722,336.16,475.722,334.24,474.954z
		"/>
	<path fill="#382426" d="M204.185,225.372c0.487,0.146,0.491,3.072,1.226,3.514c0.732,0.44,0.488-3.366,1.711,0.729
		c1.226,4.096,4.773,6.729,6.607,8.781c1.837,2.045,3.432,3.657,3.672,2.774c0.246-0.874,0.734-0.436,1.594,0.44
		c0.854,0.875,2.447,1.313,2.938,1.754c0.487,0.439,1.1,0.293,0.61-3.364c-0.488-3.657,0-0.877,0.857-2.633
		c0.855-1.758-0.491-1.463-0.126-3.803c0.368-2.344,1.397,2.482,2.451-0.733c1.046-3.218,0.362-7.896,0.608-10.82
		c0.094-1.112,0.559-2.54,1.149-3.995c-3.724-3.798-7.242-7.672-10.521-11.619c-0.038,1.255-0.495,3.368,0.192,3.472
		c0.979,0.146,1.102,0.583,1.469,1.461c0.365,0.881,0.979,0.733,1.591,1.759c0.613,1.022,1.591,3.221,1.226,5.854
		c-0.367,2.633-0.493,3.948-0.734,5.12c-0.244,1.168-1.471,3.51-2.08,3.51c-0.612,0-0.612-2.05-1.35-1.465
		c-0.729,0.586-2.078,1.607-2.32,1.025c-0.246-0.588-0.123-7.022-1.596-8.481c-1.467-1.465-3.793,1.313-4.279-2.931
		c-0.203-1.744,1.101,0.147,1.836-2.485c0.663-2.377,4.114-6.774,5.406-7.604c-1.051-1.278-2.074-2.566-3.072-3.862
		c-0.248,0.283-0.496,0.551-0.744,0.788c-1.838,1.757-0.855-1.607-1.349-0.583c-0.489,1.021-0.73,1.897-1.831,2.633
		c-1.104,0.73-0.857-3.951-1.596-2.342c-0.731,1.606-1.713,4.532-2.938,5.267c-1.224,0.731-0.979-1.317-1.713,1.024
		c-0.732,2.341-3.271,1.693-3.548,7.313C199.167,223.323,203.694,225.226,204.185,225.372z"/>
	<path fill="#382426" d="M198.462,181.106c1.426,1.977,2.624,2.314,3.583,2.891c-1.518-2.85-2.896-5.727-4.105-8.631h-4.132
		c0.16,0.572,0.413,1.335,1.108,2.502C196.587,180.684,196.175,177.94,198.462,181.106z"/>
	<path fill="#382426" d="M238.604,228.663c-0.083-0.005-0.169-0.015-0.26-0.032c-0.496-0.092-0.951-0.466-1.216-1.282
		c-2.307-2.059-4.562-4.141-6.753-6.248c0.042,2.871,0.723,5.521,1.272,7.71c1.078,4.304-0.578,9.441,0.247,10.593
		c0.824,1.154,1.899,3.874,3.716,5.188c1.813,1.317,1.703,1.449,1.536,2.44c-0.16,0.985,1.722-4.411,3.303-4.418
		c1.589-0.008,1.606,0.235,3.712-0.913c1.558-0.848,2.752-2.876,3.699-5.245C244.702,233.904,241.61,231.306,238.604,228.663z"/>
	<path fill="#382426" d="M269.351,252.72c-1.619-1.1-3.229-2.206-4.835-3.327c-0.407,1.995-0.048,6.325-0.361,8.928
		c-0.329,2.742-0.804,1.938-2.048,1.143c-1.246-0.795-1.133,0.463-2.137,0.947c-1.007,0.488-2.45-0.936-3.23-8.959
		c-0.351-3.592,0.082-5.718,0.776-7.071c-1.348-0.986-2.686-1.983-4.016-2.988c-0.892,1.555-1.875,4.259-2.285,8.174
		c-0.741,7.058,2.198,11.375,4.242,14.451c2.044,3.078,2.478,8.271,3.392,8.817s-0.333,8.406,1.306,8.582
		c1.636,0.174,1.602,0.344,1.79,1.264c0.104,0.516,1.572-0.383,3.029-1.41v-0.025c1.12-0.795,2.229-1.662,2.695-2.021
		c1.08-0.824-0.88-8.725,0.204-10.772c1.085-2.057,1.065-5.578,0.766-8.983s0.19-6.288,0.67-6.718L269.351,252.72z"/>
	<path fill="#382426" d="M331.971,289.748c0.145,2.684,0.762,3.844,1.159,5.488c0.553,2.268,2.118,1.283,3.112,3.08
		c0.992,1.796,2.108,1.06,3.034,1.249c0.925,0.188,1.862,0.612,3.007,0.563c1.146-0.048-1.757-3.601,1.461-3.506
		c0.732,0.022,1.161-0.15,1.425-0.458C340.826,294.123,336.42,291.982,331.971,289.748z"/>
	<path fill="#382426" d="M293.24,268.371c-0.146,0.709,0.161,1.189,0.161,2.521c0,2.295-0.918,5.048-2.752,5.272
		c-1.835,0.229-7.337,1.377-8.483,1.377s-1.146-0.461-1.832-3.213c-0.688-2.749-1.604-2.749-0.919-4.582
		c0.688-1.834,1.379-2.981,1.379-2.981c0.474-2.531-0.473-4.408,0.331-5.855c-1.214-0.771-2.429-1.553-3.638-2.339
		c-0.19,0.648-0.322,1.194-0.367,1.549c-0.228,1.832,1.379,3.209,2.295,2.293c0.919-0.92,1.146,1.604,0.229,3.208
		c-0.916,1.604-0.688,1.604-2.523,2.294c-1.833,0.688-3.438-2.294-2.521,2.979c0.915,5.272,2.063,13.3,2.063,13.3
		s1.375,4.131,2.521,3.215c1.146-0.922,2.063-1.84,2.292-0.922c0.229,0.922,0.459,3.443,1.375,2.984
		c0.917-0.461,2.064-1.148,2.98-1.605c0.918-0.457,1.146-0.457,2.063-0.918c0.916-0.461,2.065-0.688,3.21-1.836
		c1.146-1.146,1.605-0.459,2.751-3.441c1.147-2.979,1.835-4.813,2.065-5.961c0.545-2.729,2.291,0.232,4.126-2.29
		c0.188-0.264,0.356-0.512,0.521-0.758C298.134,271.26,295.688,269.829,293.24,268.371z"/>
	<path fill="#382426" d="M349.156,298.221c1.373,4.216,4.937,5.363,5.406,5.467c0.604,0.136,0.688,3.116,1.598,3.538
		c0.906,0.426,0.496-3.445,2.107,0.688c1.612,4.139,6.015,6.698,8.311,8.723c2.301,2.023,4.286,3.61,4.562,2.707
		c0.271-0.902,0.882-0.475,1.951,0.392c1.068,0.864,3.021,1.26,3.634,1.688c0.609,0.432,1.35,0.26,0.646-3.45
		c-0.703-3.714-0.024-0.899,0.968-2.722c0.995-1.814-0.639-1.473-0.262-3.873c0.334-2.103,1.448,1.396,2.521,0.049
		C371.4,307.887,360.695,303.461,349.156,298.221z"/>
	<path fill="#382426" d="M147.909,206.718c-1.538-2.688-2.308-8.453-3.844-11.144c-1.538-2.687-3.842-3.071-6.917-3.839
		c-3.069-0.771-7.297-8.836-8.449-9.989c-0.871-0.871-1.087-3.938-1.304-6.381h-9.898c-0.308,0.339-0.604,0.696-0.867,1.069v8.831
		c0.267,0.467,0.565,0.954,0.93,1.477c3.457,4.992,4.072,13.346,3.843,16.135c-0.387,4.61,1.92,6.146,3.454,6.146
		c1.538,0,1.923-0.384,3.458-0.384c1.539,0,1.539,0.771,3.074,2.688c1.536,1.922,0-2.688,1.922-1.146
		c1.92,1.53,1.92,3.454,3.839,5.356c1.921,1.911,1.537-3.827,3.844-5.356C143.298,208.638,149.444,209.408,147.909,206.718z
		 M132.6,202.219c-1.116,1.491-2.791,4.179-3.798,3.284c-1.004-0.896-1.004-3.136-1.563-2.536c-0.559,0.595,0.11,3.878-0.671,3.134
		c-0.781-0.75-1.005-2.539-1.45-3.288c-0.447-0.743-0.111,3.734-0.896,1.047c-0.782-2.688,0.112-3.431,0-5.224
		c-0.338-5.433,1.005-7.763,3.239-9.255c2.231-1.492,3.173-1.492,3.173-0.146c0,1.343,1.072,3.881,1.407,6.119
		C132.377,197.589,133.716,200.726,132.6,202.219z"/>
	<path fill="#382426" d="M120.387,231.82c-0.626-2.501-2.139-3.975-3.757-4.876v23.75c0.227-0.622,0.418-1.271,0.546-1.909
		c0.688-3.438,2.752-4.354,3.21-6.419c0.458-2.063,1.375-0.687,2.522-1.376C124.056,240.302,121.534,236.404,120.387,231.82z"/>
	<path fill="#382426" d="M116.914,292.264c-0.111-0.03-0.191-0.066-0.284-0.102v28.566c0.198-0.152,0.396-0.306,0.586-0.467
		c2.119-1.817,0.604-7.569,0.153-10.9c-0.455-3.327,0.451-1.358,1.661-3.48c1.212-2.117,1.97-3.326,1.515-4.389
		c-0.452-1.059-0.455-3.024,0.302-4.39C121.605,295.746,118.578,292.719,116.914,292.264z"/>
	<path fill="#382426" d="M138.386,349.506c-1.033-7.057-6.191-10.66-9.802-13.24c-3.611-2.577-5.675-7.565-7.05-7.91
		c-1.118-0.28-3.029-1.229-4.904-1.486v41.092c0.881,3.025,2.183,6.188,2.495,6.654c0.345,0.516,0.688,3.44,5.332,1.546
		c4.643-1.887,5.33,1.034,6.188-0.171c0.859-1.204,0-5.159,1.204-5.33c1.203-0.174,1.375,2.235,1.72,0.859
		c0.347-1.377-0.344-3.611,0.519-4.127c0.858-0.52,2.063,0.688,1.891-2.063s-0.858-5.848,0-5.503
		C136.839,360.17,139.417,356.556,138.386,349.506z M128.412,359.306c-1.204,1.379-4.127,2.064-6.363,1.892
		c-2.235-0.168-1.547-6.534-1.376-8.426c0.172-1.891-1.718-6.363-2.063-9.113c-0.345-2.75,0.517-2.062,2.406-1.547
		c1.895,0.516,1.377-0.688,2.581-1.378c1.204-0.688,3.54,0.401,6.879,8.082C133.916,356.73,129.615,357.928,128.412,359.306z"/>
	<path fill="#382426" d="M141.653,398.517c-0.344-1.203-2.752,2.063-3.096-0.344c-0.343-2.404-0.515-2.754-1.375-2.578
		c-0.859,0.174-1.719-1.034-3.266-3.101c-1.552-2.063-1.896-4.984-2.065-6.017c-0.172-1.032-2.063,1.374-2.58-0.688
		c-0.516-2.063-1.546-2.581-2.063-3.439s-2.063-2.751-2.234-2.233c-0.172,0.513,0.345,2.233-0.688,2.233
		c-1.033,0-1.376-0.347-2.236,0.688c-0.859,1.034-3.094,5.16-3.784,8.6c-0.688,3.441-1.718,12.214-0.688,12.04
		c1.032-0.173,1.549-1.201,2.408-0.69c0.859,0.52-0.172,4.301-1.03,4.99c-0.805,0.643-1.899,2.321-2.324,1.299v26.064
		c0.088-0.009,0.16-0.012,0.261-0.021c1.719-0.174,1.892,0.168,3.268-0.688c1.377-0.858,2.063,0,3.096-0.687
		c1.032-0.688,0.858,1.543,1.892,0.515c1.031-1.032,0.859-1.546,2.063-3.269c1.204-1.718,3.956-2.407,5.675-2.925
		c1.72-0.516,1.72,1.548,2.751,0.174c1.033-1.376,0.172-1.891,2.408-3.956c2.233-2.063,2.233-1.549,2.922-2.58
		c0.688-1.03,2.236-6.189,2.924-8.597C146.661,403.599,141.997,399.722,141.653,398.517z M138.901,411.931
		c-0.344,3.955-3.267,3.955-5.674,4.127c-2.407,0.17-2.233,0.345-3.611,1.029c-1.375,0.688-0.858-0.516-1.719-0.171
		c-0.859,0.343-0.859-0.516-1.376-1.549c-0.516-1.032-1.375-1.202-2.579-0.688c-1.203,0.516-1.375-3.439-0.858-7.053
		c0.516-3.608,0.516-2.579,1.03-3.095c0.519-0.516,0.86-3.61,1.55-3.096c0.688,0.515,2.233,1.034,2.75,0.173
		c0.516-0.859,2.234,0.342,4.126,2.063C134.43,405.396,139.512,404.907,138.901,411.931z"/>
	<path fill="#382426" d="M130.935,458.593c-0.916-1.375,0.458-1.146,0.688-3.209c0.229-2.063,0-3.896-0.688-5.502
		c-0.688-1.604-1.375-2.523-1.146-4.357c0.229-1.833-1.375-0.229-2.752,0.229c-1.374,0.462-0.229-0.688,0.229-1.834
		c0.459-1.146-1.375-2.063-2.521-2.063c-1.146,0-0.688-2.979-1.835-1.834c-1.147,1.146-0.917,1.606-1.146,3.897
		c-0.229,2.296,0-2.291-1.375-1.604c-1.376,0.688-2.063,1.604-2.521,3.67c-0.262,1.169-0.742,1.748-1.235,2.241v7.877
		c0.244,1.286,0.788,3.1,1.464,5.015c1.376,3.9,3.668,5.964,5.043,5.964c1.377,0,2.294,1.375,2.753,0.688
		c0.458-0.688,0-2.292,0.688-2.292c0.688,0,2.752-3.21,3.439-4.357c0.687-1.146,1.146,1.147,2.063,0.916
		C132.998,461.802,131.852,459.969,130.935,458.593z M126.951,454.322c-0.813,1.085-3.075,3.349-3.707,3.708
		c-0.635,0.361-2.08-1.177-2.441-1.632c-0.362-0.448-1.177-1.535-1.177-1.535c-0.45-3.163,1.897,0,1.717-3.522
		c-0.18-3.529,0-4.161,0.996-2.806c0.995,1.356,1.084,5.063,2.982,4.25C127.222,451.973,127.765,453.237,126.951,454.322z"/>
	<path fill="#382426" d="M382.48,332.52c-0.881,1.048-2.031,6.073-2.304,9.354c-0.299,3.585,0.748,8.955,0.599,10.599
		c-0.151,1.644-1.828,6.512-0.749,11.797c0.675,3.294,1.574,5.309,2.454,6.368V332.52L382.48,332.52z"/>
	<path fill="#382426" d="M382.48,405c-1.331,0.153-2.629-0.104-2.512-1.147c0.171-1.55-1.03,0.687-1.72,0.342
		c-0.688-0.342-0.517-0.342-1.03,0.345c-0.52,0.688-1.205,1.896-2.24,1.896c-1.028,0-0.17,0.17-1.028,1.546
		c-0.857,1.376-1.033,1.03-1.722,1.376c-0.687,0.345-2.752,0.173-3.781-5.849c-0.698-4.067,1.374-9.287,1.894-9.46
		c0.517-0.174,0.858,2.927,1.377,0.688c0.513-2.237,0.34-5.159,1.2-5.334c0.858-0.17,1.204,2.236,1.378,1.722
		c0.171-0.514,1.028-3.953,1.72-4.127c0.688-0.17,1.721,2.235,3.268,2.235c1.236,0,2.357,0.549,3.199,1.033v-13.49
		c-1.188-0.792-2.41-3.215-3.888-3.362c-1.721-0.173-0.518,1.548-1.546,2.577c-1.033,1.031-2.582,1.205-3.442,1.376
		c-0.857,0.173-1.889,1.55-2.923,2.064c-1.032,0.516-4.471,1.546-6.535,6.707c-2.063,5.158-4.975,6.708-5.159,12.382
		c-0.173,5.333,1.034,7.913,1.376,8.77c0.346,0.861,3.096,1.896,3.611,3.096c0.517,1.204,2.236,1.204,2.752,0.176
		c0.519-1.031,0.689-2.408,3.784,1.547c3.094,3.955,1.89,1.549,3.609,0.858c1.72-0.688,1.894,0.688,1.894,1.892
		c0,1.205,0,1.892,1.205,3.27c1.201,1.375,1.547-1.204,2.576-0.174c0.732,0.733,1.813,0.164,2.686-0.597L382.48,405L382.48,405z"/>
	<path fill="#382426" d="M382.48,425.916c-1.497,1.572-2.759,5.985-3.053,7.771c0,0-0.654,1.176-0.354,2.145
		c0.3,0.97,1.315,1.321,0.691,2.317c-0.624,0.999-2.858,3.387-2.259,4.399c0.601,1.02,1.642,0.271,1.166,1.296
		c-0.476,1.023-0.653,1.18-0.255,5.279c0.395,4.107,1.468,2.268,2.633,3.561c0.28,0.313,0.805,0.382,1.43,0.313L382.48,425.916
		L382.48,425.916z"/>
	<rect x="116.63" y="319.976" fill="#382426" width="265.851" height="5.803"/>
</g>
</svg>
