<?xml version="1.0" encoding="utf-8"?>
<!-- Generator: Adobe Illustrator 18.0.0, SVG Export Plug-In . SVG Version: 6.00 Build 0)  -->
<!DOCTYPE svg PUBLIC "-//W3C//DTD SVG 1.1 Basic//EN" "http://www.w3.org/Graphics/SVG/1.1/DTD/svg11-basic.dtd">
<svg version="1.1" baseProfile="basic" id="Layer_1"
	 xmlns="http://www.w3.org/2000/svg" xmlns:xlink="http://www.w3.org/1999/xlink" x="0px" y="0px" viewBox="0 0 500 500"
	 xml:space="preserve">
<rect x="0.5" y="0.5" display="none" fill="#FFFFFF" stroke="#000000" width="500" height="500"/>
<path fill="#A81A27" d="M140.4,289.3c0,0,29.6,12.3,109.6,12.3c0,98.1,0.4,119.9,0.4,119.9c-9.1,0.8-68.8,5.9-125.4-16.4
	C133.7,364.6,140.4,289.3,140.4,289.3z"/>
<g>
	<path fill="#C2C181" d="M171.4,399.1c2-1.5,3.2-4,3-6.7c-0.2-2.8-1.8-5-4-6.1c-2,1.5-3.2,4-3,6.7
		C167.7,395.7,169.3,398,171.4,399.1z"/>
	<g>
		<path fill="#C2C181" d="M170.1,383.4c1.9-0.2,3.4-2,3.2-4.1c-0.2-2.1-1.9-3.7-3.8-3.5c-1.9,0.2-3.4,2-3.2,4.1
			C166.4,382.1,168.1,383.6,170.1,383.4z"/>
		<path fill="#C2C181" d="M187.8,377.9c-1.4-2.1-3.7-3.4-6.2-3.2c-2.5,0.2-4.6,1.9-5.6,4.3c1.3,2.1,3.7,3.4,6.2,3.2
			C184.7,381.9,186.8,380.2,187.8,377.9z"/>
		<path fill="#C2C181" d="M181.4,364.6c-2.3-0.5-4.9,0.4-6.5,2.5c-1.6,2.1-2,4.9-1.2,7.3c2.3,0.5,4.9-0.4,6.5-2.5
			C181.8,369.9,182.2,367.1,181.4,364.6z"/>
		<path fill="#C2C181" d="M168.1,360.2c-2,1.5-3.2,4-3,6.7c0.2,2.7,1.8,5,4,6.1c2-1.5,3.2-4,3-6.7
			C171.9,363.5,170.3,361.3,168.1,360.2z"/>
		<path fill="#C2C181" d="M155.9,367.1c-0.4,2.5,0.4,5.2,2.3,7c2,1.8,4.6,2.2,6.8,1.3c0.4-2.5-0.4-5.2-2.3-7
			C160.7,366.6,158.1,366.3,155.9,367.1z"/>
		<path fill="#C2C181" d="M151.8,381.4c1.4,2.1,3.7,3.4,6.2,3.2c2.6-0.2,4.6-1.9,5.6-4.3c-1.4-2.1-3.7-3.4-6.2-3.2
			C154.9,377.4,152.8,379.1,151.8,381.4z"/>
		<path fill="#C2C181" d="M158.2,394.6c2.4,0.5,4.9-0.4,6.5-2.5c1.6-2.1,2-4.9,1.2-7.3c-2.3-0.5-4.9,0.4-6.5,2.5
			C157.7,389.4,157.4,392.2,158.2,394.6z"/>
		<path fill="#C2C181" d="M183.7,392.1c0.4-2.5-0.4-5.2-2.3-7c-2-1.8-4.6-2.2-6.8-1.3c-0.4,2.5,0.4,5.2,2.3,7
			C178.9,392.6,181.5,393,183.7,392.1z"/>
	</g>
</g>
<g>
	<path fill="#C2C181" d="M162.6,321.9c1-0.7,1.6-1.9,1.5-3.2c-0.1-1.3-0.9-2.4-2-2.9c-1,0.7-1.6,1.9-1.5,3.2
		C160.7,320.3,161.5,321.4,162.6,321.9z"/>
	<g>
		<circle fill="#C2C181" cx="161.7" cy="312.7" r="1.8"/>
		<path fill="#C2C181" d="M170.9,311.9c-0.7-1-1.9-1.6-3.2-1.5c-1.3,0.1-2.4,0.9-2.9,2c0.7,1,1.9,1.6,3.2,1.5
			C169.3,313.8,170.4,313,170.9,311.9z"/>
		<path fill="#C2C181" d="M167.6,305.6c-1.2-0.2-2.5,0.2-3.3,1.2c-0.8,1-1,2.3-0.6,3.5c1.2,0.2,2.5-0.2,3.3-1.2
			C167.9,308.1,168.1,306.8,167.6,305.6z"/>
		<path fill="#C2C181" d="M160.9,303.5c-1,0.7-1.6,1.9-1.5,3.2c0.1,1.3,0.9,2.4,2,2.9c1-0.7,1.6-1.9,1.5-3.2
			C162.8,305.1,162,304,160.9,303.5z"/>
		<path fill="#C2C181" d="M154.7,306.8c-0.2,1.2,0.2,2.5,1.2,3.3c1,0.8,2.3,1,3.5,0.6c0.2-1.2-0.2-2.5-1.2-3.3
			C157.1,306.6,155.8,306.4,154.7,306.8z"/>
		<path fill="#C2C181" d="M152.6,313.5c0.7,1,1.9,1.6,3.2,1.5c1.3-0.1,2.4-0.9,2.9-2c-0.7-1-1.9-1.6-3.2-1.5
			C154.1,311.6,153.1,312.4,152.6,313.5z"/>
		<path fill="#C2C181" d="M155.8,319.8c1.2,0.2,2.5-0.2,3.3-1.2c0.8-1,1-2.3,0.6-3.5c-1.2-0.2-2.5,0.2-3.3,1.2
			C155.6,317.3,155.4,318.7,155.8,319.8z"/>
		<path fill="#C2C181" d="M168.8,318.6c0.2-1.2-0.2-2.5-1.2-3.3c-1-0.8-2.3-1-3.5-0.6c-0.2,1.2,0.2,2.5,1.2,3.3
			C166.4,318.9,167.7,319,168.8,318.6z"/>
	</g>
</g>
<path fill="#C41E2E" d="M359.6,289.3c0,0-76.3,17.1-159.8,9.1c19.6,93.8,26.1,133.2,26.1,133.2s102.4-3,151.6-25.1
	C370.8,366.4,359.6,289.3,359.6,289.3z"/>
<g>
	<path fill="#F9F7A5" d="M251.7,332.6c0.1-2.1-0.9-4.3-2.8-5.6c-1.9-1.3-4.3-1.3-6.2-0.3c-0.1,2.1,0.9,4.3,2.8,5.6
		C247.4,333.6,249.7,333.6,251.7,332.6z"/>
	<g>
		<circle fill="#F9F7A5" cx="237.9" cy="323.8" r="3.2"/>
		<path fill="#F9F7A5" d="M246.8,310.1c-2.1-0.1-4.3,0.9-5.6,2.8c-1.3,1.9-1.3,4.3-0.3,6.2c2.1,0.1,4.3-0.9,5.6-2.8
			C247.7,314.3,247.8,312,246.8,310.1z"/>
		<path fill="#F9F7A5" d="M234.5,307.8c-1.6,1.4-2.4,3.6-2,5.9c0.5,2.3,2.1,4,4.2,4.6c1.6-1.4,2.4-3.6,2-5.9
			C238.2,310.2,236.5,308.5,234.5,307.8z"/>
		<path fill="#F9F7A5" d="M224.2,314.9c-0.1,2.1,0.9,4.3,2.8,5.6c1.9,1.3,4.3,1.3,6.2,0.3c0.1-2.1-0.9-4.3-2.8-5.6
			C228.5,314,226.1,314,224.2,314.9z"/>
		<path fill="#F9F7A5" d="M222,327.2c1.4,1.6,3.6,2.4,5.9,2c2.3-0.5,4-2.1,4.6-4.2c-1.4-1.6-3.6-2.4-5.9-2
			C224.4,323.5,222.6,325.2,222,327.2z"/>
		<path fill="#F9F7A5" d="M229.1,337.5c2.1,0.1,4.3-0.9,5.6-2.8c1.3-1.9,1.3-4.3,0.3-6.2c-2.1-0.1-4.3,0.9-5.6,2.8
			C228.2,333.2,228.1,335.6,229.1,337.5z"/>
		<path fill="#F9F7A5" d="M241.4,339.7c1.6-1.4,2.4-3.6,2-5.9c-0.5-2.3-2.1-4-4.2-4.6c-1.6,1.4-2.4,3.6-2,5.9
			C237.7,337.4,239.3,339.1,241.4,339.7z"/>
		<path fill="#F9F7A5" d="M253.9,320.3c-1.4-1.6-3.7-2.4-5.9-2c-2.3,0.5-4,2.1-4.6,4.2c1.4,1.6,3.6,2.4,5.9,2
			C251.5,324,253.2,322.4,253.9,320.3z"/>
	</g>
</g>
<g>
	<path fill="#F9F7A5" d="M303.8,377.3c1.2-2.5,1.1-5.5-0.6-8c-1.7-2.4-4.6-3.6-7.4-3.4c-1.2,2.5-1.1,5.5,0.6,8
		C298.1,376.3,301,377.5,303.8,377.3z"/>
	<g>
		<path fill="#F9F7A5" d="M293.9,363.5c1.9-1.3,2.4-3.8,1.1-5.7s-3.9-2.3-5.8-1.1c-1.9,1.3-2.4,3.8-1.1,5.7
			C289.4,364.3,292,364.8,293.9,363.5z"/>
		<path fill="#F9F7A5" d="M309.2,348.2c-2.5-1.2-5.7-1.1-8.2,0.6s-3.7,4.5-3.5,7.2c2.5,1.2,5.7,1.1,8.2-0.6
			C308.2,353.7,309.4,350.9,309.2,348.2z"/>
		<path fill="#F9F7A5" d="M295.3,339.5c-2.7,0.9-4.8,3.1-5.3,6c-0.6,2.9,0.6,5.7,2.8,7.5c2.7-0.9,4.8-3.1,5.3-6
			C298.6,344.1,297.5,341.3,295.3,339.5z"/>
		<path fill="#F9F7A5" d="M279.3,343c-1.2,2.5-1.1,5.5,0.6,8c1.7,2.4,4.6,3.6,7.4,3.4c1.2-2.5,1.1-5.5-0.6-8
			C284.9,343.9,282.1,342.7,279.3,343z"/>
		<path fill="#F9F7A5" d="M270.4,356.4c0.9,2.6,3.2,4.7,6.2,5.2c3,0.5,5.9-0.6,7.7-2.7c-0.9-2.6-3.2-4.7-6.2-5.2
			C275.1,353.2,272.2,354.3,270.4,356.4z"/>
		<path fill="#F9F7A5" d="M273.9,372.1c2.5,1.2,5.7,1.1,8.2-0.6c2.5-1.7,3.7-4.5,3.5-7.2c-2.5-1.2-5.7-1.1-8.2,0.6
			C274.9,366.5,273.6,369.3,273.9,372.1z"/>
		<path fill="#F9F7A5" d="M287.7,380.7c2.7-0.9,4.8-3.1,5.3-6c0.6-2.9-0.6-5.7-2.8-7.5c-2.7,0.9-4.8,3.1-5.3,6
			C284.4,376.1,285.6,378.9,287.7,380.7z"/>
		<path fill="#F9F7A5" d="M312.7,363.8c-0.9-2.6-3.2-4.7-6.2-5.2c-3-0.5-5.9,0.6-7.7,2.7c0.9,2.6,3.2,4.7,6.2,5.2
			C308,367.1,310.9,365.9,312.7,363.8z"/>
	</g>
</g>
<g>
	<path fill="#F9F7A5" d="M331.9,333.4c1.8-1.2,2.8-3.3,2.6-5.5c-0.2-2.3-1.6-4.1-3.5-5c-1.8,1.2-2.8,3.3-2.6,5.5
		C328.6,330.7,330,332.5,331.9,333.4z"/>
	<g>
		<circle fill="#F9F7A5" cx="330.4" cy="317.4" r="3.1"/>
		<path fill="#F9F7A5" d="M346.5,315.9c-1.2-1.7-3.3-2.8-5.5-2.6c-2.3,0.2-4.1,1.6-5,3.5c1.2,1.7,3.3,2.8,5.5,2.6
			C343.7,319.3,345.6,317.9,346.5,315.9z"/>
		<path fill="#F9F7A5" d="M340.7,305c-2.1-0.4-4.3,0.3-5.8,2.1c-1.5,1.7-1.8,4.1-1.1,6c2.1,0.4,4.3-0.3,5.8-2.1
			C341.1,309.3,341.5,307,340.7,305z"/>
		<path fill="#F9F7A5" d="M329,301.4c-1.8,1.2-2.8,3.3-2.6,5.5c0.2,2.3,1.6,4.1,3.5,5c1.7-1.2,2.8-3.3,2.6-5.5
			C332.3,304.1,330.9,302.2,329,301.4z"/>
		<path fill="#F9F7A5" d="M318.1,307.1c-0.4,2.1,0.3,4.3,2.1,5.8c1.7,1.5,4.1,1.8,6,1.1c0.4-2.1-0.3-4.3-2.1-5.8
			C322.4,306.7,320,306.4,318.1,307.1z"/>
		<path fill="#F9F7A5" d="M314.4,318.9c1.2,1.8,3.3,2.8,5.5,2.6c2.3-0.2,4.1-1.6,5-3.5c-1.2-1.8-3.3-2.8-5.5-2.6
			C317.1,315.5,315.3,316.9,314.4,318.9z"/>
		<path fill="#F9F7A5" d="M320.1,329.8c2.1,0.4,4.3-0.3,5.8-2.1c1.5-1.7,1.8-4.1,1.1-6c-2.1-0.4-4.3,0.3-5.8,2.1
			C319.7,325.5,319.4,327.8,320.1,329.8z"/>
		<path fill="#F9F7A5" d="M342.8,327.7c0.4-2.1-0.3-4.3-2.1-5.8c-1.7-1.5-4.1-1.8-6-1.1c-0.4,2.1,0.3,4.3,2.1,5.8
			C338.5,328.1,340.8,328.4,342.8,327.7z"/>
	</g>
</g>
<g>
	<path fill="#F9F7A5" d="M335.4,395.7c2.1,0.2,4.2-0.6,5.6-2.5c1.3-1.8,1.5-4.1,0.6-6c-2.1-0.2-4.2,0.6-5.6,2.4
		C334.7,391.5,334.5,393.8,335.4,395.7z"/>
	<g>
		<circle fill="#F9F7A5" cx="344.6" cy="382.8" r="3.1"/>
		<path fill="#F9F7A5" d="M357.6,392.1c0.2-2.1-0.6-4.2-2.5-5.6s-4.1-1.5-6-0.6c-0.2,2.1,0.6,4.2,2.5,5.6
			C353.4,392.8,355.7,392.9,357.6,392.1z"/>
		<path fill="#F9F7A5" d="M360.4,380.2c-1.3-1.6-3.4-2.6-5.7-2.2c-2.2,0.4-4,1.9-4.7,3.8c1.3,1.6,3.4,2.5,5.7,2.2
			C357.9,383.7,359.6,382.1,360.4,380.2z"/>
		<path fill="#F9F7A5" d="M353.9,369.8c-2.1-0.2-4.2,0.6-5.6,2.4c-1.3,1.8-1.5,4.1-0.6,6c2.1,0.2,4.2-0.6,5.6-2.4
			C354.6,374.1,354.8,371.7,353.9,369.8z"/>
		<path fill="#F9F7A5" d="M342.1,367.1c-1.6,1.3-2.5,3.4-2.2,5.7c0.4,2.2,1.9,4,3.8,4.7c1.6-1.3,2.6-3.4,2.2-5.7
			C345.5,369.5,344,367.8,342.1,367.1z"/>
		<path fill="#F9F7A5" d="M331.7,373.5c-0.2,2.1,0.6,4.2,2.5,5.6c1.8,1.3,4.1,1.5,6,0.6c0.2-2.1-0.6-4.2-2.4-5.6
			C335.9,372.8,333.6,372.6,331.7,373.5z"/>
		<path fill="#F9F7A5" d="M328.9,385.4c1.3,1.6,3.4,2.6,5.7,2.2c2.2-0.4,4-1.9,4.7-3.8c-1.3-1.6-3.4-2.6-5.7-2.2
			C331.4,381.9,329.7,383.4,328.9,385.4z"/>
		<path fill="#F9F7A5" d="M347.2,398.5c1.6-1.3,2.6-3.4,2.2-5.7c-0.4-2.2-1.9-4-3.8-4.7c-1.6,1.3-2.6,3.4-2.2,5.7
			C343.8,396,345.3,397.8,347.2,398.5z"/>
	</g>
</g>
<g>
	<path fill="#F9F7A5" d="M236.6,396.3c1.1,1.6,3,2.7,5.2,2.5c2.1-0.2,3.9-1.5,4.7-3.3c-1.1-1.6-3-2.7-5.2-2.5
		C239.2,393.1,237.4,394.5,236.6,396.3z"/>
	<g>
		<path fill="#F9F7A5" d="M248.6,395.2c0.1,1.6,1.5,2.8,3.2,2.7c1.6-0.1,2.8-1.5,2.7-3.2c-0.1-1.6-1.5-2.8-3.2-2.7
			C249.7,392.2,248.5,393.6,248.6,395.2z"/>
		<path fill="#F9F7A5" d="M252.8,410c1.6-1.1,2.7-3,2.5-5.2c-0.2-2.1-1.5-3.9-3.3-4.7c-1.6,1.1-2.7,3-2.5,5.2
			C249.7,407.4,251,409.1,252.8,410z"/>
		<path fill="#F9F7A5" d="M263,404.7c0.4-1.9-0.3-4-1.9-5.4c-1.6-1.4-3.8-1.7-5.6-1c-0.4,1.9,0.3,4,1.9,5.4
			C259,405,261.2,405.3,263,404.7z"/>
		<path fill="#F9F7A5" d="M266.5,393.7c-1.1-1.6-3-2.7-5.2-2.5c-2.1,0.2-3.9,1.5-4.7,3.3c1.1,1.6,3,2.7,5.2,2.5
			C263.9,396.8,265.7,395.5,266.5,393.7z"/>
		<path fill="#F9F7A5" d="M261.2,383.5c-1.9-0.4-4,0.3-5.4,1.9c-1.4,1.6-1.7,3.8-1,5.6c1.9,0.4,4-0.3,5.4-1.9
			C261.6,387.5,261.9,385.3,261.2,383.5z"/>
		<path fill="#F9F7A5" d="M250.3,380c-1.6,1.1-2.7,3-2.5,5.2c0.2,2.1,1.5,3.9,3.3,4.7c1.6-1.1,2.7-3,2.5-5.2
			C253.4,382.6,252.1,380.8,250.3,380z"/>
		<path fill="#F9F7A5" d="M240,385.3c-0.4,1.9,0.3,4,1.9,5.4c1.6,1.4,3.8,1.7,5.6,1c0.4-1.9-0.3-4-1.9-5.4
			C244.1,384.9,241.9,384.6,240,385.3z"/>
		<path fill="#F9F7A5" d="M241.9,406.5c1.9,0.4,4-0.3,5.4-1.9c1.4-1.6,1.7-3.8,1-5.6c-1.9-0.4-4,0.3-5.4,1.9
			C241.5,402.4,241.2,404.6,241.9,406.5z"/>
	</g>
</g>
<path fill="#C41E2E" d="M196.2,301.1c0,0-3.7,15.8-23.6,25.2c3.7,7.1,5.2,8,5.2,8s15.6-12.3,21.6-32.7
	C197.5,300.8,196.2,301.1,196.2,301.1z"/>
<path fill="#C41E2E" d="M196.3,302.4c0,0,3,16-11.5,32.6c6.2,5.1,7.9,5.2,7.9,5.2s9.4-17.5,6.7-38.6
	C197.3,301.6,196.3,302.4,196.3,302.4z"/>
<circle fill="#D42032" cx="199.8" cy="299.1" r="7.3"/>
</svg>
