<?xml version="1.0" encoding="utf-8"?>
<!-- Generator: Adobe Illustrator 14.0.0, SVG Export Plug-In . SVG Version: 6.00 Build 43363)  -->
<!DOCTYPE svg PUBLIC "-//W3C//DTD SVG 1.1//EN" "http://www.w3.org/Graphics/SVG/1.1/DTD/svg11.dtd">
<svg version="1.1" id="Layer_1" xmlns="http://www.w3.org/2000/svg" xmlns:xlink="http://www.w3.org/1999/xlink" x="0px" y="0px"
	 width="500px" height="500px" viewBox="0 0 500 500" enable-background="new 0 0 500 500" xml:space="preserve">
<rect x="0" y="0" display="none" fill="#FFFFFF" stroke="#000000" width="500" height="500"/>
<g>
	<path opacity="0.2" fill="#35331B" enable-background="new    " d="M257.526,243.516c0,0,13.254-39.434,40.504-39.434
		c17.944,0,34.181,10.054,34.181,43.832c0,20.67-21.552,36.681-42.752,33.073C268.258,277.382,252.776,257.854,257.526,243.516z"/>
	<path opacity="0.2" fill="#35331B" enable-background="new    " d="M241.609,243.516c0,0-13.254-39.434-40.504-39.434
		c-17.943,0-34.18,10.054-34.18,43.832c0,20.67,21.552,36.681,42.752,33.073C230.877,277.382,246.359,257.854,241.609,243.516z"/>
	<line fill="none" stroke="#35331B" stroke-width="2" x1="217.241" y1="237.777" x2="283.087" y2="237.777"/>
	<line fill="none" stroke="#35331B" stroke-width="2" x1="217.241" y1="243.211" x2="283.087" y2="243.211"/>
	<path fill="#35331B" d="M211.882,175h-3.665c-13.033,9.626-12.489,27.865-12.481,28.072l1.998-0.08
		C197.726,202.785,197.167,183.354,211.882,175z"/>
	<path fill="#35331B" d="M287.247,175h3.665c13.03,9.626,12.486,27.865,12.479,28.072l-1.998-0.08
		C301.404,202.785,301.962,183.354,287.247,175z"/>
	<g>
		<path fill="#35331B" d="M292.692,236.003c31.443,2.376,49.517-7.389,59.142-16.001c2.811-2.514,5.08-5.078,6.904-7.484v3.228
			c-1.557,1.856-3.368,3.771-5.479,5.666c-8.896,7.996-24.767,16.955-51.198,16.955c-3.032,0-6.204-0.117-9.52-0.368
			L292.692,236.003z"/>
		<g>
			<g>
				<path fill="#35331B" d="M206.442,236.003c-31.442,2.376-49.516-7.389-59.141-16.001c-2.81-2.514-5.081-5.078-6.905-7.484v3.228
					c1.557,1.856,3.368,3.771,5.479,5.666c8.896,7.996,24.767,16.955,51.199,16.955c3.031,0,6.203-0.117,9.519-0.368
					L206.442,236.003z"/>
			</g>
		</g>
	</g>
	<g>
		<path fill="#35331B" d="M258.336,238.5c0,0,12.963-38.565,39.614-38.565c17.551,0,33.429,9.832,33.429,42.869
			c0,20.217-21.078,35.875-41.813,32.348C268.831,271.624,253.691,252.523,258.336,238.5z"/>
		<path fill="#5A5537" d="M269.064,233.283c0,0,10.345-28.666,34.896-27.793C300.546,223.267,269.064,233.283,269.064,233.283z"/>
		<path fill="#232209" d="M327.72,219.619c-1.913,11.625-7.098,24.363-22.47,33.799c-20.348,12.489-41.397-2.429-47.646-7.606
			c1.278,12.626,14.669,26.397,31.962,29.34c20.734,3.527,41.813-12.131,41.813-32.348
			C331.379,233.231,330.039,225.619,327.72,219.619z"/>
	</g>
	<g>
		<path fill="#35331B" d="M240.798,238.5c0,0-12.963-38.565-39.614-38.565c-17.551,0-33.429,9.832-33.429,42.869
			c0,20.217,21.078,35.875,41.813,32.348C230.303,271.624,245.444,252.523,240.798,238.5z"/>
		<path fill="#5A5537" d="M230.071,233.283c0,0-10.344-28.666-34.896-27.793C198.588,223.267,230.071,233.283,230.071,233.283z"/>
		<path fill="#232209" d="M171.414,219.619c1.913,11.625,7.098,24.363,22.47,33.799c20.347,12.489,41.396-2.429,47.646-7.606
			c-1.277,12.626-14.669,26.397-31.962,29.34c-20.733,3.527-41.813-12.131-41.813-32.348
			C167.755,233.231,169.095,225.619,171.414,219.619z"/>
	</g>
</g>
</svg>
