<?xml version="1.0" encoding="utf-8"?>
<!-- Generator: Adobe Illustrator 18.0.0, SVG Export Plug-In . SVG Version: 6.00 Build 0)  -->
<!DOCTYPE svg PUBLIC "-//W3C//DTD SVG 1.1//EN" "http://www.w3.org/Graphics/SVG/1.1/DTD/svg11.dtd">
<svg version="1.1" id="content" xmlns="http://www.w3.org/2000/svg" xmlns:xlink="http://www.w3.org/1999/xlink" x="0px" y="0px"
	 width="500px" height="500px" viewBox="0 0 500 500" enable-background="new 0 0 500 500" xml:space="preserve">
<rect id="position" x="0.9" display="none" fill="none" stroke="#000000" width="499" height="499"/>
<g id="bounds" display="none">
	<rect x="0.1" y="79.9" display="inline" fill="none" stroke="#EAEAEA" stroke-miterlimit="10" width="499.5" height="499.5"/>
</g>
<g>
	<path opacity="0.2" fill="#35331B" enable-background="new    " d="M263,355.5c0,0,22-65.3,67.1-65.3c29.7,0,56.7,16.7,56.7,72.6
		c0,34.3-35.8,60.8-70.9,54.9C280.8,411.6,255.1,379.3,263,355.5z"/>
	<path opacity="0.2" fill="#35331B" enable-background="new    " d="M236.7,355.5c0,0-22-65.3-67.1-65.3
		c-29.7,0-56.7,16.7-56.7,72.6c0,34.3,35.8,60.8,70.9,54.9C218.8,411.6,244.5,379.3,236.7,355.5z"/>
	<line fill="none" stroke="#35331B" stroke-width="2" x1="196.2" y1="346" x2="305.4" y2="346"/>
	<line fill="none" stroke="#35331B" stroke-width="2" x1="196.2" y1="355" x2="305.4" y2="355"/>
	<path fill="#35331B" d="M187.5,241.9h-6.1c-21.5,15.9-20.7,46.2-20.7,46.6l3.3-0.2C163.9,288,162.9,255.9,187.5,241.9z"/>
	<path fill="#35331B" d="M312.2,241.9h6.1c21.5,15.9,20.7,46.2,20.7,46.6l-3.3-0.2C335.8,288,336.6,255.9,312.2,241.9z"/>
	<g>
		<path fill="#35331B" d="M321.4,343c52,4,82-12.3,97.9-26.5c4.6-4.1,8.5-8.5,11.4-12.4v5.3c-2.7,3.1-5.6,6.3-9.1,9.4
			c-14.7,13.3-41.1,28.2-84.9,28.2c-5,0-10.3-0.2-15.7-0.7L321.4,343z"/>
		<g>
			<g>
				<path fill="#35331B" d="M178.3,343c-52,4-82-12.3-97.9-26.5c-4.6-4.1-8.5-8.5-11.4-12.4v5.3c2.7,3.1,5.6,6.3,9.1,9.4
					c14.7,13.3,41.1,28.2,84.9,28.2c5,0,10.3-0.2,15.7-0.7L178.3,343z"/>
			</g>
		</g>
	</g>
	<g>
		<path fill="#35331B" d="M264.4,347.2c0,0,21.5-64,65.6-64c29.2,0,55.4,16.2,55.4,71.1c0,33.5-35,59.5-69.3,53.5
			C281.8,402,256.7,370.4,264.4,347.2z"/>
		<path fill="#5A5537" d="M282.1,338.6c0,0,17.1-47.6,57.8-46.1C334.3,322,282.1,338.6,282.1,338.6z"/>
		<path fill="#232209" d="M379.4,315.9c-3.1,19.2-11.8,40.4-37.3,56c-33.6,20.7-68.6-4-78.9-12.6c2.2,20.9,24.4,43.8,53,48.6
			c34.3,5.8,69.3-20.1,69.3-53.5C385.5,338.4,383.2,325.8,379.4,315.9z"/>
	</g>
	<g>
		<path fill="#35331B" d="M235.3,347.2c0,0-21.5-64-65.6-64c-29.2,0-55.4,16.2-55.4,71.1c0,33.5,35,59.5,69.3,53.5
			C217.9,402,243,370.4,235.3,347.2z"/>
		<path fill="#5A5537" d="M217.5,338.6c0,0-17.1-47.6-57.8-46.1C165.4,322,217.5,338.6,217.5,338.6z"/>
		<path fill="#232209" d="M120.3,315.9c3.1,19.2,11.8,40.4,37.3,56c33.6,20.7,68.6-4,78.9-12.6c-2.2,20.9-24.4,43.8-53,48.6
			c-34.3,5.8-69.3-20.1-69.3-53.5C114.2,338.4,116.5,325.8,120.3,315.9z"/>
	</g>
</g>
</svg>
