<?xml version="1.0" encoding="utf-8"?>
<!-- Generator: Adobe Illustrator 14.0.0, SVG Export Plug-In . SVG Version: 6.00 Build 43363)  -->
<!DOCTYPE svg PUBLIC "-//W3C//DTD SVG 1.1//EN" "http://www.w3.org/Graphics/SVG/1.1/DTD/svg11.dtd">
<svg version="1.1" id="content" xmlns="http://www.w3.org/2000/svg" xmlns:xlink="http://www.w3.org/1999/xlink" x="0px" y="0px"
	 width="500px" height="500px" viewBox="0 0 500 500" enable-background="new 0 0 500 500" xml:space="preserve">
<g id="bounds" display="none">
	<rect x="0.5" y="82.5" fill="none" stroke="#EAEAEA" stroke-miterlimit="10" width="499.5" height="499.5"/>
</g>
<rect id="position" x="0.5" y="0.5" display="none" fill="none" stroke="#000000" width="499" height="499"/>
<g id="chooser">
	<path fill="#EDEDED" d="M382.219,175.481v-0.015H278.634c-1.646,4.223-10.788,26.225-29.303,44.739
		c-18.516-18.515-27.657-40.517-29.305-44.739H116.365l-78.069,42.849l25.895,76.55l52.175-28.379v215.26h265.854V266.502
		l52.175,28.379l25.895-76.55L382.219,175.481z"/>
	<path fill="#FFFFFF" d="M278.634,175.467c-1.646,4.223-10.788,26.225-29.303,44.739c-18.516-18.515-27.657-40.517-29.305-44.739
		h-5.331l0.353,0.971c0.383,1.059,9.628,26.184,30.748,47.304l3.536,3.536l3.536-3.536c21.117-21.12,30.361-46.245,30.746-47.305
		l0.352-0.972L278.634,175.467L278.634,175.467z"/>
</g>
</svg>
