<?xml version="1.0" encoding="utf-8"?>
<!-- Generator: Adobe Illustrator 14.0.0, SVG Export Plug-In . SVG Version: 6.00 Build 43363)  -->
<!DOCTYPE svg PUBLIC "-//W3C//DTD SVG 1.1//EN" "http://www.w3.org/Graphics/SVG/1.1/DTD/svg11.dtd">
<svg version="1.1" id="content" xmlns="http://www.w3.org/2000/svg" xmlns:xlink="http://www.w3.org/1999/xlink" x="0px" y="0px"
	 width="500px" height="500px" viewBox="0 0 500 500" enable-background="new 0 0 500 500" xml:space="preserve">
<g id="bounds">
	<rect x="0.031" y="80.342" fill="none" stroke="#EAEAEA" stroke-miterlimit="10" width="499.5" height="499.5"/>
</g>
<rect id="position" x="0.5" y="0.5" display="none" fill="none" stroke="#000000" width="499" height="499"/>
<g id="chooser">
	<path fill="#F1F2FF" d="M382.726,177.742h-87.8c0,0-0.002-0.487-0.02,0c-0.021-0.283-0.045,0.213-0.072,0h-13.219
		c2.267,23.224-11.425,29.653-11.425,29.653l10.808,10.808c0.395-0.366,0.772-0.743,1.146-1.126
		c-6.619,8.385-16.666,14.766-31.918,14.766c-15.973,0-26.239-6.999-32.836-15.967c0.647,0.795,1.324,1.574,2.04,2.327
		l10.808-10.808c0,0-13.69-6.43-11.425-29.653h-13.219c-0.022,0.122-0.042-0.147-0.061,0c-0.007-0.265-0.008,0-0.008,0h-88.671
		l-78.09,22.731l25.895,76.55l52.201-8.401l0.014,214.036h265.853V268.644l52.175,8.379l25.896-76.55L382.726,177.742z"/>
</g>
</svg>
