<?xml version="1.0" encoding="utf-8"?>
<!-- Generator: Adobe Illustrator 14.0.0, SVG Export Plug-In . SVG Version: 6.00 Build 43363)  -->
<!DOCTYPE svg PUBLIC "-//W3C//DTD SVG 1.1//EN" "http://www.w3.org/Graphics/SVG/1.1/DTD/svg11.dtd">
<svg version="1.1" id="content" xmlns="http://www.w3.org/2000/svg" xmlns:xlink="http://www.w3.org/1999/xlink" x="0px" y="0px"
	 width="500px" height="500px" viewBox="0 0 500 500" enable-background="new 0 0 500 500" xml:space="preserve">
<path fill="#E6E7E8" d="M412.383,238.436l-37.797-48.192l-18.675-14.148h-3.077h-2h-69.56c-2.686,9.14-16.022,16.125-32.083,16.125
	c-16.063,0-29.397-6.987-32.085-16.125h-68.272h-2h-3.079l-18.672,14.148l-37.798,48.192l43.366,40.908l16.183-4.806v206.836h206
	V274.539l16.182,4.806L412.383,238.436z"/>
<g id="bounds">
	<rect x="-0.208" y="80.31" fill="none" stroke="#EAEAEA" stroke-miterlimit="10" width="499.499" height="499.5"/>
</g>
<rect id="position" x="0.5" y="0.5" display="none" fill="none" stroke="#000000" width="499" height="499"/>
<g id="chooser">
	<rect x="158.19" y="221.105" fill="#231F20" width="181.249" height="135.078"/>
	<path fill="#E6E7E8" d="M154.421,208.417v162.455l190.788-0.001V208.417H154.421z M297.624,234.155l8.081,11.418l-3.891,2.754
		l-8.082-11.418L297.624,234.155z M291.246,238.69l17.894,25.275l-3.888,2.753l-17.894-25.276L291.246,238.69z M298.948,298.185
		l3.887,2.752l-8.082,11.419l-3.889-2.752L298.948,298.185z M290.873,259.747l3.888-2.752l8.086,11.422l-3.888,2.752
		L290.873,259.747z M305.264,302.689l3.887,2.751l-8.085,11.422l-3.887-2.751L305.264,302.689z M211.848,241.433l-17.895,25.276
		l-3.888-2.752l17.896-25.276L211.848,241.433z M193.977,302.693l8.089,11.418l-3.887,2.753l-8.088-11.418L193.977,302.693z
		 M201.651,234.177l3.889,2.752l-17.896,25.278l-3.888-2.752L201.651,234.177z M201.646,335.177l-17.896-25.279l3.887-2.752
		l17.896,25.278L201.646,335.177z M207.966,330.719l-8.087-11.424l3.888-2.753l8.087,11.425L207.966,330.719z M214.271,326.227
		l-17.896-25.272l3.89-2.755l17.896,25.273L214.271,326.227z M200.292,271.174l-3.893-2.755l17.895-25.276l3.893,2.755
		L200.292,271.174z M284.93,243.136l8.088,11.422l-3.889,2.753l-8.087-11.422L284.93,243.136z M281.066,323.434l8.085-11.422
		l3.89,2.753l-8.086,11.422L281.066,323.434z M287.39,327.94l8.086-11.423l3.89,2.754l-8.087,11.422L287.39,327.94z
		 M297.602,335.304l-3.89-2.755l8.085-11.42l3.89,2.753L297.602,335.304z M307.389,321.311l-3.889-2.753l8.086-11.422l3.888,2.753
		L307.389,321.311z M311.612,262.219l-8.087-11.428l3.889-2.752l8.087,11.426L311.612,262.219z"/>
	<path fill="#CC0014" d="M269.626,275.586c8.074,2.979,12.201,11.938,9.223,20.01c5.955-16.142-2.299-34.059-18.438-40.016
		c-16.146-5.959-34.062,2.296-40.021,18.438c-2.979,8.07,1.146,17.026,9.217,20.007c8.072,2.979,17.028-1.146,20.013-9.219
		C252.601,276.734,261.558,272.607,269.626,275.586z"/>
	<path fill="#0B52D1" d="M229.614,294.024c-8.068-2.979-12.195-11.937-9.219-20.007c-5.958,16.145,2.299,34.055,18.438,40.013
		c16.139,5.963,34.057-2.296,40.016-18.436c2.979-8.071-1.146-17.028-9.223-20.01c-8.068-2.979-17.025,1.146-20.005,9.221
		C246.642,292.877,237.686,297.005,229.614,294.024z"/>
	<path fill="#A7A9AC" d="M293.02,176.096c-2.547,14.522-21.225,25.875-43.828,25.875s-41.284-11.353-43.831-25.875h-2.027
		c2.504,15.629,22.111,27.875,45.858,27.875c23.748,0,43.354-12.247,45.857-27.875H293.02z"/>
</g>
</svg>
