<?xml version="1.0" encoding="utf-8"?>
<!-- Generator: Adobe Illustrator 14.0.0, SVG Export Plug-In . SVG Version: 6.00 Build 43363)  -->
<!DOCTYPE svg PUBLIC "-//W3C//DTD SVG 1.1//EN" "http://www.w3.org/Graphics/SVG/1.1/DTD/svg11.dtd">
<svg version="1.1" id="content" xmlns="http://www.w3.org/2000/svg" xmlns:xlink="http://www.w3.org/1999/xlink" x="0px" y="0px"
	 width="500px" height="500px" viewBox="0 0 500 500" enable-background="new 0 0 500 500" xml:space="preserve">
<g id="bounds" display="none">
	
		<rect x="-0.208" y="80.001" display="inline" fill="none" stroke="#EAEAEA" stroke-miterlimit="10" width="499.499" height="499.501"/>
</g>
<rect id="position" x="0.5" y="0.5" display="none" fill="none" stroke="#000000" width="499" height="499"/>
<g id="chooser">
	<polygon fill="#BC1111" points="143.464,177.272 124.792,191.614 88.734,237.586 130.747,280.597 148.543,275.314 148.543,177.272 
			"/>
	<polygon fill="#BC1111" points="355.618,177.272 374.295,191.614 410.35,237.586 368.34,280.597 350.543,275.314 350.543,177.272 	
		"/>
	<path fill="#BC1111" d="M352.545,177.245h-70.088c-5.326,14.12-18.957,24.167-34.939,24.167c-15.979,0-29.615-10.047-34.938-24.167
		h-66.037v305.013h206.001L352.545,177.245L352.545,177.245z"/>
	<path fill="#FFFFFF" d="M292.497,241.497"/>
	<path fill="#FFFFFF" d="M297.425,337.672c0,3.978-3.223,7.197-7.196,7.197H203.38c-3.976,0-7.197-3.222-7.197-7.197v-86.848
		c0-3.976,3.222-7.197,7.197-7.197h86.849c3.976,0,7.196,3.224,7.196,7.197"/>
	<g>
		<path fill="#BC1111" d="M232.435,251.692c-0.646-0.771-1.633-1.771-2.958-3.003c-0.339-0.339-0.431-0.647-0.276-0.924
			c0.122-0.339,0.477-0.523,1.063-0.556c0.709-0.063,1.633,0.122,2.772,0.556c1.354,0.463,2.926,1.247,4.712,2.354
			c0.554,0.463,0.893,0.878,1.017,1.248c0.092,0.248,0.077,0.663-0.046,1.248c-0.063,0.308-0.093,0.555-0.093,0.739
			c-0.031,0.308-0.046,0.631-0.046,0.97v20.282c0,4.528-0.294,8.116-0.878,10.766c-0.37,1.632-1.001,3.327-1.896,5.082
			c-0.801,1.786-1.278,2.541-1.432,2.266c-0.094-0.188-0.063-0.909,0.092-2.174l0.139-0.782c0.063-0.524,0.077-1.126,0.046-1.805
			c-0.03-0.432-0.107-1.186-0.23-2.265c-0.247-2.125-0.415-4.034-0.508-5.729c-0.186-2.986-0.276-6.392-0.276-10.212
			c-0.678,0.278-1.217,0.354-1.618,0.232c-0.275-0.123-0.724-0.463-1.339-1.017l-0.601-0.603c0,4.004-0.277,7.33-0.831,9.979
			c-0.401,1.816-0.956,3.479-1.664,4.988c-0.709,1.448-1.156,2.098-1.34,1.94c-0.217-0.123-0.186-0.861,0.093-2.218
			c0.092-0.461,0.107-0.954,0.046-1.479c-0.031-0.338-0.123-0.859-0.276-1.568c-0.217-0.895-0.354-1.617-0.417-2.173
			c-0.153-0.984-0.216-2.003-0.185-3.051c-2.063,0.247-3.988,0.57-5.775,0.974c-2.248,0.49-4.142,1.063-5.682,1.708l-1.018,0.602
			c-0.862,0.616-1.493,0.894-1.895,0.832c-0.678-0.063-1.293-0.786-1.847-2.173c-0.248-0.708-0.355-1.276-0.324-1.709
			c0.03-0.31,0.154-0.726,0.37-1.248c0.369-0.861,0.616-1.708,0.738-2.54c0.247-1.416,0.292-3.25,0.14-5.499
			c-1.264-0.399-2.203-0.8-2.818-1.2c-0.956-0.616-1.326-1.278-1.109-1.987c0.122-0.555,0.432-0.924,0.925-1.106
			c0.308-0.093,0.97-0.153,1.985-0.187h0.925c1.109-0.063,2.141-0.262,3.096-0.602c0.554-0.187,1.248-0.492,2.08-0.924
			c0.585-0.31,1.017-0.523,1.293-0.646c0.462-0.152,0.925-0.216,1.386-0.187c1.231,0.4,2.033,1.141,2.403,2.219
			c0.37,1.017,0.185,1.74-0.555,2.172c-0.493,0.339-1.277,0.646-2.356,0.924c-0.646,0.187-1.679,0.415-3.095,0.693l-1.434,0.323
			c0.432,1.075,0.74,2.248,0.925,3.511c0.154,1.171,0.2,2.433,0.14,3.788l2.771-0.508c1.818-0.341,3.235-0.603,4.252-0.785
			c1.726-0.277,3.218-0.479,4.48-0.604l-0.046-11.92c-0.031-0.739-0.432-1.616-1.201-2.634c-0.524-0.708-1.311-1.585-2.356-2.633
			c-0.277-0.31-0.309-0.603-0.093-0.878c0.216-0.276,0.631-0.415,1.247-0.415c0.677,0,1.494,0.2,2.449,0.6
			c1.14,0.493,2.372,1.249,3.696,2.266c0.585,0.463,0.925,0.878,1.017,1.246c0.093,0.248,0.077,0.603-0.046,1.063
			c-0.031,0.186-0.063,0.34-0.093,0.462c0,0.187,0,0.37,0,0.555l0.047,7.53c0.522,0.063,1.123,0.019,1.802-0.139
			c0.554-0.153,1.108-0.338,1.663-0.556l0.047-11.089C233.636,253.448,233.234,252.648,232.435,251.692z"/>
		<path fill="#BC1111" d="M254.814,262.919c-0.522,0.124-1.141,0.278-1.849,0.463c-0.985,0.277-1.664,0.369-2.032,0.277
			c-0.399-0.062-1.249-0.477-2.542-1.247c-1.417-0.925-1.939-1.664-1.57-2.218c0.34-0.432,1.077-0.602,2.218-0.509
			c2.864,0.063,4.913,0.077,6.146,0.046c1.879-0.092,3.541-0.354,4.988-0.785c0.432-0.153,0.861-0.292,1.294-0.416
			c0.277-0.092,0.616-0.215,1.017-0.369c0.955-0.37,1.664-0.538,2.125-0.509c0.586,0.062,1.449,0.479,2.588,1.247
			c0.707,0.709,0.861,1.434,0.464,2.173c-0.433,0.738-1.247,1.078-2.448,1.017c-0.647-0.121-1.588-0.152-2.817-0.094
			c-0.771,0.031-1.957,0.108-3.56,0.231l-0.739,0.093l-0.275,0.046C256.74,262.52,255.738,262.705,254.814,262.919z
			 M253.105,266.293c-1.354,1.266-2.033,2.664-2.033,4.204c0,1.879,0.894,3.588,2.681,5.128c1.692,1.479,3.465,2.221,5.313,2.221
			c1.816,0,3.465-0.693,4.943-2.079c1.479-1.355,2.219-2.835,2.219-4.438c0-2.186-0.803-3.927-2.402-5.22
			c-1.479-1.232-3.297-1.851-5.45-1.851C256.339,264.26,254.584,264.937,253.105,266.293z M254.814,256.405
			c-0.678-0.431-1.57-1.277-2.681-2.541c-0.616-0.894-0.784-1.479-0.508-1.755c0.275-0.308,0.925-0.293,1.939,0.046
			c0.771,0.215,1.662,0.354,2.681,0.415c1.108,0.062,2.401,0.062,3.881,0c0.738,0.031,1.354,0.216,1.848,0.556
			c0.433,0.276,0.727,0.631,0.879,1.063c0.123,0.398,0.106,0.801-0.047,1.2c-0.185,0.368-0.508,0.663-0.97,0.878
			c-0.679,0.248-1.356,0.445-2.032,0.601c-0.709,0.154-1.402,0.247-2.08,0.276h-0.277
			C256.555,257.267,255.678,257.021,254.814,256.405z M261.376,268.787c0.771,0.679,1.152,1.464,1.152,2.356
			c0,0.86-0.32,1.51-0.969,1.938c-0.617,0.462-1.572,0.692-2.865,0.692c-0.954,0-1.803-0.338-2.541-1.017
			c-0.737-0.646-1.107-1.354-1.107-2.127c0-0.737,0.354-1.399,1.063-1.984c0.738-0.585,1.662-0.878,2.771-0.878
			C259.805,267.77,260.637,268.11,261.376,268.787z M258.141,280.245c0.4-0.584,1.494-0.754,3.281-0.509
			c1.971,0.402,3.219,0.909,3.741,1.525c0.34,0.367,0.492,1.094,0.463,2.171c0,0.34,0,0.587,0,0.738c0,0.31,0.015,0.603,0.046,0.878
			c0.094,0.803,0.229,1.479,0.416,2.032c0.123,0.4,0.309,0.755,0.555,1.063c1.51,0.151,2.957,0.123,4.344-0.092
			c0.771-0.124,1.726-0.388,2.863-0.786c0.955-0.31,1.617-0.461,1.986-0.461c0.585,0,1.125,0.308,1.618,0.924
			c0.521,1.046,0.443,1.955-0.231,2.726c-0.802,0.896-2.354,1.558-4.666,1.986c-1.57,0.186-2.804,0.154-3.695-0.093
			c-0.957-0.246-2.004-0.83-3.143-1.758c-0.617-0.554-1.141-1.152-1.57-1.801c-0.246-0.37-0.586-0.938-1.018-1.71
			c-0.492-0.831-0.896-1.479-1.201-1.938c-0.554-0.739-1.201-1.434-1.939-2.079l-0.094-0.092
			C258.295,281.74,257.709,280.83,258.141,280.245z M272.51,251.508c-0.462-0.584-1.31-1.479-2.541-2.68l-0.139-0.093
			c-0.4-0.399-0.462-0.754-0.187-1.063c0.277-0.339,0.801-0.509,1.571-0.509c0.861-0.029,1.816,0.17,2.863,0.604
			c1.265,0.522,2.558,1.31,3.883,2.354c0.521,0.435,0.845,0.851,0.97,1.248c0.063,0.277,0.063,0.709,0,1.294
			c-0.063,0.276-0.108,0.493-0.14,0.647c0,0.308,0,0.6,0,0.878v14.368c0.708-0.063,1.31-0.187,1.802-0.37
			c0.277-0.092,0.616-0.246,1.018-0.462c0.369-0.218,0.693-0.354,0.972-0.416c0.432-0.094,1.001-0.076,1.709,0.047
			c1.264,0.216,2.141,0.601,2.633,1.154c0.4,0.463,0.54,1.077,0.417,1.849c-0.186,0.985-0.585,1.556-1.2,1.71
			c-0.399,0.092-1.295-0.017-2.681-0.324c-0.862-0.153-1.557-0.277-2.079-0.369c-0.896-0.151-1.771-0.247-2.634-0.275
			c0,1.633-0.229,3.188-0.692,4.667c-0.246,0.859-0.679,1.956-1.293,3.277l-0.602,1.479c-0.804,1.725-1.265,2.479-1.388,2.265
			c-0.123-0.185,0.018-1.078,0.416-2.68c0.093-0.585,0.093-1.278,0-2.079c-0.063-0.523-0.215-1.37-0.463-2.542
			c-0.309-1.601-0.522-2.895-0.646-3.881c-0.218-1.755-0.322-3.526-0.322-5.313l-0.093-12.15
			C273.634,253.31,273.25,252.432,272.51,251.508z"/>
		<path fill="#BC1111" d="M208.086,309.317c-0.155-0.216-0.4-0.538-0.739-0.971c-0.524-0.679-0.848-1.169-0.971-1.479
			c-0.186-0.492-0.093-0.908,0.276-1.247c0.431-0.398,1.263-0.432,2.495-0.093c1.263,0.309,2.418,0.878,3.465,1.71
			c0.739,0.678,1.187,1.263,1.34,1.756c0.093,0.4,0.093,1.108,0,2.125c-0.123,0.985-0.201,1.832-0.231,2.541
			c-0.031,1.264,0.015,2.634,0.139,4.111c0.739-0.122,1.693-0.323,2.864-0.602c1.694-0.432,3.172-0.861,4.436-1.295
			c-0.031-0.396-0.077-0.859-0.138-1.386c-0.031-0.369-0.108-1.031-0.231-1.986l-0.509-4.526c-0.432,0.094-0.847,0.199-1.247,0.322
			c-0.217,0.095-0.509,0.2-0.879,0.323c-0.738,0.276-1.263,0.4-1.57,0.37c-0.433-0.03-1.079-0.308-1.94-0.832
			c-1.354-0.831-1.985-1.433-1.895-1.802c0.093-0.339,0.832-0.603,2.218-0.786l0.324-0.046c0.646-0.092,1.17-0.169,1.57-0.23
			c0.616-0.123,1.355-0.293,2.219-0.509c0.185-0.093,0.384-0.214,0.6-0.369c0.123-0.063,0.307-0.185,0.554-0.369
			c0.678-0.49,1.247-0.737,1.709-0.737c0.739,0,1.68,0.444,2.818,1.339c0.862,0.771,1.34,1.371,1.432,1.803
			c0.094,0.309-0.046,0.785-0.416,1.434l-0.646,1.34c0.031,0.956-0.092,2.063-0.37,3.324c-0.124,0.709-0.37,1.695-0.739,2.957
			l-0.047,0.231c1.11,1.229,1.479,2.188,1.11,2.864c-0.401,0.737-1.617,1.152-3.65,1.248c-0.678,0.093-1.293,0.215-1.849,0.367
			c-0.309,0.095-0.677,0.201-1.108,0.323c-0.616,0.216-1.125,0.311-1.524,0.278c-0.492-0.031-1.433-0.216-2.818-0.556
			c-0.616,1.602-1.232,2.4-1.847,2.4c-0.647-0.028-1.202-0.907-1.664-2.633c-0.123-0.463-0.263-1.047-0.416-1.756
			c-0.093-0.433-0.215-1.155-0.369-2.171c-0.216-1.171-0.386-2.063-0.508-2.683c-0.186-1.016-0.37-1.907-0.555-2.68l-0.139-0.323
			C208.517,310.087,208.332,309.719,208.086,309.317z M222.64,327.936c0.985,0.646,1.585,1.4,1.801,2.264
			c0.063,0.277,0.094,0.633,0.094,1.063c0,0.275-0.017,0.679-0.048,1.199c-0.062,1.079-0.046,1.833,0.048,2.267
			c0.152,0.736,0.568,1.185,1.246,1.34c1.479-0.063,2.957-0.231,4.436-0.508c1.017-0.188,2.463-0.523,4.343-1.019
			c0.955-0.186,1.726-0.094,2.311,0.276s0.878,0.925,0.878,1.663c0,1.047-0.925,1.971-2.772,2.771
			c-1.54,0.679-3.372,1.142-5.498,1.389c-1.231,0.122-2.31,0-3.233-0.37c-1.078-0.37-2.049-1.078-2.91-2.126l-0.555-0.924
			c-0.709-1.232-1.294-2.22-1.755-2.957c-0.802-1.264-1.602-2.389-2.402-3.372c-1.356-1.416-1.986-2.479-1.896-3.188
			c0.093-0.646,0.786-0.972,2.08-0.972l0.278,0.048C220.437,326.874,221.623,327.26,222.64,327.936z M231.788,299.522
			c-0.771-1.019-1.648-1.909-2.634-2.68c-0.432-0.4-0.508-0.74-0.23-1.019c0.277-0.308,0.815-0.462,1.617-0.462
			c0.893,0,1.909,0.231,3.049,0.692c1.354,0.522,2.756,1.31,4.204,2.355c0.522,0.461,0.832,0.985,0.925,1.571
			c0.061,0.338,0.03,0.847-0.093,1.521l-0.046,0.927l0.046,10.672c-0.031,3.45-0.4,6.623-1.108,9.518
			c-0.462,1.879-1.048,3.604-1.756,5.175c-1.171,2.249-1.817,3.144-1.94,2.682c-0.062-0.309,0.107-1.109,0.509-2.402
			c0.123-0.708,0.153-1.387,0.092-2.033c-0.031-0.431-0.14-1.106-0.323-2.032c-0.216-1.23-0.386-2.277-0.508-3.142
			c-0.186-1.54-0.277-3.265-0.277-5.176l-0.047-13.028C233.266,301.802,232.773,300.755,231.788,299.522z"/>
		<path fill="#BC1111" d="M259.573,316.294c-1.727,0.31-3.389,0.726-4.989,1.247c-0.955,0.31-1.663,0.434-2.125,0.37
			c-0.494-0.063-1.463-0.432-2.912-1.106c-1.263-0.586-2.278-1.173-3.048-1.758c-0.679-0.522-1.125-1.017-1.34-1.479
			c-0.217-0.399-0.217-0.723,0-0.97c0.246-0.246,0.646-0.338,1.201-0.277l2.08,0.139c2.771,0.218,5.112,0.339,7.022,0.369
			c3.295,0.031,7.223-0.122,11.78-0.462c0.832-1.017,1.74-2.34,2.728-3.973c1.077-1.786,1.832-3.28,2.264-4.482
			c0.216-0.708,0.017-1.494-0.602-2.354c-0.615-0.927-1.311-1.294-2.078-1.109c-1.324,0.493-2.465,1.017-3.42,1.57
			c-0.523,0.31-1.093,0.71-1.709,1.202c-0.523,0.367-0.924,0.6-1.201,0.69c-0.369,0.094-0.924,0.063-1.662-0.093
			c-2.588-0.646-4.145-1.37-4.668-2.171c-0.521-0.801,0.231-1.525,2.266-2.171l2.078-0.786c2.156-0.801,3.806-1.386,4.943-1.756
			c1.971-0.679,3.389-1.063,4.252-1.154c1.107-0.185,2.523,0.586,4.25,2.312c1.508,1.538,2.494,2.939,2.957,4.203
			c0.43,1.05,0.568,1.804,0.414,2.266c-0.121,0.308-0.539,0.691-1.246,1.153c-0.369,0.246-0.664,0.446-0.879,0.603
			c-0.369,0.247-0.709,0.522-1.017,0.831c-0.616,0.802-1.401,1.541-2.354,2.218c-0.555,0.433-1.355,0.939-2.401,1.524
			c-0.616,0.339-1.033,0.586-1.248,0.737c-0.341,0.247-0.523,0.479-0.556,0.693c2.312-0.339,4.234-0.723,5.775-1.155
			c0.893-0.246,1.815-0.584,2.771-1.016c0.709-0.309,1.265-0.479,1.664-0.509c0.584-0.095,1.433-0.018,2.539,0.229
			c1.728,0.34,2.959,0.863,3.697,1.571c0.646,0.646,0.832,1.402,0.555,2.264c-0.309,0.802-0.771,1.266-1.385,1.389
			c-0.435,0.092-1.326,0.046-2.682-0.141c-1.171-0.186-2.125-0.308-2.863-0.37c-1.294-0.093-2.604-0.105-3.928-0.046
			c1.54,0.708,2.464,1.355,2.771,1.94c0.187,0.308,0.123,0.755-0.185,1.339l-0.231,0.556c-0.092,0.276-0.153,0.616-0.186,1.018
			c-0.031,0.185-0.063,0.509-0.093,0.971c-0.063,1.201-0.229,2.11-0.508,2.726c-0.4,1.019-1.155,1.956-2.266,2.819
			c2.125,0.677,3.389,1.37,3.788,2.078c0.247,0.462,0.153,1.093-0.276,1.895c-0.185,0.341-0.309,0.57-0.369,0.692
			c-0.094,0.247-0.139,0.479-0.139,0.693c0,2.063-0.186,3.682-0.555,4.852c-0.216,0.708-0.663,1.54-1.341,2.495l-0.276,0.462
			c-1.048,1.479-1.68,2.233-1.896,2.264c-0.124,0-0.108-0.399,0.047-1.2c0.062-0.31,0.093-0.538,0.093-0.692
			c0.063-0.277,0.092-0.493,0.092-0.646c0.031-0.31,0.016-0.71-0.045-1.201c-0.031-0.309-0.125-0.831-0.277-1.57
			c-0.217-1.141-0.369-2.079-0.461-2.818c-0.155-1.262-0.231-2.54-0.231-3.835c-2.834,0.311-5.175,0.727-7.021,1.247
			c-1.078,0.312-2.156,0.693-3.233,1.156c-0.738,0.339-1.294,0.493-1.663,0.462c-0.522-0.031-1.37-0.292-2.54-0.786
			c-0.986-0.397-1.865-0.86-2.636-1.386c-0.738-0.461-1.276-0.908-1.616-1.339c-0.341-0.463-0.433-0.832-0.275-1.11
			c0.186-0.275,0.646-0.396,1.387-0.369l0.601,0.047c2.834,0.276,5.175,0.37,7.021,0.276c3.051-0.122,6.623-0.662,10.719-1.616
			c0.123-0.398,0.171-0.878,0.141-1.433c-0.03-0.338-0.141-0.985-0.323-1.94c-0.246-1.2-0.445-2.218-0.601-3.05
			c-0.217-1.445-0.369-2.985-0.463-4.619L271.171,315C266.486,315.308,262.623,315.739,259.573,316.294z"/>
	</g>
	<path fill="#8C1010" d="M247.517,203.413c17.008-0.001,31.456-10.939,36.708-26.168h-3.188c-1.813,4.798-4.623,9.107-8.188,12.672
		c-6.49,6.486-15.438,10.495-25.335,10.495c-9.9,0-18.851-4.009-25.341-10.495c-3.563-3.563-6.37-7.875-8.188-12.672h-3.187
		C216.06,192.472,230.507,203.412,247.517,203.413z"/>
	<polygon fill="#E6E7E8" points="146.544,226.569 146.544,482.259 154.293,482.259 154.293,222.851 	"/>
	<polygon fill="#E6E7E8" points="352.545,228.512 341.959,223.434 341.959,482.259 352.545,482.259 	"/>
	<path fill="#8C1010" d="M352.545,225.184l-62.119-29.803c3.865-5.38,6.752-11.511,8.383-18.138h-3.088
		c-2.271,8.67-6.816,16.418-12.969,22.571c-9.023,9.021-21.476,14.595-35.237,14.597c-13.766-0.002-26.214-5.576-35.238-14.597
		c-6.146-6.152-10.69-13.9-12.967-22.571h-3.088c1.632,6.627,4.518,12.759,8.385,18.141l-58.063,27.854v3.328l7.749-3.718v259.405h3
		V221.411l49.178-23.593c9.683,11.949,24.465,19.594,41.045,19.595c16.582,0,31.365-7.646,41.048-19.597l50.396,24.178v260.264h3
		V223.434l10.585,5.078L352.545,225.184L352.545,225.184z"/>
</g>
</svg>
