<?xml version="1.0" encoding="utf-8"?>
<!-- Generator: Adobe Illustrator 14.0.0, SVG Export Plug-In . SVG Version: 6.00 Build 43363)  -->
<!DOCTYPE svg PUBLIC "-//W3C//DTD SVG 1.1//EN" "http://www.w3.org/Graphics/SVG/1.1/DTD/svg11.dtd">
<svg version="1.1" id="content" xmlns="http://www.w3.org/2000/svg" xmlns:xlink="http://www.w3.org/1999/xlink" x="0px" y="0px"
	 width="500px" height="500px" viewBox="0 0 500 500" enable-background="new 0 0 500 500" xml:space="preserve">
<rect id="position" x="0.5" y="0.5" display="none" fill="none" stroke="#000000" width="499.5" height="500"/>
<g id="bounds" display="none">
	<rect x="0.217" y="80.736" fill="none" stroke="#EAEAEA" stroke-miterlimit="10" width="499.5" height="499.5"/>
</g>
<g id="chooser">
	<path fill="#4B4C48" d="M382.988,177.745v-0.052h-94.542c0.012,0.392,0.028,0.782,0.028,1.178c0,21.462-17.397,38.86-38.859,38.86
		s-38.86-17.398-38.86-38.86c0-0.396,0.019-0.786,0.03-1.178h-93.969v0.074L38.876,200.58l25.895,76.55l52.045-8.358v214.508
		h266.172V268.765l52.176,8.379l25.896-76.55L382.988,177.745z"/>
	<path fill="#AFAFAF" d="M287.515,335.151c-1.771,0-3.402-0.161-4.85-0.479c-3.092-0.681-4.359-2.33-4.88-3.597
		c-0.966-2.353-0.307-5.573,1.813-8.839c4.51-6.95,11.188-11.723,17.731-15.843c1.73-1.089,3.53-2.169,5.271-3.213
		c5.863-3.517,11.928-7.15,16.729-11.972c5.634-5.654,11.208-14.62,8.384-21.281c-2.824-6.656-11.404-7.628-18.298-8.408
		l-1.067-0.122c0.138,0.524,1.105,5.597,1.377,7.797c0.189,1.532,0.869,8.466,1.137,10.378c0.279,2.004,0.777,3.996,1.261,5.924
		c0.323,1.299,2.134,5.976,1.362,8.321c-0.32,1.235-2.09,2.159-3.458,2.159c-0.541,0-1.019-0.146-1.381-0.424
		c-5.269-4.045-5.688-11.341-6.021-17.203l-0.054-0.909c-0.137-2.28-0.225-4.585-0.311-6.813c-0.129-3.396-0.265-6.899-0.567-10.354
		c-3.066-0.706-5.92-1.655-8.489-2.827c-2.308-1.053-4.392-2.271-6.372-3.732c-1.031-0.762-3.224-3.092-3.63-3.936
		c-0.407-0.848-0.483-4.583,2.994-1.937c5.109,3.892,11.535,6.429,18.804,7.941c3.006,0.625,6.108,1.041,9.111,1.444
		c1.917,0.259,3.899,0.523,5.85,0.845c4.069,0.666,9.268,1.871,13.371,5.305c5.504,4.604,4.165,12.76,1.075,18.855
		c-2.768,5.461-7.173,10.321-13.468,14.86c-3.097,2.232-6.628,4.304-10.368,6.495c-9.729,5.704-24.332,12.953-28.224,22.506
		c-0.709,1.741-0.654,3.357,0.146,4.554c1.68,1.867,7.337,1.161,11.088,0.736c8.533-1.481,13.341-5.819,11.999-14.15
		c-0.002-0.248,0.068-0.617,0.421-0.973c0.913-0.921,1.998-1.262,3.215-1.262c1.06,0,1.687,0.338,1.861,1.006
		c1,3.777,0.291,7.385-2.053,10.428C304.424,332.426,294.648,335.151,287.515,335.151L287.515,335.151z"/>
	<path fill="#AFAFAF" d="M300.468,273.076c-1.055-0.609-3.895-0.284-4.896,1.002c0.106,1.875-0.035,4.051-0.028,6.226
		c-0.571-1.599-2.069-2.918-3.696-3.263c-2.428-0.512-5.688,0.084-7.771,1.312c-2.606,1.536-3.794,3.536-3.788,6.297
		c0.002,0.829,0.327,1.594,0.848,2.189c-1.793-0.329-3.752-0.214-5.34-0.097c-3.173,0.232-6.508,0.936-9.756,2.014
		c-0.008-0.045-0.016-0.09-0.021-0.135c4.277-3.409,8.927-6.537,12.945-9.957c3.819-3.25,15.658-11.936,12.803-18.293
		c-2.819-6.278-15.854-0.371-19.662,1.447c-4.733,2.26-9.251,5.146-13.313,8.467c-0.854,0.697-1.759,1.43-2.612,2.216
		c-0.457-2.825-1.031-5.632-1.424-8.472c-0.425-3.08-0.64-8.285-1.215-8.955c-0.574-0.672-1.867-0.345-2.658,0.488
		c-5.148,5.422-3.609,12.098-2.424,18.776c0.313,1.763,0.601,3.497,0.904,5.208c-2.744,0.09-6.03,1.346-8.424,3.214
		c-0.074-0.217-0.148-0.434-0.223-0.647c-1.931-5.684-3.309-11.457-3.623-17.465c-0.085-1.621,0.162-3.261,0.506-4.838
		c0.042-0.191,0.117-0.373,0.174-0.561c1.212-0.058,6.475-1.371,4.476-3.744c-1.653-1.963-8.828,0.426-11.268,3.09
		c-3.286,3.59-2.117,10.86-1.4,15.001c0.972,5.605,2.976,11.198,5.08,16.612c-1.994-3.294-4.168-6.476-6.089-9.8
		c-1.639-2.836-4.496-7.823-6.955-5.731c-2.332,1.983-4.611,5.021-5.088,9.643c-1.803,0.375-3.601,0.748-5.395,1.125
		c2.601-8.031,7.12-19.705-4.291-19.453c-10.744,0.233-21.283,4.496-25.079,14.777c-0.132-0.281-0.329-0.559-0.645-0.814
		c-2.077-1.69-5.587-0.797-7.939-0.275c-5.697,1.267-13.707,5.039-15.733,10.941c-1.386,4.03,4.108,7.446,7.309,7.92
		c5.009,0.739,10.111-0.342,14.959-1.556c0.701-0.177,1.398-0.368,2.091-0.573c0.514,1.846,1.119,3.67,1.726,5.466
		c2.164,6.409,7.604,15.941,13.896,17.188c1.745,0.371,3.073-0.161,2.844-1.199c-0.539-2.38-2.762-4.574-4.012-6.68
		c-1.77-2.979-2.934-6.372-4.039-9.64c-0.896-2.649-1.688-5.344-2.249-8.07c1.643-0.659,3.275-1.336,4.906-1.991
		c2.281-0.918,4.614-1.722,6.972-2.459c-1.785,6.967-2.816,16.133,4.853,17.174c3.854,0.521,7.936-0.146,11.758-1.638
		c0.763,2.319,1.89,4.453,3.625,6.179c0.606,0.604,5.23-0.303,5.053-1.073c-0.704-3.058-1.357-5.945-1.884-8.854
		c1.754-1.291,3.354-2.754,4.707-4.354c3.499,6.735,13.512,19.256,18.366,17.582c1.581-0.545,4.504-4.094-1.644-15.586
		c-0.766-1.435-1.213-3.013-1.789-4.527c0.656,0.031,1.307,0.037,1.916-0.024c3.44-0.358,4.879-1.142,6.081-2.078
		c0.322,0.748,2.097,4.837,2.392,5.304c0.516,0.813,5.327-0.472,5.147-1.094c-0.174-0.601-0.325-1.2-0.481-1.802
		c0.096-0.076,2.098-1.38,2.197-1.458c0.448,2.205,1.22,4.304,2.481,6.217c0.729,1.105,4.493,0.375,4.275-0.086
		c-1.315-2.761-2.043-5.661-2.589-8.605c3.765-1.713,7.926-2.522,11.047-0.622c5.588,3.403,0.297,10.989-2.495,14.097
		c-4.896,5.447-10.561,10.232-15.989,15.132c-4.135,3.729-9.667,7.687-12.37,12.683c-0.14,0.16-0.114,0.283,0.079,0.372
		c0.347,0.22,0.241,1.079,0.758,1.426c0.762,0.513,5.444-0.887,5.21-1.256c-1.438-2.268,11.777-12.938,13.297-14.311
		c6.578-5.938,14.711-11.879,19.438-19.508c1.709-2.757,1.74-6.845-0.297-9.406c-0.219-0.275-0.467-0.515-0.729-0.729
		c2.584,0.152,5.48-0.8,7.734-1.796c1.646-0.726,3.057-1.813,3.619-3.567c0.01-0.028,0.014-0.062,0.021-0.091
		c0.211,2.553,0.849,4.943,2.61,6.658c0.222,0.215,0.993,0.102,1.146-0.16C302.18,284.522,301.147,278.252,300.468,273.076z
		 M170.7,296.029c-3.344-0.948-5.503-3.72-5.185-7.122c0.197-2.106,2.184-4.082,3.678-5.211c0.829-0.627,2.573-1.662,3.899-1.918
		c2.633,1.521-0.931,5.48-2.879,6.695c-0.351,0.221,5.305-0.128,6.357-0.986c0.81-0.662,3.001-2.123,4.323-3.711
		c-0.803,3.814-0.359,7.608,0.565,11.321C177.72,296.33,174.02,296.97,170.7,296.029z M202.36,287.157
		c-2.163,0.659-9.368,3.008-12.703,4.644c-0.499-3.021-0.668-6.085-0.274-9.183c0.766-6.021,3.667-14.542,14.332-13.373
		C209.096,270.498,202.833,285.479,202.36,287.157z M212.513,303.144c-4.496-2.198-3.275-9.586-2.574-13.396
		c0.171-0.922,0.477-2.014,0.849-3.207c1.89-0.473,3.781-0.926,5.667-1.366c-0.113,1.823-0.017,3.78,0.139,5.896
		c0.248,3.389,0.391,7.225,1.153,10.818C215.742,303.133,213.867,303.807,212.513,303.144z M224.587,296.47
		c-0.224-1.777-0.393-3.592-0.473-5.487c-0.099-2.313-0.247-4.587-0.234-6.885c1.45,3.147,3.11,6.239,4.586,9.354
		c-0.007-0.016-0.012-0.024,0.003,0.008c0.019,0.038,0.009,0.019,0,0C226.865,294.551,225.791,295.452,224.587,296.47z
		 M250.185,290.981c-0.95,0.294-3.333,0.814-5.031-1.632c-0.906-1.305-0.825-2.989-0.425-4.438c0.874-2.571,4.631-3.659,4.939-3.693
		c0.581,3.089,1.262,6.097,2.303,9.025C251.375,290.487,251.137,290.687,250.185,290.981z M262.017,272.782
		c-0.135-0.263-1.754,0.088-1.745,0.371c0.146,5.059,0.817,9.87,1.046,15.345c-0.25,0.202-2.102,1.369-2.348,1.574
		c-1.031-4.923-1.693-9.896-2.391-14.896c4.402-5.14,11.815-9.159,17.188-12.127c2.9-1.604,8.603-4.297,10.801-2.646
		c2.238,1.683,1.195,4.563,0.115,6.449c-4.449,7.76-11.969,12.915-19.229,18.229C264.792,280.866,264.031,276.674,262.017,272.782z
		 M289.099,284.899c-1.789,0.938-3.854,0.518-4.614-0.935c-0.763-1.453,0.071-3.391,1.86-4.327c1.789-0.936,5.209-0.546,5.97,0.907
		C293.076,281.998,290.888,283.961,289.099,284.899z"/>
	<polygon fill="#AFAFAF" points="228.467,293.452 228.471,293.458 228.471,293.458 	"/>
	<path fill="#AFAFAF" d="M199.14,251.048c-0.036-0.019-0.072-0.035-0.108-0.054c0.169-0.515,1.155-3.74-0.012-4.048
		c-0.728-0.192-1.294,1.639-1.676,3.297c-3.789-1.406-8.028-1.136-11.224,1.667c-0.496,0.451-0.983,1.088-1.421,1.852
		c-1.806-1.067-3.464-2.399-3.979-1.752c-0.688,0.864,0.723,1.837,1.564,2.454c0.877,0.643,1.215,0.896,1.568,1.149
		c-1.06,2.95-1.261,6.916,0.876,10.543c3.731-0.767,13.489-3.651,20.831-6.233C205.547,259.86,204.283,253.482,199.14,251.048z
		 M190.213,260.853c-2.419,1.181-4.297-0.918-3.883-3.348c0.408-2.381,3.421-2.643,4.7-0.773
		C191.993,258.138,191.864,260.051,190.213,260.853z M198.116,258.568c-2.419,1.179-4.297-0.919-3.883-3.349
		c0.407-2.381,3.421-2.644,4.699-0.773C199.897,255.853,199.766,257.765,198.116,258.568z"/>
	<circle fill="#AFAFAF" cx="297.344" cy="268.36" r="2.743"/>
</g>
</svg>
