<?xml version="1.0" encoding="utf-8"?>
<!-- Generator: Adobe Illustrator 14.0.0, SVG Export Plug-In . SVG Version: 6.00 Build 43363)  -->
<!DOCTYPE svg PUBLIC "-//W3C//DTD SVG 1.1//EN" "http://www.w3.org/Graphics/SVG/1.1/DTD/svg11.dtd">
<svg version="1.1" id="content" xmlns="http://www.w3.org/2000/svg" xmlns:xlink="http://www.w3.org/1999/xlink" x="0px" y="0px"
	 width="500px" height="500px" viewBox="0 0 500 500" enable-background="new 0 0 500 500" xml:space="preserve">
<rect id="position" x="0.5" y="0.5" display="none" fill="none" stroke="#000000" width="499" height="499"/>
<g id="body">
	<path fill="#020202" d="M116.694,175.489v305.028h265.761V175.489H116.694z"/>
	<path fill="#FFFFFF" d="M196.231,231.806c0.028-1.139,0.057-2.913-0.082-3.995c-0.334-2.385-2.138-1.275-2.138-2.801
		c0-1.055,1.222-1.497,2.11-1.497c0.722,0,5.714,0.274,8.017,0.274c0.554,0,6.13-0.274,6.518-0.274c1.082,0,2.22,2.19,2.22,4.075
		c0,0.944-0.444,1.914-1.497,1.914c-1.913,0-0.916-2.856-6.242-2.856c-1.691,0-2.413-0.137-2.413,3.885
		c0,0.5,0.028,0.972,1.638,0.972c2.136,0,0.775-2.553,2.718-2.553c1.582,0,1.693,3.023,1.693,4.104c0,1.307-0.141,4.663-2.025,4.663
		c-1.775,0,0.056-3.135-2.913-3.135c-1.22,0-1.054,0.223-1.081,3.079c-0.112,4.104,2.69,1.831,2.69,3.938
		c0,0.639,0.25,1.859-6.491,1.859c-4.439,0-5.161-0.641-5.161-1.831c0-1.555,1.497-0.832,2.081-2.304
		c0.277-0.775,0.359-2.745,0.359-3.661V231.806z"/>
	<path fill="#FFFFFF" d="M216.631,243.54c-1.857,0-3.354-1.497-3.354-3.355c0-1.856,1.497-3.354,3.354-3.354
		c1.858,0,3.356,1.498,3.356,3.354C219.988,242.042,218.49,243.54,216.631,243.54z"/>
	<path fill="#FFFFFF" d="M223.628,233.359c0-5.879,4.688-10.042,10.735-10.042c7.655,0,10.598,6.742,10.598,10.321
		c0,5.964-5.271,9.901-10.932,9.901C228.179,243.54,223.628,239.267,223.628,233.359z M233.086,227.452
		c-1.553,0-2.328,1.607-2.328,2.967c0,2.359,1.663,8.989,4.66,8.989c1.69,0,2.413-1.473,2.413-2.97
		C237.831,233.916,236.334,227.452,233.086,227.452z"/>
	<path fill="#FFFFFF" d="M251.963,243.54c-1.857,0-3.357-1.497-3.357-3.355c0-1.856,1.5-3.354,3.357-3.354
		c1.858,0,3.356,1.498,3.356,3.354C255.32,242.042,253.822,243.54,251.963,243.54z"/>
	<path fill="#FFFFFF" d="M260.985,232.056c0-3.523-0.277-4.329-0.583-4.718c-0.638-0.804-1.721-0.888-1.721-1.941
		c0-1.997,5.66-1.997,6.215-1.997c1.665,0,5.076,0.056,5.076,1.941c0,1-1.054,0.943-1.692,1.665c-0.527,0.61-0.553,3.107-0.553,5.05
		v2.747c0,4.936,0.332,4.825,0.888,5.157c0.691,0.418,1.357,0.557,1.357,1.415c0,0.831-0.251,2.082-6.324,2.082
		c-1.165,0-4.66-0.027-4.66-1.804c0-0.888,0.943-1.027,1.389-1.554c0.331-0.391,0.608-1.416,0.608-5.298V232.056z"/>
	<path fill="#FFFFFF" d="M276.666,243.54c-1.857,0-3.357-1.497-3.357-3.355c0-1.856,1.5-3.354,3.357-3.354
		c1.858,0,3.356,1.498,3.356,3.354C280.023,242.042,278.525,243.54,276.666,243.54z"/>
	<path fill="#FFFFFF" d="M286.076,243.152c-0.889,0-2.305,0.056-2.305-1.222c0-1.721,2.166-0.275,2.247-3.494
		c0.058-2.026,0.058-3.802,0.058-5.438c0-1.666-0.139-3.219-0.193-4.771c-0.057-2.329-2.498-1.11-2.498-2.691
		c0-2.021,4.356-2.135,5.715-2.135c5.55,0.137,5.826,0.943,5.826,1.887c0,1.607-2.191,0.389-2.191,2.995v8.821
		c0,1.997,0.334,2.969,2.304,2.969c4.714,0,3.106-3.855,4.883-3.855c1.247,0,1.72,1.33,1.72,2.388c0,2.163-1.555,4.936-2.83,4.936
		c-0.499,0-0.887-0.108-1.388-0.192c-0.527-0.109-1.138-0.194-2.081-0.194h-9.266V243.152z"/>
	<path fill="#FFFFFF" d="M307.75,243.54c-1.856,0-3.355-1.497-3.355-3.355c0-1.856,1.499-3.354,3.355-3.354
		c1.859,0,3.357,1.498,3.357,3.354C311.108,242.042,309.61,243.54,307.75,243.54z"/>
</g>
</svg>
