<?xml version="1.0" encoding="utf-8"?>
<!-- Generator: Adobe Illustrator 14.0.0, SVG Export Plug-In . SVG Version: 6.00 Build 43363)  -->
<!DOCTYPE svg PUBLIC "-//W3C//DTD SVG 1.1//EN" "http://www.w3.org/Graphics/SVG/1.1/DTD/svg11.dtd">
<svg version="1.1" id="content" xmlns="http://www.w3.org/2000/svg" xmlns:xlink="http://www.w3.org/1999/xlink" x="0px" y="0px"
	 width="500px" height="500px" viewBox="0 0 500 500" enable-background="new 0 0 500 500" xml:space="preserve">
<rect id="position" x="0.5" y="0.5" display="none" fill="none" stroke="#000000" width="499" height="499"/>
<g id="body">
	<path fill="#333333" d="M283.823,175.467c-3.181,16.021-17.311,28.098-34.265,28.098c-16.955,0-31.084-12.078-34.265-28.098
		h-98.929v306.279h265.854V175.467H283.823z"/>
	<path fill="#F0EEF1" d="M265.568,286.494c0,7.732-6.269,14-14,14h-54.904c-7.732,0-14-6.268-14-14v-30.508c0-7.732,6.268-14,14-14
		h54.904c7.731,0,14,6.268,14,14V286.494z"/>
	<polygon fill="#464646" points="213.843,252.086 213.843,288.459 242.248,270.271 	"/>
	<path fill="#656567" d="M213.843,252.086v12.927c0.543,0.077,1.095,0.133,1.659,0.133c4.22,0,7.898-2.271,9.914-5.648
		L213.843,252.086z"/>
	<path fill="#F0EEF1" d="M295.24,273.168c0,0,2.996-22.442-10.635-22.442c-12.278,0-11.104,18.977-11.104,18.977v13.631
		c0,0,0.705,10.104,11.516,10.104c7.754,0,9.812-6.641,9.812-15.04c-6.404,0-7.402,0-7.402,0s1.059,7.696-3.348,7.696
		c-4.408,0-3.525-7.284-3.525-12.926H295.24L295.24,273.168z M284.497,257.304c4.471,0,3.459,9.519,3.459,9.519h-7.228
		C280.73,266.823,279.966,257.304,284.497,257.304z"/>
	<path fill="#F0EEF1" d="M301.175,252.076v40.539h7.168v-25.91c0,0-0.412-6.462,7.578-6.462c0-6.11,0-7.403,0-7.403
		s-4.523,0-7.638,4.877c0-3.643,0-5.641,0-5.641H301.175z"/>
</g>
</svg>
