<?xml version="1.0" encoding="utf-8"?>
<!-- Generator: Adobe Illustrator 14.0.0, SVG Export Plug-In . SVG Version: 6.00 Build 43363)  -->
<!DOCTYPE svg PUBLIC "-//W3C//DTD SVG 1.1//EN" "http://www.w3.org/Graphics/SVG/1.1/DTD/svg11.dtd">
<svg version="1.1" id="content" xmlns="http://www.w3.org/2000/svg" xmlns:xlink="http://www.w3.org/1999/xlink" x="0px" y="0px"
	 width="500px" height="500px" viewBox="0 0 500 500" enable-background="new 0 0 500 500" xml:space="preserve">
<rect id="position" x="0.5" y="0.5" display="none" fill="none" stroke="#000000" width="499.5" height="500"/>
<g id="bounds">
	<rect x="-0.065" y="79.863" fill="none" stroke="#EAEAEA" stroke-miterlimit="10" width="499.499" height="499.5"/>
</g>
<g id="chooser">
	<path fill="#333333" d="M382.446,176.489v-0.017h-98.396c-3.18,16.021-17.313,28.099-34.264,28.099
		c-16.955,0-31.084-12.078-34.265-28.099h-98.929v0.097l-77.74,22.753l25.895,76.55l51.847-8.326v215.207h265.855V267.51
		l52.174,8.379l25.896-76.55L382.446,176.489z"/>
	<path fill="#F0EEF1" d="M265.795,287.502c0,7.732-6.271,14-14,14H196.89c-7.732,0-14-6.268-14-14v-30.508c0-7.732,6.268-14,14-14
		h54.905c7.729,0,14,6.268,14,14V287.502z"/>
	<polygon fill="#464646" points="214.07,253.094 214.07,289.467 242.475,271.279 	"/>
	<path fill="#656567" d="M214.07,253.094v12.927c0.543,0.077,1.095,0.133,1.659,0.133c4.22,0,7.898-2.271,9.914-5.646
		L214.07,253.094z"/>
	<path fill="#F0EEF1" d="M295.467,274.176c0,0,2.996-22.442-10.635-22.442c-12.277,0-11.104,18.979-11.104,18.979v13.631
		c0,0,0.705,10.104,11.516,10.104c7.754,0,9.813-6.643,9.813-15.041c-6.404,0-7.402,0-7.402,0s1.061,7.697-3.348,7.697
		s-3.523-7.285-3.523-12.928H295.467L295.467,274.176z M284.725,258.313c4.471,0,3.459,9.521,3.459,9.521h-7.229
		C280.957,267.831,280.194,258.313,284.725,258.313z"/>
	<path fill="#F0EEF1" d="M301.403,253.084v40.539h7.168v-25.91c0,0-0.412-6.462,7.578-6.462c0-6.11,0-7.403,0-7.403
		s-4.521,0-7.639,4.877c0-3.643,0-5.641,0-5.641H301.403z"/>
</g>
</svg>
