<?xml version="1.0" encoding="utf-8"?>
<!-- Generator: Adobe Illustrator 15.0.0, SVG Export Plug-In . SVG Version: 6.00 Build 0)  -->
<!DOCTYPE svg PUBLIC "-//W3C//DTD SVG 1.1//EN" "http://www.w3.org/Graphics/SVG/1.1/DTD/svg11.dtd">
<svg version="1.1" id="content" xmlns="http://www.w3.org/2000/svg" xmlns:xlink="http://www.w3.org/1999/xlink" x="0px" y="0px"
	 width="500px" height="500px" viewBox="0 0 500 500" enable-background="new 0 0 500 500" xml:space="preserve">
<rect id="position" x="0.5" y="0.5" display="none" fill="none" stroke="#000000" stroke-miterlimit="10" width="499.001" height="499"/>
<g id="body">
	<path fill="#4B0082" d="M283.823,175.466c-3.181,16.021-17.313,28.098-34.265,28.098c-16.955,0-31.084-12.078-34.265-28.098
		h-98.928v306.28h265.854v-306.28H283.823z"/>
	<path fill="#140621" d="M293.23,175.466c-2.547,19.67-21.226,34.992-43.829,34.992c-22.604,0-41.284-15.322-43.831-34.992h-2.028
		c2.504,21.168,22.112,37.701,45.859,37.701c23.749,0,43.354-16.532,45.857-37.701H293.23z"/>
	<circle fill="#FFFFFF" cx="249.298" cy="301.881" r="11.755"/>
	<path fill="#FFFFFF" d="M309.911,336.801l-2.201-8.33l-25.397-14.779c1.319-3.689,2.041-7.664,2.041-11.81
		c0-4.293-0.772-8.403-2.186-12.202l25.438-14.568l2.242-8.258l-8.313-2.258l-25.509,14.606
		c-5.254-6.188-12.616-10.524-20.979-11.904V237.98l-6.051-6.051l-6.091,6.093v29.387c-8.199,1.512-15.397,5.875-20.528,12.024
		l-25.294-14.83l-8.28,2.156l2.175,8.34l25.35,14.861c-1.347,3.721-2.081,7.734-2.081,11.919c0,4.265,0.763,8.353,2.158,12.134
		l-25.468,14.514l-2.26,8.252l8.309,2.277l25.54-14.556c5.226,6.181,12.55,10.522,20.874,11.937l-0.132,29.316l6.022,6.078
		l6.119-6.064l0.134-29.388c8.302-1.491,15.589-5.907,20.757-12.142l25.343,14.746L309.911,336.801z M249.298,325.1
		c-12.822,0-23.217-10.396-23.217-23.218c0-12.823,10.395-23.217,23.217-23.217c12.822,0,23.216,10.394,23.216,23.217
		C272.514,314.704,262.12,325.1,249.298,325.1z"/>
</g>
</svg>
