<?xml version="1.0" encoding="utf-8"?>
<!-- Generator: Adobe Illustrator 18.0.0, SVG Export Plug-In . SVG Version: 6.00 Build 0)  -->
<!DOCTYPE svg PUBLIC "-//W3C//DTD SVG 1.1//EN" "http://www.w3.org/Graphics/SVG/1.1/DTD/svg11.dtd">
<svg version="1.1" id="content" xmlns="http://www.w3.org/2000/svg" xmlns:xlink="http://www.w3.org/1999/xlink" x="0px" y="0px"
	 width="500px" height="500px" viewBox="0 0 500 500" enable-background="new 0 0 500 500" xml:space="preserve">
<rect id="position" x="0.5" y="0.5" display="none" fill="none" stroke="#000000" width="499" height="499"/>
<g id="bounds" display="none">
	<rect x="-0.2" y="80.4" display="inline" fill="none" stroke="#EAEAEA" stroke-miterlimit="10" width="499.5" height="499.5"/>
</g>
<g>
	<g>
		<polygon points="354,420.3 146,420.3 154.7,346.7 345.3,346.7 		"/>
		<g>
			<path fill="#FF9B9B" d="M296.6,363.2c-0.4-1.3-1.8-2-3.1-1.7c0-1.4-1.2-2.5-2.6-2.5c-1.4,0-2.5,1.1-2.5,2.4
				c-1.3-0.4-2.7,0.3-3.2,1.7c-0.4,1.3,0.3,2.7,1.5,3.2c-0.8,1.1-0.5,2.7,0.6,3.5c1.1,0.8,2.7,0.6,3.5-0.5c0.8,1.1,2.4,1.3,3.5,0.5
				c1.1-0.8,1.4-2.3,0.6-3.5C296.3,366,297,364.6,296.6,363.2z"/>
			<circle fill="#A0064F" cx="290.9" cy="364.7" r="2.2"/>
		</g>
		<g>
			<path fill="#FF9B9B" d="M240.5,341.5c-1.5-4.5-6.2-7-10.7-5.8c-0.1-4.8-4-8.6-8.8-8.6c-4.7,0-8.6,3.7-8.8,8.4
				c-4.6-1.3-9.4,1.2-10.9,5.7c-1.5,4.5,0.9,9.3,5.3,11c-2.7,3.9-1.8,9.3,2.1,12.1c3.8,2.8,9.1,2,12.1-1.6c2.9,3.8,8.3,4.6,12.2,1.8
				c3.8-2.8,4.7-8.1,2.2-12C239.5,350.9,241.9,346.1,240.5,341.5z"/>
			<circle fill="#A0064F" cx="220.9" cy="346.7" r="7.5"/>
		</g>
		
			<rect x="278.8" y="321.1" transform="matrix(0.7071 -0.7071 0.7071 0.7071 -159.7188 309.3978)" opacity="0.1" width="29.6" height="52.7"/>
		<rect x="246.8" y="323.6" fill="#A0064F" width="29.6" height="52.7"/>
		
			<rect x="278.8" y="317.1" transform="matrix(0.7071 -0.7071 0.7071 0.7071 -156.8847 308.2238)" fill="#A0064F" width="29.6" height="52.7"/>
		<rect x="154.7" y="341.4" opacity="0.1" width="190.6" height="10.6"/>
		<polygon points="154.7,334.9 345.3,334.9 345.3,175.2 276.4,175.2 		"/>
		<rect x="154.7" y="296.6" fill="#A0064F" width="190.6" height="50.1"/>
		<polygon points="345.3,334.9 154.7,334.9 154.7,175.2 223.6,175.2 		"/>
		<g>
			<polygon fill="#FF9B9B" points="311.6,327.7 332.4,311.9 228.6,175.2 195.8,175.2 			"/>
		</g>
		<g>
			<polygon fill="#A0064F" points="306.7,327.7 327.5,311.9 223.7,175.2 190.9,175.2 			"/>
		</g>
		<g>
			<polygon opacity="0.1" points="257,212.4 248.7,201.7 229.8,226.3 237.6,236.8 			"/>
		</g>
		<g>
			<polygon fill="#FF9B9B" points="189.5,327.7 168.8,311.9 272.6,175.2 305.4,175.2 			"/>
		</g>
		<polygon points="158.3,334.9 345.3,334.9 345.3,175.2 280.1,175.2 		"/>
		<g>
			<polygon fill="#A0064F" points="193.3,327.7 172.6,311.9 276.4,175.2 309.2,175.2 			"/>
		</g>
		<rect x="154.7" y="296.6" fill="#FF9B9B" width="190.6" height="38.3"/>
		<polygon opacity="0.1" points="345.3,296.6 154.7,296.6 154.7,346.7 		"/>
		<g>
			<path fill="#FF9B9B" d="M190.5,366.4c-1.2-3.5-4.9-5.5-8.4-4.5c-0.1-3.7-3.2-6.7-6.9-6.7c-3.7,0-6.8,2.9-6.9,6.6
				c-3.6-1.1-7.4,0.9-8.6,4.5c-1.2,3.5,0.7,7.3,4.2,8.6c-2.1,3.1-1.4,7.3,1.6,9.5c3,2.2,7.2,1.6,9.5-1.3c2.3,3,6.5,3.6,9.6,1.4
				c3-2.2,3.7-6.4,1.7-9.4C189.8,373.9,191.7,370,190.5,366.4z"/>
			<circle fill="#A0064F" cx="175.1" cy="370.5" r="5.9"/>
		</g>
		<path fill="#FF9B9B" d="M352.2,404.6c-2.8,0.8-4.9,3.3-5,6.4c-3.6-1.1-7.4,0.9-8.6,4.5c-0.5,1.6-0.4,3.3,0.2,4.8H354L352.2,404.6z
			"/>
		<path fill="#A0064F" d="M353.2,413.8c-2.9,0.4-5.2,2.9-5.2,5.9c0,0.2,0,0.4,0,0.6h5.9L353.2,413.8z"/>
		<g>
			<path fill="#FF9B9B" d="M233.9,399.1c-0.6-1.9-2.6-2.9-4.4-2.4c-0.1-2-1.7-3.5-3.6-3.5c-1.9,0-3.5,1.5-3.6,3.5
				c-1.9-0.6-3.9,0.5-4.5,2.4c-0.6,1.9,0.4,3.8,2.2,4.5c-1.1,1.6-0.7,3.8,0.9,5c1.6,1.1,3.8,0.8,5-0.7c1.2,1.6,3.4,1.9,5,0.7
				c1.6-1.1,2-3.3,0.9-4.9C233.5,403,234.5,401,233.9,399.1z"/>
			<circle fill="#A0064F" cx="225.8" cy="401.2" r="3.1"/>
		</g>
		<g>
			<path fill="#FF9B9B" d="M309.5,395.6c-0.7-2.2-3-3.4-5.2-2.8c-0.1-2.3-2-4.2-4.3-4.2c-2.3,0-4.2,1.8-4.3,4.1
				c-2.2-0.7-4.6,0.6-5.3,2.8c-0.7,2.2,0.4,4.5,2.6,5.3c-1.3,1.9-0.9,4.5,1,5.9c1.9,1.4,4.5,1,5.9-0.8c1.4,1.8,4,2.2,5.9,0.9
				c1.9-1.4,2.3-3.9,1.1-5.8C309.1,400.2,310.3,397.8,309.5,395.6z"/>
			<circle fill="#A0064F" cx="300" cy="398.1" r="3.7"/>
		</g>
		<path fill="#FF9B9B" d="M285.9,415c-1.5-4.6-6.3-7.1-10.9-5.8c-0.1-4.8-4.1-8.7-8.9-8.7c-4.8,0-8.7,3.8-8.9,8.5
			c-4.6-1.4-9.5,1.2-11,5.8c-0.6,1.8-0.6,3.7,0,5.4h39.7C286.4,418.6,286.4,416.8,285.9,415z"/>
		<path fill="#A0064F" d="M273.6,420.3c0-4.2-3.4-7.6-7.6-7.6s-7.6,3.4-7.6,7.6H273.6z"/>
		<g>
			<path fill="#FF9B9B" d="M180.8,405.6c-0.4-1.3-1.8-2-3.1-1.7c0-1.4-1.2-2.5-2.6-2.5c-1.4,0-2.5,1.1-2.5,2.4
				c-1.3-0.4-2.7,0.3-3.1,1.7c-0.4,1.3,0.3,2.7,1.5,3.2c-0.8,1.1-0.5,2.7,0.6,3.5c1.1,0.8,2.7,0.6,3.5-0.5c0.8,1.1,2.4,1.3,3.5,0.5
				c1.1-0.8,1.4-2.3,0.6-3.5C180.5,408.4,181.2,407,180.8,405.6z"/>
			<circle fill="#A0064F" cx="175.1" cy="407.1" r="2.2"/>
		</g>
		<path fill="#FF9B9B" d="M347.1,362c-3.1,0.6-5.5,3.3-5.7,6.6c-3.7-1.1-7.5,0.9-8.7,4.6c-1.2,3.6,0.7,7.5,4.2,8.8
			c-2.2,3.1-1.4,7.5,1.7,9.7c3.1,2.2,7.3,1.6,9.7-1.3c0.7,0.9,1.5,1.5,2.4,2L347.1,362z"/>
		<path fill="#A0064F" d="M348.2,371.5c-3.2,0.1-5.8,2.8-5.8,6c0,3.3,2.7,6,6,6c0.4,0,0.8,0,1.2-0.1L348.2,371.5z"/>
	</g>
	<polygon points="442.4,331.9 371.9,331.9 332.4,226 345.3,175.2 	"/>
	<polygon fill="#FF9B9B" points="442.4,331.9 371.9,331.9 362.5,306.7 419,294.1 	"/>
	<polygon fill="#A0064F" points="442.4,331.9 371.9,331.9 364.6,312.2 422.2,299.3 	"/>
	<polygon points="57.6,331.9 128.1,331.9 167.6,226 154.7,175.2 	"/>
	<polygon fill="#FF9B9B" points="57.6,331.9 128.1,331.9 137.5,306.7 81,294.1 	"/>
	<polygon fill="#A0064F" points="57.6,331.9 128.1,331.9 135.4,312.2 77.8,299.3 	"/>
</g>
</svg>
