<?xml version="1.0" encoding="utf-8"?>
<!-- Generator: Adobe Illustrator 16.2.0, SVG Export Plug-In . SVG Version: 6.00 Build 0)  -->
<!DOCTYPE svg PUBLIC "-//W3C//DTD SVG 1.1//EN" "http://www.w3.org/Graphics/SVG/1.1/DTD/svg11.dtd">
<svg version="1.1" id="content" xmlns="http://www.w3.org/2000/svg" xmlns:xlink="http://www.w3.org/1999/xlink" x="0px" y="0px"
	 width="500px" height="500px" viewBox="0 0 500 500" enable-background="new 0 0 500 500" xml:space="preserve">
<rect id="position" x="0.5" y="0.5" display="none" fill="none" stroke="#000000" width="499" height="499"/>
<g id="top">
	<path fill="#FFFFFF" d="M140.395,305.09c15.802,14.279,48.294,20.874,48.66,20.947c1.354,0.269,2.234,1.584,1.966,2.938
		c-0.235,1.189-1.281,2.016-2.45,2.016l0,0c-0.16,0-0.323-0.017-0.487-0.048c-1.456-0.289-30.192-6.118-47.687-19.386
		L140.395,305.09z"/>
	<path fill="#FFFFFF" d="M358.268,305.09c-15.803,14.279-48.295,20.874-48.66,20.947c-1.354,0.269-2.233,1.584-1.965,2.938
		c0.235,1.189,1.279,2.016,2.448,2.016l0,0c0.161,0,0.323-0.017,0.487-0.048c1.456-0.289,30.191-6.118,47.688-19.386L358.268,305.09
		z"/>
	<path fill="#EC1C24" d="M249.331,329.896c-44.362,0-73.721-6.19-81.502-8.859c21.873,7.501,75.024,51.467,75.024,51.467h12.956
		c0,0,53.151-43.966,75.024-51.467C323.051,323.706,293.693,329.896,249.331,329.896z"/>
	<path fill="#FFFFFF" d="M266.665,252.555h-37.986c-1.233,0-2.232-1-2.232-2.232c0-1.233,1-2.232,2.232-2.232h37.986
		c1.231,0,2.231,1,2.231,2.232C268.898,251.555,267.898,252.555,266.665,252.555L266.665,252.555z"/>
	<path fill="#FFFFFF" d="M306.982,174.718c4.806,1.451,7.681,16.368,7.832,24.663c0.014,0.739,0.625,1.328,1.363,1.314
		c0.022,0,0.049-0.001,0.07-0.003l0,0c0.706-0.05,1.257-0.646,1.243-1.36c-0.036-2.037-1.103-18.494-6.476-24.902L306.982,174.718z"
		/>
	<path fill="#FFFFFF" d="M191.68,174.718c-4.805,1.451-7.68,16.368-7.831,24.663c-0.014,0.739-0.625,1.328-1.364,1.314
		c-0.022,0-0.048-0.001-0.07-0.003l0,0c-0.706-0.05-1.256-0.646-1.243-1.36c0.037-2.037,1.102-18.494,6.476-24.902L191.68,174.718z"
		/>
	<path fill="#FFFFFF" d="M358.271,233.739c-7.973,9.308-27.16,10.691-27.371,10.706c-1.229,0.082-2.161,1.145-2.082,2.374
		c0.078,1.18,1.062,2.086,2.228,2.086l0,0c0.049,0,0.099-0.001,0.146-0.005c0.847-0.055,17.02-1.213,27.074-9.054L358.271,233.739z"
		/>
	<path fill="#EC1C24" d="M260.966,252.6c0,0,24.438-12.825,43.394-45.449c6.521-10.85,9.276-23.199,9.276-23.199
		c11.425,18.863,40.71,60.076,17.345,72.614C307.615,269.105,273.841,259.578,260.966,252.6z"/>
	<path fill="#FFFFFF" d="M140.392,233.739c7.972,9.308,27.159,10.691,27.371,10.706c1.23,0.082,2.161,1.145,2.081,2.374
		c-0.078,1.18-1.06,2.086-2.226,2.086l0,0c-0.05,0-0.099-0.001-0.147-0.005c-0.846-0.055-17.018-1.213-27.074-9.054L140.392,233.739
		z"/>
	<path fill="#EC1C24" d="M237.697,252.6c0,0-24.438-12.825-43.393-45.449c-6.522-10.85-9.277-23.199-9.277-23.199
		c-11.425,18.863-40.71,60.076-17.345,72.614C191.048,269.105,224.822,259.578,237.697,252.6z"/>
</g>
<path fill="#FFFFFF" d="M143.11,308.377c2.853,1.654,5.212,8.307,9.092,8.276c-0.134-0.081-1.392-1.34-1.551-1.64
	c1.966,1.919,5.001,2.521,7.462,3.519c2.271,0.918,5.293,3.119,7.742,2.722c-0.239-0.192-0.713-0.74-0.975-0.938
	c3.766,2.138,9.414,5.243,13.89,5.354c-0.004-0.308,0.079-0.66,0.092-0.968c4.114,1.931,11.34,5.569,15.96,3.529
	c-0.108-0.3-0.107-0.648-0.193-0.931c6.439-1.113,12.344,3.767,18.294,4.056c-0.421-0.864-1.379-1.479-1.466-2.517
	c4.9,2.075,10.814,2.487,16.426,2.574c-0.349-0.213-0.678-0.571-0.924-0.743c3.957,1.276,8.867,1.3,13.161,1.508
	c4.242,0.204,10.139,1.216,14.209-0.322c0.028-0.163-0.057-0.232-0.254-0.209c-0.209,0.004-0.217,0.009-0.024,0.013
	c2.437-0.001,4.896-0.195,7.248-0.221c-0.25,0.934-1.584,2.032-2.073,2.29c5.214,0.71,9.639-4.402,14.744-3.582
	c-0.119,0.686,0.197,1.563,0.077,2.248c2.471-0.41,5.057-0.827,7.456-1.568c1.626-0.502,6.999-4.122,6.255,0.019
	c2.29-0.13,4.636-1.276,6.945-1.765c2.314-0.489,4.601-0.854,6.877-1.58c2.684,1.823,9.079-1.014,12.208-1.847
	c4.241-1.128,9.364-2.687,13.73-3.267c-0.105,0.644,0.323,1.253,0.35,1.73c2.253-1.053,4.867-1.503,7.185-2.353
	c2.557-0.938,4.792-2.294,7.21-3.271c-0.027,0.373,0.122,0.855,0.078,1.227c2.936-0.501,6.707-2.768,9.273-4.552
	c2.744-1.908,5.918-3.992,5.654-7.528c-2.657-1.193-9.309,2.622-11.862,3.907c-3.744,1.885-7.46,4.123-11.383,5.554
	c-8.023,2.929-16.019,4.077-24.315,5.447c-0.587,0.096-1.044,0.162-1.583,0.322c0.85-0.192,9.737-3.191,11.079-3.403
	c-2.592,0.878-13.496,1.833-16.223,2.104c-2.55,0.255-5.865,1.636-8.259,1.236c0.363-0.178,0.844-0.726,1.183-0.934
	c-3.484-0.548-7.747,0.299-11.291,0.474c-3.718,0.182-7.721,0.542-11.369,1.048c-7.407,1.027-15.637,1.368-23.257,0.982
	c-0.208-1.763-4.806-0.302-6.506-0.479c-2.326-0.244-4.377-1.217-6.726-1.565c-4.397-0.651-10.295,1.276-13.937-1.065
	c0.117-0.212,0.209-0.47,0.395-0.742c-8.566,2.588-16.925-1.21-25.521,0.024c-8.166,1.171-15.795-0.729-23.741-2.916
	c-2.42-0.666-4.961-1.124-7.359-1.697c-2.98-0.713-6.567-0.711-9.513-1.597c-2.352-0.705-4.463-2.49-6.732-3.369
	c-2.331-0.903-4.451-1.7-6.965-2.127c0.392-0.294,1.172-0.6,1.797-0.726"/>
<path fill="#FFFFFF" d="M182.345,187.571c-0.952,1.582-1.791,2.763-1.893,4.604c-0.071,1.265,3.156,2.445-0.115,3.989
	c1.58,0.531,1.691,1.566,2.405,2.731c0.36,0.587-0.834,1.398-0.318,2.251c0.326,0.539,1.573,0.519,1.785,0.946
	c0.769,1.551,1.002,1.958,1.628,3.814c0.544,1.619,0.682,3.173,1.677,4.622c0.181-0.259,0.815-0.828,0.976-1.071
	c1.376,3.916,4.107,6.126,6.026,9.657c0.194,0.008,0.712-0.2,0.81-0.179c3.232,4.367,3.775,10.654,8.953,14.195
	c1.282,0.876,2.18,0.159,3.142,1.15c1.028,1.061,1.313,2.852,2.147,4.096c1.704,2.539,3.67,4.158,6.67,5.227
	c-0.083-0.381-0.174-0.923-0.293-1.363c3.293,1.159,6.273,4.105,9.609,5.508c3.722,1.564,8.175,1.969,12.142,2.566
	c-1.944-4.755-9.822-9.526-13.471-13.625c0.477,0.205,0.957,0.535,1.344,0.78c-0.613-3.931-7.687-6.195-10.024-9.248
	c0.377-0.103,0.714-0.011,1.083-0.144c-2.109-5.047-8.656-7.9-11.11-13.239c0.113-0.052,0.448,0.178,0.675,0.071
	c-2.236-3.15-4.928-6.042-7.169-9.296c-1.763-2.559-5.202-5.993-6.25-8.183c0.042-1.24-1.226-2.347-2.139-3.716
	c-1.213-1.818-1.633-3.145-2.72-4.994c-0.507-0.862-1.235-1.437-1.601-2.347c-0.118-0.295-0.196-2.405-0.611-2.421
	c-1.372-0.052-1.763,0.992-2.287,1.797c-0.566,0.869-1.349,2.517-2.242,2.991"/>
<path fill="#FFFFFF" d="M316.318,187.571c0.951,1.582,1.791,2.763,1.893,4.604c0.07,1.265-3.156,2.445,0.115,3.989
	c-1.58,0.531-1.691,1.566-2.406,2.731c-0.359,0.587,0.834,1.398,0.318,2.251c-0.326,0.539-1.572,0.519-1.784,0.946
	c-0.769,1.551-1.003,1.958-1.628,3.814c-0.545,1.619-0.682,3.173-1.678,4.622c-0.181-0.259-0.814-0.828-0.976-1.071
	c-1.376,3.916-4.106,6.126-6.026,9.657c-0.194,0.008-0.712-0.2-0.811-0.179c-3.231,4.367-3.774,10.654-8.953,14.195
	c-1.281,0.876-2.18,0.159-3.141,1.15c-1.029,1.061-1.313,2.852-2.147,4.096c-1.704,2.539-3.671,4.158-6.671,5.227
	c0.083-0.381,0.175-0.923,0.293-1.363c-3.293,1.159-6.272,4.105-9.609,5.508c-3.721,1.564-8.174,1.969-12.142,2.566
	c1.944-4.755,9.822-9.526,13.471-13.625c-0.477,0.205-0.957,0.535-1.344,0.78c0.612-3.931,7.687-6.195,10.024-9.248
	c-0.377-0.103-0.715-0.011-1.083-0.144c2.108-5.047,8.656-7.9,11.11-13.239c-0.113-0.052-0.447,0.178-0.675,0.071
	c2.236-3.15,4.929-6.042,7.169-9.296c1.764-2.559,5.203-5.993,6.25-8.183c-0.041-1.24,1.227-2.347,2.139-3.716
	c1.214-1.818,1.634-3.145,2.721-4.994c0.507-0.862,1.234-1.437,1.6-2.347c0.118-0.295,0.197-2.405,0.611-2.421
	c1.371-0.052,1.353,1.814,1.877,2.619c0.566,0.869,1.76,1.695,2.652,2.169"/>
</svg>
