<?xml version="1.0" encoding="utf-8"?>
<!-- Generator: Adobe Illustrator 16.2.0, SVG Export Plug-In . SVG Version: 6.00 Build 0)  -->
<!DOCTYPE svg PUBLIC "-//W3C//DTD SVG 1.1//EN" "http://www.w3.org/Graphics/SVG/1.1/DTD/svg11.dtd">
<svg version="1.1" id="Layer_1" xmlns="http://www.w3.org/2000/svg" xmlns:xlink="http://www.w3.org/1999/xlink" x="0px" y="0px"
	 width="500px" height="500px" viewBox="0 0 500 500" enable-background="new 0 0 500 500" xml:space="preserve">
<rect x="0.5" y="0.5" display="none" fill="#FFFFFF" stroke="#000000" width="500" height="500"/>
<path fill="#F28F97" d="M334.366,174.734c-7.786,39.631-42.703,69.532-84.616,69.532c-41.914,0-76.83-29.901-84.616-69.532h-48.578
	V481H249.75H250h132.109V174.734H334.366z"/>
<g>
	<path fill="#FFFFFF" d="M135.169,174.293c-0.041-0.115-0.084-0.212-0.135-0.269L135.169,174.293z"/>
	<path fill="#FFFFFF" d="M362.488,179.873c-0.201,0.299-0.496,0.559-0.684,0.862c0.396-2.146,1.236-3.582,1.104-5.924
		c-1.447-1.173-1.582-1.348-3.115-0.026c-0.008,0.006-0.016,0.013-0.023,0.02h-25.986c-10.861,36.328-44.531,62.813-84.394,62.813
		c-39.863,0-73.535-26.485-84.393-62.813h-27.291c-0.991-0.415-1.91-0.647-2.483-0.403l-0.054-0.108
		c0.4,1.137,0.328,4.871,0.577,6.13c0.398,2.024,0.836,3.687,2.258,5.39c-0.137,2.619,0.986,5.843,1.966,8.161
		c1.139,2.693,2.708,6.539,4.7,8.629c0.183-0.03,0.32-0.102,0.501-0.142c0.767,2.777,0.357,6.072,1.391,8.825
		c1.101,2.934,3.246,6.113,6.022,7.677c1.176,0.663,2.766,0.866,3.583,2.07c0.651,0.958,0.78,3.168,1.08,4.37
		c0.744,2.979,1.615,6.295,3.807,8.604c3.731,3.937,9.708,7.034,14.967,8.47c1.231,0.336,2.538,0.938,3.805,1.035
		c1.342,0.101,1.83-0.195,2.969,0.188c2.565,0.859,4.565,3.344,7.353,3.699c-0.125-0.369-0.092-0.592-0.318-0.895
		c3.579,4.523,9.964,8.318,15.195,10.816c-0.693-0.609-1.71-1.186-1.307-2.158c3.335,0.662,7.069,2.635,10.124,4.301
		c4.721,2.57,9.847,4.664,15.088,5.811c-1.025-0.889-3.287-1.598-3.155-3.334c2.079-0.361,4.596,0.578,6.548,1.15
		c4.093,1.195,8.186,1.98,12.429,2.395c5.047,0.488,10.206,0.533,15.247,0.004c2.977-0.313,6.906-0.432,9.531-1.893
		c-0.961-0.176-1.971-0.197-2.926-0.398c1.395-1.203,4.996-1.271,6.934-1.463c4.289-0.422,8.633-0.895,12.809-2.133
		c6.84-2.029,13.131-4.949,18.389-9.701c-0.516,0.078-1.086,0.004-1.582,0.117c3.693-2.68,8.072-4.574,11.791-7.305
		c3.271-2.406,6.793-4.626,10.107-6.974c-0.167,0.029-0.329,0.072-0.485,0.125c2.743-1.708,5.552-3.298,8.036-5.423
		c1.959-1.676,3.6-3.811,5.307-5.646c1.682-1.813,3.08-3.491,4.555-5.562c1.09-1.524,4.451-4.074,4.453-6.038
		c-0.594,0.099-1.145,0.112-1.641,0.518c1.852-2.573,3.869-5.287,5.809-7.885c1.947-2.607,2.209-5.353,3.74-8.02
		c-0.154,0.005-0.365,0.077-0.516,0.091c0.018-0.116,0.054-0.226,0.078-0.339c0.467-0.913,0.919-1.833,1.361-2.76
		c2.053-2.65,5.656-4.675,7.244-7.228C364.914,184.486,361.795,182.843,362.488,179.873z"/>
</g>
</svg>
