<?xml version="1.0" encoding="utf-8"?>
<!-- Generator: Adobe Illustrator 16.2.0, SVG Export Plug-In . SVG Version: 6.00 Build 0)  -->
<!DOCTYPE svg PUBLIC "-//W3C//DTD SVG 1.1//EN" "http://www.w3.org/Graphics/SVG/1.1/DTD/svg11.dtd">
<svg version="1.1" id="content" xmlns="http://www.w3.org/2000/svg" xmlns:xlink="http://www.w3.org/1999/xlink" x="0px" y="0px"
	 width="500px" height="500px" viewBox="0 0 500 500" enable-background="new 0 0 500 500" xml:space="preserve">
<path fill="#F28F97" d="M354.445,301.898h-0.043V97.396l-37.764,0.883c-5.412,31.261-33.531,54.159-66.339,54.159
	c-32.807,0-61.244-23.782-66.656-55.042h-37.87v204.502h-0.011l-22.504,80.396h253.688L354.445,301.898z"/>
<rect id="position" display="none" fill="none" stroke="#000000" width="500" height="500"/>
<g>
	<polygon fill="#F28F97" points="145.823,97.396 141.703,97.419 121.337,113.298 69.783,180.613 70.197,313.271 128.823,312.806 
		128.119,210.958 145.823,204.916 	"/>
</g>
<g>
	<polygon fill="#F28F97" points="353.449,204.918 371.193,210.838 371.193,312.688 430.042,312.688 430.042,180.613 377.3,113.133 
		356.824,97.396 353.449,97.396 	"/>
</g>
<g>
	<g>
		<rect x="145.943" y="262.607" fill="#231F20" width="208.42" height="35.49"/>
	</g>
	<g>
		<g>
			<path fill="#B29522" d="M281.98,304.087h-63.654v-47.465h63.654V304.087z M230.304,292.107h39.7v-23.51h-39.7V292.107z"/>
		</g>
	</g>
	<g>
		<path fill="#DCC565" d="M244.403,257.879c1.703,0,34.552,0.557,34.552,0.557v43.727c0,0-2.282-37.934-3.969-40.107
			C272.438,258.768,244.403,257.879,244.403,257.879z"/>
	</g>
</g>
<g>
	<path fill="#FFFFFF" d="M159.947,96.945c-0.032-0.091-0.066-0.168-0.106-0.213L159.947,96.945z"/>
	<path fill="#FFFFFF" d="M339.859,101.361c-0.159,0.236-0.394,0.442-0.541,0.682c0.313-1.699,0.978-2.835,0.873-4.689
		c-1.146-0.928-1.252-1.067-2.465-0.021c-0.006,0.005-0.012,0.011-0.019,0.016h-20.567c-8.596,28.752-35.244,49.714-66.793,49.714
		s-58.198-20.962-66.792-49.714h-21.604c-0.783-0.327-1.508-0.512-1.961-0.319l-0.043-0.085c0.316,0.9,0.261,3.855,0.457,4.852
		c0.315,1.603,0.662,2.918,1.788,4.267c-0.109,2.072,0.78,4.623,1.555,6.457c0.902,2.132,2.143,5.175,3.72,6.83
		c0.145-0.024,0.253-0.081,0.396-0.113c0.608,2.198,0.284,4.806,1.101,6.985c0.871,2.322,2.569,4.838,4.766,6.076
		c0.931,0.524,2.19,0.685,2.837,1.638c0.515,0.758,0.617,2.508,0.854,3.459c0.589,2.358,1.278,4.982,3.012,6.81
		c2.954,3.115,7.684,5.567,11.846,6.703c0.975,0.266,2.009,0.743,3.012,0.819c1.062,0.08,1.448-0.154,2.35,0.149
		c2.03,0.68,3.613,2.646,5.819,2.928c-0.099-0.293-0.073-0.469-0.252-0.708c2.832,3.581,7.886,6.584,12.026,8.561
		c-0.548-0.483-1.353-0.939-1.034-1.709c2.64,0.525,5.595,2.086,8.013,3.404c3.736,2.034,7.793,3.691,11.941,4.599
		c-0.811-0.704-2.601-1.264-2.497-2.638c1.646-0.287,3.638,0.457,5.183,0.909c3.239,0.947,6.478,1.569,9.837,1.896
		c3.994,0.386,8.076,0.422,12.066,0.003c2.356-0.247,5.466-0.342,7.544-1.498c-0.762-0.139-1.561-0.155-2.316-0.315
		c1.104-0.953,3.954-1.006,5.488-1.158c3.395-0.333,6.832-0.707,10.137-1.688c5.414-1.606,10.393-3.917,14.555-7.678
		c-0.409,0.062-0.859,0.003-1.252,0.093c2.922-2.121,6.388-3.62,9.332-5.782c2.588-1.904,5.375-3.661,7.998-5.519
		c-0.125,0.022-0.244,0.054-0.361,0.093c2.164-1.348,4.377-2.609,6.338-4.287c1.551-1.327,2.849-3.016,4.2-4.469
		c1.331-1.435,2.438-2.763,3.605-4.402c0.861-1.206,3.521-3.224,3.523-4.778c-0.47,0.078-0.906,0.088-1.298,0.41
		c1.465-2.036,3.063-4.184,4.598-6.241c1.54-2.063,1.748-4.236,2.96-6.347c-0.122,0.004-0.289,0.061-0.409,0.072
		c0.014-0.091,0.042-0.178,0.063-0.267c0.369-0.724,0.727-1.453,1.078-2.187c1.624-2.097,4.477-3.7,5.732-5.72
		C341.779,105.012,339.311,103.712,339.859,101.361z"/>
</g>
<path fill="#FFFFFF" d="M131.001,305.62c0.167-0.752,0.253-1.558,0.224-2.452c-0.023-0.736-0.079-1.105-0.224-1.305v-0.276h-0.649
	c-0.322-0.049-0.762-0.103-1.368-0.307c-1.245-0.423-2.376-1.313-3.669-1.274c-1.574,0.047-2.173,0.454-3.708,0.092
	c-1.431-0.339-3.113-0.42-4.545,0c-3.065,0.901-6.411,0.912-9.731,0.409c-3.054-0.463-6.46-2.999-8.979,0.181
	c-2.159-0.933-3.093,0.424-4.952,0.604c-1.527,0.148-3.25-1.161-4.729-1.489c-1.694-0.375-9.935,3.104-9.239-0.536
	c-3.245-0.502-7.13,2.551-10.213,1.159c0.049-0.334-0.116-0.821-0.06-1.159c-1.685,0.202-3.292,0.936-4.558,2.219l0.023,0.104
	h-0.206v18.094c-0.207,0.184-0.433,0.344-0.701,0.463c-0.067,2.346,2.822,0.867,3.975,1.019c-0.029,0.289,0.089,0.677,0.056,0.961
	c2.103-0.117,5.14-2.104,6.988-1.04c0.525,0.299,0.574,1.173,1.229,1.492c0.489,0.234,1.687-0.006,2.221-0.011
	c1.416-0.016,2.703-0.186,4.066-0.398c2.971-0.465,5.983-0.846,8.947-1.03c1.835-0.112,1.508,0.439,2.976,1.18
	c1.096,0.552,2.474,0.175,3.627,0.045c1.212-0.137,2.887-0.647,3.995-0.576c1.19,0.074,2.576,0.756,4.076,0.531
	c1.471-0.22,3.266-1.202,4.774-0.981c1.426,0.208,2.225,0.831,3.848,0.668c1.562-0.156,2.368,0.099,3.811,0.608
	c1.834,0.646,2.051,0.176,3.897-0.454c1.373-0.469,2.872-0.092,4.398-0.364c1.547-0.273,3.016-1.02,4.557-1.304
	c0.07-0.438-0.002-0.761-0.156-1.032L131.001,305.62L131.001,305.62z"/>
<path fill="#FFFFFF" d="M435.521,305.62c0.172-0.752,0.259-1.558,0.228-2.452c-0.022-0.736-0.079-1.105-0.228-1.305v-0.276h-0.666
	c-0.331-0.049-0.779-0.103-1.4-0.307c-1.275-0.423-2.434-1.313-3.758-1.274c-1.612,0.047-2.228,0.454-3.8,0.092
	c-1.466-0.339-3.188-0.42-4.654,0c-3.14,0.901-6.567,0.912-9.968,0.409c-3.129-0.463-6.617-2.999-9.197,0.181
	c-2.21-0.933-3.168,0.424-5.071,0.604c-1.563,0.148-3.329-1.161-4.844-1.489c-1.733-0.375-10.175,3.104-9.463-0.536
	c-3.323-0.502-7.304,2.551-10.46,1.159c0.051-0.334-0.12-0.821-0.063-1.159c-1.726,0.202-3.371,0.936-4.669,2.219l0.023,0.104
	h-0.211v18.094c-0.212,0.184-0.442,0.344-0.718,0.463c-0.068,2.346,2.891,0.867,4.071,1.019c-0.03,0.289,0.091,0.677,0.058,0.961
	c2.151-0.117,5.265-2.104,7.156-1.04c0.539,0.299,0.588,1.173,1.26,1.492c0.5,0.234,1.727-0.006,2.273-0.011
	c1.448-0.016,2.77-0.186,4.164-0.398c3.044-0.465,6.129-0.846,9.165-1.03c1.879-0.112,1.546,0.439,3.047,1.18
	c1.123,0.552,2.535,0.175,3.716,0.045c1.241-0.137,2.957-0.647,4.094-0.576c1.219,0.074,2.638,0.756,4.174,0.531
	c1.506-0.22,3.345-1.202,4.891-0.981c1.459,0.208,2.277,0.831,3.939,0.668c1.601-0.156,2.427,0.099,3.903,0.608
	c1.88,0.646,2.102,0.176,3.992-0.454c1.406-0.469,2.941-0.092,4.505-0.364c1.585-0.273,3.09-1.02,4.668-1.304
	c0.071-0.438-0.003-0.761-0.16-1.032V305.62H435.521z"/>
<path fill="#FFFFFF" d="M363.6,372.958c5.467-0.266,18.146-0.382,20.09,6.094c0.186,0.614-0.172,1.128,0.199,1.856
	c0.223,0.436,1.408,1.064,1.842,1.432c0.955,0.808,1.719,1.857,2.771,2.454c0.263,4.44-0.461,8.079-5.11,9.595
	c0.231,1.188,1.741,2.04,1.34,3.518c-0.396,1.456-2.654,2.007-3.857,2.191c-2.34,0.361-6.846-2.052-7.167,1.605
	c-2.284,0.214-4.258,1.047-6.539,0.924c-1.999-0.108-3.877-0.6-5.759-0.882c-1.979-0.298-3.975-0.039-6.029-0.262
	c-2.04-0.222-3.867-1.19-6.029-0.774c-2.396,0.462-3.211,0.832-5.766,0.479c-2.209-0.307-3.277,0.493-5.477,0.844
	c-2.045,0.327-4.252-0.313-6.307-0.015c-1.976,0.288-3.662,1.642-5.729,1.316c2.129-2.523-5.063-1.586-6.606-1.591
	c-3.28-0.008-6.427,0.581-9.596,1.097c-6.074,0.988-12.742,0.515-18.916,0.274c-9.027-0.35-18.097-0.731-27.142-0.274
	c-4.767,0.241-9.981-0.137-14.729,0.535c-1.235,0.174-3.98,0.248-5.015,0.828c-0.738,0.415-0.665,1.836-1.358,1.946
	c-1.05,0.168-3.721-2.536-4.98-2.911c0.458,0.164,0.891,0.444,1.327,0.644c-5.961,0.399-12.104-0.194-18.011,0.329
	c-5.773,0.513-11.834,0.964-17.545,0.061c-9.836-1.557-19.447,0.648-29.334,1.25c-8.976,0.546-18.039-1.979-26.826-1.543
	c-0.07,0.259-0.01,0.48-0.081,0.74c-5.461,0.945-9.694-3.272-14.721-3.207c-0.125,1.104,0.542,2.214,1.019,2.926
	c-4.741,0.799-11.03-2.979-13.68-6.778c-1.862,1.511-3.005-1.063-2.788-2.74c-0.272,0.381-0.979,0.82-1.276,1.26
	c-0.317-1.849-0.799-3.506-0.322-5.406c0.572-2.282,1.711-2.678,3.336-4.378c-0.707-0.621-1.739-0.687-2.739-0.592
	c-0.249-1.808,1.241-5.207,1.78-7.043c0.599-2.036,0.999-2.989,3.136-3.737c1.6-0.561,10.191-1.107,11.395,0.082
	c-0.33-0.326-0.645-0.979-0.971-1.272c6.205,1.298,15.109,2.463,21.328,0.72c-0.225-0.223-0.532-0.78-0.767-0.987
	c4.106-0.325,8.408,1.88,12.856,1.863c4.367-0.017,8.803,1.047,13.145,0.261c2.105-0.383,4.119-1.54,6.326-1.363
	c2.011,0.161,4.108,0.955,6.299,1.164c3.885,0.37,9.339,0.767,13.433,0.228c1.421-0.188,2.395-1.053,3.771-0.604
	c1.914-2.377,2.785-1.437,5.071-0.843c2.591,0.673,5.456,0.036,8.156-0.199c4.604-0.4,9.157,1.315,13.702,1.068
	c9.287-0.507,18.44-0.477,27.696-0.809c4.638-0.166,8.238-0.618,12.561-1.886c-0.287,0.554-0.248,1.521-0.449,2.111
	c2.039,0.82,4.453,0.063,6.529-0.226c2.314-0.32,4.235,0.09,6.579-0.001c4.508-0.175,8.813-0.822,13.435-0.822
	c4.582,0,8.412,0.756,12.885,0.534c4.488-0.224,9.084,0.086,13.434,0.288c3.43,0.159,6.816,0.347,10.157,0.014
	c3.594-0.356,7.377-1.887,10.931-2.15c-0.752,0.301-1.67,1.003-1.861,1.814c2.063,0.913,5.834-0.102,8.188-0.227
	C357.839,373.622,360.605,373.104,363.6,372.958z"/>
</svg>
