<?xml version="1.0" encoding="utf-8"?>
<!-- Generator: Adobe Illustrator 16.2.0, SVG Export Plug-In . SVG Version: 6.00 Build 0)  -->
<!DOCTYPE svg PUBLIC "-//W3C//DTD SVG 1.1//EN" "http://www.w3.org/Graphics/SVG/1.1/DTD/svg11.dtd">
<svg version="1.1" id="content" xmlns="http://www.w3.org/2000/svg" xmlns:xlink="http://www.w3.org/1999/xlink" x="0px" y="0px"
	 width="500px" height="500px" viewBox="0 0 500 500" enable-background="new 0 0 500 500" xml:space="preserve">
<rect id="position" x="0.5" y="0.5" display="none" fill="none" stroke="#000000" width="499" height="499"/>
<g>
	<rect x="355.256" y="250.656" fill="#F7F7F7" width="26.104" height="27.707"/>
	<rect x="355.256" y="208.769" fill="#F7F7F7" width="26.104" height="27.707"/>
	<polygon fill="#F7F7F7" points="361.004,296.245 357.567,296.245 357.567,297.345 355.256,297.345 355.256,320.25 381.359,320.25 
		381.359,292.543 361.004,292.543 	"/>
	<rect x="355.256" y="334.43" fill="#F7F7F7" width="26.104" height="27.707"/>
	<rect x="355.256" y="175.5" fill="#F7F7F7" width="26.104" height="19.089"/>
	<polygon fill="#F7F7F7" points="140.491,297.345 135.017,297.345 135.017,292.543 115.508,292.543 115.508,320.25 140.491,320.25 	
		"/>
	<rect x="115.508" y="334.43" fill="#F7F7F7" width="24.983" height="27.707"/>
	<rect x="115.508" y="208.769" fill="#F7F7F7" width="24.983" height="27.707"/>
	<path fill="#F7F7F7" d="M223.757,194.589c-5.628-4.913-9.078-11.503-9.078-18.752c0-0.112,0.009-0.224,0.01-0.337h-47.006v19.089
		H223.757z"/>
	<path fill="#F7F7F7" d="M328.064,176.601h3.436V175.5h-49.322c0.002,0.113,0.012,0.225,0.012,0.337
		c0,7.25-3.449,13.84-9.077,18.752h54.952V176.601z"/>
	<rect x="115.508" y="250.656" fill="#F7F7F7" width="24.983" height="27.707"/>
	<rect x="167.683" y="208.769" fill="#F7F7F7" width="160.381" height="27.707"/>
	<rect x="115.508" y="418.203" fill="#F7F7F7" width="24.983" height="27.707"/>
	<polygon fill="#F7F7F7" points="140.491,176.601 143.927,176.601 143.927,175.5 115.508,175.5 115.508,194.589 140.491,194.589 	
		"/>
	<rect x="167.683" y="250.656" fill="#F7F7F7" width="160.381" height="27.707"/>
	<polygon fill="#F7F7F7" points="328.064,320.25 328.064,297.345 322.59,297.345 322.59,292.543 173.431,292.543 173.431,296.245 
		169.994,296.245 169.994,297.345 167.683,297.345 167.683,320.25 	"/>
	<polygon fill="#F7F7F7" points="355.256,460.09 355.256,463.218 357.567,463.218 357.567,469.157 354.133,469.157 354.133,470.256 
		354.036,470.256 354.036,480.046 350.6,480.046 350.6,481.146 329.287,481.146 329.287,470.256 325.755,470.256 325.755,464.317 
		328.064,464.317 328.064,460.09 167.683,460.09 167.683,463.218 169.994,463.218 169.994,469.157 166.56,469.157 166.56,470.256 
		166.463,470.256 166.463,480.046 163.026,480.046 163.026,481.146 141.714,481.146 141.714,470.256 138.182,470.256 
		138.182,464.317 140.491,464.317 140.491,460.09 115.508,460.09 115.508,481.242 381.359,481.242 381.359,460.09 	"/>
	<rect x="115.508" y="376.316" fill="#F7F7F7" width="24.983" height="27.705"/>
	<rect x="167.683" y="334.43" fill="#F7F7F7" width="160.381" height="27.707"/>
	<rect x="355.256" y="418.203" fill="#F7F7F7" width="26.104" height="27.707"/>
	<rect x="355.256" y="376.316" fill="#F7F7F7" width="26.104" height="27.705"/>
	<rect x="167.683" y="418.203" fill="#F7F7F7" width="160.381" height="27.707"/>
	<rect x="167.683" y="376.316" fill="#F7F7F7" width="160.381" height="27.705"/>
	<rect x="140.491" y="250.656" fill="#F7F7F7" width="3.436" height="27.707"/>
	<rect x="140.491" y="334.43" fill="#F7F7F7" width="3.436" height="27.707"/>
	<polygon fill="#F7F7F7" points="143.927,296.245 138.453,296.245 138.453,292.543 135.017,292.543 135.017,297.345 
		140.491,297.345 140.491,320.25 143.927,320.25 	"/>
	<rect x="140.491" y="208.769" fill="#F7F7F7" width="3.436" height="27.707"/>
	<rect x="140.491" y="176.601" fill="#F7F7F7" width="3.436" height="17.989"/>
	<rect x="167.683" y="296.245" fill="#F7F7F7" width="2.311" height="1.1"/>
	<rect x="166.463" y="469.157" fill="#F7F7F7" width="0.097" height="1.099"/>
	<rect x="140.491" y="376.316" fill="#F7F7F7" width="3.436" height="27.705"/>
	<polygon fill="#F7F7F7" points="145.15,469.157 141.617,469.157 141.617,463.218 143.927,463.218 143.927,460.09 140.491,460.09 
		140.491,464.317 138.182,464.317 138.182,470.256 141.714,470.256 141.714,481.146 163.026,481.146 163.026,480.046 
		145.15,480.046 	"/>
	<rect x="140.491" y="418.203" fill="#F7F7F7" width="3.436" height="27.707"/>
	<path fill="#F2F2F2" d="M171.452,293.604v-1.062h-0.336C171.334,293.177,171.452,293.604,171.452,293.604z"/>
	<path fill="#F2F2F2" d="M171.115,292.543h0.336v-2.365h-1.315C170.562,291.039,170.892,291.898,171.115,292.543z"/>
	<path fill="#F2F2F2" d="M171.452,290.178v-5.213h-1.458v4.933c0.049,0.094,0.096,0.187,0.143,0.28H171.452z"/>
	<polygon fill="#F2F2F2" points="140.491,284.965 143.927,285.214 143.927,284.965 	"/>
	<path fill="#F2F2F2" d="M169.994,289.897v-4.933h-2.311v2.152C168.606,287.626,169.387,288.729,169.994,289.897z"/>
	<path fill="#F2F2F2" d="M167.683,287.117v-2.152h-3.434h-20.322v0.249l22.409,1.626
		C166.814,286.765,167.262,286.885,167.683,287.117z"/>
	<path fill="#F2F2F2" d="M166.56,464.317v0.47l0.765,0.024c0.914,0,1.651,3.136,1.651,3.136v-3.904h-4.728v0.274H166.56z"/>
	<polygon fill="#F2F2F2" points="166.56,464.787 166.56,464.317 164.249,464.317 164.249,464.043 142.908,464.043 	"/>
	<rect x="328.064" y="334.43" fill="#F7F7F7" width="3.436" height="27.707"/>
	<polygon fill="#F7F7F7" points="326.026,292.543 322.59,292.543 322.59,297.345 328.064,297.345 328.064,320.25 331.5,320.25 
		331.5,296.245 326.026,296.245 	"/>
	<rect x="328.064" y="250.656" fill="#F7F7F7" width="3.436" height="27.707"/>
	<rect x="328.064" y="376.316" fill="#F7F7F7" width="3.436" height="27.705"/>
	<polygon fill="#F7F7F7" points="332.724,469.157 329.189,469.157 329.189,463.218 331.5,463.218 331.5,460.09 328.064,460.09 
		328.064,464.317 325.755,464.317 325.755,470.256 329.287,470.256 329.287,481.146 350.6,481.146 350.6,480.046 332.724,480.046 	
		"/>
	<rect x="328.064" y="418.203" fill="#F7F7F7" width="3.436" height="27.707"/>
	<rect x="328.064" y="208.769" fill="#F7F7F7" width="3.436" height="27.707"/>
	<rect x="354.036" y="469.157" fill="#F7F7F7" width="0.097" height="1.099"/>
	<rect x="328.064" y="176.601" fill="#F7F7F7" width="3.436" height="17.989"/>
	<rect x="355.256" y="296.245" fill="#F7F7F7" width="2.312" height="1.1"/>
	<g>
		<rect x="167.683" y="296.245" opacity="0.5" fill="#ADB0B1" width="2.311" height="1.1"/>
		<rect x="166.463" y="469.157" opacity="0.5" fill="#ADB0B1" width="0.097" height="1.099"/>
		<polygon opacity="0.5" fill="#ADB0B1" points="145.15,469.157 141.617,469.157 141.617,463.218 143.927,463.218 143.927,460.09 
			143.927,453 143.927,446.016 143.927,445.91 143.927,418.203 143.927,412.295 143.927,404.111 143.927,404.021 143.927,376.316 
			143.927,371.59 143.927,362.207 143.927,362.137 143.927,334.43 143.927,330.885 143.927,320.303 143.927,320.25 143.927,296.245 
			138.453,296.245 138.453,292.543 138.453,290.178 138.453,284.965 135.017,284.965 135.017,290.178 135.017,292.543 
			135.017,297.345 140.491,297.345 140.491,320.25 140.491,320.303 140.491,330.885 140.491,334.43 140.491,362.137 
			140.491,362.207 140.491,371.59 140.491,376.316 140.491,404.021 140.491,404.111 140.491,412.295 140.491,418.203 
			140.491,445.91 140.491,446.016 140.491,453 140.491,460.09 140.491,464.317 138.182,464.317 138.182,470.256 141.714,470.256 
			141.714,481.146 163.026,481.146 163.026,480.046 145.15,480.046 		"/>
		<polygon opacity="0.5" fill="#ADB0B1" points="143.927,278.396 143.927,278.363 143.927,250.656 143.927,249.473 143.927,236.494 
			143.927,236.476 143.927,208.769 143.927,194.589 143.927,176.601 140.491,176.601 140.491,194.589 140.491,208.769 
			140.491,236.476 140.491,236.494 140.491,249.473 140.491,250.656 140.491,278.363 140.491,278.396 140.491,283.865 
			143.927,283.865 		"/>
		<polygon opacity="0.5" fill="#ADB0B1" points="332.724,469.157 329.189,469.157 329.189,463.218 331.5,463.218 331.5,460.09 
			331.5,453 331.5,446.016 331.5,445.91 331.5,418.203 331.5,412.295 331.5,404.111 331.5,404.021 331.5,376.316 331.5,371.59 
			331.5,362.207 331.5,362.137 331.5,334.43 331.5,330.885 331.5,320.303 331.5,320.25 331.5,296.245 326.026,296.245 
			326.026,292.543 326.026,290.178 326.026,284.965 322.59,284.965 322.59,290.178 322.59,292.543 322.59,297.345 328.064,297.345 
			328.064,320.25 328.064,320.303 328.064,330.885 328.064,334.43 328.064,362.137 328.064,362.207 328.064,371.59 328.064,376.316 
			328.064,404.021 328.064,404.111 328.064,412.295 328.064,418.203 328.064,445.91 328.064,446.016 328.064,453 328.064,460.09 
			328.064,464.317 325.755,464.317 325.755,470.256 329.287,470.256 329.287,481.146 350.6,481.146 350.6,480.046 332.724,480.046 
					"/>
		<rect x="354.036" y="469.157" opacity="0.5" fill="#ADB0B1" width="0.097" height="1.099"/>
		<rect x="355.256" y="296.245" opacity="0.5" fill="#ADB0B1" width="2.312" height="1.1"/>
		<polygon opacity="0.5" fill="#ADB0B1" points="331.5,278.396 331.5,278.363 331.5,250.656 331.5,249.473 331.5,236.494 
			331.5,236.476 331.5,208.769 331.5,194.589 331.5,176.601 328.064,176.601 328.064,194.589 328.064,208.769 328.064,236.476 
			328.064,236.494 328.064,249.473 328.064,250.656 328.064,278.363 328.064,278.396 328.064,283.865 331.5,283.865 		"/>
	</g>
	<g>
		<path fill="#EC1C24" d="M381.359,208.769v-14.18h-26.104V175.5H331.5v1.101v17.989h-3.436h-54.952
			c-6.16,5.378-14.934,8.745-24.677,8.745c-9.743,0-18.516-3.367-24.678-8.745h-56.074V175.5h-23.756v1.101v17.989h-3.436h-24.983
			v14.18h24.983h3.436v27.707h-3.436h-24.983v0.018v12.979v1.183h24.983h3.436v27.707h-3.436h-24.983v0.033v11.781v2.365h19.509
			h3.437v-2.365v-5.213v-1.1h2.038h3.436h20.322h3.434h5.748v6.313v2.365H322.59h3.437v-2.365v-5.213v-1.1h2.038h3.436h20.322h3.434
			h5.748v6.313v2.365h20.355v-2.365v-11.781v-0.033h-26.104v-27.707h26.104v-1.183v-12.979v-0.018h-26.104v-27.707H381.359z
			 M328.064,208.769h3.436v27.707h-3.436H167.683v-27.707H328.064z M331.5,278.363h-3.436H167.683v-27.707h160.381h3.436V278.363z"
			/>
		<path fill="#EC1C24" d="M355.256,297.345v-1.1H331.5v24.005h-3.436H167.683v-22.905v-1.1h-23.756v24.005h-3.436h-24.983v0.053
			v10.582v3.545h24.983h3.436v27.707h-3.436h-24.983v0.07v9.383v4.727h24.983h3.436v27.705h-3.436h-24.983v0.09v8.184v5.908h24.983
			h3.436v27.707h-3.436h-24.983v0.105V453v7.09h24.983h3.436v3.128h20.322h3.434v-3.128h160.381h3.436v3.128h20.322h3.434v-3.128
			h26.104V453v-6.984v-0.105h-26.104v-27.707h26.104v-5.908v-8.184v-0.09h-26.104v-27.705h26.104v-4.727v-9.383v-0.07h-26.104
			V334.43h26.104v-3.545v-10.582v-0.053h-26.104V297.345z M331.5,445.91h-3.436H167.683v-27.707h160.381h3.436V445.91z
			 M331.5,404.021h-3.436H167.683v-27.705h160.381h3.436V404.021z M331.5,362.137h-3.436H167.683V334.43h160.381h3.436V362.137z"/>
	</g>
	<g>
		<polygon fill="#BFC2C3" points="145.15,480.046 163.026,480.046 166.463,480.046 166.463,470.256 166.463,469.157 145.15,469.157 
					"/>
		<polygon fill="#BFC2C3" points="332.724,469.157 332.724,480.046 350.6,480.046 354.036,480.046 354.036,470.256 354.036,469.157 
					"/>
	</g>
	<g>
		<path fill="#D0D2D3" d="M164.249,283.865h-20.322h-3.436h-2.038v1.1v5.213v2.365v3.702h5.474h23.756h2.311h3.437v-3.702v-2.365
			v-6.313h-5.748H164.249z M169.994,284.965h1.458v5.213v2.365v1.062c0,0-0.118-0.428-0.336-1.062
			c-0.223-0.645-0.554-1.504-0.979-2.365c-0.046-0.094-0.094-0.187-0.143-0.28c-0.607-1.168-1.388-2.271-2.311-2.78
			c-0.421-0.232-0.869-0.353-1.347-0.277l-22.409-1.626l-3.436-0.249h3.436h20.322h3.434H169.994z"/>
		<path fill="#D0D2D3" d="M164.249,463.218h-20.322h-2.31v5.939h3.534h21.313h0.097h3.434v-5.939h-2.311H164.249z M168.977,464.043
			v3.904c0,0-0.737-3.136-1.651-3.136l-0.765-0.024l-23.652-0.744h21.341H168.977z"/>
		<path fill="#D0D2D3" d="M355.256,283.865h-3.434H331.5h-3.436h-2.038v1.1v5.213v2.365v3.702h5.474h23.756h2.312h3.437v-3.702
			v-2.365v-6.313H355.256z M359.025,292.543v1.062c0,0-0.118-0.428-0.337-1.062c-0.223-0.645-0.554-1.504-0.979-2.365
			c-0.046-0.094-0.094-0.187-0.143-0.28c-0.606-1.168-1.388-2.272-2.312-2.78c-0.422-0.232-0.869-0.353-1.347-0.277l-22.409-1.626
			l-3.436-0.249h3.436h20.322h3.434h2.312h1.458v5.213V292.543z"/>
		<path fill="#D0D2D3" d="M351.822,463.218H331.5h-2.311v5.939h3.534h21.313h0.097h3.435v-5.939h-2.312H351.822z M356.55,464.043
			v3.904c0,0-0.737-3.136-1.651-3.136l-0.766-0.024l-23.651-0.744h21.341H356.55z"/>
	</g>
	<path fill="#F2F2F2" d="M359.025,293.604v-1.062h-0.337C358.907,293.177,359.025,293.604,359.025,293.604z"/>
	<path fill="#F2F2F2" d="M358.688,292.543h0.337v-2.365h-1.315C358.135,291.039,358.466,291.898,358.688,292.543z"/>
	<path fill="#F2F2F2" d="M357.71,290.178h1.315v-5.213h-1.458v4.933C357.616,289.991,357.664,290.084,357.71,290.178z"/>
	<path fill="#F2F2F2" d="M357.567,289.897v-4.933h-2.312v2.152C356.18,287.625,356.961,288.729,357.567,289.897z"/>
	<polygon fill="#F2F2F2" points="331.5,285.214 331.5,284.965 328.064,284.965 	"/>
	<path fill="#F2F2F2" d="M331.5,285.214l22.409,1.626c0.478-0.075,0.925,0.045,1.347,0.277v-2.152h-3.434H331.5V285.214z"/>
	<path fill="#F2F2F2" d="M354.133,464.317v0.47l0.766,0.024c0.914,0,1.651,3.136,1.651,3.136v-3.904h-4.728v0.274H354.133z"/>
	<polygon fill="#F2F2F2" points="354.133,464.787 354.133,464.317 351.822,464.317 351.822,464.043 330.481,464.043 	"/>
</g>
</svg>
