<?xml version="1.0" encoding="utf-8"?>
<!-- Generator: Adobe Illustrator 16.2.0, SVG Export Plug-In . SVG Version: 6.00 Build 0)  -->
<!DOCTYPE svg PUBLIC "-//W3C//DTD SVG 1.1//EN" "http://www.w3.org/Graphics/SVG/1.1/DTD/svg11.dtd">
<svg version="1.1" id="content" xmlns="http://www.w3.org/2000/svg" xmlns:xlink="http://www.w3.org/1999/xlink" x="0px" y="0px"
	 width="500px" height="500px" viewBox="0 0 500 500" enable-background="new 0 0 500 500" xml:space="preserve">
<g>
	<polygon fill="#E3E5E4" points="352.344,193.11 368.527,198.509 368.527,291.387 429.782,291.387 429.782,180.41 374.095,109.409 
		355.423,95.058 352.344,95.058 	"/>
</g>
<rect id="position" x="0.5" y="0.5" display="none" fill="none" stroke="#000000" width="499" height="499"/>
<g>
	<path fill="#E3E5E4" d="M290.656,95.058c0.063,0.604,0.109,1.215,0.109,1.832c0,14.604-18.459,26.439-41.23,26.439
		c-22.771,0-41.232-11.838-41.232-26.439c0-0.617,0.045-1.228,0.109-1.832h-60.976v277.32h204.908V95.058H290.656z"/>
</g>
<g>
	<polygon fill="#E3E5E4" points="147.415,95.058 144.336,95.058 125.664,109.409 69.976,180.41 69.976,291.387 131.232,291.387 
		131.232,198.509 147.415,193.11 	"/>
</g>
<ellipse fill="#666666" cx="252.209" cy="234.834" rx="82.411" ry="99"/>
<g>
	<path opacity="0.2" enable-background="new    " d="M196.751,184.825c0,0-9.567,9.768-7.854,19.586
		c1.761,9.819,4.531,10.272,21.752,10.272c17.22,0,26.436,0,26.436,0s10.322-0.302,12.687-7.654
		c0.807-2.014,0.707-6.193,0.707-6.193s5.689,17.472-11.329,17.472c-17.02,0-39.528,0-39.528,0s-12.84,0.554-14.451-12.639
		C183.559,192.478,194.585,185.581,196.751,184.825z"/>
	<ellipse opacity="0.2" enable-background="new    " cx="198.991" cy="208.868" rx="2.644" ry="2.241"/>
	<path opacity="0.2" enable-background="new    " d="M215.901,270.451c0,0,2.643,10.283,16.006,11.615
		c5.452,0.377,10.168-0.922,14.054-3.639c3.205-2.143,5.202-1.54,5.59,0.262c-3.99,1.508-7.061,5.395-17.496,5.974
		C223.582,285.244,216.334,277.609,215.901,270.451z"/>
	<path opacity="0.2" enable-background="new    " d="M198.831,273.336c0,0,1.289,9.182,8.899,12.363
		c7.37,3.102,9.503,0.766,11.437,5.637c1.933,4.832,7.53,9.063,7.53,9.063c-7.369-0.807-10.32-7.975-10.32-7.975
		c-1.64-3.141-10.257-0.482-15.21-9.02C196.215,274.867,198.831,273.336,198.831,273.336z"/>
	<path opacity="0.2" enable-background="new    " d="M192.822,220.09c0,0-2.031,6.792,7.813,13.475
		c3.906,3.479,0.468,13.794,3.75,18.639c-3.985-1.954-3.828-7.423-3.985-11.407C199.933,234.076,187.114,229.108,192.822,220.09z"/>
	<path opacity="0.2" enable-background="new    " d="M309.357,184.825c0,0,9.566,9.768,7.854,19.586
		c-1.762,9.819-4.532,10.272-21.753,10.272c-17.22,0-26.435,0-26.435,0s-10.322-0.302-12.688-7.654
		c-0.805-2.014-0.704-6.193-0.704-6.193s-5.69,17.472,11.329,17.472c17.019,0,39.526,0,39.526,0s12.84,0.554,14.451-12.639
		C322.549,192.478,311.521,185.581,309.357,184.825z"/>
	<ellipse opacity="0.2" enable-background="new    " cx="307.116" cy="208.868" rx="2.645" ry="2.241"/>
	<path opacity="0.2" enable-background="new    " d="M262.632,229.001c-7.518-1.513-9.18-5.293-9.504-6.367
		c-0.026-0.098-0.043-0.191-0.074-0.291c-0.03,0.1-0.047,0.193-0.073,0.291c-0.324,1.074-1.986,4.854-9.504,6.367
		c-8.805,1.771-28.885,2.362-27.758,15.785c1.879-7.893,9.879-10.147,17.396-11.221c6.259-0.895,17.847-1.772,19.938-7.296
		c2.094,5.524,13.682,6.401,19.94,7.296c7.518,1.074,15.517,3.329,17.396,11.221C291.518,231.363,271.438,230.772,262.632,229.001z"
		/>
	<path opacity="0.2" enable-background="new    " d="M221.524,250.333c6.078,4.328,17.813,4.384,22.058,0.442
		c3.438-3.189,6.874-4.578,9.473-4.711c2.596,0.133,6.033,1.521,9.471,4.711c4.244,3.939,15.98,3.885,22.057-0.442
		c5.355-3.664,1.893-7.103-0.205-7.963c0,0,2.176,3.69-1.486,5.437c-3.662,1.748-12.957,4.08-18.533-0.055
		c-4.336-3.213-8.762-4.104-11.305-3.004c-2.541-1.1-6.969-0.209-11.304,3.004c-5.575,4.135-14.87,1.803-18.533,0.055
		c-3.662-1.748-1.487-5.437-1.487-5.437C219.632,243.23,216.171,246.67,221.524,250.333z"/>
	<path opacity="0.2" enable-background="new    " d="M285.824,251.43c4.271,9.371-6.428,14.637-10.947,14.637
		c-8.293,0-11.734-2.03-16.959-4.354c-2.465-1.096-3.973-0.635-4.863,0.168c-0.891-0.803-2.397-1.264-4.863-0.168
		c-5.225,2.322-8.665,4.354-16.959,4.354c-4.521,0-15.218-5.266-10.947-14.638c-5.017,3.026-4.479,10.698,4.521,15.8
		c8.997,5.101,20.442-0.664,24.922-3.151c1.06-0.612,1.757-0.048,2.507,0.297c0.26,0.144,0.496,0.201,0.72,0.213
		c0.034,0.003,0.065,0.002,0.103,0.002c0.033,0,0.067,0.001,0.103-0.002c0.224-0.012,0.46-0.069,0.72-0.213
		c0.747-0.345,1.447-0.909,2.508-0.297c4.479,2.485,15.922,8.252,24.92,3.151C290.304,262.127,290.841,254.456,285.824,251.43z"/>
	<path opacity="0.2" enable-background="new    " d="M290.206,270.451c0,0-2.644,10.283-16.007,11.615
		c-5.451,0.377-10.167-0.922-14.055-3.639c-3.205-2.143-5.201-1.54-5.588,0.262c3.988,1.508,7.062,5.395,17.495,5.974
		C282.525,285.244,289.771,277.609,290.206,270.451z"/>
	<path opacity="0.2" enable-background="new    " d="M307.275,273.336c0,0-1.289,9.182-8.898,12.363
		c-7.369,3.102-9.504,0.766-11.438,5.637c-1.933,4.832-7.529,9.063-7.529,9.063c7.369-0.807,10.318-7.975,10.318-7.975
		c1.642-3.141,10.26-0.482,15.211-9.02C309.893,274.866,307.275,273.336,307.275,273.336z"/>
	<path opacity="0.2" enable-background="new    " d="M313.286,220.09c0,0,2.03,6.792-7.813,13.475
		c-3.906,3.479-0.47,13.794-3.75,18.639c3.985-1.954,3.828-7.423,3.985-11.407C306.175,234.076,318.993,229.108,313.286,220.09z"/>
	<ellipse opacity="0.2" enable-background="new    " cx="252.969" cy="272.177" rx="2.381" ry="1.509"/>
</g>
<path fill="#E3E5E4" d="M216,147c1.481,0.057,6.499-2.662,8.454-3.469c-0.628,1.21-3.601,3.761-1.454,5.243
	c4.662-4.801,13.171-10.233,20.224-9.974c-0.525,0.693-1.077,1.617-1.448,2.418c2.38-1.154,5.503-2.031,7.273-4.18
	c2.414,1.246,4.536,2.692,7.163,3.687c-0.875-4.568,6.522-2.32,8.532-1.418c3.426,1.537,7.811,4.365,10.191,7.174
	c0.638-1.449,0.272-3.373,0.352-4.954c2.479,1.151,4.436,3.655,7.02,4.912c2.928,1.425,5.922,2.434,8.906,3.718
	c-0.104-0.387-0.072-0.674-0.238-1.055c1.18,1.003,1.633,2.339,2.775,3.33c1.405,1.218,3.406,2.409,4.987,3.381
	c3.306,2.033,7.343,3.143,10.78,4.844c-0.676-4.222-3.347-8.039-6.449-10.893c-10.926-10.045-25.754-14.074-40.012-16.331
	c-18.132-2.871-39.182-4.457-54.559,7.563c-5.622,4.395-10.606,10.22-13.474,16.718c2.769-0.837,5.367-3.195,8.438-2.925
	c-0.137,0.845-0.271,1.606-0.425,2.425c2.793,0.142,7.101-3.266,9.468-4.663c2.222-1.311,4.891-3.006,5.905-5.58
	c-0.314,0.232-0.556,0.164-0.911,0.281"/>
<path fill="#E3E5E4" d="M170.5,235c0.754,0.144,1.355,0.081,1.781-0.494c-0.7-1.116-3.942-2.295-5.281-1.774
	c-1.946,0.756-2.933,4.718-2.999,6.517c-0.078,2.119-0.375,6.284,0.287,8.257c0.605,1.803,2.627,2.634,3.529,4.232
	c1.204,2.132,0.418,4.363,0.436,6.761c0.028,4.069,2.476,7.78,2.496,11.688c0.01,1.936-1.246,3.242-1.516,5.062
	c-0.244,1.644,0.626,2.539,0.835,4.001c0.336,2.354-0.749,5.008,0.608,7.257c0.896,1.485,2.498,2.185,3.33,3.8
	c0.96,1.865,0.784,4.186,2.032,5.955c1.534,2.178,5.41,3.069,6.18,5.732c0.609,2.104-1.172,3.585-1.542,5.449
	c-0.714,3.596,2.215,4.533,4.635,6.557c3.687,3.08,4.261,8.243,7.995,11.506c3.853,3.367,7.906,6.66,11.944,9.807
	c5.599,4.363,10.478,8.281,17.508,10.2c8.791,2.4,18.043,1.911,26.985,0.555c10.37-1.573,20.36-7.929,29.018-13.565
	c3.735-2.433,12.946-6.948,9.415-12.879c-3.086,1.441-5.242,4.541-8.17,6.316c-3.104,1.883-6.482,2.875-9.523,4.474
	c0.181-1.594,1.242-3.188,0.98-4.873c-1.965,0.274-4.656,3.412-6.713,4.397c-2.754,1.32-3.875,0.517-6.206-0.904
	c-0.164,0.955-0.038,2.054,0.174,2.93c-5.265,0.85-9.963-2.445-14.93-3.438c-0.069,1.381-0.005,2.808-0.075,4.187
	c-3.513-0.358-9.854-3.339-8.75-7.687c-1.392,0.339-3.922,0.774-4.25,2.388c-2.629-1.419-4.615-4.052-7.418-4.882
	c0.206,1.265,1.289,2.502,1.673,3.682c-5.049-0.876-9.04-5.601-11.78-9.423c-1.146,0.887-1.343,2.346-0.989,3.686
	c-3.029-1.599-2.391-4.696-3.921-7.212c-1.642-2.696-4.587-4.567-6.845-6.707c-1.443-1.367-3.432-4.535-5.137-5.022
	c0.101,0.411,0.065,0.937,0.223,1.394c-1.866-3.293-4.484-6.31-6.336-9.605c-1.207-2.148-3.562-6.936-5.887-7.788
	c0.165,0.546,0.125,1.078,0.432,1.63c-3.176-2.93-5.961-6.6-8.294-10.105c-2.296-3.449-5.751-9.976-5.45-14.211
	c1.119,0.683,2.622,1.275,3.98,1.117c-0.24-4.881-3.409-9.082-3.711-13.962c-0.306-4.938,0.645-10.229,0.213-14.98
	c-0.347,0.165-0.71,0.451-0.963,0.73"/>
<path fill="#E3E5E4" d="M169.75,233.25c-1.252-1.952,2.158-5.846,3.412-7.823c-2.012-0.393-3.903,1.107-3.099-1.621
	c0.501-1.701,1.975-2.776,2.187-4.806c0.399-3.814,2.041-6.087,3.226-9.712c-0.425,0.068-1.012-0.146-1.437-0.075
	c-0.063-1.546,1.627-2.594,2.279-3.907c0.599-1.206,0.646-2.529,0.907-3.755c-4.537,0.849,0.33-5.112,1.206-6.356
	c1.914-2.721,3.103-5.369,4.751-8.194c1.381-2.368,2.948-4.424,4.63-6.682c1.425-1.913,4.746-4.318,5.149-6.531
	c-1.332-0.079-2.568,0.395-3.924,0.175c-0.118-1.567,2.845-3.273,3.901-4.45c1.504-1.674,3.9-3.363,5.068-5.255
	c1.114-1.806,0.792-3.666,1.924-5.501c0.922-1.495,3.43-3.414,3.513-5.257c0.202-4.502-6.711-0.329-8.449,0.676
	c-5.428,3.14-11.448,6.918-15.493,11.757c-4.25,5.083-6.094,10.305-7.739,16.563c-1.286,4.89-3.725,9.517-5.462,14.2
	c-2.717,7.327-2.45,16.296-2.063,24.068c0.124,2.485,0.556,4.858,1.025,7.237c0.274,1.392,1.492,5.445,1.238,5.75"/>
<path fill="#E3E5E4" d="M333,251c12.404-7.89,3.62-26.521,7.495-37.693c1.019-2.935,2.759-5.687,3.461-8.742
	c0.504-2.188-0.233-4.105,0.021-6.242c0.334-2.793,3.496-5.817,1.576-8.771c-1.847-2.84-6.043-3.095-8.004-6.364
	c-4.929-8.217-9.367-19.209-19.294-22.249c-2.163-0.662-11.712-3.188-13.328-1.898c-2.419,1.932,5.08,12.476,6.573,14.128
	c2.26-4.726,4.023,3.269,4.557,5.026c0.813,2.687,1.103,6.861,3.448,8.954c0.19-0.718,0.774-1.24,1.063-1.867
	c1.684,1.293,1.436,4.037,1.938,5.968c0.673,2.58,1.518,4.912,2.05,7.499c0.896,4.35,2.726,9.209,2.493,13.725
	c1.094-0.766,1.784-2.02,2.956-2.755c4.394,5.575,1.604,12.435,2.481,19.031c0.455,3.424,1.176,6.544,0.317,10
	c-0.819,3.3-2.01,6.472-2.323,9.912c0.69-0.649,1.393-1.168,2.229-1.379c-0.051,0.913-0.004,1.887,0.317,2.735
	c-0.111,0.44-0.271,0.061-0.529,0.232"/>
<path fill="#E3E5E4" d="M291.5,322.5c3.992-0.496,6.566-6.798,7.688-10.063c1.004-2.916,2.08-5.397,3.307-8.106
	c0.664,1.989-0.266,4.256,1.713,5.649c0.638-3.832,3.127-8.229,5.355-11.393c2.528,5.967,3.89-0.158,5.369-3.333
	c1.611-3.455,2.277-8.485,4.569-11.226c1.713,0.723,3.813,3.531,3.749,5.395c0-3.558-0.5-6.843-0.5-10.426
	c0-3.146-1.38-8.346,1.001-10.773c2.789,1.746,3.159,1.901,4.562-1.42c0.905-2.146,1.615-4.23,1.938-6.556
	c0.293-2.113-0.182-4.767,0.502-6.737c0.655-1.894,2.751-4.494,4.188-5.744c2.52,3.917,1.405,9.498,0.752,13.792
	c-1.245,8.182,0.119,16.521-1.434,24.639c-1.238,6.484-2.574,13.486-5.201,19.568c-2.013,4.659-5.81,9.084-9.305,12.742
	c-2.297,2.404-6.038,3.978-9.25,4.688c-2.857,0.635-5.657-0.164-8.507,0.293c-3.556,0.568-8.463,3.385-10.994-0.493"/>
<path fill="#E3E5E4" d="M144.167,95.5c-4.408,1.214-10.524,4.148-13.715,6.333c0.892-0.081,1.821,0.052,2.69,0.076
	c-2.633,1.537-9.493,4.272-10.248,7.549c0.724-0.495,1.683-0.589,2.48-0.991c-2.981,3.882-8.472,6.113-10.49,10.982
	c0.493-0.197,1.043-0.258,1.582-0.476c-2.496,2.849-5.467,5.517-7.925,8.453c2.689,1.993-8.748,10.744-10.008,13.339
	c0.405,0.026,0.854,0.115,1.258,0.126c-0.445,1.589-4.194,6.404-5.28,3.06c-1.656,2.629-1.945,5.534-3.735,8.159
	c-2.338,0.238-4.624,3.608-5.817,5.414c0.599-0.199,1.303-0.127,1.842-0.29c-2.777,3.379-6.3,6.415-8.242,9.708
	c0.004-0.001,0.564-0.396,0.558-0.39c-3.279,4.634-7.559,6.283-8.542,12.257c-0.127-0.313-0.017-0.55-0.057-0.859
	c-1.293,1.479-1.714,3.145-2.643,4.826c0.811,1.489,1.735,6.404,2.292,7.057"/>
<path fill="#E3E5E4" d="M67.501,203.884c-0.006,0.247-0.013,0.236-0.018-0.033c-0.029-0.258,0.063-0.366,0.276-0.326
	c0.708,6.094-2.053,12.019-0.942,18.192c0.28-0.285,0.71-0.607,0.933-0.832c1.97,4.765-0.192,10.445,0.151,15.582
	c0.422-0.307,1.2-0.383,1.541-0.591c0.569,4.705-3.515,9.485-3.558,14.248c0.459-0.199,1.45-0.071,1.899-0.239
	c0.152,3.004-0.01,6.033-0.3,8.949c-0.136,1.364-0.62,2.932-0.333,4.352c0.264,1.301,1.508,2,1.682,3.315
	c0.314,2.38-0.337,5.747-0.333,8.333c0.005,2.936-2.117,5.377-1.951,7.948c0.383-0.15,1.166-0.097,1.559-0.237
	c-0.499,6.182,1.901,10.006,7.692,12.588c-0.329-0.779-0.077-1.501-0.251-2.247c2.19,0.565,4.699,0.984,6.886,1.563
	c2.006-4.016,8.14-0.07,11.689-0.674c-0.173-0.275-0.318-0.86-0.59-1.209c3.751-0.293,13.28,3.233,15.356,0.324
	c6.468-0.547,12.263,0.793,18.869-1.316c1.96-0.626,1.839,0.177,2.724-2.092c0.498-1.278,1.297-3.399,1.627-4.656
	c0.825-3.146,0.214-6.611-0.208-9.626c0.238,0.342,0.962,0.956,1.199,1.272c0.435-1.771-1.068-4.927-1.342-6.898
	c-0.315-2.268-0.768-4.725-0.867-7.031c0.515,0.322,1.713,0.318,2.226,0.572c0.055-2.655-1.545-5.364-2.358-7.874
	c-1.06-3.271-0.31-5.882-0.542-9.357c1.179,0.086,1.942,0.252,2.641,1.157c0.037-4.321-2.244-7.659-2.44-11.282
	c-0.231-4.256,0.363-8.662,0.474-12.883c0.342,0.202,1.108,0.277,1.525,0.575c2.292-2.388-1.259-9.753-1.25-12.951
	c0.012-4.024,0.109-9.397,2.057-12.943c0.35,0.062,0.703-0.184,0.967-0.266c-0.044,0.499,0.047,1.016,0.026,1.492
	c2.218,0.122,3.999-2.252,5.866-3.233c1.97,1.69,12.025-4.11,5.756-6.708c-7.953-3.294-19.446-1.008-27.916-1.009
	c-9.873-0.002-18.016-4.395-27.498-5.408c-3.407-0.364-7.036-0.412-10.512-0.267c-2.795,0.117-11.315-0.977-11.728,3.205
	c-0.09,0.917,1.207,1.667,1.391,2.52c0.371,1.716,0.193,3.255-0.089,4.998C68.888,196.59,67.598,200.091,67.501,203.884z"/>
<path fill="#E3E5E4" d="M354.834,95.167c3.58,0.744,8.566,1.016,11.882,3.017c-1.235-0.15-2.478-0.104-3.497,0.399
	c1.909,1.309,4.889,1.729,7.189,3.333c2.406,1.678,4.518,3.549,6.643,5.616c-0.775-0.477-1.467-0.411-2.184-0.649
	c2.006,4.884,8.057,7.363,10.564,12.066c0.142,0.105,0.146,0.099,0.018-0.018c-0.567-0.362-1.324-0.421-1.897-0.731
	c0.097,2.776,5.395,7.669,7.364,9.894c2.73,3.081,5.241,7.191,8.217,9.94c-0.668-0.45-1.604-0.75-2.238-1.159
	c0.53,2.467,3.854,6.422,5.681,8.217c2.137,2.099,6.37,3.589,6.677,6.689c0.196-0.271,0.702-0.704,0.907-0.989
	c1.721,1.663,2.39,4.84,3.342,7.041c0.922,2.13,2.866,4.949,2.734,7.299c2.634-2.168,6.813,3.429,8.257,5.561
	c1.813,0.239,2.455,4.784,3.76,6.44c0.698,0.888,1.513,0.272,2.188,2.057c0.643,1.695-0.398,3.954-0.294,5.693
	c0.286,4.751,1.312,7.763-0.902,12.592c0.201-0.712,0.3-1.71,0.54-2.259c-0.017,0.504-0.293,0.127-0.616,0.283"/>
<path fill="#E3E5E4" d="M144.143,206.709c0.381-0.533,0.976-0.902,1.374-1.426c0.052,10.526,0.595,21.199,0.042,31.767
	c0.333-0.144,0.583-0.383,0.874-0.516c0.274,2.499-1.182,4.967-1.208,7.59c0.338-0.112,0.878-0.137,1.217-0.248
	c0.241,3.702-0.781,7.944-0.55,11.914c0.341-0.05,0.541-0.197,0.857-0.257c1.478,3.41-2.826,12.613-3.883,16.248
	c0.815-0.28,2.065-0.307,2.918-0.563c0.37,7.289-1.547,14.356-0.892,21.496c0.291-0.254,0.564-0.465,0.857-0.756
	c2.526,4.22-0.078,11.019-0.249,15.541c-0.209,5.541-0.092,11.137,0.667,16.667c0.72,5.248-2.49,9.17-1.927,14.592
	c0.265,2.554,0.41,5.147,0.852,7.483c0.425,2.251,1.72,4.724,1.741,6.925c0.019,1.942-0.996,3.633-0.942,5.666
	c0.054,2.045,0.465,3.33-0.131,5.593c-0.574,2.179-1.825,5.547,1.044,6.81c3.125,1.373,5.194-3.943,6.663-6.119
	c3.311-4.903,6.649-10.065,8.631-15.698c1.504-4.275,1.785-8.999-0.582-12.924c-2.754-4.566-4.873-6.188-4.69-11.986
	c0.181-5.748,0.929-11.58,1.757-17.272c0.762-5.236,2.436-11.783,0.875-17c-1.322-4.414-4.532-7.905-5.241-12.642
	c-0.803-5.368,2.012-9.057,4.029-13.692c2.074-4.765,0.693-8.748,1.663-13.734c1.376-7.075,3.213-12.639-0.743-19.422
	c-1.586-2.72-3.671-4.659-4.007-7.894c-0.314-3.028,0.837-6.09,1.016-9.09c0.249-4.192,0.149-7.859-0.358-11.943
	c-0.355-2.861-3.645-10.146-7.667-9.038C144.378,193.817,144.875,203.61,144.143,206.709z"/>
<path fill="#E3E5E4" d="M352.834,192.833c-0.814,5.87-1.219,13.895,0.6,19.307c-0.113-0.479-0.391-1.043-0.533-1.539
	c-0.45,6.746,2.151,12.43,1.935,19.131c0.157-1.473-0.403-1.646-1.25-2.514c-2.551,5.518,0.62,13.536,0.176,19.575
	c-0.139,0.019-0.23-0.036-0.276-0.163c0.345,5.938,1.838,12.161,0.685,18.101c0.027-1.039-0.41-1.592-0.724-2.53
	c-1.875,1.104-0.639,10.957-0.609,13.633c0.025,2.385,0.773,4.21,1.082,6.251c0.327,2.169-0.096,4.593-0.066,6.966
	c-0.324-0.38-0.734-0.698-1.031-1.1c0.537,2.582-0.082,5.125,0.023,7.883c0.098,2.522,1.176,4.476,0.992,7.22
	c0-0.146,0-0.293,0-0.438c0.295,1.686-0.391,6.397-1.35,7.786c-0.058-0.365,0.07-0.765,0.016-1.134c0.4,3.16,0.593,4.449-0.018,7.55
	c-0.455,2.313-1.088,6.646-0.908,8.758c0.266,3.131,3.082,3.931,2.26,7.601c-0.604,2.698-2.492,4.549-2.275,7.616
	c0.397-0.221,1.17-0.208,1.625-0.492c0.545,1.773,0.315,3.96,0.317,5.917c-0.007,0.248-0.013,0.237-0.019-0.031
	c-0.028-0.258,0.063-0.365,0.276-0.325c0.541,2.104-1.518,5.979-2.26,7.976c-0.938,2.521-2.673,4.472-2.333,7.333
	c0.236,2.003,3.41,5.259,1.016,6.683c-3.32,1.977-10.382-4.928-12.439-6.674c-10.852-9.208-12.889-29.611-8.834-42.416
	c2.191-6.921,5.576-13.45,8.24-20.192c2.701-6.84,1.203-9.202-1.248-15.824c-3.574-9.65,0.269-18.794,0.934-28.325
	c0.529-7.577,0.093-15.304,2.424-22.583c1.334-4.162,2.764-8.027,3.51-12.409c0.806-4.731-0.652-9.558,0.06-14.175
	c0.495-3.207,2.679-7.175,4.267-10.091c0.639-1.17,0.286-2.278,1.733-2.667c1.696-0.456,2.739,0.724,2.008,2.008"/>
<path fill="#E3E5E4" d="M429.834,197.167c0.646-0.649,0.324,2.444,0.333,3.684c0.012,1.668,0.084,3.051,0.415,4.649
	c0.56,2.703,1.936,5.064,2.785,7.625c-0.773-0.546-1.288-0.521-1.968-1.6c-1.565,3.208-1.259,7.077-0.548,10.642
	c0.689,3.46,0.586,7.224,2.016,10.548c-0.789-1.214-1.341-2.295-2.652-2.498c-1.101,3.427-2.177,21.406,3.234,21.333
	c0.457,2.685-0.739,5.808-1.356,8.275c-0.295,1.182-0.486,3.317-0.909,4.356c-0.528,1.301-1.916,2.031-2.366,3.549
	c-0.038-0.782-0.244-1.408-0.334-2.131c-0.568,4.321,2.873,8.631,2.969,12.864c-0.455-0.405-1.402-0.69-1.894-1.183
	c0.755,4.619-9.307,14.211-13.324,11.55c-1.854-1.229-3.424-5.226-5.076-7.008c-1.479-1.597-3.456-4.591-5.249-5.616
	c-0.84,1.635,0.976,6.404-0.069,7.225c-3.181,2.493-5.586-12.32-5.754-13.658c-1.376-10.916-0.574-22.217-0.585-33.217
	c-0.009-9.244,4.308-12.1,10.008-18.74c3.516-4.094,1.583-5.558,2.634-10.243c0.485-2.163,2.621-6.011,4.035-7.741
	c2.618-3.204,9.974-4.739,12.633-0.951c0.826-0.656,1.069-0.678,1.298-1.681c-0.354,0.263-0.848,0.428-1.272,0.632"/>
</svg>
