<?xml version="1.0" encoding="utf-8"?>
<!-- Generator: Adobe Illustrator 16.2.0, SVG Export Plug-In . SVG Version: 6.00 Build 0)  -->
<!DOCTYPE svg PUBLIC "-//W3C//DTD SVG 1.1//EN" "http://www.w3.org/Graphics/SVG/1.1/DTD/svg11.dtd">
<svg version="1.1" id="content" xmlns="http://www.w3.org/2000/svg" xmlns:xlink="http://www.w3.org/1999/xlink" x="0px" y="0px"
	 width="500px" height="500px" viewBox="0 0 500 500" enable-background="new 0 0 500 500" xml:space="preserve">
<g>
	<path fill="#E3E5E4" d="M390.114,207.017c0.14,0.49,0.354,1.016,0.55,1.534c-3.004-9.167-5.506-19.752-4.143-29.563
		c1.272-2.236-0.543-4.289-3.496-3.494c-0.853,0.229-1.343,0.604-1.666,1.075V175.5H285.23c0.011,0.358,0.026,0.714,0.026,1.074
		c0,20.337-16.487,36.824-36.824,36.824c-20.337,0-36.824-16.487-36.824-36.824c0-0.36,0.017-0.716,0.027-1.074h-93.298
		c-1.258-0.61-2.597-0.821-3.988-0.438c-6.454,1.776-5.604,18.525-6.856,23.825c0.651-0.912,1.67-1.542,2.352-2.438
		c0.087,18.003,1.016,36.256,0.07,54.331c0.571-0.245,0.999-0.655,1.497-0.882c0.468,4.274-2.023,8.495-2.068,12.981
		c0.578-0.191,1.503-0.234,2.081-0.425c0.414,6.332-1.334,13.588-0.939,20.377c0.582-0.085,0.926-0.337,1.465-0.438
		c2.527,5.832-4.833,21.572-6.641,27.789c1.395-0.479,3.533-0.523,4.991-0.964c0.633,12.468-2.647,24.555-1.525,36.766
		c0.498-0.435,0.964-0.795,1.465-1.293c4.321,7.218-0.134,18.846-0.426,26.581c-0.357,9.477-0.157,19.047,1.141,28.506
		c1.231,8.976-4.259,15.683-3.295,24.956c0.453,4.367,0.702,8.804,1.457,12.799c0.728,3.851,2.943,8.079,2.978,11.844
		c0.032,3.322-1.704,6.214-1.612,9.69c0.093,3.498,0.795,5.695-0.224,9.564c-0.982,3.728-3.12,9.487,1.787,11.647
		c1.249,0.549,2.397,0.467,3.459-0.019v0.982h265.853v-0.008c1.514,0.326,2.894,0.25,4.023-0.422
		c4.169-2.48-1.357-8.149-1.769-11.637c-0.591-4.981,2.429-8.377,4.063-12.768c1.292-3.479,4.876-10.225,3.935-13.887
		c-0.238-0.045-0.379,0.027-0.443,0.194c0.025-3.296,0.352-6.916-0.559-9.877c-0.791,0.495-2.137,0.472-2.828,0.857
		c-0.379-5.341,2.91-8.564,3.962-13.262c1.431-6.389-3.474-7.781-3.935-13.232c-0.314-3.678,0.789-11.221,1.58-15.249
		c0.953-4.846,0.78-7.156,0.231-11.556c1.535-2.771,2.593-10.241,2.133-13.096c0.105-4.417-1.576-7.709-1.737-11.883
		c-0.185-4.802,0.895-9.229-0.041-13.726c0.517,0.698,1.231,1.253,1.795,1.915c-0.051-4.133,0.685-8.354,0.115-12.13
		c-0.537-3.554-1.84-6.731-1.884-10.884c-0.05-4.657-2.204-21.813,1.062-23.735c0.545,1.634,1.308,2.596,1.261,4.404
		c2.008-10.341-0.591-21.175-1.192-31.515c0.08,0.222,0.239,0.315,0.48,0.284c0.773-10.516-4.747-24.476-0.307-34.083
		c1.186,1.214,2.035,1.665,2.187,3.118C393.524,227.945,389.358,218.337,390.114,207.017z"/>
	<path fill="#E3E5E4" d="M390.664,208.551c0.126,0.383,0.251,0.769,0.378,1.146C390.957,209.336,390.814,208.946,390.664,208.551z"
		/>
	<path fill="#E3E5E4" d="M393.491,239.068c-0.001,0.419,0.005,0.835-0.009,1.258C393.536,239.822,393.528,239.424,393.491,239.068z"
		/>
</g>
<rect id="position" x="0.5" y="0.5" display="none" fill="none" stroke="#000000" width="499" height="499"/>
<g>
	<path fill="#666666" d="M334.591,382.159c3.326,2.082,3.769,2.268,5.44-1.693c1.08-2.561,1.926-5.046,2.311-7.817
		c0.35-2.521-0.217-5.687,0.6-8.036c0.396-1.141,1.228-2.494,2.177-3.749l-0.095-0.142c0.093-0.061,0.173-0.062,0.244-0.049
		c0.109-0.142,0.219-0.28,0.332-0.418c-0.324-0.967-0.381-2.049-0.324-3.071c-0.998,0.251-1.834,0.87-2.657,1.646
		c0.373-4.104,1.793-7.887,2.771-11.822c1.023-4.121,0.164-7.843-0.379-11.926c-1.046-7.868,2.28-16.049-2.959-22.698
		c-1.396,0.877-2.222,2.373-3.525,3.286c0.276-5.386-1.903-11.183-2.974-16.369c-0.635-3.085-1.643-5.866-2.444-8.942
		c-0.6-2.303-0.304-5.575-2.312-7.117c-0.345,0.747-1.041,1.369-1.269,2.227c-2.797-2.497-3.145-7.475-4.112-10.681
		c-0.636-2.095-2.739-11.631-5.435-5.993c-1.78-1.971-10.726-14.545-7.84-16.85c0.062-0.049,0.154-0.079,0.233-0.118
		c-0.106-0.109-0.214-0.22-0.322-0.328c-2.519-1-5.047-2.021-7.294-3.402c-1.885-1.16-4.271-2.582-5.947-4.033
		c-1.362-1.184-1.902-2.776-3.311-3.971c0.198,0.454,0.161,0.796,0.284,1.258c-3.56-1.532-7.13-2.735-10.622-4.435
		c-3.082-1.498-5.416-4.485-8.371-5.858c-0.096,1.887,0.341,4.181-0.42,5.91c-2.84-3.351-8.069-6.724-12.154-8.556
		c-2.396-1.076-11.22-3.757-10.177,1.691c-3.133-1.188-5.664-2.912-8.542-4.398c-2.111,2.562-5.835,3.608-8.675,4.985
		c0.443-0.955,1.102-2.057,1.729-2.884c-8.413-0.309-18.561,6.17-24.121,11.896c-2.56-1.768,0.985-4.81,1.734-6.253
		c-2.332,0.962-8.317,4.206-10.083,4.137l1.788,0.301c0.423-0.14,0.711-0.058,1.086-0.334c-1.209,3.069-4.393,5.091-7.043,6.653
		c-2.822,1.668-7.96,5.732-11.292,5.563c0.164-0.873,0.309-1.699,0.454-2.582c-0.696,0.614-1.386,1.24-2.068,1.877
		c-0.793,0.91-1.617,1.775-2.092,2.545c-1.35,2.188-0.965,4.406-2.294,6.561c-1.393,2.256-4.251,4.271-6.045,6.268
		c-1.259,1.404-4.792,3.438-4.652,5.309c1.617,0.262,3.091-0.303,4.68-0.209c-0.48,2.64-4.442,5.508-6.141,7.79
		c-2.007,2.692-3.876,5.145-5.523,7.969c-1.965,3.369-3.383,6.526-5.665,9.771c-1.046,1.483-6.851,8.594-1.439,7.582
		c-0.311,1.461-0.367,3.041-1.081,4.479c-0.778,1.566-2.793,2.816-2.718,4.66c0.507-0.086,1.207,0.171,1.714,0.089
		c-1.414,4.323-3.373,7.035-3.848,11.583c-0.211,2.023-1.465,3.255-2.225,4.787c-0.094,0.953-0.179,1.908-0.255,2.867
		c0.644,0.299,2.078-0.28,3.567,0.011c-0.966,1.521-2.999,3.997-3.918,6.187c-0.033,0.941-0.057,1.887-0.071,2.833
		c1.299,0.438,2.512,1.13,2.938,1.81c-0.267,0.359-0.594,0.545-0.972,0.621c0.515,5.666-0.619,11.974-0.254,17.86
		c0.36,5.82,4.14,10.831,4.426,16.652c-0.608,0.07-1.241,0.015-1.865-0.125c1.839,7.212,4.238,14.127,7.135,20.678
		c1.943,2.537,4.071,4.99,6.376,7.115c-0.367-0.658-0.319-1.293-0.516-1.943c2.773,1.018,5.583,6.727,7.022,9.288
		c2.208,3.932,5.33,7.528,7.557,11.456c-0.189-0.545-0.147-1.172-0.267-1.662c2.034,0.581,4.406,4.359,6.127,5.99
		c2.693,2.552,6.205,4.783,8.162,7.999c1.827,3,1.065,6.694,4.678,8.603c-0.423-1.6-0.188-3.339,1.179-4.396
		c3.268,4.559,8.028,10.193,14.05,11.237c-0.458-1.406-1.75-2.882-1.995-4.392c3.343,0.99,5.711,4.13,8.847,5.822
		c0.392-1.924,3.408-2.443,5.069-2.848c-1.316,5.186,6.247,8.739,10.436,9.168c0.083-1.646,0.007-3.348,0.089-4.993
		c5.924,1.183,11.527,5.112,17.806,4.1c-0.254-1.045-0.403-2.354-0.207-3.494c2.779,1.694,4.117,2.653,7.4,1.078
		c2.452-1.175,5.662-4.917,8.006-5.244c0.313,2.011-0.953,3.911-1.168,5.813c3.627-1.906,7.655-3.09,11.356-5.335
		c3.492-2.118,6.063-5.814,9.744-7.534c0.991,1.666,1.133,3.236,0.724,4.703c3.188-1.898,6.277-3.992,9.256-6.279
		c1.452-2.385,2.508-5.11,3.153-6.992c1.197-3.479,2.481-6.438,3.944-9.669c0.792,2.372-0.317,5.075,2.043,6.737
		c0.76-4.57,3.729-9.813,6.387-13.587c3.016,7.116,4.639-0.188,6.402-3.976c1.923-4.12,2.718-10.12,5.451-13.389
		c1.183,0.499,2.509,1.839,3.41,3.307c0.289-0.563,0.573-1.127,0.854-1.695c-0.175-2.506-0.39-4.994-0.39-7.611
		C333.396,391.256,331.751,385.055,334.591,382.159z M314.752,308.694c1.74,0,3.153,1.195,3.153,2.674
		c0,1.476-1.413,2.671-3.153,2.671c-1.743,0-3.154-1.195-3.154-2.671C311.598,309.891,313.009,308.694,314.752,308.694z
		 M250.187,327.785c0.031-0.116,0.051-0.229,0.087-0.348c0.037,0.118,0.057,0.23,0.088,0.348c0.387,1.281,2.369,5.79,11.335,7.594
		c10.502,2.113,34.449,2.817,33.104,18.826c-2.24-9.413-11.781-12.102-20.747-13.382c-7.465-1.068-21.284-2.114-23.782-8.703
		c-2.495,6.589-16.315,7.635-23.779,8.703c-8.965,1.28-18.506,3.969-20.748,13.382c-1.344-16.009,22.604-16.713,33.106-18.826
		C247.817,333.575,249.8,329.066,250.187,327.785z M214.688,357.809c4.369,2.085,15.455,4.865,22.104-0.065
		c5.17-3.832,10.451-4.896,13.481-3.582c3.034-1.313,8.312-0.25,13.482,3.582c6.65,4.932,17.736,2.15,22.104,0.065
		c4.367-2.085,1.772-6.483,1.772-6.483c2.501,1.023,6.632,5.127,0.244,9.496c-7.247,5.161-21.244,5.227-26.306,0.527
		c-4.101-3.806-8.199-5.46-11.295-5.62c-3.099,0.16-7.198,1.816-11.297,5.62c-5.063,4.7-19.059,4.635-26.308-0.527
		c-6.384-4.368-2.256-8.473,0.245-9.496C212.914,351.324,210.321,355.724,214.688,357.809z M211.193,362.128
		c-5.093,11.177,7.664,17.457,13.055,17.457c9.893,0,13.995-2.423,20.226-5.192c2.941-1.307,4.738-0.757,5.8,0.201
		c1.062-0.958,2.861-1.508,5.8-0.201c6.23,2.771,10.335,5.192,20.226,5.192c5.392,0,18.15-6.28,13.058-17.456
		c5.982,3.609,5.343,12.758-5.387,18.842c-10.73,6.084-24.379-0.794-29.721-3.758c-1.266-0.729-2.1-0.058-2.99,0.354
		c-0.311,0.172-0.592,0.239-0.859,0.254c-0.042,0.004-0.083,0.003-0.122,0.003c-0.044,0-0.082,0.001-0.123-0.003
		c-0.267-0.015-0.548-0.082-0.858-0.254c-0.895-0.411-1.726-1.084-2.991-0.354c-5.342,2.967-18.992,9.842-29.723,3.758
		C205.851,374.887,205.21,365.737,211.193,362.128z M185.796,308.694c1.741,0,3.153,1.195,3.153,2.674
		c0,1.476-1.412,2.671-3.153,2.671c-1.741,0-3.153-1.195-3.153-2.671C182.644,309.891,184.055,308.694,185.796,308.694z
		 M169.313,307.552c-1.923-15.731,11.228-23.957,13.811-24.858c0,0-11.411,11.648-9.368,23.358
		c2.101,11.71,5.404,12.251,25.942,12.251c20.538,0,31.529,0,31.529,0s12.311-0.359,15.131-9.129
		c0.963-2.402,0.843-7.386,0.843-7.386s6.785,20.838-13.511,20.838c-20.299,0-47.143,0-47.143,0S171.235,323.287,169.313,307.552z
		 M178.439,324.751c0,0-2.423,8.101,9.317,16.072c4.659,4.147,0.559,16.45,4.473,22.229c-4.752-2.331-4.566-8.854-4.752-13.604
		C186.92,341.432,171.631,335.507,178.439,324.751z M206.531,411.021c-1.957-3.746-12.233-0.575-18.14-10.758
		c-5.906-10.183-2.786-12.009-2.786-12.009s1.537,10.951,10.614,14.745c8.789,3.699,11.333,0.913,13.64,6.723
		c2.305,5.764,8.981,10.81,8.981,10.81C210.051,419.569,206.531,411.021,206.531,411.021z M227.615,401.765
		c-12.49,0.692-21.135-8.413-21.652-16.949c0,0,3.153,12.265,19.091,13.854c6.502,0.449,12.126-1.1,16.761-4.34
		c3.823-2.556,6.205-1.837,6.667,0.312C243.723,396.438,240.061,401.074,227.615,401.765z M247.334,386.873
		c0-0.994,1.271-1.8,2.838-1.8c1.568,0,2.839,0.806,2.839,1.8c0,0.993-1.271,1.799-2.839,1.799
		C248.605,388.672,247.334,387.866,247.334,386.873z M272.932,401.765c-12.442-0.689-16.107-5.325-20.865-7.125
		c0.461-2.147,2.843-2.866,6.664-0.312c4.638,3.24,10.263,4.789,16.764,4.34c15.938-1.589,19.091-13.854,19.091-13.854
		C294.064,393.352,285.423,402.457,272.932,401.765z M312.155,400.264c-5.905,10.183-16.185,7.012-18.142,10.758
		c0,0-3.519,8.549-12.307,9.511c0,0,6.675-5.046,8.979-10.81c2.308-5.81,4.854-3.022,13.642-6.723
		c9.075-3.794,10.612-14.745,10.612-14.745S318.063,390.08,312.155,400.264z M313.072,349.447c-0.188,4.752,0,11.273-4.754,13.604
		c3.912-5.778-0.187-18.081,4.473-22.229c11.74-7.973,9.318-16.072,9.318-16.072C328.916,335.507,313.629,341.432,313.072,349.447z
		 M331.234,307.552C329.313,323.287,314,322.626,314,322.626s-26.844,0-47.141,0c-20.297,0-13.512-20.838-13.512-20.838
		s-0.121,4.983,0.84,7.386c2.821,8.77,15.133,9.129,15.133,9.129s10.99,0,31.527,0s23.842-0.541,25.942-12.251
		c2.043-11.71-9.366-23.358-9.366-23.358C320.006,283.595,333.157,291.818,331.234,307.552z"/>
	<path fill="#666666" d="M151.816,342.534l0.003,0.896c0.299-0.33,0.728-0.667,1.139-0.864
		C152.619,342.633,152.24,342.614,151.816,342.534z"/>
</g>
</svg>
