<?xml version="1.0" encoding="utf-8"?>
<!-- Generator: Adobe Illustrator 16.2.0, SVG Export Plug-In . SVG Version: 6.00 Build 0)  -->
<!DOCTYPE svg PUBLIC "-//W3C//DTD SVG 1.1//EN" "http://www.w3.org/Graphics/SVG/1.1/DTD/svg11.dtd">
<svg version="1.1" id="Layer_1" xmlns="http://www.w3.org/2000/svg" xmlns:xlink="http://www.w3.org/1999/xlink" x="0px" y="0px"
	 width="500px" height="500px" viewBox="0 0 500 500" enable-background="new 0 0 500 500" xml:space="preserve">
<rect x="0.5" y="0.5" display="none" fill="#FFFFFF" stroke="#000000" width="500" height="500"/>
<g>
	<path fill="#E3E5E4" d="M74.004,217.376c0.001-0.062,0.009-0.123,0.012-0.185c-0.015,0.045-0.036,0.083-0.027,0.157
		C73.993,217.58,73.999,217.589,74.004,217.376z"/>
	<path fill="#E3E5E4" d="M129.965,210.656c-0.27-0.526-0.635-1.048-1.072-1.563c-0.026-0.856-0.067-1.667-0.026-2.242
		c0.442,0.384,0.917,0.864,1.45,1.128c-0.668-2.157-1.687-4.777-1.45-7.128c0.568,0.356,1.149,0.762,1.649,1.249
		c-0.896-1.843-1.854-3.9-2.558-5.896c-0.64-1.816-0.714-4.441-1.792-6.037l-0.01,0.005c-3.768-9.648-13.147-16.487-24.129-16.487
		c-12.759,0-23.355,9.228-25.498,21.372c-0.323,0.789-0.632,1.559-0.868,2.272c-0.708,2.141-2.352,4.792-2.17,7.121
		c0.224-0.438,0.515-0.449,0.804-0.763c1.35,3.231-1.605,6.833-1.272,9.953c0.511-0.126,1-0.145,1.475-0.1
		c-0.248,1.197-0.438,2.407-0.484,3.651c0.029-0.091,0.088-0.146,0.209-0.123c0.607,5.227-1.76,10.308-0.808,15.602
		c0.241-0.244,0.609-0.52,0.801-0.713c1.689,4.087-0.164,8.958,0.129,13.363c0.362-0.263,1.03-0.329,1.321-0.507
		c0.489,4.035-3.014,8.134-3.051,12.219c0.394-0.171,1.244-0.061,1.629-0.204c0.131,2.576-0.008,5.174-0.258,7.675
		c-0.116,1.17-0.531,2.514-0.285,3.731c0.226,1.115,1.293,1.715,1.442,2.844c0.27,2.04-0.289,4.929-0.286,7.146
		c0.004,2.518-1.815,4.611-1.673,6.815c0.33-0.128,1-0.082,1.337-0.203c-0.234,2.899,0.281,5.19,1.603,7.037V292h0.086
		c1.095,1.473,2.718,2.656,4.907,3.633c-0.282-0.668-0.065-1.288-0.215-1.928c1.878,0.485,4.03,0.845,5.905,1.341
		c1.72-3.443,6.981-0.06,10.025-0.577c-0.148-0.236-0.273-0.738-0.506-1.037c3.216-0.252,11.388,2.773,13.169,0.278
		c5.547-0.47,10.517,0.681,16.182-1.129c1.115-0.356,1.445-0.177,1.762-0.581h0.487v-0.992c0.028-0.071,0.056-0.141,0.087-0.221
		c0.427-1.097,1.112-2.916,1.395-3.993c0.708-2.699,0.184-5.671-0.179-8.256c0.204,0.293,0.826,0.82,1.028,1.091
		c0.374-1.519-0.915-4.225-1.15-5.916c-0.27-1.944-0.658-4.052-0.744-6.03c0.442,0.277,1.469,0.274,1.91,0.492
		c0.047-2.278-1.325-4.602-2.023-6.753c-0.151-0.467-0.248-0.915-0.324-1.357v-6.655c0.931,0.077,1.554,0.241,2.125,0.979
		c0.031-3.706-1.924-6.568-2.093-9.676c-0.018-0.336-0.024-0.675-0.032-1.014v-1.777c0.066-2.761,0.368-5.553,0.439-8.257
		c0.293,0.173,0.95,0.237,1.308,0.493c1.961-2.042-1.065-8.333-1.072-11.093C128.597,219.317,131.717,214.073,129.965,210.656z"/>
</g>
</svg>
