<?xml version="1.0" encoding="utf-8"?>
<!-- Generator: Adobe Illustrator 16.2.0, SVG Export Plug-In . SVG Version: 6.00 Build 0)  -->
<!DOCTYPE svg PUBLIC "-//W3C//DTD SVG 1.1//EN" "http://www.w3.org/Graphics/SVG/1.1/DTD/svg11.dtd">
<svg version="1.1" id="Layer_1" xmlns="http://www.w3.org/2000/svg" xmlns:xlink="http://www.w3.org/1999/xlink" x="0px" y="0px"
	 width="500px" height="500px" viewBox="0 0 500 500" enable-background="new 0 0 500 500" xml:space="preserve">
<rect x="0.5" y="0.5" display="none" fill="#FFFFFF" stroke="#000000" width="500" height="500"/>
<g>
	<path fill="#DDDBDB" d="M127.929,199.632v-0.046c0-14.305-11.597-25.901-25.901-25.901c-8.792,0-16.555,4.384-21.237,11.082
		c10.091,4.824,22.64,9.681,37.016,12.916C121.19,198.443,124.564,199.088,127.929,199.632z"/>
	<path fill="#DDDBDB" d="M115.446,205.934c-14.999-3.401-27.958-8.42-38.34-13.396c-0.633,2.242-0.979,4.604-0.979,7.048v42.217
		h51.803l-0.001-33.537C123.769,207.646,119.607,206.877,115.446,205.934z"/>
	<path fill="#727272" d="M127.929,208.266v-1.832c-3.961-0.606-7.923-1.343-11.885-2.242c-14.999-3.4-27.974-8.414-38.385-13.394
		c-0.206,0.57-0.387,1.152-0.553,1.74c10.382,4.976,23.341,9.995,38.34,13.396C119.607,206.877,123.769,207.646,127.929,208.266z"/>
	<path fill="#1A4935" d="M117.806,197.682c-14.376-3.234-26.924-8.091-37.016-12.916c-0.667,0.954-1.27,1.956-1.806,2.998
		c-0.502,0.978-0.949,1.988-1.326,3.033c10.412,4.98,23.386,9.994,38.385,13.394c3.962,0.898,7.924,1.635,11.885,2.242v-3.289
		v-3.512C124.564,199.088,121.19,198.443,117.806,197.682z"/>
</g>
</svg>
