<?xml version="1.0" encoding="utf-8"?>
<!-- Generator: Adobe Illustrator 16.0.0, SVG Export Plug-In . SVG Version: 6.00 Build 0)  -->
<!DOCTYPE svg PUBLIC "-//W3C//DTD SVG 1.1//EN" "http://www.w3.org/Graphics/SVG/1.1/DTD/svg11.dtd">
<svg version="1.1" id="content" xmlns="http://www.w3.org/2000/svg" xmlns:xlink="http://www.w3.org/1999/xlink" x="0px" y="0px"
	 width="500px" height="500px" viewBox="0 0 500 500" enable-background="new 0 0 500 500" xml:space="preserve">
<rect id="position" x="0.5" y="0.5" display="none" fill="none" stroke="#000000" width="499" height="499"/>
<g>
	<rect x="117.44" y="174.489" fill="#D9D9D9" width="265.119" height="304.591"/>
	<rect x="303.167" y="174.736" fill="#C4C4C4" width="19" height="305.097"/>
	<rect x="177.968" y="174.736" fill="#C4C4C4" width="19" height="305.097"/>
	<path opacity="0.2" fill="#5E5E5E" d="M223.29,204.68c2.75,0,5,2.25,5,5v17.57c0,2.75,2.25,5,5,5h27.675c2.75,0,5,2.25,5,5v27.53
		c0,2.75-2.25,5-5,5H158c-2.75,0-5-2.25-5-5v-55.1c0-2.75,2.25-5,5-5H223.29z"/>
	<rect x="212.5" y="189.375" fill="#B5B5B5" width="5.875" height="12.625"/>
	<path fill="#E8E8E8" d="M222.25,188.188c0,2.037-1.651,3.688-3.688,3.688h-6.25c-2.036,0-3.688-1.651-3.688-3.688l0,0
		c0-2.037,1.651-3.688,3.688-3.688h6.25C220.599,184.5,222.25,186.151,222.25,188.188L222.25,188.188z"/>
	<rect x="195.482" y="189.375" fill="#B5B5B5" width="5.875" height="12.625"/>
	<path fill="#E8E8E8" d="M205.232,188.188c0,2.037-1.651,3.688-3.688,3.688h-6.25c-2.036,0-3.688-1.651-3.688-3.688l0,0
		c0-2.037,1.651-3.688,3.688-3.688h6.25C203.581,184.5,205.232,186.151,205.232,188.188L205.232,188.188z"/>
	<rect x="178.465" y="189.375" fill="#B5B5B5" width="5.875" height="12.625"/>
	<path fill="#E8E8E8" d="M188.215,188.188c0,2.037-1.651,3.688-3.688,3.688h-6.25c-2.036,0-3.688-1.651-3.688-3.688l0,0
		c0-2.037,1.651-3.688,3.688-3.688h6.25C186.563,184.5,188.215,186.151,188.215,188.188L188.215,188.188z"/>
	<rect x="161.447" y="189.375" fill="#B5B5B5" width="5.875" height="12.625"/>
	<path fill="#E8E8E8" d="M171.197,188.188c0,2.037-1.651,3.688-3.688,3.688h-6.25c-2.036,0-3.688-1.651-3.688-3.688l0,0
		c0-2.037,1.651-3.688,3.688-3.688h6.25C169.546,184.5,171.197,186.151,171.197,188.188L171.197,188.188z"/>
	<path fill="#E8E8E8" d="M223.29,198.791c2.75,0,5,2.25,5,5v17.57c0,2.75,2.25,5,5,5h27.675c2.75,0,5,2.25,5,5v27.53
		c0,2.75-2.25,5-5,5H158c-2.75,0-5-2.25-5-5v-55.1c0-2.75,2.25-5,5-5H223.29z"/>
	<circle fill="#D1D1D1" cx="247.11" cy="245.166" r="11.844"/>
	<circle fill="#E8E8E8" cx="247.11" cy="245.167" r="5.822"/>
	<path opacity="0.2" fill="#5E5E5E" d="M348.546,197.592c0-3.884-3.149-7.032-7.033-7.032h-56.635c-3.884,0-7.032,3.148-7.032,7.032
		v65.154c0,3.884,3.148,7.033,7.032,7.033l56.635-0.001c3.884,0,7.033-3.148,7.033-7.032V197.592z"/>
	<path fill="#E8E8E8" d="M348.546,191.704c0-3.884-3.149-7.032-7.033-7.032h-56.635c-3.884,0-7.032,3.148-7.032,7.032v65.154
		c0,3.884,3.148,7.033,7.032,7.033l56.635-0.001c3.884,0,7.033-3.148,7.033-7.032V191.704z"/>
	<circle fill="#72BB53" cx="313.196" cy="224.281" r="25.611"/>
	<path fill="#E8E8E8" d="M302.302,230.909c-0.957-1.807-1.439-3.813-1.439-6.016s0.482-4.207,1.439-6.016
		c0.962-1.807,2.311-3.237,4.052-4.285c1.74-1.049,3.705-1.573,5.893-1.573c2.472,0,4.621,0.788,6.453,2.366v-1.921h5.669v22.856
		h-5.669v-1.919c-1.786,1.576-3.937,2.364-6.453,2.364c-2.188,0-4.152-0.524-5.893-1.573
		C304.612,234.146,303.264,232.716,302.302,230.909z M312.984,231.433c2.335,0,4.239-0.989,5.715-2.967v-7.143
		c-0.79-1.042-1.692-1.797-2.702-2.267c-1.014-0.468-2.017-0.703-3.013-0.703c-1.772,0-3.258,0.626-4.464,1.875
		s-1.808,2.805-1.808,4.665c0,1.861,0.602,3.415,1.808,4.665C309.727,230.81,311.212,231.433,312.984,231.433z"/>
	<path fill="none" stroke="#C4C4C4" stroke-width="3" stroke-miterlimit="10" d="M217.5,212.02c0-2.209-1.791-4-4-4H167
		c-2.209,0-4,1.791-4,4v38.607c0,2.209,1.791,4,4,4h46.5c2.209,0,4-1.791,4-4V212.02z"/>
	<path opacity="0.2" fill="#5E5E5E" d="M343.196,378.5c0,2.209-1.791,4-4,4H161.468c-2.209,0-4-1.791-4-4v-86.565
		c0-2.209,1.791-4,4-4h177.729c2.209,0,4,1.791,4,4V378.5z"/>
	<path fill="#E8E8E8" d="M343.196,370.808c0,2.209-1.791,4-4,4H161.468c-2.209,0-4-1.791-4-4v-86.565c0-2.209,1.791-4,4-4h177.729
		c2.209,0,4,1.791,4,4V370.808z"/>
	<path fill="#8C8C8C" d="M338,290.25c0-2.209-1.791-4-4-4H166c-2.209,0-4,1.791-4,4v39.069c0,2.209,1.791,4,4,4h168
		c2.209,0,4-1.791,4-4V290.25z"/>
	<path fill="#969696" d="M334,289.728H166c-2.209,0-4,1.791-4,4v35.592c0,2.209,1.791,4,4,4h168c2.209,0,4-1.791,4-4v-35.592
		C338,291.519,336.209,289.728,334,289.728z"/>
	<path fill="#D9D9D9" d="M293.89,324.836c0,2.209-1.791,4-4,4H170.551c-2.209,0-4-1.791-4-4v-29.285c0-2.209,1.791-4,4-4H289.89
		c2.209,0,4,1.791,4,4V324.836z"/>
	<circle fill="#8C8C8C" cx="315.968" cy="307.196" r="10.484"/>
	<circle fill="#D9D9D9" cx="315.968" cy="303.035" r="10.484"/>
	<circle fill="#949494" cx="315.968" cy="303.035" r="6.01"/>
	<path fill="none" stroke="#C4C4C4" stroke-width="3" stroke-miterlimit="10" d="M187.468,291.551v15.7c0,0-0.247,2.942,3.208,2.942
		h78.613c3.455,0,3.208,2.942,3.208,2.942v15.7"/>
</g>
</svg>
