<?xml version="1.0" encoding="utf-8"?>
<!-- Generator: Adobe Illustrator 16.0.0, SVG Export Plug-In . SVG Version: 6.00 Build 0)  -->
<!DOCTYPE svg PUBLIC "-//W3C//DTD SVG 1.1//EN" "http://www.w3.org/Graphics/SVG/1.1/DTD/svg11.dtd">
<svg version="1.1" id="content" xmlns="http://www.w3.org/2000/svg" xmlns:xlink="http://www.w3.org/1999/xlink" x="0px" y="0px"
	 width="500px" height="500px" viewBox="0 0 500 500" enable-background="new 0 0 500 500" xml:space="preserve">
<rect id="position" x="0.5" y="0.5" display="none" fill="none" stroke="#000000" width="499" height="499"/>
<g>
	<path fill="#D9D9D9" d="M77.088,299.728V196.959c0-14.031,11.376-25.407,25.407-25.407l0,0c14.033,0,25.409,11.376,25.409,25.407
		v102.768H77.088z"/>
	<path fill="#C4C4C4" d="M93.871,173.056c-0.682,0.246-1.347,0.524-2,0.825V286.25h2V173.056z"/>
	<path opacity="0.2" fill="#5E5E5E" d="M110.654,227.189c2.209,0,4-1.791,4-4v-25.875c0-2.209-1.791-4-4-4H77.353
		c-0.172,1.191-0.265,2.407-0.265,3.645v30.23H110.654z"/>
	<path fill="#E8E8E8" d="M114.654,218.5c0,2.209-1.791,4-4,4H76.721c-2.209,0-4-1.791-4-4v-25.875c0-2.209,1.791-4,4-4h33.934
		c2.209,0,4,1.791,4,4V218.5z"/>
	<rect x="77.088" y="281.333" fill="#72BB53" width="50.816" height="8.909"/>
</g>
</svg>
