<?xml version="1.0" encoding="utf-8"?>
<!-- Generator: Adobe Illustrator 18.0.0, SVG Export Plug-In . SVG Version: 6.00 Build 0)  -->
<!DOCTYPE svg PUBLIC "-//W3C//DTD SVG 1.1//EN" "http://www.w3.org/Graphics/SVG/1.1/DTD/svg11.dtd">
<svg version="1.1" id="content" xmlns="http://www.w3.org/2000/svg" xmlns:xlink="http://www.w3.org/1999/xlink" x="0px" y="0px"
	 width="500px" height="500px" viewBox="0 0 500 500" enable-background="new 0 0 500 500" xml:space="preserve">
<g>
	<path fill="#42499D" d="M316.6,191.9v-18h-28.8v22.6c0,21.1-17.1,38.3-38.3,38.3c-21.1,0-38.3-17.1-38.3-38.3v-22.6h-22.5
		c-1.4,25.7-9.6,47.1-24.3,59.7c-15.4,13.2-34,15.4-44.7,15.4c-1.2,0-2.3,0-3.2-0.1v40v191.6h265.8V237.1
		C343,243.3,316.6,215.5,316.6,191.9z"/>
	<g>
		<path fill="#FFFFFF" d="M184.7,173.9h-2.2h-2.8h-4c-1.3,21.6-7.9,39.6-19.7,49.7c-7.6,6.5-16.4,9.7-24.1,11.1
			c-6.4,1.2-12,1.3-15.5,1.1v4v5v4c1,0,2,0.1,3.2,0.1c10.7,0,29.3-2.2,44.7-15.4c14.7-12.6,22.9-34,24.3-59.7L184.7,173.9
			L184.7,173.9z"/>
		<path fill="#D0D1E5" d="M182.5,173.9h-2.8c-1.4,22.9-8.4,41.9-21.1,52.8c-3.6,3.1-7.5,5.5-11.4,7.4c-12.1,5.7-24.5,6.1-30.7,5.8v5
			c1,0,2.1,0.1,3.3,0.1c10.1,0,27.5-2.1,42-14.4c2.6-2.2,5-4.7,7.2-7.4c6.4-8,10.9-17.9,13.5-29.8c1.2-5.4,1.9-13.2,2.3-19.4h-2.3
			V173.9z"/>
	</g>
	<g>
		<path fill="#FFFFFF" d="M314.1,173.9h2.2h2.8h4c1.3,21.6,7.9,39.6,19.7,49.7c7.6,6.5,16.4,9.7,24.1,11.1c6.4,1.2,12,1.3,15.5,1.1
			v4v5v4c-1,0-2,0.1-3.2,0.1c-10.7,0-29.3-2.2-44.7-15.4c-14.7-12.6-22.9-34-24.3-59.7L314.1,173.9L314.1,173.9z"/>
		<path fill="#D0D1E5" d="M316.3,173.9h2.8c1.4,22.9,8.4,41.9,21.1,52.8c3.6,3.1,7.5,5.5,11.4,7.4c12.1,5.7,24.5,6.1,30.7,5.8v5
			c-1,0-2.1,0.1-3.3,0.1c-10.1,0-27.5-2.1-42-14.4c-2.6-2.2-5-4.7-7.2-7.4c-6.4-8-10.9-17.9-13.5-29.8c-1.2-5.4-1.9-13.2-2.3-19.4
			h2.3V173.9z"/>
	</g>
	<path fill="none" d="M249.6,228.3c7.3,0.1,13.2-2.2,18-7.1c6.1-6.2,10.5-16.7,12.8-30.2c1-6,1.4-13.4,1.5-17.1h-64
		c0.2,9.7,2,34.4,13.4,46.6C236.2,225.6,242.2,228.2,249.6,228.3z"/>
	<path fill="#FFFFFF" d="M280.5,191c-2.3,13.6-6.7,24-12.8,30.2c-4.8,4.9-10.7,7.2-18,7.1c-7.5-0.1-13.4-2.7-18.3-7.8
		c-11.4-12.2-13.2-36.9-13.4-46.6h-13c0.2,11.2,2.3,39.9,16.9,55.4c7.3,7.7,16.5,11.8,27.5,12c0.3,0,0.5,0,0.8,0
		c10.6,0,19.6-3.7,26.7-11c15.2-15.4,17.7-45,18-56.4h-13C281.8,177.5,281.4,185,280.5,191z"/>
	<path fill="none" d="M249.5,232.3c8.3,0.1,15.4-2.7,21-8.3c12.8-13,15.1-39.7,15.4-50.1h-72c0.2,10.2,2.1,36.1,14.4,49.3
		C234,229.1,241.1,232.2,249.5,232.3z"/>
	<path fill="#D0D1E5" d="M270.5,224c-5.6,5.7-12.6,8.4-21,8.3c-8.5-0.1-15.6-3.2-21.1-9.1c-12.3-13.2-14.2-39.1-14.4-49.3h-5
		c0.1,3.8,0.4,11.4,1.3,17.7c2.3,15.4,7.2,27.2,14.5,35c6.5,6.9,14.8,10.5,24.7,10.7c0.2,0,0.5,0,0.7,0c9.5,0,17.5-3.3,23.9-9.8
		c7.6-7.7,12.7-19.6,15.3-35.3c1.1-6.6,1.5-14.4,1.6-18.3h-5C285.6,184.3,283.3,211,270.5,224z"/>
</g>
<rect id="position" x="0.5" y="0.5" display="none" fill="none" stroke="#000000" width="499" height="499"/>
<g>
	<g>
		<g>
			<path fill="#E00E45" d="M216.8,331.2l-9.2-9.2v-43.3l9.2-9.2h27.3l9.2,9.2V322l-9.2,9.2H216.8z M220.9,285.2v30.4l3.6,3.5h11.8
				l3.5-3.5v-30.4l-3.5-3.6h-11.9L220.9,285.2z"/>
		</g>
		<g>
			<path fill="#FFFFFF" d="M243.1,272l7.7,7.8v41.3l-7.7,7.7h-25.3l-7.7-7.7v-41.3l7.7-7.8H243.1 M223.6,321.7h2h9.8h2.1l1.5-1.4
				l2.1-2.1l1.5-1.5v-2.1v-28.3v-2l-1.4-1.4l-2.1-2.2l-1.5-1.5h-2.1h-9.9h-2.1l-1.5,1.4l-2.2,2.2l-1.5,1.5v2.1v28.3v2.1l1.5,1.5
				l2.2,2.1L223.6,321.7 M245.2,267h-29.4l-10.6,10.7V323l10.6,10.6h29.4l10.6-10.6v-45.3L245.2,267L245.2,267z M225.6,316.7
				l-2.2-2.1v-28.3l2.2-2.2h9.8l2.1,2.2v28.3l-2.1,2.1H225.6L225.6,316.7z"/>
		</g>
	</g>
	<g>
		<g>
			<polygon fill="#E00E45" points="263.1,331.2 263.1,319.2 271.4,319.2 271.4,287.5 263.1,287.5 263.1,280.5 274.1,269.6 
				284.8,269.6 284.8,319.2 291.5,319.2 291.5,331.2 			"/>
		</g>
		<g>
			<path fill="#FFFFFF" d="M282.3,272v44.6v5h5h1.7v7.1h-23.4v-7.1h3.4h5v-5V290v-5h-5h-3.4v-3.5l9.4-9.4h7.3 M287.3,267H273
				l-12.5,12.5v10.6h8.3v26.7h-8.3v17h33.3v-17H287V267H287.3z"/>
		</g>
	</g>
</g>
</svg>
