<?xml version="1.0" encoding="utf-8"?>
<!-- Generator: Adobe Illustrator 18.0.0, SVG Export Plug-In . SVG Version: 6.00 Build 0)  -->
<!DOCTYPE svg PUBLIC "-//W3C//DTD SVG 1.1//EN" "http://www.w3.org/Graphics/SVG/1.1/DTD/svg11.dtd">
<svg version="1.1" id="content" xmlns="http://www.w3.org/2000/svg" xmlns:xlink="http://www.w3.org/1999/xlink" x="0px" y="0px"
	 width="500px" height="500px" viewBox="0 0 500 500" enable-background="new 0 0 500 500" xml:space="preserve">
<g id="bounds" display="none">
	<rect x="0.2" y="79.4" display="inline" fill="none" stroke="#EAEAEA" stroke-miterlimit="10" width="499.5" height="499.5"/>
</g>
<rect id="position" x="0.5" y="1.7" display="none" fill="none" stroke="#000000" width="499" height="499"/>
<g>
	<g>
		<path fill="#FFFFFF" d="M317.3,176.3c0,63.1-69.8,114.2-69.8,114.2s-69.8-51.1-69.8-114.2H317.3z"/>
		<path d="M232.9,351.3h29.3c0-139.2-14.6-156.6-14.6-156.6S232.9,212.1,232.9,351.3z"/>
		<path d="M232.9,176.3h29.3c0,9.9-14.6,27.4-14.6,27.4S232.9,186.2,232.9,176.3z"/>
		<polygon opacity="0.1" enable-background="new    " points="247.5,176.3 221.6,209.6 188.6,176.3 		"/>
		<polygon fill="#FFFFFF" points="247.5,176.3 221.6,204.1 193.7,176.3 		"/>
		<polygon opacity="0.1" enable-background="new    " points="247.5,176.3 273.4,209.6 306.3,176.3 		"/>
		<polygon fill="#FFFFFF" points="247.5,176.3 273.4,204.1 301.3,176.3 		"/>
	</g>
	<path d="M374.3,190.6l-18.7-14.3h-3.1H310l0,0h-15.7c0,74.1-47.8,106.9-47.8,106.9s-42.3-32.9-42.3-107H192h-44.8h-3.1l-18.7,14.3
		l-55.7,71v164.3H131V279.7l16.2-5.4V482h120.1h85.3V274.3l16.2,5.4v146.4H430V261.6L374.3,190.6z"/>
	<g>
		<g>
			<g>
				<path fill="#333333" d="M286.9,176.3c0,47.9-39.4,95.9-39.4,95.9s-39.4-48-39.4-95.9h-30.4c0,63.1,69.8,114.2,69.8,114.2
					s69.8-51.1,69.8-114.2H286.9L286.9,176.3z"/>
			</g>
		</g>
		<polygon fill="#FFFFFF" points="314.1,228.1 323.7,218.5 333.3,228.1 		"/>
		<polygon opacity="0.1" enable-background="new    " points="318.1,228.1 327.7,218.5 337.3,228.1 		"/>
		<polygon fill="#FFFFFF" points="319.2,228.1 328.8,218.5 338.4,228.1 		"/>
		<path d="M305.6,203.1c0,0.5-0.4,1-1,1h-9.8c-0.5,0-1-0.4-1-1l0,0c0-0.5,0.4-1,1-1h9.8C305.1,202.1,305.6,202.6,305.6,203.1
			L305.6,203.1z"/>
		<polygon opacity="0.1" enable-background="new    " points="323.2,228.1 332.8,218.5 342.4,228.1 		"/>
		<polygon fill="#FFFFFF" points="324.3,228.1 333.8,218.5 343.4,228.1 		"/>
		<polygon fill="#333333" points="342.1,231.9 307.8,231.9 313.9,224.2 348.1,224.2 		"/>
		<g>
			<circle fill="#333333" cx="247.5" cy="314.9" r="4.5"/>
			<path fill="#1A1A1A" d="M247.5,310.5c2.5,0,4.5,2,4.5,4.5s-2,4.5-4.5,4.5V310.5z"/>
		</g>
		<g>
			<circle fill="#333333" cx="247.5" cy="342.5" r="4.5"/>
			<path fill="#1A1A1A" d="M247.5,338c2.5,0,4.5,2,4.5,4.5s-2,4.5-4.5,4.5V338z"/>
		</g>
	</g>
	<g>
		<g>
			<circle fill="#333333" cx="123.2" cy="417.4" r="3.8"/>
			<path fill="#1A1A1A" d="M123.2,413.6c-2.1,0-3.8,1.7-3.8,3.8c0,2.1,1.7,3.8,3.8,3.8V413.6z"/>
		</g>
		<rect x="69.7" y="425.5" fill="#FFFFFF" width="61.3" height="15.5"/>
		<g>
			<circle fill="#333333" cx="123.2" cy="433.3" r="3.8"/>
			<path fill="#1A1A1A" d="M123.2,429.5c-2.1,0-3.8,1.7-3.8,3.8c0,2.1,1.7,3.8,3.8,3.8V429.5z"/>
		</g>
	</g>
	<g>
		<g>
			<circle fill="#333333" cx="376.5" cy="417.4" r="3.8"/>
			<path fill="#1A1A1A" d="M376.5,421.2c2.1,0,3.8-1.7,3.8-3.8c0-2.1-1.7-3.8-3.8-3.8V421.2z"/>
		</g>
		<rect x="368.7" y="425.5" fill="#FFFFFF" width="61.3" height="15.5"/>
		<g>
			<circle fill="#333333" cx="376.5" cy="433.3" r="3.8"/>
			<path fill="#1A1A1A" d="M376.5,437.1c2.1,0,3.8-1.7,3.8-3.8c0-2.1-1.7-3.8-3.8-3.8V437.1z"/>
		</g>
	</g>
</g>
</svg>
