<?xml version="1.0" encoding="utf-8"?>
<!-- Generator: Adobe Illustrator 16.0.0, SVG Export Plug-In . SVG Version: 6.00 Build 0)  -->
<!DOCTYPE svg PUBLIC "-//W3C//DTD SVG 1.1//EN" "http://www.w3.org/Graphics/SVG/1.1/DTD/svg11.dtd">
<svg version="1.1" id="content" xmlns="http://www.w3.org/2000/svg" xmlns:xlink="http://www.w3.org/1999/xlink" x="0px" y="0px"
	 width="500px" height="500px" viewBox="0 0 500 500" enable-background="new 0 0 500 500" xml:space="preserve">
<g id="bounds">
	<rect x="0.645" y="0.25" fill="none" stroke="#EAEAEA" stroke-miterlimit="10" width="499.5" height="499.5"/>
</g>
<rect id="position" x="0.5" y="0.5" display="none" fill="none" stroke="#000000" width="499" height="499"/>
<g>
	<path fill="#C5CED3" d="M201.791,75.118l-94.09,349.765h191.305l94.082-349.765H201.791L201.791,75.118z"/>
	<polygon fill="#231F20" points="293.566,417.773 116.998,417.773 207.229,82.226 383.795,82.226 	"/>
	<g>
		<g>
			<g>
				<path fill="#C5CED3" d="M249.355,245.557l5.887-5.895c-6.729-2.082-10.529-6.691-10.529-12.578c0-3.074,1.296-5.844,3.377-7.797
					l76.662-76.698h-4.271l-72.164,65.03l-6.162,5.559c-3.675,3.508-5.964,8.438-5.964,13.902c0,1.264,0.132,2.502,0.359,3.705
					C237.91,237.68,243.613,243.514,249.355,245.557z"/>
			</g>
			<path fill="#C5CED3" d="M240.433,254.48l5.81-5.803c-9.017-4.594-14.014-12.207-14.014-21.594c0-6.301,2.528-12.012,6.61-16.188
				l68.251-68.309h-3.943l-63.875,56.417c-0.881,0.715-6.326,5.685-7.051,6.544c-5.284,5.635-8.52,13.205-8.52,21.533
				c0,1.467,0.119,2.912,0.336,4.322C225.494,241.504,231.791,250.023,240.433,254.48z"/>
			<path fill="#C5CED3" d="M231.336,263.582l5.89-5.893c-10.953-6.744-17.485-17.717-17.485-30.605
				c0-9.523,3.754-18.184,9.852-24.58l59.842-59.914h-3.623l-55.589,47.81c-1.771,1.415-6.472,5.787-7.933,7.515
				c-6.881,7.769-11.072,17.984-11.072,29.171c0,1.666,0.105,3.318,0.314,4.936C213.084,245.322,220.627,256.789,231.336,263.582z"
				/>
			<path fill="#C5CED3" d="M222.227,272.682l5.984-5.986c-12.885-8.896-20.965-23.229-20.965-39.611
				c0-12.756,4.984-24.354,13.099-32.972l51.44-51.522h-3.309l-47.307,39.194c-2.646,2.137-6.621,5.909-8.809,8.508
				c-8.49,9.896-13.643,22.75-13.643,36.796c0,1.875,0.109,3.727,0.297,5.553C200.67,249.135,209.472,263.545,222.227,272.682z"/>
			<g>
				<path fill="#C5CED3" d="M186.507,233.25c1.757,19.705,11.801,37.061,26.62,48.539l6.08-6.082
					c-14.83-11.061-24.445-28.742-24.445-48.623c0-15.98,6.21-30.528,16.336-41.363l43.033-43.131h-2.988l-39.018,30.581
					c-3.533,2.844-6.778,6.019-9.692,9.487c-10.099,12.024-16.19,27.53-16.19,44.426C186.24,229.158,186.33,231.217,186.507,233.25z
					"/>
			</g>
		</g>
		<g>
			<g>
				<path fill="#DD3A42" d="M263.033,209.781l-5.887,5.898c6.727,2.086,10.531,6.684,10.531,12.586c0,3.059-1.301,5.832-3.377,7.783
					l-76.666,76.711h4.273l72.162-65.041l6.172-5.561c3.67-3.494,5.961-8.438,5.961-13.891c0-1.268-0.129-2.512-0.363-3.715
					C274.488,217.658,268.777,211.822,263.033,209.781z"/>
			</g>
			<path fill="#DD3A42" d="M271.959,200.857l-5.807,5.811c9.012,4.584,14.01,12.199,14.01,21.59c0,6.289-2.523,12.012-6.613,16.182
				l-68.252,68.314h3.955l63.867-56.422c0.881-0.715,6.328-5.682,7.057-6.543c5.273-5.639,8.512-13.211,8.512-21.531
				c0-1.475-0.113-2.918-0.336-4.33C286.896,213.838,280.604,205.322,271.959,200.857z"/>
			<path fill="#DD3A42" d="M281.062,191.756l-5.898,5.895c10.951,6.753,17.492,17.716,17.492,30.611
				c0,9.52-3.756,18.18-9.861,24.574l-59.84,59.92h3.625l55.592-47.809c1.77-1.422,6.469-5.793,7.932-7.521
				c6.887-7.771,11.078-17.98,11.078-29.166c0-1.676-0.109-3.326-0.322-4.939C299.303,210.021,291.76,198.559,281.062,191.756z"/>
			<path fill="#DD3A42" d="M290.162,182.658l-5.986,5.993c12.895,8.898,20.967,23.222,20.967,39.615
				c0,12.746-4.98,24.354-13.094,32.963l-51.439,51.527h3.305l47.307-39.197c2.645-2.135,6.621-5.904,8.812-8.504
				c8.49-9.9,13.635-22.752,13.635-36.793c0-1.879-0.094-3.736-0.297-5.559C311.717,206.199,302.916,191.795,290.162,182.658z"/>
			<g>
				<path fill="#DD3A42" d="M325.879,222.086c-1.748-19.703-11.799-37.051-26.615-48.537l-6.078,6.08
					c14.826,11.069,24.439,28.75,24.439,48.632c0,15.971-6.207,30.521-16.334,41.365l-43.037,43.127h2.986l39.027-30.584
					c3.521-2.846,6.775-6.014,9.686-9.488c10.105-12.016,16.191-27.525,16.191-44.424
					C326.148,226.184,326.062,224.123,325.879,222.086z"/>
			</g>
		</g>
	</g>
	<g>
		<path fill="#EFEFEF" d="M168.468,371.713l-9.402,35.104h9.873l0.927-3.439h-5.03l9.344-34.875l-7.51-0.006L168.468,371.713z"/>
		<path fill="#EFEFEF" d="M201.156,368.506l-10.252-0.006l1.603,3.094l-13.168,35.211l4.901,0.008l3.405-9.736l3.502-0.006
			l-2.098,9.75l5.047-0.008L201.156,368.506z M191.818,393.566l-2.865,0.006l6.641-18.428L191.818,393.566z"/>
		<path fill="#EFEFEF" d="M212.127,368.5l1.91,3.32h4.996l-16.104,34.994h12.822l0.924-3.438h-6.926l16.104-34.877H212.127z"/>
		<path fill="#EFEFEF" d="M235.341,368.5l1.841,3.221l-9.408,35.096h10.508l0.926-3.463h-5.656c0,0,3.634-13.553,4.072-15.193
			c1.272,0,5.065,0,5.065,0l0.915-3.441h-5.061l3.451-12.867h5.617l0.895-3.35h-13.165V368.5z"/>
		<path fill="#EFEFEF" d="M265.889,368.5h-0.012h-8.512l1.842,3.221l-9.416,35.119h4.857c0,0,4.527-16.914,5-18.682
			c0.109,0,0.41,0,0.41,0c0.928,0,1.564,0.082,1.924,0.408c0.324,0.277,0.443,0.787,0.195,1.746l-4.43,16.527h4.848l4.314-16.092
			c0.395-1.467,0.719-2.859-0.301-3.816c-0.357-0.332-0.83-0.48-0.83-0.48s0.453-0.121,1.109-0.484
			c0.414-0.232,0.865-0.539,1.223-0.986c0.289-0.379,0.547-0.768,0.797-1.67l2.523-9.449c0,0,0.082-0.301,0.098-0.348
			c0.352-1.332,0.707-2.922-0.807-4.01C269.314,368.488,267.506,368.5,265.889,368.5z M266.416,371.73
			c0.52,0.205,0.555,0.666,0.297,1.646l-2.387,8.891c-0.354,1.34-0.609,1.562-0.885,1.803c-0.314,0.275-0.996,0.633-2.48,0.633
			h-0.387l3.514-13.102C264.086,371.605,265.82,371.506,266.416,371.73z"/>
		<path fill="#EFEFEF" d="M293.826,380.242l1.748-6.545c0.344-1.297,0.65-2.771-0.176-3.895c-0.754-1.021-2.324-1.51-4.803-1.5
			c-0.869,0-1.643,0.066-2.328,0.197l-6.287-0.006l0.898,1.609l0.746,1.34c-0.406,0.695-0.672,1.453-0.873,2.207l-0.473,1.775
			c-0.408,1.541-0.73,3.125-0.771,4.398c-0.043,1.291,0.352,2.865,0.758,3.982c0.406,1.125,2.807,6.979,2.963,7.812
			c0.156,0.84,0.324,1.402-0.252,3.551l-2.064,7.686c-0.232,0.879-0.363,1.367-1.873,1.381c-1.514,0-1.467-0.629-1.266-1.381
			l2.605-9.689l-4.867,0.014l-2.271,8.488c-0.367,1.359-0.592,2.771,0.211,3.861c0.771,1.039,2.361,1.541,4.877,1.531
			c5.543-0.023,6.994-2.584,7.73-5.342c0,0,1.484-5.516,1.859-6.924c0.652-2.422,0.496-3.514,0.238-4.805
			c-0.264-1.283-0.76-2.441-1.135-3.371l-1.766-4.588c-0.504-1.271-0.738-2.18-0.734-3.328c0.01-1.162,0.367-2.428,0.799-4.049
			l0.574-2.143c0.203-0.766,0.363-1.365,1.984-1.389c0.607-0.006,1.012,0.105,1.168,0.316c0.135,0.182,0.133,0.527-0.016,1.072
			l-2.072,7.727h4.867V380.242z"/>
		<path fill="#EFEFEF" d="M149.623,371.73c0.529,0.205,0.561,0.666,0.301,1.646l-2.381,8.891c-0.367,1.34-0.619,1.562-0.888,1.803
			c-0.312,0.275-0.994,0.633-2.483,0.633h-0.38l3.51-13.102C147.295,371.605,149.03,371.506,149.623,371.73z M142.14,402.424
			c-0.17,0.627-0.346,0.959-0.706,1.152c-0.343,0.199-0.869,0.27-1.875,0.27c-0.189,0-0.916,0-0.916,0l4.219-15.693h0.407
			c0.921,0,1.564,0.084,1.925,0.406c0.319,0.283,0.444,0.791,0.192,1.748L142.14,402.424z M150.162,390.748
			c0.401-1.465,0.725-2.857-0.294-3.816c-0.354-0.332-0.834-0.479-0.834-0.479s0.453-0.123,1.117-0.484
			c0.413-0.232,0.866-0.539,1.218-0.986c0.296-0.379,0.548-0.768,0.786-1.67l2.616-9.756c0.036-0.107,0.058-0.215,0.086-0.326
			c0.336-1.24,0.596-2.693-0.818-3.701c-1.48-1.078-3.552-1.027-4.537-1.027h-8.818l1.731,3.25l-9.392,35.07c0,0,4.646,0,5.736,0
			c1.606,0,3.714,0.182,5.75-0.98c2.092-1.186,2.438-3.104,2.762-4.305L150.162,390.748z"/>
		<path fill="#EFEFEF" d="M272.979,327.205l-9.406,35.105h9.877l0.92-3.439h-5.029l9.35-34.877l-7.508-0.008L272.979,327.205z"/>
		<path fill="#EFEFEF" d="M235.559,324.004l-10.254-0.012l1.604,3.102l-13.166,35.215l4.902,0.002l3.405-9.734l3.502-0.008
			c-0.358,1.898-2.101,9.75-2.101,9.75l5.047-0.008L235.559,324.004z M226.217,349.064l-2.857,0.004l6.637-18.43L226.217,349.064z"
			/>
		<path fill="#EFEFEF" d="M205.158,323.992h-0.016h-8.509l1.839,3.227l-9.414,35.121h4.855l5.004-18.684h0.41
			c0.924,0,1.562,0.082,1.922,0.396c0.328,0.287,0.453,0.803,0.195,1.754l-4.433,16.531h4.849l4.313-16.092
			c0.397-1.469,0.72-2.863-0.296-3.816c-0.355-0.338-0.834-0.482-0.834-0.482s0.457-0.131,1.109-0.484
			c0.42-0.234,0.865-0.535,1.223-0.979c0.294-0.383,0.545-0.771,0.791-1.674l2.527-9.449c0,0,0.086-0.301,0.1-0.354
			c0.355-1.324,0.707-2.918-0.809-4.002C208.584,323.982,206.771,323.992,205.158,323.992z M205.682,327.23
			c0.52,0.203,0.557,0.664,0.295,1.641l-2.379,8.889c-0.357,1.346-0.615,1.566-0.889,1.803c-0.312,0.281-0.99,0.639-2.482,0.639
			h-0.383l3.51-13.096C203.347,327.105,205.088,327.002,205.682,327.23z"/>
		<polygon fill="#EFEFEF" points="247.287,362.309 257.549,323.992 250.033,323.986 251.83,327.205 242.43,362.309 		"/>
		<polygon fill="#EFEFEF" points="172.809,323.992 174.714,327.336 176.949,327.336 167.577,362.309 172.44,362.309 
			181.798,327.336 185.484,327.336 187.033,323.992 		"/>
	</g>
	<g>
		<path fill="#FFFFFF" d="M289.549,92.864l-1.465,4.978h-4.703l-9.789,33.178h-5.422l9.781-33.178h-2.693l-2.225-4.978H289.549
			L289.549,92.864z"/>
		<path fill="#FFFFFF" d="M223.322,92.864l-9.488-0.007l2.445,4.636l-9.893,33.523h5.422l4.312-14.631h2.254
			c4.197,0,7.254-2.575,8.803-7.826l2.439-8.249C231.259,94.739,228.953,92.864,223.322,92.864z M223.974,101.058l-2.671,9.056
			c-0.512,1.712-2.248,1.712-3.832,1.712l4.254-14.412h0.973C224.537,97.417,224.748,98.429,223.974,101.058z"/>
		<path fill="#FFFFFF" d="M244.785,92.123c-1.242,0-2.58,0.205-3.959,0.775h-6.982l2.386,4.531c-0.157,0.349-0.29,0.725-0.409,1.125
			l-7.902,26.797c-1.473,4.983,1.834,6.425,5.154,6.425c3.381,0,7.543-1.442,9.01-6.425l7.912-26.797
			C251.455,93.568,248.154,92.123,244.785,92.123z M244.422,99.035l-7.615,25.832c-0.578,1.931-1.268,2.36-2.331,2.36
			c-1.132,0-1.569-0.433-0.998-2.36l7.622-25.832c0.568-1.934,1.26-2.36,2.387-2.36C244.559,96.675,244.998,97.105,244.422,99.035z"
			/>
		<path fill="#FFFFFF" d="M264.637,92.864l-10.879-0.007l2.381,4.514l-9.921,33.646h5.416L257,112.782
			c2.539-0.106,3.102,0.808,2.404,3.113c-2.299,7.718-4.494,15.122-4.494,15.122h5.422c0,0,1.543-5.317,4.717-16.356
			c1-3.448-0.898-3.941-0.898-3.941c2.688-1.08,2.785-2.315,3.629-5.152l1.811-6.17C271.049,94.466,268.982,92.864,264.637,92.864z
			 M264.318,99.292l-2.188,7.285c-0.406,1.392-1.135,2.469-3.027,2.469h-1.018l3.469-11.629h1.271
			C264.055,97.417,264.75,97.839,264.318,99.292z"/>
		<polygon fill="#FFFFFF" points="301.643,92.864 292.461,92.864 294.873,97.432 284.965,131.016 297.287,131.016 298.758,126.03 
			291.855,126.03 		"/>
		<path fill="#FFFFFF" d="M312.664,92.885l2.387,4.538L301.49,131.02h4.912l4.223-10.344h3.832l-2.031,10.344h5.479l7.117-38.153
			L312.664,92.885z M315.426,115.689h-2.811l6.012-15.862h0.355L315.426,115.689z"/>
		<polygon fill="#FFFFFF" points="346.551,92.864 337.09,125.446 336.889,125.446 342.412,92.864 330.533,92.857 332.93,97.403 
			323.018,131.016 327.463,131.016 336.932,98.429 337.137,98.429 331.715,131.016 339.738,131.016 351.002,92.864 		"/>
		<path fill="#FFFFFF" d="M363.924,92.864l-10.363-0.007l2.447,4.652l-9.881,33.507h7.717c4.199,0,7.406-3.271,8.484-6.914
			l6.676-22.618C370.977,94.791,369.297,92.864,363.924,92.864z M363.943,100.256l-6.893,23.363
			c-0.73,2.463-1.498,2.848-2.879,2.848h-1.279l8.57-29.053h1.271C364.121,97.417,364.672,97.79,363.943,100.256z"/>
	</g>
</g>
</svg>
