<?xml version="1.0" encoding="utf-8"?>
<!-- Generator: Adobe Illustrator 18.0.0, SVG Export Plug-In . SVG Version: 6.00 Build 0)  -->
<!DOCTYPE svg PUBLIC "-//W3C//DTD SVG 1.1//EN" "http://www.w3.org/Graphics/SVG/1.1/DTD/svg11.dtd">
<svg version="1.1" id="content" xmlns="http://www.w3.org/2000/svg" xmlns:xlink="http://www.w3.org/1999/xlink" x="0px" y="0px"
	 width="500px" height="500px" viewBox="0 0 500 500" enable-background="new 0 0 500 500" xml:space="preserve">
<g id="bounds" display="none">
	<rect x="-0.1" y="80.3" display="inline" fill="none" stroke="#EAEAEA" stroke-miterlimit="10" width="499.5" height="499.5"/>
</g>
<rect id="position" x="0.5" y="0.5" display="none" fill="none" stroke="#000000" width="499" height="499"/>
<g>
	<path fill="#C7DEFF" d="M373.6,192l-18.7-14.3h-65.9l-8.6,21.4c-7.4,4.2-14,7.9-14,11.4c0,7.8-15.5,18.8-15.5,18.8
		s-15.5-10.8-15.5-18.7c0-3.9-8-8-16.2-12.7l-7.8-20.2h-67.1L125.7,192L70,263v68h61.3v-49.9l15.2-5.1v206.6H353V276.1l15.1,5V331
		h61.3v-68L373.6,192z"/>
	
		<ellipse transform="matrix(-0.5377 0.8431 -0.8431 -0.5377 601.2201 124.2053)" fill="#E6E6E6" cx="266.6" cy="226.9" rx="3.9" ry="2.8"/>
	<g>
		<circle fill="#E6E6E6" cx="251" cy="245" r="3.3"/>
		<circle fill="#E6E6E6" cx="251" cy="276.7" r="3.3"/>
		<circle fill="#E6E6E6" cx="251" cy="308.5" r="3.3"/>
		<circle fill="#E6E6E6" cx="251" cy="340.2" r="3.3"/>
		<circle fill="#E6E6E6" cx="251.4" cy="372" r="3.3"/>
		<circle fill="#E6E6E6" cx="251.4" cy="403.8" r="3.3"/>
		<circle fill="#E6E6E6" cx="251.4" cy="435.5" r="3.3"/>
		<circle fill="#E6E6E6" cx="251.4" cy="467.3" r="3.3"/>
	</g>
	<path fill="#A6C4F2" d="M290.6,228.6v35.5l23.5,17.3l23.5-17.3v-35.5H290.6z M335.3,230.9v11.5h-42.4v-11.5H335.3z M314.1,278.5
		l-21.2-15.6v-18.1h42.4v18.1L314.1,278.5z"/>
	<path fill="#A6C4F2" d="M241.6,482.5h-2.3V244.6c0-7.8,4.8-12.2,9.5-16.5l0.5-0.5l1.6,1.7l-0.5,0.5c-4.5,4.1-8.7,8-8.7,14.8v237.9
		H241.6z"/>
	<path fill="#A6C4F2" d="M272,214.8c0,0,7.4-20.6-0.5-22.6c-5.2-1.3-5,18.2-5,18.2"/>
	<path fill="#A6C4F2" d="M290,180.5c0,0-0.6,10.5-16,12.9c6,3.5-0.2,13.8-2,21.5c18.4,2.6,39.2-17.5,34.6-37.2L290,180.5z"/>
	<path fill="#C7DEFF" d="M287.3,177.6c0,0-0.5,11.9-15.9,14.3c6,3.5,2.2,14.9,0.5,22.6c13.8,0,31.6-13.5,34.8-36.9H287.3z"/>
	
		<ellipse transform="matrix(-0.3435 0.9391 -0.9391 -0.3435 570.4193 19.0436)" fill="#E6E6E6" cx="278.6" cy="208.9" rx="2.3" ry="1.7"/>
	<path fill="#A6C4F2" d="M230,214.8c0,0-7.4-20.6,0.5-22.6c5.2-1.3,5,18.2,5,18.2"/>
	<path fill="#A6C4F2" d="M212.1,180.5c0,0,0.6,10.5,16,12.9c-6,3.5,0.2,13.8,2,21.5c-18.4,2.6-39.2-17.5-34.6-37.2L212.1,180.5z"/>
	<path fill="#C7DEFF" d="M214.8,177.6c0,0,0.5,11.9,15.9,14.3c-6,3.5-2.2,14.9-0.5,22.6c-13.8,0-31.6-13.5-34.8-36.9H214.8z"/>
	
		<ellipse transform="matrix(-0.3435 -0.9391 0.9391 -0.3435 104.1943 490.6904)" fill="#E6E6E6" cx="223.6" cy="208.9" rx="2.3" ry="1.7"/>
</g>
<g>
	<g>
		<path fill="#BDD8FF" d="M114.8,314.2c0,0,16.1-3.7,19.2,0c3.1,3.7-2,11.7,0,16.3c2,4.7,4.1,16.6-3.1,16.3
			c-7.2-0.2-54.7,3.8-60.9,2.4c-6-1.4-2-8.1-2-13.9S63,320,64.3,316c1.4-4.1,3.2-3,5.7-3.6c2.5-0.6,10.8,2.5,18.2,3.6
			C95.9,317.2,112,314,114.8,314.2z"/>
		<circle fill="#E6E6E6" cx="78.1" cy="326.2" r="3.9"/>
	</g>
	<g>
		<path fill="#BDD8FF" d="M411.8,316c7.5-1.1,15.7-4.1,18.2-3.6c2.5,0.6,4.3-0.6,5.7,3.6c1.3,4-3.8,13.6-3.8,19.4s4,12.4-2,13.9
			c-6.2,1.4-53.6-2.6-60.9-2.4c-7.2,0.2-5.1-11.6-3.1-16.3c2-4.6-3.1-12.7,0-16.3c3.1-3.7,19.2,0,19.2,0
			C388,314,404.1,317.2,411.8,316z"/>
		<circle fill="#E6E6E6" cx="421.9" cy="326.2" r="3.9"/>
	</g>
</g>
</svg>
