<?xml version="1.0" encoding="utf-8"?>
<!-- Generator: Adobe Illustrator 18.0.0, SVG Export Plug-In . SVG Version: 6.00 Build 0)  -->
<!DOCTYPE svg PUBLIC "-//W3C//DTD SVG 1.1//EN" "http://www.w3.org/Graphics/SVG/1.1/DTD/svg11.dtd">
<svg version="1.1" id="content" xmlns="http://www.w3.org/2000/svg" xmlns:xlink="http://www.w3.org/1999/xlink" x="0px" y="0px"
	 width="500px" height="500px" viewBox="0 0 500 500" enable-background="new 0 0 500 500" xml:space="preserve">
<rect id="position" x="0.5" y="0.5" display="none" fill="none" stroke="#000000" width="499" height="499"/>
<g>
	<path fill="#C7DEFF" d="M299.3,175.4c0,0.4,0.1,0.9,0.1,1.3c0,0.4,0,0.9,0,1.3c0,13.5-33.5,22.4-33.5,30.2S250.4,227,250.4,227
		s-15.5-10.8-15.5-18.7c0-8-33.5-16.7-33.5-30.2c0-0.4,0-0.9,0-1.3c0-0.4,0.1-0.9,0.1-1.3h-30.2l-54.8,0.1v304.8h265.8V175.5
		l-53.4-0.1H299.3z"/>
	
		<ellipse transform="matrix(-0.8431 -0.5377 0.5377 -0.8431 369.3722 557.013)" fill="#E6E6E6" cx="265.9" cy="224.6" rx="2.8" ry="3.9"/>
	<g>
		<circle fill="#E6E6E6" cx="250.4" cy="242.8" r="3.3"/>
		<circle fill="#E6E6E6" cx="250.4" cy="274.5" r="3.3"/>
		<circle fill="#E6E6E6" cx="250.4" cy="306.3" r="3.3"/>
		<circle fill="#E6E6E6" cx="250.4" cy="338" r="3.3"/>
		<circle fill="#E6E6E6" cx="250.8" cy="369.8" r="3.3"/>
		<circle fill="#E6E6E6" cx="250.8" cy="401.6" r="3.3"/>
		<circle fill="#E6E6E6" cx="250.8" cy="433.3" r="3.3"/>
		<circle fill="#E6E6E6" cx="250.8" cy="465.1" r="3.3"/>
	</g>
	<path fill="#A6C4F2" d="M290,226.4v35.5l23.5,17.3l23.5-17.3v-35.5H290z M334.7,228.7v11.5h-42.4v-11.5H334.7z M313.5,276.3
		l-21.2-15.6v-18.1h42.4v18.1L313.5,276.3z"/>
	<path fill="#A6C4F2" d="M241,480.3h-2.3V242.4c0-7.8,4.8-12.2,9.5-16.5l0.5-0.5l1.6,1.7l-0.5,0.5c-4.5,4.1-8.7,8-8.7,14.8V480.3z"
		/>
	<path fill="#A6C4F2" d="M271.4,212.6c0,0,7.4-20.6-0.5-22.6c-5.2-1.3-5,18.2-5,18.2"/>
	<path fill="#A6C4F2" d="M289.4,178.3c0,0-0.6,10.5-16,12.9c6,3.5-0.2,13.8-2,21.5c18.4,2.6,39.2-17.5,34.6-37.2L289.4,178.3z"/>
	<path fill="#C7DEFF" d="M286.7,175.4c0,0-0.5,11.9-15.9,14.3c6,3.5,2.2,14.9,0.5,22.6c13.8,0,31.6-13.5,34.8-36.9H286.7z"/>
	
		<ellipse transform="matrix(-0.9391 -0.3435 0.3435 -0.9391 467.9282 496.2119)" fill="#E6E6E6" cx="277.9" cy="206.7" rx="1.7" ry="2.3"/>
	<path fill="#A6C4F2" d="M229.4,212.6c0,0-7.4-20.6,0.5-22.6c5.2-1.3,5,18.2,5,18.2"/>
	<path fill="#A6C4F2" d="M211.5,178.3c0,0,0.6,10.5,16,12.9c-6,3.5,0.2,13.8,2,21.5c-18.4,2.6-39.2-17.5-34.6-37.2L211.5,178.3z"/>
	<path fill="#C7DEFF" d="M214.2,175.4c0,0,0.5,11.9,15.9,14.3c-6,3.5-2.2,14.9-0.5,22.6c-13.8,0-31.6-13.5-34.8-36.9H214.2z"/>
	
		<ellipse transform="matrix(0.9391 -0.3435 0.3435 0.9391 -57.4222 89.1687)" fill="#E6E6E6" cx="223" cy="206.7" rx="1.7" ry="2.3"/>
</g>
</svg>
