<?xml version="1.0" encoding="utf-8"?>
<!-- Generator: Adobe Illustrator 16.0.0, SVG Export Plug-In . SVG Version: 6.00 Build 0)  -->
<!DOCTYPE svg PUBLIC "-//W3C//DTD SVG 1.1//EN" "http://www.w3.org/Graphics/SVG/1.1/DTD/svg11.dtd">
<svg version="1.1" id="content" xmlns="http://www.w3.org/2000/svg" xmlns:xlink="http://www.w3.org/1999/xlink" x="0px" y="0px"
	 width="500px" height="500px" viewBox="0 0 500 500" enable-background="new 0 0 500 500" xml:space="preserve">
<rect id="position" x="0.5" y="0.5" display="none" fill="none" stroke="#000000" width="499" height="499"/>
<rect x="116.617" y="175.489" fill="#BAA27C" width="265.937" height="304.591"/>
<path fill="#C2A882" d="M250.026,175.489H140.189c0,0,51.423,44.386,109.837,44.386s109.837-44.386,109.837-44.386H250.026z"/>
<rect x="248.291" y="191.057" fill="#AD9774" width="3.312" height="289.023"/>
<polygon fill="#994226" points="202.333,175.489 250,195.167 250,186.667 237.333,175.333 "/>
<polygon fill="#994226" points="297.666,175.489 250,195.167 250,186.667 262.666,175.333 "/>
<path fill="#A7916C" d="M338,258.922c0,1.657-1.343,3-3,3h-46.25c-1.657,0-3-1.343-3-3v-43.25c0-1.657,1.343-3,3-3H335
	c1.657,0,3,1.343,3,3V258.922z"/>
<path fill="#CFB38B" d="M339.255,254.5c0,1.657-1.407,3-3.145,3H287.64c-1.737,0-3.145-1.343-3.145-3v-43.25
	c0-1.657,1.407-3,3.145-3h48.471c1.737,0,3.145,1.343,3.145,3V254.5z"/>
<path fill="#BAA47E" d="M336.11,208.25H287.64c-1.737,0-3.145,1.343-3.145,3v3.555v0.06l21.747,22.065
	c3.494,3.292,7.771,3.292,11.266,0l21.747-22.065v-3.615C339.255,209.593,337.848,208.25,336.11,208.25z"/>
<path fill="#E6C699" d="M339.255,211.25c0-1.657-1.407-3-3.145-3H287.64c-1.737,0-3.145,1.343-3.145,3v0.06l21.747,22.065
	c3.494,3.292,7.771,3.292,11.266,0l21.747-22.065V211.25z"/>
<path fill="#70674E" d="M311.719,237.797"/>
<circle fill="#A89472" cx="311.719" cy="228.778" r="3.278"/>
<path fill="#994226" d="M250,191.143c0-0.048,0-0.086,0-0.086s-0.019,0.018-0.045,0.042c-0.026-0.025-0.045-0.042-0.045-0.042
	s0,0.038,0,0.086c-1.752,1.7-28.551,28.899,0.045,75.357C278.551,220.042,251.752,192.843,250,191.143z"/>
<circle fill="#7D361F" cx="250" cy="191.057" r="7"/>
<path fill="#575246" d="M189.058,225.334c-19.357-17.941-33.688-36.034-43.002-49.845h-29.439v27.733
	c9.888,14.038,24.142,31.644,43.628,49.936c25.365,23.81,54.523,44.057,86.666,60.178c39.949,20.037,87.448,33.573,135.582,40.494
	l0.062-20.037v-19.851c-42.306-6.353-81.496-18.369-116.511-35.763C237.492,263.997,211.59,246.218,189.058,225.334z"/>
<circle opacity="0.2" fill="#211F1A" cx="252.763" cy="288.957" r="6.359"/>
<circle opacity="0.2" fill="#211F1A" cx="231.489" cy="292.911" r="6.359"/>
<circle opacity="0.2" fill="#211F1A" cx="226.167" cy="271.622" r="6.359"/>
<circle opacity="0.2" fill="#211F1A" cx="206.315" cy="277.44" r="6.359"/>
<circle opacity="0.2" fill="#211F1A" cx="201.565" cy="255.324" r="7.552"/>
<circle opacity="0.2" fill="#211F1A" cx="179.935" cy="257.474" r="6.359"/>
<circle opacity="0.2" fill="#211F1A" cx="165.625" cy="232.227" r="12.671"/>
<circle fill="#FFCF00" cx="252.763" cy="286.957" r="6.359"/>
<circle fill="#4C9C51" cx="231.489" cy="290.911" r="6.359"/>
<circle fill="#FFCF00" cx="226.167" cy="269.622" r="6.359"/>
<circle fill="#9F4427" cx="226.167" cy="269.623" r="3.37"/>
<circle fill="#D62408" cx="206.315" cy="275.44" r="6.359"/>
<circle fill="#F3DCB0" cx="206.315" cy="275.44" r="2.142"/>
<circle fill="#6B95D9" cx="201.565" cy="253.324" r="7.552"/>
<circle fill="#6B95D9" cx="201.566" cy="253.324" r="4.206"/>
<circle fill="#46628F" cx="201.566" cy="253.324" r="4.206"/>
<circle fill="#F3DCB0" cx="179.935" cy="255.474" r="6.359"/>
<circle fill="#4C9C51" cx="179.935" cy="255.474" r="3.155"/>
<circle fill="#FFCF00" cx="165.625" cy="230.227" r="12.671"/>
<polygon fill="#D62408" points="165.625,219.875 167.903,226.887 175.276,226.887 169.311,231.221 171.59,238.233 165.625,233.9 
	159.661,238.233 161.938,231.221 155.974,226.887 163.346,226.887 "/>
<circle fill="#A7916C" cx="259.122" cy="342.5" r="4.5"/>
<circle fill="#A7916C" cx="259.122" cy="379.966" r="4.5"/>
<circle fill="#A7916C" cx="259.122" cy="417.432" r="4.5"/>
<circle fill="#A7916C" cx="259.122" cy="454.897" r="4.5"/>
</svg>
