<?xml version="1.0" encoding="utf-8"?>
<!-- Generator: Adobe Illustrator 16.0.0, SVG Export Plug-In . SVG Version: 6.00 Build 0)  -->
<!DOCTYPE svg PUBLIC "-//W3C//DTD SVG 1.1//EN" "http://www.w3.org/Graphics/SVG/1.1/DTD/svg11.dtd">
<svg version="1.1" id="content" xmlns="http://www.w3.org/2000/svg" xmlns:xlink="http://www.w3.org/1999/xlink" x="0px" y="0px"
	 width="500px" height="500px" viewBox="0 0 500 500" enable-background="new 0 0 500 500" xml:space="preserve">
<rect id="position" x="0.5" y="0.5" display="none" fill="none" stroke="#000000" width="499" height="499"/>
<g>
	<path fill="#105425" d="M322.303,171.283H295.41c-0.698,13.492-5.18,23.281-20.357,32.782
		c-16.75,10.685-25.026,22.685-25.026,22.685s-8.276-12-25.026-22.685c-15.178-9.5-19.659-19.29-20.357-32.782H177.75
		c-2.326,23.852-13.755,57.967-61,57.967c-0.046,0-0.088,0-0.133,0v240.83h133.41h132.466V229.25c-0.045,0,0.854,0,0.811,0
		C336.058,229.25,324.629,195.135,322.303,171.283z"/>
	<path fill="#0E4A21" d="M280.357,216.542c15.287-9.568,23.94-24.171,25.033-45.258h0.023H295.4
		c-0.695,13.493-5.17,27.28-20.353,36.782c-16.75,10.685-25.026,22.685-25.026,22.685s-8.276-12-25.026-22.685
		c-15.18-9.502-19.654-23.289-20.352-36.782H194.63h0.027c1.09,21.086,9.746,35.689,24.96,45.212
		c14.641,9.34,22.122,19.861,22.196,19.966h16.417C258.309,236.356,265.79,225.835,280.357,216.542z"/>
	<path fill="#DCE8ED" d="M242.322,231.461c-1.572-2.083-9.033-11.433-22.163-19.809c-18.98-11.88-23.573-24.678-24.47-40.369h8.017
		c1.01,15.164,7.26,25.177,20.763,33.629c16.358,10.435,24.652,22.287,24.734,22.405l0.823,1.191l0.824-1.191
		c0.082-0.118,8.375-11.97,24.74-22.41c13.496-8.448,19.746-18.461,20.756-33.625h8.016c-1.264,21.665-10.727,31.768-24.531,40.411
		c-13.004,8.296-20.52,17.685-22.1,19.768H242.322z"/>
	<path opacity="0.2" fill="#212121" enable-background="new    " d="M309.061,209.412c-1.537,0-2.792-1.252-2.792-2.792v-14.099
		c0-1.54,1.255-2.792,2.792-2.792h4.185c1.539,0,2.792,1.252,2.792,2.793v14.098c0,1.54-1.253,2.792-2.792,2.792H309.061z"/>
	<path fill="#FFFFFF" d="M309.188,207.513c-1.442,0-2.618-1.176-2.618-2.623v-13.239c0-1.446,1.176-2.623,2.618-2.623h3.931
		c1.442,0,2.621,1.176,2.621,2.623v13.239c0,1.446-1.179,2.623-2.621,2.623H309.188z"/>
	<path fill="#C00033" d="M311.151,206.213h1.964c0.729,0,1.318-0.592,1.318-1.323v-13.239c0-0.73-0.592-1.323-1.318-1.323h-1.964"/>
	<path fill="#006CB3" d="M313.332,206.213c0,0-0.036-0.939-0.431-3.272l-1.75-1.812v-10.8h-1.964c-0.729,0-1.321,0.592-1.321,1.323
		v13.239c0,0.731,0.592,1.323,1.321,1.323h1.964L313.332,206.213L313.332,206.213z"/>
	<path opacity="0.2" fill="#212121" enable-background="new    " d="M313.679,198.18c-0.05-0.058,0.049-0.09-0.289-0.167
		c-0.062-0.035-0.109-0.529-0.109-0.529c-0.053-0.317-0.163-0.536-0.332-0.872c-0.085-0.173-0.125-0.71-0.216-0.984
		c0.051-1.255-0.354-1.62-0.679-1.824c-0.123-0.079-0.185-0.137-0.307-0.208l-0.004-0.058c-0.095-0.09-0.286-0.187-0.443-0.257
		c-0.049-0.049-0.022-0.156,0.008-0.196c0.106-0.016,0.248-0.254,0.365-0.5c0.092,0.005,0.122-0.084,0.151-0.135
		c0.099-0.157,0.204-0.294,0.064-0.384c0.312-0.552,0.111-0.924-0.057-0.938c-0.067-0.139-0.186-0.225-0.392-0.298l-0.426-0.001
		c-0.438,0.168-0.501,0.36-0.518,0.969c-0.074,0.008-0.231-0.062-0.178,0.309c0,0,0.026,0.247,0.128,0.204
		c-0.098,0.652,0.017,0.703-0.661,0.732l-0.032,0.048c-0.675,0.065-0.888-0.02-1.456,1.138c0,0-0.146,0.358-0.188,0.507
		c-0.062,0.122-0.151,0.309-0.247,0.51v1.598c0.084,0.004,0.186,0.005,0.333,0.001v0.174c0,0-0.205,0.175-0.246,0.282
		c-0.021,0.048-0.058,0.188-0.087,0.344v0.883c0.142,0.506,0.504,0.968,0.634,1.498l0.35,0.049c0.201,0.45,1.062,1.672,1.238,1.833
		c0.041,0.113,0.26,0.253,0.388,0.393c0.105,0.1,0.729,0.782,1.459,1.201c-0.004,0,0.118,0.244,0.181,0.44
		c-0.243,0.195,0.225,0.552,0.366,1.142c0.012,0.077-0.136,0.159,0.08,0.352c-0.005,0.309-0.041,0.563-0.063,0.779h0.62h0.117
		c-0.048-0.228-0.141-0.452-0.188-0.624c-0.008-0.022,0.01-0.052,0.021-0.071c0.028-0.056-0.032-0.182-0.032-0.182
		c-0.069-0.063-0.09-0.398-0.129-0.548c-0.062-0.254,0.108-0.689,0.108-0.838c0-0.146-0.108-0.349-0.313-0.609
		c-0.05-0.056-0.195-1.323-0.327-1.644c-0.188-0.442-0.242-0.373-0.455-0.898c-0.171-0.373-0.039-0.92-0.419-2.192
		c0.004,0.005,0.086-0.08,0.086-0.08s-0.302-1.102-0.4-1.404c-0.1-0.301-0.271-0.323-0.271-0.323s0.001-0.123,0.008-0.155
		c0.015-0.049,0.368-0.969,0.397-0.998c0-0.022,0.51-0.366,0.52-0.317c0.042,0.226,0.24,1.37,0.323,1.553
		c0.087,0.185,0.38,0.746,0.519,1.094c-0.526,0.127-0.92,0.603-0.92,1.17c0,0.663,0.537,1.202,1.204,1.202
		c0.507,0,0.943-0.314,1.118-0.758l0.001-0.884c-0.038-0.097-0.089-0.192-0.155-0.282
		C313.926,198.244,313.731,198.248,313.679,198.18z"/>
	<path fill="#FFFFFF" d="M313.186,206.296c-0.235-0.14-0.225-0.344-0.167-0.816c0.024-0.201,0.056-0.436,0.061-0.71
		c-0.145-0.164-0.124-0.205-0.104-0.257l0.011-0.02l0.014-0.086c-0.065-0.271-0.19-0.488-0.29-0.662
		c-0.141-0.246-0.188-0.345-0.108-0.408c-0.019-0.233-0.098-0.407-0.135-0.489c-0.677-0.44-1.222-0.994-1.427-1.202
		c-0.117-0.122-0.184-0.178-0.244-0.231c-0.082-0.071-0.175-0.151-0.193-0.201c-0.18-0.177-1.042-1.395-1.237-1.839l-0.412-0.096
		c-0.003-0.226-0.146-0.491-0.276-0.748c-0.18-0.342-0.35-0.666-0.354-1.021c-0.008-0.228,0.104-0.748,0.146-0.847
		c0.023-0.062,0.146-0.185,0.227-0.251l0.025-0.235v-0.083l-0.286,0.006c-0.312,0-0.316-0.02-0.339-0.118
		c-0.01-0.048-0.021-0.114-0.058-0.191c-0.06-0.128-0.044-0.167-0.021-0.246c0.112-0.441,0.361-0.945,0.525-1.278l0.081-0.165
		c0.047-0.158,0.192-0.511,0.192-0.511c0.496-1.015,0.693-1.031,1.227-1.075l0.2-0.018l0.054-0.079c0.032,0,0.062,0,0.091,0
		c0.461,0,0.502-0.079,0.555-0.516l0.052-0.391l-0.131,0.057c0.012-0.011-0.013-0.081-0.021-0.141
		c-0.021-0.172,0.004-0.21,0.007-0.214l0.17-0.013l0.003-0.07c0.019-0.617,0.089-0.751,0.468-0.896l0.395,0.006
		c0.163,0.062,0.265,0.137,0.319,0.253c0.089,0.046,0.129,0.071,0.162,0.134c0.069,0.135,0.083,0.398-0.104,0.73l-0.037,0.065
		l0.062,0.041c0.047,0.031,0.044,0.063-0.065,0.234l-0.102,0.139c-0.288,0.481-0.384,0.5-0.385,0.5
		c-0.106,0.096-0.139,0.248-0.056,0.331c0.229,0.107,0.376,0.193,0.445,0.259c0.086,0.107,0.134,0.143,0.185,0.179l0.141,0.095
		c0.343,0.215,0.686,0.592,0.639,1.753c0.046,0.155,0.076,0.338,0.106,0.515c0.033,0.218,0.064,0.406,0.114,0.507
		c0.177,0.344,0.278,0.553,0.325,0.849c0.054,0.532,0.12,0.569,0.152,0.587c0.198,0.048,0.229,0.072,0.23,0.076
		c0.062,0.108,0.105,0.128,0.149,0.147c0.08,0.036,0.112,0.056,0.112,0.119c0.073,0.127,0.124,0.216,0.161,0.311l-0.01,0.855
		c-0.158,0.394-0.579,0.678-1.037,0.678c-0.618,0-1.124-0.503-1.124-1.122c0-0.522,0.354-0.971,0.857-1.093l0.09-0.021l-0.033-0.086
		c-0.102-0.253-0.281-0.619-0.407-0.873l-0.111-0.226c-0.067-0.148-0.229-1.054-0.292-1.395l-0.037-0.205l-0.074-0.005
		c-0.021,0-0.066,0-0.322,0.167c-0.27,0.174-0.27,0.195-0.27,0.236l0,0c-0.031,0-0.392,0.966-0.395,0.975
		c-0.012,0.042-0.014,0.177-0.014,0.177l-0.001,0.072l0.071,0.008c0.003,0,0.126,0.026,0.206,0.268c0.099,0.301,0.399,1.4,0.399,1.4
		h-0.107l0.021,0.082c0.22,0.729,0.268,1.217,0.302,1.573c0.023,0.267,0.045,0.46,0.123,0.629c0.11,0.282,0.185,0.396,0.254,0.507
		c0.058,0.094,0.113,0.187,0.199,0.389c0.071,0.18,0.155,0.705,0.22,1.088c0.075,0.472,0.091,0.542,0.121,0.578
		c0.194,0.249,0.297,0.437,0.297,0.557c0,0.042-0.021,0.13-0.044,0.223c-0.049,0.201-0.11,0.45-0.065,0.634
		c0.017,0.05,0.024,0.12,0.035,0.193c0.032,0.208,0.056,0.338,0.118,0.395c0.003,0.018,0.019,0.072,0.015,0.089l-0.017,0.031
		l-0.007,0.1c0.017,0.058,0.04,0.127,0.062,0.201c0.134,0.385,0.297,0.862-0.13,1.132L313.186,206.296z"/>
	<path fill="#AD233C" d="M383.303,234.75c-22.719,0-40.112-7.653-51.707-22.748c-8.162-10.629-13.131-23.942-14.767-40.719h10.947
		c2.405,24.688,13.996,52.467,55.523,52.467L383.303,234.75L383.303,234.75z"/>
	<path fill="#AD233C" d="M250.026,228.509l-0.823-1.191c-0.082-0.118-8.376-11.97-24.741-22.41
		c-13.775-8.623-20.002-17.934-20.812-33.625h1.997c0.784,15.163,6.544,23.584,19.884,31.934
		c13.963,8.907,22.013,18.592,24.496,21.845c2.482-3.252,10.532-12.937,24.489-21.84c13.346-8.354,19.106-16.776,19.893-31.938
		h1.997c-0.812,15.692-7.037,25.003-20.819,33.629c-16.355,10.435-24.648,22.287-24.73,22.405L250.026,228.509z"/>
	<rect x="246.937" y="224.484" fill="#AD233C" width="6.18" height="6.977"/>
	<path fill="#DCE8ED" d="M383.303,231.25c-49.641,0-60.771-37.227-62.987-59.967h3.979c4.617,47.341,34.639,55.967,59.01,55.967
		L383.303,231.25L383.303,231.25z"/>
	<path fill="#AD233C" d="M116.697,234.75v-11c41.531,0,53.118-27.779,55.526-52.467h10.948c-1.636,16.777-6.604,30.09-14.768,40.719
		C156.812,227.097,139.416,234.75,116.697,234.75z"/>
	<path fill="#DCE8ED" d="M116.697,231.25v-4c24.372,0,54.393-8.626,59.009-55.967h3.981
		C177.47,194.023,166.337,231.25,116.697,231.25z"/>
</g>
<g>
	<path fill="#C5CED3" d="M247.263,347.368h-32.185l-5.223-7.457v-25.792l5.223-7.459h14.663l-12.069-28.042h11.381
		c-0.456-0.865-0.889-1.795-1.291-2.783c-0.271-0.554-0.402-1.44,0.094-2.199c0.23-0.358,0.798-0.965,1.966-0.965
		c0.053,0,0.202,0.005,0.202,0.005l0.036,0.005c0.133,0.016,0.426,0.055,0.843,0.119c-1.704-1.38-3.398-3.003-4.713-4.794
		c-0.203-0.252-2.223-2.863-2.361-6.602c-0.002-0.071-0.005-0.139-0.003-0.226c0.02-1.996,0.681-12.279,11.788-17.854l3.657-1.836
		l-2.416,3.305c-0.165,0.208-0.712,0.908-1.426,1.913c1.868-1.888,4.304-3.538,7.312-3.981l3.596-0.529l-2.833,2.279
		c-0.162,0.127-3.204,2.532-5.653,6.301c1.699-0.347,3.887-0.605,6.088-0.605l4.922,0.062l-4.188,1.835
		c-0.707,0.281-6.316,2.521-9.332,4.425c-0.234,0.865-0.602,2.539-0.602,4.574c0,2.948,0.836,6.886,4.568,9.748
		c0.244-3.467,1.784-9.544,9.325-11.495l2.123-0.548l0.339-0.088l0.363,0.094l2.099,0.542c7.542,1.951,9.083,8.027,9.328,11.495
		c3.733-2.863,4.568-6.8,4.568-9.748c0-2.03-0.368-3.708-0.604-4.575c-3.023-1.911-8.628-4.145-9.276-4.4l-4.671-1.844l4.999-0.074
		l0.351-0.002c2.201,0,4.389,0.259,6.088,0.605c-2.452-3.783-5.49-6.174-5.639-6.289l-2.958-2.306l3.706,0.544
		c3.012,0.443,5.45,2.099,7.32,3.99c-0.707-0.994-1.244-1.682-1.396-1.873l-2.771-3.5l3.975,1.982
		c11.1,5.572,11.767,15.856,11.787,17.863c0.001,0.081-0.002,0.147-0.005,0.192c-0.14,3.815-2.165,6.388-2.396,6.667
		c-1.294,1.77-2.978,3.379-4.675,4.753c0.414-0.064,0.705-0.103,0.835-0.118l0.079-0.007c0.058-0.003,0.112-0.004,0.165-0.004
		c1.177,0,1.74,0.611,1.97,0.976c0.488,0.741,0.373,1.609,0.092,2.186c-0.405,0.992-0.838,1.923-1.293,2.786h11.369l-12.07,28.042
		h14.665l5.222,7.459v25.792l-5.222,7.457h-32.185l-3.826,8.894L247.263,347.368z M251.478,272.575
		c1.977,0.005,3.935,0.32,5.179,0.616c0.316-0.872,0.484-1.792,0.497-2.751c0.072-4.572-4.062-8.968-4.533-9.454l-0.069-0.074
		l-1.444-1.724l-1.495,1.755l-0.041,0.041c-0.472,0.486-4.606,4.876-4.535,9.453c0.014,0.959,0.181,1.879,0.496,2.747
		c1.171-0.29,2.99-0.604,4.985-0.609h0.834H251.478z"/>
	<path fill="#C11334" d="M262.377,286.128c-0.201,1.013-0.522,1.853-0.741,2.352c0.244,0.947,0.372,1.732,0.372,2.32
		c0,0.739-0.167,1.294-0.483,1.673c0.006,0.013,0.016,0.03,0.016,0.03c0.444,0.933,0.668,2.335,0.668,4.167
		c0,0.518-0.021,1.05-0.061,1.587c2.242,1.799,2.817,4.128,2.959,5.041c1.916,1.597,3.138,3.253,3.82,4.351h0.638l11.528-26.783
		h-9.953C267.82,285.589,264.27,286.204,262.377,286.128z"/>
	<path fill="#C11334" d="M237.083,303.298c0.142-0.912,0.716-3.24,2.956-5.041c-0.036-0.541-0.059-1.075-0.059-1.587
		c0-1.831,0.225-3.233,0.67-4.169c0,0,0.012-0.022,0.014-0.028c-0.316-0.379-0.481-0.934-0.481-1.673
		c0-0.588,0.127-1.373,0.371-2.32c-0.219-0.497-0.54-1.336-0.743-2.352c-1.891,0.076-5.441-0.539-8.76-5.263h-9.965l11.527,26.783
		h0.648C233.945,306.551,235.165,304.895,237.083,303.298z"/>
	<path fill="#004715" d="M285.931,308.909h-16.316l0,0h-1.327c-0.474-0.891-1.787-3.031-4.305-5.007c0,0-0.122-3.153-3.067-5.115
		c0,0,0.412-3.971-0.451-5.771c0,0-2.251,1.025-3.147,4.709l-0.284-0.739c0,0-0.085-2.499,3.518-5.196c0,0,0.693-0.448-0.163-3.438
		c0,0,0.856-1.64,0.978-3.562c0,0,6.672,2.13,11.5-9.696c0,0,0.368-0.734-0.531-0.692c0,0-2.497,0.285-5.439,1.187
		c0,0-2.376,0.53-3.932,2.086c0,0-0.622,0.758-1.473,1.104c0,0-0.639,0.254-1.046-0.396c-0.097-0.159-0.396-0.89,1.538-1.693
		c0,0,8.47-4.048,12.645-9.737c0,0,0.996-1.316,1.583-3.146c0.242-0.752,0.416-1.591,0.421-2.462c0.002-0.117,0-0.243-0.004-0.377
		c-0.061-2.889-1.075-9.518-7.837-14.247c0,0,3.999,4.931,4.731,9.965c0,0-1.432-1.352-3.644-2.211c0,0-2.536-6.469-7.812-9.167
		c0,0,3.801,3.232,5.686,8.307c0,0-3.971-1.433-5.606-1.389c0,0,2.703,0.98,6.178,3.15c0,0,4.466,13.095-7.282,18.615
		c0,0,1.636-8.384-5.401-12.066c0,0,5.769,6.71,1.959,13.375c0,0-0.729-0.313-1.959-0.589c-0.959-0.233-2.742-0.437-4.188-0.439
		c-0.095,0-0.081,0-0.212,0c-0.011,0-0.13,0-0.144,0c-0.017,0-0.215,0-0.227,0c-0.131,0-0.229,0-0.323,0
		c-1.448,0.003-3.04,0.206-3.999,0.439c-1.229,0.276-1.957,0.589-1.957,0.589c-3.809-6.665,1.961-13.375,1.961-13.375
		c-7.037,3.683-5.4,12.066-5.4,12.066c-11.75-5.521-7.284-18.615-7.284-18.615c3.477-2.17,6.178-3.15,6.178-3.15
		c-1.635-0.044-5.606,1.389-5.606,1.389c1.885-5.074,5.687-8.307,5.687-8.307c-5.276,2.698-7.812,9.167-7.812,9.167
		c-2.214,0.859-3.643,2.211-3.643,2.211c0.731-5.034,4.731-9.965,4.731-9.965c-6.764,4.729-7.775,11.357-7.838,14.246
		c-0.004,0.135-0.004,0.261-0.004,0.379c0.005,0.87,0.179,1.709,0.42,2.461c0.588,1.83,1.584,3.146,1.584,3.146
		c4.176,5.689,12.646,9.737,12.646,9.737c1.932,0.804,1.635,1.534,1.535,1.693c-0.406,0.65-1.045,0.396-1.045,0.396
		c-0.85-0.347-1.473-1.104-1.473-1.104c-1.557-1.556-3.931-2.086-3.931-2.086c-2.942-0.901-5.438-1.187-5.438-1.187
		c-0.9-0.042-0.533,0.692-0.533,0.692c4.828,11.826,11.501,9.696,11.501,9.696c0.12,1.923,0.978,3.562,0.978,3.562
		c-0.857,2.989-0.164,3.438-0.164,3.438c3.604,2.697,3.52,5.196,3.52,5.196l-0.286,0.739c-0.896-3.684-3.147-4.709-3.147-4.709
		c-0.861,1.801-0.451,5.771-0.451,5.771c-2.943,1.962-3.067,5.115-3.067,5.115c-2.517,1.976-3.829,4.116-4.304,5.007h-1.328l0,0
		h-16.327l-4.145,5.919v24.373l4.145,5.921l69.684-0.001l4.145-5.92v-24.373L285.931,308.909z"/>
	<path fill="#C5CED3" d="M231.469,257.234c-2.951,2.01-2.668,4.827-2.668,4.827c0.422,3.432,2.773,4.868,2.773,4.868
		c-0.559-1.667-0.686-4.817-0.686-4.817C230.889,259.409,231.469,257.234,231.469,257.234z"/>
	<path fill="#FFFFFF" d="M246.47,277.999l-0.739-0.817c-0.448,1.33-1.818,2.151-1.818,2.151
		C245.445,279.676,246.47,277.999,246.47,277.999z"/>
	<path fill="#FFFFFF" d="M246.183,287.696c-0.368,1.187-0.085,1.472-0.085,1.472c0.291-0.979,1.273-1.961,1.273-1.961
		c-1.188-2.008-1.146-3.438-1.146-3.438c-1.926-0.165-2.823-0.9-2.823-0.9l-0.572,0.245c-1.31,2.17,0.321,3.846,0.321,3.846
		C244.424,288.188,246.183,287.696,246.183,287.696z"/>
	<path fill="#FFFFFF" d="M246.307,294.079c0.41,2.66,1.428,3.029,1.428,3.029c0.699-0.735,1.764-1.062,1.764-1.062l-0.082-0.29
		c-1.229,0.204-1.557,0.494-1.557,0.494c-1.598-2.417-0.04-4.731-0.04-4.731c1.799-0.489,2.168-1.732,2.168-1.732h1.106h0.002h1.104
		c0,0,0.37,1.243,2.169,1.732c0,0,1.559,2.314-0.04,4.731c0,0-0.329-0.29-1.558-0.494l-0.081,0.29c0,0,1.065,0.327,1.763,1.062
		c0,0,1.021-0.369,1.428-3.029c0,0,0.047-2.374-1.101-3.232c0,0-1.763-0.369-2.333-2.209h-1.352h-0.002h-1.352
		c-0.572,1.84-2.333,2.209-2.333,2.209C246.262,291.705,246.307,294.079,246.307,294.079z"/>
	<path fill="#FFFFFF" d="M248.576,292.544c-0.125,1.778,0.84,2.072,0.84,2.072c0.246-0.355,0.289-1.067,0.289-1.067
		C249.188,293.281,248.576,292.544,248.576,292.544z"/>
	<path fill="#FFFFFF" d="M240.956,281.25c-1.412-0.399-2.159,0.303-2.159,0.303v-0.021c-3.139-5.211-6.793-4.831-6.938-4.718
		c2.858,7.582,8.35,6.765,8.903,6.6C240.689,283.146,240.89,281.392,240.956,281.25z"/>
	<path fill="#FFFFFF" d="M240.338,303.572c1.086,3.027,2.697,4.173,2.697,4.173s0.143-0.082,0.275-0.354
		c-1.721-2.073-1.854-4.528-1.887-4.719C240.73,303.11,240.338,303.572,240.338,303.572z"/>
	<path fill="#C5CED3" d="M270.719,257.234c0,0,0.58,2.175,0.58,4.878c0,0-0.125,3.15-0.684,4.817c0,0,2.352-1.437,2.773-4.868
		C273.389,262.062,273.672,259.244,270.719,257.234z"/>
	<path fill="#FFFFFF" d="M258.274,279.333c0,0-1.368-0.822-1.815-2.151l-0.739,0.817
		C255.72,277.999,256.746,279.676,258.274,279.333z"/>
	<path fill="#FFFFFF" d="M256.006,287.696c0,0,1.76,0.492,3.031-0.736c0,0,1.633-1.676,0.322-3.846l-0.572-0.245
		c0,0-0.898,0.735-2.822,0.9c0,0,0.041,1.43-1.147,3.438c0,0,0.981,0.981,1.272,1.961
		C256.09,289.168,256.375,288.883,256.006,287.696z"/>
	<path fill="#004715" d="M243.361,285.979c0,0-0.738-0.859,0.076-2.374c0,0,1.027,0.454,2.293,0.575c0,0,0.041,1.347,0.903,2.739
		C246.634,286.919,244.261,287.696,243.361,285.979z"/>
	<path fill="#004715" d="M258.828,285.979c-0.899,1.718-3.273,0.94-3.273,0.94c0.863-1.393,0.904-2.739,0.904-2.739
		c1.265-0.121,2.29-0.575,2.29-0.575C259.565,285.119,258.828,285.979,258.828,285.979z"/>
	<path fill="#FFFFFF" d="M253.612,292.544c0,0-0.61,0.737-1.129,1.005c0,0,0.044,0.712,0.288,1.067
		C252.771,294.616,253.738,294.322,253.612,292.544z"/>
	<path fill="#FFFFFF" d="M248.801,298.336l0.244,0.43c0.359-0.237,0.755-0.374,1.105-0.454c0.444-0.103,0.812-0.112,0.943-0.115
		h0.002c0.13,0.003,0.499,0.013,0.943,0.115c0.35,0.08,0.745,0.217,1.104,0.454l0.243-0.43c0,0-0.865-0.623-2.293-0.652
		C249.667,297.713,248.801,298.336,248.801,298.336z"/>
	<path fill="#FFFFFF" d="M263.393,281.532v0.021c0,0-0.748-0.702-2.159-0.303c0.067,0.142,0.266,1.896,0.191,2.164
		c0.557,0.165,6.045,0.982,8.903-6.601C270.186,276.701,266.53,276.321,263.393,281.532z"/>
	<path fill="#FFFFFF" d="M261.853,303.572c0,0-0.394-0.462-1.088-0.9c-0.031,0.19-0.165,2.646-1.886,4.718
		c0.134,0.273,0.273,0.355,0.273,0.355s0.606-0.432,1.325-1.461c0.243,0,0.488,0,0.488,0c-0.329,1.177-0.724,1.771-1.251,2.393
		c-0.073,0.087-0.142,0.163-0.204,0.232h0.224c0.905-0.659,2.559-2.251,2.601-5.115c-0.066-0.032-0.276-0.124-0.483-0.219
		C261.852,303.575,261.852,303.574,261.853,303.572z"/>
	<path fill="#FFFFFF" d="M251.895,302.118c-0.182-0.021-0.482-0.03-0.801-0.036c-0.317,0.006-0.617,0.016-0.799,0.036
		c0,0-1.536,0.104-4.215-3.253l-0.96,1.167c0,0,1.819,1.86,2.126,5.3l1.024,0.698l-0.942,0.527l0.062,0.573
		c0,0,0.858-0.553,1.368-0.714l0.78,0.756c0,0-1.047,0.671-1.754,1.736h5.274c0.83-0.203,1.942-0.457,3.281-0.732
		c0,0-1.912-4.563,0.708-8.124c0.012-0.014,0.02-0.021,0.02-0.021l-0.96-1.167C253.43,302.223,251.895,302.118,251.895,302.118z"/>
	<polygon fill="#FFFFFF" points="236.881,310.599 235.416,310.599 234.37,313.74 234.357,313.74 233.251,310.599 231.787,310.599 
		231.787,315.166 232.761,315.166 232.761,311.96 232.774,311.96 233.934,315.166 234.734,315.166 235.894,311.93 235.906,311.93 
		235.906,315.166 236.881,315.166 	"/>
	<rect x="238.193" y="310.599" fill="#FFFFFF" width="1.04" height="4.567"/>
	<polygon fill="#FFFFFF" points="240.465,310.599 240.465,315.166 243.81,315.166 243.81,314.321 241.505,314.321 241.505,310.599 	
		"/>
	<polygon fill="#FFFFFF" points="245.889,315.166 246.678,312.057 246.691,312.057 247.492,315.166 248.525,315.166 
		249.797,310.599 248.777,310.599 248.002,313.747 247.988,313.747 247.181,310.599 246.207,310.599 245.387,313.708 
		245.373,313.708 244.624,310.599 243.585,310.599 244.838,315.166 	"/>
	<path fill="#FFFFFF" d="M251.07,314.148h1.77l0.356,1.018h1.078l-1.767-4.567h-1.067l-1.794,4.567h1.052L251.07,314.148z
		 M251.958,311.726h0.012l0.597,1.675h-1.227L251.958,311.726z"/>
	<path fill="#FFFFFF" d="M256.673,315.274c1.266,0,2.02-0.602,2.02-1.836v-2.84h-1.038v2.84c0,0.679-0.24,0.993-0.981,0.993
		c-0.84,0-0.974-0.493-0.974-0.993v-2.84h-1.039v2.84C254.66,314.68,255.401,315.274,256.673,315.274z"/>
	<polygon fill="#FFFFFF" points="267.945,315.166 267.945,314.321 265.396,314.321 265.396,313.202 267.686,313.202 
		267.686,312.421 265.396,312.421 265.396,311.443 267.893,311.443 267.893,310.599 264.356,310.599 264.356,315.166 	"/>
	<polygon fill="#FFFFFF" points="272.177,311.443 272.177,310.599 268.641,310.599 268.641,315.166 272.229,315.166 
		272.229,314.321 269.679,314.321 269.679,313.202 271.973,313.202 271.973,312.421 269.679,312.421 269.679,311.443 	"/>
	<polygon fill="#FFFFFF" points="262.973,310.6 262.654,310.601 260.737,312.584 260.722,312.584 260.722,310.601 259.685,310.601 
		259.685,315.166 260.725,315.166 260.722,312.851 260.736,312.851 262.364,315.166 263.618,315.166 261.748,312.655 263.829,310.6 
			"/>
	<path fill="#C11334" d="M244.523,322.624h0.28l0.168-0.786l0.705-3.299l0.257-1.202l-1.229,0.001h-4.994h-0.995v0.993v3.299v0.994
		h0.639v13.847c-0.575,0-1.293,0-1.867,0v-13.847h0.655v-0.994v-3.299v-0.993h-0.995h-5.207h-1.293l0.331,1.248l0.87,3.298
		l0.195,0.74h0.271v15.403v0.317l0.183,0.259l2.081,2.932l0.298,0.42h0.514h6.107h0.521l0.297-0.428l2.033-2.934l0.176-0.256v-0.311
		V322.624z"/>
	<polygon fill="#C11334" points="267.11,340.958 267.11,341.955 268.104,341.955 272.623,341.955 273.618,341.955 273.618,340.958 
		273.618,337.462 273.618,336.468 272.623,336.468 272.479,336.468 268.945,328.512 272.008,322.624 272.846,322.624 
		272.846,321.63 272.846,318.331 272.846,317.336 271.851,317.336 267.87,317.336 266.875,317.336 266.875,318.331 266.875,321.63 
		266.875,322.614 265.355,325.529 265.355,322.624 266.003,322.624 266.006,321.63 266.006,318.331 266.006,317.336 
		265.011,317.336 259.828,317.336 258.558,317.336 258.864,318.57 259.688,321.869 259.877,322.624 260.185,322.624 
		260.185,336.468 259.72,336.468 259.538,337.234 258.714,340.731 258.427,341.955 259.682,341.955 265.08,341.955 266.077,341.955 
		266.081,340.958 266.081,337.462 266.081,336.468 265.355,336.468 265.355,335.362 266.015,334.104 267.11,336.765 267.11,337.462 
			"/>
	<polygon fill="#C11334" points="258.47,338.422 258.47,338.113 258.47,335.47 258.47,334.995 258.102,334.697 254.916,332.115 
		253.298,330.801 253.298,332.888 253.298,336.466 251.425,336.466 251.425,322.621 253.298,322.621 253.298,325.585 
		253.298,327.67 254.916,326.356 258.101,323.777 258.47,323.479 258.47,323.006 258.47,321.666 258.47,321.329 258.268,321.063 
		255.744,317.74 255.447,317.346 254.952,317.346 249.605,317.346 249.082,317.346 248.786,317.777 246.428,321.198 
		246.254,321.453 246.254,321.763 246.254,338.023 246.254,338.319 246.413,338.565 248.313,341.501 248.608,341.955 
		249.148,341.955 255.522,341.955 256.048,341.955 256.347,341.521 258.297,338.676 	"/>
	<path fill="#C11334" d="M283.961,312.5l-0.299-0.398h-0.5h-5.35h-0.519l-0.296,0.424l-2.375,3.366l-0.177,0.255v0.314v8.346v0.619
		l7.053,5.761v5.322c-0.656,0-1.501,0-2.105,0v-3.839v-1.604l-4.927,3.622v1.798v1.623v0.295l0.162,0.248l1.858,2.849l0.294,0.454
		h0.538h6.417h0.531l0.296-0.443l1.905-2.851l0.166-0.252v-0.3v-9.11v-0.625l-7.055-5.691v-5.312h2.152v5.146v1.481l4.909-3.766
		v-0.473v-3.366v-0.33l-0.197-0.264L283.961,312.5z"/>
	<path fill="#C11334" d="M229.918,338.025l-0.013-8.619v-0.395l-0.269-0.285l-1.202-1.281l1.339-2.2l0.145-0.237v-0.279v-8.34
		v-0.339l-0.208-0.269l-2.532-3.284l-0.297-0.388h-0.49h-7.094h-0.484l-4.031,5.297l1.801,0.005l1.109,0.001v19.371l-2.917-0.01
		l3.739,4.797l0.298,0.385h0.485h7.574h0.518l0.297-0.426l2.052-2.932l0.181-0.257V338.025z"/>
	<polygon fill="#FFFFFF" points="240.807,339.127 241.906,337.782 241.906,319.726 240.35,321.63 240.348,321.63 240.348,337.465 
		240.348,337.465 236.495,337.465 235.527,338.272 234.84,337.296 234.916,319.786 233.311,321.63 233.309,321.63 233.309,338.027 
		235.39,340.958 235.393,340.958 236.074,339.127 	"/>
	<polygon fill="#FFFFFF" points="240.477,319.727 241.906,319.726 242.943,319.726 244.704,318.331 244.701,318.331 239.71,318.331 
		239.71,321.63 239.714,321.63 	"/>
	<polygon fill="#FFFFFF" points="234.916,319.786 236.38,319.789 237.145,318.335 237.146,319.983 237.146,318.331 231.939,318.331 
		232.811,321.63 232.811,321.63 233.818,319.786 	"/>
	<polygon fill="#C5CED3" points="243.533,321.63 243.998,321.63 244.004,321.63 244.704,318.331 242.943,319.726 241.906,319.726 
		241.906,337.782 240.807,339.127 236.074,339.127 235.393,340.958 241.497,340.958 241.499,340.958 243.533,338.027 	"/>
	<polygon fill="#C5CED3" points="241.906,319.726 240.477,319.727 239.714,321.63 240.348,321.63 240.348,321.63 240.35,321.63 	"/>
	<polygon fill="#C5CED3" points="234.916,319.786 233.818,319.786 232.811,321.63 233.308,321.63 233.309,321.63 233.311,321.63 	
		"/>
	<polygon fill="#FFFFFF" points="216.611,337.509 219.297,340.958 220.239,339.159 226.251,339.218 227.312,337.791 
		227.312,329.411 228.911,329.407 227.192,327.575 228.922,324.729 227.189,327.575 225.852,327.499 227.275,325.059 
		227.211,316.395 228.922,316.389 226.391,313.105 219.297,313.105 216.582,316.578 218.686,316.58 218.686,337.503 	"/>
	<polygon fill="#FFFFFF" points="220.293,314.727 225.861,314.757 226.684,315.786 225.742,316.598 221.871,316.588 225.74,316.598 
		225.74,326.24 221.871,326.24 220.293,327.585 225.824,327.628 226.799,328.849 225.742,329.232 225.74,329.232 225.74,337.462 
		221.871,337.484 220.202,339.067 220.293,327.585 	"/>
	<polygon fill="#C5CED3" points="227.275,325.059 225.852,327.499 227.189,327.575 228.922,324.729 228.922,316.389 
		227.211,316.395 	"/>
	<polygon fill="#C5CED3" points="221.871,316.588 225.742,316.598 226.684,315.786 225.861,314.757 220.293,314.727 
		220.293,327.585 221.871,326.24 	"/>
	<polygon fill="#C5CED3" points="236.38,319.789 234.916,319.786 234.84,337.296 235.527,338.272 236.495,337.465 236.495,321.63 
		237.146,321.63 237.148,321.63 237.146,319.983 237.145,318.335 	"/>
	<polygon fill="#C5CED3" points="227.312,337.791 226.251,339.218 220.239,339.159 219.297,340.958 226.871,340.958 
		228.922,338.027 228.914,329.407 228.911,329.407 227.312,329.411 	"/>
	<polygon fill="#C5CED3" points="221.871,337.484 221.871,329.232 225.74,329.232 225.742,329.232 226.799,328.849 225.824,327.628 
		220.293,327.585 220.202,339.067 	"/>
	<polygon fill="#C5CED3" points="220.268,314.698 216.633,316.578 218.688,316.58 	"/>
	<rect x="221.871" y="316.588" fill="#C11334" width="3.869" height="9.652"/>
	<polygon fill="#004715" points="224.745,325.243 222.865,325.243 222.865,317.586 224.745,317.593 	"/>
	<rect x="221.871" y="329.232" fill="#C11334" width="3.869" height="8.229"/>
	<polygon fill="#004715" points="224.745,336.474 222.865,336.484 222.865,330.226 224.745,330.226 	"/>
	<polygon fill="#FFFFFF" points="268.104,337.462 268.104,340.958 268.104,340.958 268.892,339.396 271.722,339.354 
		272.623,337.462 271.835,337.462 270.795,339.354 266.89,330.277 264.46,334.929 266.123,331.756 268.475,337.462 	"/>
	<polygon fill="#FFFFFF" points="262.696,339.229 262.821,334.61 269.894,321.713 269.978,319.63 270.852,319.63 271.851,318.335 
		271.851,318.331 267.87,318.331 267.87,321.588 268.881,319.618 269.974,319.63 268.373,321.63 268.509,321.63 264.36,329.589 
		264.36,329.589 262.784,332.529 262.7,319.641 261.177,321.63 261.179,321.63 261.179,337.462 260.507,337.462 259.682,340.958 
		261.323,339.229 	"/>
	<polygon fill="#FFFFFF" points="262.709,319.63 263.784,319.63 265.011,318.332 265.011,318.331 265.009,318.331 259.828,318.331 
		260.653,321.625 261.673,319.628 	"/>
	<polygon fill="#C5CED3" points="270.795,339.354 271.835,337.462 267.845,328.476 267.838,328.46 271.125,322.164 271.404,321.63 
		271.405,321.63 271.851,321.63 271.854,321.63 271.854,318.331 271.851,318.335 270.852,319.63 269.978,319.63 269.894,321.713 
		262.821,334.61 262.696,339.229 264.36,337.462 264.36,335.119 264.46,334.929 266.89,330.277 	"/>
	<polygon fill="#C5CED3" points="262.696,339.229 261.323,339.229 259.682,340.958 259.682,340.958 259.682,340.958 265.08,340.958 
		265.085,340.958 265.086,340.958 265.086,337.462 265.085,337.465 264.033,339.23 	"/>
	<polygon fill="#C5CED3" points="262.784,332.529 264.36,329.589 264.364,329.584 264.364,321.63 265.009,321.63 265.011,321.63 
		265.014,321.63 265.014,318.331 265.011,318.332 263.784,319.63 262.709,319.63 261.673,319.628 260.653,321.625 260.65,321.63 
		260.653,321.63 261.177,321.63 262.7,319.641 	"/>
	<polygon fill="#FFFFFF" points="254.984,339.302 255.732,338.138 255.732,335.767 257.476,335.47 254.29,332.888 254.29,337.46 
		250.438,337.46 250.438,337.465 249.471,338.272 248.782,337.296 248.818,328.995 248.771,321.995 250.066,319.871 
		254.526,319.871 255.298,320.76 254.29,321.625 254.29,325.585 255.858,322.576 255.858,321.668 257.476,321.666 254.952,318.34 
		249.605,318.34 247.248,321.763 247.248,338.023 249.148,340.958 249.15,340.958 249.81,339.302 	"/>
	<polygon fill="#C5CED3" points="254.526,319.871 250.066,319.871 248.771,321.995 248.818,328.995 248.782,337.296 
		249.471,338.272 250.438,337.465 250.438,337.46 250.438,327.854 250.43,327.854 250.43,321.625 254.29,321.625 255.298,320.76 	
		"/>
	<polygon fill="#C5CED3" points="255.858,322.576 254.29,325.585 257.476,323.006 257.476,321.666 255.858,321.668 	"/>
	<polygon fill="#C5CED3" points="257.476,335.47 255.732,335.767 255.732,338.138 254.984,339.302 249.81,339.302 249.15,340.958 
		255.522,340.958 257.476,338.113 	"/>
	<polygon fill="#FFFFFF" points="264.033,339.23 265.085,337.465 265.085,337.462 265.08,337.462 264.36,337.462 262.696,339.229 	
		"/>
	<polygon fill="#C5CED3" points="268.892,339.396 268.104,340.958 272.623,340.958 272.623,337.462 271.722,339.354 	"/>
	<polygon fill="#C5CED3" points="268.881,319.618 267.87,321.588 267.848,321.63 267.87,321.63 268.373,321.63 269.974,319.63 	"/>
	<polygon fill="#FFFFFF" points="283.979,329.769 285.64,328.999 278.587,323.307 277.122,323.991 	"/>
	<polygon fill="#FFFFFF" points="277.812,313.095 275.439,316.461 275.439,324.804 277.122,323.991 277.122,316.391 
		278.203,314.674 282.815,314.674 283.523,315.498 282.503,316.374 282.5,316.374 282.503,316.377 282.503,322.322 284.069,319.323 
		284.069,316.395 285.647,316.393 283.162,313.095 	"/>
	<polygon fill="#FFFFFF" points="283.147,339.116 283.979,337.76 283.979,329.769 282.495,330.567 282.495,330.568 282.495,337.503 
		282.493,337.503 278.622,337.503 278.622,337.507 278.619,337.503 277.643,338.319 277.062,337.321 277.057,336.883 
		277.059,336.883 277.059,335.562 278.622,332.67 275.461,335.219 275.461,338.109 277.319,340.958 277.897,339.116 	"/>
	<polygon fill="#C5CED3" points="277.059,336.883 277.057,336.883 277.062,337.321 277.643,338.319 278.619,337.503 
		278.622,337.507 278.622,337.503 278.622,337.502 278.625,337.501 278.625,335.197 278.622,335.198 278.622,332.67 
		277.059,335.562 	"/>
	<polygon fill="#C5CED3" points="283.979,337.76 283.147,339.116 277.897,339.116 277.319,340.958 283.736,340.958 285.64,338.109 
		285.64,328.999 283.979,329.769 	"/>
	<polygon fill="#C5CED3" points="277.122,323.991 275.439,324.804 275.438,324.807 282.493,330.568 282.495,330.567 
		283.979,329.769 	"/>
	<polygon fill="#C5CED3" points="283.523,315.498 282.815,314.674 278.203,314.674 277.122,316.391 277.122,323.991 
		278.587,323.307 278.587,316.374 282.5,316.374 282.503,316.374 	"/>
	<polygon fill="#C5CED3" points="284.069,319.323 282.503,322.322 282.502,322.324 282.503,322.324 285.647,319.759 
		285.647,316.393 284.069,316.395 	"/>
</g>
</svg>
