<?xml version="1.0" encoding="utf-8"?>
<!-- Generator: Adobe Illustrator 16.0.0, SVG Export Plug-In . SVG Version: 6.00 Build 0)  -->
<!DOCTYPE svg PUBLIC "-//W3C//DTD SVG 1.1//EN" "http://www.w3.org/Graphics/SVG/1.1/DTD/svg11.dtd">
<svg version="1.1" id="content" xmlns="http://www.w3.org/2000/svg" xmlns:xlink="http://www.w3.org/1999/xlink" x="0px" y="0px"
	 width="500px" height="500px" viewBox="0 0 500 500" enable-background="new 0 0 500 500" xml:space="preserve">
<g id="bounds">
	<rect x="-0.1" y="0.25" fill="none" stroke="#EAEAEA" stroke-miterlimit="10" width="499.5" height="499.5"/>
</g>
<rect id="position" x="0.5" y="0.5" display="none" fill="none" stroke="#000000" width="499" height="499"/>
<g>
	<path fill="#C5CED3" d="M238.008,396.692h-97.976l-15.9-22.699v-78.516l15.9-22.707h44.636l-36.741-85.363h34.646
		c-1.389-2.633-2.707-5.463-3.93-8.473c-0.825-1.688-1.225-4.385,0.286-6.691c0.7-1.094,2.429-2.939,5.984-2.939
		c0.162,0,0.615,0.015,0.615,0.015l0.11,0.018c0.404,0.048,1.296,0.167,2.565,0.36c-5.186-4.2-10.343-9.141-14.347-14.593
		c-0.618-0.767-6.768-8.716-7.186-20.096c-0.007-0.218-0.016-0.423-0.01-0.69c0.061-6.077,2.073-37.378,35.883-54.349l11.133-5.591
		l-7.354,10.062c-0.502,0.633-2.167,2.765-4.34,5.824c5.686-5.748,13.101-10.771,22.259-12.119l10.946-1.611l-8.625,6.938
		c-0.494,0.387-9.753,7.708-17.208,19.179c5.171-1.054,11.833-1.84,18.532-1.84L242.869,101l-12.749,5.587
		c-2.152,0.856-19.226,7.673-28.407,13.47c-0.712,2.631-1.833,7.729-1.833,13.922c0,8.978,2.546,20.964,13.907,29.674
		c0.742-10.553,5.43-29.05,28.386-34.99l6.462-1.671l1.032-0.268l1.106,0.286l6.391,1.653c22.956,5.939,27.646,24.437,28.395,34.99
		c11.363-8.713,13.905-20.697,13.905-29.674c0-6.178-1.12-11.285-1.839-13.925c-9.205-5.818-26.266-12.62-28.236-13.396
		l-14.223-5.612l15.221-0.227l1.068-0.005c6.699,0,13.361,0.789,18.531,1.843c-7.465-11.517-16.709-18.796-17.164-19.146
		l-9.006-7.019l11.279,1.656c9.172,1.349,16.596,6.39,22.283,12.146c-2.15-3.025-3.786-5.119-4.247-5.702l-8.437-10.655l12.1,6.035
		c33.789,16.961,35.82,48.269,35.883,54.375c0,0.25-0.006,0.449-0.019,0.585c-0.425,11.615-6.587,19.445-7.292,20.296
		c-3.938,5.387-9.064,10.286-14.23,14.468c1.263-0.193,2.146-0.312,2.541-0.36l0.242-0.021c0.176-0.009,0.338-0.012,0.501-0.012
		c3.582,0,5.294,1.857,5.997,2.969c1.486,2.258,1.135,4.9,0.279,6.656c-1.231,3.021-2.551,5.854-3.938,8.48h34.61l-36.744,85.363
		h44.646l15.892,22.707v78.514l-15.892,22.7h-97.979l-11.648,27.077L238.008,396.692z M250.84,169.012
		c6.018,0.015,11.977,0.972,15.766,1.875c0.961-2.659,1.473-5.458,1.514-8.377c0.221-13.916-12.365-27.296-13.801-28.777
		l-0.211-0.226l-4.396-5.25l-4.549,5.345l-0.125,0.125c-1.436,1.478-14.021,14.84-13.804,28.777c0.042,2.919,0.55,5.719,1.51,8.359
		c3.564-0.88,9.102-1.837,15.173-1.852h2.539L250.84,169.012L250.84,169.012z"/>
	<path fill="#C11334" d="M284.018,210.269c-0.613,3.082-1.588,5.64-2.254,7.16c0.74,2.881,1.129,5.271,1.129,7.062
		c0,2.25-0.508,3.938-1.469,5.092c0.02,0.041,0.049,0.093,0.049,0.093c1.351,2.84,2.033,7.107,2.033,12.687
		c0,1.575-0.066,3.194-0.186,4.83c6.826,5.479,8.574,12.565,9.009,15.346c5.832,4.86,9.552,9.903,11.63,13.244h1.938l35.096-81.528
		h-30.295C300.587,208.628,289.777,210.501,284.018,210.269z"/>
	<path fill="#C11334" d="M207.018,262.536c0.433-2.773,2.179-9.861,8.999-15.346c-0.11-1.646-0.18-3.272-0.18-4.83
		c0-5.574,0.685-9.842,2.04-12.691c0,0,0.037-0.068,0.043-0.086c-0.962-1.152-1.464-2.842-1.464-5.092
		c0-1.79,0.387-4.182,1.13-7.062c-0.667-1.517-1.644-4.064-2.263-7.16c-5.757,0.231-16.562-1.642-26.667-16.021H158.32
		l35.089,81.532h1.974C197.465,272.439,201.18,267.396,207.018,262.536z"/>
	<path fill="#004715" d="M355.721,279.618h-49.67l0,0h-4.039c-1.441-2.713-5.441-9.229-13.105-15.242c0,0-0.369-9.598-9.335-15.57
		c0,0,1.255-12.088-1.374-17.568c0,0-6.854,3.121-9.578,14.336l-0.865-2.248c0,0-0.258-7.609,10.711-15.816
		c0,0,2.108-1.365-0.5-10.469c0,0,2.608-4.99,2.979-10.842c0,0,20.312,6.482,35.009-29.52c0,0,1.118-2.233-1.616-2.104
		c0,0-7.602,0.868-16.561,3.611c0,0-7.229,1.613-11.969,6.351c0,0-1.895,2.31-4.481,3.362c0,0-1.944,0.771-3.187-1.207
		c-0.293-0.48-1.205-2.708,4.685-5.155c0,0,25.784-12.319,38.492-29.638c0,0,3.03-4.008,4.817-9.579
		c0.736-2.289,1.268-4.843,1.28-7.491c0.007-0.357,0-0.743-0.011-1.151c-0.188-8.793-3.271-28.973-23.857-43.369
		c0,0,12.174,15.011,14.403,30.333c0,0-4.36-4.115-11.095-6.731c0,0-7.722-19.692-23.782-27.904c0,0,11.573,9.838,17.312,25.288
		c0,0-12.088-4.364-17.068-4.227c0,0,8.229,2.982,18.812,9.587c0,0,13.594,39.862-22.17,56.668c0,0,4.98-25.522-16.438-36.732
		c0,0,17.561,20.426,5.963,40.714c0,0-2.219-0.953-5.963-1.791c-2.92-0.709-8.35-1.332-12.75-1.338c-0.29,0-0.246,0-0.646,0
		c-0.036,0-0.398,0-0.44,0c-0.051,0-0.654,0-0.69,0c-0.398,0-0.695,0-0.984,0c-4.407,0.012-9.254,0.629-12.173,1.338
		c-3.741,0.838-5.958,1.791-5.958,1.791c-11.594-20.29,5.971-40.714,5.971-40.714c-21.422,11.21-16.439,36.732-16.439,36.732
		c-35.769-16.806-22.173-56.668-22.173-56.668c10.585-6.605,18.806-9.587,18.806-9.587c-4.976-0.137-17.065,4.227-17.065,4.227
		c5.739-15.446,17.312-25.288,17.312-25.288c-16.061,8.212-23.781,27.904-23.781,27.904c-6.739,2.616-11.09,6.731-11.09,6.731
		c2.225-15.322,14.402-30.333,14.402-30.333c-20.59,14.396-23.668,34.572-23.859,43.366c-0.012,0.411-0.012,0.797-0.012,1.154
		c0.015,2.648,0.545,5.202,1.278,7.491c1.79,5.571,4.822,9.579,4.822,9.579c12.713,17.319,38.497,29.638,38.497,29.638
		c5.881,2.45,4.977,4.675,4.672,5.155c-1.236,1.979-3.181,1.207-3.181,1.207c-2.587-1.059-4.484-3.362-4.484-3.362
		c-4.739-4.735-11.966-6.351-11.966-6.351c-8.956-2.743-16.554-3.611-16.554-3.611c-2.739-0.131-1.622,2.104-1.622,2.104
		c14.696,36.002,35.011,29.52,35.011,29.52c0.365,5.854,2.977,10.842,2.977,10.842c-2.609,9.102-0.5,10.469-0.5,10.469
		c10.971,8.207,10.715,15.816,10.715,15.816l-0.871,2.248c-2.728-11.215-9.58-14.336-9.58-14.336
		c-2.621,5.48-1.374,17.568-1.374,17.568c-8.958,5.975-9.336,15.57-9.336,15.57c-7.662,6.016-11.657,12.529-13.101,15.242h-4.043
		l0,0h-49.702l-12.618,18.02v74.193l12.618,18.024l212.127-0.003l12.619-18.021v-74.193L355.721,279.618z"/>
	<path fill="#C5CED3" d="M189.928,122.312c-8.982,6.118-8.122,14.691-8.122,14.691c1.286,10.45,8.443,14.823,8.443,14.823
		c-1.702-5.078-2.088-14.668-2.088-14.668C188.163,128.933,189.928,122.312,189.928,122.312z"/>
	<path fill="#FFFFFF" d="M235.594,185.522l-2.251-2.488c-1.362,4.05-5.534,6.55-5.534,6.55
		C232.473,190.628,235.594,185.522,235.594,185.522z"/>
	<path fill="#FFFFFF" d="M234.72,215.04c-1.121,3.615-0.259,4.482-0.259,4.482c0.887-2.979,3.875-5.969,3.875-5.969
		c-3.616-6.112-3.489-10.465-3.489-10.465c-5.864-0.508-8.594-2.74-8.594-2.74l-1.741,0.746c-3.987,6.604,0.977,11.707,0.977,11.707
		C229.365,216.538,234.72,215.04,234.72,215.04z"/>
	<path fill="#FFFFFF" d="M235.098,234.474c1.247,8.098,4.346,9.218,4.346,9.218c2.128-2.235,5.37-3.23,5.37-3.23l-0.25-0.884
		c-3.741,0.622-4.74,1.504-4.74,1.504c-4.863-7.357-0.122-14.398-0.122-14.398c5.478-1.491,6.6-5.273,6.6-5.273h3.367h0.005h3.363
		c0,0,1.127,3.782,6.602,5.273c0,0,4.745,7.041-0.121,14.398c0,0-1.002-0.882-4.742-1.504l-0.248,0.884c0,0,3.242,0.995,5.367,3.23
		c0,0,3.109-1.12,4.35-9.218c0,0,0.142-7.229-3.352-9.838c0,0-5.367-1.123-7.104-6.727h-4.115h-0.005h-4.117
		c-1.743,5.604-7.102,6.727-7.102,6.727C234.961,227.246,235.098,234.474,235.098,234.474z"/>
	<path fill="#FFFFFF" d="M242.005,229.8c-0.38,5.414,2.557,6.311,2.557,6.311c0.75-1.082,0.88-3.25,0.88-3.25
		C243.867,232.044,242.005,229.8,242.005,229.8z"/>
	<path fill="#FFFFFF" d="M218.808,195.419c-4.298-1.212-6.573,0.922-6.573,0.922v-0.062c-9.555-15.865-20.679-14.706-21.121-14.361
		c8.7,23.081,25.419,20.593,27.104,20.091C217.995,201.192,218.608,195.853,218.808,195.419z"/>
	<path fill="#FFFFFF" d="M216.927,263.372c3.305,9.217,8.21,12.702,8.21,12.702s0.436-0.249,0.837-1.079
		c-5.24-6.309-5.644-13.781-5.745-14.363C218.12,261.962,216.927,263.372,216.927,263.372z"/>
	<path fill="#C5CED3" d="M309.41,122.312c0,0,1.767,6.621,1.767,14.846c0,0-0.381,9.59-2.081,14.668c0,0,7.157-4.376,8.442-14.823
		C317.538,137.01,318.4,128.43,309.41,122.312z"/>
	<path fill="#FFFFFF" d="M271.525,189.584c0,0-4.162-2.5-5.523-6.55l-2.248,2.488C263.754,185.522,266.875,190.628,271.525,189.584z
		"/>
	<path fill="#FFFFFF" d="M264.621,215.04c0,0,5.357,1.498,9.229-2.238c0,0,4.971-5.102,0.98-11.707l-1.742-0.746
		c0,0-2.734,2.234-8.592,2.74c0,0,0.125,4.354-3.489,10.465c0,0,2.985,2.984,3.87,5.969
		C264.877,219.522,265.746,218.655,264.621,215.04z"/>
	<path fill="#004715" d="M226.128,209.813c0,0-2.246-2.613,0.232-7.225c0,0,3.126,1.381,6.98,1.747c0,0,0.125,4.104,2.749,8.341
		C236.092,212.677,228.87,215.04,226.128,209.813z"/>
	<path fill="#004715" d="M273.213,209.813c-2.734,5.232-9.965,2.863-9.965,2.863c2.628-4.242,2.754-8.34,2.754-8.34
		c3.852-0.367,6.971-1.748,6.971-1.748C275.455,207.198,273.213,209.813,273.213,209.813z"/>
	<path fill="#FFFFFF" d="M257.332,229.8c0,0-1.854,2.244-3.436,3.061c0,0,0.137,2.172,0.879,3.25
		C254.775,236.108,257.721,235.214,257.332,229.8z"/>
	<path fill="#FFFFFF" d="M242.688,247.431l0.743,1.309c1.092-0.719,2.298-1.137,3.364-1.379c1.351-0.314,2.471-0.342,2.87-0.352
		h0.008c0.393,0.01,1.517,0.039,2.869,0.352c1.067,0.242,2.269,0.66,3.362,1.379l0.736-1.309c0,0-2.635-1.896-6.979-1.984
		C245.325,245.535,242.688,247.431,242.688,247.431z"/>
	<path fill="#FFFFFF" d="M287.107,196.278v0.062c0,0-2.276-2.136-6.568-0.924c0.201,0.436,0.809,5.773,0.579,6.59
		c1.696,0.502,18.403,2.989,27.103-20.098C307.787,181.572,296.657,180.413,287.107,196.278z"/>
	<path fill="#FFFFFF" d="M282.424,263.372c0,0-1.201-1.41-3.312-2.74c-0.096,0.576-0.504,8.055-5.741,14.363
		c0.409,0.83,0.832,1.079,0.832,1.079s1.843-1.317,4.03-4.446c0.742,0,1.485,0,1.485,0c-0.999,3.582-2.202,5.389-3.809,7.282
		c-0.222,0.265-0.431,0.497-0.62,0.708h0.684c2.754-2.007,7.789-6.854,7.916-15.57c-0.199-0.099-0.842-0.379-1.472-0.666
		C282.417,263.382,282.417,263.378,282.424,263.372z"/>
	<path fill="#FFFFFF" d="M252.105,258.945c-0.554-0.062-1.465-0.093-2.438-0.109c-0.963,0.019-1.878,0.048-2.432,0.109
		c0,0-4.676,0.317-12.831-9.903l-2.922,3.553c0,0,5.537,5.664,6.472,16.135l3.117,2.123l-2.868,1.604l0.189,1.746
		c0,0,2.612-1.685,4.164-2.174l2.375,2.301c0,0-3.187,2.043-5.339,5.286h16.057c2.525-0.618,5.91-1.393,9.984-2.229
		c0,0-5.816-13.89,2.155-24.729c0.035-0.044,0.062-0.063,0.062-0.063l-2.92-3.554C256.779,259.263,252.105,258.945,252.105,258.945z
		"/>
	<polygon fill="#FFFFFF" points="206.403,284.765 201.943,284.765 198.76,294.325 198.719,294.325 195.353,284.765 190.896,284.765 
		190.896,298.665 193.862,298.665 193.862,288.905 193.9,288.905 197.432,298.665 199.867,298.665 203.398,288.813 203.436,288.813 
		203.436,298.665 206.403,298.665 	"/>
	<rect x="210.396" y="284.765" fill="#FFFFFF" width="3.167" height="13.898"/>
	<polygon fill="#FFFFFF" points="217.313,284.765 217.313,298.665 227.497,298.665 227.497,296.091 220.479,296.091 
		220.479,284.765 	"/>
	<polygon fill="#FFFFFF" points="233.825,298.665 236.228,289.2 236.266,289.2 238.706,298.665 241.849,298.665 245.721,284.765 
		242.616,284.765 240.257,294.347 240.214,294.347 237.758,284.765 234.792,284.765 232.297,294.226 232.253,294.226 
		229.974,284.765 226.811,284.765 230.625,298.665 	"/>
	<path fill="#FFFFFF" d="M249.598,295.567h5.386l1.082,3.098h3.283l-5.379-13.9h-3.248l-5.46,13.9h3.203L249.598,295.567z
		 M252.3,288.194h0.038l1.814,5.096h-3.734L252.3,288.194z"/>
	<path fill="#FFFFFF" d="M266.652,298.992c3.854,0,6.148-1.831,6.148-5.589v-8.646h-3.16v8.646c0,2.068-0.729,3.025-2.986,3.025
		c-2.557,0-2.963-1.504-2.963-3.025v-8.646h-3.164v8.646C260.525,297.185,262.779,298.992,266.652,298.992z"/>
	<polygon fill="#FFFFFF" points="300.968,298.665 300.968,296.091 293.209,296.091 293.209,292.687 300.176,292.687 
		300.176,290.308 293.209,290.308 293.209,287.332 300.807,287.332 300.807,284.765 290.039,284.765 290.039,298.665 	"/>
	<polygon fill="#FFFFFF" points="313.849,287.332 313.849,284.765 303.084,284.765 303.084,298.665 314.006,298.665 
		314.006,296.091 306.247,296.091 306.247,292.687 313.228,292.687 313.228,290.308 306.247,290.308 306.247,287.332 	"/>
	<polygon fill="#FFFFFF" points="285.83,284.765 284.861,284.769 279.021,290.804 278.98,290.804 278.98,284.769 275.823,284.769 
		275.823,298.665 278.986,298.665 278.98,291.619 279.021,291.619 283.979,298.665 287.795,298.665 282.104,291.019 
		288.438,284.765 	"/>
	<path fill="#C11334" d="M229.666,321.368h0.854l0.511-2.393l2.145-10.043l0.783-3.658l-3.741,0.002h-15.203h-3.029v3.023v10.039
		v3.027h1.945v42.151c-1.75,0-3.936,0-5.684,0v-42.151h1.995v-3.027V308.3v-3.022h-3.029h-15.851h-3.936l1.008,3.799l2.649,10.04
		l0.592,2.253h0.825v46.89v0.966l0.558,0.791l6.335,8.924l0.907,1.276h1.565h18.589h1.586l0.905-1.302l6.189-8.934l0.535-0.779
		v-0.948v-46.884L229.666,321.368L229.666,321.368z"/>
	<polygon fill="#C11334" points="298.424,377.179 298.424,380.215 301.449,380.215 315.207,380.215 318.236,380.215 
		318.236,377.179 318.236,366.536 318.236,363.511 315.207,363.511 314.768,363.511 304.012,339.292 313.334,321.368 
		315.885,321.368 315.885,318.341 315.885,308.3 315.885,305.271 312.858,305.271 300.738,305.271 297.71,305.271 297.71,308.3 
		297.71,318.341 297.71,321.339 293.084,330.212 293.084,321.368 295.055,321.368 295.062,318.341 295.062,308.3 295.062,305.271 
		292.035,305.271 276.258,305.271 272.393,305.271 273.324,309.028 275.829,319.071 276.406,321.368 277.346,321.368 
		277.346,363.511 275.932,363.511 275.375,365.845 272.865,376.486 271.992,380.215 275.812,380.215 292.245,380.215 
		295.281,380.215 295.293,377.179 295.293,366.536 295.293,363.511 293.084,363.511 293.084,360.143 295.094,356.313 
		298.424,364.417 298.424,366.536 	"/>
	<polygon fill="#C11334" points="272.125,369.459 272.125,368.521 272.125,360.476 272.125,359.027 271.001,358.121 
		261.305,350.261 256.379,346.259 256.379,352.615 256.379,363.505 250.676,363.505 250.676,321.359 256.379,321.359 
		256.379,330.382 256.379,336.729 261.305,332.728 271.001,324.878 272.125,323.97 272.125,322.53 272.125,318.452 272.125,317.426 
		271.508,316.614 263.825,306.501 262.921,305.3 261.414,305.3 245.137,305.3 243.545,305.3 242.644,306.614 235.466,317.028 
		234.936,317.804 234.936,318.749 234.936,368.247 234.936,369.144 235.42,369.894 241.204,378.832 242.102,380.215 
		243.746,380.215 263.146,380.215 264.75,380.215 265.663,378.894 271.596,370.232 	"/>
	<path fill="#C11334" d="M349.722,290.55l-0.909-1.213h-1.521h-16.284h-1.582l-0.899,1.289l-7.229,10.252l-0.538,0.771v0.957v25.406
		v1.885l21.47,17.539v16.198c-1.997,0-4.568,0-6.408,0v-11.688v-4.881l-14.997,11.022v5.478v4.938v0.898l0.492,0.756l5.656,8.671
		l0.894,1.383h1.641h19.531h1.617l0.902-1.351l5.798-8.678l0.507-0.769v-0.913v-27.73v-1.902l-21.479-17.32v-16.172h6.553v15.666
		v4.508l14.941-11.462v-1.441v-10.248v-1.006l-0.602-0.801L349.722,290.55z"/>
	<path fill="#C11334" d="M185.207,368.252l-0.04-26.235v-1.201l-0.818-0.869l-3.659-3.899l4.076-6.696l0.441-0.725v-0.85v-25.389
		v-1.03l-0.633-0.817l-7.707-9.998l-0.906-1.18h-1.491h-21.596h-1.473l-12.271,16.125l5.482,0.016l3.375,0.002v58.97l-8.879-0.029
		l11.382,14.603l0.906,1.172h1.477h23.057h1.577l0.904-1.297l6.245-8.925l0.552-0.784v-0.958h-0.001V368.252L185.207,368.252z"/>
	<polygon fill="#FFFFFF" points="218.355,371.605 221.7,367.513 221.7,312.548 216.964,318.341 216.958,318.341 216.958,366.546 
		216.958,366.546 205.229,366.546 202.281,369.001 200.189,366.032 200.421,312.729 195.536,318.341 195.53,318.341 195.53,368.258 
		201.865,377.179 201.874,377.179 203.947,371.605 	"/>
	<polygon fill="#FFFFFF" points="217.35,312.548 221.7,312.548 224.856,312.548 230.218,308.3 230.209,308.3 215.015,308.3 
		215.015,318.341 215.026,318.341 	"/>
	<polygon fill="#FFFFFF" points="200.421,312.729 204.878,312.737 207.207,308.312 207.209,313.327 207.209,308.3 191.359,308.3 
		194.013,318.341 194.013,318.341 197.079,312.729 	"/>
	<polygon fill="#C5CED3" points="226.654,318.341 228.068,318.341 228.086,318.341 230.218,308.3 224.856,312.548 221.7,312.548 
		221.7,367.513 218.355,371.605 203.947,371.605 201.874,377.179 220.455,377.179 220.461,377.179 226.654,368.258 	"/>
	<polygon fill="#C5CED3" points="221.7,312.548 217.35,312.548 215.026,318.341 216.958,318.341 216.958,318.341 216.964,318.341 	
		"/>
	<polygon fill="#C5CED3" points="200.421,312.729 197.079,312.729 194.013,318.341 195.527,318.341 195.53,318.341 195.536,318.341 
			"/>
	<polygon fill="#FFFFFF" points="144.698,366.679 152.875,377.179 155.742,371.703 174.043,371.882 177.273,367.538 
		177.273,342.029 182.142,342.017 176.908,336.44 182.174,327.774 176.899,336.44 172.83,336.208 177.161,328.78 176.966,302.405 
		182.174,302.388 174.47,292.392 152.875,292.392 144.61,302.964 151.015,302.97 151.015,366.661 	"/>
	<polygon fill="#FFFFFF" points="155.906,297.327 172.856,297.419 175.362,300.554 172.495,303.022 160.711,302.993 
		172.489,303.022 172.489,332.376 160.711,332.376 155.906,336.47 172.745,336.601 175.711,340.319 172.495,341.485 
		172.489,341.485 172.489,366.536 160.711,366.604 155.63,371.422 155.906,336.47 	"/>
	<polygon fill="#C5CED3" points="177.161,328.78 172.83,336.208 176.899,336.44 182.174,327.774 182.174,302.388 176.966,302.405 	
		"/>
	<polygon fill="#C5CED3" points="160.711,302.993 172.495,303.022 175.362,300.554 172.856,297.419 155.906,297.327 155.906,336.47 
		160.711,332.376 	"/>
	<polygon fill="#C5CED3" points="204.878,312.737 200.421,312.729 200.189,366.032 202.281,369.001 205.229,366.546 
		205.229,318.341 207.209,318.341 207.216,318.341 207.209,313.327 207.207,308.312 	"/>
	<polygon fill="#C5CED3" points="177.273,367.538 174.043,371.882 155.742,371.703 152.875,377.179 175.932,377.179 
		182.174,368.258 182.151,342.017 182.142,342.017 177.273,342.029 	"/>
	<polygon fill="#C5CED3" points="160.711,366.604 160.711,341.485 172.489,341.485 172.495,341.485 175.711,340.319 
		172.745,336.601 155.906,336.47 155.63,371.422 	"/>
	<polygon fill="#C5CED3" points="155.831,297.241 144.765,302.964 151.021,302.97 	"/>
	<rect x="160.711" y="302.993" fill="#C11334" width="11.778" height="29.383"/>
	<polygon fill="#004715" points="169.459,329.342 163.737,329.342 163.737,306.031 169.459,306.052 	"/>
	<rect x="160.711" y="341.485" fill="#C11334" width="11.778" height="25.048"/>
	<polygon fill="#004715" points="169.459,363.53 163.737,363.562 163.737,344.511 169.459,344.511 	"/>
	<polygon fill="#FFFFFF" points="301.449,366.536 301.449,377.179 301.449,377.179 303.852,372.426 312.467,372.296 
		315.207,366.536 312.809,366.536 309.643,372.296 297.757,344.666 290.357,358.829 295.42,349.167 302.579,366.536 	"/>
	<polygon fill="#FFFFFF" points="284.986,371.915 285.367,357.854 306.9,318.595 307.156,312.255 309.814,312.255 312.858,308.312 
		312.858,308.3 300.738,308.3 300.738,318.214 303.814,312.218 307.145,312.255 302.27,318.341 302.684,318.341 290.051,342.571 
		290.051,342.571 285.256,351.521 285,312.286 280.363,318.341 280.373,318.341 280.373,366.536 278.324,366.536 275.812,377.179 
		280.809,371.915 	"/>
	<polygon fill="#FFFFFF" points="285.027,312.255 288.301,312.255 292.035,308.304 292.035,308.3 292.027,308.3 276.258,308.3 
		278.768,318.327 281.873,312.247 	"/>
	<polygon fill="#C5CED3" points="309.643,372.296 312.809,366.536 300.664,339.185 300.641,339.134 310.647,319.968 
		311.497,318.341 311.497,318.341 312.858,318.341 312.864,318.341 312.864,308.3 312.858,308.312 309.814,312.255 307.156,312.255 
		306.9,318.595 285.367,357.854 284.986,371.915 290.051,366.536 290.051,359.405 290.357,358.829 297.757,344.666 	"/>
	<polygon fill="#C5CED3" points="284.986,371.915 280.809,371.915 275.812,377.179 275.812,377.179 275.812,377.179 
		292.245,377.179 292.261,377.179 292.264,377.179 292.264,366.536 292.261,366.546 289.059,371.921 	"/>
	<polygon fill="#C5CED3" points="285.256,351.521 290.051,342.571 290.066,342.554 290.066,318.341 292.027,318.341 
		292.035,318.341 292.043,318.341 292.043,308.3 292.035,308.304 288.301,312.255 285.027,312.255 281.873,312.247 278.768,318.327 
		278.761,318.341 278.768,318.341 280.363,318.341 285,312.286 	"/>
	<polygon fill="#FFFFFF" points="261.512,372.138 263.789,368.597 263.789,361.379 269.1,360.476 259.398,352.615 259.398,366.531 
		247.672,366.531 247.672,366.546 244.729,369.001 242.632,366.032 242.741,340.763 242.598,319.454 246.54,312.988 
		260.115,312.988 262.467,315.692 259.398,318.327 259.398,330.382 264.17,321.223 264.17,318.458 269.1,318.452 261.414,308.326 
		245.137,308.326 237.961,318.749 237.961,368.247 243.746,377.179 243.751,377.179 245.761,372.138 	"/>
	<polygon fill="#C5CED3" points="260.115,312.988 246.54,312.988 242.598,319.454 242.741,340.763 242.632,366.032 244.729,369.001 
		247.672,366.546 247.672,366.531 247.672,337.288 247.649,337.288 247.649,318.327 259.398,318.327 262.467,315.692 	"/>
	<polygon fill="#C5CED3" points="264.17,321.223 259.398,330.382 269.1,322.53 269.1,318.452 264.17,318.458 	"/>
	<polygon fill="#C5CED3" points="269.1,360.476 263.789,361.379 263.789,368.597 261.512,372.138 245.761,372.138 243.751,377.179 
		263.146,377.179 269.1,368.521 	"/>
	<polygon fill="#FFFFFF" points="289.059,371.921 292.261,366.546 292.261,366.536 292.245,366.536 290.051,366.536 
		284.986,371.915 	"/>
	<polygon fill="#C5CED3" points="303.852,372.426 301.449,377.179 315.207,377.179 315.207,366.536 312.467,372.296 	"/>
	<polygon fill="#C5CED3" points="303.814,312.218 300.738,318.214 300.67,318.341 300.738,318.341 302.27,318.341 307.145,312.255 	
		"/>
	<polygon fill="#FFFFFF" points="349.774,343.12 354.835,340.774 333.361,323.446 328.902,325.53 	"/>
	<polygon fill="#FFFFFF" points="331.005,292.362 323.781,302.606 323.781,328.006 328.902,325.53 328.902,302.394 332.193,297.167 
		346.231,297.167 348.389,299.677 345.283,302.343 345.274,302.343 345.283,302.351 345.283,320.45 350.048,311.32 350.048,302.405 
		354.853,302.398 347.289,292.362 	"/>
	<polygon fill="#FFFFFF" points="347.242,371.573 349.774,367.444 349.774,343.12 345.26,345.546 345.26,345.552 345.26,366.661 
		345.254,366.661 333.469,366.661 333.469,366.673 333.459,366.661 330.487,369.144 328.721,366.106 328.703,364.774 
		328.709,364.774 328.709,360.755 333.469,351.948 323.846,359.708 323.846,368.507 329.5,377.179 331.261,371.573 	"/>
	<polygon fill="#C5CED3" points="328.709,364.774 328.703,364.774 328.721,366.106 330.487,369.144 333.459,366.661 
		333.469,366.673 333.469,366.661 333.469,366.658 333.479,366.655 333.479,359.643 333.469,359.646 333.469,351.948 
		328.709,360.755 	"/>
	<polygon fill="#C5CED3" points="349.774,367.444 347.242,371.573 331.261,371.573 329.5,377.179 349.037,377.179 354.835,368.507 
		354.835,340.774 349.774,343.12 	"/>
	<polygon fill="#C5CED3" points="328.902,325.53 323.781,328.006 323.775,328.013 345.254,345.552 345.26,345.546 349.774,343.12 	
		"/>
	<polygon fill="#C5CED3" points="348.389,299.677 346.231,297.167 332.193,297.167 328.902,302.394 328.902,325.53 333.361,323.446 
		333.361,302.343 345.274,302.343 345.283,302.343 	"/>
	<polygon fill="#C5CED3" points="350.048,311.32 345.283,320.45 345.279,320.456 345.283,320.456 354.853,312.646 354.853,302.398 
		350.048,302.405 	"/>
</g>
</svg>
