<?xml version="1.0" encoding="utf-8"?>
<!-- Generator: Adobe Illustrator 16.0.0, SVG Export Plug-In . SVG Version: 6.00 Build 0)  -->
<!DOCTYPE svg PUBLIC "-//W3C//DTD SVG 1.1//EN" "http://www.w3.org/Graphics/SVG/1.1/DTD/svg11.dtd">
<svg version="1.1" id="content" xmlns="http://www.w3.org/2000/svg" xmlns:xlink="http://www.w3.org/1999/xlink" x="0px" y="0px"
	 width="500px" height="500px" viewBox="0 0 500 500" enable-background="new 0 0 500 500" xml:space="preserve">
<polygon fill="#5F3A6E" points="409.053,240.067 374.053,195.455 355.453,178.944 353.254,178.944 353.254,179.1 146.746,179.1 
	146.746,178.944 144.547,178.944 125.947,195.455 90.947,240.067 121.547,284.555 145.87,262.259 145.87,483.689 353.301,483.689 
	353.301,261.498 378.453,284.555 "/>
<rect id="position" x="0.5" y="0.5" display="none" fill="none" stroke="#000000" width="499" height="499"/>
<g id="bounds" display="none">
	<rect x="-0.1" y="80.3" display="inline" fill="none" stroke="#EAEAEA" stroke-miterlimit="10" width="499.5" height="499.5"/>
</g>
<g>
	<circle fill="#533361" cx="250.001" cy="270.396" r="75.888"/>
	<path fill="#C99857" d="M217.726,228.013c0,0-16.118-6.174-28.622-5.397c9.687,9.593,11.431,20.93,11.431,20.93l17.191-15.116"/>
	<path fill="#967141" d="M189.104,222.615c0,0,8.841,3.6,13.541,6.545c-4.638-0.125-4.886,0.438-4.886,0.438
		s5.324,0.814,12.28,6.454c-9.736,6.354-10.875,6.926-10.875,6.926L189.104,222.615z"/>
	<path fill="#C99857" d="M282.396,228.013c0,0,16.118-6.174,28.622-5.397c-9.688,9.593-11.43,20.93-11.43,20.93l-17.192-15.116"/>
	<path fill="#967141" d="M311.178,222.615c0,0-8.84,3.6-13.54,6.545c4.638-0.125,4.889,0.438,4.889,0.438s-5.328,0.814-12.284,6.454
		c9.736,6.354,10.876,6.926,10.876,6.926L311.178,222.615z"/>
	<path fill="#E8AF64" d="M256.246,224.652c0,0,0.78-12.665-12.753-15.966c5.095,5.216,2.316,13.86,2.316,13.86L256.246,224.652z"/>
	<path fill="#E8AF64" d="M250.061,221.675c-46.279,0-62.638,29.921-60.821,52.851c18.398,15.378,59.318,15.654,60.786,15.66l0,0
		c0,0,0.027,0,0.035,0s0.035,0,0.035,0l0,0c1.468-0.006,42.388-0.282,60.786-15.66C312.699,251.596,296.341,221.675,250.061,221.675
		z"/>
	<path opacity="0.4" fill="#FCEECF" d="M189.239,274.525c2.424,2.026,5.244,3.782,8.309,5.318
		c3.729-0.763,8.657-3.184,11.671-10.513c-6.647-1.885-14.438-2.758-19.834-3.161C189.073,269.012,189.026,271.817,189.239,274.525z
		"/>
	<path opacity="0.4" fill="#FCEECF" d="M194.883,248.815c-1.501,2.726-2.695,5.532-3.594,8.369
		c3.325-0.017,7.774-0.251,10.424-1.255C200.466,252.796,197.58,250.439,194.883,248.815z"/>
	<path opacity="0.4" fill="#FCEECF" d="M310.952,274.525c-2.424,2.026-5.247,3.782-8.309,5.318
		c-3.729-0.763-8.659-3.184-11.671-10.513c6.647-1.885,14.439-2.758,19.834-3.161C311.118,269.012,311.166,271.817,310.952,274.525z
		"/>
	<path opacity="0.4" fill="#FCEECF" d="M305.309,248.815c1.501,2.726,2.692,5.532,3.594,8.369
		c-3.325-0.017-7.774-0.251-10.424-1.255C299.726,252.796,302.611,250.439,305.309,248.815z"/>
	<path opacity="0.3" fill="#FCEECF" d="M255.491,248.087c-0.267,2.436,1.49,4.627,3.924,4.895l26.667,2.926
		c2.435,0.268,4.627-1.492,4.894-3.927l1.834-16.713c0.267-2.437-1.493-4.628-3.927-4.896l-26.664-2.925
		c-2.437-0.268-4.628,1.489-4.894,3.927L255.491,248.087z"/>
	<path fill="#483831" d="M286.386,257.434L286.386,257.434c-0.216,0-0.434-0.012-0.653-0.035l-26.667-2.926
		c-3.251-0.357-5.606-3.295-5.252-6.549l1.835-16.713c0.353-3.23,3.239-5.615,6.548-5.254l26.664,2.925
		c3.253,0.358,5.609,3.295,5.255,6.549l-1.834,16.714C291.951,255.16,289.416,257.434,286.386,257.434z M261.542,228.92
		c-1.497,0-2.749,1.125-2.911,2.616l-1.835,16.713c-0.176,1.609,0.989,3.063,2.598,3.24l26.667,2.926
		c1.632,0.182,3.063-1,3.238-2.599l1.834-16.713c0.176-1.61-0.99-3.064-2.6-3.241l-26.664-2.925
		C261.759,228.926,261.649,228.92,261.542,228.92z"/>
	<path opacity="0.3" fill="#FCEECF" d="M244.791,248.087c0.269,2.436-1.488,4.627-3.925,4.895l-26.664,2.926
		c-2.437,0.268-4.627-1.492-4.894-3.927l-1.834-16.713c-0.269-2.437,1.49-4.628,3.925-4.896l26.664-2.925
		c2.437-0.268,4.627,1.489,4.896,3.927L244.791,248.087z"/>
	<path fill="#483831" d="M213.712,257.434c-3.03,0-5.564-2.273-5.895-5.29l-1.834-16.712c-0.173-1.576,0.277-3.125,1.27-4.363
		c0.992-1.237,2.407-2.014,3.982-2.187l26.665-2.925c3.295-0.362,6.194,2.023,6.55,5.254l1.832,16.714
		c0.173,1.575-0.277,3.125-1.269,4.361c-0.992,1.237-2.407,2.014-3.983,2.188l-26.664,2.926
		C214.146,257.422,213.928,257.434,213.712,257.434z M238.554,228.92c-0.108,0-0.217,0.006-0.327,0.018l-26.664,2.925
		c-0.779,0.085-1.479,0.47-1.969,1.082c-0.491,0.612-0.714,1.379-0.628,2.158l1.834,16.713c0.175,1.601,1.604,2.782,3.239,2.6
		l26.664-2.926c0.78-0.086,1.479-0.47,1.97-1.082c0.49-0.611,0.713-1.377,0.627-2.156l-1.833-16.714
		C241.304,230.046,240.051,228.92,238.554,228.92z"/>
	<path fill="#483831" d="M235.413,241.677c-0.017-0.008-0.221-0.083-0.667-0.199c-0.446-0.104-1.087-0.256-1.877-0.325
		c-0.785-0.078-1.709-0.114-2.69-0.026c-0.489,0.026-0.991,0.101-1.495,0.189c-0.51,0.06-1.012,0.23-1.516,0.339
		c-0.499,0.143-0.989,0.325-1.471,0.48c-0.467,0.203-0.929,0.402-1.372,0.596c-0.427,0.233-0.839,0.457-1.23,0.67
		c-0.389,0.211-0.728,0.474-1.056,0.679c-0.658,0.404-1.145,0.85-1.503,1.123c-0.354,0.281-0.558,0.443-0.558,0.443l-2.045-2.66
		c0,0,0.251-0.159,0.695-0.438c0.446-0.269,1.049-0.7,1.864-1.087c0.404-0.197,0.818-0.443,1.295-0.638
		c0.474-0.193,0.976-0.396,1.495-0.605c0.535-0.164,1.087-0.333,1.648-0.505c0.577-0.121,1.157-0.262,1.742-0.36
		c0.595-0.062,1.177-0.183,1.764-0.189c0.582-0.036,1.154-0.054,1.709-0.021c1.106,0.027,2.131,0.183,2.991,0.369
		c0.863,0.177,1.561,0.425,2.048,0.599c0.479,0.184,0.785,0.336,0.768,0.328L235.413,241.677z"/>
	<path fill="#483831" d="M219.979,245.646l-4.042-5.236c2.531,1.456,5.393,1.987,5.393,1.987L219.979,245.646z"/>
	<path fill="#483831" d="M264.775,241.677c0.021-0.008,0.224-0.083,0.67-0.199c0.444-0.104,1.087-0.256,1.877-0.325
		c0.785-0.078,1.709-0.114,2.688-0.026c0.492,0.026,0.994,0.101,1.498,0.189c0.51,0.06,1.009,0.23,1.516,0.339
		c0.499,0.143,0.986,0.325,1.471,0.48c0.467,0.203,0.926,0.402,1.372,0.596c0.427,0.233,0.839,0.457,1.23,0.67
		c0.389,0.211,0.728,0.474,1.054,0.679c0.66,0.404,1.146,0.85,1.505,1.123c0.354,0.281,0.558,0.443,0.558,0.443l2.045-2.66
		c0,0-0.253-0.159-0.695-0.438c-0.446-0.269-1.051-0.7-1.864-1.087c-0.404-0.197-0.818-0.443-1.295-0.638
		c-0.477-0.193-0.976-0.396-1.495-0.605c-0.535-0.164-1.089-0.333-1.648-0.505c-0.577-0.121-1.157-0.262-1.744-0.36
		c-0.593-0.062-1.175-0.183-1.762-0.189c-0.582-0.036-1.154-0.054-1.712-0.021c-1.106,0.027-2.128,0.183-2.988,0.369
		c-0.865,0.177-1.561,0.425-2.048,0.599c-0.481,0.184-0.785,0.336-0.768,0.328L264.775,241.677z"/>
	<path fill="#483831" d="M280.213,245.646l4.04-5.236c-2.529,1.456-5.39,1.987-5.39,1.987L280.213,245.646z"/>
	<path fill="#483831" d="M255.967,240.992c-0.033-0.017-3.39-1.646-5.906-1.646c-2.517,0-5.873,1.63-5.906,1.646l-1.323-2.693
		c0.162-0.08,4.009-1.954,7.229-1.954c3.22,0,7.067,1.874,7.229,1.954L255.967,240.992z"/>
	<path fill="#C99857" d="M250.141,260.444c0,0-0.105,1.522-3.581,4.319c-3.473,2.797-5.939,1.771-9.946-0.372
		c-4.008-2.146-6.339-6.898-3.822-8.482c7.736-4.94,17.35-4.027,17.35-4.027s9.613-0.913,17.35,4.027
		c2.518,1.584,0.188,6.337-3.821,8.482c-4.008,2.144-6.472,3.169-9.947,0.372S250.141,260.444,250.141,260.444z"/>
	<path fill="#FCEECF" d="M253.722,247.703c0,0,6.032-0.914,13.769,4.026c2.518,1.584,0.188,6.338-3.821,8.481
		c-4.008,2.146-6.472,3.17-9.947,0.374c-3.476-2.797-3.581-4.321-3.581-4.321"/>
	<path fill="#FCEECF" d="M246.56,247.703c0,0-6.032-0.914-13.769,4.026c-2.517,1.584-0.186,6.338,3.822,8.481
		c4.007,2.146,6.474,3.17,9.946,0.374c3.476-2.797,3.581-4.321,3.581-4.321"/>
	<path fill="#CF485A" d="M256.08,249.084c-1.276-1.87-5.061-1.644-5.522-1.61c-0.462-0.033-5.169-0.26-6.449,1.61
		c-1.262,1.85,5.104,6.515,5.939,7.114v0.065c0,0,0.03-0.02,0.048-0.033c0.018,0.014,0.045,0.033,0.045,0.033v-0.065
		C250.979,255.599,257.345,250.934,256.08,249.084z"/>
	<path fill="#E8AF64" d="M255.263,302.864c-2.289-4.706-3.019-9.702-2.537-14.944c0.336-3.67,2.123-6.905,2.768-10.437l-5.353,9.463
		l-5.353-9.463c0.643,3.531,2.43,6.767,2.766,10.437c0.481,5.242-0.248,10.238-2.537,14.944
		c-4.434,9.116-10.197,17.529-14.371,26.79c-1.896,4.205-3.44,9.181-2.574,13.859c7.02,1.757,14.362,2.703,21.928,2.703
		c7.67,0,15.112-0.966,22.222-2.771c0.837-4.658-0.7-9.605-2.585-13.791C265.463,320.394,259.699,311.98,255.263,302.864z"/>
	<path opacity="0.4" fill="#FCEECF" d="M250,326.854c-8.246,0-14.932,6.685-14.932,14.932c0,1.056,0.113,2.085,0.321,3.078
		c4.729,0.923,9.61,1.42,14.609,1.42c5,0,9.882-0.497,14.611-1.42c0.208-0.994,0.321-2.022,0.321-3.078
		C264.932,333.538,258.246,326.854,250,326.854z"/>
	<path fill="#CF485A" d="M306.15,308.887c0-7.18-5.82-13-13-13h-85.562c-7.18,0-13,5.82-13,13v8.629c0,7.18,5.82,13,13,13h85.562
		c7.18,0,13-5.82,13-13V308.887z"/>
	<path fill="#993542" d="M306.161,311.537v6.156c0,3.659-1.518,6.96-3.951,9.323c-1.347-0.177-2.596-0.853-3.612-1.921
		c-0.668-0.702-1.201-1.733-1.479-2.653c-1.191-3.938,1.533-6.68,3.661-9.593"/>
	<path fill="#E8AF64" d="M304.095,301.826c0.434,0.69,0.507,1.562,0.496,2.358c-0.027,1.932-1.144,3.363-2.171,4.9
		c-2.164,3.238-5.555,6.117-4.25,10.429c0.278,0.92,0.812,1.951,1.479,2.653c1.665,1.749,3.949,2.464,6.273,1.616
		c0.789-0.288,1.672-0.689,2.351-1.191c2.652-1.964,3.786-4.896,4.18-8.089c0.118-0.96,0.179-1.942,0.164-2.91
		c-0.047-2.986-1.38-6.23-3.114-8.634c-0.475-0.659-1.041-1.281-1.657-1.812c-0.645-0.555-1.451-1.059-2.251-1.356
		c-1.186-0.44-2.792-0.856-3.885,0.04C301.71,299.831,303.286,300.538,304.095,301.826z"/>
	<path fill="#993542" d="M194.588,311.188v6.328c0,3.659,1.518,6.96,3.951,9.323c1.347-0.177,2.596-0.853,3.612-1.921
		c0.668-0.702,1.201-1.733,1.479-2.653c1.305-4.312-2.086-7.19-4.25-10.429c-0.514-0.769-1.05-1.511-1.461-2.302"/>
	<path fill="#E8AF64" d="M196.954,301.812c-0.434,0.69-0.507,1.562-0.496,2.358c0.027,1.932,1.144,3.363,2.171,4.9
		c2.164,3.238,5.555,6.117,4.25,10.429c-0.278,0.92-0.812,1.951-1.479,2.653c-1.665,1.749-3.949,2.464-6.273,1.616
		c-0.789-0.288-1.672-0.689-2.351-1.191c-2.652-1.964-3.786-4.896-4.18-8.089c-0.118-0.96-0.179-1.942-0.164-2.91
		c0.047-2.986,1.38-6.23,3.114-8.634c0.475-0.659,1.041-1.281,1.657-1.812c0.645-0.555,1.451-1.059,2.251-1.356
		c1.186-0.44,2.792-0.856,3.885,0.04C199.339,299.816,197.763,300.523,196.954,301.812z"/>
	<path fill="#FCEECF" d="M212.591,319.615v-15.25h3.147v15.25H212.591z"/>
	<path fill="#FCEECF" d="M222.657,319.615V305.46h2.729v14.155H222.657z"/>
	<path fill="#FCEECF" d="M235.021,319.243c-0.759,0.39-1.597,0.585-2.514,0.585s-1.755-0.195-2.514-0.585s-1.366-0.944-1.821-1.664
		c-0.454-0.72-0.682-1.53-0.682-2.431v-6.423h2.729v6.359c0,0.638,0.219,1.164,0.655,1.579s0.981,0.622,1.633,0.622
		s1.196-0.207,1.633-0.622s0.655-0.941,0.655-1.579v-6.359h2.729v6.423c0,0.9-0.228,1.711-0.683,2.431
		C236.387,318.299,235.78,318.854,235.021,319.243z"/>
	<path fill="#FCEECF" d="M242.648,319.615l-4.05-10.89h3.19l2.578,7.731l2.546-7.731h3.083l-4.05,10.89H242.648z"/>
	<path fill="#FCEECF" d="M253.486,322.253l1.15-2.096c0.564,0.348,1.092,0.521,1.578,0.521c0.322,0,0.596-0.071,0.822-0.213
		c0.225-0.142,0.385-0.322,0.479-0.542l0.064-0.16l-4.115-11.038h3.191l2.578,7.71l2.545-7.71h3.084l-4.029,10.89
		c-0.852,2.325-2.273,3.488-4.264,3.488C255.367,323.104,254.34,322.819,253.486,322.253z"/>
	<path fill="#FCEECF" d="M270.781,319.828c-1.047,0-2.012-0.243-2.896-0.729c-0.883-0.485-1.588-1.165-2.109-2.037
		c-0.523-0.872-0.785-1.836-0.785-2.893c0-1.035,0.26-1.986,0.779-2.855c0.52-0.868,1.223-1.553,2.111-2.052
		c0.887-0.5,1.854-0.75,2.9-0.75c1.045,0,2.012,0.25,2.9,0.75c0.887,0.499,1.59,1.184,2.105,2.052
		c0.516,0.869,0.773,1.82,0.773,2.855c0,0.794-0.154,1.544-0.463,2.25c-0.309,0.705-0.721,1.306-1.24,1.802
		c-0.52,0.497-1.133,0.889-1.842,1.176S271.561,319.828,270.781,319.828z M268.664,316.403c0.574,0.589,1.279,0.883,2.117,0.883
		s1.541-0.292,2.109-0.877c0.57-0.585,0.855-1.331,0.855-2.239c0-0.893-0.291-1.636-0.871-2.228s-1.277-0.888-2.094-0.888
		c-0.832,0-1.535,0.296-2.111,0.888s-0.865,1.335-0.865,2.228C267.805,315.07,268.092,315.815,268.664,316.403z"/>
	<path fill="#FCEECF" d="M285.562,319.243c-0.76,0.39-1.598,0.585-2.514,0.585c-0.918,0-1.756-0.195-2.514-0.585
		c-0.76-0.39-1.367-0.944-1.822-1.664c-0.453-0.72-0.682-1.53-0.682-2.431v-6.423h2.729v6.359c0,0.638,0.219,1.164,0.656,1.579
		c0.436,0.415,0.98,0.622,1.633,0.622c0.65,0,1.195-0.207,1.633-0.622c0.436-0.415,0.654-0.941,0.654-1.579v-6.359h2.729v6.423
		c0,0.9-0.227,1.711-0.682,2.431S286.32,318.854,285.562,319.243z"/>
</g>
</svg>
