<?xml version="1.0" encoding="utf-8"?>
<!-- Generator: Adobe Illustrator 16.0.0, SVG Export Plug-In . SVG Version: 6.00 Build 0)  -->
<!DOCTYPE svg PUBLIC "-//W3C//DTD SVG 1.1//EN" "http://www.w3.org/Graphics/SVG/1.1/DTD/svg11.dtd">
<svg version="1.1" id="content" xmlns="http://www.w3.org/2000/svg" xmlns:xlink="http://www.w3.org/1999/xlink" x="0px" y="0px"
	 width="500px" height="500px" viewBox="0 0 500 500" enable-background="new 0 0 500 500" xml:space="preserve">
<g id="bounds">
	<rect x="0.249" y="1.346" fill="none" stroke="#EAEAEA" stroke-miterlimit="10" width="499.501" height="499.5"/>
</g>
<rect id="position" x="0.5" y="0.5" display="none" fill="none" stroke="#000000" width="499" height="499"/>
<g>
	<path fill="#830038" d="M165.348,223c0.214-0.707,0.434-1.41,0.662-2.104C165.919,221.654,165.718,222.325,165.348,223z"/>
	<path fill="#FAB940" d="M257.605,363.018c-59.352,0-108.518-46.463-111.935-105.771c-1.723-29.924,8.311-58.73,28.253-81.112
		c19.941-22.38,47.404-35.653,77.331-37.376c2.181-0.123,4.386-0.188,6.558-0.188c59.351,0,108.515,46.464,111.933,105.778
		c1.723,29.917-8.312,58.722-28.254,81.103c-19.943,22.383-47.402,35.654-77.334,37.375
		C261.982,362.951,259.777,363.018,257.605,363.018z"/>
	<path fill="#002E61" d="M361.875,244.805c3.312,57.517-40.631,106.845-98.165,110.158c-57.53,3.311-106.86-40.646-110.175-98.172
		c-3.312-57.527,40.648-106.861,98.172-110.167C309.241,143.316,358.558,187.262,361.875,244.805z"/>
	<path fill="#830038" d="M270.715,155.24c36.791,4.973,67.438,30.859,78.738,65.873c-27.82-27.103-63.057-42.983-99.509-41.91
		C251.498,166.987,261.096,159.108,270.715,155.24z"/>
	<path fill="#830038" d="M235.783,156.887c5.292-1.226,10.757-2.02,16.375-2.347c2.348-0.137,4.686-0.181,7.012-0.16
		c-8.062,5.105-15.324,13.649-16.691,25.281c-4.972,0.473-9.952,1.246-14.933,2.363
		C229.492,171.003,232.437,162.225,235.783,156.887z"/>
	<path fill="#830038" d="M200.505,173.162c8.348-6.169,17.746-11.018,27.91-14.259c-2.988,5.866-5.651,14.446-7.52,24.82
		c-5.261,1.501-10.512,3.38-15.733,5.656C205.131,184.644,203.858,179.669,200.505,173.162z"/>
	<path fill="#830038" d="M169.482,211.836c5.881-13.273,14.684-25.036,25.639-34.395c3.274,3.163,3.703,9.451,3.171,15.17
		C188.522,197.549,178.879,203.926,169.482,211.836z"/>
	<path fill="#830038" d="M175.862,301.805c-8.291-13.268-13.457-28.74-14.419-45.459c-0.639-11.149,0.633-21.972,3.552-32.132
		c10.188-9.774,20.904-17.555,31.902-23.472l-0.105,0.402c-3.534,13.483-12.464,24.776-17.594,37.392
		C170.969,258.734,171.213,282.137,175.862,301.805z"/>
	<path fill="#830038" d="M276.211,345.434c-4.23,0.818-8.555,1.361-12.973,1.623c-28.907,1.664-55.572-9.592-74.382-28.74
		c-10.109-19.992-12.068-51.402-5.245-72.371c3.648-11.216,14.304-26.439,17.582-37.812c1.202-4.174,2.308-7.717,3.042-11.045
		c5.126-2.349,10.292-4.3,15.494-5.881C213.825,236.051,222.501,306.746,276.211,345.434z"/>
	<path fill="#830038" d="M332.801,311.258c-12.244,15.209-29.059,26.68-48.507,32.232c-53.792-39.463-63.358-110.283-57.864-154.096
		c5.307-1.278,10.636-2.166,15.948-2.674c1.133,13.16,9.513,29.515,30.679,48.684C296.229,257.447,324.799,286.568,332.801,311.258z
		"/>
	<path fill="#830038" d="M353.955,245.258c1.242,21.503-4.677,41.779-15.671,58.494c-8.335-23.982-35.384-50.475-58.161-72.126
		c-20.4-18.49-28.762-33.55-30.163-45.375c38.474-1.136,75.92,17.138,103.052,49.958
		C353.463,239.184,353.779,242.205,353.955,245.258z"/>
	<path fill="#FAB940" d="M108.081,363.623c-15.829,0-28.613-6.734-35.077-18.479c-8.491-15.422-5.39-37.047,8.673-61.314
		l-23.672,3.746l10.766-13.123c5.361-6.543,12.206-13.324,19.981-19.814l-4.358-1.139c-24.108-6.222-46.889-12.1-64.127-27.492
		l-3.966-3.543l5.181-1.186c5.792-1.318,11.731-1.966,18.162-1.966c16.706,0,34.28,4.528,51.271,8.905l26.202,6.601
		c27.217-15.854,55.998-24.588,81.154-24.588c13.425,0,25.957,2.422,37.251,7.198l160.489-39.467l-6.598,19.834
		c13.502-3.252,51.285-12.339,51.285-12.339l-18.646,46.488c4.336,20.21-0.09,35.505-13.518,46.685
		c-0.856,10.465-13.725,16.398-24.115,21.18c-1.295,0.598-2.562,1.182-3.744,1.742l33.021,8.875
		c5.362-1.715,10.301-2.084,13.557-2.084c5.669,0,6.788,0.602,7.259,2.412c1.016,4.906-2.213,17.732-8.688,25.676
		c-3.922,4.811-8.638,7.361-13.621,7.361l0,0c-1.244,0-2.519-0.164-3.783-0.473l-1.35-0.326l-0.246-0.6
		c-8.065,6.129-16.905,9.348-25.781,9.348c-6.809,0-13.462-1.846-19.829-5.494c-0.005,2.449,0.103,4.672,0.323,7.309l0.299,3.494
		l-3.469-0.555c-1.205-0.186-2.039-0.355-2.91-0.529l-0.961-0.189c-21.685-3.492-33.121-17.668-32.262-39.951l-35.218-9.225
		c-11.718,2.449-33.588,8.926-52.92,25.229l-8.093,6.207v-5.555c0-0.59,0.067-12.301,5.17-22.887l-51.969,13.623
		C158.654,348.533,132.117,363.623,108.081,363.623z"/>
	<path fill="#002E61" d="M429.012,194.871c-0.104,0.112-34.696,8.443-49.443,11.968l6.575-19.801l-151.181,37.524
		c-34.716-15.786-77.606-4.831-112.122,14.543l67.05,16.889c-0.287,0.885-0.617,1.762-0.983,2.477L87.091,232.858
		c-20.681-5.328-39.349-10.395-57.164-6.882c13.898,11.694,32.698,16.229,53.379,21.559l75.997,19.973
		c-1.387,0.594-2.685,1.199-3.795,1.783l-56.239-14.744c-10.23,7.795-18.952,16.045-25.484,24.006l20.089-2.615
		c-57.448,92.02,35.47,103.705,79.461,41.795l72.975-18.307c-6.686,6.562-10.643,16.062-12.698,24.391
		c21.611-18.664,49.799-24.459,66.701-25.674c10.248-0.748,21.588-1.881,30.378-2.855l2.479-3.131
		c8.01-10.979,19.636-16.328,31.953-17.537c9.583-0.934,12.952,0.471,16.984,1.203c1.881,0.49,8.561,2.266,15.398,2.576
		c17.688-10.326,22.926-25.266,17.775-46.943L429.012,194.871z M173.674,262.957l-75.553-19.728
		c-21.56-5.963-27.164-10.76-28.572-12.02l43.899,11.334l71.294,18.333C181.506,261.635,176.64,262.443,173.674,262.957z"/>
	<path fill="#FFFFFF" d="M204.648,262.449l6.189,3.768c-3.201,9.119-17.088,28.447-25.04,34.289l13.91-36.969l-10.668,2.824
		l-17.467,44.494l22.383-5.75c0.497-0.145,20.123-15.717,31.356-47.92L204.648,262.449z"/>
	<path fill="#FFFFFF" d="M139.617,301.514c-0.114,0.016-8.164,16.58-9.801,19.984l11.076-2.9l7.49-15.514l8.953-2.637l-6.176,15.572
		l11.78-3.029l18.138-44.938C174.987,270.129,153.469,270.5,139.617,301.514z M160.303,294.283l-8.746,2.52
		c0,0,7.314-14.314,14.868-16.566L160.303,294.283z"/>
	<path fill="#FFFFFF" d="M363.709,245.637c-0.605-0.879-1.088-2.701-1.081-2.754c0.368-0.168,0.745-0.357,1.126-0.573
		c7.201-4.104,15.121-16.354,14.799-24.705c-10.123,2.709-27.096,7.116-27.184,7.233l-16.215,44.548l10.536-2.705l6.966-19.157
		c0.793,1.79,5.439,12.815,14.484,13.733c10.453,1.059,16.574-9.279,16.574-9.279C380.96,254.34,368.492,255.227,363.709,245.637z
		 M355.184,241.387l5.135-14.243l8.009-2.14C367.18,228.066,365.039,236.305,355.184,241.387z"/>
	<path fill="#FFFFFF" d="M219.628,281.236c-0.114,0.012-8.046,16.299-9.687,19.688l11.196-2.867l7.257-15.258l8.954-2.633
		l-6.12,15.377l11.689-2.953l18.162-44.712C255.729,249.417,233.476,250.217,219.628,281.236z M240.317,274.002l-8.751,2.523
		c0,0,7.316-14.312,14.864-16.568L240.317,274.002z"/>
	<polygon fill="#FFFFFF" points="301.465,237.163 284.001,281.939 295.107,279.145 312.507,234.37 	"/>
	<path fill="#FFFFFF" d="M313.342,269.223l5.572-13.051l15.27-8.258l-12.26,0.906l5.348-14.242
		c6.692-2.104,10.064-0.057,12.914,4.156l5.068-12.539l-26.892,6.854l-17.271,44.705l27.386-7.131l5.886-13.848
		C328.275,263.453,321.49,267.846,313.342,269.223z"/>
	<path fill="#FFFFFF" d="M264.126,281.795l14.578-38.762l-11.649,2.951l-17.208,44.817l29.543-7.607l6.52-15.896
		C278.043,276.572,273.922,280.18,264.126,281.795z"/>
	<path fill="#FFFFFF" d="M414.668,210.639l-4.402,11.228c-3.61-5.766-15.311-7.116-16.857-0.151
		c-1.158,5.228,7.114,7.123,11.936,16.229c6.57,12.418-0.298,24.965-12.205,31.083c-4.624,2.375-9.387,4.393-14.271,6.117
		c-3.962,1.051-8.127,2.188-13.299,3.621c-4.732,1.312-6.17,2.154-24.258,5.029c-30.742,4.631-63.203,6.105-90.295,18.82
		c11.773-12.078,42.857-18.98,77.16-24.27c37.758-5.635,78.191-15.047,63.866-36.568c-2.7-2.562-4.167-3.24-6.319-6.139
		c-9.333-12.529,6.652-26.877,24.577-25.692C411.522,210.031,414.771,210.529,414.668,210.639z"/>
	<path fill="#FFFFFF" d="M234.358,236.641c-0.123-0.557-34.302,19.642-37.794,22.269c21.814-42.654-36.348-16.783-58.573,6.408
		c-64.865,67.688-22.196,79.02,25.031,52.984c0.976-0.486-6.666,6.621-6.666,6.621c-52.493,51.541-109.744,12.711-39.831-61.346
		c-7.938,2.234-24.307,6.002-24.329,5.549C149.141,223.167,211.635,214.402,234.358,236.641z"/>
	<path fill="#FFFFFF" d="M287.322,219.535l3.188-0.711l0.284,8.162l6.392-9.717l4.34-1.169l-12.564,16.859L287.322,219.535z
		 M370.25,200.111l-0.48-0.063l-2.562,0.59l-4.695,11.955l2.023-0.494c0.1-0.025,0.397-0.135,1.031-0.411l0.73-0.376l4.426-11.062
		C370.57,200.185,370.443,200.143,370.25,200.111z M364.295,213.691l-6.455,1.584l6.004-15.304l6.459-1.613
		c1.088-0.257,2.124-0.286,3.104-0.145c0.979,0.123,1.586,0.369,1.398,0.853l-4.426,11.278c-0.189,0.498-1.141,1.152-2.459,1.85
		C366.612,212.904,365.387,213.432,364.295,213.691z M246.607,243.172c-0.986,0.246-2.039,0.344-3.139,0.344
		c-1.406,0-2.199-0.272-1.94-0.928l4.542-11.58c0.192-0.479,1.151-1.112,2.437-1.789c1.323-0.687,2.546-1.209,3.626-1.476
		l6.402-1.563l-1.08,2.73l-3.908,0.956l0.465-1.048l-1.089,0.24c-1.071,0.267-1.825,0.503-2.345,0.727
		c-0.436,0.182-0.564,0.299-0.612,0.415l-4.381,11.279c-0.004,0.014-0.02,0.127,0.696,0.1c0.543-0.021,0.875-0.065,1.036-0.106
		c0.528-0.122,1.007-0.317,1.513-0.615c0.539-0.326,0.789-0.587,0.875-0.798l-0.246-0.521l4.287-1.052l-0.493,1.256
		c-0.235,0.611-1.358,1.32-2.941,2.047C248.947,242.426,247.708,242.907,246.607,243.172z M263.111,225.348l3.947-0.969
		l-5.334,13.604l6.498-1.596l-0.664,1.683l-10.441,2.571L263.111,225.348z M276.624,221.918l8.993-2.199l-0.643,1.642l-5.053,1.233
		l-1.793,4.608l5.031-1.231l-0.645,1.682l-5.06,1.229l-2.229,5.676l5.049-1.229l-0.672,1.679l-8.985,2.203L276.624,221.918z
		 M304.781,214.965l8.992-2.203l-0.643,1.646l-5.043,1.235l-1.812,4.604l5.051-1.232l-0.66,1.683l-5.042,1.231l-2.227,5.668
		l5.044-1.235l-0.66,1.688l-8.994,2.203L304.781,214.965z M317.492,211.685l3.949-0.972l-5.333,13.6l6.479-1.584l-0.646,1.681
		l-10.451,2.562L317.492,211.685z M335.201,215.706l-3.721,0.911l-2.26,5.769l-4.058,0.985l5.305-13.387
		c0.257-0.653,1.327-1.386,2.917-2.144c1.323-0.631,2.601-1.106,3.83-1.414c1.184-0.291,2.316-0.381,3.413-0.322
		c1.155,0.059,1.794,0.322,1.558,0.904l-5.291,13.494l-3.941,0.965L335.201,215.706z M338.102,208.119
		c-0.078-0.03-0.232-0.053-0.523-0.059c-0.555-0.021-0.935,0.045-1.059,0.077c-0.215,0.045-0.668,0.213-1.396,0.539
		c-0.331,0.16-0.515,0.264-0.626,0.33l-2.41,5.933l3.727-0.912l2.355-5.876L338.102,208.119z M350.979,212.736l-1.575-5.993
		l-3.961,11.83l-3.951,0.973l5.998-15.291l4.002-0.976l1.295,5.294l2.443-6.205l3.947-0.965l-6.007,15.279l-4.009,0.979
		L350.979,212.736z"/>
	<path fill="#002E61" d="M429.234,314.791c-8.875-1.588-14.746,2.098-14.938,2.092c-0.14-0.01-30.848-8.268-42.149-11.32
		l-5.945-1.605c3.822-5.178,11.204-7.41,18.612-10.691c3.199-1.432,7.604-3.098,10.893-5.412c5.938-4.162,6.793-6.895,6.82-6.895
		c-10.825,0.355-21.037-2.574-22.838-2.947c-4.746-0.986-9.506-1.18-14.096-0.672c-0.154,0.014-0.313,0.031-0.465,0.055
		c-12.31,1.469-23.367,7.986-29.93,17.588c0,0-0.809,1.057-1.078,1.354c-0.865,0.961-2.085,2.42-2.085,2.42l3.608,0.934
		c2.48,0.424,1.084,5.85-2.226,4.984l-15.84-4.145c-6.181,0.514-12.636,1.027-17.003,1.344c-2.254,0.168-4.744,0.432-7.406,0.836
		l35.112,9.23c-2.516,22.908,9.778,37.006,27.146,38.416c-0.046-2.338-0.093-7.254,0.026-16.023c0,0,24.971,26.795,53.608-2.018
		c0.217-0.186,2.422,5.434,2.422,5.434C424.1,339.223,429.66,314.842,429.234,314.791z"/>
	<path fill="#FAB940" d="M377.543,282.367c-14.611-2.576-27.972,2.016-37.601,15.689c1.86,1.186,3.06,3.982,2.856,7.176
		c-0.254,3.938-2.554,7.02-5.218,7.109c0.011,0.074,0.026,0.152,0.044,0.236c0,0.006-0.012,0-0.012,0.006
		c0.311,5.939,2.379,11.652,5.316,14.682c1.138-10.232,6.6-24.189,22.004-32.809c-15.338,13.357-18.354,32.58-17.262,45.701
		c-7.16-1.438-13.143-13.514-15.252-19.863c1.615,10.879,8.391,23.846,18.791,24.572c-2.131-20.896,5.972-42.541,19.662-49.766
		c5.618-3.002,13.531-4.938,22.223-10.539C383.779,283.803,380.841,282.947,377.543,282.367z"/>
	<path fill="#FAB940" d="M356.918,324.881c6.391,14.025,24.996,17.344,36.229,14.963c-5.012,4.359-29.471,3.432-36.81-10.908
		L356.918,324.881z"/>
	<path fill="#FAB940" d="M363.786,307.006l48.28,12.496c1.566,0.4,0.91,4.82-1.15,4.285l-49.65-12.623
		C361.544,309.973,363.351,307.295,363.786,307.006z"/>
	<path fill="#FAB940" d="M404.959,328.365c-17.438,17.199-44.795,5.377-44.635-8.57
		C360.671,319.789,378.141,332.637,404.959,328.365z"/>
	<path fill="#FFFFFF" d="M372.527,283.391c-14.198-0.617-25.009,7.869-31.162,15.809c-0.035,0.051-0.062,0.084-0.102,0.125
		c0.777,1.035,1.305,2.428,1.484,3.998c0.053-0.053,0.107-0.104,0.166-0.17C348.92,294.906,358.426,285.852,372.527,283.391z"/>
</g>
</svg>
