<?xml version="1.0" encoding="utf-8"?>
<!-- Generator: Adobe Illustrator 16.0.0, SVG Export Plug-In . SVG Version: 6.00 Build 0)  -->
<!DOCTYPE svg PUBLIC "-//W3C//DTD SVG 1.1//EN" "http://www.w3.org/Graphics/SVG/1.1/DTD/svg11.dtd">
<svg version="1.1" id="content" xmlns="http://www.w3.org/2000/svg" xmlns:xlink="http://www.w3.org/1999/xlink" x="0px" y="0px"
	 width="500px" height="500px" viewBox="0 0 500 500" enable-background="new 0 0 500 500" xml:space="preserve">
<path fill="#EFEFEF" d="M383.435,224.734c-39.024-0.343-52.441-26.755-55.971-49.245h-9.04c0,0.221-0.002,0.441,0.032,0.666
	c5.52,36.879,29.195,57.295,64.979,57.581V224.734z"/>
<path fill="#EFEFEF" d="M172.536,175.489c-3.552,22.637-16.154,49.261-55.786,49.261c-0.046,0-0.088,0.012-0.133,0.014v8.973
	c0.045,0.001,0.087,0.014,0.133,0.014c36.224,0,59.235-20.454,64.794-57.595c0.034-0.225,0.032-0.445,0.032-0.666L172.536,175.489
	L172.536,175.489z"/>
<rect id="position" x="0.5" y="0.5" display="none" fill="none" stroke="#000000" width="499" height="499"/>
<g>
	<path fill="#DC3A42" d="M250.026,470.08h133.409V229.25c-0.045,0-0.087,0-0.133,0c-43.836,0-56.837-30.211-60.344-53.641h-30.541
		c-3.278,8.179-22.015,21.341-32.974,26.854c-5.11,3.635-9.418,6.536-9.418,6.536s-4.308-2.901-9.419-6.536
		c-10.959-5.514-29.693-18.676-32.972-26.854h-30.542c-3.507,23.43-16.508,53.641-60.344,53.641c-0.046,0-0.088,0-0.133,0v240.83
		H250.026L250.026,470.08z"/>
	<g>
		<path opacity="0.2" fill="#212121" enable-background="new    " d="M305.061,209.412c-1.539,0-2.791-1.252-2.791-2.792v-14.099
			c0-1.54,1.252-2.792,2.791-2.792h4.185c1.539,0,2.792,1.252,2.792,2.793v14.098c0,1.54-1.253,2.792-2.792,2.792H305.061z"/>
		<path fill="#FFFFFF" d="M305.188,207.513c-1.442,0-2.621-1.176-2.621-2.623v-13.239c0-1.446,1.179-2.623,2.621-2.623h3.931
			c1.442,0,2.621,1.176,2.621,2.623v13.239c0,1.446-1.179,2.623-2.621,2.623H305.188z"/>
		<path fill="#C00033" d="M307.151,206.213h1.964c0.729,0,1.318-0.592,1.318-1.323v-13.239c0-0.73-0.592-1.323-1.318-1.323h-1.964"
			/>
		<path fill="#006CB3" d="M309.332,206.213c0,0-0.036-0.939-0.431-3.272l-1.75-1.812v-10.8h-1.964c-0.729,0-1.321,0.592-1.321,1.323
			v13.239c0,0.731,0.592,1.323,1.321,1.323h1.964L309.332,206.213L309.332,206.213z"/>
		<path opacity="0.2" fill="#212121" enable-background="new    " d="M309.679,198.18c-0.05-0.058,0.049-0.09-0.289-0.167
			c-0.062-0.035-0.109-0.529-0.109-0.529c-0.053-0.317-0.163-0.536-0.332-0.872c-0.085-0.173-0.125-0.71-0.216-0.984
			c0.051-1.255-0.354-1.62-0.679-1.824c-0.123-0.079-0.185-0.137-0.307-0.208l-0.004-0.058c-0.095-0.09-0.286-0.187-0.443-0.257
			c-0.049-0.049-0.022-0.156,0.008-0.196c0.106-0.016,0.248-0.254,0.365-0.5c0.092,0.005,0.122-0.084,0.151-0.135
			c0.099-0.157,0.204-0.294,0.064-0.384c0.312-0.552,0.111-0.924-0.057-0.938c-0.067-0.139-0.186-0.225-0.392-0.298l-0.426-0.001
			c-0.438,0.168-0.501,0.36-0.518,0.969c-0.074,0.008-0.231-0.062-0.178,0.309c0,0,0.026,0.247,0.128,0.204
			c-0.098,0.652,0.017,0.703-0.661,0.732l-0.032,0.048c-0.675,0.065-0.889-0.02-1.456,1.138c0,0-0.147,0.358-0.19,0.507
			c-0.059,0.122-0.148,0.309-0.246,0.51v1.598c0.084,0.004,0.188,0.005,0.332,0.001v0.174c0,0-0.203,0.175-0.243,0.282
			c-0.021,0.048-0.058,0.188-0.089,0.344v0.883c0.144,0.506,0.506,0.968,0.636,1.498l0.353,0.049
			c0.198,0.45,1.062,1.672,1.235,1.833c0.041,0.113,0.26,0.253,0.388,0.393c0.105,0.1,0.729,0.782,1.459,1.201
			c-0.004,0,0.118,0.244,0.181,0.44c-0.243,0.195,0.225,0.552,0.366,1.142c0.012,0.077-0.136,0.159,0.08,0.352
			c-0.005,0.309-0.041,0.563-0.063,0.779h0.62h0.117c-0.048-0.228-0.141-0.452-0.188-0.624c-0.008-0.022,0.01-0.052,0.021-0.071
			c0.029-0.056-0.031-0.182-0.031-0.182c-0.069-0.063-0.09-0.398-0.129-0.548c-0.062-0.254,0.108-0.689,0.108-0.838
			c0-0.146-0.108-0.349-0.313-0.609c-0.05-0.056-0.195-1.323-0.327-1.644c-0.188-0.442-0.242-0.373-0.455-0.898
			c-0.171-0.373-0.039-0.92-0.419-2.192c0.004,0.005,0.086-0.08,0.086-0.08s-0.302-1.102-0.4-1.404
			c-0.1-0.301-0.271-0.323-0.271-0.323s0.001-0.123,0.008-0.155c0.015-0.049,0.368-0.969,0.397-0.998c0-0.022,0.51-0.366,0.52-0.317
			c0.042,0.226,0.24,1.37,0.323,1.553c0.087,0.185,0.38,0.746,0.519,1.094c-0.526,0.127-0.92,0.603-0.92,1.17
			c0,0.663,0.537,1.202,1.204,1.202c0.507,0,0.943-0.314,1.118-0.758l0.001-0.884c-0.038-0.097-0.089-0.192-0.155-0.282
			C309.926,198.244,309.731,198.248,309.679,198.18z"/>
		<g>
			<path fill="#FFFFFF" d="M309.186,206.296c-0.235-0.14-0.225-0.344-0.167-0.816c0.024-0.201,0.056-0.436,0.061-0.71
				c-0.145-0.164-0.124-0.205-0.104-0.257l0.011-0.02l0.014-0.086c-0.065-0.271-0.19-0.488-0.29-0.662
				c-0.141-0.246-0.188-0.345-0.108-0.408c-0.019-0.233-0.098-0.407-0.135-0.489c-0.677-0.44-1.222-0.994-1.427-1.202
				c-0.117-0.122-0.184-0.178-0.244-0.231c-0.082-0.071-0.175-0.151-0.193-0.201c-0.18-0.177-1.041-1.395-1.237-1.839l-0.412-0.096
				c-0.004-0.226-0.144-0.491-0.276-0.748c-0.18-0.342-0.35-0.666-0.355-1.021c-0.006-0.228,0.107-0.748,0.148-0.847
				c0.023-0.062,0.146-0.185,0.225-0.251l0.027-0.235v-0.083l-0.285,0.006c-0.313,0-0.317-0.02-0.34-0.118
				c-0.01-0.048-0.021-0.114-0.058-0.191c-0.06-0.128-0.044-0.167-0.019-0.246c0.11-0.441,0.359-0.945,0.523-1.278l0.081-0.165
				c0.047-0.158,0.19-0.511,0.19-0.511c0.498-1.015,0.695-1.031,1.229-1.075l0.2-0.018l0.054-0.079c0.032,0,0.062,0,0.091,0
				c0.461,0,0.502-0.079,0.555-0.516l0.052-0.391l-0.131,0.057c0.012-0.011-0.013-0.081-0.021-0.141
				c-0.021-0.172,0.004-0.21,0.007-0.214l0.17-0.013l0.003-0.07c0.019-0.617,0.089-0.751,0.468-0.896l0.395,0.006
				c0.163,0.062,0.266,0.137,0.319,0.253c0.089,0.046,0.129,0.071,0.162,0.134c0.069,0.135,0.083,0.398-0.104,0.73l-0.037,0.065
				l0.062,0.041c0.047,0.031,0.044,0.063-0.065,0.234l-0.102,0.139c-0.288,0.481-0.384,0.5-0.385,0.5
				c-0.106,0.096-0.139,0.248-0.056,0.331c0.229,0.107,0.376,0.193,0.445,0.259c0.086,0.107,0.134,0.143,0.185,0.179l0.141,0.095
				c0.343,0.215,0.686,0.592,0.639,1.753c0.046,0.155,0.076,0.338,0.106,0.515c0.034,0.218,0.064,0.406,0.114,0.507
				c0.177,0.344,0.278,0.553,0.325,0.849c0.054,0.532,0.12,0.569,0.152,0.587c0.198,0.048,0.229,0.072,0.23,0.076
				c0.062,0.108,0.105,0.128,0.149,0.147c0.08,0.036,0.112,0.056,0.112,0.119c0.075,0.127,0.124,0.216,0.161,0.311l-0.01,0.855
				c-0.158,0.394-0.579,0.678-1.036,0.678c-0.619,0-1.123-0.503-1.123-1.122c0-0.522,0.353-0.971,0.855-1.093l0.09-0.021
				l-0.033-0.086c-0.102-0.253-0.281-0.619-0.407-0.873l-0.111-0.226c-0.067-0.148-0.229-1.054-0.292-1.395l-0.037-0.205
				l-0.074-0.005c-0.021,0-0.066,0-0.322,0.167c-0.27,0.174-0.27,0.195-0.27,0.236l0,0c-0.031,0-0.392,0.966-0.395,0.975
				c-0.012,0.042-0.014,0.177-0.014,0.177l-0.001,0.072l0.071,0.008c0.003,0,0.126,0.026,0.206,0.268
				c0.099,0.301,0.399,1.4,0.399,1.4h-0.107l0.021,0.082c0.219,0.729,0.267,1.217,0.301,1.573c0.023,0.267,0.045,0.46,0.123,0.629
				c0.11,0.282,0.185,0.396,0.254,0.507c0.058,0.094,0.114,0.187,0.199,0.389c0.071,0.18,0.155,0.705,0.22,1.088
				c0.075,0.472,0.091,0.542,0.121,0.578c0.194,0.249,0.297,0.437,0.297,0.557c0,0.042-0.021,0.13-0.044,0.223
				c-0.049,0.201-0.11,0.45-0.065,0.634c0.017,0.05,0.024,0.12,0.035,0.193c0.032,0.208,0.056,0.338,0.118,0.395
				c0.003,0.018,0.019,0.072,0.015,0.089l-0.017,0.031l-0.007,0.1c0.017,0.058,0.04,0.127,0.062,0.201
				c0.134,0.385,0.297,0.862-0.13,1.132L309.186,206.296z"/>
		</g>
	</g>
	<g>
		<path fill="#FFFFFF" d="M198.301,267.998c0,0-0.958-0.189-1.148-0.768c-0.192-0.578,0.103-1.418,0.103-1.418l16.354-19.528
			c0,0,0.511-0.791,1.574-1.307c1.25-0.606,2.5-0.58,2.5-0.58h24.362c11.897-11.32,29.163-10.555,29.163-10.555
			c25.132,0,45.28,20.727,45.28,45.282c0,24.56-19.28,45.374-45.378,45.374c-24.17,0-34.818-16.211-34.818-16.211h-10.936
			c0,0-7.284,8.564-15.921,7.479c-9.211-1.146-19.763-6.33-18.42-24.361C192.358,273.371,203.678,268,203.678,268L198.301,267.998
			L198.301,267.998z"/>
		<path fill="#E91A4F" d="M238.979,303.35c7.347,10.084,19.059,16.205,32.498,16.205l0,0c22.332,0,40.261-17.91,40.433-40.354
			c-0.099-9.216-2.972-15.171-2.972-15.171c-6.035-14.756-20.521-25.587-38.451-25.316c-10.231,0.27-19.209,3.993-26.379,10.593
			l-23.375,0.006c0,0-0.542-0.028-1.057,0.574c-0.48,0.763,0.177,0.896,0.177,0.896h0.348l22.378-0.009
			c-0.935,0.955-1.851,1.957-2.69,3.004l-23.721,0.007c0,0-0.497-0.009-1.012,0.644c-0.54,0.771,0.147,0.953,0.147,0.953
			l23.362-0.001c-0.806,1.054-2.104,3.188-2.104,3.188h-24.164c0,0-0.673,0.002-1.064,0.572c-0.331,0.59,0.117,0.812,0.117,0.812
			h24.33c0,0-0.967,1.819-1.577,3.271l-25.337,0.01c0,0-1.712,0.099-1.712,1.259c0,0.396,0.442,0.386,0.442,0.386l99.583-0.02
			c2.921,6.468,2.742,14.562,2.742,14.562c-0.103,4.35-0.754,8.855-2.445,13.023c-1.206,3.287-2.469,6.431-4.395,8.877
			l-92.233,0.006c0,0-0.28,0.049-0.435,0.443c-0.145,0.541,0.104,0.82,0.242,0.996c0.377,0.454,0.871,0.444,0.871,0.444
			l27.326,0.005L238.979,303.35z M307.219,264.826L307.219,264.826v0.002l0,0l0,0"/>
		<path fill="#FFFFFF" d="M280.596,246.651c-0.873-2.594-5.688-4.901-8.431-5.951c-8.495-0.145-16.681,2.497-23.5,7.578
			c1.268-0.361,2.604-0.699,4.011-0.978c7.063-1.407,16.893-1.625,27.28,3.476C280.77,249.266,280.99,247.823,280.596,246.651"/>
		<path fill="#FFFFFF" d="M257.788,263.256c3.593-1.523,7.044-2.797,9.896-3.849l1.436-0.53c4.65-1.727,7.977-4.186,9.855-6.611
			c-13.466-6.5-26.218-3.833-34.059-0.811c-3.533,3.4-6.339,7.387-8.318,11.766L257.788,263.256z"/>
		<path fill="#FFFFFF" d="M288.541,256.229c2.327-3.582,4.085-6.451,5.211-8.455c-4.87-3.471-10.49-5.755-16.498-6.649
			c2.189,1.252,4.335,2.941,5.016,4.96c0.59,1.745,0.299,3.647-0.705,5.521C283.879,252.857,286.215,254.386,288.541,256.229"/>
		<path fill="#FFFFFF" d="M289.938,257.355c2.198,1.816,4.192,3.635,5.998,5.445c1.575-2.07,3.426-3.154,5.517-3.23
			c1.271-0.041,2.491,0.305,3.61,0.843c-1.196-2.144-2.609-4.187-4.23-6.108c-1.721-2.024-3.604-3.854-5.646-5.456
			C294,250.943,292.234,253.824,289.938,257.355"/>
		<path fill="#FFFFFF" d="M287.575,257.709c-2.326-1.848-4.652-3.371-6.964-4.607c-2.166,2.9-5.994,5.619-10.885,7.436l-1.436,0.525
			c-1.704,0.629-3.628,1.338-5.667,2.137l21.271-0.008L287.575,257.709z"/>
		<path fill="#FFFFFF" d="M293.83,263.229c-1.471-1.438-3.089-2.912-4.865-4.389c-0.906,1.377-1.884,2.842-2.93,4.385
			L293.83,263.229z"/>
		<path fill="#FFFFFF" d="M301.503,261.332c1.706-0.059,3.442,0.854,4.8,1.896l-8.398-0.006
			C299.01,262.018,300.193,261.379,301.503,261.332"/>
		<path fill="#FFFFFF" d="M253.957,303.229c-1.75,2.16-3.543,4.348-5.377,6.549c-2.295-1.727-4.419-3.725-6.321-5.971
			c-0.167-0.199-0.333-0.396-0.496-0.6L253.957,303.229z"/>
		<path fill="#FFFFFF" d="M277.852,316.167c-0.014,0.009-0.69,0.403-1.644,0.961c-2.585,0.312-5.22,0.358-7.869,0.138
			c-6.666-0.558-12.929-2.793-18.313-6.455c2.131-2.562,4.208-5.102,6.229-7.604l31.567-0.004
			C285.952,308.312,282.913,313.545,277.852,316.167"/>
		<path fill="#FFFFFF" d="M301.581,303.199c-1.606,1.865-3.433,3.586-5.276,5.145c-4.498,3.803-9.693,6.459-15.236,7.872
			c4.308-3.217,6.955-8.233,8.631-13.018L301.581,303.199z"/>
		<path fill="#006CB3" d="M233.248,266.727h-0.01h-0.008l-0.002-0.004c-0.388-0.02-6.389-0.02-10.505-0.02
			c-1.05,0-4.346,0.117-5.205,0.256c-15.422,2.477-22.104,17.094-22.023,26.021c0.103,11.348,8.613,18,15.804,18.254
			c7.896,0.637,13.827-7.828,13.944-7.992h-3.584c-0.066,0.087-3.818,4.683-8.31,4.681c-3.315-0.002-6.188-2.303-7.69-6.28
			c-0.684-1.824-1.006-3.974-1.006-6.287c-0.003-6.627,2.512-14.312,6.564-20.059c4.616-6.542,10.413-5.938,10.413-5.938
			c3.996,0.113,7.535,2.224,8.687,7.31c0.318,1.407,1.015,0.871,1.077,0.399c0.128-0.387,2.112-8.534,2.247-8.981
			C233.701,267.869,234.036,266.807,233.248,266.727z"/>
		<path fill="#006CB3" d="M210.338,293.951c-0.29,0.959-1.171,2.617-1.931,2.982c-0.555,0.267-0.612,0.459-0.025,0.461h11.575
			c0.276,0.008,0.303,0.027,0.444-0.305c0.642-1.521,1.292-4.285,1.383-4.625c0.189-0.695,0.017-1.017-0.393-0.271
			c-2.252,4.076-4.544,4.15-5.997,4.162c-0.825,0.002-1.017-0.473-0.83-1.205c0.187-0.729,3.197-12.008,3.501-12.922
			c0.323-0.979,1.388-2.428,1.988-2.701c0.526-0.242,1.107-0.534-0.022-0.538l-7.741,0.012c-0.304,0.05-0.494,0.076-0.233,0.269
			c0.541,0.388,1.945,0.732,1.405,2.836L210.338,293.951z"/>
		<path fill="#006CB3" d="M230.649,282.16c0.377-1.139,0.609-2.068,1.378-2.557c1.094-0.692,0.616-0.613-0.031-0.611l-6.547,0.014
			c-0.385-0.014-0.514,0.186-0.269,0.361c0.534,0.385,1.307,0.917,0.865,2.599l-3.395,12.595c-0.23,0.621-0.646,1.742-1.076,2.068
			c-0.911,0.688-0.62,0.792-0.088,0.768h6.33c0.766-0.041,0.463-0.334,0.19-0.563c-0.479-0.401-0.837-1.538-0.555-2.647
			C227.639,293.448,230.319,283.159,230.649,282.16"/>
		<path fill="#006CB3" d="M262.221,279.217c0.715,0.566,1.992,0.596,1.396,2.926l-2.987,11.703c-0.146,0.91-1.187,2.654-2.006,2.979
			c-0.655,0.256-0.763,0.472-0.043,0.475h12.681c0.742,0,0.954,0.005,1.109-0.403c0.27-0.692,1.166-3.871,1.302-4.361
			c0.188-0.697,0.211-1.062-0.411-0.215c-2.926,4-3.437,4.396-7.664,4.384c-1.009,0-1.021-0.845-0.884-1.394
			c0.095-0.369,0.911-3.47,1.748-6.571c0.237-0.884,0.858-0.869,1.247-0.869c0.674,0,2.27,0.968,2.248,3.494
			c-0.01,0.913,0.275,0.532,0.472-0.248l1.665-6.622c0.264-1.027-0.17-0.505-0.728,0.189c-0.784,0.979-1.833,1.978-3.603,1.961
			c-0.535,0-0.619-0.424-0.457-1.062c0.442-1.781,0.875-3.581,1.221-4.622c0.358-1.094,0.434-1.098,1.438-1.092
			c1.646,0.014,4.28-0.387,4.271,3.349c-0.004,0.964,0.17,1.009,0.438-0.024c0.312-1.172,0.79-3.234,0.938-3.824
			c0.117-0.467-0.141-0.346-0.758-0.346h-12.162C262.355,279.035,261.982,279.029,262.221,279.217"/>
		<path fill="#006CB3" d="M238.833,287.104c0.395-1.47,1.656-6.194,1.656-6.194c0.268-0.954,0.876-1.232,1.456-1.214
			c0.874,0.033,1.505,0.443,1.787,1.486c0.226,0.844-0.055,5.312-2.793,6.473C239.583,288.229,238.577,288.057,238.833,287.104
			 M232.649,293.564c-0.129,0.811-0.807,2.629-1.631,3.203c-0.702,0.496-0.378,0.625,0.257,0.627h6.761
			c0.387,0.025,0.93,0.021-0.182-0.646c-1.11-0.66-0.884-2.255-0.653-3.255c0.227-0.999,0.456-1.856,1.033-3.743
			c0.277-0.923,0.384-0.956,1.613-0.836c1.538,0.146,3.18-0.105,5.043-1.104c1.786-0.945,3.394-2.963,3.439-4.777
			c0.077-3.174-1.884-4.045-4.519-4.057c0,0-0.614-0.017-1.864,0h-6.949c-0.62,0-0.704,0.027-0.468,0.2
			c0.526,0.378,1.579,0.988,1.14,2.771L232.649,293.564z"/>
		<path fill="#006CB3" d="M252.927,287.174c0.392-1.466,1.657-6.199,1.657-6.199c0.264-0.953,0.876-1.23,1.451-1.211
			c0.876,0.035,1.511,0.446,1.79,1.49c0.225,0.839-0.054,5.309-2.791,6.469C253.676,288.298,252.668,288.124,252.927,287.174
			 M248.624,279.182c0.527,0.377,1.577,0.988,1.14,2.771l-3.02,11.611c-0.132,0.812-0.786,2.69-1.629,3.236
			c-1.038,0.68-0.378,0.592,0.255,0.594h6.757c0.368,0,0.755-0.021-0.179-0.569c-1.115-0.656-0.886-2.328-0.655-3.328
			c0.23-0.999,0.457-1.856,1.032-3.743c0.278-0.923,0.387-0.956,1.612-0.836c1.545,0.146,3.182-0.105,5.049-1.104
			c1.781-0.946,3.392-2.963,3.436-4.778c0.061-2.461-1.6-4.046-4.252-4.058c0,0-0.879-0.016-2.128,0h-6.954
			C248.475,278.979,248.383,279.009,248.624,279.182"/>
		<path fill="#006CB3" d="M281.589,286.591l1.474-5.852c0.152-0.519,0.59-0.872,1.347-0.864c0.644-0.014,1.297,0.443,1.625,1.034
			c0.313,0.571,0.876,2.795-0.54,4.812c-0.737,1.051-1.61,1.36-2.038,1.571C282.085,287.959,281.389,287.477,281.589,286.591
			 M273.352,296.818c-0.602,0.27-0.867,0.48-0.312,0.472h7.629c0.393-0.015,0.484-0.062-0.318-0.539
			c-1.146-0.673-1.004-1.972-0.77-2.989c0.238-1.018,0.615-2.261,1.061-4.222c0.205-0.933,1.307-0.92,1.668,0.571
			c0.627,2.604,0.432,4.105,0.412,5.35c-0.017,0.922,1.077,2.958,3.359,2.958c1.531,0,2.025-0.772,2.283-0.938
			c0.216,0.112,0.695,0.199,0.837,0.194c0.981-0.045,1.336-0.698,2.731-0.75c1.232-0.041,1.701,0.915,3.547,0.9
			c4.924-0.035,7.399-4.413,5.527-8.787c-1.004-2.354-3.467-5.272-4.146-6.749c-1.479-3.236,4.828-3.579,4.846,0.695
			c0.006,0.984,0.062,1.312,0.396,0.1c0.422-1.527,1.047-3.336,1.1-3.549c0.188-0.755-4.396-0.758-5.09-0.758
			c-5.566,0.015-6.286,5.445-4.344,8.25c2.891,4.182,5.76,7.537,2.254,9.549c-1.574,0.904-5.043-0.956-4.778-5.73
			c0.051-0.88-0.242-0.867-0.523,0.334c-0.769,3.284-1.272,5.07-2.375,5.096c-1.108,0.027-1.057-1.953-1.233-5.4
			c-0.053-0.984-0.408-1.472-0.979-1.891c-0.562-0.428-0.615-0.815,0.105-1.041c2.505-0.739,4.772-2.528,4.762-4.908
			c-0.02-2.993-1.45-4.116-4.648-4.125h-1.938l-7.176,0.009c-0.494,0.013-0.652,0.129-0.409,0.308
			c0.592,0.424,1.276,0.527,0.959,3.076c-0.144,1.153-2.235,9.725-2.978,11.991C274.398,295.529,273.891,296.579,273.352,296.818"/>
		<polygon fill="#006CB3" points="238.603,268.453 240.044,268.453 238.885,273.914 241.71,273.914 241.475,275.035 
			237.208,275.035 		"/>
		<path fill="#006CB3" d="M244.3,273.633c0.135,0.271,0.419,0.526,1.076,0.526c0.574,0,1.013-0.2,1.368-0.61
			c0.282-0.326,0.619-0.836,0.849-1.889c0.062-0.318,0.137-0.773,0.079-1.172c-0.1-0.814-0.582-1.168-1.256-1.168
			c-0.528,0-0.995,0.22-1.329,0.557c-0.466,0.458-0.73,1.168-0.886,1.91C244.063,272.42,244.018,273.121,244.3,273.633
			 M246.622,268.309c0.706,0,1.634,0.162,2.128,0.896c0.527,0.798,0.445,1.829,0.31,2.479c-0.203,0.955-0.713,1.979-1.378,2.577
			c-0.902,0.82-1.998,0.941-2.542,0.941c-0.869,0-1.667-0.277-2.144-0.904c-0.554-0.766-0.409-1.86-0.282-2.461
			C243.079,270.086,244.256,268.309,246.622,268.309"/>
		<path fill="#006CB3" d="M251.402,272.93c-0.064,0.312-0.281,1.246,0.929,1.246c0.767,0,1.321-0.361,1.438-0.917
			c0.129-0.586-0.264-0.686-1.061-0.886c-1.482-0.393-2.239-0.857-1.994-1.995c0.229-1.087,1.206-2.043,3.035-2.043
			c0.688,0,1.471,0.155,1.825,0.774c0.271,0.473,0.159,1.002,0.116,1.226h-1.359c0.027-0.231,0.118-1.009-0.854-1.009
			c-0.656,0-1.156,0.357-1.276,0.895c-0.129,0.61,0.329,0.721,1.229,0.961c1.084,0.271,2.133,0.58,1.855,1.867
			c-0.243,1.182-1.438,2.141-3.264,2.141c-2.521,0-2.193-1.621-2.066-2.26H251.402L251.402,272.93z"/>
		<path fill="#006CB3" d="M262.662,272.544l-0.321-2.804l-1.565,2.804H262.662z M263.5,268.443l0.885,6.592h-1.423l-0.176-1.424
			h-2.604l-0.793,1.424h-1.35l3.784-6.592H263.5z"/>
		<polygon fill="#006CB3" points="266.898,268.443 268.941,268.443 270.307,273.633 271.41,268.443 272.723,268.443 271.32,275.035 
			269.377,275.035 267.991,269.566 266.826,275.035 265.496,275.035 		"/>
		<path fill="#006CB3" d="M278.402,270.468c0.039-0.173,0.072-0.409-0.037-0.667c-0.182-0.438-0.682-0.51-0.993-0.51
			c-1.603,0-2.243,1.494-2.458,2.507c-0.094,0.448-0.201,1.251,0.17,1.771c0.256,0.363,0.648,0.562,1.432,0.562
			c0.688,0,0.938-0.082,1.105-0.127l0.289-1.387h-1.276l0.239-1.094h2.688l-0.701,3.289c-0.438,0.141-1.155,0.367-2.479,0.367
			c-1.507,0-2.205-0.367-2.615-0.875c-0.586-0.726-0.504-1.771-0.354-2.464c0.501-2.332,2.228-3.582,4.219-3.582
			c0.851,0,1.669,0.236,2.069,0.828c0.331,0.503,0.248,1.021,0.177,1.378L278.402,270.468L278.402,270.468z"/>
		<polygon fill="#006CB3" points="282.014,268.443 286.424,268.443 286.197,269.518 283.199,269.518 282.859,271.087 
			285.668,271.087 285.441,272.164 282.633,272.164 282.261,273.939 285.359,273.939 285.123,275.035 280.611,275.035 		"/>
		<polygon fill="#006CB3" points="287.984,268.453 289.425,268.453 288.268,273.914 291.096,273.914 290.855,275.035 
			286.592,275.035 		"/>
		<polygon fill="#006CB3" points="293.564,268.443 297.977,268.443 297.747,269.518 294.747,269.518 294.412,271.087 
			297.219,271.087 296.991,272.164 294.184,272.164 293.812,273.939 296.908,273.939 296.672,275.035 292.159,275.035 		"/>
		<path fill="#006CB3" d="M299.715,272.93c-0.062,0.312-0.277,1.246,0.932,1.246c0.77,0,1.322-0.361,1.44-0.917
			c0.129-0.586-0.265-0.686-1.056-0.886c-1.485-0.393-2.243-0.857-1.996-1.995c0.227-1.087,1.201-2.043,3.033-2.043
			c0.685,0,1.469,0.155,1.824,0.774c0.271,0.473,0.166,1.002,0.121,1.226h-1.359c0.027-0.231,0.115-1.009-0.86-1.009
			c-0.655,0-1.155,0.357-1.272,0.895c-0.129,0.61,0.328,0.721,1.23,0.961c1.081,0.271,2.132,0.58,1.857,1.867
			c-0.248,1.182-1.439,2.141-3.268,2.141c-2.521,0-2.193-1.621-2.066-2.26H299.715L299.715,272.93z"/>
	</g>
	<path fill="#004775" d="M199.757,175.609c4.948,6.188,11.148,19.673,25.195,26.8v-0.076h10.433
		c-8.679-4.403-15.415-14.373-20.518-18.988c-3.061-2.244-5.483-5.424-6.751-7.735c-0.482,0-0.482,0-0.846,0L199.757,175.609
		L199.757,175.609z"/>
	<path fill="#004775" d="M275.049,202.409c14.047-7.127,20.245-20.612,25.194-26.8h-7.513c-0.211,0-0.502,0-0.688,0
		c-1.271,2.438-3.852,5.558-7.111,7.922c-5.08,4.562-11.758,14.458-20.316,18.803h10.434V202.409L275.049,202.409z"/>
	<path fill="#EFEFEF" d="M229.692,202.409v-0.076h10.914c-13.985-7.096-23.584-20.777-28.762-26.958h-8.505
		C208.359,181.563,215.646,195.282,229.692,202.409z"/>
	<path fill="#EFEFEF" d="M288.057,175.516c-5.18,6.182-14.629,19.721-28.613,26.817h10.865v0.076
		c14.047-7.127,21.232-20.706,26.254-26.894L288.057,175.516L288.057,175.516z"/>
</g>
</svg>
