<?xml version="1.0" encoding="utf-8"?>
<!-- Generator: Adobe Illustrator 16.0.0, SVG Export Plug-In . SVG Version: 6.00 Build 0)  -->
<!DOCTYPE svg PUBLIC "-//W3C//DTD SVG 1.1//EN" "http://www.w3.org/Graphics/SVG/1.1/DTD/svg11.dtd">
<svg version="1.1" id="content" xmlns="http://www.w3.org/2000/svg" xmlns:xlink="http://www.w3.org/1999/xlink" x="0px" y="0px"
	 width="500px" height="500px" viewBox="0 0 500 500" enable-background="new 0 0 500 500" xml:space="preserve">
<g id="bounds">
	<rect x="-0.045" y="0.25" fill="none" stroke="#EAEAEA" stroke-miterlimit="10" width="499.5" height="499.5"/>
</g>
<rect id="position" x="0.5" y="0.5" display="none" fill="none" stroke="#000000" width="499" height="499"/>
<g>
	<path fill="#FFFFFF" d="M95.551,218.924c0,0-2.666-0.526-3.194-2.135c-0.535-1.609,0.286-3.946,0.286-3.946l45.513-54.345
		c0,0,1.422-2.202,4.38-3.638c3.479-1.687,6.958-1.615,6.958-1.615h67.793c33.11-31.5,81.158-29.373,81.158-29.373
		c69.938,0,126.008,57.678,126.008,126.014c0,68.346-53.654,126.271-126.281,126.271c-67.263,0-96.894-45.111-96.894-45.111h-30.435
		c0,0-20.268,23.832-44.303,20.811c-25.632-3.188-55-17.614-51.261-67.793c3.735-50.186,35.237-65.133,35.237-65.133L95.551,218.924
		L95.551,218.924z"/>
	<path fill="#E91A4F" d="M208.755,317.305c20.444,28.062,53.038,45.098,90.434,45.098l0,0c62.146,0,112.046-49.843,112.521-112.3
		c-0.277-25.647-8.273-42.222-8.273-42.222c-16.795-41.063-57.104-71.204-107.002-70.451c-28.473,0.751-53.457,11.112-73.407,29.479
		l-65.05,0.016c0,0-1.51-0.078-2.942,1.599c-1.334,2.124,0.491,2.492,0.491,2.492h0.97l62.275-0.027
		c-2.605,2.659-5.154,5.448-7.485,8.359l-66.014,0.023c0,0-1.383-0.029-2.816,1.794c-1.502,2.145,0.412,2.648,0.412,2.648
		l65.01-0.002c-2.243,2.936-5.852,8.868-5.852,8.868h-67.246c0,0-1.875,0.007-2.962,1.595c-0.921,1.641,0.325,2.262,0.325,2.262
		h67.709c0,0-2.691,5.061-4.39,9.104l-70.51,0.027c0,0-4.767,0.273-4.767,3.502c0,1.104,1.234,1.075,1.234,1.075l277.125-0.054
		c8.127,17.998,7.629,40.521,7.629,40.521c-0.285,12.104-2.098,24.642-6.804,36.239c-3.356,9.146-6.87,17.896-12.229,24.705
		l-256.668,0.018c0,0-0.784,0.137-1.212,1.229c-0.402,1.508,0.288,2.283,0.674,2.772c1.048,1.267,2.424,1.235,2.424,1.235
		l76.044,0.014L208.755,317.305z M398.654,210.097L398.654,210.097v0.006l0,0l0,0"/>
	<path fill="#FFFFFF" d="M324.566,159.519c-2.432-7.218-15.828-13.639-23.461-16.562c-23.642-0.402-46.42,6.949-65.398,21.087
		c3.528-1.004,7.249-1.943,11.163-2.72c19.657-3.916,47.008-4.523,75.917,9.671C325.051,166.795,325.665,162.781,324.566,159.519"/>
	<path fill="#FFFFFF" d="M261.096,205.729c10-4.24,19.604-7.785,27.538-10.713l3.999-1.476c12.938-4.806,22.2-11.647,27.422-18.399
		c-37.473-18.086-72.957-10.664-94.779-2.254c-9.832,9.463-17.64,20.555-23.146,32.743L261.096,205.729z"/>
	<path fill="#FFFFFF" d="M346.677,186.172c6.479-9.97,11.368-17.953,14.503-23.529c-13.553-9.658-29.191-16.016-45.913-18.502
		c6.097,3.483,12.063,8.184,13.958,13.803c1.645,4.857,0.832,10.149-1.961,15.362C333.704,176.79,340.205,181.044,346.677,186.172"
		/>
	<path fill="#FFFFFF" d="M350.564,189.308c6.115,5.051,11.666,10.114,16.688,15.15c4.384-5.76,9.534-8.773,15.354-8.984
		c3.539-0.115,6.931,0.846,10.045,2.344c-3.325-5.965-7.262-11.649-11.771-17c-4.791-5.631-10.031-10.724-15.711-15.181
		C361.869,171.463,356.956,179.481,350.564,189.308"/>
	<path fill="#FFFFFF" d="M343.988,190.291c-6.475-5.144-12.944-9.381-19.378-12.822c-6.028,8.072-16.683,15.638-30.29,20.697
		l-3.998,1.459c-4.743,1.75-10.098,3.724-15.77,5.946l59.193-0.022L343.988,190.291z"/>
	<path fill="#FFFFFF" d="M361.396,205.651c-4.096-4.002-8.599-8.104-13.541-12.213c-2.521,3.832-5.24,7.907-8.15,12.2
		L361.396,205.651z"/>
	<path fill="#FFFFFF" d="M382.75,200.374c4.746-0.163,9.579,2.376,13.355,5.277l-23.372-0.018
		C375.812,202.28,379.104,200.504,382.75,200.374"/>
	<path fill="#FFFFFF" d="M250.436,316.967c-4.869,6.011-9.86,12.104-14.962,18.227c-6.387-4.807-12.299-10.366-17.593-16.615
		c-0.464-0.556-0.926-1.104-1.379-1.671L250.436,316.967z"/>
	<path fill="#FFFFFF" d="M316.93,352.973c-0.037,0.024-1.918,1.123-4.571,2.674c-7.194,0.867-14.526,0.997-21.898,0.385
		c-18.55-1.553-35.979-7.771-50.96-17.963c5.929-7.131,11.709-14.196,17.333-21.161l87.848-0.01
		C339.474,331.115,331.016,345.677,316.93,352.973"/>
	<path fill="#FFFFFF" d="M382.967,316.885c-4.471,5.191-9.553,9.979-14.684,14.316c-12.52,10.583-26.979,17.975-42.401,21.908
		c11.991-8.953,19.355-22.914,24.021-36.229L382.967,316.885z"/>
	<path fill="#006CB3" d="M192.805,215.386h-0.029h-0.022l-0.005-0.011c-1.078-0.056-17.779-0.056-29.232-0.056
		c-2.923,0-12.095,0.328-14.485,0.713c-42.917,6.894-61.513,47.57-61.289,72.414c0.289,31.58,23.971,50.092,43.98,50.8
		c21.973,1.771,38.479-21.785,38.805-22.242h-9.975c-0.184,0.242-10.624,13.032-23.126,13.027
		c-9.223-0.006-17.219-6.408-21.398-17.479c-1.902-5.076-2.8-11.06-2.8-17.497c-0.01-18.44,6.991-39.827,18.267-55.819
		c12.846-18.205,28.977-16.521,28.977-16.521c11.121,0.312,20.971,6.188,24.177,20.342c0.883,3.916,2.823,2.424,2.995,1.11
		c0.359-1.076,5.879-23.75,6.257-24.994C194.066,218.565,195,215.608,192.805,215.386z"/>
	<path fill="#006CB3" d="M129.049,291.149c-0.807,2.67-3.259,7.283-5.374,8.299c-1.542,0.742-1.703,1.279-0.071,1.285h32.212
		c0.77,0.021,0.842,0.071,1.237-0.853c1.785-4.231,3.593-11.923,3.847-12.871c0.528-1.932,0.047-2.827-1.092-0.753
		c-6.266,11.344-12.647,11.547-16.691,11.583c-2.294,0.007-2.829-1.317-2.311-3.354c0.522-2.029,8.898-33.416,9.747-35.961
		c0.896-2.726,3.861-6.758,5.532-7.516c1.461-0.676,3.08-1.486-0.063-1.497l-21.543,0.032c-0.847,0.137-1.375,0.211-0.646,0.746
		c1.506,1.082,5.412,2.039,3.909,7.893L129.049,291.149z"/>
	<path fill="#006CB3" d="M185.575,258.336c1.049-3.168,1.692-5.756,3.831-7.115c3.048-1.927,1.718-1.707-0.083-1.7l-18.22,0.039
		c-1.075-0.039-1.432,0.516-0.748,1.006c1.485,1.069,3.636,2.553,2.406,7.23l-9.451,35.048c-0.637,1.729-1.795,4.849-2.991,5.757
		c-2.536,1.914-1.727,2.204-0.248,2.137h17.614c2.135-0.114,1.29-0.93,0.531-1.564c-1.335-1.113-2.331-4.279-1.544-7.365
		C177.199,289.75,184.654,261.116,185.575,258.336"/>
	<path fill="#006CB3" d="M273.434,250.146c1.987,1.576,5.543,1.657,3.885,8.144l-8.312,32.567c-0.403,2.531-3.303,7.385-5.584,8.291
		c-1.821,0.713-2.121,1.312-0.118,1.321h35.288c2.065,0,2.654,0.013,3.087-1.124c0.752-1.924,3.245-10.771,3.623-12.134
		c0.523-1.938,0.588-2.953-1.144-0.601c-8.144,11.131-9.564,12.231-21.328,12.201c-2.81,0-2.843-2.354-2.46-3.882
		c0.263-1.026,2.536-9.655,4.863-18.282c0.66-2.463,2.391-2.42,3.471-2.42c1.876,0,6.314,2.692,6.257,9.725
		c-0.026,2.539,0.767,1.479,1.312-0.69l4.634-18.429c0.733-2.857-0.474-1.403-2.024,0.525c-2.182,2.726-5.101,5.506-10.023,5.457
		c-1.489,0-1.723-1.182-1.271-2.955c1.229-4.957,2.436-9.967,3.396-12.862c0.994-3.043,1.207-3.056,4-3.038
		c4.582,0.038,11.912-1.077,11.888,9.318c-0.011,2.683,0.473,2.809,1.217-0.066c0.871-3.264,2.199-8.999,2.611-10.643
		c0.324-1.299-0.395-0.963-2.11-0.963h-33.845C273.807,249.639,272.77,249.623,273.434,250.146"/>
	<path fill="#006CB3" d="M208.347,272.093c1.099-4.089,4.61-17.234,4.61-17.234c0.744-2.654,2.438-3.431,4.049-3.381
		c2.435,0.094,4.191,1.232,4.973,4.135c0.63,2.351-0.152,14.785-7.772,18.016C210.436,275.223,207.635,274.746,208.347,272.093
		 M191.14,290.073c-0.357,2.255-2.247,7.313-4.539,8.914c-1.957,1.379-1.053,1.738,0.713,1.744h18.816
		c1.077,0.065,2.588,0.056-0.503-1.8c-3.091-1.84-2.464-6.276-1.819-9.059c0.634-2.78,1.27-5.166,2.872-10.416
		c0.773-2.57,1.071-2.661,4.49-2.327c4.281,0.406,8.849-0.294,14.034-3.068c4.971-2.634,9.447-8.246,9.571-13.298
		c0.215-8.833-5.246-11.257-12.577-11.288c0,0-1.707-0.05-5.186,0h-19.339c-1.726,0-1.96,0.073-1.304,0.555
		c1.467,1.056,4.396,2.75,3.173,7.714L191.14,290.073z"/>
	<path fill="#006CB3" d="M247.567,272.289c1.09-4.08,4.612-17.253,4.612-17.253c0.733-2.651,2.438-3.422,4.038-3.368
		c2.438,0.099,4.203,1.239,4.981,4.146c0.626,2.334-0.149,14.773-7.77,18.002C249.653,275.416,246.849,274.933,247.567,272.289
		 M235.594,250.047c1.468,1.05,4.389,2.752,3.175,7.713l-8.406,32.313c-0.367,2.258-2.188,7.481-4.534,9.002
		c-2.888,1.896-1.051,1.65,0.709,1.656h18.803c1.024,0,2.101-0.062-0.497-1.586c-3.104-1.826-2.466-6.479-1.824-9.262
		c0.641-2.779,1.271-5.166,2.874-10.417c0.773-2.567,1.075-2.659,4.486-2.325c4.299,0.405,8.854-0.296,14.049-3.07
		c4.959-2.633,9.438-8.245,9.562-13.297c0.168-6.851-4.452-11.263-11.833-11.293c0,0-2.444-0.047-5.925,0h-19.351
		C235.183,249.483,234.924,249.565,235.594,250.047"/>
	<path fill="#006CB3" d="M327.33,270.665l4.102-16.283c0.426-1.441,1.643-2.427,3.75-2.404c1.793-0.039,3.609,1.231,4.523,2.879
		c0.869,1.59,2.436,7.776-1.503,13.391c-2.052,2.924-4.481,3.786-5.671,4.373C328.712,274.473,326.773,273.131,327.33,270.665
		 M304.408,299.128c-1.676,0.75-2.414,1.335-0.867,1.312h21.23c1.094-0.041,1.345-0.172-0.886-1.502
		c-3.188-1.873-2.794-5.485-2.144-8.317c0.659-2.83,1.709-6.291,2.953-11.748c0.568-2.597,3.635-2.56,4.642,1.59
		c1.745,7.246,1.201,11.422,1.147,14.888c-0.052,2.565,2.992,8.231,9.346,8.231c4.258,0,5.633-2.147,6.352-2.611
		c0.604,0.312,1.938,0.556,2.332,0.539c2.729-0.124,3.719-1.94,7.599-2.086c3.431-0.112,4.733,2.547,9.871,2.506
		c13.7-0.098,20.591-12.28,15.382-24.452c-2.794-6.554-9.646-14.675-11.537-18.781c-4.115-9.008,13.434-9.961,13.486,1.936
		c0.016,2.739,0.172,3.646,1.1,0.275c1.174-4.25,2.914-9.28,3.062-9.875c0.523-2.1-12.23-2.108-14.169-2.108
		c-15.485,0.041-17.487,15.154-12.087,22.959c8.047,11.638,16.029,20.976,6.273,26.573c-4.379,2.518-14.035-2.661-13.297-15.946
		c0.142-2.448-0.674-2.414-1.455,0.929c-2.141,9.141-3.539,14.108-6.609,14.18c-3.083,0.076-2.938-5.43-3.43-15.024
		c-0.148-2.735-1.137-4.095-2.729-5.264c-1.562-1.188-1.71-2.267,0.295-2.894c6.971-2.06,13.279-7.037,13.253-13.658
		c-0.06-8.332-4.037-11.455-12.937-11.48h-5.393l-19.973,0.025c-1.376,0.037-1.813,0.355-1.139,0.856
		c1.646,1.181,3.549,1.466,2.669,8.562c-0.403,3.207-6.219,27.062-8.288,33.367C307.32,295.541,305.908,298.461,304.408,299.128"/>
	<polygon fill="#006CB3" points="207.706,220.19 211.717,220.19 208.492,235.388 216.354,235.388 215.703,238.507 203.827,238.507 	
		"/>
	<path fill="#006CB3" d="M223.561,234.606c0.376,0.756,1.169,1.465,2.995,1.465c1.599,0,2.821-0.559,3.808-1.698
		c0.785-0.907,1.719-2.324,2.36-5.257c0.176-0.885,0.381-2.15,0.221-3.262c-0.28-2.267-1.619-3.248-3.495-3.248
		c-1.47,0-2.769,0.609-3.698,1.547c-1.296,1.274-2.034,3.252-2.465,5.315C222.903,231.231,222.778,233.18,223.561,234.606
		 M230.023,219.789c1.965,0,4.546,0.45,5.921,2.493c1.464,2.222,1.237,5.092,0.861,6.897c-0.565,2.656-1.983,5.509-3.831,7.171
		c-2.511,2.282-5.562,2.62-7.077,2.62c-2.418,0-4.636-0.771-5.966-2.518c-1.541-2.13-1.138-5.177-0.785-6.849
		C220.164,224.733,223.438,219.789,230.023,219.789"/>
	<path fill="#006CB3" d="M243.327,232.649c-0.179,0.869-0.784,3.465,2.585,3.465c2.133,0,3.676-1.004,4.002-2.549
		c0.359-1.633-0.737-1.91-2.955-2.467c-4.122-1.092-6.232-2.386-5.549-5.553c0.639-3.025,3.355-5.686,8.446-5.686
		c1.916,0,4.097,0.434,5.078,2.155c0.758,1.314,0.44,2.786,0.321,3.409h-3.78c0.074-0.646,0.33-2.807-2.375-2.807
		c-1.828,0-3.218,0.992-3.549,2.488c-0.359,1.697,0.912,2.004,3.417,2.672c3.017,0.759,5.937,1.615,5.164,5.197
		c-0.678,3.289-4,5.957-9.082,5.957c-7.017,0-6.105-4.51-5.751-6.287h4.029L243.327,232.649L243.327,232.649z"/>
	<path fill="#006CB3" d="M274.66,231.573l-0.895-7.801l-4.355,7.801H274.66z M276.992,220.164l2.462,18.343h-3.959l-0.489-3.96
		h-7.248l-2.208,3.96h-3.755l10.53-18.343H276.992z"/>
	<polygon fill="#006CB3" points="286.449,220.164 292.135,220.164 295.936,234.606 299.005,220.164 302.656,220.164 
		298.754,238.507 293.346,238.507 289.489,223.289 286.248,238.507 282.547,238.507 	"/>
	<path fill="#006CB3" d="M318.463,225.797c0.109-0.479,0.201-1.14-0.103-1.854c-0.507-1.217-1.898-1.42-2.767-1.42
		c-4.461,0-6.243,4.157-6.84,6.979c-0.262,1.247-0.561,3.48,0.473,4.929c0.713,1.011,1.807,1.562,3.984,1.562
		c1.916,0,2.611-0.228,3.076-0.353l0.803-3.858h-3.551l0.667-3.043h7.478l-1.949,9.15c-1.219,0.393-3.213,1.021-6.897,1.021
		c-4.192,0-6.136-1.021-7.276-2.437c-1.631-2.021-1.4-4.929-0.982-6.858c1.395-6.489,6.201-9.967,11.74-9.967
		c2.367,0,4.643,0.656,5.758,2.303c0.921,1.399,0.689,2.844,0.493,3.836L318.463,225.797L318.463,225.797z"/>
	<polygon fill="#006CB3" points="328.514,220.164 340.785,220.164 340.154,223.151 331.812,223.151 330.867,227.521 
		338.682,227.521 338.052,230.519 330.236,230.519 329.199,235.458 337.822,235.458 337.166,238.507 324.61,238.507 	"/>
	<polygon fill="#006CB3" points="345.129,220.19 349.137,220.19 345.916,235.388 353.786,235.388 353.117,238.507 341.252,238.507 	
		"/>
	<polygon fill="#006CB3" points="360.657,220.164 372.936,220.164 372.297,223.151 363.947,223.151 363.016,227.521 
		370.826,227.521 370.193,230.519 362.381,230.519 361.347,235.458 369.963,235.458 369.305,238.507 356.747,238.507 	"/>
	<path fill="#006CB3" d="M377.773,232.649c-0.176,0.869-0.771,3.465,2.592,3.465c2.144,0,3.682-1.004,4.01-2.549
		c0.357-1.633-0.736-1.91-2.939-2.467c-4.133-1.092-6.24-2.386-5.554-5.553c0.63-3.025,3.342-5.686,8.44-5.686
		c1.906,0,4.088,0.434,5.077,2.155c0.752,1.314,0.461,2.786,0.337,3.409h-3.783c0.076-0.646,0.32-2.807-2.396-2.807
		c-1.82,0-3.215,0.992-3.54,2.488c-0.358,1.697,0.911,2.004,3.426,2.672c3.008,0.759,5.932,1.615,5.168,5.197
		c-0.69,3.289-4.005,5.957-9.099,5.957c-7.014,0-6.1-4.51-5.746-6.287h4.008V232.649L377.773,232.649z"/>
</g>
</svg>
