<?xml version="1.0" encoding="utf-8"?>
<!-- Generator: Adobe Illustrator 18.0.0, SVG Export Plug-In . SVG Version: 6.00 Build 0)  -->
<!DOCTYPE svg PUBLIC "-//W3C//DTD SVG 1.1//EN" "http://www.w3.org/Graphics/SVG/1.1/DTD/svg11.dtd">
<svg version="1.1" id="content" xmlns="http://www.w3.org/2000/svg" xmlns:xlink="http://www.w3.org/1999/xlink" x="0px" y="0px"
	 width="500px" height="500px" viewBox="0 0 500 500" enable-background="new 0 0 500 500" xml:space="preserve">
<rect id="position" x="0.5" y="0.5" display="none" fill="none" stroke="#000000" width="499" height="499"/>
<g>
	<path fill="#404040" d="M291.9,332.8h-43.1h-98.1c0,0-6.8,0.2-10.4-13l-12.8,84c52.4,16.9,107.9,19.6,159.5,14.2
		C288.9,409.2,291.9,359.6,291.9,332.8z"/>
	<path fill="#404040" d="M372.7,406.4l-14-86.6c-3.6,13.2-11.8,13-11.8,13H293c1.9,12.5,5.4,68,6.6,83.7
		C322,413.4,350.4,413.8,372.7,406.4z"/>
	<path fill="#1B1B1B" d="M287.5,415c0,0,3.7-48.6,4.3-90c0,0,7.5,37,7.5,88.5L287.5,415z"/>
</g>
</svg>
