<?xml version="1.0" encoding="utf-8"?>
<!-- Generator: Adobe Illustrator 16.0.0, SVG Export Plug-In . SVG Version: 6.00 Build 0)  -->
<!DOCTYPE svg PUBLIC "-//W3C//DTD SVG 1.1//EN" "http://www.w3.org/Graphics/SVG/1.1/DTD/svg11.dtd">
<svg version="1.1" id="content" xmlns="http://www.w3.org/2000/svg" xmlns:xlink="http://www.w3.org/1999/xlink" x="0px" y="0px"
	 width="500px" height="500px" viewBox="0 0 500 500" enable-background="new 0 0 500 500" xml:space="preserve">
<rect id="position" x="0.5" y="0.5" display="none" fill="none" stroke="#000000" width="499" height="499"/>
<path opacity="0.5" fill="#161616" d="M359.189,335.237c0,1.104-0.889,2-1.984,2H142.847c-1.096,0-1.984-0.896-1.984-2v-15.195
	c0-1.104,0.888-2,1.984-2h214.358c1.096,0,1.984,0.896,1.984,2V335.237z"/>
<path fill="#CA0E51" d="M360.245,332.715c0,1.104-0.896,2-2,2h-216.06c-1.104,0-2-0.896-2-2V317.52c0-1.104,0.896-2,2-2h216.06
	c1.104,0,2,0.896,2,2V332.715z"/>
<rect x="200.132" y="315.562" fill="#A60B43" width="5.118" height="19.152"/>
<path opacity="0.5" fill="#161616" d="M200.132,309.567c0-0.801-0.648-1.451-1.45-1.451h-36.713c-0.802,0-1.45,0.65-1.45,1.451
	v37.042c0,0.801,0.648,1.451,1.45,1.451h36.713c0.802,0,1.45-0.65,1.45-1.451V309.567z"/>
<path fill="#D4D4D4" d="M200.132,306.336c0-0.801-0.648-1.451-1.45-1.451h-36.713c-0.802,0-1.45,0.65-1.45,1.451v37.042
	c0,0.801,0.648,1.451,1.45,1.451h36.713c0.802,0,1.45-0.65,1.45-1.451V306.336z"/>
<circle fill="#242424" cx="317.212" cy="324.904" r="3.137"/>
<circle fill="#242424" cx="333.762" cy="324.904" r="3.137"/>
<circle fill="#242424" cx="300.661" cy="324.904" r="3.137"/>
<path fill="#FFFFFF" d="M198.682,304.885h-36.713c-0.802,0-1.45,0.65-1.45,1.451v3.011l19.807,13.63l19.807-13.63v-3.011
	C200.132,305.535,199.484,304.885,198.682,304.885z"/>
<circle fill="#A6A6A6" cx="180.326" cy="315.548" r="2.812"/>
<path fill="#A60B43" d="M261.897,317.079h-23.365c-1.93,0-3.5,1.57-3.5,3.5v14.136h3v-14.136c0-0.275,0.224-0.5,0.5-0.5h23.365
	c0.275,0,0.5,0.225,0.5,0.5v14.136h3v-14.136C265.397,318.649,263.827,317.079,261.897,317.079z"/>
<g>
	<path fill="#D4D4D4" d="M261.897,336.172h-23.365c-1.93,0-3.5-1.57-3.5-3.5v-15.109c0-1.93,1.57-3.5,3.5-3.5h23.365
		c1.93,0,3.5,1.57,3.5,3.5v15.109C265.397,334.602,263.827,336.172,261.897,336.172z M238.533,317.062c-0.276,0-0.5,0.225-0.5,0.5
		v15.109c0,0.275,0.224,0.5,0.5,0.5h23.365c0.275,0,0.5-0.225,0.5-0.5v-15.109c0-0.275-0.225-0.5-0.5-0.5H238.533z"/>
</g>
<path fill="#D4D4D4" d="M243.929,324.98c0,1.045-0.847,1.892-1.892,1.892h-3.892c-1.045,0-1.892-0.847-1.892-1.892l0,0
	c0-1.046,0.847-1.893,1.892-1.893h3.892C243.082,323.088,243.929,323.935,243.929,324.98L243.929,324.98z"/>
</svg>
