<?xml version="1.0" encoding="utf-8"?>
<!-- Generator: Adobe Illustrator 18.0.0, SVG Export Plug-In . SVG Version: 6.00 Build 0)  -->
<!DOCTYPE svg PUBLIC "-//W3C//DTD SVG 1.1//EN" "http://www.w3.org/Graphics/SVG/1.1/DTD/svg11.dtd">
<svg version="1.1" id="content" xmlns="http://www.w3.org/2000/svg" xmlns:xlink="http://www.w3.org/1999/xlink" x="0px" y="0px"
	 viewBox="0 0 500 500" enable-background="new 0 0 500 500" xml:space="preserve">
<g id="bounds" display="none">
	<rect x="-0.1" y="80.3" display="inline" fill="none" stroke="#EAEAEA" stroke-miterlimit="10" width="499.5" height="499.5"/>
</g>
<rect id="position" x="0.5" y="0.5" display="none" fill="none" stroke="#000000" width="499" height="499"/>
<g>
	<path fill="#242424" d="M358.3,167.6l-45.1,0.1c-2.8,10.3-9.5,33.2-16.5,42.2c-4.8,6.2-18.5,26.2-46.8,26.2s-41.9-20-46.8-26.2
		c-7-9-13.7-31.9-16.5-42.2l-45.1-0.1l-71.7,78l71.3,4.4v233.1h108.8h108.8V250l71.3-4.4L358.3,167.6z"/>
	<g>
		<path fill="#CA0E51" d="M266.5,214.9c-23.6,0-40.8-8.2-52.2-16.7c-18.1-13.4-25.9-29.8-26.2-30.4l3.6-1.7
			c0.1,0.2,7.7,16.3,25.1,29c23.2,17.1,51.8,20.4,85.1,10l1.2,3.8C289.5,213.2,277.3,214.9,266.5,214.9z"/>
	</g>
	<g>
		<path fill="#CA0E51" d="M249.5,272.3c-21.6-9.2-39.6-30.1-52-60.7c-9.3-22.9-12.3-43.4-12.3-43.6l4-0.6
			c0.1,0.8,11.9,79.9,61.9,101.2L249.5,272.3z"/>
	</g>
	<g>
		<path fill="#CA0E51" d="M249.8,272.3l-1.6-3.7c50-21.2,61.8-100.4,61.9-101.2l4,0.6c0,0.2-3,20.7-12.3,43.6
			C289.5,242.1,271.5,263.1,249.8,272.3z"/>
	</g>
	<path fill="#161616" d="M280.7,274.2c0-13.8-13.7-24.9-30.7-24.9c-16.9,0-30.7,11.2-30.7,24.9c0,5.3,2.1,10.2,5.6,14.3l-0.2-0.1
		c0,0,13.6,16.2,14.3,24.6c0.8,8.4,6.7,8.8,10.8,8.8c4.1,0,10.1-0.5,10.8-8.8c0.5-5.6,6.8-16.7,10.9-21.1
		C277.2,287.4,280.7,281.1,280.7,274.2z"/>
	<path fill="#FFFFFF" d="M280.7,262.5c0-13.8-13.7-24.9-30.7-24.9c-16.9,0-30.7,11.2-30.7,24.9c0,5.3,2.1,10.2,5.6,14.3l-0.2-0.1
		c0,0,13.6,16.2,14.3,24.6c0.8,8.4,6.7,8.8,10.8,8.8c4.1,0,10.1-0.5,10.8-8.8c0.5-5.6,6.8-16.8,10.9-21.1
		C277.2,275.7,280.7,269.5,280.7,262.5z"/>
	<path fill="#242424" d="M255.4,304.8h-11c-1.6,0-2.8-1.3-2.8-2.8v-8.4c0-1.6,1.3-2.8,2.8-2.8h11c1.6,0,2.8,1.3,2.8,2.8v8.4
		C258.3,303.6,257,304.8,255.4,304.8z M244.5,292.8c-0.5,0-0.8,0.4-0.8,0.8v8.4c0,0.5,0.4,0.8,0.8,0.8h11c0.5,0,0.8-0.4,0.8-0.8
		v-8.4c0-0.5-0.4-0.8-0.8-0.8H244.5z"/>
	<path fill="#242424" d="M250,299.2c-6.1,0-7.8-0.8-8.1-1l1.1-1.7l0,0c0,0,1.4,0.7,7,0.7c5.7,0,7-0.7,7.1-0.7l1.1,1.7
		C257.8,298.5,256.2,299.2,250,299.2z"/>
	<path fill="#242424" d="M253.7,284.1c0,0-1.5-3.8-1.9-5c-0.4-1.2-1.8-1-1.8-1s-1.4-0.1-1.8,1c-0.4,1.2-1.9,5-1.9,5
		c-0.6,1.2,0.9,3,3.7,3S254.3,285.3,253.7,284.1z"/>
	<circle fill="#242424" cx="236.7" cy="267.2" r="10.1"/>
	<circle fill="#242424" cx="263.2" cy="267.2" r="10.1"/>
	<path fill="#242424" d="M250,240.7c-0.9,0-3.1,0.7-2.6,4c0.5,3.3,2.6,8.6,2.6,8.6s2.1-5.3,2.6-8.6C253,241.4,250.8,240.7,250,240.7
		z"/>
	<path fill="#242424" d="M262.7,246.3c0.6,0.6,1.6,2.7-1.2,4.6c-2.7,1.9-8.1,3.9-8.1,3.9s2.5-5.2,4.6-7.7
		C260.1,244.6,262.1,245.7,262.7,246.3z"/>
	<path fill="#242424" d="M237.3,246.3c-0.6,0.6-1.6,2.7,1.2,4.6c2.7,1.9,8.1,3.9,8.1,3.9s-2.5-5.2-4.6-7.7
		C239.9,244.6,237.9,245.7,237.3,246.3z"/>
	<circle fill="#FFFFFF" cx="154.4" cy="461.6" r="8.9"/>
	<circle fill="#FFFFFF" cx="193" cy="461.6" r="8.9"/>
	<circle fill="#FFFFFF" cx="231.6" cy="461.6" r="8.9"/>
	<circle fill="#FFFFFF" cx="270.3" cy="461.6" r="8.9"/>
	<circle fill="#FFFFFF" cx="308.9" cy="461.6" r="8.9"/>
	<circle fill="#FFFFFF" cx="347.5" cy="461.6" r="8.9"/>
	<circle fill="#FFFFFF" cx="172.8" cy="430.2" r="8.9"/>
	<circle fill="#FFFFFF" cx="211.4" cy="430.2" r="8.9"/>
	<circle fill="#FFFFFF" cx="250" cy="430.2" r="8.9"/>
	<circle fill="#FFFFFF" cx="288.7" cy="430.2" r="8.9"/>
	<circle fill="#FFFFFF" cx="327.3" cy="430.2" r="8.9"/>
	<circle fill="#FFFFFF" cx="154.4" cy="399.8" r="8.9"/>
	<circle fill="#FFFFFF" cx="193" cy="399.8" r="8.9"/>
	<circle fill="#FFFFFF" cx="269.8" cy="399.5" r="8.9"/>
	<circle fill="#FFFFFF" cx="308.9" cy="399.8" r="8.9"/>
	<circle fill="#FFFFFF" cx="347.5" cy="399.8" r="8.9"/>
	<circle fill="#FFFFFF" cx="172.8" cy="368.4" r="8.9"/>
	<circle fill="#FFFFFF" cx="250" cy="368.4" r="8.9"/>
	<circle fill="#FFFFFF" cx="287.7" cy="367.8" r="8.9"/>
	<circle fill="#FFFFFF" cx="327.3" cy="368.4" r="8.9"/>
	<circle fill="#FFFFFF" cx="154.4" cy="338.1" r="8.9"/>
	<circle fill="#FFFFFF" cx="268.6" cy="337" r="8.9"/>
	<circle fill="#FFFFFF" cx="307.4" cy="337.2" r="8.9"/>
	<circle fill="#FFFFFF" cx="347.5" cy="338.1" r="8.9"/>
	<circle fill="#FFFFFF" cx="325.3" cy="305.5" r="8"/>
	<circle fill="#FFFFFF" cx="285.3" cy="304.7" r="8"/>
	<circle fill="#FFFFFF" cx="303.8" cy="273.3" r="8"/>
	<circle fill="#FFFFFF" cx="345.1" cy="274.8" r="8"/>
	<circle fill="#FFFFFF" cx="320.5" cy="240.9" r="7.1"/>
	<circle fill="#FFFFFF" cx="356.9" cy="235.9" r="7.1"/>
	<circle fill="#FFFFFF" cx="377.3" cy="212" r="7.1"/>
	<circle fill="#FFFFFF" cx="396.1" cy="233.4" r="7.1"/>
	<circle fill="#FFFFFF" cx="143" cy="235.9" r="7.1"/>
	<circle fill="#FFFFFF" cx="122.6" cy="212" r="7.1"/>
	<circle fill="#FFFFFF" cx="103.8" cy="233.4" r="7.1"/>
	<circle fill="#FFFFFF" cx="339.1" cy="209.6" r="7.1"/>
	<circle fill="#FFFFFF" cx="348.6" cy="177.2" r="7.1"/>
	<circle fill="#FFFFFF" cx="230.3" cy="399.5" r="8.9"/>
	<circle fill="#FFFFFF" cx="212.4" cy="367.8" r="8.9"/>
	<circle fill="#FFFFFF" cx="231.4" cy="337" r="8.9"/>
	<circle fill="#FFFFFF" cx="192.6" cy="337.2" r="8.9"/>
	<circle fill="#FFFFFF" cx="174.7" cy="305.5" r="8"/>
	<circle fill="#FFFFFF" cx="214.8" cy="304.7" r="8"/>
	<circle fill="#FFFFFF" cx="196.2" cy="273.3" r="8"/>
	<circle fill="#FFFFFF" cx="155" cy="274.8" r="8"/>
	<circle fill="#FFFFFF" cx="179.5" cy="240.9" r="7.1"/>
	<circle fill="#FFFFFF" cx="161" cy="209.6" r="7.1"/>
	<circle fill="#FFFFFF" cx="153.8" cy="177.2" r="7.1"/>
	<path opacity="0.5" fill="#161616" enable-background="new    " d="M368.7,412.8c0,1.5-1.2,2.7-2.7,2.7H132.8
		c-1.5,0-2.7-1.2-2.7-2.7v-20.3c0-1.5,1.2-2.7,2.7-2.7H366c1.5,0,2.7,1.2,2.7,2.7L368.7,412.8L368.7,412.8z"/>
	<path fill="#CA0E51" d="M370.1,409.4c0,1.5-1.2,2.7-2.7,2.7H131.9c-1.5,0-2.7-1.2-2.7-2.7v-20.3c0-1.5,1.2-2.7,2.7-2.7h235.5
		c1.5,0,2.7,1.2,2.7,2.7V409.4z"/>
	<rect x="209.4" y="386.5" fill="#A60B43" width="6.8" height="25.6"/>
	<path opacity="0.5" fill="#161616" enable-background="new    " d="M209.4,378.5c0-1.1-0.9-1.9-1.9-1.9h-49.1
		c-1.1,0-1.9,0.9-1.9,1.9V428c0,1.1,0.9,1.9,1.9,1.9h49.1c1.1,0,1.9-0.9,1.9-1.9V378.5z"/>
	<path fill="#D4D4D4" d="M209.4,374.2c0-1.1-0.9-1.9-1.9-1.9h-49.1c-1.1,0-1.9,0.9-1.9,1.9v49.5c0,1.1,0.9,1.9,1.9,1.9h49.1
		c1.1,0,1.9-0.9,1.9-1.9V374.2z"/>
	<circle fill="#242424" cx="325.9" cy="399" r="4.2"/>
	<circle fill="#242424" cx="348" cy="399" r="4.2"/>
	<circle fill="#242424" cx="303.8" cy="399" r="4.2"/>
	<path fill="#FFFFFF" d="M207.5,372.2h-49.1c-1.1,0-1.9,0.9-1.9,1.9v4l26.5,18.2l26.5-18.2v-4C209.4,373.1,208.6,372.2,207.5,372.2z
		"/>
	<circle fill="#A6A6A6" cx="182.9" cy="386.5" r="3.8"/>
	<path fill="#A60B43" d="M265.3,388.5H234c-2.6,0-4.7,2.1-4.7,4.7v18.9h4v-18.9c0-0.4,0.3-0.7,0.7-0.7h31.3c0.4,0,0.7,0.3,0.7,0.7
		v18.9h4v-18.9C270,390.6,267.9,388.5,265.3,388.5z"/>
	<path fill="#D4D4D4" d="M265.3,414.1H234c-2.6,0-4.7-2.1-4.7-4.7v-20.2c0-2.6,2.1-4.7,4.7-4.7h31.3c2.6,0,4.7,2.1,4.7,4.7v20.2
		C270,412,267.9,414.1,265.3,414.1z M234,388.5c-0.4,0-0.7,0.3-0.7,0.7v20.2c0,0.4,0.3,0.7,0.7,0.7h31.3c0.4,0,0.7-0.3,0.7-0.7
		v-20.2c0-0.4-0.3-0.7-0.7-0.7H234z"/>
	<path fill="#D4D4D4" d="M241.3,399.1c0,1.4-1.1,2.5-2.5,2.5h-5.2c-1.4,0-2.5-1.1-2.5-2.5l0,0c0-1.4,1.1-2.5,2.5-2.5h5.2
		C240.1,396.6,241.3,397.7,241.3,399.1L241.3,399.1z"/>
</g>
</svg>
