<?xml version="1.0" encoding="utf-8"?>
<!-- Generator: Adobe Illustrator 16.0.0, SVG Export Plug-In . SVG Version: 6.00 Build 0)  -->
<!DOCTYPE svg PUBLIC "-//W3C//DTD SVG 1.1//EN" "http://www.w3.org/Graphics/SVG/1.1/DTD/svg11.dtd">
<svg version="1.1" id="content" xmlns="http://www.w3.org/2000/svg" xmlns:xlink="http://www.w3.org/1999/xlink" x="0px" y="0px"
	 width="500px" height="500px" viewBox="0 0 500 500" enable-background="new 0 0 500 500" xml:space="preserve">
<rect id="position" x="0.5" y="0.5" display="none" fill="none" stroke="#000000" width="499" height="499"/>
<g>
	<path fill="#EBA718" d="M140.688,342.229V318.5c0,0-0.242,22.702,18.627,22.702s90.038,1.026,90.038,1.026l-4.843,8.193
		L140.688,342.229z"/>
	<polygon fill="#FFF700" points="248.156,355.104 139.944,355.104 140.688,342.229 249.353,342.229 	"/>
	<polygon fill="#E6DEC5" points="246.971,367.979 139.263,367.979 139.944,355.104 248.156,355.104 	"/>
	<polygon fill="#FFF700" points="245.763,380.854 138.459,380.854 139.263,367.979 246.971,367.979 	"/>
	<polygon fill="#D6CFB7" points="247.968,357.127 139.944,357.127 139.944,355.104 248.156,355.104 	"/>
</g>
<g>
	<path fill="#EBA718" d="M359.312,342.229V318.5c0,0,0.241,22.702-18.628,22.702c-18.868,0-90.038,1.026-90.038,1.026l4.845,8.193
		L359.312,342.229z"/>
</g>
<g>
	<polygon fill="#FFF700" points="224.709,355.104 360.056,355.104 359.312,342.229 223.511,342.229 	"/>
	<polygon fill="#E6DEC5" points="225.893,367.979 360.736,367.979 360.056,355.104 224.709,355.104 	"/>
	<polygon fill="#FFF700" points="227.101,380.854 361.54,380.854 360.736,367.979 225.893,367.979 	"/>
	<polygon fill="#D6CFB7" points="224.897,357.127 360.056,357.127 360.056,355.104 224.709,355.104 	"/>
</g>
</svg>
