<?xml version="1.0" encoding="utf-8"?>
<!-- Generator: Adobe Illustrator 16.0.4, SVG Export Plug-In . SVG Version: 6.00 Build 0)  -->
<!DOCTYPE svg PUBLIC "-//W3C//DTD SVG 1.1//EN" "http://www.w3.org/Graphics/SVG/1.1/DTD/svg11.dtd">
<svg version="1.1" id="content" xmlns="http://www.w3.org/2000/svg" xmlns:xlink="http://www.w3.org/1999/xlink" x="0px" y="0px"
	 width="500px" height="500px" viewBox="0 0 500 500" enable-background="new 0 0 500 500" xml:space="preserve">
<g id="bounds">
	<rect x="-0.1" y="80.3" fill="none" stroke="#EAEAEA" stroke-miterlimit="10" width="499.5" height="499.5"/>
</g>
<rect id="position" x="0.5" y="0.5" display="none" fill="none" stroke="#000000" width="499" height="499"/>
<g>
	<polygon fill="#EBA718" points="374.06,199.01 355.46,182.5 353.26,182.5 147.573,182.5 145.373,182.5 126.773,199.01 
		71.073,263.357 71.073,338.01 118.122,338.01 118.122,288.109 147.573,255.025 147.573,440.8 353.26,440.8 353.26,255.025 
		382.711,288.109 382.711,338.01 429.76,338.01 429.76,263.357 	"/>
	<g>
		<path fill="#D49715" d="M331.793,232.837c0,0.631-0.512,1.143-1.144,1.143h-30.008c-0.631,0-1.144-0.512-1.144-1.143v-12.003
			c0-0.631,0.512-1.143,1.144-1.143h30.008c0.632,0,1.144,0.512,1.144,1.143V232.837z"/>
		<path fill="#FFF8EB" d="M331.793,230.396c0,0.631-0.512,1.143-1.144,1.143h-30.008c-0.631,0-1.144-0.512-1.144-1.143v-12.003
			c0-0.631,0.512-1.143,1.144-1.143h30.008c0.632,0,1.144,0.512,1.144,1.143V230.396z"/>
		<path fill="#FCB31A" d="M215.444,269.503c0,2.886-2.339,5.224-5.224,5.224h-40.746c-2.885,0-5.224-2.338-5.224-5.224v-44.946
			c0-2.885,2.339-5.224,5.224-5.224h40.746c2.885,0,5.224,2.339,5.224,5.224V269.503z"/>
		<path opacity="0.5" fill="#CF9316" enable-background="new    " d="M168.604,222.067c-1.881,0-3.5,1.051-4.354,2.587v23.659
			c0.854,1.536,2.473,2.587,4.354,2.587h42.504c1.868,0,3.479-1.039,4.336-2.555v-23.723c-0.857-1.518-2.468-2.555-4.336-2.555
			H168.604z"/>
		<path fill="#F2AD19" d="M216.108,242.328c0,2.761-2.238,5-5,5h-42.504c-2.761,0-5-2.239-5-5v-18.833c0-2.761,2.239-5,5-5h42.504
			c2.762,0,5,2.239,5,5V242.328z"/>
		<path fill="none" stroke="#D49715" stroke-width="2" stroke-miterlimit="10" d="M286.725,202.691c0,2.761-2.238,5-5,5h-29.631
			c-2.762,0-5-2.239-5-5V187.5c0-2.761,2.239-5,5-5h29.631c2.762,0,5,2.239,5,5V202.691z"/>
		<rect x="237.533" y="182.5" fill="#D49715" width="23.634" height="258.3"/>
		<rect x="147.573" y="296.047" fill="#362F21" width="205.987" height="20.596"/>
		<path fill="#CF9315" d="M213.793,229.097c0-0.623-0.504-1.127-1.127-1.127h-21.067c-0.623,0-1.127,0.504-1.127,1.127l0,0
			c0,0.623,0.504,1.127,1.127,1.127h21.067C213.289,230.224,213.793,229.72,213.793,229.097L213.793,229.097z"/>
		<path fill="#CF9315" d="M213.793,233.816c0-0.623-0.504-1.127-1.127-1.127h-21.067c-0.623,0-1.127,0.504-1.127,1.127l0,0
			c0,0.623,0.504,1.127,1.127,1.127h21.067C213.289,234.943,213.793,234.439,213.793,233.816L213.793,233.816z"/>
		<path fill="#CF9315" d="M213.793,238.536c0-0.623-0.504-1.127-1.127-1.127h-21.067c-0.623,0-1.127,0.504-1.127,1.127l0,0
			c0,0.623,0.504,1.127,1.127,1.127h21.067C213.289,239.663,213.793,239.158,213.793,238.536L213.793,238.536z"/>
		<path fill="#4A402D" d="M217.25,234.34c0,5.523-4.478,10-10,10h-10.235c-5.522,0-10-4.477-10-10v-10.87c0-5.522,4.478-10,10-10
			h10.235c5.522,0,10,4.478,10,10V234.34z"/>
		<path fill="#2E281C" d="M213.793,229.097c0-0.623-0.504-1.127-1.127-1.127h-21.067c-0.623,0-1.127,0.504-1.127,1.127l0,0
			c0,0.623,0.504,1.127,1.127,1.127h21.067C213.289,230.224,213.793,229.72,213.793,229.097L213.793,229.097z"/>
		<path fill="#2E281C" d="M213.793,233.816c0-0.623-0.504-1.127-1.127-1.127h-21.067c-0.623,0-1.127,0.504-1.127,1.127l0,0
			c0,0.623,0.504,1.127,1.127,1.127h21.067C213.289,234.943,213.793,234.439,213.793,233.816L213.793,233.816z"/>
		<path fill="#2E281C" d="M213.793,238.536c0-0.623-0.504-1.127-1.127-1.127h-21.067c-0.623,0-1.127,0.504-1.127,1.127l0,0
			c0,0.623,0.504,1.127,1.127,1.127h21.067C213.289,239.663,213.793,239.158,213.793,238.536L213.793,238.536z"/>
		<path fill="none" stroke="#362F21" stroke-width="4" stroke-miterlimit="10" d="M202.132,241.65c0,0,1.696,66.995,89.343,66.995"
			/>
		<path fill="#4A402D" d="M353.76,317.5c0,0.553-0.447,1-1,1H197.5c-0.553,0-1-0.447-1-1V295c0-0.553,0.447-1,1-1h155.26
			c0.553,0,1,0.447,1,1V317.5z"/>
		<circle fill="#362F21" cx="219.625" cy="306.25" r="2.375"/>
		<circle fill="#362F21" cx="231.204" cy="306.25" r="2.375"/>
		<circle fill="#362F21" cx="242.783" cy="306.25" r="2.375"/>
		<circle fill="#362F21" cx="254.361" cy="306.25" r="2.375"/>
		<circle fill="#362F21" cx="265.941" cy="306.25" r="2.375"/>
		<circle fill="#362F21" cx="277.521" cy="306.25" r="2.375"/>
		<circle fill="#362F21" cx="289.1" cy="306.25" r="2.375"/>
		<circle fill="#362F21" cx="300.68" cy="306.25" r="2.375"/>
		<path fill="none" stroke="#E6DEC5" stroke-width="5" stroke-miterlimit="10" d="M267.898,294.5c0-0.553-0.447-1-1-1h-34.72
			c-0.552,0-1,0.447-1,1v24.598c0,0.553,0.448,1,1,1h34.72c0.553,0,1-0.447,1-1V294.5z"/>
		<path fill="#E6DEC5" d="M246.072,307.645c0,0.554-0.447,1-1,1h-13.826c-0.553,0-1-0.446-1-1v-2.787c0-0.553,0.447-1,1-1h13.826
			c0.553,0,1,0.447,1,1V307.645z"/>
		<path fill="none" stroke="#E6DEC5" stroke-width="5" stroke-linecap="round" stroke-miterlimit="10" d="M341.825,295.83
			c-3.345-4.664-8.812-7.703-14.987-7.702c-10.178,0-18.429,8.25-18.429,18.427c0,10.178,8.251,18.428,18.429,18.428
			c6.633,0,12.446-3.504,15.692-8.762"/>
		<path fill="none" stroke="#E6DEC5" stroke-width="5" stroke-linecap="round" stroke-miterlimit="10" d="M158.174,295.83
			c3.345-4.664,8.812-7.703,14.988-7.702c10.177,0,18.428,8.25,18.428,18.427c0,10.178-8.251,18.428-18.428,18.428
			c-6.634,0-12.447-3.504-15.693-8.762"/>
		<circle fill="#D49715" cx="269.793" cy="195.217" r="3.99"/>
	</g>
	<g>
		<polygon fill="#FFF700" points="247.506,453.675 146.829,453.675 147.573,440.8 248.704,440.8 		"/>
		<polygon fill="#E6DEC5" points="246.321,466.55 146.149,466.55 146.829,453.675 247.506,453.675 		"/>
		<polygon fill="#FFF700" points="245.114,479.425 145.344,479.425 146.149,466.55 246.321,466.55 		"/>
		<polygon fill="#D6CFB7" points="247.318,455.698 146.829,455.698 146.829,453.675 247.506,453.675 		"/>
	</g>
	<g>
		<polygon fill="#FFF700" points="234.193,453.675 353.39,453.675 352.646,440.8 229.193,440.8 		"/>
		<polygon fill="#E6DEC5" points="235.379,466.55 354.069,466.55 353.39,453.675 234.193,453.675 		"/>
		<polygon fill="#FFF700" points="236.586,479.425 354.873,479.425 354.069,466.55 235.379,466.55 		"/>
		<polygon fill="#D6CFB7" points="234.383,455.698 353.39,455.698 353.39,453.675 234.193,453.675 		"/>
	</g>
	<rect x="70.521" y="291.385" fill="#FFF700" width="48.238" height="12.875"/>
	<rect x="70.521" y="304.26" fill="#E6DEC5" width="48.238" height="12.875"/>
	<rect x="70.521" y="317.135" fill="#FFF700" width="48.238" height="12.875"/>
	<rect x="70.521" y="304.447" fill="#D6CFB7" width="48.238" height="2.021"/>
	<rect x="382.088" y="291.385" fill="#FFF700" width="48.236" height="12.875"/>
	<rect x="382.088" y="304.26" fill="#E6DEC5" width="48.236" height="12.875"/>
	<rect x="382.088" y="317.135" fill="#FFF700" width="48.236" height="12.875"/>
	<rect x="382.088" y="304.447" fill="#D6CFB7" width="48.236" height="2.021"/>
</g>
</svg>
