<?xml version="1.0" encoding="utf-8"?>
<!-- Generator: Adobe Illustrator 16.0.0, SVG Export Plug-In . SVG Version: 6.00 Build 0)  -->
<!DOCTYPE svg PUBLIC "-//W3C//DTD SVG 1.1//EN" "http://www.w3.org/Graphics/SVG/1.1/DTD/svg11.dtd">
<svg version="1.1" id="content" xmlns="http://www.w3.org/2000/svg" xmlns:xlink="http://www.w3.org/1999/xlink" x="0px" y="0px"
	 width="500px" height="500px" viewBox="0 0 500 500" enable-background="new 0 0 500 500" xml:space="preserve">
<g id="bounds" display="none">
	<rect x="-0.1" y="80.3" display="inline" fill="none" stroke="#EAEAEA" stroke-miterlimit="10" width="499.5" height="499.5"/>
</g>
<rect id="position" x="0.5" y="0.5" display="none" fill="none" stroke="#000000" width="499" height="499"/>
<g id="dress">
	<path fill="#302323" d="M374.053,192l-18.601-16.511H353.3h-1.047h-44.544c0,0-33.959,31.635-57.684,38.698
		c-23.724-7.063-57.683-38.698-57.683-38.698H147.8h-1h-2.2L126,192l-55.7,71v68h51.3v-49.9l35.2-42.218V440.08h186.5V238.923
		l35.152,42.177V321h51.301v-58L374.053,192z"/>
	<g>
		<path opacity="0.2" fill="#020202" enable-background="new    " d="M307.709,175.489c0,0-33.959,31.635-57.684,38.698
			c-23.724-7.063-57.683-38.698-57.683-38.698h-29.305l0.414,1.409c0.229,0.785,5.797,19.47,18.96,40.442
			c17.616,28.067,40.539,46.646,66.287,53.73l1.325,0.365l1.326-0.365c25.749-7.084,48.67-25.663,66.287-53.73
			c13.164-20.973,18.729-39.657,18.961-40.442l0.413-1.409H307.709z"/>
	</g>
	<polygon fill="#A30000" points="378.452,321 429.753,342.714 429.753,321 	"/>
	<polygon fill="#A30000" points="121.6,331 70.3,352.714 70.3,331 	"/>
	<polygon fill="#302323" points="342.362,350.891 249.555,351.975 156.818,350.891 120.864,453.5 249.555,463.5 379.301,453.922 	
		"/>
	<polygon fill="#8C0000" points="343.252,341.891 250,342.975 156.818,341.891 121,428.358 379,436.358 	"/>
	<polygon fill="#302323" points="343.252,341.521 250,341.521 156.818,341.521 116.682,416.188 380.319,406.188 	"/>
	<circle fill="#8C0000" cx="159.549" cy="378.854" r="4.27"/>
	<circle fill="#8C0000" cx="183.602" cy="378.229" r="4.27"/>
	<circle fill="#8C0000" cx="207.656" cy="377.604" r="4.27"/>
	<circle fill="#8C0000" cx="231.71" cy="376.979" r="4.27"/>
	<circle fill="#8C0000" cx="255.763" cy="376.354" r="4.27"/>
	<circle fill="#8C0000" cx="279.817" cy="375.729" r="4.27"/>
	<circle fill="#8C0000" cx="303.869" cy="375.104" r="4.27"/>
	<circle fill="#8C0000" cx="327.923" cy="374.479" r="4.27"/>
	<circle fill="#8C0000" cx="351.977" cy="373.854" r="4.27"/>
	<circle fill="#8C0000" cx="172.089" cy="357.765" r="4.269"/>
	<circle fill="#8C0000" cx="196.102" cy="357.39" r="4.269"/>
	<circle fill="#8C0000" cx="220.115" cy="357.015" r="4.269"/>
	<circle fill="#8C0000" cx="244.128" cy="356.64" r="4.269"/>
	<circle fill="#8C0000" cx="268.14" cy="356.265" r="4.269"/>
	<circle fill="#8C0000" cx="292.154" cy="355.89" r="4.269"/>
	<circle fill="#8C0000" cx="316.165" cy="355.515" r="4.269"/>
	<circle fill="#8C0000" cx="338.402" cy="355.14" r="4.269"/>
	<circle fill="#302323" cx="144.133" cy="422.377" r="4.27"/>
	<circle fill="#302323" cx="170.74" cy="422.26" r="4.27"/>
	<circle fill="#302323" cx="197.348" cy="422.141" r="4.269"/>
	<circle fill="#302323" cx="223.955" cy="422.023" r="4.269"/>
	<circle fill="#302323" cx="250.562" cy="421.905" r="4.269"/>
	<circle fill="#302323" cx="277.169" cy="421.787" r="4.269"/>
	<circle fill="#302323" cx="303.777" cy="421.67" r="4.269"/>
	<circle fill="#302323" cx="330.384" cy="421.552" r="4.269"/>
	<circle fill="#302323" cx="356.99" cy="421.434" r="4.269"/>
	<circle fill="#8C0000" cx="145.076" cy="400.568" r="4.27"/>
	<circle fill="#8C0000" cx="169.464" cy="399.568" r="4.269"/>
	<circle fill="#8C0000" cx="193.852" cy="398.568" r="4.269"/>
	<circle fill="#8C0000" cx="218.24" cy="397.568" r="4.269"/>
	<circle fill="#8C0000" cx="242.628" cy="396.568" r="4.269"/>
	<circle fill="#8C0000" cx="267.015" cy="395.568" r="4.269"/>
	<circle fill="#8C0000" cx="291.404" cy="394.568" r="4.269"/>
	<circle fill="#8C0000" cx="315.79" cy="393.568" r="4.269"/>
	<circle fill="#8C0000" cx="340.179" cy="392.568" r="4.269"/>
	<path fill="#8C0000" d="M379.301,453.922L250,461.84l-129.3-7.626l-3.774,16.927c55.873,12.606,130.229,14.577,133.075,14.577
		c2.844,0,77.201-1.971,133.073-14.577L379.301,453.922z"/>
	<path fill="#8C0000" d="M378.24,451.653l-9.026-9.027c-1.416-1.415-3.713-1.415-5.128,0l-9.027,9.027
		c-0.265,0.265-0.463,0.565-0.629,0.882l-8.388-8.388c-1.415-1.414-3.713-1.414-5.129,0l-9.026,9.026
		c-0.266,0.266-0.463,0.567-0.629,0.882l-8.388-8.387c-1.416-1.415-3.713-1.415-5.129,0l-9.026,9.027
		c-0.265,0.265-0.464,0.565-0.629,0.881l-8.388-8.387c-1.415-1.415-3.712-1.415-5.128,0l-9.026,9.026
		c-0.266,0.266-0.464,0.566-0.629,0.882l-8.389-8.388c-1.416-1.415-3.711-1.415-5.127,0l-9.027,9.027
		c-0.266,0.265-0.465,0.566-0.629,0.883l-8.388-8.387c-0.888-0.889-2.042-1.939-3.354-1.939c-1.312,0-2.467,1.052-3.354,1.939
		l-8.387,8.387c-0.166-0.315-0.364-0.618-0.629-0.883l-9.028-9.027c-1.416-1.415-3.712-1.415-5.128,0l-8.387,8.388
		c-0.166-0.314-0.364-0.616-0.629-0.882l-9.027-9.026c-1.416-1.415-3.712-1.415-5.128,0l-8.387,8.387
		c-0.166-0.314-0.364-0.616-0.629-0.881l-9.027-9.027c-1.416-1.415-3.712-1.415-5.128,0l-8.387,8.387
		c-0.166-0.313-0.364-0.616-0.629-0.882l-9.027-9.026c-1.416-1.414-3.712-1.414-5.128,0l-8.387,8.388
		c-0.166-0.315-0.364-0.617-0.63-0.882l-9.026-9.027c-1.416-1.415-3.712-1.415-5.128,0l-9.027,9.027
		c-1.415,1.416-1.415,3.711,0.001,5.127l9.027,9.026c1.416,1.415,3.711,1.415,5.126-0.001l8.388-8.389
		c0.166,0.315,0.365,0.618,0.63,0.884l9.027,9.027c1.416,1.415,3.711,1.415,5.125-0.001l8.388-8.388
		c0.166,0.314,0.365,0.617,0.63,0.884l9.028,9.026c1.416,1.415,3.711,1.415,5.125-0.001l8.388-8.388
		c0.166,0.315,0.365,0.617,0.63,0.883l9.027,9.027c1.416,1.415,3.711,1.415,5.126-0.001l8.388-8.388
		c0.166,0.314,0.365,0.616,0.631,0.883l9.026,9.026c1.416,1.416,3.711,1.416,5.126,0l8.389-8.388
		c0.166,0.315,0.364,0.618,0.63,0.884l9.026,9.027c0.886,0.884,2.244,1.41,3.354,1.41c1.108,0,2.468-0.526,3.354-1.41l9.027-9.027
		c0.266-0.266,0.464-0.567,0.63-0.884l8.388,8.388c1.416,1.416,3.711,1.416,5.127,0l9.027-9.026
		c0.265-0.267,0.464-0.567,0.629-0.883l8.39,8.388c1.414,1.416,3.71,1.416,5.126,0.001l9.026-9.027
		c0.265-0.266,0.464-0.566,0.63-0.883l8.389,8.388c1.414,1.416,3.709,1.416,5.125,0.001l9.027-9.026
		c0.266-0.267,0.465-0.568,0.631-0.884l8.39,8.388c1.414,1.416,3.709,1.416,5.125,0.001l9.026-9.027
		c0.267-0.266,0.465-0.567,0.631-0.884l8.389,8.389c1.415,1.416,3.71,1.416,5.126,0.001l9.026-9.026
		C379.655,455.364,379.655,453.069,378.24,451.653z"/>
	<polygon fill="#1F1616" points="123.663,439.135 375.447,439.135 374.906,436.358 125.736,428.505 	"/>
	<circle fill="#302323" cx="133.435" cy="461.757" r="5.431"/>
	<circle fill="#302323" cx="156.868" cy="463.566" r="5.431"/>
	<circle fill="#302323" cx="180.301" cy="465.375" r="5.431"/>
	<circle fill="#302323" cx="203.733" cy="467.184" r="5.431"/>
	<circle fill="#302323" cx="227.166" cy="468.994" r="5.431"/>
	<circle fill="#302323" cx="250.599" cy="470.711" r="5.431"/>
	<circle fill="#302323" cx="274.033" cy="468.92" r="5.431"/>
	<circle fill="#302323" cx="297.468" cy="467.129" r="5.431"/>
	<circle fill="#302323" cx="320.901" cy="465.339" r="5.431"/>
	<circle fill="#302323" cx="344.336" cy="463.548" r="5.431"/>
	<circle fill="#302323" cx="367.77" cy="461.757" r="5.431"/>
</g>
<path fill="#8C0000" d="M307.708,175.489c0,0-30.532,28.841-57.683,38.698c-27.15-9.857-57.683-38.698-57.683-38.698
	s-2.845-0.024-25.115-0.024c32.124,82.951,82.798,90.785,82.798,90.785s50.674-7.803,82.798-90.754
	C310.554,175.496,307.708,175.489,307.708,175.489z"/>
<path fill="#710D12" d="M317.464,175.477c0,0-18.983,36.502-67.383,52.248c-48.399-15.745-67.382-52.248-67.382-52.248s0,0-3.211,0
	c19.518,42.349,70.594,61.952,70.594,61.952s51.076-19.603,70.594-61.952C317.464,175.477,317.464,175.477,317.464,175.477z"/>
<path fill="#710D12" d="M208.526,223.48c-1.048-0.863-2.155-1.93-3.401-3.04c-0.619-0.561-1.263-1.144-1.929-1.749
	c-0.627-0.645-1.276-1.312-1.943-1.998c-1.322-1.381-2.767-2.785-4.084-4.405c-1.347-1.59-2.793-3.182-4.081-4.952
	c-0.663-0.868-1.332-1.742-2.002-2.62c-0.669-0.878-1.265-1.817-1.902-2.725c-0.621-0.919-1.268-1.818-1.865-2.746
	c-0.581-0.938-1.159-1.874-1.733-2.801c-1.186-1.829-2.161-3.747-3.196-5.542c-0.963-1.836-1.888-3.615-2.704-5.329
	c-0.801-1.722-1.569-3.342-2.194-4.875c-0.666-1.515-1.197-2.933-1.685-4.181c-0.136-0.365-0.264-0.713-0.387-1.051
	c-1.253,0-2.591-0.001-4.033-0.001c0.296,0.729,0.635,1.539,1.02,2.431c0.568,1.266,1.191,2.7,1.953,4.224
	c0.721,1.543,1.592,3.168,2.502,4.891c0.924,1.714,1.961,3.488,3.04,5.315c1.15,1.785,2.243,3.686,3.546,5.495
	c0.632,0.916,1.269,1.839,1.909,2.765c0.655,0.915,1.36,1.801,2.039,2.703c0.695,0.891,1.347,1.812,2.073,2.672
	c0.727,0.859,1.45,1.714,2.168,2.562c1.395,1.729,2.945,3.276,4.39,4.817c1.414,1.57,2.951,2.923,4.356,4.251
	c0.708,0.659,1.396,1.299,2.062,1.919c0.704,0.576,1.384,1.134,2.037,1.668c1.314,1.059,2.479,2.073,3.578,2.89
	c1.117,0.791,2.091,1.48,2.894,2.049c1.602,1.134,2.517,1.781,2.517,1.781l0.239-0.346c0,0-0.878-0.69-2.415-1.897
	C210.525,225.05,209.594,224.319,208.526,223.48z"/>
<path fill="#710D12" d="M297.556,219.509c0.666-0.62,1.354-1.26,2.062-1.919c1.404-1.328,2.941-2.681,4.355-4.251
	c1.445-1.541,2.996-3.088,4.391-4.817c0.719-0.848,1.441-1.702,2.168-2.562s1.379-1.781,2.073-2.672
	c0.679-0.902,1.384-1.788,2.038-2.703c0.641-0.926,1.277-1.849,1.909-2.765c1.304-1.809,2.396-3.71,3.546-5.495
	c1.078-1.827,2.115-3.601,3.039-5.315c0.91-1.722,1.781-3.348,2.502-4.891c0.762-1.524,1.385-2.958,1.953-4.224
	c0.379-0.88,0.714-1.679,1.007-2.401c-1.441,0-2.779,0-4.031,0c-0.12,0.329-0.244,0.667-0.376,1.022
	c-0.488,1.249-1.02,2.666-1.686,4.181c-0.624,1.533-1.393,3.153-2.193,4.875c-0.816,1.714-1.74,3.493-2.703,5.329
	c-1.035,1.795-2.012,3.712-3.197,5.542c-0.573,0.927-1.152,1.862-1.732,2.801c-0.598,0.928-1.244,1.827-1.865,2.746
	c-0.637,0.907-1.232,1.847-1.901,2.725c-0.671,0.878-1.339,1.752-2.003,2.62c-1.287,1.771-2.732,3.362-4.08,4.952
	c-1.317,1.62-2.763,3.024-4.084,4.405c-0.668,0.686-1.316,1.354-1.943,1.998c-0.667,0.605-1.311,1.188-1.93,1.749
	c-1.246,1.11-2.354,2.177-3.401,3.04c-1.068,0.839-1.999,1.57-2.767,2.174c-1.537,1.207-2.415,1.897-2.415,1.897l0.239,0.346
	c0,0,0.915-0.647,2.517-1.781c0.802-0.568,1.776-1.258,2.894-2.049c1.099-0.816,2.264-1.831,3.578-2.89
	C296.171,220.643,296.852,220.085,297.556,219.509z"/>
</svg>
