<?xml version="1.0" encoding="utf-8"?>
<!-- Generator: Adobe Illustrator 18.0.0, SVG Export Plug-In . SVG Version: 6.00 Build 0)  -->
<!DOCTYPE svg PUBLIC "-//W3C//DTD SVG 1.1//EN" "http://www.w3.org/Graphics/SVG/1.1/DTD/svg11.dtd">
<svg version="1.1" id="content" xmlns="http://www.w3.org/2000/svg" xmlns:xlink="http://www.w3.org/1999/xlink" x="0px" y="0px"
	 width="500px" height="500px" viewBox="0 0 500 500" enable-background="new 0 0 500 500" xml:space="preserve">
<rect id="position" x="0.5" y="0.5" display="none" fill="none" stroke="#000000" width="499" height="499"/>
<g>
	<path fill="#D35EBD" d="M278.4,175.6c0,15.7-12.7,28.4-28.4,28.4c-15.7,0-28.4-12.7-28.4-28.4h-105v304.7h265.8V175.6H278.4z"/>
	<path opacity="0.1" d="M250,200.7c-13.9,0-25.2-11.3-25.2-25.2H215c0,19.3,15.7,35,35,35s35-15.7,35-35h-9.8
		C275.2,189.4,263.9,200.7,250,200.7z"/>
	<g>
		<g opacity="0.1">
			<path d="M250,254.5c1.3-4.1,3.3-7.2,5.9-9.3c2.7-2.1,5.9-3.2,9.7-3.2c4.5,0,8.1,1.4,10.8,4.1c2.7,2.7,4.1,6.4,4.1,10.9
				c0,4-1,7.2-2.9,9.6s-5.6,4.8-11,7l-0.7,0.3c-8.9,3.7-14.2,8.9-16.1,13.5c-1.9-4.6-7.3-9.8-16.1-13.5c-0.3-0.1-0.6-0.2-0.8-0.3
				c-5.4-2.3-9.1-4.6-11-7c-1.9-2.4-2.8-5.6-2.8-9.6c0-4.5,1.4-8.2,4.1-10.9c2.7-2.7,6.4-4.1,10.8-4.1c3.8,0,7.1,1.1,9.7,3.2
				C246.7,247.4,248.7,250.4,250,254.5z"/>
		</g>
		<g>
			<path fill="#FF85E8" d="M250,251.3c1.3-4.1,3.3-7.2,5.9-9.3c2.7-2.1,5.9-3.2,9.7-3.2c4.5,0,8.1,1.4,10.8,4.1s4.1,6.4,4.1,10.9
				c0,4-1,7.2-2.9,9.6s-5.6,4.8-11,7l-0.7,0.3c-8.9,3.7-14.2,7.9-16.1,12.5c-1.9-4.6-7.3-8.8-16.1-12.5c-0.3-0.1-0.6-0.2-0.8-0.3
				c-5.4-2.3-9.1-4.6-11-7c-1.9-2.4-2.8-5.6-2.8-9.6c0-4.5,1.4-8.2,4.1-10.9c2.7-2.7,6.4-4.1,10.8-4.1c3.8,0,7.1,1.1,9.7,3.2
				C246.7,244.2,248.7,247.3,250,251.3z"/>
		</g>
	</g>
	<path fill="#FF85E8" d="M250,199.4c-13.1,0-23.7-10.7-23.7-23.7H217c0,18.2,14.8,33,33,33s33-14.8,33-33h-9.3
		C273.7,188.7,263.1,199.4,250,199.4z"/>
</g>
</svg>
