<?xml version="1.0" encoding="utf-8"?>
<!-- Generator: Adobe Illustrator 16.0.0, SVG Export Plug-In . SVG Version: 6.00 Build 0)  -->
<!DOCTYPE svg PUBLIC "-//W3C//DTD SVG 1.1//EN" "http://www.w3.org/Graphics/SVG/1.1/DTD/svg11.dtd">
<svg version="1.1" id="content" xmlns="http://www.w3.org/2000/svg" xmlns:xlink="http://www.w3.org/1999/xlink" x="0px" y="0px"
	 width="500px" height="500px" viewBox="0 0 500 500" enable-background="new 0 0 500 500" xml:space="preserve">
<g id="bounds">
	<rect x="-0.013" y="0.25" fill="none" stroke="#EAEAEA" stroke-miterlimit="10" width="499.501" height="499.5"/>
</g>
<rect id="position" x="0.5" y="0.5" display="none" fill="none" stroke="#000000" width="499" height="499"/>
<g>
	<path fill="#1E5D87" d="M141.425,385.914l24.413-12.452c1.285-0.648,2.171-0.979,2.568-1.015l0.213-0.03
		c0.372,0,0.914,0.142,1.581,0.498l0.172,0.055l0.681-0.725l0.172-0.217l-9.283-8.293l-0.73,0.791l-0.134,0.191l0.134,0.188
		c0.424,0.553,0.61,1.016,0.61,1.338l-0.21,0.615c-0.257,0.271-0.807,0.667-1.66,1.077l-16.488,8.573l6.716-17.719
		c0.271-0.752,0.5-1.201,0.637-1.354l0.826-0.383c0.336,0,0.752,0.115,1.236,0.383l0.156,0.082l0.678-0.768l0.213-0.213
		l-9.822-8.745l-0.708,0.793l-0.156,0.216l0.128,0.156c0.389,0.527,0.555,0.934,0.555,1.25l-0.265,0.672
		c-0.087,0.137-0.558,0.445-1.31,0.803l-17.197,8.48l6.855-17.596c0.285-0.694,0.555-1.164,0.777-1.416l0.738-0.346l1.107,0.346
		l0.208,0.093l0.665-0.788l0.169-0.189l-9.39-8.379l-0.728,0.83l-0.128,0.156l0.121,0.186c0.454,0.578,0.65,1.132,0.65,1.654
		c0,0.528-0.227,1.477-0.684,2.734l-9.639,25.668c-0.454,1.225-0.836,1.977-0.921,2.062l-0.957,0.475l-1.11-0.377l-0.2-0.091
		l-0.673,0.757l-0.178,0.198l8.687,7.782l0.744-0.793l0.147-0.151l-0.123-0.17c-0.427-0.647-0.596-1.104-0.596-1.487l0.254-0.676
		c0.106-0.098,0.703-0.459,1.736-0.907l18.607-9.333l-7.123,19.068c-0.394,1.232-0.719,1.993-0.892,2.141l-0.886,0.456
		c-0.347,0-0.749-0.139-1.217-0.437l-0.2-0.121l-0.678,0.785l-0.167,0.227l8.818,7.886l0.708-0.82l0.175-0.2l-0.148-0.148
		c-0.446-0.538-0.615-0.979-0.615-1.312l0.287-0.695C139.55,386.956,140.266,386.493,141.425,385.914z"/>
	<path fill="#1E5D87" d="M175.818,371.276l-0.457,0.969l-0.079,0.166l0.134,0.162c0.468,0.445,0.673,0.872,0.673,1.285l-0.14,0.558
		c-0.222,0.374-0.651,0.897-1.359,1.435l-23.146,18.305c-0.848,0.684-1.463,1.102-1.873,1.211l-0.632,0.088l-0.899-0.132
		l-0.227-0.062l-0.473,0.907l-0.128,0.241l10.782,5.282l0.498-0.984l0.093-0.2l-0.172-0.133c-0.621-0.51-0.883-0.98-0.883-1.357
		l0.106-0.44c0.156-0.276,0.487-0.679,1.066-1.13l4.228-3.341l13.683,6.864v5.271c0,0.758-0.079,1.291-0.175,1.531
		c-0.249,0.441-0.561,0.637-1.113,0.673l-0.815-0.123l-0.178-0.073l-0.465,0.948l-0.101,0.219l11.919,5.87l0.468-0.976l0.087-0.229
		l-0.159-0.131c-0.552-0.395-0.897-0.84-1.066-1.328c-0.172-0.52-0.298-1.406-0.298-2.643l-0.123-29.812
		c0-0.681,0.098-1.231,0.276-1.586c0.205-0.374,0.531-0.563,1.176-0.602l0.544,0.055l0.684-0.87l0.106-0.227L175.818,371.276z
		 M176.767,395.206l-9.417-4.641l9.778-7.932L176.767,395.206z"/>
	<path fill="#1E5D87" d="M230.279,394.673c-0.369-1.636-1.118-3.064-2.286-4.231c-0.979-1.034-2.22-1.827-3.71-2.497
		c-1.496-0.611-3.514-1.164-6.098-1.738l-21.462-4.463l-0.262,1.053c0.708,0.582,1.033,0.84,1.14,1.104l0.123,0.561l-0.03,0.484
		l-5.991,28.746l-0.49,0.914c-0.232,0.125-0.624,0.279-1.228,0.295l-0.429,1.004l-0.049,0.229l11.085,2.354l0.238-1.08
		c-0.659-0.553-0.971-0.82-1.126-1.047l-0.142-0.613l0.055-0.416l2.316-11.016l8.775,1.84l4.569,11.254
		c0.481,1.16,0.736,1.926,0.714,2.193v0.082c-0.052,0.208-0.276,0.372-0.99,0.377h-0.205l-0.449,1.016l-0.041,0.265l12.775,2.646
		l0.227-1.027l0.055-0.249l-0.254-0.066c-0.716-0.205-1.252-0.53-1.638-1.093c-0.432-0.555-1.063-1.799-1.873-3.64l-4.454-10.36
		h0.664c5.75,0.029,9.341-2.689,10.432-8.021c0.162-0.849,0.257-1.73,0.257-2.545C230.495,396.209,230.421,395.433,230.279,394.673z
		 M222.363,397.831c-0.394,1.711-1.197,2.698-2.502,3.084c-0.486,0.146-1.003,0.246-1.534,0.246l-0.408-0.008
		c-0.697-0.077-1.9-0.255-3.574-0.624L203.18,398.2l1.753-8.376l11.148,2.343c1.75,0.326,2.923,0.64,3.544,0.843
		c0.59,0.229,1.148,0.574,1.676,1.025c0.776,0.632,1.154,1.46,1.154,2.593L222.363,397.831z"/>
	<path fill="#1E5D87" d="M271.051,421.151c-0.508-0.42-1.443-1.434-2.689-3.067l-6.859-8.972c5.826-1.23,8.844-4.588,8.838-9.882
		l-0.014-0.571c-0.072-1.707-0.443-3.287-1.127-4.758c-0.76-1.518-1.85-2.732-3.254-3.549c-1.244-0.752-2.641-1.26-4.229-1.499
		c-1.13-0.167-2.521-0.241-4.152-0.241c-0.685,0-1.428,0.014-2.183,0.055l-21.646,0.873l-0.23,1.062
		c0.769,0.381,1.168,0.588,1.37,0.821c0.178,0.167,0.301,0.511,0.317,0.984l1.17,29.294v0.109l-0.281,0.896
		c-0.145,0.197-0.533,0.418-1.1,0.637l-0.178,1.069l11.124-0.164l0.191-1.124c-0.785-0.348-1.129-0.533-1.326-0.749
		c-0.21-0.208-0.344-0.526-0.366-0.985l-0.432-11.197l8.966-0.355l7.186,9.775c0.817,1.1,1.22,1.838,1.22,2.002v0.023
		c0,0.256-0.224,0.518-1.056,0.693l-0.164,1.062l12.769-0.226l0.233-1.094C272.178,421.816,271.576,421.584,271.051,421.151z
		 M260.627,402.521c-0.552,0.322-1.189,0.531-1.848,0.664c-0.678,0.131-1.891,0.219-3.596,0.309l-11.407,0.449l-0.364-8.822
		l0.418-0.021l11.017-0.145c0.854-0.057,1.586-0.076,2.23-0.076c0.593,0,1.056,0.035,1.386,0.076
		c0.634,0.05,1.271,0.236,1.884,0.528c1.164,0.579,1.834,1.69,1.916,3.445v0.255C262.266,400.806,261.707,401.86,260.627,402.521z"
		/>
	<path fill="#1E5D87" d="M288.727,417.056c-0.24-0.161-0.422-0.475-0.531-0.938l-6.322-28.656l-0.062-0.479l0.127-0.545
		c0.136-0.234,0.465-0.538,0.976-0.793l-0.009-1.101l-0.073-0.269l-11.093,2.438l0.224,1.08c0.877,0.234,1.276,0.371,1.492,0.533
		l0.515,0.877l6.327,28.662l0.041,0.506l-0.104,0.544c-0.142,0.229-0.451,0.533-0.99,0.815l0.033,1.104l0.072,0.25l11.102-2.461
		l-0.245-1.053C289.355,417.378,288.955,417.253,288.727,417.056z"/>
	<path fill="#1E5D87" d="M328.391,385.772c-2.158-5.026-5.682-8.422-10.531-10.131c-1.844-0.681-3.824-0.993-5.829-0.993
		c-2.985,0-6.152,0.72-9.483,2.13c-7.434,3.284-11.708,8.195-12.665,14.682c-0.144,0.918-0.224,1.85-0.224,2.73
		c0,2.494,0.521,4.865,1.496,7.228c0.945,2.218,2.269,4.132,3.916,5.815c1.896,1.873,4.065,3.26,6.553,4.119
		c1.865,0.67,3.818,1.017,5.873,1.017c2.941,0,6.079-0.708,9.399-2.124c7.399-3.14,11.657-8.084,12.688-14.709
		c0.153-1.004,0.228-1.988,0.228-2.92C329.802,390.248,329.301,387.97,328.391,385.772z M321.738,393.634
		c0,1.738-0.322,3.368-1.064,4.867c-1.188,2.607-3.283,4.533-6.314,5.818c-1.762,0.74-3.453,1.129-5.104,1.129
		c-1.188,0-2.341-0.188-3.505-0.576c-3.221-1.1-5.559-3.312-7.004-6.67c-0.727-1.723-1.057-3.365-1.057-4.955
		c0-1.604,0.33-3.204,1.066-4.744c1.244-2.625,3.333-4.533,6.316-5.816c1.766-0.744,3.502-1.118,5.193-1.118
		c1.146,0,2.31,0.183,3.451,0.544c3.184,1.042,5.514,3.301,7.041,6.828c0.656,1.457,0.953,2.945,0.979,4.539L321.738,393.634
		L321.738,393.634z"/>
	<path fill="#1E5D87" d="M371.46,373.317l-0.134-0.186l-0.232,0.123c-0.533,0.396-1.127,0.551-1.734,0.562h-0.194
		c-0.647-0.062-1.996-0.379-3.937-0.965l-10.763-3.369c2.271-2.49,3.413-4.998,3.413-7.483c0-2.081-0.788-4.156-2.319-6.12
		c-1.015-1.356-2.272-2.439-3.687-3.24c-1.287-0.691-2.652-1.055-4.084-1.033l-0.624,0.021c-1.405,0.079-2.839,0.506-4.284,1.236
		c-1.444,0.697-3.197,1.887-5.311,3.537l-17.355,13.385l0.673,0.834l0.098,0.141l0.2-0.072l1.058-0.252l0.205,0.021l0.884,0.651
		l17.874,23.22l0.388,0.92v0.068c-0.021,0.229-0.189,0.637-0.557,1.129l-0.104,0.161l0.626,0.825l0.18,0.225l8.979-6.939
		l-0.674-0.862l-0.117-0.18l-0.211,0.093l-1.033,0.254l-0.175-0.021l-0.88-0.623l-6.831-8.871l7.082-5.485l11.562,3.851
		c1.31,0.377,2.103,0.822,2.164,0.907l0.089,0.228l-0.554,0.904l-0.151,0.144l0.646,0.872l0.147,0.225l10.353-8.006L371.46,373.317z
		 M349.877,364.63c-0.251,0.588-0.629,1.129-1.126,1.607c-0.47,0.521-1.397,1.311-2.739,2.338l-9.049,6.953l-5.211-6.77l9.042-6.938
		c1.337-1.077,2.36-1.761,2.939-2.121c0.55-0.332,1.173-0.531,1.812-0.619l0.527-0.06c1.135,0,2.133,0.538,3.06,1.723
		c0.686,0.902,0.998,1.753,0.998,2.57L349.877,364.63z"/>
	<path fill="#1E5D87" d="M392.109,343.091c-0.486-2.461-1.689-4.498-3.646-6.068c-1.229-0.992-2.604-1.684-4.105-2.014
		c-0.721-0.176-1.396-0.229-2.1-0.229c-0.785,0-1.542,0.105-2.308,0.295c-1.337,0.405-2.647,1.037-3.965,1.914
		c-1.285,0.867-2.789,2.148-4.468,3.834l-2.835,2.847c-1.854,1.914-3.153,3.097-3.839,3.557c-0.682,0.452-1.302,0.673-1.846,0.673
		c-0.484,0-0.946-0.15-1.397-0.531c-0.528-0.453-0.88-1.047-0.997-1.887l-0.072-0.729c0-0.624,0.131-1.299,0.371-1.996
		c0.525-1.294,1.346-2.656,2.473-4.022c2.512-3.104,5.515-5.16,8.992-6.186c0.496-0.146,0.955-0.227,1.314-0.227l0.803,0.219
		l0.266,0.285l1.044-0.285l0.229-0.104l-3.932-8.832l-0.227,0.113l-0.771,0.312c-0.156,0.848-0.254,1.217-0.426,1.422
		c-0.035,0.074-0.604,0.455-1.475,0.949c-2.789,1.488-4.908,2.817-6.515,4.031c-1.562,1.188-3.058,2.671-4.444,4.432
		c-3.1,3.793-4.65,7.418-4.65,10.895l0.064,0.912c0.217,2.83,1.502,5.236,3.854,7.113c1.408,1.135,2.939,1.837,4.547,2.107
		c0.481,0.064,0.955,0.096,1.449,0.096c1.277,0,2.48-0.234,3.65-0.809c1.129-0.496,2.136-1.107,3.031-1.816
		c0.866-0.697,2.227-1.957,4.084-3.848l2.803-2.789c1.834-1.844,3.205-2.988,3.962-3.43c0.506-0.299,0.979-0.424,1.433-0.424
		l1.329,0.527c0.521,0.432,0.925,1.023,1.13,1.838l0.133,1.194c0,0.438-0.049,0.889-0.153,1.376c-0.396,1.66-1.29,3.377-2.679,5.091
		c-1.283,1.586-2.943,3.028-4.906,4.315c-1.98,1.354-3.673,2.138-5.062,2.348l-0.659,0.066c-0.605,0-1.061-0.153-1.447-0.494
		l-0.259-0.217l-1.026,0.334l-0.252,0.107l4.469,8.755l0.998-0.433c0.178-0.814,0.23-1.224,0.307-1.27
		c0.023-0.006,0.576-0.375,1.498-0.829c4.541-2.103,8.299-4.938,11.203-8.531c1.635-2.005,2.92-4.102,3.836-6.218
		c0.916-2.166,1.396-4.08,1.396-5.906C392.299,344.302,392.255,343.687,392.109,343.091z"/>
	<path fill="#1E5D87" d="M385.674,241.13c0,76.671-62.146,138.828-138.838,138.828c-76.696,0-138.852-62.157-138.852-138.828
		c0-76.681,62.155-138.888,138.852-138.888C323.526,102.242,385.674,164.449,385.674,241.13"/>
	<path fill="#1E5D87" d="M130.693,146.044l-0.552-0.112l-3.62-2.641l-0.427-0.555c-0.008-0.175,0.115-0.5,0.355-0.968l-0.571-0.432
		l-5.849,7.995l-0.631,0.555l-0.902-0.222l-0.418,0.558l4.083,3.002l0.432-0.566l-0.624-0.899l0.298-0.798l2.994-4.102l2.751,2.004
		c-0.271,0.861-0.654,1.849-1.167,2.961c-0.498,1.124-1.201,2.278-2.089,3.498c-0.577,0.793-1.266,1.493-2.064,2.111
		c-0.785,0.615-1.635,1.061-2.557,1.323c-0.905,0.241-1.878,0.304-2.915,0.107c-1.02-0.172-2.062-0.659-3.104-1.428
		c-1.061-0.766-1.84-1.61-2.308-2.523c-0.467-0.914-0.73-1.873-0.749-2.811c-0.022-0.949,0.139-1.898,0.487-2.838
		c0.344-0.943,0.804-1.808,1.386-2.598c0.462-0.64,1.009-1.285,1.61-1.941c0.607-0.64,1.225-1.203,1.849-1.685
		c0.626-0.479,1.214-0.817,1.761-1.009c0.539-0.213,0.974-0.213,1.291,0.036l0.339,0.339l0.651-0.508l-2.828-4.958l-0.506,0.224
		l-0.016,0.492l-0.2,0.53l-0.804,0.665c-0.462,0.355-1.006,0.777-1.651,1.321c-0.651,0.528-1.345,1.179-2.092,1.958
		c-0.755,0.766-1.474,1.586-2.157,2.529c-1.097,1.493-1.893,2.994-2.396,4.509c-0.506,1.518-0.697,2.989-0.596,4.399
		c0.109,1.422,0.514,2.762,1.211,4.006c0.711,1.247,1.731,2.374,3.084,3.35c1.342,0.984,2.712,1.627,4.121,1.912
		c1.4,0.306,2.789,0.271,4.165-0.063c1.373-0.358,2.693-0.984,3.973-1.925c1.263-0.957,2.45-2.18,3.535-3.67
		c0.563-0.763,1.116-1.588,1.657-2.406c0.55-0.831,1.017-1.725,1.427-2.644c0.396-0.932,0.722-1.903,0.974-2.915
		c0.257-1.006,0.385-2.043,0.413-3.109l-0.511-0.383L130.693,146.044z M149.577,118.566c-1.225-1.345-2.592-2.245-4.071-2.696
		c-1.479-0.443-2.978-0.577-4.477-0.38c-1.506,0.205-2.967,0.632-4.364,1.315c-1.419,0.692-2.658,1.531-3.727,2.516
		c-1.077,0.968-2.021,2.125-2.849,3.478c-0.812,1.329-1.386,2.737-1.72,4.216c-0.322,1.469-0.339,2.978-0.016,4.498
		c0.306,1.51,1.072,2.942,2.305,4.307c1.225,1.329,2.589,2.248,4.066,2.693c1.482,0.454,2.978,0.572,4.49,0.38
		c1.507-0.2,2.942-0.651,4.323-1.359c1.375-0.73,2.6-1.592,3.68-2.565c1.072-0.979,2.035-2.103,2.879-3.423
		c0.848-1.307,1.436-2.705,1.753-4.181c0.342-1.485,0.347-2.975,0.03-4.49C151.567,121.352,150.802,119.917,149.577,118.566z
		 M147.832,127.146c-0.194,0.979-0.555,1.933-1.077,2.838c-0.528,0.921-1.17,1.714-1.912,2.368
		c-0.741,0.684-1.583,1.266-2.537,1.698c-0.96,0.432-1.934,0.697-2.926,0.829c-0.998,0.09-1.969,0-2.939-0.306
		c-0.955-0.312-1.813-0.87-2.554-1.693c-0.744-0.831-1.233-1.736-1.452-2.704c-0.213-0.984-0.222-1.969-0.03-2.956
		c0.191-0.981,0.561-1.917,1.091-2.83c0.525-0.905,1.154-1.701,1.898-2.371c0.735-0.681,1.586-1.239,2.548-1.687
		c0.954-0.451,1.922-0.722,2.923-0.823c0.993-0.096,1.975-0.008,2.942,0.301c0.949,0.304,1.796,0.881,2.548,1.707
		c0.75,0.826,1.23,1.733,1.444,2.693C148.013,125.191,148.026,126.176,147.832,127.146z M175.693,108.706l0.071,0.839l-0.672,0.741
		l-11.189,6.942l-8.307-13.412c-0.246-0.394-0.063-0.793,0.568-1.187l-0.383-0.602l-5.786,3.584l0.377,0.615
		c0.67-0.432,1.137-0.44,1.378-0.027l9.488,15.283c0.249,0.394,0.036,0.817-0.637,1.25l0.375,0.596l16.026-9.942l0.867-0.454
		l0.675,0.38l0.61-0.38l-2.86-4.602L175.693,108.706z M197.592,88.272c-0.976-1.006-2.045-1.742-3.224-2.204
		c-1.179-0.451-2.428-0.65-3.749-0.59c-1.326,0.074-2.655,0.394-4.009,0.924l-12.223,4.84l0.271,0.684
		c0.547-0.227,0.927-0.129,1.107,0.312l6.645,16.731c0.169,0.435-0.017,0.766-0.588,0.984l0.262,0.662l12.229-4.856
		c1.345-0.542,2.521-1.225,3.538-2.095c1.012-0.848,1.786-1.846,2.327-2.98c0.544-1.132,0.809-2.42,0.82-3.836
		c0.011-1.4-0.317-2.932-0.963-4.575C199.38,90.632,198.571,89.305,197.592,88.272z M196.192,99.792
		c-0.361,0.706-0.935,1.354-1.712,1.887c-0.782,0.528-1.755,1.036-2.912,1.487l-5.701,2.275l-5.184-13.035l5.709-2.267
		c1.154-0.459,2.204-0.763,3.134-0.905c0.94-0.139,1.786-0.09,2.562,0.186c0.755,0.282,1.441,0.798,2.056,1.507
		c0.618,0.735,1.176,1.72,1.688,3.002c0.506,1.28,0.787,2.379,0.842,3.342C196.714,98.22,196.567,99.056,196.192,99.792z
		 M227.963,92.168l-0.232,0.812l-0.899,0.451l-12.991,2.527l-1.036-5.352l7.612-1.493c0.52-0.096,0.941-0.09,1.261,0.024
		c0.325,0.109,0.539,0.462,0.648,1.072l0.703-0.158L221.848,84l-0.7,0.142c0.112,0.591,0.041,0.99-0.21,1.192
		c-0.257,0.199-0.64,0.336-1.162,0.435l-7.621,1.496l-0.943-4.815l12.597-2.458c0.539-0.106,0.946-0.106,1.189-0.005l0.462,0.574
		l0.691-0.153l-0.998-5.127l-0.7,0.143l-0.194,0.746c-0.188,0.219-0.563,0.369-1.11,0.468l-17.716,3.464l0.131,0.703l0.514,0.082
		l0.325,0.481l3.44,17.645l-0.109,0.566l-0.457,0.271l0.142,0.708l18.121-3.549l0.962-0.09l0.512,0.58l0.689-0.128l-1.047-5.348
		L227.963,92.168z M253.146,75.83c0.689,0,1.029,0.232,1.029,0.7v12.594l-11.373-11.801c-0.53-0.509-0.785-0.889-0.785-1.097
		l0.312-0.407v-0.708l-6.778-0.008l0.008,0.73c0.492-0.011,0.752,0.224,0.752,0.705V94.53c-0.008,0.471-0.257,0.708-0.76,0.708
		v0.684h5.865l0.005-0.684c-0.607,0-0.913-0.227-0.913-0.722V81.367L252.6,93.97l0.623,0.908l-0.502,0.361v0.697h6.413v-0.697
		c-0.512,0-0.755-0.224-0.766-0.708l0.014-17.979c0-0.476,0.24-0.705,0.752-0.705v-0.725h-5.981L253.146,75.83L253.146,75.83z
		 M287.055,84.302c0.379-0.203,0.844-0.333,1.396-0.377c0.529-0.041,1.104-0.033,1.729,0.055c0.637,0.079,1.225,0.191,1.774,0.342
		c0.748,0.219,1.459,0.495,2.162,0.834c0.696,0.345,1.334,0.716,1.907,1.135c0.571,0.388,1.052,0.82,1.435,1.244l0.767,1.176
		l0.064,0.957l0.345,0.282l3.979-4.058l-0.377-0.424l-0.826,0.011l-1.154-0.648c-0.443-0.348-0.992-0.722-1.65-1.154
		c-0.666-0.445-1.459-0.889-2.396-1.373s-2.078-0.908-3.424-1.296c-1.586-0.427-3.002-0.613-4.275-0.588
		c-1.274,0.049-2.379,0.257-3.301,0.624c-0.937,0.375-1.683,0.891-2.269,1.55c-0.58,0.665-0.977,1.392-1.188,2.166
		c-0.333,1.176-0.374,2.188-0.133,3.046c0.241,0.845,0.685,1.572,1.284,2.193c0.609,0.634,1.354,1.156,2.226,1.597
		c0.873,0.44,1.786,0.826,2.738,1.173c0.944,0.339,1.887,0.665,2.794,0.971c0.921,0.29,1.738,0.61,2.415,0.936
		c0.687,0.342,1.217,0.684,1.588,1.094c0.372,0.407,0.474,0.905,0.299,1.482c-0.161,0.588-0.526,0.981-1.106,1.211
		c-0.588,0.224-1.238,0.339-1.961,0.363c-0.705,0.022-1.438-0.03-2.142-0.164c-0.682-0.12-1.271-0.249-1.694-0.369
		c-0.592-0.169-1.242-0.416-1.929-0.766c-0.7-0.361-1.346-0.722-1.979-1.151c-0.602-0.41-1.125-0.832-1.562-1.269l-0.807-1.206
		l0.021-0.662l-0.341-0.282l-3.389,4.028l0.448,0.454l0.584-0.164l0.912,0.542c0.324,0.298,0.783,0.67,1.36,1.077
		c0.585,0.432,1.341,0.856,2.271,1.296c0.936,0.44,2.119,0.856,3.578,1.26c1.039,0.298,2.191,0.531,3.439,0.697
		c1.264,0.181,2.479,0.167,3.664-0.027c1.17-0.197,2.225-0.609,3.152-1.266c0.938-0.648,1.592-1.625,1.955-2.945
		c0.321-1.14,0.355-2.141,0.098-2.975c-0.24-0.829-0.672-1.567-1.279-2.188c-0.607-0.624-1.354-1.154-2.229-1.608
		c-0.867-0.438-1.791-0.842-2.731-1.195c-0.946-0.326-1.882-0.659-2.794-0.971c-0.914-0.309-1.718-0.651-2.4-1.006
		c-0.682-0.358-1.203-0.728-1.56-1.181c-0.366-0.432-0.46-0.938-0.29-1.548L287.055,84.302z M313.997,109.986l6.763-14.252
		l5.9,2.797l0.535,0.481l-0.021,0.817l0.651,0.309l2.365-5.007l-0.646-0.303l-0.637,0.528l-0.699-0.104l-15.898-7.55l-0.537-0.465
		l0.034-0.834l-0.659-0.312l-2.363,5.02l0.646,0.307l0.615-0.542l0.729,0.134l5.896,2.8l-6.748,14.251l-0.438,0.375l-0.52-0.049
		l-0.306,0.629l5.513,2.628l0.309-0.64C313.956,110.77,313.792,110.42,313.997,109.986z M338.83,102.542l0.375,0.528l-0.076,0.615
		l-0.596,0.511l-0.955,0.522l-14.708,8.676l-1.021,0.506l-0.976-0.025l-0.38,0.58l4.643,3.158l0.396-0.594l-0.375-0.812
		c0.135-0.178,0.469-0.429,0.998-0.733l2.754-1.537l8.01,5.392l-0.395,3.262c-0.062,0.473-0.166,0.82-0.312,1.039l-0.392,0.15
		l-0.39-0.12l-0.392,0.588l5.783,3.896l0.395-0.577l-0.408-0.766l-0.098-0.82l2.201-17.967l0.104-0.927l0.238-0.61l0.541-0.322
		l0.582,0.134l0.396-0.593l-5.539-3.751L338.83,102.542z M337.379,116.099l-5.841-3.938l7.21-4.014L337.379,116.099z
		 M361.594,124.114l4.797,4.432l0.375,0.629l-0.269,0.771l0.53,0.492l3.758-4.094l-0.528-0.484l-0.757,0.342l-0.651-0.342
		l-12.931-11.908l-0.381-0.618l0.252-0.785l-0.527-0.486l-3.754,4.077l0.529,0.49l0.756-0.334l0.637,0.334l4.809,4.418
		l-10.688,11.602l-0.525,0.243l-0.476-0.221l-0.492,0.533l4.481,4.148l0.492-0.528l-0.146-1.118L361.594,124.114z M388.623,148.395
		l-0.748,0.145l-0.928-0.758l-11.025-14.306l-0.552,0.432l0.148,0.487l-0.285,0.514l-14.246,10.973l-0.554,0.134l-0.454-0.263
		l-0.558,0.427l11.257,14.629l0.533,0.823l-0.306,0.706l0.438,0.574l4.299-3.328l-0.432-0.566l-0.829,0.169l-0.81-0.596
		l-8.082-10.495l4.33-3.319l4.748,6.13l0.549,1.126c0.035,0.342-0.186,0.692-0.683,1.078l0.438,0.555l4.911-3.773l-0.449-0.572
		c-0.473,0.38-0.854,0.503-1.137,0.355l-0.938-0.831l-4.744-6.136l3.888-3l7.837,10.175l0.532,1.05l-0.316,0.681l0.433,0.558
		l4.152-3.191L388.623,148.395z"/>
	<path fill="#1E5D87" d="M234.011,389.802l0.006-0.014l0.752-0.019L234.011,389.802z M235.119,424.146L235.119,424.146v-0.008
		V424.146z M260.453,423.132l0.014-0.025v0.025H260.453z"/>
	<g>
		<path fill="#FFC53B" d="M340.748,323.233c20.961-22.756,33.764-53.129,33.764-86.51c0-70.571-57.19-127.733-127.75-127.733
			c-70.566,0-127.764,57.176-127.764,127.733c0,70.561,57.198,127.74,127.764,127.74c35.867,0,68.27-14.799,91.476-38.605
			C339.008,325.435,339.936,324.327,340.748,323.233z M213.104,317.801c51.042-2.343,101.645-1.567,122.663-1.073
			c-0.885,0.979-1.805,1.945-2.726,2.911C317.426,318.405,280.947,316.524,213.104,317.801z M138.212,249.937
			c1.854-2.793,3.823-5.813,5.874-9.076l-7.517,42.635c-1.367-3.225-2.579-6.521-3.672-9.882L138.212,249.937z M131.117,267.573
			c-0.479-1.797-0.905-3.594-1.304-5.42c1.247-1.736,2.658-3.746,4.228-6.04L131.117,267.573z M147.452,235.429
			c2.663-4.349,5.392-8.975,8.118-13.834l-12.961,74.068c-1.547-2.727-2.994-5.512-4.326-8.381L147.452,235.429z M159.376,214.61
			c3.388-6.338,6.656-12.993,9.693-19.777l-19.734,111.36c-1.714-2.403-3.377-4.862-4.914-7.392L159.376,214.61z M177.979,179.978
			c0.656,0.713,1.296,1.416,1.955,2.13c0.481,20.429,1.96,80.046,3.662,122.637c-0.93,0.097-1.813,0.2-2.713,0.306
			C179.042,260.108,178.241,203.315,177.979,179.978z M273.465,265.054l0.059,0.18h0.016l-0.061-0.17
			c0.139,0.085,0.285,0.193,0.42,0.289l-0.375-0.119l10.205,32.355c-2.594,0.075-5.164,0.154-7.711,0.25l-12.465-39.671
			C266.966,260.608,270.258,262.892,273.465,265.054z M317.809,297.153l-2.551-8.02c9.221,4.32,16.195,6.893,20.423,8.269
			C329.682,297.252,323.727,297.179,317.809,297.153z M312.129,287.64l3.019,9.514c-2.636-0.006-5.236,0-7.847,0.014l-4.46-14.273
			C306.125,284.649,309.226,286.228,312.129,287.64z M299.619,281.142l5.029,16.056c-2.523,0.019-5.045,0.05-7.555,0.099
			l-6.617-21.424C293.643,277.767,296.705,279.536,299.619,281.142z M287.197,273.905l7.258,23.439
			c-2.719,0.043-5.412,0.099-8.086,0.178l-9.596-30.244C280.378,269.651,283.854,271.86,287.197,273.905z M259.848,255.433
			l13.576,42.502c-2.492,0.094-4.979,0.203-7.445,0.313l-15.835-50.157C253.443,250.667,256.676,253.103,259.848,255.433z
			 M246.417,245.138l16.922,53.227c-2.728,0.131-5.416,0.268-8.086,0.406l-20.053-62.84
			C239.018,239.169,242.756,242.22,246.417,245.138z M231.685,232.907l20.958,66.01c-2.417,0.135-4.831,0.268-7.202,0.418
			l-23.8-75.32C225.04,227.101,228.39,230.065,231.685,232.907z M217.777,220.487l25.052,79.018c-2.573,0.17-5.119,0.34-7.621,0.521
			l-28.273-89.867C210.594,213.726,214.22,217.187,217.777,220.487z M202.511,205.837l30.092,94.377
			c-2.494,0.17-4.943,0.36-7.366,0.541l-33.026-105.479C195.675,198.919,199.115,202.462,202.511,205.837z M188.063,190.929
			l34.598,110.033c-2.759,0.229-5.458,0.451-8.107,0.689l-26.152-84.098c-0.396-10.561-0.711-19.924-0.94-27.27
			C187.658,190.499,187.861,190.712,188.063,190.929z M168.214,254.612l-0.369-0.068l-9.456,53.309
			c-2.639,0.361-4.958,0.688-6.954,0.979l17.423-98.227C168.638,223.796,168.403,239.151,168.214,254.612z M188.807,228.072
			l23.155,73.804c-2.313,0.213-4.572,0.404-6.792,0.623l-15.258-48.469C189.504,245.095,189.132,236.341,188.807,228.072z
			 M190.409,264.476l12.17,38.271c-3.434,0.339-6.74,0.675-9.937,1.009C191.809,291.277,191.065,277.851,190.409,264.476z
			 M161.042,307.501l7.019-39.66c-0.14,13.934-0.235,27.369-0.229,38.752C165.392,306.929,163.15,307.224,161.042,307.501z
			 M167.93,322.745c0.019,1.438,0.044,2.797,0.071,4.057c-1.452-1.271-2.874-2.576-4.255-3.913
			C165.007,322.849,166.374,322.794,167.93,322.745z M181.675,322.321c0.864-0.022,1.78-0.045,2.683-0.08
			c0.323,6.748,0.653,12.584,0.979,17.205c-0.924-0.55-1.832-1.138-2.74-1.728C182.269,332.99,181.962,327.817,181.675,322.321z
			 M246.767,116.986c66.12,0,119.703,53.593,119.703,119.716c0,19.689-4.778,38.248-13.204,54.639
			c-83.26-18.65-142.598-76.199-165.845-102.179c-0.304-9.685-0.462-15.636-0.462-15.636l-3.711-1.67l-3.483,3.008
			c0,0,0.041,2.039,0.126,5.537c-0.796-0.977-1.417-1.748-1.934-2.393c-0.062-5.586-0.09-8.837-0.09-8.837h-5.138l-0.087,3.076
			l-3.095,0.752c0,0-0.131,6.497-0.326,16.842c-15.455,35.336-32.451,55.518-40.89,64.123c-0.812-5.633-1.258-11.404-1.258-17.256
			C127.073,170.579,180.664,116.986,246.767,116.986z M196.343,345.271c-0.839-6.424-1.625-14.326-2.36-23.256
			c37.188-0.82,94.207-1.135,133.697,2.882c-21.301,19.562-49.711,31.519-80.913,31.519
			C228.75,356.421,211.671,352.407,196.343,345.271z"/>
	</g>
</g>
</svg>
