<?xml version="1.0" encoding="utf-8"?>
<!-- Generator: Adobe Illustrator 16.0.0, SVG Export Plug-In . SVG Version: 6.00 Build 0)  -->
<!DOCTYPE svg PUBLIC "-//W3C//DTD SVG 1.1//EN" "http://www.w3.org/Graphics/SVG/1.1/DTD/svg11.dtd">
<svg version="1.1" id="content" xmlns="http://www.w3.org/2000/svg" xmlns:xlink="http://www.w3.org/1999/xlink" x="0px" y="0px"
	 width="500px" height="500px" viewBox="0 0 500 500" enable-background="new 0 0 500 500" xml:space="preserve">
<g id="bounds">
	<rect x="-0.1" y="80.3" fill="none" stroke="#EAEAEA" stroke-miterlimit="10" width="499.5" height="499.5"/>
</g>
<rect id="position" x="0.5" y="0.5" display="none" fill="none" stroke="#000000" width="499" height="499"/>
<g>
	<g>
		<path fill="#C7CDD1" d="M360.363,205.618c-20.328-11.551-55.691-19.076-110.763,7.583l61.9,42.8l48.863,16.814V205.618z"/>
		<path fill="#D7DFE3" d="M249.6,213.2c-53.825-26.055-88.853-19.425-109.416-8.301V414l109.416,1.237L360.363,414V261.68
			L249.6,213.2z"/>
	</g>
	<path fill="#C5CDD1" d="M148.833,221.833c0,0,0.383-0.353,1.181-0.918c0.788-0.583,1.997-1.357,3.606-2.231
		c1.6-0.898,3.624-1.838,6.014-2.752c2.392-0.906,5.15-1.802,8.227-2.499c3.069-0.733,6.45-1.308,10.048-1.644
		c3.598-0.387,7.413-0.468,11.348-0.386c3.932,0.141,7.99,0.456,12.064,1.064c4.087,0.535,8.184,1.371,12.254,2.281
		c2.03,0.476,4.037,1.04,6.046,1.554c1.984,0.597,3.96,1.192,5.921,1.782c1.934,0.665,3.852,1.323,5.747,1.975
		c1.885,0.677,3.711,1.436,5.524,2.133c1.822,0.676,3.55,1.494,5.266,2.231c1.713,0.742,3.386,1.474,4.97,2.282
		c1.594,0.78,3.146,1.54,4.646,2.273c1.483,0.766,2.908,1.52,4.268,2.259c2.732,1.45,5.168,2.903,7.331,4.173
		c1.074,0.649,2.078,1.256,3.008,1.817c0.912,0.588,1.751,1.128,2.508,1.616c3.012,1.977,4.709,3.131,4.71,3.131l-0.041,0.07
		c0.001,0-1.894-0.814-5.167-2.283c-0.814-0.374-1.716-0.787-2.697-1.237c-0.994-0.422-2.069-0.878-3.218-1.366
		c-2.281-1.001-4.844-2.146-7.699-3.254c-1.412-0.581-2.884-1.186-4.408-1.812c-1.538-0.584-3.128-1.188-4.762-1.808
		c-1.626-0.637-3.325-1.216-5.049-1.829c-1.728-0.605-3.48-1.256-5.294-1.82c-1.811-0.573-3.633-1.207-5.505-1.754
		c-1.871-0.546-3.765-1.099-5.673-1.656c-1.921-0.5-3.857-1.002-5.801-1.508c-1.956-0.44-3.919-0.882-5.882-1.323
		c-3.94-0.8-7.894-1.506-11.804-2.016c-0.978-0.125-1.952-0.249-2.921-0.372c-0.971-0.091-1.938-0.183-2.898-0.273
		c-1.919-0.226-3.82-0.294-5.688-0.433c-3.737-0.193-7.356-0.296-10.783-0.206c-1.718-0.001-3.378,0.128-4.996,0.178
		c-1.605,0.136-3.172,0.204-4.661,0.379c-2.99,0.284-5.721,0.685-8.134,1.128c-2.422,0.416-4.511,0.919-6.236,1.357
		c-1.719,0.453-3.064,0.873-3.976,1.183C149.318,221.641,148.833,221.833,148.833,221.833z"/>
	<path fill="#C5CDD1" d="M173.32,236.308c0,0,0.93-0.51,2.645-1.184c0.86-0.326,1.907-0.735,3.135-1.102
		c1.226-0.375,2.617-0.802,4.163-1.125c1.538-0.39,3.226-0.675,5.019-0.979c0.896-0.149,1.825-0.223,2.773-0.339
		c0.948-0.106,1.919-0.227,2.91-0.257c1.98-0.109,4.034-0.211,6.119-0.121c1.042,0.038,2.097,0.031,3.15,0.108
		c1.052,0.101,2.108,0.202,3.164,0.304c2.118,0.163,4.201,0.604,6.256,0.969c0.512,0.101,1.027,0.179,1.531,0.296
		c0.5,0.132,0.999,0.263,1.494,0.394c0.987,0.267,1.963,0.531,2.922,0.791c0.477,0.139,0.954,0.258,1.418,0.409
		c0.459,0.166,0.914,0.33,1.364,0.493c0.895,0.334,1.771,0.661,2.623,0.979c0.84,0.348,1.687,0.6,2.447,1.001
		c0.767,0.379,1.507,0.746,2.218,1.098c1.413,0.715,2.728,1.309,3.808,2.017c1.095,0.674,2.025,1.299,2.79,1.807
		c1.529,1.019,2.366,1.644,2.366,1.644l-0.269,0.504c0,0-1.022-0.274-2.746-0.829c-0.861-0.279-1.906-0.609-3.077-1.031
		c-0.58-0.225-1.228-0.388-1.906-0.565c-0.67-0.194-1.375-0.398-2.109-0.611c-1.468-0.419-3.031-0.927-4.74-1.282
		c-0.843-0.207-1.708-0.419-2.593-0.636c-0.44-0.113-0.885-0.227-1.333-0.342c-0.452-0.104-0.916-0.176-1.379-0.267
		c-0.925-0.183-1.866-0.368-2.818-0.556c-0.949-0.197-1.908-0.398-2.891-0.518c-1.961-0.252-3.926-0.678-5.932-0.824
		c-0.998-0.111-1.996-0.223-2.99-0.334c-0.995-0.099-1.992-0.142-2.979-0.215c-0.988-0.043-1.966-0.186-2.938-0.185
		c-0.97-0.021-1.93-0.054-2.875-0.096c-1.89-0.062-3.721-0.025-5.463-0.037c-1.735,0.075-3.396,0.041-4.917,0.154
		c-1.527,0.075-2.928,0.162-4.175,0.254c-1.249,0.109-2.336,0.204-3.232,0.282c-0.898,0.098-1.604,0.175-2.085,0.227
		c-0.486,0.059-0.745,0.09-0.745,0.09L173.32,236.308z"/>
	<path fill="#B9BEC2" d="M287.33,211.767c0,0,0.941-0.39,2.639-0.928c1.696-0.533,4.147-1.229,7.142-1.836
		c1.498-0.296,3.125-0.622,4.863-0.847c1.735-0.243,3.573-0.483,5.485-0.614c1.911-0.122,3.893-0.26,5.911-0.25
		c2.017-0.008,4.068,0.079,6.12,0.2c2.049,0.165,4.098,0.386,6.097,0.734c2.002,0.329,3.956,0.766,5.821,1.284
		c0.936,0.245,1.851,0.503,2.732,0.812c0.887,0.287,1.742,0.602,2.564,0.939c1.662,0.618,3.181,1.348,4.545,2.074
		c0.678,0.375,1.34,0.702,1.94,1.071c0.593,0.379,1.154,0.74,1.683,1.078c1.048,0.684,1.895,1.381,2.611,1.91
		c1.361,1.172,2.098,1.867,2.098,1.867l-0.125,0.167c0,0-0.913-0.464-2.445-1.311c-0.802-0.368-1.743-0.856-2.85-1.354
		c-1.116-0.481-2.367-1.017-3.763-1.526c-0.685-0.28-1.429-0.502-2.188-0.748c-0.75-0.269-1.538-0.511-2.355-0.735
		c-0.81-0.247-1.65-0.469-2.52-0.662c-0.43-0.109-0.864-0.219-1.304-0.331c-0.443-0.095-0.892-0.19-1.343-0.287
		c-1.801-0.402-3.692-0.684-5.609-0.972c-0.957-0.154-1.936-0.234-2.908-0.37c-0.979-0.095-1.962-0.191-2.944-0.287
		c-1.971-0.159-3.947-0.288-5.899-0.322c-1.95-0.066-3.876-0.089-5.74-0.067c-1.864,0.048-3.673,0.052-5.387,0.143
		c-1.714,0.081-3.338,0.165-4.838,0.263c-2.999,0.208-5.506,0.435-7.266,0.608C288.337,211.659,287.33,211.767,287.33,211.767z"/>
	<path fill="#B9BEC2" d="M306.667,220.333c0,0,0.45-0.168,1.271-0.383c0.815-0.216,1.993-0.479,3.424-0.688
		c0.714-0.108,1.492-0.204,2.318-0.273c0.825-0.06,1.698-0.147,2.604-0.142c0.904-0.023,1.843-0.039,2.794,0.025
		c0.953,0.026,1.919,0.131,2.884,0.22c0.964,0.118,1.921,0.296,2.865,0.444c0.936,0.214,1.855,0.425,2.733,0.677
		c0.873,0.278,1.717,0.535,2.492,0.858c0.773,0.33,1.503,0.637,2.152,0.972c0.643,0.353,1.218,0.699,1.726,1
		c0.514,0.29,0.9,0.654,1.243,0.898c0.669,0.522,1.034,0.831,1.034,0.831l-0.082,0.122c0,0-0.454-0.176-1.219-0.5
		c-0.387-0.153-0.826-0.387-1.372-0.57c-0.545-0.186-1.156-0.391-1.809-0.637c-0.664-0.218-1.409-0.387-2.167-0.628
		c-0.764-0.229-1.606-0.353-2.443-0.579c-0.849-0.193-1.747-0.304-2.64-0.491c-0.908-0.124-1.826-0.278-2.753-0.374
		c-0.929-0.088-1.851-0.235-2.771-0.281c-0.917-0.068-1.82-0.159-2.699-0.197c-0.88-0.046-1.731-0.09-2.538-0.132
		c-0.811-0.028-1.577-0.055-2.284-0.08c-1.426-0.031-2.613-0.058-3.445-0.076C307.153,220.333,306.667,220.334,306.667,220.333z"/>
	<path opacity="0.9" fill="#AAB1B3" d="M358.979,336.396l-109.137,5.667l-109.137-5.667c0,0-30.088,61.038-42.088,111.038
		c0,0,45.391,18.122,151.225,18.122s151.267-18.136,151.267-18.136C389.108,397.421,358.979,336.396,358.979,336.396z"/>
	<path fill="#AAB1B3" d="M140.705,333.557"/>
	<path fill="#D7DFE3" d="M359.031,335.192l-109.189,6.843l-109.19-6.843c0,0-23.303,48.32-36.781,92.364
		c17.108,9.505,87.401,20.51,145.971,20.51c58.569,0,128.535-12.525,145.644-22.03C382.008,381.992,359.031,335.192,359.031,335.192
		z"/>
	<path opacity="0.5" fill="#E3F6FF" d="M359.031,335.192l-109.189,6.843l-109.19-6.843c0,0-12.109,25.11-23.918,55.626
		c12.897,9.807,40.324,25.682,61.892,7.662c17.047-24.997,20.306-38.284,20.306-38.284s5.479,55.877,45.483,55.877
		s52.038-31.556,53.791-51.663c7.012,4.21,8.391,7.821,8.391,7.821s4.136,31.847,50.645,31.847c13.153,0,22.076-3.09,28.113-7.521
		C372.86,363.361,359.031,335.192,359.031,335.192z"/>
	<path fill="#E3F6FF" d="M249.842,336.453c-56.877,0-109.189-5.748-109.189-5.748l-3.218,11.348c0,0,55.531,6.49,112.408,6.49
		s112.465-6.476,112.465-6.476l-3.275-11.362C359.031,330.705,306.719,336.453,249.842,336.453z"/>
	<path fill-rule="evenodd" clip-rule="evenodd" fill="#D0D8DC" d="M295.718,353.563c0.135,1.353,0.329,2.988,0.598,4.858
		c0.28,1.869,0.61,3.978,1.082,6.262c0.445,2.289,1.034,4.753,1.72,7.352c0.731,2.586,1.529,5.318,2.574,8.092
		c0.998,2.787,2.223,5.617,3.609,8.45c0.738,1.398,1.433,2.835,2.285,4.209c0.415,0.691,0.811,1.397,1.248,2.083l1.367,2.033
		c0.443,0.687,0.932,1.348,1.446,1.994l1.512,1.955l1.648,1.858c0.55,0.619,1.093,1.242,1.707,1.802
		c1.19,1.153,2.367,2.31,3.677,3.31c0.645,0.51,1.26,1.051,1.925,1.521c0.678,0.457,1.35,0.912,2.018,1.362
		c2.687,1.788,5.531,3.161,8.304,4.271c1.382,0.571,2.788,0.928,4.126,1.371c0.669,0.23,1.341,0.374,2.002,0.509
		c0.66,0.14,1.309,0.276,1.945,0.41c1.273,0.308,2.499,0.434,3.669,0.561c1.166,0.11,2.287,0.302,3.322,0.314
		c0.271,0.003,0.528,0.011,0.792,0.017c0.388,3.951,4.669,3.295,5.044,3.469c0.382,0.176,2.706,3.912,5.994,1.517
		c0.686-0.499,1.168-1.532,1.433-2.785c0.745,1.045,1.602,1.805,2.43,2.001c3.962,0.938,4.664-3.409,4.946-3.716
		c0.28-0.308,4.554-1.366,3.291-5.234c-0.014-0.04-0.04-0.078-0.056-0.116c0.294-0.133,0.583-0.265,0.89-0.398
		c0.95-0.414,1.908-1.026,2.939-1.581c1.029-0.571,2.109-1.165,3.164-1.942c0.532-0.371,1.077-0.749,1.633-1.136
		c0.556-0.38,1.118-0.772,1.645-1.246c1.061-0.928,2.219-1.803,3.27-2.866c0.788-0.78,1.565-1.611,2.33-2.469
		c-1.487-4.062-3.005-8.068-4.527-11.978c-0.21,0.264-0.423,0.529-0.631,0.79c-1.534,1.911-3.261,3.511-4.967,4.918
		c-0.843,0.716-1.787,1.27-2.618,1.888c-0.41,0.317-0.863,0.566-1.312,0.808c-0.439,0.247-0.872,0.49-1.296,0.728
		c-0.818,0.512-1.691,0.875-2.512,1.23c-0.18,0.074-0.343,0.153-0.514,0.23c-0.556-0.776-1.458-1.379-2.967-1.375
		c-0.85,0.001-1.845,0.554-2.795,1.414c0.011-1.284-0.238-2.403-0.793-3.05c-2.656-3.085-5.772,0.022-6.183,0.106
		c-0.408,0.082-4.49-1.567-5.734,2.304c-0.259,0.802-0.045,1.91,0.469,3.069c-1.204-0.4-2.332-0.508-3.112-0.184
		c-1.496,0.624-2.074,1.623-2.24,2.626c-0.118-0.002-0.235-0.006-0.355-0.005c-0.893-0.009-1.84-0.004-2.793-0.156
		c-0.482-0.056-0.975-0.11-1.477-0.167c-0.506-0.049-1.021-0.102-1.521-0.234c-1.007-0.246-2.092-0.39-3.146-0.721
		c-2.119-0.633-4.332-1.437-6.487-2.603c-0.541-0.292-1.086-0.587-1.634-0.885c-0.544-0.31-1.051-0.691-1.589-1.036
		c-1.091-0.666-2.098-1.502-3.134-2.326c-0.532-0.392-1.014-0.858-1.505-1.318l-1.485-1.382l-1.401-1.505
		c-0.479-0.494-0.941-1.008-1.369-1.56l-1.324-1.614c-0.427-0.553-0.824-1.133-1.24-1.696c-0.851-1.113-1.573-2.325-2.342-3.494
		c-1.458-2.395-2.805-4.837-3.951-7.299c-1.19-2.439-2.162-4.901-3.069-7.245c-0.863-2.361-1.631-4.624-2.253-6.743
		c-0.645-2.112-1.142-4.081-1.574-5.827c-0.418-1.749-0.748-3.284-0.992-4.551c-0.247-1.266-0.419-2.263-0.524-2.936
		c-0.099-0.664-0.151-1.018-0.151-1.018l-4.806,0.405c0,0,0.022,0.398,0.063,1.145C295.5,351.146,295.583,352.211,295.718,353.563z"
		/>
	<path fill-rule="evenodd" clip-rule="evenodd" fill="#D0D8DC" d="M199.33,349.876c-0.105,0.673-0.276,1.67-0.523,2.936
		c-0.244,1.267-0.574,2.802-0.993,4.551c-0.432,1.746-0.929,3.715-1.574,5.827c-0.62,2.119-1.389,4.382-2.253,6.743
		c-0.906,2.344-1.877,4.806-3.068,7.245c-1.147,2.462-2.492,4.904-3.951,7.299c-0.769,1.169-1.492,2.381-2.343,3.494
		c-0.416,0.563-0.812,1.144-1.241,1.696l-1.324,1.614c-0.427,0.552-0.89,1.065-1.369,1.56l-1.402,1.505l-1.485,1.382
		c-0.491,0.46-0.972,0.927-1.505,1.318c-1.036,0.824-2.042,1.66-3.133,2.326c-0.537,0.345-1.045,0.727-1.589,1.036
		c-0.548,0.298-1.093,0.593-1.633,0.885c-2.156,1.166-4.369,1.97-6.488,2.603c-1.055,0.331-2.14,0.475-3.146,0.721
		c-0.5,0.133-1.016,0.186-1.521,0.234c-0.502,0.057-0.995,0.111-1.477,0.167c-0.953,0.152-1.899,0.147-2.793,0.156
		c-0.12-0.001-0.237,0.003-0.354,0.005c-0.166-1.003-0.744-2.002-2.241-2.626c-0.78-0.324-1.908-0.217-3.112,0.184
		c0.514-1.159,0.727-2.268,0.468-3.069c-1.244-3.871-5.326-2.222-5.734-2.304c-0.41-0.084-3.526-3.191-6.182-0.106
		c-0.556,0.646-0.804,1.766-0.793,3.05c-0.95-0.86-1.946-1.413-2.795-1.414c-1.508-0.004-2.412,0.599-2.966,1.375
		c-0.171-0.077-0.334-0.156-0.514-0.23c-0.82-0.355-1.693-0.719-2.512-1.23c-0.423-0.237-0.856-0.48-1.296-0.728
		c-0.447-0.241-0.901-0.49-1.311-0.808c-0.831-0.618-1.775-1.172-2.618-1.888c-1.707-1.407-3.433-3.007-4.966-4.918
		c-0.161-0.2-0.324-0.405-0.485-0.607c-1.52,3.91-3.035,7.911-4.522,11.965c0.716,0.796,1.442,1.57,2.179,2.299
		c1.051,1.063,2.208,1.938,3.269,2.866c0.527,0.474,1.089,0.866,1.646,1.246c0.555,0.387,1.1,0.765,1.633,1.136
		c1.054,0.777,2.134,1.371,3.163,1.942c1.032,0.555,1.99,1.167,2.939,1.581c0.307,0.134,0.596,0.266,0.891,0.398
		c-0.016,0.038-0.043,0.076-0.056,0.116c-1.263,3.868,3.011,4.927,3.291,5.234c0.283,0.307,0.985,4.654,4.946,3.716
		c0.829-0.196,1.686-0.956,2.43-2.001c0.265,1.253,0.746,2.286,1.433,2.785c3.288,2.396,5.612-1.341,5.994-1.517
		c0.375-0.174,4.656,0.482,5.044-3.469c0.263-0.006,0.52-0.014,0.791-0.017c1.036-0.013,2.157-0.204,3.324-0.314
		c1.169-0.127,2.395-0.253,3.668-0.561c0.636-0.134,1.285-0.271,1.945-0.41c0.661-0.135,1.332-0.278,2.001-0.509
		c1.338-0.443,2.744-0.8,4.126-1.371c2.773-1.109,5.617-2.482,8.305-4.271c0.667-0.45,1.339-0.905,2.017-1.362
		c0.665-0.471,1.28-1.012,1.924-1.521c1.311-1,2.488-2.156,3.678-3.31c0.615-0.56,1.157-1.183,1.707-1.802l1.647-1.858l1.513-1.955
		c0.514-0.646,1.003-1.308,1.446-1.994l1.368-2.033c0.436-0.686,0.833-1.392,1.248-2.083c0.854-1.374,1.548-2.811,2.285-4.209
		c1.386-2.833,2.612-5.663,3.609-8.45c1.045-2.773,1.843-5.506,2.573-8.092c0.688-2.599,1.274-5.062,1.721-7.352
		c0.471-2.284,0.801-4.393,1.082-6.262c0.268-1.87,0.463-3.506,0.598-4.858s0.217-2.418,0.264-3.155
		c0.041-0.746,0.062-1.145,0.062-1.145l-4.805-0.405C199.482,348.858,199.43,349.212,199.33,349.876z"/>
	<path fill-rule="evenodd" clip-rule="evenodd" fill="#D0D8DC" d="M300.704,358.363c-0.107-1.888-0.241-3.529-0.378-4.881
		c-0.136-1.354-0.267-2.414-0.367-3.146c-0.107-0.739-0.165-1.134-0.165-1.134l-4.79,0.555c0,0,0.018,0.357,0.052,1.028
		c0.031,0.68,0.062,1.692,0.069,2.98c0.012,1.29-0.007,2.86-0.07,4.657c-0.078,1.799-0.174,3.826-0.389,6.023
		c-0.188,2.201-0.492,4.57-0.87,7.057c-0.424,2.477-0.888,5.082-1.571,7.709c-0.636,2.641-1.47,5.303-2.425,7.938
		c-0.521,1.298-0.989,2.631-1.604,3.89c-0.295,0.636-0.568,1.282-0.88,1.908l-0.977,1.847c-0.31,0.624-0.662,1.22-1.032,1.799
		l-1.075,1.753l-1.183,1.649c-0.391,0.548-0.769,1.102-1.214,1.591c-0.852,1.013-1.672,2.032-2.609,2.901
		c-0.459,0.444-0.881,0.92-1.352,1.331c-0.479,0.399-0.954,0.797-1.426,1.19c-1.882,1.571-3.892,2.796-5.843,3.837
		c-0.969,0.534-2.004,0.891-2.941,1.33c-0.464,0.23-0.958,0.385-1.443,0.533c-0.481,0.154-0.953,0.307-1.415,0.455
		c-0.903,0.339-1.832,0.522-2.707,0.708c-0.108,0.021-0.212,0.045-0.318,0.068c-0.367-0.934-1.134-1.778-2.701-2.089
		c-0.828-0.163-1.913,0.166-3.015,0.797c0.274-1.237,0.265-2.366-0.148-3.101c-1.988-3.548-5.661-1.121-6.077-1.121
		c-0.419,0-4.09-2.429-6.081,1.121c-0.417,0.744-0.438,1.891-0.173,3.147c-1.102-0.655-2.188-0.999-3.021-0.832
		c-1.6,0.32-2.361,1.194-2.718,2.152c-0.217-0.051-0.437-0.101-0.663-0.144c-0.874-0.186-1.803-0.369-2.706-0.708
		c-0.462-0.148-0.934-0.301-1.414-0.455c-0.486-0.148-0.98-0.303-1.445-0.533c-0.938-0.439-1.973-0.796-2.94-1.33
		c-1.952-1.041-3.961-2.266-5.843-3.837c-0.471-0.394-0.947-0.791-1.426-1.19c-0.472-0.411-0.894-0.887-1.352-1.331
		c-0.938-0.869-1.758-1.889-2.609-2.901c-0.445-0.489-0.824-1.043-1.215-1.591l-1.182-1.649l-1.075-1.753
		c-0.371-0.579-0.723-1.175-1.032-1.799l-0.977-1.847c-0.311-0.626-0.586-1.272-0.881-1.908c-0.613-1.259-1.081-2.592-1.603-3.89
		c-0.954-2.635-1.79-5.297-2.425-7.938c-0.684-2.627-1.148-5.232-1.571-7.709c-0.378-2.486-0.683-4.855-0.871-7.057
		c-0.214-2.197-0.31-4.225-0.388-6.023c-0.063-1.797-0.082-3.367-0.071-4.657c0.009-1.288,0.04-2.301,0.069-2.98
		c0.035-0.671,0.053-1.028,0.053-1.028l-4.791-0.555c0,0-0.057,0.395-0.164,1.134c-0.102,0.731-0.232,1.792-0.367,3.146
		c-0.137,1.352-0.27,2.993-0.379,4.881c-0.094,1.886-0.189,4.019-0.18,6.352c-0.018,2.332,0.07,4.863,0.229,7.546
		c0.203,2.681,0.443,5.517,0.918,8.441c0.424,2.93,1.064,5.947,1.861,8.999c0.446,1.517,0.842,3.062,1.404,4.578
		c0.27,0.761,0.52,1.53,0.811,2.289l0.938,2.264c0.298,0.762,0.646,1.506,1.021,2.242l1.096,2.216
		c0.416,0.719,0.832,1.436,1.246,2.148c0.416,0.715,0.824,1.434,1.316,2.104c0.938,1.366,1.86,2.733,2.947,3.974
		c0.531,0.626,1.026,1.279,1.584,1.872c0.574,0.583,1.143,1.162,1.707,1.735c2.279,2.285,4.795,4.195,7.293,5.833
		c1.241,0.833,2.549,1.463,3.772,2.161c0.61,0.36,1.239,0.633,1.86,0.896c0.62,0.269,1.229,0.53,1.825,0.788
		c1.188,0.555,2.364,0.921,3.484,1.276c1.122,0.34,2.183,0.75,3.196,0.969c0.382,0.082,0.747,0.166,1.111,0.249
		c-0.375,3.933,3.936,4.127,4.269,4.37c0.337,0.245,1.888,4.367,5.584,2.661c0.773-0.356,1.463-1.271,1.985-2.442
		c0.508,1.176,1.185,2.092,1.956,2.445c3.698,1.695,5.235-2.428,5.575-2.676c0.335-0.244,4.694-0.45,4.253-4.443
		c0.245-0.056,0.479-0.11,0.731-0.164c1.014-0.219,2.074-0.629,3.196-0.969c1.12-0.355,2.296-0.722,3.484-1.276
		c0.597-0.258,1.204-0.52,1.825-0.788c0.621-0.263,1.25-0.535,1.86-0.896c1.224-0.698,2.531-1.328,3.772-2.161
		c2.497-1.638,5.014-3.548,7.293-5.833c0.564-0.573,1.133-1.152,1.706-1.735c0.558-0.593,1.054-1.246,1.584-1.872
		c1.087-1.24,2.011-2.607,2.948-3.974c0.492-0.671,0.899-1.39,1.316-2.104c0.414-0.713,0.83-1.43,1.245-2.148l1.097-2.216
		c0.375-0.736,0.724-1.48,1.021-2.242l0.938-2.264c0.291-0.759,0.54-1.528,0.81-2.289c0.563-1.517,0.959-3.062,1.404-4.578
		c0.797-3.052,1.438-6.069,1.862-8.999c0.475-2.925,0.714-5.761,0.918-8.441c0.158-2.683,0.245-5.214,0.229-7.546
		C300.894,362.382,300.799,360.249,300.704,358.363z"/>
	<path fill="#E3F6FF" d="M204.281,343.724c0,0-0.018,0.356-0.053,1.027c-0.029,0.681-0.061,1.692-0.069,2.981
		c-0.011,1.289,0.008,2.859,0.071,4.657c0.078,1.798,0.174,3.825,0.388,6.023c0.188,2.201,0.493,4.57,0.871,7.056
		c0.423,2.477,0.888,5.082,1.571,7.709c0.635,2.641,1.471,5.303,2.425,7.938c0.521,1.298,0.989,2.63,1.603,3.89
		c0.295,0.635,0.57,1.282,0.881,1.907l0.977,1.848c0.31,0.623,0.661,1.219,1.032,1.798l1.075,1.753l1.182,1.65
		c0.391,0.548,0.77,1.101,1.215,1.59c0.852,1.013,1.672,2.032,2.609,2.901c0.458,0.444,0.88,0.92,1.352,1.331
		c0.479,0.399,0.955,0.798,1.426,1.191c1.882,1.57,3.891,2.796,5.843,3.837c0.968,0.533,2.003,0.89,2.94,1.33
		c0.465,0.229,0.959,0.384,1.445,0.532c0.48,0.154,0.952,0.307,1.414,0.456c0.903,0.338,1.832,0.521,2.706,0.707
		c0.88,0.171,1.677,0.423,2.482,0.509c1.612,0.168,2.97,0.436,4.146,0.469c2.336,0.095,3.671,0.148,3.671,0.148l-0.702,13.771
		c0,0-1.676-0.224-4.609-0.616c-1.461-0.19-3.24-0.673-5.262-1.106c-1.014-0.219-2.074-0.629-3.196-0.968
		c-1.12-0.355-2.297-0.723-3.484-1.276c-0.597-0.258-1.205-0.521-1.825-0.789c-0.621-0.263-1.25-0.535-1.86-0.896
		c-1.224-0.698-2.531-1.328-3.772-2.161c-2.498-1.638-5.014-3.548-7.293-5.833c-0.564-0.573-1.133-1.152-1.707-1.734
		c-0.558-0.594-1.053-1.246-1.584-1.873c-1.087-1.24-2.01-2.607-2.947-3.974c-0.492-0.67-0.9-1.389-1.316-2.104
		c-0.414-0.714-0.83-1.431-1.246-2.148l-1.096-2.217c-0.375-0.735-0.724-1.48-1.021-2.242l-0.938-2.263
		c-0.291-0.76-0.541-1.529-0.811-2.29c-0.562-1.516-0.958-3.062-1.404-4.578c-0.797-3.052-1.438-6.069-1.861-8.998
		c-0.475-2.926-0.715-5.762-0.918-8.441c-0.158-2.684-0.246-5.215-0.229-7.547c-0.01-2.332,0.086-4.465,0.18-6.352
		c0.109-1.888,0.242-3.529,0.379-4.881c0.135-1.353,0.266-2.414,0.367-3.145c0.107-0.74,0.164-1.135,0.164-1.135L204.281,343.724z"
		/>
	<path fill="#E3F6FF" d="M299.794,343.168c0,0,0.058,0.395,0.165,1.135c0.101,0.73,0.231,1.792,0.367,3.145
		c0.137,1.352,0.271,2.993,0.378,4.881c0.095,1.887,0.189,4.02,0.181,6.352c0.017,2.332-0.07,4.863-0.229,7.547
		c-0.204,2.68-0.443,5.516-0.918,8.441c-0.425,2.929-1.065,5.946-1.862,8.998c-0.445,1.517-0.841,3.062-1.404,4.578
		c-0.27,0.761-0.519,1.53-0.81,2.29l-0.938,2.263c-0.298,0.762-0.646,1.507-1.021,2.242l-1.097,2.217
		c-0.415,0.718-0.831,1.435-1.245,2.148c-0.417,0.715-0.824,1.434-1.316,2.104c-0.938,1.366-1.861,2.733-2.948,3.974
		c-0.53,0.627-1.026,1.279-1.584,1.873c-0.573,0.582-1.142,1.161-1.706,1.734c-2.279,2.285-4.796,4.195-7.293,5.833
		c-1.241,0.833-2.549,1.463-3.772,2.161c-0.61,0.36-1.239,0.633-1.86,0.896c-0.621,0.269-1.229,0.531-1.825,0.789
		c-1.188,0.554-2.364,0.921-3.484,1.276c-1.122,0.339-2.183,0.749-3.196,0.968c-2.021,0.434-3.802,0.916-5.262,1.106
		c-2.934,0.393-4.609,0.616-4.609,0.616l-0.703-13.771c0,0,1.336-0.054,3.672-0.148c1.176-0.033,2.533-0.301,4.146-0.469
		c0.806-0.086,1.603-0.338,2.481-0.509c0.875-0.186,1.804-0.369,2.707-0.707c0.462-0.149,0.934-0.302,1.415-0.456
		c0.485-0.148,0.979-0.303,1.443-0.532c0.938-0.44,1.973-0.797,2.941-1.33c1.951-1.041,3.961-2.267,5.843-3.837
		c0.472-0.394,0.946-0.792,1.426-1.191c0.471-0.411,0.893-0.887,1.352-1.331c0.938-0.869,1.758-1.889,2.609-2.901
		c0.445-0.489,0.823-1.042,1.214-1.59l1.183-1.65l1.075-1.753c0.37-0.579,0.723-1.175,1.032-1.798l0.977-1.848
		c0.312-0.625,0.585-1.272,0.88-1.907c0.614-1.26,1.082-2.592,1.604-3.89c0.955-2.636,1.789-5.298,2.425-7.938
		c0.684-2.627,1.147-5.232,1.571-7.709c0.378-2.485,0.683-4.854,0.87-7.056c0.215-2.198,0.311-4.226,0.389-6.023
		c0.063-1.798,0.082-3.368,0.07-4.657c-0.008-1.289-0.038-2.301-0.069-2.981c-0.034-0.671-0.052-1.027-0.052-1.027L299.794,343.168z
		"/>
	<g>
		<g>
			<path fill-rule="evenodd" clip-rule="evenodd" fill="#FFFFFF" d="M249.746,413.77c4.176-0.136,7.637-7.647,6.171-10.255
				c-1.988-3.548-5.661-1.122-6.077-1.122c-0.419,0-4.09-2.429-6.081,1.122C242.299,406.122,245.571,413.634,249.746,413.77z"/>
			<path fill-rule="evenodd" clip-rule="evenodd" fill="#FFFFFF" d="M248.414,414.867c1.154-4.016-4.918-9.626-7.849-9.038
				c-3.989,0.799-2.814,5.041-2.944,5.438c-0.129,0.398-3.568,3.143-0.811,6.131C238.841,419.595,246.992,418.796,248.414,414.867z"
				/>
			<path fill-rule="evenodd" clip-rule="evenodd" fill="#FFFFFF" d="M249.041,416.475c-3.46-2.339-10.667,1.708-11.015,4.679
				c-0.47,4.043,3.928,4.232,4.264,4.478c0.337,0.245,1.888,4.367,5.584,2.661C250.587,427.041,252.341,419.038,249.041,416.475z"/>
			<path fill-rule="evenodd" clip-rule="evenodd" fill="#FFFFFF" d="M250.766,416.371c-3.293,2.571-1.667,10.679,1.05,11.924
				c3.698,1.696,5.235-2.428,5.575-2.676c0.336-0.245,4.734-0.449,4.251-4.49C261.291,418.162,254.221,414.022,250.766,416.371z"/>
			<path fill-rule="evenodd" clip-rule="evenodd" fill="#FFFFFF" d="M251.198,414.697c1.43,3.928,9.642,4.881,11.664,2.681
				c2.751-2.994-0.696-5.733-0.827-6.129c-0.128-0.397,1.035-4.642-2.955-5.431C256.147,405.239,250.031,410.687,251.198,414.697z"
				/>
		</g>
		<circle fill-rule="evenodd" clip-rule="evenodd" fill="#D0D8DC" cx="249.832" cy="415.237" r="2.597"/>
	</g>
	<path fill="#E3F6FF" d="M367.131,409.604c1.395-0.477,3.042-1.304,4.938-2.129c0.949-0.415,1.907-1.026,2.939-1.582
		c1.028-0.57,2.109-1.164,3.162-1.942c0.534-0.371,1.079-0.749,1.634-1.135c0.557-0.381,1.119-0.773,1.645-1.246
		c1.062-0.929,2.219-1.804,3.27-2.866c0.349-0.346,0.692-0.714,1.037-1.075c-1.502-4.014-3.025-7.958-4.545-11.792
		c-1.356,1.562-2.826,2.923-4.287,4.128c-0.843,0.716-1.787,1.271-2.617,1.888c-0.41,0.318-0.865,0.566-1.312,0.808
		c-0.44,0.248-0.872,0.49-1.296,0.728c-0.818,0.512-1.691,0.875-2.512,1.23c-0.829,0.342-1.56,0.747-2.333,0.991
		c-1.547,0.484-2.824,1.017-3.97,1.281c-2.271,0.556-3.568,0.873-3.568,0.873l3.418,13.359
		C362.734,411.123,364.333,410.57,367.131,409.604z"/>
	<path fill="#E3F6FF" d="M299.803,343.242c0,0,0.053,0.354,0.152,1.019c0.104,0.672,0.275,1.67,0.523,2.936
		c0.244,1.266,0.574,2.801,0.993,4.551c0.432,1.746,0.929,3.715,1.573,5.826c0.621,2.12,1.39,4.382,2.253,6.744
		c0.907,2.344,1.878,4.806,3.069,7.245c1.146,2.462,2.492,4.904,3.95,7.298c0.769,1.17,1.492,2.382,2.343,3.495
		c0.416,0.563,0.812,1.144,1.241,1.696l1.324,1.614c0.427,0.552,0.89,1.065,1.368,1.56l1.401,1.505l1.485,1.382
		c0.491,0.46,0.972,0.927,1.506,1.318c1.035,0.823,2.041,1.659,3.133,2.326c0.537,0.345,1.045,0.727,1.589,1.036
		c0.549,0.298,1.093,0.593,1.634,0.885c2.155,1.166,4.368,1.97,6.487,2.603c1.055,0.331,2.141,0.475,3.146,0.721
		c0.5,0.133,1.016,0.186,1.521,0.234c0.502,0.057,0.995,0.111,1.478,0.167c0.952,0.151,1.899,0.147,2.792,0.156
		c0.897-0.007,1.728,0.081,2.535,0.006c1.612-0.154,2.996-0.16,4.155-0.362c2.309-0.371,3.628-0.582,3.628-0.582l2.043,13.636
		c0,0-1.687,0.113-4.64,0.311c-1.47,0.103-3.31-0.018-5.379-0.041c-1.034-0.013-2.156-0.204-3.322-0.315
		c-1.17-0.126-2.396-0.253-3.669-0.561c-0.637-0.133-1.285-0.27-1.945-0.41c-0.661-0.134-1.333-0.277-2.002-0.508
		c-1.337-0.443-2.744-0.8-4.126-1.371c-2.772-1.109-5.617-2.482-8.304-4.271c-0.668-0.451-1.34-0.905-2.018-1.362
		c-0.665-0.472-1.28-1.012-1.925-1.521c-1.311-1-2.486-2.157-3.677-3.31c-0.615-0.56-1.157-1.184-1.707-1.802l-1.647-1.858
		l-1.513-1.955c-0.515-0.646-1.003-1.308-1.446-1.994l-1.367-2.033c-0.437-0.687-0.833-1.392-1.249-2.084
		c-0.854-1.373-1.546-2.81-2.285-4.208c-1.386-2.833-2.611-5.663-3.608-8.451c-1.045-2.772-1.843-5.505-2.574-8.091
		c-0.687-2.599-1.274-5.062-1.72-7.352c-0.473-2.284-0.801-4.393-1.082-6.262c-0.269-1.871-0.463-3.506-0.598-4.858
		s-0.218-2.419-0.264-3.155c-0.041-0.746-0.063-1.145-0.063-1.145L299.803,343.242z"/>
	<g>
		<g>
			<path fill-rule="evenodd" clip-rule="evenodd" fill="#FFFFFF" d="M358.48,402.879c-4.119,0.696-9.002-5.979-8.082-8.827
				c1.244-3.871,5.326-2.222,5.734-2.304c0.41-0.084,3.526-3.191,6.183-0.106C364.264,393.907,362.545,401.919,358.48,402.879z"/>
			<path fill-rule="evenodd" clip-rule="evenodd" fill="#FFFFFF" d="M360.003,403.691c-1.927-3.707,2.912-10.41,5.9-10.415
				c4.069-0.008,3.758,4.383,3.966,4.747c0.205,0.365,4.12,2.373,2.009,5.848C370.324,406.427,362.177,407.261,360.003,403.691z"/>
			<path fill-rule="evenodd" clip-rule="evenodd" fill="#FFFFFF" d="M359.708,405.393c2.928-2.979,10.794-0.441,11.724,2.399
				c1.263,3.869-3.011,4.928-3.291,5.235c-0.282,0.307-0.984,4.654-4.946,3.716C360.287,416.055,356.982,408.558,359.708,405.393z"
				/>
			<path fill-rule="evenodd" clip-rule="evenodd" fill="#FFFFFF" d="M357.998,405.633c3.735,1.866,3.751,10.136,1.334,11.895
				c-3.288,2.395-5.612-1.342-5.994-1.517c-0.379-0.175-4.729,0.498-5.058-3.558C348.036,409.475,354.145,404.015,357.998,405.633z"
				/>
			<path fill-rule="evenodd" clip-rule="evenodd" fill="#FFFFFF" d="M357.241,404.078c-0.622,4.133-8.482,6.695-10.901,4.939
				c-3.289-2.39-0.454-5.757-0.404-6.172c0.046-0.415-1.936-4.344,1.819-5.908C350.515,395.789,357.589,399.915,357.241,404.078z"/>
		</g>
		<circle fill-rule="evenodd" clip-rule="evenodd" fill="#D0D8DC" cx="358.687" cy="404.336" r="2.596"/>
	</g>
	<path fill="#E3F6FF" d="M114.763,398.507c1.051,1.062,2.208,1.938,3.269,2.866c0.527,0.474,1.089,0.866,1.646,1.246
		c0.555,0.387,1.1,0.765,1.633,1.136c1.054,0.777,2.134,1.371,3.163,1.942c1.032,0.555,1.99,1.167,2.939,1.581
		c1.896,0.826,3.544,1.652,4.938,2.129c2.797,0.967,4.396,1.519,4.396,1.519l3.418-13.358c0,0-1.297-0.318-3.568-0.873
		c-1.146-0.266-2.424-0.798-3.97-1.281c-0.773-0.245-1.504-0.649-2.333-0.991c-0.82-0.355-1.693-0.72-2.512-1.231
		c-0.423-0.237-0.856-0.479-1.296-0.727c-0.447-0.241-0.901-0.49-1.311-0.809c-0.831-0.617-1.775-1.171-2.618-1.887
		c-1.341-1.105-2.69-2.337-3.952-3.738c-1.513,3.831-3.032,7.768-4.531,11.77C114.305,398.034,114.532,398.278,114.763,398.507z"/>
	<path fill="#E3F6FF" d="M204.287,343.648c0,0-0.021,0.398-0.062,1.145c-0.047,0.736-0.129,1.803-0.264,3.155
		s-0.33,2.987-0.598,4.858c-0.281,1.869-0.611,3.978-1.082,6.262c-0.446,2.289-1.033,4.753-1.721,7.352
		c-0.73,2.586-1.528,5.318-2.573,8.091c-0.997,2.788-2.224,5.618-3.609,8.451c-0.737,1.398-1.432,2.835-2.285,4.208
		c-0.415,0.692-0.812,1.397-1.248,2.084l-1.368,2.033c-0.443,0.687-0.932,1.348-1.446,1.994l-1.513,1.955l-1.647,1.858
		c-0.55,0.618-1.092,1.242-1.707,1.802c-1.19,1.152-2.367,2.31-3.678,3.31c-0.644,0.51-1.259,1.05-1.924,1.521
		c-0.678,0.457-1.35,0.911-2.017,1.362c-2.688,1.788-5.531,3.161-8.305,4.271c-1.382,0.571-2.788,0.928-4.126,1.371
		c-0.669,0.23-1.34,0.374-2.001,0.508c-0.661,0.141-1.31,0.277-1.945,0.41c-1.273,0.308-2.5,0.435-3.668,0.561
		c-1.167,0.111-2.288,0.303-3.324,0.315c-2.068,0.023-3.908,0.144-5.378,0.041c-2.953-0.197-4.64-0.311-4.64-0.311l2.044-13.636
		c0,0,1.318,0.211,3.627,0.582c1.159,0.202,2.543,0.208,4.156,0.362c0.808,0.075,1.638-0.013,2.534-0.006
		c0.894-0.009,1.84-0.005,2.793-0.156c0.482-0.056,0.975-0.11,1.477-0.167c0.505-0.049,1.021-0.102,1.521-0.234
		c1.006-0.246,2.091-0.39,3.146-0.721c2.119-0.633,4.332-1.437,6.488-2.603c0.54-0.292,1.084-0.587,1.633-0.885
		c0.544-0.31,1.052-0.691,1.589-1.036c1.091-0.667,2.098-1.503,3.133-2.326c0.533-0.392,1.015-0.858,1.505-1.318l1.485-1.382
		l1.402-1.505c0.479-0.494,0.941-1.008,1.369-1.56l1.324-1.614c0.428-0.553,0.825-1.133,1.241-1.696
		c0.851-1.113,1.574-2.325,2.343-3.495c1.458-2.394,2.804-4.836,3.951-7.298c1.191-2.439,2.162-4.901,3.068-7.245
		c0.864-2.362,1.633-4.624,2.253-6.744c0.646-2.111,1.143-4.08,1.574-5.826c0.419-1.75,0.749-3.285,0.993-4.551
		c0.247-1.266,0.418-2.264,0.523-2.936c0.1-0.664,0.152-1.019,0.152-1.019L204.287,343.648z"/>
	<g>
		<g>
			<path fill-rule="evenodd" clip-rule="evenodd" fill="#FFFFFF" d="M141.198,402.879c4.119,0.696,9.001-5.979,8.082-8.827
				c-1.244-3.871-5.326-2.222-5.734-2.304c-0.41-0.084-3.526-3.191-6.182-0.106C135.415,393.907,137.133,401.919,141.198,402.879z"
				/>
			<path fill-rule="evenodd" clip-rule="evenodd" fill="#FFFFFF" d="M139.675,403.691c1.927-3.707-2.912-10.41-5.9-10.415
				c-4.069-0.008-3.758,4.383-3.965,4.747c-0.205,0.365-4.121,2.373-2.009,5.848C129.354,406.427,137.502,407.261,139.675,403.691z"
				/>
			<path fill-rule="evenodd" clip-rule="evenodd" fill="#FFFFFF" d="M139.971,405.393c-2.928-2.979-10.794-0.441-11.724,2.399
				c-1.263,3.869,3.011,4.928,3.291,5.235c0.283,0.307,0.985,4.654,4.946,3.716C139.392,416.055,142.696,408.558,139.971,405.393z"
				/>
			<path fill-rule="evenodd" clip-rule="evenodd" fill="#FFFFFF" d="M141.681,405.633c-3.735,1.866-3.751,10.136-1.334,11.895
				c3.288,2.395,5.612-1.342,5.994-1.517c0.378-0.175,4.729,0.498,5.057-3.558C151.643,409.475,145.534,404.015,141.681,405.633z"/>
			<path fill-rule="evenodd" clip-rule="evenodd" fill="#FFFFFF" d="M142.437,404.078c0.623,4.133,8.482,6.695,10.901,4.939
				c3.29-2.39,0.455-5.757,0.405-6.172c-0.046-0.415,1.935-4.344-1.82-5.908C149.164,395.789,142.09,399.915,142.437,404.078z"/>
		</g>
		<circle fill-rule="evenodd" clip-rule="evenodd" fill="#D0D8DC" cx="140.992" cy="404.336" r="2.596"/>
	</g>
</g>
</svg>
