<?xml version="1.0" encoding="utf-8"?>
<!-- Generator: Adobe Illustrator 16.0.0, SVG Export Plug-In . SVG Version: 6.00 Build 0)  -->
<!DOCTYPE svg PUBLIC "-//W3C//DTD SVG 1.1//EN" "http://www.w3.org/Graphics/SVG/1.1/DTD/svg11.dtd">
<svg version="1.1" id="content" xmlns="http://www.w3.org/2000/svg" xmlns:xlink="http://www.w3.org/1999/xlink" x="0px" y="0px"
	 width="500px" height="500px" viewBox="0 0 500 500" enable-background="new 0 0 500 500" xml:space="preserve">
<rect id="position" x="0.5" y="0.5" display="none" fill="none" stroke="#000000" width="499" height="499"/>
<g>
	<g id="body_6_">
		<g>
			<path fill="#C7CDD1" d="M249.6,213.2l61.9,42.8l71.2,24.5v-54.8C382.7,225.7,346.9,166.1,249.6,213.2z"/>
		</g>
	</g>
	<g id="body_5_">
		<g>
			<path fill="#D7DFE3" d="M249.6,213.2c-97.3-47.1-133.2,12.6-133.2,12.6V484h133.2h133.2V271.5L249.6,213.2z"/>
		</g>
	</g>
</g>
<path fill="#C5CDD1" d="M148.833,221.833c0,0,0.383-0.353,1.181-0.918c0.788-0.583,1.997-1.357,3.606-2.231
	c1.6-0.898,3.624-1.838,6.014-2.752c2.392-0.906,5.15-1.802,8.227-2.499c3.069-0.733,6.45-1.308,10.048-1.644
	c3.598-0.387,7.413-0.468,11.348-0.386c3.932,0.141,7.99,0.456,12.064,1.064c4.087,0.535,8.184,1.371,12.254,2.281
	c2.03,0.476,4.037,1.04,6.046,1.554c1.984,0.597,3.96,1.192,5.921,1.782c1.934,0.665,3.852,1.323,5.747,1.975
	c1.885,0.677,3.711,1.436,5.524,2.133c1.822,0.676,3.55,1.494,5.266,2.231c1.713,0.742,3.386,1.474,4.97,2.282
	c1.594,0.78,3.146,1.54,4.646,2.273c1.483,0.766,2.908,1.52,4.268,2.259c2.732,1.45,5.168,2.903,7.331,4.173
	c1.074,0.649,2.078,1.256,3.008,1.817c0.912,0.588,1.751,1.128,2.508,1.616c3.012,1.977,4.709,3.131,4.71,3.131l-0.041,0.07
	c0.001,0-1.894-0.814-5.167-2.283c-0.814-0.374-1.716-0.787-2.697-1.237c-0.994-0.422-2.069-0.878-3.218-1.366
	c-2.281-1.001-4.844-2.146-7.699-3.254c-1.412-0.581-2.884-1.186-4.408-1.812c-1.538-0.584-3.128-1.188-4.762-1.808
	c-1.626-0.637-3.325-1.216-5.049-1.829c-1.728-0.605-3.48-1.256-5.294-1.82c-1.811-0.573-3.633-1.207-5.505-1.754
	c-1.871-0.546-3.765-1.099-5.673-1.656c-1.921-0.5-3.857-1.002-5.801-1.508c-1.956-0.44-3.919-0.882-5.882-1.323
	c-3.94-0.8-7.894-1.506-11.804-2.016c-0.978-0.125-1.952-0.249-2.921-0.372c-0.971-0.091-1.938-0.183-2.898-0.273
	c-1.919-0.226-3.82-0.294-5.688-0.433c-3.737-0.193-7.356-0.296-10.783-0.206c-1.718-0.001-3.378,0.128-4.996,0.178
	c-1.605,0.136-3.172,0.204-4.661,0.379c-2.99,0.284-5.721,0.685-8.134,1.128c-2.422,0.416-4.511,0.919-6.236,1.357
	c-1.719,0.453-3.064,0.873-3.976,1.183C149.318,221.641,148.833,221.833,148.833,221.833z"/>
<path fill="#C5CDD1" d="M173.32,236.308c0,0,0.93-0.51,2.645-1.184c0.86-0.326,1.907-0.735,3.135-1.102
	c1.226-0.375,2.617-0.802,4.163-1.125c1.538-0.39,3.226-0.675,5.019-0.979c0.896-0.149,1.825-0.223,2.773-0.339
	c0.948-0.106,1.919-0.227,2.91-0.257c1.98-0.109,4.034-0.211,6.119-0.121c1.042,0.038,2.097,0.031,3.15,0.108
	c1.052,0.101,2.108,0.202,3.164,0.304c2.118,0.163,4.201,0.604,6.256,0.969c0.512,0.101,1.027,0.179,1.531,0.296
	c0.5,0.132,0.999,0.263,1.494,0.394c0.987,0.267,1.963,0.531,2.922,0.791c0.477,0.139,0.954,0.258,1.418,0.409
	c0.459,0.166,0.914,0.33,1.364,0.493c0.895,0.334,1.771,0.661,2.623,0.979c0.84,0.348,1.687,0.6,2.447,1.001
	c0.767,0.379,1.507,0.746,2.218,1.098c1.413,0.715,2.728,1.309,3.808,2.017c1.095,0.674,2.025,1.299,2.79,1.807
	c1.529,1.019,2.366,1.644,2.366,1.644l-0.269,0.504c0,0-1.022-0.274-2.746-0.829c-0.861-0.279-1.906-0.609-3.077-1.031
	c-0.58-0.225-1.228-0.388-1.906-0.565c-0.67-0.194-1.375-0.398-2.109-0.611c-1.468-0.419-3.031-0.927-4.74-1.282
	c-0.843-0.207-1.708-0.419-2.593-0.636c-0.44-0.113-0.885-0.227-1.333-0.342c-0.452-0.104-0.916-0.176-1.379-0.267
	c-0.925-0.183-1.866-0.368-2.818-0.556c-0.949-0.197-1.908-0.398-2.891-0.518c-1.961-0.252-3.926-0.678-5.932-0.824
	c-0.998-0.111-1.996-0.223-2.99-0.334c-0.995-0.099-1.992-0.142-2.979-0.215c-0.988-0.043-1.966-0.186-2.938-0.185
	c-0.97-0.021-1.93-0.054-2.875-0.096c-1.89-0.062-3.721-0.025-5.463-0.037c-1.735,0.075-3.396,0.041-4.917,0.154
	c-1.527,0.075-2.928,0.162-4.175,0.254c-1.249,0.109-2.336,0.204-3.232,0.282c-0.898,0.098-1.604,0.175-2.085,0.227
	c-0.486,0.059-0.745,0.09-0.745,0.09L173.32,236.308z"/>
<path fill="#B9BEC2" d="M287.33,211.767c0,0,0.941-0.39,2.639-0.928c1.696-0.533,4.147-1.229,7.142-1.836
	c1.498-0.296,3.125-0.622,4.863-0.847c1.735-0.243,3.573-0.483,5.485-0.614c1.911-0.122,3.893-0.26,5.911-0.25
	c2.017-0.008,4.068,0.079,6.12,0.2c2.049,0.165,4.098,0.386,6.097,0.734c2.002,0.329,3.956,0.766,5.821,1.284
	c0.936,0.245,1.851,0.503,2.732,0.812c0.887,0.287,1.742,0.602,2.564,0.939c1.662,0.618,3.181,1.348,4.545,2.074
	c0.678,0.375,1.34,0.702,1.94,1.071c0.593,0.379,1.154,0.74,1.683,1.078c1.048,0.684,1.895,1.381,2.611,1.91
	c1.361,1.172,2.098,1.867,2.098,1.867l-0.125,0.167c0,0-0.913-0.464-2.445-1.311c-0.802-0.368-1.743-0.856-2.85-1.354
	c-1.116-0.481-2.367-1.017-3.763-1.526c-0.685-0.28-1.429-0.502-2.188-0.748c-0.75-0.269-1.538-0.511-2.355-0.735
	c-0.81-0.247-1.65-0.469-2.52-0.662c-0.43-0.109-0.864-0.219-1.304-0.331c-0.443-0.095-0.892-0.19-1.343-0.287
	c-1.801-0.402-3.692-0.684-5.609-0.972c-0.957-0.154-1.936-0.234-2.908-0.37c-0.979-0.095-1.962-0.191-2.944-0.287
	c-1.971-0.159-3.947-0.288-5.899-0.322c-1.95-0.066-3.876-0.089-5.74-0.067c-1.864,0.048-3.673,0.052-5.387,0.143
	c-1.714,0.081-3.338,0.165-4.838,0.263c-2.999,0.208-5.506,0.435-7.266,0.608C288.337,211.659,287.33,211.767,287.33,211.767z"/>
<path fill="#B9BEC2" d="M306.667,220.333c0,0,0.45-0.168,1.271-0.383c0.815-0.216,1.993-0.479,3.424-0.688
	c0.714-0.108,1.492-0.204,2.318-0.273c0.825-0.06,1.698-0.147,2.604-0.142c0.904-0.023,1.843-0.039,2.794,0.025
	c0.953,0.026,1.919,0.131,2.884,0.22c0.964,0.118,1.921,0.296,2.865,0.444c0.936,0.214,1.855,0.425,2.733,0.677
	c0.873,0.278,1.717,0.535,2.492,0.858c0.773,0.33,1.503,0.637,2.152,0.972c0.643,0.353,1.218,0.699,1.726,1
	c0.514,0.29,0.9,0.654,1.243,0.898c0.669,0.522,1.034,0.831,1.034,0.831l-0.082,0.122c0,0-0.454-0.176-1.219-0.5
	c-0.387-0.153-0.826-0.387-1.372-0.57c-0.545-0.186-1.156-0.391-1.809-0.637c-0.664-0.218-1.409-0.387-2.167-0.628
	c-0.764-0.229-1.606-0.353-2.443-0.579c-0.849-0.193-1.747-0.304-2.64-0.491c-0.908-0.124-1.826-0.278-2.753-0.374
	c-0.929-0.088-1.851-0.235-2.771-0.281c-0.917-0.068-1.82-0.159-2.699-0.197c-0.88-0.046-1.731-0.09-2.538-0.132
	c-0.811-0.028-1.577-0.055-2.284-0.08c-1.426-0.031-2.613-0.058-3.445-0.076C307.153,220.333,306.667,220.334,306.667,220.333z"/>
</svg>
