<?xml version="1.0" encoding="utf-8"?>
<!-- Generator: Adobe Illustrator 18.0.0, SVG Export Plug-In . SVG Version: 6.00 Build 0)  -->
<!DOCTYPE svg PUBLIC "-//W3C//DTD SVG 1.1 Basic//EN" "http://www.w3.org/Graphics/SVG/1.1/DTD/svg11-basic.dtd">
<svg version="1.1" baseProfile="basic" id="content"
	 xmlns="http://www.w3.org/2000/svg" xmlns:xlink="http://www.w3.org/1999/xlink" x="0px" y="0px" viewBox="0 0 500 500"
	 xml:space="preserve">
<rect id="position" x="0.5" y="0.5" display="none" fill="none" stroke="#000000" width="499" height="499"/>
<g>
	<path fill="#989898" d="M358.6,347.5h-218v5.6v0.4l0,0c0,0.7,0.1,1.4,0.1,2.1c0.9,8.2,7,14.9,14.9,16.6c1.1,0.2,2.2,0.4,3.4,0.4
		h0.7h14.4h3.4h15.1h3.4h15h3.4h15.1h3.5h15h3.5h15.1h3.4h15h3.5h15.1l0,0h3.4v-0.1l0,0v0.1h15l0,0h3.5v-0.1l0,0l0,0v0.1h14.1h0.7
		l0,0c1.2,0,2.3-0.2,3.4-0.4c8.6-1.9,15.1-9.5,15.1-18.7v-0.1v-0.3V353L358.6,347.5L358.6,347.5z"/>
	<g>
		<rect x="248.8" y="347.5" fill="#FFFFFF" width="3.2" height="25.1"/>
	</g>
</g>
</svg>
