<?xml version="1.0" encoding="utf-8"?>
<!-- Generator: Adobe Illustrator 18.0.0, SVG Export Plug-In . SVG Version: 6.00 Build 0)  -->
<!DOCTYPE svg PUBLIC "-//W3C//DTD SVG 1.1//EN" "http://www.w3.org/Graphics/SVG/1.1/DTD/svg11.dtd">
<svg version="1.1" id="content" xmlns="http://www.w3.org/2000/svg" xmlns:xlink="http://www.w3.org/1999/xlink" x="0px" y="0px"
	 width="500px" height="500px" viewBox="0 0 500 500" enable-background="new 0 0 500 500" xml:space="preserve">
<rect id="position" x="0.5" y="0.5" display="none" fill="none" stroke="#000000" width="499" height="499"/>
<polyline fill="#D0D3D6" points="250.3,238.2 207.5,174.2 117.1,174.2 117.1,481 382.9,481 382.9,174.2 285.7,174.2 250.3,238.2 
	250.3,238.2 "/>
<g>
	<path fill="#989898" d="M250.3,238.2c0,0,34.3-56.1,75.5-64.1h-43.4C282.5,174.2,250.3,182.2,250.3,238.2z"/>
</g>
<g>
	<path fill="#989898" d="M250.3,238.2c0,0-34.3-56.1-75.5-64.1h43.4C218.1,174.2,250.3,182.2,250.3,238.2z"/>
</g>
<g>
	<rect x="245.8" y="232.2" fill="#FFFFFF" width="9.2" height="23.2"/>
</g>
<g>
	<g>
		<path fill="#989898" d="M153.3,366v-14.1c23.2,0,42.1-18.9,42.1-42.1h14.1C209.5,340.7,184.3,366,153.3,366z"/>
	</g>
	<g>
		<path fill="#989898" d="M346.7,366c-31,0-56.2-25.2-56.2-56.2h14.1c0,23.2,18.9,42.1,42.1,42.1V366z"/>
	</g>
</g>
<g>
	<rect x="248.8" y="235.8" fill="#FFFFFF" width="3.2" height="245.2"/>
</g>
</svg>
