<?xml version="1.0" encoding="utf-8"?>
<!-- Generator: Adobe Illustrator 16.0.0, SVG Export Plug-In . SVG Version: 6.00 Build 0)  -->
<!DOCTYPE svg PUBLIC "-//W3C//DTD SVG 1.1//EN" "http://www.w3.org/Graphics/SVG/1.1/DTD/svg11.dtd">
<svg version="1.1" id="Layer_1" xmlns="http://www.w3.org/2000/svg" xmlns:xlink="http://www.w3.org/1999/xlink" x="0px" y="0px"
	 width="500px" height="500px" viewBox="0 0 500 500" enable-background="new 0 0 500 500" xml:space="preserve">
<g id="content">
	<g id="bounds">
		<rect x="0.2" y="0.5" fill="none" stroke="#EAEAEA" stroke-miterlimit="10" width="499.5" height="499.5"/>
	</g>
	<rect id="position" x="0.8" y="-79.3" display="none" fill="none" stroke="#000000" width="499" height="499"/>
</g>
<g>
	<path fill="#B8CEE7" d="M352.681,127.411l-0.022-0.053l0.015,0.027c0,0-0.511-0.73-0.896-1.311
		c3.093-5.984,4.53-11.786,4.53-17.175c0-12.676-7.416-23.181-16.965-29.035c-13.79-8.422-33.843-8.375-45.673,7.311
		c-20.131-2.761-36.801,2.751-43.228,5.392c-6.409-2.641-23.06-8.153-43.162-5.409c-13.777-16.473-33.258-15.263-46.231-6.434
		c-9.317,6.351-15.954,16.989-15.954,28.884c0,5.229,1.374,10.667,4.259,16.132c-0.532,0.754-1.153,1.671-1.153,1.671
		c-12.596,19.158-16.434,35.912-16.434,49.219c0,19.868,8.559,31.988,9.148,32.838l3.682,5.037c0,0,1.52-1.519,2.805-2.802
		c4.53,11.513,15.577,31.874,40.518,46.933l6.642,3.996c0,0,0.45-2.455,0.854-4.709c8.565,7.457,16.814,11.979,24.839,16.266
		c9.399,5.05,18.272,9.82,26.673,19.313l4.046,4.599l3.996-4.627c7.146-8.276,16.055-12.854,25.479-17.723
		c8.443-4.312,17.729-9.094,26.439-17.04c0.15,2.222,0.303,4.56,0.303,4.56l7.148-3.486c25.908-12.626,35.498-35.048,38.998-48.354
		c1.284,1.287,2.684,2.739,2.684,2.739l3.732-5.047C360.765,207.765,384.13,175.246,352.681,127.411z"/>
	<path fill="#B8CEE7" d="M172.614,308.894v47.894c2.711,0,30.651-0.036,30.651-0.036v-5.902l-24.647,0.053v-43.729h24.647v-6.195
		l-33.549,0.049L172.614,308.894z M242.024,308.894c0,0-3.648-0.026-8.181-0.026v48.075h5.128v-42.586l1.843-0.049
		c1.057,0,1.913,1.145,1.913,2.555l-0.025,40.135h5.479v-40.521C248.181,311.276,245.321,308.894,242.024,308.894z M216.584,356.997
		h5.175v-42.641h4.295v42.586h5.338v-48.092c-6.438,0-13.605-0.029-14.808-0.055V356.997z M151.927,294.076c0,0-4.09,0-9.152-0.024
		v62.553h5.779v-56.357l2.026-0.051c1.165,0,2.117,1.271,2.117,2.812l-0.025,53.642h6.376v-54.056
		C159.048,297.003,155.738,294.076,151.927,294.076z M181.073,327.683h16.097v-5.636h-10.869v-6.694h16.964v-5.727h-22.192V327.683z
		 M242.872,301.236h-37.168l3.139,8.442v47.318h5.261v-50.658l27.919,0.073c4.63,0,8.642,3.479,8.642,10.066v40.519h4.948
		l-0.041-43.943C255.574,305.63,249.271,301.236,242.872,301.236z M314.945,322.932h-6.572v-22.114l-5.111,0.025v26.354h17.365
		v-26.375h-5.682V322.932z M186.301,336.136h10.869v-5.959h-16.097v18.242c1.967,0,18.58-0.035,22.192-0.035v-5.293l-16.964-0.043
		C186.301,341.704,186.301,336.136,186.301,336.136z M123.743,356.647h5.835v-56.402h4.726v56.357h6.016v-62.551
		c-7.228-0.033-15.36-0.062-16.577-0.062V356.647L123.743,356.647z M152.849,285.761h-40.955l3.441,9.301v61.588h5.945v-65.113
		l30.648,0.068c5.03,0,9.589,3.771,9.589,10.988v54.057h5.402l-0.042-57.842C166.879,290.597,159.915,285.761,152.849,285.761z
		 M342.688,300.945v56.171h6.033l-0.005-56.171H342.688z M334.165,310.097l0.015,47.021h6.047v-56.175h-9.438L334.165,310.097z
		 M368.331,327.744c5.244,0,4.434,3.341,4.434,6.792v5.858c0,1.384-0.925,2.503-2.077,2.503h-0.853
		c-1.128,0-2.061-1.119-2.061-2.503v-6.901h-6.343v6.094c0,3.709,0,9.326,8.539,9.326c8.862,0,9.213-6.659,9.213-6.926v-12.762
		c0-6.031-3.161-6.581-8.279-6.977c-1.537-0.101-3.12-0.196-4.518-0.596c-6.034-1.676-6.799-5.887-7.072-7.446
		c-0.19-1.05-0.123-9.354-0.091-12.024c-0.015-0.263-0.235-4.133,2.41-7.027c1.872-2.064,4.659-3.096,8.271-3.096
		c3.828,0,6.808,1.123,8.816,3.346c2.482,2.719,2.754,6.248,2.754,7.629c0,0.25,0,0.4-0.023,0.475v5.336h6.499v-9.016
		c0-8.553-6.87-14.25-15.884-14.25h-2.911c-8.862,0-16.874,4.648-16.874,14.457v13.119
		C352.284,322.799,361.244,327.744,368.331,327.744z M279.535,301.261H257.66l3.031,8.361v47.494h4.967v-50.859h13.041
		c4.669,0,9.408,3.287,9.408,9.191v6.031c0,5.924-4.742,9.02-9.408,9.02h-10.576v26.612h5.65v-22.09c0,0,7.006-0.123,7.021-0.123
		c7.774,0,11.987-6.911,11.987-13.419l0.133-8.244C292.914,305.444,286.025,301.261,279.535,301.261z M374.363,314.44l-2.766-0.133
		c-2.521,0-3.977-1.066-3.977-3.713v-7.451c0-1.387,0.93-2.512,2.074-2.512h0.84c1.143,0,2.077,1.125,2.077,2.512v5.701h6.437
		v-5.463c0-0.033,0.239-3.771-2.105-6.324c-1.563-1.701-3.93-2.572-7.045-2.572c-2.892,0-5.073,0.787-6.471,2.303
		c-1.979,2.146-1.799,5.195-1.799,5.234v0.05v0.053c-0.041,5.112-0.041,10.953,0.046,11.617c0.255,1.394,0.774,4.267,5.332,5.521
		c1.179,0.347,2.57,0.446,4.058,0.553c4.438,0.342,10.529,0.786,10.529,9.4v12.783c0,0.104-0.363,9.365-11.629,9.365
		c-10.956,0-10.956-8.266-10.956-11.787v-6.094h-6.583v8.992c0,10.686,8.131,14.771,15.633,14.771h3.814
		c9.398,0,16.232-5.812,16.232-15.146v-13.924C388.107,318.043,381.286,314.44,374.363,314.44z M295.05,309.503v47.959h5.751
		v-56.619l-8.834,0.031L295.05,309.503z M285.645,321.489v-6.032c0-4.489-3.597-6.743-6.949-6.743c0,0-8.641,0-10.57,0v19.322
		c1.938,0,10.57,0,10.57,0C282.048,328.031,285.645,325.987,285.645,321.489z M273.773,322.959v-9.542h3.502
		c1.75,0,3.176,1.727,3.176,3.838v1.857c0,2.139-1.396,3.837-3.176,3.837h-3.502V322.959z M323.099,357.462h5.185v-56.645h-5.185
		V357.462z M303.257,357.462h5.11v-22.331h6.572v22.331h5.688V329.65h-17.37V357.462L303.257,357.462z"/>
	<path fill="#7599C4" d="M214.107,356.997v-50.661l27.917,0.077c4.632,0,8.641,3.477,8.641,10.062v40.521h-2.481v-40.521
		c0-5.199-2.861-7.582-6.156-7.582c0,0-3.648-0.03-8.182-0.03v48.074h-2.453v-48.093c-6.438,0-13.605-0.023-14.808-0.061v48.211
		L214.107,356.997L214.107,356.997z M203.265,309.628h-22.192v18.057h16.097v2.492h-16.097v18.242c1.967,0,18.58-0.035,22.192-0.035
		v2.465l-24.647,0.055v-43.729h24.647V309.628z M121.279,356.647v-65.113l30.648,0.07c5.03,0,9.589,3.771,9.589,10.988v54.055
		h-2.468v-54.055c0-5.597-3.309-8.521-7.122-8.521c0,0-4.09,0-9.152-0.025v62.552h-2.453v-62.552
		c-7.23-0.031-15.36-0.061-16.577-0.061v62.662H121.279z M340.227,357.12v-56.175h2.467v56.175H340.227z M265.658,357.12v-50.854
		h13.041c4.669,0,9.408,3.283,9.408,9.187v6.037c0,5.918-4.742,9.016-9.408,9.016h-10.576v26.611L265.658,357.12L265.658,357.12z
		 M361.43,333.493v6.094c0,3.709,0,9.326,8.537,9.326c8.868,0,9.213-6.659,9.213-6.926v-12.762c0-6.031-3.155-6.581-8.279-6.977
		c-1.535-0.101-3.119-0.196-4.518-0.596c-6.032-1.676-6.798-5.887-7.066-7.446c-0.19-1.05-0.131-9.354-0.096-12.024
		c-0.015-0.263-0.235-4.133,2.415-7.027c1.866-2.064,4.653-3.096,8.265-3.096c3.825,0,6.809,1.123,8.822,3.346
		c2.479,2.719,2.748,6.248,2.748,7.629c0,0.25,0,0.4-0.02,0.475v5.336h-2.4v-5.465c0-0.031,0.239-3.767-2.105-6.322
		c-1.563-1.705-3.93-2.57-7.045-2.57c-2.892,0-5.073,0.785-6.471,2.303c-1.979,2.146-1.799,5.195-1.799,5.234v0.045v0.058
		c-0.041,5.112-0.041,10.948,0.046,11.617c0.255,1.396,0.774,4.267,5.332,5.521c1.179,0.345,2.57,0.444,4.058,0.551
		c4.438,0.338,10.529,0.786,10.529,9.4V342c0,0.104-0.363,9.365-11.629,9.365c-10.956,0-10.956-8.266-10.956-11.787v-6.094h2.419
		V333.493L361.43,333.493z M285.645,321.489v-6.032c0-4.489-3.597-6.743-6.949-6.743c0,0-8.641,0-10.57,0v19.322
		c1.938,0,10.57,0,10.57,0C282.048,328.031,285.645,325.987,285.645,321.489z M300.807,357.462v-56.619h2.455v26.354h17.365v-26.38
		h2.472v56.645h-2.472V329.65h-17.365v27.812H300.807L300.807,357.462z"/>
	<path fill="#FFFFFF" d="M348.374,130.339c-0.892-1.365-1.78-2.646-2.676-3.893c22.366-36.651-30.405-64.755-49.503-33.643
		c-23.504-4.312-43.172,4.261-45.821,5.51c-2.633-1.224-22.035-9.715-45.351-5.593c-23.064-32.467-70.651,1.103-49.658,33.301
		c-1.006,1.39-2.011,2.827-2.98,4.318c-29.828,45.375-7.435,76.146-7.435,76.146l4.583-4.604c0,0,6.523,31.65,40.964,52.459
		l1.246-6.816c21.197,22.634,40.852,22.113,59.138,42.812c16.906-19.604,41.482-19.604,60.631-44.071v8.682
		c35.371-17.201,38.638-54.455,38.638-54.455l3.253,6.047C353.392,206.538,378.202,175.72,348.374,130.339z"/>
	<path fill="#002C5B" d="M348.374,130.339c-0.892-1.365-1.78-2.646-2.676-3.893c22.366-36.651-30.405-64.755-49.503-33.643
		c-23.504-4.312-43.172,4.261-45.821,5.51c-2.633-1.224-22.035-9.715-45.351-5.593c-23.064-32.467-70.651,1.103-49.658,33.301
		c-1.006,1.39-2.011,2.827-2.98,4.318c-29.828,45.375-7.435,76.146-7.435,76.146l4.583-4.604c0,0,6.523,31.65,40.964,52.459
		l1.246-6.816c21.197,22.634,40.852,22.113,59.138,42.812c16.906-19.604,41.482-19.604,60.631-44.071v8.682
		c35.371-17.201,38.638-54.455,38.638-54.455l3.253,6.047C353.392,206.538,378.202,175.72,348.374,130.339z"/>
	<path fill="#F9B739" d="M273.365,162.487c1.668-0.6,4.582,1.127,6.141,4.187c7.189-2.066,6.803-11.737,6.764-12.419
		C280.568,156.454,275.879,160.264,273.365,162.487z"/>
	<path fill="#7599C4" d="M250.665,209.198c1.97-0.312,33.397-1.434,14.138,18.091C278.225,209.513,253.889,209.384,250.665,209.198z
		 M305.02,107.832c0,0,7.07-17.672,28.721-13.407c0,0-19.875-13.065-33.719,10.575c0,0-19.625-9.326-49.229,3.481
		c0,0-28.021-9.771-49.156-4.233c0,0-12.339-21.404-29.695-12.573c-17.374,8.787-8.312,29.174-5.277,34.452
		c0,0-28.768,29.302-17.958,65.55l5.789-7.235c0,0,8.266,39.469,29.586,51.909l1.282-9.692c0,0,22.262,26.871,48.422,38.26
		c2.499,1.179,16.378,8.062,16.791,11.452v-18.791c0,0-18.147,1.516-22.943-6.872c-3.261-5.696-24.124-42.933-13.814-81.952
		c0,0-10.053-1.492-11.938-18.428c0,0-7.498-3.66-16.799-2.901c0,0,16.646-5.231,32.25,0.804
		c15.604,6.042,19.774,21.442,30.346,14.621l3.115-43.317l2.983,43.316c10.57,6.823,14.746-8.577,30.345-14.619
		c15.606-6.033,32.257-0.804,32.257-0.804s-6.654-4.683-17.361-6.828c-8.938-1.801-22.062,3.949-22.062,3.949
		s1.813-12.282,7.778-18.846C289.852,120.067,301.441,118.838,305.02,107.832z M170.412,122.762
		c-0.633-5.908,6.821-11.739,6.821-11.739c-3.076-3.191-8.446-0.447-8.446-0.447c4.877-9.515,15.781-4.865,15.781-4.865
		c-4.133-5.037-12.891-4.727-12.891-4.727c10.838-10.723,23.889,5.672,23.889,5.672
		C183.936,109.297,170.412,122.762,170.412,122.762z M286.27,154.255L286.27,154.255c-0.078,0.026-0.166,0.05-0.237,0.077
		C286.104,154.304,286.189,154.281,286.27,154.255z M277.602,168.216c17.365,46.761-4.766,76.817-4.766,76.817
		c13.625-35.706,4.871-65.396-1.104-76.433c-3.061,0.32-6.728,0.134-6.728,0.134s4.601-2.852,7.577-5.542
		c0.238-0.229,0.504-0.466,0.812-0.73c-0.014,0-0.014,0-0.031,0.023c1.669-0.6,4.582,1.126,6.142,4.187
		c7.183-2.066,6.804-11.711,6.765-12.419c2.092-0.836,4.297-1.408,6.612-1.65C292.883,152.605,291.219,167.978,277.602,168.216z"/>
	<path fill="#F9B739" d="M215.979,154.202c-0.041,0.735-0.421,10.404,6.757,12.472c1.538-2.977,4.294-4.733,5.959-4.21
		C224.87,159.481,220.061,156.162,215.979,154.202z"/>
	<path fill="#B8CEE7" d="M250.602,253.087c-21.907,0-18.949-4.812-18.949-4.812c2.362-1.482,17.705-1.774,18.924-1.774
		c1.211,0,16.618,0.292,18.97,1.774C269.552,248.272,272.506,253.087,250.602,253.087z M216.012,154.229c-0.021,0-0.033,0-0.033,0
		S215.991,154.229,216.012,154.229L216.012,154.229z M250.582,232.804c0,2.924,0,8.881,0,8.881l-6.025,0.351
		c-6.333,0.179-14.633,2.74-14.633,2.74c-15.37-38.082-6.851-66.894-2.748-77.168c-15.234,3.297-17.702-15-17.702-15
		c1.574-0.333,3.887,0.365,6.502,1.597c-0.041,0.735-0.421,10.404,6.758,12.472c1.53-2.977,4.294-4.733,5.958-4.21
		c1.142,0.859,2.195,1.722,3.114,2.51c10.36,8.703,18.398,6.953,18.398,6.953s0.119,33.192,0.119,37.277
		c0,0-29.978-2.354-13.865,18.094c0,0,2.586-7.486,5.33-5.127C245.606,225.438,250.582,232.095,250.582,232.804z"/>
	<path fill="#7599C4" d="M183.461,390.837l-0.353,0.971c-0.405,1.102-1.451,1.699-2.406,1.365l-1.946-0.731l1.784-4.915l1.968,0.729
		C183.442,388.591,183.87,389.746,183.461,390.837z M185.982,382.396l-11.688-4.232l0.032,4.883l-8.913,24.523l6.929,2.538
		l4.151-11.397l2.105,0.763c0.604,0.206,0.849,1.015,0.577,1.802l-3.649,9.989l6.846,2.507l3.764-10.326
		c0.588-1.623,0.407-3.113-0.522-4.213c0,0,2.329-0.394,3.567-3.838l1.636-4.237C192.284,387.13,189.422,383.666,185.982,382.396z"
		/>
	<path fill="#7599C4" d="M328.979,385.532l-2.4-6.953l-17.29,6.04l2.897,3.577l8.648,24.854c1.406-0.482,15.871-5.533,15.871-5.533
		l-2.467-6.869l-8.748,3.031c-0.246-0.703-1.416-4.087-1.416-4.087l5.604-1.95l-2.445-7.035l-5.608,1.956l-1.387-3.974
		L328.979,385.532z"/>
	<polygon fill="#7599C4" points="280.553,414.267 278.299,390.739 269.07,391.634 271.37,396.329 273.811,421.865 291.898,420.175 
		291.234,413.238 	"/>
	<polygon fill="#7599C4" points="200.051,391.705 199.418,386.442 199.418,386.442 208.267,388.333 202.05,418.339 194.819,416.803 
			"/>
	<polygon fill="#7599C4" points="295.758,392.96 293.064,388.403 293.064,388.403 301.912,386.55 308.367,416.538 301.131,418.028 	
		"/>
	<polygon fill="#7599C4" points="235.162,391.906 216.806,389.978 215.979,398.493 221.117,397.188 224.081,397.513 
		213.613,420.429 231.978,422.259 232.617,415.312 224.697,414.497 	"/>
	<polygon fill="#7599C4" points="260.65,392.307 242.195,392.233 242.222,400.767 247.205,398.974 250.189,399.003 242.036,422.837 
		260.506,422.837 260.447,415.859 252.498,415.832 	"/>
	<path fill="#7599C4" d="M351.799,388.652l1.451,2.16c0.352,0.524,0.281,1.18-0.148,1.464l-0.932,0.631
		c-0.423,0.261-1.055,0.074-1.39-0.455l-1.722-2.562l-5.722,3.793l2.216,3.385c2.659,3.969,6.701,3.504,9.505,1.643l2.03-1.363
		c3.527-2.334,4.639-6.193,2.328-9.678l-3.451-5.189c-2.521-3.793-5.967-3.448-8.549-1.744l-1.67,1.023
		c-0.939,0.641-1.77,0.583-2.404-0.378l-1.85-2.776c-0.351-0.521-0.277-1.174,0.151-1.449l0.928-0.639
		c0.437-0.256,1.064-0.074,1.401,0.443l1.416,2.125l5.722-3.789l-2.237-3.383c-2.121-3.195-6.107-3.603-9.453-1.384l-1.707,1.112
		c-3.307,2.201-5.158,5.922-2.719,9.602l3.254,4.885c2.39,3.609,6.969,3.236,9.611,1.463
		C350.274,386.009,350.947,387.371,351.799,388.652z"/>
	<path fill="#7599C4" d="M155.719,397.038c-2.501,3.714-6.9,3.895-9.897,1.882l-3.092-2.093c-2.994-2.005-4.475-6.164-1.979-9.852
		l10.053-15.03c2.469-3.705,6.877-3.925,9.883-1.917l3.095,2.066c3.005,1.981,4.495,6.165,2.021,9.854l-1.996,3.004l-6.115-4.104
		l1.255-1.854c0.459-0.711,0.443-1.545-0.056-1.881l-0.975-0.656c-0.499-0.348-1.285-0.022-1.75,0.686c0,0-0.498,0.728-1.259,1.881
		c-1.361,2.002-7.318,10.924-7.318,10.924c-0.48,0.707-0.472,1.54,0.041,1.882l0.979,0.675c0.482,0.314,1.265,0.041,1.738-0.675
		l2.272-3.345l-1.068-0.709l2.852-4.254l7.2,4.807L155.719,397.038z"/>
</g>
</svg>
