<?xml version="1.0" encoding="utf-8"?>
<!-- Generator: Adobe Illustrator 18.0.0, SVG Export Plug-In . SVG Version: 6.00 Build 0)  -->
<!DOCTYPE svg PUBLIC "-//W3C//DTD SVG 1.1//EN" "http://www.w3.org/Graphics/SVG/1.1/DTD/svg11.dtd">
<svg version="1.1" id="content" xmlns="http://www.w3.org/2000/svg" xmlns:xlink="http://www.w3.org/1999/xlink" x="0px" y="0px"
	 width="500px" height="500px" viewBox="0 0 500 500" enable-background="new 0 0 500 500" xml:space="preserve">
<rect id="position" x="0.5" y="0.5" display="none" fill="none" stroke="#000000" width="499" height="499"/>
<g>
	<g id="body">
		<path fill="#E8393B" d="M283.8,175.5c-3.2,16-17.3,28.1-34.3,28.1s-31.1-12.1-34.3-28.1h-74.9V270h218.3v-94.5H325l-38,11.2
			L283.8,175.5z"/>
	</g>
	<g>
		<polygon fill="#E8393B" points="358.7,304.8 249.7,304.8 140.4,308.8 129.5,402.6 369.8,402.6 		"/>
		<polygon fill="#FFD626" points="370.8,411.5 369.8,402.6 129.5,402.6 128.5,411.5 		"/>
		<polygon fill="#FFD626" points="126.6,428.4 249.7,428.4 372.7,428.4 371.7,419.6 127.6,419.6 		"/>
		<polygon fill="#006838" points="127.6,419.6 371.7,419.6 370.8,411.5 128.5,411.5 		"/>
		<g>
			<polygon opacity="0.33" fill="#8C2D2B" enable-background="new    " points="162.2,428.4 170.1,344.3 172.4,428.4 			"/>
			<polygon opacity="0.33" fill="#8C2D2B" enable-background="new    " points="218,428.4 220.3,344.3 226.8,428.4 			"/>
			<polygon opacity="0.33" fill="#8C2D2B" enable-background="new    " points="273.2,428.4 279.7,344.3 282,428.4 			"/>
			<polygon opacity="0.33" fill="#8C2D2B" enable-background="new    " points="327.6,428.4 329.9,344.3 337.8,428.4 			"/>
		</g>
	</g>
	<g>
		<polygon fill="#E8393B" points="358.7,175.5 325,175.5 139.6,260.4 138.2,310.8 358.7,231.5 		"/>
		<polygon fill="#FFD626" points="293.9,175.5 276.8,175.5 140.4,235.9 140.1,244.6 		"/>
		<polygon fill="#FFD626" points="307.9,175.5 139.9,251.7 139.6,260.4 325,175.5 		"/>
		<polygon fill="#006838" points="140.1,244.6 139.9,251.7 307.9,175.5 293.9,175.5 		"/>
		<polygon fill="#FFD626" points="138.2,310.8 137.9,319.5 358.7,240 358.7,231.5 		"/>
		<polygon fill="#FFD626" points="137.7,326.6 137.3,335.4 358.7,255.5 358.7,247 		"/>
		<polygon fill="#006838" points="137.9,319.5 137.7,326.6 358.7,247 358.7,240 		"/>
	</g>
	<polygon opacity="0.33" fill="#8C2D2B" enable-background="new    " points="139.4,267.2 289,210 139.1,277.2 	"/>
	<polygon opacity="0.33" fill="#8C2D2B" enable-background="new    " points="138.7,291.1 216,263 138.4,301.2 	"/>
	<polygon opacity="0.33" fill="#8C2D2B" enable-background="new    " points="358.7,202.8 255,246.4 358.7,210.3 	"/>
</g>
</svg>
