<?xml version="1.0" encoding="utf-8"?>
<!-- Generator: Adobe Illustrator 18.0.0, SVG Export Plug-In . SVG Version: 6.00 Build 0)  -->
<!DOCTYPE svg PUBLIC "-//W3C//DTD SVG 1.1//EN" "http://www.w3.org/Graphics/SVG/1.1/DTD/svg11.dtd">
<svg version="1.1" id="content" xmlns="http://www.w3.org/2000/svg" xmlns:xlink="http://www.w3.org/1999/xlink" x="0px" y="0px"
	 width="500px" height="500px" viewBox="0 0 500 500" enable-background="new 0 0 500 500" xml:space="preserve">
<rect id="position" x="0.5" y="0.5" display="none" fill="none" stroke="#000000" width="499" height="499"/>
<g>
	<g>
		<path fill="#F07BAF" d="M368.8,414l-10.1-60.7H140.4l-9.2,60.8c-0.1,0.4-0.2,0.8-0.2,1.2c0,6.5,17.8,11.8,39.7,11.8
			c21.9,0,39.7-5.3,39.7-11.8c0,6.5,17.8,11.8,39.7,11.8s39.7-5.3,39.7-11.8c0,6.5,17.8,11.8,39.7,11.8c21.9,0,39.7-5.3,39.7-11.8
			C369,414.9,369,414.4,368.8,414z"/>
		<path opacity="0.1" d="M201.5,421.3l-0.2,1.5c0,0,0,0,0,0l0,0c5.7-2,9.1-4.7,9.1-7.5v-42.5L201.5,421.3z"/>
		<path opacity="0.1" d="M298.5,421.3l0.2,1.5c0,0,0,0,0,0l0,0c-5.7-2-9.1-4.7-9.1-7.5v-42.5L298.5,421.3z"/>
	</g>
	<rect x="140.4" y="333.9" fill="#989898" width="218.3" height="19.4"/>
	<g>
		<rect x="248.8" y="333.9" fill="#FFFFFF" width="3.2" height="19.4"/>
	</g>
</g>
</svg>
