<?xml version="1.0" encoding="utf-8"?>
<!-- Generator: Adobe Illustrator 16.0.0, SVG Export Plug-In . SVG Version: 6.00 Build 0)  -->
<!DOCTYPE svg PUBLIC "-//W3C//DTD SVG 1.1//EN" "http://www.w3.org/Graphics/SVG/1.1/DTD/svg11.dtd">
<svg version="1.1" id="content" xmlns="http://www.w3.org/2000/svg" xmlns:xlink="http://www.w3.org/1999/xlink" x="0px" y="0px"
	 width="500px" height="500px" viewBox="0 0 500 500" enable-background="new 0 0 500 500" xml:space="preserve">
<rect id="position" x="0.5" y="0.5" display="none" fill="none" stroke="#000000" width="499" height="499"/>
<g>
	<path fill="#008CA6" d="M382.475,229.248c-43.13-0.404-56.03-30.487-59.516-53.759h-30.542
		C286.766,189.592,250.026,204,250.026,204s-36.738-14.408-42.391-28.511h-30.542c-3.507,23.43-16.508,53.761-60.344,53.761
		c-0.046,0-0.088,0-0.133,0v240.83h133.41h132.448L382.475,229.248L382.475,229.248z"/>
	<path opacity="0.2" fill="#212121" enable-background="new    " d="M305.061,206.412c-1.539,0-2.791-1.252-2.791-2.792v-14.099
		c0-1.54,1.252-2.792,2.791-2.792h4.184c1.539,0,2.792,1.252,2.792,2.793v14.098c0,1.54-1.253,2.792-2.792,2.792H305.061z"/>
	<path fill="#FFFFFF" d="M305.188,204.513c-1.443,0-2.621-1.176-2.621-2.623v-13.239c0-1.446,1.178-2.623,2.621-2.623h3.93
		c1.443,0,2.621,1.176,2.621,2.623v13.239c0,1.446-1.178,2.623-2.621,2.623H305.188z"/>
	<path fill="#C00033" d="M307.151,203.213h1.964c0.729,0,1.319-0.592,1.319-1.323v-13.239c0-0.73-0.592-1.323-1.319-1.323h-1.964"/>
	<path fill="#006CB3" d="M309.332,203.213c0,0-0.036-0.939-0.431-3.272l-1.75-1.812v-10.8h-1.964c-0.729,0-1.321,0.592-1.321,1.323
		v13.239c0,0.731,0.592,1.323,1.321,1.323h1.964L309.332,203.213L309.332,203.213z"/>
	<path opacity="0.2" fill="#212121" enable-background="new    " d="M309.679,195.18c-0.05-0.058,0.049-0.09-0.289-0.167
		c-0.062-0.035-0.11-0.529-0.11-0.529c-0.052-0.317-0.163-0.536-0.332-0.872c-0.085-0.173-0.125-0.71-0.216-0.984
		c0.051-1.255-0.353-1.62-0.678-1.824c-0.123-0.079-0.185-0.137-0.307-0.208l-0.004-0.058c-0.095-0.09-0.286-0.187-0.443-0.257
		c-0.049-0.049-0.023-0.156,0.008-0.196c0.106-0.016,0.248-0.254,0.365-0.5c0.092,0.005,0.122-0.084,0.151-0.135
		c0.099-0.157,0.204-0.294,0.065-0.384c0.311-0.552,0.111-0.924-0.057-0.938c-0.067-0.139-0.185-0.225-0.392-0.298l-0.425-0.001
		c-0.438,0.168-0.501,0.36-0.518,0.969c-0.074,0.008-0.231-0.062-0.178,0.309c0,0,0.027,0.247,0.128,0.204
		c-0.097,0.652,0.017,0.703-0.661,0.732l-0.032,0.048c-0.675,0.065-0.888-0.02-1.456,1.138c0,0-0.147,0.358-0.19,0.507
		c-0.059,0.122-0.149,0.309-0.246,0.51v1.598c0.084,0.004,0.187,0.005,0.332,0.001v0.174c0,0-0.203,0.175-0.244,0.282
		c-0.021,0.048-0.057,0.188-0.088,0.344v0.883c0.143,0.506,0.505,0.968,0.635,1.498l0.352,0.049c0.199,0.45,1.062,1.672,1.236,1.833
		c0.041,0.113,0.26,0.253,0.388,0.393c0.105,0.1,0.729,0.782,1.459,1.201c-0.004,0,0.118,0.244,0.18,0.44
		c-0.243,0.195,0.225,0.552,0.367,1.142c0.011,0.077-0.136,0.159,0.08,0.352c-0.005,0.309-0.041,0.563-0.064,0.779h0.62h0.117
		c-0.047-0.228-0.14-0.452-0.188-0.624c-0.008-0.022,0.01-0.052,0.021-0.071c0.029-0.056-0.032-0.182-0.032-0.182
		c-0.069-0.063-0.09-0.398-0.129-0.548c-0.062-0.254,0.109-0.689,0.109-0.838c0-0.146-0.109-0.349-0.314-0.609
		c-0.05-0.056-0.195-1.323-0.327-1.644c-0.187-0.442-0.242-0.373-0.455-0.898c-0.171-0.373-0.039-0.92-0.419-2.192
		c0.004,0.005,0.086-0.08,0.086-0.08s-0.302-1.102-0.4-1.404c-0.1-0.301-0.271-0.323-0.271-0.323s0.001-0.123,0.008-0.155
		c0.015-0.049,0.368-0.969,0.397-0.998c0-0.022,0.51-0.366,0.52-0.317c0.042,0.226,0.24,1.37,0.323,1.553
		c0.087,0.185,0.38,0.746,0.519,1.094c-0.527,0.127-0.92,0.603-0.92,1.17c0,0.663,0.537,1.202,1.204,1.202
		c0.507,0,0.943-0.314,1.118-0.758l0.001-0.884c-0.038-0.097-0.089-0.192-0.155-0.282
		C309.926,195.244,309.731,195.248,309.679,195.18z"/>
	<path fill="#FFFFFF" d="M309.186,203.296c-0.236-0.14-0.225-0.344-0.167-0.816c0.024-0.201,0.055-0.436,0.06-0.71
		c-0.144-0.164-0.124-0.205-0.104-0.257l0.01-0.02l0.014-0.086c-0.065-0.271-0.19-0.488-0.29-0.662
		c-0.141-0.246-0.188-0.345-0.108-0.408c-0.019-0.233-0.098-0.407-0.135-0.489c-0.677-0.44-1.222-0.994-1.427-1.202
		c-0.117-0.122-0.184-0.178-0.244-0.231c-0.082-0.071-0.175-0.151-0.193-0.201c-0.18-0.177-1.041-1.395-1.238-1.839l-0.412-0.096
		c-0.004-0.226-0.143-0.491-0.276-0.748c-0.18-0.342-0.35-0.666-0.356-1.021c-0.006-0.228,0.107-0.748,0.149-0.847
		c0.023-0.062,0.146-0.185,0.224-0.251l0.028-0.235v-0.083l-0.286,0.006c-0.313,0-0.317-0.02-0.339-0.118
		c-0.01-0.048-0.022-0.114-0.058-0.191c-0.059-0.128-0.044-0.167-0.018-0.246c0.11-0.441,0.359-0.945,0.523-1.278l0.081-0.165
		c0.047-0.158,0.19-0.511,0.19-0.511c0.498-1.015,0.696-1.031,1.229-1.075l0.2-0.018l0.054-0.079c0.032,0,0.062,0,0.091,0
		c0.461,0,0.502-0.079,0.554-0.516l0.052-0.391l-0.131,0.057c0.012-0.011-0.012-0.081-0.02-0.141
		c-0.022-0.172,0.004-0.21,0.007-0.214l0.17-0.013l0.002-0.07c0.019-0.617,0.089-0.751,0.468-0.896l0.395,0.006
		c0.163,0.062,0.265,0.137,0.319,0.253c0.089,0.046,0.129,0.071,0.162,0.134c0.07,0.135,0.083,0.398-0.104,0.73l-0.037,0.065
		l0.062,0.041c0.047,0.031,0.044,0.063-0.065,0.234l-0.102,0.139c-0.288,0.481-0.384,0.5-0.385,0.5
		c-0.106,0.096-0.138,0.248-0.055,0.331c0.229,0.107,0.376,0.193,0.445,0.259c0.086,0.107,0.134,0.143,0.185,0.179l0.14,0.095
		c0.343,0.215,0.686,0.592,0.639,1.753c0.046,0.155,0.076,0.338,0.106,0.515c0.034,0.218,0.065,0.406,0.115,0.507
		c0.176,0.344,0.278,0.553,0.325,0.849c0.053,0.532,0.12,0.569,0.152,0.587c0.198,0.048,0.229,0.072,0.231,0.076
		c0.062,0.108,0.105,0.128,0.149,0.147c0.08,0.036,0.112,0.056,0.112,0.119c0.075,0.127,0.124,0.216,0.161,0.311l-0.009,0.855
		c-0.159,0.394-0.579,0.678-1.036,0.678c-0.62,0-1.124-0.503-1.124-1.122c0-0.522,0.353-0.971,0.856-1.093l0.09-0.021l-0.033-0.086
		c-0.102-0.253-0.282-0.619-0.408-0.873l-0.111-0.226c-0.067-0.148-0.229-1.054-0.292-1.395l-0.037-0.205l-0.074-0.005
		c-0.022,0-0.067,0-0.323,0.167c-0.269,0.174-0.269,0.195-0.269,0.236l0,0c-0.031,0-0.392,0.966-0.395,0.975
		c-0.011,0.042-0.013,0.177-0.013,0.177l-0.001,0.072l0.071,0.008c0.003,0,0.126,0.026,0.206,0.268c0.099,0.301,0.399,1.4,0.399,1.4
		h-0.107l0.022,0.082c0.218,0.729,0.266,1.217,0.3,1.573c0.024,0.267,0.045,0.46,0.123,0.629c0.111,0.282,0.185,0.396,0.254,0.507
		c0.058,0.094,0.115,0.187,0.199,0.389c0.072,0.18,0.156,0.705,0.22,1.088c0.075,0.472,0.091,0.542,0.121,0.578
		c0.195,0.249,0.297,0.437,0.297,0.557c0,0.042-0.021,0.13-0.044,0.223c-0.049,0.201-0.11,0.45-0.065,0.634
		c0.016,0.05,0.024,0.12,0.035,0.193c0.032,0.208,0.056,0.338,0.118,0.395c0.003,0.018,0.019,0.072,0.015,0.089l-0.017,0.031
		l-0.007,0.1c0.017,0.058,0.04,0.127,0.063,0.201c0.134,0.385,0.297,0.862-0.13,1.132L309.186,203.296z"/>
	<path fill="#494275" d="M173.829,175.318c-2.132,11.535-6.63,25.368-15.686,35.657c-7.805,8.87-23.31,14.538-41.526,15.209v6.007
		c20.221-0.701,36.991-6.98,46.03-17.252c10.165-11.551,15.101-26.923,17.325-39.621H173.829z"/>
	<path fill="#494275" d="M382.475,226.113c-17.591-0.911-32.489-6.502-40.09-15.138c-9.056-10.29-13.554-24.123-15.686-35.657
		h-6.146c2.226,12.698,7.159,28.07,17.325,39.621c8.822,10.026,25.021,16.237,44.594,17.18L382.475,226.113L382.475,226.113z"/>
	<path fill="#FFFFFF" d="M242.974,320.395l-23.686-13.65c-2.812,0.295-5.607,0.623-8.138,0.957l-1.053,0.139l-8.981-5.5v-9.511
		l-9.664-5.045l9.663-4.729v-11.986h7.085c-0.175-0.293-0.342-0.59-0.496-0.883c-0.657-1.254-1.362-2.769-1.835-3.808
		c-6.884-2.43-12.728-7.128-15.447-12.487c-6.258-11.447-10.918-25.225-11.114-25.806l-2.26-6.722l6.155,2.943
		c-1.399-4.851-2.198-8.289-2.244-8.489l-1.693-7.327l6.271,4.15c0.277,0.184,26.831,17.789,48.652,34.903
		c0.182-0.626,0.519-1.351,1.129-2.061c-0.801-0.579-1.6-1.146-2.296-1.622c-4.371-3-3.921-6.753-3.856-7.171l0.77-4.909
		l13.407,9.982c1.512-0.396,3.956-0.875,6.935-0.875c2.373,0,4.71,0.298,6.97,0.888l13.429-9.996l0.769,4.91
		c0.065,0.418,0.515,4.171-3.855,7.167c-0.704,0.483-1.506,1.053-2.297,1.625c0.609,0.71,0.948,1.434,1.131,2.06
		c21.821-17.115,48.379-34.719,48.656-34.902l6.278-4.154l-1.7,7.334c-0.047,0.201-0.85,3.637-2.248,8.485l6.157-2.957l-2.267,6.737
		c-0.193,0.581-4.854,14.358-11.15,25.886c-2.686,5.288-8.53,9.983-15.42,12.41c-0.743,1.64-1.404,3.067-2.135,4.322
		c-0.072,0.124-0.144,0.243-0.215,0.362h7.107v12.004l9.685,4.841l-9.685,4.938v9.489l-8.977,5.501l-1.054-0.141
		c-2.521-0.332-5.313-0.659-8.136-0.957l-23.646,13.652c-4.521,20.678-7.681,31.024-7.681,31.024L242.974,320.395z"/>
	<path fill="#1F145F" d="M214.118,274.064h-10.003v10.857l-6.015,2.944l6.016,3.141v9.647l6.643,4.066
		c2.447-0.322,5.569-0.697,9.187-1.064l25.677,14.801l4.682,21.529c0.03-0.051,4.729-21.529,4.729-21.529l25.634-14.801
		c3.616,0.367,6.74,0.742,9.186,1.064l6.639-4.066v-9.647l6.025-3.071l-6.025-3.014v-10.857h-9.996c0,0,1.548-1.494,3.509-4.871
		c0.819-1.409,1.595-3.17,2.543-5.254c7.288-2.219,12.667-6.871,14.972-11.41c6.243-11.427,10.941-25.403,10.941-25.403
		s-2.696,1.295-5.948,2.9c2.642-8.052,4.227-14.887,4.227-14.887s-28.794,19.052-51.222,36.945l-1.943-1.165
		c0.008-0.187,0.06-1.822,0.06-1.957c0,0,0.22-1.902-3.129-3.039c-0.206-0.069-0.401-0.135-0.595-0.199
		c1.625-1.219,4.146-3.082,5.986-4.343c2.938-2.014,2.59-4.229,2.59-4.229l-10.639,7.92c-8.226-2.667-15.077,0-15.077,0
		l-10.637-7.92c0,0-0.348,2.216,2.585,4.229c1.844,1.261,4.364,3.124,5.992,4.343c-0.194,0.064-0.392,0.13-0.595,0.199
		c-3.35,1.136-3.128,3.039-3.128,3.039c0,0.135,0.048,1.771,0.059,1.957l-1.945,1.165c-22.428-17.893-51.217-36.945-51.217-36.945
		s1.579,6.835,4.219,14.887c-3.482-1.72-5.949-2.9-5.949-2.9s4.699,13.976,10.945,25.403c2.302,4.539,7.681,9.19,14.968,11.41
		c0,0,1.233,2.821,2.295,4.85C211.675,271.296,214.118,274.064,214.118,274.064z"/>
	<path fill="#008CA6" d="M262.381,257.793c-0.097,0.314-0.207,0.621-0.312,0.923c10.08-6.585,27.695-18.078,47.433-30.898
		c0,0,0.022,0.429,1.771-4.643C290.419,235.768,271.954,250.042,262.381,257.793z"/>
	<path fill="#008CA6" d="M238.229,257.795c-9.572-7.752-28.036-22.027-48.887-34.62c1.746,5.075,1.769,4.643,1.769,4.643
		c19.737,12.819,37.349,24.311,47.434,30.897C238.435,258.412,238.328,258.107,238.229,257.795z"/>
	<path fill="#008CA6" d="M250.297,267.975c-1.724-0.66-6.068-2.83-8.673-8.494c2.133,1.84,4.871,2.432,7.056,0.312
		c-2.669-1.148-3-5.911-3.517-7.161c-1.043-2.529-2.696-3.809-4.004-4.345c0.645-0.218,1.249-0.413,1.814-0.588
		c1.249,0.677,3.333,2.238,3.986,5.34c0,0,0.273-3.543-1.482-6.028c3.406-0.82,6.841-0.708,9.645-0.004
		c-1.761,2.486-1.49,6.033-1.49,6.033c0.657-3.106,2.748-4.668,3.998-5.342c0.563,0.173,1.169,0.37,1.819,0.589
		c-1.309,0.537-2.961,1.816-4.002,4.345c-0.514,1.25-0.848,6.013-3.512,7.161C252.547,263.417,251.794,266.801,250.297,267.975z
		 M219.924,274.627c-0.008-0.002-4.954-3.537-7.744-10.008l1.977,0.588c6.451,1.708,18.788,3.41,18.788,3.41
		c-5.94,0.133-10.966,0.6-13.833,0.917c-0.597-0.737-1.281-1.681-1.543-2.382c0,0,0.221,2.262,0.728,3.677l0,0
		C218.941,272.9,219.916,274.62,219.924,274.627z"/>
	<path fill="#008CA6" d="M282.298,270.829L282.298,270.829c0.509-1.415,0.729-3.677,0.729-3.677
		c-0.262,0.701-0.947,1.645-1.545,2.382c-2.865-0.317-7.894-0.784-13.832-0.917c0,0,12.336-1.702,18.789-3.41l1.977-0.588
		c-2.79,6.471-7.736,10.006-7.744,10.008C280.678,274.62,281.652,272.9,282.298,270.829z"/>
	<path fill="#008CA6" d="M234.942,305.248l-12.565-7.252c-0.904,0.086-1.792,0.171-2.646,0.26l17.446,10.069
		C236.325,307.387,235.577,306.355,234.942,305.248z"/>
	<path fill="#008CA6" d="M265.665,305.248l12.563-7.252c0.902,0.086,1.793,0.171,2.646,0.26l-17.444,10.069
		C264.281,307.387,265.029,306.355,265.665,305.248z"/>
	<path fill="#008CA6" d="M244.717,306.941c-5.548-1.203-7.844-3.938-7.844-3.938c1.137,2.312,2.853,4.29,4.958,5.743
		C241.832,308.747,244.17,308.07,244.717,306.941z"/>
	<path fill="#008CA6" d="M241.321,301.016c-0.39-0.381-0.79-0.777-1.183-1.188c-1.769,0.613-2.777,1.302-3.308,1.77
		c1.228,1.17,3.567,2.726,7.771,3.601C244.089,303.755,242.785,302.462,241.321,301.016z"/>
	<path fill="#008CA6" d="M250.194,314.104c-1.841,0.029-3.152,0.742-3.59,0.904c-0.46-0.867-0.997-1.749-1.504-2.525
		c1.583,0.191,2.971-0.104,2.971-0.104c-0.662-0.218-2.37-0.798-4.616-2.275c-0.003,0-0.004-0.004-0.004-0.004
		c0.193-0.082,0.39-0.17,0.589-0.271c0,0,0.004-0.001,0.006-0.004c0.592-0.296,1.185-0.681,1.655-1.164
		c0.56-0.578,0.946-1.295,0.946-2.187c0-2.758-1.854-3.688-3.938-5.742c-0.419-0.412-0.868-0.838-1.325-1.285
		c1.914-0.514,4.51-0.915,8.008-0.979l0.837,11.689h0.122l0.864-11.689c3.498,0.062,6.094,0.466,8.008,0.979
		c-0.455,0.447-0.906,0.873-1.324,1.285c-2.084,2.057-3.938,2.984-3.938,5.742c0,0.892,0.387,1.606,0.947,2.187
		c0.469,0.483,1.062,0.868,1.652,1.164c0.002,0.003,0.008,0.004,0.008,0.004c0.199,0.101,0.396,0.188,0.589,0.271
		c0,0-0.003,0.004-0.005,0.004c-2.244,1.479-3.952,2.06-4.614,2.275c0,0,1.39,0.295,2.971,0.104
		c-0.507,0.776-1.044,1.658-1.505,2.525c-0.438-0.162-1.75-0.875-3.59-0.904H250.194z"/>
	<path fill="#008CA6" d="M258.775,308.747c2.104-1.453,3.82-3.433,4.959-5.743c0,0-2.297,2.734-7.846,3.938
		C256.436,308.07,258.775,308.747,258.775,308.747z"/>
	<path fill="#008CA6" d="M256.007,305.195c4.202-0.875,6.543-2.428,7.769-3.598c-0.527-0.47-1.535-1.156-3.308-1.771
		c-0.393,0.408-0.793,0.807-1.182,1.188C257.82,302.462,256.518,303.755,256.007,305.195z"/>
	<path fill="#FFFFFF" d="M246.543,260.109c0,0-2.034-1.342-2.361-4.2C244.183,255.909,241.545,260.324,246.543,260.109z"/>
	<path fill="#FFFFFF" d="M254.211,260.109c0,0,2.035-1.342,2.359-4.2C256.57,255.909,259.21,260.324,254.211,260.109z"/>
	<path fill="#FFFFFF" d="M252.716,318.38c-0.364-0.378-0.896-0.817-2.516-0.819c-1.533-0.002-2.066,0.389-2.511,0.752l2.615,10.34
		L252.716,318.38z"/>
	<path fill="#FFFFFF" d="M270.008,272.955v3.785h-1.273v-3.785h-1.053v-1.082h3.377v1.082H270.008z"/>
	<path fill="#FFFFFF" d="M264.086,272.955v3.785h-1.275v-3.785h-1.054v-1.082h3.382v1.082H264.086z"/>
	<path fill="#FFFFFF" d="M246.195,275.016h0.457v-2.621l-0.532-0.521h-3.219v4.867h1.198v-1.726H245l0.695,1.726h1.19
		L246.195,275.016z M245.457,273.92h-1.358v-0.964h1.358V273.92z"/>
	<polygon fill="#FFFFFF" points="277.337,272.956 277.337,271.873 273.766,271.873 273.766,276.74 277.337,276.74 277.337,275.648 
		275.01,275.648 275.01,274.848 277.337,274.848 277.337,273.755 275.01,273.755 275.01,272.956 	"/>
	<polygon fill="#FFFFFF" points="250.96,275.648 250.96,271.873 249.711,271.873 249.711,276.74 252.756,276.74 252.756,275.648 	
		"/>
	<path fill="#FFFFFF" d="M258.355,271.873h-3.23v4.32l0.544,0.547h3.226v-4.328L258.355,271.873z M257.698,275.648h-1.38v-2.692
		h1.38V275.648z"/>
	<path fill="#FFFFFF" d="M240.028,276.74l-0.005-4.322l-0.538-0.545h-3.298v4.867h1.225v-1.582h1.384v1.582H240.028z
		 M237.411,274.062v-1.106h1.384v1.106H237.411z"/>
	<polygon fill="#FFFFFF" points="232.302,271.873 232.302,274.062 230.929,274.062 230.929,271.873 229.703,271.873 229.703,276.74 
		230.929,276.74 230.929,275.158 232.302,275.158 232.302,276.74 233.522,276.74 233.522,271.873 	"/>
	<path fill="#FFFFFF" d="M305.35,237.32c2.367-5.566,4.149-9.502,4.149-9.502c-19.735,12.817-37.351,24.313-47.431,30.898
		c-0.385,1.071-0.823,2.048-1.305,2.942L300.521,240l-31.033,22.412l1.432-0.258l16.398-1.584c0,0,11.082-1.071,17.248-9.361
		c2.9-4.452,7.845-17.463,7.845-17.463L305.35,237.32z"/>
	<path fill="#FFFFFF" d="M210.364,289.184l3.822-1.646v8.677c1.095-0.148,2.224-0.29,3.364-0.425l-0.001-19.049
		c-0.03,0-3.358,0-3.358,0c-0.008-0.023-0.008,6.825-0.005,6.858l-3.822,1.612l0.003-8.473h-3.38v9.858c0,0-2.785,1.336-2.77,1.362
		l2.77,1.384v7.995c1.084-0.196,2.23-0.384,3.377-0.565V289.184L210.364,289.184z"/>
	<path fill="#FFFFFF" d="M236.583,289.127c0.841-0.023,1.66-0.049,2.503-0.066c0.62,1.612,1.258,3.44,1.878,5.06
		c1.113-0.032,2.234-0.062,3.363-0.08c-0.617-1.623-1.246-3.44-1.864-5.047c0.426-0.009,0.854-0.017,1.286-0.021l-0.001-7.789
		l-1.491-1.47h-10.32l1.274,1.521v13.22c1.116-0.062,2.234-0.118,3.373-0.169L236.583,289.127L236.583,289.127z M236.58,282.801
		h3.808c0,0.938-0.006,2.139-0.006,2.985c-1.273,0.019-2.529,0.04-3.799,0.062L236.58,282.801z"/>
	<path fill="#FFFFFF" d="M249.724,282.801h3.859v11.194c1.162,0.012,2.366,0.028,3.513,0.052v-12.809l-1.537-1.525h-10.551
		l1.269,1.52l0.001,12.775c1.145-0.014,2.287-0.023,3.446-0.025C249.724,293.954,249.724,282.801,249.724,282.801z"/>
	<path fill="#FFFFFF" d="M269.691,291.312c-2.183-0.115-4.328-0.213-6.508-0.289c-0.009-0.799-0.01-1.598-0.012-2.393
		c2.188,0.062,4.34,0.137,6.52,0.229v-3.361c-2.187-0.059-4.346-0.105-6.524-0.146c-0.003-0.646-0.003-1.74-0.003-2.554h6.527
		v-3.088h-11.323l1.256,1.513v12.889c3.446,0.101,6.815,0.25,10.067,0.455V291.312L269.691,291.312z"/>
	<path fill="#FFFFFF" d="M278.175,282.801h2.899c0,0,0-3.137,0-3.088c-3.174,0-6.348,0-9.514,0v3.088h2.961v12.118
		c1.213,0.099,2.478,0.203,3.651,0.315L278.175,282.801L278.175,282.801z"/>
	<path fill="#FFFFFF" d="M230.719,281.232l-1.524-1.521H218.84l1.227,1.475l0.001,12.578l1.338,1.594
		c2.968-0.301,6.106-0.557,9.311-0.762L230.719,281.232z M227.334,291.479c-1.295,0.082-2.565,0.164-3.859,0.258v-8.936h3.862
		L227.334,291.479z"/>
	<path fill="#FFFFFF" d="M293.268,289.279c1.039-0.467,2.088-0.941,3.133-1.434c-3.355-1.556-6.717-2.97-10.08-4.273l-0.004-3.82
		h3.562v1.389h3.391v-4.398h-11.6l1.287,1.494v7.873l6.923,3.009v4.401c0,0-1.606-0.203-3.562-0.457v-1.414l-3.359-0.396v4.492
		c3.678,0.43,7.128,0.931,10.309,1.492C293.264,294.842,293.268,291.062,293.268,289.279z"/>
	<polygon fill="#FFFFFF" points="225.744,275.229 225.744,275.648 224.654,275.648 224.654,272.956 225.744,272.956 
		225.744,273.355 226.965,273.355 226.965,271.873 223.455,271.873 223.455,276.193 224,276.74 226.966,276.74 226.965,275.229 	"/>
	<path fill="#FFFFFF" d="M195.263,237.32c-2.367-5.566-4.148-9.502-4.148-9.502c19.734,12.817,37.35,24.313,47.43,30.898
		c0.385,1.071,0.824,2.048,1.304,2.942L200.092,240l31.034,22.412l-1.433-0.258l-16.399-1.584c0,0-11.082-1.071-17.248-9.361
		c-2.901-4.452-7.844-17.463-7.844-17.463L195.263,237.32z"/>
	<path fill="#494275" d="M289.938,175.318c-9.949,9.49-30.101,20.513-39.912,25.345c-9.812-4.832-29.964-15.853-39.913-25.345
		h-8.058c4.325,5.541,12.526,12,24.521,19.285c11.294,6.858,22.042,12.049,22.149,12.101l1.301,0.626l1.301-0.626
		c0.106-0.052,10.854-5.242,22.149-12.101c11.993-7.284,20.194-13.744,24.521-19.285H289.938z"/>
</g>
<path fill="#494275" d="M116.616,250.241V470.08h38.038V239.525C149.574,243.332,138.756,248.511,116.616,250.241z"/>
<path fill="#494275" d="M382.475,250.241V470.08h-38.037V239.525C349.518,243.332,360.334,248.511,382.475,250.241z"/>
</svg>
