<?xml version="1.0" encoding="utf-8"?>
<!-- Generator: Adobe Illustrator 16.0.0, SVG Export Plug-In . SVG Version: 6.00 Build 0)  -->
<!DOCTYPE svg PUBLIC "-//W3C//DTD SVG 1.1//EN" "http://www.w3.org/Graphics/SVG/1.1/DTD/svg11.dtd">
<svg version="1.1" id="content" xmlns="http://www.w3.org/2000/svg" xmlns:xlink="http://www.w3.org/1999/xlink" x="0px" y="0px"
	 width="500px" height="500px" viewBox="0 0 500 500" enable-background="new 0 0 500 500" xml:space="preserve">
<rect id="position" x="0.5" y="0.5" display="none" fill="none" stroke="#000000" width="499" height="499"/>
<g>
	<path fill="#132C4F" d="M382.475,229.248c-43.13-0.404-56.03-30.487-59.516-53.759h-30.542
		C286.766,189.592,250.026,204,250.026,204s-36.738-14.408-42.391-28.511h-30.542c-3.507,23.43-16.508,53.761-60.344,53.761
		c-0.046,0-0.088,0-0.133,0v240.83h133.41h132.448L382.475,229.248L382.475,229.248z"/>
	<path opacity="0.2" fill="#212121" enable-background="new    " d="M304.061,206.412c-1.539,0-2.791-1.252-2.791-2.792v-14.099
		c0-1.54,1.252-2.792,2.791-2.792h4.184c1.539,0,2.792,1.252,2.792,2.793v14.098c0,1.54-1.253,2.792-2.792,2.792H304.061z"/>
	<path fill="#FFFFFF" d="M304.188,204.513c-1.443,0-2.621-1.176-2.621-2.623v-13.239c0-1.446,1.178-2.623,2.621-2.623h3.93
		c1.443,0,2.621,1.176,2.621,2.623v13.239c0,1.446-1.178,2.623-2.621,2.623H304.188z"/>
	<path fill="#C00033" d="M306.151,203.213h1.964c0.729,0,1.319-0.592,1.319-1.323v-13.239c0-0.73-0.592-1.323-1.319-1.323h-1.964"/>
	<path fill="#006CB3" d="M308.332,203.213c0,0-0.036-0.939-0.431-3.272l-1.75-1.812v-10.8h-1.964c-0.729,0-1.321,0.592-1.321,1.323
		v13.239c0,0.731,0.592,1.323,1.321,1.323h1.964L308.332,203.213L308.332,203.213z"/>
	<path opacity="0.2" fill="#212121" enable-background="new    " d="M308.679,195.18c-0.05-0.058,0.049-0.09-0.289-0.167
		c-0.062-0.035-0.11-0.529-0.11-0.529c-0.052-0.317-0.163-0.536-0.332-0.872c-0.085-0.173-0.125-0.71-0.216-0.984
		c0.051-1.255-0.353-1.62-0.678-1.824c-0.123-0.079-0.185-0.137-0.307-0.208l-0.004-0.058c-0.095-0.09-0.286-0.187-0.443-0.257
		c-0.049-0.049-0.023-0.156,0.008-0.196c0.106-0.016,0.248-0.254,0.365-0.5c0.092,0.005,0.122-0.084,0.151-0.135
		c0.099-0.157,0.204-0.294,0.065-0.384c0.311-0.552,0.111-0.924-0.057-0.938c-0.067-0.139-0.185-0.225-0.392-0.298l-0.425-0.001
		c-0.438,0.168-0.501,0.36-0.518,0.969c-0.074,0.008-0.231-0.062-0.179,0.309c0,0,0.029,0.247,0.129,0.204
		c-0.096,0.652,0.017,0.703-0.661,0.732l-0.032,0.048c-0.675,0.065-0.888-0.02-1.456,1.138c0,0-0.147,0.358-0.19,0.507
		c-0.059,0.122-0.149,0.309-0.246,0.51v1.598c0.084,0.004,0.187,0.005,0.332,0.001v0.174c0,0-0.203,0.175-0.244,0.282
		c-0.021,0.048-0.057,0.188-0.088,0.344v0.883c0.143,0.506,0.505,0.968,0.635,1.498l0.352,0.049c0.199,0.45,1.062,1.672,1.236,1.833
		c0.041,0.113,0.26,0.253,0.389,0.393c0.104,0.1,0.729,0.782,1.458,1.201c-0.004,0,0.118,0.244,0.18,0.44
		c-0.243,0.195,0.225,0.552,0.368,1.142c0.01,0.077-0.137,0.159,0.079,0.352c-0.005,0.309-0.041,0.563-0.064,0.779h0.62h0.117
		c-0.047-0.228-0.14-0.452-0.188-0.624c-0.008-0.022,0.01-0.052,0.021-0.071c0.028-0.056-0.033-0.182-0.033-0.182
		c-0.069-0.063-0.09-0.398-0.129-0.548c-0.062-0.254,0.109-0.689,0.109-0.838c0-0.146-0.109-0.349-0.314-0.609
		c-0.049-0.056-0.195-1.323-0.327-1.644c-0.187-0.442-0.242-0.373-0.455-0.898c-0.171-0.373-0.039-0.92-0.419-2.192
		c0.004,0.005,0.086-0.08,0.086-0.08s-0.302-1.102-0.4-1.404c-0.1-0.301-0.271-0.323-0.271-0.323s0.001-0.123,0.008-0.155
		c0.016-0.049,0.368-0.969,0.397-0.998c0-0.022,0.51-0.366,0.52-0.317c0.042,0.226,0.24,1.37,0.323,1.553
		c0.087,0.185,0.38,0.746,0.519,1.094c-0.527,0.127-0.92,0.603-0.92,1.17c0,0.663,0.537,1.202,1.204,1.202
		c0.507,0,0.943-0.314,1.118-0.758l0.001-0.884c-0.038-0.097-0.089-0.192-0.155-0.282
		C308.926,195.244,308.731,195.248,308.679,195.18z"/>
	<path fill="#FFFFFF" d="M308.186,203.296c-0.236-0.14-0.225-0.344-0.167-0.816c0.024-0.201,0.055-0.436,0.06-0.71
		c-0.144-0.164-0.124-0.205-0.104-0.257l0.01-0.02l0.014-0.086c-0.065-0.271-0.19-0.488-0.29-0.662
		c-0.141-0.246-0.188-0.345-0.108-0.408c-0.019-0.233-0.098-0.407-0.135-0.489c-0.677-0.44-1.222-0.994-1.427-1.202
		c-0.117-0.122-0.184-0.178-0.244-0.231c-0.082-0.071-0.175-0.151-0.191-0.201c-0.182-0.177-1.043-1.395-1.24-1.839l-0.412-0.096
		c-0.004-0.226-0.143-0.491-0.276-0.748c-0.18-0.342-0.35-0.666-0.356-1.021c-0.006-0.228,0.107-0.748,0.149-0.847
		c0.023-0.062,0.146-0.185,0.224-0.251l0.029-0.235v-0.083l-0.287,0.006c-0.313,0-0.317-0.02-0.338-0.118
		c-0.011-0.048-0.022-0.114-0.059-0.191c-0.059-0.128-0.044-0.167-0.018-0.246c0.11-0.441,0.359-0.945,0.523-1.278l0.081-0.165
		c0.047-0.158,0.19-0.511,0.19-0.511c0.498-1.015,0.696-1.031,1.229-1.075l0.2-0.018l0.054-0.079c0.032,0,0.062,0,0.092,0
		c0.461,0,0.502-0.079,0.553-0.516l0.052-0.391l-0.132,0.057c0.013-0.011-0.01-0.081-0.019-0.141
		c-0.022-0.172,0.005-0.21,0.009-0.214l0.168-0.013l0.003-0.07c0.018-0.617,0.088-0.751,0.467-0.896l0.395,0.006
		c0.163,0.062,0.265,0.137,0.319,0.253c0.089,0.046,0.129,0.071,0.162,0.134c0.07,0.135,0.083,0.398-0.104,0.73l-0.037,0.065
		l0.062,0.041c0.047,0.031,0.044,0.063-0.065,0.234l-0.102,0.139c-0.288,0.481-0.384,0.5-0.385,0.5
		c-0.106,0.096-0.138,0.248-0.055,0.331c0.229,0.107,0.376,0.193,0.445,0.259c0.086,0.107,0.134,0.143,0.185,0.179l0.14,0.095
		c0.343,0.215,0.686,0.592,0.639,1.753c0.046,0.155,0.076,0.338,0.106,0.515c0.035,0.218,0.065,0.406,0.115,0.507
		c0.176,0.344,0.278,0.553,0.325,0.849c0.054,0.532,0.12,0.569,0.152,0.587c0.198,0.048,0.229,0.072,0.232,0.076
		c0.062,0.108,0.104,0.128,0.148,0.147c0.08,0.036,0.112,0.056,0.112,0.119c0.075,0.127,0.124,0.216,0.161,0.311l-0.009,0.855
		c-0.159,0.394-0.578,0.678-1.036,0.678c-0.62,0-1.124-0.503-1.124-1.122c0-0.522,0.353-0.971,0.856-1.093l0.09-0.021l-0.032-0.086
		c-0.103-0.253-0.283-0.619-0.409-0.873l-0.111-0.226c-0.067-0.148-0.229-1.054-0.292-1.395l-0.037-0.205l-0.074-0.005
		c-0.022,0-0.067,0-0.323,0.167c-0.269,0.174-0.269,0.195-0.269,0.236l0,0c-0.031,0-0.392,0.966-0.395,0.975
		c-0.011,0.042-0.013,0.177-0.013,0.177l-0.001,0.072l0.071,0.008c0.003,0,0.126,0.026,0.206,0.268c0.099,0.301,0.399,1.4,0.399,1.4
		h-0.107l0.022,0.082c0.218,0.729,0.266,1.217,0.3,1.573c0.024,0.267,0.045,0.46,0.123,0.629c0.111,0.282,0.185,0.396,0.254,0.507
		c0.058,0.094,0.115,0.187,0.199,0.389c0.072,0.18,0.156,0.705,0.22,1.088c0.075,0.472,0.091,0.542,0.121,0.578
		c0.196,0.249,0.297,0.437,0.297,0.557c0,0.042-0.021,0.13-0.044,0.223c-0.049,0.201-0.11,0.45-0.065,0.634
		c0.016,0.05,0.024,0.12,0.035,0.193c0.032,0.208,0.056,0.338,0.118,0.395c0.003,0.018,0.019,0.072,0.015,0.089l-0.017,0.031
		l-0.007,0.1c0.017,0.058,0.04,0.127,0.063,0.201c0.135,0.385,0.297,0.862-0.13,1.132L308.186,203.296z"/>
	<path fill="#EDEDED" d="M173.829,175.318c-2.132,11.535-6.63,25.368-15.686,35.657c-7.805,8.87-23.31,14.538-41.526,15.209v6.007
		c20.221-0.701,36.991-6.98,46.03-17.252c10.165-11.551,15.101-26.923,17.325-39.621H173.829z"/>
	<path fill="#EDEDED" d="M382.475,226.113c-17.591-0.911-32.489-6.502-40.09-15.138c-9.056-10.29-13.554-24.123-15.686-35.657
		h-6.146c2.226,12.698,7.159,28.07,17.325,39.621c8.822,10.026,25.021,16.237,44.594,17.18L382.475,226.113L382.475,226.113z"/>
	<path fill="#EDEDED" d="M289.938,175.318c-9.949,9.49-30.101,20.513-39.912,25.345c-9.812-4.832-29.964-15.853-39.913-25.345
		h-8.058c4.325,5.541,12.526,12,24.521,19.285c11.294,6.858,22.042,12.049,22.149,12.101l1.301,0.626l1.301-0.626
		c0.106-0.052,10.854-5.242,22.149-12.101c11.993-7.284,20.194-13.744,24.521-19.285H289.938z"/>
</g>
<path fill="#B3B2B1" d="M250.025,322.641c-10.869,0-21.596-3.771-30.203-10.616l-0.48-0.382l-0.557,0.254
	c-6.719,3.062-10.4,4.683-11.258,4.955c-2.271,0.726-4.876,1.109-7.535,1.109c-6.462,0-12.478-2.2-16.506-6.036
	c-4.252-4.256-3.061-9.445-2.191-13.234l0.275-1.576c0.066-0.387,0.131-0.746,0.203-1.074l0.064-0.294l-0.109-0.281
	c-0.082-0.213-0.843-2.118-2.129-3.453l-3.273-3.411l23.824-5.388l2.347,0.542l-0.25-1.479c-0.444-2.629-0.67-5.251-0.67-7.792
	c0-26.552,21.733-48.153,48.448-48.153c17.519,0,33.71,9.475,42.257,24.727l0.331,0.592l6.959-0.932l9.582,3.454l-6.905,10.855
	l8.239,1.37l-7.026,13.028l-0.562,1.021l-5.078,1.336l-0.106,0.638C293.88,305.35,273.378,322.641,250.025,322.641z"/>
<path fill="#0F233F" d="M306.365,268.417l-6.665-1.108l-1.554,0.791l-0.485-0.826l7.455-11.723l-5.832-2.102l-8.106,1.084
	c-7.439-15.12-23.068-25.534-41.15-25.534c-25.282,0-45.779,20.365-45.779,45.483c0,3.802,0.473,7.494,1.355,11.022l-0.588,1.565
	l-4.869-1.121l-18.619,4.211c1.924,2.002,3.016,4.956,2.982,5.438c0,3.678-3.603,9.967,0.85,14.422
	c5.565,5.303,14.918,6.348,21.358,4.287c1.197-0.382,9.796-4.308,12.974-5.76c8.076,7.107,18.697,11.424,30.336,11.424
	c23.533,0,42.912-17.644,45.486-40.341c1.994-0.532,3.871-1.024,5.601-1.474L306.365,268.417z"/>
<path fill="#FFA31F" d="M223.613,254.467l1.418-0.195l4.682-5.346l1.25,1.515l4.176-5.463
	C230.607,247.228,226.669,250.487,223.613,254.467z M237.389,243.969l2.266,2.884l3.324-4.59
	C241.047,242.666,239.18,243.244,237.389,243.969z M277.297,257.328l0.242-0.495c-1.52-2.382-3.337-4.56-5.396-6.477l2.301,3.195
	C274.443,253.552,275.691,255.021,277.297,257.328z M265.971,246.853l3.146,3.968l1.523-1.78c-3.27-2.686-7.062-4.752-11.205-6.023
	l4.68,6.041L265.971,246.853z M257.172,242.416c-1.125-0.263-2.271-0.463-3.438-0.604l1.801,2.65L257.172,242.416z"/>
<path fill="#FFA31F" d="M299.027,271.368c-1.036,0.237-4.529,0.985-5.82,1.256l1.581-2.582l1.989-1.421l-0.756-1.561l6.83-11.016
	l-20.156,3.255l-4.582,7.603l5.117-1.721l4.34-0.686l-2.031,3.229l-3.016,1.691l0.58,2.49l-6.474,11.373l23.556-6.641l4.125-7.358
	C304.311,269.28,299.154,271.331,299.027,271.368L299.027,271.368z M223.762,284.032l2.266-2.576l-0.543-2.366l5.832-16.877
	l4.545-4.953l-19.063,2.26l3.179,3.742l-7.168,17.367l-2.541,2.714l1.02,2.069l-6.484,18.934c-1.234,0.432-3.275,0.941-3.773,0.547
	c-0.568-0.449-0.944-0.742-0.041-3.403c0,0,2.3-6.572,2.296-6.572c0.086-0.201,3.767-5.597,3.767-5.597l-17.086,4.201
	c0,0,1.5,2.088,1.444,2.985l-1.798,6.265c-0.901,4.004,0.85,6.229,2.682,7.881c1.979,1.777,7.755,4.34,15.475,1.279
	c1.25-0.492,10.238-4.683,10.238-4.683s-0.852-1.385-1.16-2.892L223.762,284.032 M242.043,283.363l-2.814,0.922l3.209-6.946
	L242.043,283.363 M274.962,277.24l-5.653,1.708l1.649-3.97l2.394-1.771l-0.85-1.672l5.805-11.567l-20.47,3.139l-4.487,8.172
	l5.424-1.858l5.476-0.894l-2.396,4.02l-2.112,1.378l0.224,2.304l-7.285,14.004c-0.482-0.504-1.223-1.351-1.223-1.891l0.695-9.91
	l1.644-2.285l-1.526-2.01l-0.033-5.65l2.455-4.896l-19.846,3.109l0.646,3.586l-3.48,6.823l-2.481,2.478l0.397,2.153l-8.828,20.443
	l13.326-5.31l2.065-5.497l5.056-1.672l-0.792,5.291l11.902-4.207l22.69-7.123l4.994-8.704L274.962,277.24"/>
<path fill="#FFFFFF" d="M219.717,260.621l13.113-1.7l-2.748,2.642l-6.201,17.612l0.451,1.843l-1.706,1.998l-7.306,21.135
	c0,0,0.221,1.996,0.578,2.385c-1.908,0.855-6.533,3.166-8.678,4.02c-7.168,2.842-12.341,0.43-13.936-1.005
	c-1.967-1.772-2.891-3.521-2.23-6.459c0.291-1.305,0.402-1.545,0.764-2.798c0.349-1.188,0.676-2.318,1-3.338
	c0.298-0.911-0.223-1.973-0.53-2.477l11.698-2.875c-0.334,0.567-1.791,1.946-2.1,2.812l-2.301,6.59
	c-1.029,3.017-0.75,4.054,0.523,5.058c1.867,1.469,5.895-0.635,5.895-0.635l6.872-20.084l-0.786-1.795l1.956-2.018l7.558-18.764
	L219.717,260.621L219.717,260.621z"/>
<path fill="#FFFFFF" d="M258.23,267.9l8.859-1.379l-3.919,6.94l-1.854,1.165l0.215,1.613l-6.154,11.906l19.076-5.916l2.459-4.181
	l-2.083,0.962l-8.162,2.276l3.001-7.067l1.818-1.357l-0.758-1.287l4.765-9.645c0,0-14.522,2.008-16.558,2.379l-2.455,4.225
	L258.23,267.9L258.23,267.9z"/>
<path fill="#FFFFFF" d="M243.311,284.507l-6.644,2.116l7.403-15.711L243.311,284.507L243.311,284.507z M250.752,268.282l1.496-2.906
	l-15.629,2.442l0.416,2.705l-4.123,7.761l-1.846,1.637l0.361,1.862l-7.562,17.703l9.394-3.743l2.09-5.56l7.984-2.631l-0.673,4.986
	l7.838-2.538c0,0-0.535-0.644-0.478-1.251l0.621-11.006l1.267-1.544l-1.122-1.351L250.752,268.282"/>
<path fill="#FFFFFF" d="M299.368,272.814c-2.423,0.549-9.304,1.99-9.304,1.99l3.395-5.351l1.52-1.181l-0.563-1.236l5.567-8.979
	l-16.371,2.598l-2.268,3.734c0.122-0.039,1.19-0.514,1.311-0.543c0.955-0.215,8.263-1.387,8.263-1.387l-4.452,6.49l-2.033,1.258
	l0.31,1.504l-4.939,8.852c0,0,15.724-4.467,19.416-5.226l2.05-3.317C301.268,272.021,299.82,272.712,299.368,272.814
	L299.368,272.814z"/>
<path fill="#FFFFFF" d="M229.462,253.83l9.399,2.995l-5.276,5.176l3.524-0.524c2.867-2.787,5.916-5.789,5.916-5.789l1.556,1.689
	l2.959-1.827l2.472-5.727c0,0,3.614,4.771,6.27,9.218l1.324-0.173l-3.209-5.19l1.082-7.786l2.598-3.244
	c0.033,0.855-0.021,2.283,0.082,2.998l-0.672,0.975c0.921,1.324,1.844,2.398,2.771,3.756l-3.424,3.688l1.383,2.441l2.824-2.441
	l4.612,3.781l8.16-1.043l3.191,1.109l0.292-0.583c-1.604-2.308-2.854-3.774-2.854-3.774l-3.504-4.86l-1.822,2.126l-3.146-3.966
	l-1.855,2.203l-6.03-7.783l-2.549,3.188l-6.854-10.084l-9.027,12.476l-3.01-3.838l-5.681,7.424l-1.25-1.514l-4.682,5.347
	l1.233-0.166l3.426-3.874L229.462,253.83z"/>
<path fill="#2C5135" d="M270.868,250.073l0.06,2.272l1.129,1.631c-0.265,0.196-0.433,0.739-0.81,0.832
	c-1.136-1.424-1.702-2.162-2.117-2.703L270.868,250.073z"/>
<path fill="#2C5135" d="M264.918,251.168c-0.236-0.298-0.477-0.604-0.711-0.901l1.744-2.068c0.805,3.663,1.096,5.663,1.802,9.36
	l-3.821-3.092L264.918,251.168z"/>
<path fill="#2C5135" d="M255.479,245.892l2.599-3.244c0.032,0.855-0.022,2.283,0.082,2.998l-0.671,0.975
	c0.92,1.324,1.843,2.398,2.77,3.756l-3.424,3.688l1.383,2.441l2.824-2.441l4.611,3.781l-8.047,1.023l-3.209-5.189L255.479,245.892z"
	/>
<path fill="#2C5135" d="M248.654,235.854c-0.654,3.67-0.993,8.576-1.653,12.037l1.304,1.809l-4.568,3.473l-4.01-4.969
	L248.654,235.854z"/>
<path fill="#2C5135" d="M243.025,255.688l1.557,1.689l2.959-1.827l2.473-5.727c0,0,3.613,4.771,6.269,9.218l-4.093,0.521
	l-0.526,1.166l-3.074-0.953l-11.478,1.701C239.977,258.688,243.025,255.688,243.025,255.688z"/>
<path fill="#2C5135" d="M236.652,244.397c-0.094,1.093,0.016,2.799,0.062,4.099c0.272,0.622,0.92,0.978,1.06,1.562l-3.687,5.189
	l-3.096-3.452L236.652,244.397z"/>
<polygon fill="#2C5135" points="229.691,250.231 229.462,253.83 229.109,253.718 226.266,254.105 "/>
<path fill="#2C5135" d="M230.391,300.566l5.157-2.104l1.694-3.918c0,0,3.275,2.423,3.299,2.41
	c11.48-4.318,25.175-8.625,25.175-8.625s0.076,2.419-0.151,3.969c-4.225-0.014-8.436,2.521-12.791,5.136
	c-5.9,3.547-12,7.209-19.088,5.5C232.516,302.229,230.391,300.566,230.391,300.566z"/>
<path fill="#2C5135" d="M256.669,306.623c-4.509,1.013-9.308,1.025-14.106-0.137c-1.949-0.476-3.756-1.075-5.446-1.803
	c6.075,0.061,11.479-3.183,16.344-6.11c4.199-2.521,8.065-4.849,11.863-4.908C264.814,296.079,262.794,303.438,256.669,306.623z"/>
<path fill="#2C5135" d="M260.486,305.51c2.979-2.771,5.189-6.904,6.166-11.71c0.002-0.02,0.01-0.038,0.015-0.056
	c2.093,0.279,4.177,1.328,6.291,3.496C269.488,300.964,265.207,303.803,260.486,305.51z"/>
<path fill="#2C5135" d="M273.85,296.247c-2.341-2.388-4.65-3.536-6.951-3.854c0.232-1.647,0.269-3.18,0.113-4.474
	c2.346-0.735,12.508-3.804,13.516-4.099c0,0,0.013-0.002,0.019-0.004C279.175,288.545,276.854,292.746,273.85,296.247z"/>
<path fill="#FFFFFF" d="M280.545,283.816c-1.37,4.729-3.689,8.933-6.695,12.431c-2.341-2.388-4.65-3.536-6.951-3.854
	c0.232-1.647,0.269-3.18,0.113-4.474c-0.429,0.136-0.859,0.274-1.295,0.41c0,0,0.076,2.42-0.152,3.969
	c-4.224-0.014-8.435,2.521-12.791,5.136c-5.899,3.547-11.998,7.209-19.086,5.5c-1.151-0.695-3.222-2.309-3.289-2.36
	c-0.801,0.325-1.373,0.557-1.379,0.55c3.787,3.1,8.272,5.412,13.281,6.625c17.659,4.273,35.26-6.607,40.059-24.458
	C281.761,283.46,281.15,283.639,280.545,283.816z M256.669,306.623c-4.509,1.013-9.308,1.025-14.106-0.137
	c-1.949-0.476-3.756-1.075-5.446-1.803c6.075,0.061,11.479-3.183,16.344-6.11c4.199-2.521,8.065-4.849,11.863-4.908
	C264.814,296.079,262.794,303.438,256.669,306.623z M260.486,305.51c2.979-2.771,5.189-6.904,6.166-11.71
	c0.002-0.02,0.01-0.038,0.015-0.056c2.093,0.279,4.177,1.328,6.291,3.496C269.488,300.964,265.207,303.803,260.486,305.51z"/>
<path fill="#FFFFFF" d="M224.789,241.927c-0.391-0.619-0.786-1.197-1.184-1.734c0.229-0.096,0.438-0.194,0.633-0.295
	c0.193-0.101,0.395-0.215,0.604-0.342c0.202-0.125,0.395-0.25,0.58-0.381c0.186-0.13,0.365-0.271,0.542-0.423
	c0.068,0.168,0.16,0.365,0.277,0.593c0.118,0.228,0.245,0.463,0.381,0.711c0.138,0.244,0.276,0.49,0.42,0.737
	c0.142,0.247,0.274,0.472,0.397,0.674l0.389,0.634c0.212,0.347,0.417,0.664,0.613,0.95c0.197,0.288,0.408,0.515,0.631,0.681
	c0.224,0.168,0.473,0.254,0.748,0.26c0.277,0.005,0.594-0.104,0.953-0.323c0.228-0.14,0.418-0.326,0.572-0.563
	c0.154-0.236,0.223-0.492,0.202-0.768c-0.017-0.224-0.067-0.427-0.151-0.609c-0.086-0.182-0.19-0.381-0.315-0.601
	c-0.062-0.117-0.13-0.233-0.198-0.349c-0.07-0.112-0.139-0.227-0.209-0.34l-0.416-0.681c-0.244-0.397-0.505-0.811-0.787-1.235
	c-0.283-0.426-0.597-0.873-0.941-1.338c0.138-0.058,0.271-0.113,0.404-0.168c0.131-0.054,0.26-0.121,0.387-0.197
	c0.121-0.072,0.229-0.149,0.326-0.231c0.099-0.08,0.193-0.167,0.285-0.258c0.157,0.302,0.334,0.628,0.525,0.978
	c0.193,0.352,0.38,0.69,0.564,1.021c0.185,0.329,0.357,0.633,0.519,0.912c0.161,0.277,0.293,0.499,0.394,0.662
	c0.172,0.285,0.322,0.545,0.449,0.779c0.126,0.235,0.227,0.463,0.299,0.682c0.073,0.221,0.121,0.439,0.141,0.656
	c0.021,0.218,0.012,0.451-0.028,0.699c-0.087,0.495-0.294,0.939-0.62,1.334c-0.326,0.396-0.74,0.745-1.238,1.051
	c-1.021,0.625-1.926,0.862-2.709,0.713c-0.785-0.148-1.492-0.737-2.121-1.768C225.619,243.253,225.182,242.546,224.789,241.927z"/>
<path fill="#FFFFFF" d="M239.107,233.965c-0.328,0.093-0.653,0.196-0.977,0.308c-0.001-0.205-0.025-0.416-0.074-0.631
	c-0.021-0.095-0.051-0.188-0.088-0.283c-0.035-0.094-0.076-0.2-0.117-0.319c0.553-0.065,1.1-0.157,1.639-0.271
	c0.539-0.115,1.08-0.232,1.621-0.355c0.52-0.118,1.049-0.242,1.587-0.373c0.54-0.131,1.088-0.288,1.645-0.475
	c0.005,0.09,0.015,0.19,0.023,0.302c0.01,0.112,0.03,0.235,0.062,0.373c0.024,0.108,0.057,0.212,0.094,0.309
	c0.037,0.099,0.07,0.181,0.103,0.25c-0.34,0.04-0.679,0.089-1.015,0.146s-0.676,0.125-1.023,0.203
	c0.04,0.24,0.094,0.516,0.159,0.822c0.065,0.309,0.134,0.616,0.204,0.928l0.133,0.584c0.096,0.418,0.188,0.811,0.273,1.179
	c0.086,0.366,0.172,0.723,0.254,1.067c0.082,0.346,0.168,0.684,0.258,1.012s0.186,0.667,0.287,1.016
	c-0.383,0.049-0.685,0.09-0.898,0.124c-0.216,0.034-0.375,0.062-0.477,0.085c-0.303,0.069-0.553,0.139-0.754,0.211
	c-0.199,0.072-0.359,0.129-0.479,0.172c-0.023-0.207-0.059-0.438-0.102-0.695c-0.043-0.256-0.09-0.525-0.144-0.81
	c-0.053-0.284-0.11-0.569-0.172-0.858c-0.062-0.291-0.123-0.567-0.185-0.836l-0.217-0.963l-0.105-0.465
	c-0.062-0.273-0.137-0.589-0.227-0.943c-0.088-0.356-0.18-0.713-0.275-1.07C239.773,233.786,239.436,233.872,239.107,233.965z"/>
<path fill="#FFFFFF" d="M254.078,239.479c-0.117-0.055-0.232-0.104-0.35-0.146c-0.115-0.043-0.238-0.079-0.369-0.105
	c-0.123-0.025-0.246-0.041-0.369-0.049c-0.123-0.007-0.238-0.006-0.346,0.002l0.942-1.311c0.146-0.196,0.312-0.424,0.494-0.684
	c0.183-0.261,0.375-0.539,0.578-0.838c0.202-0.298,0.411-0.608,0.631-0.933c0.219-0.325,0.438-0.649,0.657-0.974
	c0.121-0.186,0.262-0.4,0.419-0.644c0.155-0.243,0.308-0.483,0.456-0.721c0.146-0.238,0.283-0.451,0.406-0.642
	c0.123-0.188,0.211-0.324,0.266-0.402c0.117,0.055,0.238,0.105,0.365,0.15c0.125,0.045,0.25,0.08,0.373,0.105
	c0.131,0.027,0.264,0.046,0.396,0.055c0.135,0.01,0.266,0.012,0.396,0.01c0.023,0.276,0.062,0.604,0.11,0.98
	c0.05,0.377,0.105,0.773,0.165,1.191c0.061,0.416,0.124,0.834,0.191,1.252c0.066,0.42,0.132,0.808,0.191,1.168
	c0.071,0.417,0.137,0.785,0.193,1.107c0.059,0.321,0.113,0.625,0.166,0.912c0.053,0.288,0.111,0.577,0.175,0.87
	c0.063,0.292,0.138,0.619,0.222,0.976c-0.201-0.088-0.431-0.164-0.688-0.229c-0.259-0.064-0.496-0.121-0.714-0.166
	c-0.231-0.049-0.468-0.088-0.706-0.12c-0.24-0.03-0.479-0.056-0.717-0.075c-0.014-0.291-0.032-0.57-0.057-0.841
	c-0.021-0.269-0.055-0.54-0.096-0.813c-0.238-0.049-0.479-0.101-0.716-0.154c-0.238-0.053-0.478-0.105-0.716-0.155
	c-0.188-0.04-0.379-0.077-0.571-0.114s-0.383-0.074-0.569-0.113c-0.156,0.232-0.297,0.471-0.424,0.717
	C254.343,238.99,254.213,239.235,254.078,239.479z M255.411,237.117c0.077,0.024,0.155,0.044,0.237,0.062
	c0.078,0.016,0.158,0.032,0.238,0.049l0.478,0.1l0.478,0.1c0.08,0.018,0.159,0.033,0.239,0.051c0.08,0.017,0.16,0.029,0.241,0.039
	l-0.405-2.726L255.411,237.117z"/>
<path fill="#FFFFFF" d="M266.792,238.803c0.112-0.204,0.231-0.418,0.36-0.643c0.133-0.231,0.255-0.447,0.365-0.647
	c0.109-0.201,0.188-0.34,0.23-0.418c0.125-0.218,0.257-0.462,0.395-0.732c0.137-0.271,0.28-0.573,0.43-0.905
	c0.162,0.118,0.346,0.249,0.549,0.392c0.204,0.143,0.4,0.268,0.586,0.373c0.179,0.104,0.386,0.209,0.615,0.32
	s0.438,0.201,0.617,0.271c-0.146,0.213-0.297,0.438-0.448,0.674c-0.152,0.238-0.304,0.475-0.45,0.709
	c-0.146,0.236-0.286,0.463-0.416,0.683c-0.131,0.22-0.248,0.423-0.354,0.608c0.144,0.092,0.305,0.189,0.481,0.296
	c0.179,0.106,0.364,0.214,0.558,0.325c0.166,0.096,0.344,0.193,0.534,0.293c0.189,0.101,0.374,0.201,0.556,0.304
	c0.108-0.192,0.229-0.403,0.354-0.634c0.128-0.229,0.255-0.467,0.382-0.709c0.126-0.242,0.251-0.489,0.376-0.736
	c0.127-0.249,0.24-0.486,0.346-0.716c0.164,0.118,0.348,0.25,0.556,0.394c0.207,0.146,0.399,0.268,0.58,0.371
	c0.18,0.104,0.386,0.209,0.616,0.32c0.229,0.109,0.438,0.201,0.617,0.27c-0.27,0.383-0.535,0.785-0.799,1.207
	c-0.262,0.42-0.556,0.916-0.883,1.488c-0.246,0.43-0.468,0.825-0.664,1.186c-0.199,0.359-0.386,0.705-0.561,1.035
	c-0.178,0.328-0.35,0.652-0.519,0.969c-0.168,0.316-0.345,0.652-0.53,1.009c-0.377-0.294-0.781-0.564-1.213-0.81
	c-0.186-0.106-0.375-0.205-0.565-0.293c-0.192-0.089-0.39-0.175-0.591-0.256c0.146-0.195,0.313-0.439,0.5-0.729
	c0.188-0.29,0.371-0.586,0.554-0.887c0.18-0.302,0.351-0.588,0.511-0.857c0.157-0.271,0.285-0.49,0.381-0.658
	c-0.173-0.1-0.349-0.203-0.523-0.312c-0.176-0.108-0.354-0.215-0.533-0.317c-0.167-0.095-0.346-0.194-0.531-0.297
	c-0.189-0.104-0.369-0.2-0.539-0.289c-0.1,0.173-0.225,0.396-0.379,0.672c-0.152,0.274-0.312,0.565-0.48,0.875
	c-0.168,0.308-0.33,0.612-0.485,0.917c-0.156,0.303-0.285,0.564-0.388,0.788c-0.182-0.146-0.367-0.282-0.56-0.408
	c-0.19-0.127-0.39-0.25-0.596-0.366c-0.244-0.14-0.461-0.253-0.649-0.341c-0.188-0.086-0.373-0.164-0.556-0.233l0.313-0.461
	c0.094-0.133,0.207-0.306,0.34-0.515s0.271-0.438,0.416-0.683c0.146-0.245,0.291-0.495,0.441-0.75
	c0.149-0.256,0.287-0.492,0.413-0.711C266.6,239.149,266.68,239.006,266.792,238.803z"/>
</svg>
