<?xml version="1.0" encoding="utf-8"?>
<!-- Generator: Adobe Illustrator 18.0.0, SVG Export Plug-In . SVG Version: 6.00 Build 0)  -->
<!DOCTYPE svg PUBLIC "-//W3C//DTD SVG 1.1//EN" "http://www.w3.org/Graphics/SVG/1.1/DTD/svg11.dtd">
<svg version="1.1" id="content" xmlns="http://www.w3.org/2000/svg" xmlns:xlink="http://www.w3.org/1999/xlink" x="0px" y="0px"
	 width="500px" height="500px" viewBox="0 0 500 500" enable-background="new 0 0 500 500" xml:space="preserve">
<g id="bounds" display="none">
	<rect x="-0.7" y="88" display="inline" fill="none" stroke="#EAEAEA" stroke-miterlimit="10" width="499.5" height="499.5"/>
</g>
<rect id="position" x="0.5" y="0.5" display="none" fill="none" stroke="#000000" width="499" height="499"/>
<path fill="#C8CCCE" d="M428.5,423v-95.9v-20.2v-15.5v-14.7v-21.4l-55.7-71l-18.7-14.8h-0.4H144l-18.7,14.1l-55.7,71v22v14.7V423
	v12.6v0.7h61.3v-0.7V423V320c0,0,0.1,0,0.1-0.1v-15.6c0,0-0.1,0-0.1,0v-31.6l16-5.3v201.7v9.1v27.3l206.8,0.6v-30.2v-9.1V268.9
	l13.6,4.5v30.9v15.6V423v13.3h61.2h0.1L428.5,423L428.5,423z"/>
<g>
	<polygon fill="#96A3AD" points="251.6,265.5 240.7,254.6 240.7,169.5 241.2,169.5 241.2,254.4 251.6,264.8 260.5,254.8 
		260.5,169.5 261,169.5 261,255 	"/>
</g>
<circle fill="#96A3AD" cx="250.8" cy="183" r="3.8"/>
<circle fill="#96A3AD" cx="250.8" cy="212.8" r="3.8"/>
<circle fill="#96A3AD" cx="250.8" cy="242.6" r="3.8"/>
<g>
	<g>
		<path fill="#96A3AD" d="M327.6,253.5h-49.1v-56.9h49.1V253.5z M279.1,253h48.1V197h-48.1V253z"/>
	</g>
	<g>
		<rect x="282.9" y="213.5" fill="#96A3AD" width="39.4" height="0.5"/>
	</g>
</g>
<path fill="#96A3AD" d="M360,375.5c0,2.1-1.7,3.8-3.8,3.8H143.8c-2.1,0-3.8-1.7-3.8-3.8l0,0c0-2.1,1.7-3.8,3.8-3.8h212.4
	C358.3,371.7,360,373.4,360,375.5L360,375.5z"/>
<g>
	<g>
		<polygon fill="#96A3AD" points="168.7,442.8 168.2,442.7 174.4,390.3 174.8,390.5 		"/>
	</g>
	<g>
		<polygon fill="#96A3AD" points="191.7,485.6 191.2,485.5 198.8,406.1 199.3,406.3 		"/>
	</g>
	<g>
		<polygon fill="#96A3AD" points="300.5,446.4 296.5,390.4 296.9,390.4 301,446.3 		"/>
	</g>
	<g>
		<polygon fill="#96A3AD" points="322.6,490.7 317.8,418.4 318.3,418.3 323.1,490.6 		"/>
	</g>
	<g>
		<polygon fill="#96A3AD" points="331.3,424.8 328.3,391.3 328.7,391.2 331.7,424.7 		"/>
	</g>
</g>
</svg>
