<?xml version="1.0" encoding="utf-8"?>
<!-- Generator: Adobe Illustrator 18.0.0, SVG Export Plug-In . SVG Version: 6.00 Build 0)  -->
<!DOCTYPE svg PUBLIC "-//W3C//DTD SVG 1.1//EN" "http://www.w3.org/Graphics/SVG/1.1/DTD/svg11.dtd">
<svg version="1.1" id="content" xmlns="http://www.w3.org/2000/svg" xmlns:xlink="http://www.w3.org/1999/xlink" x="0px" y="0px"
	 width="500px" height="500px" viewBox="0 0 500 500" enable-background="new 0 0 500 500" xml:space="preserve">
<rect id="position" x="0.5" y="0.5" display="none" fill="none" stroke="#000000" width="499" height="499"/>
<g>
	<path fill="#C8CCCE" d="M140.4,323.9v45.6c0,0-0.1,0-0.1,0.1v8.3c0,0,0.1,0,0.1,0.1v24.8h218.3v-32.6v-10.1v-36.2H140.4z"/>
	<path fill="#96A3AD" d="M366,320.6c0,2.2-1.8,4-4,4H138c-2.2,0-4-1.8-4-4l0,0c0-2.2,1.8-4,4-4h224C364.2,316.6,366,318.4,366,320.6
		L366,320.6z"/>
	<g>
		<g>
			
				<rect x="167" y="331.7" transform="matrix(0.9815 0.1912 -0.1912 0.9815 69.7924 -25.5444)" fill="#96A3AD" width="0.5" height="34.2"/>
		</g>
		<g>
			
				<rect x="192" y="341.8" transform="matrix(0.9877 0.1562 -0.1562 0.9877 59.7662 -25.5108)" fill="#96A3AD" width="0.5" height="51.5"/>
		</g>
		<g>
			
				<rect x="283.3" y="349.7" transform="matrix(0.1179 0.993 -0.993 0.1179 613.3873 9.4458)" fill="#96A3AD" width="36.1" height="0.5"/>
		</g>
		<g>
			
				<rect x="300.9" y="372.9" transform="matrix(0.1082 0.9941 -0.9941 0.1082 660.1418 10.4222)" fill="#96A3AD" width="46.7" height="0.5"/>
		</g>
		<g>
			
				<rect x="323.5" y="343.1" transform="matrix(0.146 0.9893 -0.9893 0.146 625.2098 -37.5632)" fill="#96A3AD" width="21.7" height="0.5"/>
		</g>
	</g>
</g>
</svg>
