<?xml version="1.0" encoding="utf-8"?>
<!-- Generator: Adobe Illustrator 18.0.0, SVG Export Plug-In . SVG Version: 6.00 Build 0)  -->
<!DOCTYPE svg PUBLIC "-//W3C//DTD SVG 1.1//EN" "http://www.w3.org/Graphics/SVG/1.1/DTD/svg11.dtd">
<svg version="1.1" id="content" xmlns="http://www.w3.org/2000/svg" xmlns:xlink="http://www.w3.org/1999/xlink" x="0px" y="0px"
	 viewBox="0 0 500 500" enable-background="new 0 0 500 500" xml:space="preserve">
<g id="bounds">
	<rect x="-0.1" y="80.3" fill="none" stroke="#EAEAEA" stroke-miterlimit="10" width="499.5" height="499.5"/>
</g>
<rect id="position" x="0.5" y="0.5" display="none" fill="none" stroke="#000000" width="499" height="499"/>
<g>
	<polygon fill="#B9C9C7" points="374.8,178 124.3,178 57.9,256 94.9,309.8 124.3,282.8 124.3,485.4 374.8,485.4 374.8,282.8 
		404.2,309.8 441.2,256 	"/>
	<g enable-background="new    ">
		<path fill="#AEBDBB" d="M361.1,426.9c-101.9,0-190.6-50.8-236.8-125.9v184.4h250.5v-58.8C370.3,426.8,365.7,426.9,361.1,426.9z"/>
		<g>
			<path fill="#9BA8A6" d="M374.8,424.8c-4.6,0.2-9.2,0.3-13.8,0.3c-102.3,0-191.4-51.8-236.8-127.8v7.2
				c11.9,18.9,26.8,36.4,44.3,52.2c51.4,46.4,119.8,71.9,192.5,71.9c4.6,0,9.2-0.1,13.8-0.3V424.8z"/>
		</g>
	</g>
	<g>
		<path fill="#E0E4CC" d="M355.4,398.4c-19.3-36.1-64.3-49.7-100.4-30.3c-26.3,14.1-40.5,41.7-38.9,69.6c-16-4.1-33.6-2.5-49.3,5.9
			c-17,9.1-28.6,24.4-33.5,41.7h241.5v-34.6c-4-1-8.1-1.5-12.3-1.7C366.1,432.5,364.1,414.6,355.4,398.4z"/>
		<path fill="#889493" d="M357,397.6c-13.2-24.7-38.9-40.1-67-40.1c-12.4,0-24.8,3.1-35.8,9c-25.2,13.5-40.7,40.4-40,68.9
			c-5-1.1-10.1-1.7-15.2-1.7c-11.5,0-22.9,2.9-33,8.3c-17,9.1-29.4,24.9-34.5,43.3h3.8c5-17,16.7-31.6,32.5-40.1
			c9.6-5.1,20.4-7.9,31.3-7.9c5.6,0,11.2,0.7,16.7,2.1l2.4,0.6l-0.1-2.5c-1.6-28,13.3-54.7,38-67.9c10.5-5.6,22.3-8.6,34.1-8.6
			c26.7,0,51.2,14.6,63.8,38.2c8.1,15.1,10.5,32.6,6.9,49.4l-0.5,2.1l2.2,0.1c4.2,0.1,8.4,0.8,12.4,1.7v-3.7
			c-3.3-0.8-6.7-1.3-10.1-1.5C367.9,430.4,365.2,412.8,357,397.6z"/>
	</g>
	<g>
		<path fill="#E0E4CC" d="M374.8,272.3c-18.3,3.4-32.2,19.4-32.2,38.8s13.9,35.4,32.2,38.8V272.3z"/>
		<path fill="#7E8A88" d="M374.8,348c-17.3-3.4-30.4-18.6-30.4-36.9c0-18.3,13.1-33.6,30.4-36.9v-3.7c-19.3,3.4-34.1,20.3-34.1,40.6
			s14.7,37.2,34.1,40.6V348z"/>
	</g>
	<path fill="#D3B489" stroke="#968062" stroke-width="3" stroke-miterlimit="10" d="M168.9,261.2l-3.6-17.9c-0.6-2.8-3.3-4.6-6.1-4
		c-2.8,0.6-4.6,3.3-4,6.1l3.8,18.6c-0.5,0.3-0.9,0.6-1.4,0.9c-0.7,0.5-1.3,1-1.8,1.5l-12.9-7.6c-2.1-1.3-4.9-0.5-6.2,1.6
		c-1.3,2.1-0.5,4.9,1.6,6.2l12.3,7.3c-2.3,5.9-1.6,12.8,2.3,18.4c0,0,40.6,26.6,41.7,27.5c1.1,1,3.2,0.7,2.6-1.8
		c-0.6-2.5-12.4-48.4-12.4-48.4C181,264.1,175,261.2,168.9,261.2z"/>
	<path fill="#D3B489" stroke="#968062" stroke-width="2" stroke-miterlimit="10" d="M323.7,327c0,3.3-1,7.1-3.8,7.6l0,0
		c-2.8,0.5-5.5-2.1-6.2-5.7l-4-22.6c-0.7-3.9,1.9-7.7,5.8-8.4l0,0c3.9-0.7,7.7,1.9,8.4,5.8L323.7,327z"/>
	<g>
		<g>
			<path fill="#737D7B" d="M141.9,234.4c-0.7,0-1.7-0.3-2.3-1.6c-0.2-0.4-0.2-0.8-0.2-1.2c0-1.1,0.7-2,1.8-2.4
				c3.6-1.2,6.5-3.7,7.9-6.7c1.4-3,1.9-6.4,1.9-12c0-1.6,1.1-2.7,2.8-2.7c1.7,0,2.7,1,2.7,2.6c0,6.6-0.8,11-2.6,14.5
				c-2.2,4.4-6,7.6-10.9,9.3C142.7,234.4,142.3,234.4,141.9,234.4z M159.3,219c-1,0-1.8-0.5-2.2-1.3c-0.2-0.4-0.4-0.9-0.4-1.3
				c0-1,0.6-2,1.6-2.4c3.5-1.5,6.6-4.2,8.2-7.3c0.1-0.2,0.1-0.4,0.1-0.5c-0.1,0-0.2,0-0.3,0h-26.2c-1.5,0-2.4-1-2.4-2.6
				c0-1.6,1-2.7,2.4-2.7H167c1.9,0,3.3,0.6,4.3,1.9c0.6,0.8,0.9,1.8,0.9,2.8c0,0.9-0.2,1.9-0.7,2.9c-2.1,4.4-6.5,8.5-11,10.2
				C160.2,218.9,159.8,219,159.3,219z"/>
		</g>
		<g>
			<path fill="#737D7B" d="M177.9,232.9c-1.6,0-2.7-1-2.9-2.5l0-0.3c0-1.5,1.1-2.7,2.5-2.7c5.6-0.3,12.3-2.5,16.1-5.4
				c4.3-3.4,7.8-8.9,9.2-14.8c0.5-2.1,2-2.3,2.6-2.3c0.3,0,0.6,0.1,0.8,0.1c1.4,0.4,2.2,1.4,2.2,2.6c0,0.3,0,0.6-0.1,0.9
				c-1.8,7.4-5.9,13.9-11.3,18c-4.8,3.6-12.3,6.2-18.9,6.4L177.9,232.9L177.9,232.9L177.9,232.9z M186.9,214.7
				c-0.8,0-1.6-0.4-2.2-1.1c-2.1-2.4-5.3-5.2-8.2-7.1c-0.7-0.5-1.1-1.3-1.1-2.1c0-0.6,0.3-1.3,0.7-1.8c0.5-0.6,1.2-0.9,2-0.9
				c0.6,0,1.2,0.2,1.7,0.6c1.3,0.8,6,3.9,9.1,7.7c0.5,0.6,0.7,1.2,0.7,1.9c0,0.7-0.3,1.4-0.8,2C188.4,214.4,187.7,214.7,186.9,214.7
				z"/>
		</g>
		<g>
			<path fill="#737D7B" d="M218.2,234.7c-1.7,0-2.7-0.9-2.7-2.5v-30.9c0-1.6,1-2.5,2.7-2.5c1.7,0,2.7,1,2.7,2.5v9.5
				c6.1,1.7,13.3,4.3,18.9,7c1.1,0.5,1.6,1.4,1.6,2.6c0,0.4-0.1,0.8-0.2,1.2c-0.4,1.1-1.4,1.8-2.5,1.8c-0.4,0-0.8-0.1-1.2-0.3
				c-5-2.5-11.2-5-16.5-6.7v15.8C220.9,233.7,219.9,234.7,218.2,234.7z M235.7,208.8c-0.7,0-1.4-0.3-1.9-0.9c-0.9-1.4-2.1-2.8-3-3.8
				c-0.4-0.4-0.6-0.9-0.6-1.4c0-0.7,0.3-1.4,0.9-1.9c0.5-0.4,1-0.5,1.5-0.5c0.6,0,1.2,0.2,1.7,0.7c0.1,0.1,0.1,0.1,0.2,0.2
				c-0.2-0.3-0.2-0.6-0.2-0.9c0-0.8,0.4-1.5,1.1-1.9c0.4-0.2,0.8-0.4,1.3-0.4c0.6,0,1.3,0.2,1.8,0.7c1.2,1.2,2.3,2.7,3.2,4
				c0.3,0.4,0.5,0.9,0.5,1.5c0,0.7-0.4,1.4-1,1.9c-0.5,0.3-1,0.5-1.5,0.5c-0.6,0-1.2-0.3-1.7-0.7c0.1,0.3,0.2,0.6,0.2,0.9
				c0,0.7-0.3,1.4-0.9,1.9C236.8,208.6,236.2,208.8,235.7,208.8z"/>
		</g>
		<g>
			<path fill="#737D7B" d="M252.5,232.3c-3.3,0-5.3-2-5.3-5.4V207c0-3.4,1.9-5.4,5.3-5.4h20.9c3.3,0,5.3,2,5.3,5.4v19.9
				c0,3.4-1.9,5.4-5.3,5.4H252.5z M252.8,226.9c0,0,0.2,0.1,0.8,0.1h18.5c0.7,0,0.8-0.1,0.9-0.1v0c0,0,0.1-0.1,0.1-0.7v-18.6
				c0-0.6-0.1-0.7-0.1-0.7l0,0c0,0-0.2-0.1-0.8-0.1h-18.5c-0.7,0-0.8,0.1-0.9,0.1l0,0c0,0-0.1,0.1-0.1,0.7v18.6
				C252.8,226.8,252.8,226.9,252.8,226.9C252.8,226.9,252.8,226.9,252.8,226.9z"/>
		</g>
		<g>
			<path fill="#737D7B" d="M302.2,234.5c-1.7,0-2.8-1-2.8-2.5v-16.2c-4.3,2.4-8.7,4.4-12.9,5.8c-0.4,0.1-0.8,0.2-1.2,0.2
				c-0.8,0-1.8-0.3-2.4-1.7l0-0.1l0-0.1c0-0.2-0.1-0.5-0.1-0.8c0-1.1,0.7-2.1,1.9-2.5c5.1-1.6,10.3-4.2,15.1-7.3
				c4.4-2.8,7.5-5.5,10.6-9c0.6-0.6,1.3-1,2.1-1c0.6,0,1.3,0.2,1.8,0.6c0.7,0.5,1.1,1.3,1.1,2.1c0,0.6-0.2,1.1-0.6,1.7
				c-2.6,2.9-5.9,5.9-9.8,8.6V232C305,233.4,303.8,234.5,302.2,234.5z"/>
		</g>
		<g>
			<path fill="#737D7B" d="M326.6,234.7c-1.7,0-2.7-0.9-2.7-2.5v-30.9c0-1.6,1-2.5,2.7-2.5c1.7,0,2.7,1,2.7,2.5v9.5
				c6.1,1.7,13.3,4.3,18.9,7c1.1,0.5,1.6,1.4,1.6,2.6c0,0.4-0.1,0.8-0.2,1.2c-0.4,1.1-1.4,1.8-2.5,1.8c-0.4,0-0.8-0.1-1.2-0.3
				c-5-2.5-11.2-5-16.5-6.7v15.8C329.3,233.7,328.3,234.7,326.6,234.7z M344.1,208.8c-0.7,0-1.4-0.3-1.9-0.9c-0.9-1.4-2.1-2.8-3-3.8
				c-0.4-0.4-0.6-0.9-0.6-1.4c0-0.7,0.3-1.4,0.9-1.9c0.5-0.4,1-0.5,1.5-0.5c0.6,0,1.2,0.2,1.7,0.7c0.1,0.1,0.1,0.1,0.2,0.2
				c-0.2-0.3-0.2-0.6-0.2-0.9c0-0.8,0.4-1.5,1.1-1.9c0.4-0.2,0.8-0.4,1.3-0.4c0.6,0,1.3,0.2,1.8,0.7c1.2,1.2,2.3,2.7,3.2,4
				c0.3,0.4,0.5,0.9,0.5,1.5c0,0.7-0.4,1.4-1,1.9c-0.5,0.3-1,0.5-1.5,0.5c-0.6,0-1.2-0.3-1.7-0.7c0.1,0.3,0.2,0.6,0.2,0.9
				c0,0.7-0.3,1.4-0.9,1.9C345.2,208.6,344.6,208.8,344.1,208.8z"/>
		</g>
	</g>
	<path fill="#D3B489" d="M235.3,245.6c0,0-37.7,18.8-26.5,57.1c14.9,13.7,46.3,1.7,55.4-3.2c9.1-4.8,36.5-24.3,33.3-44.4
		C271.8,224.7,235.3,245.6,235.3,245.6z"/>
	<g>
		<path fill="#827156" d="M278.9,256.4c-0.4-0.4-0.8-0.9-1.3-1.2c-0.2-0.2-0.5-0.3-0.7-0.5c-0.3-0.1-0.5-0.3-0.8-0.4
			c-0.3-0.1-0.5-0.2-0.8-0.3c-0.3-0.1-0.6-0.1-0.8-0.2c-0.1,0-0.3-0.1-0.4,0l-0.4,0c-0.3,0-0.6,0.1-0.9,0.1l-0.3,0h0l0.3,0
			c-0.3,0.1-0.6,0.1-0.9,0.2l-0.4,0.1c-0.2,0-0.3,0.1-0.4,0.2c-0.3,0.1-0.5,0.3-0.8,0.4c-0.2,0.2-0.5,0.3-0.8,0.5
			c-0.3,0.2-0.5,0.4-0.7,0.7c-0.2,0.2-0.4,0.5-0.6,0.8c-0.4,0.5-0.7,1.2-1,1.8l-0.4,0c0-0.8,0.1-1.5,0.4-2.3
			c0.2-0.7,0.6-1.4,1.1-2.1c0.5-0.7,1.1-1.2,1.8-1.7c0.3-0.2,0.7-0.4,1.1-0.6c0.4-0.2,0.8-0.3,1.2-0.4l0,0l0.2,0h0l-0.3,0
			c0.4-0.1,0.8-0.2,1.2-0.2c0.4,0,0.8-0.1,1.3,0c0.9,0,1.7,0.2,2.5,0.6c0.8,0.3,1.5,0.8,2.2,1.3c0.6,0.6,1.2,1.2,1.6,1.9
			L278.9,256.4z"/>
	</g>
	<g>
		<path fill="#827156" d="M217.9,288.9c0,0,0-0.1-0.1-0.2c-0.1-0.1-0.2-0.3-0.2-0.6c-0.2-0.5-0.4-1.3-0.4-2.2c0-0.5,0-1,0.1-1.5
			c0.1-0.5,0.2-1.1,0.5-1.7c0.2-0.6,0.5-1.1,0.9-1.6c0.4-0.5,0.8-1,1.2-1.4l0.1-0.1l0,0l0,0l0,0l0.1-0.1l0.2-0.1l0.3-0.2
			c0.2-0.2,0.5-0.4,0.8-0.5c0.6-0.3,1.1-0.5,1.7-0.7c0.6-0.1,1.1-0.2,1.6-0.2c0.5,0,1,0,1.4,0.1c1.7,0.4,2.6,1.1,2.6,1.1l-0.2,0.3
			c0,0-0.3-0.1-0.7-0.1c-0.5-0.1-1.1-0.1-1.9,0c-0.4,0-0.8,0.1-1.2,0.2c-0.4,0.1-0.8,0.3-1.2,0.4c-0.4,0.2-0.8,0.4-1.1,0.7
			c-0.2,0.1-0.3,0.2-0.5,0.4l-0.5,0.5c-0.3,0.4-0.6,0.7-0.8,1.1c-0.2,0.4-0.4,0.7-0.5,1.1c-0.1,0.4-0.2,0.8-0.3,1.1
			c0,0.4-0.1,0.7-0.1,1.1c0,0.7,0.1,1.2,0.2,1.6c0,0.2,0.1,0.3,0.1,0.4c0,0.1,0,0.1,0,0.1L217.9,288.9z"/>
	</g>
	<path opacity="0.5" fill="#ED3F74" enable-background="new    " d="M288.5,264.3c-2.5-4.7-8.3-6.4-12.9-3.9
		c-4.7,2.5-6.4,8.3-3.9,12.9c2.5,4.7,8.3,6.4,12.9,3.9C289.3,274.7,291,268.9,288.5,264.3z"/>
	<circle opacity="0.5" fill="#ED3F74" enable-background="new    " cx="229.7" cy="295.8" r="9.6"/>
	<path fill="none" stroke="#968062" stroke-width="3" stroke-miterlimit="10" d="M235.3,245.6c0,0-37.7,18.8-26.5,57.1
		c14.9,13.7,46.3,1.7,55.4-3.2c9.1-4.8,36.5-24.3,33.3-44.4C271.8,224.7,235.3,245.6,235.3,245.6z"/>
	<path fill="#D3B489" stroke="#968062" stroke-width="2" stroke-miterlimit="10" d="M217.9,260.4c1.7,0.9,2.3,3.1,1.4,4.8l0,0
		c-0.9,1.7-3.1,2.3-4.8,1.4l-17.8-9.7c-1.7-0.9-2.3-3.1-1.4-4.8l0,0c0.9-1.7,3.1-2.3,4.8-1.4L217.9,260.4z"/>
	<path fill="#D3B489" stroke="#968062" stroke-width="2" stroke-miterlimit="10" d="M257.2,239.4c-0.2,1.9,1.3,3.6,3.2,3.8l0,0
		c1.9,0.2,3.6-1.3,3.8-3.2l1.8-20.2c0.2-1.9-1.3-3.6-3.2-3.8l0,0c-1.9-0.2-3.6,1.3-3.8,3.2L257.2,239.4z"/>
	<path fill="#827156" d="M259.4,269.6c-6,2.5-9,4.2-9,4.2s-3.1,1.5-8.5,5.1c-3.2,2.3-3.3,4.6-0.4,7.5c2.9,2.9,9.8,8.1,17.7,3.9
		c8-4.3,7.4-12.9,6.6-16.9C265.1,269.4,263,268.2,259.4,269.6z"/>
	<path fill="#EDB6C7" d="M253.7,279.8c-3.6,1.9-5.1,5.9-3.5,9c0.2,0.3,3.4,1.5,7.8-1c4.3-2.5,5.3-5.6,5.1-6
		C261.5,278.8,257.3,277.9,253.7,279.8z"/>
	<g>
		
			<path fill="#F29282" stroke="#BD7265" stroke-width="2" stroke-linecap="round" stroke-linejoin="round" stroke-miterlimit="10" d="
			M321.5,405.5c0,0-3.5-11.4-2.5-25.3c1.4-20-11.4-22.9-11.4-22.9l-9.2,5.3l0,0l-9.5,4.8c0,0-4.7,12.2,12.8,22.1
			C313.7,396.4,321.5,405.5,321.5,405.5z"/>
	</g>
	<path fill="#F1CB8A" stroke="#BD7265" stroke-width="2" stroke-miterlimit="10" d="M302.6,358.8c0,0,12.9,8.7,6.9,24.9
		c-16.9-3.2-17.8-18.7-17.8-18.7L302.6,358.8z"/>
	<path fill="#D3B489" d="M301.4,295.8c-2.2-4-17.5,0-34.4,9.1c-16.8,9-28.7,19.6-26.6,23.6l40.2,37.7c1.1,2,9.2,1,17.4-3.4
		c8.3-4.4,13.5-10.7,12.5-12.6L301.4,295.8z"/>
	<path fill="#E0E4CC" d="M241.5,330.1c0,0,29.6,1.2,60.5-32.5c4.3,25.9,8.7,52.9,8.7,52.9s-8.7,16.7-29.2,16.7
		c-38.7-37.2-40.3-37.1-40.3-37.1"/>
	<path fill="none" stroke="#AB916F" stroke-width="2" stroke-miterlimit="10" d="M301.4,295.8c2.2,4-9.7,14.6-26.6,23.6
		c-16.8,9-32.2,13.1-34.4,9.1"/>
	<path fill="none" stroke="#968062" stroke-width="3" stroke-miterlimit="10" d="M301.4,295.8c-2.2-4-17.5,0-34.4,9.1
		c-16.8,9-28.7,19.6-26.6,23.6l40.2,37.7c1.1,2,9.2,1,17.4-3.4c8.3-4.4,13.5-10.7,12.5-12.6L301.4,295.8z"/>
	<circle fill="#E0E4CC" stroke="#8F9C9A" stroke-width="2" stroke-miterlimit="10" cx="363.4" cy="319.9" r="2.9"/>
	<path fill="#F29282" stroke="#D17E70" stroke-width="2" stroke-miterlimit="10" d="M325.4,390.3c0,0-2.5,10,8.3,16.2
		C334.7,399.5,330.2,392.7,325.4,390.3z"/>
	<path fill="#F29282" stroke="#D17E70" stroke-width="2" stroke-miterlimit="10" d="M329.4,414c0,0-1.6,6.6,5.5,10.7
		C335.6,420.1,332.7,415.6,329.4,414z"/>
	<path fill="#F29282" stroke="#D17E70" stroke-width="2" stroke-miterlimit="10" d="M309.6,402.3c0,0,12.3,6.4,14.7,23.6
		C309.1,421.2,309.6,402.3,309.6,402.3z"/>
	<path fill="#E0E4CC" stroke="#8F9C9A" stroke-width="2" stroke-miterlimit="10" d="M200.9,298.8"/>
	<circle fill="#E05757" cx="283.9" cy="335.9" r="12.6"/>
	
		<polygon fill="#95C68F" stroke="#779E72" stroke-width="3" stroke-linecap="round" stroke-linejoin="round" stroke-miterlimit="10" points="
		208.8,336.3 217.8,345.5 230.5,344 224.6,355.3 230,367 217.3,364.8 207.9,373.5 206,360.8 194.8,354.6 206.3,348.9 	"/>
</g>
</svg>
