<?xml version="1.0" encoding="utf-8"?>
<!-- Generator: Adobe Illustrator 16.0.0, SVG Export Plug-In . SVG Version: 6.00 Build 0)  -->
<!DOCTYPE svg PUBLIC "-//W3C//DTD SVG 1.1//EN" "http://www.w3.org/Graphics/SVG/1.1/DTD/svg11.dtd">
<svg version="1.1" id="content" xmlns="http://www.w3.org/2000/svg" xmlns:xlink="http://www.w3.org/1999/xlink" x="0px" y="0px"
	 width="500px" height="500px" viewBox="0 0 500 500" enable-background="new 0 0 500 500" xml:space="preserve">
<g id="bounds">
	<rect x="0.25" y="0.25" fill="none" stroke="#EAEAEA" stroke-miterlimit="10" width="499.5" height="499.5"/>
</g>
<rect id="position" x="0.5" y="0.5" display="none" fill="none" stroke="#000000" width="499" height="499"/>
<g>
	<path fill="#FFFFFF" d="M355.16,425.337c-0.29,0-0.584-0.01-0.873-0.037c-3.666-0.225-7.036-1.869-9.467-4.637l-41.119-46.658
		l-29.773,26.37l1.814-19.456c0.082-0.85,0.123-1.738,0.123-2.66l-0.055-2.422l-1.365,1.092c-6.942,5.561-15.688,8.615-24.614,8.615
		c-8.945-0.008-17.703-3.08-24.66-8.648l-1.368-1.096l-0.052,2.496c0,0.883,0.036,1.751,0.112,2.57l1.791,19.463l-29.738-26.411
		l-21.975,24.851c-11.531,13.043-16.304,18.441-18.665,20.852l-0.531,0.816c-2.769,3.072-6.48,4.711-10.346,4.711
		c-3.368,0-6.612-1.234-9.131-3.465c-2.752-2.44-4.39-5.807-4.617-9.479c-0.015-0.372-0.025-0.61-0.025-0.854
		c0-2.474,0.667-4.903,1.934-7.027l0.871-1.461l0.216,0.182l0.668-0.867c0.596-0.869,1.963-2.434,4.992-5.872l35.965-40.91
		l-2.684-2.523l-0.592,0.524c-12.287,10.792-20.131,21.023-22.565,24.93l-3.924,6.305l-4.072-6.209
		c-12.719-19.454-20.039-39.997-24.475-68.7c-4.646-30.083-4.099-79.667-3.652-99.591l0.125-6.035l22.899,0.037l-0.339-1.121
		c-0.354-1.166-0.528-2.396-0.528-3.66v-0.363c0.112-3.688,1.669-7.479,4.505-11.014l0.418-0.521l-0.396-0.538
		c-5.683-7.686-24.504-33.363-28.104-41.176c-0.447-0.978-0.674-2.013-0.674-3.077c0-2.09,0.901-4.093,2.473-5.494
		c1.359-1.201,3.091-1.859,4.875-1.859c1.367,0,2.708,0.388,3.88,1.114c6.531,4.045,23.949,20.539,36.666,32.575l3.553,3.44
		l0.515-0.19c0.824-0.308,1.525-0.544,2.098-0.71c1.955-0.48,3.873-0.785,5.763-0.92l1.211-0.086l-15.036-35.475l37.017,19.547
		l-5.86-65.267l42.499,52.639l19.185-67.308l19.075,67.341l42.598-52.574l-5.979,65.269l37.049-19.493l-15.1,35.457l1.219,0.085
		c1.892,0.133,3.812,0.441,5.705,0.912c0.604,0.175,1.316,0.408,2.146,0.725l0.516,0.197l3.907-3.761
		c13.312-12.558,29.872-28.173,36.378-32.188c1.166-0.725,2.506-1.107,3.863-1.107c1.779,0,3.512,0.658,4.871,1.853
		c1.584,1.412,2.483,3.413,2.483,5.5c0,1.063-0.231,2.104-0.69,3.095c-3.609,7.8-22.475,33.452-28.167,41.122l-0.396,0.541
		l0.421,0.522c2.825,3.528,4.375,7.315,4.478,10.961l0.004,0.387c0,1.293-0.18,2.522-0.533,3.681l-0.344,1.123l18.252,0.013
		l4.648,0.1l0.118,5.938c0.164,8.015,0.247,16.031,0.247,23.843c0,22.683-0.705,54.235-4.057,75.748
		c-4.497,28.715-11.854,49.248-24.598,68.649l-4.074,6.231l-3.926-6.344c-2.43-3.914-10.268-14.17-22.516-24.971l-0.594-0.524
		l-2.688,2.525l41.116,46.931c5.013,5.688,4.461,14.408-1.226,19.436C361.752,424.108,358.521,425.337,355.16,425.337z
		 M350.796,415.397c1.099,1.24,2.688,1.952,4.357,1.952c1.433,0,2.789-0.515,3.837-1.448c1.162-1.027,1.855-2.44,1.953-3.991
		c0.093-1.548-0.417-3.042-1.438-4.2l-46.192-52.728l13.488-12.665l2.192,1.816c12.424,10.287,20.576,20.073,24.331,24.992
		l0.777,1.02l0.659-1.099c10.136-16.923,16.153-34.962,20.121-60.331c4.475-28.629,4.135-76.363,3.781-95.562l-0.016-0.852
		l-33.706-0.015l10.714-10.321c0.543-0.523,0.836-1.479,0.809-2.609c-0.086-2.873-1.94-6.045-5.244-8.898l-2.268-1.977l1.805-2.408
		c8.4-11.191,19.422-26.354,25.785-36.146l-1.567-1.365c-7.96,6.877-19.933,18.171-28.766,26.5
		c-0.577,0.547-2.233,2.155-2.233,2.155l-1.234,1.199c-0.877,0.854-1.589,1.551-2.178,2.106l-1.553,1.453l-1.953-0.854
		c-2.023-0.882-3.664-1.513-4.49-1.744c-1.968-0.489-3.928-0.742-5.805-0.742c-2.828,0-4.569,0.604-5.152,0.962l-8.68,5.372
		l13.748-32.265l-30.206,15.89l4.91-53.732l-35.742,44.11l-15.609-55.121l-15.703,55.1l-35.671-44.18l4.822,53.747l-30.184-15.942
		l13.694,32.29l-8.663-5.383c-0.583-0.363-2.329-0.977-5.181-0.977c-1.861,0-3.831,0.258-5.856,0.758
		c-0.793,0.227-2.502,0.895-4.407,1.721l-1.946,0.848l-1.555-1.459c-0.723-0.68-1.651-1.59-2.613-2.535
		c-1.103-1.088-2.121-2.082-2.987-2.904c-8.402-7.951-20.77-19.658-28.84-26.535l-1.555,1.382
		c5.602,8.481,15.582,22.465,25.789,36.122l1.798,2.412l-2.269,1.975c-3.304,2.859-5.167,6.021-5.249,8.895
		c-0.031,1.146,0.258,2.086,0.818,2.631l10.669,10.326l-33.691-0.05l-0.017,0.853c-0.385,19.213-0.8,66.978,3.616,95.566
		c3.916,25.356,9.903,43.404,20.022,60.369l0.656,1.101l0.781-1.02c3.757-4.908,11.924-14.677,24.375-24.955l2.201-1.812
		l13.463,12.695l-46.279,52.633c-2.124,2.404-1.905,6.09,0.486,8.212c1.06,0.935,2.423,1.447,3.841,1.447
		c1.669,0,3.258-0.71,4.359-1.95l46.483-52.574l20.578,18.285l-0.031-1.977c-0.071-4.172,0.512-9.084,1.734-14.602l1.653-7.48
		l4.208,6.405c5.877,8.941,15.757,14.291,26.434,14.302c10.688,0,20.575-5.328,26.454-14.252l4.227-6.407l1.632,7.492
		c1.244,5.671,1.806,10.444,1.718,14.593l-0.041,1.983l20.606-18.242L350.796,415.397z"/>
	<path fill="#071921" d="M380.074,140.668c-6.122,3.789-23.455,20.137-36.109,32.071c-1.773,1.676-4.125,4.021-5.613,5.42
		c-1.844-0.803-3.777-1.586-4.914-1.898c-6.293-1.568-11.354-0.757-13.521,0.588l13.312-31.232l-32.982,17.345l5.341-58.403
		l-38.521,47.539l-17.009-60.074l-17.114,60.05l-38.44-47.605l5.24,58.414l-32.954-17.408l13.255,31.257
		c-2.166-1.346-7.224-2.17-13.523-0.609c-1.13,0.316-3.073,1.093-4.917,1.896c-1.486-1.398-3.826-3.754-5.598-5.429
		c-12.636-11.962-29.939-28.345-36.053-32.134c-0.976-0.608-2.232-0.504-3.102,0.26c-0.859,0.762-1.12,1.998-0.641,3.045
		c3.214,6.978,20.366,30.676,30.381,44.073c-7.081,6.144-7.705,13.224-4.576,16.278l4.931,4.773l-28.855-0.047
		c0,1.867-1.926,64.611,3.564,100.151c4.168,26.994,10.852,47.102,23.749,66.817c2.985-4.789,12.541-17.117,27.337-29.318
		l9.114,8.595l-44.214,50.292c-3.308,3.729-2.958,9.459,0.772,12.756c3.735,3.309,9.461,2.961,12.763-0.785l44.339-50.143
		l18.682,16.594l5.628,5.013l-0.68-7.513c-0.46-4.986,0.312-10.752,1.528-16.258c6.227,9.478,16.948,15.748,29.132,15.76
		c12.193,0.004,22.921-6.244,29.159-15.711c1.199,5.507,1.981,11.277,1.509,16.257l-0.701,7.515l5.646-5.002l18.709-16.564
		l44.25,50.218c3.299,3.741,9.021,4.093,12.758,0.8c3.732-3.305,4.095-9.021,0.794-12.757l-44.129-50.373l9.129-8.578
		c14.776,12.229,24.312,24.574,27.276,29.38c12.94-19.707,19.654-39.791,23.874-66.793c5.55-35.529,3.734-98.275,3.734-100.143
		l-28.86-0.005l4.939-4.771c3.13-3.057,2.521-10.135-4.551-16.285c10.047-13.387,27.229-37.05,30.459-44.021
		c0.479-1.045,0.221-2.282-0.633-3.048C382.312,140.177,381.052,140.069,380.074,140.668z M324.951,181.194
		c1.404-1.799,4.871-1.539,9.753,0.722l0.499,0.206l-6.163,6.451l-0.26-0.146c-2.241-1.307-3.804-3.22-4.17-5.127
		C324.447,182.435,324.562,181.685,324.951,181.194z M320.454,181.909l0.655,0.388c-0.521,0.964-0.584,2.101-0.195,3.362
		c0.93,3.01,4.381,6.424,8.779,8.695l0.414,0.213l-2.132,2.604l-0.241-0.076c-0.072-0.025-7.902-2.459-13.262-4.869l-0.396-0.182
		L320.454,181.909z M330.936,222.772c-1.316,1.215-2.729,1.438-4.733,1.42c-5.46-0.062-15.536-4.006-26.208-8.178l-1.424-0.557
		c-10.135-3.965-25.453-9.958-48.616-9.969c-23.156-0.022-38.485,5.941-48.625,9.887l-1.438,0.559
		c-10.671,4.154-20.753,8.08-26.214,8.125c-2.003,0.026-3.418-0.207-4.728-1.418c-1.265-1.177-16.488-16.303-17.137-16.951
		l-0.729-0.721l1.021,0.078c5.637,0.436,22.839-4.678,36.214-9.875l2.512-0.986c13.567-5.309,32.138-12.591,59.145-12.566
		c27.003,0.025,45.561,7.334,59.117,12.672l2.518,0.984c13.365,5.223,30.566,10.365,36.189,9.938l1.026-0.079l-0.733,0.721
		C347.446,206.501,332.199,221.601,330.936,222.772z M295.178,218.04c-0.006,0.432-0.035,3.463-0.039,4.056
		c-0.742-0.002-89.659-0.077-90.398-0.077c-0.006-0.594-0.022-3.619-0.029-4.049c10.948-4.139,25.945-8.824,45.237-8.808
		C269.242,209.171,284.23,213.894,295.178,218.04z M208.621,176.104c0,0-4.168-45.333-4.38-47.7
		c1.493,1.868,32.043,39.862,32.043,39.862s13.048-46.215,13.746-48.666c0.685,2.455,13.658,48.688,13.658,48.688
		s30.612-37.95,32.113-39.805c-0.226,2.367-4.459,47.697-4.459,47.697s24.678-12.986,26.438-13.922
		c-0.778,1.817-11.365,26.35-11.635,26.983c-15.24-5.839-32.602-11.201-56.167-11.224c-23.569-0.026-40.941,5.323-56.185,11.127
		c-0.271-0.619-10.814-25.179-11.593-26.989C183.962,163.076,208.621,176.104,208.621,176.104z M178.839,182.174l0.654-0.383
		l6.366,10.151l-0.395,0.181c-5.361,2.397-13.186,4.815-13.265,4.846l-0.241,0.077l-2.13-2.611l0.418-0.216
		c4.403-2.261,7.848-5.669,8.79-8.674C179.422,184.272,179.362,183.142,178.839,182.174z M165.244,181.772
		c4.892-2.26,8.352-2.504,9.761-0.707c0.385,0.494,0.504,1.244,0.337,2.109c-0.371,1.908-1.936,3.816-4.187,5.121l-0.264,0.141
		l-6.125-6.433L165.244,181.772z M131.424,157.301c6.915,6.277,14.786,13.704,20.734,19.345l9.307,8.752v-0.002l0.559,0.66
		c0,0,3.625,4.184,4.119,4.76c-0.395,0.263-0.958,0.64-0.958,0.64c-0.662,0.479-1.338,0.979-2.159,1.256l-0.521,0.183
		c0,0,3.529,4.239,4.134,4.969c-0.78,0.242-3.164,0.969-3.526,1.076c-0.304-0.347-7.471-8.488-7.471-8.488
		C150.155,183.288,139.455,168.851,131.424,157.301z M146.689,199.269c-2.561-2.557,0.568-5.688,2.639-7.769l0.3-0.304l0.267,0.336
		l5.854,7.342l-0.466,0.191C153.148,199.954,148.123,200.716,146.689,199.269z M167.286,341.665
		c-7.52,6.229-14.646,13.355-21.18,21.188l-0.364,0.434l-0.267-0.497c-7.775-15.093-13.419-33.169-16.779-53.726
		c-3.127-19.184-4.37-51.477-3.489-90.916l0.042-2.271l32.559,0.027l0.158,0.01l8.115,7.998l0.52,0.502l1.058,0.9l-0.004,0.883
		c-0.256,10.906-0.279,20.955-0.061,30.725l0.006,0.198l-9.114,6.633l-0.023-0.719c-0.184-6.948-0.283-14.378-0.283-22.206
		c0-4.678,0.034-9.496,0.102-14.438c0,0,0.04-3.136,0.048-3.769c-0.629,0-25.248-0.021-25.866-0.021
		c-0.006,0.613-0.05,3.672-0.05,3.672c-0.06,4.541-0.102,9.416-0.102,14.469c0,21.896,0.725,47.285,3.475,65.008
		c2.125,13.734,5.296,26.47,9.415,37.844c0,0,1.57,4.305,1.882,5.178c0.689-0.615,4.1-3.685,4.1-3.685
		c3.578-3.2,6.917-6.015,10.217-8.596l0.244-0.19l5.98,5.1L167.286,341.665z M188.838,367.411l-0.014,0.104l-7.028,7.952
		l-4.666,5.277l-9.229,10.438l-4.617,5.229l-9.225,10.432l-4.551,5.145l-1.934,2.189c-1.528,1.738-4.195,1.896-5.935,0.36
		c-0.839-0.745-1.338-1.771-1.401-2.896c-0.066-1.126,0.3-2.207,1.039-3.039l7.516-8.557l4.579-5.199l9.22-10.493l4.613-5.252
		l9.216-10.483l4.643-5.285l1.574-1.789l0.125-0.035c1.757-0.383,3.378-0.033,4.551,0.988c1.051,0.914,1.611,2.262,1.611,3.812
		C188.925,366.669,188.898,367.036,188.838,367.411z M215.886,355.386c-2.057,7.062-3.254,13.097-3.685,18.42
		c-1.051-0.938-38.392-34.107-39.456-35.043c10.59-2.114,21.455-7.309,27.348-10.142c1.266-0.608,7.962-3.901,15.627-9.093
		c5.252-1.607,10.634-2.825,15.972-3.727c-10.565,6.364-17.098,17.68-17.106,30.098c0,0.018,0,0.025,0,0.048
		C214.585,349.122,215.028,352.3,215.886,355.386z M280.045,348.09c-0.256,3.485-1.082,6.806-2.406,9.854
		c-1.024,2.386-2.354,4.607-3.938,6.625c-0.52,0.662-1.053,1.297-1.622,1.912c-5.373,5.801-12.979,9.489-21.437,9.712
		c-0.281,0.017-0.552,0.021-0.827,0.021c-0.281,0-0.547-0.012-0.82-0.021c-8.472-0.233-16.068-3.937-21.429-9.745
		c-0.552-0.604-1.081-1.226-1.584-1.873c-1.596-2.047-2.948-4.301-3.984-6.718c-1.308-3.033-2.117-6.331-2.363-9.784
		c-0.048-0.715-0.081-1.443-0.081-2.174c0.01-11.768,6.72-21.941,16.516-26.954c0.529-0.271,1.064-0.529,1.609-0.767
		c3.497-1.535,7.332-2.425,11.368-2.531c0.275-0.01,0.547-0.025,0.822-0.025c0.271,0,0.552,0.018,0.827,0.025
		c4.043,0.115,7.887,1.021,11.385,2.561c0.541,0.24,1.062,0.489,1.588,0.764c9.785,5.025,16.479,15.221,16.469,26.982
		C280.125,346.67,280.094,347.382,280.045,348.09z M318.572,363.433c1.088,1.244,2.682,3.064,4.625,5.279
		c2.592,2.955,5.773,6.602,9.186,10.483c1.518,1.732,3.078,3.517,4.641,5.296c3.135,3.58,6.303,7.187,9.188,10.488
		c1.626,1.863,3.165,3.613,4.562,5.217c4.45,5.09,7.515,8.585,7.515,8.585c0.684,0.776,1.05,1.751,1.05,2.778
		c0,0.084,0,0.18-0.01,0.27c-0.062,1.124-0.57,2.14-1.408,2.885c-1.742,1.532-4.396,1.374-5.93-0.366l-1.941-2.206l-4.512-5.123
		l-9.224-10.461l-4.608-5.236l-9.225-10.461l-4.68-5.316l-6.984-7.924l-0.02-0.105c-0.319-2.005,0.235-3.802,1.531-4.92
		c1.178-1.023,2.801-1.363,4.557-0.971l0.117,0.023C317.004,361.647,317.576,362.298,318.572,363.433z M286.791,373.872
		c-0.395-5.013-1.506-10.838-3.333-17.345c1.069-3.415,1.63-6.966,1.63-10.563c0-0.01,0-0.019,0-0.019
		c0-12.301-6.412-23.546-16.797-29.96c5.05,0.903,10.148,2.094,15.171,3.653c7.511,5.136,14.239,8.458,15.515,9.063
		c5.894,2.838,16.744,8.051,27.326,10.201C325.239,339.833,287.855,372.934,286.791,373.872z M309.209,325.948
		c-26.953-14.859-50.477-16.484-59.338-16.488c-8.866-0.006-32.396,1.572-59.394,16.4c-6.422,3.077-17.254,7.451-26.655,9.666
		l-0.31-0.666l1.9-1.412c0,0,1.711-1.253,2.061-1.504c-0.114-0.419-0.662-2.476-0.662-2.476c-2.169-8.063-3.931-16.432-5.242-24.858
		c-0.748-4.853-1.387-10.729-1.909-17.482l-0.054-0.719l10.011,5.908l0.025,0.188c1.07,10.871,2.521,20.753,4.309,29.365
		c0,0,0.878,4.205,1.054,5.046c1.185-0.688,4.459-2.589,4.459-2.589c5.348-3.117,10.3-5.654,15.153-7.775
		c0,0,2.277-0.998,2.735-1.195c-0.135-0.693-0.583-2.943-0.583-2.943c-1.907-9.557-3.355-20.1-4.311-31.326
		c0,0-0.142-1.631-0.171-1.945c-0.404-0.23-11.928-6.766-11.928-6.766s10.723-7.729,11-7.921c-0.016-0.337-0.083-2.009-0.083-2.009
		c-0.329-7.779-0.492-15.783-0.492-24.244c0-3.826,0.031-7.75,0.101-11.781l0.042-3.688l0.015-0.267l6.333-2.362
		c0,0-0.006,7.444-0.006,8.135c0.747,0,104.592,0.089,105.333,0.089c0.002-0.687,0.015-8.166,0.015-8.166l6.025,2.272l-0.182,3.963
		c0,0-0.25,5.664-0.254,5.774l-0.021,0.918c-0.145,9.229-0.391,24.675,9.229,35.312l12.279,13.248l3.557,3.854l0.999,1.099
		c2.612,2.812,5.585,5.987,3.569,19.057l-0.079,0.404l-0.098,0.524l-8.431-4.858l-0.228-0.136l0.981-7.421
		c0,0,0.199-1.719,0.238-2.062c-0.379-0.307-21.839-17.228-22.748-17.939c-0.158,1.828-0.59,6.874-0.59,6.874
		c-1.012,11.772-2.438,22.313-4.266,31.326c0,0-0.488,2.458-0.58,2.95c0.646,0.293,2.738,1.199,2.738,1.199
		c10.658,4.648,21.179,10.854,31.265,18.441l-0.319,0.666C326.347,333.393,315.596,329.019,309.209,325.948z M353.236,199.444
		c-1.445,1.445-6.463,0.675-8.604-0.209l-0.463-0.195l5.562-6.939l0.568-0.719l0.301,0.299
		C352.67,193.749,355.791,196.89,353.236,199.444z M344.271,190.614c0.018-0.012-6.646,7.525-7.472,8.455
		c-0.363-0.105-2.732-0.844-3.525-1.078c0.611-0.73,4.143-4.967,4.143-4.967l-0.514-0.179c-0.82-0.276-1.502-0.778-2.161-1.267
		c0,0-0.558-0.379-0.944-0.643c0.492-0.568,4.168-4.801,4.168-4.801l0.545-0.633c0.006-0.002,9.293-8.704,9.293-8.704
		c5.965-5.614,13.834-13.029,20.771-19.306C360.53,169.022,349.799,183.444,344.271,190.614z"/>
	<path fill="#071921" d="M161.405,336.478c-3.298,2.579-6.636,5.393-10.219,8.598c0,0-3.41,3.064-4.097,3.686
		c-0.312-0.873-1.879-5.182-1.879-5.182c-4.12-11.373-7.297-24.096-9.422-37.842c-2.75-17.717-3.467-43.111-3.467-65.008
		c0-5.055,0.034-9.93,0.094-14.47c0,0,0.048-3.057,0.054-3.671c0.617,0,25.237,0.02,25.864,0.02
		c-0.008,0.637-0.048,3.771-0.048,3.771c-0.064,4.939-0.102,9.764-0.102,14.438c0,7.83,0.087,15.258,0.287,22.207l0.017,0.719
		l9.114-6.633l-0.006-0.197c-0.219-9.764-0.196-19.818,0.061-30.725l0.004-0.885l-1.058-0.9l-0.514-0.502l-8.121-8.002l-0.158-0.006
		l-32.559-0.027l-0.042,2.271c-0.88,39.443,0.362,71.733,3.483,90.918c3.362,20.557,9.003,38.63,16.787,53.723l0.265,0.502
		l0.364-0.434c6.534-7.827,13.658-14.951,21.18-21.188l0.352-0.285l-5.983-5.104L161.405,336.478z"/>
	<path fill="#734F9D" d="M146.036,360.685c-7.324-14.648-12.676-32.086-15.91-51.853c-3.111-19.106-4.344-51.294-3.468-90.653
		l0.015-0.855l30.691,0.029l8.235,8.1l0.61,0.521v0.217c-0.248,10.705-0.277,20.602-0.071,30.194l-6.274,4.566
		c-0.15-6.327-0.229-13.091-0.229-20.134c0-4.668,0.033-9.481,0.102-14.416l0.066-5.243l-28.772-0.021l-0.06,5.104
		c-0.063,4.542-0.102,9.429-0.102,14.488c0,28.358,1.176,50.309,3.49,65.229c2.138,13.807,5.332,26.624,9.485,38.103l2.613,7.207
		l5.696-5.122c3.364-3.014,6.461-5.632,9.461-8l3.77,3.212C158.534,347.138,152.039,353.63,146.036,360.685z"/>
	<path fill="#071921" d="M348.832,205.134l-1.029,0.079c-5.621,0.429-22.824-4.716-36.188-9.937l-2.52-0.986
		c-13.559-5.338-32.109-12.645-59.114-12.672c-27.007-0.021-45.58,7.26-59.145,12.568l-2.513,0.984
		c-13.377,5.197-30.577,10.314-36.212,9.875l-1.024-0.078l0.728,0.721c0.652,0.648,15.876,15.77,17.137,16.953
		c1.31,1.211,2.726,1.442,4.732,1.422c5.46-0.049,15.539-3.977,26.213-8.129l1.437-0.561c10.143-3.943,25.472-9.909,48.623-9.889
		c23.163,0.02,38.481,6.006,48.619,9.971l1.423,0.559c10.674,4.172,20.746,8.121,26.207,8.178c2.002,0.021,3.418-0.205,4.736-1.42
		c1.268-1.172,16.508-16.271,17.164-16.92L348.832,205.134z M281.719,202.878c-3.846-0.902-10.146-2.152-14.373-2.77l2.723-1.701
		l1.035-5.74l-1.981-2.443c3.25,0.438,8.94,1.445,14.757,2.762l-0.742,3.559l-2.764-2.585l-5.338-0.997l-0.362,2.173l3.076,0.546
		l1.938-0.701l-0.729,3.771l-1.54-1.354l-3.044-0.563l-0.424,2.437l5.209,0.974l3.465-1.396L281.719,202.878z"/>
	<path fill="#734F9D" d="M348.832,205.134l-1.029,0.079c-5.621,0.429-22.824-4.716-36.188-9.937l-2.52-0.986
		c-13.559-5.338-32.109-12.645-59.114-12.672c-27.007-0.021-45.58,7.26-59.145,12.568l-2.513,0.984
		c-13.377,5.197-30.577,10.314-36.212,9.875l-1.024-0.078l0.728,0.721c0.652,0.648,15.876,15.77,17.137,16.953
		c1.31,1.211,2.726,1.442,4.732,1.422c5.46-0.049,15.539-3.977,26.213-8.129l1.437-0.561c10.143-3.943,25.472-9.909,48.623-9.889
		c23.163,0.02,38.481,6.006,48.619,9.971l1.423,0.559c10.674,4.172,20.746,8.121,26.207,8.178c2.002,0.021,3.418-0.205,4.736-1.42
		c1.268-1.172,16.508-16.271,17.164-16.92L348.832,205.134z"/>
	<polygon fill="#071921" points="189.668,207.905 192.781,206.784 190.2,204.669 	"/>
	<polygon fill="#734F9D" points="189.668,207.905 192.781,206.784 190.2,204.669 	"/>
	<path fill="#FFFFFF" d="M177.249,209.372c-2.148,0.656-3.726,1.449-4.009,0.689c-0.25-0.666,1.263-1.533,2.939-2.156
		c2.215-0.821,4.484-1.146,6.978-0.621l-1.197-3.172l-0.961,1.388c-1.495-0.093-3.851,0.261-5.75,0.962
		c-3.577,1.324-5.614,3.385-4.821,5.496c0.798,2.109,3.546,2.1,7.195,0.984c2.159-0.629,3.857-1.363,4.151-0.572
		c0.288,0.76-0.945,1.449-2.647,2.078c-2.236,0.836-5.026,1.076-7.505,0.338l1.322,3.498l0.947-1.348
		c1.478,0.067,4.22-0.395,6.118-1.098c3.577-1.322,5.712-3.111,4.865-5.378C184.023,208.202,180.834,208.248,177.249,209.372z"/>
	<path fill="#734F9D" d="M250.678,320.86l0.369,0.011c2.732,0.108,5.426,0.587,8.008,1.407l0.326,0.096l0.143-0.314
		c0.781-1.751,1.754-3.012,2.436-3.76c0.008,0,0.057-0.033,0.119-0.086c-3.501-1.545-7.354-2.443-11.393-2.561v0.023
		C250.686,315.683,250.678,320.86,250.678,320.86z"/>
	<path fill="#734F9D" d="M240.199,322.056l0.142,0.318l0.325-0.113c2.583-0.813,5.271-1.277,8.004-1.39l0.369-0.011
		c0,0,0-3.186,0.006-5.207c-4.041,0.107-7.873,0.996-11.37,2.529c0.048,0.053,0.083,0.094,0.083,0.094
		C238.442,319.034,239.42,320.302,240.199,322.056z"/>
	<path fill="#734F9D" d="M264.618,343.008c-0.007-0.021-3.731-6.095-3.731-6.095c-1.729-3.072-2.602-6.09-2.602-9.016
		c0-1.225,0.152-2.432,0.455-3.617l0.088-0.348l-0.34-0.116c-2.387-0.753-4.877-1.188-7.408-1.288l-0.406-0.023l-0.045,53.688v0.007
		c8.467-0.217,16.071-3.912,21.436-9.713v-0.025C272.078,354.572,268.777,349.456,264.618,343.008z"/>
	<path fill="#734F9D" d="M278.512,351.171c0-7.654-2.977-14.848-8.389-20.266c-2.703-2.697-5.834-4.803-9.328-6.25l-0.415-0.171
		l-0.108,0.432c-0.236,0.979-0.35,1.974-0.35,2.987c0,2.621,0.797,5.373,2.387,8.197l3.664,5.963
		c3.908,6.084,7.258,11.287,7.688,22.068c0,0,0.013,0.184,0.03,0.438c1.582-2.018,2.908-4.239,3.938-6.625
		c0.562-2.231,0.87-4.496,0.877-6.76C278.512,351.192,278.512,351.179,278.512,351.171z"/>
	<path fill="#734F9D" d="M238.398,323.092l0.375-0.153l-0.171-0.375c-0.791-1.695-1.802-2.885-2.537-3.616
		c-9.792,5.009-16.506,15.188-16.517,26.954c0,0.729,0.033,1.459,0.081,2.174c0.169-1.062,0.304-1.891,0.304-1.891
		C221.642,335.896,228.718,327.046,238.398,323.092z"/>
	<path fill="#734F9D" d="M233.669,342.079c0.01-0.018,3.697-5.992,3.697-5.992c1.601-2.83,2.409-5.59,2.409-8.217
		c0-1.016-0.117-2.006-0.354-2.967l-0.108-0.436l-0.414,0.174c-3.487,1.438-6.635,3.537-9.333,6.236
		c-5.423,5.41-8.41,12.613-8.416,20.272v0.021c0,2.236,0.298,4.48,0.843,6.695c1.037,2.416,2.39,4.676,3.984,6.717
		c0-0.285,0-0.506,0-0.506C226.418,353.313,229.78,348.106,233.669,342.079z"/>
	<path fill="#734F9D" d="M263.656,318.972c-0.719,0.707-1.738,1.899-2.535,3.6l-0.182,0.377l0.377,0.146
		c3.734,1.532,7.093,3.772,9.971,6.655c4.505,4.518,7.428,10.205,8.447,16.45c0,0,0.132,0.835,0.306,1.896
		c0.05-0.706,0.077-1.422,0.077-2.138C280.136,334.196,273.439,324.004,263.656,318.972z"/>
	<path fill="#734F9D" d="M248.634,322.522c-2.531,0.104-5.023,0.534-7.411,1.283l-0.354,0.109l0.094,0.352
		c0.3,1.178,0.452,2.375,0.452,3.593c0,2.927-0.878,5.949-2.619,9.032l-3.73,6.059c-4.185,6.476-7.482,11.6-7.504,23.494
		c5.36,5.812,12.957,9.514,21.429,9.743c0.002-8.003,0.048-53.692,0.048-53.692L248.634,322.522z"/>
	<path fill="#909191" d="M271.29,329.743c-2.876-2.887-6.233-5.125-9.972-6.651l-0.377-0.153l0.18-0.375
		c0.804-1.695,1.82-2.892,2.541-3.592c-0.525-0.272-1.047-0.521-1.586-0.764c-0.064,0.059-0.111,0.086-0.119,0.086
		c-0.676,0.747-1.652,2.008-2.434,3.762l-0.145,0.312l-0.325-0.098c-2.581-0.818-5.269-1.294-8.009-1.403l-0.369-0.014l0.01-5.182
		c0,0,0-0.013,0-0.025c-0.271-0.008-0.552-0.023-0.823-0.023c-0.277,0-0.549,0.018-0.826,0.023c-0.006,2.02-0.006,5.207-0.006,5.207
		l-0.366,0.014c-2.729,0.109-5.423,0.573-8.002,1.389l-0.329,0.108l-0.142-0.314c-0.774-1.753-1.749-3.019-2.442-3.782
		c0,0-0.038-0.042-0.081-0.086c-0.543,0.235-1.083,0.496-1.611,0.767c0.737,0.731,1.747,1.921,2.538,3.618l0.171,0.375l-0.373,0.151
		c-9.681,3.949-16.758,12.804-18.474,23.087c0,0-0.129,0.835-0.3,1.896c0.243,3.453,1.06,6.751,2.36,9.784
		c-0.545-2.218-0.837-4.452-0.837-6.694c0,0,0-0.02,0-0.023c0.004-7.667,2.994-14.859,8.413-20.271
		c2.702-2.706,5.841-4.8,9.334-6.236l0.412-0.173l0.108,0.433c0.237,0.964,0.35,1.957,0.35,2.967c0,2.629-0.803,5.388-2.404,8.219
		c0,0-3.685,5.975-3.697,5.991c-3.889,6.026-7.251,11.233-7.695,21.996c0,0,0,0.216,0,0.506c0.504,0.645,1.033,1.268,1.585,1.866
		c0.024-11.894,3.322-17.018,7.504-23.489l3.728-6.057c1.749-3.079,2.627-6.104,2.627-9.032c0-1.218-0.154-2.415-0.454-3.593
		l-0.094-0.352l0.354-0.109c2.384-0.756,4.882-1.182,7.411-1.281l0.404-0.023c0,0-0.043,45.694-0.048,53.694
		c0.275,0.011,0.548,0.021,0.82,0.021c0.273,0,0.547-0.006,0.825-0.021v-0.006l0.045-53.688l0.406,0.023
		c2.53,0.104,5.016,0.542,7.407,1.29l0.341,0.116l-0.089,0.352c-0.303,1.182-0.455,2.389-0.455,3.613
		c0,2.93,0.873,5.945,2.603,9.014l3.731,6.094c4.158,6.455,7.451,11.564,7.451,23.461v0.025c0.565-0.617,1.109-1.256,1.625-1.912
		c-0.019-0.256-0.026-0.438-0.026-0.438c-0.433-10.777-3.787-15.988-7.688-22.072l-3.66-5.955c-1.596-2.826-2.396-5.58-2.396-8.199
		c0-1.021,0.115-2.007,0.358-2.989l0.104-0.429l0.41,0.174c3.496,1.443,6.625,3.555,9.332,6.248
		c5.404,5.416,8.387,12.615,8.387,20.264c0,0.01,0,0.021,0,0.021c-0.006,2.264-0.312,4.529-0.879,6.764
		c1.324-3.059,2.15-6.373,2.406-9.857c-0.176-1.064-0.303-1.898-0.303-1.898C278.719,339.946,275.795,334.259,271.29,329.743z"/>
	<polygon fill="#909191" points="181.74,374.388 181.377,368.366 181.108,363.853 181.065,363.326 176.42,368.616 176.477,369.114 
		177.092,380.205 177.126,380.753 181.79,375.469 181.772,374.923 	"/>
	<polygon fill="#909191" points="167.246,379.628 167.207,379.102 162.593,384.354 162.637,384.872 163.003,391.499 
		163.215,395.337 163.251,395.876 163.285,396.411 167.901,391.185 167.863,390.661 	"/>
	<path fill="#909191" d="M350.771,400.2c-1.349-1.541-2.828-3.229-4.387-5.009l-0.109,1.983l-0.52,8.971l-0.033,0.589l-0.021,0.479
		l4.342,4.928l0.668,0.764l0.014-0.479l0.04-0.594l0.671-10.871C351.215,400.708,351.002,400.464,350.771,400.2z"/>
	<path fill="#909191" d="M318.504,364.5l-0.514,8.349l-0.145,2.188l-0.051,0.514l4.676,5.316l0.045-0.53l0.641-11.09l0.033-0.534
		c-1.939-2.219-3.529-4.039-4.617-5.279l-0.041,0.543L318.504,364.5z"/>
	<path fill="#909191" d="M332.335,380.301l-0.283,4.981l-0.313,5.518l-0.03,0.531l4.607,5.238l0.026-0.547l0.035-0.537l0.188-3.356
		l0.415-7.104l0.043-0.525c-1.558-1.785-3.119-3.562-4.641-5.296l-0.01,0.564L332.335,380.301z"/>
	<path fill="#909191" d="M163.12,198.922c0.362-0.108,2.746-0.835,3.527-1.075c-0.605-0.729-4.134-4.969-4.134-4.969l0.52-0.179
		c0.82-0.283,1.497-0.78,2.159-1.261c0,0,0.561-0.377,0.958-0.646c-0.493-0.566-4.12-4.758-4.12-4.758l-0.558-0.654v0.002
		l-9.308-8.749c-5.95-5.642-13.819-13.072-20.734-19.348c8.029,11.549,18.725,25.985,24.221,33.14
		C155.647,190.437,162.814,198.576,163.12,198.922z"/>
	<path fill="#071921" d="M155.289,199.077l0.466-0.193l-5.854-7.344l-0.269-0.335l-0.304,0.3c-2.071,2.08-5.2,5.207-2.639,7.771
		C148.123,200.716,153.148,199.954,155.289,199.077z"/>
	<path fill="#734F9D" d="M155.289,199.077l0.466-0.193l-5.854-7.344l-0.269-0.335l-0.304,0.3c-2.071,2.08-5.2,5.207-2.639,7.771
		C148.123,200.716,153.148,199.954,155.289,199.077z"/>
	<path fill="#071921" d="M171.155,188.29c2.245-1.299,3.81-3.207,4.183-5.121c0.171-0.865,0.052-1.615-0.333-2.111
		c-1.41-1.796-4.875-1.551-9.761,0.709l-0.481,0.229l6.122,6.43L171.155,188.29z"/>
	<path fill="#734F9D" d="M171.155,188.29c2.245-1.299,3.81-3.207,4.183-5.121c0.171-0.865,0.052-1.615-0.333-2.111
		c-1.41-1.796-4.875-1.551-9.761,0.709l-0.481,0.229l6.122,6.43L171.155,188.29z"/>
	<path fill="#071921" d="M170.239,194.217l-0.418,0.216l2.13,2.607l0.241-0.073c0.073-0.028,7.907-2.45,13.265-4.851l0.395-0.182
		l-6.365-10.149l-0.654,0.383c0.523,0.97,0.583,2.104,0.189,3.366C178.09,188.548,174.643,191.952,170.239,194.217z"/>
	<path fill="#734F9D" d="M170.239,194.217l-0.418,0.216l2.13,2.607l0.241-0.073c0.073-0.028,7.907-2.45,13.265-4.851l0.395-0.182
		l-6.365-10.149l-0.654,0.383c0.523,0.97,0.583,2.104,0.189,3.366C178.09,188.548,174.643,191.952,170.239,194.217z"/>
	<path fill="#909191" d="M249.977,178.015c23.566,0.021,40.927,5.389,56.167,11.221c0.271-0.627,10.854-25.167,11.637-26.977
		c-1.752,0.926-26.438,13.922-26.438,13.922s4.236-45.336,4.46-47.705c-1.504,1.863-32.113,39.807-32.113,39.807
		s-12.977-46.236-13.658-48.688c-0.695,2.451-13.746,48.665-13.746,48.665s-30.546-38-32.045-39.859
		c0.215,2.362,4.382,47.698,4.382,47.698s-24.661-13.029-26.419-13.953c0.781,1.812,11.318,26.373,11.593,26.988
		C209.04,183.336,226.41,177.991,249.977,178.015z"/>
	<path fill="#071921" d="M350.303,191.375l-0.568,0.719l-5.56,6.944l0.464,0.191c2.137,0.892,7.152,1.66,8.6,0.215
		c2.561-2.559-0.562-5.697-2.627-7.777L350.303,191.375z"/>
	<path fill="#734F9D" d="M350.303,191.375l-0.568,0.719l-5.56,6.944l0.464,0.191c2.137,0.892,7.152,1.66,8.6,0.215
		c2.561-2.559-0.562-5.697-2.627-7.777L350.303,191.375z"/>
	<path fill="#071921" d="M328.78,188.427l0.26,0.146l6.163-6.451l-0.499-0.206c-4.888-2.261-8.349-2.521-9.753-0.722
		c-0.389,0.49-0.504,1.24-0.341,2.109C324.973,185.207,326.539,187.12,328.78,188.427z"/>
	<path fill="#734F9D" d="M328.78,188.427l0.26,0.146l6.163-6.451l-0.499-0.206c-4.888-2.261-8.349-2.521-9.753-0.722
		c-0.389,0.49-0.504,1.24-0.341,2.109C324.973,185.207,326.539,187.12,328.78,188.427z"/>
	<path fill="#071921" d="M314.47,192.226c5.362,2.41,13.182,4.844,13.255,4.869l0.244,0.076l2.135-2.604l-0.415-0.213
		c-4.402-2.271-7.845-5.688-8.776-8.695c-0.393-1.262-0.322-2.398,0.199-3.362l-0.66-0.388l-6.381,10.139L314.47,192.226z"/>
	<path fill="#734F9D" d="M314.47,192.226c5.362,2.41,13.182,4.844,13.255,4.869l0.244,0.076l2.135-2.604l-0.415-0.213
		c-4.402-2.271-7.845-5.688-8.776-8.695c-0.393-1.262-0.322-2.398,0.199-3.362l-0.66-0.388l-6.381,10.139L314.47,192.226z"/>
	<path fill="#909191" d="M338.504,185.513l-0.546,0.635c0,0-3.677,4.229-4.167,4.797c0.393,0.267,0.95,0.646,0.95,0.646
		c0.663,0.481,1.335,0.979,2.155,1.271l0.52,0.174c0,0-3.536,4.242-4.145,4.967c0.785,0.238,3.166,0.973,3.527,1.08
		c0.826-0.934,7.487-8.469,7.471-8.457c5.525-7.17,16.257-21.588,24.297-33.113c-6.938,6.276-14.805,13.693-20.771,19.307
		L338.504,185.513z"/>
	<path fill="#909191" d="M204.709,217.966c0.007,0.434,0.029,3.459,0.029,4.053c0.747,0,89.663,0.068,90.401,0.071
		c0.004-0.594,0.032-3.624,0.038-4.054c-10.94-4.148-25.93-8.872-45.22-8.881C230.662,209.14,215.664,213.831,204.709,217.966z
		 M286.377,219.371l-72.872-0.06l5.656-4.074l61.571,0.053L286.377,219.371z"/>
	<polygon fill="#071921" points="213.505,219.308 286.377,219.371 280.734,215.284 219.161,215.233 	"/>
	<polygon fill="#071921" points="213.505,219.308 286.377,219.371 280.734,215.284 219.161,215.233 	"/>
	<path fill="#071921" d="M336.021,334.962c-10.087-7.59-20.607-13.793-31.264-18.441c0,0-2.1-0.912-2.738-1.199
		c0.092-0.492,0.582-2.943,0.582-2.943c1.822-9.018,3.254-19.559,4.262-31.331c0,0,0.434-5.048,0.589-6.876
		c0.907,0.716,22.37,17.643,22.754,17.941c-0.044,0.346-0.241,2.062-0.241,2.062l-0.982,7.426l0.227,0.129l8.43,4.858l0.104-0.524
		l0.078-0.405c2.011-13.066-0.961-16.241-3.574-19.05l-0.996-1.104l-3.553-3.847l-12.284-13.257
		c-9.611-10.644-9.362-26.088-9.226-35.315l0.021-0.914c0.004-0.117,0.254-5.774,0.254-5.774l0.182-3.97l-6.026-2.27
		c0,0-0.013,7.479-0.015,8.168c-0.74,0-104.583-0.093-105.332-0.093c0-0.683,0.006-8.133,0.006-8.133l-6.333,2.362l-0.015,0.263
		l-0.042,3.69c-0.063,4.035-0.101,7.957-0.101,11.782c0,8.462,0.163,16.468,0.492,24.244c0,0,0.06,1.668,0.083,2.006
		c-0.277,0.195-10.996,7.925-10.996,7.925s11.522,6.532,11.924,6.758c0.029,0.32,0.171,1.953,0.171,1.953
		c0.956,11.231,2.404,21.771,4.311,31.326c0,0,0.447,2.243,0.583,2.944c-0.458,0.196-2.735,1.188-2.735,1.188
		c-4.853,2.123-9.806,4.66-15.153,7.781c0,0-3.271,1.896-4.459,2.589c-0.179-0.839-1.054-5.046-1.054-5.046
		c-1.79-8.612-3.241-18.49-4.309-29.365l-0.019-0.183l-10.018-5.914l0.054,0.72c0.518,6.757,1.162,12.64,1.909,17.481
		c1.307,8.43,3.073,16.796,5.242,24.865c0,0,0.548,2.049,0.662,2.469c-0.35,0.252-2.061,1.505-2.061,1.505l-1.9,1.411l0.31,0.665
		c9.401-2.213,20.232-6.587,26.655-9.665c26.998-14.82,50.528-16.406,59.394-16.399c8.865,0.004,32.396,1.629,59.338,16.488
		c6.387,3.072,17.138,7.442,26.494,9.687L336.021,334.962z M216.644,309.142c-3.522,0.873-6.965,1.863-10.219,2.944
		c0,0-3.408,1.144-4.093,1.363c-0.123-0.704-0.741-4.255-0.741-4.255c-3.802-21.91-4.757-46.194-4.757-64.924
		c0-2.896,0.027-5.66,0.06-8.268c0,0,0.042-2.688,0.063-3.669c0.608,0,17.691,0.019,18.698,0.019
		c-0.008,0.631-0.063,3.779-0.063,3.779c-0.056,3.316-0.083,6.592-0.083,9.812c0,22.162,1.315,41.992,3.926,59.027
		c0,0,0.425,2.795,0.514,3.354C219.39,308.464,216.644,309.142,216.644,309.142z M260.109,301.879c0,0-0.248,2.958-0.295,3.558
		c-0.604-0.023-3.568-0.158-3.568-0.158l-6.415-0.129l-0.743-0.027c-0.04,0-0.422-0.014-0.422-0.014c-0.006,0-2.796,0-3.758,0.008
		c0-0.619,0.119-37.217,0.119-37.217l-6.916-4.555l0.002,0.701c0.142,15.021,0.575,27.389,1.299,37.814c0,0,0.191,2.771,0.25,3.633
		c-0.605,0.054-3.622,0.328-3.622,0.328l-7.985,1.006c0,0-3.168,0.482-3.81,0.578c-0.073-0.639-0.441-3.818-0.441-3.818
		c-1.872-16.156-2.823-34.635-2.823-55.072c0-4.092,0.039-8.262,0.112-12.504c0,0,0.052-2.787,0.062-3.652
		c0.617,0,13.419,0.009,13.419,0.009s3.198,0.015,3.793,0.017c-0.012,0.635-0.152,7.153-0.152,7.153l6.782,4.746
		c0,0-0.028-11.277-0.031-11.901c0.63,0.004,16.115,0.02,17.091,0.02c0.004,0.617,0.049,3.668,0.049,3.668
		c0.047,3.412,0.072,7.17,0.072,11.222C262.186,262.765,261.746,282.382,260.109,301.879z M297.471,313.47
		c-0.684-0.229-4.062-1.367-4.062-1.367c-8.135-2.725-16.497-4.629-25.576-5.789c0,0-2.998-0.391-3.605-0.465
		c0.064-0.604,0.385-3.615,0.385-3.615c2.093-19.582,3.248-41.832,3.443-66.14c0,0,0.021-3.079,0.023-3.694
		c0.621,0,34.988,0.047,35.605,0.047c0,0.621,0.01,4.188,0.01,4.43c0,5.686-0.115,11.768-0.365,19.059c0,0-0.168,5.067-0.204,6.098
		c-0.896-0.502-12.601-7.055-12.601-7.055c-1.062-0.596-1.605-0.898-1.938-1.064c0-0.346,0.057-3.169,0.057-3.169l0.022-1.849
		l-4.092-0.002l-0.013,0.363c-0.414,16.618-1.188,30.489-2.389,42.413l-0.04,0.343l3.345,0.631l0.047-0.396l1.386-12.793
		l-0.367-0.046c-0.726-0.095-1.149-0.147-1.459-0.181c0.039-0.572,0.396-5.418,0.396-5.418s0.455-6.82,0.526-7.838
		c0.625,0.061,3.369,0.305,3.369,0.305c0.004,0,10.021,0.936,10.021,0.936s2.701,0.297,3.537,0.389
		c-0.035,0.597-0.229,3.558-0.229,3.558c-0.922,14.256-2.412,27.077-4.443,38.097C298.244,309.253,297.598,312.765,297.471,313.47z"
		/>
	<path fill="#734F9D" d="M330.411,332.679c-7.669-2.336-15.515-5.602-20.58-8.035c-27.185-14.994-51.003-16.627-59.967-16.632
		c-9.02,0-32.835,1.618-60.09,16.581c-5.081,2.436-13.05,5.729-20.809,8.047l0.158-0.111l-0.922-3.435
		c-2.159-8.033-3.91-16.349-5.202-24.704c-0.67-4.348-1.254-9.488-1.734-15.316l6.988,4.125c1.087,10.809,2.515,20.494,4.284,28.974
		l1.459,7.007l6.191-3.591c5.277-3.077,10.186-5.591,15.007-7.7l3.808-1.648l-0.812-4.094c-1.89-9.479-3.339-19.968-4.289-31.164
		l-0.229-2.715l-10.627-6.023c3.079-2.215,9.801-7.059,9.801-7.059l-0.12-2.787c-0.325-7.75-0.49-15.654-0.49-24.189
		c0-3.814,0.027-7.736,0.098-11.762l0.035-2.963l3.45-1.297l-0.006,7.496l108.225,0.088l0.019-7.521l3.089,1.16
		c0,0-0.391,8.607-0.396,8.725l-0.016,0.926c-0.15,9.457-0.396,25.254,9.596,36.314l12.293,13.266l3.557,3.85l0.994,1.092
		c2.443,2.627,4.951,5.324,3.377,16.713l-6.01-3.461l0.855-6.461l0.326-2.887l-25.494-20.107l-0.811,9.555
		c-1.003,11.713-2.428,22.197-4.237,31.172l-0.812,4.084l3.812,1.672C313.08,321.732,321.88,326.708,330.411,332.679z
		 M266.596,236.083c-0.188,24.254-1.348,46.456-3.432,65.998l-0.547,5.021l5.018,0.646c8.969,1.146,17.242,3.021,25.299,5.725
		l5.664,1.897l1.062-5.854c2.031-11.041,3.537-23.918,4.465-38.271l0.311-4.936l-4.91-0.533c-10.104-0.949-14.057-1.31-14.057-1.31
		c0.195-4.479,0.355-9.183,0.49-14.131l1.217,0.002c0,0-0.062,3.22-0.062,3.567v0.892l0.79,0.401
		c0.32,0.162,0.852,0.455,1.881,1.031c0.004,0.006,14.67,8.201,14.67,8.201l0.295-8.461c0.247-7.31,0.364-13.378,0.364-19.101
		l-0.011-5.886l-38.498-0.045L266.596,236.083z M195.446,235.983c-0.034,2.604-0.062,5.379-0.062,8.283
		c0,17.189,0.829,42.445,4.771,65.176l1.033,5.91l5.689-1.893c3.219-1.068,6.622-2.051,10.111-2.914l4.583-1.137l-0.722-4.659
		c-2.592-16.94-3.903-36.724-3.903-58.812c0-3.209,0.027-6.474,0.083-9.785l0.083-5.252l-21.581-0.018L195.446,235.983z
		 M219.644,235.983c-0.073,4.252-0.113,8.43-0.113,12.531c0,20.479,0.954,39.064,2.835,55.234l0.61,5.311l5.292-0.803l7.952-1.001
		l4.98-0.444l-0.34-5.055c-0.697-10.012-1.116-21.713-1.273-35.711l3.994,2.629c-0.021,5.312-0.128,37.896-0.128,37.896l5.216-0.018
		l1.109,0.042l6.443,0.13l4.928,0.215l0.406-4.939c1.383-16.43,2.078-34.839,2.078-54.727c0-4.062-0.029-7.821-0.07-11.246
		l-0.062-5.086c0,0-17.882-0.021-18.513-0.024l-1.468-0.017l0.029,10.574l-3.862-2.701l0.175-7.851l-5.269-0.022l-14.845-0.004
		L219.644,235.983z M283.701,290.835c0.311-3.248,0.6-6.643,0.859-10.198c0,0,0.607,0.058,0.748,0.075l-1.109,10.209
		L283.701,290.835z"/>
	<path fill="#071921" d="M262.061,232.392c-0.979,0-16.462-0.012-17.086-0.018c0.002,0.63,0.031,11.896,0.031,11.896l-6.782-4.742
		c0,0,0.135-6.514,0.151-7.152c-0.597-0.002-3.799-0.018-3.799-0.018s-12.802-0.006-13.412-0.006
		c-0.017,0.861-0.063,3.65-0.063,3.65c-0.068,4.248-0.112,8.412-0.112,12.506c0,20.438,0.945,38.912,2.829,55.068
		c0,0,0.366,3.188,0.436,3.812c0.645-0.09,3.803-0.57,3.803-0.57l7.989-1.008c0,0,3.017-0.281,3.623-0.334
		c-0.062-0.859-0.248-3.633-0.248-3.633c-0.725-10.424-1.155-22.787-1.299-37.816l-0.004-0.699l6.921,4.557
		c0,0-0.125,36.6-0.125,37.223c0.968-0.006,3.758-0.013,3.764-0.013c0,0,0.379,0.019,0.423,0.019l0.741,0.031l6.414,0.127
		c0,0,2.97,0.133,3.568,0.164c0.047-0.602,0.297-3.564,0.297-3.564c1.635-19.497,2.069-39.111,2.069-54.602
		c0-4.052-0.027-7.811-0.068-11.229C262.105,236.054,262.064,233.004,262.061,232.392z"/>
	<path fill="#071921" d="M215.505,245.946c0-3.221,0.027-6.496,0.082-9.815c0,0,0.056-3.149,0.063-3.78
		c-1.008,0-18.087-0.017-18.699-0.017c-0.019,0.978-0.062,3.666-0.062,3.666c-0.033,2.603-0.058,5.375-0.058,8.271
		c0,18.729,0.947,43.016,4.757,64.924c0,0,0.616,3.549,0.741,4.257c0.685-0.224,4.09-1.363,4.09-1.363
		c3.26-1.081,6.702-2.071,10.221-2.944c0,0,2.742-0.678,3.293-0.813c-0.083-0.558-0.514-3.354-0.514-3.354
		C216.821,287.938,215.505,268.108,215.505,245.946z"/>
	<path fill="#071921" d="M302.92,267.601c-0.838-0.09-3.543-0.387-3.543-0.387s-10.018-0.938-10.023-0.938
		c0,0-2.735-0.246-3.359-0.301c-0.068,1.021-0.531,7.828-0.531,7.838c0,0-0.359,4.844-0.396,5.414
		c0.314,0.027,0.738,0.082,1.465,0.181l0.363,0.044l-1.389,12.793l-0.052,0.395l-3.339-0.625l0.041-0.347
		c1.193-11.918,1.975-25.788,2.382-42.411l0.011-0.365l4.1,0.002l-0.027,1.849c0,0-0.053,2.827-0.053,3.175
		c0.326,0.169,0.875,0.465,1.939,1.062c0,0,11.699,6.547,12.598,7.045c0.035-1.021,0.205-6.094,0.205-6.094
		c0.25-7.293,0.365-13.367,0.365-19.051c0-0.242-0.011-3.811-0.011-4.436c-0.615,0-34.989-0.041-35.606-0.041
		c-0.004,0.617-0.021,3.693-0.021,3.693c-0.189,24.305-1.354,46.561-3.439,66.137c0,0-0.314,3.016-0.391,3.613
		c0.607,0.079,3.605,0.467,3.605,0.467c9.078,1.162,17.443,3.066,25.576,5.789c0,0,3.381,1.141,4.064,1.369
		c0.123-0.703,0.773-4.217,0.773-4.217c2.031-11.023,3.521-23.842,4.443-38.099C302.689,271.151,302.881,268.198,302.92,267.601z"/>
	<polygon fill="#734F9D" points="163.003,391.499 162.637,384.872 162.593,384.354 153.373,394.847 153.405,395.374 
		154.014,406.322 154.062,406.843 163.285,396.411 163.251,395.876 	"/>
	<polygon fill="#734F9D" points="176.477,369.114 176.42,368.616 167.207,379.102 167.246,379.628 167.863,390.661 167.901,391.185 
		177.126,380.753 177.092,380.205 	"/>
	<path fill="#734F9D" d="M182.757,361.507l-0.119,0.029l-1.574,1.79l0.043,0.524l0.271,4.521l0.393,6.556l0.023,0.548l7.032-7.945
		l0.015-0.113c0.062-0.373,0.083-0.741,0.083-1.104c0-1.551-0.556-2.896-1.611-3.812
		C186.136,361.474,184.519,361.124,182.757,361.507z"/>
	<path fill="#909191" d="M231.691,315.811c-5.335,0.905-10.717,2.114-15.969,3.724c-7.667,5.192-14.362,8.489-15.63,9.089
		c-5.891,2.839-16.756,8.031-27.346,10.142c1.064,0.939,38.398,34.107,39.456,35.047c0.425-5.328,1.626-11.359,3.683-18.417
		c-0.858-3.081-1.301-6.264-1.301-9.438v-0.048C214.594,333.481,221.132,322.174,231.691,315.811z"/>
	<path fill="#909191" d="M283.462,319.639c-5.021-1.562-10.121-2.746-15.171-3.651c10.385,6.41,16.797,17.657,16.797,29.945
		c0,0,0,0.019,0,0.029c-0.004,3.594-0.561,7.15-1.63,10.565c1.833,6.507,2.944,12.332,3.333,17.343
		c1.064-0.938,38.453-34.041,39.518-34.973c-10.574-2.141-21.427-7.352-27.328-10.199
		C297.701,328.097,290.973,324.774,283.462,319.639z"/>
	<path fill="#734F9D" d="M316.887,361.622c-1.756-0.395-3.379-0.055-4.557,0.971c-1.296,1.125-1.854,2.915-1.531,4.92l0.02,0.105
		l6.984,7.924l0.055-0.521l0.143-2.179l0.543-8.874l0.043-0.541c-0.996-1.142-1.568-1.783-1.568-1.783L316.887,361.622z"/>
	<path fill="#734F9D" d="M351.441,400.964l-0.709,11.458l-0.018,0.483l1.271,1.44c1.528,1.74,4.187,1.898,5.931,0.366
		c0.834-0.745,1.348-1.761,1.408-2.885c0.01-0.09,0.01-0.184,0.01-0.27c0-1.023-0.369-2.002-1.051-2.778
		C358.283,408.783,355.516,405.623,351.441,400.964z"/>
	<path fill="#909191" d="M148.996,399.829c1.347-1.537,2.829-3.229,4.382-5.012l0.115,1.987l0.512,8.975l0.04,0.589l0.022,0.475
		l-4.344,4.93l-0.665,0.76l-0.017-0.477l-0.04-0.596l-0.668-10.87C148.55,400.335,148.762,400.099,148.996,399.829z"/>
	<path fill="#734F9D" d="M148.327,400.596l0.708,11.46l0.016,0.48l-1.269,1.441c-1.533,1.738-4.189,1.898-5.929,0.368
		c-0.837-0.747-1.347-1.763-1.412-2.888c-0.008-0.09-0.008-0.182-0.008-0.27c0-1.025,0.368-2,1.051-2.777
		C141.48,408.413,144.247,405.253,148.327,400.596z"/>
	<path fill="#734F9D" d="M322.521,380.336l-0.041,0.528l9.225,10.467l0.031-0.531l0.313-5.518l0.313-5.517l0.014-0.562
		c-3.406-3.885-6.598-7.537-9.188-10.486l-0.033,0.531L322.521,380.336z"/>
	<path fill="#734F9D" d="M336.562,392.129l-0.229,3.896l-0.027,0.547l9.227,10.463l0.021-0.549l0.491-8.598l0.132-2.346l0.021-0.549
		c-2.885-3.307-6.049-6.906-9.188-10.489l-0.04,0.522L336.562,392.129z"/>
	<path fill="#FFFFFF" d="M288.682,275.942l2.236,0.256c-0.537,6.271-1.266,13.275-2.283,20.924
		c-3.672-0.836-7.203-1.508-10.578-1.994c2.084-18.58,2.621-38.417,2.873-49.956l11.487,0.009c-0.009,1.955-0.052,4.448-0.083,6.555
		l7.271,4.07c0.26-7.584,0.377-13.796,0.36-19.644l-28.212-0.04c-0.109,15.732-0.727,40.979-3.447,66.506
		c7.853,1.016,16.713,2.742,26.283,5.961c2.282-12.377,3.604-25.461,4.395-37.663c-3.396-0.372-6.664-0.694-9.879-0.927
		C288.986,271.916,288.82,273.972,288.682,275.942z"/>
	<path fill="#FFFFFF" d="M363.507,263.106c0.394-13.979,0.345-27.233,0.237-36.609l-32.701,0.039
		c-1.717,0.804-3.421,0.951-4.734,0.945c-1.639,0-3.708-0.348-6.09-0.937l-8.047,0.015l-0.248,5.653
		c-0.143,9.062-0.685,23.808,8.25,33.698c6.843,7.594,10.066,10.941,12.201,13.168c1.473,1.527,2.448,2.547,3.695,4.013
		c0.271,0.312,0.564,0.636,0.889,0.972c2.918,3.131,6.819,7.313,4.525,22.164c-0.201,1.354-1.147,4.766-1.463,6.312
		c-2.838-2.094-11.973-7.246-15.102-8.916c0.494-3.32,0.955-6.604,1.338-9.889l-15.696-12.373
		c-0.921,10.783-2.285,21.664-4.315,31.754c13.904,6.062,28.971,15.266,44.3,28.972l0.409-0.856c2.1-5.24,4.215-11.91,7.764-28.459
		c4.76-22.215-2.367-29.775-6.628-34.299c-0.587-0.617-1.136-1.201-1.618-1.771c-2.047-2.443-4.188-4.84-6.664-7.615l-7.944-9.005
		c-6.975-8.062-7.175-12.438-6.917-19.479l0.055-1.526l17.111-0.019c0.047,3.31,0.062,7.146,0.045,11.289L363.507,263.106z"/>
	<path fill="#FFFFFF" d="M248.693,236.101c0.016,4.984,0.031,10.102,0.043,15.334l-14.281-9.994
		c0.034-1.812,0.072-3.598,0.118-5.354l-9.759-0.016c-0.275,15.521-0.248,41.855,2.681,67.084c2.844-0.434,5.617-0.797,8.208-1.031
		c-1.066-15.305-1.291-31.734-1.357-45.711l14.405,9.479c0,11.098-0.025,23.858-0.114,35.493c0.389,0,0.812,0.048,1.197,0.048
		c2.035,0,4.227,0.03,6.568,0.139c2.115-25.182,2.203-50,1.992-65.463L248.693,236.101z"/>
	<path fill="#FFFFFF" d="M211.868,236.065l-11.25-0.014c-0.272,18.096,0.146,46.668,4.634,72.498
		c3.589-1.191,7.128-2.191,10.505-3.021C211.829,279.88,211.585,253.095,211.868,236.065z"/>
	<path fill="#FFFFFF" d="M177.59,321.114c5.317-3.094,10.475-5.762,15.536-7.971c-2.014-10.107-3.453-20.998-4.377-31.736
		l-15.257-8.647l14.066-10.153c-0.572-13.508-0.566-25.969-0.399-36.256l-7.024-0.033c-2.588,0.66-4.827,1.039-6.578,1.039
		c-0.66,0-1.416-0.049-2.22-0.181c-0.185,8.37-0.303,19.36,0.015,31.788l-16.358,11.9c-0.667-16.78-0.587-33.508-0.438-44.541
		l-18.43-0.021c-0.252,18.645-0.298,55.471,3.331,78.854c2.159,13.941,5.284,26.23,9.239,37.141
		c4.895-4.389,9.708-8.364,14.516-11.865c-2.125-7.896-3.951-16.38-5.325-25.258c-1.155-7.477-1.936-16.393-2.46-25.561
		l17.699,10.449C174.116,300.636,175.542,311.253,177.59,321.114z"/>
	<path fill="#FFFFFF" d="M201.41,208.296l-3.096-1.395l-5.188-4.183l1.595-2.833c-1.992,0.799-6.762,2.43-9.649,3.471l2.943,1.188
		l-1.197,6.723l-1.391,3.022c1.93-0.718,5.332-1.994,6.819-2.476l-3.035-1.379l0.111-0.621l5.057-1.748l0.5,0.404l-1.143,2.717
		C195.125,210.696,199.158,209.091,201.41,208.296z M189.668,207.905l0.531-3.231l2.585,2.114L189.668,207.905z"/>
	<path fill="#FFFFFF" d="M207.646,203.962c-2.254,0.656-4.996,0.204-5.545-1.67c-0.545-1.873,1.528-3.718,3.787-4.375
		c2.173-0.634,3.599-0.609,6.06,0.477l-1.129-3.865l-1.068,1.302c-1.442-0.283-3.435-0.175-5.304,0.375
		c-4.428,1.276-7.134,4.366-6.293,7.255c0.849,2.914,4.761,3.975,9.195,2.689c2.731-0.791,4.859-2.404,5.75-3.801l-0.535-1.85
		C211.188,202.94,209.125,203.53,207.646,203.962z"/>
	<path fill="#FFFFFF" d="M240.532,191.321l2.184-2.201c-2.684,0.145-6.468,0.428-10.067,0.807l2.524,1.816l-2.856,6.027
		l-1.728,2.063l-2.417-1.272c-0.402-0.468-0.714-0.895-1.064-1.31c-0.554-0.603-1.31-0.701-1.913-0.562l-0.006-0.037
		c1.851-0.66,2.96-1.82,2.729-3.24c-0.308-1.865-2.931-2.487-6.629-1.688c-2.882,0.616-6.12,1.604-9.243,2.346l2.748,1.474
		l1.232,5.779l-1.884,2.55l8.45-2.119l-2.738-1.527l-0.404-1.867l2.338-0.531c0.627-0.146,0.887,0.062,1.258,0.57
		c0.713,1.053,1.47,2.193,2.377,2.791l5.968-0.922l-0.038-0.021c2.103-0.299,4.763-0.569,6.036-0.644l-2.575-1.998l0.266-0.549
		l5.282-0.373l0.388,0.516l-1.832,2.265c1.495-0.062,4.994-0.396,8.235-0.399l-2.716-2.236L240.532,191.321z M221.959,196.013
		l-2.869,0.665l-0.543-2.476l2.983-0.699c1.041-0.229,1.854,0.082,1.99,0.997C223.626,195.162,223,195.786,221.959,196.013z
		 M235.892,195.298l1.349-2.869l1.921,2.604L235.892,195.298z"/>
	<path fill="#FFFFFF" d="M265.195,191.938l2.503-1.887c-1.929-0.261-6.071-0.652-7.915-0.785l-2.518,4.805l-2.094-4.978
		c-1.729-0.062-5.559-0.118-7.607-0.083l2.226,2.066l-0.212,5.895l-2.432,2.09c1.89-0.053,5.473-0.035,6.835,0.012l-2.224-2.088
		l0.214-5.883l3.286,8.064l1.923,0.062l4.084-7.623l-0.557,5.748l-2.273,1.904c1.828,0.084,5.926,0.488,8.41,0.771l-2.214-2.396
		L265.195,191.938z"/>
	<path fill="#FFFFFF" d="M273.959,199.261l0.426-2.436l3.039,0.566l1.545,1.355l0.732-3.782l-1.943,0.703l-3.082-0.544l0.363-2.172
		l5.338,0.994l2.764,2.594l0.744-3.562c-5.818-1.313-11.508-2.328-14.76-2.763l1.984,2.44l-1.035,5.74l-2.723,1.703
		c4.225,0.614,10.529,1.866,14.381,2.768l0.904-4.043l-3.467,1.4L273.959,199.261z"/>
	<polygon fill="#FFFFFF" points="295.512,196.403 297.193,199.146 295.957,203.364 292.053,195.28 285.454,193.407 287.402,196.019 
		285.932,201.874 283.135,203.208 289.852,205.204 288.066,202.45 289.139,198.12 292.771,206.226 296.922,207.69 299.294,199.825 
		302.072,198.722 	"/>
	<path fill="#FFFFFF" d="M302.545,198.96l-1.373,4.043l3.902-1.275l1.815,0.699l-2.184,6.209l-2.901,1.055l8.268,3.104l-1.588-2.771
		l2.18-6.168l1.822,0.686l2.242,3.6l1.371-4.035C312.486,202.688,304.875,199.813,302.545,198.96z"/>
	<path fill="#FFFFFF" d="M323.881,206.468c-4.238-1.277-7.893-0.062-8.868,2.928c-0.97,2.965,1.29,5.998,5.536,7.279
		c4.209,1.27,7.869,0.025,8.837-2.936C330.359,210.746,328.092,207.745,323.881,206.468z M325.516,212.569
		c-0.594,1.83-2.392,2.672-4.363,2.076c-1.975-0.602-2.869-2.252-2.271-4.08c0.594-1.828,2.326-2.717,4.295-2.121
		C325.148,209.035,326.117,210.744,325.516,212.569z"/>
	<path fill="#734F9D" d="M353.604,360.856c-5.963-7.039-12.444-13.539-19.31-19.345l3.741-3.181c3.081,2.424,6.14,4.98,9.074,7.604
		l5.168,4.609l3.381-7.174l0.105-0.264c2.227-5.548,4.446-12.674,8.004-29.261c1.111-5.196,1.681-10.032,1.681-14.37
		c0-14.377-6.009-20.75-9.601-24.559l-1.458-1.6c-4.614-5.277-6.249-7.148-7.013-7.809l0.289,0.123
		c-5.553-6.297-7.424-8.408-8.244-9.117l0.31,0.143c-4.617-5.348-5.604-8.381-5.688-12.428l6.938-0.014l-0.008,8.725l27.408,20.156
		l0.279-9.854c0.218-7.536,0.324-15.338,0.324-23.852c0-4.166-0.024-8.479-0.075-12.959l-0.058-5.111c0,0-22.781,0.022-30.228,0.031
		l3.894-3.854l30.693,0.022l0.019,0.856c0.808,39.396-0.482,71.588-3.634,90.649C366.351,328.786,360.973,346.21,353.604,360.856z"
		/>
</g>
</svg>
