<?xml version="1.0" encoding="utf-8"?>
<!-- Generator: Adobe Illustrator 16.0.0, SVG Export Plug-In . SVG Version: 6.00 Build 0)  -->
<!DOCTYPE svg PUBLIC "-//W3C//DTD SVG 1.1//EN" "http://www.w3.org/Graphics/SVG/1.1/DTD/svg11.dtd">
<svg version="1.1" id="content" xmlns="http://www.w3.org/2000/svg" xmlns:xlink="http://www.w3.org/1999/xlink" x="0px" y="0px"
	 width="500px" height="500px" viewBox="0 0 500 500" enable-background="new 0 0 500 500" xml:space="preserve">
<rect id="position" x="0.5" y="0.5" display="none" fill="none" stroke="#000000" width="499" height="499"/>
<g>
	<path fill="#12558A" d="M322.935,175.318h-30.446C286.861,189.475,275.006,204,250.026,204c-24.979,0-36.835-14.525-42.46-28.682
		h-30.447c-3.469,23.453-16.426,53.932-60.369,53.932c-0.046,0-0.088,0-0.133,0v240.83h133.41h132.466V229.25
		c-0.045,0,0.855,0,0.811,0C339.359,229.25,326.403,198.771,322.935,175.318z"/>
	<path fill="#FFFFFF" d="M285.818,175.318c-1.943,5.529-4.889,11.189-9.367,15.757c-6.456,6.585-15.348,9.925-26.425,9.925
		c-11.079,0-19.969-3.339-26.425-9.924c-4.478-4.568-7.424-10.229-9.367-15.758H203.75c2.278,7.679,6.145,16.061,12.71,22.758
		c8.407,8.576,19.7,12.924,33.565,12.924c13.866,0,25.159-4.348,33.565-12.924c6.564-6.697,10.432-15.079,12.71-22.758H285.818z"/>
	<path fill="#FFFFFF" d="M169.721,175.318c-1.221,11.453-4.711,25.422-13.775,35.72c-7.87,8.944-22.732,14.614-39.757,15.168
		l0.325,9.995c19.732-0.643,37.279-7.58,46.938-18.557c10.996-12.494,14.992-29.146,16.29-42.327L169.721,175.318L169.721,175.318z"
		/>
	<path fill="#FFFFFF" d="M344.055,211.038c-9.063-10.298-12.555-24.268-13.774-35.72h-10.021
		c1.298,13.18,5.294,29.833,16.289,42.327c9.66,10.977,27.207,17.915,46.938,18.557l0.325-9.995
		C366.787,225.652,351.925,219.982,344.055,211.038z"/>
	<path fill="#E47B3B" d="M283.663,175.318c-2.138,5.845-5.029,10.673-8.642,14.357c-6.064,6.188-14.476,9.325-24.996,9.325
		c-10.521,0-18.931-3.137-24.997-9.325c-3.611-3.684-6.502-8.512-8.64-14.357h-7.412c2.125,6.622,5.545,13.639,11.053,19.258
		c7.431,7.581,17.523,11.424,29.995,11.424c12.472,0,22.563-3.844,29.995-11.424c5.508-5.619,8.929-12.636,11.054-19.258H283.663z"
		/>
	<path fill="#E47B3B" d="M345.556,209.717c-8.681-9.864-12.07-23.299-13.273-34.399h-7.021c1.258,12.325,5.006,27.621,15.041,39.023
		c9.359,10.636,26.136,16.302,43.349,16.863v-6.829c-2.049-0.142-7-0.729-7-0.729C363.266,221.982,351.945,216.979,345.556,209.717z
		"/>
	<path fill="#E47B3B" d="M167.719,175.318c-1.204,11.1-4.594,24.535-13.274,34.399c-6.39,7.262-17.709,12.266-31.093,13.93
		c0,0-4.952,0.587-7,0.729v6.829c17.213-0.561,33.988-6.227,43.348-16.863c10.035-11.402,13.783-26.698,15.041-39.023
		L167.719,175.318L167.719,175.318z"/>
	<path opacity="0.2" fill="#212121" enable-background="new    " d="M305.061,209.412c-1.539,0-2.791-1.252-2.791-2.792v-14.099
		c0-1.54,1.252-2.792,2.791-2.792h4.183c1.539,0,2.792,1.252,2.792,2.793v14.098c0,1.54-1.253,2.792-2.792,2.792H305.061z"/>
	<path fill="#FFFFFF" d="M305.188,207.513c-1.444,0-2.621-1.176-2.621-2.623v-13.239c0-1.446,1.177-2.623,2.621-2.623h3.929
		c1.444,0,2.621,1.176,2.621,2.623v13.239c0,1.446-1.177,2.623-2.621,2.623H305.188z"/>
	<path fill="#C00033" d="M307.151,206.213h1.964c0.729,0,1.32-0.592,1.32-1.323v-13.239c0-0.73-0.592-1.323-1.32-1.323h-1.964"/>
	<path fill="#006CB3" d="M309.332,206.213c0,0-0.036-0.939-0.431-3.272l-1.75-1.812v-10.8h-1.964c-0.729,0-1.321,0.592-1.321,1.323
		v13.239c0,0.731,0.592,1.323,1.321,1.323h1.964L309.332,206.213L309.332,206.213z"/>
	<path opacity="0.2" fill="#212121" enable-background="new    " d="M309.679,198.18c-0.05-0.058,0.049-0.09-0.289-0.167
		c-0.062-0.035-0.111-0.529-0.111-0.529c-0.051-0.317-0.163-0.536-0.332-0.872c-0.085-0.173-0.125-0.71-0.216-0.984
		c0.051-1.255-0.352-1.62-0.677-1.824c-0.123-0.079-0.185-0.137-0.307-0.208l-0.004-0.058c-0.095-0.09-0.286-0.187-0.443-0.257
		c-0.049-0.049-0.024-0.156,0.008-0.196c0.106-0.016,0.248-0.254,0.365-0.5c0.092,0.005,0.122-0.084,0.151-0.135
		c0.099-0.157,0.204-0.294,0.066-0.384c0.31-0.552,0.111-0.924-0.057-0.938c-0.067-0.139-0.185-0.225-0.392-0.298l-0.424-0.001
		c-0.438,0.168-0.501,0.36-0.518,0.969c-0.074,0.008-0.231-0.062-0.178,0.309c0,0,0.028,0.247,0.128,0.204
		c-0.096,0.652,0.017,0.703-0.661,0.732l-0.032,0.048c-0.675,0.065-0.888-0.02-1.456,1.138c0,0-0.147,0.358-0.19,0.507
		c-0.059,0.122-0.15,0.309-0.246,0.51v1.598c0.084,0.004,0.186,0.005,0.332,0.001v0.174c0,0-0.204,0.175-0.245,0.282
		c-0.021,0.048-0.056,0.188-0.087,0.344v0.883c0.142,0.506,0.504,0.968,0.634,1.498l0.351,0.049c0.2,0.45,1.062,1.672,1.237,1.833
		c0.041,0.113,0.26,0.253,0.388,0.393c0.105,0.1,0.729,0.782,1.459,1.201c-0.004,0,0.118,0.244,0.179,0.44
		c-0.243,0.195,0.225,0.552,0.368,1.142c0.01,0.077-0.136,0.159,0.08,0.352c-0.005,0.309-0.041,0.563-0.065,0.779h0.62h0.117
		c-0.046-0.228-0.139-0.452-0.188-0.624c-0.008-0.022,0.01-0.052,0.021-0.071c0.029-0.056-0.033-0.182-0.033-0.182
		c-0.069-0.063-0.09-0.398-0.129-0.548c-0.062-0.254,0.11-0.689,0.11-0.838c0-0.146-0.11-0.349-0.315-0.609
		c-0.049-0.056-0.195-1.323-0.327-1.644c-0.186-0.442-0.242-0.373-0.455-0.898c-0.171-0.373-0.039-0.92-0.419-2.192
		c0.004,0.005,0.086-0.08,0.086-0.08s-0.302-1.102-0.4-1.404c-0.1-0.301-0.271-0.323-0.271-0.323s0.001-0.123,0.008-0.155
		c0.015-0.049,0.368-0.969,0.397-0.998c0-0.022,0.51-0.366,0.52-0.317c0.042,0.226,0.24,1.37,0.323,1.553
		c0.087,0.185,0.38,0.746,0.519,1.094c-0.528,0.127-0.92,0.603-0.92,1.17c0,0.663,0.537,1.202,1.204,1.202
		c0.507,0,0.943-0.314,1.118-0.758l0.001-0.884c-0.038-0.097-0.089-0.192-0.155-0.282
		C309.926,198.244,309.731,198.248,309.679,198.18z"/>
	<path fill="#FFFFFF" d="M309.186,206.296c-0.237-0.14-0.225-0.344-0.167-0.816c0.024-0.201,0.054-0.436,0.059-0.71
		c-0.143-0.164-0.124-0.205-0.104-0.257l0.009-0.02l0.014-0.086c-0.065-0.271-0.19-0.488-0.29-0.662
		c-0.141-0.246-0.188-0.345-0.108-0.408c-0.019-0.233-0.098-0.407-0.135-0.489c-0.677-0.44-1.222-0.994-1.427-1.202
		c-0.117-0.122-0.183-0.178-0.244-0.231c-0.082-0.071-0.175-0.151-0.193-0.201c-0.18-0.177-1.042-1.395-1.239-1.839l-0.412-0.096
		c-0.004-0.226-0.143-0.491-0.276-0.748c-0.18-0.342-0.35-0.666-0.356-1.021c-0.006-0.228,0.107-0.748,0.149-0.847
		c0.023-0.062,0.146-0.185,0.224-0.251l0.028-0.235v-0.083l-0.286,0.006c-0.314,0-0.318-0.02-0.339-0.118
		c-0.01-0.048-0.022-0.114-0.058-0.191c-0.059-0.128-0.044-0.167-0.018-0.246c0.111-0.441,0.36-0.945,0.524-1.278l0.081-0.165
		c0.047-0.158,0.191-0.511,0.191-0.511c0.498-1.015,0.696-1.031,1.228-1.075l0.2-0.018l0.054-0.079c0.032,0,0.062,0,0.091,0
		c0.461,0,0.502-0.079,0.553-0.516l0.052-0.391l-0.131,0.057c0.012-0.011-0.011-0.081-0.019-0.141
		c-0.023-0.172,0.004-0.21,0.007-0.214l0.17-0.013l0.002-0.07c0.018-0.617,0.088-0.751,0.467-0.896l0.395,0.006
		c0.163,0.062,0.264,0.137,0.319,0.253c0.089,0.046,0.129,0.071,0.162,0.134c0.071,0.135,0.083,0.398-0.104,0.73l-0.037,0.065
		l0.062,0.041c0.047,0.031,0.044,0.063-0.065,0.234l-0.102,0.139c-0.288,0.481-0.384,0.5-0.385,0.5
		c-0.106,0.096-0.137,0.248-0.054,0.331c0.228,0.107,0.376,0.193,0.445,0.259c0.086,0.107,0.134,0.143,0.185,0.179l0.139,0.095
		c0.343,0.215,0.686,0.592,0.639,1.753c0.046,0.155,0.076,0.338,0.106,0.515c0.035,0.218,0.066,0.406,0.116,0.507
		c0.175,0.344,0.278,0.553,0.325,0.849c0.053,0.532,0.12,0.569,0.152,0.587c0.198,0.048,0.229,0.072,0.232,0.076
		c0.062,0.108,0.105,0.128,0.149,0.147c0.08,0.036,0.112,0.056,0.112,0.119c0.075,0.127,0.124,0.216,0.161,0.311l-0.008,0.855
		c-0.16,0.394-0.579,0.678-1.037,0.678c-0.62,0-1.124-0.503-1.124-1.122c0-0.522,0.353-0.971,0.857-1.093l0.09-0.021l-0.033-0.086
		c-0.102-0.253-0.283-0.619-0.409-0.873l-0.111-0.226c-0.067-0.148-0.229-1.054-0.292-1.395l-0.037-0.205l-0.074-0.005
		c-0.023,0-0.068,0-0.324,0.167c-0.268,0.174-0.268,0.195-0.268,0.236l0,0c-0.031,0-0.392,0.966-0.395,0.975
		c-0.01,0.042-0.012,0.177-0.012,0.177l-0.001,0.072l0.071,0.008c0.003,0,0.126,0.026,0.206,0.268c0.099,0.301,0.399,1.4,0.399,1.4
		h-0.107l0.022,0.082c0.218,0.729,0.266,1.217,0.3,1.573c0.025,0.267,0.045,0.46,0.123,0.629c0.112,0.282,0.185,0.396,0.254,0.507
		c0.058,0.094,0.115,0.187,0.199,0.389c0.073,0.18,0.157,0.705,0.22,1.088c0.075,0.472,0.091,0.542,0.121,0.578
		c0.196,0.249,0.297,0.437,0.297,0.557c0,0.042-0.021,0.13-0.044,0.223c-0.049,0.201-0.11,0.45-0.065,0.634
		c0.015,0.05,0.024,0.12,0.035,0.193c0.032,0.208,0.056,0.338,0.118,0.395c0.003,0.018,0.019,0.072,0.015,0.089l-0.017,0.031
		l-0.007,0.1c0.017,0.058,0.04,0.127,0.064,0.201c0.134,0.385,0.297,0.862-0.13,1.132L309.186,206.296z"/>
</g>
<g>
	<path fill="#FFFFFF" d="M250.793,337.156l-8.199-10.65c-10.433-3.441-17.694-12.871-18.366-23.839l-5.087-6.604
		c-4.837,2.085-9.681,5.388-9.681,5.388l-15.256-15.313l6.43-14.096l-11.499-14.934h18.294l3.541-7.713l9.058-3.654l1.005-2.732
		l7.341,3.353l1.746-6.101l1.198-0.398c5.808-1.934,12.499-2.977,19.347-3.015c0.198-0.013,2.374,0.026,2.427,0.026
		c0.255,0,1.323,0.059,1.323,0.059c5.795,0.278,11.24,1.242,16.183,2.867l1.215,0.399l1.605,5.818l2.645-1.997l14.837,5.275
		l3.581,7.815h18.385l-11.621,14.994l6.333,13.893l-15.495,15.955c0,0-5.682-4.144-9.575-5.688l-4.67,6.02
		c-0.533,11.233-8.175,21.082-18.914,24.388L250.793,337.156L250.793,337.156z"/>
	<polygon fill="none" points="303.665,261.623 198.301,261.621 250.808,329.775 	"/>
	<polygon fill="#BDBFC1" points="250.808,329.775 303.665,261.623 198.301,261.621 	"/>
	<path fill="#006CB3" d="M193.958,259.482l56.844,73.786l57.224-73.783L193.958,259.482z M303.665,261.623l-52.857,68.152
		l-52.506-68.154L303.665,261.623z"/>
	<path fill="#006CB3" d="M296.035,266.363l-0.021-0.044l-0.042-0.025l-3.381-2.272l1.26-2.408l0.037-0.073l-0.033-0.076
		l-4.654-10.201l-0.03-0.064l-0.067-0.023l-12.547-4.469l-0.087-0.031l-0.073,0.056l-3.329,2.54l-0.036,0.027l-0.017,0.042
		l-0.571,1.396c0,0-5.201-1.306-12.843-2.07c-0.776-0.077-2.857-0.249-6.176-0.51l-0.323-0.025l-0.332-0.024l-0.079-0.006
		l-0.055,0.054l-2.481,2.471l0.004-2.535c0,0-7.035,0.396-11.641,1.023c-4.606,0.626-9.136,1.768-9.136,1.768l-0.833-1.785
		l-0.027-0.057l-0.056-0.025l-5.92-2.711l-0.168-0.075l-0.062,0.172l-0.688,1.875l-0.156-0.376l-0.064-0.154l-0.156,0.062
		l-8.473,3.398l-0.063,0.025l-0.028,0.062l-15.63,34.339l12.833,12.854l0.599-0.34c0.385-0.223,0.933-0.545,1.552-0.909
		c1.552-0.915,3.679-2.166,4.695-2.656l0.206-0.099c1.315-0.638,1.975-0.957,8.213-3.627l0.521-0.194
		c0.007-0.001,0.702-0.272,1.986-0.698c3.426-1.139,12.323-3.786,20.95-3.786h0.097c0.343,0,0.687,0.006,1.032,0.015
		c5.856,0.161,12.704,1.405,17.416,2.421c4.534,0.979,7.946,1.918,8.915,2.191l0.651,0.2c4.291,1.656,9.537,4.395,14.396,7.506
		l0.616,0.398l12.991-13.378L296.035,266.363z"/>
	<path fill="#F18233" d="M294.639,267.555l-12.484-8.335l-2.171-6.095l3.865,1.374l1.563,3.811l5.877,1.885l-3.43-7.579
		l-11.091-3.938l-2.037,1.575l3.688,11.982l11.87,8.39l3.044,7.585l-4.937-2.229l-1.694-4.719l-6.058-1.784l3.238,10.667
		c0.998,0.367,1.99,0.747,2.972,1.145c2.696,1.09,5.336,2.299,7.915,3.619c1.789,0.914,3.546,1.886,5.274,2.906l2.58-2.648
		L294.639,267.555z"/>
	<path fill="#F18233" d="M210.442,273.204l4.159-3.716l0.993,1.158l-4.108,11.812c2.246-0.99,4.532-1.896,6.854-2.718l2.977-9.74
		l-2.569-4.242l5.32-5.057l3.111-10.36l-3.823-1.717l-3.433,9.766l-5.502,4.738l5.016-12.66l-5.393,2.15l-14.858,32.6l2.324,2.331
		c1.379-0.804,2.777-1.576,4.193-2.312L210.442,273.204z"/>
	<path fill="#F18233" d="M248.097,249.958l-4.558,0.239l-2.141,24.453c1.937-0.185,3.887-0.309,5.852-0.376L248.097,249.958z"/>
	<path fill="#F18233" d="M261.618,269.575l-5.292-0.315l-0.85-14.977l4.483,0.219l-0.525-4.126l-6.025-0.431l-2.7,2.693
		l-0.007,18.728l2.831,2.898c2.922,0.09,5.813,0.308,8.67,0.654L261.618,269.575z"/>
	<path fill="#F18233" d="M231.636,259.609l1.91,9.297l-1.234,7.045c1.848-0.356,3.712-0.663,5.594-0.908l0.011-0.003l2.946-24.522
		l-4.231,0.617l-1.39,8.028l-1.573-7.556l-4.974,1.246l-6.922,25.743c1.995-0.622,4.015-1.182,6.058-1.677L231.636,259.609z"/>
	<path fill="#F18233" d="M268.41,268.223l1.489-2.012l2.175,1.791l2.002,9.118c2.101,0.527,4.176,1.123,6.225,1.787l-3.733-13.374
		l-3.85-3.148l2.192-2.926l-1.823-6.786l-4.647-1.034l1.828,6.836l-2.895,3.868l-2.138-11.241l-4.306-0.546
		c0,0,2.16,16.487,3.179,24.61c1.949,0.275,3.88,0.611,5.794,1.004L268.41,268.223z"/>
	<path fill="#BDBFC1" d="M242.066,279.294c0,0,1.793-1.05,5.38-1.447l-0.115-2.825c-1.967,0.065-3.921,0.189-5.86,0.373
		C241.64,276.497,241.892,278.146,242.066,279.294z"/>
	<path fill="#BDBFC1" d="M253.466,277.676c1.458,0.171,3.018,0.646,4.389,1.034c1.24,0.299,2.575,0.83,3.668,1.315l0.602-4.349
		c-2.883-0.354-5.609-0.571-8.561-0.662C253.521,275.86,253.521,277.05,253.466,277.676z"/>
	<path fill="#BDBFC1" d="M234.591,284.569c1.669-1.241,2.673-2.52,4.431-3.59c-0.334-1.58-0.779-3.624-1.101-5.186
		c-1.913,0.252-3.807,0.566-5.685,0.932C232.956,279.065,233.872,282.205,234.591,284.569z"/>
	<path fill="#BDBFC1" d="M262.979,280.902c1.627,0.942,2.896,2.01,4.352,3.424l0.289,0.221l2.293-7.593
		c-1.977-0.409-3.896-0.764-5.913-1.049L262.979,280.902z"/>
	<path fill="#BDBFC1" d="M270.216,287.497l5.47,1.289l4.601-9.1c-2.12-0.692-4.166-1.261-6.344-1.807L270.216,287.497z"/>
	<path fill="#BDBFC1" d="M226.221,288.786c1.427-0.527,3.419-1.247,5.282-1.744l-3.551-9.387c-2.146,0.519-4.017,1.065-6.108,1.728
		C223.166,282.526,224.647,285.769,226.221,288.786z"/>
	<path fill="#BDBFC1" d="M217.972,292.164c0.315-0.271,3.42-1.61,5.545-2.51c-1.615-2.923-3.556-6.146-5.176-9.121
		c-2.316,0.826-4.424,1.683-6.664,2.679L217.972,292.164z"/>
	<path fill="#BDBFC1" d="M210.228,296.273c0.988-0.595,2.035-1.201,3.188-1.87l-7.257-8.56c-1.379,0.716-2.74,1.465-4.084,2.245
		L210.228,296.273z"/>
	<path fill="#BDBFC1" d="M278.582,289.912c4.354,1.689,10.444,5.104,12.868,6.731c1.118-1.069,7.18-7.432,8.011-8.305
		c-5.039-2.957-10.332-5.471-15.839-7.494L278.582,289.912z"/>
	<polygon fill="#BDBFC1" points="252.627,277.534 250.549,277.46 250.514,272.407 252.675,274.651 	"/>
	<circle fill="#006CB3" cx="251.022" cy="301.01" r="24.477"/>
	<path fill="#0069AE" stroke="#007DBF" stroke-width="0.1487" d="M251.022,301.012"/>
	<path fill="#F18233" d="M252.527,278.364c-1.879,0.655-3.688,1.61-5.479,2.442c-1.224-0.732-1.923-0.917-2.75-1.45
		C246.872,278.419,249.643,278.278,252.527,278.364z"/>
	<path fill="#F18233" d="M270.062,288.758c-5.768-5.812-14.419-5.393-21.758-7.448c0,0,4.318-2.056,6.548-2.626
		C260.851,279.707,266.654,283.296,270.062,288.758z"/>
	<path fill="#F18233" d="M237.642,289.631c-5.541,8.5-6.29,18.971-1.878,28.148c-5.701-4.787-9.1-14.062-6.54-23.067
		C231.319,291.783,234.014,289.195,237.642,289.631z"/>
	<path fill="#F18233" d="M243.573,295.683c2.987,8.879,3.647,18.707,11.378,27.648c-6.027,1.223-11.999-0.584-16.761-3.6
		c-5.899-8.607-5.343-21.448,0.555-29.793C241.618,290.766,243.183,294.523,243.573,295.683z"/>
	<path fill="none" stroke="#ED654D" stroke-width="0.1487" d="M254.281,277.973"/>
	<path fill="#F18233" d="M239.429,289c0.896-1.265,1.908-2.46,3.045-3.572c12.54,3.54,24.497,16.542,26.543,29.319
		c-0.597,0.966-2.029,2.31-2.99,3.271c-3.118,2.802-6.553,4.253-9.848,5.039c-5.855-6.073-7.783-13.961-9.851-21.733
		c-1.587-5.966-2.689-10.467-6.895-12.292L239.429,289z"/>
	<path fill="#F18233" d="M268.726,288.944c-6.055-5.344-14.492-4.66-21.57-7.15c-1.368,0.839-2.705,1.829-3.847,2.854
		c12.539,3.932,23.917,16.192,26.627,28.864c1.968-2.841,3.154-6.14,3.633-9.637C273.875,298.501,273.822,293.612,268.726,288.944z"
		/>
	<path fill="#F18233" d="M241.439,285.036c-1.21,1.162-2.116,2.308-3.06,3.643l-0.027-0.009c-3.32-0.742-5.938,0.975-8.042,3.113
		c1.004-2.533,3.106-5.54,5.335-7.505C237.699,284.366,239.192,284.335,241.439,285.036"/>
	<path fill="#F18233" d="M242.329,284.257c1.186-1.053,2.334-1.979,3.763-2.833l-3.216-1.595c-2.141,0.873-4.433,2.014-6.004,3.455
		C239.302,283.566,240.344,283.717,242.329,284.257z"/>
	<path fill="#006CB3" d="M247.555,246.527l-0.99,0.985l-1.697,0.101l-0.631-0.549l-0.798,0.678l-1.848,0.172l-0.812-0.772
		l1.065-7.232l1.399-0.191l-0.754,6.387l1.001-0.112l0.78-6.398l1.38-0.134l-0.575,6.353l0.982-0.09l0.502-6.324
		c0.589-0.062,0.892-0.057,1.407-0.086L247.555,246.527z"/>
	<path fill="#006CB3" d="M252.091,239.215l0.012,4.551l0.894-0.006l-0.055-4.525c0,0,0.937,0.029,1.358,0.064l0.181,5.105
		l-0.86,0.858l-0.282,0.015l0.041,2.184l-1.519-0.045l-0.017-2.186l-0.305-0.023l-0.919-0.939l0.058-5.075
		C251.17,239.191,252.091,239.215,252.091,239.215z"/>
	<path fill="#006CB3" d="M240.829,240.058l-0.237,1.495l-1.69,0.318l-0.307,1.746c0.62-0.11,1-0.171,1.736-0.27
		c-0.103,0.652-0.133,0.875-0.247,1.49l-1.698,0.242l-0.319,1.673l1.741-0.253c0,0-0.172,1.127-0.261,1.631
		c-1.219,0.15-2.443,0.324-3.611,0.527c0,0,1.308-6.066,1.634-7.938L240.829,240.058z"/>
	<path fill="#006CB3" d="M234.456,248.928l-1.763,0.346l0.808-3.307l-0.547-1.188l-1.386,4.762l-1.722,0.393
		c0.717-2.577,1.45-5.154,2.167-7.732c0.592-0.199,1.033-0.333,1.556-0.49c0.192,0.436,0.656,1.312,0.656,1.312l0.418-1.614
		c0,0,1.092-0.289,1.641-0.414L234.456,248.928z"/>
	<path fill="#006CB3" d="M259.247,240.616c0.175,2.072,0.518,4.056,0.727,5.988l-0.771,1.177l-2.491-0.166l-0.899-0.979
		c-0.159-2.113-0.269-4.246-0.399-6.369c0.229-0.301,0.579-0.537,0.855-0.833l2.075,0.202L259.247,240.616z M256.924,240.967
		l0.443,4.938l0.874,0.069l-0.465-4.914L256.924,240.967z"/>
	<path fill="#006CB3" d="M267.301,241.357c0.31,1.186,0.916,3.631,0.916,3.631l0.592,0.121l0.286-0.395l-0.737-3.041
		c0,0,0.731,0.205,1.516,0.441l0.782,2.944l-0.368,0.53l0.686,0.753l1.033,3.585l-1.703-0.381l-0.669-2.516l-1.061-0.237l0.58,2.503
		l-1.729-0.34c-0.603-2.696-1.693-8.006-1.693-8.006S266.608,241.134,267.301,241.357z"/>
	<path fill="#006CB3" d="M264.604,241.646l0.568,2.955l-0.328,0.455l0.58,0.693l0.502,2.936l-1.66-0.288l-0.453-2.445l-0.997-0.111
		l0.353,2.386l-1.655-0.207l-1.102-8.116l3.165,0.56L264.604,241.646z M262.208,241.749l0.296,2.058l0.936,0.107l-0.395-2.013
		L262.208,241.749z"/>
</g>
</svg>
