<?xml version="1.0" encoding="utf-8"?>
<!-- Generator: Adobe Illustrator 16.0.0, SVG Export Plug-In . SVG Version: 6.00 Build 0)  -->
<!DOCTYPE svg PUBLIC "-//W3C//DTD SVG 1.1//EN" "http://www.w3.org/Graphics/SVG/1.1/DTD/svg11.dtd">
<svg version="1.1" id="content" xmlns="http://www.w3.org/2000/svg" xmlns:xlink="http://www.w3.org/1999/xlink" x="0px" y="0px"
	 width="500px" height="500px" viewBox="0 0 500 500" enable-background="new 0 0 500 500" xml:space="preserve">
<g id="bounds">
	<rect x="0.005" fill="none" stroke="#EAEAEA" stroke-miterlimit="10" width="499.5" height="499.5"/>
</g>
<rect id="position" x="0.5" y="0.5" display="none" fill="none" stroke="#000000" width="499" height="499"/>
<g>
	<g>
		<path fill="#FFFFFF" d="M249.171,406.363l-23.152-30.072c-29.455-9.717-49.96-36.341-51.855-67.309l-14.361-18.646
			c-13.661,5.889-27.335,15.215-27.335,15.215l-43.075-43.234l18.153-39.803l-32.468-42.167h51.652l10-21.775l25.575-10.317
			l2.838-7.715l20.727,9.468l4.93-17.225l3.379-1.124c16.401-5.46,35.295-8.405,54.63-8.513c0.558-0.037,6.703,0.074,6.85,0.074
			c0.725,0,3.737,0.167,3.737,0.167c16.36,0.785,31.73,3.506,45.689,8.094l3.429,1.128l4.533,16.427l7.469-5.638l41.895,14.893
			l10.107,22.063h51.912l-32.812,42.335l17.88,39.229l-43.75,45.049c0,0-16.042-11.697-27.034-16.062l-13.186,16.998
			c-1.507,31.719-23.081,59.525-53.402,68.857L249.171,406.363L249.171,406.363z"/>
	</g>
	<g>
		<polygon fill="none" points="398.454,193.097 100.959,193.091 249.214,385.523 		"/>
	</g>
	<g>
		<polygon fill="#BDBFC1" points="249.214,385.523 398.454,193.097 100.959,193.091 		"/>
	</g>
	<g>
		<path fill="#006CB3" d="M88.699,187.052l160.497,208.333l161.572-208.327L88.699,187.052z M398.454,193.097l-149.24,192.427
			L100.962,193.091L398.454,193.097z"/>
	</g>
	<g>
		<path fill="#006CB3" d="M376.91,206.48l-0.062-0.127l-0.113-0.068l-9.55-6.415l3.562-6.796l0.104-0.208l-0.093-0.215
			l-13.142-28.803l-0.087-0.179l-0.189-0.064l-35.426-12.619l-0.244-0.087l-0.207,0.157l-9.396,7.172l-0.104,0.075l-0.047,0.119
			l-1.615,3.943c0,0-14.684-3.688-36.261-5.846c-2.189-0.218-8.066-0.703-17.439-1.438l-0.91-0.072l-0.938-0.067l-0.223-0.016
			l-0.152,0.153l-7.008,6.976l0.011-7.159c0,0-19.863,1.12-32.867,2.89c-13.005,1.768-25.796,4.99-25.796,4.99l-2.352-5.038
			l-0.076-0.161l-0.159-0.071l-16.715-7.653l-0.473-0.213l-0.178,0.485l-1.941,5.295l-0.44-1.062l-0.181-0.434l-0.44,0.175
			l-23.926,9.593l-0.175,0.068l-0.079,0.177l-44.133,96.956l36.236,36.295l1.692-0.959c1.085-0.632,2.633-1.539,4.38-2.568
			c4.383-2.582,10.388-6.113,13.256-7.498l0.58-0.279c3.713-1.803,5.578-2.701,23.19-10.24l1.471-0.548
			c0.022-0.003,1.982-0.771,5.608-1.972c9.672-3.215,34.792-10.689,59.15-10.689h0.276c0.971,0,1.941,0.021,2.915,0.041
			c16.531,0.457,35.865,3.971,49.173,6.838c12.799,2.762,22.432,5.416,25.172,6.188l1.838,0.562
			c12.115,4.676,26.93,12.407,40.646,21.193l1.737,1.123l36.681-37.771L376.91,206.48z"/>
	</g>
	<g>
		<path fill="#F18233" d="M372.967,209.845l-35.248-23.531l-6.129-17.211l10.916,3.88l4.41,10.761l16.596,5.321l-9.686-21.399
			l-31.316-11.118l-5.754,4.446l10.416,33.828l33.516,23.69l8.596,21.416l-13.938-6.295l-4.785-13.323l-17.104-5.033l9.141,30.113
			c2.816,1.036,5.619,2.112,8.392,3.234c7.613,3.074,15.064,6.488,22.351,10.219c5.053,2.581,10.011,5.323,14.893,8.203l7.283-7.477
			L372.967,209.845z"/>
	</g>
	<g>
		<path fill="#F18233" d="M135.24,225.795l11.742-10.491l2.803,3.271l-11.6,33.352c6.341-2.796,12.8-5.354,19.354-7.674
			l8.408-27.501l-7.257-11.979l15.02-14.278l8.785-29.252l-10.792-4.847l-9.693,27.575l-15.537,13.376l14.161-35.747l-15.225,6.072
			l-41.951,92.044l6.562,6.582c3.894-2.27,7.84-4.45,11.837-6.527L135.24,225.795z"/>
	</g>
	<g>
		<path fill="#F18233" d="M241.558,160.161l-12.871,0.674l-6.045,69.044c5.471-0.523,10.976-0.875,16.523-1.064L241.558,160.161z"/>
	</g>
	<g>
		<path fill="#F18233" d="M279.736,215.55l-14.943-0.892l-2.398-42.286l12.654,0.618l-1.482-11.65l-17.01-1.218l-7.624,7.607
			l-0.02,52.876l7.993,8.182c8.25,0.254,16.412,0.871,24.479,1.847L279.736,215.55z"/>
	</g>
	<g>
		<path fill="#F18233" d="M195.08,187.41l5.395,26.25l-3.486,19.892c5.22-1.004,10.484-1.872,15.797-2.565l0.03-0.008l8.315-69.238
			l-11.944,1.743l-3.924,22.668l-4.44-21.334l-14.047,3.518l-19.545,72.682c5.638-1.752,11.339-3.336,17.106-4.73L195.08,187.41z"/>
	</g>
	<g>
		<path fill="#F18233" d="M298.912,211.73l4.203-5.68l6.141,5.057l5.654,25.744c5.934,1.486,11.791,3.172,17.574,5.047
			l-10.538-37.762l-10.872-8.89l6.189-8.261l-5.147-19.161l-13.122-2.92l5.162,19.302l-8.174,10.921l-6.037-31.739l-12.154-1.538
			c0,0,6.096,46.549,8.973,69.485c5.504,0.775,10.956,1.725,16.361,2.834L298.912,211.73z"/>
	</g>
	<g>
		<path fill="#BDBFC1" d="M224.529,242.988c0,0,5.061-2.963,15.192-4.082l-0.325-7.979c-5.554,0.185-11.072,0.534-16.543,1.054
			C223.326,235.092,224.037,239.75,224.529,242.988z"/>
	</g>
	<g>
		<path fill="#BDBFC1" d="M256.718,238.422c4.115,0.484,8.522,1.824,12.392,2.918c3.504,0.846,7.271,2.346,10.358,3.715
			l1.698-12.281c-8.141-0.998-15.838-1.607-24.172-1.869C256.873,233.292,256.873,236.654,256.718,238.422z"/>
	</g>
	<g>
		<path fill="#BDBFC1" d="M203.425,257.882c4.711-3.501,7.547-7.112,12.512-10.136c-0.943-4.461-2.201-10.229-3.111-14.643
			c-5.4,0.713-10.749,1.601-16.054,2.631C198.806,242.343,201.393,251.209,203.425,257.882z"/>
	</g>
	<g>
		<path fill="#BDBFC1" d="M283.574,247.531c4.594,2.658,8.18,5.675,12.291,9.666l0.814,0.625l6.477-21.439
			c-5.584-1.154-11.002-2.158-16.697-2.961L283.574,247.531z"/>
	</g>
	<g>
		<path fill="#BDBFC1" d="M304.012,266.15l15.441,3.643l12.993-25.695c-5.985-1.951-11.765-3.559-17.91-5.102L304.012,266.15z"/>
	</g>
	<g>
		<path fill="#BDBFC1" d="M179.794,269.791c4.025-1.49,9.649-3.521,14.91-4.924l-10.027-26.504
			c-6.059,1.463-11.342,3.009-17.246,4.877C171.165,252.113,175.348,261.273,179.794,269.791z"/>
	</g>
	<g>
		<path fill="#BDBFC1" d="M156.5,279.329c0.889-0.767,9.655-4.544,15.654-7.087c-4.558-8.256-10.038-17.354-14.612-25.754
			c-6.541,2.334-12.491,4.752-18.815,7.562L156.5,279.329z"/>
	</g>
	<g>
		<path fill="#BDBFC1" d="M134.633,290.932c2.792-1.682,5.748-3.391,9.004-5.283l-20.492-24.168
			c-3.894,2.021-7.735,4.141-11.531,6.34L134.633,290.932z"/>
	</g>
	<g>
		<path fill="#BDBFC1" d="M327.631,272.971c12.294,4.77,29.488,14.41,36.334,19.002c3.156-3.016,20.273-20.982,22.619-23.447
			c-14.229-8.35-29.173-15.444-44.721-21.16L327.631,272.971z"/>
	</g>
	<g>
		<polygon fill="#BDBFC1" points="254.348,238.021 248.482,237.812 248.38,223.545 254.484,229.879 		"/>
	</g>
	<g>
		<path fill="#006CB3" d="M249.816,235.195c38.168,0,69.112,30.939,69.112,69.106c0,38.171-30.941,69.11-69.112,69.11
			c-38.166,0-69.111-30.939-69.111-69.11C180.705,266.137,211.65,235.195,249.816,235.195z"/>
	</g>
	<g>
		<path fill="#0069AE" stroke="#007DBF" stroke-width="0.1487" d="M249.816,304.311"/>
	</g>
	<g>
		<path fill="#F18233" d="M254.068,240.363c-5.31,1.852-10.417,4.549-15.471,6.896c-3.457-2.065-5.431-2.59-7.766-4.096
			C238.099,240.52,245.925,240.119,254.068,240.363z"/>
	</g>
	<g>
		<path fill="#F18233" d="M303.576,269.711c-16.285-16.412-40.715-15.227-61.436-21.027c0,0,12.193-5.807,18.49-7.416
			C277.57,244.156,293.955,254.289,303.576,269.711z"/>
	</g>
	<g>
		<path fill="#F18233" d="M212.038,272.176c-15.646,24-17.757,53.564-5.299,79.479c-16.097-13.52-25.698-39.708-18.471-65.134
			C194.185,278.253,201.798,270.947,212.038,272.176z"/>
	</g>
	<g>
		<path fill="#F18233" d="M228.786,289.266c8.43,25.07,10.295,52.818,32.124,78.062c-17.017,3.455-33.879-1.648-47.325-10.166
			c-16.655-24.301-15.085-60.557,1.567-84.121C223.265,275.381,227.681,285.99,228.786,289.266z"/>
	</g>
	<g>
		<path fill="none" stroke="#ED654D" stroke-width="0.1487" d="M259.02,239.26"/>
	</g>
	<g>
		<path fill="#F18233" d="M217.083,270.395c2.532-3.574,5.387-6.945,8.597-10.086c35.408,9.996,69.169,46.709,74.947,82.782
			c-1.688,2.729-5.729,6.521-8.441,9.235c-8.805,7.913-18.504,12.011-27.807,14.227c-16.532-17.145-21.979-39.418-27.816-61.359
			c-4.479-16.85-7.59-29.555-19.469-34.707L217.083,270.395z"/>
	</g>
	<g>
		<path fill="#F18233" d="M299.807,270.234c-17.099-15.088-40.92-13.154-60.906-20.188c-3.861,2.37-7.637,5.165-10.861,8.062
			c35.401,11.102,67.53,45.717,75.179,81.494c5.561-8.021,8.906-17.334,10.256-27.207
			C314.342,297.221,314.191,283.414,299.807,270.234z"/>
	</g>
	<g>
		<path fill="#F18233" d="M222.757,259.203c-3.413,3.281-5.972,6.516-8.638,10.287l-0.074-0.027
			c-9.376-2.096-16.767,2.752-22.709,8.79c2.833-7.153,8.769-15.642,15.066-21.192C212.199,257.312,216.416,257.223,222.757,259.203
			"/>
	</g>
	<g>
		<path fill="#F18233" d="M225.272,257.003c3.347-2.972,6.59-5.589,10.623-7.999l-9.078-4.502
			c-6.046,2.465-12.518,5.684-16.953,9.754C216.725,255.053,219.667,255.477,225.272,257.003z"/>
	</g>
	<g>
		<path fill="#006CB3" d="M240.03,150.473l-2.797,2.782l-4.791,0.283l-1.783-1.549l-2.253,1.914l-5.217,0.485l-2.294-2.179
			l3.008-20.419l3.951-0.54l-2.13,18.033l2.827-0.316l2.204-18.063l3.894-0.38l-1.622,17.938l2.773-0.253l1.417-17.857
			c1.66-0.175,2.518-0.161,3.97-0.242L240.03,150.473z"/>
	</g>
	<g>
		<path fill="#006CB3" d="M252.835,129.827l0.036,12.85l2.523-0.018l-0.158-12.776c0,0,2.646,0.083,3.836,0.18l0.508,14.415
			l-2.426,2.424l-0.795,0.041l0.115,6.167l-4.287-0.127l-0.052-6.173l-0.86-0.064l-2.594-2.651l0.164-14.33
			C250.234,129.76,252.835,129.827,252.835,129.827z"/>
	</g>
	<g>
		<path fill="#006CB3" d="M221.037,132.208l-0.67,4.22l-4.771,0.9l-0.867,4.93c1.75-0.312,2.822-0.484,4.903-0.763
			c-0.292,1.84-0.375,2.471-0.697,4.207l-4.796,0.684l-0.9,4.722l4.914-0.714c0,0-0.484,3.182-0.735,4.605
			c-3.44,0.424-6.896,0.916-10.194,1.489c0,0,3.691-17.128,4.61-22.414L221.037,132.208z"/>
	</g>
	<g>
		<path fill="#006CB3" d="M203.042,157.252l-4.979,0.978l2.283-9.338l-1.545-3.354l-3.913,13.445l-4.859,1.11
			c2.023-7.276,4.091-14.553,6.114-21.832c1.671-0.562,2.917-0.939,4.397-1.383c0.539,1.23,1.851,3.704,1.851,3.704l1.181-4.556
			c0,0,3.082-0.816,4.632-1.169L203.042,157.252z"/>
	</g>
	<g>
		<path fill="#006CB3" d="M273.039,133.784c0.495,5.85,1.466,11.452,2.057,16.907l-2.18,3.324l-7.033-0.469l-2.539-2.766
			c-0.449-5.965-0.761-11.986-1.127-17.981c0.645-0.85,1.635-1.516,2.417-2.352l5.856,0.569L273.039,133.784z M266.479,134.774
			l1.254,13.943l2.47,0.195l-1.315-13.874L266.479,134.774z"/>
	</g>
	<g>
		<path fill="#006CB3" d="M295.777,135.876c0.879,3.348,2.588,10.251,2.588,10.251l1.67,0.342l0.812-1.116l-2.084-8.586
			c0,0,2.062,0.58,4.281,1.246l2.206,8.312l-1.039,1.496l1.938,2.126l2.915,10.123l-4.81-1.076l-1.889-7.104l-2.997-0.669
			l1.638,7.067l-4.881-0.96c-1.703-7.612-4.779-22.604-4.779-22.604S293.823,135.245,295.777,135.876z"/>
	</g>
	<g>
		<path fill="#006CB3" d="M288.163,136.692l1.604,8.342l-0.928,1.285l1.639,1.957l1.42,8.291l-4.689-0.813l-1.277-6.903
			l-2.812-0.314l0.995,6.738l-4.674-0.585l-3.111-22.916l8.938,1.581L288.163,136.692z M281.4,136.983l0.834,5.811l2.643,0.302
			l-1.113-5.685L281.4,136.983z"/>
	</g>
</g>
</svg>
