<?xml version="1.0" encoding="utf-8"?>
<!-- Generator: Adobe Illustrator 16.0.0, SVG Export Plug-In . SVG Version: 6.00 Build 0)  -->
<!DOCTYPE svg PUBLIC "-//W3C//DTD SVG 1.1//EN" "http://www.w3.org/Graphics/SVG/1.1/DTD/svg11.dtd">
<svg version="1.1" id="content" xmlns="http://www.w3.org/2000/svg" xmlns:xlink="http://www.w3.org/1999/xlink" x="0px" y="0px"
	 width="500px" height="500px" viewBox="0 0 500 500" enable-background="new 0 0 500 500" xml:space="preserve">
<rect id="position" x="0.5" y="0.5" display="none" fill="none" stroke="#000000" width="499" height="499"/>
<g>
	<path fill="#C52435" d="M67.958,296.917l10-98.197c0-13.551,10.986-24.537,24.537-24.537l0,0c13.552,0,24.539,10.986,24.539,24.537
		v98.197H67.958z"/>
	<g>
		<path fill="#DBD228" d="M102.496,174.075c-13.632,0-24.685,11.053-24.685,24.685l-0.222,2.184
			c6.733,5.674,15.424,9.098,24.918,9.098c9.379,0,17.977-3.337,24.676-8.888v-2.394
			C127.183,185.127,116.13,174.075,102.496,174.075z"/>
		<g>
			<path fill="#BAB222" d="M78.082,196.253c4.031,4.104,9.08,7.201,14.75,8.864l-5.9-8.64l-8.689-1.499
				C78.178,195.4,78.125,195.825,78.082,196.253z"/>
			<path fill="#BAB222" d="M102.471,201.04l-9.634,4.079c3.057,0.896,6.288,1.385,9.634,1.385c3.347,0,6.577-0.489,9.634-1.385
				L102.471,201.04z"/>
			<path fill="#BAB222" d="M126.749,194.971l-8.739,1.507l-5.899,8.64c5.691-1.669,10.757-4.785,14.796-8.913
				C126.864,195.79,126.812,195.379,126.749,194.971z"/>
		</g>
		<path fill="#BAB222" d="M96.502,192.166l5.968-2.527l5.969,2.527l3.655-5.352l6.386-1.102l0.162-5.747
			c-4.354-3.699-9.988-5.935-16.147-5.935c-6.182,0-11.835,2.253-16.194,5.977l0.159,5.704l6.387,1.101L96.502,192.166z"/>
		<circle fill="#BAB222" cx="90.071" cy="191.219" r="2.528"/>
		<circle fill="#BAB222" cx="102.506" cy="194.935" r="2.528"/>
		<circle fill="#BAB222" cx="114.997" cy="191.409" r="2.528"/>
	</g>
	<path fill="#DBD228" d="M113.341,176.294c-3.302-1.519-6.974-2.371-10.846-2.371c-3.865,0-7.529,0.85-10.826,2.362
		c1.951,4.026,6.063,6.81,10.837,6.81C107.277,183.095,111.388,180.315,113.341,176.294z"/>
</g>
</svg>
