<?xml version="1.0" encoding="utf-8"?>
<!-- Generator: Adobe Illustrator 16.0.0, SVG Export Plug-In . SVG Version: 6.00 Build 0)  -->
<!DOCTYPE svg PUBLIC "-//W3C//DTD SVG 1.1//EN" "http://www.w3.org/Graphics/SVG/1.1/DTD/svg11.dtd">
<svg version="1.1" id="content" xmlns="http://www.w3.org/2000/svg" xmlns:xlink="http://www.w3.org/1999/xlink" x="0px" y="0px"
	 width="500px" height="500px" viewBox="0 0 500 500" enable-background="new 0 0 500 500" xml:space="preserve">
<rect id="position" x="0.5" y="0.5" display="none" fill="none" stroke="#000000" width="499" height="499"/>
<polygon fill="#C52435" points="362.189,424.834 137.863,424.834 140.863,351.167 359.189,351.167 "/>
<polygon fill="#B0202F" points="359.481,376.754 140.57,376.754 140.863,356.167 359.189,356.167 "/>
<g>
	<path fill="#C52435" d="M222.498,364.75h-77.123c-0.552,0-1-0.447-1-1s0.448-1,1-1h77.123c0.552,0,1,0.447,1,1
		S223.05,364.75,222.498,364.75z"/>
</g>
<g>
	<path fill="#C52435" d="M222.498,370.378h-77.123c-0.552,0-1-0.447-1-1s0.448-1,1-1h77.123c0.552,0,1,0.447,1,1
		S223.05,370.378,222.498,370.378z"/>
</g>
<g>
	<path fill="#C52435" d="M354.677,364.75h-77.122c-0.553,0-1-0.447-1-1s0.447-1,1-1h77.122c0.553,0,1,0.447,1,1
		S355.229,364.75,354.677,364.75z"/>
</g>
<g>
	<path fill="#C52435" d="M354.677,370.378h-77.122c-0.553,0-1-0.447-1-1s0.447-1,1-1h77.122c0.553,0,1,0.447,1,1
		S355.229,370.378,354.677,370.378z"/>
</g>
<path opacity="0.2" fill="#161504" d="M272.06,363.587c0-2.762-2.238-5-5-5h-34.067c-2.762,0-5,2.238-5,5v12.587
	c0,2.762,2.238,5,5,5h34.067c2.762,0,5-2.238,5-5V363.587z"/>
<path fill="#DBD228" d="M272.06,360.667c0-2.762-2.238-5-5-5h-34.067c-2.762,0-5,2.238-5,5v12.587c0,2.762,2.238,5,5,5h34.067
	c2.762,0,5-2.238,5-5V360.667z"/>
<polygon fill="#BAB222" points="252.719,378.254 261.912,355.667 245.143,355.667 235.95,378.254 "/>
<path fill="#BAB222" d="M331.949,378.853c6.567,0,11.891-5.324,11.891-11.892c0-6.568-5.323-11.893-11.891-11.893V378.853z"/>
<path fill="#BAB222" d="M309.818,355.068c-6.568,0-11.893,5.324-11.893,11.893c0,6.567,5.324,11.892,11.893,11.892V355.068z"/>
<path fill="#BAB222" d="M168.103,378.853c-6.568,0-11.892-5.324-11.892-11.892c0-6.568,5.324-11.893,11.892-11.893V378.853z"/>
<path fill="#BAB222" d="M190.234,355.068c6.568,0,11.892,5.324,11.892,11.893c0,6.567-5.324,11.892-11.892,11.892V355.068z"/>
</svg>
