<?xml version="1.0" encoding="utf-8"?>
<!-- Generator: Adobe Illustrator 18.0.0, SVG Export Plug-In . SVG Version: 6.00 Build 0)  -->
<!DOCTYPE svg PUBLIC "-//W3C//DTD SVG 1.1//EN" "http://www.w3.org/Graphics/SVG/1.1/DTD/svg11.dtd">
<svg version="1.1" id="content" xmlns="http://www.w3.org/2000/svg" xmlns:xlink="http://www.w3.org/1999/xlink" x="0px" y="0px"
	 width="500px" height="500px" viewBox="0 0 500 500" enable-background="new 0 0 500 500" xml:space="preserve">
<g id="bounds" display="none">
	<rect x="-0.1" y="75.5" display="inline" fill="none" stroke="#EAEAEA" stroke-miterlimit="10" width="499.5" height="499.5"/>
</g>
<rect id="position" x="0.5" y="1.7" display="none" fill="none" stroke="#000000" width="499" height="499"/>
<g>
	<g>
		<g>
			<g>
				<path fill="#C98014" d="M231.6,180.9c0.1,0.2,0.1,0.3,0.2,0.5"/>
			</g>
			<g>
				<path fill="#B3E5FC" d="M270.8,180.6H345v304.7H155.4V180.6h74v0.5c0,0-0.2,2.9,3.2,5.6c3.4,2.7,8.2,2,8.2,2l9.3,31.2l9.3-31.2
					c0,0,4.8,0.7,8.2-2c3.4-2.7,3.2-5.6,3.2-5.6L270.8,180.6z"/>
			</g>
			<g>
				<path fill="#C2EBF9" d="M232.7,186.5c-3-2.4-3.2-5.1-3.2-5.6c-3.7,0-9.1,0-14.9,0c-7.5,12.6,7.8,24,7.8,24l18.5-16.3
					C240.9,188.6,236.1,189.3,232.7,186.5z"/>
			</g>
			<g>
				<path fill="#C2EBF9" d="M267.7,186.5c3-2.4,3.2-5.1,3.2-5.6c3.7,0,9.1,0,14.9,0c7.5,12.6-7.8,24-7.8,24l-18.5-16.3
					C259.5,188.6,264.3,189.3,267.7,186.5z"/>
			</g>
			<g>
				<polygon fill="#8BC3D6" points="241.5,190.8 225.4,205.9 223.7,203.6 240.9,189 				"/>
			</g>
			<g>
				<polygon fill="#8BC3D6" points="258.9,190.8 275,205.9 276.7,203.6 259.6,189 				"/>
			</g>
			<g>
				<g>
					<path fill="#8BC3D6" d="M250.2,485.9c-0.2,0-0.4-0.1-0.4-0.3V220.5c0-0.2,0.2-0.3,0.4-0.3s0.4,0.1,0.4,0.3v265.1
						C250.6,485.8,250.4,485.9,250.2,485.9L250.2,485.9z"/>
				</g>
			</g>
		</g>
	</g>
	<g>
		<path fill="#E4E3DC" d="M373.6,194.6l-18.7-13.8h-44.4l0,0c-0.9,0-1.4,0-1.4,0c-24.8,53.2-34.6,96.8-31.5,134
			c0.8,33.7,7.6,114.4,50.9,170.6h4.8l19.6,0.4V278.6l15.2,5.1v162.9h61.3v-181L373.6,194.6z"/>
		<path fill="#E4E3DC" d="M183.9,180.7h-38.8l-19.3,13.9l-55.7,71v181h61.3V283.7l16.2-5.4v207.5l18,0.2v-0.6h6.5
			c46.1-59.7,50.8-147.1,51-176.4c1.5-36-8.6-77.8-32.1-128.4C191,180.6,188,180.6,183.9,180.7z"/>
	</g>
	<g opacity="5.000000e-02">
		<path fill="#020202" d="M223,296.7c-11.4-20.8-43.2-70.3-43.2-70.3s6.8-4.6,13-7.5c-8.4-0.1-18.1-2-18.1-2s-4.9-25.5-1.3-36.2
			l13.8-0.1C187.1,180.6,223.1,251.8,223,296.7z"/>
	</g>
	<g>
		<path fill="none" stroke="#515150" stroke-width="0.4294" stroke-miterlimit="10" d="M188.6,180.9"/>
	</g>
	<g>
		<path fill="#EAEAEA" d="M223,292.1c-11.4-20.8-39.4-66.6-39.4-66.6s6.8-4.6,13-7.5c-8.4-0.1-18.1-2-18.1-2s-4.8-24.6-1.2-35.3
			l13.8-0.1C191,180.6,223.1,247.2,223,292.1z"/>
	</g>
	<g>
		<path fill="#85B2B7" d="M322.2,245.6v10.9c3-0.1,6-0.4,9.1-0.7v-10.2C328.2,245.6,325,245.6,322.2,245.6z"/>
	</g>
	<g>
		<path fill="#D24227" d="M333.8,240.9v14.8c1.5-0.1,2.9-0.2,4.4-0.2c0-5.2,0-10.3,0-14.5C336.7,240.9,335.3,240.9,333.8,240.9z"/>
	</g>
	<g>
		<path fill="#EE6939" d="M342.9,255.4v-14.6c-1.6,0-3.1,0-4.7,0c0,4.2,0,9.3,0,14.5C339.8,255.4,341.3,255.4,342.9,255.4z"/>
	</g>
	<g>
		<path fill="#EF9AC1" d="M338.4,224c-2.8,0-5.1,2.3-5.1,5.1v4.9c4.9,0,5.1,0,10.2,0v-4.9C343.5,226.3,341.2,224,338.4,224z"/>
	</g>
	<g>
		<path fill="#939292" d="M333.3,230.9v10.5c3.4,0,6.8,0,10.2,0v-10.5C338.3,230.9,338.2,230.9,333.3,230.9z"/>
	</g>
	<g>
		<path fill="#0C7A8C" d="M331.8,232.1c0-2.8-2.3-5-5-5c-2.8,0-5,2.3-5,5v14.4c3,0,6.7,0,10.1,0v-14.4H331.8z"/>
	</g>
	<g>
		<path fill="#EAEAEA" d="M350.1,257c0,0.5-2.6,1.6-7.2,1.6h-31.5c-4.5,0-7.2-1.1-7.2-1.6v-7.3c0-0.5,1.7-0.8,3.9-0.8h38.2
			c2.2,0,3.9,0.4,3.9,0.8L350.1,257L350.1,257z"/>
	</g>
	<g>
		<path fill="#0C7A8C" d="M327.2,255.7h-1.4c-0.3,0-0.6-0.3-0.6-0.6v-17.8c0-0.3,0.3-0.6,0.6-0.6h1.4c0.3,0,0.6,0.3,0.6,0.6v17.8
			C327.8,255.5,327.5,255.7,327.2,255.7z"/>
	</g>
	<g opacity="5.000000e-02">
		<path fill="#020202" d="M277.3,296.7c11.4-20.8,43.2-70.3,43.2-70.3s-6.8-4.6-13-7.5c8.4-0.1,18.1-2,18.1-2s4.9-25.5,1.3-36.2
			l-13.8-0.1C313.1,180.6,277.1,251.8,277.3,296.7z"/>
	</g>
	<g>
		<path fill="#EAEAEA" d="M277.3,292.1c11.4-20.8,39.4-66.6,39.4-66.6s-6.8-4.6-13-7.5c8.4-0.1,18.1-2,18.1-2s4.8-24.6,1.2-35.3
			l-13.8-0.1C309.3,180.6,277.1,247.2,277.3,292.1z"/>
	</g>
	<g opacity="0.1">
		<path fill="#020202" d="M347.3,361.2h-41.6v4.8c0,0,0,7.1,11.3,7.1c9.5,0,30.3,0,30.3,0L347.3,361.2L347.3,361.2z"/>
	</g>
	<g>
		<path fill="#EAEAEA" d="M347.5,358h-41.6v4.8c0,0,0,7.1,11.3,7.1c9.5,0,30.3,0,30.3,0L347.5,358L347.5,358z"/>
	</g>
	<g opacity="0.1">
		<path fill="#020202" d="M151.3,361.2h41.6v4.8c0,0,0,7.1-11.3,7.1c-9.5,0-30.3,0-30.3,0L151.3,361.2L151.3,361.2z"/>
	</g>
	<g>
		<path fill="#EAEAEA" d="M151.3,358h41.6v4.8c0,0,0,7.1-11.3,7.1c-9.5,0-30.3,0-30.3,0L151.3,358L151.3,358z"/>
	</g>
</g>
</svg>
