<?xml version="1.0" encoding="utf-8"?>
<!-- Generator: Adobe Illustrator 16.0.0, SVG Export Plug-In . SVG Version: 6.00 Build 0)  -->
<!DOCTYPE svg PUBLIC "-//W3C//DTD SVG 1.1//EN" "http://www.w3.org/Graphics/SVG/1.1/DTD/svg11.dtd">
<svg version="1.1" id="content" xmlns="http://www.w3.org/2000/svg" xmlns:xlink="http://www.w3.org/1999/xlink" x="0px" y="0px"
	 width="500px" height="500px" viewBox="0 0 500 500" enable-background="new 0 0 500 500" xml:space="preserve">
<g id="bounds">
	<rect x="0.352" y="-1.201" fill="none" stroke="#EAEAEA" stroke-miterlimit="10" width="499.5" height="499.5"/>
</g>
<rect id="position" x="0.5" y="0.5" display="none" fill="none" stroke="#000000" width="499" height="499"/>
<g>
	<path fill="#FFFFFF" d="M239.102,427.371c-1.688-1.549-16.461-15.32-35.097-40.668c-16.037,2.912-35.393,10.848-44.115,15.326
		l-15.25,7.859l-6.342-17.156l-8.989,2.854l-10.672-28.787c-25.734-69.404-29.492-79.555-30.219-81.639L76.7,253.633
		c0,0,7.845,3.004,10.229,3.912l-9.067-22.86l34.982,16.727c0.097,0.053,8.501,4.047,19.629,8.883
		c-5.11-12.926-10.743-28.434-15.869-47.438c-11.464-42.494-17.692-90.017-17.754-90.483l-2.929-22.755l66.473,18.606
		c21.188-24.969,53.643-39.823,87.188-39.823c33.408,0,65.787,14.76,86.982,39.57l66.111-18.341c0,0-2.797,22.362-2.822,22.618
		c-0.238,1.948-6.096,47.969-17.098,90.041c-4.625,17.709-9.451,32.78-15.803,49.24c9.688-4.426,15.893-7.867,15.963-7.91
		l37.699-21.078l-9.682,23.929c3.117-1.361,12.57-5.5,12.57-5.5l-15.434,36.182c-19.088,44.717-38.84,91.129-39.699,93.314
		l-5.467,13.943l-6.986-2.373l-6.885,16.646l-14.891-8.229c-7.354-4.062-22.1-11.139-39.654-13.775
		c-18.373,24.748-33.162,38.939-34.826,40.498l-10.202,9.537L239.102,427.371z"/>
	<path fill="#071921" d="M386.756,260.49c-0.184,0.098-14.811,8.219-34.172,15.602c8.736-20.771,15.635-39.31,22.559-65.797l0,0
		c10.932-41.779,16.838-88.559,16.9-89.029l1.365-10.905l-10.592,2.936c0,0-130.375,36.161-134.201,37.225
		c-3.819-1.073-143.375-40.127-143.375-40.127l1.414,10.973c0.062,0.462,6.149,47.205,17.546,89.446
		c6.897,25.559,14.868,45.29,22.704,64.02c-18.623-7.352-37.222-16.207-37.457-16.324l-16.867-8.062l6.893,17.382
		c16.58,41.779,25.018,64.701,35.697,93.723l13.771,37.283l7.346-3.797c10.972-5.637,33.686-14.674,51.248-16.828
		c20.208,28.197,36.141,42.701,36.838,43.328l4.994,4.498l4.914-4.596c0.711-0.66,16.932-15.973,36.652-43.203
		c20.475,2.104,38.062,10.385,47.025,15.334l7.178,3.965l3.137-7.584c8.15-19.703,48.445-119.316,48.855-120.322l7.807-19.306
		L386.756,260.49z"/>
	<path fill="#FFFFFF" d="M401.453,265.359c-0.344,0.143-32.607,13.873-58.998,20.438c10.299-23.76,19.275-45.114,27.566-76.807l0,0
		c10.846-41.444,16.709-87.899,16.771-88.363l0.396-3.206l-3.117,0.861c0,0-134.441,37.289-135.591,37.61
		c-1.146-0.321-137.244-38.417-137.244-38.417l0.416,3.228c0.059,0.466,6.102,46.856,17.407,88.757
		c7.409,27.449,16.109,48.191,24.527,68.255c0,0,1.479,3.543,2.775,6.645c-22.818-5.773-53.747-16.619-54.078-16.732l-4.356-1.541
		l1.624,4.324c13.56,36.07,20.497,55.443,27.846,75.951l14.896,41.27l1.966-0.617c21.047-6.555,48.265-11.744,65.327-13.922
		c19.662,28.463,37.961,44.459,38.146,44.621l1.441,1.248l1.421-1.279c0.168-0.164,17.584-16.043,37.801-44.379
		c17.531,1.168,50.168,8.547,62.561,13.451l1.98,0.781l0.812-1.951c8.145-19.678,50.09-116.408,50.512-117.387l2.156-4.971
		L401.453,265.359z"/>
	<path fill="#C5CED3" d="M335.105,291.93l1.686-3.893c11.387-26.27,20.389-47.018,29.059-80.141l0,0
		c9.141-34.912,14.725-73.411,16.242-84.589c-5.994,1.658-133.025,36.894-133.025,36.894l-0.578,0.163
		c0,0-126.082-35.294-132.108-36.976c1.576,11.207,7.34,49.688,16.854,84.946c7.33,27.168,15.977,47.782,24.339,67.709l6.044,14.482
		l48.042,77.961l0.744,1.084c16.492,24.109,32.077,39.268,36.727,43.572c4.518-4.336,19.516-19.375,36.489-43.324l0.684-0.969
		L335.105,291.93z"/>
	<path fill="#071921" stroke="#071921" stroke-width="0.565" stroke-linejoin="round" d="M267.957,374.475l9.971-2.418
		l-10.217-0.969c-0.441-0.045-9.926-0.93-14.621-0.898c-0.602-1.857-4.583-14.09-4.583-14.09l-1.71,4.719
		c-0.101,0.281-2.218,6.148-3.317,9.432c-5.476-0.051-12.783,0.727-13.118,0.75l-10.656,1.146l10.479,2.26
		c3.154,0.68,9.655,2.957,10.329,5.742c-0.82,3.25-3.052,8.973-3.076,9.037l-2.08,5.312c0,0,11.452-8.031,13.036-9.141
		c1.584,1.107,12.744,8.939,12.744,8.939s-4.621-13.203-5.008-14.307C257.129,378.16,262.82,375.727,267.957,374.475z"/>
	<path fill="#006CB4" d="M390.619,273.941c-0.656,0.289-66.527,28.703-142.014,28.379h-0.002
		c-66.457-0.287-141.801-28.775-142.554-29.064l-15.914-6.08l5.663,15.242c0.106,0.404,0.106,0.404,35.721,96.469l2.567,6.918
		l7.029-2.229c15.686-4.98,57.537-16.564,107.21-16.564c46.161,0,86.478,9.518,103.017,15.139l6.99,2.367l2.723-6.934
		c1.004-2.547,24.342-57.32,39.785-93.529l7.65-17.938L390.619,273.941z"/>
	<path fill="#FFFFFF" d="M391.344,283.262l-6.721,2.455c0,0-14.855,5.422-14.967,5.467c-0.699,0.213-6.094,1.945-10.33,5.5
		c-1.465,1.227-2.949,2.988-4.268,4.812c0.268-0.738,0.414-1.178,0.432-1.209l1.998-5.541l-5.695,1.523l-13.535,3.596l-0.002,0.01
		c-1.293,0.287-10.439,2.283-13.215,2.896l-3.127,0.516l-15.84,2.664c-0.672,0.107-6.789,1.189-10.002,4.402
		c-0.705,0.719-1.318,1.504-1.859,2.338l0.9-5.326l-3.998,0.375l-12.812,1.205l-0.416,3.322c-0.324-0.404-0.719-0.805-1.178-1.158
		c-2.434-1.879-6.445-1.83-7.627-1.77c-0.033,0-18.758,0.492-18.758,0.492v0.021l-15.149-0.102
		c-0.624,0.021-5.383,0.217-8.664,3.324c-0.5,0.477-0.932,1.012-1.301,1.588c-0.073-1.803-0.118-2.881-0.118-2.881l-0.104-2.699
		c0,0-15.315-1.391-15.875-1.434v-0.018l-18.504-2.359l0.829,4.203l0.213,1.082c-4.222-4.9-10.823-6.641-11.126-6.719
		c-0.086-0.021-19.049-4.312-19.049-4.312l1.225,4.881l0.913,3.619c-0.551-0.971-1.139-1.883-1.755-2.67
		c-2.771-3.531-5.145-6.178-10.473-8.117c-4.655-1.693-14.176-3.938-14.58-4.037l-5.4-1.266l0.01,0.039
		c-4.884-2.115-15.644-5.648-19.298-6.836l-6.051-1.969l2.208,5.971l31.354,84.775c0,0,12.317-3.408,12.958-3.592
		c0,0.006,0.005,0.029,0.005,0.029s12.884-3.078,13.824-3.303c0.653-0.117,13.516-2.439,13.516-2.439l-0.021-0.068
		c3.569-0.545,10.788-1.654,11.506-1.766c0.584-0.086,6.831-0.975,10.273-1.477l0.005,0.027c0,0,13.003-1.344,13.057-1.35
		c1.381-0.092,5.627-0.514,7.875-2.312c0.842-0.662,1.501-1.391,2.026-2.113l0.189,3.566l15.34-0.498l0.109-0.012
		c0.47-0.061,4.703-0.549,7.377-3.139c0.327-0.312,0.618-0.645,0.882-0.99l-0.157,3.936c0,0,11.792,0.303,12.375,0.318v0.02
		l14.023,0.359l0.006-0.01l10.125,0.783l12.877,1.395c0.502,0.057,4.971,0.453,9.133-1.836c0.375-0.205,0.732-0.428,1.072-0.684
		l-1.066,3.639l13.111,2.225c0,0,0.02-0.053,0.027-0.057c0.438,0.082,9.463,1.723,11.646,2.119l1.438,0.393
		c0.277,0.072,6.672,1.777,11.738,1.174c6.025-0.734,12.18-5.633,14.963-11.916l13.043-30.141l-0.061,0.006
		C373.072,325.703,391.344,283.262,391.344,283.262z"/>
	<polygon fill="#071921" points="276.434,355.395 281.799,312.529 290.42,311.713 282.99,355.896 	"/>
	<path fill="#071921" d="M299.375,357.377c-0.799,0-1.311-0.061-1.334-0.062l-9.344-0.957l6.104-33.5
		c0.02-0.104,0.916-6.459,4.209-9.766c2.379-2.391,7.814-3.299,7.873-3.309l14.379-2.445l-6.229,22.232l-8.539,0.225l3.834-16.389
		l-1-0.035c-0.383,0-3.09,0.092-4.959,2.83c-1.535,2.246-2.619,6.396-2.662,6.574l-6.902,31.709c0,0,0.984,0.053,0.998,0.053
		c0.967,0,3.443-0.17,4.861-2.109c1.529-2.059,1.838-4.121,1.859-4.207l1.887-9.061h7.926c-0.613,2.561-2.24,9.215-2.908,11.158
		c-0.684,1.984-2.004,4.613-4.418,5.857C303.086,357.164,300.885,357.377,299.375,357.377z"/>
	<path fill="#071921" d="M322.967,361.047l5.953-18.336c0.006-0.006,0.676-1.609,0.676-3.135c0-1.547-1.203-2.375-1.92-2.617
		l-0.137-0.047l-2.84,0.061l-7.344,23.113l-5.383-0.867l15.371-52.996l7.07-1.521l-8.664,27.535l1.117,0.006
		c0.168,0,1.488-0.006,2.875-0.277c0.979-0.182,1.914-0.988,3.094-2.699c1.209-1.76,1.746-4.107,1.768-4.207l6.795-21.938
		l9.846-2.459c-1.967,5.414-8.66,23.891-9.15,25.316c-0.123,0.369-0.227,0.732-0.324,1.102c-0.35,1.283-0.676,2.488-2.303,4.062
		c-1.957,1.896-3.396,1.979-3.41,1.979l-1.635,0.055l1.01,1.279c0.012,0.016,1.188,1.502,1.521,3.986
		c0.16,1.188-0.535,3.707-0.816,4.578l-6.562,19.264L322.967,361.047z"/>
	<path fill="#071921" d="M342.631,364.484c-2.92,0-6.047-0.676-7.514-1.037l7.484-20.172h5.58l-6.846,17.43l1.33-0.129
		c0.133-0.012,3.199-0.336,5.379-3.041c2.092-2.611,2.689-5.729,2.725-5.861l5.479-14.436h-11.916
		c1.234-3.342,4.811-13.096,5.297-15.197c0.248-1.088,1.27-4.039,4.74-11.896c0.898-2.031,4.479-7.971,7.457-10.465
		c3.832-3.207,9.01-4.77,9.062-4.787l13.287-4.855l-14.082,33.23l-8.727,0.453l8.117-21.855l-2.131,1.467
		c-0.139,0.088-3.336,2.287-4.717,4.002c-2.102,2.619-5.045,9.689-5.176,9.98l-4.746,13.816l14.105-0.707
		c-1.885,4.391-8.367,19.438-10.535,24.344c-2.514,5.678-7.867,9.146-11.854,9.633C343.861,364.453,343.252,364.484,342.631,364.484
		z"/>
	<path fill="#071921" d="M112.536,289.396c4.402,1.496,16.342,5.592,18.439,6.748c2.794,1.539,5.994,5.047,6.026,5.082l1.387-0.812
		l-0.983-2.951c2.892,0.752,9.358,2.486,12.752,3.648c3.527,1.203,6.101,3.191,8.615,6.623c2.796,3.816,5.296,11.277,5.318,11.348
		l10.974,42.371l-7.212,1.434l-13.249-45.941c-0.029-0.117-0.902-3.438-3.201-7.336c-2.438-4.127-4.963-4.244-5.243-4.244h-1.106
		l17.556,58.648l-7.536,1.748c-1.849-5.74-14.141-43.857-14.921-46.883c-1.021-3.932-2.662-7.918-5.179-12.545
		c-3.009-5.537-6.732-5.902-6.889-5.92l-1.246-0.104l22.63,66.797l-7.418,2.072L112.536,289.396z"/>
	<path fill="#071921" d="M166.79,304.682l12.785,2.629c0.031,0.01,6.881,1.82,10.047,6.73c1.806,2.803,3.298,10.26,3.309,10.338
		l6.397,33.309l-6.055,0.807l-4.009-20.918l-6.739-0.076l5.398,21.764l-7.077,1.18L166.79,304.682z M181.786,333.934h6.195
		l-2.796-13.729c-0.042-0.428-0.577-4.857-2.437-6.664c-1.847-1.801-4.868-2.465-4.997-2.492l-1.256-0.277L181.786,333.934z"/>
	<path fill="#071921" d="M195.56,309.807l10.185,1.318l5.148,42.719l0.588,0.125c0,0,0.185,0.045,0.492,0.045
		c0.647,0,1.909-0.174,3.079-1.365c1.902-1.941,1.664-5.436,1.654-5.58l-3.544-35.137l8.315,0.812l1.246,37.424
		c0,0.094-0.034,2.861-2.525,4.826c-0.795,0.629-3.773,1-5.633,1.061l-9.728,1.021L195.56,309.807z"/>
	<path fill="#071921" d="M226.966,324.211c-0.003-0.062-0.291-5.973,2.295-8.43c2.245-2.123,5.938-2.246,5.976-2.246l13.757,0.285
		l-1,16.275H240.8v-12.4l-0.722-0.088c0,0-0.347-0.043-0.86-0.043c-0.986,0-2.368,0.152-3.351,0.893
		c-1.545,1.172-1.475,3.27-1.47,3.361l0.011,12.938l13.228-0.127l-0.168,2.553h-12.793l-0.05,15.441c0,0,0.814,0.01,0.82,0.01
		c1.256,0,3.329-0.127,4.201-0.967c1.309-1.27,1.221-3.678,1.207-3.943l-0.048-6.02l6.548-0.057l-0.201,6.092
		c-0.003,0-0.409,3.174-2.146,4.846c-1.755,1.711-5.023,2.057-5.056,2.059l-11.383,0.447L226.966,324.211z"/>
	<path fill="#071921" d="M265.031,354.807l0.996-13.115c0.006-0.062,0.123-1.699-0.848-3.107c-0.666-0.971-1.736-1.486-3.074-1.486
		c-0.885,0-1.582,0.227-1.658,0.254l-0.523,0.176l-1.016,17.143l-6.4-0.17l1.588-40.684l15.611-0.357
		c0.793,0,3.471,0.082,4.539,1.211c1.496,1.568,1.057,4.441,1.051,4.475l-0.984,9.771c0,0.098-0.033,2.543-1.498,4.191
		c-1.367,1.547-2.248,1.652-2.26,1.652l-0.146,1.623c0.01,0.002,1.354,0.344,1.891,1.545c0.582,1.316,0.434,3.209,0.318,3.822
		l-1.312,13.336L265.031,354.807z M261.307,316.334l-0.93,17.574l3.77,0.117c0.24-0.021,1.264-0.17,2.023-1.27
		c0.693-1.008,0.713-2.5,0.713-2.67l0.562-10.723c0.031-0.258,0.146-1.822-0.857-2.561c-0.684-0.494-1.645-0.57-2.152-0.57h-0.027
		L261.307,316.334z"/>
	<path fill="#071921" d="M267.957,374.475l9.971-2.418l-10.217-0.969c-0.441-0.045-9.926-0.93-14.621-0.898
		c-0.602-1.857-4.583-14.09-4.583-14.09l-1.71,4.719c-0.101,0.281-2.218,6.148-3.317,9.432c-5.476-0.051-12.783,0.727-13.118,0.75
		l-10.656,1.146l10.479,2.26c3.154,0.68,9.655,2.957,10.329,5.742c-0.82,3.25-3.052,8.973-3.076,9.037l-2.08,5.312
		c0,0,11.452-8.031,13.036-9.141c1.584,1.107,12.744,8.939,12.744,8.939s-4.621-13.203-5.008-14.307
		C257.129,378.16,262.82,375.727,267.957,374.475z"/>
	<path fill="#FFFFFF" d="M253.385,379.668c0.703-2.816,5.453-4.969,9.244-6.27c-3.723-0.307-8.605-0.668-10.893-0.662l-0.646,0.012
		c0,0-1.85-5.434-2.812-8.242c-0.871,2.441-2.152,6.057-2.684,7.75l-0.197,0.625l-0.655,0.008c-2.696,0.039-6.277,0.229-9.163,0.396
		c3.326,1.291,7.183,3.455,7.621,6.691l0.022,0.172l-0.038,0.156c-0.449,1.973-1.47,4.91-2.255,7.068
		c2.651-1.867,7.466-5.244,7.466-5.244s4.955,3.469,7.566,5.303c-0.998-2.854-2.629-7.508-2.629-7.508L253.385,379.668z"/>
	<path fill="#071921" d="M145.375,185.174c0,54.538,46.744,98.91,104.208,98.91c57.462,0,104.212-44.376,104.212-98.91
		c0-54.54-46.75-98.913-104.212-98.913C192.123,86.262,145.375,130.634,145.375,185.174z"/>
	<path fill="#FFFFFF" d="M150.544,185.174c0-51.692,44.427-93.744,99.038-93.744c54.611,0,99.033,42.052,99.033,93.744
		c0,51.688-44.422,93.744-99.033,93.744C194.971,278.918,150.544,236.864,150.544,185.174z"/>
	<path fill="#071921" d="M189.44,122.298l0.212-0.166c1.215-0.983,2.279-1.18,3.032-0.242c0.706,0.876,0.154,1.932-0.954,2.824
		l-0.208,0.167L189.44,122.298z M189.798,129.566l4.222-3.399c2.689-2.164,3.603-4.968,2.004-6.955
		c-1.971-2.453-5.123-1.53-8.2,0.943l-3.397,2.734L189.798,129.566z"/>
	<path fill="#071921" d="M214.318,110.514l-0.261-2.714l0.144-0.056c0.209,0.301,0.423,0.622,0.674,0.912l1.034,1.211
		L214.318,110.514z M214.377,112.687l2.995-1.224l0.767,0.844l4.196-1.708l-7.127-6.348l-4.385,1.789l-0.556,9.477l4.196-1.71
		L214.377,112.687z"/>
	<path fill="#071921" d="M235.028,98.989l4.252-0.48l0.652,5.779l3.57-0.398l0.311,2.734l-7.825,0.883L235.028,98.989z"/>
	<path fill="#071921" d="M259.412,98.5l4.234,0.615l-0.83,5.754l3.553,0.515l-0.4,2.725l-7.789-1.131L259.412,98.5z"/>
	<path fill="#071921" d="M285.27,110.892l1.764-2.083l0.143,0.063c-0.061,0.358-0.148,0.74-0.174,1.123l-0.156,1.583L285.27,110.892
		z M283.748,112.452l2.971,1.292l-0.066,1.135l4.154,1.812l-0.43-9.531l-4.338-1.89l-7.174,6.217l4.158,1.807L283.748,112.452z"/>
	<path fill="#071921" d="M305.066,122.316l0.09,0.235c0.314,0.817,0.803,1.676,1.561,2.304c0.324,0.271,0.924,0.602,1.168,0.301
		c0.248-0.295-0.162-0.684-0.43-0.974l-0.588-0.636c-1.154-1.228-1.781-2.674-0.932-3.71c1.299-1.567,3.986-0.817,5.961,0.816
		c1.035,0.853,1.838,1.822,2.398,2.952l-2.289,0.956c-0.334-0.748-0.787-1.497-1.498-2.08c-0.293-0.242-0.775-0.511-1.002-0.242
		c-0.201,0.25,0.176,0.626,0.395,0.879l0.648,0.737c1.205,1.381,1.77,2.763,0.842,3.883c-1.299,1.572-3.918,0.725-5.877-0.898
		c-1.141-0.946-2.279-2.267-3-3.489L305.066,122.316z"/>
	<path fill="#071921" d="M332.588,161.055c-0.572-0.596-1.928-1.384-1.928-1.384c-0.492-0.193-0.588-0.655-0.588-0.655
		c-0.271-1.671-0.631-2.285-0.631-2.285c-8.521-10.999-19.439-20.144-31.982-26.715c-2.227-1.016-4.256-1.114-4.256-1.114
		c-0.447,0.014-0.672-0.345-0.672-0.345c-0.738-1.046-2.959-2.181-3.801-2.578c-11.59-4.702-24.303-7.302-37.643-7.302
		c-4.05,0-8.042,0.241-11.949,0.706l5.156-6.91c-20.583-0.618-35.347,15.458-35.347,15.458l0.005,0.018
		c-4.941,2.304-9.665,4.983-14.107,8.022l0.011-0.019c-10.732,3.849-13.829,12.496-13.829,12.496
		c-2.724,2.271-8.099,9.418-8.099,9.418c-1.54,0.885-3.144,2.354-3.63,2.815c-2.479,2.565-6.996,8.36-9.409,18.346
		c-0.062,0.168-0.141,0.314-0.208,0.492c-0.098,0.561-0.201,1.191-0.291,1.812c-0.235,1.188-0.439,2.404-0.604,3.695l0.095-0.145
		c-0.036,0.268-0.062,0.426-0.062,0.426c-0.254,0.168-1.797,6.324-1.797,6.324c-0.255,0.768-3.054,9.195-3.054,9.195l-0.019-0.018
		c0,0.018-0.005,0.041-0.01,0.057c-7.365,25.767,2.431,41.389,4.099,43.783c13.026,37.915,49.76,65.229,93.042,65.229
		c33.012,0,62.229-15.896,80.018-40.271h-0.01c0.506-0.797,0.752-2.416,0.752-2.416c0.021-0.527,0.418-0.773,0.418-0.773
		c1.367-0.736,1.846-1.234,1.902-1.311c9.514-14.729,15.012-32.152,15.012-50.836C349.195,194.578,343.074,176.265,332.588,161.055z
		"/>
	<path fill="#FFFFFF" d="M209.915,142.537c0.254-0.267,0.484-0.516,0.695-0.733c0.327-0.342,0.455-0.432,0.492-0.412
		c0.042-0.031,0.07-0.059,0.07-0.059c0.09-4.906,1.19-8.839,1.19-8.839c8.927-12.462,23.645-15.76,23.645-15.76
		c1.828-0.522,0.643,0.287,0.643,0.287c-9.263,10.375-8.298,18.952-8.298,18.952l8.836,32.27c0,0-7.167-2.528-12.693-13.853
		c-2.544,22.615,18.781,40.952,18.781,40.952c0.927,0.797-0.535-0.062-0.535-0.062c-5.333-2.668-11.485-8.295-13.166-9.863
		c0.446,1.75,10.828,53.938,10.86,54.098c0.045,0.258,0.201,0.742,0.299,1.086l3.605-8.941l2.96,26.354
		c-13.519,12.592-27.919,7.598-28.818,7.273c0.361,0.562,0.626,0.971,0.632,0.971c0,0,11.688,22.969,59.333,20.535
		c0,0,1.15,0,0.973,0.137c0.016,0.047-0.045,0.098-0.264,0.174c-0.893,0.322-2.307,0.547-2.307,0.547
		c-57.509,15.365-87.303-33.648-88.596-35.836c-0.368-0.508-3.155-4.43-4.711-8.391c-0.05-0.117-0.12-0.502,0.148-0.201
		c0,0,6.106,6.357,23.381,7.93c0.123-0.02,0.198-0.025,0.198-0.025c-13.351-14.886-19.031-25.67-19.865-27.315
		c-0.002,0-0.011,0-0.016,0c0,0-1.609-2.42-3.505-9.258c0,0,0.048-0.348,0.21,0c0.649,1.354,5.075,7.885,10.441,9.331
		c0.004,0,0.015-0.009,0.015-0.009c-4.563-7.354-7.396-18.99-7.76-20.695c6.217,8.697,17.233,9.32,17.233,9.32
		c-0.018-0.021-0.045-0.05-0.069-0.08c0.024,0.045,0.041,0.062,0.041,0.062c-18.118-18.072-14.209-37.752-6.863-51.945
		C201.475,152.132,207.005,145.651,209.915,142.537z"/>
	<path fill="#C5CED3" stroke="#071921" stroke-width="0.565" d="M256.637,235.777l6.119-31.736c0.631-3.107,0.273,0.055,0.273,0.055
		l-3.479,33.07l7.611,26.28l-14.781,11.348c-1.521,1.182-0.352-0.234-0.352-0.234l11.857-12.471L256.637,235.777z"/>
	<path fill="#C5CED3" d="M260.49,198.941c-1.311,0.629-0.061-0.25-0.061-0.25c6.361-4.238,7.443-23.297,7.578-26.481
		c0.018-0.361,0.18,0,0.18,0C275.047,193.519,260.49,198.941,260.49,198.941z"/>
	<path fill="#C5CED3" d="M266.57,145.395c0,0-1.418-4.745-2.734-6.357c0,0,7.584-4.225,17.646-0.857c0,0,0.291,0.128-0.031,0.112
		C279.57,138.282,271.184,137.957,266.57,145.395z"/>
	<path fill="#C5CED3" d="M308.281,284.42c0,0-40.777,34.615-93.39,9.826c0,0-28.77-10.959-42.333-39.506
		c-11.221-17.408-13.094-30.924-12.905-43.917c0,0-0.063-3.239,0.29-0.628c0,0,2.383,15.555,8.169,24.393
		c0,0,1.649,3.27,0.451-0.249c0,0-3.872-14.583-3.896-24.552c0,0-6.951-26.631,8.236-41.773c0,0-3.965,8.902-4.126,16.546
		c0,0-0.261,2.881,0.402,0.076c0,0,3.156-12.448,13.237-23.883c0,0,3.579-11.394,9.305-15.769c0,0-2.741,4.803-2.774,8.239
		c0,0,9.984-12.589,16.48-14.457c0,0-28.692,25.015-23.006,68.196c0,0-6.878-10.951-2.652-32.965c0,0-21.381,25.554,11.204,66.173
		c0,0-10.542-1.966-18.737-17.842c0,0,0.675,43.027,48.025,67.863c0,0,38.792,22.354,87.436-6.193
		C307.693,284.006,312.713,280.77,308.281,284.42z"/>
	<path fill="#006CB4" stroke="#006CB4" stroke-width="0.565" d="M253.35,126.703c43.373,0.002,66.434,30.996,66.434,30.996
		c1.863,2.169-3.436,2.76-3.436,2.76c-30.434,4.247-45.061-9.085-45.061-9.085c2.473-6.727,15.578-12.801,15.578-12.801
		c-12.973-7.503-24.787-1.942-24.787-1.942c-3.777-4.718-9.797-9.342-9.797-9.342C250.996,126.513,253.35,126.703,253.35,126.703z"
		/>
	<path fill="#006CB4" stroke="#006CB4" stroke-width="0.565" stroke-linejoin="round" d="M273.008,201.234
		c28.996,27.461,19.211,73.374,19.211,73.374c-0.516,1.572-2.205,1.996-2.205,1.996c-20.301,4.502-33.637,0.281-33.637,0.281
		l14.695-11.814l-7.422-27.533l2.035-18.372C272,221.058,272,236.904,272,236.904C283.848,212.068,273.008,201.234,273.008,201.234z
		"/>
	<path fill="#006CB4" stroke="#006CB4" stroke-width="0.565" d="M326.49,255.59c0,0-11.074,14.082-27.475,19.395
		c0,0-2.609,0.996-1.984-1.727c0,0,12.238-47.417-20.209-78.987c0,0-1.504-0.994,0.395-0.5c0,0,5.305,1.609,8.686,5.795
		c0,0-0.543-9.314-6.861-16.582c0,0-1.785-1.887,0.098-0.471c0,0,47.299,22.377,48.908,68.006
		C328.045,250.52,328.398,253.99,326.49,255.59z"/>
	<path fill="#006CB4" stroke="#006CB4" stroke-width="0.565" stroke-miterlimit="5" d="M331.98,241.876
		c-1.221-49.925-63.479-78.583-63.479-78.583c7.508-0.059,11.527,5.436,11.527,5.436c0.172-2.475-0.908-5.436-0.908-5.436
		c14.766,5.623,41.791,0.182,41.791,0.182c3.186-0.274,3.92,1.54,3.92,1.54c5.928,6.584,13.318,21.996,14.553,40.49
		C341.123,231.693,332.168,249.369,331.98,241.876z"/>
	<path fill="#071921" d="M230.417,121.271c0.032-0.035,0.053-0.071,0.085-0.113c0,0-0.011,0.005-0.026,0.005l0,0
		c-0.529,0.149-10.03,2.953-12.846,17.451c0,0-0.019,0.267,0.137,0.021c0.849-1.414,3.828-5.905,6.56-4.569
		c0,0,0.005-0.112,0.03-0.289C224.505,132.54,225.398,127.504,230.417,121.271z"/>
	<path fill="#071921" d="M223.131,252.297c-2.058-4.129-15.252-32.95-15.252-32.95c-4.105,1.312-9.204-2.029-9.204-2.029
		c0.002,0,0.002,0.006,0.002,0.012c6.492,17.243,21.779,32.322,24.213,35.063c0.011,0.02,0.022,0.029,0.033,0.043
		c0.417,0.451,0.412,0.283,0.412,0.283C223.295,252.627,223.22,252.477,223.131,252.297z"/>
	<path fill="#071921" d="M229.365,249.755l2.812,6.163c0,0,1.6-16.542,7.939,3.398C240.117,259.316,237.269,231.074,229.365,249.755
		z"/>
	<path fill="#071921" d="M210.043,158.431c-11.914,27.225,14.896,38.448,15.248,38.592h0.01l-1.421-6.266l-0.811-3.589
		c-0.67-0.216-1.296-0.476-1.904-0.737c-0.209-0.094-0.406-0.188-0.607-0.283c-0.254-0.127-0.499-0.244-0.739-0.369
		c-11.71-6.221-10.573-21.138-9.856-25.982c0.006-0.033,0.008-0.062,0.017-0.089c0.019-0.152,0.042-0.286,0.059-0.409
		c0.081-0.451,0.14-0.764,0.171-0.927c0.022-0.072,0.032-0.123,0.032-0.123c0-0.011,0-0.017,0-0.022
		C210.262,157.867,210.105,158.284,210.043,158.431z"/>
	<path fill="#C5CED3" d="M227.686,235.072l-1.929-34.213l11.49,38.146C237.247,239.005,233.481,229.988,227.686,235.072z"/>
	<path fill="#C5CED3" d="M228.38,136.715l2.547,20.453c0,0,1.243,5.59-6.427-2.794c0,0,3.731,9.379,11.399,13.387
		c0.436,0.227,0.879,0.439,1.334,0.626c0.045,0.015,0.09,0.045,0.135,0.059l-8.692-31.762c0,0-0.168-0.434-0.257-0.466
		C228.363,136.189,228.335,136.301,228.38,136.715z"/>
	<path fill="#C5CED3" d="M256.227,161.439c0,0,4.115-4.89,5.27-15.74c0,0,6.891,23.067-5.447,49.507
		c-0.07,0.16-0.168,0.197-0.107-0.057c0,0,5.846-19.896,5.424-36.896c0,0-3.586,11.416-5.766,13.588c0,0-4.043-14.091-9.944-18.655
		c0,0,6.382,23.79,5.349,40.168c0,0-0.094,0.595-0.17-0.033c-0.538-4.696-3.639-26.336-16.937-55.059
		C233.896,138.264,247.732,145.774,256.227,161.439z"/>
	<path fill="#C5CED3" d="M240.111,259.346c0.205-1.377,2.752-17.653-5.458-19.93c0,0-5.65-1.436-5.291,10.34
		C237.049,232.105,240.111,259.244,240.111,259.346z"/>
	<path fill="#071921" d="M216.183,173.793c0,0,1.587,5.269,8.479,5.562c0,0-0.286-0.405-0.718-1.172
		c-1.278-2.244-4.56-9.208-5.008-16.469C218.938,161.681,213.004,166.914,216.183,173.793z"/>
	<path fill="#C5CED3" d="M219.048,153.281c-0.332,5.708-0.103,8.53-0.103,8.53s-6.873,5.271-1.613,14.082
		C209.869,167.876,216.109,157.607,219.048,153.281z"/>
</g>
</svg>
