<?xml version="1.0" encoding="utf-8"?>
<!-- Generator: Adobe Illustrator 16.0.0, SVG Export Plug-In . SVG Version: 6.00 Build 0)  -->
<!DOCTYPE svg PUBLIC "-//W3C//DTD SVG 1.1//EN" "http://www.w3.org/Graphics/SVG/1.1/DTD/svg11.dtd">
<svg version="1.1" id="content" xmlns="http://www.w3.org/2000/svg" xmlns:xlink="http://www.w3.org/1999/xlink" x="0px" y="0px"
	 width="500px" height="500px" viewBox="0 0 500 500" enable-background="new 0 0 500 500" xml:space="preserve">
<rect id="position" x="0.5" y="0.5" display="none" fill="none" stroke="#000000" width="499" height="499"/>
<g>
	<path fill="#EDAE36" d="M382.475,229.248c-43.13-0.404-56.03-30.487-59.516-53.759h-30.542
		C286.766,189.592,250.026,204,250.026,204s-36.738-14.408-42.391-28.511h-30.542c-3.507,23.43-16.508,53.761-60.344,53.761
		c-0.046,0-0.088,0-0.133,0v240.83h265.856L382.475,229.248L382.475,229.248z"/>
	<rect x="116.617" y="269.712" fill="#002E61" width="265.875" height="10.345"/>
	<rect x="116.617" y="280.057" fill="#5391CB" width="265.875" height="10.346"/>
	<rect x="116.617" y="301.902" fill="#002E61" width="265.875" height="10.346"/>
	<rect x="116.617" y="312.248" fill="#5391CB" width="265.875" height="10.345"/>
	<path opacity="0.2" fill="#212121" enable-background="new    " d="M305.061,206.412c-1.539,0-2.791-1.252-2.791-2.792v-14.099
		c0-1.54,1.252-2.792,2.791-2.792h4.184c1.539,0,2.792,1.252,2.792,2.793v14.098c0,1.54-1.253,2.792-2.792,2.792H305.061z"/>
	<path fill="#FFFFFF" d="M305.188,204.513c-1.443,0-2.621-1.176-2.621-2.623v-13.239c0-1.446,1.178-2.623,2.621-2.623h3.93
		c1.443,0,2.621,1.176,2.621,2.623v13.239c0,1.446-1.178,2.623-2.621,2.623H305.188z"/>
	<path fill="#C00033" d="M307.151,203.213h1.964c0.729,0,1.319-0.592,1.319-1.323v-13.239c0-0.73-0.592-1.323-1.319-1.323h-1.964"/>
	<path fill="#006CB3" d="M309.332,203.213c0,0-0.036-0.939-0.431-3.272l-1.75-1.812v-10.8h-1.964c-0.729,0-1.321,0.592-1.321,1.323
		v13.239c0,0.731,0.592,1.323,1.321,1.323h1.964L309.332,203.213L309.332,203.213z"/>
	<path opacity="0.2" fill="#212121" enable-background="new    " d="M309.679,195.18c-0.05-0.058,0.049-0.09-0.289-0.167
		c-0.062-0.035-0.11-0.529-0.11-0.529c-0.052-0.317-0.163-0.536-0.332-0.872c-0.085-0.173-0.125-0.71-0.216-0.984
		c0.051-1.255-0.353-1.62-0.678-1.824c-0.123-0.079-0.185-0.137-0.307-0.208l-0.004-0.058c-0.095-0.09-0.286-0.187-0.443-0.257
		c-0.049-0.049-0.023-0.156,0.008-0.196c0.106-0.016,0.248-0.254,0.365-0.5c0.092,0.005,0.122-0.084,0.151-0.135
		c0.099-0.157,0.204-0.294,0.065-0.384c0.311-0.552,0.111-0.924-0.057-0.938c-0.067-0.139-0.185-0.225-0.392-0.298l-0.425-0.001
		c-0.438,0.168-0.501,0.36-0.518,0.969c-0.074,0.008-0.231-0.062-0.178,0.309c0,0,0.027,0.247,0.128,0.204
		c-0.097,0.652,0.017,0.703-0.661,0.732l-0.032,0.048c-0.675,0.065-0.888-0.02-1.456,1.138c0,0-0.147,0.358-0.19,0.507
		c-0.059,0.122-0.149,0.309-0.246,0.51v1.598c0.084,0.004,0.187,0.005,0.332,0.001v0.174c0,0-0.203,0.175-0.244,0.282
		c-0.021,0.048-0.057,0.188-0.088,0.344v0.883c0.143,0.506,0.505,0.968,0.635,1.498l0.352,0.049c0.199,0.45,1.062,1.672,1.236,1.833
		c0.041,0.113,0.26,0.253,0.388,0.393c0.105,0.1,0.729,0.782,1.459,1.201c-0.004,0,0.118,0.244,0.18,0.44
		c-0.243,0.195,0.225,0.552,0.367,1.142c0.011,0.077-0.136,0.159,0.08,0.352c-0.005,0.309-0.041,0.563-0.064,0.779h0.62h0.117
		c-0.047-0.228-0.14-0.452-0.188-0.624c-0.008-0.022,0.01-0.052,0.021-0.071c0.029-0.056-0.032-0.182-0.032-0.182
		c-0.069-0.063-0.09-0.398-0.129-0.548c-0.062-0.254,0.109-0.689,0.109-0.838c0-0.146-0.109-0.349-0.314-0.609
		c-0.05-0.056-0.195-1.323-0.327-1.644c-0.187-0.442-0.242-0.373-0.455-0.898c-0.171-0.373-0.039-0.92-0.419-2.192
		c0.004,0.005,0.086-0.08,0.086-0.08s-0.302-1.102-0.4-1.404c-0.1-0.301-0.271-0.323-0.271-0.323s0.001-0.123,0.008-0.155
		c0.015-0.049,0.368-0.969,0.397-0.998c0-0.022,0.51-0.366,0.52-0.317c0.042,0.226,0.24,1.37,0.323,1.553
		c0.087,0.185,0.38,0.746,0.519,1.094c-0.527,0.127-0.92,0.603-0.92,1.17c0,0.663,0.537,1.202,1.204,1.202
		c0.507,0,0.943-0.314,1.118-0.758l0.001-0.884c-0.038-0.097-0.089-0.192-0.155-0.282
		C309.926,195.244,309.731,195.248,309.679,195.18z"/>
	<path fill="#FFFFFF" d="M309.186,203.296c-0.236-0.14-0.225-0.344-0.167-0.816c0.024-0.201,0.055-0.436,0.06-0.71
		c-0.144-0.164-0.124-0.205-0.104-0.257l0.01-0.02l0.014-0.086c-0.065-0.271-0.19-0.488-0.29-0.662
		c-0.141-0.246-0.188-0.345-0.108-0.408c-0.019-0.233-0.098-0.407-0.135-0.489c-0.677-0.44-1.222-0.994-1.427-1.202
		c-0.117-0.122-0.184-0.178-0.244-0.231c-0.082-0.071-0.175-0.151-0.193-0.201c-0.18-0.177-1.041-1.395-1.238-1.839l-0.412-0.096
		c-0.004-0.226-0.143-0.491-0.276-0.748c-0.18-0.342-0.35-0.666-0.356-1.021c-0.006-0.228,0.107-0.748,0.149-0.847
		c0.023-0.062,0.146-0.185,0.224-0.251l0.028-0.235v-0.083l-0.286,0.006c-0.313,0-0.317-0.02-0.339-0.118
		c-0.01-0.048-0.022-0.114-0.058-0.191c-0.059-0.128-0.044-0.167-0.018-0.246c0.11-0.441,0.359-0.945,0.523-1.278l0.081-0.165
		c0.047-0.158,0.19-0.511,0.19-0.511c0.498-1.015,0.696-1.031,1.229-1.075l0.2-0.018l0.054-0.079c0.032,0,0.062,0,0.091,0
		c0.461,0,0.502-0.079,0.554-0.516l0.052-0.391l-0.131,0.057c0.012-0.011-0.012-0.081-0.02-0.141
		c-0.022-0.172,0.004-0.21,0.007-0.214l0.17-0.013l0.002-0.07c0.019-0.617,0.089-0.751,0.468-0.896l0.395,0.006
		c0.163,0.062,0.265,0.137,0.319,0.253c0.089,0.046,0.129,0.071,0.162,0.134c0.07,0.135,0.083,0.398-0.104,0.73l-0.037,0.065
		l0.062,0.041c0.047,0.031,0.044,0.063-0.065,0.234l-0.102,0.139c-0.288,0.481-0.384,0.5-0.385,0.5
		c-0.106,0.096-0.138,0.248-0.055,0.331c0.229,0.107,0.376,0.193,0.445,0.259c0.086,0.107,0.134,0.143,0.185,0.179l0.14,0.095
		c0.343,0.215,0.686,0.592,0.639,1.753c0.046,0.155,0.076,0.338,0.106,0.515c0.034,0.218,0.065,0.406,0.115,0.507
		c0.176,0.344,0.278,0.553,0.325,0.849c0.053,0.532,0.12,0.569,0.152,0.587c0.198,0.048,0.229,0.072,0.231,0.076
		c0.062,0.108,0.105,0.128,0.149,0.147c0.08,0.036,0.112,0.056,0.112,0.119c0.075,0.127,0.124,0.216,0.161,0.311l-0.009,0.855
		c-0.159,0.394-0.579,0.678-1.036,0.678c-0.62,0-1.124-0.503-1.124-1.122c0-0.522,0.353-0.971,0.856-1.093l0.09-0.021l-0.033-0.086
		c-0.102-0.253-0.282-0.619-0.408-0.873l-0.111-0.226c-0.067-0.148-0.229-1.054-0.292-1.395l-0.037-0.205l-0.074-0.005
		c-0.022,0-0.067,0-0.323,0.167c-0.269,0.174-0.269,0.195-0.269,0.236l0,0c-0.031,0-0.392,0.966-0.395,0.975
		c-0.011,0.042-0.013,0.177-0.013,0.177l-0.001,0.072l0.071,0.008c0.003,0,0.126,0.026,0.206,0.268c0.099,0.301,0.399,1.4,0.399,1.4
		h-0.107l0.022,0.082c0.218,0.729,0.266,1.217,0.3,1.573c0.024,0.267,0.045,0.46,0.123,0.629c0.111,0.282,0.185,0.396,0.254,0.507
		c0.058,0.094,0.115,0.187,0.199,0.389c0.072,0.18,0.156,0.705,0.22,1.088c0.075,0.472,0.091,0.542,0.121,0.578
		c0.195,0.249,0.297,0.437,0.297,0.557c0,0.042-0.021,0.13-0.044,0.223c-0.049,0.201-0.11,0.45-0.065,0.634
		c0.016,0.05,0.024,0.12,0.035,0.193c0.032,0.208,0.056,0.338,0.118,0.395c0.003,0.018,0.019,0.072,0.015,0.089l-0.017,0.031
		l-0.007,0.1c0.017,0.058,0.04,0.127,0.063,0.201c0.134,0.385,0.297,0.862-0.13,1.132L309.186,203.296z"/>
	<path fill="#002E61" d="M173.829,175.318c-2.132,11.535-6.63,25.368-15.686,35.657c-7.805,8.87-23.31,14.538-41.526,15.209v6.007
		c20.221-0.701,36.991-6.98,46.03-17.252c10.165-11.551,15.101-26.923,17.325-39.621H173.829z"/>
	<path fill="#002E61" d="M382.475,226.113c-17.591-0.911-32.489-6.502-40.09-15.138c-9.056-10.29-13.554-24.123-15.686-35.657
		h-6.146c2.226,12.698,7.159,28.07,17.325,39.621c8.822,10.026,25.021,16.237,44.594,17.18L382.475,226.113L382.475,226.113z"/>
	<path fill="#5391CB" d="M305.404,291.286c-0.008-0.149-0.012-0.28-0.014-0.384C305.393,291.006,305.396,291.135,305.404,291.286z"
		/>
	<path fill="#5391CB" d="M236.274,319.154c-0.098,0.191-0.199,0.371-0.302,0.552C236.075,319.527,236.176,319.346,236.274,319.154z"
		/>
	<path fill="#5391CB" d="M214.186,322.559c-0.084,0.084-0.171,0.162-0.257,0.241C214.013,322.727,214.097,322.646,214.186,322.559z"
		/>
	<path fill="#5391CB" d="M204.492,279.221c-0.01-0.018-0.02-0.031-0.031-0.05C204.471,279.188,204.482,279.205,204.492,279.221z"/>
	<path fill="#5391CB" d="M305.395,290.71c0-0.019,0-0.034,0-0.045C305.395,290.676,305.395,290.688,305.395,290.71z"/>
	<path fill="#FFFFFF" d="M207.98,330.032c-1.178-0.029-3.697-0.284-6.303-1.755l-0.5-0.282l-3.404,1.991h-11.889l-0.758-0.041
		h-12.882v-17.047l1.652-0.486l-0.145-26.228l-1.627,0.073v-18.177h15.047l4.591-4.84c0.153-0.16,15.772-16.333,33.576-19.787
		l1.067-0.208l23.649-19.423l22.642,19.12l0.616,0.06c1.359,0.131,13.833,1.811,33.21,20.122l5.565,5.275l0.211,0.07
		c0.82,0.271,1.603,0.608,2.327,1l0.38,0.205l6.134-2.033v29.996h-2.467l0.734,1.451c1.137,2.246,1.713,4.741,1.713,7.416v10.023
		c-0.01,0.605-0.132,3.835-1.565,6.453c-0.585,1.216-3.827,7.043-12.713,7.043c-0.749,0-3.406-0.094-6.139-1.307l-0.549-0.243
		l-1.834,1.435l-1.262-0.675v0.71H255.23l-1.314-1.662l-0.722,0.347c-1.822,0.876-3.802,1.339-5.727,1.339
		c-0.202,0-0.406-0.005-0.612-0.015c-0.848-0.014-5.097-0.229-8.692-3.259l-0.567-0.479l-2.633,1.713
		c-0.329,0.233-3.008,2.063-7.165,2.074l-0.502,0.001c-1.209-0.035-5.132-0.383-8.521-3.271l-0.57-0.486l-2.546,1.668
		c-0.53,0.34-3.392,2.063-7.01,2.108L207.98,330.032z"/>
	<path fill="#5391CB" d="M208.228,327.643c-0.946,0-4.1-0.188-6.928-2.492l-4.178,2.441h-9.429l-0.07-0.242l-0.389,0.201h-12.597
		v-12.859l1.551-0.459c0.041-0.116,0.136-0.438,0.104-1.086l-0.16-29.017c0.003-0.127-0.018-0.271-0.076-0.33
		c-0.044-0.045-0.175-0.094-0.408-0.094l-1.046,0.048l-0.085-1.045V270.48h21.588l-1.236-1.994l1.78-1.905h-4.751l1.6-1.688
		c0.607-0.642,15.085-15.747,32.294-19.083l0.645-0.125l0.28,0.409l23.315-19.149l22.213,18.757l0.302-0.362l0.525,0.051
		c0.51,0.049,12.685,1.414,31.802,19.479l1.807,1.707l-5.809,0.046l2.723,3.435h3.202c0.013-0.002,0.207-0.016,0.507-0.016
		c1.311,0,4.555,0.229,7.393,2.264l4.051-1.342v24.284h-6.04c0.891,0.639,1.766,1.303,2.207,1.741
		c0.454,0.394,3.812,3.5,3.812,9.521v10.02c-0.002,0.142-0.059,3.115-1.299,5.361l-0.021,0.043c-0.274,0.575-2.938,5.7-10.569,5.7
		h-0.001c-0.458,0-4.039-0.062-6.878-2.042l-1.87,1.465l-3.422-1.854v2.349h-14.973l-2.727-2.071v2.071h-20.578l-1.974-2.495
		c-1.233,0.967-3.724,2.52-6.981,2.52c-0.172,0-0.346-0.004-0.521-0.014c-0.002,0-0.005,0-0.008,0c-0.619,0-5.716-0.15-8.9-4.465
		l-4.41,2.867c-0.04,0.032-2.24,1.645-5.854,1.646c-0.014,0.002-0.125,0.009-0.294,0.009c-1.345,0-5.758-0.341-8.829-4.497
		c-1.175,0.773-3.296,2.172-4.28,2.796c-0.101,0.063-2.649,1.688-5.782,1.716C208.542,327.635,208.418,327.643,208.228,327.643z"/>
	<path fill="#5391CB" d="M235.671,320.205c-0.009,0.016-0.017,0.027-0.026,0.042C235.654,320.232,235.662,320.221,235.671,320.205z"
		/>
	<path fill="#5391CB" d="M305.393,290.873c0-0.062,0-0.113,0.002-0.15C305.393,290.76,305.393,290.811,305.393,290.873z"/>
	<path fill="#5391CB" d="M236.72,318.215c-0.124,0.287-0.254,0.561-0.386,0.823C236.466,318.775,236.596,318.503,236.72,318.215z"/>
	<path fill="#002E61" d="M308.534,284.741c0-0.013,0.041-1.337-0.63-2.015c-0.271-0.272-0.614-0.401-1.062-0.396
		c-0.057,0-1.408,0.047-1.447,2.684v5.631c0,0,0,0.016,0,0.021c-0.002,0.011-0.002,0.025-0.002,0.045c0,0.003,0,0.01,0,0.014
		c-0.002,0.037-0.002,0.088-0.002,0.149c0,0.01,0,0.021,0,0.03c0.002,0.103,0.006,0.231,0.014,0.383
		c0,0.025,0.004,0.052,0.006,0.079c0.003,0.044,0.006,0.088,0.01,0.136c0.312,0.114,3.14,1.044,3.14,1.044l-0.022-0.267
		L308.534,284.741L308.534,284.741z"/>
	<path fill="#002E61" d="M184.539,313.387c0.004,0.025,0.251,2.504,1.918,3.362l0.146,0.074v0.161v7.691l-0.015,0.264
		c0,0,2.163-0.67,2.93-0.944l-4.979-24.438C184.54,304.225,184.54,313.404,184.539,313.387z"/>
	<path fill="#FAB839" d="M204.46,279.171c0.011,0.019,0.021,0.032,0.031,0.05c0.131,0.211,0.207,0.33,0.207,0.33
		c0.001,0,0.276,0.43,0.276,0.43l0.455-0.229c20.57-10.557,43.866-9.951,44.847-9.921c25.287,1.104,42.531,11.096,42.697,11.196
		l0.467,0.277l5.32-8.377l1.485-2.341l0.301-0.485l-0.087-0.074c-0.241-0.286-2.411-2.859-5.449-5.926c0.418,0,5.352,0,5.352,0
		l-1.075-0.975c-1.474-1.322-14.681-12.99-25.347-14.968l-0.334-0.062l-0.213,0.273c0,0.001-0.562,0.74-0.869,1.139l0.076,0.064l0,0
		l0.625,0.531l0.717-0.932l0.072,0.04c4.038,2.177,11.896,8.2,11.946,8.244c4.833,3.372,9.756,8.593,12.263,11.403l-0.119,0.151
		c-2.063-1.051-4.234-2.063-6.453-3.018c-1.188-0.509-2.364-0.98-3.534-1.435c-22.257-8.635-40.907-7.676-41.106-7.664
		c-2.917,0.086-5.854,0.267-8.726,0.535c-3.061,0.277-6.159,0.686-9.208,1.207l0,0c-5.94,1.004-11.644,2.406-16.991,4.174
		c-0.717,0.236-1.429,0.479-2.133,0.729l-0.001,0.001c-4.082,1.452-7.111,2.833-8.934,3.736l-0.113-0.16
		c2.972-2.896,10.04-9.029,23.999-17.521l0.078-0.047l0.611,0.849l0.636-0.524l0,0l0.077-0.063
		c-0.288-0.401-0.779-1.087-0.779-1.087c-0.001,0-0.213-0.287-0.213-0.287l-0.351,0.068c-12.694,2.576-25.468,14.211-26.006,14.705
		c-0.004,0.004-1.041,0.976-1.041,0.976s4.342,0,4.79,0c-3.186,2.797-4.4,4.332-4.451,4.397l-0.244,0.304l0.208,0.34
		c0,0,1.073,1.709,2.346,3.734c0.014,0.021,0.028,0.045,0.042,0.066l0,0C202.093,275.4,203.836,278.178,204.46,279.171z
		 M286.396,256.878l-0.006-0.003c-0.051-0.039-5.246-4.042-9.457-6.756l0.086-0.176c8.475,2.924,18.002,10.734,20.722,13.059
		l0.202,0.174h-0.27l-3.896-0.029C291.073,260.516,288.589,258.406,286.396,256.878z M200.282,263.27l0.2-0.174
		c2.63-2.277,11.974-9.938,21.76-12.934l0.081,0.178c-7.355,4.579-13.485,8.921-18.284,12.93H200.282L200.282,263.27z
		 M199.199,269.053l0.089-0.049c3.134-1.762,20.162-10.583,47.756-11.379c1.041-0.053,25.779-1.121,52.117,12.75l0.094,0.051
		l-6.114,9.631l-0.082-0.045c-3.024-1.674-19.312-10.078-42.732-11.104c-0.235-0.01-23.786-0.869-44.938,9.83l-0.08,0.041
		L199.199,269.053z"/>
	<path fill="#5391CB" d="M297.941,263.176l-0.201-0.174c-2.719-2.324-12.247-10.135-20.721-13.059l-0.086,0.176
		c4.211,2.714,9.405,6.717,9.457,6.756l0.004,0.003c2.192,1.528,4.679,3.638,7.383,6.269l3.896,0.029H297.941L297.941,263.176z"/>
	<path fill="#5391CB" d="M222.323,250.34l-0.081-0.178c-9.786,2.994-19.129,10.656-21.76,12.934l-0.2,0.174h3.757
		C208.838,259.261,214.968,254.919,222.323,250.34z"/>
	<path fill="#5391CB" d="M290.316,270.672c0,0,0.347-0.812-1.045-1.273l-2.929-1.119l-0.604,1.518l3.184,1.262
		C288.923,271.055,289.995,271.6,290.316,270.672z"/>
	<path fill="#5391CB" d="M214.178,271.323c0,0,2.054-0.815,1.389-2.939c0,0-0.546-1.854-3.045-1.149l-2.619,0.98l1.517,4.135
		L214.178,271.323z"/>
	<path fill="#5391CB" d="M205.386,278.739c21.152-10.7,44.703-9.841,44.938-9.831c23.421,1.025,39.708,9.43,42.734,11.104
		l0.082,0.045l6.112-9.631l-0.094-0.051c-26.339-13.871-51.076-12.803-52.117-12.75c-27.594,0.796-44.622,9.617-47.756,11.379
		l-0.089,0.049l6.107,9.729L205.386,278.739z M281.331,272.8c0.231,0.099,0.303-0.128,0.303-0.128l2.638-6.697
		c0.006-0.129-0.193-0.178-0.193-0.178l0.062-0.145l7.09,2.812c2.83,1.315,1.736,3.375,1.736,3.375
		c-0.826,1.697-3.273,1.274-3.273,1.274l1.152,3.332c0.104,0.062,0.145,0.141,0.145,0.141l-0.039,0.082l-3.299-1.232l0.039-0.117
		c0.268,0.097,0.381-0.202,0.381-0.202c-0.064-0.228-1.164-3.128-1.164-3.128l-1.76-0.69l-0.928,2.384
		c-0.104,0.221,0.141,0.321,0.141,0.321l-0.061,0.162l-3.025-1.199L281.331,272.8z M268.044,268.953
		c0.247,0.068,0.282-0.168,0.282-0.168l1.704-6.991c-0.009-0.132-0.216-0.151-0.216-0.151l0.035-0.147l8.678,2.071
		c0,0,0.39,0.164,0.514-0.199l0.13,0.018l-0.549,2.359l-0.095-0.028c0,0-0.008-0.267-0.193-0.442l-5.959-1.398l-0.318,1.281
		l3.547,0.822c0,0,0.371,0.062,0.52-0.199l0.148,0.014l-0.522,2.127l-0.138-0.034c0,0,0.006-0.157-0.172-0.305l-3.75-0.921
		l-0.338,1.451l5.883,1.379c0,0,0.229,0.091,0.418-0.268l0.123,0.028l-0.565,2.354l-0.104-0.025c0,0-0.109-0.368-0.303-0.354
		l-8.798-2.1L268.044,268.953z M253.326,259.495l3.641,0.282l-0.021,0.182c-0.131-0.014-0.231,0.051-0.221,0.166
		c0.015,0.117,0.034,0.221,0.426,0.951l1.793,3.764l2.647-3.744c0.113-0.197,0.233-0.338,0.252-0.494
		c0.017-0.102-0.008-0.203-0.136-0.218l0.021-0.182l3.059,0.276l-0.02,0.18c-0.283-0.02-0.353,0.128-0.541,0.441l-3.93,6.146
		c-0.066,0.122-0.158,0.198-0.173,0.343c-0.011,0.143,0.031,0.168,0.12,0.188l-0.016,0.162l-3.529-0.367l0.021-0.18
		c0.18-0.019,0.075-0.236,0.075-0.236l-0.082-0.262l-2.891-6.664c-0.123-0.404-0.181-0.453-0.521-0.56L253.326,259.495z
		 M241.463,259.572v0.162c0,0-0.3,0.008-0.229,0.205c0.061,0.172,0.213,0.328,0.213,0.328l4.555,3.604l-0.223-4.096
		c0,0-0.022-0.228-0.275-0.197l-0.004-0.174l3.072-0.129l0.009,0.168c-0.253,0-0.253,0.238-0.253,0.238l0.323,7.068
		c0.043,0.119,0.285,0.098,0.285,0.098l0.03,0.156l-3.168,0.238l-0.011-0.126c0,0,0.299-0.007,0.227-0.202
		c-0.057-0.172-0.21-0.324-0.21-0.324l0.148,0.1l-5.633-4.347l0.277,4.761c0,0,0.037,0.229,0.29,0.203l-0.006,0.178l-2.987,0.121
		l-0.026-0.181c0.253,0.005,0.269-0.228,0.269-0.228l-0.322-7.065c-0.045-0.124-0.285-0.099-0.285-0.099l-0.032-0.158
		L241.463,259.572z M230.596,260.625c0,0,0.429-0.016,0.387-0.402l0.117-0.039l0.528,2.361l-0.098,0.023
		c0,0-0.124-0.245-0.368-0.324l-5.981,1.312l0.264,1.295l3.556-0.789c0,0,0.366-0.104,0.384-0.403l0.143-0.054l0.443,2.145
		l-0.138,0.031c0,0-0.064-0.145-0.285-0.201l-3.776,0.783l0.318,1.457l5.902-1.291c0,0,0.244-0.025,0.266-0.428l0.118-0.021
		l0.505,2.367l-0.103,0.018c0,0-0.261-0.279-0.426-0.182l-8.841,1.898l-0.042-0.17c0.25-0.048,0.188-0.272,0.188-0.272l-1.484-7.042
		c-0.065-0.109-0.259-0.04-0.259-0.04l-0.033-0.151L230.596,260.625z M212.658,265.359c4.643-1.096,5.395,2.037,5.395,2.037
		c1.132,3.514-2.468,5.131-2.468,5.131l-6.383,2.425l-0.079-0.161c0.243-0.082,0.181-0.305,0.181-0.305l-2.405-6.646
		c-0.081-0.098-0.302,0-0.302,0l-0.082-0.143L212.658,265.359z"/>
	<path fill="#5391CB" d="M225.638,250.623l0.071-0.059l-0.117-0.163l-0.611-0.849l-0.078,0.047
		c-13.958,8.492-21.027,14.625-23.999,17.521l0.113,0.16c1.823-0.903,4.852-2.284,8.934-3.736l0.001-0.001
		c0.704-0.251,1.416-0.493,2.133-0.729c-0.704,0.219-1.382,0.438-2.043,0.656C211.258,262.479,225.638,250.623,225.638,250.623z"/>
	<path fill="#5391CB" d="M291.477,265.854c-1.129-0.455-2.248-0.881-3.358-1.291c1.17,0.453,2.348,0.929,3.534,1.436
		c2.219,0.952,4.39,1.967,6.453,3.02l0.119-0.154c-2.507-2.811-7.43-8.03-12.263-11.402c-0.051-0.044-7.907-6.066-11.946-8.244
		l-0.072-0.04l-0.717,0.932l-0.119,0.158L291.477,265.854z"/>
	<path fill="#FFFFFF" d="M206.899,267.84l2.405,6.646c0,0,0.062,0.223-0.181,0.305l0.079,0.161l6.383-2.425
		c0,0,3.6-1.617,2.468-5.131c0,0-0.751-3.133-5.395-2.037l-6.143,2.338l0.082,0.143C206.597,267.84,206.818,267.742,206.899,267.84z
		 M212.521,267.232c2.499-0.703,3.045,1.149,3.045,1.149c0.665,2.124-1.389,2.938-1.389,2.938l-2.758,1.025l-1.517-4.135
		L212.521,267.232z"/>
	<path fill="#FFFFFF" d="M222.171,262.697l1.484,7.041c0,0,0.063,0.228-0.188,0.271l0.042,0.172l8.841-1.898
		c0.166-0.098,0.426,0.182,0.426,0.182l0.103-0.018l-0.505-2.367l-0.118,0.021c-0.022,0.4-0.266,0.428-0.266,0.428l-5.902,1.291
		l-0.318-1.457l3.776-0.783c0.221,0.057,0.285,0.201,0.285,0.201l0.138-0.031l-0.443-2.145l-0.143,0.054
		c-0.019,0.302-0.384,0.403-0.384,0.403l-3.556,0.789l-0.264-1.295l5.981-1.312c0.244,0.078,0.368,0.324,0.368,0.324l0.098-0.023
		l-0.528-2.361l-0.117,0.039c0.042,0.387-0.387,0.402-0.387,0.402l-8.716,1.881l0.033,0.15
		C221.913,262.657,222.106,262.588,222.171,262.697z"/>
	<path fill="#FFFFFF" d="M237.814,260.134l0.322,7.065c0,0-0.016,0.23-0.269,0.228l0.026,0.179l2.987-0.121l0.006-0.176
		c-0.253,0.023-0.29-0.203-0.29-0.203l-0.277-4.76l5.633,4.344l-0.148-0.098c0,0,0.153,0.152,0.21,0.324
		c0.072,0.197-0.227,0.202-0.227,0.202l0.011,0.126l3.168-0.238l-0.03-0.156c0,0-0.242,0.021-0.285-0.098l-0.323-7.07
		c0,0,0-0.238,0.253-0.238l-0.009-0.168l-3.072,0.132l0.004,0.173c0.252-0.028,0.275,0.195,0.275,0.195l0.223,4.098l-4.555-3.604
		c0,0-0.152-0.154-0.213-0.328c-0.071-0.196,0.229-0.203,0.229-0.203v-0.164l-3.966,0.306l0.032,0.158
		C237.529,260.035,237.769,260.01,237.814,260.134z"/>
	<path fill="#FFFFFF" d="M277.105,271.578l0.103,0.027l0.565-2.356l-0.121-0.03c-0.188,0.358-0.418,0.268-0.418,0.268l-5.883-1.377
		l0.338-1.451l3.75,0.921c0.176,0.146,0.17,0.305,0.17,0.305l0.138,0.034l0.522-2.127l-0.148-0.016
		c-0.146,0.266-0.52,0.199-0.52,0.199l-3.547-0.822l0.318-1.279l5.959,1.398c0.188,0.178,0.191,0.442,0.191,0.442l0.097,0.028
		l0.549-2.359l-0.13-0.018c-0.124,0.365-0.516,0.201-0.516,0.201l-8.676-2.073l-0.035,0.147c0,0,0.205,0.021,0.215,0.151
		l-1.703,6.991c0,0-0.035,0.234-0.282,0.168l-0.039,0.174l8.797,2.102C276.994,271.21,277.105,271.578,277.105,271.578z"/>
	<path fill="#FFFFFF" d="M284.357,274.002c0,0-0.242-0.102-0.142-0.322l0.929-2.383l1.76,0.691c0,0,1.1,2.9,1.164,3.127
		c0,0-0.113,0.299-0.381,0.203l-0.039,0.117l3.299,1.231l0.039-0.082c0,0-0.039-0.079-0.146-0.14l-1.151-3.334
		c0,0,2.445,0.424,3.273-1.273c0,0,1.094-2.061-1.736-3.375l-7.092-2.812l-0.061,0.146c0,0,0.199,0.05,0.193,0.179l-2.638,6.696
		c0,0-0.069,0.228-0.303,0.128l-0.06,0.165l3.025,1.199L284.357,274.002z M286.346,268.277l2.926,1.121
		c1.394,0.461,1.047,1.271,1.047,1.271c-0.321,0.93-1.396,0.385-1.396,0.385l-3.183-1.262L286.346,268.277z"/>
	<path fill="#FFFFFF" d="M253.826,260.229l2.891,6.664l0.082,0.262c0,0,0.104,0.222-0.076,0.236l-0.021,0.18l3.53,0.367l0.015-0.162
		c-0.089-0.018-0.131-0.043-0.12-0.186c0.014-0.143,0.105-0.221,0.173-0.343l3.929-6.147c0.189-0.312,0.258-0.461,0.541-0.439
		l0.021-0.182l-3.06-0.274l-0.021,0.183c0.128,0.016,0.149,0.115,0.138,0.219c-0.021,0.154-0.141,0.297-0.254,0.492l-2.646,3.744
		l-1.793-3.764c-0.391-0.73-0.412-0.834-0.426-0.951c-0.014-0.113,0.09-0.182,0.221-0.166l0.021-0.181l-3.642-0.283l-0.021,0.176
		C253.646,259.775,253.703,259.824,253.826,260.229z"/>
	<path fill="#002E61" d="M190.789,299.316c-0.013-4.861-0.038-14.67-0.038-14.678c0-0.029,0.092-2.812-1.444-3.418l-0.172-0.066
		v-0.182v-7.68v-0.262l-3.755-0.008l0.047,0.219L190.789,299.316z"/>
	<path fill="#002E61" d="M185.379,273.027h-0.217H185.379z"/>
	<path fill="#002E61" d="M226.228,249.879l-0.636,0.524l0.117,0.162l-0.071,0.06c0,0-14.38,11.854-15.596,12.851
		c0.661-0.22,1.339-0.438,2.043-0.656c5.347-1.769,11.051-3.17,16.991-4.174l0,0c3.049-0.522,6.147-0.931,9.208-1.207
		c2.873-0.271,5.809-0.449,8.726-0.535c0.199-0.012,18.852-0.971,41.106,7.664c1.11,0.408,2.229,0.834,3.358,1.291l-18.369-15.591
		l0.121-0.158l-0.627-0.531l0,0l-0.074-0.064l-22.592-19.175l-23.629,19.481L226.228,249.879L226.228,249.879z M249.985,232.646
		l20.359,17.192l0,0l1.221,1.031l-2.447-1.021l-0.003-0.001l-10.646-4.435v4.521v0.001v1.259l-1.267-1.25v-0.002l-3.905-3.84
		l-1.396,3.885l0,0l-1.507,4.197l-1.834-4.168l0,0l-1.847-4.196l-4.444,3.675l-1.413-4.526l-11.72,4.692L249.985,232.646z"/>
	<polygon fill="#FFFFFF" points="242.268,249.494 246.712,245.819 248.559,250.016 248.559,250.016 250.393,254.184 251.9,249.988 
		251.9,249.988 253.298,246.103 257.203,249.943 257.203,249.945 258.471,251.193 258.471,249.935 258.471,249.934 258.471,245.413 
		269.114,249.848 269.116,249.849 271.564,250.869 270.346,249.838 270.346,249.838 249.985,232.646 229.135,249.66 
		240.855,244.968 	"/>
	<path fill="#002E61" d="M297.791,308.127v-0.271h0.268h6.961h0.268v0.271c0,0,0.008,4.342,0.008,4.35
		c0,0.016-0.021,1.722,0.734,2.479c0.237,0.232,0.521,0.348,0.871,0.339h0.018l0.014,0.003c0.014,0,0.36,0.02,0.725-0.302
		c0.471-0.42,0.75-1.25,0.802-2.386c0,0,0-4.521,0.003-4.547c0.001-0.025,0.202-2.838-1.543-3.877c0,0-5.859-4.123-5.852-4.113
		c-0.137-0.088-3.396-2.206-3.527-8.024v-9.881c-0.004-0.082-0.21-7.582,7.3-9.233c0.45-0.1,0.923-0.18,1.427-0.232
		c0.021-0.006,0.037-0.01,0.059-0.016c-1.186,0-5.123,0.25-7.559,0.244l-5.32,8.379l-0.467-0.279
		c-0.166-0.103-17.41-10.092-42.696-11.196c-0.981-0.03-24.277-0.636-44.847,9.921l-0.455,0.23c0,0-0.275-0.432-0.276-0.432
		c0,0-0.076-0.119-0.207-0.328c-0.01-0.018-0.021-0.033-0.031-0.052c-0.624-0.991-2.368-3.771-3.855-6.139l0,0l-2.49,0.001v0.262
		v7.879c0,0,0,0.244-0.005,0.244l-0.243,0.025c-0.009,0-1.254,0.152-1.326,3.164l-0.042,40.074l0.011,0.258
		c0,0,4.125-2.322,5.282-3.006c-2.517-3.396-2.131-8.316-2.111-8.519v-18.585c0-0.653-0.148-1.102-0.419-1.309
		c-0.295-0.213-0.68-0.095-0.682-0.095l-0.353,0.115v-0.372v-7.676v-0.139l0.109-0.08c3.301-2.373,9.087-4.854,9.146-4.881
		l0.373-0.156v0.404v7.637v0.111l-0.079,0.08c-0.499,0.495-0.588,2.717-0.526,4.012v18.558c-0.064,1.956,0.369,2.639,0.634,2.868
		c0.232,0.207,0.451,0.174,0.456,0.174l0.036-0.008l0.038,0.002c0.111,0.008,0.204-0.028,0.298-0.116
		c0.525-0.505,0.604-2.251,0.586-2.888c0,0,0.042-21.535,0.042-21.543c0.02-0.852-0.175-1.155-0.293-1.264
		c-0.102-0.095-0.197-0.082-0.197-0.082l-0.318,0.062v-0.326v-7.838v-0.173l0.154-0.072c6.093-2.89,9.392-3.688,9.427-3.694
		l0.332-0.08v0.342v8.041v0.154l-0.134,0.075c-1.535,0.913-1.406,3.284-1.406,3.322v25.938c0.116,3.774-0.801,6.67-2.718,8.618
		c-0.088,0.091-0.173,0.169-0.257,0.242c-0.155,0.144-0.311,0.276-0.469,0.401c0.983-0.608,5.21-3.297,6.087-3.875
		c-0.743-2.036-0.716-3.858-0.712-3.971v-31.935c0.531-9.757,9.108-9.87,9.188-9.87c4.001-0.145,6.634,2.807,7.244,3.573
		l1.141-0.519l0.38-0.173v0.414v15.761v0.271h-0.267h-7.318h-0.269v-0.271v-5.662c0.02-1.36-0.299-1.979-0.568-2.256
		c-0.247-0.254-0.482-0.259-0.496-0.259c-0.222,0-0.407,0.078-0.561,0.245c-0.558,0.587-0.61,2.064-0.585,2.596v23.614
		c-0.103,1.788,0.254,2.56,0.568,2.894c0.245,0.26,0.479,0.26,0.491,0.26c0.249-0.004,0.453-0.104,0.624-0.295
		c0.609-0.67,0.618-2.344,0.568-2.955v-7.447H228h-0.269v-0.27v-6.062v-0.271H228h8.485h0.269v0.271v21.093v0.058l-0.026,0.052
		c-0.125,0.288-0.254,0.562-0.386,0.823c-0.021,0.04-0.04,0.077-0.06,0.116c-0.099,0.188-0.199,0.373-0.302,0.552
		c-0.099,0.172-0.199,0.338-0.302,0.499c-0.009,0.016-0.017,0.027-0.026,0.042c-0.745,1.171-1.564,2.052-2.385,2.715
		c1.073-0.647,4.843-2.995,5.669-3.532c-0.847-2.166-0.754-4.145-0.75-4.25v-34.594c0.146-3.082,1.136-5.467,2.943-7.096
		c2.725-2.461,6.301-2.287,6.434-2.281c3.794,0,6.513,3.016,7.132,3.768l1.414-0.65l0.379-0.174v0.418v18.054v0.268h-0.271h-7.456
		h-0.269v-0.268v-7.995c0.02-1.393-0.309-2.021-0.584-2.312c-0.253-0.256-0.495-0.26-0.512-0.26c-0.227,0-0.413,0.084-0.575,0.25
		c-0.569,0.604-0.625,2.109-0.596,2.655v25.899c-0.107,1.828,0.258,2.617,0.579,2.959c0.252,0.26,0.492,0.26,0.505,0.26
		c0.257-0.002,0.465-0.102,0.64-0.297c0.619-0.687,0.633-2.396,0.584-3.021v-7.44h-1.013h-0.268v-0.269v-6.062v-0.27h0.268h8.656
		h0.271v0.27v20.99v0.058l-0.023,0.049c-0.587,1.329-1.27,2.401-1.988,3.271c0.549,0.67,3.062,3.582,3.062,3.582
		s0.012-8.418,0.019-8.418l0.201-0.052c0.018-0.004,1.266-0.362,1.047-3.457v-29.86c0-0.019-0.021-1.767-1.217-2.562l-0.117-0.084
		v-0.144v-8.121v-0.284l0.282,0.021c0.082,0.004,8.452,0.473,16.478,3.12l0.18,0.062v0.193v17.256v0.27h-0.27h-5.5h-0.271
		l0.006-0.273c0.054-3.33-0.409-8.523-1.851-9.19v13.252h3.935h0.269v0.266v6.104v0.27h-0.269h-3.935v11.789
		c0.096-0.018,0.219-0.07,0.356-0.182c0.606-0.484,1.603-2.197,1.451-8.234l-0.006-0.273h6.213v14.143
		c1.081,0.831,5.877,4.395,5.877,4.395l-0.003-8.312l0.179-0.064c0.074-0.026,1.837-0.699,1.8-4.435V286.8
		c-0.002,0.005-0.009,0.005-0.015,0.011c-0.308,0.211-1.037,1.201-1.229,5.812l-0.01,0.259h-0.26h-4.809h-0.269v-0.271v-16.688
		v-0.351l0.341,0.091c0.094,0.025,9.488,2.586,20.188,8.756l0.13,0.077v0.153v7.92v0.27h-0.269h-4.563h-0.239l-0.029-0.236
		c-0.176-1.496-0.67-3.558-1.283-4.211V312.1c0,0.033-0.088,3.657,1.854,4.428l0.17,0.066v4.219c1.018,0.561,5.74,3.053,5.74,3.053
		l-0.012-0.54v-15.196h0.004V308.127z"/>
	<path fill="#002E61" d="M289.938,175.318c-9.949,9.49-30.101,20.513-39.912,25.345c-9.812-4.832-29.964-15.853-39.913-25.345
		h-8.058c4.325,5.541,12.526,12,24.521,19.285c11.294,6.858,22.042,12.049,22.149,12.101l1.301,0.626l1.301-0.626
		c0.106-0.052,10.854-5.242,22.149-12.101c11.993-7.284,20.194-13.744,24.521-19.285H289.938z"/>
	<polygon fill="#002E61" points="250,192.315 233.935,192.315 250,205.129 266.064,192.315 	"/>
	<path fill="#5391CB" d="M251.57,195.565c-0.375-0.422-0.891-0.433-1.34-0.433h-2.272v1.372c0.19,0.118,0.204,0.342,0.209,0.612
		v3.759c-0.005,0.265-0.026,0.497-0.209,0.615v1.371l2.323-0.001c0.498,0,0.963-0.044,1.339-0.566
		c0.397-0.552,0.421-1.139,0.421-1.896v-2.894C252.041,196.764,252.001,196.061,251.57,195.565z M250.453,200.278
		c0,0.464-0.086,0.753-0.508,0.753h-0.214v-4.021h0.103h0.111c0.422,0,0.508,0.288,0.508,0.75V200.278L250.453,200.278z"/>
</g>
<path fill="#FAB839" d="M208.4,324.504c-2.41-0.021-4.324-0.796-5.702-2.309c-2.919-3.206-2.487-8.699-2.481-8.752v-18.611
	c0-0.85-0.218-1.438-0.645-1.741c-0.279-0.2-0.58-0.235-0.811-0.228v-7.225c2.781-1.974,7.248-4.004,8.556-4.58v7.137
	c-0.735,0.949-0.619,3.955-0.603,4.31v18.531c-0.057,1.671,0.227,2.786,0.838,3.299c0.399,0.335,0.792,0.296,0.88,0.28
	c0.241,0,0.464-0.09,0.647-0.264c0.792-0.766,0.762-3.031,0.753-3.281c0,0.006,0.043-21.529,0.043-21.529
	c0.018-0.828-0.15-1.4-0.496-1.689c-0.108-0.093-0.216-0.144-0.313-0.17v-7.427c4.86-2.293,7.885-3.231,8.838-3.497v7.549
	c-1.673,1.131-1.541,3.607-1.533,3.717v25.922c0.105,3.629-0.759,6.395-2.564,8.229C211.509,324.52,208.429,324.504,208.4,324.504z"
	/>
<path fill="#FAB839" d="M196.006,284.604c0,0.006-0.038,36.332-0.042,39.81h-5.817l-5.615-27.571L184,296.895v16.52
	c0.014,0.135,0.273,2.674,2.064,3.729v7.271h-8.261l-0.01-7.292c0.419-0.294,1.651-1.362,1.615-3.703
	c0,0.003-0.037-28.322-0.037-28.322c0.001-0.123,0.091-3.207-1.619-4.226l0.042-7.304h7.15l5.854,28.475l0.533-0.053l-0.042-17.334
	c0.006-0.117,0.096-2.979-1.615-3.842v-7.246h7.908v7.406C197.092,281.145,196.072,281.836,196.006,284.604z"/>
<path fill="#FAB839" d="M228.046,324.466c-2.618-0.014-4.686-0.789-6.167-2.317c-2.587-2.668-2.507-6.74-2.507-6.781v-31.93
	c0.502-9.227,8.328-9.348,8.66-9.348c4.214-0.154,6.908,3.486,6.934,3.523l0.129,0.175l0.198-0.087l0.953-0.436v15.074h-6.776
	v-5.388c0.022-1.261-0.233-2.157-0.743-2.662c-0.405-0.396-0.821-0.396-0.866-0.396c-0.362,0-0.683,0.142-0.941,0.416
	c-0.832,0.873-0.739,2.896-0.732,2.978v23.583c-0.094,1.602,0.158,2.717,0.743,3.304c0.407,0.413,0.826,0.402,0.87,0.401
	c0.394-0.014,0.731-0.168,1.003-0.469c0.887-0.985,0.713-3.244,0.708-3.338v-7.697v-0.266h-0.269h-0.982v-5.525h7.949v20.764
	C233.329,324.643,228.263,324.475,228.046,324.466z"/>
<path fill="#FAB839" d="M255.904,317.921c-2.938,6.603-8.284,6.554-8.339,6.55c-2.829-0.095-5.033-0.986-6.558-2.652
	c-2.473-2.707-2.293-6.584-2.291-6.627v-34.59c0.141-2.918,1.065-5.178,2.76-6.709c2.556-2.311,6.033-2.148,6.063-2.145
	c3.984,0,6.828,3.684,6.855,3.725l0.129,0.172l0.199-0.095l1.221-0.563v17.367h-6.925v-7.724c0.021-1.28-0.236-2.196-0.756-2.709
	c-0.413-0.405-0.834-0.401-0.876-0.399c-0.372-0.002-0.7,0.14-0.961,0.418c-0.847,0.889-0.749,2.947-0.744,3.033v25.877
	c-0.095,1.627,0.16,2.764,0.755,3.363c0.415,0.418,0.84,0.41,0.886,0.403c0.398-0.007,0.745-0.167,1.02-0.474
	c0.9-1.004,0.725-3.305,0.719-3.398c0.002,0.021,0.002-7.688,0.002-7.688v-0.271h-0.268h-1.012v-5.522h8.119v20.656L255.904,317.921
	L255.904,317.921z"/>
<path fill="#FAB839" d="M273.964,324.409h-15.925v-7.499c0.455-0.227,1.455-1.061,1.254-3.914v-29.842
	c0-0.081-0.021-1.934-1.337-2.922v-7.701c1.501,0.107,8.793,0.718,15.875,3.018v16.794h-4.96c0.011-1.772-0.086-9.413-2.645-9.538
	l-0.278-0.016v0.284v13.858v0.271h0.267h3.936v5.562h-3.936h-0.267v0.271v12.321v0.199l0.186,0.057
	c0.052,0.02,0.488,0.141,1.007-0.252c0.842-0.637,1.81-2.619,1.693-8.42h5.13V324.409z"/>
<path fill="#FAB839" d="M291.525,324.409H280.91v-7.427c0.525-0.275,2.018-1.371,1.977-4.86v-25.614v-0.165l-0.146-0.075
	c-0.027-0.014-0.3-0.139-0.646,0.059c-0.841,0.488-1.347,2.512-1.508,6.018H276.3v-16.062c1.753,0.51,10.144,3.1,19.591,8.529v7.494
	h-4.063c-0.146-1.113-0.699-4.397-2.005-4.646l-0.319-0.055v0.321v24.163c-0.003,0.148-0.087,3.816,2.022,4.852V324.409
	L291.525,324.409z"/>
<path fill="#FAB839" d="M315.567,275.368v16.646l-6.496-0.002v-7.263c0.006-0.052,0.05-1.554-0.783-2.394
	c-0.375-0.386-0.86-0.574-1.447-0.563c-0.071,0-1.94,0.015-1.981,3.216v5.62c-0.006,0.104-0.15,2.899,1.374,3.899
	c0.019,0.018,2.579,1.807,6.333,4.521c0.022,0.019,3.081,2.45,3.003,7.575v10.35c0,0.031-0.018,3.033-2.201,5.207
	c-1.55,1.543-3.808,2.309-6.702,2.28c-0.053,0.003-3.574,0.188-6.559-2.864l-0.172-0.18l-0.188,0.154l-1.422,1.177v-14.354h6.429
	c0,0.942,0.007,4.071,0.007,4.065c-0.004,0.082-0.027,1.951,0.889,2.868c0.343,0.342,0.768,0.51,1.262,0.496h-0.027
	c0.021,0,0.571,0.049,1.109-0.413c0.604-0.526,0.94-1.464,1-2.789v-4.539c0.01-0.104,0.232-3.146-1.789-4.353
	c0.021,0.011-5.838-4.109-5.838-4.109c-0.045-0.025-3.166-2.074-3.292-7.587v-9.884c-0.015-0.352-0.226-8.354,8.788-8.978
	c0.039-0.003,4.433-0.155,6.999,2.604l0.118,0.132l0.164-0.058L315.567,275.368z"/>
</svg>
