<?xml version="1.0" encoding="utf-8"?>
<!-- Generator: Adobe Illustrator 16.0.0, SVG Export Plug-In . SVG Version: 6.00 Build 0)  -->
<!DOCTYPE svg PUBLIC "-//W3C//DTD SVG 1.1//EN" "http://www.w3.org/Graphics/SVG/1.1/DTD/svg11.dtd">
<svg version="1.1" id="content" xmlns="http://www.w3.org/2000/svg" xmlns:xlink="http://www.w3.org/1999/xlink" x="0px" y="0px"
	 width="500px" height="500px" viewBox="0 0 500 500" enable-background="new 0 0 500 500" xml:space="preserve">
<g id="bounds">
	<rect x="-0.1" y="-0.312" fill="none" stroke="#EAEAEA" stroke-miterlimit="10" width="499.5" height="499.5"/>
</g>
<rect id="position" x="0.5" y="0.5" display="none" fill="none" stroke="#000000" width="499" height="499"/>
<g display="none">
	<polygon display="inline" fill="#F2F2F2" points="142.376,174.742 140.177,174.742 86.577,235.865 116.984,280.148 141.5,252.129 	
		"/>
	<polygon display="inline" fill="#A12025" points="116.984,280.148 86.577,235.865 79.032,243.411 109.632,287.896 	"/>
	<polygon display="inline" fill="#380B0D" points="140.177,174.742 86.577,235.865 92.715,244.612 146.315,183.489 141.369,174.736 
			"/>
	<polygon display="inline" fill="#380B0D" points="152.292,192.51 98.692,253.633 104.831,262.38 158.431,201.257 153.485,192.504 	
		"/>
	<polygon display="inline" fill="#380B0D" points="164.408,210.278 110.808,271.4 116.947,280.148 170.547,219.025 165.601,210.272 
			"/>
	<polygon display="inline" fill="#F2F2F2" points="358.553,252.129 383.068,280.148 413.477,235.865 359.876,174.742 
		357.677,174.742 	"/>
	<polygon display="inline" fill="#A12025" points="390.421,287.896 421.021,243.411 413.477,235.865 383.068,280.148 	"/>
	<polygon display="inline" fill="#380B0D" points="358.684,174.736 353.737,183.489 407.338,244.612 413.477,235.865 
		359.876,174.742 	"/>
	<polygon display="inline" fill="#380B0D" points="346.568,192.504 341.621,201.257 395.222,262.38 401.36,253.633 347.76,192.51 	
		"/>
	<polygon display="inline" fill="#380B0D" points="334.452,210.272 329.506,219.025 383.105,280.148 389.244,271.4 335.645,210.278 
			"/>
	<polygon display="inline" fill="#A12025" points="279.791,174.736 250.026,204.5 220.262,174.736 146.746,174.736 146.746,480.08 
		353.254,480.08 353.254,174.736 	"/>
	<circle display="inline" fill="#D92C32" cx="261.201" cy="226.581" r="2.705"/>
	<circle display="inline" fill="#D92C32" cx="261.201" cy="245.12" r="2.705"/>
	<circle display="inline" fill="#D92C32" cx="261.201" cy="263.659" r="2.705"/>
	<circle display="inline" fill="#D92C32" cx="261.201" cy="282.198" r="2.705"/>
	<circle display="inline" fill="#D92C32" cx="261.201" cy="300.737" r="2.705"/>
	<circle display="inline" fill="#D92C32" cx="261.201" cy="319.275" r="2.705"/>
	<path display="inline" opacity="0.2" fill="#380B0D" enable-background="new    " d="M353.254,174.736h-66.113V299
		c0,39,43.488,43.488,43.488,43.488c7.623,0,15.611,0,22.625,0V174.736z"/>
	<path display="inline" fill="#F2F2F2" d="M353.254,174.736h-57.623V299c0,39,37.857,43.488,43.488,43.488c1.914,0,7.543,0,14.135,0
		V174.736z"/>
	<path display="inline" fill="#380B0D" d="M327.131,340.427V174.736h-15.75v158.055
		C316.551,336.636,322.219,338.996,327.131,340.427z"/>
	<path display="inline" fill="#380B0D" d="M358.631,342.488V174.736h-15.75v167.752C346.72,342.488,352.578,342.488,358.631,342.488
		z"/>
	<path display="inline" opacity="0.2" fill="#380B0D" enable-background="new    " d="M146.746,174.736v167.752
		c7.014,0,15.002,0,22.625,0c0,0,43.488-4.488,43.488-43.488V174.736H146.746z"/>
	<path display="inline" fill="#F2F2F2" d="M146.746,174.736v167.752c6.592,0,12.221,0,14.135,0c5.631,0,43.488-4.488,43.488-43.488
		V174.736H146.746z"/>
	<path display="inline" fill="#380B0D" d="M172.869,340.427V174.736h15.75v158.055C183.449,336.636,177.781,338.996,172.869,340.427
		z"/>
	<path display="inline" fill="#380B0D" d="M141.369,342.488V174.736h15.75v167.752C153.28,342.488,147.422,342.488,141.369,342.488z
		"/>
	<polygon display="inline" opacity="0.2" fill="#380B0D" enable-background="new    " points="264.357,194 250.026,204.5 
		235.694,194 220.984,179.678 220.984,221.855 250.026,208.688 250.026,208.688 279.031,221.855 279.031,179.678 	"/>
	<rect x="248.85" y="204.709" display="inline" fill="#7D191D" width="2.354" height="275.371"/>
	<polygon display="inline" fill="#D92C32" points="250.026,204.5 279.031,217.667 279.031,175.489 	"/>
	<polygon display="inline" fill="#D92C32" points="250.026,204.5 220.984,217.667 220.984,175.489 	"/>
	<path display="inline" fill="#380B0D" d="M252.344,207.328"/>
</g>
<g>
	<path fill="#5391CB" d="M382.816,283.113c-0.02-0.35-0.027-0.656-0.032-0.898C382.789,282.457,382.798,282.758,382.816,283.113z"/>
	<path fill="#5391CB" d="M220.683,348.475c-0.231,0.449-0.468,0.871-0.711,1.295C220.216,349.35,220.453,348.924,220.683,348.475z"
		/>
	<path fill="#5391CB" d="M168.879,356.458c-0.197,0.196-0.403,0.38-0.604,0.565C168.472,356.854,168.669,356.664,168.879,356.458z"
		/>
	<path fill="#5391CB" d="M146.143,254.816c-0.026-0.041-0.048-0.072-0.074-0.117C146.095,254.738,146.117,254.779,146.143,254.816z"
		/>
	<path fill="#5391CB" d="M382.793,281.764c0-0.045,0-0.08,0-0.104C382.793,281.684,382.793,281.71,382.793,281.764z"/>
	<path fill="#FFFFFF" d="M154.322,373.986c-2.762-0.068-8.669-0.666-14.782-4.115l-1.173-0.662l-7.983,4.67H102.5l-1.777-0.096
		H70.51v-39.98l3.873-1.141l-0.339-61.516l-3.816,0.172v-42.631h35.29l10.769-11.35c0.357-0.376,36.989-38.307,78.746-46.408
		l2.503-0.488L253,124.887l53.103,44.843l1.447,0.141c3.187,0.306,32.44,4.248,77.89,47.192l13.049,12.37l0.496,0.166
		c1.924,0.637,3.761,1.427,5.457,2.345l0.892,0.481l14.386-4.769v70.351h-5.784l1.722,3.404c2.666,5.269,4.019,11.118,4.019,17.394
		v23.508c-0.022,1.418-0.309,8.992-3.672,15.135c-1.372,2.85-8.977,16.52-29.815,16.52c-1.758,0-7.986-0.221-14.398-3.066
		l-1.289-0.569l-4.301,3.364l-2.959-1.584v1.668h-98.098l-3.082-3.898l-1.695,0.812c-4.271,2.056-8.916,3.142-13.43,3.142
		c-0.476,0-0.951-0.013-1.438-0.035c-1.987-0.032-11.953-0.538-20.383-7.644l-1.329-1.125l-6.177,4.019
		c-0.772,0.548-7.055,4.841-16.804,4.864l-1.177,0.003c-2.835-0.082-12.037-0.897-19.987-7.673l-1.334-1.141l-5.972,3.914
		c-1.243,0.797-7.956,4.84-16.44,4.945L154.322,373.986z"/>
	<path fill="#5391CB" d="M154.904,368.383c-2.217,0-9.615-0.439-16.248-5.846l-9.798,5.727h-22.116l-0.163-0.568l-0.915,0.472
		h-29.54v-30.158l3.637-1.077c0.097-0.27,0.318-1.024,0.243-2.548l-0.376-68.053c0.007-0.298-0.041-0.636-0.179-0.772
		c-0.1-0.107-0.409-0.222-0.957-0.222l-2.45,0.113l-0.203-2.452v-28.679h50.631l-2.897-4.677l4.175-4.468h-11.145l3.754-3.96
		c1.422-1.505,35.38-36.93,75.741-44.754l1.511-0.293l0.658,0.958l54.684-44.911l52.096,43.992l0.707-0.851l1.233,0.12
		c1.193,0.115,29.75,3.317,74.585,45.686l4.237,4.003l-13.622,0.108l6.386,8.057h7.51c0.028-0.004,0.485-0.038,1.188-0.038
		c3.075,0,10.684,0.537,17.34,5.312l9.5-3.15v56.954h-14.165c2.089,1.499,4.142,3.056,5.177,4.084
		c1.064,0.925,8.938,8.21,8.938,22.329v23.498c-0.005,0.336-0.138,7.307-3.046,12.576l-0.049,0.1
		c-0.644,1.35-6.892,13.37-24.788,13.37h-0.003c-1.071,0-9.472-0.146-16.13-4.79l-4.386,3.438l-8.027-4.349v5.509h-35.117
		l-6.395-4.857v4.857h-48.264l-4.629-5.852c-2.894,2.266-8.732,5.91-16.371,5.91c-0.402,0-0.812-0.008-1.223-0.035
		c-0.005,0-0.013,0-0.019,0c-1.454,0-13.408-0.35-20.876-10.471l-10.343,6.725c-0.091,0.076-5.254,3.857-13.729,3.861
		c-0.032,0.004-0.293,0.021-0.69,0.021c-3.153,0-13.505-0.799-20.706-10.547c-2.758,1.812-7.731,5.092-10.038,6.557
		c-0.236,0.148-6.214,3.96-13.561,4.023C155.641,368.363,155.349,368.383,154.904,368.383z"/>
	<path fill="#5391CB" d="M219.267,350.939c-0.021,0.035-0.041,0.062-0.059,0.098C219.226,351.003,219.246,350.977,219.267,350.939z"
		/>
	<path fill="#5391CB" d="M382.789,282.145c0-0.146,0-0.266,0.004-0.353C382.789,281.879,382.789,281.998,382.789,282.145z"/>
	<path fill="#5391CB" d="M221.728,346.271c-0.289,0.672-0.596,1.312-0.905,1.93C221.132,347.585,221.439,346.947,221.728,346.271z"
		/>
	<path fill="#002E61" d="M390.157,267.764c0-0.029,0.096-3.135-1.479-4.726c-0.637-0.638-1.438-0.94-2.49-0.931
		c-0.134,0-3.305,0.11-3.396,6.295v13.207c0,0,0,0.039,0,0.05c-0.004,0.026-0.004,0.06-0.004,0.104c0,0.008,0,0.022,0,0.032
		c-0.005,0.086-0.005,0.205-0.005,0.351c0,0.022,0,0.049,0,0.072c0.005,0.239,0.014,0.538,0.032,0.897
		c0,0.059,0.012,0.118,0.018,0.184c0.006,0.104,0.015,0.207,0.021,0.318c0.729,0.269,7.362,2.448,7.362,2.448l-0.051-0.625
		L390.157,267.764L390.157,267.764z"/>
	<path fill="#002E61" d="M99.346,334.947c0.009,0.06,0.589,5.873,4.498,7.885l0.342,0.176v0.377v18.037l-0.034,0.621
		c0,0,5.074-1.572,6.873-2.215l-11.678-57.316C99.348,313.459,99.348,334.989,99.346,334.947z"/>
	<path fill="#FAB839" d="M146.068,254.699c0.027,0.045,0.049,0.076,0.072,0.117c0.308,0.494,0.485,0.774,0.485,0.774
		c0.003,0,0.647,1.007,0.647,1.007l1.066-0.535c48.245-24.76,102.883-23.339,105.184-23.269
		c59.307,2.591,99.749,26.024,100.139,26.261l1.096,0.647l12.478-19.649l3.482-5.489l0.706-1.136l-0.204-0.174
		c-0.564-0.671-5.654-6.708-12.779-13.899c0.979,0,12.552,0,12.552,0l-2.521-2.287c-3.459-3.1-34.435-30.468-59.449-35.105
		l-0.783-0.145l-0.498,0.64c0,0.002-1.316,1.735-2.039,2.67l0.18,0.15l0,0l1.465,1.246l1.683-2.186l0.17,0.094
		c9.471,5.108,27.9,19.232,28.018,19.334c11.336,7.909,22.881,20.153,28.761,26.743l-0.278,0.354
		c-4.837-2.464-9.931-4.84-15.135-7.077c-2.785-1.194-5.542-2.3-8.286-3.365c-52.203-20.253-95.943-18.004-96.41-17.976
		c-6.842,0.203-13.728,0.626-20.464,1.254c-7.181,0.651-14.446,1.61-21.596,2.83l0,0c-13.93,2.357-27.31,5.644-39.849,9.792
		c-1.682,0.552-3.351,1.122-5.003,1.709l-0.002,0.002c-9.573,3.405-16.678,6.643-20.952,8.759l-0.265-0.375
		c6.968-6.791,23.544-21.175,56.283-41.092l0.183-0.109l1.435,1.991l1.493-1.229l0,0l0.179-0.147
		c-0.674-0.939-1.828-2.548-1.828-2.548l-0.499-0.674l-0.823,0.16c-29.772,6.042-59.73,33.329-60.992,34.489
		c-0.01,0.008-2.442,2.29-2.442,2.29s10.183,0,11.234,0c-7.472,6.56-10.321,10.16-10.44,10.312l-0.573,0.712l0.488,0.799
		c0,0,2.517,4.008,5.504,8.757c0.032,0.048,0.064,0.105,0.096,0.153l0,0C140.515,245.857,144.603,252.37,146.068,254.699z
		 M338.236,202.415l-0.015-0.007c-0.12-0.091-12.305-9.48-22.18-15.844l0.201-0.413c19.877,6.857,42.222,25.174,48.6,30.627
		l0.476,0.408h-0.635l-9.138-0.068C349.206,210.947,343.379,206,338.236,202.415z M136.269,217.406l0.468-0.407
		c6.17-5.342,28.085-23.308,51.036-30.334l0.19,0.417c-17.251,10.739-31.627,20.922-42.882,30.324H136.269L136.269,217.406z
		 M133.729,230.969l0.209-0.115c7.349-4.131,47.287-24.821,112.003-26.687c2.441-0.125,60.462-2.629,122.231,29.903l0.222,0.119
		l-14.341,22.586l-0.192-0.104c-7.09-3.926-45.293-23.637-100.219-26.042c-0.553-0.023-55.788-2.039-105.396,23.056l-0.187,0.096
		L133.729,230.969z"/>
	<path fill="#5391CB" d="M365.314,217.186l-0.474-0.408c-6.376-5.451-28.725-23.77-48.598-30.627l-0.201,0.413
		c9.875,6.364,22.058,15.753,22.18,15.844l0.01,0.007c5.141,3.585,10.975,8.533,17.314,14.703l9.138,0.068H365.314L365.314,217.186z
		"/>
	<path fill="#5391CB" d="M187.962,187.082l-0.19-0.417c-22.951,7.022-44.866,24.992-51.036,30.334l-0.468,0.407h8.812
		C156.335,208.004,170.711,197.821,187.962,187.082z"/>
	<path fill="#5391CB" d="M347.43,234.766c0,0,0.814-1.906-2.448-2.986l-6.872-2.625l-1.415,3.562l7.467,2.961
		C344.162,235.665,346.677,236.943,347.43,234.766z"/>
	<path fill="#5391CB" d="M168.862,236.294c0,0,4.813-1.913,3.256-6.895c0,0-1.282-4.349-7.142-2.696l-6.143,2.3l3.557,9.697
		L168.862,236.294z"/>
	<path fill="#5391CB" d="M148.239,253.688c49.61-25.096,104.844-23.081,105.396-23.057c54.931,2.405,93.129,22.116,100.228,26.042
		l0.192,0.104l14.333-22.587l-0.22-0.119c-61.777-32.532-119.792-30.027-122.234-29.903
		c-64.714,1.866-104.653,22.556-112.002,26.687l-0.208,0.115l14.324,22.818L148.239,253.688z M326.355,239.758
		c0.543,0.231,0.711-0.301,0.711-0.301l6.186-15.708c0.017-0.302-0.451-0.417-0.451-0.417l0.146-0.339l16.629,6.594
		c6.637,3.085,4.072,7.916,4.072,7.916c-1.938,3.981-7.679,2.988-7.679,2.988l2.703,7.815c0.244,0.145,0.342,0.331,0.342,0.331
		l-0.092,0.191l-7.74-2.89l0.093-0.275c0.631,0.229,0.896-0.472,0.896-0.472c-0.149-0.536-2.729-7.336-2.729-7.336l-4.129-1.619
		l-2.179,5.593c-0.241,0.517,0.332,0.75,0.332,0.75l-0.143,0.38l-7.096-2.812L326.355,239.758z M295.193,230.736
		c0.58,0.16,0.662-0.394,0.662-0.394l3.996-16.396c-0.021-0.311-0.506-0.355-0.506-0.355l0.082-0.343l20.354,4.855
		c0,0,0.914,0.385,1.205-0.465l0.305,0.043l-1.288,5.531l-0.222-0.067c0,0-0.021-0.625-0.453-1.035l-13.977-3.28l-0.748,3.005
		l8.319,1.928c0,0,0.871,0.145,1.222-0.466l0.346,0.031l-1.224,4.989l-0.325-0.078c0,0,0.016-0.372-0.402-0.718l-8.795-2.159
		l-0.793,3.403L316.749,232c0,0,0.537,0.212,0.979-0.629l0.289,0.064l-1.324,5.521l-0.242-0.058c0,0-0.258-0.864-0.71-0.831
		l-20.636-4.925L295.193,230.736z M260.676,208.553l8.539,0.662l-0.051,0.426c-0.309-0.033-0.541,0.119-0.518,0.39
		c0.035,0.275,0.08,0.517,0.998,2.229l4.205,8.828l6.209-8.781c0.266-0.463,0.547-0.793,0.592-1.159
		c0.039-0.238-0.02-0.476-0.319-0.511l0.052-0.425l7.172,0.648l-0.045,0.421c-0.664-0.045-0.83,0.301-1.27,1.035l-9.219,14.414
		c-0.153,0.286-0.368,0.465-0.404,0.804c-0.025,0.333,0.072,0.394,0.281,0.439l-0.039,0.381l-8.275-0.861l0.049-0.422
		c0.42-0.042,0.176-0.554,0.176-0.554l-0.192-0.614l-6.776-15.629c-0.289-0.946-0.425-1.062-1.223-1.312L260.676,208.553z
		 M232.851,208.734v0.38c0,0-0.703,0.02-0.538,0.481c0.144,0.403,0.499,0.77,0.499,0.77l10.685,8.452l-0.525-9.605
		c0,0-0.05-0.536-0.643-0.463l-0.009-0.407l7.203-0.302l0.022,0.394c-0.594,0-0.594,0.559-0.594,0.559l0.758,16.576
		c0.103,0.279,0.67,0.231,0.67,0.231l0.068,0.364l-7.43,0.559l-0.026-0.295c0,0,0.702-0.018,0.535-0.474
		c-0.135-0.403-0.495-0.76-0.495-0.76l0.348,0.236l-13.21-10.197l0.649,11.168c0,0,0.085,0.536,0.678,0.476l-0.014,0.417
		l-7.004,0.284l-0.062-0.427c0.594,0.014,0.63-0.536,0.63-0.536l-0.756-16.567c-0.105-0.291-0.668-0.232-0.668-0.232l-0.074-0.371
		L232.851,208.734z M207.367,211.203c0,0,1.003-0.037,0.906-0.943l0.275-0.092l1.237,5.539l-0.229,0.055c0,0-0.293-0.574-0.863-0.76
		l-14.029,3.078l0.618,3.038l8.342-1.851c0,0,0.859-0.245,0.9-0.946l0.336-0.126l1.041,5.03l-0.325,0.074
		c0,0-0.152-0.339-0.668-0.473l-8.855,1.837l0.745,3.417l13.843-3.027c0,0,0.57-0.06,0.622-1.003l0.277-0.051l1.184,5.552
		l-0.241,0.041c0,0-0.614-0.655-0.998-0.425l-20.737,4.452l-0.099-0.398c0.587-0.115,0.443-0.64,0.443-0.64l-3.482-16.515
		c-0.15-0.256-0.607-0.094-0.607-0.094l-0.078-0.354L207.367,211.203z M165.294,222.307c10.889-2.57,12.655,4.777,12.655,4.777
		c2.652,8.241-5.79,12.034-5.79,12.034l-14.969,5.688l-0.186-0.378c0.57-0.191,0.424-0.714,0.424-0.714l-5.64-15.588
		c-0.191-0.23-0.709,0-0.709,0l-0.193-0.335L165.294,222.307z"/>
	<path fill="#5391CB" d="M195.736,187.745l0.167-0.137l-0.275-0.384l-1.432-1.991l-0.183,0.111
		c-32.739,19.916-49.316,34.301-56.289,41.092l0.267,0.373c4.275-2.116,11.381-5.354,20.955-8.759l0.001-0.002
		c1.651-0.589,3.321-1.157,5.002-1.709c-1.651,0.513-3.242,1.026-4.792,1.539C162.011,215.551,195.736,187.745,195.736,187.745z"/>
	<path fill="#5391CB" d="M350.15,223.466c-2.646-1.068-5.271-2.067-7.873-3.028c2.744,1.062,5.506,2.181,8.286,3.369
		c5.206,2.234,10.298,4.613,15.135,7.085l0.278-0.362c-5.879-6.591-17.425-18.834-28.761-26.742
		c-0.118-0.104-18.545-14.229-28.018-19.336l-0.17-0.091l-1.683,2.185l-0.277,0.371L350.15,223.466z"/>
	<path fill="#FFFFFF" d="M151.788,228.125l5.64,15.588c0,0,0.146,0.522-0.424,0.714l0.186,0.378l14.969-5.688
		c0,0,8.442-3.792,5.79-12.034c0,0-1.764-7.347-12.655-4.777l-14.409,5.482l0.193,0.335
		C151.078,228.125,151.597,227.895,151.788,228.125z M164.972,226.7c5.864-1.649,7.142,2.693,7.142,2.693
		c1.561,4.982-3.258,6.889-3.258,6.889l-6.468,2.405l-3.559-9.697L164.972,226.7z"/>
	<path fill="#FFFFFF" d="M187.606,216.063l3.48,16.514c0,0,0.146,0.533-0.441,0.634l0.099,0.405l20.737-4.452
		c0.388-0.229,0.998,0.425,0.998,0.425l0.241-0.041l-1.184-5.552l-0.277,0.051c-0.052,0.937-0.624,1.003-0.624,1.003l-13.843,3.027
		l-0.744-3.417l8.854-1.837c0.519,0.134,0.67,0.473,0.67,0.473l0.324-0.074l-1.039-5.03l-0.336,0.126
		c-0.043,0.708-0.901,0.946-0.901,0.946l-8.341,1.851l-0.618-3.038l14.028-3.078c0.57,0.183,0.863,0.76,0.863,0.76l0.23-0.055
		l-1.237-5.539l-0.275,0.092c0.096,0.906-0.907,0.943-0.907,0.943l-20.445,4.412l0.078,0.353
		C187.001,215.969,187.454,215.808,187.606,216.063z"/>
	<path fill="#FFFFFF" d="M224.293,210.052l0.756,16.57c0,0-0.037,0.54-0.63,0.533l0.062,0.42l7.004-0.284l0.014-0.412
		c-0.593,0.055-0.678-0.477-0.678-0.477l-0.649-11.163l13.21,10.188l-0.348-0.229c0,0,0.36,0.357,0.495,0.76
		c0.167,0.463-0.535,0.474-0.535,0.474l0.026,0.295l7.43-0.559l-0.067-0.367c0,0-0.568,0.051-0.671-0.228l-0.758-16.583
		c0,0,0-0.559,0.595-0.559l-0.021-0.394l-7.205,0.312l0.009,0.405c0.591-0.065,0.643,0.457,0.643,0.457l0.525,9.612l-10.682-8.454
		c0,0-0.358-0.36-0.502-0.769c-0.165-0.458,0.538-0.477,0.538-0.477v-0.383l-9.301,0.718l0.074,0.371
		C223.624,209.819,224.187,209.761,224.293,210.052z"/>
	<path fill="#FFFFFF" d="M316.445,236.892l0.24,0.064l1.325-5.528l-0.282-0.071c-0.442,0.841-0.979,0.627-0.979,0.627l-13.798-3.229
		l0.793-3.4l8.795,2.159c0.412,0.344,0.398,0.715,0.398,0.715l0.321,0.081l1.226-4.989l-0.348-0.038
		c-0.343,0.625-1.218,0.466-1.218,0.466l-8.319-1.928l0.745-2.999l13.976,3.277c0.44,0.419,0.447,1.038,0.447,1.038l0.229,0.067
		l1.287-5.534l-0.305-0.041c-0.291,0.857-1.211,0.472-1.211,0.472l-20.349-4.862l-0.084,0.346c0,0,0.482,0.048,0.505,0.353
		l-3.992,16.396c0,0-0.082,0.547-0.66,0.394l-0.092,0.407l20.631,4.932C316.186,236.028,316.445,236.892,316.445,236.892z"/>
	<path fill="#FFFFFF" d="M333.455,242.577c0,0-0.569-0.238-0.336-0.756l2.182-5.589l4.127,1.621c0,0,2.578,6.803,2.73,7.335
		c0,0-0.267,0.7-0.895,0.476l-0.093,0.275l7.737,2.886l0.092-0.192c0,0-0.092-0.186-0.343-0.33l-2.697-7.819
		c0,0,5.732,0.995,7.674-2.985c0,0,2.566-4.835-4.068-7.916l-16.636-6.594l-0.144,0.342c0,0,0.465,0.116,0.451,0.418l-6.187,15.705
		c0,0-0.161,0.535-0.711,0.301l-0.139,0.387l7.093,2.812L333.455,242.577z M338.118,229.151l6.862,2.629
		c3.27,1.08,2.455,2.979,2.455,2.979c-0.752,2.184-3.273,0.905-3.273,0.905l-7.465-2.961L338.118,229.151z"/>
	<path fill="#FFFFFF" d="M261.848,210.273l6.78,15.629l0.191,0.614c0,0,0.243,0.522-0.179,0.554l-0.047,0.422l8.278,0.861
		l0.035-0.381c-0.209-0.041-0.31-0.1-0.282-0.435c0.032-0.333,0.247-0.517,0.405-0.804l9.215-14.418
		c0.442-0.73,0.604-1.08,1.269-1.028l0.051-0.428l-7.18-0.641l-0.048,0.431c0.302,0.037,0.353,0.268,0.322,0.513
		c-0.047,0.362-0.329,0.696-0.595,1.154l-6.204,8.78l-4.205-8.828c-0.919-1.71-0.968-1.955-1.001-2.23
		c-0.032-0.264,0.21-0.429,0.52-0.39l0.049-0.424l-8.541-0.665l-0.047,0.413C261.428,209.211,261.559,209.326,261.848,210.273z"/>
	<path fill="#002E61" d="M114.004,301.948c-0.03-11.402-0.089-34.407-0.089-34.425c0-0.069,0.215-6.597-3.386-8.018l-0.405-0.154
		v-0.427v-18.014v-0.617l-8.806-0.018l0.109,0.515L114.004,301.948z"/>
	<path fill="#002E61" d="M101.316,240.291h-0.509H101.316z"/>
	<path fill="#002E61" d="M197.12,186l-1.492,1.229l0.275,0.378l-0.167,0.143c0,0-33.726,27.8-36.578,30.141
		c1.55-0.518,3.141-1.028,4.792-1.539c12.542-4.149,25.918-7.435,39.851-9.789l0,0c7.15-1.225,14.417-2.185,21.595-2.83
		c6.739-0.637,13.624-1.054,20.465-1.255c0.468-0.029,44.214-2.278,96.408,17.974c2.604,0.957,5.229,1.957,7.877,3.028
		l-43.082-36.568l0.282-0.371l-1.469-1.244l0,0l-0.174-0.15l-52.987-44.972l-55.417,45.689L197.12,186L197.12,186z M252.84,145.583
		l47.748,40.321l0,0l2.862,2.418l-5.737-2.396l-0.006-0.002l-24.971-10.402v10.604v0.003v2.953l-2.971-2.933v-0.006l-9.158-9.005
		l-3.276,9.111l0,0l-3.534,9.845l-4.301-9.775l0,0l-4.332-9.842l-10.424,8.62l-3.311-10.616l-27.489,11.006L252.84,145.583z"/>
	<polygon fill="#FFFFFF" points="234.741,185.098 245.163,176.478 249.496,186.322 249.496,186.322 253.797,196.096 
		257.331,186.256 257.331,186.256 260.609,177.145 269.768,186.151 269.768,186.155 272.74,189.083 272.74,186.131 272.74,186.13 
		272.74,175.526 297.704,185.928 297.708,185.931 303.45,188.323 300.592,185.905 300.592,185.905 252.84,145.583 203.938,185.488 
		231.425,174.482 	"/>
	<path fill="#002E61" d="M364.961,322.611v-0.637h0.628h16.325h0.629v0.637c0,0,0.021,10.184,0.021,10.201
		c0,0.039-0.049,4.039,1.723,5.815c0.554,0.543,1.221,0.817,2.043,0.794h0.041l0.033,0.008c0.033,0,0.844,0.047,1.7-0.709
		c1.104-0.984,1.759-2.931,1.882-5.597c0,0,0-10.604,0.006-10.664c0.002-0.06,0.473-6.656-3.619-9.094
		c0,0-13.742-9.671-13.723-9.646c-0.322-0.209-7.968-5.174-8.273-18.82v-23.174c-0.01-0.192-0.492-17.782,17.119-21.654
		c1.057-0.235,2.165-0.422,3.348-0.544c0.052-0.014,0.086-0.023,0.14-0.037c-2.783,0-12.015,0.587-17.729,0.573l-12.477,19.65
		l-1.099-0.654c-0.389-0.242-40.832-23.668-100.134-26.258c-2.302-0.071-56.939-1.492-105.182,23.266l-1.066,0.543
		c0,0-0.646-1.014-0.649-1.014c0,0-0.178-0.279-0.485-0.77c-0.021-0.043-0.048-0.078-0.072-0.123
		c-1.464-2.323-5.555-8.846-9.041-14.398l0,0l-5.839,0.003v0.614v18.479c0,0,0,0.572-0.012,0.572l-0.57,0.06
		c-0.021,0-2.941,0.354-3.11,7.419l-0.099,93.988l0.026,0.604c0,0,9.674-5.442,12.388-7.049c-5.902-7.964-4.997-19.503-4.949-19.979
		V291.43c0-1.531-0.349-2.584-0.985-3.068c-0.692-0.5-1.594-0.226-1.599-0.226l-0.828,0.271v-0.873v-18.002v-0.327l0.255-0.187
		c7.743-5.566,21.314-11.385,21.453-11.449l0.875-0.365v0.947v17.912v0.26l-0.186,0.188c-1.17,1.162-1.381,6.373-1.234,9.41v43.527
		c-0.152,4.586,0.865,6.188,1.489,6.723c0.543,0.486,1.056,0.41,1.066,0.41l0.085-0.02l0.09,0.006
		c0.261,0.018,0.479-0.066,0.699-0.271c1.232-1.186,1.418-5.28,1.377-6.775c0,0,0.096-50.506,0.096-50.525
		c0.048-1.997-0.41-2.707-0.688-2.965c-0.238-0.221-0.462-0.19-0.462-0.19l-0.745,0.146v-0.766v-18.383v-0.405l0.359-0.169
		c14.293-6.778,22.03-8.651,22.112-8.665l0.779-0.188v0.801v18.858v0.361l-0.316,0.178c-3.599,2.142-3.296,7.701-3.296,7.791v60.834
		c0.272,8.851-1.88,15.645-6.374,20.211c-0.207,0.215-0.408,0.398-0.604,0.568c-0.362,0.338-0.729,0.645-1.101,0.939
		c2.307-1.426,12.223-7.733,14.279-9.09c-1.746-4.773-1.682-9.047-1.672-9.312V264.65c1.246-22.881,21.362-23.146,21.549-23.146
		c9.385-0.339,15.559,6.582,16.989,8.381l2.677-1.217l0.891-0.407v0.971v36.967v0.635h-0.627h-17.162h-0.63v-0.635v-13.28
		c0.046-3.19-0.7-4.642-1.333-5.29c-0.579-0.6-1.131-0.609-1.164-0.609c-0.52,0-0.953,0.185-1.314,0.576
		c-1.31,1.375-1.431,4.838-1.374,6.09v55.379c-0.241,4.195,0.595,6.008,1.333,6.791c0.574,0.607,1.121,0.607,1.151,0.607
		c0.583-0.008,1.063-0.242,1.464-0.689c1.429-1.572,1.449-5.498,1.333-6.933v-17.466h-2.312h-0.629v-0.633v-14.217v-0.639h0.629
		h19.902h0.629v0.639v49.471v0.133l-0.062,0.123c-0.292,0.677-0.595,1.318-0.905,1.93c-0.048,0.096-0.093,0.184-0.14,0.274
		c-0.234,0.44-0.467,0.875-0.709,1.294c-0.231,0.402-0.468,0.793-0.706,1.171c-0.023,0.036-0.041,0.063-0.064,0.096
		c-1.746,2.748-3.667,4.813-5.593,6.37c2.517-1.52,11.36-7.025,13.298-8.285c-1.989-5.08-1.769-9.72-1.759-9.967V258
		c0.342-7.229,2.662-12.821,6.9-16.641c6.393-5.772,14.781-5.365,15.092-5.352c8.898,0,15.273,7.073,16.727,8.836l3.316-1.524
		l0.889-0.409v0.98v42.344v0.629h-0.637h-17.488h-0.629v-0.629v-18.75c0.049-3.269-0.726-4.738-1.369-5.422
		c-0.594-0.603-1.16-0.61-1.203-0.61c-0.53,0-0.965,0.196-1.348,0.585c-1.333,1.418-1.465,4.947-1.395,6.229v60.74
		c-0.253,4.288,0.604,6.139,1.354,6.939c0.592,0.609,1.156,0.609,1.188,0.609c0.601-0.005,1.091-0.238,1.5-0.695
		c1.451-1.609,1.484-5.619,1.369-7.084v-17.451h-2.375h-0.629v-0.631v-14.215v-0.636h0.629h20.302h0.636v0.636v49.229v0.132
		l-0.055,0.117c-1.377,3.116-2.979,5.633-4.663,7.671c1.286,1.57,7.183,8.4,7.183,8.4s0.027-19.743,0.047-19.743l0.469-0.121
		c0.045-0.011,2.972-0.851,2.457-8.106v-70.033c0-0.043-0.049-4.145-2.855-6.008l-0.271-0.195v-0.338v-19.047v-0.668l0.658,0.051
		c0.193,0.008,19.824,1.107,38.649,7.317l0.421,0.145v0.453v40.471v0.635h-0.633h-12.899h-0.636l0.014-0.639
		c0.129-7.812-0.957-19.99-4.342-21.558v31.082h9.229h0.632v0.623v14.318v0.631h-0.632h-9.229v27.648
		c0.225-0.041,0.514-0.164,0.835-0.426c1.422-1.136,3.759-5.152,3.403-19.312l-0.014-0.641h14.569v33.172
		c2.537,1.949,13.785,10.309,13.785,10.309l-0.008-19.496l0.419-0.15c0.175-0.061,4.31-1.641,4.222-10.4v-59.407
		c-0.004,0.013-0.021,0.013-0.034,0.025c-0.722,0.493-2.433,2.817-2.884,13.632l-0.022,0.605h-0.609h-11.277h-0.632v-0.633v-39.141
		v-0.821l0.802,0.212c0.22,0.057,22.25,6.065,47.347,20.536l0.306,0.183v0.355v18.575v0.635h-0.63h-10.703h-0.562l-0.068-0.553
		c-0.413-3.509-1.571-8.347-3.008-9.876v55.604c0,0.075-0.208,8.575,4.351,10.383l0.397,0.155v9.896
		c2.388,1.316,13.462,7.162,13.462,7.162l-0.027-1.268v-35.64h0.008v-0.009H364.961L364.961,322.611z"/>
	<path fill="#FAB839" d="M155.307,361.021c-5.65-0.051-10.14-1.867-13.372-5.414c-6.849-7.521-5.833-20.403-5.819-20.526v-43.649
		c0-1.992-0.511-3.371-1.515-4.084c-0.652-0.47-1.357-0.552-1.9-0.533v-16.943c6.523-4.631,17-9.393,20.068-10.742v16.738
		c-1.724,2.226-1.452,9.275-1.415,10.107v43.461c-0.133,3.92,0.532,6.535,1.964,7.737c0.938,0.785,1.858,0.693,2.067,0.656
		c0.563,0,1.085-0.21,1.516-0.617c1.857-1.798,1.786-7.108,1.765-7.694c0,0.014,0.101-50.496,0.101-50.496
		c0.044-1.94-0.35-3.283-1.164-3.961c-0.254-0.218-0.506-0.336-0.735-0.398v-17.419c11.399-5.377,18.495-7.578,20.728-8.202v17.705
		c-3.921,2.652-3.614,8.461-3.593,8.718v60.796c0.245,8.514-1.78,15-6.013,19.301C162.6,361.057,155.375,361.021,155.307,361.021z"
		/>
	<path fill="#FAB839" d="M126.24,267.439c0,0.015-0.089,85.213-0.099,93.371h-13.642L99.33,296.146l-1.248,0.121v38.746
		c0.034,0.315,0.638,6.271,4.838,8.747v17.052H83.549l-0.025-17.103c0.982-0.688,3.874-3.194,3.789-8.687
		c0,0.006-0.087-66.426-0.087-66.426c0.002-0.287,0.213-7.521-3.798-9.91l0.099-17.129h16.77l13.729,66.783l1.251-0.124
		l-0.098-40.654c0.014-0.273,0.224-6.986-3.789-9.011V241.56h18.547v17.37C128.786,259.329,126.392,260.951,126.24,267.439z"/>
	<path fill="#FAB839" d="M201.384,360.932c-6.139-0.031-10.989-1.85-14.463-5.435c-6.068-6.258-5.879-15.806-5.879-15.901v-74.89
		c1.177-21.64,19.532-21.923,20.311-21.923c9.882-0.362,16.201,8.176,16.261,8.264l0.302,0.41l0.465-0.204l2.235-1.022v35.353
		h-15.893v-12.636c0.052-2.959-0.545-5.06-1.742-6.244c-0.952-0.931-1.925-0.931-2.033-0.931c-0.848,0-1.599,0.334-2.206,0.976
		c-1.952,2.049-1.735,6.795-1.716,6.985v55.312c-0.22,3.759,0.371,6.372,1.741,7.749c0.956,0.969,1.937,0.943,2.041,0.939
		c0.923-0.033,1.714-0.394,2.352-1.102c2.08-2.309,1.672-7.609,1.663-7.828v-18.053v-0.623h-0.632h-2.304v-12.956h18.643v48.698
		C213.775,361.346,201.893,360.952,201.384,360.932z"/>
	<path fill="#FAB839" d="M266.723,345.582c-6.893,15.484-19.43,15.37-19.559,15.361c-6.637-0.223-11.804-2.312-15.382-6.221
		c-5.799-6.35-5.377-15.441-5.373-15.543v-81.125c0.33-6.845,2.5-12.144,6.472-15.736c5.997-5.418,14.15-5.037,14.223-5.03
		c9.344,0,16.014,8.639,16.078,8.736l0.301,0.403l0.469-0.223l2.863-1.322v40.732h-16.242v-18.113
		c0.049-3.004-0.555-5.152-1.771-6.355c-0.972-0.949-1.957-0.939-2.057-0.936c-0.871-0.005-1.641,0.328-2.255,0.979
		c-1.985,2.088-1.757,6.914-1.744,7.115v60.688c-0.223,3.815,0.375,6.481,1.771,7.889c0.972,0.979,1.97,0.962,2.076,0.947
		c0.937-0.019,1.75-0.394,2.396-1.111c2.11-2.354,1.7-7.754,1.687-7.971c0.006,0.05,0.006-18.029,0.006-18.029v-0.638h-0.631h-2.371
		v-12.95h19.043v48.442L266.723,345.582L266.723,345.582z"/>
	<path fill="#FAB839" d="M309.078,360.799h-37.35v-17.588c1.067-0.531,3.412-2.488,2.94-9.18v-69.99
		c0-0.189-0.051-4.534-3.135-6.852v-18.062c3.519,0.251,20.622,1.683,37.229,7.077v39.389h-11.631
		c0.023-4.157-0.203-22.077-6.203-22.372l-0.651-0.035v0.666v32.504v0.636h0.625h9.229v13.043h-9.229h-0.625v0.637v28.896v0.469
		l0.434,0.133c0.123,0.047,1.146,0.332,2.361-0.593c1.976-1.493,4.247-6.14,3.973-19.746h12.031L309.078,360.799L309.078,360.799z"
		/>
	<path fill="#FAB839" d="M350.266,360.799h-24.896v-17.418c1.232-0.646,4.732-3.215,4.637-11.398v-60.074v-0.389l-0.342-0.176
		c-0.063-0.033-0.703-0.324-1.514,0.141c-1.976,1.144-3.162,5.892-3.539,14.113h-10.056v-37.67
		c4.11,1.196,23.789,7.269,45.947,20.004v17.576h-9.526c-0.346-2.611-1.642-10.314-4.703-10.898l-0.75-0.127v0.75v56.672
		c-0.006,0.347-0.203,8.947,4.741,11.38L350.266,360.799L350.266,360.799z"/>
	<path fill="#FAB839" d="M406.652,245.78v39.041l-15.236-0.004v-17.034c0.014-0.122,0.118-3.644-1.836-5.614
		c-0.881-0.907-2.018-1.346-3.395-1.32c-0.166,0-4.552,0.033-4.646,7.541v13.182c-0.014,0.244-0.351,6.802,3.225,9.146
		c0.045,0.041,6.05,4.238,14.854,10.604c0.051,0.043,7.225,5.746,7.042,17.766v24.273c0,0.074-0.044,7.113-5.163,12.211
		c-3.635,3.619-8.932,5.416-15.718,5.35c-0.124,0.007-8.384,0.441-15.386-6.717l-0.402-0.424l-0.439,0.363l-3.334,2.76v-33.666
		h15.077c0,2.211,0.016,9.549,0.016,9.535c-0.009,0.19-0.062,4.574,2.086,6.727c0.807,0.802,1.801,1.195,2.961,1.164h-0.064
		c0.051,0,1.34,0.113,2.603-0.969c1.416-1.234,2.204-3.435,2.346-6.543v-10.646c0.022-0.244,0.543-7.377-4.195-10.209
		c0.048,0.022-13.691-9.637-13.691-9.637c-0.105-0.062-7.425-4.865-7.722-17.796v-23.18c-0.035-0.828-0.531-19.595,20.61-21.059
		c0.092-0.007,10.396-0.361,16.416,6.107l0.275,0.312l0.383-0.138L406.652,245.78z"/>
</g>
</svg>
