<?xml version="1.0" encoding="utf-8"?>
<!-- Generator: Adobe Illustrator 16.0.0, SVG Export Plug-In . SVG Version: 6.00 Build 0)  -->
<!DOCTYPE svg PUBLIC "-//W3C//DTD SVG 1.1//EN" "http://www.w3.org/Graphics/SVG/1.1/DTD/svg11.dtd">
<svg version="1.1" id="content" xmlns="http://www.w3.org/2000/svg" xmlns:xlink="http://www.w3.org/1999/xlink" x="0px" y="0px"
	 width="500px" height="500px" viewBox="0 0 500 500" enable-background="new 0 0 500 500" xml:space="preserve">
<g id="bounds">
	<rect x="1.55" y="0.25" fill="none" stroke="#EAEAEA" stroke-miterlimit="10" width="499.5" height="499.5"/>
</g>
<rect id="position" x="0.5" y="0.5" display="none" fill="none" stroke="#000000" width="499" height="499"/>
<g>
	<path opacity="0.2" fill="#212121" enable-background="new    " d="M189.39,378.018c1.94,2.176,3.936,4.297,5.96,6.404
		C193.326,382.314,191.333,380.188,189.39,378.018z"/>
	<path fill="#0E6391" d="M309.965,204.177l13.301-83.94c0.976-6.085-3.159-11.756-9.249-12.709l-21.938-3.487l-16.771,105.895
		l21.943,3.474C303.33,214.378,309.012,210.262,309.965,204.177z M301.314,116.763l10.982,1.73l-13.312,83.945l-10.971-1.741
		L301.314,116.763z"/>
	<path fill="#0E6391" d="M361.355,234.501l21.114-43.305l3.257,1.6L373.8,240.589l10.011,4.877l11.93-47.771
		c4.385,2.136,8.273,0.178,10.521-4.421l17.371-35.606c2.705-5.554,0.417-12.194-5.146-14.906l-20.021-9.771l-47.129,96.642
		L361.355,234.501z M403.599,147.892l10,4.886l-16.224,33.287l-10.018-4.886L403.599,147.892z"/>
	<path fill="#0E6391" d="M325.219,220.477l21.127,6.865l3.436-10.57l-21.133-6.86l11.422-35.134l15.846,5.156l3.44-10.567
		l-15.853-5.153l11.408-35.119l21.146,6.857l3.421-10.562l-21.127-6.873c-5.863-1.906-12.097,1.284-14.01,7.139l-26.268,80.827
		C316.182,212.321,319.359,218.579,325.219,220.477z"/>
	<path fill="#0E6391" d="M245.465,178.257c0.172-9.466-0.4-28.555-0.844-37.562l0.306,0.005
		c2.876,23.929,8.198,46.248,11.704,68.834l10.506,0.186l1.871-107.198l-11.104-0.202l-0.533,31.086
		c-0.162,9.458,0.406,28.547,0.847,37.557h-0.304c-2.876-23.933-8.203-46.246-11.714-68.84l-10.503-0.189l-1.871,107.201
		l11.111,0.191L245.465,178.257z"/>
	<polygon fill="#0E6391" points="90.278,151.581 132.4,237.957 142.383,233.087 100.265,146.711 110.259,141.841 105.381,131.857 
		75.414,146.467 80.284,156.458 	"/>
	<path fill="#0E6391" d="M210.844,213.385c9.058-1.441,15.302-10.034,13.867-19.076l-14.304-90.317l-10.979,1.738l15.04,94.927
		l-10.979,1.72l-15.036-94.914l-10.974,1.735l14.312,90.315C193.223,208.569,201.808,214.815,210.844,213.385z"/>
	<polygon fill="#0E6391" points="165.137,223.674 150.286,177.983 160.862,174.55 175.71,220.243 186.259,216.809 153.139,114.836 
		142.569,118.275 157.417,163.974 146.853,167.413 132.004,121.704 121.447,125.143 154.572,227.106 	"/>
	<path fill="#EFEFEF" d="M189.39,362.268c1.94,2.174,3.936,4.297,5.96,6.4C193.326,366.564,191.333,364.438,189.39,362.268z
		 M352.465,302.662c-0.231,0.537-0.461,1.091-0.697,1.627C352.004,303.753,352.231,303.201,352.465,302.662z"/>
	<path fill="#EFEFEF" d="M230.46,342.805l3.49-1.609l8.917-7.178l1.985-5.488c1.292,2.629,1.982,3.654,3.264,6.26l2.936-1.298
		c0.099,2.842,0.15,5.579,0.15,8.214c-6.43,1.48-13.396,2.24-20.575,2.383L230.46,342.805z M256.113,331.264
		c3.693-1.633,7.385-3.248,11.084-4.854l1.732-1.828c0.729,0.113,1.567,0.135,2.521,0.061c1.438-0.229,3.183-0.736,5.104-1.396
		c-1.25,4.531-1.986,8.475-2.344,11.878c-5.256,1.853-11.17,3.604-17.888,5.317C256.301,337.494,256.225,334.426,256.113,331.264z
		 M252.152,231.769c40.27,0.005,71.838,9.435,107.467,27.181c-17.438,65.729-49.342,109.887-107.441,145.743
		c-21.833-13.508-40.39-28.569-55.908-45.709c6.902-3.295,14.678-6.983,21.517-10.209c2.762,0.246,5.4,0.389,7.885,0.438
		c-0.148,3.793-1.359,6.582-3.264,8.567c1.106,1.271,2.25,2.539,3.378,3.783c3.012-2.688,4.944-6.66,5.099-12.315
		c7.08-0.127,13.903-0.853,20.232-2.202c-0.35,10.374-1.799,17.993-4.742,21.008c-0.112,0.1-0.184,0.188-0.21,0.264
		c-0.743,0.802-1.393,1.439-1.964,1.938c2.839-0.524,5.652-1.184,8.402-1.955c3.562-7.364,3.605-20.25,3.664-22.485
		c6.575-1.652,12.451-3.342,17.75-5.129c0.195,6.054,2.627,11.824,7.229,13.955c2.081-1.466,4.103-3.024,6.069-4.646
		c-1.17,0.167-8.5,0.688-8.394-11.069c15.472-5.849,25.546-12.872,34.407-23.349c2.338-5.289,4.211-10.832,5.549-16.572
		c-10.592,16.699-20.365,26.484-39.428,34.143c0.552-3.381,1.537-7.414,3.113-12.241c5.541-2.327,11.348-5.109,14.848-6.558
		l8.344-8.76c2.092-8.082,4.18-16.188,6.261-24.267l-6.513,2.03l7.653-8.057c1.606-6.348,3.188-12.689,4.772-19.025
		c-3.846,0.563-7.688,1.137-11.536,1.742c0.649-3.16,1.118-6.312,1.358-9.44c-1.857-0.47-3.713-0.921-5.571-1.33
		c-0.396,3.506-1.079,7.418-2.138,11.772l-0.52,0.077c-3.605,0.601-7.303,1.781-10.496,4.49l1.019-3.121
		c-6.158,1.106-12.332,2.249-18.499,3.447l-6.121,6.448l0.189-0.527l2.009-5.156c-6.103,1.247-12.188,2.535-18.272,3.858
		c-1.261-8.21-2.531-15.628-3.641-21.642c-1.725,0.202-3.444,0.43-5.165,0.682c1.121,6.09,2.431,13.686,3.703,22.082l-4.302,0.975
		l-5.483,5.768c-3.83-4.053-11.626-1.49-16.528-0.258c-5.329,1.344-10.639,2.752-15.949,4.168c-1.593,0.441-3.167,0.916-4.711,1.455
		c-3.994-5.748-7.723-11.66-10.793-18.037l-0.576-1.166c-1.601,0.652-3.201,1.334-4.804,2.021l0.68,1.406
		c3.02,6.231,6.634,12.062,10.541,17.714c-5.728,2.551-11.03,6.077-15.6,11.133c0,0-7.444,7.797-8.328,8.761
		c-1.929,2.209-3.593,4.572-5.069,6.985c-7.813-15.733-14.02-32.865-18.677-51.625C180.304,241.195,211.884,231.769,252.152,231.769
		z"/>
	<path fill="#ED513A" d="M230.46,342.805l3.49-1.609l8.917-7.178l1.985-5.488c1.292,2.629,1.982,3.654,3.264,6.26l2.936-1.298
		c0.099,2.842,0.15,5.579,0.15,8.214c-6.43,1.48-13.396,2.24-20.575,2.383L230.46,342.805z M256.113,331.264
		c3.693-1.633,7.385-3.248,11.084-4.854l1.732-1.828c0.729,0.113,1.567,0.135,2.521,0.061c1.438-0.229,3.183-0.736,5.104-1.396
		c-1.25,4.531-1.986,8.475-2.344,11.878c-5.256,1.853-11.17,3.604-17.888,5.317C256.301,337.494,256.225,334.426,256.113,331.264z
		 M185.912,262.57c17.753-7.289,35.906-12.287,54.639-14.985c1.118,6.088,2.428,13.685,3.703,22.085l-4.302,0.971l-5.486,5.77
		c-3.829-4.059-11.624-1.494-16.528-0.262c-5.329,1.348-10.641,2.757-15.952,4.176c-1.593,0.436-3.164,0.908-4.708,1.451
		c-3.992-5.75-7.723-11.661-10.793-18.039L185.912,262.57z M181.484,290.316c-2.879-7.303-5.418-14.801-7.608-22.457
		c2.397-1.131,4.812-2.221,7.232-3.271l0.68,1.411c3.02,6.229,6.634,12.061,10.541,17.709
		C188.496,285.42,184.85,287.568,181.484,290.316z M222.407,357.782c-2.283-2.628-4.522-5.308-6.68-8.032l2.062-0.975
		c2.762,0.246,5.4,0.388,7.884,0.438C225.522,353.008,224.312,355.797,222.407,357.782z M244.197,370.252
		c-2.9,0.542-5.849,0.945-8.851,1.213c-3.283-3.205-6.478-6.507-9.559-9.898c3.009-2.688,4.944-6.658,5.098-12.314
		c7.083-0.127,13.903-0.854,20.23-2.202c-0.346,10.374-1.793,17.993-4.742,21.009c-0.112,0.098-0.181,0.187-0.208,0.264
		C245.42,369.119,244.771,369.754,244.197,370.252z M281.247,354.643c-8.593,6.062-18.261,10.727-28.646,13.66
		c3.562-7.365,3.605-20.25,3.664-22.486c6.575-1.651,12.451-3.342,17.75-5.129C274.213,346.74,276.639,352.518,281.247,354.643z
		 M313.326,315.584c-5.939,13.396-14.898,25.163-26.012,34.417c-1.172,0.167-8.496,0.69-8.396-11.069
		C294.391,333.086,304.465,326.062,313.326,315.584z M273.855,245.22c8.52,0,16.914,0.444,25.178,1.341
		c6.311,1.321,12.539,2.911,18.717,4.787c2.365,8.262,3.629,16.984,3.629,26.002c0,7.451-0.863,14.701-2.504,21.664
		c-10.59,16.689-20.363,26.48-39.428,34.141c0.547-3.383,1.537-7.418,3.107-12.244c5.547-2.324,11.354-5.109,14.854-6.559
		l8.344-8.759c2.086-8.079,4.178-16.186,6.262-24.267l-6.514,2.031l7.654-8.057c1.605-6.344,3.188-12.691,4.771-19.025
		c-3.845,0.567-7.688,1.142-11.535,1.74c0.65-3.16,1.117-6.306,1.355-9.439c-1.863-0.469-3.71-0.918-5.57-1.33
		c-0.396,3.511-1.078,7.415-2.136,11.771l-0.519,0.078c-3.605,0.602-7.305,1.785-10.496,4.497l1.018-3.129
		c-6.16,1.112-12.332,2.248-18.5,3.447l-6.122,6.444l0.188-0.528l2.012-5.156c-6.104,1.25-12.188,2.535-18.272,3.861
		c-1.261-8.21-2.534-15.625-3.641-21.642C254.941,245.783,264.316,245.22,273.855,245.22z"/>
	<path fill="#FBBA40" d="M173.313,298.445c-5.018-10.934-9.22-22.326-12.584-34.096c29.842-14.072,60.727-21.669,93.513-22.559
		c15.339,0.13,30.227,1.73,44.791,4.769c-8.264-0.897-16.658-1.341-25.178-1.341c-9.539,0-18.914,0.555-28.145,1.681
		c-1.728,0.207-3.445,0.435-5.162,0.684c-18.733,2.694-36.888,7.697-54.639,14.986c-1.601,0.652-3.206,1.332-4.804,2.02
		c-2.42,1.049-4.825,2.145-7.232,3.27c2.19,7.656,4.729,15.146,7.608,22.457c-1.643,1.36-3.243,2.867-4.753,4.531L173.313,298.445z
		 M253.908,393.758c-17.107-11.596-32.359-25.223-45.527-40.54l7.346-3.474c2.158,2.725,4.39,5.4,6.68,8.027
		c1.109,1.277,2.25,2.545,3.381,3.789c9.755,10.719,20.562,20.543,32.345,29.365C256.742,391.887,255.333,392.828,253.908,393.758z"
		/>
	<path fill="#002E61" d="M230.46,342.805l0.167,1.281c7.179-0.141,14.145-0.9,20.575-2.383c0-2.633-0.056-5.372-0.149-8.214
		l-2.937,1.298c-1.282-2.604-1.972-3.631-3.264-6.258l-1.985,5.488l-8.917,7.178L230.46,342.805z M256.113,331.264
		c0.111,3.162,0.183,6.236,0.212,9.176c6.712-1.719,12.632-3.465,17.882-5.316c0.355-3.404,1.096-7.348,2.338-11.878
		c-1.922,0.66-3.656,1.167-5.105,1.396c-0.949,0.075-1.791,0.062-2.521-0.06l-1.726,1.828
		C263.498,328.016,259.807,329.631,256.113,331.264z M252.152,231.769c-40.267,0-71.848,9.435-107.495,27.199
		c4.655,18.761,10.862,35.904,18.678,51.63c1.478-2.416,3.143-4.777,5.069-6.99c0.884-0.963,8.328-8.76,8.328-8.76
		c4.573-5.054,9.873-8.588,15.597-11.131c-3.907-5.645-7.519-11.48-10.537-17.709l-0.681-1.412c1.6-0.687,3.203-1.365,4.806-2.019
		l0.573,1.165c3.071,6.371,6.802,12.29,10.793,18.033c1.544-0.533,3.115-1.01,4.708-1.446c5.31-1.425,10.623-2.829,15.954-4.175
		c4.901-1.239,12.696-3.795,16.528,0.261l5.483-5.769l4.302-0.972c-1.277-8.401-2.585-15.997-3.702-22.091
		c1.717-0.244,3.434-0.472,5.162-0.68c1.111,6.006,2.38,13.434,3.644,21.642c6.078-1.326,12.167-2.606,18.267-3.856l-2.009,5.155
		l-0.188,0.521l6.12-6.44c6.167-1.199,12.341-2.338,18.499-3.447l-1.017,3.127c3.192-2.713,6.889-3.891,10.495-4.498l0.519-0.074
		c1.058-4.355,1.74-8.256,2.138-11.772c1.858,0.417,3.713,0.86,5.571,1.333c-0.24,3.133-0.709,6.276-1.356,9.434
		c3.846-0.6,7.688-1.172,11.534-1.737c-1.584,6.342-3.166,12.68-4.772,19.024l-7.653,8.055l6.515-2.032
		c-2.081,8.08-4.174,16.187-6.263,24.267l-8.344,8.758c-3.5,1.449-9.308,4.229-14.849,6.56c-1.575,4.83-2.557,8.86-3.112,12.244
		c19.06-7.659,28.836-17.449,39.428-34.144c-1.342,5.743-3.211,11.281-5.549,16.571c-8.86,10.479-18.94,17.507-34.407,23.349
		c-0.105,11.761,7.225,11.229,8.395,11.067c-1.965,1.625-3.984,3.183-6.067,4.644c-4.606-2.125-7.037-7.897-7.233-13.947
		c-5.293,1.783-11.174,3.474-17.75,5.127c-0.058,2.23-0.101,15.126-3.664,22.49c-2.75,0.768-5.562,1.431-8.401,1.951
		c0.573-0.5,1.221-1.136,1.961-1.937c0.029-0.077,0.101-0.17,0.213-0.261c2.943-3.022,4.394-10.639,4.742-21.016
		c-6.329,1.354-13.152,2.073-20.232,2.201c-0.152,5.655-2.086,9.628-5.099,12.316c-1.128-1.247-2.271-2.512-3.378-3.784
		c1.905-1.983,3.113-4.772,3.264-8.563c-2.481-0.06-5.123-0.195-7.885-0.442c-6.839,3.225-14.615,6.916-21.517,10.21
		c15.519,17.143,34.074,32.201,55.909,45.709c58.101-35.863,90.006-80.016,107.44-145.742
		C323.99,241.195,292.422,231.773,252.152,231.769z M136.088,255.048c38.542-19.851,72.38-30.649,116.064-30.649
		c43.693,0,77.535,10.809,116.082,30.649c-17.908,72.157-52.108,119.937-116.082,158.278c-24.12-14.471-45.22-31.396-62.756-51.059
		c-4.859,2.324-8.75,4.209-10.725,5.188c-6.04,2.999-12.066,6.02-18.085,9.084c-6.784,3.445-14.293,8.703-22.141,6.67
		c-8.521-3.716-2.909-14.092-0.284-20.018c6.648-14.944,13.566-29.773,20.803-44.469c-8.704-16.304-15.512-34.012-20.28-53.218
		L136.088,255.048z"/>
	<path fill="#EFEFEF" d="M299.863,262.195c-3.701,0.606-7.035,1.791-9.795,4.57c-2.268,2.43-3.463,5.346-4.453,8.435
		c-2.961,9.245-5.92,18.493-8.883,27.757c-1.156,3.657-3.057,10.314,2.814,9.816c1.993-0.318,3.893-1.16,5.764-1.957
		c5.92-2.525,11.875-5.015,17.836-7.475c1.514-5.816,3.018-11.615,4.509-17.438c-3.14,0.979-6.263,1.961-9.368,2.967
		c-0.75,2.627-1.475,5.26-2.213,7.879c-2.172,0.785-4.354,1.587-6.514,2.385c2.756-9.386,5.493-18.765,8.226-28.158
		c1.932-0.418,3.86-0.816,5.782-1.23c-0.463,1.645-0.918,3.291-1.361,4.939c2.8-0.674,5.621-1.342,8.42-1.98
		c1.078-4.227,2.137-8.459,3.188-12.691C309.163,260.703,304.521,261.434,299.863,262.195z M273.223,266.748
		c-6.654,8.682-13.197,17.423-19.67,26.21c3.018-8.042,6.066-16.083,9.176-24.103c-6.889,1.408-13.75,2.912-20.592,4.459
		c-1.784,4.134-3.546,8.285-5.303,12.438c1.492-0.407,2.967-0.815,4.442-1.22c-5.39,13.048-10.647,26.146-15.8,39.285
		c-2.115,5.326-4.214,10.658-6.308,16.002c6.868-3.254,13.76-6.473,20.655-9.65c3.123-8.622,6.289-17.232,9.477-25.852
		c2.922,5.877,5.836,11.76,8.719,17.652c4.444-1.972,8.897-3.938,13.358-5.884c-2.715-6.198-5.459-12.388-8.245-18.562
		c4.939-7.491,9.917-14.965,14.943-22.406c1.425-0.328,2.84-0.662,4.259-1c1.062-3.227,2.112-6.465,3.175-9.691
		C281.414,265.188,277.328,265.957,273.223,266.748z M191.208,338.664c-4.795,2.148-9.57,4.309-14.354,6.488
		c6.926-16.055,14.125-32,21.612-47.822c4.204-1.332,8.432-2.645,12.641-3.924C204.233,308.408,197.609,323.495,191.208,338.664z
		 M202.67,283.338c-9.081,2.459-17.173,6.35-23.648,13.514c-3.72,4.25-6.366,9.146-8.837,14.152
		c-7.247,14.721-14.195,29.587-20.851,44.586c-1.736,3.896-7.073,13.418-1.396,15.881c6.273,1.629,14.137-3.646,19.669-6.471
		c6.022-3.072,12.072-6.102,18.115-9.1c10.308-5.104,19.545-11.303,25.812-21.27c2.5-4.229,4.362-8.729,6.177-13.244
		c3.958-9.688,7.951-19.367,12.048-29c1.542-3.617,4.196-8.178,3.347-12.119c-1.73-5.307-10.666-2.074-14.562-1.09
		C213.237,280.523,207.943,281.906,202.67,283.338z"/>
	<path fill="#007EC0" d="M324.873,253.602c2.829,0.932,5.473,1.869,8.116,2.871c6.595,2.452,12.438,4.955,17.279,7.27
		c-14.923,51.234-45.491,94.178-88.612,124.756l-3.523,2.441c-12.635-9.479-20.074-16.879-20.074-16.879l5.95-0.99
		c18.021-3.019,35.407-11.18,49.777-24.582c24.497-22.857,34.429-55.48,29.386-86.233c-0.116-0.694-0.252-1.39-0.385-2.085
		l-0.055-0.306l-0.061-0.308l-0.074-0.346l-0.062-0.332l-0.066-0.342l-0.061-0.334l-0.077-0.364l-0.066-0.354l-0.079-0.332
		l-0.062-0.281l-0.085-0.398l-0.093-0.367l-0.062-0.285l-0.059-0.271l-0.074-0.268c-0.271-1.112-0.515-2.053-0.774-2.944
		C322.291,252.755,323.594,253.18,324.873,253.602z"/>
	<path fill="#007EC0" d="M355.195,296.115c24.599-5.484,48.709-9.121,71.988-10.979c-25.803,7.908-52.068,16.681-78.686,26.308
		C350.869,306.479,353.102,301.365,355.195,296.115z M95.095,426.064c20.591-18.18,43.788-35.473,69.217-51.424
		c4.769-2.412,9.562-4.812,14.354-7.182c1.977-0.989,5.871-2.867,10.724-5.191c3.278,3.668,6.672,7.24,10.191,10.727
		C163.085,390.008,128.15,407.785,95.095,426.064z"/>
	<path fill="#ED513A" d="M365.402,265.775c21.26-0.908,41.93-0.558,61.781,0.994c-21.385,3.021-43.16,6.545-65.252,10.565
		C363.137,273.559,364.307,269.693,365.402,265.775z M77.137,354.043c23.874-15.195,50.327-29.009,78.887-41.036
		c0.953,1.933,1.929,3.843,2.946,5.72c-1.547,3.135-3.078,6.271-4.591,9.424C127.822,336.34,102.043,344.984,77.137,354.043z"/>
</g>
</svg>
