<?xml version="1.0" encoding="utf-8"?>
<!-- Generator: Adobe Illustrator 16.0.0, SVG Export Plug-In . SVG Version: 6.00 Build 0)  -->
<!DOCTYPE svg PUBLIC "-//W3C//DTD SVG 1.1//EN" "http://www.w3.org/Graphics/SVG/1.1/DTD/svg11.dtd">
<svg version="1.1" id="content" xmlns="http://www.w3.org/2000/svg" xmlns:xlink="http://www.w3.org/1999/xlink" x="0px" y="0px"
	 width="500px" height="500px" viewBox="0 0 500 500" enable-background="new 0 0 500 500" xml:space="preserve">
<rect id="position" x="0.5" y="0.5" display="none" fill="none" stroke="#000000" width="499" height="499"/>
<g>
	<path fill="#0E6391" d="M322.959,175.489h-30.542C286.766,189.592,250.026,204,250.026,204s-36.738-14.408-42.391-28.511h-30.542
		c-3.507,23.43-16.508,53.761-60.344,53.761c-0.046,0-0.088,0-0.133,0v240.83h133.41h132.466V229.25c-0.045,0,0.854,0,0.811,0
		C339.467,229.25,326.466,198.919,322.959,175.489z"/>
	<path fill="#007EC0" d="M286.502,293.475c8.633-1.926,17.094-3.201,25.264-3.854c-9.055,2.775-18.273,5.854-27.613,9.232
		C284.984,297.111,285.768,295.316,286.502,293.475z"/>
	<path fill="#ED513A" d="M290.084,282.826c7.461-0.318,14.715-0.194,21.682,0.35c-7.504,1.061-15.146,2.297-22.898,3.709
		C289.289,285.559,289.699,284.202,290.084,282.826z"/>
	<path fill="#007EC0" d="M195.224,339.078c7.226-6.38,15.367-12.448,24.29-18.046c1.674-0.847,3.356-1.688,5.038-2.521
		c0.694-0.348,2.061-1.006,3.764-1.822c1.15,1.287,2.341,2.541,3.576,3.764C219.084,326.424,206.824,332.663,195.224,339.078z"/>
	<path fill="#ED513A" d="M188.922,313.803c8.378-5.332,17.661-10.18,27.685-14.4c0.334,0.678,0.676,1.349,1.032,2.007
		c-0.543,1.1-1.079,2.2-1.611,3.307C206.709,307.59,197.662,310.624,188.922,313.803z"/>
	<path fill="none" stroke="#EFEFEF" stroke-width="3" stroke-miterlimit="10" d="M209.61,279.062
		c13.526-6.967,25.401-10.756,40.731-10.756c15.333,0,27.21,3.793,40.737,10.756c-6.285,25.322-18.287,42.09-40.737,55.545
		c-8.465-5.078-15.87-11.019-22.024-17.918c-1.704,0.816-3.07,1.477-3.764,1.82c-2.119,1.053-4.234,2.112-6.346,3.188
		c-2.381,1.208-5.016,3.054-7.77,2.34c-2.99-1.304-1.021-4.945-0.1-7.024c2.333-5.244,4.762-10.449,7.301-15.605
		c-3.055-5.721-5.443-11.936-7.117-18.676L209.61,279.062z"/>
	<path opacity="0.2" fill="#212121" enable-background="new    " d="M305.061,209.412c-1.539,0-2.791-1.252-2.791-2.792v-14.099
		c0-1.54,1.252-2.792,2.791-2.792h4.184c1.539,0,2.792,1.252,2.792,2.793v14.098c0,1.54-1.253,2.792-2.792,2.792H305.061z"/>
	<path fill="#FFFFFF" d="M305.188,207.513c-1.443,0-2.621-1.176-2.621-2.623v-13.239c0-1.446,1.178-2.623,2.621-2.623h3.93
		c1.443,0,2.621,1.176,2.621,2.623v13.239c0,1.446-1.178,2.623-2.621,2.623H305.188z"/>
	<path fill="#C00033" d="M307.151,206.213h1.964c0.729,0,1.319-0.592,1.319-1.323v-13.239c0-0.73-0.592-1.323-1.319-1.323h-1.964"/>
	<path fill="#006CB3" d="M309.332,206.213c0,0-0.036-0.939-0.431-3.272l-1.75-1.812v-10.8h-1.964c-0.729,0-1.321,0.592-1.321,1.323
		v13.239c0,0.731,0.592,1.323,1.321,1.323h1.964L309.332,206.213L309.332,206.213z"/>
	<path opacity="0.2" fill="#212121" enable-background="new    " d="M309.679,198.18c-0.05-0.058,0.049-0.09-0.289-0.167
		c-0.062-0.035-0.11-0.529-0.11-0.529c-0.052-0.317-0.163-0.536-0.332-0.872c-0.085-0.173-0.125-0.71-0.216-0.984
		c0.051-1.255-0.353-1.62-0.678-1.824c-0.123-0.079-0.185-0.137-0.307-0.208l-0.004-0.058c-0.095-0.09-0.286-0.187-0.443-0.257
		c-0.049-0.049-0.023-0.156,0.008-0.196c0.106-0.016,0.248-0.254,0.365-0.5c0.092,0.005,0.122-0.084,0.151-0.135
		c0.099-0.157,0.204-0.294,0.065-0.384c0.311-0.552,0.111-0.924-0.057-0.938c-0.067-0.139-0.185-0.225-0.392-0.298l-0.425-0.001
		c-0.438,0.168-0.501,0.36-0.518,0.969c-0.074,0.008-0.231-0.062-0.178,0.309c0,0,0.027,0.247,0.128,0.204
		c-0.097,0.652,0.017,0.703-0.661,0.732l-0.032,0.048c-0.675,0.065-0.888-0.02-1.456,1.138c0,0-0.147,0.358-0.19,0.507
		c-0.059,0.122-0.149,0.309-0.246,0.51v1.598c0.084,0.004,0.187,0.005,0.332,0.001v0.174c0,0-0.203,0.175-0.244,0.282
		c-0.021,0.048-0.057,0.188-0.088,0.344v0.883c0.143,0.506,0.505,0.968,0.635,1.498l0.352,0.049c0.199,0.45,1.062,1.672,1.236,1.833
		c0.041,0.113,0.26,0.253,0.388,0.393c0.105,0.1,0.729,0.782,1.459,1.201c-0.004,0,0.118,0.244,0.18,0.44
		c-0.243,0.195,0.225,0.552,0.367,1.142c0.011,0.077-0.136,0.159,0.08,0.352c-0.005,0.309-0.041,0.563-0.064,0.779h0.62h0.117
		c-0.047-0.228-0.14-0.452-0.188-0.624c-0.008-0.022,0.01-0.052,0.021-0.071c0.029-0.056-0.032-0.182-0.032-0.182
		c-0.069-0.063-0.09-0.398-0.129-0.548c-0.062-0.254,0.109-0.689,0.109-0.838c0-0.146-0.109-0.349-0.314-0.609
		c-0.05-0.056-0.195-1.323-0.327-1.644c-0.187-0.442-0.242-0.373-0.455-0.898c-0.171-0.373-0.039-0.92-0.419-2.192
		c0.004,0.005,0.086-0.08,0.086-0.08s-0.302-1.102-0.4-1.404c-0.1-0.301-0.271-0.323-0.271-0.323s0.001-0.123,0.008-0.155
		c0.015-0.049,0.368-0.969,0.397-0.998c0-0.022,0.51-0.366,0.52-0.317c0.042,0.226,0.24,1.37,0.323,1.553
		c0.087,0.185,0.38,0.746,0.519,1.094c-0.527,0.127-0.92,0.603-0.92,1.17c0,0.663,0.537,1.202,1.204,1.202
		c0.507,0,0.943-0.314,1.118-0.758l0.001-0.884c-0.038-0.097-0.089-0.192-0.155-0.282
		C309.926,198.244,309.731,198.248,309.679,198.18z"/>
	<path fill="#FFFFFF" d="M309.186,206.296c-0.236-0.14-0.225-0.344-0.167-0.816c0.024-0.201,0.055-0.436,0.06-0.71
		c-0.144-0.164-0.124-0.205-0.104-0.257l0.01-0.02l0.014-0.086c-0.065-0.271-0.19-0.488-0.29-0.662
		c-0.141-0.246-0.188-0.345-0.108-0.408c-0.019-0.233-0.098-0.407-0.135-0.489c-0.677-0.44-1.222-0.994-1.427-1.202
		c-0.117-0.122-0.184-0.178-0.244-0.231c-0.082-0.071-0.175-0.151-0.193-0.201c-0.18-0.177-1.041-1.395-1.238-1.839l-0.412-0.096
		c-0.004-0.226-0.143-0.491-0.276-0.748c-0.18-0.342-0.35-0.666-0.356-1.021c-0.006-0.228,0.107-0.748,0.149-0.847
		c0.023-0.062,0.146-0.185,0.224-0.251l0.028-0.235v-0.083l-0.286,0.006c-0.313,0-0.317-0.02-0.339-0.118
		c-0.01-0.048-0.022-0.114-0.058-0.191c-0.059-0.128-0.044-0.167-0.018-0.246c0.11-0.441,0.359-0.945,0.523-1.278l0.081-0.165
		c0.047-0.158,0.19-0.511,0.19-0.511c0.498-1.015,0.696-1.031,1.229-1.075l0.2-0.018l0.054-0.079c0.032,0,0.062,0,0.091,0
		c0.461,0,0.502-0.079,0.554-0.516l0.052-0.391l-0.131,0.057c0.012-0.011-0.012-0.081-0.02-0.141
		c-0.022-0.172,0.004-0.21,0.007-0.214l0.17-0.013l0.002-0.07c0.019-0.617,0.089-0.751,0.468-0.896l0.395,0.006
		c0.163,0.062,0.265,0.137,0.319,0.253c0.089,0.046,0.129,0.071,0.162,0.134c0.07,0.135,0.083,0.398-0.104,0.73l-0.037,0.065
		l0.062,0.041c0.047,0.031,0.044,0.063-0.065,0.234l-0.102,0.139c-0.288,0.481-0.384,0.5-0.385,0.5
		c-0.106,0.096-0.138,0.248-0.055,0.331c0.229,0.107,0.376,0.193,0.445,0.259c0.086,0.107,0.134,0.143,0.185,0.179l0.14,0.095
		c0.343,0.215,0.686,0.592,0.639,1.753c0.046,0.155,0.076,0.338,0.106,0.515c0.034,0.218,0.065,0.406,0.115,0.507
		c0.176,0.344,0.278,0.553,0.325,0.849c0.053,0.532,0.12,0.569,0.152,0.587c0.198,0.048,0.229,0.072,0.231,0.076
		c0.062,0.108,0.105,0.128,0.149,0.147c0.08,0.036,0.112,0.056,0.112,0.119c0.075,0.127,0.124,0.216,0.161,0.311l-0.009,0.855
		c-0.159,0.394-0.579,0.678-1.036,0.678c-0.62,0-1.124-0.503-1.124-1.122c0-0.522,0.353-0.971,0.856-1.093l0.09-0.021l-0.033-0.086
		c-0.102-0.253-0.282-0.619-0.408-0.873l-0.111-0.226c-0.067-0.148-0.229-1.054-0.292-1.395l-0.037-0.205l-0.074-0.005
		c-0.022,0-0.067,0-0.323,0.167c-0.269,0.174-0.269,0.195-0.269,0.236l0,0c-0.031,0-0.392,0.966-0.395,0.975
		c-0.011,0.042-0.013,0.177-0.013,0.177l-0.001,0.072l0.071,0.008c0.003,0,0.126,0.026,0.206,0.268c0.099,0.301,0.399,1.4,0.399,1.4
		h-0.107l0.022,0.082c0.218,0.729,0.266,1.217,0.3,1.573c0.024,0.267,0.045,0.46,0.123,0.629c0.111,0.282,0.185,0.396,0.254,0.507
		c0.058,0.094,0.115,0.187,0.199,0.389c0.072,0.18,0.156,0.705,0.22,1.088c0.075,0.472,0.091,0.542,0.121,0.578
		c0.195,0.249,0.297,0.437,0.297,0.557c0,0.042-0.021,0.13-0.044,0.223c-0.049,0.201-0.11,0.45-0.065,0.634
		c0.016,0.05,0.024,0.12,0.035,0.193c0.032,0.208,0.056,0.338,0.118,0.395c0.003,0.018,0.019,0.072,0.015,0.089l-0.017,0.031
		l-0.007,0.1c0.017,0.058,0.04,0.127,0.063,0.201c0.134,0.385,0.297,0.862-0.13,1.132L309.186,206.296z"/>
	<path fill="#36393D" d="M154.278,207.802c-7.583,8.998-24.105,13.308-36.979,13.665l-0.682,0.023v7.987
		c15.218-0.224,34.369-5.354,43.778-16.52c9.1-10.798,13.984-25.273,16.338-37.468h-8.186
		C166.31,186.193,161.979,198.664,154.278,207.802z"/>
	<path fill="#ED513A" d="M173.829,175.318c-2.132,11.535-6.63,25.368-15.686,35.657c-7.805,8.87-23.31,14.538-41.526,15.209v6.007
		c20.221-0.701,36.991-6.98,46.03-17.252c10.165-11.551,15.101-26.923,17.325-39.621H173.829z"/>
	<path fill="#36393D" d="M382,221.432c-12.759-0.499-28.788-4.805-36.225-13.63c-7.701-9.138-12.033-21.609-14.271-32.312h-8.186
		c2.354,12.195,7.235,26.669,16.338,37.468c9.115,10.817,27.374,15.969,42.342,16.484L382,221.432L382,221.432z"/>
	<path fill="#ED513A" d="M382,226.113c-17.591-0.911-32.491-6.502-40.09-15.138c-9.058-10.29-13.554-24.123-15.688-35.657h-6.144
		c2.224,12.698,7.159,28.07,17.325,39.621c8.82,10.026,25.02,16.237,44.594,17.18L382,226.113L382,226.113z"/>
	<path opacity="0.2" fill="#212121" enable-background="new    " d="M228.316,322.217c0.68,0.764,1.381,1.508,2.091,2.247
		C229.697,323.725,228.997,322.979,228.316,322.217z"/>
	<path fill="#EFEFEF" d="M270.629,261.21l4.668-29.458c0.342-2.135-1.109-4.125-3.246-4.46l-7.699-1.224l-5.885,37.163l7.701,1.22
		C268.301,264.79,270.295,263.346,270.629,261.21z M267.594,230.533l3.854,0.608l-4.671,29.458l-3.851-0.61L267.594,230.533z"/>
	<path fill="#EFEFEF" d="M288.664,271.852l7.41-15.197l1.143,0.562l-4.186,16.771l3.514,1.712l4.186-16.765
		c1.539,0.75,2.904,0.062,3.693-1.552l6.096-12.496c0.949-1.948,0.146-4.279-1.807-5.231l-7.025-3.428l-16.539,33.914
		L288.664,271.852z M303.488,241.458l3.51,1.714l-5.693,11.682l-3.516-1.715L303.488,241.458z"/>
	<path fill="#EFEFEF" d="M275.982,266.93l7.414,2.409l1.205-3.709l-7.416-2.407l4.008-12.33l5.562,1.81l1.207-3.708l-5.563-1.809
		l4.004-12.324l7.421,2.407l1.2-3.707l-7.414-2.412c-2.058-0.668-4.245,0.45-4.916,2.505l-9.219,28.366
		C272.811,264.068,273.926,266.264,275.982,266.93z"/>
	<path fill="#EFEFEF" d="M247.994,252.113c0.06-3.321-0.14-10.021-0.296-13.181l0.106,0.001c1.01,8.398,2.877,16.231,4.108,24.157
		l3.688,0.065l0.656-37.619l-3.896-0.071l-0.188,10.909c-0.057,3.319,0.143,10.018,0.297,13.181l-0.105-0.001
		c-1.01-8.398-2.879-16.229-4.111-24.158l-3.685-0.066l-0.658,37.62l3.899,0.067L247.994,252.113z"/>
	<polygon fill="#EFEFEF" points="193.533,242.752 208.316,273.064 211.82,271.355 197.038,241.043 200.546,239.334 198.834,235.83 
		188.317,240.957 190.027,244.464 	"/>
	<path fill="#EFEFEF" d="M235.844,264.441c3.179-0.506,5.37-3.521,4.866-6.694l-5.019-31.695l-3.853,0.61l5.277,33.312l-3.853,0.604
		l-5.277-33.308l-3.85,0.609l5.022,31.694C229.66,262.751,232.673,264.943,235.844,264.441z"/>
	<polygon fill="#EFEFEF" points="219.804,268.052 214.593,252.018 218.304,250.812 223.514,266.848 227.217,265.643 
		215.594,229.858 211.884,231.064 217.095,247.102 213.387,248.308 208.177,232.268 204.471,233.474 216.097,269.257 	"/>
	<path fill="#EFEFEF" d="M228.316,316.689c0.68,0.763,1.381,1.508,2.091,2.246C229.697,318.197,228.997,317.451,228.316,316.689z
		 M285.544,295.771c-0.082,0.188-0.162,0.383-0.245,0.571C285.382,296.154,285.462,295.961,285.544,295.771z"/>
	<path fill="#EFEFEF" d="M242.729,309.859l1.224-0.564l3.129-2.52l0.697-1.926c0.454,0.922,0.696,1.282,1.146,2.196l1.029-0.456
		c0.035,0.998,0.054,1.959,0.054,2.883c-2.257,0.521-4.702,0.787-7.221,0.836L242.729,309.859z M251.73,305.809
		c1.297-0.572,2.592-1.14,3.891-1.703l0.607-0.642c0.256,0.04,0.551,0.047,0.885,0.021c0.506-0.08,1.117-0.258,1.791-0.49
		c-0.438,1.591-0.697,2.974-0.822,4.169c-1.844,0.649-3.92,1.265-6.277,1.866C251.797,307.995,251.77,306.919,251.73,305.809z
		 M250.341,270.893c14.132,0.002,25.21,3.311,37.714,9.539c-6.119,23.066-17.316,38.562-37.706,51.146
		c-7.662-4.74-14.173-10.026-19.619-16.041c2.421-1.156,5.151-2.451,7.55-3.583c0.97,0.087,1.896,0.137,2.768,0.155
		c-0.053,1.33-0.478,2.31-1.146,3.006c0.388,0.447,0.789,0.892,1.186,1.328c1.056-0.943,1.734-2.338,1.789-4.322
		c2.485-0.045,4.879-0.299,7.099-0.773c-0.122,3.641-0.63,6.314-1.664,7.373c-0.039,0.034-0.064,0.064-0.073,0.092
		c-0.26,0.281-0.489,0.506-0.689,0.681c0.997-0.185,1.983-0.415,2.948-0.687c1.25-2.584,1.266-7.105,1.286-7.891
		c2.309-0.58,4.37-1.173,6.229-1.8c0.068,2.124,0.922,4.149,2.537,4.897c0.73-0.515,1.439-1.062,2.131-1.631
		c-0.41,0.059-2.982,0.242-2.945-3.885c5.43-2.053,8.965-4.518,12.074-8.193c0.82-1.856,1.479-3.802,1.947-5.816
		c-3.717,5.861-7.146,9.295-13.836,11.981c0.193-1.187,0.539-2.602,1.092-4.296c1.945-0.816,3.982-1.793,5.211-2.302l2.928-3.073
		c0.734-2.836,1.467-5.68,2.197-8.516l-2.285,0.713l2.686-2.827c0.564-2.228,1.119-4.453,1.676-6.677
		c-1.35,0.197-2.699,0.398-4.049,0.611c0.229-1.109,0.393-2.215,0.477-3.312c-0.652-0.165-1.303-0.323-1.955-0.467
		c-0.139,1.23-0.379,2.603-0.75,4.131l-0.182,0.027c-1.266,0.211-2.562,0.625-3.684,1.576l0.357-1.096
		c-2.162,0.389-4.328,0.789-6.492,1.21L255,284.436l0.066-0.185l0.705-1.81c-2.141,0.438-4.277,0.889-6.412,1.354
		c-0.443-2.881-0.89-5.484-1.278-7.595c-0.606,0.071-1.209,0.151-1.812,0.239c0.392,2.138,0.852,4.803,1.299,7.75l-1.51,0.342
		l-1.924,2.023c-1.344-1.422-4.08-0.523-5.8-0.091c-1.87,0.472-3.735,0.966-5.598,1.464c-0.559,0.154-1.111,0.321-1.653,0.51
		c-1.401-2.017-2.71-4.092-3.787-6.33l-0.202-0.408c-0.562,0.229-1.124,0.468-1.686,0.709l0.239,0.494
		c1.059,2.188,2.327,4.232,3.698,6.216c-2.009,0.896-3.87,2.133-5.474,3.907c0,0-2.612,2.736-2.923,3.074
		c-0.676,0.775-1.26,1.604-1.778,2.451c-2.743-5.521-4.92-11.533-6.555-18.117C225.127,274.201,236.209,270.893,250.341,270.893z"/>
	<path fill="#ED513A" d="M242.729,309.859l1.224-0.564l3.129-2.52l0.697-1.926c0.454,0.922,0.696,1.282,1.146,2.196l1.029-0.456
		c0.035,0.998,0.054,1.959,0.054,2.883c-2.257,0.521-4.702,0.787-7.221,0.836L242.729,309.859z M251.73,305.809
		c1.297-0.572,2.592-1.14,3.891-1.703l0.607-0.642c0.256,0.04,0.551,0.047,0.885,0.021c0.506-0.08,1.117-0.258,1.791-0.49
		c-0.438,1.591-0.697,2.974-0.822,4.169c-1.844,0.649-3.92,1.265-6.277,1.866C251.797,307.995,251.77,306.919,251.73,305.809z
		 M227.095,281.702c6.23-2.558,12.601-4.312,19.174-5.259c0.392,2.137,0.852,4.802,1.299,7.75l-1.51,0.341l-1.924,2.024
		c-1.344-1.424-4.08-0.524-5.8-0.092c-1.87,0.473-3.735,0.967-5.598,1.465c-0.559,0.153-1.111,0.32-1.653,0.51
		c-1.401-2.018-2.71-4.092-3.787-6.33L227.095,281.702z M225.541,291.439c-1.011-2.563-1.901-5.194-2.67-7.881
		c0.841-0.396,1.688-0.779,2.538-1.147l0.239,0.495c1.059,2.187,2.327,4.232,3.698,6.215
		C228.002,289.721,226.721,290.475,225.541,291.439z M239.903,315.115c-0.803-0.922-1.587-1.862-2.346-2.819l0.724-0.342
		c0.97,0.087,1.896,0.137,2.768,0.155C240.995,313.439,240.571,314.419,239.903,315.115z M247.549,319.491
		c-1.018,0.19-2.053,0.332-3.105,0.426c-1.153-1.125-2.274-2.283-3.355-3.474c1.056-0.943,1.734-2.338,1.789-4.322
		c2.485-0.045,4.879-0.299,7.099-0.773c-0.122,3.641-0.63,6.314-1.664,7.373c-0.039,0.034-0.064,0.064-0.073,0.092
		C247.979,319.094,247.75,319.316,247.549,319.491z M260.551,314.014c-3.016,2.127-6.408,3.764-10.053,4.793
		c1.25-2.584,1.266-7.105,1.286-7.891c2.309-0.58,4.37-1.173,6.229-1.8C258.082,311.24,258.934,313.268,260.551,314.014z
		 M271.809,300.307c-2.084,4.701-5.229,8.83-9.129,12.078c-0.41,0.059-2.98,0.242-2.945-3.885
		C265.164,306.448,268.699,303.984,271.809,300.307z M257.957,275.613c2.99,0,5.936,0.156,8.836,0.471
		c2.215,0.464,4.4,1.021,6.568,1.68c0.83,2.899,1.273,5.961,1.273,9.125c0,2.615-0.303,5.16-0.879,7.603
		c-3.717,5.858-7.146,9.294-13.836,11.981c0.191-1.188,0.539-2.603,1.09-4.297c1.947-0.816,3.984-1.793,5.213-2.302l2.928-3.073
		c0.732-2.836,1.467-5.68,2.197-8.516l-2.285,0.713l2.686-2.827c0.564-2.226,1.119-4.453,1.676-6.677
		c-1.35,0.199-2.699,0.4-4.049,0.611c0.229-1.109,0.393-2.213,0.477-3.312c-0.654-0.165-1.303-0.322-1.955-0.467
		c-0.139,1.232-0.379,2.602-0.75,4.131l-0.182,0.027c-1.266,0.211-2.562,0.627-3.684,1.578l0.357-1.098
		c-2.162,0.391-4.328,0.789-6.492,1.21l-2.148,2.261l0.066-0.185l0.705-1.81c-2.141,0.438-4.277,0.889-6.412,1.354
		c-0.443-2.881-0.89-5.483-1.278-7.595C251.32,275.811,254.609,275.613,257.957,275.613z"/>
	<path fill="#FBBA40" d="M222.674,294.292c-1.762-3.837-3.236-7.835-4.417-11.966c10.473-4.938,21.311-7.604,32.817-7.916
		c5.383,0.046,10.607,0.607,15.719,1.674c-2.9-0.314-5.846-0.471-8.836-0.471c-3.348,0-6.637,0.195-9.876,0.59
		c-0.606,0.072-1.209,0.152-1.812,0.24c-6.573,0.945-12.945,2.701-19.174,5.259c-0.562,0.229-1.125,0.468-1.686,0.709
		c-0.85,0.368-1.693,0.753-2.538,1.147c0.769,2.687,1.659,5.315,2.67,7.881c-0.576,0.478-1.137,1.006-1.668,1.59L222.674,294.292z
		 M250.957,327.74c-6.004-4.069-11.355-8.852-15.977-14.227l2.577-1.22c0.759,0.957,1.542,1.896,2.346,2.817
		c0.388,0.449,0.789,0.894,1.186,1.33c3.423,3.762,7.216,7.209,11.351,10.306C251.951,327.084,251.457,327.414,250.957,327.74z"/>
	<path fill="#002E61" d="M242.729,309.859l0.058,0.449c2.519-0.049,4.964-0.315,7.221-0.836c0-0.924-0.019-1.885-0.054-2.883
		l-1.029,0.456c-0.45-0.914-0.692-1.274-1.146-2.196l-0.697,1.926l-3.129,2.52L242.729,309.859z M251.73,305.809
		c0.039,1.11,0.064,2.188,0.074,3.221c2.355-0.604,4.434-1.217,6.275-1.866c0.125-1.195,0.385-2.578,0.82-4.169
		c-0.674,0.232-1.283,0.41-1.791,0.49c-0.334,0.026-0.629,0.021-0.885-0.021l-0.605,0.642
		C254.322,304.669,253.027,305.236,251.73,305.809z M250.341,270.893c-14.131,0-25.214,3.311-37.724,9.545
		c1.634,6.584,3.812,12.6,6.555,18.119c0.518-0.848,1.102-1.677,1.778-2.453c0.311-0.338,2.923-3.074,2.923-3.074
		c1.604-1.773,3.465-3.014,5.474-3.906c-1.372-1.98-2.639-4.028-3.698-6.215l-0.239-0.495c0.562-0.241,1.124-0.479,1.686-0.709
		l0.202,0.409c1.077,2.236,2.386,4.312,3.787,6.328c0.542-0.188,1.094-0.354,1.653-0.508c1.863-0.5,3.728-0.992,5.598-1.465
		c1.72-0.435,4.456-1.332,5.8,0.092l1.924-2.024l1.51-0.341c-0.448-2.948-0.907-5.613-1.299-7.752
		c0.603-0.086,1.206-0.166,1.812-0.238c0.389,2.107,0.835,4.714,1.278,7.595c2.133-0.466,4.271-0.915,6.411-1.354l-0.705,1.81
		L255,284.438l2.148-2.26c2.164-0.421,4.33-0.82,6.492-1.21l-0.357,1.097c1.121-0.951,2.418-1.365,3.684-1.578l0.182-0.026
		c0.371-1.528,0.611-2.897,0.75-4.131c0.652,0.146,1.303,0.302,1.955,0.467c-0.084,1.101-0.248,2.203-0.477,3.312
		c1.35-0.211,2.699-0.412,4.049-0.61c-0.557,2.226-1.111,4.45-1.676,6.677L269.064,289l2.285-0.713
		c-0.73,2.836-1.464,5.68-2.197,8.516l-2.928,3.073c-1.229,0.509-3.266,1.483-5.211,2.302c-0.553,1.694-0.896,3.109-1.092,4.297
		c6.688-2.688,10.119-6.123,13.836-11.981c-0.471,2.016-1.127,3.959-1.947,5.815c-3.109,3.678-6.646,6.144-12.074,8.193
		c-0.037,4.127,2.535,3.941,2.945,3.885c-0.689,0.569-1.398,1.116-2.13,1.629c-1.616-0.746-2.47-2.771-2.538-4.896
		c-1.857,0.627-3.921,1.22-6.229,1.8c-0.021,0.783-0.035,5.309-1.286,7.893c-0.965,0.27-1.951,0.502-2.948,0.685
		c0.201-0.175,0.429-0.397,0.689-0.679c0.009-0.027,0.034-0.06,0.073-0.092c1.033-1.061,1.542-3.733,1.664-7.375
		c-2.22,0.477-4.614,0.729-7.099,0.773c-0.054,1.984-0.733,3.379-1.789,4.322c-0.397-0.438-0.798-0.881-1.186-1.328
		c0.668-0.696,1.092-1.676,1.146-3.006c-0.871-0.021-1.798-0.068-2.768-0.155c-2.399,1.132-5.129,2.427-7.55,3.583
		c5.446,6.016,11.957,11.301,19.619,16.041c20.389-12.586,31.586-28.08,37.706-51.146
		C275.551,274.201,264.473,270.895,250.341,270.893z M209.61,279.062c13.526-6.967,25.401-10.756,40.731-10.756
		c15.333,0,27.21,3.793,40.737,10.756c-6.285,25.322-18.287,42.09-40.737,55.545c-8.465-5.078-15.87-11.019-22.024-17.918
		c-1.704,0.816-3.07,1.477-3.764,1.82c-2.119,1.053-4.234,2.112-6.346,3.188c-2.381,1.208-5.016,3.054-7.77,2.34
		c-2.99-1.304-1.021-4.945-0.1-7.024c2.333-5.244,4.762-10.449,7.301-15.605c-3.055-5.721-5.443-11.936-7.117-18.676L209.61,279.062
		z"/>
	<path fill="#EFEFEF" d="M267.084,281.57c-1.299,0.213-2.469,0.629-3.438,1.604c-0.795,0.854-1.215,1.877-1.562,2.96
		c-1.039,3.244-2.078,6.49-3.117,9.74c-0.406,1.284-1.072,3.621,0.988,3.446c0.699-0.113,1.365-0.407,2.021-0.688
		c2.078-0.887,4.168-1.759,6.26-2.622c0.531-2.042,1.059-4.077,1.582-6.12c-1.102,0.344-2.197,0.688-3.287,1.041
		c-0.264,0.922-0.518,1.846-0.777,2.766c-0.762,0.275-1.527,0.557-2.285,0.837c0.967-3.294,1.928-6.585,2.887-9.882
		c0.678-0.146,1.354-0.287,2.029-0.433c-0.162,0.576-0.322,1.155-0.479,1.734c0.982-0.236,1.973-0.472,2.955-0.696
		c0.379-1.482,0.75-2.969,1.119-4.454C270.348,281.047,268.719,281.303,267.084,281.57z M257.734,283.168
		c-2.334,3.047-4.631,6.114-6.902,9.198c1.059-2.822,2.129-5.644,3.221-8.458c-2.418,0.494-4.827,1.021-7.228,1.564
		c-0.626,1.451-1.244,2.907-1.86,4.366c0.523-0.144,1.041-0.287,1.559-0.429c-1.892,4.579-3.737,9.176-5.545,13.787
		c-0.743,1.869-1.479,3.74-2.215,5.615c2.411-1.142,4.83-2.271,7.25-3.387c1.095-3.025,2.206-6.048,3.325-9.072
		c1.025,2.062,2.048,4.127,3.06,6.195c1.56-0.691,3.123-1.382,4.688-2.064c-0.953-2.176-1.916-4.348-2.894-6.514
		c1.733-2.629,3.479-5.252,5.244-7.863c0.5-0.115,0.996-0.232,1.494-0.351c0.373-1.133,0.741-2.269,1.114-3.401
		C260.609,282.621,259.176,282.891,257.734,283.168z M228.953,308.406c-1.683,0.754-3.358,1.512-5.037,2.277
		c2.431-5.635,4.957-11.23,7.585-16.783c1.475-0.467,2.958-0.928,4.435-1.377C233.525,297.788,231.2,303.083,228.953,308.406z
		 M232.975,288.99c-3.186,0.863-6.026,2.229-8.298,4.742c-1.306,1.492-2.234,3.209-3.102,4.967
		c-2.543,5.166-4.981,10.383-7.317,15.646c-0.609,1.367-2.481,4.709-0.49,5.573c2.202,0.572,4.961-1.28,6.903-2.271
		c2.113-1.078,4.237-2.141,6.358-3.193c3.617-1.791,6.858-3.967,9.057-7.464c0.878-1.484,1.531-3.063,2.169-4.648
		c1.387-3.399,2.79-6.796,4.227-10.177c0.541-1.27,1.473-2.869,1.175-4.254c-0.607-1.861-3.743-0.727-5.11-0.382
		C236.685,288.003,234.826,288.488,232.975,288.99z"/>
	<path fill="#007EC0" d="M275.861,278.555c0.992,0.327,1.92,0.655,2.848,1.008c2.314,0.86,4.365,1.738,6.064,2.551
		c-5.236,17.979-15.965,33.051-31.098,43.781l-1.236,0.856c-4.435-3.325-7.045-5.923-7.045-5.923l2.088-0.348
		c6.325-1.059,12.426-3.924,17.469-8.627c8.598-8.021,12.082-19.47,10.312-30.262c-0.041-0.244-0.088-0.488-0.135-0.732l-0.02-0.106
		l-0.021-0.108l-0.026-0.121l-0.022-0.116l-0.022-0.12l-0.021-0.117l-0.027-0.128l-0.023-0.125l-0.027-0.116l-0.021-0.099
		l-0.03-0.14l-0.032-0.129l-0.021-0.101l-0.021-0.095l-0.026-0.094c-0.095-0.391-0.181-0.721-0.271-1.033
		C274.955,278.258,275.412,278.406,275.861,278.555z"/>
	<path fill="#ED513A" d="M289.938,175.318c-9.949,9.49-30.101,20.513-39.912,25.345c-9.812-4.832-29.964-15.853-39.913-25.345
		h-8.058c4.325,5.541,12.526,12,24.521,19.285c11.294,6.858,22.042,12.049,22.149,12.101l1.301,0.626l1.301-0.626
		c0.106-0.052,10.854-5.242,22.149-12.101c11.993-7.284,20.194-13.744,24.521-19.285H289.938z"/>
	<path fill="#36393D" d="M281.169,175.318c-9.905,7.737-23.677,15.422-31.143,19.197c-7.466-3.774-21.24-11.458-31.146-19.197
		h-9.209c12.671,12.043,35.785,23.643,39.029,25.241l1.326,0.653l1.326-0.653c3.244-1.598,26.357-13.198,39.028-25.241H281.169z"/>
</g>
</svg>
