<?xml version="1.0" encoding="utf-8"?>
<!-- Generator: Adobe Illustrator 16.0.0, SVG Export Plug-In . SVG Version: 6.00 Build 0)  -->
<!DOCTYPE svg PUBLIC "-//W3C//DTD SVG 1.1//EN" "http://www.w3.org/Graphics/SVG/1.1/DTD/svg11.dtd">
<svg version="1.1" id="content" xmlns="http://www.w3.org/2000/svg" xmlns:xlink="http://www.w3.org/1999/xlink" x="0px" y="0px"
	 width="500px" height="500px" viewBox="0 0 500 500" enable-background="new 0 0 500 500" xml:space="preserve">
<path fill="#00295C" d="M382.492,224.734c-39.025-0.343-51.5-26.755-55.028-49.245h-9.04c0,0.221-0.002,0.441,0.032,0.666
	c5.52,36.879,28.253,57.295,64.036,57.581V224.734z"/>
<path fill="#00295C" d="M172.536,175.489c-3.552,22.637-16.154,49.261-55.786,49.261c-0.046,0-0.088,0.012-0.133,0.014v8.973
	c0.045,0.001,0.087,0.014,0.133,0.014c36.224,0,59.235-20.454,64.794-57.595c0.034-0.225,0.032-0.445,0.032-0.666L172.536,175.489
	L172.536,175.489z"/>
<rect id="position" x="0.5" y="0.5" display="none" fill="none" stroke="#000000" width="499" height="499"/>
<g>
	<path fill="#FAB941" d="M322.959,175.489h-21.165c-2.015,10.476-9.41,28.774-36.287,36.001c-6.676,1.841-9.479,9.417-9.479,9.417
		h-11.549c0,0-3.336-7.599-9.931-9.417c-26.877-7.227-34.273-25.525-36.287-36.001h-21.165
		c-3.507,23.43-16.508,53.761-60.344,53.761c-0.046,0-0.088,0-0.133,0v240.83h133.41h132.466V229.25c-0.045,0,0.854,0,0.811,0
		C339.467,229.25,326.466,198.919,322.959,175.489z"/>
	<path opacity="0.2" fill="#212121" enable-background="new    " d="M313.392,209.412c-1.54,0-2.792-1.252-2.792-2.792v-14.099
		c0-1.54,1.252-2.792,2.792-2.792h4.184c1.539,0,2.792,1.252,2.792,2.793v14.098c0,1.54-1.253,2.792-2.792,2.792H313.392z"/>
	<path fill="#FFFFFF" d="M313.519,207.513c-1.443,0-2.619-1.176-2.619-2.623v-13.239c0-1.446,1.176-2.623,2.619-2.623h3.93
		c1.443,0,2.621,1.176,2.621,2.623v13.239c0,1.446-1.178,2.623-2.621,2.623H313.519z"/>
	<path fill="#C00033" d="M315.482,206.213h1.964c0.729,0,1.319-0.592,1.319-1.323v-13.239c0-0.73-0.592-1.323-1.319-1.323h-1.964"/>
	<path fill="#006CB3" d="M317.663,206.213c0,0-0.036-0.939-0.431-3.272l-1.75-1.812v-10.8h-1.966c-0.729,0-1.319,0.592-1.319,1.323
		v13.239c0,0.731,0.592,1.323,1.319,1.323h1.966L317.663,206.213L317.663,206.213z"/>
	<path opacity="0.2" fill="#212121" enable-background="new    " d="M318.01,198.18c-0.05-0.058,0.049-0.09-0.289-0.167
		c-0.062-0.035-0.11-0.529-0.11-0.529c-0.052-0.317-0.163-0.536-0.332-0.872c-0.085-0.173-0.125-0.71-0.218-0.984
		c0.053-1.255-0.351-1.62-0.676-1.824c-0.123-0.079-0.185-0.137-0.307-0.208l-0.004-0.058c-0.097-0.09-0.286-0.187-0.443-0.257
		c-0.049-0.049-0.023-0.156,0.008-0.196c0.106-0.016,0.248-0.254,0.365-0.5c0.092,0.005,0.122-0.084,0.151-0.135
		c0.099-0.157,0.204-0.294,0.065-0.384c0.311-0.552,0.111-0.924-0.057-0.938c-0.067-0.139-0.186-0.225-0.392-0.298l-0.425-0.001
		c-0.438,0.168-0.501,0.36-0.518,0.969c-0.074,0.008-0.231-0.062-0.178,0.309c0,0,0.027,0.247,0.128,0.204
		c-0.097,0.652,0.017,0.703-0.661,0.732l-0.032,0.048c-0.675,0.065-0.888-0.02-1.456,1.138c0,0-0.146,0.358-0.188,0.507
		c-0.061,0.122-0.151,0.309-0.247,0.51v1.598c0.084,0.004,0.186,0.005,0.333,0.001v0.174c0,0-0.205,0.175-0.246,0.282
		c-0.021,0.048-0.057,0.188-0.087,0.344v0.883c0.142,0.506,0.504,0.968,0.634,1.498l0.35,0.049c0.201,0.45,1.062,1.672,1.238,1.833
		c0.041,0.113,0.26,0.253,0.388,0.393c0.105,0.1,0.729,0.782,1.459,1.201c-0.004,0,0.118,0.244,0.18,0.44
		c-0.243,0.195,0.225,0.552,0.367,1.142c0.011,0.077-0.136,0.159,0.08,0.352c-0.005,0.309-0.041,0.563-0.064,0.779h0.62h0.116
		c-0.046-0.228-0.139-0.452-0.188-0.624c-0.008-0.022,0.01-0.052,0.021-0.071c0.03-0.056-0.031-0.182-0.031-0.182
		c-0.069-0.063-0.09-0.398-0.129-0.548c-0.062-0.254,0.109-0.689,0.109-0.838c0-0.146-0.109-0.349-0.314-0.609
		c-0.051-0.056-0.195-1.323-0.327-1.644c-0.187-0.442-0.242-0.373-0.455-0.898c-0.171-0.373-0.039-0.92-0.419-2.192
		c0.004,0.005,0.086-0.08,0.086-0.08s-0.302-1.102-0.4-1.404c-0.1-0.301-0.271-0.323-0.271-0.323s0.001-0.123,0.008-0.155
		c0.015-0.049,0.368-0.969,0.397-0.998c0-0.022,0.51-0.366,0.52-0.317c0.042,0.226,0.24,1.37,0.323,1.553
		c0.087,0.185,0.38,0.746,0.519,1.094c-0.528,0.127-0.92,0.603-0.92,1.17c0,0.663,0.537,1.202,1.204,1.202
		c0.507,0,0.943-0.314,1.118-0.758l0.001-0.884c-0.038-0.097-0.089-0.192-0.155-0.282
		C318.257,198.244,318.062,198.248,318.01,198.18z"/>
	<path fill="#FFFFFF" d="M317.517,206.296c-0.236-0.14-0.225-0.344-0.167-0.816c0.024-0.201,0.055-0.436,0.06-0.71
		c-0.144-0.164-0.124-0.205-0.104-0.257l0.01-0.02l0.014-0.086c-0.065-0.271-0.19-0.488-0.29-0.662
		c-0.141-0.246-0.188-0.345-0.108-0.408c-0.019-0.233-0.098-0.407-0.135-0.489c-0.677-0.44-1.222-0.994-1.427-1.202
		c-0.117-0.122-0.184-0.178-0.244-0.231c-0.082-0.071-0.175-0.151-0.193-0.201c-0.18-0.177-1.042-1.395-1.238-1.839l-0.412-0.096
		c-0.003-0.226-0.145-0.491-0.276-0.748c-0.18-0.342-0.35-0.666-0.354-1.021c-0.008-0.228,0.105-0.748,0.147-0.847
		c0.023-0.062,0.146-0.185,0.226-0.251l0.026-0.235v-0.083l-0.286,0.006c-0.313,0-0.317-0.02-0.339-0.118
		c-0.01-0.048-0.021-0.114-0.058-0.191c-0.06-0.128-0.044-0.167-0.02-0.246c0.112-0.441,0.361-0.945,0.525-1.278l0.081-0.165
		c0.047-0.158,0.19-0.511,0.19-0.511c0.498-1.015,0.696-1.031,1.229-1.075l0.2-0.018l0.054-0.079c0.032,0,0.062,0,0.091,0
		c0.461,0,0.502-0.079,0.552-0.516l0.054-0.391l-0.131,0.057c0.012-0.011-0.012-0.081-0.02-0.141
		c-0.022-0.172,0.004-0.21,0.007-0.214l0.17-0.013l0.002-0.07c0.019-0.617,0.089-0.751,0.468-0.896l0.395,0.006
		c0.163,0.062,0.264,0.137,0.319,0.253c0.089,0.046,0.129,0.071,0.162,0.134c0.07,0.135,0.083,0.398-0.104,0.73l-0.037,0.065
		l0.062,0.041c0.047,0.031,0.044,0.063-0.065,0.234l-0.102,0.139c-0.288,0.481-0.384,0.5-0.386,0.5
		c-0.105,0.096-0.137,0.248-0.054,0.331c0.229,0.107,0.376,0.193,0.445,0.259c0.086,0.107,0.134,0.143,0.185,0.179l0.14,0.095
		c0.343,0.215,0.686,0.592,0.639,1.753c0.046,0.155,0.076,0.338,0.106,0.515c0.034,0.218,0.065,0.406,0.115,0.507
		c0.176,0.344,0.278,0.553,0.325,0.849c0.053,0.532,0.12,0.569,0.152,0.587c0.198,0.048,0.229,0.072,0.231,0.076
		c0.062,0.108,0.105,0.128,0.149,0.147c0.08,0.036,0.112,0.056,0.112,0.119c0.073,0.127,0.124,0.216,0.16,0.311l-0.008,0.855
		c-0.16,0.394-0.58,0.678-1.038,0.678c-0.618,0-1.124-0.503-1.124-1.122c0-0.522,0.354-0.971,0.858-1.093l0.09-0.021l-0.034-0.086
		c-0.101-0.253-0.281-0.619-0.407-0.873l-0.111-0.226c-0.067-0.148-0.23-1.054-0.292-1.395l-0.037-0.205l-0.074-0.005
		c-0.022,0-0.067,0-0.325,0.167C316,194.913,316,194.934,316,194.975l0,0c-0.031,0-0.392,0.966-0.395,0.975
		c-0.011,0.042-0.013,0.177-0.013,0.177l-0.001,0.072l0.071,0.008c0.003,0,0.126,0.026,0.206,0.268c0.099,0.301,0.398,1.4,0.398,1.4
		h-0.106l0.021,0.082c0.219,0.729,0.267,1.217,0.301,1.573c0.024,0.267,0.045,0.46,0.123,0.629c0.111,0.282,0.185,0.396,0.254,0.507
		c0.058,0.094,0.113,0.187,0.198,0.389c0.073,0.18,0.157,0.705,0.221,1.088c0.075,0.472,0.091,0.542,0.121,0.578
		c0.194,0.249,0.297,0.437,0.297,0.557c0,0.042-0.021,0.13-0.044,0.223c-0.049,0.201-0.11,0.45-0.065,0.634
		c0.016,0.05,0.024,0.12,0.035,0.193c0.032,0.208,0.056,0.338,0.118,0.395c0.003,0.018,0.019,0.072,0.015,0.089l-0.017,0.031
		l-0.007,0.1c0.017,0.058,0.04,0.127,0.063,0.201c0.133,0.385,0.297,0.862-0.13,1.132L317.517,206.296z"/>
	<path fill="#EFEFEF" d="M294.738,175.489c-2.924,9.729-10.938,23.216-32.801,29.095c-9.522,2.626-11.521,9.041-11.938,11.644
		c-0.42-2.604-2.42-9.019-11.959-11.65c-21.852-5.876-29.858-19.36-32.78-29.089h-7.204c0.644,2.52,1.561,5.299,2.893,8.195
		c4.35,9.458,14,21.934,35.251,27.648c6.467,1.784,6.887,9.215,6.911,9.576h13.776c0-0.042,0.225-7.731,6.889-9.57
		c26.175-7.038,35.074-24.264,38.09-35.849L294.738,175.489L294.738,175.489z"/>
	<path fill="#00295C" d="M198.364,187.217c4.35,9.458,14,21.934,35.251,27.648c6.467,1.784,6.887,5.715,6.911,6.075l7-0.063
		c-0.003-0.386-0.222-9.498-12.072-12.766c-24.656-6.63-31.688-22.943-33.671-32.622h-7.081
		C195.291,178.801,196.371,182.883,198.364,187.217z"/>
	<path fill="#00295C" d="M298.27,175.489c-1.984,9.679-9.021,25.993-33.691,32.627c-11.828,3.262-12.046,12.374-12.051,12.76
		l7,0.063c0-0.042,0.226-4.231,6.891-6.069c28.998-7.798,36.794-28.099,38.87-39.381H298.27z"/>
	<path opacity="0.2" fill="#212121" enable-background="new    " d="M199.583,336.15l19.058-86.622l40.927-0.004
		c10.32,0.018,19.541,4.295,25.964,12.047c8.905,10.748,11.009,29.607-0.89,42.564c-6.44,7.555-15.998,11.562-27.61,11.562
		l-16.249-0.006l-4.916,20.479L199.583,336.15z"/>
	<path fill="#EFEFEF" d="M199.583,333.628l19.058-86.62l40.927-0.004c10.32,0.018,19.541,4.296,25.964,12.047
		c8.905,10.749,11.009,29.609-0.89,42.566c-6.44,7.555-15.998,11.562-27.61,11.562l-16.249-0.007l-4.916,20.479L199.583,333.628z"/>
	<path fill="#00295C" d="M238.242,309.945l-4.915,20.476l-29.731,0.013l17.641-80.197l38.326,0.025
		c9.543,0.018,17.718,3.886,23.483,10.849c8.5,10.257,9.333,27.304-0.837,38.385c-6.236,7.312-15.379,10.525-25.516,10.452
		L238.242,309.945z"/>
	<path fill="#FAB941" d="M217.287,268.051l16.799,0.012c1.93,0,3.985,1.623,3.094,4.074c-0.55,1.516-0.972,3.272-1.168,4.922
		c-0.153,1.289,1.286,2.103,2.11,2.103l34.235,0.022c0.642,0,0.981-0.184,0.981-0.488c0-0.303-0.028-1.441-0.151-2.236
		c-0.117-0.76-0.244-0.891-0.857-0.891c-4.268-0.004-6.007-1.904-10.479-4.789c-4.474-2.885-11.031-4.545-16.668-4.547l-27.486-0.02
		L217.287,268.051z"/>
	<path fill="#FAB941" d="M238.027,290.223c-0.593-1.27-1.141-2.779-1.476-4.166c-0.424-1.779-1.926-3.223-4.5-3.225l-18.016-0.012
		l0.446-2.021l58.396,0.039c0.581,0,0.458,0.245,0.428,0.889c-0.033,0.646-0.183,1.842-0.277,2.545
		c-0.092,0.703-0.672,0.537-1.229,0.552c-1.314,0.028-3.757,0.341-5.181,1.405c-2.421,1.819-7.58,5.014-10.483,5.941
		c-3.109,0.989-14.739,4.549-18.143-2.008"/>
	<path fill="#FAB941" d="M210.805,297.529l30.493,0.021c1.347,0,2.503,0.319,3.404,1.068c2.576,2.123,5.917,3.666,9.462,4.691
		c1.592,0.459,4.327-0.135,6.775-1.521c6.104-3.45,10.031-10.015,11.317-14.243c0.339-1.104-0.307-1.014-1.161-0.953
		c-2.572,0.184-5.275,2.512-8.83,4.777c-3.561,2.264-10.793,4.406-17.66,4.398l-33.41-0.021L210.805,297.529z"/>
	<path fill="#FAB941" d="M255.536,256.695c0.43-0.076,1.974-0.172,2.831,0.166c5.793,2.281,11.271,8.312,13.564,14.721
		c0.44,1.232,0.551,2.023-0.002,2.086c-2.654,0.292-3.893-1.018-7.018-3.133c-3.123-2.117-6.003-3.561-9.959-4.818
		c-3.896-1.242-10.999-1.418-11.918-1.449c-0.917-0.031-0.801-0.416-0.4-0.812C246.039,260.059,250.611,257.592,255.536,256.695z"/>
	<path fill="#FAB941" d="M283.326,278.668c0.017,0.246-0.243,0.521-0.551,0.521c-0.03,0-6.68-0.004-6.68-0.004
		c-0.857,0-0.873-0.398-0.9-0.891c-0.034-0.488-0.172-1.472-0.2-2.055c-0.029-0.564-0.235-1.215,0.521-1.529
		c1.858-0.786,3.617-2.604,4.416-4.167c0.271-0.522,0.674-1.396,1.131-0.653C282.645,272.418,283.139,275.536,283.326,278.668z"/>
	<path fill="#FAB941" d="M280.938,290.67c-0.114,0.227-0.543,0.395-0.682,0.025c-0.977-2.605-3.29-4.398-4.884-5.289
		c-0.483-0.27-0.522-0.582-0.462-1.057c0.062-0.478,0.264-1.994,0.295-2.637c0.025-0.507,0.229-0.874,0.611-0.874l6.959,0.007
		c0.246,0,0.556,0.221,0.556,0.403C283.331,284.57,282.323,287.846,280.938,290.67z"/>
	<path fill="#FAB941" d="M262.837,303.73c-0.489,0.069-1.562-0.099,0.127-1.078c5.06-2.938,9.563-9.838,10.765-13.799
		c0.461-1.514,0.511-1.594,1.088-1.424c0.773,0.219,1.992,1.271,2.929,2.561c0.937,1.285,1.34,3.793,0.8,4.514
		C274.908,299.379,269.131,302.809,262.837,303.73z"/>
	<path fill="#FAB941" d="M275.701,272.506c-1.176,0.633-1.403,0.516-1.654-0.371c-2.197-7.707-8.679-13.414-11.326-15.102
		c-0.508-0.319-0.375-0.532-0.011-0.483c6.345,0.845,12.558,4.302,15.687,9.04C280.184,268.303,276.84,271.893,275.701,272.506z"/>
	<path fill="#00295C" d="M249.015,318.743c-0.077,0.317-1.26,5.304-1.321,5.562c-0.243,0-2.758,0-3.141,0
		c0.096-0.398,1.265-5.309,1.323-5.562C246.12,318.743,248.634,318.743,249.015,318.743z M243.846,316.49l-3.8,16.005h2.563
		c0,0,1.347-5.675,1.412-5.938c0.263,0,4.101,0,4.101,0c0.99,0,1.746-0.596,1.974-1.558l1.638-6.888
		c0.035-0.149,0.051-0.293,0.051-0.432c0-0.281-0.075-0.522-0.229-0.72c-0.244-0.312-0.671-0.474-1.229-0.474h-6.483L243.846,316.49
		L243.846,316.49z"/>
	<path fill="#00295C" d="M257.475,326.816c-0.082,0.35-0.785,3.31-0.843,3.547c-0.241,0-2.456,0-2.831,0
		c0.083-0.348,0.787-3.309,0.846-3.547C254.887,326.816,257.1,326.816,257.475,326.816z M255.436,319.611
		c-0.982,0-1.623,0.506-1.849,1.461l-0.672,2.832h2.508c0,0,0.44-1.875,0.498-2.12c0.238,0,2.375,0,2.749,0
		c-0.087,0.366-0.621,2.606-0.676,2.842c-0.266,0-3.648,0-3.648,0c-1.104,0-1.832,0.615-2.106,1.781l-1.104,4.646
		c-0.027,0.122-0.041,0.238-0.041,0.354c0,0.271,0.078,0.519,0.237,0.717c0.242,0.308,0.644,0.476,1.127,0.476
		c0.015,0,0.065-0.004,0.065-0.004c0.904-0.068,2.879-0.218,3.649-0.296c-0.012,0.041-0.049,0.196-0.049,0.196h2.504l2.692-11.34
		c0.119-0.492,0.072-0.879-0.145-1.146c-0.203-0.263-0.557-0.396-1.035-0.396h-4.705V319.611L255.436,319.611z"/>
	<path fill="#00295C" d="M265.936,319.611c-0.961,0-1.584,0.506-1.812,1.461l-2.347,9.882c-0.119,0.498-0.073,0.886,0.138,1.151
		c0.205,0.258,0.558,0.39,1.045,0.39h4.625c0.972,0,1.578-0.49,1.808-1.458l0.914-3.848h-2.465c0,0-0.685,2.881-0.742,3.135
		c-0.24,0-2.3,0-2.666,0c0.094-0.399,1.967-8.28,2.026-8.54c0.24,0,2.297,0,2.666,0c-0.088,0.376-0.501,2.093-0.501,2.093h2.467
		l0.649-2.723c0.12-0.51,0.077-0.889-0.132-1.155c-0.202-0.255-0.555-0.388-1.051-0.388H265.936z"/>
	<path fill="#00295C" d="M279.273,321.784c-0.078,0.329-0.623,2.631-0.678,2.858c-0.24,0-2.277,0-2.648,0
		c0.078-0.326,0.623-2.627,0.681-2.858C276.864,321.784,278.904,321.784,279.273,321.784z M276.102,319.611
		c-0.957,0-1.582,0.506-1.81,1.461l-2.347,9.882c-0.118,0.498-0.073,0.886,0.139,1.151c0.204,0.258,0.557,0.39,1.042,0.39
		c0.002,0,4.644,0,4.644,0c0.475,0.01,0.867-0.109,1.174-0.353c0.312-0.246,0.521-0.609,0.64-1.105l0.856-3.604h-2.506
		c0,0-0.627,2.643-0.688,2.892c-0.24,0-2.277,0-2.646,0c0.09-0.38,0.795-3.347,0.854-3.589c0.265,0,4.563,0,4.563,0l0.726-0.586
		l1.188-4.994c0.043-0.18,0.062-0.344,0.062-0.494c0-0.268-0.063-0.487-0.199-0.656c-0.207-0.26-0.56-0.393-1.045-0.393h-4.647
		V319.611L276.102,319.611z"/>
	<path fill="#00295C" d="M290.736,319.502c-1.008,0.116-2.631,0.307-3.326,0.418c0.008-0.031,0.072-0.307,0.072-0.307l-2.506-0.002
		l-3.061,12.884h2.504c0,0,2.438-10.259,2.501-10.528c0.235,0,2.12,0,2.487,0c-0.092,0.378-0.408,1.91-0.408,1.91h2.523l0.623-2.822
		c0.117-0.486,0.067-0.867-0.145-1.138c-0.223-0.282-0.617-0.425-1.175-0.425C290.811,319.494,290.736,319.502,290.736,319.502z"/>
	<path fill="#00295C" d="M295.296,319.611c-0.503,0-1.388,0.189-1.688,1.461l-0.729,3.072c-0.025,0.109-0.062,0.303-0.062,0.502
		c0,0.217,0.052,0.444,0.19,0.612c0.009,0.009,0.011,0.023,0.019,0.033c0.004,0.003,0.004,0.008,0.011,0.011l-0.007-0.008
		c0.027,0.025,0.063,0.057,0.134,0.1c2.862,1.955,3.621,2.502,3.817,2.658c-0.045,0.19-0.52,2.186-0.539,2.271
		c-0.232,0-2.103,0-2.465,0c0.09-0.377,0.674-2.831,0.674-2.831h-2.506l-0.819,3.461c-0.123,0.508-0.074,0.903,0.14,1.175
		c0.192,0.243,0.503,0.366,0.92,0.366h4.705c0.879,0,1.46-0.505,1.688-1.458l0.803-3.377c0.021-0.088,0.062-0.258,0.062-0.465
		c0-0.271-0.067-0.603-0.345-0.894l-0.014-0.017l-0.021-0.014c-1.328-0.861-3.423-2.244-3.785-2.525
		c0.045-0.189,0.426-1.801,0.467-1.965c0.234,0,2.16,0,2.527,0c-0.091,0.373-0.492,2.128-0.492,2.128h2.504l0.64-2.757
		c0.119-0.486,0.063-0.889-0.146-1.16c-0.139-0.174-0.416-0.383-0.949-0.383h-4.733V319.611z"/>
</g>
</svg>
