<?xml version="1.0" encoding="utf-8"?>
<!-- Generator: Adobe Illustrator 16.0.0, SVG Export Plug-In . SVG Version: 6.00 Build 0)  -->
<!DOCTYPE svg PUBLIC "-//W3C//DTD SVG 1.1//EN" "http://www.w3.org/Graphics/SVG/1.1/DTD/svg11.dtd">
<svg version="1.1" id="content" xmlns="http://www.w3.org/2000/svg" xmlns:xlink="http://www.w3.org/1999/xlink" x="0px" y="0px"
	 width="500px" height="500px" viewBox="0 0 500 500" enable-background="new 0 0 500 500" xml:space="preserve">
<rect id="position" x="0.5" y="0.5" display="none" fill="none" stroke="#000000" width="499" height="499"/>
<path fill="#103152" d="M382.475,229.248c-43.13-0.404-56.031-30.487-59.516-53.759h-30.542
	c-5.651,14.103-42.391,35.418-42.391,35.418s-36.738-21.315-42.391-35.418h-30.542c-3.507,23.43-16.508,53.761-60.344,53.761
	c-0.046,0-0.088,0-0.133,0v240.83h133.41h132.448L382.475,229.248L382.475,229.248z"/>
<path fill="#0D2842" d="M330.555,280.197l0.488,0.195l-0.017-9.086c-0.003-1.427-0.252-2.848-0.743-4.229
	c-0.494-1.391-1.206-2.704-2.119-3.907c-0.823-1.079-1.782-2.053-2.855-2.894c-0.949-0.744-1.98-1.375-3.065-1.877
	c-0.705-0.459-2.092-1.123-5.822-2.596c-3.162-1.248-8.314-3.146-14.909-5.101c-6.055-1.793-13.824-3.767-22.461-5.204
	c-0.001-0.001-0.001-0.003-0.003-0.004c-0.056-0.074-5.858-7.307-14.582-3.551c-0.296,0.127-0.586,0.269-0.876,0.412
	c-1.303,0.642-2.431,1.195-4.645,0.606c-1.309-0.347-2.967-1.146-2.288-4.064c0.149-0.653,0.659-1.522,1.456-1.989
	c0.552-0.324,1.152-0.395,1.787-0.211c1.172,0.34,1.66,0.971,1.492,1.93c-0.064,0.37-0.343,0.726-0.672,0.865
	c-0.351,0.149-0.752,0.068-1.199-0.236c-0.418-0.284-0.99-0.177-1.276,0.243c-0.284,0.42-0.177,0.992,0.243,1.277
	c0.969,0.657,2.017,0.803,2.947,0.41c0.901-0.381,1.598-1.261,1.769-2.242c0.125-0.716,0.295-3.12-2.794-4.015
	c-1.118-0.323-2.237-0.189-3.229,0.392c-1.113,0.653-2.022,1.894-2.316,3.16c-0.008,0.035-0.012,0.069-0.021,0.105
	c-0.385-0.527-0.736-0.913-0.933-1.109l-3.021-3.059l-3.012,3.071c-0.196,0.198-0.543,0.586-0.924,1.111
	c-0.008-0.035-0.014-0.069-0.022-0.105c-0.299-1.265-1.213-2.503-2.33-3.151c-0.992-0.577-2.109-0.709-3.228-0.381
	c-3.085,0.906-2.907,3.31-2.779,4.024c0.175,0.979,0.872,1.857,1.775,2.235c0.934,0.391,1.98,0.242,2.947-0.42
	c0.418-0.286,0.524-0.858,0.238-1.278c-0.286-0.418-0.858-0.525-1.278-0.239c-0.446,0.305-0.849,0.387-1.198,0.24
	c-0.331-0.138-0.608-0.493-0.674-0.862c-0.172-0.959,0.314-1.593,1.486-1.937c0.633-0.186,1.233-0.117,1.787,0.205
	c0.798,0.463,1.31,1.331,1.463,1.984c0.688,2.916-0.968,3.721-2.273,4.072c-2.215,0.596-3.341,0.047-4.646-0.59
	c-0.292-0.142-0.582-0.283-0.878-0.409c-8.733-3.723-14.513,3.529-14.57,3.603c-0.014,0.017-0.021,0.035-0.034,0.052
	c-8.299,1.426-15.772,3.33-21.634,5.062c-11.246,3.322-20.29,7.457-20.67,7.632l-1.19,0.548l0.001,0.202
	c-0.519,0.086-1.05,0.253-1.582,0.502c-1.926,0.899-3.837,1.834-5.687,2.78l-1.404,0.722l0.009,4.949
	c0.002,1.19,0.24,2.169,0.714,2.972c0.096,0.166,0.2,0.323,0.311,0.473l0.01,5.466c-0.624,1.204-0.951,2.458-0.949,3.659
	c0.002,1.197,0.338,2.263,0.962,3.093l0.02,11.401l0.121,0.332c0.093,0.256,1.915,5.103,7.315,7.062l-0.154,0.073
	c0,0,2.859,4.619,7.292,5.57l-0.846,0.352c0,0,3.131,5.043,9.187,6.1l-0.891,0.438c0,0,3.911,4.198,9.983,4.966
	c6.466,20.029,25.3,34.545,47.45,34.506c22.147-0.04,40.929-14.624,47.322-34.676c6.069-0.789,9.966-5.002,9.966-5.002l-0.895-0.434
	c6.054-1.08,9.165-6.134,9.165-6.134l-0.847-0.349c4.429-0.967,7.271-5.598,7.271-5.598l0.283-0.377
	c5.047-2.164,7.99-7.104,7.982-11.76l-0.012-5.822C331.346,282.943,331.012,281.505,330.555,280.197z"/>
<path opacity="0.2" fill="#212121" enable-background="new    " d="M304.061,206.412c-1.539,0-2.791-1.252-2.791-2.792v-14.099
	c0-1.54,1.252-2.792,2.791-2.792h4.183c1.539,0,2.792,1.252,2.792,2.793v14.098c0,1.54-1.253,2.792-2.792,2.792H304.061z"/>
<path fill="#FFFFFF" d="M304.188,204.513c-1.444,0-2.621-1.176-2.621-2.623v-13.239c0-1.446,1.177-2.623,2.621-2.623h3.929
	c1.444,0,2.621,1.176,2.621,2.623v13.239c0,1.446-1.177,2.623-2.621,2.623H304.188z"/>
<path fill="#C00033" d="M306.151,203.213h1.964c0.729,0,1.32-0.592,1.32-1.323v-13.239c0-0.73-0.592-1.323-1.32-1.323h-1.964"/>
<path fill="#006CB3" d="M308.332,203.213c0,0-0.036-0.939-0.431-3.272l-1.75-1.812v-10.8h-1.964c-0.729,0-1.321,0.592-1.321,1.323
	v13.239c0,0.731,0.592,1.323,1.321,1.323h1.964L308.332,203.213L308.332,203.213z"/>
<path opacity="0.2" fill="#212121" enable-background="new    " d="M308.679,195.18c-0.05-0.058,0.049-0.09-0.289-0.167
	c-0.062-0.035-0.111-0.529-0.111-0.529c-0.051-0.317-0.163-0.536-0.332-0.872c-0.085-0.173-0.125-0.71-0.216-0.984
	c0.051-1.255-0.352-1.62-0.677-1.824c-0.123-0.079-0.185-0.137-0.307-0.208l-0.004-0.058c-0.095-0.09-0.286-0.187-0.443-0.257
	c-0.049-0.049-0.024-0.156,0.008-0.196c0.106-0.016,0.248-0.254,0.365-0.5c0.092,0.005,0.122-0.084,0.151-0.135
	c0.099-0.157,0.204-0.294,0.066-0.384c0.31-0.552,0.111-0.924-0.057-0.938c-0.067-0.139-0.185-0.225-0.392-0.298l-0.424-0.001
	c-0.438,0.168-0.501,0.36-0.518,0.969c-0.074,0.008-0.231-0.062-0.179,0.309c0,0,0.029,0.247,0.129,0.204
	c-0.096,0.652,0.017,0.703-0.661,0.732l-0.032,0.048c-0.675,0.065-0.888-0.02-1.456,1.138c0,0-0.147,0.358-0.19,0.507
	c-0.059,0.122-0.15,0.309-0.246,0.51v1.598c0.084,0.004,0.186,0.005,0.332,0.001v0.174c0,0-0.204,0.175-0.245,0.282
	c-0.021,0.048-0.056,0.188-0.087,0.344v0.883c0.142,0.506,0.504,0.968,0.634,1.498l0.351,0.049c0.2,0.45,1.062,1.672,1.237,1.833
	c0.041,0.113,0.26,0.253,0.388,0.393c0.105,0.1,0.729,0.782,1.459,1.201c-0.004,0,0.118,0.244,0.179,0.44
	c-0.243,0.195,0.225,0.552,0.368,1.142c0.01,0.077-0.136,0.159,0.08,0.352c-0.005,0.309-0.041,0.563-0.065,0.779h0.62h0.117
	c-0.046-0.228-0.139-0.452-0.188-0.624c-0.008-0.022,0.01-0.052,0.021-0.071c0.029-0.056-0.033-0.182-0.033-0.182
	c-0.069-0.063-0.09-0.398-0.129-0.548c-0.062-0.254,0.11-0.689,0.11-0.838c0-0.146-0.11-0.349-0.315-0.609
	c-0.049-0.056-0.195-1.323-0.327-1.644c-0.186-0.442-0.242-0.373-0.455-0.898c-0.171-0.373-0.039-0.92-0.419-2.192
	c0.004,0.005,0.086-0.08,0.086-0.08s-0.302-1.102-0.4-1.404c-0.1-0.301-0.271-0.323-0.271-0.323s0.001-0.123,0.008-0.155
	c0.016-0.049,0.368-0.969,0.397-0.998c0-0.022,0.51-0.366,0.52-0.317c0.042,0.226,0.24,1.37,0.323,1.553
	c0.087,0.185,0.38,0.746,0.519,1.094c-0.528,0.127-0.92,0.603-0.92,1.17c0,0.663,0.537,1.202,1.204,1.202
	c0.507,0,0.943-0.314,1.118-0.758l0.001-0.884c-0.038-0.097-0.089-0.192-0.155-0.282
	C308.926,195.244,308.731,195.248,308.679,195.18z"/>
<path fill="#FFFFFF" d="M308.186,203.296c-0.237-0.14-0.225-0.344-0.167-0.816c0.024-0.201,0.054-0.436,0.059-0.71
	c-0.143-0.164-0.124-0.205-0.104-0.257l0.009-0.02l0.014-0.086c-0.065-0.271-0.19-0.488-0.29-0.662
	c-0.141-0.246-0.188-0.345-0.108-0.408c-0.019-0.233-0.098-0.407-0.135-0.489c-0.677-0.44-1.222-0.994-1.427-1.202
	c-0.117-0.122-0.183-0.178-0.244-0.231c-0.082-0.071-0.175-0.151-0.192-0.201c-0.181-0.177-1.043-1.395-1.24-1.839l-0.412-0.096
	c-0.004-0.226-0.143-0.491-0.276-0.748c-0.18-0.342-0.35-0.666-0.356-1.021c-0.006-0.228,0.107-0.748,0.149-0.847
	c0.023-0.062,0.146-0.185,0.224-0.251l0.028-0.235v-0.083l-0.286,0.006c-0.314,0-0.318-0.02-0.339-0.118
	c-0.01-0.048-0.022-0.114-0.058-0.191c-0.059-0.128-0.044-0.167-0.018-0.246c0.111-0.441,0.36-0.945,0.524-1.278l0.081-0.165
	c0.047-0.158,0.191-0.511,0.191-0.511c0.498-1.015,0.696-1.031,1.228-1.075l0.2-0.018l0.054-0.079c0.032,0,0.062,0,0.091,0
	c0.461,0,0.502-0.079,0.553-0.516l0.052-0.391l-0.132,0.057c0.013-0.011-0.01-0.081-0.018-0.141
	c-0.023-0.172,0.004-0.21,0.008-0.214l0.169-0.013l0.002-0.07c0.018-0.617,0.088-0.751,0.467-0.896l0.395,0.006
	c0.163,0.062,0.264,0.137,0.319,0.253c0.089,0.046,0.129,0.071,0.162,0.134c0.071,0.135,0.083,0.398-0.104,0.73l-0.037,0.065
	l0.062,0.041c0.047,0.031,0.044,0.063-0.065,0.234l-0.102,0.139c-0.288,0.481-0.384,0.5-0.385,0.5
	c-0.106,0.096-0.137,0.248-0.054,0.331c0.228,0.107,0.376,0.193,0.445,0.259c0.086,0.107,0.134,0.143,0.185,0.179l0.139,0.095
	c0.343,0.215,0.686,0.592,0.639,1.753c0.046,0.155,0.076,0.338,0.106,0.515c0.035,0.218,0.066,0.406,0.116,0.507
	c0.175,0.344,0.278,0.553,0.325,0.849c0.053,0.532,0.12,0.569,0.152,0.587c0.198,0.048,0.229,0.072,0.232,0.076
	c0.062,0.108,0.105,0.128,0.149,0.147c0.08,0.036,0.112,0.056,0.112,0.119c0.075,0.127,0.124,0.216,0.161,0.311l-0.008,0.855
	c-0.16,0.394-0.579,0.678-1.037,0.678c-0.62,0-1.124-0.503-1.124-1.122c0-0.522,0.353-0.971,0.857-1.093l0.09-0.021l-0.033-0.086
	c-0.102-0.253-0.283-0.619-0.409-0.873l-0.111-0.226c-0.067-0.148-0.229-1.054-0.292-1.395l-0.037-0.205l-0.074-0.005
	c-0.023,0-0.068,0-0.324,0.167c-0.268,0.174-0.268,0.195-0.268,0.236l0,0c-0.031,0-0.392,0.966-0.395,0.975
	c-0.01,0.042-0.012,0.177-0.012,0.177l-0.001,0.072l0.071,0.008c0.003,0,0.126,0.026,0.206,0.268c0.099,0.301,0.399,1.4,0.399,1.4
	h-0.107l0.022,0.082c0.218,0.729,0.266,1.217,0.3,1.573c0.025,0.267,0.045,0.46,0.123,0.629c0.112,0.282,0.185,0.396,0.254,0.507
	c0.058,0.094,0.115,0.187,0.199,0.389c0.073,0.18,0.157,0.705,0.22,1.088c0.075,0.472,0.091,0.542,0.121,0.578
	c0.196,0.249,0.297,0.437,0.297,0.557c0,0.042-0.021,0.13-0.044,0.223c-0.049,0.201-0.11,0.45-0.065,0.634
	c0.015,0.05,0.024,0.12,0.035,0.193c0.032,0.208,0.056,0.338,0.118,0.395c0.003,0.018,0.019,0.072,0.015,0.089l-0.017,0.031
	l-0.007,0.1c0.017,0.058,0.04,0.127,0.064,0.201c0.134,0.385,0.297,0.862-0.13,1.132L308.186,203.296z"/>
<path fill="#B2965D" d="M330.555,274.197l0.488,0.195l-0.017-9.086c-0.003-1.427-0.252-2.848-0.743-4.229
	c-0.494-1.391-1.206-2.704-2.119-3.907c-0.823-1.079-1.782-2.053-2.855-2.894c-0.949-0.744-1.98-1.375-3.065-1.877
	c-0.705-0.459-2.092-1.123-5.822-2.595c-3.162-1.249-8.314-3.146-14.909-5.101c-6.055-1.793-13.824-3.767-22.461-5.204
	c-0.001-0.001-0.001-0.003-0.003-0.004c-0.056-0.074-5.858-7.307-14.582-3.551c-0.296,0.127-0.586,0.269-0.876,0.412
	c-1.303,0.642-2.431,1.195-4.645,0.606c-1.309-0.347-2.967-1.146-2.288-4.064c0.149-0.653,0.659-1.522,1.456-1.989
	c0.552-0.324,1.152-0.395,1.787-0.211c1.172,0.34,1.66,0.971,1.492,1.93c-0.064,0.37-0.343,0.726-0.672,0.865
	c-0.351,0.149-0.752,0.068-1.199-0.236c-0.418-0.284-0.99-0.177-1.276,0.243c-0.284,0.42-0.177,0.992,0.243,1.277
	c0.969,0.657,2.017,0.803,2.947,0.41c0.901-0.381,1.598-1.261,1.769-2.242c0.125-0.716,0.295-3.12-2.794-4.015
	c-1.118-0.323-2.237-0.189-3.229,0.392c-1.113,0.653-2.022,1.894-2.316,3.16c-0.008,0.035-0.012,0.069-0.021,0.105
	c-0.385-0.527-0.736-0.913-0.933-1.109l-3.021-3.059l-3.012,3.071c-0.196,0.198-0.543,0.586-0.924,1.111
	c-0.008-0.035-0.014-0.069-0.022-0.105c-0.299-1.265-1.213-2.503-2.33-3.151c-0.992-0.577-2.109-0.709-3.228-0.381
	c-3.085,0.906-2.907,3.31-2.779,4.024c0.175,0.979,0.872,1.857,1.775,2.235c0.934,0.391,1.98,0.242,2.947-0.42
	c0.418-0.286,0.524-0.858,0.238-1.278c-0.286-0.418-0.858-0.525-1.278-0.239c-0.446,0.305-0.849,0.387-1.198,0.24
	c-0.331-0.138-0.608-0.493-0.674-0.862c-0.172-0.959,0.314-1.593,1.486-1.937c0.633-0.186,1.233-0.117,1.787,0.205
	c0.798,0.463,1.31,1.331,1.463,1.984c0.688,2.916-0.968,3.721-2.273,4.072c-2.215,0.596-3.341,0.047-4.646-0.59
	c-0.292-0.142-0.582-0.283-0.878-0.409c-8.733-3.723-14.513,3.529-14.57,3.603c-0.014,0.017-0.021,0.035-0.034,0.052
	c-8.299,1.427-15.772,3.33-21.634,5.062c-11.246,3.322-20.29,7.457-20.67,7.632l-1.19,0.548l0.001,0.202
	c-0.519,0.086-1.05,0.253-1.582,0.502c-1.926,0.899-3.837,1.834-5.687,2.78l-1.404,0.722l0.009,4.949
	c0.002,1.19,0.24,2.169,0.714,2.972c0.096,0.166,0.2,0.323,0.311,0.473l0.01,5.466c-0.624,1.204-0.951,2.458-0.949,3.659
	c0.002,1.197,0.338,2.263,0.962,3.093l0.02,11.401l0.121,0.332c0.093,0.256,1.915,5.103,7.315,7.062l-0.154,0.073
	c0,0,2.859,4.619,7.292,5.57l-0.846,0.352c0,0,3.131,5.043,9.187,6.1l-0.891,0.438c0,0,3.911,4.198,9.983,4.966
	c6.466,20.029,25.3,34.545,47.45,34.506c22.147-0.04,40.929-14.624,47.322-34.676c6.069-0.789,9.966-5.002,9.966-5.002l-0.895-0.434
	c6.054-1.08,9.165-6.134,9.165-6.134l-0.847-0.349c4.429-0.967,7.271-5.598,7.271-5.598l0.283-0.377
	c5.047-2.164,7.99-7.104,7.982-11.76l-0.012-5.822C331.346,276.943,331.012,275.505,330.555,274.197z M275.907,239.01
	c-3.574-0.524-7.271-0.947-11.044-1.219c0.107-0.052,0.218-0.108,0.328-0.155C270.104,235.521,273.868,237.418,275.907,239.01z
	 M236.625,237.688c0.116,0.049,0.229,0.107,0.343,0.16c-3.788,0.296-7.496,0.748-11.078,1.295
	C227.93,237.547,231.727,235.599,236.625,237.688z"/>
<path fill="#002C5B" d="M326.349,270.325l2.662,1.069l-0.01-6.082c-0.003-1.201-0.214-2.396-0.625-3.555
	c-0.428-1.197-1.04-2.326-1.824-3.357c-0.719-0.946-1.558-1.795-2.491-2.526c-0.87-0.683-1.814-1.254-2.812-1.7
	c-0.524-0.377-1.907-1.037-5.572-2.482c-3.124-1.233-8.218-3.109-14.738-5.042c-10.746-3.183-26.916-6.942-43.76-7.152
	c-0.398-1.168-1.359-2.04-2.632-2.333c-0.151-2.206-1.741-3.923-2.073-4.258l-1.576-1.594l-1.568,1.6
	c-0.329,0.336-1.913,2.059-2.057,4.265c-1.265,0.296-2.222,1.167-2.62,2.33c-16.576,0.321-32.417,4.033-42.966,7.15
	c-11.237,3.32-20.399,7.528-20.399,7.528l0.01,1.238c0,0-0.153-0.097-0.236-0.137c-0.307-0.152-0.647-0.23-1.02-0.229
	c-0.47,0-0.978,0.125-1.514,0.375c-1.879,0.879-3.772,1.804-5.617,2.748l-0.301,0.154l0.006,3.71
	c0.001,0.819,0.146,1.462,0.443,1.962c0.161,0.279,0.355,0.514,0.581,0.702l0.012,6.772c-0.616,1.029-0.952,2.137-0.951,3.135
	c0.002,0.996,0.34,1.8,0.96,2.293l0.021,11.847c0,0,1.784,4.923,7.421,6.224c0.131,0.035,0.272,0.059,0.408,0.088
	c0.01,0.004,0.021,0.006,0.032,0.008c0.89,0.193,1.858,0.289,2.922,0.209c0.002,0,0.002,0,0.004,0
	c-0.997,0.488-1.991,0.992-2.982,1.504c0.017,0.062,2.979,4.916,10.112,4.2c-1.185,0.565-2.368,1.14-3.545,1.733
	c0.015,0.067,3.434,4.84,10.95,4.701c-1.732,0.877-2.776,1.438-2.77,1.436c0.004,0.029,3.396,3.297,9.089,3.688
	c5.929,19.667,24.191,33.977,45.787,33.938c21.594-0.038,39.805-14.413,45.662-34.1c5.69-0.412,9.069-3.693,9.073-3.722
	c0.009,0.002-1.039-0.556-2.772-1.425c7.518,0.109,10.919-4.674,10.933-4.741c-1.178-0.59-2.364-1.16-3.552-1.72
	c7.137,0.688,10.082-4.178,10.098-4.238c-0.993-0.509-1.989-1.007-2.989-1.493c2.434,0.175,4.407-0.499,5.927-1.411
	c3.796-2.064,5.856-6.031,5.851-9.445l-0.011-5.822C329.316,274.631,326.349,270.325,326.349,270.325z"/>
<path fill="#DF1A3B" d="M282.822,316.475c0.896,0.676,1.789,1.357,2.685,2.051c0.013-0.094-10.61,2.928-18.176-0.391
	c-0.278-0.121-0.542-0.261-0.808-0.396c-1.863,6.789-8.078,11.801-15.451,11.813c-7.371,0.013-13.604-4.973-15.491-11.757
	c-0.267,0.139-0.529,0.277-0.806,0.396c-7.555,3.346-18.188,0.363-18.173,0.455c0.89-0.693,1.784-1.379,2.677-2.06
	c-3.693,0.541-7.082-0.118-9.451-0.853c6.688,16.207,22.651,27.603,41.271,27.568c18.616-0.033,34.541-11.486,41.172-27.718
	C289.902,316.331,286.518,317.001,282.822,316.475z"/>
<path fill="#FFFFFF" d="M246.489,244.131c-0.811-0.407-1.431-1.101-1.765-1.95c-26.73,0.743-53.34,10.389-53.29,10.74
	c-1.158,0.438-1.787,1.45-1.786,2.116l0.002,0.949c18.396-7.181,37.588-10.988,56.845-11.5L246.489,244.131z"/>
<path fill="#FFFFFF" d="M312.104,253.377c0.062-0.378-27.935-10.579-54.996-11.212c-0.33,0.846-0.943,1.538-1.748,1.945v0.371
	c19.828,0.518,39.605,4.525,58.538,11.966l-0.001-0.949C313.894,254.832,313.264,253.82,312.104,253.377z"/>
<path fill="#DF1A3B" d="M253.843,239.275c-1.731-0.206-2.013,2.259-2.06,3.093l-0.553,0.001c0.006-2.352,1.123-3.298,1.121-4.874
	c-0.004-1.578-1.449-3.04-1.449-3.04s-1.44,1.468-1.438,3.045c0.002,1.576,1.125,2.518,1.136,4.869l-0.551,0.001
	c-0.047-0.833-0.34-3.298-2.07-3.085c-1.871,0.229-1.664,2.821,0.005,3.023c0,0-0.318-1.153,0.608-1.154
	c0.671-0.001,0.857,0.788,0.907,1.217l-0.792,0.001h-0.024l0.001,0.901h0.023l1.776-0.002c-0.25,0.868-0.827,1.131-0.827,1.131
	s0.248,0.495,0.789,0.561c0,0,0.001,0.61,0.476,1.081c0.474-0.473,0.474-1.083,0.474-1.083c0.541-0.068,0.787-0.563,0.787-0.563
	s-0.58-0.262-0.834-1.128l1.778-0.003h0.022l-0.002-0.901h-0.021l-0.792,0.001c0.048-0.43,0.228-1.219,0.901-1.22
	c0.922-0.002,0.613,1.152,0.613,1.152C255.518,242.09,255.715,239.498,253.843,239.275"/>
<path fill="#FFFFFF" d="M245.32,257.29l-0.01-5.779c-0.001-0.804-0.15-1.501-0.445-2.094c-0.293-0.591-0.698-1.069-1.208-1.439
	c-0.511-0.368-1.115-0.631-1.81-0.783c-0.698-0.152-1.447-0.203-2.248-0.147c-0.803,0.054-1.551,0.207-2.245,0.453
	c-0.693,0.246-1.299,0.591-1.819,1.03c-0.518,0.438-0.923,0.974-1.217,1.606c-0.29,0.632-0.435,1.349-0.434,2.152l0.01,5.781
	c-0.611,0.154-1.08,0.719-1.079,1.339c0.001,0.623,0.472,1.079,1.083,1.108l0.011,6.479c0,0.804,0.15,1.489,0.442,2.062
	c0.295,0.573,0.703,1.037,1.222,1.392c0.521,0.354,1.128,0.595,1.822,0.729c0.695,0.133,1.444,0.174,2.247,0.118
	c0.802-0.055,1.55-0.196,2.248-0.423c0.693-0.229,1.297-0.552,1.807-0.979c0.508-0.424,0.912-0.94,1.203-1.556
	c0.292-0.61,0.438-1.317,0.437-2.122l-0.012-6.473c0.641-0.091,1.137-0.626,1.136-1.268
	C246.46,257.843,245.961,257.333,245.32,257.29z M242.143,266.232c0.001,0.425-0.075,0.781-0.225,1.074
	c-0.155,0.293-0.348,0.536-0.586,0.732c-0.24,0.191-0.506,0.341-0.8,0.441c-0.289,0.104-0.589,0.166-0.895,0.187
	c-0.306,0.021-0.608,0-0.911-0.063c-0.304-0.06-0.577-0.174-0.814-0.334c-0.24-0.16-0.436-0.377-0.586-0.649
	c-0.153-0.272-0.23-0.621-0.23-1.044l-0.026-14.455c0-0.423,0.075-0.783,0.227-1.082c0.15-0.296,0.345-0.545,0.584-0.743
	c0.237-0.197,0.509-0.352,0.812-0.458c0.302-0.105,0.605-0.17,0.91-0.191s0.605,0.001,0.896,0.068
	c0.294,0.066,0.561,0.184,0.801,0.348c0.238,0.168,0.433,0.388,0.588,0.666c0.151,0.278,0.228,0.627,0.229,1.049L242.143,266.232z"
	/>
<path fill="#FFFFFF" d="M184.119,272.973c0,0.06-0.013,0.077-0.046,0.049c-0.03-0.028-0.057-0.06-0.077-0.096
	c-0.087-0.254-3.912-12.873-4.11-13.443c-0.204-0.58-0.303-0.896-0.304-0.937c-0.059-0.187-0.153-0.308-0.272-0.364
	c-0.123-0.062-0.305-0.037-0.547,0.075c-1.139,0.534-2.273,1.078-3.403,1.636l0.002,1.049c0,0.358,0.05,0.625,0.15,0.795
	c0.101,0.175,0.223,0.289,0.363,0.349c0.14,0.08,0.309,0.112,0.511,0.097l0.018,9.641c-0.547,0.373-0.96,1.08-0.959,1.689
	c0.001,0.606,0.415,0.906,0.963,0.748l0.024,13.594c0.882-0.429,1.768-0.851,2.657-1.264l-0.031-17.05
	c0-0.125,0.01-0.187,0.029-0.173c0.021,0.013,0.04,0.033,0.062,0.068c0,0.02,0.1,0.318,0.303,0.889
	c0.199,0.558,3.937,12.96,3.983,13.061c0.101,0.314,0.209,0.565,0.322,0.75c0.113,0.186,0.301,0.219,0.565,0.107
	c0.594-0.254,1.186-0.501,1.779-0.746c0.245-0.1,0.43-0.258,0.553-0.48c0.124-0.219,0.186-0.431,0.185-0.646l-0.023-12.775
	c0.503-0.353,0.872-0.974,0.871-1.538c-0.001-0.568-0.371-0.892-0.875-0.838l-0.017-9.447c0.021-0.197,0.055-0.352,0.106-0.455
	c0.052-0.104,0.119-0.217,0.201-0.336c0.162-0.191,0.327-0.438,0.491-0.733c0.164-0.3,0.245-0.629,0.244-0.987l-0.002-0.919
	c-1.252,0.509-2.503,1.034-3.746,1.573L184.119,272.973z"/>
<path fill="#FFFFFF" d="M310.238,272.971c0,0.065-0.018,0.067-0.05,0.016c-0.031-0.055-0.058-0.107-0.075-0.154
	c-0.085-0.307-0.251-0.917-0.502-1.83c-0.248-0.916-0.538-1.977-0.861-3.177c-0.326-1.205-0.668-2.466-1.034-3.788
	c-0.368-1.32-0.707-2.536-1.021-3.648c-0.316-1.109-0.579-2.037-0.788-2.785c-0.209-0.744-0.316-1.142-0.316-1.183
	c-0.062-0.233-0.157-0.428-0.282-0.586c-0.127-0.158-0.312-0.276-0.562-0.358c-1.182-0.39-2.365-0.766-3.555-1.127l0.004,1.047
	c0,0.357,0.052,0.666,0.156,0.918c0.107,0.258,0.232,0.47,0.381,0.642c0.146,0.192,0.326,0.364,0.535,0.513l0.015,7.5
	c-0.571-0.07-1.007,0.303-1.007,0.908c0.002,0.607,0.438,1.244,1.01,1.531l0.021,11.006c0.924,0.289,1.846,0.584,2.764,0.888
	l-0.027-15.11c0-0.127,0.012-0.176,0.032-0.148c0.021,0.029,0.041,0.066,0.062,0.117c0,0.021,0.104,0.396,0.315,1.135
	c0.21,0.732,0.474,1.654,0.789,2.752c0.313,1.1,0.653,2.293,1.021,3.58c0.365,1.287,0.712,2.505,1.035,3.643
	c0.324,1.139,0.601,2.112,0.831,2.922c0.229,0.814,0.365,1.279,0.406,1.4c0.103,0.396,0.215,0.73,0.327,1.008
	c0.115,0.273,0.308,0.457,0.576,0.559c0.602,0.221,1.199,0.445,1.801,0.671c0.247,0.097,0.435,0.084,0.556-0.038
	c0.124-0.122,0.187-0.288,0.187-0.499l-0.019-10.19c0.505,0.047,0.875-0.278,0.874-0.847c-0.001-0.565-0.373-1.187-0.879-1.53
	l-0.014-7.309c0.019-0.184,0.055-0.307,0.108-0.371c0.049-0.062,0.116-0.122,0.198-0.178c0.166-0.061,0.33-0.178,0.495-0.344
	c0.163-0.168,0.246-0.432,0.245-0.791v-0.918c-1.256-0.484-2.518-0.955-3.779-1.408L310.238,272.971z"/>
<path fill="#FFFFFF" d="M325.995,275.334c-0.381-0.839-0.854-1.657-1.419-2.454c-0.469-0.663-0.988-1.305-1.54-1.933
	c0.024-0.088,0.044-0.184,0.044-0.291c-0.002-0.686-0.535-1.488-1.193-1.786c-0.285-0.129-0.545-0.136-0.751-0.052
	c-0.097-0.106-0.2-0.223-0.296-0.327c-0.567-0.646-1.047-1.24-1.434-1.788c-0.391-0.549-0.583-1.03-0.584-1.456l-0.011-5.031
	c0.003-0.233,0.072-0.409,0.214-0.526c0.143-0.117,0.326-0.19,0.552-0.222c0.223-0.028,0.456-0.021,0.701,0.021
	c0.24,0.046,0.476,0.115,0.697,0.218c0.204,0.091,0.435,0.22,0.686,0.385c0.254,0.169,0.487,0.36,0.7,0.57
	c0.212,0.215,0.389,0.45,0.529,0.704c0.145,0.256,0.213,0.513,0.213,0.762l0.004,1.178c0.001,0.506,0.175,1.008,0.52,1.506
	c0.343,0.498,0.765,0.864,1.27,1.104c0.452,0.214,0.902,0.433,1.354,0.653l-0.003-2.35c-0.001-0.802-0.133-1.568-0.396-2.297
	c-0.261-0.729-0.629-1.402-1.101-2.016c-0.477-0.615-1.028-1.174-1.665-1.67c-0.639-0.49-1.332-0.91-2.083-1.244
	c-0.75-0.335-1.439-0.547-2.074-0.643c-0.631-0.09-1.183-0.039-1.649,0.156c-0.473,0.195-0.839,0.538-1.104,1.034
	c-0.268,0.492-0.401,1.162-0.399,2.008l0.009,4.144c0,0.889,0.192,1.722,0.575,2.5c0.378,0.779,0.857,1.521,1.431,2.227
	c0.56,0.691,1.163,1.365,1.808,2.031c-0.067,0.126-0.105,0.277-0.105,0.462c0.002,0.687,0.539,1.474,1.198,1.767
	c0.367,0.161,0.69,0.131,0.908-0.043c0.52,0.613,0.954,1.233,1.306,1.856c0.376,0.667,0.56,1.353,0.562,2.05l0.01,5.945
	c-0.002,0.275-0.073,0.484-0.226,0.637c-0.153,0.154-0.349,0.254-0.59,0.301c-0.242,0.049-0.506,0.055-0.79,0.021
	c-0.283-0.033-0.557-0.11-0.82-0.229c-0.265-0.118-0.537-0.28-0.824-0.489c-0.284-0.209-0.543-0.438-0.775-0.689
	c-0.236-0.247-0.428-0.51-0.583-0.79c-0.153-0.272-0.231-0.551-0.231-0.827l-0.003-1.361c-0.001-0.485-0.137-0.918-0.414-1.301
	c-0.277-0.382-0.69-0.688-1.239-0.916c-0.495-0.205-0.985-0.408-1.479-0.607l0.004,2.379c0.001,0.804,0.151,1.564,0.451,2.287
	c0.298,0.726,0.698,1.386,1.201,1.986c0.502,0.598,1.088,1.137,1.764,1.616c0.672,0.479,1.384,0.886,2.135,1.22
	c0.75,0.336,1.461,0.562,2.123,0.682c0.668,0.115,1.253,0.104,1.755-0.049c0.501-0.15,0.901-0.455,1.204-0.912
	c0.299-0.455,0.449-1.082,0.447-1.887l-0.01-5.692C326.573,277.021,326.38,276.174,325.995,275.334z"/>
<path fill="#FFFFFF" d="M218.957,261.832c-0.124,1.123-0.251,2.227-0.38,3.307c-0.127,1.084-0.243,2.047-0.349,2.894
	c-0.104,0.846-0.188,1.526-0.252,2.046c-0.063,0.521-0.108,0.781-0.128,0.788c-0.258-1.492-0.495-2.83-0.699-4.017
	c-0.204-1.184-0.431-2.506-0.679-3.965c-0.251-1.46-0.503-2.898-0.765-4.312c-0.258-1.416-0.501-2.728-0.725-3.938
	c-0.23-1.205-0.427-2.162-0.601-2.865c-0.043-0.222-0.239-0.371-0.591-0.438c-0.354-0.071-0.71-0.062-1.071,0.021
	c-0.322,0.072-0.657,0.209-1.008,0.408c-0.352,0.201-0.56,0.447-0.62,0.735c-0.172,0.739-0.364,1.763-0.586,3.078
	c-0.22,1.312-0.458,2.731-0.71,4.265c-0.251,1.534-0.5,3.09-0.738,4.674c-0.244,1.584-0.462,3.021-0.662,4.307
	c-0.198,1.289-0.426,2.75-0.675,4.379c-0.021,0.007-0.069-0.231-0.145-0.721c-0.076-0.488-0.159-1.131-0.258-1.933
	c-0.097-0.798-0.21-1.709-0.338-2.731c-0.13-1.023-0.258-2.064-0.388-3.129c-0.304-2.502-1.346-11.5-1.346-11.498
	c-1.291,0.36-2.58,0.737-3.863,1.129l0.002,0.951c0.001,0.359,0.076,0.633,0.221,0.821c0.147,0.188,0.305,0.312,0.476,0.363
	c0.103,0.054,0.199,0.121,0.283,0.198c0.084,0.084,0.149,0.201,0.191,0.359c0.308,2.551,0.593,4.898,0.856,7.067
	c-0.449,0.315-0.764,0.854-0.763,1.374c0.001,0.619,0.454,0.994,1.046,0.918c0.005,0.042,0.011,0.089,0.016,0.132
	c0.149,1.207,0.293,2.379,0.434,3.522c0.137,1.146,0.266,2.17,0.384,3.08c0.118,0.906,0.214,1.646,0.288,2.215
	c0.078,0.572,0.115,0.881,0.115,0.923c0.022,0.163,0.09,0.309,0.206,0.434c0.117,0.126,0.281,0.161,0.492,0.103
	c1.195-0.33,2.392-0.646,3.592-0.951c0.232-0.059,0.415-0.167,0.54-0.327c0.127-0.159,0.243-0.39,0.35-0.688
	c0.896-5.369,1.79-10.732,2.685-16.088c0.895,4.943,1.788,9.893,2.686,14.85c0.106,0.254,0.223,0.428,0.354,0.529
	c0.126,0.099,0.31,0.123,0.544,0.075c1.197-0.25,2.397-0.483,3.6-0.707c0.213-0.042,0.379-0.149,0.497-0.331
	c0.118-0.181,0.188-0.356,0.209-0.529c0-0.045,0.038-0.367,0.113-0.975c0.07-0.604,0.165-1.388,0.285-2.349
	c0.115-0.961,0.241-2.048,0.381-3.257c0.135-1.204,0.28-2.445,0.428-3.723c0.004-0.046,0.011-0.096,0.017-0.141
	c0.599-0.202,1.057-0.785,1.056-1.404c-0.001-0.514-0.322-0.902-0.78-1.012c0.262-2.289,0.544-4.773,0.852-7.467
	c0.041-0.176,0.105-0.323,0.191-0.445c0.087-0.117,0.183-0.229,0.292-0.333c0.17-0.132,0.332-0.328,0.482-0.584
	c0.148-0.258,0.226-0.566,0.225-0.925l-0.002-0.951c-1.313,0.21-2.622,0.439-3.93,0.682
	C220.293,249.729,219.253,259.195,218.957,261.832z"/>
<path fill="#FFFFFF" d="M298.35,265.012c0-0.617-0.453-1.256-1.043-1.516c-0.15-0.877-0.302-1.756-0.445-2.611
	c-0.204-1.195-0.385-2.275-0.547-3.238c-0.16-0.961-0.293-1.752-0.399-2.375c-0.106-0.621-0.163-0.974-0.163-1.058
	c-0.043-0.392-0.212-0.771-0.508-1.132c-0.294-0.365-0.688-0.612-1.178-0.738c-1.42-0.367-2.846-0.715-4.273-1.043l0.001,0.729
	c0.001,0.908,0.271,1.529,0.804,1.865c0.105,0.066,0.16,0.17,0.16,0.308c0,0.139-0.011,0.288-0.033,0.455
	c0,0.021-0.045,0.271-0.142,0.757c-0.094,0.484-0.224,1.12-0.382,1.906c-0.157,0.785-0.33,1.682-0.521,2.683
	c-0.092,0.485-0.188,0.978-0.283,1.47c-0.682-0.143-1.232,0.284-1.23,0.965c0.001,0.519,0.326,1.031,0.78,1.317
	c-0.604,3.08-2.044,10.603-2.044,10.604c1.021,0.216,2.035,0.442,3.053,0.679c0,0,0.872-5.14,0.895-5.238
	c0.041-0.414,0.232-0.577,0.573-0.497c1.214,0.295,2.425,0.6,3.63,0.92c0.19,0.049,0.352,0.133,0.477,0.252
	c0.13,0.119,0.212,0.312,0.254,0.573c0,0.104,0.723,5.646,0.723,5.646c1.067,0.3,2.131,0.608,3.192,0.931
	c0.001,0-1.323-7.831-1.981-11.714C298.094,265.803,298.352,265.477,298.35,265.012z M295.143,267.454
	c-0.086,0.083-0.203,0.104-0.349,0.065c-0.997-0.264-1.994-0.516-2.995-0.758c-0.128-0.031-0.23-0.102-0.318-0.221
	c-0.084-0.114-0.115-0.245-0.098-0.387c0-0.021,0.026-0.194,0.079-0.518c0.052-0.326,0.121-0.742,0.204-1.253
	c0.085-0.506,0.18-1.082,0.286-1.723c0.104-0.638,0.221-1.29,0.347-1.955c0.314-1.763,0.629-3.521,0.945-5.28
	c0.023,0.006,0.044,0.014,0.064,0.018c0.32,1.92,0.643,3.84,0.963,5.764c0.129,0.729,0.248,1.439,0.356,2.134
	c0.106,0.693,0.2,1.313,0.288,1.864c0.083,0.552,0.162,1.005,0.225,1.363c0.063,0.354,0.096,0.539,0.096,0.561
	C295.259,267.268,295.229,267.371,295.143,267.454z"/>
<path fill="#FFFFFF" d="M259.586,268.379c-0.104-0.068-0.199-0.13-0.273-0.188c-0.08-0.055-0.115-0.189-0.115-0.4l-0.012-5.421
	c-0.002-0.781-0.121-1.496-0.36-2.14c-0.24-0.646-0.61-1.156-1.11-1.537c-0.236-0.238-0.264-0.452-0.064-0.635
	c0.453-0.342,0.82-0.785,1.104-1.334c0.282-0.548,0.422-1.16,0.42-1.836l-0.005-2.505c-0.001-0.782-0.101-1.498-0.296-2.154
	c-0.197-0.652-0.507-1.22-0.932-1.702c-0.424-0.48-0.961-0.864-1.617-1.15c-0.654-0.284-1.444-0.435-2.381-0.452
	c-2.238-0.034-4.479-0.026-6.716,0.027l0.002,0.92c0.001,0.443,0.081,0.778,0.246,1.008c0.163,0.228,0.332,0.396,0.505,0.496
	c0.087,0.042,0.165,0.11,0.229,0.201c0.066,0.095,0.099,0.227,0.1,0.397l0.013,7.251c-0.578,0.129-1.011,0.639-1.01,1.233
	c0.001,0.599,0.437,1.084,1.014,1.192l0.02,10.984c1.065-0.012,2.129-0.014,3.195-0.006l-0.02-10.443
	c0-0.295,0.142-0.443,0.425-0.444c0.674,0.007,1.348,0.011,2.021,0.024c0.698,0.008,1.201,0.228,1.519,0.646s0.475,1,0.476,1.74
	l0.014,6.974c0,0.465,0.137,0.844,0.412,1.138c0.271,0.291,0.688,0.447,1.252,0.469c0.904,0.033,1.806,0.074,2.707,0.121
	l-0.002-1.233c0-0.384-0.084-0.655-0.244-0.822C259.93,268.634,259.764,268.494,259.586,268.379z M255.945,254.77
	c0.002,0.738-0.153,1.328-0.469,1.764c-0.314,0.436-0.818,0.646-1.517,0.635c-0.687-0.01-1.369-0.016-2.054-0.02
	c-0.09-0.002-0.176-0.033-0.262-0.098c-0.09-0.062-0.133-0.146-0.133-0.251l-0.013-6.787c0-0.296,0.175-0.442,0.522-0.442
	c0.643,0.004,1.281,0.012,1.924,0.021c0.697,0.009,1.199,0.238,1.517,0.68c0.317,0.44,0.476,1.03,0.478,1.771L255.945,254.77z"/>
<path fill="#FFFFFF" d="M269.757,262.32c-0.325,0.113-0.487,0.412-0.485,0.897c0,0.128,0.039,5.493-0.037,5.603
	c-0.075,0.105-0.188,0.152-0.342,0.139c-0.951-0.1-1.906-0.189-2.857-0.271c-0.151-0.012-0.262-0.084-0.326-0.217
	c-0.064-0.135-0.1-0.283-0.1-0.453c-0.021-5.812-0.041-11.627-0.062-17.438c-0.001-0.233,0.027-0.388,0.08-0.469
	c0.055-0.081,0.133-0.146,0.244-0.201c0.172-0.113,0.343-0.278,0.518-0.494c0.176-0.219,0.26-0.505,0.26-0.865l-0.002-0.95
	c-1.81-0.166-3.621-0.298-5.435-0.403l0.002,0.949c0,0.361,0.085,0.661,0.263,0.904c0.174,0.243,0.346,0.433,0.521,0.569
	c0.11,0.071,0.196,0.153,0.26,0.239c0.066,0.091,0.101,0.25,0.101,0.483l0.013,7.218c-0.586,0.07-1.024,0.549-1.024,1.151
	c0.002,0.603,0.443,1.131,1.029,1.282l0.02,10.984c2.866,0.183,5.729,0.441,8.584,0.774c0.215,0.024,0.431,0.05,0.649,0.075
	c0.173,0.021,0.341-0.03,0.517-0.156c0.174-0.131,0.26-0.318,0.26-0.57l-0.016-8.697c-0.453-0.059-0.91-0.11-1.365-0.164
	C270.549,262.188,270.081,262.207,269.757,262.32z"/>
<path fill="#FFFFFF" d="M199.109,255.049c-0.05,0.004-0.104,0.01-0.156,0.027c-0.018,0.005-0.039,0.01-0.06,0.017l0,0
	c-3.319,1.065-6.613,2.234-9.877,3.507l0.001,0.922c0.001,0.422,0.058,0.729,0.17,0.916c0.115,0.188,0.276,0.295,0.483,0.321
	c0.103,0.022,0.195,0.069,0.277,0.147c0.082,0.072,0.125,0.203,0.125,0.395l0.012,7.184c-0.558,0.328-0.975,0.992-0.974,1.595
	c0.001,0.604,0.419,0.944,0.979,0.841l0.02,10.984c0.268-0.103,0.537-0.205,0.804-0.303c1.415-0.531,2.832-1.047,4.254-1.539
	c0.608-0.211,1.215-0.416,1.822-0.619c0.458-0.153,0.918-0.305,1.378-0.453c0.188-0.062,0.377-0.123,0.567-0.184
	c0.021-0.008,0.041-0.014,0.059-0.02c0.076-0.023,0.15-0.066,0.228-0.117c0.109-0.072,0.207-0.162,0.294-0.27
	c0.157-0.201,0.236-0.412,0.235-0.648l-0.006-3.264l-0.001,0.002c-0.003-1.149-0.006-2.299-0.008-3.445
	c-0.441,0.139-0.881,0.277-1.32,0.418c-0.461,0.15-0.911,0.374-1.225,0.627s-0.469,0.621-0.468,1.107
	c0,0.128,0.033,3.463-0.039,3.604c-0.074,0.139-0.179,0.236-0.328,0.284c-0.397,0.138-0.796,0.271-1.195,0.409
	c-0.547,0.189-1.095,0.385-1.643,0.578c-0.249,0.091-0.374-0.014-0.375-0.312l-0.013-7.384c0-0.296,0.155-0.501,0.466-0.609
	c1.245-0.449,2.496-0.879,3.749-1.293c0.312-0.104,0.468-0.304,0.467-0.6l-0.003-1.773c0-0.17-0.058-0.271-0.172-0.31
	c-0.114-0.035-0.225-0.037-0.33-0.001c-1.242,0.412-2.479,0.839-3.715,1.277c-0.312,0.111-0.467,0.021-0.468-0.273l-0.012-6.626
	c0-0.128,0.047-0.254,0.14-0.385c0.093-0.128,0.191-0.209,0.295-0.249c0.992-0.354,1.99-0.701,2.987-1.036
	c0.045,0.015,0.086,0.036,0.117,0.073c0.072,0.091,0.051,3.447,0.051,3.572c0.001,0.485,0.157,0.75,0.471,0.795
	c0.314,0.043,0.765-0.031,1.226-0.183c0.438-0.142,0.878-0.282,1.319-0.42l-0.006-3.446h0.003l-0.006-3.361
	c0-0.17-0.077-0.303-0.223-0.407C199.39,255.055,199.262,255.031,199.109,255.049z"/>
<path fill="#FFFFFF" d="M284.158,250.122c-0.053-0.025-0.105-0.045-0.158-0.057c-0.021-0.002-0.041-0.009-0.061-0.011h-0.002
	c-3.398-0.66-6.812-1.217-10.233-1.671l0.002,0.921c0.001,0.42,0.06,0.756,0.179,1.006c0.121,0.247,0.287,0.438,0.502,0.574
	c0.109,0.077,0.204,0.175,0.295,0.296c0.084,0.114,0.129,0.27,0.129,0.459l0.013,7.188c-0.583,0.027-1.021,0.475-1.021,1.074
	c0.002,0.604,0.44,1.164,1.024,1.357l0.021,10.982c0.278,0.042,0.562,0.08,0.842,0.121c1.475,0.212,2.946,0.445,4.418,0.695
	c0.625,0.105,1.252,0.217,1.877,0.33c0.474,0.088,0.942,0.178,1.414,0.266c0.194,0.035,0.388,0.074,0.582,0.111
	c0.021,0.004,0.041,0.01,0.062,0.012c0.078,0.016,0.153,0.015,0.229-0.002c0.112-0.015,0.213-0.049,0.304-0.116
	c0.157-0.114,0.237-0.288,0.237-0.521l-0.006-3.264l-0.007-3.448c-0.45-0.091-0.901-0.176-1.351-0.262
	c-0.473-0.094-0.938-0.105-1.258-0.018c-0.323,0.092-0.481,0.379-0.48,0.864c0.001,0.128,0.034,3.478-0.04,3.582
	c-0.073,0.103-0.187,0.142-0.34,0.113c-0.407-0.073-0.817-0.144-1.229-0.215c-0.565-0.097-1.136-0.19-1.703-0.281
	c-0.258-0.043-0.388-0.211-0.388-0.506l-0.014-7.39c-0.001-0.293,0.161-0.418,0.483-0.363c1.289,0.205,2.582,0.431,3.869,0.666
	c0.32,0.06,0.481-0.057,0.481-0.354l-0.004-1.773c0-0.17-0.06-0.303-0.179-0.398c-0.117-0.095-0.229-0.154-0.338-0.173
	c-1.277-0.235-2.557-0.456-3.836-0.662c-0.324-0.052-0.484-0.226-0.486-0.521l-0.012-6.625c0-0.129,0.049-0.232,0.146-0.312
	c0.095-0.081,0.197-0.109,0.304-0.095c1.031,0.168,2.062,0.341,3.091,0.526c0.045,0.037,0.086,0.078,0.119,0.133
	c0.076,0.13,0.053,3.471,0.055,3.595c0,0.489,0.162,0.835,0.483,1.04c0.321,0.208,0.786,0.369,1.259,0.46
	c0.447,0.086,0.898,0.171,1.35,0.265l-0.006-3.449l-0.006-3.358c0-0.17-0.074-0.343-0.225-0.521
	C284.441,250.274,284.312,250.184,284.158,250.122z"/>
<path fill="#FFFFFF" d="M225.085,322.449l2.262,2.171c0.39,0.376,0.878,0.875,0.771,1.567c-0.05,0.312-0.222,0.637-0.491,0.916
	c-0.339,0.354-0.683,0.481-0.972,0.514c-0.649,0.074-1.11-0.328-1.582-0.783l-1.282-1.229l-1.326,1.379l-0.902-0.866
	L225.085,322.449z M224.408,324.962l1.132,1.085c0.296,0.284,0.705,0.669,1.173,0.182c0.189-0.199,0.242-0.389,0.234-0.556
	c-0.021-0.229-0.156-0.356-0.54-0.726l-1.032-0.992L224.408,324.962z"/>
<path fill="#FFFFFF" d="M231.105,327.718l4.061,2.425l-0.469,0.783l-2.967-1.771l-0.586,0.98l2.871,1.715l-0.461,0.771l-2.869-1.714
	l-0.623,1.043l3.091,1.848l-0.464,0.775l-4.185-2.498L231.105,327.718z"/>
<path fill="#FFFFFF" d="M238.19,331.458l1.206,0.401l-1.305,3.925l2.672,0.89l-0.294,0.887l-3.879-1.291L238.19,331.458z"/>
<path fill="#FFFFFF" d="M245.161,333.338l1.259,0.189l-0.752,5.021l-1.259-0.188L245.161,333.338z"/>
<path fill="#FFFFFF" d="M255.911,336.997c-0.079,0.319-0.177,0.69-0.612,1.128c-0.395,0.393-1.05,0.846-2.343,0.9
	c-1.804,0.082-3.094-0.807-3.172-2.578c-0.084-1.911,1.403-2.754,3.006-2.825c0.582-0.026,2.255,0.03,2.979,1.45l-1.387,0.236
	c-0.146-0.211-0.566-0.797-1.553-0.755c-1.148,0.052-1.768,0.88-1.727,1.849c0.051,1.105,0.946,1.729,1.91,1.687
	c1.101-0.048,1.408-0.71,1.561-1.024L255.911,336.997z"/>
<path fill="#FFFFFF" d="M260.417,332.559l1.315-0.393l3.797,4.166l-1.364,0.406l-0.687-0.793l-2.494,0.742l-0.141,1.039
	l-1.328,0.395L260.417,332.559z M261.634,333.824c-0.054-0.053-0.102-0.112-0.141-0.17c-0.039-0.055-0.071-0.112-0.099-0.18
	c-0.004,0.067,0,0.127,0.002,0.187c-0.008,0.069-0.01,0.139-0.021,0.21l-0.254,1.837l1.707-0.507L261.634,333.824z"/>
<path fill="#FFFFFF" d="M266.646,330.291l1.084-0.65l3.588,1.141c0.439,0.148,0.525,0.18,1,0.355
	c-0.284-0.391-0.351-0.502-0.582-0.873l-1.336-2.228l1.041-0.625l2.613,4.353l-1.078,0.647l-3.633-1.157
	c-0.387-0.13-0.545-0.184-0.971-0.35c0.23,0.314,0.275,0.389,0.479,0.72l1.44,2.397l-1.036,0.619L266.646,330.291z"/>
<path fill="#FFFFFF" d="M277.084,327.207c0.632,0.236,1.284-0.134,1.78-0.615c0.221-0.215,0.883-0.929,0.45-1.373
	c-0.254-0.263-0.568-0.078-0.799,0.075c-0.181,0.114-1.039,0.729-1.238,0.862c-0.396,0.264-1.396,0.927-2.2,0.103
	c-0.173-0.181-0.304-0.417-0.356-0.655c-0.172-0.787,0.375-1.566,0.953-2.129c0.529-0.517,1.014-0.834,1.59-0.996
	c0.566-0.158,0.987-0.047,1.176,0.002l-0.655,1.059c-0.087-0.023-0.289-0.09-0.611,0.014c-0.356,0.116-0.692,0.402-0.868,0.572
	c-0.402,0.391-0.74,0.87-0.402,1.214c0.23,0.238,0.502,0.097,0.836-0.108c0.179-0.115,1.042-0.713,1.246-0.842
	c0.5-0.334,1.367-0.877,2.144-0.076c1.14,1.17-0.213,2.564-0.673,3.012c-0.598,0.582-1.621,1.376-2.989,0.908L277.084,327.207z"/>
<path fill="#FFFFFF" d="M245.169,302.934c0,0-18.198-6.056-10.332-25.438c0,0-19.228,0.831-45.564,11.515
	c0,0-1.848,0.774-2.926,1.16c-1.079,0.387-2.812,1.081-5.299-0.107c0,0,24.087-12.646,55.054-15.625
	c4.083-0.394,4.625,0.223,3.548,1.766C238.769,277.466,227.732,291.559,245.169,302.934z"/>
<path fill="#B2965D" d="M228.977,282.992c-15.583,2.053-30.813,7.508-30.813,7.508c2.603,4.611,9.638,2.661,9.638,2.661
	c13.198-3.761,19.087-5.04,20.975-5.409C228.702,286.282,228.761,284.695,228.977,282.992z"/>
<path fill="#B2965D" d="M229.104,290.577c-2.599,0.508-13.507,2.769-24.506,6.909c0,0,3.476,3.945,10.356,1.98
	c5.787-1.65,13.206-4.033,15.418-4.749C229.818,293.469,229.384,292.093,229.104,290.577z"/>
<path fill="#B2965D" d="M231.534,296.9c-2.349,0.765-14.102,4.595-19.062,6.512c0,0,2.855,3.812,11.069,0.562
	c5.724-2.267,8.876-3.59,10.266-4.185C232.979,298.934,232.209,297.975,231.534,296.9z"/>
<path fill="#B2965D" d="M235.625,301.447c-2.052,0.896-9.677,4.244-14.087,6.378c0,0,5.56,2.719,12.538-1.608l4.34-2.859
	C237.469,302.807,236.529,302.174,235.625,301.447z"/>
<path fill="#B2965D" d="M240.531,304.463c-1.396,0.877-7.177,4.525-10,6.617c0,0,4.801,1.975,9.714-2.667
	c1.598-1.508,2.47-2.364,2.951-2.854C242.349,305.254,241.45,304.895,240.531,304.463z"/>
<path fill="#FFFFFF" d="M256.883,302.911c0,0,18.176-6.119,10.239-25.476c0,0,19.229,0.764,45.604,11.352
	c0,0,1.852,0.768,2.932,1.148c1.08,0.385,2.812,1.071,5.298-0.127c0,0-24.132-12.561-55.108-15.427
	c-4.084-0.379-4.623,0.238-3.541,1.778C263.191,277.422,274.277,291.475,256.883,302.911z"/>
<path fill="#B2965D" d="M273.003,282.912c15.59,1.998,30.84,7.396,30.84,7.396c-2.587,4.621-9.63,2.696-9.63,2.696
	c-13.209-3.712-19.104-4.97-20.994-5.334C273.289,286.201,273.225,284.617,273.003,282.912z"/>
<path fill="#B2965D" d="M272.902,290.498c2.602,0.498,13.518,2.72,24.531,6.82c0,0-3.463,3.959-10.351,2.02
	c-5.791-1.631-13.22-3.984-15.435-4.693C272.197,293.393,272.627,292.016,272.902,290.498z"/>
<path fill="#B2965D" d="M270.496,296.831c2.352,0.755,14.117,4.543,19.083,6.442c0,0-2.839,3.821-11.063,0.602
	c-5.733-2.245-8.891-3.557-10.283-4.146C269.059,298.868,269.824,297.907,270.496,296.831z"/>
<path fill="#B2965D" d="M266.42,301.393c2.057,0.889,9.691,4.209,14.107,6.326c0,0-5.547,2.739-12.543-1.564l-4.35-2.844
	C264.581,302.757,265.52,302.121,266.42,301.393z"/>
<path fill="#B2965D" d="M261.525,304.425c1.396,0.872,7.193,4.5,10.022,6.582c0,0-4.794,1.991-9.725-2.633
	c-1.603-1.503-2.478-2.356-2.96-2.845C259.711,305.223,260.607,304.857,261.525,304.425z"/>
<g>
	<path fill="#FFFFFF" d="M265.938,313.469c0.016,8.229-6.641,14.909-14.867,14.926c-8.229,0.015-14.904-6.643-14.919-14.871
		c-0.014-8.227,6.638-14.906,14.867-14.922C259.244,298.587,265.924,305.243,265.938,313.469z"/>
</g>
<g>
	<circle fill="#B2965D" cx="251.051" cy="316.578" r="11.812"/>
</g>
<path fill="#002C5B" d="M255.749,276.593c0,0-0.12,0.505-0.429,0.507c-0.309,0-2.236-0.922-3.162-1.42
	c-0.396-0.215-0.951-0.535-1.145-0.646c0,0-0.825,0.438-1.22,0.648c-0.924,0.504-2.85,1.432-3.156,1.434
	c-0.309,0.001-0.429-0.504-0.429-0.504s-5.052,3.061-5.037,11.496c0.011,6.278,3.285,9.123,3.285,9.123l0.446,1.771l5.562-0.009
	l1.104-0.002l5.562-0.011l0.441-1.774c0,0,3.265-2.854,3.254-9.134C260.812,279.636,255.749,276.593,255.749,276.593z"/>
<path fill="#FFFFFF" d="M258.174,285.945c-0.003-2.608-1.07-4.729-2.215-5.991c0,0-0.036,0.743-1.283-0.087
	c-1.076-0.733-2.342-1.164-3.701-1.162c-1.363,0.003-2.63,0.438-3.706,1.182c-1.2,0.819-1.259,0.086-1.259,0.086
	c-1.139,1.267-2.197,3.392-2.192,5.998c0.004,2.163,0.536,3.23,0.72,3.533c1.079,2.758,3.567,4.688,6.467,4.682
	c2.864-0.006,5.32-1.902,6.409-4.615C257.479,289.48,258.18,288.439,258.174,285.945z"/>
<path fill="#002C5B" d="M253.707,291.84c-0.008-0.015-0.02-0.029-0.025-0.043c0,0-0.715-1.335,0.455-2.259
	c0,0,2.648,0.548,2.704-2.963c0,0-0.063-0.37,0.304-1.109c0,0-0.679-0.614-2.152,0.498c-1.479,1.108-2.271,4.252-3.073,3.517
	c-0.792-0.73-0.512-4.821-0.922-4.978h-0.015c-0.409,0.155-0.111,4.246-0.902,4.979c-0.799,0.74-1.607-2.4-3.085-3.506
	c-1.481-1.106-2.158-0.488-2.158-0.488c0.373,0.738,0.309,1.107,0.309,1.107c0.071,3.51,2.717,2.952,2.717,2.952
	c1.172,0.921,0.468,2.263,0.468,2.263c-0.007,0.015-0.017,0.028-0.024,0.043c-3.167-3.39-5.003-2.926-4.089,0.875
	c0.897,3.731,4.345,19.762,4.896,23.479c-0.069,3.345-0.454,4.541-0.555,4.8l-0.343,0.688l0.382,0.765
	c0.602,0.87,1.022,1.853,1.17,2.226l1.31,3.307l1.285-3.305c0.152-0.381,0.568-1.363,1.166-2.236l0.396-0.727l-0.359-0.726
	c-0.104-0.25-0.48-1.399-0.571-4.623c0.442-3.338,3.907-19.87,4.807-23.672S256.861,288.443,253.707,291.84z"/>
<g>
	<path fill="#DF1A3B" d="M248.894,308.566c-1.147-5.965-2.049-10.377-2.776-13.577c-0.554-2.445,0.915-1.47,1.711,0.059
		L248.894,308.566z"/>
	<path fill="#DF1A3B" d="M253.18,308.559c1.127-5.969,2.012-10.384,2.728-13.586c0.546-2.447-0.921-1.469-1.712,0.062
		L253.18,308.559z"/>
</g>
<path fill="#DF1A3B" d="M251.764,310.773c0.473-9.219,1.194-15.748,1.193-16.562c-0.001-0.292-0.037-0.664-0.154-1.075l-0.535,1.755
	l-0.17-3.097c-0.271-0.347-0.639-0.694-1.104-1.028h-0.026c-0.462,0.334-0.786,0.685-1.055,1.029l-0.157,3.102l-0.542-1.754
	c-0.118,0.412-0.153,0.783-0.152,1.075c0.001,0.815,0.747,7.341,1.251,16.56c0.507,9.217,0.014,10.933,0.014,10.933
	c0.666,0.957,0.735,2.661,0.735,2.661s0.119-1.707,0.779-2.666C251.844,321.704,251.292,319.992,251.764,310.773z"/>
<path fill="#002C5B" d="M251.014,297.081c-9.049,0.017-16.398,7.394-16.383,16.444c0.017,9.053,7.393,16.404,16.444,16.389
	c9.051-0.018,16.399-7.395,16.385-16.448C267.443,304.415,260.066,297.064,251.014,297.081z M264.833,310.824
	c-1.008,4.066-3.784,7.393-7.386,9.23c0.285-2.007,1.152-3.994,2.06-6.06c1.313-2.992,2.746-6.265,2.11-9.731
	C263.217,306.096,264.354,308.342,264.833,310.824z M243.817,301.458c1.833-1.104,3.938-1.8,6.187-1.966l0.04,22.086
	c-1.123-0.077-2.211-0.287-3.252-0.607c-0.121-2.73-1.25-5.281-2.35-7.767C242.613,309.078,241.035,305.489,243.817,301.458z
	 M246.673,323.057c1.085,0.299,2.216,0.483,3.375,0.553l0.006,3.897c-1.839-0.129-3.583-0.61-5.161-1.387
	C245.644,325.404,246.447,324.366,246.673,323.057z M252.078,323.605c1.16-0.073,2.29-0.264,3.375-0.564
	c0.23,1.309,1.039,2.344,1.791,3.059c-1.576,0.779-3.318,1.27-5.158,1.403L252.078,323.605z M255.328,320.932
	c-1.045,0.338-2.135,0.558-3.254,0.643l-0.039-22.085c2.249,0.157,4.355,0.846,6.193,1.942c2.797,4.021,1.23,7.615-0.582,11.748
	C256.562,315.66,255.445,318.208,255.328,320.932z M240.439,304.302c-0.624,3.472,0.822,6.736,2.145,9.726
	c0.922,2.08,1.803,4.076,2.089,6.101c-3.627-1.801-6.39-5.114-7.422-9.267C237.723,308.384,238.848,306.135,240.439,304.302z
	 M237.223,315.977c1.773,2.873,4.393,5.105,7.495,6.404c-0.011,0.094-0.019,0.186-0.033,0.278c-0.155,1.052-1.023,1.899-1.633,2.38
	C240.047,322.95,237.893,319.721,237.223,315.977z M259.08,325.008c-0.609-0.479-1.482-1.326-1.641-2.374
	c-0.016-0.092-0.023-0.186-0.033-0.276c3.093-1.307,5.705-3.545,7.467-6.42C264.216,319.678,262.074,322.911,259.08,325.008z"/>
<path fill="#B2965D" d="M286.533,175.489c-8.027,10.547-27.096,25.118-36.507,31.76c-9.412-6.642-28.479-21.212-36.506-31.76h-7.22
	c8.845,14.917,40.589,36.899,42.024,37.888l1.702,1.173l1.703-1.173c1.435-0.989,33.18-22.971,42.022-37.888H286.533z"/>
<path fill="#B2965D" d="M173.829,175.392c-2.132,11.535-6.63,25.294-15.686,35.583c-7.805,8.87-23.31,14.538-41.526,15.209v6.007
	c20.221-0.701,36.991-6.98,46.03-17.252c10.165-11.551,15.101-26.849,17.325-39.547H173.829L173.829,175.392z"/>
<path fill="#B2965D" d="M382.475,226.113c-17.591-0.911-32.49-6.502-40.09-15.138c-9.056-10.29-13.554-24.049-15.686-35.583h-6.145
	c2.225,12.698,7.159,27.996,17.325,39.547c8.822,10.026,25.021,16.237,44.594,17.18L382.475,226.113L382.475,226.113z"/>
</svg>
