<?xml version="1.0" encoding="utf-8"?>
<!-- Generator: Adobe Illustrator 16.0.0, SVG Export Plug-In . SVG Version: 6.00 Build 0)  -->
<!DOCTYPE svg PUBLIC "-//W3C//DTD SVG 1.1//EN" "http://www.w3.org/Graphics/SVG/1.1/DTD/svg11.dtd">
<svg version="1.1" id="Layer_1" xmlns="http://www.w3.org/2000/svg" xmlns:xlink="http://www.w3.org/1999/xlink" x="0px" y="0px"
	 width="500px" height="500px" viewBox="0 0 500 500" enable-background="new 0 0 500 500" xml:space="preserve">
<g id="content">
	<path fill="#004878" d="M322.303,170.167H295.41c-0.698,13.492-5.18,29.398-20.357,38.898
		c-16.75,10.685-25.026,22.685-25.026,22.685s-8.276-12-25.026-22.685c-15.178-9.5-19.659-25.406-20.357-38.898H177.75
		c-2.326,23.852-13.831,59.083-61.076,59.083c-0.046,0,0.045,0,0,0v240.83h133.352h132.812V229.25c-0.045,0,0.046,0,0,0
		C335.594,229.25,324.629,194.019,322.303,170.167z"/>
	<path fill="#00406B" d="M280.357,221.542c15.287-9.568,23.941-25.772,25.033-46.859l0.024-0.516H295.4
		c-0.695,13.493-5.17,29.396-20.352,38.898c-16.75,10.685-25.026,20.685-25.026,20.685s-8.276-10-25.026-20.685
		c-15.18-9.502-19.654-25.406-20.352-38.898h-10.014l0.027,0.516c1.09,21.086,9.746,37.29,24.96,46.813
		c14.641,9.34,22.122,11.861,22.196,11.966h16.417C258.309,233.356,265.79,230.835,280.357,221.542z"/>
	<path fill="#004E82" d="M280.357,217.542c15.287-9.568,23.941-25.772,25.033-46.859l0.024-0.516H295.4
		c-0.695,13.493-5.17,29.396-20.352,38.898c-16.75,10.685-25.026,22.685-25.026,22.685s-8.276-12-25.026-22.685
		c-15.18-9.502-19.654-25.406-20.352-38.898h-10.014l0.027,0.516c1.09,21.086,9.746,37.29,24.96,46.813
		c14.641,9.34,22.122,13.861,22.196,13.966h16.417C258.309,231.356,265.79,226.835,280.357,217.542z"/>
	<path opacity="0.2" fill="#212121" enable-background="new    " d="M310.061,209.412c-1.538,0-2.792-1.252-2.792-2.792v-14.099
		c0-1.54,1.254-2.792,2.792-2.792h4.184c1.539,0,2.792,1.252,2.792,2.793v14.098c0,1.54-1.253,2.792-2.792,2.792H310.061z"/>
	<path fill="#FFFFFF" d="M310.188,207.513c-1.443,0-2.619-1.176-2.619-2.623v-13.239c0-1.446,1.176-2.623,2.619-2.623h3.93
		c1.443,0,2.621,1.176,2.621,2.623v13.239c0,1.446-1.178,2.623-2.621,2.623H310.188z"/>
	<path fill="#C00033" d="M312.151,206.213h1.964c0.729,0,1.319-0.592,1.319-1.323v-13.239c0-0.73-0.592-1.323-1.319-1.323h-1.964"/>
	<path fill="#006CB3" d="M314.332,206.213c0,0-0.036-0.939-0.431-3.272l-1.75-1.812v-10.8h-1.964c-0.729,0-1.321,0.592-1.321,1.323
		v13.239c0,0.731,0.592,1.323,1.321,1.323h1.964L314.332,206.213L314.332,206.213z"/>
	<path opacity="0.2" fill="#212121" enable-background="new    " d="M314.679,198.18c-0.05-0.058,0.049-0.09-0.289-0.167
		c-0.062-0.035-0.11-0.529-0.11-0.529c-0.052-0.317-0.163-0.536-0.332-0.872c-0.085-0.173-0.125-0.71-0.216-0.984
		c0.051-1.255-0.353-1.62-0.678-1.824c-0.123-0.079-0.185-0.137-0.307-0.208l-0.004-0.058c-0.095-0.09-0.286-0.187-0.443-0.257
		c-0.049-0.049-0.023-0.156,0.008-0.196c0.106-0.016,0.248-0.254,0.365-0.5c0.092,0.005,0.122-0.084,0.151-0.135
		c0.099-0.157,0.204-0.294,0.065-0.384c0.311-0.552,0.111-0.924-0.057-0.938c-0.067-0.139-0.185-0.225-0.392-0.298l-0.425-0.001
		c-0.438,0.168-0.501,0.36-0.518,0.969c-0.074,0.008-0.231-0.062-0.178,0.309c0,0,0.027,0.247,0.128,0.204
		c-0.097,0.652,0.017,0.703-0.661,0.732l-0.032,0.048c-0.675,0.065-0.888-0.02-1.456,1.138c0,0-0.146,0.358-0.188,0.507
		c-0.061,0.122-0.151,0.309-0.247,0.51v1.598c0.084,0.004,0.186,0.005,0.333,0.001v0.174c0,0-0.205,0.175-0.246,0.282
		c-0.021,0.048-0.057,0.188-0.087,0.344v0.883c0.142,0.506,0.504,0.968,0.634,1.498l0.35,0.049c0.201,0.45,1.062,1.672,1.238,1.833
		c0.041,0.113,0.26,0.253,0.388,0.393c0.105,0.1,0.729,0.782,1.459,1.201c-0.004,0,0.118,0.244,0.18,0.44
		c-0.243,0.195,0.225,0.552,0.367,1.142c0.011,0.077-0.136,0.159,0.08,0.352c-0.005,0.309-0.041,0.563-0.064,0.779h0.62h0.117
		c-0.047-0.228-0.14-0.452-0.188-0.624c-0.008-0.022,0.01-0.052,0.021-0.071c0.029-0.056-0.032-0.182-0.032-0.182
		c-0.069-0.063-0.09-0.398-0.129-0.548c-0.062-0.254,0.109-0.689,0.109-0.838c0-0.146-0.109-0.349-0.314-0.609
		c-0.05-0.056-0.195-1.323-0.327-1.644c-0.187-0.442-0.242-0.373-0.455-0.898c-0.171-0.373-0.039-0.92-0.419-2.192
		c0.004,0.005,0.086-0.08,0.086-0.08s-0.302-1.102-0.4-1.404c-0.1-0.301-0.271-0.323-0.271-0.323s0.001-0.123,0.008-0.155
		c0.015-0.049,0.368-0.969,0.397-0.998c0-0.022,0.51-0.366,0.52-0.317c0.042,0.226,0.24,1.37,0.323,1.553
		c0.087,0.185,0.38,0.746,0.519,1.094c-0.527,0.127-0.92,0.603-0.92,1.17c0,0.663,0.537,1.202,1.204,1.202
		c0.507,0,0.943-0.314,1.118-0.758l0.001-0.884c-0.038-0.097-0.089-0.192-0.155-0.282
		C314.926,198.244,314.731,198.248,314.679,198.18z"/>
	<path fill="#FFFFFF" d="M314.186,206.296c-0.236-0.14-0.225-0.344-0.167-0.816c0.024-0.201,0.055-0.436,0.06-0.71
		c-0.144-0.164-0.124-0.205-0.104-0.257l0.01-0.02l0.014-0.086c-0.065-0.271-0.19-0.488-0.29-0.662
		c-0.141-0.246-0.188-0.345-0.108-0.408c-0.019-0.233-0.098-0.407-0.135-0.489c-0.677-0.44-1.222-0.994-1.427-1.202
		c-0.117-0.122-0.184-0.178-0.244-0.231c-0.082-0.071-0.175-0.151-0.193-0.201c-0.18-0.177-1.042-1.395-1.238-1.839l-0.412-0.096
		c-0.003-0.226-0.145-0.491-0.276-0.748c-0.18-0.342-0.35-0.666-0.354-1.021c-0.008-0.228,0.105-0.748,0.147-0.847
		c0.023-0.062,0.146-0.185,0.226-0.251l0.026-0.235v-0.083l-0.286,0.006c-0.313,0-0.317-0.02-0.339-0.118
		c-0.01-0.048-0.021-0.114-0.058-0.191c-0.06-0.128-0.044-0.167-0.02-0.246c0.112-0.441,0.361-0.945,0.525-1.278l0.081-0.165
		c0.047-0.158,0.192-0.511,0.192-0.511c0.496-1.015,0.694-1.031,1.227-1.075l0.2-0.018l0.054-0.079c0.032,0,0.062,0,0.091,0
		c0.461,0,0.502-0.079,0.554-0.516l0.052-0.391l-0.131,0.057c0.012-0.011-0.012-0.081-0.02-0.141
		c-0.022-0.172,0.004-0.21,0.007-0.214l0.17-0.013l0.002-0.07c0.019-0.617,0.089-0.751,0.468-0.896l0.395,0.006
		c0.163,0.062,0.264,0.137,0.319,0.253c0.089,0.046,0.129,0.071,0.162,0.134c0.07,0.135,0.083,0.398-0.104,0.73l-0.037,0.065
		l0.062,0.041c0.047,0.031,0.044,0.063-0.065,0.234l-0.102,0.139c-0.288,0.481-0.384,0.5-0.385,0.5
		c-0.106,0.096-0.138,0.248-0.055,0.331c0.229,0.107,0.376,0.193,0.445,0.259c0.086,0.107,0.134,0.143,0.185,0.179l0.14,0.095
		c0.343,0.215,0.686,0.592,0.639,1.753c0.046,0.155,0.076,0.338,0.106,0.515c0.034,0.218,0.065,0.406,0.115,0.507
		c0.176,0.344,0.278,0.553,0.325,0.849c0.053,0.532,0.12,0.569,0.152,0.587c0.198,0.048,0.229,0.072,0.231,0.076
		c0.062,0.108,0.105,0.128,0.149,0.147c0.08,0.036,0.112,0.056,0.112,0.119c0.074,0.127,0.124,0.216,0.161,0.311l-0.009,0.855
		c-0.159,0.394-0.579,0.678-1.037,0.678c-0.619,0-1.124-0.503-1.124-1.122c0-0.522,0.354-0.971,0.857-1.093l0.09-0.021l-0.033-0.086
		c-0.102-0.253-0.282-0.619-0.408-0.873l-0.111-0.226c-0.067-0.148-0.229-1.054-0.292-1.395l-0.037-0.205l-0.074-0.005
		c-0.022,0-0.067,0-0.323,0.167c-0.269,0.174-0.269,0.195-0.269,0.236l0,0c-0.031,0-0.392,0.966-0.395,0.975
		c-0.011,0.042-0.013,0.177-0.013,0.177l-0.001,0.072l0.071,0.008c0.003,0,0.126,0.026,0.206,0.268c0.099,0.301,0.399,1.4,0.399,1.4
		h-0.107l0.021,0.082c0.219,0.729,0.267,1.217,0.301,1.573c0.024,0.267,0.045,0.46,0.123,0.629c0.111,0.282,0.185,0.396,0.254,0.507
		c0.058,0.094,0.114,0.187,0.199,0.389c0.072,0.18,0.156,0.705,0.22,1.088c0.075,0.472,0.091,0.542,0.121,0.578
		c0.195,0.249,0.297,0.437,0.297,0.557c0,0.042-0.021,0.13-0.044,0.223c-0.049,0.201-0.11,0.45-0.065,0.634
		c0.016,0.05,0.024,0.12,0.035,0.193c0.032,0.208,0.056,0.338,0.118,0.395c0.003,0.018,0.019,0.072,0.015,0.089l-0.017,0.031
		l-0.007,0.1c0.017,0.058,0.04,0.127,0.063,0.201c0.134,0.385,0.297,0.862-0.13,1.132L314.186,206.296z"/>
	<g>
		<path fill="#CC1645" d="M116.674,230.75v-3c20.429,0,36.034-6.732,46.23-20.011c9.159-11.926,12.316-27.094,13.352-37.718
			l2.986,0.291C177.042,192.884,165.92,230.75,116.674,230.75z"/>
	</g>
	<path fill="none" stroke="#CC1645" stroke-width="3" stroke-miterlimit="10" d="M295.404,170.167
		c-0.697,13.493-5.172,29.396-20.354,38.898c-16.75,10.685-25.026,22.685-25.026,22.685s-8.276-12-25.026-22.685
		c-15.18-9.502-19.654-25.406-20.352-38.898"/>
	<path opacity="0.2" fill="#212121" enable-background="new    " d="M249.977,347.104c-16.142-0.293-30.87-9.348-38.551-23.393
		c-0.391,0.104-0.786,0.209-1.18,0.318l-8.039,2.244v-18.879c-0.576-0.492-1.078-1.062-1.483-1.688
		c-0.88-1.427-1.316-2.89-1.344-4.422l-0.001-0.158c0-3.312,2.137-5.399,2.792-5.961l0.881-0.774l2.666-0.762l1.15-0.316
		c1.962-9.541,6.988-18.228,14.361-24.724c8.198-7.231,18.699-11.214,29.567-11.214c0.271,0,0.543,0.001,0.813,0.007
		c11.969,0.22,23.146,5.095,31.47,13.728c5.843,6.061,9.798,13.468,11.55,21.578c1.262,0.338,2.319,0.637,3.16,0.889l0.325,0.099
		l0.429,0.148l3.859,1.237l0.197,6.178c0,1.095-0.354,2.713-1.285,4.195c0.104,0.422,0.176,0.854,0.207,1.291l0.041,0.731
		l0.043,3.608v0.668l-0.02,3.957l-0.021,0.394c-0.095,1.017-0.381,2.003-0.83,2.856c-1.539,2.977-4.481,4.699-8.057,4.699l0,0
		c-0.748,0-1.533-0.076-2.346-0.227c-2.2,4.113-5.018,7.842-8.406,11.111c-8.42,8.115-19.468,12.586-31.109,12.586
		C250.538,347.111,250.257,347.109,249.977,347.104z"/>
	<path fill="#FFFFFF" d="M249.977,340.982c-16.142-0.295-30.87-9.351-38.551-23.395c-0.391,0.104-0.786,0.208-1.18,0.318
		l-8.039,2.244V301.27c-0.576-0.492-1.078-1.061-1.483-1.688c-0.88-1.428-1.316-2.889-1.344-4.422l-0.001-0.158
		c0-3.311,2.137-5.396,2.792-5.96l0.881-0.774l2.666-0.762l1.15-0.316c1.962-9.539,6.988-18.228,14.361-24.725
		c8.198-7.23,18.699-11.214,29.567-11.214c0.271,0,0.543,0.002,0.813,0.008c11.969,0.22,23.146,5.095,31.47,13.728
		c5.843,6.061,9.798,13.468,11.55,21.578c1.262,0.338,2.319,0.637,3.16,0.889l0.325,0.098l0.429,0.149l3.859,1.239l0.197,6.176
		c0,1.095-0.354,2.713-1.285,4.195c0.104,0.422,0.176,0.853,0.207,1.291l0.041,0.731l0.043,3.606v0.668l-0.02,3.957l-0.021,0.396
		c-0.095,1.017-0.381,2.003-0.83,2.854c-1.539,2.979-4.481,4.701-8.057,4.701l0,0c-0.748,0-1.533-0.076-2.346-0.227
		c-2.2,4.115-5.018,7.841-8.406,11.113c-8.42,8.115-19.468,12.584-31.109,12.584C250.538,340.991,250.257,340.988,249.977,340.982z"
		/>
	<path fill="none" d="M215.486,305.285c0,0.009,0,0.017,0,0.023c4.088,15.301,18.045,26.926,34.646,27.226
		C233.604,332.234,219.645,320.486,215.486,305.285z"/>
	
		<line fill="none" stroke="#CC1645" stroke-width="3" stroke-linecap="round" stroke-linejoin="round" stroke-miterlimit="10" x1="239.242" y1="233.134" x2="260.811" y2="233.134"/>
	<g>
		<path fill="#CC1645" d="M382.839,230.75c-49.246,0-59.828-37.866-62.029-60.438l2.986-0.291
			c1.036,10.624,4.193,25.792,13.354,37.718c10.195,13.278,25.262,20.011,45.689,20.011V230.75z"/>
	</g>
	<g id="Layer_2">
		<path fill="#00295C" d="M215.479,310.961c0,0,0-0.003,0-0.009c0-0.08,0-0.658,0-1.464c-2.048,0.479-4.075,0.975-6.124,1.556
			c0,0,0-13.712,0-14.985c-1.501,0.238-2.166-0.338-2.45-0.783c-0.135-0.229-0.342-0.771-0.351-1.311
			c0.009-0.312,0.078-0.604,0.263-0.838c0.088-0.104,0.147-0.193,0.246-0.303c1.478-0.43,2.931-0.833,4.379-1.215
			c-1.764,0.449-3.563,0.979-5.45,1.518l-0.252,0.072c0,0-0.911,0.794-0.883,1.854v0.045c0.014,0.668,0.258,1.174,0.482,1.535
			c0.31,0.48,0.993,1.168,2.346,1.23c0,1.589,0,15.074,0,15.074l1.09-0.307c1.907-0.531,3.827-0.988,5.642-1.414
			c0.169-0.037,0.342-0.078,0.51-0.117L215.479,310.961z"/>
		<path fill="#00295C" d="M218.252,302.898c1.82-0.4,3.168-1.295,3.952-2.568c0.002,2.375,0.007,4.781,0.023,7.2
			c0,0.368,0.003,0.733,0.005,1.104l0.008,0.738l0.001,0.271l0.279-0.047l0.715-0.125c0.417-0.07,0.818-0.137,1.212-0.201
			c1.746-0.289,3.288-0.528,4.769-0.737l0.737-0.106v-1.686c-1.981,0.287-3.906,0.604-5.886,0.943
			c-0.05-6.346-0.021-12.438-0.032-18.783c-0.36,0.062-0.73,0.123-1.12,0.193l-0.712,0.122v1.347
			c0.634,0.953,0.613,2.703,0.613,5.356c0,0.119-0.009,0.229-0.009,0.347c0,0.103,0,0.186,0,0.275
			c-0.021,2.461-1.482,4.098-4.014,4.66c-1.112,0.238-2.185,0.48-3.307,0.747c0,0.521,0,1.036,0,1.55
			c0.72-0.158,2.219-0.48,2.64-0.572C218.205,302.908,218.252,302.898,218.252,302.898z"/>
		<path fill="#E91A4F" d="M240.016,299.141l1.948,1.264c1.063,1.354,2.078,2.695,3.004,4.021c0-0.078,0.931,0.801,0.931,0.721
			c0-3.984-0.336-12.431-0.336-13.537c-0.896,0.037-2.641-0.338-2.641-0.338s-3.457,0.244-4.534,0.338
			C238.388,291.609,240.016,297.434,240.016,299.141z"/>
		<path fill="#00295C" d="M236.188,289.703v2.845h2.416c0.386-0.034,0.683-0.062,0.683-0.062c1.077-0.094,1.942-0.504,2.592-1.211
			v1.146c0,0,2.2-0.091,3.096-0.128c0,1.129,0,8.188,0,12.136c0,1.065,0,1.903,0,2.336c0,0.209,0,0.324,0,0.324l0.204-0.005
			l1.516-0.019l6.542-0.073c0,0,0-13.679,0-14.979c0.606-0.148,0.777-0.396,1.229-0.746l0.021-0.02
			c0.062-0.053,0.117-0.104,0.174-0.156c-0.057,0.342-0.081,0.697-0.088,1.072v10.443c0.021,2.73,1.693,3.949,3.56,4.527
			c0.423,0.127,0.853,0.227,1.276,0.299c0.826,0.149,1.632,0.213,2.287,0.262c3.41,0.218,5.611-0.242,6.94-1.45
			c0.257-0.231,0.472-0.495,0.653-0.774v0.123v2.153l0.523,0.065l0.229,0.025c2.091,0.26,4.014,0.528,5.886,0.825l0.995,0.161
			l0.965,0.173c0.555,0.095,1.09,0.188,1.61,0.283c0.537,0.099,1.062,0.196,1.583,0.294c0.264,0.051,0.525,0.102,0.788,0.154
			c0.599,0.117,1.192,0.234,1.782,0.359l0.723,0.151l0.316,0.063v-0.841v-10.983c0.535,1.123,1.324,1.949,2.193,2.588
			c0.508,0.381,1.042,0.693,1.566,0.975c0.01,0.576,0.014,1.546,0.014,2.473c0,0.494,0,1.066-0.003,1.469
			c0.524,0.119,1.06,0.246,1.612,0.383c0-1.094,0.02-4.917-0.031-5.481c0-0.02-0.046-0.026-0.066-0.036
			c-0.041-0.021-0.098-0.048-0.136-0.064c-1.397-0.717-3.058-1.738-3.817-3.704c-0.186-0.481-0.211-1.25-0.226-2.05
			c-0.021-1.113,0.175-2.715,0.175-2.852c0.284-1.244,1.409-1.803,3.154-1.389c-0.062-0.018-0.469-0.121-0.516-0.137l-0.004-0.006
			c-0.675-0.168-1.283-0.213-1.822-0.146c-0.463,0.057-0.877,0.189-1.233,0.419c-0.364,0.229-0.657,0.545-0.864,0.931v-2.005
			l-0.111-0.021c0,6.381,0,12.475,0,18.861c-1.914-0.408-3.771-0.767-5.738-1.11c0,0-1.062-2.604-1.952-4.772
			c0,1.512,0,2.932,0,4.436c-1.95-0.318-3.896-0.592-5.856-0.838c0-6.363,0-12.42,0-18.771c0-0.008,0-0.012,0-0.02
			c0.229-0.008,0.674-0.01,0.674-0.01c0.162-0.007,0.337-0.006,0.523,0.008c-0.525-0.082-1.012-0.11-1.427-0.103l-1.521,0.052v1.428
			c0.324,0.621,0.515,1.414,0.521,2.438v10.535c0,0-0.011,0.437-0.011,0.444c-0.012,0.938-0.346,1.715-0.983,2.311
			c-1.118,1.034-3.153,1.439-6.235,1.242c-2.483-0.193-6.238-0.484-6.271-4.273v-10.541c0.021-2.264,1.013-3.676,3.021-4.285
			c-0.008,0.002-0.022,0.002-0.034,0.006c-0.284,0.048-0.552,0.106-0.81,0.178c-0.455,0.12-0.869,0.273-1.242,0.466
			c-0.49,0.247-0.918,0.547-1.273,0.905c-0.156,0.383-0.409,0.785-0.82,1.138c-0.52,0.41-1.164,0.64-1.916,0.711
			c0,5.062,0,9.904,0,14.978c-2.061-0.019-4.05,0-6.11,0.07c0-5.05,0-9.894,0-14.938c-1.073,0.028-2.029,0.073-3.066,0.128
			c0-1.346,0-2.631,0-3.967c0.313-0.019,0.621-0.031,0.929-0.045c-0.706,0.022-1.413,0.053-2.128,0.088L236.188,289.703z"/>
		<path fill="#00295C" d="M296.109,308.793c0,0-0.021,0.273-0.127,0.477c-0.614,1.186-1.924,1.58-3.992,1.14
			c0.012,0-0.008-0.009-0.008-0.009c-1.961-0.512-3.74-0.947-5.703-1.387c0-1.197,0-2.334,0-3.531l-0.24-0.056l-1.354-0.319
			l-0.002,0.976v3.378v0.852l0.666,0.147c0.691,0.156,1.338,0.304,1.967,0.452c1.191,0.283,2.338,0.57,3.679,0.921l0.016,0.004
			l0.026,0.015c3.035,0.653,4.291-0.498,4.85-1.576c0.176-0.33,0.213-0.698,0.223-0.807l0.002-0.029l0.01-1.293l0.012-2.535
			c0-0.125,0-0.271-0.002-0.434c-0.003,1.477-0.021,2.887-0.021,3.596C296.109,308.785,296.109,308.793,296.109,308.793z"/>
		<path fill="#00295C" d="M230.212,303.105l0.021,0.701l0.024,4.598l1.061-0.129c1.77-0.229,3.516-0.418,5.658-0.615l0.044-0.001
			c3.272-0.431,4.93-2.043,4.93-4.802l0.003-0.348l0.008-1.729l0.003-0.377l0.007-1.125c0-1.707-0.011-2.641-0.037-3.188
			c0.007,0.572,0.011,1.316,0.011,2.258c0,1.014-0.02,2.17-0.02,3.579c0,2.796-1.881,3.605-4.107,3.861c0.008-0.002-0.011,0-0.011,0
			c-1.963,0.183-3.777,0.375-5.689,0.614c0-1.189-0.021-2.35-0.021-3.529c0.023-0.005,0.044-0.006,0.067-0.006
			C231.175,302.986,230.214,303.105,230.212,303.105L230.212,303.105z"/>
		<path fill="#00295C" d="M276.962,288.792c0,0.291,0,0.681,0,0.966c0.621,0.645,1.161,1.467,1.538,2.503
			c0.041,0.146,0.091,0.263,0.13,0.421c0-1.354,0-2.646,0-3.99c-0.103-0.019-0.202-0.034-0.299-0.053
			c-0.612-0.109-1.075-0.193-1.269-0.226c-0.064-0.011-0.103-0.017-0.103-0.017S276.962,288.562,276.962,288.792z"/>
		<path fill="#00295C" d="M297.098,294.312v-0.047c0,0.072,0.002,0.144,0.002,0.215c0,0.021-0.147,0.691-0.531,1.076
			c-0.506,0.602-1.276,0.764-2.264,0.487c-0.976-0.262-1.945-0.517-2.921-0.78c0,0.146,0,0.271,0,0.42
			c0,0.611,0.478,1.075,1.265,1.653c0.34,0.09,0.648,0.172,0.648,0.172c1.738,0.483,2.689-0.262,3.109-0.754
			c-0.014,0.019-0.025,0.031-0.043,0.047l0.047-0.053c-0.002,0.004-0.002,0.004-0.004,0.006c0.002-0.002,0.002-0.004,0.004-0.007
			c0.539-0.581,0.712-1.436,0.712-1.635L297.098,294.312z"/>
		<path fill="#00295C" d="M230.06,295.885c0.883,1.967,2.72,2.541,3.946,2.791c0.003,0.926,0.016,3.266,0.019,3.954v0.002
			c0.614-0.071,1.232-0.14,1.87-0.211c0-1.848-0.029-3.612-0.029-5.461c-0.018,0-0.069,0-0.069-0.021
			c-0.048-0.008-0.088-0.019-0.137-0.019c-1.396-0.235-3.055-0.657-3.815-2.351c-0.187-0.42-0.225-1.165-0.225-1.984
			c0-1.084,0.078-2.204,0.126-2.541c0,0.028,0,0.046,0,0.066c0-0.147,0.05-0.283,0.05-0.422c0.242-1.141,1.078-1.94,2.346-2.297
			c0.005,0,0.01,0,0.014-0.002c0.244-0.065,0.502-0.119,0.778-0.152l0.066-0.016c-0.554,0.065-1.613,0.145-2.394,0.344
			c-0.172,0.047-0.329,0.095-0.465,0.152c-0.414,0.174-0.762,0.43-1.068,0.711c-0.51,0.478-0.875,1.067-1.066,1.768
			c0,1.863,0,3.711,0,5.555C230.026,295.796,230.043,295.841,230.06,295.885z"/>
		<path fill="#004E82" d="M215.418,298.479c0-1.346,0-2.64,0-3.996c0.087-0.026,0.176-0.037,0.273-0.063
			c0.186-0.024,0.381-0.062,0.567-0.106c0.233-0.037,0.282,0.012,0.378,0.228c0,0.119,0.02,3.194,0.02,3.66
			C216.237,298.287,215.836,298.378,215.418,298.479z"/>
		<path fill="#004878" d="M288.445,302.043c-0.524-0.279-1.059-0.594-1.566-0.975c-0.197,1.445-0.479,2.975-0.84,4.356l0.24,0.056
			c0-0.002,0-0.006,0-0.011c0.75,0.181,1.459,0.343,2.177,0.513c0.003-0.4,0.003-0.975,0.003-1.469
			C288.459,303.589,288.455,302.619,288.445,302.043z"/>
		<path fill="#004E82" d="M291.384,295.684c0-0.146,0-0.271,0-0.42c0.976,0.269,1.945,0.521,2.921,0.782
			c0.985,0.274,1.758,0.112,2.264-0.489c0.384-0.383,0.531-1.055,0.531-1.074c0-0.071-0.002-0.143-0.002-0.215
			c-0.006-0.115-0.008-0.232-0.013-0.352c-0.017-0.312-0.03-0.627-0.032-0.938c0-0.002,0-0.006,0-0.012
			c-0.076-0.021-0.152-0.042-0.223-0.064c-0.182-0.061-0.357-0.121-0.534-0.176c-0.024-0.011-0.054-0.019-0.077-0.026
			c-1.922-0.576-4.713-1.298-6.148-1.666c-0.523-0.134-0.865-0.22-0.93-0.233c0.008,0,0.017,0,0.021,0c0.002,0,0.007,0,0.008,0
			c-0.016-0.004-0.029-0.007-0.047-0.012c-1.745-0.414-2.87,0.145-3.152,1.389c0,0.137-0.195,1.736-0.177,2.853
			c0.015,0.799,0.04,1.563,0.228,2.049c0.761,1.966,2.418,2.987,3.815,3.704c0.038,0.02,0.097,0.046,0.138,0.064
			c0.021,0.01,0.064,0.019,0.064,0.037c0.051,0.563,0.031,4.387,0.031,5.48c-0.555-0.137-1.088-0.264-1.612-0.383
			c-0.718-0.17-1.427-0.332-2.176-0.512c0,0.004,0,0.008,0,0.01s0,0.002,0,0.002c0,1.197,0,2.332,0,3.531
			c1.962,0.438,3.739,0.875,5.7,1.385c0,0,0.021,0.009,0.01,0.009c2.066,0.442,3.378,0.046,3.99-1.138
			c0.105-0.203,0.129-0.479,0.129-0.479s0-0.008,0-0.021c0-0.709,0.017-2.119,0.02-3.597c0-0.06,0-0.114,0-0.177
			c0-1.363-0.012-2.675-0.04-3.479c-0.005-0.07-0.006-0.146-0.01-0.207c-0.006-0.117-0.013-0.219-0.019-0.301
			c-0.049-0.654-0.394-1.259-1.047-1.896c-0.234-0.229-0.47-0.446-0.847-0.703c-0.235-0.183-0.519-0.353-0.754-0.533
			c-0.028-0.021-0.086-0.055-0.118-0.084c-0.232-0.163-0.449-0.312-0.648-0.457C291.859,296.761,291.384,296.297,291.384,295.684z"
			/>
		<path fill="#FFFFFF" d="M290.547,295.475c0-0.49,0-0.746,0-1.138c1.26,0.317,2.498,0.646,3.758,0.993
			c0.799,0.218,1.219-0.028,1.551-0.348c0.234-0.327,0.381-0.691,0.381-0.801c0-0.248-0.03-0.492-0.03-0.729
			c-1.491-0.438-6.983-1.876-7.036-1.876c-1.312-0.327-2.134-0.045-2.377,0.92c-0.038,0.173-0.041,0.271-0.041,0.271
			c0,0.045-0.293,3.24,0.059,4.242c0.567,1.512,1.728,2.352,3.27,3.143c0.089,0.059,0.266,0.127,0.398,0.21
			c0.146,0.101,0.308,0.219,0.401,0.38c0,2.216,0.03,4.336,0.03,6.549c-1.26-0.328-2.529-0.619-3.79-0.911c0,0.711,0,1.396,0,2.104
			c1.63,0.383,3.209,0.746,4.843,1.188c1.77,0.486,2.752,0.187,3.223-0.858c0.096-0.14,0.088-0.258,0.088-0.258
			c0-0.512,0.041-6.432-0.037-7.73c-0.051-0.482-0.314-0.872-0.734-1.291c-0.232-0.208-0.486-0.4-0.723-0.602
			c-0.28-0.203-0.566-0.4-0.848-0.584C291.807,297.566,290.547,296.729,290.547,295.475z"/>
		<path fill="#004E82" d="M284.089,289.701c-1.834-0.385-3.612-0.73-5.459-1.047c0,0.014,0,0.025,0,0.037c0,1.344,0,2.634,0,3.988
			c-0.039-0.156-0.089-0.273-0.13-0.421c-0.377-1.036-0.917-1.858-1.538-2.503c-0.071-0.072-0.144-0.145-0.216-0.214
			c-1.439-1.369-3.252-1.858-4.525-1.938c-0.187-0.013-0.361-0.014-0.523-0.008c0,0-0.44,0.002-0.674,0.01c0,0.009,0,0.013,0,0.021
			c0,6.354,0,12.408,0,18.771c1.965,0.246,3.906,0.521,5.858,0.84c0-1.504,0-2.924,0-4.436c0.89,2.168,1.952,4.771,1.952,4.771
			c1.969,0.346,3.824,0.701,5.738,1.109c0-6.388,0-12.479,0-18.861c0-0.01,0-0.019,0-0.023
			C284.41,289.768,284.252,289.734,284.089,289.701z"/>
		<path fill="#FFFFFF" d="M283.732,307.794c-1.443-0.302-2.823-0.573-4.312-0.837c-1.123-2.797-2.245-5.454-3.369-8.225
			c0,2.578,0,5.063,0,7.647c-1.443-0.215-2.74-0.407-4.195-0.603c0-5.907,0.012-11.555,0.012-17.461c0,0,4.271-0.185,5.822,4.008
			c0.521,1.521,0.979,2.976,1.438,4.484c0.146,0.373,0.205,0.721,0.343,1.084c0-2.822,0-5.535,0-8.375
			c1.439,0.262,2.809,0.525,4.264,0.825C283.732,296.25,283.732,301.884,283.732,307.794z"/>
		<path fill="#004E82" d="M263.4,286.586h-0.008c-1.377-0.096-2.316-0.078-3.146,0.055c-0.332,0.061-0.644,0.129-0.937,0.215
			c-2.008,0.61-3,2.022-3.019,4.287v10.539c0.03,3.791,3.785,4.08,6.269,4.274c3.084,0.196,5.119-0.208,6.236-1.242
			c0.641-0.596,0.975-1.372,0.984-2.31c0-0.01,0.011-0.445,0.011-0.445v-10.535c-0.008-1.025-0.198-1.818-0.522-2.438
			C268.236,286.973,265.789,286.775,263.4,286.586z"/>
		<path fill="#FFFFFF" d="M263.334,287.443c-1.172-0.08-2.107-0.088-2.947,0.045c-1.924,0.32-3.211,1.22-3.229,3.66
			c0,3.565,0,6.976,0,10.533c0.02,2.605,2.06,3.15,5.476,3.416c3.517,0.228,6.269-0.302,6.296-2.703
			c0-0.146,0.012-0.293,0.012-0.438c0-3.562,0-6.967,0-10.535C268.906,287.925,266.564,287.7,263.334,287.443z M264.532,300.428
			c0,0.219-0.017,0.43-0.017,0.646c-0.05,0.226-0.05,0.429-0.101,0.654c-0.049,0.047-0.09,0.072-0.146,0.109
			c-0.322,0.023-0.612,0-0.891-0.01c-1.745-0.146-1.766-1.067-1.727-2.061c0-2.531,0-4.94,0-7.474c0-0.319-0.03-0.72,0.02-1.112
			c0-0.41,0.061-0.791,0.156-1.146c0.061-0.026,0.098-0.063,0.146-0.106c0.274-0.011,0.528-0.027,0.799,0.008
			c1.75,0.153,1.758,0.641,1.758,3.098C264.532,295.537,264.532,297.925,264.532,300.428z"/>
		<path fill="#00295C" d="M263.676,300.428c0,0-0.015,0.449-0.016,0.551c-0.01,0-0.051,0-0.051,0s-0.121-0.006-0.166-0.006
			c-0.812-0.068-0.939-0.212-0.939-0.777c0-0.112,0.003-0.238,0.012-0.389v-0.035v-7.474l-0.007-0.288
			c-0.002-0.1-0.002-0.201-0.002-0.3c0-0.144,0.002-0.283,0.021-0.415l0.008-0.057v-0.053c0-0.135,0.011-0.268,0.025-0.402
			c0.035,0.002,0.071,0.002,0.104,0.006l0.021,0.004l0.02,0.001c0.352,0.03,0.781,0.093,0.841,0.21
			c0.134,0.271,0.134,1.086,0.134,2.031v7.393H263.676L263.676,300.428z"/>
		<path fill="#004E82" d="M256.195,287.07c0-0.235,0-0.454-0.051-0.682c-0.231,0-0.504-0.021-0.789-0.021
			c-3.523-0.076-6.895-0.04-10.384,0.111c-0.308,0.015-0.616,0.027-0.929,0.045c0,1.336,0,2.621,0,3.968
			c1.037-0.056,1.993-0.101,3.066-0.128c0,5.047,0,9.891,0,14.938c2.06-0.07,4.05-0.088,6.11-0.07c0-5.07,0-9.914,0-14.977
			c0.751-0.072,1.396-0.301,1.916-0.711c0.411-0.352,0.664-0.755,0.82-1.138c0.212-0.519,0.241-0.99,0.241-1.22
			C256.195,287.154,256.195,287.107,256.195,287.07z"/>
		<path fill="#FFFFFF" d="M252.379,289.557c0,5.062,0,9.889,0,14.961c-1.49-0.02-2.938,0-4.43,0.043c0-5.049,0-9.888,0-14.938
			c-1.026,0.025-1.994,0.055-3.066,0.107c0-0.856,0-1.678,0-2.521c3.545-0.172,6.922-0.2,10.473-0.118
			C255.355,287.089,255.602,289.718,252.379,289.557z"/>
		<path fill="#004E82" d="M242.212,286.609c-0.046,0.002-0.091,0.004-0.139,0.007c-2.752,0.173-6.178,0.5-6.9,0.591
			c-0.058,0.009-0.127,0.027-0.196,0.027c-0.014,0.002-0.028,0.004-0.043,0.006c-0.275,0.035-0.534,0.087-0.778,0.152
			c-0.004,0.004-0.009,0.004-0.014,0.004c-1.269,0.354-2.104,1.156-2.346,2.295c0,0.139-0.05,0.272-0.05,0.423
			c0-0.021,0-0.039,0-0.067c-0.048,0.338-0.126,1.457-0.126,2.541c0,0.819,0.038,1.566,0.225,1.985
			c0.76,1.69,2.419,2.112,3.815,2.35c0.048,0,0.089,0.011,0.137,0.017c0,0.021,0.051,0.021,0.069,0.021c0-0.001,0-0.001,0-0.001
			c0.007,0,0.005,0,0,0.001c0,1.848,0.029,3.613,0.029,5.461c-0.637,0.071-1.256,0.141-1.87,0.211
			c-0.607,0.071-1.209,0.146-1.817,0.23c-0.015,0.002-0.03,0.004-0.043,0.009c-0.023,0-0.044,0.001-0.067,0.006
			c0,1.183,0.021,2.341,0.021,3.531c1.912-0.241,3.726-0.435,5.689-0.616c0,0,0.019-0.002,0.011,0
			c2.226-0.256,4.107-1.066,4.107-3.861c0-1.41,0.02-2.565,0.02-3.58c0-0.938-0.003-1.685-0.011-2.256
			c-0.007-0.514-0.019-0.888-0.038-1.129c-0.059-0.639-0.4-1.119-1.053-1.529c-0.225-0.147-0.47-0.273-0.85-0.412
			c-0.235-0.098-0.498-0.18-0.78-0.271c-0.039-0.009-0.086,0-0.086-0.021c-0.189-0.065-0.365-0.127-0.529-0.185
			c-0.861-0.312-1.377-0.608-1.386-1.268c0-0.138,0-0.272,0-0.409c0.986-0.102,1.943-0.186,2.917-0.257
			c1.035-0.091,1.796-0.536,2.314-1.351c0.331-0.535,0.451-1.016,0.451-1.153c0,0,0.006-0.011,0.006-0.019c0-0.01,0-0.01,0-0.027
			c0-0.127,0.021-0.254,0.021-0.398s-0.021-0.283-0.021-0.438c0-0.229-0.059-0.431-0.059-0.657c0,0-0.003,0-0.008,0
			C242.608,286.586,242.42,286.602,242.212,286.609z"/>
		<path fill="#FFFFFF" d="M242.063,288.062c0,0-0.068,0.444-0.351,0.893c-0.324,0.464-0.732,0.857-1.583,0.938
			c-1.259,0.104-2.487,0.199-3.758,0.338c0,0.391,0,0.756,0,1.127c0.06,1.268,1.22,1.666,2.383,2.043
			c0.283,0.091,0.566,0.181,0.847,0.289c0.275,0.093,0.49,0.218,0.724,0.334c0.42,0.277,0.682,0.565,0.732,1.05
			c0.089,1.312,0.039,7.157,0.031,7.168c0,0.127-0.056,0.771-0.168,1.032c-0.511,1.195-1.68,1.568-3.132,1.772
			c-1.678,0.136-3.2,0.333-4.841,0.544c0-0.711-0.011-1.402-0.011-2.105c1.31-0.172,2.537-0.307,3.796-0.428
			c0-2.209-0.028-4.312-0.028-6.524c-0.088-0.153-0.255-0.211-0.391-0.255c-0.146-0.036-0.312-0.047-0.411-0.063
			c-1.539-0.247-2.694-0.676-3.269-1.985c-0.352-0.883-0.048-4.181-0.048-4.226c0,0-0.02-0.118,0.027-0.291
			c0.247-1.046,1.076-1.63,2.383-1.756c0.058-0.037,0.137-0.021,0.195-0.037c0.897-0.108,5.604-0.509,6.872-0.582
			C242.112,287.51,242.112,287.779,242.063,288.062z"/>
		<path fill="#004E82" d="M230.008,295.754c0-1.844,0-3.689,0-5.555c0-0.78,0-1.566,0-2.354c-0.272,0.045-0.556,0.078-0.836,0.129
			c-1.731,0.252-3.399,0.533-5.137,0.846c0,0.025,0,0.053,0,0.08c0.01,6.344-0.018,12.438,0.032,18.783
			c1.98-0.342,3.905-0.656,5.886-0.945c0.02-0.004,0.038-0.008,0.055-0.008C230.008,303.016,230.008,299.393,230.008,295.754z"/>
		<path fill="#FFFFFF" d="M229.172,306.139c-1.447,0.217-2.822,0.426-4.277,0.682c0-5.899-0.019-11.535-0.019-17.438
			c1.455-0.264,2.849-0.472,4.296-0.689C229.172,294.59,229.172,300.236,229.172,306.139z"/>
		<path fill="#004E82" d="M206.817,293.127c-0.185,0.234-0.253,0.525-0.263,0.838c0.009,0.537,0.216,1.082,0.351,1.311
			c0.284,0.445,0.948,1.021,2.45,0.783c0,1.273,0,14.985,0,14.985c2.049-0.581,4.075-1.075,6.124-1.556c0.002,0,0.004,0,0.007,0
			c0-1.414,0-2.795,0-4.18c0-0.009,0-0.017,0-0.023c0-0.365,0-0.732,0-1.098c0-0.231,0-0.463,0-0.689c0-0.514,0-1.029,0-1.55
			c1.122-0.267,2.195-0.509,3.307-0.747c2.531-0.562,3.993-2.199,4.014-4.66c0-0.092,0-0.175,0-0.275
			c0-0.117,0.009-0.228,0.009-0.347c0-2.653,0.021-4.403-0.613-5.356c-0.029-0.045-0.062-0.088-0.094-0.129
			c-0.007-0.008-0.014-0.014-0.022-0.021c-0.027-0.033-0.055-0.066-0.084-0.1c-0.005-0.006-0.009-0.008-0.014-0.014
			c-0.034-0.035-0.067-0.066-0.103-0.097c0,0,0,0-0.002,0c-0.504-0.437-1.284-0.585-2.482-0.472
			c-0.031,0.004-0.118,0.02-0.176,0.025c-0.012,0.004-0.023,0.004-0.032,0.004c-0.013,0.004-0.025,0.006-0.029,0.006
			c-0.098,0.021-0.195,0.041-0.296,0.062c-0.025,0.005-0.049,0.011-0.075,0.018c-0.385,0.084-0.766,0.168-1.147,0.252
			c-0.074,0.017-0.146,0.029-0.22,0.049c-0.568,0.125-1.131,0.256-1.693,0.389c-0.219,0.053-0.437,0.107-0.659,0.158
			c-0.066,0.017-0.135,0.033-0.202,0.048c-0.529,0.129-1.056,0.259-1.584,0.392c-0.533,0.135-1.067,0.271-1.602,0.412
			c-0.083,0.021-0.163,0.042-0.244,0.064c-1.448,0.382-2.901,0.785-4.379,1.215C206.965,292.934,206.906,293.023,206.817,293.127z"
			/>
		<path fill="#FFFFFF" d="M219.165,290.477c-3.972,0.855-7.779,1.82-11.741,2.967c0,0-0.459,2.64,2.763,1.703
			c0,5.053-0.04,9.903,0.009,14.951c1.494-0.402,2.958-0.785,4.451-1.131c0-2.548,0-4.99,0-7.54
			c1.405-0.336,2.752-0.638,4.147-0.946c1.923-0.426,3.163-1.621,3.174-3.775c0-0.092,0-0.174,0-0.273
			c0-0.115,0.008-0.234,0.008-0.373C221.976,291.004,221.801,290.213,219.165,290.477z M217.476,298.425
			c0,0.091-0.03,0.199-0.03,0.281c-0.184,0.058-0.359,0.101-0.546,0.153c-0.79,0.176-1.522,0.349-2.323,0.547
			c0-1.848,0-3.613,0-5.453c0.332-0.081,0.655-0.163,0.976-0.217c0.333-0.084,0.575-0.139,0.81-0.164
			c0.654-0.074,0.937,0.203,1.083,0.599c0.04,0.192,0.047,0.392,0.047,0.613c0,0.208,0.014,0.401,0.014,0.6
			C217.507,295.384,217.519,297.497,217.476,298.425z"/>
		<path fill="#00295C" d="M216.258,294.309c-0.186,0.047-0.381,0.084-0.567,0.108c-0.097,0.028-0.186,0.037-0.273,0.063
			c0,1.356,0,2.65,0,3.996c0.418-0.101,0.819-0.189,1.238-0.281c0-0.465-0.02-3.541-0.02-3.659
			C216.54,294.32,216.491,294.271,216.258,294.309z"/>
		<path fill="#E91A4F" d="M241.951,302.857c0,2.759-1.658,4.371-4.93,4.802l-0.044,0.001c-2.143,0.197-3.888,0.389-5.658,0.615
			l-1.061,0.129l-0.024-4.598l-0.021-0.701l0,0v-0.002c0.912-0.11,1.538-0.188,1.997-0.24c0.608-0.084,1.21-0.16,1.817-0.231v-0.002
			c-0.005-0.813-0.016-3.157-0.019-3.954c-1.227-0.25-3.063-0.824-3.946-2.791c-0.017-0.044-0.034-0.089-0.052-0.131
			c0,3.639,0,7.262,0,10.977c-0.017,0-0.035,0.004-0.055,0.01v1.686l-0.737,0.106c-1.48,0.209-3.023,0.448-4.769,0.737
			c4.717,3.336,12.238,6.605,23.917,7.27c0.179-3.001-1.13-6.164-3.192-9.454l-0.204,0.005c0,0,0-0.115,0-0.324
			c-0.892-1.395-1.917-2.812-3.015-4.25L241.951,302.857z"/>
		<path fill="#E91A4F" d="M222.24,309.372c-1.829-1.466-3.165-2.909-4.116-4.132c1.488,5.361,4.292,10.302,8.262,14.418
			c2.266,2.35,4.815,4.322,7.569,5.902c4.615,0.773,8.215,0.264,10.692-1.549c1.872-1.371,3.057-3.449,3.543-6.172
			c-12.948-0.711-20.909-4.521-25.67-8.247l-0.279,0.048L222.24,309.372z"/>
		<path fill="#E91A4F" d="M279.491,309.279c-0.521-0.094-1.058-0.188-1.61-0.282l-0.965-0.173l-0.995-0.161
			c-1.873-0.297-3.795-0.565-5.886-0.825l-0.229-0.025c-1.029,2.641-1.839,5.14-2.32,7.319
			C272.866,313.812,276.779,311.723,279.491,309.279z"/>
		<path fill="#E91A4F" d="M249.662,316.6c2.46,0.096,5.1,0.077,7.929-0.076c0.3-2.899,0.476-6.07,0.533-9.389
			c-1.866-0.578-3.538-1.797-3.56-4.527v-10.443c0.006-0.375,0.031-0.73,0.088-1.072c-0.057,0.055-0.112,0.104-0.174,0.156
			l-0.021,0.02c-0.45,0.352-0.62,0.598-1.229,0.746c0,1.303,0,14.979,0,14.979l-6.542,0.073
			C248.633,310.322,249.846,313.495,249.662,316.6z"/>
		<path fill="#E91A4F" d="M266.078,315.454c0.572-2.944,1.736-6.372,3.205-9.862v-0.124c-0.184,0.28-0.397,0.542-0.653,0.775
			c-1.33,1.208-3.532,1.668-6.942,1.45c-0.653-0.049-1.459-0.11-2.287-0.26c-0.059,3.145-0.217,6.181-0.502,9
			C261.518,316.243,263.91,315.907,266.078,315.454z"/>
		<path fill="#E91A4F" d="M267.786,322.148c0.762,0.918,2.196,1.047,4.249,0.396c0.785-0.637,1.554-1.304,2.293-2.019
			c3.242-3.125,5.777-6.791,7.533-10.801c-0.262-0.053-0.523-0.104-0.787-0.152c-2.973,2.957-7.471,5.479-13.86,6.957
			C266.791,319.1,266.912,321.1,267.786,322.148z"/>
		<path fill="#E91A4F" d="M250.177,330.021c-4.542-0.08-8.93-1.049-12.971-2.815c3.363,0.101,6.118-0.612,8.206-2.144
			c2.162-1.582,3.559-4.054,4.084-7.16c2.471,0.094,5.117,0.076,7.949-0.073c-0.645,5.366-1.734,9.677-3.318,12.03
			C252.82,329.986,251.508,330.045,250.177,330.021z M255.738,329.664c1.455-2.729,2.438-6.932,3.016-11.918
			c2.575-0.178,4.934-0.493,7.092-0.924c-0.365,2.685-0.139,4.863,0.939,6.156c0.699,0.838,1.686,1.254,2.945,1.268
			C265.525,327.089,260.766,328.934,255.738,329.664z"/>
		<path fill="#E91A4F" d="M218.252,302.898c0,0-0.047,0.01-0.126,0.025c0.75,1.146,2.044,2.819,4.102,4.604
			c-0.016-2.418-0.021-4.824-0.023-7.199C221.42,301.604,220.073,302.498,218.252,302.898z"/>
		<path fill="#E91A4F" d="M222.915,289.093c0.39-0.069,0.76-0.13,1.12-0.192c0-0.026,0-0.055,0-0.08
			c1.738-0.312,3.406-0.594,5.137-0.846c0.28-0.05,0.563-0.084,0.836-0.129c0,0.787,0,1.573,0,2.354
			c0.191-0.698,0.556-1.29,1.066-1.767c-3.04-4.506-5.462-9.283-6.084-14.313c-3.917,4.578-6.508,10.131-7.564,16.026
			c0.074-0.019,0.146-0.031,0.22-0.049c0.325-0.074,0.835-0.184,1.086-0.238c0.066-0.014,0.115-0.023,0.137-0.028
			c0.101-0.022,0.198-0.042,0.296-0.063c0.004,0,0.016-0.002,0.029-0.004c0.014-0.002,0.027-0.005,0.021-0.005
			c0.004,0,0.006,0,0.011,0c0.059-0.008,0.146-0.022,0.176-0.024c1.198-0.114,1.978,0.035,2.482,0.471c0.002,0,0.002,0,0.002,0
			c0.035,0.029,0.069,0.061,0.103,0.098c0.004,0.004,0.008,0.008,0.014,0.012c0.03,0.031,0.057,0.065,0.084,0.101
			c0.008,0.01,0.015,0.017,0.022,0.022c0.033,0.041,0.065,0.082,0.094,0.129v-1.348L222.915,289.093z"/>
		<path fill="#E91A4F" d="M278.63,288.654c1.847,0.316,3.625,0.662,5.459,1.047c-0.97-5.032-3.062-9.684-6.004-13.672
			c1.045,3.623,1.431,7.811,0.246,12.606c0.097,0.019,0.196,0.035,0.299,0.056C278.63,288.682,278.63,288.668,278.63,288.654z"/>
		<path fill="#E91A4F" d="M255.934,283.977c-0.019,0-0.037-0.004-0.056-0.006c-0.007,0-0.019,0-0.024,0
			c-1.004-0.137-1.519-0.547-1.785-0.949c0,0.071-0.012,0.369-0.012,0.369c0,0.137-0.002,0.271-0.01,0.406
			c-1.306,0-2.607-0.008-3.915-0.021c0.035-2.342,0.068-4.684,0.101-7.024c-0.032,0.024-0.06,0.056-0.094,0.082
			c-0.135,0.116-0.307,0.201-0.497,0.271c-0.032,1.955-0.057,3.855-0.089,5.823c-0.089,0.003-0.174,0.007-0.26,0.009
			c-0.005,0.299-0.006,0.486-0.006,0.486c-0.009,0.125-0.014,0.249-0.021,0.375c-1.303,0.059-2.608,0.115-3.911,0.158
			c0,0,0.073-5.704,0.082-6.493c-0.218,0.013-0.601,0.03-0.917,0.048c0,0.012-0.002,0.024-0.002,0.035
			c0,0.002-1.333,0.114-2.055,0.172c-0.001,0.11-0.003,0.217-0.003,0.331c0.551-0.058,1.063-0.108,1.596-0.142
			c-0.006,0.744-0.017,1.457-0.026,2.214c-0.091,0.006-0.18,0.01-0.268,0.017c-0.004,0.17-0.005,0.334-0.007,0.496
			c-0.008,0.12-0.016,0.24-0.02,0.358c0,0-0.794,0.062-1.321,0.11c-0.005,0.168-0.007,0.332-0.011,0.502
			c0.809-0.078,1.564-0.142,2.335-0.203c0,0.602-0.009,1.179-0.02,1.771c-0.09,0.007-0.177,0.015-0.263,0.021
			c-0.005,0.273-0.007,0.547-0.012,0.822c-0.154,0.012-0.307,0.023-0.459,0.032c-1.646,0.122-3.317,0.285-5.131,0.497
			c-0.207,0.025-0.412,0.05-0.617,0.072c0.004-0.299,0.01-0.596,0.012-0.893c-0.391,0.611-1.071,1.035-1.957,1.174
			c-1.466,0.211-2.878,0.446-4.424,0.746c-0.226,0.041-0.45,0.084-0.677,0.125c0,0,0.081-5.953,0.089-6.646
			c-0.283-0.042-0.538-0.13-0.766-0.294c-0.248-0.186-0.549-0.529-0.542-1.112c0.003-0.045,0.007-0.093,0.009-0.14
			c0.003-0.02,0.007-0.036,0.008-0.055c0.03-0.176,0.062-0.349,0.094-0.522c0.099-0.021,0.201-0.04,0.301-0.062
			c0.319-0.062,0.633-0.119,0.948-0.179c0.002-0.006,0.002-0.01,0.002-0.012c1.959-0.394,3.847-0.724,5.836-1.013
			c0.003,0,0.006,0,0.01,0c0.541-0.055,0.917-0.024,1.179,0.098c0-0.081,0.003-0.163,0.003-0.245
			c0.138-0.017,0.276-0.032,0.413-0.046c0.3-0.034,0.595-0.064,0.89-0.098c0-0.012,0-0.024,0-0.035
			c1.487-0.17,2.9-0.309,4.362-0.426c0-0.002,0-0.008,0-0.01c0.154-0.01,0.306-0.021,0.458-0.033
			c0.092-0.006,0.179-0.01,0.273-0.015c0.021-0.002,0.046-0.006,0.069-0.008v0.002c0.168-0.007,0.337-0.021,0.503-0.026
			c0-0.002,0-0.004,0-0.009c1.803-0.114,3.511-0.185,5.342-0.213c0.108,0,0.238,0.002,0.377,0.002
			c0.004,0.021,0.004,0.041,0.007,0.063c0.168,0,0.34,0,0.508,0c0-0.024,0-0.049,0-0.071c1.223-0.006,2.429,0.008,3.646,0.043
			c-1.343-6.117-2.999-10.442-4.778-12.487c-8.694,0.086-16.893,3.426-23.177,9.482c-0.375,0.361-0.736,0.732-1.089,1.105
			c0.318,5.232,2.749,10.154,5.973,14.904c0.146-0.068,0.303-0.115,0.465-0.15c0.781-0.201,1.84-0.277,2.394-0.344l-0.066,0.014
			c0.015-0.002,0.029-0.004,0.043-0.006c0.069,0,0.138-0.02,0.196-0.026c0.722-0.093,4.148-0.418,6.9-0.593
			c0.047-0.002,0.092-0.004,0.139-0.006c0.23-0.016,0.359-0.025,0.359-0.025l0.12-0.008c0.049,0,0.097-0.002,0.144-0.008
			c0.005,0,0.007,0,0.008,0l0,0c0.716-0.033,1.423-0.062,2.128-0.088c3.492-0.15,6.861-0.188,10.384-0.111
			c0.285,0,0.56,0.021,0.791,0.021c0.051,0.229,0.051,0.446,0.051,0.683c0,0.037,0,0.084,0,0.121c0,0.229-0.028,0.7-0.24,1.219
			c0.354-0.358,0.781-0.658,1.271-0.905c-0.127-1.175-0.266-2.34-0.42-3.487C256.516,284.003,256.225,283.991,255.934,283.977z"/>
		<path fill="#E91A4F" d="M276.962,288.792c0-0.229,0-0.396,0-0.396s0.036,0.006,0.101,0.017c1.535-6.039,0.438-11.024-1.394-15.298
			c-5.915-6.393-14.258-10.516-23.589-10.869c2.003,2.906,3.461,7.787,4.484,12.562c0.744,0.151,1.078,0.461,1.226,1.008
			c0.453-0.395,1.067-0.565,1.617-0.629c0.18-0.024,0.356-0.033,0.534-0.037c0.104-0.021,0.216-0.041,0.33-0.058
			c0.461-0.062,0.955-0.04,1.484,0.009c0.837,0.073,1.714,0.162,2.305,0.575c0-0.059,0-0.114,0-0.174
			c0.437,0.062,0.868,0.12,1.303,0.185c0-0.067,0.004-0.131,0.004-0.194c0.816,0.1,1.596,0.212,2.419,0.323
			c0.13,0.021,0.259,0.045,0.396,0.056c0,0.073,0,0.146-0.005,0.221c0.161,0.024,0.316,0.052,0.472,0.076c0-0.073,0-0.147,0-0.219
			c1.795,0.271,3.521,0.575,5.304,0.946c0.138,0.023,0.245,0.055,0.377,0.08c0,0.099,0,0.188,0.016,0.295c0,0.021,0,0.037,0,0.053
			c0,0.14-0.03,0.482-0.297,0.753c-0.054,0.319-0.229,0.733-0.735,1.022c-0.115,0.061-0.248,0.1-0.386,0.129
			c-0.026,1.881-0.056,3.705-0.081,5.598c-0.09-0.018-0.179-0.033-0.266-0.051c-0.01,0.341-0.01,0.551-0.01,0.551
			c-0.006,0.179-0.014,0.355-0.021,0.533c-1.294-0.224-2.588-0.455-3.883-0.691c0,0,0.082-5.855,0.082-6.421
			c-0.203-0.03-0.403-0.063-0.604-0.099c-0.022,1.787-0.052,3.556-0.08,5.369c-0.086-0.014-0.174-0.022-0.258-0.035
			c-0.005,0.178-0.008,0.354-0.008,0.533c-0.009,0.166-0.013,0.334-0.02,0.504c-1.283-0.17-2.562-0.343-3.844-0.524
			c0.004-0.322,0.008-0.644,0.016-0.964c-0.074,0.07-0.151,0.138-0.237,0.199c-0.669,0.461-1.762,0.646-3.267,0.535
			c-0.038-0.002-0.075-0.007-0.112-0.007c-0.549-0.047-1.519-0.135-2.262-0.559c0.142,1.087,0.274,2.198,0.397,3.336
			c0.258-0.068,0.523-0.13,0.809-0.177c0.013-0.006,0.027-0.006,0.035-0.008c0.293-0.086,0.603-0.154,0.935-0.215
			c0.827-0.133,1.769-0.148,3.144-0.055h0.008c2.391,0.189,4.839,0.387,5.873,2.398v-1.429l1.522-0.052
			c0.415-0.01,0.899,0.021,1.425,0.104c1.273,0.076,3.086,0.565,4.525,1.937C276.823,289.294,276.895,289.042,276.962,288.792z"/>
		<path fill="#E91A4F" d="M264.771,277.23c-0.019,1.537-0.047,3-0.063,4.539c0,0.062-0.011,0.129-0.011,0.188
			c-0.012,0.307-0.116,0.561-0.305,0.768c-0.062,0.312-0.209,0.584-0.44,0.808c-0.007,0.319-0.013,0.642-0.017,0.964
			c1.28,0.184,2.562,0.355,3.845,0.525c0.007-0.17,0.011-0.338,0.02-0.504c0-0.182,0.003-0.356,0.007-0.535
			c-0.854-0.121-1.69-0.237-2.56-0.336c0.036-2.694,0.08-5.271,0.117-7.959c-0.433-0.062-0.866-0.121-1.302-0.184
			c0,0.059,0,0.115,0,0.175C264.495,275.979,264.771,276.455,264.771,277.23z"/>
		<path fill="#00295C" d="M264.771,277.23c-0.019,1.537-0.047,3-0.063,4.539c0,0.062-0.011,0.129-0.011,0.188
			c-0.012,0.307-0.116,0.561-0.305,0.768c-0.062,0.312-0.209,0.584-0.44,0.808c-0.007,0.319-0.013,0.642-0.017,0.964
			c1.28,0.184,2.562,0.355,3.845,0.525c0.007-0.17,0.011-0.338,0.02-0.504c0-0.182,0.003-0.356,0.007-0.535
			c-0.854-0.121-1.69-0.237-2.56-0.336c0.036-2.694,0.08-5.271,0.117-7.959c-0.433-0.062-0.866-0.121-1.302-0.184
			c0,0.059,0,0.115,0,0.175C264.495,275.979,264.771,276.455,264.771,277.23z"/>
		<path fill="#E91A4F" d="M249.653,276.417c0,0.229-0.005,0.459-0.01,0.687c0.19-0.069,0.361-0.154,0.497-0.271
			c0.034-0.026,0.062-0.058,0.094-0.082c0.002-0.163,0.005-0.329,0.007-0.493C250.064,276.334,249.864,276.391,249.653,276.417z"/>
		<path fill="#00295C" d="M249.653,276.417c0,0.229-0.005,0.459-0.01,0.687c0.19-0.069,0.361-0.154,0.497-0.271
			c0.034-0.026,0.062-0.058,0.094-0.082c0.002-0.163,0.005-0.329,0.007-0.493C250.064,276.334,249.864,276.391,249.653,276.417z"/>
		<path fill="#E91A4F" d="M244.762,274.932c-0.094,0.004-0.181,0.008-0.273,0.014c-0.153,0.014-0.304,0.025-0.458,0.033
			c0,0.002,0,0.008,0,0.012c0.134-0.014,0.268-0.026,0.406-0.035C244.54,274.948,244.652,274.938,244.762,274.932z"/>
		<path fill="#00295C" d="M244.762,274.932c-0.094,0.004-0.181,0.008-0.273,0.014c-0.153,0.014-0.304,0.025-0.458,0.033
			c0,0.002,0,0.008,0,0.012c0.134-0.014,0.268-0.026,0.406-0.035C244.54,274.948,244.652,274.938,244.762,274.932z"/>
		<path fill="#E91A4F" d="M246.75,276.543c-0.486,0.027-0.956,0.057-1.441,0.091c0.009-0.581,0.016-1.144,0.025-1.735
			c-0.166,0.011-0.335,0.021-0.503,0.027c-0.012,0.584-0.018,1.141-0.018,1.715c-0.092,0.008-0.18,0.016-0.271,0.021
			c-0.005,0.177-0.005,0.354-0.007,0.529c-0.006,0.104-0.009,0.213-0.014,0.317c0.316-0.018,0.699-0.034,0.917-0.048
			c-0.009,0.789-0.082,6.493-0.082,6.493c1.303-0.043,2.608-0.101,3.911-0.158c0.007-0.126,0.012-0.25,0.021-0.375
			c0,0,0-0.188,0.006-0.485c-0.885,0.027-1.757,0.06-2.628,0.121C246.695,280.846,246.723,278.753,246.75,276.543z"/>
		<path fill="#00295C" d="M246.75,276.543c-0.486,0.027-0.956,0.057-1.441,0.091c0.009-0.581,0.016-1.144,0.025-1.735
			c-0.166,0.011-0.335,0.021-0.503,0.027c-0.012,0.584-0.018,1.141-0.018,1.715c-0.092,0.008-0.18,0.016-0.271,0.021
			c-0.005,0.177-0.005,0.354-0.007,0.529c-0.006,0.104-0.009,0.213-0.014,0.317c0.316-0.018,0.699-0.034,0.917-0.048
			c-0.009,0.789-0.082,6.493-0.082,6.493c1.303-0.043,2.608-0.101,3.911-0.158c0.007-0.126,0.012-0.25,0.021-0.375
			c0,0,0-0.188,0.006-0.485c-0.885,0.027-1.757,0.06-2.628,0.121C246.695,280.846,246.723,278.753,246.75,276.543z"/>
		<path fill="#E91A4F" d="M250.743,275.891c-0.056,0.062-0.114,0.123-0.188,0.18c-0.09,0.074-0.201,0.137-0.313,0.188
			c-0.002,0.164-0.005,0.33-0.007,0.493C250.535,276.475,250.678,276.156,250.743,275.891z"/>
		<path fill="#00295C" d="M250.743,275.891c-0.056,0.062-0.114,0.123-0.188,0.18c-0.09,0.074-0.201,0.137-0.313,0.188
			c-0.002,0.164-0.005,0.33-0.007,0.493C250.535,276.475,250.678,276.156,250.743,275.891z"/>
		<path fill="#00295C" d="M250.743,275.891c-0.056,0.062-0.114,0.123-0.188,0.18c-0.09,0.074-0.201,0.137-0.313,0.188
			c-0.002,0.164-0.005,0.33-0.007,0.493C250.535,276.475,250.678,276.156,250.743,275.891z"/>
		<path fill="#E91A4F" d="M272.936,278.389c0,0.281-0.008,0.562-0.011,0.842c0.136-0.029,0.271-0.068,0.386-0.129
			c0.504-0.289,0.684-0.705,0.735-1.022c-0.058,0.062-0.128,0.122-0.215,0.172C273.585,278.384,273.293,278.428,272.936,278.389z"/>
		<path fill="#00295C" d="M272.936,278.389c0,0.281-0.008,0.562-0.011,0.842c0.136-0.029,0.271-0.068,0.386-0.129
			c0.504-0.289,0.684-0.705,0.735-1.022c-0.058,0.062-0.128,0.122-0.215,0.172C273.585,278.384,273.293,278.428,272.936,278.389z"/>
		<path fill="#E91A4F" d="M268.749,278.747c0,0.565-0.082,6.421-0.082,6.421c1.295,0.236,2.589,0.471,3.883,0.691
			c0.007-0.178,0.015-0.354,0.021-0.533c0,0,0-0.21,0.01-0.551c-0.874-0.162-1.719-0.311-2.602-0.457
			c0.027-2.176,0.057-4.245,0.084-6.42c-0.483-0.082-0.942-0.158-1.432-0.232c0.008-0.502,0.016-0.998,0.018-1.497
			c-0.153-0.024-0.311-0.052-0.472-0.076c-0.008,0.862-0.021,1.714-0.032,2.556C268.346,278.684,268.546,278.717,268.749,278.747z"
			/>
		<path fill="#00295C" d="M268.749,278.747c0,0.565-0.082,6.421-0.082,6.421c1.295,0.236,2.589,0.471,3.883,0.691
			c0.007-0.178,0.015-0.354,0.021-0.533c0,0,0-0.21,0.01-0.551c-0.874-0.162-1.719-0.311-2.602-0.457
			c0.027-2.176,0.057-4.245,0.084-6.42c-0.483-0.082-0.942-0.158-1.432-0.232c0.008-0.502,0.016-0.998,0.018-1.497
			c-0.153-0.024-0.311-0.052-0.472-0.076c-0.008,0.862-0.021,1.714-0.032,2.556C268.346,278.684,268.546,278.717,268.749,278.747z"
			/>
		<path fill="#E91A4F" d="M239.668,275.449c-0.295,0.031-0.59,0.062-0.89,0.097c-0.136,0.013-0.275,0.03-0.413,0.046
			c0,0.082-0.003,0.164-0.003,0.245c0.623,0.287,0.602,1.089,0.583,2.483c-0.02,1.213-0.039,2.381-0.048,3.595
			c-0.012,0.456-0.142,0.854-0.371,1.188c-0.063,0.221-0.156,0.431-0.276,0.621c-0.002,0.297-0.008,0.594-0.012,0.892
			c0.205-0.022,0.41-0.048,0.617-0.072c1.814-0.212,3.486-0.375,5.131-0.497c0.152-0.009,0.305-0.021,0.459-0.031
			c0.005-0.274,0.007-0.55,0.012-0.822c-1.646,0.119-3.261,0.285-4.907,0.49C239.586,280.904,239.632,278.239,239.668,275.449z"/>
		<path fill="#00295C" d="M239.668,275.449c-0.295,0.031-0.59,0.062-0.89,0.097c-0.136,0.013-0.275,0.03-0.413,0.046
			c0,0.082-0.003,0.164-0.003,0.245c0.623,0.287,0.602,1.089,0.583,2.483c-0.02,1.213-0.039,2.381-0.048,3.595
			c-0.012,0.456-0.142,0.854-0.371,1.188c-0.063,0.221-0.156,0.431-0.276,0.621c-0.002,0.297-0.008,0.594-0.012,0.892
			c0.205-0.022,0.41-0.048,0.617-0.072c1.814-0.212,3.486-0.375,5.131-0.497c0.152-0.009,0.305-0.021,0.459-0.031
			c0.005-0.274,0.007-0.55,0.012-0.822c-1.646,0.119-3.261,0.285-4.907,0.49C239.586,280.904,239.632,278.239,239.668,275.449z"/>
		<path fill="#E91A4F" d="M242.415,281.102c0.526-0.045,1.321-0.108,1.321-0.108c0.004-0.118,0.012-0.238,0.02-0.358
			c0.002-0.162,0.003-0.326,0.007-0.494c-0.44,0.028-0.876,0.068-1.338,0.114C242.424,280.543,242.42,280.823,242.415,281.102z"/>
		<path fill="#00295C" d="M242.415,281.102c0.526-0.045,1.321-0.108,1.321-0.108c0.004-0.118,0.012-0.238,0.02-0.358
			c0.002-0.162,0.003-0.326,0.007-0.494c-0.44,0.028-0.876,0.068-1.338,0.114C242.424,280.543,242.42,280.823,242.415,281.102z"/>
		<path fill="#E91A4F" d="M244.008,276.701c-0.505,0.041-1.007,0.081-1.529,0.131c-0.008,0.294-0.014,0.587-0.015,0.885
			c0.721-0.058,2.055-0.17,2.055-0.172c0-0.011,0.002-0.023,0.002-0.035c-0.291,0.016-0.528,0.027-0.528,0.027
			C243.997,277.259,244.001,276.979,244.008,276.701z"/>
		<path fill="#00295C" d="M244.008,276.701c-0.505,0.041-1.007,0.081-1.529,0.131c-0.008,0.294-0.014,0.587-0.015,0.885
			c0.721-0.058,2.055-0.17,2.055-0.172c0-0.011,0.002-0.023,0.002-0.035c-0.291,0.016-0.528,0.027-0.528,0.027
			C243.997,277.259,244.001,276.979,244.008,276.701z"/>
		<path fill="#E91A4F" d="M244.542,276.661c-0.179,0.014-0.357,0.026-0.534,0.04c-0.006,0.277-0.011,0.558-0.015,0.836
			c0,0,0.237-0.014,0.528-0.027c0.005-0.105,0.008-0.214,0.014-0.318C244.537,277.016,244.537,276.838,244.542,276.661z"/>
		<path fill="#00295C" d="M244.542,276.661c-0.179,0.014-0.357,0.026-0.534,0.04c-0.006,0.277-0.011,0.558-0.015,0.836
			c0,0,0.237-0.014,0.528-0.027c0.005-0.105,0.008-0.214,0.014-0.318C244.537,277.016,244.537,276.838,244.542,276.661z"/>
		<path fill="#00295C" d="M244.542,276.661c-0.179,0.014-0.357,0.026-0.534,0.04c-0.006,0.277-0.011,0.558-0.015,0.836
			c0,0,0.237-0.014,0.528-0.027c0.005-0.105,0.008-0.214,0.014-0.318C244.537,277.016,244.537,276.838,244.542,276.661z"/>
		<path fill="#E91A4F" d="M236.961,284.023c-1.511,0.227-2.941,0.478-4.461,0.768c0.036-2.229,0.064-4.355,0.093-6.575
			c-0.422,0.015-0.716-0.065-0.953-0.233c-0.33-0.248-0.367-0.599-0.367-0.797c0-0.069,0.008-0.136,0.008-0.143
			c0.029-0.092,0.03-0.182,0.053-0.279c-0.315,0.06-0.629,0.115-0.948,0.18c-0.101,0.021-0.202,0.037-0.301,0.061
			c-0.032,0.176-0.063,0.35-0.094,0.521c-0.001,0.02-0.005,0.035-0.008,0.056c-0.002,0.047-0.006,0.095-0.009,0.14
			c-0.008,0.584,0.293,0.93,0.542,1.112c0.228,0.164,0.483,0.252,0.766,0.294c-0.008,0.689-0.089,6.646-0.089,6.646
			c0.227-0.041,0.451-0.086,0.677-0.125c1.546-0.299,2.958-0.535,4.424-0.748c0.885-0.137,1.565-0.562,1.957-1.172
			c0.001-0.104,0.003-0.205,0.005-0.31C237.928,283.727,237.488,283.939,236.961,284.023z"/>
		<path fill="#00295C" d="M236.961,284.023c-1.511,0.227-2.941,0.478-4.461,0.768c0.036-2.229,0.064-4.355,0.093-6.575
			c-0.422,0.015-0.716-0.065-0.953-0.233c-0.33-0.248-0.367-0.599-0.367-0.797c0-0.069,0.008-0.136,0.008-0.143
			c0.029-0.092,0.03-0.182,0.053-0.279c-0.315,0.06-0.629,0.115-0.948,0.18c-0.101,0.021-0.202,0.037-0.301,0.061
			c-0.032,0.176-0.063,0.35-0.094,0.521c-0.001,0.02-0.005,0.035-0.008,0.056c-0.002,0.047-0.006,0.095-0.009,0.14
			c-0.008,0.584,0.293,0.93,0.542,1.112c0.228,0.164,0.483,0.252,0.766,0.294c-0.008,0.689-0.089,6.646-0.089,6.646
			c0.227-0.041,0.451-0.086,0.677-0.125c1.546-0.299,2.958-0.535,4.424-0.748c0.885-0.137,1.565-0.562,1.957-1.172
			c0.001-0.104,0.003-0.205,0.005-0.31C237.928,283.727,237.488,283.939,236.961,284.023z"/>
		<path fill="#E91A4F" d="M238.255,283.417c-0.002,0.103-0.004,0.205-0.005,0.308c0.121-0.188,0.213-0.398,0.276-0.621
			C238.447,283.216,238.357,283.324,238.255,283.417z"/>
		<path fill="#00295C" d="M238.255,283.417c-0.002,0.103-0.004,0.205-0.005,0.308c0.121-0.188,0.213-0.398,0.276-0.621
			C238.447,283.216,238.357,283.324,238.255,283.417z"/>
		<path fill="#00295C" d="M238.255,283.417c-0.002,0.103-0.004,0.205-0.005,0.308c0.121-0.188,0.213-0.398,0.276-0.621
			C238.447,283.216,238.357,283.324,238.255,283.417z"/>
		<path fill="#E91A4F" d="M257.891,277.812c0,0.053-0.008,0.097-0.008,0.153c0,0.034,0,0.08,0,0.115
			c-0.011,0.438-0.117,0.746-0.365,1.026c-0.014,0.037-0.022,0.076-0.037,0.113c0.188,0.252,0.328,0.562,0.328,0.836
			c-0.006,0.543-0.013,1.067-0.02,1.592c0.098,0.672,0.193,1.354,0.284,2.052c0.743,0.424,1.713,0.512,2.262,0.559
			c0.037,0,0.074,0.005,0.112,0.007c1.505,0.111,2.598-0.074,3.267-0.535c0.086-0.062,0.163-0.129,0.237-0.199
			c0-0.156,0.003-0.319,0.004-0.481c-0.568,0.294-1.461,0.398-2.646,0.313c-0.961-0.081-2.938-0.184-2.957-1.883
			c0.027-1.537,0.045-3.014,0.063-4.547c0.024-0.988,0.521-1.576,1.526-1.783c-0.178,0.004-0.354,0.013-0.534,0.037
			c-0.55,0.062-1.164,0.234-1.617,0.629C257.916,276.288,257.902,276.936,257.891,277.812z"/>
		<path fill="#FFFFFF" d="M257.771,283.116c-0.092-0.005-0.181-0.007-0.271-0.013c0,0.043,0,0.096,0,0.14
			c0.162,0.187,0.355,0.337,0.57,0.459c-0.09-0.697-0.188-1.38-0.283-2.05C257.779,282.137,257.775,282.621,257.771,283.116z"/>
		<path fill="#00295C" d="M261.309,283.363c-0.961-0.081-2.938-0.184-2.957-1.883c0.027-1.537,0.045-3.014,0.063-4.547
			c0.024-0.988,0.521-1.576,1.526-1.783c-0.178,0.004-0.354,0.013-0.534,0.037c-0.55,0.062-1.164,0.234-1.617,0.629
			c0.126,0.472,0.112,1.119,0.101,1.996c0,0.053-0.008,0.097-0.008,0.153c0,0.034,0,0.08,0,0.115
			c-0.011,0.438-0.117,0.746-0.365,1.026c-0.014,0.037-0.022,0.076-0.037,0.113c0.188,0.252,0.328,0.562,0.328,0.836
			c-0.006,0.543-0.013,1.067-0.02,1.592c0,0.002,0,0.002,0,0.002h-0.001c-0.009,0.484-0.013,0.97-0.017,1.465
			c-0.092-0.006-0.181-0.008-0.271-0.014c0,0.043,0,0.097,0,0.141c0.162,0.188,0.355,0.337,0.571,0.459l0.002-0.001
			c0.743,0.424,1.712,0.512,2.261,0.559c0.037,0,0.074,0.005,0.112,0.007c1.505,0.111,2.598-0.074,3.267-0.535
			c0.086-0.062,0.163-0.129,0.237-0.199c0-0.156,0.003-0.319,0.004-0.481C263.387,283.344,262.494,283.448,261.309,283.363z"/>
		<path fill="#E91A4F" d="M257.451,279.188c0.01,0.014,0.017,0.023,0.029,0.037c0.013-0.037,0.021-0.076,0.037-0.113
			C257.494,279.135,257.475,279.16,257.451,279.188z"/>
		<path fill="#00295C" d="M257.451,279.188c0.01,0.014,0.017,0.023,0.029,0.037c0.013-0.037,0.021-0.076,0.037-0.113
			C257.494,279.135,257.475,279.16,257.451,279.188z"/>
		<path fill="#00295C" d="M257.451,279.188c0.01,0.014,0.017,0.023,0.029,0.037c0.013-0.037,0.021-0.076,0.037-0.113
			C257.494,279.135,257.475,279.16,257.451,279.188z"/>
		<path fill="#FFFFFF" d="M257.389,283.104c0.036,0.045,0.073,0.099,0.113,0.142c0-0.044,0-0.097,0-0.14
			C257.467,283.104,257.43,283.104,257.389,283.104z"/>
		<path fill="#00295C" d="M257.389,283.104c0.036,0.045,0.073,0.099,0.113,0.142c0-0.044,0-0.097,0-0.14
			C257.467,283.104,257.43,283.104,257.389,283.104z"/>
		<path fill="#00295C" d="M257.389,283.104c0.036,0.045,0.073,0.099,0.113,0.142c0-0.044,0-0.097,0-0.14
			C257.467,283.104,257.43,283.104,257.389,283.104z"/>
		<path fill="#E91A4F" d="M263.955,283.05c-0.001,0.162-0.004,0.325-0.004,0.481c0.232-0.223,0.38-0.495,0.439-0.807
			C264.273,282.852,264.13,282.961,263.955,283.05z"/>
		<path fill="#00295C" d="M263.955,283.05c-0.001,0.162-0.004,0.325-0.004,0.481c0.232-0.223,0.38-0.495,0.439-0.807
			C264.273,282.852,264.13,282.961,263.955,283.05z"/>
		<path fill="#00295C" d="M263.955,283.05c-0.001,0.162-0.004,0.325-0.004,0.481c0.232-0.223,0.38-0.495,0.439-0.807
			C264.273,282.852,264.13,282.961,263.955,283.05z"/>
		<path fill="#004E82" d="M251.566,274.672c0,0.023,0,0.047,0,0.072c-0.037,2.749-0.084,5.388-0.119,8.148
			c0.965-0.018,1.912-0.013,2.888,0.012c0.019-1.107,0.026-2.158,0.046-3.262c0.02,0,0.035,0,0.055,0
			c0.67,0.021,0.652,0.281,0.652,0.371c-0.009,0.242,0,0.951,0.018,1.291c0,0.065,0.008,0.108,0.008,0.163
			c0.014,0.479,0.029,0.531,0.057,0.565c0.188,0.562,0.705,0.906,1.516,1.029c0.021,0.004,0.039,0.01,0.062,0.011
			c0.009,0,0.017-0.011,0.017,0c0.211,0.01,0.422,0.017,0.629,0.026c0.041,0,0.078,0.002,0.112,0.002
			c0.093,0.004,0.179,0.006,0.271,0.013c0.002-0.495,0.009-0.979,0.018-1.466c0.007-0.522,0.014-1.049,0.02-1.592
			c0-0.271-0.143-0.584-0.326-0.836c-0.014-0.014-0.021-0.023-0.029-0.037c0.021-0.025,0.043-0.053,0.066-0.076
			c0.248-0.28,0.354-0.59,0.365-1.026c0-0.035,0-0.081,0-0.115c0-0.059,0.006-0.103,0.006-0.153
			c0.015-0.879,0.025-1.524-0.101-1.996c-0.146-0.547-0.479-0.854-1.228-1.008c-0.096-0.022-0.196-0.041-0.31-0.056
			c-0.008,0-0.019-0.008-0.026-0.008c0,0-0.014,0-0.02,0c-0.336-0.015-0.664-0.024-0.995-0.032
			C253.994,274.68,252.788,274.666,251.566,274.672z"/>
		<path fill="#004E82" d="M267.807,283.982c0.084,0.013,0.172,0.021,0.258,0.035c0.028-1.813,0.058-3.582,0.08-5.369
			c0.013-0.844,0.024-1.693,0.032-2.558c0.005-0.073,0.005-0.146,0.005-0.221c-0.137-0.011-0.266-0.032-0.396-0.056
			c-0.823-0.111-1.603-0.226-2.419-0.323c0,0.062-0.003,0.127-0.004,0.192c-0.037,2.688-0.081,5.266-0.117,7.959
			C266.113,283.744,266.949,283.859,267.807,283.982z"/>
		<path fill="#004E82" d="M250.24,276.256c0.114-0.051,0.226-0.111,0.314-0.186c0.072-0.057,0.133-0.119,0.188-0.18
			c0.292-0.34,0.328-0.718,0.328-0.86c0-0.019,0-0.038,0-0.054c0-0.08-0.006-0.154-0.014-0.232
			c-0.002-0.023-0.002-0.045-0.007-0.064c-0.139,0-0.268-0.002-0.377-0.002c-1.831,0.028-3.539,0.098-5.342,0.213
			c0,0.004,0,0.006,0,0.008c-0.01,0.594-0.017,1.154-0.025,1.735c0.485-0.034,0.955-0.062,1.441-0.091
			c-0.027,2.21-0.054,4.303-0.084,6.514c0.871-0.062,1.743-0.093,2.628-0.121c0.086-0.002,0.171-0.006,0.26-0.008
			c0.033-1.969,0.058-3.869,0.089-5.824c0.004-0.228,0.009-0.455,0.01-0.687C249.864,276.391,250.064,276.334,250.24,276.256z"/>
		<path fill="#004E82" d="M270.062,277.898c-0.028,2.175-0.058,4.244-0.084,6.42c0.883,0.146,1.727,0.295,2.601,0.457
			c0.087,0.018,0.176,0.033,0.267,0.051c0.024-1.893,0.053-3.717,0.08-5.598c0.004-0.279,0.01-0.561,0.012-0.84
			c0.356,0.037,0.648-0.007,0.896-0.142c0.087-0.05,0.157-0.108,0.215-0.172c0.266-0.271,0.297-0.613,0.297-0.753
			c0-0.016,0-0.032,0-0.053c-0.016-0.105-0.016-0.196-0.016-0.295c-0.13-0.025-0.239-0.057-0.377-0.082
			c-1.781-0.371-3.508-0.677-5.303-0.944c0,0.069,0,0.146,0,0.219c-0.002,0.499-0.01,0.995-0.019,1.497
			C269.118,277.74,269.577,277.816,270.062,277.898z"/>
		<path fill="#004E82" d="M244.008,276.701c0.177-0.014,0.354-0.026,0.534-0.04c0.091-0.007,0.179-0.015,0.271-0.021
			c0-0.576,0.006-1.133,0.018-1.717v-0.002c-0.023,0.002-0.047,0.007-0.069,0.01c-0.11,0.004-0.222,0.016-0.326,0.021
			c-0.138,0.009-0.271,0.022-0.406,0.034c-1.462,0.117-2.875,0.257-4.362,0.426c0,0.011,0,0.023,0,0.035
			c-0.036,2.791-0.082,5.455-0.119,8.234c1.646-0.205,3.26-0.371,4.907-0.49c0.086-0.008,0.173-0.017,0.263-0.021
			c0.011-0.592,0.02-1.169,0.02-1.771c-0.771,0.063-1.526,0.125-2.335,0.205c0.004-0.172,0.006-0.336,0.011-0.504
			c0.005-0.277,0.009-0.559,0.009-0.849c0.462-0.046,0.898-0.086,1.338-0.116c0.087-0.007,0.177-0.011,0.268-0.017
			c0.01-0.757,0.02-1.47,0.026-2.214c-0.533,0.033-1.045,0.084-1.596,0.142c0-0.114,0.002-0.221,0.003-0.331
			c0.001-0.298,0.007-0.591,0.015-0.885C243,276.782,243.502,276.742,244.008,276.701z"/>
		<path fill="#004E82" d="M231.273,277.186c0,0.198,0.038,0.549,0.367,0.797c0.236,0.168,0.531,0.248,0.953,0.233
			c-0.029,2.22-0.057,4.347-0.093,6.575c1.52-0.29,2.95-0.541,4.461-0.768c0.527-0.084,0.967-0.297,1.293-0.606
			c0.103-0.093,0.192-0.201,0.271-0.313c0.229-0.332,0.359-0.73,0.371-1.188c0.009-1.214,0.029-2.382,0.048-3.594
			c0.019-1.396,0.04-2.197-0.583-2.484c-0.262-0.122-0.639-0.15-1.179-0.097c-0.004,0-0.007,0-0.01,0
			c-1.989,0.289-3.877,0.618-5.836,1.012c0,0.002,0,0.007-0.002,0.013c-0.023,0.1-0.024,0.188-0.053,0.278
			C231.282,277.05,231.273,277.114,231.273,277.186z"/>
		<path fill="#004E82" d="M258.415,276.934c-0.019,1.535-0.036,3.01-0.063,4.549c0.019,1.697,1.996,1.802,2.957,1.882
			c1.188,0.086,2.078-0.021,2.646-0.312c0.175-0.089,0.318-0.196,0.438-0.323c0.188-0.209,0.293-0.463,0.306-0.769
			c0-0.062,0.011-0.126,0.011-0.188c0.02-1.539,0.047-3.002,0.062-4.541c0.002-0.773-0.274-1.25-0.709-1.551
			c-0.59-0.414-1.468-0.502-2.305-0.578c-0.531-0.047-1.025-0.068-1.486-0.006c-0.112,0.014-0.224,0.034-0.33,0.055
			C258.936,275.357,258.439,275.945,258.415,276.934z"/>
		<path fill="#FFFFFF" d="M232.994,277.857c-0.025,2.207-0.054,4.322-0.09,6.531c1.384-0.253,2.685-0.48,4.067-0.682
			c0.89-0.158,1.476-0.781,1.522-1.75c0.009-1.13,0.029-2.211,0.048-3.341c0.034-2.205,0.109-2.724-1.379-2.556
			c-1.841,0.271-3.61,0.569-5.477,0.94C231.687,277.002,231.484,278.07,232.994,277.857z M235.084,277.492
			c0.899-0.182,1.035-0.131,1.035-0.131c0.349,0.062,0.312,0.52,0.312,0.52c0.062,0.668-0.057,4.797-0.057,4.797
			c-0.467,0.066-0.899,0.146-1.365,0.221C235.038,281.064,235.057,279.325,235.084,277.492z"/>
		<path fill="#FFFFFF" d="M242.074,276.555c-0.01,0.625-0.01,1.229-0.018,1.85c0.531-0.057,1.065-0.104,1.597-0.146
			c-0.007,0.529-0.019,1.044-0.026,1.572c-0.535,0.042-1.056,0.09-1.598,0.146c-0.011,0.67-0.018,1.311-0.027,1.981
			c0.806-0.084,1.56-0.144,2.333-0.205c0,0.376-0.01,0.754-0.01,1.129c-0.734,0.056-1.434,0.121-2.169,0.193
			c-0.763,0.079-1.45,0.146-2.202,0.233c0.039-2.578,0.074-5.048,0.11-7.621c1.469-0.172,2.891-0.304,4.362-0.41
			c-0.011,0.355-0.011,0.716-0.018,1.074C243.634,276.417,242.882,276.479,242.074,276.555z"/>
		<path fill="#00295C" d="M236.045,279.73c-0.008,0.881-0.046,1.879-0.054,2.685c-0.202,0.035-0.375,0.056-0.578,0.099
			c0.028-1.617,0.046-3.16,0.064-4.779c0.323-0.053,0.43-0.058,0.477-0.047c0.045,0.021,0.075,0.147,0.075,0.254
			c-0.002,0-0.002,0.013,0,0.021c0,0.011,0.009,0.013,0.009,0.021C236.073,278.207,236.055,278.887,236.045,279.73z"/>
		<path fill="#FFFFFF" d="M249.25,276.113c-0.027,2.203-0.056,4.304-0.091,6.515c-0.709,0.021-1.372,0.05-2.087,0.083
			c0.027-2.202,0.055-4.304,0.092-6.504c-0.499,0.029-0.965,0.046-1.451,0.084c0.008-0.379,0.008-0.738,0.016-1.105
			c1.674-0.104,3.272-0.164,4.935-0.182C250.663,274.999,250.77,276.135,249.25,276.113z"/>
		<path fill="#FFFFFF" d="M256.2,275.062c1.262,0.164,1.313,0.545,1.286,2.722c0,0.055,0,0.108,0,0.161
			c0,0.037-0.01,0.08-0.01,0.119c0,0.465-0.121,0.766-0.524,1.084c0.019,0.039,0.055,0.062,0.084,0.086
			c0.211,0.242,0.358,0.572,0.375,0.812c-0.017,0.931-0.024,1.81-0.033,2.744c-0.205-0.017-0.388-0.022-0.591-0.026
			c-0.615-0.082-1.057-0.318-1.232-0.796c-0.027-0.067-0.043-0.493-0.043-0.493c0-0.115-0.031-1.146-0.031-1.455
			c0.014-0.484-0.469-0.668-1.045-0.692c-0.154-0.009-0.293-0.007-0.449-0.017c-0.021,1.115-0.028,2.166-0.049,3.264
			c-0.688-0.004-1.366-0.002-2.088-0.004c0.039-2.569,0.075-5.022,0.111-7.581C253.387,274.988,254.775,275.005,256.2,275.062z"/>
		<path fill="#004E82" d="M255.348,278.062c0.025-0.379,0.043-0.371,0.034-1.062c0.027-0.898-0.247-0.867-0.901-0.893
			c-0.152,0.002-0.312,0.002-0.446-0.008c-0.013,0.781-0.021,1.529-0.03,2.311c0.312,0.011,0.643,0.016,0.958,0.021
			C255.206,278.439,255.348,278.232,255.348,278.062z"/>
		<path fill="#00295C" d="M254.975,276.998c0-0.029,0-0.047,0-0.064c0.015-0.385-0.054-0.457-0.061-0.468
			c-0.051-0.028-0.232-0.034-0.389-0.032c0.018,0-0.034,0-0.045,0.002c-0.021,0-0.035-0.012-0.057-0.012
			c-0.01,0.568-0.01,1.114-0.021,1.682c0.178-0.002,0.341,0.01,0.517,0.017c0.021-0.019,0.021-0.037,0.021-0.056
			c0-0.012,0-0.012,0-0.012c0-0.035,0.01-0.068,0.01-0.104c0.025-0.229,0.018-0.298,0.025-0.654
			C254.975,277.193,254.975,277.098,254.975,276.998z"/>
		<path fill="#FFFFFF" d="M260.361,275.41c0.377-0.059,0.838-0.041,1.387,0.005c1.518,0.137,2.607,0.259,2.618,1.771
			c-0.019,1.535-0.039,3-0.056,4.537c0,0.062-0.012,0.127-0.012,0.188c-0.027,1.043-1.338,1.266-2.984,1.128
			c-1.604-0.135-2.541-0.408-2.562-1.54c0.021-1.534,0.037-3.001,0.064-4.547C258.857,275.893,259.471,275.512,260.361,275.41z"/>
		<path fill="#004E82" d="M261.686,281.627c0.155,0.012,0.312,0.01,0.473,0.004c0.066-0.199,0.066-0.379,0.066-0.596
			c0.021-1.077,0.03-2.111,0.047-3.188c0.014-1.064-0.006-1.261-0.787-1.345c-0.153-0.017-0.276-0.021-0.433-0.006
			c-0.092,0.319-0.102,0.666-0.102,1.007c-0.019,1.088-0.028,2.128-0.046,3.229C260.895,281.15,260.857,281.543,261.686,281.627z"/>
		<path fill="#00295C" d="M261.693,281.305c0.039,0.016,0.076,0.016,0.111,0.016c0.027-0.104,0.019-0.211,0.027-0.323
			c0.007-1.08,0.023-2.104,0.033-3.185c0.01-0.402,0-0.765-0.055-0.905c0-0.019-0.037-0.054-0.34-0.089
			c-0.037,0-0.062,0.002-0.084,0.002c-0.027,0.172-0.035,0.346-0.046,0.531c0,0.062,0,0.125,0,0.188
			c-0.016,1.087-0.03,2.132-0.046,3.219c0,0.011,0.01,0.021,0,0.021c0,0.035,0,0.08,0,0.127c-0.009,0.125,0,0.261,0.064,0.32
			C261.409,281.268,261.511,281.299,261.693,281.305z"/>
		<path fill="#00295C" d="M257.391,283.104v-0.002l-0.675-0.029c-0.011-0.002-0.022-0.004-0.034-0.006
			c-0.809-0.125-1.326-0.471-1.514-1.03c-0.025-0.034-0.043-0.089-0.055-0.563c0-0.057-0.01-0.1-0.01-0.164
			c-0.018-0.341-0.024-1.05-0.018-1.293c0-0.089,0.018-0.352-0.652-0.369c-0.02,0-0.033,0-0.055,0
			c-0.02,1.103-0.027,2.151-0.046,3.262c-0.976-0.023-1.923-0.028-2.89-0.014c0.035-2.762,0.082-5.398,0.119-8.147
			c-0.168,0-0.338,0-0.508,0c0.008,0.078,0.014,0.153,0.014,0.231c0,0.017,0,0.035,0,0.055c0,0.145-0.035,0.521-0.327,0.859
			c-0.063,0.266-0.208,0.584-0.51,0.857c-0.033,2.343-0.066,4.686-0.101,7.023c1.308,0.017,2.609,0.022,3.915,0.022
			c0.008-0.136,0.01-0.271,0.012-0.405c0,0,0.012-0.299,0.012-0.369c0.267,0.401,0.781,0.812,1.783,0.947c0.008,0,0.02,0,0.024,0
			c0.019,0.002,0.037,0.006,0.058,0.008c0.121,0.006,0.241,0.012,0.362,0.018l0,0l0.922,0.053l0.003-0.012
			c0.09,0.004,0.182,0.008,0.272,0.012c0-0.146,0-0.293,0-0.441c0.004-0.121,0.004-0.239,0.008-0.36
			C257.463,283.201,257.426,283.148,257.391,283.104z"/>
		<path fill="#FFFFFF" d="M265.762,275.854c0.688,0.088,1.329,0.176,2.018,0.281c-0.035,2.535-0.064,4.969-0.102,7.516
			c-0.688-0.094-1.341-0.185-2.025-0.271C265.686,280.832,265.725,278.396,265.762,275.854z"/>
		<path fill="#FFFFFF" d="M269.043,276.325c1.658,0.256,3.242,0.542,4.907,0.883c0,0,0.073,1.147-1.408,0.81
			c-0.028,2.164-0.063,4.244-0.09,6.422c-0.707-0.141-1.384-0.252-2.068-0.369c0.027-2.165,0.052-4.239,0.081-6.418
			c-0.486-0.084-0.945-0.166-1.43-0.237C269.035,277.045,269.043,276.693,269.043,276.325z"/>
		<path fill="#004E82" d="M214.786,290.762c2.682-17.771,18.222-31.394,36.672-31.056c17.938,0.327,32.655,13.642,35.325,30.797
			c0.539-0.067,1.148-0.021,1.822,0.146v0.004c0.047,0.017,0.453,0.119,0.516,0.138c0.018,0.005,0.031,0.008,0.047,0.012
			c-0.001,0-0.006,0-0.008,0c0.191,0.052,0.429,0.109,0.695,0.179c-1.08-8.309-4.783-16.029-10.722-22.188
			c-7.309-7.583-17.12-11.86-27.623-12.058c-20.365-0.366-37.455,15.004-39.826,34.812c0.534-0.144,1.069-0.276,1.602-0.412
			C213.789,291.005,214.286,290.878,214.786,290.762z"/>
		<path fill="#004E82" d="M284.368,310.242c-5.619,13.316-18.925,22.574-34.235,22.293c-16.601-0.299-30.558-11.926-34.646-27.227
			c0,1.385,0,2.767,0,4.18c-0.003,0-0.005,0-0.007,0c0,0.807,0,1.385,0,1.465c0,0.006,0,0.009,0,0.009l-0.551,0.14
			c-0.168,0.039-0.341,0.08-0.51,0.119c5.836,14.006,19.543,23.992,35.66,24.286c10.505,0.19,20.464-3.729,28.047-11.041
			c4.043-3.897,7.146-8.51,9.192-13.555c-0.629-0.149-1.273-0.296-1.967-0.452L284.368,310.242z"/>
	</g>
	<polygon fill="#CC1645" points="344.65,219.574 366.914,228.504 382.852,229.25 382.852,470.08 344.65,470.08 	"/>
	<polygon fill="#CC1645" points="155.399,470.08 117.198,470.08 117.198,229.25 133.136,228.504 155.399,219.574 	"/>
</g>
<rect id="position" x="0.5" y="0.5" display="none" fill="none" stroke="#000000" width="499" height="499"/>
</svg>
