<?xml version="1.0" encoding="utf-8"?>
<!-- Generator: Adobe Illustrator 16.0.0, SVG Export Plug-In . SVG Version: 6.00 Build 0)  -->
<!DOCTYPE svg PUBLIC "-//W3C//DTD SVG 1.1//EN" "http://www.w3.org/Graphics/SVG/1.1/DTD/svg11.dtd">
<svg version="1.1" id="content" xmlns="http://www.w3.org/2000/svg" xmlns:xlink="http://www.w3.org/1999/xlink" x="0px" y="0px"
	 width="500px" height="500px" viewBox="0 0 500 500" enable-background="new 0 0 500 500" xml:space="preserve">
<g id="bounds">
	<rect x="1.088" y="0.319" fill="none" stroke="#EAEAEA" stroke-miterlimit="10" width="499.5" height="499.5"/>
</g>
<rect id="position" x="0.5" y="0.5" display="none" fill="none" stroke="#000000" width="499" height="499"/>
<g>
	<path fill="#FFFFFF" d="M247.491,401.153c-52.646-0.964-101.08-30.361-126.439-76.718l-5.399-9.881l-10.887,2.861
		c-1.483,0.389-2.981,0.787-4.472,1.209l-10.658,2.973v-55.633l-5.047-4.309c-1.031-0.881-1.898-1.869-2.588-2.932
		c-1.633-2.65-2.486-5.392-2.545-8.382v-0.387c0-5.82,4.193-9.725,5.031-10.444l0.864-0.757l6.475-1.848l12.518-3.452l1.776-8.636
		c6.411-31.175,23.142-59.976,47.108-81.096c26.885-23.714,61.296-36.77,96.915-36.77c0.873,0,1.746,0.005,2.615,0.023
		c39.295,0.717,75.938,16.702,103.23,45.014c19.047,19.752,32.142,44.209,37.864,70.718l1.856,8.596l8.494,2.276
		c4.379,1.168,8.049,2.205,10.968,3.078l0.864,0.256l1.245,0.437l4.564,1.468l0.374,11.781c-0.041,1.336-0.574,4.36-2.416,7.286
		l-3.263,5.192l1.483,5.951c0.184,0.729,0.302,1.462,0.354,2.18l0.115,2.1l0.148,12.678l-0.063,16.031l-0.046,0.746
		c-0.179,1.693-0.662,3.35-1.366,4.686c-3.097,5.99-8.851,9.236-16.261,9.236c-1.806,0-3.766-0.199-5.823-0.578l-10.356-1.914
		l-4.962,9.287c-7.197,13.475-16.472,25.729-27.562,36.43c-27.604,26.609-63.828,41.264-101.987,41.264l-0.632,0.006
		C248.889,401.182,248.188,401.167,247.491,401.153z"/>
	<path fill="none" d="M123.033,287.053c0,0.031,0,0.062,0,0.084c14.716,55.078,64.958,96.926,124.714,98.004
		C188.25,384.062,138.002,341.771,123.033,287.053z"/>
	<path fill="#00295C" d="M123.007,307.484c0,0,0-0.01,0-0.033c0-0.287,0-2.367,0-5.27c-7.37,1.723-14.667,3.508-22.043,5.602
		c0,0,0-49.359,0-53.943c-5.405,0.859-7.795-1.217-8.822-2.818c-0.487-0.821-1.232-2.776-1.258-4.718
		c0.026-1.125,0.276-2.172,0.941-3.015c0.317-0.374,0.531-0.696,0.885-1.091c5.328-1.548,10.558-3,15.764-4.373
		c-6.349,1.616-12.821,3.521-19.611,5.464l-0.908,0.26c0,0-3.28,2.857-3.182,6.672v0.162c0.054,2.403,0.933,4.224,1.733,5.526
		c1.114,1.727,3.576,4.203,8.448,4.428c0,5.719,0,54.264,0,54.264l3.925-1.104c6.859-1.914,13.772-3.559,20.31-5.091
		c0.608-0.134,1.229-0.28,1.835-0.423L123.007,307.484z"/>
	<path fill="#00295C" d="M132.989,278.462c6.553-1.442,11.403-4.663,14.227-9.245c0.008,8.549,0.026,17.211,0.08,25.918
		c0,1.326,0.016,2.639,0.023,3.973l0.026,2.658l0.005,0.973l1-0.168l2.574-0.45c1.506-0.253,2.942-0.489,4.366-0.724
		c6.287-1.041,11.834-1.901,17.167-2.654l2.653-0.383v-6.066c-7.127,1.033-14.062,2.171-21.189,3.396
		c-0.175-22.842-0.077-44.773-0.113-67.613c-1.297,0.225-2.63,0.44-4.033,0.696l-2.561,0.438v4.849
		c2.28,3.431,2.208,9.729,2.208,19.281c0,0.43-0.036,0.825-0.036,1.249c0,0.367,0,0.667,0,0.989
		c-0.077,8.859-5.333,14.753-14.451,16.777c-3.997,0.854-7.87,1.728-11.906,2.688c0,1.871,0,3.729,0,5.576
		c2.594-0.569,7.989-1.729,9.505-2.062C132.821,278.498,132.989,278.462,132.989,278.462z"/>
	<path fill="#E91A4F" d="M211.333,264.934l7.012,4.549c3.829,4.877,7.481,9.705,10.812,14.479c0-0.279,3.353,2.883,3.353,2.596
		c0-14.344-1.209-44.747-1.209-48.729c-3.223,0.133-9.505-1.215-9.505-1.215s-12.445,0.877-16.318,1.215
		C205.477,237.824,211.333,258.788,211.333,264.934z"/>
	<path fill="#00295C" d="M197.552,230.961v10.24h8.696c1.393-0.121,2.462-0.222,2.462-0.222c3.874-0.335,6.988-1.812,9.33-4.358
		v4.127c0,0,7.919-0.326,11.15-0.459c0,4.064,0,29.475,0,43.686c0,3.834,0,6.852,0,8.406c0,0.754,0,1.168,0,1.168l0.729-0.018
		l5.457-0.067l23.546-0.263c0,0,0-49.24,0-53.92c2.182-0.537,2.797-1.43,4.422-2.688l0.078-0.07c0.221-0.189,0.42-0.373,0.623-0.562
		c-0.203,1.23-0.291,2.51-0.314,3.861v37.592c0.072,9.828,6.096,14.217,12.814,16.297c1.521,0.457,3.068,0.814,4.592,1.076
		c2.977,0.536,5.875,0.766,8.234,0.941c12.275,0.783,20.199-0.871,24.987-5.221c0.921-0.834,1.692-1.781,2.347-2.787v0.439v7.752
		l1.885,0.236l0.823,0.091c7.526,0.938,14.448,1.901,21.187,2.972l3.582,0.58l3.476,0.621c1.996,0.34,3.923,0.678,5.797,1.021
		c1.934,0.354,3.821,0.707,5.698,1.059c0.947,0.184,1.891,0.365,2.837,0.555c2.151,0.424,4.292,0.844,6.416,1.295l2.599,0.543
		l1.141,0.23v-3.027v-39.537c1.929,4.045,4.77,7.016,7.896,9.316c1.828,1.369,3.749,2.494,5.64,3.508
		c0.033,2.073,0.05,5.564,0.05,8.9c0,1.779,0,3.838-0.011,5.287c1.89,0.428,3.814,0.887,5.804,1.377
		c0-3.937,0.067-17.697-0.11-19.729c0-0.073-0.168-0.096-0.24-0.132c-0.146-0.073-0.351-0.174-0.49-0.232
		c-5.026-2.578-11.006-6.257-13.736-13.332c-0.668-1.731-0.764-4.5-0.812-7.378c-0.075-4.008,0.629-9.771,0.629-10.264
		c1.021-4.48,5.072-6.49,11.354-5c-0.228-0.062-1.688-0.436-1.856-0.492l-0.014-0.021c-2.426-0.603-4.621-0.766-6.562-0.525
		c-1.665,0.203-3.154,0.68-4.438,1.506c-1.312,0.827-2.364,1.962-3.11,3.353v-7.218l-0.396-0.074c0,22.971,0,44.905,0,67.895
		c-6.896-1.468-13.577-2.76-20.66-3.998c0,0-3.824-9.373-7.027-17.18c0,5.443,0,10.555,0,15.969
		c-7.02-1.146-14.021-2.131-21.081-3.02c0-22.902,0-44.707,0-67.568c0-0.027,0-0.044,0-0.068c0.825-0.029,2.425-0.037,2.425-0.037
		c0.586-0.025,1.216-0.021,1.887,0.028c-1.893-0.297-3.643-0.397-5.138-0.369l-5.474,0.188v5.139
		c1.168,2.236,1.854,5.091,1.875,8.777v37.923c0,0-0.039,1.572-0.039,1.6c-0.044,3.377-1.246,6.174-3.537,8.317
		c-4.027,3.723-11.354,5.183-22.447,4.473c-8.939-0.694-22.457-1.741-22.574-15.385V236.14c0.076-8.148,3.646-13.23,10.875-15.426
		c-0.027,0.008-0.079,0.008-0.123,0.021c-1.023,0.172-1.986,0.385-2.914,0.639c-1.639,0.434-3.128,0.985-4.471,1.679
		c-1.768,0.89-3.307,1.968-4.586,3.257c-0.562,1.38-1.475,2.827-2.953,4.098c-1.869,1.476-4.189,2.301-6.896,2.559
		c0,18.219,0,35.652,0,53.916c-7.42-0.066-14.581,0-21.994,0.254c0-18.18,0-35.617,0-53.773c-3.858,0.101-7.3,0.263-11.034,0.459
		c0-4.843,0-9.469,0-14.279c1.122-0.066,2.235-0.113,3.35-0.162c-2.542,0.08-5.088,0.191-7.661,0.317L197.552,230.961z"/>
	<path fill="#00295C" d="M413.253,299.68c0,0-0.077,0.984-0.459,1.717c-2.209,4.27-6.924,5.688-14.369,4.102
		c0.042,0-0.025-0.031-0.025-0.031c-7.062-1.841-13.466-3.406-20.532-4.99c0-4.311,0-8.4,0-12.711l-0.864-0.199l-4.871-1.148
		l-0.007,3.51v12.161v3.065l2.396,0.529c2.488,0.562,4.813,1.094,7.077,1.629c4.289,1.02,8.418,2.053,13.242,3.312l0.059,0.014
		l0.096,0.055c10.926,2.353,15.447-1.791,17.458-5.674c0.632-1.188,0.766-2.516,0.802-2.902l0.005-0.105l0.037-4.654l0.041-9.127
		c0-0.449,0-0.977-0.006-1.561c-0.013,5.316-0.077,10.391-0.077,12.943C413.253,299.65,413.253,299.68,413.253,299.68z"/>
	<path fill="#00295C" d="M176.041,279.207l0.075,2.523l0.088,16.551l3.821-0.465c6.372-0.822,12.659-1.506,20.367-2.215l0.155-0.002
		c11.779-1.555,17.754-7.354,17.754-17.285l0.01-1.254l0.028-6.221l0.01-1.357l0.028-4.049c0-6.146-0.043-9.507-0.134-11.477
		c0.028,2.061,0.042,4.736,0.042,8.128c0,3.647-0.078,7.812-0.078,12.884c0,10.064-6.769,12.979-14.779,13.898
		c0.028-0.008-0.041,0-0.041,0c-7.065,0.656-13.595,1.352-20.478,2.213c0-4.281-0.075-8.459-0.075-12.705
		c0.077-0.021,0.154-0.021,0.237-0.021C179.506,278.779,176.048,279.207,176.041,279.207L176.041,279.207z"/>
	<path fill="#00295C" d="M344.327,227.682c0,1.049,0,2.452,0,3.479c2.233,2.318,4.18,5.278,5.536,9.01
		c0.146,0.525,0.327,0.944,0.467,1.514c0-4.876,0-9.523,0-14.363c-0.369-0.066-0.729-0.124-1.075-0.191
		c-2.203-0.391-3.871-0.695-4.564-0.812c-0.232-0.038-0.369-0.06-0.369-0.06S344.327,226.855,344.327,227.682z"/>
	<path fill="#00295C" d="M416.81,247.555v-0.169c0,0.26,0.009,0.519,0.009,0.772c0,0.075-0.53,2.49-1.913,3.874
		c-1.82,2.166-4.593,2.749-8.148,1.756c-3.512-0.943-7.001-1.862-10.514-2.812c0,0.528,0,0.979,0,1.514
		c0,2.199,1.721,3.869,4.552,5.953c1.227,0.32,2.334,0.615,2.334,0.615c6.258,1.739,9.684-0.94,11.194-2.713
		c-0.05,0.065-0.091,0.111-0.156,0.168l0.169-0.188c-0.006,0.013-0.006,0.013-0.013,0.021c0.007-0.008,0.007-0.013,0.013-0.025
		c1.941-2.092,2.563-5.166,2.563-5.884L416.81,247.555z"/>
	<path fill="#00295C" d="M175.497,253.213c3.177,7.082,9.786,9.146,14.201,10.047c0.013,3.336,0.057,11.758,0.072,14.234v0.008
		c2.208-0.258,4.433-0.503,6.728-0.761c0-6.651-0.098-13.001-0.098-19.657c-0.072,0-0.25,0-0.25-0.072
		c-0.172-0.027-0.317-0.064-0.492-0.064c-5.023-0.852-10.998-2.368-13.727-8.462c-0.678-1.513-0.817-4.195-0.817-7.146
		c0-3.901,0.279-7.932,0.454-9.146c0,0.104,0,0.164,0,0.24c0-0.531,0.18-1.02,0.18-1.52c0.872-4.105,3.881-6.985,8.45-8.268
		c0.013,0,0.037,0,0.049-0.007c0.879-0.235,1.808-0.429,2.798-0.547l0.237-0.058c-1.999,0.236-5.805,0.52-8.623,1.238
		c-0.619,0.168-1.181,0.341-1.674,0.547c-1.491,0.627-2.744,1.547-3.84,2.561c-1.841,1.718-3.148,3.842-3.84,6.362
		c0,6.706,0,13.357,0,19.995C175.37,252.895,175.435,253.057,175.497,253.213z"/>
	<path fill="#004E82" d="M122.788,262.551c0-4.843,0-9.502,0-14.385c0.312-0.095,0.632-0.134,0.985-0.229
		c0.668-0.088,1.37-0.223,2.035-0.383c0.841-0.133,1.016,0.042,1.364,0.818c0,0.43,0.075,11.498,0.075,13.177
		C125.732,261.861,124.293,262.189,122.788,262.551z"/>
	<path fill="#004878" d="M385.664,275.383c-1.888-1.006-3.812-2.139-5.64-3.51c-0.71,5.203-1.725,10.709-3.023,15.684l0.864,0.197
		c0-0.004,0-0.02,0-0.037c2.7,0.652,5.253,1.234,7.837,1.846c0.01-1.439,0.01-3.508,0.01-5.285
		C385.712,280.947,385.699,277.455,385.664,275.383z"/>
	<path fill="#004E82" d="M403.79,306.486c-1.617,0-3.453-0.219-5.438-0.646l0.021-0.255l-0.127,0.206
		c-7.578-1.975-13.901-3.504-20.454-4.967l-0.278-0.064v-13.453l0.441,0.064l7.834,1.842c1.742,0.396,3.521,0.82,5.358,1.27
		l0.003-2.424c0.01-5.301,0.028-15.16-0.117-16.812l-0.522-0.076c-5.357-2.743-11.188-6.49-13.915-13.527
		c-0.684-1.783-0.789-4.568-0.838-7.5c-0.057-3.061,0.343-7.146,0.529-9.111c0.061-0.62,0.102-1.044,0.102-1.158
		c0.854-3.797,3.658-5.848,7.896-5.848c1.192,0,2.507,0.168,3.895,0.5l0.021,0.207l0.044-0.164c0.225,0.048,1.461,0.357,3.353,0.842
		c9.894,2.532,17.142,4.492,22.151,5.998l2.209,0.729c0.248,0.083,1.047,0.306,1.047,0.306v0.273
		c0.008,1.148,0.057,2.275,0.113,3.396l0.057,2.052c0,0.148-0.559,2.665-2.019,4.123c-1.29,1.543-3.079,2.332-5.296,2.332
		c-0.98,0-2.064-0.162-3.203-0.479c0,0-7.767-2.064-10.062-2.691v1.041c0,2.043,1.617,3.627,4.404,5.662
		c0.523,0.379,2.654,1.873,2.654,1.873c0.523,0.402,0.983,0.711,1.439,1.021c0.479,0.322,0.957,0.646,1.385,0.979
		c1.413,0.961,2.303,1.791,3.078,2.559c2.471,2.398,3.693,4.645,3.874,7.052l0.103,1.828c0.098,2.91,0.139,7.64,0.139,12.55v0.637
		c0,2.936-0.02,5.793-0.041,8.197l-0.028,4.742c-0.005,0.155-0.093,1.182-0.5,1.969C411.425,304.826,408.281,306.486,403.79,306.486
		L403.79,306.486z"/>
	<path fill="#FFFFFF" d="M393.229,251.738c0-1.764,0-2.688,0-4.095c4.533,1.142,8.992,2.323,13.525,3.573
		c2.875,0.785,4.389-0.1,5.583-1.25c0.843-1.178,1.372-2.488,1.372-2.883c0-0.893-0.111-1.772-0.111-2.625
		c-5.365-1.578-25.138-6.754-25.324-6.754c-4.729-1.18-7.683-0.162-8.561,3.311c-0.137,0.621-0.146,0.979-0.146,0.979
		c0,0.162-1.057,11.662,0.211,15.27c2.043,5.441,6.221,8.465,11.77,11.313c0.32,0.209,0.957,0.456,1.437,0.756
		c0.521,0.36,1.106,0.786,1.444,1.366c0,7.977,0.108,15.609,0.108,23.574c-4.536-1.183-9.105-2.23-13.646-3.279
		c0,2.557,0,5.023,0,7.576c5.865,1.377,11.554,2.684,17.434,4.277c6.369,1.75,9.906,0.67,11.602-3.094
		c0.348-0.502,0.316-0.928,0.316-0.928c0-1.842,0.146-23.152-0.134-27.827c-0.185-1.733-1.134-3.14-2.646-4.646
		c-0.838-0.748-1.75-1.44-2.602-2.166c-1.008-0.729-2.039-1.441-3.05-2.103C397.763,259.268,393.229,256.25,393.229,251.738z"/>
	<path fill="#004E82" d="M371.647,299.639c-6.631-1.414-13.186-2.684-20.646-3.99l-6.602-15.74v14.6l-0.421-0.07
		c-6.634-1.086-13.53-2.072-21.071-3.016l-0.312-0.045V223.14l0.35-0.077c0.838-0.029,2.438-0.036,2.438-0.036l0.68-0.013
		c0.39,0,0.805,0.013,1.228,0.041c2.917,0.184,10.368,1.23,16.515,7.074l0.785,0.777c2.305,2.386,4.114,5.254,5.392,8.531v-12.538
		l0.419-0.062c6.284,1.076,12.535,2.271,19.663,3.768l2.021,0.404v68.729L371.647,299.639z"/>
	<path fill="#FFFFFF" d="M368.698,296.084c-5.196-1.086-10.162-2.062-15.524-3.012c-4.04-10.07-8.081-19.635-12.127-29.605
		c0,9.277,0,18.227,0,27.527c-5.196-0.773-9.864-1.469-15.101-2.169c0-21.265,0.041-41.595,0.041-62.854
		c0,0,15.377-0.664,20.959,14.426c1.877,5.478,3.523,10.712,5.178,16.143c0.524,1.344,0.738,2.595,1.233,3.901
		c0-10.159,0-19.925,0-30.146c5.183,0.944,10.109,1.893,15.349,2.97C368.698,254.527,368.698,274.811,368.698,296.084z"/>
	<path fill="#004E82" d="M297.609,289.998c-1.606,0-3.323-0.059-5.145-0.175c-9.099-0.71-22.788-1.779-22.898-15.743v-37.936
		c0.07-8.367,3.703-13.527,11.123-15.781c1.071-0.312,2.199-0.564,3.408-0.784c1.786-0.284,3.653-0.417,5.87-0.417
		c1.625,0,3.438,0.074,5.532,0.221c8.689,0.682,17.633,1.396,21.456,8.83c1.271,2.418,1.896,5.34,1.922,8.938v37.925l-0.039,1.605
		c-0.035,3.467-1.269,6.35-3.655,8.574C311.74,288.449,305.991,289.998,297.609,289.998L297.609,289.998z"/>
	<path fill="#FFFFFF" d="M295.27,222.828c-4.215-0.289-7.584-0.316-10.606,0.162c-6.925,1.153-11.56,4.389-11.623,13.175
		c0,12.835,0,25.108,0,37.915c0.071,9.379,7.414,11.341,19.712,12.298c12.659,0.82,22.563-1.085,22.665-9.729
		c0-0.527,0.041-1.055,0.041-1.574c0-12.823,0-25.077,0-37.922C315.329,224.561,306.899,223.751,295.27,222.828z M299.583,269.566
		c0,0.787-0.06,1.549-0.06,2.33c-0.182,0.81-0.182,1.541-0.362,2.354c-0.177,0.168-0.322,0.261-0.524,0.395
		c-1.156,0.084-2.201,0-3.203-0.035c-6.283-0.527-6.356-3.842-6.217-7.418c0-9.11,0-17.782,0-26.9c0-1.15-0.107-2.592,0.069-4.005
		c0-1.476,0.221-2.847,0.562-4.124c0.221-0.096,0.354-0.227,0.529-0.381c0.986-0.039,1.9-0.102,2.875,0.025
		c6.3,0.551,6.328,2.309,6.328,11.152C299.583,251.963,299.583,260.557,299.583,269.566z"/>
	<path fill="#00295C" d="M296.502,269.566c0,0-0.054,1.617-0.057,1.982c-0.036,0-0.184,0-0.184,0s-0.437-0.021-0.6-0.021
		c-2.926-0.246-3.38-0.764-3.38-2.799c0-0.404,0.01-0.857,0.041-1.398v-0.127V240.3l-0.023-1.037
		c-0.008-0.358-0.008-0.725-0.008-1.077c0-0.519,0.008-1.021,0.071-1.496l0.027-0.203v-0.189c0-0.484,0.039-0.963,0.094-1.449
		c0.125,0.008,0.256,0.008,0.375,0.021l0.072,0.016l0.073,0.002c1.263,0.109,2.812,0.333,3.022,0.756
		c0.481,0.977,0.481,3.909,0.481,7.312v26.608h-0.007V269.566z"/>
	<path fill="#004E82" d="M236.5,233.711c-3.705,0.103-7.047,0.26-10.657,0.451l-0.374,0.021v-14.995c0,0,2.571-0.135,3.675-0.184
		c8.391-0.366,16.475-0.541,24.727-0.541c4.189,0,8.409,0.043,12.688,0.139l0,0c0.537,0,1.067,0.016,1.572,0.039
		c0.444,0.018,1.549,0.035,1.549,0.035l0.065,0.281c0.19,0.854,0.19,1.668,0.19,2.529v0.422c0,0.871-0.115,2.625-0.896,4.531
		c-0.679,1.652-1.7,3.07-3.051,4.23c-1.812,1.424-4.08,2.303-6.774,2.612v53.945c0,0-3.845-0.024-5.574-0.024
		c-5.85,0-11.329,0.088-16.768,0.271l-0.374,0.02L236.5,233.711L236.5,233.711z"/>
	<path fill="#FFFFFF" d="M255.836,230.436c0,18.224,0,35.597,0,53.854c-5.364-0.069-10.575,0-15.947,0.153
		c0-18.174,0-35.59,0-53.771c-3.693,0.092-7.177,0.197-11.037,0.386c0-3.081,0-6.04,0-9.075c12.76-0.618,24.917-0.722,37.698-0.425
		C266.55,221.555,267.438,231.016,255.836,230.436z"/>
	<path fill="#004E82" d="M182.704,290.947c0-2.15-0.023-4.268-0.044-6.377c-0.021-2.104-0.039-4.209-0.039-6.334v-0.291l0.287-0.062
		l0.469,0.297l-0.049-0.35c2.191-0.311,4.36-0.578,6.547-0.834l6.411-0.723c-0.002-3.213-0.028-6.361-0.057-9.504
		c-0.021-3.172-0.049-6.336-0.049-9.564l-0.119-0.055c-6.006-0.967-11.633-2.681-14.322-8.664c-0.745-1.665-0.843-4.617-0.843-7.292
		c0-3.983,0.294-8.04,0.457-9.198c0,0,0.064-0.373,0.093-0.562c0.042-0.221,0.083-0.44,0.083-0.67
		c0.895-4.266,3.984-7.29,8.711-8.609c0.946-0.248,1.893-0.442,2.898-0.574c0.358-0.02,0.513-0.051,0.652-0.076
		c2.883-0.371,15.374-1.561,25.073-2.164l0.508-0.029c0.575-0.022,1.101-0.061,1.681-0.1l0.931-0.069l0.028,0.388
		c0,0.386,0.056,0.76,0.103,1.129c0.059,0.398,0.108,0.804,0.108,1.24c0,0.268,0.021,0.523,0.039,0.781
		c0.023,0.258,0.039,0.523,0.039,0.789c0,0.28-0.021,0.547-0.041,0.799c-0.018,0.217-0.036,0.428-0.036,0.64
		c-0.021,0.696-0.428,2.468-1.702,4.505c-1.939,3.056-4.75,4.699-8.598,5.028c-3.404,0.253-6.743,0.542-10.173,0.894v1.146
		c0.026,2.107,1.697,3.113,4.753,4.225l2.135,0.742v0.012l0.521,0.133c0.851,0.273,1.653,0.541,2.377,0.835
		c1.277,0.464,2.215,0.921,3.12,1.519c2.476,1.556,3.734,3.387,3.951,5.777c0.072,0.874,0.113,2.228,0.142,4.086
		c0.028,2.061,0.036,4.744,0.036,8.127c0,1.684-0.016,3.459-0.028,5.395c-0.021,2.271-0.044,4.749-0.044,7.493
		c0,11.103-8.071,13.448-15.101,14.261l-0.041-0.217v0.217c-7.419,0.686-13.917,1.391-20.475,2.219l-0.4,0.051v-0.406h0.008V290.947
		L182.704,290.947z"/>
	<path fill="#FFFFFF" d="M218.7,225.057c0,0-0.242,1.598-1.266,3.213c-1.161,1.671-2.628,3.086-5.699,3.375
		c-4.531,0.377-8.946,0.717-13.525,1.215c0,1.408,0,2.723,0,4.059c0.222,4.562,4.389,5.996,8.577,7.352
		c1.019,0.328,2.035,0.653,3.056,1.042c0.982,0.333,1.756,0.784,2.604,1.202c1.511,0.998,2.452,2.035,2.633,3.779
		c0.322,4.722,0.139,25.767,0.108,25.804c0,0.457-0.201,2.772-0.604,3.715c-1.839,4.304-6.047,5.646-11.274,6.381
		c-6.047,0.488-11.519,1.199-17.429,1.959c0-2.559-0.042-5.051-0.042-7.579c4.719-0.618,9.131-1.104,13.667-1.539
		c0-7.952-0.098-15.521-0.098-23.486c-0.317-0.553-0.918-0.759-1.413-0.918c-0.524-0.129-1.122-0.168-1.478-0.228
		c-5.539-0.891-9.696-2.436-11.769-7.147c-1.267-3.178-0.173-15.051-0.173-15.211c0,0-0.072-0.424,0.096-1.046
		c0.892-3.765,3.873-5.869,8.582-6.323c0.206-0.131,0.493-0.072,0.699-0.131c3.226-0.393,20.171-1.834,24.74-2.098
		C218.875,223.068,218.875,224.038,218.7,225.057z"/>
	<path fill="#004E82" d="M153.562,295.691c-0.122-15.354-0.114-30.295-0.106-45.377c0-7.357-0.008-22.545-0.008-22.545l0.296-0.336
		c7.252-1.303,12.956-2.242,18.502-3.049c0.565-0.102,1.132-0.183,1.707-0.268l1.718-0.262v68.763h-0.361
		c-6.506,0.951-13.239,2.035-21.329,3.427l-0.415,0.07L153.562,295.691z"/>
	<path fill="#FFFFFF" d="M172.298,290.125c-5.211,0.781-10.16,1.531-15.397,2.455c0-21.238-0.067-41.525-0.067-62.771
		c5.237-0.948,10.253-1.696,15.464-2.48C172.298,248.553,172.298,268.879,172.298,290.125z"/>
	<path fill="#004E82" d="M100.605,254.258c-0.73,0.098-1.405,0.143-2.024,0.143c-0.008,0-0.008,0-0.008,0
		c-3.881,0-5.802-1.729-6.735-3.186c-0.516-0.877-1.282-2.894-1.31-4.908c0.042-1.371,0.376-2.426,1.016-3.238l0.387-0.477
		c0.155-0.209,0.314-0.408,0.523-0.637c5.488-1.653,10.725-3.105,15.939-4.475l0.882-0.232c1.919-0.513,3.84-0.998,5.766-1.484
		c1.898-0.478,8.105-1.98,8.105-1.98l0.699-0.179c2.022-0.478,4.054-0.948,6.102-1.397l6.256-1.372l0.66-0.098
		c1.168-0.118,2.032-0.168,2.836-0.168c2.994,0,5.095,0.61,6.604,1.919c0.142,0.116,0.271,0.231,0.397,0.371
		c0.167,0.171,0.273,0.305,0.374,0.431c0.222,0.263,0.338,0.415,0.441,0.569c2.267,3.412,2.267,9.459,2.264,18.605l-0.036,3.11
		c-0.077,8.95-5.307,15.034-14.729,17.128c-3.909,0.838-7.689,1.688-11.625,2.623v27.217h-0.361
		c-6.496,1.53-14.237,3.396-21.971,5.594l-0.459,0.127v-54.006H100.605z"/>
	<path fill="#FFFFFF" d="M136.276,233.746c-14.296,3.08-27.999,6.553-42.265,10.679c0,0-1.653,9.503,9.949,6.134
		c0,18.188-0.15,35.646,0.028,53.818c5.376-1.449,10.65-2.826,16.021-4.072c0-9.172,0-17.963,0-27.141
		c5.06-1.209,9.908-2.297,14.931-3.406c6.921-1.533,11.385-5.836,11.424-13.59c0-0.332,0-0.625,0-0.984
		c0-0.414,0.031-0.844,0.031-1.344C146.396,235.645,145.764,232.798,136.276,233.746z M130.199,262.357
		c0,0.326-0.113,0.717-0.113,1.014c-0.66,0.206-1.287,0.361-1.962,0.551c-2.847,0.633-5.475,1.254-8.357,1.969
		c0-6.649,0-13.008,0-19.627c1.194-0.293,2.354-0.588,3.515-0.781c1.202-0.303,2.065-0.498,2.917-0.592
		c2.356-0.265,3.373,0.733,3.896,2.156c0.147,0.693,0.172,1.41,0.172,2.207c0,0.748,0.049,1.444,0.049,2.158
		C130.307,251.41,130.354,259.018,130.199,262.357z"/>
	<path fill="#00295C" d="M125.81,247.54c-0.667,0.171-1.369,0.302-2.037,0.393c-0.353,0.1-0.673,0.132-0.982,0.226
		c0,4.885,0,9.541,0,14.385c1.506-0.36,2.942-0.681,4.458-1.012c0-1.673-0.075-12.746-0.075-13.171
		C126.826,247.584,126.65,247.406,125.81,247.54z"/>
	<path fill="#E91A4F" d="M218.3,278.314c0,9.932-5.97,15.73-17.747,17.285l-0.163,0.002c-7.715,0.709-13.997,1.398-20.367,2.215
		l-3.821,0.465l-0.08-16.551l-0.077-2.523l0,0v-0.008c3.282-0.397,5.536-0.674,7.187-0.865c2.192-0.301,4.358-0.576,6.542-0.832
		v-0.008c-0.021-2.928-0.062-11.364-0.072-14.234c-4.42-0.9-11.021-2.965-14.199-10.047c-0.067-0.156-0.126-0.318-0.193-0.469
		c0,13.098,0,26.141,0,39.511c-0.059,0-0.124,0.017-0.198,0.036v6.066l-2.654,0.383c-5.322,0.753-10.877,1.613-17.164,2.656
		c16.978,12.006,44.049,23.773,86.092,26.166c0.645-10.805-4.069-22.188-11.49-34.031l-0.728,0.018c0,0,0-0.414,0-1.168
		c-3.218-5.018-6.906-10.123-10.859-15.297L218.3,278.314z"/>
	<path fill="#E91A4F" d="M147.345,301.766c-6.584-5.273-11.393-10.473-14.815-14.875c5.354,19.299,15.449,37.086,29.743,51.9
		c8.154,8.457,17.329,15.559,27.244,21.248c16.612,2.781,29.57,0.949,38.485-5.575c6.743-4.937,11.006-12.417,12.754-22.218
		c-46.607-2.559-75.265-16.277-92.406-29.686l-1,0.172L147.345,301.766z"/>
	<path fill="#E91A4F" d="M353.433,301.43c-1.875-0.338-3.809-0.678-5.797-1.016l-3.475-0.621l-3.582-0.58
		c-6.742-1.068-13.661-2.035-21.188-2.972l-0.821-0.091c-3.705,9.506-6.619,18.5-8.354,26.348
		C329.585,317.748,343.669,310.227,353.433,301.43z"/>
	<path fill="#E91A4F" d="M246.055,327.781c8.855,0.344,18.358,0.279,28.542-0.273c1.078-10.438,1.711-21.852,1.92-33.797
		c-6.719-2.08-12.736-6.469-12.812-16.297v-37.592c0.021-1.352,0.109-2.631,0.314-3.861c-0.205,0.197-0.402,0.373-0.625,0.562
		l-0.076,0.07c-1.623,1.266-2.234,2.15-4.424,2.688c0,4.688,0,53.92,0,53.92l-23.545,0.263
		C242.352,305.186,246.718,316.605,246.055,327.781z"/>
	<path fill="#E91A4F" d="M305.148,323.658c2.061-10.598,6.251-22.938,11.536-35.501v-0.446c-0.659,1.009-1.432,1.949-2.354,2.791
		c-4.787,4.348-12.715,6.002-24.988,5.219c-2.354-0.176-5.254-0.396-8.233-0.934c-0.209,11.318-0.778,22.249-1.805,32.396
		C288.732,326.498,297.346,325.288,305.148,323.658z"/>
	<path fill="#E91A4F" d="M311.296,347.756c2.744,3.305,7.906,3.77,15.297,1.424c2.826-2.291,5.594-4.693,8.252-7.267
		c11.671-11.248,20.797-24.446,27.117-38.879c-0.938-0.191-1.883-0.374-2.831-0.55c-10.701,10.645-26.893,19.723-49.896,25.045
		C307.714,336.781,308.149,343.98,311.296,347.756z"/>
	<path fill="#E91A4F" d="M247.909,376.098c-16.349-0.289-32.144-3.774-46.69-10.136c12.102,0.36,22.022-2.204,29.539-7.718
		c7.782-5.694,12.808-14.592,14.701-25.773c8.895,0.338,18.42,0.275,28.614-0.264c-2.319,19.316-6.244,34.833-11.945,43.307
		C257.425,375.971,252.7,376.182,247.909,376.098z M267.927,374.811c5.24-9.824,8.776-24.953,10.857-42.9
		c9.271-0.643,17.76-1.775,25.528-3.324c-1.314,9.662-0.5,17.504,3.382,22.158c2.516,3.018,6.064,4.516,10.6,4.562
		C303.158,365.539,286.023,372.18,267.927,374.811z"/>
	<path fill="#E91A4F" d="M132.989,278.462c0,0-0.167,0.036-0.454,0.091c2.7,4.127,7.357,10.148,14.768,16.572
		c-0.06-8.706-0.075-17.367-0.08-25.916C144.392,273.799,139.546,277.02,132.989,278.462z"/>
	<path fill="#E91A4F" d="M149.926,228.615c1.406-0.248,2.736-0.471,4.033-0.691c0-0.098,0-0.195,0-0.285
		c6.253-1.128,12.257-2.139,18.489-3.047c1.008-0.184,2.022-0.301,3.01-0.463c0,2.831,0,5.66,0,8.473
		c0.688-2.514,2.006-4.645,3.839-6.357c-10.944-16.219-19.668-33.416-21.901-51.527c-14.108,16.481-23.43,36.468-27.231,57.693
		c0.268-0.068,0.526-0.115,0.8-0.174c1.166-0.27,3.001-0.666,3.909-0.859c0.232-0.049,0.415-0.088,0.492-0.106
		c0.364-0.082,0.709-0.149,1.065-0.231c0.013,0,0.059-0.005,0.1-0.014c0.055-0.007,0.098-0.015,0.075-0.015c0.013,0,0.023,0,0.046,0
		c0.209-0.028,0.523-0.083,0.631-0.091c4.309-0.406,7.118,0.127,8.93,1.697c0.005,0,0.005,0,0.005,0
		c0.126,0.103,0.25,0.222,0.374,0.348c0.018,0.021,0.031,0.037,0.051,0.049c0.108,0.113,0.209,0.232,0.302,0.359
		c0.034,0.035,0.054,0.057,0.083,0.085c0.119,0.146,0.227,0.297,0.338,0.464v-4.851L149.926,228.615z"/>
	<path fill="#E91A4F" d="M350.33,227.188c6.646,1.139,13.051,2.382,19.652,3.769c-3.492-18.115-11.021-34.858-21.612-49.214
		c3.76,13.041,5.148,28.116,0.885,45.377c0.348,0.068,0.706,0.127,1.075,0.201C350.33,227.283,350.33,227.235,350.33,227.188z"/>
	<path fill="#E91A4F" d="M268.632,210.348c-0.067,0-0.135-0.014-0.2-0.021c-0.022,0-0.066,0-0.089,0
		c-3.612-0.492-5.467-1.967-6.426-3.416c0,0.258-0.041,1.328-0.041,1.328c0,0.492-0.008,0.977-0.037,1.465
		c-4.698,0-9.383-0.029-14.092-0.078c0.126-8.429,0.248-16.859,0.364-25.287c-0.111,0.088-0.217,0.202-0.338,0.297
		c-0.485,0.417-1.104,0.722-1.787,0.972c-0.119,7.037-0.206,13.879-0.322,20.963c-0.32,0.01-0.627,0.022-0.936,0.03
		c-0.018,1.075-0.021,1.751-0.021,1.751c-0.036,0.451-0.049,0.897-0.077,1.352c-4.691,0.209-9.381,0.412-14.075,0.566
		c0,0,0.261-20.531,0.294-23.373c-0.786,0.046-2.166,0.111-3.303,0.173c0,0.044-0.007,0.087-0.007,0.126
		c0,0.008-4.794,0.413-7.396,0.619c-0.005,0.397-0.01,0.781-0.01,1.191c1.985-0.206,3.827-0.389,5.748-0.508
		c-0.025,2.677-0.064,5.245-0.093,7.969c-0.33,0.021-0.652,0.036-0.969,0.059c-0.016,0.611-0.019,1.202-0.026,1.787
		c-0.028,0.431-0.054,0.864-0.072,1.289c0,0-2.855,0.225-4.752,0.397c-0.018,0.606-0.026,1.197-0.044,1.808
		c2.914-0.28,5.629-0.511,8.409-0.732c0,2.166-0.034,4.244-0.069,6.375c-0.331,0.023-0.645,0.051-0.955,0.072
		c-0.015,0.984-0.023,1.97-0.043,2.96c-0.552,0.044-1.104,0.085-1.653,0.116c-5.923,0.441-11.937,1.026-18.468,1.789
		c-0.746,0.094-1.486,0.181-2.223,0.261c0.018-1.075,0.039-2.146,0.046-3.213c-1.411,2.2-3.85,3.726-7.045,4.227
		c-5.276,0.758-10.359,1.606-15.923,2.685c-0.82,0.146-1.623,0.301-2.445,0.451c0,0,0.296-21.432,0.325-23.923
		c-1.016-0.152-1.934-0.467-2.756-1.057c-0.893-0.668-1.98-1.906-1.955-4.005c0.013-0.163,0.029-0.335,0.037-0.503
		c0.005-0.069,0.021-0.131,0.025-0.196c0.105-0.634,0.227-1.256,0.343-1.882c0.361-0.072,0.725-0.145,1.083-0.222
		c1.147-0.222,2.28-0.428,3.412-0.643c0.007-0.021,0.007-0.036,0.007-0.041c7.053-1.418,13.851-2.607,21.009-3.646
		c0.01,0,0.021,0,0.041,0c1.947-0.196,3.298-0.087,4.239,0.351c0-0.291,0.013-0.585,0.013-0.882
		c0.498-0.059,0.987-0.116,1.485-0.165c1.083-0.124,2.143-0.232,3.206-0.351c0-0.044,0-0.087,0-0.126
		c5.351-0.614,10.441-1.112,15.699-1.535c0-0.008,0-0.028,0-0.033c0.554-0.036,1.104-0.078,1.653-0.122
		c0.33-0.021,0.642-0.033,0.978-0.051c0.077-0.008,0.165-0.021,0.248-0.029v0.008c0.606-0.026,1.215-0.075,1.813-0.096
		c0-0.008,0-0.016,0-0.031c6.488-0.413,12.635-0.666,19.226-0.769c0.388,0,0.859,0.007,1.357,0.007
		c0.015,0.075,0.015,0.147,0.028,0.23c0.604,0,1.224,0,1.828,0c0-0.088,0-0.175,0-0.258c4.397-0.021,8.738,0.028,13.121,0.155
		c-4.832-22.02-10.793-37.59-17.191-44.949c-31.3,0.31-60.816,12.332-83.436,34.134c-1.352,1.3-2.649,2.636-3.92,3.979
		c1.14,18.835,9.895,36.551,21.506,53.649c0.523-0.244,1.091-0.414,1.674-0.541c2.805-0.725,6.622-0.998,8.615-1.236l-0.234,0.049
		c0.049-0.006,0.101-0.014,0.154-0.021c0.245,0,0.493-0.068,0.702-0.096c2.602-0.332,14.933-1.504,24.84-2.133
		c0.168-0.008,0.331-0.016,0.498-0.02c0.831-0.058,1.294-0.094,1.294-0.094l0.428-0.028c0.178,0,0.353-0.005,0.521-0.028
		c0.019,0,0.026,0,0.026,0h0.002c2.581-0.117,5.126-0.219,7.658-0.314c12.571-0.541,24.699-0.676,37.382-0.402
		c1.024,0,2.015,0.075,2.847,0.075c0.184,0.825,0.184,1.606,0.184,2.457c0,0.134,0,0.302,0,0.437c0,0.822-0.104,2.52-0.865,4.385
		c1.273-1.289,2.812-2.369,4.577-3.256c-0.457-4.229-0.957-8.424-1.513-12.556C270.727,210.443,269.68,210.401,268.632,210.348z"/>
	<path fill="#E91A4F" d="M344.327,227.682c0-0.826,0-1.424,0-1.424s0.129,0.021,0.359,0.06c5.525-21.739,1.575-39.684-5.016-55.066
		c-21.293-23.012-51.323-37.853-84.912-39.126c7.209,10.461,12.457,28.03,16.144,45.223c2.679,0.544,3.882,1.658,4.41,3.625
		c1.633-1.418,3.842-2.034,5.821-2.264c0.646-0.087,1.283-0.119,1.925-0.131c0.373-0.077,0.775-0.149,1.188-0.209
		c1.66-0.222,3.439-0.144,5.343,0.034c3.015,0.263,6.17,0.583,8.3,2.068c0-0.208,0-0.41,0-0.624
		c1.568,0.222,3.125,0.431,4.688,0.663c0-0.242,0.016-0.469,0.016-0.698c2.938,0.358,5.742,0.763,8.705,1.163
		c0.471,0.078,0.934,0.163,1.424,0.201c0,0.263,0,0.523-0.016,0.794c0.58,0.087,1.137,0.186,1.696,0.276c0-0.266,0-0.531,0-0.789
		c6.463,0.975,12.677,2.071,19.093,3.407c0.496,0.085,0.882,0.196,1.354,0.289c0,0.356,0,0.675,0.06,1.062c0,0.072,0,0.131,0,0.188
		c0,0.503-0.111,1.738-1.07,2.711c-0.193,1.149-0.826,2.641-2.646,3.683c-0.415,0.216-0.896,0.357-1.392,0.461
		c-0.095,6.771-0.198,13.337-0.292,20.15c-0.32-0.062-0.641-0.119-0.955-0.182c-0.033,1.226-0.033,1.981-0.033,1.981
		c-0.021,0.645-0.051,1.281-0.074,1.921c-4.656-0.805-9.314-1.641-13.979-2.488c0,0,0.294-21.078,0.294-23.115
		c-0.729-0.108-1.452-0.228-2.174-0.354c-0.082,6.432-0.188,12.798-0.288,19.327c-0.31-0.049-0.627-0.083-0.929-0.126
		c-0.021,0.639-0.028,1.271-0.028,1.918c-0.031,0.598-0.047,1.201-0.068,1.812c-4.618-0.611-9.225-1.232-13.84-1.887
		c0.02-1.16,0.029-2.316,0.061-3.469c-0.27,0.253-0.545,0.495-0.854,0.717c-2.408,1.658-6.344,2.326-11.76,1.926
		c-0.137-0.008-0.271-0.025-0.402-0.025c-1.978-0.168-5.469-0.484-8.144-2.009c0.509,3.912,0.985,7.911,1.433,12.007
		c0.93-0.244,1.883-0.467,2.908-0.635c0.047-0.023,0.102-0.023,0.126-0.028c1.056-0.31,2.173-0.557,3.364-0.774
		c2.979-0.479,6.367-0.533,11.314-0.197h0.027c8.605,0.684,17.42,1.393,21.143,8.637v-5.146l5.48-0.187
		c1.493-0.035,3.236,0.078,5.129,0.373c4.582,0.275,11.106,2.037,16.289,6.973C343.827,229.489,344.085,228.582,344.327,227.682z"/>
	<path fill="#E91A4F" d="M300.443,186.063c-0.065,5.534-0.166,10.8-0.229,16.341c0,0.221-0.039,0.463-0.039,0.674
		c-0.041,1.104-0.418,2.02-1.096,2.764c-0.226,1.122-0.753,2.102-1.586,2.906c-0.023,1.15-0.043,2.311-0.062,3.472
		c4.608,0.659,9.224,1.278,13.842,1.89c0.024-0.611,0.036-1.217,0.067-1.812c0-0.654,0.013-1.284,0.026-1.926
		c-3.076-0.437-6.085-0.856-9.215-1.21c0.13-9.698,0.289-18.977,0.424-28.652c-1.559-0.224-3.12-0.436-4.688-0.66
		c0,0.211,0,0.415,0,0.629C299.45,181.559,300.443,183.273,300.443,186.063z"/>
	<path fill="#00295C" d="M300.443,186.063c-0.065,5.534-0.166,10.8-0.229,16.341c0,0.221-0.039,0.463-0.039,0.674
		c-0.041,1.104-0.418,2.02-1.096,2.764c-0.226,1.122-0.753,2.102-1.586,2.906c-0.023,1.15-0.043,2.311-0.062,3.472
		c4.608,0.659,9.224,1.278,13.842,1.89c0.024-0.611,0.036-1.217,0.067-1.812c0-0.654,0.013-1.284,0.026-1.926
		c-3.076-0.437-6.085-0.856-9.215-1.21c0.13-9.698,0.289-18.977,0.424-28.652c-1.559-0.224-3.12-0.436-4.688-0.66
		c0,0.211,0,0.415,0,0.629C299.45,181.559,300.443,183.273,300.443,186.063z"/>
	<path fill="#E91A4F" d="M246.021,183.137c0,0.826-0.016,1.65-0.036,2.471c0.684-0.25,1.297-0.555,1.792-0.972
		c0.116-0.095,0.222-0.209,0.338-0.297c0.008-0.588,0.016-1.184,0.026-1.774C247.504,182.838,246.779,183.042,246.021,183.137z"/>
	<path fill="#00295C" d="M246.021,183.137c0,0.826-0.016,1.65-0.036,2.471c0.684-0.25,1.297-0.555,1.792-0.972
		c0.116-0.095,0.222-0.209,0.338-0.297c0.008-0.588,0.016-1.184,0.026-1.774C247.504,182.838,246.779,183.042,246.021,183.137z"/>
	<path fill="#E91A4F" d="M228.417,177.789c-0.338,0.016-0.65,0.028-0.985,0.049c-0.544,0.052-1.088,0.093-1.64,0.122
		c0,0.005,0,0.028,0,0.041c0.479-0.049,0.962-0.096,1.457-0.126C227.617,177.851,228.022,177.812,228.417,177.789z"/>
	<path fill="#00295C" d="M228.417,177.789c-0.338,0.016-0.65,0.028-0.985,0.049c-0.544,0.052-1.088,0.093-1.64,0.122
		c0,0.005,0,0.028,0,0.041c0.479-0.049,0.962-0.096,1.457-0.126C227.617,177.851,228.022,177.812,228.417,177.789z"/>
	<path fill="#E91A4F" d="M235.572,183.591c-1.75,0.098-3.44,0.204-5.188,0.325c0.036-2.091,0.064-4.115,0.093-6.246
		c-0.598,0.039-1.207,0.077-1.811,0.098c-0.046,2.102-0.067,4.105-0.067,6.173c-0.33,0.028-0.65,0.057-0.978,0.078
		c-0.018,0.637-0.018,1.271-0.025,1.905c-0.023,0.371-0.039,0.766-0.052,1.143c1.135-0.064,2.517-0.124,3.295-0.173
		c-0.025,2.842-0.294,23.374-0.294,23.374c4.696-0.154,9.389-0.361,14.083-0.57c0.021-0.453,0.042-0.9,0.077-1.348
		c0,0,0-0.68,0.021-1.749c-3.185,0.099-6.323,0.214-9.459,0.436C235.376,199.079,235.475,191.546,235.572,183.591z"/>
	<path fill="#00295C" d="M235.572,183.591c-1.75,0.098-3.44,0.204-5.188,0.325c0.036-2.091,0.064-4.115,0.093-6.246
		c-0.598,0.039-1.207,0.077-1.811,0.098c-0.046,2.102-0.067,4.105-0.067,6.173c-0.33,0.028-0.65,0.057-0.978,0.078
		c-0.018,0.637-0.018,1.271-0.025,1.905c-0.023,0.371-0.039,0.766-0.052,1.143c1.135-0.064,2.517-0.124,3.295-0.173
		c-0.025,2.842-0.294,23.374-0.294,23.374c4.696-0.154,9.389-0.361,14.083-0.57c0.021-0.453,0.042-0.9,0.077-1.348
		c0,0,0-0.68,0.021-1.749c-3.185,0.099-6.323,0.214-9.459,0.436C235.376,199.079,235.475,191.546,235.572,183.591z"/>
	<path fill="#E91A4F" d="M249.948,181.242c-0.201,0.224-0.412,0.443-0.68,0.647c-0.323,0.266-0.722,0.493-1.127,0.676
		c-0.01,0.59-0.026,1.186-0.031,1.774C249.198,183.343,249.712,182.198,249.948,181.242z"/>
	<path fill="#00295C" d="M249.948,181.242c-0.201,0.224-0.412,0.443-0.68,0.647c-0.323,0.266-0.722,0.493-1.127,0.676
		c-0.01,0.59-0.026,1.186-0.031,1.774C249.198,183.343,249.712,182.198,249.948,181.242z"/>
	<path fill="#00295C" d="M249.948,181.242c-0.201,0.224-0.412,0.443-0.68,0.647c-0.323,0.266-0.722,0.493-1.127,0.676
		c-0.01,0.59-0.026,1.186-0.031,1.774C249.198,183.343,249.712,182.198,249.948,181.242z"/>
	<path fill="#E91A4F" d="M329.835,190.233c0,1.014-0.029,2.024-0.039,3.03c0.487-0.105,0.973-0.245,1.387-0.464
		c1.812-1.04,2.461-2.538,2.646-3.68c-0.207,0.222-0.459,0.438-0.771,0.618C332.171,190.216,331.118,190.376,329.835,190.233z"/>
	<path fill="#00295C" d="M329.835,190.233c0,1.014-0.029,2.024-0.039,3.03c0.487-0.105,0.973-0.245,1.387-0.464
		c1.812-1.04,2.461-2.538,2.646-3.68c-0.207,0.222-0.459,0.438-0.771,0.618C332.171,190.216,331.118,190.376,329.835,190.233z"/>
	<path fill="#E91A4F" d="M314.762,191.523c0,2.037-0.294,23.115-0.294,23.115c4.662,0.848,9.32,1.693,13.979,2.488
		c0.023-0.64,0.055-1.276,0.073-1.921c0,0,0-0.756,0.034-1.981c-3.146-0.584-6.188-1.119-9.361-1.645
		c0.098-7.834,0.201-15.281,0.301-23.11c-1.741-0.296-3.396-0.57-5.154-0.838c0.028-1.806,0.058-3.592,0.063-5.387
		c-0.553-0.09-1.116-0.188-1.696-0.276c-0.028,3.104-0.074,6.171-0.116,9.201C313.31,191.296,314.032,191.415,314.762,191.523z"/>
	<path fill="#00295C" d="M314.762,191.523c0,2.037-0.294,23.115-0.294,23.115c4.662,0.848,9.32,1.693,13.979,2.488
		c0.023-0.64,0.055-1.276,0.073-1.921c0,0,0-0.756,0.034-1.981c-3.146-0.584-6.188-1.119-9.361-1.645
		c0.098-7.834,0.201-15.281,0.301-23.11c-1.741-0.296-3.396-0.57-5.154-0.838c0.028-1.806,0.058-3.592,0.063-5.387
		c-0.553-0.09-1.116-0.188-1.696-0.276c-0.028,3.104-0.074,6.171-0.116,9.201C313.31,191.296,314.032,191.415,314.762,191.523z"/>
	<path fill="#E91A4F" d="M210.08,179.653c-1.06,0.11-2.123,0.224-3.206,0.348c-0.485,0.046-0.988,0.108-1.483,0.165
		c0,0.294-0.015,0.591-0.015,0.882c2.243,1.035,2.168,3.92,2.104,8.94c-0.077,4.366-0.142,8.569-0.178,12.94
		c-0.043,1.64-0.513,3.073-1.335,4.278c-0.224,0.794-0.557,1.549-0.99,2.234c-0.008,1.068-0.028,2.139-0.042,3.209
		c0.738-0.08,1.475-0.17,2.22-0.261c6.524-0.761,12.543-1.349,18.469-1.787c0.549-0.034,1.099-0.077,1.653-0.113
		c0.019-0.987,0.026-1.98,0.044-2.96c-5.929,0.428-11.744,1.025-17.667,1.764C209.786,199.29,209.951,189.697,210.08,179.653z"/>
	<path fill="#00295C" d="M210.08,179.653c-1.06,0.11-2.123,0.224-3.206,0.348c-0.485,0.046-0.988,0.108-1.483,0.165
		c0,0.294-0.015,0.591-0.015,0.882c2.243,1.035,2.168,3.92,2.104,8.94c-0.077,4.366-0.142,8.569-0.178,12.94
		c-0.043,1.64-0.513,3.073-1.335,4.278c-0.224,0.794-0.557,1.549-0.99,2.234c-0.008,1.068-0.028,2.139-0.042,3.209
		c0.738-0.08,1.475-0.17,2.22-0.261c6.524-0.761,12.543-1.349,18.469-1.787c0.549-0.034,1.099-0.077,1.653-0.113
		c0.019-0.987,0.026-1.98,0.044-2.96c-5.929,0.428-11.744,1.025-17.667,1.764C209.786,199.29,209.951,189.697,210.08,179.653z"/>
	<path fill="#E91A4F" d="M219.969,199.999c1.895-0.162,4.755-0.389,4.755-0.389c0.016-0.426,0.044-0.859,0.073-1.292
		c0.005-0.583,0.01-1.174,0.028-1.777c-1.583,0.101-3.159,0.245-4.82,0.41C220,197.987,219.987,198.999,219.969,199.999z"/>
	<path fill="#00295C" d="M219.969,199.999c1.895-0.162,4.755-0.389,4.755-0.389c0.016-0.426,0.044-0.859,0.073-1.292
		c0.005-0.583,0.01-1.174,0.028-1.777c-1.583,0.101-3.159,0.245-4.82,0.41C220,197.987,219.987,198.999,219.969,199.999z"/>
	<path fill="#E91A4F" d="M225.701,184.158c-1.815,0.149-3.623,0.294-5.503,0.472c-0.028,1.057-0.049,2.112-0.054,3.185
		c2.599-0.206,7.401-0.611,7.401-0.619c0-0.039,0.008-0.083,0.008-0.126c-1.05,0.057-1.901,0.098-1.901,0.098
		C225.663,186.167,225.678,185.159,225.701,184.158z"/>
	<path fill="#00295C" d="M225.701,184.158c-1.815,0.149-3.623,0.294-5.503,0.472c-0.028,1.057-0.049,2.112-0.054,3.185
		c2.599-0.206,7.401-0.611,7.401-0.619c0-0.039,0.008-0.083,0.008-0.126c-1.05,0.057-1.901,0.098-1.901,0.098
		C225.663,186.167,225.678,185.159,225.701,184.158z"/>
	<path fill="#E91A4F" d="M227.625,184.016c-0.643,0.049-1.282,0.093-1.924,0.142c-0.021,1-0.039,2.009-0.052,3.009
		c0,0,0.854-0.049,1.903-0.098c0.013-0.379,0.026-0.768,0.049-1.145C227.607,185.29,227.607,184.65,227.625,184.016z"/>
	<path fill="#00295C" d="M227.625,184.016c-0.643,0.049-1.282,0.093-1.924,0.142c-0.021,1-0.039,2.009-0.052,3.009
		c0,0,0.854-0.049,1.903-0.098c0.013-0.379,0.026-0.768,0.049-1.145C227.607,185.29,227.607,184.65,227.625,184.016z"/>
	<path fill="#00295C" d="M227.625,184.016c-0.643,0.049-1.282,0.093-1.924,0.142c-0.021,1-0.039,2.009-0.052,3.009
		c0,0,0.854-0.049,1.903-0.098c0.013-0.379,0.026-0.768,0.049-1.145C227.607,185.29,227.607,184.65,227.625,184.016z"/>
	<path fill="#E91A4F" d="M200.337,210.518c-5.438,0.814-10.588,1.717-16.06,2.762c0.131-8.021,0.232-15.678,0.335-23.667
		c-1.519,0.052-2.576-0.237-3.427-0.841c-1.189-0.892-1.323-2.156-1.323-2.868c0-0.25,0.031-0.49,0.031-0.513
		c0.103-0.333,0.103-0.655,0.19-1.006c-1.129,0.214-2.264,0.416-3.414,0.647c-0.361,0.072-0.722,0.131-1.081,0.216
		c-0.113,0.632-0.227,1.259-0.337,1.877c-0.005,0.07-0.023,0.126-0.036,0.201c-0.008,0.168-0.021,0.34-0.029,0.503
		c-0.031,2.102,1.055,3.345,1.947,4.003c0.828,0.59,1.741,0.907,2.764,1.06c-0.036,2.48-0.325,23.925-0.325,23.925
		c0.82-0.149,1.625-0.31,2.439-0.451c5.565-1.075,10.65-1.927,15.926-2.692c3.192-0.492,5.632-2.021,7.045-4.219
		c0.002-0.377,0.01-0.738,0.018-1.113C203.815,209.447,202.235,210.216,200.337,210.518z"/>
	<path fill="#00295C" d="M200.337,210.518c-5.438,0.814-10.588,1.717-16.06,2.762c0.131-8.021,0.232-15.678,0.335-23.667
		c-1.519,0.052-2.576-0.237-3.427-0.841c-1.189-0.892-1.323-2.156-1.323-2.868c0-0.25,0.031-0.49,0.031-0.513
		c0.103-0.333,0.103-0.655,0.19-1.006c-1.129,0.214-2.264,0.416-3.414,0.647c-0.361,0.072-0.722,0.131-1.081,0.216
		c-0.113,0.632-0.227,1.259-0.337,1.877c-0.005,0.07-0.023,0.126-0.036,0.201c-0.008,0.168-0.021,0.34-0.029,0.503
		c-0.031,2.102,1.055,3.345,1.947,4.003c0.828,0.59,1.741,0.907,2.764,1.06c-0.036,2.48-0.325,23.925-0.325,23.925
		c0.82-0.149,1.625-0.31,2.439-0.451c5.565-1.075,10.65-1.927,15.926-2.692c3.192-0.492,5.632-2.021,7.045-4.219
		c0.002-0.377,0.01-0.738,0.018-1.113C203.815,209.447,202.235,210.216,200.337,210.518z"/>
	<path fill="#E91A4F" d="M204.994,208.334c-0.008,0.368-0.015,0.74-0.018,1.107c0.436-0.678,0.766-1.433,0.99-2.234
		C205.685,207.609,205.363,208.001,204.994,208.334z"/>
	<path fill="#00295C" d="M204.994,208.334c-0.008,0.368-0.015,0.74-0.018,1.107c0.436-0.678,0.766-1.433,0.99-2.234
		C205.685,207.609,205.363,208.001,204.994,208.334z"/>
	<path fill="#00295C" d="M204.994,208.334c-0.008,0.368-0.015,0.74-0.018,1.107c0.436-0.678,0.766-1.433,0.99-2.234
		C205.685,207.609,205.363,208.001,204.994,208.334z"/>
	<path fill="#E91A4F" d="M275.677,188.16c0,0.188-0.028,0.349-0.028,0.552c0,0.124,0,0.289,0,0.415
		c-0.039,1.579-0.422,2.685-1.313,3.693c-0.049,0.134-0.08,0.275-0.135,0.41c0.676,0.905,1.182,2.023,1.182,3.007
		c-0.021,1.954-0.044,3.842-0.069,5.732c0.353,2.416,0.696,4.873,1.023,7.385c2.675,1.524,6.166,1.841,8.143,2.009
		c0.135,0,0.269,0.018,0.403,0.025c5.416,0.4,9.353-0.268,11.761-1.926c0.31-0.225,0.586-0.464,0.854-0.717
		c0-0.562,0.01-1.15,0.012-1.732c-2.045,1.057-5.258,1.434-9.525,1.126c-3.457-0.291-10.578-0.659-10.645-6.776
		c0.098-5.533,0.162-10.849,0.229-16.367c0.088-3.559,1.875-5.673,5.496-6.418c-0.642,0.013-1.276,0.044-1.924,0.131
		c-1.979,0.222-4.19,0.846-5.824,2.264C275.768,182.672,275.718,185.004,275.677,188.16z"/>
	<path fill="#FFFFFF" d="M275.249,207.25c-0.333-0.016-0.651-0.023-0.979-0.043c0,0.154,0,0.343,0,0.502
		c0.584,0.671,1.28,1.213,2.055,1.65c-0.324-2.509-0.678-4.967-1.021-7.377C275.273,203.725,275.261,205.469,275.249,207.25z"/>
	<path fill="#00295C" d="M287.979,208.14c-3.457-0.291-10.578-0.659-10.645-6.776c0.098-5.533,0.162-10.849,0.229-16.367
		c0.088-3.559,1.875-5.673,5.496-6.418c-0.642,0.013-1.276,0.044-1.925,0.131c-1.979,0.222-4.19,0.846-5.823,2.264
		c0.455,1.699,0.405,4.031,0.364,7.187c0,0.188-0.028,0.349-0.028,0.552c0,0.124,0,0.289,0,0.415
		c-0.039,1.579-0.422,2.685-1.313,3.693c-0.049,0.134-0.08,0.275-0.135,0.41c0.676,0.905,1.182,2.023,1.182,3.007
		c-0.021,1.954-0.044,3.842-0.069,5.732v0.005h-0.002c-0.033,1.742-0.047,3.491-0.06,5.273c-0.333-0.021-0.651-0.029-0.979-0.049
		c0,0.154,0,0.348,0,0.505c0.584,0.676,1.279,1.215,2.058,1.653l0.007-0.003c2.675,1.524,6.163,1.841,8.141,2.009
		c0.131,0,0.266,0.018,0.4,0.025c5.418,0.4,9.354-0.268,11.759-1.926c0.31-0.225,0.589-0.464,0.855-0.717
		c0-0.562,0.011-1.15,0.014-1.732C295.46,208.07,292.247,208.447,287.979,208.14z"/>
	<path fill="#E91A4F" d="M274.093,193.109c0.037,0.049,0.062,0.085,0.105,0.134c0.047-0.134,0.077-0.273,0.135-0.407
		C274.247,192.921,274.178,193.011,274.093,193.109z"/>
	<path fill="#00295C" d="M274.093,193.109c0.037,0.049,0.062,0.085,0.105,0.134c0.047-0.134,0.077-0.273,0.135-0.407
		C274.247,192.921,274.178,193.011,274.093,193.109z"/>
	<path fill="#00295C" d="M274.093,193.109c0.037,0.049,0.062,0.085,0.105,0.134c0.047-0.134,0.077-0.273,0.135-0.407
		C274.247,192.921,274.178,193.011,274.093,193.109z"/>
	<path fill="#FFFFFF" d="M273.869,207.207c0.131,0.159,0.263,0.354,0.406,0.508c0-0.158,0-0.349,0-0.504
		C274.148,207.207,274.018,207.207,273.869,207.207z"/>
	<path fill="#00295C" d="M273.869,207.207c0.131,0.159,0.263,0.354,0.406,0.508c0-0.158,0-0.349,0-0.504
		C274.148,207.207,274.018,207.207,273.869,207.207z"/>
	<path fill="#00295C" d="M273.869,207.207c0.131,0.159,0.263,0.354,0.406,0.508c0-0.158,0-0.349,0-0.504
		C274.148,207.207,274.018,207.207,273.869,207.207z"/>
	<path fill="#E91A4F" d="M297.505,207.014c-0.002,0.582-0.012,1.17-0.012,1.732c0.835-0.803,1.364-1.782,1.58-2.904
		C298.652,206.299,298.134,206.693,297.505,207.014z"/>
	<path fill="#00295C" d="M297.505,207.014c-0.002,0.582-0.012,1.17-0.012,1.732c0.835-0.803,1.364-1.782,1.58-2.904
		C298.652,206.299,298.134,206.693,297.505,207.014z"/>
	<path fill="#00295C" d="M297.505,207.014c-0.002,0.582-0.012,1.17-0.012,1.732c0.835-0.803,1.364-1.782,1.58-2.904
		C298.652,206.299,298.134,206.693,297.505,207.014z"/>
	<path fill="#004E82" d="M252.911,176.855c0,0.083,0,0.167,0,0.261c-0.134,9.894-0.304,19.392-0.431,29.33
		c3.474-0.061,6.886-0.043,10.396,0.045c0.065-3.987,0.097-7.771,0.165-11.744c0.072,0,0.128,0,0.198,0
		c2.411,0.075,2.348,1.014,2.348,1.336c-0.03,0.874,0,3.425,0.063,4.649c0,0.234,0.026,0.39,0.026,0.586
		c0.05,1.728,0.105,1.913,0.203,2.036c0.679,2.024,2.538,3.263,5.457,3.703c0.072,0.016,0.142,0.036,0.224,0.039
		c0.029,0,0.06-0.039,0.06,0c0.759,0.035,1.519,0.062,2.264,0.096c0.148,0,0.281,0.008,0.402,0.008
		c0.336,0.012,0.646,0.02,0.976,0.046c0.008-1.782,0.03-3.528,0.063-5.275c0.022-1.883,0.05-3.778,0.069-5.732
		c0-0.975-0.515-2.102-1.174-3.007c-0.052-0.052-0.076-0.085-0.104-0.135c0.077-0.093,0.153-0.19,0.237-0.275
		c0.896-1.009,1.271-2.122,1.313-3.693c0-0.126,0-0.291,0-0.415c0-0.211,0.021-0.368,0.021-0.552
		c0.055-3.164,0.094-5.488-0.359-7.187c-0.523-1.967-1.727-3.074-4.421-3.625c-0.345-0.083-0.706-0.149-1.113-0.201
		c-0.026,0-0.065-0.028-0.096-0.028c0,0-0.052,0-0.069,0c-1.21-0.052-2.391-0.087-3.582-0.116
		C261.65,176.884,257.309,176.834,252.911,176.855z"/>
	<path fill="#004E82" d="M311.371,210.371c0.302,0.043,0.619,0.077,0.929,0.126c0.102-6.529,0.206-12.896,0.288-19.327
		c0.044-3.038,0.088-6.097,0.116-9.209c0.016-0.263,0.016-0.523,0.016-0.794c-0.489-0.039-0.953-0.116-1.424-0.198
		c-2.963-0.402-5.769-0.812-8.705-1.166c0,0.222-0.011,0.459-0.016,0.694c-0.136,9.677-0.292,18.954-0.421,28.65
		C305.273,209.512,308.284,209.928,311.371,210.371z"/>
	<path fill="#004E82" d="M248.136,182.557c0.41-0.183,0.812-0.402,1.132-0.668c0.26-0.204,0.479-0.428,0.675-0.647
		c1.053-1.223,1.181-2.584,1.181-3.097c0-0.067,0-0.137,0-0.193c0-0.289-0.021-0.555-0.049-0.835
		c-0.007-0.085-0.007-0.163-0.022-0.232c-0.5,0-0.965-0.008-1.359-0.008c-6.591,0.101-12.736,0.351-19.227,0.766
		c0,0.016,0,0.021,0,0.028c-0.039,2.138-0.062,4.154-0.088,6.246c1.743-0.121,3.438-0.219,5.183-0.325
		c-0.095,7.955-0.193,15.488-0.302,23.445c3.136-0.222,6.274-0.333,9.459-0.436c0.309-0.008,0.616-0.021,0.936-0.028
		c0.119-7.086,0.211-13.928,0.322-20.965c0.016-0.82,0.028-1.638,0.036-2.471C246.779,183.042,247.504,182.838,248.136,182.557z"/>
	<path fill="#004E82" d="M319.491,188.47c-0.104,7.829-0.207,15.276-0.301,23.11c3.176,0.525,6.214,1.061,9.357,1.645
		c0.312,0.062,0.633,0.119,0.959,0.182c0.088-6.813,0.191-13.379,0.289-20.15c0.014-1.003,0.037-2.017,0.041-3.022
		c1.285,0.135,2.334-0.022,3.229-0.511c0.312-0.178,0.562-0.389,0.771-0.616c0.954-0.975,1.067-2.21,1.067-2.713
		c0-0.054,0-0.116,0-0.188c-0.059-0.379-0.059-0.707-0.059-1.062c-0.467-0.09-0.859-0.204-1.354-0.294
		c-6.413-1.336-12.628-2.437-19.087-3.401c0,0.25,0,0.526,0,0.789c-0.01,1.795-0.037,3.582-0.067,5.39
		C316.093,187.9,317.743,188.173,319.491,188.47z"/>
	<path fill="#004E82" d="M225.701,184.158c0.642-0.049,1.274-0.093,1.924-0.142c0.327-0.025,0.645-0.054,0.975-0.075
		c0-2.073,0.021-4.077,0.07-6.181v-0.005c-0.078,0.005-0.168,0.023-0.245,0.033c-0.395,0.016-0.802,0.057-1.176,0.075
		c-0.498,0.031-0.978,0.08-1.462,0.124c-5.258,0.42-10.348,0.923-15.699,1.532c0,0.039,0,0.085,0,0.126
		c-0.129,10.047-0.294,19.637-0.428,29.642c5.926-0.74,11.733-1.336,17.664-1.766c0.31-0.029,0.622-0.06,0.946-0.078
		c0.042-2.129,0.072-4.205,0.072-6.374c-2.772,0.227-5.49,0.449-8.401,0.737c0.015-0.619,0.021-1.209,0.039-1.815
		c0.018-0.998,0.031-2.009,0.031-3.053c1.664-0.165,3.236-0.31,4.82-0.418c0.317-0.025,0.64-0.039,0.964-0.062
		c0.039-2.724,0.078-5.289,0.098-7.969c-1.918,0.119-3.768,0.302-5.75,0.511c0-0.412,0.007-0.794,0.01-1.194
		c0.002-1.07,0.031-2.125,0.059-3.185C222.076,184.452,223.88,184.308,225.701,184.158z"/>
	<path fill="#004E82" d="M179.862,185.904c0,0.712,0.134,1.976,1.323,2.868c0.843,0.604,1.905,0.893,3.424,0.841
		c-0.101,7.989-0.206,15.646-0.335,23.667c5.475-1.045,10.62-1.947,16.058-2.762c1.896-0.302,3.482-1.07,4.655-2.184
		c0.376-0.333,0.686-0.725,0.975-1.127c0.825-1.197,1.29-2.631,1.336-4.276c0.028-4.368,0.101-8.573,0.168-12.937
		c0.074-5.026,0.147-7.91-2.094-8.943c-0.944-0.438-2.3-0.542-4.247-0.348c-0.016,0-0.026,0-0.036,0
		c-7.156,1.042-13.956,2.225-21.006,3.644c0,0.005,0,0.023-0.008,0.044c-0.085,0.358-0.085,0.681-0.19,1.003
		C179.893,185.414,179.862,185.646,179.862,185.904z"/>
	<path fill="#004E82" d="M277.564,184.996c-0.067,5.526-0.133,10.834-0.229,16.375c0.065,6.109,7.187,6.485,10.646,6.774
		c4.274,0.31,7.479-0.075,9.524-1.127c0.629-0.319,1.147-0.707,1.576-1.163c0.678-0.753,1.055-1.666,1.101-2.768
		c0-0.221,0.039-0.451,0.039-0.678c0.069-5.539,0.168-10.805,0.225-16.347c0.009-2.782-0.986-4.5-2.553-5.58
		c-2.121-1.491-5.283-1.808-8.295-2.081c-1.912-0.17-3.691-0.248-5.352-0.023c-0.403,0.049-0.807,0.124-1.188,0.198
		C279.438,179.323,277.65,181.438,277.564,184.996z"/>
	<path fill="#FFFFFF" d="M186.056,188.322c-0.09,7.943-0.196,15.558-0.322,23.51c4.979-0.91,9.662-1.729,14.637-2.454
		c3.205-0.57,5.314-2.812,5.477-6.3c0.031-4.066,0.098-7.958,0.173-12.024c0.124-7.938,0.389-9.804-4.964-9.201
		c-6.632,0.975-12.989,2.05-19.716,3.386C181.353,185.241,180.623,189.089,186.056,188.322z M193.578,187.008
		c3.236-0.655,3.726-0.472,3.726-0.472c1.256,0.222,1.127,1.87,1.127,1.87c0.222,2.406-0.211,17.267-0.211,17.267
		c-1.681,0.24-3.234,0.529-4.915,0.795C193.413,199.865,193.48,193.604,193.578,187.008z"/>
	<path fill="#FFFFFF" d="M218.741,183.632c-0.034,2.249-0.034,4.425-0.062,6.658c1.906-0.203,3.827-0.376,5.743-0.523
		c-0.021,1.906-0.07,3.758-0.09,5.661c-1.926,0.149-3.804,0.322-5.751,0.522c-0.043,2.411-0.072,4.717-0.1,7.134
		c2.903-0.305,5.619-0.52,8.399-0.741c0,1.354-0.034,2.716-0.034,4.063c-2.646,0.202-5.165,0.437-7.808,0.697
		c-2.749,0.286-5.222,0.523-7.927,0.84c0.139-9.28,0.263-18.169,0.397-27.435c5.286-0.616,10.405-1.09,15.696-1.475
		c-0.039,1.279-0.039,2.576-0.064,3.865C224.355,183.137,221.65,183.358,218.741,183.632z"/>
	<path fill="#00295C" d="M197.039,195.063c-0.029,3.172-0.166,6.764-0.194,9.665c-0.727,0.127-1.351,0.198-2.081,0.354
		c0.101-5.82,0.165-11.375,0.227-17.203c1.16-0.191,1.552-0.209,1.72-0.17c0.162,0.077,0.271,0.531,0.271,0.916
		c-0.008,0-0.008,0.043,0,0.071c0,0.039,0.031,0.047,0.031,0.075C197.139,189.581,197.072,192.025,197.039,195.063z"/>
	<path fill="#FFFFFF" d="M244.572,182.043c-0.098,7.93-0.204,15.491-0.328,23.451c-2.55,0.072-4.938,0.178-7.512,0.299
		c0.098-7.926,0.198-15.492,0.33-23.412c-1.795,0.105-3.471,0.165-5.222,0.301c0.028-1.364,0.028-2.658,0.055-3.979
		c6.026-0.374,11.782-0.59,17.77-0.655C249.659,178.031,250.042,182.121,244.572,182.043z"/>
	<path fill="#FFFFFF" d="M269.591,178.261c4.541,0.59,4.729,1.962,4.632,9.796c0,0.199,0,0.392,0,0.581
		c0,0.134-0.035,0.289-0.035,0.431c0,1.671-0.438,2.754-1.89,3.901c0.067,0.14,0.196,0.222,0.304,0.31
		c0.76,0.871,1.289,2.058,1.352,2.919c-0.062,3.353-0.092,6.517-0.121,9.879c-0.737-0.06-1.396-0.08-2.128-0.095
		c-2.213-0.295-3.804-1.146-4.437-2.865c-0.098-0.243-0.154-1.774-0.154-1.774c0-0.415-0.112-4.129-0.112-5.237
		c0.054-1.743-1.687-2.406-3.76-2.494c-0.558-0.03-1.056-0.022-1.616-0.059c-0.075,4.015-0.104,7.798-0.178,11.748
		c-2.475-0.016-4.92-0.008-7.518-0.016c0.145-9.247,0.271-18.079,0.399-27.288C259.464,177.992,264.462,178.054,269.591,178.261z"/>
	<path fill="#004E82" d="M266.521,189.061c0.092-1.365,0.153-1.336,0.123-3.825c0.099-3.236-0.891-3.123-3.244-3.213
		c-0.549,0.005-1.121,0.005-1.604-0.028c-0.047,2.811-0.075,5.505-0.11,8.316c1.127,0.039,2.312,0.058,3.449,0.078
		C266.012,190.417,266.521,189.672,266.521,189.061z"/>
	<path fill="#00295C" d="M265.18,185.228c0-0.105,0-0.17,0-0.232c0.053-1.385-0.193-1.645-0.218-1.684
		c-0.185-0.103-0.838-0.124-1.399-0.116c0.063,0-0.121,0-0.16,0.008c-0.073,0-0.129-0.044-0.207-0.044
		c-0.03,2.047-0.03,4.013-0.075,6.055c0.642-0.008,1.229,0.034,1.86,0.06c0.072-0.067,0.072-0.134,0.072-0.201
		c0-0.041,0-0.041,0-0.041c0-0.126,0.036-0.248,0.036-0.377c0.091-0.825,0.062-1.073,0.091-2.354
		C265.18,185.932,265.18,185.587,265.18,185.228z"/>
	<path fill="#FFFFFF" d="M284.57,179.511c1.354-0.209,3.015-0.146,4.992,0.018c5.461,0.493,9.385,0.931,9.422,6.375
		c-0.065,5.527-0.139,10.797-0.197,16.331c0,0.225-0.044,0.457-0.044,0.679c-0.099,3.755-4.813,4.557-10.743,4.062
		c-5.773-0.484-9.146-1.471-9.225-5.544c0.078-5.523,0.134-10.803,0.231-16.368C279.154,181.25,281.365,179.877,284.57,179.511z"/>
	<path fill="#004E82" d="M289.336,201.892c0.561,0.042,1.126,0.034,1.702,0.014c0.239-0.718,0.239-1.364,0.239-2.146
		c0.078-3.876,0.106-7.6,0.168-11.473c0.05-3.833-0.021-4.539-2.834-4.841c-0.553-0.06-0.993-0.075-1.555-0.021
		c-0.334,1.147-0.367,2.396-0.367,3.623c-0.065,3.917-0.104,7.659-0.166,11.622C286.489,200.175,286.354,201.588,289.336,201.892z"
		/>
	<path fill="#00295C" d="M289.364,200.731c0.143,0.055,0.274,0.055,0.401,0.055c0.1-0.372,0.065-0.759,0.1-1.163
		c0.021-3.887,0.085-7.574,0.117-11.463c0.037-1.449,0-2.754-0.195-3.259c0-0.067-0.135-0.193-1.227-0.32
		c-0.131,0-0.22,0.008-0.302,0.008c-0.098,0.619-0.127,1.243-0.163,1.911c0,0.227,0,0.451,0,0.678
		c-0.06,3.915-0.109,7.675-0.166,11.589c0,0.039,0.035,0.072,0,0.072c0,0.126,0,0.289,0,0.457c-0.031,0.451,0,0.938,0.231,1.155
		C288.343,200.598,288.707,200.708,289.364,200.731z"/>
	<path fill="#00295C" d="M273.876,207.207v-0.008l-2.428-0.106c-0.039-0.007-0.081-0.013-0.125-0.021
		c-2.91-0.451-4.773-1.694-5.448-3.708c-0.091-0.124-0.154-0.319-0.195-2.029c0-0.204-0.037-0.358-0.037-0.59
		c-0.062-1.229-0.086-3.778-0.062-4.655c0-0.319,0.062-1.267-2.351-1.328c-0.067,0-0.117,0-0.195,0
		c-0.069,3.969-0.098,7.744-0.165,11.74c-3.513-0.084-6.921-0.1-10.402-0.049c0.127-9.94,0.296-19.433,0.429-29.327
		c-0.604,0-1.215,0-1.828,0c0.029,0.281,0.05,0.552,0.05,0.833c0,0.059,0,0.126,0,0.196c0,0.521-0.128,1.875-1.176,3.095
		c-0.229,0.957-0.75,2.102-1.838,3.086c-0.116,8.433-0.234,16.865-0.366,25.281c4.704,0.06,9.394,0.08,14.093,0.08
		c0.024-0.487,0.028-0.972,0.039-1.459c0,0,0.043-1.076,0.043-1.328c0.963,1.443,2.812,2.924,6.418,3.412c0.028,0,0.071,0,0.091,0
		c0.064,0.004,0.135,0.02,0.204,0.025c0.437,0.023,0.871,0.043,1.31,0.064l0,0l3.315,0.19l0.009-0.044
		c0.329,0.016,0.66,0.028,0.985,0.044c0-0.528,0-1.055,0-1.591c0.013-0.436,0.013-0.861,0.026-1.297
		C274.137,207.557,274.003,207.366,273.876,207.207z"/>
	<path fill="#FFFFFF" d="M304.009,181.107c2.478,0.317,4.786,0.634,7.266,1.014c-0.126,9.126-0.23,17.886-0.365,27.053
		c-2.478-0.338-4.827-0.665-7.291-0.975C303.734,199.029,303.878,190.262,304.009,181.107z"/>
	<path fill="#FFFFFF" d="M315.821,182.807c5.968,0.92,11.672,1.949,17.664,3.177c0,0,0.264,4.131-5.068,2.915
		c-0.102,7.79-0.228,15.277-0.322,23.117c-2.546-0.508-4.98-0.908-7.446-1.33c0.101-7.793,0.188-15.258,0.294-23.103
		c-1.75-0.302-3.403-0.596-5.146-0.854C315.794,185.396,315.821,184.132,315.821,182.807z"/>
	<path fill="#004E82" d="M120.513,234.773c9.652-63.968,65.592-113.007,132.006-111.79c64.571,1.176,117.55,49.104,127.159,110.858
		c1.939-0.242,4.137-0.074,6.562,0.523v0.014c0.168,0.059,1.629,0.43,1.854,0.497c0.064,0.016,0.114,0.026,0.171,0.041
		c0,0-0.021,0-0.026,0c0.688,0.187,1.542,0.396,2.504,0.643c-3.891-29.908-17.218-57.699-38.597-79.871
		c-26.31-27.298-61.629-42.693-99.437-43.405c-73.304-1.317-134.822,54.011-143.357,125.312c1.918-0.519,3.845-0.995,5.769-1.485
		C116.924,235.646,118.713,235.19,120.513,234.773z"/>
	<path fill="#004E82" d="M370.988,304.896c-20.229,47.937-68.124,81.261-123.237,80.248c-59.759-1.074-110-42.931-124.719-98.009
		c0,4.984,0,9.959,0,15.048c-0.005,0-0.013,0-0.021,0c0,2.901,0,4.983,0,5.272c0,0.021,0,0.028,0,0.028l-1.983,0.504
		c-0.604,0.143-1.23,0.289-1.836,0.429c21.006,50.416,70.347,86.366,128.365,87.424c37.814,0.687,73.664-13.424,100.958-39.741
		c14.556-14.031,25.724-30.635,33.092-48.795c-2.267-0.537-4.585-1.066-7.081-1.628L370.988,304.896z"/>
</g>
</svg>
