<?xml version="1.0" encoding="utf-8"?>
<!-- Generator: Adobe Illustrator 16.0.0, SVG Export Plug-In . SVG Version: 6.00 Build 0)  -->
<!DOCTYPE svg PUBLIC "-//W3C//DTD SVG 1.1//EN" "http://www.w3.org/Graphics/SVG/1.1/DTD/svg11.dtd">
<svg version="1.1" id="content" xmlns="http://www.w3.org/2000/svg" xmlns:xlink="http://www.w3.org/1999/xlink" x="0px" y="0px"
	 width="500px" height="500px" viewBox="0 0 500 500" enable-background="new 0 0 500 500" xml:space="preserve">
<rect id="position" x="0.5" y="0.5" display="none" fill="none" stroke="#000000" width="499" height="499"/>
<rect x="140.104" y="329.047" fill="#1B1E26" width="219.386" height="20.596"/>
<path fill="#1C1E26" d="M359.689,350.5c0,0.553-0.446,1-1,1H197.5c-0.552,0-1-0.447-1-1V328c0-0.553,0.448-1,1-1h161.189
	c0.554,0,1,0.447,1,1V350.5z"/>
<circle fill="#2C2F3D" cx="219.625" cy="339.25" r="2.375"/>
<circle fill="#362F21" cx="231.204" cy="339.25" r="2.375"/>
<circle fill="#362F21" cx="242.783" cy="339.25" r="2.375"/>
<circle fill="#2C2F3D" cx="254.361" cy="339.25" r="2.375"/>
<circle fill="#2C2F3D" cx="265.941" cy="339.25" r="2.375"/>
<circle fill="#2C2F3D" cx="277.521" cy="339.25" r="2.375"/>
<circle fill="#2C2F3D" cx="289.1" cy="339.25" r="2.375"/>
<circle fill="#2C2F3D" cx="300.68" cy="339.25" r="2.375"/>
<path fill="none" stroke="#C6C5C5" stroke-width="5" stroke-miterlimit="10" d="M267.898,327.5c0-0.553-0.448-1-1-1h-34.72
	c-0.552,0-1,0.447-1,1v24.598c0,0.553,0.448,1,1,1h34.72c0.552,0,1-0.447,1-1V327.5z"/>
<path fill="#C6C5C5" d="M246.072,340.645c0,0.554-0.448,1-1,1h-13.827c-0.552,0-1-0.446-1-1v-2.787c0-0.553,0.448-1,1-1h13.827
	c0.552,0,1,0.447,1,1V340.645z"/>
<g>
	<path fill="#1A1A1A" d="M332.161,354.423c0,2.762-2.238,5-5,5h-16.686c-2.762,0-5-2.238-5-5v-31.302c0-2.762,2.238-5,5-5h16.686
		c2.762,0,5,2.238,5,5V354.423z"/>
	<path fill="#262626" d="M332.708,336.645c0,2.762-2.238,5-5,5h-17.779c-2.762,0-5-2.238-5-5v-14.242c0-2.762,2.238-5,5-5h17.779
		c2.762,0,5,2.238,5,5V336.645z"/>
	<circle fill="#C6C5C5" cx="318.818" cy="334.677" r="2.903"/>
</g>
<path fill="#262626" d="M177.5,319.897c0,1.576-1.278,2.854-2.854,2.854l0,0c-1.576,0-2.854-1.277-2.854-2.854v-22.412
	c0-1.576,1.278-2.854,2.854-2.854l0,0c1.576,0,2.854,1.277,2.854,2.854V319.897z"/>
<path fill="#262626" d="M182.625,359.408c0,2.762-2.239,5-5,5H157.75c-2.761,0-5-2.238-5-5v-37.006c0-2.762,2.239-5,5-5h19.875
	c2.761,0,5,2.238,5,5V359.408z"/>
<path fill="#404040" d="M179.375,323.952c0-1.104-0.896-2-2-2h-19.376c-1.104,0-2,0.896-2,2v10.189c0,1.104,0.896,2,2,2h19.376
	c1.104,0,2-0.896,2-2V323.952z"/>
<g>
	<path fill="#404040" d="M179.413,343.016c0,1.104-0.896,2-2,2h-0.844c-1.104,0-2-0.896-2-2v-0.331c0-1.104,0.896-2,2-2h0.844
		c1.104,0,2,0.896,2,2V343.016z"/>
	<path fill="#404040" d="M169.866,343.016c0,1.104-0.896,2-2,2h-0.844c-1.104,0-2-0.896-2-2v-0.331c0-1.104,0.896-2,2-2h0.844
		c1.104,0,2,0.896,2,2V343.016z"/>
	<path fill="#404040" d="M160.843,343.016c0,1.104-0.896,2-2,2h-0.844c-1.104,0-2-0.896-2-2v-0.331c0-1.104,0.896-2,2-2h0.844
		c1.104,0,2,0.896,2,2V343.016z"/>
</g>
</svg>
