<?xml version="1.0" encoding="utf-8"?>
<!-- Generator: Adobe Illustrator 16.0.0, SVG Export Plug-In . SVG Version: 6.00 Build 0)  -->
<!DOCTYPE svg PUBLIC "-//W3C//DTD SVG 1.1//EN" "http://www.w3.org/Graphics/SVG/1.1/DTD/svg11.dtd">
<svg version="1.1" id="content" xmlns="http://www.w3.org/2000/svg" xmlns:xlink="http://www.w3.org/1999/xlink" x="0px" y="0px"
	 width="500px" height="500px" viewBox="0 0 500 500" enable-background="new 0 0 500 500" xml:space="preserve">
<g id="bounds">
	<rect x="-0.1" y="80.3" fill="none" stroke="#EAEAEA" stroke-miterlimit="10" width="499.5" height="499.5"/>
</g>
<rect id="position" x="0.5" y="0.5" display="none" fill="none" stroke="#000000" width="499" height="499"/>
<g>
	<path fill="#2C2F3D" d="M144.716,198.3V465.4H353.56V198.3H144.716z"/>
	<path fill="#303342" d="M144.716,239.504c21.528,23.934,55.938,49.196,105.31,49.196c48.038,0,81.91-23.913,103.533-47.247V198.3
		H144.716V239.504z"/>
	<polygon fill="#1B1E26" points="249.8,198.3 259.9,198.3 254.2,218.5 245.6,218.5 239.8,198.3 	"/>
	<rect x="248.353" y="221.7" fill="#1B1E26" width="3.348" height="241.58"/>
	<polygon fill="#1B1E26" points="249.8,327.3 236.4,315.3 245.6,218.5 249.8,218.5 254.2,218.5 263.3,315.3 	"/>
	<path fill="#1B1E26" d="M258.6,223c-3.1-11.7-8.8-24.7-8.8-24.7h45.4L258.6,223z"/>
	<path fill="#3F4357" d="M261.3,217.1c-3.1-11.7-11.5-18.8-11.5-18.8h40.9L261.3,217.1z"/>
	<path fill="#1B1E26" d="M240.2,223c3.1-11.7,9.7-24.7,9.7-24.7h-45.1L240.2,223z"/>
	<path fill="#3F4357" d="M238.4,217.1c3.1-11.7,11.5-18.8,11.5-18.8H209L238.4,217.1z"/>
	<polygon fill="#606262" points="258.9,262.7 244.5,262.7 244.5,260.1 258.6,260.1 	"/>
	<rect x="286" y="261.301" fill="#3F4357" width="40.3" height="30.999"/>
	<polygon fill="#1B1E26" points="326.3,257.428 286,257.428 286,264.428 286,268.328 286,272.228 306.2,278.427 326.2,272.228 
		326.2,268.328 326.3,268.328 	"/>
	<polygon fill="#595E7A" points="326.3,254.301 286,254.301 286,261.301 286,265.2 286,269.1 306.2,275.3 326.2,269.1 326.2,265.2 
		326.3,265.2 	"/>
	<circle fill="#2C2F3D" cx="306.1" cy="268.1" r="3"/>
	<rect x="292.6" y="256.1" fill="#C6C5C5" width="27.301" height="6.5"/>
	<rect x="173.8" y="261.301" fill="#3F4357" width="40.3" height="30.999"/>
	<polygon fill="#1B1E26" points="214.1,257.428 173.8,257.428 173.8,264.428 173.8,268.328 173.8,272.228 194,278.427 214,272.228 
		214,268.328 214.1,268.328 	"/>
	<polygon fill="#595E7A" points="214.1,254.301 173.8,254.301 173.8,261.301 173.8,265.2 173.8,269.1 194,275.3 214,269.1 
		214,265.2 214.1,265.2 	"/>
	<circle fill="#2C2F3D" cx="193.9" cy="268.1" r="3"/>
	<rect x="204.5" y="239.801" width="5.3" height="14.5"/>
	<rect x="206.2" y="245" fill="#CDCDCD" width="2.1" height="13.1"/>
	<path fill="#1B1E26" d="M321.152,219.933c-0.952-0.779-2.683-2.249-4.672-3.807c-0.433-0.346-1.038-0.346-1.557-0.086
		c-1.125,0.519-2.249,0.692-3.287,0.692c-2.422-0.087-4.326-1.384-5.104-1.99c-0.173-0.173-0.519-0.173-0.692,0
		c-0.778,0.605-2.681,1.903-5.19,1.99c-0.951,0-2.076-0.173-3.201-0.692c-0.433-0.173-1.124-0.173-1.557,0.086
		c-1.989,1.558-3.72,3.028-4.672,3.807c-0.346,0.346-0.346,0.779,0.087,1.038c0.952,0.692,2.422,1.903,2.422,3.374
		c0,1.211-0.519,2.423-1.124,3.979c-0.865,2.25-1.989,5.104-1.989,9.516c0,2.769,1.729,4.671,3.72,5.969
		c1.903,1.297,4.065,1.903,5.104,2.249c1.729,0.433,5.536,1.73,6.488,2.769c0.174,0.173,0.26,0.173,0.433,0
		c0.951-1.038,4.758-2.336,6.487-2.769c1.126-0.259,3.288-0.952,5.19-2.249c1.991-1.298,3.634-3.201,3.634-5.969
		c0-4.498-1.124-7.44-2.075-9.689c-0.606-1.471-1.038-2.595-1.038-3.807c0-1.47,1.471-2.768,2.422-3.374
		C321.412,220.712,321.498,220.279,321.152,219.933z"/>
	<path fill="#C6C5C5" d="M321.152,216.249c-0.952-0.779-2.683-2.249-4.672-3.807c-0.433-0.346-1.038-0.346-1.557-0.086
		c-1.125,0.519-2.249,0.692-3.287,0.692c-2.422-0.087-4.326-1.384-5.104-1.99c-0.173-0.173-0.519-0.173-0.692,0
		c-0.778,0.605-2.681,1.903-5.19,1.99c-0.951,0-2.076-0.173-3.201-0.692c-0.433-0.173-1.124-0.173-1.557,0.086
		c-1.989,1.558-3.72,3.028-4.672,3.807c-0.346,0.346-0.346,0.779,0.087,1.038c0.952,0.692,2.422,1.903,2.422,3.374
		c0,1.211-0.519,2.423-1.124,3.979c-0.865,2.25-1.989,5.104-1.989,9.516c0,2.769,1.729,4.671,3.72,5.969
		c1.903,1.297,4.065,1.903,5.104,2.249c1.729,0.433,5.536,1.73,6.488,2.769c0.174,0.173,0.26,0.173,0.433,0
		c0.951-1.038,4.758-2.336,6.487-2.769c1.126-0.259,3.288-0.952,5.19-2.249c1.991-1.298,3.634-3.201,3.634-5.969
		c0-4.498-1.124-7.44-2.075-9.689c-0.606-1.471-1.038-2.595-1.038-3.807c0-1.47,1.471-2.768,2.422-3.374
		C321.412,217.027,321.498,216.595,321.152,216.249z"/>
	<path fill="#989899" d="M306.187,213.653c1.816,1.038,3.806,1.644,5.796,1.644c1.211,0,2.336-0.173,3.46-0.605
		c0.865,0.692,1.644,1.297,2.336,1.903c-1.211,1.297-1.903,2.682-1.903,4.065c0,1.644,0.605,3.114,1.211,4.758
		c0.865,2.163,1.903,4.844,1.903,8.997c0,1.557-0.864,2.854-2.509,3.979c-1.557,1.039-3.46,1.644-4.411,1.903
		c-0.347,0.087-3.634,1.039-5.97,2.25c-2.336-1.211-5.536-2.076-5.969-2.25c-0.952-0.259-2.855-0.865-4.412-1.903
		c-1.644-1.125-2.509-2.509-2.509-3.979c0-4.153,1.038-6.834,1.902-8.997c0.693-1.644,1.212-3.114,1.212-4.758
		c0-1.384-0.605-2.768-1.903-4.065c0.779-0.606,1.557-1.298,2.336-1.903c1.211,0.433,2.336,0.605,3.46,0.605
		C302.294,215.297,304.369,214.691,306.187,213.653L306.187,213.653z"/>
	<circle fill="#1B1E26" cx="258.9" cy="338.236" r="4.399"/>
	<circle fill="#C6C5C5" cx="258.9" cy="336.763" r="4.399"/>
	<circle fill="#989899" cx="258.9" cy="336.763" r="2.882"/>
	<circle fill="#1B1E26" cx="258.9" cy="368.364" r="4.399"/>
	<circle fill="#C6C5C5" cx="258.9" cy="366.891" r="4.399"/>
	<circle fill="#989899" cx="258.9" cy="366.891" r="2.882"/>
	<circle fill="#1B1E26" cx="258.9" cy="408.62" r="4.399"/>
	<circle fill="#C6C5C5" cx="258.9" cy="407.146" r="4.399"/>
	<circle fill="#989899" cx="258.9" cy="407.146" r="2.882"/>
	<polyline fill="#303342" points="353.26,270.025 382.711,303.109 382.711,353.01 429.76,353.01 429.76,278.357 374.06,214.01 
		355.46,198.3 353.26,198.3 	"/>
	<polygon fill="#595E7A" points="389.421,274.488 386.421,274.488 386.421,261.448 399.461,261.447 399.461,264.447 
		389.421,264.448 	"/>
	<polygon fill="#595E7A" points="394.572,279.64 391.572,279.64 391.572,266.6 404.613,266.6 404.613,269.6 394.572,269.6 	"/>
	<path fill="#1B1E26" d="M374.06,214.01l-4.533-3.829c-0.084,0.057-0.169,0.115-0.245,0.186l-7.81,7.278
		c-0.808,0.752-0.854,2.019-0.101,2.826l17.794,19.094c0.753,0.808,2.02,0.852,2.826,0.1l7.811-7.278
		c0.031-0.029,0.054-0.064,0.083-0.095L374.06,214.01z"/>
	<path fill="#3F4357" d="M370.116,208.329c-0.752-0.808-2.019-0.852-2.826-0.099l-7.811,7.278c-0.807,0.752-0.853,2.018-0.1,2.826
		l17.794,19.094c0.753,0.808,2.02,0.852,2.827,0.1l7.81-7.278c0.808-0.752,0.853-2.019,0.101-2.827L370.116,208.329z"/>
	<circle fill="#1B1E26" cx="368.668" cy="217.538" r="3.197"/>
	<circle fill="#C6C5C5" cx="367.938" cy="216.755" r="3.198"/>
	<polyline fill="#303342" points="146.793,198.3 144.593,198.3 125.993,214.01 70.293,278.357 70.293,353.01 117.342,353.01 
		117.342,303.109 146.793,270.025 	"/>
	<polygon fill="#595E7A" points="113.632,274.488 110.632,274.488 110.632,264.448 100.592,264.447 100.592,261.447 
		113.632,261.448 	"/>
	<polygon fill="#595E7A" points="108.48,279.64 105.48,279.64 105.48,269.6 95.439,269.6 95.439,266.6 108.48,266.6 	"/>
	<path fill="#1B1E26" d="M125.993,214.01l4.533-3.829c0.084,0.057,0.169,0.115,0.245,0.186l7.81,7.278
		c0.808,0.752,0.854,2.019,0.101,2.826l-17.794,19.094c-0.753,0.808-2.02,0.852-2.826,0.1l-7.811-7.278
		c-0.031-0.029-0.054-0.064-0.083-0.095L125.993,214.01z"/>
	<path fill="#3F4357" d="M129.937,208.329c0.752-0.808,2.019-0.852,2.826-0.099l7.811,7.278c0.807,0.752,0.853,2.018,0.1,2.826
		l-17.794,19.094c-0.753,0.808-2.02,0.852-2.827,0.1l-7.81-7.278c-0.808-0.752-0.853-2.019-0.101-2.827L129.937,208.329z"/>
	<circle fill="#1B1E26" cx="131.385" cy="217.538" r="3.197"/>
	<circle fill="#C6C5C5" cx="132.115" cy="216.755" r="3.198"/>
	<rect x="140.799" y="397.1" fill="#1B1E26" width="214.955" height="20.596"/>
	<path fill="#1C1E26" d="M355.954,418.553c0,0.553-0.446,1-1,1H198.195c-0.552,0-1-0.447-1-1v-22.5c0-0.553,0.448-1,1-1h156.759
		c0.554,0,1,0.447,1,1V418.553z"/>
	<circle fill="#2C2F3D" cx="220.32" cy="407.303" r="2.375"/>
	<circle fill="#362F21" cx="231.899" cy="407.303" r="2.375"/>
	<circle fill="#362F21" cx="243.479" cy="407.303" r="2.375"/>
	<circle fill="#2C2F3D" cx="255.057" cy="407.303" r="2.375"/>
	<circle fill="#2C2F3D" cx="266.637" cy="407.303" r="2.375"/>
	<circle fill="#2C2F3D" cx="278.217" cy="407.303" r="2.375"/>
	<circle fill="#2C2F3D" cx="289.795" cy="407.303" r="2.375"/>
	<circle fill="#2C2F3D" cx="301.375" cy="407.303" r="2.375"/>
	<path fill="#C6C5C5" d="M267.594,423.65h-34.721c-1.93,0-3.5-1.57-3.5-3.5v-24.598c0-1.93,1.57-3.5,3.5-3.5h34.721
		c1.93,0,3.5,1.57,3.5,3.5v24.598C271.094,422.08,269.523,423.65,267.594,423.65z M234.373,418.65h31.721v-21.598h-31.721V418.65z"
		/>
	<path fill="#C6C5C5" d="M246.768,408.697c0,0.554-0.448,1-1,1H231.94c-0.552,0-1-0.446-1-1v-2.787c0-0.553,0.448-1,1-1h13.827
		c0.552,0,1,0.447,1,1V408.697z"/>
	<path fill="#1A1A1A" d="M332.856,422.476c0,2.762-2.238,5-5,5h-16.686c-2.762,0-5-2.238-5-5v-31.302c0-2.762,2.238-5,5-5h16.686
		c2.762,0,5,2.238,5,5V422.476z"/>
	<path fill="#262626" d="M333.403,404.697c0,2.762-2.238,5-5,5h-17.779c-2.762,0-5-2.238-5-5v-14.242c0-2.762,2.238-5,5-5h17.779
		c2.762,0,5,2.238,5,5V404.697z"/>
	<circle fill="#C6C5C5" cx="319.514" cy="402.729" r="2.903"/>
	<path fill="#262626" d="M178.195,387.95c0,1.576-1.277,2.854-2.854,2.854l0,0c-1.576,0-2.854-1.277-2.854-2.854v-22.412
		c0-1.576,1.277-2.854,2.854-2.854l0,0c1.576,0,2.854,1.277,2.854,2.854V387.95z"/>
	<path fill="#262626" d="M183.32,427.461c0,2.762-2.239,5-5,5h-19.875c-2.762,0-5-2.238-5-5v-37.006c0-2.762,2.238-5,5-5h19.875
		c2.761,0,5,2.238,5,5V427.461z"/>
	<path fill="#404040" d="M180.07,392.005c0-1.104-0.896-2-2-2h-19.376c-1.104,0-2,0.896-2,2v10.189c0,1.104,0.896,2,2,2h19.376
		c1.104,0,2-0.896,2-2V392.005z"/>
	<path fill="#404040" d="M180.108,411.068c0,1.104-0.896,2-2,2h-0.844c-1.104,0-2-0.896-2-2v-0.331c0-1.104,0.896-2,2-2h0.844
		c1.104,0,2,0.896,2,2V411.068z"/>
	<path fill="#404040" d="M170.561,411.068c0,1.104-0.895,2-2,2h-0.844c-1.104,0-2-0.896-2-2v-0.331c0-1.104,0.896-2,2-2h0.844
		c1.105,0,2,0.896,2,2V411.068z"/>
	<path fill="#404040" d="M161.538,411.068c0,1.104-0.896,2-2,2h-0.844c-1.104,0-2-0.896-2-2v-0.331c0-1.104,0.896-2,2-2h0.844
		c1.104,0,2,0.896,2,2V411.068z"/>
</g>
</svg>
