<?xml version="1.0" encoding="utf-8"?>
<!-- Generator: Adobe Illustrator 18.0.0, SVG Export Plug-In . SVG Version: 6.00 Build 0)  -->
<!DOCTYPE svg PUBLIC "-//W3C//DTD SVG 1.1//EN" "http://www.w3.org/Graphics/SVG/1.1/DTD/svg11.dtd">
<svg version="1.1" id="content" xmlns="http://www.w3.org/2000/svg" xmlns:xlink="http://www.w3.org/1999/xlink" x="0px" y="0px"
	 width="500px" height="500px" viewBox="0 0 500 500" enable-background="new 0 0 500 500" xml:space="preserve">
<g id="bounds" display="none">
	<rect x="-0.5" y="88.1" display="inline" fill="none" stroke="#EAEAEA" stroke-miterlimit="10" width="499.5" height="499.5"/>
</g>
<rect id="position" display="none" fill="none" stroke="#000000" width="500" height="500"/>
<g>
	<path fill="#664892" d="M265,229.6c-4.9,1.3-10.1,1.9-15.4,1.9c-4.9,0-9.7-0.6-14.3-1.7c4.6,3.1,9.5,5,14.6,5
		C255.3,234.9,260.3,232.9,265,229.6z"/>
	<path fill="#664892" d="M373,184.7l-18.7-14.3h-3h-0.1h-6.9h-31.7c-1.3,28.7-21.1,52.5-47.6,59.2c-4.7,3.3-9.8,5.3-15,5.3
		c-5.1,0-10-1.9-14.6-5c-27-6.4-47.4-30.4-48.7-59.5h-31h-7h-1.6H144l-18.7,14.3l-55.7,71v181h61.3V273.8l15.2-5.1V476h206V268.7
		l15.2,5.1v162.9h61.3v-181L373,184.7z"/>
	<g>
		<path fill="#49267E" d="M250,240.6c-38.6,0-70.1-31.4-70.1-70.1H194c0,30.9,25.1,56,56,56s56-25.1,56-56h14.1
			C320.1,209.1,288.6,240.6,250,240.6z"/>
	</g>
	<g>
		<rect x="69.6" y="410" fill="#49267E" width="61.3" height="26.6"/>
	</g>
	<g>
		<rect x="367.3" y="410" fill="#49267E" width="61.3" height="26.6"/>
	</g>
</g>
</svg>
