<?xml version="1.0" encoding="utf-8"?>
<!-- Generator: Adobe Illustrator 18.0.0, SVG Export Plug-In . SVG Version: 6.00 Build 0)  -->
<!DOCTYPE svg PUBLIC "-//W3C//DTD SVG 1.1//EN" "http://www.w3.org/Graphics/SVG/1.1/DTD/svg11.dtd">
<svg version="1.1" id="content" xmlns="http://www.w3.org/2000/svg" xmlns:xlink="http://www.w3.org/1999/xlink" x="0px" y="0px"
	 width="500px" height="500px" viewBox="0 0 500 500" enable-background="new 0 0 500 500" xml:space="preserve">
<rect id="position" x="0.5" y="0.5" display="none" fill="none" stroke="#000000" width="499" height="499"/>
<path fill="#664892" d="M338,174.9c0,0.1,0,0.1,0,0.2c0,49.1-39.8,89.8-88.8,89.8s-88.8-40.8-88.8-89.8c0-0.1,0-0.1,0-0.2h-11h-32.6
	v228.4v77.2h265.9v-77.2V174.9H338z"/>
<path fill="#49267E" d="M249.1,274.6c-54.4,0-98.7-45.3-98.7-99.7h19.8c0,43.5,35.4,79.9,78.9,79.9s78.9-36.4,78.9-79.9h19.8
	C347.9,229.3,303.6,274.6,249.1,274.6z"/>
</svg>
