<?xml version="1.0" encoding="utf-8"?>
<!-- Generator: Adobe Illustrator 18.0.0, SVG Export Plug-In . SVG Version: 6.00 Build 0)  -->
<!DOCTYPE svg PUBLIC "-//W3C//DTD SVG 1.1//EN" "http://www.w3.org/Graphics/SVG/1.1/DTD/svg11.dtd">
<svg version="1.1" id="content" xmlns="http://www.w3.org/2000/svg" xmlns:xlink="http://www.w3.org/1999/xlink" x="0px" y="0px"
	 width="500px" height="500px" viewBox="0 0 500 500" enable-background="new 0 0 500 500" xml:space="preserve">
<rect id="position" display="none" fill="none" stroke="#000000" width="500" height="500"/>
<g>
	<path fill="#CC8BA6" d="M140.4,354.3v0.1v2v2v2v2v2v2v2v2v2v2v2v1.8c0,0.1,0,0.1,0,0.2c0,0.7,0.1,1.3,0.2,2c0.1,0.7,0.3,1.3,0.5,2
		c0.3,0.7,0.6,1.3,0.9,2c0.4,0.7,0.9,1.4,1.4,2c0.7,0.7,1.4,1.4,2.2,2c1.5,1,3.3,1.7,5.2,2c0.5,0.1,1.1,0.1,1.6,0.1h87.2l0.1-0.1
		l0.9-2l0.9-2l0.9-2l0.9-2l0.9-2l0.9-2l0.9-2l0.9-2l0.9-2l0,0l0,0l1.4,2l1.4,2l1.4,2l1.4,2l1.4,2l1.4,2l1.4,2l1.4,2l1.4,2l0.1,0.1
		h85.8c0.5,0,1.1,0,1.6-0.1c1.9-0.3,3.7-0.9,5.2-2c0.8-0.6,1.6-1.2,2.2-2c0.5-0.6,1-1.3,1.4-2c0.4-0.6,0.7-1.3,0.9-2
		c0.2-0.6,0.4-1.3,0.5-2c0.1-0.6,0.2-1.3,0.2-2c0-0.1,0-0.1,0-0.2h0.1v-1.8v-2v-2v-2v-2v-2v-2v-2v-2v-2v-2v-2v-0.1H140.4z"/>
	<g>
		<path fill="#DE91A2" d="M260.6,389.9l0.1,0.1h85.8c0.5,0,1.1,0,1.6-0.1H260.6z"/>
		<path fill="#DE91A2" d="M150.9,389.9c0.5,0.1,1.1,0.1,1.6,0.1h87.2l0.1-0.1H150.9z"/>
		<path fill="#DE91A2" d="M145.7,387.9c1.5,1,3.3,1.7,5.2,2h88.9l0.9-2H145.7z"/>
		<path fill="#DE91A2" d="M260.6,389.9h87.5c1.9-0.3,3.7-0.9,5.2-2h-94.1L260.6,389.9z"/>
		<path fill="#DD91A2" d="M241.5,385.9h-98c0.7,0.7,1.4,1.4,2.2,2h94.9L241.5,385.9z"/>
		<path fill="#DD91A2" d="M259.2,387.9h94.1c0.8-0.6,1.6-1.2,2.2-2h-97.8L259.2,387.9z"/>
		<path fill="#DC90A2" d="M242.4,384H142.1c0.4,0.7,0.9,1.4,1.4,2h98L242.4,384z"/>
		<path fill="#DC90A2" d="M257.7,385.9h97.8c0.5-0.6,1-1.3,1.4-2H256.3L257.7,385.9z"/>
		<path fill="#DB90A3" d="M243.2,382H141.1c0.3,0.7,0.6,1.3,0.9,2h100.3L243.2,382z"/>
		<path fill="#DB90A3" d="M256.3,384H357c0.4-0.6,0.7-1.3,0.9-2h-103L256.3,384z"/>
		<path fill="#DA90A3" d="M254.9,382h103c0.2-0.6,0.4-1.3,0.5-2h-105L254.9,382z"/>
		<path fill="#DA90A3" d="M244.1,380H140.6c0.1,0.7,0.3,1.3,0.5,2h102.1L244.1,380z"/>
		<path fill="#D98FA3" d="M245,378.1H140.4c0,0.7,0.1,1.3,0.2,2h103.5L245,378.1z"/>
		<path fill="#D98FA3" d="M358.4,380c0.1-0.6,0.2-1.3,0.2-2H252l1.4,2H358.4z"/>
		<path fill="#D88FA3" d="M252,378.1h106.6c0-0.1,0-0.1,0-0.2h0.1v-1.8H250.5L252,378.1z"/>
		<path fill="#D88FA3" d="M245,378.1l0.9-2H140.4v1.8c0,0.1,0,0.1,0,0.2H245z"/>
		<polygon fill="#D78FA4" points="246.7,374.1 140.4,374.1 140.4,376.1 245.8,376.1 		"/>
		<polygon fill="#D78FA4" points="250.5,376.1 358.7,376.1 358.7,374.1 249.1,374.1 		"/>
		<polygon fill="#D68EA4" points="247.6,372.1 140.4,372.1 140.4,374.1 246.7,374.1 		"/>
		<polygon fill="#D68EA4" points="249.1,374.1 358.7,374.1 358.7,372.1 247.6,372.1 		"/>
		<polygon fill="#D48EA4" points="140.4,372.1 247.6,372.1 247.6,372.1 247.6,372.1 358.7,372.1 358.7,370.2 140.4,370.2 		"/>
		<rect x="140.4" y="368.2" fill="#D38DA4" width="218.3" height="2"/>
		<rect x="140.4" y="366.2" fill="#D28DA5" width="218.3" height="2"/>
		<rect x="140.4" y="364.3" fill="#D18DA5" width="218.3" height="2"/>
		<rect x="140.4" y="362.3" fill="#D08CA5" width="218.3" height="2"/>
		<rect x="140.4" y="360.3" fill="#CF8CA5" width="218.3" height="2"/>
		<rect x="140.4" y="358.3" fill="#CE8CA6" width="218.3" height="2"/>
		<rect x="140.4" y="356.4" fill="#CD8BA6" width="218.3" height="2"/>
		<rect x="140.4" y="354.4" fill="#CC8BA6" width="218.3" height="2"/>
		<rect x="140.4" y="354.3" fill="#CC8BA6" width="218.3" height="0.1"/>
	</g>
	<polygon fill="#846396" points="248.9,374 249,354.3 247,354.3 247,373.4 247.6,372.2 	"/>
</g>
</svg>
