<?xml version="1.0" encoding="utf-8"?>
<!-- Generator: Adobe Illustrator 16.0.0, SVG Export Plug-In . SVG Version: 6.00 Build 0)  -->
<!DOCTYPE svg PUBLIC "-//W3C//DTD SVG 1.1//EN" "http://www.w3.org/Graphics/SVG/1.1/DTD/svg11.dtd">
<svg version="1.1" id="content" xmlns="http://www.w3.org/2000/svg" xmlns:xlink="http://www.w3.org/1999/xlink" x="0px" y="0px"
	 width="500px" height="500px" viewBox="0 0 500 500" enable-background="new 0 0 500 500" xml:space="preserve">
<rect id="position" x="0.5" y="0.5" display="none" fill="none" stroke="#000000" width="499" height="499"/>
<g>
	<path fill="#CF1346" d="M322.941,175.339h-30.106c-2.771,8.989-8.096,17.662-17.782,23.726
		c-16.75,10.685-25.026,22.685-25.026,22.685s-8.276-12-25.026-22.685c-9.687-6.063-15.012-14.737-17.782-23.726h-30.106
		c-3.472,23.451-16.429,53.911-60.361,53.911c-0.046,0-0.088,0-0.133,0v240.83h133.41h132.466V229.25v-0.019
		C339.223,228.851,326.392,198.642,322.941,175.339z"/>
	<path fill="#AB103A" d="M293.131,175.339c-2.676,9.343-8.029,18.437-18.078,24.726c-16.75,10.685-25.026,22.685-25.026,22.685
		s-8.276-12-25.026-22.685c-10.047-6.289-15.402-15.383-18.078-24.726h-10.32c3.468,14.473,11.283,25.81,23.021,33.156
		c14.641,9.34,22.122,18.284,22.196,18.389h16.417c0.074-0.105,7.557-9.049,22.125-18.343c11.793-7.382,19.621-18.727,23.092-33.202
		H293.131z"/>
	<path fill="#CF1346" d="M291.809,175.339c-2.988,7.895-8.149,15.339-16.756,20.726c-16.75,10.685-25.026,22.685-25.026,22.685
		s-8.276-12-25.026-22.685c-8.605-5.386-13.768-12.831-16.754-20.726h-10.558c3.882,12.57,11.3,22.5,21.934,29.156
		c14.641,9.34,22.122,18.284,22.196,18.389h16.417c0.074-0.105,7.556-9.049,22.123-18.343c10.687-6.688,18.119-16.628,22.006-29.202
		H291.809z"/>
	<path fill="#071921" d="M259,222.173c0,0.945-0.768,1.711-1.711,1.711h-14.525c-0.945,0-1.711-0.766-1.711-1.711l0,0
		c0-0.945,0.766-1.711,1.711-1.711h14.525C258.232,220.461,259,221.228,259,222.173L259,222.173z"/>
</g>
<g>
	<path opacity="0.2" fill="#212121" enable-background="new    " d="M311.061,209.412c-1.539,0-2.792-1.252-2.792-2.792v-14.099
		c0-1.54,1.253-2.792,2.792-2.792h4.183c1.539,0,2.792,1.252,2.792,2.793v14.098c0,1.54-1.253,2.792-2.792,2.792H311.061z"/>
	<path fill="#FFFFFF" d="M311.188,207.513c-1.444,0-2.62-1.176-2.62-2.623v-13.239c0-1.446,1.176-2.623,2.62-2.623h3.929
		c1.444,0,2.621,1.176,2.621,2.623v13.239c0,1.446-1.177,2.623-2.621,2.623H311.188z"/>
	<path fill="#C00033" d="M313.151,206.213h1.964c0.729,0,1.32-0.592,1.32-1.323v-13.239c0-0.73-0.592-1.323-1.32-1.323h-1.964"/>
	<path fill="#006CB3" d="M315.332,206.213c0,0-0.036-0.939-0.431-3.272l-1.75-1.812v-10.8h-1.964c-0.729,0-1.321,0.592-1.321,1.323
		v13.239c0,0.731,0.592,1.323,1.321,1.323h1.964L315.332,206.213L315.332,206.213z"/>
	<path opacity="0.2" fill="#212121" enable-background="new    " d="M315.679,198.18c-0.05-0.058,0.049-0.09-0.289-0.167
		c-0.062-0.035-0.111-0.529-0.111-0.529c-0.051-0.317-0.163-0.536-0.332-0.872c-0.085-0.173-0.125-0.71-0.216-0.984
		c0.051-1.255-0.352-1.62-0.677-1.824c-0.123-0.079-0.185-0.137-0.307-0.208l-0.004-0.058c-0.095-0.09-0.286-0.187-0.443-0.257
		c-0.049-0.049-0.024-0.156,0.008-0.196c0.106-0.016,0.248-0.254,0.365-0.5c0.092,0.005,0.122-0.084,0.151-0.135
		c0.099-0.157,0.204-0.294,0.066-0.384c0.31-0.552,0.111-0.924-0.057-0.938c-0.067-0.139-0.185-0.225-0.392-0.298l-0.424-0.001
		c-0.438,0.168-0.501,0.36-0.518,0.969c-0.074,0.008-0.231-0.062-0.178,0.309c0,0,0.028,0.247,0.128,0.204
		c-0.096,0.652,0.017,0.703-0.661,0.732l-0.032,0.048c-0.675,0.065-0.888-0.02-1.456,1.138c0,0-0.146,0.358-0.189,0.507
		c-0.06,0.122-0.151,0.309-0.247,0.51v1.598c0.084,0.004,0.186,0.005,0.333,0.001v0.174c0,0-0.205,0.175-0.246,0.282
		c-0.021,0.048-0.056,0.188-0.087,0.344v0.883c0.142,0.506,0.504,0.968,0.634,1.498l0.35,0.049c0.201,0.45,1.062,1.672,1.238,1.833
		c0.041,0.113,0.26,0.253,0.388,0.393c0.105,0.1,0.729,0.782,1.459,1.201c-0.004,0,0.118,0.244,0.179,0.44
		c-0.243,0.195,0.225,0.552,0.368,1.142c0.01,0.077-0.136,0.159,0.08,0.352c-0.005,0.309-0.041,0.563-0.065,0.779h0.62h0.117
		c-0.046-0.228-0.139-0.452-0.188-0.624c-0.008-0.022,0.01-0.052,0.021-0.071c0.029-0.056-0.033-0.182-0.033-0.182
		c-0.069-0.063-0.09-0.398-0.129-0.548c-0.062-0.254,0.11-0.689,0.11-0.838c0-0.146-0.11-0.349-0.315-0.609
		c-0.049-0.056-0.195-1.323-0.327-1.644c-0.186-0.442-0.242-0.373-0.455-0.898c-0.171-0.373-0.039-0.92-0.419-2.192
		c0.004,0.005,0.086-0.08,0.086-0.08s-0.302-1.102-0.4-1.404c-0.1-0.301-0.271-0.323-0.271-0.323s0.001-0.123,0.008-0.155
		c0.015-0.049,0.368-0.969,0.397-0.998c0-0.022,0.51-0.366,0.52-0.317c0.042,0.226,0.24,1.37,0.323,1.553
		c0.087,0.185,0.38,0.746,0.519,1.094c-0.528,0.127-0.92,0.603-0.92,1.17c0,0.663,0.537,1.202,1.204,1.202
		c0.507,0,0.943-0.314,1.118-0.758l0.001-0.884c-0.038-0.097-0.089-0.192-0.155-0.282
		C315.926,198.244,315.731,198.248,315.679,198.18z"/>
	<g>
		<path fill="#FFFFFF" d="M315.186,206.296c-0.237-0.14-0.225-0.344-0.167-0.816c0.024-0.201,0.054-0.436,0.059-0.71
			c-0.143-0.164-0.124-0.205-0.104-0.257l0.009-0.02l0.014-0.086c-0.065-0.271-0.19-0.488-0.29-0.662
			c-0.141-0.246-0.188-0.345-0.108-0.408c-0.019-0.233-0.098-0.407-0.135-0.489c-0.677-0.44-1.222-0.994-1.427-1.202
			c-0.117-0.122-0.183-0.178-0.244-0.231c-0.082-0.071-0.175-0.151-0.193-0.201c-0.18-0.177-1.042-1.395-1.239-1.839l-0.412-0.096
			c-0.003-0.226-0.144-0.491-0.276-0.748c-0.18-0.342-0.35-0.666-0.355-1.021c-0.007-0.228,0.106-0.748,0.148-0.847
			c0.023-0.062,0.146-0.185,0.225-0.251l0.027-0.235v-0.083l-0.286,0.006c-0.314,0-0.318-0.02-0.339-0.118
			c-0.01-0.048-0.022-0.114-0.058-0.191c-0.059-0.128-0.044-0.167-0.019-0.246c0.112-0.441,0.361-0.945,0.525-1.278l0.081-0.165
			c0.047-0.158,0.192-0.511,0.192-0.511c0.497-1.015,0.695-1.031,1.227-1.075l0.2-0.018l0.054-0.079c0.032,0,0.062,0,0.091,0
			c0.461,0,0.502-0.079,0.553-0.516l0.052-0.391l-0.131,0.057c0.012-0.011-0.011-0.081-0.019-0.141
			c-0.023-0.172,0.004-0.21,0.007-0.214l0.17-0.013l0.002-0.07c0.018-0.617,0.088-0.751,0.467-0.896l0.395,0.006
			c0.163,0.062,0.264,0.137,0.319,0.253c0.089,0.046,0.129,0.071,0.162,0.134c0.071,0.135,0.083,0.398-0.104,0.73l-0.037,0.065
			l0.062,0.041c0.047,0.031,0.044,0.063-0.065,0.234l-0.102,0.139c-0.288,0.481-0.384,0.5-0.385,0.5
			c-0.106,0.096-0.137,0.248-0.054,0.331c0.228,0.107,0.376,0.193,0.445,0.259c0.086,0.107,0.134,0.143,0.185,0.179l0.139,0.095
			c0.343,0.215,0.686,0.592,0.639,1.753c0.046,0.155,0.076,0.338,0.106,0.515c0.035,0.218,0.066,0.406,0.116,0.507
			c0.175,0.344,0.278,0.553,0.325,0.849c0.053,0.532,0.12,0.569,0.152,0.587c0.198,0.048,0.229,0.072,0.232,0.076
			c0.062,0.108,0.105,0.128,0.149,0.147c0.08,0.036,0.112,0.056,0.112,0.119c0.075,0.127,0.124,0.216,0.161,0.311l-0.008,0.855
			c-0.16,0.394-0.579,0.678-1.037,0.678c-0.62,0-1.124-0.503-1.124-1.122c0-0.522,0.353-0.971,0.857-1.093l0.09-0.021l-0.033-0.086
			c-0.102-0.253-0.283-0.619-0.409-0.873l-0.111-0.226c-0.067-0.148-0.229-1.054-0.292-1.395l-0.037-0.205l-0.074-0.005
			c-0.023,0-0.068,0-0.324,0.167c-0.268,0.174-0.268,0.195-0.268,0.236l0,0c-0.031,0-0.392,0.966-0.395,0.975
			c-0.01,0.042-0.012,0.177-0.012,0.177l-0.001,0.072l0.071,0.008c0.003,0,0.126,0.026,0.206,0.268c0.099,0.301,0.399,1.4,0.399,1.4
			h-0.107l0.022,0.082c0.218,0.729,0.266,1.217,0.3,1.573c0.025,0.267,0.045,0.46,0.123,0.629c0.112,0.282,0.185,0.396,0.254,0.507
			c0.058,0.094,0.115,0.187,0.199,0.389c0.073,0.18,0.157,0.705,0.22,1.088c0.075,0.472,0.091,0.542,0.121,0.578
			c0.196,0.249,0.297,0.437,0.297,0.557c0,0.042-0.021,0.13-0.044,0.223c-0.049,0.201-0.11,0.45-0.065,0.634
			c0.015,0.05,0.024,0.12,0.035,0.193c0.032,0.208,0.056,0.338,0.118,0.395c0.003,0.018,0.019,0.072,0.015,0.089l-0.017,0.031
			l-0.007,0.1c0.017,0.058,0.04,0.127,0.064,0.201c0.134,0.385,0.297,0.862-0.13,1.132L315.186,206.296z"/>
	</g>
</g>
<g>
	<g>
		<path fill="#CA1344" d="M291.84,318.794c0.825,0.253,1.588,0.638,2.194,1.039c0.562-0.272,1.362-0.271,2.123-0.086
			c1.188-2.36,2.202-4.826,3.014-7.382c-1.635,0.734-3.396,1.443-5.321,2.124C293.25,315.965,292.582,317.398,291.84,318.794z"/>
		<path fill="#CA1344" d="M297.243,297.086c0,1.966-0.138,3.896-0.374,5.796c1.416-0.338,2.904-0.739,4.451-1.218
			c0.139-1.523,0.221-3.064,0.221-4.626c0-1.203-0.059-2.394-0.141-3.575l-4.241,0.936
			C297.211,295.287,297.243,296.184,297.243,297.086z"/>
		<path fill="#CA1344" d="M281.156,335.98l-0.014-0.051l0.146-0.307c-0.114,0.01-0.247,0.047-0.372,0.074
			c-0.691,0.191-1.387,0.473-1.959,0.893l-0.795,0.579l-0.036-0.099c-0.065,0.045-0.126,0.078-0.19,0.128
			c-0.139-0.41-0.201-0.923-0.188-1.472c-0.027-0.306,0.008-0.633,0.093-0.975c-7.578,5.415-16.852,8.612-26.879,8.612
			c-0.653,0-1.301-0.022-1.948-0.052c0.042,1.014-0.133,1.965-0.401,2.832c-1.243,0.69-2.505,0.983-3.688,1.106
			c1.98,0.235,3.992,0.371,6.036,0.371c10.588,0,20.411-3.257,28.533-8.815C279.823,337.674,280.391,336.663,281.156,335.98z"/>
		<path fill="#CA1344" d="M202.738,303.432c0.688-0.373,1.497-0.656,2.277-0.879c-0.211-1.796-0.332-3.615-0.332-5.467
			c0-0.912,0.033-1.816,0.085-2.715l-4.252-0.943c-0.084,1.194-0.143,2.396-0.143,3.61c0,2.106,0.145,4.175,0.395,6.215
			C201.697,303.239,202.738,303.432,202.738,303.432z"/>
		<path fill="#CA1344" d="M221.701,336.354c0.077-0.965,0.804-1.592,1.843-1.99c-2.453-1.809-4.724-3.848-6.772-6.092
			c-0.872,1.131-1.93,2.112-3.123,2.912c-0.002,0-0.004,0-0.007,0.002c2.122,2.316,4.454,4.438,6.971,6.328
			C220.929,337.139,221.276,336.758,221.701,336.354z"/>
		<path fill="#C4CDD2" d="M211.792,311.43c-1.338,0.83-2.046,2.385-2.833,4.146c-0.069,0.156-0.141,0.312-0.211,0.47
			c-0.676,1.501-1.445,3.045-2.719,4.228c-1.031,0.955-2.39,1.675-4.309,1.929c0.095,0.657,0.243,1.296,0.417,1.923
			c0.817-0.091,1.648-0.229,2.486-0.441c0.698-0.179,1.667-0.483,2.757-0.963c1.15-0.502,2.435-1.195,3.697-2.166
			c0.897-0.688,1.775-1.521,2.584-2.505c0.01-0.418-0.005-0.793-0.036-1.075c-1.287-0.865-1.101-3.045-0.709-3.562
			C212.814,312.734,212.278,312.066,211.792,311.43z"/>
		<path fill="#C4CDD2" d="M208.915,309.089c-0.356,0.099-1.656,0.466-1.922,0.58c-0.258,0.894-1.27,2.051-2.452,2.093
			c0,0-0.671,0.452-1.471,1.521c-0.422,0.566-0.671,0.972-0.858,1.326c-0.512,1.976-0.745,4.039-0.638,6.041
			c1.697-0.242,2.839-0.933,3.707-1.857c0.99-1.061,1.623-2.43,2.258-3.85c0.126-0.283,0.254-0.566,0.385-0.85
			c0.685-1.48,1.473-2.902,2.795-3.826c-0.616-0.457-1.306-0.934-1.578-1.119C209.064,309.13,208.992,309.105,208.915,309.089z"/>
		<path fill="#C4CDD2" d="M200.031,320.732c-0.075-1.398,0.003-2.825,0.212-4.232c-0.896-1.214-1.11-2.469-1.058-3.363
			c-1.437,0.44-2.327,4.172-2.327,4.172l-0.128-0.043c-0.427-0.353-0.764-0.716-1.052-1.084
			C196.635,319.439,197.792,320.654,200.031,320.732z"/>
		<path fill="#C4CDD2" d="M201.03,325.76c-1.897,0.073-3.655-0.158-5.083-0.71c0.783,1.724,1.974,3.22,3.449,4.36
			c0.459-0.893,1.229-1.568,2.343-2.057C201.473,326.84,201.233,326.311,201.03,325.76z"/>
		<path fill="#C4CDD2" d="M200.178,322.298c-2.759-0.036-4.235-1.483-5.167-3.43c-0.058,0.469-0.098,0.942-0.098,1.421
			c0,0.164,0.002,0.328,0.009,0.492c0.031,0.728,0.136,1.434,0.295,2.117c1.229,0.892,3.138,1.351,5.33,1.326
			C200.388,323.596,200.268,322.952,200.178,322.298z"/>
		<path fill="#C4CDD2" d="M217.926,319.802c-2.317,2.802-5.966,3.21-5.966,3.21l-0.235-0.258c0.613-0.529,1.025-1.172,1.32-1.84
			c-0.372,0.336-0.75,0.664-1.151,0.969c-1.123,0.854-2.363,1.577-3.695,2.172c-1.015,0.452-2.072,0.846-3.19,1.133
			c-0.795,0.205-1.582,0.338-2.359,0.438c0.172,0.424,0.367,0.834,0.584,1.23c2.102-0.513,3.993-0.433,5.819-0.353
			c0.277,0.013,0.55,0.022,0.82,0.032c1.704,0.059,3.29,0.021,4.865-0.664c0.843-0.366,1.682-0.918,2.534-1.742
			c0.474-1.339,0.716-2.783,0.657-4.289C217.93,319.827,217.928,319.814,217.926,319.802z"/>
		<path fill="#C4CDD2" d="M208.986,328.059c-1.555-0.068-3.163-0.117-4.854,0.211c1.077,1.422,2.508,2.588,4.341,3.357
			c0.001,0,0.001,0.001,0.001,0.001c1.502-0.272,2.896-0.835,4.132-1.624c1.182-0.754,2.217-1.713,3.05-2.835
			c-1.55,0.742-3.087,0.923-4.605,0.937C210.358,328.114,209.669,328.087,208.986,328.059z"/>
		<path fill="#C4CDD2" d="M202.545,328.705c-1.102,0.439-1.604,1.002-1.847,1.572c1.466,0.847,3.128,1.383,4.896,1.511
			C204.363,330.932,203.352,329.889,202.545,328.705z"/>
		<path fill="#071921" d="M209.011,309.062c0,0-0.038,0.01-0.096,0.026c0.077,0.017,0.149,0.041,0.226,0.062
			C209.066,309.1,209.011,309.062,209.011,309.062z"/>
		<path fill="#071921" d="M209.011,309.062c0,0-0.038,0.01-0.096,0.026c0.077,0.017,0.149,0.041,0.226,0.062
			C209.066,309.1,209.011,309.062,209.011,309.062z"/>
		<path fill="#071921" d="M261.5,241.453c-1.698-0.319-3.423-0.567-5.171-0.73l2.11,3.688L261.5,241.453z"/>
		<path fill="#071921" d="M216.294,252.299c-1.333,1.035-2.619,2.126-3.854,3.273l3.802,0.52L216.294,252.299z"/>
		<path fill="#071921" d="M245.705,240.711c-1.758,0.161-3.489,0.405-5.194,0.722l3.078,2.977L245.705,240.711z"/>
		<path fill="#071921" d="M289.49,255.584c-1.205-1.117-2.461-2.18-3.76-3.189l0.051,3.697L289.49,255.584z"/>
		<path fill="#071921" d="M276.366,246.476c-1.451-0.729-2.935-1.403-4.453-2.007l1.032,3.673L276.366,246.476z"/>
		<path fill="#071921" d="M230.128,244.41c-1.548,0.611-3.06,1.292-4.537,2.032l3.486,1.699L230.128,244.41z"/>
		<polygon fill="#071921" points="284.404,267.08 282.54,265.154 278.87,268.574 281.955,269.455 		"/>
		<path fill="#071921" d="M220.622,264.76l-0.807-0.083l-1.392,1.388l2.948,3.088c0.744-0.895,1.779-1.748,1.779-1.748
			L220.622,264.76z"/>
		<polygon fill="#071921" points="238.184,258.854 238.86,257.967 237.613,254.531 236.677,254.323 234.806,254.992 236.44,259.576 
					"/>
		<path fill="#071921" d="M204.737,279.836c0,0-0.214,0.572-0.418,1.107c-0.138,0.361-0.406,1.242-0.406,1.242l6.079,2.078
			l-0.672-2.912L204.737,279.836z"/>
		<polygon fill="#071921" points="268.841,255.752 266.143,254.682 262.934,262.823 265.633,263.895 		"/>
		<path fill="#CA1344" d="M221.812,250.977c0.639-0.408,0.968-1.182,0.536-1.9c-0.427-0.719-1.233-0.763-1.877-0.349
			c-0.639,0.408-0.965,1.185-0.539,1.905C220.358,251.35,221.172,251.391,221.812,250.977z"/>
		<path fill="#CA1344" d="M235.89,242.765c0.497-0.143,0.58-0.416,0.514-0.668c-0.076-0.248-0.283-0.428-0.767-0.284l-1.413,0.417
			l0.267,0.953L235.89,242.765z"/>
		<path fill="#CA1344" d="M251.014,244.853c18.764,0,35.98,10.351,45.325,26.252l1.166-6.291l1.96-10.596l-9.975,1.365l-3.709,0.508
			l-0.051-3.697l-0.139-10.417l-9.227,4.498l-3.42,1.666l-1.033-3.673l-2.891-10.289l-7.522,7.273l-3.06,2.958l-2.111-3.688
			l-5.316-9.29l-5.308,9.279l-2.116,3.699l-3.078-2.977l-7.501-7.253l-2.881,10.23l-1.051,3.731l-3.486-1.699l-9.158-4.465
			l-0.14,10.321l-0.051,3.793l-3.802-0.52l-9.884-1.354l1.949,10.501l1.186,6.387C215.026,255.203,232.251,244.853,251.014,244.853z
			 M291.35,258.126c1.115-1.067,2.549-0.699,3.551,0.426c0.996,1.13,1.234,2.644,0.111,3.71c-1.113,1.067-2.551,0.702-3.547-0.425
			C290.464,260.71,290.232,259.193,291.35,258.126z M279.064,251.186c0.193,0.106,0.252,0.064,0.287-0.002l1.7-2.877l-1.262-0.812
			c-0.091-0.049-0.142-0.029-0.265,0.131l-0.094-0.055l0.81-1.365l0.087,0.054c-0.081,0.189-0.077,0.253,0.009,0.304l3.653,2.321
			c0.083,0.057,0.13,0.033,0.258-0.123l0.089,0.054l-0.808,1.368l-0.088-0.06c0.076-0.19,0.062-0.247-0.006-0.299l-1.276-0.808
			l-1.694,2.869c-0.038,0.07-0.045,0.139,0.126,0.273l-0.053,0.091l-1.521-0.972L279.064,251.186z M263.284,244.605
			c0.218,0.043,0.26-0.012,0.271-0.09l1.084-4.044c0.021-0.081,0.014-0.145-0.186-0.228l0.027-0.101l2.004,0.58l-0.021,0.103
			c-0.193-0.045-0.257-0.004-0.268,0.045c-0.027,0.098,1,2.112,1.4,2.951l0.622-2.315c0.021-0.107-0.034-0.169-0.137-0.207
			l0.03-0.106l1.525,0.44l-0.029,0.103c-0.209-0.04-0.258,0.012-0.275,0.085l-1.078,4.049c-0.016,0.082-0.016,0.146,0.188,0.225
			l-0.021,0.104l-1.589-0.456l0.028-0.106c0.146,0.045,0.199,0.021,0.215-0.036c0.031-0.114-0.145-0.291-1.672-3.484l-0.721,2.722
			c-0.023,0.082-0.016,0.149,0.189,0.228l-0.03,0.105l-1.587-0.461L263.284,244.605z M251.014,238.593
			c1.473-0.005,2.704,0.842,2.704,2.418c0.005,1.574-1.221,2.424-2.704,2.425c-1.479,0.006-2.708-0.839-2.708-2.418
			C248.306,239.447,249.533,238.597,251.014,238.593z M235.531,240.794c1.23-0.366,1.886-0.072,2.151,0.919
			c0.222,0.794-0.164,1.367-0.797,1.773l1.38,1.148c0.101,0.087,0.192,0.112,0.279,0.077l0.034,0.104l-1.74,0.515l-0.025-0.098
			c0.115-0.047,0.165-0.109,0.146-0.213c-0.025-0.082-1.241-1.011-1.392-1.165l-0.82,0.244l0.402,1.454
			c0.015,0.085,0.06,0.136,0.269,0.088l0.032,0.105l-1.722,0.511l-0.026-0.104c0.21-0.083,0.215-0.146,0.19-0.226l-1.103-4.039
			c-0.029-0.077-0.056-0.131-0.289-0.08l-0.023-0.114L235.531,240.794z M219.91,247.793c1.263-0.809,2.731-0.76,3.533,0.579
			c0.802,1.344,0.173,2.735-1.079,3.537c-1.245,0.805-2.729,0.762-3.518-0.576C218.047,249.993,218.665,248.595,219.91,247.793z
			 M205.421,260.493c0.168,0.118,0.222,0.121,0.284,0.046l2.879-3.295c0.065-0.072,0.053-0.131-0.072-0.294l0.07-0.075l1.14,1.072
			l-0.072,0.082c-0.164-0.117-0.219-0.123-0.277-0.051l-1.013,1.148l2.405,2.266c0.054,0.058,0.122,0.08,0.283-0.072l0.078,0.068
			l-1.208,1.372l-0.071-0.069c0.134-0.178,0.11-0.246,0.051-0.299l-2.408-2.263l-1,1.147c-0.059,0.072-0.053,0.131,0.071,0.289
			l-0.06,0.084l-1.147-1.078L205.421,260.493z"/>
		<path fill="#CA1344" d="M251.014,242.338c0.752,0,1.42-0.474,1.42-1.327c0-0.846-0.668-1.318-1.42-1.318
			c-0.752,0-1.424,0.479-1.424,1.326C249.59,241.867,250.26,242.338,251.014,242.338z"/>
		<path fill="#CA1344" d="M294.143,261.279c0.601-0.569,0.484-1.41-0.023-1.979c-0.504-0.579-1.295-0.766-1.896-0.194
			c-0.604,0.57-0.482,1.408,0.022,1.981C292.752,261.666,293.547,261.852,294.143,261.279z"/>
		<path fill="#C4CDD2" d="M206.561,261.568c-0.125-0.159-0.13-0.219-0.071-0.289l1-1.148l2.408,2.264
			c0.059,0.053,0.083,0.121-0.051,0.297l0.071,0.07l1.208-1.373l-0.078-0.068c-0.161,0.154-0.229,0.131-0.283,0.074l-2.405-2.267
			l1.013-1.147c0.058-0.073,0.113-0.067,0.277,0.051l0.072-0.082l-1.14-1.073l-0.07,0.075c0.125,0.164,0.138,0.222,0.072,0.294
			l-2.879,3.295c-0.062,0.075-0.115,0.073-0.284-0.046l-0.067,0.08l1.147,1.078L206.561,261.568z"/>
		<path fill="#C4CDD2" d="M222.364,251.909c1.251-0.802,1.88-2.193,1.079-3.537c-0.801-1.339-2.27-1.388-3.533-0.579
			c-1.245,0.802-1.863,2.2-1.064,3.54C219.635,252.671,221.119,252.714,222.364,251.909z M220.47,248.727
			c0.645-0.414,1.451-0.37,1.877,0.349c0.432,0.72,0.103,1.492-0.536,1.9c-0.639,0.414-1.454,0.373-1.88-0.345
			C219.505,249.911,219.831,249.135,220.47,248.727z"/>
		<path fill="#C4CDD2" d="M232.788,241.89l1.103,4.039c0.025,0.08,0.021,0.143-0.19,0.226l0.026,0.104l1.722-0.511l-0.032-0.105
			c-0.209,0.048-0.254-0.003-0.269-0.088l-0.402-1.454l0.82-0.244c0.15,0.153,1.366,1.083,1.392,1.165
			c0.019,0.104-0.03,0.167-0.146,0.213l0.025,0.098l1.74-0.515l-0.034-0.104c-0.086,0.035-0.178,0.011-0.279-0.077l-1.38-1.148
			c0.633-0.406,1.019-0.979,0.797-1.773c-0.265-0.992-0.92-1.285-2.151-0.919l-3.055,0.901l0.023,0.114
			C232.731,241.759,232.759,241.813,232.788,241.89z M235.637,241.813c0.484-0.145,0.691,0.036,0.767,0.284
			c0.065,0.253-0.018,0.525-0.514,0.668l-1.399,0.418l-0.267-0.953L235.637,241.813z"/>
		<path fill="#C4CDD2" d="M251.014,243.437c1.483-0.001,2.709-0.852,2.704-2.425c0-1.577-1.231-2.424-2.704-2.418
			c-1.48,0.004-2.708,0.854-2.708,2.426C248.306,242.597,249.535,243.442,251.014,243.437z M251.014,239.693
			c0.752,0,1.42,0.472,1.42,1.318c0,0.853-0.668,1.327-1.42,1.327c-0.752,0-1.424-0.471-1.424-1.319S250.26,239.693,251.014,239.693
			z"/>
		<path fill="#C4CDD2" d="M264.874,245.064c-0.205-0.079-0.214-0.146-0.188-0.228l0.721-2.722c1.525,3.193,1.703,3.37,1.671,3.484
			c-0.017,0.058-0.068,0.081-0.216,0.036l-0.027,0.106l1.589,0.456l0.021-0.104c-0.201-0.079-0.201-0.143-0.187-0.225l1.078-4.049
			c0.019-0.073,0.065-0.125,0.274-0.085l0.031-0.103l-1.527-0.44l-0.029,0.106c0.102,0.038,0.157,0.1,0.137,0.207l-0.623,2.315
			c-0.398-0.838-1.428-2.853-1.398-2.951c0.01-0.049,0.072-0.09,0.267-0.045l0.022-0.103l-2.006-0.58l-0.026,0.101
			c0.198,0.083,0.206,0.146,0.185,0.228l-1.082,4.044c-0.013,0.079-0.055,0.133-0.271,0.09l-0.027,0.102l1.588,0.461
			L264.874,245.064z"/>
		<path fill="#C4CDD2" d="M280.592,252.158c-0.171-0.137-0.164-0.203-0.126-0.273l1.694-2.869l1.277,0.808
			c0.066,0.052,0.08,0.108,0.006,0.299l0.087,0.06l0.808-1.368l-0.089-0.054c-0.128,0.156-0.175,0.18-0.258,0.123l-3.653-2.321
			c-0.086-0.051-0.09-0.114-0.009-0.304l-0.087-0.054l-0.809,1.365l0.092,0.055c0.123-0.16,0.175-0.18,0.266-0.131l1.262,0.812
			l-1.701,2.877c-0.033,0.066-0.092,0.108-0.287,0.002l-0.047,0.092l1.521,0.973L280.592,252.158z"/>
		<path fill="#C4CDD2" d="M295.012,262.262c1.123-1.066,0.885-2.58-0.111-3.71c-1.002-1.125-2.436-1.493-3.551-0.426
			c-1.117,1.067-0.886,2.584,0.115,3.711C292.461,262.964,293.898,263.329,295.012,262.262z M292.221,259.105
			c0.604-0.57,1.395-0.385,1.897,0.194c0.509,0.568,0.624,1.409,0.024,1.979c-0.597,0.572-1.392,0.387-1.898-0.191
			C291.738,260.514,291.616,259.677,292.221,259.105z"/>
		<path fill="#071921" d="M329.7,285.87c-0.204,0.146-0.522,0.331-1.124,0.967c-6.991,6.8-18.043,11.995-27.256,14.827
			c-1.547,0.479-3.035,0.88-4.451,1.218c0.236-1.899,0.374-3.83,0.374-5.796c0-0.902-0.032-1.799-0.084-2.688l4.241-0.936
			l5.975-1.316c-0.854-10.102-4.385-19.442-9.87-27.332l-1.166,6.291c-9.345-15.901-26.562-26.252-45.325-26.252
			c-18.763,0-35.987,10.351-45.323,26.252l-1.186-6.385c-5.496,7.895-9.042,17.254-9.934,27.391l5.944,1.316l4.252,0.943
			c-0.053,0.898-0.085,1.803-0.085,2.715c0,1.852,0.121,3.671,0.332,5.467c-0.78,0.223-1.589,0.506-2.277,0.879
			c0,0-1.042-0.191-1.971-0.179c-0.361,0.003-0.705,0.036-0.964,0.128c-0.563,0.2-1.797,2.153-3.407,2.913
			c-0.921,0.435-1.231,1.706-0.895,2.659c-0.04,0.371-1.619,2.854-0.761,5.516c-0.209,0.418-0.402,0.846-0.567,1.284
			c-0.004,0.008-0.006,0.019-0.009,0.026c-0.028,0.074-0.049,0.152-0.076,0.228c-0.002,0.015-0.009,0.022-0.011,0.036
			c-0.527,1.523-0.777,3.146-0.707,4.804c0.302,7.196,6.397,12.812,13.589,12.521c2.475-0.101,4.758-0.896,6.683-2.181
			c-0.002-0.002-0.004-0.004-0.007-0.008c0.005,0.002,0.009,0.002,0.014,0.004c1.193-0.799,2.251-1.779,3.123-2.912
			c2.048,2.246,4.319,4.285,6.772,6.092c-1.039,0.399-1.766,1.027-1.843,1.992c-0.425,0.402-0.772,0.783-1.088,1.16
			c-1.646,1.957-1.936,3.664-1.929,6.457c0.018,0.893,0.875,3.197,1.653,3.733c0,0,0.622-0.629,1.69-1.706
			c0.571,0.618,1.392,1.08,2.411,1.542c0.295,1.347,1.13,2.11,2.042,2.806c0,0,0.597-1.211,1.017-1.57l0.56,0.268
			c5.09,1.557,10.106-0.977,11.863-1.562c1.027-0.342,2.888-0.006,5.003-0.228c1.184-0.123,2.445-0.416,3.688-1.106
			c0.268-0.866,0.442-1.818,0.401-2.832c0.647,0.029,1.294,0.052,1.948,0.052c10.027,0,19.301-3.197,26.879-8.612
			c-0.085,0.342-0.12,0.669-0.093,0.975c-0.013,0.549,0.051,1.062,0.188,1.472c0.064-0.05,0.125-0.083,0.19-0.128l0.036,0.099
			l0.795-0.579c0.572-0.42,1.268-0.699,1.959-0.893c0.125-0.027,0.258-0.064,0.372-0.074l-0.146,0.307l0.014,0.051
			c-0.766,0.683-1.333,1.692-1.664,2.828c-0.659,2.258-0.369,5.025,1.257,6.787c0.25-0.443,0.878-1.267,1.466-1.685l2.33,0.644
			c0.055,0.359,0.674,1.807,1.922,2.334c0.27-0.699,0.782-1.492,1.262-1.922c7.67,1.617,12.172-2.916,12.758-11.305
			c0.201-1.537,1.642-4.744,1.642-8.534c0-0.956-0.454-2.481-1.048-3.284c-0.229-0.297-1.85-0.927-3.193-1.226
			c-0.406-0.401-1.053-0.71-1.729-0.872c-0.762-0.186-1.562-0.188-2.123,0.086c-0.605-0.402-1.369-0.786-2.194-1.039
			c0.742-1.395,1.41-2.829,2.009-4.305c1.926-0.68,3.688-1.389,5.322-2.124c3.359-1.507,6.23-3.121,9.1-4.812
			c12.166-7.171,18.275-14.082,21.071-20.328C329.59,286.665,329.764,286.088,329.7,285.87z M279.799,258.398
			c4.725,3.482,9.01,8.859,9.01,8.859l-0.24,2.734l-3.062,2.902l-2.2-0.446l0.061,2.575l-3.065,3.047l-0.176,2.354l4.976-1.688
			l1.293-1.432l1.897,5.57l-3.14,1.085l1.037,3.011l2.791-0.97l2.011-9.315l5.588-1.814l1.345-2.152
			c1.911,3.76,3.676,8.531,4.702,13.329l-4.813,1.576l-1.545,1.624l-1.469-5.152l3.406-1.154l-1.031-3.035l-2.438,0.77l-1.848,8.748
			l-8.882,3.016c-0.381-3.498-1.987-8.442-4.075-11.945l0.012-0.003c-0.475-0.819-1.989-3.324-3.922-5.425l3.776-3.426l-3.265-0.771
			c0,0-2.352,2.236-2.372,2.215c-1.536-1.512-3.647-3.107-5.124-4.066l2.665-0.49l8.049-7.389L279.799,258.398z M284.45,311.302
			c0,0-1.341,0.906-2.454,1.152l-2.757-2.224l0.309,2.435c0,0-1.585,0.678-2.905,0.349c-0.502-0.125-1.896-2.763-2.271-8.199
			c-0.655-0.668-3.039-1.648-3.868-3.4c-1.579,0.95-4.066,1.184-5.799,0.443c-0.85,2.14-3.62,1.939-5.074,1.754
			c-1.654-0.211-3.753-1.825-5.209-4.266c-0.266-0.451-0.451-0.854-0.646-1.351l0.203-0.015c2.621-0.149,6.114-1.342,6.779-4.477
			l-1.422-1.145c0,0,0.112-0.146,0.314-0.592l0.062-0.1c0.727,0.202,1.664,0.559,3.252,1.491c1.694,0.993,2.734,2.649,2.734,2.649
			c0.512-1.365-0.871-3.021-0.871-3.021c1.681-0.849,6.83-0.866,9.973,0.312c1.135,0.422,4.028,5.194,4.866,8.207
			c0,0,0.024,0.204,0.082,2.18c0,0,1.013-0.744,1.332-1.01c0,0,3.754,1.342,5.718,4.717c0,0,0.512-1.89-0.432-3.025l0.244-0.74
			c0,0,2.349,0.656,2.763,1.629c0,0-0.66,3.338-1.278,3.952c-0.621,0.62-1.584,1.095-1.584,1.095s-1.812-0.695-3.423-1.437
			C283.09,308.669,284.102,310.887,284.45,311.302z M282.04,315.93c-0.019-0.037-0.115,0.834-0.543,1.547l-0.772,1.043
			c-0.928-0.551-1.342-1.367-1.824-2.312c-0.229-0.451-0.474-0.925-0.793-1.407c0.806-0.057,1.947-0.337,2.606-0.515
			C281.117,314.879,281.546,315.445,282.04,315.93z M250.693,317.495c0,0-2.312-0.459-3.443-0.938
			c-7.258-4.828-11.49-5.287-14.738-12.76c-0.614-1.402-0.597-1.924-0.597-1.924s-0.796-3.75,0.336-5.574
			c0,0,1.823,11.526,10.665,11.736c1.234-0.692,2.938-2.902,3.384-5.362c0.274-1.53-0.371-4.103,0.354-7.116
			c0.299,0.213,0.636,0.426,1.012,0.635c-0.154,6.115,3.156,9.531,5.199,11.099c2.229,1.72,5.082,2.856,8.89,2.717
			c3.394-0.125,7.185-1.929,8.906-4.62l0.296-0.517c0.551,0.509,1.174,1.026,1.562,1.243c0.107,1.852,0.282,3.146,0.812,5.048
			c-5.674,6.22-13.244,7.737-17.601,7.163c0,0,2.881-0.285,4.785-2.17C258.307,316.809,253.074,317.729,250.693,317.495z
			 M239.881,269.785c0,0,1.938-2.381,2.759-3.254c1.598-0.067,4.858,0.287,5.9,0.822c1.05,0.545,1.646,2.008,3.362,2.479
			c0,0,0.086-0.12,0.08-0.12c-0.258-0.221-1.217-1.236-1.271-1.572c-0.072-0.475-0.388-1.248-0.692-1.451l0.932-0.414
			c0,0,3.104,1.388,3.923,1.604c0.765,0.2,0.569,0.872,0.569,0.872s-1.471-0.215-1.973-0.683c0,0-0.125,1.279,2.854,1.9
			c2.689,0.561,7.863,1.59,9.004,2.274c0.23,0.536,0.643,1.753,0.643,1.753s-0.85,1.418-0.85,2.762c0,0,0.102,0.036,0.129,0.045
			c0.184-0.298,0.535-0.937,0.973-1.031c0,0,0.317,1.141,0.342,2.104c-0.744,0.4-1.729,0.491-2.474,0.576
			c-2.389,0.27-6.409-1.94-7.229-1.875c-0.83,0.07-5.141,1.199-6.113,1.136c-0.97-0.071-2.493-0.931-3.387-0.931
			c-0.603,0-5.748,3.222-6.798,9.416c0,0,3.666,0.109,4.689,0.623c0.764,0.388,3.711,4.955,5.346,6.029
			c1.648,1.082,4.071,1.646,8.112,1.245c0,0-1.915,2.203-4.571,2.203c-2.756,0-5.361-1.582-7.479-4.446
			c-0.45-0.607-2.458-2.037-3.018-2.358c-1.372-0.775-5.084-0.695-7.051-2.88c-1.703-1.896-1.713-3.733-1.373-4.857
			c0,0-1.338,0.881-1.254,2.782c0.064,1.548,0.649,2.659,1.389,3.532c1.732,2.048,4.688,2.617,6.521,3.384
			c1.621,0.671,1.823,1.559,1.823,1.559s-3.215,1.12-8.14-1.673c0,0,1.811,5.245,8.596,4.236l0.161-0.025
			c0,0-1.428,3.233-7.967,1.361c0,0,1.561,2.361,4.022,2.558c1.244,0.097,2.574,0.112,3.977-0.864
			c0.003,0.071-0.061,0.687-0.721,1.629c-0.568,0.817-2.058,1.795-4.221,1.152c1.852,2.401,4.523,1.85,4.523,1.85
			c-0.338,0.744-1.135,2.133-1.696,2.531c-1.49-0.07-3.452-1.105-5.493-3.848c-2.221-2.98-1.996-7.107-3.266-9.466
			c-1.475-2.742-2.691-4.46-3.475-6.191c-1.335-2.97-1.18-5.778-1.18-6.657c0-0.875,0.756-5.051,3.223-7.547
			c2.311-2.345,3.648-3.049,7.609-4.217C239.649,267.842,239.447,269.136,239.881,269.785z M262.479,279.959
			c0.459,0.116,1.812,0.116,2.321,0.05c-0.657,0.673-1.241,1.813-2.132,2.427C262.668,282.436,262.799,280.648,262.479,279.959z
			 M259.529,279.116c0,0,1.146,0.589,1.97,0.69c0,0-0.903,1.412-1.951,1.885C259.695,281.221,259.658,279.641,259.529,279.116z
			 M251.915,290.113c0.042-0.215,0.071-0.426,0.09-0.631c0.14-0.926,0.033-1.957-0.288-2.934c-0.09-0.031-0.471,0.188-0.471,0.188
			l-1.832,1c0.062-0.174,0.114-0.348,0.156-0.521c0.001-0.002,0.001-0.002,0.001-0.003c0.008-0.033,0.017-0.066,0.023-0.1
			c0.338-1.239,0.1-2.42-0.013-2.971l-0.045-0.235c-0.019,0.01-0.039,0.021-0.057,0.032c-0.001-0.006-0.003-0.021-0.005-0.024
			c-0.099,0.069-0.204,0.14-0.309,0.206c-0.917,0.516-1.883,0.979-2,1.034c0.006-0.167,0.004-0.339-0.009-0.507
			c-0.034-1.395-0.72-2.838-0.728-2.854c-0.016,0.013-0.035,0.024-0.051,0.038c0-0.002-0.005-0.012-0.005-0.012
			c-0.081,0.074-0.175,0.148-0.262,0.225c-1.201,0.943-2.804,1.969-3.053,2.127c0.04-0.181,0.095-0.363,0.16-0.55
			c0.379-0.897,0.994-1.853,1.419-2.336c2.609,0.079,4.643,1.067,5.676,1.971c0.847,0.742,1.236,1.69,1.579,2.527
			c0.266,0.646,0.512,1.253,0.932,1.698c0.777,0.832,1.354,1.082,1.773,1.266l0.478,0.244l0.213,0.15
			c0.587,0.41,0.764,0.535,0.829,0.793c-0.274,0.566-1.219,1.365-1.358,1.481c-0.015-0.14-0.041-0.28-0.063-0.424
			c-0.084-0.872-0.371-1.761-0.631-2.251c-0.015,0.01-0.037,0.023-0.054,0.033c0-0.002,0-0.004,0-0.006
			c-0.012,0.01-0.03,0.024-0.042,0.035C253.468,289.123,252.302,289.898,251.915,290.113z M253.578,292.537
			c-0.383,0-1.421-0.27-1.867-0.811c0.346-0.215,1.639-1.145,1.941-1.752C253.914,290.932,253.777,291.911,253.578,292.537z
			 M250.518,290.583c-0.379-0.271-1.197-1.008-1.424-1.414c0.361-0.104,1.442-0.705,1.887-1.258
			C251.13,288.586,251.189,289.705,250.518,290.583z M248.197,287.891c-0.297-0.537-1.047-1.281-1.197-1.482
			c0.516-0.206,1.491-0.746,1.876-1.146C248.948,286.197,248.492,287.555,248.197,287.891z M245.944,285.262
			c-0.564-0.244-1.073-0.347-2.026-0.473c0.552-0.312,1.753-1.143,2.116-1.55C246.054,284.075,246.164,284.654,245.944,285.262z
			 M247.195,278.281c0.523,0.27,2.32,0.675,2.32,0.675s-0.233,1.14-2.017,1.951C247.499,280.907,247.646,279.027,247.195,278.281z
			 M250.518,279.285c0.635,0.068,2.015-0.271,2.015-0.271s-0.374,1.92-1.606,2.528C250.925,281.543,250.812,279.759,250.518,279.285
			z M253.393,278.865l2.226-0.438c0,0-0.354,2.067-1.771,2.744C253.924,280.629,253.768,279.318,253.393,278.865z M256.761,290.594
			c0.229,0.4,0.343,1.545,0.318,2.146c-0.787,0.195-1.229,0.132-1.877,0C255.842,292.066,256.438,291.193,256.761,290.594z
			 M256.559,281.083c0.197-0.503,0.197-2.522,0.041-2.997c0.504,0.168,1.812,0.645,1.812,0.645S257.83,280.549,256.559,281.083z
			 M251.785,297.71c0.594,2.289,1.996,4.438,3.846,5.899c3.758,2.867,7.782,2.267,9.934,0.494l0.119-0.035l0.076,0.013
			c1.193,0.166,2.295,0.094,3.271-0.22l0.408-0.131l-0.113,0.33c-0.911,2.67-6.844,5.303-10.965,4.131
			c-3.889-1.104-6.437-3.157-8.013-6.463c-0.739-1.521-1.129-3.676-1.203-4.68l-0.02-0.266l0.604,0.213l2.03,0.618L251.785,297.71z
			 M282.967,298.752c0.803,0.682,1.354,1.487,1.733,3.834c0,0-0.933-0.803-2.108-1.299
			C282.787,300.79,283.09,299.617,282.967,298.752z M287.104,298.014c2.037,1.42,1.795,4.389,1.795,4.389
			c-0.348-0.416-1.668-0.928-2.219-0.988C287.047,300.854,287.354,299.062,287.104,298.014z M265.505,251.093
			c1.255,0.358,5.156,1.815,6.315,2.485l2.246,2.873l-4.273,10.6l-3.656,0.293c0,0-3.812-1.754-6.144-2.447l-2.438-2.729
			l4.244-10.617L265.505,251.093z M244.562,249.215c4.579-0.678,10.084-0.515,13.672,0.087l-0.029,5.038l-4.234-2.316l-0.066,9.929
			l1.55,2.03c0,0-2.229-0.279-4.252-0.299c-2.024-0.011-4.078,0.279-4.078,0.279l1.601-2.045l0.07-9.932l-4.263,2.262
			C244.53,254.248,244.545,249.215,244.562,249.215z M201.761,286.75l-2.788,0.816c1.278-6.778,3.664-11.916,3.664-11.916
			l2.644-1.002l6.158,2.109l0.624,2.312l1.907-1.514l6.861,2.244l1.644-0.443l-0.255-1.89l-8.055-8.174l-2.514-0.28
			c2.552-3.687,5.909-6.99,8.02-8.729l3.809-0.016l8.049,8.342l1.43,0.178l0.592-2.62l-3.497-9.606l-2.548-1.734
			c3.314-1.964,8.716-3.895,11.054-4.46l2.736,0.616l2.59,6.851l-1.927,2.662l-4.293,1.854l0.628,1.853c0,0,2.292,1.127,2.263,1.138
			c-2.834,0.959-5.568,2.287-7.652,3.69l0.004-0.019c-0.809,0.536-3.104,2.104-4.649,3.605c0,0.01-2.771-2.854-2.771-2.854
			s-1.383,1.004-1.783,1.748c0,0,2.821,2.84,2.804,2.848c-0.979,0.949-3.016,3.714-3.79,4.932l0.014-0.005c0,0-1.782,2.688-2.9,5.71
			l-6.724-2.342l0.816,2.902c0,0,5.104,1.728,5.095,1.76c-0.624,1.888-1.185,5-1.306,6.533l-1.765-2.154L201.761,286.75z
			 M197.127,307.932c0.001-0.146,0.101-0.354,0.83-0.77c0.995-0.553,1.364-1.038,1.606-1.359c0,0,0.137-0.174,0.138-0.174
			c0.23-0.292,0.831-0.82,1.461-0.722l0.286,0.046l-0.173,0.23c-0.5,0.674-1.282,1.875-1.254,2.244c0,0,0.05,0.944,0.031,1.022
			l-0.49,0.959l-0.167-0.228c-0.479-0.644-1.152-1.295-1.385-1.238l-0.616,0.199l-0.271,0.028L197.127,307.932z M213.626,316.975
			c0.031,0.281,0.046,0.656,0.036,1.074c-0.809,0.983-1.688,1.816-2.584,2.506c-1.262,0.969-2.547,1.663-3.697,2.166
			c-1.091,0.479-2.06,0.783-2.757,0.961c-0.837,0.215-1.669,0.353-2.486,0.442c-0.174-0.627-0.322-1.265-0.417-1.923
			c1.919-0.254,3.277-0.973,4.309-1.928c1.274-1.184,2.042-2.728,2.719-4.229c0.071-0.156,0.142-0.312,0.211-0.47
			c0.787-1.763,1.496-3.316,2.833-4.147c0.486,0.639,1.022,1.307,1.125,1.982C212.525,313.928,212.34,316.107,213.626,316.975z
			 M207.924,314.096c-0.131,0.281-0.259,0.564-0.385,0.848c-0.635,1.421-1.268,2.791-2.258,3.851
			c-0.868,0.927-2.01,1.615-3.707,1.858c-0.106-2.002,0.126-4.066,0.638-6.043c0.187-0.354,0.436-0.758,0.858-1.325
			c0.8-1.069,1.471-1.521,1.471-1.521c1.182-0.043,2.193-1.199,2.452-2.094c0.267-0.113,1.566-0.48,1.922-0.58
			c0.058-0.018,0.096-0.027,0.096-0.027s0.055,0.037,0.13,0.088c0.272,0.187,0.962,0.662,1.578,1.119
			C209.396,311.191,208.608,312.614,207.924,314.096z M203.293,310.967c-1.573,0.586-2.234,2.842-2.469,3.651
			c-1.108-2.373-0.216-4.304,0.114-4.933c0.26-0.474,0.978-1.076,1.366-1.031c0,0,0.773,0.484,0.936,1.244
			C203.288,310.111,203.446,310.912,203.293,310.967z M196.541,309.982c0.366-0.539,1.317-0.996,1.317-0.996
			c0.105,0.058,0.76,0.753,0.886,1.269c0.304,1.308-0.519,1.33-0.304,1.241c-1.412,0.588-1.908,2.527-2.136,3.234
			C195.114,312.434,196.251,310.428,196.541,309.982z M196.73,317.266l0.128,0.043c0,0,0.89-3.73,2.327-4.172
			c-0.052,0.896,0.162,2.149,1.058,3.363c-0.209,1.407-0.287,2.834-0.212,4.232c-2.24-0.078-3.396-1.293-4.354-4.553
			C195.966,316.55,196.303,316.913,196.73,317.266z M194.923,320.781c-0.007-0.164-0.009-0.328-0.009-0.492
			c0-0.479,0.04-0.952,0.098-1.421c0.932,1.946,2.408,3.394,5.167,3.43c0.089,0.654,0.209,1.298,0.37,1.929
			c-2.192,0.022-4.101-0.437-5.33-1.326C195.06,322.215,194.954,321.509,194.923,320.781z M199.396,329.41
			c-1.475-1.143-2.666-2.637-3.449-4.36c1.428,0.552,3.186,0.783,5.083,0.71c0.203,0.551,0.443,1.08,0.709,1.596
			C200.625,327.842,199.855,328.52,199.396,329.41z M200.698,330.277c0.243-0.57,0.745-1.133,1.847-1.572
			c0.807,1.184,1.818,2.227,3.049,3.083C203.826,331.66,202.165,331.124,200.698,330.277z M212.606,330.004
			c-1.235,0.789-2.63,1.352-4.132,1.624c0,0,0-0.001-0.001-0.001c-1.833-0.771-3.264-1.938-4.341-3.357
			c1.691-0.328,3.299-0.279,4.854-0.211c0.683,0.028,1.373,0.057,2.065,0.047c1.518-0.014,3.055-0.193,4.605-0.937
			C214.823,328.291,213.788,329.25,212.606,330.004z M217.274,324.13c-0.852,0.824-1.691,1.376-2.534,1.742
			c-1.576,0.687-3.162,0.724-4.865,0.664c-0.271-0.009-0.543-0.021-0.82-0.032c-1.827-0.08-3.718-0.16-5.819,0.354
			c-0.217-0.397-0.412-0.809-0.584-1.231c0.777-0.101,1.563-0.231,2.359-0.438c1.118-0.285,2.175-0.68,3.19-1.131
			c1.332-0.596,2.573-1.317,3.695-2.173c0.401-0.305,0.78-0.633,1.151-0.969c-0.295,0.668-0.708,1.312-1.32,1.84l0.235,0.257
			c0,0,3.649-0.408,5.966-3.209c0.001,0.014,0.003,0.025,0.004,0.039C217.99,321.346,217.748,322.791,217.274,324.13z
			 M215.305,316.652c0,0,1.985-0.235,2.614-0.793c0,0,0.003,0.457-0.215,1.029c-0.226,0.58-1.104,2.702-3.255,3.575
			C214.841,319.818,215.681,317.822,215.305,316.652z M219.779,313.725c-0.291-2.438-2.409-4.104-2.409-4.104
			c0.211,0.818,1.099,3.432,0.051,4.766c-1.602,1.071-2.704,0.758-2.704,0.758c-0.429-0.772,0.124-2.324,0.124-2.324
			c-0.212-0.48-1.156-1.902-1.544-3.08c-0.947-0.971-3.949-2.907-3.949-2.907c-0.857-0.235-2.12,0.604-3.647,0.817
			c-0.287,0.924-0.703,1.451-1.235,1.683c-0.449-1.002-1.085-1.956-1.977-2.136c-0.515-0.043-0.919,0.302-0.919,0.302
			c0.053-0.546,1.032-2.34,1.803-2.485c1.299-0.231,3.49-1.1,4.668-1.341c0.954,0.168,2.771,0.646,2.771,0.646
			s4.61,1.455,5.76,2.304c3.389-0.156,7.587,0.823,9.412,1.269c1.128,0.543,3.151,2.592,3.151,2.592
			c0.179-2.84-2.167-4.797-2.167-4.797c-0.333-1.761,0.879-5.039,2.51-6.186c0.049,4.441,2.028,8.527,4.481,10.825
			c-2.638,2.263-3.72,3.954-4.385,5.184c-0.709,1.33-0.749,2.257-0.749,2.257C224.454,317.096,220.889,314.447,219.779,313.725z
			 M243.654,327.266c-0.029,2.327-0.908,2.854-0.301,4.004c-0.827,0.41-1.82,0.551-2.622,0.571
			c-0.928,0.021-4.559-0.299-5.745-1.003c-0.471-1.9-2.292-6.861-3.418-8.395c-1.13-1.536-0.741-5.564,0.64-6.5
			c0,0,1.662,0.469,2.999,0.896c3.297,1.038,6.831,3.531,9.386,7.604l-0.244,0.178c-0.319-0.375-0.92-0.925-1.462-1.338
			c-0.718-0.528-2.211-0.858-2.211-0.858c-0.036,0.062-0.07,0.123-0.097,0.234C241.114,323.164,243.679,325.158,243.654,327.266z
			 M224.394,336.049c0.019,0.014,0.041,0.029,0.062,0.047c-0.021-0.015-0.048-0.029-0.068-0.043
			C224.39,336.052,224.393,336.052,224.394,336.049z M224.16,344.132c-0.091,0.556-0.019,0.854-0.019,0.854
			c-0.291-0.268-0.756-0.369-0.964-0.783c0.292-0.428,0.383-0.428,1.157-1.042C224.333,343.16,224.283,343.372,224.16,344.132z
			 M220.558,344.602c-0.987-2.356,0.382-4.69,1.309-6.06c0.562-0.364,0.92-0.907,1.298-0.917c1.061-0.021,1.484,1.615,1.843,3.213
			C223.445,341.441,221.363,343.236,220.558,344.602z M224.438,336.021c0.066-0.062,0.145-0.117,0.241-0.162
			c0.016-0.008,0.025-0.019,0.042-0.023c0.037-0.016,0.086-0.023,0.126-0.041c1.026-0.324,3.17-0.212,3.958-0.169
			c1.134,0.062,2.458,0.151,3.669,0.373c0.557,0.2,2.461,1.007,3.246,2.913c0.01-0.023,0.014-0.049,0.025-0.072
			c0.007,0.02,0.018,0.034,0.026,0.051c0.068-0.189,0.101-0.398,0.115-0.613c0.114-0.93-0.309-2.043-1.392-2.783
			c0,0.002,0.001,0.002,0.001,0c0-0.037-0.725-2.336-0.725-2.336c-0.035-0.102-0.066-0.221-0.066-0.324
			c0-0.08,0.019-0.15,0.068-0.195c0.162-0.146,0.596,0.008,0.749,0.078c1.798,0.838,2.217,0.98,6.455,1.17
			c0.972,0.043,3.135-0.537,3.867-1.3c0.969,0.468,1.262,1.419,0.809,2.847c0.021,0.082,1.984,4.377,1.009,5.885
			c-0.378,0.31-0.779,0.375-1.444,0.484l-1.184,0.221l-2.039,0.109l-1.832,0.092c-1.275,0.24-2.278,0.586-3.161,0.892l-1.852,0.562
			c-1.255,0.282-2.254,0.023-2.983-0.164c0,0-0.125-0.033-0.212-0.056c-0.21-3.597-2.944-5.724-4.408-6.328
			c0.3,0.457,0.558,0.882,0.797,1.283c-0.929,0.208-1.599,0.601-1.992,1.171c-0.019-0.299-0.059-0.572-0.113-0.826
			C225.926,336.925,224.744,336.186,224.438,336.021z M235.39,338.173c0.128,0.198,0.243,0.414,0.343,0.644
			c-0.006,0.021-0.007,0.037-0.014,0.058C235.629,338.621,235.517,338.389,235.39,338.173z M226.728,339.252
			c-0.131,0.122-0.264,0.243-0.368,0.4c0-0.014-0.004-0.027-0.004-0.045C226.468,339.48,226.591,339.361,226.728,339.252z
			 M226.012,347.234c-1.217-2.195,0-4.834,0.645-5.987c0.208-0.377,1.234-1.202,1.566-1.226c0.504-0.047,1.459,0.842,2.081,3.006
			C228.862,343.71,226.603,345.861,226.012,347.234z M246.88,344.584c0,0-0.988,0.613-1.825,0.684
			c-1.1,0.094-3.286-0.172-4.767,0.112c-1.482,0.283-2.906,0.942-4.179,1.384c-1.026,0.353-2.594,0.746-5.291,0.661
			c-0.92-0.028-2.761-0.518-2.761-0.518c0.722-1.104,2.068-2.023,2.068-2.023c0.637,0.333,3.362,0.83,5.231,0.384
			c1.876-0.438,4.654-1.735,6.667-1.742c1.948-0.018,3.739,0.076,4.971-0.772L246.88,344.584z M246.994,325.423l-0.081-0.149
			c-1.805-3.344-3.98-5.836-6.647-7.621c-2.783-1.787-4.993-2.723-7.389-3.133l-0.343-0.061l2.462-2.357l0.087,0.018
			c1.509,0.286,3.527,0.902,7.046,3.301c3.258,2.23,5.621,4.936,7.431,8.51l0.08,0.155L246.994,325.423z M267.654,326.146
			c-4.486-3.154-8.518-4.479-9.506-4.332c-0.002,0-0.439,0.06-0.439,0.06c-1.227,0.155-4.096,0.524-6.833,1.428
			c-0.959-2.157-2.189-3.889-3.422-4.923c8.837,3.139,15.726,2.678,22.288-1.501c1.925,0.927,2.865,2.687,3.695,4.24
			c0.564,1.059,1.054,1.969,1.771,2.438c-0.166,0.127-0.359,0.254-0.566,0.385C272.818,325.011,269.424,326.234,267.654,326.146z
			 M275.191,323.477c0.021,0.014,0.041,0.033,0.062,0.047c-0.002,0.002-0.005,0.004-0.007,0.004
			C275.229,323.512,275.212,323.492,275.191,323.477z M268.33,327.432l0.542-0.037c3.006-0.194,7.344-2.322,8.796-3.691
			c-1.818-1.438-2.482-2.702-3.102-3.924c-0.655-1.295-1.275-2.519-3.377-3.75l-0.221-0.129l3.057-2.406l0.097,0.042
			c2.127,0.928,2.953,2.377,3.751,3.778c0.713,1.25,1.464,2.537,3.132,3.547c0.875-0.786,2.058-2.864,2.379-4.004l0.062-0.224
			l2.425,1.479l-0.048,0.134c-0.924,2.577-2.615,4.883-5.025,6.851c-2.26,1.856-6.447,4.021-9.384,4.25L268.33,327.432z
			 M276.389,329.439c3.534-1.555,7.898-4.772,9.271-7.431c1.391,0.544,1.852,1.084,2.225,0.918v-0.047
			c0.71-0.562,1.707-0.125,1.788,2.124c0.02,0.473-0.048,1.26-0.506,2.13c-0.462,0.871-1.577,1.976-1.577,1.976
			C284.352,331.686,281.874,331.223,276.389,329.439z M279.37,334.701c0.403-0.977,1.299-1.756,1.683-2.014
			c0.879,0.066,2.024,0.181,4.07-0.379c0.021,0.135,0,0.199,0.008,0.346c-0.966,0.291-2.109,0.938-2.521,1.295
			C282.333,333.907,280.65,334.104,279.37,334.701z M283.021,335.943c0.041,0.02,0.086,0.041,0.127,0.062
			c-0.043-0.018-0.088-0.039-0.131-0.055C283.02,335.947,283.021,335.947,283.021,335.943z M281.01,342.688
			c-1.164-2.299,0.072-4.558,1.028-5.504c0.599,0.17,2.083,0.387,1.968,2.332C283.256,339.85,281.497,341.406,281.01,342.688z
			 M284.165,342.195l-0.825-0.162c0.268-0.418,0.871-0.869,0.871-0.869S284.09,341.646,284.165,342.195z M285.368,338.809
			c-0.001-0.02-0.009-0.037-0.009-0.058c0.13-0.202,0.269-0.386,0.418-0.558C285.631,338.382,285.486,338.575,285.368,338.809z
			 M286.105,344.098c-1.092-2.146,0.043-4.341,0.693-5.505c0.375-0.3,0.698-0.442,1-0.476c0.686-0.113,1.824,1.029,1.985,2.287
			C288.541,341.006,286.604,342.977,286.105,344.098z M298.279,329.848c0.297-0.65,0.785-3.201,0.785-3.973
			c-0.01-1.236-0.155-2.154-0.506-3.029l1.012,0.279c0.404,0.867,0.715,1.118,0.66,3.077c-0.051,2.233-1.361,4.843-1.556,6.752
			c-0.065,0.787-0.627,4.245-1.382,5.758c-0.68,1.382-1.966,3.308-4.23,4.11c-1.688,0.602-4.483,0.297-4.483,0.297
			s1.555-1.529,2.382-1.82c2.7-0.086,4.021-1.798,5.014-3.371c0.983-1.572,1.228-4.705,1.308-5.016
			C297.357,332.604,297.993,330.494,298.279,329.848z M293.758,321.521c0.047,0.008,0.854-0.148,0.854-0.148l0.652,0.048
			c1.245,0.313,1.894,1.462,1.979,3.506c0.098,2.148-1.016,5.907-1.489,7.513l-0.086,0.289l-0.206,0.965
			c-0.381,2.019-1.018,5.4-4.296,5.845c-0.425-1.828-2.288-2.703-3.194-2.668c-1.086,0.075-2.033,0.757-2.615,1.86
			c-0.02-0.228-0.065-0.437-0.129-0.633c-0.297-1.145-1.304-1.887-2.179-2.191c0.167-0.25,0.345-0.477,0.53-0.687
			c1.843-1.975,4.824-2.005,8.939-1.35c-0.021-0.022-0.05-0.044-0.068-0.066c0.025,0.007,0.052,0.009,0.078,0.013
			c-0.209-0.215-0.479-0.4-0.771-0.573c-1.227-0.791-3.054-1.153-4.174-1.124c0.009-0.018,0.018-0.034,0.018-0.051
			c0.107-0.127,0.012-0.308-0.261-0.715c0.001-0.002,0.002-0.002,0.002-0.006c0.027,0.051,1.97-1.16,2.918-2.439
			c0.796-1.064,1.208-2.725,1.243-3.336c0.098-1.799-0.469-3.394-1.439-4.055c-0.608-0.418-1.354-0.445-2.154-0.084
			c0.042,0-0.33-0.162-0.359-0.174c0.018-0.029,0.038-0.057,0.057-0.088c0.365-0.488,0.875-0.85,1.547-0.995
			C290.641,319.854,292.537,320.62,293.758,321.521z M287.564,332.171c0.006-0.009,0.006-0.017,0.011-0.024
			c0.159,0.008,0.329,0.017,0.513,0.037C287.902,332.171,287.727,332.167,287.564,332.171z M290.146,333.511
			c0.715,0.062,1.476,0.163,2.279,0.29c0.018,0.02,0.043,0.034,0.062,0.055C291.663,333.704,290.885,333.588,290.146,333.511z
			 M325.021,292.018c-2.877,3.522-9.643,10.004-18.732,14.903c-3.348,1.813-11.475,6.341-22.051,8.425l-1.297-1.421
			c2.238-0.618,3.49-2.069,3.49-2.069c1.17,0.494,2.771-1.174,2.771-1.174c0.78-0.781,1.667-3.775,2.015-5.176
			c-0.005,0-0.01,0-0.014,0l0.014-0.003c0,0,0,0.002,0,0.003c1.739-0.121,3.272-0.302,4.375-0.531
			c10.043-2.074,20.227-6.516,28.522-12.662c1.132-0.834,1.57-1.297,2.103-1.77C325.921,290.924,325.97,290.859,325.021,292.018z"/>
		<path fill="#FFFFFF" d="M226.352,339.581c0.393-0.57,1.063-0.963,1.992-1.171c-0.239-0.402-0.497-0.826-0.797-1.283
			c1.464,0.604,4.198,2.732,4.408,6.328c0.086,0.021,0.212,0.055,0.212,0.055c0.729,0.188,1.728,0.447,2.983,0.164l1.852-0.561
			c0.883-0.307,1.886-0.65,3.161-0.893l1.832-0.091l2.039-0.108l1.184-0.223c0.665-0.107,1.065-0.175,1.444-0.484
			c0.975-1.506-0.988-5.803-1.009-5.885c0.453-1.427,0.16-2.379-0.809-2.846c-0.732,0.762-2.895,1.342-3.867,1.3
			c-4.238-0.188-4.657-0.332-6.455-1.17c-0.153-0.071-0.587-0.226-0.749-0.079c-0.049,0.045-0.068,0.116-0.068,0.196
			c0,0.104,0.031,0.224,0.066,0.323c0,0,0.725,2.3,0.725,2.337c0,0.002-0.001,0.002-0.001,0c1.083,0.741,1.506,1.854,1.392,2.782
			c-0.015,0.215-0.047,0.424-0.115,0.613c-0.008-0.016-0.019-0.029-0.026-0.05c-0.011,0.022-0.015,0.049-0.025,0.072
			c-0.785-1.906-2.689-2.714-3.246-2.913c-1.211-0.221-2.535-0.312-3.669-0.373c-0.788-0.043-2.932-0.156-3.958,0.169
			c-0.04,0.017-0.089,0.024-0.126,0.041c-0.017,0.006-0.026,0.017-0.042,0.022c-0.096,0.047-0.175,0.102-0.241,0.162
			c0.306,0.164,1.488,0.904,1.8,2.734C226.293,339.009,226.333,339.282,226.352,339.581z M237.792,338.848
			c0.458-0.084,0.956-0.039,1.468,0.06c1.327-2.05-0.03-3.493-0.089-3.554l-0.913-0.943l1.304-0.087
			c1.588-0.106,2.91,0.403,3.822,1.479c1.097,1.289,1.37,3.121,1.239,4.22c0.237-0.061,0.463-0.149,0.669-0.301l0.297-0.217
			l-0.054,0.364c-0.006,0.032-0.053,0.067-0.064,0.099l0.002,0.002c-0.002,0-0.002,0-0.004,0.002
			c-0.117,0.352-0.518,0.727-1.17,1.024c-0.986,0.45-2.532,0.729-3.647,0.028l-0.93-0.693c-0.608-0.491-1.296-1.049-1.933-1.182
			L237.792,338.848z"/>
		<path fill="#FFFFFF" d="M224.394,336.049c-0.001,0.003-0.003,0.003-0.005,0.004c0.02,0.014,0.046,0.028,0.068,0.043
			C224.434,336.078,224.413,336.062,224.394,336.049z"/>
		<path fill="#FFFFFF" d="M226.359,339.652c0.104-0.157,0.237-0.278,0.368-0.4c-0.137,0.109-0.259,0.229-0.373,0.355
			C226.355,339.625,226.359,339.639,226.359,339.652z"/>
		<path fill="#FFFFFF" d="M235.39,338.173c0.126,0.216,0.239,0.448,0.33,0.7c0.006-0.02,0.007-0.037,0.014-0.057
			C235.633,338.587,235.518,338.371,235.39,338.173z"/>
		<path fill="#FFFFFF" d="M235.356,345.268c-1.87,0.446-4.595-0.051-5.231-0.384c0,0-1.346,0.918-2.068,2.023
			c0,0,1.84,0.487,2.761,0.518c2.697,0.085,4.265-0.31,5.291-0.661c1.273-0.44,2.697-1.101,4.179-1.384
			c1.481-0.284,3.667-0.019,4.767-0.112c0.837-0.069,1.825-0.684,1.825-0.684l0.114-1.832c-1.231,0.85-3.022,0.756-4.971,0.771
			C240.011,343.531,237.232,344.828,235.356,345.268z"/>
		<path fill="#FFFFFF" d="M223.176,344.202c0.208,0.414,0.673,0.517,0.964,0.782c0,0-0.072-0.297,0.019-0.854
			c0.124-0.76,0.174-0.972,0.174-0.972C223.56,343.773,223.469,343.773,223.176,344.202z"/>
		<path fill="#FFFFFF" d="M275.208,323.557c-0.718-0.47-1.206-1.38-1.771-2.438c-0.832-1.555-1.771-3.314-3.696-4.24
			c-6.562,4.178-13.45,4.639-22.288,1.501c1.233,1.034,2.463,2.765,3.422,4.923c2.738-0.902,5.605-1.271,6.833-1.428
			c0,0,0.438-0.059,0.44-0.059c0.988-0.148,5.019,1.177,9.506,4.33c1.769,0.088,5.164-1.135,6.984-2.205
			C274.848,323.812,275.042,323.684,275.208,323.557z"/>
		<path fill="#FFFFFF" d="M275.255,323.523c-0.022-0.015-0.041-0.034-0.062-0.049c0.02,0.018,0.035,0.037,0.056,0.051
			C275.25,323.525,275.253,323.525,275.255,323.523z"/>
		<path fill="#FFFFFF" d="M278.107,314.801c0.318,0.482,0.563,0.956,0.793,1.407c0.481,0.944,0.896,1.761,1.824,2.312l0.771-1.043
			c0.428-0.713,0.523-1.584,0.543-1.547c-0.494-0.482-0.923-1.051-1.326-1.644C280.055,314.464,278.912,314.744,278.107,314.801z"/>
		<path fill="#FFFFFF" d="M287.575,332.146c-0.005,0.008-0.005,0.017-0.011,0.024c0.162-0.004,0.338,0,0.522,0.013
			C287.904,332.162,287.734,332.152,287.575,332.146z"/>
		<path fill="#FFFFFF" d="M289.152,320.177c-0.672,0.146-1.182,0.507-1.547,0.995c-0.019,0.031-0.039,0.059-0.057,0.088
			c0.029,0.012,0.401,0.174,0.359,0.174c0.801-0.361,1.546-0.334,2.154,0.084c0.972,0.662,1.537,2.256,1.439,4.055
			c-0.035,0.611-0.447,2.271-1.243,3.336c-0.948,1.279-2.891,2.49-2.918,2.439c0,0.004-0.001,0.004-0.002,0.006
			c0.271,0.408,0.368,0.588,0.261,0.715c0,0.017-0.009,0.033-0.018,0.051c1.12-0.029,2.947,0.333,4.174,1.124
			c0.293,0.173,0.562,0.358,0.771,0.573c-0.026-0.004-0.053-0.006-0.078-0.012c0.02,0.021,0.049,0.043,0.068,0.065
			c-4.115-0.655-7.098-0.625-8.939,1.351c-0.188,0.209-0.363,0.436-0.53,0.686c0.875,0.306,1.882,1.048,2.179,2.191
			c0.062,0.196,0.109,0.405,0.129,0.633c0.582-1.104,1.529-1.785,2.615-1.86c0.906-0.035,2.771,0.84,3.194,2.668
			c3.278-0.442,3.915-3.826,4.296-5.845l0.206-0.965l0.086-0.289c0.476-1.604,1.587-5.363,1.489-7.512
			c-0.086-2.045-0.733-3.191-1.979-3.507l-0.652-0.048c0,0-0.808,0.156-0.854,0.148C292.537,320.62,290.641,319.854,289.152,320.177
			z"/>
		<path fill="#FFFFFF" d="M285.359,338.751c0,0.021,0.008,0.038,0.009,0.058c0.118-0.232,0.263-0.427,0.409-0.615
			C285.628,338.365,285.489,338.549,285.359,338.751z"/>
		<path fill="#FFFFFF" d="M290.146,333.511c0.737,0.077,1.517,0.193,2.343,0.345c-0.021-0.021-0.046-0.035-0.062-0.055
			C291.622,333.674,290.861,333.572,290.146,333.511z"/>
		<path fill="#FFFFFF" d="M283.021,335.943c0,0.004-0.002,0.004-0.004,0.008c0.043,0.016,0.088,0.037,0.131,0.055
			C283.107,335.984,283.062,335.963,283.021,335.943z"/>
		<path fill="#FFFFFF" d="M290.961,341.299c-0.827,0.291-2.382,1.82-2.382,1.82s2.795,0.305,4.483-0.297
			c2.266-0.805,3.552-2.729,4.23-4.11c0.755-1.513,1.314-4.971,1.382-5.758c0.193-1.909,1.505-4.519,1.556-6.752
			c0.055-1.959-0.256-2.21-0.66-3.077l-1.012-0.279c0.351,0.875,0.496,1.793,0.506,3.029c0,0.771-0.488,3.321-0.785,3.973
			c-0.286,0.646-0.922,2.758-0.998,3.064c-0.08,0.311-0.323,3.441-1.307,5.016C294.982,339.501,293.661,341.213,290.961,341.299z"/>
		<path fill="#FFFFFF" d="M283.34,342.033l0.825,0.162c-0.075-0.549,0.046-1.031,0.046-1.031S283.605,341.615,283.34,342.033z"/>
		<path fill="#FFFFFF" d="M248.925,310.302c-0.406,0.207-1.262,0.485-1.996,0.517l2.281,1.677l1.122-1.476l-0.995-0.969
			C249.336,310.051,249.126,310.195,248.925,310.302z"/>
		<path fill="#FFFFFF" d="M273.331,311.16c-0.529-1.9-0.704-3.196-0.812-5.049c-0.389-0.215-1.012-0.733-1.562-1.242l-0.296,0.517
			c-1.722,2.691-5.513,4.495-8.906,4.62c-3.808,0.141-6.66-0.997-8.89-2.717c-2.043-1.566-5.354-4.982-5.199-11.098
			c-0.375-0.209-0.712-0.424-1.012-0.635c-0.725,3.014-0.08,5.586-0.354,7.115c-0.446,2.46-2.15,4.67-3.384,5.362
			c-8.842-0.21-10.665-11.736-10.665-11.736c-1.132,1.824-0.336,5.574-0.336,5.574s-0.017,0.521,0.597,1.924
			c3.249,7.472,7.48,7.933,14.738,12.759c1.131,0.48,3.443,0.939,3.443,0.939c2.381,0.232,7.611-0.688,9.822-1.342
			c-1.904,1.885-4.785,2.17-4.785,2.17C260.087,318.898,267.657,317.38,273.331,311.16z M256.271,315.257l-3.875-2.694l-0.998,1.215
			l2.875,1.941c-2.627,0.629-6.333,0.178-6.333,0.178l0.039-0.736l-7.272-4.904l-2.592-0.964c5.986,0.59,10.986-1.907,10.986-1.907
			l2.583,0.483l2.572,2.114l-0.668,1.062l2.434,0.139l3.232,2.256l3.025,0.547C262.279,313.984,258.366,315.127,256.271,315.257z"/>
		<path fill="#071921" d="M259.254,313.438l-3.232-2.256l-2.434-0.138l0.668-1.062l-2.572-2.115l-2.583-0.483
			c0,0-5,2.497-10.986,1.907l2.592,0.964l7.272,4.904l-0.039,0.735c0,0,3.707,0.451,6.333-0.177l-2.875-1.942l0.998-1.215
			l3.875,2.695c2.095-0.13,6.008-1.271,6.008-1.271L259.254,313.438z M249.21,312.494l-2.281-1.678
			c0.733-0.029,1.589-0.309,1.996-0.516c0.201-0.105,0.412-0.251,0.412-0.251l0.995,0.968L249.21,312.494z"/>
		<path fill="#071921" d="M240.651,341.023c1.115,0.701,2.661,0.422,3.647-0.028c0.652-0.3,1.054-0.675,1.17-1.024
			c0.001-0.002,0.002-0.002,0.004-0.002l-0.002-0.002c0.011-0.031,0.058-0.066,0.064-0.099l0.054-0.364l-0.297,0.217
			c-0.206,0.15-0.432,0.24-0.669,0.301c0.131-1.099-0.142-2.931-1.239-4.22c-0.912-1.075-2.234-1.586-3.822-1.479l-1.304,0.088
			l0.913,0.943c0.059,0.061,1.416,1.504,0.089,3.553c-0.513-0.098-1.011-0.143-1.468-0.059l-0.003,0.303
			c0.637,0.131,1.325,0.688,1.933,1.181L240.651,341.023z M240.707,335.584c2.345,0.4,2.825,3.059,2.72,4.236
			c-0.006,0.06-2.21,0.104-2.954-0.608C241.635,337.271,240.707,335.584,240.707,335.584z"/>
		<path fill="#C4CDD2" d="M284.7,302.586c-0.38-2.347-0.933-3.152-1.733-3.834c0.123,0.865-0.18,2.038-0.375,2.535
			C283.77,301.783,284.7,302.586,284.7,302.586z"/>
		<path fill="#C4CDD2" d="M288.898,302.402c0,0,0.242-2.969-1.797-4.389c0.252,1.047-0.056,2.84-0.424,3.398
			C287.229,301.475,288.551,301.986,288.898,302.402z"/>
		<path fill="#FFFFFF" d="M249.516,278.956c0,0-1.797-0.405-2.32-0.675c0.451,0.746,0.303,2.626,0.303,2.626
			C249.282,280.096,249.516,278.956,249.516,278.956z"/>
		<path fill="#FFFFFF" d="M252.531,279.016c0,0-1.381,0.338-2.016,0.271c0.295,0.474,0.408,2.258,0.408,2.258
			C252.157,280.934,252.531,279.016,252.531,279.016z"/>
		<path fill="#FFFFFF" d="M255.617,278.427l-2.225,0.438c0.375,0.453,0.53,1.764,0.455,2.306
			C255.264,280.494,255.617,278.427,255.617,278.427z"/>
		<path fill="#FFFFFF" d="M258.41,278.73c0,0-1.309-0.478-1.811-0.646c0.155,0.474,0.155,2.494-0.041,2.997
			C257.83,280.549,258.41,278.73,258.41,278.73z"/>
		<path fill="#FFFFFF" d="M261.499,279.809c-0.824-0.104-1.97-0.691-1.97-0.691c0.129,0.523,0.166,2.104,0.019,2.576
			C260.596,281.221,261.499,279.809,261.499,279.809z"/>
		<path fill="#FFFFFF" d="M264.8,280.009c-0.51,0.066-1.862,0.066-2.321-0.05c0.32,0.689,0.189,2.477,0.189,2.477
			C263.559,281.822,264.143,280.682,264.8,280.009z"/>
		<path fill="#FFFFFF" d="M245.944,285.262c0.22-0.605,0.11-1.187,0.09-2.021c-0.363,0.408-1.564,1.238-2.116,1.55
			C244.871,284.915,245.379,285.018,245.944,285.262z"/>
		<path fill="#FFFFFF" d="M248.197,287.891c0.294-0.336,0.751-1.692,0.679-2.629c-0.385,0.399-1.36,0.939-1.876,1.146
			C247.15,286.609,247.9,287.354,248.197,287.891z"/>
		<path fill="#FFFFFF" d="M249.094,289.169c0.227,0.406,1.044,1.144,1.424,1.414c0.672-0.878,0.612-1.997,0.463-2.672
			C250.536,288.464,249.455,289.064,249.094,289.169z"/>
		<path fill="#FFFFFF" d="M251.711,291.729c0.446,0.539,1.484,0.81,1.867,0.81c0.199-0.626,0.336-1.604,0.074-2.562
			C253.35,290.583,252.057,291.514,251.711,291.729z"/>
		<path fill="#FFFFFF" d="M257.079,292.739c0.022-0.603-0.089-1.745-0.317-2.146c-0.324,0.601-0.92,1.474-1.56,2.146
			C255.852,292.871,256.292,292.936,257.079,292.739z"/>
		<path fill="#C4CDD2" d="M254.01,288.771c0,0.002,0,0.002,0,0.004c0.018-0.01,0.039-0.022,0.053-0.032
			c0.26,0.489,0.547,1.379,0.631,2.251c0.023,0.143,0.051,0.283,0.064,0.424c0.141-0.115,1.084-0.915,1.358-1.48
			c-0.065-0.26-0.242-0.385-0.829-0.793l-0.213-0.151l-0.477-0.244c-0.421-0.185-0.998-0.435-1.775-1.267
			c-0.418-0.444-0.666-1.053-0.93-1.697c-0.344-0.837-0.732-1.785-1.58-2.527c-1.033-0.902-3.067-1.892-5.676-1.971
			c-0.426,0.482-1.041,1.438-1.419,2.336c-0.065,0.186-0.12,0.369-0.16,0.55c0.249-0.157,1.852-1.184,3.053-2.127
			c0.087-0.075,0.182-0.149,0.262-0.224c0,0,0.005,0.009,0.005,0.011c0.016-0.013,0.035-0.024,0.051-0.038
			c0.007,0.018,0.694,1.461,0.728,2.855c0.013,0.168,0.015,0.339,0.009,0.506c0.117-0.057,1.083-0.52,2-1.034
			c0.105-0.067,0.21-0.136,0.309-0.206c0.002,0.005,0.004,0.02,0.005,0.023c0.018-0.01,0.038-0.021,0.057-0.031l0.045,0.234
			c0.113,0.551,0.351,1.731,0.013,2.972c-0.007,0.032-0.016,0.065-0.023,0.1c0,0.001,0,0.001-0.001,0.003
			c-0.042,0.174-0.093,0.348-0.156,0.521l1.832-1c0,0,0.381-0.221,0.471-0.188c0.321,0.978,0.429,2.007,0.288,2.935
			c-0.018,0.205-0.048,0.414-0.09,0.63c0.387-0.216,1.553-0.99,2.053-1.308C253.979,288.796,253.998,288.781,254.01,288.771z"/>
		<path fill="#CA1344" d="M295.592,304.975c-1.103,0.229-2.636,0.41-4.375,0.531c-0.348,1.398-1.234,4.395-2.015,5.176
			c0,0-1.601,1.668-2.771,1.174c0,0-1.252,1.451-3.49,2.069l1.297,1.421c10.576-2.084,18.703-6.611,22.051-8.425
			c9.091-4.899,15.855-11.381,18.732-14.903c0.948-1.158,0.899-1.094,1.195-1.475c-0.531,0.473-0.971,0.936-2.103,1.77
			C315.817,298.459,305.635,302.9,295.592,304.975z M300.532,308.947c-3.745,1.609-7.347,3.332-11.568,4.464l3.046-4.872
			l3.012,2.488l2.377-4.012l2.631,1.799l2.089-3.36l2.202,1.433l1.813-2.885l1.667,0.848l1.441-2.285l1.513,0.398l1.068-1.624
			l1.304,0.362C310.66,303.55,305.878,306.646,300.532,308.947z"/>
		<polygon fill="#CA1344" points="291.203,305.506 291.217,305.506 291.217,305.503 		"/>
		<path fill="#071921" d="M310.755,302.963l-1.513-0.398l-1.441,2.285l-1.667-0.848l-1.813,2.885l-2.202-1.433l-2.089,3.36
			l-2.631-1.799l-2.377,4.012l-3.012-2.488l-3.046,4.872c4.224-1.132,7.823-2.854,11.568-4.464
			c5.346-2.301,10.128-5.397,12.595-7.246l-1.304-0.362L310.755,302.963z"/>
		<path fill="#CA1344" d="M287.589,329.109c0,0,1.115-1.104,1.577-1.976c0.458-0.87,0.523-1.657,0.506-2.13
			c-0.081-2.249-1.078-2.688-1.788-2.124v0.047c-0.372,0.166-0.834-0.374-2.225-0.918c-1.372,2.657-5.736,5.876-9.271,7.431
			C281.874,331.223,284.352,331.686,287.589,329.109z"/>
		<path fill="#CA1344" d="M242.886,323.284c0.542,0.413,1.143,0.963,1.462,1.338l0.244-0.179c-2.555-4.072-6.088-6.565-9.386-7.604
			c-1.336-0.428-2.999-0.896-2.999-0.896c-1.381,0.937-1.77,4.965-0.64,6.502c1.127,1.531,2.947,6.492,3.418,8.394
			c1.186,0.704,4.817,1.024,5.745,1.003c0.802-0.021,1.794-0.16,2.622-0.57c-0.606-1.149,0.272-1.678,0.301-4.006
			c0.025-2.105-2.541-4.101-3.077-4.604c0.027-0.111,0.061-0.174,0.097-0.234C240.675,322.426,242.168,322.756,242.886,323.284z"/>
		<path fill="#CA1344" d="M229.574,315.508c0.666-1.229,1.748-2.921,4.385-5.184c-2.453-2.297-4.432-6.385-4.481-10.825
			c-1.631,1.146-2.843,4.425-2.51,6.185c0,0,2.346,1.959,2.167,4.797c0,0-2.022-2.049-3.151-2.592
			c-1.825-0.443-6.023-1.424-9.412-1.268c-1.15-0.85-5.76-2.303-5.76-2.303s-1.817-0.479-2.771-0.646
			c-1.179,0.241-3.37,1.107-4.668,1.342c-0.771,0.146-1.75,1.938-1.803,2.484c0,0,0.404-0.344,0.919-0.303
			c0.892,0.181,1.528,1.135,1.977,2.137c0.533-0.23,0.949-0.76,1.235-1.682c1.527-0.215,2.79-1.056,3.647-0.818
			c0,0,3.002,1.938,3.949,2.906c0.389,1.179,1.333,2.601,1.544,3.082c0,0-0.553,1.551-0.124,2.324c0,0,1.102,0.312,2.704-0.759
			c1.048-1.334,0.16-3.946-0.051-4.766c0,0,2.118,1.664,2.409,4.103c1.109,0.725,4.674,3.372,9.046,4.041
			C228.825,317.766,228.865,316.838,229.574,315.508z"/>
		<path fill="#071921" d="M198.01,307.943c0.232-0.055,0.905,0.597,1.385,1.238l0.167,0.229l0.49-0.959
			c0.019-0.078-0.031-1.021-0.031-1.021c-0.028-0.369,0.754-1.572,1.254-2.244l0.173-0.231l-0.286-0.046
			c-0.63-0.1-1.231,0.43-1.461,0.722c-0.001,0-0.138,0.175-0.138,0.175c-0.243,0.32-0.611,0.807-1.606,1.358
			c-0.729,0.416-0.829,0.622-0.83,0.771l-0.004,0.24l0.271-0.029L198.01,307.943z"/>
		<path fill="#CA1344" d="M198.01,307.943c0.232-0.055,0.905,0.597,1.385,1.238l0.167,0.229l0.49-0.959
			c0.019-0.078-0.031-1.021-0.031-1.021c-0.028-0.369,0.754-1.572,1.254-2.244l0.173-0.231l-0.286-0.046
			c-0.63-0.1-1.231,0.43-1.461,0.722c-0.001,0-0.138,0.175-0.138,0.175c-0.243,0.32-0.611,0.807-1.606,1.358
			c-0.729,0.416-0.829,0.622-0.83,0.771l-0.004,0.24l0.271-0.029L198.01,307.943z"/>
		<path fill="#CA1344" d="M288.098,309.011c0.617-0.614,1.277-3.952,1.277-3.952c-0.414-0.973-2.764-1.629-2.764-1.629l-0.243,0.74
			c0.942,1.137,0.432,3.025,0.432,3.025c-1.964-3.375-5.718-4.717-5.718-4.717c-0.318,0.266-1.332,1.01-1.332,1.01
			c-0.057-1.975-0.082-2.18-0.082-2.18c-0.838-3.013-3.73-7.785-4.865-8.207c-3.144-1.178-8.293-1.158-9.974-0.312
			c0,0,1.383,1.653,0.871,3.021c0,0-1.04-1.656-2.734-2.649c-1.588-0.933-2.526-1.289-3.252-1.491l-0.063,0.1
			c-0.201,0.446-0.313,0.592-0.313,0.592l1.422,1.145c-0.665,3.135-4.157,4.326-6.78,4.477l-0.203,0.015
			c0.195,0.495,0.383,0.899,0.647,1.351c1.456,2.439,3.556,4.055,5.209,4.266c1.454,0.187,4.226,0.386,5.074-1.754
			c1.731,0.74,4.22,0.507,5.799-0.443c0.829,1.752,3.214,2.732,3.868,3.4c0.374,5.438,1.77,8.074,2.271,8.199
			c1.319,0.33,2.904-0.349,2.904-0.349l-0.309-2.435l2.757,2.224c1.112-0.246,2.454-1.151,2.454-1.151
			c-0.35-0.416-1.359-2.634-1.359-2.634c1.609,0.74,3.422,1.437,3.422,1.437S287.477,309.631,288.098,309.011z"/>
		<path fill="#CA1344" d="M244.711,272.574c-0.159-0.251-0.288-0.57-0.289-0.95C244.422,272.004,244.552,272.323,244.711,272.574z"
			/>
		<path fill="#CA1344" d="M246.863,272.445c0.023-0.084,0.048-0.168,0.078-0.252C246.911,272.277,246.886,272.361,246.863,272.445z"
			/>
		<path fill="#CA1344" d="M246.769,272.898c0.012-0.088,0.029-0.178,0.049-0.271C246.798,272.721,246.781,272.809,246.769,272.898z"
			/>
		<path fill="#CA1344" d="M246.743,273.148c-0.002,0.043-0.005,0.084-0.006,0.125C246.738,273.232,246.74,273.191,246.743,273.148z"
			/>
		<path fill="#CA1344" d="M250.364,272.6c-0.114,0.01-0.213-0.013-0.313-0.033C250.147,272.592,250.251,272.604,250.364,272.6
			L250.364,272.6z"/>
		<path fill="#CA1344" d="M232.041,272.059c-2.467,2.496-3.223,6.672-3.223,7.547c0,0.879-0.155,3.688,1.18,6.658
			c0.784,1.73,2,3.448,3.475,6.19c1.27,2.356,1.045,6.485,3.266,9.466c2.041,2.741,4.003,3.777,5.493,3.848
			c0.562-0.398,1.358-1.787,1.696-2.531c0,0-2.671,0.553-4.523-1.85c2.163,0.643,3.653-0.335,4.221-1.152
			c0.66-0.942,0.724-1.558,0.721-1.629c-1.402,0.978-2.732,0.961-3.977,0.865c-2.461-0.197-4.022-2.559-4.022-2.559
			c6.539,1.872,7.967-1.361,7.967-1.361l-0.161,0.025c-6.785,1.009-8.596-4.236-8.596-4.236c4.925,2.793,8.14,1.674,8.14,1.674
			s-0.202-0.889-1.823-1.56c-1.833-0.767-4.789-1.336-6.521-3.384c-0.74-0.872-1.325-1.984-1.389-3.532
			c-0.084-1.901,1.254-2.782,1.254-2.782c-0.34,1.124-0.33,2.963,1.373,4.857c1.967,2.185,5.68,2.104,7.051,2.88
			c0.561,0.321,2.568,1.751,3.018,2.358c2.118,2.864,4.723,4.446,7.479,4.446c2.655,0,4.57-2.202,4.57-2.202
			c-4.041,0.399-6.464-0.164-8.111-1.246c-1.636-1.074-4.583-5.643-5.347-6.029c-1.023-0.514-4.689-0.623-4.689-0.623
			c1.051-6.194,6.195-9.416,6.798-9.416c0.894,0,2.417,0.859,3.387,0.931c0.974,0.063,5.283-1.065,6.114-1.136
			c0.818-0.064,4.84,2.145,7.229,1.875c0.744-0.085,1.729-0.176,2.475-0.576c-0.024-0.963-0.342-2.104-0.342-2.104
			c-0.438,0.096-0.789,0.733-0.974,1.031c-0.028-0.009-0.129-0.045-0.129-0.045c0-1.344,0.851-2.762,0.851-2.762
			s-0.412-1.217-0.644-1.753c-1.142-0.687-6.313-1.716-9.004-2.274c-2.979-0.621-2.853-1.9-2.853-1.9
			c0.5,0.468,1.971,0.683,1.971,0.683s0.195-0.672-0.568-0.872c-0.818-0.216-3.923-1.604-3.923-1.604l-0.932,0.414
			c0.304,0.203,0.619,0.978,0.692,1.451c0.056,0.336,1.015,1.353,1.271,1.572c0.008,0-0.08,0.12-0.08,0.12
			c-1.715-0.474-2.312-1.937-3.361-2.479c-1.042-0.535-4.302-0.891-5.9-0.822c-0.82,0.873-2.759,3.254-2.759,3.254
			c-0.434-0.648-0.232-1.943-0.232-1.943C235.688,269.01,234.352,269.714,232.041,272.059z M261.34,274.016
			c0,0,1.352,0.944,1.424,2.797c0,0-1.156-1.617-2.322-2.026L261.34,274.016z M232.316,283.714
			c-0.593-1.278-1.626-2.125-1.115-5.321c0.675-4.179,5.68-6.063,7.622-6.471l-1.866,2.699l2.39,0.939
			C231.001,276.464,232.316,283.714,232.316,283.714z M244.839,269.641c-0.525-0.238-2.022-0.139-2.022-0.139
			c0.301-0.204,1.497-1.083,4.04-0.74c2.097,0.278,2.711,2.653,3.661,3.03c0.604,0.244,1.862,0.063,2.23-0.271
			c-0.559,1.813-3.693,2.021-3.693,2.021c0.127-0.062,0.271-0.145,0.417-0.232c-0.135,0.076-0.265,0.146-0.382,0.203h-0.024
			c-0.696,0.229-1.431,0.342-2.203,0.229c-0.601-0.092-1.096-0.284-1.527-0.528v0.007l-0.003-0.003
			c-1.342-0.099-1.985-0.893-2.468-1.124c-0.495,0.1-1.308,0.371-1.308,0.371C242.409,270.479,244.839,269.641,244.839,269.641z
			 M243.715,277.65c0,0-3.496,3.061-4.569,7.68c0,0-1.139-0.579-1.399-1.482C237.747,283.848,239.531,280.009,243.715,277.65z"/>
		<path fill="#071921" d="M262.764,276.812c-0.072-1.853-1.424-2.797-1.424-2.797l-0.898,0.771
			C261.605,275.195,262.764,276.812,262.764,276.812z"/>
		<path fill="#071921" d="M236.957,274.621l1.866-2.699c-1.942,0.406-6.947,2.292-7.622,6.471c-0.511,3.196,0.522,4.043,1.115,5.321
			c0,0-1.315-7.25,7.031-8.153L236.957,274.621z"/>
		<path fill="#071921" d="M239.146,285.33c1.073-4.619,4.569-7.68,4.569-7.68c-4.184,2.357-5.968,6.197-5.968,6.197
			C238.007,284.751,239.146,285.33,239.146,285.33z"/>
		<path fill="#071921" d="M245.333,273.219c-0.013-0.008-0.358-0.232-0.622-0.645c-0.159-0.251-0.289-0.57-0.289-0.95l0,0
			c0.278-0.491,0.926-0.769,1.608-0.908c0.087-0.021,0.171-0.042,0.258-0.056c0-0.001,0.001-0.001,0.003-0.001l0.058-0.011
			c-0.094,0.254-0.208,0.578-0.26,0.938c-0.001,0.005-0.002,0.009-0.002,0.013c-0.009,0.064-0.01,0.133-0.015,0.2
			c-0.004,0.101-0.007,0.204,0,0.312c0.001,0.021,0.004,0.045,0.005,0.067c0.013,0.144,0.042,0.285,0.084,0.435
			c0.004,0.011,0.006,0.021,0.011,0.033c0.046,0.147,0.109,0.295,0.194,0.446c0.01,0.019,0.017,0.034,0.027,0.054
			c0.097,0.16,0.211,0.321,0.363,0.481c-0.018-0.104-0.023-0.226-0.021-0.354c0.001-0.039,0.004-0.08,0.006-0.125
			c0.005-0.08,0.014-0.162,0.026-0.248c0.012-0.092,0.029-0.18,0.049-0.271c0.014-0.062,0.028-0.122,0.045-0.184
			c0.023-0.084,0.048-0.168,0.078-0.252c0.042-0.125,0.088-0.248,0.145-0.365c0.028-0.059,0.054-0.117,0.084-0.174
			c0.014-0.024,0.03-0.049,0.045-0.072c0.188-0.321,0.425-0.594,0.717-0.73l0.001,0.086c0.075,0.037,0.137,0.08,0.205,0.121
			c0.017,0.01,0.035,0.02,0.052,0.029c0.881,0.534,1.236,1.299,1.861,1.479c0.1,0.021,0.199,0.043,0.313,0.033h-0.001
			c0.022,0,0.04,0.006,0.064,0.004c-0.086,0.18-0.533,0.474-0.955,0.709c-0.146,0.088-0.289,0.168-0.417,0.231
			c0,0,3.134-0.208,3.693-2.022c-0.368,0.334-1.628,0.516-2.23,0.271c-0.949-0.377-1.563-2.752-3.661-3.03
			c-2.543-0.343-3.739,0.536-4.04,0.74c0,0,1.497-0.101,2.022,0.138c0,0-2.43,0.838-3.282,2.826c0,0,0.813-0.271,1.308-0.371
			C243.347,272.326,243.991,273.12,245.333,273.219z"/>
		<path fill="#C4CDD2" d="M198.44,311.496c-0.215,0.089,0.608,0.066,0.304-1.241c-0.125-0.516-0.781-1.211-0.886-1.269
			c0,0-0.952,0.457-1.317,0.996c-0.29,0.444-1.427,2.451-0.237,4.748C196.532,314.023,197.028,312.084,198.44,311.496z"/>
		<path fill="#C4CDD2" d="M202.304,308.654c-0.388-0.045-1.105,0.559-1.366,1.031c-0.33,0.629-1.222,2.56-0.114,4.933
			c0.235-0.812,0.896-3.065,2.469-3.651c0.153-0.055-0.005-0.855-0.054-1.066C203.078,309.141,202.304,308.654,202.304,308.654z"/>
		<path fill="#C4CDD2" d="M223.165,337.625c-0.377,0.01-0.736,0.552-1.298,0.917c-0.926,1.368-2.295,3.702-1.309,6.06
			c0.805-1.365,2.887-3.158,4.449-3.764C224.648,339.24,224.225,337.604,223.165,337.625z"/>
		<path fill="#C4CDD2" d="M228.223,340.021c-0.333,0.022-1.359,0.849-1.566,1.226c-0.645,1.153-1.862,3.792-0.645,5.987
			c0.591-1.373,2.85-3.524,4.292-4.207C229.682,340.863,228.727,339.977,228.223,340.021z"/>
		<path fill="#C4CDD2" d="M243.427,339.82c0.105-1.18-0.375-3.836-2.72-4.236c0,0,0.928,1.688-0.234,3.628
			C241.216,339.924,243.42,339.88,243.427,339.82z"/>
		<path fill="#C4CDD2" d="M282.609,333.949c0.412-0.355,1.556-1.004,2.521-1.295c-0.008-0.146,0.015-0.211-0.008-0.346
			c-2.046,0.56-3.192,0.445-4.07,0.379c-0.384,0.258-1.278,1.037-1.683,2.014C280.65,334.104,282.333,333.907,282.609,333.949z"/>
		<path fill="#C4CDD2" d="M282.038,337.184c-0.956,0.946-2.192,3.205-1.028,5.504c0.487-1.28,2.246-2.838,2.996-3.172
			C284.121,337.57,282.637,337.354,282.038,337.184z"/>
		<path fill="#C4CDD2" d="M287.8,338.117c-0.302,0.031-0.625,0.176-1,0.476c-0.649,1.164-1.786,3.357-0.692,5.505
			c0.496-1.121,2.435-3.092,3.679-3.692C289.624,339.146,288.484,338.004,287.8,338.117z"/>
		<path fill="#C4CDD2" d="M217.704,316.891c0.219-0.574,0.215-1.031,0.215-1.031c-0.629,0.559-2.614,0.795-2.614,0.795
			c0.375,1.169-0.464,3.166-0.856,3.812C216.6,319.592,217.479,317.471,217.704,316.891z"/>
		<path fill="#C4CDD2" d="M217.713,293.854c0.121-1.533,0.682-4.646,1.306-6.533c0.009-0.033-5.095-1.762-5.095-1.762l-0.816-2.901
			l6.724,2.342c1.118-3.021,2.9-5.71,2.9-5.71l-0.014,0.005c0.774-1.218,2.812-3.981,3.79-4.933
			c0.017-0.008-2.804-2.846-2.804-2.846c0.4-0.746,1.783-1.75,1.783-1.75s2.771,2.863,2.771,2.854
			c1.545-1.502,3.841-3.069,4.649-3.604l-0.004,0.018c2.084-1.403,4.818-2.73,7.652-3.689c0.029-0.012-2.263-1.139-2.263-1.139
			l-0.628-1.854l4.293-1.854l1.927-2.662l-2.59-6.852l-2.736-0.615c-2.338,0.564-7.74,2.496-11.054,4.46l2.548,1.733l3.497,9.607
			l-0.592,2.62l-1.43-0.177l-8.049-8.342l-3.809,0.015c-2.111,1.737-5.467,5.042-8.02,8.729l2.514,0.279l8.055,8.174l0.255,1.889
			l-1.644,0.445l-6.861-2.244l-1.907,1.513l-0.624-2.312l-6.158-2.109l-2.644,1c0,0-2.386,5.139-3.664,11.916l2.788-0.815
			l14.188,4.947L217.713,293.854z M236.677,254.323l0.936,0.208l1.248,3.436l-0.677,0.887l-1.743,0.724l-1.635-4.584
			L236.677,254.323z M221.371,269.15l-2.948-3.088l1.392-1.387l0.807,0.083l2.529,2.646
			C223.15,267.404,222.115,268.258,221.371,269.15z M203.914,282.188c0,0,0.268-0.883,0.406-1.244
			c0.204-0.534,0.418-1.106,0.418-1.106l4.583,1.517l0.672,2.912L203.914,282.188z"/>
		<path fill="#C4CDD2" d="M248.723,261.918l-1.601,2.045c0,0,2.054-0.29,4.078-0.279c2.022,0.02,4.252,0.299,4.252,0.299l-1.55-2.03
			l0.066-9.929l4.234,2.316l0.029-5.038c-3.588-0.602-9.093-0.765-13.672-0.087c-0.017,0-0.032,5.033-0.032,5.033l4.263-2.262
			L248.723,261.918z"/>
		<path fill="#C4CDD2" d="M259.993,264.896c2.33,0.692,6.144,2.446,6.144,2.446l3.656-0.293l4.273-10.6l-2.246-2.873
			c-1.159-0.67-5.062-2.127-6.315-2.485l-3.706,0.458l-4.244,10.617L259.993,264.896z M266.143,254.682l2.698,1.07l-3.208,8.143
			l-2.699-1.07L266.143,254.682z"/>
		<path fill="#C4CDD2" d="M269.036,269.018c1.478,0.959,3.588,2.556,5.124,4.066c0.021,0.021,2.372-2.215,2.372-2.215l3.265,0.771
			l-3.775,3.426c1.932,2.101,3.446,4.604,3.92,5.425l-0.01,0.003c2.088,3.503,3.693,8.447,4.074,11.945l8.881-3.016l1.848-8.748
			l2.438-0.77l1.031,3.035l-3.406,1.154l1.468,5.152l1.547-1.624l4.812-1.576c-1.025-4.798-2.791-9.569-4.702-13.329l-1.345,2.152
			l-5.588,1.814l-2.01,9.315l-2.791,0.97l-1.037-3.011l3.139-1.085l-1.896-5.57l-1.295,1.432l-4.975,1.688l0.176-2.354l3.065-3.047
			l-0.06-2.575l2.199,0.446l3.062-2.902l0.24-2.734c0,0-4.285-5.377-9.011-8.859l-0.049,2.74l-8.049,7.387L269.036,269.018z
			 M282.54,265.154l1.864,1.926l-2.449,2.375l-3.085-0.881L282.54,265.154z"/>
		<path fill="#C4CDD2" d="M250.427,272.604c-0.024,0.002-0.042-0.004-0.064-0.004c-0.112,0.004-0.216-0.008-0.312-0.033
			c-0.625-0.18-0.98-0.943-1.861-1.479c-0.017-0.011-0.035-0.02-0.052-0.029c-0.067-0.041-0.13-0.084-0.205-0.121l-0.001-0.086
			c-0.292,0.138-0.529,0.41-0.717,0.73c-0.015,0.023-0.031,0.048-0.045,0.073c-0.03,0.056-0.057,0.114-0.084,0.173
			c-0.056,0.118-0.103,0.24-0.145,0.365c-0.029,0.084-0.055,0.168-0.078,0.253c-0.017,0.061-0.031,0.12-0.045,0.183
			c-0.02,0.092-0.037,0.182-0.049,0.271c-0.012,0.086-0.021,0.168-0.026,0.248c-0.003,0.045-0.004,0.086-0.006,0.125
			c-0.002,0.129,0.003,0.25,0.021,0.354c-0.152-0.159-0.266-0.321-0.363-0.481c-0.011-0.02-0.017-0.035-0.027-0.053
			c-0.085-0.152-0.148-0.3-0.194-0.447c-0.005-0.012-0.007-0.022-0.011-0.033c-0.042-0.148-0.071-0.291-0.084-0.434
			c-0.001-0.023-0.004-0.048-0.005-0.068c-0.007-0.106-0.004-0.211,0-0.312c0.005-0.067,0.005-0.136,0.015-0.2
			c0-0.004,0.001-0.008,0.002-0.013c0.052-0.36,0.166-0.684,0.26-0.938l-0.058,0.011c-0.001,0-0.002,0-0.003,0.001
			c-0.087,0.014-0.171,0.036-0.258,0.057c-0.682,0.141-1.33,0.416-1.608,0.907l0,0c0.001,0.38,0.129,0.699,0.289,0.95
			c0.264,0.411,0.608,0.637,0.622,0.645l0.003,0.004v-0.008c0.431,0.244,0.926,0.438,1.527,0.528c0.771,0.112,1.506,0,2.203-0.229
			h0.024c0.117-0.058,0.247-0.127,0.382-0.201C249.894,273.076,250.34,272.782,250.427,272.604z"/>
		<path fill="#CA1344" d="M285.822,318.247l0.047-0.133l-2.426-1.48l-0.061,0.224c-0.32,1.14-1.504,3.218-2.379,4.004
			c-1.668-1.01-2.419-2.297-3.132-3.547c-0.798-1.401-1.624-2.852-3.751-3.778l-0.096-0.042l-3.058,2.406l0.222,0.129
			c2.101,1.232,2.721,2.455,3.375,3.751c0.619,1.221,1.283,2.485,3.103,3.923c-1.452,1.369-5.79,3.497-8.796,3.691l-0.542,0.037
			l3.082,1.916c2.937-0.229,7.124-2.394,9.384-4.25C283.206,323.13,284.896,320.824,285.822,318.247z"/>
		<path fill="#CA1344" d="M249.126,296.784l0.02,0.266c0.073,1.005,0.463,3.159,1.203,4.681c1.577,3.305,4.124,5.356,8.014,6.461
			c4.119,1.172,10.053-1.461,10.964-4.131l0.112-0.328l-0.407,0.131c-0.978,0.312-2.078,0.385-3.271,0.219l-0.076-0.014
			l-0.121,0.035c-2.149,1.772-6.176,2.375-9.933-0.492c-1.85-1.461-3.252-3.611-3.846-5.9l-0.024-0.095l-2.031-0.618
			L249.126,296.784z"/>
		<path fill="#CA1344" d="M242.128,315.419c-3.519-2.397-5.537-3.015-7.046-3.301l-0.087-0.017l-2.462,2.356l0.343,0.06
			c2.396,0.41,4.606,1.347,7.389,3.135c2.667,1.783,4.842,4.277,6.647,7.619l0.081,0.15l2.646-1.339l-0.08-0.156
			C247.749,320.354,245.386,317.65,242.128,315.419z"/>
	</g>
</g>
<path fill="#071921" d="M290.221,175.339c-3.252,8.313-8.582,14.833-15.975,19.461c-13.342,8.511-21.321,17.746-24.22,21.445
	c-2.898-3.699-10.879-12.935-24.23-21.452c-7.386-4.624-12.713-11.142-15.965-19.454h-3.152c3.468,9.427,9.368,16.891,17.515,21.99
	c16.269,10.378,24.517,22.155,24.599,22.273l1.236,1.787l1.233-1.788c0.081-0.117,8.293-11.871,24.588-22.265
	c8.154-5.104,14.058-12.57,17.524-21.997H290.221L290.221,175.339z"/>
<g>
	<path fill="#071921" d="M352.83,222.688c-2.44-0.946-3.664-1.651-3.664-1.651l33.326,188.749V229.251v-0.019
		C370.366,229.125,360.637,226.673,352.83,222.688z"/>
	<path fill="#071921" d="M116.617,229.25v4.796v137.99v37.75l33.295-188.574c-8.394,4.948-19.205,8.038-33.162,8.038
		C116.704,229.25,116.662,229.25,116.617,229.25z"/>
</g>
</svg>
