<?xml version="1.0" encoding="utf-8"?>
<!-- Generator: Adobe Illustrator 16.0.0, SVG Export Plug-In . SVG Version: 6.00 Build 0)  -->
<!DOCTYPE svg PUBLIC "-//W3C//DTD SVG 1.1//EN" "http://www.w3.org/Graphics/SVG/1.1/DTD/svg11.dtd">
<svg version="1.1" id="content" xmlns="http://www.w3.org/2000/svg" xmlns:xlink="http://www.w3.org/1999/xlink" x="0px" y="0px"
	 width="500px" height="500px" viewBox="0 0 500 500" enable-background="new 0 0 500 500" xml:space="preserve">
<rect id="position" x="0.5" y="0.5" display="none" fill="none" stroke="#000000" width="499" height="499"/>
<g>
	<path fill="#912E3D" d="M102.496,281.333c-17.67,0-26.354-11.667-26.354-11.667l-3-70.576c0-14.532,14.822-26.354,29.354-26.354
		c14.532,0,29.355,11.822,29.355,26.354l-3,70.576C128.851,269.666,124.658,281.333,102.496,281.333z"/>
	<path fill="#A83647" d="M102.35,177.919c-11.754,1.061-23.074,10.752-23.074,22.518l0.385,9.065l36.76-1.359
		C101.898,205.565,96.403,186.812,102.35,177.919z"/>
	<path fill="#BAAA4F" d="M102.495,202.967c-20.571,0-37.247,4.273-37.247,9.545c0,2.337,3.283,4.477,8.725,6.136l-0.154-3.632
		c0,0,2.859-4.146,28.677-4.146s28.677,4.146,28.677,4.146l-0.154,3.632c5.441-1.659,8.725-3.799,8.725-6.136
		C139.742,207.241,123.066,202.967,102.495,202.967z"/>
	<path fill="#A83647" d="M81,217.5l1.834,50c0,0,5.539,7.667,19.661,7.667c0-39.833,0-59.15,0-59.15S89.666,214.667,81,217.5z"/>
</g>
</svg>
