<?xml version="1.0" encoding="utf-8"?>
<!-- Generator: Adobe Illustrator 16.0.0, SVG Export Plug-In . SVG Version: 6.00 Build 0)  -->
<!DOCTYPE svg PUBLIC "-//W3C//DTD SVG 1.1//EN" "http://www.w3.org/Graphics/SVG/1.1/DTD/svg11.dtd">
<svg version="1.1" id="content" xmlns="http://www.w3.org/2000/svg" xmlns:xlink="http://www.w3.org/1999/xlink" x="0px" y="0px"
	 width="500px" height="500px" viewBox="0 0 500 500" enable-background="new 0 0 500 500" xml:space="preserve">
<polygon fill="#912E3D" points="373.9,192 355.199,177.7 353.3,177.7 146.8,177.7 145.614,177.7 144.6,177.7 126,192 70.3,263 
	70.3,331 131.6,331 131.6,281.1 145.614,276.397 145.614,472.6 146.8,472.6 231.303,472.6 353.3,472.6 353.3,276.1 368.4,281.1 
	368.4,331 429.699,331 429.699,263 "/>
<g id="bounds" display="none">
	<rect x="-0.1" y="80.3" display="inline" fill="none" stroke="#EAEAEA" stroke-miterlimit="10" width="499.5" height="499.5"/>
</g>
<rect id="position" x="0.5" y="0.5" display="none" fill="none" stroke="#000000" width="499" height="499"/>
<g>
	<rect x="243.796" y="177.7" fill="#7D2835" width="12.462" height="294.899"/>
	<polygon fill="#822936" points="216.399,177.7 249.973,230.467 249.973,230.552 250,230.509 250.027,230.552 250.027,230.467 
		283.602,177.7 	"/>
	<path fill="#822936" d="M369.823,188.882L355.199,177.7H353.3h-36.015c-8.647,14.328-28.863,38.334-67.258,38.334
		c-38.396,0-58.611-24.006-67.258-38.334H146.8h-1.186H144.6l-14.437,11.099c16.979,19.843,52.424,46.735,119.864,46.735
		C317.38,235.534,352.819,208.715,369.823,188.882z"/>
	<circle fill="#822936" cx="310.979" cy="224.894" r="24.043"/>
	<circle fill="#D6C45B" cx="310.979" cy="220.165" r="24.043"/>
	<polygon fill="none" stroke="#912E3D" stroke-width="3" stroke-miterlimit="10" points="310.979,208.875 299.035,228.113 
		310.979,228.113 322.922,228.113 	"/>
	<circle fill="#FFEA6C" cx="310.979" cy="208.875" r="5.253"/>
	<circle fill="#FFEA6C" cx="322.922" cy="228.113" r="5.253"/>
	<circle fill="#FFEA6C" cx="299.035" cy="228.113" r="5.253"/>
	<path fill="#7A2732" d="M355.199,177.7H353.3h-75.415c0.407,0.184,0.816,0.352,1.227,0.494c13.902,4.812,29.66,10.266,54.11,10.266
		c12.25,0,21.867-2.083,29.379-5.101L355.199,177.7z"/>
	<path fill="#BAAA4F" d="M333.222,192.46c14.354,0,24.76-2.985,32.242-6.911l-10.265-7.849H353.3h-87.731
		C283.472,182.183,300.438,192.46,333.222,192.46z"/>
	<path fill="#7A2732" d="M146.8,177.7h-1.186H144.6l-7.286,5.602c7.532,3.048,17.192,5.158,29.518,5.158
		c24.45,0,40.207-5.453,54.109-10.266c0.41-0.142,0.819-0.31,1.227-0.494H146.8z"/>
	<path fill="#BAAA4F" d="M234.485,177.7H146.8h-1.186H144.6l-10.127,7.786c7.491,3.956,17.929,6.974,32.359,6.974
		C199.616,192.46,216.582,182.183,234.485,177.7z"/>
	<polygon fill="#BAAA4F" points="250.027,182.114 231.047,182.114 250.027,195.487 269.006,182.114 	"/>
	<path fill="#D6C45B" d="M250.027,182.114h-18.98c0.787,0.238,18.98,6.687,18.98,6.687s18.193-6.448,18.98-6.687H250.027z"/>
	<polygon fill="#BAAA4F" points="250.027,202.188 239.048,202.188 250.027,212.886 261.219,202.188 	"/>
	<path fill="#D6C45B" d="M250.027,202.188h-10.979c0.629,0.19,10.979,5.349,10.979,5.349s10.563-5.158,11.192-5.349H250.027z"/>
	<polygon fill="#BAAA4F" points="250.027,221.304 242.986,221.304 250.027,227.241 257.067,221.304 	"/>
	<path fill="#D6C45B" d="M250.027,221.304h-7.041c0.35,0.105,7.041,2.969,7.041,2.969s6.69-2.863,7.04-2.969H250.027z"/>
</g>
<g>
	<path opacity="0.1" fill="#210A0E" d="M250.134,354.708c49.276,0,83.858-6.887,103.166-12.181v-12.055
		c-4.687,1.467-11.343,3.326-19.919,5.177c-17.035,3.677-45.307,8.059-83.247,8.059s-66.212-4.382-83.247-8.059
		c-9.438-2.036-16.553-4.085-21.272-5.606v12.109C164.636,347.489,199.683,354.708,250.134,354.708z"/>
	<path fill="#C23E52" d="M250.134,350.452c49.276,0,83.858-6.887,103.166-12.181v-12.055c-4.687,1.467-11.343,3.326-19.919,5.177
		c-17.035,3.677-45.307,8.059-83.247,8.059s-66.212-4.382-83.247-8.059c-9.438-2.036-16.553-4.085-21.272-5.606v12.109
		C164.636,343.233,199.683,350.452,250.134,350.452z"/>
	<path fill="#A69947" d="M232.645,361.908c-1.658,0-3-1.344-3-3v-27.366c0-1.657,1.342-3,3-3h34.711c1.658,0,3,1.343,3,3v27.366
		c0,1.656-1.342,3-3,3H232.645z"/>
	<path opacity="0.1" fill="#210A0E" d="M232.645,365.578c-1.658,0-3-1.344-3-3v-27.366c0-1.657,1.342-3,3-3h34.711
		c1.658,0,3,1.343,3,3v27.366c0,1.656-1.342,3-3,3H232.645z"/>
	<path fill="#BAAB4F" d="M232.645,361.908c-1.658,0-3-1.344-3-3v-27.366c0-1.657,1.342-3,3-3h34.711c1.658,0,3,1.343,3,3v27.366
		c0,1.656-1.342,3-3,3H232.645z"/>
	<path fill="#D6C45B" d="M232.645,328.542c-1.658,0-3,1.343-3,3v8.694l21.672,21.672h16.039c0.643,0,1.234-0.205,1.723-0.549
		l-32.816-32.817H232.645z"/>
	<path fill="#D6C45B" d="M270.355,343.536v-11.994c0-1.657-1.342-3-3-3h-11.994L270.355,343.536z"/>
	<path fill="#7D7336" d="M245.252,357.489c1.178,0,2.131-0.954,2.131-2.13l0,0c0-1.178-0.953-2.131-2.131-2.131l0,0
		c-1.176,0-2.129,0.953-2.129,2.131l0,0C243.123,356.535,244.076,357.489,245.252,357.489L245.252,357.489z"/>
	<path fill="#7D7336" d="M255.227,357.489c1.176,0,2.131-0.954,2.131-2.13l0,0c0-1.178-0.955-2.131-2.131-2.131l0,0
		c-1.178,0-2.131,0.953-2.131,2.131l0,0C253.096,356.535,254.049,357.489,255.227,357.489L255.227,357.489z"/>
	<path fill="#7D7336" d="M265.201,357.489c1.176,0,2.131-0.954,2.131-2.13l0,0c0-1.178-0.955-2.131-2.131-2.131l0,0
		c-1.178,0-2.131,0.953-2.131,2.131l0,0C263.07,356.535,264.023,357.489,265.201,357.489L265.201,357.489z"/>
	<path fill="#7D7336" d="M235.277,357.489c1.178,0,2.131-0.954,2.131-2.13l0,0c0-1.178-0.953-2.131-2.131-2.131l0,0
		c-1.176,0-2.129,0.953-2.129,2.131l0,0C233.148,356.535,234.102,357.489,235.277,357.489L235.277,357.489z"/>
</g>
<path fill="#BAAA4F" d="M109.111,255.548c-20.495-8.366-38.847-10.89-40.991-5.637c-0.95,2.327,0.796,5.25,5.542,9.117l2.324-3.276
	c0,0,4.189-2.829,29.911,7.67c25.722,10.499,26.885,15.792,26.885,15.792L131.6,281.1c6.009,1.197,9.789,1.433,10.739-0.895
	C144.483,274.951,129.607,263.912,109.111,255.548z"/>
<path fill="#BAAA4F" d="M391.156,255.548c20.495-8.366,38.848-10.89,40.991-5.637c0.95,2.327-0.796,5.25-5.542,9.117l-2.324-3.276
	c0,0-4.189-2.829-29.91,7.67c-25.723,10.499-26.886,15.792-26.886,15.792l1.183,1.886c-6.01,1.197-9.789,1.433-10.74-0.895
	C355.785,274.951,370.66,263.912,391.156,255.548z"/>
</svg>
