<?xml version="1.0" encoding="utf-8"?>
<!-- Generator: Adobe Illustrator 16.0.0, SVG Export Plug-In . SVG Version: 6.00 Build 0)  -->
<!DOCTYPE svg PUBLIC "-//W3C//DTD SVG 1.1//EN" "http://www.w3.org/Graphics/SVG/1.1/DTD/svg11.dtd">
<svg version="1.1" id="content" xmlns="http://www.w3.org/2000/svg" xmlns:xlink="http://www.w3.org/1999/xlink" x="0px" y="0px"
	 width="500px" height="500px" viewBox="0 0 500 500" enable-background="new 0 0 500 500" xml:space="preserve">
<rect id="position" x="0.5" y="0.5" display="none" fill="none" stroke="#000000" width="499" height="499"/>
<g>
	<path opacity="0.1" fill="#210A0E" d="M359.404,298.416c-3.771,1.384-12.532,4.322-26.023,7.233
		c-17.035,3.677-45.307,8.059-83.247,8.059s-66.212-4.382-83.247-8.059c-13.491-2.911-22.253-5.85-26.023-7.233l0.004,12.35
		c17.585,5.367,54.287,13.942,109.267,13.942s91.682-8.575,109.267-13.942L359.404,298.416z"/>
	<path fill="#C23E52" d="M359.404,294.16c-3.771,1.384-12.532,4.322-26.023,7.233c-17.035,3.677-45.307,8.059-83.247,8.059
		s-66.212-4.382-83.247-8.059c-13.491-2.911-22.253-5.85-26.023-7.233l0.004,12.35c17.585,5.367,54.287,13.942,109.267,13.942
		s91.682-8.575,109.267-13.942L359.404,294.16z"/>
	<path fill="#A69947" d="M232.645,331.908c-1.658,0-3-1.344-3-3v-27.366c0-1.657,1.342-3,3-3h34.711c1.658,0,3,1.343,3,3v27.366
		c0,1.656-1.342,3-3,3H232.645z"/>
	<path opacity="0.1" fill="#210A0E" d="M232.645,335.578c-1.658,0-3-1.344-3-3v-27.366c0-1.657,1.342-3,3-3h34.711
		c1.658,0,3,1.343,3,3v27.366c0,1.656-1.342,3-3,3H232.645z"/>
	<path fill="#BAAB4F" d="M232.645,331.908c-1.658,0-3-1.344-3-3v-27.366c0-1.657,1.342-3,3-3h34.711c1.658,0,3,1.343,3,3v27.366
		c0,1.656-1.342,3-3,3H232.645z"/>
	<path fill="#D6C45B" d="M232.645,298.542c-1.658,0-3,1.343-3,3v8.694l21.672,21.672h16.039c0.643,0,1.234-0.205,1.723-0.549
		l-32.816-32.817H232.645z"/>
	<path fill="#D6C45B" d="M270.355,313.536v-11.994c0-1.657-1.342-3-3-3h-11.994L270.355,313.536z"/>
	<path fill="#7D7336" d="M245.252,327.489c1.178,0,2.131-0.954,2.131-2.13l0,0c0-1.178-0.953-2.131-2.131-2.131l0,0
		c-1.176,0-2.129,0.953-2.129,2.131l0,0C243.123,326.535,244.076,327.489,245.252,327.489L245.252,327.489z"/>
	<path fill="#7D7336" d="M255.227,327.489c1.176,0,2.131-0.954,2.131-2.13l0,0c0-1.178-0.955-2.131-2.131-2.131l0,0
		c-1.178,0-2.131,0.953-2.131,2.131l0,0C253.096,326.535,254.049,327.489,255.227,327.489L255.227,327.489z"/>
	<path fill="#7D7336" d="M265.201,327.489c1.176,0,2.131-0.954,2.131-2.13l0,0c0-1.178-0.955-2.131-2.131-2.131l0,0
		c-1.178,0-2.131,0.953-2.131,2.131l0,0C263.07,326.535,264.023,327.489,265.201,327.489L265.201,327.489z"/>
	<path fill="#7D7336" d="M235.277,327.489c1.178,0,2.131-0.954,2.131-2.13l0,0c0-1.178-0.953-2.131-2.131-2.131l0,0
		c-1.176,0-2.129,0.953-2.129,2.131l0,0C233.148,326.535,234.102,327.489,235.277,327.489L235.277,327.489z"/>
</g>
</svg>
