<?xml version="1.0" encoding="utf-8"?>
<!-- Generator: Adobe Illustrator 16.0.0, SVG Export Plug-In . SVG Version: 6.00 Build 0)  -->
<!DOCTYPE svg PUBLIC "-//W3C//DTD SVG 1.1//EN" "http://www.w3.org/Graphics/SVG/1.1/DTD/svg11.dtd">
<svg version="1.1" id="content" xmlns="http://www.w3.org/2000/svg" xmlns:xlink="http://www.w3.org/1999/xlink" x="0px" y="0px"
	 width="500px" height="500px" viewBox="0 0 500 500" enable-background="new 0 0 500 500" xml:space="preserve">
<rect id="position" x="0.5" y="0.5" display="none" fill="none" stroke="#000000" width="499" height="499"/>
<g>
	<path fill="#C40A3D" d="M322.959,175.492h-30.542c-5.651,14.103-42.391,28.078-42.391,28.078s-36.738-13.975-42.391-28.078h-30.542
		c-3.507,23.43-16.383,53.328-60.219,53.328c-0.046,0,0.045,0,0,0V469.65h133.151h132.466V228.82c-0.045,0,0.855,0,0.811,0
		C339.467,228.819,326.466,198.921,322.959,175.492z"/>
	<path opacity="0.2" fill="#212121" enable-background="new    " d="M302.061,209.412c-1.539,0-2.791-1.252-2.791-2.792v-14.099
		c0-1.54,1.252-2.792,2.791-2.792h4.183c1.539,0,2.792,1.252,2.792,2.793v14.098c0,1.54-1.253,2.792-2.792,2.792H302.061z"/>
	<path fill="#FFFFFF" d="M302.188,207.513c-1.444,0-2.621-1.176-2.621-2.623v-13.239c0-1.446,1.177-2.623,2.621-2.623h3.929
		c1.444,0,2.621,1.176,2.621,2.623v13.239c0,1.446-1.177,2.623-2.621,2.623H302.188z"/>
	<path fill="#C00033" d="M304.15,206.213h1.965c0.729,0,1.32-0.592,1.32-1.323v-13.239c0-0.73-0.592-1.323-1.32-1.323h-1.965"/>
	<path fill="#006CB3" d="M306.332,206.213c0,0-0.036-0.939-0.432-3.272l-1.75-1.812v-10.8h-1.963c-0.729,0-1.321,0.592-1.321,1.323
		v13.239c0,0.731,0.592,1.323,1.321,1.323h1.963L306.332,206.213L306.332,206.213z"/>
	<path opacity="0.2" fill="#212121" enable-background="new    " d="M306.679,198.18c-0.05-0.058,0.049-0.09-0.289-0.167
		c-0.062-0.035-0.111-0.529-0.111-0.529c-0.051-0.317-0.163-0.536-0.333-0.872c-0.084-0.173-0.125-0.71-0.215-0.984
		c0.051-1.255-0.352-1.62-0.676-1.824c-0.123-0.079-0.186-0.137-0.308-0.208l-0.004-0.058c-0.095-0.09-0.286-0.187-0.443-0.257
		c-0.049-0.049-0.024-0.156,0.009-0.196c0.105-0.016,0.248-0.254,0.364-0.5c0.093,0.005,0.122-0.084,0.151-0.135
		c0.099-0.157,0.203-0.294,0.066-0.384c0.31-0.552,0.111-0.924-0.057-0.938c-0.066-0.139-0.186-0.225-0.393-0.298l-0.422-0.001
		c-0.439,0.168-0.502,0.36-0.519,0.969c-0.074,0.008-0.231-0.062-0.179,0.309c0,0,0.029,0.247,0.129,0.204
		c-0.096,0.652,0.017,0.703-0.661,0.732l-0.032,0.048c-0.675,0.065-0.888-0.02-1.456,1.138c0,0-0.147,0.358-0.19,0.507
		c-0.059,0.122-0.15,0.309-0.246,0.51v1.598c0.084,0.004,0.186,0.005,0.332,0.001v0.174c0,0-0.204,0.175-0.245,0.282
		c-0.021,0.048-0.056,0.188-0.087,0.344v0.883c0.142,0.506,0.504,0.968,0.634,1.498l0.351,0.049c0.2,0.45,1.062,1.672,1.237,1.833
		c0.041,0.113,0.26,0.253,0.388,0.393c0.105,0.1,0.729,0.782,1.459,1.201c-0.004,0,0.118,0.244,0.178,0.44
		c-0.242,0.195,0.226,0.552,0.369,1.142c0.01,0.077-0.136,0.159,0.08,0.352c-0.005,0.309-0.041,0.563-0.065,0.779h0.62h0.117
		c-0.046-0.228-0.139-0.452-0.188-0.624c-0.008-0.022,0.01-0.052,0.021-0.071c0.029-0.056-0.033-0.182-0.033-0.182
		c-0.069-0.063-0.09-0.398-0.129-0.548c-0.062-0.254,0.11-0.689,0.11-0.838c0-0.146-0.11-0.349-0.315-0.609
		c-0.049-0.056-0.195-1.323-0.327-1.644c-0.185-0.442-0.242-0.373-0.455-0.898c-0.171-0.373-0.039-0.92-0.419-2.192
		c0.004,0.005,0.086-0.08,0.086-0.08s-0.303-1.102-0.4-1.404c-0.1-0.301-0.271-0.323-0.271-0.323s0.001-0.123,0.008-0.155
		c0.016-0.049,0.368-0.969,0.396-0.998c0-0.022,0.511-0.366,0.521-0.317c0.042,0.226,0.24,1.37,0.323,1.553
		c0.087,0.185,0.38,0.746,0.519,1.094c-0.528,0.127-0.92,0.603-0.92,1.17c0,0.663,0.537,1.202,1.204,1.202
		c0.507,0,0.943-0.314,1.118-0.758l0.001-0.884c-0.038-0.097-0.089-0.192-0.155-0.282
		C306.926,198.244,306.731,198.248,306.679,198.18z"/>
	<path fill="#FFFFFF" d="M306.186,206.296c-0.237-0.14-0.225-0.344-0.167-0.816c0.024-0.201,0.054-0.436,0.059-0.71
		c-0.142-0.164-0.124-0.205-0.103-0.257l0.008-0.02l0.014-0.086c-0.064-0.271-0.189-0.488-0.29-0.662
		c-0.142-0.246-0.188-0.345-0.108-0.408c-0.019-0.233-0.098-0.407-0.135-0.489c-0.677-0.44-1.222-0.994-1.427-1.202
		c-0.117-0.122-0.183-0.178-0.244-0.231c-0.082-0.071-0.175-0.151-0.192-0.201c-0.181-0.177-1.043-1.395-1.24-1.839l-0.412-0.096
		c-0.004-0.226-0.143-0.491-0.276-0.748c-0.18-0.342-0.35-0.666-0.356-1.021c-0.006-0.228,0.107-0.748,0.149-0.847
		c0.023-0.062,0.146-0.185,0.224-0.251l0.028-0.235v-0.083l-0.286,0.006c-0.314,0-0.318-0.02-0.339-0.118
		c-0.01-0.048-0.022-0.114-0.058-0.191c-0.059-0.128-0.044-0.167-0.018-0.246c0.111-0.441,0.36-0.945,0.524-1.278l0.081-0.165
		c0.047-0.158,0.191-0.511,0.191-0.511c0.498-1.015,0.696-1.031,1.228-1.075l0.2-0.018l0.054-0.079c0.032,0,0.062,0,0.091,0
		c0.461,0,0.502-0.079,0.553-0.516l0.052-0.391l-0.132,0.057c0.013-0.011-0.01-0.081-0.018-0.141
		c-0.023-0.172,0.004-0.21,0.008-0.214l0.17-0.013l0.002-0.07c0.017-0.617,0.086-0.751,0.465-0.896l0.396,0.006
		c0.163,0.062,0.265,0.137,0.319,0.253c0.089,0.046,0.129,0.071,0.162,0.134c0.072,0.135,0.082,0.398-0.104,0.73l-0.037,0.065
		l0.062,0.041c0.047,0.031,0.044,0.063-0.065,0.234l-0.102,0.139c-0.288,0.481-0.384,0.5-0.386,0.5
		c-0.105,0.096-0.135,0.248-0.053,0.331c0.227,0.107,0.377,0.193,0.445,0.259c0.086,0.107,0.134,0.143,0.186,0.179l0.137,0.095
		c0.344,0.215,0.687,0.592,0.64,1.753c0.046,0.155,0.076,0.338,0.106,0.515c0.035,0.218,0.066,0.406,0.116,0.507
		c0.175,0.344,0.278,0.553,0.325,0.849c0.053,0.532,0.12,0.569,0.152,0.587c0.198,0.048,0.229,0.072,0.232,0.076
		c0.062,0.108,0.105,0.128,0.149,0.147c0.08,0.036,0.112,0.056,0.112,0.119c0.075,0.127,0.124,0.216,0.161,0.311l-0.008,0.855
		c-0.16,0.394-0.579,0.678-1.037,0.678c-0.62,0-1.124-0.503-1.124-1.122c0-0.522,0.353-0.971,0.857-1.093l0.09-0.021l-0.033-0.086
		c-0.102-0.253-0.283-0.619-0.41-0.873l-0.11-0.226c-0.067-0.148-0.229-1.054-0.292-1.395l-0.037-0.205l-0.074-0.005
		c-0.023,0-0.068,0-0.324,0.167c-0.268,0.174-0.268,0.195-0.268,0.236l0,0c-0.031,0-0.392,0.966-0.395,0.975
		c-0.01,0.042-0.012,0.177-0.012,0.177v0.072l0.07,0.008c0.003,0,0.126,0.026,0.206,0.268c0.099,0.301,0.399,1.4,0.399,1.4h-0.107
		l0.021,0.082c0.219,0.729,0.267,1.217,0.301,1.573c0.025,0.267,0.045,0.46,0.123,0.629c0.113,0.282,0.185,0.396,0.254,0.507
		c0.058,0.094,0.115,0.187,0.199,0.389c0.074,0.18,0.158,0.705,0.22,1.088c0.075,0.472,0.091,0.542,0.121,0.578
		c0.196,0.249,0.297,0.437,0.297,0.557c0,0.042-0.021,0.13-0.044,0.223c-0.049,0.201-0.11,0.45-0.065,0.634
		c0.015,0.05,0.024,0.12,0.035,0.193c0.032,0.208,0.056,0.338,0.118,0.395c0.003,0.018,0.019,0.072,0.015,0.089l-0.017,0.031
		l-0.007,0.1c0.017,0.058,0.04,0.127,0.064,0.201c0.134,0.385,0.297,0.862-0.13,1.132L306.186,206.296z"/>
	<path opacity="0.2" fill="#212121" enable-background="new    " d="M302.186,293.109c-0.234-5.143-15.69-9.108-33.895-8.252
		l0.146-12.25c-0.021-7.597-10.444-6.836-13.918-6.371c4.049-0.729,17.76-4.123,16.916-16.652
		c-0.562-8.306-10.951-12.443-28.167-10.773c-0.285,0.028-0.567,0.058-0.849,0.087c-0.809-6.137-2.059-12.084-3.975-17.574
		c-2.395,7.423-3.782,13.276-4.561,18.732c-10.67,1.782-18.215,4.253-18.215,4.253s8.309-0.754,17.779-0.62
		c-1.07,10.927,0.051,21.301-0.016,41.186c-18.097-0.637-33.807,2.886-33.616,8.234c0.161,4.682,14.074,8.983,33.625,10.627
		l0.832,26.547l1.374-18.004c0.042-2.233,1.743-2.026,1.743-0.108l0.608,23.713l1.458-19.3c-0.022-2.604,1.799-2.48,1.737-0.15
		l0.673,24.723l1.193-36.85c2.508,0.09,5.078,0.137,7.695,0.137c2.471,0,4.903-0.045,7.287-0.125l1.184,37.51l1.008-19.633
		c0.014-2.504,1.707-2.372,1.701-0.156l1.016,27.531l1.029-23.787c0.078-2.339,1.946-2.23,1.988,0l0.848,31.525l1.254-53.53v-0.034
		C287.835,302.105,302.186,297.799,302.186,293.109z M260.548,252.052c1.399,10.392-9.198,13.804-16.81,14.923
		c0.082-7.459-0.038-15.213-0.732-22.796C251.997,245.037,259.893,247.19,260.548,252.052z M209.977,291.559
		c0-3.172,11.721-4.851,23.456-6.613c-0.013,3.775-0.068,7.89-0.19,12.416l0.054,1.724
		C219.425,297.829,209.977,295.066,209.977,291.559z M243.208,299.689l0.099-3.051c-0.237-7.965,0.281-18.012,0.422-28.722
		c6.411,0.659,14.675,2.401,14.537,7.017l-0.233,24.768c-2.363,0.078-4.792,0.121-7.278,0.121
		C248.168,299.822,245.648,299.775,243.208,299.689z M268.121,299.098l0.167-14.128c12.924,1.665,23.554,3.519,23.554,6.589
		C291.842,295.081,282.162,297.85,268.121,299.098z"/>
	<path fill="#CFCFCF" d="M302.186,289.586c-0.234-5.141-15.69-9.107-33.895-8.251l0.146-12.248
		c-0.021-7.601-10.444-6.838-13.918-6.374c4.049-0.727,17.76-4.123,16.916-16.652c-0.562-8.305-10.951-12.443-28.167-10.773
		c-0.285,0.028-0.567,0.058-0.849,0.087c-0.809-6.137-2.059-12.084-3.975-17.574c-2.395,7.424-3.782,13.276-4.561,18.732
		c-10.67,1.782-18.215,4.253-18.215,4.253s8.309-0.753,17.779-0.62c-1.07,10.928,0.051,21.3-0.016,41.186
		c-18.097-0.638-33.807,2.885-33.616,8.233c0.161,4.683,14.074,8.983,33.625,10.629l0.832,26.546l1.374-18.004
		c0.042-2.234,1.743-2.027,1.743-0.109l0.608,23.715l1.458-19.301c-0.022-2.604,1.799-2.481,1.737-0.149l0.673,24.722l1.193-36.85
		c2.508,0.089,5.078,0.136,7.695,0.136c2.471,0,4.903-0.044,7.287-0.124l1.184,37.51l1.008-19.633
		c0.014-2.503,1.707-2.373,1.701-0.156l1.016,27.532l1.029-23.789c0.078-2.338,1.946-2.231,1.988,0l0.848,31.527l1.254-53.532
		v-0.034C287.835,298.582,302.186,294.275,302.186,289.586z M260.548,248.529c1.399,10.391-9.198,13.805-16.81,14.923
		c0.082-7.46-0.038-15.213-0.732-22.798C251.997,241.515,259.893,243.668,260.548,248.529z M209.977,288.035
		c0-3.172,11.721-4.85,23.456-6.614c-0.013,3.774-0.068,7.89-0.19,12.418l0.054,1.724
		C219.425,294.307,209.977,291.544,209.977,288.035z M243.208,296.169l0.099-3.053c-0.237-7.966,0.281-18.013,0.422-28.722
		c6.411,0.66,14.675,2.403,14.537,7.016l-0.233,24.767c-2.363,0.079-4.792,0.122-7.278,0.122
		C248.168,296.299,245.648,296.253,243.208,296.169z M268.121,295.573l0.167-14.126c12.924,1.664,23.554,3.518,23.554,6.588
		C291.842,291.559,282.162,294.325,268.121,295.573z"/>
	<path fill="#BFBFBF" d="M207.635,175.492c5.653,14.103,42.391,28.078,42.391,28.078s36.738-13.975,42.391-28.078h10.416
		c0,0-5.386,20.003-52.859,30.291h0.053c-47.474-10.287-52.859-30.291-52.859-30.291H207.635z"/>
</g>
<path fill="#CFCFCF" d="M169.752,175.492c-1.14,11.602-4.577,25.999-13.858,36.545c-7.758,8.815-22.313,14.44-39.033,15.131v10.012
	c19.568-0.724,36.946-7.634,46.54-18.537c11.224-12.754,15.158-29.848,16.371-43.152H169.752z"/>
<path fill="#C40A3D" d="M173.257,175.492c-1.166,12.203-4.778,27.542-14.736,38.858c-8.399,9.544-23.943,15.619-41.66,16.323v3.003
	c18.572-0.714,34.962-7.173,43.912-17.345c10.542-11.978,14.302-28.126,15.49-40.839H173.257z"/>
<path fill="#CFCFCF" d="M382.51,227.137c-16.454-0.805-30.744-6.395-38.403-15.099c-9.282-10.547-12.72-24.944-13.859-36.545
	h-10.019c1.212,13.304,5.146,30.397,16.37,43.152c9.49,10.785,26.601,17.655,45.911,18.503V227.137z"/>
<path fill="#C40A3D" d="M382.51,230.641c-17.455-0.822-32.732-6.859-41.031-16.291c-9.959-11.316-13.57-26.655-14.736-38.857h-3.006
	c1.188,12.713,4.948,28.861,15.49,40.839c8.849,10.056,24.971,16.478,43.283,17.312V230.641z"/>
</svg>
