<?xml version="1.0" encoding="utf-8"?>
<!-- Generator: Adobe Illustrator 18.0.0, SVG Export Plug-In . SVG Version: 6.00 Build 0)  -->
<!DOCTYPE svg PUBLIC "-//W3C//DTD SVG 1.1//EN" "http://www.w3.org/Graphics/SVG/1.1/DTD/svg11.dtd">
<svg version="1.1" id="content" xmlns="http://www.w3.org/2000/svg" xmlns:xlink="http://www.w3.org/1999/xlink" x="0px" y="0px"
	 width="500px" height="500px" viewBox="0 0 500 500" enable-background="new 0 0 500 500" xml:space="preserve">
<rect id="position" x="0.5" y="0.5" display="none" fill="none" stroke="#000000" width="499" height="499"/>
<g>
	<path fill="#E00E45" d="M76.9,295.2v-100c0-12.5,11.7-22.7,25.3-22.7s24.9,10.2,24.9,22.7v100H76.9z"/>
	<g>
		<path fill="#B6BFBF" d="M108.3,211.5H107v-2.4h1.3V211.5z M105.6,211.4h-1.4V209h1.4V211.4z M102.8,211.4h-1.4V209h1.4V211.4z
			 M100.1,211.4h-1.4V209h1.4V211.4z M97.3,211.4h-1.4V209h1.4V211.4z M94.5,211.4h-1.4V209h1.4V211.4z M91.7,211.4h-1.4V209h1.4
			V211.4z M88.9,211.4h-1.4V209h1.4V211.4z M86.1,211.3h-1.4v-2.4h1.4V211.3z M83.4,211.3H82v-2.4h1.4V211.3z"/>
	</g>
	<rect x="76.9" y="279.4" fill="#F21D55" width="50.1" height="15.8"/>
	<rect x="76.9" y="279.4" fill="#E00E45" width="1.7" height="15.8"/>
	<rect x="80.7" y="279.4" fill="#E00E45" width="1.7" height="15.8"/>
	<rect x="84.4" y="279.4" fill="#E00E45" width="1.7" height="15.8"/>
	<rect x="88.1" y="279.4" fill="#E00E45" width="1.7" height="15.8"/>
	<rect x="91.9" y="279.4" fill="#E00E45" width="1.7" height="15.8"/>
	<rect x="95.6" y="279.4" fill="#E00E45" width="1.7" height="15.8"/>
	<rect x="99.3" y="279.4" fill="#E00E45" width="1.7" height="15.8"/>
	<rect x="103" y="279.4" fill="#E00E45" width="1.7" height="15.8"/>
	<rect x="106.8" y="279.4" fill="#E00E45" width="1.7" height="15.8"/>
	<rect x="110.5" y="279.4" fill="#E00E45" width="1.7" height="15.8"/>
	<rect x="114.2" y="279.4" fill="#E00E45" width="1.7" height="15.8"/>
	<rect x="118" y="279.4" fill="#E00E45" width="1.7" height="15.8"/>
	<rect x="121.7" y="279.4" fill="#E00E45" width="1.7" height="15.8"/>
	<rect x="125.4" y="279.4" fill="#E00E45" width="1.7" height="15.8"/>
	<path fill="#B6BFBF" d="M111.9,211l-0.2-0.6c-0.2-0.5-0.6-0.9-1.2-0.9s-1.1,0.4-1.2,0.9l-0.2,0.7c0,0-1,4.7-1,6s1.1,2.4,2.4,2.4
		s2.4-1.1,2.4-2.4S111.9,211,111.9,211z M112.3,217c0,1-0.8,1.8-1.8,1.8s-1.8-0.8-1.8-1.8s0.8-1.8,1.8-1.8S112.3,216.1,112.3,217z
		 M111.5,210.7c0,0.5-0.4,0.9-0.9,0.9s-0.9-0.4-0.9-0.9s0.4-0.9,0.9-0.9S111.5,210.2,111.5,210.7z"/>
	<path fill="#B6BFBF" d="M110.5,219.2L110.5,219.2c-1.2,0-2.2-1-2.2-2.2l0,0c0-1.2,1-2.2,2.2-2.2l0,0c1.2,0,2.2,1,2.2,2.2l0,0
		C112.7,218.2,111.7,219.2,110.5,219.2z"/>
</g>
</svg>
