<?xml version="1.0" encoding="utf-8"?>
<!-- Generator: Adobe Illustrator 18.0.0, SVG Export Plug-In . SVG Version: 6.00 Build 0)  -->
<!DOCTYPE svg PUBLIC "-//W3C//DTD SVG 1.1//EN" "http://www.w3.org/Graphics/SVG/1.1/DTD/svg11.dtd">
<svg version="1.1" id="content" xmlns="http://www.w3.org/2000/svg" xmlns:xlink="http://www.w3.org/1999/xlink" x="0px" y="0px"
	 width="500px" height="500px" viewBox="0 0 500 500" enable-background="new 0 0 500 500" xml:space="preserve">
<g id="bounds" display="none">
	<rect y="79.9" display="inline" fill="none" stroke="#EAEAEA" stroke-miterlimit="10" width="499.5" height="499.5"/>
</g>
<rect id="position" x="0.5" y="0.5" display="none" fill="none" stroke="#000000" width="499" height="499"/>
<g>
	<path fill="#353531" d="M283.4,175.8c-3,14.1-18.1,63.3-37.1,63.3s-35.4-49.2-38.4-63.3h-60.7L162.8,474h182.8V175.8H283.4z"/>
	<path fill="#353531" d="M275.3,181.8c0,13.8-11.2,25-25,25c-13.8,0-25-11.2-25-25h-78.8l23.2,236.5h169.1l14.8-236.5L275.3,181.8
		L275.3,181.8z"/>
	<path fill="#4D4D4D" d="M250.3,206.8c-13.8,0-25-11.2-25-25h-11.1c0,19.9,16.2,36.1,36.1,36.1s36.1-16.2,36.1-36.1h-11.1
		C275.3,195.6,264.2,206.8,250.3,206.8z"/>
	<path fill="#E00E45" d="M193,175.8h-46.8l0,0l0,0h-2.9l-18.7,14.4l-55.7,71v181h61.3v-163l16-5l10.1,77.8l62,0.6
		c0,0,7.1-116.5,7.1-134.7C200.7,202.9,193,175.8,193,175.8z"/>
	<path fill="#E00E45" d="M374.5,190.1l-18.7-14.4H353l0,0h-46.2c0,0,1.8,29.7-22.9,44.7c0,18.2-13.9,132.1-2.3,132.1s71.5,0,71.5,0
		v-77.9l16,4.5V442h61.3V261L374.5,190.1z"/>
	<polygon fill="#E00E45" points="226.8,195.8 226.8,190.4 236,190.4 236,175.8 146.5,175.8 146.5,474.4 226.9,474.4 	"/>
	<polygon fill="#E00E45" points="273.6,195.4 273.6,190 264.5,190 264.5,175.4 353.2,175.4 353.2,474 273.5,474 	"/>
	<g>
		<path fill="#E00E45" d="M273.6,474h74.5v0.9c0,8.2-2.2,9.9-16.3,9.9h-58.2V474z"/>
		<path fill="#E00E45" d="M226.9,474.4h-73.5v0.9c0,8.2,2.2,9.9,16.3,9.9h57.2V474.4z"/>
	</g>
	<g>
		<ellipse fill="#A50738" cx="273" cy="182.9" rx="3.5" ry="3.3"/>
		<ellipse fill="#A50738" cx="281.7" cy="363.2" rx="3.2" ry="3"/>
		<ellipse fill="#A50738" cx="281.7" cy="314.9" rx="3.2" ry="3"/>
		<ellipse fill="#A50738" cx="281.7" cy="266.6" rx="3.2" ry="3"/>
		<ellipse fill="#A50738" cx="281.7" cy="218.3" rx="3.2" ry="3"/>
	</g>
	<g>
		<path fill="#B6BFBF" d="M342.8,249.1l-0.7-0.6l1.6-1.7l0.7,0.6L342.8,249.1z M341.1,247.6l-1-0.9l1.6-1.7l1,0.9L341.1,247.6z
			 M339.1,245.7l-1-0.9l1.6-1.7l1,0.9L339.1,245.7z M337,243.9l-1-0.9l1.6-1.7l1,0.9L337,243.9z M334.9,242l-1-0.9l1.6-1.7l1,0.9
			L334.9,242z M332.9,240.1l-1-0.9l1.6-1.7l1,0.9L332.9,240.1z M330.8,238.3l-1-0.9l1.6-1.7l1,0.9L330.8,238.3z M328.8,236.4l-1-0.9
			l1.6-1.7l1,0.9L328.8,236.4z M326.7,234.5l-1-0.9l1.6-1.7l1,0.9L326.7,234.5z M324.6,232.6l-1-0.9l1.6-1.7l1,0.9L324.6,232.6z
			 M322.6,230.8l-1-0.9l1.6-1.7l1,0.9L322.6,230.8z M320.5,228.9l-1-0.9l1.6-1.7l1,0.9L320.5,228.9z M318.5,227l-1-0.9l1.6-1.7
			l1,0.9L318.5,227z M316.4,225.2l-1-0.9l1.6-1.7l1,0.9L316.4,225.2z M314.3,223.3l-1-0.9l1.6-1.7l1,0.9L314.3,223.3z M312.3,221.4
			l-1-0.9l1.6-1.7l1,0.9L312.3,221.4z M310.2,219.5l-1-0.9l1.6-1.7l1,0.9L310.2,219.5z M308.2,217.7l-1-0.9l1.6-1.7l1,0.9
			L308.2,217.7z M306.1,215.8l-1-0.9l1.6-1.7l1,0.9L306.1,215.8z M304,213.9l-1-0.9l1.6-1.7l1,0.9L304,213.9z M302,212.1l-1-0.9
			l1.6-1.7l1,0.9L302,212.1z M299.9,210.2l-1-0.9l1.6-1.7l1,0.9L299.9,210.2z"/>
	</g>
	<g>
		<path fill="#B6BFBF" d="M160.6,316l-1.6-1.7l1-0.9l1.6,1.7L160.6,316z M162.6,314.2l-1.6-1.7l1-0.9l1.6,1.7L162.6,314.2z
			 M164.7,312.3l-1.6-1.7l1-0.9l1.6,1.7L164.7,312.3z M166.7,310.4l-1.6-1.7l1-0.9l1.6,1.7L166.7,310.4z M168.7,308.5l-1.6-1.7
			l1-0.9l1.6,1.7L168.7,308.5z M170.8,306.6l-1.6-1.7l1-0.9l1.6,1.7L170.8,306.6z M172.8,304.7l-1.6-1.7l1-0.9l1.6,1.7L172.8,304.7z
			 M174.8,302.8l-1.6-1.7l1-0.9l1.6,1.7L174.8,302.8z M176.9,300.9l-1.6-1.7l1-0.9l1.6,1.7L176.9,300.9z M178.9,299l-1.6-1.7l1-0.9
			l1.6,1.7L178.9,299z M180.9,297.1l-1.6-1.7l1-0.9l1.6,1.7L180.9,297.1z M183,295.2l-1.6-1.7l1-0.9l1.6,1.7L183,295.2z M185,293.3
			l-1.6-1.7l1-0.9l1.6,1.7L185,293.3z M187.1,291.4l-1.6-1.7l0.8-0.8l1.6,1.7L187.1,291.4z"/>
	</g>
	<g>
		<path fill="#B6BFBF" d="M154.1,347.1l-1.7-1.6l1-1l1.7,1.6L154.1,347.1z M156.1,345.1l-1.7-1.6l1-1l1.7,1.6L156.1,345.1z
			 M158,343.1l-1.7-1.6l1-1l1.7,1.6L158,343.1z M159.9,341l-1.7-1.6l1-1l1.7,1.6L159.9,341z M161.8,339l-1.7-1.6l1-1l1.7,1.6
			L161.8,339z M163.7,337l-1.7-1.6l1-1l1.7,1.6L163.7,337z M165.6,335l-1.7-1.6l1-1l1.7,1.6L165.6,335z M167.5,332.9l-1.7-1.6l1-1
			l1.7,1.6L167.5,332.9z M169.4,330.9l-1.7-1.6l1-1l1.7,1.6L169.4,330.9z M171.3,328.9l-1.7-1.6l1-1l1.7,1.6L171.3,328.9z
			 M173.2,326.9l-1.7-1.6l1-1l1.7,1.6L173.2,326.9z M175.2,324.9l-1.7-1.6l1-1l1.7,1.6L175.2,324.9z M177.1,322.8l-1.7-1.6l1-1
			l1.7,1.6L177.1,322.8z M179,320.8l-1.7-1.6l1-1l1.7,1.6L179,320.8z M180.9,318.8l-1.7-1.6l1-1l1.7,1.6L180.9,318.8z M182.8,316.8
			l-1.7-1.6l1-1l1.7,1.6L182.8,316.8z M184.7,314.7l-1.7-1.6l1-1l1.7,1.6L184.7,314.7z M186.6,312.7l-1.7-1.6l1-1l1.7,1.6
			L186.6,312.7z M188.5,310.7l-1.7-1.6l1-1l1.7,1.6L188.5,310.7z M190.4,308.7l-1.7-1.6l1-1l1.7,1.6L190.4,308.7z M192.4,306.6
			l-1.7-1.6l1-1l1.7,1.6L192.4,306.6z M194.3,304.6l-1.7-1.6l1-1l1.7,1.6L194.3,304.6z M196.2,302.6l-1.7-1.6l1-1l1.7,1.6
			L196.2,302.6z M198.1,300.6l-1.7-1.6l0.6-0.7l1.7,1.6L198.1,300.6z"/>
	</g>
	<g>
		<path fill="#B6BFBF" d="M324.5,369.3l-0.9-1.1l1.8-1.5l0.9,1.1L324.5,369.3z M322.7,367.2l-0.9-1.1l1.8-1.5l0.9,1.1L322.7,367.2z
			 M320.9,365.1L320,364l1.8-1.5l0.9,1.1L320.9,365.1z M319.1,362.9l-0.9-1.1l1.8-1.5l0.9,1.1L319.1,362.9z M317.3,360.8l-0.9-1.1
			l1.8-1.5l0.9,1.1L317.3,360.8z M315.5,358.7l-0.9-1.1l1.8-1.5l0.9,1.1L315.5,358.7z M313.7,356.5l-0.9-1.1l1.8-1.5l0.9,1.1
			L313.7,356.5z M311.9,354.4l-0.9-1.1l1.8-1.5l0.9,1.1L311.9,354.4z M310.2,352.3l-0.9-1.1l1.8-1.5l0.9,1.1L310.2,352.3z
			 M308.4,350.1l-0.9-1.1l1.8-1.5l0.9,1.1L308.4,350.1z M306.6,348l-0.9-1.1l1.8-1.5l0.9,1.1L306.6,348z M304.8,345.9l-0.9-1.1
			l1.8-1.5l0.9,1.1L304.8,345.9z M303,343.7l-0.9-1.1l1.8-1.5l0.9,1.1L303,343.7z M301.2,341.6l-0.9-1.1l1.8-1.5l0.9,1.1
			L301.2,341.6z M299.4,339.5l-0.9-1.1l1.8-1.5l0.9,1.1L299.4,339.5z M297.7,337.3l-0.9-1.1l1.8-1.5l0.9,1.1L297.7,337.3z"/>
	</g>
	<g>
		<g>
			<path fill="#B6BFBF" d="M107.2,308.8h-1.6v-2.9h1.6V308.8z M103.9,308.8h-1.7v-2.9h1.7V308.8z M100.5,308.8h-1.7v-2.9h1.7V308.8z
				 M97.1,308.8h-1.7v-2.9h1.7V308.8z M93.7,308.7H92v-2.9h1.7V308.7z M90.3,308.7h-1.7v-2.9h1.7V308.7z M86.9,308.7h-1.7v-2.9h1.7
				V308.7z M83.5,308.7h-1.7v-2.9h1.7V308.7z M80.1,308.7h-1.7v-2.9h1.7V308.7z M76.7,308.7H75v-2.9h1.7V308.7z"/>
		</g>
		<rect x="68.8" y="422.9" fill="#F21D55" width="61.3" height="19.3"/>
		<rect x="68.8" y="422.9" fill="#E00E45" width="2.1" height="19.3"/>
		<rect x="73.4" y="422.9" fill="#E00E45" width="2.1" height="19.3"/>
		<rect x="78" y="422.9" fill="#E00E45" width="2.1" height="19.3"/>
		<rect x="82.5" y="422.9" fill="#E00E45" width="2.1" height="19.3"/>
		<rect x="87.1" y="422.9" fill="#E00E45" width="2.1" height="19.3"/>
		<rect x="91.6" y="422.9" fill="#E00E45" width="2.1" height="19.3"/>
		<rect x="96.2" y="422.9" fill="#E00E45" width="2.1" height="19.3"/>
		<rect x="100.8" y="422.9" fill="#E00E45" width="2.1" height="19.3"/>
		<rect x="105.3" y="422.9" fill="#E00E45" width="2.1" height="19.3"/>
		<rect x="109.9" y="422.9" fill="#E00E45" width="2.1" height="19.3"/>
		<rect x="114.5" y="422.9" fill="#E00E45" width="2.1" height="19.3"/>
		<rect x="119" y="422.9" fill="#E00E45" width="2.1" height="19.3"/>
		<rect x="123.6" y="422.9" fill="#E00E45" width="2.1" height="19.3"/>
		<rect x="128.1" y="422.9" fill="#E00E45" width="2.1" height="19.3"/>
		<path fill="#B6BFBF" d="M111.6,308.3l-0.2-0.8c-0.2-0.7-0.8-1.1-1.5-1.1s-1.3,0.5-1.5,1.1l-0.2,0.8c0,0-1.3,5.7-1.3,7.3s1.3,3,3,3
			c1.6,0,3-1.4,3-3C112.9,314.1,111.6,308.3,111.6,308.3z M112.1,315.6c0,1.2-1,2.2-2.2,2.2s-2.2-1-2.2-2.2s1-2.2,2.2-2.2
			S112.1,314.4,112.1,315.6z M111,307.9c0,0.6-0.5,1.1-1.1,1.1s-1.1-0.5-1.1-1.1s0.5-1.1,1.1-1.1S111,307.3,111,307.9z"/>
	</g>
	<path fill="#B6BFBF" d="M299.3,207.6l-0.2-0.6c-0.2-0.5-0.6-0.9-1.2-0.9s-1.1,0.4-1.2,0.9l-0.2,0.7c0,0-1,4.7-1,6s1.1,2.4,2.4,2.4
		s2.4-1.1,2.4-2.4C300.4,212.3,299.3,207.6,299.3,207.6z M299.7,213.6c0,1-0.8,1.8-1.8,1.8s-1.8-0.8-1.8-1.8s0.8-1.8,1.8-1.8
		S299.7,212.6,299.7,213.6z M298.8,207.3c0,0.5-0.4,0.9-0.9,0.9s-0.9-0.4-0.9-0.9s0.4-0.9,0.9-0.9
		C298.4,206.4,298.8,206.8,298.8,207.3z"/>
	<path fill="#B6BFBF" d="M297.8,334.5l-0.2-0.6c-0.2-0.5-0.6-0.9-1.2-0.9s-1.1,0.4-1.2,0.9l-0.2,0.7c0,0-1,4.7-1,6s1.1,2.4,2.4,2.4
		s2.4-1.1,2.4-2.4C298.9,339.3,297.8,334.5,297.8,334.5z M298.3,340.6c0,1-0.8,1.8-1.8,1.8s-1.8-0.8-1.8-1.8s0.8-1.8,1.8-1.8
		C297.4,338.8,298.3,339.6,298.3,340.6z M297.4,334.3c0,0.5-0.4,0.9-0.9,0.9s-0.9-0.4-0.9-0.9s0.4-0.9,0.9-0.9
		S297.4,333.8,297.4,334.3z"/>
	<path fill="#B6BFBF" d="M201.4,298.8l-0.2-0.6c-0.2-0.5-0.6-0.9-1.2-0.9s-1.1,0.4-1.2,0.9l-0.2,0.7c0,0-1,4.7-1,6s1.1,2.4,2.4,2.4
		c1.3,0,2.4-1.1,2.4-2.4C202.5,303.6,201.4,298.8,201.4,298.8z M201.9,304.9c0,1-0.8,1.8-1.8,1.8s-1.8-0.8-1.8-1.8s0.8-1.8,1.8-1.8
		S201.9,303.9,201.9,304.9z M201,298.5c0,0.5-0.4,0.9-0.9,0.9s-0.9-0.4-0.9-0.9s0.4-0.9,0.9-0.9S201,298,201,298.5z"/>
	<path fill="#B6BFBF" d="M190.2,289.4l-0.2-0.6c-0.2-0.5-0.6-0.9-1.2-0.9s-1.1,0.4-1.2,0.9l-0.2,0.7c0,0-1,4.7-1,6s1.1,2.4,2.4,2.4
		c1.3,0,2.4-1.1,2.4-2.4C191.3,294.1,190.2,289.4,190.2,289.4z M190.7,295.4c0,1-0.8,1.8-1.8,1.8s-1.8-0.8-1.8-1.8s0.8-1.8,1.8-1.8
		S190.7,294.4,190.7,295.4z M189.8,289.1c0,0.5-0.4,0.9-0.9,0.9s-0.9-0.4-0.9-0.9s0.4-0.9,0.9-0.9S189.8,288.6,189.8,289.1z"/>
	<path fill="#BC0F45" d="M159.9,275.5v-37.4c0-6.8,5.5-12.3,12.3-12.3h32.6c6.8,0,12.3,5.5,12.3,12.3v15.7c0,4.1-2.1,8-5.5,10.3
		L179,285.7C170.9,291.2,159.9,285.3,159.9,275.5z"/>
	<path fill="#BC0F45" d="M208,399.2h-41.8c-3.5,0-6.3-2.8-6.3-6.3v-21.6c0-2.9,2-5.5,4.9-6.1l41.8-9.5c3.9-0.9,7.7,2.1,7.7,6.1V393
		C214.3,396.4,211.5,399.2,208,399.2z"/>
	<path fill="#BC0F45" d="M337.9,216.1h-12.2c-2.2,0-4.1-1.8-4.1-4.1v-9.1c0-2.2,1.8-4.1,4.1-4.1h12.2c2.2,0,4.1,1.8,4.1,4.1v9.1
		C341.9,214.2,340.1,216.1,337.9,216.1z"/>
	<path fill="#BC0F45" d="M338.5,276.8h-38c-2.8,0-5.1-2.3-5.1-5.1v-7.1c0-2.8,2.3-5.1,5.1-5.1h38c2.8,0,5.1,2.3,5.1,5.1v7.1
		C343.6,274.5,341.3,276.8,338.5,276.8z"/>
	<path fill="#BC0F45" d="M337.6,330.2l-39.1-14.5c-1.8-0.7-2.9-2.3-2.9-4.2V290c0-2.5,2-4.5,4.5-4.5h39.1c2.5,0,4.5,2,4.5,4.5v36
		C343.6,329.1,340.5,331.3,337.6,330.2z"/>
	<g>
		<g>
			<path fill="#B6BFBF" d="M392,305.9h1.6v2.9H392V305.9z M395.3,305.9h1.7v2.9h-1.7V305.9z M398.7,305.9h1.7v2.9h-1.7V305.9z
				 M402.1,305.9h1.7v2.9h-1.7V305.9z M405.5,305.9h1.7v2.9h-1.7V305.9z M408.9,305.8h1.7v2.9h-1.7V305.8z M412.3,305.8h1.7v2.9
				h-1.7V305.8z M415.7,305.8h1.7v2.9h-1.7V305.8z M419.1,305.8h1.7v2.9h-1.7V305.8z M422.5,305.8h1.7v2.9h-1.7V305.8z"/>
		</g>
		<rect x="369.1" y="422.9" fill="#F21D55" width="61.3" height="19.3"/>
		<rect x="428.3" y="422.9" fill="#E00E45" width="2.1" height="19.3"/>
		<rect x="423.7" y="422.9" fill="#E00E45" width="2.1" height="19.3"/>
		<rect x="419.2" y="422.9" fill="#E00E45" width="2.1" height="19.3"/>
		<rect x="414.6" y="422.9" fill="#E00E45" width="2.1" height="19.3"/>
		<rect x="410" y="422.9" fill="#E00E45" width="2.1" height="19.3"/>
		<rect x="405.5" y="422.9" fill="#E00E45" width="2.1" height="19.3"/>
		<rect x="400.9" y="422.9" fill="#E00E45" width="2.1" height="19.3"/>
		<rect x="396.4" y="422.9" fill="#E00E45" width="2.1" height="19.3"/>
		<rect x="391.8" y="422.9" fill="#E00E45" width="2.1" height="19.3"/>
		<rect x="387.2" y="422.9" fill="#E00E45" width="2.1" height="19.3"/>
		<rect x="382.7" y="422.9" fill="#E00E45" width="2.1" height="19.3"/>
		<rect x="378.1" y="422.9" fill="#E00E45" width="2.1" height="19.3"/>
		<rect x="373.6" y="422.9" fill="#E00E45" width="2.1" height="19.3"/>
		<rect x="369" y="422.9" fill="#E00E45" width="2.1" height="19.3"/>
		<path fill="#B6BFBF" d="M386.3,315.6c0,1.6,1.3,3,3,3c1.6,0,3-1.3,3-3s-1.3-7.3-1.3-7.3l-0.2-0.8c-0.2-0.7-0.8-1.1-1.5-1.1
			s-1.3,0.5-1.5,1.1l-0.2,0.8C387.6,308.3,386.3,314.1,386.3,315.6z M389.3,313.5c1.2,0,2.2,1,2.2,2.2s-1,2.2-2.2,2.2
			s-2.2-1-2.2-2.2C387.1,314.4,388.1,313.5,389.3,313.5z M389.3,306.8c0.6,0,1.1,0.5,1.1,1.1s-0.5,1.1-1.1,1.1s-1.1-0.5-1.1-1.1
			C388.2,307.3,388.7,306.8,389.3,306.8z"/>
	</g>
	<circle fill="#B6BFBF" cx="109.8" cy="315.8" r="2.6"/>
	<circle fill="#B6BFBF" cx="188.8" cy="295.7" r="2.2"/>
	<circle fill="#B6BFBF" cx="200" cy="304.9" r="2.4"/>
	<circle fill="#B6BFBF" cx="296.4" cy="340.5" r="2.5"/>
	<circle fill="#B6BFBF" cx="389.3" cy="315.4" r="2.5"/>
	<circle fill="#B6BFBF" cx="297.9" cy="213.4" r="2.3"/>
	<rect x="153.4" y="459.3" fill="#E00E45" width="73.5" height="17.3"/>
	<rect x="273.6" y="462" fill="#E00E45" width="74.5" height="14.7"/>
</g>
</svg>
