<?xml version="1.0" encoding="utf-8"?>
<!-- Generator: Adobe Illustrator 16.0.0, SVG Export Plug-In . SVG Version: 6.00 Build 0)  -->
<!DOCTYPE svg PUBLIC "-//W3C//DTD SVG 1.1//EN" "http://www.w3.org/Graphics/SVG/1.1/DTD/svg11.dtd">
<svg version="1.1" id="content" xmlns="http://www.w3.org/2000/svg" xmlns:xlink="http://www.w3.org/1999/xlink" x="0px" y="0px"
	 width="500px" height="500px" viewBox="0 0 500 500" enable-background="new 0 0 500 500" xml:space="preserve">
<g id="bounds">
	<rect x="0.305" y="0.25" fill="none" stroke="#EAEAEA" stroke-miterlimit="10" width="499.5" height="499.5"/>
</g>
<rect id="position" x="0.5" y="0.5" display="none" fill="none" stroke="#000000" width="499" height="499"/>
<g>
	<path fill="#C40A3D" d="M286.688,226.171c-0.024,0.286-0.067,0.575-0.09,0.861l-0.145,26.595l4.109-2.266l-0.086-13.993
		c2.812,0.106,7.172,0.64,7.108,2.952l0.142,11.042l3.896,2.27l-0.095-14.094c-0.01-4.127-6.101-2.672-6.101-2.672
		s7.61-1.763,7.192-8.022c-0.252-3.76-4.322-5.632-11.564-4.877c-0.324,0.035-0.646,0.075-0.964,0.116
		c-0.312-1.958-0.807-3.788-1.585-5.777c-0.738,2.112-1.299,4.208-1.628,6.271c-4.36,0.801-7.429,1.881-7.429,1.881
		S282.809,226.125,286.688,226.171z M298.329,229.957c0.636,5.102-4.665,6.69-7.856,7.182l-0.062-10.108
		c-0.021-0.237-0.036-0.463-0.054-0.696C294.377,226.685,298.034,227.641,298.329,229.957z"/>
	<path fill="#C40A3D" d="M318.618,224.694h-5.039c0,0-5.404,0-5.404,5.128v16.577c0,5.193,5.404,5.125,5.404,5.125h5.039
		c0,0,5.411,0.068,5.411-5.125v-16.577C324.029,224.694,318.618,224.694,318.618,224.694z M319.809,245.754
		c0,2.36-1.414,3.96-3.705,3.96c-2.252,0-3.706-1.148-3.706-3.96v-15.231c0-2.807,1.55-3.958,3.706-3.958
		c2.237,0,3.705,1.599,3.705,3.958V245.754z"/>
	<path fill="#C40A3D" d="M340.309,224.694h-5.045c0,0-5.407,0-5.407,5.128v16.577c0,5.193,5.412,5.125,5.412,5.125h5.04
		c0,0,5.406,0.068,5.406-5.125V244.3h-4.221v1.454c0,2.364-1.412,3.962-3.708,3.962c-2.253,0-3.708-1.146-3.708-3.962v-15.229
		c0-2.807,1.558-3.958,3.708-3.958c2.242,0,3.708,1.599,3.708,3.958v1.462h4.221v-2.166
		C345.715,224.694,340.309,224.694,340.309,224.694z"/>
	<path fill="#C40A3D" d="M421.035,235.59c-3.436,0-4.562-0.131-4.562-3.054l-0.018-2.633c0-2.159,0.449-3.41,3.866-3.41
		c3.497,0,3.946,1.737,3.958,3.858l-0.014,1.412l3.807-1.989v-0.496c0-4.656-4.524-4.658-4.524-4.658h-5.939
		c0,0-5.107,0.021-5.107,4.275v4.095c0,3.652,0.147,4.852,5.345,4.852c3.972,0,6.42,0.089,6.42,3.533v3.865
		c0,3.034-0.45,4.384-3.749,4.384c-3.613,0-4.062-1.749-4.062-4.834l-0.017-1.907l-3.806,1.621l0.017,2.917
		c0,4.103,4.958,4.097,4.958,4.097h5.938c0,0,4.682,0,4.682-5.274v-5.755C428.226,235.911,426.017,235.59,421.035,235.59z"/>
	<path fill="#C40A3D" d="M376.8,245.534l-0.032-6.403l1.456,0.008c3.223-0.206,6.204-0.627,9.559-1.886
		c-2.624-1.064-5.95-1.551-9.559-1.804l-1.448-0.004l0.023-4.434c-0.082-0.732,0.546-2.095,0.855-2.567
		c1.173-1.261,3.057-1.177,3.057-1.177l7.166-0.016c-0.541-2.88-5.372-2.384-5.372-2.384h-4.397c0,0-5.719-0.025-5.719,5.341
		l0.038,7.565l-0.028,8.585c-0.031,5.227,5.709,5.173,5.709,5.173h4.397c0,0,4.894,0.506,5.386-2.438l-7.281,0.042
		C380.608,249.138,376.8,249.372,376.8,245.534z"/>
	<path fill="#C40A3D" d="M390.903,224.818v3.479h6.489l-0.014,22.202l4.026,2.685l0.005-24.886h1.495
		c3.272-0.171,5.372-0.68,7.754-1.738c-2.382-1.136-4.48-1.52-7.752-1.734L390.903,224.818z"/>
	<polygon fill="#C40A3D" points="367.55,224.823 363.623,224.823 355.367,236.588 355.367,224.659 351.242,221.994 351.242,253.168 
		355.367,250.51 355.367,237.101 364.114,250.98 368.615,250.98 359.26,236.168 	"/>
	<path fill="#C40A3D" d="M104.193,224.683h-5.045c0,0-5.411,0-5.411,5.132v16.594c0,5.2,5.411,5.132,5.411,5.132h5.045
		c0,0,5.417,0.068,5.417-5.132v-16.594C109.606,224.683,104.193,224.683,104.193,224.683z M105.384,245.763
		c0,2.368-1.415,3.966-3.71,3.966c-2.257,0-3.712-1.15-3.712-3.966v-15.245c0-2.813,1.558-3.963,3.712-3.963
		c2.243,0,3.71,1.599,3.71,3.963V245.763z"/>
	<path fill="#C40A3D" d="M126.806,227.187l-0.025,10.201l-0.021,8.375c0,3.953-3.205,3.927-3.205,3.927h-1.186
		c0,0-3.03-0.334-3.018-3.927l0.005-8.305v-0.144l0.047-10.094l-4.25-2.562c0,0.144,0,12.8,0,12.8l-0.017,9.133
		c0,4.707,5.061,4.946,5.061,4.946h5.268c0,0,5.532-0.207,5.532-4.963l0.004-9.907c0,0-0.074-11.869-0.074-12.002L126.806,227.187z"
		/>
	<path fill="#C40A3D" d="M198.464,253.368l3.559-2.601l0.043-15.144l12.061,15.979l-0.037-20.085
		c-0.209-4.216-0.86-6.951-1.745-10.02c-1.045,3.922-1.645,6.256-1.813,10.021l0.009,8.935l-12.089-15.766L198.464,253.368z"/>
	<path fill="#C40A3D" d="M144.799,235.581c-3.438,0-4.563-0.129-4.563-3.057l-0.015-2.637c0-2.16,0.448-3.412,3.868-3.412
		c3.499,0,3.951,1.739,3.962,3.862l-0.013,1.415l3.808-1.991v-0.498c0-4.663-4.527-4.665-4.527-4.665h-5.949
		c0,0-5.112,0.024-5.112,4.282v4.101c0,3.654,0.149,4.855,5.349,4.855c3.979,0,6.428,0.091,6.428,3.54v3.865
		c0,3.04-0.452,4.393-3.755,4.393c-3.614,0-4.062-1.756-4.062-4.843l-0.022-1.912l-3.801,1.628l0.013,2.918
		c0,4.103,4.962,4.103,4.962,4.103h5.944c0,0,4.685,0,4.685-5.28v-5.764C152,235.902,149.787,235.581,144.799,235.581z"/>
	<path fill="#C40A3D" d="M154.891,225.444v3.421h6.379l-0.013,21.83l3.958,2.642l0.008-24.471h1.468
		c3.217-0.17,5.283-0.671,7.625-1.711c-2.343-1.113-4.41-1.496-7.625-1.704L154.891,225.444z"/>
	<path fill="#C40A3D" d="M187.028,251.545c0,0,5.416,0.068,5.416-5.134v-16.592c0-5.134-5.416-5.134-5.416-5.134h-5.043
		c0,0-5.415,0-5.415,5.134v16.592c0,5.202,5.415,5.134,5.415,5.134H187.028z M180.794,245.771v-15.243
		c0-2.814,1.557-3.968,3.712-3.968c2.244,0,3.71,1.604,3.71,3.968v15.243c0,2.364-1.415,3.962-3.71,3.962
		C182.249,249.735,180.794,248.583,180.794,245.771z"/>
	<path fill="#C40A3D" d="M86.218,221.168c-1.069,2.731-1.574,5.139-1.771,8.091l-0.043,7.171h-8.803l-0.043-7.171
		c-0.192-2.954-0.7-5.36-1.769-8.091c-0.958,2.742-1.611,5.458-1.769,8.091l-0.137,24.64l3.806-2.101l-0.074-12.516h8.771
		l-0.077,12.516l3.811,2.101l-0.137-24.64C87.831,226.625,87.171,223.908,86.218,221.168z"/>
	<path fill="#C40A3D" d="M274.727,259.768l0.205-17.115c-0.029-10.62-14.602-9.559-19.451-8.91
		c5.654-1.016,24.821-5.756,23.641-23.27c-0.783-11.605-15.301-17.384-39.359-15.054c-0.397,0.04-0.793,0.08-1.186,0.123
		c-1.131-8.577-2.881-16.886-5.556-24.559c-3.345,10.373-5.287,18.553-6.371,26.179c-14.914,2.492-25.457,5.942-25.457,5.942
		s11.61-1.051,24.847-0.865c-1.496,15.267,0.069,29.765-0.021,57.556c-25.291-0.887-47.245,4.023-46.985,11.508
		c0.231,6.542,19.676,12.551,46.998,14.852l1.161,37.098l1.916-25.161c0.064-3.126,2.438-2.829,2.437-0.149l0.849,33.139
		l2.042-26.973c-0.032-3.637,2.515-3.465,2.425-0.209l0.941,34.545l1.668-51.498c3.505,0.123,7.092,0.188,10.749,0.188
		c3.457,0,6.857-0.061,10.19-0.172l1.646,52.418l1.411-27.434c0.021-3.493,2.392-3.317,2.384-0.224l1.416,38.476l1.438-33.237
		c0.105-3.267,2.718-3.123,2.781,0l1.183,44.06l1.752-74.813v-0.05c27.627-2.288,47.682-8.303,47.682-14.854
		C321.771,264.119,300.172,258.572,274.727,259.768z M225.825,279.645c-19.381-1.754-32.584-5.61-32.584-10.516
		c0-4.43,16.373-6.779,32.776-9.238c-0.02,5.276-0.094,11.023-0.265,17.354L225.825,279.645z M239.394,202.92
		c12.564,1.199,23.603,4.208,24.516,11.001c1.957,14.518-12.855,19.292-23.488,20.854
		C240.533,224.352,240.364,213.517,239.394,202.92z M260.396,280.504c-3.306,0.111-6.703,0.172-10.18,0.172
		c-3.608,0-7.126-0.061-10.538-0.186l0.139-4.256c-0.331-11.135,0.395-25.174,0.587-40.141c8.963,0.924,20.51,3.358,20.318,9.8
		L260.396,280.504z M274.492,279.66l0.234-19.735c18.059,2.328,32.916,4.914,32.916,9.204
		C307.646,274.049,294.116,277.917,274.492,279.66z"/>
</g>
</svg>
