<?xml version="1.0" encoding="utf-8"?>
<!-- Generator: Adobe Illustrator 16.0.0, SVG Export Plug-In . SVG Version: 6.00 Build 0)  -->
<!DOCTYPE svg PUBLIC "-//W3C//DTD SVG 1.1//EN" "http://www.w3.org/Graphics/SVG/1.1/DTD/svg11.dtd">
<svg version="1.1" id="content" xmlns="http://www.w3.org/2000/svg" xmlns:xlink="http://www.w3.org/1999/xlink" x="0px" y="0px"
	 width="500px" height="500px" viewBox="0 0 500 500" style="enable-background:new 0 0 500 500;" xml:space="preserve">
<path fill="#3A5980" d="M250.026,421.167c96.763-0.01,133.353-23.5,133.353-23.5l-24.251-84.104
	c0,0-51.394,8.387-109.13,8.39c-57.737-0.003-109.13-8.39-109.13-8.39l-24.25,84.104c0,0,36.589,23.49,133.352,23.5l0,0
	c0.01,0,0.019,0,0.029,0S250.017,421.167,250.026,421.167L250.026,421.167z"/>
<path fill="#E7E8E8" d="M249.969,407.667c-82.216-0.009-120.916-17.256-129.909-21.942l-1.421,4.931
	c11.062,5.675,49.969,22.004,131.388,22.012c81.369-0.008,120.269-16.337,131.331-22.012l-1.42-4.923
	c-3.773,1.983-12.774,6.195-27.979,10.372C332.765,401.376,299.501,407.662,249.969,407.667z"/>
</svg>
