<?xml version="1.0" encoding="utf-8"?>
<!-- Generator: Adobe Illustrator 18.0.0, SVG Export Plug-In . SVG Version: 6.00 Build 0)  -->
<!DOCTYPE svg PUBLIC "-//W3C//DTD SVG 1.1//EN" "http://www.w3.org/Graphics/SVG/1.1/DTD/svg11.dtd">
<svg version="1.1" id="content" xmlns="http://www.w3.org/2000/svg" xmlns:xlink="http://www.w3.org/1999/xlink" x="0px" y="0px"
	 viewBox="0 0 500 500" enable-background="new 0 0 500 500" xml:space="preserve">
<g id="bounds" display="none">
	<rect x="-0.1" y="80.3" display="inline" fill="none" stroke="#EAEAEA" stroke-miterlimit="10" width="499.5" height="499.5"/>
</g>
<rect id="position" x="0.5" y="0.5" display="none" fill="none" stroke="#000000" width="499" height="499"/>
<g>
	<rect x="58.5" y="256.2" fill="#F2F2F2" width="76.8" height="8.9"/>
	<g>
		<rect x="135.3" y="163.7" fill="#F2F2F2" width="229.3" height="249.5"/>
		<rect x="315.3" y="163.7" fill="#3A3E42" width="14.3" height="249.5"/>
		<rect x="170.4" y="163.7" fill="#3A3E42" width="14.3" height="249.5"/>
		<rect x="315.3" y="202.3" fill="#26292B" width="14.3" height="21.7"/>
		<path fill="#CFAC44" d="M332,218.2c0,1-0.8,1.9-1.9,1.9h-15.3c-1,0-1.9-0.8-1.9-1.9v-17.6c0-1,0.8-1.9,1.9-1.9h15.3
			c1,0,1.9,0.8,1.9,1.9V218.2z"/>
		<rect x="170.4" y="202.3" fill="#26292B" width="14.3" height="21.7"/>
		<path fill="#CFAC44" d="M168.1,218.2c0,1,0.8,1.9,1.9,1.9h15.3c1,0,1.9-0.8,1.9-1.9v-17.6c0-1-0.8-1.9-1.9-1.9H170
			c-1,0-1.9,0.8-1.9,1.9V218.2z"/>
		<rect x="274.4" y="163.7" fill="#D1D1D1" width="4.7" height="249.5"/>
		<rect x="220.9" y="163.7" fill="#D1D1D1" width="4.7" height="249.5"/>
		<circle fill="#C4C4C4" cx="250" cy="246.5" r="6.7"/>
		<circle fill="#C4C4C4" cx="250" cy="209.4" r="6.7"/>
		<circle fill="#C4C4C4" cx="250" cy="283.6" r="6.7"/>
		<circle fill="#C4C4C4" cx="250" cy="320.6" r="6.7"/>
		<path fill="#B81E52" d="M250,173.4l-28.1,29c0,0-24.1-17.1-20.2-38.6c37.6,0,48.3,0,48.3,0V173.4z"/>
		<path fill="#B81E52" d="M250,173.4l28.1,29c0,0,24.1-17.1,20.2-38.6c-37.6,0-48.3,0-48.3,0L250,173.4L250,173.4z"/>
		<polyline fill="#941942" points="240.9,168.1 223.9,178.2 243.2,171.9 240.9,168.7 		"/>
		<polyline fill="#941942" points="259.1,168.1 276.2,178.2 256.8,171.9 259.1,168.7 		"/>
		<path fill="#DE2463" d="M259.2,165.4c0-0.8-0.6-1.4-1.4-1.4h-15.4c-0.8,0-1.4,0.6-1.4,1.4v10.9c0,0.8,0.6,1.4,1.4,1.4h15.4
			c0.8,0,1.4-0.6,1.4-1.4V165.4z"/>
	</g>
	<path fill="#32363B" d="M364.6,365.3l-15.8-1.6l-20.9,7.1l-21.6,2.6l-21.6,0.8l-21.5,1.8l0.3,8.9l-13.4,0.1l-13.4-0.1l0.3-8.9
		l-21.5-1.8l-21.6-0.8l-21.6-2.6l-20.9-7.1l-16.2,1.7L105.3,462c0,0,9.4,2.4,24.3,13.5c0,0,14.1-1.9,25.7,7c0,0,14.5-2.2,25.9,5.3
		c0,0,14.7-3.7,26.1,3.7c0,0,16-3.6,26.2,2c0,0,8-3.6,16.6-3.6c8.6,0,16.6,3.6,16.6,3.6c10.2-5.6,26.2-2,26.2-2
		c11.4-7.4,26.1-3.7,26.1-3.7c11.4-7.6,25.9-5.3,25.9-5.3c11.6-8.9,25.7-7,25.7-7c14.9-11.1,24.3-13.5,24.3-13.5L364.6,365.3z"/>
	<path fill="#2B2D30" d="M348.8,363.7l21.7,111.8c14.9-11.1,24.3-13.5,24.3-13.5l-30.1-96.7L348.8,363.7z"/>
	<path fill="#2B2D30" d="M151.3,363.7l-21.7,111.8c-14.9-11.1-24.3-13.5-24.3-13.5l29.7-96.6L151.3,363.7z"/>
	<path fill="#2B2D30" d="M344.8,482.5l-16.9-111.7l-21.6,2.6l12.6,114.5C330.3,480.2,344.8,482.5,344.8,482.5z"/>
	<path fill="#2B2D30" d="M292.8,491.5l-8.2-117.4l-21.5,1.8l3.5,117.6C276.8,487.9,292.8,491.5,292.8,491.5z"/>
	<path fill="#2B2D30" d="M155.5,482.5l16.9-111.7l21.6,2.6l-12.6,114.5C170,480.2,155.5,482.5,155.5,482.5z"/>
	<path fill="#2B2D30" d="M207.5,491.5l8.2-117.4l21.5,1.8l-3.5,117.6C223.6,487.9,207.5,491.5,207.5,491.5z"/>
	<path opacity="0.8" fill="#242629" enable-background="new    " d="M366.1,377.6l-1.5-12.3l-15.8-1.6l-20.9,7.1l-21.6,2.6
		l-21.6,0.8l-21.5,1.8l0.3,8.9l-13.4,0.1l-13.4-0.1l0.3-8.9l-21.5-1.8l-21.6-0.8l-21.6-2.6l-20.9-7.1l-16.2,1.7l-2.6,12.1
		c3.7,1.9,29.8,20.2,117.7,20.2C336.4,397.7,361.3,380,366.1,377.6z"/>
	<path fill="#3A3E42" d="M250.2,369.4c-90.6,0-114.9-19.5-114.9-19.5l-1,18.9c0,0,25.2,19.1,115.8,19.1s115-19.7,115-19.7l-0.6-18.3
		C364.6,349.8,340.8,369.4,250.2,369.4z"/>
	<polygon fill="#F2F2F2" points="135.3,163.7 58.5,247.4 135.3,252.1 	"/>
	<polygon fill="#F2F2F2" points="364.6,163.7 441.5,247.4 364.6,252.1 	"/>
	<rect x="58.5" y="247.4" fill="#3A3E42" width="76.8" height="11.2"/>
	<rect x="58.5" y="263.1" fill="#3A3E42" width="76.8" height="3.9"/>
	<rect x="364.6" y="256.2" fill="#F2F2F2" width="76.8" height="8.9"/>
	<rect x="365.6" y="247.4" fill="#3A3E42" width="75.9" height="11.2"/>
	<rect x="365.6" y="263.1" fill="#3A3E42" width="75.9" height="3.9"/>
</g>
</svg>
