<?xml version="1.0" encoding="utf-8"?>
<!-- Generator: Adobe Illustrator 18.0.0, SVG Export Plug-In . SVG Version: 6.00 Build 0)  -->
<!DOCTYPE svg PUBLIC "-//W3C//DTD SVG 1.1//EN" "http://www.w3.org/Graphics/SVG/1.1/DTD/svg11.dtd">
<svg version="1.1" id="content" xmlns="http://www.w3.org/2000/svg" xmlns:xlink="http://www.w3.org/1999/xlink" x="0px" y="0px"
	 width="500px" height="500px" viewBox="0 0 500 500" enable-background="new 0 0 500 500" xml:space="preserve">
<rect id="position" x="0.5" y="0.5" display="none" fill="none" stroke="#000000" width="499" height="499"/>
<g>
	<g>
		<polygon fill="#BCBCBC" points="382.4,480.3 116.6,480.3 116,172.9 382.4,172.7 		"/>
	</g>
	<g>
		<path fill="#C9C9C9" d="M149,184.6c0,3.5,2.7,6.3,6.1,6.3h35.6c3.4,0,6.1-2.8,6.1-6.3l0,0c0-3.5-2.7-6.3-6.1-6.3h-35.6
			C151.7,178.3,149,181.2,149,184.6L149,184.6z"/>
	</g>
	<g>
		<path fill="#C9C9C9" d="M299.3,184.6c0,3.5,2.7,6.3,6.1,6.3H341c3.4,0,6.1-2.8,6.1-6.3l0,0c0-3.5-2.7-6.3-6.1-6.3h-35.6
			C302.1,178.3,299.3,181.2,299.3,184.6L299.3,184.6z"/>
	</g>
	<g>
		<g>
			<path fill="#ADADAD" d="M147,213.2c-0.7,3,1,6,3.7,6.8l90.8,25.2c1.6,0.4,3.2-0.6,3.6-2.4l0,0c0.4-1.8-0.6-3.5-2.2-4l-89.8-29.7
				C150.4,208.4,147.7,210.2,147,213.2L147,213.2z"/>
		</g>
		<g>
			<path fill="#C9C9C9" d="M147,226.2c-0.9,3.1,0.8,6.3,3.7,7.2l84.9,23.5c2.9,0.9,6-0.8,6.9-3.9l0,0c0.9-3.1-0.8-6.3-3.7-7.2
				l-84.9-23.5C150.9,221.3,147.8,223.1,147,226.2L147,226.2z"/>
		</g>
	</g>
	<g>
		<path fill="#9B9B9B" d="M244,247.3c-0.1,0-0.1,0-0.2,0l-93.3-25.8c-0.4-0.1-0.6-0.5-0.5-0.9s0.5-0.6,0.9-0.5l93.3,25.8
			c0.4,0.1,0.6,0.5,0.5,0.9C244.6,247.1,244.3,247.3,244,247.3z"/>
	</g>
	<g>
		<g>
			<path fill="#ADADAD" d="M142.4,284.1c-0.3,3.1,1.8,5.8,4.5,6.2l93.3,12.9c1.6,0.2,3.1-1,3.3-2.8l0,0c0.2-1.8-1-3.4-2.7-3.7
				L148,279.3C145.2,278.9,142.7,281,142.4,284.1L142.4,284.1z"/>
		</g>
		<g>
			<path fill="#C9C9C9" d="M144.1,296.9c-0.4,3.2,1.6,6.1,4.7,6.7l87.2,12c3,0.5,5.8-1.6,6.3-4.8l0,0c0.4-3.2-1.6-6.1-4.7-6.7
				l-87.2-12C147.4,291.6,144.6,293.8,144.1,296.9L144.1,296.9z"/>
		</g>
	</g>
	<g>
		<path fill="#9B9B9B" d="M243,304.9C243,304.9,242.9,304.9,243,304.9l-96-13.2c-0.4-0.1-0.7-0.4-0.6-0.8c0.1-0.4,0.4-0.7,0.8-0.6
			l95.9,13.1c0.4,0.1,0.7,0.4,0.6,0.8C243.7,304.7,243.3,304.9,243,304.9z"/>
	</g>
	<g>
		<g>
			<path fill="#ADADAD" d="M356.7,284.1c0.3,3.1-1.8,5.8-4.5,6.2l-93.3,12.9c-1.6,0.2-3.1-1-3.3-2.8l0,0c-0.2-1.8,1-3.4,2.7-3.7
				l92.9-17.4C353.9,278.9,356.4,281,356.7,284.1L356.7,284.1z"/>
		</g>
		<g>
			<path fill="#C9C9C9" d="M355,296.9c0.4,3.2-1.6,6.1-4.7,6.7l-87.2,12c-3,0.5-5.8-1.6-6.3-4.8l0,0c-0.4-3.2,1.6-6.1,4.7-6.7
				l87.2-12C351.7,291.6,354.5,293.8,355,296.9L355,296.9z"/>
		</g>
	</g>
	<g>
		<path fill="#9B9B9B" d="M256.1,304.9c-0.4,0-0.7-0.3-0.7-0.6c-0.1-0.4,0.2-0.8,0.6-0.8l95.9-13.1c0.4-0.1,0.8,0.2,0.8,0.6
			c0.1,0.4-0.2,0.8-0.6,0.8L256.1,304.9C256.2,304.9,256.2,304.9,256.1,304.9z"/>
	</g>
	<g>
		<g>
			<path fill="#ADADAD" d="M352.1,213.2c0.7,3-1,6-3.7,6.8l-90.8,25.2c-1.6,0.4-3.2-0.6-3.6-2.4l0,0c-0.4-1.8,0.6-3.5,2.2-4
				l89.8-29.7C348.7,208.4,351.4,210.2,352.1,213.2L352.1,213.2z"/>
		</g>
		<g>
			<path fill="#C9C9C9" d="M352.1,226.2c0.9,3.1-0.8,6.3-3.7,7.2l-84.9,23.5c-2.9,0.9-6-0.8-6.9-3.9l0,0c-0.9-3.1,0.8-6.3,3.7-7.2
				l84.9-23.5C348.2,221.3,351.3,223.1,352.1,226.2L352.1,226.2z"/>
		</g>
	</g>
	<g>
		<path fill="#9B9B9B" d="M255.1,247.3c-0.3,0-0.6-0.2-0.7-0.5c-0.1-0.4,0.1-0.8,0.5-0.9l93.3-25.8c0.4-0.1,0.8,0.1,0.9,0.5
			s-0.1,0.8-0.5,0.9l-93.3,25.8C255.3,247.3,255.2,247.3,255.1,247.3z"/>
	</g>
	<g>
		<path fill="#ADADAD" d="M294,173.1c0,24.5-19.9,46.4-44.4,46.4s-44.4-21.9-44.4-46.4"/>
	</g>
	<g>
		<path fill="#C9C9C9" d="M249.6,173.1c0,24.5,0,46.4,0,46.4c-24.5,0-44.4-21.9-44.4-46.4"/>
	</g>
	<g>
		<rect x="247.2" y="173.1" fill="#8C8C8C" width="4.7" height="307.2"/>
	</g>
	<g>
		
			<rect x="181.8" y="301.1" transform="matrix(0.7071 0.7071 -0.7071 0.7071 287.2258 -36.5473)" fill="#8C8C8C" width="11.8" height="54.7"/>
	</g>
	<g>
		
			<rect x="284" y="322.5" transform="matrix(0.7071 0.7071 -0.7071 0.7071 323.4057 -123.973)" fill="#8C8C8C" width="54.7" height="11.8"/>
	</g>
	<g>
		<path fill="#ADADAD" d="M148.2,360.4c0,3.5,2.7,6.3,6.1,6.3h78.5c3.4,0,6.1-2.8,6.1-6.3l0,0c0-3.5-2.7-6.3-6.1-6.3h-78.5
			C150.9,354.1,148.2,356.9,148.2,360.4L148.2,360.4z"/>
	</g>
	<g>
		<path fill="#ADADAD" d="M261.7,360.4c0,3.5,2.7,6.3,6.1,6.3h78.5c3.4,0,6.1-2.8,6.1-6.3l0,0c0-3.5-2.7-6.3-6.1-6.3h-78.5
			C264.4,354.1,261.7,356.9,261.7,360.4L261.7,360.4z"/>
	</g>
	<g>
		<polygon fill="#999999" points="243.1,194.4 256,194.4 251.9,172.9 247.2,172.9 		"/>
	</g>
	<g>
		<circle fill="#8C8C8C" cx="249.6" cy="189.3" r="2.2"/>
	</g>
</g>
</svg>
