<?xml version="1.0" encoding="utf-8"?>
<!-- Generator: Adobe Illustrator 18.0.0, SVG Export Plug-In . SVG Version: 6.00 Build 0)  -->
<!DOCTYPE svg PUBLIC "-//W3C//DTD SVG 1.1//EN" "http://www.w3.org/Graphics/SVG/1.1/DTD/svg11.dtd">
<svg version="1.1" id="content" xmlns="http://www.w3.org/2000/svg" xmlns:xlink="http://www.w3.org/1999/xlink" x="0px" y="0px"
	 width="500px" height="500px" viewBox="0 0 500 500" enable-background="new 0 0 500 500" xml:space="preserve">
<g id="bounds" display="none">
	<rect x="-0.6" y="80.6" display="inline" fill="none" stroke="#EAEAEA" stroke-miterlimit="10" width="499.5" height="499.5"/>
</g>
<rect id="position" x="0.5" y="0.5" display="none" fill="none" stroke="#000000" width="499" height="499"/>
<g>
	<polygon fill="#BCBCBC" points="354.2,175.9 142.1,175.9 145.1,281.2 145.1,471.5 150.8,471.5 324.2,471.5 351.1,471.5 351.1,214 
		350.4,214 	"/>
	<g>
		<path fill="#ADADAD" d="M294.8,175.9c0,24.5-19.9,44.4-44.4,44.4S206,200.4,206,175.9"/>
	</g>
	<g>
		<path fill="#C9C9C9" d="M250.4,175.9c0,24.5,0,44.4,0,44.4c-24.5,0-44.4-19.9-44.4-44.4"/>
	</g>
	<g>
		<rect x="247.6" y="175.9" fill="#8C8C8C" width="4.7" height="295.6"/>
	</g>
	<g>
		<path fill="#C9C9C9" d="M157.2,187.7c0,3.2,2.5,5.8,5.6,5.8h32.9c3.1,0,5.6-2.6,5.6-5.8l0,0c0-3.2-2.5-5.8-5.6-5.8h-32.9
			C159.7,181.9,157.2,184.5,157.2,187.7L157.2,187.7z"/>
	</g>
	<g>
		<path fill="#C9C9C9" d="M295.9,187.7c0,3.2,2.5,5.8,5.6,5.8h32.9c3.1,0,5.6-2.6,5.6-5.8l0,0c0-3.2-2.5-5.8-5.6-5.8h-32.9
			C298.5,181.9,295.9,184.5,295.9,187.7L295.9,187.7z"/>
	</g>
	<g>
		<g>
			<path fill="#ADADAD" d="M155.3,239.1c-0.6,2.8,0.9,5.5,3.4,6.3l83.8,23.3c1.5,0.4,3-0.6,3.3-2.2l0,0c0.4-1.7-0.6-3.2-2-3.7
				L161,235.3C158.5,234.7,156,236.3,155.3,239.1L155.3,239.1z"/>
		</g>
		<g>
			<path fill="#C9C9C9" d="M155.3,251.1c-0.8,2.9,0.7,5.8,3.4,6.6l78.4,21.7c2.7,0.8,5.5-0.7,6.4-3.6l0,0c0.8-2.9-0.7-5.8-3.4-6.6
				l-78.4-21.7C158.9,246.6,156.1,248.2,155.3,251.1L155.3,251.1z"/>
		</g>
	</g>
	<g>
		<path fill="#9B9B9B" d="M244.9,270.6c-0.1,0-0.1,0-0.2,0l-86.1-23.8c-0.4-0.1-0.6-0.5-0.5-0.8c0.1-0.4,0.5-0.6,0.8-0.5l86.1,23.8
			c0.4,0.1,0.6,0.5,0.5,0.8C245.4,270.4,245.2,270.6,244.9,270.6z"/>
	</g>
	<g>
		<g>
			<path fill="#ADADAD" d="M151.1,328.5c-0.3,2.9,1.7,5.4,4.2,5.7l86.1,11.9c1.5,0.2,2.9-0.9,3-2.6l0,0c0.2-1.7-0.9-3.1-2.5-3.4
				L156.2,324C153.7,323.7,151.4,325.7,151.1,328.5L151.1,328.5z"/>
		</g>
		<g>
			<path fill="#C9C9C9" d="M152.7,340.4c-0.4,3,1.5,5.6,4.3,6.2l80.5,11.1c2.8,0.5,5.4-1.5,5.8-4.4l0,0c0.4-3-1.5-5.6-4.3-6.2
				L158.5,336C155.7,335.5,153.1,337.5,152.7,340.4L152.7,340.4z"/>
		</g>
	</g>
	<g>
		<path fill="#9B9B9B" d="M244,347.7C244,347.7,243.9,347.7,244,347.7l-88.6-12.2c-0.4-0.1-0.6-0.4-0.6-0.7s0.4-0.6,0.7-0.6
			l88.5,12.1c0.4,0.1,0.6,0.4,0.6,0.7C244.6,347.6,244.2,347.7,244,347.7z"/>
	</g>
	<g>
		<g>
			<path fill="#ADADAD" d="M348.9,329.5c0.3,2.9-1.7,5.4-4.2,5.7l-86.1,11.9c-1.5,0.2-2.9-0.9-3-2.6l0,0c-0.2-1.7,0.9-3.1,2.5-3.4
				l85.8-16.1C346.3,324.7,348.6,326.7,348.9,329.5L348.9,329.5z"/>
		</g>
		<g>
			<path fill="#C9C9C9" d="M347.3,341.4c0.4,3-1.5,5.6-4.3,6.2l-80.5,11.1c-2.8,0.5-5.4-1.5-5.8-4.4l0,0c-0.4-3,1.5-5.6,4.3-6.2
				l80.5-11.1C344.3,336.5,346.9,338.5,347.3,341.4L347.3,341.4z"/>
		</g>
	</g>
	<g>
		<path fill="#9B9B9B" d="M256,348.7c-0.4,0-0.6-0.3-0.6-0.6c-0.1-0.4,0.2-0.7,0.6-0.7l88.5-12.1c0.4-0.1,0.7,0.2,0.7,0.6
			c0.1,0.4-0.2,0.7-0.6,0.7L256,348.7C256.1,348.7,256.1,348.7,256,348.7z"/>
	</g>
	<g>
		<g>
			<path fill="#ADADAD" d="M344.7,239.1c0.6,2.8-0.9,5.5-3.4,6.3l-83.8,23.3c-1.5,0.4-3-0.6-3.3-2.2l0,0c-0.4-1.7,0.6-3.2,2-3.7
				l82.9-27.4C341.5,234.7,344,236.3,344.7,239.1L344.7,239.1z"/>
		</g>
		<g>
			<path fill="#C9C9C9" d="M344.7,251.1c0.8,2.9-0.7,5.8-3.4,6.6l-78.4,21.7c-2.7,0.8-5.5-0.7-6.4-3.6l0,0c-0.8-2.9,0.7-5.8,3.4-6.6
				l78.4-21.7C341.1,246.6,343.9,248.2,344.7,251.1L344.7,251.1z"/>
		</g>
	</g>
	<g>
		<path fill="#9B9B9B" d="M255.1,270.6c-0.3,0-0.6-0.2-0.6-0.5c-0.1-0.4,0.1-0.7,0.5-0.8l86.1-23.8c0.4-0.1,0.7,0.1,0.8,0.5
			c0.1,0.4-0.1,0.7-0.5,0.8l-86.1,23.8C255.3,270.6,255.2,270.6,255.1,270.6z"/>
	</g>
	<g>
		
			<rect x="187.5" y="344.3" transform="matrix(0.7071 0.7071 -0.7071 0.7071 317.8101 -28.1778)" fill="#8C8C8C" width="10.9" height="50.5"/>
	</g>
	<g>
		
			<rect x="281.8" y="364" transform="matrix(0.7071 0.7071 -0.7071 0.7071 351.147 -108.916)" fill="#8C8C8C" width="50.5" height="10.9"/>
	</g>
	<g>
		<path fill="#ADADAD" d="M156.4,399c0,3.2,2.5,5.8,5.6,5.8h72.5c3.1,0,5.6-2.6,5.6-5.8l0,0c0-3.2-2.5-5.8-5.6-5.8H162
			C158.9,393.2,156.4,395.7,156.4,399L156.4,399z"/>
	</g>
	<g>
		<path fill="#ADADAD" d="M261.2,399c0,3.2,2.5,5.8,5.6,5.8h72.5c3.1,0,5.6-2.6,5.6-5.8l0,0c0-3.2-2.5-5.8-5.6-5.8h-72.5
			C263.7,393.2,261.2,395.7,261.2,399L261.2,399z"/>
	</g>
	<g>
		<polygon fill="#999999" points="244,193.7 256,193.7 252.2,175.7 247.8,175.7 		"/>
	</g>
	<g>
		<circle fill="#8C8C8C" cx="250" cy="189" r="2"/>
	</g>
	<path fill="#8C8C8C" d="M152.6,471.5v0.2c0,5.5,4.4,9.9,9.9,9.9h175c5.4,0,9.9-4.5,9.9-9.9v-0.2H152.8
		C152.7,471.5,152.7,471.5,152.6,471.5z"/>
	<path fill="#BCBCBC" d="M98.3,419.7c4,0,7.8-0.8,11.3-2.2H87C90.5,418.9,94.3,419.7,98.3,419.7z"/>
	<path fill="#BCBCBC" d="M142,175.9l-18.7,14.3l-55.7,71V316v2.3V369v20.1c0,12.9,8,24,19.3,28.5h22.6c11.3-4.5,19.3-15.5,19.3-28.5
		V369v-50.7V316v-36.6L147,274v-98h-5V175.9z"/>
	<g>
		<circle fill="#C9C9C9" cx="87" cy="267.1" r="7.2"/>
	</g>
	<g>
		<path fill="#ADADAD" d="M127,310.4c0,1.4-1,2.6-2.1,2.6H82.8c-1.2,0-2.1-1.2-2.1-2.6l0,0c0-1.4,1-2.6,2.1-2.6h42.1
			C126,307.8,127,308.8,127,310.4L127,310.4z"/>
	</g>
	<g>
		<path fill="#C9C9C9" d="M127,315.5c0,1.4-1.2,2.6-2.6,2.6h-52c-1.4,0-2.6-1.2-2.6-2.6l0,0c0-1.4,1.2-2.6,2.6-2.6h52
			C125.8,312.9,127,314.1,127,315.5L127,315.5z"/>
	</g>
	<g>
		<path fill="#ADADAD" d="M127,356c0,1.4-1,2.6-2.1,2.6H82.8c-1.2,0-2.1-1.2-2.1-2.6l0,0c0-1.4,1-2.6,2.1-2.6h42.1
			C126,353.4,127,354.6,127,356L127,356z"/>
	</g>
	<g>
		<path fill="#C9C9C9" d="M127,361.2c0,1.4-1.2,2.6-2.6,2.6h-52c-1.4,0-2.6-1.2-2.6-2.6l0,0c0-1.4,1.2-2.6,2.6-2.6h52
			C125.8,358.6,127,359.8,127,361.2L127,361.2z"/>
	</g>
	<g>
		<path fill="#ADADAD" d="M126,420.2H70.6c-1.1,0-2.1-0.9-2.1-2.1V401c0-1.1,0.9-2.1,2.1-2.1H126c1.1,0,2.1,0.9,2.1,2.1v17.1
			C128.1,419.3,127.1,420.2,126,420.2z"/>
	</g>
	<g>
		<path fill="#8C8C8C" d="M126,420.2H99.3V399H126c1.1,0,2.1,0.9,2.1,2.1v17.1C128.1,419.3,127.1,420.2,126,420.2z"/>
	</g>
	<path fill="#BCBCBC" d="M397.9,419.7c-4,0-7.8-0.8-11.3-2.2h22.6C405.7,418.9,401.9,419.7,397.9,419.7z"/>
	<path fill="#BCBCBC" d="M372.9,190.3L354.2,176h-5.1v98l18.2,5.4v38.9V369v20.1c0,12.9,8,24,19.3,28.5h22.6
		c11.3-4.5,19.3-15.5,19.3-28.5V369v-50.7V316v-54.7L372.9,190.3z"/>
	<g>
		<circle fill="#C9C9C9" cx="409.2" cy="267.1" r="7.2"/>
	</g>
	<g>
		<path fill="#ADADAD" d="M369.2,310.4c0-1.5,1-2.6,2.1-2.6h42.1c1.1,0,2.1,1.2,2.1,2.6l0,0c0,1.4-0.9,2.6-2.1,2.6h-42.1
			C370.2,313,369.2,311.8,369.2,310.4L369.2,310.4z"/>
	</g>
	<g>
		<path fill="#C9C9C9" d="M369.2,315.5c0-1.4,1.2-2.6,2.6-2.6h52c1.4,0,2.6,1.2,2.6,2.6l0,0c0,1.4-1.2,2.6-2.6,2.6h-52
			C370.4,318.1,369.2,316.9,369.2,315.5L369.2,315.5z"/>
	</g>
	<g>
		<path fill="#ADADAD" d="M369.2,356c0-1.4,1-2.6,2.1-2.6h42.1c1.1,0,2.1,1.2,2.1,2.6l0,0c0,1.4-0.9,2.6-2.1,2.6h-42.1
			C370.2,358.6,369.2,357.4,369.2,356L369.2,356z"/>
	</g>
	<g>
		<path fill="#C9C9C9" d="M369.2,361.2c0-1.4,1.2-2.6,2.6-2.6h52c1.4,0,2.6,1.2,2.6,2.6l0,0c0,1.4-1.2,2.6-2.6,2.6h-52
			C370.4,363.8,369.2,362.6,369.2,361.2L369.2,361.2z"/>
	</g>
	<g>
		<path fill="#ADADAD" d="M368.2,418.2v-17.1c0-1.2,1-2.1,2.1-2.1h55.4c1.2,0,2.1,1,2.1,2.1v17.1c0,1.2-1,2.1-2.1,2.1h-55.4
			C369.1,420.2,368.2,419.3,368.2,418.2z"/>
	</g>
	<g>
		<path fill="#8C8C8C" d="M368.2,418.2v-17.1c0-1.2,1-2.1,2.1-2.1H397v21.2h-26.7C369.1,420.2,368.2,419.3,368.2,418.2z"/>
	</g>
</g>
</svg>
