<?xml version="1.0" encoding="utf-8"?>
<!-- Generator: Adobe Illustrator 18.0.0, SVG Export Plug-In . SVG Version: 6.00 Build 0)  -->
<!DOCTYPE svg PUBLIC "-//W3C//DTD SVG 1.1//EN" "http://www.w3.org/Graphics/SVG/1.1/DTD/svg11.dtd">
<svg version="1.1" id="content" xmlns="http://www.w3.org/2000/svg" xmlns:xlink="http://www.w3.org/1999/xlink" x="0px" y="0px"
	 width="500px" height="500px" viewBox="0 0 500 500" enable-background="new 0 0 500 500" xml:space="preserve">
<rect id="position" x="0.5" y="0.5" display="none" fill="none" stroke="#000000" width="499" height="499"/>
<g>
	<path fill="#BCBCBC" d="M101.9,173.3c-15.6,0-28.2,12.6-28.2,28.2v2.1v46.7v18.5c0,15.6,12.6,28.2,28.2,28.2s28.2-12.6,28.2-28.2
		v-18.5v-46.7v-2.1C130.1,185.9,117.4,173.3,101.9,173.3z"/>
</g>
<g>
	<circle fill="#C9C9C9" cx="89.9" cy="187" r="6.6"/>
</g>
<g>
	<path fill="#ADADAD" d="M128.3,212.9c0,1.3-0.9,2.4-1.9,2.4H87.6c-1.1,0-1.9-1.1-1.9-2.4l0,0c0-1.3,0.9-2.4,1.9-2.4h38.8
		C127.4,210.5,128.3,211.5,128.3,212.9L128.3,212.9z"/>
</g>
<g>
	<path fill="#C9C9C9" d="M128.3,217.6c0,1.3-1.1,2.4-2.4,2.4H78c-1.3,0-2.4-1.1-2.4-2.4l0,0c0-1.3,1.1-2.4,2.4-2.4h47.9
		C127.2,215.2,128.3,216.3,128.3,217.6L128.3,217.6z"/>
</g>
<g>
	<path fill="#ADADAD" d="M128.3,254.9c0,1.3-0.9,2.4-1.9,2.4H87.6c-1.1,0-1.9-1.1-1.9-2.4l0,0c0-1.3,0.9-2.4,1.9-2.4h38.8
		C127.4,252.5,128.3,253.6,128.3,254.9L128.3,254.9z"/>
</g>
<g>
	<path fill="#C9C9C9" d="M128.3,259.7c0,1.3-1.1,2.4-2.4,2.4H78c-1.3,0-2.4-1.1-2.4-2.4l0,0c0-1.3,1.1-2.4,2.4-2.4h47.9
		C127.2,257.3,128.3,258.4,128.3,259.7L128.3,259.7z"/>
</g>
<g>
	<path fill="#ADADAD" d="M127.4,297.5h-51c-1,0-1.9-0.8-1.9-1.9v-15.7c0-1,0.8-1.9,1.9-1.9h51c1,0,1.9,0.8,1.9,1.9v15.7
		C129.3,296.6,128.4,297.5,127.4,297.5z"/>
</g>
<g>
	<path fill="#8C8C8C" d="M127.4,297.5h-24.6V278h24.6c1,0,1.9,0.8,1.9,1.9v15.7C129.3,296.6,128.4,297.5,127.4,297.5z"/>
</g>
</svg>
