<?xml version="1.0" encoding="utf-8"?>
<!-- Generator: Adobe Illustrator 18.0.0, SVG Export Plug-In . SVG Version: 6.00 Build 0)  -->
<!DOCTYPE svg PUBLIC "-//W3C//DTD SVG 1.1 Basic//EN" "http://www.w3.org/Graphics/SVG/1.1/DTD/svg11-basic.dtd">
<svg version="1.1" baseProfile="basic" id="content"
	 xmlns="http://www.w3.org/2000/svg" xmlns:xlink="http://www.w3.org/1999/xlink" x="0px" y="0px" viewBox="0 0 500 500"
	 xml:space="preserve">
<rect id="position" x="0.5" y="0.5" display="none" fill="none" stroke="#000000" width="499" height="499"/>
<g>
	<path fill="#8C8C8C" d="M158.6,372.5v-0.8c0,5.5,4.4,10.9,9.9,10.9h163c5.4,0,9.9-4.5,9.9-9.9v-1.2L158.6,365
		C158.5,365,158.7,372.5,158.6,372.5z"/>
	<path fill="#BCBCBC" d="M358.7,347.5H140.5v5.6v0.4l0,0c0,0.7,0.1,1.4,0.1,2.1c0.9,8.2,7,14.9,14.9,16.6c1.1,0.2,2.2,0.4,3.4,0.4
		h0.7H174h3.4h15.1h3.4H211h3.4h15.1h3.5h15h3.5h15.1h3.4h15h3.5h15.1l0,0h3.4v-0.1l0,0v0.1h15l0,0h3.5v-0.1l0,0l0,0v0.1h14.1h0.7
		l0,0c1.2,0,2.3-0.2,3.4-0.4c8.6-1.9,15.1-9.5,15.1-18.7v-0.1v-0.3V353L358.7,347.5L358.7,347.5z"/>
	<g>
		<rect x="247.2" y="347.5" fill="#8C8C8C" width="4.7" height="30"/>
	</g>
</g>
</svg>
