<?xml version="1.0" encoding="utf-8"?>
<!-- Generator: Adobe Illustrator 16.0.0, SVG Export Plug-In . SVG Version: 6.00 Build 0)  -->
<!DOCTYPE svg PUBLIC "-//W3C//DTD SVG 1.1//EN" "http://www.w3.org/Graphics/SVG/1.1/DTD/svg11.dtd">
<svg version="1.1" id="content" xmlns="http://www.w3.org/2000/svg" xmlns:xlink="http://www.w3.org/1999/xlink" x="0px" y="0px"
	 width="500px" height="500px" viewBox="0 0 500 500" enable-background="new 0 0 500 500" xml:space="preserve">
<g id="bounds">
	<rect x="0.089" y="0.39" fill="none" stroke="#EAEAEA" stroke-miterlimit="10" width="499.5" height="499.5"/>
</g>
<rect id="position" x="0.5" y="0.5" display="none" fill="none" stroke="#000000" width="499" height="499"/>
<g>
	<path fill="#FFFFFF" d="M248.983,250.908"/>
	<path fill="#FFFFFF" d="M249.869,96.247c-84.878,0-153.936,69.041-153.936,153.9c0,84.864,69.054,153.909,153.936,153.909
		c84.858,0,153.892-69.045,153.892-153.909C403.76,165.282,334.727,96.247,249.869,96.247z M249.869,421.011
		c-94.227,0-170.892-76.648-170.9-170.872c0.008-94.201,76.673-170.848,170.9-170.87c94.203,0.019,170.841,76.669,170.841,170.87
		C420.709,344.362,344.071,421.011,249.869,421.011z M249.869,96.247c-84.878,0-153.936,69.041-153.936,153.9
		c0,84.864,69.054,153.909,153.936,153.909c84.858,0,153.892-69.045,153.892-153.909C403.76,165.282,334.727,96.247,249.869,96.247z
		"/>
	<path fill="#FFFFFF" d="M249.869,89.641c-88.653,0-160.542,71.856-160.542,160.506c0,88.635,71.889,160.516,160.542,160.516
		c88.619,0,160.499-71.881,160.499-160.516C410.367,161.497,338.487,89.641,249.869,89.641z"/>
	<path fill="#003FA4" d="M249.869,89.641c-88.653,0-160.542,71.856-160.542,160.506c0,88.635,71.889,160.516,160.542,160.516
		c88.619,0,160.499-71.881,160.499-160.516C410.367,161.497,338.487,89.641,249.869,89.641z"/>
	<path fill="#FFFFFF" d="M327.06,321.655c8.898,13.473,16.541,26.299,22.447,37.971c-26.286,23.957-64.527,39.404-101.946,38.465
		c-0.452-33.184,15.211-65.268,25.719-79.576c-1.676-1.207-2.675-2.227-4.225-4.111c-10.918,14.217-29.65,47.805-29.162,83.361
		c-44.124-2.932-82.923-25.15-108.069-58.365c13.059-4.24,26.124-9.369,39.076-15.279c-1.316-1.295-4.929-2.594-7.058-3.191
		c-11.836,5.154-23.772,9.611-35.687,13.297c-15.667-22.639-25.215-49.855-26.164-79.235c9.104,2.152,19.599,2.574,31.432,1.584
		v-6.484c-11.791,0.994-22.573,0.646-31.532-1.489c0.471-45.9,21.844-86.72,55.035-113.558
		c20.349,12.905,51.996,42.549,81.612,74.941c-1.421,1.801-3.38,3.403-3.968,4.104l6.101,3.238
		c29.691-24.461,54.019-62.928,58.744-106.627c25.673,9.12,48.052,25.105,64.979,45.771
		c-25.273,36.415-60.354,72.913-100.344,104.06c0.253,2.15,1.265,4.129,2.451,5.312c40.228-31.04,75.748-67.39,102.063-103.992
		c16.604,22.266,27.012,49.352,28.873,78.803c-37.01,3.776-62.209,16.125-80.732,27.986c0.253,1.299,3.021,3.492,4.679,3.734
		c17.633-11.16,41.559-22.528,76.283-26.086c0.031,1.262,0.147,2.562,0.147,3.855c0,40.651-16.389,77.506-42.881,104.249
		c-6.311-11.574-14.062-24.07-22.833-37.066l-4.949,4.668"/>
	<path fill="#FFFFFF" d="M243.5,206.303c-30.443-33.188-60.113-61.202-81.084-75.424c24.511-18.02,54.687-28.709,87.454-28.709
		c15.007,0,29.507,2.236,43.134,6.411C289.147,147.564,269.004,182.446,243.5,206.303z"/>
	<polygon fill="#003FA4" points="171.681,160.911 172.854,164.605 176.813,164.605 173.6,166.939 174.777,170.582 171.681,168.352 
		168.583,170.582 169.752,166.935 166.558,164.605 170.487,164.605 	"/>
	<polygon fill="#003FA4" points="194.92,174.425 196.085,178.129 200.047,178.129 196.838,180.452 198.013,184.102 194.92,181.844 
		191.822,184.102 193,180.452 189.771,178.129 193.721,178.129 	"/>
	<polygon fill="#003FA4" points="184.959,163.992 186.114,167.678 190.096,167.678 186.877,170.021 188.037,173.669 
		184.964,171.405 181.877,173.669 183.023,170.021 179.827,167.678 183.778,167.678 	"/>
	<polygon fill="#003FA4" points="198.688,187.227 199.876,190.92 203.826,190.92 200.636,193.25 201.792,196.901 198.711,194.667 
		195.619,196.901 196.792,193.25 193.579,190.92 197.509,190.92 	"/>
	<polygon fill="#003FA4" points="197.04,200.733 198.237,204.422 202.167,204.422 198.959,206.792 200.146,210.434 197.043,208.168 
		193.978,210.434 195.124,206.766 191.921,204.422 195.857,204.422 	"/>
	<polygon fill="#003FA4" points="189.576,211.53 190.741,215.211 194.702,215.211 191.512,217.563 192.661,221.209 189.592,218.963 
		186.496,221.209 187.656,217.563 184.437,215.211 188.393,215.211 	"/>
	<polygon fill="#003FA4" points="177.842,217.563 179.038,221.264 182.969,221.264 179.771,223.616 180.936,227.264 177.861,225.01 
		174.755,227.264 175.908,223.592 172.704,221.264 176.654,221.264 	"/>
	<polygon fill="#003FA4" points="148.048,173.237 146.859,176.928 142.938,176.928 146.125,179.266 144.951,182.92 148.034,180.668 
		151.149,182.92 149.957,179.266 153.197,176.928 149.232,176.928 	"/>
	<polygon fill="#003FA4" points="157.756,163.992 156.58,167.678 152.66,167.678 155.851,170.021 154.679,173.669 157.756,171.405 
		160.857,173.669 159.687,170.021 162.896,167.678 158.952,167.678 	"/>
	<polygon fill="#003FA4" points="143.531,185.553 142.372,189.245 138.403,189.245 141.622,191.594 140.439,195.249 143.52,193 
		146.627,195.249 145.472,191.594 148.68,189.245 144.727,189.245 	"/>
	<polygon fill="#003FA4" points="144.727,199.075 143.542,202.778 139.603,202.778 142.801,205.118 141.632,208.768 144.708,206.52 
		147.827,208.768 146.64,205.107 149.844,202.778 145.903,202.778 	"/>
	<polygon fill="#003FA4" points="152.194,210.11 151.009,213.805 147.069,213.805 150.292,216.161 149.102,219.784 152.177,217.518 
		155.298,219.784 154.131,216.129 157.332,213.805 153.382,213.805 	"/>
	<polygon fill="#003FA4" points="163.938,217.108 162.752,220.811 158.799,220.811 162.01,223.133 160.844,226.792 163.927,224.54 
		167.035,226.792 165.85,223.106 169.064,220.811 165.111,220.811 	"/>
	<path fill="#003FA4" d="M201.812,308.517c-7.427,4.109-14.175,7.66-21.696,11.293c-0.371-1.527-0.844-4.199-0.844-5.967
		c6.745-3.289,13.464-6.758,20.121-10.461C200.214,305.171,200.979,306.847,201.812,308.517z"/>
	<path fill="#003FA4" d="M327.583,316.288h-21.737v-5.467l3.916-0.592v-17.002c0-6.102-0.81-9-5.1-9v-4.807l15.417-4.494
		c1.748,3.422,2.312,7.346,2.549,11.244h0.167c1.534-4.643,3.469-11.123,8.504-11.123c4.405,0,6.369,3.402,6.369,7.553
		c0,4.213-1.839,7.664-5.068,7.664c-2.211,0-4.106-0.928-5.166-1.293c-2.822-0.945-3.735,11.312-3.735,13.869v7.375l3.897,0.6v5.465
		h-0.013V316.288z"/>
	<path fill="#003FA4" d="M364.09,282.853c0,3.367-2.892,5.064-5.97,5.064c-3.742,0-6.397-3.047-7.053-6.686
		c-1.604,0-2.734,0.832-2.734,3.537c0,6.279,17.775,1.799,17.775,17.762c0,11.938-8.635,14.9-16.918,14.9
		c-5.059,0-13.896-0.645-13.896-8.359c0-3.48,1.94-6.146,5.413-6.146c5.409,0,6.315,4.961,7.227,8.461
		c0.277,0.914,1.076,1.084,1.826,1.084c2.844,0,4.898-1.195,4.898-3.068c0-7.168-18.244-4.393-18.244-19.902
		c0-9.893,11.667-14.342,17.276-14.342C360.082,275.147,364.09,277.284,364.09,282.853z"/>
	<path fill="#003FA4" d="M242.538,256.656c-6.916,0-14.013,2.763-17.737,8.575h-0.148l0.704-10.03
		c0.407-6.791,1.938-25.256,11.368-25.256c4.514,0,3.497,6.013,4.014,8.745c1.231,6.378,4.035,13.695,12.773,13.695
		c5.938,0,12.191-3.942,12.191-12.014c0-12.432-10.404-20.596-23.018-20.596c-32.431,0-45.43,24.729-45.43,54.691
		c0,26,10.111,48.465,37.936,48.465c18.081,0,32.727-12.865,32.727-34.486C267.928,270.22,258.268,256.656,242.538,256.656z
		 M232.938,312.771c-7.743,0-7.417-9.902-7.417-21.35c0-11.443,1.085-21.346,7.417-21.346c7.775,0,8.174,9.9,8.174,21.346
		C241.108,302.868,239.519,312.771,232.938,312.771z"/>
	<path fill="#D90036" d="M135.506,219.247v38.594c21.625,3.205,47.434,1.074,65.671-25.611c0.764-1.129,1.21-0.322,0.718,0.664
		c-5.103,10.354-17.156,19.956-27.572,28.148c-10.011,7.861-36.873,36.043-36.513,60.822c0.019,1.898,0.08,1.381,1.764,0.129
		c8.131-6.045,24.121-6.24,33.919-1.537c1.352,0.625,1.472,0.441,1.31-1.311c-1.87-19.215,2.44-40.227,10.686-52.391
		c5.67-8.447,20.937-30.185,23.568-47.218c0.285-1.752-0.632-1.491-2.834,0.849c-17.309,18.27-48.588,17.824-68.771-1.56
		C136.182,217.614,135.62,218.163,135.506,219.247z"/>
	<path fill="#003FA4" d="M293.787,308.327c-4.807,0-7.633-4.377-8.113-8.795l20.587-5.576c-0.582-10.027-6.4-18.912-17.357-18.912
		c-11.633,0-19.344,9.041-19.344,22.422c0,10.428,5.981,19.961,18.606,19.961c7.209,0,14.188-3.4,17.917-9.77l-4.061-4.816
		C300.045,305.923,297.715,308.327,293.787,308.327z M284.68,289.337c0-3.117,0-8.812,3.391-8.812c3.154,0,3.914,4.809,3.914,7.465
		c0,3.146-1.502,3.914-3.68,4.484l-3.625,0.986V289.337z"/>
</g>
</svg>
