<?xml version="1.0" encoding="utf-8"?>
<!-- Generator: Adobe Illustrator 16.0.0, SVG Export Plug-In . SVG Version: 6.00 Build 0)  -->
<!DOCTYPE svg PUBLIC "-//W3C//DTD SVG 1.1//EN" "http://www.w3.org/Graphics/SVG/1.1/DTD/svg11.dtd">
<svg version="1.1" id="content" xmlns="http://www.w3.org/2000/svg" xmlns:xlink="http://www.w3.org/1999/xlink" x="0px" y="0px"
	 width="500px" height="500px" viewBox="0 0 500 500" enable-background="new 0 0 500 500" xml:space="preserve">
<g id="bounds">
	<rect x="0.25" y="0.25" fill="none" stroke="#EAEAEA" stroke-miterlimit="10" width="499.5" height="499.5"/>
</g>
<rect id="position" x="0.5" y="0.5" display="none" fill="none" stroke="#000000" width="499" height="499"/>
<g>
	<path fill="#C5CED3" d="M408.348,230.696c1.101-3.771,2.8-9.632,2.8-9.632l-12.689-5.142c-0.541-0.229-1.101-0.443-1.651-0.663
		l2.206-6.423l-12.045-3.894c0.951-3.198,1.506-5.09,1.515-5.158l1.42-4.815l-4.748-1.604
		c-44.877-15.224-86.553-22.015-135.163-22.015c-48.594,0-90.269,6.791-135.148,22.015l-4.747,1.604l1.41,4.815
		c0.021,0.064,0.574,1.96,1.523,5.158l-12.045,3.894l2.208,6.423c-0.55,0.224-1.105,0.431-1.653,0.663l-12.693,5.142
		c0,0,1.71,5.861,2.812,9.632c-3.578,1.291-11.043,3.979-11.043,3.979l27.244,83.044c0,0,7.25-2.613,11.269-4.057
		c1.641,4.309,3.635,9.547,3.635,9.547l14.4-5.938c0.461-0.189,0.916-0.361,1.377-0.551l1.492,4.69l5.274-2.334
		c4.316-1.853,17.533-7.231,35.55-11.979c-6.398,9.532-13.191,19.661-13.191,19.661s37.509-12.262,41.211-13.473
		c1.334,3.217,16.358,39.364,16.358,39.364s10.88-37.362,11.895-40.848c3.024,0.779,47.001,12.084,47.001,12.084
		s-12.474-14.412-21.649-25.002c42.41,0.35,80.744,15.275,92.221,20.199l5.294,2.271l1.471-4.631
		c0.459,0.188,0.916,0.36,1.375,0.549l14.401,5.938c0,0,1.986-5.238,3.63-9.548c4.016,1.44,11.266,4.06,11.266,4.06l27.248-83.048
		C419.395,234.674,411.926,231.986,408.348,230.696z"/>
	<path fill="#071921" d="M401.578,234.142c0.112-0.369,2.869-9.83,2.869-9.83l-8.062-3.265c-2.062-0.839-4.149-1.651-6.244-2.456
		l2.207-6.407l-11.839-3.818c1.851-6.192,2.983-10.032,2.983-10.032c-41.357-14.03-82.19-21.736-133.491-21.736
		c-51.294,0-92.104,7.706-133.466,21.736c0,0,1.126,3.847,2.976,10.032l-11.835,3.818l2.204,6.407
		c-2.097,0.804-4.179,1.616-6.247,2.456l-8.062,3.265c0,0,2.759,9.462,2.866,9.83c-0.653,0.235-10.876,3.917-10.876,3.917
		l23.796,72.525c0,0,10.563-3.807,11.022-3.963l3.546,9.309l9.144-3.775c2.231-0.92,4.448-1.803,6.66-2.67
		c0.811,2.56,1.351,4.244,1.531,4.781c5.204-2.229,23.747-9.82,48.332-15.147c-5.633,8.391-13,19.37-13,19.37
		s32.329-10.569,32.834-10.735c0.247,0.595,13.078,31.483,13.078,31.483s9.374-32.186,9.562-32.836
		c0.809,0.207,37.354,9.61,37.354,9.61s-12.002-13.872-19.186-22.166c49.731-2.415,95.735,16.653,104.525,20.421
		c0.182-0.537,0.716-2.223,1.528-4.781c2.211,0.867,4.432,1.75,6.658,2.67l9.14,3.775l3.548-9.312
		c0.459,0.161,11.018,3.966,11.018,3.966l23.804-72.521C412.463,238.059,402.237,234.377,401.578,234.142z"/>
	<path fill="#FFFFFF" d="M106.697,228.618L106.697,228.618c0,0-0.61,0.247-1.224,0.496c0.574,1.974,2.953,10.113,2.953,10.113
		s-8.556,3.079-10.634,3.832c0.842,2.566,17.811,54.277,18.698,57c2.17-0.776,10.657-3.83,10.657-3.83s2.64,6.928,3.416,8.951
		c0.691-0.287,1.383-0.576,1.383-0.576c40.454-16.684,77.972-24.451,118.06-24.451s77.602,7.769,118.06,24.451
		c0,0,0.696,0.289,1.385,0.576c0.781-2.033,3.424-8.951,3.424-8.951s8.483,3.062,10.658,3.83c0.891-2.713,17.857-54.433,18.702-57
		c-2.083-0.753-10.639-3.832-10.639-3.832s2.377-8.138,2.953-10.113c-0.602-0.239-1.222-0.496-1.222-0.496
		c-44.164-17.903-94.991-27.76-143.127-27.76C201.816,200.858,150.853,210.714,106.697,228.618z"/>
	<path fill="#C5CED3" d="M380.745,294.365c-3.048-1.096-10.462-3.766-10.462-3.766s-2.359,6.192-3.361,8.832
		c-39.925-16.117-77.172-23.703-116.916-23.703c-39.74,0-76.986,7.578-116.914,23.703c-1-2.63-3.359-8.832-3.359-8.832
		s-7.414,2.67-10.463,3.766c-1.605-4.896-14.425-43.967-15.948-48.61c2.997-1.082,10.501-3.78,10.501-3.78
		s-2.146-7.361-2.984-10.239c43.066-17.065,92.43-26.466,139.354-26.466c46.691,0,95.922,9.405,138.986,26.466
		c-0.838,2.882-2.983,10.239-2.983,10.239s7.503,2.699,10.506,3.78C395.172,250.398,382.35,289.469,380.745,294.365z"/>
	<path fill="#FFFFFF" d="M323.742,267.717l6.721-37.962c0-0.005,0.129-1.31,0.129-1.31c0.021-1.749-0.508-3.438-1.54-4.878
		c-1.29-1.81-3.189-3.012-5.38-3.379l-42.677-7.229l-2.981,17.536c0,0-5.688,33.59-5.975,35.272
		c2.393,0.412,17.066,2.89,19.455,3.295c0.414-2.465,3.004-17.508,3.004-17.508l12.054,2.039l-0.251,1.487
		c0,0-1.656,10.06-1.736,10.712c-0.304,2.361,0.176,3.049,0.869,4.062c0.704,1.037,1.907,1.75,3.379,2.147
		c-0.17-0.037,20.161,4.916,20.161,4.916L323.742,267.717z"/>
	<path fill="#FFFFFF" d="M175.858,266.76l-11.412-35.126c-1.419-4.355-6.114-6.751-10.469-5.336l0.01-0.004l-32.037,10.41
		c-2.107,0.688-3.826,2.155-4.836,4.133c-0.604,1.184-0.909,2.45-0.909,3.761c0,0.87,0.138,1.736,0.413,2.581l11.412,35.123
		c1.419,4.361,6.11,6.753,10.469,5.341c0,0-0.104,0.047-0.162,0.062c0.271-0.103,2.648-0.875,32.188-10.474
		c3.433-1.117,5.742-4.295,5.742-7.905C176.267,268.455,176.128,267.592,175.858,266.76z M137.191,252.438l-0.849-2.584
		l14.108-4.639l0.847,2.586L137.191,252.438z M142.61,268.746l-0.852-2.584l14.109-4.631l0.85,2.588L142.61,268.746z"/>
	<path fill="#FFFFFF" d="M222.867,239.782c0.004,0.027-3.619-18.829-3.619-18.829c-0.414-2.181-1.65-4.069-3.486-5.312
		c-1.832-1.249-4.044-1.71-6.226-1.299c0,0-39.784,7.551-42.529,8.068c0.376,1.977,8.071,42.578,8.071,42.578l1.091,5.732
		l0.816,4.297c0,0,17.003-3.228,19.391-3.679c-0.466-2.46-3.312-17.462-3.312-17.462l23.189-4.396
		c2.181-0.413,4.073-1.656,5.319-3.487c0.997-1.463,1.496-3.161,1.445-4.907L222.867,239.782z M187.794,238.14l-0.511-2.676
		l15.531-2.982l0.514,2.677L187.794,238.14z"/>
	<path fill="#FFFFFF" d="M210.657,258.926c0.062,1.355,1.17,16.422,1.17,16.422s-18.125,0.756-20.533,0.861
		c1.968,1.387,16.582,11.675,16.582,11.675s-10.195,15.188-11.524,17.177c2.257-0.744,19.194-6.281,19.194-6.281
		s6.855,16.488,7.749,18.649c0.649-2.247,5.767-19.796,5.767-19.796s19.121,4.916,21.657,5.568
		c-1.704-1.973-14.102-16.288-14.102-16.288s15.041-12.821,16.803-14.274c-2.086-0.018-11.617-0.154-11.617-0.154l2.449-2.678
		h15.884l18.782-33.287v-23.871h-16.52l-7.193,12.754c0,0-0.792,6.415-0.965,7.786c-0.688,1.205-6.277,11.177-8.104,14.431
		c-0.854,0-1.367,0-2.644,0c2.779-4.91,6.411-11.338,6.411-11.338v-23.633h-17.009l-6.933,12.72c0,0-0.727,6.442-0.886,7.841
		C224.376,234.476,210.657,258.926,210.657,258.926z"/>
	<polygon fill="#071921" points="264.982,217.08 259.496,226.817 258.536,234.599 248.738,252.055 235.907,252.055 245.487,235.117 
		245.487,217.08 235.537,217.08 230.279,226.727 229.389,234.599 215.417,259.493 217.756,265.357 226.456,265.357 222.495,275.389 
		215.083,267.371 215.955,279.139 203.111,279.672 213.328,286.867 206.052,297.707 217.795,293.867 222.633,305.502 
		226.326,292.823 239.422,296.193 230.966,286.426 241.372,277.832 230.631,278.496 242.254,265.357 257.548,265.357 
		274.49,235.344 274.49,217.08 	"/>
	<path fill="#FFFFFF" d="M382.745,240.646c-1.011-1.979-2.727-3.448-4.837-4.132l-32.022-10.405c-2.109-0.689-4.364-0.509-6.343,0.5
		c-1.978,1.006-3.443,2.727-4.127,4.836l-11.423,35.125c-0.271,0.846-0.415,1.712-0.415,2.576c0,1.295,0.313,2.576,0.907,3.762
		c1.011,1.979,2.726,3.445,4.837,4.133l32.021,10.404c2.11,0.688,4.364,0.51,6.343-0.5c1.978-1.004,3.443-2.723,4.132-4.836
		l11.422-35.122c0.274-0.849,0.414-1.716,0.414-2.581C383.657,243.114,383.352,241.829,382.745,240.646z M358.051,268.398
		l-14.104-4.637l0.858-2.588l14.099,4.639L358.051,268.398z M363.478,252.091l-14.112-4.638l0.852-2.589l14.108,4.641
		L363.478,252.091z"/>
	<polygon fill="#C5CED3" stroke="#071921" stroke-width="0.6583" stroke-miterlimit="3.8637" points="266.324,219.692 
		262.926,225.764 267.566,225.764 270.796,219.692 	"/>
	<polygon fill="#C5CED3" stroke="#071921" stroke-width="0.6583" stroke-miterlimit="3.8637" points="241.935,219.692 
		237.119,219.699 233.757,225.772 238.754,225.761 	"/>
	<path fill="#C5CED3" stroke="#071921" stroke-width="0.6583" stroke-miterlimit="3.8637" d="M250.52,254.411h-24.374l10.157-17.884
		h-4.775l-12.261,21.644h13.597l-9.946,22.702l-4.489-4.844l0.451,6.111l-6.677,0.278l5.314,3.741l-3.785,5.64l6.109-1.993
		l2.516,6.053l1.919-6.594l6.811,1.754l-4.399-5.082l5.414-4.472l-7.593,0.474h-0.525l15.725-23.758h13.622l12.052-21.638h-4.703
		L250.52,254.411z M221.489,287.322c-0.924,0-1.672-0.748-1.672-1.672c0-0.926,0.748-1.674,1.672-1.674
		c0.92,0,1.675,0.748,1.675,1.674C223.164,286.574,222.412,287.322,221.489,287.322z"/>
	<polygon fill="#C5CED3" stroke="#071921" stroke-width="0.6583" stroke-miterlimit="3.8637" points="237.492,228.21 
		233.129,228.21 232.566,233.41 237.072,233.422 	"/>
	<polygon fill="#C5CED3" stroke="#071921" stroke-width="0.6583" stroke-miterlimit="3.8637" points="261.646,233.41 
		266.146,233.422 266.568,228.21 262.209,228.21 	"/>
	<path fill="#FFFFFF" d="M134.983,209.192c0.602,2.25,1.909,2.486,4.803,1.709l3.853-1.035c4.225-1.139,5.046-1.845,4.3-4.638
		c-0.811-3.02-2.036-3.016-6.973-1.675c-3.406,0.927-3.799,0.998-4.042,0.097c-0.15-0.559,0.272-0.931,0.987-1.124l3.526-0.942
		c1.458-0.402,1.631-0.109,1.833,0.658l3.18-0.86l-0.089-0.323c-0.488-1.817-1.167-2.982-4.833-1.991l-4.439,1.189
		c-4.01,1.077-3.797,2.569-3.293,4.447c0.684,2.549,1.379,2.982,6.163,1.7c4.096-1.097,4.487-1.145,4.728-0.237
		c0.213,0.804-0.455,1.057-1.128,1.237l-3.897,1.043c-0.915,0.248-1.381,0.282-1.69-0.819l-3.183,0.855L134.983,209.192z"/>
	<path fill="#FFFFFF" d="M157.777,206.073l3.594-0.766l0.551-2.058l6.527-1.385l1.394,1.635l3.584-0.764l-8.005-9.271l-4.193,0.88
		L157.777,206.073 M163.84,196.356l2.926,3.501l-4.122,0.872L163.84,196.356z"/>
	<polygon fill="#FFFFFF" points="182.768,201.1 186.019,200.587 184.799,192.882 184.828,192.878 192.159,199.614 197.197,198.815 
		195.512,188.213 192.263,188.729 193.483,196.433 193.454,196.434 186.126,189.701 181.091,190.496 	"/>
	<path fill="#FFFFFF" d="M217.035,196.866l3.672-0.192l0.864-1.947l6.663-0.347l1.125,1.84l3.659-0.194l-6.456-10.412l-4.28,0.227
		L217.035,196.866 M224.542,188.217l2.343,3.906l-4.206,0.23L224.542,188.217z"/>
	<polygon fill="#FFFFFF" points="242.49,195.729 245.78,195.729 245.78,187.924 245.81,187.924 251.992,195.729 257.093,195.729 
		257.093,184.992 253.803,184.992 253.803,192.792 253.771,192.792 247.587,184.992 242.49,184.992 	"/>
	<polygon fill="#FFFFFF" points="267.262,187.847 271.88,188.09 271.462,196.146 274.747,196.318 275.17,188.262 279.792,188.505 
		279.93,185.839 267.398,185.181 	"/>
	<path fill="#FFFFFF" d="M289.243,193.598c-0.322,3.128,1.346,4.044,4.294,4.357l5.252,0.554c2.949,0.309,4.781-0.242,5.107-3.37
		l0.336-3.186c0.326-3.124-1.346-4.048-4.297-4.356l-5.25-0.547c-2.949-0.313-4.78,0.237-5.107,3.363L289.243,193.598
		 M292.834,191.786c0.137-1.329,0.545-2.107,2.273-1.927l3.832,0.412c1.729,0.182,1.965,1.027,1.826,2.349l-0.121,1.148
		c-0.162,1.55-0.549,2.103-2.097,1.944l-4.188-0.443c-1.549-0.164-1.812-0.778-1.646-2.338L292.834,191.786z"/>
	<polygon fill="#FFFFFF" points="313.748,200.351 316.99,200.921 318.346,193.243 318.375,193.249 323.108,202.002 328.132,202.888 
		329.998,192.313 326.755,191.743 325.401,199.427 325.371,199.418 320.633,190.663 315.613,189.777 	"/>
	
		<rect x="339.686" y="194.723" transform="matrix(0.9782 0.2077 -0.2077 0.9782 49.0151 -66.5444)" fill="#FFFFFF" width="3.291" height="10.74"/>
	<path fill="#FFFFFF" d="M352.95,204.535c-0.812,3.036,0.701,4.211,3.564,4.975l5.101,1.369c2.863,0.773,4.751,0.504,5.563-2.522
		l0.83-3.09c0.812-3.04-0.688-4.21-3.564-4.983l-5.092-1.367c-2.862-0.766-4.76-0.503-5.572,2.528L352.95,204.535 M356.782,203.303
		c0.343-1.29,0.871-1.992,2.546-1.543l3.715,1c1.678,0.447,1.788,1.319,1.428,2.61l-0.301,1.124c-0.4,1.502-0.869,1.985-2.374,1.589
		l-4.066-1.093c-1.507-0.402-1.671-1.053-1.266-2.558L356.782,203.303z"/>
	<path fill="#071921" d="M143.909,262.691l-12.225,3.981c-2.047,0.666-4.248-0.456-4.913-2.511l-0.48-1.482l-5.479-16.865
		c-0.666-2.049,0.454-4.253,2.505-4.907l32.022-10.41c2.048-0.668,4.248,0.456,4.913,2.509l3.072,9.453l-10.315,3.35l-0.812-2.506
		c-0.267-0.817-1.148-1.265-1.967-1.002l-15.823,5.141c-0.82,0.269-1.269,1.146-1.002,1.972l1.418,4.356
		c0.267,0.816,1.146,1.266,1.963,1l3.708-1.203l20.206-6.564c2.049-0.667,4.247,0.456,4.913,2.502l0.6,1.862l5.455,16.776
		c0.665,2.047-0.457,4.244-2.503,4.908l-32.026,10.406c-2.048,0.669-4.245-0.447-4.91-2.505l-3.194-9.824l10.336-3.356l0.911,2.799
		c0.267,0.82,1.145,1.268,1.963,1.002l15.822-5.141c0.82-0.271,1.266-1.146,1-1.974l-1.43-4.397
		c-0.264-0.818-1.195-1.424-2.012-1.15L143.909,262.691z M360.084,263.848c0.818,0.264,1.217,1.295,0.95,2.119l-1.431,4.396
		c-0.265,0.822-1.146,1.27-1.966,1.002l-15.819-5.143c-0.821-0.266-1.27-1.145-0.998-1.962l0.903-2.799l-10.338-3.354l-3.19,9.826
		c-0.665,2.053,0.456,4.252,2.502,4.907l32.026,10.408c2.048,0.67,4.243-0.457,4.91-2.503l5.453-16.778l0.603-1.852
		c0.667-2.054-0.455-4.25-2.502-4.912l-20.211-6.56l-3.711-1.206c-0.82-0.268-1.269-1.146-1.002-1.972l1.424-4.356
		c0.268-0.82,1.144-1.259,1.965-1.001l15.819,5.138c0.821,0.267,1.27,1.148,1.002,1.975l-0.878,2.48l10.391,3.372l3.067-9.452
		c0.677-2.058-0.445-4.258-2.502-4.911l-32.022-10.41c-2.058-0.668-4.254,0.457-4.908,2.503l-5.477,16.869l-0.484,1.487
		c-0.676,2.049,0.453,4.247,2.506,4.911l12.221,3.974L360.084,263.848z M326.111,229.032c0.355-2.125-1.07-4.136-3.195-4.493
		l-38.326-6.491l-7.475,44.103l10.77,1.822l3.01-17.509l13.881,2.342l5.338,0.902c0.848,0.137,1.422,0.953,1.274,1.787
		l-2.277,13.188c-0.468,2.785,1.134,2.957,1.827,3.096c0.781,0.154,9.228,1.644,9.228,1.644c-0.255-0.271-0.777-1.222-0.354-3.126
		l2.662-15.49c0.23-1.53-0.506-2.856-1.787-3.464c1.808-0.193,2.638-1.604,2.894-3.075l0.228-1.337L326.111,229.032z
		 M186.105,240.909l19.199-3.645c0.842-0.16,1.401-0.974,1.239-1.82l-0.893-4.456c-0.161-0.856-0.979-1.41-1.824-1.239l-19.149,3.63
		L186.105,240.909 M191.217,267.84l-10.723,2.033l-8.332-43.95l38.198-7.245c2.117-0.412,4.155,0.988,4.554,3.104l3.616,18.821
		c0.402,2.119-0.988,4.161-3.105,4.557l-27.522,5.226L191.217,267.84z"/>
	<path fill="#FFFFFF" d="M292.497,236.948l19.214,3.255c0.85,0.139,1.655-0.429,1.8-1.277l0.716-4.494
		c0.136-0.853-0.428-1.654-1.278-1.792l-19.212-3.255L292.497,236.948"/>
	
		<rect x="295.081" y="233.746" transform="matrix(0.9863 0.1648 -0.1648 0.9863 42.8884 -46.7174)" fill="#C5CED3" width="15.81" height="2.723"/>
</g>
</svg>
