<?xml version="1.0" encoding="utf-8"?>
<!-- Generator: Adobe Illustrator 18.0.0, SVG Export Plug-In . SVG Version: 6.00 Build 0)  -->
<!DOCTYPE svg PUBLIC "-//W3C//DTD SVG 1.1//EN" "http://www.w3.org/Graphics/SVG/1.1/DTD/svg11.dtd">
<svg version="1.1" id="content" xmlns="http://www.w3.org/2000/svg" xmlns:xlink="http://www.w3.org/1999/xlink" x="0px" y="0px"
	 width="500px" height="500px" viewBox="0 0 500 500" enable-background="new 0 0 500 500" xml:space="preserve">
<rect id="position" x="0.5" y="0.5" display="none" fill="none" stroke="#000000" width="499" height="499"/>
<g>
	<path fill="#BEC4D7" d="M299.3,175.4c0,0.4,0.1,0.9,0.1,1.3c0,0.4,0,0.9,0,1.3c0,13.5-33.5,22.4-33.5,30.2S250.4,227,250.4,227
		s-15.5-10.8-15.5-18.7c0-8-33.5-16.7-33.5-30.2c0-0.4,0-0.9,0-1.3c0-0.4,0.1-0.9,0.1-1.3h-30.2l-54.8,0.1v304.8h265.8V175.5
		l-53.4-0.1H299.3z"/>
	<g>
		<path fill="#CCCCCC" d="M251.6,234.5c0,0-1.4-14.7-8-24.4c-6.5-9.7-21,0.7-21,0.7L251.6,234.5z"/>
		<path fill="#CCCCCC" d="M248.4,234.5c0,0,1.4-14.7,8-24.4c6.5-9.7,21,0.7,21,0.7L248.4,234.5z"/>
		<path fill="#9EA7C4" d="M250,226.5c0,0-28-21.2-36.5-40.8c-1.5-3.5-9.7,0-9.7-3.3l-8.3-7.1c0,13.3,7.8,27.8,23.9,44.4
			c10.5,10.8,20.8,18.7,21.3,19.1l9.4,7.1l9.4-7.1c0.4-0.3,10.8-8.2,21.3-19.1c16.1-16.6,23.9-31.2,23.9-44.4l-11.6,6.1
			c0,2.6-4.6-0.7-5.6,2.1C280,203.7,250,226.5,250,226.5z"/>
		<g>
			<path opacity="0.1" fill="#231F20" d="M189.3,178.1c0,0,5.2,28.7,27.8,57.8c11.2-17.8,26.5-25.8,26.5-25.8l-22.1-31.9H189.3z"/>
			<path opacity="0.1" fill="#231F20" d="M310.7,178.1c0,0-5.2,28.7-27.8,57.8c-11.2-17.8-26.5-25.8-26.5-25.8l22.1-31.9H310.7z"/>
			<path fill="#E8E8E8" d="M187.9,175.4c0,0,3.1,26.8,25.6,55.8c11.2-17.8,30.1-21.2,30.1-21.2l-23.4-34.7H187.9z"/>
			<path fill="#E8E8E8" d="M312.1,175.4c0,0-3.1,26.8-25.6,55.8c-11.2-17.8-30.1-21.2-30.1-21.2l23.4-34.7H312.1z"/>
		</g>
	</g>
</g>
</svg>
