<?xml version="1.0" encoding="utf-8"?>
<!-- Generator: Adobe Illustrator 16.0.0, SVG Export Plug-In . SVG Version: 6.00 Build 0)  -->
<!DOCTYPE svg PUBLIC "-//W3C//DTD SVG 1.1//EN" "http://www.w3.org/Graphics/SVG/1.1/DTD/svg11.dtd">
<svg version="1.1" id="content" xmlns="http://www.w3.org/2000/svg" xmlns:xlink="http://www.w3.org/1999/xlink" x="0px" y="0px"
	 width="500px" height="500px" viewBox="0 0 500 500" enable-background="new 0 0 500 500" xml:space="preserve">
<g id="bounds">
	<rect x="-0.1" y="-0.487" fill="none" stroke="#EAEAEA" stroke-miterlimit="10" width="499.5" height="499.5"/>
</g>
<rect id="position" x="0.5" y="0.5" display="none" fill="none" stroke="#000000" width="499" height="499"/>
<g>
	<path fill="#647179" d="M83.764,424.479c-2.108,0-4.063-0.951-5.368-2.605c-1.299-1.676-1.753-3.815-1.241-5.861l76.86-306.54
		c4.025-16.122,15.958-35.355,49.974-35.426h211.54c2.101,0,4.053,0.946,5.352,2.586c1.308,1.652,1.77,3.768,1.282,5.811
		l-74.668,315.508c-3.442,14.881-18.085,26.526-33.337,26.526L83.764,424.479L83.764,424.479z"/>
	<path fill="#071921" d="M83.764,417.665h230.393c11.986,0,23.999-9.61,26.704-21.283l74.667-315.525H204.003
		c-19.614,0.044-37.442,6.47-43.378,30.27L83.764,417.665z"/>
	<path fill="#647179" d="M331.072,295.521H128.104l44.647-176.773c5.707-22.859,19.854-27.541,39.337-27.541h186.351
		l-42.685,184.646C353.245,286.694,342.176,295.521,331.072,295.521z M131.269,293.056h199.804c10.021,0,20.021-7.971,22.271-17.76
		l41.98-181.621H212.08c-22.261,0-32.271,6.954-36.944,25.673L131.269,293.056z"/>
	<g>
		<polygon fill="#FFFFFF" points="161.338,394.634 166.884,402.315 208.958,402.315 226.039,334.661 208.793,334.661 
			194.132,392.767 178.8,392.767 193.464,334.661 171.751,334.661 170.37,335.884 174.688,341.714 		"/>
	</g>
	<g>
		<polygon fill="#FFFFFF" points="162.612,358.374 166.733,342.061 161.188,334.366 126.667,334.366 117.238,342.061 
			111.493,364.833 140.639,377.079 136.683,392.767 121.43,392.767 123.287,385.409 108.056,378.417 103.96,394.634 
			109.511,402.315 144.032,402.315 153.46,394.634 159.211,371.86 130.054,359.604 134.014,343.917 149.269,343.917 
			147.374,351.435 		"/>
	</g>
	<g>
		<polygon fill="#FFFFFF" points="281.646,342.061 276.098,334.366 234.021,334.366 216.944,402.028 234.182,402.028 
			248.857,343.917 264.184,343.917 249.517,402.028 271.223,402.028 272.607,400.792 268.291,394.979 		"/>
	</g>
	<g>
		<polygon fill="#FFFFFF" points="334.984,358.374 339.098,342.061 333.552,334.366 299.029,334.366 289.604,342.061 
			283.85,364.833 313.009,377.079 309.041,392.767 293.797,392.767 295.648,385.409 280.42,378.417 276.332,394.634 
			281.883,402.315 316.402,402.315 325.824,394.634 331.575,371.86 302.427,359.604 306.392,343.917 321.639,343.917 
			319.738,351.435 		"/>
	</g>
	<polygon fill="#BDBFC1" points="108.056,378.417 114.299,387.858 112.932,393.267 116.071,397.514 140.431,397.514 
		145.353,393.699 153.46,394.634 144.032,402.315 109.511,402.315 103.96,394.634 	"/>
	<polygon fill="#BDBFC1" points="136.683,392.767 145.353,393.699 150.215,374.44 120.779,362.073 125.586,343.022 117.238,342.061 
		111.493,364.833 140.639,377.079 	"/>
	<polygon fill="#BDBFC1" points="154.562,339.144 130.664,339.144 125.586,343.022 134.014,343.917 149.269,343.917 
		147.374,351.435 156.444,348.632 157.751,343.472 	"/>
	<polygon fill="#BDBFC1" points="280.42,378.417 286.671,387.858 285.305,393.267 288.438,397.514 312.795,397.514 317.712,393.699 
		325.824,394.634 316.402,402.315 281.883,402.315 276.332,394.634 	"/>
	<polygon fill="#BDBFC1" points="309.041,392.767 317.712,393.699 322.579,374.44 293.141,362.073 297.953,343.022 289.604,342.061 
		283.85,364.833 313.009,377.079 	"/>
	<polygon fill="#BDBFC1" points="326.924,339.144 303.027,339.144 297.953,343.022 306.392,343.917 321.639,343.917 
		319.738,351.435 328.812,348.632 330.115,343.472 	"/>
	<polygon fill="#BDBFC1" points="170.37,335.884 183.87,339.171 170.214,393.267 173.397,397.552 201.462,397.552 208.958,402.315 
		166.884,402.315 161.338,394.634 174.688,341.714 	"/>
	<polygon fill="#BDBFC1" points="208.793,334.661 216.283,339.144 201.462,397.552 194.132,392.767 	"/>
	<g>
		<polygon fill="#BDBFC1" points="241.524,339.144 234.021,334.366 216.944,402.028 234.182,402.028 226.695,397.544 		"/>
	</g>
	<g>
		<polygon fill="#BDBFC1" points="259.111,397.519 272.771,343.423 269.587,339.144 241.524,339.144 248.857,343.917 
			264.184,343.917 249.517,402.028 271.223,402.028 272.607,400.792 		"/>
	</g>
	<g>
		<path fill="#FFFFFF" d="M126.442,305.885l-0.443,0.364l1.438,1.881l-4.351,17.795h6.008l0.443-0.366l-1.493-1.712l1.173-4.812
			l9.302-2.899l1.911-7.824l-1.856-2.431h-12.132V305.885z M134.593,314.015l-4.462,1.299l1.463-5.986l4.148-0.008L134.593,314.015z
			"/>
	</g>
	<g>
		<polygon fill="#FFFFFF" points="176.263,305.885 171.813,305.885 170.047,313.101 165.675,314.151 167.698,305.885 
			161.705,305.885 161.259,306.257 162.697,308.136 158.35,325.933 162.801,325.933 164.737,318.009 169.085,317.036 
			166.914,325.933 172.905,325.933 173.351,325.559 171.868,323.853 		"/>
	</g>
	<g>
		<path fill="#FFFFFF" d="M201.022,305.885l-3.041,2.409l-3.713,15.204l1.859,2.435h8.159l3.021-2.43l3.716-15.209l-1.848-2.409
			H201.022L201.022,305.885z M203.057,322.706h-4.148l3.29-13.484h4.143L203.057,322.706z"/>
	</g>
	<g>
		<polygon fill="#FFFFFF" points="280.27,308.294 278.398,305.885 267.637,305.885 262.742,325.933 267.191,325.933 
			271.271,309.221 275.598,309.221 271.509,325.933 277.503,325.933 277.948,325.559 276.467,323.853 		"/>
	</g>
	<g>
		<polygon fill="#FFFFFF" points="308.054,305.885 302.061,305.885 301.62,306.257 303.053,308.136 298.711,325.933 
			304.701,325.933 305.146,325.559 303.668,323.853 		"/>
	</g>
	<g>
		<polygon fill="#FFFFFF" points="340.271,323.956 337.886,316.124 345.812,305.885 341.528,305.885 336.921,312.079 
			335.343,305.885 329.354,305.885 328.903,306.249 331.346,308.044 333.604,316.196 326.073,325.933 330.404,325.933 
			334.793,320.046 336.309,325.933 342.302,325.933 342.75,325.559 		"/>
	</g>
	<g>
		<polygon fill="#FFFFFF" points="239.528,322.706 234.311,322.706 235.56,317.577 239.878,317.571 240.69,314.266 236.367,314.266 
			237.603,309.221 242.478,309.221 243.708,310.979 244.182,310.643 245.341,305.885 232.429,305.885 231.983,306.257 
			233.419,308.136 229.071,325.933 240.772,325.933 241.915,321.235 241.622,320.913 		"/>
	</g>
	<path fill="none" d="M296.314,245.433"/>
	<polygon fill="#F59E2F" points="136.644,289.802 250.826,227.269 173.397,289.802 267.355,235.808 265.803,246.697 
		281.473,237.988 316.867,271.45 335.704,214.853 362.949,213.105 349.092,178.769 373.764,159.457 341.854,147.032 
		349.938,112.699 322.778,125.132 308.787,95.598 287.037,117.323 247.895,99.76 242.508,134.713 207.623,142.277 228.268,154.707 
		207.5,165.13 225.14,166.662 152.563,223.107 225.563,184.333 147.251,243.949 230.616,200.498 141.571,267.442 239.711,215.145 	
		"/>
	<g>
		<path fill="#E15F2B" d="M345.592,179.27c-1.297,31.38-27.775,55.759-59.164,54.466c-31.371-1.291-55.759-27.783-54.452-59.158
			c1.291-31.378,27.784-55.765,59.152-54.469C322.502,121.408,346.879,147.896,345.592,179.27z"/>
		<path fill="#B65920" d="M295.738,225.982c-31.366-1.305-55.759-27.793-54.46-59.17c0.593-14.52,6.592-27.527,15.968-37.198
			c-14.587,9.743-24.497,26.075-25.271,44.964c-1.302,31.375,23.082,57.867,54.452,59.158c16.863,0.7,32.317-6.035,43.197-17.268
			C319.954,222.923,308.242,226.498,295.738,225.982z"/>
		<path fill="#071921" d="M345.616,177.587c0.03-2.031-0.065-4.049-0.238-6.033c-3.275-2.295-7.188-4.028-11.793-4.627
			c-0.892-0.109-1.726-0.162-2.576-0.227c-0.552-3.754-1.401-7.432-2.534-11.011c0.591,0.049,1.185,0.071,1.771,0.104
			c4.006,0.301,7.938,0.763,11.832,1.326c-0.55-1.455-1.151-2.863-1.8-4.257c-4.375-0.667-8.815-1.187-13.312-1.518
			c-0.014,0-0.029,0-0.052,0c-1.438-3.667-3.199-7.186-5.253-10.541c2.903-0.599,5.496-1.783,7.602-3.771
			c-1.068-1.085-2.188-2.138-3.354-3.136c-1.826,1.679-4.194,2.57-6.907,2.928c-0.415-0.58-0.828-1.17-1.263-1.731
			c-3.864-5.023-8.318-9.313-13.229-12.805c-4.275-1.23-8.758-1.991-13.406-2.177c-0.252-0.008-0.509-0.005-0.763-0.017
			c8.638,3.399,16.353,9.108,22.553,16.751c-5.92-0.569-12.741-2.56-19.484-4.536c-1.987-0.588-3.945-1.165-5.835-1.688
			c-11.489-3.174-20.321-3.683-26.95-3.109c-4.927,2.814-9.39,6.341-13.264,10.448c7.162-2.992,21.604-8.085,39.125-3.238
			c1.869,0.514,3.801,1.078,5.77,1.652c7.746,2.28,16.438,4.821,23.939,4.897c2.062,3.093,3.86,6.35,5.352,9.746
			c-1.472-0.074-2.939-0.112-4.402-0.142c-36.507-0.632-67.808,10.303-85.185,27.729c0.096,3.459,0.492,6.849,1.184,10.135
			c4.903-7.04,12.157-13.389,21.522-18.657c17.664-9.926,41.117-15.148,66.041-14.725c0.854,0.017,1.726,0.058,2.581,0.085
			c1.258,3.596,2.189,7.333,2.795,11.156c-16.051,0.678-26.452,10.692-38.394,21.356c-10.732,9.588-23.804,19.152-42.955,24.902
			c1.807,2.219,3.773,4.293,5.89,6.213c18.036-7.263,30.023-18.574,40.146-27.625c11.498-10.275,21.359-20.139,35.854-20.618
			c0.372,4.006,0.391,8.088,0.024,12.217c-1.955,22.269-14.855,41.162-32.455,50.469c4.51-0.422,8.867-1.371,13.017-2.803
			c1.414-1.181,2.786-2.394,4.115-3.697c11.521-11.355,18.694-26.842,20.166-43.551c0.362-4.194,0.36-8.342,0.026-12.434
			c0.726,0.071,1.441,0.14,2.178,0.258C338.63,172.097,342.554,174.589,345.616,177.587z"/>
	</g>
</g>
</svg>
