<?xml version="1.0" encoding="utf-8"?>
<!-- Generator: Adobe Illustrator 16.0.0, SVG Export Plug-In . SVG Version: 6.00 Build 0)  -->
<!DOCTYPE svg PUBLIC "-//W3C//DTD SVG 1.1//EN" "http://www.w3.org/Graphics/SVG/1.1/DTD/svg11.dtd">
<svg version="1.1" id="content" xmlns="http://www.w3.org/2000/svg" xmlns:xlink="http://www.w3.org/1999/xlink" x="0px" y="0px"
	 width="500px" height="500px" viewBox="0 0 500 500" enable-background="new 0 0 500 500" xml:space="preserve">
<rect id="position" x="0.5" y="0.5" display="none" fill="none" stroke="#000000" width="499" height="499"/>
<g>
	<path fill="#291F5E" d="M382.475,229.248c-43.13-0.404-56.031-30.487-59.516-53.759h-30.542
		c-5.651,14.103-42.391,37.943-42.391,37.943s-36.738-23.841-42.391-37.943h-30.542c-3.507,23.43-16.508,53.761-60.344,53.761
		c-0.046,0-0.088,0-0.133,0v240.83h133.41h132.448L382.475,229.248L382.475,229.248z"/>
	<path opacity="0.2" fill="#212121" enable-background="new    " d="M304.061,206.412c-1.539,0-2.791-1.252-2.791-2.792v-14.099
		c0-1.54,1.252-2.792,2.791-2.792h4.183c1.539,0,2.792,1.252,2.792,2.793v14.098c0,1.54-1.253,2.792-2.792,2.792H304.061z"/>
	<path fill="#FFFFFF" d="M304.188,204.513c-1.444,0-2.621-1.176-2.621-2.623v-13.239c0-1.446,1.177-2.623,2.621-2.623h3.929
		c1.444,0,2.621,1.176,2.621,2.623v13.239c0,1.446-1.177,2.623-2.621,2.623H304.188z"/>
	<path fill="#C00033" d="M306.151,203.213h1.964c0.729,0,1.32-0.592,1.32-1.323v-13.239c0-0.73-0.592-1.323-1.32-1.323h-1.964"/>
	<path fill="#006CB3" d="M308.332,203.213c0,0-0.036-0.939-0.431-3.272l-1.75-1.812v-10.8h-1.964c-0.729,0-1.321,0.592-1.321,1.323
		v13.239c0,0.731,0.592,1.323,1.321,1.323h1.964L308.332,203.213L308.332,203.213z"/>
	<path opacity="0.2" fill="#212121" enable-background="new    " d="M308.679,195.18c-0.05-0.058,0.049-0.09-0.289-0.167
		c-0.062-0.035-0.111-0.529-0.111-0.529c-0.051-0.317-0.163-0.536-0.332-0.872c-0.085-0.173-0.125-0.71-0.216-0.984
		c0.051-1.255-0.352-1.62-0.677-1.824c-0.123-0.079-0.185-0.137-0.307-0.208l-0.004-0.058c-0.095-0.09-0.286-0.187-0.443-0.257
		c-0.049-0.049-0.024-0.156,0.008-0.196c0.106-0.016,0.248-0.254,0.365-0.5c0.092,0.005,0.122-0.084,0.151-0.135
		c0.099-0.157,0.204-0.294,0.066-0.384c0.31-0.552,0.111-0.924-0.057-0.938c-0.067-0.139-0.185-0.225-0.392-0.298l-0.424-0.001
		c-0.438,0.168-0.501,0.36-0.518,0.969c-0.074,0.008-0.231-0.062-0.179,0.309c0,0,0.029,0.247,0.129,0.204
		c-0.096,0.652,0.017,0.703-0.661,0.732l-0.032,0.048c-0.675,0.065-0.888-0.02-1.456,1.138c0,0-0.147,0.358-0.19,0.507
		c-0.059,0.122-0.15,0.309-0.246,0.51v1.598c0.084,0.004,0.186,0.005,0.332,0.001v0.174c0,0-0.204,0.175-0.245,0.282
		c-0.021,0.048-0.056,0.188-0.087,0.344v0.883c0.142,0.506,0.504,0.968,0.634,1.498l0.351,0.049c0.2,0.45,1.062,1.672,1.237,1.833
		c0.041,0.113,0.26,0.253,0.388,0.393c0.105,0.1,0.729,0.782,1.459,1.201c-0.004,0,0.118,0.244,0.179,0.44
		c-0.243,0.195,0.225,0.552,0.368,1.142c0.01,0.077-0.136,0.159,0.08,0.352c-0.005,0.309-0.041,0.563-0.065,0.779h0.62h0.117
		c-0.046-0.228-0.139-0.452-0.188-0.624c-0.008-0.022,0.01-0.052,0.021-0.071c0.029-0.056-0.033-0.182-0.033-0.182
		c-0.069-0.063-0.09-0.398-0.129-0.548c-0.062-0.254,0.11-0.689,0.11-0.838c0-0.146-0.11-0.349-0.315-0.609
		c-0.049-0.056-0.195-1.323-0.327-1.644c-0.186-0.442-0.242-0.373-0.455-0.898c-0.171-0.373-0.039-0.92-0.419-2.192
		c0.004,0.005,0.086-0.08,0.086-0.08s-0.302-1.102-0.4-1.404c-0.1-0.301-0.271-0.323-0.271-0.323s0.001-0.123,0.008-0.155
		c0.016-0.049,0.368-0.969,0.397-0.998c0-0.022,0.51-0.366,0.52-0.317c0.042,0.226,0.24,1.37,0.323,1.553
		c0.087,0.185,0.38,0.746,0.519,1.094c-0.528,0.127-0.92,0.603-0.92,1.17c0,0.663,0.537,1.202,1.204,1.202
		c0.507,0,0.943-0.314,1.118-0.758l0.001-0.884c-0.038-0.097-0.089-0.192-0.155-0.282
		C308.926,195.244,308.731,195.248,308.679,195.18z"/>
	<path fill="#FFFFFF" d="M308.186,203.296c-0.237-0.14-0.225-0.344-0.167-0.816c0.024-0.201,0.054-0.436,0.059-0.71
		c-0.143-0.164-0.124-0.205-0.104-0.257l0.009-0.02l0.014-0.086c-0.065-0.271-0.19-0.488-0.29-0.662
		c-0.141-0.246-0.188-0.345-0.108-0.408c-0.019-0.233-0.098-0.407-0.135-0.489c-0.677-0.44-1.222-0.994-1.427-1.202
		c-0.117-0.122-0.183-0.178-0.244-0.231c-0.082-0.071-0.175-0.151-0.192-0.201c-0.181-0.177-1.043-1.395-1.24-1.839l-0.412-0.096
		c-0.004-0.226-0.143-0.491-0.276-0.748c-0.18-0.342-0.35-0.666-0.356-1.021c-0.006-0.228,0.107-0.748,0.149-0.847
		c0.023-0.062,0.146-0.185,0.224-0.251l0.028-0.235v-0.083l-0.286,0.006c-0.314,0-0.318-0.02-0.339-0.118
		c-0.01-0.048-0.022-0.114-0.058-0.191c-0.059-0.128-0.044-0.167-0.018-0.246c0.111-0.441,0.36-0.945,0.524-1.278l0.081-0.165
		c0.047-0.158,0.191-0.511,0.191-0.511c0.498-1.015,0.696-1.031,1.228-1.075l0.2-0.018l0.054-0.079c0.032,0,0.062,0,0.091,0
		c0.461,0,0.502-0.079,0.553-0.516l0.052-0.391l-0.132,0.057c0.013-0.011-0.01-0.081-0.018-0.141
		c-0.023-0.172,0.004-0.21,0.008-0.214l0.169-0.013l0.002-0.07c0.018-0.617,0.088-0.751,0.467-0.896l0.395,0.006
		c0.163,0.062,0.264,0.137,0.319,0.253c0.089,0.046,0.129,0.071,0.162,0.134c0.071,0.135,0.083,0.398-0.104,0.73l-0.037,0.065
		l0.062,0.041c0.047,0.031,0.044,0.063-0.065,0.234l-0.102,0.139c-0.288,0.481-0.384,0.5-0.385,0.5
		c-0.106,0.096-0.137,0.248-0.054,0.331c0.228,0.107,0.376,0.193,0.445,0.259c0.086,0.107,0.134,0.143,0.185,0.179l0.139,0.095
		c0.343,0.215,0.686,0.592,0.639,1.753c0.046,0.155,0.076,0.338,0.106,0.515c0.035,0.218,0.066,0.406,0.116,0.507
		c0.175,0.344,0.278,0.553,0.325,0.849c0.053,0.532,0.12,0.569,0.152,0.587c0.198,0.048,0.229,0.072,0.232,0.076
		c0.062,0.108,0.105,0.128,0.149,0.147c0.08,0.036,0.112,0.056,0.112,0.119c0.075,0.127,0.124,0.216,0.161,0.311l-0.008,0.855
		c-0.16,0.394-0.579,0.678-1.037,0.678c-0.62,0-1.124-0.503-1.124-1.122c0-0.522,0.353-0.971,0.857-1.093l0.09-0.021l-0.033-0.086
		c-0.102-0.253-0.283-0.619-0.409-0.873l-0.111-0.226c-0.067-0.148-0.229-1.054-0.292-1.395l-0.037-0.205l-0.074-0.005
		c-0.023,0-0.068,0-0.324,0.167c-0.268,0.174-0.268,0.195-0.268,0.236l0,0c-0.031,0-0.392,0.966-0.395,0.975
		c-0.01,0.042-0.012,0.177-0.012,0.177l-0.001,0.072l0.071,0.008c0.003,0,0.126,0.026,0.206,0.268c0.099,0.301,0.399,1.4,0.399,1.4
		h-0.107l0.022,0.082c0.218,0.729,0.266,1.217,0.3,1.573c0.025,0.267,0.045,0.46,0.123,0.629c0.112,0.282,0.185,0.396,0.254,0.507
		c0.058,0.094,0.115,0.187,0.199,0.389c0.073,0.18,0.157,0.705,0.22,1.088c0.075,0.472,0.091,0.542,0.121,0.578
		c0.196,0.249,0.297,0.437,0.297,0.557c0,0.042-0.021,0.13-0.044,0.223c-0.049,0.201-0.11,0.45-0.065,0.634
		c0.015,0.05,0.024,0.12,0.035,0.193c0.032,0.208,0.056,0.338,0.118,0.395c0.003,0.018,0.019,0.072,0.015,0.089l-0.017,0.031
		l-0.007,0.1c0.017,0.058,0.04,0.127,0.064,0.201c0.134,0.385,0.297,0.862-0.13,1.132L308.186,203.296z"/>
	<path fill="#F0713E" d="M242.384,205.759c-9.549-9.451-21.941-21.718-28.043-30.27h-8.928
		c8.873,15.063,43.161,36.942,44.614,37.943C247.894,211.221,245.65,208.991,242.384,205.759z"/>
	<path fill="#F0713E" d="M285.713,175.489c-6.102,8.551-18.495,20.818-28.044,30.27c-3.267,3.232-5.511,5.462-7.643,7.674
		c1.453-1.001,35.74-22.871,44.613-37.943L285.713,175.489L285.713,175.489z"/>
	<path fill="#1B143D" d="M201.528,338.424c-0.876,0-1.69-0.396-2.231-1.085c-0.544-0.7-0.731-1.587-0.518-2.44l22.943-91.501
		c1.269-5.086,5.021-11.158,15.691-11.18h63.147c0.871,0,1.683,0.392,2.224,1.076c0.543,0.686,0.737,1.567,0.532,2.418
		l-22.287,94.18c-1.106,4.779-5.819,8.532-10.729,8.533H201.528z"/>
	<path fill="#647179" d="M201.528,333.227c-0.876,0-1.69-0.396-2.231-1.084c-0.544-0.701-0.731-1.588-0.518-2.44l22.943-91.502
		c1.269-5.086,5.021-11.158,15.691-11.18h63.147c0.871,0,1.683,0.392,2.224,1.076c0.543,0.686,0.737,1.567,0.532,2.418
		l-22.287,94.179c-1.106,4.779-5.819,8.533-10.729,8.533H201.528z"/>
	<path fill="#071921" d="M201.528,330.393h68.773c3.578,0,7.164-2.869,7.971-6.354l22.289-94.185h-63.142
		c-5.855,0.013-11.176,1.931-12.948,9.035L201.528,330.393z"/>
	<path fill="#647179" d="M275.35,293.932h-60.587l13.327-52.768c1.703-6.823,5.926-8.221,11.742-8.221h55.626l-12.741,55.118
		C281.969,291.297,278.664,293.932,275.35,293.932z M215.708,293.195h59.642c2.991,0,5.975-2.379,6.648-5.301l12.531-54.214H239.83
		c-6.645,0-9.633,2.076-11.027,7.664L215.708,293.195z"/>
	<g>
		<polygon fill="#FFFFFF" points="224.683,323.518 226.339,325.811 238.898,325.811 243.997,305.615 238.85,305.615 234.472,322.96 
			229.896,322.96 234.274,305.615 227.792,305.615 227.38,305.98 228.669,307.721 		"/>
	</g>
	<g>
		<polygon fill="#FFFFFF" points="225.064,312.693 226.294,307.824 224.638,305.527 214.334,305.527 211.519,307.824 
			209.804,314.621 218.505,318.277 217.324,322.96 212.771,322.96 213.325,320.764 208.779,318.677 207.557,323.518 
			209.213,325.811 219.518,325.811 222.332,323.518 224.049,316.719 215.346,313.061 216.528,308.378 221.081,308.378 
			220.516,310.622 		"/>
	</g>
	<g>
		<polygon fill="#FFFFFF" points="260.596,307.824 258.939,305.527 246.38,305.527 241.282,325.725 246.428,325.725 
			250.809,308.378 255.384,308.378 251.005,325.725 257.484,325.725 257.898,325.355 256.609,323.62 		"/>
	</g>
	<g>
		<polygon fill="#FFFFFF" points="276.518,312.693 277.745,307.824 276.09,305.527 265.785,305.527 262.971,307.824 
			261.254,314.621 269.958,318.277 268.773,322.96 264.223,322.96 264.775,320.764 260.23,318.677 259.01,323.518 260.667,325.811 
			270.971,325.811 273.783,323.518 275.5,316.719 266.799,313.061 267.982,308.378 272.534,308.378 271.967,310.622 		"/>
	</g>
	<polygon fill="#BDBFC1" points="208.779,318.677 210.643,321.495 210.235,323.109 211.171,324.377 218.443,324.377 
		219.912,323.238 222.332,323.518 219.518,325.811 209.213,325.811 207.557,323.518 	"/>
	<polygon fill="#BDBFC1" points="217.324,322.96 219.912,323.238 221.364,317.489 212.577,313.798 214.012,308.111 211.519,307.824 
		209.804,314.621 218.505,318.277 	"/>
	<polygon fill="#BDBFC1" points="222.661,306.953 215.527,306.953 214.012,308.111 216.528,308.378 221.081,308.378 
		220.516,310.622 223.223,309.785 223.613,308.245 	"/>
	<polygon fill="#BDBFC1" points="260.23,318.677 262.096,321.495 261.688,323.109 262.623,324.377 269.895,324.377 271.361,323.238 
		273.783,323.518 270.971,325.811 260.667,325.811 259.01,323.518 	"/>
	<polygon fill="#BDBFC1" points="268.773,322.96 271.361,323.238 272.814,317.489 264.027,313.798 265.464,308.111 262.971,307.824 
		261.254,314.621 269.958,318.277 	"/>
	<polygon fill="#BDBFC1" points="274.111,306.953 266.979,306.953 265.464,308.111 267.982,308.378 272.534,308.378 
		271.967,310.622 274.676,309.785 275.064,308.245 	"/>
	<polygon fill="#BDBFC1" points="227.38,305.98 231.409,306.961 227.333,323.109 228.283,324.389 236.661,324.389 238.898,325.811 
		226.339,325.811 224.683,323.518 228.669,307.721 	"/>
	<polygon fill="#BDBFC1" points="238.85,305.615 241.085,306.953 236.661,324.389 234.472,322.96 	"/>
	<g>
		<polygon fill="#BDBFC1" points="248.619,306.953 246.38,305.527 241.282,325.725 246.428,325.725 244.194,324.386 		"/>
	</g>
	<g>
		<polygon fill="#BDBFC1" points="253.869,324.379 257.947,308.23 256.996,306.953 248.619,306.953 250.809,308.378 
			255.384,308.378 251.005,325.725 257.484,325.725 257.898,325.355 		"/>
	</g>
	<g>
		<path fill="#FFFFFF" d="M214.267,297.025l-0.132,0.11l0.429,0.562l-1.299,5.312h1.794l0.132-0.11l-0.446-0.512l0.35-1.436
			l2.777-0.865l0.571-2.336l-0.554-0.725H214.267L214.267,297.025z M216.7,299.452l-1.332,0.388l0.437-1.787l1.238-0.002
			L216.7,299.452z"/>
	</g>
	<g>
		<polygon fill="#FFFFFF" points="229.138,297.025 227.81,297.025 227.283,299.18 225.979,299.493 226.582,297.025 224.793,297.025 
			224.66,297.137 225.09,297.697 223.792,303.01 225.12,303.01 225.698,300.645 226.996,300.354 226.347,303.01 228.137,303.01 
			228.269,302.898 227.827,302.389 		"/>
	</g>
	<g>
		<path fill="#FFFFFF" d="M236.529,297.025l-0.907,0.719l-1.109,4.539l0.555,0.727h2.436l0.902-0.726l1.109-4.54l-0.551-0.719
			H236.529L236.529,297.025z M237.136,302.047h-1.238l0.983-4.025h1.236L237.136,302.047z"/>
	</g>
	<g>
		<polygon fill="#FFFFFF" points="260.186,297.744 259.627,297.025 256.414,297.025 254.953,303.01 256.281,303.01 257.499,298.021 
			258.79,298.021 257.57,303.01 259.359,303.01 259.492,302.898 259.05,302.389 		"/>
	</g>
	<g>
		<polygon fill="#FFFFFF" points="268.479,297.025 266.689,297.025 266.559,297.137 266.986,297.697 265.689,303.01 267.479,303.01 
			267.611,302.898 267.17,302.389 		"/>
	</g>
	<g>
		<polygon fill="#FFFFFF" points="278.096,302.42 277.384,300.082 279.75,297.025 278.471,297.025 277.096,298.874 276.625,297.025 
			274.837,297.025 274.702,297.134 275.432,297.67 276.105,300.104 273.857,303.01 275.15,303.01 276.461,301.253 276.913,303.01 
			278.702,303.01 278.836,302.898 		"/>
	</g>
	<g>
		<polygon fill="#FFFFFF" points="248.023,302.047 246.466,302.047 246.839,300.516 248.128,300.514 248.37,299.527 247.08,299.527 
			247.449,298.021 248.905,298.021 249.272,298.546 249.413,298.445 249.759,297.025 245.904,297.025 245.772,297.137 
			246.2,297.697 244.903,303.01 248.395,303.01 248.737,301.607 248.648,301.512 		"/>
	</g>
	<path fill="none" d="M264.975,278.98"/>
	<polygon fill="#F59E2F" points="217.312,292.225 251.396,273.559 228.283,292.225 256.33,276.107 255.866,279.357 260.544,276.758 
		271.109,286.747 276.732,269.852 284.865,269.33 280.729,259.081 288.094,253.316 278.568,249.607 280.98,239.359 272.874,243.07 
		268.697,234.254 262.205,240.739 250.521,235.496 248.913,245.93 238.5,248.188 244.662,251.898 238.463,255.01 243.728,255.467 
		222.065,272.316 243.856,260.742 220.479,278.537 245.363,265.566 218.783,285.55 248.078,269.939 	"/>
	<g>
		<path fill="#E15F2B" d="M279.684,259.23c-0.387,9.367-8.291,16.645-17.66,16.258c-9.366-0.385-16.645-8.293-16.255-17.658
			c0.384-9.367,8.292-16.646,17.657-16.259C272.792,241.958,280.068,249.865,279.684,259.23z"/>
		<path fill="#B65920" d="M264.803,273.174c-9.363-0.39-16.645-8.296-16.257-17.662c0.176-4.334,1.968-8.217,4.767-11.104
			c-4.356,2.908-7.314,7.783-7.544,13.422c-0.389,9.365,6.889,17.273,16.255,17.658c5.033,0.209,9.645-1.801,12.893-5.154
			C272.031,272.262,268.535,273.328,264.803,273.174z"/>
		<path fill="#071921" d="M279.691,258.729c0.009-0.608-0.018-1.209-0.071-1.802c-0.978-0.685-2.146-1.202-3.521-1.381
			c-0.264-0.032-0.513-0.048-0.767-0.067c-0.165-1.121-0.419-2.219-0.757-3.287c0.177,0.013,0.354,0.021,0.531,0.031
			c1.195,0.09,2.369,0.226,3.531,0.394c-0.164-0.433-0.344-0.854-0.537-1.271c-1.306-0.199-2.631-0.354-3.973-0.453
			c-0.005,0-0.01,0-0.015,0c-0.431-1.094-0.956-2.145-1.569-3.146c0.867-0.179,1.641-0.532,2.27-1.126
			c-0.321-0.324-0.655-0.638-1.002-0.936c-0.545,0.501-1.252,0.767-2.062,0.874c-0.124-0.173-0.247-0.349-0.377-0.516
			c-1.153-1.5-2.483-2.781-3.949-3.823c-1.276-0.367-2.614-0.594-4.002-0.649c-0.075-0.003-0.151-0.002-0.228-0.005
			c2.578,1.014,4.882,2.718,6.734,5c-1.768-0.17-3.804-0.764-5.818-1.354c-0.594-0.176-1.178-0.348-1.742-0.504
			c-3.43-0.947-6.066-1.099-8.044-0.928c-1.472,0.84-2.804,1.893-3.959,3.119c2.137-0.893,6.448-2.414,11.678-0.967
			c0.558,0.154,1.134,0.322,1.722,0.494c2.312,0.68,4.906,1.438,7.146,1.461c0.616,0.923,1.153,1.895,1.597,2.909
			c-0.439-0.021-0.877-0.034-1.314-0.042c-10.898-0.188-20.242,3.075-25.429,8.277c0.029,1.033,0.147,2.044,0.354,3.025
			c1.463-2.101,3.629-3.996,6.424-5.568c5.274-2.963,12.274-4.523,19.714-4.396c0.255,0.004,0.514,0.016,0.77,0.025
			c0.375,1.074,0.654,2.189,0.834,3.33c-4.791,0.203-7.896,3.193-11.461,6.375c-3.203,2.863-7.104,5.717-12.822,7.434
			c0.539,0.662,1.126,1.281,1.758,1.854c5.384-2.168,8.962-5.545,11.984-8.246c3.432-3.068,6.377-6.012,10.703-6.155
			c0.112,1.196,0.117,2.414,0.008,3.646c-0.584,6.649-4.434,12.287-9.687,15.067c1.345-0.126,2.646-0.41,3.884-0.837
			c0.422-0.35,0.832-0.714,1.229-1.104c3.441-3.389,5.58-8.011,6.018-13c0.11-1.252,0.109-2.49,0.008-3.711
			c0.218,0.021,0.431,0.041,0.652,0.077C277.605,257.09,278.777,257.833,279.691,258.729z"/>
	</g>
	<path fill="#071921" d="M205.403,175.489c1.512,2.562,3.757,5.323,6.452,8.145h9.094c-2.58-2.92-4.852-5.686-6.607-8.145H205.403z"
		/>
	<path fill="#071921" d="M285.71,175.489c-1.755,2.459-4.026,5.225-6.606,8.145h9.095c2.696-2.822,4.94-5.582,6.452-8.145H285.71z"
		/>
</g>
<path fill="#071921" d="M173.829,175.392c-2.132,11.535-6.63,25.294-15.686,35.583c-7.805,8.87-23.31,14.538-41.526,15.209v6.007
	c20.221-0.701,36.991-6.98,46.03-17.252c10.165-11.551,15.101-26.849,17.325-39.547H173.829L173.829,175.392z"/>
<path fill="#071921" d="M382.475,226.113c-17.591-0.911-32.49-6.502-40.09-15.138c-9.056-10.29-13.554-24.049-15.686-35.583h-6.145
	c2.225,12.698,7.159,27.996,17.325,39.547c8.822,10.026,25.021,16.237,44.594,17.18L382.475,226.113L382.475,226.113z"/>
</svg>
