<?xml version="1.0" encoding="utf-8"?>
<!-- Generator: Adobe Illustrator 18.0.0, SVG Export Plug-In . SVG Version: 6.00 Build 0)  -->
<!DOCTYPE svg PUBLIC "-//W3C//DTD SVG 1.1//EN" "http://www.w3.org/Graphics/SVG/1.1/DTD/svg11.dtd">
<svg version="1.1" id="content" xmlns="http://www.w3.org/2000/svg" xmlns:xlink="http://www.w3.org/1999/xlink" x="0px" y="0px"
	 width="500px" height="500px" viewBox="0 0 500 500" enable-background="new 0 0 500 500" xml:space="preserve">
<rect id="position" x="0.5" y="0.5" display="none" fill="none" stroke="#000000" width="499" height="499"/>
<path fill="none" d="M88.9,277.1c0.4-0.1,0.8-0.2,1.2-0.3c0.4-0.3,0.8-0.6,1.2-0.9c0.1-0.1,0.3-0.2,0.5-0.3c-0.4,0-0.7-0.1-1.1-0.2
	s-0.7-0.2-1.1-0.3c-1.3,0.9-2.3,2.1-3.1,3.4c0.4-0.3,0.9-0.5,1.3-0.8C88.1,277.5,88.5,277.3,88.9,277.1z"/>
<path fill="none" d="M86.7,280.6c0-0.1,0.1-0.1,0.1-0.2c0.4-0.6,0.8-1.1,1.3-1.7c0.3-0.3,0.5-0.5,0.8-0.8c-0.3,0.1-0.6,0.2-0.9,0.3
	c-0.6,0.2-1.1,0.5-1.7,0.7c-0.5,0.8-0.9,1.6-1.1,2.5c0.2-0.2,0.5-0.4,0.8-0.5C86.2,280.8,86.4,280.7,86.7,280.6z"/>
<path fill="none" d="M101,273.3c1.3-0.2,2.5-0.8,3.5-1.8c-0.2-0.5-0.3-1-0.4-1.5c-0.8-1.9-2.1-2.8-4-2.9h-0.8l0.6-0.6
	c0.4-0.4,0.9-0.8,1.4-1.2c-0.5-0.5-0.9-1.1-1.1-1.9c-0.4-1.3-0.3-2.3,0.3-2.9c0.1-0.1,0.3-0.2,0.4-0.3c-0.9-0.1-1.7-0.1-2.3,0
	c-3.1,0.5-6,6.3-6.7,7.8c0.8,0.3,2.7,0.9,3.2,2.3C95.8,272.4,98.9,273.7,101,273.3z"/>
<path fill="none" d="M97,273.7L97,273.7c0.4,0,0.6,0.1,0.8,0.1c0.1,0,0.1-0.1,0.1-0.1c-0.7-0.2-1.3-0.6-2-1c-0.9,0.1-1.8,0.3-3,0.6
	c1.2,0,2.5,0.1,3.7,0.3L97,273.7z"/>
<path fill="none" d="M94.7,274.4c0.2-0.1,0.4-0.1,0.6-0.2c-0.8-0.2-1.5-0.4-2.3-0.7c-0.3,0.1-0.6,0.2-0.9,0.3
	c-0.8,0.2-1.5,0.6-2,1.1c0.9,0.1,1.8,0.2,2.7,0.3C93.5,274.8,94.1,274.6,94.7,274.4z"/>
<path fill="none" d="M95.5,276.9c-0.4,0.6-0.7,1.2-1.1,1.8c0.6-0.7,1.1-0.8,1.4-0.9c0.1,0,0.1,0,0.1,0c0.1,0,0.1,0,0.2,0
	c0.2-1.1,0.7-2.3,1.6-3.6c-0.1,0-0.3,0.1-0.4,0.1s-0.3,0.1-0.4,0.1L95.5,276.9z"/>
<path fill="none" d="M89.6,277.7c-0.4,0.4-0.8,0.8-1.2,1.2c-0.4,0.5-0.8,1-1.2,1.5h0.2c0.1,0,0.2,0,0.3,0l0.3,0.1l-0.1,0.3
	c-0.2,0.9-0.5,1.8-0.9,2.7c-0.2,0.6-0.5,1.1-0.7,1.6c0.7-0.6,1.4-1.3,2.3-2.1c0.1-1,0.3-1.9,0.5-2.9
	C89.2,279.3,89.4,278.5,89.6,277.7z"/>
<path fill="none" d="M92.1,276.6c0.1-0.2,0.1-0.4,0.2-0.7c-0.2,0.1-0.5,0.2-0.8,0.4c-0.3,0.2-0.7,0.5-1,0.7v0.1
	c-0.3,1.1-0.6,2.1-0.9,3.1c-0.3,0.9-0.5,1.8-0.9,2.7c1-0.8,2.2-1.7,3.5-2.6c-0.1-0.7-0.1-1.5-0.2-2.3C92,277.5,92,277.1,92.1,276.6z
	"/>
<path fill="none" d="M87.2,281.2c-0.1,0-0.2,0-0.3,0s-0.1,0-0.1,0c-1,1.5-1.8,3.1-2.3,4.4c-0.3,0.8-0.6,1.5-0.8,2.1v0.1
	c0.5-0.6,1.2-1.3,2.2-2.3c0.1-0.8,0.3-1.5,0.5-2C86.6,282.7,86.9,282,87.2,281.2z"/>
<path fill="none" d="M85,283.8c0.2-0.5,0.5-1.1,0.8-1.7c0.2-0.3,0.3-0.6,0.5-0.9c-0.1,0-0.1,0-0.2,0c-0.3,0.1-0.5,0.2-0.8,0.3
	c-0.1,0-0.2,0.1-0.3,0.1c-0.7,2.1-1.1,4.1-1.1,5.4c0.1-0.5,0.3-1,0.5-1.6C84.5,284.9,84.8,284.4,85,283.8z"/>
<path fill="none" d="M121,256.7c0.5-0.3,0.9-0.7,1.4-1l0.1-0.2c0.5-1.4,1.1-2.5,1.7-3.8v-0.1c-1,0.4-1.9,1.1-3,1.9
	C121.3,254.5,121.2,255.6,121,256.7z"/>
<path fill="none" d="M94.1,278.9c0.3-0.7,0.6-1.5,0.9-2.3c0.3-0.7,0.6-1.3,1-2c-0.3,0.1-0.7,0.2-1.1,0.3c-0.5,0.1-1,0.3-1.5,0.5
	l-0.1,0.1c-0.2,0.3-0.3,0.8-0.4,1.2c0,0.4-0.1,0.9-0.2,1.3c-0.1,0.8-0.3,1.5-0.4,2.2c0.4-0.3,0.8-0.6,1.4-1
	C93.8,279.1,94,279,94.1,278.9z"/>
<path fill="none" d="M124.3,259.7c-0.2,0-0.3,0.1-0.5,0.1c0.1,0.1,0.2,0.2,0.3,0.3c0-0.1,0-0.1,0-0.2l-0.1-0.1l0.1,0.1
	C124.1,259.8,124.2,259.7,124.3,259.7z"/>
<path fill="none" d="M101,266.4c1.8,0.3,3.1,1.5,3.8,3.4c0.6,3.1,2.1,4.7,4.4,4.7c2,0,4.3-1.3,5.4-3.3c1-1.7,1-3.6,0-5.2
	c-0.6-0.9-1.3-1.7-2.1-2.2c-0.1,0.1-0.2,0.2-0.2,0.2l-0.5-0.5c-0.8-0.4-1.6-0.6-2.6-0.6c-2.3,0-4.8,1-7.2,2.7
	C101.6,265.9,101.3,266.1,101,266.4z"/>
<path fill="none" d="M100.8,263.3c0.2,0.7,0.6,1.2,1.1,1.6c1.2-0.9,2.4-1.5,3.6-2c0.6-3.1,4.6-5.7,4.8-5.8l0.6-0.4v0.7
	c-0.1,2.1,0.1,4.4,0.6,4.7c0.3,0.2,0.7,0.4,1,0.7c1.5-1.4,4.7-4.7,4.5-7.7c-0.1-1.4-1-2.6-2.6-3.5c-2.7-1.6-5.8,1.7-5.8,1.7
	l-0.3,0.3l-0.3-0.3c-0.1,0-2-2-4.7-0.3c-0.9,0.5-1,2.2-0.3,4.8c0.4-0.3,0.8-0.5,1.4-0.6c1.4-0.1,2.7,0.2,3.8,1.1l-0.4,0.5
	c-0.9-0.7-2.1-1.1-3.3-0.9c-0.5,0.1-1,0.3-1.2,0.7c-0.4,0.6-0.1,1.6-0.1,1.6l0.2,0.5l-0.6-0.1c0,0-1.2-0.3-1.9,0.5
	C100.5,261.5,100.5,262.2,100.8,263.3z"/>
<path fill="none" d="M110.1,258.1c-1.1,0.7-3.2,2.5-3.8,4.5c1-0.3,1.9-0.5,2.8-0.5c0.6,0,1.2,0.1,1.7,0.2
	C110.2,261.4,110.1,259.3,110.1,258.1z"/>
<path fill="none" d="M119.4,258.1c0.2-0.3,0.5-0.5,0.8-0.8c0.1-0.7,0.3-1.4,0.5-2.1c0.1-0.5,0.2-1.1,0.4-1.6c-0.6,0.6-1.3,1.2-1.9,2
	c-0.3,0.3-0.5,0.6-0.7,0.9c0,0.5,0,1.1,0.1,1.6c0,0.3-0.1,0.6-0.1,0.9C118.8,258.7,119.1,258.4,119.4,258.1z"/>
<path fill="none" d="M114.9,261.3c0.8-0.4,1.6-0.8,2.5-1.1c0.1,0,0.1-0.1,0.1-0.1c0.1-0.1,0.1-0.1,0.1-0.1c0.1-0.6,0.3-1.3,0.4-1.9
	c0.1-0.5,0.2-1,0.3-1.5c-0.4,0.6-0.7,1.1-1.1,1.5c-0.1,0.1-0.2,0.2-0.3,0.2C116.4,259.4,115.7,260.4,114.9,261.3z"/>
<path fill="none" d="M94.3,289c0-0.5,0.1-0.9,0.2-1.4c0.1-0.2,0.1-0.5,0.2-0.7s0.2-0.4,0.3-0.6c0-0.3,0-0.5,0-0.8
	c-0.7,0.7-1.4,1.4-2.1,2c0.2,1.2,0.6,2.4,1.3,3.6C94.2,290.4,94.2,289.7,94.3,289z"/>
<path fill="none" d="M95.8,280.3c0.1-0.3,0.2-0.6,0.3-0.8c-0.1-0.3-0.1-0.7-0.1-1c-0.4,0.3-0.8,0.6-1.3,0.9
	c-0.4,0.5-0.8,1.2-1.3,2.3c-0.2,0.8-0.4,1.5-0.5,2.2c0.8-1,1.7-2,2.7-3C95.7,280.7,95.7,280.5,95.8,280.3z"/>
<path fill="none" d="M96.2,280.2c-0.1,0.1-0.1,0.2-0.1,0.3v0.1l0.2,0.3c0.2,0.3,0.5,0.7,0.7,1l0.8,1c0.4,0.6,0.9,1.2,1.3,1.9
	c0.1-0.3,0.2-0.6,0.3-0.9c0.2-0.9,0.6-1.9,0.7-2.4c-0.2,0-0.5,0.1-0.7,0.1C98.3,281.8,96.9,282.1,96.2,280.2z"/>
<path fill="none" d="M115.6,272.3c-0.2,0-0.3,0-0.5,0h-0.5v-0.2c-0.4,0.6-1,1.2-1.6,1.6c0,2.8-0.6,5.7-1.9,7.9
	c0.9,0.8,1.9,1.4,3,1.7c0.8,0.3,1.4,0.2,1.9-0.2c1-0.8,1.1-3,1-3.8l-0.1-0.7l0.6,0.4c0.1,0.1,2.4,1.5,4.2,0.8c0.9-0.3,1.6-1.1,2-2.4
	c0.9-2.9-1.4-4.6-3.6-6.1C118.6,271.9,117,272.3,115.6,272.3z"/>
<path fill="none" d="M119.7,258.6c-0.4,0.5-0.7,0.9-1,1.2c1-0.3,2-0.5,2.9-0.5c0.6,0,1.1,0.1,1.5,0.3c0.4,0,0.7,0,1.1,0
	c0.2-0.3,0.4-0.5,0.7-0.8c0.4-0.4,0.8-0.8,1.1-1.2c-0.9,0.1-1.8,0.1-2.6,0.1c-1,0.1-2,0-2.9,0.1
	C120.3,258.1,119.9,258.3,119.7,258.6z"/>
<path fill="none" d="M122.2,260.1c-0.3,0-0.6,0.1-0.9,0.1l-2.4,0.3c-0.3,0.1-0.6,0.2-0.9,0.3c-0.2,0.1-0.3,0.2-0.4,0.3
	c-0.2,0.1-0.3,0.1-0.3,0.1c-0.1,0-0.1,0-0.1,0v-0.1c-1.6,0.6-3.2,1.4-4.2,2.2c0.9,0.6,1.6,1.4,2.2,2.4c1.1,1.9,1.1,4,0,5.9
	c0,0.1-0.1,0.1-0.1,0.2h0.2c3.2,0.2,8-1.9,9.7-5.1c0.9-1.8,0.8-3.5-0.5-5.2l-1.1-0.9C123.2,260.3,122.7,260.2,122.2,260.1z"/>
<path fill="none" d="M96.5,282.3c-0.2-0.2-0.3-0.5-0.5-0.7v0.1c-0.1,0.4-0.1,1-0.2,1.5c0,0.2-0.1,0.5-0.1,0.8c0,0.2,0,0.4,0,0.6
	c0.2,0.3,0.4,0.5,0.6,0.8c0.3,0.4,0.6,0.7,0.9,1c0.4,0.5,0.8,1,1.2,1.5c0.1-0.8,0.3-1.6,0.5-2.5c0-0.2,0.1-0.4,0.3-0.5
	c-0.7-0.5-1.2-1-1.8-1.6C97.1,283,96.8,282.6,96.5,282.3z"/>
<path fill="none" d="M109.1,275.3c-2,0-3.5-1.1-4.4-3c-1,0.9-2.3,1.6-3.7,1.8c-0.3,0.1-0.5,0.1-0.8,0.1c-0.5,0-1-0.1-1.5-0.2
	c-1.2,1.7-2.4,3.9-1.9,5.5c0.5,1.7,1.3,1.5,2.5,1.3c0.8-0.2,1.8-0.4,2.7,0.2l0.1,0.1c0.8,1.1,3.2,3.8,4.6,3.5
	c1.5-0.4,2.7-1.4,3.6-2.7c1.4-2.2,2-5.2,2-7.5C111.3,275,110.2,275.3,109.1,275.3z"/>
<path fill="none" d="M98.3,293.2c-0.2-0.3-0.5-0.6-0.7-0.9l-0.8-1c0.1,0.3,0.2,0.6,0.3,0.8c0.2,0.6,0.5,1.1,0.7,1.6s0.4,1,0.7,1.4
	c0.2,0.3,0.4,0.6,0.6,0.9c-0.3-0.6-0.5-1.4-0.6-2.5C98.4,293.4,98.4,293.3,98.3,293.2z"/>
<path fill="none" d="M95,284.4c0-0.1,0-0.3,0-0.4c0-0.3,0.1-0.6,0.1-0.9c0.1-0.4,0.1-0.8,0.2-1.1c-0.3,0.3-0.6,0.5-0.9,0.8
	c-0.5,0.5-1,0.9-1.5,1.3c-0.2,1.1-0.2,2.2,0,3.2C93.6,286.3,94.3,285.3,95,284.4z"/>
<path fill="none" d="M98.2,290.9c0-0.9,0-1.8,0.1-2.8c-0.6-0.4-1.1-0.9-1.6-1.3c-0.3-0.3-0.6-0.6-0.9-0.9c0-0.1-0.1-0.1-0.1-0.2
	c0,0.2,0,0.4,0,0.6c0.5,0.9,1.1,1.8,1.6,2.8C97.6,289.7,97.9,290.3,98.2,290.9z"/>
<path fill="none" d="M96,290.7c-0.2-0.7-0.5-1.3-0.6-1.9c-0.1-0.4-0.1-0.8-0.2-1.2c-0.1,0.1-0.1,0.1-0.1,0.2
	c-0.2,0.4-0.3,0.9-0.4,1.3c-0.1,0.7-0.3,1.5-0.5,2.2c0.4,0.7,0.8,1.4,1.4,2.1c0.1,0.1,0.3,0.3,0.5,0.6c0-0.1,0-0.1,0-0.2
	c-0.1-0.4-0.2-0.7-0.2-1.1C95.9,292,95.9,291.4,96,290.7z"/>
<path fill="none" d="M98,292.1c0.1,0.2,0.2,0.3,0.3,0.5c0-0.4-0.1-0.8-0.1-1.2c-0.5-0.7-0.9-1.3-1.4-2c-0.4-0.5-0.7-1-1-1.5
	c0,0.2,0.1,0.5,0.1,0.7c0,0.4,0.2,0.9,0.3,1.3l0.3,0.3C97.1,290.8,97.6,291.4,98,292.1z"/>
<path fill="none" d="M97.5,293.9c-0.2-0.5-0.5-1.1-0.8-1.6c-0.1-0.1-0.2-0.3-0.3-0.5c0,0.3-0.1,0.5-0.1,0.8c0,0.4,0,0.7,0,1.1
	c0,0.2,0,0.3,0,0.5c1.1,1.3,2.3,2.2,3.1,2.8c-0.1-0.1-0.1-0.2-0.1-0.4c-0.2-0.4-0.6-0.9-1-1.4C98,294.9,97.8,294.4,97.5,293.9z"/>
<path fill="#231F20" d="M109.1,194.4c-0.5-0.3-1-0.6-1.6-0.9l-2.1,3.5c0.7,0,1.3,0,1.9,0L109.1,194.4z"/>
<path fill="#231F20" d="M116,200.5c-0.4-0.5-0.8-0.9-1.2-1.4l-1.4,1.5c0.3,0.5,0.6,1,0.8,1.6L116,200.5z"/>
<path fill="#231F20" d="M92.8,198.3l-1.4-6.5c-0.6,0.1-1.2,0.3-1.7,0.4l1.5,5.1C91.7,197.6,92.2,197.9,92.8,198.3z"/>
<path fill="#231F20" d="M83.9,197.5l-1-2.2c-0.5,0.3-1,0.7-1.5,1l0.8,1.8C82.8,197.9,83.4,197.7,83.9,197.5z"/>
<path fill="#231F20" d="M100.6,191.4c-0.6-0.1-1.2-0.2-1.8-0.2l-0.7,12c0.3-1.1,0.8-2.2,1.4-3.1L100.6,191.4z"/>
<path fill="#231F20" d="M115,233.1l-7.2-6.4c-0.2,0.2-0.4,0.5-0.6,0.7l6.6,7C114.2,234,114.6,233.5,115,233.1z"/>
<path fill="#231F20" d="M103.1,231.4l3,8c0.6-0.2,1.1-0.5,1.7-0.8l-3.9-7.9C103.6,230.9,103.3,231.2,103.1,231.4z"/>
<path fill="#231F20" d="M119.8,225.3l-4.4-1.9c-0.2,0.3-0.4,0.6-0.6,0.8l4.2,2.8C119.3,226.4,119.6,225.8,119.8,225.3z"/>
<path fill="#231F20" d="M97,236.1l0.1,5.2c0.6,0,1.3,0,1.9-0.1l-0.6-6C97.8,235.6,97.3,235.9,97,236.1z"/>
<path fill="#231F20" d="M91.9,233c-0.3-0.3-0.6-0.6-1-0.9l-2.8,7.6c0.6,0.2,1.2,0.4,1.8,0.6L91.9,233z"/>
<path fill="#231F20" d="M100.6,218.4c-0.1-2.9-4.9-2.8-4.8,0.1C95.7,221.3,100.7,221.2,100.6,218.4z M99.6,218.4
	c0.1,2-2.9,2.1-3,0.1C96.5,216.4,99.5,216.4,99.6,218.4z"/>
<path fill="#231F20" d="M106,220.4c-0.3-0.9-0.4-2.1-0.5-3.1c0-0.7,0.1-0.6,0.7-0.1c1,0.8,0.9,1.1,2.5,2c0.5-0.3,0.5-3.8,0.5-3.8
	s1.3,2,2.2,2.8c0.4,0.3,0.3,0.2,0.9-0.1c-0.4-1-2-3.3-3.1-3.9c-1.2-0.6-1,3.5-1,3.5s-2.6-2.1-2.8-2.1c-1-0.2-0.7,4-0.3,5
	C105.4,220.5,105.7,220.5,106,220.4z"/>
<path fill="#231F20" d="M89.2,217.7c-1.2-0.7-1.3,3.2-1.3,3.2s-2.4-2.2-2.6-2.2c-1-0.2-1.2,3.9-0.9,4.8c0.3-0.1,0.9-0.2,0.9-0.2
	s-0.1-2.2-0.1-3.1c0-0.6,0.1-0.5,0.8,0c1,0.9,0.8,1.1,2.3,2.1c0.5-0.3,0.8-3.5,0.8-3.5s1.1,2,1.9,2.8c0.3,0.3,0.3,0.2,0.9,0
	C91.6,220.6,90.2,218.4,89.2,217.7z"/>
<path fill="#231F20" d="M84.5,232.7l0.3-0.1v-0.4l2.6-3.4c-0.3-0.3-0.5-0.6-0.8-0.8l-1.8,1.8V226c0.4-0.2,0.9-0.4,1.4-0.6
	c4.9,5.9,10.8,9.5,10.8,9.5s7.9-4.9,13.3-12.8c1.1-0.5,2.2-1,3.1-1.6l0.3,2.7l0.5-0.7c0,0,3.9-3.9,11.2-3.9c0.1,0,0.1,0,0.2,0h0.8
	l-4.1-4.5l2.4-5l-0.7,0.1c-2.9,0.6-4.2,1.1-6.1,2V210l2.7-1.5c-0.2-0.6-0.4-1.2-0.6-1.7l-2.1,1.2v-1.4L115,209
	c0-15.9-17.3-11.6-17.3-1c0-10.6-18.4-14.4-18.4,0.7c0,3.2,0.8,6.1,2,8.9H81c-0.4,0.2-0.8,0.4-1.1,0.6c-0.1-0.1-0.1-0.2-0.2-0.4
	l-1.9,0.3v1.4l2.1-0.5c-0.3,0.2-0.6,0.4-0.9,0.6l-0.2,0.1v5.8c-0.3,0.1-0.7,0.3-1,0.4v0.9c0.3-0.1,0.7-0.4,1-0.5v4.1v1.2l0.6-1.1
	c0.4-0.6,1.7-2.6,4.7-4.2l0.1,5.7c-2.8,0.8-4.8,1.8-6.4,3v1c1.1-0.9,2.4-1.8,4.1-2.5l-1.5,1.5c0.5,0.4,0.9,0.8,1.4,1.2l2.7-3.6l0,0
	C84.5,232.6,84.5,232.7,84.5,232.7z M117.7,217.8V212c1.9-0.9,3.1-1.4,5.6-1.9l-2,4.2l3.4,3.7c-5.5,0.2-9.2,2.6-10.7,3.7l-0.1-1.5
	c1.2-0.7,2.3-1.4,3.2-2.1L117.7,217.8z M79.2,229.2v-9.1c4.4-2.7,9.9-5.6,17.9-5.6c11.8,0,17.9-4.5,19.7-6.1v0.1v1.7v7.3l-0.1,0.1
	c-0.9,0.7-2.1,1.5-3.4,2.2l-0.1,0.1c-1,0.6-3.5,1.7-3.5,1.7c-2.8,1.2-6,2-10,2c-0.8,0-1.7,0-2.5-0.1c-1.1-0.1-2.1-0.2-3.2-0.2
	C85.1,223.3,80.8,227.2,79.2,229.2z"/>
<path fill="#231F20" d="M125.4,255.7c-0.4-0.1-0.8-0.3-1.3-0.4l-0.4-0.1c0.2-0.1,0.4-0.3,0.6-0.4h0.1c0.7,0,1.4,0,2-0.1V254
	c-0.3,0-0.6,0-0.9,0c0.2-0.1,0.3-0.2,0.5-0.2c0.1-0.1,0.3-0.1,0.4-0.2v-0.5c-0.2,0.1-0.4,0.1-0.6,0.2s-0.4,0.2-0.5,0.3
	c0.1-0.1,0.2-0.2,0.3-0.3c0.3-0.3,0.6-0.6,0.8-0.9v-0.7l-0.1,0.1c-0.4,0.3-0.8,0.7-1.2,1.1c-0.2,0.2-0.4,0.4-0.6,0.6
	c-0.2,0.2-0.3,0.4-0.5,0.7v0.1c-0.2,0.1-0.5,0.3-0.7,0.4c0.4-1,0.7-2.1,0.9-3.1c-0.7,1.3-1.2,2.4-1.7,3.8l-0.1,0.2
	c-0.5,0.3-0.9,0.7-1.4,1c0.2-1.1,0.3-2.1,0.3-3.2c1.1-0.8,2-1.5,3-1.9c0-0.1,0-0.2,0-0.2c0.7-0.3,1.4-0.6,2.1-0.7V250
	c-2.5,0.6-5.2,2-7.7,5c-0.4,0.4-0.7,0.9-1,1.3c0.1-0.4,0.1-0.9,0.1-1.3c-0.1-1.6-1.1-3-2.9-4.1c-2.7-1.6-5.6,0.8-6.5,1.5
	c-0.7-0.6-2.8-1.8-5.3-0.2c-1.2,0.8-1.4,2.9-0.4,6.2c-0.2,0.5-0.2,0.9-0.2,1.3c-1.2-0.3-3-0.5-4-0.3c-4,0.7-7.2,8.3-7.4,8.6
	l-0.2,0.4l0.4,0.1c0.7,0.1,2.7,0.8,3.1,1.9c0.2,0.6,0.6,1.1,1,1.5c-1.1,0.2-2.2,0.5-3.5,0.9c-1.1,0.4-2.1,1-3,1.6
	c-0.1,0-0.2,0-0.3,0c0.1,0,0.1,0,0.2,0.1c-5.6,4.5-5.9,14-5.9,14.1v1.1l0.6-0.9c0,0,3-4,9.7-8.6c-0.2,0.3-0.3,0.7-0.5,1.1
	C89.2,292,99.9,298,100,298l1.1,0.6l-0.6-1.1c0,0-2.9-5.1-0.9-12.2c0.1-0.3,0.3-0.8,0.5-1.5c0.3-1,0.7-2.1,0.8-2.7
	c0.2,0,0.5,0.1,0.7,0.2c0.4,0.6,2.8,3.7,4.8,3.7c0.1,0,0.3,0,0.4,0c1.6-0.4,2.9-1.4,3.9-2.9c0.9,0.9,2,1.5,3.2,1.8
	c0.3,0.1,0.7,0.1,1,0.1c0.6,0,1.1-0.2,1.5-0.5c1.1-0.9,1.3-2.8,1.3-3.8c0.9,0.4,2.6,1.1,4.2,0.5c1.1-0.4,2-1.4,2.4-2.9
	c1.1-3.4-1.9-5.5-3.5-6.5c1.9-1,3.7-2.4,4.6-4.1c1.1-2,0.9-4-0.5-6l-0.8-0.8c0,0.1,0,0.1,0,0.2c-0.1-0.1-0.2-0.2-0.3-0.3
	c0.2,0,0.3-0.1,0.5-0.1c-0.1,0-0.2,0.1-0.2,0.2c0.1,0,0.1,0,0.1,0c0.1,0,0.2,0,0.2-0.1c0.3-0.3,0.6-0.6,0.9-0.9s0.6-0.6,0.9-1v-0.3
	c-0.9-0.2-1.8-0.3-2.6-0.4c-0.5,0-1-0.1-1.5-0.1c-0.2,0-0.4,0-0.6,0c0.4-0.4,0.9-0.8,1.4-1.2c0.7,0.1,1.6,0.3,2.4,0.4
	c0.4,0.1,0.7,0.1,1.1,0.2V256C126.1,255.9,125.7,255.7,125.4,255.7z M118.5,256.5c0.2-0.3,0.4-0.6,0.7-0.9c0.6-0.8,1.3-1.4,1.9-2
	c-0.2,0.5-0.3,1.1-0.4,1.6c-0.2,0.7-0.4,1.4-0.5,2.1c-0.3,0.3-0.6,0.5-0.8,0.8c-0.3,0.3-0.6,0.6-0.9,0.9c0-0.3,0.1-0.6,0.1-0.9
	C118.5,257.6,118.5,257,118.5,256.5z M118.3,256.6c-0.1,0.5-0.2,1-0.3,1.5c-0.1,0.6-0.3,1.3-0.4,1.9c0,0,0,0-0.1,0.1
	c0,0,0,0.1-0.1,0.1c-0.9,0.3-1.7,0.7-2.5,1.1c0.8-0.9,1.5-1.9,2-3c0.1,0,0.2-0.1,0.3-0.2C117.6,257.7,117.9,257.2,118.3,256.6z
	 M102.8,260.6l0.6,0.1l-0.2-0.5c0,0-0.3-1,0.1-1.6c0.2-0.4,0.7-0.6,1.2-0.7c1.2-0.2,2.4,0.2,3.3,0.9l0.4-0.5
	c-1.1-0.9-2.4-1.2-3.8-1.1c-0.6,0.1-1,0.3-1.4,0.6c-0.7-2.6-0.6-4.3,0.3-4.8c2.7-1.7,4.6,0.3,4.7,0.3l0.3,0.3l0.3-0.3
	c0,0,3.1-3.3,5.8-1.7c1.6,0.9,2.5,2.1,2.6,3.5c0.2,3-3,6.3-4.5,7.7c-0.3-0.3-0.7-0.5-1-0.7c-0.5-0.3-0.7-2.6-0.6-4.7v-0.7l-0.6,0.4
	c-0.2,0.1-4.2,2.7-4.8,5.8c-1.2,0.5-2.4,1.1-3.6,2c-0.5-0.4-0.9-0.9-1.1-1.6c-0.3-1.1-0.3-1.8,0.1-2.2
	C101.6,260.3,102.8,260.6,102.8,260.6z M109.2,262.9c1,0,1.8,0.2,2.6,0.6l0.5,0.5c0,0,0.1-0.1,0.2-0.2c0.8,0.5,1.5,1.3,2.1,2.2
	c1,1.6,1,3.5,0,5.2c-1.1,2-3.4,3.3-5.4,3.3c-2.3,0-3.8-1.6-4.4-4.7c-0.7-1.9-2-3.1-3.8-3.4c0.3-0.3,0.6-0.5,1-0.8
	C104.4,263.9,106.9,262.9,109.2,262.9z M106.3,262.6c0.6-2,2.7-3.8,3.8-4.5c0,1.2,0.1,3.3,0.7,4.2c-0.5-0.1-1.1-0.2-1.7-0.2
	C108.2,262.1,107.3,262.3,106.3,262.6z M95,270.3c-0.5-1.4-2.4-2-3.2-2.3c0.7-1.5,3.6-7.3,6.7-7.8c0.6-0.1,1.4-0.1,2.3,0
	c-0.1,0.1-0.3,0.2-0.4,0.3c-0.6,0.6-0.7,1.6-0.3,2.9c0.2,0.8,0.6,1.4,1.1,1.9c-0.5,0.4-1,0.8-1.4,1.2l-0.6,0.6h0.8
	c1.9,0.1,3.2,1,4,2.9c0.1,0.5,0.2,1,0.4,1.5c-1,1-2.2,1.6-3.5,1.8C98.9,273.7,95.8,272.4,95,270.3z M95.9,272.7c0.7,0.4,1.3,0.8,2,1
	c0,0,0,0.1-0.1,0.1c-0.2,0-0.4-0.1-0.7-0.1H97l-0.4-0.1c-1.2-0.2-2.5-0.3-3.7-0.3C94.1,273,95,272.8,95.9,272.7z M97.7,274.1
	c-0.9,1.3-1.4,2.5-1.6,3.6c-0.1,0-0.1,0-0.2,0c0,0,0,0-0.1,0c-0.3,0.1-0.8,0.2-1.4,0.9c0.4-0.6,0.7-1.2,1.1-1.8l1.4-2.5
	c0.1,0,0.3-0.1,0.4-0.1S97.6,274.1,97.7,274.1z M92.1,273.7c0.3-0.1,0.6-0.2,0.9-0.3c0.8,0.3,1.5,0.5,2.3,0.7
	c-0.2,0.1-0.4,0.1-0.6,0.2c-0.6,0.2-1.2,0.4-1.9,0.8c-0.9-0.1-1.8-0.2-2.7-0.3C90.6,274.4,91.3,273.9,92.1,273.7z M89.6,275.1
	c0.4,0.1,0.7,0.2,1.1,0.3c0.4,0.1,0.7,0.2,1.1,0.2c-0.2,0.1-0.4,0.2-0.5,0.3c-0.4,0.3-0.8,0.6-1.2,0.9c-0.4,0.1-0.8,0.2-1.2,0.3
	c-0.4,0.2-0.8,0.4-1.1,0.6c-0.4,0.3-0.9,0.5-1.3,0.8C87.3,277.2,88.3,276,89.6,275.1z M86.3,278.9c0.6-0.2,1.1-0.5,1.7-0.7
	c0.3-0.1,0.6-0.2,0.9-0.3c-0.3,0.3-0.5,0.5-0.8,0.8c-0.5,0.6-0.9,1.1-1.3,1.7c0,0.1-0.1,0.1-0.1,0.2c-0.3,0.1-0.5,0.2-0.7,0.3
	c-0.3,0.1-0.6,0.3-0.8,0.5C85.4,280.5,85.8,279.7,86.3,278.9z M85,281.6c0.1,0,0.2-0.1,0.3-0.1c0.3-0.1,0.5-0.2,0.8-0.3
	c0.1,0,0.1,0,0.2,0c-0.2,0.3-0.3,0.6-0.5,0.9c-0.3,0.6-0.6,1.2-0.8,1.7c-0.2,0.6-0.5,1.1-0.6,1.6c-0.2,0.6-0.4,1.1-0.5,1.6
	C83.9,285.7,84.3,283.7,85,281.6z M83.7,287.8v-0.1c0.2-0.6,0.5-1.3,0.8-2.1c0.5-1.3,1.3-2.9,2.3-4.4c0,0,0,0,0.1,0s0.2,0,0.3,0
	c-0.3,0.8-0.6,1.5-0.8,2.3c-0.2,0.5-0.4,1.2-0.5,2C84.9,286.5,84.2,287.2,83.7,287.8z M86.3,285.1c0.2-0.5,0.5-1,0.7-1.6
	c0.4-0.9,0.7-1.8,0.9-2.7l0.1-0.3l-0.3-0.1c-0.1,0-0.2,0-0.3,0h-0.2c0.4-0.5,0.8-1,1.2-1.5c0.4-0.4,0.8-0.8,1.2-1.2
	c-0.2,0.8-0.4,1.6-0.5,2.4c-0.2,1-0.4,1.9-0.5,2.9C87.7,283.8,87,284.5,86.3,285.1z M88.7,282.9c0.4-0.9,0.6-1.8,0.9-2.7
	c0.3-1,0.6-2,0.9-3.1V277c0.3-0.2,0.7-0.5,1-0.7s0.6-0.3,0.8-0.4c-0.1,0.3-0.1,0.5-0.2,0.7c-0.1,0.5-0.1,0.9-0.1,1.4
	c0.1,0.8,0.1,1.6,0.2,2.3C90.9,281.2,89.7,282.1,88.7,282.9z M92.3,280.2c0.1-0.7,0.3-1.4,0.4-2.2c0.1-0.4,0.2-0.9,0.2-1.3
	c0.1-0.4,0.2-0.9,0.4-1.2l0.1-0.1c0.5-0.2,1-0.4,1.5-0.5c0.4-0.1,0.8-0.2,1.1-0.3c-0.4,0.7-0.7,1.3-1,2c-0.3,0.8-0.6,1.6-0.9,2.3
	c-0.1,0.1-0.3,0.2-0.4,0.3C93.1,279.6,92.7,279.9,92.3,280.2z M93.4,281.7c0.5-1.1,0.9-1.8,1.3-2.3c0.5-0.3,0.9-0.6,1.3-0.9
	c0,0.3,0,0.7,0.1,1c-0.1,0.2-0.2,0.5-0.3,0.8c-0.1,0.2-0.1,0.4-0.2,0.6c-1,1-1.9,2-2.7,3C93,283.2,93.2,282.5,93.4,281.7z
	 M95.7,285.7c0,0.1,0.1,0.1,0.1,0.2c0.3,0.3,0.6,0.6,0.9,0.9c0.5,0.4,1,0.9,1.6,1.3c-0.1,1-0.1,1.9-0.1,2.8
	c-0.3-0.6-0.6-1.2-0.9-1.8c-0.5-1-1.1-1.9-1.6-2.8C95.7,286.1,95.7,285.9,95.7,285.7z M92.9,284.1c0.5-0.4,1-0.8,1.5-1.3
	c0.3-0.3,0.6-0.5,0.9-0.8c-0.1,0.3-0.1,0.7-0.2,1.1c0,0.3-0.1,0.6-0.1,0.9c0,0.1,0,0.3,0,0.4c-0.7,0.9-1.4,1.9-2.1,2.9
	C92.7,286.3,92.7,285.2,92.9,284.1z M95,285.5c0,0.3,0,0.5,0,0.8c-0.1,0.2-0.2,0.4-0.3,0.6s-0.1,0.5-0.2,0.7
	c-0.1,0.5-0.2,0.9-0.2,1.4c-0.1,0.7-0.1,1.4-0.1,2.1c-0.7-1.2-1.1-2.4-1.3-3.6C93.6,286.9,94.3,286.2,95,285.5z M96.1,294.1
	c-0.2-0.3-0.4-0.5-0.5-0.6c-0.6-0.7-1-1.4-1.4-2.1c0.2-0.7,0.4-1.5,0.5-2.2c0.1-0.4,0.2-0.9,0.4-1.3c0-0.1,0-0.1,0.1-0.2
	c0.1,0.4,0.1,0.8,0.2,1.2c0.1,0.6,0.4,1.2,0.6,1.9c-0.1,0.7-0.1,1.3-0.1,2c0,0.4,0.1,0.7,0.2,1.1C96.1,294,96.1,294,96.1,294.1z
	 M95.9,288.6c0-0.2-0.1-0.5-0.1-0.7c0.3,0.5,0.6,1,1,1.5c0.5,0.7,0.9,1.3,1.4,2c0,0.4,0.1,0.8,0.1,1.2c-0.1-0.2-0.2-0.3-0.3-0.5
	c-0.4-0.7-0.9-1.3-1.5-1.9l-0.3-0.3C96.1,289.5,95.9,289,95.9,288.6z M99.4,297c-0.8-0.6-2-1.5-3.1-2.8c0-0.2,0-0.3,0-0.5
	c0-0.4,0-0.7,0-1.1c0-0.3,0.1-0.5,0.1-0.8c0.1,0.2,0.2,0.4,0.3,0.5c0.3,0.5,0.6,1.1,0.8,1.6c0.3,0.5,0.5,1,0.8,1.3
	c0.4,0.5,0.8,1,1,1.4C99.3,296.8,99.3,296.9,99.4,297z M99.1,296.1c-0.2-0.3-0.4-0.6-0.6-0.9c-0.3-0.4-0.5-0.9-0.7-1.4
	s-0.5-1-0.7-1.6c-0.1-0.2-0.2-0.5-0.3-0.8l0.8,1c0.2,0.3,0.5,0.6,0.7,0.9c0.1,0.1,0.1,0.2,0.2,0.3C98.6,294.7,98.8,295.5,99.1,296.1
	z M98.9,285.4c-0.2,0.9-0.4,1.7-0.5,2.5c-0.4-0.5-0.8-1-1.2-1.5c-0.3-0.3-0.6-0.6-0.9-1c-0.2-0.3-0.4-0.5-0.6-0.8c0-0.2,0-0.4,0-0.6
	c0-0.3,0.1-0.6,0.1-0.8c0.1-0.5,0.1-1.1,0.2-1.5v-0.1c0.2,0.2,0.3,0.5,0.5,0.7c0.3,0.3,0.6,0.7,0.9,1c0.6,0.6,1.1,1.1,1.8,1.6
	C99,285,98.9,285.2,98.9,285.4z M99.4,283.9c-0.1,0.3-0.2,0.6-0.3,0.9c-0.4-0.7-0.9-1.3-1.3-1.9l-0.8-1c-0.2-0.3-0.5-0.7-0.7-1
	l-0.2-0.3v-0.1c0-0.1,0-0.2,0.1-0.3c0.7,1.9,2.1,1.6,3.2,1.4c0.2,0,0.5-0.1,0.7-0.1C100,282,99.6,283,99.4,283.9z M110.3,281.9
	c-0.9,1.3-2.1,2.3-3.6,2.7c-1.4,0.3-3.8-2.4-4.6-3.5L102,281c-0.9-0.6-1.9-0.4-2.7-0.2c-1.2,0.2-2,0.4-2.5-1.3
	c-0.5-1.6,0.7-3.8,1.9-5.5c0.5,0.1,1,0.2,1.5,0.2c0.3,0,0.5,0,0.8-0.1c1.4-0.2,2.7-0.9,3.7-1.8c0.9,1.9,2.4,3,4.4,3
	c1.1,0,2.2-0.3,3.2-0.9C112.3,276.7,111.7,279.7,110.3,281.9z M123.8,277.5c-0.4,1.3-1.1,2.1-2,2.4c-1.8,0.7-4.1-0.7-4.2-0.8
	l-0.6-0.4l0.1,0.7c0.1,0.8,0,3-1,3.8c-0.5,0.4-1.1,0.5-1.9,0.2c-1.1-0.3-2.1-0.9-3-1.7c1.3-2.2,1.9-5.1,1.9-7.9
	c0.6-0.4,1.2-1,1.6-1.6v0.2h0.5c0.2,0,0.3,0,0.5,0c1.4,0,3-0.4,4.5-1C122.4,272.8,124.7,274.6,123.8,277.5z M124.5,261.5
	c1.3,1.7,1.4,3.4,0.5,5.2c-1.7,3.2-6.5,5.3-9.7,5.1H115c0-0.1,0.1-0.1,0.1-0.2c1.1-1.9,1.1-4,0-5.9c-0.6-1-1.3-1.8-2.2-2.4
	c1-0.8,2.6-1.6,4.2-2.2v0.1c0,0,0,0,0.1,0c0,0,0.1,0,0.3-0.1c0.1-0.1,0.2-0.2,0.4-0.3c0.3-0.1,0.6-0.2,0.9-0.3l2.4-0.3
	c0.3,0,0.6-0.1,0.9-0.1c0.5,0.1,1,0.2,1.2,0.5L124.5,261.5z M123.5,257.7c0.8,0,1.7,0,2.6-0.1c-0.3,0.4-0.7,0.8-1.1,1.2
	c-0.3,0.3-0.5,0.5-0.7,0.8c-0.4,0-0.7,0-1.1,0c-0.4-0.2-0.9-0.3-1.5-0.3c-0.9,0-1.9,0.2-2.9,0.5c0.3-0.3,0.6-0.7,1-1.2
	c0.2-0.3,0.5-0.5,0.8-0.8C121.5,257.7,122.5,257.8,123.5,257.7z"/>
<path fill="#424242" d="M124.3,251.5C124.3,251.5,124.2,251.6,124.3,251.5c-0.1,0.1-0.1,0.1-0.1,0.1
	C124.2,251.6,124.2,251.6,124.3,251.5z"/>
<path fill="#424242" d="M124.1,259.9C124.1,259.9,124.1,259.8,124.1,259.9C124,259.8,124,259.8,124.1,259.9L124.1,259.9z"/>
<path fill="#424242" d="M126.2,256.9v0.7C126.3,257.5,126.4,257.4,126.2,256.9z"/>
<path fill="#231F20" d="M91.3,258.1c0.4-0.1,0.8,0,1.2-0.1s0.9-0.1,1.4-0.2c0.5,0,1,0,1.4,0c0.5,0.1,0.9,0.1,1.2,0.1
	c0.7,0.1,1.2,0.2,1.2,0.2V258c0,0-0.5-0.2-1.2-0.4c-0.4-0.1-0.8-0.2-1.2-0.3c-0.5-0.1-1-0.2-1.5-0.2s-1-0.1-1.5,0s-0.9,0.1-1.3,0.3
	c-0.7,0.3-1.1,0.6-1.1,0.6v0.1C90,258.2,90.5,258.2,91.3,258.1z"/>
<path fill="#231F20" d="M100.1,258.1c0-0.1-0.5-0.4-1.2-1s-1.7-1.4-2.6-2.3c-0.5-0.4-0.8-0.9-1.2-1.3c-0.2-0.2-0.4-0.4-0.6-0.6
	c-0.2-0.2-0.4-0.4-0.5-0.5c-0.3-0.3-0.5-0.6-0.7-0.8s-0.3-0.3-0.3-0.3h-0.1c0,0,0,0.1,0.2,0.4c0,0.1,0.1,0.3,0.2,0.5
	s0.2,0.4,0.3,0.6c0.3,0.4,0.6,0.9,1,1.3c0.4,0.4,0.9,0.8,1.4,1.2c1,0.8,2,1.5,2.8,2C99.6,257.8,100.1,258.1,100.1,258.1z"/>
<path fill="#231F20" d="M97.9,248c-0.1,0-0.1,0.1-0.3,0.3c-0.1,0.2-0.2,0.5-0.4,0.9c-0.1,0.4-0.1,0.9-0.1,1.4c0.1,0.5,0.2,1,0.4,1.5
	c0.7,2.1,2.1,3.7,2.1,3.7h0.1c0,0-0.3-0.4-0.6-1.2c-0.3-0.7-0.7-1.7-1-2.7c-0.2-1-0.3-2-0.3-2.7c0-0.4,0-0.7,0-0.9
	C97.9,248.1,97.9,248,97.9,248z"/>
<path fill="#231F20" d="M110,287.9c0,0.4-0.1,0.8-0.2,1.2c-0.1,0.4-0.2,0.9-0.3,1.4c-0.2,0.5-0.3,0.9-0.5,1.3s-0.2,0.8-0.4,1.2
	c-0.3,0.7-0.4,1.2-0.4,1.2h0.1c0,0,0.4-0.3,0.8-1c0.2-0.3,0.4-0.7,0.6-1.2c0.2-0.4,0.2-1,0.3-1.5c0.1-0.5,0.1-1,0.2-1.5
	c0-0.5,0-0.9,0-1.3c0-0.5-0.1-1-0.1-1C110,286.7,110.1,287.2,110,287.9z"/>
<path fill="#231F20" d="M114.8,291.7c-0.1-0.2-0.2-0.4-0.4-0.6c-0.1-0.2-0.3-0.4-0.4-0.7c-0.3-0.5-0.7-1-1-1.5
	c-0.6-1.1-1.2-2.2-1.6-3s-0.7-1.4-0.7-1.4h-0.1c0,0,0.2,0.6,0.5,1.5s0.8,2,1.3,3.2c0.3,0.6,0.6,1.1,0.9,1.7c0.3,0.5,0.7,0.9,1,1.3
	c0.1,0.2,0.4,0.3,0.5,0.4c0.2,0.1,0.3,0.2,0.4,0.3c0.2,0.2,0.4,0.2,0.4,0.2V293c0,0-0.1-0.1-0.2-0.4
	C115.3,292.4,115,292.1,114.8,291.7z"/>
<path fill="#231F20" d="M119.6,288.9c-0.2,0-0.5-0.1-0.9-0.2c-0.7-0.2-1.7-0.5-2.6-1s-1.7-1.1-2.4-1.6c-0.6-0.5-1-0.9-1-0.9h-0.1
	c0,0,1.3,1.7,3.1,2.9c0.4,0.3,0.9,0.6,1.4,0.8s1,0.2,1.4,0.3c0.4,0,0.8,0,1-0.1s0.4-0.1,0.4-0.1v-0.1
	C119.9,289,119.8,288.9,119.6,288.9z"/>
<path fill="#231F20" d="M125.7,272.5c0,0.1,0.3,0.2,0.7,0.5v-0.2C125.9,272.6,125.7,272.5,125.7,272.5z"/>
<path fill="#231F20" d="M126.4,271c-0.3,0-0.6,0-0.9,0c-0.9,0-1.6-0.1-1.6-0.1v0.1c0,0,0.6,0.1,1.5,0.3c0.3,0,0.6,0.1,1,0.1V271z"/>
<path fill="#231F20" d="M125.7,269.5c0,0.1,0.3,0,0.7-0.1v-0.2C125.9,269.4,125.7,269.5,125.7,269.5z"/>
</svg>
