<?xml version="1.0" encoding="utf-8"?>
<!-- Generator: Adobe Illustrator 18.0.0, SVG Export Plug-In . SVG Version: 6.00 Build 0)  -->
<!DOCTYPE svg PUBLIC "-//W3C//DTD SVG 1.1//EN" "http://www.w3.org/Graphics/SVG/1.1/DTD/svg11.dtd">
<svg version="1.1" id="content" xmlns="http://www.w3.org/2000/svg" xmlns:xlink="http://www.w3.org/1999/xlink" x="0px" y="0px"
	 width="500px" height="500px" viewBox="0 0 500 500" enable-background="new 0 0 500 500" xml:space="preserve">
<rect id="position" x="0.5" y="0.5" display="none" fill="none" stroke="#000000" width="499" height="499"/>
<g id="bounds" display="none">
	<rect x="-0.1" y="80.3" display="inline" fill="none" stroke="#EAEAEA" stroke-miterlimit="10" width="499.5" height="499.5"/>
</g>
<g>
	<path d="M306.9,212.4l10.9-15.7c-3-1.8-6-3.6-9.7-5.4l-12.7,21.2C299.7,212.4,303.3,212.4,306.9,212.4z"/>
	<path d="M359.5,232.9c-2.4-3-4.8-5.4-7.3-8.5l-8.5,9.1c1.8,3,3.6,6,4.8,9.7L359.5,232.9z"/>
	<path d="M219.8,219.6l-8.5-39.3c-3.6,0.6-7.3,1.8-10.3,2.4l9.1,30.8C213.2,215.4,216.2,217.2,219.8,219.6z"/>
	<path d="M166,214.8l-6-13.3c-3,1.8-6,4.2-9.1,6l4.8,10.9C159.3,217.2,163,216,166,214.8z"/>
	<path d="M266.4,178.5c-3.6-0.6-7.3-1.2-10.9-1.2l-4.2,72c1.8-6.7,4.8-13.3,8.5-18.7L266.4,178.5z"/>
	<path d="M353.5,429.5L310,390.8c-1.2,1.2-2.4,3-3.6,4.2l39.9,42.3C348.6,434.9,351.1,431.9,353.5,429.5z"/>
	<path d="M281.5,419.2l18.1,48.4c3.6-1.2,6.7-3,10.3-4.8L286.3,415C284.5,416.2,282.7,418,281.5,419.2z"/>
	<path d="M382.5,382.3l-26.6-11.5c-1.2,1.8-2.4,3.6-3.6,4.8l25.4,16.9C379.5,389,381.3,385.3,382.5,382.3z"/>
	<path d="M79.6,309.3l48.3-5.8c-0.1-1.4-0.5-3.2-0.6-4.6l-48.5,1.5C78.9,303.2,79.4,306.4,79.6,309.3z"/>
	<path d="M127.6,265.7l-32.7-16.4c-1.7,2.5-2.7,5-4,7.8l35.7,13.3C127.1,268.9,127.4,267,127.6,265.7z"/>
	<path d="M109,353.1l24.3-15.8c-0.8-2-1.7-4-2-5.7l-28.2,11.7C105.2,346.9,107.2,350.5,109,353.1z"/>
	<path d="M163.3,441.3l25.4-16.9c-1.2-1.2-2.4-3-3.6-4.8L158.4,431C159.6,434,161.5,437.7,163.3,441.3z"/>
	<path d="M245.2,447l0.6,31.4c3.6,0,7.9,0,11.5-0.6l-3.6-36.3C250.1,444,247,445.8,245.2,447z"/>
	<path d="M208.3,423.4l-16.9,46c3.6,1.2,7.3,2.4,10.9,3.6l12.1-44.1C212.6,427.1,210.7,425.3,208.3,423.4z"/>
	<path d="M266.4,340.6c-0.6-17.5-29.6-16.9-29,0.6C237.4,358.1,267,357.5,266.4,340.6z M260.9,340.6c0.6,12.1-17.5,12.7-18.1,0.6
		C242.2,328.5,260.3,328.5,260.9,340.6z"/>
	<path d="M299,352.7c-1.8-5.4-2.4-12.7-3-18.7c0-4.2,0.6-3.6,4.2-0.6c6,4.8,5.4,6.7,15.1,12.1c3-1.8,3-23,3-23s7.9,12.1,13.3,16.9
		c2.4,1.8,1.8,1.2,5.4-0.6c-2.4-6-12.1-20-18.7-23.6c-7.3-3.6-6,21.2-6,21.2s-15.7-12.7-16.9-12.7c-6-1.2-4.2,24.2-1.8,30.2
		C295.4,353.3,297.2,353.3,299,352.7z"/>
	<path d="M174.5,370.2c0,0-0.6-13.3-0.6-18.7c0-3.6,0.6-3,4.8,0c6,5.4,4.8,6.7,13.9,12.7c3-1.8,4.8-21.2,4.8-21.2
		s6.7,12.1,11.5,16.9c1.8,1.8,1.8,1.2,5.4,0c-1.8-6-10.3-19.4-16.3-23.6c-7.3-4.2-7.9,19.4-7.9,19.4s-14.5-13.3-15.7-13.3
		c-6-1.2-7.3,23.6-5.4,29C170.8,370.8,174.5,370.2,174.5,370.2z"/>
	<path d="M396.4,315.2l14.5-30.2l-4.2,0.6c-17.5,3.6-25.4,6.7-36.9,12.1v-7.3l16.3-9.1c-1.2-3.6-2.4-7.3-3.6-10.3l-12.7,7.3v-8.5
		l-17.5,14.5c0-95.6-104-69.6-104-6c0-63.5-110.7-86.5-110.7,4.2c0,19.4,4.2,38.4,13.3,55.5l-9.7,6.8c-1.8,1.2-3.6,2.4-5.4,3.6
		l-1.2,0.6v21c-15.3,7.9-38.3,21.2-49.5,29.5l-3.3,2.8l32.2,9.3l3.8,36.6l3.2-3.6c0.4-0.5,0.4-0.5,0.8-0.9
		c29-32.5,62.3-34.4,62.3-34.4l5.2,0.6l-21.1-21.6l3.3-1.6c2.4-1.2,5.4-2.4,8.5-3.6c29.6,35.7,64.7,57.5,64.7,57.5
		s47.8-29.6,79.8-76.8c6.7-3,13.3-6,18.7-9.7l1.8,16.3l3-4.2c0,0,23.6-23.6,67.1-23.6c0.6,0,0.6,0,1.2,0h4.8L396.4,315.2z
		 M173.7,399.1l6.4,6.5c-10.6,1.9-36.3,8.9-59.4,32.9l-3-30.2l-27-7.9c9.4-7,29.6-17.9,43.9-24.9v38.2v7.3l3.6-6.7
		c2.3-3.5,9.8-14.9,26.6-24.4C168.2,393.5,171.4,396.8,173.7,399.1z M343.2,349.1l-0.6,0.6c-6,3.6-21.2,10.3-21.2,10.3
		c-16.9,7.3-36.3,12.1-59.9,12.1c-4.8,0-10.3,0-15.1-0.6c-6.7-0.6-12.7-1.2-19.4-1.2c-28,0-48.2,6.4-62.6,14.2
		c-1.1,0.6-2.3,1.2-3.3,1.8c-11.4,6.8-18.7,14.3-23,19.7v-32.1v-5.7v-17.3c26.6-16.3,59.3-33.9,107.7-33.9
		c70.8,0,107.7-27.2,118.5-36.9v0.6V291v44.1l-0.6,0.6C358.3,340,351.1,344.8,343.2,349.1z M348,360.5l-0.6-9.1
		c7.3-4.2,13.9-8.5,19.4-12.7l3-1.8v-35.1c11.5-5.4,18.7-8.5,33.9-11.5l-12.1,25.4l20.6,22.4C378.9,339.4,356.5,353.9,348,360.5z"/>
</g>
</svg>
