<?xml version="1.0" encoding="utf-8"?>
<!-- Generator: Adobe Illustrator 18.0.0, SVG Export Plug-In . SVG Version: 6.00 Build 0)  -->
<!DOCTYPE svg PUBLIC "-//W3C//DTD SVG 1.1//EN" "http://www.w3.org/Graphics/SVG/1.1/DTD/svg11.dtd">
<svg version="1.1" id="content" xmlns="http://www.w3.org/2000/svg" xmlns:xlink="http://www.w3.org/1999/xlink" x="0px" y="0px"
	 width="500px" height="500px" viewBox="0 0 500 500" enable-background="new 0 0 500 500" xml:space="preserve">
<rect id="position" x="0.5" y="0.5" display="none" fill="none" stroke="#000000" width="499" height="499"/>
<g>
	<path fill="#154158" d="M361,199.9"/>
	<g>
		<rect x="179.4" y="173.2" fill="#E8E7E6" width="134.7" height="308.5"/>
		<path fill="#AD9230" d="M382.7,352.3V196.8c0-13-10.3-23.6-22.9-23.7h-62.9l-46.6,83.2l-46.6-83H166c-0.3,0-0.6,0-0.9,0
			c-12.1,0.6-48.2,10.9-48.2,23.5l0.1,0.3c0,0,0.2,2,1.7,28.2c0.5,8-0.8,19.8-2.1,31.5v45c1.7,19.7,1.6,38.4,1.2,51.4l-1.2,128.5
			l133.9-109.2l132.6,109.2L382.7,352.3z"/>
		<g>
			<rect x="116.6" y="173.2" fill="#9E1D45" width="85.3" height="308.5"/>
			<polygon fill="#771733" points="201.9,173.4 201.9,268.1 174.4,225 185.5,212.6 171.5,195.6 181.2,173.2 			"/>
		</g>
		<g>
			<circle fill="#0F1010" cx="250.1" cy="269.4" r="5.8"/>
			<circle fill="#0F1010" cx="250.1" cy="299.4" r="5.8"/>
			<circle fill="#0F1010" cx="250.1" cy="329.5" r="5.8"/>
		</g>
		<path fill="#E8E4E2" d="M258.1,213.2h-15.3h-33.5v10.2v9.1l0.1,0.1c0.4,4.9,4.4,8.8,9.4,8.8c0.1,0,0.2,0,0.3,0
			c3,0.2,6.1-0.8,8.4-3.1c4.2-4.2,11.1-4.2,15.3,0l0,0c2.1,2.1,4.9,3.2,7.7,3.2s5.5-1.1,7.7-3.2l0,0c4.2-4.2,11.1-4.2,15.3,0
			c2.3,2.3,5.3,3.3,8.2,3.1c0.1,0,0.1,0,0.2,0c4.8,0,8.8-3.6,9.4-8.3l0.1-0.3v-9.7v-9.9L258.1,213.2L258.1,213.2z"/>
		<path fill="#D1D2D2" d="M258.1,200.9h-15.3h-33.5v10.2v9.1l0.1,0.1c0.4,4.9,4.4,8.8,9.4,8.8c0.1,0,0.2,0,0.3,0
			c3,0.2,6.1-0.8,8.4-3.1c4.2-4.2,11.1-4.2,15.3,0l0,0c2.1,2.1,4.9,3.2,7.7,3.2s5.5-1.1,7.7-3.2l0,0c4.2-4.2,11.1-4.2,15.3,0
			c2.3,2.3,5.3,3.3,8.2,3.1c0.1,0,0.1,0,0.2,0c4.8,0,8.8-3.6,9.4-8.3l0.1-0.3v-9.7v-9.9L258.1,200.9L258.1,200.9z"/>
		<path fill="#E5E5E4" d="M260.2,173.2h-19.4H202V205c5.4,5.4,14,5.4,19.4,0s14-5.4,19.4,0l0,0c2.7,2.7,6.2,4,9.7,4s7-1.3,9.7-4l0,0
			c5.4-5.3,14-5.3,19.4,0c5.4,5.4,14,5.4,19.4,0v-31.8H260.2z"/>
		<g>
			<polygon fill="#9E1D45" points="298.2,481.7 298.2,173.2 382.7,173.2 383.1,481.7 			"/>
			<polygon fill="#771733" points="298.2,173.4 298.2,268.1 325.7,225 314.7,212.6 328.7,195.6 318.9,173.2 			"/>
		</g>
	</g>
</g>
</svg>
