<?xml version="1.0" encoding="utf-8"?>
<!-- Generator: Adobe Illustrator 18.0.0, SVG Export Plug-In . SVG Version: 6.00 Build 0)  -->
<!DOCTYPE svg PUBLIC "-//W3C//DTD SVG 1.1//EN" "http://www.w3.org/Graphics/SVG/1.1/DTD/svg11.dtd">
<svg version="1.1" id="content" xmlns="http://www.w3.org/2000/svg" xmlns:xlink="http://www.w3.org/1999/xlink" x="0px" y="0px"
	 width="500px" height="500px" viewBox="0 0 500 500" enable-background="new 0 0 500 500" xml:space="preserve">
<rect id="position" x="0.5" y="0.5" display="none" fill="none" stroke="#000000" width="499" height="499"/>
<g>
	<path d="M381.7,251.7c0-28.9-29.6-52.3-66.2-52.3c-14,0-27,3.4-37.7,9.3l-28.3,108.4l-28.8-108.4c-10.7-5.9-23.7-9.3-37.7-9.3
		c-36.6,0-66.2,23.4-66.2,52.3l0,0c0,76.4-0.3,229.7-0.3,229.7H383c0,0-1-151.5-1-229.7L381.7,251.7L381.7,251.7z"/>
	<polygon fill="#929596" enable-background="new    " points="220.7,208.2 220.8,208.7 249.6,317.2 277.8,208.7 278,208.2 	"/>
</g>
</svg>
