<?xml version="1.0" encoding="utf-8"?>
<!-- Generator: Adobe Illustrator 18.0.0, SVG Export Plug-In . SVG Version: 6.00 Build 0)  -->
<!DOCTYPE svg PUBLIC "-//W3C//DTD SVG 1.1//EN" "http://www.w3.org/Graphics/SVG/1.1/DTD/svg11.dtd">
<svg version="1.1" id="content" xmlns="http://www.w3.org/2000/svg" xmlns:xlink="http://www.w3.org/1999/xlink" x="0px" y="0px"
	 width="500px" height="500px" viewBox="0 0 500 500" enable-background="new 0 0 500 500" xml:space="preserve">
<g id="bounds" display="none">
	<rect x="0" y="74" display="inline" fill="none" stroke="#EAEAEA" stroke-miterlimit="10" width="499.5" height="499.5"/>
</g>
<rect id="position" display="none" fill="none" stroke="#000000" width="500" height="500"/>
<path fill="#CE93D8" d="M319.6,179.8h-16.2c0,25.5-23.9,46.2-53.4,46.2c-29.4,0-53.4-20.7-53.4-46.2h-16.2
	c0,44.5-14.9,80.6-33.3,80.6l-0.1,157.9h205.8V260.5C334.5,260.5,319.6,224.4,319.6,179.8z"/>
<path fill="#CE93D8" d="M353,422.1c0-3.5-2.5-6.4-5.7-6.4H152.5c-3.1,0-5.7,2.8-5.7,6.4l0,0l0,0v29.9c0,3.1,2.5,5.7,5.7,5.7h194.8
	c3.1,0,5.7-2.5,5.7-5.7V422.1L353,422.1L353,422.1z"/>
<g>
	<rect x="99.4" y="391.7" fill="#FCE4EC" width="302" height="41.6"/>
	<path fill="#F8BBD0" d="M149.8,391.7c0,20.5-11.2,37.1-25.2,37.1c-13.9,0-25.2-16.6-25.2-37.1"/>
	<path fill="#F8BBD0" d="M200,391.7c0,20.5-11.2,37.1-25.2,37.1c-13.9,0-25.2-16.6-25.2-37.1"/>
	<path fill="#F8BBD0" d="M250.3,391.7c0,20.5-11.2,37.1-25.2,37.1c-13.9,0-25.2-16.6-25.2-37.1"/>
	<path fill="#F8BBD0" d="M300.7,391.7c0,20.5-11.2,37.1-25.2,37.1c-14,0-25.2-16.6-25.2-37.1"/>
	<path fill="#F8BBD0" d="M351,391.7c0,20.5-11.2,37.1-25.2,37.1c-13.9,0-25.2-16.6-25.2-37.1"/>
	<path fill="#F8BBD0" d="M401.3,391.7c0,20.5-11.2,37.1-25.2,37.1c-13.9,0-25.2-16.6-25.2-37.1"/>
</g>
</svg>
