<?xml version="1.0" encoding="utf-8"?>
<!-- Generator: Adobe Illustrator 18.0.0, SVG Export Plug-In . SVG Version: 6.00 Build 0)  -->
<!DOCTYPE svg PUBLIC "-//W3C//DTD SVG 1.1//EN" "http://www.w3.org/Graphics/SVG/1.1/DTD/svg11.dtd">
<svg version="1.1" id="content" xmlns="http://www.w3.org/2000/svg" xmlns:xlink="http://www.w3.org/1999/xlink" x="0px" y="0px"
	 width="500px" height="500px" viewBox="0 0 500 500" enable-background="new 0 0 500 500" xml:space="preserve">
<g id="bounds" display="none">
	<rect x="-0.1" y="80.3" display="inline" fill="none" stroke="#EAEAEA" stroke-miterlimit="10" width="499.5" height="499.5"/>
</g>
<rect id="position" x="0.5" y="0.5" display="none" fill="none" stroke="#000000" width="499" height="499"/>
<g>
	<path fill="#C7DEFF" d="M373.9,192l-18.7-14.3h-65.9l-8.6,21.4c-7.4,4.2-14,7.9-14,11.4c0,7.8-15.5,18.8-15.5,18.8
		s-15.5-10.8-15.5-18.7c0-3.9-8-8-16.2-12.7l-7.8-20.2h-67.1L126,192l-55.7,71v68h61.3v-49.9l15.2-5.1v206.6h206.5V276.1l15.1,5V331
		h61.3v-68L373.9,192z"/>
	<g>
		<polygon fill="#C7DEFF" points="153.6,177.9 345,177.7 344.6,482.6 150.6,482.6 		"/>
		<path fill="#EBECEB" d="M250.3,177.7h29.1c0,0,0.3,4.1-4.5,7.9c-4.8,3.7-11.5,2.8-11.5,2.8l-13.1,43.9l-13.1-43.9
			c0,0-6.7,0.9-11.5-2.8s-4.5-7.9-4.5-7.9H250.3z"/>
		<path fill="#A7D0EF" d="M225.7,185.6c-4.3-3.3-4.5-7-4.5-7.7c-5.2,0-12.8,0-20.9,0c-10.5,17.3,10.9,32.9,10.9,32.9l25.9-22.4
			C237.2,188.4,230.4,189.3,225.7,185.6z"/>
		<path fill="#A7D0EF" d="M274.9,185.6c4.3-3.3,4.5-7,4.5-7.7c5.2,0,12.8,0,20.9,0c10.5,17.3-10.9,32.9-10.9,32.9l-25.9-22.4
			C263.4,188.4,270.2,189.3,274.9,185.6z"/>
		<polygon fill="#9B918B" points="238.1,191 215.4,212.1 213.1,209 237.2,188.4 		"/>
		<polygon fill="#9B918B" points="262.5,191 285.2,212.1 287.5,209 263.4,188.4 		"/>
		<g>
			<path fill="#DED7D2" d="M231.4,210.7c4,0,7.2,2.8,7.2,6.2s-3.2,6.2-7.2,6.2s-7.2-2.8-7.2-6.2S227.4,210.7,231.4,210.7z"/>
			<path fill="#CAC3BF" d="M231.4,213.1c2.4,0,4.4,1.7,4.4,3.8s-2,3.8-4.4,3.8s-4.4-1.7-4.4-3.8S229,213.1,231.4,213.1z"/>
			<path fill="#948880" d="M229.5,217.2c0.4,0,0.7,0.3,0.7,0.6c0,0.4-0.3,0.6-0.7,0.6s-0.7-0.3-0.7-0.6S229.1,217.2,229.5,217.2z"/>
			<path fill="#948880" d="M232.8,215.4c0.4,0,0.7,0.3,0.7,0.6c0,0.4-0.3,0.6-0.7,0.6s-0.7-0.3-0.7-0.6S232.4,215.4,232.8,215.4z"/>
		</g>
		<g>
			<path fill="#DED7D2" d="M231.4,236.7c4,0,7.2,2.8,7.2,6.2s-3.2,6.2-7.2,6.2s-7.2-2.8-7.2-6.2S227.4,236.7,231.4,236.7z"/>
			<ellipse fill="#CAC3BF" cx="231.4" cy="242.9" rx="4.4" ry="3.8"/>
			<ellipse fill="#948880" cx="229.5" cy="243.8" rx="0.7" ry="0.6"/>
			<path fill="#948880" d="M232.8,241.4c0.4,0,0.7,0.3,0.7,0.6c0,0.4-0.3,0.6-0.7,0.6s-0.7-0.3-0.7-0.6S232.4,241.4,232.8,241.4z"/>
		</g>
		<g>
			<path fill="#DED7D2" d="M231.4,264.2c4,0,7.2,2.8,7.2,6.2c0,3.4-3.2,6.2-7.2,6.2s-7.2-2.8-7.2-6.2S227.4,264.2,231.4,264.2z"/>
			<ellipse fill="#CAC3BF" cx="231.4" cy="270.4" rx="4.4" ry="3.8"/>
			<ellipse fill="#948880" cx="229.5" cy="271.3" rx="0.7" ry="0.6"/>
			<path fill="#948880" d="M232.8,268.9c0.4,0,0.7,0.3,0.7,0.6c0,0.4-0.3,0.6-0.7,0.6s-0.7-0.3-0.7-0.6
				C232.1,269.1,232.4,268.9,232.8,268.9z"/>
		</g>
		<g>
			<ellipse fill="#DED7D2" cx="231.4" cy="296.2" rx="7.2" ry="6.2"/>
			<ellipse fill="#CAC3BF" cx="231.4" cy="296.2" rx="4.4" ry="3.8"/>
			<path fill="#948880" d="M229.3,295.7c0.4,0,0.7,0.3,0.7,0.6c0,0.3-0.3,0.6-0.7,0.6s-0.7-0.3-0.7-0.6
				C228.5,296,228.8,295.7,229.3,295.7z"/>
			<path fill="#948880" d="M233.1,295.3c0.4,0,0.7,0.3,0.7,0.6s-0.3,0.6-0.7,0.6s-0.7-0.3-0.7-0.6S232.7,295.3,233.1,295.3z"/>
		</g>
		<g>
			<path fill="#DED7D2" d="M231.4,356.9c4,0,7.2,2.8,7.2,6.2c0,3.4-3.2,6.2-7.2,6.2s-7.2-2.8-7.2-6.2
				C224.2,359.7,227.4,356.9,231.4,356.9z"/>
			<path fill="#CAC3BF" d="M231.4,359.3c2.4,0,4.4,1.7,4.4,3.8c0,2.1-2,3.8-4.4,3.8s-4.4-1.7-4.4-3.8S229,359.3,231.4,359.3z"/>
			<ellipse fill="#948880" cx="232.6" cy="361.5" rx="0.7" ry="0.6"/>
			<path fill="#948880" d="M230.6,363.8c0.4,0,0.7,0.3,0.7,0.6c0,0.3-0.3,0.6-0.7,0.6s-0.7-0.3-0.7-0.6
				C229.9,364,230.2,363.8,230.6,363.8z"/>
		</g>
		<g>
			<path fill="#DED7D2" d="M231.4,390.4c4,0,7.2,2.8,7.2,6.2c0,3.4-3.2,6.2-7.2,6.2s-7.2-2.8-7.2-6.2
				C224.2,393.2,227.4,390.4,231.4,390.4z"/>
			<path fill="#CAC3BF" d="M231.4,392.8c2.4,0,4.4,1.7,4.4,3.8c0,2.1-2,3.8-4.4,3.8s-4.4-1.7-4.4-3.8S229,392.8,231.4,392.8z"/>
			<path fill="#948880" d="M229.5,396.9c0.4,0,0.7,0.3,0.7,0.6c0,0.4-0.3,0.6-0.7,0.6s-0.7-0.3-0.7-0.6
				C228.8,397.2,229.1,396.9,229.5,396.9z"/>
			<path fill="#948880" d="M232.8,395.1c0.4,0,0.7,0.3,0.7,0.6c0,0.4-0.3,0.6-0.7,0.6s-0.7-0.3-0.7-0.6
				C232.1,395.3,232.4,395.1,232.8,395.1z"/>
		</g>
		<g>
			<path fill="#DED7D2" d="M231.4,322.4c4,0,7.2,2.8,7.2,6.2c0,3.4-3.2,6.2-7.2,6.2s-7.2-2.8-7.2-6.2
				C224.2,325.2,227.4,322.4,231.4,322.4z"/>
			<ellipse fill="#CAC3BF" cx="231.4" cy="328.6" rx="4.4" ry="3.8"/>
			<path fill="#948880" d="M230.3,326.4c0.4,0,0.7,0.3,0.7,0.6c0,0.3-0.3,0.6-0.7,0.6s-0.7-0.3-0.7-0.6
				C229.6,326.6,229.9,326.4,230.3,326.4z"/>
			<path fill="#948880" d="M232.4,329.2c0.4,0,0.7,0.3,0.7,0.6c0,0.4-0.3,0.6-0.7,0.6s-0.7-0.3-0.7-0.6
				C231.7,329.4,232,329.2,232.4,329.2z"/>
		</g>
		<path fill="#9B918B" d="M250.8,231.9c0-0.3-0.2-0.6-0.5-0.6s-0.5,0.2-0.5,0.6v250.7h1V231.9z"/>
	</g>
</g>
<polygon fill="#EBECEB" points="332.1,231.2 332.1,177.7 308.6,177.7 308.6,231 191.3,231 191.3,177.7 167.6,177.7 167.6,232 
	146.8,330.4 146.8,482.6 353.3,482.6 353.2,330.4 "/>
</svg>
