<?xml version="1.0" encoding="utf-8"?>
<!-- Generator: Adobe Illustrator 18.0.0, SVG Export Plug-In . SVG Version: 6.00 Build 0)  -->
<!DOCTYPE svg PUBLIC "-//W3C//DTD SVG 1.1//EN" "http://www.w3.org/Graphics/SVG/1.1/DTD/svg11.dtd">
<svg version="1.1" id="content" xmlns="http://www.w3.org/2000/svg" xmlns:xlink="http://www.w3.org/1999/xlink" x="0px" y="0px"
	 width="500px" height="500px" viewBox="0 0 500 500" enable-background="new 0 0 500 500" xml:space="preserve">
<rect id="position" x="0.5" y="0.5" display="none" fill="none" stroke="#000000" width="499" height="499"/>
<g id="bounds" display="none">
	<rect x="-0.2" y="80.4" display="inline" fill="none" stroke="#EAEAEA" stroke-miterlimit="10" width="499.5" height="499.5"/>
</g>
<g>
	<path fill="#9E1D45" d="M373.5,190l-20.2-14.3v-0.1l-207.4-0.1v0.1L125.7,190L70,261v111.1h61.2v-93l14.7-5.4v207h207.3v-207
		l14.7,5.4v93h61.3V261L373.5,190z"/>
	<rect x="179.6" y="175.5" fill="#E8E7E6" width="134.7" height="308.5"/>
	<polygon fill="#771733" points="131,385.2 71.2,385.2 64.2,351.5 137.9,351.5 	"/>
	<polygon fill="#771733" points="428.7,385.2 368.8,385.2 361.9,351.5 435.6,351.5 	"/>
	<polygon fill="#9E1D45" points="202,175.6 202,175.5 181.3,175.5 191.7,175.6 	"/>
	<polygon fill="#9E1D45" points="174.5,227.3 185.7,214.9 171.7,197.9 181.3,175.6 181.3,175.5 145.7,175.5 145.7,179.7 
		145.7,460.4 145.7,484 202,484 202,414.4 202,270.4 	"/>
	<polygon fill="#9E1D45" points="202,175.6 202,175.5 191.7,175.5 	"/>
	<polygon fill="#771733" points="191.7,175.6 181.3,175.5 181.3,175.6 	"/>
	<polygon fill="#771733" points="181.3,175.5 171.7,197.8 185.7,214.8 174.5,227.2 202,270.3 202,175.6 191.7,175.5 	"/>
	<polygon fill="#AD9230" points="297,175.5 250.5,258.6 203.8,175.5 202,175.5 202,175.6 202,270.3 202,414.3 250.6,374.7 
		250.7,374.9 298.4,414.2 298.4,270.5 298.4,175.8 298.4,175.6 319,175.6 353.2,175.6 353.2,175.5 	"/>
	<polygon fill="#9E1D45" points="298.4,175.7 319,175.5 298.4,175.5 	"/>
	<g>
		<circle fill="#0F1010" cx="250.2" cy="271.8" r="5.8"/>
		<circle fill="#0F1010" cx="250.2" cy="301.8" r="5.8"/>
		<circle fill="#0F1010" cx="250.2" cy="331.9" r="5.8"/>
	</g>
	<path fill="#E8E4E2" d="M258.2,215.6h-15.3h-33.5v10.2v9.1l0.1,0.1c0.4,4.9,4.4,8.8,9.4,8.8c0.1,0,0.2,0,0.3,0
		c3,0.2,6.1-0.8,8.4-3.1c4.2-4.2,11.1-4.2,15.3,0l0,0c2.1,2.1,4.9,3.2,7.7,3.2s5.5-1.1,7.7-3.2l0,0c4.2-4.2,11.1-4.2,15.3,0
		c2.3,2.3,5.3,3.3,8.2,3.1c0.1,0,0.1,0,0.2,0c4.8,0,8.8-3.6,9.4-8.3l0.1-0.3v-9.7v-9.9L258.2,215.6L258.2,215.6z"/>
	<path fill="#D1D2D2" d="M258.2,203.3h-15.3h-33.5v10.2v9.1l0.1,0.1c0.4,4.9,4.4,8.8,9.4,8.8c0.1,0,0.2,0,0.3,0
		c3,0.2,6.1-0.8,8.4-3.1c4.2-4.2,11.1-4.2,15.3,0l0,0c2.1,2.1,4.9,3.2,7.7,3.2s5.5-1.1,7.7-3.2l0,0c4.2-4.2,11.1-4.2,15.3,0
		c2.3,2.3,5.3,3.3,8.2,3.1c0.1,0,0.1,0,0.2,0c4.8,0,8.8-3.6,9.4-8.3l0.1-0.3v-9.7v-9.9L258.2,203.3L258.2,203.3z"/>
	<path fill="#E5E5E4" d="M260.4,175.5H241h-38.8v31.8c5.4,5.4,14,5.4,19.4,0s14-5.4,19.4,0l0,0c2.7,2.7,6.2,4,9.7,4s7-1.3,9.7-4l0,0
		c5.4-5.3,14-5.3,19.4,0c5.4,5.4,14,5.4,19.4,0v-31.8H260.4z"/>
	<polygon fill="#9E1D45" points="319,175.5 328.9,197.9 314.9,214.9 325.9,227.3 298.4,270.4 298.4,414.1 298.4,484 353.2,484 
		353.2,459.3 353.2,175.5 	"/>
	<polygon fill="#771733" points="298.4,270.4 325.9,227.3 314.9,214.9 328.9,197.9 319,175.5 298.4,175.7 	"/>
</g>
</svg>
