<?xml version="1.0" encoding="utf-8"?>
<!-- Generator: Adobe Illustrator 18.0.0, SVG Export Plug-In . SVG Version: 6.00 Build 0)  -->
<!DOCTYPE svg PUBLIC "-//W3C//DTD SVG 1.1//EN" "http://www.w3.org/Graphics/SVG/1.1/DTD/svg11.dtd">
<svg version="1.1" id="content" xmlns="http://www.w3.org/2000/svg" xmlns:xlink="http://www.w3.org/1999/xlink" x="0px" y="0px"
	 width="500px" height="500px" viewBox="0 0 500 500" enable-background="new 0 0 500 500" xml:space="preserve">
<rect id="position" x="0.5" y="0.5" display="none" fill="none" stroke="#000000" width="499" height="499"/>
<g id="bounds" display="none">
	<rect x="-0.1" y="80.3" display="inline" fill="none" stroke="#EAEAEA" stroke-miterlimit="10" width="499.5" height="499.5"/>
</g>
<g>
	<polygon fill="#C72127" points="140.2,175.8 110.1,206 140.2,256 	"/>
	<polygon fill="#C72127" points="364,175.8 394.1,206 364,256 	"/>
	<g>
		<path fill="#C72127" d="M318.7,175.8c-10.6,27.4-55.3,40.6-66.6,66.6l-66.6-66.6h-45.2v141.1l111.9-33.5L364,316.9V175.8H318.7z"
			/>
		<path opacity="0.25" fill="#700C05" d="M268.1,288.2l32,9.6v-98.9c-10.1,8.3-22.2,15.8-32,24.1V288.2z"/>
		<path opacity="0.25" fill="#700C05" d="M140.2,271.7H364v-32H253.4c-0.5,0.9-0.9,1.8-1.3,2.7l-2.7-2.7H140.2V271.7z"/>
		
			<ellipse transform="matrix(-0.7898 -0.6134 0.6134 -0.7898 336.0606 590.0596)" fill="#FFFFFF" cx="269.1" cy="237.4" rx="2.7" ry="3.8"/>
		
			<ellipse transform="matrix(-0.6513 -0.7588 0.7588 -0.6513 305.9801 583.8742)" fill="#FFFFFF" cx="287.1" cy="221.6" rx="2.7" ry="3.8"/>
		<circle fill="#FFFFFF" cx="252.8" cy="256.1" r="3.8"/>
		<polygon opacity="0.25" fill="#700C05" points="172.2,307.4 172.2,175.8 140.2,175.8 140.2,316.8 140.6,316.8 		"/>
		<polygon opacity="0.25" fill="#700C05" points="204.2,297.8 236.1,288.2 236.1,226.5 204.2,194.5 		"/>
		<polygon opacity="0.25" fill="#700C05" points="332,307.4 363.6,316.8 364,316.8 364,175.8 332,175.8 		"/>
		<g opacity="0.25">
			<polygon fill="#700C05" points="140.2,303.6 140.2,316.9 184.6,303.6 			"/>
			<polygon fill="#700C05" points="319.6,303.6 364,316.9 364,303.6 			"/>
		</g>
		<g opacity="0.25">
			<path fill="#700C05" d="M364,175.8h-45.2c-5,12.9-7.2,22.6-20.2,32H364V175.8z"/>
			<polygon fill="#700C05" points="140.2,207.8 207.2,207.8 185.5,175.8 140.2,175.8 			"/>
		</g>
		<path fill="#B40007" d="M222,212.3c-1.8-13.1-6.6-12.9-11.6-8.3C215.6,206.3,222,212.3,222,212.3z"/>
		<path opacity="0.1" d="M213.9,201.6c0,0-14.4-4.8-11.6-25.8h-6.1H172c0,0-7.7,29,25.7,55.9C197.6,231.7,206.2,204.4,213.9,201.6z"
			/>
		<path fill="#D34646" d="M215.6,201.2c0,0-13.7-0.8-11.9-25.4h-7.5h-22.3c0,0-8,24.6,22.5,49.2c0,0,6-12.3,12.3-19.3
			C209,205.5,212.9,201.7,215.6,201.2z"/>
		<path fill="#B40007" d="M282.3,212.3c1.8-13.1,7.3-13,12.4-8.1C289.4,206.5,282.3,212.3,282.3,212.3z"/>
		<path opacity="0.1" d="M290.3,201.6c0,0,13.9-2.3,12.3-25.8h5.4h24.3c0,0,7.7,29-25.7,55.9C306.6,231.7,298,204.4,290.3,201.6z"/>
		<path fill="#D34646" d="M288.7,201.2c0,0,13.7-0.8,11.9-25.4h7.5h22.3c0,0,8,24.6-22.5,49.2c0,0-6-12.3-12.3-19.3
			C295.3,205.5,291.4,201.7,288.7,201.2z"/>
		<path opacity="0.1" d="M276.4,300.9c-6.9-10.5-20.6-14-23.9-14.7c0-0.1,0-0.1,0-0.1s-0.1,0-0.4,0.1c-0.2,0-0.4-0.1-0.4-0.1
			s0,0.1,0,0.1c-3.3,0.7-17,4.2-23.9,14.7c-7.9,12-3.8,28.6-3.8,28.6s16.8-2.9,24.7-14.9c1.6-2.4,2.7-5,3.4-7.6
			c0.7,2.6,1.8,5.2,3.4,7.6c7.9,12,24.7,14.9,24.7,14.9S284.3,312.9,276.4,300.9z"/>
		<path fill="#C72127" d="M248.7,309.2c-7.9,12-24.7,14.9-24.7,14.9s-4.1-16.6,3.8-28.6c7.9-12,24.7-14.9,24.7-14.9
			S256.6,297.2,248.7,309.2z"/>
		<path fill="#D34646" d="M255.5,309.2c7.9,12,24.7,14.9,24.7,14.9s4.1-16.6-3.8-28.6c-7.9-12-24.7-14.9-24.7-14.9
			S247.6,297.2,255.5,309.2z"/>
		<circle opacity="0.1" cx="252.8" cy="286" r="14"/>
		<circle fill="#D34646" cx="252.8" cy="282.4" r="14"/>
	</g>
</g>
</svg>
