<?xml version="1.0" encoding="utf-8"?>
<!-- Generator: Adobe Illustrator 18.0.0, SVG Export Plug-In . SVG Version: 6.00 Build 0)  -->
<!DOCTYPE svg PUBLIC "-//W3C//DTD SVG 1.1//EN" "http://www.w3.org/Graphics/SVG/1.1/DTD/svg11.dtd">
<svg version="1.1" id="content" xmlns="http://www.w3.org/2000/svg" xmlns:xlink="http://www.w3.org/1999/xlink" x="0px" y="0px"
	 width="500px" height="500px" viewBox="0 0 500 500" enable-background="new 0 0 500 500" xml:space="preserve">
<g id="bounds" display="none">
	<rect x="-0.5" y="80.4" display="inline" fill="none" stroke="#EAEAEA" stroke-miterlimit="10" width="499.5" height="499.5"/>
</g>
<rect id="position" x="0.5" y="0.5" display="none" fill="none" stroke="#000000" width="499" height="499"/>
<g>
	<g>
		<path d="M353.4,258.8c0-22.6-23.2-41-51.9-41c-11,0-21.2,2.7-29.5,7.3L249.8,310l-22.6-84.9c-8.4-4.6-18.6-7.3-29.5-7.3
			c-28.7,0-51.9,18.3-51.9,41l0,0c0,59.9-0.2,180-0.2,180h208.8c0,0-0.8-118.7-0.8-180H353.4L353.4,258.8z"/>
		<polygon fill="#929596" enable-background="new    " points="227.2,224.7 227.3,225.1 249.9,310.1 272,225.1 272.1,224.7 		"/>
	</g>
	<path d="M145.6,430.5v19.7c0.8,12.4,7.9,19.5,15.5,19.5c7.7,0,173.7,0,179.8,0s13.5-8.9,13.5-17.7v-21.5H145.6z"/>
</g>
</svg>
