<?xml version="1.0" encoding="utf-8"?>
<!-- Generator: Adobe Illustrator 16.0.0, SVG Export Plug-In . SVG Version: 6.00 Build 0)  -->
<!DOCTYPE svg PUBLIC "-//W3C//DTD SVG 1.1//EN" "http://www.w3.org/Graphics/SVG/1.1/DTD/svg11.dtd">
<svg version="1.1" id="content" xmlns="http://www.w3.org/2000/svg" xmlns:xlink="http://www.w3.org/1999/xlink" x="0px" y="0px"
	 width="500px" height="500px" viewBox="0 0 500 500" enable-background="new 0 0 500 500" xml:space="preserve">
<g id="bounds" display="none">
	<rect x="-0.1" y="80.3" display="inline" fill="none" stroke="#EAEAEA" stroke-miterlimit="10" width="499.5" height="499.5"/>
</g>
<rect id="position" x="0.5" y="0.5" display="none" fill="none" stroke="#000000" width="499" height="499"/>
<g id="clothes">
	<rect x="145.8" y="174.653" fill="#B3362D" width="206.7" height="304.347"/>
	<polygon fill="#B3362D" points="145.8,257 145.8,174.489 143.6,174.489 125,191 69.3,262 69.3,330 120.6,330 120.6,280.1 	"/>
	<polygon fill="#B3362D" points="377.453,280.1 377.453,330 428.753,330 428.753,262 373.053,191 354.453,174.489 352.253,174.489 
		352.253,257 	"/>
	<path fill="#C7B4A1" d="M249.994,245.928c0,0,37.347-14.16,45.007-43.639c0-19.266,0-27.636,0-27.636h-45.007V245.928z"/>
	<polygon opacity="0.2" fill="#032B2A" points="249.816,187.081 269.933,208.436 300.108,180.8 249.994,180.8 	"/>
	<path fill="#E4B81D" d="M254.781,285.542h-1.857v-34.581l0.591-0.23c7.357-2.869,25.525-11.268,35.317-27.254l1.583,0.97
		c-9.831,16.052-27.759,24.638-35.634,27.781V285.542z"/>
	<polygon opacity="0.2" fill="#032B2A" points="249.974,285.542 215.665,285.542 215.665,292.383 249.974,292.383 284.323,292.383 
		284.323,285.542 	"/>
	<path opacity="0.2" fill="#032B2A" d="M352.5,195.209h-54.945c0,0-6.268,0-19.324,0c0,3.25,1.915,3.437,1.915,3.437h2.204h1.974
		v131.232l4.069,0.506c0.113,0.014,2.822,0.345,7.263,0.345c0.001,0,0,0,0.001,0c11.371,0,35.057-2.181,56.844-17.962V195.209z"/>
	<path fill="#C7B4A1" d="M249.994,245.928c0,0-37.347-14.16-45.007-43.639c0-19.266,0-27.636,0-27.636h45.007V245.928z"/>
	<path fill="#032B2A" d="M252.391,198.422l5.207-9.951l1.115-4.553l-8.719-2.841l-8.719,2.841l1.115,4.553l5.207,9.951
		l-11.015,40.768c7.551,4.514,13.411,6.737,13.411,6.737s5.86-2.224,13.411-6.737L252.391,198.422z"/>
	<polygon opacity="0.2" fill="#032B2A" points="250.174,187.081 230.056,208.436 199.881,180.8 249.994,180.8 	"/>
	<polygon fill="#DBC7B1" points="300.108,174.653 249.994,174.653 199.881,174.653 230.056,202.289 249.994,181.124 
		269.933,202.289 	"/>
	<path fill="#B3362D" d="M288.966,174.653v5.234h-9.207c-1.538,0-2.785,1.248-2.785,2.786v11.33c0,1.538,1.247,2.785,2.785,2.785
		h9.207v128.989c0,0,53.373,6.524,84.021-40.377c0-45.044,0-110.747,0-110.747H288.966z"/>
	<path opacity="0.2" fill="#032B2A" d="M372.987,219.073c0,0-6.027,0-32.489,0c-37.836,0-36.947-38.849-36.947-38.849h69.437
		V219.073z"/>
	<path fill="#A13029" d="M372.987,213.502c0,0-6.027,0-32.489,0c-37.836,0-36.947-38.849-36.947-38.849h69.437V213.502z"/>
	<path fill="#E4B81D" d="M372.987,214.895h-32.489c-11.374,0-20.491-3.427-27.098-10.187
		c-11.525-11.792-11.259-29.346-11.242-30.087l2.785,0.062c-0.004,0.17-0.241,17.155,10.464,28.092
		c6.062,6.193,14.504,9.333,25.091,9.333h32.489V214.895z"/>
	<path opacity="0.2" fill="#032B2A" d="M306.428,223.706c0.771-2.646-2.88-2.949-2.88-2.949c-0.827-0.248-1.361,0.786-1.361,0.786
		s-0.534-1.034-1.36-0.786c0,0-3.651,0.303-2.88,2.949c0.993,3.032,4.24,5.07,4.24,5.07S305.436,226.738,306.428,223.706z"/>
	<path opacity="0.2" fill="#032B2A" d="M296.737,226.327c-1.938-0.565-2.161,2.11-2.161,2.11c-0.181,0.606,0.576,0.998,0.576,0.998
		s-0.757,0.392-0.576,0.998c0,0,0.223,2.675,2.161,2.11c2.222-0.727,3.716-3.107,3.716-3.107S298.958,227.054,296.737,226.327z"/>
	<path opacity="0.2" fill="#032B2A" d="M309.223,229.435c0,0,0.758-0.392,0.575-0.998c0,0-0.222-2.675-2.161-2.11
		c-2.222,0.727-3.715,3.107-3.715,3.107s1.493,2.38,3.715,3.107c1.939,0.565,2.161-2.11,2.161-2.11
		C309.981,229.826,309.223,229.435,309.223,229.435z"/>
	<path fill="#E4B81D" d="M302.187,226.358c0,0-3.247-2.039-4.24-5.07c-0.771-2.646,2.88-2.949,2.88-2.949
		c0.826-0.249,1.36,0.785,1.36,0.785V226.358L302.187,226.358"/>
	<path fill="#CFA71A" d="M302.187,226.358c0,0,3.249-2.039,4.241-5.07c0.771-2.646-2.88-2.949-2.88-2.949
		c-0.827-0.249-1.361,0.785-1.361,0.785V226.358L302.187,226.358"/>
	<path fill="#B3362D" d="M305.198,220.646c0-0.517-0.419-0.936-0.936-0.936l0,0c-0.518,0-0.937,0.419-0.937,0.936l0,0
		c0,0.517,0.419,0.936,0.937,0.936l0,0C304.78,221.582,305.198,221.163,305.198,220.646L305.198,220.646z"/>
	<path fill="#B3362D" d="M300.902,220.646c0-0.517-0.418-0.936-0.936-0.936l0,0c-0.518,0-0.937,0.419-0.937,0.936l0,0
		c0,0.517,0.419,0.936,0.937,0.936l0,0C300.484,221.582,300.902,221.163,300.902,220.646L300.902,220.646z"/>
	<path fill="#E4B81D" d="M300.452,227.017c0,0-1.494-2.381-3.716-3.108c-1.938-0.565-2.161,2.11-2.161,2.11
		c-0.181,0.606,0.576,0.998,0.576,0.998H300.452L300.452,227.017"/>
	<path fill="#CFA71A" d="M300.452,227.017c0,0-1.494,2.38-3.716,3.107c-1.938,0.565-2.161-2.11-2.161-2.11
		c-0.181-0.606,0.576-0.998,0.576-0.998H300.452L300.452,227.017"/>
	<path fill="#E4B81D" d="M303.922,227.017c0,0,1.493-2.381,3.715-3.108c1.939-0.565,2.161,2.11,2.161,2.11
		c0.183,0.606-0.575,0.998-0.575,0.998H303.922L303.922,227.017"/>
	<path fill="#CFA71A" d="M303.922,227.017c0,0,1.493,2.38,3.715,3.107c1.939,0.565,2.161-2.11,2.161-2.11
		c0.183-0.606-0.575-0.998-0.575-0.998H303.922L303.922,227.017"/>
	<path opacity="0.2" fill="#032B2A" d="M308.579,240.266c0,0.445-0.36,0.807-0.806,0.807h-11.173c-0.446,0-0.806-0.361-0.806-0.807
		v-2.883c0-0.445,0.359-0.806,0.806-0.806h11.173c0.445,0,0.806,0.361,0.806,0.806V240.266z"/>
	<path fill="#C7B4A1" d="M308.579,238.654c0,0.445-0.36,0.806-0.806,0.806h-11.173c-0.446,0-0.806-0.36-0.806-0.806v-2.884
		c0-0.445,0.359-0.806,0.806-0.806h11.173c0.445,0,0.806,0.361,0.806,0.806V238.654z"/>
	<path opacity="0.2" fill="#032B2A" d="M306.428,251.376c0.771-2.646-2.88-2.949-2.88-2.949c-0.827-0.248-1.361,0.786-1.361,0.786
		s-0.534-1.034-1.36-0.786c0,0-3.651,0.304-2.88,2.949c0.993,3.031,4.24,5.069,4.24,5.069S305.436,254.407,306.428,251.376z"/>
	<path opacity="0.2" fill="#032B2A" d="M296.737,253.996c-1.938-0.564-2.161,2.11-2.161,2.11c-0.181,0.606,0.576,0.998,0.576,0.998
		s-0.757,0.391-0.576,0.998c0,0,0.223,2.675,2.161,2.109c2.222-0.728,3.716-3.107,3.716-3.107S298.958,254.724,296.737,253.996z"/>
	<path opacity="0.2" fill="#032B2A" d="M309.223,257.104c0,0,0.758-0.392,0.575-0.998c0,0-0.222-2.675-2.161-2.11
		c-2.222,0.728-3.715,3.108-3.715,3.108s1.493,2.38,3.715,3.107c1.939,0.565,2.161-2.109,2.161-2.109
		C309.981,257.495,309.223,257.104,309.223,257.104z"/>
	<path fill="#E4B81D" d="M302.187,254.028c0,0-3.247-2.038-4.24-5.07c-0.771-2.646,2.88-2.949,2.88-2.949
		c0.826-0.248,1.36,0.785,1.36,0.785V254.028L302.187,254.028"/>
	<path fill="#CFA71A" d="M302.187,254.028c0,0,3.249-2.038,4.241-5.07c0.771-2.646-2.88-2.949-2.88-2.949
		c-0.827-0.248-1.361,0.785-1.361,0.785V254.028L302.187,254.028"/>
	<path fill="#B3362D" d="M305.198,248.315c0-0.516-0.419-0.935-0.936-0.935l0,0c-0.518,0-0.937,0.419-0.937,0.935l0,0
		c0,0.518,0.419,0.938,0.937,0.938l0,0C304.78,249.253,305.198,248.833,305.198,248.315L305.198,248.315z"/>
	<path fill="#B3362D" d="M300.902,248.315c0-0.516-0.418-0.935-0.936-0.935l0,0c-0.518,0-0.937,0.419-0.937,0.935l0,0
		c0,0.518,0.419,0.938,0.937,0.938l0,0C300.484,249.253,300.902,248.833,300.902,248.315L300.902,248.315z"/>
	<path fill="#E4B81D" d="M300.452,254.687c0,0-1.494-2.38-3.716-3.107c-1.938-0.564-2.161,2.11-2.161,2.11
		c-0.181,0.605,0.576,0.997,0.576,0.997H300.452L300.452,254.687"/>
	<path fill="#CFA71A" d="M300.452,254.687c0,0-1.494,2.38-3.716,3.107c-1.938,0.565-2.161-2.11-2.161-2.11
		c-0.181-0.605,0.576-0.997,0.576-0.997H300.452L300.452,254.687"/>
	<path fill="#E4B81D" d="M303.922,254.687c0,0,1.493-2.38,3.715-3.107c1.939-0.564,2.161,2.11,2.161,2.11
		c0.183,0.605-0.575,0.997-0.575,0.997H303.922L303.922,254.687"/>
	<path fill="#CFA71A" d="M303.922,254.687c0,0,1.493,2.38,3.715,3.107c1.939,0.565,2.161-2.11,2.161-2.11
		c0.183-0.605-0.575-0.997-0.575-0.997H303.922L303.922,254.687"/>
	<path opacity="0.2" fill="#032B2A" d="M328.323,267.936c0,0.445-0.361,0.806-0.806,0.806h-30.916c-0.446,0-0.806-0.36-0.806-0.806
		v-2.884c0-0.444,0.359-0.806,0.806-0.806h30.916c0.444,0,0.806,0.361,0.806,0.806V267.936z"/>
	<path fill="#C7B4A1" d="M328.323,266.324c0,0.444-0.361,0.806-0.806,0.806h-30.916c-0.446,0-0.806-0.361-0.806-0.806v-2.884
		c0-0.444,0.359-0.806,0.806-0.806h30.916c0.444,0,0.806,0.361,0.806,0.806V266.324z"/>
	<path opacity="0.2" fill="#032B2A" d="M325.768,251.376c0.771-2.646-2.879-2.949-2.879-2.949c-0.827-0.248-1.361,0.786-1.361,0.786
		s-0.534-1.034-1.361-0.786c0,0-3.65,0.304-2.88,2.949c0.993,3.031,4.241,5.069,4.241,5.069S324.777,254.407,325.768,251.376z"/>
	<path opacity="0.2" fill="#032B2A" d="M316.077,253.996c-1.938-0.564-2.161,2.11-2.161,2.11c-0.181,0.606,0.576,0.998,0.576,0.998
		s-0.757,0.391-0.576,0.998c0,0,0.223,2.675,2.161,2.109c2.223-0.728,3.716-3.107,3.716-3.107S318.3,254.724,316.077,253.996z"/>
	<path opacity="0.2" fill="#032B2A" d="M328.564,257.104c0,0,0.757-0.392,0.576-0.998c0,0-0.224-2.675-2.162-2.11
		c-2.222,0.728-3.716,3.108-3.716,3.108s1.494,2.38,3.716,3.107c1.938,0.565,2.162-2.109,2.162-2.109
		C329.321,257.495,328.564,257.104,328.564,257.104z"/>
	<path fill="#E4B81D" d="M321.528,254.028c0,0-3.248-2.038-4.241-5.07c-0.771-2.646,2.88-2.949,2.88-2.949
		c0.827-0.248,1.361,0.785,1.361,0.785V254.028L321.528,254.028"/>
	<path fill="#CFA71A" d="M321.528,254.028c0,0,3.249-2.038,4.24-5.07c0.771-2.646-2.879-2.949-2.879-2.949
		c-0.827-0.248-1.361,0.785-1.361,0.785V254.028L321.528,254.028"/>
	<path fill="#B3362D" d="M324.538,248.315c0-0.516-0.419-0.935-0.936-0.935l0,0c-0.517,0-0.936,0.419-0.936,0.935l0,0
		c0,0.518,0.419,0.938,0.936,0.938l0,0C324.119,249.253,324.538,248.833,324.538,248.315L324.538,248.315z"/>
	<path fill="#B3362D" d="M320.242,248.315c0-0.516-0.419-0.935-0.936-0.935l0,0c-0.518,0-0.936,0.419-0.936,0.935l0,0
		c0,0.518,0.418,0.938,0.936,0.938l0,0C319.823,249.253,320.242,248.833,320.242,248.315L320.242,248.315z"/>
	<path fill="#E4B81D" d="M319.793,254.687c0,0-1.493-2.38-3.716-3.107c-1.938-0.564-2.161,2.11-2.161,2.11
		c-0.181,0.605,0.576,0.997,0.576,0.997H319.793L319.793,254.687"/>
	<path fill="#CFA71A" d="M319.793,254.687c0,0-1.493,2.38-3.716,3.107c-1.938,0.565-2.161-2.11-2.161-2.11
		c-0.181-0.605,0.576-0.997,0.576-0.997H319.793L319.793,254.687"/>
	<path fill="#E4B81D" d="M323.262,254.687c0,0,1.494-2.38,3.716-3.107c1.938-0.564,2.162,2.11,2.162,2.11
		c0.181,0.605-0.576,0.997-0.576,0.997H323.262L323.262,254.687"/>
	<path fill="#CFA71A" d="M323.262,254.687c0,0,1.494,2.38,3.716,3.107c1.938,0.565,2.162-2.11,2.162-2.11
		c0.181-0.605-0.576-0.997-0.576-0.997H323.262L323.262,254.687"/>
	<path opacity="0.2" fill="#032B2A" d="M306.428,279.046c0.771-2.646-2.88-2.949-2.88-2.949c-0.827-0.248-1.361,0.785-1.361,0.785
		s-0.534-1.033-1.36-0.785c0,0-3.651,0.303-2.88,2.949c0.993,3.031,4.24,5.07,4.24,5.07S305.436,282.077,306.428,279.046z"/>
	<path opacity="0.2" fill="#032B2A" d="M296.737,281.667c-1.938-0.565-2.161,2.109-2.161,2.109
		c-0.181,0.606,0.576,0.998,0.576,0.998s-0.757,0.392-0.576,0.997c0,0,0.223,2.675,2.161,2.11c2.222-0.728,3.716-3.107,3.716-3.107
		S298.958,282.395,296.737,281.667z"/>
	<path opacity="0.2" fill="#032B2A" d="M309.223,284.774c0,0,0.758-0.392,0.575-0.998c0,0-0.222-2.675-2.161-2.109
		c-2.222,0.728-3.715,3.107-3.715,3.107s1.493,2.38,3.715,3.107c1.939,0.564,2.161-2.11,2.161-2.11
		C309.981,285.166,309.223,284.774,309.223,284.774z"/>
	<path fill="#E4B81D" d="M302.187,281.697c0,0-3.247-2.038-4.24-5.069c-0.771-2.646,2.88-2.949,2.88-2.949
		c0.826-0.248,1.36,0.785,1.36,0.785V281.697L302.187,281.697"/>
	<path fill="#CFA71A" d="M302.187,281.697c0,0,3.249-2.038,4.241-5.069c0.771-2.646-2.88-2.949-2.88-2.949
		c-0.827-0.248-1.361,0.785-1.361,0.785V281.697L302.187,281.697"/>
	<path fill="#B3362D" d="M305.198,275.985c0-0.516-0.419-0.935-0.936-0.935l0,0c-0.518,0-0.937,0.419-0.937,0.935l0,0
		c0,0.518,0.419,0.937,0.937,0.937l0,0C304.78,276.922,305.198,276.503,305.198,275.985L305.198,275.985z"/>
	<path fill="#B3362D" d="M300.902,275.985c0-0.516-0.418-0.935-0.936-0.935l0,0c-0.518,0-0.937,0.419-0.937,0.935l0,0
		c0,0.518,0.419,0.937,0.937,0.937l0,0C300.484,276.922,300.902,276.503,300.902,275.985L300.902,275.985z"/>
	<path fill="#E4B81D" d="M300.452,282.356c0,0-1.494-2.381-3.716-3.107c-1.938-0.565-2.161,2.109-2.161,2.109
		c-0.181,0.606,0.576,0.998,0.576,0.998H300.452L300.452,282.356"/>
	<path fill="#CFA71A" d="M300.452,282.356c0,0-1.494,2.381-3.716,3.107c-1.938,0.565-2.161-2.109-2.161-2.109
		c-0.181-0.606,0.576-0.998,0.576-0.998H300.452L300.452,282.356"/>
	<path fill="#E4B81D" d="M303.922,282.356c0,0,1.493-2.381,3.715-3.107c1.939-0.565,2.161,2.109,2.161,2.109
		c0.183,0.606-0.575,0.998-0.575,0.998H303.922L303.922,282.356"/>
	<path fill="#CFA71A" d="M303.922,282.356c0,0,1.493,2.381,3.715,3.107c1.939,0.565,2.161-2.109,2.161-2.109
		c0.183-0.606-0.575-0.998-0.575-0.998H303.922L303.922,282.356"/>
	<path opacity="0.2" fill="#032B2A" d="M347.662,295.605c0,0.444-0.36,0.807-0.806,0.807h-50.256c-0.446,0-0.806-0.362-0.806-0.807
		v-2.884c0-0.444,0.359-0.806,0.806-0.806h50.256c0.445,0,0.806,0.361,0.806,0.806V295.605z"/>
	<path fill="#C7B4A1" d="M347.662,293.994c0,0.444-0.36,0.806-0.806,0.806h-50.256c-0.446,0-0.806-0.361-0.806-0.806v-2.884
		c0-0.445,0.359-0.806,0.806-0.806h50.256c0.445,0,0.806,0.36,0.806,0.806V293.994z"/>
	<path opacity="0.2" fill="#032B2A" d="M325.768,279.046c0.771-2.646-2.88-2.949-2.88-2.949c-0.826-0.248-1.361,0.785-1.361,0.785
		s-0.534-1.033-1.361-0.785c0,0-3.65,0.303-2.88,2.949c0.993,3.031,4.241,5.07,4.241,5.07S324.776,282.077,325.768,279.046z"/>
	<path opacity="0.2" fill="#032B2A" d="M316.076,281.667c-1.938-0.565-2.161,2.109-2.161,2.109
		c-0.181,0.606,0.576,0.998,0.576,0.998s-0.757,0.392-0.576,0.997c0,0,0.223,2.675,2.161,2.11c2.223-0.728,3.716-3.107,3.716-3.107
		S318.299,282.395,316.076,281.667z"/>
	<path opacity="0.2" fill="#032B2A" d="M328.563,284.774c0,0,0.757-0.392,0.576-0.998c0,0-0.224-2.675-2.162-2.109
		c-2.222,0.728-3.716,3.107-3.716,3.107s1.494,2.38,3.716,3.107c1.938,0.564,2.162-2.11,2.162-2.11
		C329.32,285.166,328.563,284.774,328.563,284.774z"/>
	<path fill="#E4B81D" d="M321.527,281.697c0,0-3.248-2.038-4.241-5.069c-0.771-2.646,2.88-2.949,2.88-2.949
		c0.827-0.248,1.361,0.785,1.361,0.785V281.697L321.527,281.697"/>
	<path fill="#CFA71A" d="M321.527,281.697c0,0,3.249-2.038,4.241-5.069c0.771-2.646-2.88-2.949-2.88-2.949
		c-0.826-0.248-1.361,0.785-1.361,0.785V281.697L321.527,281.697"/>
	<path fill="#B3362D" d="M324.537,275.985c0-0.516-0.418-0.935-0.936-0.935l0,0c-0.517,0-0.936,0.419-0.936,0.935l0,0
		c0,0.518,0.419,0.937,0.936,0.937l0,0C324.119,276.922,324.537,276.503,324.537,275.985L324.537,275.985z"/>
	<path fill="#B3362D" d="M320.241,275.985c0-0.516-0.419-0.935-0.936-0.935l0,0c-0.518,0-0.936,0.419-0.936,0.935l0,0
		c0,0.518,0.418,0.937,0.936,0.937l0,0C319.823,276.922,320.241,276.503,320.241,275.985L320.241,275.985z"/>
	<path fill="#E4B81D" d="M319.792,282.356c0,0-1.493-2.381-3.716-3.107c-1.938-0.565-2.161,2.109-2.161,2.109
		c-0.181,0.606,0.576,0.998,0.576,0.998H319.792L319.792,282.356"/>
	<path fill="#CFA71A" d="M319.792,282.356c0,0-1.493,2.381-3.716,3.107c-1.938,0.565-2.161-2.109-2.161-2.109
		c-0.181-0.606,0.576-0.998,0.576-0.998H319.792L319.792,282.356"/>
	<path fill="#E4B81D" d="M323.261,282.356c0,0,1.494-2.381,3.716-3.107c1.938-0.565,2.162,2.109,2.162,2.109
		c0.181,0.606-0.576,0.998-0.576,0.998H323.261L323.261,282.356"/>
	<path fill="#CFA71A" d="M323.261,282.356c0,0,1.494,2.381,3.716,3.107c1.938,0.565,2.162-2.109,2.162-2.109
		c0.181-0.606-0.576-0.998-0.576-0.998H323.261L323.261,282.356"/>
	<path opacity="0.2" fill="#032B2A" d="M345.107,279.046c0.771-2.646-2.88-2.949-2.88-2.949c-0.826-0.248-1.359,0.785-1.359,0.785
		s-0.535-1.033-1.361-0.785c0,0-3.651,0.303-2.88,2.949c0.992,3.031,4.241,5.07,4.241,5.07S344.115,282.077,345.107,279.046z"/>
	<path opacity="0.2" fill="#032B2A" d="M335.416,281.667c-1.938-0.565-2.161,2.109-2.161,2.109
		c-0.181,0.606,0.576,0.998,0.576,0.998s-0.757,0.392-0.576,0.997c0,0,0.223,2.675,2.161,2.11c2.222-0.728,3.716-3.107,3.716-3.107
		S337.638,282.395,335.416,281.667z"/>
	<path opacity="0.2" fill="#032B2A" d="M347.904,284.774c0,0,0.757-0.392,0.574-0.998c0,0-0.223-2.675-2.16-2.109
		c-2.223,0.728-3.716,3.107-3.716,3.107s1.493,2.38,3.716,3.107c1.938,0.564,2.16-2.11,2.16-2.11
		C348.66,285.166,347.904,284.774,347.904,284.774z"/>
	<path fill="#E4B81D" d="M340.867,281.697c0,0-3.249-2.038-4.241-5.069c-0.771-2.646,2.88-2.949,2.88-2.949
		c0.826-0.248,1.361,0.785,1.361,0.785V281.697L340.867,281.697"/>
	<path fill="#CFA71A" d="M340.867,281.697c0,0,3.248-2.038,4.239-5.069c0.771-2.646-2.88-2.949-2.88-2.949
		c-0.826-0.248-1.359,0.785-1.359,0.785V281.697L340.867,281.697"/>
	<path fill="#B3362D" d="M343.878,275.985c0-0.516-0.419-0.935-0.936-0.935l0,0c-0.518,0-0.937,0.419-0.937,0.935l0,0
		c0,0.518,0.419,0.937,0.937,0.937l0,0C343.459,276.922,343.878,276.503,343.878,275.985L343.878,275.985z"/>
	<path fill="#B3362D" d="M339.581,275.985c0-0.516-0.419-0.935-0.936-0.935l0,0c-0.517,0-0.936,0.419-0.936,0.935l0,0
		c0,0.518,0.419,0.937,0.936,0.937l0,0C339.162,276.922,339.581,276.503,339.581,275.985L339.581,275.985z"/>
	<path fill="#E4B81D" d="M339.132,282.356c0,0-1.494-2.381-3.716-3.107c-1.938-0.565-2.161,2.109-2.161,2.109
		c-0.181,0.606,0.576,0.998,0.576,0.998H339.132L339.132,282.356"/>
	<path fill="#CFA71A" d="M339.132,282.356c0,0-1.494,2.381-3.716,3.107c-1.938,0.565-2.161-2.109-2.161-2.109
		c-0.181-0.606,0.576-0.998,0.576-0.998H339.132L339.132,282.356"/>
	<path fill="#E4B81D" d="M342.602,282.356c0,0,1.493-2.381,3.716-3.107c1.938-0.565,2.16,2.109,2.16,2.109
		c0.183,0.606-0.574,0.998-0.574,0.998H342.602L342.602,282.356"/>
	<path fill="#CFA71A" d="M342.602,282.356c0,0,1.493,2.381,3.716,3.107c1.938,0.565,2.16-2.109,2.16-2.109
		c0.183-0.606-0.574-0.998-0.574-0.998H342.602L342.602,282.356"/>
	<path fill="#B3362D" d="M334.475,283.95c0-0.426,0.345-0.771,0.77-0.771l0,0c0.425,0,0.77,0.345,0.77,0.771l0,0
		c0,0.424-0.345,0.77-0.77,0.77l0,0C334.82,284.72,334.475,284.374,334.475,283.95L334.475,283.95z"/>
	<path fill="#B3362D" d="M334.475,280.764c0,0.426,0.345,0.77,0.77,0.77l0,0c0.425,0,0.77-0.344,0.77-0.77l0,0
		c0-0.425-0.345-0.77-0.77-0.77l0,0C334.82,279.994,334.475,280.339,334.475,280.764L334.475,280.764z"/>
	<circle fill="#CFA71A" cx="283.477" cy="188.471" r="4.05"/>
	<circle fill="#CFA71A" cx="297.996" cy="319.4" r="2.315"/>
	<circle fill="#CFA71A" cx="297.996" cy="307.573" r="2.315"/>
	<path fill="#E4B81D" d="M270.156,281.352c-0.517,0-1.045-0.065-1.576-0.197c-3.619-0.896-4.938-4.942-6.103-8.513
		c-0.693-2.125-1.347-4.132-2.363-5.321c-0.297-0.348-0.297-0.859,0-1.206c1.017-1.19,1.67-3.197,2.363-5.322
		c1.164-3.57,2.483-7.616,6.103-8.513c2.106-0.521,4.147,0.003,5.751,1.472c1.843,1.688,2.78,4.396,2.389,6.899
		c-0.309,1.967-1.739,4.512-3.782,5.353c-0.906,0.374-2.314,0.576-3.876-0.572c-1.152-0.849-1.899-3.138-1.537-4.71
		c0.239-1.038,0.937-1.737,1.912-1.916c0.514-0.096,0.989,0.241,1.08,0.745c0.093,0.505-0.241,0.988-0.745,1.081
		c-0.125,0.023-0.335,0.062-0.438,0.507c-0.223,0.964,0.355,2.448,0.828,2.797c0.707,0.52,1.383,0.634,2.068,0.353
		c1.347-0.555,2.427-2.47,2.654-3.924c0.298-1.905-0.412-3.963-1.809-5.243c-1.13-1.036-2.569-1.407-4.05-1.038
		c-2.619,0.648-3.72,4.022-4.784,7.285c-0.653,2.009-1.277,3.919-2.256,5.35c0.979,1.431,1.603,3.342,2.256,5.35
		c1.064,3.263,2.165,6.638,4.784,7.285c1.48,0.366,2.92-0.001,4.05-1.038c1.396-1.28,2.106-3.337,1.809-5.243
		c-0.228-1.454-1.308-3.368-2.654-3.924c-0.687-0.282-1.362-0.166-2.068,0.354c-0.473,0.348-1.051,1.832-0.828,2.796
		c0.103,0.445,0.312,0.483,0.438,0.507c0.504,0.093,0.838,0.577,0.745,1.081c-0.091,0.504-0.567,0.845-1.08,0.745
		c-0.976-0.179-1.673-0.878-1.912-1.916c-0.362-1.572,0.385-3.86,1.537-4.709c1.562-1.149,2.971-0.948,3.876-0.573
		c2.043,0.841,3.474,3.386,3.782,5.354c0.392,2.502-0.546,5.211-2.389,6.898C273.132,280.782,271.688,281.352,270.156,281.352z"/>
	<circle fill="#E4B81D" cx="332.562" cy="218.301" r="2.776"/>
	<path fill="#E4B81D" d="M328.941,228.175h-0.929c0-6.674,2.366-8.613,2.467-8.692l0.578,0.727
		C331.036,220.227,328.941,222.021,328.941,228.175z"/>
	<path fill="#E4B81D" d="M331.067,228.175h-0.928c0-6.687,1.202-8.434,1.339-8.611l0.74,0.561
		C332.206,220.141,331.067,221.806,331.067,228.175z"/>
	<path fill="#E4B81D" d="M337.381,228.175h-0.929c0-6.155-2.096-7.948-2.116-7.965l0.578-0.727
		C335.015,219.562,337.381,221.501,337.381,228.175z"/>
	<path fill="#E4B81D" d="M335.254,228.175h-0.929c0-6.369-1.139-8.034-1.15-8.05l0.74-0.561
		C334.052,219.741,335.254,221.488,335.254,228.175z"/>
	<rect x="332.233" y="219.848" fill="#E4B81D" width="0.928" height="8.327"/>
	<path fill="#E4B81D" d="M247.066,285.542h-1.857v-33.314c-7.875-3.144-25.803-11.729-35.634-27.781l1.583-0.97
		c9.791,15.987,27.959,24.385,35.317,27.254l0.591,0.23V285.542z"/>
	<path opacity="0.2" fill="#032B2A" d="M145.8,195.209v116.288c22.241,16.923,46.867,19.231,58.533,19.231c0.001,0,0,0,0.001,0
		c4.44,0,7.149-0.331,7.262-0.345l4.069-0.506V198.646h1.974h2.205c0,0,1.915-0.187,1.915-3.437c-13.057,0-19.324,0-19.324,0H145.8z
		"/>
	<path fill="#B3362D" d="M211.023,174.653v5.234h9.207c1.539,0,2.785,1.248,2.785,2.786v11.33c0,1.538-1.247,2.785-2.785,2.785
		h-9.207v128.989c0,0-53.373,6.524-84.021-40.377c0-45.044,0-110.747,0-110.747H211.023z"/>
	<path opacity="0.2" fill="#032B2A" d="M127.002,219.073c0,0,6.028,0,32.49,0c37.835,0,36.947-38.849,36.947-38.849h-69.437V219.073
		z"/>
	<path fill="#A13029" d="M127.002,213.502c0,0,6.028,0,32.49,0c37.835,0,36.947-38.849,36.947-38.849h-69.437V213.502z"/>
	<path fill="#E4B81D" d="M159.492,214.895h-32.49v-2.786h32.49c10.587,0,19.029-3.14,25.09-9.333
		c10.706-10.938,10.468-27.922,10.464-28.092l2.785-0.062c0.017,0.741,0.283,18.295-11.242,30.087
		C179.983,211.468,170.866,214.895,159.492,214.895z"/>
	<path opacity="0.2" fill="#032B2A" d="M193.561,223.706c-0.771-2.646,2.879-2.949,2.879-2.949c0.827-0.248,1.361,0.786,1.361,0.786
		s0.535-1.034,1.361-0.786c0,0,3.651,0.303,2.88,2.949c-0.993,3.032-4.241,5.07-4.241,5.07S194.553,226.738,193.561,223.706z"/>
	<path opacity="0.2" fill="#032B2A" d="M203.252,226.327c1.938-0.565,2.162,2.11,2.162,2.11c0.18,0.606-0.577,0.998-0.577,0.998
		s0.757,0.392,0.577,0.998c0,0-0.223,2.675-2.162,2.11c-2.222-0.727-3.716-3.107-3.716-3.107S201.031,227.054,203.252,226.327z"/>
	<path opacity="0.2" fill="#032B2A" d="M190.766,229.435c0,0-0.757-0.392-0.575-0.998c0,0,0.222-2.675,2.161-2.11
		c2.223,0.727,3.716,3.107,3.716,3.107s-1.493,2.38-3.716,3.107c-1.938,0.565-2.161-2.11-2.161-2.11
		C190.009,229.826,190.766,229.435,190.766,229.435z"/>
	<path fill="#E4B81D" d="M197.802,226.358c0,0,3.248-2.039,4.241-5.07c0.771-2.646-2.88-2.949-2.88-2.949
		c-0.826-0.249-1.361,0.785-1.361,0.785V226.358L197.802,226.358"/>
	<path fill="#CFA71A" d="M197.802,226.358c0,0-3.249-2.039-4.241-5.07c-0.771-2.646,2.879-2.949,2.879-2.949
		c0.827-0.249,1.361,0.785,1.361,0.785V226.358L197.802,226.358"/>
	<path fill="#B3362D" d="M194.791,220.646c0-0.517,0.419-0.936,0.936-0.936l0,0c0.518,0,0.936,0.419,0.936,0.936l0,0
		c0,0.517-0.418,0.936-0.936,0.936l0,0C195.21,221.582,194.791,221.163,194.791,220.646L194.791,220.646z"/>
	<path fill="#B3362D" d="M199.088,220.646c0-0.517,0.418-0.936,0.936-0.936l0,0c0.517,0,0.936,0.419,0.936,0.936l0,0
		c0,0.517-0.419,0.936-0.936,0.936l0,0C199.506,221.582,199.088,221.163,199.088,220.646L199.088,220.646z"/>
	<path fill="#E4B81D" d="M199.536,227.017c0,0,1.494-2.381,3.716-3.108c1.938-0.565,2.162,2.11,2.162,2.11
		c0.18,0.606-0.577,0.998-0.577,0.998H199.536L199.536,227.017"/>
	<path fill="#CFA71A" d="M199.536,227.017c0,0,1.494,2.38,3.716,3.107c1.938,0.565,2.162-2.11,2.162-2.11
		c0.18-0.606-0.577-0.998-0.577-0.998H199.536L199.536,227.017"/>
	<path fill="#E4B81D" d="M196.067,227.017c0,0-1.493-2.381-3.716-3.108c-1.938-0.565-2.161,2.11-2.161,2.11
		c-0.182,0.606,0.575,0.998,0.575,0.998H196.067L196.067,227.017"/>
	<path fill="#CFA71A" d="M196.067,227.017c0,0-1.493,2.38-3.716,3.107c-1.938,0.565-2.161-2.11-2.161-2.11
		c-0.182-0.606,0.575-0.998,0.575-0.998H196.067L196.067,227.017"/>
	<path opacity="0.2" fill="#032B2A" d="M191.409,240.266c0,0.445,0.361,0.807,0.806,0.807h11.172c0.446,0,0.806-0.361,0.806-0.807
		v-2.883c0-0.445-0.36-0.806-0.806-0.806h-11.172c-0.445,0-0.806,0.361-0.806,0.806V240.266z"/>
	<path fill="#C7B4A1" d="M191.409,238.654c0,0.445,0.361,0.806,0.806,0.806h11.172c0.446,0,0.806-0.36,0.806-0.806v-2.884
		c0-0.445-0.36-0.806-0.806-0.806h-11.172c-0.445,0-0.806,0.361-0.806,0.806V238.654z"/>
	<path opacity="0.2" fill="#032B2A" d="M193.561,251.376c-0.771-2.646,2.879-2.949,2.879-2.949c0.827-0.248,1.361,0.786,1.361,0.786
		s0.535-1.034,1.361-0.786c0,0,3.651,0.304,2.88,2.949c-0.993,3.031-4.241,5.069-4.241,5.069S194.553,254.407,193.561,251.376z"/>
	<path opacity="0.2" fill="#032B2A" d="M203.252,253.996c1.938-0.564,2.162,2.11,2.162,2.11c0.18,0.606-0.577,0.998-0.577,0.998
		s0.757,0.391,0.577,0.998c0,0-0.223,2.675-2.162,2.109c-2.222-0.728-3.716-3.107-3.716-3.107S201.031,254.724,203.252,253.996z"/>
	<path opacity="0.2" fill="#032B2A" d="M190.766,257.104c0,0-0.757-0.392-0.575-0.998c0,0,0.222-2.675,2.161-2.11
		c2.223,0.728,3.716,3.108,3.716,3.108s-1.493,2.38-3.716,3.107c-1.938,0.565-2.161-2.109-2.161-2.109
		C190.009,257.495,190.766,257.104,190.766,257.104z"/>
	<path fill="#E4B81D" d="M197.802,254.028c0,0,3.248-2.038,4.241-5.07c0.771-2.646-2.88-2.949-2.88-2.949
		c-0.826-0.248-1.361,0.785-1.361,0.785V254.028L197.802,254.028"/>
	<path fill="#CFA71A" d="M197.802,254.028c0,0-3.249-2.038-4.241-5.07c-0.771-2.646,2.879-2.949,2.879-2.949
		c0.827-0.248,1.361,0.785,1.361,0.785V254.028L197.802,254.028"/>
	<path fill="#B3362D" d="M194.791,248.315c0-0.516,0.419-0.935,0.936-0.935l0,0c0.518,0,0.936,0.419,0.936,0.935l0,0
		c0,0.518-0.418,0.938-0.936,0.938l0,0C195.21,249.253,194.791,248.833,194.791,248.315L194.791,248.315z"/>
	<path fill="#B3362D" d="M199.088,248.315c0-0.516,0.418-0.935,0.936-0.935l0,0c0.517,0,0.936,0.419,0.936,0.935l0,0
		c0,0.518-0.419,0.938-0.936,0.938l0,0C199.506,249.253,199.088,248.833,199.088,248.315L199.088,248.315z"/>
	<path fill="#E4B81D" d="M199.536,254.687c0,0,1.494-2.38,3.716-3.107c1.938-0.564,2.162,2.11,2.162,2.11
		c0.18,0.605-0.577,0.997-0.577,0.997H199.536L199.536,254.687"/>
	<path fill="#CFA71A" d="M199.536,254.687c0,0,1.494,2.38,3.716,3.107c1.938,0.565,2.162-2.11,2.162-2.11
		c0.18-0.605-0.577-0.997-0.577-0.997H199.536L199.536,254.687"/>
	<path fill="#E4B81D" d="M196.067,254.687c0,0-1.493-2.38-3.716-3.107c-1.938-0.564-2.161,2.11-2.161,2.11
		c-0.182,0.605,0.575,0.997,0.575,0.997H196.067L196.067,254.687"/>
	<path fill="#CFA71A" d="M196.067,254.687c0,0-1.493,2.38-3.716,3.107c-1.938,0.565-2.161-2.11-2.161-2.11
		c-0.182-0.605,0.575-0.997,0.575-0.997H196.067L196.067,254.687"/>
	<path opacity="0.2" fill="#032B2A" d="M171.667,267.936c0,0.445,0.361,0.806,0.806,0.806h30.916c0.446,0,0.806-0.36,0.806-0.806
		v-2.884c0-0.444-0.36-0.806-0.806-0.806h-30.916c-0.445,0-0.806,0.361-0.806,0.806V267.936z"/>
	<path fill="#C7B4A1" d="M171.667,266.324c0,0.444,0.361,0.806,0.806,0.806h30.916c0.446,0,0.806-0.361,0.806-0.806v-2.884
		c0-0.444-0.36-0.806-0.806-0.806h-30.916c-0.445,0-0.806,0.361-0.806,0.806V266.324z"/>
	<path opacity="0.2" fill="#032B2A" d="M174.221,251.376c-0.771-2.646,2.879-2.949,2.879-2.949c0.827-0.248,1.361,0.786,1.361,0.786
		s0.534-1.034,1.361-0.786c0,0,3.65,0.304,2.88,2.949c-0.993,3.031-4.241,5.069-4.241,5.069S175.213,254.407,174.221,251.376z"/>
	<path opacity="0.2" fill="#032B2A" d="M183.912,253.996c1.938-0.564,2.161,2.11,2.161,2.11c0.181,0.606-0.576,0.998-0.576,0.998
		s0.757,0.391,0.576,0.998c0,0-0.222,2.675-2.161,2.109c-2.223-0.728-3.716-3.107-3.716-3.107S181.689,254.724,183.912,253.996z"/>
	<path opacity="0.2" fill="#032B2A" d="M171.426,257.104c0,0-0.757-0.392-0.576-0.998c0,0,0.223-2.675,2.162-2.11
		c2.222,0.728,3.716,3.108,3.716,3.108s-1.494,2.38-3.716,3.107c-1.938,0.565-2.162-2.109-2.162-2.109
		C170.668,257.495,171.426,257.104,171.426,257.104z"/>
	<path fill="#E4B81D" d="M178.462,254.028c0,0,3.248-2.038,4.241-5.07c0.771-2.646-2.88-2.949-2.88-2.949
		c-0.827-0.248-1.361,0.785-1.361,0.785V254.028L178.462,254.028"/>
	<path fill="#CFA71A" d="M178.462,254.028c0,0-3.249-2.038-4.241-5.07c-0.771-2.646,2.879-2.949,2.879-2.949
		c0.827-0.248,1.361,0.785,1.361,0.785V254.028L178.462,254.028"/>
	<path fill="#B3362D" d="M175.45,248.315c0-0.516,0.419-0.935,0.936-0.935l0,0c0.517,0,0.936,0.419,0.936,0.935l0,0
		c0,0.518-0.419,0.938-0.936,0.938l0,0C175.869,249.253,175.45,248.833,175.45,248.315L175.45,248.315z"/>
	<path fill="#B3362D" d="M179.746,248.315c0-0.516,0.419-0.935,0.936-0.935l0,0c0.518,0,0.936,0.419,0.936,0.935l0,0
		c0,0.518-0.418,0.938-0.936,0.938l0,0C180.165,249.253,179.746,248.833,179.746,248.315L179.746,248.315z"/>
	<path fill="#E4B81D" d="M180.196,254.687c0,0,1.493-2.38,3.716-3.107c1.938-0.564,2.161,2.11,2.161,2.11
		c0.181,0.605-0.576,0.997-0.576,0.997H180.196L180.196,254.687"/>
	<path fill="#CFA71A" d="M180.196,254.687c0,0,1.493,2.38,3.716,3.107c1.938,0.565,2.161-2.11,2.161-2.11
		c0.181-0.605-0.576-0.997-0.576-0.997H180.196L180.196,254.687"/>
	<path fill="#E4B81D" d="M176.727,254.687c0,0-1.494-2.38-3.716-3.107c-1.938-0.564-2.162,2.11-2.162,2.11
		c-0.181,0.605,0.576,0.997,0.576,0.997H176.727L176.727,254.687"/>
	<path fill="#CFA71A" d="M176.727,254.687c0,0-1.494,2.38-3.716,3.107c-1.938,0.565-2.162-2.11-2.162-2.11
		c-0.181-0.605,0.576-0.997,0.576-0.997H176.727L176.727,254.687"/>
	<path opacity="0.2" fill="#032B2A" d="M193.561,279.046c-0.771-2.646,2.879-2.949,2.879-2.949c0.827-0.248,1.361,0.785,1.361,0.785
		s0.535-1.033,1.361-0.785c0,0,3.651,0.303,2.88,2.949c-0.993,3.031-4.241,5.07-4.241,5.07S194.553,282.077,193.561,279.046z"/>
	<path opacity="0.2" fill="#032B2A" d="M203.252,281.667c1.938-0.565,2.162,2.109,2.162,2.109c0.18,0.606-0.577,0.998-0.577,0.998
		s0.757,0.392,0.577,0.997c0,0-0.223,2.675-2.162,2.11c-2.222-0.728-3.716-3.107-3.716-3.107S201.031,282.395,203.252,281.667z"/>
	<path opacity="0.2" fill="#032B2A" d="M190.766,284.774c0,0-0.757-0.392-0.575-0.998c0,0,0.222-2.675,2.161-2.109
		c2.223,0.728,3.716,3.107,3.716,3.107s-1.493,2.38-3.716,3.107c-1.938,0.564-2.161-2.11-2.161-2.11
		C190.009,285.166,190.766,284.774,190.766,284.774z"/>
	<path fill="#E4B81D" d="M197.802,281.697c0,0,3.248-2.038,4.241-5.069c0.771-2.646-2.88-2.949-2.88-2.949
		c-0.826-0.248-1.361,0.785-1.361,0.785V281.697L197.802,281.697"/>
	<path fill="#CFA71A" d="M197.802,281.697c0,0-3.249-2.038-4.241-5.069c-0.771-2.646,2.879-2.949,2.879-2.949
		c0.827-0.248,1.361,0.785,1.361,0.785V281.697L197.802,281.697"/>
	<path fill="#B3362D" d="M194.791,275.985c0-0.516,0.419-0.935,0.936-0.935l0,0c0.518,0,0.936,0.419,0.936,0.935l0,0
		c0,0.518-0.418,0.937-0.936,0.937l0,0C195.21,276.922,194.791,276.503,194.791,275.985L194.791,275.985z"/>
	<path fill="#B3362D" d="M199.088,275.985c0-0.516,0.418-0.935,0.936-0.935l0,0c0.517,0,0.936,0.419,0.936,0.935l0,0
		c0,0.518-0.419,0.937-0.936,0.937l0,0C199.506,276.922,199.088,276.503,199.088,275.985L199.088,275.985z"/>
	<path fill="#E4B81D" d="M199.536,282.356c0,0,1.494-2.381,3.716-3.107c1.938-0.565,2.162,2.109,2.162,2.109
		c0.18,0.606-0.577,0.998-0.577,0.998H199.536L199.536,282.356"/>
	<path fill="#CFA71A" d="M199.536,282.356c0,0,1.494,2.381,3.716,3.107c1.938,0.565,2.162-2.109,2.162-2.109
		c0.18-0.606-0.577-0.998-0.577-0.998H199.536L199.536,282.356"/>
	<path fill="#E4B81D" d="M196.067,282.356c0,0-1.493-2.381-3.716-3.107c-1.938-0.565-2.161,2.109-2.161,2.109
		c-0.182,0.606,0.575,0.998,0.575,0.998H196.067L196.067,282.356"/>
	<path fill="#CFA71A" d="M196.067,282.356c0,0-1.493,2.381-3.716,3.107c-1.938,0.565-2.161-2.109-2.161-2.109
		c-0.182-0.606,0.575-0.998,0.575-0.998H196.067L196.067,282.356"/>
	<path opacity="0.2" fill="#032B2A" d="M152.326,295.605c0,0.444,0.361,0.807,0.806,0.807h50.256c0.446,0,0.806-0.362,0.806-0.807
		v-2.884c0-0.444-0.36-0.806-0.806-0.806h-50.256c-0.445,0-0.806,0.361-0.806,0.806V295.605z"/>
	<path fill="#C7B4A1" d="M152.326,293.994c0,0.444,0.361,0.806,0.806,0.806h50.256c0.446,0,0.806-0.361,0.806-0.806v-2.884
		c0-0.445-0.36-0.806-0.806-0.806h-50.256c-0.445,0-0.806,0.36-0.806,0.806V293.994z"/>
	<path opacity="0.2" fill="#032B2A" d="M174.221,279.046c-0.771-2.646,2.88-2.949,2.88-2.949c0.826-0.248,1.361,0.785,1.361,0.785
		s0.534-1.033,1.361-0.785c0,0,3.65,0.303,2.88,2.949c-0.993,3.031-4.241,5.07-4.241,5.07S175.214,282.077,174.221,279.046z"/>
	<path opacity="0.2" fill="#032B2A" d="M183.913,281.667c1.938-0.565,2.161,2.109,2.161,2.109c0.181,0.606-0.576,0.998-0.576,0.998
		s0.757,0.392,0.576,0.997c0,0-0.222,2.675-2.161,2.11c-2.223-0.728-3.716-3.107-3.716-3.107S181.69,282.395,183.913,281.667z"/>
	<path opacity="0.2" fill="#032B2A" d="M171.426,284.774c0,0-0.757-0.392-0.576-0.998c0,0,0.223-2.675,2.162-2.109
		c2.222,0.728,3.716,3.107,3.716,3.107s-1.494,2.38-3.716,3.107c-1.938,0.564-2.162-2.11-2.162-2.11
		C170.669,285.166,171.426,284.774,171.426,284.774z"/>
	<path fill="#E4B81D" d="M178.462,281.697c0,0,3.248-2.038,4.241-5.069c0.771-2.646-2.88-2.949-2.88-2.949
		c-0.827-0.248-1.361,0.785-1.361,0.785V281.697L178.462,281.697"/>
	<path fill="#CFA71A" d="M178.462,281.697c0,0-3.249-2.038-4.241-5.069c-0.771-2.646,2.88-2.949,2.88-2.949
		c0.826-0.248,1.361,0.785,1.361,0.785V281.697L178.462,281.697"/>
	<path fill="#B3362D" d="M175.451,275.985c0-0.516,0.418-0.935,0.936-0.935l0,0c0.517,0,0.936,0.419,0.936,0.935l0,0
		c0,0.518-0.419,0.937-0.936,0.937l0,0C175.87,276.922,175.451,276.503,175.451,275.985L175.451,275.985z"/>
	<path fill="#B3362D" d="M179.747,275.985c0-0.516,0.419-0.935,0.936-0.935l0,0c0.518,0,0.936,0.419,0.936,0.935l0,0
		c0,0.518-0.418,0.937-0.936,0.937l0,0C180.166,276.922,179.747,276.503,179.747,275.985L179.747,275.985z"/>
	<path fill="#E4B81D" d="M180.197,282.356c0,0,1.493-2.381,3.716-3.107c1.938-0.565,2.161,2.109,2.161,2.109
		c0.181,0.606-0.576,0.998-0.576,0.998H180.197L180.197,282.356"/>
	<path fill="#CFA71A" d="M180.197,282.356c0,0,1.493,2.381,3.716,3.107c1.938,0.565,2.161-2.109,2.161-2.109
		c0.181-0.606-0.576-0.998-0.576-0.998H180.197L180.197,282.356"/>
	<path fill="#E4B81D" d="M176.728,282.356c0,0-1.494-2.381-3.716-3.107c-1.938-0.565-2.162,2.109-2.162,2.109
		c-0.181,0.606,0.576,0.998,0.576,0.998H176.728L176.728,282.356"/>
	<path fill="#CFA71A" d="M176.728,282.356c0,0-1.494,2.381-3.716,3.107c-1.938,0.565-2.162-2.109-2.162-2.109
		c-0.181-0.606,0.576-0.998,0.576-0.998H176.728L176.728,282.356"/>
	<path opacity="0.2" fill="#032B2A" d="M154.882,279.046c-0.771-2.646,2.88-2.949,2.88-2.949c0.826-0.248,1.36,0.785,1.36,0.785
		s0.535-1.033,1.361-0.785c0,0,3.651,0.303,2.879,2.949c-0.992,3.031-4.241,5.07-4.241,5.07S155.873,282.077,154.882,279.046z"/>
	<path opacity="0.2" fill="#032B2A" d="M164.573,281.667c1.938-0.565,2.162,2.109,2.162,2.109c0.18,0.606-0.577,0.998-0.577,0.998
		s0.757,0.392,0.577,0.997c0,0-0.223,2.675-2.162,2.11c-2.222-0.728-3.716-3.107-3.716-3.107S162.351,282.395,164.573,281.667z"/>
	<path opacity="0.2" fill="#032B2A" d="M152.086,284.774c0,0-0.757-0.392-0.575-0.998c0,0,0.223-2.675,2.161-2.109
		c2.223,0.728,3.716,3.107,3.716,3.107s-1.493,2.38-3.716,3.107c-1.938,0.564-2.161-2.11-2.161-2.11
		C151.329,285.166,152.086,284.774,152.086,284.774z"/>
	<path fill="#E4B81D" d="M159.122,281.697c0,0,3.249-2.038,4.241-5.069c0.772-2.646-2.879-2.949-2.879-2.949
		c-0.826-0.248-1.361,0.785-1.361,0.785V281.697L159.122,281.697"/>
	<path fill="#CFA71A" d="M159.122,281.697c0,0-3.249-2.038-4.24-5.069c-0.771-2.646,2.88-2.949,2.88-2.949
		c0.826-0.248,1.36,0.785,1.36,0.785V281.697L159.122,281.697"/>
	<path fill="#B3362D" d="M156.111,275.985c0-0.516,0.419-0.935,0.936-0.935l0,0c0.518,0,0.937,0.419,0.937,0.935l0,0
		c0,0.518-0.419,0.937-0.937,0.937l0,0C156.53,276.922,156.111,276.503,156.111,275.985L156.111,275.985z"/>
	<path fill="#B3362D" d="M160.408,275.985c0-0.516,0.419-0.935,0.936-0.935l0,0c0.517,0,0.936,0.419,0.936,0.935l0,0
		c0,0.518-0.419,0.937-0.936,0.937l0,0C160.827,276.922,160.408,276.503,160.408,275.985L160.408,275.985z"/>
	<path fill="#E4B81D" d="M160.857,282.356c0,0,1.494-2.381,3.716-3.107c1.938-0.565,2.162,2.109,2.162,2.109
		c0.18,0.606-0.577,0.998-0.577,0.998H160.857L160.857,282.356"/>
	<path fill="#CFA71A" d="M160.857,282.356c0,0,1.494,2.381,3.716,3.107c1.938,0.565,2.162-2.109,2.162-2.109
		c0.18-0.606-0.577-0.998-0.577-0.998H160.857L160.857,282.356"/>
	<path fill="#E4B81D" d="M157.387,282.356c0,0-1.493-2.381-3.716-3.107c-1.938-0.565-2.161,2.109-2.161,2.109
		c-0.182,0.606,0.575,0.998,0.575,0.998H157.387L157.387,282.356"/>
	<path fill="#CFA71A" d="M157.387,282.356c0,0-1.493,2.381-3.716,3.107c-1.938,0.565-2.161-2.109-2.161-2.109
		c-0.182-0.606,0.575-0.998,0.575-0.998H157.387L157.387,282.356"/>
	<path fill="#B3362D" d="M165.514,283.95c0-0.426-0.345-0.771-0.77-0.771l0,0c-0.424,0-0.77,0.345-0.77,0.771l0,0
		c0,0.424,0.345,0.77,0.77,0.77l0,0C165.17,284.72,165.514,284.374,165.514,283.95L165.514,283.95z"/>
	<path fill="#B3362D" d="M165.514,280.764c0,0.426-0.345,0.77-0.77,0.77l0,0c-0.424,0-0.77-0.344-0.77-0.77l0,0
		c0-0.425,0.345-0.77,0.77-0.77l0,0C165.17,279.994,165.514,280.339,165.514,280.764L165.514,280.764z"/>
	<circle fill="#CFA71A" cx="216.512" cy="188.471" r="4.05"/>
	<circle fill="#CFA71A" cx="201.993" cy="319.4" r="2.316"/>
	<circle fill="#CFA71A" cx="201.993" cy="307.573" r="2.316"/>
	<path fill="#E4B81D" d="M229.832,281.352c-1.532,0-2.975-0.569-4.174-1.669c-1.843-1.688-2.781-4.396-2.389-6.898
		c0.308-1.968,1.738-4.513,3.783-5.354c0.906-0.374,2.313-0.576,3.875,0.573c1.152,0.849,1.899,3.137,1.538,4.709
		c-0.24,1.038-0.937,1.737-1.912,1.916c-0.504,0.101-0.988-0.241-1.081-0.745c-0.093-0.504,0.241-0.988,0.745-1.081
		c0.125-0.023,0.335-0.062,0.438-0.507c0.222-0.964-0.355-2.448-0.829-2.796c-0.705-0.52-1.381-0.634-2.068-0.354
		c-1.347,0.556-2.427,2.47-2.655,3.924c-0.298,1.906,0.412,3.963,1.809,5.243c1.131,1.038,2.569,1.405,4.05,1.038
		c2.62-0.647,3.72-4.022,4.783-7.285c0.655-2.008,1.277-3.919,2.256-5.35c-0.979-1.431-1.602-3.341-2.256-5.35
		c-1.063-3.263-2.164-6.637-4.783-7.285c-1.481-0.366-2.919,0.001-4.05,1.038c-1.396,1.28-2.106,3.338-1.809,5.243
		c0.228,1.454,1.308,3.369,2.655,3.924c0.684,0.28,1.362,0.166,2.068-0.353c0.474-0.349,1.051-1.833,0.829-2.797
		c-0.103-0.445-0.312-0.483-0.438-0.507c-0.504-0.093-0.838-0.576-0.745-1.081c0.092-0.504,0.576-0.842,1.081-0.745
		c0.976,0.179,1.672,0.878,1.912,1.916c0.362,1.572-0.385,3.861-1.538,4.71c-1.562,1.149-2.969,0.947-3.875,0.572
		c-2.044-0.841-3.475-3.386-3.783-5.353c-0.392-2.503,0.546-5.211,2.389-6.899c1.604-1.47,3.648-1.991,5.75-1.472
		c3.62,0.896,4.939,4.942,6.103,8.513c0.693,2.125,1.348,4.132,2.363,5.322c0.297,0.347,0.297,0.858,0,1.206
		c-1.016,1.189-1.67,3.196-2.363,5.321c-1.164,3.57-2.482,7.616-6.103,8.513C230.877,281.286,230.35,281.352,229.832,281.352z"/>
	<circle fill="#E4B81D" cx="167.427" cy="218.301" r="2.776"/>
	<path fill="#E4B81D" d="M171.977,228.175h-0.929c0-6.155-2.095-7.948-2.116-7.965l0.578-0.727
		C169.611,219.562,171.977,221.501,171.977,228.175z"/>
	<path fill="#E4B81D" d="M169.85,228.175h-0.928c0-6.369-1.139-8.034-1.151-8.05l0.74-0.561
		C168.648,219.741,169.85,221.488,169.85,228.175z"/>
	<path fill="#E4B81D" d="M163.537,228.175h-0.929c0-6.674,2.366-8.613,2.467-8.692l0.578,0.727
		C165.632,220.227,163.537,222.021,163.537,228.175z"/>
	<path fill="#E4B81D" d="M165.663,228.175h-0.929c0-6.687,1.202-8.434,1.339-8.611l0.74,0.561
		C166.802,220.141,165.663,221.806,165.663,228.175z"/>
	<rect x="166.828" y="219.848" fill="#E4B81D" width="0.928" height="8.327"/>
	<rect x="246.137" y="292.383" fill="#A3322A" width="7.714" height="165.777"/>
	<circle fill="#032B2A" cx="155.167" cy="205.446" r="0.749"/>
	<circle fill="#032B2A" cx="141.664" cy="184.729" r="0.749"/>
	<circle fill="#032B2A" cx="168.75" cy="184.729" r="0.749"/>
	<path fill="#E4B81D" d="M158.708,201.454c-0.868,0-1.777,0.525-2.458,1.037c-0.04-0.045-0.083-0.088-0.128-0.128
		c0.512-0.681,1.037-1.59,1.037-2.458c0-1.69-1.868-2.246-1.992-2.122c-0.125-0.124-1.992,0.432-1.992,2.122
		c0,0.868,0.525,1.777,1.037,2.458c-0.046,0.04-0.088,0.083-0.128,0.128c-0.681-0.512-1.59-1.037-2.458-1.037
		c-1.69,0-2.246,1.867-2.121,1.992c-0.125,0.125,0.431,1.992,2.121,1.992c0.868,0,1.777-0.525,2.458-1.037
		c0.04,0.045,0.082,0.088,0.128,0.128c-0.512,0.681-1.037,1.59-1.037,2.458c0,1.689,1.867,2.246,1.992,2.121
		c0.124,0.125,1.992-0.432,1.992-2.121c0-0.868-0.525-1.777-1.037-2.458c0.045-0.04,0.088-0.083,0.128-0.128
		c0.681,0.512,1.59,1.037,2.458,1.037c1.69,0,2.246-1.867,2.121-1.992C160.954,203.321,160.398,201.454,158.708,201.454z"/>
	<circle fill="#A13029" cx="155.167" cy="203.446" r="0.749"/>
	<path fill="#E4B81D" d="M145.205,180.737c-0.868,0-1.777,0.525-2.458,1.037c-0.04-0.045-0.083-0.088-0.128-0.128
		c0.512-0.681,1.037-1.59,1.037-2.458c0-1.69-1.868-2.246-1.992-2.122c-0.125-0.124-1.992,0.432-1.992,2.122
		c0,0.868,0.525,1.777,1.037,2.458c-0.046,0.04-0.088,0.083-0.128,0.128c-0.681-0.512-1.59-1.037-2.458-1.037
		c-1.69,0-2.246,1.867-2.121,1.992c-0.125,0.125,0.431,1.992,2.121,1.992c0.868,0,1.777-0.525,2.458-1.037
		c0.04,0.045,0.082,0.088,0.128,0.128c-0.512,0.681-1.037,1.59-1.037,2.458c0,1.689,1.867,2.246,1.992,2.121
		c0.124,0.125,1.992-0.432,1.992-2.121c0-0.868-0.525-1.777-1.037-2.458c0.045-0.04,0.088-0.083,0.128-0.128
		c0.681,0.512,1.59,1.037,2.458,1.037c1.69,0,2.246-1.867,2.121-1.992C147.451,182.604,146.895,180.737,145.205,180.737z"/>
	<circle fill="#A13029" cx="141.664" cy="182.729" r="0.749"/>
	<path fill="#E4B81D" d="M172.291,180.737c-0.868,0-1.777,0.525-2.458,1.037c-0.04-0.045-0.083-0.088-0.128-0.128
		c0.512-0.681,1.037-1.59,1.037-2.458c0-1.69-1.868-2.246-1.992-2.122c-0.125-0.124-1.992,0.432-1.992,2.122
		c0,0.868,0.525,1.777,1.037,2.458c-0.046,0.04-0.088,0.083-0.128,0.128c-0.681-0.512-1.59-1.037-2.458-1.037
		c-1.69,0-2.246,1.867-2.121,1.992c-0.125,0.125,0.431,1.992,2.121,1.992c0.868,0,1.777-0.525,2.458-1.037
		c0.04,0.045,0.082,0.088,0.128,0.128c-0.512,0.681-1.037,1.59-1.037,2.458c0,1.689,1.867,2.246,1.992,2.121
		c0.124,0.125,1.992-0.432,1.992-2.121c0-0.868-0.525-1.777-1.037-2.458c0.045-0.04,0.088-0.083,0.128-0.128
		c0.681,0.512,1.59,1.037,2.458,1.037c1.69,0,2.246-1.867,2.121-1.992C174.537,182.604,173.981,180.737,172.291,180.737z"/>
	<circle fill="#A13029" cx="168.75" cy="182.729" r="0.749"/>
	<circle fill="#E4B81D" cx="170.67" cy="200.436" r="1.92"/>
	<circle fill="#E4B81D" cx="165.515" cy="196.318" r="1.92"/>
	<circle fill="#E4B81D" cx="160.361" cy="192.2" r="1.92"/>
	<circle fill="#E4B81D" cx="155.207" cy="188.082" r="1.92"/>
	<circle fill="#E4B81D" cx="139.744" cy="200.436" r="1.92"/>
	<circle fill="#E4B81D" cx="144.898" cy="196.318" r="1.92"/>
	<circle fill="#E4B81D" cx="150.052" cy="192.2" r="1.92"/>
	<circle fill="#E4B81D" cx="155.207" cy="188.082" r="1.92"/>
	<circle fill="#E4B81D" cx="155.167" cy="180.809" r="1.92"/>
	<circle fill="#032B2A" cx="344.822" cy="205.446" r="0.749"/>
	<circle fill="#032B2A" cx="358.325" cy="184.729" r="0.749"/>
	<circle fill="#032B2A" cx="331.24" cy="184.729" r="0.749"/>
	<path fill="#E4B81D" d="M341.281,201.454c0.867,0,1.777,0.525,2.457,1.037c0.041-0.045,0.084-0.088,0.129-0.128
		c-0.512-0.681-1.037-1.59-1.037-2.458c0-1.69,1.867-2.246,1.992-2.122c0.125-0.124,1.992,0.432,1.992,2.122
		c0,0.868-0.525,1.777-1.037,2.458c0.045,0.04,0.088,0.083,0.127,0.128c0.682-0.512,1.59-1.037,2.459-1.037
		c1.689,0,2.246,1.867,2.121,1.992c0.125,0.125-0.432,1.992-2.121,1.992c-0.869,0-1.777-0.525-2.459-1.037
		c-0.039,0.045-0.082,0.088-0.127,0.128c0.512,0.681,1.037,1.59,1.037,2.458c0,1.689-1.867,2.246-1.992,2.121
		c-0.125,0.125-1.992-0.432-1.992-2.121c0-0.868,0.525-1.777,1.037-2.458c-0.045-0.04-0.088-0.083-0.129-0.128
		c-0.68,0.512-1.59,1.037-2.457,1.037c-1.691,0-2.246-1.867-2.121-1.992C339.035,203.321,339.59,201.454,341.281,201.454z"/>
	<circle fill="#A13029" cx="344.822" cy="203.446" r="0.749"/>
	<path fill="#E4B81D" d="M354.783,180.737c0.869,0,1.777,0.525,2.459,1.037c0.039-0.045,0.082-0.088,0.127-0.128
		c-0.512-0.681-1.037-1.59-1.037-2.458c0-1.69,1.869-2.246,1.992-2.122c0.125-0.124,1.992,0.432,1.992,2.122
		c0,0.868-0.525,1.777-1.037,2.458c0.047,0.04,0.088,0.083,0.129,0.128c0.68-0.512,1.59-1.037,2.457-1.037
		c1.691,0,2.246,1.867,2.121,1.992c0.125,0.125-0.43,1.992-2.121,1.992c-0.867,0-1.777-0.525-2.457-1.037
		c-0.041,0.045-0.082,0.088-0.129,0.128c0.512,0.681,1.037,1.59,1.037,2.458c0,1.689-1.867,2.246-1.992,2.121
		c-0.123,0.125-1.992-0.432-1.992-2.121c0-0.868,0.525-1.777,1.037-2.458c-0.045-0.04-0.088-0.083-0.127-0.128
		c-0.682,0.512-1.59,1.037-2.459,1.037c-1.689,0-2.246-1.867-2.121-1.992C352.537,182.604,353.094,180.737,354.783,180.737z"/>
	<circle fill="#A13029" cx="358.325" cy="182.729" r="0.749"/>
	<path fill="#E4B81D" d="M327.698,180.737c0.869,0,1.777,0.525,2.459,1.037c0.039-0.045,0.082-0.088,0.127-0.128
		c-0.512-0.681-1.037-1.59-1.037-2.458c0-1.69,1.869-2.246,1.992-2.122c0.125-0.124,1.992,0.432,1.992,2.122
		c0,0.868-0.525,1.777-1.037,2.458c0.047,0.04,0.088,0.083,0.129,0.128c0.68-0.512,1.59-1.037,2.457-1.037
		c1.691,0,2.246,1.867,2.121,1.992c0.125,0.125-0.43,1.992-2.121,1.992c-0.867,0-1.777-0.525-2.457-1.037
		c-0.041,0.045-0.082,0.088-0.129,0.128c0.512,0.681,1.037,1.59,1.037,2.458c0,1.689-1.867,2.246-1.992,2.121
		c-0.123,0.125-1.992-0.432-1.992-2.121c0-0.868,0.525-1.777,1.037-2.458c-0.045-0.04-0.088-0.083-0.127-0.128
		c-0.682,0.512-1.59,1.037-2.459,1.037c-1.689,0-2.246-1.867-2.121-1.992C325.451,182.604,326.008,180.737,327.698,180.737z"/>
	<circle fill="#A13029" cx="331.24" cy="182.729" r="0.749"/>
	<circle fill="#E4B81D" cx="329.319" cy="200.436" r="1.92"/>
	<circle fill="#E4B81D" cx="334.473" cy="196.318" r="1.92"/>
	<circle fill="#E4B81D" cx="339.627" cy="192.2" r="1.92"/>
	<circle fill="#E4B81D" cx="344.781" cy="188.082" r="1.92"/>
	<circle fill="#E4B81D" cx="360.244" cy="200.436" r="1.92"/>
	<circle fill="#E4B81D" cx="355.09" cy="196.318" r="1.92"/>
	<circle fill="#E4B81D" cx="349.936" cy="192.2" r="1.92"/>
	<circle fill="#E4B81D" cx="344.781" cy="188.082" r="1.92"/>
	<circle fill="#E4B81D" cx="344.823" cy="180.809" r="1.92"/>
	<rect x="98.233" y="273.64" opacity="0.4" fill="#CFA71A" width="13.672" height="50.347"/>
	<polygon fill="#CFA71A" points="84.109,291.539 69.3,291.539 69.3,289.539 82.109,289.539 82.109,284.729 69.3,284.729 
		69.3,282.729 84.109,282.729 	"/>
	<polygon fill="#CFA71A" points="84.109,305.719 69.3,305.719 69.3,303.719 82.109,303.719 82.109,298.908 69.3,298.908 
		69.3,296.908 84.109,296.908 	"/>
	<polygon fill="#CFA71A" points="84.109,319.898 69.3,319.898 69.3,317.898 82.109,317.898 82.109,313.088 69.3,313.088 
		69.3,311.088 84.109,311.088 	"/>
	<rect x="386.084" y="273.64" opacity="0.4" fill="#CFA71A" width="13.672" height="50.347"/>
	<polygon fill="#CFA71A" points="413.88,291.539 428.689,291.539 428.689,289.539 415.88,289.539 415.88,284.729 428.689,284.729 
		428.689,282.729 413.88,282.729 	"/>
	<polygon fill="#CFA71A" points="413.88,305.719 428.689,305.719 428.689,303.719 415.88,303.719 415.88,298.908 428.689,298.908 
		428.689,296.908 413.88,296.908 	"/>
	<polygon fill="#CFA71A" points="413.88,319.898 428.689,319.898 428.689,317.898 415.88,317.898 415.88,313.088 428.689,313.088 
		428.689,311.088 413.88,311.088 	"/>
</g>
</svg>
