<?xml version="1.0" encoding="utf-8"?>
<!-- Generator: Adobe Illustrator 16.0.0, SVG Export Plug-In . SVG Version: 6.00 Build 0)  -->
<!DOCTYPE svg PUBLIC "-//W3C//DTD SVG 1.1//EN" "http://www.w3.org/Graphics/SVG/1.1/DTD/svg11.dtd">
<svg version="1.1" id="content" xmlns="http://www.w3.org/2000/svg" xmlns:xlink="http://www.w3.org/1999/xlink" x="0px" y="0px"
	 width="500px" height="500px" viewBox="0 0 500 500" enable-background="new 0 0 500 500" xml:space="preserve">
<rect id="position" x="0.5" y="0.5" display="none" fill="none" stroke="#000000" width="499" height="499"/>
<rect x="116.617" y="174.736" fill="#B3362D" width="265.875" height="305.344"/>
<path fill="#C7B4A1" d="M250.027,251.5c0,0,40.224-15.25,48.474-47c0-20.75,0-29.764,0-29.764h-48.474V251.5z"/>
<polygon opacity="0.2" fill="#032B2A" points="249.834,188.12 271.5,211.12 304,181.356 250.027,181.356 "/>
<path fill="#E4B81D" d="M255.181,294.166h-2v-37.245l0.637-0.248c7.924-3.09,27.491-12.135,38.037-29.354l1.705,1.045
	c-10.588,17.288-29.897,26.535-38.379,29.921V294.166z"/>
<polygon opacity="0.2" fill="#032B2A" points="250.005,294.166 213.053,294.166 213.053,301.533 250.005,301.533 287,301.533 
	287,294.166 "/>
<path opacity="0.2" fill="#032B2A" d="M382.539,301.298c-27.198,37.375-67.025,41.535-83.334,41.535c-0.001,0,0,0-0.001,0
	c-4.782,0-7.699-0.356-7.821-0.371L287,341.917V200.576h-2.126H282.5c0,0-2.062-0.201-2.062-3.701c14.062,0,20.812,0,20.812,0
	h81.289V301.298z"/>
<path fill="#C7B4A1" d="M250.027,251.5c0,0-40.224-15.25-48.474-47c0-20.75,0-29.764,0-29.764h48.474V251.5z"/>
<path fill="#032B2A" d="M252.608,200.335l5.608-10.717l1.201-4.904l-9.391-3.06l-9.391,3.06l1.201,4.904l5.608,10.717
	l-11.863,43.908c8.133,4.862,14.444,7.256,14.444,7.256s6.312-2.395,14.444-7.256L252.608,200.335z"/>
<polygon opacity="0.2" fill="#032B2A" points="250.219,188.12 228.553,211.12 196.053,181.356 250.027,181.356 "/>
<polygon fill="#DBC7B1" points="304,174.736 250.027,174.736 196.053,174.736 228.553,204.5 250.027,181.705 271.5,204.5 "/>
<path fill="#B3362D" d="M292,174.736v5.638h-9.916c-1.657,0-3,1.343-3,3v12.202c0,1.657,1.343,3,3,3H292V337.5
	c0,0,57.484,7.027,90.492-43.486c0-48.514,0-119.278,0-119.278H292z"/>
<path opacity="0.2" fill="#032B2A" d="M382.492,222.577c0,0-6.492,0-34.992,0c-40.75,0-39.793-41.841-39.793-41.841h74.785V222.577z
	"/>
<path fill="#A13029" d="M382.492,216.577c0,0-6.492,0-34.992,0c-40.75,0-39.793-41.841-39.793-41.841h74.785V216.577z"/>
<path fill="#E4B81D" d="M382.492,218.077H347.5c-12.25,0-22.069-3.691-29.185-10.971c-12.413-12.7-12.126-31.606-12.108-32.404
	l3,0.067c-0.004,0.184-0.26,18.476,11.27,30.256c6.529,6.67,15.621,10.052,27.023,10.052h34.992V218.077z"/>
<path opacity="0.2" fill="#032B2A" d="M310.807,227.567c0.83-2.85-3.102-3.176-3.102-3.176c-0.891-0.268-1.466,0.846-1.466,0.846
	s-0.576-1.114-1.466-0.846c0,0-3.933,0.326-3.102,3.176c1.069,3.265,4.567,5.46,4.567,5.46S309.739,230.832,310.807,227.567z"/>
<path opacity="0.2" fill="#032B2A" d="M300.369,230.39c-2.088-0.609-2.328,2.272-2.328,2.272c-0.194,0.653,0.621,1.075,0.621,1.075
	s-0.815,0.421-0.621,1.074c0,0,0.24,2.881,2.328,2.272c2.393-0.783,4.002-3.347,4.002-3.347S302.762,231.173,300.369,230.39z"/>
<path opacity="0.2" fill="#032B2A" d="M313.818,233.737c0,0,0.815-0.422,0.619-1.075c0,0-0.239-2.881-2.327-2.272
	c-2.394,0.783-4.002,3.347-4.002,3.347s1.608,2.563,4.002,3.347c2.088,0.609,2.327-2.272,2.327-2.272
	C314.633,234.158,313.818,233.737,313.818,233.737z"/>
<path fill="#E4B81D" d="M306.24,230.423c0,0-3.498-2.195-4.567-5.46c-0.831-2.85,3.102-3.176,3.102-3.176
	c0.89-0.268,1.466,0.846,1.466,0.846V230.423L306.24,230.423"/>
<path fill="#CFA71A" d="M306.24,230.423c0,0,3.499-2.195,4.567-5.46c0.83-2.85-3.102-3.176-3.102-3.176
	c-0.891-0.268-1.466,0.846-1.466,0.846V230.423L306.24,230.423"/>
<path fill="#B3362D" d="M309.483,224.271c0-0.557-0.451-1.008-1.008-1.008l0,0c-0.558,0-1.008,0.451-1.008,1.008l0,0
	c0,0.557,0.45,1.008,1.008,1.008l0,0C309.031,225.279,309.483,224.828,309.483,224.271L309.483,224.271z"/>
<path fill="#B3362D" d="M304.855,224.271c0-0.557-0.45-1.008-1.008-1.008l0,0c-0.557,0-1.008,0.451-1.008,1.008l0,0
	c0,0.557,0.451,1.008,1.008,1.008l0,0C304.405,225.279,304.855,224.828,304.855,224.271L304.855,224.271z"/>
<path fill="#E4B81D" d="M304.371,231.133c0,0-1.609-2.564-4.002-3.347c-2.088-0.609-2.328,2.272-2.328,2.272
	c-0.194,0.653,0.621,1.075,0.621,1.075H304.371L304.371,231.133"/>
<path fill="#CFA71A" d="M304.371,231.133c0,0-1.609,2.563-4.002,3.347c-2.088,0.608-2.328-2.272-2.328-2.272
	c-0.194-0.653,0.621-1.074,0.621-1.074H304.371L304.371,231.133"/>
<path fill="#E4B81D" d="M308.108,231.133c0,0,1.608-2.564,4.002-3.347c2.088-0.609,2.327,2.272,2.327,2.272
	c0.196,0.653-0.619,1.075-0.619,1.075H308.108L308.108,231.133"/>
<path fill="#CFA71A" d="M308.108,231.133c0,0,1.608,2.563,4.002,3.347c2.088,0.608,2.327-2.272,2.327-2.272
	c0.196-0.653-0.619-1.074-0.619-1.074H308.108L308.108,231.133"/>
<path opacity="0.2" fill="#032B2A" d="M313.124,245.402c0,0.479-0.389,0.868-0.868,0.868h-12.033c-0.48,0-0.868-0.389-0.868-0.868
	v-3.106c0-0.479,0.388-0.868,0.868-0.868h12.033c0.479,0,0.868,0.389,0.868,0.868V245.402z"/>
<path fill="#C7B4A1" d="M313.124,243.667c0,0.479-0.389,0.868-0.868,0.868h-12.033c-0.48,0-0.868-0.388-0.868-0.868v-3.106
	c0-0.479,0.388-0.868,0.868-0.868h12.033c0.479,0,0.868,0.389,0.868,0.868V243.667z"/>
<path opacity="0.2" fill="#032B2A" d="M310.807,257.368c0.83-2.85-3.102-3.177-3.102-3.177c-0.891-0.267-1.466,0.847-1.466,0.847
	s-0.576-1.113-1.466-0.847c0,0-3.933,0.327-3.102,3.177c1.069,3.265,4.567,5.46,4.567,5.46S309.739,260.633,310.807,257.368z"/>
<path opacity="0.2" fill="#032B2A" d="M300.369,260.19c-2.088-0.608-2.328,2.272-2.328,2.272c-0.194,0.653,0.621,1.075,0.621,1.075
	s-0.815,0.421-0.621,1.074c0,0,0.24,2.881,2.328,2.272c2.393-0.783,4.002-3.347,4.002-3.347S302.762,260.974,300.369,260.19z"/>
<path opacity="0.2" fill="#032B2A" d="M313.818,263.538c0,0,0.815-0.422,0.619-1.075c0,0-0.239-2.881-2.327-2.272
	c-2.394,0.783-4.002,3.348-4.002,3.348s1.608,2.563,4.002,3.347c2.088,0.608,2.327-2.272,2.327-2.272
	C314.633,263.959,313.818,263.538,313.818,263.538z"/>
<path fill="#E4B81D" d="M306.24,260.225c0,0-3.498-2.195-4.567-5.461c-0.831-2.85,3.102-3.176,3.102-3.176
	c0.89-0.268,1.466,0.845,1.466,0.845V260.225L306.24,260.225"/>
<path fill="#CFA71A" d="M306.24,260.225c0,0,3.499-2.195,4.567-5.461c0.83-2.85-3.102-3.176-3.102-3.176
	c-0.891-0.268-1.466,0.845-1.466,0.845V260.225L306.24,260.225"/>
<path fill="#B3362D" d="M309.483,254.072c0-0.556-0.451-1.007-1.008-1.007l0,0c-0.558,0-1.008,0.451-1.008,1.007l0,0
	c0,0.557,0.45,1.009,1.008,1.009l0,0C309.031,255.081,309.483,254.629,309.483,254.072L309.483,254.072z"/>
<path fill="#B3362D" d="M304.855,254.072c0-0.556-0.45-1.007-1.008-1.007l0,0c-0.557,0-1.008,0.451-1.008,1.007l0,0
	c0,0.557,0.451,1.009,1.008,1.009l0,0C304.405,255.081,304.855,254.629,304.855,254.072L304.855,254.072z"/>
<path fill="#E4B81D" d="M304.371,260.934c0,0-1.609-2.563-4.002-3.347c-2.088-0.608-2.328,2.272-2.328,2.272
	c-0.194,0.652,0.621,1.074,0.621,1.074H304.371L304.371,260.934"/>
<path fill="#CFA71A" d="M304.371,260.934c0,0-1.609,2.563-4.002,3.347c-2.088,0.609-2.328-2.272-2.328-2.272
	c-0.194-0.652,0.621-1.074,0.621-1.074H304.371L304.371,260.934"/>
<path fill="#E4B81D" d="M308.108,260.934c0,0,1.608-2.563,4.002-3.347c2.088-0.608,2.327,2.272,2.327,2.272
	c0.196,0.652-0.619,1.074-0.619,1.074H308.108L308.108,260.934"/>
<path fill="#CFA71A" d="M308.108,260.934c0,0,1.608,2.563,4.002,3.347c2.088,0.609,2.327-2.272,2.327-2.272
	c0.196-0.652-0.619-1.074-0.619-1.074H308.108L308.108,260.934"/>
<path opacity="0.2" fill="#032B2A" d="M334.388,275.203c0,0.479-0.389,0.868-0.868,0.868h-33.297c-0.48,0-0.868-0.389-0.868-0.868
	v-3.105c0-0.479,0.388-0.868,0.868-0.868h33.297c0.479,0,0.868,0.39,0.868,0.868V275.203z"/>
<path fill="#C7B4A1" d="M334.388,273.468c0,0.479-0.389,0.868-0.868,0.868h-33.297c-0.48,0-0.868-0.39-0.868-0.868v-3.106
	c0-0.479,0.388-0.867,0.868-0.867h33.297c0.479,0,0.868,0.389,0.868,0.867V273.468z"/>
<path opacity="0.2" fill="#032B2A" d="M331.637,257.368c0.83-2.85-3.102-3.177-3.102-3.177c-0.891-0.267-1.466,0.847-1.466,0.847
	s-0.575-1.113-1.466-0.847c0,0-3.932,0.327-3.102,3.177c1.069,3.265,4.567,5.46,4.567,5.46S330.569,260.633,331.637,257.368z"/>
<path opacity="0.2" fill="#032B2A" d="M321.199,260.19c-2.088-0.608-2.327,2.272-2.327,2.272c-0.195,0.653,0.62,1.075,0.62,1.075
	s-0.815,0.421-0.62,1.074c0,0,0.239,2.881,2.327,2.272c2.394-0.783,4.002-3.347,4.002-3.347S323.593,260.974,321.199,260.19z"/>
<path opacity="0.2" fill="#032B2A" d="M334.648,263.538c0,0,0.815-0.422,0.62-1.075c0,0-0.24-2.881-2.328-2.272
	c-2.393,0.783-4.002,3.348-4.002,3.348s1.609,2.563,4.002,3.347c2.088,0.608,2.328-2.272,2.328-2.272
	C335.463,263.959,334.648,263.538,334.648,263.538z"/>
<path fill="#E4B81D" d="M327.07,260.225c0,0-3.498-2.195-4.567-5.461c-0.83-2.85,3.102-3.176,3.102-3.176
	c0.891-0.268,1.466,0.845,1.466,0.845V260.225L327.07,260.225"/>
<path fill="#CFA71A" d="M327.07,260.225c0,0,3.499-2.195,4.567-5.461c0.83-2.85-3.102-3.176-3.102-3.176
	c-0.891-0.268-1.466,0.845-1.466,0.845V260.225L327.07,260.225"/>
<path fill="#B3362D" d="M330.313,254.072c0-0.556-0.451-1.007-1.008-1.007l0,0c-0.557,0-1.008,0.451-1.008,1.007l0,0
	c0,0.557,0.451,1.009,1.008,1.009l0,0C329.862,255.081,330.313,254.629,330.313,254.072L330.313,254.072z"/>
<path fill="#B3362D" d="M325.686,254.072c0-0.556-0.451-1.007-1.008-1.007l0,0c-0.558,0-1.008,0.451-1.008,1.007l0,0
	c0,0.557,0.45,1.009,1.008,1.009l0,0C325.235,255.081,325.686,254.629,325.686,254.072L325.686,254.072z"/>
<path fill="#E4B81D" d="M325.201,260.934c0,0-1.608-2.563-4.002-3.347c-2.088-0.608-2.327,2.272-2.327,2.272
	c-0.195,0.652,0.62,1.074,0.62,1.074H325.201L325.201,260.934"/>
<path fill="#CFA71A" d="M325.201,260.934c0,0-1.608,2.563-4.002,3.347c-2.088,0.609-2.327-2.272-2.327-2.272
	c-0.195-0.652,0.62-1.074,0.62-1.074H325.201L325.201,260.934"/>
<path fill="#E4B81D" d="M328.938,260.934c0,0,1.609-2.563,4.002-3.347c2.088-0.608,2.328,2.272,2.328,2.272
	c0.195,0.652-0.62,1.074-0.62,1.074H328.938L328.938,260.934"/>
<path fill="#CFA71A" d="M328.938,260.934c0,0,1.609,2.563,4.002,3.347c2.088,0.609,2.328-2.272,2.328-2.272
	c0.195-0.652-0.62-1.074-0.62-1.074H328.938L328.938,260.934"/>
<path opacity="0.2" fill="#032B2A" d="M310.807,287.169c0.83-2.85-3.102-3.176-3.102-3.176c-0.891-0.268-1.466,0.846-1.466,0.846
	s-0.576-1.113-1.466-0.846c0,0-3.933,0.326-3.102,3.176c1.069,3.266,4.567,5.461,4.567,5.461S309.739,290.435,310.807,287.169z"/>
<path opacity="0.2" fill="#032B2A" d="M300.369,289.992c-2.088-0.609-2.328,2.272-2.328,2.272c-0.194,0.652,0.621,1.074,0.621,1.074
	s-0.815,0.422-0.621,1.074c0,0,0.24,2.881,2.328,2.272c2.393-0.783,4.002-3.347,4.002-3.347S302.762,290.775,300.369,289.992z"/>
<path opacity="0.2" fill="#032B2A" d="M313.818,293.339c0,0,0.815-0.422,0.619-1.074c0,0-0.239-2.882-2.327-2.272
	c-2.394,0.783-4.002,3.347-4.002,3.347s1.608,2.563,4.002,3.347c2.088,0.608,2.327-2.272,2.327-2.272
	C314.633,293.761,313.818,293.339,313.818,293.339z"/>
<path fill="#E4B81D" d="M306.24,290.025c0,0-3.498-2.195-4.567-5.46c-0.831-2.851,3.102-3.177,3.102-3.177
	c0.89-0.267,1.466,0.846,1.466,0.846V290.025L306.24,290.025"/>
<path fill="#CFA71A" d="M306.24,290.025c0,0,3.499-2.195,4.567-5.46c0.83-2.851-3.102-3.177-3.102-3.177
	c-0.891-0.267-1.466,0.846-1.466,0.846V290.025L306.24,290.025"/>
<path fill="#B3362D" d="M309.483,283.873c0-0.556-0.451-1.007-1.008-1.007l0,0c-0.558,0-1.008,0.451-1.008,1.007l0,0
	c0,0.558,0.45,1.009,1.008,1.009l0,0C309.031,284.882,309.483,284.431,309.483,283.873L309.483,283.873z"/>
<path fill="#B3362D" d="M304.855,283.873c0-0.556-0.45-1.007-1.008-1.007l0,0c-0.557,0-1.008,0.451-1.008,1.007l0,0
	c0,0.558,0.451,1.009,1.008,1.009l0,0C304.405,284.882,304.855,284.431,304.855,283.873L304.855,283.873z"/>
<path fill="#E4B81D" d="M304.371,290.735c0,0-1.609-2.564-4.002-3.348c-2.088-0.608-2.328,2.272-2.328,2.272
	c-0.194,0.653,0.621,1.075,0.621,1.075H304.371L304.371,290.735"/>
<path fill="#CFA71A" d="M304.371,290.735c0,0-1.609,2.563-4.002,3.347c-2.088,0.608-2.328-2.272-2.328-2.272
	c-0.194-0.653,0.621-1.074,0.621-1.074H304.371L304.371,290.735"/>
<path fill="#E4B81D" d="M308.108,290.735c0,0,1.608-2.564,4.002-3.348c2.088-0.608,2.327,2.272,2.327,2.272
	c0.196,0.653-0.619,1.075-0.619,1.075H308.108L308.108,290.735"/>
<path fill="#CFA71A" d="M308.108,290.735c0,0,1.608,2.563,4.002,3.347c2.088,0.608,2.327-2.272,2.327-2.272
	c0.196-0.653-0.619-1.074-0.619-1.074H308.108L308.108,290.735"/>
<path opacity="0.2" fill="#032B2A" d="M355.218,305.005c0,0.479-0.389,0.868-0.868,0.868h-54.127c-0.48,0-0.868-0.39-0.868-0.868
	v-3.106c0-0.479,0.388-0.867,0.868-0.867h54.127c0.479,0,0.868,0.389,0.868,0.867V305.005z"/>
<path fill="#C7B4A1" d="M355.218,303.269c0,0.479-0.389,0.868-0.868,0.868h-54.127c-0.48,0-0.868-0.389-0.868-0.868v-3.105
	c0-0.479,0.388-0.868,0.868-0.868h54.127c0.479,0,0.868,0.389,0.868,0.868V303.269z"/>
<path opacity="0.2" fill="#032B2A" d="M331.636,287.169c0.831-2.85-3.102-3.176-3.102-3.176c-0.89-0.268-1.466,0.846-1.466,0.846
	s-0.575-1.113-1.466-0.846c0,0-3.932,0.326-3.102,3.176c1.069,3.266,4.567,5.461,4.567,5.461S330.568,290.435,331.636,287.169z"/>
<path opacity="0.2" fill="#032B2A" d="M321.198,289.992c-2.088-0.609-2.327,2.272-2.327,2.272c-0.195,0.652,0.62,1.074,0.62,1.074
	s-0.815,0.422-0.62,1.074c0,0,0.239,2.881,2.327,2.272c2.394-0.783,4.002-3.347,4.002-3.347S323.592,290.775,321.198,289.992z"/>
<path opacity="0.2" fill="#032B2A" d="M334.647,293.339c0,0,0.815-0.422,0.62-1.074c0,0-0.24-2.882-2.328-2.272
	c-2.393,0.783-4.002,3.347-4.002,3.347s1.609,2.563,4.002,3.347c2.088,0.608,2.328-2.272,2.328-2.272
	C335.462,293.761,334.647,293.339,334.647,293.339z"/>
<path fill="#E4B81D" d="M327.069,290.025c0,0-3.498-2.195-4.567-5.46c-0.83-2.851,3.102-3.177,3.102-3.177
	c0.891-0.267,1.466,0.846,1.466,0.846V290.025L327.069,290.025"/>
<path fill="#CFA71A" d="M327.069,290.025c0,0,3.499-2.195,4.567-5.46c0.831-2.851-3.102-3.177-3.102-3.177
	c-0.89-0.267-1.466,0.846-1.466,0.846V290.025L327.069,290.025"/>
<path fill="#B3362D" d="M330.312,283.873c0-0.556-0.451-1.007-1.008-1.007l0,0c-0.557,0-1.008,0.451-1.008,1.007l0,0
	c0,0.558,0.451,1.009,1.008,1.009l0,0C329.861,284.882,330.312,284.431,330.312,283.873L330.312,283.873z"/>
<path fill="#B3362D" d="M325.685,283.873c0-0.556-0.451-1.007-1.008-1.007l0,0c-0.558,0-1.008,0.451-1.008,1.007l0,0
	c0,0.558,0.45,1.009,1.008,1.009l0,0C325.234,284.882,325.685,284.431,325.685,283.873L325.685,283.873z"/>
<path fill="#E4B81D" d="M325.2,290.735c0,0-1.608-2.564-4.002-3.348c-2.088-0.608-2.327,2.272-2.327,2.272
	c-0.195,0.653,0.62,1.075,0.62,1.075H325.2L325.2,290.735"/>
<path fill="#CFA71A" d="M325.2,290.735c0,0-1.608,2.563-4.002,3.347c-2.088,0.608-2.327-2.272-2.327-2.272
	c-0.195-0.653,0.62-1.074,0.62-1.074H325.2L325.2,290.735"/>
<path fill="#E4B81D" d="M328.937,290.735c0,0,1.609-2.564,4.002-3.348c2.088-0.608,2.328,2.272,2.328,2.272
	c0.195,0.653-0.62,1.075-0.62,1.075H328.937L328.937,290.735"/>
<path fill="#CFA71A" d="M328.937,290.735c0,0,1.609,2.563,4.002,3.347c2.088,0.608,2.328-2.272,2.328-2.272
	c0.195-0.653-0.62-1.074-0.62-1.074H328.937L328.937,290.735"/>
<path opacity="0.2" fill="#032B2A" d="M352.465,287.169c0.831-2.85-3.102-3.176-3.102-3.176c-0.89-0.268-1.465,0.846-1.465,0.846
	s-0.576-1.113-1.466-0.846c0,0-3.933,0.326-3.102,3.176c1.068,3.266,4.567,5.461,4.567,5.461S351.398,290.435,352.465,287.169z"/>
<path opacity="0.2" fill="#032B2A" d="M342.029,289.992c-2.088-0.609-2.328,2.272-2.328,2.272c-0.194,0.652,0.621,1.074,0.621,1.074
	s-0.815,0.422-0.621,1.074c0,0,0.24,2.881,2.328,2.272c2.393-0.783,4.002-3.347,4.002-3.347S344.421,290.775,342.029,289.992z"/>
<path opacity="0.2" fill="#032B2A" d="M355.477,293.339c0,0,0.815-0.422,0.619-1.074c0,0-0.24-2.882-2.327-2.272
	c-2.394,0.783-4.002,3.347-4.002,3.347s1.608,2.563,4.002,3.347c2.087,0.608,2.327-2.272,2.327-2.272
	C356.292,293.761,355.477,293.339,355.477,293.339z"/>
<path fill="#E4B81D" d="M347.899,290.025c0,0-3.499-2.195-4.567-5.46c-0.831-2.851,3.102-3.177,3.102-3.177
	c0.89-0.267,1.466,0.846,1.466,0.846V290.025L347.899,290.025"/>
<path fill="#CFA71A" d="M347.899,290.025c0,0,3.499-2.195,4.566-5.46c0.831-2.851-3.102-3.177-3.102-3.177
	c-0.89-0.267-1.465,0.846-1.465,0.846V290.025L347.899,290.025"/>
<path fill="#B3362D" d="M351.142,283.873c0-0.556-0.451-1.007-1.008-1.007l0,0c-0.558,0-1.009,0.451-1.009,1.007l0,0
	c0,0.558,0.451,1.009,1.009,1.009l0,0C350.691,284.882,351.142,284.431,351.142,283.873L351.142,283.873z"/>
<path fill="#B3362D" d="M346.514,283.873c0-0.556-0.451-1.007-1.008-1.007l0,0c-0.557,0-1.008,0.451-1.008,1.007l0,0
	c0,0.558,0.451,1.009,1.008,1.009l0,0C346.063,284.882,346.514,284.431,346.514,283.873L346.514,283.873z"/>
<path fill="#E4B81D" d="M346.031,290.735c0,0-1.609-2.564-4.002-3.348c-2.088-0.608-2.328,2.272-2.328,2.272
	c-0.194,0.653,0.621,1.075,0.621,1.075H346.031L346.031,290.735"/>
<path fill="#CFA71A" d="M346.031,290.735c0,0-1.609,2.563-4.002,3.347c-2.088,0.608-2.328-2.272-2.328-2.272
	c-0.194-0.653,0.621-1.074,0.621-1.074H346.031L346.031,290.735"/>
<path fill="#E4B81D" d="M349.767,290.735c0,0,1.608-2.564,4.002-3.348c2.087-0.608,2.327,2.272,2.327,2.272
	c0.196,0.653-0.619,1.075-0.619,1.075H349.767L349.767,290.735"/>
<path fill="#CFA71A" d="M349.767,290.735c0,0,1.608,2.563,4.002,3.347c2.087,0.608,2.327-2.272,2.327-2.272
	c0.196-0.653-0.619-1.074-0.619-1.074H349.767L349.767,290.735"/>
<path fill="#B3362D" d="M341.014,292.451c0-0.458,0.371-0.829,0.829-0.829l0,0c0.457,0,0.829,0.371,0.829,0.829l0,0
	c0,0.457-0.372,0.829-0.829,0.829l0,0C341.385,293.28,341.014,292.908,341.014,292.451L341.014,292.451z"/>
<path fill="#B3362D" d="M341.014,289.02c0,0.458,0.371,0.829,0.829,0.829l0,0c0.457,0,0.829-0.371,0.829-0.829l0,0
	c0-0.458-0.372-0.829-0.829-0.829l0,0C341.385,288.19,341.014,288.562,341.014,289.02L341.014,289.02z"/>
<circle fill="#CFA71A" cx="286.088" cy="189.618" r="4.362"/>
<circle fill="#CFA71A" cx="301.726" cy="330.632" r="2.494"/>
<circle fill="#CFA71A" cx="301.726" cy="317.894" r="2.494"/>
<path fill="#E4B81D" d="M271.741,289.652c-0.557,0-1.125-0.07-1.697-0.212c-3.898-0.966-5.319-5.323-6.573-9.169
	c-0.746-2.288-1.45-4.45-2.545-5.731c-0.319-0.374-0.319-0.925,0-1.299c1.095-1.281,1.799-3.443,2.545-5.731
	c1.254-3.846,2.675-8.203,6.573-9.169c2.269-0.562,4.467,0.003,6.193,1.585c1.985,1.818,2.995,4.735,2.573,7.431
	c-0.332,2.119-1.873,4.859-4.074,5.766c-0.976,0.402-2.492,0.62-4.174-0.617c-1.241-0.914-2.046-3.379-1.655-5.072
	c0.258-1.118,1.008-1.871,2.059-2.063c0.554-0.104,1.065,0.26,1.164,0.803c0.1,0.543-0.26,1.064-0.803,1.164
	c-0.135,0.025-0.361,0.066-0.472,0.546c-0.239,1.038,0.383,2.637,0.893,3.012c0.761,0.56,1.489,0.684,2.228,0.38
	c1.45-0.598,2.613-2.659,2.858-4.226c0.321-2.053-0.443-4.269-1.948-5.647c-1.217-1.116-2.767-1.516-4.361-1.118
	c-2.821,0.698-4.006,4.333-5.152,7.847c-0.704,2.163-1.376,4.221-2.43,5.762c1.054,1.541,1.726,3.599,2.43,5.762
	c1.146,3.514,2.331,7.148,5.152,7.847c1.595,0.394,3.145-0.002,4.361-1.118c1.505-1.379,2.27-3.595,1.948-5.647
	c-0.245-1.566-1.408-3.628-2.858-4.226c-0.739-0.305-1.468-0.18-2.228,0.38c-0.51,0.375-1.132,1.974-0.893,3.012
	c0.11,0.479,0.337,0.521,0.472,0.546c0.543,0.1,0.902,0.621,0.803,1.164c-0.099,0.543-0.611,0.91-1.164,0.803
	c-1.051-0.192-1.801-0.945-2.059-2.063c-0.391-1.693,0.414-4.158,1.655-5.072c1.683-1.237,3.199-1.021,4.174-0.617
	c2.201,0.906,3.742,3.646,4.074,5.766c0.422,2.695-0.588,5.612-2.573,7.431C274.947,289.039,273.391,289.652,271.741,289.652z"/>
<circle fill="#E4B81D" cx="338.953" cy="221.745" r="2.99"/>
<path fill="#E4B81D" d="M335.054,232.38h-1c0-7.188,2.548-9.276,2.656-9.362l0.623,0.783
	C337.311,223.82,335.054,225.751,335.054,232.38z"/>
<path fill="#E4B81D" d="M337.344,232.38h-1c0-7.202,1.295-9.084,1.442-9.275l0.797,0.604
	C338.571,223.728,337.344,225.521,337.344,232.38z"/>
<path fill="#E4B81D" d="M344.144,232.38h-1c0-6.629-2.257-8.561-2.279-8.579l0.623-0.783
	C341.596,223.104,344.144,225.192,344.144,232.38z"/>
<path fill="#E4B81D" d="M341.854,232.38h-1c0-6.86-1.227-8.653-1.239-8.67l0.797-0.604
	C340.559,223.296,341.854,225.178,341.854,232.38z"/>
<rect x="338.599" y="223.412" fill="#E4B81D" width="1" height="8.969"/>
<path fill="#E4B81D" d="M246.872,294.166h-2v-35.881c-8.482-3.386-27.791-12.633-38.379-29.921l1.705-1.045
	c10.545,17.218,30.113,26.264,38.037,29.354l0.637,0.248V294.166z"/>
<path opacity="0.2" fill="#032B2A" d="M117.514,301.298c27.198,37.375,67.025,41.535,83.334,41.535c0.001,0,0,0,0.001,0
	c4.782,0,7.699-0.356,7.821-0.371l4.383-0.545V200.576h2.126h2.374c0,0,2.062-0.201,2.062-3.701c-14.062,0-20.812,0-20.812,0
	h-81.289V301.298z"/>
<path fill="#B3362D" d="M208.053,174.736v5.638h9.916c1.657,0,3,1.343,3,3v12.202c0,1.657-1.343,3-3,3h-9.916V337.5
	c0,0-57.484,7.027-90.492-43.486c0-48.514,0-119.278,0-119.278H208.053z"/>
<path opacity="0.2" fill="#032B2A" d="M117.561,222.577c0,0,6.492,0,34.992,0c40.75,0,39.793-41.841,39.793-41.841h-74.785V222.577z
	"/>
<path fill="#A13029" d="M117.561,216.577c0,0,6.492,0,34.992,0c40.75,0,39.793-41.841,39.793-41.841h-74.785V216.577z"/>
<path fill="#E4B81D" d="M152.553,218.077h-34.992v-3h34.992c11.403,0,20.495-3.382,27.023-10.052
	c11.53-11.78,11.274-30.072,11.271-30.256l2.999-0.067c0.019,0.798,0.305,19.704-12.108,32.404
	C174.622,214.386,164.803,218.077,152.553,218.077z"/>
<path opacity="0.2" fill="#032B2A" d="M189.246,227.567c-0.83-2.85,3.102-3.176,3.102-3.176c0.891-0.268,1.466,0.846,1.466,0.846
	s0.576-1.114,1.466-0.846c0,0,3.933,0.326,3.102,3.176c-1.069,3.265-4.567,5.46-4.567,5.46S190.315,230.832,189.246,227.567z"/>
<path opacity="0.2" fill="#032B2A" d="M199.684,230.39c2.088-0.609,2.328,2.272,2.328,2.272c0.194,0.653-0.621,1.075-0.621,1.075
	s0.815,0.421,0.621,1.074c0,0-0.24,2.881-2.328,2.272c-2.393-0.783-4.002-3.347-4.002-3.347S197.291,231.173,199.684,230.39z"/>
<path opacity="0.2" fill="#032B2A" d="M186.236,233.737c0,0-0.815-0.422-0.619-1.075c0,0,0.239-2.881,2.327-2.272
	c2.394,0.783,4.002,3.347,4.002,3.347s-1.608,2.563-4.002,3.347c-2.088,0.609-2.327-2.272-2.327-2.272
	C185.42,234.158,186.236,233.737,186.236,233.737z"/>
<path fill="#E4B81D" d="M193.814,230.423c0,0,3.498-2.195,4.567-5.46c0.831-2.85-3.102-3.176-3.102-3.176
	c-0.89-0.268-1.466,0.846-1.466,0.846V230.423L193.814,230.423"/>
<path fill="#CFA71A" d="M193.814,230.423c0,0-3.499-2.195-4.567-5.46c-0.83-2.85,3.102-3.176,3.102-3.176
	c0.891-0.268,1.466,0.846,1.466,0.846V230.423L193.814,230.423"/>
<path fill="#B3362D" d="M190.571,224.271c0-0.557,0.451-1.008,1.008-1.008l0,0c0.558,0,1.008,0.451,1.008,1.008l0,0
	c0,0.557-0.45,1.008-1.008,1.008l0,0C191.022,225.279,190.571,224.828,190.571,224.271L190.571,224.271z"/>
<path fill="#B3362D" d="M195.198,224.271c0-0.557,0.45-1.008,1.008-1.008l0,0c0.557,0,1.008,0.451,1.008,1.008l0,0
	c0,0.557-0.451,1.008-1.008,1.008l0,0C195.649,225.279,195.198,224.828,195.198,224.271L195.198,224.271z"/>
<path fill="#E4B81D" d="M195.682,231.133c0,0,1.609-2.564,4.002-3.347c2.088-0.609,2.328,2.272,2.328,2.272
	c0.194,0.653-0.621,1.075-0.621,1.075H195.682L195.682,231.133"/>
<path fill="#CFA71A" d="M195.682,231.133c0,0,1.609,2.563,4.002,3.347c2.088,0.608,2.328-2.272,2.328-2.272
	c0.194-0.653-0.621-1.074-0.621-1.074H195.682L195.682,231.133"/>
<path fill="#E4B81D" d="M191.946,231.133c0,0-1.608-2.564-4.002-3.347c-2.088-0.609-2.327,2.272-2.327,2.272
	c-0.196,0.653,0.619,1.075,0.619,1.075H191.946L191.946,231.133"/>
<path fill="#CFA71A" d="M191.946,231.133c0,0-1.608,2.563-4.002,3.347c-2.088,0.608-2.327-2.272-2.327-2.272
	c-0.196-0.653,0.619-1.074,0.619-1.074H191.946L191.946,231.133"/>
<path opacity="0.2" fill="#032B2A" d="M186.929,245.402c0,0.479,0.389,0.868,0.868,0.868h12.033c0.48,0,0.868-0.389,0.868-0.868
	v-3.106c0-0.479-0.388-0.868-0.868-0.868h-12.033c-0.479,0-0.868,0.389-0.868,0.868V245.402z"/>
<path fill="#C7B4A1" d="M186.929,243.667c0,0.479,0.389,0.868,0.868,0.868h12.033c0.48,0,0.868-0.388,0.868-0.868v-3.106
	c0-0.479-0.388-0.868-0.868-0.868h-12.033c-0.479,0-0.868,0.389-0.868,0.868V243.667z"/>
<path opacity="0.2" fill="#032B2A" d="M189.246,257.368c-0.83-2.85,3.102-3.177,3.102-3.177c0.891-0.267,1.466,0.847,1.466,0.847
	s0.576-1.113,1.466-0.847c0,0,3.933,0.327,3.102,3.177c-1.069,3.265-4.567,5.46-4.567,5.46S190.315,260.633,189.246,257.368z"/>
<path opacity="0.2" fill="#032B2A" d="M199.684,260.19c2.088-0.608,2.328,2.272,2.328,2.272c0.194,0.653-0.621,1.075-0.621,1.075
	s0.815,0.421,0.621,1.074c0,0-0.24,2.881-2.328,2.272c-2.393-0.783-4.002-3.347-4.002-3.347S197.291,260.974,199.684,260.19z"/>
<path opacity="0.2" fill="#032B2A" d="M186.236,263.538c0,0-0.815-0.422-0.619-1.075c0,0,0.239-2.881,2.327-2.272
	c2.394,0.783,4.002,3.348,4.002,3.348s-1.608,2.563-4.002,3.347c-2.088,0.608-2.327-2.272-2.327-2.272
	C185.42,263.959,186.236,263.538,186.236,263.538z"/>
<path fill="#E4B81D" d="M193.814,260.225c0,0,3.498-2.195,4.567-5.461c0.831-2.85-3.102-3.176-3.102-3.176
	c-0.89-0.268-1.466,0.845-1.466,0.845V260.225L193.814,260.225"/>
<path fill="#CFA71A" d="M193.814,260.225c0,0-3.499-2.195-4.567-5.461c-0.83-2.85,3.102-3.176,3.102-3.176
	c0.891-0.268,1.466,0.845,1.466,0.845V260.225L193.814,260.225"/>
<path fill="#B3362D" d="M190.571,254.072c0-0.556,0.451-1.007,1.008-1.007l0,0c0.558,0,1.008,0.451,1.008,1.007l0,0
	c0,0.557-0.45,1.009-1.008,1.009l0,0C191.022,255.081,190.571,254.629,190.571,254.072L190.571,254.072z"/>
<path fill="#B3362D" d="M195.198,254.072c0-0.556,0.45-1.007,1.008-1.007l0,0c0.557,0,1.008,0.451,1.008,1.007l0,0
	c0,0.557-0.451,1.009-1.008,1.009l0,0C195.649,255.081,195.198,254.629,195.198,254.072L195.198,254.072z"/>
<path fill="#E4B81D" d="M195.682,260.934c0,0,1.609-2.563,4.002-3.347c2.088-0.608,2.328,2.272,2.328,2.272
	c0.194,0.652-0.621,1.074-0.621,1.074H195.682L195.682,260.934"/>
<path fill="#CFA71A" d="M195.682,260.934c0,0,1.609,2.563,4.002,3.347c2.088,0.609,2.328-2.272,2.328-2.272
	c0.194-0.652-0.621-1.074-0.621-1.074H195.682L195.682,260.934"/>
<path fill="#E4B81D" d="M191.946,260.934c0,0-1.608-2.563-4.002-3.347c-2.088-0.608-2.327,2.272-2.327,2.272
	c-0.196,0.652,0.619,1.074,0.619,1.074H191.946L191.946,260.934"/>
<path fill="#CFA71A" d="M191.946,260.934c0,0-1.608,2.563-4.002,3.347c-2.088,0.609-2.327-2.272-2.327-2.272
	c-0.196-0.652,0.619-1.074,0.619-1.074H191.946L191.946,260.934"/>
<path opacity="0.2" fill="#032B2A" d="M165.665,275.203c0,0.479,0.389,0.868,0.868,0.868h33.297c0.48,0,0.868-0.389,0.868-0.868
	v-3.105c0-0.479-0.388-0.868-0.868-0.868h-33.297c-0.479,0-0.868,0.39-0.868,0.868V275.203z"/>
<path fill="#C7B4A1" d="M165.665,273.468c0,0.479,0.389,0.868,0.868,0.868h33.297c0.48,0,0.868-0.39,0.868-0.868v-3.106
	c0-0.479-0.388-0.867-0.868-0.867h-33.297c-0.479,0-0.868,0.389-0.868,0.867V273.468z"/>
<path opacity="0.2" fill="#032B2A" d="M168.416,257.368c-0.83-2.85,3.102-3.177,3.102-3.177c0.891-0.267,1.466,0.847,1.466,0.847
	s0.575-1.113,1.466-0.847c0,0,3.932,0.327,3.102,3.177c-1.069,3.265-4.567,5.46-4.567,5.46S169.485,260.633,168.416,257.368z"/>
<path opacity="0.2" fill="#032B2A" d="M178.854,260.19c2.088-0.608,2.327,2.272,2.327,2.272c0.195,0.653-0.62,1.075-0.62,1.075
	s0.815,0.421,0.62,1.074c0,0-0.239,2.881-2.327,2.272c-2.394-0.783-4.002-3.347-4.002-3.347S176.46,260.974,178.854,260.19z"/>
<path opacity="0.2" fill="#032B2A" d="M165.406,263.538c0,0-0.815-0.422-0.62-1.075c0,0,0.24-2.881,2.328-2.272
	c2.393,0.783,4.002,3.348,4.002,3.348s-1.609,2.563-4.002,3.347c-2.088,0.608-2.328-2.272-2.328-2.272
	C164.59,263.959,165.406,263.538,165.406,263.538z"/>
<path fill="#E4B81D" d="M172.984,260.225c0,0,3.498-2.195,4.567-5.461c0.83-2.85-3.102-3.176-3.102-3.176
	c-0.891-0.268-1.466,0.845-1.466,0.845V260.225L172.984,260.225"/>
<path fill="#CFA71A" d="M172.984,260.225c0,0-3.499-2.195-4.567-5.461c-0.83-2.85,3.102-3.176,3.102-3.176
	c0.891-0.268,1.466,0.845,1.466,0.845V260.225L172.984,260.225"/>
<path fill="#B3362D" d="M169.74,254.072c0-0.556,0.451-1.007,1.008-1.007l0,0c0.557,0,1.008,0.451,1.008,1.007l0,0
	c0,0.557-0.451,1.009-1.008,1.009l0,0C170.192,255.081,169.74,254.629,169.74,254.072L169.74,254.072z"/>
<path fill="#B3362D" d="M174.367,254.072c0-0.556,0.451-1.007,1.008-1.007l0,0c0.558,0,1.008,0.451,1.008,1.007l0,0
	c0,0.557-0.45,1.009-1.008,1.009l0,0C174.819,255.081,174.367,254.629,174.367,254.072L174.367,254.072z"/>
<path fill="#E4B81D" d="M174.852,260.934c0,0,1.608-2.563,4.002-3.347c2.088-0.608,2.327,2.272,2.327,2.272
	c0.195,0.652-0.62,1.074-0.62,1.074H174.852L174.852,260.934"/>
<path fill="#CFA71A" d="M174.852,260.934c0,0,1.608,2.563,4.002,3.347c2.088,0.609,2.327-2.272,2.327-2.272
	c0.195-0.652-0.62-1.074-0.62-1.074H174.852L174.852,260.934"/>
<path fill="#E4B81D" d="M171.115,260.934c0,0-1.609-2.563-4.002-3.347c-2.088-0.608-2.328,2.272-2.328,2.272
	c-0.195,0.652,0.62,1.074,0.62,1.074H171.115L171.115,260.934"/>
<path fill="#CFA71A" d="M171.115,260.934c0,0-1.609,2.563-4.002,3.347c-2.088,0.609-2.328-2.272-2.328-2.272
	c-0.195-0.652,0.62-1.074,0.62-1.074H171.115L171.115,260.934"/>
<path opacity="0.2" fill="#032B2A" d="M189.246,287.169c-0.83-2.85,3.102-3.176,3.102-3.176c0.891-0.268,1.466,0.846,1.466,0.846
	s0.576-1.113,1.466-0.846c0,0,3.933,0.326,3.102,3.176c-1.069,3.266-4.567,5.461-4.567,5.461S190.315,290.435,189.246,287.169z"/>
<path opacity="0.2" fill="#032B2A" d="M199.684,289.992c2.088-0.609,2.328,2.272,2.328,2.272c0.194,0.652-0.621,1.074-0.621,1.074
	s0.815,0.422,0.621,1.074c0,0-0.24,2.881-2.328,2.272c-2.393-0.783-4.002-3.347-4.002-3.347S197.291,290.775,199.684,289.992z"/>
<path opacity="0.2" fill="#032B2A" d="M186.236,293.339c0,0-0.815-0.422-0.619-1.074c0,0,0.239-2.882,2.327-2.272
	c2.394,0.783,4.002,3.347,4.002,3.347s-1.608,2.563-4.002,3.347c-2.088,0.608-2.327-2.272-2.327-2.272
	C185.42,293.761,186.236,293.339,186.236,293.339z"/>
<path fill="#E4B81D" d="M193.814,290.025c0,0,3.498-2.195,4.567-5.46c0.831-2.851-3.102-3.177-3.102-3.177
	c-0.89-0.267-1.466,0.846-1.466,0.846V290.025L193.814,290.025"/>
<path fill="#CFA71A" d="M193.814,290.025c0,0-3.499-2.195-4.567-5.46c-0.83-2.851,3.102-3.177,3.102-3.177
	c0.891-0.267,1.466,0.846,1.466,0.846V290.025L193.814,290.025"/>
<path fill="#B3362D" d="M190.571,283.873c0-0.556,0.451-1.007,1.008-1.007l0,0c0.558,0,1.008,0.451,1.008,1.007l0,0
	c0,0.558-0.45,1.009-1.008,1.009l0,0C191.022,284.882,190.571,284.431,190.571,283.873L190.571,283.873z"/>
<path fill="#B3362D" d="M195.198,283.873c0-0.556,0.45-1.007,1.008-1.007l0,0c0.557,0,1.008,0.451,1.008,1.007l0,0
	c0,0.558-0.451,1.009-1.008,1.009l0,0C195.649,284.882,195.198,284.431,195.198,283.873L195.198,283.873z"/>
<path fill="#E4B81D" d="M195.682,290.735c0,0,1.609-2.564,4.002-3.348c2.088-0.608,2.328,2.272,2.328,2.272
	c0.194,0.653-0.621,1.075-0.621,1.075H195.682L195.682,290.735"/>
<path fill="#CFA71A" d="M195.682,290.735c0,0,1.609,2.563,4.002,3.347c2.088,0.608,2.328-2.272,2.328-2.272
	c0.194-0.653-0.621-1.074-0.621-1.074H195.682L195.682,290.735"/>
<path fill="#E4B81D" d="M191.946,290.735c0,0-1.608-2.564-4.002-3.348c-2.088-0.608-2.327,2.272-2.327,2.272
	c-0.196,0.653,0.619,1.075,0.619,1.075H191.946L191.946,290.735"/>
<path fill="#CFA71A" d="M191.946,290.735c0,0-1.608,2.563-4.002,3.347c-2.088,0.608-2.327-2.272-2.327-2.272
	c-0.196-0.653,0.619-1.074,0.619-1.074H191.946L191.946,290.735"/>
<path opacity="0.2" fill="#032B2A" d="M144.835,305.005c0,0.479,0.389,0.868,0.868,0.868h54.127c0.48,0,0.868-0.39,0.868-0.868
	v-3.106c0-0.479-0.388-0.867-0.868-0.867h-54.127c-0.479,0-0.868,0.389-0.868,0.867V305.005z"/>
<path fill="#C7B4A1" d="M144.835,303.269c0,0.479,0.389,0.868,0.868,0.868h54.127c0.48,0,0.868-0.389,0.868-0.868v-3.105
	c0-0.479-0.388-0.868-0.868-0.868h-54.127c-0.479,0-0.868,0.389-0.868,0.868V303.269z"/>
<path opacity="0.2" fill="#032B2A" d="M168.417,287.169c-0.831-2.85,3.102-3.176,3.102-3.176c0.89-0.268,1.466,0.846,1.466,0.846
	s0.575-1.113,1.466-0.846c0,0,3.932,0.326,3.102,3.176c-1.069,3.266-4.567,5.461-4.567,5.461S169.486,290.435,168.417,287.169z"/>
<path opacity="0.2" fill="#032B2A" d="M178.855,289.992c2.088-0.609,2.327,2.272,2.327,2.272c0.195,0.652-0.62,1.074-0.62,1.074
	s0.815,0.422,0.62,1.074c0,0-0.239,2.881-2.327,2.272c-2.394-0.783-4.002-3.347-4.002-3.347S176.461,290.775,178.855,289.992z"/>
<path opacity="0.2" fill="#032B2A" d="M165.406,293.339c0,0-0.815-0.422-0.62-1.074c0,0,0.24-2.882,2.328-2.272
	c2.393,0.783,4.002,3.347,4.002,3.347s-1.609,2.563-4.002,3.347c-2.088,0.608-2.328-2.272-2.328-2.272
	C164.591,293.761,165.406,293.339,165.406,293.339z"/>
<path fill="#E4B81D" d="M172.985,290.025c0,0,3.498-2.195,4.567-5.46c0.83-2.851-3.102-3.177-3.102-3.177
	c-0.891-0.267-1.466,0.846-1.466,0.846V290.025L172.985,290.025"/>
<path fill="#CFA71A" d="M172.985,290.025c0,0-3.499-2.195-4.567-5.46c-0.831-2.851,3.102-3.177,3.102-3.177
	c0.89-0.267,1.466,0.846,1.466,0.846V290.025L172.985,290.025"/>
<path fill="#B3362D" d="M169.741,283.873c0-0.556,0.451-1.007,1.008-1.007l0,0c0.557,0,1.008,0.451,1.008,1.007l0,0
	c0,0.558-0.451,1.009-1.008,1.009l0,0C170.193,284.882,169.741,284.431,169.741,283.873L169.741,283.873z"/>
<path fill="#B3362D" d="M174.368,283.873c0-0.556,0.451-1.007,1.008-1.007l0,0c0.558,0,1.008,0.451,1.008,1.007l0,0
	c0,0.558-0.45,1.009-1.008,1.009l0,0C174.82,284.882,174.368,284.431,174.368,283.873L174.368,283.873z"/>
<path fill="#E4B81D" d="M174.853,290.735c0,0,1.608-2.564,4.002-3.348c2.088-0.608,2.327,2.272,2.327,2.272
	c0.195,0.653-0.62,1.075-0.62,1.075H174.853L174.853,290.735"/>
<path fill="#CFA71A" d="M174.853,290.735c0,0,1.608,2.563,4.002,3.347c2.088,0.608,2.327-2.272,2.327-2.272
	c0.195-0.653-0.62-1.074-0.62-1.074H174.853L174.853,290.735"/>
<path fill="#E4B81D" d="M171.116,290.735c0,0-1.609-2.564-4.002-3.348c-2.088-0.608-2.328,2.272-2.328,2.272
	c-0.195,0.653,0.62,1.075,0.62,1.075H171.116L171.116,290.735"/>
<path fill="#CFA71A" d="M171.116,290.735c0,0-1.609,2.563-4.002,3.347c-2.088,0.608-2.328-2.272-2.328-2.272
	c-0.195-0.653,0.62-1.074,0.62-1.074H171.116L171.116,290.735"/>
<path opacity="0.2" fill="#032B2A" d="M147.588,287.169c-0.831-2.85,3.102-3.176,3.102-3.176c0.89-0.268,1.465,0.846,1.465,0.846
	s0.576-1.113,1.466-0.846c0,0,3.933,0.326,3.102,3.176c-1.068,3.266-4.567,5.461-4.567,5.461S148.656,290.435,147.588,287.169z"/>
<path opacity="0.2" fill="#032B2A" d="M158.025,289.992c2.088-0.609,2.328,2.272,2.328,2.272c0.194,0.652-0.621,1.074-0.621,1.074
	s0.815,0.422,0.621,1.074c0,0-0.24,2.881-2.328,2.272c-2.393-0.783-4.002-3.347-4.002-3.347S155.632,290.775,158.025,289.992z"/>
<path opacity="0.2" fill="#032B2A" d="M144.576,293.339c0,0-0.815-0.422-0.619-1.074c0,0,0.24-2.882,2.327-2.272
	c2.394,0.783,4.002,3.347,4.002,3.347s-1.608,2.563-4.002,3.347c-2.087,0.608-2.327-2.272-2.327-2.272
	C143.761,293.761,144.576,293.339,144.576,293.339z"/>
<path fill="#E4B81D" d="M152.155,290.025c0,0,3.499-2.195,4.567-5.46c0.831-2.851-3.102-3.177-3.102-3.177
	c-0.89-0.267-1.466,0.846-1.466,0.846V290.025L152.155,290.025"/>
<path fill="#CFA71A" d="M152.155,290.025c0,0-3.499-2.195-4.566-5.46c-0.831-2.851,3.102-3.177,3.102-3.177
	c0.89-0.267,1.465,0.846,1.465,0.846V290.025L152.155,290.025"/>
<path fill="#B3362D" d="M148.911,283.873c0-0.556,0.451-1.007,1.008-1.007l0,0c0.558,0,1.009,0.451,1.009,1.007l0,0
	c0,0.558-0.451,1.009-1.009,1.009l0,0C149.363,284.882,148.911,284.431,148.911,283.873L148.911,283.873z"/>
<path fill="#B3362D" d="M153.539,283.873c0-0.556,0.451-1.007,1.008-1.007l0,0c0.557,0,1.008,0.451,1.008,1.007l0,0
	c0,0.558-0.451,1.009-1.008,1.009l0,0C153.99,284.882,153.539,284.431,153.539,283.873L153.539,283.873z"/>
<path fill="#E4B81D" d="M154.023,290.735c0,0,1.609-2.564,4.002-3.348c2.088-0.608,2.328,2.272,2.328,2.272
	c0.194,0.653-0.621,1.075-0.621,1.075H154.023L154.023,290.735"/>
<path fill="#CFA71A" d="M154.023,290.735c0,0,1.609,2.563,4.002,3.347c2.088,0.608,2.328-2.272,2.328-2.272
	c0.194-0.653-0.621-1.074-0.621-1.074H154.023L154.023,290.735"/>
<path fill="#E4B81D" d="M150.286,290.735c0,0-1.608-2.564-4.002-3.348c-2.087-0.608-2.327,2.272-2.327,2.272
	c-0.196,0.653,0.619,1.075,0.619,1.075H150.286L150.286,290.735"/>
<path fill="#CFA71A" d="M150.286,290.735c0,0-1.608,2.563-4.002,3.347c-2.087,0.608-2.327-2.272-2.327-2.272
	c-0.196-0.653,0.619-1.074,0.619-1.074H150.286L150.286,290.735"/>
<path fill="#B3362D" d="M159.039,292.451c0-0.458-0.371-0.829-0.829-0.829l0,0c-0.457,0-0.829,0.371-0.829,0.829l0,0
	c0,0.457,0.372,0.829,0.829,0.829l0,0C158.668,293.28,159.039,292.908,159.039,292.451L159.039,292.451z"/>
<path fill="#B3362D" d="M159.039,289.02c0,0.458-0.371,0.829-0.829,0.829l0,0c-0.457,0-0.829-0.371-0.829-0.829l0,0
	c0-0.458,0.372-0.829,0.829-0.829l0,0C158.668,288.19,159.039,288.562,159.039,289.02L159.039,289.02z"/>
<circle fill="#CFA71A" cx="213.965" cy="189.618" r="4.362"/>
<circle fill="#CFA71A" cx="198.327" cy="330.632" r="2.494"/>
<circle fill="#CFA71A" cx="198.327" cy="317.894" r="2.494"/>
<path fill="#E4B81D" d="M228.311,289.652c-1.649,0-3.204-0.613-4.496-1.797c-1.985-1.818-2.995-4.735-2.573-7.431
	c0.332-2.119,1.872-4.859,4.074-5.766c0.977-0.402,2.492-0.62,4.174,0.617c1.241,0.914,2.046,3.379,1.656,5.072
	c-0.258,1.118-1.008,1.871-2.059,2.063c-0.543,0.108-1.064-0.26-1.164-0.803c-0.1-0.543,0.26-1.064,0.803-1.164
	c0.135-0.025,0.361-0.066,0.472-0.546c0.239-1.038-0.382-2.637-0.893-3.012c-0.759-0.559-1.488-0.683-2.227-0.38
	c-1.451,0.598-2.614,2.659-2.859,4.226c-0.321,2.053,0.444,4.269,1.948,5.647c1.218,1.117,2.767,1.513,4.362,1.118
	c2.822-0.698,4.006-4.333,5.152-7.847c0.705-2.163,1.376-4.221,2.43-5.762c-1.054-1.541-1.725-3.599-2.43-5.762
	c-1.146-3.514-2.33-7.148-5.152-7.847c-1.595-0.395-3.144,0.001-4.362,1.118c-1.504,1.379-2.269,3.595-1.948,5.647
	c0.246,1.566,1.409,3.628,2.859,4.226c0.736,0.302,1.467,0.179,2.227-0.38c0.51-0.375,1.132-1.974,0.893-3.012
	c-0.111-0.479-0.336-0.521-0.472-0.546c-0.543-0.1-0.903-0.621-0.803-1.164c0.1-0.543,0.621-0.907,1.164-0.803
	c1.051,0.192,1.801,0.945,2.059,2.063c0.39,1.693-0.415,4.158-1.656,5.072c-1.682,1.238-3.197,1.021-4.174,0.617
	c-2.202-0.906-3.742-3.646-4.074-5.766c-0.422-2.695,0.588-5.612,2.573-7.431c1.728-1.583,3.929-2.145,6.193-1.585
	c3.899,0.966,5.319,5.323,6.573,9.169c0.747,2.288,1.451,4.45,2.545,5.731c0.32,0.374,0.32,0.925,0,1.299
	c-1.094,1.281-1.798,3.443-2.545,5.731c-1.253,3.846-2.674,8.203-6.573,9.169C229.437,289.582,228.869,289.652,228.311,289.652z"/>
<circle fill="#E4B81D" cx="161.1" cy="221.745" r="2.99"/>
<path fill="#E4B81D" d="M165.999,232.38h-1c0-6.629-2.256-8.561-2.279-8.579l0.623-0.783
	C163.451,223.104,165.999,225.192,165.999,232.38z"/>
<path fill="#E4B81D" d="M163.709,232.38h-1c0-6.86-1.227-8.653-1.239-8.67l0.797-0.604
	C162.414,223.296,163.709,225.178,163.709,232.38z"/>
<path fill="#E4B81D" d="M156.909,232.38h-1c0-7.188,2.548-9.276,2.657-9.362l0.623,0.783
	C159.166,223.82,156.909,225.751,156.909,232.38z"/>
<path fill="#E4B81D" d="M159.199,232.38h-1c0-7.202,1.295-9.084,1.442-9.275l0.797,0.604
	C160.426,223.728,159.199,225.521,159.199,232.38z"/>
<rect x="160.454" y="223.412" fill="#E4B81D" width="1" height="8.969"/>
<rect x="245.872" y="301.533" fill="#A3322A" width="8.309" height="178.547"/>
</svg>
