<?xml version="1.0" encoding="utf-8"?>
<!-- Generator: Adobe Illustrator 16.0.0, SVG Export Plug-In . SVG Version: 6.00 Build 0)  -->
<!DOCTYPE svg PUBLIC "-//W3C//DTD SVG 1.1//EN" "http://www.w3.org/Graphics/SVG/1.1/DTD/svg11.dtd">
<svg version="1.1" id="content" xmlns="http://www.w3.org/2000/svg" xmlns:xlink="http://www.w3.org/1999/xlink" x="0px" y="0px"
	 width="500px" height="500px" viewBox="0 0 500 500" enable-background="new 0 0 500 500" xml:space="preserve">
<rect id="position" x="0.5" y="0.5" display="none" fill="none" stroke="#000000" width="499" height="499"/>
<rect x="76.553" y="173.668" fill="#B3362D" width="51.994" height="124.182"/>
<rect x="112.322" y="194.646" opacity="0.4" fill="#CFA71A" width="13.672" height="100.693"/>
<polygon fill="#CFA71A" points="128.547,298.85 106.744,298.85 106.744,214.02 108.744,214.02 108.744,296.85 128.547,296.85 "/>
<polygon fill="#CFA71A" points="98.356,298.85 76.553,298.85 76.553,296.85 96.356,296.85 96.356,214.02 98.356,214.02 "/>
<path fill="#A13029" d="M73.536,195.656v-22.714h28.961h28.961v22.714c0,0,1.284,22.568-28.961,22.568
	S73.536,195.656,73.536,195.656z"/>
<path opacity="0.2" fill="#032B2A" d="M76.553,178.325h25.944h26.05v33.601c-3.361,5.771-10.572,11.681-26.05,11.681
	c-15.313,0-22.537-5.785-25.944-11.497V178.325z"/>
<path fill="#A13029" d="M73.536,195.656v-22.714h28.961h28.961v22.714c0,0,1.284,22.568-28.961,22.568
	S73.536,195.656,73.536,195.656z"/>
<path fill="#E4B81D" d="M102.497,215.52c-9.404,0-16.496-2.46-21.08-7.313c-5.646-5.977-5.296-13.335-5.279-13.646l-0.002-21.618h3
	v21.704c-0.005,0.145-0.272,6.52,4.495,11.535c3.997,4.206,10.345,6.338,18.867,6.338s14.87-2.133,18.867-6.338
	c4.767-5.016,4.5-11.391,4.497-11.454l-0.002-21.785h3v21.704c0.015,0.225,0.365,7.584-5.281,13.561
	C118.993,213.059,111.901,215.52,102.497,215.52z"/>
<circle fill="#032B2A" cx="102.55" cy="204.555" r="0.749"/>
<circle fill="#032B2A" cx="89.047" cy="183.838" r="0.749"/>
<circle fill="#032B2A" cx="116.133" cy="183.838" r="0.749"/>
<path fill="#E4B81D" d="M106.091,200.562c-0.868,0-1.777,0.525-2.458,1.037c-0.04-0.045-0.083-0.088-0.128-0.128
	c0.512-0.681,1.037-1.59,1.037-2.458c0-1.69-1.868-2.246-1.992-2.122c-0.125-0.124-1.992,0.432-1.992,2.122
	c0,0.868,0.525,1.777,1.037,2.458c-0.046,0.04-0.088,0.083-0.128,0.128c-0.681-0.512-1.59-1.037-2.458-1.037
	c-1.69,0-2.246,1.868-2.121,1.992c-0.125,0.125,0.431,1.992,2.121,1.992c0.868,0,1.777-0.525,2.458-1.037
	c0.04,0.045,0.082,0.088,0.128,0.128c-0.512,0.68-1.037,1.59-1.037,2.458c0,1.689,1.867,2.246,1.992,2.121
	c0.124,0.125,1.992-0.432,1.992-2.121c0-0.869-0.525-1.778-1.037-2.458c0.045-0.04,0.088-0.083,0.128-0.128
	c0.681,0.512,1.59,1.037,2.458,1.037c1.69,0,2.246-1.868,2.121-1.992C108.337,202.43,107.781,200.562,106.091,200.562z"/>
<circle fill="#A13029" cx="102.55" cy="202.555" r="0.749"/>
<path fill="#E4B81D" d="M92.588,179.846c-0.868,0-1.777,0.525-2.458,1.037c-0.04-0.045-0.083-0.088-0.128-0.128
	c0.512-0.681,1.037-1.59,1.037-2.458c0-1.69-1.868-2.246-1.992-2.122c-0.125-0.124-1.992,0.432-1.992,2.122
	c0,0.868,0.525,1.777,1.037,2.458c-0.046,0.04-0.088,0.083-0.128,0.128c-0.681-0.512-1.59-1.037-2.458-1.037
	c-1.69,0-2.246,1.868-2.121,1.992c-0.125,0.125,0.431,1.992,2.121,1.992c0.868,0,1.777-0.525,2.458-1.037
	c0.04,0.045,0.082,0.088,0.128,0.128c-0.512,0.68-1.037,1.59-1.037,2.458c0,1.689,1.867,2.246,1.992,2.121
	c0.124,0.125,1.992-0.432,1.992-2.121c0-0.869-0.525-1.778-1.037-2.458c0.045-0.04,0.088-0.083,0.128-0.128
	c0.681,0.512,1.59,1.037,2.458,1.037c1.69,0,2.246-1.868,2.121-1.992C94.834,181.713,94.279,179.846,92.588,179.846z"/>
<circle fill="#A13029" cx="89.047" cy="181.838" r="0.749"/>
<path fill="#E4B81D" d="M119.674,179.846c-0.868,0-1.777,0.525-2.458,1.037c-0.04-0.045-0.083-0.088-0.128-0.128
	c0.512-0.681,1.037-1.59,1.037-2.458c0-1.69-1.868-2.246-1.992-2.122c-0.125-0.124-1.992,0.432-1.992,2.122
	c0,0.868,0.525,1.777,1.037,2.458c-0.046,0.04-0.088,0.083-0.128,0.128c-0.681-0.512-1.59-1.037-2.458-1.037
	c-1.69,0-2.246,1.868-2.121,1.992c-0.125,0.125,0.431,1.992,2.121,1.992c0.868,0,1.777-0.525,2.458-1.037
	c0.04,0.045,0.082,0.088,0.128,0.128c-0.512,0.68-1.037,1.59-1.037,2.458c0,1.689,1.867,2.246,1.992,2.121
	c0.124,0.125,1.992-0.432,1.992-2.121c0-0.869-0.525-1.778-1.037-2.458c0.045-0.04,0.088-0.083,0.128-0.128
	c0.681,0.512,1.59,1.037,2.458,1.037c1.69,0,2.246-1.868,2.121-1.992C121.92,181.713,121.365,179.846,119.674,179.846z"/>
<circle fill="#A13029" cx="116.133" cy="181.838" r="0.749"/>
<circle fill="#E4B81D" cx="118.053" cy="199.545" r="1.92"/>
<circle fill="#E4B81D" cx="112.899" cy="195.427" r="1.92"/>
<circle fill="#E4B81D" cx="107.744" cy="191.309" r="1.92"/>
<circle fill="#E4B81D" cx="102.59" cy="187.19" r="1.92"/>
<circle fill="#E4B81D" cx="87.127" cy="199.545" r="1.92"/>
<circle fill="#E4B81D" cx="92.281" cy="195.427" r="1.92"/>
<circle fill="#E4B81D" cx="97.436" cy="191.309" r="1.92"/>
<circle fill="#E4B81D" cx="102.59" cy="187.19" r="1.92"/>
<circle fill="#E4B81D" cx="102.55" cy="172.942" r="1.92"/>
<circle fill="#E4B81D" cx="102.55" cy="179.917" r="1.92"/>
<polygon fill="#CFA71A" points="91.362,262.892 76.553,262.892 76.553,260.892 89.362,260.892 89.362,256.081 76.553,256.081 
	76.553,254.081 91.362,254.081 "/>
<polygon fill="#CFA71A" points="91.362,277.071 76.553,277.071 76.553,275.071 89.362,275.071 89.362,270.261 76.553,270.261 
	76.553,268.261 91.362,268.261 "/>
<polygon fill="#CFA71A" points="91.362,291.251 76.553,291.251 76.553,289.251 89.362,289.251 89.362,284.44 76.553,284.44 
	76.553,282.44 91.362,282.44 "/>
</svg>
