<?xml version="1.0" encoding="utf-8"?>
<!-- Generator: Adobe Illustrator 16.0.0, SVG Export Plug-In . SVG Version: 6.00 Build 0)  -->
<!DOCTYPE svg PUBLIC "-//W3C//DTD SVG 1.1//EN" "http://www.w3.org/Graphics/SVG/1.1/DTD/svg11.dtd">
<svg version="1.1" id="content" xmlns="http://www.w3.org/2000/svg" xmlns:xlink="http://www.w3.org/1999/xlink" x="0px" y="0px"
	 width="500px" height="500px" viewBox="0 0 500 500" enable-background="new 0 0 500 500" xml:space="preserve">
<g id="bounds">
	<rect x="0.266" y="0.25" fill="none" stroke="#EAEAEA" stroke-miterlimit="10" width="499.501" height="499.5"/>
</g>
<rect id="position" x="0.5" y="0.5" display="none" fill="none" stroke="#000000" width="499" height="499"/>
<g>
	<g>
		<g>
			<path fill="none" d="M301.964,147.031c-5.657,5.925-8.923,10.113-12.249,15.446l-2.38,3.811l-0.105,1.154
				c5.168-1.285,28.921-6.725,31.706-7.358l-10.617-8.62C306.834,150.251,304.156,148.443,301.964,147.031z"/>
		</g>
		<g>
			<g>
				<path fill="none" d="M301.964,147.031c-5.657,5.925-8.923,10.113-12.249,15.446l-2.38,3.811l-0.105,1.154
					c5.168-1.285,28.921-6.725,31.706-7.358l-10.617-8.62C306.834,150.251,304.156,148.443,301.964,147.031z"/>
				<path fill="#FFFFFF" d="M77.019,368.412c-0.675-0.492-6.371-5.264,1.202-21.793c5.958-13.018,14.729-27.106,25.352-40.75
					c4.558-5.854,9.161-11.299,13.679-16.184l0.704-0.686c0,0-0.595-1.457-0.815-2h-0.066l-0.515-1.416
					c-4.376-11.988-6.542-24.406-6.439-36.902c0.123-14.122,2.962-25.787,3.084-26.273c3.973-17.076,11.904-33.664,22.922-47.947
					c2.03-2.543,8.756-10.799,14.989-16.23l9.83-8.255c4.145-3.135,8.404-5.98,12.742-8.531c8.427-4.966,14.239-6.8,18.481-8.138
					c0.648-0.204,1.255-0.395,1.828-0.585c2.472-0.816,8.802-2.289,16.109-3.074l-6.212-3.423c-2.226-1.221-3.273-3.858-2.485-6.272
					c0.711-2.167,2.726-3.623,5.011-3.623c0.239,0,0.479,0.016,0.715,0.048l10.984,1.519l-2.316-9.793
					c-0.595-2.44,0.648-4.975,2.955-6.021c0.693-0.309,1.422-0.468,2.172-0.468c1.708,0,3.314,0.834,4.305,2.229l2.536,3.609
					l4.457-10.552c0.82-1.958,2.725-3.227,4.85-3.227c0.506,0,1.013,0.074,1.5,0.219c2.576,0.771,4.161,3.337,3.697,5.972
					l-1.609,8.98l3.46-2.715c0.93-0.722,2.083-1.12,3.254-1.12c1.25,0,2.468,0.447,3.425,1.26c1.909,1.644,2.396,4.408,1.171,6.584
					l-2.23,4.017l11.5-3.096c0.441-0.12,0.908-0.183,1.373-0.183c2.137,0,4.046,1.278,4.863,3.25c1.01,2.429,0.049,5.257-2.226,6.58
					l-21.711,12.57l4.39,11.524c0.899,2.371-0.014,5.047-2.171,6.371c-0.831,0.506-1.776,0.771-2.75,0.771
					c-1.486,0-2.912-0.625-3.91-1.723l-5.196-5.718l-5.414,10.503c-0.902,1.761-2.7,2.86-4.689,2.86c-0.453,0-0.9-0.053-1.321-0.165
					c-0.712-0.188-1.36-0.512-1.916-0.938l0.4,2.416l-1.746,0.579c-0.473,0.157-10.94,3.628-14.402,4.712l-1.141,1.332l6.746,19.042
					l-3.228,3.594c-0.409,0.443-0.849,0.976-1.319,1.591c1.31-0.577,2.285-1.003,2.285-1.003c3.724-1.567,11.059-4.513,11.059-4.513
					l0.44-0.172c6.446-2.551,13.154-5.033,20.475-7.574l8.281-11.468l4.686-6.806c1.824-2.56,3.615-4.906,5.352-7l4.79-5.458
					c2.707-2.905,5.526-5.655,8.429-8.211l4.582-3.849c11.721-9.343,21.398-13.478,24.081-14.523l6.334-2.338l3.496,5.614
					c4.505,7.242,8.282,15.642,9.333,18.047l5.619,13.025c22.363-4.939,47.166-8.806,52.17-9.567
					c1.414-1.903,3.066-3.597,4.933-5.045l3.118-2.338c-4.055-4.263-6.468-10.031-6.468-16.164
					c0-12.915,10.507-23.419,23.419-23.419c12.907,0,23.41,10.504,23.41,23.419c0,8.609-4.689,16.484-12.25,20.576
					c-0.326,0.212-0.795,0.462-1.201,0.67c-0.661,2.097-2.347,7.295-3.737,10.157c-1.897,3.894-4.366,7.205-7.337,9.845
					c-6.082,5.365-14.389,9.172-30.661,14.052l-5.831,1.729L258.05,319.312c14.12-0.46,31.468-4.601,39.265-7.452
					c3.867-1.408,10.51-4.173,10.572-4.201l1.523-0.633l1.008,1.303c0.102,0.129,0.25,0.352,0.383,0.666
					c1.438,4.27,0.387,13.267-22.14,27.312c-20.425,12.731-41.113,18.918-65.102,19.466c-0.704,0.018-1.405,0.025-2.109,0.025
					c-17.09,0-32.866-4.658-33.021-4.705c-8.224-2.294-18.304-6.674-26.913-11.703c-6.465-3.78-15.79-10.15-24.035-19.266
					c-1.615,1.221-10.653,8.287-13.382,10.734L78.39,369.402L77.019,368.412z M182.441,294.497c3.75,3.246,7.971,6.344,11.938,8.743
					c0.086,0.049,7.761,4.538,14.163,7.08c12.329,4.896,25.717,7.911,38.865,8.77l0.087-10.049
					c0.139-10.248,2.182-22.522,6.081-36.521c-5.691,1.333-17.79,4.303-31.753,8.527
					C207.201,285.469,190.211,291.49,182.441,294.497z M302.295,149.816c-4.672,4.99-7.672,8.855-10.754,13.799l-0.426,0.684
					c6.426-1.515,17.015-3.954,23.031-5.328l-7.189-5.836C306,152.348,304.315,151.152,302.295,149.816z"/>
			</g>
			<path fill="#0F233F" d="M154.583,253.555c-0.026-0.113-0.035-0.197-0.057-0.299c-2.488-12.4-2.643-25.157-0.673-37.633
				c0.019-0.157,0.06-0.316,0.092-0.478c-5.745,5.975-11.896,10.343-17.957,12.586c-1.186,11.788,0.438,22.229,1.148,27.286
				c0.679,4.828,3.295,14.111,4.09,16.879c4.891-3.697,10.156-7.406,15.609-10.947L154.583,253.555z"/>
			<path fill="#0F233F" d="M133.934,259.34c-1.878-9.027-2.822-16.935-1.824-30.075c-5.575,1.757-8.62,0.21-10.233-1.604
				c-0.146-0.162-0.257-0.343-0.398-0.524c-0.009,0.112-0.041,0.224-0.053,0.327c-2.975,15.503-2.509,31.442,1.817,46.702
				l3.231,9.841c3.442-3.09,7.365-6.361,11.636-9.7C137.696,273.041,135.286,265.812,133.934,259.34z"/>
		</g>
		<path fill="#CC0C31" d="M301.048,139.409c0,0,7.317,4.403,11.028,7.411c0,0-4.105-9.53-8.813-17.087
			c0,0-25.462,9.394-45.209,38.519l24.214-4.989C287.314,154.552,291.598,148.884,301.048,139.409 M119.578,298.867
			c-12.567,14.209-24.375,31.136-34.01,51.243c-1.333,2.669-1.956,4.157-1.956,4.157l35.202-29.588
			c2.074-1.817,9.718-8.024,10.088-8.287c20.192-15.519,45.208-28.537,82.604-40.36c7.032-2.401,13.521-4.386,19.298-6.021
			c-3.14-9.04-7.318-20.948-11.818-33.726C184.336,245.411,145.246,272.375,119.578,298.867 M280.663,223.626
			c-0.177,0.342-0.335,0.69-0.501,1.028c-13.605,29.693-24.334,62.086-24.535,84.455l72.73-94.739L280.663,223.626z
			 M311.757,167.868c-7.123,10.223-15.144,23.75-22.827,38.729l53.314-10.312l31.09-40.486
			C364.623,157.113,341.104,160.975,311.757,167.868 M159.872,245.984c0.567,2.57,1.243,1.864,1.243,1.864
			c23.936-15.024,46.132-23.249,52.944-25.594c-1.965-5.559-6.9-19.52-7.412-20.967c-6.841,2.967-13.541,5.99-19.959,9.32
			c0,0,7.687-17.352,14.461-24.884c-4.747-13.407-8.641-24.396-10.585-29.847c-6.821,7.286-39.244,44.576-31.157,87.542
			L159.872,245.984z"/>
		<path fill="#0F233F" d="M161.7,319.924c-1.332,1.192-2.042,2.74-2.152,4.682c-0.096,1.857,0.364,3.855,1.106,5.704
			c0.126,0.083,0.25,0.154,0.38,0.239c9.374,6.204,19.78,10.777,30.772,13.67c0.377,0.104,0.764,0.208,1.151,0.307
			C180.31,338.329,170.015,329.565,161.7,319.924"/>
		<path fill="#0F233F" d="M159.037,316.71c-2.309-2.886-4.428-5.794-6.408-8.749c-3.512,2.177-6.855,4.398-10.06,6.688
			c3.987,4.41,8.323,8.429,12.973,11.984c0.08,0.054,0.168,0.139,0.263,0.193c-0.108-0.873-0.155-1.762-0.108-2.625
			C155.818,321.915,156.569,319.034,159.037,316.71"/>
		<path fill="#0F233F" d="M207.585,317.168c-0.648-0.262-1.303-0.543-1.951-0.803c-16.094-3.887-33.17-2.91-40.552,1.384
			c12.254,13.949,28.855,25.853,51.051,30.104c0.549,0.015,1.113,0.015,1.654,0.024c23.003,0.542,47.03-5.714,68.81-19.456
			c5.543-3.482,10.704-7.318,15.504-11.447C273.754,329.179,237.312,328.738,207.585,317.168"/>
		<path fill="#0F233F" d="M257.727,246.083c-5.238-19.889-0.197-40.567-0.197-40.567c-9.189,11.778-19.081,43.504-19.081,43.504
			c-2.111-28.481,7.979-49.172,15.901-65.74c-13.001,4.199-27.639,9.447-42.998,15.943c8.59,24.292,18.383,52.098,24.365,69.339
			c2.644-0.76,4.989-1.402,7.19-1.979l0.094-0.394c0,0,1.884-12.19,5.8-20.76c0.38,8.927,2.5,19.168,2.5,19.168
			c2.528-0.528,5.197-1.053,8.277-1.622c4.318-13.325,9.855-27.141,15.938-40.45c9.14-19.975,19.475-38.716,28.867-52.909
			c-3.81,0.88-11.83,2.798-22.799,5.7C259.783,213.908,257.727,246.083,257.727,246.083"/>
		<path fill="#0F233F" d="M393.23,151.074l-6.109-2.682c-4.383,3.268-6.079,8.695-6.079,8.695l-2.785,0.839l-10.06,12.966
			c29.387-8.704,31.939-14.375,36.474-29.251C398.852,146.919,395.605,150.43,393.23,151.074"/>
		<path fill="#0F233F" d="M274.461,171.628l-6.301-0.251l6.787-2.346C275.613,170.098,275.103,171.301,274.461,171.628
			 M276.775,174.27l4.845-1.658l-0.659-7.066l-19.886,5.157l-0.711,3.352c-0.522-1.562-0.561-2.06-1.05-2.115
			c-1.729-0.174-1.051,1.587-1.186,1.95c-0.145,0.362,0.68,3.746,1.78,4.157l0.085,2.87l4.996-1.567l2.078-1.717l8.77-1.799
			L276.775,174.27z"/>
		<path fill="#0F233F" d="M155.496,207.381c0.041-0.208,0.087-0.391,0.12-0.596c7.013-28.882,25.431-55.282,52.399-70.637
			c-5.799,1.569-12.046,3.124-21.506,7.795c-8.451,4.175-16.194,9.203-23.197,14.868c-0.295,0.237-0.599,0.469-0.892,0.702
			c-14.964,19.385-23.066,43.125-25.882,63.515C143.016,220.155,149.586,214.673,155.496,207.381"/>
		<path fill="#0F233F" d="M124.56,224.791c2.018,1.382,4.222,1.448,8.027-0.11c2.018-16.781,7.511-35.883,17.303-53.267
			c-0.268,0.282-0.511,0.576-0.769,0.874c-12.963,14.45-21.978,31.521-26.418,49.4c-0.048,0.144-0.09,0.301-0.123,0.447
			C122.922,223.138,123.525,224.093,124.56,224.791"/>
		<path fill="#0F233F" d="M155.992,305.916c1.957,2.9,4.055,5.77,6.351,8.59c6.177-4.105,17.902-5.57,30.296-4.488
			c-0.156-0.088-0.313-0.18-0.492-0.271c-6.624-3.859-12.659-8.408-17.912-13.584C167.661,299.332,161.611,302.57,155.992,305.916"
			/>
		<path fill="#0F233F" d="M216.24,137.292c-4.652,1.656-13.388,5.694-21.655,14.593c0.663,1.866,1.955,5.504,3.704,10.435
			l1.902-2.222c0,0,8.13-2.44,11.812-3.722l-1.359-10.497l4.849-5.186L216.24,137.292z"/>
		<path fill="#0F233F" d="M279.662,385.388c-0.035,0.626-0.585,2.806-0.986,3.313c-0.393,0.523-0.883,0.781-1.477,0.781h-8.156
			c-1.115,0-2.335,0.979-3.506,2.218l1.689-7.865h11.215C279.313,383.835,279.729,384.342,279.662,385.388 M283.739,404.348
			l-3.268-8.092c1.544-0.062,2.989-0.654,3.687-1.295c1.154-1.049,2.084-3.274,2.812-6.697c0,0,1.171-6.01,1.311-6.953
			c0.264-1.852-0.263-3.074-1.111-3.688c-0.84-0.607-2.41-0.92-4.705-0.92h-24.598c0,0,2.129,1.457,1.769,3.504l-5.638,26.057h5.955
			c1.176,0,2.065-0.089,2.637-0.92l1.896-8.827h7.391l3.307,9.743h10.654C285.842,406.252,284.303,405.488,283.739,404.348"/>
		<path fill="#0F233F" d="M234.429,394.023l4.52-9.418l1.954,9.418H234.429z M245.872,376.698h-9.23
			c-1.207,0.009-2.005,0.309-2.707,1.207l-13.16,25.507c-0.803,1.608-2.698,2.84-2.698,2.84h8.967c0.957,0,1.775-0.658,2.237-1.504
			l1.82-3.646h11.271l0.581,2.793c0.108,1.859-1.653,2.379-1.653,2.379h11.613L245.872,376.698z"/>
		<path fill="#0F233F" d="M314.082,385.38c-0.037,0.634-2.435,12.619-2.834,13.126c-0.394,0.525-0.887,0.789-1.478,0.789h-11.481
			l2.365-11.136c0.151-0.701,0.514-2.427,0.908-4.339h11.295C313.734,383.82,314.146,384.342,314.082,385.38 M322.731,381.311
			c0.26-1.854-0.265-3.074-1.117-3.689c-0.841-0.605-2.409-0.923-4.704-0.923h-24.779c0,0,2.003,1.538,1.773,3.522l-4.906,23.05
			c-0.547,1.534-1.965,2.796-2.371,2.981l24.146,0.074c2.853,0,4.852-0.527,5.973-1.545c1.162-1.047,2.088-3.287,2.822-6.711
			l2.635-13.764C322.526,382.823,322.594,382.246,322.731,381.311"/>
		<path fill="#0F233F" d="M355.529,376.674H336.41c-3.934,0-6.651,0.524-8.155,1.601c-1.497,1.062-2.622,3.341-3.359,6.785
			l-0.604,2.937c-0.088,0.45-0.141,0.888-0.141,1.295c0,1.593,0.577,2.914,1.707,3.958c1.371,1.233,3.447,1.831,6.236,1.831h12.463
			c1.645,0,2.461,0.578,2.461,1.725c0,0.3-0.08,0.604-0.256,0.885c0,0-0.428,1.439-3.811,1.439h-17.882
			c-1.849-0.102-2.673-2.932-2.673-2.932l-1.524,7.757c-0.243,1.784,0.979,2.298,2.565,2.298h19.754c3.93,0,6.637-0.538,8.145-1.605
			c1.516-1.083,2.492-3.176,3.214-6.605c0,0,0.515-2.563,0.603-3.292c0.523-4.104-2.088-6.795-6.477-6.795h-13.152
			c-1.791,0-2.676-0.554-2.676-1.672c0-0.032,0.076-0.462,0.083-0.505c0.239-0.713,0.487-1.989,3.117-1.989h17.135
			c1.917,0,3.155,2.659,3.155,2.659s0.979-4.813,1.516-7.387C358.162,377.566,357.103,376.674,355.529,376.674"/>
		<path fill="#0F233F" d="M174.708,376.754c-0.965,0-1.974,0.014-2.373,0.74l-10.246,20.737l-1.942-18.654
			c-0.092-1.764,2.232-2.81,2.232-2.81s-7.748-0.014-7.804-0.014c-1.312,0-2.401,0.334-3.109,1.375l-10.612,20.098l-0.75-18.79
			c0.268-1.464,2.416-2.64,2.416-2.64l-8.468-0.051c-0.039,0.011-0.064,0.011-0.131,0.011c-3.056,0.054-3.03,2.014-3.03,2.014
			l2.175,27.507h9.207c1.247,0,1.824-0.162,2.5-1.1l8.64-16.098l0.871,17.197h10.004c1.214,0,2.017-0.166,2.725-1.06l13.456-25.56
			c0.956-1.712,2.74-2.951,2.74-2.951S174.751,376.754,174.708,376.754"/>
		<path fill="#0F233F" d="M186.55,403.533c0,0,4.971-23.562,5.248-24.646c0.287-1.076,1.78-2.09,1.78-2.09
			c-0.83-0.04-4.64,0.027-8.054-0.04c0,0-1.683-0.31-2.393,3.526l-5.537,25.984h9.148
			C186.741,406.273,186.313,405.146,186.55,403.533"/>
		<path fill="#0F233F" d="M222.053,382.527l1.236-5.781c0,0-25.689,0.015-26.007,0.051c-1.844,0.21-2.552,1.495-3.003,3.002
			l-0.859,4.053l0,0l-0.381,1.669c0,0,1.656-1.549,3.476-1.669h13.553l-20.415,17.532l-1.017,4.89h25.773
			c1.446,0,2.456-0.176,2.945-1.668l1.57-7.451c0,0-1.669,1.901-3.527,2.004h-12.529L222.053,382.527z"/>
		<path fill="#CC0C31" d="M390.389,116.22c-1.08-0.766-0.305-2.235-1.162-0.829c0,0-0.098,0.185-0.102,0.185
			c-1.137,1.861-1.812,3.893-2.077,6.111c-0.132,2.437,0.63,3.447,1.646,3.362l12.699-1.844l-0.689-4.718
			C394.471,119.242,390.389,116.22,390.389,116.22"/>
		<path fill="#CC0C31" d="M416.92,119.913c-0.637-2.613-1.914-4.891-3.615-6.739c-0.389-0.444-1.066-0.525-1.598-0.042
			c-2.155,2.317-3.973,4.152-9.588,5.136l0.688,4.729l13.011-1.894c0.596-0.046,0.926,0.133,1.334,0.611
			C417.55,122.197,416.944,120.011,416.92,119.913"/>
		<path fill="#0F233F" d="M411.596,111.607c0.008,0.014,0.016,0.014,0.031,0.024c0.006,0.007,0.025,0.021,0.025,0.021
			L411.596,111.607z"/>
		<path fill="#0F233F" d="M411.596,111.607c0,0-0.01-0.004-0.016-0.008L411.596,111.607z"/>
		<path fill="#CC0C31" d="M410.467,112.403c0.934-0.89,1.795-0.214,1.16-0.767c-0.079-0.053-0.361-0.276-0.361-0.286
			c-2.826-2.152-6.316-3.239-10.014-3.02c0,0-0.264,0.027-0.57,0.059l1.229,8.485C406.171,116.065,408.545,114.378,410.467,112.403"
			/>
		<path fill="#CC0C31" d="M398.523,108.716c-2.732,0.666-5.119,2.051-6.99,3.875c-0.855,0.827-0.871,2.276,0.297,2.928
			c2.527,1.243,5.982,1.862,8.671,1.567l-1.23-8.527C399.02,108.604,398.773,108.648,398.523,108.716"/>
		<path fill="#CC0C31" d="M393.869,134.486c-0.957,0.965-1.484,0.384-1.605,0.532c-0.116,0.134,0.673,0.63,0.673,0.63
			c2.688,2.056,6.011,3.155,9.509,3.078c0,0,0.645-0.011,1.184-0.074l-1.254-8.619C398.639,130.673,396.371,131.933,393.869,134.486
			"/>
		<path fill="#CC0C31" d="M405.729,138.299c0.635-0.141,1.253-0.338,1.854-0.573c1.733-0.666,3.388-1.716,4.604-2.799
			c1.218-1.082,0.732-2.38-0.002-2.797c-1.664-0.953-4.486-2.629-8.389-2.298l1.256,8.62
			C405.272,138.415,405.498,138.36,405.729,138.299"/>
		<path fill="#CC0C31" d="M413.513,131.244c0.429,0.324,0.583,0.812,0.599,1.123c0.021,0.451,0.062,0.59,0.721-0.443
			c0,0,2.119-2.86,2.485-7.519c0.101-1.303-1.224-1.918-2.052-1.778l-12.26,1.783l0.599,4.129
			C407.572,128.201,411.963,130.092,413.513,131.244"/>
		<path fill="#CC0C31" d="M388.4,126.529c-0.645,0.075-0.91-0.309-1.124-0.563c-0.265-0.358-0.179,0.19,0.054,1.14
			c0.625,2.487,1.801,4.695,3.387,6.486c0.465,0.454,1.514,0.462,1.996,0.014c2.142-2.38,4.771-4.055,9.477-4.866l-0.596-4.129
			L388.4,126.529z"/>
		<g>
			<path fill="none" d="M301.964,147.031c-5.657,5.925-8.923,10.113-12.249,15.446l-2.38,3.811l-0.105,1.154
				c5.168-1.285,28.921-6.725,31.706-7.358l-10.617-8.62C306.834,150.251,304.156,148.443,301.964,147.031z"/>
		</g>
	</g>
	<g>
		<polygon fill="#CC0C31" points="262.643,118.849 239.114,125.184 247.395,110.262 233.056,121.488 237.086,98.912 
			228.931,118.244 220.921,106.86 225.024,124.159 206.401,121.582 222.444,130.251 216.236,137.29 215.485,140.698 
			224.287,138.721 223.803,155.324 232.71,138.057 243.019,149.402 237.031,133.669 		"/>
	</g>
</g>
</svg>
