<?xml version="1.0" encoding="utf-8"?>
<!-- Generator: Adobe Illustrator 16.0.0, SVG Export Plug-In . SVG Version: 6.00 Build 0)  -->
<!DOCTYPE svg PUBLIC "-//W3C//DTD SVG 1.1//EN" "http://www.w3.org/Graphics/SVG/1.1/DTD/svg11.dtd">
<svg version="1.1" id="content" xmlns="http://www.w3.org/2000/svg" xmlns:xlink="http://www.w3.org/1999/xlink" x="0px" y="0px"
	 width="500px" height="500px" viewBox="0 0 500 500" enable-background="new 0 0 500 500" xml:space="preserve">
<rect id="position" x="0.5" y="0.5" display="none" fill="none" stroke="#000000" width="499" height="499"/>
<g>
	<path fill="#005182" d="M382.475,229.248c-43.13-0.404-56.032-30.487-59.516-53.759h-30.542
		C286.765,189.592,250.026,204,250.026,204s-36.738-14.408-42.391-28.511h-30.542c-3.507,23.43-16.508,53.761-60.344,53.761
		c-0.046,0-0.088,0-0.133,0v240.83h133.41h132.448V229.248z"/>
	<path opacity="0.2" fill="#212121" d="M305.061,206.412c-1.54,0-2.792-1.252-2.792-2.792v-14.099c0-1.54,1.252-2.792,2.792-2.792
		h4.182c1.539,0,2.792,1.252,2.792,2.793v14.098c0,1.54-1.253,2.792-2.792,2.792H305.061z"/>
	<path fill="#FFFFFF" d="M305.188,204.513c-1.445,0-2.621-1.176-2.621-2.623v-13.239c0-1.446,1.176-2.623,2.621-2.623h3.928
		c1.445,0,2.621,1.176,2.621,2.623v13.239c0,1.446-1.176,2.623-2.621,2.623H305.188z"/>
	<path fill="#C00033" d="M307.151,203.213h1.964c0.729,0,1.321-0.592,1.321-1.323v-13.239c0-0.73-0.592-1.323-1.321-1.323h-1.964"/>
	<path fill="#006CB3" d="M309.332,203.213c0,0-0.036-0.939-0.431-3.272l-1.75-1.812v-10.8h-1.964c-0.729,0-1.321,0.592-1.321,1.323
		v13.239c0,0.731,0.592,1.323,1.321,1.323h1.964H309.332z"/>
	<path opacity="0.2" fill="#212121" d="M309.679,195.18c-0.05-0.058,0.049-0.09-0.289-0.167c-0.063-0.035-0.112-0.529-0.112-0.529
		c-0.05-0.317-0.163-0.536-0.332-0.872c-0.085-0.173-0.125-0.71-0.216-0.984c0.051-1.255-0.351-1.62-0.676-1.824
		c-0.123-0.079-0.185-0.137-0.307-0.208l-0.004-0.058c-0.095-0.09-0.286-0.187-0.443-0.257c-0.049-0.049-0.025-0.156,0.008-0.196
		c0.106-0.016,0.248-0.254,0.365-0.5c0.092,0.005,0.122-0.084,0.151-0.135c0.099-0.157,0.204-0.294,0.067-0.384
		c0.309-0.552,0.111-0.924-0.057-0.938c-0.067-0.139-0.185-0.225-0.392-0.298l-0.423-0.001c-0.439,0.168-0.501,0.36-0.518,0.969
		c-0.074,0.008-0.231-0.062-0.178,0.309c0,0,0.029,0.247,0.128,0.204c-0.095,0.652,0.017,0.703-0.661,0.732l-0.032,0.048
		c-0.675,0.065-0.888-0.02-1.456,1.138c0,0-0.147,0.358-0.19,0.507c-0.059,0.122-0.151,0.309-0.247,0.51v1.598
		c0.084,0.004,0.186,0.005,0.333,0.001v0.174c0,0-0.205,0.175-0.246,0.282c-0.02,0.048-0.055,0.188-0.087,0.344v0.883
		c0.142,0.506,0.504,0.968,0.634,1.498l0.35,0.049c0.201,0.45,1.062,1.672,1.238,1.833c0.041,0.113,0.26,0.253,0.388,0.393
		c0.105,0.1,0.729,0.782,1.459,1.201c-0.004,0,0.118,0.244,0.178,0.44c-0.243,0.195,0.225,0.552,0.369,1.142
		c0.009,0.077-0.136,0.159,0.08,0.352c-0.005,0.309-0.041,0.563-0.066,0.779h0.62h0.118c-0.046-0.228-0.139-0.452-0.188-0.624
		c-0.008-0.022,0.01-0.052,0.021-0.071c0.03-0.056-0.033-0.182-0.033-0.182c-0.069-0.063-0.09-0.398-0.129-0.548
		c-0.062-0.254,0.111-0.689,0.111-0.838c0-0.146-0.111-0.349-0.316-0.609c-0.049-0.056-0.195-1.323-0.327-1.644
		c-0.185-0.442-0.242-0.373-0.455-0.898c-0.171-0.373-0.039-0.92-0.419-2.192c0.004,0.005,0.086-0.08,0.086-0.08
		s-0.302-1.102-0.4-1.404c-0.1-0.301-0.272-0.323-0.272-0.323s0.001-0.123,0.008-0.155c0.015-0.049,0.368-0.969,0.397-0.998
		c0-0.022,0.51-0.366,0.52-0.317c0.042,0.226,0.24,1.37,0.323,1.553c0.087,0.185,0.38,0.746,0.519,1.094
		c-0.529,0.127-0.92,0.603-0.92,1.17c0,0.663,0.537,1.202,1.204,1.202c0.507,0,0.943-0.314,1.118-0.758l0.001-0.884
		c-0.038-0.097-0.089-0.192-0.155-0.282C309.926,195.244,309.731,195.248,309.679,195.18z"/>
	<path fill="#FFFFFF" d="M309.186,203.296c-0.238-0.14-0.225-0.344-0.167-0.816c0.024-0.201,0.053-0.436,0.058-0.71
		c-0.142-0.164-0.124-0.205-0.103-0.257l0.008-0.02l0.014-0.086c-0.065-0.271-0.19-0.488-0.29-0.662
		c-0.141-0.246-0.188-0.345-0.108-0.408c-0.019-0.233-0.098-0.407-0.135-0.489c-0.677-0.44-1.222-0.994-1.427-1.202
		c-0.117-0.122-0.182-0.178-0.244-0.231c-0.082-0.071-0.175-0.151-0.193-0.201c-0.18-0.177-1.042-1.395-1.24-1.839l-0.412-0.096
		c-0.003-0.226-0.143-0.491-0.276-0.748c-0.18-0.342-0.35-0.666-0.356-1.021c-0.006-0.228,0.107-0.748,0.149-0.847
		c0.023-0.062,0.146-0.185,0.224-0.251l0.028-0.235v-0.083l-0.286,0.006c-0.315,0-0.319-0.02-0.339-0.118
		c-0.01-0.048-0.023-0.114-0.058-0.191c-0.058-0.128-0.044-0.167-0.018-0.246c0.112-0.441,0.361-0.945,0.525-1.278l0.081-0.165
		c0.047-0.158,0.192-0.511,0.192-0.511c0.498-1.015,0.696-1.031,1.227-1.075l0.2-0.018l0.054-0.079c0.032,0,0.062,0,0.091,0
		c0.461,0,0.502-0.079,0.552-0.516l0.052-0.391l-0.131,0.057c0.012-0.011-0.01-0.081-0.018-0.141
		c-0.024-0.172,0.004-0.21,0.007-0.214l0.17-0.013l0.002-0.07c0.017-0.617,0.087-0.751,0.466-0.896l0.395,0.006
		c0.163,0.062,0.264,0.137,0.319,0.253c0.089,0.046,0.129,0.071,0.162,0.134c0.072,0.135,0.083,0.398-0.103,0.73l-0.037,0.065
		l0.062,0.041c0.047,0.031,0.044,0.063-0.065,0.234l-0.102,0.139c-0.288,0.481-0.384,0.5-0.385,0.5
		c-0.106,0.096-0.136,0.248-0.053,0.331c0.227,0.107,0.376,0.193,0.445,0.259c0.086,0.107,0.134,0.143,0.185,0.179l0.138,0.095
		c0.343,0.215,0.686,0.592,0.639,1.753c0.046,0.155,0.076,0.338,0.106,0.515c0.036,0.218,0.067,0.406,0.117,0.507
		c0.174,0.344,0.278,0.553,0.325,0.849c0.053,0.532,0.12,0.569,0.152,0.587c0.198,0.048,0.229,0.072,0.233,0.076
		c0.062,0.108,0.105,0.128,0.149,0.147c0.08,0.036,0.112,0.056,0.112,0.119c0.075,0.127,0.124,0.216,0.161,0.311l-0.007,0.855
		c-0.161,0.394-0.58,0.678-1.038,0.678c-0.62,0-1.124-0.503-1.124-1.122c0-0.522,0.353-0.971,0.858-1.093l0.09-0.021l-0.034-0.086
		c-0.101-0.253-0.283-0.619-0.409-0.873l-0.111-0.226c-0.067-0.148-0.23-1.054-0.292-1.395l-0.037-0.205l-0.074-0.005
		c-0.024,0-0.069,0-0.325,0.167c-0.267,0.174-0.267,0.195-0.267,0.236l0,0c-0.031,0-0.392,0.966-0.395,0.975
		c-0.009,0.042-0.011,0.177-0.011,0.177l-0.001,0.072l0.071,0.008c0.003,0,0.126,0.026,0.206,0.268c0.099,0.301,0.399,1.4,0.399,1.4
		h-0.107l0.022,0.082c0.218,0.729,0.266,1.217,0.3,1.573c0.026,0.267,0.045,0.46,0.123,0.629c0.113,0.282,0.185,0.396,0.254,0.507
		c0.058,0.094,0.115,0.187,0.199,0.389c0.074,0.18,0.158,0.705,0.22,1.088c0.075,0.472,0.091,0.542,0.121,0.578
		c0.196,0.249,0.297,0.437,0.297,0.557c0,0.042-0.021,0.13-0.044,0.223c-0.049,0.201-0.11,0.45-0.065,0.634
		c0.014,0.05,0.024,0.12,0.035,0.193c0.032,0.208,0.056,0.338,0.118,0.395c0.003,0.018,0.019,0.072,0.015,0.089l-0.017,0.031
		l-0.007,0.1c0.017,0.058,0.04,0.127,0.065,0.201c0.133,0.385,0.297,0.862-0.13,1.132L309.186,203.296z"/>
	<path fill="#231F20" d="M173.829,175.318c-2.132,11.535-6.63,25.368-15.686,35.657c-7.805,8.87-23.31,14.538-41.526,15.209v6.007
		c20.221-0.701,36.991-6.98,46.03-17.252c10.165-11.551,15.101-26.923,17.325-39.621H173.829z"/>
	<path fill="#231F20" d="M382.475,226.113c-17.591-0.911-32.491-6.502-40.09-15.138c-9.056-10.29-13.554-24.123-15.686-35.657
		h-6.144c2.224,12.698,7.159,28.07,17.325,39.621c8.822,10.026,25.02,16.237,44.594,17.18V226.113z"/>
	<path opacity="0.5" fill="#212121" d="M322.612,343.788c-3.057,0-5.655-0.939-6.805-1.431H193.98l0.468,1.428h-24.419
		c0,0,3.451-9.893,3.899-11.183l-0.068-7.487l-2.883,1.916l-3.725-23.9h10.724c0.206-0.388,0.475-0.896,0.712-1.345
		c-0.291-0.112-0.529-0.225-0.726-0.343l-2.007-1.201l6.521-10.968l-1.882-0.941l15.667-28.812c0,0,6.168,11.343,8.311,15.283
		l6.635-12.203l1.147,2.106c0.394-1.202,0.883-2.356,1.464-3.455l-5.517,1.638l2.571-4.916c0.37-0.705,0.612-1.164,0.795-1.464
		l-0.02-0.01c0.01-0.021,0.797-1.574,2.426-3.502l-3.089,0.207l1.204-1.713c1.814-2.581,2.33-3.316,2.501-3.549l-0.003-0.003
		c0.266-0.371,2.586-3.525,6.21-6.085c-1.539-4.125-3.844-11.057-4.068-16.093l-0.015-0.571c0-2.416,0.796-4.053,2.368-4.893
		c0.603-0.323,1.256-0.487,1.941-0.487c1.243,0,2.574,0.527,4.07,1.612c1.868,1.358,6.602,4.362,10.563,6.592l-1.823-4.55
		l1.983,0.591c3.083,0.918,3.877,1.155,4.111,1.229l0.001-0.002c0.31,0.094,1.608,0.507,3.2,1.262
		c-0.057-0.538-0.313-2.953-0.313-2.953l5.233,3.064c0.207,0.123,0.542,0.324,0.958,0.582c-0.357-1.423-1.433-5.724-1.433-5.724
		s6.926,5.384,7.004,5.445c0.242,0.191,1.296,1.045,2.496,2.395c0.876-1.102,1.669-1.874,2.409-2.344l4.446-2.842l0.259,5.276
		c0.021,0.449,0.073,0.942,0.148,1.417c1.134-0.44,2.381-1.062,3.665-1.831c1.973-1.181,4.779-3.096,7.255-4.785
		c5.591-3.807,7.143-4.803,8.36-5.071l1.148-0.259l0.336,0.19c0.382,0.216,0.586,0.331,0.704,0.402l0.002-0.003
		c0.965,0.552,2.583,2.091,2.583,6.195c0,3.875-1.439,9.462-4.28,16.615c1.325,1.109,3.049,2.922,4.644,5.737l3.731,6.584
		l-3.535-1.04c0.774,1.391,1.312,2.832,1.604,4.309c0.173,0.871,0.246,1.239,0.276,1.413l0.792,3.978c0,0,4.449,8.184,6.256,11.506
		c2.419-4.446,8.311-15.28,8.311-15.28l15.67,28.816l-1.883,0.938l1.376,2.314c2.663,4.479,3.592,6.041,3.915,6.661l0.032-0.02
		l1.195,2.013l-2.009,1.198c-0.194,0.117-0.434,0.23-0.726,0.343c0.271,0.509,0.554,1.041,0.747,1.406
		c5.287,1.008,9.344,6.067,9.519,6.289l1.095,1.394c0,0-3.2,6.714-4.144,8.69c1.558,1.993,3.742,5.575,3.742,9.982
		c0,11.945-8.035,13.844-10.498,14.142C323.762,343.755,323.188,343.788,322.612,343.788z M316.473,337.175l0.31,0.134
		c0.677,0.312,3.025,1.298,5.821,1.298c0.453,0,0.901-0.026,1.333-0.079c1.805-0.218,7.696-1.654,7.696-10.98
		c0-4.119-2.536-7.464-3.627-8.711l-0.688-0.786c0,0,3.253-6.827,4.172-8.757c-0.706-0.833-4.059-4.559-7.881-5.045l-1.04-0.099
		l-3.415-6.452l2.056-0.441c0.377-0.08,0.694-0.16,0.953-0.237c-1.165-1.96-6.845-11.516-6.845-11.516s2.15-0.61,2.221-0.631
		c-1.095-2.015-10.161-18.688-11.252-20.693c-2.136,3.925-8.312,15.284-8.312,15.284s-4.833-8.889-6.635-12.203
		c-0.582,1.069-2.658,4.886-2.658,4.886l-0.713-4.667c-0.229-1.495-0.646-2.889-1.242-4.143c-0.744-1.56-1.939-3.367-3.554-5.371
		l-2.847-3.543l4.436,0.993c1.271,0.283,2.293,0.694,2.72,0.879c-0.501-2.279-1.722-4.43-3.632-6.396l-3.842-3.914l5.939,1.396
		c-1.654-2.838-3.392-4.413-4.572-5.239l-1.042-0.729l0.481-1.177c2.98-7.304,4.491-12.868,4.491-16.537
		c0-2.574-0.752-3.272-0.947-3.41c-0.836,0.246-4.09,2.461-7.239,4.604l-0.17,0.116c-2.446,1.665-5.218,3.553-7.215,4.75
		c-2.771,1.659-4.821,2.383-6.054,2.698l-1.412,0.363l-0.48-1.377c-0.395-1.098-0.604-2.596-0.671-3.634
		c-0.46,0.344-1.305,1.156-2.568,3.036l-1.28,1.9l-1.332-1.863c-1.155-1.604-2.465-2.783-2.98-3.22l0.016,0.293l-0.162,3.812
		l-2.415-1.822c-1.375-1.037-2.968-2.015-3.653-2.424l0.325,3.121l-2.821-1.891c-1.971-1.319-4.167-2.106-4.915-2.353
		c0.242,0.679,0.447,1.559,0.598,2.565l0.43,2.972l-2.698-1.304c-4.081-1.979-11.597-6.64-14.341-8.633
		c-1.137-0.829-1.82-1.002-2.193-1.002c-0.169,0-0.31,0.034-0.443,0.105c-0.458,0.245-0.689,0.939-0.689,2.063l0.012,0.476
		c0.23,5.207,3.086,13.098,4.304,16.248l0.472,1.228l-1.113,0.696c-3.32,2.068-5.625,4.952-6.25,5.783l5.309-0.048l-3.543,2.869
		c-2.601,2.102-4.114,4.505-4.564,5.284c0.827-0.229,1.67-0.396,2.513-0.499l3.95-0.491l-2.527,3.079
		c-1.667,2.028-2.869,4.479-3.573,7.282c-0.186,0.741-0.329,1.517-0.424,2.306l-0.621,4.902l-2.729-5.019
		c-1.803,3.316-6.636,12.204-6.636,12.204s-6.174-11.354-8.312-15.285c-2.446,4.501-9.267,17.047-11.25,20.692
		c0.07,0.021,2.22,0.631,2.22,0.631s-5.679,9.555-6.845,11.515c0.259,0.077,0.574,0.158,0.949,0.237l2.062,0.441l-3.505,6.615
		h-8.919c0.316,2.031,2.193,14.079,2.387,15.321l3.636-2.414l0.122,13.907c0,0-1.763,5.056-2.607,7.479h15.554
		c-0.024-0.075-0.463-1.43-0.463-1.43H316.473z M288.799,260.462c0.303,0.521,0.57,1.024,0.8,1.507
		c0.155,0.327,0.3,0.668,0.437,1.03l0.834-1.531L288.799,260.462z"/>
	<path fill="#231F20" d="M272.248,300.122c0,1.11,0.798,2.148,1.767,2.148c0.973,0,1.768-1.038,1.768-2.148
		c0-1.112-0.795-2.153-1.768-2.153C273.046,297.969,272.248,299.01,272.248,300.122z"/>
	<path fill="#231F20" d="M221.877,314.494c-0.051-1.303-0.471-1.695-1.081-1.834v3.758c0.226-0.07,0.444-0.178,0.619-0.343
		C221.751,315.758,221.906,315.227,221.877,314.494z"/>
	<polygon fill="#231F20" points="246.096,328.905 246.907,330.58 247.237,331.259 247.467,330.661 248.024,329.227 246.018,325.172 
			"/>
	<path fill="#231F20" d="M246.231,312.513c-0.03,1.039-0.078,2.757-0.108,3.933c0.723-0.391,1.122-1.23,1.183-2.526
		c0.014-0.295-0.127-0.846-0.487-1.154C246.744,312.7,246.578,312.56,246.231,312.513z"/>
	<path fill="#231F20" d="M221.34,322.298c-0.18-0.137-0.4-0.231-0.625-0.301v4.891c0.254-0.055,0.497-0.144,0.66-0.281
		c0.421-0.359,0.903-0.936,0.958-2.24C222.371,323.438,221.817,322.67,221.34,322.298z"/>
	<path fill="#231F20" d="M328.503,314.886c0,0,4.146-8.7,4.158-8.728c-0.02-0.028-0.062-0.082-0.062-0.082s-0.192-0.245-0.188-0.239
		c-0.162-0.205-4.008-4.987-8.676-5.581l-0.534-0.051l-2.545-4.808l0.764-0.164c0.94-0.198,1.666-0.435,2.044-0.662
		c0,0,0.092-0.055,0.142-0.084c-0.03-0.049-6.763-11.377-6.763-11.377l0.74-0.21c0.54-0.152,0.964-0.303,1.226-0.433
		c0,0,0.101-0.051,0.151-0.076c-0.045-0.085-12.623-23.214-12.672-23.306c-0.086,0.154-8.313,15.283-8.313,15.283
		s-6.585-12.111-6.635-12.201c-0.049,0.088-2.118,3.892-2.118,3.892l-0.265-1.732c-0.243-1.595-0.69-3.081-1.327-4.421
		c-0.775-1.625-2.014-3.502-3.678-5.568l-1.058-1.316l1.648,0.369c1.462,0.326,2.59,0.84,2.721,0.902c0,0,1.49,0.723,1.593,0.772
		c-0.037-0.187-0.347-1.736-0.347-1.736c-0.505-2.556-1.83-4.953-3.942-7.128l-1.427-1.453l2.803,0.659c0,0,1.949,0.573,2.083,0.611
		c-0.115-0.202-1.072-1.893-1.072-1.893c-1.787-3.152-3.709-4.896-5.006-5.803l-0.387-0.271l0.179-0.437
		c3.029-7.425,4.565-13.117,4.565-16.915c0-3.111-1.039-4.045-1.486-4.301l-0.24-0.137c0,0-0.036-0.023-0.056-0.034
		c-0.023,0.006-0.333,0.074-0.337,0.074c-0.851,0.191-2.972,1.595-7.63,4.766c-2.496,1.7-5.318,3.625-7.336,4.834
		c-2.66,1.593-4.614,2.287-5.788,2.587l-0.522,0.134l-0.178-0.509c-0.365-1.016-0.577-2.522-0.628-3.562
		c0,0-0.067-1.422-0.072-1.519c-0.137,0.086-1.283,0.815-1.283,0.815c-0.824,0.528-1.872,1.715-3.03,3.439l-0.475,0.705
		l-0.494-0.691c-1.549-2.152-3.339-3.563-3.413-3.619c0,0-1.885-1.466-2.012-1.565c0.066,0.267,0.615,2.475,0.615,2.475l0.011,0.007
		l0.021,0.41l-0.079,1.816l-0.896-0.676c-1.714-1.292-3.729-2.478-3.953-2.609c0,0-1.407-0.825-1.504-0.883
		c0.019,0.188,0.087,0.823,0.087,0.823l0.224,2.146l-1.048-0.703c-2.394-1.602-5.112-2.461-5.418-2.555c0,0-1.636-0.487-1.747-0.521
		c0.073,0.183,0.678,1.693,0.678,1.693c0.253,0.637,0.468,1.529,0.625,2.575l0.16,1.104l-1.004-0.485
		c-4.028-1.954-11.467-6.565-14.188-8.542c-1.57-1.144-2.78-1.461-3.697-0.969c-1.216,0.65-1.216,2.378-1.216,2.944l0.013,0.501
		c0.237,5.385,3.137,13.39,4.371,16.583l0.175,0.457l-0.414,0.259c-3.854,2.4-6.404,5.862-6.679,6.246c0,0-0.995,1.415-1.063,1.513
		c0.198-0.014,1.841-0.126,1.843-0.126l2.631-0.024l-1.316,1.066c-3.308,2.673-4.945,5.817-4.963,5.852c0,0-0.903,1.724-0.967,1.842
		c0.213-0.064,1.998-0.593,1.998-0.593c0.849-0.251,1.733-0.437,2.63-0.545l1.467-0.183l-0.938,1.143
		c-1.765,2.147-3.031,4.73-3.77,7.674c-0.191,0.764-0.344,1.581-0.447,2.428l-0.231,1.822c0,0-2.078-3.82-2.126-3.91
		c-0.049,0.09-6.636,12.203-6.636,12.203s-8.262-15.193-8.312-15.285c-0.083,0.154-12.642,23.254-12.67,23.306
		c0.085,0.043,0.153,0.077,0.153,0.077c0.259,0.131,0.681,0.279,1.224,0.432l0.74,0.21c0,0-6.733,11.328-6.764,11.377
		c0.079,0.048,0.144,0.084,0.144,0.084c0.375,0.226,1.101,0.463,2.041,0.662l0.766,0.164l-2.604,4.914h-9.485
		c0.01,0.068,2.792,17.929,2.806,18.018c0.122-0.081,3.4-2.257,3.4-2.257l0.104,11.889c0,0-2.987,8.568-3.013,8.644h18.339
		c-0.041-0.122-0.465-1.43-0.465-1.43h125.292l0.12,0.052c0.896,0.414,4.098,1.724,7.669,1.294
		c2.013-0.243,8.577-1.824,8.577-11.974c0-4.453-2.709-8.037-3.874-9.369L328.503,314.886z M300.994,280.569l-2.521-0.329
		l7.955-14.643l5.422,15.024l-2.352,0.314c1.271,2.715,4.195,9.345,5.381,11.535l-2.466,0.491l3.681,7.765
		c-1.688,0.658-2.92,2.712-2.92,2.712l-3.332,0.051l-3.952-10.244l-11.796-0.045L300.994,280.569z M300.062,303.752h-1.556
		l-0.631-1.387h-2.351l-0.624,1.387h-1.486l3.302-7.436h0.016L300.062,303.752z M291.445,267.192l2.295,11.183l-1.94,0.256
		l1.461,9.47l-2.392,0.159l-0.494,4.942h-8.933l1.251-2.361l1.497-2.828l-2.264-0.352l3.623-6.098l1.758-2.975l-1.922-0.253
		L291.445,267.192z M283.271,298.138l0.39-1.651h4.22v1.651h-1.489v5.614h-1.531v-5.614H283.271z M280.197,285.91l-1.961,0.131
		l-0.717,7.16H269.7l2.447-4.62l1.229-2.319l-1.857-0.292l2.975-5.002l1.442-2.445l-1.576-0.204l4.965-9.141l1.498,8.989
		l-1.591,0.208L280.197,285.91z M277.315,300.122c0,2.116-1.498,3.803-3.301,3.803s-3.298-1.687-3.298-3.803
		c0-2.12,1.495-3.806,3.298-3.806S277.315,298.002,277.315,300.122z M259.248,244.941c0.156,0.907,0.454,1.835,0.627,1.548
		c0.464-0.776,3.404-2.227,3.404-2.227s-1.049,1.826-0.59,1.549c0.638-0.379,2.175,0.401,2.175,0.401
		c-4.339,1.692-7.771,3.644-9.109,6.216C255.603,251.219,259.097,244.036,259.248,244.941z M252.894,299.283v1.538h-1.597v1.396
		h2.426l-0.379,1.537h-3.577v-7.269h3.495l0.269,1.536h-2.233v1.261H252.894z M242.978,296.402v7.522h-0.018l-4.051-4.151v3.979
		h-1.527v-7.436h0.017l4.043,4.069v-3.983H242.978z M255.397,275.765c-0.497-0.809-1.184-0.995-1.184-0.995s0.125-0.627,0.437-0.875
		c0.31-0.249,0.501-0.438,0.871-0.314c0,0,0.937,0.436,0.937,2.624c0,1.682-0.937,2.245-0.937,2.245
		S255.896,276.576,255.397,275.765z M251.157,286.247v-0.024c-2.492-0.124-3.489-2.616-3.614-4.734
		c-0.124-2.118,0.31-2.928,1.494-2.989c1.185-0.063,1.746,1.429,1.808,2.054c0.064,0.624,0.312,1.184,0.312,1.184v0.025
		c0,0,0.248-0.563,0.31-1.188c0.063-0.618,0.625-2.113,1.809-2.052c1.184,0.061,1.618,0.87,1.496,2.986
		C254.646,283.629,253.65,286.12,251.157,286.247z M252.851,290.664c-0.333,0.409-0.809,0-0.809,0s-0.404,0.339-0.947,0.067
		c-0.536,0.271-0.944-0.067-0.944-0.067s-0.474,0.409-0.812,0c-0.643-0.771-0.203-1.96-0.203-1.96s0.138,1.282,0.949,1.352
		l0.542-0.948l0.469,1.015l0.473-1.015l0.544,0.948c0.812-0.069,0.946-1.352,0.946-1.352S253.498,289.893,252.851,290.664z
		 M246.52,278.449c0,0-0.934-0.563-0.934-2.245c0-2.188,0.934-2.624,0.934-2.624c0.375-0.123,0.563,0.065,0.877,0.314
		c0.31,0.248,0.435,0.875,0.435,0.875s-0.681,0.187-1.186,0.995C246.147,276.576,246.52,278.449,246.52,278.449z M247.379,285.594
		c0,0-0.474,2.209,0.945,2.344c0,0,0.224-0.049,0.224,0.767c0,0.812-0.494,1.151-0.698,1.151c-0.201,0-1.149-0.474-1.149-2.235
		C246.701,286.54,247.105,285.93,247.379,285.594z M248.03,274.947c0.185-0.438,1.248-0.189,1.496,0.312
		c0.498-0.501,1.186-0.253,1.498,0.062c0.313-0.314,0.998-0.562,1.498-0.062c0.246-0.501,1.309-0.75,1.499-0.312
		c0,0,0,0.996-0.63,1.618c0,0-0.37-0.81-0.685-0.874c0,0-0.621,0.813-0.872,1.125l-0.811-1l-0.808,1
		c-0.251-0.312-0.877-1.125-0.877-1.125c-0.31,0.064-0.688,0.874-0.688,0.874C248.03,275.943,248.03,274.947,248.03,274.947z
		 M253.869,287.938c1.422-0.135,0.948-2.344,0.948-2.344c0.271,0.336,0.677,0.946,0.677,2.026c0,1.762-0.948,2.235-1.148,2.235
		c-0.205,0-0.7-0.339-0.7-1.151C253.646,287.889,253.869,287.938,253.869,287.938z M262.906,251.803l0.996-0.684
		c0,0,0.784,1.709-0.996,3.053c-1.862,1.41-3.058-0.621-3.058-0.621l0.812-0.564c0,0,0.686,0.628,1.623,0.189
		C263.221,252.741,262.906,251.803,262.906,251.803z M260.017,298.56c0-1.436,1.137-2.243,2.256-2.243
		c0.71,0,1.431,0.309,1.979,0.834l-0.841,1.254c-0.35-0.361-0.617-0.551-1.093-0.551c-0.273,0-0.679,0.189-0.679,0.571
		c0,1.154,2.767,0.404,2.767,3.072c0,1.631-1.082,2.428-2.371,2.428c-0.764,0-1.557-0.264-2.141-0.857l0.918-1.382
		c0.287,0.396,0.7,0.585,1.159,0.585c0.319,0,0.814-0.179,0.814-0.643C262.785,300.489,260.017,301.167,260.017,298.56z
		 M216.843,264.063c0,0,1.641-8.53,8.172-13.605c0,0,1.203-0.511-5.831-0.642c0,0,3.027-3.999,8-6.245c0,0-3.123-0.545-5.851-0.255
		c0,0,2.203-4.236,9.812-5.403l0.607-0.101c-0.49-0.87-1.712-0.511-2.197-1.358c-0.261-0.459,6.696-2.135,6.438-2.589
		c-0.306-0.542-6.189-1.989-6.495-2.517c-0.173-0.305,2.121-1.273,1.949-1.58c-0.163-0.278-1.445-0.973-2.604-1.761
		c-1.151-0.779-2.178-1.654-2.287-1.625c-1.007,0.247,0.316,10.031,0.37,10.553c0.007,0.056-1.008,0.262-1.008,0.262
		c-0.553-0.553-5.075-14.122-4.083-16.514c0.145-0.35,0.743-0.16,2.924,1.504c9.18,7.009,17.16,8.755,17.16,8.755
		c0.229-1.846,0-4.379,0-4.379c3.573,1.383,5.646,5.301,5.646,5.301l0.119-0.345c0.536-1.627,0.687-3.919,0.687-3.919
		c1.729,1.038,3.4,3.824,3.4,3.824s0.562,5.62-0.877,8.608c-0.814,1.701-3.533,2.77-5.977,2.628c0,0,0.66,0.882,1.676,1.616
		c0.614,0.446,1.79,0.898,1.79,0.898s-2.15,1.553-7.054,0.477c-0.44,0.048,2.433,2.869,6.579,4.634
		c1.987,0.846,2.962,4.075,0.376,4.099c0,0,2.123,2.422,2.318,4.182l0.328,1.752c-0.79-1.107-1.944-1.475-2.869-1.574
		c-0.218-0.023-0.422-0.033-0.607-0.033c-0.024,0-0.05,0-0.073,0c-0.181,0.002-0.343,0.01-0.47,0.023
		c-0.001,0.002-0.004,0.002-0.005,0.002c-0.105,0.01-0.198,0.033-0.295,0.053c-0.06,0.012-0.128,0.019-0.185,0.034
		c-0.099,0.026-0.187,0.062-0.276,0.095c-0.044,0.016-0.094,0.029-0.134,0.047c-0.104,0.045-0.197,0.094-0.286,0.146
		c-0.018,0.01-0.04,0.019-0.057,0.029c-0.516,0.309-0.757,0.675-0.762,0.683c0.001,0,0.003,0.001,0.003,0.001
		c0.722-0.11,1.149-0.199,2.39,0.216c3.984,1.34,3.466,6.789,3.715,7.665c0.004-0.015-1.025-0.739-2.433-0.739
		c-0.128,0-0.25,0.022-0.373,0.043c-0.14,0.023-0.275,0.061-0.407,0.109c-0.017,0.006-0.032,0.01-0.046,0.016
		c-0.124,0.047-0.243,0.107-0.357,0.172c-0.023,0.014-0.046,0.027-0.069,0.042c-0.103,0.063-0.199,0.134-0.292,0.21
		c-0.034,0.027-0.064,0.057-0.096,0.085c-0.077,0.069-0.153,0.145-0.222,0.223c-0.042,0.048-0.08,0.099-0.118,0.148
		c-0.052,0.068-0.104,0.136-0.148,0.207c-0.049,0.077-0.089,0.155-0.129,0.235c-0.026,0.054-0.056,0.105-0.079,0.16
		c-0.049,0.117-0.086,0.236-0.116,0.357c-0.006,0.023-0.015,0.044-0.021,0.067c-0.032,0.15-0.05,0.3-0.05,0.45
		c0,0.627,0.199,1.152,0.456,1.58c0.241,0.402,0.534,0.719,0.759,0.945c0.289,0.287,0.572,0.607,0.578,0.771
		c0.004,0.104-0.1,0.145-0.389,0.072c0,0,0-0.001-0.001-0.001c0,0,0,0-0.001,0c-1.747-0.438-3.727-2.313-3.858-5.26
		c-0.108-2.395,0.514-3.632,1.305-3.916c0.061-0.02,0.129-0.039,0.202-0.055c0.007,0.002,0.015,0.006,0.021,0.008
		c1.392-0.33,3.187,0.827,3.187,0.827l-0.002-0.005v0.004c0,0-0.2-0.398-0.647-0.852c-0.449-0.453-1.144-0.96-2.136-1.178
		c-0.434-0.095-0.845-0.093-1.228-0.006c-1.154,0.26-2.074,1.281-2.7,2.717c-0.262,0.598-0.466,1.33-0.549,2.157
		c-0.028,0.276-0.046,0.558-0.043,0.854c0.009,0.712,0.113,1.479,0.353,2.287c0.578,1.945,1.188,4.25,1.883,5.656
		c2.638,5.317,2.758,8.672,2.599,11.767c-0.006,0.106,0.001,0.2,0.003,0.301c0.001,0.107-0.002,0.219,0.007,0.319
		c0.006,0.088,0.025,0.166,0.037,0.251c0.017,0.107,0.032,0.219,0.056,0.318c0.019,0.075,0.043,0.142,0.067,0.214
		c0.032,0.1,0.064,0.198,0.103,0.291c0.028,0.062,0.06,0.122,0.09,0.181c0.047,0.09,0.094,0.179,0.149,0.264
		c0.035,0.052,0.071,0.102,0.109,0.152c0.06,0.081,0.123,0.159,0.19,0.233c0.039,0.044,0.08,0.086,0.122,0.128
		c0.074,0.072,0.151,0.14,0.232,0.206c0.042,0.033,0.084,0.07,0.129,0.103c0.086,0.065,0.176,0.124,0.269,0.181
		c0.043,0.027,0.086,0.056,0.132,0.081c0.1,0.058,0.205,0.11,0.311,0.16c0.04,0.02,0.079,0.041,0.12,0.059
		c0.121,0.053,0.245,0.101,0.37,0.146c0.028,0.01,0.056,0.023,0.085,0.032c0.311,0.106,0.629,0.188,0.948,0.251
		c0.059,0.011,0.117,0.021,0.177,0.03c0.096,0.018,0.192,0.034,0.288,0.049c0.079,0.011,0.159,0.021,0.237,0.029
		c0.072,0.009,0.143,0.019,0.214,0.025c0.089,0.009,0.178,0.017,0.265,0.023c0.056,0.003,0.111,0.009,0.165,0.013
		c0.097,0.006,0.191,0.012,0.284,0.015c0.229,0.01,0.447,0.015,0.643,0.015c3.219,0,4.346-1.875,4.532-4.387
		c0.215-2.899-0.277-6.403,2.598-11.508c1.093-1.93-0.916,1.496-1.046,7.013c-0.125,5.257-0.021,11.023-6.708,11.154v0.001
		c-0.336,0.006-0.675,0.012-1.044-0.01c0,0-2.572-0.032-4.043-2.044c-0.272-0.372-0.487-0.784-0.672-1.217
		c-1.149-2.688-0.799-6.336-1.474-8.578c-0.64-2.125-1.585-4.059-2.291-5.345c-0.541-0.988-0.939-1.596-0.945-1.607
		c0,0.006,0,0.012,0,0.018c-0.039,1.018,0.005,2.604,0.835,4.369c0.88,1.875,0.968,4.002,0.975,4.642
		c0,0.027,0.002,0.07,0.002,0.092c0,0.075-0.002,0.116-0.002,0.116c-0.744-0.702-1.879-0.89-1.881-0.89
		c0.019,0.04,0.038,0.097,0.055,0.146c0.266,0.687,0.555,2.095,0.848,4.084c0.044,0.304,0.089,0.621,0.133,0.951
		c0.209,1.567,0.743,2.924,1.143,3.778c0.086,0.187,0.169,0.356,0.238,0.49h0c0,0,0,0,0,0.001h-7.943l-2.911-5.497h0.003
		c0.005,0,0.032-0.004,0.068-0.012c0.283-0.047,1.351-0.238,1.799-0.507l-4.262-7.173c0,0,0.219-0.028,0.503-0.096
		c0.271-0.065,0.596-0.168,0.85-0.321l-7.797-14.343l-5.29,9.727l-1.393-2.57l-0.826-1.635
		C215.711,270.775,216.201,266.294,216.843,264.063z M218.953,280.4c0,0,0.27-0.032,0.615-0.117
		c0.328-0.079,0.725-0.205,1.032-0.391l-1.604-2.953l4.222-7.769l3.015,9.385l-1.56,0.21l2.702,7.69h-2.077l1.456,6.746h-3.071
		l-1.815-3.43h0.002c0.01-0.001,0.039-0.005,0.084-0.015c0.345-0.056,1.645-0.291,2.193-0.619L218.953,280.4z M225.02,296.316h0.02
		l4.045,4.069v-3.983h1.532v7.522h-0.019l-4.044-4.151v3.979h-1.534V296.316z M218.232,296.402v7.35h-1.533v-7.35H218.232z
		 M211.103,267.191l3.672,11.437l-1.899,0.251l3.291,9.374h-2.532l1.068,4.948h-2.181l-6.089-10.249c0,0,0.352-0.045,0.805-0.155
		c0.431-0.105,0.953-0.27,1.356-0.512l-1.819-3.351l0.041-0.07l-0.091-0.024l-0.976-1.793L211.103,267.191z M204.894,296.316h0.014
		l1.951,4.45l2.006-4.45h0.014l1.646,7.48h-1.545l-0.529-3.366h-0.019l-1.622,3.494h-0.019l-1.476-3.487h-0.018l-0.532,3.359h-1.57
		L204.894,296.316z M183.313,293.228l7.174-12.296l-2.409-0.54l8.041-14.794l4.824,15.024l-2.495,0.332l3.995,12.295l-8.346-0.011
		l-2.512,7.319h-9.599l4.111-7.326L183.313,293.228z"/>
	<polygon fill="#231F20" points="295.895,301.021 297.531,301.021 296.717,299.241 	"/>
	<path fill="#A7A9AC" d="M322.612,338.788c-3.057,0-5.655-0.939-6.805-1.431H193.98l0.468,1.428h-24.419
		c0,0,3.451-9.893,3.899-11.183l-0.068-7.487l-2.883,1.916l-3.725-23.9h10.724c0.206-0.388,0.475-0.896,0.712-1.345
		c-0.291-0.112-0.529-0.225-0.726-0.343l-2.007-1.201l6.521-10.968l-1.882-0.941l15.667-28.812c0,0,6.168,11.343,8.311,15.283
		l6.635-12.203l1.147,2.106c0.394-1.202,0.883-2.356,1.464-3.455l-5.517,1.638l2.571-4.916c0.37-0.705,0.612-1.164,0.795-1.464
		l-0.02-0.01c0.01-0.021,0.797-1.574,2.426-3.502l-3.089,0.208l1.204-1.713c1.814-2.581,2.33-3.315,2.501-3.548l-0.003-0.003
		c0.266-0.371,2.586-3.525,6.21-6.085c-1.539-4.125-3.844-11.057-4.068-16.093l-0.015-0.571c0-2.416,0.796-4.053,2.368-4.893
		c0.603-0.323,1.256-0.487,1.941-0.487c1.243,0,2.574,0.527,4.07,1.612c1.868,1.358,6.602,4.362,10.563,6.592l-1.823-4.55
		l1.983,0.591c3.083,0.918,3.877,1.155,4.111,1.229l0.001-0.002c0.31,0.094,1.608,0.507,3.2,1.262
		c-0.057-0.538-0.313-2.953-0.313-2.953l5.233,3.064c0.207,0.123,0.542,0.324,0.958,0.582c-0.357-1.423-1.433-5.724-1.433-5.724
		s6.926,5.384,7.004,5.445c0.242,0.191,1.296,1.045,2.496,2.395c0.876-1.102,1.669-1.874,2.409-2.344l4.446-2.842l0.259,5.276
		c0.021,0.449,0.073,0.942,0.148,1.417c1.134-0.44,2.381-1.062,3.665-1.831c1.973-1.181,4.779-3.096,7.255-4.785
		c5.591-3.807,7.143-4.803,8.36-5.071l1.148-0.259l0.336,0.19c0.382,0.216,0.586,0.331,0.704,0.402l0.002-0.003
		c0.965,0.552,2.583,2.091,2.583,6.195c0,3.875-1.439,9.462-4.28,16.615c1.325,1.109,3.049,2.922,4.644,5.737l3.731,6.584
		l-3.535-1.041c0.774,1.391,1.312,2.833,1.604,4.309c0.173,0.871,0.246,1.239,0.276,1.413l0.792,3.978c0,0,4.449,8.184,6.256,11.506
		c2.419-4.446,8.311-15.28,8.311-15.28l15.67,28.816l-1.883,0.938l1.376,2.314c2.663,4.479,3.592,6.041,3.915,6.661l0.032-0.02
		l1.195,2.013l-2.009,1.198c-0.194,0.117-0.434,0.23-0.726,0.343c0.271,0.509,0.554,1.041,0.747,1.406
		c5.287,1.008,9.344,6.067,9.519,6.289l1.095,1.394c0,0-3.2,6.714-4.144,8.69c1.558,1.993,3.742,5.575,3.742,9.982
		c0,11.945-8.035,13.844-10.498,14.142C323.762,338.755,323.188,338.788,322.612,338.788z M316.473,334.175l0.31,0.134
		c0.677,0.312,3.025,1.298,5.821,1.298c0.453,0,0.901-0.026,1.333-0.079c1.805-0.218,7.696-1.654,7.696-10.98
		c0-4.119-2.536-7.464-3.627-8.711l-0.688-0.786c0,0,3.253-6.827,4.172-8.757c-0.706-0.833-4.059-4.559-7.881-5.045l-1.04-0.099
		l-3.415-6.452l2.056-0.441c0.377-0.08,0.694-0.16,0.953-0.237c-1.165-1.96-6.845-11.516-6.845-11.516s2.15-0.61,2.221-0.631
		c-1.095-2.015-10.161-18.688-11.252-20.693c-2.136,3.925-8.312,15.284-8.312,15.284s-4.833-8.889-6.635-12.203
		c-0.582,1.069-2.658,4.886-2.658,4.886l-0.713-4.667c-0.229-1.495-0.646-2.889-1.242-4.143c-0.744-1.56-1.939-3.367-3.554-5.371
		l-2.847-3.543l4.436,0.993c1.271,0.283,2.293,0.694,2.72,0.879c-0.501-2.279-1.722-4.43-3.632-6.396l-3.842-3.914l5.939,1.396
		c-1.654-2.838-3.392-4.413-4.572-5.239l-1.042-0.729l0.481-1.177c2.98-7.304,4.491-12.868,4.491-16.537
		c0-2.574-0.752-3.272-0.947-3.41c-0.836,0.246-4.09,2.461-7.239,4.604l-0.17,0.116c-2.446,1.665-5.218,3.553-7.215,4.75
		c-2.771,1.659-4.821,2.383-6.054,2.698l-1.412,0.363l-0.48-1.377c-0.395-1.098-0.604-2.596-0.671-3.634
		c-0.46,0.344-1.305,1.156-2.568,3.036l-1.28,1.9l-1.332-1.863c-1.155-1.604-2.465-2.783-2.98-3.22l0.016,0.293l-0.162,3.812
		l-2.415-1.822c-1.375-1.037-2.968-2.015-3.653-2.424l0.325,3.121l-2.821-1.891c-1.971-1.319-4.167-2.106-4.915-2.353
		c0.242,0.679,0.447,1.559,0.598,2.565l0.43,2.972l-2.698-1.304c-4.081-1.979-11.597-6.64-14.341-8.633
		c-1.137-0.829-1.82-1.002-2.193-1.002c-0.169,0-0.31,0.034-0.443,0.105c-0.458,0.245-0.689,0.939-0.689,2.063l0.012,0.476
		c0.23,5.207,3.086,13.098,4.304,16.248l0.472,1.228l-1.113,0.696c-3.32,2.068-5.625,4.952-6.25,5.783l5.309-0.048l-3.543,2.869
		c-2.601,2.102-4.114,4.505-4.564,5.284c0.827-0.229,1.67-0.396,2.513-0.499l3.95-0.491l-2.527,3.079
		c-1.667,2.028-2.869,4.479-3.573,7.282c-0.186,0.741-0.329,1.517-0.424,2.306l-0.621,4.902l-2.729-5.019
		c-1.803,3.316-6.636,12.204-6.636,12.204s-6.174-11.354-8.312-15.285c-2.446,4.501-9.267,17.047-11.25,20.692
		c0.07,0.021,2.22,0.631,2.22,0.631s-5.679,9.555-6.845,11.515c0.259,0.077,0.574,0.158,0.949,0.237l2.062,0.441l-3.505,6.615
		h-8.919c0.316,2.031,2.193,14.079,2.387,15.321l3.636-2.414l0.122,13.907c0,0-1.763,5.056-2.607,7.479h15.554
		c-0.024-0.075-0.463-1.43-0.463-1.43H316.473z M288.799,257.462c0.303,0.521,0.57,1.024,0.8,1.507
		c0.155,0.327,0.3,0.668,0.437,1.03l0.834-1.531L288.799,257.462z"/>
	<path fill="#A7A9AC" d="M217.929,274.98l5.29-9.727l7.797,14.343c-0.254,0.153-0.58,0.256-0.85,0.321
		c-0.284,0.067-0.503,0.096-0.503,0.096l4.262,7.173c-0.449,0.269-1.517,0.46-1.799,0.507c-0.036,0.008-0.062,0.012-0.068,0.012
		h-0.003l2.911,5.497h7.943c0-0.001,0-0.001,0-0.001h-2.997c-1.958-3.045-1.306-9.713-4.058-15.44
		c-0.829-1.717-1.412-3.255-1.829-4.595c-0.859,0.706-1.582,1.479-1.582,1.479c-0.834-3.562-0.087-6.392,0.302-7.518
		c-2.115,0.834-3.454,2.918-3.454,2.918s-1.313-2.877,0.644-7.443c1.348-3.145,3.969-4.801,5.843-5.428
		c-1.742-0.796-2.484-2.49-2.718-3.77c-0.452-2.504,1.304-6.524,1.304-6.524c2.88,2.76,6.666,4.024,9.351,6.089
		c2.578,1.976,3.154,3.806,3.154,3.806s-0.015-0.008-0.023-0.014c0.676,0.805,1.122,1.568,1.239,1.98c-0.009,0-0.015,0-0.022,0
		c0.924,0.1,2.079,0.467,2.869,1.574l-0.328-1.752c-0.195-1.76-2.318-4.182-2.318-4.182c2.586-0.023,1.611-3.253-0.376-4.099
		c-4.146-1.765-7.02-4.585-6.579-4.634c4.904,1.076,7.054-0.477,7.054-0.477s-1.176-0.452-1.79-0.898
		c-1.016-0.733-1.676-1.616-1.676-1.616c2.444,0.142,5.163-0.927,5.977-2.628c1.438-2.989,0.877-8.608,0.877-8.608
		s-1.671-2.786-3.4-3.824c0,0-0.15,2.292-0.687,3.919l-0.119,0.345c0,0-2.073-3.918-5.646-5.301c0,0,0.229,2.534,0,4.379
		c0,0-7.979-1.747-17.16-8.755c-2.181-1.665-2.779-1.854-2.924-1.504c-0.993,2.392,3.529,15.961,4.083,16.514
		c0,0,1.016-0.206,1.008-0.262c-0.053-0.522-1.377-10.306-0.37-10.553c0.109-0.029,1.136,0.846,2.287,1.625
		c1.159,0.789,2.441,1.483,2.604,1.761c0.172,0.307-2.122,1.275-1.949,1.58c0.305,0.528,6.188,1.976,6.495,2.517
		c0.258,0.454-6.699,2.129-6.438,2.589c0.485,0.848,1.707,0.489,2.197,1.358l-0.607,0.101c-7.609,1.167-9.812,5.403-9.812,5.403
		c2.728-0.29,5.851,0.255,5.851,0.255c-4.973,2.246-8,6.245-8,6.245c7.034,0.131,5.831,0.642,5.831,0.642
		c-6.532,5.075-8.172,13.605-8.172,13.605c-0.642,2.23-1.132,6.712-1.132,6.712l0.826,1.635L217.929,274.98z"/>
	<path fill="#A7A9AC" d="M248.322,264.455l0.002,0.005c0,0-1.794-1.157-3.187-0.827c1.137,0.219,2.588,2.018,3.087,3.371
		c-0.003,0-0.004,0-0.007,0.002c0.124-0.021,0.245-0.043,0.373-0.043c1.408,0,2.437,0.725,2.433,0.739
		c-0.249-0.876,0.269-6.325-3.715-7.665c-1.241-0.415-1.668-0.326-2.389-0.216C248.559,260.591,248.323,264.43,248.322,264.455z"/>
	<path fill="#A7A9AC" d="M251.572,292.952c-0.013,0.622-0.536,1.248-0.54,1.252c6.688-0.131,6.583-5.897,6.708-11.154
		c0.13-5.517,2.139-8.942,1.046-7.013c-2.875,5.104-2.383,8.608-2.598,11.508c-0.187,2.512-1.313,4.387-4.532,4.387
		c-0.195,0-0.414-0.005-0.643-0.015c0.019,0.001,0.04,0.003,0.06,0.003C251.073,291.92,251.58,292.444,251.572,292.952z"/>
	<path fill="#A7A9AC" d="M264.864,246.212c0,0-1.537-0.78-2.175-0.401c-0.459,0.277,0.59-1.549,0.59-1.549s-2.94,1.451-3.404,2.227
		c-0.173,0.287-0.471-0.641-0.627-1.548c-0.151-0.905-3.646,6.277-3.493,7.486C257.093,249.855,260.525,247.904,264.864,246.212z"/>
	<path fill="#FBD238" d="M262.283,253.176c-0.938,0.438-1.623-0.189-1.623-0.189l-0.812,0.564c0,0,1.195,2.031,3.058,0.621
		c1.78-1.344,0.996-3.053,0.996-3.053l-0.996,0.684C262.906,251.803,263.221,252.741,262.283,253.176z"/>
	<path fill="#FFFFFF" d="M247.832,274.77c0,0-0.125-0.627-0.435-0.875c-0.314-0.249-0.503-0.438-0.877-0.314
		c0,0-0.934,0.436-0.934,2.624c0,1.682,0.934,2.245,0.934,2.245s-0.373-1.873,0.127-2.685
		C247.151,274.956,247.832,274.77,247.832,274.77z"/>
	<path fill="#FFFFFF" d="M247.85,289.855c0.204,0,0.698-0.339,0.698-1.151c0-0.815-0.224-0.767-0.224-0.767
		c-1.418-0.135-0.945-2.344-0.945-2.344c-0.273,0.336-0.678,0.946-0.678,2.026C246.701,289.382,247.649,289.855,247.85,289.855z"/>
	<path fill="#FFFFFF" d="M256.458,276.204c0-2.188-0.937-2.624-0.937-2.624c-0.37-0.123-0.562,0.065-0.871,0.314
		c-0.312,0.248-0.437,0.875-0.437,0.875s0.687,0.187,1.184,0.995c0.499,0.812,0.124,2.685,0.124,2.685
		S256.458,277.886,256.458,276.204z"/>
	<path fill="#FFFFFF" d="M249.338,275.691c0,0,0.626,0.813,0.877,1.125l0.808-1l0.811,1c0.251-0.312,0.872-1.125,0.872-1.125
		c0.314,0.064,0.685,0.874,0.685,0.874c0.63-0.622,0.63-1.618,0.63-1.618c-0.19-0.438-1.253-0.189-1.499,0.312
		c-0.5-0.501-1.185-0.253-1.498,0.062c-0.312-0.314-1-0.562-1.498-0.062c-0.248-0.501-1.311-0.75-1.496-0.312
		c0,0,0,0.996,0.621,1.618C248.651,276.565,249.028,275.756,249.338,275.691z"/>
	<path fill="#FFFFFF" d="M252.111,290.056l-0.544-0.948l-0.473,1.015l-0.469-1.015l-0.542,0.948
		c-0.812-0.069-0.949-1.352-0.949-1.352s-0.439,1.188,0.203,1.96c0.339,0.409,0.812,0,0.812,0s0.408,0.339,0.944,0.067
		c0.543,0.271,0.947-0.067,0.947-0.067s0.476,0.409,0.809,0c0.647-0.771,0.207-1.96,0.207-1.96S252.923,289.986,252.111,290.056z"/>
	<path fill="#FFFFFF" d="M254.346,289.855c0.2,0,1.148-0.474,1.148-2.235c0-1.08-0.406-1.69-0.677-2.026
		c0,0,0.474,2.209-0.948,2.344c0,0-0.224-0.049-0.224,0.767C253.646,289.517,254.141,289.855,254.346,289.855z"/>
	<polygon fill="#A7A9AC" points="253.53,298.022 253.262,296.486 249.767,296.486 249.767,303.755 253.344,303.755 253.723,302.218 
		251.297,302.218 251.297,300.821 252.894,300.821 252.894,299.283 251.297,299.283 251.297,298.022 	"/>
	<polygon fill="#A7A9AC" points="237.399,296.316 237.383,296.316 237.383,303.752 238.91,303.752 238.91,299.773 242.96,303.925 
		242.978,303.925 242.978,296.402 241.442,296.402 241.442,300.386 	"/>
	<path fill="#A7A9AC" d="M261.971,302.271c-0.459,0-0.872-0.189-1.159-0.585l-0.918,1.382c0.584,0.594,1.377,0.857,2.141,0.857
		c1.289,0,2.371-0.797,2.371-2.428c0-2.668-2.767-1.918-2.767-3.072c0-0.382,0.405-0.571,0.679-0.571
		c0.476,0,0.743,0.189,1.093,0.551l0.841-1.254c-0.548-0.525-1.269-0.834-1.979-0.834c-1.119,0-2.256,0.808-2.256,2.243
		c0,2.607,2.769,1.93,2.769,3.068C262.785,302.092,262.29,302.271,261.971,302.271z"/>
	<polygon fill="#A7A9AC" points="226.554,299.773 230.599,303.925 230.617,303.925 230.617,296.402 229.085,296.402 
		229.085,300.386 225.04,296.316 225.02,296.316 225.02,303.752 226.554,303.752 	"/>
	<path fill="#A7A9AC" d="M270.717,300.122c0,2.116,1.495,3.803,3.298,3.803s3.301-1.687,3.301-3.803c0-2.12-1.498-3.806-3.301-3.806
		S270.717,298.002,270.717,300.122z M275.782,300.122c0,1.11-0.795,2.148-1.768,2.148c-0.969,0-1.767-1.038-1.767-2.148
		c0-1.112,0.798-2.153,1.767-2.153C274.987,297.969,275.782,299.01,275.782,300.122z"/>
	<polygon fill="#A7A9AC" points="205.298,300.438 205.316,300.438 206.792,303.925 206.811,303.925 208.433,300.431 
		208.451,300.431 208.98,303.797 210.525,303.797 208.879,296.316 208.865,296.316 206.859,300.767 204.908,296.316 
		204.894,296.316 203.196,303.797 204.766,303.797 	"/>
	<polygon fill="#A7A9AC" points="286.392,303.752 286.392,298.138 287.881,298.138 287.881,296.486 283.661,296.486 
		283.271,298.138 284.86,298.138 284.86,303.752 	"/>
	<rect x="216.699" y="296.402" fill="#A7A9AC" width="1.533" height="7.35"/>
	<path fill="#A7A9AC" d="M293.415,303.752h1.486l0.624-1.387h2.351l0.631,1.387h1.556l-3.33-7.436h-0.016L293.415,303.752z
		 M297.531,301.021h-1.637l0.822-1.779L297.531,301.021z"/>
	<path fill="#FFFFFF" d="M246.847,256.762c-0.114-0.07-0.939-0.578-1.824-0.963c-0.585-0.257-1.194-0.453-1.631-0.436
		c-1.159,0.046-1.887,1.304-4.77,0.27c-2.393-0.855-2.516-3.37-2.354-4.784c0.061-0.511-0.57-1.156-0.963-1.739
		c-0.52-0.77-0.886-2.04-0.931-2.199c-0.006-0.019-0.009-0.03-0.009-0.03s-1.756,4.02-1.304,6.524
		c0.233,1.279,0.976,2.974,2.718,3.77c-1.874,0.627-4.495,2.283-5.843,5.428c-1.957,4.566-0.644,7.443-0.644,7.443
		s1.339-2.084,3.454-2.918c-0.39,1.126-1.136,3.955-0.302,7.518c0,0,0.723-0.772,1.582-1.479c0.417,1.34,1,2.878,1.829,4.595
		c2.752,5.728,2.099,12.396,4.058,15.44h2.997h0c-0.069-0.134-0.152-0.304-0.238-0.49c-0.4-0.854-0.934-2.211-1.143-3.778
		c-0.043-0.33-0.089-0.647-0.133-0.951c-0.293-1.989-0.583-3.397-0.848-4.084c-0.018-0.05-0.036-0.106-0.055-0.146
		c0.002,0,1.138,0.188,1.881,0.89c0,0,0.002-0.041,0.002-0.116c0-0.021-0.002-0.064-0.002-0.092
		c-0.007-0.64-0.095-2.767-0.975-4.642c-0.83-1.766-0.875-3.352-0.835-4.369c0-0.006,0-0.012,0-0.018
		c0.005,0.012,0.404,0.619,0.945,1.607c0.705,1.286,1.65,3.22,2.291,5.345c0.675,2.242,0.325,5.89,1.474,8.578
		c0.185,0.433,0.399,0.845,0.672,1.217c1.471,2.012,4.043,2.044,4.043,2.044c0.37,0.021,0.708,0.016,1.044,0.01v-0.001
		c0.004-0.004,0.527-0.63,0.54-1.252c0.008-0.508-0.499-1.032-0.499-1.032c-0.02,0-0.041-0.002-0.06-0.003
		c-0.093-0.003-0.188-0.009-0.284-0.015c-0.054-0.004-0.109-0.01-0.165-0.013c-0.087-0.007-0.176-0.015-0.265-0.023
		c-0.071-0.007-0.142-0.017-0.214-0.025c-0.079-0.009-0.158-0.019-0.237-0.029c-0.096-0.015-0.192-0.031-0.288-0.049
		c-0.06-0.009-0.118-0.02-0.177-0.03c-0.319-0.062-0.638-0.145-0.948-0.251c-0.03-0.009-0.057-0.022-0.085-0.032
		c-0.125-0.045-0.249-0.093-0.37-0.146c-0.041-0.018-0.08-0.039-0.12-0.059c-0.106-0.05-0.211-0.103-0.311-0.16
		c-0.045-0.025-0.088-0.054-0.132-0.081c-0.093-0.057-0.183-0.115-0.269-0.181c-0.044-0.032-0.086-0.069-0.129-0.103
		c-0.081-0.066-0.158-0.134-0.232-0.206c-0.042-0.042-0.083-0.084-0.122-0.128c-0.068-0.074-0.13-0.152-0.19-0.233
		c-0.038-0.051-0.074-0.101-0.109-0.152c-0.055-0.085-0.102-0.174-0.149-0.264c-0.031-0.059-0.062-0.118-0.09-0.181
		c-0.039-0.093-0.071-0.191-0.103-0.291c-0.023-0.072-0.048-0.139-0.067-0.214c-0.024-0.1-0.039-0.211-0.056-0.318
		c-0.012-0.085-0.031-0.163-0.037-0.251c-0.009-0.101-0.005-0.212-0.007-0.319c-0.001-0.101-0.009-0.194-0.003-0.301
		c0.159-3.095,0.039-6.449-2.599-11.767c-0.695-1.406-1.305-3.711-1.883-5.656c-0.24-0.809-0.344-1.575-0.353-2.287
		c-0.002-0.297,0.016-0.578,0.043-0.854c0.083-0.827,0.288-1.56,0.549-2.157c0.625-1.436,1.546-2.457,2.7-2.717
		c0.383-0.087,0.794-0.089,1.228,0.006c0.992,0.218,1.687,0.725,2.136,1.178c0.447,0.453,0.647,0.852,0.647,0.852v-0.004
		c0.001-0.025,0.237-3.864-3.403-4.634c0,0-0.002-0.001-0.004-0.001c0.005-0.008,0.247-0.374,0.762-0.683
		c0.017-0.011,0.039-0.02,0.057-0.029c0.089-0.052,0.181-0.101,0.286-0.146c0.04-0.018,0.09-0.031,0.134-0.047
		c0.089-0.033,0.177-0.068,0.276-0.095c0.057-0.016,0.125-0.022,0.185-0.034c0.097-0.02,0.189-0.043,0.295-0.053
		c0.001,0,0.003,0,0.005-0.002c0.127-0.014,0.289-0.021,0.47-0.023c0.023,0,0.049,0,0.073,0c0.185,0,0.389,0.01,0.607,0.033
		c0.008,0,0.014,0,0.022,0C247.969,258.33,247.523,257.566,246.847,256.762z"/>
	<path fill="#FFFFFF" d="M245.137,263.633c-0.007-0.002-0.015-0.006-0.021-0.008c-0.073,0.016-0.141,0.035-0.202,0.055
		c-0.792,0.284-1.413,1.521-1.305,3.916c0.131,2.946,2.111,4.822,3.858,5.26c0,0,0,0,0.001,0c0.001,0,0.001,0.001,0.001,0.001
		c0.29,0.072,0.394,0.031,0.39-0.072c-0.005-0.163-0.289-0.483-0.578-0.771c-0.225-0.227-0.518-0.543-0.759-0.945
		c-0.256-0.428-0.456-0.953-0.456-1.58c0-0.15,0.018-0.3,0.05-0.45c0.005-0.023,0.014-0.044,0.021-0.067
		c0.03-0.121,0.067-0.24,0.116-0.357c0.022-0.055,0.052-0.106,0.079-0.16c0.04-0.08,0.08-0.158,0.129-0.235
		c0.045-0.071,0.097-0.139,0.148-0.207c0.039-0.05,0.077-0.101,0.118-0.148c0.069-0.078,0.145-0.153,0.222-0.223
		c0.032-0.028,0.062-0.058,0.096-0.085c0.094-0.076,0.19-0.146,0.292-0.21c0.023-0.015,0.046-0.028,0.069-0.042
		c0.114-0.064,0.233-0.125,0.357-0.172c0.014-0.006,0.029-0.01,0.046-0.016c0.132-0.049,0.268-0.086,0.407-0.109
		c0.003-0.002,0.004-0.002,0.007-0.002C247.725,265.65,246.274,263.852,245.137,263.633z"/>
	<path fill="#231F20" d="M235.305,249.109c0.393,0.583,1.024,1.229,0.963,1.739c-0.162,1.414-0.039,3.929,2.354,4.784
		c2.883,1.034,3.611-0.224,4.77-0.27c0.437-0.018,1.045,0.179,1.631,0.436c0.885,0.385,1.71,0.893,1.824,0.963
		c0.008,0.006,0.023,0.014,0.023,0.014s-0.576-1.83-3.154-3.806c-2.685-2.065-6.471-3.329-9.351-6.089c0,0,0.003,0.011,0.009,0.03
		C234.418,247.069,234.785,248.34,235.305,249.109z M237.956,251.119l0.998,0.684c0,0-0.312,0.938,0.625,1.373
		c0.932,0.438,1.618-0.189,1.618-0.189l0.814,0.564c0,0-1.192,2.031-3.058,0.621C237.172,252.828,237.956,251.119,237.956,251.119z"
		/>
	<path fill="#FBD238" d="M238.954,254.172c1.866,1.41,3.058-0.621,3.058-0.621l-0.814-0.564c0,0-0.687,0.628-1.618,0.189
		c-0.938-0.435-0.625-1.373-0.625-1.373l-0.998-0.684C237.956,251.119,237.172,252.828,238.954,254.172z"/>
	<path fill="#D65E5E" d="M254.771,281.508c0.122-2.116-0.312-2.926-1.496-2.986c-1.184-0.062-1.745,1.434-1.809,2.052
		c-0.062,0.625-0.31,1.188-0.31,1.188v-0.025c0,0-0.248-0.56-0.312-1.184c-0.062-0.625-0.623-2.117-1.808-2.054
		c-1.184,0.062-1.617,0.871-1.494,2.989c0.125,2.118,1.122,4.61,3.614,4.734v0.024C253.65,286.12,254.646,283.629,254.771,281.508z"
		/>
	<path fill="#005182" d="M245.239,311.459l-0.093,0.02l-0.002,0.098l-0.167,6.114l-0.003,0.127l0.128-0.001
		c2.829-0.042,3.265-2.704,3.316-3.849c0.028-0.6-0.23-1.497-0.874-2.048C246.964,311.422,246.19,311.269,245.239,311.459z
		 M246.124,316.445c0.03-1.176,0.078-2.894,0.108-3.933c0.347,0.047,0.512,0.188,0.587,0.252c0.36,0.309,0.501,0.859,0.487,1.154
		C247.246,315.215,246.847,316.055,246.124,316.445z"/>
	<path fill="#005182" d="M222.018,321.418c-0.965-0.745-2.413-0.691-2.413-0.691v7.331c0,0,1.581,0.177,2.496-0.61
		c0.779-0.666,1.282-1.587,1.339-3.035C223.497,323.057,222.717,321.958,222.018,321.418z M221.375,326.606
		c-0.163,0.138-0.406,0.227-0.66,0.281v-4.891c0.225,0.069,0.446,0.164,0.625,0.301c0.477,0.372,1.03,1.14,0.993,2.068
		C222.278,325.671,221.796,326.247,221.375,326.606z"/>
	<path fill="#005182" d="M222.991,314.449c-0.115-2.844-1.912-2.932-2.913-2.988c-0.093-0.005-0.179-0.011-0.261-0.017l-0.133-0.009
		v0.126v6.081C219.685,317.643,223.132,318.028,222.991,314.449z M220.796,312.66c0.61,0.139,1.03,0.531,1.081,1.834
		c0.029,0.732-0.126,1.264-0.462,1.581c-0.175,0.165-0.394,0.272-0.619,0.343V312.66z"/>
	<path fill="#00A852" d="M206.816,278.864l-0.041,0.07l1.819,3.351c-0.404,0.242-0.926,0.406-1.356,0.512
		c-0.453,0.11-0.805,0.155-0.805,0.155l6.089,10.249h2.181l-1.068-4.948h2.532l-3.291-9.374l1.899-0.251l-3.672-11.437l-5.354,9.855
		l0.976,1.793L206.816,278.864z"/>
	<polygon fill="#00A852" points="191.585,300.558 194.097,293.238 202.443,293.249 198.448,280.954 200.943,280.622 
		196.119,265.598 188.078,280.392 190.487,280.932 183.313,293.228 186.098,293.231 181.987,300.558 	"/>
	<path fill="#00A852" d="M221.871,289.772h-0.002l1.815,3.43h3.071l-1.456-6.746h2.077l-2.702-7.69l1.56-0.21l-3.015-9.385
		l-4.222,7.769l1.604,2.953c-0.307,0.186-0.705,0.312-1.032,0.391c-0.346,0.085-0.615,0.117-0.615,0.117l5.195,8.738
		c-0.548,0.328-1.849,0.563-2.193,0.619C221.91,289.768,221.881,289.771,221.871,289.772z"/>
	<polygon fill="#00A852" points="287.308,278.589 285.55,281.563 281.927,287.661 284.19,288.013 282.693,290.841 281.442,293.202 
		290.375,293.202 290.869,288.26 293.261,288.101 291.8,278.631 293.74,278.375 291.445,267.192 285.386,278.336 	"/>
	<polygon fill="#00A852" points="279.324,269.178 274.359,278.318 275.936,278.522 274.493,280.968 271.519,285.97 273.376,286.262 
		272.147,288.581 269.7,293.201 277.52,293.201 278.236,286.041 280.197,285.91 279.231,278.375 280.822,278.167 	"/>
	<path fill="#00A852" d="M309.842,303.49l3.332-0.051c0,0,1.231-2.054,2.92-2.712l-3.681-7.765l2.466-0.491
		c-1.186-2.19-4.109-8.82-5.381-11.535l2.352-0.314l-5.422-15.024l-7.955,14.643l2.521,0.329l-6.9,12.632l11.796,0.045
		L309.842,303.49z"/>
	<path fill="#005182" d="M323.065,315.707c-1.101-1.036-2.05-1.928-2.538-2.897c-0.267-0.527-0.472-1.78-0.201-2.624
		c0.173-0.529,0.475-0.731,1.081-0.718c0.388,0.009,0.692,0.236,0.847,0.38l0.885,2.908l0.818,2.687l1.243-2.519l2.456-4.973
		l0.325-0.66l-0.478-0.557c-0.133-0.154-3.278-3.727-7.909-2.586c-2.216,0.541-3.836,2.047-4.681,4.297l0.002-0.019l0.177-1.265
		h-1.278h-15.502h-0.938l-0.156,0.928l-1.075,6.396l-1.056-6.393l-0.153-0.931h-0.941h-12.737h-2.293l1.423,1.803l1.135,1.438
		l0.015,1.147c0,0.009,0.005,1.701,0.013,3.996c-1.072-4.992-3.669-8.432-6.781-8.432c-1.392,0-2.729,0.682-3.867,1.974
		c-0.551,0.625-1.045,1.393-1.479,2.262l0.214-1.075l1.036-1.193l1.599-1.842h-2.441h-4.957h-0.999l-0.108,0.996l-0.776,7.306
		l-1.107-3.566l-1.168-3.763l-0.97,3.82l-0.903,3.548l-1.037-7.382l-0.138-0.959h-0.966h-5.077h-2.493l0.831,0.924
		c-0.992-0.61-2.408-0.969-3.953-0.969h-6.229h-0.107l0.005-0.032h-1.278h-11.257h-1.667l0.645,1.541l1.083,2.606l0.011,1.278
		c-1.017-4.895-5.666-5.499-7.125-5.558c-1.431-0.062-3.728,0.009-5.102,0.053l-0.661,0.02l-1.734,0.052
		c0,0,0.001,0.006,0.003,0.008h-0.511h-4.721h-0.935l-0.161,0.918l-1.078,6.084l-1.057-6.08l-0.16-0.922h-0.937h-5.116h-0.925h-1.37
		h-0.498h-5.6l0.247-1.843l0.168-1.261h-1.271H175.22h-1.269l0.166,1.261l0.686,5.143l0.265,1.993l1.546-1.287l2.349-1.949
		l0.055-0.003l0.085,19.552l-1.065,3.32l-0.469,1.45h1.526h5.872h1.528l-0.472-1.453l-1.079-3.348l0.171-19.359l2.157,1.79
		l1.546,1.287l0.267-1.993l0.059-0.463l0.168,0.311l0.086,17.658l-0.886,2.745l-0.47,1.454h1.528h3.026l-0.007,0.009h2.376h5.116
		h1.008l0.101-1l0.671-6.677l2.117,8.204l0.232,0.89h1.682l0.24-0.881l2.28-8.552l0.705,7.016l0.103,1h1.005h4.896v0.012h1.082
		c0.319,0,0.703,0.018,1.112,0.033c2.416,0.096,6.066,0.244,8.365-2.15c0.709-0.739,1.243-1.686,1.598-2.722l0.003,0.471
		l-0.887,2.909l-0.438,1.438h1.503h11.169l-0.003,0.009h1.724h13.808h1.766l-0.765-1.594l-4.981-10.396
		c0.792-0.754,1.957-2.167,2.27-4.209c0.115-0.75,0.161-1.437,0.157-2.063l3.853,18.738l0.194,0.941h1.662l0.279-0.798l2.225-6.301
		l2.217,6.301l0.28,0.798h1.669l0.189-0.952l2.289-11.483c0.067,3.877,0.991,6.95,2.698,8.894c1.242,1.407,2.832,2.152,4.604,2.152
		c1.766,0,3.355-0.745,4.604-2.153c1.034-1.176,1.771-2.773,2.219-4.7c0.006,1.28,0.009,2.244,0.011,2.616l-0.885,2.747
		l-0.471,1.454h1.528h9.602h1.109v-1.113V325.8v-2.097l-1.737,1.177l-3.063,2.08l-0.195,0.005v-16.637l0.644-1.203l1.037,1.241
		l5.77,22.337l0.229,0.89h1.688l0.234-0.881l5.535-20.731l0.075,15.839l-0.884,2.909l-0.439,1.438h1.502h11.267h1.112v-1.113v-0.05
		c0.846,0.843,3.7,3.282,7.645,2.315c4.159-1.022,5.014-4.423,5.295-5.542c0.872-3.482-0.204-5.889-1.237-7.593
		C325.81,318.283,324.352,316.916,323.065,315.707z"/>
	<polygon fill="#FFFFFF" points="175.905,310.313 178.553,308.114 180.128,308.079 180.216,328.938 179.096,332.425 184.97,332.425 
		183.833,328.908 184.016,308.079 185.335,308.114 187.984,310.313 188.667,305.171 175.22,305.171 	"/>
	<polygon fill="#FFFFFF" points="211.052,309.981 212.081,308.276 207.357,308.276 205.178,320.603 203.033,308.276 
		197.917,308.276 199.26,309.978 196.275,329.493 195.083,330.925 194.172,328.112 194.172,310.029 195.124,308.276 189.49,308.276 
		190.424,310.029 190.511,328.139 189.573,331.052 194.978,331.052 194.967,331.064 200.085,331.064 201.38,318.186 
		205.058,332.425 208.914,317.989 210.228,331.064 215.348,331.064 214.035,329.493 	"/>
	<path fill="#FFFFFF" d="M223.556,319.309l-0.192-0.095l0.189-0.11c0.031-0.018,3.146-2.067,2.675-5.71
		c-0.566-4.422-4.356-5.175-6.19-5.253c-1.661-0.071-4.612,0.044-5.685,0.072l1.336,2.688l0.52,20.175
		c2.165,0,6.356,0.637,8.672-1.777c1.424-1.482,2.056-3.956,1.664-6.175C226.342,321.976,225.253,320.174,223.556,319.309z
		 M219.685,311.562v-0.126l0.133,0.009c0.082,0.006,0.167,0.012,0.261,0.017c1.001,0.057,2.797,0.145,2.913,2.988
		c0.141,3.579-3.307,3.193-3.307,3.193V311.562z M222.102,327.447c-0.916,0.787-2.496,0.61-2.496,0.61v-7.331
		c0,0,1.448-0.054,2.413,0.691c0.699,0.54,1.479,1.639,1.423,2.994C223.383,325.86,222.881,326.781,222.102,327.447z"/>
	<polygon fill="#FFFFFF" points="232.059,328.112 232.147,319.811 235.754,321.081 237.398,317.569 232.265,317.569 
		232.145,317.569 232.142,317.45 232.059,311.246 232.058,311.094 232.205,311.126 235.949,311.161 237.773,312.746 
		238.396,308.276 227.142,308.276 228.313,311.08 228.397,327.98 227.458,331.052 238.725,331.052 238.725,325.8 235.391,328.06 	
		"/>
	<path fill="#FFFFFF" d="M249.795,309.417c-0.745-0.68-2.183-1.11-3.788-1.11h-6.23l1.39,2.933l0.124,17.756l-0.938,2.069h5.553
		l-0.915-1.894l-0.161-7.629l0.583-0.106l3.827,7.735l-0.731,1.894h5.652l-5.357-11.175c0,0,2.141-1.429,2.546-4.08
		C251.91,312.11,250.729,310.266,249.795,309.417z M245.101,317.816l-0.128,0.001l0.003-0.127l0.167-6.114l0.002-0.098l0.093-0.02
		c0.952-0.19,1.726-0.037,2.305,0.461c0.643,0.551,0.902,1.448,0.874,2.048C248.366,315.112,247.93,317.774,245.101,317.816z"/>
	<polygon fill="#FFFFFF" points="269.827,308.353 264.87,308.353 263.522,321.02 260.818,312.307 258.523,321.327 256.697,308.353 
		251.62,308.353 252.89,309.767 257.548,332.426 260.818,323.145 264.084,332.426 268.601,309.767 	"/>
	<path fill="#FFFFFF" d="M274.766,308.225c-1.065,0-2.108,0.553-3.029,1.599c-1.956,2.223-3.172,6.398-3.172,10.9
		c0,3.812,0.839,6.78,2.435,8.589c1.024,1.162,2.329,1.776,3.767,1.776c1.44,0,2.739-0.614,3.77-1.776
		c1.591-1.809,2.434-4.776,2.434-8.589C280.969,313.834,278.184,308.225,274.766,308.225z M276.184,326.674
		c-0.391,0.445-0.851,0.685-1.332,0.685c-1.668,0-2.789-3.622-2.789-7.549c0-3.02,0.665-5.724,1.688-6.886
		c0.345-0.393,0.719-0.591,1.102-0.591c0.389,0,0.762,0.198,1.11,0.591c1.022,1.162,1.687,3.866,1.687,6.886
		C277.648,322.497,277.111,325.62,276.184,326.674z"/>
	<polygon fill="#FFFFFF" points="286.375,310.051 287.324,308.276 281.255,308.276 282.625,310.012 282.644,311.539 282.644,311.57 
		282.713,328.139 281.774,331.052 291.374,331.052 291.374,325.8 288.041,328.06 286.375,328.112 	"/>
	<polygon fill="#FFFFFF" points="307.477,328.112 307.563,319.811 311.175,321.081 312.817,317.569 307.684,317.569 
		307.562,317.569 307.561,317.45 307.477,311.246 307.475,311.094 307.624,311.126 311.367,311.161 313.191,312.746 
		313.814,308.276 303.037,308.276 303.039,308.272 298.314,308.272 296.134,321.25 293.992,308.272 288.871,308.272 
		290.182,309.844 296.014,332.425 302.045,309.844 302.749,308.73 303.732,311.08 303.813,327.98 302.876,331.052 314.144,331.052 
		314.144,325.8 310.812,328.06 	"/>
	<path fill="#FFFFFF" d="M319.533,313.312c-0.404-0.799-0.625-2.347-0.264-3.466c0.22-0.693,0.777-1.521,2.163-1.49
		c1.135,0.025,1.812,0.924,1.812,0.924l0.958,3.152l2.457-4.974c0,0-2.774-3.221-6.802-2.234c-3.102,0.766-4,3.492-4.293,5.016
		c-0.245,1.273,0.06,3.226,0.949,4.808c1.619,2.885,5.688,6.217,6.632,8.113c0.585,1.173,1.283,2.885,0.392,4.505
		c-0.341,0.617-1.497,1.549-2.473,1.439c-1.131-0.123-1.811-0.921-1.811-0.921l-0.961-3.149l-2.455,4.972
		c0,0,2.773,3.222,6.799,2.232c3.104-0.761,4.036-2.955,4.48-4.731c0.715-2.858-0.004-4.917-1.11-6.747
		C323.945,317.357,320.733,315.69,319.533,313.312z"/>
	<path fill="#231F20" d="M315.257,328.672l2.039-4.134l1.241-2.515l0.821,2.684l0.879,2.874c0.175,0.146,0.509,0.371,0.944,0.419
		c0.414,0.046,1.195-0.535,1.379-0.871c0.612-1.108,0.135-2.378-0.411-3.478c-0.367-0.738-1.511-1.957-2.616-3.137
		c-1.434-1.533-3.058-3.269-3.989-4.924c-0.604-1.073-0.998-2.366-1.127-3.586l-0.123,0.897l-0.285,2.031l-1.546-1.347l-1.517-1.317
		l-2.342-0.024c0.018,1.167,0.039,3.062,0.056,4.212h4.157h1.748l-0.74,1.581l-1.643,3.513l-0.428,0.912l-0.952-0.335l-2.143-0.754
		l-0.056,5.608l1.859-0.028l3.056-2.074l1.737-1.177v2.097V328.672z"/>
	<path fill="#231F20" d="M274.854,313.443c-0.013,0-0.113,0.034-0.269,0.216c-0.676,0.772-1.408,3.024-1.408,6.15
		c0,4.222,1.246,6.434,1.677,6.434c0.199,0,0.396-0.188,0.501-0.304c0.568-0.649,1.178-3.265,1.178-6.13
		c0-3.129-0.728-5.381-1.401-6.146C274.968,313.48,274.871,313.443,274.854,313.443z"/>
	<polygon fill="#FFFFFF" points="269.827,308.353 264.87,308.353 263.522,321.02 260.818,312.307 258.523,321.327 256.697,308.353 
		251.62,308.353 252.89,309.767 257.548,332.426 260.818,323.145 264.084,332.426 268.601,309.767 	"/>
	<path fill="#231F20" d="M239.294,309.883l-0.422,3.02l-0.281,2.031l-1.548-1.347l-1.515-1.317l-2.342-0.024
		c0.014,1.167,0.04,3.062,0.056,4.212h4.158h1.748l-0.74,1.581l-1.644,3.513l-0.428,0.912l-0.95-0.335l-2.143-0.754l-0.058,5.608
		l1.859-0.028l3.057-2.074l1.737-1.177v2.097v3.705l0.338-0.748l-0.12-17.264L239.294,309.883z"/>
	<path fill="#231F20" d="M214.583,311.179l-1.226-2.47c0,0-0.043-0.09-0.109-0.219l-0.215,0.359l-0.821,1.359l2.818,18.436
		L214.583,311.179z"/>
	<polygon fill="#231F20" points="198.088,310.287 197.044,308.965 196.436,308.193 196.102,308.804 195.285,310.312 
		195.285,327.938 195.355,328.155 	"/>
	<path fill="#231F20" d="M225.249,319.114c0.901,0.75,1.593,1.697,2.002,2.605l-0.03-6.166
		C226.875,317.097,226.033,318.308,225.249,319.114z"/>
	<path fill="#005182" d="M267.137,233.026c2.726-0.315,5.379-0.836,7.47-1.361l-1.32-2.074c3.417-3.24,6.028-5.469,6.289-5.663
		c2.566-2.338,1.996-1.327,2.022-1.325c-0.035-0.001-1.589,9.062-6.049,15.767c2.653,1.249,4.328,3.045,4.328,3.045
		c-0.17-0.015-4.522-0.236-6.87,0.544l0.473,0.233c0.052,0.035,5.893,3.966,8.351,6.638c-1.423-0.041-4.215-0.195-5.621,0.04
		c-0.854,0.14-3.239,0.468-3.239,0.468c0.515,0.48,3.82,3.096,4.449,3.631c3.398,2.895,6.909,6.868,8.855,13.814l0.358,2.182
		c0.149-7.885-3.226-12.812-7.015-16.037c-0.341-0.293-2.297-2.378-2.606-2.656c0,0,4.038-0.271,7.937,0.354
		c-1.326-2.346-6.045-6.689-8.038-7.885c1.924-0.391,5.817-0.31,5.817-0.31c-1.877-3.044-5.544-4.372-5.544-4.372
		c4.177-6.475,6.152-16.859,6.152-16.859c0-0.233-0.121-0.562-0.467-0.725c-0.495-0.232-1.353,0.441-3.964,2.592
		c-0.059,0.043-8.578,6.249-14.199,8.123c-1.109,0.394-2.139,0.809-3.332,1.258c3.321,0.392,6.013,2.541,9.136,3.903
		L267.137,233.026z"/>
	<path fill="#231F20" d="M289.938,175.318c-9.95,9.49-30.101,20.513-39.912,25.345c-9.812-4.832-29.964-15.853-39.913-25.345h-8.058
		c4.325,5.541,12.526,12,24.521,19.285c11.294,6.858,22.042,12.049,22.149,12.101l1.301,0.626l1.301-0.626
		c0.107-0.052,10.855-5.242,22.149-12.101c11.995-7.284,20.196-13.744,24.521-19.285H289.938z"/>
</g>
</svg>
