<?xml version="1.0" encoding="utf-8"?>
<!-- Generator: Adobe Illustrator 16.0.0, SVG Export Plug-In . SVG Version: 6.00 Build 0)  -->
<!DOCTYPE svg PUBLIC "-//W3C//DTD SVG 1.1//EN" "http://www.w3.org/Graphics/SVG/1.1/DTD/svg11.dtd">
<svg version="1.1" id="content" xmlns="http://www.w3.org/2000/svg" xmlns:xlink="http://www.w3.org/1999/xlink" x="0px" y="0px"
	 width="500px" height="500px" viewBox="0 0 500 500" enable-background="new 0 0 500 500" xml:space="preserve">
<g id="bounds">
	<rect x="0.25" y="0.25" fill="none" stroke="#EAEAEA" stroke-miterlimit="10" width="499.5" height="499.5"/>
</g>
<rect id="position" x="0.5" y="0.5" display="none" fill="none" stroke="#000000" width="499" height="499"/>
<g>
	<path opacity="0.5" fill="#212121" enable-background="new    " d="M384.725,375.562l0.644,0.277
		c1.397,0.646,6.243,2.682,12.017,2.682c0.936,0,1.861-0.053,2.758-0.166c3.725-0.447,15.887-3.411,15.887-22.671
		c0-8.501-5.236-15.412-7.488-17.987l-1.42-1.623c0,0,6.717-14.095,8.615-18.083c-1.459-1.72-8.385-9.417-16.273-10.418
		l-2.148-0.205l-7.052-13.324l4.245-0.909c0.777-0.166,1.433-0.327,1.967-0.488c-2.406-4.045-14.133-23.782-14.133-23.782
		s4.436-1.257,4.585-1.302c-2.261-4.164-20.982-38.592-23.235-42.73c-4.412,8.106-17.165,31.561-17.165,31.561
		s-9.978-18.355-13.7-25.199c-1.202,2.207-5.49,10.091-5.49,10.091l-1.473-9.636c-0.471-3.089-1.334-5.97-2.564-8.559
		c-1.537-3.223-4-6.953-7.339-11.091l-5.878-7.315l9.159,2.051c2.626,0.584,4.735,1.43,5.619,1.813
		c-1.038-4.704-3.558-9.146-7.501-13.207l-7.935-8.083l12.265,2.884c-3.416-5.861-7.005-9.114-9.441-10.818l-2.152-1.506
		l0.994-2.431c6.151-15.083,9.272-26.572,9.272-34.148c0-5.315-1.554-6.758-1.955-7.042c-1.727,0.509-8.446,5.082-14.947,9.507
		l-0.352,0.239c-5.052,3.438-10.776,7.338-14.897,9.809c-5.724,3.426-9.957,4.922-12.504,5.572l-2.916,0.75l-0.99-2.844
		c-0.816-2.268-1.248-5.361-1.385-7.505c-0.949,0.711-2.694,2.387-5.305,6.27l-2.641,3.924l-2.752-3.849
		c-2.383-3.311-5.09-5.746-6.152-6.648l0.035,0.605l-0.336,7.873l-4.985-3.765c-2.84-2.14-6.131-4.16-7.545-5.005l0.672,6.445
		l-5.826-3.905c-4.071-2.724-8.604-4.349-10.149-4.858c0.5,1.402,0.923,3.22,1.234,5.296l0.888,6.138l-5.57-2.693
		c-8.428-4.087-23.949-13.71-29.614-17.827c-2.35-1.712-3.759-2.068-4.528-2.068c-0.351,0-0.64,0.069-0.915,0.218
		c-0.947,0.506-1.423,1.938-1.423,4.26l0.024,0.983c0.476,10.751,6.372,27.045,8.888,33.552l0.976,2.535l-2.3,1.437
		c-6.854,4.271-11.616,10.227-12.906,11.942l10.965-0.1l-7.316,5.925c-5.373,4.342-8.495,9.303-9.425,10.91
		c1.707-0.474,3.448-0.818,5.189-1.029l8.155-1.014l-5.219,6.358c-3.44,4.185-5.925,9.251-7.377,15.034
		c-0.383,1.532-0.68,3.136-0.875,4.766L173,241.554l-5.637-10.366c-3.722,6.849-13.702,25.202-13.702,25.202
		s-12.749-23.447-17.165-31.562c-5.051,9.293-19.137,35.201-23.231,42.728c0.145,0.046,4.586,1.304,4.586,1.304
		s-11.729,19.729-14.137,23.779c0.535,0.156,1.185,0.325,1.96,0.488l4.259,0.911l-7.239,13.659H84.277
		c0.652,4.191,4.527,29.072,4.929,31.636l7.508-4.985l0.253,28.719c0,0-3.643,10.441-5.385,15.442h32.12
		c-0.051-0.157-0.956-2.953-0.956-2.953h261.98v0.007H384.725z M327.578,217.151c0.625,1.074,1.178,2.114,1.653,3.111
		c0.318,0.676,0.618,1.378,0.903,2.127l1.723-3.162L327.578,217.151z"/>
	<path fill="#231F20" d="M293.401,299.048c0,2.293,1.647,4.436,3.649,4.436c2.008,0,3.652-2.143,3.652-4.436
		c0-2.297-1.645-4.445-3.652-4.445C295.049,294.603,293.401,296.751,293.401,299.048z"/>
	<path fill="#231F20" d="M189.384,328.728c-0.104-2.691-0.972-3.502-2.23-3.787v7.758c0.467-0.145,0.917-0.366,1.278-0.707
		C189.124,331.335,189.445,330.239,189.384,328.728z"/>
	<polygon fill="#231F20" points="239.398,358.483 241.072,361.944 241.754,363.346 242.228,362.11 243.379,359.148 239.237,350.775 
			"/>
	<path fill="#231F20" d="M239.676,324.636c-0.062,2.145-0.161,5.692-0.223,8.12c1.494-0.807,2.316-2.537,2.442-5.213
		c0.027-0.61-0.263-1.746-1.005-2.382C240.735,325.022,240.393,324.733,239.676,324.636z"/>
	<path fill="#231F20" d="M188.275,344.841c-0.37-0.281-0.824-0.478-1.291-0.621v10.102c0.525-0.115,1.027-0.299,1.363-0.58
		c0.87-0.741,1.866-1.935,1.979-4.625C190.405,347.194,189.261,345.608,188.275,344.841z"/>
	<path fill="#231F20" d="M409.567,329.535c0,0,8.562-17.966,8.586-18.022c-0.044-0.059-0.128-0.17-0.128-0.17
		s-0.395-0.506-0.388-0.493c-0.335-0.424-8.276-10.299-17.915-11.525l-1.104-0.104l-5.256-9.93l1.578-0.339
		c1.941-0.407,3.439-0.899,4.221-1.367c0,0,0.188-0.113,0.297-0.173c-0.063-0.102-13.971-23.494-13.971-23.494l1.529-0.431
		c1.115-0.314,1.99-0.626,2.529-0.898c0,0,0.213-0.104,0.314-0.154c-0.094-0.174-26.067-47.939-26.168-48.13
		c-0.178,0.316-17.167,31.561-17.167,31.561s-13.595-25.01-13.7-25.195c-0.102,0.182-4.373,8.039-4.373,8.039l-0.548-3.576
		c-0.502-3.293-1.425-6.362-2.741-9.129c-1.598-3.355-4.158-7.231-7.595-11.498l-2.184-2.719l3.4,0.762
		c3.019,0.674,5.349,1.734,5.622,1.863c0,0,3.073,1.493,3.287,1.593c-0.077-0.387-0.719-3.583-0.719-3.583
		c-1.041-5.277-3.774-10.229-8.139-14.719l-2.943-3.002l5.787,1.362c0,0,4.025,1.183,4.3,1.262c-0.236-0.419-2.212-3.91-2.212-3.91
		c-3.691-6.508-7.659-10.109-10.338-11.983l-0.801-0.56l0.372-0.9c6.255-15.335,9.425-27.089,9.425-34.931
		c0-6.425-2.146-8.354-3.068-8.881l-0.496-0.283c0,0-0.073-0.048-0.114-0.071c-0.048,0.013-0.688,0.153-0.697,0.153
		c-1.759,0.395-6.139,3.293-15.754,9.842c-5.154,3.512-10.983,7.485-15.149,9.982c-5.492,3.289-9.529,4.722-11.953,5.343
		l-1.076,0.276l-0.368-1.052c-0.753-2.097-1.194-5.209-1.299-7.355c0,0-0.137-2.937-0.149-3.136
		c-0.281,0.178-2.646,1.683-2.646,1.683c-1.702,1.09-3.867,3.541-6.258,7.102l-0.98,1.456l-1.021-1.428
		c-3.197-4.443-6.895-7.356-7.047-7.473c0,0-3.892-3.028-4.154-3.232c0.136,0.551,1.269,5.11,1.269,5.11l0.023,0.016l0.045,0.846
		l-0.165,3.75l-1.852-1.396c-3.539-2.667-7.701-5.117-8.163-5.387c0,0-2.905-1.705-3.105-1.824c0.039,0.389,0.18,1.7,0.18,1.7
		l0.463,4.431l-2.165-1.452c-4.942-3.307-10.555-5.082-11.188-5.274c0,0-3.379-1.008-3.607-1.076c0.149,0.378,1.4,3.496,1.4,3.496
		c0.521,1.315,0.965,3.157,1.291,5.317l0.33,2.28l-2.072-1.004c-8.32-4.033-23.681-13.556-29.3-17.638
		c-3.242-2.362-5.741-3.018-7.635-2.002c-2.51,1.343-2.51,4.911-2.51,6.08l0.025,1.035c0.489,11.119,6.479,27.649,9.026,34.242
		l0.361,0.945l-0.854,0.534c-7.959,4.956-13.226,12.105-13.793,12.898c0,0-2.055,2.921-2.195,3.124
		c0.411-0.028,3.804-0.26,3.808-0.26l5.432-0.05l-2.718,2.201c-6.83,5.52-10.212,12.013-10.248,12.085c0,0-1.864,3.559-1.996,3.804
		c0.438-0.131,4.126-1.225,4.126-1.225c1.754-0.519,3.576-0.904,5.431-1.126l3.03-0.378l-1.938,2.36
		c-3.644,4.436-6.259,9.767-7.786,15.847c-0.395,1.578-0.709,3.266-0.923,5.016l-0.476,3.761c0,0-4.292-7.888-4.392-8.074
		c-0.1,0.187-13.702,25.198-13.702,25.198s-17.061-31.371-17.165-31.562c-0.172,0.318-26.104,48.021-26.163,48.126
		c0.175,0.088,0.316,0.161,0.316,0.161c0.535,0.27,1.406,0.574,2.527,0.893l1.528,0.434c0,0-13.903,23.389-13.968,23.494
		c0.162,0.099,0.297,0.174,0.297,0.174c0.774,0.467,2.272,0.955,4.215,1.367l1.584,0.335l-5.379,10.147H81.857
		c0.021,0.141,5.769,37.025,5.796,37.209c0.25-0.167,7.021-4.659,7.021-4.659l0.216,24.552c0,0-6.169,17.691-6.224,17.85h37.871
		c-0.085-0.251-0.96-2.951-0.96-2.951h258.726l0.246,0.105c1.852,0.854,8.466,3.561,15.836,2.674
		c4.16-0.503,17.713-3.768,17.713-24.729c0-9.195-5.596-16.596-8-19.347L409.567,329.535z M352.762,258.669l-5.207-0.676
		l16.426-30.237l11.197,31.021l-4.855,0.648c2.623,5.605,8.662,19.295,11.111,23.817l-5.092,1.015l7.6,16.035
		c-3.484,1.357-6.029,5.599-6.029,5.599l-6.881,0.105l-8.158-21.15l-24.361-0.093L352.762,258.669z M350.837,306.544h-3.216
		l-1.303-2.863h-4.857l-1.287,2.863h-3.067l6.817-15.354h0.037L350.837,306.544z M333.043,231.047l4.738,23.093l-4.006,0.529
		l3.02,19.557l-4.941,0.326l-1.02,10.207h-18.449l2.586-4.876l3.09-5.838l-4.678-0.729l7.482-12.593l3.631-6.145l-3.97-0.522
		L333.043,231.047z M316.164,294.952l0.805-3.411h8.713v3.411h-3.072v11.592h-3.162v-11.592H316.164z M309.816,269.701l-4.051,0.27
		l-1.479,14.786h-16.148l5.053-9.54l2.537-4.79l-3.832-0.602l6.143-10.328l2.977-5.049l-3.254-0.424l10.254-18.876l3.094,18.562
		l-3.285,0.429L309.816,269.701z M303.863,299.048c0,4.369-3.094,7.854-6.816,7.854c-3.725,0-6.812-3.484-6.812-7.854
		c0-4.377,3.088-7.858,6.812-7.858C300.77,291.189,303.863,294.671,303.863,299.048z M266.555,185.1
		c0.323,1.873,0.938,3.788,1.295,3.196c0.959-1.602,7.031-4.598,7.031-4.598s-2.166,3.77-1.219,3.198
		c1.318-0.782,4.49,0.827,4.49,0.827c-8.959,3.494-16.049,7.525-18.811,12.836C259.03,198.063,266.245,183.23,266.555,185.1z
		 M253.436,297.315v3.175h-3.299v2.882h5.01l-0.782,3.174h-7.388v-15.014h7.219l0.557,3.174h-4.611v2.602h3.299v0.008H253.436z
		 M232.958,291.367v15.53h-0.037l-8.364-8.568v8.215h-3.154v-15.354h0.035l8.35,8.398v-8.221H232.958z M258.603,248.752
		c-1.024-1.671-2.446-2.056-2.446-2.056s0.259-1.295,0.905-1.809c0.64-0.511,1.032-0.903,1.8-0.645c0,0,1.933,0.903,1.933,5.42
		c0,3.474-1.933,4.636-1.933,4.636S259.635,250.427,258.603,248.752z M249.848,270.396v-0.049c-5.146-0.254-7.205-5.4-7.463-9.772
		c-0.256-4.375,0.64-6.05,3.086-6.173c2.445-0.127,3.604,2.954,3.734,4.245c0.132,1.286,0.646,2.442,0.646,2.442v0.054
		c0,0,0.508-1.163,0.639-2.454c0.127-1.277,1.291-4.363,3.737-4.236c2.447,0.124,3.344,1.793,3.09,6.162
		C257.053,264.99,254.997,270.135,249.848,270.396z M253.348,279.518c-0.689,0.845-1.672,0-1.672,0s-0.834,0.7-1.955,0.137
		c-1.108,0.56-1.949-0.137-1.949-0.137s-0.98,0.845-1.678,0c-1.327-1.593-0.42-4.047-0.42-4.047s0.286,2.647,1.961,2.792
		l1.118-1.959l0.968,2.099l0.977-2.099l1.128,1.959c1.675-0.145,1.95-2.792,1.95-2.792S254.683,277.925,253.348,279.518z
		 M240.273,254.294c0,0-1.931-1.162-1.931-4.636c0-4.52,1.931-5.419,1.931-5.419c0.774-0.255,1.161,0.134,1.811,0.648
		c0.64,0.514,0.898,1.809,0.898,1.809s-1.406,0.385-2.45,2.052C239.503,250.427,240.273,254.294,240.273,254.294z M242.046,269.048
		c0,0-0.978,4.561,1.952,4.84c0,0,0.462-0.102,0.462,1.586c0,1.676-1.02,2.375-1.439,2.375c-0.416,0-2.374-0.979-2.374-4.613
		C240.646,271.001,241.479,269.741,242.046,269.048z M243.391,247.062c0.382-0.904,2.577-0.391,3.09,0.645
		c1.028-1.035,2.449-0.522,3.092,0.127c0.647-0.645,2.062-1.159,3.094-0.127c0.508-1.035,2.705-1.549,3.097-0.645
		c0,0,0,2.059-1.303,3.341c0,0-0.762-1.674-1.413-1.804c0,0-1.283,1.676-1.802,2.323l-1.673-2.064l-1.673,2.064
		c-0.518-0.646-1.81-2.323-1.81-2.323c-0.642,0.13-1.421,1.804-1.421,1.804C243.391,249.12,243.391,247.062,243.391,247.062z
		 M255.448,273.888c2.937-0.279,1.956-4.84,1.956-4.84c0.56,0.693,1.4,1.953,1.4,4.184c0,3.639-1.959,4.617-2.372,4.617
		c-0.424,0-1.444-0.703-1.444-2.378C254.988,273.786,255.448,273.888,255.448,273.888z M274.11,199.27l2.056-1.413
		c0,0,1.618,3.531-2.056,6.305c-3.846,2.912-6.316-1.282-6.316-1.282l1.677-1.165c0,0,1.418,1.301,3.351,0.391
		C274.76,201.206,274.11,199.27,274.11,199.27z M268.146,295.824c0-2.967,2.347-4.635,4.657-4.635c1.465,0,2.957,0.642,4.088,1.723
		l-1.736,2.591c-0.725-0.744-1.273-1.139-2.258-1.139c-0.563,0-1.404,0.391-1.404,1.18c0,2.383,5.718,0.834,5.718,6.344
		c0,3.367-2.233,5.014-4.896,5.014c-1.58,0-3.217-0.545-4.424-1.77l1.896-2.854c0.593,0.817,1.444,1.21,2.393,1.21
		c0.659,0,1.682-0.372,1.682-1.329C273.86,299.807,268.146,301.206,268.146,295.824z M178.989,224.585
		c0,0,3.388-17.613,16.875-28.092c0,0,2.484-1.057-12.039-1.326c0,0,6.249-8.258,16.52-12.897c0,0-6.449-1.125-12.083-0.526
		c0,0,4.549-8.746,20.263-11.156l1.253-0.209c-1.011-1.797-3.536-1.056-4.536-2.805c-0.54-0.947,13.826-4.409,13.293-5.346
		c-0.633-1.119-12.78-4.106-13.412-5.197c-0.357-0.631,4.38-2.628,4.023-3.263c-0.335-0.574-2.983-2.01-5.377-3.637
		c-2.375-1.609-4.497-3.415-4.723-3.356c-2.079,0.51,0.653,20.715,0.765,21.793c0.014,0.116-2.081,0.54-2.081,0.54
		c-1.142-1.142-10.48-29.16-8.432-34.101c0.298-0.723,1.534-0.33,6.038,3.105c18.956,14.473,35.436,18.079,35.436,18.079
		c0.472-3.812,0-9.042,0-9.042c7.379,2.854,11.659,10.945,11.659,10.945l0.246-0.712c1.105-3.359,1.418-8.093,1.418-8.093
		c3.571,2.144,7.022,7.897,7.022,7.897s1.159,11.604-1.812,17.775c-1.682,3.512-7.299,5.72-12.346,5.427
		c0,0,1.364,1.821,3.461,3.336c1.268,0.922,3.696,1.855,3.696,1.855s-4.441,3.207-14.566,0.984c-0.909,0.1,5.024,5.926,13.586,9.57
		c4.103,1.746,6.116,8.412,0.776,8.463c0,0,4.382,5.004,4.784,8.638l0.678,3.618c-1.633-2.285-4.016-3.048-5.924-3.249
		c-0.451-0.046-0.871-0.069-1.254-0.069c-0.051,0-0.105,0-0.151,0c-0.372,0.004-0.707,0.023-0.97,0.047
		c-0.003,0.004-0.008,0.004-0.013,0.004c-0.216,0.023-0.407,0.068-0.608,0.11c-0.123,0.027-0.262,0.042-0.381,0.071
		c-0.204,0.052-0.386,0.129-0.571,0.195c-0.088,0.034-0.193,0.061-0.273,0.098c-0.217,0.094-0.408,0.195-0.594,0.301
		c-0.035,0.021-0.081,0.039-0.116,0.06c-1.065,0.64-1.562,1.392-1.573,1.411c0.002,0,0.007,0.002,0.007,0.002
		c1.49-0.228,2.373-0.411,4.934,0.446c8.228,2.767,7.157,14.019,7.673,15.828c0.008-0.034-2.118-1.526-5.027-1.526
		c-0.264,0-0.517,0.045-0.77,0.088c-0.291,0.049-0.568,0.13-0.841,0.227c-0.035,0.013-0.067,0.02-0.096,0.031
		c-0.256,0.102-0.5,0.224-0.738,0.36c-0.047,0.027-0.092,0.052-0.141,0.085c-0.214,0.128-0.412,0.277-0.604,0.435
		c-0.07,0.054-0.131,0.117-0.199,0.173c-0.157,0.142-0.314,0.301-0.455,0.463c-0.089,0.098-0.166,0.203-0.246,0.305
		c-0.106,0.139-0.215,0.281-0.305,0.427c-0.103,0.157-0.184,0.318-0.267,0.483c-0.054,0.113-0.115,0.215-0.163,0.331
		c-0.102,0.238-0.178,0.484-0.24,0.734c-0.012,0.05-0.03,0.093-0.043,0.14c-0.065,0.309-0.104,0.619-0.104,0.93
		c0,1.295,0.411,2.379,0.943,3.264c0.496,0.83,1.101,1.482,1.565,1.951c0.596,0.589,1.181,1.25,1.193,1.591
		c0.008,0.216-0.206,0.301-0.803,0.147c0,0,0,0-0.003,0c0,0,0,0-0.001,0c-3.608-0.906-7.696-4.778-7.965-10.862
		c-0.225-4.948,1.06-7.503,2.693-8.085c0.125-0.045,0.267-0.081,0.415-0.118c0.017,0.005,0.033,0.013,0.044,0.017
		c2.877-0.678,6.583,1.707,6.583,1.707l-0.004-0.009v0.008c0,0-0.414-0.819-1.337-1.763c-0.929-0.936-2.361-1.98-4.411-2.432
		c-0.896-0.195-1.746-0.191-2.536-0.012c-2.384,0.535-4.283,2.645-5.574,5.609c-0.542,1.234-0.964,2.746-1.133,4.455
		c-0.062,0.57-0.098,1.151-0.089,1.764c0.017,1.469,0.23,3.053,0.728,4.724c1.191,4.013,2.454,8.776,3.888,11.676
		c5.447,10.979,5.696,17.911,5.366,24.301c-0.012,0.218,0.004,0.414,0.009,0.622c0,0.22-0.005,0.452,0.012,0.66
		c0.013,0.181,0.052,0.342,0.077,0.516c0.035,0.22,0.066,0.453,0.116,0.656c0.041,0.154,0.089,0.297,0.138,0.445
		c0.065,0.205,0.133,0.404,0.213,0.601c0.057,0.127,0.126,0.249,0.187,0.372c0.097,0.188,0.192,0.37,0.306,0.545
		c0.073,0.108,0.149,0.212,0.226,0.313c0.126,0.169,0.255,0.331,0.395,0.479c0.077,0.09,0.162,0.182,0.251,0.264
		c0.153,0.149,0.311,0.293,0.48,0.426c0.084,0.069,0.173,0.146,0.267,0.215c0.178,0.133,0.362,0.258,0.555,0.374
		c0.088,0.056,0.177,0.118,0.272,0.169c0.205,0.118,0.422,0.227,0.641,0.329c0.085,0.042,0.166,0.085,0.25,0.122
		c0.248,0.11,0.504,0.207,0.762,0.301c0.059,0.022,0.118,0.047,0.178,0.068c0.642,0.217,1.299,0.389,1.957,0.516
		c0.12,0.026,0.241,0.045,0.366,0.062c0.198,0.038,0.395,0.07,0.593,0.102c0.163,0.021,0.328,0.046,0.49,0.06
		c0.147,0.019,0.296,0.038,0.441,0.05c0.183,0.021,0.367,0.037,0.551,0.047c0.113,0.01,0.226,0.021,0.339,0.03
		c0.201,0.013,0.393,0.024,0.584,0.03c0.473,0.021,0.924,0.029,1.332,0.029c6.646,0,8.975-3.871,9.357-9.057
		c0.442-5.986-0.573-13.221,5.363-23.765c2.258-3.984-1.89,3.09-2.158,14.481c-0.258,10.855-0.043,22.762-13.854,23.034v0.001
		c-0.693,0.013-1.394,0.025-2.156-0.021c0,0-5.309-0.065-8.348-4.222c-0.561-0.768-1.005-1.617-1.388-2.513
		c-2.372-5.552-1.65-13.085-3.044-17.714c-1.32-4.389-3.272-8.383-4.73-11.039c-1.116-2.036-1.938-3.295-1.95-3.314
		c0,0.011,0,0.023,0,0.035c-0.081,2.102,0.008,5.376,1.723,9.022c1.819,3.872,2,8.265,2.015,9.587c0,0.055,0.004,0.143,0.004,0.189
		c0,0.153-0.004,0.238-0.004,0.238c-1.536-1.448-3.883-1.838-3.887-1.838c0.041,0.084,0.081,0.199,0.115,0.301
		c0.551,1.422,1.148,4.33,1.752,8.435c0.089,0.63,0.183,1.282,0.275,1.963c0.431,3.237,1.532,6.038,2.359,7.803
		c0.177,0.386,0.349,0.735,0.491,1.011l0,0c0,0,0,0,0,0.004h-16.402l-6.012-11.352h0.006c0.012,0,0.066-0.01,0.142-0.026
		c0.584-0.097,2.791-0.489,3.714-1.044l-8.8-14.816c0,0,0.451-0.055,1.038-0.197c0.56-0.131,1.23-0.348,1.757-0.664l-16.103-29.617
		l-10.924,20.086l-2.875-5.307l-1.707-3.376C176.651,238.447,177.665,229.192,178.989,224.585z M183.347,258.323
		c0,0,0.56-0.066,1.269-0.242c0.679-0.164,1.499-0.424,2.135-0.807l-3.314-6.099l8.719-16.045l6.226,19.381l-3.222,0.435
		l5.58,15.877h-4.29l3.007,13.931h-6.341l-3.748-7.083h0.004c0.021-0.004,0.081-0.013,0.174-0.033
		c0.713-0.115,3.396-0.6,4.529-1.278L183.347,258.323z M195.876,291.189h0.041l8.352,8.398v-8.221h3.165v15.53h-0.038l-8.354-8.568
		v8.215h-3.166V291.189z M181.856,291.367v15.177h-3.164v-15.177H181.856z M167.136,231.047l7.583,23.615l-3.922,0.52l6.797,19.356
		h-5.229l2.206,10.219h-4.503l-12.575-21.164c0,0,0.729-0.093,1.662-0.321c0.892-0.218,1.968-0.557,2.8-1.057l-3.756-6.921
		l0.084-0.144l-0.185-0.05l-2.017-3.703L167.136,231.047z M154.314,291.189h0.03l4.026,9.188l4.146-9.188h0.027l3.398,15.444h-3.191
		l-1.091-6.95h-0.038l-3.351,7.214h-0.039l-3.047-7.197h-0.038l-1.1,6.934h-3.243L154.314,291.189z M109.751,284.813l14.814-25.394
		l-4.975-1.112l16.604-30.552l9.96,31.024l-5.15,0.687l8.247,25.389l-17.233-0.022l-5.188,15.113h-19.822l8.49-15.129
		L109.751,284.813z"/>
	<polygon fill="#231F20" points="342.23,300.906 345.61,300.906 343.929,297.229 	"/>
	<path fill="#A7A9AC" d="M397.403,378.48c-6.149,0-11.343-1.829-13.894-2.921l-252.304-0.033l0.966,2.947H82.898
		c1.142-3.271,7.024-20.139,7.861-22.545l-0.126-16.361l-6.052,4.021l-7.52-48.239h21.912l1.805-3.405l-0.434-0.17
		c-0.568-0.217-1.039-0.439-1.436-0.678l-3.791-2.269l13.482-22.676l-3.902-1.948l31.786-58.454l17.163,31.56l13.701-25.202
		l2.465,4.521l0.295-0.907c0.806-2.45,1.812-4.827,2.997-7.069l0.458-0.87l-11.398,3.386l4.856-9.285
		c0.759-1.443,1.255-2.385,1.63-3.004l0.235-0.385l-0.064-0.033c0.521-0.943,2.088-3.617,4.762-6.781l0.625-0.744l-6.486,0.438
		l1.989-2.828c3.742-5.325,4.808-6.839,5.163-7.32l0.207-0.286l-0.007-0.005c1.094-1.473,5.663-7.344,12.52-12.186l0.26-0.184
		l-0.11-0.298c-2.926-7.844-7.906-22.579-8.377-33.106l-0.03-1.172c0-4.795,1.571-8.073,4.672-9.729
		c1.187-0.635,2.474-0.956,3.815-0.956c2.477,0,5.146,1.062,8.164,3.25c3.928,2.858,13.648,9.021,21.852,13.638l1.02,0.575
		l-3.88-9.69l3.276,0.977c6.359,1.894,7.998,2.384,8.479,2.536l0.335,0.107l0.003-0.007c0.933,0.297,3.342,1.116,6.223,2.48
		l0.664,0.315l-0.64-6.017l10.101,5.914c0.427,0.252,1.114,0.665,1.97,1.198l0.866,0.538l-2.917-11.648
		c3.191,2.48,13.379,10.4,13.518,10.509c0.587,0.463,2.697,2.188,5.102,4.895l0.325,0.367l0.306-0.384
		c1.787-2.249,3.382-3.803,4.873-4.748l8.58-5.487l0.5,10.184c0.043,0.918,0.148,1.945,0.311,2.969l0.076,0.509l0.477-0.186
		c2.378-0.925,4.948-2.204,7.633-3.811c4.064-2.433,9.832-6.368,14.922-9.843c11.578-7.882,14.76-9.927,17.199-10.463l2.217-0.5
		c0,0,1.801,1.019,2.002,1.139l0.34,0.205l0.002-0.004c1.934,1.251,4.795,4.426,4.795,12.232c0,7.945-2.967,19.438-8.811,34.157
		l-0.111,0.276l0.23,0.191c2.466,2.067,6.12,5.78,9.496,11.736l7.199,12.708l-7.289-2.148l0.492,0.883
		c1.578,2.832,2.676,5.788,3.266,8.778c0.359,1.792,0.506,2.551,0.571,2.909l1.632,8.221l13.325,24.545l17.165-31.556l31.791,58.464
		l-3.904,1.941l3.069,5.162c5.387,9.066,7.405,12.455,8.07,13.738l0.212,0.397l0.088-0.055l2.035,3.436l-3.795,2.263
		c-0.383,0.229-0.854,0.454-1.434,0.678l-0.433,0.17l1.851,3.488l0.195,0.036c10.848,2.069,19.323,12.729,19.408,12.838l2.102,2.679
		l-8.555,17.941l0.156,0.203c3.486,4.456,7.639,11.607,7.639,20.355c0,24.333-16.312,28.189-21.314,28.793
		C399.754,378.412,398.586,378.48,397.403,378.48z M384.725,369.776l0.475,0.246c1.375,0.633,6.339,2.715,12.184,2.715
		c0.964,0,1.907-0.057,2.806-0.17c3.81-0.458,16.253-3.477,16.253-23.082c0-8.648-5.311-15.65-7.592-18.261l-1.242-1.417
		l8.613-18.082l-0.174-0.203c-1.339-1.582-8.445-9.533-16.537-10.561l-1.938-0.184l-6.691-12.646l3.711-0.797
		c0.791-0.166,1.458-0.333,2.001-0.497l0.506-0.153l-14.13-23.771c1.176-0.334,3.959-1.123,4.076-1.158l0.484-0.147l-23.84-43.845
		l-17.163,31.562l-13.704-25.197l-5.264,9.678l-1.289-8.422c-0.475-3.129-1.352-6.045-2.6-8.67
		c-1.557-3.263-4.041-7.019-7.391-11.175l-5.139-6.396l8.008,1.791c2.627,0.585,4.755,1.447,5.547,1.791l0.739,0.321l-0.173-0.789
		c-1.053-4.784-3.614-9.294-7.609-13.406l-6.938-7.066l11.812,2.777l-0.48-0.83c-3.467-5.941-7.112-9.234-9.564-10.948l-1.877-1.315
		l0.869-2.125c6.17-15.133,9.303-26.674,9.303-34.307c0-5.451-1.633-7.024-2.133-7.377l-0.16-0.116l-0.195,0.055
		c-1.786,0.527-8.235,4.916-15.062,9.562l-0.351,0.239c-5.115,3.484-10.799,7.351-14.879,9.796
		c-5.685,3.404-9.877,4.886-12.393,5.526l-2.548,0.655l-0.866-2.485c-0.797-2.217-1.227-5.273-1.363-7.396l-0.047-0.763
		l-0.611,0.456c-1.025,0.768-2.795,2.494-5.398,6.369l-2.31,3.433l-2.403-3.363c-2.418-3.356-5.158-5.823-6.225-6.726l-0.732-0.619
		l0.084,1.562l-0.301,7.047l-4.357-3.29c-2.905-2.194-6.27-4.248-7.58-5.031l-0.708-0.421l0.663,6.388l-5.09-3.414
		c-4.054-2.713-8.518-4.337-10.253-4.908l-0.8-0.264l0.285,0.796c0.485,1.365,0.904,3.17,1.214,5.218l0.773,5.368l-4.87-2.357
		c-8.398-4.071-23.89-13.677-29.553-17.787c-2.434-1.775-3.937-2.149-4.771-2.149c-0.413,0-0.776,0.087-1.111,0.266
		c-1.104,0.592-1.64,2.103-1.64,4.624l0.024,0.991c0.48,10.835,6.397,27.171,8.916,33.69l0.853,2.217l-2.008,1.26
		c-6.915,4.305-11.713,10.306-13.02,12.042l-0.505,0.669l10.616-0.095l-6.397,5.181c-5.48,4.43-8.67,9.557-9.522,11.023
		l-0.504,0.875l0.972-0.271c1.686-0.464,3.413-0.807,5.131-1.017l7.13-0.885l-4.561,5.557c-3.479,4.233-5.987,9.344-7.458,15.195
		c-0.389,1.553-0.688,3.17-0.888,4.816l-1.121,8.849l-5.384-9.908l-13.704,25.202l-17.164-31.563l-23.834,43.841l0.483,0.148
		c0.114,0.034,2.9,0.823,4.076,1.158l-14.133,23.775l0.512,0.148c0.541,0.162,1.201,0.331,1.989,0.496l3.723,0.799l-6.866,12.954
		H83.794l5.102,32.75l7.409-4.918l0.246,27.956l-5.55,15.854h33.26c0,0-0.687-2.133-0.95-2.954h261.414V369.776z M327.222,211.163
		c0.615,1.057,1.163,2.096,1.636,3.081c0.314,0.663,0.61,1.357,0.891,2.097l0.318,0.84l2.359-4.334l-5.887-2.857L327.222,211.163z"
		/>
	<path fill="#A7A9AC" d="M181.231,247.13l10.924-20.089l16.103,29.62c-0.524,0.314-1.197,0.529-1.757,0.662
		c-0.586,0.137-1.039,0.202-1.039,0.202l8.801,14.81c-0.927,0.557-3.131,0.951-3.715,1.049c-0.073,0.016-0.128,0.023-0.141,0.023
		h-0.004l6.01,11.352h16.402c0-0.002,0-0.002,0-0.002h-6.188c-4.044-6.287-2.696-20.057-8.38-31.883
		c-1.714-3.547-2.916-6.723-3.778-9.49c-1.773,1.458-3.268,3.054-3.268,3.054c-1.722-7.354-0.177-13.199,0.626-15.524
		c-4.368,1.723-7.133,6.026-7.133,6.026s-2.713-5.942,1.329-15.371c2.785-6.493,8.194-9.913,12.066-11.208
		c-3.597-1.644-5.13-5.143-5.613-7.783c-0.933-5.172,2.693-13.475,2.693-13.475c5.947,5.7,13.765,8.312,19.309,12.574
		c5.324,4.081,6.514,7.861,6.514,7.861s-0.03-0.016-0.046-0.028c1.395,1.661,2.315,3.235,2.557,4.088c-0.018,0-0.032,0-0.045,0
		c1.909,0.205,4.292,0.964,5.923,3.248l-0.677-3.617c-0.399-3.637-4.784-8.638-4.784-8.638c5.341-0.047,3.325-6.717-0.776-8.465
		c-8.562-3.644-14.495-9.468-13.586-9.569c10.126,2.224,14.566-0.984,14.566-0.984s-2.428-0.934-3.694-1.854
		c-2.1-1.514-3.463-3.338-3.463-3.338c5.048,0.294,10.663-1.912,12.346-5.426c2.968-6.172,1.812-17.775,1.812-17.775
		s-3.451-5.753-7.021-7.896c0,0-0.31,4.731-1.418,8.094l-0.246,0.711c0,0-4.281-8.09-11.659-10.946c0,0,0.472,5.232,0,9.043
		c0,0-16.477-3.608-35.437-18.08c-4.504-3.437-5.739-3.828-6.037-3.105c-2.05,4.939,7.287,32.96,8.431,34.102
		c0,0,2.099-0.426,2.083-0.54c-0.111-1.079-2.843-21.283-0.766-21.793c0.226-0.059,2.347,1.747,4.722,3.356
		c2.395,1.63,5.042,3.061,5.379,3.637c0.355,0.633-4.382,2.632-4.025,3.262c0.632,1.091,12.779,4.08,13.412,5.197
		c0.533,0.938-13.833,4.396-13.293,5.347c1.001,1.751,3.524,1.011,4.535,2.804l-1.253,0.21
		c-15.713,2.41-20.262,11.156-20.262,11.156c5.635-0.6,12.084,0.526,12.084,0.526c-10.271,4.639-16.521,12.896-16.521,12.896
		c14.524,0.271,12.038,1.326,12.038,1.326c-13.485,10.479-16.873,28.093-16.873,28.093c-1.325,4.604-2.338,13.857-2.338,13.857
		l1.706,3.381L181.231,247.13z"/>
	<path fill="#A7A9AC" d="M243.992,225.396l0.006,0.009c0,0-3.704-2.389-6.58-1.707c2.347,0.451,5.344,4.166,6.372,6.962
		c-0.004,0-0.008,0-0.014,0.004c0.256-0.045,0.506-0.089,0.77-0.089c2.908,0,5.034,1.496,5.026,1.525
		c-0.518-1.809,0.556-13.061-7.669-15.828c-2.566-0.856-3.445-0.674-4.936-0.446C244.484,217.416,243.996,225.345,243.992,225.396z"
		/>
	<path fill="#A7A9AC" d="M250.705,284.243c-0.028,1.283-1.107,2.576-1.115,2.585c13.812-0.271,13.594-12.179,13.853-23.034
		c0.269-11.392,4.416-18.465,2.16-14.481c-5.938,10.54-4.923,17.774-5.366,23.765c-0.387,5.186-2.711,9.058-9.357,9.058
		c-0.403,0-0.855-0.01-1.327-0.03c0.038,0.003,0.079,0.007,0.123,0.007C249.675,282.111,250.722,283.191,250.705,284.243z"/>
	<path fill="#A7A9AC" d="M278.153,187.724c0,0-3.173-1.609-4.491-0.827c-0.947,0.571,1.219-3.198,1.219-3.198
		s-6.072,2.996-7.031,4.598c-0.356,0.592-0.972-1.323-1.295-3.196c-0.31-1.869-7.528,12.961-7.213,15.458
		C262.105,195.247,269.193,191.218,278.153,187.724z"/>
	<path fill="#FBD238" d="M272.824,202.104c-1.936,0.905-3.353-0.391-3.353-0.391l-1.678,1.165c0,0,2.47,4.194,6.317,1.282
		c3.673-2.773,2.055-6.305,2.055-6.305l-2.055,1.413C274.11,199.27,274.76,201.206,272.824,202.104z"/>
	<path fill="#FFFFFF" d="M242.982,246.696c0,0-0.259-1.295-0.898-1.809c-0.649-0.511-1.041-0.903-1.811-0.645
		c0,0-1.931,0.903-1.931,5.42c0,3.474,1.931,4.636,1.931,4.636s-0.771-3.869,0.263-5.547
		C241.576,247.081,242.982,246.696,242.982,246.696z"/>
	<path fill="#FFFFFF" d="M243.021,277.849c0.42,0,1.439-0.703,1.439-2.378c0-1.685-0.462-1.583-0.462-1.583
		c-2.929-0.283-1.952-4.844-1.952-4.844c-0.562,0.697-1.399,1.953-1.399,4.184C240.646,276.87,242.604,277.849,243.021,277.849z"/>
	<path fill="#FFFFFF" d="M260.794,249.658c0-4.52-1.933-5.419-1.933-5.419c-0.768-0.255-1.162,0.134-1.8,0.648
		c-0.646,0.514-0.905,1.809-0.905,1.809s1.422,0.385,2.446,2.052c1.032,1.676,0.259,5.546,0.259,5.546
		S260.794,253.131,260.794,249.658z"/>
	<path fill="#FFFFFF" d="M246.091,248.599c0,0,1.294,1.676,1.812,2.323l1.67-2.064l1.676,2.064c0.519-0.646,1.801-2.323,1.801-2.323
		c0.646,0.13,1.415,1.804,1.415,1.804c1.304-1.282,1.304-3.341,1.304-3.341c-0.393-0.904-2.59-0.391-3.098,0.645
		c-1.033-1.035-2.448-0.522-3.094,0.127c-0.646-0.645-2.067-1.159-3.096-0.127c-0.513-1.035-2.707-1.549-3.09-0.645
		c0,0,0,2.059,1.282,3.341C244.673,250.402,245.452,248.733,246.091,248.599z"/>
	<path fill="#FFFFFF" d="M251.818,278.263l-1.125-1.959l-0.978,2.099l-0.969-2.099l-1.119,1.959
		c-1.677-0.145-1.961-2.792-1.961-2.792s-0.905,2.454,0.42,4.047c0.7,0.845,1.676,0,1.676,0s0.846,0.7,1.95,0.137
		c1.121,0.56,1.956-0.137,1.956-0.137s0.985,0.845,1.674,0c1.333-1.593,0.429-4.047,0.429-4.047S253.494,278.118,251.818,278.263z"
		/>
	<path fill="#FFFFFF" d="M256.433,277.849c0.413,0,2.372-0.983,2.372-4.617c0-2.23-0.84-3.49-1.4-4.184c0,0,0.98,4.561-1.956,4.84
		c0,0-0.464-0.102-0.464,1.586C254.988,277.149,256.009,277.849,256.433,277.849z"/>
	<polygon fill="#A7A9AC" points="254.747,294.71 254.195,291.541 246.977,291.541 246.977,306.55 254.364,306.55 255.146,303.375 
		250.137,303.375 250.137,300.49 253.436,300.49 253.436,297.315 250.137,297.315 250.137,294.71 	"/>
	<polygon fill="#A7A9AC" points="221.438,291.189 221.403,291.189 221.403,306.544 224.558,306.544 224.558,298.329 
		232.921,306.901 232.958,306.901 232.958,291.367 229.787,291.367 229.787,299.593 	"/>
	<path fill="#A7A9AC" d="M272.179,303.487c-0.948,0-1.8-0.393-2.393-1.21l-1.896,2.854c1.207,1.227,2.844,1.767,4.424,1.767
		c2.662,0,4.896-1.645,4.896-5.014c0-5.509-5.718-3.959-5.718-6.344c0-0.788,0.837-1.177,1.404-1.177
		c0.984,0,1.533,0.389,2.258,1.137l1.736-2.589c-1.131-1.083-2.623-1.723-4.088-1.723c-2.311,0-4.657,1.669-4.657,4.635
		c0,5.38,5.719,3.983,5.719,6.331C273.86,303.115,272.838,303.487,272.179,303.487z"/>
	<polygon fill="#A7A9AC" points="199.042,298.329 207.396,306.901 207.434,306.901 207.434,291.367 204.269,291.367 
		204.269,299.593 195.917,291.189 195.876,291.189 195.876,306.544 199.042,306.544 	"/>
	<path fill="#A7A9AC" d="M290.239,299.048c0,4.369,3.087,7.854,6.812,7.854c3.723,0,6.816-3.484,6.816-7.854
		c0-4.377-3.094-7.858-6.816-7.858C293.326,291.189,290.239,294.671,290.239,299.048z M300.699,299.048
		c0,2.293-1.643,4.436-3.652,4.436c-2.002,0-3.649-2.143-3.649-4.436c0-2.297,1.647-4.445,3.649-4.445
		C299.057,294.603,300.699,296.751,300.699,299.048z"/>
	<polygon fill="#A7A9AC" points="155.148,299.7 155.186,299.7 158.234,306.901 158.275,306.901 161.622,299.688 161.66,299.688 
		162.751,306.638 165.942,306.638 162.544,291.189 162.517,291.189 158.371,300.381 154.345,291.189 154.314,291.189 
		150.809,306.638 154.052,306.638 	"/>
	<polygon fill="#A7A9AC" points="322.609,306.544 322.609,294.952 325.682,294.952 325.682,291.541 316.969,291.541 
		316.164,294.952 319.443,294.952 319.443,306.544 	"/>
	<rect x="178.692" y="291.367" fill="#A7A9AC" width="3.164" height="15.177"/>
	<path fill="#A7A9AC" d="M337.11,306.544h3.067l1.291-2.863h4.854l1.303,2.863h3.212l-6.876-15.354h-0.032L337.11,306.544z
		 M345.61,300.906h-3.38l1.693-3.675L345.61,300.906z"/>
	<path fill="#FFFFFF" d="M240.947,209.51c-0.234-0.146-1.938-1.194-3.768-1.988c-1.206-0.53-2.464-0.937-3.367-0.899
		c-2.392,0.094-3.896,2.691-9.85,0.557c-4.94-1.767-5.193-6.958-4.86-9.878c0.126-1.058-1.177-2.389-1.987-3.592
		c-1.075-1.59-1.831-4.214-1.924-4.54c-0.013-0.04-0.018-0.063-0.018-0.063s-3.629,8.3-2.693,13.472
		c0.48,2.641,2.015,6.143,5.61,7.785c-3.867,1.295-9.28,4.715-12.063,11.21c-4.04,9.429-1.331,15.368-1.331,15.368
		s2.765-4.303,7.133-6.025c-0.804,2.326-2.345,8.168-0.623,15.526c0,0,1.493-1.593,3.268-3.053c0.858,2.766,2.064,5.942,3.774,9.489
		c5.684,11.829,4.336,25.597,8.381,31.883h6.189l0,0c-0.144-0.279-0.314-0.629-0.492-1.013c-0.824-1.763-1.931-4.565-2.361-7.8
		c-0.089-0.682-0.182-1.334-0.274-1.965c-0.604-4.105-1.202-7.014-1.75-8.433c-0.037-0.102-0.075-0.218-0.113-0.302
		c0.004,0,2.35,0.387,3.884,1.838c0,0,0.004-0.084,0.004-0.237c0-0.046-0.004-0.133-0.004-0.19
		c-0.014-1.324-0.198-5.716-2.013-9.588c-1.714-3.648-1.808-6.924-1.727-9.021c0-0.013,0-0.025,0-0.037
		c0.013,0.024,0.835,1.276,1.952,3.316c1.456,2.654,3.408,6.647,4.732,11.036c1.395,4.629,0.671,12.165,3.044,17.713
		c0.382,0.897,0.823,1.749,1.388,2.513c3.037,4.158,8.349,4.225,8.349,4.225c0.763,0.043,1.461,0.031,2.156,0.021v-0.004
		c0.008-0.008,1.088-1.3,1.112-2.585c0.018-1.053-1.028-2.132-1.028-2.132c-0.045,0-0.084-0.004-0.125-0.005
		c-0.193-0.007-0.389-0.019-0.584-0.032c-0.115-0.009-0.228-0.021-0.344-0.029c-0.179-0.014-0.36-0.03-0.548-0.044
		c-0.147-0.017-0.293-0.036-0.441-0.052c-0.164-0.02-0.327-0.038-0.488-0.058c-0.199-0.034-0.399-0.063-0.598-0.1
		c-0.123-0.023-0.242-0.045-0.365-0.065c-0.658-0.129-1.316-0.3-1.957-0.516c-0.061-0.021-0.118-0.047-0.174-0.066
		c-0.259-0.095-0.517-0.191-0.766-0.301c-0.085-0.04-0.166-0.081-0.246-0.125c-0.221-0.105-0.437-0.213-0.645-0.331
		c-0.093-0.048-0.182-0.11-0.271-0.167c-0.194-0.119-0.379-0.236-0.557-0.373c-0.089-0.066-0.178-0.144-0.267-0.215
		c-0.165-0.137-0.327-0.277-0.478-0.426c-0.087-0.085-0.172-0.174-0.253-0.263c-0.141-0.153-0.268-0.314-0.391-0.484
		c-0.081-0.104-0.153-0.206-0.226-0.31c-0.113-0.177-0.211-0.36-0.309-0.549c-0.063-0.121-0.128-0.24-0.187-0.372
		c-0.08-0.192-0.146-0.396-0.21-0.601c-0.05-0.15-0.102-0.288-0.14-0.443c-0.051-0.205-0.081-0.437-0.115-0.658
		c-0.024-0.174-0.064-0.335-0.076-0.516c-0.021-0.21-0.013-0.439-0.017-0.657c0-0.21-0.017-0.401-0.004-0.622
		c0.326-6.392,0.08-13.316-5.369-24.299c-1.436-2.904-2.693-7.663-3.887-11.68c-0.496-1.672-0.711-3.252-0.73-4.725
		c-0.004-0.611,0.034-1.191,0.089-1.762c0.173-1.706,0.597-3.223,1.134-4.453c1.29-2.965,3.193-5.073,5.576-5.612
		c0.792-0.179,1.639-0.183,2.536,0.015c2.047,0.451,3.482,1.499,4.409,2.432c0.925,0.937,1.336,1.761,1.336,1.761v-0.009
		c0.004-0.05,0.492-7.979-7.025-9.568c0,0-0.005-0.004-0.009-0.004c0.01-0.016,0.51-0.77,1.572-1.407
		c0.037-0.026,0.081-0.045,0.118-0.06c0.186-0.109,0.374-0.213,0.593-0.304c0.081-0.036,0.185-0.064,0.273-0.096
		c0.187-0.069,0.368-0.143,0.573-0.198c0.117-0.033,0.258-0.044,0.379-0.068c0.202-0.041,0.392-0.089,0.61-0.109
		c0.003,0,0.007,0,0.012-0.004c0.262-0.031,0.596-0.044,0.969-0.049c0.05,0,0.103,0,0.152,0c0.383,0,0.802,0.021,1.253,0.068
		c0.017,0,0.029,0,0.046,0C243.264,212.749,242.342,211.171,240.947,209.51z"/>
	<path fill="#FFFFFF" d="M237.418,223.698c-0.017-0.004-0.032-0.012-0.044-0.017c-0.152,0.033-0.291,0.073-0.417,0.114
		c-1.637,0.586-2.919,3.141-2.697,8.085c0.273,6.085,4.359,9.958,7.968,10.862c0,0,0,0,0.003,0c0.004,0,0.004,0.004,0.004,0.004
		c0.596,0.149,0.811,0.064,0.803-0.147c-0.009-0.337-0.598-0.998-1.192-1.591c-0.467-0.47-1.07-1.121-1.567-1.951
		c-0.528-0.885-0.943-1.968-0.943-3.263c0-0.31,0.039-0.618,0.104-0.93c0.011-0.048,0.028-0.09,0.045-0.137
		c0.061-0.25,0.137-0.496,0.238-0.735c0.043-0.115,0.107-0.221,0.162-0.331c0.084-0.165,0.166-0.327,0.267-0.482
		c0.093-0.149,0.2-0.29,0.305-0.427c0.081-0.107,0.162-0.212,0.246-0.308c0.142-0.161,0.299-0.315,0.457-0.459
		c0.067-0.06,0.127-0.123,0.198-0.178c0.195-0.157,0.394-0.302,0.603-0.431c0.048-0.034,0.095-0.062,0.144-0.089
		c0.235-0.132,0.481-0.259,0.736-0.356c0.028-0.013,0.06-0.021,0.097-0.033c0.271-0.103,0.553-0.178,0.838-0.226
		c0.009-0.005,0.009-0.005,0.017-0.005C242.762,227.864,239.765,224.149,237.418,223.698z"/>
	<path fill="#231F20" d="M217.115,193.706c0.811,1.205,2.113,2.537,1.987,3.59c-0.333,2.921-0.08,8.116,4.86,9.88
		c5.953,2.136,7.458-0.461,9.85-0.558c0.903-0.039,2.157,0.37,3.367,0.9c1.829,0.797,3.533,1.846,3.768,1.988
		c0.016,0.016,0.048,0.031,0.048,0.031s-1.189-3.78-6.513-7.861c-5.547-4.263-13.363-6.874-19.309-12.574
		c0,0,0.005,0.023,0.018,0.063C215.281,189.494,216.04,192.119,217.115,193.706z M222.588,197.856l2.062,1.413
		c0,0-0.646,1.937,1.291,2.835c1.923,0.905,3.338-0.391,3.338-0.391l1.682,1.165c0,0-2.459,4.194-6.313,1.282
		C220.969,201.388,222.588,197.856,222.588,197.856z"/>
	<path fill="#FBD238" d="M224.649,204.161c3.852,2.912,6.315-1.282,6.315-1.282l-1.682-1.165c0,0-1.42,1.301-3.342,0.391
		c-1.938-0.898-1.291-2.835-1.291-2.835l-2.06-1.413C222.588,197.856,220.969,201.388,224.649,204.161z"/>
	<path fill="#D65E5E" d="M257.312,260.609c0.25-4.368-0.646-6.042-3.09-6.166c-2.448-0.127-3.606,2.964-3.739,4.241
		c-0.13,1.291-0.641,2.454-0.641,2.454v-0.054c0,0-0.51-1.156-0.645-2.443c-0.127-1.29-1.286-4.371-3.732-4.243
		c-2.445,0.13-3.34,1.8-3.085,6.173c0.258,4.371,2.317,9.518,7.462,9.775v0.048C254.997,270.135,257.053,264.99,257.312,260.609z"/>
	<path fill="#005182" d="M237.628,322.458l-0.194,0.041l-0.004,0.205l-0.343,12.625l-0.009,0.263l0.267-0.005
		c5.841-0.084,6.742-5.58,6.848-7.947c0.059-1.238-0.475-3.092-1.805-4.229C241.189,322.382,239.592,322.067,237.628,322.458z
		 M239.455,332.756c0.06-2.428,0.161-5.979,0.221-8.124c0.718,0.098,1.06,0.389,1.215,0.521c0.742,0.64,1.032,1.773,1.005,2.381
		C241.772,330.214,240.947,331.949,239.455,332.756z"/>
	<path fill="#005182" d="M189.677,343.023c-1.992-1.538-4.984-1.427-4.984-1.427v15.14c0,0,3.268,0.364,5.154-1.258
		c1.608-1.375,2.647-3.278,2.767-6.267C192.729,346.407,191.119,344.14,189.677,343.023z M188.348,353.737
		c-0.336,0.285-0.838,0.469-1.363,0.579v-10.101c0.467,0.14,0.922,0.339,1.291,0.621c0.985,0.768,2.127,2.357,2.051,4.271
		C190.214,351.807,189.218,352.996,188.348,353.737z"/>
	<path fill="#005182" d="M191.686,328.634c-0.238-5.872-3.949-6.054-6.016-6.172c-0.191-0.009-0.369-0.021-0.538-0.035l-0.274-0.016
		v0.258v12.559C184.857,335.228,191.977,336.022,191.686,328.634z M187.153,324.94c1.259,0.285,2.127,1.096,2.23,3.787
		c0.062,1.512-0.26,2.607-0.952,3.264c-0.361,0.341-0.815,0.562-1.278,0.707V324.94L187.153,324.94z"/>
	<path fill="#00A852" d="M158.282,255.15l-0.084,0.144l3.756,6.921c-0.832,0.5-1.911,0.839-2.8,1.057
		c-0.934,0.229-1.662,0.321-1.662,0.321l12.575,21.164h4.503l-2.206-10.219h5.229l-6.797-19.356l3.922-0.52l-7.583-23.615
		l-11.055,20.348l2.017,3.702L158.282,255.15z"/>
	<polygon fill="#00A852" points="126.831,299.949 132.019,284.833 149.252,284.855 141.005,259.467 146.155,258.78 136.195,227.756 
		119.591,258.308 124.565,259.42 109.751,284.813 115.503,284.817 107.013,299.949 	"/>
	<path fill="#00A852" d="M189.373,277.675h-0.004l3.749,7.084h6.34l-3.007-13.931h4.289l-5.58-15.882l3.22-0.43l-6.223-19.382
		l-8.719,16.041l3.312,6.099c-0.635,0.388-1.456,0.646-2.131,0.812c-0.713,0.175-1.27,0.237-1.27,0.237l10.729,18.045
		c-1.134,0.676-3.82,1.163-4.53,1.277C189.454,277.667,189.393,277.675,189.373,277.675z"/>
	<polygon fill="#00A852" points="324.501,254.581 320.869,260.724 313.387,273.316 318.061,274.045 314.971,279.883 
		312.385,284.759 330.834,284.759 331.854,274.552 336.792,274.226 333.775,254.669 337.781,254.14 333.043,231.047 320.531,254.06 
			"/>
	<polygon fill="#00A852" points="308.013,235.148 297.762,254.024 301.016,254.443 298.037,259.495 291.896,269.825 295.73,270.427 
		293.191,275.217 288.139,284.757 304.287,284.757 305.766,269.971 309.816,269.701 307.82,254.14 311.106,253.711 	"/>
	<path fill="#00A852" d="M371.031,306.003l6.881-0.104c0,0,2.543-4.246,6.029-5.604l-7.6-16.035l5.092-1.015
		c-2.449-4.519-8.486-18.212-11.111-23.817l4.855-0.648l-11.197-31.024l-16.426,30.241l5.207,0.677l-14.25,26.087l24.361,0.094
		L371.031,306.003z"/>
	<path fill="#005182" d="M398.338,331.231c-2.275-2.14-4.236-3.98-5.241-5.981c-0.554-1.087-0.978-3.679-0.414-5.421
		c0.356-1.09,0.979-1.506,2.231-1.482c0.801,0.019,1.426,0.488,1.748,0.785l1.828,6.005l1.689,5.55l2.566-5.203l5.072-10.269
		l0.672-1.362l-0.99-1.15c-0.275-0.318-6.77-7.699-16.332-5.339c-4.576,1.117-7.922,4.226-9.666,8.873l0.004-0.042l0.365-2.613
		h-2.637h-32.011h-1.938l-0.323,1.917l-2.22,13.208l-2.181-13.203l-0.316-1.922h-1.939h-26.303h-4.734l2.938,3.723l2.348,2.969
		l0.029,2.367c0,0.021,0.012,3.514,0.026,8.253c-2.214-10.309-7.575-17.411-14.003-17.411c-2.873,0-5.634,1.406-7.985,4.076
		c-1.138,1.29-2.157,2.876-3.054,4.671l0.443-2.222l2.139-2.461l3.303-3.807h-5.039h-10.236h-2.062l-0.223,2.057l-1.6,15.09
		l-2.288-7.362l-2.411-7.771l-2.004,7.885l-1.864,7.328l-2.143-15.245l-0.284-1.981h-1.994H250.82h-5.149l1.718,1.912
		c-2.05-1.26-4.974-2.004-8.164-2.004h-12.862h-0.222l0.013-0.063h-2.649H200.26h-3.443l1.333,3.182l2.235,5.378l0.023,2.641
		c-2.101-10.109-11.701-11.355-14.714-11.477c-2.955-0.13-7.697,0.018-10.537,0.109l-1.363,0.04l-3.58,0.109
		c0,0,0.001,0.014,0.007,0.018h-1.056h-9.75h-1.932l-0.331,1.896l-2.226,12.564l-2.184-12.557l-0.329-1.903h-1.936h-10.564h-1.91
		h-2.829h-1.029h-11.564l0.513-3.81l0.347-2.602h-2.626H93.037h-2.619l0.343,2.602l1.418,10.623l0.544,4.115l3.195-2.657l4.85-4.022
		l0.114-0.008l0.174,40.375l-2.198,6.855l-0.968,2.994h3.149h12.126h3.156l-0.976-3.001l-2.228-6.913l0.354-39.976l4.454,3.695
		l3.189,2.657l0.553-4.115l0.121-0.955l0.348,0.646l0.177,36.46l-1.827,5.668l-0.972,3.003h3.154h6.252l-0.017,0.021h4.905h10.565
		h2.081l0.211-2.064l1.382-13.789l4.372,16.94l0.48,1.837h3.473l0.496-1.819l4.709-17.659l1.456,14.49l0.212,2.064h2.076h10.109
		v0.024h2.235c0.659,0,1.452,0.038,2.297,0.068c4.988,0.196,12.524,0.502,17.272-4.44c1.465-1.524,2.566-3.48,3.301-5.618
		l0.006,0.971l-1.834,6.007l-0.903,2.968h3.104h23.064l-0.006,0.021h3.559h28.515h3.646l-1.579-3.294l-10.287-21.466
		c1.635-1.558,4.044-4.474,4.69-8.691c0.237-1.549,0.33-2.969,0.322-4.259l7.957,38.694l0.398,1.939h3.432l0.576-1.646l4.596-13.012
		l4.58,13.012l0.578,1.646h3.445l0.388-1.965l4.728-23.711c0.136,8.007,2.047,14.351,5.572,18.367
		c2.561,2.904,5.848,4.443,9.506,4.443c3.646,0,6.928-1.539,9.508-4.447c2.132-2.428,3.656-5.728,4.582-9.703
		c0.012,2.642,0.021,4.633,0.025,5.4l-1.83,5.672l-0.973,3.003h3.154h19.83h2.289v-2.298v-10.852v-4.33l-3.586,2.43l-6.324,4.295
		l-0.402,0.01v-34.354l1.33-2.483l2.141,2.562l11.915,46.125l0.474,1.838h3.486l0.48-1.818l11.43-42.811l0.153,32.708l-1.827,6.007
		l-0.903,2.971h3.101h23.266h2.299v-2.297v-0.105c1.746,1.742,7.639,6.777,15.789,4.779c8.584-2.109,10.353-9.131,10.934-11.441
		c1.801-7.191-0.422-12.162-2.555-15.682C404.006,336.552,400.995,333.728,398.338,331.231z"/>
	<polygon fill="#FFFFFF" points="94.453,320.092 99.922,315.553 103.174,315.479 103.355,358.552 101.043,365.753 113.172,365.753 
		110.824,358.492 111.203,315.479 113.925,315.553 119.396,320.092 120.806,309.474 93.037,309.474 	"/>
	<polygon fill="#FFFFFF" points="167.03,319.405 169.156,315.885 159.4,315.885 154.902,341.342 150.473,315.885 139.907,315.885 
		142.68,319.401 136.515,359.699 134.056,362.655 132.174,356.846 132.174,319.507 134.141,315.885 122.507,315.885 
		124.435,319.507 124.613,356.901 122.678,362.917 133.838,362.917 133.814,362.943 144.385,362.943 147.059,336.349 
		154.652,365.753 162.616,335.944 165.328,362.943 175.903,362.943 173.191,359.699 	"/>
	<path fill="#FFFFFF" d="M192.852,338.668l-0.396-0.196l0.392-0.227c0.062-0.037,6.495-4.266,5.521-11.789
		c-1.168-9.131-8.993-10.688-12.78-10.85c-3.431-0.146-9.524,0.093-11.74,0.148l2.758,5.551l1.074,41.665
		c4.472,0,13.126,1.313,17.907-3.671c2.942-3.059,4.245-8.169,3.438-12.75C198.604,344.178,196.355,340.454,192.852,338.668z
		 M184.857,322.673v-0.262l0.274,0.02c0.169,0.013,0.347,0.023,0.54,0.035c2.067,0.118,5.775,0.301,6.016,6.17
		c0.29,7.391-6.83,6.592-6.83,6.592V322.673L184.857,322.673z M189.851,355.475c-1.891,1.626-5.154,1.258-5.154,1.258v-15.136
		c0,0,2.988-0.115,4.98,1.423c1.443,1.116,3.056,3.388,2.94,6.184C192.494,352.196,191.458,354.099,189.851,355.475z"/>
	<polygon fill="#FFFFFF" points="210.411,356.846 210.594,339.706 218.04,342.329 221.434,335.075 210.835,335.075 210.589,335.075 
		210.581,334.83 210.411,322.02 210.407,321.705 210.712,321.771 218.443,321.845 222.209,325.116 223.495,315.885 200.256,315.885 
		202.676,321.677 202.85,356.575 200.909,362.917 224.177,362.917 224.177,352.073 217.293,356.741 	"/>
	<path fill="#FFFFFF" d="M247.036,318.242c-1.54-1.405-4.508-2.293-7.823-2.293h-12.865l2.871,6.06l0.256,36.666l-1.938,4.269
		h11.467l-1.889-3.91l-0.332-15.753l1.203-0.22l7.903,15.973l-1.511,3.91h11.672l-11.063-23.073c0,0,4.423-2.952,5.259-8.426
		C251.402,323.802,248.964,319.995,247.036,318.242z M237.341,335.587h-0.263l0.005-0.262l0.347-12.625l0.004-0.201l0.19-0.045
		c1.968-0.391,3.565-0.076,4.761,0.953c1.329,1.141,1.862,2.99,1.805,4.229C244.085,330.001,243.186,335.499,237.341,335.587z"/>
	<polygon fill="#FFFFFF" points="288.402,316.046 278.166,316.046 275.381,342.202 269.799,324.21 265.06,342.837 261.289,316.046 
		250.804,316.046 253.428,318.967 263.046,365.756 269.799,346.589 276.543,365.756 285.871,318.967 	"/>
	<path fill="#FFFFFF" d="M298.6,315.78c-2.195,0-4.35,1.141-6.255,3.305c-4.036,4.59-6.55,13.211-6.55,22.508
		c0,7.873,1.732,14,5.031,17.733c2.11,2.4,4.809,3.668,7.781,3.668c2.971,0,5.652-1.268,7.785-3.668
		c3.283-3.733,5.024-9.858,5.024-17.733C311.408,327.364,305.658,315.78,298.6,315.78z M301.527,353.878
		c-0.807,0.918-1.756,1.415-2.75,1.415c-3.443,0-5.76-7.481-5.76-15.587c0-6.239,1.375-11.822,3.487-14.223
		c0.711-0.811,1.483-1.219,2.276-1.219c0.805,0,1.575,0.408,2.291,1.219c2.109,2.4,3.484,7.983,3.484,14.223
		C304.553,345.252,303.443,351.701,301.527,353.878z"/>
	<polygon fill="#FFFFFF" points="322.573,319.55 324.533,315.885 312,315.885 314.83,319.47 314.869,322.624 314.869,322.689 
		315.012,356.901 313.071,362.917 332.896,362.917 332.896,352.073 326.014,356.741 322.573,356.846 	"/>
	<polygon fill="#FFFFFF" points="366.148,356.846 366.324,339.706 373.783,342.329 377.176,335.075 366.574,335.075 
		366.324,335.075 366.32,334.83 366.148,322.02 366.145,321.705 366.451,321.771 374.182,321.845 377.948,325.116 379.234,315.885 
		356.98,315.885 356.984,315.877 347.228,315.877 342.726,342.678 338.303,315.877 327.728,315.877 330.434,319.124 
		342.477,365.753 354.932,319.124 356.385,316.824 358.416,321.677 358.58,356.575 356.647,362.917 379.914,362.917 
		379.914,352.073 373.036,356.741 	"/>
	<path fill="#FFFFFF" d="M391.045,326.286c-0.836-1.65-1.291-4.85-0.549-7.158c0.459-1.433,1.605-3.142,4.467-3.078
		c2.348,0.051,3.742,1.908,3.742,1.908l1.979,6.509l5.074-10.271c0,0-5.729-6.655-14.046-4.61c-6.408,1.58-8.259,7.208-8.866,10.357
		c-0.504,2.629,0.125,6.661,1.957,9.928c3.344,5.959,11.748,12.839,13.695,16.754c1.211,2.422,2.65,5.956,0.812,9.302
		c-0.704,1.275-3.092,3.199-5.107,2.974c-2.338-0.254-3.74-1.904-3.74-1.904l-1.986-6.501l-5.068,10.267
		c0,0,5.727,6.652,14.039,4.609c6.41-1.57,8.334-6.104,9.252-9.771c1.477-5.898-0.008-10.15-2.293-13.93
		C400.156,334.639,393.523,331.194,391.045,326.286z"/>
	<path fill="#231F20" d="M382.214,358.004l4.211-8.536l2.562-5.193l1.697,5.541l1.814,5.936c0.361,0.301,1.051,0.767,1.947,0.865
		c0.854,0.094,2.467-1.104,2.846-1.799c1.266-2.286,0.283-4.91-0.845-7.184c-0.757-1.521-3.122-4.041-5.401-6.477
		c-2.965-3.166-6.318-6.752-8.238-10.17c-1.246-2.213-2.061-4.883-2.328-7.405l-0.252,1.851l-0.59,4.193l-3.192-2.78l-3.132-2.721
		l-4.84-0.046c0.041,2.408,0.08,6.321,0.119,8.696h8.584h3.611l-1.529,3.265l-3.396,7.254l-0.883,1.885l-1.966-0.692l-4.425-1.558
		l-0.119,11.578l3.84-0.055l6.31-4.283l3.587-2.43v4.33v5.932h0.009V358.004z"/>
	<path fill="#231F20" d="M298.781,326.558c-0.025,0-0.229,0.068-0.555,0.445c-1.395,1.594-2.908,6.245-2.908,12.698
		c0,8.719,2.572,13.286,3.463,13.286c0.412,0,0.818-0.388,1.037-0.626c1.171-1.341,2.434-6.745,2.434-12.66
		c0-6.461-1.506-11.114-2.894-12.692C299.018,326.634,298.816,326.558,298.781,326.558z"/>
	<polygon fill="#FFFFFF" points="288.402,316.046 278.166,316.046 275.381,342.202 269.799,324.21 265.06,342.837 261.289,316.046 
		250.804,316.046 253.428,318.967 263.046,365.756 269.799,346.589 276.543,365.756 285.871,318.967 	"/>
	<path fill="#231F20" d="M225.351,319.204l-0.871,6.234l-0.581,4.195l-3.196-2.781l-3.128-2.719l-4.836-0.047
		c0.029,2.408,0.081,6.322,0.115,8.696h8.584h3.611l-1.527,3.265l-3.394,7.259l-0.886,1.88l-1.962-0.691l-4.424-1.558l-0.122,11.577
		l3.841-0.055l6.311-4.283l3.588-2.43v4.33v7.65l0.698-1.545l-0.249-35.648L225.351,319.204z"/>
	<path fill="#231F20" d="M174.323,321.883l-2.533-5.103c0,0-0.089-0.186-0.225-0.452l-0.442,0.742l-1.697,2.803l5.82,38.073
		L174.323,321.883z"/>
	<polygon fill="#231F20" points="140.26,320.038 138.105,317.308 136.85,315.716 136.161,316.978 134.473,320.092 134.473,356.486 
		134.616,356.935 	"/>
	<path fill="#231F20" d="M196.349,338.267c1.858,1.55,3.288,3.504,4.133,5.377l-0.06-12.73
		C199.705,334.103,197.968,336.604,196.349,338.267z"/>
	<path fill="#005182" d="M282.847,160.494c5.63-0.649,11.106-1.726,15.427-2.81l-2.725-4.283
		c7.057-6.689,12.445-11.293,12.986-11.693c5.297-4.829,4.121-2.74,4.172-2.736c-0.072-0.002-3.281,18.713-12.49,32.559
		c5.48,2.58,8.938,6.288,8.938,6.288c-0.35-0.032-9.336-0.487-14.186,1.123l0.977,0.481c0.109,0.072,12.172,8.189,17.246,13.708
		c-2.938-0.085-8.703-0.403-11.607,0.082c-1.762,0.288-6.688,0.966-6.688,0.966c1.066,0.992,7.889,6.394,9.188,7.498
		c7.014,5.981,14.266,14.184,18.283,28.526l0.738,4.505c0.309-16.281-6.662-26.457-14.486-33.115
		c-0.702-0.605-4.744-4.912-5.381-5.484c0,0,8.338-0.561,16.393,0.73c-2.738-4.843-12.484-13.813-16.6-16.282
		c3.974-0.807,12.012-0.64,12.012-0.64c-3.877-6.287-11.451-9.029-11.451-9.029c8.627-13.37,12.706-34.812,12.706-34.812
		c0-0.482-0.251-1.161-0.964-1.497c-1.023-0.48-2.796,0.91-8.188,5.351c-0.123,0.089-17.713,12.905-29.32,16.774
		c-2.289,0.814-4.417,1.671-6.879,2.599c6.857,0.809,12.415,5.248,18.863,8.06L282.847,160.494z"/>
</g>
</svg>
