<?xml version="1.0" encoding="utf-8"?>
<!-- Generator: Adobe Illustrator 14.0.0, SVG Export Plug-In . SVG Version: 6.00 Build 43363)  -->
<!DOCTYPE svg PUBLIC "-//W3C//DTD SVG 1.1//EN" "http://www.w3.org/Graphics/SVG/1.1/DTD/svg11.dtd">
<svg version="1.1" id="content" xmlns="http://www.w3.org/2000/svg" xmlns:xlink="http://www.w3.org/1999/xlink" x="0px" y="0px"
	 width="500px" height="500px" viewBox="0 0 500 500" enable-background="new 0 0 500 500" xml:space="preserve">
<rect id="position" x="-0.001" y="0" display="none" fill="none" stroke="#000000" width="499.999" height="500"/>
<g id="bounds" display="none">
	
		<rect x="-14.512" y="233.794" display="inline" fill="none" stroke="#000000" stroke-width="0.8612" width="200.719" height="211.744"/>
</g>
<g>
	<path fill="#75673C" d="M51.508,389.45c0,0,1.28-4.793,42.938-13.517c24.791-5.234,37.934-8.588,40.608-5.683
		c0.181,7.188-13.903,17.919-37.271,23.262c-23.365,5.323-45.369-1.6-45.369-1.6L51.508,389.45z"/>
	<path fill="#CEB91F" d="M125.765,329.726l-11.27-49.022L54.13,294.582c0,0,0.552,47.26,32.529,38.036
		C106.513,327.044,119.598,325.551,125.765,329.726z"/>
	<path fill="#262A2E" d="M49.073,302.593l11.268,0.517l0.063,5.2c0.001,0.12,0.329,13.635,8.155,19.753
		c3.94,3.085,9.484,3.835,16.477,2.228c1.275-0.294,2.615-0.668,3.982-1.119c4.571-1.594,8.5-2.864,12.486-3.78
		c5.957-1.371,14.514-2.563,23.545,1.217l1.409,6.129l0.547,2.383l-55.066,6.668L49.274,319.01L49.073,302.593z"/>
	<path fill="#335C85" d="M40.233,340.459l-7.611-33.105l22.271,1.021c0,0,0.454,37.637,35.842,26.031
		c12.753-4.443,24.403-7.816,35.918-0.83l9.528,41.438c-1.442,2.775-2.428,4.659-3.1,5.945l-39.903,9.177
		C93.177,390.135,74.196,344.239,40.233,340.459z"/>
	<polyline opacity="0.1" fill="#FFFFFF" enable-background="new    " points="127.649,337.917 115.605,285.522 86.269,300.628 
		105.954,386.245 137.15,379.249 127.649,337.917 	"/>
	<path fill="#877A44" d="M109.153,281.057l1.176,9.114c0.947-1.041,1.344-1.935,1.1-2.633L109.153,281.057z"/>
	<path fill="#877A44" d="M94.552,292.156l-3.059,9.697l-6.967-6.482l-2.709,8.953l-7.403-6.573l-3.575,8.885l-6.655-6.905
		l-3.525,8.702l-6.938-7.063c0,0-3.128,8.795-2.927,8.926c0.2,0.129-5.495-8.192-5.495-8.192l-3.042,9.013
		c8.512-0.322,20.701-2.09,34.045-5.157c9.146-2.104,17.54-4.518,24.429-6.934L94.552,292.156z"/>
	<path fill="#877A44" d="M33.778,310.762c2.081,0.37,4.967,0.483,8.478,0.352l-5.855-8.161l-3.818,7.339
		C32.58,310.291,32.978,310.638,33.778,310.762z"/>
	<path fill="#877A44" d="M110.964,285.631l-2.103,9.739l-5.912-6.331l-2.22,9.984c7.949-2.787,13.879-5.573,16.645-7.881
		L110.964,285.631z"/>
	<path fill="#B2A159" d="M116.768,279.442c0.944,4.102-18.166,11.23-42.735,16.881c-15.538,3.57-44.908,8.229-45.871,4.029
		l5.06,9.604l3.138-7.209l5.892,7.773l2.91-8.006l5.692,7.396l2.754-8.221l6.67,6.925l3.484-8.98l7.119,7.288l3.678-8.607
		l7.254,6.313l2.772-9.321l7.637,6.041l2.573-9.435l6.423,6.518l1.573-9.457l5.871,6.74l1.993-10.078l6.713,4.974l0.095-8.128
		L116.768,279.442z"/>
	<path fill="#75673C" d="M30.327,309.225c0.046,0.067,0.095,0.136,0.153,0.199c0.043,0.047,0.097,0.091,0.146,0.136
		c0.06,0.053,0.118,0.104,0.186,0.154c0.064,0.048,0.135,0.093,0.207,0.138c0.068,0.043,0.141,0.085,0.217,0.125
		c0.085,0.047,0.176,0.09,0.271,0.133c0.076,0.035,0.156,0.068,0.238,0.102c0.108,0.043,0.22,0.086,0.338,0.127
		c0.078,0.027,0.163,0.054,0.246,0.078c0.136,0.041,0.271,0.082,0.418,0.121c0.068,0.019,0.146,0.033,0.218,0.051
		c0.172,0.042,0.344,0.082,0.528,0.119l2.979-6.945l5.211,7.374c0.096-0.005,0.193-0.009,0.289-0.013
		c0.363-0.012,0.729-0.024,1.106-0.043c0.008-0.001,0.016-0.001,0.021-0.002l2.112-7.513l5.011,6.938
		c0.03-0.003,0.062-0.006,0.091-0.01c0.013-0.001,0.022-0.003,0.034-0.003c0.421-0.047,0.845-0.095,1.273-0.145
		c0.02-0.002,0.04-0.005,0.059-0.007c0.022-0.004,0.045-0.006,0.066-0.009l2.058-7.986l6.074,6.842
		c0.095-0.017,0.188-0.031,0.286-0.046c0.271-0.043,0.543-0.088,0.815-0.135c0.006,0,0.013-0.001,0.018-0.002
		c0.025-0.004,0.052-0.009,0.078-0.014l3.11-8.379l5.999,6.674c0.47-0.097,0.939-0.193,1.413-0.294l3.054-8.203l6.33,6.047
		c0.136-0.034,0.269-0.066,0.402-0.102c0.091-0.022,0.182-0.046,0.274-0.069c0.24-0.062,0.481-0.121,0.721-0.184l2.48-8.623
		l6.46,6.18c0.001,0,0.002,0,0.003,0c0.055-0.017,0.111-0.033,0.166-0.049c0.103-0.031,0.202-0.061,0.304-0.091
		c0.231-0.069,0.46-0.139,0.69-0.208l2.476-8.81l5.342,6.289c0.023-0.01,0.048-0.018,0.073-0.024
		c0.428-0.151,0.848-0.299,1.266-0.448c0.036-0.013,0.071-0.026,0.108-0.038l1.472-8.432l5.186,5.836
		c0.384-0.164,0.749-0.326,1.115-0.487c0.059-0.026,0.118-0.052,0.176-0.078c0.002-0.001,0.006-0.001,0.007-0.003l1.47-8.913
		l5.737,4.935c0.312-0.235,0.586-0.467,0.832-0.69c0.001-0.002,0.003-0.004,0.004-0.006c0.023-0.021,0.045-0.041,0.065-0.063
		c0.001-0.001,0.004-0.004,0.006-0.005c0.973-0.909,1.428-1.738,1.266-2.452l-1.062-4.606l-0.001-0.001l-0.941-4.091
		c-0.021,0.006-0.041,0.01-0.062,0.018c0,0.002-0.003,0.006-0.003,0.008c-0.013,0.149-0.053,0.306-0.11,0.463l0,0l-0.002,0.002
		c-0.06,0.162-0.146,0.328-0.255,0.498l0,0l0.614,9.684l-6.117-5.257c-0.106-0.095-0.242-0.125-0.381-0.124
		c-0.076,0.04-0.153,0.079-0.229,0.12c-0.024,0.012-0.046,0.022-0.068,0.034c-0.046,0.023-0.091,0.048-0.138,0.07
		c-0.001,0.001-0.002,0.002-0.004,0.002c-0.013,0.007-0.024,0.015-0.037,0.021c-0.05,0.065-0.088,0.14-0.104,0.225l-1.522,9.227
		l-5.37-6.047c-0.105-0.118-0.256-0.168-0.407-0.176c-0.024,0.009-0.048,0.02-0.071,0.027c-0.002,0-0.002,0-0.003,0.001
		c-0.133,0.052-0.262,0.103-0.396,0.153c-0.069,0.08-0.119,0.174-0.14,0.28l-1.573,9l-5.563-6.547
		c-0.045-0.053-0.107-0.08-0.167-0.112c-0.19,0.063-0.385,0.124-0.579,0.188c-0.07,0.021-0.143,0.045-0.213,0.068
		c-0.016,0.028-0.044,0.048-0.051,0.076l-2.567,9.141l-6.588-6.301c-0.063-0.06-0.139-0.097-0.221-0.123
		c-0.205,0.055-0.414,0.11-0.623,0.168c-0.054,0.063-0.104,0.133-0.129,0.218l-2.592,9.019l-6.594-6.295
		c-0.285-0.271-0.814-0.149-0.956,0.222l-3.177,8.539l-6.271-6.98c-0.059-0.064-0.136-0.105-0.211-0.14
		c-0.212,0.04-0.424,0.081-0.634,0.119c-0.058,0.062-0.111,0.13-0.145,0.208l-3.172,8.547l-6.306-7.101
		c-0.021-0.022-0.048-0.029-0.074-0.05c-0.029,0.004-0.06,0.008-0.087,0.013c-0.177,0.024-0.354,0.05-0.53,0.074
		c-0.07,0.01-0.144,0.021-0.21,0.03c-0.041,0.056-0.081,0.105-0.104,0.177l-2.143,8.316l-5.349-7.408
		c-0.062-0.09-0.147-0.152-0.244-0.192c-0.173,0.016-0.339,0.026-0.511,0.042c-0.132,0.074-0.241,0.183-0.283,0.334l-2.191,7.785
		l-5.397-7.634c-0.05-0.071-0.12-0.116-0.191-0.156c-0.013-0.001-0.025-0.001-0.038-0.002c-0.001,0-0.003,0.001-0.004,0.001
		c-0.171-0.004-0.33-0.01-0.497-0.015c-0.126,0.063-0.231,0.147-0.285,0.277l-2.924,6.812l-3.93-8.371h-0.001
		c-0.002-0.002-0.002-0.002-0.002-0.002c-0.172-0.104-0.322-0.214-0.447-0.331c-0.001,0-0.001-0.001-0.001-0.001
		c-0.001,0-0.002-0.001-0.003-0.002c-0.128-0.119-0.238-0.244-0.318-0.379c-0.001,0-0.002-0.001-0.002-0.002
		c-0.004-0.005-0.01-0.011-0.014-0.018c-0.021,0.003-0.039,0.011-0.062,0.016l0.18,0.783l1.82,7.915
		c0.028,0.122,0.077,0.236,0.138,0.351C30.265,309.147,30.3,309.185,30.327,309.225z"/>
	<path fill="#262A2E" d="M40.969,343.668l-1.721-7.483c31.185,4.764,52.738,35.623,57.315,53.172l-6.49,1.491
		c0,0-17.244-33.229-35.47-41.58C44.338,343.783,40.969,343.668,40.969,343.668z"/>
	<path fill="#753420" d="M40.625,342.166l12.959,56.377c0.305,0.014,0.611,0.023,0.923,0.033l12.535-2.433l23.59-5.424
		C87.644,377.733,63.019,344.414,40.625,342.166z"/>
	<path fill="#D9D2B9" d="M117.081,279.73c-0.885-3.854-21.521-2.398-46.09,3.251c-24.572,5.647-43.771,13.352-42.884,17.205
		c0.887,3.854,21.52,2.4,46.088-3.249C98.77,291.287,117.969,283.582,117.081,279.73z"/>
	<path fill="#E6DFC4" d="M108.439,279.457c-0.771-3.35-17.665-2.328-37.731,2.285c-20.072,4.615-35.717,11.073-34.947,14.424
		s17.665,2.328,37.735-2.287C93.565,289.266,109.209,282.807,108.439,279.457z"/>
	<path fill="#877A44" d="M29.348,301.068l3.671,8.474c0,0-1.617-0.388-2.123-1.354C29.984,304.328,29.348,301.068,29.348,301.068z"
		/>
	<path fill="#877A44" d="M117.896,289.991l-0.439-6.933l1.3,5.547C118.756,288.606,118.747,289.246,117.896,289.991z"/>
	<path fill="#B2A159" d="M135.055,370.252C135.063,370.274,135.054,370.229,135.055,370.252c0.176,3.756-16.306,13.142-39.681,18.49
		c-23.491,5.425-42.317,3.987-43.867,0.708l4.102,10.854l3.48-6.955l5.627,8.157l2.853-8.2l5.69,8.188l2.478-8.744l6.48,7.886
		l3.369-9.414l6.729,7.573l3.162-8.85l7.414,6.454l2.452-9.324l7.392,6.66l1.95-9.839l6.646,6.453l1.275-9.767l6.06,6.193
		l1.154-10.082l6.703,4.768l0.457-0.302L135.055,370.252"/>
	<path fill="#877A44" d="M114.654,383.909c-0.806,3.34-1.631,6.677-2.49,10.017c-2.35-2.195-4.676-4.399-6.979-6.627
		c-0.758,3.073-1.546,6.144-2.353,9.21c-2.451-2.267-4.878-4.549-7.281-6.846c-1.095,3.028-2.212,6.052-3.359,9.071
		c-2.164-2.417-4.308-4.852-6.431-7.297c-1.131,2.944-2.288,5.886-3.466,8.825c-2.212-2.519-4.399-5.047-6.563-7.589
		c0.021,0-3.217,8.882-3.049,9.022c0.176,0.15-5.029-8.76-5.012-8.766c-1.068,3.021-2.161,6.041-3.282,9.058
		c8.239,0.285,20.162-0.866,33.106-3.85c8.877-2.038,16.956-4.633,23.497-7.313C118.861,388.533,116.75,386.225,114.654,383.909z"/>
	<path fill="#877A44" d="M64.387,401.99c-1.761-2.939-3.5-5.882-5.22-8.836c-1.332,2.412-2.684,4.816-4.061,7.217
		c-1.044-2.476-2.083-4.954-3.113-7.433c0.278,1.878,0.559,3.757,0.84,5.632C53.122,400.531,57.45,401.749,64.387,401.99z"/>
	<path fill="#877A44" d="M135.529,371.737c0.446,3.321,0.884,6.651,1.312,9.979c0.974-1.099,1.364-2.062,1.104-2.828
		C137.139,376.503,136.333,374.119,135.529,371.737z"/>
	<path fill="#877A44" d="M129.867,376.707c-0.394,3.358-0.803,6.717-1.235,10.082c-2.063-2.084-4.113-4.18-6.145-6.282
		c-0.474,3.438-0.971,6.881-1.494,10.32c7.557-3.093,13.052-6.277,15.505-8.798C134.271,380.267,132.058,378.493,129.867,376.707z"
		/>
	<path fill="#75673C" d="M136.404,374.364c-0.434-1.379-0.916-2.733-1.349-4.111c-0.021,0.007,0.021-0.008,0,0
		c-0.132,0.332-0.267,0.601-0.595,0.957c0.512,3.293,1.354,6.642,1.849,9.938c-2.125-1.684-4.229-3.375-6.322-5.08
		c-0.109-0.09-0.244-0.113-0.374-0.111c-0.143,0.095-0.284,0.184-0.432,0.274c-0.039,0.073-0.075,0.15-0.079,0.237
		c-0.222,3.171-0.466,6.347-0.723,9.525c-1.882-1.994-3.749-3.996-5.602-6.009c-0.107-0.117-0.255-0.162-0.401-0.164
		c-0.146,0.066-0.286,0.133-0.438,0.201c-0.059,0.08-0.104,0.184-0.108,0.292c-0.295,3.093-0.606,6.188-0.938,9.286
		c-1.924-2.189-3.833-4.388-5.728-6.595c-0.047-0.056-0.112-0.082-0.17-0.114c-0.243,0.09-0.492,0.186-0.742,0.272
		c-0.011,0.031-0.039,0.052-0.042,0.085c-0.658,3.145-1.334,6.286-2.035,9.433c-2.218-2.135-4.42-4.281-6.6-6.438
		c-0.062-0.062-0.136-0.099-0.214-0.129c-0.192,0.056-0.39,0.115-0.587,0.171c-0.053,0.068-0.1,0.139-0.117,0.229
		c-0.725,3.092-1.47,6.179-2.238,9.27c-2.184-2.172-4.348-4.354-6.488-6.549c-0.279-0.284-0.787-0.168-0.91,0.21
		c-0.973,2.91-1.964,5.816-2.982,8.722c-2.039-2.44-4.061-4.896-6.058-7.362c-0.055-0.067-0.129-0.114-0.206-0.15
		c-0.198,0.036-0.401,0.07-0.604,0.105c-0.056,0.06-0.107,0.124-0.137,0.205c-1.018,2.895-2.062,5.784-3.127,8.676
		c-2.003-2.524-3.986-5.055-5.948-7.598c-0.021-0.025-0.047-0.033-0.069-0.056c-0.263,0.023-0.534,0.053-0.793,0.077
		c-0.037,0.056-0.084,0.104-0.103,0.177c-0.738,2.813-1.496,5.624-2.272,8.436c-1.648-2.644-3.284-5.296-4.896-7.947
		c-0.061-0.096-0.141-0.166-0.23-0.215c-0.163,0.004-0.322,0.008-0.484,0.01c-0.13,0.065-0.237,0.17-0.285,0.323
		c-0.787,2.616-1.593,5.237-2.414,7.852c-1.619-2.742-3.224-5.498-4.81-8.255c-0.045-0.073-0.106-0.129-0.174-0.175
		c-0.176-0.021-0.34-0.039-0.51-0.059c-0.123,0.052-0.229,0.133-0.288,0.264c-1.038,2.255-2.088,4.504-3.162,6.75
		c-1.091-2.983-2.027-6.037-3.099-9.022c-0.321-0.255-0.729-0.454-0.864-0.751c-0.02,0.002,0.021-0.005,0,0
		c0.17,1.138,0.307,2.285,0.48,3.427c0.896,2.514,1.802,5.023,2.716,7.531c0.368,0.166,0.783,0.328,1.256,0.469
		c1.096-2.295,2.174-4.587,3.233-6.885c1.529,2.663,3.079,5.324,4.642,7.979c0.445,0.021,0.899,0.033,1.369,0.042
		c0.794-2.524,1.571-5.055,2.336-7.579c1.513,2.487,3.042,4.97,4.586,7.448c0.489-0.024,0.979-0.058,1.483-0.09
		c0.744-2.701,1.474-5.403,2.183-8.106c1.895,2.447,3.806,4.892,5.732,7.324c0.391-0.05,0.774-0.098,1.169-0.151
		c1.045-2.835,2.069-5.673,3.07-8.513c1.911,2.36,3.844,4.71,5.796,7.05c0.452-0.09,0.914-0.18,1.373-0.271
		c0.977-2.792,1.93-5.591,2.862-8.384c2.063,2.108,4.143,4.204,6.241,6.29c0.451-0.113,0.903-0.235,1.354-0.354
		c0.729-2.957,1.44-5.915,2.133-8.871c2.142,2.114,4.302,4.222,6.481,6.313c0.373-0.124,0.744-0.25,1.113-0.375
		c0.676-3.027,1.329-6.062,1.959-9.093c1.82,2.125,3.656,4.237,5.51,6.339c0.465-0.188,0.922-0.377,1.371-0.563
		c0.308-2.903,0.597-5.808,0.868-8.704c1.793,1.938,3.599,3.87,5.416,5.801c0.417-0.213,0.816-0.431,1.21-0.641
		c0.249-3.07,0.479-6.138,0.691-9.208c1.965,1.601,3.946,3.188,5.94,4.767c0.578-0.537,1.02-1.047,1.331-1.523
		C137.083,378.733,136.746,376.545,136.404,374.364z"/>
</g>
</svg>
