<?xml version="1.0" encoding="utf-8"?>
<!-- Generator: Adobe Illustrator 14.0.0, SVG Export Plug-In . SVG Version: 6.00 Build 43363)  -->
<!DOCTYPE svg PUBLIC "-//W3C//DTD SVG 1.1//EN" "http://www.w3.org/Graphics/SVG/1.1/DTD/svg11.dtd">
<svg version="1.1" id="content" xmlns="http://www.w3.org/2000/svg" xmlns:xlink="http://www.w3.org/1999/xlink" x="0px" y="0px"
	 width="500px" height="500px" viewBox="0 0 500 500" enable-background="new 0 0 500 500" xml:space="preserve">
<rect id="position" x="-0.001" y="0" display="none" fill="none" stroke="#000000" width="499.999" height="500"/>
<g id="bounds" display="none">
	
		<rect x="-27.791" y="205.74" display="inline" fill="none" stroke="#000000" stroke-width="1.1382" width="265.274" height="279.858"/>
</g>
<g>
	<path fill="#94773F" d="M102.835,445.018c-0.646,0-1.11-0.012-1.37-0.021c-0.259,0.01-0.727,0.021-1.369,0.021
		c-21.731,0-44.952-9.109-44.952-34.675c0-11.16,5.691-17.653,10.267-22.871c3.512-4.008,5.499-6.428,5.499-9.566
		c0-4.849-0.739-6.763-1.595-8.978c-1.024-2.656-2.188-5.666-1.974-11.881c0.277-8.025,5.08-21.489,34.124-21.489
		c29.045,0,33.849,13.464,34.125,21.489c0.216,6.215-0.946,9.225-1.972,11.881c-0.854,2.215-1.596,4.129-1.596,8.978
		c0,3.141,1.986,5.561,5.499,9.566c4.573,5.218,10.267,11.711,10.267,22.871c0,13.913-7.026,24.279-20.321,29.982
		C117.601,444.56,106.956,445.018,102.835,445.018L102.835,445.018z"/>
	<path fill="#BDBDBD" d="M114.092,253.776h-1.019c-0.452,0-0.819,0.367-0.819,0.819v0.692H90.717v-0.692
		c0-0.452-0.365-0.819-0.818-0.819h-1.018c-0.451,0-0.818,0.367-0.818,0.819v2.4c0,0.453,0.367,0.818,0.818,0.818h1.018
		c0.453,0,0.818-0.365,0.818-0.818v-0.384h21.537v0.384c0,0.453,0.367,0.818,0.819,0.818h1.019c0.452,0,0.819-0.365,0.819-0.818
		v-2.4C114.911,254.143,114.544,253.776,114.092,253.776z"/>
	<path fill="#BDBDBD" d="M114.092,262.672h-1.019c-0.452,0-0.819,0.367-0.819,0.82v0.692H90.717v-0.692
		c0-0.453-0.365-0.82-0.818-0.82h-1.018c-0.451,0-0.818,0.367-0.818,0.82v2.399c0,0.453,0.367,0.819,0.818,0.819h1.018
		c0.453,0,0.818-0.366,0.818-0.819v-0.384h21.537v0.384c0,0.453,0.367,0.819,0.819,0.819h1.019c0.452,0,0.819-0.366,0.819-0.819
		v-2.399C114.911,263.039,114.544,262.672,114.092,262.672z"/>
	<path fill="#AA8948" d="M127.023,377.906c0-11.519,3.931-10.261,3.568-20.685c-0.483-13.996-16.975-16.663-29.128-16.663
		c-12.152,0-28.644,2.667-29.127,16.663c-0.359,10.424,3.568,9.166,3.568,20.685c0,11.461-15.765,15.521-15.765,32.438
		c0,31.587,41.321,29.649,41.321,29.649s41.323,1.938,41.323-29.649C142.788,393.427,127.023,389.365,127.023,377.906z"/>
	<path fill="#AA8948" d="M101.589,239.112c-2.03,2.344-6.147,3.149-9.499,3.149c0,0,0.803,26.656,0.803,28.448
		s0.628,2.307,2.216,3.558c1.395,1.267,1.62,3.338,1.62,3.338v3.617h4.86h4.859v-3.617c0,0,0.227-2.071,1.619-3.338
		c1.588-1.251,2.217-1.766,2.217-3.558s0.803-28.448,0.803-28.448C107.735,242.26,103.618,241.454,101.589,239.112z M97.108,270.227
		c-1.676,0-2.902-1.19-2.902-4.021s-0.075-6.517-0.075-6.517l-0.223-9.493c0,0,0.497-1.377,2.501-1.377
		c1.779,0,2.809,0.446,2.981,2.829c0.176,2.383,0.756,15.376,0.756,15.376S100.347,270.227,97.108,270.227z M109.046,259.69
		c0,0-0.074,3.687-0.074,6.517s-1.229,4.021-2.903,4.021c-3.238,0-3.038-3.202-3.038-3.202s0.58-12.993,0.757-15.376
		c0.174-2.383,1.201-2.829,2.981-2.829c2.003,0,2.501,1.377,2.501,1.377L109.046,259.69z"/>
	<path fill="#BBC4C3" d="M106.448,283.639c0,0.452-0.366,0.818-0.818,0.818h-8.286c-0.451,0-0.818-0.366-0.818-0.818v-3.646
		c0-0.453,0.367-0.819,0.818-0.819h8.286c0.452,0,0.818,0.366,0.818,0.819V283.639z"/>
	<path fill="#A18344" d="M96.366,439.899c18.67-8.147,34.071-17.214,46.179-25.533c0.157-1.277,0.243-2.615,0.243-4.021
		c0-12.431-8.504-17.92-13.02-24.501c-25.553,17.108-51.8,27.354-68.532,32.771C66.184,435.99,86.687,439.313,96.366,439.899z"/>
	<circle fill="#CCA456" cx="101.465" cy="370.701" r="20.755"/>
	<circle fill="#563C13" cx="101.464" cy="370.701" r="18.415"/>
	<circle fill="#CCA456" cx="101.465" cy="370.702" r="13.094"/>
	<circle fill="#7A6334" cx="101.465" cy="370.701" r="10.84"/>
	<path fill="#66532B" d="M101.465,359.864c-5.985,0-10.84,4.854-10.84,10.839c0,0.165,0.005,0.33,0.014,0.493
		c2.324-1.451,5.878-2.891,10.826-2.891c4.95,0,8.503,1.438,10.827,2.891c0.008-0.163,0.015-0.328,0.015-0.493
		C112.305,364.716,107.452,359.864,101.465,359.864z"/>
	<polygon fill="#CCA456" points="102.489,358.949 100.44,358.949 100.44,354.983 104.499,354.983 104.499,351.875 106.548,351.875 
		106.548,357.031 102.489,357.031 	"/>
	<polygon fill="#CCA456" points="114.725,364.629 111.856,361.76 110.5,363.116 109.051,361.668 111.856,358.864 114.725,361.733 
		116.924,359.534 118.371,360.985 	"/>
	<polygon fill="#CCA456" points="120.291,375.784 115.135,375.784 115.135,371.727 113.217,371.727 113.217,369.678 
		117.184,369.678 117.184,373.737 120.291,373.737 	"/>
	<polygon fill="#CCA456" points="111.183,387.61 107.538,383.963 110.408,381.094 109.051,379.737 110.5,378.288 113.304,381.096 
		110.434,383.963 112.633,386.159 	"/>
	<polygon fill="#CCA456" points="98.431,389.53 96.383,389.53 96.383,384.375 100.44,384.375 100.44,382.453 102.489,382.453 
		102.489,386.423 98.431,386.423 	"/>
	<polygon fill="#CCA456" points="91.074,382.543 88.204,379.673 86.008,381.868 84.558,380.422 88.204,376.777 91.074,379.647 
		92.43,378.288 93.88,379.737 	"/>
	<polygon fill="#CCA456" points="89.713,371.727 85.744,371.727 85.744,367.668 82.637,367.669 82.637,365.62 87.793,365.618 
		87.793,369.678 89.713,369.678 	"/>
	<polygon fill="#CCA456" points="92.43,363.116 89.626,360.312 92.496,357.442 90.299,355.244 91.746,353.797 95.392,357.442 
		92.522,360.312 93.88,361.668 	"/>
	<path fill="#6E582E" d="M127.326,408.93c0,0.452-0.366,0.817-0.819,0.817H78.479c-0.453,0-0.818-0.365-0.818-0.817v-5.99
		c0-0.452,0.365-0.819,0.818-0.819h48.026c0.453,0,0.819,0.367,0.819,0.819L127.326,408.93L127.326,408.93z"/>
	<path fill="#49443B" d="M127.326,407.086c0,0.452-0.366,0.818-0.819,0.818H78.479c-0.453,0-0.818-0.366-0.818-0.818v-5.989
		c0-0.452,0.365-0.819,0.818-0.819h48.026c0.453,0,0.819,0.367,0.819,0.819L127.326,407.086L127.326,407.086z"/>
	<path fill="#563C13" d="M93.944,362.897l2.629-81.276h4.893h4.892l2.631,81.276c0,0-3.758-2.867-7.521-2.867
		S93.944,362.897,93.944,362.897z"/>
	<polygon fill="#928F80" points="96.523,283.16 106.406,283.16 106.381,282.341 96.55,282.341 	"/>
	<polygon fill="#928F80" points="96.323,289.377 106.607,289.377 106.58,288.558 96.348,288.558 	"/>
	<polygon fill="#928F80" points="96.121,295.594 106.808,295.594 106.781,294.774 96.147,294.774 	"/>
	<polygon fill="#928F80" points="95.949,300.907 106.98,300.907 106.954,300.09 95.976,300.09 	"/>
	<polygon fill="#928F80" points="95.773,306.327 107.155,306.327 107.13,305.51 95.801,305.51 	"/>
	<polygon fill="#928F80" points="95.607,311.493 107.323,311.493 107.297,310.676 95.633,310.676 	"/>
	<polygon fill="#928F80" points="95.442,316.551 107.486,316.551 107.461,315.733 95.469,315.733 	"/>
	<polygon fill="#928F80" points="95.297,321.063 107.633,321.063 107.607,320.242 95.323,320.242 	"/>
	<polygon fill="#928F80" points="95.154,325.465 107.775,325.465 107.749,324.645 95.181,324.645 	"/>
	<polygon fill="#928F80" points="95.02,329.612 107.91,329.612 107.883,328.791 95.047,328.791 	"/>
	<polygon fill="#928F80" points="94.89,333.614 108.039,333.614 108.012,332.794 94.918,332.794 	"/>
	<polygon fill="#928F80" points="94.767,337.433 108.162,337.433 108.135,336.614 94.794,336.614 	"/>
	<polygon fill="#928F80" points="94.652,340.967 108.276,340.967 108.251,340.149 94.679,340.149 	"/>
	<polygon fill="#928F80" points="94.539,344.504 108.39,344.504 108.365,343.684 94.565,343.684 	"/>
	<polygon fill="#928F80" points="94.425,348.037 108.506,348.037 108.479,347.219 94.45,347.219 	"/>
	<polygon fill="#928F80" points="94.309,351.573 108.62,351.573 108.594,350.754 94.336,350.754 	"/>
	<polygon fill="#BDBDBD" points="98.913,279.159 96.281,376.219 95.675,403.177 94.865,403.156 98.103,279.139 	"/>
	<polygon fill="#BDBDBD" points="101.086,279.173 99.857,375.938 99.51,403.181 98.701,403.171 100.276,279.162 	"/>
	<polygon fill="#BDBDBD" points="103.851,403.154 103.042,403.159 102.853,376.938 102.148,279.146 102.959,279.14 	"/>
	<polygon fill="#BDBDBD" points="107.633,403.168 106.823,403.187 106.242,377.86 103.982,279.18 104.792,279.161 	"/>
	<path fill="#BDBDBD" d="M113.639,402.632c0,0.423-0.343,0.766-0.766,0.766H91.39c-0.425,0-0.767-0.343-0.767-0.766l0,0
		c0-0.422,0.342-0.767,0.767-0.767h21.483C113.298,401.865,113.639,402.21,113.639,402.632L113.639,402.632z"/>
	<path fill="#9E7F43" d="M99.652,251.758c-0.188-2.566-1.295-3.048-3.212-3.048c-0.021,0-0.037,0.005-0.06,0.005
		c1.693,0.023,2.68,0.506,2.849,2.824c0.176,2.383,0.756,15.376,0.756,15.376s0.201,3.202-3.038,3.202
		c-1.598,0-2.7-1.126-2.809-3.681c0.002,0.331,0.003,0.658,0.003,0.976c0,3.049,1.248,4.354,3.053,4.354
		c3.489,0,3.271-3.448,3.271-3.448S99.842,254.324,99.652,251.758z"/>
	<path fill="#9E7F43" d="M103.525,251.758c0.188-2.566,1.295-3.048,3.212-3.048c0.021,0,0.037,0.005,0.06,0.005
		c-1.692,0.023-2.679,0.506-2.849,2.824c-0.176,2.383-0.756,15.376-0.756,15.376s-0.2,3.202,3.038,3.202
		c1.599,0,2.701-1.126,2.81-3.681c-0.002,0.331-0.003,0.658-0.003,0.976c0,3.049-1.248,4.354-3.054,4.354
		c-3.488,0-3.271-3.448-3.271-3.448S103.336,254.324,103.525,251.758z"/>
	<path fill="#9E7F43" d="M94.139,260.18c-0.007-0.307-0.011-0.49-0.011-0.49l-0.221-9.393l-0.003,0.006L94.139,260.18z"/>
</g>
</svg>
