<?xml version="1.0" encoding="utf-8"?>
<!-- Generator: Adobe Illustrator 14.0.0, SVG Export Plug-In . SVG Version: 6.00 Build 43363)  -->
<!DOCTYPE svg PUBLIC "-//W3C//DTD SVG 1.1//EN" "http://www.w3.org/Graphics/SVG/1.1/DTD/svg11.dtd">
<svg version="1.1" id="content" xmlns="http://www.w3.org/2000/svg" xmlns:xlink="http://www.w3.org/1999/xlink" x="0px" y="0px"
	 width="500px" height="500px" viewBox="0 0 500 500" enable-background="new 0 0 500 500" xml:space="preserve">
<rect id="position" x="-0.008" y="0.008" display="none" fill="none" stroke="#000000" width="500" height="500"/>
<g id="bounds" display="none">
	
		<rect x="123.193" y="-61.635" display="inline" fill="none" stroke="#000000" stroke-width="0.7874" width="252.728" height="266.623"/>
</g>
<g>
	<path opacity="0.3" fill="#301B09" d="M175.768,103.744c-1.377,0-2.617-0.954-2.927-2.354c-0.357-1.618,0.665-3.219,2.283-3.576
		c0.377-0.083,38.121-8.326,74.439-8.326s74.063,8.243,74.439,8.326c1.618,0.357,2.64,1.958,2.283,3.576
		c-0.357,1.619-1.96,2.638-3.576,2.283c-0.371-0.082-37.499-8.185-73.146-8.185c-35.671,0-72.775,8.103-73.146,8.185
		C176.2,103.721,175.982,103.744,175.768,103.744L175.768,103.744z"/>
	<path fill="#4F7010" d="M249.564,39.75c0,0-46.719-1.321-84.063,20.622c7.174,25.318,10.271,37.372,10.271,37.372
		s37.382-8.255,73.793-8.255s73.793,8.255,73.793,8.255s3.097-12.053,10.271-37.372C296.283,38.429,249.564,39.75,249.564,39.75z"/>
	<polygon fill="#6D9B16" points="249.564,48.979 238.846,63.477 249.564,80.298 260.282,63.477 	"/>
	<polygon fill="#6D9B16" points="281.874,51.541 270.287,65.352 279.952,82.799 291.682,66.669 	"/>
	<polygon fill="#6D9B16" points="313.753,55.88 301.81,69.385 311.017,87.077 323.165,71.258 	"/>
	<polygon fill="#6D9B16" points="217.255,51.541 228.842,65.352 219.177,82.799 207.446,66.669 	"/>
	<polygon fill="#6D9B16" points="185.376,55.88 197.318,69.385 188.111,87.077 175.964,71.258 	"/>
	<path fill="#16D38A" d="M254.666,42.799c2.698,0.081,6.375,0.261,10.775,0.652v-6.087c-4.385-0.367-8.058-0.528-10.775-0.594
		V42.799z"/>
	<path fill="#B7A608" d="M265.441,43.451c3.237,0.288,6.863,0.689,10.775,1.249v-6.141c-3.915-0.54-7.539-0.924-10.775-1.195V43.451
		z"/>
	<path fill="#CC7227" d="M276.217,44.699c3.4,0.486,7.014,1.091,10.775,1.846v-6.197c-3.769-0.733-7.381-1.321-10.775-1.789V44.699z
		"/>
	<path fill="#BA0CB6" d="M286.992,46.545c3.484,0.698,7.095,1.527,10.775,2.503v-6.273c-3.691-0.95-7.299-1.75-10.775-2.427V46.545z
		"/>
	<path fill="#E5C641" d="M297.767,49.048c3.543,0.939,7.15,2.019,10.775,3.257v-6.378c-3.639-1.199-7.244-2.244-10.775-3.152V49.048
		z"/>
	<path fill="#B7A608" d="M307.241,51.893c3.591,1.227,7.198,2.61,10.775,4.17v-6.545c-3.596-1.497-7.201-2.825-10.775-4.003V51.893z
		"/>
	<path fill="#C14270" d="M318.016,56.063c3.641,1.587,7.248,3.357,10.775,5.331v-6.827c-3.554-1.867-7.159-3.543-10.775-5.049
		V56.063z"/>
	<path fill="#8CB22F" d="M333.845,57.374c-1.669-0.981-3.355-1.915-5.054-2.807v6.827c0.674,0.377,1.347,0.76,2.015,1.152
		c0.478,0.281,1,0.414,1.517,0.414c1.028,0,2.03-0.53,2.59-1.48C335.752,60.052,335.274,58.213,333.845,57.374z"/>
	<path fill="#16D38A" d="M244.295,42.799c-2.698,0.081-6.375,0.261-10.775,0.652v-6.087c4.385-0.367,8.058-0.528,10.775-0.594
		V42.799z"/>
	<path fill="#B7A608" d="M233.519,43.451c-3.237,0.288-6.863,0.689-10.775,1.249v-6.141c3.915-0.54,7.539-0.924,10.775-1.195V43.451
		z"/>
	<path fill="#CC7227" d="M222.744,44.699c-3.4,0.486-7.014,1.091-10.775,1.846v-6.197c3.769-0.733,7.381-1.321,10.775-1.789V44.699z
		"/>
	<path fill="#BA0CB6" d="M211.969,46.545c-3.484,0.698-7.095,1.527-10.775,2.503v-6.273c3.691-0.95,7.299-1.75,10.775-2.427V46.545z
		"/>
	<path fill="#E5C641" d="M201.193,49.048c-3.543,0.939-7.15,2.019-10.775,3.257v-6.378c3.639-1.199,7.244-2.244,10.775-3.152V49.048
		z"/>
	<path fill="#B7A608" d="M190.418,52.305c-3.591,1.227-7.198,2.61-10.775,4.17V49.93c3.596-1.497,7.201-2.825,10.775-4.003V52.305z"
		/>
	<path fill="#C14270" d="M179.642,56.475c-3.641,1.587-7.248,3.357-10.775,5.331v-6.827c3.554-1.867,7.159-3.543,10.775-5.049
		V56.475z"/>
	<path fill="#8CB22F" d="M163.813,57.786c1.669-0.981,3.355-1.915,5.054-2.807v6.827c-0.674,0.377-1.347,0.76-2.015,1.152
		c-0.478,0.281-1,0.414-1.517,0.414c-1.028,0-2.03-0.53-2.59-1.48C161.907,60.464,162.385,58.625,163.813,57.786z"/>
	<path fill="#CC7227" d="M254.666,36.77c-2.804-0.067-4.594-0.034-5.102-0.021c-0.54-0.014-2.541-0.051-5.674,0.036v6.03
		c3.469-0.115,5.495-0.07,5.59-0.065c0.055,0.001,0.113,0.001,0.168,0c0.089-0.003,1.9-0.043,5.018,0.05V36.77z"/>
	<path fill="#16D38A" d="M244.428,92.548c1.713-0.036,3.426-0.06,5.136-0.06s3.423,0.024,5.135,0.06v-6.001
		c-1.712-0.035-3.425-0.059-5.135-0.059s-3.423,0.024-5.136,0.059V92.548z"/>
	<path fill="#B7A608" d="M254.631,92.547c3.438,0.07,6.872,0.208,10.271,0.4v-6.008c-3.399-0.189-6.832-0.324-10.271-0.393V92.547z"
		/>
	<path fill="#CC7227" d="M264.833,92.943c3.475,0.196,6.909,0.446,10.271,0.739v-6.019c-3.363-0.289-6.797-0.535-10.271-0.728
		V92.943z"/>
	<path fill="#BA0CB6" d="M275.035,93.676c3.518,0.306,6.958,0.654,10.271,1.032v-6.034c-3.318-0.373-6.755-0.716-10.271-1.017
		V93.676z"/>
	<path fill="#E5C641" d="M285.237,94.699c3.59,0.409,7.023,0.85,10.271,1.3v-6.054c-3.253-0.445-6.691-0.878-10.271-1.279V94.699z"
		/>
	<path fill="#B7A608" d="M295.439,95.954c3.709,0.514,7.156,1.039,10.271,1.545v-6.076c-3.135-0.502-6.582-1.02-10.271-1.523V95.954
		z"/>
	<path fill="#C14270" d="M305.641,97.489c4.044,0.656,7.529,1.278,10.271,1.793V93.18c-2.824-0.522-6.296-1.131-10.271-1.768V97.489
		z"/>
	<path fill="#8CB22F" d="M326.114,96.54c-0.366-0.863-1.125-1.544-2.11-1.762c-0.104-0.023-3.107-0.679-8.16-1.611v6.102
		c4.263,0.801,6.772,1.348,6.867,1.369c1.433,0.314,2.85-0.453,3.403-1.758V96.54z"/>
	<path fill="#B7A608" d="M244.498,92.547c-3.438,0.07-6.872,0.208-10.271,0.4v-6.008c3.399-0.189,6.832-0.324,10.271-0.393V92.547z"
		/>
	<path fill="#CC7227" d="M234.296,92.943c-3.475,0.196-6.909,0.446-10.271,0.739v-6.019c3.363-0.289,6.797-0.535,10.271-0.728
		V92.943z"/>
	<path fill="#BA0CB6" d="M224.094,93.676c-3.518,0.306-6.958,0.654-10.271,1.032v-6.034c3.318-0.373,6.755-0.716,10.271-1.017
		V93.676z"/>
	<path fill="#E5C641" d="M213.891,94.699c-3.59,0.409-7.023,0.85-10.271,1.3v-6.054c3.253-0.445,6.691-0.878,10.271-1.279V94.699z"
		/>
	<path fill="#B7A608" d="M203.689,95.954c-3.709,0.514-7.156,1.039-10.271,1.545v-6.076c3.135-0.502,6.582-1.02,10.271-1.523V95.954
		z"/>
	<path fill="#C14270" d="M193.487,97.489c-4.044,0.656-7.529,1.278-10.271,1.793V93.18c2.824-0.522,6.296-1.131,10.271-1.768V97.489
		z"/>
	<path fill="#8CB22F" d="M173.014,96.54c0.366-0.863,1.125-1.544,2.11-1.762c0.104-0.023,3.107-0.679,8.16-1.611v6.102
		c-4.263,0.801-6.772,1.348-6.867,1.369c-1.433,0.314-2.85-0.453-3.403-1.758V96.54z"/>
</g>
</svg>
