<?xml version="1.0" encoding="utf-8"?>
<!-- Generator: Adobe Illustrator 14.0.0, SVG Export Plug-In . SVG Version: 6.00 Build 43363)  -->
<!DOCTYPE svg PUBLIC "-//W3C//DTD SVG 1.1//EN" "http://www.w3.org/Graphics/SVG/1.1/DTD/svg11.dtd">
<svg version="1.1" id="content" xmlns="http://www.w3.org/2000/svg" xmlns:xlink="http://www.w3.org/1999/xlink" x="0px" y="0px"
	 width="500px" height="500px" viewBox="0 0 500 500" enable-background="new 0 0 500 500" xml:space="preserve">
<rect id="position" x="0" y="0" display="none" fill="none" stroke="#000000" width="500" height="500"/>
<g id="bounds" display="none">
	
		<rect x="-78.9" y="83.194" display="inline" fill="none" stroke="#000000" stroke-width="1.3623" width="317.494" height="334.953"/>
</g>
<g>
	<path fill="#4A3112" d="M112.836,385.337C93.806,277.289,65.33,99.963,65.044,98.184l0.988-0.158
		c0.285,1.778,28.76,179.098,47.788,287.138L112.836,385.337L112.836,385.337z"/>
</g>
<g>
	<path fill="#A58D5D" d="M64.013,94.266c0.012,0,0.023,0,0.035,0c1.641,0,2.979,1.32,2.999,2.965
		c0.019,1.652,2.416,166.558,46.903,286.765c0.575,1.555-0.219,3.279-1.772,3.855h-1.971c0,0-31.041-99.5-36.076-150.357
		C68.106,186.977,61.574,95.573,61.574,95.573l2.054-1.521"/>
</g>
<g>
	<path fill="#89744E" d="M69.428,190.584c-3.636-42.479-5.005-81.715-5.419-96.318c-1.655,0.021-2.98,1.378-2.962,3.034
		c0.02,1.662,2.424,167.585,47.276,288.778c0.448,1.211,1.595,1.959,2.813,1.959c0.291,0,0.585-0.053,0.875-0.141
		C94.376,349.074,73.643,239.833,69.428,190.584z"/>
</g>
<g>
	<path fill="#4A3112" d="M67.234,109.851c-0.075,0-0.15-0.017-0.223-0.052l-6.082-3.019c-0.247-0.123-0.348-0.423-0.226-0.67
		c0.124-0.249,0.422-0.348,0.671-0.226l6.082,3.019c0.247,0.123,0.348,0.423,0.226,0.67
		C67.594,109.749,67.418,109.851,67.234,109.851L67.234,109.851z"/>
</g>
<g>
	<path fill="#4A3112" d="M67.518,112.061c-0.067,0-0.135-0.013-0.2-0.042l-6.366-2.774c-0.253-0.11-0.368-0.405-0.258-0.658
		c0.111-0.253,0.406-0.368,0.658-0.259l6.366,2.774c0.253,0.11,0.368,0.405,0.258,0.658
		C67.894,111.948,67.711,112.061,67.518,112.061L67.518,112.061z"/>
</g>
<g>
	<path fill="#4A3112" d="M67.518,114.363c-0.063,0-0.127-0.012-0.188-0.037l-6.427-2.617c-0.256-0.104-0.379-0.396-0.274-0.651
		c0.104-0.256,0.395-0.38,0.651-0.274l6.427,2.617c0.256,0.104,0.379,0.396,0.274,0.651
		C67.902,114.245,67.716,114.363,67.518,114.363L67.518,114.363z"/>
</g>
<circle fill="#895A22" cx="86.531" cy="348.881" r="23.677"/>
<path fill="#664319" d="M89.275,365.67c-0.176,1.314-0.675,2.484-1.521,3.423c-3.366,3.723-10.965,2.339-16.972-3.095
	c-6.008-5.432-8.149-12.854-4.782-16.576c3.365-3.723,10.965-2.338,16.973,3.095C87.468,356.581,89.798,361.76,89.275,365.67z"/>
<path fill="#9C6626" d="M85.849,327.764c0,0-14.258-0.055-18.848,14.678c4.956-4.487,15.436-0.143,17.222,2.436
	c-0.341-10.461,10.146-15.137,11.67-14.781C92.195,327.489,85.849,327.764,85.849,327.764z"/>
<path fill="#4A3112" d="M89.331,364.293c-0.101-3.693-2.373-8.172-6.358-11.776c-4.093-3.701-8.922-5.519-12.649-5.128
	c-1.643,3.938,0.162,9.59,4.708,13.701C79.656,365.272,85.589,366.475,89.331,364.293z"/>
</svg>
