<?xml version="1.0" encoding="utf-8"?>
<!-- Generator: Adobe Illustrator 14.0.0, SVG Export Plug-In . SVG Version: 6.00 Build 43363)  -->
<!DOCTYPE svg PUBLIC "-//W3C//DTD SVG 1.1//EN" "http://www.w3.org/Graphics/SVG/1.1/DTD/svg11.dtd">
<svg version="1.1" id="content" xmlns="http://www.w3.org/2000/svg" xmlns:xlink="http://www.w3.org/1999/xlink" x="0px" y="0px"
	 width="500px" height="500px" viewBox="0 0 500 500" enable-background="new 0 0 500 500" xml:space="preserve">
<rect id="position" x="-0.008" y="0.008" display="none" fill="none" stroke="#000000" width="500" height="500"/>
<g id="bounds" display="none">
	
		<rect x="101.825" y="-110.178" display="inline" fill="none" stroke="#000000" stroke-width="0.9205" width="295.464" height="311.71"/>
</g>
<g>
	<path fill="#A87900" d="M206.39,32.842c0,0-8.727-41.146,31.601-81.478c-14.731,26.756,2.13,83.524,2.13,83.524L206.39,32.842z"/>
	<path fill="#D9B400" d="M295.225,72.354c0,0-16.901-43.833-7.414-70.458c-22.671,31.089-23.436,62.317-23.436,62.317
		L295.225,72.354z"/>
	<path opacity="0.3" fill="#210A00" enable-background="new    " d="M340.131,111.295c-38.188-22.944-90.422-20.435-90.422-20.435
		s-52.232-2.514-90.421,20.435c-5.207,10.968-5.997,13.011-5.997,13.011s28.826-23.918,96.418-23.918
		c67.594,0,96.419,23.918,96.419,23.918S345.338,122.263,340.131,111.295z"/>
	<path fill="#D9B400" d="M210.571,57.69c0,0-39.521-95.938,0-146.634c-2.453,50.15,26.414,91.033,26.414,91.033L210.571,57.69z"/>
	<path fill="#C2A100" d="M234.208,2.164c0,0-21.035-12.858-26.021-40.588C196.283-0.475,221.881,48.52,221.881,48.52L234.208,2.164z
		"/>
	<path fill="#D9B400" d="M287.432,57.69c0,0,39.521-95.938,0-146.634c2.453,50.15-26.414,91.033-26.414,91.033L287.432,57.69z"/>
	<path fill="#C2A100" d="M265.082-1.348c0,0,19.749-9.346,24.73-37.072c11.907,37.948-13.692,86.943-13.692,86.943L265.082-1.348z"
		/>
	<path fill="#A87900" d="M279.95,71.781c0,0,4.771-57.711,56.624-99.711c-36.078,2.503-54.259,22.531-60.321,26.445
		c-21.813,35.949-30.926,69.931-30.926,69.931L279.95,71.781z"/>
	<path fill="#DB9E00" d="M260.684,40.258c0,0,5.265-25.192,35.017-37.926c-17.377,23.85-16.396,50.753-16.396,50.753l-10.285,7.922
		L260.684,40.258z"/>
	<path fill="#C99000" d="M224.8,68.972c0,0,6.956-61.341,61.334-88.082c-29.167,46.002-37.51,99.979-37.51,99.979l-29.965,0.067
		L224.8,68.972z"/>
	<path fill="#C99000" d="M268.087,59.249c0,0,26.433-62.813,70.163-69.932c-38.086,48.515-34.36,97.749-34.36,97.749L268.087,59.249
		z"/>
	<path fill="#D9B400" d="M257.57,63.814c0,0,16.245-31.085,51.599-37.201c-18.993,13.997-20.322,49.771-20.322,49.771L257.57,63.814
		z"/>
	<path fill="#A87900" d="M220.594,64.73c0,0-4.771-57.711-56.624-99.711c85.03,4.648,91.245,96.374,91.245,96.374L220.594,64.73z"/>
	<path fill="#DB9E00" d="M261.391,76.476c0,0-6.956-61.341-61.334-88.082c29.167,46.002,37.513,99.979,37.513,99.979l29.965,0.067
		L261.391,76.476z"/>
	<path fill="#C99000" d="M231.881,51.685c0,0-26.431-62.811-70.16-69.927c38.085,48.51,34.359,97.749,34.359,97.749L231.881,51.685z
		"/>
	<path fill="#D9B400" d="M237.675,72.878c0,0-12.278-41.854-45.688-47.813c20.821,21.242,27.812,62.896,27.812,62.896l18.423-14.945
		"/>
	<path fill="#C99000" d="M249.002-61.501c0,0-22.271,50.733-20.054,125.938c17.888,0,20.054,0,20.054,0s2.166,0,20.056,0
		C271.276-10.762,249.002-61.501,249.002-61.501z"/>
	<path fill="#6E2900" d="M140.924,161.056c30.694,0,65.589,0,65.589,0v-0.404c0,0-8.853-2.655-3.659-10.83
		c-14.988,0.846-18.483-10.502-13.755-18.126c-13.989,0.771-22.771-16.085-19.911-27.697
		C153.661,111.27,140.924,143.61,140.924,161.056z M167.762,123.283c0,0-13.099,6.933-22.343,22.34
		c5.25-17.521,13.065-29.624,18.37-34.132C163.496,116.35,167.762,123.283,167.762,123.283z M151.264,151.605
		c7.288-9.048,21.904-21.146,21.904-21.146s1.91,2.809,7.757,5.331c-0.955,3.281,0.701,7.337,0.701,7.337
		S166.292,145.643,151.264,151.605z M187.815,151.28c0,0,3.119,3.439,7.686,3.489c-1.653,2.189-0.384,4.378-0.384,4.378h-39.354
		C166.158,155.068,187.815,151.28,187.815,151.28z"/>
	<path fill="#D1D1D1" d="M206.273,161.897l0.851-2.671l-0.424,1.439l0.428-1.438c-0.03-0.01-3.265-1.01-4.154-3.407
		c-0.523-1.416-0.144-3.154,1.146-5.181l1.564-2.466l-2.917,0.164c-6.137,0.339-10.709-1.468-12.867-5.104
		c-1.839-3.097-1.651-7.311,0.474-10.73l1.52-2.446l-2.874,0.158c-4.991,0.271-9.718-1.977-13.318-6.321
		c-4.548-5.48-6.575-13.33-5.054-19.522l-2.914-0.72c-1.736,7.073,0.533,15.979,5.656,22.157c3.628,4.377,8.273,6.936,13.285,7.364
		c-1.592,3.896-1.39,8.164,0.646,11.598c1.45,2.445,5.016,6.328,13.062,6.604c-0.773,1.977-0.847,3.822-0.21,5.521
		C201.593,160.688,206.083,161.841,206.273,161.897L206.273,161.897z"/>
	<path fill="#D1D1D1" d="M138.034,164.253l3.583-1.867c0.275-0.145,27.847-14.374,49.181-14.374c0.182,0,0.356,0.001,0.536,0.003
		l0.033-3c-0.191-0.002-0.388-0.003-0.578-0.003c-17.493,0-38.291,8.864-46.741,12.841c8.917-17.146,30.297-32.197,30.527-32.354
		l-1.719-2.461c-1.037,0.725-25.558,17.979-33.326,37.465L138.034,164.253L138.034,164.253z"/>
	<circle fill="#F4DCDC" cx="173.103" cy="139.163" r="1.826"/>
	<circle fill="#F4DCDC" cx="165.107" cy="143.216" r="0.673"/>
	<circle fill="#F4DCDC" cx="168.072" cy="139.167" r="1.224"/>
	<path fill="#6E2900" d="M330.974,103.994c2.855,11.612-5.922,28.468-19.911,27.697c4.729,7.625,1.234,18.972-13.755,18.126
		c5.189,8.175-3.659,10.83-3.659,10.83v0.404c0,0,34.896,0,65.59,0C359.236,143.61,346.499,111.27,330.974,103.994z
		 M336.368,111.491c5.306,4.509,13.12,16.606,18.37,34.132c-9.244-15.407-22.344-22.34-22.344-22.34S336.664,116.35,336.368,111.491
		z M318.531,143.121c0,0,1.655-4.056,0.699-7.337c5.849-2.522,7.759-5.331,7.759-5.331s14.615,12.104,21.903,21.146
		C333.868,145.643,318.531,143.121,318.531,143.121z M344.401,159.147h-39.355c0,0,1.271-2.188-0.384-4.378
		c4.563-0.049,7.685-3.489,7.685-3.489S334.003,155.068,344.401,159.147z"/>
	<path fill="#D1D1D1" d="M293.886,161.897l-0.85-2.671l0.424,1.439l-0.428-1.438c0.032-0.01,3.265-1.01,4.153-3.407
		c0.524-1.416,0.145-3.154-1.146-5.181l-1.565-2.466l2.917,0.164c6.138,0.339,10.709-1.468,12.866-5.104
		c1.84-3.097,1.653-7.311-0.472-10.73l-1.521-2.446l2.874,0.158c4.989,0.271,9.719-1.977,13.319-6.321
		c4.546-5.48,6.575-13.33,5.053-19.522l2.913-0.72c1.739,7.073-0.531,15.979-5.652,22.157c-3.63,4.377-8.275,6.936-13.287,7.364
		c1.592,3.896,1.39,8.164-0.648,11.598c-1.449,2.445-5.014,6.328-13.06,6.604c0.771,1.977,0.847,3.822,0.21,5.521
		C298.568,160.688,294.077,161.841,293.886,161.897L293.886,161.897z"/>
	<path fill="#D1D1D1" d="M362.127,164.253l-3.583-1.867c-0.277-0.145-27.848-14.374-49.182-14.374c-0.183,0-0.356,0.001-0.536,0.003
		l-0.033-3c0.188-0.002,0.387-0.003,0.578-0.003c17.493,0,38.291,8.864,46.741,12.841c-8.917-17.146-30.299-32.197-30.526-32.354
		l1.717-2.461c1.039,0.725,25.556,17.979,33.328,37.465L362.127,164.253L362.127,164.253z"/>
	<circle fill="#F4DCDC" cx="327.056" cy="139.163" r="1.826"/>
	<circle fill="#F4DCDC" cx="335.052" cy="143.216" r="0.673"/>
	<circle fill="#F4DCDC" cx="332.089" cy="139.167" r="1.224"/>
	<path fill="#D9B400" d="M249.002-22.872c-15.598,32.33-16.475,87.313-16.475,87.313h16.475h16.477
		C265.476,64.441,264.599,9.458,249.002-22.872z"/>
	<path fill="#6E2900" d="M250.666,57.228c-97.622,0-93.054,58.708-93.054,58.708c25.964-25.963,93.054-24.233,93.054-24.233
		s67.09-1.729,93.056,24.231C343.719,115.936,348.288,57.228,250.666,57.228z"/>
	<circle fill="#943800" cx="310.802" cy="94.288" r="1.281"/>
	<circle fill="#943800" cx="321.502" cy="83.444" r="1.281"/>
	<circle fill="#943800" cx="314.344" cy="85.461" r="1.281"/>
	<circle fill="#943800" cx="309.521" cy="85.683" r="1.281"/>
	<circle fill="#943800" cx="321.233" cy="87.781" r="1.281"/>
	<circle fill="#A33F00" cx="311.864" cy="89.318" r="1.281"/>
	<circle fill="#A33F00" cx="314.965" cy="92.204" r="0.885"/>
	<circle fill="#A33F00" cx="316.76" cy="82.637" r="0.62"/>
	<circle fill="#A33D00" cx="318.326" cy="85.683" r="0.884"/>
	<circle fill="#A33F00" cx="311.694" cy="82.704" r="0.885"/>
	<circle fill="#C74C00" cx="306.662" cy="88.644" r="0.937"/>
	<circle fill="#C74C00" cx="325.485" cy="82.969" r="0.937"/>
	<circle fill="#C74C00" cx="316.505" cy="89.076" r="0.937"/>
	<circle fill="#943800" cx="299.772" cy="86.148" r="1.281"/>
	<circle fill="#943800" cx="310.47" cy="75.304" r="1.281"/>
	<circle fill="#943800" cx="303.314" cy="77.321" r="1.281"/>
	<circle fill="#943800" cx="298.491" cy="77.543" r="1.281"/>
	<circle fill="#943800" cx="310.203" cy="79.64" r="1.281"/>
	<circle fill="#A33F00" cx="300.834" cy="81.177" r="1.281"/>
	<circle fill="#A33F00" cx="303.934" cy="84.064" r="0.885"/>
	<circle fill="#A33F00" cx="305.729" cy="74.497" r="0.62"/>
	<circle fill="#A33D00" cx="307.296" cy="77.543" r="0.884"/>
	<circle fill="#A33F00" cx="300.664" cy="74.564" r="0.885"/>
	<circle fill="#C74C00" cx="295.631" cy="80.504" r="0.937"/>
	<circle fill="#C74C00" cx="314.455" cy="74.829" r="0.937"/>
	<circle fill="#C74C00" cx="305.473" cy="80.936" r="0.937"/>
	<circle fill="#943800" cx="190.529" cy="94.288" r="1.281"/>
	<circle fill="#943800" cx="179.831" cy="83.444" r="1.281"/>
	<circle fill="#943800" cx="186.987" cy="85.461" r="1.281"/>
	<circle fill="#943800" cx="191.81" cy="85.683" r="1.281"/>
	<circle fill="#943800" cx="180.098" cy="87.781" r="1.281"/>
	<circle fill="#A33F00" cx="189.468" cy="89.318" r="1.281"/>
	<circle fill="#A33F00" cx="186.367" cy="92.204" r="0.885"/>
	<circle fill="#A33F00" cx="184.572" cy="82.637" r="0.62"/>
	<circle fill="#A33D00" cx="183.006" cy="85.683" r="0.884"/>
	<circle fill="#A33F00" cx="189.637" cy="82.704" r="0.885"/>
	<circle fill="#C74C00" cx="194.671" cy="88.644" r="0.937"/>
	<circle fill="#C74C00" cx="175.846" cy="82.969" r="0.937"/>
	<circle fill="#C74C00" cx="184.828" cy="89.076" r="0.937"/>
	<circle fill="#943800" cx="201.559" cy="86.148" r="1.281"/>
	<circle fill="#943800" cx="190.861" cy="75.304" r="1.281"/>
	<circle fill="#943800" cx="198.017" cy="77.321" r="1.281"/>
	<circle fill="#943800" cx="202.841" cy="77.543" r="1.281"/>
	<circle fill="#943800" cx="191.129" cy="79.64" r="1.281"/>
	<circle fill="#A33F00" cx="200.498" cy="81.177" r="1.281"/>
	<circle fill="#A33F00" cx="197.397" cy="84.064" r="0.885"/>
	<circle fill="#A33F00" cx="195.601" cy="74.497" r="0.62"/>
	<circle fill="#A33D00" cx="194.037" cy="77.543" r="0.884"/>
	<circle fill="#A33F00" cx="200.668" cy="74.564" r="0.885"/>
	<circle fill="#C74C00" cx="205.701" cy="80.504" r="0.937"/>
	<circle fill="#C74C00" cx="186.877" cy="74.829" r="0.937"/>
	<circle fill="#C74C00" cx="195.857" cy="80.936" r="0.937"/>
	<path fill="#D1D1D1" d="M342.659,116.997C317.44,91.779,251.363,93.181,250.705,93.2c-0.752-0.021-66.825-1.409-92.032,23.797
		l-2.12-2.121c26.117-26.118,91.379-24.746,94.152-24.675c2.688-0.069,67.958-1.442,94.075,24.675L342.659,116.997L342.659,116.997z
		"/>
	<circle fill="#F4DCDC" cx="343.142" cy="115.347" r="2.984"/>
	<ellipse fill="#FFFFFF" cx="343.08" cy="113.945" rx="1.558" ry="1.079"/>
	<circle fill="#F4DCDC" cx="156.274" cy="115.347" r="2.983"/>
	<ellipse fill="#FFFFFF" cx="156.338" cy="113.945" rx="1.558" ry="1.079"/>
	<path fill="#D1D1D1" d="M249.706,90.865l-1.509-1.004c-8.489-5.648-20.938-16.695-20.419-23.962
		c0.104-1.486,0.82-3.551,3.643-4.896c2.168-1.037,4.396-1.563,6.617-1.563c6.757,0,11.226,4.771,11.411,4.971l0.257,0.276V90.865
		L249.706,90.865z M238.038,61.376c-1.934,0-3.875,0.462-5.779,1.373c-1.608,0.77-2.441,1.845-2.545,3.286
		c-0.367,5.212,8.649,14.591,18.053,21.18v-21.75C246.783,64.534,243.082,61.376,238.038,61.376L238.038,61.376z"/>
	<path fill="#F4DCDC" d="M248.525,89.486l-0.197-0.131c-0.271-0.179-0.553-0.367-0.819-0.556l-0.198-0.141l0.59-0.758l0.343,0.235
		v-1.205h1v1.412h-0.688l0.562,0.377l-0.119,0.16v0.405l-0.32,0.009L248.525,89.486L248.525,89.486z M246.895,88.376l-0.197-0.146
		c-0.263-0.188-0.53-0.377-0.803-0.57l-0.197-0.146l0.607-0.744l0.198,0.146c0.262,0.193,0.529,0.386,0.79,0.563l0.199,0.146
		L246.895,88.376L246.895,88.376z M245.296,87.227l-0.188-0.146c-0.271-0.188-0.527-0.391-0.79-0.583l-0.197-0.151l0.63-0.734
		l1.17,0.875L245.296,87.227L245.296,87.227z M249.235,86.464h-1v-1.412h1V86.464L249.235,86.464z M243.725,86.041l-0.188-0.151
		c-0.26-0.208-0.51-0.405-0.771-0.612l-0.188-0.146l0.643-0.716l1.147,0.899L243.725,86.041L243.725,86.041z M242.185,84.817
		l-0.188-0.146c-0.25-0.208-0.5-0.414-0.75-0.631l-0.188-0.15l0.67-0.706l0.183,0.16c0.25,0.207,0.5,0.414,0.75,0.612l0.188,0.155
		L242.185,84.817L242.185,84.817z M249.235,84.581h-1V83.17h1V84.581L249.235,84.581z M240.676,83.565l-0.181-0.16
		c-0.25-0.217-0.5-0.423-0.75-0.64l-0.183-0.16l0.683-0.688l1.103,0.951L240.676,83.565L240.676,83.565z M249.235,82.698h-1V81.29h1
		V82.698L249.235,82.698z M239.195,82.276l-0.183-0.158c-0.24-0.218-0.479-0.439-0.722-0.656l-0.181-0.16l0.697-0.678l1.08,0.979
		L239.195,82.276L239.195,82.276z M237.756,80.958l-0.171-0.169c-0.237-0.229-0.47-0.452-0.71-0.683l-0.17-0.169l0.722-0.646
		l1.039,0.998L237.756,80.958L237.756,80.958z M249.235,80.816h-1v-1.412h1V80.816L249.235,80.816z M236.355,79.593l-0.17-0.169
		c-0.237-0.235-0.46-0.461-0.688-0.696l-0.17-0.17l0.563-0.479l0.17,0.169l0.183-0.15c0.22,0.228,0.447,0.452,0.68,0.688l0.17,0.169
		L236.355,79.593L236.355,79.593z M249.235,78.933h-1v-1.412h1V78.933L249.235,78.933z M234.985,78.198l-0.16-0.179
		c-0.223-0.245-0.438-0.479-0.66-0.725l-0.159-0.182l0.762-0.604l0.158,0.179c0.25,0.269,0.449,0.49,0.649,0.706l0.17,0.17
		L234.985,78.198L234.985,78.198z M249.235,77.051h-1v-1.412h1V77.051L249.235,77.051z M233.676,76.75l-0.146-0.184
		c-0.223-0.254-0.433-0.499-0.643-0.753l-0.147-0.179l0.79-0.583l0.146,0.188c0.199,0.241,0.409,0.486,0.62,0.73l0.159,0.179
		L233.676,76.75L233.676,76.75z M232.426,75.253l-0.146-0.188c-0.2-0.264-0.4-0.518-0.593-0.771l-0.142-0.197l0.819-0.546
		l0.141,0.198c0.189,0.254,0.382,0.508,0.579,0.752l0.143,0.188L232.426,75.253L232.426,75.253z M249.235,75.168h-1v-1.412h1V75.168
		L249.235,75.168z M231.256,73.69l-0.141-0.193c-0.188-0.269-0.37-0.536-0.54-0.813l-0.13-0.198l0.851-0.485l0.131,0.207
		c0.171,0.254,0.354,0.518,0.528,0.776l0.13,0.188L231.256,73.69L231.256,73.69z M249.235,73.285h-1v-1.412h1V73.285L249.235,73.285
		z M230.185,72.062l-0.12-0.207c-0.17-0.292-0.327-0.575-0.479-0.854l-0.107-0.207l0.897-0.423l0.11,0.216
		c0.14,0.271,0.29,0.537,0.447,0.814l0.13,0.208L230.185,72.062L230.185,72.062z M249.235,71.403h-1V69.99h1V71.403L249.235,71.403z
		 M229.256,70.33l-0.101-0.222c-0.133-0.301-0.263-0.603-0.37-0.899l-0.08-0.229l0.95-0.301l0.08,0.229
		c0.1,0.271,0.22,0.556,0.35,0.847l0.093,0.217L229.256,70.33L229.256,70.33z M249.235,69.52h-1v-1.412h1V69.52L249.235,69.52z
		 M228.555,68.494l-0.063-0.229c-0.09-0.329-0.147-0.659-0.199-0.979l-0.028-0.235l0.988-0.113l0.029,0.229
		c0.04,0.278,0.101,0.574,0.181,0.876l0.062,0.226L228.555,68.494L228.555,68.494z M249.235,67.637h-1v-1.413h1V67.637
		L249.235,67.637z M229.225,66.536l-1-0.014v-0.23c0.013-0.353,0.04-0.697,0.107-1.021l0.04-0.231l0.99,0.169l-0.053,0.23
		c-0.05,0.273-0.077,0.561-0.09,0.856L229.225,66.536L229.225,66.536z M249.235,65.754h-1v-0.508
		c-0.053-0.061-0.12-0.122-0.213-0.207l-0.182-0.169l0.71-0.659l0.185,0.169c0.188,0.179,0.311,0.301,0.35,0.349l0.07,0.065
		l0.08,0.179V65.754L249.235,65.754z M229.475,64.861l-0.932-0.363l0.102-0.221c0.143-0.315,0.318-0.631,0.528-0.914l0.142-0.188
		l0.82,0.527l-0.143,0.193c-0.17,0.235-0.318,0.48-0.42,0.734L229.475,64.861L229.475,64.861z M247.546,64.531l-0.229-0.108
		c-0.22-0.184-0.47-0.376-0.75-0.584l-0.197-0.146l0.62-0.742l0.197,0.144c0.29,0.227,0.563,0.434,0.79,0.622l0.188,0.146
		L247.546,64.531L247.546,64.531z M245.985,63.429l-0.2-0.132c-0.263-0.169-0.529-0.33-0.819-0.499l-0.21-0.123l0.512-0.8
		l0.223,0.123c0.3,0.169,0.59,0.348,0.857,0.522l0.21,0.131L245.985,63.429L245.985,63.429z M230.405,63.42l-0.7-0.677l0.183-0.16
		c0.25-0.229,0.527-0.443,0.84-0.645l0.21-0.132l0.563,0.781l-0.199,0.132c-0.271,0.169-0.511,0.349-0.721,0.537L230.405,63.42
		L230.405,63.42z M244.345,62.459l-0.223-0.104c-0.277-0.141-0.567-0.271-0.88-0.4l-0.223-0.099l0.398-0.854l0.229,0.094
		c0.315,0.131,0.63,0.273,0.93,0.423l0.221,0.113L244.345,62.459L244.345,62.459z M231.875,62.384l-0.449-0.847l0.222-0.104
		c0.318-0.146,0.63-0.282,0.938-0.405l0.229-0.094l0.393,0.866l-0.229,0.084c-0.29,0.122-0.58,0.254-0.87,0.396L231.875,62.384
		L231.875,62.384z M242.585,61.697l-0.229-0.084c-0.3-0.104-0.602-0.193-0.92-0.277l-0.237-0.066l0.277-0.904l0.238,0.066
		c0.342,0.094,0.659,0.198,0.979,0.301l0.237,0.084L242.585,61.697L242.585,61.697z M233.645,61.641l-0.34-0.885l0.238-0.085
		c0.329-0.113,0.659-0.207,0.989-0.292l0.237-0.061l0.263,0.903l-0.239,0.066c-0.301,0.074-0.608,0.16-0.921,0.264L233.645,61.641
		L233.645,61.641z M240.745,61.16l-0.239-0.051c-0.311-0.057-0.631-0.104-0.948-0.146l-0.25-0.028l0.13-0.932l0.25,0.022
		c0.353,0.053,0.688,0.104,1.021,0.161l0.25,0.061L240.745,61.16L240.745,61.16z M235.495,61.133l-0.199-0.922l0.25-0.047
		c0.352-0.065,0.689-0.113,1.029-0.15l0.237-0.028l0.12,0.937l-0.25,0.023c-0.317,0.038-0.632,0.084-0.947,0.146L235.495,61.133
		L235.495,61.133z M238.855,60.897l-0.25-0.009c-0.317-0.01-0.642-0.019-0.96-0.01l-0.25,0.01l-0.04-0.941l0.25-0.01
		c0.358-0.009,0.7,0,1.04,0.01l0.239,0.014L238.855,60.897L238.855,60.897z"/>
	<path fill="#D1D1D1" d="M247.764,90.865V64.683l0.257-0.278c0.188-0.198,4.653-4.969,11.411-4.969c2.226,0,4.447,0.526,6.615,1.563
		c2.819,1.349,3.537,3.409,3.646,4.896c0.514,7.267-11.933,18.313-20.422,23.962L247.764,90.865L247.764,90.865z M249.706,65.464
		v21.751c9.397-6.589,18.42-15.968,18.051-21.18c-0.102-1.441-0.935-2.521-2.545-3.286c-1.902-0.911-3.849-1.373-5.777-1.373
		C254.365,61.376,250.681,64.531,249.706,65.464L249.706,65.464z"/>
	<path fill="#F4DCDC" d="M250.575,88.376l-0.603-0.753l0.197-0.146c0.263-0.179,0.53-0.367,0.79-0.563l0.2-0.146l0.607,0.744
		l-0.197,0.146c-0.271,0.193-0.54,0.386-0.803,0.57L250.575,88.376L250.575,88.376z M252.175,87.227l-0.617-0.744l1.17-0.875
		l0.63,0.734l-0.197,0.151c-0.263,0.192-0.521,0.395-0.79,0.583L252.175,87.227L252.175,87.227z M248.235,86.464v-1.412h1v1.412
		H248.235L248.235,86.464z M248.235,88.906v-1.407h1v1.407H248.235L248.235,88.906z M253.745,86.041l-0.643-0.729l1.147-0.899
		l0.643,0.715l-0.188,0.146c-0.26,0.207-0.51,0.404-0.771,0.612L253.745,86.041L253.745,86.041z M255.285,84.817l-0.66-0.707
		l0.188-0.155c0.25-0.198,0.5-0.405,0.75-0.612l0.183-0.16l0.67,0.706l-0.188,0.15c-0.25,0.217-0.5,0.424-0.75,0.631L255.285,84.817
		L255.285,84.817z M248.235,84.581V83.17h1v1.412L248.235,84.581L248.235,84.581z M256.795,83.565l-0.67-0.691l1.103-0.951
		l0.683,0.688l-0.183,0.16c-0.25,0.216-0.5,0.423-0.75,0.643L256.795,83.565L256.795,83.565z M248.235,82.698V81.29h1v1.407H248.235
		L248.235,82.698z M258.276,82.276l-0.7-0.678l1.08-0.979l0.697,0.678l-0.183,0.16c-0.237,0.217-0.479,0.438-0.72,0.659
		L258.276,82.276L258.276,82.276z M259.715,80.958l-0.71-0.669l1.04-0.998l0.723,0.646l-0.17,0.169
		c-0.24,0.229-0.473,0.452-0.71,0.683L259.715,80.958L259.715,80.958z M248.235,80.816v-1.412h1v1.412H248.235L248.235,80.816z
		 M261.115,79.593l-0.729-0.64l0.17-0.169c0.229-0.235,0.46-0.466,0.683-0.688l0.18,0.149l0.17-0.168l0.563,0.479l-0.17,0.17
		c-0.229,0.235-0.447,0.461-0.688,0.696L261.115,79.593L261.115,79.593z M248.235,78.933v-1.412h1v1.412H248.235L248.235,78.933z
		 M262.485,78.198l-0.763-0.631l0.17-0.17c0.198-0.216,0.397-0.438,0.647-0.706l0.16-0.179l0.76,0.603l-0.157,0.184
		c-0.223,0.245-0.438,0.479-0.66,0.725L262.485,78.198L262.485,78.198z M248.235,77.051v-1.412h1v1.412H248.235L248.235,77.051z
		 M263.795,76.75l-0.777-0.598l0.157-0.179c0.213-0.245,0.423-0.489,0.62-0.729l0.15-0.188l0.79,0.583l-0.15,0.178
		c-0.21,0.254-0.42,0.5-0.64,0.753L263.795,76.75L263.795,76.75z M265.045,75.253l-0.8-0.565l0.143-0.188
		c0.197-0.244,0.393-0.498,0.577-0.752l0.143-0.198l0.817,0.546l-0.14,0.197c-0.188,0.254-0.393,0.508-0.59,0.771L265.045,75.253
		L265.045,75.253z M248.235,75.168v-1.412h1v1.412H248.235L248.235,75.168z M266.215,73.69l-0.827-0.518l0.13-0.188
		c0.183-0.263,0.357-0.522,0.527-0.776l0.13-0.207l0.854,0.485l-0.133,0.198c-0.17,0.273-0.353,0.545-0.54,0.813L266.215,73.69
		L266.215,73.69z M248.235,73.285v-1.412h1v1.412H248.235L248.235,73.285z M267.285,72.062l-0.88-0.452l0.13-0.208
		c0.16-0.277,0.313-0.546,0.45-0.814l0.105-0.22l0.899,0.427L267.882,71c-0.146,0.277-0.311,0.563-0.479,0.854L267.285,72.062
		L267.285,72.062z M248.235,71.403V69.99h1v1.412L248.235,71.403L248.235,71.403z M268.215,70.329l-0.92-0.357l0.093-0.217
		c0.13-0.292,0.25-0.574,0.353-0.847l0.077-0.229l0.95,0.301l-0.08,0.229c-0.107,0.301-0.237,0.603-0.368,0.899L268.215,70.329
		L268.215,70.329z M248.235,69.52v-1.412h1v1.412H248.235L248.235,69.52z M268.915,68.494l-0.97-0.229l0.06-0.226
		c0.08-0.305,0.143-0.598,0.183-0.876l0.027-0.229l0.99,0.113l-0.03,0.236c-0.05,0.315-0.107,0.646-0.197,0.979L268.915,68.494
		L268.915,68.494z M248.235,67.637v-1.413h1v1.413H248.235L248.235,67.637z M268.245,66.536V66.3c-0.01-0.301-0.04-0.583-0.09-0.856
		l-0.053-0.23l0.988-0.169l0.04,0.231c0.069,0.32,0.104,0.668,0.109,1.021v0.23L268.245,66.536L268.245,66.536z M248.235,65.754
		v-0.781l0.077-0.179l0.068-0.065c0.039-0.047,0.159-0.17,0.354-0.349l0.18-0.169l0.71,0.659l-0.18,0.169
		c-0.093,0.085-0.16,0.146-0.21,0.207v0.508H248.235L248.235,65.754z M267.995,64.861l-0.103-0.227
		c-0.103-0.254-0.25-0.499-0.42-0.734l-0.143-0.193l0.82-0.527l0.14,0.188c0.21,0.281,0.393,0.597,0.53,0.912l0.1,0.221
		L267.995,64.861L267.995,64.861z M249.925,64.531l-0.617-0.668l0.188-0.146c0.229-0.188,0.5-0.396,0.79-0.622l0.197-0.144
		l0.62,0.742l-0.197,0.146c-0.28,0.208-0.53,0.4-0.75,0.584L249.925,64.531L249.925,64.531z M251.485,63.429l-0.57-0.772l0.21-0.131
		c0.271-0.179,0.563-0.354,0.86-0.522l0.22-0.123l0.51,0.8l-0.21,0.123c-0.29,0.169-0.56,0.33-0.817,0.499L251.485,63.429
		L251.485,63.429z M267.065,63.42l-0.17-0.16c-0.21-0.188-0.447-0.368-0.723-0.537l-0.197-0.132l0.563-0.781l0.21,0.132
		c0.313,0.197,0.59,0.414,0.84,0.645l0.183,0.16L267.065,63.42L267.065,63.42z M253.125,62.459l-0.46-0.828l0.223-0.113
		c0.3-0.146,0.607-0.292,0.93-0.423l0.229-0.094l0.4,0.854l-0.223,0.099c-0.313,0.132-0.603,0.264-0.882,0.4L253.125,62.459
		L253.125,62.459z M265.595,62.384l-0.229-0.104c-0.29-0.142-0.58-0.271-0.87-0.396l-0.229-0.084l0.393-0.866l0.229,0.094
		c0.313,0.123,0.617,0.259,0.938,0.405l0.22,0.104L265.595,62.384L265.595,62.384z M254.885,61.697l-0.352-0.885l0.237-0.084
		c0.318-0.104,0.643-0.208,0.979-0.301l0.24-0.066l0.277,0.904l-0.237,0.066c-0.32,0.084-0.62,0.179-0.92,0.277L254.885,61.697
		L254.885,61.697z M263.825,61.641l-0.229-0.085c-0.313-0.103-0.62-0.188-0.923-0.264l-0.237-0.066l0.263-0.903l0.237,0.061
		c0.33,0.085,0.66,0.179,0.987,0.292l0.24,0.085L263.825,61.641L263.825,61.641z M256.725,61.16l-0.21-0.913l0.25-0.062
		c0.33-0.056,0.67-0.108,1.021-0.16l0.25-0.023l0.13,0.933l-0.25,0.028c-0.317,0.047-0.641,0.094-0.95,0.146L256.725,61.16
		L256.725,61.16z M261.975,61.133l-0.237-0.047c-0.32-0.062-0.633-0.104-0.95-0.146l-0.25-0.023l0.12-0.938l0.237,0.029
		c0.343,0.037,0.683,0.084,1.027,0.15l0.25,0.047L261.975,61.133L261.975,61.133z M258.615,60.897l-0.03-0.938l0.24-0.015
		c0.34-0.009,0.68-0.019,1.04-0.009l0.25,0.009l-0.04,0.942l-0.25-0.01c-0.32-0.009-0.643,0-0.96,0.01L258.615,60.897
		L258.615,60.897z"/>
</g>
</svg>
