<?xml version="1.0" encoding="utf-8"?>
<!-- Generator: Adobe Illustrator 14.0.0, SVG Export Plug-In . SVG Version: 6.00 Build 43363)  -->
<!DOCTYPE svg PUBLIC "-//W3C//DTD SVG 1.1//EN" "http://www.w3.org/Graphics/SVG/1.1/DTD/svg11.dtd">
<svg version="1.1" id="content" xmlns="http://www.w3.org/2000/svg" xmlns:xlink="http://www.w3.org/1999/xlink" x="0px" y="0px"
	 width="500px" height="500px" viewBox="0 0 500 500" enable-background="new 0 0 500 500" xml:space="preserve">
<rect id="position" x="-0.008" y="0.008" display="none" fill="none" stroke="#000000" width="500" height="500"/>
<g id="bounds" display="none">
	
		<rect x="124.17" y="-78.495" display="inline" fill="none" stroke="#000000" stroke-width="0.7688" width="246.774" height="260.343"/>
</g>
<g>
	<path fill="#B4AB68" d="M207.494,85.808l-0.965-0.264c0.079-0.288,7.68-29.003-8.323-50.457
		c-7.094-9.271-14.173-10.941-18.078-9.556c-2.652,0.942-4.182,3.345-4.091,6.424l-1,0.029c-0.104-3.536,1.673-6.301,4.756-7.396
		c4.223-1.5,11.787,0.191,19.21,9.895C215.307,56.34,207.574,85.515,207.494,85.808L207.494,85.808z"/>
	<path fill="#B4AB68" d="M207.031,85.548c-0.008-0.17-0.889-17.078-12.223-20.645c-3.557-1.119-6.294-0.976-8.143,0.424
		c-2.742,2.08-2.638,6.318-2.637,6.361l-0.999,0.034c-0.007-0.194-0.127-4.79,3.027-7.188c2.12-1.611,5.166-1.81,9.051-0.586
		c12.005,3.777,12.89,20.83,12.922,21.555L207.031,85.548L207.031,85.548z"/>
	<path fill="#6AA345" d="M252.337,25.611c0,0-2.209-25.062-29.034-40.61c8.544,40.299-19.155,100.62-19.155,100.62l26.126,4.823
		L252.337,25.611z"/>
	<path fill="#83CC54" d="M270.191,46.191c0,0-1.424-32.096-19.021-44.896c5.486,23.631-19.488,74.506-45.822,84.398
		C237.643,84.179,270.191,46.191,270.191,46.191z"/>
	<path fill="#76B54C" d="M204.835,85.469l17.631,1.283l47.04-3.826c0,0,25.715-31.783,6.991-66.037
		C270.996,46.377,239.927,79.601,204.835,85.469z"/>
	<path opacity="0.2" fill="#2F3326" enable-background="new    " d="M204.146,85.619c0,0,19.89,14.94,46.004,14.241
		c26.113-0.699,35.178-14.792,35.178-14.792L204.146,85.619z"/>
	<path fill="#C5DD5E" d="M204.835,85.469c0,0,39.338,18.093,79.197,1.214c16.463-19.55,7.517-42.304,7.517-42.304
		S263.969,91.709,204.835,85.469z"/>
</g>
<circle fill="#F0F267" cx="177.08" cy="31.891" r="3.104"/>
<circle fill="#F0F267" cx="185.341" cy="70.521" r="3.104"/>
</svg>
