<?xml version="1.0" encoding="utf-8"?>
<!-- Generator: Adobe Illustrator 14.0.0, SVG Export Plug-In . SVG Version: 6.00 Build 43363)  -->
<!DOCTYPE svg PUBLIC "-//W3C//DTD SVG 1.1//EN" "http://www.w3.org/Graphics/SVG/1.1/DTD/svg11.dtd">
<svg version="1.1" id="content" xmlns="http://www.w3.org/2000/svg" xmlns:xlink="http://www.w3.org/1999/xlink" x="0px" y="0px"
	 width="500px" height="500px" viewBox="0 0 500 500" enable-background="new 0 0 500 500" xml:space="preserve">
<rect id="position" x="-0.008" y="0.008" display="none" fill="none" stroke="#000000" width="500" height="500"/>
<g id="bounds">
	<rect x="121.667" y="-45.246" fill="none" stroke="#000000" stroke-width="0.7968" width="255.784" height="269.841"/>
</g>
<g>
	<path fill="#B55894" d="M244.176,84.376c0,0-9.496-26.485,8.782-40.773c18.278-14.289,6.482-28.97,3.529-30.059
		c19.195,1.699,18.806,26.986,5.624,38.223s9.254,35.068,9.254,35.068L244.176,84.376z"/>
	<path fill="#8F8E4C" d="M291.876,34.077c0,0-16.79,15.451-16.751,39.166c-17.805,12.937-19.161,13.098-19.161,13.098
		S257.484,50.993,291.876,34.077z"/>
	<path fill="#DEDD6D" d="M306.052,27.712c0,0,9.59,11.494-2.477,29.007c-12,17.494-25.003,31.679-25.003,31.679l-22.539-1.627
		c0,0-3.036-12.545,17.753-29.479C287.154,46.639,303.988,47.366,306.052,27.712z"/>
	<path fill="#BDBC5D" d="M300.039,48.416c-33,15.345-32.813,35.469-32.813,35.469s4.347,0.682,4.837,0.878
		c0.3,0.121,14.556-11.045,25.569-19.726c1.969-2.652,3.97-5.439,5.944-8.318c3.252-4.72,4.921-8.998,5.639-12.736
		C306.846,45.179,303.847,46.638,300.039,48.416z"/>
	<path fill="#C45F9F" d="M293.693,83.255c0,0,7.234-12.134,23.579-24.268c16.345-12.133,16.033-28.292,13.405-34.166
		c-2.129,10.328-15.476,18.894-26.182,23.532c-10.706,4.64-32.354,16.566-33.271,40.044
		C283.013,87.18,293.693,83.255,293.693,83.255z"/>
	<path fill="#B55893" d="M317.272,58.988c10.815-8.028,14.335-17.818,14.719-25.227c-2.482,6.157-7.031,13.604-15.371,19.59
		c-17.491,12.555-29.296,27.687-29.296,27.687l6.244,2.263c0.082-0.03,0.125-0.045,0.125-0.045S300.927,71.121,317.272,58.988z"/>
	<path fill="#2C6E89" d="M269.796,88.11c0,0,4.9-12.612,36.404-16.977c23.795-3.007,28.666-16.563,28.666-16.563
		s2.947,18.456-20.269,29.245c-13.225,6.792-25.091,6.996-25.091,6.996L269.796,88.11z"/>
	<path fill="#23576B" d="M276.594,87.139l0.569,2.072l12.185,1.67c0,0,11.865-0.204,25.09-6.996
		c11.928-5.543,16.94-13.106,19.005-19.154C309.226,88.52,276.594,87.139,276.594,87.139z"/>
	<path fill="#8F8E4C" d="M210.036,29.989c0,0,16.79,15.452,16.751,39.166c17.805,12.938,19.161,13.099,19.161,13.099
		S244.427,46.904,210.036,29.989z"/>
	<path fill="#DEDD6D" d="M195.478,27.712c0,0-9.59,11.494,2.476,29.007c12,17.494,25.003,31.679,25.003,31.679l22.539-1.627
		c0,0,3.036-12.545-17.753-29.479C214.377,46.639,194.311,46.143,195.478,27.712z"/>
	<path fill="#C4C360" d="M227.743,57.292c-0.584-0.465-1.185-0.905-1.792-1.334c0.207,0.318,12.73,19.698,3.76,31.953l15.785-1.141
		C245.496,86.771,248.532,74.226,227.743,57.292z"/>
	<path fill="#C45F9F" d="M207.838,83.255c0,0-7.233-12.134-23.579-24.268c-16.345-12.133-16.032-28.292-13.404-34.166
		c2.128,10.328,15.475,18.894,26.181,23.532c10.706,4.64,32.354,16.566,33.271,40.044C218.517,87.18,207.838,83.255,207.838,83.255z
		"/>
	<path fill="#B55793" d="M198.385,48.954c16.437,10.438,10.868,29.773,10.868,29.773l12.476,6.89c0,0,4.472,0.419,8.444,0.819
		C228.251,65.174,209.13,53.829,198.385,48.954z"/>
	<path fill="#2C6E89" d="M231.895,88.179c0,0-4.9-12.613-36.404-16.977c-23.795-3.008-28.666-16.563-28.666-16.563
		s-2.947,18.456,20.27,29.245c13.224,6.792,25.09,6.996,25.09,6.996L231.895,88.179z"/>
	<path fill="#255C73" d="M211.138,90.827c14.683-3.473,16.473-5.209,16.473-5.209s-0.07-1.242-0.177-2.786
		c-4.629-3.931-13.765-9.001-31.241-11.524c0.479,0.19,13.613,5.557,10.331,18.966C208.584,90.608,210.176,90.76,211.138,90.827z"/>
	<path opacity="0.25" fill="#062927" enable-background="new    " d="M346.034,83.885c-7.446,14.71-19.93,26.479-47.832,10.345
		s-47.626-3.416-47.626-3.416s-19.724-12.718-47.626,3.416s-40.386,4.366-47.832-10.345c-5.694,21.733,10.745,65.104,53.811,65.104
		c22.019,0,41.647-17.651,41.647-17.651s19.63,17.652,41.648,17.652C335.289,148.99,351.728,105.618,346.034,83.885z
		 M290.197,127.178c-11.284-1.17-17.13-9.367-17.13-9.367s11.049-8.38,29.544-3.866c15.387,3.755,18.556-1.135,19.188-2.886
		c0.107-0.367,0.154-0.583,0.154-0.583s-0.026,0.229-0.154,0.583C320.872,114.218,315.126,129.281,290.197,127.178z M178.154,111.02
		c-0.128-0.354-0.154-0.583-0.154-0.583S178.047,110.653,178.154,111.02c0.632,1.751,3.801,6.642,19.188,2.886
		c18.495-4.514,29.545,3.866,29.545,3.866s-5.847,8.197-17.131,9.367C184.827,129.242,179.081,114.178,178.154,111.02z"/>
	<path fill="#3F95B9" d="M268.83,82.006c0,0,5.225-22.058-12.993-28.772c-18.217-6.715-13.078-23.245-13.078-23.245
		s-13.651,17.482,0.613,29.262c12.611,10.414,8.811,18.822,1.65,26.737C257.592,90.067,268.83,82.006,268.83,82.006z"/>
	<path fill="#3781A1" d="M245.094,86.008c12.521,4.018,23.705-3.979,23.705-3.979s2.482-10.423-1.884-19.128
		c-5.382,14.442-17.606,20.749-21.296,22.364c-0.202,0.231-0.408,0.462-0.616,0.692L245.094,86.008z"/>
	<path fill="#0D5451" d="M346.223,79.473c-7.446,14.71-19.931,26.479-47.832,10.345c-27.902-16.134-47.626-3.416-47.626-3.416
		s-19.725-12.718-47.626,3.416c-27.902,16.135-40.387,4.366-47.832-10.345c-5.694,21.733,10.744,65.105,53.81,65.105
		c22.019,0,41.648-17.652,41.648-17.652s19.63,17.652,41.647,17.652C335.478,144.578,351.918,101.207,346.223,79.473z
		 M291.373,122.806c-11.284-1.17-17.13-9.367-17.13-9.367s11.049-8.38,29.544-3.866c15.387,3.755,18.556-1.135,19.188-2.886
		c0.106-0.367,0.153-0.583,0.153-0.583s-0.025,0.229-0.153,0.583C322.048,109.846,316.302,124.909,291.373,122.806z
		 M178.154,106.687c-0.128-0.354-0.154-0.583-0.154-0.583S178.047,106.321,178.154,106.687c0.632,1.751,3.801,6.642,19.188,2.886
		c18.495-4.514,29.545,3.866,29.545,3.866s-5.847,8.197-17.131,9.367C184.827,124.909,179.081,109.846,178.154,106.687z"/>
	<polygon fill="#083634" points="250.558,91.923 253.416,100.718 262.664,100.718 255.182,106.154 258.04,114.949 250.558,109.513 
		243.077,114.949 245.934,106.154 238.453,100.718 247.701,100.718 	"/>
	<polygon fill="#D6E058" points="250.225,91.165 253.083,99.96 262.331,99.96 254.849,105.396 257.707,114.191 250.225,108.755 
		242.744,114.191 245.601,105.396 238.12,99.96 247.368,99.96 	"/>
	<circle fill="#148580" cx="275.187" cy="99.992" r="1.882"/>
	<circle fill="#148580" cx="268.092" cy="118.927" r="1.882"/>
	<circle fill="#148580" cx="254.649" cy="119.735" r="1.882"/>
	<circle fill="#148580" cx="309.439" cy="129.038" r="1.882"/>
	<circle fill="#148580" cx="295.487" cy="137.142" r="1.882"/>
	<circle fill="#148580" cx="277.069" cy="106.473" r="1.882"/>
	<circle fill="#148580" cx="304.874" cy="104.797" r="1.882"/>
	<circle fill="#148580" cx="321.552" cy="103.056" r="1.882"/>
	<circle fill="#148580" cx="275.463" cy="122.691" r="1.882"/>
	<circle fill="#148580" cx="291.876" cy="129.038" r="1.882"/>
	<circle fill="#148580" cx="286.727" cy="134.031" r="1.882"/>
	<circle fill="#148580" cx="317.852" cy="123.463" r="1.882"/>
	<circle fill="#148580" cx="335.896" cy="113.239" r="1.882"/>
	<circle fill="#148580" cx="317.096" cy="132.149" r="1.882"/>
	<circle fill="#148580" cx="295.808" cy="99.469" r="2.115"/>
	<circle fill="#148580" cx="337.065" cy="99.156" r="2.115"/>
	<circle fill="#148580" cx="261.901" cy="87.733" r="2.115"/>
	<circle fill="#148580" cx="268.091" cy="93.242" r="2.115"/>
	<circle fill="#127571" cx="278.574" cy="91.923" r="3.111"/>
	<circle fill="#127571" cx="278.299" cy="135.26" r="3.111"/>
	<circle fill="#17948F" cx="286.727" cy="99.992" r="2.629"/>
	<circle fill="#17948F" cx="304.959" cy="98.264" r="1.858"/>
	<circle fill="#17948F" cx="268.092" cy="99.726" r="1.858"/>
	<circle fill="#17948F" cx="269.635" cy="127.179" r="1.858"/>
	<circle fill="#17948F" cx="333.358" cy="106.305" r="1.858"/>
	<circle fill="#17948F" cx="261.051" cy="125.321" r="1.858"/>
	<circle fill="#17948F" cx="300.611" cy="132.149" r="1.858"/>
	<circle fill="#1EC4BD" cx="290.612" cy="92.575" r="1.264"/>
	<circle fill="#1EC4BD" cx="259.786" cy="94.33" r="1.264"/>
	<circle fill="#1EC4BD" cx="298.775" cy="104.32" r="1.264"/>
	<circle fill="#1EC4BD" cx="304.874" cy="138.406" r="1.264"/>
	<circle fill="#1EC4BD" cx="344.071" cy="91.987" r="1.264"/>
	<circle fill="#1EC4BD" cx="265.961" cy="106.534" r="1.264"/>
	<circle fill="#1EC4BD" cx="327.933" cy="114.949" r="1.264"/>
	<circle fill="#1EC4BD" cx="282.52" cy="127.179" r="1.264"/>
	<circle fill="#1EC4BD" cx="310.703" cy="100.98" r="1.264"/>
	<circle fill="#1EC4BD" cx="325.405" cy="125.915" r="1.264"/>
	<circle fill="#148580" cx="225.941" cy="99.992" r="1.882"/>
	<circle fill="#148580" cx="233.037" cy="118.927" r="1.882"/>
	<circle fill="#148580" cx="246.479" cy="119.735" r="1.882"/>
	<circle fill="#148580" cx="191.689" cy="129.038" r="1.882"/>
	<circle fill="#148580" cx="205.641" cy="137.142" r="1.882"/>
	<circle fill="#148580" cx="224.059" cy="106.473" r="1.882"/>
	<circle fill="#148580" cx="196.255" cy="104.797" r="1.882"/>
	<circle fill="#148580" cx="179.577" cy="103.056" r="1.882"/>
	<circle fill="#148580" cx="225.666" cy="122.691" r="1.882"/>
	<circle fill="#148580" cx="209.253" cy="129.038" r="1.882"/>
	<circle fill="#148580" cx="214.401" cy="134.031" r="1.882"/>
	<circle fill="#148580" cx="183.276" cy="123.463" r="1.882"/>
	<circle fill="#148580" cx="165.232" cy="113.239" r="1.882"/>
	<circle fill="#148580" cx="184.032" cy="132.149" r="1.882"/>
	<circle fill="#148580" cx="205.321" cy="99.469" r="2.115"/>
	<circle fill="#148580" cx="164.064" cy="99.156" r="2.115"/>
	<circle fill="#148580" cx="239.228" cy="87.733" r="2.115"/>
	<circle fill="#148580" cx="233.037" cy="93.242" r="2.115"/>
	<circle fill="#127571" cx="222.554" cy="91.923" r="3.111"/>
	<circle fill="#127571" cx="222.83" cy="135.26" r="3.111"/>
	<circle fill="#17948F" cx="214.401" cy="99.992" r="2.629"/>
	<circle fill="#17948F" cx="196.17" cy="98.264" r="1.858"/>
	<circle fill="#17948F" cx="233.037" cy="99.726" r="1.858"/>
	<circle fill="#17948F" cx="231.493" cy="127.179" r="1.858"/>
	<circle fill="#17948F" cx="167.77" cy="106.305" r="1.858"/>
	<circle fill="#17948F" cx="240.078" cy="125.321" r="1.858"/>
	<circle fill="#17948F" cx="200.517" cy="132.149" r="1.858"/>
	<circle fill="#1EC4BD" cx="210.517" cy="92.575" r="1.264"/>
	<circle fill="#1EC4BD" cx="241.342" cy="94.33" r="1.264"/>
	<circle fill="#1EC4BD" cx="202.354" cy="104.32" r="1.264"/>
	<circle fill="#1EC4BD" cx="196.254" cy="138.406" r="1.264"/>
	<circle fill="#1EC4BD" cx="157.058" cy="91.987" r="1.264"/>
	<circle fill="#1EC4BD" cx="235.167" cy="106.534" r="1.264"/>
	<circle fill="#1EC4BD" cx="173.196" cy="114.949" r="1.264"/>
	<circle fill="#1EC4BD" cx="218.609" cy="127.179" r="1.264"/>
	<circle fill="#1EC4BD" cx="190.425" cy="100.98" r="1.264"/>
	<circle fill="#1EC4BD" cx="175.724" cy="125.915" r="1.264"/>
</g>
</svg>
