<?xml version="1.0" encoding="utf-8"?>
<!-- Generator: Adobe Illustrator 14.0.0, SVG Export Plug-In . SVG Version: 6.00 Build 43363)  -->
<!DOCTYPE svg PUBLIC "-//W3C//DTD SVG 1.1 Basic//EN" "http://www.w3.org/Graphics/SVG/1.1/DTD/svg11-basic.dtd">
<svg version="1.1" baseProfile="basic" id="content"
	 xmlns="http://www.w3.org/2000/svg" xmlns:xlink="http://www.w3.org/1999/xlink" x="0px" y="0px" width="500px" height="500px"
	 viewBox="0 0 500 500" xml:space="preserve">
<rect id="position" y="0" display="none" fill="none" stroke="#000000" width="500" height="500"/>
<g id="bounds" display="none">
	
		<rect x="186.5" y="-25.16" display="inline" fill="none" stroke="#000000" stroke-width="0.5436" width="126.693" height="133.66"/>
</g>
<g>
	<path fill="#5C7599" d="M268.16,38.539c-10.047-9.799-14.012-17.375-14.012-17.375h-4.527h-4.28c0,0-4.342,7.576-14.389,17.375
		c-14.305,13.953-20.713,31.413-22.203,43.876c0,0,22.882-4.035,40.872-4.035s40.742,4.035,40.742,4.035
		C288.873,69.951,282.465,52.492,268.16,38.539z"/>
	<path fill="#EFF1F4" d="M278.829,51.507l-5.31,6.172l-11.709-11.005l-12.125,11.509l-12.254-11.509l-11.71,11.005l-5.334-6.264
		c-7.189,9.307-8.957,16.646-9.905,22.413c7.104-1.118,25.521,0,39.203,0c13.684,0,31.969-1.118,39.075,0
		C287.811,68.059,286.018,60.812,278.829,51.507z"/>
	<path fill="#995C5C" d="M287.961,70.814l-6.906-7.73l-7.47,8.683l-11.71-11.004L249.621,72.27l-12.254-11.508l-11.71,11.004
		l-7.47-8.683l-6.906,7.73c-1.277,4.137-2.11,8.073-2.532,11.602c0,0,22.882-4.035,40.872-4.035s40.872,4.035,40.872,4.035
		C290.07,78.887,289.238,74.95,287.961,70.814z"/>
	<path opacity="0.1" fill="#191919" d="M246.766,78.414c0.961-0.021,1.916-0.034,2.854-0.034c0.392,0,0.789,0.005,1.185,0.009
		c0.15,0,0.309-0.009,0.457-0.009c15.051,0,33.424,2.823,39.03,3.745c0.05-0.009,0.106,0.006,0.161,0.006
		c-0.346-2.742-0.938-5.727-1.788-8.854c-0.976-5.678-2.873-12.756-9.837-21.771l-0.036,0.042
		c-2.917-4.494-6.425-8.905-10.633-13.01c-10.048-9.799-14.011-17.375-14.011-17.375h-2.887h-1.643h-0.363
		C249.258,21.163,271.068,51.727,246.766,78.414z"/>
	<path fill="#804D4D" d="M210.207,83.322c-0.877,0-1.681-0.581-1.927-1.466c-0.295-1.064,0.329-2.167,1.394-2.461
		c1.218-0.337,30.391-8.175,79.686-0.046c1.091,0.18,1.828,1.208,1.648,2.298c-0.181,1.089-1.199,1.829-2.299,1.647
		c-48.437-7.986-77.677-0.126-77.967-0.046C210.563,83.299,210.384,83.322,210.207,83.322L210.207,83.322z"/>
	<circle fill="#EFF1F4" cx="249.621" cy="7.241" r="18.43"/>
	<path fill="#DCDEE0" d="M253.646,25.23c8.203-1.504,14.559-9.768,14.403-17.989c0-9.02-6.483-16.513-15.041-18.104
		C261.826-3.332,260.775,12.166,253.646,25.23z"/>
</g>
</svg>
