<?xml version="1.0" encoding="utf-8"?>
<!-- Generator: Adobe Illustrator 14.0.0, SVG Export Plug-In . SVG Version: 6.00 Build 43363)  -->
<!DOCTYPE svg PUBLIC "-//W3C//DTD SVG 1.1 Basic//EN" "http://www.w3.org/Graphics/SVG/1.1/DTD/svg11-basic.dtd">
<svg version="1.1" baseProfile="basic" id="content"
	 xmlns="http://www.w3.org/2000/svg" xmlns:xlink="http://www.w3.org/1999/xlink" x="0px" y="0px" width="500px" height="500px"
	 viewBox="0 0 500 500" xml:space="preserve">
<rect id="position" y="0" display="none" fill="none" stroke="#000000" width="500" height="500"/>
<g id="bounds" display="none">
	
		<rect id="_x3C_Path_x3E_" x="25.823" y="285.192" display="inline" fill="none" stroke="#000000" stroke-width="0.8203" width="191.188" height="201.7"/>
</g>
<g>
	<path fill="#BCBEBF" d="M135.421,470.094c1.224-0.269,1.999-1.477,1.734-2.698l-33.604-153.874c-0.267-1.226-1.475-2-2.697-1.733
		c-1.226,0.27-1.999,1.478-1.732,2.699l33.604,153.875C132.99,469.582,134.198,470.361,135.421,470.094L135.421,470.094z"/>
	<path fill="#D7D9DB" d="M132.722,468.362L99.12,314.487c-0.267-1.225,0.508-2.433,1.732-2.699l34.567,158.309
		C134.198,470.361,132.99,469.582,132.722,468.362z"/>
	<path fill="#6F6F70" d="M105.072,346.511c-0.265-1.227,0.512-2.434,1.735-2.698l1.955-0.426c1.224-0.27,2.431,0.51,2.696,1.729
		l4.434,20.345c0.266,1.225-0.51,2.434-1.732,2.696l-1.956,0.429c-1.224,0.268-2.432-0.511-2.697-1.731L105.072,346.511z"/>
	<path fill="#474747" d="M100.558,331.165c0,0-5.574-14.915-2.871-27.627c0.346-3.924-0.926-4.241-0.926-4.241
		c-1.685,0.313-2.14-0.552-1.809-1.521c0.33-0.969,3.213-4.075,6.669-4.545c3.458-0.467,6.115,4.706,6.115,4.706
		s-1.993,2.931-0.902,7.235c1.093,4.31-0.488,7.68,0.091,13.1c0.58,5.42,2.919,11.773,2.919,11.773l-6.991,4.405l-1.729,0.031
		L100.558,331.165z"/>
	<path fill="#D48100" d="M100.558,331.165l0.738,7.037c0,0,5.891,0.244,7.931-3.301c2.042-3.547,2.042-3.547,2.042-3.547
		s0.606-0.558-0.629-1.246c-0.654-0.337-1.35-1.678-1.35-1.678c-1.39,0.629-4.29,4.203-5.788,4.432
		C102.008,333.091,100.558,331.165,100.558,331.165z"/>
	<path fill="#D48100" d="M107.193,307.425l-5.463-4.471c-1.01-0.737-2.732-0.684-4.14,1.058c-0.137-0.296,0.396-3.934-0.829-4.715
		c0.671-1.62,2.838-2.933,4.64-3.635c1.801-0.702,1.633-2.322,1.633-2.322s2.763-1.313,6.046,0.764
		c1.966,1.352,1.965,2.278,1.596,2.853c-0.369,0.571-1.022,0.952-2.938,0.982c-1.175-1.089-4.231-0.814-4.779,1.613
		c-0.528,2.211,3.852,5.519,3.852,5.519C107.283,305.559,107.614,307.315,107.193,307.425z"/>
	<path fill="#5C5C5C" d="M97.558,304.209c0.367,0.014,0.705,0.194,0.979,0.646c0,0-0.379,16.762,4.963,25.785
		c0.464,1.371-1.923,2.104-2.878,0.628c-0.064-0.14-0.116-0.287-0.18-0.428C99.68,328.672,95.389,315.678,97.558,304.209z"/>
	<path fill="#BCBEBF" d="M122.557,450.32c0,0,0.019-0.961,1.559-1.435l6.276-1.87l6.486-0.911c1.597-0.21,2.015,0.657,2.015,0.657
		s5.284-0.664,6.452,1.23c0.265,0.587-0.838,1.396-0.838,1.396s-2.923-0.321-5.057,1.19c1.503,1.136,1.788,1.715,1.788,1.715
		s0.169,0.464-7.646,2.396c-0.646,0.597-1.384,0.665-1.384,0.665s-0.7,0.244-1.535-0.029c-7.91,1.495-7.948,1.002-7.948,1.002
		s0.019-0.644,0.912-2.299c-2.569-0.488-5.094,1.021-5.094,1.021s-1.339-0.277-1.342-0.922
		C117.474,451.914,122.557,450.32,122.557,450.32z"/>
	<path fill="#9FA0A1" d="M138.893,446.761c0,0,5.284-0.664,6.452,1.23c0.265,0.587-0.838,1.396-0.838,1.396s-2.923-0.321-5.057,1.19
		c1.503,1.136,1.788,1.714,1.788,1.714s0.116,0.375-5.458,1.838l-4.262-4.683l-0.401-1.842l0.632-0.786l5.129-0.722
		C138.475,445.894,138.893,446.761,138.893,446.761z"/>
	<path fill="#6F6F70" d="M127.418,450.219l0.387-4.444l4.395-0.957l2.304,3.832c0.104,0.108,0.187,0.224,0.213,0.358
		c0.188,0.854-1.302,1.902-3.326,2.347c-2.026,0.44-3.817,0.105-4.004-0.748C127.356,450.483,127.375,450.352,127.418,450.219z"/>
	<path fill="#BD7300" d="M101.084,302.639c1.563-2.826,0.646-5.67,0.104-6.889c0.068-0.026,0.144-0.063,0.213-0.09
		c1.801-0.702,1.633-2.322,1.633-2.322s2.763-1.313,6.046,0.764c1.966,1.352,1.965,2.278,1.596,2.853
		c-0.369,0.571-1.022,0.953-2.938,0.982c-1.175-1.089-4.231-0.814-4.779,1.614c-0.528,2.21,3.852,5.518,3.852,5.518
		c0.474,0.49,0.805,2.246,0.384,2.356l-5.463-4.473C101.54,302.815,101.319,302.715,101.084,302.639z"/>
</g>
</svg>
