<?xml version="1.0" encoding="utf-8"?>
<!-- Generator: Adobe Illustrator 14.0.0, SVG Export Plug-In . SVG Version: 6.00 Build 43363)  -->
<!DOCTYPE svg PUBLIC "-//W3C//DTD SVG 1.1 Basic//EN" "http://www.w3.org/Graphics/SVG/1.1/DTD/svg11-basic.dtd">
<svg version="1.1" baseProfile="basic" id="content"
	 xmlns="http://www.w3.org/2000/svg" xmlns:xlink="http://www.w3.org/1999/xlink" x="0px" y="0px" width="500px" height="500px"
	 viewBox="0 0 500 500" xml:space="preserve">
<rect id="position" y="0" display="none" fill="none" stroke="#000000" width="500" height="500"/>
<g id="bounds" display="none">
	<rect x="38.5" y="266.84" display="inline" fill="none" stroke="#000000" stroke-width="0.5436" width="126.693" height="133.66"/>
</g>
<g>
	<path fill="#73644C" d="M79.744,305.781c0,0-10.76,16.412-4.824,41.328c5.938,24.75,24.281,26.542,31.607,23.551
		c7.33-2.99,14.398-10.498,11.988-25.502c-1.615-9.209-10.459-15.604-6.258-18.929c3.063-2.371,5.58,1.953,7.762,5.2
		c2.184,3.247,8.92,4.787,10.576-2.833c1.66-7.62-4.031-20.021-11.809-22.931C110.986,302.749,79.562,305.799,79.744,305.781z"/>
	<path fill="#78664F" d="M112.228,338.194c-9.188-12.029-0.156-14.428,0.563-14.691c-9.939-5.92-26.404-3.815-36.117-0.762
		c-0.914,4.509-1.125,7.881-1.07,10.249c0,0,3.055,39.188,28.357,34.839C111.947,366.455,122.31,351.399,112.228,338.194z"/>
	<path fill="#78664F" d="M116.921,322.638c0,0,7.438,0.376,10.066-5.631c3.734,6.353,3.105,13.338-0.396,15.035
		C124.679,332.928,121.005,332.905,116.921,322.638z"/>
	<path fill="#A38F6C" d="M127.658,300.246"/>
	<path fill="#968364" d="M128.287,308.418c0.354-0.489,0.588-1.056,0.625-1.666c0.049-0.764-0.211-1.455-0.666-2.012
		c0.354-0.491,0.586-1.057,0.627-1.666c0.047-0.765-0.213-1.457-0.668-2.014c0.354-0.49,0.586-1.057,0.625-1.666
		c0.111-1.814-1.441-3.279-3.471-3.271c-1.172,0.006-2.234,0.512-2.955,1.278c-0.627-0.763-1.625-1.257-2.795-1.251
		c-1.174,0.006-2.234,0.511-2.959,1.276c-0.623-0.762-1.625-1.257-2.797-1.25c-1.17,0.006-2.23,0.511-2.953,1.277
		c-0.625-0.762-1.627-1.257-2.799-1.251c-1.174,0.006-2.236,0.513-2.955,1.278c-0.627-0.762-1.625-1.258-2.797-1.251
		c-1.174,0.006-2.234,0.511-2.955,1.277c-0.627-0.762-1.625-1.258-2.799-1.251c-1.172,0.006-2.232,0.51-2.955,1.277
		c-0.623-0.762-1.627-1.257-2.797-1.251c-1.174,0.006-2.234,0.513-2.953,1.277c-0.627-0.761-1.629-1.256-2.801-1.25
		s-2.233,0.51-2.954,1.277c-0.625-0.762-1.625-1.258-2.797-1.251c-2.028,0.009-3.769,1.488-3.88,3.305
		c-0.049,0.767,0.212,1.458,0.666,2.015c-0.354,0.49-0.588,1.058-0.627,1.666c-0.047,0.765,0.216,1.456,0.666,2.014
		c-0.353,0.49-0.586,1.056-0.625,1.665c-0.047,0.764,0.213,1.456,0.668,2.014c-0.354,0.49-0.588,1.057-0.627,1.666
		c-0.109,1.814,1.441,3.278,3.474,3.271c1.172-0.005,2.229-0.511,2.953-1.277c0.625,0.763,1.627,1.256,2.798,1.251
		c1.174-0.008,2.234-0.512,2.953-1.277c0.627,0.761,1.629,1.256,2.801,1.251c1.172-0.007,2.232-0.512,2.953-1.278
		c0.625,0.763,1.627,1.256,2.799,1.251c1.172-0.006,2.232-0.511,2.957-1.277c0.625,0.763,1.625,1.256,2.795,1.25
		c1.174-0.006,2.234-0.511,2.957-1.276c0.625,0.761,1.623,1.256,2.797,1.25c1.17-0.005,2.232-0.511,2.953-1.277
		c0.627,0.763,1.629,1.256,2.797,1.25c1.172-0.005,2.234-0.51,2.957-1.276c0.625,0.763,1.625,1.257,2.799,1.25
		c1.172-0.005,2.232-0.511,2.953-1.276c0.627,0.761,1.627,1.256,2.797,1.25c2.029-0.008,3.77-1.488,3.883-3.306
		C129.001,309.667,128.742,308.975,128.287,308.418z"/>
	<path fill="#A38F6D" d="M79.339,296.344c1.173-0.007,2.173,0.489,2.798,1.251c0.722-0.77,1.784-1.271,2.954-1.277
		c1.172-0.006,2.174,0.489,2.801,1.25c0.719-0.767,1.781-1.271,2.953-1.277s2.174,0.489,2.797,1.251
		c0.723-0.77,1.785-1.271,2.955-1.277c1.174-0.007,2.172,0.489,2.799,1.251c0.721-0.769,1.781-1.271,2.955-1.277
		c1.172-0.007,2.17,0.489,2.797,1.251c0.719-0.768,1.781-1.272,2.955-1.278c1.172-0.006,2.174,0.489,2.799,1.251
		c0.721-0.769,1.783-1.271,2.953-1.277c1.172-0.007,2.174,0.488,2.797,1.25c0.723-0.768,1.785-1.271,2.959-1.276
		c1.17-0.006,2.168,0.488,2.795,1.251c0.721-0.769,1.783-1.272,2.955-1.278c1.719-0.008,3.084,1.046,3.396,2.472
		c0.035-0.155,0.063-0.313,0.072-0.479c0.111-1.814-1.441-3.28-3.471-3.271c-1.172,0.007-2.234,0.512-2.955,1.277
		c-0.627-0.762-1.625-1.257-2.795-1.251c-1.174,0.006-2.234,0.512-2.959,1.277c-0.623-0.762-1.625-1.257-2.797-1.25
		c-1.172,0.006-2.23,0.51-2.953,1.277c-0.625-0.763-1.627-1.258-2.799-1.251c-1.174,0.006-2.236,0.513-2.955,1.277
		c-0.627-0.761-1.625-1.257-2.797-1.251c-1.174,0.006-2.234,0.512-2.955,1.278c-0.627-0.762-1.625-1.258-2.799-1.251
		c-1.172,0.006-2.232,0.51-2.955,1.277c-0.623-0.763-1.627-1.258-2.797-1.251c-1.174,0.006-2.234,0.513-2.953,1.276
		c-0.627-0.76-1.629-1.255-2.801-1.25c-1.172,0.006-2.233,0.51-2.954,1.278c-0.625-0.762-1.625-1.258-2.797-1.251
		c-2.028,0.009-3.769,1.488-3.88,3.305c-0.02,0.285,0.02,0.556,0.08,0.815C75.893,297.591,77.488,296.352,79.339,296.344z"/>
</g>
</svg>
