<?xml version="1.0" encoding="utf-8"?>
<!-- Generator: Adobe Illustrator 14.0.0, SVG Export Plug-In . SVG Version: 6.00 Build 43363)  -->
<!DOCTYPE svg PUBLIC "-//W3C//DTD SVG 1.1 Basic//EN" "http://www.w3.org/Graphics/SVG/1.1/DTD/svg11-basic.dtd">
<svg version="1.1" baseProfile="basic" id="content"
	 xmlns="http://www.w3.org/2000/svg" xmlns:xlink="http://www.w3.org/1999/xlink" x="0px" y="0px" width="500px" height="500px"
	 viewBox="0 0 500 500" xml:space="preserve">
<g id="bounds" display="none">
	
		<rect x="109.881" y="-34.572" display="inline" fill="none" stroke="#000000" stroke-width="0.7253" width="280.719" height="296.148"/>
</g>
<rect id="position" y="0" display="none" fill="none" stroke="#000000" width="500" height="500"/>
<g>
	<path fill="#6C6359" d="M356.607,105.19c-11.135-17.907-31.758-25.15-31.758-25.15s-3.648-15.206-14.311-27.371
		c-19.02-24.177-60.916-21.896-60.916-21.896s-41.896-2.281-60.917,21.896C178.049,64.834,174.4,80.04,174.4,80.04
		s-20.623,7.244-31.758,25.15c-11.135,17.907-13.1,34.5-10.043,46.396c1.091,7.205,1.091,7.205,1.091,7.205l16.047,3.059
		c0,0,17.247-4.039,31.547-45.305c4.585-13.427,2.846-20.476,2.846-20.476c0.862-4.184,1.371-6.909,1.371-6.909l5.931-5.484
		c0,0,16.182,4.257,58.193,4.257c42.012,0,58.193-4.257,58.193-4.257l5.93,5.484c0,0,0.51,2.727,1.371,6.909
		c0,0-1.738,7.049,2.848,20.476c14.299,41.266,31.547,45.305,31.547,45.305l16.047-3.059c0,0,0,0,1.09-7.205
		C369.707,139.69,367.742,123.097,356.607,105.19z"/>
	<path opacity="0.1" fill="#161E10" d="M308.561,87.369l-58.937,7.28l-58.936-7.28l-1.301,10.99c0,0,14.719,6.831,60.236,6.831
		c45.518,0,60.236-6.831,60.236-6.831L308.561,87.369z"/>
	<path fill="#918673" d="M367.881,143.382c-0.059,1.541-0.289,3.235-0.783,6.23c-4.607,10.883-24.131,8.674-37.074-16.249
		c-10.01-19.272-11.59-41.365-11.59-41.365s2.768-5.117,0.334-12.416c-9.883-31.628-69.143-29.193-69.143-29.193
		s-59.259-2.435-69.142,29.193c-2.435,7.299,0.333,12.416,0.333,12.416s-3.363,23.61-12.676,43.271
		c-10.164,21.46-30.964,22.594-35.987,14.345c-0.495-2.996-0.726-4.69-0.783-6.23c-2.842,0.498-5.425,4.33-5.133,9.743
		c0.292,5.414,5.58,12.994,18.2,12.994c12.618,0,23.924-5.461,36.458-33.415s10.908-42.032,10.908-42.032
		c10.983,7.521,57.821,6.856,57.821,6.856s46.838,0.663,57.821-6.856c0,0-1.627,14.078,10.908,42.032
		c12.533,27.954,23.84,33.415,36.457,33.415c12.621,0,17.908-7.58,18.201-12.994S370.721,143.88,367.881,143.382z"/>
	<path opacity="0.5" fill="#796F64" d="M356.607,105.19c-4.457-7.166-10.432-12.621-15.998-16.591
		c0.254,11.407,2.354,26.381,10.484,36.239c4.65,5.645,10.645,9.261,16.658,11.581C366.947,127.075,363.572,116.39,356.607,105.19z"
		/>
	<path opacity="0.5" fill="#796F64" d="M142.642,105.19c4.457-7.166,10.432-12.621,15.997-16.591
		c-0.254,11.407-2.352,26.381-10.483,36.239c-4.653,5.645-10.646,9.261-16.659,11.581
		C132.302,127.075,135.677,116.39,142.642,105.19z"/>
	<ellipse fill="#635B52" cx="249.625" cy="30.773" rx="5.333" ry="3.173"/>
	<path fill="#8A806D" d="M344.957,160.79c-20.902-7.421-32.727-54.506-33.223-70.833c-0.111-3.712-0.18-6.124-0.217-7.646
		c-8.609,7.465-36.636,9.536-61.895,9.536c-25.259,0-53.284-2.071-61.893-9.536c-0.038,1.522-0.105,3.936-0.218,7.646
		c-0.495,16.327-12.318,63.411-33.223,70.833c-11.097,3.917-19.436,0.808-25.979-1.867c2.594,3.841,7.729,7.196,16.124,7.196
		c12.618,0,23.924-5.461,36.458-33.415C193.426,104.75,191.8,90.672,191.8,90.672c10.983,7.521,57.821,6.856,57.821,6.856
		s46.838,0.663,57.82-6.856c0,0-1.627,14.078,10.908,42.032c12.533,27.954,23.84,33.415,36.457,33.415
		c8.396,0,13.531-3.355,16.125-7.196C364.393,161.596,356.055,164.707,344.957,160.79z"/>
	<path fill="#968A77" d="M318.766,79.583c-9.883-31.628-69.142-29.193-69.142-29.193s-59.259-2.435-69.142,29.193
		c-0.669,2.003-0.937,3.833-0.985,5.447c5.587-7.304,24.944-27.2,70.067-27.2c45.463,0,64.772,20.197,70.19,27.363
		C319.721,83.541,319.457,81.655,318.766,79.583z"/>
</g>
</svg>
