<?xml version="1.0" encoding="utf-8"?>
<!-- Generator: Adobe Illustrator 14.0.0, SVG Export Plug-In . SVG Version: 6.00 Build 43363)  -->
<!DOCTYPE svg PUBLIC "-//W3C//DTD SVG 1.1 Basic//EN" "http://www.w3.org/Graphics/SVG/1.1/DTD/svg11-basic.dtd">
<svg version="1.1" baseProfile="basic" id="content"
	 xmlns="http://www.w3.org/2000/svg" xmlns:xlink="http://www.w3.org/1999/xlink" x="0px" y="0px" width="500px" height="500px"
	 viewBox="0 0 500 500" xml:space="preserve">
<rect id="position" y="0" display="none" fill="none" stroke="#000000" width="500" height="500"/>
<g id="bounds" display="none">
	
		<rect x="37.246" y="270.012" display="inline" fill="none" stroke="#000000" stroke-width="0.4771" width="111.201" height="117.314"/>
</g>
<g>
	<polygon fill="#E3CC7A" points="92.425,329.74 93.492,329.74 126.812,329.74 126.093,367.878 93.492,367.878 92.425,367.878 
		59.824,367.878 59.082,329.74 	"/>
	<rect x="82.389" y="330.487" fill="#C4486E" width="20.073" height="37.392"/>
	<rect x="92.425" y="318.768" fill="#EBD37D" width="37.713" height="11.72"/>
	<path fill="#D1BC70" d="M58.998,333.174l3.797-1.571h12.457l2.592,0.722c0.609,0.17,0.854,0.76,0.543,1.313l-4.559,8.069
		c-0.313,0.554-1.047,1.201-1.631,1.442l-12.761,4.938L58.998,333.174z"/>
	<polygon opacity="0.2" fill="#3D3721" points="126.8,330.34 126.785,330.316 59.091,330.156 59.091,330.261 59.425,333.69 
		126.736,333.69 	"/>
	<rect x="54.714" y="318.768" fill="#EBD37D" width="37.711" height="11.72"/>
	<polygon fill="#F2D982" points="68.186,311.363 92.425,311.363 116.666,311.363 130.138,318.768 92.425,318.768 54.714,318.768 	
		"/>
	<rect x="82.389" y="318.768" fill="#DB517B" width="20.073" height="11.72"/>
	<polygon fill="#E3547F" points="87.908,311.363 92.425,311.363 96.945,311.363 102.462,318.768 92.425,318.768 82.389,318.768 	"/>
	<path fill="none" stroke="#808080" stroke-width="1.2652" d="M90.337,312.611c0,0-13.703,17.954-19.215,15.966"/>
	<path opacity="0.2" fill="#6B283C" d="M118.775,316.472l-14.934-3.86c0,0-0.943-0.028-2.355,0.128
		c-2.439-0.356-5.602-0.573-9.063-0.573c-3.455,0-6.611,0.216-9.049,0.57c-1.405-0.152-2.34-0.125-2.34-0.125l-14.934,3.86
		c0,0,3.794,3.741,17.734-0.053c2.367,0.316,5.344,0.508,8.584,0.508c3.25,0,6.234-0.19,8.605-0.511
		C114.976,320.215,118.775,316.472,118.775,316.472z"/>
	<path fill="#EDEADC" d="M65.048,325.713c0.582-0.24,1.563-0.301,2.172-0.131l8.932,2.485c0.609,0.171,0.854,0.761,0.543,1.312
		l-4.559,8.072c-0.313,0.553-1.045,1.201-1.631,1.442l-13.857,5.738c-0.583,0.242-1.261-0.037-1.505-0.624l-4.575-11.052
		c-0.244-0.585,0.037-1.263,0.623-1.505L65.048,325.713z"/>
	<path fill="none" stroke="#D4D1C4" stroke-width="1.0121" d="M69.712,336.607c0.099-0.054,0.348-0.271,0.424-0.388l3.623-6.414
		l-7.129-1.983c-0.024-0.002-0.086-0.004-0.151-0.004c-0.2,0-0.368,0.031-0.417,0.049l-12.92,5.351l3.624,8.753L69.712,336.607z"/>
	<path fill="#BD466A" d="M92.443,314.542c0,0,8.789-0.373,14.797,1.33c6.012,1.702,15.059,3.908,16.32-2.229
		c-0.066-5.598-11.176-11.627-11.176-11.627l-19.941,11.642V314.542L92.443,314.542z"/>
	<path fill="#A63D5D" d="M123.56,313.645c-0.053-4.172-6.221-8.59-9.359-10.569c-1.383,0.208-3.031,0.455-4.484,0.676l-4.752,3.087
		c-1.07,2.59-2.547,6.241-2.547,6.241s10.537-3.733,14.748-0.706c2.625,1.891,2.93,3.807,2.783,4.98
		C121.773,316.854,123.128,315.745,123.56,313.645z"/>
	<path fill="#D64F78" d="M92.423,306.379c-0.029,0.021,9.6,0.726,14.795-15.99c2.396-7.703,9.461-6.137,12.291-0.029
		c2.025,4.387,0.584,7.021,2.512,9.821c2.563,3.724,2.844,10.09,1.475,13.646c-1.729-5.488-8.098-8.329-14.219-4.165
		c-8.525,5.8-16.834,4.814-16.834,4.814L92.423,306.379z"/>
	<path fill="#BD466A" d="M92.443,314.542c0,0-8.789-0.329-14.791,1.404c-6.005,1.73-15.039,3.982-16.33-2.147
		c0.039-5.596,11.116-11.681,11.116-11.681l20.005,11.54V314.542z"/>
	<path fill="#A63D5D" d="M61.322,313.799c0.028-4.17,6.174-8.618,9.305-10.614c1.387,0.2,3.035,0.439,4.488,0.652l4.771,3.063
		c1.084,2.581,2.575,6.229,2.575,6.229s-10.555-3.684-14.75-0.633c-2.616,1.901-2.909,3.82-2.76,4.994
		C63.126,317,61.763,315.899,61.322,313.799z"/>
	<path fill="#D64F78" d="M92.423,306.379c0.029,0.021-9.598,0.773-14.879-15.916c-2.434-7.689-9.489-6.088-12.287,0.029
		c-2.006,4.397-0.551,7.022-2.463,9.836c-2.545,3.734-2.797,10.104-1.408,13.649c1.703-5.495,8.057-8.368,14.197-4.233
		c8.557,5.756,16.857,4.729,16.857,4.729L92.423,306.379z"/>
	<path fill="#DE527C" d="M115.13,287.939c0,0-4.896-2.01-6.768,4.472c-2.572,8.275-8.004,12.309-8.004,12.309
		c6.793-1.675,8.979-8.475,18.707-6.938C118.978,291.189,117.236,288.738,115.13,287.939z"/>
	<path fill="#DE527C" d="M69.723,287.939c0,0,4.896-2.01,6.767,4.472c2.573,8.275,8.004,12.309,8.004,12.309
		c-6.791-1.675-8.978-8.475-18.705-6.938C65.876,291.189,67.617,288.738,69.723,287.939z"/>
	<path fill="#CC4B73" d="M100.361,308.153c0-4.086-3.158-7.398-7.053-7.398h-1.734c-3.896,0-7.053,3.313-7.053,7.398l0,0
		c0,4.087,3.156,7.399,7.053,7.399h1.734C97.203,315.553,100.361,312.24,100.361,308.153L100.361,308.153z"/>
	<path fill="#B84367" d="M100.355,308.266c-1.727,1.475-4.344,2.978-7.906,2.978c-3.574,0-6.195-1.51-7.924-2.988
		c0.053,4.039,3.186,7.3,7.049,7.3h1.734C97.167,315.553,100.298,312.299,100.355,308.266z"/>
	<ellipse fill="#D44E77" cx="92.484" cy="304.227" rx="4.582" ry="2.613"/>
</g>
</svg>
