<?xml version="1.0" encoding="utf-8"?>
<!-- Generator: Adobe Illustrator 14.0.0, SVG Export Plug-In . SVG Version: 6.00 Build 43363)  -->
<!DOCTYPE svg PUBLIC "-//W3C//DTD SVG 1.1 Basic//EN" "http://www.w3.org/Graphics/SVG/1.1/DTD/svg11-basic.dtd">
<svg version="1.1" baseProfile="basic" id="content"
	 xmlns="http://www.w3.org/2000/svg" xmlns:xlink="http://www.w3.org/1999/xlink" x="0px" y="0px" width="500px" height="500px"
	 viewBox="0 0 500 500" xml:space="preserve">
<g id="bounds" display="none">
	<rect x="74.164" y="-150.309" display="inline" fill="none" stroke="#000000" width="354.152" height="373.624"/>
</g>
<rect id="position" y="0" display="none" fill="none" stroke="#000000" width="500" height="500"/>
<g>
	<path fill="#A6885F" d="M249.564,60.074c-59.822,0-79.219,39.713-80.064,40.979l3.322,2.228
		c0.197-0.292,19.219-39.206,76.742-39.206c57.524,0,76.545,38.914,76.743,39.206l3.322-2.228
		C328.783,99.787,309.387,60.074,249.564,60.074z"/>
	<path fill="#A6885F" d="M326.788,94.441c0,0-8.913-10.57-14.906-5.95s11.701,28.108,19.985,21.443
		C337.195,105.315,326.788,94.441,326.788,94.441z"/>
	<path fill="#A6885F" d="M172.34,94.441c0,0,8.913-10.57,14.906-5.95s-11.701,28.108-19.985,21.443
		C161.933,105.315,172.34,94.441,172.34,94.441z"/>
	<path fill="#9E815B" d="M328.967,108.654c0,0,8.326-26.239,31.154-26.994c22.826-0.754,28.174-5.055,35.623-12.728
		c2.186-1.958-0.23-5.793-5.018-0.979c-3.373,3.265-21.807,6.753-27.197-2.246c15.814-14.19,23.715-40.989,24.32-63.188
		c-0.002-6.693-2.582-10.685-4.285-10.33c-1.703,0.353-0.344,9.673-4.453,19.352c-0.059-12.72-24.77-26.677-17.006-46.576
		c2.961-6.098,2.277-6.896,1.059-7.533c-1.219-0.639-17.09,11.987-6.912,34.294c10.18,22.305,23.01,34.366,4.053,56.936
		c-18.955,22.568-34.727,24.033-46.248,43.854C316.301,104.171,328.967,108.654,328.967,108.654z"/>
	<path fill="#A6885F" d="M387.85,2.52c0.115-6.691-2.58-10.685-4.283-10.33c-0.826,0.171-0.895,1.975-1.129,4.25
		c2.107,4.394,1.906,16.067-1.035,25.364c0.637-23.308-26.771-37.669-19.295-56.836c2.455-5.059,2.4-6.47,1.617-7.167
		c-3.861,5.382-12.459,20.428,0.012,36.146c13.105,16.52,15.285,37.484,11.643,56.528C381.127,40.252,387.494,22.784,387.85,2.52z"
		/>
	<path fill="#A6885F" d="M363.529,65.71c1.434-1.285,2.799-2.677,4.102-4.155c-0.904,0.969-11.146,11.79-22.758,16.83
		c9.285-1.313,18.178-4.49,25.492-7.819C367.488,69.714,365.014,68.187,363.529,65.71z"/>
	<path fill="#B39267" d="M354.787,54.756c-16.51,16.936-30.348,19.895-40.73,37.76c0.598,3.114,1.947,5.714,3.596,7.855
		c3.818-6.439,11.686-18.398,19.693-22.632C345.861,73.239,354.439,62.921,354.787,54.756z"/>
	<path fill="#9E815B" d="M170.162,108.654c0,0-8.327-26.238-31.154-26.994c-22.827-0.754-28.173-5.055-35.625-12.728
		c-2.186-1.958,0.232-5.793,5.018-0.979c3.373,3.265,21.807,6.753,27.197-2.246c-15.812-14.19-23.713-40.989-24.317-63.188
		c0-6.692,2.58-10.684,4.283-10.33c1.703,0.353,0.344,9.674,4.454,19.353c0.057-12.72,24.769-26.677,17.005-46.576
		c-2.959-6.098-2.277-6.896-1.059-7.533c1.218-0.639,17.091,11.987,6.913,34.293c-10.178,22.305-23.009,34.368-4.053,56.937
		c18.956,22.568,34.727,24.032,46.248,43.854C182.829,104.17,170.162,108.654,170.162,108.654z"/>
	<path fill="#A6885F" d="M111.28,2.519c-0.116-6.691,2.58-10.684,4.283-10.33c0.825,0.171,0.896,1.976,1.128,4.25
		c-2.107,4.394-1.907,16.067,1.036,25.364c-0.64-23.308,26.773-37.669,19.295-56.838c-2.455-5.057-2.402-6.468-1.618-7.167
		c3.861,5.384,12.458,20.43-0.011,36.146c-13.107,16.52-15.285,37.485-11.64,56.529C118.001,40.252,111.634,22.784,111.28,2.519z"/>
	<path fill="#A6885F" d="M135.598,65.71c-1.432-1.285-2.798-2.677-4.1-4.155c0.903,0.969,11.145,11.79,22.756,16.83
		c-9.285-1.313-18.177-4.49-25.492-7.819C131.638,69.714,134.113,68.188,135.598,65.71z"/>
	<path fill="#B39267" d="M144.34,54.756c16.51,16.936,30.347,19.895,40.732,37.76c-0.599,3.114-1.948,5.714-3.595,7.855
		c-3.816-6.44-11.682-18.398-19.693-22.632C153.267,73.239,144.688,62.921,144.34,54.756z"/>
</g>
</svg>
