<?xml version="1.0" encoding="utf-8"?>
<!-- Generator: Adobe Illustrator 14.0.0, SVG Export Plug-In . SVG Version: 6.00 Build 43363)  -->
<!DOCTYPE svg PUBLIC "-//W3C//DTD SVG 1.1 Basic//EN" "http://www.w3.org/Graphics/SVG/1.1/DTD/svg11-basic.dtd">
<svg version="1.1" baseProfile="basic" id="content"
	 xmlns="http://www.w3.org/2000/svg" xmlns:xlink="http://www.w3.org/1999/xlink" x="0px" y="0px" width="500px" height="500px"
	 viewBox="0 0 500 500" xml:space="preserve">
<g id="bounds" display="none">
	<rect x="185.531" y="-19.161" display="inline" fill="none" stroke="#000000" width="116.52" height="122.927"/>
</g>
<rect id="position" y="0" display="none" fill="none" stroke="#000000" width="500" height="500"/>
<g>
	<path fill="#BDA011" d="M239.052,9.022c0,0,0.456-10.828-11.751-12.002c-2.346,5.303-2.346,5.303-2.346,5.303
		S235.371,1.33,239.052,9.022z"/>
	<path fill="#BDA011" d="M239.052,9.022c0,0,7.434-7.622,16.444-4.069c-0.924-6.366-0.924-6.366-0.924-6.366
		S239.044-0.834,239.052,9.022z"/>
	<path fill="#A68D0F" d="M238.856,9.137c0,0,9.032,5.636,7.483,15.195c6.022-2.261,6.022-2.261,6.022-2.261
		S248.483,7.025,238.856,9.137z"/>
	<path fill="#A68D0F" d="M239.052,9.022c0,0-10.578-3.236-16.121,7.498c4.452,3.565,4.452,3.565,4.452,3.565
		S230.068,10.266,239.052,9.022z"/>
	<path fill="#4A683A" d="M216.427,85.621l22.625-76.6l37.667,69.345c0,0-4.514,8.688-28.828,11.818l0.003,0.011
		c-0.163,0.019-0.313,0.032-0.472,0.05c-0.156,0.021-0.307,0.043-0.467,0.063l-0.002-0.012
		C222.603,93.021,216.427,85.621,216.427,85.621z"/>
	<path fill="#668F4F" d="M230.803,79.349c-0.158-0.897-0.985-1.481-1.843-1.307c-0.856,0.178-1.423,1.045-1.26,1.942
		c0.161,0.896,0.989,1.481,1.848,1.306C230.403,81.117,230.968,80.246,230.803,79.349z"/>
	<path fill="#7DB062" d="M237.531,79.811c-0.162-0.897-0.992-1.482-1.845-1.308c-0.858,0.179-1.42,1.048-1.262,1.943
		c0.163,0.897,0.992,1.481,1.847,1.305C237.126,81.578,237.693,80.71,237.531,79.811z"/>
	<path fill="#D6272E" d="M270.15,66.052c-11.963,8.375-28.697,14.224-52.299,14.487l3.924-13.299
		c10.965-0.12,26.575-2.633,42.318-12.347L270.15,66.052z"/>
	<path fill="#D6272E" d="M249.688,28.564l6.344,11.691c-7.159,4.215-16.884,8.434-29.446,10.945l4.452-15.082
		C236.905,34.321,243.332,31.876,249.688,28.564z"/>
	<path fill="#C7A912" d="M239.052,9.022c0,0,10.495-1.854,15.778,6.268c2.936-5.723,2.936-5.723,2.936-5.723
		S244.76,0.986,239.052,9.022z"/>
	<path fill="#C7A912" d="M239.052,9.022c0,0-10.71,1.66-9.486,13.86c5.658,1.271,5.658,1.271,5.658,1.271
		S232.224,14.13,239.052,9.022z"/>
	<path fill="#7DB062" d="M260.495,49.275c-0.854,0.151-1.671-0.454-1.812-1.354c-0.1-0.639,0.17-1.248,0.639-1.605l1.541,2.841
		C260.748,49.208,260.627,49.252,260.495,49.275z"/>
	<path fill="#7DB062" d="M252.949,51.681c-0.145-0.901,0.441-1.755,1.307-1.906c0.857-0.153,1.669,0.454,1.813,1.353
		c0.14,0.902-0.447,1.759-1.31,1.909C253.898,53.189,253.088,52.584,252.949,51.681z"/>
	<path fill="#668F4F" d="M246.788,54.611c-0.135-0.902,0.451-1.755,1.31-1.908c0.861-0.154,1.674,0.453,1.811,1.355
		c0.144,0.897-0.444,1.753-1.304,1.906C247.746,56.119,246.933,55.512,246.788,54.611z"/>
	<path fill="#668F4F" d="M240.38,56.876c-0.14-0.9,0.446-1.757,1.31-1.91c0.858-0.151,1.671,0.454,1.809,1.354
		c0.143,0.901-0.442,1.756-1.306,1.91C241.332,58.381,240.519,57.776,240.38,56.876z"/>
	<path fill="#7DB062" d="M233.74,58.156c-0.143-0.9,0.444-1.755,1.305-1.908c0.861-0.151,1.672,0.454,1.813,1.354
		c0.138,0.899-0.445,1.755-1.308,1.909C234.687,59.665,233.879,59.058,233.74,58.156z"/>
	<path fill="#668F4F" d="M230.185,58.686c-0.141-0.902-0.953-1.508-1.813-1.357c-0.862,0.156-1.447,1.009-1.308,1.911
		c0.143,0.9,0.952,1.507,1.813,1.355C229.739,60.442,230.326,59.587,230.185,58.686z"/>
	<path fill="#668F4F" d="M257.1,54.948c-0.158-0.899,0.412-1.762,1.274-1.927c0.854-0.167,1.676,0.427,1.834,1.323
		c0.151,0.898-0.421,1.764-1.278,1.93C258.074,56.441,257.253,55.849,257.1,54.948z"/>
	<path fill="#668F4F" d="M250.986,57.979c-0.148-0.9,0.423-1.765,1.277-1.931c0.858-0.168,1.682,0.428,1.834,1.325
		c0.156,0.897-0.416,1.763-1.272,1.931C251.969,59.471,251.146,58.878,250.986,57.979z"/>
	<path fill="#7DB062" d="M244.616,60.348c-0.154-0.9,0.418-1.767,1.278-1.933c0.856-0.167,1.679,0.429,1.831,1.325
		c0.157,0.899-0.414,1.763-1.274,1.932C245.594,61.838,244.771,61.246,244.616,60.348z"/>
	<path fill="#668F4F" d="M237.999,61.737c-0.157-0.897,0.415-1.762,1.273-1.929c0.857-0.167,1.679,0.426,1.835,1.322
		c0.152,0.899-0.416,1.764-1.276,1.932C238.971,63.231,238.152,62.637,237.999,61.737z"/>
	<path fill="#668F4F" d="M234.453,62.325c-0.155-0.897-0.978-1.492-1.834-1.328c-0.86,0.17-1.431,1.032-1.276,1.934
		c0.157,0.896,0.977,1.49,1.835,1.323C234.036,64.087,234.608,63.224,234.453,62.325z"/>
	<path fill="#7DB062" d="M227.618,63.242c-0.155-0.897-0.979-1.492-1.835-1.328c-0.859,0.17-1.431,1.033-1.276,1.934
		c0.157,0.896,0.977,1.489,1.836,1.323C227.2,65.005,227.773,64.14,227.618,63.242z"/>
	<path fill="#668F4F" d="M254.139,45.653c-0.168-0.897,0.396-1.767,1.254-1.941c0.854-0.176,1.683,0.408,1.851,1.305
		c0.161,0.896-0.401,1.769-1.259,1.942C255.131,47.135,254.303,46.552,254.139,45.653z"/>
	<path fill="#668F4F" d="M248.061,48.751c-0.16-0.896,0.402-1.767,1.256-1.941c0.857-0.18,1.686,0.405,1.848,1.305
		c0.168,0.896-0.396,1.766-1.251,1.943C249.06,50.232,248.231,49.648,248.061,48.751z"/>
	<path fill="#7DB062" d="M241.717,51.191c-0.164-0.898,0.398-1.771,1.257-1.945c0.854-0.176,1.684,0.408,1.846,1.307
		c0.167,0.896-0.395,1.768-1.253,1.943C242.711,52.67,241.882,52.087,241.717,51.191z"/>
	<path fill="#668F4F" d="M235.931,34.924c-0.135-0.9,0.451-1.755,1.31-1.906c0.861-0.154,1.674,0.453,1.811,1.354
		c0.144,0.899-0.444,1.753-1.304,1.908C236.889,36.432,236.077,35.825,235.931,34.924z"/>
	<path fill="#668F4F" d="M243.539,31.459c-0.135-0.9,0.451-1.755,1.31-1.906c0.861-0.154,1.674,0.451,1.811,1.354
		c0.144,0.899-0.444,1.753-1.304,1.908C244.497,32.967,243.684,32.36,243.539,31.459z"/>
	<path fill="#668F4F" d="M237.205,29.064c-0.16-0.898,0.402-1.769,1.256-1.943c0.857-0.178,1.686,0.407,1.848,1.307
		c0.168,0.896-0.396,1.766-1.251,1.941C238.204,30.545,237.375,29.961,237.205,29.064z"/>
	<path fill="#668F4F" d="M232.71,32.808c0.858-0.18,1.42-1.048,1.253-1.945c-0.107-0.592-0.507-1.042-1.011-1.232l-0.931,3.153
		C232.24,32.842,232.473,32.856,232.71,32.808z"/>
	<path fill="#7DB062" d="M243.549,26.673c-0.164-0.896,0.398-1.769,1.257-1.943c0.854-0.176,1.684,0.408,1.846,1.305
		c0.167,0.897-0.395,1.77-1.253,1.945C244.543,28.152,243.714,27.569,243.549,26.673z"/>
	<path fill="#668F4F" d="M242.941,16.135c-0.148-0.017-0.3-0.018-0.453,0.016c-0.858,0.176-1.421,1.047-1.257,1.945
		c0.165,0.896,0.994,1.479,1.85,1.305c0.516-0.107,0.921-0.466,1.128-0.929L242.941,16.135z"/>
	<path fill="#668F4F" d="M235.115,52.652c-0.167-0.896,0.396-1.766,1.252-1.943c0.855-0.176,1.684,0.408,1.85,1.306
		c0.162,0.896-0.396,1.767-1.255,1.942C236.104,54.135,235.278,53.552,235.115,52.652z"/>
	<path fill="#7DB062" d="M232.373,53.375c-0.165-0.896-0.994-1.479-1.849-1.307c-0.858,0.179-1.419,1.048-1.255,1.946
		c0.167,0.896,0.993,1.479,1.85,1.305C231.975,55.142,232.538,54.272,232.373,53.375z"/>
	<path fill="#7DB062" d="M239.586,23.49c-0.229-0.88,0.267-1.793,1.107-2.043c0.841-0.248,1.708,0.265,1.939,1.144
		c0.23,0.881-0.262,1.792-1.104,2.046C240.686,24.88,239.817,24.37,239.586,23.49z"/>
	<path fill="#7DB062" d="M234.786,23.411c0.634,0.063,1.193,0.519,1.373,1.193c0.227,0.879-0.268,1.793-1.11,2.042
		c-0.411,0.123-0.83,0.06-1.179-0.139L234.786,23.411z"/>
	<path fill="#668F4F" d="M236.741,16.999c0.634,0.063,1.193,0.519,1.373,1.193c0.227,0.879-0.268,1.793-1.11,2.042
		c-0.411,0.123-0.83,0.06-1.179-0.137L236.741,16.999z"/>
	<path fill="#ED2B33" d="M220.315,72.194l1.46-4.953c10.965-0.12,26.575-2.633,42.319-12.347l2.111,3.89
		C260.203,62.818,244.158,71.69,220.315,72.194z"/>
	<path fill="#ED2B33" d="M249.688,28.564l1.716,3.167c-4.563,3.205-13.33,7.143-21.528,8.324l1.162-3.937
		C236.905,34.321,243.332,31.876,249.688,28.564z"/>
	<path fill="#7DB062" d="M272.742,75.118c-0.855,0.178-1.682-0.409-1.844-1.304c-0.162-0.897,0.398-1.77,1.258-1.943
		c0.359-0.073,0.711-0.008,1.013,0.152l0.851,1.588C273.964,74.34,273.46,74.97,272.742,75.118z"/>
	<path fill="#7DB062" d="M265.253,77.729c-0.159-0.897,0.405-1.768,1.261-1.942c0.858-0.177,1.68,0.408,1.848,1.305
		c0.16,0.896-0.402,1.769-1.264,1.942C266.243,79.211,265.417,78.624,265.253,77.729z"/>
	<path fill="#668F4F" d="M259.173,80.823c-0.165-0.898,0.397-1.766,1.259-1.943c0.855-0.176,1.686,0.408,1.846,1.307
		c0.16,0.896-0.399,1.766-1.26,1.941C260.161,82.303,259.334,81.72,259.173,80.823z"/>
	<path fill="#7DB062" d="M252.816,83.258c-0.162-0.896,0.406-1.766,1.262-1.94s1.68,0.409,1.844,1.305
		c0.167,0.897-0.398,1.767-1.258,1.941C253.811,84.74,252.982,84.156,252.816,83.258z"/>
	<path fill="#7DB062" d="M246.207,84.719c-0.162-0.897,0.405-1.771,1.26-1.942c0.856-0.178,1.683,0.407,1.848,1.304
		c0.161,0.898-0.402,1.77-1.262,1.942C247.198,86.2,246.371,85.616,246.207,84.719z"/>
	<path fill="#7DB062" d="M222.589,83.742c-0.162-0.897-0.988-1.48-1.847-1.307c-0.855,0.176-1.42,1.047-1.257,1.942
		c0.163,0.897,0.987,1.481,1.846,1.306C222.188,85.508,222.753,84.637,222.589,83.742z"/>
	<path fill="#668F4F" d="M229.192,85.139c-0.158-0.897-0.985-1.481-1.843-1.307c-0.856,0.178-1.423,1.045-1.26,1.942
		c0.161,0.896,0.989,1.48,1.848,1.306C228.792,86.906,229.356,86.036,229.192,85.139z"/>
	<path fill="#7DB062" d="M235.92,85.601c-0.162-0.897-0.992-1.482-1.845-1.308c-0.858,0.179-1.42,1.046-1.262,1.943
		c0.163,0.897,0.992,1.481,1.847,1.305C235.514,87.368,236.082,86.499,235.92,85.601z"/>
	<path fill="#668F4F" d="M242.666,85.344c-0.159-0.896-0.986-1.481-1.847-1.307c-0.855,0.176-1.419,1.047-1.254,1.942
		c0.161,0.896,0.986,1.48,1.844,1.306C242.265,87.112,242.832,86.241,242.666,85.344z"/>
	<path fill="#668F4F" d="M266.863,71.939c-0.158-0.897,0.406-1.768,1.261-1.942c0.858-0.177,1.681,0.408,1.849,1.307
		c0.16,0.896-0.404,1.767-1.264,1.94C267.854,73.422,267.027,72.835,266.863,71.939z"/>
	<path fill="#7DB062" d="M260.784,75.033c-0.165-0.896,0.397-1.766,1.258-1.943c0.856-0.176,1.685,0.408,1.847,1.307
		c0.16,0.896-0.4,1.766-1.26,1.941C261.771,76.513,260.945,75.93,260.784,75.033z"/>
	<path fill="#668F4F" d="M254.428,77.469c-0.162-0.896,0.406-1.768,1.262-1.942s1.681,0.409,1.845,1.305
		c0.167,0.897-0.399,1.767-1.259,1.941C255.422,78.95,254.594,78.366,254.428,77.469z"/>
	<path fill="#668F4F" d="M247.818,78.93c-0.162-0.897,0.405-1.771,1.26-1.942c0.856-0.178,1.684,0.407,1.848,1.304
		c0.161,0.898-0.402,1.77-1.262,1.942C248.809,80.41,247.982,79.827,247.818,78.93z"/>
	<path fill="#668F4F" d="M244.277,79.554c-0.159-0.896-0.986-1.481-1.847-1.307c-0.855,0.176-1.419,1.047-1.254,1.942
		c0.161,0.896,0.986,1.48,1.844,1.306C243.877,81.322,244.443,80.452,244.277,79.554z"/>
	<path fill="#668F4F" d="M275.346,79.674c-0.854,0.18-1.682-0.407-1.843-1.304c-0.163-0.896,0.399-1.768,1.257-1.941
		c0.359-0.073,0.711-0.01,1.014,0.15l0.851,1.588C276.568,78.895,276.064,79.526,275.346,79.674z"/>
	<path fill="#668F4F" d="M267.857,82.284c-0.16-0.896,0.404-1.766,1.26-1.942c0.859-0.177,1.68,0.408,1.848,1.307
		c0.161,0.896-0.402,1.767-1.263,1.94C268.848,83.767,268.021,83.18,267.857,82.284z"/>
	<path fill="#7DB062" d="M261.777,85.379c-0.166-0.896,0.396-1.766,1.258-1.941c0.855-0.176,1.686,0.408,1.847,1.305
		c0.16,0.896-0.401,1.766-1.26,1.943C262.766,86.859,261.938,86.276,261.777,85.379z"/>
	<path fill="#668F4F" d="M256.682,85.871c-0.854,0.176-1.424,1.046-1.261,1.942c0.075,0.409,0.292,0.748,0.582,0.982
		c0.824-0.179,1.608-0.365,2.371-0.559c0.155-0.317,0.222-0.686,0.151-1.063C258.361,86.281,257.539,85.696,256.682,85.871z"/>
	<path fill="#668F4F" d="M250.071,87.333c-0.854,0.174-1.422,1.045-1.26,1.942c0.052,0.282,0.174,0.527,0.336,0.731
		c0.917-0.129,1.811-0.265,2.669-0.407c0.121-0.293,0.162-0.626,0.103-0.962C251.754,87.74,250.928,87.155,250.071,87.333z"/>
	<path fill="#7DB062" d="M223.346,86.991c-0.816,0.167-1.359,0.969-1.267,1.821c0.821,0.288,1.75,0.564,2.793,0.819
		c0.276-0.363,0.41-0.844,0.32-1.335C225.031,87.399,224.205,86.816,223.346,86.991z"/>
	<path fill="#7DB062" d="M230.009,88.307c-0.856,0.176-1.423,1.045-1.26,1.94c0.008,0.043,0.024,0.082,0.035,0.124
		c0.907,0.127,1.874,0.236,2.906,0.32c0.162-0.322,0.231-0.698,0.161-1.082C231.693,88.715,230.866,88.131,230.009,88.307z"/>
	<path fill="#668F4F" d="M238.496,90.878c0.058-0.229,0.073-0.474,0.028-0.722c-0.162-0.897-0.992-1.482-1.845-1.306
		c-0.858,0.177-1.42,1.046-1.262,1.941c0.006,0.03,0.018,0.058,0.024,0.085C236.415,90.899,237.429,90.901,238.496,90.878z"/>
	<path fill="#7DB062" d="M243.424,88.594c-0.855,0.176-1.419,1.047-1.254,1.94c0.011,0.063,0.032,0.118,0.05,0.177
		c0.982-0.063,2.001-0.146,3.055-0.248c0.027-0.184,0.032-0.374-0.004-0.564C245.111,89.003,244.284,88.418,243.424,88.594z"/>
	<polygon fill="#9FE07D" points="261.322,46.653 254.936,51.003 260.465,56.403 254.354,51.673 250.928,58.599 253.536,51.325 
		245.891,50.206 253.615,50.441 252.314,42.823 254.479,50.242 	"/>
	<polygon fill="#9FE07D" points="238.226,85.464 234.639,86.152 236.022,89.53 234.261,86.333 231.474,88.693 233.972,86.03 
		230.868,84.112 234.173,85.661 235.041,82.115 234.584,85.737 	"/>
	<circle fill="#FC6F75" cx="224.838" cy="73.899" r="2.74"/>
	<circle fill="#FC6F75" cx="237.219" cy="71.841" r="2.74"/>
	<circle fill="#FC6F75" cx="250.953" cy="67.94" r="2.74"/>
	<circle fill="#FC6F75" cx="261.322" cy="63.091" r="2.74"/>
	<circle fill="#FC6F75" cx="248.034" cy="36.302" r="2.74"/>
	<circle fill="#FC6F75" cx="236.879" cy="40.94" r="2.74"/>
	<path opacity="0.1" fill="#1A2413" d="M216.427,85.619l22.625-76.598l6.801,81.385C222.424,92.784,216.427,85.619,216.427,85.619z"
		/>
	<path fill="#A68D0F" d="M239.052,9.022c0,0,0.975-10.99,11.306-14.852c-2.635-3.833-3.002-3.973-3.002-3.973
		S234.791-1.458,239.052,9.022z"/>
	<path fill="#BDA011" d="M239.052,9.022c0,0-9.795-5.077-18.598,1.565c-1.819-4.278-1.74-4.665-1.74-4.665
		S232.498-0.198,239.052,9.022z"/>
	<path fill="#C7A912" d="M239.052,9.022c0,0-4.983-9.364,1.147-16.866c-6.344-1.058-6.344-1.058-6.344-1.058
		S229.664,6.026,239.052,9.022z"/>
</g>
</svg>
