<?xml version="1.0" encoding="utf-8"?>
<!-- Generator: Adobe Illustrator 14.0.0, SVG Export Plug-In . SVG Version: 6.00 Build 43363)  -->
<!DOCTYPE svg PUBLIC "-//W3C//DTD SVG 1.1//EN" "http://www.w3.org/Graphics/SVG/1.1/DTD/svg11.dtd">
<svg version="1.1" id="content" xmlns="http://www.w3.org/2000/svg" xmlns:xlink="http://www.w3.org/1999/xlink" x="0px" y="0px"
	 width="500px" height="500px" viewBox="0 0 500 500" enable-background="new 0 0 500 500" xml:space="preserve">
<g id="bounds">
	<rect x="116.43" y="-23.521" fill="none" stroke="#000000" stroke-width="1.0104" width="241.599" height="241.598"/>
</g>
<g id="accessory">
	<path opacity="0.2" fill="#314F7C" enable-background="new    " d="M168.547,102.459v30.594l34.184,20.511
		c0,0,17.105-3.771,27.87-25.552c10.766-21.782,10.47-34.759,10.47-34.759s-24.035-7.521-43.795-4.129
		C177.517,92.516,170.298,98.498,168.547,102.459z"/>
	<path opacity="0.2" fill="#314F7C" enable-background="new    " d="M301.713,89.124c-19.76-3.392-43.795,4.129-43.795,4.129
		s-0.295,12.977,10.47,34.759c10.771,21.781,27.869,25.552,27.869,25.552l34.188-20.511v-30.594
		C328.69,98.498,321.472,92.515,301.713,89.124z"/>
	<path fill="#314F7C" d="M337.263,117.973c-0.013-1.209-0.021-2.419-0.021-3.622c0-9.604-0.929-18.694-12.085-24.397
		c-10.378-6.166-34.391-6.606-35.405-6.623h-37.252l0,0h-3h-3l0,0h-37.256c-1.021,0.017-25.028,0.457-35.406,6.623
		c-11.158,5.703-12.085,14.794-12.085,24.397c0,1.203-0.013,2.413-0.026,3.622c-0.1,9.251-0.202,18.816,5.581,24.6
		c5.875,5.876,23.715,14.172,24.519,14.543c3.298,1.46,7.206,2.953,11.183,2.954l0,0c4.748,0,9.266-2.057,14.65-6.668
		c6.75-5.781,12.231-11.972,16.536-18.669c1.598,0.164,5.133-0.522,7.625-8.422c3.25-10.301,7.676-9.381,7.676-9.381
		s4.425-0.919,7.675,9.381c2.493,7.899,6.028,8.586,7.625,8.422c4.306,6.697,9.787,12.888,16.537,18.669
		c5.386,4.611,9.902,6.668,14.648,6.668c0,0,0,0,0.002,0c3.978,0,7.885-1.493,11.184-2.954c0.802-0.371,18.642-8.667,24.521-14.543
		C337.465,136.79,337.362,127.224,337.263,117.973z M221.161,138.559l-0.557,0.555c-7.818,7.823-12.539,12.544-18.121,12.544
		c-3.265,0-7.317-1.491-12.759-4.691c-3.073-1.809-5.808-3.272-8.221-4.563c-11.007-5.891-13.965-7.474-13.965-21.791l-0.002-2.246
		c-0.027-18.15-0.031-21.421,14.925-25.6c6.562-1.833,15.395-2.803,25.543-2.803c12.616,0,24.362,1.468,29.87,2.814
		c3.829,1.016,3.425,4.441,3.225,5.408C241.031,98.462,233.87,125.85,221.161,138.559z M331.449,118.366l-0.002,2.246
		c0,14.317-2.958,15.9-13.965,21.791c-2.413,1.291-5.147,2.755-8.225,4.563c-5.438,3.2-9.49,4.691-12.76,4.691
		c-5.582,0-10.303-4.722-18.121-12.544l-0.557-0.555c-12.709-12.709-19.868-40.098-19.939-40.372
		c-0.195-0.967-0.604-4.394,3.229-5.408c5.51-1.347,17.256-2.813,29.871-2.813c10.146,0,18.979,0.969,25.543,2.802
		C331.481,96.945,331.477,100.217,331.449,118.366z"/>
	<path fill="#3A3A3A" d="M334.237,114.351c0-9.995-1.162-17.021-10.537-21.771c-9.75-5.875-33.999-6.25-33.999-6.25h-40.206h-40.206
		c0,0-24.25,0.375-34,6.25c-9.375,4.75-10.537,11.775-10.537,21.771s-0.892,20.534,4.676,26.101
		c5.567,5.567,23.611,13.921,23.611,13.921c8.75,3.875,13.959,4.208,22.667-3.25s18.708-18.542,23.896-34.917
		c5.063-15.125,7.287-16.5,9.895-16.5c2.606,0,4.831,1.375,9.895,16.5c5.188,16.375,15.188,27.458,23.896,34.917
		s13.917,7.125,22.666,3.25c0,0,18.046-8.354,23.61-13.921C335.128,134.886,334.237,124.346,334.237,114.351z M238.339,102.427
		c0,0-6.176,24.044-17.647,35.515c-11.471,11.471-15.762,16.085-30.226,7.574c-14.464-8.512-20.24-7.997-20.24-24.872
		s-0.625-22.125,14.813-26.438c15.438-4.313,39.75-2.125,48.438,0C239.601,95.831,238.454,101.994,238.339,102.427z
		 M328.763,120.643c0,16.875-5.771,16.36-20.236,24.872c-14.467,8.511-18.76,3.896-30.229-7.574
		c-11.471-11.47-17.646-35.515-17.646-35.515c-0.11-0.433-1.262-6.597,4.863-8.222c8.688-2.125,32.999-4.313,48.438,0
		C329.389,98.518,328.763,103.768,328.763,120.643z"/>
	<ellipse opacity="0.3" fill="#FFFFFF" enable-background="new    " cx="182.707" cy="118.814" rx="3.241" ry="3.13"/>
	<path fill="#FFFFFF" d="M180.475,119.716c0,0,1.969,2.111,4.262,0.07C181.728,120.61,180.475,119.716,180.475,119.716z"/>
	<ellipse opacity="0.3" fill="#FFFFFF" enable-background="new    " cx="198.627" cy="134.304" rx="1.756" ry="1.696"/>
	<path fill="#FFFFFF" d="M197.417,134.793c0,0,1.066,1.146,2.31,0.039C198.096,135.278,197.417,134.793,197.417,134.793z"/>
	<ellipse opacity="0.3" fill="#FFFFFF" enable-background="new    " cx="188.413" cy="136.407" rx="2.465" ry="2.38"/>
	<path fill="#FFFFFF" d="M186.715,137.093c0,0,1.498,1.605,3.241,0.054C187.668,137.773,186.715,137.093,186.715,137.093z"/>
	<ellipse opacity="0.3" fill="#FFFFFF" enable-background="new    " cx="314.851" cy="109.864" rx="3.24" ry="3.13"/>
	<path fill="#FFFFFF" d="M317.083,110.765c0,0-1.971,2.111-4.263,0.07C315.829,111.66,317.083,110.765,317.083,110.765z"/>
	<ellipse opacity="0.3" fill="#FFFFFF" enable-background="new    " cx="300.362" cy="134.304" rx="1.756" ry="1.696"/>
	<path fill="#FFFFFF" d="M301.571,134.793c0,0-1.066,1.146-2.313,0.039C300.893,135.278,301.571,134.793,301.571,134.793z"/>
	<ellipse opacity="0.3" fill="#FFFFFF" enable-background="new    " cx="310.575" cy="136.407" rx="2.465" ry="2.38"/>
	<path fill="#FFFFFF" d="M312.274,137.093c0,0-1.498,1.605-3.24,0.054C311.32,137.773,312.274,137.093,312.274,137.093z"/>
	<circle fill="#3A3A3A" cx="249.721" cy="148.706" r="16.442"/>
	<path fill="#314F7C" d="M242.477,173.414h-90.789c-0.018,0.002-0.131,0.004-0.258,0.004c-1.438,0-5.11-0.301-8.09-3.084
		c-1.628-1.521-3.569-4.271-3.569-8.735V21.139l14.362,14.361v118.698l-0.013,0.115c-0.003,0.045-0.131,1.813,1.296,3.577
		c0.618,0.764,2.199,1.22,4.229,1.22c0.629,0,1.059-0.046,1.063-0.047l0.112-0.013h81.657V173.414L242.477,173.414z"/>
	<path fill="#567199" d="M156.339,105.953c0,0.625-0.459,1.132-1.026,1.132h-17.115c-0.567,0-1.026-0.507-1.026-1.132V56.397
		c0-0.625,0.459-1.131,1.026-1.131h17.115c0.566,0,1.026,0.506,1.026,1.131V105.953z"/>
	<path fill="#3A3A3A" d="M259.722,146.347c0-0.533-0.433-0.965-0.965-0.965h-18.531c-0.533,0-0.965,0.432-0.965,0.965v26.105
		c0,0.533,0.433,0.965,0.965,0.965h18.531c0.532,0,0.965-0.433,0.965-0.965V146.347z"/>
	<circle fill="#C9F70B" cx="249.494" cy="148.302" r="9.63"/>
</g>
<rect id="position" x="0" y="0" display="none" fill="none" stroke="#000000" width="500" height="500"/>
</svg>
