<?xml version="1.0" encoding="utf-8"?>
<!-- Generator: Adobe Illustrator 14.0.0, SVG Export Plug-In . SVG Version: 6.00 Build 43363)  -->
<!DOCTYPE svg PUBLIC "-//W3C//DTD SVG 1.1//EN" "http://www.w3.org/Graphics/SVG/1.1/DTD/svg11.dtd">
<svg version="1.1" id="content" xmlns="http://www.w3.org/2000/svg" xmlns:xlink="http://www.w3.org/1999/xlink" x="0px" y="0px"
	 width="500px" height="500px" viewBox="0 0 500 500" enable-background="new 0 0 500 500" xml:space="preserve">
<g id="bounds">
	<rect x="105.278" y="-80.385" fill="none" stroke="#000000" stroke-width="1.1038" width="287.099" height="287.098"/>
</g>
<g id="accessory">
	<polygon fill="#7A662E" points="120.377,98.667 121.002,98.667 248.827,98.667 248.827,91.138 125.127,95.388 	"/>
	<polygon fill="#7A662E" points="377.277,98.667 376.652,98.667 248.827,98.667 248.827,91.138 372.527,95.388 	"/>
	<path fill="#7A662E" d="M288.539,31.138c0,0-2.923-6.354-9.769-1.888c-6.85,4.467-29.813,14.721-29.813,14.721
		S225.99,33.717,219.145,29.25s-9.768,1.888-9.768,1.888l-40.5,63.75l80.081,1.542l80.08-1.542L288.539,31.138z"/>
	<polygon fill="#625225" points="169.46,93.888 327.961,93.888 313.127,69.388 185.127,69.388 	"/>
	<polygon fill="#877035" points="245.487,46.571 215.654,32.763 245.487,63.734 	"/>
	<polygon fill="#877035" points="283.191,32.763 304.172,64.83 268.592,40.449 	"/>
</g>
<rect id="position" x="0" y="0" display="none" fill="#FFFFFF" width="500" height="500"/>
</svg>
