<?xml version="1.0" encoding="utf-8"?>
<!-- Generator: Adobe Illustrator 14.0.0, SVG Export Plug-In . SVG Version: 6.00 Build 43363)  -->
<!DOCTYPE svg PUBLIC "-//W3C//DTD SVG 1.1//EN" "http://www.w3.org/Graphics/SVG/1.1/DTD/svg11.dtd">
<svg version="1.1" id="content" xmlns="http://www.w3.org/2000/svg" xmlns:xlink="http://www.w3.org/1999/xlink" x="0px" y="0px"
	 width="500px" height="500px" viewBox="0 0 500 500" enable-background="new 0 0 500 500" xml:space="preserve">
<g id="bounds">
	<rect x="165.541" y="-21.011" fill="none" stroke="#000000" stroke-width="0.9338" width="168.036" height="168.038"/>
</g>
<g id="accessory">
	<path fill="#542C18" d="M249.559,22.748c-48.841,0-53.679,32.847-53.679,32.847l4.808,23.653h48.871h48.869l4.809-23.653
		C303.237,55.594,298.399,22.748,249.559,22.748z"/>
	<path fill="#42210F" d="M310.178,59.373c-4.838-10.438-9.998-7.168-10.229,0.229c-0.229,7.396-5.128,22.888-17.773,8.017
		c-9.431-11.085-30.546-12.804-32.615-12.542c-2.071-0.261-23.735,2.102-32.617,12.542c-12.649,14.871-17.544-0.621-17.775-8.017
		c-0.23-7.396-5.391-10.665-10.229-0.229c-4.837,10.438-9.068,23.139,0.648,32.631c0,0,19.755,16.233,59.778,16.339
		c0,0.001,0,0.003,0,0.005c0.065,0,0.127-0.002,0.193-0.002c0.065,0,0.127,0.002,0.192,0.002c0-0.001,0-0.003,0-0.005
		c40.023-0.105,59.778-16.339,59.778-16.339C319.247,82.511,315.016,69.81,310.178,59.373z"/>
	<ellipse fill="#42210F" cx="249.559" cy="23.831" rx="8.25" ry="6.162"/>
</g>
<rect id="position" x="0" y="0" display="none" fill="none" stroke="#000000" width="500" height="500"/>
</svg>
