<?xml version="1.0" encoding="utf-8"?>
<!-- Generator: Adobe Illustrator 14.0.0, SVG Export Plug-In . SVG Version: 6.00 Build 43363)  -->
<!DOCTYPE svg PUBLIC "-//W3C//DTD SVG 1.1//EN" "http://www.w3.org/Graphics/SVG/1.1/DTD/svg11.dtd">
<svg version="1.1" id="content" xmlns="http://www.w3.org/2000/svg" xmlns:xlink="http://www.w3.org/1999/xlink" x="0px" y="0px"
	 width="500px" height="500px" viewBox="0 0 500 500" enable-background="new 0 0 500 500" xml:space="preserve">
<g id="bounds">
	<rect x="169.958" y="-10.694" fill="none" stroke="#000000" stroke-width="0.993" width="159.884" height="159.884"/>
</g>
<g id="accessory">
	<path fill="#5B5652" d="M249.9,37.695c0,0-48.503-2.578-63.497,47.587c0,0,23.185,8.025,63.497,8.025
		c40.313,0,63.494-8.025,63.494-8.025C298.404,35.116,249.9,37.695,249.9,37.695z"/>
	<path fill="#514D4A" d="M247.283,37.695c-10.267,0.308-47.888,4.419-60.832,47.434l7.439,2.229
		c0.008,0.002,0.016,0.003,0.025,0.005c0.008-0.055,6.753-49.667,55.984-49.667C249.016,37.695,248.145,37.695,247.283,37.695z"/>
	<path fill="#514D4A" d="M206.55,89.91c4.537,0.757,9.796,1.486,15.741,2.073c0.004-0.05-0.146-37.076,27.608-54.288
		C249.9,37.695,206.551,47.85,206.55,89.91z"/>
	<path fill="#514D4A" d="M252.516,37.695c10.267,0.308,47.894,4.419,60.837,47.433l-7.44,2.229c-0.012,0.002-0.02,0.003-0.023,0.005
		c-0.008-0.055-6.753-49.667-55.986-49.667C250.783,37.695,251.654,37.695,252.516,37.695z"/>
	<path fill="#514D4A" d="M293.249,89.91c-4.535,0.757-9.797,1.486-15.742,2.073c-0.004-0.051,0.146-37.076-27.605-54.288
		C249.9,37.695,293.247,47.85,293.249,89.91z"/>
	<path fill="#514D4A" d="M249.9,37.695c0,0-11.036,25.868-11.364,55.395c9.415,0,11.364,0.218,11.364,0.218
		s1.945-0.218,11.363-0.218C260.936,63.563,249.9,37.695,249.9,37.695z"/>
	<path fill="#514D4A" d="M311.366,79.184C295.18,88.037,249.9,87.91,249.9,87.91s-45.28,0.127-61.466-8.726
		c0,0-3.091,5.061-5.59,11.453c16.288,6.41,35.678,10.187,67.057,10.187c31.38,0,50.768-3.776,67.055-10.188
		C314.455,84.243,311.366,79.184,311.366,79.184z"/>
	<path fill="#C45102" d="M312.964,92.264c0.169,0.487-0.104,1.015-0.614,1.179l-4.158,1.332c-0.508,0.163-1.066-0.1-1.234-0.587
		l-4.053-11.542c-0.172-0.485,0.104-1.015,0.611-1.176l4.158-1.336c0.512-0.161,1.065,0.101,1.233,0.587L312.964,92.264z"/>
</g>
<rect id="position" x="0" y="0" display="none" fill="none" stroke="#000000" width="500" height="500"/>
</svg>
