<?xml version="1.0" encoding="utf-8"?>
<!-- Generator: Adobe Illustrator 14.0.0, SVG Export Plug-In . SVG Version: 6.00 Build 43363)  -->
<!DOCTYPE svg PUBLIC "-//W3C//DTD SVG 1.1//EN" "http://www.w3.org/Graphics/SVG/1.1/DTD/svg11.dtd">
<svg version="1.1" id="content" xmlns="http://www.w3.org/2000/svg" xmlns:xlink="http://www.w3.org/1999/xlink" x="0px" y="0px"
	 width="500px" height="500px" viewBox="0 0 500 500" enable-background="new 0 0 500 500" xml:space="preserve">
<g id="bounds">
	<rect x="169.845" y="-43.229" fill="none" stroke="#000000" stroke-width="1.115" width="159.429" height="159.426"/>
</g>
<g id="accessory">
	<path fill="#E2E2E2" d="M283.006-0.348c-3.54,0-6.896,0.774-9.915,2.155c-4.129-8.764-13.035-14.834-23.362-14.834
		c-10.375,0-19.318,6.127-23.414,14.96c-3.096-1.463-6.553-2.283-10.204-2.283c-13.223,0-23.945,10.723-23.945,23.945
		c0,13.225,10.723,23.945,23.945,23.945c0.001,0,0.002,0,0.004,0v25.308h66.008v-5.799V47.52c0.295,0.011,0.587,0.022,0.884,0.022
		c13.223,0,23.946-10.721,23.946-23.945C306.952,10.374,296.229-0.348,283.006-0.348z"/>
	<path fill="#CECECE" d="M259.151-11.251c0,0,17.662,20.662,2.436,40.445C275.72,22.668,282.024-0.814,259.151-11.251z"/>
	<path fill="#CECECE" d="M283.335-0.338c9.208,1.974,16.379,9.786,16.067,23.069c-0.388,16.593-26.971,20.384-26.971,20.384v26.462
		h9.69V47.52c0.295,0.011,0.587,0.022,0.884,0.022c13.223,0,23.944-10.721,23.944-23.945C306.95,10.484,296.407-0.16,283.335-0.338z
		"/>
	<path fill="#EFEFEF" d="M216.115,81.191c9.104,3.129,21.058,4.803,33.499,4.803c12.442,0,23.404-1.674,32.51-4.803V67.049
		c-9.104,3.129-20.068,4.803-32.51,4.803c-12.444,0-24.395-1.674-33.499-4.803V81.191L216.115,81.191z"/>
	<polygon fill="#D8D8D8" points="272.464,69.47 272.464,84.038 282.122,81.767 282.122,67.049 	"/>
	<path fill="#D8D8D8" d="M226.313,1.933c0,0,12.306,6.146,7.97,17.548C232.998,12.095,226.313,1.933,226.313,1.933z"/>
</g>
<path id="position" display="none" d="M499,1v498H1V1H499 M500,0H0v500h500V0L500,0z"/>
</svg>
