<?xml version="1.0" encoding="utf-8"?>
<!-- Generator: Adobe Illustrator 14.0.0, SVG Export Plug-In . SVG Version: 6.00 Build 43363)  -->
<!DOCTYPE svg PUBLIC "-//W3C//DTD SVG 1.1//EN" "http://www.w3.org/Graphics/SVG/1.1/DTD/svg11.dtd">
<svg version="1.1" id="content" xmlns="http://www.w3.org/2000/svg" xmlns:xlink="http://www.w3.org/1999/xlink" x="0px" y="0px"
	 width="500px" height="500px" viewBox="0 0 500 500" enable-background="new 0 0 500 500" xml:space="preserve">
<g id="bounds">
	<rect x="186.136" y="-25.364" fill="none" stroke="#000000" stroke-width="1.15" width="182.5" height="182.5"/>
</g>
<g id="accessory">
	<path fill="#1A1A1A" d="M212.448,68.47C229.53,85.552,268.08,64,308.079,87.667c8.611,5.179,26.667,24.382,31.667,22.024
		c5-2.358,7.751-9.455,2.667-20.358c-5.084-10.902-11-19.667-21-29.667s-38.666-29.333-71.333-29.333
		C217.414,30.333,195.368,51.389,212.448,68.47z"/>
	<path fill="#1A1A1A" d="M290,26.667l7.667-2c0,0,1.999,13.667-9.334,20.333C288.333,45,293.667,37.667,290,26.667z"/>
</g>
<path id="position" display="none" d="M499,1v498H1V1H499 M500,0H0v500h500V0L500,0z"/>
</svg>
