<?xml version="1.0" encoding="utf-8"?>
<!-- Generator: Adobe Illustrator 14.0.0, SVG Export Plug-In . SVG Version: 6.00 Build 43363)  -->
<!DOCTYPE svg PUBLIC "-//W3C//DTD SVG 1.1//EN" "http://www.w3.org/Graphics/SVG/1.1/DTD/svg11.dtd">
<svg version="1.1" id="content" xmlns="http://www.w3.org/2000/svg" xmlns:xlink="http://www.w3.org/1999/xlink" x="0px" y="0px"
	 width="500px" height="500px" viewBox="0 0 500 500" enable-background="new 0 0 500 500" xml:space="preserve">
<g id="bounds">
	<rect x="145.988" y="-33.533" fill="none" stroke="#000000" stroke-width="1.1544" width="207.753" height="207.756"/>
</g>
<g id="accessory">
	<path opacity="0.3" fill="#383838" enable-background="new    " d="M185.869,88.714c-5.491,3.425-9.809,8.006-14.88,12.146
		c10.923,3.64,41.68,9.848,79.033,9.848c37.3,0,66.732-6.711,77.562-10.355c-5.144-4.241-8.54-8.309-14.118-11.769
		c-23.588,5.206-63.925,5.583-63.925,5.583S206.149,92.978,185.869,88.714z"/>
	<path fill="#455A2D" d="M331.201,93.547c-0.219-0.076-3.011-1.884-5.23-6.881c0,0-10.808-26.167-19.731-34.5
		c-23.491-22.833-56.375-22.182-56.375-22.182s-32.88-0.651-56.374,22.182c-8.927,8.333-19.733,34.5-19.733,34.5
		c-2.768,6.083-5.013,6.805-5.231,6.881c-2.398,1.238,33.407,11.452,81.5,11.452C298.115,104.999,333.601,94.785,331.201,93.547z"/>
	<path fill="#556A37" d="M267.376,49.462c0-6.362-1.417-12.42-3.967-17.92c-7.039-1.271-12.38-1.51-14.555-1.552
		c-5.65,0.108-34.281,1.683-55.366,22.175c-5.226,4.878-11.094,15.865-15.063,24.14c8.951,11.319,23.41,18.676,39.735,18.676
		C245.342,94.98,267.376,74.601,267.376,49.462z"/>
	<path fill="#556A37" d="M285.116,42.001c0,0,10.077,20.353,6.891,32.581c17.973-2,24.103-5.404,24.103-5.404
		S307.2,45.751,285.116,42.001z"/>
	<path fill="#313F1F" d="M275.94,66.712l7.367,28c0.778,2.917,2.504,3.889,11.433,1.86c8.771-2.11,9.063-3.027,7.978-6.777
		s-8.604-27.333-8.604-27.333c-1.176-4.917-3.682-4.18-8.691-2.75c-3.304,0.942-8.614,1.783-8.614,1.783
		S274.653,61.818,275.94,66.712z"/>
	<path fill="#B5CB7B" d="M277.203,64.249l7.363,28c0.783,2.917,2.506,3.889,11.435,1.86c8.771-2.11,9.063-3.027,7.977-6.777
		c-1.084-3.75-8.603-27.333-8.603-27.333c-1.176-4.917-3.682-4.18-8.692-2.75c-3.304,0.942-8.613,1.783-8.613,1.783
		S275.915,59.355,277.203,64.249z"/>
	<path fill="#5E6C33" d="M295.089,73.023l0.852-2.858c0.097-0.312-0.062-0.626-0.347-0.704c-0.28-0.081-0.587,0.111-0.682,0.425
		l-0.82,2.745c-0.948-0.296-2.011-0.406-3.198-0.225c-2.066,0.321-3.594,1.192-4.705,2.306l-2.336-2.495
		c-0.205-0.22-0.551-0.204-0.764,0.031c-0.219,0.236-0.23,0.604-0.027,0.821l2.366,2.527c-1.688,2.252-2.088,5.083-2.009,6.599
		l16.817-3.187C300.237,79.011,298.62,74.743,295.089,73.023z M288.071,77.95c-0.598-0.01-1.075-0.531-1.071-1.166
		s0.489-1.141,1.087-1.131c0.597,0.008,1.075,0.531,1.071,1.166C289.153,77.453,288.666,77.959,288.071,77.95z M293.876,76.908
		c-0.623-0.009-1.122-0.56-1.114-1.229c0.007-0.67,0.519-1.206,1.144-1.196c0.619,0.009,1.119,0.561,1.113,1.229
		C295.011,76.383,294.499,76.918,293.876,76.908z"/>
	<path fill="#5E6C33" d="M280.064,61.546l-0.014,0.004l-0.625,0.59l-0.315-0.678l0.85-0.799l0.752-0.203l1.077,4.523l-0.851,0.229
		L280.064,61.546z"/>
	<path fill="#5E6C33" d="M300.237,86.346l0.849-0.233l1.1,4.518l-0.752,0.207l-1.104-0.268l-0.03-0.754l0.813,0.198l0.015-0.004
		L300.237,86.346z"/>
	<path fill="#403F0F" d="M249.561,89.549c-55.625,0-70.385-13.062-70.991-13.624l2.55-5.077c0.113,0.1,15.549,12.701,68.441,12.701
		c53.534,0,68.782-12.578,68.915-12.701l2.613,4.925C320.481,76.335,305.187,89.549,249.561,89.549z"/>
	<path fill="#687C45" d="M202.822,57.002c4.415-5.34,9.776-9.78,15.877-13.064c5.866-3.159,12.031-4.578,18.519-5.777
		c2.417-0.446,6.645-1.229,8.713,0.719c1.237,1.164,0.577,3.417-0.211,4.695c-4.96,8.04-21.588,17.137-31.091,18.829
		C205.125,64.094,197.637,63.274,202.822,57.002z"/>
</g>
<rect id="position" x="0" y="0" display="none" fill="none" stroke="#000000" width="500" height="500"/>
</svg>
