<?xml version="1.0" encoding="utf-8"?>
<!-- Generator: Adobe Illustrator 14.0.0, SVG Export Plug-In . SVG Version: 6.00 Build 43363)  -->
<!DOCTYPE svg PUBLIC "-//W3C//DTD SVG 1.1//EN" "http://www.w3.org/Graphics/SVG/1.1/DTD/svg11.dtd">
<svg version="1.1" id="content" xmlns="http://www.w3.org/2000/svg" xmlns:xlink="http://www.w3.org/1999/xlink" x="0px" y="0px"
	 width="500px" height="500px" viewBox="0 0 500 500" enable-background="new 0 0 500 500" xml:space="preserve">
<g id="bounds">
	<rect x="165.553" y="-19.413" fill="none" stroke="#000000" stroke-width="0.9341" width="168.104" height="168.105"/>
</g>
<g id="accessories">
	<path fill="#1E1F2C" d="M310.666,70.708c-4.357,0.27-5.031-4.84-4.021-6.185c-2.455-10.385-18.371-20.999-18.371-20.999
		c-6.125,2.704-11.416-4.306-9.832-7.16c0,0-9.787-5.481-28.832-5.481c-19.043,0-28.836,5.481-28.836,5.481
		c1.584,2.854-3.707,9.864-9.832,7.16c0,0-15.918,10.614-18.371,20.999c1.008,1.345,0.336,6.454-4.027,6.186
		c-2.461,4.794-4.75,20.473-4.75,20.473s36.813,2.012,65.813,2.012c28.998,0,65.811-2.012,65.811-2.012
		S313.127,75.503,310.666,70.708z"/>
	<path fill="#2B2D3D" d="M260.811,39.661c-4.875-2.413-11.205-2.246-11.205-2.246s-6.332-0.167-11.207,2.246
		c0,0-1.963,32.754,11.207,32.754C262.774,72.415,260.811,39.661,260.811,39.661z"/>
	<path fill="#2B2D3D" d="M208.852,51.821c-3.598,1.19-6.941,4.255-6.941,4.255s-3.479,2.909-5.133,6.319
		c0,0,12.135,15.993,19.229,9.779C223.102,65.962,208.852,51.821,208.852,51.821z"/>
	<path fill="#2B2D3D" d="M290.358,51.821c3.598,1.19,6.941,4.255,6.941,4.255s3.479,2.909,5.133,6.319
		c0,0-12.135,15.993-19.229,9.779C276.108,65.962,290.358,51.821,290.358,51.821z"/>
	<path fill="#374D7F" d="M213.134,46.555l19.332,20.917c-4.25-16.375-9.5-26.875-9.5-26.875
		C224.55,42.972,219.259,48.805,213.134,46.555z"/>
	<path fill="#374D7F" d="M286.526,46.555l-19.334,20.917c4.25-16.375,9.5-26.875,9.5-26.875
		C275.11,42.972,280.401,48.805,286.526,46.555z"/>
	<path fill="#374D7F" d="M188.621,69.693c-0.096,0.326-0.157,0.697-0.127,1.113l10.613,2.013l-6.535-8.274
		C193.578,65.662,192.985,69.917,188.621,69.693z"/>
	<path fill="#374D7F" d="M310.742,69.869c0.05,0.138,0.084,0.562-0.076,0.839l-10.564,2.11l6.537-8.274
		C305.631,65.662,306.379,70.094,310.742,69.869z"/>
	<path fill="#46629B" d="M314.623,86.307c0,0-8.563,0.834-22.795,0.834c-14.354,0-17.08-4.21-17.08-4.21s0,0-4.313,0
		c-3.938,4.615-20.83,4.21-20.83,4.21s-16.895,0.405-20.832-4.21c-4.313,0-4.313,0-4.313,0s-2.723,4.21-17.08,4.21
		c-14.232,0-22.75-1.089-22.75-1.089l-0.84,5.128c0,0,30.895,7.216,65.813,7.216c34.92,0,65.813-7.216,65.813-7.216L314.623,86.307z
		"/>
</g>
<rect id="position" x="0" y="0" display="none" fill="none" stroke="#000000" stroke-width="0.9341" width="500" height="500"/>
</svg>
