<?xml version="1.0" encoding="utf-8"?>
<!-- Generator: Adobe Illustrator 14.0.0, SVG Export Plug-In . SVG Version: 6.00 Build 43363)  -->
<!DOCTYPE svg PUBLIC "-//W3C//DTD SVG 1.1//EN" "http://www.w3.org/Graphics/SVG/1.1/DTD/svg11.dtd">
<svg version="1.1" id="content" xmlns="http://www.w3.org/2000/svg" xmlns:xlink="http://www.w3.org/1999/xlink" x="0px" y="0px"
	 width="500px" height="500px" viewBox="0 0 500 500" enable-background="new 0 0 500 500" xml:space="preserve">
<g id="bounds">
	<rect x="155.527" y="-28.77" fill="none" stroke="#000000" stroke-width="1.0266" width="212.434" height="212.436"/>
</g>
<g id="accessory">
	<path fill="#E0E0E0" d="M325.139,91.251c0,3.313-2.881,6-6.437,6H182.008c-3.555,0-6.437-2.687-6.437-6V80.368
		c0-3.313,2.881-6,6.437-6h136.696c3.555,0,6.437,2.688,6.437,6L325.139,91.251L325.139,91.251z"/>
	<path fill="#CA0000" d="M185.126,79.766c0,0,29.238-55.167,64.405-55.167c34.377,0,67.291,40.505,86.725,87.624
		c-8.503,3.467-10.205,4.301-10.205,4.301s-7.405-32.073-22.734-36.758C274.878,79.766,185.126,79.766,185.126,79.766z"/>
	<circle fill="#E0E0E0" cx="330.198" cy="112.579" r="17.718"/>
</g>
<rect id="position" x="0" y="0" display="none" fill="none" stroke="#000000" width="500" height="500"/>
</svg>
