<?xml version="1.0" encoding="utf-8"?>
<!-- Generator: Adobe Illustrator 14.0.0, SVG Export Plug-In . SVG Version: 6.00 Build 43363)  -->
<!DOCTYPE svg PUBLIC "-//W3C//DTD SVG 1.1//EN" "http://www.w3.org/Graphics/SVG/1.1/DTD/svg11.dtd">
<svg version="1.1" id="content" xmlns="http://www.w3.org/2000/svg" xmlns:xlink="http://www.w3.org/1999/xlink" x="0px" y="0px"
	 width="500px" height="500px" viewBox="0 0 500 500" enable-background="new 0 0 500 500" xml:space="preserve">
<rect id="position" x="0" y="0" display="none" fill="none" stroke="#000000" width="500" height="500"/>
<g id="bounds" display="none">
	
		<rect x="144.089" y="-51.243" display="inline" fill="none" stroke="#000000" stroke-width="0.6533" width="211.667" height="211.679"/>
</g>
<g id="accessory">
	<path opacity="0.7" fill="#231F20" enable-background="new    " d="M275.344,28.156c0-0.958-11.932-2.735-25.423-2.735
		c-13.488,0-25.422,1.777-25.422,2.735l-6.141,45.334c0,1.278,13.579,2.314,31.563,2.314c17.981,0,31.563-1.036,31.563-2.314
		L275.344,28.156z"/>
	<ellipse opacity="0.7" fill="#231F20" enable-background="new    " cx="249.924" cy="74.306" rx="86.168" ry="7.086"/>
	<path opacity="0.5" fill="#231F20" enable-background="new    " d="M249.923,25.42c13.488,0,25.423,1.777,25.423,2.736
		s-11.935,2.736-25.423,2.736c-13.487,0-25.422-1.777-25.422-2.736S236.436,25.42,249.923,25.42z"/>
</g>
</svg>
