<?xml version="1.0" encoding="utf-8"?>
<!-- Generator: Adobe Illustrator 13.0.0, SVG Export Plug-In . SVG Version: 6.00 Build 14948)  -->
<!DOCTYPE svg PUBLIC "-//W3C//DTD SVG 1.1//EN" "http://www.w3.org/Graphics/SVG/1.1/DTD/svg11.dtd">
<svg version="1.1" id="Layer_1" xmlns="http://www.w3.org/2000/svg" xmlns:xlink="http://www.w3.org/1999/xlink" x="0px" y="0px"
	 width="500px" height="500px" viewBox="0 0 500 500" enable-background="new 0 0 500 500" xml:space="preserve">
<rect x="0.5" y="0.5" display="none" fill="#FFFFFF" stroke="#000000" width="500" height="500"/>
<g id="bounds" display="none">
	
		<rect x="157.49" y="-18.172" display="inline" fill="none" stroke="#000000" stroke-width="1.024" width="182.672" height="182.672"/>
</g>
<path fill="#E5E5E5" d="M286.133,60.774c-13.812-18.835-32.459-18.942-36.387-18.939c-3.928,0.003-22.575,0.136-36.361,18.99
	c-5.709,7.705-2.833,11.029-2.24,12.051c0.593,1.021,2.77,4.976,2.77,4.976l35.856-0.025l35.856-0.025c0,0,2.172-3.958,2.764-4.979
	C288.982,71.8,291.854,68.471,286.133,60.774z"/>
<path fill="#CECECE" d="M213.385,60.825c-5.709,7.705-2.833,11.029-2.24,12.051c0.593,1.021,2.77,4.976,2.77,4.976h0.441
	c4.811-0.433,11.822-0.958,19.091-1.136c-10.505-13.056-7.112-23.977-2.901-30.491C224.859,48.987,218.754,53.482,213.385,60.825z"
	/>
<circle fill="#0B0E16" cx="249.223" cy="59.249" r="12.085"/>
<g>
	<path opacity="0.2" fill="#090C16" enable-background="new    " d="M249.77,77.827c-14.283,0.01-36.357-1.004-36.357-1.004
		s3.415,9.436,7.394,13.356c11.37,10.553,21.72,11.25,28.981,11.246c7.262-0.005,17.61-0.717,28.966-11.286
		c3.973-3.925,7.374-13.703,7.374-13.703S264.053,77.817,249.77,77.827z"/>
	<path fill="#090C16" d="M249.768,76.69c-14.283,0.01-36.355,0.132-36.355,0.132s3.414,7.391,7.393,11.31
		c11.37,10.552,21.719,9.917,28.981,9.912c7.262-0.005,17.609,0.616,28.967-9.952c3.973-3.925,7.376-11.321,7.376-11.321
		S264.052,76.68,249.768,76.69z"/>
	<path fill="#303A55" d="M249.308,92.414c-11.527,0.008-21.597-2.803-21.597-2.803c2.544,5.856,21.599,5.712,21.599,5.712
		s19.053,0.119,21.59-5.743C270.9,89.58,260.833,92.406,249.308,92.414z"/>
	<path fill="#ECF31C" d="M255.538,60.629h-0.715c0,0,0,0,0.001,0.424c-0.635,3.388-4.524,4.021-4.524,4.021l-0.007-9.972V54.81
		c0,0,0.662,0,2.083-0.001s1.171-1.827,1.171-1.827s0,0-2.273,0.001c-0.002-2.488-2.058-2.434-2.058-2.434s-2.054-0.051-2.052,2.437
		c-2.276,0.001-2.276,0.001-2.276,0.001s-0.248,1.826,1.174,1.825c1.421-0.001,2.082-0.001,2.082-0.001v0.291l0.007,9.972
		c0,0-3.891-0.627-4.528-4.014c0-0.424,0-0.424,0-0.424h-0.714c0,0-0.147,6.538,6.319,6.534
		C255.693,67.166,255.538,60.629,255.538,60.629z M247.957,52.958c-0.001-1.667,1.259-1.694,1.259-1.694s1.26,0.024,1.261,1.692
		c-0.638,0-1.028,0-1.26,0.001C248.986,52.957,248.594,52.958,247.957,52.958z"/>
</g>
<path fill="none" stroke="#ECF31C" stroke-width="2.3599" stroke-linecap="round" stroke-linejoin="round" stroke-dasharray="2.8318,4.7197" d="
	M225.587,79.107c0,0,19.145,5.14,48.373-0.033"/>
</svg>
