<?xml version="1.0" encoding="utf-8"?>
<!-- Generator: Adobe Illustrator 13.0.0, SVG Export Plug-In . SVG Version: 6.00 Build 14948)  -->
<!DOCTYPE svg PUBLIC "-//W3C//DTD SVG 1.1//EN" "http://www.w3.org/Graphics/SVG/1.1/DTD/svg11.dtd">
<svg version="1.1" id="Layer_1" xmlns="http://www.w3.org/2000/svg" xmlns:xlink="http://www.w3.org/1999/xlink" x="0px" y="0px"
	 width="500px" height="500px" viewBox="0 0 500 500" enable-background="new 0 0 500 500" xml:space="preserve">
<rect x="0.5" y="0.5" display="none" fill="#FFFFFF" stroke="#000000" width="500" height="500"/>
<g id="bounds" display="none">
	
		<rect x="128.158" y="-40.504" display="inline" fill="none" stroke="#000000" stroke-width="0.9278" width="241.338" height="241.336"/>
</g>
<g>
	<path fill="#D6CE6B" d="M298.662,88.25c0,0.552-0.311,1-0.691,1h-96.563c-0.382,0-0.692-0.448-0.692-1V58.335
		c0-0.552,0.31-1,0.692-1h96.563c0.383,0,0.691,0.448,0.691,1V88.25z"/>
	<ellipse fill="#E3DB71" cx="248.309" cy="86.56" rx="94.591" ry="11.71"/>
	<ellipse fill="#B5AE5B" cx="249.688" cy="57.945" rx="48.974" ry="4.735"/>
	<path fill="#3D3D3D" d="M298.662,69.41c0,2.615-21.928,4.735-48.974,4.735c-27.048,0-48.974-2.12-48.974-4.735v15.204
		c0,2.615,21.926,4.735,48.974,4.735c27.046,0,48.974-2.12,48.974-4.735V69.41z"/>
	<path fill="#FF0000" d="M298.662,79.741c0,2.615-21.928,4.735-48.974,4.735c-27.048,0-48.974-2.12-48.974-4.735v-4.13
		c0,2.615,21.926,4.735,48.974,4.735c27.046,0,48.974-2.12,48.974-4.735V79.741z"/>
</g>
</svg>
