<?xml version="1.0" encoding="utf-8"?>
<!-- Generator: Adobe Illustrator 14.0.0, SVG Export Plug-In . SVG Version: 6.00 Build 43363)  -->
<!DOCTYPE svg PUBLIC "-//W3C//DTD SVG 1.1//EN" "http://www.w3.org/Graphics/SVG/1.1/DTD/svg11.dtd">
<svg version="1.1" id="content" xmlns="http://www.w3.org/2000/svg" xmlns:xlink="http://www.w3.org/1999/xlink" x="0px" y="0px"
	 width="500px" height="500px" viewBox="0 0 500 500" enable-background="new 0 0 500 500" xml:space="preserve">
<g id="bounds">
	<rect x="182.052" y="132.973" fill="none" stroke="#000000" stroke-width="0.9753" width="135.291" height="135.294"/>
</g>
<g id="accessory">
	<path opacity="0.3" fill="#33322F" enable-background="new    " d="M301.531,186.888l-51.83,23.601l-52.527-23.778
		c0,0-2.555,7.303,2.57,10.178c-1.438,3.188,0.5,5.289,2.188,5.613c-1,2.262,1.314,5.579,3.689,5.639
		c2.25,0.061,2.688-0.971,2.688-0.971l1.938,1.597c0,0-0.375,3.265,2.688,4.6s5.063-0.579,5.063-0.579
		c-0.75,3.601,1.74,7.164,5.371,7.601c3.629,0.438,4.816-2.688,4.816-2.688c-0.5,3.813,4.625,6.5,7.063,5.375s3.5-3.938,3.5-3.938
		c-0.188,6.063,7.534,9.874,10.955,3.753c3.419,6.12,11.141,2.309,10.953-3.753c0,0,1.063,2.813,3.5,3.938s7.563-1.563,7.063-5.375
		c0,0,1.188,3.125,4.816,2.688c3.631-0.437,6.121-4,5.371-7.601c0,0,2,1.914,5.063,0.579s2.688-4.6,2.688-4.6l1.938-1.597
		c0,0,0.439,1.031,2.689,0.971c2.375-0.06,4.686-3.377,3.688-5.639c1.688-0.324,3.625-2.425,2.188-5.613
		C304.781,194.013,301.531,186.888,301.531,186.888z"/>
	<path fill="#33322F" d="M302.343,175.242c-2.197,12.363-9.518,19.502-9.604,19.588c-0.803,0.759-0.834,2.022-0.076,2.825
		c0.396,0.416,0.924,0.626,1.453,0.626c0.494,0,0.984-0.182,1.375-0.546c0.42-0.397,8.699-8.421,10.922-22.493H302.343z"/>
	<path fill="#33322F" d="M197.048,175.275h-4.066c2.229,14.059,10.512,22.063,10.932,22.46c0.387,0.364,0.881,0.546,1.373,0.546
		c0.531,0,1.061-0.21,1.455-0.626c0.758-0.804,0.723-2.069-0.08-2.828C206.57,194.742,199.243,187.665,197.048,175.275z"/>
	<ellipse fill="#545B66" cx="203.546" cy="190.58" rx="4.822" ry="5.412"/>
	<path fill="#DBDBDB" d="M203.546,190.58l4.797,0.29c0.004-0.099,0.025-0.19,0.025-0.29c0-2.426-1.432-4.455-3.393-5.142
		L203.546,190.58z"/>
	<ellipse fill="#545B66" cx="211.433" cy="195.992" rx="4.824" ry="5.412"/>
	<path fill="#DBDBDB" d="M211.433,195.992l4.797,0.29c0.004-0.1,0.025-0.19,0.025-0.29c0-2.427-1.432-4.455-3.391-5.143
		L211.433,195.992z"/>
	<ellipse fill="#6A717C" cx="204.906" cy="197.649" rx="3.4" ry="3.816"/>
	<path fill="#DBDBDB" d="M204.906,197.65l3.383,0.205c0.004-0.07,0.02-0.135,0.02-0.205c0-1.71-1.01-3.142-2.393-3.626
		L204.906,197.65z"/>
	<ellipse fill="#545B66" cx="218.669" cy="200.075" rx="4.822" ry="5.412"/>
	<path fill="#DBDBDB" d="M218.667,200.075l4.797,0.29c0.006-0.1,0.027-0.19,0.027-0.29c0-2.426-1.434-4.454-3.393-5.143
		L218.667,200.075z"/>
	<ellipse fill="#545B66" cx="226.761" cy="203.982" rx="4.822" ry="5.412"/>
	<path fill="#DBDBDB" d="M226.761,203.983l4.797,0.29c0.004-0.1,0.025-0.191,0.025-0.29c0-2.427-1.432-4.454-3.393-5.143
		L226.761,203.983z"/>
	<ellipse fill="#545B66" cx="235.667" cy="206.675" rx="4.824" ry="5.412"/>
	<path fill="#DBDBDB" d="M235.667,206.675l4.797,0.29c0.004-0.099,0.025-0.189,0.025-0.29c0-2.426-1.432-4.455-3.393-5.142
		L235.667,206.675z"/>
	<path fill="#545B66" d="M249.657,207.247c-0.348-2.963-2.771-5.05-5.412-4.66s-4.5,3.108-4.152,6.072
		c0.348,2.962,2.771,5.049,5.412,4.659C248.146,212.928,250.005,210.21,249.657,207.247z"/>
	<path fill="#DBDBDB" d="M244.874,207.953l4.791-0.415c-0.006-0.099,0.004-0.193-0.008-0.292c-0.281-2.405-1.938-4.206-3.961-4.603
		L244.874,207.953z"/>
	<ellipse fill="#6A717C" cx="211.8" cy="203.631" rx="3.4" ry="3.816"/>
	<path fill="#DBDBDB" d="M211.8,203.63l3.383,0.204c0.002-0.069,0.02-0.134,0.02-0.204c0-1.711-1.012-3.141-2.393-3.626
		L211.8,203.63z"/>
	<ellipse fill="#6A717C" cx="220.091" cy="206.966" rx="3.4" ry="3.816"/>
	<path fill="#DBDBDB" d="M220.091,206.965l3.383,0.205c0.002-0.07,0.02-0.134,0.02-0.205c0-1.71-1.012-3.141-2.393-3.626
		L220.091,206.965z"/>
	<ellipse fill="#6A717C" cx="229.898" cy="210.491" rx="3.402" ry="3.816"/>
	<path fill="#DBDBDB" d="M229.898,210.491l3.385,0.205c0.002-0.07,0.018-0.135,0.018-0.205c0-1.711-1.01-3.142-2.391-3.626
		L229.898,210.491z"/>
	<ellipse fill="#6A717C" cx="239.562" cy="212.583" rx="3.4" ry="3.816"/>
	<path fill="#DBDBDB" d="M239.562,212.583l3.383,0.204c0.004-0.069,0.02-0.134,0.02-0.204c0-1.711-1.01-3.141-2.393-3.626
		L239.562,212.583z"/>
	<ellipse fill="#757D89" cx="233.728" cy="217.209" rx="3.877" ry="4.349"/>
	<path fill="#DBDBDB" d="M233.728,217.182l3.855,0.233c0.004-0.08,0.021-0.153,0.021-0.233c0-1.949-1.15-3.58-2.725-4.132
		L233.728,217.182z"/>
	<ellipse fill="#757D89" cx="244.728" cy="219.186" rx="4.619" ry="5.183"/>
	<path fill="#DBDBDB" d="M244.728,219.159l4.594,0.276c0.006-0.095,0.025-0.182,0.025-0.276c0-2.324-1.373-4.268-3.248-4.925
		L244.728,219.159z"/>
	<ellipse fill="#757D89" cx="223.55" cy="214.055" rx="3.877" ry="4.349"/>
	<path fill="#DBDBDB" d="M223.55,214.029l3.855,0.232c0.004-0.08,0.021-0.152,0.021-0.232c0-1.95-1.152-3.58-2.725-4.132
		L223.55,214.029z"/>
	<ellipse fill="#757D89" cx="214.741" cy="209.215" rx="3" ry="3.367"/>
	<path fill="#DBDBDB" d="M214.741,209.189l2.984,0.18c0.002-0.063,0.016-0.118,0.016-0.18c0-1.511-0.891-2.771-2.109-3.199
		L214.741,209.189z"/>
	<ellipse fill="#757D89" cx="206.107" cy="203.74" rx="2.656" ry="2.981"/>
	<path fill="#DBDBDB" d="M206.107,203.712l2.643,0.16c0.002-0.055,0.014-0.105,0.014-0.16c0-1.336-0.789-2.454-1.867-2.833
		L206.107,203.712z"/>
	<ellipse fill="#545B66" cx="295.853" cy="190.58" rx="4.822" ry="5.412"/>
	<path fill="#DBDBDB" d="M295.853,190.58l4.797,0.29c0.006-0.099,0.025-0.19,0.025-0.29c0-2.426-1.436-4.455-3.395-5.142
		L295.853,190.58z"/>
	<ellipse fill="#545B66" cx="287.966" cy="195.992" rx="4.824" ry="5.412"/>
	<path fill="#DBDBDB" d="M287.966,195.992l4.797,0.29c0.006-0.1,0.027-0.19,0.027-0.29c0-2.427-1.434-4.455-3.393-5.143
		L287.966,195.992z"/>
	<ellipse fill="#6A717C" cx="294.493" cy="197.649" rx="3.4" ry="3.816"/>
	<path fill="#DBDBDB" d="M294.493,197.65l3.383,0.205c0.004-0.07,0.02-0.135,0.02-0.205c0-1.71-1.01-3.142-2.393-3.626
		L294.493,197.65z"/>
	<ellipse fill="#545B66" cx="280.732" cy="200.075" rx="4.824" ry="5.412"/>
	<path fill="#DBDBDB" d="M280.73,200.075l4.799,0.29c0.006-0.1,0.025-0.19,0.025-0.29c0-2.426-1.436-4.454-3.395-5.143
		L280.73,200.075z"/>
	<ellipse fill="#545B66" cx="272.638" cy="203.982" rx="4.824" ry="5.412"/>
	<path fill="#DBDBDB" d="M272.638,203.983l4.799,0.29c0.008-0.1,0.025-0.191,0.025-0.29c0-2.427-1.432-4.454-3.393-5.143
		L272.638,203.983z"/>
	<ellipse fill="#545B66" cx="263.732" cy="206.675" rx="4.824" ry="5.412"/>
	<path fill="#DBDBDB" d="M263.732,206.675l4.799,0.29c0.004-0.099,0.025-0.189,0.025-0.29c0-2.426-1.436-4.455-3.396-5.142
		L263.732,206.675z"/>
	<path fill="#545B66" d="M259.306,207.247c-0.348-2.963-2.77-5.05-5.412-4.66c-2.641,0.39-4.5,3.108-4.148,6.072
		c0.348,2.962,2.771,5.049,5.412,4.659C257.794,212.929,259.654,210.21,259.306,207.247z"/>
	<path fill="#DBDBDB" d="M254.523,207.953l4.791-0.415c-0.006-0.099,0.004-0.193-0.008-0.292c-0.281-2.405-1.938-4.206-3.961-4.603
		L254.523,207.953z"/>
	<ellipse fill="#6A717C" cx="287.599" cy="203.631" rx="3.398" ry="3.816"/>
	<path fill="#DBDBDB" d="M287.599,203.63l3.383,0.204c0.004-0.069,0.02-0.134,0.02-0.204c0-1.711-1.01-3.141-2.393-3.626
		L287.599,203.63z"/>
	<ellipse fill="#6A717C" cx="279.308" cy="206.966" rx="3.398" ry="3.816"/>
	<path fill="#DBDBDB" d="M279.308,206.965l3.383,0.205c0.004-0.07,0.02-0.134,0.02-0.205c0-1.71-1.01-3.141-2.391-3.626
		L279.308,206.965z"/>
	<ellipse fill="#6A717C" cx="269.501" cy="210.491" rx="3.4" ry="3.816"/>
	<path fill="#DBDBDB" d="M269.501,210.491l3.383,0.205c0.004-0.07,0.021-0.135,0.021-0.205c0-1.711-1.014-3.142-2.395-3.626
		L269.501,210.491z"/>
	<ellipse fill="#6A717C" cx="259.837" cy="212.583" rx="3.402" ry="3.816"/>
	<path fill="#DBDBDB" d="M259.837,212.583l3.383,0.204c0.004-0.069,0.021-0.134,0.021-0.204c0-1.711-1.012-3.141-2.395-3.626
		L259.837,212.583z"/>
	<ellipse fill="#757D89" cx="265.671" cy="217.209" rx="3.875" ry="4.349"/>
	<path fill="#DBDBDB" d="M265.671,217.182l3.854,0.233c0.006-0.08,0.021-0.153,0.021-0.233c0-1.949-1.15-3.58-2.725-4.132
		L265.671,217.182z"/>
	<ellipse fill="#757D89" cx="254.671" cy="219.186" rx="4.619" ry="5.183"/>
	<path fill="#DBDBDB" d="M254.671,219.159l4.594,0.276c0.006-0.095,0.025-0.182,0.025-0.276c0-2.324-1.371-4.268-3.248-4.925
		L254.671,219.159z"/>
	<ellipse fill="#757D89" cx="275.849" cy="214.055" rx="3.875" ry="4.349"/>
	<path fill="#DBDBDB" d="M275.847,214.029l3.855,0.232c0.004-0.08,0.021-0.152,0.021-0.232c0-1.95-1.15-3.58-2.729-4.132
		L275.847,214.029z"/>
	<ellipse fill="#757D89" cx="284.659" cy="209.188" rx="3" ry="3.367"/>
	<path fill="#DBDBDB" d="M284.659,209.189l2.982,0.18c0.004-0.063,0.018-0.118,0.018-0.18c0-1.511-0.893-2.771-2.109-3.199
		L284.659,209.189z"/>
	<ellipse fill="#757D89" cx="293.292" cy="203.713" rx="2.658" ry="2.981"/>
	<path fill="#DBDBDB" d="M293.292,203.712l2.643,0.16c0.004-0.055,0.02-0.105,0.02-0.16c0-1.336-0.789-2.454-1.869-2.833
		L293.292,203.712z"/>
	<ellipse fill="#6A717C" cx="249.665" cy="212.583" rx="3.4" ry="3.816"/>
	<path fill="#DBDBDB" d="M249.665,212.583l3.383,0.204c0.002-0.069,0.021-0.134,0.021-0.204c0-1.711-1.014-3.141-2.393-3.626
		L249.665,212.583z"/>
</g>
<rect id="position" x="0" y="0" display="none" fill="none" stroke="#000000" width="500" height="500"/>
</svg>
