<?xml version="1.0" encoding="utf-8"?>
<!-- Generator: Adobe Illustrator 14.0.0, SVG Export Plug-In . SVG Version: 6.00 Build 43363)  -->
<!DOCTYPE svg PUBLIC "-//W3C//DTD SVG 1.1//EN" "http://www.w3.org/Graphics/SVG/1.1/DTD/svg11.dtd">
<svg version="1.1" id="content" xmlns="http://www.w3.org/2000/svg" xmlns:xlink="http://www.w3.org/1999/xlink" x="0px" y="0px"
	 width="500px" height="500px" viewBox="0 0 500 500" enable-background="new 0 0 500 500" xml:space="preserve">
<path id="position" display="none" d="M499,1v498H1V1H499 M500,0H0v500h500V0L500,0z"/>
<g id="bounds">
	<rect x="158.491" y="156.247" fill="none" stroke="#000000" stroke-width="1.1116" width="181.604" height="181.605"/>
</g>
<g id="accessory">
	<path fill="#C9CE02" d="M320.095,175.218h-1.404l-0.379,2.406c-0.021,0.123-0.063,0.224-0.117,0.313
		c-0.17-0.09-0.355-0.164-0.557-0.2c-0.137-0.025-0.271-0.035-0.412-0.031c-0.027-0.123-0.045-0.253-0.025-0.395l0.328-2.094h-1.418
		l-0.305,1.933c-0.061,0.387-0.008,0.762,0.133,1.095c-0.316,0.293-0.543,0.683-0.613,1.138l-0.463,3.046
		c-0.068,0.404-0.006,0.796,0.15,1.141c-0.238,0.257-0.416,0.57-0.488,0.932l-0.604,3.018c-0.098,0.485-0.008,0.958,0.213,1.357
		c-0.246,0.259-0.428,0.579-0.506,0.946l-0.6,3.021c-0.066,0.334-0.037,0.663,0.051,0.967c-0.219,0.246-0.398,0.544-0.475,0.89
		l-0.658,3.003c-0.074,0.341-0.055,0.677,0.033,0.989c-0.23,0.248-0.414,0.552-0.486,0.902l-0.662,3.003
		c-0.094,0.426-0.041,0.849,0.117,1.219c-0.318,0.265-0.561,0.622-0.66,1.048l-0.711,2.988c-0.1,0.416-0.061,0.83,0.082,1.199
		c-0.283,0.257-0.498,0.593-0.592,0.985l-0.711,2.99c-0.068,0.284-0.068,0.566-0.02,0.837c-0.145,0.188-0.268,0.396-0.334,0.635
		l-0.859,2.94c-0.072,0.238-0.086,0.479-0.074,0.711c-0.246,0.223-0.443,0.499-0.549,0.83l-0.922,2.92
		c-0.088,0.285-0.107,0.573-0.074,0.853c-0.205,0.202-0.369,0.446-0.469,0.729l-0.998,2.891c-0.127,0.379-0.143,0.771-0.053,1.135
		c-0.316,0.226-0.563,0.538-0.697,0.916l-1,2.888c-0.078,0.231-0.111,0.467-0.107,0.698c-0.258,0.21-0.465,0.479-0.59,0.804
		l-1.057,2.862c-0.105,0.279-0.135,0.563-0.119,0.845c-0.217,0.19-0.396,0.426-0.51,0.702l-1.135,2.829
		c-0.172,0.422-0.178,0.868-0.068,1.277c-0.365,0.176-0.68,0.458-0.873,0.831l-1.389,2.684c-0.113,0.215-0.174,0.442-0.207,0.671
		c-0.281,0.169-0.527,0.399-0.691,0.697l-1.447,2.651c-0.139,0.257-0.215,0.533-0.232,0.811c-0.24,0.156-0.447,0.359-0.594,0.614
		l-1.518,2.604c-0.15,0.258-0.229,0.538-0.258,0.819c-0.479,0.101-0.93,0.354-1.213,0.771l-1.689,2.471
		c-0.131,0.188-0.221,0.396-0.277,0.608c-0.297,0.126-0.564,0.313-0.766,0.58l-1.793,2.38c-0.152,0.2-0.26,0.423-0.322,0.651
		c-0.242,0.1-0.463,0.24-0.65,0.437l-2.023,2.147c-0.301,0.318-0.449,0.724-0.498,1.136c-0.455,0.01-0.902,0.155-1.246,0.469
		l-2.174,1.962c-0.221,0.2-0.381,0.445-0.494,0.712c-0.494-0.063-1.008,0.035-1.422,0.348l-2.32,1.748
		c-0.311,0.23-0.531,0.543-0.658,0.889c-0.395-0.068-0.807-0.022-1.182,0.156l-2.566,1.267c-0.51,0.248-0.854,0.692-1.002,1.205
		c-0.49-0.181-1.047-0.179-1.531,0.063l-2.566,1.267c-0.418,0.207-0.725,0.551-0.908,0.95c-0.379-0.12-0.793-0.133-1.188-0.002
		l-2.699,0.894c-0.447,0.146-0.805,0.444-1.035,0.817c-0.367-0.186-0.797-0.26-1.219-0.18l-2.775,0.521
		c-0.41,0.074-0.756,0.271-1.023,0.542c-0.357-0.188-0.76-0.275-1.195-0.212l-2.795,0.394c-0.377,0.055-0.711,0.213-0.98,0.438
		c-0.273-0.228-0.605-0.386-0.98-0.438l-2.795-0.394c-0.43-0.063-0.842,0.021-1.193,0.211c-0.27-0.271-0.619-0.467-1.021-0.541
		l-2.775-0.521c-0.432-0.078-0.854-0.006-1.221,0.178c-0.236-0.371-0.586-0.67-1.031-0.815l-2.697-0.894
		c-0.393-0.131-0.807-0.118-1.186,0.002c-0.186-0.399-0.49-0.745-0.912-0.95l-2.568-1.267c-0.484-0.235-1.039-0.237-1.527-0.063
		c-0.152-0.513-0.5-0.956-1.006-1.204l-2.57-1.27c-0.373-0.183-0.785-0.229-1.178-0.154c-0.129-0.346-0.352-0.652-0.658-0.889
		l-2.322-1.748c-0.414-0.312-0.928-0.408-1.424-0.346c-0.109-0.268-0.27-0.514-0.492-0.714l-2.176-1.961
		c-0.348-0.313-0.797-0.461-1.25-0.471c-0.051-0.412-0.199-0.813-0.498-1.135l-2.023-2.147c-0.182-0.191-0.406-0.336-0.646-0.435
		c-0.066-0.23-0.172-0.453-0.324-0.653l-1.795-2.38c-0.199-0.268-0.473-0.454-0.77-0.58c-0.057-0.213-0.145-0.421-0.275-0.608
		l-1.693-2.472c-0.285-0.413-0.732-0.67-1.215-0.77c-0.025-0.281-0.105-0.563-0.256-0.819l-1.514-2.604
		c-0.148-0.251-0.355-0.458-0.596-0.613c-0.021-0.277-0.094-0.554-0.234-0.812l-1.447-2.651c-0.162-0.297-0.408-0.525-0.691-0.694
		c-0.027-0.229-0.094-0.457-0.205-0.672l-1.393-2.687c-0.193-0.371-0.506-0.652-0.871-0.828c0.111-0.41,0.102-0.856-0.068-1.279
		l-1.135-2.829c-0.111-0.279-0.295-0.505-0.506-0.7c0.02-0.279-0.012-0.565-0.115-0.845l-1.061-2.865
		c-0.121-0.323-0.332-0.589-0.586-0.799c0.002-0.231-0.029-0.469-0.111-0.701l-1-2.889c-0.133-0.378-0.383-0.689-0.693-0.915
		c0.086-0.363,0.076-0.756-0.053-1.135l-0.998-2.892c-0.098-0.282-0.266-0.525-0.473-0.728c0.035-0.279,0.018-0.568-0.072-0.854
		l-0.922-2.922c-0.104-0.33-0.303-0.605-0.547-0.828c0.016-0.232-0.004-0.474-0.074-0.711l-0.861-2.942
		c-0.07-0.238-0.189-0.448-0.334-0.634c0.049-0.271,0.049-0.554-0.02-0.838l-0.711-2.99c-0.096-0.393-0.311-0.729-0.592-0.984
		c0.145-0.369,0.184-0.783,0.084-1.199l-0.711-2.99c-0.1-0.424-0.346-0.78-0.664-1.044c0.156-0.371,0.209-0.793,0.115-1.22
		l-0.662-3.005c-0.078-0.35-0.256-0.652-0.488-0.899c0.09-0.313,0.111-0.648,0.035-0.99l-0.66-3.005
		c-0.078-0.344-0.252-0.641-0.477-0.885c0.09-0.305,0.117-0.634,0.049-0.97l-0.598-3.021c-0.074-0.366-0.256-0.685-0.502-0.942
		c0.219-0.399,0.309-0.873,0.211-1.358l-0.598-3.02c-0.072-0.36-0.252-0.675-0.49-0.931c0.154-0.344,0.215-0.736,0.15-1.141
		l-0.467-3.048c-0.07-0.453-0.299-0.841-0.613-1.133c0.141-0.333,0.193-0.71,0.131-1.098l-0.303-1.936h-1.422l0.33,2.094
		c0.021,0.142,0.006,0.271-0.025,0.395c-0.133-0.004-0.27,0.005-0.406,0.03c-0.203,0.037-0.389,0.112-0.563,0.204
		c-0.049-0.091-0.09-0.193-0.111-0.317l-0.379-2.405h-1.412l0.404,2.567c0.07,0.457,0.293,0.852,0.607,1.145
		c-0.133,0.328-0.188,0.696-0.127,1.076l0.467,3.045c0.061,0.405,0.242,0.76,0.5,1.041c-0.158,0.365-0.215,0.78-0.131,1.205
		l0.598,3.017c0.072,0.371,0.252,0.697,0.494,0.96c-0.213,0.396-0.299,0.865-0.205,1.346l0.598,3.017
		c0.074,0.364,0.244,0.687,0.48,0.945c-0.09,0.313-0.111,0.653-0.037,0.998l0.664,3.001c0.078,0.357,0.25,0.671,0.482,0.923
		c-0.084,0.307-0.105,0.637-0.031,0.971l0.664,3c0.096,0.447,0.338,0.826,0.664,1.1c-0.156,0.378-0.203,0.806-0.102,1.236
		l0.713,2.986c0.096,0.396,0.305,0.735,0.586,0.995c-0.141,0.367-0.178,0.777-0.08,1.19l0.713,2.987
		c0.066,0.281,0.195,0.532,0.361,0.749c-0.053,0.299-0.047,0.614,0.045,0.926l0.861,2.939c0.104,0.351,0.309,0.638,0.557,0.873
		c-0.016,0.247,0.012,0.501,0.09,0.751l0.92,2.917c0.098,0.307,0.279,0.559,0.49,0.775c-0.035,0.299-0.014,0.607,0.09,0.909
		l0.996,2.89c0.133,0.384,0.379,0.702,0.689,0.934c-0.084,0.361-0.07,0.751,0.061,1.127l1.002,2.884
		c0.119,0.341,0.336,0.62,0.598,0.844c-0.004,0.246,0.035,0.497,0.127,0.741l1.061,2.86c0.111,0.302,0.303,0.545,0.525,0.751
		c-0.021,0.297,0.016,0.603,0.135,0.896l1.133,2.826c0.184,0.455,0.529,0.793,0.945,1.004c-0.129,0.474-0.086,0.994,0.156,1.458
		l1.393,2.684c0.166,0.322,0.416,0.584,0.713,0.768c0.035,0.232,0.105,0.462,0.225,0.677l1.445,2.646
		c0.15,0.274,0.369,0.498,0.621,0.672c0.023,0.292,0.104,0.582,0.262,0.851l1.514,2.604c0.281,0.479,0.758,0.807,1.297,0.92
		c0.035,0.32,0.139,0.64,0.334,0.921l1.691,2.466c0.207,0.304,0.494,0.523,0.82,0.669c0.066,0.235,0.174,0.464,0.33,0.667
		l1.793,2.377c0.215,0.283,0.498,0.488,0.813,0.619c0.088,0.29,0.215,0.566,0.434,0.797l2.023,2.146
		c0.35,0.371,0.836,0.584,1.344,0.604c0.059,0.46,0.271,0.896,0.635,1.228l2.176,1.961c0.359,0.322,0.826,0.502,1.311,0.502
		c0.084,0,0.166-0.021,0.248-0.028c0.131,0.313,0.338,0.593,0.623,0.807l2.32,1.744c0.342,0.258,0.75,0.396,1.18,0.396
		c0.105,0,0.207-0.021,0.311-0.037c0.172,0.453,0.51,0.849,0.975,1.072l2.568,1.266c0.268,0.132,0.566,0.202,0.865,0.202
		c0.234,0,0.453-0.054,0.664-0.128c0.156,0.507,0.502,0.945,1.006,1.191l2.566,1.262c0.268,0.135,0.566,0.201,0.867,0.201
		c0.197,0,0.391-0.029,0.572-0.084c0.223,0.479,0.625,0.861,1.16,1.037l2.691,0.891c0.199,0.065,0.41,0.104,0.621,0.104
		c0.303,0,0.582-0.092,0.842-0.219c0.281,0.448,0.736,0.784,1.301,0.892l2.771,0.521c0.121,0.021,0.246,0.033,0.367,0.033
		c0.332,0,0.643-0.086,0.916-0.229c0.279,0.276,0.639,0.479,1.057,0.547c-1.344,1.031-2.195,2.521-2.195,4.186
		c0,0.846,0.225,1.645,0.615,2.359c-0.242-0.014-0.482-0.025-0.729-0.025c-4.193,0-9.092,2.233-9.092,8.541
		c0,10.192,14.527,20.504,15.148,20.938l0.926,0.646l0.928-0.646c0.617-0.436,15.145-10.741,15.145-20.938
		c0-6.308-4.898-8.541-9.092-8.541c-0.441,0-0.879,0.028-1.311,0.071c0.406-0.729,0.643-1.546,0.643-2.405
		c0-1.662-0.854-3.156-2.201-4.188c0.41-0.074,0.76-0.271,1.035-0.542c0.271,0.146,0.584,0.229,0.914,0.229
		c0.123,0,0.248-0.012,0.367-0.033l2.77-0.521c0.561-0.104,1.018-0.44,1.297-0.893c0.268,0.127,0.543,0.219,0.846,0.219
		c0.217,0,0.418-0.033,0.619-0.102l2.693-0.893c0.533-0.177,0.943-0.563,1.16-1.037c0.182,0.055,0.373,0.086,0.572,0.086
		c0.299,0,0.598-0.068,0.863-0.201l2.566-1.265c0.506-0.245,0.854-0.688,1.004-1.19c0.215,0.074,0.43,0.125,0.662,0.125
		c0.299,0,0.598-0.068,0.861-0.2l2.563-1.263c0.467-0.229,0.805-0.619,0.979-1.076c0.104,0.018,0.205,0.039,0.313,0.039
		c0.43,0,0.836-0.137,1.18-0.396l2.316-1.739c0.285-0.217,0.494-0.496,0.625-0.812c0.08,0.011,0.164,0.025,0.248,0.025
		c0.486,0,0.951-0.178,1.313-0.502l2.17-1.957c0.367-0.324,0.576-0.77,0.637-1.229c0.512-0.021,0.996-0.232,1.342-0.604l2.023-2.146
		c0.219-0.229,0.346-0.508,0.434-0.797c0.316-0.132,0.598-0.336,0.809-0.62l1.791-2.376c0.156-0.204,0.268-0.433,0.328-0.668
		c0.322-0.146,0.611-0.367,0.816-0.669l1.693-2.465c0.195-0.281,0.299-0.6,0.332-0.922c0.541-0.109,1.008-0.433,1.297-0.922
		l1.512-2.604c0.158-0.269,0.238-0.562,0.262-0.854c0.254-0.174,0.473-0.396,0.623-0.672l1.445-2.646
		c0.119-0.216,0.188-0.445,0.219-0.678c0.299-0.183,0.551-0.445,0.711-0.768l1.389-2.683c0.246-0.465,0.285-0.987,0.164-1.46
		c0.412-0.21,0.756-0.549,0.945-1.005l1.133-2.823c0.123-0.295,0.16-0.601,0.135-0.898c0.221-0.206,0.416-0.45,0.523-0.751
		l1.059-2.857c0.09-0.245,0.129-0.497,0.125-0.744c0.266-0.223,0.479-0.502,0.6-0.842l1-2.883c0.127-0.377,0.146-0.768,0.063-1.129
		c0.311-0.231,0.559-0.55,0.689-0.936l1-2.887c0.107-0.302,0.123-0.612,0.086-0.91c0.217-0.217,0.396-0.469,0.492-0.774l0.918-2.917
		c0.078-0.25,0.109-0.504,0.09-0.75c0.248-0.235,0.457-0.522,0.561-0.874l0.859-2.939c0.09-0.312,0.096-0.627,0.043-0.926
		c0.17-0.217,0.295-0.467,0.365-0.748l0.709-2.987c0.098-0.413,0.059-0.824-0.078-1.19c0.279-0.26,0.494-0.599,0.588-0.995
		l0.707-2.987c0.104-0.431,0.055-0.858-0.098-1.237c0.326-0.271,0.563-0.651,0.662-1.099l0.658-3.001
		c0.074-0.334,0.053-0.663-0.027-0.97c0.229-0.251,0.404-0.565,0.482-0.923l0.658-3c0.076-0.343,0.055-0.68-0.033-0.992
		c0.234-0.259,0.408-0.583,0.477-0.952l0.602-3.019c0.094-0.479,0.01-0.946-0.205-1.343c0.242-0.263,0.42-0.59,0.496-0.961
		l0.6-3.016c0.08-0.425,0.023-0.841-0.131-1.207c0.258-0.281,0.438-0.635,0.5-1.04l0.469-3.045c0.059-0.38,0.004-0.748-0.129-1.076
		c0.318-0.293,0.537-0.688,0.609-1.146L320.095,175.218z M181.298,183.097c-0.025-0.064-0.053-0.129-0.066-0.206l-0.467-3.045
		c-0.023-0.141-0.004-0.271,0.025-0.394c0.018,0,0.031,0.004,0.045,0.004c0.123,0,0.248-0.012,0.371-0.035
		c0.197-0.038,0.377-0.111,0.547-0.201c0.055,0.092,0.098,0.194,0.117,0.318l0.469,3.048c0.018,0.122,0.012,0.238-0.008,0.347
		c-0.215-0.024-0.434-0.022-0.648,0.028C181.546,182.994,181.417,183.041,181.298,183.097z M182.193,188.111l-0.598-3.019
		c-0.027-0.133-0.021-0.26,0.004-0.38c0.063,0.006,0.121,0.017,0.184,0.017c0.121,0,0.244-0.012,0.363-0.033
		c0.172-0.032,0.33-0.093,0.479-0.163c0.023,0.054,0.047,0.105,0.059,0.169l0.6,3.021c0.039,0.194,0.008,0.375-0.053,0.534
		c-0.217-0.027-0.439-0.025-0.658,0.026c-0.1,0.022-0.191,0.061-0.283,0.098C182.247,188.302,182.212,188.213,182.193,188.111z
		 M183.079,193.419l-0.596-3.003c-0.039-0.193-0.008-0.37,0.057-0.527c0.066,0.007,0.129,0.019,0.195,0.019
		c0.154,0,0.313-0.02,0.463-0.056c0.096-0.022,0.188-0.06,0.275-0.096c0.043,0.078,0.08,0.166,0.1,0.268l0.6,3.021
		c0.008,0.042,0,0.081,0.004,0.122c-0.205-0.015-0.416-0.007-0.621,0.048C183.382,193.26,183.226,193.334,183.079,193.419z
		 M184.175,198.324l-0.656-2.972c-0.01-0.046-0.002-0.09-0.006-0.135c0.039,0.002,0.076,0.009,0.111,0.009
		c0.156,0,0.313-0.018,0.463-0.055c0.191-0.046,0.363-0.125,0.523-0.218l0.654,2.971c0.01,0.046,0.002,0.088,0.006,0.134
		c-0.199-0.013-0.4-0.004-0.6,0.049C184.49,198.155,184.329,198.232,184.175,198.324z M185.452,203.588
		c-0.064-0.09-0.123-0.197-0.154-0.339l-0.662-3.001c-0.01-0.043-0.002-0.083-0.006-0.126c0.031,0.001,0.061,0.008,0.094,0.008
		c0.172,0,0.344-0.023,0.51-0.067c0.18-0.048,0.34-0.126,0.494-0.216l0.656,2.975c0.043,0.192,0.014,0.375-0.043,0.534
		c-0.166,0.001-0.33,0.019-0.49,0.065C185.708,203.462,185.577,203.519,185.452,203.588z M186.654,208.771
		c-0.033-0.064-0.066-0.133-0.086-0.218l-0.713-2.987c-0.047-0.197-0.018-0.386,0.047-0.552c0.148-0.005,0.299-0.02,0.443-0.058
		c0.154-0.041,0.295-0.104,0.43-0.178c0.066,0.086,0.125,0.188,0.156,0.321l0.711,2.991c0.041,0.156,0.027,0.302-0.004,0.441
		c-0.189-0.005-0.381,0.008-0.57,0.062C186.921,208.636,186.782,208.7,186.654,208.771z M187.698,213.355l-0.623-2.615
		c-0.033-0.151-0.023-0.293,0.008-0.43c0.008,0,0.014,0.002,0.021,0.002c0.186,0,0.369-0.025,0.547-0.077
		c0.148-0.044,0.285-0.106,0.414-0.18c0.035,0.065,0.066,0.136,0.086,0.219l0.67,2.818c-0.256-0.019-0.518,0.01-0.771,0.099
		C187.927,213.235,187.808,213.291,187.698,213.355z M188.968,218.045l-0.752-2.568c0.037,0.002,0.072,0.01,0.109,0.01
		c0.184,0,0.369-0.026,0.547-0.078c0.174-0.051,0.328-0.128,0.477-0.219l0.711,2.435c-0.188,0.01-0.375,0.038-0.559,0.106
		C189.302,217.805,189.126,217.917,188.968,218.045z M190.519,222.544l-0.807-2.556c0.174-0.014,0.346-0.042,0.51-0.101
		c0.219-0.077,0.41-0.193,0.582-0.333l0.824,2.616c-0.236,0.002-0.475,0.04-0.699,0.134
		C190.779,222.367,190.644,222.451,190.519,222.544z M192.245,227.504c-0.025-0.048-0.057-0.089-0.076-0.149l-0.984-2.858
		c0.219-0.007,0.434-0.045,0.639-0.123c0.172-0.066,0.326-0.162,0.471-0.271l0.9,2.608c0.047,0.141,0.051,0.281,0.035,0.415
		c-0.189,0.016-0.379,0.05-0.559,0.126C192.515,227.316,192.376,227.406,192.245,227.504z M194.343,231.698
		c-0.193,0.086-0.361,0.206-0.51,0.341l-0.914-2.625c-0.051-0.14-0.055-0.277-0.043-0.41c0.191-0.019,0.381-0.057,0.561-0.132
		c0.158-0.066,0.299-0.157,0.43-0.257c0.025,0.046,0.055,0.091,0.074,0.147l0.969,2.794
		C194.716,231.577,194.525,231.616,194.343,231.698z M195.986,236.181c-0.145,0.07-0.271,0.16-0.391,0.259l-0.928-2.499
		c0.18-0.021,0.355-0.059,0.523-0.13c0.213-0.088,0.396-0.215,0.557-0.362l0.945,2.554
		C196.448,236.021,196.204,236.076,195.986,236.181z M197.777,241.538c-0.113-0.063-0.219-0.183-0.293-0.369l-1.131-2.815
		c0.225-0.018,0.445-0.063,0.652-0.155c0.168-0.075,0.316-0.18,0.451-0.293l1.018,2.533c0.104,0.265,0.074,0.537-0.025,0.757
		c-0.17,0.046-0.336,0.106-0.49,0.202C197.892,241.439,197.835,241.49,197.777,241.538z M200.228,245.511
		c-0.176,0.115-0.32,0.26-0.447,0.417l-1.242-2.394c-0.145-0.277-0.119-0.586-0.014-0.83c0.105-0.03,0.211-0.061,0.307-0.107
		c0.131-0.063,0.246-0.141,0.357-0.227c0.102,0.059,0.199,0.144,0.268,0.272l1.361,2.626
		C200.611,245.319,200.409,245.391,200.228,245.511z M202.136,249.982l-1.25-2.289c0.191-0.05,0.375-0.122,0.545-0.229
		c0.193-0.121,0.354-0.275,0.49-0.447l1.281,2.351c-0.256,0.047-0.502,0.143-0.719,0.296
		C202.351,249.756,202.238,249.866,202.136,249.982z M205.425,254.079c-0.195,0.158-0.352,0.354-0.467,0.563
		c-0.104-0.049-0.199-0.135-0.273-0.26l-1.516-2.604c-0.004-0.007-0.004-0.016-0.008-0.021c0.236-0.053,0.467-0.131,0.67-0.264
		c0.154-0.104,0.285-0.229,0.4-0.361l1.332,2.287c0.088,0.146,0.115,0.322,0.113,0.492
		C205.589,253.965,205.503,254.013,205.425,254.079z M208.144,257.87c-0.152,0.143-0.271,0.303-0.371,0.478l-1.506-2.192
		c-0.111-0.159-0.15-0.354-0.148-0.551c0.043-0.021,0.092-0.035,0.131-0.063c0.25-0.176,0.441-0.402,0.582-0.658
		c0.09,0.043,0.178,0.104,0.248,0.207l1.666,2.43C208.527,257.596,208.322,257.707,208.144,257.87z M210.896,261.649
		c-0.1,0.112-0.152,0.247-0.223,0.374l-1.578-2.092c0.188-0.074,0.363-0.174,0.521-0.305c0.188-0.155,0.338-0.342,0.453-0.547
		l1.566,2.078C211.355,261.261,211.097,261.422,210.896,261.649z M214.909,265.399c-0.082,0.074-0.16,0.151-0.227,0.241
		c-0.057,0.075-0.1,0.154-0.145,0.234c-0.164,0.063-0.34,0.027-0.484-0.125l-2.023-2.148c-0.008-0.011-0.012-0.024-0.021-0.036
		c0.207-0.086,0.4-0.203,0.568-0.355c0.174-0.154,0.309-0.344,0.414-0.543l1.732,1.844
		C214.939,264.737,214.995,265.093,214.909,265.399z M218.814,268.903c-0.125,0.197-0.207,0.411-0.256,0.631
		c-0.166,0.051-0.34,0.01-0.426-0.065l-2.176-1.964c-0.244-0.217-0.326-0.596-0.232-0.924c0.043-0.041,0.094-0.078,0.135-0.123
		c0.09-0.104,0.137-0.229,0.203-0.348c0.063-0.033,0.127-0.058,0.191-0.058c0.123,0,0.227,0.068,0.291,0.128l2.176,1.96
		c0.152,0.139,0.236,0.34,0.262,0.551C218.921,268.76,218.861,268.827,218.814,268.903z M223.13,272.19
		c-0.027,0.069-0.043,0.141-0.064,0.21c-0.156,0.129-0.348,0.146-0.521,0.017l-2.322-1.748c-0.172-0.129-0.271-0.349-0.299-0.58
		c0.021-0.025,0.051-0.049,0.074-0.074c0.178-0.236,0.289-0.508,0.348-0.783c0.045-0.02,0.088-0.045,0.135-0.045
		c0.082,0,0.168,0.031,0.248,0.094l2.322,1.747c0.227,0.171,0.324,0.479,0.297,0.784C223.261,271.926,223.187,272.052,223.13,272.19
		z M228.005,274.593c-0.156,0.388-0.438,0.485-0.658,0.376l-2.57-1.264c-0.246-0.121-0.416-0.475-0.383-0.84
		c0.02-0.027,0.045-0.052,0.063-0.076c0.102-0.162,0.17-0.336,0.221-0.519c0.092-0.067,0.189-0.104,0.271-0.104
		c0.053,0,0.107,0.014,0.162,0.041l2.572,1.267C227.991,273.623,228.195,274.135,228.005,274.593z M233.109,277.123
		c-0.156,0.386-0.43,0.485-0.658,0.375l-2.568-1.266c-0.309-0.146-0.514-0.656-0.324-1.113c0.119-0.291,0.334-0.427,0.496-0.427
		c0.053,0,0.107,0.019,0.164,0.041l2.568,1.269C233.093,276.154,233.298,276.665,233.109,277.123z M238.189,278.961
		c-0.094,0.341-0.342,0.521-0.529,0.521l-2.809-0.908c-0.305-0.103-0.547-0.563-0.414-1.033c0.088-0.326,0.318-0.51,0.6-0.51
		c0.014,0,0.025,0,0.041,0.002l2.695,0.894C238.075,278.028,238.318,278.491,238.189,278.961z M243.3,280.51
		c-0.107,0.127-0.238,0.202-0.355,0.202l-2.842-0.528c-0.293-0.054-0.563-0.465-0.486-0.938c0.059-0.389,0.326-0.629,0.602-0.629
		c0.004,0,0.008,0,0.012,0l2.775,0.522c0.172,0.031,0.324,0.193,0.416,0.411c-0.059,0.153-0.105,0.313-0.125,0.481
		C243.277,280.198,243.282,280.353,243.3,280.51z M249.312,282.78c2.344,0,4.25,1.629,4.25,3.631s-1.906,3.631-4.25,3.631
		c-2.342,0-4.248-1.629-4.248-3.631S246.97,282.78,249.312,282.78z M244.773,280.648c0.049-0.13,0.09-0.265,0.113-0.407
		c0.029-0.188,0.023-0.367,0.004-0.547c0.111-0.132,0.254-0.212,0.4-0.212c0.002,0,0.004,0,0.006,0l2.795,0.394
		c0.266,0.037,0.512,0.389,0.504,0.813c0,0.034,0,0.065,0.002,0.104c-0.002,0.012-0.006,0.02-0.008,0.023
		c-0.68,0.063-1.326,0.221-1.93,0.445l-1.457-0.204C245.029,281.036,244.868,280.872,244.773,280.648z M256.573,291.241
		c1.857,0,6.172,0.588,6.172,6.045c0,7.646-10.02,15.918-13.154,18.319c-3.137-2.401-13.154-10.679-13.154-18.319
		c0-5.457,4.316-6.045,6.172-6.045c2.76,0,5.086,1.146,5.656,2.211l1.326,2.469l1.328-2.469
		C251.488,292.388,253.816,291.241,256.573,291.241z M253.394,281.058l-1.432,0.2c-0.611-0.229-1.268-0.386-1.957-0.447
		c0-0.009-0.004-0.017-0.006-0.023c0.004-0.035,0.002-0.066,0.004-0.104c-0.01-0.423,0.238-0.771,0.504-0.809l2.842-0.396
		c0.121,0,0.252,0.077,0.359,0.207c-0.021,0.183-0.025,0.363,0.004,0.554c0.025,0.146,0.064,0.277,0.115,0.408
		C253.73,280.872,253.568,281.036,253.394,281.058z M258.491,280.185l-2.777,0.521c-0.146,0.025-0.297-0.047-0.414-0.191
		c0.02-0.156,0.025-0.313,0.006-0.479c-0.025-0.172-0.072-0.332-0.123-0.486c0.088-0.217,0.246-0.379,0.414-0.41l2.84-0.529
		c0.219,0,0.488,0.242,0.551,0.64C259.054,279.719,258.786,280.131,258.491,280.185z M263.741,278.577l-2.697,0.895
		c-0.229,0.072-0.525-0.102-0.637-0.512c-0.129-0.471,0.111-0.935,0.414-1.03l2.807-0.911c0.184,0,0.434,0.188,0.527,0.527
		C264.292,278.012,264.05,278.474,263.741,278.577z M268.714,276.238l-2.568,1.263c-0.229,0.108-0.502,0.013-0.66-0.379
		c-0.186-0.455,0.018-0.967,0.322-1.117l2.564-1.264c0.059-0.029,0.117-0.043,0.172-0.043c0.16,0,0.371,0.131,0.496,0.424
		C269.226,275.579,269.025,276.086,268.714,276.238z M273.814,273.707l-2.564,1.262c-0.227,0.109-0.502,0.012-0.66-0.378
		c-0.188-0.457,0.021-0.968,0.324-1.118l2.566-1.266c0.057-0.026,0.111-0.041,0.166-0.041c0.084,0,0.18,0.037,0.271,0.104
		c0.051,0.183,0.119,0.354,0.219,0.517c0.02,0.024,0.045,0.051,0.064,0.078C274.236,273.234,274.064,273.584,273.814,273.707z
		 M278.372,270.67l-2.32,1.746c-0.17,0.131-0.361,0.108-0.516-0.021c-0.025-0.064-0.033-0.14-0.066-0.206
		c-0.059-0.14-0.129-0.268-0.221-0.385c-0.027-0.307,0.072-0.613,0.297-0.784l2.322-1.748c0.082-0.063,0.168-0.093,0.25-0.093
		c0.047,0,0.088,0.023,0.133,0.045c0.061,0.273,0.172,0.545,0.35,0.782c0.021,0.024,0.051,0.05,0.074,0.073
		C278.648,270.323,278.546,270.541,278.372,270.67z M282.638,267.506l-2.172,1.959c-0.088,0.08-0.26,0.121-0.426,0.07
		c-0.049-0.222-0.129-0.435-0.254-0.627c-0.049-0.08-0.111-0.146-0.172-0.22c0.025-0.212,0.113-0.413,0.266-0.55l2.172-1.962
		c0.07-0.061,0.17-0.127,0.291-0.127c0.068,0,0.129,0.021,0.193,0.057c0.068,0.116,0.115,0.241,0.203,0.349
		c0.041,0.047,0.092,0.082,0.135,0.125C282.968,266.909,282.882,267.288,282.638,267.506z M286.562,263.6l-2.018,2.147
		c-0.15,0.151-0.322,0.188-0.484,0.127c-0.043-0.08-0.086-0.16-0.143-0.234c-0.068-0.091-0.148-0.168-0.23-0.242
		c-0.086-0.309-0.027-0.662,0.188-0.893l1.729-1.84c0.105,0.199,0.24,0.384,0.416,0.541c0.168,0.148,0.363,0.271,0.568,0.354
		C286.575,263.577,286.573,263.59,286.562,263.6z M287.923,262.024c-0.072-0.126-0.123-0.259-0.221-0.369
		c-0.205-0.229-0.463-0.393-0.748-0.496l1.57-2.076c0.113,0.203,0.266,0.393,0.453,0.545c0.158,0.134,0.336,0.229,0.521,0.309
		L287.923,262.024z M292.327,256.15l-1.502,2.192c-0.1-0.173-0.219-0.334-0.367-0.474c-0.174-0.162-0.383-0.274-0.605-0.355
		l1.662-2.43c0.076-0.104,0.164-0.164,0.254-0.205c0.135,0.254,0.328,0.479,0.576,0.658c0.041,0.024,0.09,0.039,0.133,0.063
		C292.482,255.791,292.439,255.991,292.327,256.15z M295.429,251.784l-1.514,2.602c-0.076,0.126-0.172,0.21-0.275,0.259
		c-0.117-0.211-0.271-0.4-0.467-0.563c-0.072-0.063-0.164-0.112-0.25-0.164c-0.002-0.168,0.025-0.342,0.115-0.488l1.332-2.29
		c0.121,0.135,0.246,0.261,0.404,0.358c0.203,0.135,0.43,0.215,0.666,0.268C295.433,251.767,295.433,251.778,295.429,251.784z
		 M296.46,249.982c-0.102-0.115-0.213-0.225-0.344-0.315c-0.219-0.154-0.465-0.251-0.723-0.299l1.283-2.349
		c0.135,0.17,0.295,0.324,0.486,0.445c0.172,0.105,0.361,0.18,0.553,0.229L296.46,249.982z M300.056,243.535l-1.242,2.394
		c-0.125-0.157-0.27-0.301-0.449-0.416c-0.18-0.121-0.381-0.193-0.592-0.242l1.363-2.626c0.07-0.13,0.166-0.215,0.268-0.272
		c0.111,0.086,0.223,0.163,0.357,0.226c0.1,0.048,0.203,0.078,0.309,0.108C300.177,242.948,300.2,243.257,300.056,243.535z
		 M301.115,241.167c-0.074,0.188-0.178,0.309-0.291,0.373c-0.059-0.048-0.121-0.1-0.182-0.142c-0.156-0.097-0.322-0.158-0.494-0.205
		c-0.098-0.22-0.129-0.491-0.023-0.756l1.016-2.532c0.135,0.113,0.281,0.217,0.451,0.292c0.207,0.093,0.428,0.139,0.658,0.156
		L301.115,241.167z M303.007,236.44c-0.121-0.098-0.248-0.187-0.393-0.256c-0.227-0.109-0.463-0.164-0.707-0.177l0.945-2.558
		c0.166,0.146,0.346,0.272,0.561,0.36c0.17,0.071,0.346,0.109,0.523,0.13L303.007,236.44z M305.677,229.415l-0.912,2.625
		c-0.148-0.134-0.314-0.253-0.506-0.338c-0.184-0.083-0.379-0.124-0.572-0.146l0.969-2.791c0.021-0.058,0.049-0.104,0.074-0.15
		c0.131,0.101,0.27,0.19,0.43,0.257c0.176,0.075,0.367,0.113,0.561,0.132C305.732,229.136,305.726,229.274,305.677,229.415z
		 M306.427,227.353c-0.023,0.062-0.049,0.103-0.076,0.15c-0.127-0.098-0.268-0.188-0.422-0.251
		c-0.184-0.077-0.373-0.111-0.561-0.127c-0.018-0.134-0.016-0.274,0.033-0.415l0.902-2.608c0.143,0.107,0.297,0.203,0.471,0.27
		c0.205,0.079,0.416,0.117,0.639,0.124L306.427,227.353z M308.077,222.544c-0.121-0.093-0.258-0.176-0.408-0.238
		c-0.225-0.095-0.463-0.133-0.701-0.136l0.824-2.614c0.17,0.139,0.361,0.255,0.574,0.332c0.17,0.06,0.338,0.088,0.512,0.102
		L308.077,222.544z M309.626,218.045c-0.158-0.127-0.332-0.238-0.529-0.313c-0.18-0.069-0.367-0.098-0.563-0.108l0.707-2.434
		c0.146,0.091,0.309,0.168,0.477,0.219c0.176,0.052,0.365,0.078,0.549,0.078c0.035,0,0.072-0.008,0.109-0.01L309.626,218.045z
		 M311.519,210.741l-0.621,2.614c-0.111-0.064-0.225-0.119-0.35-0.162c-0.258-0.091-0.518-0.119-0.775-0.101l0.67-2.816
		c0.021-0.082,0.049-0.154,0.086-0.219c0.123,0.072,0.266,0.136,0.412,0.179c0.18,0.052,0.367,0.077,0.551,0.077
		c0.012,0,0.021-0.002,0.023-0.002C311.544,210.446,311.554,210.589,311.519,210.741z M312.74,205.568l-0.711,2.986
		c-0.021,0.082-0.051,0.153-0.082,0.218c-0.127-0.071-0.268-0.135-0.414-0.178c-0.188-0.055-0.379-0.067-0.566-0.063
		c-0.033-0.139-0.047-0.285-0.012-0.441l0.713-2.989c0.029-0.132,0.09-0.233,0.16-0.318c0.133,0.071,0.273,0.134,0.424,0.175
		c0.15,0.04,0.301,0.055,0.455,0.059C312.759,205.181,312.786,205.37,312.74,205.568z M313.964,200.248l-0.66,3.001
		c-0.031,0.14-0.088,0.247-0.16,0.337c-0.123-0.067-0.256-0.125-0.396-0.165c-0.162-0.047-0.32-0.064-0.486-0.067
		c-0.059-0.159-0.088-0.341-0.045-0.534l0.658-2.974c0.152,0.09,0.314,0.168,0.492,0.216c0.168,0.045,0.338,0.068,0.514,0.068
		c0.029,0,0.064-0.006,0.09-0.008C313.966,200.164,313.974,200.205,313.964,200.248z M315.077,195.353l-0.658,2.972
		c-0.154-0.092-0.316-0.169-0.494-0.217c-0.201-0.054-0.402-0.063-0.602-0.051c0.004-0.045-0.006-0.088,0.006-0.134l0.658-2.969
		c0.162,0.093,0.33,0.173,0.52,0.218c0.152,0.036,0.311,0.055,0.463,0.055c0.039,0,0.074-0.007,0.113-0.009
		C315.081,195.263,315.089,195.307,315.077,195.353z M316.113,190.415l-0.594,3.002c-0.15-0.084-0.305-0.158-0.475-0.203
		c-0.209-0.056-0.416-0.064-0.623-0.05c0.006-0.042-0.004-0.08,0.006-0.122l0.6-3.021c0.021-0.102,0.059-0.188,0.104-0.266
		c0.088,0.036,0.176,0.072,0.271,0.095c0.152,0.037,0.309,0.056,0.463,0.056c0.074,0,0.135-0.012,0.205-0.019
		C316.12,190.045,316.152,190.223,316.113,190.415z M317.001,185.094l-0.598,3.018c-0.021,0.103-0.057,0.189-0.1,0.269
		c-0.09-0.036-0.18-0.072-0.277-0.096c-0.219-0.054-0.445-0.056-0.658-0.029c-0.061-0.159-0.09-0.339-0.051-0.533l0.6-3.02
		c0.014-0.063,0.035-0.115,0.059-0.169c0.152,0.07,0.311,0.13,0.479,0.162c0.121,0.021,0.242,0.033,0.365,0.033
		c0.064,0,0.123-0.011,0.184-0.017C317.021,184.832,317.027,184.96,317.001,185.094z M317.363,182.892
		c-0.012,0.076-0.035,0.142-0.063,0.205c-0.121-0.057-0.252-0.103-0.383-0.135c-0.219-0.052-0.436-0.054-0.656-0.029
		c-0.021-0.108-0.023-0.226-0.008-0.347l0.467-3.046c0.021-0.124,0.066-0.228,0.121-0.318c0.17,0.088,0.348,0.162,0.545,0.199
		c0.121,0.023,0.246,0.035,0.371,0.035c0.016,0,0.027-0.004,0.043-0.004c0.029,0.122,0.047,0.253,0.025,0.394L317.363,182.892z"/>
</g>
</svg>
