<?xml version="1.0" encoding="utf-8"?>
<!-- Generator: Adobe Illustrator 14.0.0, SVG Export Plug-In . SVG Version: 6.00 Build 43363)  -->
<!DOCTYPE svg PUBLIC "-//W3C//DTD SVG 1.1//EN" "http://www.w3.org/Graphics/SVG/1.1/DTD/svg11.dtd">
<svg version="1.1" id="content" xmlns="http://www.w3.org/2000/svg" xmlns:xlink="http://www.w3.org/1999/xlink" x="0px" y="0px"
	 width="500px" height="500px" viewBox="0 0 500 500" enable-background="new 0 0 500 500" xml:space="preserve">
<g id="bounds">
	<rect x="59.184" y="237.119" fill="none" stroke="#000000" stroke-width="1.3365" width="85.747" height="85.748"/>
</g>
<g id="accessory">
	<path fill="#D7DB2A" d="M129.374,287.349c0,3.313-2.688,6-6,6H80.741c-3.313,0-6-2.689-6-6v-14.711c0-3.314,2.687-6,6-6h42.633
		c3.313,0,6,2.688,6,6V287.349z"/>
	<path fill="#A0A015" d="M128.885,289.72L128.885,289.72c0.313-0.73,0.489-1.529,0.489-2.371v-14.711c0-3.314-2.688-6-6-6H86.631
		C86.631,266.638,94.339,289.72,128.885,289.72z"/>
</g>
<rect id="position" x="0" y="0" display="none" fill="none" stroke="#000000" width="500" height="500"/>
</svg>
