<?xml version="1.0" encoding="utf-8"?>
<!-- Generator: Adobe Illustrator 14.0.0, SVG Export Plug-In . SVG Version: 6.00 Build 43363)  -->
<!DOCTYPE svg PUBLIC "-//W3C//DTD SVG 1.1//EN" "http://www.w3.org/Graphics/SVG/1.1/DTD/svg11.dtd">
<svg version="1.1" id="content" xmlns="http://www.w3.org/2000/svg" xmlns:xlink="http://www.w3.org/1999/xlink" x="0px" y="0px"
	 width="500px" height="500px" viewBox="0 0 500 500" enable-background="new 0 0 500 500" xml:space="preserve">
<g id="bounds">
	<rect x="70.569" y="259.931" fill="none" stroke="#000000" stroke-width="0.9821" width="63.013" height="63.012"/>
</g>
<g id="accessory">
	<path fill="#FFDA00" d="M82.178,293.345c0,1.246-1.01,2.258-2.255,2.258l0,0c-1.246,0-2.256-1.012-2.256-2.258v-3.818
		c0-1.246,1.01-2.256,2.256-2.256l0,0c1.245,0,2.255,1.01,2.255,2.256V293.345z"/>
	<path fill="#FFDA00" d="M86.206,293.345c0,1.246-1.01,2.258-2.255,2.258l0,0c-1.246,0-2.256-1.012-2.256-2.258v-3.818
		c0-1.246,1.01-2.256,2.256-2.256l0,0c1.245,0,2.255,1.01,2.255,2.256V293.345z"/>
	<path fill="#FFDA00" d="M90.234,293.345c0,1.246-1.011,2.258-2.256,2.258l0,0c-1.245,0-2.256-1.012-2.256-2.258v-3.818
		c0-1.246,1.011-2.256,2.256-2.256l0,0c1.245,0,2.256,1.01,2.256,2.256V293.345z"/>
	<path fill="#FFDA00" d="M94.261,293.345c0,1.246-1.01,2.258-2.255,2.258l0,0c-1.246,0-2.256-1.012-2.256-2.258v-3.818
		c0-1.246,1.01-2.256,2.256-2.256l0,0c1.245,0,2.255,1.01,2.255,2.256V293.345z"/>
	<path fill="#FFDA00" d="M98.289,293.345c0,1.246-1.01,2.258-2.255,2.258l0,0c-1.246,0-2.256-1.012-2.256-2.258v-3.818
		c0-1.246,1.01-2.256,2.256-2.256l0,0c1.245,0,2.255,1.01,2.255,2.256V293.345z"/>
	<path fill="#FFDA00" d="M102.317,293.345c0,1.246-1.011,2.258-2.256,2.258l0,0c-1.245,0-2.256-1.012-2.256-2.258v-3.818
		c0-1.246,1.011-2.256,2.256-2.256l0,0c1.245,0,2.256,1.01,2.256,2.256V293.345z"/>
	<path fill="#FFDA00" d="M106.344,293.345c0,1.246-1.01,2.258-2.255,2.258l0,0c-1.246,0-2.256-1.012-2.256-2.258v-3.818
		c0-1.246,1.01-2.256,2.256-2.256l0,0c1.245,0,2.255,1.01,2.255,2.256V293.345z"/>
	<path fill="#FFDA00" d="M110.372,293.345c0,1.246-1.01,2.258-2.255,2.258l0,0c-1.246,0-2.256-1.012-2.256-2.258v-3.818
		c0-1.246,1.01-2.256,2.256-2.256l0,0c1.245,0,2.255,1.01,2.255,2.256V293.345z"/>
	<path fill="#FFDA00" d="M114.4,293.345c0,1.246-1.011,2.258-2.256,2.258l0,0c-1.245,0-2.256-1.012-2.256-2.258v-3.818
		c0-1.246,1.011-2.256,2.256-2.256l0,0c1.245,0,2.256,1.01,2.256,2.256V293.345z"/>
	<path fill="#FFDA00" d="M118.427,293.345c0,1.246-1.01,2.258-2.255,2.258l0,0c-1.246,0-2.256-1.012-2.256-2.258v-3.818
		c0-1.246,1.01-2.256,2.256-2.256l0,0c1.245,0,2.255,1.01,2.255,2.256V293.345z"/>
	<path fill="#FFDA00" d="M122.455,293.345c0,1.246-1.01,2.258-2.255,2.258l0,0c-1.246,0-2.256-1.012-2.256-2.258v-3.818
		c0-1.246,1.01-2.256,2.256-2.256l0,0c1.245,0,2.255,1.01,2.255,2.256V293.345z"/>
	<path fill="#FFDA00" d="M126.483,293.345c0,1.246-1.011,2.258-2.256,2.258l0,0c-1.246,0-2.256-1.012-2.256-2.258v-3.818
		c0-1.246,1.011-2.256,2.256-2.256l0,0c1.245,0,2.256,1.01,2.256,2.256V293.345z"/>
	<circle fill="#FAFAFB" cx="112.478" cy="289.461" r="1.176"/>
	<circle fill="#FAFAFB" cx="116.614" cy="289.461" r="1.176"/>
	<circle fill="#FAFAFB" cx="120.747" cy="289.461" r="1.176"/>
	<circle fill="#FAFAFB" cx="124.882" cy="289.461" r="1.176"/>
	<ellipse fill="#FFDA00" cx="102.075" cy="291.437" rx="8.2" ry="9.416"/>
	<ellipse fill="#A88C05" cx="102.075" cy="291.435" rx="5.66" ry="6.498"/>
	<polygon fill="#FAFAFB" points="102.576,291.437 101.574,291.437 101.574,287.271 102.576,287.271 	"/>
	<polygon fill="#FAFAFB" points="106.241,291.937 102.075,291.937 102.075,290.935 106.241,290.935 	"/>
	<circle fill="#FAFAFB" cx="102.075" cy="291.435" r="1.146"/>
	<circle fill="#FAFAFB" cx="80.21" cy="289.461" r="1.176"/>
	<circle fill="#FAFAFB" cx="84.344" cy="289.461" r="1.176"/>
	<circle fill="#FAFAFB" cx="88.479" cy="289.461" r="1.176"/>
	<circle display="none" fill="#FAFAFB" cx="92.615" cy="289.461" r="1.176"/>
</g>
<rect id="position" x="0" y="0" display="none" fill="none" stroke="#000000" width="500" height="500"/>
</svg>
