<?xml version="1.0" encoding="utf-8"?>
<!-- Generator: Adobe Illustrator 14.0.0, SVG Export Plug-In . SVG Version: 6.00 Build 43363)  -->
<!DOCTYPE svg PUBLIC "-//W3C//DTD SVG 1.1//EN" "http://www.w3.org/Graphics/SVG/1.1/DTD/svg11.dtd">
<svg version="1.1" id="content" xmlns="http://www.w3.org/2000/svg" xmlns:xlink="http://www.w3.org/1999/xlink" x="0px" y="0px"
	 width="500px" height="500px" viewBox="0 0 500 500" enable-background="new 0 0 500 500" xml:space="preserve">
<g id="bounds" display="none">
	
		<rect x="45.79" y="227.402" display="inline" fill="none" stroke="#000000" stroke-width="0.7852" width="112.874" height="122.787"/>
</g>
<rect id="position" x="0" y="0" display="none" fill="none" stroke="#000000" width="500" height="500"/>
<g>
	<path fill="none" stroke="#FFFFFF" stroke-width="1.3795" d="M102.751,295.214l5.464-37.798c0,0,0.45-3.661,5.396-3.661l4.748-0.39
		"/>
	<ellipse opacity="0.4" fill="#E0E0E0" cx="102.997" cy="266.883" rx="16.787" ry="4.835"/>
	<path opacity="0.4" fill="#E0E0E0" d="M119.626,266.651c-1.442,4.083-12.28,4.582-16.629,4.582c-4.348,0-15.181-0.499-16.627-4.579
		c0,0-0.16,0.357-0.16,0.672v41.499c0,0,2.02,5.883,16.787,5.883s16.787-5.883,16.787-5.883v-41.726
		C119.784,267.099,119.729,266.832,119.626,266.651z"/>
	<g>
		<path opacity="0.5" fill="#A82727" d="M102.998,281.326c8.784,0,15.907-2.052,15.907-4.584v20.373c0,0-4.42,5.706-16.502,5.706
			c-8.248,0-15.314-5.499-15.314-5.499v-20.58C87.089,279.274,94.212,281.326,102.998,281.326z"/>
	</g>
	<ellipse opacity="0.5" fill="#C72E2E" cx="102.997" cy="276.742" rx="15.908" ry="4.584"/>
	<path opacity="0.5" fill="#FF6E6E" d="M102.554,280.549c0.382,0.346,0.974,0.316,1.318-0.065l3.571-3.94
		c0.347-0.381,0.317-0.972-0.063-1.317l-3.941-3.572c-0.382-0.346-0.973-0.317-1.319,0.064l-3.571,3.942
		c-0.347,0.382-0.315,0.972,0.065,1.317L102.554,280.549z"/>
	<path opacity="0.5" fill="#FF6E6E" d="M107.556,285.132c0.499,0.452,1.274,0.412,1.726-0.087l4.676-5.159
		c0.453-0.5,0.415-1.272-0.084-1.728l-5.161-4.677c-0.5-0.453-1.273-0.415-1.727,0.085l-4.677,5.161
		c-0.453,0.501-0.413,1.272,0.087,1.726L107.556,285.132z"/>
	<path opacity="0.5" fill="#FF7A7A" d="M102.089,281.43c0.463-0.229,0.652-0.788,0.426-1.252l-2.345-4.772
		c-0.227-0.462-0.787-0.651-1.249-0.426l-4.772,2.344c-0.463,0.229-0.654,0.789-0.427,1.251l2.345,4.772
		c0.229,0.465,0.787,0.653,1.249,0.427L102.089,281.43z"/>
	<path opacity="0.2" fill="#F4F4F4" d="M102.365,275.49v25.43c0,0-8.164,0.421-12.718-4.221c0-8.05,0-24.013,0-24.013
		S95.779,275.82,102.365,275.49z"/>
	<ellipse opacity="0.5" fill="#FCFCFC" cx="103.344" cy="308.268" rx="12.184" ry="3.929"/>
	<g>
		<path fill="#F4FF00" d="M85.493,255.817c4.82-0.881,9.441,2.312,10.322,7.132c0.483,2.642-0.263,5.219-1.825,7.159l-6.881-5.452
			l2.459,8.406c-0.289,0.084-0.583,0.152-0.884,0.208c-4.82,0.882-9.441-2.312-10.322-7.13
			C77.482,261.319,80.674,256.698,85.493,255.817z"/>
		<path fill="#FFFFFF" d="M85.639,256.608c4.383-0.802,8.586,2.102,9.387,6.485c0.439,2.404-0.241,4.75-1.664,6.515l-6.252-4.952
			l2.231,7.634c-0.26,0.077-0.527,0.14-0.802,0.189c-4.382,0.802-8.585-2.101-9.386-6.484
			C78.353,261.612,81.256,257.409,85.639,256.608z"/>
		<path opacity="0.5" fill="#C0DE00" d="M85.807,257.53c3.874-0.708,7.59,1.858,8.297,5.732c0.389,2.127-0.215,4.204-1.476,5.765
			l-5.519-4.371l1.97,6.735c-0.23,0.067-0.467,0.123-0.708,0.167c-3.874,0.708-7.588-1.859-8.296-5.731
			C79.367,261.952,81.934,258.237,85.807,257.53z"/>
		<line fill="none" stroke="#FFFFFF" stroke-width="0.5336" x1="87.11" y1="264.656" x2="84.66" y2="257.393"/>
		<line fill="none" stroke="#FFFFFF" stroke-width="0.5336" x1="87.11" y1="264.656" x2="80.899" y2="260.167"/>
		<line fill="none" stroke="#FFFFFF" stroke-width="0.5336" x1="87.11" y1="264.656" x2="79.448" y2="264.607"/>
		<line fill="none" stroke="#FFFFFF" stroke-width="0.5336" x1="87.11" y1="264.656" x2="80.845" y2="269.068"/>
		<line fill="none" stroke="#FFFFFF" stroke-width="0.5336" x1="87.11" y1="264.656" x2="84.573" y2="271.886"/>
		<line fill="none" stroke="#FFFFFF" stroke-width="0.5336" x1="87.11" y1="264.656" x2="89.569" y2="273.062"/>
		<line fill="none" stroke="#FFFFFF" stroke-width="0.5336" x1="87.11" y1="264.656" x2="93.99" y2="270.108"/>
		<line fill="none" stroke="#FFFFFF" stroke-width="0.5336" x1="87.11" y1="264.656" x2="94.763" y2="265.032"/>
		<line fill="none" stroke="#FFFFFF" stroke-width="0.5336" x1="87.11" y1="264.656" x2="93.56" y2="260.515"/>
		<line fill="none" stroke="#FFFFFF" stroke-width="0.5336" x1="87.11" y1="264.656" x2="89.955" y2="257.541"/>
	</g>
</g>
</svg>
