<?xml version="1.0" encoding="utf-8"?>
<!-- Generator: Adobe Illustrator 13.0.0, SVG Export Plug-In . SVG Version: 6.00 Build 14948)  -->
<!DOCTYPE svg PUBLIC "-//W3C//DTD SVG 1.1//EN" "http://www.w3.org/Graphics/SVG/1.1/DTD/svg11.dtd">
<svg version="1.1" id="content" xmlns="http://www.w3.org/2000/svg" xmlns:xlink="http://www.w3.org/1999/xlink" x="0px" y="0px"
	 width="500px" height="500px" viewBox="0 0 500 500" enable-background="new 0 0 500 500" xml:space="preserve">
<g id="bounds" display="none">
	
		<rect x="9.653" y="210.091" display="inline" fill="none" stroke="#000000" stroke-width="1.0144" width="185.148" height="201.409"/>
</g>
<rect id="position" display="none" fill="none" stroke="#000000" width="500" height="500"/>
<g>
	<path fill="#537A02" d="M89.142,302.256C83.631,315.081,84,323.98,84,323.98s0,30.756,0,42.336s9.125,11.572,9.125,11.572h8.901
		h8.902c0,0,9.125,0.008,9.125-11.572s0-42.336,0-42.336s0.593-8.998-5.142-21.726L89.142,302.256L89.142,302.256z"/>
	<path fill="#405E02" d="M110.328,377.889c-3.607-4.752-11.917-19.959-8.85-56.777c0.61-7.321,1.117-13.553,1.539-18.855H89.142
		C83.631,315.081,84,323.98,84,323.98s0,30.756,0,42.336s9.125,11.572,9.125,11.572h8.901H110.328z"/>
	<path fill="#C1C405" d="M92.145,292.711l0.278-1.17c2.939-11.531,3.037-27.203,3.167-32.307h-1.141l-0.019-0.938v-5.328h1.348
		v-7.104c-0.008-0.068-0.068-1.318,0.988-2.458c1.065-1.149,2.835-1.731,5.261-1.731c2.427,0,4.196,0.583,5.262,1.731
		c1.057,1.14,0.996,2.39,0.984,2.529l0.002,7.033h1.349v6.267h-1.159c0.13,5.104,0.247,20.775,3.188,32.308l0.258,1.171
		L92.145,292.711z"/>
	<path opacity="0.5" fill="#F0F507" enable-background="new    " d="M100.754,258.377c0,0-0.412,26.947-3.494,35.281
		c-3.92,0-3.92,0-3.92,0s3.354-16.768,3.354-35.281C100.676,258.377,100.754,258.377,100.754,258.377z"/>
	<g>
		<path fill="#BCBC06" d="M100.754,289.574l-0.037-0.018C100.717,289.557,100.73,289.602,100.754,289.574z"/>
	</g>
	<path opacity="0.5" fill="#FFFFFF" enable-background="new    " d="M93.737,372.537l-0.465-28.764c0,0-1.296-24.269,2.618-41.781
		c-3.718,0-3.718,0-3.718,0s-4.794,8.023-4.794,22.994s0,43.248,0,43.248S87.181,372.537,93.737,372.537z"/>
	<path fill="#232323" d="M84.001,336.461c0,9.63,0,22.416,0,29.305c2.938,1.231,8.617,2.778,18.625,2.778
		c9.873,0,14.696-1.379,17.403-2.228c0.016-0.317,0.024,0.336,0.024,0c0-6.74,0-19.969,0-29.855H84.001z"/>
	<path fill="#232323" d="M88.891,302.857c4.688-0.075,19.701,0.094,26.213-0.162c-1.32-3.079-2.695-7.603-3.584-11.733H92.538
		l-0.002,0.001c-0.91,4.235-2.027,8.178-3.394,11.293C89.052,302.461,88.977,302.654,88.891,302.857z"/>
	<circle fill="#232323" cx="102.543" cy="296.208" r="7.478"/>
	<circle opacity="0.5" fill="#FFFF00" enable-background="new    " cx="102.543" cy="296.208" r="5.283"/>
	<path opacity="0.5" fill="#F0F507" enable-background="new    " d="M96.748,252.848v-5.176c0,0-0.585-6.283,6.397-5.221
		c-3.554,0.205-2.706,10.396-2.706,10.396H96.748L96.748,252.848z"/>
	<path fill="#EBF006" d="M110.02,258.719c0,0.553-0.448,1-1,1H94.959c-0.554,0-1-0.447-1-1v-4.871c0-0.554,0.446-1,1-1h14.061
		c0.552,0,1,0.446,1,1V258.719z"/>
	<path fill="#3B3B3B" d="M87.377,336.461v30.586c0,0,3.703,1.012,6.288,1.012c0-4.891-0.587-31.598-0.587-31.598H87.377z"/>
	<path opacity="0.8" fill="#FFFF00" enable-background="new    " d="M109.59,348.173l2.429-3.524
		c0.146-0.211,0.109-0.484-0.08-0.615c-0.188-0.129-0.458-0.065-0.602,0.146l-2.524,3.662c-1.664-0.654-3.51-1.021-5.458-1.021
		c-1.946,0-3.794,0.365-5.458,1.021l-2.522-3.662c-0.146-0.211-0.415-0.273-0.604-0.146c-0.188,0.13-0.225,0.404-0.08,0.615
		l2.43,3.524c-3.863,1.798-6.571,5.214-6.917,9.196h26.301C116.161,353.385,113.452,349.969,109.59,348.173z M97.862,353.73
		c-0.804,0-1.456-0.65-1.456-1.455c0-0.803,0.651-1.455,1.456-1.455c0.804,0,1.455,0.652,1.455,1.455
		C99.317,353.08,98.665,353.73,97.862,353.73z M108.849,353.73c-0.803,0-1.455-0.65-1.455-1.455c0-0.803,0.651-1.455,1.455-1.455
		c0.804,0,1.456,0.652,1.456,1.455C110.305,353.08,109.653,353.73,108.849,353.73z"/>
</g>
</svg>
