<?xml version="1.0" encoding="utf-8"?>
<!-- Generator: Adobe Illustrator 13.0.0, SVG Export Plug-In . SVG Version: 6.00 Build 14948)  -->
<!DOCTYPE svg PUBLIC "-//W3C//DTD SVG 1.1//EN" "http://www.w3.org/Graphics/SVG/1.1/DTD/svg11.dtd">
<svg version="1.1" id="content" xmlns="http://www.w3.org/2000/svg" xmlns:xlink="http://www.w3.org/1999/xlink" x="0px" y="0px"
	 width="500px" height="500px" viewBox="0 0 500 500" enable-background="new 0 0 500 500" xml:space="preserve">
<g id="bounds">
	<rect x="-43.046" y="147.541" fill="none" stroke="#000000" stroke-width="1.2441" width="204.546" height="222.511"/>
</g>
<rect id="position" display="none" fill="none" stroke="#000000" width="500" height="500"/>
<g>
	<path fill="#EDF68E" d="M96.605,277.604c0.285,0.473,0.13,1.088-0.343,1.371L59.745,300.88c-0.474,0.283-1.088,0.132-1.372-0.344
		l-1.625-2.707c-0.284-0.476-0.13-1.088,0.343-1.373l36.516-21.906c0.474-0.282,1.088-0.131,1.372,0.345L96.605,277.604z"/>
	<path fill="#99E3E0" d="M33.189,182.499c-8.846-5.278-22.826-7.285-22.826-7.285s-4.81,13.279-4.317,23.568
		c9.989,18.15,48.246,76.263,65.737,88.765c4.388-2.631,4.388-2.631,4.388-2.631s0,0,4.388-2.633
		C77.763,260.965,44.501,199.856,33.189,182.499z"/>
	<path fill="#91D6D3" d="M68.427,278.615c-14.847-11.629-46.536-59.069-56.139-76.377c-0.212-6.736,2.201-15.014,3.243-18.245
		c3.34,0.602,11.78,2.369,17.624,5.728c10.75,16.619,37.688,66.91,40.959,85.484L68.427,278.615z"/>
	<path opacity="0.3" fill="#CBFAF8" enable-background="new    " d="M29.498,235.784l18.952-27.066
		c-4.394-8.053-8.505-15.229-11.773-20.632L16.77,216.515C20.534,222.424,24.879,229.025,29.498,235.784z"/>
	<path opacity="0.3" fill="#CBFAF8" enable-background="new    " d="M55.286,270.65l14.121-20.168
		c-3.225-7.18-6.892-14.76-10.668-22.212l-17.201,24.567C46.201,259.209,50.874,265.305,55.286,270.65z"/>
	<path fill="#EDF68E" d="M87.586,289.136c0.284,0.474,0.13,1.089-0.343,1.371l-11.654,6.99c-0.474,0.285-1.087,0.131-1.372-0.343
		l-6.173-10.291c-0.284-0.475-0.13-1.088,0.343-1.37l11.654-6.992c0.474-0.283,1.087-0.131,1.372,0.344L87.586,289.136z"/>
	<path fill="#DBE479" d="M80.041,278.502l-5.675,3.404l7.202,12.006l5.674-3.404c0.474-0.283,0.627-0.898,0.343-1.371l-6.173-10.291
		C81.129,278.371,80.515,278.219,80.041,278.502z"/>
	<path fill="#52552E" d="M80.527,292.301c0,0,5.102-3.35,7.06-3.164c6.001,7.088,17.02,26.426,16.347,32.756
		c-3.359,2.017-4.158,2.496-4.158,2.496L80.527,292.301z"/>
	<path fill="#636739" d="M80.527,292.301c0,0-5.358,2.924-6.116,4.738c3.429,8.633,15.304,27.457,21.206,29.844
		c3.359-2.016,4.159-2.494,4.159-2.494L80.527,292.301z"/>
	<path fill="#DBE479" d="M101.307,275.074c0.875,1.459,0.402,3.354-1.058,4.23l0,0c-1.46,0.875-3.354,0.399-4.23-1.06l-2.015-3.358
		c-0.875-1.46-0.402-3.354,1.058-4.229l0,0c1.46-0.878,3.354-0.402,4.23,1.057L101.307,275.074z"/>
	<path fill="#DBE479" d="M60.312,299.666c0.875,1.461,0.402,3.355-1.058,4.23l0,0c-1.461,0.877-3.355,0.401-4.23-1.058l-2.015-3.358
		c-0.875-1.461-0.402-3.354,1.059-4.23l0,0c1.46-0.875,3.354-0.402,4.229,1.059L60.312,299.666z"/>
	
		<rect x="83.882" y="280.047" transform="matrix(0.8575 -0.5145 0.5145 0.8575 -131.6879 86.7256)" fill="#DBE479" width="13.667" height="2.084"/>
	<path fill="#EDF68E" d="M111.311,325.684c-2.622-4.371-8.289-5.787-12.659-3.166l0,0c-4.37,2.621-5.787,8.287-3.166,12.657l0,0
		c2.621,4.369,8.289,5.787,12.658,3.166l0,0C112.515,335.721,113.932,330.052,111.311,325.684L111.311,325.684z"/>
	<path fill="#DBE479" d="M107.682,327.859c-1.419-2.365-4.487-3.133-6.853-1.713l0,0c-2.366,1.418-3.133,4.485-1.714,6.852l0,0
		c1.419,2.367,4.487,3.133,6.853,1.715l0,0C108.334,333.293,109.102,330.225,107.682,327.859L107.682,327.859z"/>
</g>
</svg>
