<?xml version="1.0" encoding="utf-8"?>
<!-- Generator: Adobe Illustrator 13.0.0, SVG Export Plug-In . SVG Version: 6.00 Build 14948)  -->
<!DOCTYPE svg PUBLIC "-//W3C//DTD SVG 1.1//EN" "http://www.w3.org/Graphics/SVG/1.1/DTD/svg11.dtd">
<svg version="1.1" id="content" xmlns="http://www.w3.org/2000/svg" xmlns:xlink="http://www.w3.org/1999/xlink" x="0px" y="0px"
	 width="500px" height="500px" viewBox="0 0 500 500" enable-background="new 0 0 500 500" xml:space="preserve">
<g id="bounds">
	<rect x="-13.045" y="200.365" fill="none" stroke="#000000" stroke-width="1.1925" width="208.545" height="226.861"/>
</g>
<rect id="position" display="none" fill="none" stroke="#000000" width="500" height="500"/>
<g>
	<path fill="#DCC87A" d="M139.627,378.408c0,0-14.372-30.899-22.096-45.721c-7.724-14.82-21.917-40.959-30.27-56.588
		c-8.353-15.629-16.169-31.976-25.061-38.892c-4.042-2.605-13.204-2.694-13.743,7.545c-0.539,10.239,11.228,27.396,16.438,39.343
		c5.21,11.945,21.647,43.473,25.869,51.287c4.222,7.814,21.826,43.922,31.617,52.812c9.791,8.893,17.247,0.63,17.247,0.63
		C142.489,385.592,139.627,378.408,139.627,378.408z"/>
	<path fill="#C4B36C" d="M139.627,388.825c1.69-1.91,1.382-5.192,0.847-7.563c-0.391,2.644-1.556,5.777-4.782,7.115
		c-6.058,2.512-15.218-2.88-24.045-19.391c-8.827-16.512-20.521-38.278-20.563-38.528C82.959,315.625,65.459,278.5,65.459,278.5
		c-7.5-15.792-18.75-33.875-12.167-39c2.875-2.285,5.871-2.766,8.59-2.483c-4.184-2.41-12.899-2.244-13.425,7.736
		c-0.539,10.239,11.228,27.396,16.438,39.343c5.21,11.945,21.647,43.473,25.869,51.287c4.222,7.814,21.826,43.922,31.617,52.812
		C132.172,397.088,139.627,388.825,139.627,388.825z"/>
	<circle fill="#C4B36C" cx="119.73" cy="372.271" r="0.919"/>
	<circle fill="#C4B36C" cx="106.636" cy="343.519" r="0.919"/>
	<circle fill="#C4B36C" cx="100.305" cy="317.358" r="0.919"/>
	<circle fill="#C4B36C" cx="91.771" cy="313.99" r="0.919"/>
	<circle fill="#C4B36C" cx="78.212" cy="287.127" r="0.919"/>
	<circle fill="#C4B36C" cx="63.552" cy="249.636" r="0.919"/>
	<circle fill="#C4B36C" cx="58.622" cy="245.258" r="0.919"/>
	<circle fill="#C4B36C" cx="59.938" cy="254.751" r="0.919"/>
	<circle fill="#C4B36C" cx="132.424" cy="376.433" r="0.919"/>
	<path fill="#EBD581" d="M129.222,362.339c0,0,2.313,3.554-1.281,3.925c-3.594,0.371-2.934-3.884-9.502-4.132
		c-6.28-0.206-8.424-0.702-10.099-5.411c-0.684-1.488,0.596-6.281,10.471-1.074C128.686,360.852,128.231,361.348,129.222,362.339z"
		/>
	<path fill="#C8B76E" d="M129.327,362.514c0,0-15.378-11.296-21.003-7.389c-0.791-2.909,4.25-5.636,9.868-3.033
		C123.81,354.695,127.986,356.741,129.327,362.514z"/>
	<path fill="#EBD581" d="M99.3,305.26c0,0,1.967,3.758-1.647,3.785c-3.613,0.029-2.552-4.145-9.068-5.013
		c-6.232-0.8-8.319-1.497-9.541-6.345c-0.54-1.545,1.188-6.195,10.525-0.078C98.906,303.729,98.407,304.178,99.3,305.26z"/>
	<path fill="#C8B76E" d="M99.387,305.443c0,0-14.24-12.7-20.209-9.344c-0.512-2.971,4.764-5.209,10.111-2.086
		S98.599,299.57,99.387,305.443z"/>
	<path fill="#EBD581" d="M115.422,335.061c0,0-4.62-7.656-14.197-9.873c-6.354-1.276-7.755,7.053,0.803,8.06
		c8.558,1.007,10.439,5.911,13.394,4.769C116.709,337.344,115.422,335.061,115.422,335.061z"/>
	<path fill="#C9B86E" d="M115.355,334.954c0,0-7.777-8.085-14.13-8.974c-3.449-0.698-4.573,0.58-4.573,0.58s-1.216-2.006,3.76-2.92
		C106.194,322.941,113.058,327.062,115.355,334.954z"/>
	<path fill="#EBD581" d="M86.797,281.086c0,0-4.653-8.875-14.389-12.13c-4.357-1.185-6.94,3.012-1.991,6.724
		c4.949,3.713,7.908,3.039,13.717,8.741C85.856,286.465,88.922,285.146,86.797,281.086z"/>
	<path fill="#C4B36C" d="M86.358,280.334c0,0-6.312-7.907-13.09-10.436c-4.035-1.398-4.731-0.293-4.731-0.293
		s1.181-5.222,6.694-3.069C80.744,268.688,86.439,275.52,86.358,280.334z"/>
</g>
</svg>
