<?xml version="1.0" encoding="utf-8"?>
<!-- Generator: Adobe Illustrator 14.0.0, SVG Export Plug-In . SVG Version: 6.00 Build 43363)  -->
<!DOCTYPE svg PUBLIC "-//W3C//DTD SVG 1.1//EN" "http://www.w3.org/Graphics/SVG/1.1/DTD/svg11.dtd">
<svg version="1.1" id="content" xmlns="http://www.w3.org/2000/svg" xmlns:xlink="http://www.w3.org/1999/xlink" x="0px" y="0px"
	 width="500px" height="500px" viewBox="0 0 500 500" enable-background="new 0 0 500 500" xml:space="preserve">
<g id="bounds" display="none">
	
		<rect x="42.642" y="238.543" display="inline" fill="none" stroke="#000000" stroke-width="0.8436" width="121.278" height="131.93"/>
</g>
<rect id="position" x="0" y="0" display="none" fill="none" stroke="#000000" width="500" height="500"/>
<g>
	<g>
		<path fill="#DECB1B" d="M74.895,323.863c14.502,9.211,33.809,10.549,49.211,4.89c15.4-5.655,21.672-17.363,22.473-25.965
			c-1.308-2.259-3.737-3.497-3.737-3.497s-8.798,1.287-17.669,6.135c-8.871,4.846-25.994,9.738-41.539-2.035
			c-7.794-7.451-12.772-10.521-12.893-16.188c-0.082-5.423,0.328-6.866,0.328-6.866s-3.075,4.1-7.799,3.874
			c-0.098,2.044-0.315,6.573-0.315,6.573s-0.454,4.917-1.217,7.732S59.705,314.219,74.895,323.863z"/>
		<g>
			<path fill="#DECB1B" d="M62.955,290.784c0,0-0.233-9.854-0.16-11.286c4.222-1.423,8.274,0.839,8.274,0.839
				s-1.032,7.796,0.239,9.826C68.531,291.845,66.426,291.559,62.955,290.784z"/>
			<path fill="#F0DB1D" d="M71.663,301.142c3.627,4.424,16.92,14.102,29.532,14.703c24.208,1.159,38.97-11.793,42.896-15.75
				c-0.708-0.527-1.249-0.805-1.249-0.805s-8.798,1.287-17.669,6.135c-8.871,4.846-25.994,9.738-41.539-2.035
				c-7.794-7.451-12.772-10.521-12.893-16.188c-0.082-5.423,0.328-6.866,0.328-6.866s-2.882,0.268-5.655,0.423
				C65.413,280.76,65.812,294.01,71.663,301.142z"/>
			
				<ellipse transform="matrix(-0.7275 -0.6861 0.6861 -0.7275 42.8428 619.8174)" fill="#73730E" cx="144.517" cy="301.4" rx="3.037" ry="1.531"/>
		</g>
		
			<ellipse transform="matrix(0.9507 -0.31 0.31 0.9507 -93.4819 52.796)" opacity="0.5" fill="#4D460A" cx="119.387" cy="320.549" rx="1.923" ry="0.762"/>
		
			<ellipse transform="matrix(0.9185 -0.3953 0.3953 0.9185 -116.0877 76.8759)" opacity="0.5" fill="#4D460A" cx="128.489" cy="320.115" rx="1.923" ry="0.76"/>
		<path fill="#948712" d="M62.795,279.498l7.977,3.93c0.181-2.425,0.297-3.091,0.297-3.091S67.465,277.838,62.795,279.498z"/>
	</g>
	<path opacity="0.5" fill="#F0DB1D" d="M146.193,305.273c-4.162,5.693-20.736,25.509-47.729,22.118
		c-31.455-3.951-35.331-27.125-34.646-32.747c0.37-3.04,0.317-11.336,0.19-14.549c-0.242,0.012-0.961-0.586-1.212-0.598
		c-0.098,2.044,0.16,11.286,0.16,11.286s-0.454,4.917-1.217,7.732s-2.032,15.702,13.157,25.347
		c14.502,9.211,33.809,10.549,49.211,4.89C138.071,323.625,144.512,313.526,146.193,305.273z"/>
</g>
</svg>
