<?xml version="1.0" encoding="utf-8"?>
<!-- Generator: Adobe Illustrator 14.0.0, SVG Export Plug-In . SVG Version: 6.00 Build 43363)  -->
<!DOCTYPE svg PUBLIC "-//W3C//DTD SVG 1.1//EN" "http://www.w3.org/Graphics/SVG/1.1/DTD/svg11.dtd">
<svg version="1.1" id="content" xmlns="http://www.w3.org/2000/svg" xmlns:xlink="http://www.w3.org/1999/xlink" x="0px" y="0px"
	 width="500px" height="500px" viewBox="0 0 500 500" enable-background="new 0 0 500 500" xml:space="preserve">
<g id="bounds" display="none">
	
		<rect x="28.357" y="228.701" display="inline" fill="none" stroke="#000000" stroke-width="0.986" width="141.741" height="154.189"/>
</g>
<rect id="position" x="0" y="0" display="none" fill="none" stroke="#000000" width="500" height="500"/>
<g>
	<path fill="#C2AC30" d="M113.157,325.243c0,0-3.598-1.841-9.015-0.347c2.657-4.459,4.295-4.91,4.446-5.021
		c0.152-0.107,4.575,2.241,4.575,2.241L113.157,325.243z"/>
	<path fill="#DED645" d="M117.896,280.223c0.326,0.485-0.115,2.008-0.075,2.582c0.048,0.69,0.138,1.481,0.294,2.154
		c0.167,0.722,0.463,1.394,0.632,2.106c-0.548,0.351-1.537,0.279-2.135,0.286c-1.194,0.013-2.167,0.045-2.887-0.964
		c-0.438-0.617-0.904-1.281-0.864-2.103c0.029-0.556,0.31-0.813,0.663-1.214c0.852-0.962,1.686-1.748,2.682-2.508L117.896,280.223z"
		/>
	<path fill="#F8EE4C" d="M60.776,298.987c5.304-3.084,11.207-4.681,16.861-6.795c5.574-2.085,11.216-4.114,16.844-6.013
		c6.017-2.032,11.935-4.362,17.909-6.598c1.728-0.646,3.858,0.108,5.536,0.67c-1.308,0.625-2.656,1.193-3.501,2.501
		c-0.982,1.524-0.28,2.719,1.258,3.195c1.271,0.395,2.419-0.261,3.66-0.013c2.19,0.438,6.402,4.796,7.703,6.533
		c0.691,0.923,1.476,1.792,2.045,2.763c0.472,0.805,1.603,2.362,1.454,3.372c-0.187,1.277-1.671,1.801-2.692,2.088
		c-1.938,0.545-3.944,1.078-5.917,1.394c-6.827,1.086-13.881,1.046-20.715,1.188c-3.122,0.063-6.131,0.2-9.169-0.332
		c-2.193-0.382-4.453-0.25-6.678-0.453c-2.945-0.269-5.946-0.374-8.919-0.378c-1.849-0.001-3.694,0.066-5.537,0.021
		c-0.443-0.011-1.435,0.104-1.809-0.094c-0.479-0.257-0.47-0.791-0.834-1.165L60.776,298.987z"/>
	<path fill="#E9CE3A" d="M69.438,318.94c0.469-1.223,0.488-2.429-0.193-3.531c-0.77-1.242-2.647-2.465-4.344-2.674
		c-1.872-6.662-4.125-13.748-4.125-13.748s1.924-0.082,4.572-0.178c2.648-0.094,65.2-0.563,65.2-0.563s0.653,5.376,1.079,12.143
		c0.502,6.808-0.395,11.571-0.395,11.571s-0.356,2.773-5.604,3.271c-6.303,0.597-9.246,0.217-11.978,0.545
		c-1.577,0.161-1.4-0.651-1.399-2.058c0.336-2.74-6.317-3.249-7.446,1.895c-0.14,0.881-2.661,0.396-4.156,0.412
		c-1.496,0.015-17.778-0.207-22.661,0.068c-7.431,0.267-7.431,0.267-7.431,0.267s-2.878-0.194-3.3-4.044
		C68.247,321.413,68.969,320.163,69.438,318.94z"/>
	<path fill="#F3D83C" d="M80.112,304.383c0.42,0.29,0.803,0.697,1.086,1.129c0.636,0.963,0.761,2.164,0.686,3.343
		c-0.148,2.24-1.463,4.033-3.604,4.68c-0.799,0.241-1.606,0.315-2.411,0.207c-0.727-0.097-1.651-0.358-2.04-1.002
		c-0.608-1.005-0.939-2.249-0.721-3.474c0.259-1.452,1.288-2.217,2.23-3.243c0.618-0.674,1.259-1.858,2.158-2.16
		C78.231,303.618,79.513,303.967,80.112,304.383z"/>
	<path fill="#C2AC30" d="M79.591,304.426c0.661,0.651,0.881,1.579,1.155,2.458c0.403,1.296-0.044,2.894-1.156,3.832
		c-0.975,0.82-2.591,1.234-3.788,1.197c-0.848-0.029-2.206-0.136-2.835-0.723c-0.779-0.726-1.097-1.94-0.819-3.006
		c0.524-1.993,2.148-3.061,3.461-4.485c0.188-0.201,0.867-0.474,1.132-0.5c0.276-0.03,0.637,0.086,0.903,0.146
		C78.382,303.512,79.056,303.896,79.591,304.426z"/>
	<path fill="#F3D83C" d="M104.754,303.523c0.65-0.218,1.284-0.501,1.953-0.267c0.853,0.299,1.439,1.009,1.693,1.876
		c0.562,1.927-0.898,4.006-2.675,4.754c-1.231,0.52-2.697,0.66-3.852,0.051c-0.482-0.254-0.672-0.851-0.76-1.371
		c-0.189-1.118,0.963-2.82,2.006-3.121L104.754,303.523z"/>
	<path fill="#C2AC30" d="M106.415,303.998c0.866,0.68,0.851,2.021,0.312,2.967c-0.874,1.53-3.235,2.412-4.601,1.35
		c-0.617-0.479-0.915-1.342-0.793-2.168c0.164-1.113,1.083-1.811,1.984-2.342C104.365,303.189,105.496,303.277,106.415,303.998z"/>
	<path fill="#F3D83C" d="M120.922,308.042c0.365-0.1,0.727-0.276,1.09-0.398c0.755-0.254,1.475-0.198,2.211,0.013
		c1.135,0.325,1.829,0.848,2.433,1.855c1.141,1.905,0.869,4.566-0.991,6.067c-1.342,1.082-2.849,1.87-4.541,1.92
		c-0.644,0.019-1.397,0.188-1.98-0.158c-1.181-0.698-0.753-2.281-0.066-3.265L120.922,308.042z"/>
	<path fill="#C2AC30" d="M123.175,307.71c0.691,0.199,1.325,0.692,1.708,1.308c0.438,0.702,0.622,1.526,0.584,2.382
		c-0.059,1.302-0.733,2.718-1.765,3.569c-1.256,1.04-2.799,1.517-4.335,1.287c-0.702-0.106-1.478-0.508-1.911-1.064
		c-0.466-0.597-0.663-1.574-0.649-2.353c0.02-1.06,0.505-2.226,1.079-3.126c0.278-0.434,0.694-0.895,1.094-1.212
		c0.587-0.466,1.481-1.062,2.22-1.036C121.852,307.486,122.552,307.529,123.175,307.71z"/>
	<path fill="#F3D83C" d="M93.777,312.371c0.58-0.324,1.625,0.139,2.044,0.481c0.757,0.621,1.23,1.854,1.222,2.863
		c-0.018,2.104-1.506,3.81-3.368,4.511c-1.414,0.531-2.893,0.595-3.954-0.476c-0.498-0.5-0.944-1.556-0.897-2.305
		c0.073-1.193,1.192-2.95,2.303-3.393L93.777,312.371z"/>
	<path fill="#C2AC30" d="M93.359,311.792c0.981,0.072,1.703,0.504,2.146,1.407c0.585,1.187,0.828,2.648-0.09,3.829
		c-0.675,0.866-1.701,1.544-2.719,1.854c-0.831,0.255-2.243,0.391-2.95-0.146c-1.178-0.895-1.186-2.768-0.528-4.086
		c0.417-0.836,1.077-1.543,1.844-2.059c0.362-0.243,0.762-0.472,1.141-0.678C92.592,311.701,92.939,311.762,93.359,311.792z"/>
	<path fill="#DED645" d="M85.848,293.419c0.714,0.477,0.074,1.14-0.504,1.454c-0.873,0.472-2.488,1.231-3.427,0.804
		c-1.13-0.517-0.193-1.277,0.541-1.688C83.457,293.43,84.812,292.73,85.848,293.419z"/>
	<path fill="#DED645" d="M103.845,288.535c-0.405,1.703-2.917,2.063-4.265,2.193c-1.085,0.104-4.254,0.487-4.449-1.172
		c-0.204-1.749,3.224-2.606,4.388-2.785C100.77,286.581,104.337,286.469,103.845,288.535z"/>
	<path fill="#DED645" d="M119.846,294.178c-2.247,1.065-4.569,0.248-6.138-1.346c-0.911-0.925-0.497-2.594,0.727-3.197
		c1.876-0.928,3.982-0.304,5.383,0.971C120.909,291.598,121.673,293.311,119.846,294.178z"/>
	<path fill="#DED645" d="M101.772,293.688c1.042-0.983,3.412-0.27,4.266,0.444C109.719,297.216,98.743,296.549,101.772,293.688z"/>
</g>
</svg>
