<?xml version="1.0" encoding="utf-8"?>
<!-- Generator: Adobe Illustrator 14.0.0, SVG Export Plug-In . SVG Version: 6.00 Build 43363)  -->
<!DOCTYPE svg PUBLIC "-//W3C//DTD SVG 1.1//EN" "http://www.w3.org/Graphics/SVG/1.1/DTD/svg11.dtd">
<svg version="1.1" id="content" xmlns="http://www.w3.org/2000/svg" xmlns:xlink="http://www.w3.org/1999/xlink" x="0px" y="0px"
	 width="500px" height="500px" viewBox="0 0 500 500" enable-background="new 0 0 500 500" xml:space="preserve">
<rect id="position" x="0" y="0" display="none" fill="none" stroke="#000000" width="500" height="500"/>
<g id="bounds">
	<rect x="42.591" y="254.967" fill="none" stroke="#000000" stroke-width="0.9992" width="115.824" height="125.996"/>
</g>
<g id="accessory">
	<path fill="#333231" d="M141.998,324.011c0,4.977-4.029,9-9,9H71.009c-4.971,0-9-4.023-9-9v-20.664c0-4.973,4.029-9,9-9h61.989
		c4.971,0,9,4.027,9,9V324.011z"/>
	<path fill="#333231" d="M62.009,313.099V302.39c0-5.152,4.029-9.33,9-9.33h61.989c4.971,0,9,4.178,9,9.33v10.709H62.009
		L62.009,313.099z"/>
	<rect x="62.009" y="313.099" fill="#212020" width="79.989" height="2.434"/>
	<rect x="92.143" y="293.896" fill="#494948" width="19.501" height="20.969"/>
	<path fill="#262525" d="M112.622,315.658c0,3.658-2.966,6.625-6.625,6.625h-8.125c-3.659,0-6.625-2.967-6.625-6.625l0,0
		c0-3.658,2.966-6.625,6.625-6.625h8.125C109.656,309.033,112.622,312,112.622,315.658L112.622,315.658z"/>
	<polygon fill="#333231" points="64.517,342.636 62.255,325.687 61.763,325.773 61.27,325.687 59.009,342.697 59.995,342.869 
		60.757,334.482 60.51,342.734 61.508,342.791 61.763,334.396 62.018,342.771 63.016,342.713 62.767,334.429 63.531,342.806 	"/>
	<path fill="#A5A5A5" d="M64.33,323.828c0,1.34-1.087,2.428-2.428,2.428l0,0c-1.34,0-2.427-1.088-2.427-2.428v-5.479
		c0-1.344,1.087-2.43,2.427-2.43l0,0c1.341,0,2.428,1.086,2.428,2.43V323.828z"/>
	<path fill="#3D3C3B" d="M88.747,294.824v16.463h-24.23v-8.713c0,0,0.897-7.75,8.563-7.75S88.747,294.824,88.747,294.824z"/>
	<path fill="#3D3C3B" d="M115.07,294.824v16.463h24.229v-8.713c0,0-0.896-7.75-8.563-7.75S115.07,294.824,115.07,294.824z"/>
	<path fill="#686868" d="M104.823,317.754c0,1.104-0.896,2-2,2h-1.829c-1.105,0-2-0.896-2-2v-4.639c0-1.105,0.895-2,2-2h1.829
		c1.104,0,2,0.895,2,2V317.754z"/>
	<circle fill="#A5A5A5" cx="102.004" cy="313.356" r="1.546"/>
</g>
</svg>
