<?xml version="1.0" encoding="utf-8"?>
<!-- Generator: Adobe Illustrator 13.0.0, SVG Export Plug-In . SVG Version: 6.00 Build 14948)  -->
<!DOCTYPE svg PUBLIC "-//W3C//DTD SVG 1.1//EN" "http://www.w3.org/Graphics/SVG/1.1/DTD/svg11.dtd">
<svg version="1.1" id="content" xmlns="http://www.w3.org/2000/svg" xmlns:xlink="http://www.w3.org/1999/xlink" x="0px" y="0px"
	 width="500px" height="500px" viewBox="0 0 500 500" enable-background="new 0 0 500 500" xml:space="preserve">
<g id="bounds">
	<rect x="107.768" y="52.053" fill="none" stroke="#000000" stroke-width="1.0678" width="285.654" height="285.654"/>
</g>
<g id="accessory">
	<path fill="#EFE2C4" d="M187.666,207.485c-18.938,0-42.379-3.563-42.379-3.563s18.25,36.664,11.994,71.068h-0.002v9.349h2.145
		v-9.347c1.547,0,3.027,0,4.457,0v9.347h2.143v-9.347c1.559,0,3.041,0,4.455,0v9.347h2.143v-9.347c1.58,0,3.063,0,4.455,0v9.347
		h2.145v-9.347c1.611,0,3.096,0,4.457,0v9.347h2.143v-9.347c1.691,0,3.17,0,4.455,0v9.347h2.143v-9.347c2.064,0,3.484,0,4.457,0
		v9.347h2.145v-9.349h-0.012C199,274.907,199.791,222.89,187.666,207.485z"/>
	<path fill="#B59F69" d="M191.832,215.326L149.11,212.9v0.003c1.084,2.832,1.578,3.988,2.76,7.837l42.404,2.612
		C193.571,220.474,192.76,217.768,191.832,215.326z"/>
	<path fill="#EFE2C4" d="M135.094,168.16c0,0,122-4.333,231,8v39.333c0,0-172.332,5-230.666-4.333
		C135.428,195.16,135.094,168.16,135.094,168.16z"/>
	<path fill="#6D5622" d="M310.198,182.331l-11.521,19.957l8.269,14.313c10.645,0.781,20.93,0.632,29.813-0.444l8.008-13.869
		l-11.521-19.957H310.198z"/>
	<path fill="#6D5622" d="M346.121,177.1l11.521,19.957h8.449V176.16c-6.074-0.688-12.192-1.319-18.326-1.907L346.121,177.1z"/>
	<path fill="#6D5622" d="M249.594,184.631l11.521,19.957h23.045l11.521-19.957l-8.523-14.765
		c-9.633-0.496-19.105-0.898-28.334-1.226L249.594,184.631z"/>
	<path fill="#6D5622" d="M218.944,194.525l-11.52,19.957l0.959,1.664c14.434,1.49,28.309,1.116,43.795,0.646l1.332-2.31
		l-11.521-19.957H218.944z"/>
	<path fill="#6D5622" d="M172.242,167.481l-2.707,4.688l11.521,19.955h23.045l11.521-19.955l-2.652-4.6
		C197.612,167.388,183.811,167.393,172.242,167.481z"/>
	<path fill="#6D5622" d="M135.428,211.16c11.801,3.423,20.939,3.913,35.01,3.423l5.771-9.995l-11.521-19.957h-23.045l-6.283,10.883
		C135.401,201.035,135.428,206.553,135.428,211.16z"/>
	<path fill="#6D5622" d="M188.024,245.713l-5.406,12.237l7.896,10.802l8.447-0.912c1.363-4.331,1.965-16.802-1.297-23.169
		L188.024,245.713z"/>
	<path fill="#6D5622" d="M157.424,229.304l-1.969,4.456c-0.361,5.565,0.639,10.37,2.633,16.086l1.824,2.498l13.303-1.438
		l5.404-12.239l-7.895-10.801L157.424,229.304z"/>
</g>
<path id="position" display="none" d="M499,1v498H1V1H499 M500,0H0v500h500V0L500,0z"/>
</svg>
