<?xml version="1.0" encoding="utf-8"?>
<!-- Generator: Adobe Illustrator 14.0.0, SVG Export Plug-In . SVG Version: 6.00 Build 43363)  -->
<!DOCTYPE svg PUBLIC "-//W3C//DTD SVG 1.1//EN" "http://www.w3.org/Graphics/SVG/1.1/DTD/svg11.dtd">
<svg version="1.1" id="content" xmlns="http://www.w3.org/2000/svg" xmlns:xlink="http://www.w3.org/1999/xlink" x="0px" y="0px"
	 width="500px" height="500px" viewBox="0 0 500 500" enable-background="new 0 0 500 500" xml:space="preserve">
<g id="bounds">
	<rect x="42.561" y="256.437" fill="none" stroke="#000000" stroke-width="0.9201" width="132.259" height="143.873"/>
</g>
<g id="accessory">
	<path fill="#4B4A4C" d="M73.669,293.196l4.062-12.254c0,0,22.313,11.113,48.661,3.012c2.096,11.582,2.822,14.242,2.822,14.242
		s-11.659,7.482-27.065,6.805c-15.407-0.682-29.33-8.504-29.33-8.504L73.669,293.196z"/>
	<path fill="#28211B" d="M73.669,293.196c0,0,25.299,15.285,55.544,5c5.845,3.346,5.845,3.346,5.845,3.346
		s-11.118,4.959-7.514,34.363c3.604,29.4-12.492,42.865-33.146,38.855C71.437,368.297,61.488,338.614,73.669,293.196z"/>
	<path fill="#424241" d="M70.827,348.476c3.822,13.969,12.063,23.047,23.573,26.288c16.376,4.396,32.733-5.174,33.568-27.907
		C108.619,368.87,81.736,358.241,70.827,348.476z"/>
	<path fill="#424241" d="M69.587,313.09c-1.19,7.604-1.337,10.358-1.149,16.77c12.675,8.094,35.166,16.125,58.667,1.7
		c0-0.017,0.001-0.028,0.002-0.047c-0.419-5.282-0.331-9.676,0.084-13.301C122.201,319.487,97.883,326.941,69.587,313.09z"/>
	<path fill="#424241" d="M127.191,318.212c0,0,8.977,17.924,19.663,9.764c7.354-6.225-5.971-23.803-11.794-26.434
		C127.984,302.439,124.831,314.9,127.191,318.212z"/>
</g>
<g id="position" display="none">
	<rect x="0" y="0" display="inline" fill="none" stroke="#000000" width="500" height="500"/>
</g>
</svg>
