<?xml version="1.0" encoding="utf-8"?>
<!-- Generator: Adobe Illustrator 14.0.0, SVG Export Plug-In . SVG Version: 6.00 Build 43363)  -->
<!DOCTYPE svg PUBLIC "-//W3C//DTD SVG 1.1//EN" "http://www.w3.org/Graphics/SVG/1.1/DTD/svg11.dtd">
<svg version="1.1" id="content" xmlns="http://www.w3.org/2000/svg" xmlns:xlink="http://www.w3.org/1999/xlink" x="0px" y="0px"
	 width="500px" height="500px" viewBox="0 0 500 500" enable-background="new 0 0 500 500" xml:space="preserve">
<rect id="position" x="0" y="0" display="none" fill="none" stroke="#000000" width="500" height="500"/>
<g id="bounds">
	<rect x="35.353" y="260.907" fill="none" stroke="#000000" stroke-width="0.8084" width="133.796" height="145.547"/>
</g>
<g id="accessory">
	<path fill="#771930" d="M71.667,308.866c0-1.649,1.201-3.617,2.669-4.37l38.329-19.677c1.468-0.753,2.669-0.02,2.669,1.631v72.492
		c0,1.648-1.201,3.617-2.669,4.369l-38.329,19.677c-1.468,0.754-2.669,0.021-2.669-1.63V308.866z"/>
	<path fill="#771930" d="M132.742,287.982c0,0-1.519-6.157-8.325-6.157c-5.458-0.001-9.083,1.5-14.041,4.169
		c2.124,2.997,4.582,5.288,4.582,5.288L132.742,287.982z"/>
	<path fill="#8D9858" d="M89.917,310.304l-14.156-2.469l39.542-20.281c0,0,10.271-6.188,14.677,0
		C101.542,304.304,89.917,310.304,89.917,310.304z"/>
	<polygon fill="#D6E68B" points="89.917,383.398 75.761,380.929 75.761,307.836 89.917,310.304 	"/>
	<path fill="#841A30" d="M89.167,311.116c0-1.649,1.201-3.617,2.669-4.37l38.329-19.677c1.468-0.753,2.669-0.02,2.669,1.631v72.492
		c0,1.648-1.201,3.617-2.669,4.369l-38.329,19.677c-1.468,0.754-2.669,0.021-2.669-1.63V311.116z"/>
	<rect x="84.332" y="313.929" fill="#B6BF77" width="0.849" height="65.484"/>
	<rect x="86.573" y="314.233" fill="#B6BF77" width="0.85" height="65.181"/>
	<rect x="81.36" y="313.254" fill="#B6BF77" width="0.85" height="66.16"/>
	<rect x="78.429" y="312.299" fill="#B6BF77" width="0.849" height="65.78"/>
	<path fill="#841A30" d="M89.167,311.116c0-1.649,1.201-3.617,2.669-4.37l38.329-19.677c1.468-0.753,2.669-0.02,2.669,1.631v72.492
		c0,1.648-1.201,3.617-2.669,4.369l-38.329,19.677c-1.468,0.754-2.669,0.021-2.669-1.63V311.116z"/>
	<path fill="#841A30" d="M89.167,311.116c0-1.649,1.201-3.617,2.669-4.37l38.329-19.677c1.468-0.753,2.669-0.02,2.669,1.631v72.492
		c0,1.648-1.201,3.617-2.669,4.369l-38.329,19.677c-1.468,0.754-2.669,0.021-2.669-1.63V311.116z"/>
	<path fill="#AFBC06" d="M93.667,311.177l0.052-0.104c0.04-0.082,0.1-0.18,0.154-0.252l0.069-0.098l34.392-17.653v68.063
		l-0.053,0.104c-0.039,0.082-0.1,0.182-0.152,0.252l-0.07,0.098l-34.391,17.652L93.667,311.177L93.667,311.177z M127.333,294.706
		l-32.667,16.771v66.127l32.667-16.771V294.706z"/>
	<rect x="74.486" y="307.836" fill="#541326" width="1.274" height="73.1"/>
	<polygon fill="#8D9858" points="89.167,383.266 75.761,380.932 75.761,381.822 89.167,384.196 	"/>
	<path fill="#AFBC06" d="M120.974,318.811c0.979-0.504,1.779-1.62,1.779-2.482s-0.801-1.157-1.779-0.655l-18.203,9.346
		c-0.979,0.503-1.778,1.619-1.778,2.48c0,0.862,0.801,1.157,1.778,0.655L120.974,318.811z"/>
</g>
</svg>
