<?xml version="1.0" encoding="utf-8"?>
<!-- Generator: Adobe Illustrator 13.0.0, SVG Export Plug-In . SVG Version: 6.00 Build 14948)  -->
<!DOCTYPE svg PUBLIC "-//W3C//DTD SVG 1.1//EN" "http://www.w3.org/Graphics/SVG/1.1/DTD/svg11.dtd">
<svg version="1.1" id="content" xmlns="http://www.w3.org/2000/svg" xmlns:xlink="http://www.w3.org/1999/xlink" x="0px" y="0px"
	 width="500px" height="500px" viewBox="0 0 500 500" enable-background="new 0 0 500 500" xml:space="preserve">
<rect id="position" display="none" fill="none" stroke="#000000" width="500" height="500"/>
<g id="bounds">
	<rect x="218.458" y="86.473" fill="none" stroke="#000000" stroke-width="0.488" width="158.097" height="158.097"/>
</g>
<g id="accessory">
	<path fill="#251B1A" d="M253.488,145.051c0,0,18.787-3.6,35.359,7.878c16.571,11.479,21.87,16.836,26.604,15.47
		c1.733-0.597,1.016-6.05,0.841-7.011c-0.957-5.247,0.108-13.98,2.082-16.579c4.044,0,24.204,0,24.204,0s3.813,12.035,1.185,22.996
		c-2.631,10.961-5.395,18.722-22.143,18.722s-28.104-12.123-34.219-19.028c-6.117-6.905-14.271-18.217-34.396-18.217
		c-2.632,0-2.632,0-2.632,0S249.696,146.608,253.488,145.051z"/>
	<path fill="#999944" d="M297.507,159.066c0,0-0.177,7.141-9.272,9.368c-1.59-1.798-2.984-3.405-2.984-3.405
		s7.261-1.389,8.486-8.666C296.081,158.039,297.507,159.066,297.507,159.066z"/>
</g>
</svg>
