<?xml version="1.0" encoding="utf-8"?>
<!-- Generator: Adobe Illustrator 14.0.0, SVG Export Plug-In . SVG Version: 6.00 Build 43363)  -->
<!DOCTYPE svg PUBLIC "-//W3C//DTD SVG 1.1//EN" "http://www.w3.org/Graphics/SVG/1.1/DTD/svg11.dtd">
<svg version="1.1" id="content" xmlns="http://www.w3.org/2000/svg" xmlns:xlink="http://www.w3.org/1999/xlink" x="0px" y="0px"
	 width="500px" height="500px" viewBox="0 0 500 500" enable-background="new 0 0 500 500" xml:space="preserve">
<rect x="0" y="0" display="none" fill="none" stroke="#000000" width="500" height="500"/>
<g id="bounds">
	<rect x="47.186" y="251.177" fill="none" stroke="#000000" stroke-width="0.664" width="130.242" height="141.682"/>
</g>
<g id="accessory">
	<path fill="#939598" d="M111.794,274.681c8.913,4.835,15.388,19.364,15.388,36.539c0,17.174-6.475,31.703-15.388,36.539
		c-8.915-4.836-15.39-19.365-15.39-36.539C96.405,294.046,102.88,279.516,111.794,274.681z"/>
	<path fill="#E7E8E9" d="M119.808,311.22c0,17.174-4.22,31.703-8.014,36.539c7.799-4.836,12.502-19.365,12.502-36.539
		c0-17.175-4.704-31.704-12.502-36.539C115.588,279.516,119.808,294.047,119.808,311.22z"/>
	<path fill="#808285" d="M111.794,274.681c-7.243,4.835-13.626,19.364-13.626,36.539c0,17.174,6.384,31.703,13.626,36.539
		c-3.524-4.836-4.969-19.365-4.969-36.539C106.825,294.046,108.271,279.516,111.794,274.681z"/>
	<path fill="#DE2D26" d="M96.186,299.913c2.49-12.591,8.305-22.472,15.608-26.434c7.304,3.962,13.117,13.843,15.606,26.434H96.186z"
		/>
	<path fill="#231F20" d="M104.494,342.31h14.6c-1.482,2.107-3.128,3.877-4.896,5.257l-0.962,19.787h-2.885l-0.962-19.787
		C107.622,346.187,105.976,344.419,104.494,342.31z"/>
	<circle fill="#DE2D26" cx="111.794" cy="367.354" r="4.688"/>
	<ellipse fill="#939598" cx="111.794" cy="351.026" rx="15.065" ry="1.362"/>
	<ellipse fill="#939598" cx="111.794" cy="357.197" rx="11.381" ry="1.362"/>
	<circle fill="#FFFFFF" cx="113.216" cy="365.913" r="1.483"/>
	<path fill="#FFFFFF" d="M119.237,299.072c-1.278-12.188-4.487-21.829-7.441-25.593c6.07,3.764,10.266,13.405,11.825,25.593H119.237
		z"/>
</g>
</svg>
