<?xml version="1.0" encoding="utf-8"?>
<!-- Generator: Adobe Illustrator 14.0.0, SVG Export Plug-In . SVG Version: 6.00 Build 43363)  -->
<!DOCTYPE svg PUBLIC "-//W3C//DTD SVG 1.1//EN" "http://www.w3.org/Graphics/SVG/1.1/DTD/svg11.dtd">
<svg version="1.1" id="content" xmlns="http://www.w3.org/2000/svg" xmlns:xlink="http://www.w3.org/1999/xlink" x="0px" y="0px"
	 width="500px" height="500px" viewBox="0 0 500 500" enable-background="new 0 0 500 500" xml:space="preserve">
<rect id="position" x="0" y="0" display="none" fill="none" stroke="#000000" width="500" height="500"/>
<g id="bounds" display="none">
	<rect x="1" y="215.494" display="inline" fill="none" stroke="#000000" stroke-width="0.804" width="157.707" height="171.563"/>
</g>
<g id="accessory">
	<path fill="#D8A932" d="M78.9,311.247c1.831,0.964,2.722,2.873,1.987,4.271c-0.733,1.396-4.209,2.184-5.164,1.751
		c-0.986-0.447-2.196-3.838-1.463-5.231C74.994,310.638,77.072,310.287,78.9,311.247z"/>
	<path fill="#D8A932" d="M91.352,294.72c-0.885-1.87-0.447-3.931,0.979-4.606c1.424-0.675,4.677,0.786,5.179,1.703
		c0.52,0.951-0.55,4.389-1.976,5.063C94.108,297.555,92.236,296.589,91.352,294.72z"/>
	<path fill="#D8A932" d="M86.712,285.288c-0.896-1.865-0.47-3.927,0.952-4.61c1.422-0.685,4.681,0.759,5.188,1.676
		c0.524,0.946-0.525,4.39-1.947,5.073C89.485,288.106,87.607,287.15,86.712,285.288z"/>
	<path fill="#D8A932" d="M67.402,267.016c-2.01-0.483-3.342-2.116-2.974-3.649s3.545-3.149,4.577-2.965
		c1.064,0.191,3.07,3.181,2.702,4.714C71.34,266.648,69.412,267.501,67.402,267.016z"/>
	<path fill="#D8A932" d="M54.396,270.945c-1.51,1.414-3.604,1.627-4.684,0.479c-1.078-1.152-0.683-4.693,0.04-5.453
		c0.746-0.786,4.346-0.816,5.424,0.335C56.253,267.456,55.905,269.534,54.396,270.945z"/>
	<path fill="#D8A932" d="M50.219,285.855c0.479,2.014-0.377,3.938-1.911,4.304c-1.536,0.361-4.412-1.74-4.713-2.744
		c-0.311-1.037,1.451-4.177,2.984-4.542C48.112,282.51,49.743,283.844,50.219,285.855z"/>
	<path fill="#574705" d="M81.216,271.048c-8.717-9.064-22.068-10.326-29.848-2.847c-7.779,7.48-7.04,20.871,1.677,29.938
		c12.228,12.715,25.131,14.094,42.188,26.206c12.351,8.77,20.31,17.388,20.31,17.388s1.668,4.386,6.525-0.01
		c4.582-4.684,0.265-6.521,0.265-6.521s-8.301-8.29-16.58-20.974C94.316,296.712,93.443,283.762,81.216,271.048z"/>
	<circle fill="#D8A932" cx="63.992" cy="290.687" r="4.208"/>
	<path fill="#D8A932" d="M53.554,280.221c-0.292,2.306-1.796,4.015-3.36,3.816c-1.563-0.198-3.478-3.514-3.39-4.687
		c0.09-1.214,2.882-3.862,4.446-3.663C52.813,275.886,53.845,277.916,53.554,280.221z"/>
	<path fill="#D8A932" d="M67.245,304.014c2.02,1.152,3.021,3.196,2.239,4.564c-0.781,1.37-4.575,1.868-5.626,1.338
		c-1.087-0.549-2.464-4.142-1.684-5.51C62.958,303.039,65.227,302.863,67.245,304.014z"/>
	<path fill="#D8A932" d="M54.909,295.191c1.316,1.595,1.399,3.698,0.186,4.704c-1.216,1.004-4.726,0.39-5.439-0.378
		c-0.737-0.794-0.546-4.389,0.671-5.394C51.541,293.122,53.593,293.598,54.909,295.191z"/>
	<path fill="#D8A932" d="M81.207,275.16c-1.476-1.797-1.796-3.971-0.721-4.853c1.076-0.882,4.589,0.179,5.375,1.053
		c0.814,0.903,1.039,4.573-0.039,5.454C84.748,277.697,82.681,276.956,81.207,275.16z"/>
	<path fill="#D8A932" d="M62.3,269.652c-2.256,0.561-4.395-0.225-4.775-1.755c-0.38-1.529,2.021-4.511,3.146-4.854
		c1.164-0.354,4.642,1.293,5.022,2.822C66.073,267.394,64.555,269.09,62.3,269.652z"/>
	
		<ellipse transform="matrix(-0.7497 -0.6618 0.6618 -0.7497 -53.8188 535.4445)" fill="#D8A932" cx="74.351" cy="277.9" rx="4.166" ry="3.707"/>
	
		<ellipse transform="matrix(-0.4624 -0.8867 0.8867 -0.4624 -132.9193 505.7389)" fill="#D8A932" cx="86.855" cy="293.164" rx="3.837" ry="3.459"/>
	
		<ellipse transform="matrix(-0.1145 -0.9934 0.9934 -0.1145 -214.4691 421.3038)" fill="#D8A932" cx="80.525" cy="306.233" rx="3.376" ry="3.835"/>
</g>
</svg>
