<?xml version="1.0" encoding="utf-8"?>
<!-- Generator: Adobe Illustrator 13.0.0, SVG Export Plug-In . SVG Version: 6.00 Build 14948)  -->
<!DOCTYPE svg PUBLIC "-//W3C//DTD SVG 1.1//EN" "http://www.w3.org/Graphics/SVG/1.1/DTD/svg11.dtd">
<svg version="1.1" id="content" xmlns="http://www.w3.org/2000/svg" xmlns:xlink="http://www.w3.org/1999/xlink" x="0px" y="0px"
	 width="500px" height="500px" viewBox="0 0 500 500" enable-background="new 0 0 500 500" xml:space="preserve">
<rect id="position" display="none" fill="none" stroke="#000000" width="500" height="500"/>
<g id="bounds">
	<rect x="10.008" y="216.966" fill="none" stroke="#000000" stroke-width="0.692" width="135.746" height="147.675"/>
</g>
<g id="accessories">
	<path fill="#B52424" d="M54.984,250.855c-0.394-0.208-0.593-0.642-0.953-0.898c-0.56-0.4-1.175-0.633-1.824-0.886
		c-1.277-0.498-2.799-0.616-3.758,0.512c-0.736,0.866-1.268,1.905-1.406,3.046c-0.058,0.475-0.123,1.036,0.125,1.474
		c0.302,0.534,1.147,0.652,1.692,0.854c2.128,0.788,5.634,0.641,6.991-1.478L54.984,250.855z"/>
	<path fill="#C42323" d="M42.971,254.435c-1.132,0.909,0.172,4.749,0.512,5.853c0.533,1.721,1.543,3.404,2.452,4.867
		c0.652,1.053,1.405,1.987,2.161,3.011c0.594,0.806,0.559,0.931,1.576,0.784c1.841-0.267,3.643-0.693,5.46-1.064
		c2.036-0.415,4.149-0.638,6.072-1.391c-0.154-0.523-0.717-1.049-1.021-1.514c-0.502-0.77-0.897-1.619-1.371-2.406
		c-0.885-1.469-1.707-2.936-2.487-4.457c-0.441-0.858-1.08-1.688-1.619-2.487c-0.289-0.427-0.597-0.94-0.995-1.219
		c-1.394-0.976-4.126-0.781-5.723-0.828c-1.368-0.039-3.157-0.104-4.442,0.275L42.971,254.435z"/>
	<path fill="#962020" d="M54.729,255.469c-0.005-0.007-0.012-0.014-0.019-0.021c-0.106-0.117-0.566-0.704-0.666-0.726
		c-0.408-0.083-0.855-0.146-0.968-0.177c-0.777-0.211-1.471-0.386-2.27-0.438c-1.31-0.084-2.846-0.193-4.121,0.114
		c-0.894,0.216-1.725,0.521-2.553,0.938c-0.523,0.263-1.041,0.524-1.545,0.826c-0.019,0.01-0.045,0.023-0.064,0.035
		c0.053,1.498,0.729,3.517,0.96,4.267c0.011,0.032,0.026,0.064,0.036,0.098c0.726-0.402,1.444-0.894,2.205-1.24
		c1.121-0.511,2.321-0.874,3.51-1.195c1.077-0.29,2.18-0.513,3.297-0.572c0.917-0.048,1.826,0.072,2.744,0.149
		c0.198-0.373-0.044-1.077-0.182-1.434C55.003,255.854,54.895,255.658,54.729,255.469z"/>
	<path fill="#D62727" d="M57.995,255.353c-0.604-0.649-1.814-1.131-2.632-1.378c-0.78-0.233-1.537-0.231-2.324-0.369
		c-0.927-0.163-1.86-0.23-2.789-0.348c-1.687-0.213-3.382-0.288-5.06-0.194c-0.784,0.044-1.622,0.271-2.41,0.19
		c-0.726-0.074-1.288,0.041-1.884,0.499c-0.488,0.374-0.701,0.872-0.749,1.518c-0.042,0.573-0.212,1.22-0.095,1.804
		c0.193,0.965,1.281,2.434,2.309,2.039c0.319-0.122,0.491-0.472,0.757-0.675c0.177-0.136,0.379-0.203,0.57-0.31
		c0.481-0.27,0.939-0.77,0.666-1.427c-0.169-0.405-0.528-0.809-0.148-1.144c0.423-0.371,0.803,0.124,1.208,0.35
		c0.472,0.265,0.836-0.063,1.254-0.219c0.502-0.187,1.05-0.293,1.582-0.368c1.223-0.175,2.476-0.119,3.717,0.025
		c1.125,0.13,2.15,0.657,3.293,0.705c0.479,0.021,2.584,0.093,2.606-0.649l0.13-0.048L57.995,255.353z"/>
	<path fill="#B52424" d="M61.859,273.898c0,0-4.148-16.859-19.331-10.239c-1.504,0.548-2.564-2.454-2.564-2.454
		s2.024,22.984,24.221,18.898C62.686,272.041,61.859,273.898,61.859,273.898z"/>
	<path fill="#B52424" d="M70.412,261.201c0.341-0.634-2.687-11.947-12.978-15.719c-2.81-0.818-2.81-0.818-2.81-0.818
		s-4.85,17.719,10.618,23.328C79.542,272.656,70.412,261.201,70.412,261.201z"/>
	<path fill="#537D56" d="M70.125,284.171c0,0,27.617,29.514,49.731,43.767c1.686-2.214,1.686-2.214,1.686-2.214
		s-40.261-28.978-45.648-48.302C72.381,282.034,70.125,284.171,70.125,284.171z"/>
	<path fill="#C42323" d="M59.051,280.133l-5.865-3.552l-7.268,1.438c0,0,11.399,20.587,24.6,6.366
		C60.27,280.427,59.051,280.133,59.051,280.133z"/>
	<path fill="#C42323" d="M59.051,280.133l-1.338-17.596l13.758-12.983c0,0,24.06,19.018-0.043,34.477
		C65.883,286.71,59.051,280.133,59.051,280.133z"/>
	<path fill="#B52424" d="M68.109,259.316c0,0,11.09,12.186-0.424,23.982c0.505,0.498,0.954,0.946,1.36,1.352
		c0.806-0.054,1.605-0.245,2.382-0.619c19.855-12.734,7.026-27.884,1.889-32.829L68.109,259.316z"/>
	<path fill="#B52424" d="M53.689,276.884l-0.505-0.303l-7.267,1.438c0,0,11.398,20.587,24.6,6.367
		c-1.035-0.401-1.975-0.761-2.833-1.089h-0.001c0,0-2.894,5.299-9.852,2.249C50.875,282.495,53.688,276.889,53.689,276.884z"/>
	<path fill="#537D56" d="M95.818,309.203c0,0-12.113,0.292-33.87,11.825c0.634,1.292,0.634,1.292,0.634,1.292
		s28.309-12.657,38.259-8.71C97.85,309.731,95.818,309.203,95.818,309.203z"/>
	<path fill="#699E6B" d="M75.139,314.826c0,0-6.9-14.066-22.128-11.658C57.462,316.229,72.695,314.882,75.139,314.826z"/>
	<path fill="#699E6B" d="M78.758,314.926c0,0-6.742,5.951-2.206,18.365C85.778,325.611,81.704,317.145,78.758,314.926z"/>
	<path fill="#D62727" d="M57.609,262.255c4.049-3.971,8.149-7.898,12.121-11.941c0.414-0.421,0.832-0.839,1.303-1.2
		c1.01-0.776,2.307-0.833,3.447-0.313c0.455,0.207,0.736,0.606,1.149,0.863c0.397,0.246,0.795,0.284,1.003,0.776
		c0.409,0.967-0.413,1.221-1.088,1.51c-0.561,0.241-1.104,0.632-1.637,0.938c-1.266,0.727-2.529,1.453-3.793,2.179
		c-2.699,1.552-5.399,3.104-8.1,4.655C60.547,260.566,59.078,261.41,57.609,262.255z"/>
	<polygon fill="#962020" points="74.666,252.623 57.609,262.255 59.051,280.133 59.125,263.127 77.162,255.509 	"/>
	<path fill="#962020" d="M54.238,254.882c0,0,5.03-5.808,8.75-6.193c-3.115-2.107-3.896-2.956-3.896-2.956l-4.276,4.837l-0.69,3.583
		L54.238,254.882z"/>
	<path fill="#D62727" d="M54.124,254.154c0.047-0.134,0.104-0.267,0.157-0.398c0.662-1.576,1.612-3.062,2.766-4.323
		c0.832-0.908,1.791-1.705,2.864-2.31c0.285-0.16,0.589-0.346,0.906-0.434c0.203-0.056,0.512,0.001,0.695-0.099
		c0.523-0.284,0.119-0.955-0.239-1.231c-0.646-0.497-1.627-0.746-2.381-1.027c-0.801-0.3-1.531-0.495-2.39-0.5
		c-1.299-0.004-2.266,0.119-2.731,1.461c-0.422,1.212-0.274,2.52-0.271,3.777C53.504,250.779,53.672,252.502,54.124,254.154z"/>
	<path fill="#962020" d="M47.911,262.129l-1.096,0.083l-5.604,4.951c0,0,0.454,0.985,1.507,3.255l7.746-8.263L47.911,262.129z"/>
	<path fill="#D62727" d="M47.955,262.173c-1.207,0.482-2.338,1.276-3.31,2.123c-0.937,0.813-1.761,1.761-2.401,2.826
		c-0.303,0.503-0.633,1.041-0.881,1.571c-0.219,0.468-0.259,0.978-0.895,0.577c-0.487-0.309-0.354-0.923-0.452-1.407
		c-0.186-0.917-0.308-1.846-0.367-2.778c-0.055-0.86-0.036-1.679-0.192-2.517c-0.104-0.56,0.09-1.609,0.832-1.578
		c0.714,0.03,0.848,0.773,1.379,1.053c0.602,0.318,1.332,0.226,1.938-0.027C45.33,261.295,47.955,262.173,47.955,262.173z"/>
	<polygon fill="#962020" points="54.084,277.126 48.217,281.422 46.5,278.979 53.186,276.581 	"/>
	<path fill="#D62727" d="M53.689,276.884l-0.505-0.303c0,0-7.688,0.35-9.384,1.396c-1.402,3.215,1.515,2.714,1.515,2.714
		l1.294-1.537l1.346,0.905L53.689,276.884z"/>
</g>
</svg>
