<?xml version="1.0" encoding="utf-8"?>
<!-- Generator: Adobe Illustrator 13.0.0, SVG Export Plug-In . SVG Version: 6.00 Build 14948)  -->
<!DOCTYPE svg PUBLIC "-//W3C//DTD SVG 1.1//EN" "http://www.w3.org/Graphics/SVG/1.1/DTD/svg11.dtd">
<svg version="1.1" id="content" xmlns="http://www.w3.org/2000/svg" xmlns:xlink="http://www.w3.org/1999/xlink" x="0px" y="0px"
	 width="500px" height="500px" viewBox="0 0 500 500" enable-background="new 0 0 500 500" xml:space="preserve">
<rect id="position" display="none" fill="none" stroke="#000000" width="500" height="500"/>
<g id="bounds">
	<rect x="-12.806" y="226.967" fill="none" stroke="#000000" stroke-width="0.5436" width="147.306" height="155.406"/>
</g>
<g id="accessory">
	<path fill="#BAA693" d="M118.798,303.102c0-2.623-1.064-4.996-2.783-6.717c-1.717-1.717-4.091-2.781-6.713-2.779
		c-5.659,0-5.788,1.953-18.734,1.953c-7.814,0-13.369-5.562-15.202-7.646c-1.832-2.089-2.48-3.917-3.53-5.337
		c-0.001-0.008-0.002-0.014-0.002-0.014v0.004c-6.309-8.56-16.457-14.107-27.906-14.11c-19.136,0-34.647,15.51-34.648,34.646
		c0,19.137,15.595,36.409,34.648,34.647c24.148-2.229,28.818-16.83,31.126-19.347c3.442-3.459,7.752-7.76,15.513-7.758
		c13.186,0,13.543,1.953,18.735,1.953C114.544,312.598,118.797,308.346,118.798,303.102z"/>
	<path fill="#EC1C24" d="M43.276,269.105C24.142,269.104,8.63,284.616,8.631,303.75c0.001,19.137,15.511,34.648,34.645,34.648
		c11.447,0,21.597-5.559,27.908-14.11l0.003-41.067l-0.003-0.006l-0.001,0.002C64.874,274.658,54.723,269.105,43.276,269.105"/>
	<path fill="#E2CEB8" d="M76.53,314.895c2.591-2.938,7.172-5.592,14.12-5.59c11.814-0.002,12.133,1.551,16.781,1.547
		c4.697,0.002,8.506-3.369,8.508-7.537c0-4.162-3.809-7.537-8.506-7.537c-5.064-0.002-5.182,1.553-16.777,1.554
		c-6.998-0.002-11.659-2.834-14.257-5.812"/>
</g>
</svg>
