<?xml version="1.0" encoding="utf-8"?>
<!-- Generator: Adobe Illustrator 16.2.0, SVG Export Plug-In . SVG Version: 6.00 Build 0)  -->
<!DOCTYPE svg PUBLIC "-//W3C//DTD SVG 1.1//EN" "http://www.w3.org/Graphics/SVG/1.1/DTD/svg11.dtd">
<svg version="1.1" id="content" xmlns="http://www.w3.org/2000/svg" xmlns:xlink="http://www.w3.org/1999/xlink" x="0px" y="0px"
	 width="500px" height="500px" viewBox="0 0 500 500" enable-background="new 0 0 500 500" xml:space="preserve">
<rect id="position" display="none" fill="none" stroke="#000000" width="500" height="500"/>
<g id="bounds">
	<rect x="47.186" y="251.177" fill="none" stroke="#000000" stroke-width="0.664" width="130.242" height="141.682"/>
</g>
<g id="accessory">
	<g>
		<g>
			<rect x="93.105" y="297.502" fill="#E5CFBA" width="15.196" height="56.492"/>
		</g>
		<g>
			<polygon fill="#CF1C22" points="100.704,350.412 69.257,350.412 76.315,362.464 100.704,362.464 125.091,362.464 
				132.149,350.412 			"/>
		</g>
		<g>
			<g>
				<path fill="#FFBE0D" d="M107.551,288.615c0.47-10.626-7.826-14.533-7.826-14.533c2.912,3.862-3.635,11.007-4.076,11.481
					l-0.012-0.002c-0.453,0.87-0.709,1.859-0.709,2.909c0,3.487,2.827,6.313,6.313,6.313c3.159,0,5.776-2.319,6.24-5.349l0,0
					C107.482,289.435,107.539,288.893,107.551,288.615z"/>
			</g>
			<g>
				<path fill="#FFDB0D" d="M105.854,288.669c1.165-8.083-4.877-11.696-4.877-11.696c1.932,3.171-3.611,8.134-3.984,8.462
					l-0.009-0.002c-0.412,0.632-0.683,1.367-0.762,2.169c-0.265,2.663,1.68,5.037,4.345,5.301c2.413,0.241,4.588-1.334,5.172-3.613
					l0,0C105.738,289.289,105.823,288.881,105.854,288.669z"/>
			</g>
			<g>
				<path fill="#FFF9D4" d="M104.313,288.821c1.347-5.16-2.309-7.948-2.309-7.948c1.021,2.2-2.939,5.016-3.205,5.2l-0.005-0.002
					c-0.313,0.38-0.543,0.837-0.653,1.352c-0.367,1.71,0.722,3.394,2.431,3.759c1.548,0.332,3.075-0.53,3.621-1.967l0,0
					C104.193,289.215,104.277,288.956,104.313,288.821z"/>
			</g>
		</g>
	</g>
	<g>
		<path fill="#CF1C22" d="M135.491,354.769c-3.16,0-5.73-2.57-5.73-5.729c0-3.16,2.571-5.731,5.73-5.731
			c3.159,0,5.73,2.571,5.73,5.731C141.221,352.198,138.65,354.769,135.491,354.769z M135.491,345.266
			c-2.081,0-3.773,1.693-3.773,3.773c0,2.079,1.692,3.771,3.773,3.771c2.08,0,3.772-1.691,3.772-3.771
			C139.263,346.959,137.571,345.266,135.491,345.266z"/>
	</g>
</g>
</svg>
