<?xml version="1.0" encoding="utf-8"?>
<!-- Generator: Adobe Illustrator 16.2.0, SVG Export Plug-In . SVG Version: 6.00 Build 0)  -->
<!DOCTYPE svg PUBLIC "-//W3C//DTD SVG 1.1//EN" "http://www.w3.org/Graphics/SVG/1.1/DTD/svg11.dtd">
<svg version="1.1" id="content" xmlns="http://www.w3.org/2000/svg" xmlns:xlink="http://www.w3.org/1999/xlink" x="0px" y="0px"
	 width="500px" height="500px" viewBox="0 0 500 500" enable-background="new 0 0 500 500" xml:space="preserve">
<rect id="position" display="none" fill="none" stroke="#000000" width="500" height="500"/>
<g id="bounds">
	<rect x="360.958" y="-10.694" fill="none" stroke="#000000" stroke-width="0.993" width="130.884" height="159.884"/>
</g>
<g id="accessory">
	<g>
		<g>
			<g>
				<path fill="#EC1C24" d="M432.041,33.884c25.511,0,46.189,16.684,46.189,37.263c0,20.188-17.208,37.143-41.939,37.143
					c-0.479,0-0.959-0.006-1.443-0.019c-4.263-0.112-8.521-1.033-12.322-1.136l-36.374,7.312l8.583-21.338
					c-5.58-6.159-8.881-13.747-8.881-21.961C385.854,50.568,406.531,33.884,432.041,33.884"/>
			</g>
		</g>
		<g opacity="0.5">
			<g>
				<path fill="#930F19" d="M388.268,109.187l-2.116,5.26l36.374-7.312c3.8,0.103,8.059,1.024,12.322,1.136
					c0.484,0.013,0.965,0.019,1.443,0.019c24.731,0,41.939-16.954,41.939-37.143c0-0.781-0.034-1.555-0.092-2.324
					c-1.361,19.063-18.149,34.631-41.848,34.631c-0.479,0-0.959-0.007-1.443-0.019c-4.263-0.113-8.521-1.033-12.322-1.137
					L388.268,109.187z"/>
			</g>
		</g>
		<g opacity="0.3">
			<g>
				<path fill="#FFCCD0" d="M397.174,93.108l-6.007,14.796l7.891-1.586l5.369-13.21c-5.581-6.159-8.882-13.747-8.882-21.961
					c0-19.594,18.747-35.657,42.563-37.149c-1.196-0.075-2.405-0.114-3.626-0.114c-25.511,0-46.188,16.684-46.188,37.263
					C388.293,79.361,391.594,86.949,397.174,93.108z"/>
			</g>
		</g>
		<g>
			<path fill="#FFCCD0" d="M426.732,35.491c-0.224,0.023-0.5,0.052-0.824,0.085c-0.326,0.029-0.698,0.077-1.112,0.141
				c-0.413,0.061-0.871,0.128-1.369,0.201c-0.495,0.094-1.03,0.195-1.603,0.304c-0.57,0.108-1.169,0.271-1.802,0.417
				c-0.636,0.148-1.29,0.356-1.976,0.544c-0.684,0.206-1.384,0.454-2.111,0.7c-0.358,0.138-0.723,0.278-1.092,0.42
				c-0.186,0.07-0.372,0.142-0.56,0.213c-0.187,0.076-0.371,0.161-0.559,0.241c-0.372,0.163-0.749,0.329-1.134,0.496
				c-0.378,0.177-0.754,0.371-1.139,0.559c-0.384,0.186-0.77,0.38-1.149,0.595c-0.381,0.209-0.769,0.421-1.157,0.634
				c-1.531,0.898-3.05,1.925-4.535,3.045c-1.47,1.142-2.889,2.393-4.222,3.733c-1.324,1.348-2.56,2.781-3.685,4.263
				c-1.104,1.498-2.112,3.03-2.993,4.57c-0.411,0.786-0.846,1.544-1.202,2.321c-0.184,0.386-0.374,0.764-0.547,1.145
				c-0.162,0.385-0.324,0.765-0.483,1.14c-0.167,0.373-0.308,0.749-0.44,1.121c-0.139,0.372-0.274,0.738-0.408,1.098
				c-0.235,0.73-0.479,1.432-0.676,2.118c-0.391,1.373-0.691,2.648-0.919,3.79c-0.103,0.573-0.198,1.109-0.286,1.605
				c-0.068,0.5-0.129,0.959-0.187,1.374c-0.059,0.415-0.103,0.787-0.128,1.111c-0.03,0.325-0.057,0.601-0.077,0.825
				c-0.04,0.448-0.063,0.688-0.063,0.688s-0.002-0.24-0.007-0.69c-0.001-0.226-0.004-0.503-0.008-0.831
				c0-0.164-0.001-0.34-0.002-0.527c0.01-0.188,0.02-0.387,0.029-0.597c0.021-0.421,0.046-0.888,0.071-1.396
				c0.053-0.507,0.11-1.055,0.171-1.64c0.061-0.586,0.178-1.202,0.273-1.857c0.044-0.329,0.118-0.66,0.192-0.999
				c0.072-0.34,0.146-0.688,0.222-1.043c0.161-0.708,0.371-1.437,0.57-2.196c0.121-0.373,0.243-0.753,0.368-1.139
				c0.123-0.387,0.252-0.778,0.406-1.166c0.148-0.39,0.299-0.786,0.45-1.186c0.16-0.398,0.341-0.792,0.514-1.197
				c0.088-0.2,0.177-0.403,0.266-0.606c0.092-0.202,0.195-0.398,0.295-0.599c0.202-0.4,0.404-0.805,0.609-1.212
				c0.876-1.6,1.851-3.221,2.989-4.767c1.149-1.537,2.408-3.028,3.769-4.428c1.386-1.372,2.86-2.651,4.385-3.816
				c1.536-1.152,3.143-2.149,4.733-3.042c0.405-0.209,0.808-0.417,1.205-0.623c0.199-0.101,0.396-0.208,0.597-0.303
				c0.201-0.091,0.403-0.181,0.604-0.27c0.401-0.177,0.795-0.361,1.189-0.527c0.399-0.157,0.793-0.311,1.182-0.463
				c0.194-0.075,0.385-0.154,0.58-0.224c0.194-0.065,0.388-0.132,0.579-0.196c0.385-0.128,0.763-0.255,1.135-0.38
				c0.758-0.211,1.483-0.425,2.189-0.597c0.354-0.08,0.701-0.158,1.04-0.234s0.668-0.156,0.996-0.203
				c0.654-0.103,1.269-0.226,1.854-0.295c0.584-0.067,1.131-0.13,1.637-0.188c0.509-0.031,0.976-0.061,1.397-0.087
				c0.21-0.013,0.409-0.024,0.597-0.036c0.188-0.001,0.361-0.002,0.525-0.003c0.326-0.001,0.604-0.001,0.829-0.002
				c0.448-0.001,0.69-0.002,0.69-0.002S427.179,35.446,426.732,35.491z"/>
		</g>
	</g>
	<g>
		<g opacity="0.5">
			<g>
				<path fill="#840812" d="M446.508,58.462c0-0.791-0.139-1.389-0.416-1.792c-0.097-0.141-0.206-0.261-0.327-0.362v3.636
					l0.018,0.003c0.131,0.016,0.256,0.016,0.374,0.002c0.234-0.308,0.352-0.792,0.352-1.452V58.462z"/>
			</g>
			<g>
				<polygon fill="#840812" points="438.732,60.192 439.092,60.255 438.915,59.119 				"/>
			</g>
			<g>
				<path fill="#840812" d="M453.327,59.664c0-0.791-0.139-1.388-0.417-1.792c-0.097-0.141-0.205-0.261-0.326-0.362v3.637
					l0.017,0.003c0.131,0.016,0.256,0.016,0.374,0.002c0.234-0.308,0.353-0.792,0.353-1.452V59.664z"/>
			</g>
			<g>
				<polygon fill="#840812" points="433.117,58.405 431.241,58.074 431.241,58.709 432.25,58.888 432.25,64.095 434.412,64.476 
					434.412,63.84 433.117,63.612 				"/>
			</g>
			<g>
				<polygon fill="#840812" points="429.081,51.138 428.212,50.985 428.212,63.383 430.373,63.764 430.373,63.127 429.081,62.9 				
					"/>
			</g>
			<g>
				<polygon fill="#840812" points="433.117,51.85 432.25,51.697 432.25,56.197 433.117,56.35 				"/>
			</g>
			<g>
				<polygon fill="#840812" points="440.381,62.43 438.414,62.084 438.313,62.702 439.513,62.913 439.92,65.447 442.08,65.828 
					441.96,65.171 440.787,64.964 				"/>
			</g>
			<g>
				<polygon fill="#840812" points="438.169,52.705 437.422,52.573 435.279,63.507 435.279,63.993 435.188,63.977 435.067,64.592 
					437.157,64.96 437.258,64.342 435.934,64.108 				"/>
			</g>
			<g>
				<polygon fill="#840812" points="439.406,56.219 438.915,59.119 439.092,60.255 440.062,60.426 				"/>
			</g>
			<g>
				<path fill="#840812" d="M445.782,61.949l-0.018-0.004v0.511c0.231-0.014,0.454-0.044,0.664-0.094
					c0.43-0.103,0.805-0.292,1.128-0.562c-0.084,0.029-0.172,0.057-0.262,0.08C446.842,61.988,446.337,62.011,445.782,61.949z"/>
			</g>
			<g>
				<polygon fill="#840812" points="443.604,53.699 442.736,53.545 442.736,64.186 442.948,65.346 442.736,65.308 442.736,65.943 
					444.896,66.325 444.896,65.689 443.604,65.46 				"/>
			</g>
			<g>
				<path fill="#840812" d="M445.836,55.458l-0.071-0.012v0.863c0.121,0.101,0.23,0.222,0.327,0.362
					c0.277,0.403,0.416,1,0.416,1.792v0.035c0,0.66-0.117,1.144-0.352,1.452c0.289-0.033,0.542-0.151,0.759-0.36
					c0.308-0.294,0.461-0.819,0.461-1.575v-0.036c0-0.79-0.14-1.388-0.417-1.791C446.682,55.784,446.308,55.541,445.836,55.458z"/>
			</g>
			<g>
				<polygon fill="#840812" points="450.423,54.901 449.555,54.748 449.555,67.146 451.715,67.527 451.715,66.891 450.423,66.663 
									"/>
			</g>
			<g>
				<path fill="#840812" d="M452.654,56.66l-0.07-0.012v0.862c0.121,0.102,0.229,0.222,0.326,0.362c0.278,0.403,0.417,1,0.417,1.792
					v0.035c0,0.661-0.118,1.144-0.353,1.452c0.29-0.033,0.542-0.152,0.76-0.36c0.307-0.294,0.461-0.819,0.461-1.575v-0.036
					c0-0.791-0.14-1.388-0.417-1.792C453.501,56.986,453.126,56.743,452.654,56.66z"/>
			</g>
			<g>
				<path fill="#840812" d="M452.601,63.151l-0.017-0.003v0.511c0.23-0.014,0.453-0.044,0.664-0.094
					c0.429-0.103,0.805-0.292,1.129-0.562c-0.086,0.029-0.173,0.057-0.264,0.08C453.66,63.19,453.155,63.213,452.601,63.151z"/>
			</g>
			<g>
				<polygon fill="#840812" points="458.729,63.24 456.621,55.994 455.558,55.806 457.861,63.722 457.861,68.611 460.021,68.992 
					460.021,68.356 458.729,68.128 				"/>
			</g>
			<g>
				<polygon fill="#840812" points="460.852,56.74 460.146,56.616 459.478,59.113 459.827,60.564 				"/>
			</g>
		</g>
		<g opacity="0.52">
			<g>
				<path fill="#840812" d="M415.662,73.918v-0.699c0-0.88-0.029-1.611-0.087-2.191c-0.058-0.581-0.141-1.052-0.244-1.413
					c-0.104-0.361-0.231-0.624-0.381-0.786c-0.15-0.163-0.315-0.26-0.498-0.292c-0.053-0.009-0.104-0.011-0.153-0.008
					c-0.086,0.31-0.155,0.704-0.207,1.193c-0.059,0.56-0.087,1.28-0.087,2.161v0.699c0,0.868,0.028,1.595,0.087,2.182
					c0.059,0.587,0.141,1.061,0.244,1.423c0.104,0.361,0.23,0.623,0.381,0.785c0.149,0.163,0.314,0.26,0.498,0.292
					c0.053,0.009,0.105,0.011,0.153,0.008c0.086-0.31,0.155-0.708,0.207-1.202C415.633,75.503,415.662,74.786,415.662,73.918z"/>
			</g>
			<g>
				<polygon fill="#840812" points="440.104,78.804 440.639,78.898 440.375,77.205 				"/>
			</g>
			<g>
				<polygon fill="#840812" points="403.589,64.613 402.828,64.479 402.828,78.133 405.207,78.552 405.207,77.508 403.589,77.223 
									"/>
			</g>
			<g>
				<polygon fill="#840812" points="408.035,65.397 407.274,65.262 407.274,69.875 408.035,70.01 				"/>
			</g>
			<g>
				<polygon fill="#840812" points="408.035,72.271 405.969,71.908 405.969,72.952 407.274,73.182 407.274,78.917 409.654,79.337 
					409.654,78.292 408.035,78.006 				"/>
			</g>
			<g>
				<path fill="#840812" d="M416.091,68.705c-0.104-0.361-0.229-0.624-0.38-0.786c-0.15-0.163-0.315-0.26-0.498-0.292
					s-0.349,0.007-0.498,0.116c-0.15,0.109-0.277,0.327-0.381,0.651c-0.013,0.041-0.025,0.09-0.037,0.134
					c0.05-0.002,0.103-0.001,0.154,0.008c0.182,0.032,0.348,0.129,0.497,0.292c0.15,0.162,0.276,0.424,0.382,0.786
					c0.104,0.361,0.186,0.832,0.244,1.413c0.059,0.58,0.087,1.311,0.087,2.191v0.699c0,0.868-0.03,1.585-0.087,2.151
					c-0.053,0.495-0.122,0.893-0.207,1.202c0.122-0.006,0.236-0.046,0.343-0.124c0.149-0.109,0.275-0.327,0.38-0.651
					c0.105-0.325,0.186-0.771,0.245-1.337c0.058-0.566,0.087-1.283,0.087-2.15v-0.699c0-0.881-0.029-1.611-0.087-2.191
					C416.276,69.538,416.195,69.067,416.091,68.705z"/>
			</g>
			<g>
				<path fill="#840812" d="M415.215,79.468c-0.547-0.097-1.042-0.32-1.483-0.671c-0.442-0.352-0.823-0.832-1.142-1.44
					c-0.318-0.608-0.564-1.345-0.741-2.208c-0.175-0.863-0.263-1.86-0.263-2.992v-0.702c0-1.131,0.088-2.097,0.263-2.899
					c0.158-0.719,0.373-1.313,0.646-1.787c-0.244,0.192-0.467,0.442-0.664,0.75c-0.319,0.496-0.566,1.145-0.742,1.946
					c-0.175,0.802-0.263,1.768-0.263,2.899v0.703c0,1.131,0.087,2.128,0.263,2.991c0.176,0.863,0.423,1.599,0.742,2.209
					c0.318,0.608,0.699,1.088,1.141,1.44c0.442,0.35,0.937,0.575,1.482,0.67c0.547,0.097,1.04,0.047,1.482-0.148
					c0.442-0.195,0.822-0.541,1.141-1.037c0.034-0.051,0.064-0.105,0.097-0.161c-0.149,0.117-0.309,0.213-0.477,0.288
					C416.254,79.515,415.761,79.563,415.215,79.468z"/>
			</g>
			<g>
				<polygon fill="#840812" points="420.013,67.509 419.252,67.374 419.252,81.028 424.147,81.892 424.147,80.848 420.013,80.119 
									"/>
			</g>
			<g>
				<polygon fill="#840812" points="425.904,68.547 425.143,68.413 425.143,82.067 427.522,82.486 427.522,81.443 425.904,81.157 
									"/>
			</g>
			<g>
				<path fill="#840812" d="M431.95,82.224l-2.223-0.392v-12.61l-0.761-0.134v13.655l2.223,0.392
					c1.535,0.27,2.715-0.068,3.541-1.014c0.143-0.163,0.271-0.347,0.388-0.547C434.323,82.238,433.268,82.456,431.95,82.224z"/>
			</g>
			<g>
				<path fill="#840812" d="M433.686,71.993c-0.195-0.372-0.418-0.648-0.672-0.828c-0.254-0.181-0.524-0.296-0.811-0.347
					l-0.098-0.017v1.181c0.05,0.03,0.099,0.059,0.147,0.093c0.253,0.181,0.478,0.457,0.673,0.827
					c0.194,0.372,0.348,0.85,0.458,1.431c0.11,0.583,0.166,1.302,0.166,2.156v0.466c0,0.854-0.056,1.554-0.166,2.098
					c-0.072,0.353-0.163,0.65-0.271,0.902c0.212-0.104,0.405-0.281,0.572-0.543c0.196-0.302,0.349-0.725,0.459-1.269
					c0.11-0.544,0.166-1.244,0.166-2.097V75.58c0-0.855-0.056-1.573-0.166-2.157C434.034,72.84,433.882,72.363,433.686,71.993z"/>
			</g>
			<g>
				<polygon fill="#840812" points="439.418,70.891 438.855,70.792 436.26,84.028 438.562,84.434 438.729,83.419 437.021,83.118 
									"/>
			</g>
			<g>
				<polygon fill="#840812" points="441.918,81.27 439.752,80.888 439.587,81.903 441.156,82.18 441.605,84.97 443.985,85.39 
					443.788,84.311 442.366,84.061 				"/>
			</g>
			<g>
				<polygon fill="#840812" points="440.845,74.429 440.375,77.205 440.639,78.898 441.566,79.062 				"/>
			</g>
			<g>
				<polygon fill="#840812" points="446.521,79.409 444.306,71.792 443.225,71.602 445.761,80.319 445.761,85.703 448.141,86.123 
					448.141,85.079 446.521,84.793 				"/>
			</g>
			<g>
				<polygon fill="#840812" points="448.771,72.58 448.277,72.492 447.486,75.447 447.73,76.462 				"/>
			</g>
			<g>
				<path fill="#840812" d="M455.26,74.864c-0.338-0.06-0.627-0.01-0.868,0.149c-0.229,0.152-0.345,0.405-0.355,0.753
					c0.142-0.023,0.297-0.021,0.463,0.007c0.312,0.055,0.597,0.154,0.858,0.298c0.26,0.143,0.579,0.359,0.956,0.646v-1.441
					c-0.068-0.042-0.134-0.081-0.196-0.115C455.857,75.018,455.571,74.919,455.26,74.864z"/>
			</g>
			<g>
				<path fill="#840812" d="M455.26,82.979V82.94c0-0.156-0.015-0.312-0.049-0.467c-0.032-0.155-0.098-0.329-0.195-0.522
					s-0.23-0.418-0.399-0.675c-0.169-0.257-0.397-0.574-0.684-0.949c-0.403-0.526-0.748-0.994-1.034-1.402
					c-0.286-0.407-0.523-0.794-0.713-1.159c-0.188-0.365-0.324-0.721-0.408-1.067c-0.084-0.347-0.127-0.728-0.127-1.145v-0.039
					c0-0.546,0.084-1.025,0.253-1.438c0.032-0.077,0.068-0.149,0.104-0.221c-0.059,0.042-0.117,0.084-0.172,0.132
					c-0.293,0.253-0.523,0.587-0.693,1c-0.169,0.413-0.252,0.892-0.252,1.438v0.039c0,0.417,0.041,0.797,0.127,1.144
					c0.084,0.347,0.221,0.702,0.409,1.067c0.188,0.365,0.426,0.751,0.711,1.16c0.286,0.408,0.631,0.875,1.035,1.401
					c0.286,0.375,0.513,0.692,0.683,0.95c0.169,0.257,0.303,0.482,0.4,0.675c0.097,0.192,0.162,0.367,0.195,0.522
					c0.033,0.156,0.049,0.312,0.049,0.467v0.039c0,0.016-0.001,0.031-0.002,0.046c0.135-0.022,0.265-0.062,0.383-0.126
					C455.133,83.672,455.26,83.395,455.26,82.979z"/>
			</g>
			<g>
				<path fill="#840812" d="M454.265,86.256c-0.468-0.082-0.903-0.211-1.308-0.387c-0.403-0.175-0.773-0.377-1.11-0.605v-1.029
					c-0.241-0.153-0.493-0.331-0.761-0.538v2.478c0.338,0.229,0.708,0.431,1.111,0.605c0.402,0.175,0.839,0.304,1.307,0.386
					c0.469,0.083,0.907,0.076,1.317-0.021c0.408-0.097,0.767-0.274,1.072-0.532c0.255-0.216,0.462-0.488,0.627-0.81
					c-0.275,0.202-0.588,0.349-0.939,0.432C455.172,86.331,454.733,86.339,454.265,86.256z"/>
			</g>
			<g>
				<polygon fill="#840812" points="458.597,74.312 457.775,74.167 457.775,74.558 458.596,83.713 459.766,83.92 459.86,82.893 
					459.355,82.804 				"/>
			</g>
			<g>
				<polygon fill="#840812" points="458.596,85.254 457.835,85.121 457.835,87.832 460.526,88.307 460.526,87.262 458.596,86.922 
									"/>
			</g>
		</g>
		<g>
			<path fill="#FFFFFF" d="M465.422,92.284l-64.469-11.368V59.153l64.469,11.368V92.284L465.422,92.284z M401.386,80.553
				l63.604,11.214V70.884l-63.604-11.214V80.553z"/>
		</g>
		<g>
			<path fill="#FFFFFF" d="M427.369,64.251l-26.237-4.627l0.036-0.43h26.201V64.251L427.369,64.251z M403.645,59.627l23.291,4.106
				v-4.106H403.645z"/>
		</g>
		<g>
			<path fill="#FFFFFF" d="M465.411,92.243h-26.199v-5.056l26.236,4.626L465.411,92.243z M439.645,91.81h23.29l-23.29-4.106V91.81z"
				/>
		</g>
		<g>
			<path fill="#FFFFFF" d="M429.999,50.551l2.161,0.381v5.136l1.878,0.331v-5.136l2.16,0.381v12.397l-2.16-0.381v-5.207
				l-1.878-0.331v5.208l-2.161-0.381V50.551z"/>
			<path fill="#FFFFFF" d="M439.209,52.139l2.303,0.407l2.356,12.849l-2.161-0.381L441.3,62.48l-1.965-0.347l-0.39,2.393
				l-2.09-0.368L439.209,52.139z M440.98,60.475l-0.656-4.207l-0.673,3.973L440.98,60.475z"/>
			<path fill="#FFFFFF" d="M444.522,53.112l1.931,0.34c0.59,0.104,1.13,0.282,1.621,0.534c0.489,0.252,0.912,0.577,1.266,0.976
				c0.354,0.399,0.629,0.879,0.824,1.439c0.195,0.559,0.292,1.206,0.292,1.938v0.035c0,0.697-0.092,1.289-0.274,1.776
				c-0.184,0.487-0.443,0.879-0.779,1.173c-0.338,0.294-0.733,0.497-1.187,0.605c-0.455,0.109-0.96,0.132-1.515,0.07l-0.017-0.003
				v3.896l-2.161-0.381L444.522,53.112L444.522,53.112z M446.701,59.997c0.449,0.055,0.826-0.064,1.133-0.359
				c0.308-0.294,0.461-0.819,0.461-1.574v-0.036c0-0.791-0.139-1.388-0.416-1.791c-0.277-0.403-0.652-0.646-1.125-0.729l-0.07-0.013
				v4.5L446.701,59.997z"/>
			<path fill="#FFFFFF" d="M451.342,54.314l1.93,0.34c0.591,0.104,1.131,0.282,1.621,0.534c0.49,0.252,0.912,0.577,1.267,0.976
				c0.354,0.398,0.629,0.878,0.824,1.438c0.194,0.56,0.292,1.206,0.292,1.938v0.035c0,0.697-0.092,1.289-0.275,1.776
				c-0.183,0.487-0.442,0.879-0.779,1.173c-0.337,0.295-0.733,0.497-1.187,0.605c-0.455,0.109-0.96,0.132-1.515,0.07l-0.018-0.003
				v3.896l-2.16-0.381V54.314z M453.52,61.199c0.449,0.055,0.826-0.064,1.133-0.358c0.309-0.294,0.46-0.819,0.46-1.574V59.23
				c0-0.791-0.139-1.388-0.416-1.791c-0.277-0.404-0.652-0.646-1.124-0.729l-0.071-0.013v4.5L453.52,61.199z"/>
			<path fill="#FFFFFF" d="M459.647,63.289l-2.303-7.916l2.232,0.393l1.169,4.847l1.187-4.431l2.179,0.384l-2.303,7.104v4.888
				l-2.161-0.381V63.289z"/>
		</g>
		<g>
			<g>
				<path fill="#FFFFFF" d="M404.446,63.194l2.38,0.42v5.657l2.067,0.365v-5.657l2.38,0.419v13.655l-2.38-0.42v-5.734l-2.067-0.365
					v5.735l-2.38-0.419V63.194z"/>
			</g>
			<g>
				<path fill="#FFFFFF" d="M414.59,78.422c-0.442-0.351-0.823-0.831-1.142-1.44c-0.318-0.608-0.566-1.344-0.741-2.208
					c-0.175-0.863-0.265-1.86-0.265-2.991v-0.702c0-1.131,0.089-2.098,0.265-2.899c0.176-0.801,0.423-1.45,0.741-1.946
					c0.318-0.498,0.699-0.842,1.142-1.038c0.441-0.195,0.936-0.244,1.481-0.148c0.546,0.097,1.04,0.321,1.483,0.671
					c0.441,0.351,0.821,0.831,1.141,1.44c0.317,0.609,0.566,1.345,0.74,2.208c0.176,0.864,0.265,1.86,0.265,2.992v0.703
					c0,1.131-0.088,2.098-0.265,2.899c-0.175,0.801-0.423,1.45-0.74,1.947c-0.319,0.496-0.699,0.841-1.141,1.037
					c-0.443,0.195-0.938,0.244-1.483,0.148S415.031,78.773,414.59,78.422z M416.569,76.773c0.149-0.109,0.276-0.327,0.381-0.651
					c0.104-0.325,0.186-0.771,0.244-1.337c0.058-0.565,0.089-1.283,0.089-2.151v-0.699c0-0.88-0.031-1.611-0.089-2.191
					c-0.058-0.581-0.14-1.052-0.244-1.413c-0.104-0.361-0.231-0.624-0.381-0.786c-0.15-0.162-0.315-0.259-0.497-0.292
					c-0.184-0.032-0.349,0.007-0.498,0.116c-0.15,0.109-0.276,0.327-0.381,0.651c-0.105,0.325-0.187,0.768-0.245,1.327
					c-0.058,0.56-0.089,1.279-0.089,2.161v0.699c0,0.868,0.031,1.596,0.089,2.182c0.059,0.586,0.14,1.061,0.245,1.422
					c0.104,0.361,0.23,0.624,0.381,0.786c0.149,0.163,0.314,0.259,0.498,0.292C416.254,76.921,416.419,76.882,416.569,76.773z"/>
			</g>
			<g>
				<path fill="#FFFFFF" d="M420.87,66.09l2.38,0.42v11.391l2.517,0.444v2.263l-4.896-0.863V66.09z"/>
			</g>
			<g>
				<path fill="#FFFFFF" d="M426.761,67.128l2.381,0.42v13.654l-2.381-0.419V67.128z"/>
			</g>
			<g>
				<path fill="#FFFFFF" d="M430.584,67.803l2.223,0.392c1.534,0.27,2.715,1.025,3.542,2.263c0.825,1.238,1.238,2.962,1.238,5.173
					v0.468c0,2.21-0.413,3.79-1.238,4.735c-0.826,0.947-2.008,1.285-3.542,1.014l-2.223-0.392V67.803z M433.062,79.69
					c0.286,0.051,0.556,0.031,0.81-0.061c0.254-0.091,0.478-0.288,0.674-0.59c0.194-0.302,0.347-0.725,0.457-1.269
					c0.109-0.544,0.167-1.244,0.167-2.098v-0.467c0-0.854-0.058-1.573-0.167-2.156c-0.11-0.582-0.264-1.06-0.457-1.431
					c-0.196-0.372-0.42-0.647-0.674-0.828c-0.254-0.181-0.523-0.296-0.81-0.347l-0.097-0.017v9.247L433.062,79.69z"/>
			</g>
			<g>
				<path fill="#FFFFFF" d="M440.475,69.508l2.535,0.447l2.594,14.151l-2.38-0.419l-0.448-2.791l-2.165-0.382l-0.431,2.636
					l-2.302-0.406L440.475,69.508z M442.425,78.688l-0.722-4.633l-0.741,4.375L442.425,78.688z"/>
			</g>
			<g>
				<path fill="#FFFFFF" d="M447.379,79.036l-2.535-8.718l2.457,0.434l1.288,5.337l1.307-4.88l2.399,0.423l-2.536,7.824v5.384
					l-2.38-0.419V79.036L447.379,79.036z"/>
			</g>
			<g>
				<path fill="#FFFFFF" d="M453.816,85.495c-0.403-0.175-0.773-0.377-1.111-0.605v-2.478c0.416,0.32,0.797,0.576,1.142,0.767
					c0.343,0.191,0.68,0.314,1.005,0.373c0.337,0.059,0.633,0.021,0.887-0.117c0.254-0.137,0.381-0.414,0.381-0.83v-0.039
					c0-0.156-0.016-0.312-0.049-0.467c-0.032-0.154-0.098-0.329-0.195-0.522c-0.098-0.192-0.23-0.418-0.4-0.675
					c-0.17-0.257-0.396-0.574-0.684-0.95c-0.403-0.526-0.748-0.993-1.033-1.401c-0.286-0.408-0.523-0.794-0.713-1.16
					c-0.188-0.364-0.324-0.72-0.408-1.066c-0.085-0.346-0.127-0.728-0.127-1.144v-0.04c0-0.546,0.084-1.025,0.253-1.438
					c0.169-0.412,0.399-0.745,0.692-1c0.292-0.254,0.645-0.43,1.054-0.526s0.85-0.104,1.316-0.021
					c0.479,0.085,0.878,0.191,1.189,0.317c0.313,0.127,0.616,0.288,0.917,0.484v2.477c-0.377-0.288-0.695-0.503-0.956-0.646
					c-0.26-0.144-0.546-0.242-0.857-0.297c-0.337-0.06-0.628-0.01-0.868,0.149s-0.36,0.428-0.36,0.804v0.039
					c0,0.157,0.015,0.303,0.049,0.438c0.032,0.136,0.097,0.288,0.194,0.454c0.098,0.167,0.231,0.37,0.4,0.607
					c0.17,0.238,0.396,0.544,0.684,0.919c0.469,0.629,0.851,1.168,1.15,1.617c0.3,0.45,0.53,0.858,0.693,1.225
					c0.162,0.367,0.275,0.716,0.341,1.045c0.063,0.331,0.098,0.69,0.098,1.081v0.04c0,0.533-0.088,1.006-0.263,1.416
					c-0.176,0.412-0.416,0.746-0.724,1.004c-0.306,0.258-0.663,0.435-1.072,0.532c-0.409,0.097-0.849,0.104-1.315,0.021
					C454.654,85.799,454.219,85.67,453.816,85.495z"/>
			</g>
			<g>
				<path fill="#FFFFFF" d="M459.395,73.273v-0.39l2.81,0.495v0.391l-0.819,8.867l-1.171-0.207L459.395,73.273z M459.454,83.836
					l2.69,0.475v2.711l-2.69-0.475V83.836z"/>
			</g>
		</g>
	</g>
</g>
</svg>
