<?xml version="1.0" encoding="utf-8"?>
<!-- Generator: Adobe Illustrator 16.2.0, SVG Export Plug-In . SVG Version: 6.00 Build 0)  -->
<!DOCTYPE svg PUBLIC "-//W3C//DTD SVG 1.1//EN" "http://www.w3.org/Graphics/SVG/1.1/DTD/svg11.dtd">
<svg version="1.1" id="Layer_1" xmlns="http://www.w3.org/2000/svg" xmlns:xlink="http://www.w3.org/1999/xlink" x="0px" y="0px"
	 width="500px" height="500px" viewBox="0 0 500 500" enable-background="new 0 0 500 500" xml:space="preserve">
<rect x="0.5" y="0.5" display="none" fill="#FFFFFF" stroke="#000000" width="500.001" height="500"/>
<g id="bounds">
	<rect x="160" y="-10" fill="none" stroke="#000000" stroke-width="0.993" width="180" height="159.884"/>
</g>
<g id="accessory">
	<g>
		<g id="accessory_2_">
			<g>
				<path fill="#EC1C24" d="M171.582,92.805c-0.594-6.293,8.605-11.042,22.846-11.623c14.305-1.001,33.652,2.166,54.844,1.971
					c21.187,0.193,40.542-2.958,54.846-1.936c14.238,0.602,23.424,5.376,22.823,11.667c-1.571,12.521-35.917,22.223-77.68,22.227
					C207.495,115.063,173.142,105.324,171.582,92.805z"/>
			</g>
			<g>
				<g>
					<path fill="#FF7B8B" d="M171.582,92.805c0,0,0-0.327,0-0.958c-0.018-0.319,0.117-0.699,0.189-1.158
						c0.027-0.235,0.167-0.456,0.256-0.71c0.109-0.247,0.188-0.531,0.371-0.778c1.168-2.2,4.275-4.401,8.605-5.841
						c4.344-1.476,9.913-2.208,16.275-2.339c6.367-0.245,13.562,0.178,21.377,0.671c7.823,0.495,16.299,1.053,25.271,1.142
						c4.479,0.04,9.096-0.014,13.808-0.124c2.354-0.104,4.729-0.21,7.127-0.316c2.399-0.155,4.818-0.31,7.261-0.465
						c9.769-0.648,19.868-1.728,30.227-1.324c5.115,0.144,10.433,0.646,15.459,2.315c2.506,0.843,4.982,1.992,7.03,3.837
						c0.994,0.933,1.93,2.046,2.371,3.429c0.16,0.324,0.172,0.698,0.26,1.045c0.097,0.352,0.097,0.709,0.092,1.071v0.542
						c-0.009,0.073,0.016,0.025-0.02,0.199l-0.024,0.12l-0.052,0.239c-0.076,0.323-0.096,0.625-0.23,0.971
						c-0.912,2.79-2.897,4.752-4.986,6.406c-2.119,1.641-4.442,2.933-6.824,4.056c-4.766,2.234-9.757,3.806-14.753,5.113
						c-10.021,2.556-20.11,3.936-29.892,4.706c-9.785,0.762-19.277,0.941-28.265,0.641c-8.985-0.297-17.466-1.005-25.233-2.106
						c-15.512-2.171-28.295-5.692-36.328-10.139c-2-1.105-3.714-2.237-5.061-3.4c-1.346-1.165-2.334-2.325-3.003-3.35
						c-0.628-1.053-0.966-1.939-1.115-2.553C171.648,93.123,171.582,92.805,171.582,92.805z M171.582,92.805
						c0,0,0.068,0.318,0.195,0.94c0.153,0.612,0.494,1.495,1.127,2.542c0.67,1.023,1.662,2.176,3.012,3.333
						c1.347,1.153,3.064,2.277,5.065,3.372c8.044,4.382,20.819,7.919,36.338,9.92c7.767,1.013,16.24,1.625,25.207,1.821
						c8.97,0.2,18.438-0.083,28.177-0.949c9.736-0.891,19.763-2.361,29.688-4.913c4.941-1.315,9.873-2.896,14.529-5.102
						c2.318-1.107,4.578-2.377,6.581-3.948c1.008-0.777,1.93-1.648,2.733-2.606c0.759-0.959,1.47-2.055,1.794-3.138
						c0.114-0.263,0.147-0.623,0.227-0.93l0.051-0.239l0.023-0.12c-0.01,0.091-0.006-0.039-0.008-0.047v-0.438
						c0.008-0.293,0.015-0.59-0.069-0.871c-0.076-0.283-0.072-0.586-0.207-0.853c-0.345-1.133-1.149-2.099-2.032-2.941
						c-1.836-1.667-4.181-2.795-6.592-3.609c-2.415-0.826-4.941-1.356-7.474-1.711c-2.518-0.354-5.104-0.539-7.667-0.612
						c-1.274-0.047-2.552-0.095-3.822-0.143c-1.274,0.018-2.549,0.035-3.816,0.054c-2.538-0.005-5.066,0.195-7.583,0.281
						c-5.028,0.3-10,0.596-14.889,0.889c-2.447,0.129-4.872,0.256-7.274,0.385c-2.411,0.08-4.796,0.16-7.161,0.238
						c-4.715,0.058-9.323,0.06-13.823-0.028c-8.988-0.188-17.465-0.841-25.279-1.422c-7.813-0.601-14.988-1.016-21.354-0.809
						c-6.362,0.104-11.917,0.809-16.261,2.267c-4.326,1.418-7.436,3.603-8.612,5.788c-0.182,0.251-0.264,0.533-0.375,0.777
						c-0.09,0.253-0.229,0.474-0.256,0.708c-0.076,0.459-0.21,0.839-0.195,1.158C171.583,92.478,171.582,92.805,171.582,92.805z"/>
				</g>
			</g>
			<g>
				<path fill="#EC1C24" d="M248.953,10.222c-28.099-0.014-45.396,5.044-45.396,5.044l2.458,79.12
					c11.49,8.081,42.904,3.696,42.904,3.696s31.407,3.638,42.91-4.433l2.507-78.357C294.335,15.288,277.051,10.232,248.953,10.222z"
					/>
			</g>
			<g>
				<path fill="#F43847" d="M294.335,15.417c0.007-4.217-21.533-7.643-45.032-7.654c-23.504-0.009-45.736,3.401-45.736,7.621
					c-0.002,4.216,22.229,7.642,45.732,7.652C272.798,23.045,294.333,19.635,294.335,15.417z"/>
			</g>
			<g>
				<path fill="#FFFFFF" d="M206.015,94.386l0.005-10.92c-0.004,4.215,19.738,7.642,43.248,7.654
					c23.502,0.009,42.553-3.4,42.556-7.621l-0.008,11.151c-0.003,4.216-19.064,7.629-42.558,7.619
					c-23.508-0.01-43.25-3.437-43.247-7.654"/>
			</g>
		</g>
		<g>
			<g opacity="0.5">
				<g>
					<path fill="#840812" d="M222.596,47.448c-1.715,0.824-3.448,2.288-4.088,2.853c-0.077,0.082-0.152,0.158-0.244,0.222
						c-0.006,0.005-0.026,0.023-0.026,0.023l-0.003-0.01c-0.32,0.204-0.698,0.321-1.106,0.266c-0.345-0.047-0.651-0.202-0.89-0.424
						c0.254,0.341,0.637,0.585,1.093,0.646c0.405,0.055,0.785-0.057,1.104-0.263l0.002,0.008c0,0,0.022-0.018,0.025-0.022
						c0.094-0.062,0.17-0.139,0.248-0.221c0.673-0.599,2.586-2.222,4.396-3.004C223.107,47.522,222.914,47.489,222.596,47.448z"/>
				</g>
				<g>
					<path fill="#840812" d="M219.575,45.813c-0.005,0-0.02,0.006-0.02,0.006v-0.004c-0.186,0.043-0.389,0.031-0.572-0.066
						c-0.044-0.022-0.073-0.059-0.112-0.09c0.078,0.126,0.176,0.24,0.314,0.314c0.182,0.097,0.387,0.106,0.572,0.064v0.004
						c0,0,0.014-0.004,0.018-0.007c0.057-0.014,0.105-0.039,0.156-0.062c0.426-0.168,1.615-0.611,2.619-0.672
						c0,0-0.154-0.085-0.392-0.202c-0.96,0.099-2.032,0.492-2.431,0.65C219.678,45.774,219.629,45.798,219.575,45.813z"/>
				</g>
				<g>
					<path fill="#840812" d="M223.09,48.583c-0.236,0.839-0.32,1.771-0.341,2.15c0,0.056,0.002,0.11-0.011,0.166
						c0,0.005-0.002,0.018-0.002,0.018l-0.003-0.002c-0.043,0.188-0.14,0.364-0.304,0.491c-0.311,0.233-0.72,0.208-1.012-0.023
						c0.018,0.026,0.025,0.056,0.047,0.082c0.275,0.366,0.799,0.44,1.166,0.164c0.17-0.125,0.264-0.304,0.306-0.491l0.005,0.002
						c0,0,0.002-0.013,0.002-0.018c0.011-0.055,0.008-0.111,0.008-0.167c0.027-0.458,0.139-1.724,0.512-2.654
						C223.463,48.3,223.311,48.405,223.09,48.583z"/>
				</g>
			</g>
			<g>
				<g>
					<path fill="#FFFFFF" d="M216.695,47.317l0.004,0.006c-0.634,0.16-1.142,0.683-1.232,1.37c-0.121,0.903,0.51,1.729,1.408,1.852
						c0.406,0.055,0.788-0.058,1.105-0.263l0.006,0.008c0,0,0.021-0.018,0.021-0.022c0.094-0.061,0.172-0.14,0.248-0.218
						c0.674-0.6,2.588-2.22,4.4-3.004C222.65,47.042,218.693,46.368,216.695,47.317z"/>
				</g>
				<g>
					<path fill="#FFFFFF" d="M219.201,43.923L219.201,43.923c-0.332-0.033-0.663,0.13-0.826,0.441
						c-0.213,0.41-0.056,0.914,0.354,1.126c0.182,0.098,0.387,0.109,0.571,0.065v0.005c0,0,0.015-0.005,0.019-0.006
						c0.055-0.014,0.105-0.037,0.156-0.062c0.426-0.169,1.616-0.612,2.617-0.671C222.091,44.822,220.32,43.816,219.201,43.923z"/>
				</g>
				<g>
					<path fill="#FFFFFF" d="M220.953,50.049l0.004,0.001c-0.17,0.285-0.166,0.651,0.048,0.933c0.279,0.367,0.803,0.441,1.166,0.164
						c0.168-0.125,0.264-0.303,0.306-0.49l0.004,0.001c0,0,0.002-0.013,0.002-0.018c0.01-0.054,0.008-0.109,0.008-0.166
						c0.03-0.458,0.14-1.724,0.511-2.653C223.003,47.823,221.338,48.996,220.953,50.049z"/>
				</g>
			</g>
		</g>
		<g>
			<g opacity="0.5">
				<g>
					<path fill="#840812" d="M273.9,47.448c1.715,0.824,3.453,2.288,4.09,2.853c0.076,0.082,0.154,0.158,0.244,0.222
						c0.007,0.005,0.026,0.023,0.026,0.023l0.002-0.01c0.319,0.204,0.701,0.321,1.107,0.266c0.345-0.047,0.652-0.202,0.89-0.424
						c-0.255,0.341-0.642,0.585-1.094,0.646c-0.404,0.055-0.784-0.057-1.104-0.263l-0.005,0.008c0,0-0.02-0.018-0.022-0.022
						c-0.094-0.062-0.17-0.139-0.247-0.221c-0.676-0.599-2.587-2.222-4.399-3.004C273.388,47.522,273.586,47.489,273.9,47.448z"/>
				</g>
				<g>
					<path fill="#840812" d="M276.928,45.813c0.002,0,0.018,0.006,0.018,0.006v-0.004c0.18,0.043,0.385,0.031,0.571-0.066
						c0.042-0.022,0.072-0.059,0.109-0.09c-0.076,0.126-0.175,0.24-0.312,0.314c-0.185,0.097-0.387,0.106-0.571,0.064v0.004
						c0,0-0.017-0.004-0.021-0.007c-0.053-0.014-0.103-0.039-0.153-0.062c-0.424-0.168-1.617-0.611-2.615-0.672
						c0,0,0.152-0.085,0.388-0.202c0.96,0.099,2.029,0.492,2.428,0.65C276.822,45.774,276.869,45.798,276.928,45.813z"/>
				</g>
				<g>
					<path fill="#840812" d="M273.408,48.583c0.235,0.839,0.322,1.771,0.34,2.15c0,0.056,0,0.11,0.01,0.166
						c0,0.005,0.004,0.018,0.004,0.018l0.006-0.002c0.042,0.188,0.135,0.364,0.303,0.491c0.308,0.233,0.717,0.208,1.009-0.023
						c-0.016,0.026-0.026,0.056-0.042,0.082c-0.279,0.366-0.802,0.44-1.168,0.164c-0.167-0.125-0.263-0.304-0.303-0.491
						l-0.007,0.002c0,0-0.002-0.013-0.002-0.018c-0.012-0.055-0.01-0.111-0.01-0.167c-0.025-0.458-0.135-1.724-0.511-2.654
						C273.035,48.3,273.187,48.405,273.408,48.583z"/>
				</g>
			</g>
			<g>
				<g>
					<path fill="#FFFFFF" d="M279.803,47.317l-0.005,0.006c0.635,0.16,1.14,0.683,1.235,1.37c0.119,0.903-0.513,1.729-1.412,1.852
						c-0.405,0.055-0.785-0.058-1.107-0.263l-0.002,0.008c0,0-0.019-0.018-0.025-0.022c-0.089-0.061-0.17-0.14-0.245-0.218
						c-0.674-0.6-2.587-2.22-4.396-3.004C273.847,47.042,277.806,46.368,279.803,47.317z"/>
				</g>
				<g>
					<path fill="#FFFFFF" d="M277.295,43.923L277.295,43.923c0.331-0.033,0.663,0.13,0.825,0.441
						c0.217,0.41,0.056,0.914-0.354,1.126c-0.18,0.098-0.388,0.109-0.568,0.065v0.005c0,0-0.013-0.005-0.02-0.006
						c-0.056-0.014-0.105-0.037-0.156-0.062c-0.426-0.169-1.616-0.612-2.617-0.671C274.407,44.822,276.177,43.816,277.295,43.923z"
						/>
				</g>
				<g>
					<path fill="#FFFFFF" d="M275.54,50.049l-0.002,0.001c0.173,0.285,0.171,0.651-0.046,0.933
						c-0.277,0.367-0.805,0.441-1.168,0.164c-0.165-0.125-0.264-0.303-0.304-0.49l-0.004,0.001c0,0-0.003-0.013-0.003-0.018
						c-0.011-0.054-0.009-0.109-0.009-0.166c-0.028-0.458-0.14-1.724-0.511-2.653C273.494,47.823,275.16,48.996,275.54,50.049z"/>
				</g>
			</g>
		</g>
		<g>
			<g opacity="0.5">
				<g>
					<polygon fill="#840812" points="239.496,57.144 239.496,53.469 238.462,53.469 238.462,55.86 					"/>
				</g>
				<g>
					<polygon fill="#840812" points="236.689,59.235 238.748,61.792 239.783,61.792 236.689,57.949 					"/>
				</g>
				<g>
					<rect x="232.897" y="53.469" fill="#840812" width="1.033" height="8.322"/>
				</g>
			</g>
			<g opacity="0.5" enable-background="new    ">
				<rect x="242.166" y="53.469" fill="#840812" width="1.139" height="8.322"/>
			</g>
			<g opacity="0.5">
				<g>
					<polygon fill="#840812" points="254.772,57.389 256.114,53.371 255.183,53.371 254.333,55.908 					"/>
				</g>
				<g>
					<polygon fill="#840812" points="259.857,57.389 261.034,53.396 260.103,53.396 259.363,55.908 					"/>
				</g>
				<g>
					<polygon fill="#840812" points="249.748,53.396 252.471,61.776 253.403,61.776 250.68,53.396 					"/>
				</g>
				<g>
					<polygon fill="#840812" points="256.825,58.956 257.821,61.776 258.753,61.776 257.289,57.639 					"/>
				</g>
			</g>
			<g>
				<g>
					<path fill="#FFFFFF" d="M234.409,53.45h2.604l2.963,3.673V53.45h2.76v8.322h-2.471l-3.092-3.84v3.84h-2.76L234.409,53.45
						L234.409,53.45z"/>
				</g>
				<g>
					<path fill="#FFFFFF" d="M243.689,53.45h7.094v2.283h-4.363v0.844h4.068v2.011h-4.068v0.9h4.426v2.284h-7.158L243.689,53.45
						L243.689,53.45z"/>
				</g>
				<g>
					<path fill="#FFFFFF" d="M251.121,53.45h2.912l1.177,3.995l1.341-4.019h2.405l1.347,4.019l1.175-3.995h2.863l-2.719,8.38h-2.427
						l-1.462-4.136l-1.463,4.136h-2.427L251.121,53.45z"/>
				</g>
			</g>
		</g>
		<g>
			<g opacity="0.5">
				<g>
					<polygon fill="#840812" points="232.386,43.27 230.714,44.398 230.858,44.614 231.854,43.947 234.98,48.599 236.912,47.299 
						236.767,47.082 235.516,47.923 					"/>
				</g>
				<g>
					
						<rect x="228.938" y="36.86" transform="matrix(0.8295 -0.5585 0.5585 0.8295 17.0491 134.8334)" fill="#840812" width="0.822" height="5.268"/>
				</g>
				<g>
					<polygon fill="#840812" points="224.609,39.489 223.928,39.946 231.373,51.023 233.303,49.723 233.16,49.507 231.909,50.345 
											"/>
				</g>
				<g>
					<polygon fill="#840812" points="240.852,40.585 241.597,40.397 239.824,36.3 240.031,38.689 					"/>
				</g>
				<g>
					<polygon fill="#840812" points="237.654,33.028 237.086,33.17 237.924,46.767 240.1,46.212 240.054,45.687 238.457,46.092 
											"/>
				</g>
				<g>
					<polygon fill="#840812" points="242.442,42.345 240.389,42.865 240.438,43.393 241.908,43.021 242.985,45.481 245.238,44.909 
						245.014,44.425 243.518,44.807 					"/>
				</g>
				<g>
					<polygon fill="#840812" points="247.883,31.668 247.4,31.629 246.387,44.937 248.706,45.113 248.76,44.401 246.924,44.26 					
						"/>
				</g>
				<g>
					<path fill="#840812" d="M252.573,39.243c-0.39,0.354-0.837,0.612-1.342,0.777c-0.505,0.166-1.056,0.246-1.653,0.237
						l-0.02-0.001l-0.051,0.648c0.418-0.028,0.819-0.088,1.187-0.208c0.503-0.165,0.953-0.425,1.34-0.776
						c0.242-0.222,0.445-0.492,0.632-0.784C252.636,39.167,252.611,39.211,252.573,39.243z"/>
				</g>
				<g>
					<path fill="#840812" d="M251.106,36.5l-0.007,0.039c-0.033,0.476-0.129,0.861-0.268,1.179c0.055-0.043,0.123-0.063,0.172-0.115
						c0.359-0.349,0.571-0.928,0.632-1.74l0.002-0.038c0.067-0.849-0.034-1.475-0.303-1.878c-0.272-0.401-0.659-0.623-1.167-0.661
						l-0.075-0.006l-0.062,0.797c0.307,0.103,0.576,0.264,0.768,0.547C251.066,35.026,251.166,35.652,251.106,36.5z"/>
				</g>
				<g>
					<path fill="#840812" d="M260.188,36.87c0.145,0.462,0.072,1.092-0.23,1.889l-0.014,0.033c-0.09,0.245-0.189,0.449-0.297,0.641
						c0.326-0.273,0.604-0.706,0.835-1.315l0.011-0.034c0.301-0.796,0.373-1.427,0.227-1.888c-0.145-0.46-0.457-0.783-0.935-0.959
						l-0.071-0.025l-0.301,0.804C259.788,36.201,260.063,36.473,260.188,36.87z"/>
				</g>
				<g>
					<polygon fill="#840812" points="258.005,33.144 257.755,33.052 253.088,45.556 255.269,46.368 255.554,45.603 253.624,44.88 
											"/>
				</g>
				<g>
					<path fill="#840812" d="M261.488,40.829c-0.318,0.333-0.661,0.61-1.043,0.796c-0.474,0.232-0.973,0.357-1.506,0.375
						c-0.525,0.02-1.079-0.057-1.653-0.23l-0.017-0.007l-0.275,0.738c0.487,0.124,0.956,0.192,1.413,0.176
						c0.532-0.02,1.033-0.145,1.507-0.375c0.473-0.229,0.896-0.573,1.273-1.028C261.3,41.144,261.394,40.98,261.488,40.829z"/>
				</g>
				<g>
					<polygon fill="#840812" points="272.194,40.868 266.159,45.412 265.723,46.015 272.381,41.001 					"/>
				</g>
				<g>
					<polygon fill="#840812" points="264.275,44.048 266.726,36.9 266.48,36.723 263.739,44.723 260.652,48.98 262.538,50.345 
						263.041,49.648 261.188,48.304 					"/>
				</g>
			</g>
			<g>
				<g>
					<path fill="#FFFFFF" d="M224.859,39.299l1.933-1.297l3.083,4.589l1.678-1.126l-3.082-4.589l1.929-1.297l7.446,11.076
						l-1.93,1.297l-3.131-4.651l-1.676,1.128l3.125,4.651l-1.927,1.297L224.859,39.299z"/>
				</g>
				<g>
					<path fill="#FFFFFF" d="M238.021,32.523l2.402-0.609l5.75,12.347l-2.255,0.572l-1.075-2.459l-2.053,0.52l0.248,2.67
						l-2.181,0.553L238.021,32.523z M241.995,40.427l-1.771-4.096l0.387,4.448L241.995,40.427z"/>
				</g>
				<g>
					<path fill="#FFFFFF" d="M248.335,30.984l2.073,0.157c0.633,0.047,1.205,0.181,1.716,0.397c0.514,0.217,0.946,0.522,1.302,0.911
						c0.352,0.391,0.61,0.876,0.774,1.456c0.169,0.58,0.223,1.262,0.159,2.049l-0.003,0.037c-0.058,0.749-0.201,1.395-0.442,1.938
						c-0.237,0.542-0.553,0.988-0.941,1.343c-0.39,0.352-0.841,0.611-1.344,0.776c-0.504,0.166-1.057,0.244-1.652,0.236
						l-0.019-0.002l-0.321,4.183l-2.316-0.176L248.335,30.984z M250.143,38.138c0.482,0.013,0.903-0.157,1.262-0.504
						c0.359-0.349,0.569-0.929,0.63-1.74l0.007-0.039c0.063-0.849-0.039-1.474-0.305-1.876c-0.274-0.403-0.661-0.624-1.167-0.663
						l-0.075-0.004l-0.369,4.826H250.143z"/>
				</g>
				<g>
					<path fill="#FFFFFF" d="M258.688,32.408l1.947,0.727c0.594,0.221,1.111,0.508,1.54,0.86c0.432,0.351,0.762,0.763,0.993,1.236
						c0.232,0.473,0.342,1.011,0.342,1.614c0,0.604-0.134,1.274-0.414,2.013l-0.017,0.035c-0.261,0.703-0.582,1.281-0.962,1.737
						s-0.804,0.798-1.275,1.029c-0.475,0.23-0.971,0.357-1.507,0.376c-0.527,0.019-1.08-0.058-1.653-0.232l-0.019-0.007
						l-1.469,3.932l-2.179-0.812L258.688,32.408z M258.438,39.782c0.462,0.146,0.914,0.102,1.355-0.135s0.806-0.735,1.087-1.498
						l0.015-0.034c0.304-0.799,0.372-1.428,0.229-1.889c-0.146-0.46-0.456-0.782-0.935-0.958l-0.072-0.026l-1.691,4.537
						L258.438,39.782z"/>
				</g>
				<g>
					<path fill="#FFFFFF" d="M264.675,44.078l2.742-7.999l1.941,1.41l-1.913,4.782l3.969-3.292l1.895,1.377l-6.752,5.086
						l-3.087,4.259l-1.885-1.367L264.675,44.078z"/>
				</g>
			</g>
		</g>
		<g opacity="0.5">
			<g>
				<g>
					<circle fill="#840812" cx="220.281" cy="57.815" r="1.348"/>
				</g>
			</g>
			<g>
				<g>
					<circle fill="#840812" cx="276.859" cy="57.76" r="1.349"/>
				</g>
			</g>
		</g>
		<g>
			<g>
				<g>
					<circle fill="#FFFFFF" cx="220.805" cy="57.575" r="1.348"/>
				</g>
			</g>
			<g>
				<g>
					<circle fill="#FFFFFF" cx="277.466" cy="57.576" r="1.349"/>
				</g>
			</g>
		</g>
		<g>
			<g>
				<g>
					<circle fill="#FFFFFF" cx="220.805" cy="83.747" r="1.348"/>
				</g>
			</g>
			<g>
				<g>
					<circle fill="#FFFFFF" cx="277.466" cy="83.745" r="1.35"/>
				</g>
			</g>
		</g>
		<g>
			<g opacity="0.5">
				<g>
					<g>
						<polygon fill="#840812" points="227.949,65.622 226.797,65.622 230.426,77.468 230.426,85.183 231.582,85.183 231.582,77.468 
													"/>
					</g>
				</g>
				<g>
					<g>
						<polygon fill="#840812" points="233.311,72.942 235.186,65.622 234.035,65.622 232.741,70.668 						"/>
					</g>
				</g>
			</g>
			<g opacity="0.5">
				<g>
					<rect x="238.367" y="65.622" fill="#840812" width="1.398" height="19.558"/>
				</g>
			</g>
			<g opacity="0.5">
				<g>
					<g>
						<polygon fill="#840812" points="253.451,71.795 252.703,76.362 253.004,78.249 254.49,78.249 						"/>
					</g>
				</g>
				<g>
					<g>
						<polygon fill="#840812" points="250.211,65.592 246.491,85.208 247.977,85.208 251.693,65.592 						"/>
					</g>
				</g>
				<g>
					<g>
						<polygon fill="#840812" points="253.508,81.326 254.146,85.208 255.633,85.208 254.993,81.326 						"/>
					</g>
				</g>
			</g>
			<g opacity="0.5">
				<g>
					<g>
						<path fill="#840812" d="M265.623,74.548c0.487-0.474,0.727-1.29,0.727-2.444V71.88c0-0.615-0.072-1.122-0.212-1.524
							s-0.323-0.719-0.555-0.95c-0.237-0.232-0.515-0.396-0.843-0.491c-0.324-0.093-0.674-0.138-1.047-0.138h-0.084v0.378
							c0.114,0.074,0.227,0.152,0.321,0.249c0.232,0.232,0.422,0.548,0.56,0.95s0.213,0.91,0.213,1.523v0.223
							c0,1.154-0.243,1.971-0.729,2.444c-0.113,0.111-0.235,0.209-0.365,0.293v0.42h0.167
							C264.523,75.26,265.136,75.021,265.623,74.548z"/>
					</g>
				</g>
				<g>
					<g>
						<rect x="258.55" y="65.622" fill="#840812" width="1.65" height="19.558"/>
					</g>
				</g>
				<g>
					<g>
						<polygon fill="#840812" points="264.196,78.361 263.609,78.361 263.609,81.464 264.813,85.183 266.46,85.183 264.255,78.361 
													"/>
					</g>
				</g>
			</g>
			<g>
				<g>
					<g>
						<path fill="#FFFFFF" d="M232.161,77.468l-3.633-11.846h3.523l1.843,7.321l1.871-7.321h3.437l-3.634,11.846v7.714h-3.407
							V77.468z"/>
					</g>
				</g>
				<g>
					<g>
						<path fill="#FFFFFF" d="M240.207,65.622h7.491v3.238h-4.078v4.866h3.602v3.239h-3.602v4.973h4.161v3.242h-7.576V65.622
							H240.207z"/>
					</g>
				</g>
				<g>
					<g>
						<path fill="#FFFFFF" d="M252.168,65.562h3.633l3.716,19.618h-3.407l-0.644-3.883h-3.101l-0.615,3.883h-3.3L252.168,65.562z
							 M254.966,78.221l-1.037-6.456l-1.059,6.456H254.966z"/>
					</g>
				</g>
				<g>
					<g>
						<path fill="#FFFFFF" d="M260.553,65.622h3.524c0.872,0,1.681,0.119,2.415,0.361c0.736,0.241,1.37,0.615,1.911,1.119
							c0.542,0.5,0.96,1.144,1.261,1.928c0.301,0.781,0.447,1.722,0.447,2.822v0.25c0,1.285-0.222,2.341-0.658,3.172
							c-0.438,0.829-0.98,1.487-1.634,1.969l2.627,7.938h-3.633l-2.209-6.819h-0.058h-0.588v6.819h-3.406V65.622L260.553,65.622z
							 M264.13,75.26c0.747,0,1.359-0.239,1.845-0.712c0.485-0.475,0.725-1.29,0.725-2.445v-0.225c0-0.614-0.072-1.122-0.207-1.522
							c-0.14-0.402-0.329-0.719-0.562-0.951c-0.233-0.231-0.509-0.397-0.839-0.489c-0.324-0.094-0.672-0.139-1.049-0.139h-0.084
							v6.481h0.171V75.26z"/>
					</g>
				</g>
			</g>
		</g>
		<g>
			<path fill="#FFFFFF" d="M220.837,82.883c-0.108,0-0.195-0.088-0.195-0.197V65.425c0-0.109,0.087-0.198,0.195-0.198
				s0.198,0.087,0.198,0.198v17.261C221.035,82.794,220.945,82.883,220.837,82.883z"/>
		</g>
		<g>
			<path fill="#FFFFFF" d="M277.466,82.883c-0.107,0-0.195-0.088-0.195-0.197V65.425c0-0.109,0.088-0.198,0.195-0.198
				c0.109,0,0.198,0.087,0.198,0.198v17.261C277.664,82.794,277.575,82.883,277.466,82.883z"/>
		</g>
	</g>
	<g>
		<g opacity="0.2" enable-background="new    ">
			<path fill="#FFE3E5" d="M302.188,81.61c-3.652-0.262-7.635-0.248-11.892-0.091l2.071-64.786
				c-0.886,1.168-3.407,2.252-7.117,3.195l-2.174,68.333c2.048-0.075,4.996-1.854,6.699-3.212c1.832-1.464,2.442-2.501,5.353-2.198
				c14.176,1.473,23.424,5.376,22.826,11.665c-0.973,7.748-14.502,14.412-34.562,18.37c23.9-3.701,40.534-10.988,41.62-19.611
				C325.612,86.987,316.427,82.21,302.188,81.61z"/>
		</g>
	</g>
</g>
</svg>
