<?xml version="1.0" encoding="utf-8"?>
<!-- Generator: Adobe Illustrator 16.2.0, SVG Export Plug-In . SVG Version: 6.00 Build 0)  -->
<!DOCTYPE svg PUBLIC "-//W3C//DTD SVG 1.1//EN" "http://www.w3.org/Graphics/SVG/1.1/DTD/svg11.dtd">
<svg version="1.1" id="Layer_1" xmlns="http://www.w3.org/2000/svg" xmlns:xlink="http://www.w3.org/1999/xlink" x="0px" y="0px"
	 width="500px" height="500px" viewBox="0 0 500 500" enable-background="new 0 0 500 500" xml:space="preserve">
<rect x="0.5" y="0.5" display="none" fill="#FFFFFF" stroke="#000000" width="500.001" height="500"/>
<g id="bounds">
	<rect x="90" y="10" fill="none" stroke="#000000" stroke-width="0.993" width="320" height="159.884"/>
</g>
<g id="accessory">
	<path fill="#FF7F07" d="M248.945,87.23c-2.956,0-5.879,0.123-8.763,0.356c-7.482,0.603-14.706,1.968-21.561,4.007
		c4.181,20.517,30.47,36.37,30.47,36.37s26.213-15.808,30.452-36.283c-6.854-2.06-14.077-3.454-21.565-4.077
		C255.003,87.357,251.991,87.23,248.945,87.23z"/>
	<path d="M248.945,71.705c-58.022,0-105.517,38.803-109.462,87.934h3.849c2.989-39.695,33.127-70.766,71.333-78.671
		c7.704-1.55,13.814-0.478,18.625,1.828c2.69,1.291,4.97,2.965,6.889,4.79c2.885-0.232,5.808-0.356,8.763-0.356
		c3.046,0,6.062,0.127,9.032,0.375c1.922-1.831,4.208-3.514,6.91-4.809c4.808-2.306,10.919-3.378,18.622-1.828
		c38.206,7.906,68.342,38.977,71.332,78.671h3.558C354.461,110.508,306.965,71.705,248.945,71.705z"/>
	<path fill="#E7DEDB" d="M283.51,80.968c-7.704-1.549-13.814-0.478-18.623,1.829c9.126,1.365,15.248,3.389,15.248,3.389
		c0,1.864-0.223,3.696-0.593,5.495c33.627,10.109,58.351,36.399,61.408,67.958h13.892C351.852,119.945,321.717,88.874,283.51,80.968
		z"/>
	<path fill="#E7DEDB" d="M233.292,82.795c-4.811-2.306-10.923-3.378-18.626-1.828c-38.207,7.905-68.343,38.976-71.333,78.671h13.604
		c3.064-31.645,27.914-57.999,61.684-68.046c-0.36-1.77-0.575-3.573-0.575-5.408C218.045,86.186,224.168,84.16,233.292,82.795z"/>
	<path fill="#E7DEDB" d="M233.292,82.795c-9.127,1.365-15.248,3.389-15.248,3.389c0,1.834,0.214,3.638,0.575,5.408
		c6.856-2.04,14.08-3.406,21.562-4.007C238.264,85.76,235.985,84.085,233.292,82.795z"/>
	<path fill="#E7DEDB" d="M264.887,82.795c-2.7,1.295-4.985,2.976-6.909,4.81c7.488,0.621,14.714,2.015,21.565,4.077
		c0.374-1.799,0.594-3.631,0.594-5.496C280.137,86.186,274.013,84.16,264.887,82.795z"/>
</g>
</svg>
