<?xml version="1.0" encoding="utf-8"?>
<!-- Generator: Adobe Illustrator 16.2.0, SVG Export Plug-In . SVG Version: 6.00 Build 0)  -->
<!DOCTYPE svg PUBLIC "-//W3C//DTD SVG 1.1//EN" "http://www.w3.org/Graphics/SVG/1.1/DTD/svg11.dtd">
<svg version="1.1" id="content" xmlns="http://www.w3.org/2000/svg" xmlns:xlink="http://www.w3.org/1999/xlink" x="0px" y="0px"
	 width="500px" height="500px" viewBox="0 0 500 500" enable-background="new 0 0 500 500" xml:space="preserve">
<rect id="position" display="none" fill="none" stroke="#000000" width="500" height="500"/>
<g id="bounds">
	<rect x="47.186" y="251.177" fill="none" stroke="#000000" stroke-width="0.664" width="130.242" height="141.682"/>
</g>
<g id="accessory">
	<g>
		<path fill="none" d="M108.599,295.679c-0.985-0.238-1.994-0.228-2.944,0.008L108.599,295.679z"/>
		<path fill="#0A783D" d="M110.633,313.573l12.066-0.028l1.715-3.583c0.246-0.514,0.463-1.033,0.653-1.558l-11.973,0.028
			L110.633,313.573z"/>
		<polygon fill="#0A783D" points="89.184,358.368 101.25,358.34 103.711,353.199 91.646,353.228 		"/>
		<path fill="#0A783D" d="M93.905,302.415c2.708,1.297,5.954,0.152,7.25-2.556l0.167-0.349l-10.108,0.023
			C91.703,300.754,92.627,301.804,93.905,302.415z"/>
		<path fill="#0A783D" d="M114.502,286.306c-5.145-2.463-10.922-2.104-15.579,0.448l16.434-0.039L114.502,286.306z"/>
		<polygon fill="#0A783D" points="106.343,322.532 118.41,322.504 120.871,317.362 108.805,317.391 		"/>
		<path fill="#0A783D" d="M91.346,366.44c2.707,1.297,5.953,0.152,7.249-2.555l0.827-1.727L88.3,362.185
			C88.516,363.968,89.605,365.607,91.346,366.44z"/>
		<polygon fill="#0A783D" points="97.764,340.45 109.83,340.423 112.292,335.281 100.226,335.31 		"/>
		<polygon fill="#0A783D" points="93.474,349.409 105.54,349.382 108.001,344.239 95.936,344.269 		"/>
		<polygon fill="#0A783D" points="102.054,331.491 114.12,331.463 116.581,326.321 104.515,326.351 		"/>
		<path fill="#0A783D" d="M108.599,295.679l15.994-0.037c-0.844-1.892-2.031-3.635-3.526-5.126l-26.868,0.063
			c-0.955,1.112-1.783,2.362-2.444,3.744l-0.404,0.844c-0.087,0.183-0.162,0.367-0.227,0.556l14.532-0.035
			C106.604,295.451,107.614,295.44,108.599,295.679z"/>
		<path fill="#0A783D" d="M114.372,299.479c0.884,1.521,1.106,3.393,0.504,5.134l11.091-0.025c0.202-1.728,0.136-3.459-0.181-5.135
			L114.372,299.479z"/>
		<path fill="#0A783D" d="M116.398,287.214l-1.042-0.499l-16.434,0.039c-1.769,0.97-3.375,2.255-4.725,3.824l26.868-0.063
			C119.742,289.193,118.179,288.066,116.398,287.214z"/>
		<path fill="#EC1C24" d="M116.398,287.214l-1.042-0.499l-16.434,0.039c-1.769,0.97-3.375,2.255-4.725,3.824l26.868-0.063
			C119.742,289.193,118.179,288.066,116.398,287.214z"/>
		<path fill="#0A783D" d="M124.593,295.642l-15.994,0.037c0.409,0.101,0.813,0.242,1.208,0.431l1.896,0.909
			c1.159,0.555,2.065,1.426,2.668,2.461l11.414-0.026C125.538,298.14,125.136,296.86,124.593,295.642z"/>
		<path fill="#F28F97" d="M124.593,295.642l-15.994,0.037c0.409,0.101,0.813,0.242,1.208,0.431l1.896,0.909
			c1.159,0.555,2.065,1.426,2.668,2.461l11.414-0.026C125.538,298.14,125.136,296.86,124.593,295.642z"/>
		<path fill="#0A783D" d="M105.655,295.687l-14.532,0.035c-0.448,1.273-0.386,2.624,0.09,3.813l10.108-0.023l0.236-0.493
			C102.387,297.285,103.922,296.116,105.655,295.687z"/>
		<path fill="#F28F97" d="M105.655,295.687l-14.532,0.035c-0.448,1.273-0.386,2.624,0.09,3.813l10.108-0.023l0.236-0.493
			C102.387,297.285,103.922,296.116,105.655,295.687z"/>
		<path fill="#0A783D" d="M114.61,305.268l-1.515,3.165l11.973-0.028c0.455-1.255,0.749-2.534,0.899-3.816l-11.091,0.025
			C114.799,304.834,114.713,305.052,114.61,305.268z"/>
		<path fill="#006838" d="M114.61,305.268l-1.515,3.165l11.973-0.028c0.455-1.255,0.749-2.534,0.899-3.816l-11.091,0.025
			C114.799,304.834,114.713,305.052,114.61,305.268z"/>
		<polygon fill="#0A783D" points="108.805,317.391 120.871,317.362 122.699,313.545 110.633,313.573 		"/>
		<polygon fill="#EC1C24" points="108.805,317.391 120.871,317.362 122.699,313.545 110.633,313.573 		"/>
		<polygon fill="#0A783D" points="104.515,326.351 116.581,326.321 118.41,322.504 106.343,322.532 		"/>
		<polygon fill="#63D69F" points="104.515,326.351 116.581,326.321 118.41,322.504 106.343,322.532 		"/>
		<polygon fill="#0A783D" points="100.226,335.31 112.292,335.281 114.12,331.463 102.054,331.491 		"/>
		<polygon fill="#F28F97" points="100.226,335.31 112.292,335.281 114.12,331.463 102.054,331.491 		"/>
		<polygon fill="#0A783D" points="95.936,344.269 108.001,344.239 109.83,340.423 97.764,340.45 		"/>
		<polygon fill="#EC1C24" points="95.936,344.269 108.001,344.239 109.83,340.423 97.764,340.45 		"/>
		<polygon fill="#0A783D" points="91.646,353.228 103.711,353.199 105.54,349.382 93.474,349.409 		"/>
		<polygon fill="#63D69F" points="91.646,353.228 103.711,353.199 105.54,349.382 93.474,349.409 		"/>
		<path fill="#0A783D" d="M88.791,359.191c-0.463,0.967-0.61,2.002-0.49,2.993l11.122-0.025l1.829-3.819l-12.067,0.028
			L88.791,359.191z"/>
		<path fill="#006838" d="M88.791,359.191c-0.463,0.967-0.61,2.002-0.49,2.993l11.122-0.025l1.829-3.819l-12.067,0.028
			L88.791,359.191z"/>
	</g>
	<g opacity="0.7">
		<path fill="#FFFFFF" d="M93.746,295.722c0,0,0.034-0.096,0.098-0.275c0.068-0.177,0.16-0.439,0.291-0.768
			c0.068-0.164,0.144-0.346,0.227-0.543c0.077-0.197,0.183-0.405,0.295-0.63c0.057-0.112,0.115-0.229,0.176-0.348
			c0.066-0.115,0.133-0.234,0.203-0.356c0.07-0.121,0.141-0.247,0.219-0.372c0.081-0.124,0.164-0.25,0.248-0.379
			c0.164-0.264,0.364-0.515,0.562-0.786c0.096-0.137,0.212-0.262,0.321-0.396c0.112-0.131,0.219-0.271,0.342-0.399
			c0.476-0.531,1.023-1.05,1.625-1.549c0.308-0.239,0.619-0.487,0.955-0.709c0.327-0.234,0.679-0.441,1.033-0.649
			c0.712-0.411,1.478-0.754,2.26-1.047c0.784-0.288,1.594-0.508,2.403-0.653c0.808-0.152,1.615-0.233,2.396-0.242
			c0.097-0.002,0.194-0.004,0.291-0.006c0.097,0.002,0.193,0.004,0.289,0.007c0.192,0.006,0.381,0.007,0.568,0.021
			c0.374,0.031,0.739,0.054,1.092,0.111c0.353,0.044,0.693,0.113,1.021,0.18c0.164,0.029,0.322,0.077,0.479,0.114
			c0.156,0.041,0.31,0.076,0.458,0.12c0.147,0.047,0.291,0.092,0.432,0.137c0.141,0.046,0.279,0.085,0.409,0.138
			c0.131,0.051,0.259,0.1,0.383,0.147c0.124,0.048,0.245,0.092,0.358,0.146c0.227,0.104,0.441,0.197,0.634,0.292
			c0.189,0.101,0.364,0.193,0.522,0.277c0.158,0.08,0.293,0.166,0.41,0.239c0.117,0.072,0.217,0.135,0.297,0.185
			c0.162,0.099,0.244,0.159,0.244,0.159s-0.095-0.035-0.275-0.095c-0.181-0.059-0.44-0.156-0.775-0.26
			c-0.167-0.051-0.353-0.107-0.554-0.168c-0.203-0.053-0.423-0.109-0.658-0.172c-0.233-0.062-0.487-0.108-0.75-0.168
			c-0.264-0.057-0.545-0.098-0.835-0.15c-0.584-0.081-1.216-0.161-1.887-0.183c-0.334-0.021-0.679-0.018-1.029-0.018
			c-0.175,0.002-0.353,0.015-0.531,0.02c-0.089,0.003-0.179,0.007-0.269,0.01c-0.09,0.009-0.18,0.017-0.271,0.024
			c-0.181,0.018-0.364,0.028-0.547,0.051c-0.183,0.023-0.367,0.047-0.552,0.069c-0.185,0.025-0.369,0.063-0.555,0.095
			c-0.187,0.026-0.372,0.068-0.557,0.108c-0.743,0.162-1.49,0.365-2.212,0.64c-0.725,0.264-1.432,0.576-2.104,0.933
			c-0.169,0.087-0.331,0.187-0.496,0.277c-0.167,0.089-0.326,0.188-0.483,0.288c-0.321,0.19-0.62,0.408-0.922,0.61
			c-0.585,0.43-1.136,0.871-1.628,1.327c-0.489,0.458-0.937,0.913-1.32,1.36c-0.097,0.112-0.192,0.222-0.285,0.328
			c-0.09,0.109-0.172,0.22-0.258,0.325c-0.084,0.105-0.166,0.209-0.246,0.31c-0.075,0.103-0.147,0.202-0.217,0.3
			c-0.071,0.098-0.14,0.191-0.206,0.283c-0.067,0.091-0.125,0.187-0.186,0.273c-0.117,0.177-0.225,0.338-0.323,0.484
			c-0.187,0.299-0.344,0.529-0.447,0.688C93.803,295.637,93.746,295.722,93.746,295.722z"/>
	</g>
	<g opacity="0.7">
		<path fill="#FFFFFF" d="M91.068,358.821c0,0,0.081-0.198,0.233-0.569c0.155-0.371,0.376-0.916,0.671-1.604
			c0.292-0.689,0.645-1.528,1.062-2.483c0.414-0.957,0.88-2.036,1.403-3.207c0.26-0.587,0.531-1.198,0.811-1.83
			c0.28-0.633,0.579-1.282,0.881-1.951c0.607-1.34,1.242-2.753,1.917-4.207c0.337-0.728,0.68-1.467,1.026-2.215
			c0.35-0.747,0.704-1.503,1.061-2.266c0.714-1.523,1.451-3.067,2.186-4.61c0.742-1.541,1.48-3.083,2.22-4.595
			c0.371-0.756,0.738-1.505,1.1-2.246c0.366-0.74,0.727-1.47,1.082-2.188c0.71-1.438,1.412-2.819,2.075-4.131
			c0.333-0.655,0.656-1.293,0.968-1.909c0.317-0.615,0.624-1.208,0.918-1.779c0.584-1.141,1.133-2.182,1.619-3.104
			c0.483-0.924,0.916-1.724,1.269-2.384c0.352-0.661,0.639-1.176,0.83-1.528c0.194-0.351,0.298-0.538,0.298-0.538
			s-0.081,0.197-0.233,0.569c-0.155,0.37-0.376,0.916-0.67,1.604c-0.292,0.689-0.644,1.527-1.062,2.483
			c-0.413,0.957-0.88,2.037-1.403,3.208c-0.26,0.587-0.53,1.198-0.81,1.83c-0.284,0.631-0.579,1.282-0.881,1.951
			c-0.606,1.339-1.243,2.752-1.917,4.206c-0.337,0.728-0.68,1.467-1.027,2.216c-0.35,0.746-0.704,1.503-1.061,2.265
			c-0.714,1.524-1.451,3.066-2.187,4.61c-0.742,1.541-1.482,3.082-2.222,4.594c-0.37,0.756-0.737,1.506-1.1,2.246
			c-0.366,0.739-0.726,1.471-1.082,2.188c-0.71,1.438-1.413,2.819-2.076,4.131c-0.333,0.655-0.651,1.295-0.968,1.909
			c-0.316,0.615-0.623,1.209-0.917,1.778c-0.584,1.143-1.133,2.183-1.619,3.105c-0.482,0.924-0.915,1.724-1.268,2.384
			c-0.352,0.661-0.639,1.176-0.83,1.528C91.172,358.634,91.068,358.821,91.068,358.821z"/>
	</g>
</g>
</svg>
