<?xml version="1.0" encoding="utf-8"?>
<!-- Generator: Adobe Illustrator 16.2.0, SVG Export Plug-In . SVG Version: 6.00 Build 0)  -->
<!DOCTYPE svg PUBLIC "-//W3C//DTD SVG 1.1//EN" "http://www.w3.org/Graphics/SVG/1.1/DTD/svg11.dtd">
<svg version="1.1" id="content" xmlns="http://www.w3.org/2000/svg" xmlns:xlink="http://www.w3.org/1999/xlink" x="0px" y="0px"
	 width="500px" height="500px" viewBox="0 0 500 500" enable-background="new 0 0 500 500" xml:space="preserve">
<rect id="position" display="none" fill="none" stroke="#000000" width="500" height="500"/>
<g id="bounds">
	<rect x="47.186" y="251.177" fill="none" stroke="#000000" stroke-width="0.664" width="130.242" height="141.682"/>
</g>
<g id="accessory">
	<path fill="#7F612D" d="M136.813,347.979c0.061-0.827,0.093-1.663,0.093-2.504c0-18.708-15.165-33.872-33.872-33.872
		s-33.872,15.164-33.872,33.872c0,0.841,0.032,1.677,0.092,2.504H136.813z"/>
	<path fill="#513D20" d="M103.034,312.204c-13.457,0-25.081,7.849-30.545,19.217h2.359v8.997c0,0.896,0.727,1.623,1.623,1.623
		c0.896,0,1.623-0.727,1.623-1.623v-6.653c0-0.01-0.003-0.02-0.003-0.028v-2.653c0-0.438,0.355-0.795,0.794-0.795
		s0.794,0.356,0.794,0.795v0.338v2.315v1.909c0,0.697,0.566,1.264,1.264,1.264c0.698,0,1.264-0.566,1.264-1.264v-2.084
		c-0.001-0.01-0.006-0.02-0.006-0.031v-4.37c0-0.211,0.171-0.381,0.381-0.381s0.38,0.17,0.38,0.381v2.261v2.109v8.462
		c0,0.385,0.311,0.695,0.695,0.695s0.694-0.311,0.694-0.695v-8.688v-1.884v-0.789c0-0.597,0.483-1.079,1.079-1.079
		s1.079,0.482,1.079,1.079v0.789v1.884v5c0,0.896,0.727,1.624,1.623,1.624c0.896,0,1.623-0.728,1.623-1.624v-5.323
		c0,0,0.264-1.561,1.9-1.561h41.927C128.115,320.053,116.491,312.204,103.034,312.204z"/>
	<path fill="#CDCDCD" d="M103.034,311.603c-13.457,0-25.081,7.848-30.545,19.217h2.359v8.997c0,0.896,0.727,1.623,1.623,1.623
		c0.896,0,1.623-0.728,1.623-1.623v-6.653c0-0.01-0.003-0.02-0.003-0.028v-2.654c0-0.438,0.355-0.794,0.794-0.794
		s0.794,0.355,0.794,0.794v0.339v2.315v1.908c0,0.697,0.566,1.265,1.264,1.265c0.698,0,1.264-0.567,1.264-1.265v-2.083
		c-0.001-0.01-0.006-0.021-0.006-0.031v-4.37c0-0.211,0.171-0.381,0.381-0.381s0.38,0.17,0.38,0.381v2.261v2.109v8.462
		c0,0.384,0.311,0.694,0.695,0.694s0.694-0.311,0.694-0.694v-8.688v-1.884v-0.789c0-0.597,0.483-1.079,1.079-1.079
		s1.079,0.482,1.079,1.079v0.789v1.884v5c0,0.896,0.727,1.623,1.623,1.623c0.896,0,1.623-0.727,1.623-1.623v-5.324
		c0,0,0.264-1.56,1.9-1.56h41.927C128.115,319.45,116.491,311.603,103.034,311.603z"/>
	<g>
		<g>
			<circle fill="#A5A5A5" cx="103.132" cy="313.857" r="3.053"/>
			<path fill="#A5A5A5" d="M102.152,315.295c0.127-0.188,0.077-0.442-0.111-0.568c-0.608-0.411-0.796-1.23-0.427-1.868
				c0.389-0.669,1.249-0.896,1.918-0.508c0.196,0.112,0.447,0.046,0.559-0.148c0.114-0.196,0.047-0.446-0.148-0.56
				c-1.059-0.614-2.421-0.254-3.037,0.806c-0.584,1.007-0.286,2.305,0.678,2.957C101.771,315.531,102.025,315.481,102.152,315.295z"
				/>
		</g>
		<g>
			<circle fill="#A5A5A5" cx="101.965" cy="319.384" r="3.054"/>
			<path fill="#A5A5A5" d="M100.984,320.82c0.127-0.187,0.077-0.44-0.11-0.567c-0.608-0.41-0.796-1.229-0.426-1.866
				c0.388-0.669,1.249-0.899,1.918-0.51c0.195,0.114,0.446,0.047,0.559-0.148c0.114-0.196,0.048-0.446-0.148-0.559
				c-1.06-0.615-2.421-0.253-3.037,0.807c-0.583,1.006-0.287,2.305,0.677,2.953C100.604,321.058,100.858,321.008,100.984,320.82z"/>
		</g>
		<g>
			<circle fill="#A5A5A5" cx="107.457" cy="317.293" r="2.672"/>
			<path fill="#A5A5A5" d="M106.6,318.551c0.111-0.163,0.067-0.387-0.097-0.497c-0.532-0.358-0.696-1.077-0.374-1.634
				c0.34-0.586,1.094-0.786,1.679-0.446c0.171,0.101,0.39,0.042,0.489-0.129c0.1-0.171,0.042-0.391-0.13-0.49
				c-0.927-0.537-2.119-0.221-2.657,0.705c-0.511,0.882-0.25,2.019,0.592,2.587C106.266,318.757,106.489,318.715,106.6,318.551z"/>
		</g>
		<g>
			<path fill="#8C8B8B" d="M113.166,312.9l-4.703,2.02l-1.04-0.15c-0.653,0-1.151,0.15-1.492,0.452h-0.151l0.151-1.056v-0.452
				c0-0.915-0.649-1.708-1.945-2.382c0-0.009,0-0.017,0-0.025c-0.092-0.001-0.183-0.007-0.274-0.007
				c-0.564,0-1.123,0.021-1.68,0.053c-0.052,0.194-0.292,0.389-0.73,0.583c0-0.031-0.119-0.203-0.344-0.502
				c-1.608,0.154-3.176,0.44-4.696,0.848c0.274,0.93,0.412,2.004,0.412,3.228l-0.151,0.754h0.302c0-0.725,1.241-1.222,3.724-1.493
				c0,0.462,0.447,1.061,1.342,1.793c-1.559,0-2.503,0.944-2.835,2.835c0,1.589,0.945,2.533,2.835,2.834h0.15
				c1.568,0,2.512-0.944,2.835-2.834c-0.333-1.598-0.83-2.397-1.493-2.397v-0.287c0.623,0,1.17-0.2,1.644-0.602
				c0,0.05-0.096,0.447-0.287,1.19c0,1.367,0.844,2.217,2.533,2.548h0.151c1.387,0,2.231-0.898,2.533-2.698h0.151
				c0.905,0,2.246,0.699,4.026,2.096h0.15v-0.904c0.386-1.792,1.61-2.877,3.664-3.262
				C116.434,314.216,114.835,313.482,113.166,312.9z M100.111,319.699h-0.151v-0.452c0-0.784,0.296-1.332,0.89-1.644H101
				C101,317.685,100.704,318.382,100.111,319.699z M101.603,313.428h-0.151v-0.302c0-0.342,0.498-0.688,1.492-1.039h0.151
				C103.076,312.227,102.578,312.674,101.603,313.428z M105.779,316.85c0-0.603,0.346-1.05,1.04-1.341h0.302
				C106.357,316.403,105.91,316.85,105.779,316.85z"/>
			<path fill="#8C8B8B" d="M106.819,314.468l5.452-1.869c-1.911-0.598-3.91-0.993-5.97-1.177c0.022,0.07,0.047,0.139,0.066,0.211
				l-0.136,0.891C106.231,313.035,106.427,313.684,106.819,314.468z"/>
		</g>
	</g>
	<g>
		<g>
			<path fill="#0A783D" d="M88.335,295.34h0.151c2.522,1.788,4.612,2.684,6.271,2.684c1.266,0,2.507-0.498,3.724-1.492h0.15v0.301
				c0.332,4.573,1.427,6.86,3.287,6.86c0.23,0,0.432,0.05,0.603,0.149l1.794-0.436l0.151,0.286
				c-0.402,1.769-0.603,4.011-0.603,6.724c1.296,0.673,1.945,1.467,1.945,2.382v0.452l-0.151,1.055h0.151
				c0.341-0.301,0.839-0.452,1.492-0.452l1.041,0.151l9.408-4.04v-0.151h-0.151l-10.9,3.739c-0.392-0.784-0.588-1.433-0.588-1.944
				l0.136-0.891c-0.141-0.553-0.387-1.05-0.738-1.493v-0.149l0.738,0.149h1.206c2.824,0,4.764-1.346,5.819-4.04
				c0-0.291,0.101-0.437,0.302-0.437c2.794,1.387,5.131,2.081,7.01,2.081h0.301c1.216,0,2.513-0.247,3.89-0.74
				c-1.397,1.527-2.095,3.071-2.095,4.629v0.303c0,0.844,0.201,1.839,0.603,2.984c-0.1,0-0.151,0.051-0.151,0.15l-0.301-0.15h-3.136
				c-3.197,0-5.041,1.141-5.533,3.422v0.904h-0.15c-1.78-1.396-3.121-2.095-4.026-2.095h-0.15c-0.302,1.8-1.146,2.698-2.533,2.698
				h-0.151c-1.688-0.331-2.532-1.181-2.532-2.548c0.191-0.744,0.287-1.142,0.287-1.19c-0.473,0.401-1.021,0.602-1.644,0.602v0.287
				c0.663,0,1.161,0.8,1.493,2.397c-0.323,1.889-1.267,2.834-2.834,2.834h-0.151c-1.89-0.301-2.834-1.246-2.834-2.834
				c0.331-1.891,1.276-2.835,2.834-2.835c-0.895-0.732-1.342-1.331-1.342-1.794c-2.483,0.271-3.724,0.769-3.724,1.494H96.4
				l0.151-0.755c0-3.84-1.347-6.226-4.041-7.161c-0.995-0.2-1.638-0.302-1.93-0.302v-0.15c0.492-0.522,0.739-1.216,0.739-2.081
				c0-1.638-0.995-4.773-2.985-9.407V295.34z M94.456,302.501v0.149c4.482,5.438,6.724,8.228,6.724,8.369
				c0.452-0.202,0.698-0.402,0.739-0.604L94.456,302.501z M99.838,318.33v0.452h0.151c0.593-1.316,0.889-2.015,0.889-2.095h-0.15
				C100.134,316.999,99.838,317.547,99.838,318.33z M101.331,312.21v0.302h0.151c0.974-0.755,1.473-1.201,1.493-1.342h-0.151
				C101.828,311.521,101.331,311.868,101.331,312.21z M105.657,315.934c0.13,0,0.578-0.447,1.342-1.342h-0.302
				C106.003,314.884,105.657,315.331,105.657,315.934z M117.899,309.661v0.151h0.302v-0.151H117.899z"/>
		</g>
		<g>
			<circle fill="#EC1C24" cx="103.01" cy="312.941" r="3.053"/>
			<path fill="#FFFFFF" d="M102.03,314.378c0.128-0.188,0.077-0.441-0.11-0.568c-0.608-0.41-0.796-1.23-0.426-1.868
				c0.389-0.669,1.249-0.896,1.918-0.508c0.196,0.113,0.446,0.047,0.559-0.147c0.114-0.197,0.047-0.447-0.148-0.56
				c-1.059-0.615-2.421-0.254-3.037,0.806c-0.584,1.007-0.287,2.305,0.677,2.956C101.649,314.614,101.903,314.564,102.03,314.378z"
				/>
		</g>
		<g>
			<circle fill="#EC1C24" cx="101.843" cy="318.468" r="3.054"/>
			<path fill="#FFFFFF" d="M100.863,319.904c0.127-0.188,0.077-0.44-0.11-0.568c-0.608-0.409-0.796-1.229-0.426-1.866
				c0.389-0.669,1.249-0.898,1.918-0.51c0.195,0.114,0.446,0.047,0.559-0.148c0.114-0.195,0.047-0.445-0.148-0.558
				c-1.059-0.616-2.421-0.253-3.037,0.806c-0.584,1.006-0.287,2.305,0.677,2.954C100.482,320.142,100.736,320.092,100.863,319.904z"
				/>
		</g>
		<g>
			<circle fill="#EC1C24" cx="107.336" cy="316.377" r="2.672"/>
			<path fill="#FFFFFF" d="M106.478,317.635c0.112-0.164,0.067-0.387-0.096-0.497c-0.532-0.358-0.696-1.078-0.374-1.635
				c0.34-0.585,1.093-0.785,1.678-0.445c0.171,0.1,0.391,0.041,0.49-0.129c0.1-0.171,0.041-0.391-0.13-0.49
				c-0.927-0.538-2.119-0.222-2.657,0.705c-0.511,0.881-0.25,2.018,0.592,2.586C106.145,317.841,106.367,317.798,106.478,317.635z"
				/>
		</g>
	</g>
	<path fill="#FFFFFF" d="M116.603,317.792c0,0,0.279-0.008,0.76,0.067c0.482,0.07,1.159,0.237,1.94,0.531
		c0.388,0.149,0.811,0.316,1.234,0.535c0.435,0.202,0.863,0.463,1.313,0.727c0.437,0.28,0.885,0.579,1.32,0.908
		c0.424,0.34,0.873,0.671,1.272,1.051c0.4,0.381,0.82,0.742,1.178,1.149c0.365,0.4,0.74,0.782,1.051,1.193
		c0.32,0.404,0.623,0.8,0.9,1.18c0.264,0.392,0.5,0.771,0.715,1.12c0.107,0.175,0.21,0.343,0.308,0.502
		c0.086,0.167,0.168,0.325,0.245,0.474c0.157,0.296,0.278,0.562,0.381,0.778c0.205,0.435,0.304,0.692,0.304,0.692
		s-0.217-0.177-0.567-0.503c-0.174-0.163-0.388-0.358-0.618-0.594c-0.229-0.234-0.499-0.489-0.788-0.769
		c-0.29-0.278-0.602-0.58-0.918-0.907c-0.331-0.315-0.68-0.646-1.029-0.996c-0.341-0.358-0.735-0.683-1.1-1.049
		c-0.367-0.364-0.766-0.702-1.151-1.058c-0.374-0.368-0.792-0.68-1.169-1.03c-0.396-0.327-0.786-0.649-1.163-0.962
		c-0.39-0.293-0.752-0.604-1.12-0.862c-0.359-0.274-0.705-0.523-1.028-0.753c-0.328-0.22-0.627-0.432-0.9-0.605
		c-0.274-0.173-0.514-0.329-0.717-0.449C116.849,317.923,116.603,317.792,116.603,317.792z"/>
	<path fill="#A57A3C" d="M130.249,332.191c0,0,0.642,0.663,1.355,1.836c0.366,0.578,0.741,1.286,1.098,2.064
		c0.164,0.396,0.362,0.793,0.505,1.221c0.156,0.423,0.307,0.854,0.44,1.292c0.134,0.438,0.241,0.883,0.346,1.321
		c0.121,0.435,0.171,0.878,0.248,1.301c0.084,0.42,0.109,0.837,0.145,1.228c0.017,0.196,0.033,0.387,0.048,0.571
		c0.002,0.184,0.004,0.363,0.005,0.535c0.021,0.686-0.028,1.257-0.076,1.653c-0.043,0.397-0.079,0.623-0.079,0.623
		s-0.056-0.225-0.138-0.613c-0.039-0.193-0.089-0.429-0.134-0.698c-0.058-0.267-0.124-0.567-0.195-0.896
		c-0.063-0.327-0.145-0.68-0.235-1.051c-0.088-0.371-0.174-0.762-0.281-1.163c-0.101-0.402-0.21-0.814-0.328-1.233
		c-0.112-0.42-0.229-0.845-0.369-1.264c-0.234-0.852-0.534-1.684-0.791-2.474c-0.275-0.783-0.535-1.518-0.769-2.145
		C130.567,333.035,130.249,332.191,130.249,332.191z"/>
</g>
</svg>
