<?xml version="1.0" encoding="utf-8"?>
<!-- Generator: Adobe Illustrator 14.0.0, SVG Export Plug-In . SVG Version: 6.00 Build 43363)  -->
<!DOCTYPE svg PUBLIC "-//W3C//DTD SVG 1.1//EN" "http://www.w3.org/Graphics/SVG/1.1/DTD/svg11.dtd">
<svg version="1.1" id="content" xmlns="http://www.w3.org/2000/svg" xmlns:xlink="http://www.w3.org/1999/xlink" x="0px" y="0px"
	 width="500px" height="500px" viewBox="0 0 500 500" enable-background="new 0 0 500 500" xml:space="preserve">
<rect id="position" x="-0.001" y="0" display="none" fill="none" stroke="#000000" width="500" height="500"/>
<g id="bounds" display="none">
	
		<rect x="11.767" y="213.912" display="inline" fill="none" stroke="#000000" stroke-width="0.7301" width="170.157" height="179.514"/>
</g>
<g>
	<path fill="#D6CF99" d="M131.043,297.757l6.541,24.32c0.698-0.551,1.29-1.188,1.75-1.928
		C142.509,315.054,139.012,306.608,131.043,297.757z"/>
	<path fill="#C1B156" d="M130.044,335.044l9.741-15.644L61.427,270.61L51.376,286.75l0.021,0.012
		c-4.772,8.624,8.401,26.16,29.773,39.469c21.643,13.475,43.479,17.505,48.772,9.002
		C129.981,335.172,130.009,335.107,130.044,335.044z"/>
	<path fill="#569456" d="M139.334,320.151c-5.295,8.504-27.132,4.473-48.771-9.002c-21.641-13.475-34.893-31.293-29.599-39.796
		c3.93-6.31,16.961-5.718,32.265,0.509c5.323,2.165,10.923,5.015,16.509,8.493C131.378,293.83,144.629,311.649,139.334,320.151z"/>
	<path fill="#467846" d="M92.295,308.345c-26.479-16.33-29.73-31.746-29.522-38.966c-0.726,0.562-1.335,1.215-1.809,1.974
		c-5.271,8.464,7.84,26.156,29.304,39.608c-0.002,0.004-0.005,0.006-0.008,0.01c0.104,0.061,0.204,0.124,0.309,0.185
		c0.021,0.014,0.044,0.024,0.064,0.037c0.078,0.048,0.156,0.095,0.234,0.144c0.002-0.002,0.004-0.006,0.005-0.008
		c21.939,12.662,46.219,16.56,49.253,7.335c0.279-0.849,0.346-1.576,0.363-2.521C134.141,322.865,119.085,324.049,92.295,308.345z"
		/>
	<path fill="#B3A450" d="M88.781,314.008c19.099,11.893,37.945,16.424,46.9,11.981l3.88-5.008c-0.02-0.012,0.232,0.256,0.213,0.244
		c-0.724-0.403-1.214-0.355-1.617,0.368c-0.049,0.087-0.559,0.599-0.611,0.683c-4.246,6.821-24.502,3.305-47.179-10.815
		c-22.678-14.121-31.983-27.407-30.594-36.071c0.131-0.816,0.652-2.997,0.996-3.725l-3.437,5.518
		C57.28,287.18,69.665,302.106,88.781,314.008z"/>
	<polygon fill="#F2ED61" points="80.904,281.657 93.105,306.516 120.906,306.313 108.764,283.865 	"/>
	<path fill="#525AA3" d="M87.628,286.03c1.994-3.236,9.564-2.19,16.91,2.336c1.311,0.808,2.625,1.446,3.725,2.339
		c5.065,4.109,7.603,9.056,5.965,11.714c-1.993,3.235-9.564,2.189-16.909-2.336C89.972,295.557,85.635,289.265,87.628,286.03z"/>
	<path fill="#FFFFFF" d="M90.479,294.897c0.784,0.841,1.671,1.681,2.65,2.496c3.92-6.979,13.293-6.121,16.404-5.615
		c-0.82-0.729-1.712-1.446-2.675-2.14C96.759,288.168,92.102,292.704,90.479,294.897z"/>
	<path fill="#F0F4E4" d="M140.383,317.592c0.82-0.092,2.695,0.938,1.359,3.317c-0.074,0.132-0.149,0.263-0.229,0.389
		c-5.938,9.536-28.718,5.718-51.857-8.694l0,0c-23.142-14.408-36.619-33.166-30.683-42.701c0.445-0.717,1.374-0.905,2.107-0.488
		c0.622,0.353,0.773,0.892,0.773,0.892s-0.809,1.086-1.22,2.714c-1.986,7.768,9.156,23.612,30.638,36.989
		c22.801,14.196,41.945,16.955,47.644,10.108C139.943,318.93,140.383,317.592,140.383,317.592z"/>
	<path fill="#F0F4E4" d="M115.284,336.686c-0.703-0.438-0.919-1.363-0.48-2.065l6.643-10.667c0.438-0.702,1.364-0.92,2.066-0.48
		c0.702,0.438,0.918,1.364,0.479,2.065l-6.643,10.667C116.912,336.907,115.986,337.122,115.284,336.686L115.284,336.686z"/>
	<path fill="#F0F4E4" d="M56.736,300.231c-0.703-0.438-0.919-1.364-0.481-2.067l6.644-10.666c0.438-0.703,1.364-0.919,2.066-0.48
		s0.918,1.363,0.479,2.066l-6.642,10.667C58.364,300.45,57.439,300.668,56.736,300.231L56.736,300.231z"/>
	<path fill="#F0F4E4" d="M82.12,324.704c-0.703-0.438-0.919-1.362-0.479-2.065l6.642-10.668c0.438-0.703,1.364-0.918,2.067-0.479
		s0.918,1.362,0.479,2.065l-6.643,10.668C83.749,324.928,82.823,325.143,82.12,324.704L82.12,324.704z"/>
	<path fill="#DCE0D2" d="M91.944,322.559c0,0,10.587,6.908,19.718,7.672C110.723,337.077,94.697,332.78,91.944,322.559z"/>
	<path fill="#F0F4E4" d="M110.374,332.52c-8.078-0.496-14.605-6.292-17.571-9.427c-0.549-0.333-0.857-0.534-0.857-0.534
		C94.297,331.294,106.337,335.696,110.374,332.52z"/>
	<path fill="#DCE0D2" d="M79.711,314.942c0,0-10.871-6.451-15.584-14.309C58.396,304.494,69.324,316.982,79.711,314.942z"/>
	<path fill="#F0F4E4" d="M62.64,302.797c4.011,7.029,12.093,10.332,16.214,11.61c0.539,0.345,0.855,0.533,0.855,0.533
		C70.834,316.686,61.572,307.823,62.64,302.797z"/>
	<path fill="#DCE0D2" d="M122.737,332.616c0,0,6.383,1.988,10.029-1.942c2.408,3.567,1.34,6.535-1.896,5.905
		C128.343,336.086,122.737,332.616,122.737,332.616z"/>
	<path fill="#DCE0D2" d="M57.099,291.746c0,0-4.602-4.853-2.683-9.857c-4.266-0.588-6.456,1.68-4.464,4.305
		C51.513,288.246,57.099,291.746,57.099,291.746z"/>
	<polygon fill="#FFFFFF" points="104.783,298.579 105.913,299.159 106.38,298.592 106.61,299.518 107.741,300.097 106.754,300.09 
		106.985,301.016 106.143,300.086 105.158,300.077 105.625,299.511 	"/>
	<polygon fill="#FFFFFF" points="108.262,296.145 109.162,296.608 109.531,296.156 109.716,296.895 110.613,297.357 109.83,297.35 
		110.013,298.086 109.345,297.345 108.561,297.338 108.931,296.887 	"/>
	<polygon fill="#FFFFFF" points="110.587,300.323 111.135,300.615 111.36,300.34 111.473,300.795 112.021,301.086 111.543,301.075 
		111.656,301.531 111.248,301.069 110.769,301.059 110.995,300.783 	"/>
	<polygon fill="#FFFFFF" points="98.762,295.733 99.873,296.299 100.333,295.74 100.557,296.649 101.668,297.213 100.698,297.209 
		100.922,298.117 100.097,297.207 99.128,297.203 99.589,296.644 	"/>
	<polygon fill="#FFFFFF" points="101.912,293.383 102.635,293.744 102.937,293.377 103.079,293.969 103.803,294.328 103.17,294.332 
		103.312,294.924 102.778,294.335 102.144,294.339 102.448,293.971 	"/>
	<polygon fill="#FFFFFF" points="95.99,287.309 96.713,287.671 97.014,287.303 97.157,287.895 97.88,288.255 97.246,288.259 
		97.389,288.85 96.855,288.262 96.222,288.265 96.524,287.898 	"/>
</g>
</svg>
