<?xml version="1.0" encoding="utf-8"?>
<!-- Generator: Adobe Illustrator 18.0.0, SVG Export Plug-In . SVG Version: 6.00 Build 0)  -->
<!DOCTYPE svg PUBLIC "-//W3C//DTD SVG 1.1//EN" "http://www.w3.org/Graphics/SVG/1.1/DTD/svg11.dtd">
<svg version="1.1" id="content" xmlns="http://www.w3.org/2000/svg" xmlns:xlink="http://www.w3.org/1999/xlink" x="0px" y="0px"
	 width="500px" height="500px" viewBox="0 0 500 500" enable-background="new 0 0 500 500" xml:space="preserve">
<g id="bounds" display="none">
	<g id="bounds_1_" display="inline">
		<rect x="17.1" y="270.7" fill="none" stroke="#000000" stroke-width="0.9417" width="193.5" height="192"/>
	</g>
</g>
<rect id="position" display="none" fill="none" stroke="#000000" stroke-width="0.9417" width="500" height="500"/>
<g>
	<g>
		<path fill="#404041" d="M135.2,433.3c-8,0-14.5-6.5-14.5-14.5s6.5-14.5,14.5-14.5s14.5,6.5,14.5,14.5S143.3,433.3,135.2,433.3z
			 M135.2,407.5c-6.2,0-11.2,5-11.2,11.2s5,11.2,11.2,11.2s11.2-5,11.2-11.2S141.4,407.5,135.2,407.5z"/>
	</g>
	<g>
		
			<rect x="122.3" y="417.1" transform="matrix(0.8732 0.4874 -0.4874 0.8732 221.2299 -12.8064)" fill="#404041" width="25.8" height="3.3"/>
	</g>
	<g>
		
			<rect x="133.5" y="405.9" transform="matrix(0.8732 0.4874 -0.4874 0.8732 221.2573 -12.7851)" fill="#404041" width="3.3" height="25.8"/>
	</g>
	<g>
		<polygon fill="#FFDD15" points="85.2,298.4 94.3,295.1 137.9,418.2 132.3,420.4 		"/>
	</g>
	<g>
		<polygon fill="#FFC700" points="85.2,298.4 89.8,296.7 135.1,419.3 132.3,420.4 108.8,359.4 		"/>
	</g>
	<g>
		<polygon points="137.9,418.2 146,448.7 132.3,420.4 		"/>
	</g>
	<g>
		<path fill="#404041" d="M129,431.7c-0.3,0-0.5-0.1-0.8-0.2c-0.8-0.4-1.1-1.5-0.6-2.2l6.3-11.3c0.4-0.8,1.5-1.1,2.2-0.6
			c0.8,0.4,1.1,1.5,0.6,2.2l-6.3,11.3C130.1,431.4,129.5,431.7,129,431.7z"/>
	</g>
	<g>
		<path fill="#404041" d="M146.5,426.7c-0.3,0-0.5-0.1-0.8-0.2l-11.3-6.3c-0.8-0.4-1.1-1.5-0.6-2.2c0.4-0.8,1.5-1.1,2.2-0.6
			l11.3,6.3c0.8,0.4,1.1,1.5,0.6,2.2C147.6,426.4,147.1,426.7,146.5,426.7z"/>
	</g>
	<g>
		<circle fill="#333333" cx="105" cy="337.3" r="16"/>
	</g>
	<g>
		<polygon fill="#666666" points="85.2,298.4 94.3,295.1 108.6,335.3 100.6,338.2 		"/>
	</g>
	<g>
		<path fill="#404041" d="M135.2,433.3c-8,0-14.5-6.5-14.5-14.5s6.5-14.5,14.5-14.5s14.5,6.5,14.5,14.5S143.3,433.3,135.2,433.3z
			 M135.2,407.5c-6.2,0-11.2,5-11.2,11.2s5,11.2,11.2,11.2s11.2-5,11.2-11.2S141.4,407.5,135.2,407.5z"/>
	</g>
	<g>
		<polygon fill="#FFDD15" points="132,401.5 134.8,409.4 137.9,418.2 132.3,420.4 128.9,411.5 125.7,403.3 		"/>
	</g>
	<g>
		<polygon fill="#FFC700" points="128.9,402.4 133.1,413.4 135.1,419.3 132.3,420.4 128.9,411.5 125.7,403.3 		"/>
	</g>
	<g>
		<path fill="#95C8EC" d="M92.8,329.4c0-11-2.6-20.3-6.3-23.2c0.8-0.6,1.6-1,2.5-1c4.8,0,8.7,10.8,8.7,24.2
			c0,13.4-3.9,24.2-8.7,24.2c-0.9,0-1.7-0.4-2.5-1C90.1,349.7,92.8,340.4,92.8,329.4z"/>
	</g>
	<g>
		<path fill="#B5E4FA" d="M85.1,329.4c0-11,2.6-20.3,6.3-23.2c-0.8-0.6-1.6-1-2.5-1c-4.8,0-8.7,10.8-8.7,24.2
			c0,13.4,3.9,24.2,8.7,24.2c0.9,0,1.7-0.4,2.5-1C87.7,349.7,85.1,340.4,85.1,329.4z"/>
	</g>
	<g>
		<circle fill="#333333" cx="90.1" cy="297.6" r="12.4"/>
	</g>
	<g>
		<circle fill="#666666" cx="90.1" cy="297.6" r="5.8"/>
	</g>
	<g>
		<circle fill="#666666" cx="104.5" cy="336.6" r="4.3"/>
	</g>
	<g>
		<circle fill="#404041" cx="135.7" cy="420.8" r="3.1"/>
	</g>
	<g>
		<g>
			<path fill="#404041" d="M138.4,418.8l-2.1-5.1c-0.1,1.7-1.5,3.1-3.3,3.1c-1.2,0-2.2-0.6-2.8-1.5l2,5.6l1,1.5l5.4-1.3L138.4,418.8
				z"/>
		</g>
	</g>
</g>
</svg>
