<?xml version="1.0" encoding="utf-8"?>
<!-- Generator: Adobe Illustrator 18.0.0, SVG Export Plug-In . SVG Version: 6.00 Build 0)  -->
<!DOCTYPE svg PUBLIC "-//W3C//DTD SVG 1.1//EN" "http://www.w3.org/Graphics/SVG/1.1/DTD/svg11.dtd">
<svg version="1.1" id="content" xmlns="http://www.w3.org/2000/svg" xmlns:xlink="http://www.w3.org/1999/xlink" x="0px" y="0px"
	 viewBox="0 0 500 500" enable-background="new 0 0 500 500" xml:space="preserve">
<g id="bounds" display="none">
	<rect x="67.7" y="253.2" display="inline" fill="none" stroke="#000000" stroke-width="1.0717" width="68.8" height="68.8"/>
</g>
<path id="position" display="none" d="M499,1v498H1V1H499 M500,0H0v500h500V0L500,0z"/>
<g>
	<g>
		<path fill="#F7D444" d="M76.5,275.6c7.9,6.5,21.9,16.3,45.5,23.7H78.7c-1.8,0-3.7-0.3-3.7-2.7V278
			C74.9,276.6,75.6,275.9,76.5,275.6z"/>
	</g>
	<g>
		<path fill="#FFDF46" d="M78.6,275.3h31.7c5.4,2.5,12.7,5.8,18.8,9v12.3c0,2.5-1.8,2.7-3.7,2.7h-3.6c-23.7-7.4-37.5-17.2-45.5-23.7
			C77.1,275.4,77.9,275.3,78.6,275.3z"/>
	</g>
	<g>
		<path fill="#F7D444" d="M125.5,275.3c1.8,0,3.7,0.3,3.7,2.7v6.3c-6.2-3.2-13.4-6.5-18.8-9L125.5,275.3L125.5,275.3z"/>
	</g>
	<g>
		<g>
			<g>
				<circle fill="#FFC100" cx="124.2" cy="286.9" r="4.7"/>
			</g>
			<g>
				<circle fill="#FFC100" cx="115.3" cy="286.9" r="4.7"/>
			</g>
			<g>
				<circle fill="#FFC100" cx="106.4" cy="286.9" r="4.7"/>
			</g>
			<g>
				<circle fill="#FFC100" cx="97.6" cy="286.9" r="4.7"/>
			</g>
			<g>
				<circle fill="#FFC100" cx="88.7" cy="286.9" r="4.7"/>
			</g>
			<g>
				<circle fill="#FFC100" cx="79.8" cy="286.9" r="4.7"/>
			</g>
		</g>
		<g>
			<path fill="#FF9900" d="M128.4,286.8c-0.1,0-0.1,0-0.1-0.1c-0.2-1.7-1.3-2.9-2.9-3.4c-0.1,0-0.1-0.1-0.1-0.2
				c0-0.1,0.1-0.1,0.2-0.1c1.7,0.4,2.8,1.6,3.1,3.6C128.5,286.7,128.5,286.8,128.4,286.8L128.4,286.8z"/>
		</g>
		<g>
			<path fill="#FF9900" d="M119.6,286.8c-0.1,0-0.1,0-0.1-0.1c-0.2-1.7-1.3-2.9-2.9-3.4c-0.1,0-0.1-0.1-0.1-0.2
				c0-0.1,0.1-0.1,0.2-0.1c1.7,0.4,2.8,1.6,3.1,3.6C119.7,286.7,119.7,286.8,119.6,286.8L119.6,286.8z"/>
		</g>
		<g>
			<path fill="#FF9900" d="M110.8,286.8c-0.1,0-0.1,0-0.1-0.1c-0.2-1.7-1.3-2.9-2.9-3.4c-0.1,0-0.1-0.1-0.1-0.2
				c0-0.1,0.1-0.1,0.2-0.1c1.7,0.4,2.8,1.6,3.1,3.6C110.9,286.7,110.9,286.8,110.8,286.8L110.8,286.8z"/>
		</g>
		<g>
			<path fill="#FF9900" d="M101.8,286.8c-0.1,0-0.1,0-0.1-0.1c-0.2-1.7-1.3-2.9-2.9-3.4c-0.1,0-0.1-0.1-0.1-0.2
				c0-0.1,0.1-0.1,0.2-0.1c1.7,0.4,2.8,1.6,3.1,3.6C102,286.7,101.9,286.8,101.8,286.8L101.8,286.8z"/>
		</g>
		<g>
			<path fill="#FF9900" d="M92.9,286.8c-0.1,0-0.1,0-0.1-0.1c-0.2-1.7-1.3-2.9-2.9-3.4c-0.1,0-0.1-0.1-0.1-0.2
				c0-0.1,0.1-0.1,0.2-0.1c1.7,0.4,2.8,1.6,3.1,3.6C93,286.7,92.9,286.8,92.9,286.8L92.9,286.8z"/>
		</g>
		<g>
			<path fill="#FF9900" d="M84,286.8c-0.1,0-0.1,0-0.1-0.1c-0.2-1.7-1.3-2.9-2.9-3.4c-0.1,0-0.1-0.1-0.1-0.2c0-0.1,0.1-0.1,0.2-0.1
				c1.7,0.4,2.8,1.6,3.1,3.6C84.1,286.7,84,286.8,84,286.8L84,286.8z"/>
		</g>
	</g>
</g>
</svg>
