<?xml version="1.0" encoding="utf-8"?>
<!-- Generator: Adobe Illustrator 18.0.0, SVG Export Plug-In . SVG Version: 6.00 Build 0)  -->
<!DOCTYPE svg PUBLIC "-//W3C//DTD SVG 1.1//EN" "http://www.w3.org/Graphics/SVG/1.1/DTD/svg11.dtd">
<svg version="1.1" id="content" xmlns="http://www.w3.org/2000/svg" xmlns:xlink="http://www.w3.org/1999/xlink" x="0px" y="0px"
	 width="500px" height="500px" viewBox="0 0 500 500" enable-background="new 0 0 500 500" xml:space="preserve">
<rect id="position" display="none" fill="none" stroke="#000000" width="500" height="500"/>
<g id="bounds" display="none">
	<rect x="26.8" y="271" display="inline" fill="none" stroke="#000000" stroke-width="1.2759" width="147.9" height="160.9"/>
</g>
<g id="accessory">
	<path fill="#513D15" d="M143.3,361.6l-42,0.8l-42-0.8c0,0-19.2,39.9,5.8,42.7c12.6,1.9,26.9-1.4,36.2-1.4s23.6,3.3,36.2,1.4
		C162.5,401.5,143.3,361.6,143.3,361.6z"/>
	<path fill="#44300D" d="M52.3,388.3c0,8,2.9,14.9,12.8,16c7.8,1.2,16.1,0.4,23.6-0.4C84.6,390.1,63.2,388.3,52.3,388.3z"/>
	<path fill="#44300D" d="M150.3,388.3c0,8-2.9,14.9-12.8,16c-7.8,1.2-16.1,0.4-23.6-0.4C118,390.1,139.4,388.3,150.3,388.3z"/>
	<path fill="#E7D9B2" d="M142.9,360.7l-41.6,0.8l-41.6-0.8c0,0-5.6,16.3,19.6,16.3c21.9,0,21.9,0,21.9,0s0,0,21.9,0
		C148.5,377,142.9,360.7,142.9,360.7z"/>
	<circle fill="#513D15" cx="139.4" cy="364.2" r="3"/>
	<circle fill="#513D15" cx="63.5" cy="364.2" r="3"/>
	<circle fill="#BA9072" cx="55.8" cy="391.1" r="0.9"/>
	<circle fill="#BA9072" cx="82.8" cy="401.9" r="0.9"/>
	<circle fill="#BA9072" cx="62.5" cy="392.6" r="1.6"/>
	<circle fill="#BA9072" cx="77.5" cy="397.9" r="1.6"/>
	<circle fill="#BA9072" cx="69.9" cy="394.4" r="2"/>
	<circle fill="#BA9072" cx="145.9" cy="391.1" r="0.9"/>
	<circle fill="#BA9072" cx="118.9" cy="401.9" r="0.9"/>
	<circle fill="#BA9072" cx="139.1" cy="392.6" r="1.6"/>
	<circle fill="#BA9072" cx="124.2" cy="397.9" r="1.6"/>
	<circle fill="#BA9072" cx="131.7" cy="394.4" r="2"/>
	<path fill="#BA9072" d="M101.3,361.5l-33.8-0.7c3.5,3.2,11.2,8,26.2,8c1.8,0,3.2,0,4.4,0c5.3,0,5.3,0,5.3,0c1.2,0,2.7,0,4.4,0
		c15,0,22.7-4.8,26.2-8L101.3,361.5z"/>
	<path fill="#EDDDCD" d="M61.9,351.2c0-0.7,0.6-1.3,1.3-1.3l0,0c0.7,0,1.3,0.6,1.3,1.3v11c0,0.7-0.6,1.3-1.3,1.3l0,0
		c-0.7,0-1.3-0.6-1.3-1.3V351.2z"/>
	<path fill="#EDDDCD" d="M61.9,339.1c0-0.7,0.6-1.3,1.3-1.3l0,0c0.7,0,1.3,0.6,1.3,1.3v11c0,0.7-0.6,1.3-1.3,1.3l0,0
		c-0.7,0-1.3-0.6-1.3-1.3V339.1z"/>
	<path fill="#EDDDCD" d="M140.7,351.2c0-0.7-0.6-1.3-1.3-1.3l0,0c-0.7,0-1.3,0.6-1.3,1.3v11c0,0.7,0.6,1.3,1.3,1.3l0,0
		c0.7,0,1.3-0.6,1.3-1.3V351.2z"/>
	<path fill="#EDDDCD" d="M140.7,339.1c0-0.7-0.6-1.3-1.3-1.3l0,0c-0.7,0-1.3,0.6-1.3,1.3v11c0,0.7,0.6,1.3,1.3,1.3l0,0
		c0.7,0,1.3-0.6,1.3-1.3V339.1z"/>
	<path fill="#90362B" d="M63.5,338.9L63.5,338.9c-0.7,0-1.2-0.6-1.2-1.2c0-0.4,0.5-9.9,5.5-19.6c4.7-9,14.2-19.8,33.5-19.8
		c19.2,0,28.8,10.8,33.5,19.8c5,9.7,5.5,19.2,5.5,19.6c0,0.6-0.5,1.2-1.1,1.2s-1.2-0.5-1.2-1.1c0-0.1-0.5-9.5-5.3-18.7
		c-6.3-12.3-16.9-18.5-31.4-18.5s-25.1,6.2-31.4,18.5c-4.8,9.2-5.2,18.6-5.2,18.7C64.6,338.4,64.1,338.9,63.5,338.9z"/>
	<path fill="#D3AD64" d="M111.8,389c0,1.1-0.9,2-2,2H93c-1.1,0-2-0.9-2-2v-5.7c0-1.1,0.9-2,2-2h16.8c1.1,0,2,0.9,2,2V389L111.8,389z
		"/>
	<circle fill="#AA8953" cx="93.2" cy="388.9" r="0.9"/>
	<circle fill="#AA8953" cx="93.2" cy="383.4" r="0.9"/>
	<circle fill="#AA8953" cx="109.6" cy="388.9" r="0.9"/>
	<circle fill="#AA8953" cx="109.6" cy="383.4" r="0.9"/>
</g>
</svg>
