<?xml version="1.0" encoding="utf-8"?>
<!-- Generator: Adobe Illustrator 18.0.0, SVG Export Plug-In . SVG Version: 6.00 Build 0)  -->
<!DOCTYPE svg PUBLIC "-//W3C//DTD SVG 1.1//EN" "http://www.w3.org/Graphics/SVG/1.1/DTD/svg11.dtd">
<svg version="1.1" id="content" xmlns="http://www.w3.org/2000/svg" xmlns:xlink="http://www.w3.org/1999/xlink" x="0px" y="0px"
	 width="500px" height="500px" viewBox="0 0 500 500" enable-background="new 0 0 500 500" xml:space="preserve">
<g id="bounds" display="none">
	<rect x="-43" y="148.7" display="inline" fill="none" stroke="#000000" stroke-width="1.2441" width="204.5" height="222.5"/>
</g>
<rect id="position" display="none" fill="none" stroke="#000000" width="500" height="500"/>
<g>
	<path fill="#EDF68E" d="M96.6,277.6c0.3,0.5,0.1,1.1-0.3,1.4l-36.5,21.9c-0.5,0.3-1.1,0.1-1.4-0.3l-1.6-2.7
		c-0.3-0.5-0.1-1.1,0.3-1.4l36.5-21.9c0.5-0.3,1.1-0.1,1.4,0.3L96.6,277.6z"/>
	<path fill="#99E3E0" d="M33.2,182.5c-8.8-5.3-22.8-7.3-22.8-7.3S5.6,188.5,6,198.8c10,18.1,48.2,76.3,65.7,88.8
		c4.4-2.6,4.4-2.6,4.4-2.6s0,0,4.4-2.6C77.8,261,44.5,199.9,33.2,182.5z"/>
	<path fill="#91D6D3" d="M68.4,278.6c-14.8-11.6-46.5-59.1-56.1-76.4c-0.2-6.7,2.2-15,3.2-18.2c3.3,0.6,11.8,2.4,17.6,5.7
		c10.8,16.6,37.7,66.9,41,85.5L68.4,278.6z"/>
	<path opacity="0.3" fill="#CBFAF8" enable-background="new    " d="M29.5,235.8l19-27.1c-4.4-8.1-8.5-15.2-11.8-20.6l-19.9,28.4
		C20.5,222.4,24.9,229,29.5,235.8z"/>
	<path opacity="0.3" fill="#CBFAF8" enable-background="new    " d="M55.3,270.6l14.1-20.2c-3.2-7.2-6.9-14.8-10.7-22.2l-17.2,24.6
		C46.2,259.2,50.9,265.3,55.3,270.6z"/>
	<path fill="#EDF68E" d="M87.6,289.1c0.3,0.5,0.1,1.1-0.3,1.4l-11.7,7c-0.5,0.3-1.1,0.1-1.4-0.3L68,286.9c-0.3-0.5-0.1-1.1,0.3-1.4
		l11.7-7c0.5-0.3,1.1-0.1,1.4,0.3L87.6,289.1z"/>
	<path fill="#DBE479" d="M80,278.5l-5.7,3.4l7.2,12l5.7-3.4c0.5-0.3,0.6-0.9,0.3-1.4l-6.2-10.3C81.1,278.4,80.5,278.2,80,278.5z"/>
	<path fill="#52552E" d="M80.5,292.3c0,0,5.1-3.4,7.1-3.2c6,7.1,17,26.4,16.3,32.8c-3.4,2-4.2,2.5-4.2,2.5L80.5,292.3z"/>
	<path fill="#636739" d="M80.5,292.3c0,0-5.4,2.9-6.1,4.7c3.4,8.6,15.3,27.5,21.2,29.8c3.4-2,4.2-2.5,4.2-2.5L80.5,292.3z"/>
	<path fill="#DBE479" d="M101.3,275.1c0.9,1.5,0.4,3.4-1.1,4.2l0,0c-1.5,0.9-3.4,0.4-4.2-1.1l-2-3.4c-0.9-1.5-0.4-3.4,1.1-4.2l0,0
		c1.5-0.9,3.4-0.4,4.2,1.1L101.3,275.1z"/>
	<path fill="#DBE479" d="M60.3,299.7c0.9,1.5,0.4,3.4-1.1,4.2l0,0c-1.5,0.9-3.4,0.4-4.2-1.1l-2-3.4c-0.9-1.5-0.4-3.4,1.1-4.2l0,0
		c1.5-0.9,3.4-0.4,4.2,1.1L60.3,299.7z"/>
	
		<rect x="83.9" y="280" transform="matrix(-0.8575 0.5145 -0.5145 -0.8575 313.1312 475.4403)" fill="#DBE479" width="13.7" height="2.1"/>
	<path fill="#EDF68E" d="M111.3,325.7c-2.6-4.4-8.3-5.8-12.7-3.2l0,0c-4.4,2.6-5.8,8.3-3.2,12.7l0,0c2.6,4.4,8.3,5.8,12.7,3.2l0,0
		C112.5,335.7,113.9,330.1,111.3,325.7L111.3,325.7z"/>
	<path fill="#DBE479" d="M107.7,327.9c-1.4-2.4-4.5-3.1-6.9-1.7l0,0c-2.4,1.4-3.1,4.5-1.7,6.9l0,0c1.4,2.4,4.5,3.1,6.9,1.7l0,0
		C108.3,333.3,109.1,330.2,107.7,327.9L107.7,327.9z"/>
</g>
</svg>
