<?xml version="1.0" encoding="utf-8"?>
<!-- Generator: Adobe Illustrator 18.0.0, SVG Export Plug-In . SVG Version: 6.00 Build 0)  -->
<!DOCTYPE svg PUBLIC "-//W3C//DTD SVG 1.1//EN" "http://www.w3.org/Graphics/SVG/1.1/DTD/svg11.dtd">
<svg version="1.1" id="content" xmlns="http://www.w3.org/2000/svg" xmlns:xlink="http://www.w3.org/1999/xlink" x="0px" y="0px"
	 width="500px" height="500px" viewBox="0 0 500 500" enable-background="new 0 0 500 500" xml:space="preserve">
<g id="bounds" display="none">
	<rect x="-17" y="178.1" display="inline" fill="none" stroke="#000000" stroke-width="1.0144" width="188.8" height="201.4"/>
</g>
<rect id="position" display="none" fill="none" stroke="#000000" width="500" height="500"/>
<g>
	<path fill="#537A02" d="M82.3,268.1c7.9,10,9.6,18,9.6,18s7.2,27.2,9.9,37.4s-5.4,12.3-5.4,12.3l-7.9,2.1l-7.9,2.1
		c0,0-8.1,2.1-10.8-8.1c-2.7-10.2-9.9-37.4-9.9-37.4s-2.6-7.8-0.5-20.4L82.3,268.1L82.3,268.1z"/>
	<path fill="#405E02" d="M81.2,339.9c2.1-5,5.9-20.4-5.4-52.2c-2.2-6.3-4.1-11.7-5.8-16.3l12.3-3.2c7.9,10,9.6,18,9.6,18
		s7.2,27.2,9.9,37.4s-5.4,12.3-5.4,12.3l-7.9,2.1L81.2,339.9L81.2,339.9z"/>
	<path fill="#F9CF1C" d="M77.4,260.4l-0.5-1c-5.3-9.5-9-23.3-10.3-27.8l1-0.3l-0.2-0.8l-1.2-4.7l-1.2,0.3l-1.7-6.3
		c0-0.1-0.2-1.2-1.4-1.9c-1.2-0.8-2.9-0.9-5.1-0.3c-2.1,0.6-3.6,1.5-4.2,2.8c-0.7,1.3-0.3,2.3-0.3,2.5l1.6,6.2l-1.2,0.3l1.5,5.5
		l1-0.3c1.1,4.5,4.6,18.4,4.7,29.3v1.1L77.4,260.4z"/>
	<path opacity="0.5" fill="#FFEF27" enable-background="new    " d="M61.8,232.1c0,0,6.6,23.7,11.3,30.4c3.5-0.9,3.5-0.9,3.5-0.9
		s-6.9-14-11.2-30.4C61.9,232,61.8,232.1,61.8,232.1z"/>
	<g>
		<path fill="#BCBC06" d="M69.1,259.6L69.1,259.6L69.1,259.6z"/>
	</g>
	<path opacity="0.5" fill="#FFFFFF" enable-background="new    " d="M94.6,331.3l-6.3-25.5c0,0-4.5-21.7-12-36.3
		c3.3-0.9,3.3-0.9,3.3-0.9s6.1,6,9.6,19.2c3.4,13.2,10,38.2,10,38.2S100.4,329.8,94.6,331.3z"/>
	<path fill="#232323" d="M94.8,297.1c2.2,8.5,5.2,19.8,6.8,25.9c-2.3,1.8-7,4.5-15.8,6.8c-8.7,2.3-13.3,2.2-15.9,2.1
		c-0.1-0.3,0.1,0.3,0,0c-1.6-6-4.7-17.6-7-26.4L94.8,297.1z"/>
	<path fill="#232323" d="M82.7,268.6c-4.2,1-17.4,4.7-23.2,6c0.4-3,0.6-7.3,0.4-11.2l16.8-4.4l0,0c1.8,3.5,3.7,6.8,5.6,9.2
		C82.4,268.3,82.5,268.4,82.7,268.6z"/>
	<circle fill="#232323" cx="69.1" cy="265.9" r="6.8"/>
	<circle opacity="0.5" fill="#FFFF00" enable-background="new    " cx="69.1" cy="265.9" r="4.8"/>
	<path opacity="0.5" fill="#FFEF27" enable-background="new    " d="M64.1,226.2l-1.2-4.6c0,0-0.9-5.7-6.9-3.1
		c3.2-0.6,4.8,8.6,4.8,8.6L64.1,226.2L64.1,226.2z"/>
	<path fill="#FFF35A" d="M53.7,234.5c0.1,0.5,0.6,0.8,1.1,0.7l12.4-3.3c0.5-0.1,0.8-0.6,0.7-1.1l-1.1-4.3c-0.1-0.5-0.6-0.8-1.1-0.7
		l-12.4,3.3c-0.5,0.1-0.8,0.6-0.7,1.1L53.7,234.5z"/>
	<path fill="#3B3B3B" d="M91.8,297.9l7.1,27c0,0-3,1.8-5.3,2.4c-1.1-4.3-6.8-28-6.8-28L91.8,297.9z"/>
	<path opacity="0.8" fill="#FFFF00" enable-background="new    " d="M71,323.2l23.2-6.1c-1.2-3.4-4.4-5.8-8.3-6.5l1.3-3.7
		c0.1-0.2,0-0.5-0.2-0.5c-0.2-0.1-0.4,0-0.5,0.3l-1.4,3.8c-1.6-0.2-3.3-0.1-5.1,0.4c-1.7,0.5-3.3,1.2-4.6,2.2l-3.1-2.6
		c-0.2-0.2-0.4-0.1-0.6,0c-0.1,0.2-0.1,0.4,0.1,0.6l3,2.5C71.9,315.9,70.4,319.6,71,323.2z M85,314.7c-0.2-0.7,0.2-1.4,0.9-1.6
		c0.7-0.2,1.4,0.2,1.6,0.9c0.2,0.7-0.2,1.4-0.9,1.6C85.9,315.8,85.2,315.4,85,314.7z M75.3,317.2c-0.2-0.7,0.2-1.4,0.9-1.6
		c0.7-0.2,1.4,0.2,1.6,0.9c0.2,0.7-0.2,1.4-0.9,1.6C76.2,318.4,75.5,317.9,75.3,317.2z"/>
</g>
</svg>
