<?xml version="1.0" encoding="utf-8"?>
<!-- Generator: Adobe Illustrator 18.0.0, SVG Export Plug-In . SVG Version: 6.00 Build 0)  -->
<!DOCTYPE svg PUBLIC "-//W3C//DTD SVG 1.1//EN" "http://www.w3.org/Graphics/SVG/1.1/DTD/svg11.dtd">
<svg version="1.1" id="content" xmlns="http://www.w3.org/2000/svg" xmlns:xlink="http://www.w3.org/1999/xlink" x="0px" y="0px"
	 width="500px" height="500px" viewBox="0 0 500 500" enable-background="new 0 0 500 500" xml:space="preserve">
<rect id="position" display="none" fill="none" stroke="#000000" width="500" height="500"/>
<g>
	<g>
		<path fill="#FFDD52" d="M108.5,264.4c2.1-0.3,4.5-0.2,5,0.9c-1.9,0.6-3.1,2.1-2.7,3.5c0.4,1.4,2.3,2,4.2,1.4
			c0.9-0.3,1.6-0.7,2.1-1.3c3,0.8,12.4,6.6,13.6,9.1l-64.2,18.6C66.5,296.6,106.2,264.8,108.5,264.4z"/>
		<path opacity="0.69" fill="#CAAD17" d="M110.8,268.8c-0.4-1.4,0.8-2.9,2.7-3.5c0,0,0.1,0.1,0.1,0.1c0.3,1.2,0.7,3.3,3,3.4
			c0.1,0,0.3,0,0.5,0.1c-0.5,0.6-1.2,1.1-2.1,1.3C113.1,270.8,111.2,270.1,110.8,268.8z"/>
	</g>
	<g>
		<path fill="#FDD02B" d="M66.5,296.6l64.2-18.6c0,0,4.2,14.2,5.1,16.9s1.1,7.8-3.1,9c-4.2,1.2-12.1,3.6-12.1,3.6s-0.3-0.1-0.7-0.1
			c0.1-0.5,0.1-0.9,0-1.4c-0.5-1.5-2.1-2.4-3.6-2c-1.5,0.5-2.4,2.1-2,3.6c0.2,0.6,0.6,1.1,1.1,1.5c-0.2,0.3-0.4,0.5-0.6,0.9
			c0,0-29.2,8.7-31.1,9.3c-1.9,0.6-4.7-0.4-5.6-1.9c-0.9-1.5,2.9-2.1,1.1-4.9c-1.8-2.7-4.2-3-6.7-5.6c-2.5-2.5-2.3-5.1-3.5-5
			C67.7,302.1,66.5,296.6,66.5,296.6z"/>
		<path fill="#CAAD17" d="M116.3,304c1.5-0.5,3.2,0.4,3.6,2c0.1,0.5,0.1,1,0,1.4c-1-0.1-3.1-0.1-4.6,1.7c-0.5-0.4-0.9-0.9-1.1-1.5
			C113.8,306.1,114.7,304.5,116.3,304z"/>
	</g>
	<circle fill="#CAAD17" cx="125.7" cy="293.4" r="4.4"/>
	<circle fill="#CAAD17" cx="82.7" cy="301.7" r="4.4"/>
	<circle fill="#CAAD17" cx="100.2" cy="304.3" r="3.6"/>
	<circle fill="#CAAD17" cx="108.4" cy="292.2" r="2.9"/>
	
		<ellipse transform="matrix(-0.9583 0.2858 -0.2858 -0.9583 307.6964 506.4377)" opacity="0.69" fill="#CAAD17" cx="116.9" cy="275.7" rx="3.6" ry="2.1"/>
	
		<ellipse transform="matrix(-0.9583 0.2858 -0.2858 -0.9583 288.0141 521.525)" opacity="0.69" fill="#CAAD17" cx="105.9" cy="281.8" rx="2.3" ry="1.6"/>
	
		<ellipse transform="matrix(-0.9583 0.2858 -0.2858 -0.9583 248.7836 537.7639)" opacity="0.69" fill="#CAAD17" cx="85.1" cy="287" rx="2.3" ry="1.6"/>
	
		<ellipse transform="matrix(-0.9583 0.2858 -0.2858 -0.9583 272.195 514.2062)" opacity="0.69" fill="#CAAD17" cx="98.6" cy="277" rx="3.6" ry="2.6"/>
	<path fill="#FCDD74" d="M129.9,292.1c0,0,1.3,3.9-3,5.6C126.9,297.7,130.1,295.6,129.9,292.1z"/>
	<path fill="#FCDD74" d="M119.3,304.9c0,0,0.9,1,0.6,2.6l-0.6,0C119.3,307.4,119.7,306.6,119.3,304.9z"/>
	<path fill="#FCDD74" d="M110.9,290.6c0,0,1.6,2.6-1,4.2C109.9,294.8,111.4,293.1,110.9,290.6z"/>
	<path fill="#FCDD74" d="M103.6,302.8c0,0,1.5,4-3,5.1C100.6,307.9,104.1,306.4,103.6,302.8z"/>
	<path fill="#FCDD74" d="M86.7,299.8c0,0,2,4.9-3.3,6.2C83.4,306,87.4,303.8,86.7,299.8z"/>
</g>
<g id="bounds" display="none">
	<rect x="30.4" y="214.7" display="inline" fill="none" stroke="#000000" stroke-width="0.986" width="141.7" height="154.2"/>
</g>
</svg>
