<?xml version="1.0" encoding="utf-8"?>
<!-- Generator: Adobe Illustrator 18.0.0, SVG Export Plug-In . SVG Version: 6.00 Build 0)  -->
<!DOCTYPE svg PUBLIC "-//W3C//DTD SVG 1.1//EN" "http://www.w3.org/Graphics/SVG/1.1/DTD/svg11.dtd">
<svg version="1.1" id="content" xmlns="http://www.w3.org/2000/svg" xmlns:xlink="http://www.w3.org/1999/xlink" x="0px" y="0px"
	 width="500px" height="500px" viewBox="0 0 500 500" enable-background="new 0 0 500 500" xml:space="preserve">
<rect id="position" display="none" fill="none" stroke="#000000" width="500" height="500"/>
<g id="bounds" display="none">
	<rect x="38.8" y="229.7" display="inline" fill="none" stroke="#000000" stroke-width="0.7531" width="106.2" height="108.1"/>
</g>
<g>
	<g opacity="0.3">
		<path fill="#EBEFF2" d="M104.1,265c0,0,13.4,28.6,15.4,33s0.3,10.5-10.3,15.4l-0.6,0.3c-10.6,4.9-16.4,2.3-18.4-2
			s-15.4-33-15.4-33s-0.1-4.3,13.9-10.8C102.8,261.2,104.1,265,104.1,265z"/>
	</g>
	<g opacity="0.4">
		
			<ellipse transform="matrix(-0.4226 -0.9063 0.9063 -0.4226 -127.346 537.302)" fill="#EBEFF2" cx="107.5" cy="309.2" rx="2.3" ry="9.3"/>
	</g>
	<g>
		<g>
			<path fill="#FFF599" d="M82.5,273.3c0.5,1.2,0.8,2.4,0.9,3.6c0.2,3.7-1.9,7.4-5.5,9.1c-4.8,2.2-10.4,0.2-12.7-4.6
				c-2.2-4.8-0.2-10.4,4.6-12.7S80.3,268.5,82.5,273.3z"/>
		</g>
		<g>
			<path fill="#FFCF00" d="M78.1,286.4c-5,2.3-11,0.2-13.3-4.9c-2.3-5-0.2-11,4.9-13.3c5-2.3,11-0.2,13.3,4.9
				c0.6,1.2,0.9,2.5,0.9,3.8C84.1,280.9,81.8,284.7,78.1,286.4z M70.1,269.1c-4.5,2.1-6.5,7.5-4.4,12s7.5,6.5,12,4.4
				c3.3-1.6,5.4-4.9,5.2-8.6c-0.1-1.2-0.3-2.3-0.8-3.4C79.9,269,74.6,267,70.1,269.1z"/>
		</g>
	</g>
	<g>
		<path fill="#F5F5F5" d="M98,284.5l-2,0.6c-0.2-0.7-5.2-17.7-6.4-23.3c-0.5-1.9-0.3-3.7,0.8-5.3c2.9-4.3,10.8-5.3,11.1-5.3l0.2,2
			c-0.1,0-7.3,0.9-9.6,4.4c-0.7,1.1-0.9,2.3-0.5,3.6C92.9,266.9,98,284.3,98,284.5z"/>
	</g>
	<g opacity="0.6">
		
			<ellipse transform="matrix(-0.4226 -0.9063 0.9063 -0.4226 -121.5681 487.5181)" fill="#FF5000" cx="94.5" cy="282.5" rx="3.9" ry="14.9"/>
	</g>
	<g opacity="0.6">
		<path fill="#DE3300" d="M90.5,309.3c0.9,1.9,7.7,0.7,15.2-2.8s12.8-7.9,11.9-9.8l-9.6-20.5c0.9,1.9-4.4,6.3-11.9,9.8
			s-14.3,4.7-15.2,2.8L90.5,309.3z"/>
	</g>
	<g opacity="0.2">
		<path fill="#FFFFFF" d="M104.1,265c0,0,13.4,28.6,15.4,33s0.3,10.5-10.3,15.4l-0.6,0.3c-10.6,4.9-16.4,2.3-18.4-2
			s-15.4-33-15.4-33s6.2-0.4,15.8-4.9C100.2,269.2,104.1,265,104.1,265z"/>
	</g>
</g>
</svg>
