<?xml version="1.0" encoding="utf-8"?>
<!-- Generator: Adobe Illustrator 18.0.0, SVG Export Plug-In . SVG Version: 6.00 Build 0)  -->
<!DOCTYPE svg PUBLIC "-//W3C//DTD SVG 1.1//EN" "http://www.w3.org/Graphics/SVG/1.1/DTD/svg11.dtd">
<svg version="1.1" id="content" xmlns="http://www.w3.org/2000/svg" xmlns:xlink="http://www.w3.org/1999/xlink" x="0px" y="0px"
	 width="500px" height="500px" viewBox="0 0 500 500" enable-background="new 0 0 500 500" xml:space="preserve">
<rect id="position" display="none" fill="none" stroke="#000000" width="500" height="500"/>
<g id="bounds" display="none">
	<rect x="20.1" y="216.4" display="inline" fill="none" stroke="#000000" stroke-width="0.7531" width="147.7" height="160.7"/>
</g>
<g>
	<g>
		<g>
			<g>
				<path fill="#DBB61B" d="M63.8,302.6c-3.6,3.7-5,5.8-2.6,14.1c1.8,6.3,6.1,13,6.3,22.3c0.9-4.1,0.9-11.2-1-16.5
					c-2.3-6.3-6.8-12.5-1-15.9s8.6-1.2,10.3,2.7L75,304C70.7,301.2,67,299.3,63.8,302.6z"/>
			</g>
			<g>
				<path fill="#EBC31D" d="M59.9,303.9c-2.7,6-0.7,13.6,1.4,22.4c2.1,8.8,1.8,12.2,2.7,13.9c0.9,1.7,1.4,4.1,2.9,0.7
					c0.2-0.5,0.4-1.1,0.6-1.9c-0.2-9.2-4.5-15.9-6.3-22.3c-2.4-8.3-1-10.4,2.6-14.1c3.2-3.3,6.9-1.2,11.2,1.3l-0.2-1.5
					C69.7,298.2,62.6,297.9,59.9,303.9z"/>
			</g>
		</g>
		<g>
			<path fill="#F2ECD5" d="M73.4,304.5c-5.5-9.9-11.7-18-9.5-33.6c2.2-15.5,7.3-19.6,9.2-19.8c1.9-0.2,3.8,0.2,4.5,5.7
				c0.6,5.6,1.8,35.3,12.4,39c0,0-1.8,11.2-10.3,14.8L73.4,304.5z"/>
		</g>
		<g>
			<g>
				<path fill="none" d="M127.7,323.1c0.4-0.1,0.9-0.2,1.3-0.3c-0.1-0.2-0.2-0.3-0.4-0.5C128.5,322.6,128.2,322.9,127.7,323.1z"/>
			</g>
			<g>
				<path fill="#EBC31D" d="M128.4,317.1c-0.8-0.8-2.1-1.6-4-2.4c-5.9-2.6-35.2-12.1-35.7-25c0,0-5.2,3.3-1.6,9.7
					c0,0-0.3-0.3-0.7-0.6c5.3,6.1,17,15.4,41.7,19.4C128.1,317.9,128.3,317.5,128.4,317.1z"/>
			</g>
			<g>
				<path fill="#DBB61B" d="M80.7,313.5c5.8,5.3,12.6,9.8,23.7,11.5c13.8,2.2,20.5,0.1,23.3-1.9C106.4,328.1,88.4,318.5,80.7,313.5z
					"/>
			</g>
			<g>
				<path fill="#FFD624" d="M127.5,319.6c0.1-0.3,0.3-0.8,0.5-1.4c-24.7-4.1-36.1-13.2-41.4-19.3c-1.9-1.5-7.5-4.6-12.9,1.9
					l-2.7,2.6c3.3,3.4,6.3,6.9,9.7,10.1c7.6,5,25.7,14.6,47,9.7c0.4-0.3,0.7-0.6,1-0.9C128.1,321.4,127.3,320.1,127.5,319.6z"/>
			</g>
			<g>
				<path fill="#55312A" d="M128.4,317.1c-0.1,0.4-0.3,0.7-0.4,1.1c-0.2,0.6-0.4,1.2-0.5,1.4c-0.2,0.4,0.6,1.7,1.2,2.6
					c0.2-0.3,0.4-0.5,0.5-0.7c0.5-1,0.7-2,0.2-3.2C129.2,318,128.8,317.6,128.4,317.1z"/>
			</g>
		</g>
		<g opacity="0.2">
			<path fill="#855446" d="M85.9,298.7c0,0-2.4,9.6,14.5,26c0,0-17.9-13.8-19-19.6S82.2,299.4,85.9,298.7z"/>
		</g>
		<g>
			<g>
				<path fill="#EBC31D" d="M87,299.3L87,299.3C87.1,299.4,87,299.4,87,299.3z"/>
			</g>
			<g>
				<path fill="#FFF9C3" d="M84.7,297.5c-7.6-4.6-13,3.4-13.7,5.9c-3,11.4,7.5,19.1,14.6,25.5s17.5,3.2,17.7,1.7
					c0.1-0.6-0.3-1.8-0.9-2.9c-7.5-4.2-14-9.6-20.6-17.8C75.2,301.5,81.5,298.5,84.7,297.5z"/>
			</g>
			<g>
				<path fill="#EBC31D" d="M87,299.3l-1.4-1.2c-0.3-0.2-0.6-0.4-0.9-0.6c-3.2,1-9.5,4-2.8,12.4c6.6,8.2,13,13.6,20.6,17.8
					c-0.8-1.8-1.8-3.6-1.8-3.6C69.3,301.2,85.1,297.9,87,299.3z"/>
			</g>
		</g>
		<g>
			<g>
				<path fill="#FFD624" d="M99.8,287.1c5.1-0.1,11.9-1.2,25.8,3.8c-0.5-5.9-24.2-9.1-33-4.6c-4.2,2.1-5.9,4.6-6.4,6.8
					C89.4,290,94.5,287.2,99.8,287.1z"/>
			</g>
			<g>
				<path fill="#EBC31D" d="M99.8,287.1c-5.3,0.1-10.4,2.9-13.6,6c-0.7,2.7,0.4,5.1,0.9,6.2l3.1-4.8c-2.3-2.8,3.2-5.7,9.6-6
					c7.4-0.4,24.6,6.7,25.7,3.3c0.1-0.3,0.1-0.6,0.1-0.9C112.4,285,104.9,287,99.8,287.1z"/>
			</g>
		</g>
		<g>
			<path fill="#EBC31D" d="M71,303.4c0,0-0.2,1-0.2,1.3c0,0.3-0.1,0.6-0.1,0.9s-0.1,0.7-0.1,1.1s0,0.9,0,1.3c0.1,1,0.2,2,0.5,3.2
				c0.3,1.1,0.8,2.3,1.4,3.5s1.4,2.4,2.3,3.5c1.8,2.3,4.1,4.5,6.4,6.6c1.2,1.1,2.4,2.1,3.5,3.1c0.6,0.5,1.1,1,1.7,1.5
				s1.2,0.9,1.8,1.2c1.3,0.7,2.6,1.2,3.9,1.5s2.6,0.5,3.8,0.5c2.4,0,4.3-0.4,5.6-0.8c0.6-0.2,1.1-0.5,1.4-0.7
				c0.1-0.1,0.1-0.1,0.2-0.2c0-0.1,0.1-0.1,0.1-0.1c0-0.1,0-0.1,0-0.1s0,0,0,0.1l-0.1,0.1c0,0.1-0.1,0.1-0.2,0.2
				c-0.3,0.2-0.8,0.5-1.4,0.8s-1.5,0.5-2.4,0.7s-2,0.3-3.2,0.3s-2.5-0.1-3.8-0.4s-2.7-0.8-4-1.5c-0.7-0.4-1.3-0.8-1.9-1.3
				s-1.2-1-1.7-1.5c-1.2-1-2.4-2.1-3.5-3.1c-2.3-2.1-4.6-4.3-6.4-6.7c-0.9-1.2-1.7-2.4-2.3-3.6c-0.6-1.2-1.1-2.4-1.4-3.6
				c-0.3-1.1-0.4-2.2-0.5-3.2c0-0.5,0.4-3.8,0.5-4C70.9,303.6,71,303.4,71,303.4z"/>
		</g>
	</g>
	<path fill="#EBC31D" d="M71.1,303.1c0,0-0.9,2.7-0.6,5.5l0.2-0.1C70.7,308.5,70.5,306.3,71.1,303.1z"/>
</g>
</svg>
