<?xml version="1.0" encoding="utf-8"?>
<!-- Generator: Adobe Illustrator 14.0.0, SVG Export Plug-In . SVG Version: 6.00 Build 43363)  -->
<!DOCTYPE svg PUBLIC "-//W3C//DTD SVG 1.1//EN" "http://www.w3.org/Graphics/SVG/1.1/DTD/svg11.dtd">
<svg version="1.1" id="content" xmlns="http://www.w3.org/2000/svg" xmlns:xlink="http://www.w3.org/1999/xlink" x="0px" y="0px"
	 width="500px" height="500px" viewBox="0 0 500 500" enable-background="new 0 0 500 500" xml:space="preserve">
<g id="bounds" display="none">
	
		<rect x="-1.683" y="216.482" display="inline" fill="none" stroke="#000000" stroke-width="1.0144" width="145.821" height="158.627"/>
</g>
<rect id="position" x="0" y="0" display="none" fill="none" stroke="#000000" width="500" height="500"/>
<g>
	<g>
		<path opacity="0.6" fill="#CC984D" enable-background="new    " d="M90.213,273.937l4,50.515c0,0,0.957,9.373-9.632,9.373
			s-30.553,0-30.553,0S42.4,334.954,42.4,326.883s3.241-53.575,3.241-53.575L90.213,273.937z"/>
		<path fill="#FFB866" d="M87.867,276.653l4,45.938c0,0,0.869,8.524-8.761,8.524s-27.784,0-27.784,0s-10.575,1.026-10.575-6.313
			c0-7.343,3.24-48.779,3.24-48.779L87.867,276.653z"/>
		<circle fill="#FFE472" cx="84.211" cy="281.153" r="1.342"/>
		<circle fill="#FFE472" cx="76.477" cy="285.257" r="1.315"/>
		<circle fill="#FFE472" cx="64.53" cy="292.87" r="0.787"/>
		<circle fill="#FFE472" cx="63.768" cy="286.57" r="1.025"/>
		<polygon opacity="0.5" fill="#CC984D" enable-background="new    " points="84.082,292.62 82.185,324.375 76.802,324.375 
			85.366,326.21 		"/>
		<polygon opacity="0.5" fill="#CC984D" enable-background="new    " points="70.065,292.62 68.168,324.375 62.784,324.375 
			71.349,326.21 		"/>
		<polygon opacity="0.5" fill="#CC984D" enable-background="new    " points="56.048,292.62 54.151,324.375 48.767,324.375 
			57.332,326.21 		"/>
		<circle fill="#FFE472" cx="78.791" cy="302.802" r="2.071"/>
		<circle fill="#FFE472" cx="63.209" cy="313.466" r="1.964"/>
		<circle fill="#FFE472" cx="51.95" cy="301.446" r="1.385"/>
		<path opacity="0.5" fill="#E8C958" enable-background="new    " d="M104.189,289.118c-4.368-4.066-12.398-3.769-13.07-3.717
			l0.769,7.662c0.93-0.045,5.462,0.153,7.095,1.7c1.088,1.029,1.618,2.59,1.618,4.767s-0.529,3.736-1.618,4.767
			c-1.632,1.546-6.229,1.702-6.229,1.702l0.759,7.66c0.115,0.009,0,0.024,0.393,0.024c1.905,0,6.662-0.368,10.283-3.74
			c1.866-1.738,4.091-4.955,4.091-10.413C108.28,294.073,106.055,290.855,104.189,289.118z"/>
	</g>
	<path opacity="0.2" fill="#CC984D" enable-background="new    " d="M90.213,273.937l4,50.515c0,0,0.957,9.373-9.632,9.373
		s-30.553,0-30.553,0S42.4,334.954,42.4,326.883s3.241-53.575,3.241-53.575L90.213,273.937z"/>
	<path fill="#F0ECBE" d="M94.646,280.815c0.303-0.684,0.331-1.469-0.148-2.077c-0.486-0.616-1.47-0.878-2.227-0.935
		c1.521-0.003,3.183-0.787,3.89-2.188c0.767-1.519,0.317-3.168-0.676-4.471c-1.736-2.277-5.19-3.622-7.792-2.063
		c0.764-1.612,0.903-2.996,0.179-4.672c-1.393-3.216-3.667-4.778-6.998-5.881c-4.22-1.396-10.48-1.435-13.48,2.508
		c-0.275-0.757-0.311-1.597-0.722-2.368c-0.92-1.727-2.584-3.078-4.241-4.058c-4.603-2.722-10.1-2.771-14.849-0.392
		c-2.043,1.022-6.27,4.587-4.671,7.435c-4.451,0.574-7.618,4.474-8.6,8.581c-0.522,2.19,0.155,5.126,2.104,6.415
		c1.378,0.912,4.065,1.639,5.677,1.131c-0.822,3.002,0.527,5.375,3.31,6.719c2.974,1.438,9.229,2.377,11.037-1.309
		c1.519,1.844,4.148,1.654,6.337,1.205c1.826-0.375,4.897-1.913,3.97-4.279c2.346,3.023,10.194,4.843,10.925-0.426
		c0.518,3.17,3.226,5.236,6.313,5.874c2.909,0.601,5.808-0.366,6.785-3.303C92.157,282.44,93.977,282.329,94.646,280.815z"/>
	<path opacity="0.5" fill="#E8C958" enable-background="new    " d="M108.28,299.53c0-0.621-0.036-1.204-0.09-1.769
		c-0.333,3.826-0.938,6.237-2.554,8.896c-2.704,4.45-9.91,4.056-12.401,4.189l0.279,2.812c0.115,0.009,0,0.024,0.394,0.024
		c1.904,0,6.661-0.368,10.282-3.74C106.055,308.205,108.28,304.988,108.28,299.53z"/>
	<path opacity="0.5" fill="#E8C958" enable-background="new    " d="M91.713,291.321L91.713,291.321l0.175,1.742
		c0.93-0.045,5.462,0.153,7.095,1.7c0.729,0.688,1.201,1.623,1.438,2.813c0.002,0,0.004,0,0.006,0
		C100.242,291.08,91.713,291.321,91.713,291.321z"/>
	<path fill="#FFFBD6" d="M77.598,277.469c-3.845,5.454-9.479,2.001-11.86,0.177c-0.476,3.647-5.473,6.027-9.752,3.319
		c-7.688,4.696-12.773-0.465-11.9-4.943c-8.09,1.311-9.775-5.787-9.775-5.787c-0.522,2.191,0.155,5.126,2.104,6.415
		c1.378,0.912,4.065,1.639,5.677,1.131c-0.822,3.002,0.527,5.375,3.31,6.719c2.974,1.438,9.229,2.377,11.037-1.309
		c1.519,1.844,4.148,1.654,6.337,1.205c1.826-0.375,4.897-1.913,3.97-4.279c2.346,3.023,10.194,4.843,10.925-0.426
		c0.518,3.17,3.226,5.236,6.313,5.874c2.909,0.601,5.808-0.366,6.785-3.303C85.89,284.658,80.808,282.643,77.598,277.469z"/>
	<path opacity="0.5" fill="#FFFBD6" enable-background="new    " d="M67.89,327.695l-20.652-0.502c0,0,1.373,2.511,5.95,2.511
		s14.703,0,14.703,0s10.126,0,14.703,0s5.95-2.511,5.95-2.511L67.89,327.695z"/>
</g>
</svg>
