<?xml version="1.0" encoding="utf-8"?>
<!-- Generator: Adobe Illustrator 18.0.0, SVG Export Plug-In . SVG Version: 6.00 Build 0)  -->
<!DOCTYPE svg PUBLIC "-//W3C//DTD SVG 1.1//EN" "http://www.w3.org/Graphics/SVG/1.1/DTD/svg11.dtd">
<svg version="1.1" id="content" xmlns="http://www.w3.org/2000/svg" xmlns:xlink="http://www.w3.org/1999/xlink" x="0px" y="0px"
	 width="500px" height="500px" viewBox="0 0 500 500" enable-background="new 0 0 500 500" xml:space="preserve">
<g id="bounds" display="none">
	<g id="bounds_1_" display="inline">
		<rect x="20.2" y="240" fill="none" stroke="#000000" stroke-width="0.9417" width="171.3" height="186.4"/>
	</g>
</g>
<rect id="position" display="none" fill="none" stroke="#000000" stroke-width="0.9417" width="500" height="500"/>
<g>
	<g>
		<g>
			<path fill="#D10D0D" d="M88.3,269.8c6-1.2,21.4-1.9,35.5,2.4c1,0.3,5.1,1.6,5.3,3.3c0.7,4.8-2.1,13.9-2.4,18.1
				c4.6,2,4.5,0.2,10.5,4.8c14.1,10.7,11,26.2,6.8,27.1c0,0,8.3,14-5.8,31.5c-5.7,7.3-16.8,11.9-25.7,11.7c0,0-8,0.3-15-0.8
				c-15.3-2.4-33.6-10.5-26.5-52l5-25.6c0.1-0.4-1.2-5-1.2-5C66.4,273.6,85,270.5,88.3,269.8z"/>
			<path fill="#B50F0F" d="M71.1,315.9l0.9-4.7c-0.4,6.3,1.5,12.3,3.4,18.3c8.6,30.2,25.9,34,44.7,38.3c-2.6,0.6-5.1,0.9-7.5,0.9
				c0,0-8,0.3-15-0.8C82.3,365.5,64,357.4,71.1,315.9z"/>
			<path fill="#7C0B0B" d="M125.9,315.5c0.3,0.1,0.6,0.3,1,0.5c0.4,0.2,0.8,0.4,1.2,0.7c0.4,0.3,0.9,0.6,1.4,1
				c0.4,0.3,0.7,0.7,1.1,1.1c1.3-1,1.3-2.7,1.3-2.9c0-0.2,0-0.5,0-0.7c0-0.2,0-0.5,0-0.7c-0.1-0.2-0.1-0.5-0.1-0.7
				c-0.1-0.2-0.1-0.4-0.1-0.6c-0.1-0.2-0.1-0.4-0.2-0.6c-0.1-0.4-0.2-0.7-0.3-0.9c-0.1-0.2-0.1-0.3-0.1-0.3s0.1,0.1,0.3,0.2
				c0.2,0.2,0.4,0.4,0.6,0.7c0.2,0.3,0.5,0.7,0.6,1.2c0.1,0.2,0.1,0.5,0.2,0.8c0,0.3,0.1,0.5,0.1,0.8c0,0.3,0,0.6-0.1,0.9
				c0,0.2,0,0.7-0.1,1.2c0.2,1.8,0.9,4.1,2.7,4.4c0.4-0.2,0.7-0.4,1.1-0.5c0.6-0.2,1.2-0.3,1.8-0.3c1.2,0,2.2,0.3,3,0.8
				c0.8,0.4,1.5,1,1.9,1.6c0.4,0.6,0.6,1.2,0.7,1.6c0.1,0.4,0,0.7,0,0.7c0,0,0,0-0.1-0.1c-0.1-0.1-0.2-0.2-0.3-0.4
				c-0.3-0.3-0.7-0.7-1.2-1c-0.3-0.2-0.6-0.3-0.9-0.5c-0.3-0.2-0.7-0.3-1.1-0.4c-0.8-0.3-1.6-0.4-2.5-0.4c-0.8,0-1.7,0.2-2.3,0.5
				c-0.7,0.4-1.3,0.9-1.7,1.5c-0.4,0.5-0.7,1.1-0.9,1.5c0,0.3-0.1,0.6-0.1,0.8c0,0.4-0.2,0.7-0.3,1c-0.1,0.3-0.2,0.7-0.3,1
				c-0.3,0.6-0.5,1.2-0.9,1.7c-0.3,0.5-0.6,0.9-0.9,1.3c-0.3,0.4-0.6,0.7-0.8,1c-0.5,0.5-0.8,0.8-0.8,0.8s0.2-0.3,0.6-0.9
				c0.2-0.3,0.4-0.6,0.7-1c0.2-0.4,0.5-0.9,0.7-1.4c0.3-0.5,0.5-1.1,0.7-1.7c0.1-0.3,0.2-0.6,0.3-0.9c0.1-0.3,0.2-0.6,0.2-1
				c0-0.3,0.1-0.7,0.1-1c0-0.3,0-0.7,0-1c0-0.3-0.1-0.7-0.1-1c-0.1-0.3-0.1-0.7-0.2-1l-0.3-0.9l-0.2-0.5l-0.2-0.4
				c-0.4-0.5-0.6-1.1-1-1.6c-0.4-0.5-0.8-1-1.2-1.3c-0.4-0.4-0.8-0.8-1.2-1.1c-0.4-0.4-0.8-0.6-1.1-0.9c-0.3-0.2-0.6-0.5-0.9-0.6
				c-0.5-0.4-0.8-0.6-0.8-0.6S125.4,315.3,125.9,315.5z"/>
			<path fill="#F3F3F3" d="M75.4,294.7c13.7-7.6,35-3.5,35-3.5s0.5-9,1.4-14.4c-25.2-6.1-38.6,4.7-38.6,4.7S70.1,290.7,75.4,294.7z"
				/>
			<path fill="#D3D3D3" d="M73.1,281.5c0,0,2.8-2.3,8.4-4.2c-0.9,4.6,1.8,11.5,3.9,13.9c-3.5,0.7-7,1.8-10,3.5
				C70.1,290.7,73.1,281.5,73.1,281.5z"/>
		</g>
		<g>
			<path fill="#F43838" d="M126.7,293.6c5.4,1.5,5.6,1.5,9.8,3.7c12.7,6.6,13.1,21.1,9.8,26.1C147.9,314.5,146.5,300.8,126.7,293.6z
				"/>
		</g>
	</g>
	<path fill="#B50F0F" d="M121.5,292.5l0.2-0.7c0.1-0.4,0.2-0.8,0.3-1.3c0.2-0.8,0.4-1.7,0.6-2.6c0.1-0.9,0.3-1.7,0.4-2.6
		c0.1-0.9,0.2-1.7,0.3-2.6c0.1-0.9,0.2-1.8,0.2-2.6c0.1-0.9,0.1-1.8,0.2-2.6c0-1,0.1-2.1,0.1-3.1l-0.2-2.2c0.1,0,0.2,0,0.2,0.1h0
		l0,0l0,0c1,0.3,5.1,1.6,5.3,3.3c0.7,4.8-2.1,13.9-2.4,18.1C123.6,292.7,121.5,292.5,121.5,292.5z"/>
</g>
</svg>
