<?xml version="1.0" encoding="utf-8"?>
<!-- Generator: Adobe Illustrator 18.0.0, SVG Export Plug-In . SVG Version: 6.00 Build 0)  -->
<!DOCTYPE svg PUBLIC "-//W3C//DTD SVG 1.1//EN" "http://www.w3.org/Graphics/SVG/1.1/DTD/svg11.dtd">
<svg version="1.1" id="content" xmlns="http://www.w3.org/2000/svg" xmlns:xlink="http://www.w3.org/1999/xlink" x="0px" y="0px"
	 width="500px" height="500px" viewBox="0 0 500 500" enable-background="new 0 0 500 500" xml:space="preserve">
<rect id="position" display="none" fill="none" stroke="#000000" width="500" height="500"/>
<g id="bounds" display="none">
	<rect x="10.8" y="205.6" display="inline" fill="none" stroke="#000000" stroke-width="0.8084" width="133.8" height="145.5"/>
</g>
<g>
	<g>
		<polygon fill="#900D0D" points="65.5,302.5 109,297.7 97,242.5 51.6,245.2 		"/>
	</g>
	<g>
		<g>
			<path fill="#AB8980" d="M65.5,302.5l43.5-4.8c0,0,0.9,6.2-3.9,11L60,313.4h0.4L65.5,302.5z"/>
		</g>
		<g>
			<polygon fill="#C1948A" points="51.6,245.2 65.5,302.5 60.3,313.3 46.7,256.1 			"/>
		</g>
	</g>
	<g>
		<path fill="#900D0D" d="M60,314.3l45.4-4.7l0.2-0.2c5.1-5,4.3-11.5,4.2-11.8l-12-55.2l-1.9,0.4l12,55.2l0,0c0,0,0.7,5.6-3.4,9.8
			l-44.8,4.7L60,314.3z"/>
	</g>
	<g>
		<polygon fill="#9F1414" points="59.2,314.4 61.2,314.2 47.3,254.7 45.5,255.3 		"/>
	</g>
	<g>
		<path fill="#FF9F00" d="M56.2,249.6l38.5-2.4l10.3,46.6l-37.3,4L56.2,249.6z M93.2,249.3l-34.5,2.1l10.5,44.3l33.4-3.6L93.2,249.3
			z"/>
	</g>
	<line fill="none" stroke="#FF9F00" stroke-width="2" stroke-miterlimit="10" x1="66" y1="259" x2="89.5" y2="257.6"/>
</g>
</svg>
