<?xml version="1.0" encoding="utf-8"?>
<!-- Generator: Adobe Illustrator 18.0.0, SVG Export Plug-In . SVG Version: 6.00 Build 0)  -->
<!DOCTYPE svg PUBLIC "-//W3C//DTD SVG 1.1//EN" "http://www.w3.org/Graphics/SVG/1.1/DTD/svg11.dtd">
<svg version="1.1" id="content" xmlns="http://www.w3.org/2000/svg" xmlns:xlink="http://www.w3.org/1999/xlink" x="0px" y="0px"
	 width="500px" height="500px" viewBox="0 0 500 500" enable-background="new 0 0 500 500" xml:space="preserve">
<rect id="position" display="none" fill="none" stroke="#000000" width="500" height="500"/>
<g id="bounds" display="none">
	<rect x="34.3" y="230.7" display="inline" fill="none" stroke="#000000" stroke-width="0.6177" width="121.2" height="131.8"/>
</g>
<g id="accessory">
	<path opacity="0.3" fill="#AFD8D7" enable-background="new    " d="M100.3,296.4c1.6-1.9,14.9-10.1,9.4-26.3
		C106.3,259.9,99,250,99,250l-16.8,5.7l-16.9,5.7c0,0,0.3,12.3,3.7,22.5c5.5,16.1,21.1,14.6,23.5,15.1c2.4,0.6,2.7,1.8,2.7,1.8
		s7.8,22.9,8.8,26s1.9,7.1-0.1,8.2c-10.5,3.6-9.1,6.4-9.1,6.4c1.5,4.5,16.1-0.9,16.1-0.9s14.8-4.7,13.3-9.1c0,0-0.7-3-11.1,0.5
		c-2.3,0.3-4-3.4-5-6.4c-1-3-8.8-26-8.8-26S98.7,298.4,100.3,296.4z"/>
	<path fill="#910D30" d="M108.2,268.6L89.3,275l-0.9,0.3l-18.9,6.4c0,0,6.4,19.3,26,14.3l0.9-0.3
		C114.7,286.6,108.2,268.6,108.2,268.6z"/>
	<path fill="#DB1D62" d="M95.8,293c0,0,12.3-6.3,11.1-19.7c-4.9,2.8-8.8,3.9-8.8,3.9S101.5,285.9,95.8,293z"/>
	
		<ellipse transform="matrix(-0.3213 -0.947 0.947 -0.3213 -143.0971 447.4469)" fill="#E51F44" cx="88.8" cy="275" rx="1.5" ry="20.4"/>
	<path opacity="0.5" fill="#CBEDEF" enable-background="new    " d="M95.9,270.1l9.2-3.7c0,0-3-8-7.6-13.9c-6.1,2.1-9.6,3.2-9.6,3.2
		S92.7,260.2,95.9,270.1z"/>
	
		<ellipse transform="matrix(-0.3213 -0.947 0.947 -0.3213 -133.7115 415.9796)" opacity="0.5" fill="#CBEDEF" enable-background="new    " cx="82.2" cy="255.9" rx="0.9" ry="17.8"/>
	<path opacity="0.5" fill="#CBEDEF" enable-background="new    " d="M97,299.2l9.9,29.3c0,0,2.2,4.9,6.2,3.5
		c-2.7,0.2-4.3-4.2-5.3-7.1c-1-2.8-8.7-25.6-8.7-25.6S98.2,298.9,97,299.2z"/>
</g>
</svg>
