<?xml version="1.0" encoding="utf-8"?>
<!-- Generator: Adobe Illustrator 14.0.0, SVG Export Plug-In . SVG Version: 6.00 Build 43363)  -->
<!DOCTYPE svg PUBLIC "-//W3C//DTD SVG 1.1//EN" "http://www.w3.org/Graphics/SVG/1.1/DTD/svg11.dtd">
<svg version="1.1" id="content" xmlns="http://www.w3.org/2000/svg" xmlns:xlink="http://www.w3.org/1999/xlink" x="0px" y="0px"
	 width="500px" height="500px" viewBox="0 0 500 500" enable-background="new 0 0 500 500" xml:space="preserve">
<rect id="position" x="0" y="0" display="none" fill="none" stroke="#000000" width="500" height="500"/>
<g id="bounds" display="none">
	<rect x="20.985" y="58.189" fill="none" stroke="#23170D" stroke-width="0.8367" width="150.108" height="150.109"/>
</g>
<g id="accessory">
	<path fill="#9FBF3B" d="M77.021,161.705c0,8.836,7.163,16,16,16h8.332c8.837,0,16-7.164,16-16v-24.99c0-8.836-7.163-16-16-16
		h-8.332c-8.837,0-16,7.164-16,16V161.705z"/>
	<path fill="#92A833" d="M117.353,142.662v12.495H95.419v-17.351h21.179C117.085,139.338,117.353,140.968,117.353,142.662z"/>
	<path fill="#93AA33" d="M111.598,116.585H79.252c0,0-4.406-26.96,16.172-26.96C114.401,89.624,111.598,116.585,111.598,116.585z"/>
	<ellipse fill="#FBFAFC" cx="88.44" cy="105.107" rx="5.138" ry="5.072"/>
	<path fill="#B59304" d="M97.582,116.585c0,0-4.805-18.551,16.149-18.551c19.354,0,12.546,28.296,12.546,28.296c0-0.215,0,0,0,0
		s-7.008-9.745-11.824-9.745C110.396,116.585,97.582,116.585,97.582,116.585z"/>
	<path fill="#DBB100" d="M109.365,98.356c5.19,1.018,16.013,5.179,11.583,21.836c-1.937-1.871-4.818-3.607-6.493-3.607
		c-4.059,0-16.871,0-16.871,0S93.505,100.785,109.365,98.356z"/>
	<path fill="#C10606" d="M76.375,93.059l-8.996-5.642c0,0-4.225-1.895-3.332,3.286c0.893,5.179,4.212,8.356,13.452,7.586
		C80.921,97.496,78.714,94.528,76.375,93.059z"/>
	<path fill="#C10606" d="M82.352,86.87l-4.762-9.492c0,0-2.627-3.812-4.553,1.079c-1.927,4.89-0.736,9.329,7.559,13.466
		C83.935,93.02,83.589,89.338,82.352,86.87z"/>
	<path fill="#C10606" d="M90.673,84.68l0.857-10.585c0,0-0.269-4.621-4.453-1.44c-4.184,3.18-5.473,7.591-0.526,15.434
		C88.834,90.759,90.449,87.432,90.673,84.68z"/>
	<path fill="#2F68BA" d="M75.017,128.967c0,0-2.959,30.354-4.055,38.245c-0.876,7.342-4.274,5.042-10.191,1.316
		c-5.917-3.727-6.575-3.728-5.808-10.959c2.302-20.492,8.768-26.071,11.396-29.145C70.963,124.144,75.423,124.842,75.017,128.967z"
		/>
	<path fill="#2F68BA" d="M119.489,131.592c0,0,2.604,26.726,3.569,33.673c0.771,6.464,3.764,4.439,8.974,1.158
		s5.789-3.281,5.113-9.649c-2.026-18.042-7.72-22.954-10.035-25.66C123.057,127.346,119.13,127.961,119.489,131.592z"/>
	<path fill="#B59304" d="M105.236,175.711c0,0,4.166-1.16,5.162,10.059c0.53,5.963,0.815,9.181,0.815,9.181l5.648-0.502
		c0,0,8.46-15.579,1.584-21.333c-5.368-2.815-9.868-2.494-13.412,0.337C105.179,175.084,105.236,175.711,105.236,175.711z"/>
	<path fill="#DBB100" d="M114.789,194.632l-3.576,0.318c0,0-0.285-3.218-0.815-9.181c-0.996-11.219-5.162-10.059-5.162-10.059
		s-0.057-0.627-0.201-2.259C105.034,173.451,119.094,171.256,114.789,194.632z"/>
	<path fill="#B59304" d="M94.906,175.711c0,0,4.166-1.16,5.162,10.059c0.53,5.963,0.815,9.181,0.815,9.181l5.648-0.502
		c0,0,8.46-15.579,1.584-21.333c-5.368-2.815-9.868-2.494-13.412,0.337C94.849,175.084,94.906,175.711,94.906,175.711z"/>
	<path fill="#DBB100" d="M104.46,194.632l-3.577,0.318c0,0-0.285-3.218-0.815-9.181c-0.996-11.219-5.162-10.059-5.162-10.059
		s-0.057-0.627-0.201-2.259C94.704,173.451,108.764,171.256,104.46,194.632z"/>
</g>
</svg>
