<?xml version="1.0" encoding="utf-8"?>
<!-- Generator: Adobe Illustrator 18.0.0, SVG Export Plug-In . SVG Version: 6.00 Build 0)  -->
<!DOCTYPE svg PUBLIC "-//W3C//DTD SVG 1.1//EN" "http://www.w3.org/Graphics/SVG/1.1/DTD/svg11.dtd">
<svg version="1.1" id="content" xmlns="http://www.w3.org/2000/svg" xmlns:xlink="http://www.w3.org/1999/xlink" x="0px" y="0px"
	 width="500px" height="500px" viewBox="0 0 500 500" enable-background="new 0 0 500 500" xml:space="preserve">
<rect id="position" display="none" fill="none" stroke="#000000" width="500" height="500"/>
<g id="bounds" display="none">
	<rect x="16.7" y="204.5" display="inline" fill="none" stroke="#000000" stroke-width="0.7531" width="147.7" height="160.7"/>
</g>
<g>
	<g>
		<polygon fill="#BA8130" points="99.5,307.3 87.5,281.6 64.9,283.2 76.9,308.9 		"/>
	</g>
	<g>
		<polygon fill="#CA9450" points="99.5,307.3 87.5,281.6 104.1,265 116,290.7 		"/>
	</g>
	<g>
		<polygon fill="#EBCF9E" points="104.1,265 87.5,281.6 87.1,281.8 64.9,283.2 80.3,267.9 		"/>
	</g>
	<g>
		<polygon fill="#8F5D25" points="76.9,308.9 99.5,307.3 104.2,317.5 		"/>
	</g>
	<g>
		<polygon fill="#9C6730" points="116,290.7 99.5,307.3 104.2,317.5 		"/>
	</g>
	<g>
		<polygon fill="#CA9450" points="79,252 75.2,254.5 85.7,276.9 88.9,273.3 		"/>
	</g>
	<g>
		<polygon fill="#BA8130" points="70.5,255.5 75.2,254.5 85.7,276.9 80.6,277.2 		"/>
	</g>
	<g>
		<path fill="#FAFAFA" d="M69.3,286.2c0,0,2.4,1.9,7.4,1s7.1-1.8,9.8,0.9l-1.6,0.8c0,0,1.4-0.2,3.1,3.5s4,9.6,6.2,10
			c0,0-3.5,1.1-5.8-2.8s-4.2-9-4.2-9s-3.4-1.4-6.3,0.4l3.7,8c0,0,1.8,3.4-1.4,4.9l-4.9-10.6c0,0-1-2,0.4-2.9
			C75.7,290.4,72.6,292.8,69.3,286.2z"/>
	</g>
	<g>
		<path fill="#FAFAFA" d="M101.8,273c0,0-0.5,2.2-3,4.6c-2.6,2.4-4.5,5.8-3,9.1c1.5,3.3,3.4,7.3,3.4,7.3s-0.4,1.2-1.5,1.5
			s-1.1,0.3-1.1,0.3s1.7,2.7,5.4-0.8c3.6-3.4,7.3-5.6,7.4-8.7c0.1-3,0.1-3,0.1-3s-0.9,1.2-3.3,3.5c-2.4,2.4-4.5,4.8-5.4,2.8
			s-1.4-3.1-2.1-4.5s0.5-2.2,2.8-5.3C103.6,276.8,103.3,275.5,101.8,273z"/>
	</g>
	<g>
		<polygon fill="#EBCF9E" points="70.5,255.5 75.2,254.5 79,252 73.9,252.9 		"/>
	</g>
</g>
</svg>
