<?xml version="1.0" encoding="utf-8"?>
<!-- Generator: Adobe Illustrator 18.0.0, SVG Export Plug-In . SVG Version: 6.00 Build 0)  -->
<!DOCTYPE svg PUBLIC "-//W3C//DTD SVG 1.1//EN" "http://www.w3.org/Graphics/SVG/1.1/DTD/svg11.dtd">
<svg version="1.1" id="content" xmlns="http://www.w3.org/2000/svg" xmlns:xlink="http://www.w3.org/1999/xlink" x="0px" y="0px"
	 width="500px" height="500px" viewBox="0 0 500 500" enable-background="new 0 0 500 500" xml:space="preserve">
<rect id="position" display="none" fill="none" stroke="#000000" width="500" height="500"/>
<g id="bounds" display="none">
	<rect x="-7.5" y="195.9" display="inline" fill="none" stroke="#000000" stroke-width="0.7531" width="147.7" height="160.7"/>
</g>
<g>
	<rect x="55.7" y="262.5" fill="#FFE1B1" width="14.2" height="51"/>
	<polygon fill="#E62323" points="90.5,318.6 35,318.6 30.1,308.3 95.3,308.3 	"/>
	<circle fill="none" stroke="#E62323" stroke-miterlimit="10" cx="97.9" cy="305.3" r="5.2"/>
	<path fill="#FFBF00" stroke="#D6A019" stroke-linejoin="round" stroke-miterlimit="10" d="M60.9,234.1c3.9,9-4.9,10.4-5.8,16.1
		c-1,6.4,3.2,9,9.7,9c5.2,0,7.2-6,5.8-10.3C69.1,244,60.9,234.1,60.9,234.1z"/>
	<path opacity="0.7" fill="#FFF599" enable-background="new    " d="M63.7,244.3c-0.2,2.4-5.1,4.6-4.1,8.2c0.5,2,4.1,5.1,6.3,0.2
		C67.7,248.7,63.7,244.3,63.7,244.3z"/>
</g>
</svg>
