<?xml version="1.0" encoding="utf-8"?>
<!-- Generator: Adobe Illustrator 18.0.0, SVG Export Plug-In . SVG Version: 6.00 Build 0)  -->
<!DOCTYPE svg PUBLIC "-//W3C//DTD SVG 1.1//EN" "http://www.w3.org/Graphics/SVG/1.1/DTD/svg11.dtd">
<svg version="1.1" id="content" xmlns="http://www.w3.org/2000/svg" xmlns:xlink="http://www.w3.org/1999/xlink" x="0px" y="0px"
	 width="500px" height="500px" viewBox="0 0 500 500" enable-background="new 0 0 500 500" xml:space="preserve">
<rect id="position" display="none" fill="none" stroke="#000000" width="500" height="500"/>
<g id="bounds" display="none">
	<rect x="18.7" y="277.8" display="inline" fill="none" stroke="#000000" stroke-width="0.7531" width="161.8" height="176"/>
</g>
<g>
	<g>
		<path fill="#DC3126" d="M96,357c0,1.4,0.1,2.9,0.3,4.3c1.3,7.6,10.6,31.7,14.6,38.1c5.5,8.7,9.6,7.8,14,7c7-1.3,10.6-6.3,6.5-20.3
			c-4.1-14-1.8-24.5-1.8-24.8s3-11.4-3.1-18.3c-5.5-6.2-11.5-5-16.5-4.3C106,339.2,96.5,342.8,96,357z"/>
		<path fill="#F8981D" d="M131.5,362c-2.7-11.1-18-15-18-15c-0.1,0-0.1,0-0.2,0l-0.6,3.7l-1.7-3.4c-0.1,0-0.1,0-0.2,0
			c0,0-13.5,8.1-13,19.5c0.1,2.7,3.8,8.4,5.1,10.1c0.6,1,1.7,1.7,3,1.5c1.6-0.2,2.7-1.7,2.5-3.4c-0.1-0.9-0.7-1.7-1.4-2.1l-0.8-0.9
			c-1.1-1.3-2-3.6-2.2-5.7c0-0.3,0-0.7,0-1c0.1-2.6,1.2-5.1,3.1-6.9c0,0,1.9-2.2,6-5.4c4.8,1.9,7.2,3.5,7.2,3.5
			c2.3,1.2,4.1,3.3,5,5.8c0.1,0.4,0.2,0.7,0.3,1c0.4,2.1,0.2,4.6-0.5,6.1l-0.5,1.1c-0.6,0.6-0.9,1.5-0.7,2.4
			c0.2,1.6,1.7,2.8,3.3,2.5c1.2-0.2,2.1-1.1,2.4-2.3C130.2,371.1,132.2,364.6,131.5,362z"/>
		<path fill="#F37C20" d="M114.9,353.6c0,0.1-0.1,0.3-0.2,0.3l-3.5,0.5c-0.1,0-0.3-0.1-0.3-0.2l-1.3-9.1c0-0.1,0.1-0.3,0.2-0.3
			l3.5-0.5c0.1,0,0.3,0.1,0.3,0.2L114.9,353.6z"/>
	</g>
	<g>
		<path fill="#C62828" d="M156.8,356.5c-0.2,1.4-0.5,2.8-1,4.2c-2.5,7.3-15.8,29.4-20.9,35c-6.9,7.6-10.8,6-15,4.5
			c-6.7-2.5-9.4-8-3-21.1s5.9-23.8,5.9-24.2c0-0.4-1-11.8,6.1-17.5c6.5-5.2,12.2-3,17-1.4C150,337.3,158.7,342.5,156.8,356.5z"/>
		<path fill="#F8981D" d="M121,355.5c4.6-10.4,20.3-11.7,20.3-11.7c0.1,0,0.2,0,0.2,0.1v3.8l2.2-3.1c0.1,0,0.2,0,0.2,0.1
			c0,0,11.9,10.3,9.5,21.4c-0.6,2.7-5.2,7.6-6.8,9.1c-0.7,0.9-2,1.3-3.2,1c-1.5-0.5-2.4-2.2-1.8-3.7c0.3-0.9,0.9-1.5,1.7-1.9
			l0.9-0.8c1.3-1.1,2.6-3.2,3.1-5.3c0.1-0.3,0.1-0.6,0.2-1c0.3-2.6-0.3-5.2-1.9-7.4c0,0-1.5-2.5-5-6.3c-5.1,1-7.7,2.2-7.7,2.2
			c-2.5,0.8-4.6,2.5-5.9,4.8c-0.2,0.3-0.3,0.6-0.4,0.9c-0.8,2-1,4.5-0.6,6.1l0.3,1.2c0.4,0.7,0.6,1.6,0.3,2.5
			c-0.5,1.6-2.2,2.4-3.7,1.9c-1.2-0.4-1.9-1.5-2-2.6C120.7,364.7,119.9,358,121,355.5z"/>
		<path fill="#F37C20" d="M138.7,350.1c0,0.1,0,0.3,0.1,0.3l3.4,1.1c0.1,0,0.3,0,0.3-0.2l2.9-8.8c0-0.1,0-0.3-0.1-0.3l-3.4-1.1
			c-0.1,0-0.3,0-0.3,0.2L138.7,350.1z"/>
	</g>
	
		<rect x="57.6" y="315.9" transform="matrix(-0.9046 0.4262 -0.4262 -0.9046 303.3647 666.7592)" fill="#FFCB05" width="39" height="102.8"/>
	
		<rect x="58.5" y="320" transform="matrix(-0.9046 0.4262 -0.4262 -0.9046 288.8653 678.1708)" fill="#FFBC00" width="20.1" height="102.8"/>
	
		<ellipse transform="matrix(-0.4262 -0.9046 0.9046 -0.4262 -211.3639 507.4952)" fill="#FEF5A0" cx="55.3" cy="320.8" rx="3.9" ry="19.5"/>
	
		<ellipse transform="matrix(-0.4262 -0.9046 0.9046 -0.4262 -211.556 507.6059)" fill="#FFCB05" cx="55.2" cy="320.9" rx="2" ry="15.4"/>
	
		<ellipse transform="matrix(-0.4262 -0.9046 0.9046 -0.4262 -211.556 507.6059)" fill="#FEF5A0" cx="55.2" cy="320.9" rx="1.3" ry="10.6"/>
	
		<ellipse transform="matrix(-0.4262 -0.9046 0.9046 -0.4262 -211.556 507.6059)" fill="#6D6E70" cx="55.2" cy="320.9" rx="0.3" ry="2.5"/>
	<line fill="none" x1="69.8" y1="359.3" x2="69.6" y2="359.8"/>
	<g>
		<path fill="#50C9ED" d="M130.5,405.8l-13.8-23.9l-14.4,23.9l-13.8-23.9l-13.7,23.9h-0.2l-13.7-24L48.8,403l1,11.1
			c0,0.4,0.1,0.8,0.2,1.2l10.6-18.5l13.9,24l13.9-24l14.5,24l13.9-24l13.9,24l13.9-24l10.5,18.3c0-0.3,0.1-0.7,0.1-1l1-11.3
			l-12-20.9L130.5,405.8z"/>
		<path fill="#50C9ED" d="M45.4,363.7l2.5,29.1l13-20.5l13.8,23.8l13.8-23.8l13.8,24.4l14.4-24.4l13.7,23.8l13.8-23.8l12.9,20.8
			l2.6-29.4l-52.3-3.5c-1.6-0.1-3.2-0.1-4.8-0.1c-1.6,0-3.2,0.1-4.8,0.1L45.4,363.7z"/>
		<polygon fill="#C1E3EA" points="130.4,396.1 116.7,372.3 102.3,396.7 88.5,372.3 74.7,396.1 60.9,372.3 47.9,392.8 48.8,403 
			60.9,381.8 74.6,405.8 74.8,405.8 88.5,381.9 102.3,405.8 116.7,381.9 130.5,405.8 144.3,381.9 156.3,402.8 157.1,393.1 
			144.2,372.3 		"/>
		<path fill="#C1E3EA" d="M136.8,433.3c0.4-0.1,0.8-0.1,1.2-0.2c0.3-0.1,0.6-0.1,0.9-0.2c0.3-0.1,0.7-0.1,1-0.2
			c0.3-0.1,0.7-0.2,1-0.3c0.3-0.1,0.6-0.2,0.8-0.3c0.4-0.1,0.7-0.3,1.1-0.5c0.2-0.1,0.5-0.2,0.7-0.3c0.4-0.2,0.7-0.4,1.1-0.6
			c0.2-0.1,0.4-0.2,0.5-0.3c0.4-0.2,0.8-0.5,1.1-0.8c0.1-0.1,0.3-0.2,0.4-0.3c0.4-0.3,0.8-0.6,1.2-0.9c0.1-0.1,0.2-0.2,0.3-0.2
			c0.4-0.3,0.8-0.7,1.1-1.1c0.1-0.1,0.1-0.1,0.2-0.2c0.4-0.4,0.8-0.8,1.1-1.3c0,0,0.1-0.1,0.1-0.1c0.4-0.5,0.7-0.9,1-1.4
			c0,0,0-0.1,0.1-0.1c0.3-0.5,0.7-1,1-1.6c0,0,0,0,0,0c1.2-2.2,2-4.7,2.4-7.3c0,0,0,0,0,0l-10.5-18.3l-13.9,24l-13.9-24l-13.9,24
			l-14.5-24l-13.9,24l-13.9-24L50,415.3c0,0.1,0,0.2,0,0.3c0.1,0.5,0.2,0.9,0.3,1.3c0,0.2,0.1,0.4,0.1,0.6c0.1,0.4,0.2,0.9,0.4,1.3
			c0.1,0.2,0.1,0.4,0.2,0.6c0.2,0.4,0.3,0.8,0.5,1.2c0.1,0.2,0.2,0.4,0.3,0.6c0.2,0.4,0.4,0.8,0.6,1.1c0.1,0.2,0.2,0.4,0.3,0.6
			c0.2,0.4,0.4,0.7,0.6,1c0.1,0.2,0.3,0.4,0.4,0.6c0.2,0.3,0.5,0.6,0.7,0.9c0.2,0.2,0.3,0.4,0.5,0.6c0.2,0.3,0.5,0.5,0.7,0.8
			c0.2,0.2,0.4,0.4,0.6,0.6c0.2,0.2,0.5,0.5,0.7,0.7c0.2,0.2,0.5,0.4,0.7,0.6c0.2,0.2,0.5,0.4,0.7,0.6c0.3,0.2,0.6,0.4,0.9,0.6
			c0.2,0.2,0.5,0.3,0.7,0.5c0.3,0.2,0.7,0.4,1,0.6c0.2,0.1,0.4,0.2,0.6,0.4c0.4,0.2,0.8,0.4,1.1,0.5c0.2,0.1,0.4,0.2,0.6,0.3
			c0.4,0.2,0.9,0.3,1.3,0.4c0.2,0.1,0.4,0.1,0.5,0.2c0.5,0.1,1,0.2,1.4,0.3c0.2,0,0.3,0.1,0.5,0.1c0.5,0.1,1.1,0.2,1.7,0.2
			c0.1,0,0.2,0,0.3,0c0.7,0.1,1.3,0.1,2,0.1h63c0.7,0,1.3,0,2-0.1C136.3,433.4,136.6,433.3,136.8,433.3z"/>
	</g>
	<path fill="#FEF5A0" d="M78.6,371.4c0-0.4,0-0.8,0-1.2c0-37.8,14.1-68.4,23.8-68.4s23.9,30.6,23.9,68.4c0,0.4,0,0.8,0,1.2h5.4
		c0-1.5,0.1-3.1,0.1-4.7c0-37.8-16.7-68.4-29.3-68.4s-29.2,30.6-29.2,68.4c0,1.6,0,3.1,0.1,4.7H78.6z"/>
	<path fill="#A87C4F" d="M69.8,368.1v2.9c0,3.4,2.7,6.1,6.1,6.1s6.1-2.7,6.1-6.1v-2.9H69.8z"/>
	<path fill="#A87C4F" d="M122.9,368.1v2.9c0,3.4,2.7,6.1,6.1,6.1c3.4,0,6.1-2.7,6.1-6.1v-2.9H122.9z"/>
</g>
</svg>
