<?xml version="1.0" encoding="utf-8"?>
<!-- Generator: Adobe Illustrator 16.0.0, SVG Export Plug-In . SVG Version: 6.00 Build 0)  -->
<!DOCTYPE svg PUBLIC "-//W3C//DTD SVG 1.1//EN" "http://www.w3.org/Graphics/SVG/1.1/DTD/svg11.dtd">
<svg version="1.1" id="content" xmlns="http://www.w3.org/2000/svg" xmlns:xlink="http://www.w3.org/1999/xlink" x="0px" y="0px"
	 width="500px" height="500px" viewBox="0 0 500 500" enable-background="new 0 0 500 500" xml:space="preserve">
<g id="bounds">
	<rect x="9.317" y="277.73" fill="none" stroke="#000000" stroke-width="1.0717" width="172.739" height="172.738"/>
</g>
<path id="position" display="none" d="M499,1v498H1V1H499 M500,0H0v500h500V0L500,0z"/>
<g>
	<g>
		<g>
			<g>
				<path fill="#423D3D" d="M134.692,288.783c0.495,0.277,0.938,0.648,1.304,1.098c0.769,0.939,1.131,2.148,1.008,3.355
					l-2.375,23.457l8.993,24.17c1.543,3.922,1.052,7.896,0.364,10.845l4.318,19.642c2.075,9.445-3.919,18.819-13.363,20.896
					l-0.775,0.17c-1.407,0.311-2.854,0.443-4.295,0.4c-2.557,4.378-6.853,7.582-11.874,8.692l-0.807,0.187
					c-0.017,0.004-0.033,0.008-0.049,0.011c-2.103,0.462-4.251,0.549-6.356,0.268c-2.631,3.858-6.53,6.573-11.131,7.666
					l-0.507,0.171c-0.155,0.053-0.313,0.096-0.473,0.132c-2.463,0.541-5.007,0.575-7.418,0.131l-1.947,19.232
					c-0.505,4.983-3.003,9.458-7.036,12.603c-3.985,3.106-9.005,4.532-14.135,4.013l-0.941-0.095
					c-2.686-0.272-5.207-1.062-7.493-2.349c-6.465-3.634-10.007-10.57-9.244-18.105l5.207-51.427l-4.111-15.408
					c-0.056-0.062-0.11-0.124-0.163-0.189c-4.755-5.896-5.415-14.131-1.689-21.002c0.349-0.686,0.752-1.193,0.975-1.475l0.037-0.046
					c0.202-0.293,0.436-0.558,0.696-0.793l14.611-25.066l2.396-23.672c0.256-2.517,2.502-4.351,5.018-4.095l59.474,6.021
					C133.543,288.283,134.148,288.479,134.692,288.783z"/>
			</g>
			<g>
				<path fill="#D64351" d="M126.938,296.249c0.252,0.142,0.479,0.331,0.665,0.56c0.392,0.479,0.576,1.096,0.514,1.711
					l-1.918,18.946l10.271,25.802c1.176,2.953,1.213,6.224,0.105,9.203l-0.078,0.207c-4.134,11.115-14.465,18.512-26.318,18.846
					l-23.991,0.672c-3.098,0.089-6.273,2.205-9.344,4.253c-3.926,2.618-7.987,5.325-11.898,3.127
					c-0.957-0.538-1.825-1.354-2.579-2.431c-0.173-0.248-0.296-0.525-0.364-0.819l-5.432-23.746
					c-2.543-3.938-2.727-9.06-0.437-13.179l15.231-27.396l1.928-19.034c0.062-0.617,0.366-1.184,0.846-1.574
					c0.48-0.392,1.095-0.576,1.711-0.515l50.178,5.08C126.352,295.994,126.661,296.094,126.938,296.249z M67.235,375.52
					c1.415,0.795,4.137-1.02,7.018-2.941c3.452-2.302,7.364-4.91,11.805-5.033l23.991-0.676c9.941-0.278,18.604-6.48,22.071-15.803
					l0.077-0.207c0.705-1.896,0.681-3.973-0.066-5.85l-10.482-26.332c-0.139-0.35-0.191-0.727-0.153-1.1l1.741-17.19l-45.532-4.61
					l-1.741,17.19c-0.032,0.315-0.128,0.621-0.283,0.899l-15.464,27.818c-1.505,2.705-1.329,6.092,0.447,8.627
					c0.173,0.246,0.297,0.525,0.365,0.818l5.417,23.684C66.71,375.137,66.975,375.373,67.235,375.52z"/>
			</g>
			<g>
				<path fill="#423D3D" d="M85.849,367.766l-6.133,60.568c-0.545,5.385-5.318,9.498-10.703,8.953l-0.942-0.096
					c-5.385-0.546-9.43-6.49-8.978-10.945l5.065-50.02"/>
			</g>
			<g>
				<path fill="#D64351" d="M87.03,365.661c0.81,0.456,1.317,1.36,1.218,2.347l-6.135,60.569c-0.688,6.8-6.674,11.783-13.343,11.107
					l-0.943-0.096c-3.128-0.316-6.169-2.115-8.343-4.934c-2.029-2.631-3.072-5.867-2.79-8.654l5.065-50.019
					c0.134-1.323,1.316-2.289,2.642-2.153c1.324,0.133,2.289,1.315,2.155,2.642l-5.065,50.018c-0.159,1.567,0.536,3.569,1.812,5.225
					c1.367,1.773,3.194,2.896,5.012,3.08l0.942,0.096c4.024,0.408,7.642-2.642,8.062-6.798l6.133-60.569
					c0.135-1.324,1.316-2.289,2.641-2.154C86.433,365.4,86.75,365.504,87.03,365.661z"/>
			</g>
			<g>
				<path fill="#423D3D" d="M79.077,368.746c-1.163-5.285,2.181-10.514,7.467-11.676l0.926-0.202
					c5.285-1.163,10.513,2.18,11.675,7.466l5.417,24.643c1.162,5.285-2.181,10.515-7.467,11.677l-0.925,0.204
					c-5.286,1.16-10.514-2.183-11.676-7.469L79.077,368.746z"/>
			</g>
			<g>
				<path fill="#423D3D" d="M99.235,362.861c-1.079-4.907,2.025-9.76,6.932-10.84l0.858-0.188c4.907-1.08,9.76,2.024,10.839,6.931
					l5.028,22.875c1.08,4.906-2.024,9.76-6.931,10.84l-0.859,0.188c-4.907,1.079-9.76-2.023-10.838-6.934L99.235,362.861z"/>
			</g>
			<g>
				<path fill="#D64351" d="M114.578,350.752c2.839,1.596,4.868,4.334,5.567,7.512l5.028,22.875
					c1.354,6.156-2.555,12.266-8.711,13.62l-0.859,0.188c-2.744,0.604-5.605,0.178-8.054-1.198
					c-2.838-1.597-4.867-4.334-5.566-7.513l-5.029-22.873c-1.354-6.157,2.554-12.268,8.71-13.623l0.86-0.188
					C109.27,348.949,112.13,349.375,114.578,350.752z M109.838,389.678c1.448,0.814,3.139,1.066,4.764,0.709l0.859-0.188
					c3.641-0.802,5.953-4.415,5.151-8.058l-5.028-22.873c-0.414-1.881-1.614-3.5-3.294-4.444c-1.448-0.813-3.139-1.065-4.763-0.707
					l-0.859,0.188c-3.641,0.801-5.954,4.416-5.152,8.057l5.029,22.873C106.958,387.114,108.159,388.734,109.838,389.678z"/>
			</g>
			<g>
				<path fill="#423D3D" d="M117.71,356.221c-0.983-4.472,1.845-8.895,6.316-9.877l0.783-0.172c4.471-0.982,8.893,1.846,9.876,6.316
					l4.582,20.847c0.984,4.472-1.844,8.894-6.316,9.877l-0.783,0.172c-4.472,0.982-8.894-1.845-9.877-6.317L117.71,356.221z"/>
			</g>
			<g>
				<path fill="#D64351" d="M131.792,345.006c2.639,1.482,4.524,4.027,5.174,6.982l4.582,20.845
					c1.258,5.722-2.374,11.399-8.096,12.659l-0.784,0.171c-2.55,0.562-5.209,0.166-7.484-1.112
					c-2.638-1.482-4.524-4.027-5.173-6.982l-4.583-20.846c-1.257-5.723,2.374-11.399,8.096-12.658l0.784-0.172
					C126.858,343.331,129.517,343.727,131.792,345.006z M127.474,380.479c1.274,0.717,2.764,0.938,4.193,0.623l0.785-0.172
					c3.206-0.705,5.241-3.888,4.536-7.095l-4.583-20.847c-0.364-1.655-1.422-3.081-2.901-3.913
					c-1.274-0.718-2.764-0.938-4.194-0.624l-0.783,0.173c-3.206,0.705-5.241,3.888-4.537,7.097l4.583,20.846
					C124.938,378.221,125.994,379.646,127.474,380.479z"/>
			</g>
			<g>
				<path fill="#EC1C24" d="M74.584,339.641l15.841,19.637c3.397,4.215,2.736,10.384-1.477,13.781l-0.736,0.594
					c-4.213,3.398-10.383,2.74-13.781-1.475l-15.84-19.638c-2.905-3.603-2.844-8.636-0.131-12.144"/>
			</g>
			<g>
				<path fill="#423D3D" d="M58.932,334.369l-3.522,0.164l-1.696,2.192c-4.492,5.808-4.407,13.859,0.207,19.581l15.839,19.637
					c3.014,3.738,7.498,5.883,12.303,5.883c3.593,0,7.115-1.244,9.915-3.503l0.737-0.594c6.78-5.468,7.848-15.435,2.38-22.22
					l-17.751-22.005l-12.924,0.606l-3.641,6.55l-5.082-0.329L58.932,334.369z"/>
			</g>
			<g>
				<path fill="#D64351" d="M75.729,337.605c0.251,0.141,0.48,0.33,0.672,0.567l15.84,19.64c4.201,5.207,3.381,12.861-1.827,17.062
					l-0.736,0.595c-5.208,4.201-12.863,3.383-17.065-1.826l-15.84-19.638c-3.544-4.394-3.609-10.577-0.16-15.038
					c0.788-1.02,2.255-1.207,3.275-0.417c1.02,0.788,1.208,2.255,0.418,3.274c-2.12,2.742-2.079,6.546,0.102,9.249l15.84,19.638
					c2.585,3.204,7.293,3.708,10.497,1.124l0.736-0.594c3.205-2.586,3.709-7.294,1.125-10.499l-15.841-19.637
					c-0.809-1.004-0.652-2.476,0.352-3.284C73.885,337.204,74.921,337.15,75.729,337.605z"/>
			</g>
			<path fill="#D64351" d="M90.88,311.551l2.984,0.338l-3.461,30.641l5.409,0.611l0.24-0.39c0.616-0.998,1.413-1.815,2.368-2.433
				c0.972-0.627,2.33-1.117,4.038-1.463l0.517-0.104l0.644-5.692l-0.961,0.18c-1.257,0.232-2.332,0.514-3.192,0.83
				c-0.48,0.178-0.975,0.395-1.48,0.646l2.495-22.081l4.014,0.454l0.621-5.497l-13.613-1.536L90.88,311.551z"/>
		</g>
		<path fill="#D64351" d="M118.058,334.871l0.269-2.37l-2.5-0.282l0.433-3.835l-2.37-0.269l-0.433,3.835l-1.904-0.214l0.434-3.838
			l-2.371-0.267l-0.434,3.835l-2.499-0.281l-0.269,2.371l2.5,0.28l-0.215,1.904l-2.5-0.283l-0.267,2.371l2.499,0.282l-0.434,3.836
			l2.369,0.269l0.434-3.837l1.904,0.217l-0.434,3.834l2.371,0.269l0.433-3.835l2.5,0.281l0.268-2.369l-2.5-0.282l0.215-1.905
			L118.058,334.871z M112.973,336.227l-1.904-0.217l0.216-1.904l1.904,0.217L112.973,336.227z"/>
	</g>
	<g>
		<path fill="#D64351" d="M85.445,354.937c0.197-0.054,0.396-0.103,0.597-0.146l0.927-0.202c2.913-0.641,5.949-0.189,8.549,1.271
			c3.012,1.692,5.166,4.6,5.907,7.973l5.417,24.643c1.437,6.535-2.711,13.021-9.246,14.458l-0.926,0.204
			c-2.915,0.641-5.95,0.188-8.549-1.271c-3.013-1.693-5.167-4.602-5.908-7.975l-3.894-17.713l4.694-0.398l3.762,17.107
			c0.455,2.076,1.78,3.864,3.635,4.907c1.598,0.897,3.465,1.175,5.258,0.782l0.925-0.204c4.02-0.884,6.571-4.874,5.688-8.896
			l-5.417-24.642c-0.457-2.075-1.782-3.862-3.635-4.905c-1.599-0.897-3.465-1.176-5.258-0.781L85.445,354.937z"/>
	</g>
	<path fill="#423D3D" d="M65.495,370.655l1.071,5.472c2.434,0.92,2.653,0.748,2.653,0.748l-1.375-4.203L65.495,370.655z"/>
</g>
</svg>
