<?xml version="1.0" encoding="utf-8"?>
<!-- Generator: Adobe Illustrator 18.0.0, SVG Export Plug-In . SVG Version: 6.00 Build 0)  -->
<!DOCTYPE svg PUBLIC "-//W3C//DTD SVG 1.1//EN" "http://www.w3.org/Graphics/SVG/1.1/DTD/svg11.dtd">
<svg version="1.1" id="content" xmlns="http://www.w3.org/2000/svg" xmlns:xlink="http://www.w3.org/1999/xlink" x="0px" y="0px"
	 width="500px" height="500px" viewBox="0 0 500 500" enable-background="new 0 0 500 500" xml:space="preserve">
<g id="bounds" display="none">
	<rect x="33.1" y="214.6" display="inline" fill="none" stroke="#000000" stroke-width="1.0144" width="128.8" height="139"/>
</g>
<rect id="position" display="none" fill="none" stroke="#000000" width="500" height="500"/>
<g>
	<path fill="#FF6295" d="M124.7,284.1c-0.9,5.5-4.9,20.8-5.8,24.2c-0.9,3.5-4.4,6.2-12.7,7.5c-5.5,0.9-11,0.9-17.9,0
		c-8.4-1-11.8-4-12.7-7.5s-4.9-18.8-5.8-24.2c0,0,9.5,2.6,27.4,2.6S124.7,284.1,124.7,284.1z"/>
	<polygon fill="#FB1462" points="97.5,289 97,313 96.5,289 	"/>
	<polygon fill="#FB1462" points="89.5,288.5 89.9,313 88.5,288.6 	"/>
	<polygon fill="#FB1462" points="81.1,288.1 82.8,313 80.1,288.2 	"/>
	<polygon fill="#FB1462" points="73.1,285.5 75.6,306.5 72.1,285.6 	"/>
	<polygon fill="#FB1462" points="121.8,286 118.3,306.5 120.8,285.9 	"/>
	<polygon fill="#FB1462" points="113.8,288.2 111.1,313 112.8,288.1 	"/>
	<polygon fill="#FB1462" points="105.3,288.6 104,313 104.3,288.5 	"/>
	<ellipse fill="#FFCD7C" cx="97.3" cy="284.1" rx="27.4" ry="5.8"/>
	<path fill="#3DD5FC" d="M100.8,284.6c-14,5.4-20.7-1.3-20.7-1.3s-6.9,3.1-6.2-7s12.6-12.3,23.7-25.1h0.2
		c7.4,10,22.7,14.4,23.3,24.5c0.7,10.1-6.2,7.6-6.2,7.6S106.8,287.8,100.8,284.6L100.8,284.6z"/>
	<path fill="#F5D5AA" d="M124.7,284.1c0,0,0,0.1,0,0.2c0,0.1,0,0.3-0.1,0.5c-0.1,0.4-0.6,1-1.2,1.5c-0.7,0.5-1.5,1-2.6,1.5
		c-1,0.5-2.2,0.9-3.6,1.3c-2.7,0.8-5.8,1.4-9.2,1.9c-1.7,0.2-3.5,0.4-5.3,0.5c-1.8,0.1-3.6,0.2-5.5,0.2l-1.4,0c-0.5,0-0.9,0-1.4,0
		c-0.9,0-1.8-0.1-2.7-0.1c-1.8-0.1-3.6-0.3-5.3-0.5c-3.4-0.4-6.6-1.1-9.2-1.9c-1.3-0.4-2.5-0.8-3.6-1.3c-1-0.5-1.9-1-2.6-1.5
		c-0.7-0.5-1.1-1.1-1.2-1.5c-0.1-0.2-0.1-0.4-0.1-0.5c0-0.1,0-0.2,0-0.2c0,0,0,0.2,0.3,0.6c0.2,0.3,0.7,0.7,1.4,1
		c1.4,0.6,3.6,1.1,6.2,1.4c2.6,0.4,5.7,0.6,9.1,0.8c1.7,0.1,3.4,0.1,5.1,0.2c0.9,0,1.8,0,2.6,0c0.4,0,0.9,0,1.3,0l1.3,0
		c1.8,0,3.6,0,5.3-0.1c1.8,0,3.5-0.1,5.1-0.2c3.3-0.2,6.4-0.4,9.1-0.8c2.6-0.4,4.8-0.8,6.2-1.4c0.7-0.3,1.2-0.7,1.4-1
		C124.7,284.4,124.7,284.1,124.7,284.1z"/>
	<path opacity="0.3" fill="#FAFAFA" d="M98.4,255.9c3.7,3.7,21.2,18.5,14.3,25.4c-1.5,1.5-3.4,1.5-2.6-0.6c0.9-2.2,3.8-5-1.8-12.1
		S98.4,255.9,98.4,255.9z"/>
	<path opacity="0.3" fill="#FAFAFA" d="M94.9,284.1c5.2-1.3,13-6.4,5.2-24.1c0,0,5.4,16.4-4.7,21.2C93,282.4,93.9,284.4,94.9,284.1z
		"/>
	<path opacity="0.3" fill="#FAFAFA" d="M81,282.5c1.5,0.8,7.7,1.8,12-5.2c4.3-7,4.2-11,4.7-20.2c0,0-3.1,20.2-11.5,23.4
		C78.5,283.4,81,282.5,81,282.5z"/>
	<path opacity="0.3" fill="#FAFAFA" d="M78.1,281.7c-1.8,0.6-5.6-8.2,0.6-12.5s11.6-7.9,13.9-10.3c0,0-5.6,5.6-10.2,9.1
		s-6,5.7-5.7,8.4C76.9,279.2,78.8,281.5,78.1,281.7z"/>
	<path opacity="0.3" fill="#FAFAFA" d="M80,276.7c0,0,10.3-7.3,15.3-20C95.3,256.7,89.7,274.1,80,276.7z"/>
	<path opacity="0.3" fill="#FAFAFA" d="M112.8,265.9c0,0,6,4.5,6.7,12.1C119.6,278,120.4,269.8,112.8,265.9z"/>
</g>
</svg>
