<?xml version="1.0" encoding="utf-8"?>
<!-- Generator: Adobe Illustrator 16.0.4, SVG Export Plug-In . SVG Version: 6.00 Build 0)  -->
<!DOCTYPE svg PUBLIC "-//W3C//DTD SVG 1.1//EN" "http://www.w3.org/Graphics/SVG/1.1/DTD/svg11.dtd">
<svg version="1.1" id="content" xmlns="http://www.w3.org/2000/svg" xmlns:xlink="http://www.w3.org/1999/xlink" x="0px" y="0px"
	 width="500px" height="500px" viewBox="0 0 500 500" enable-background="new 0 0 500 500" xml:space="preserve">
<g id="position" display="none">
	<path display="inline" d="M500.5,500.5h-501v-501h501V500.5z M0.5,499.5h499V0.5H0.5V499.5z"/>
</g>
<g id="bounds">
	<rect x="9.838" y="238.532" fill="none" stroke="#000000" stroke-width="1.2441" width="130.954" height="142.479"/>
</g>
<g>
	<path fill="#7BC959" d="M94.221,312.814c0,0,3.908,1.283,8.359,5.002c4.348,3.645,1.678,8.113-2.172,8.203
		c-2.794,0.068-5.064-1.593-6.662-3.48c-2.972-3.611-6.408-4.45-6.408-4.45"/>
	<path fill="none" stroke="#69AB4B" stroke-linecap="round" stroke-linejoin="round" stroke-miterlimit="10" d="M99.801,321.615
		c0,0-1.093,0.824-1.164,2.462"/>
	<path fill="none" stroke="#69AB4B" stroke-linecap="round" stroke-linejoin="round" stroke-miterlimit="10" d="M97.887,320.348
		c0,0-1.094,0.825-1.163,2.463"/>
	<path fill="none" stroke="#69AB4B" stroke-linecap="round" stroke-linejoin="round" stroke-miterlimit="10" d="M95.975,319.084
		c0,0-1.094,0.822-1.164,2.461"/>
	
		<line fill="none" stroke="#69AB4B" stroke-linecap="round" stroke-linejoin="round" stroke-miterlimit="10" x1="94.212" y1="319.381" x2="99.991" y2="323.553"/>
	<path fill="#7BC959" d="M61.554,322.406c0,0-2.977,1.912-4.61,6.295c-0.895,2.305-2.5,4.615-5.165,5.461
		c-3.668,1.169-7.648-2.186-4.725-7.049c2.997-4.966,6.274-7.451,6.274-7.451"/>
	<path fill="none" stroke="#69AB4B" stroke-linecap="round" stroke-linejoin="round" stroke-miterlimit="10" d="M52.821,331.748
		c-0.6-1.525-1.901-1.948-1.901-1.948"/>
	<path fill="none" stroke="#69AB4B" stroke-linecap="round" stroke-linejoin="round" stroke-miterlimit="10" d="M54.217,329.929
		c-0.599-1.526-1.901-1.951-1.901-1.951"/>
	<path fill="none" stroke="#69AB4B" stroke-linecap="round" stroke-linejoin="round" stroke-miterlimit="10" d="M55.614,328.107
		c-0.6-1.525-1.901-1.947-1.901-1.947"/>
	
		<line fill="none" stroke="#69AB4B" stroke-linecap="round" stroke-linejoin="round" stroke-miterlimit="10" x1="51.37" y1="331.693" x2="55.475" y2="325.867"/>
	<g>
		<path fill="#66A84B" d="M99.011,283.727c3.523-0.59,6.852,1.784,7.441,5.302c0.589,3.519-1.785,6.847-5.309,7.437
			c-3.518,0.59-6.847-1.785-7.436-5.303C93.119,287.645,95.493,284.316,99.011,283.727z"/>
		<path fill="#578F40" d="M100.077,286.445c0.59-0.205,1.192-0.242,1.77-0.162c-1.427,1.404-2.009,3.549-1.313,5.565
			c0.272,0.792,0.718,1.473,1.274,2.026c-1.766,0.226-3.505-0.807-4.107-2.553C97.009,289.32,98.071,287.135,100.077,286.445z"/>
	</g>
	<g>
		<path fill="#66A84B" d="M46.804,299.016c0.589,3.518-1.785,6.848-5.303,7.436c-3.524,0.59-6.853-1.783-7.442-5.301
			s1.785-6.847,5.31-7.438C42.886,293.124,46.215,295.499,46.804,299.016z"/>
		<path fill="#578F40" d="M43.081,300.467c0,1.848-1.308,3.391-3.051,3.752c0.345-0.704,0.544-1.493,0.544-2.33
			c0.002-2.133-1.248-3.972-3.055-4.834c0.519-0.264,1.101-0.426,1.726-0.424C41.366,296.629,43.084,298.35,43.081,300.467z"/>
	</g>
	<g>
		<path fill="#CF3765" d="M82.259,307.75c0,0,7.749,1.098,15.137,4.84c-5.882,6.732-7.118,11.557-7.118,11.557l-6.439-6.996
			L82.259,307.75z"/>
		<path fill="#C43460" d="M82.455,307.985c0,0,7.295,6.315,8.847,13.574c-1.658,3.739-2.538,4.442-2.538,4.442L82.455,307.985z"/>
		<path fill="#7BC959" d="M89.684,332.194c0,0,1.358,6.733,0.691,12.173c-0.661,5.316-5.572,5.489-7.621,2.487
			c-1.487-2.184-1.706-7.815-1.025-10.052c1.341-4.207,0.242-7.361,0.242-7.361"/>
		<path fill="#7BC959" d="M63.904,336.525c0,0,0.916,6.805,3.323,11.727c2.36,4.812,7.06,3.37,8.015-0.138
			c0.693-2.547-0.938-7.944-2.312-9.831c-2.64-3.539-2.636-6.882-2.636-6.882"/>
		<path fill="#D88274" d="M75.652,343.619"/>
		<path fill="#31827C" d="M89.136,322.09l-2.024,0.227l-11.534,4.694L63.14,326.34l-1.987,0.448c0,0-0.821,6.679,2.982,14.586
			c2.76,2.83,11.717,2.212,11.717,2.212l-0.03-0.186c0,0-0.043-3.193,1.915-3.521c1.96-0.33,2.963,2.703,2.963,2.703l0.031,0.186
			c0,0,8.669-2.342,10.353-5.917C92.096,328.133,89.136,322.09,89.136,322.09z"/>
		<path fill="#CF3765" d="M62.939,310.994c0,0-6.965,3.566-12.727,9.52c7.761,4.441,10.504,8.598,10.504,8.598l3.801-8.721
			L62.939,310.994z"/>
		<path fill="#C43460" d="M62.832,311.281c0,0-4.833,8.354-3.931,15.721c2.788,2.992,3.851,3.369,3.851,3.369L62.832,311.281z"/>
		<path fill="#ED3F74" d="M79.888,305.477l-7.877,0.396l-7.574,2.198c0,0-4.65,5.512-3.601,23.842
			c8.361,4.51,16.128,3.459,16.128,3.459s7.684-1.541,14.115-8.537C86.084,309.166,79.888,305.477,79.888,305.477z"/>
		<path opacity="0.1" fill="#0D0F0F" enable-background="new    " d="M72.522,309.507l-9.634,0.803c0,0,2.836,4.48,10.311,3.225
			c7.473-1.256,8.689-6.414,8.689-6.414L72.522,309.507z"/>
		<path opacity="0.05" fill="#0C0306" enable-background="new    " d="M82.356,307.824l-0.22-0.02c0,0,9.534,18.55-6.226,21.193
			C60.152,331.643,63.105,311,63.105,311l-0.202,0.088c-1.246,3.321-2.704,9.719-2.066,20.822c8.361,4.51,16.128,3.459,16.128,3.459
			s0.014-0.002,0.015-0.002c0.003-0.002,0.018-0.002,0.018-0.002s7.685-1.547,14.114-8.539
			C88.085,316.124,84.618,310.557,82.356,307.824z"/>
		<path fill="#FFC4D6" d="M77.46,316.382c-2.389,0.401-3.297,2.204-3.297,2.204s-1.45-1.407-3.837-1.007
			c-2.194,0.37-3.522,2.538-3.159,4.704c0.363,2.168,4.338,6.184,8.932,7.837c3.802-3.062,6.246-8.154,5.882-10.323
			C81.616,317.632,79.652,316.014,77.46,316.382z"/>
		<path fill="none" stroke="#324230" stroke-width="3" stroke-linecap="round" stroke-miterlimit="10" d="M90.664,327.347
			c0,0-6.215,6.77-13.306,7.96l-0.793,0.132c-7.086,1.19-15.171-3.178-15.171-3.178"/>
		<circle fill="#F1CB8A" cx="76.964" cy="335.374" r="3.599"/>
		<path fill="#FFD792" d="M76.368,331.825c-1.574,0.264-2.719,1.516-2.945,3.011c0.704,1.339,2.193,2.148,3.767,1.883
			c1.574-0.264,2.721-1.518,2.946-3.009C79.434,332.37,77.941,331.561,76.368,331.825z"/>
	</g>
	<g>
		<path fill="#6BAD4C" d="M78.862,281.723c-0.384,0.836-1.377,1.199-2.211,0.816l0,0c-0.833-0.389-1.197-1.379-0.813-2.213
			l4.482-9.709c0.386-0.837,1.375-1.201,2.209-0.816l0,0c0.833,0.387,1.2,1.381,0.814,2.216L78.862,281.723z"/>
		<path fill="#6BAD4C" d="M57.329,285.519c0.649,0.655,1.704,0.657,2.356,0.013l0,0c0.649-0.652,0.656-1.704,0.01-2.357
			l-7.536-7.595c-0.648-0.653-1.701-0.658-2.354-0.008l0,0c-0.652,0.647-0.657,1.702-0.01,2.356L57.329,285.519z"/>
		<path fill="#7BC959" d="M67.512,278.572c-30.679,5.126-24.974,25.518-24.974,25.518c1.987,12.588,30.193,6.979,30.193,6.979
			s28.383-3.318,26.396-15.904C99.127,295.164,98.193,273.447,67.512,278.572z"/>
		<path fill="#74BF54" d="M72.041,306.928c0,0-26.321,5.232-29.899-5.764c0.085,1.789,0.397,2.926,0.397,2.926
			c1.987,12.588,30.193,6.979,30.193,6.979s28.383-3.318,26.396-15.904c0,0-0.058-1.348-0.618-3.289
			C99.108,303.757,72.041,306.928,72.041,306.928z"/>
		<g>
			<path fill="#436E31" d="M57.78,294.019c0,0-0.135-0.132-0.387-0.347c-0.246-0.207-0.609-0.492-1.037-0.734
				c-0.214-0.12-0.454-0.209-0.692-0.296c-0.241-0.073-0.49-0.097-0.736-0.101c-0.25,0.011-0.502,0.046-0.768,0.123
				c-0.265,0.072-0.537,0.201-0.814,0.331c0.179-0.108,0.045-0.026,0.086-0.053l-0.004,0.003l-0.008,0.006l-0.014,0.009
				l-0.031,0.023l-0.062,0.037l-0.119,0.077l-0.245,0.154c-0.165,0.107-0.194,0.167-0.304,0.24c-0.188,0.16-0.37,0.368-0.507,0.572
				c-0.129,0.207-0.243,0.43-0.314,0.668c-0.053,0.24-0.107,0.492-0.121,0.736c-0.029,0.494,0.015,0.947,0.058,1.268
				c0.041,0.318,0.078,0.506,0.079,0.504l-0.377,0.239c0,0-0.172-0.14-0.402-0.432c-0.225-0.292-0.528-0.743-0.718-1.39
				c-0.097-0.322-0.162-0.701-0.155-1.117c0.003-0.204,0.036-0.422,0.061-0.644c0.057-0.216,0.116-0.446,0.209-0.665
				c0.191-0.436,0.447-0.836,0.805-1.199c0.179-0.164,0.404-0.392,0.562-0.49l0.238-0.158l0.118-0.08l0.06-0.041l0.15-0.096
				c0.421-0.191,0.847-0.377,1.323-0.457c0.469-0.102,0.965-0.102,1.431-0.021c0.229,0.042,0.453,0.114,0.665,0.185
				c0.2,0.1,0.398,0.191,0.574,0.297c0.35,0.225,0.63,0.48,0.846,0.743c0.444,0.511,0.653,1.007,0.774,1.358
				c0.115,0.346,0.14,0.564,0.14,0.564L57.78,294.019z"/>
		</g>
		<g>
			<path fill="#436E31" d="M80.94,289.823c0,0-0.053-0.214-0.062-0.581c-0.004-0.369,0.021-0.908,0.263-1.541
				c0.114-0.316,0.291-0.655,0.544-0.982c0.127-0.162,0.283-0.318,0.436-0.479c0.175-0.141,0.358-0.285,0.561-0.404
				c0.41-0.232,0.877-0.4,1.35-0.473c0.479-0.082,0.942-0.054,1.404-0.02l0.172,0.037l0.072,0.018l0.14,0.035l0.278,0.068
				c0.181,0.04,0.471,0.176,0.694,0.268c0.46,0.223,0.838,0.508,1.169,0.855c0.162,0.174,0.294,0.365,0.419,0.551
				c0.1,0.197,0.205,0.394,0.279,0.586c0.149,0.385,0.219,0.764,0.236,1.101c0.045,0.675-0.084,1.201-0.197,1.55
				c-0.118,0.357-0.231,0.545-0.231,0.545l-0.435-0.096c0,0-0.03-0.186-0.101-0.5c-0.069-0.314-0.186-0.761-0.381-1.212
				c-0.095-0.224-0.231-0.439-0.366-0.647c-0.151-0.201-0.331-0.373-0.525-0.529c-0.197-0.14-0.44-0.273-0.669-0.357
				c-0.13-0.035-0.182-0.082-0.372-0.125l-0.28-0.064l-0.141-0.029l-0.068-0.016l-0.034-0.01l-0.019-0.005l-0.01-0.002l-0.002,0.002
				c0.045,0.008-0.106-0.021,0.1,0.019c-0.305-0.025-0.606-0.055-0.879-0.031c-0.277,0.018-0.526,0.07-0.765,0.146
				c-0.231,0.091-0.455,0.199-0.659,0.347c-0.193,0.156-0.386,0.326-0.545,0.515c-0.322,0.374-0.564,0.763-0.727,1.05
				c-0.161,0.285-0.245,0.455-0.245,0.455L80.94,289.823z"/>
		</g>
		<path fill="#27401D" d="M77.909,290.709c-0.245,0.919-16.065,3.707-16.61,2.931c0.957,6.854,3.846,11.21,10.338,10.064
			C78.13,302.561,79.352,297.479,77.909,290.709z"/>
		<path fill="#FD4E6D" d="M70.941,299.18c-2.317,0.41-3.916,2.34-3.773,4.414c0.11,0.061,0.241,0.101,0.358,0.148
			c1.181,0.336,2.549,0.389,4.138,0.111c1.843-0.328,3.25-0.98,4.305-1.893C75.361,300.011,73.228,298.78,70.941,299.18z"/>
	</g>
</g>
</svg>
