<?xml version="1.0" encoding="utf-8"?>
<!-- Generator: Adobe Illustrator 18.0.0, SVG Export Plug-In . SVG Version: 6.00 Build 0)  -->
<!DOCTYPE svg PUBLIC "-//W3C//DTD SVG 1.1//EN" "http://www.w3.org/Graphics/SVG/1.1/DTD/svg11.dtd">
<svg version="1.1" id="content" xmlns="http://www.w3.org/2000/svg" xmlns:xlink="http://www.w3.org/1999/xlink" x="0px" y="0px"
	 width="500px" height="500px" viewBox="0 0 500 500" enable-background="new 0 0 500 500" xml:space="preserve">
<g id="bounds" display="none">
	<rect x="35.8" y="158.5" display="inline" fill="none" stroke="#000000" stroke-width="0.9201" width="132.3" height="143.9"/>
</g>
<g id="position" display="none">
	<rect display="inline" fill="none" stroke="#000000" width="500" height="500"/>
</g>
<g>
	<path fill="#FF00B1" d="M127.9,230.6l-51.7-0.1c-4,0-7.2-3.2-7.2-7.2l0.1-22.6c0-4,3.2-7.2,7.2-7.2l51.7,0.1c4,0,7.2,3.2,7.2,7.2
		l-0.1,22.6C135.1,227.4,131.9,230.6,127.9,230.6z"/>
	<path fill="#DD10A8" d="M127.8,267.6l-51.7-0.1c-4,0-7.2-3.2-7.2-7.2l0.1-22.6c0-4,3.2-7.2,7.2-7.2l51.7,0.1c4,0,7.2,3.2,7.2,7.2
		l-0.1,22.6C135,264.4,131.8,267.6,127.8,267.6z"/>
</g>
</svg>
