<?xml version="1.0" encoding="utf-8"?>
<!-- Generator: Adobe Illustrator 18.0.0, SVG Export Plug-In . SVG Version: 6.00 Build 0)  -->
<!DOCTYPE svg PUBLIC "-//W3C//DTD SVG 1.1//EN" "http://www.w3.org/Graphics/SVG/1.1/DTD/svg11.dtd">
<svg version="1.1" id="content" xmlns="http://www.w3.org/2000/svg" xmlns:xlink="http://www.w3.org/1999/xlink" x="0px" y="0px"
	 viewBox="0 0 500 500" enable-background="new 0 0 500 500" xml:space="preserve">
<g id="bounds">
	<rect x="-56.2" y="191" fill="none" stroke="#000000" stroke-width="1.2441" width="275.8" height="300"/>
</g>
<rect id="position" display="none" fill="none" stroke="#000000" width="500" height="500"/>
<g>
	<polygon fill="#808285" points="102.2,236.1 82.7,413.1 78.8,412.6 98.2,235.6 	"/>
	<path fill="#E6E7E8" d="M35.5,440.1c-0.8-1.8,4.7-11.1,17-16.7c12.3-5.6,19.3-3.5,21.5-4.4c2.2-1,3.4-4.3,3.8-6.1
		c0.4-1.9,5.9,0.2,5.9,0.2s-0.5,3.9-0.1,6.2s3.1,19.6-14.7,27.8C51.1,455.3,38.4,446.6,35.5,440.1z"/>
	<path fill="#464543" d="M38.4,440.2c-0.6-1.5,5.8-9.8,15.8-14.4s15.2-4.9,21.2-6.1s6.2-2.6,6.9,0.4c0.8,3,1.6,19-14.4,26.3
		c-10.6,4.8-18.9,1.7-20.2,1C46.4,446.7,39.4,442.8,38.4,440.2z"/>
	<g>
		<g>
			<path fill="#A7A9AC" d="M49.9,434.6c0,0.1-0.1,0.3-0.3,0.3l-6.4,2.9c-0.2,0.1-0.5,0-0.6-0.2c-0.1-0.2,0-0.5,0.2-0.6l6.4-2.9
				c0.2-0.1,0.5,0,0.6,0.2C49.9,434.4,49.9,434.5,49.9,434.6z"/>
		</g>
		<g>
			<path fill="#A7A9AC" d="M53.2,433.1c0,0.1-0.1,0.3-0.3,0.3l-1.7,0.8c-0.2,0.1-0.5,0-0.6-0.2s0-0.5,0.2-0.6l1.7-0.8
				c0.2-0.1,0.5,0,0.6,0.2C53.2,432.9,53.2,433,53.2,433.1z"/>
		</g>
		<g>
			<path fill="#A7A9AC" d="M69.7,425.5c0,0.1-0.1,0.3-0.3,0.3l-1.7,0.8c-0.2,0.1-0.5,0-0.6-0.2c-0.1-0.2,0-0.5,0.2-0.6L69,425
				c0.2-0.1,0.5,0,0.6,0.2S69.7,425.5,69.7,425.5z"/>
		</g>
		<g>
			<path fill="#A7A9AC" d="M74.8,423.2c0,0.1-0.1,0.3-0.3,0.3l-3.2,1.5c-0.2,0.1-0.5,0-0.6-0.2s0-0.5,0.2-0.6l3.2-1.5
				c0.2-0.1,0.5,0,0.6,0.2C74.8,423.1,74.8,423.2,74.8,423.2z"/>
		</g>
		<g>
			<path fill="#A7A9AC" d="M50.4,437.9c0,0.1-0.1,0.3-0.3,0.3l-7,3.2c-0.2,0.1-0.5,0-0.6-0.2s0-0.5,0.2-0.6l7-3.2
				c0.2-0.1,0.5,0,0.6,0.2C50.4,437.7,50.5,437.8,50.4,437.9z"/>
		</g>
		<g>
			<path fill="#A7A9AC" d="M79.6,424.6c0,0.1-0.1,0.3-0.3,0.3l-7,3.2c-0.2,0.1-0.5,0-0.6-0.2c-0.1-0.2,0-0.5,0.2-0.6l7-3.2
				c0.2-0.1,0.5,0,0.6,0.2C79.6,424.4,79.6,424.5,79.6,424.6z"/>
		</g>
		<g>
			<path fill="#A7A9AC" d="M79.9,427.6c0,0.1-0.1,0.3-0.3,0.3l-7,3.2c-0.2,0.1-0.5,0-0.6-0.2c-0.1-0.2,0-0.5,0.2-0.6l7-3.2
				c0.2-0.1,0.5,0,0.6,0.2C79.9,427.5,79.9,427.6,79.9,427.6z"/>
		</g>
		<g>
			<path fill="#A7A9AC" d="M80.6,430.7c0,0.1-0.1,0.3-0.3,0.3l-7,3.2c-0.2,0.1-0.5,0-0.6-0.2s0-0.5,0.2-0.6l7-3.2
				c0.2-0.1,0.5,0,0.6,0.2C80.6,430.5,80.6,430.6,80.6,430.7z"/>
		</g>
		<g>
			<path fill="#A7A9AC" d="M54.5,436c0,0.1-0.1,0.3-0.3,0.3l-1.7,0.8c-0.2,0.1-0.5,0-0.6-0.2c-0.1-0.2,0-0.5,0.2-0.6l1.7-0.8
				c0.2-0.1,0.5,0,0.6,0.2S54.5,435.9,54.5,436z"/>
		</g>
		<g>
			<path fill="#A7A9AC" d="M70.8,428.6c0,0.1-0.1,0.3-0.3,0.3l-1.7,0.8c-0.2,0.1-0.5,0-0.6-0.2s0-0.5,0.2-0.6l1.7-0.8
				c0.2-0.1,0.5,0,0.6,0.2C70.8,428.4,70.8,428.5,70.8,428.6z"/>
		</g>
		<g>
			<path fill="#A7A9AC" d="M52.4,440.1c0,0.1-0.1,0.3-0.3,0.3l-6.4,2.9c-0.2,0.1-0.5,0-0.6-0.2c-0.1-0.2,0-0.5,0.2-0.6l6.4-2.9
				c0.2-0.1,0.5,0,0.6,0.2S52.4,440.1,52.4,440.1z"/>
		</g>
		<g>
			<path fill="#A7A9AC" d="M55.7,438.6c0,0.1-0.1,0.3-0.3,0.3l-1.7,0.8c-0.2,0.1-0.5,0-0.6-0.2s0-0.5,0.2-0.6l1.7-0.8
				c0.2-0.1,0.5,0,0.6,0.2S55.7,438.6,55.7,438.6z"/>
		</g>
		<g>
			<path fill="#A7A9AC" d="M71.2,431.6c0,0.1-0.1,0.3-0.3,0.3l-1.7,0.8c-0.2,0.1-0.5,0-0.6-0.2s0-0.5,0.2-0.6l1.7-0.8
				c0.2-0.1,0.5,0,0.6,0.2C71.2,431.4,71.2,431.5,71.2,431.6z"/>
		</g>
		<g>
			<path fill="#A7A9AC" d="M54.6,442.5c0,0.1-0.1,0.3-0.3,0.3l-6.6,3c-0.2,0.1-0.5,0-0.6-0.2c-0.1-0.2,0-0.5,0.2-0.6l6.6-3
				c0.2-0.1,0.5,0,0.6,0.2C54.6,442.3,54.6,442.4,54.6,442.5z"/>
		</g>
		<g>
			<path fill="#A7A9AC" d="M59.4,440.3c0,0.1-0.1,0.3-0.3,0.3l-3.3,1.5c-0.2,0.1-0.5,0-0.6-0.2c-0.1-0.2,0-0.5,0.2-0.6l3.3-1.5
				c0.2-0.1,0.5,0,0.6,0.2C59.4,440.2,59.4,440.2,59.4,440.3z"/>
		</g>
		<g>
			<path fill="#A7A9AC" d="M71.8,434.7c0,0.1-0.1,0.3-0.3,0.3l-3.3,1.5c-0.2,0.1-0.5,0-0.6-0.2s0-0.5,0.2-0.6l3.3-1.5
				c0.2-0.1,0.5,0,0.6,0.2C71.8,434.5,71.8,434.6,71.8,434.7z"/>
		</g>
		<g>
			<path fill="#A7A9AC" d="M57.3,444.4c0,0.1-0.1,0.3-0.3,0.3l-6.4,2.9c-0.2,0.1-0.5,0-0.6-0.2c-0.1-0.2,0-0.5,0.2-0.6l6.4-2.9
				c0.2-0.1,0.5,0,0.6,0.2C57.3,444.3,57.3,444.4,57.3,444.4z"/>
		</g>
		<g>
			<path fill="#A7A9AC" d="M71.4,438c0,0.1-0.1,0.3-0.3,0.3L58.7,444c-0.2,0.1-0.5,0-0.6-0.2s0-0.5,0.2-0.6l12.4-5.6
				c0.2-0.1,0.5,0,0.6,0.2C71.4,437.9,71.4,438,71.4,438z"/>
		</g>
		<g>
			<path fill="#A7A9AC" d="M71,441.5c0,0.1-0.1,0.3-0.3,0.3l-8.2,3.7c-0.2,0.1-0.5,0-0.6-0.2s0-0.5,0.2-0.6l8.2-3.7
				c0.2-0.1,0.5,0,0.6,0.2S71,441.4,71,441.5z"/>
		</g>
		<g>
			<path fill="#A7A9AC" d="M79.6,434.3c0,0.1-0.1,0.3-0.3,0.3l-6.6,3c-0.2,0.1-0.5,0-0.6-0.2c-0.1-0.2,0-0.5,0.2-0.6l6.6-3
				c0.2-0.1,0.5,0,0.6,0.2S79.6,434.2,79.6,434.3z"/>
		</g>
	</g>
	<path fill="#58595B" d="M84.1,400.9l-3.9-0.6l-1.8,7.2c-0.1,0.4,0.1,1.6,0.6,1.7l4.5,0.6c0.4,0.1,0.9-0.9,1-1.4
		C84.4,408.4,84.3,403,84.1,400.9z"/>
	<path fill="#6D6E71" d="M104.9,234.3l-7.7,46.9l-3.9-0.4l3.3-47.5c0.1-1,1.1-1.7,2.1-1.5l4.9,0.6
		C104.5,232.6,105,233.4,104.9,234.3z"/>
	<polygon fill="#898987" points="83.6,414 77.5,413.2 78.3,407.5 84.4,408.4 	"/>
	<polygon fill="#58595B" points="97.5,279.5 93.4,279 93.3,280.8 97.2,281.2 	"/>
</g>
</svg>
