<?xml version="1.0" encoding="utf-8"?>
<!-- Generator: Adobe Illustrator 16.0.0, SVG Export Plug-In . SVG Version: 6.00 Build 0)  -->
<!DOCTYPE svg PUBLIC "-//W3C//DTD SVG 1.1//EN" "http://www.w3.org/Graphics/SVG/1.1/DTD/svg11.dtd">
<svg version="1.1" id="content" xmlns="http://www.w3.org/2000/svg" xmlns:xlink="http://www.w3.org/1999/xlink" x="0px" y="0px"
	 width="500px" height="500px" viewBox="0 0 500 500" enable-background="new 0 0 500 500" xml:space="preserve">
<g id="bounds">
	<rect x="146.888" y="122.968" fill="none" stroke="#000000" stroke-width="1.0717" width="210.137" height="210.136"/>
</g>
<path id="position" display="none" d="M499,1v498H1V1H499 M500,0H0v500h500V0L500,0z"/>
<polygon fill="#423D3D" points="345.469,252.432 270.646,252.546 284.621,203.107 "/>
<g>
	<polygon fill="#D64351" points="294.029,217.081 292.199,219.458 325.527,245.109 282.062,244.858 282.045,247.858 334.41,248.161 
			"/>
</g>
<polygon opacity="0.3" fill="#17191A" enable-background="new    " points="289.971,252.516 270.646,252.546 284.621,203.109 
	300.336,215.847 "/>
<polygon fill="#423D3D" points="299.998,196.334 286.023,245.771 192.853,245.912 229.064,138.836 "/>
<rect x="188.759" y="131.222" transform="matrix(0.9472 0.3207 -0.3207 0.9472 82.242 -49.4825)" fill="#A8A8A7" width="5.121" height="187.346"/>
<polygon fill="#423D3D" points="270.646,252.546 286.023,245.771 272.623,245.557 "/>
<g>
	<path fill="#D64351" d="M228.953,210.253c-2.307-0.714-4.244-1.938-5.814-3.674c-1.57-1.737-2.602-3.757-3.095-6.062
		c-0.492-2.304-0.38-4.621,0.341-6.95c0.538-1.737,1.396-3.291,2.575-4.659c1.179-1.367,2.521-2.444,4.026-3.229
		c1.506-0.783,3.157-1.269,4.955-1.456c1.796-0.187,3.562-0.011,5.301,0.527c2.282,0.706,4.216,1.835,5.799,3.383
		c1.585,1.55,2.709,3.342,3.376,5.376l0.282,0.868l-5.172,1.085l-0.336-0.827c-1.025-2.589-2.804-4.275-5.329-5.057
		c-2.155-0.667-4.224-0.47-6.21,0.591c-1.986,1.062-3.316,2.688-3.995,4.877c-0.699,2.258-0.539,4.414,0.476,6.468
		c1.014,2.054,2.605,3.415,4.773,4.085c2.676,0.828,5.267,0.474,7.774-1.061l0.354-1.147l-5.231-1.619l1.296-4.188l9.852,3.048
		l-4.005,12.947l-4.622-1.431l0.692-2.242c-1.296,0.538-2.589,0.847-3.875,0.925C231.855,210.911,230.458,210.716,228.953,210.253z"
		/>
	<path fill="#D64351" d="M261.422,219.19c-1.801,0.18-3.566,0.002-5.308-0.537c-1.737-0.539-3.296-1.391-4.671-2.56
		c-1.381-1.169-2.469-2.503-3.267-4c-0.8-1.497-1.301-3.144-1.499-4.938c-0.2-1.794-0.033-3.561,0.505-5.3
		c0.541-1.749,1.4-3.307,2.582-4.674c1.176-1.369,2.52-2.445,4.025-3.229c1.505-0.785,3.155-1.268,4.952-1.449
		c1.793-0.181,3.561-0.003,5.298,0.536c2.329,0.721,4.305,1.954,5.929,3.7c1.625,1.747,2.709,3.783,3.251,6.11
		c0.543,2.326,0.457,4.654-0.266,6.982c-0.538,1.736-1.394,3.291-2.565,4.661c-1.174,1.37-2.511,2.452-4.012,3.243
		C264.875,218.527,263.224,219.014,261.422,219.19z M254.059,211.572c0.946,1.087,2.128,1.848,3.541,2.285
		c1.412,0.438,2.816,0.476,4.21,0.114c1.394-0.363,2.609-1.053,3.649-2.07c1.039-1.018,1.783-2.251,2.23-3.699
		c0.688-2.225,0.542-4.342-0.436-6.351c-0.979-2.01-2.544-3.349-4.699-4.016c-1.412-0.437-2.816-0.478-4.207-0.121
		c-1.393,0.357-2.612,1.046-3.659,2.067c-1.046,1.021-1.793,2.256-2.239,3.705c-0.448,1.45-0.531,2.887-0.239,4.315
		C252.494,209.229,253.112,210.487,254.059,211.572z"/>
</g>
<g>
	<path fill="#D64351" d="M276.542,226.412c-0.917-0.256-1.6-0.782-2.051-1.573c-0.446-0.793-0.544-1.647-0.292-2.567
		c0.245-0.873,0.765-1.535,1.563-1.98c0.801-0.447,1.649-0.544,2.558-0.292c0.845,0.237,1.51,0.756,1.972,1.56
		c0.466,0.806,0.578,1.637,0.333,2.498c-0.249,0.898-0.774,1.572-1.581,2.029C278.239,226.542,277.402,226.651,276.542,226.412z
		 M276.401,217.628l4.707-16.94l4.725,1.312l-4.709,16.942L276.401,217.628z"/>
</g>
<g>
	<polygon fill="#D64351" points="288.154,238.236 196.013,236.571 195.018,239.51 287.291,241.292 	"/>
</g>
<polygon opacity="0.5" fill="#17191A" enable-background="new    " points="270.646,252.546 286.023,245.771 272.623,245.557 "/>
</svg>
