<?xml version="1.0" encoding="utf-8"?>
<!-- Generator: Adobe Illustrator 16.0.0, SVG Export Plug-In . SVG Version: 6.00 Build 0)  -->
<!DOCTYPE svg PUBLIC "-//W3C//DTD SVG 1.1//EN" "http://www.w3.org/Graphics/SVG/1.1/DTD/svg11.dtd">
<svg version="1.1" id="content" xmlns="http://www.w3.org/2000/svg" xmlns:xlink="http://www.w3.org/1999/xlink" x="0px" y="0px"
	 width="500px" height="500px" viewBox="0 0 500 500" enable-background="new 0 0 500 500" xml:space="preserve">
<g id="bounds">
	<rect x="-95.446" y="122.968" fill="none" stroke="#000000" stroke-width="1.0717" width="210.137" height="210.136"/>
</g>
<path id="position" display="none" d="M499,1v498H1V1H499 M500,0H0v500h500V0L500,0z"/>
<polygon fill="#423D3D" points="-23.043,203.107 -9.069,252.546 -83.89,252.432 "/>
<g>
	<polygon fill="#D64351" points="-72.831,248.161 -20.467,247.858 -20.484,244.858 -63.948,245.109 -30.62,219.458 -32.45,217.081 	
		"/>
</g>
<polygon opacity="0.3" fill="#17191A" enable-background="new    " points="-38.757,215.847 -23.042,203.109 -9.069,252.546 
	-28.392,252.516 "/>
<polygon fill="#423D3D" points="32.514,138.836 68.726,245.912 -24.446,245.771 -38.419,196.334 "/>
<rect x="67.707" y="131.232" transform="matrix(0.9472 -0.3207 0.3207 0.9472 -68.424 34.4203)" fill="#A8A8A7" width="5.121" height="187.343"/>
<polygon fill="#423D3D" points="-11.045,245.557 -24.446,245.771 -9.069,252.546 "/>
<g>
	<polygon fill="#D64351" points="-25.713,241.292 66.561,239.51 65.566,236.571 -26.576,238.236 	"/>
</g>
<polygon opacity="0.5" fill="#17191A" enable-background="new    " points="-11.045,245.557 -24.446,245.771 -9.069,252.546 "/>
<g>
	<path fill="#D64351" d="M28.437,210.834c-1.286-0.078-2.579-0.387-3.875-0.925l0.692,2.242l-4.622,1.431l-4.005-12.947l9.852-3.048
		l1.296,4.188l-5.231,1.619l0.354,1.147c2.508,1.534,5.099,1.889,7.774,1.061c2.168-0.671,3.76-2.032,4.773-4.085
		c1.015-2.055,1.175-4.21,0.476-6.468c-0.679-2.189-2.009-3.815-3.995-4.877c-1.986-1.061-4.055-1.258-6.21-0.591
		c-2.525,0.782-4.304,2.467-5.329,5.057l-0.336,0.827l-5.172-1.085l0.282-0.868c0.667-2.034,1.791-3.827,3.376-5.376
		c1.583-1.548,3.517-2.677,5.799-3.383c1.738-0.538,3.505-0.713,5.301-0.527c1.798,0.187,3.449,0.672,4.955,1.456
		c1.506,0.785,2.848,1.862,4.026,3.229c1.179,1.368,2.037,2.921,2.575,4.659c0.721,2.329,0.833,4.646,0.341,6.95
		c-0.493,2.305-1.524,4.325-3.095,6.062c-1.57,1.736-3.508,2.96-5.814,3.674C31.121,210.716,29.723,210.911,28.437,210.834z"/>
	<path fill="#D64351" d="M-4.798,217.735c-1.501-0.791-2.838-1.873-4.012-3.243c-1.172-1.37-2.027-2.924-2.565-4.661
		c-0.723-2.329-0.809-4.657-0.266-6.982c0.542-2.327,1.626-4.363,3.251-6.11c1.624-1.746,3.6-2.979,5.929-3.7
		c1.737-0.539,3.505-0.716,5.298-0.536c1.797,0.181,3.447,0.664,4.952,1.449c1.506,0.784,2.85,1.861,4.025,3.229
		c1.182,1.367,2.041,2.926,2.582,4.674c0.538,1.739,0.705,3.506,0.505,5.3c-0.198,1.794-0.699,3.441-1.499,4.938
		c-0.798,1.497-1.886,2.831-3.267,4c-1.375,1.169-2.934,2.021-4.671,2.56c-1.741,0.539-3.507,0.717-5.308,0.537
		C-1.645,219.014-3.296,218.527-4.798,217.735z M9.369,207.801c0.292-1.428,0.209-2.866-0.239-4.315
		c-0.446-1.448-1.193-2.683-2.239-3.705c-1.047-1.021-2.267-1.71-3.659-2.067c-1.391-0.357-2.795-0.315-4.207,0.121
		c-2.155,0.667-3.721,2.006-4.699,4.016c-0.978,2.009-1.124,4.126-0.436,6.351c0.447,1.448,1.191,2.682,2.23,3.699
		c1.04,1.018,2.256,1.707,3.649,2.07c1.394,0.362,2.798,0.325,4.21-0.114c1.413-0.438,2.595-1.198,3.541-2.285
		C8.466,210.487,9.084,209.229,9.369,207.801z"/>
</g>
<g>
	<path fill="#D64351" d="M-17.465,226.086c-0.807-0.457-1.332-1.131-1.581-2.029c-0.245-0.861-0.133-1.691,0.333-2.498
		c0.462-0.804,1.127-1.323,1.972-1.56c0.908-0.252,1.757-0.155,2.558,0.292c0.799,0.446,1.318,1.107,1.563,1.98
		c0.252,0.919,0.154,1.774-0.292,2.567c-0.451,0.791-1.134,1.317-2.051,1.573C-15.824,226.651-16.661,226.542-17.465,226.086z
		 M-19.545,218.942L-24.254,202l4.725-1.312l4.707,16.94L-19.545,218.942z"/>
</g>
</svg>
