<?xml version="1.0" encoding="utf-8"?>
<!-- Generator: Adobe Illustrator 16.0.0, SVG Export Plug-In . SVG Version: 6.00 Build 0)  -->
<!DOCTYPE svg PUBLIC "-//W3C//DTD SVG 1.1//EN" "http://www.w3.org/Graphics/SVG/1.1/DTD/svg11.dtd">
<svg version="1.1" id="content" xmlns="http://www.w3.org/2000/svg" xmlns:xlink="http://www.w3.org/1999/xlink" x="0px" y="0px"
	 width="500px" height="500px" viewBox="0 0 500 500" enable-background="new 0 0 500 500" xml:space="preserve">
<g id="bounds">
	<rect x="67.7" y="171.2" fill="none" stroke="#000000" stroke-width="1.0717" width="68.8" height="68.8"/>
</g>
<path id="position" display="none" d="M499,1v498H1V1H499 M500,0H0v500h500V0L500,0z"/>
<g>
	<path opacity="0.5" fill="#231F20" enable-background="new    " d="M91.954,201.104c-0.03,0.721-0.602,0.751-1.166,0.751
		c-0.574,0-1.155-0.105-1.732-0.105c-0.644,0-1.286,0.046-1.926,0.107c-0.736,0.07-1.257-0.092-1.229-0.77
		c0.02-0.457,0.282-0.757,0.838-0.755l0.747,0.001c0.401,0,0.56-0.423,0.558-0.73l-0.025-6.256c-0.001-0.338-0.114-0.66-0.515-0.652
		l-0.851,0.017c-0.562,0.012-0.891-0.355-0.886-0.862c0.007-0.637,0.52-0.795,1.04-0.777c0.182,0.005,0.571,0.012,0.812,0.036
		c0.41,0.042,0.84,0.039,1.253,0.039c0.636,0,1.257-0.1,1.883-0.1c0.589,0,1.113,0.151,1.147,0.868
		c0.021,0.436-0.439,0.752-0.934,0.745l-0.578-0.009c-0.439-0.007-0.7,0.311-0.694,0.671l0.079,6.299
		c0.008,0.601,0.327,0.77,0.807,0.765l0.567-0.007C91.569,200.372,91.977,200.586,91.954,201.104L91.954,201.104z"/>
	<path opacity="0.5" fill="#231F20" enable-background="new    " d="M111.641,193.271l2.242-3.256
		c0.134-0.194,0.101-0.448-0.074-0.568c-0.173-0.12-0.422-0.062-0.554,0.133l-2.333,3.382c-1.536-0.605-3.24-0.942-5.038-0.942
		c-1.798,0-3.503,0.336-5.039,0.942l-2.331-3.382c-0.133-0.194-0.382-0.253-0.556-0.133c-0.174,0.119-0.208,0.373-0.074,0.568
		l2.243,3.256c-3.567,1.658-6.067,4.811-6.387,8.49h24.285C117.708,198.083,115.208,194.929,111.641,193.271z M100.812,198.403
		c-0.743,0-1.343-0.602-1.343-1.344c0-0.743,0.6-1.344,1.343-1.344c0.742,0,1.343,0.601,1.343,1.344
		C102.154,197.802,101.554,198.403,100.812,198.403z M110.957,198.403c-0.742,0-1.343-0.602-1.343-1.344
		c0-0.743,0.601-1.344,1.343-1.344c0.743,0,1.344,0.601,1.344,1.344C112.3,197.802,111.699,198.403,110.957,198.403z"/>
	<path opacity="0.5" fill="#231F20" enable-background="new    " d="M117.879,205.531c-0.336-0.188-0.726-0.206-1.127-0.208
		c-0.587-0.004-1.202,0.123-1.723,0.185c-0.75,0.091-1.288,0.088-2.04-0.024c-0.406-0.062-0.827-0.106-1.245-0.104
		c-0.368,0.003-0.734-0.002-1.084,0.102c-0.338,0.1-0.646,0.273-0.71,0.658c-0.09,0.531-0.153,0.888,0.357,1.256
		c0.156,0.111,0.44,0.192,0.855,0.205c0.29,0.008,0.319,0.004,0.56-0.023c0.781-0.09,0.49,0.291,0.434,0.515l-2.773,4.342
		l-2.648-4.236c-0.229-0.21-0.258-0.64,0.468-0.623c0.399,0,0.909-0.019,1.097-0.156c0.249-0.184,0.418-0.568,0.432-1.001
		c0.013-0.449-0.209-0.713-0.557-0.887c-0.248-0.124-0.609-0.238-1.113-0.252c-0.908-0.024-1.866,0.15-2.789,0.182
		c-0.346,0.012-0.792,0.051-1.333-0.026c-0.579-0.083-0.926-0.102-1.126-0.105c-0.134-0.024-0.278-0.043-0.442-0.052
		c-0.845-0.042-1.689,0.175-2.532,0.202c-0.89,0.028-1.865-0.217-2.766-0.252c-0.932-0.038-1.977,0.147-1.998,1.284
		c-0.013,0.696,0.625,1.02,1.371,1.015l1.017-0.006c0.247-0.001,0.436,0.061,0.557,0.179c0.123,0.121,0.277,0.416,0.277,0.797v8.566
		l-4.451-10.109c-0.435-0.988-0.866-1.652-1.958-1.652c-0.648,0-1.294,0.016-1.946,0.015c-0.595,0-1.19-0.067-1.784-0.113
		c-1.09-0.083-1.669,0.291-1.692,1.154c-0.027,0.983,0.353,1.176,1.338,1.141l0.837-0.029c0.647-0.022,0.833,0.218,0.833,0.695
		v9.333c0,0.495-0.359,0.734-0.94,0.745l-0.975,0.021c-0.719,0.016-1.231,0.177-1.231,0.996c0,0.979,0.639,1.242,1.481,1.242
		c0.977,0,1.922-0.138,2.897-0.184c0.917-0.044,1.808,0.252,2.739,0.252c0.775,0,1.46-0.195,1.485-1.107
		c0.022-0.826-0.522-1.257-1.316-1.235l-0.885,0.025c-0.717,0.021-0.905-0.383-0.904-1.099l0.023-8.829l4.854,11.277
		c0.346,0.804,1.262,1.236,2.1,1.236c1.3,0,1.894-1.16,1.894-2.386v-10.169c0-0.811,1.547-0.653,1.547-0.637
		c0.285,0,0.535-0.025,0.752-0.082c0.412-0.039,0.815-0.019,1.208,0.127c0.339,0.129,0.691,0.352,0.915,0.711l4.082,6.566
		l-0.057,2.855c-0.009,0.425-0.489,0.607-0.853,0.579l-0.944-0.076c-0.714-0.056-1.272,0.432-1.205,1.15
		c0.072,0.744,0.762,1.101,1.479,1.117c0.444,0.011,1.083-0.054,1.91-0.151c0.891-0.105,1.503-0.162,2.394,0
		c0.419,0.076,0.88,0.154,1.385,0.18c0.808,0.045,1.515-0.346,1.491-1.238c-0.02-0.694-0.633-1.112-1.285-1.082l-1.084,0.05
		c-0.671,0.031-0.793-0.477-0.781-1.059l0.059-2.542l3.921-6.206c0.319-0.504,0.639-0.875,1.225-0.926
		c0.133-0.011,0.376,0.008,0.628,0.052c0.446,0.081,1.29,0.034,1.618-0.322c0.168-0.183,0.292-0.488,0.301-0.908
		C118.409,206.014,118.208,205.714,117.879,205.531z"/>
</g>
</svg>
