<?xml version="1.0" encoding="utf-8"?>
<!-- Generator: Adobe Illustrator 16.0.0, SVG Export Plug-In . SVG Version: 6.00 Build 0)  -->
<!DOCTYPE svg PUBLIC "-//W3C//DTD SVG 1.1//EN" "http://www.w3.org/Graphics/SVG/1.1/DTD/svg11.dtd">
<svg version="1.1" id="content" xmlns="http://www.w3.org/2000/svg" xmlns:xlink="http://www.w3.org/1999/xlink" x="0px" y="0px"
	 width="500px" height="500px" viewBox="0 0 500 500" enable-background="new 0 0 500 500" xml:space="preserve">
<g id="bounds">
	<rect x="-11.565" y="163.965" fill="none" stroke="#000000" stroke-width="1.2441" width="185.63" height="201.97"/>
</g>
<rect id="position" display="none" fill="none" stroke="#000000" width="500" height="500"/>
<g>
	<path fill="#FCC275" d="M76,310.2l12.1,29c0,0,3.2,2.2,13.3-0.8s12.2-6.9,12.2-6.9l-5.8-30.9L76,310.2z"/>
	<path fill="#EDB36E" d="M77.2,312.9l8.3,2.199l-5,5.601l0.3,0.8l5.5-6.2l8.7,2.3l-6,6.7l-7.9-2.1l0.4,0.899l7,1.801l-4.3,4.699
		l0.3,0.801l4.8-5.301L98,327.4l-6,6.699l-6.6-1.699l0.4,0.899l5.7,1.5l-3.5,3.9l0.2,0.6c0,0,0.1,0,0.2,0.101l3.9-4.301l8.7,2.301
		l-1.5,1.699c0.4-0.1,0.9-0.199,1.3-0.399l1-1.101l1.4,0.4c0.4-0.1,0.8-0.3,1.2-0.4l-2.1-0.6l6-6.7l5.3,1.4l-0.2-0.8l-4.6-1.2l3.6-4
		l-0.2-0.9l-4.2,4.7l-8.7-2.3l6-6.7l6.4,1.7l-0.2-0.8l-5.7-1.5l4.5-5l-0.2-0.9l-5.1,5.7l-8.7-2.3l6-6.7l7.6,2l-0.2-0.8l-6.9-1.801
		l5.4-6L108,303.2l-6,6.7l-8.7-2.301l2.9-3.299l-1.4,0.399l-2.4,2.601l-3.4-0.9l-1.4,0.4l4.2,1.1l-6,6.699l-8.7-2.299L80,309
		l-1.4,0.4l-2.2,2.4L77.2,312.9z M107.6,329.9l-6,6.699l-8.7-2.3l6-6.7L107.6,329.9z M104.6,320.1l-6,6.7l-8.7-2.3l6-6.7
		L104.6,320.1z M92.9,307.9l8.7,2.3l-6,6.7l-8.7-2.301L92.9,307.9z"/>
	<path opacity="0.27" fill="#6B3A12" enable-background="new    " d="M76,310.2l2.6,6.2c0,0,4.2,2.3,14.3-0.7
		s15.7-10.601,15.7-10.601l-0.8-4.399L76,310.2z"/>
	<path fill="#FCC275" d="M111.6,281.2c0.3,4-0.2,15.399-0.3,17.899c-0.1,2.601-2.7,5.4-9.9,8.5c-4.8,2.101-9.7,3.601-16.1,4.801
		c-7.8,1.6-11.4,0.5-13-1.601c-1.5-2.1-7.9-10.899-9.8-14.3c0,0,8.7-1.3,24.9-6.1C103.6,285.6,111.6,281.2,111.6,281.2z"/>
	<polygon fill="#EDB36E" points="66.6,296.2 75.7,308 68.9,295.1 	"/>
	<polygon fill="#EDB36E" points="107.1,283.4 107.1,298.3 104.6,283.9 	"/>
	<polygon fill="#EDB36E" points="91.7,303.5 87.1,292.6 89.4,291.6 	"/>
	<polygon fill="#EDB36E" points="82.2,305.5 76.4,294.2 78.4,293.9 	"/>
	<polygon fill="#EDB36E" points="100.5,300.8 99.7,288.1 97.8,288.9 	"/>
	
		<ellipse transform="matrix(-0.9578 0.2873 -0.2873 -0.9578 253.0864 539.9584)" fill="#D8964E" cx="86.929" cy="288.547" rx="25.801" ry="5.5"/>
	<g>
		<path fill="#6B3915" d="M91.9,293.2c-12.2,11-21.6,4.6-21.6,4.6s-5.9,6-8.9-7c-3.1-13,8.2-19.3,14.7-38.8l0.2-0.1
			c11.3,10.399,28.5,11.3,32.9,23.8c4.5,12.5-3.5,11.5-3.5,11.5S99.2,295.4,91.9,293.2L91.9,293.2z"/>
		<g>
			<path opacity="0.3" fill="#F9F9F9" enable-background="new    " d="M97.43,271.602c-0.492,0.396-1.031,0.795-1.614,1.174
				c5.818,6.008,4.274,9.924,4.184,12.625c0,2.899,1.9,2.3,2.9,0C104.713,280.95,101.819,276.06,97.43,271.602z"/>
			<path opacity="0.3" fill="#F9F9F9" enable-background="new    " d="M87.359,274.77c1.446,5.5,1.726,11.63-2.06,15.73
				c-2.1,2.2-0.4,4.5,0.5,3.8c3.634-2.423,7.947-8.059,3.543-19.327C88.693,274.979,88.03,274.918,87.359,274.77z"/>
			<path opacity="0.3" fill="#F9F9F9" enable-background="new    " d="M79.708,279.322c-0.316,5.508-1.414,10.643-4.108,13.078
				c-6.8,6-4.6,4.1-4.6,4.1c1.8,0.6,8.5-0.1,10.3-10.2c0.554-3.106,0.783-5.729,0.752-8.218
				C81.251,278.564,80.47,278.974,79.708,279.322z"/>
			<path opacity="0.3" fill="#F9F9F9" enable-background="new    " d="M65.998,279.693c-0.583-0.28-0.897-0.493-0.897-0.493
				s-0.414,0.417-1.073,0.794c-0.109,0.169-0.217,0.336-0.327,0.506c-4.7,7.3,2.5,17.2,4.1,15.9c0.6-0.5-2.2-2.801-3.5-6.2
				C63.141,287.258,63.499,284.391,65.998,279.693z"/>
			<path opacity="0.3" fill="#F9F9F9" enable-background="new    " d="M71.778,281.04c-2.001,5.341-3.978,8.46-3.978,8.46
				c2.508-1.747,4.245-4.883,5.447-8.486C72.737,281.046,72.247,281.054,71.778,281.04z"/>
			<path opacity="0.3" fill="#F9F9F9" enable-background="new    " d="M102.159,268.464c-0.41,0.103-0.785,0.141-1.075,0.15
				c2.489,2.116,5.597,5.526,7.517,10.485C108.6,279.1,107.232,272.527,102.159,268.464z"/>
		</g>
		<path fill="#F2A0C2" d="M86.7,274.6c-12.2,11-21.6,4.601-21.6,4.601s-5.9,6-8.9-7c-3.1-13,8.2-19.3,14.7-38.8l0.2-0.1
			c11.3,10.4,28.5,11.3,32.9,23.8c4.5,12.5-3.5,11.5-3.5,11.5S94,276.8,86.7,274.6L86.7,274.6z"/>
		<g>
			<path opacity="0.3" fill="#F9F9F9" enable-background="new    " d="M92.286,253.057c-0.491,0.396-1.028,0.799-1.611,1.182
				c5.748,5.971,4.215,9.871,4.125,12.562c0,2.9,1.9,2.3,2.9,0C99.506,262.368,96.644,257.5,92.286,253.057z"/>
			<path opacity="0.3" fill="#F9F9F9" enable-background="new    " d="M82.159,256.27c1.446,5.5,1.727,11.63-2.059,15.73
				c-2.1,2.2-0.4,4.4,0.5,3.8c3.633-2.423,7.946-8.059,3.543-19.327C83.493,256.479,82.831,256.418,82.159,256.27z"/>
			<path opacity="0.3" fill="#F9F9F9" enable-background="new    " d="M74.501,260.825c-0.324,5.468-1.424,10.554-4.102,12.975
				c-6.8,6-4.6,4.101-4.6,4.101c1.8,0.6,8.5-0.101,10.3-10.2c0.546-3.065,0.775-5.659,0.751-8.118
				C76.048,260.066,75.265,260.477,74.501,260.825z"/>
			<path opacity="0.3" fill="#F9F9F9" enable-background="new    " d="M60.676,261.134c-0.503-0.25-0.776-0.434-0.776-0.434
				s-0.519,0.524-1.324,0.927c-0.059,0.092-0.117,0.182-0.176,0.273c-4.7,7.3,2.5,17.199,4.1,15.899c0.7-0.5-2.1-2.8-3.5-6.2
				C57.844,268.666,58.196,265.807,60.676,261.134z"/>
			<path opacity="0.3" fill="#F9F9F9" enable-background="new    " d="M66.542,262.539C64.553,267.82,62.6,270.9,62.6,270.9
				c2.488-1.732,4.216-4.826,5.417-8.385C67.505,262.547,67.013,262.554,66.542,262.539z"/>
			<path opacity="0.3" fill="#F9F9F9" enable-background="new    " d="M96.959,249.964c-0.41,0.103-0.785,0.141-1.075,0.151
				c2.489,2.116,5.596,5.526,7.516,10.485C103.4,260.6,102.033,254.027,96.959,249.964z"/>
		</g>
		<path fill="#C4E9F7" d="M81.5,256.1c-12.2,11-21.6,4.601-21.6,4.601s-5.9,6-8.9-7c-3.1-13,8.2-19.3,14.7-38.8l0.2-0.1
			c11.3,10.4,28.5,11.3,32.9,23.8c4.5,12.5-3.5,11.5-3.5,11.5S88.8,258.3,81.5,256.1L81.5,256.1z"/>
		<g>
			<path opacity="0.3" fill="#F9F9F9" enable-background="new    " d="M86.976,234.546c-0.495,0.396-1.037,0.793-1.622,1.17
				c5.773,5.983,4.236,9.89,4.146,12.584c0,2.9,1.9,2.3,2.9,0C94.207,243.865,91.339,238.992,86.976,234.546z"/>
			<path opacity="0.3" fill="#F9F9F9" enable-background="new    " d="M76.852,237.643c1.452,5.507,1.74,11.65-2.052,15.758
				c-2,2.199-0.4,4.5,0.5,3.8c3.634-2.423,7.947-8.059,3.542-19.33C78.19,237.871,77.525,237.799,76.852,237.643z"/>
			<path opacity="0.3" fill="#F9F9F9" enable-background="new    " d="M69.309,242.222c-0.316,5.508-1.414,10.642-4.108,13.078
				c-6.8,6-4.6,4.101-4.6,4.101c1.8,0.6,8.5-0.101,10.3-10.2c0.554-3.107,0.784-5.729,0.752-8.218
				C70.851,241.465,70.07,241.874,69.309,242.222z"/>
			<path opacity="0.3" fill="#F9F9F9" enable-background="new    " d="M55.519,242.555c-0.53-0.261-0.818-0.455-0.818-0.455
				s-0.478,0.484-1.229,0.88c-0.091,0.141-0.18,0.279-0.271,0.42c-4.7,7.3,2.5,17.2,4.1,15.9c0.7-0.5-2.1-2.8-3.5-6.2
				C52.638,250.149,53.001,247.274,55.519,242.555z"/>
			<path opacity="0.3" fill="#F9F9F9" enable-background="new    " d="M61.378,243.94c-2.001,5.341-3.978,8.46-3.978,8.46
				c2.507-1.747,4.245-4.883,5.447-8.487C62.337,243.946,61.847,243.954,61.378,243.94z"/>
			<path opacity="0.3" fill="#F9F9F9" enable-background="new    " d="M91.72,231.373c-0.395,0.096-0.755,0.132-1.036,0.142
				c2.489,2.116,5.596,5.526,7.516,10.485C98.2,242,96.825,235.458,91.72,231.373z"/>
		</g>
		<path fill="#BAF2AF" d="M76.3,237.5c-12.2,11-21.6,4.6-21.6,4.6s-5.9,6-8.9-7c-3.1-13,8.2-19.3,14.7-38.8l0.2-0.1
			C72,206.6,89.2,207.5,93.6,220c4.5,12.5-3.5,11.5-3.5,11.5S83.6,239.7,76.3,237.5L76.3,237.5z"/>
		<g>
			<path opacity="0.3" fill="#F9F9F9" enable-background="new    " d="M63.1,202c5.2,3.5,28.5,16.9,24.1,27.7c-1,2.3-2.9,2.9-2.9,0
				c0.1-3,2-7.5-6.4-14.7S63.1,202,63.1,202z"/>
			<path opacity="0.3" fill="#F9F9F9" enable-background="new    " d="M70.1,238.7c4.8-3.2,10.8-12-3.7-32c0,0,11.6,19.1,3.2,28.2
				C67.6,237.1,69.2,239.3,70.1,238.7z"/>
			<path opacity="0.3" fill="#F9F9F9" enable-background="new    " d="M55.4,240.9c1.8,0.6,8.5-0.1,10.3-10.2
				c1.8-10.1,0.2-15.1-2.8-26.9c0,0,4.4,26.4-2.9,33C53.2,242.7,55.4,240.9,55.4,240.9z"/>
			<path opacity="0.3" fill="#F9F9F9" enable-background="new    " d="M52.1,240.7c-1.6,1.3-8.8-8.6-4.1-15.9
				c4.7-7.3,8.9-13.5,10.3-17.2c0,0-3.6,8.8-7,14.6c-3.4,5.8-4,9-2.7,12.3C50,237.9,52.8,240.3,52.1,240.7z"/>
			<path opacity="0.3" fill="#F9F9F9" enable-background="new    " d="M52.2,233.8c0,0,7.8-12.3,8.1-29.9
				C60.3,204,61.1,227.6,52.2,233.8z"/>
			<path opacity="0.3" fill="#F9F9F9" enable-background="new    " d="M81.5,210.3c0,0,7.8,3.9,11.4,13.2
				C93,223.5,90.7,212.9,81.5,210.3z"/>
		</g>
	</g>
</g>
</svg>
