<?xml version="1.0" encoding="utf-8"?>
<!-- Generator: Adobe Illustrator 18.0.0, SVG Export Plug-In . SVG Version: 6.00 Build 0)  -->
<!DOCTYPE svg PUBLIC "-//W3C//DTD SVG 1.1//EN" "http://www.w3.org/Graphics/SVG/1.1/DTD/svg11.dtd">
<svg version="1.1" id="content" xmlns="http://www.w3.org/2000/svg" xmlns:xlink="http://www.w3.org/1999/xlink" x="0px" y="0px"
	 width="500px" height="500px" viewBox="0 0 500 500" enable-background="new 0 0 500 500" xml:space="preserve">
<rect id="position" display="none" fill="none" stroke="#000000" width="500" height="500"/>
<g>
	
		<rect x="109.2" y="280.1" transform="matrix(0.8519 -0.5236 0.5236 0.8519 -147.7435 104.8911)" fill="#E1E1E2" width="4.8" height="67.3"/>
	<circle fill="#6AEA73" cx="72.9" cy="250.9" r="40.4"/>
	<path fill="#D2F9D8" d="M86.1,285.3c2.3-1.7,4.7-3.2,6.8-5c4.4-3.7,7.5-8.2,9.4-13.7c3.8-10.9,2.1-21.1-4.5-30.4
		c-8.9-12.4-26.9-18-39.8-9.8c-6.3,4-11,11.4-12.6,18.6c-2.4,11,3.5,23.9,13.4,29c9.2,4.8,20.5,2.1,27.4-5.5
		c7.7-8.4,6.2-21.9-3-28.3c-7.1-5-18.7-5.4-23.5,1.6c-3.9,5.7-5.5,16.3,3.4,20.3c4.9,2.2,10.7,0.8,13.7-2.8c3.3-4.1,1-8.9-2-10.5
		c-1-0.5-2-0.5-3,0c-1.2,0.6-2.3,2.5-2.4,3.8c-0.2,2.3-0.2,4.1-2.6,4.4c-2.6,0.3-3.8-2.6-3.7-4.3c0.2-3.2,1-5.5,4.3-7.8
		c3.6-2.6,10.2-2.3,13.9,3.1c4.6,6.7,3,14.2-3.8,18.9c-7.8,5.5-17.4,3.6-23.4-3.9c-7.5-9.4-3.2-24.1,4.3-30c6.3-4.8,12.4-5.6,20-3.7
		c7.5,1.9,12.9,6.6,16.4,13.4c3.7,7.3,4.1,15,1.1,22.6c-2.9,7.3-8.3,12.2-15.6,15c-6.8,2.6-13.8,2.8-20.7,0.7
		c-8.5-2.6-14.4-8.3-18.1-16.3c-2.7-5.9-3.6-12.1-3-18.5c0.9-8.9,4.7-15.6,11.4-21.7c2.8-2.5,6.6-4.8,10.1-6
		c6.7-2.4,12.7-3.1,19.6-1.5c7.5,1.7,13.9,5.4,19,11.1c5.5,6.1,8.6,13.2,9.3,21.4c0.5,5.7-0.4,11.1-2.6,16.4
		c-2.9,7.1-7.7,12.6-14.2,16.7c-1.7,1-3.4,1.9-5.2,2.8C86.1,285.4,86.1,285.4,86.1,285.3z"/>
</g>
<g id="bounds">
    <rect x="-19.1" y="178.2" display="none" fill="none" stroke="#000000" stroke-width="0.7531" width="200" height="200"/>
</g>
</svg>
