<?xml version="1.0" encoding="utf-8"?>
<!-- Generator: Adobe Illustrator 18.0.0, SVG Export Plug-In . SVG Version: 6.00 Build 0)  -->
<!DOCTYPE svg PUBLIC "-//W3C//DTD SVG 1.1//EN" "http://www.w3.org/Graphics/SVG/1.1/DTD/svg11.dtd">
<svg version="1.1" id="content" xmlns="http://www.w3.org/2000/svg" xmlns:xlink="http://www.w3.org/1999/xlink" x="0px" y="0px"
	 width="500px" height="500px" viewBox="0 0 500 500" enable-background="new 0 0 500 500" xml:space="preserve">
<rect id="position" display="none" fill="none" stroke="#000000" width="500" height="500"/>
<g id="bounds" display="none">
	<rect x="25.8" y="235.9" display="inline" fill="none" stroke="#000000" stroke-width="0.7531" width="132.7" height="136.3"/>
</g>
<g>
	<g>
		
			<ellipse transform="matrix(0.9794 -0.2021 0.2021 0.9794 -67.4666 28.6296)" fill="#F9A825" cx="106.5" cy="344.7" rx="15.8" ry="4.7"/>
		<g>
			<circle fill="#F57F17" cx="102.8" cy="326.7" r="8.4"/>
			
				<ellipse transform="matrix(0.9794 -0.2021 0.2021 0.9794 -66.9493 28.4629)" fill="#F57F17" cx="105.9" cy="342.1" rx="5.4" ry="1.6"/>
			<path fill="#F57F17" d="M101.8,338.1c-0.4-1.8-1.6-3.3-3.2-4.1l10.8-2.2c-1.1,1.3-1.7,3.2-1.3,5c0.4,1.7,1.4,3.1,2.9,3.9
				c-0.6,0.5-1.4,0.8-2.2,1c-1,0.2-2.1,0.1-3-0.2c-0.7,0.6-1.6,1.1-2.7,1.3c-0.8,0.2-1.6,0.2-2.4,0
				C101.7,341.6,102.2,339.9,101.8,338.1z"/>
			<path fill="#F57F17" d="M97.4,316.6c-0.4-1.8-1.6-3.3-3.2-4.1l10.8-2.2c-1.1,1.3-1.7,3.2-1.3,5c0.4,1.7,1.4,3.1,2.9,3.9
				c-0.6,0.5-1.4,0.8-2.2,1c-1,0.2-2.1,0.1-3-0.2c-0.7,0.6-1.6,1.1-2.7,1.3c-0.8,0.2-1.6,0.2-2.4,0C97.3,320,97.7,318.3,97.4,316.6z
				"/>
		</g>
		<path fill="#FF903E" d="M110.4,342.1c-3.5-1.5-4.1-4.9-4.1-8.3c0.1-3.4,2.7-7.8-2.1-12.9c-1.1-1.2-1.6-3.2-1.9-4.8
			c-0.4-1.8,1-4.2,2.1-5.6l-10.1,2.1c-0.1,0-0.1-0.1-0.2-0.1l10.8-2.2c-1.1,1.3-1.7,3.2-1.3,5c0.3,1.6,1.3,2.9,2.6,3.7
			c2.3,1.1,4.2,3.2,4.7,5.9c0.5,2.5-0.1,5-1.6,6.9l0,0c-1.1,1.3-1.7,3.2-1.3,5c0.3,1.6,1.2,2.8,2.5,3.7c0.3,0.1,0.5,0.3,0.6,0.5
			C111.4,341.9,110.7,342.2,110.4,342.1z"/>
		<path opacity="0.62" fill="#F7C026" enable-background="new    " d="M102.2,349.3c8.5-1.8,15-5.2,14.5-7.8c-0.3-1.2-2.1-2-5-2.3
			c5.6-0.4,9.8,0.4,10.2,2.3c0.5,2.5-6,6-14.5,7.8c-4.4,0.9-8.4,1.2-11.4,0.9C97.9,350,100,349.7,102.2,349.3z"/>
	</g>
	<path fill="#FFC100" d="M64.2,277.4c-1,0-1.9-0.8-2-1.8c0-0.1,0-0.2,0-0.4c0-0.2,0-0.4,0-0.6c0.1-1.1,1.2-1.9,2.2-1.7
		c1.1,0.1,1.9,1.2,1.7,2.2l0,0c0.1,1.1-0.7,2.1-1.8,2.2C64.3,277.4,64.2,277.4,64.2,277.4z"/>
	<path fill="#FFC100" d="M69.7,271.4c-0.7,0-1.4-0.4-1.7-1c-0.6-1-0.2-2.2,0.7-2.7l0.5-0.3c1-0.5,2.2-0.2,2.7,0.8s0.2,2.2-0.8,2.7
		l-0.4,0.2C70.4,271.3,70,271.4,69.7,271.4z"/>
	<path fill="#FFC100" d="M77.4,267.9c-0.8,0-1.6-0.5-1.9-1.3c-0.4-1,0.1-2.2,1.2-2.6l0.5-0.2c1-0.4,2.2,0.2,2.6,1.2
		c0.4,1-0.2,2.2-1.2,2.6l-0.5,0.2C77.9,267.8,77.6,267.9,77.4,267.9z"/>
	<path fill="#FFC100" d="M118.5,265.5c-0.9,0-1.8-0.6-2-1.6l0,0c-0.5-1,0-2.2,1-2.7s2.2,0,2.7,1c0.1,0.3,0.2,0.6,0.3,0.9
		c0.2,1.1-0.5,2.1-1.5,2.4C118.8,265.5,118.6,265.5,118.5,265.5z"/>
	<path fill="#FFC100" d="M85.5,265.3c-0.9,0-1.7-0.6-1.9-1.5c-0.3-1.1,0.4-2.2,1.4-2.4l0.5-0.1c1.1-0.3,2.2,0.4,2.4,1.4
		c0.3,1.1-0.4,2.2-1.4,2.4l-0.5,0.1C85.8,265.3,85.7,265.3,85.5,265.3z"/>
	<path fill="#FFC100" d="M93.8,263.5c-0.9,0-1.8-0.7-2-1.6c-0.2-1.1,0.5-2.1,1.6-2.3l0.5-0.1c1.1-0.2,2.1,0.5,2.3,1.6
		c0.2,1.1-0.5,2.1-1.6,2.3l-0.5,0.1C94,263.4,93.9,263.5,93.8,263.5z"/>
	<path fill="#FFC100" d="M102.5,258.2c-1.2,0-2.4,0.8-2.4,2.1c0,1.1,0.9,2,2.1,1.9h0.2h0.4c1.1-0.1,1.9-1.1,1.8-2.2
		c-0.1-0.7-0.5-1.3-1.1-1.6C103.3,258.3,102.9,258.2,102.5,258.2z"/>
	<path fill="#FFC100" d="M111.2,262.2c-0.1,0-0.1,0-0.2,0h-0.5c-1.1-0.1-1.9-1-1.8-2.1s1-1.9,2.1-1.8h0.5c1.1,0.1,1.9,1.1,1.8,2.2
		C113.1,261.4,112.2,262.2,111.2,262.2z"/>
	<path fill="#F9A825" d="M64.3,276.4c-1.2-5.3,10-11.8,25-15.2c15-3.3,27.9-2.2,29.1,3.1c0,0.1,0,0.1,0.1,0.3l0,0
		c5.2,23.1-2.7,44.4-17.7,47.8s-31.2-12.6-36.4-35.7l0,0C64.3,276.5,64.3,276.5,64.3,276.4z"/>
	<path opacity="0.62" fill="#F6B63B" enable-background="new    " d="M107.2,267.6c0-0.1,5.3-9,9.4-5.8c1.5,0.9,1.8,2.5,1.9,2.7
		c5.2,23.1-2.7,44.4-17.7,47.8c-1.7,0.4-3.3,0.5-5,0.4C110.2,312.4,111.6,287.1,107.2,267.6z"/>
	<g>
		<path fill="#877800" d="M76.6,282c-5.5-0.4-9.2-2.1-9.8-4.7c-1.1-4.8,9.2-10.9,23-14s25.7-2,26.8,2.8c0.6,2.6-2.1,5.7-6.9,8.4
			c-4.7-0.3-10.6,0.3-17,1.7C86.4,277.7,80.7,279.7,76.6,282z"/>
		<path fill="#771C1C" d="M76.6,282c4.1-2.3,9.8-4.4,16.1-5.8c6.4-1.4,11.8-2.1,17-1.7c-4.1,2.4-9.7,4.7-16.1,6.1
			C87.3,282,81.3,282.4,76.6,282z"/>
	</g>
	<g>
		<path fill="#FFC100" d="M79.7,289.2L79.7,289.2h-0.6c-1.1-0.1-2-1-1.9-2.1c0.1-1.1,1-1.9,2.1-1.9h0.5c1.1,0,2,1,1.9,2.1
			C81.7,288.4,80.8,289.2,79.7,289.2z M87.7,289c-1,0-1.9-0.8-2-1.8c-0.1-1.1,0.7-2.1,1.8-2.2H88c1.1-0.1,2.1,0.7,2.2,1.8
			c0.1,1.1-0.7,2.1-1.8,2.2h-0.5C87.8,289,87.7,289,87.7,289z M71.3,288c-0.2,0-0.4,0-0.6-0.1c-0.2,0-0.3-0.1-0.5-0.2
			c-1.1-0.3-1.6-1.4-1.3-2.5s1.4-1.6,2.5-1.3l0.4,0.1c1.1,0.3,1.7,1.4,1.4,2.5C73,287.5,72.2,288,71.3,288z M96.1,287.7
			c-0.9,0-1.8-0.6-2-1.6c-0.2-1.1,0.5-2.1,1.6-2.4l0.5-0.1c1.1-0.2,2.1,0.5,2.4,1.5s-0.5,2.1-1.5,2.4l-0.5,0.1
			C96.4,287.7,96.2,287.7,96.1,287.7z M104.3,285.4c-0.8,0-1.6-0.5-1.9-1.3c-0.4-1,0.1-2.2,1.2-2.6l0.4-0.2c1-0.4,2.2,0.1,2.6,1.1
			s-0.1,2.2-1.1,2.6l-0.5,0.2C104.7,285.3,104.5,285.4,104.3,285.4z M64.7,283.2c-0.9,0-1.6-0.5-1.9-1.4c-0.1-0.2-0.1-0.5-0.2-0.7
			c-0.2-1.1,0.5-2.1,1.6-2.3c1.1-0.2,2.1,0.5,2.3,1.6c0,0.1,0,0.2,0.1,0.3c0.3,1.1-0.3,2.2-1.3,2.5
			C65.1,283.2,64.9,283.2,64.7,283.2z M111.9,281.6c-0.7,0-1.3-0.3-1.7-0.9c-0.6-0.9-0.3-2.2,0.6-2.8l0.4-0.3
			c0.9-0.6,2.2-0.4,2.8,0.5c0.6,0.9,0.4,2.2-0.5,2.8l-0.4,0.3C112.6,281.5,112.2,281.6,111.9,281.6z M118.1,275.9
			c-0.4,0-0.8-0.1-1.2-0.4c-0.9-0.6-1.1-1.9-0.5-2.8c0.1-0.1,0.2-0.2,0.2-0.4c0.6-0.9,1.8-1.2,2.8-0.6c0.9,0.6,1.2,1.8,0.6,2.8
			c-0.1,0.2-0.2,0.3-0.3,0.5C119.3,275.6,118.7,275.9,118.1,275.9z"/>
	</g>
	<g>
		<path fill="#F57F17" d="M106.7,311.2c-0.6,0-1.3-0.3-1.7-0.9c-0.6-0.9-0.4-2.2,0.5-2.8l0.4-0.3c0.9-0.6,2.2-0.4,2.8,0.5
			c0.6,0.9,0.4,2.2-0.5,2.8c-0.2,0.1-0.3,0.2-0.4,0.3C107.5,311.1,107.1,311.2,106.7,311.2z M113.1,305.6c-0.5,0-0.9-0.2-1.3-0.5
			c-0.8-0.7-0.9-2-0.2-2.8l0.3-0.4c0.7-0.8,2-0.9,2.8-0.2c0.8,0.7,0.9,2,0.2,2.8l-0.4,0.4C114.2,305.4,113.6,305.6,113.1,305.6z
			 M117.6,298.5c-0.2,0-0.5,0-0.8-0.1c-1-0.4-1.5-1.6-1.1-2.6c0.1-0.1,0.1-0.3,0.2-0.4c0.4-1,1.5-1.6,2.6-1.2c1,0.4,1.6,1.5,1.2,2.6
			c-0.1,0.2-0.1,0.3-0.2,0.5C119.2,298,118.4,298.5,117.6,298.5z M118.9,290.2c-1,0-1.9-0.8-2-1.8c0-0.1,0-0.3,0-0.4
			c-0.1-1.1,0.7-2.1,1.8-2.2c1.1-0.1,2.1,0.7,2.2,1.8c0,0.2,0,0.4,0.1,0.6c0.1,1.1-0.7,2.1-1.8,2.1C119,290.2,119,290.2,118.9,290.2
			z"/>
	</g>
	<g>
		<path fill="#F57F17" d="M90.2,313.1c-0.2,0-0.3,0-0.5-0.1c0,0-0.2-0.1-0.6-0.2c-1.1-0.3-1.6-1.5-1.3-2.5c0.3-1.1,1.5-1.6,2.5-1.3
			c0.2,0.1,0.4,0.1,0.4,0.1c1.1,0.3,1.7,1.4,1.4,2.5C91.9,312.5,91.1,313.1,90.2,313.1z M82.4,309.6c-0.4,0-0.7-0.1-1-0.3L81,309
			c-0.9-0.6-1.2-1.8-0.6-2.8c0.6-0.9,1.8-1.2,2.8-0.6l0.4,0.2c0.9,0.6,1.2,1.8,0.7,2.7C83.8,309.3,83.1,309.6,82.4,309.6z
			 M75.9,304.2c-0.6,0-1.1-0.2-1.5-0.7c-0.1-0.1-0.2-0.3-0.4-0.4c-0.7-0.9-0.6-2.1,0.3-2.8c0.9-0.7,2.1-0.6,2.8,0.3
			c0.1,0.1,0.2,0.2,0.3,0.3c0.7,0.8,0.6,2.1-0.2,2.8C76.8,304.1,76.4,304.2,75.9,304.2z M71.9,296.8c-0.9,0-1.7-0.6-1.9-1.5
			c0-0.2-0.1-0.4-0.1-0.5c-0.3-1.1,0.4-2.2,1.5-2.4c1.1-0.3,2.2,0.4,2.4,1.5c0,0.1,0.1,0.3,0.1,0.4c0.3,1.1-0.3,2.2-1.4,2.5
			C72.2,296.8,72,296.8,71.9,296.8z"/>
	</g>
	<g>
		<path fill="#F57F17" d="M99.7,313.8c-0.9,0-1.8-0.6-2-1.6l-0.1-0.5c-0.2-1.1,0.5-2.1,1.6-2.4c1.1-0.2,2.1,0.5,2.4,1.6l0.1,0.5
			c0.2,1.1-0.5,2.1-1.6,2.4C99.9,313.8,99.8,313.8,99.7,313.8z M98.3,307.5c-0.9,0-1.8-0.6-2-1.6l-0.1-0.5c-0.2-1.1,0.5-2.1,1.5-2.4
			c1.1-0.2,2.1,0.5,2.4,1.5l0.1,0.5c0.2,1.1-0.5,2.1-1.5,2.4C98.6,307.4,98.5,307.5,98.3,307.5z M97,301.1c-0.9,0-1.8-0.6-2-1.6
			l-0.1-0.5c-0.2-1.1,0.5-2.1,1.5-2.4c1.1-0.2,2.1,0.5,2.4,1.5l0.1,0.5c0.2,1.1-0.5,2.1-1.5,2.4C97.3,301.1,97.1,301.1,97,301.1z"/>
	</g>
	<g>
		<g>
			<g>
				<path fill="#FFC100" d="M83.3,296.5h-0.5c-1.1,0-2-0.9-2-2s0.9-2,2-2l0,0h0.4c1.1,0,2.1,0.9,2.1,2S84.4,296.5,83.3,296.5z
					 M91.3,295.9c-1,0-1.8-0.7-2-1.7c-0.2-1.1,0.6-2.1,1.7-2.3l0.5-0.1c1.1-0.2,2.1,0.6,2.3,1.7c0.2,1.1-0.6,2.1-1.7,2.3l-0.5,0.1
					C91.5,295.9,91.4,295.9,91.3,295.9z M74.9,295.7c-0.2,0-0.3,0-0.5-0.1c-0.2,0-0.4-0.1-0.5-0.1c-1.1-0.3-1.7-1.4-1.4-2.4
					s1.4-1.7,2.4-1.4c0.1,0,0.3,0.1,0.4,0.1c1.1,0.3,1.7,1.3,1.5,2.4C76.6,295.1,75.8,295.7,74.9,295.7z M99.6,294.2
					c-0.9,0-1.7-0.6-1.9-1.4c-0.3-1.1,0.3-2.2,1.3-2.5l0.5-0.1c1.1-0.3,2.2,0.3,2.5,1.3c0.3,1.1-0.3,2.2-1.3,2.5l-0.5,0.2
					C100,294.1,99.8,294.2,99.6,294.2z M67.6,291.7c-0.6,0-1.2-0.3-1.6-0.8c-0.1-0.2-0.3-0.3-0.4-0.5c-0.6-0.9-0.4-2.2,0.5-2.8
					c0.9-0.6,2.2-0.4,2.8,0.5c0.1,0.1,0.1,0.2,0.2,0.3c0.7,0.9,0.5,2.1-0.3,2.8C68.4,291.6,68,291.7,67.6,291.7z M107.6,291.2
					c-0.8,0-1.5-0.4-1.8-1.2c-0.5-1,0-2.2,1-2.7l0.4-0.2c1-0.5,2.2,0,2.7,1s0,2.2-1,2.7l-0.5,0.2
					C108.1,291.1,107.9,291.2,107.6,291.2z M115,287c-0.6,0-1.2-0.3-1.6-0.8c-0.6-0.9-0.4-2.1,0.4-2.8l0.4-0.3
					c0.9-0.7,2.1-0.5,2.8,0.4s0.5,2.1-0.4,2.8c-0.1,0.1-0.3,0.2-0.4,0.3C115.8,286.8,115.4,287,115,287z M120.5,280.7
					c-0.3,0-0.5,0-0.8-0.2c-1-0.4-1.5-1.6-1.1-2.6c0-0.1,0.1-0.2,0.1-0.4c0.4-1,1.5-1.6,2.5-1.2s1.6,1.5,1.2,2.5
					c-0.1,0.2-0.1,0.4-0.2,0.6C122.1,280.2,121.3,280.7,120.5,280.7z"/>
			</g>
		</g>
	</g>
</g>
</svg>
