<?xml version="1.0" encoding="utf-8"?>
<!-- Generator: Adobe Illustrator 16.0.0, SVG Export Plug-In . SVG Version: 6.00 Build 0)  -->
<!DOCTYPE svg PUBLIC "-//W3C//DTD SVG 1.1//EN" "http://www.w3.org/Graphics/SVG/1.1/DTD/svg11.dtd">
<svg version="1.1" id="content" xmlns="http://www.w3.org/2000/svg" xmlns:xlink="http://www.w3.org/1999/xlink" x="0px" y="0px"
	 width="500px" height="500px" viewBox="0 0 500 500" enable-background="new 0 0 500 500" xml:space="preserve">
<rect id="position" display="none" fill="none" stroke="#000000" width="500" height="500"/>
<g id="bounds_1_">
	<rect x="7.05" y="246.149" fill="none" stroke="#000000" stroke-width="1.2441" width="204.5" height="222.5"/>
</g>
<g>
	<path fill="#424242" d="M108.801,264.2L108.801,264.2c13.7,0,24.8,11.1,24.8,24.8v136.8c0,13.7-11.1,24.8-24.8,24.8l0,0
		c-13.7,0-24.8-11.1-24.8-24.8V289C83.901,275.3,95.101,264.2,108.801,264.2z"/>
	<path fill="#204F27" d="M107.558,450.6h7.875v-4.997c0,0-9.708-0.625-9.708,0S107.558,450.6,107.558,450.6z"/>
	<path fill="#262626" d="M114.3,264.2L114.3,264.2c13.7,0,24.8,11.1,24.8,24.8v136.8c0,13.7-11.1,24.8-24.8,24.8l0,0
		c-13.7,0-24.8-11.1-24.8-24.8V289C89.399,275.3,100.6,264.2,114.3,264.2z"/>
	<ellipse fill="#4D4B4B" cx="139.827" cy="305.4" rx="5.474" ry="8.097"/>
	<polygon fill="#4D4B4B" points="139.827,297.305 136.017,297.305 136.017,313.497 139.933,313.497 142.705,307.154 	"/>
	<ellipse fill="#6E6B6B" cx="136.158" cy="305.4" rx="5.474" ry="8.096"/>
	<path fill="#D8D8D7" d="M102.719,302.5h32.4c0.032,0,0.061,0.018,0.092,0.02c1.51,0.102,2.708,1.346,2.708,2.881
		s-1.197,2.779-2.707,2.881c-0.032,0.003-0.06,0.02-0.093,0.02h-32.4c-0.699,0-1.3-0.6-1.3-1.3v-3.2
		C101.419,303.1,102.02,302.5,102.719,302.5z"/>
	<path fill="#ADADAC" d="M119.669,306.665c4.054,0,13.932,1.635,13.932,1.635s-7.44,1.49-9.877,3.929
		c-2.437,2.438-3.236,2.375-4.055,2.375s-1.618,0.062-4.055-2.375c-2.437-2.438-9.877-3.929-9.877-3.929
		S115.615,306.665,119.669,306.665z"/>
	<circle fill="#8F8F8E" cx="119.669" cy="310.949" r="2.07"/>
	<circle fill="#E0E0DF" cx="119.669" cy="310.363" r="2.07"/>
	<ellipse fill="#4D4B4B" cx="101.23" cy="305.4" rx="5.474" ry="8.097"/>
	<polygon fill="#4D4B4B" points="101.23,297.305 97.42,297.305 97.42,313.497 101.336,313.497 104.108,307.154 	"/>
	<ellipse fill="#6E6B6B" cx="97.562" cy="305.4" rx="5.474" ry="8.096"/>
	<ellipse fill="#D8D8D7" cx="97.562" cy="305.4" rx="2.257" ry="3.338"/>
	<ellipse fill="#4D4B4B" cx="139.827" cy="416.905" rx="5.474" ry="8.097"/>
	<polygon fill="#4D4B4B" points="139.827,425.002 136.017,425.002 136.017,408.809 139.933,408.809 142.705,415.151 	"/>
	<ellipse fill="#6E6B6B" cx="136.158" cy="416.906" rx="5.474" ry="8.096"/>
	<path fill="#D8D8D7" d="M102.719,419.806h32.4c0.032,0,0.061-0.017,0.092-0.02c1.51-0.102,2.708-1.345,2.708-2.88
		s-1.197-2.779-2.707-2.881c-0.032-0.003-0.06-0.021-0.093-0.021h-32.4c-0.699,0-1.3,0.601-1.3,1.3v3.2
		C101.419,419.206,102.02,419.806,102.719,419.806z"/>
	<path fill="#ADADAC" d="M119.669,415.641c4.054,0,13.932-1.635,13.932-1.635s-7.44-1.49-9.877-3.928
		c-2.437-2.438-3.236-2.375-4.055-2.375s-1.618-0.062-4.055,2.375c-2.437,2.437-9.877,3.928-9.877,3.928
		S115.615,415.641,119.669,415.641z"/>
	<circle fill="#8F8F8E" cx="119.669" cy="412.579" r="2.07"/>
	<circle fill="#E0E0DF" cx="119.669" cy="411.942" r="2.07"/>
	<ellipse fill="#4D4B4B" cx="101.23" cy="416.905" rx="5.474" ry="8.097"/>
	<polygon fill="#4D4B4B" points="101.23,425.002 97.42,425.002 97.42,408.809 101.336,408.809 104.108,415.151 	"/>
	<ellipse fill="#6E6B6B" cx="97.562" cy="416.906" rx="5.474" ry="8.096"/>
	<ellipse fill="#D8D8D7" cx="97.562" cy="416.906" rx="2.257" ry="3.338"/>
</g>
<polygon fill="#141414" points="139.1,339.33 89.5,382.177 89.5,387.092 139.1,344.244 "/>
<polygon fill="#141414" points="139.1,331.921 89.5,374.768 89.5,379.721 139.1,336.873 "/>
<polygon fill="#141414" points="139.1,324.548 89.5,367.395 89.5,372.311 139.1,329.464 "/>
<polygon fill="#141414" points="139.1,346.702 89.5,389.549 89.5,394.463 139.1,351.616 "/>
<polygon fill="#FFFFFF" points="139.1,336.873 89.5,379.721 89.5,382.177 139.1,339.33 "/>
<polygon fill="#A7A7A7" points="139.1,344.244 89.5,387.092 89.5,389.549 139.1,346.702 "/>
<polygon fill="#FFFFFF" points="89.5,394.463 89.5,396.921 139.1,354.073 139.1,351.616 "/>
<polygon fill="#FFFFFF" points="139.1,322.091 89.5,364.938 89.5,367.395 139.1,324.548 "/>
<polygon fill="#A7A7A7" points="139.1,329.464 89.5,372.311 89.5,374.768 139.1,331.921 "/>
</svg>
