<?xml version="1.0" encoding="utf-8"?>
<!-- Generator: Adobe Illustrator 18.0.0, SVG Export Plug-In . SVG Version: 6.00 Build 0)  -->
<!DOCTYPE svg PUBLIC "-//W3C//DTD SVG 1.1//EN" "http://www.w3.org/Graphics/SVG/1.1/DTD/svg11.dtd">
<svg version="1.1" id="content" xmlns="http://www.w3.org/2000/svg" xmlns:xlink="http://www.w3.org/1999/xlink" x="0px" y="0px"
	 width="500px" height="500px" viewBox="0 0 500 500" enable-background="new 0 0 500 500" xml:space="preserve">
<rect id="position" display="none" fill="none" stroke="#000000" width="500" height="500"/>
<g id="bounds" display="none">
	<rect x="-3.2" y="232.7" display="inline" fill="none" stroke="#000000" stroke-width="0.7531" width="147.7" height="145.8"/>
</g>
<g>
	<g>
		
			<rect x="49" y="354" transform="matrix(-0.9029 0.4298 -0.4298 -0.9029 252.2048 654.2552)" fill="#D6D6D6" width="6.3" height="3.1"/>
	</g>
	<g>
		<circle fill="#999999" cx="48.7" cy="355.6" r="3.1"/>
	</g>
	<g>
		<polygon fill="#999999" points="88.4,277.2 84.1,275.8 82.6,280 78.4,278.5 76.9,282.7 72.7,281.2 71.2,285.4 67,283.9 
			65.5,288.1 61.3,286.6 59.8,290.8 55.6,289.3 54.1,293.5 49.9,292.1 48.4,296.2 44.2,294.8 42.7,299 38.5,297.5 37,301.7 
			32.8,300.2 31.3,304.4 27.1,302.9 25.6,307.1 21.4,305.6 45.8,356.9 114.3,324.4 89.8,273.1 		"/>
	</g>
	<g>
		<circle fill="#D6D6D6" cx="117.1" cy="323" r="3.1"/>
	</g>
	<g>
		<polygon fill="#D6D6D6" points="96.7,280.3 92.6,278.8 91.1,283 86.8,281.5 85.4,285.7 81.1,284.2 79.6,288.4 75.5,286.9 
			73.9,291.1 69.7,289.6 68.3,293.8 64,292.4 62.5,296.5 58.4,295.1 56.8,299.3 52.6,297.8 51.2,302 46.9,300.5 45.4,304.7 
			41.3,303.2 39.7,307.4 35.5,305.9 34.1,310.1 29.8,308.7 52.9,357.1 118.5,325.9 117.1,323 120,321.6 98.3,276.1 		"/>
	</g>
	<g>
		
			<rect x="49.9" y="317.6" transform="matrix(-0.9029 0.4298 -0.4298 -0.9029 261.8288 591.9343)" fill="#B3B3B3" width="28.4" height="15.8"/>
	</g>
	<g>
		
			<rect x="84.4" y="325.2" transform="matrix(-0.9029 0.4298 -0.4298 -0.9029 312.9506 582.1019)" fill="#B3B3B3" width="12.6" height="2.4"/>
	</g>
	<g>
		
			<rect x="86.6" y="328.6" transform="matrix(-0.9029 0.4298 -0.4298 -0.9029 318.9285 589.7037)" fill="#B3B3B3" width="12.6" height="4.5"/>
	</g>
	<g>
		
			<rect x="98.8" y="319.1" transform="matrix(-0.9029 0.4298 -0.4298 -0.9029 334.6603 565.0298)" fill="#B3B3B3" width="9.5" height="2.4"/>
	</g>
	<g>
		
			<rect x="100.9" y="322.6" transform="matrix(-0.9029 0.4298 -0.4298 -0.9029 340.6382 572.6316)" fill="#B3B3B3" width="9.5" height="4.5"/>
	</g>
	<g>
		
			<rect x="79.2" y="307.4" transform="matrix(-0.9029 0.4298 -0.4298 -0.9029 298.1942 563.3371)" fill="#B3B3B3" width="12.6" height="15.8"/>
	</g>
	<g>
		
			<rect x="93.5" y="301.4" transform="matrix(-0.9029 0.4298 -0.4298 -0.9029 319.9039 546.2649)" fill="#B3B3B3" width="9.5" height="15.8"/>
	</g>
	<g>
		<path fill="#B3B3B3" d="M60.3,350.9c0.3,1.4-0.4,2.9-1.7,3.5l25.6-12.2c1.3-0.6,2-2,1.7-3.5L60.3,350.9z"/>
	</g>
	<g>
		<path fill="#B3B3B3" d="M89,337.3c0.3,1.4-0.4,2.9-1.7,3.5l11.4-5.4c1.3-0.6,2-2,1.7-3.5L89,337.3z"/>
	</g>
	<g>
		<path fill="#B3B3B3" d="M103.1,330.5c0.3,1.4-0.4,2.9-1.7,3.5l8.5-4.1c1.3-0.6,2-2,1.7-3.5L103.1,330.5z"/>
	</g>
	<g>
		<g>
			<path fill="#231F20" d="M56.2,310.5c-0.1-0.2-0.3-0.4-0.4-0.4c-0.2,0-0.4,0.1-0.8,0.5c-0.6,0.5-1.2,0.6-1.9,0.4
				c-0.7-0.2-1.3-0.8-1.6-1.6c-0.4-0.9-0.5-1.8-0.2-2.7c0.3-0.8,0.9-1.5,1.9-2c0.5-0.2,1-0.3,1.8-0.2c0.7,0.1,1.4,0.2,2,0.6l0.1,0
				c0.1,0,0.1,0,0-0.1c0-0.5,0.1-1,0.3-1.5c0.2-0.5,0.5-0.9,0.9-1.1c0.7-0.3,1.3-0.4,1.8-0.2s1,0.6,1.5,1.3c0.3,0.5,0.7,0.7,1.1,0.6
				c0.1,0,0.2,0,0.2,0c0,0.1,0,0.2-0.1,0.2c-0.7,0.7-1.1,1.5-1.1,2.3c0,0.8,0.4,1.7,1.3,2.5c0.4,0.4,0.8,0.6,1.2,0.6
				c0.4,0,0.7-0.1,0.9-0.5c0.1-0.2,0.2-0.2,0.3-0.2c0.1,0,0.2,0.1,0,0.3c-0.2,0.4-0.3,0.8-0.5,1.1c-0.2,0.4-0.3,0.8-0.5,1.1
				c-0.1,0-0.1,0-0.2,0.1c-1.4-0.2-2.4-0.8-3-1.7c-0.6-0.9-0.5-2.3,0.2-4.3c0.1,0,0-0.1,0-0.1s0-0.1-0.1,0c-0.4,0-0.9-0.5-1.5-1.3
				c-0.3-0.4-0.6-0.6-0.8-0.7c-0.2-0.1-0.5,0-0.8,0.1c-0.2,0.1-0.4,0.3-0.6,0.7c-0.1,0.4-0.2,0.7-0.1,1.1l0,0.1c0.5,0.4,1,1,1.3,1.7
				c0.4,0.8,0.7,1.7,0.7,2.5c0.1,1,0,1.8-0.3,2.7c-0.2,1-0.6,1.7-1.1,2c-0.4,0.3-1,0.3-1.8-0.1c-0.7-0.4-1.1-0.3-1.2,0.3
				c0,0.1-0.1,0.2-0.2,0.1c-0.1,0-0.2-0.1-0.1-0.2c0.6-1.9,1.5-2.5,2.7-1.9c0.2,0.1,0.4,0.2,0.5,0.2c0.2,0.1,0.3,0,0.6-0.1
				c0.2-0.1,0.4-0.6,0.4-1.3c0.1-0.7-0.2-1.5-0.6-2.4c-0.5-1.1-1.3-1.9-2.3-2.6c-1-0.6-1.8-0.7-2.7-0.4c-0.8,0.3-1.3,0.7-1.6,1.2
				c-0.2,0.5-0.3,1.1,0,1.6s0.6,0.8,1,1s0.9,0,1.4-0.5c1.1-0.9,1.9-0.7,2.4,0.6c0.1,0.2,0,0.3,0,0.3
				C56.4,310.6,56.3,310.7,56.2,310.5z"/>
		</g>
		<g>
			<path fill="#231F20" d="M68.9,309.4c0-0.1-0.2-0.1-0.3-0.2c-0.1,0-0.2,0-0.3,0c-0.6-0.1-1.3-0.4-1.7-0.8
				c-0.5-0.4-0.8-0.9-1.2-1.4c-0.7-1.3-0.8-2.4-0.4-3.5c0.1-0.4,0.4-0.7,0.6-1s0.6-0.6,0.9-0.9c0.1,0,0.2-0.1,0.3,0l2,1.8
				c0.2,0.1,0.1,0.2,0,0.3l0,0l-2.3,2.4c-0.1,0,0,0.1,0,0.2c0.7,0.9,1.3,1.3,2.1,1.4c0.6,0.1,1.2-0.2,1.6-0.6c0-0.1,0.2-0.1,0.2-0.1
				c0,0.1,0,0.1,0,0.2c-0.3,0.4-0.5,0.7-0.8,1.1c-0.2,0.3-0.5,0.7-0.6,1.1c-0.1,0-0.1,0-0.2,0.1C69,309.5,68.9,309.4,68.9,309.4z
				 M66.5,305.8c0,0,0,0.1,0.1,0l0.1,0l1.2-1.3c0.1,0,0-0.1,0-0.2l-1.8-1.6c-0.1,0-0.2,0-0.3,0c-0.2,0.3-0.2,0.7-0.1,1.3
				C65.9,304.8,66.2,305.4,66.5,305.8z"/>
		</g>
		<g>
			<path fill="#231F20" d="M74.7,299.3c0.2-0.3,0.4-0.6,0.6-1c0.2-0.4,0.5-0.7,0.5-1c0.1-0.2,0.2-0.3,0.4-0.1
				c0.1,0.2,0.2,0.3,0.5,0.4c0.2,0.1,0.4,0.1,0.5,0.2c0.9,0.5,1.5,1.1,1.8,1.8c0.3,0.8,0.4,1.6,0.1,2.2c0,0.3-0.2,0.6-0.4,0.9
				c-0.2,0.3-0.3,0.6-0.3,1c-0.1,0.4-0.1,0.8-0.1,1.2c0,0.2-0.1,0.2-0.2,0.1c-0.8-0.4-1.7-0.5-2.9-0.3c-0.1,0-0.1,0-0.1,0
				c0-0.1,0-0.1,0-0.1c0.3-0.2,0.2-0.6,0-1.1c-0.2-0.5-0.4-0.9-0.7-1.4c-0.2-0.5-0.4-0.9-0.7-1.4l0,0c-0.1-0.2-0.2-0.3-0.5-0.4
				c-0.4-0.1-0.6-0.1-0.7,0.1l-0.5,0.9l0,0.1c0.2,0.4,0.4,0.9,0.6,1.3c0.2,0.4,0.4,0.9,0.6,1.3c0.3,0.7,0.7,1.1,1,1.1l0.1,0
				c0,0,0,0.1,0,0.1c-0.3,0.6-0.5,1.1-0.4,1.7c0,0.1,0,0.1,0,0.1s-0.1,0-0.1,0c-0.5-0.4-1-0.6-1.6-0.7l-0.1,0c0-0.1,0-0.1,0-0.1
				c0.2-0.3,0.1-0.8-0.2-1.5l-0.6-1.3c-0.2-0.4-0.4-0.8-0.6-1.3c-0.1-0.2-0.2-0.3-0.4-0.4c-0.1,0-0.3-0.2-0.5-0.2
				c-0.6-0.1-0.9-0.5-1-0.9c-0.1-0.4-0.1-1,0.2-1.7c0-0.1,0.1-0.2,0.2-0.2c0.1,0,0.1,0,0.1,0.2c0,0.3-0.1,0.6,0.1,0.8
				c0.1,0.2,0.3,0.2,0.7,0.2c0.5,0,0.9,0,1.1,0.2c0.3,0.2,0.5,0.4,0.6,0.7c0,0.1,0,0.1,0.1,0c0,0,0.1,0,0.2-0.1
				c0.2-0.3,0.3-0.6,0.5-1c0.1-0.4,0.3-0.7,0.3-0.9c0-0.2,0.1-0.2,0.3-0.2l0,0c0.7,0.1,1.3,0.2,1.6,0.5c0,0.1,0,0.1,0.1,0
				C74.7,299.4,74.7,299.4,74.7,299.3z M75.4,300.8c0.5,1,0.9,1.9,1.1,2.3c0,0.1,0,0.1,0.2,0.1l1.4,0.1c0.1,0,0.3,0,0.2-0.1l0.1-0.2
				c0.1-0.8,0-1.5-0.4-2.3c-0.2-0.5-0.5-0.8-0.8-1.1c-0.4-0.3-0.7-0.5-1.2-0.7c-0.2-0.1-0.5,0-0.8,0.4c-0.1,0-0.1,0.2-0.2,0.3
				c-0.1,0,0,0.1,0,0.1C74.9,299.9,75,300.2,75.4,300.8z"/>
		</g>
		<g>
			<path fill="#231F20" d="M79.8,293.7c0.6-0.5,1.1-0.7,1.8-0.8c0.4,0,0.8,0.1,1.2,0.3s0.5,0.5,0.7,0.9c0.1,0.4,0.1,0.7,0,1
				s-0.2,0.5-0.3,0.6c-0.1,0.2-0.1,0.4-0.2,0.5c-0.1,0.4-0.1,0.5,0.2,0.6c0.9,0.3,1.4,0.5,1.7,0.9c0.2,0.3,0.3,0.6,0.3,1
				c-0.1,0.6-0.3,1-0.5,1.5c-0.2,0.5-0.4,1.1-0.5,1.5c-0.1,0.2-0.2,0.3-0.3,0.2c-0.2-0.2-0.6-0.3-1.1-0.3c-0.6,0.1-1.2,0.1-1.8,0.2
				c-0.1,0-0.1,0-0.1-0.2c0.1-0.2,0.1-0.4,0.2-0.6c0.1-0.2,0.1-0.4,0.2-0.6c0.2-0.3,0.1-0.4,0-0.6c-0.2-0.1-0.3-0.2-0.6-0.3
				c-0.7-0.3-1.1-0.6-1.3-1c-0.2-0.4-0.2-0.8-0.1-1.2c0.1-0.4,0.3-0.8,0.5-1.2s0.4-0.8,0.5-1.2c0,0,0.1,0,0.2-0.1
				c0.9,0.3,1.5,0.3,1.9,0.1c0.4-0.2,0.6-0.4,0.7-0.7c0-0.3-0.1-0.5-0.4-0.8c-0.3-0.2-0.6-0.3-1-0.3c-0.6,0-1.2,0.3-1.7,0.7
				c0,0.1-0.2,0.1-0.3,0C79.6,293.9,79.6,293.8,79.8,293.7z M81.8,298.4c0.1,0,0.1,0,0.2-0.1l0.7-1.8c0-0.1,0-0.1-0.1-0.2l-0.1,0
				c-0.2,0.1-0.6,0.1-1,0.1c-0.6-0.1-1-0.1-1.2-0.1c-0.2,0-0.3,0.2-0.4,0.5c-0.2,0.5,0,0.9,0.5,1C80.7,298.2,81.3,298.3,81.8,298.4z
				 M81.6,300.3c0,0.1,0.1,0.2,0.2,0.1c0.4,0,0.8,0,1.2-0.1c0.4,0,0.8,0,1.2-0.1c0.3,0,0.5-0.2,0.5-0.7c0-0.6-0.6-1-2-1.2
				c-0.2,0-0.4,0.1-0.5,0.4L81.6,300.3z"/>
		</g>
	</g>
	<g>
		
			<rect x="56.4" y="335.1" transform="matrix(-0.9029 0.4298 -0.4298 -0.9029 280.1935 615.2876)" fill="#B3B3B3" width="28.4" height="8.4"/>
	</g>
</g>
</svg>
