<?xml version="1.0" encoding="utf-8"?>
<!-- Generator: Adobe Illustrator 16.0.0, SVG Export Plug-In . SVG Version: 6.00 Build 0)  -->
<!DOCTYPE svg PUBLIC "-//W3C//DTD SVG 1.1//EN" "http://www.w3.org/Graphics/SVG/1.1/DTD/svg11.dtd">
<svg version="1.1" id="content" xmlns="http://www.w3.org/2000/svg" xmlns:xlink="http://www.w3.org/1999/xlink" x="0px" y="0px"
	 width="500px" height="500px" viewBox="0 0 500 500" enable-background="new 0 0 500 500" xml:space="preserve">
<rect id="position" display="none" fill="none" stroke="#000000" width="500" height="500"/>
<g id="bounds">
	<rect x="39.5" y="198.84" fill="none" stroke="#000000" stroke-width="0.5436" width="126.693" height="133.66"/>
</g>
<g>
	<path opacity="0.8" fill="#D64351" enable-background="new    " d="M102.496,231.191c-20.882,0-24.432-2.36-24.432-2.36
		s0,47.474,0,66.815c11.315,5.244,37.549,5.244,48.864,0c0-19.342,0-66.815,0-66.815S123.378,231.191,102.496,231.191z"/>
	<path fill="#D64351" d="M126.928,235.542c0,0-3.55,2.36-24.432,2.36c-20.882,0-24.432-2.36-24.432-2.36v-6.711
		c0,0,3.55,2.36,24.432,2.36c20.882,0,24.432-2.36,24.432-2.36V235.542z"/>
	<path fill="#D64351" d="M126.928,298.549c0,0-3.55,2.359-24.432,2.359c-20.882,0-24.432-2.359-24.432-2.359v-6.711
		c0,0,3.55,2.359,24.432,2.359c20.882,0,24.432-2.359,24.432-2.359V298.549z"/>
	<line fill="none" stroke="#D64351" stroke-width="2" stroke-miterlimit="10" x1="102.496" y1="231.191" x2="102.496" y2="299.58"/>
</g>
</svg>
