<?xml version="1.0" encoding="utf-8"?>
<!-- Generator: Adobe Illustrator 18.0.0, SVG Export Plug-In . SVG Version: 6.00 Build 0)  -->
<!DOCTYPE svg PUBLIC "-//W3C//DTD SVG 1.1//EN" "http://www.w3.org/Graphics/SVG/1.1/DTD/svg11.dtd">
<svg version="1.1" id="content" xmlns="http://www.w3.org/2000/svg" xmlns:xlink="http://www.w3.org/1999/xlink" x="0px" y="0px"
	 width="500px" height="500px" viewBox="0 0 500 500" enable-background="new 0 0 500 500" xml:space="preserve">
<rect id="position" display="none" fill="none" stroke="#000000" width="500" height="500"/>
<g id="bounds" display="none">
	<rect x="-32.1" y="259.4" display="inline" fill="none" stroke="#000000" stroke-width="0.7531" width="185.6" height="160.7"/>
</g>
<g>
	<path fill="#BD4F27" d="M85.5,309.4c-2.8,2.4-1.9,5.9-0.2,7.5c1.8,1.6,4.7,1.2,6.5-0.8c0,0,3.6-4.4,6-6.7s14.4-9.4,16.8-12.5
		c2.4-3.1,2.5-6.7,1.1-8.7c-1.4-2-5.9-4.8-11,1.1c-5,5.9-9.7,11.6-12.6,14.6C89.3,306.7,89.3,306.3,85.5,309.4z"/>
	<circle fill="#EFAF77" cx="32.9" cy="364.8" r="18.3"/>
	<circle fill="#EFAF77" cx="83.8" cy="318.3" r="16.9"/>
	<polygon fill="#EFAF77" points="72.8,305.6 19.9,351.9 42.6,380.4 95.6,330.3 	"/>
	<circle fill="#D3A37F" cx="32.9" cy="364.8" r="16.7"/>
	<path fill="#BD4F27" d="M34.4,370.6c2.8-2.4,1.9-5.9,0.2-7.5c-1.8-1.6-4.7-1.2-6.5,0.8c0,0-3.6,4.4-6,6.7S7.6,380,5.2,383.1
		c-2.4,3.1-2.5,6.7-1.1,8.7s5.9,4.8,11-1.1s9.7-11.6,12.6-14.6C30.6,373.3,30.6,373.7,34.4,370.6z"/>
</g>
</svg>
