<?xml version="1.0" encoding="utf-8"?>
<!-- Generator: Adobe Illustrator 16.0.4, SVG Export Plug-In . SVG Version: 6.00 Build 0)  -->
<!DOCTYPE svg PUBLIC "-//W3C//DTD SVG 1.1//EN" "http://www.w3.org/Graphics/SVG/1.1/DTD/svg11.dtd">
<svg version="1.1" id="content" xmlns="http://www.w3.org/2000/svg" xmlns:xlink="http://www.w3.org/1999/xlink" x="0px" y="0px"
	 width="500px" height="500px" viewBox="0 0 500 500" enable-background="new 0 0 500 500" xml:space="preserve">
<g id="bounds" display="none">
	<rect x="0.2" y="213" display="inline" fill="none" stroke="#000000" stroke-width="1.2441" width="204.5" height="191.5"/>
</g>
<rect id="position" x="0" display="none" fill="none" stroke="#000000" width="500" height="500"/>
<g>
	<path d="M116.381,300.959c0-1.725-1.402-2.059-1.402-2.059s-0.387-0.186-0.771-0.344l-20.06-8.433
		c-0.418-0.177-1.011-0.278-1.626-0.278c-0.626,0-1.229,0.105-1.653,0.287l-18.008,7.609l-1.958,0.812
		c-0.379,0.157-0.465,0.314-0.465,0.346c0,0-1.401,0.334-1.401,2.057c0.003,0.004,0.009,0.008,0.013,0.012
		c-0.137,0.188-0.173,0.445-0.173,0.594v26.127c0,0.926,0.677,2.099,1.478,2.561l20.381,11.768c0.189,0.109,0.368,0.168,0.518,0.168
		c0,0,0.817,0.406,1.457,0.406c0.639,0,1.458-0.406,1.458-0.406v-0.017c0.125-0.021,0.262-0.063,0.408-0.147l20.38-11.768
		c0.801-0.463,1.478-1.636,1.478-2.561v-26.127C116.433,301.434,116.36,300.979,116.381,300.959z"/>
	<path fill="#25B241" d="M74.346,311.289c-0.149,0-0.323-0.048-0.503-0.141l-3.533-1.791c-0.817-0.414-1.51-1.539-1.51-2.457v-5.4
		c0-0.244,0.058-0.812,0.593-0.812c0.147,0,0.319,0.043,0.494,0.129l3.493,1.672c0.824,0.395,1.52,1.5,1.52,2.412v5.601
		C74.9,310.736,74.846,311.289,74.346,311.289z"/>
	<path fill="#E6E6E6" d="M82.554,315.484c-0.149,0-0.324-0.049-0.505-0.144l-3.841-1.972c-0.817-0.421-1.508-1.553-1.508-2.471
		V305.3c0-0.241,0.057-0.807,0.583-0.807c0.147,0,0.319,0.045,0.496,0.131l3.804,1.851c0.821,0.4,1.517,1.512,1.517,2.426v5.801
		C83.1,314.936,83.047,315.484,82.554,315.484z"/>
	<path fill="#D92B2C" d="M91.154,319.884c-0.148,0-0.323-0.049-0.506-0.142l-4.239-2.176c-0.817-0.418-1.509-1.549-1.509-2.467
		v-5.801c0-0.246,0.06-0.816,0.601-0.816c0.146,0,0.317,0.043,0.493,0.127l4.186,1.984c0.825,0.391,1.521,1.492,1.521,2.405v6.101
		C91.7,319.336,91.647,319.884,91.154,319.884z"/>
	<path fill="#FFE721" d="M74.402,321.956c-0.149,0-0.327-0.056-0.515-0.157l-3.594-1.975c-0.811-0.444-1.494-1.602-1.494-2.524
		V311.9c0-0.234,0.052-0.778,0.535-0.778c0.149,0,0.325,0.051,0.508,0.146l3.552,1.853c0.816,0.425,1.505,1.562,1.505,2.479v5.602
		C74.9,321.428,74.852,321.956,74.402,321.956z"/>
	<path fill="#2E55CE" d="M82.591,326.361c-0.15,0-0.327-0.053-0.513-0.152l-3.882-2.098c-0.812-0.439-1.496-1.59-1.496-2.512V316
		c0-0.234,0.053-0.784,0.545-0.784c0.148,0,0.323,0.05,0.506,0.144l3.841,1.973c0.817,0.42,1.508,1.55,1.508,2.469v5.801
		C83.1,325.829,83.05,326.361,82.591,326.361z"/>
	<path fill="#FFE721" d="M91.188,331.062c-0.149,0-0.327-0.053-0.512-0.151l-4.279-2.304c-0.812-0.438-1.498-1.586-1.498-2.508
		V320.2c0-0.235,0.054-0.784,0.546-0.784c0.149,0,0.324,0.049,0.507,0.143l4.24,2.174c0.817,0.42,1.509,1.55,1.509,2.469v6.1
		C91.7,330.529,91.65,331.062,91.188,331.062z"/>
	<path fill="#D92B2C" d="M74.438,332.534c-0.149,0-0.33-0.058-0.52-0.167l-3.636-2.1c-0.804-0.465-1.482-1.641-1.482-2.567v-5.4
		c0-0.228,0.048-0.756,0.498-0.756c0.15,0,0.328,0.056,0.515,0.157l3.595,1.975c0.81,0.444,1.493,1.602,1.493,2.524v5.6
		C74.9,332.021,74.855,332.534,74.438,332.534z"/>
	<path fill="#25B241" d="M82.642,337.332c-0.148,0-0.329-0.059-0.52-0.17l-3.941-2.29c-0.802-0.466-1.479-1.646-1.479-2.572v-5.7
		c0-0.226,0.048-0.752,0.49-0.752c0.15,0,0.329,0.057,0.517,0.159l3.9,2.161c0.81,0.448,1.492,1.607,1.492,2.532v5.899
		C83.1,336.818,83.056,337.332,82.642,337.332z"/>
	<path fill="#2E55CE" d="M91.236,342.234c-0.148,0-0.328-0.059-0.519-0.168l-4.335-2.5c-0.804-0.465-1.482-1.64-1.482-2.566v-5.9
		c0-0.227,0.048-0.754,0.495-0.754c0.15,0,0.328,0.055,0.516,0.157l4.297,2.369c0.809,0.446,1.493,1.604,1.493,2.528v6.1
		C91.7,341.721,91.655,342.234,91.236,342.234z"/>
	<path fill="#2E55CE" d="M110.946,311.289c-0.5,0-0.554-0.553-0.554-0.789v-5.6c0-0.914,0.696-2.02,1.521-2.414l3.491-1.672
		c0.177-0.084,0.348-0.129,0.495-0.129c0.536,0,0.594,0.569,0.594,0.813v5.399c0,0.918-0.691,2.045-1.511,2.459l-3.532,1.791
		C111.27,311.241,111.095,311.289,110.946,311.289z"/>
	<path fill="#E6E6E6" d="M102.738,315.484c-0.492,0-0.546-0.549-0.546-0.784v-5.8c0-0.914,0.695-2.025,1.518-2.426l3.803-1.852
		c0.177-0.086,0.349-0.131,0.497-0.131c0.526,0,0.583,0.564,0.583,0.807v5.602c0,0.918-0.69,2.049-1.508,2.47l-3.841,1.973
		C103.062,315.436,102.887,315.484,102.738,315.484z"/>
	<path fill="#25B241" d="M94.138,319.884c-0.493,0-0.546-0.548-0.546-0.784V313c0-0.913,0.697-2.016,1.521-2.404l4.187-1.986
		c0.175-0.082,0.345-0.127,0.493-0.127c0.542,0,0.6,0.572,0.6,0.817v5.8c0,0.92-0.689,2.049-1.507,2.467l-4.241,2.177
		C94.462,319.835,94.288,319.884,94.138,319.884z"/>
	<path fill="#D92B2C" d="M110.89,321.956c-0.449,0-0.498-0.528-0.498-0.756V315.6c0-0.92,0.689-2.056,1.505-2.479l3.553-1.853
		c0.183-0.095,0.357-0.146,0.508-0.146c0.482,0,0.535,0.544,0.535,0.778v5.398c0,0.924-0.685,2.08-1.494,2.524l-3.595,1.975
		C111.218,321.9,111.04,321.956,110.89,321.956z"/>
	<path fill="#FFE721" d="M102.701,326.361c-0.459,0-0.51-0.532-0.51-0.762v-5.801c0-0.919,0.69-2.049,1.508-2.468l3.842-1.974
		c0.182-0.094,0.355-0.144,0.506-0.144c0.492,0,0.545,0.55,0.545,0.784v5.6c0,0.924-0.687,2.072-1.497,2.512l-3.881,2.099
		C103.028,326.309,102.851,326.361,102.701,326.361z"/>
	<path fill="#2E55CE" d="M94.104,331.062c-0.462,0-0.512-0.533-0.512-0.764v-6.1c0-0.92,0.69-2.049,1.508-2.469l4.241-2.174
		c0.182-0.094,0.355-0.143,0.506-0.143c0.493,0,0.546,0.549,0.546,0.783v5.9c0,0.922-0.686,2.069-1.498,2.508l-4.277,2.304
		C94.43,331.011,94.253,331.062,94.104,331.062z"/>
	<path fill="#2E55CE" d="M110.854,332.534c-0.417,0-0.462-0.515-0.462-0.734v-5.6c0-0.925,0.685-2.08,1.494-2.524l3.594-1.975
		c0.188-0.104,0.365-0.157,0.516-0.157c0.448,0,0.498,0.528,0.498,0.756v5.4c0,0.928-0.68,2.104-1.482,2.567l-3.636,2.1
		C111.184,332.477,111.004,332.534,110.854,332.534z"/>
	<path fill="#25B241" d="M102.65,337.332c-0.414,0-0.458-0.514-0.458-0.732V330.7c0-0.925,0.684-2.084,1.492-2.532l3.901-2.161
		c0.188-0.104,0.366-0.159,0.516-0.159c0.443,0,0.491,0.526,0.491,0.752v5.7c0,0.929-0.678,2.106-1.48,2.572l-3.94,2.29
		C102.979,337.273,102.8,337.332,102.65,337.332z"/>
	<path fill="#D92B2C" d="M94.056,342.234c-0.418,0-0.464-0.515-0.464-0.734v-6.1c0-0.924,0.684-2.082,1.493-2.528l4.297-2.369
		c0.187-0.103,0.365-0.157,0.515-0.157c0.447,0,0.495,0.527,0.495,0.754v5.9c0,0.928-0.679,2.104-1.481,2.564l-4.336,2.504
		C94.385,342.177,94.205,342.234,94.056,342.234z"/>
	<path fill="#25B241" d="M92.583,293.913c-0.611,0-1.201-0.104-1.617-0.285l-3.434-1.5c-0.36-0.157-0.452-0.31-0.455-0.337
		c0.003-0.028,0.096-0.18,0.458-0.333l3.322-1.424c0.427-0.183,1.031-0.288,1.659-0.288c0.617,0,1.211,0.102,1.631,0.279
		l3.415,1.442c0.363,0.152,0.455,0.304,0.459,0.331c-0.003,0.028-0.093,0.18-0.453,0.339l-3.343,1.48
		C93.804,293.807,93.206,293.913,92.583,293.913z"/>
	<path fill="#E6E6E6" d="M100.652,297.499c-0.595,0-1.169-0.104-1.574-0.285l-3.747-1.671c-0.377-0.168-0.456-0.327-0.456-0.352
		s0.08-0.184,0.458-0.349l3.435-1.5c0.433-0.188,1.045-0.296,1.684-0.296c0.604,0,1.188,0.1,1.602,0.271l3.71,1.555
		c0.38,0.159,0.463,0.316,0.463,0.342s-0.076,0.186-0.45,0.359l-3.473,1.613C101.88,297.386,101.278,297.499,100.652,297.499z"/>
	<path fill="#D92B2C" d="M109.188,301.191c-0.581,0-1.119-0.097-1.516-0.271l-4.041-1.784c-0.343-0.152-0.46-0.312-0.46-0.361
		c0-0.049,0.114-0.209,0.455-0.365l3.361-1.536c0.441-0.202,1.069-0.317,1.725-0.317c0.59,0,1.137,0.092,1.542,0.26l4.006,1.666
		c0.385,0.158,0.467,0.316,0.468,0.352c0.001,0.033-0.072,0.196-0.445,0.378l-3.402,1.651
		C110.447,301.072,109.831,301.191,109.188,301.191z"/>
	<path fill="#FFE721" d="M84.448,297.499c-0.626,0-1.228-0.113-1.65-0.31l-3.473-1.614c-0.374-0.175-0.45-0.335-0.45-0.359
		s0.083-0.183,0.463-0.342l3.711-1.556c0.412-0.172,0.996-0.271,1.602-0.271c0.639,0,1.251,0.108,1.684,0.296l3.433,1.5
		c0.378,0.165,0.458,0.323,0.458,0.348s-0.079,0.185-0.456,0.353l-3.747,1.671C85.617,297.396,85.043,297.499,84.448,297.499z"/>
	<path fill="#2E55CE" d="M92.6,301.193c-0.608,0-1.195-0.107-1.608-0.297l-3.766-1.729c-0.374-0.172-0.453-0.332-0.453-0.363
		c0-0.03,0.083-0.188,0.461-0.353l3.729-1.612c0.421-0.182,1.018-0.286,1.637-0.286s1.216,0.104,1.637,0.286l3.729,1.612
		c0.377,0.163,0.46,0.322,0.461,0.353c0,0.031-0.079,0.191-0.453,0.363l-3.765,1.729C93.795,301.086,93.209,301.193,92.6,301.193z"
		/>
	<path fill="#FFE721" d="M101.053,305.092c-0.592,0-1.163-0.104-1.566-0.287l-4.059-1.847c-0.347-0.157-0.459-0.321-0.459-0.376
		s0.111-0.218,0.457-0.377l3.766-1.73c0.425-0.193,1.028-0.307,1.656-0.307c0.598,0,1.173,0.104,1.58,0.282l4.041,1.784
		c0.376,0.166,0.463,0.328,0.463,0.371s-0.082,0.207-0.454,0.384l-3.784,1.788C102.273,304.979,101.675,305.092,101.053,305.092z"/>
	<path fill="#D92B2C" d="M75.995,301.195c-0.64,0-1.252-0.118-1.684-0.324l-3.493-1.673c-0.371-0.179-0.447-0.341-0.446-0.371
		c0-0.03,0.086-0.188,0.466-0.347l4.007-1.666c0.408-0.17,0.961-0.263,1.558-0.263c0.65,0,1.276,0.113,1.716,0.312l3.453,1.556
		c0.375,0.169,0.456,0.329,0.456,0.359c0,0.031-0.083,0.189-0.459,0.356l-4.041,1.784C77.126,301.098,76.582,301.195,75.995,301.195
		z"/>
	<path fill="#25B241" d="M84.147,305.092c-0.622,0-1.221-0.113-1.642-0.312l-3.784-1.789c-0.372-0.176-0.454-0.34-0.454-0.383
		s0.087-0.205,0.463-0.371l4.041-1.785c0.407-0.18,0.982-0.282,1.58-0.282c0.627,0,1.231,0.112,1.656,0.308l3.765,1.729
		c0.347,0.159,0.458,0.323,0.458,0.377c0,0.056-0.111,0.219-0.459,0.376l-4.058,1.846C85.311,304.986,84.74,305.092,84.147,305.092z
		"/>
	<path fill="#2E55CE" d="M92.599,309.089c-0.604,0-1.188-0.11-1.599-0.303l-4.077-1.906c-0.337-0.157-0.459-0.321-0.459-0.396
		c0-0.072,0.123-0.235,0.459-0.394L91,304.186c0.411-0.191,0.994-0.303,1.6-0.303c0.606,0,1.189,0.11,1.601,0.303l4.075,1.906
		c0.337,0.157,0.459,0.321,0.459,0.395c0,0.072-0.122,0.236-0.459,0.395l-4.075,1.905C93.789,308.979,93.205,309.089,92.599,309.089
		z"/>
	<path opacity="0.1" fill="#231F20" enable-background="new    " d="M110.946,311.289c-0.5,0-0.554-0.553-0.554-0.789v-5.6
		c0-0.914,0.696-2.02,1.521-2.414l3.491-1.672c0.177-0.084,0.348-0.129,0.495-0.129c0.536,0,0.594,0.569,0.594,0.813v5.399
		c0,0.918-0.691,2.045-1.511,2.459l-3.532,1.791C111.27,311.241,111.095,311.289,110.946,311.289L110.946,311.289z"/>
	<path opacity="0.1" fill="#231F20" enable-background="new    " d="M102.738,315.484c-0.492,0-0.546-0.549-0.546-0.784v-5.8
		c0-0.914,0.695-2.025,1.518-2.426l3.803-1.852c0.177-0.086,0.349-0.131,0.497-0.131c0.526,0,0.583,0.564,0.583,0.807v5.602
		c0,0.918-0.69,2.049-1.508,2.47l-3.841,1.973C103.062,315.436,102.887,315.484,102.738,315.484L102.738,315.484z"/>
	<path opacity="0.1" fill="#231F20" enable-background="new    " d="M94.138,319.884c-0.493,0-0.546-0.548-0.546-0.784V313
		c0-0.913,0.697-2.016,1.521-2.404l4.187-1.986c0.175-0.082,0.345-0.127,0.493-0.127c0.542,0,0.6,0.572,0.6,0.817v5.8
		c0,0.92-0.689,2.049-1.507,2.467l-4.241,2.177C94.462,319.835,94.288,319.884,94.138,319.884z"/>
	<path opacity="0.1" fill="#231F20" enable-background="new    " d="M110.89,321.956c-0.449-0.001-0.498-0.528-0.498-0.756V315.6
		c0-0.92,0.689-2.056,1.505-2.479l3.553-1.853c0.183-0.095,0.357-0.146,0.508-0.146c0.482,0,0.535,0.544,0.535,0.778v5.398
		c0,0.924-0.685,2.08-1.494,2.524l-3.595,1.975C111.218,321.9,111.04,321.956,110.89,321.956L110.89,321.956z"/>
	<path opacity="0.1" fill="#231F20" enable-background="new    " d="M102.701,326.361c-0.459,0-0.51-0.532-0.51-0.762v-5.801
		c0-0.919,0.69-2.049,1.508-2.468l3.842-1.974c0.182-0.094,0.355-0.144,0.506-0.144c0.492,0,0.545,0.55,0.545,0.784v5.6
		c0,0.924-0.687,2.072-1.497,2.512l-3.881,2.099C103.028,326.309,102.851,326.361,102.701,326.361z"/>
	<path opacity="0.1" fill="#231F20" enable-background="new    " d="M94.104,331.062c-0.462,0-0.512-0.533-0.512-0.764v-6.1
		c0-0.92,0.69-2.049,1.508-2.469l4.241-2.174c0.182-0.094,0.355-0.143,0.506-0.143c0.493,0,0.546,0.549,0.546,0.783v5.9
		c0,0.922-0.686,2.069-1.498,2.508l-4.277,2.304C94.43,331.011,94.253,331.062,94.104,331.062z"/>
	<path opacity="0.1" fill="#231F20" enable-background="new    " d="M110.854,332.534c-0.417,0-0.462-0.515-0.462-0.734v-5.6
		c0-0.925,0.685-2.08,1.494-2.524l3.594-1.975c0.188-0.104,0.365-0.157,0.516-0.157c0.448,0,0.498,0.528,0.498,0.756v5.4
		c0,0.928-0.68,2.104-1.482,2.567l-3.636,2.1C111.184,332.477,111.004,332.534,110.854,332.534z"/>
	<path opacity="0.1" fill="#231F20" enable-background="new    " d="M102.65,337.332c-0.414,0-0.458-0.514-0.458-0.732V330.7
		c0-0.925,0.684-2.084,1.492-2.532l3.901-2.161c0.188-0.104,0.366-0.159,0.516-0.159c0.443,0,0.491,0.526,0.491,0.752v5.7
		c0,0.929-0.678,2.106-1.48,2.572l-3.94,2.29C102.979,337.273,102.8,337.332,102.65,337.332L102.65,337.332z"/>
	<path opacity="0.1" fill="#231F20" enable-background="new    " d="M94.056,342.234c-0.418,0-0.464-0.515-0.464-0.734v-6.1
		c0-0.924,0.684-2.082,1.493-2.528l4.297-2.369c0.187-0.103,0.365-0.157,0.515-0.157c0.447,0,0.495,0.527,0.495,0.754v5.9
		c0,0.928-0.679,2.104-1.481,2.564l-4.336,2.504C94.385,342.177,94.205,342.234,94.056,342.234L94.056,342.234z"/>
</g>
</svg>
