<?xml version="1.0" encoding="utf-8"?>
<!-- Generator: Adobe Illustrator 18.0.0, SVG Export Plug-In . SVG Version: 6.00 Build 0)  -->
<!DOCTYPE svg PUBLIC "-//W3C//DTD SVG 1.1//EN" "http://www.w3.org/Graphics/SVG/1.1/DTD/svg11.dtd">
<svg version="1.1" id="content" xmlns="http://www.w3.org/2000/svg" xmlns:xlink="http://www.w3.org/1999/xlink" x="0px" y="0px"
	 width="500px" height="500px" viewBox="0 0 500 500" enable-background="new 0 0 500 500" xml:space="preserve">
<rect id="position" display="none" fill="none" stroke="#000000" width="500" height="500"/>
<g id="bounds" display="none">
	<rect x="9.8" y="210.4" display="inline" fill="none" stroke="#000000" stroke-width="0.7531" width="147.7" height="160.7"/>
</g>
<g>
	<path fill="#D6D6D8" d="M67.4,284.7l11.8,52c0,0,3,7.9,9.2,3.6s37-25.5,37-25.5s8.1-5.2,1.1-11.4c-7-6.2-44.1-29.1-44.1-29.1
		l-12.1-17.7L55,267.2L67.4,284.7z"/>
	<path fill="#24ABC7" d="M75.4,299.9l33.3-4.3l16,10.9c0,0,2.1,2.7-1.8,5.9s-35.5,24.4-35.5,24.4s-3.7,3.2-4.8-1.4L75.4,299.9z"/>
	<circle fill="#24ABC7" cx="58.9" cy="245.3" r="5.2"/>
	<path fill="#EBEBED" d="M56.3,268.7c0,0-0.8,0.6-2.2-0.5s-1.3-1.8-0.1-3.1c1.1-1.3,7.2-7,14.3-10c0,0,2.3-1.2,3,1.1
		c0.4,1.4,0.7,1.7,0,2.1C71.4,258.3,63.2,260.7,56.3,268.7z"/>
	<path fill="#4CD3E5" d="M56.6,242.7c0,0,3.5-1.3,6.3,1.2C62.8,243.8,60,239.1,56.6,242.7z"/>
	<circle fill="#24ABC7" cx="54.8" cy="257.6" r="3.7"/>
	<path fill="#4CD3E5" d="M53.1,255.7c0,0,2.5-1,4.5,0.8C57.6,256.5,55.6,253.2,53.1,255.7z"/>
	<circle fill="#24ABC7" cx="43.5" cy="246.3" r="5.7"/>
	<path fill="#4CD3E5" d="M40.9,243.4c0,0,3.9-1.5,6.9,1.3C47.9,244.6,44.7,239.5,40.9,243.4z"/>
</g>
</svg>
