<?xml version="1.0" encoding="utf-8"?>
<!-- Generator: Adobe Illustrator 16.0.0, SVG Export Plug-In . SVG Version: 6.00 Build 0)  -->
<!DOCTYPE svg PUBLIC "-//W3C//DTD SVG 1.1//EN" "http://www.w3.org/Graphics/SVG/1.1/DTD/svg11.dtd">
<svg version="1.1" id="content" xmlns="http://www.w3.org/2000/svg" xmlns:xlink="http://www.w3.org/1999/xlink" x="0px" y="0px"
	 width="500px" height="500px" viewBox="0 0 500 500" enable-background="new 0 0 500 500" xml:space="preserve">
<g id="bounds">
	<rect x="-15.95" y="246.149" fill="none" stroke="#000000" stroke-width="1.2441" width="204.5" height="222.5"/>
</g>
<rect id="position" display="none" fill="none" stroke="#000000" width="500" height="500"/>
<path fill="#204F27" d="M91.798,264.2L91.798,264.2c-13.7,0-24.8,11.1-24.8,24.8v136.8c0,13.7,11.1,24.8,24.8,24.8l0,0
	c13.7,0,24.8-11.1,24.8-24.8V289C116.699,275.3,105.499,264.2,91.798,264.2z"/>
<path fill="#204F27" d="M93.042,450.6h-7.875v-4.997c0,0,9.708-0.625,9.708,0S93.042,450.6,93.042,450.6z"/>
<path fill="#2C6E36" d="M86.3,264.2L86.3,264.2c-13.7,0-24.8,11.1-24.8,24.8v136.8c0,13.7,11.1,24.8,24.8,24.8l0,0
	c13.7,0,24.8-11.1,24.8-24.8V289C111.2,275.3,100,264.2,86.3,264.2z"/>
<path fill="#275E2F" d="M111.1,294.282l-49.6,49.6V425.8c0,2.652,0.42,5.205,1.191,7.602l48.409-48.41V294.282z"/>
<g>
	<g>
		<ellipse fill="#26231E" cx="60.772" cy="305.4" rx="5.474" ry="8.097"/>
		<polygon fill="#26231E" points="60.772,297.304 64.583,297.304 64.583,313.497 60.667,313.497 57.895,307.154 		"/>
		<path fill="#225229" d="M98.881,304.5h-32.4c-0.032,0-0.061,0.017-0.092,0.02c-1.51,0.101-2.708,1.345-2.708,2.88
			s1.197,2.779,2.707,2.881c0.032,0.003,0.06,0.02,0.093,0.02h1.518c0,0,7.44,1.49,9.877,3.928s3.236,2.375,4.055,2.375
			s1.618,0.062,4.055-2.375s9.877-3.928,9.877-3.928h3.018c0.699,0,1.3-0.6,1.3-1.3v-3.2C100.181,305.1,99.58,304.5,98.881,304.5z"
			/>
		<ellipse fill="#38342C" cx="64.441" cy="305.4" rx="5.474" ry="8.096"/>
	</g>
	<path fill="#D8D8D7" d="M97.881,302.5h-32.4c-0.032,0-0.061,0.017-0.092,0.02c-1.51,0.101-2.708,1.345-2.708,2.88
		s1.197,2.779,2.707,2.881c0.032,0.003,0.06,0.02,0.093,0.02h32.4c0.699,0,1.3-0.6,1.3-1.3v-3.2
		C99.181,303.1,98.58,302.5,97.881,302.5z"/>
	<path fill="#ADADAC" d="M80.931,306.665c-4.054,0-13.932,1.635-13.932,1.635s7.44,1.49,9.877,3.928s3.236,2.375,4.055,2.375
		s1.618,0.062,4.055-2.375s9.877-3.928,9.877-3.928S84.984,306.665,80.931,306.665z"/>
	<circle fill="#8F8F8E" cx="80.931" cy="310.949" r="2.07"/>
	<circle fill="#E0E0DF" cx="80.931" cy="310.363" r="2.07"/>
	<g>
		<ellipse fill="#26231E" cx="99.369" cy="305.4" rx="5.474" ry="8.097"/>
		<polygon fill="#26231E" points="99.369,297.304 103.179,297.304 103.179,313.497 99.263,313.497 96.492,307.154 		"/>
		<ellipse fill="#38342C" cx="103.038" cy="305.4" rx="5.474" ry="8.096"/>
		<ellipse fill="#D8D8D7" cx="103.038" cy="305.4" rx="2.257" ry="3.338"/>
		<path fill="#A3A3A2" d="M104.093,305.4c0-1.534-0.704-2.812-1.656-3.204c0.192-0.079,0.392-0.135,0.601-0.135
			c1.247,0,2.257,1.495,2.257,3.339s-1.011,3.339-2.257,3.339c-0.209,0-0.408-0.056-0.601-0.135
			C103.39,308.213,104.093,306.935,104.093,305.4z"/>
	</g>
</g>
<g>
	<g>
		<ellipse fill="#26231E" cx="60.772" cy="416.905" rx="5.474" ry="8.097"/>
		<polygon fill="#26231E" points="60.772,425.002 64.583,425.002 64.583,408.809 60.667,408.809 57.895,415.151 		"/>
		<path fill="#286331" d="M97.881,421.44h-32.4c-0.032,0-0.061-0.017-0.092-0.02c-1.51-0.101-2.708-1.345-2.708-2.88
			s1.197-2.779,2.707-2.881c0.032-0.003,0.06-0.02,0.093-0.02h32.4c0.699,0,1.3,0.6,1.3,1.3v3.2
			C99.181,420.841,98.58,421.44,97.881,421.44z"/>
		<ellipse fill="#38342C" cx="64.441" cy="416.906" rx="5.474" ry="8.096"/>
	</g>
	<path fill="#D8D8D7" d="M97.881,419.806h-32.4c-0.032,0-0.061-0.017-0.092-0.02c-1.51-0.101-2.708-1.345-2.708-2.88
		s1.197-2.779,2.707-2.881c0.032-0.003,0.06-0.02,0.093-0.02h32.4c0.699,0,1.3,0.6,1.3,1.3v3.2
		C99.181,419.206,98.58,419.806,97.881,419.806z"/>
	<path fill="#ADADAC" d="M80.931,415.641c-4.054,0-13.932-1.635-13.932-1.635s7.44-1.49,9.877-3.928s3.236-2.375,4.055-2.375
		s1.618-0.062,4.055,2.375s9.877,3.928,9.877,3.928S84.984,415.641,80.931,415.641z"/>
	<circle fill="#8F8F8E" cx="80.931" cy="412.579" r="2.07"/>
	<circle fill="#E0E0DF" cx="80.931" cy="411.942" r="2.07"/>
	<g>
		<ellipse fill="#26231E" cx="99.369" cy="416.905" rx="5.474" ry="8.097"/>
		<polygon fill="#26231E" points="99.369,425.002 103.179,425.002 103.179,408.809 99.263,408.809 96.492,415.151 		"/>
		<ellipse fill="#38342C" cx="103.038" cy="416.906" rx="5.474" ry="8.096"/>
		<ellipse fill="#D8D8D7" cx="103.038" cy="416.906" rx="2.257" ry="3.338"/>
		<path fill="#A3A3A2" d="M104.093,416.905c0,1.534-0.704,2.812-1.656,3.204c0.192,0.079,0.392,0.135,0.601,0.135
			c1.247,0,2.257-1.495,2.257-3.339s-1.011-3.339-2.257-3.339c-0.209,0-0.408,0.056-0.601,0.135
			C103.39,414.093,104.093,415.371,104.093,416.905z"/>
	</g>
</g>
<path fill="#1C1B16" d="M68.113,347.813c0,0,3.312,4.291,17.062,4.291c0-8.055,0-12.016,0-12.016S73.036,338.973,68.113,347.813z"/>
<path fill="#1C1B16" d="M102.16,347.825c0,0-3.312,4.29-17.062,4.29c0-8.055,0-12.015,0-12.015S97.237,338.984,102.16,347.825z"/>
<path fill="none" stroke="#38342C" stroke-miterlimit="10" d="M69.51,347.825c0,0,1.618,12.811,10.802,19.526"/>
<path fill="none" stroke="#38342C" stroke-miterlimit="10" d="M100.368,347.825c0,0-1.618,12.811-10.802,19.526"/>
<g>
	<path fill="#D8D8D7" d="M90.107,364.353c0.195-1.74-5.013-0.863-5.013-0.863s-5.369-0.789-5.176,0.951
		c0.244,0.878,0.394,1.85,0.394,2.911c0,4.031,3.599,4.417,4.68,4.417s4.68-0.386,4.68-4.417c0-1.103,0.171-2.102,0.44-3.003
		C90.11,364.351,90.109,364.352,90.107,364.353z"/>
	<path fill="#D8D8D7" d="M100.023,351.364c0-9.387-6.685-16.998-14.929-16.998c-8.246,0-14.93,7.611-14.93,16.998
		c0,5.51,2.312,4.932,5.881,8.038c0,0,0.152,0.109,0.398,0.326c0.152,0.077,2.311,1.136,6.212,1.202
		c2.113,0.051,2.763,0.051,4.876,0c4.046-0.068,6.226-1.21,6.226-1.21l-0.002,0.005c0.208-0.168,0.34-0.261,0.34-0.261l-0.02-0.009
		C97.683,356.354,100.023,356.907,100.023,351.364z"/>
</g>
<ellipse fill="#38342C" cx="92.693" cy="349.985" rx="4.947" ry="5.635"/>
<ellipse fill="#38342C" cx="77.495" cy="349.985" rx="4.948" ry="5.635"/>
<path fill="#38342C" d="M85.094,353.321c0,0-1.699,0.615-1.699,4.029c0,1.16,1.239,0,1.699,0c0.459,0,1.699,1.16,1.699,0
	C86.793,353.937,85.094,353.321,85.094,353.321z"/>
<path fill="#38342C" d="M84.901,367.146c-2.034-0.015-4.841-0.293-4.841-0.293c0,5.161,3.983,5.39,4.841,5.379
	c0.859,0.011,4.842-0.218,4.842-5.379C89.743,366.853,86.935,367.131,84.901,367.146z"/>
<path fill="#38342C" d="M85.094,329.931c0,0-16.041,0.068-17.057,17.895c0,0,4.208-6.26,17.057-6.26
	c12.848,0,17.056,6.26,17.056,6.26C101.135,329.999,85.094,329.931,85.094,329.931z"/>
<path fill="#4A453A" d="M100.023,342.968c0,0-3.916-11.65-14.197-11.652c0,5.189,0,5.189,0,5.189S93.883,335.46,100.023,342.968z"/>
<g>
	<path fill="#D8D8D7" d="M68.353,385.52c-0.461-0.868-0.692-1.833-0.692-2.892s0.231-2.021,0.692-2.892
		c0.461-0.868,1.111-1.556,1.948-2.06c0.836-0.504,1.781-0.756,2.833-0.756c1.188,0,2.221,0.379,3.101,1.137v-0.923h2.726v10.987
		h-2.726v-0.923c-0.858,0.758-1.892,1.137-3.101,1.137c-1.052,0-1.996-0.252-2.833-0.756
		C69.463,387.075,68.814,386.389,68.353,385.52z M73.487,385.772c1.123,0,2.039-0.477,2.747-1.427v-3.434
		c-0.379-0.501-0.812-0.864-1.298-1.09s-0.969-0.338-1.448-0.338c-0.852,0-1.566,0.301-2.146,0.901s-0.869,1.349-0.869,2.242
		c0,0.895,0.289,1.642,0.869,2.242C71.92,385.472,72.635,385.772,73.487,385.772z"/>
	<path fill="#D8D8D7" d="M80.751,388.122v-10.987h2.725v0.901c0.744-0.743,1.691-1.115,2.843-1.115c1.359,0,2.464,0.48,3.315,1.443
		c0.851,0.961,1.277,2.157,1.277,3.588v6.169l-2.726,0.001v-6.245c0-0.665-0.227-1.229-0.681-1.695
		c-0.455-0.464-1.011-0.697-1.668-0.697c-0.644,0-1.199,0.236-1.663,0.708c-0.465,0.473-0.698,1.034-0.698,1.685v6.245H80.751z"/>
	<path fill="#D8D8D7" d="M92.624,385.519c-0.461-0.868-0.692-1.833-0.692-2.891c0-1.059,0.231-2.022,0.692-2.893
		c0.461-0.868,1.111-1.556,1.947-2.06c0.837-0.504,1.781-0.756,2.833-0.756c1.188,0,2.221,0.379,3.101,1.138v-4.217h2.725v14.28
		h-2.725v-0.923c-0.858,0.758-1.892,1.137-3.101,1.137c-1.051,0-1.996-0.252-2.833-0.756
		C93.734,387.075,93.085,386.388,92.624,385.519z M97.758,385.771c1.123,0,2.038-0.475,2.747-1.426v-3.434
		c-0.379-0.501-0.812-0.863-1.298-1.09c-0.486-0.225-0.969-0.338-1.448-0.338c-0.851,0-1.566,0.301-2.146,0.901
		s-0.869,1.349-0.869,2.243s0.29,1.641,0.869,2.242S96.907,385.771,97.758,385.771z"/>
</g>
</svg>
