<?xml version="1.0" encoding="utf-8"?>
<!-- Generator: Adobe Illustrator 16.0.0, SVG Export Plug-In . SVG Version: 6.00 Build 0)  -->
<!DOCTYPE svg PUBLIC "-//W3C//DTD SVG 1.1//EN" "http://www.w3.org/Graphics/SVG/1.1/DTD/svg11.dtd">
<svg version="1.1" id="content" xmlns="http://www.w3.org/2000/svg" xmlns:xlink="http://www.w3.org/1999/xlink" x="0px" y="0px"
	 width="500px" height="500px" viewBox="0 0 500 500" enable-background="new 0 0 500 500" xml:space="preserve">
<g id="bounds">
	<rect y="201.7" fill="none" stroke="#000000" stroke-width="1.2441" width="204.5" height="222.5"/>
</g>
<rect id="position" display="none" fill="none" stroke="#000000" width="500" height="500"/>
<g>
	<ellipse fill="#DBDCDD" cx="102" cy="313.6" rx="52.5" ry="53.2"/>
	<path d="M153.9,321.8c0.1-0.6,0.1-0.8,0.2-1.5c0-0.3,0.1-0.899,0.1-1.2c0.1-0.699,0.1-1.199,0.2-1.899c0-0.3,0-0.601,0-0.9
		c0.1-1,0.1-1.899,0.1-2.899l0,0c-0.7,1.699-1.8,3.199-2.3,4.399l-8.1-3.899c0.3-14.9-6.9-21.601-8.6-23.101c1.2-2.2,3.2-7,3-13
		l-0.1-2.8c-0.3-0.3-0.5-0.5-0.8-0.8c-0.3-0.3-0.6-0.5-0.9-0.8l0.2,3.399c0.5,6.3-1.7,11.3-2.8,13.4c-8-2.101-17.8,0.1-21.4,1
		c-5.1-5.2-15.3-12-19.3-14.601c0-2.199,0.3-7.6,2.5-10.1H96c0.1,0,0.2,0,0.3-0.1c0.1,0,10.9-4,27.2-1.601c-0.1-0.1-0.3-0.1-0.4-0.2
		c-0.6-0.3-1.2-0.5-1.8-0.8c-0.3-0.1-0.5-0.2-0.8-0.3c-0.8-0.3-1.6-0.6-2.4-0.8c-0.1,0-0.2-0.101-0.3-0.101
		c-11.3-0.8-19.1,1.4-21.4,2.101c-1.5-0.8-4.3-2-7.8-2.8c-0.7,0.199-1.3,0.399-2,0.6c-0.3,0.1-0.5,0.2-0.8,0.3
		c-0.5,0.2-0.9,0.3-1.4,0.5c-0.3,0.101-0.6,0.2-0.9,0.3c-0.5,0.2-1,0.4-1.5,0.601c-0.2,0.1-0.4,0.2-0.6,0.2
		c-0.7,0.3-1.3,0.6-2,0.899c-0.3,0.101-0.5,0.3-0.8,0.4c-0.4,0.2-0.9,0.399-1.3,0.7c-0.3,0.1-0.5,0.3-0.8,0.399
		c-0.5,0.3-1,0.601-1.5,0.9c-0.2,0.1-0.4,0.3-0.6,0.399c-0.5,0.301-1.1,0.7-1.6,1c-0.2,0.2-0.5,0.301-0.7,0.5
		c-0.4,0.301-0.8,0.601-1.2,0.9c-0.2,0.2-0.5,0.3-0.7,0.5c-0.6,0.4-1.1,0.9-1.7,1.3c-0.1,0.101-0.3,0.2-0.4,0.4
		c-0.4,0.399-0.9,0.7-1.3,1.1c-0.2,0.2-0.4,0.4-0.6,0.601c-0.4,0.3-0.7,0.699-1.1,1c-0.2,0.199-0.4,0.399-0.6,0.6
		c-0.5,0.5-1,1-1.4,1.5c0.5,2,1.7,6.1,4.2,8.8c-5.8,8.5-6,19.2-5.6,24.601c-1.8,1.199-9.2,6.5-10.5,11.699
		c-0.2,0.601-0.4,1.4-0.7,2.301c2.1,9.8,6.9,18.6,13.5,25.5c3.3,0,8.3-0.5,13.3-0.801C85.5,360.7,95.4,362,99.6,362
		c-0.4,1.8-1.8,3.5-2.8,4.5c0.3,0,0.7,0.1,1,0.1c0.5,0,1,0.101,1.5,0.101c0.8,0,1.7,0.1,2.5,0.1c0,0,0,0,0.1,0l0,0
		c0.8,0,1.7,0,2.5-0.1c0.3,0,0.5,0,0.8-0.101c0.6,0,1.1-0.1,1.7-0.1c0.3,0,0.6-0.1,0.9-0.1c0.5-0.101,1-0.101,1.6-0.2
		c0.3,0,0.6-0.101,0.9-0.101c0.5-0.1,1.1-0.199,1.6-0.3c0.3-0.1,0.5-0.1,0.8-0.2c0.8-0.199,1.5-0.3,2.3-0.5c0.2,0,0.4-0.1,0.5-0.199
		c0.6-0.2,1.2-0.301,1.7-0.5c0.3-0.101,0.6-0.2,0.9-0.301c0.4-0.1,0.9-0.3,1.3-0.5c0.3-0.1,0.7-0.199,1-0.399
		c0.4-0.2,0.8-0.3,1.2-0.5c0.3-0.101,0.6-0.3,1-0.4c0.4-0.2,0.8-0.399,1.3-0.6c0.3-0.101,0.6-0.3,0.9-0.4c0.7-0.3,1.3-0.7,2-1
		c0.3-0.2,0.6-0.3,0.9-0.5c0.4-0.2,0.8-0.399,1.1-0.7c0.3-0.199,0.6-0.399,1-0.6c0.3-0.2,0.7-0.4,1-0.6c0.3-0.2,0.6-0.4,1-0.7
		c0.3-0.2,0.6-0.4,0.9-0.7c0.3-0.2,0.6-0.5,0.9-0.7c0.1,0,0.1-0.101,0.2-0.101c-3.5-0.299-7.1-1.799-8.9-2.6c0.6-2,4.2-14.8,4.5-22
		c10-7.199,13.5-13.699,14.4-15.6l8.4,4.1c0.2,1.301,1,3.6,0.9,5.5c0-0.1,0.1-0.699,0.2-0.8c0.1-0.601,0.2-0.899,0.3-1.5
		C153.8,322.6,153.9,322.1,153.9,321.8z M63.6,312.1c-0.4-4.699-0.6-16,5.2-24.699c0.7-0.601,10.6-8.4,23.3-9.601
		c3.6,2.3,13.8,9.2,19.1,14.3l-5,25.101l-26.6,10.1C76.8,324.8,67.1,315.6,63.6,312.1z M123.4,353L123.4,353
		c-3.6,3.9-19.8,6.9-23,7.5c-3.4,0.2-13.5-0.5-21.9-12.3l1.8-19.4l26.6-10.2l21.1,12.9C127.6,338.9,123.5,352.9,123.4,353z"/>
	<path opacity="0.2" fill="#5A5C5E" enable-background="new    " d="M154.5,313.6c0,29.4-23.5,53.2-52.5,53.2
		c-12.2,0-23.5-4.3-32.4-11.399c0,0,15.6,5.399,43.6-2.4C139.5,345.7,154.5,313.6,154.5,313.6z"/>
</g>
</svg>
