<?xml version="1.0" encoding="utf-8"?>
<!-- Generator: Adobe Illustrator 18.0.0, SVG Export Plug-In . SVG Version: 6.00 Build 0)  -->
<!DOCTYPE svg PUBLIC "-//W3C//DTD SVG 1.1//EN" "http://www.w3.org/Graphics/SVG/1.1/DTD/svg11.dtd">
<svg version="1.1" id="content" xmlns="http://www.w3.org/2000/svg" xmlns:xlink="http://www.w3.org/1999/xlink" x="0px" y="0px"
	 width="500px" height="500px" viewBox="0 0 500 500" enable-background="new 0 0 500 500" xml:space="preserve">
<rect id="position" display="none" fill="none" stroke="#000000" width="500" height="500"/>
<g id="bounds" display="none">
	<rect x="-2" y="204.3" display="inline" fill="none" stroke="#000000" stroke-width="0.7531" width="164.2" height="178.7"/>
</g>
<g>
	<g>
		
			<rect x="48.2" y="241.5" transform="matrix(-0.8579 0.5138 -0.5138 -0.8579 217.7729 428.9972)" fill="#939393" width="2.7" height="6.2"/>
	</g>
	<g>
		<g>
			
				<rect x="40.8" y="234.8" transform="matrix(-0.8579 0.5138 -0.5138 -0.8579 210.1156 421.4697)" fill="#F22727" width="12" height="10"/>
		</g>
		<g>
			
				<rect x="49.3" y="232.9" transform="matrix(-0.8579 0.5138 -0.5138 -0.8579 215.2499 416.2793)" fill="#C91F1F" width="1.5" height="10"/>
		</g>
		<g>
			
				<rect x="46.1" y="234.8" transform="matrix(-0.8579 0.5138 -0.5138 -0.8579 210.2613 421.4036)" fill="#C91F1F" width="1.5" height="10"/>
		</g>
		<g>
			
				<rect x="43" y="236.6" transform="matrix(-0.8579 0.5138 -0.5138 -0.8579 205.3952 426.4038)" fill="#C91F1F" width="1.5" height="10"/>
		</g>
		<g>
			
				<ellipse transform="matrix(0.8579 -0.5138 0.5138 0.8579 -118.0561 56.6353)" fill="#C1BFBF" cx="43.4" cy="241.8" rx="2" ry="2.5"/>
		</g>
		<g>
			
				<ellipse transform="matrix(0.8579 -0.5138 0.5138 0.8579 -118.0561 56.6353)" fill="#939393" cx="43.4" cy="241.8" rx="0.7" ry="1"/>
		</g>
	</g>
	<g>
		
			<ellipse transform="matrix(0.8579 -0.5138 0.5138 0.8579 -123.3382 64.9803)" fill="#AAAAAA" cx="55.8" cy="255.5" rx="23.6" ry="11"/>
	</g>
	<g>
		
			<rect x="54.7" y="252.1" transform="matrix(-0.8579 0.5138 -0.5138 -0.8579 304.5168 511.6877)" fill="#DCE1E2" width="53.6" height="91.7"/>
	</g>
	<g>
		<path fill="#BFBFBF" d="M30.1,271.3c1,1.6,3,2.1,4.6,1.2l46-27.5c1.6-1,2.1-3,1.2-4.6l0,0c-1-1.6-3-2.1-4.6-1.2l-46,27.5
			C29.7,267.7,29.2,269.8,30.1,271.3L30.1,271.3z"/>
	</g>
	<g>
		<path fill="#BFBFBF" d="M79,352.9c1,1.6,3,2.1,4.6,1.2l46-27.5c1.6-1,2.1-3,1.2-4.6l0,0c-1-1.6-3-2.1-4.6-1.2l-46,27.5
			C78.6,349.3,78,351.3,79,352.9L79,352.9z"/>
	</g>
	<g>
		<path fill="#02A315" d="M82.2,293.1c-3-5-1.4-11.4,3.6-14.4s11.4-1.4,14.4,3.6c2.6,4.3,1.7,9.6-1.7,12.9l2.6,4.3
			c0.6,0.9,0.3,2.2-0.7,2.7c-0.9,0.6-2.2,0.3-2.7-0.7l-2.5-4.2c-0.3,0.1-0.6,0.2-0.8,0.3l6.6,10.9c0.4,0.6,0.2,1.4-0.4,1.7
			c-0.6,0.4-1.4,0.2-1.7-0.4l-7-11.8C87.9,298.3,84.2,296.5,82.2,293.1z"/>
	</g>
	<g>
		<path fill="#0315F9" d="M60,305.4c-3-5-1.4-11.4,3.6-14.4s11.4-1.4,14.4,3.6c2.4,3.9,1.8,8.8-1,12.1l1,1.6
			c0.4,0.7,0.2,1.5-0.5,1.9s-1.5,0.2-1.9-0.5l-0.7-1.1c-0.2,0.1-0.3,0.2-0.5,0.3c-0.2,0.1-0.3,0.2-0.5,0.3l3.6,5.9
			c0.5,0.8,0.2,1.8-0.6,2.3c-0.8,0.5-1.8,0.2-2.3-0.6l-3.9-6.6c-0.4,0.1-0.9,0.1-1.3,0.1l0.7,1.2c0.2,0.3,0.1,0.8-0.3,1
			c-0.3,0.2-0.8,0.1-1-0.3l-1.2-2.1C64.4,309.9,61.7,308.2,60,305.4z"/>
	</g>
	<g opacity="0.65">
		<path fill="#F41C1C" d="M64.7,292.9c-3.6-6-1.6-13.8,4.4-17.4s13.8-1.6,17.4,4.4c2.8,4.7,2.2,10.5-1.1,14.5l3,4.9
			c0.3,0.5,0.1,1.1-0.4,1.4s-1.1,0.1-1.4-0.4l-2.7-4.5c-0.6,0.5-1.1,0.9-1.8,1.3l5.9,9.8c0.2,0.4,0.1,0.9-0.3,1.1s-0.9,0.1-1.1-0.3
			l-5.9-9.9C74.9,300.6,68,298.5,64.7,292.9z"/>
	</g>
	<g>
		<path fill="#EDF21D" d="M45.3,276.8c1.6,2.7,5.1,3.6,7.8,2l27.2-16.3c2.7-1.6,3.6-5.1,2-7.8l0,0c-1.6-2.7-5.1-3.6-7.8-2L47.3,269
			C44.6,270.6,43.7,274.1,45.3,276.8L45.3,276.8z"/>
	</g>
	<g opacity="0.5">
		<path fill="#FFFFFF" d="M77.7,336.5c2.6,4.4,7.6,6.3,11.1,4.2l0,0c3.5-2.1,4.2-7.4,1.6-11.8l-33-55.1c-2.6-4.4-7.6-6.3-11.1-4.2
			l0,0c-3.5,2.1-4.2,7.4-1.6,11.8L77.7,336.5z"/>
	</g>
	<g>
		<path fill="#DCE1E2" d="M32,268.7c0.4,0.6,1.2,0.8,1.8,0.4l12.5-7.5c0.6-0.4,0.8-1.2,0.4-1.8l0,0c-0.4-0.6-1.2-0.8-1.8-0.4
			L32.4,267C31.8,267.3,31.6,268.1,32,268.7L32,268.7z"/>
	</g>
	<g>
		<path fill="#DCE1E2" d="M80.4,350.6c0.3,0.6,1.1,0.8,1.6,0.4l13.6-8.1c0.6-0.3,0.8-1.1,0.4-1.6l0,0c-0.3-0.6-1.1-0.8-1.6-0.4
			L80.8,349C80.3,349.3,80.1,350.1,80.4,350.6L80.4,350.6z"/>
	</g>
	<g>
		
			<ellipse transform="matrix(0.6419 -0.7668 0.7668 0.6419 -180.7188 124.2867)" fill="#C4C4C4" cx="42.7" cy="255.6" rx="6.1" ry="2.1"/>
	</g>
</g>
</svg>
