<?xml version="1.0" encoding="utf-8"?>
<!-- Generator: Adobe Illustrator 18.0.0, SVG Export Plug-In . SVG Version: 6.00 Build 0)  -->
<!DOCTYPE svg PUBLIC "-//W3C//DTD SVG 1.1//EN" "http://www.w3.org/Graphics/SVG/1.1/DTD/svg11.dtd">
<svg version="1.1" id="content" xmlns="http://www.w3.org/2000/svg" xmlns:xlink="http://www.w3.org/1999/xlink" x="0px" y="0px"
	 width="500px" height="500px" viewBox="0 0 500 500" enable-background="new 0 0 500 500" xml:space="preserve">
<g id="bounds" display="none">
	<rect x="67.7" y="249.2" display="inline" fill="none" stroke="#000000" stroke-width="1.0717" width="68.8" height="68.8"/>
</g>
<path id="position" display="none" d="M499,1v498H1V1H499 M500,0H0v500h500V0L500,0z"/>
<g>
	<path fill="#424242" d="M107.4,220.7v1.2h-0.8v-1.2H105v1.2h-0.8v-1.2h-1.6v1.2h-0.8v-1.2h-1.6v1.2h-0.8v-1.2H98v1.2h-0.8v-1.2
		h-1.6v1.2h-0.8v-1.2h-1.6v1.2h-0.8v-1.2h-1.6v1.2h-0.8v-1.2h-0.8v1.2H89v3.2h19.5V222h-0.3v-1.2H107.4z M107.8,222.7v1.8H89.7v-1.8
		H107.8z"/>
	<circle fill="#424242" cx="103.6" cy="213.2" r="3"/>
	<circle fill="#424242" cx="93.9" cy="213.2" r="3"/>
	<path fill="#424242" d="M89,217.9h0.3v1.2h0.8v-1.2h0.8v1.2h1.6v-1.2h0.8v1.2h1.6v-1.2h0.8v1.2h1.6v-1.2H98v1.2h1.6v-1.2h0.8v1.2
		h1.6v-1.2h0.8v1.2h1.6v-1.2h0.8v1.2h1.6v-1.2h0.8v1.2h0.8v-1.2h0.3v-2.5h3.3l-0.1-0.4c-1.2-6.2-6.6-10.7-13-10.7
		c-6.3,0-11.8,4.5-13,10.7l-0.1,0.4H89V217.9z M86.6,214.8c1.3-5.6,6.4-9.7,12.2-9.7c5.8,0,10.9,4,12.2,9.7h-3.1v2.5H89.7v-2.5H86.6
		z"/>
	<path fill="none" d="M117.6,194.1c0.2-0.2,0.3-0.5,0.4-0.8c0.3,0.9,0.5,2,0.4,3.1c0,0.2-0.1,0.4-0.1,0.6c-0.2-0.5-0.6-0.9-1.1-1.2
		c-0.4-0.2-1-0.4-1.7-0.4C116.4,195,117.3,194.4,117.6,194.1z"/>
	<path fill="none" d="M115.3,200.9c-0.2-0.3-0.3-0.7-0.5-1.1c0.1,0.1,0.3,0.2,0.4,0.2c0.7,0.3,1.4,0.3,2,0c-0.5,0.8-0.9,1.4-1.2,1.7
		C115.7,201.5,115.5,201.2,115.3,200.9z"/>
	<path fill="none" d="M112.7,196.3c0,0,0,0.1,0,0.1c-0.3-0.2-0.5-0.3-0.8-0.3c0-0.3-0.1-0.6-0.3-0.9c0.4,0.2,0.8,0.2,1.2,0.1
		c0.1,0,0.2-0.1,0.3-0.2c0.1,0.2,0.2,0.4,0.3,0.5C113,195.9,112.8,196,112.7,196.3z"/>
	<path fill="none" d="M111.9,202.3c0.1,0,0.3,0,0.4,0c0.9-0.1,1.6-0.7,2-1.5c0.1,0.1,0.2,0.2,0.3,0.3c0.4,0.9,0.9,1.4,0.9,1.5
		l0.2,0.3l0.1-0.1c0.6,0.9,1.1,2,1.5,3.1c0,0,0,0,0,0C115.6,203.6,113,202.6,111.9,202.3z"/>
	<path fill="none" d="M102,183.1c1.7-1.4,4-1.6,4.9-1.6c-0.2,0.9-0.9,3-2.6,4.4c-1.7,1.4-4,1.6-4.9,1.6
		C99.6,186.6,100.3,184.5,102,183.1z"/>
	<path fill="none" d="M101.9,198.1l-0.2,0c-2.1,0-4-1.1-4.7-1.7c0.7-0.6,2.6-1.9,4.7-1.9l0.2,0c2.1,0,3.9,1.1,4.7,1.6c0,0,0,0,0,0
		C105.8,196.7,104,198,101.9,198.1z"/>
	<path fill="none" d="M87.8,195.4c-0.2,0.9-0.9,3-2.6,4.4c-1.5,1.2-3.4,1.5-4.4,1.6c0.7-1.7,1.6-3.3,2.7-4.7
		C85,195.6,87,195.4,87.8,195.4z"/>
	<path fill="none" d="M113.2,208.8c-1.5-2.1-1.5-4.8-1.5-5.8c1,0.3,3.5,1.3,4.9,3.4c1.5,2.1,1.5,4.8,1.5,5.8
		C117.1,211.9,114.6,210.9,113.2,208.8z"/>
	<path fill="none" d="M113.6,216.6c-0.4-1.9,0.6-3.7,1-4.4c0.7,0.6,2.5,2.2,2.9,4.2c0.4,1.9-0.6,3.7-1,4.4
		C115.8,220.2,114,218.6,113.6,216.6z"/>
	<path fill="none" d="M86,231.1c0.1,0,0.2-0.1,0.3-0.2c0,0.2,0.1,0.4,0.2,0.6c-0.3,0.2-0.5,0.4-0.6,0.6c-0.2-0.3-0.5-0.5-0.7-0.7
		c0,0,0-0.1,0-0.1c0,0,0-0.1,0-0.1C85.4,231.3,85.7,231.3,86,231.1z"/>
	<path fill="none" d="M79.9,207.5c0,0.1,0,0.1,0.1,0.2c0.2,0.3,0.5,0.5,0.8,0.6c-0.1,0.2-0.1,0.4-0.1,0.6c-0.2-0.1-0.4-0.2-0.6-0.2
		c-0.3,0-0.6,0.1-0.8,0.3c0-0.1,0-0.3,0-0.4C79.5,208.4,79.7,208,79.9,207.5z"/>
	<path fill="none" d="M113.4,228.6c0.5-0.4,1.1-0.7,1.8-0.9c1-0.3,2.1-0.5,3.4-0.5c1.3,0,2.5,0.2,3.1,0.3c-0.5,0.8-2,2.7-4.5,3.5
		c-0.2,0.1-0.5,0.1-0.7,0.2c-0.6-0.4-1.3-0.5-2-0.4c-0.4,0.1-0.8,0.2-1.2,0.4c0.2-0.6,0.3-1.2,0.3-1.6
		C113.6,229.3,113.5,228.9,113.4,228.6z"/>
	<path fill="none" d="M106.5,235.2C106.5,235.2,106.5,235.2,106.5,235.2C106.5,235.2,106.5,235.2,106.5,235.2
		C106.5,235.2,106.5,235.2,106.5,235.2z"/>
	<path fill="none" d="M109.4,234.6c0.1-0.2,0.2-0.4,0.2-0.6c0.2,0.2,0.4,0.3,0.6,0.4c0,0.1,0,0.1,0,0.2c0,0.2,0.1,0.4,0.3,0.6
		c-0.2,0-0.4,0.1-0.6,0.3c-0.2,0.1-0.3,0.3-0.4,0.4c-0.1-0.3-0.2-0.5-0.4-0.7c-0.1-0.1-0.2-0.1-0.3-0.2
		C109.1,234.9,109.3,234.8,109.4,234.6z"/>
	<path fill="#424242" d="M77.8,201.6v13.9c0.4,0.4,0.8,0.7,1.4,0.9c0.2,0.6,0.3,1.2,0.5,1.8c-0.5-0.5-1-0.9-1.6-1.3
		c-0.1-0.1-0.2-0.1-0.3-0.1v0.8c1.8,1.1,2.8,3.1,3.2,3.9c-0.3,0-0.7,0.1-1.2,0.1c-0.6,0-1.2-0.1-2-0.2v0.7c0.7,0.1,1.4,0.2,2,0.2
		c0.7,0,1.3-0.1,1.6-0.1c0.4,0.7,0.8,1.4,1.2,2.1c-1.4,0.7-2,2.4-1.3,3.8c0.2,0.5,0.7,1.1,1.3,1.7c-1.1-0.2-2.2-0.2-2.9,0
		c-1.6,0.4,0.3,1.6-0.5,3c-0.7,1.4,0.3,3,1.9,2.6c0.2-0.1,0.4-0.1,0.7-0.2c0,0.4-0.1,0.9,0,1.2c0.2,1.6,1.7,2.7,3.3,2.5
		c1.5-0.2,2.6-1.6,2.5-3.1c0.5,0.5,1.1,0.9,1.6,1.1c1.2,0.5,2.7,0.1,3.4-0.9c2.6,2.4,4.8,4,5.7,4.6c-0.8,0.5-1.5,1.1-2.2,1.7
		c-0.8,0.7-1.6,1.5-2.3,2.4c-0.3,0.4-0.7,0.9-1,1.4c-0.3,0.5-0.5,1-0.8,1.5c-0.1,0.3-0.2,0.5-0.3,0.8c-0.1,0.3-0.2,0.5-0.2,0.8
		c0,0.3-0.1,0.5-0.1,0.8l0,0.8l0.1-0.8c0-0.3,0.1-0.5,0.2-0.8c0.1-0.3,0.1-0.5,0.3-0.8c0.1-0.2,0.2-0.5,0.3-0.7
		c0.3-0.5,0.5-0.9,0.8-1.4c0.3-0.4,0.6-0.9,1-1.3c1.4-1.6,3-2.9,4.7-4.1c1.7,1.1,3.4,2.5,4.7,4.1c0.4,0.4,0.7,0.8,1,1.3
		c0.3,0.4,0.6,0.9,0.8,1.4c0.1,0.2,0.2,0.5,0.3,0.7c0.1,0.2,0.2,0.5,0.3,0.8c0.1,0.3,0.2,0.5,0.2,0.8l0.1,0.8l0-0.8
		c0-0.3-0.1-0.5-0.1-0.8c0-0.3-0.1-0.6-0.2-0.8c-0.1-0.3-0.2-0.5-0.3-0.8c-0.2-0.5-0.5-1-0.8-1.5c-0.3-0.5-0.6-0.9-1-1.4
		c-0.7-0.9-1.5-1.7-2.3-2.4c-0.7-0.6-1.4-1.2-2.2-1.7c0.7-0.4,2.1-1.4,3.8-2.7c-0.4,1.1-0.1,2.4,0.8,3.2c1.2,1,3.1,0.9,4.1-0.3
		c0.5-0.5,0.9-1.5,1.2-2.5c0.2,1.1,0.7,2.2,1.1,2.8c1,1.3,1.3-0.9,2.9-0.8s2.6-1.5,1.7-2.8c-0.2-0.3-0.5-0.6-0.9-0.9
		c0.5,0,0.9,0,1.3,0c1.6-0.3,2.6-1.8,2.3-3.4c-0.1-0.5-0.4-1-0.7-1.4c0.1,0,0.2-0.1,0.3-0.1c3.4-1.2,5-4.1,5.1-4.2l0.2-0.4l-0.4-0.1
		c-0.1,0-1.7-0.5-3.8-0.5c-1.3,0-2.6,0.2-3.6,0.6c-0.5,0.2-1,0.4-1.5,0.7c1.3-1.7,2.4-3.5,3.4-5.5l0.3,0c0,0,0.3,0,0.8,0
		c1.6,0,4.7-0.2,7.1-1.8c0.5-0.4,1-0.8,1.4-1.2v-1.1c-0.5,0.6-1,1.2-1.8,1.7c-2.3,1.5-5.4,1.7-6.7,1.7c-0.2,0-0.3,0-0.4,0
		c0.2-1,1-3.6,3.3-5.1c1.7-1.1,4-1.5,5.5-1.6v-0.7c-1.7,0.1-4,0.5-5.9,1.7c-0.9,0.6-1.6,1.4-2.1,2.1c0.4-1.5,0.6-3.1,0.6-4.7
		c0-0.4,0-0.8,0-1.2c1-0.2,5.1-1.4,7.1-4.4c0.1-0.2,0.2-0.3,0.3-0.5v-1.7c-0.2,0.6-0.5,1.2-0.9,1.8c-1.8,2.6-5.5,3.7-6.6,4
		c0-0.1,0-0.2,0-0.2c0-0.6-0.1-1.1-0.2-1.7c-0.1-1.4,0.2-3.4,1.3-5c1.7-2.5,5.1-3.6,6.4-4v-0.7c-1.2,0.3-5,1.5-7,4.3
		c-0.7,0.9-1,1.9-1.2,2.9c-0.5-1.9-1.2-3.4-2-4.7c0.7-0.8,2.5-3,2.8-5.9c0.3-3.5-2-6.5-2.1-6.6l-0.2-0.3l-0.3,0.3
		c0,0-0.3,0.2-0.6,0.6c-0.8-0.1-1.6,0.3-2.1,0.9c-0.1,0.1-0.2,0.3-0.3,0.5c-0.1-0.4-0.2-0.7-0.3-0.9c-0.6-1.2-1.4-1.9-2.8-2.3
		s-2.7,2.7-2.1,3.9c0.2,0.4,0.5,0.8,0.9,1.2c-0.3-0.1-0.6-0.1-0.8-0.1c-0.9,0-1.6,0.8-1.8,1.8c-0.9-0.6-2.7-1.6-4.8-1.6l-0.2,0
		c-3.1,0.1-5.4,2.3-5.5,2.4l-0.3,0.3l0.3,0.3c0.1,0.1,2.5,2.1,5.5,2.1l0.2,0c2.1-0.1,3.8-1.1,4.8-1.8c0.2,1.2,1,2,2,2
		c0.4,0,0.9-0.2,1.5-0.5c-0.2,0.6-0.3,1.2-0.2,1.7c0.1,0.9,0.6,1.6,1.4,1.9l-0.2,0l0,0.4c0,0.2-0.5,3.8,1.5,6.7
		c2,2.9,5.6,3.8,5.8,3.8l0,0c0,0.1,0,0.2,0,0.3c0,1-0.1,1.9-0.3,2.9c-0.7-2.7-3.3-4.6-3.4-4.7l-0.3-0.2l-0.2,0.3
		c-0.1,0.1-1.9,2.4-1.3,5.2c0.6,2.7,3.3,4.8,3.5,4.9l0,0c-1,2.1-2.3,4.1-3.7,6c-0.5-0.5-1.2-0.8-2-0.8c-1.6,0-2.9,1.3-2.9,2.9
		c0,0.1,0,0.2,0,0.3c-0.2-0.2-0.4-0.4-0.6-0.5c-1.3-0.9-1,1.2-2.6,1.6c-1.6,0.4-2.1,2.2-0.8,3.1c0.4,0.3,1.1,0.6,1.9,0.9
		c-3.2,2.8-6,4.7-6.8,5.1c-0.7-0.5-3.1-2.2-6-4.8c0,0,0,0,0,0c0.6-1.3,0.1-2.8-1-3.6c0.1,0,0.1-0.1,0.2-0.1c1.4-0.8-0.7-1.4-0.4-3
		c0.3-1.6-1.2-2.8-2.5-2c-0.7,0.4-1.5,1.2-2.1,2.2c0.1-1.2-0.2-2.5-0.5-3.3c-0.6-1.3-2-1.9-3.3-1.6c-1.4-2.3-2.6-4.9-3.3-7.5
		c0,0,0,0,0,0c1.6,0,2.9-1.3,2.9-2.9c0-0.5-0.1-1.1-0.3-1.7c0.8,0.4,1.8,0.1,2.3-0.6c0.6-0.8,0.4-2-0.4-2.7
		c-0.1-0.1-0.3-0.2-0.5-0.3c0.6-0.1,1.2-0.4,1.6-0.6c1.4-0.8-0.7-1.4-0.4-3c0.3-1.6-1.2-2.8-2.5-2c-0.9,0.5-2,1.8-2.6,3
		c0-0.6-0.1-1.2-0.2-1.7c0.2-0.7,0.4-1.3,0.6-1.9c1.1,0,3.4-0.3,5.1-1.7c2.4-1.9,3-5.1,3-5.2l0.1-0.4l-0.4,0c0,0-0.1,0-0.3,0
		c-0.5,0-2,0.1-3.5,0.6c5.8-6.2,14.4-7.1,14.5-7.2c0,0,0,0,0,0c0,0,0.1,0,0.1,0c0.8,0,3.5-0.1,5.5-1.7c2.4-1.9,3-5.1,3-5.2l0.1-0.4
		l-0.4,0c0,0-0.1,0-0.3,0c-0.8,0-3.5,0.1-5.5,1.7c-2.1,1.6-2.8,4.2-2.9,5c-1.8,0.3-10.1,1.8-15.5,8.3c-0.1,0.1-0.2,0.2-0.2,0.3
		c-0.1,0.1-0.3,0.2-0.4,0.3c-0.1,0.1-0.1,0.1-0.2,0.2c0.8-1,2.5-3.6,2.5-6.8c0-2.4-1-4.4-1.8-5.7c-0.1,0.2-0.3,0.4-0.5,0.6
		c0.7,1.2,1.6,3.1,1.6,5.1c0,3-1.8,5.6-2.4,6.4c-0.6-0.8-2-2.8-2.4-5.4c-0.2,0.4-0.3,0.9-0.4,1.3c0.7,2.7,2.5,4.7,2.5,4.8l0.2,0.2
		c-0.6,0.7-1.1,1.5-1.4,2.2c0-0.6-0.1-1.3-0.3-2c-0.3-1.2-0.9-2.2-1.6-3.1c-0.1,0.3-0.1,0.7-0.2,1c0.4,0.7,0.8,1.4,1.1,2.3
		c0.5,1.7,0.4,3.5,0.1,4.9C78.9,202.1,78.4,201.8,77.8,201.6z M99.4,187.5c0.2-0.9,0.9-3,2.6-4.4c1.7-1.4,4-1.6,4.9-1.6
		c-0.2,0.9-0.9,3-2.6,4.4C102.5,187.3,100.2,187.5,99.4,187.5z M80.7,201.4c0.7-1.7,1.6-3.3,2.7-4.7c1.6-1.1,3.6-1.2,4.4-1.3
		c-0.2,0.9-0.9,3-2.6,4.4C83.7,201,81.8,201.3,80.7,201.4z M106.6,196.1C106.6,196.1,106.6,196.1,106.6,196.1
		c-0.7,0.6-2.6,1.9-4.7,1.9l-0.2,0c-2.1,0-4-1.1-4.7-1.7c0.7-0.6,2.6-1.9,4.7-1.9l0.2,0C104,194.5,105.8,195.6,106.6,196.1z
		 M113.3,195.7c-0.3,0.1-0.5,0.3-0.6,0.5c0,0,0,0.1,0,0.1c-0.3-0.2-0.5-0.3-0.8-0.3c0-0.3-0.1-0.6-0.3-0.9c0.4,0.2,0.8,0.2,1.2,0.1
		c0.1,0,0.2-0.1,0.3-0.2C113.1,195.4,113.2,195.6,113.3,195.7z M117.2,195.9c-0.4-0.2-1-0.4-1.7-0.4c0.9-0.4,1.8-1,2.1-1.4
		c0.2-0.2,0.3-0.5,0.4-0.8c0.3,0.9,0.5,2,0.4,3.1c0,0.2-0.1,0.4-0.1,0.6C118.1,196.6,117.7,196.1,117.2,195.9z M115.9,201.8
		c-0.2-0.3-0.4-0.6-0.6-0.8c-0.2-0.3-0.3-0.7-0.5-1.1c0.1,0.1,0.3,0.2,0.4,0.2c0.7,0.3,1.4,0.3,2,0
		C116.7,200.8,116.2,201.4,115.9,201.8z M117.3,206C117.3,206,117.2,206,117.3,206c-1.6-2.4-4.3-3.4-5.3-3.7c0.1,0,0.3,0,0.4,0
		c0.9-0.1,1.6-0.7,2-1.5c0.1,0.1,0.2,0.2,0.3,0.3c0.4,0.9,0.9,1.4,0.9,1.5l0.2,0.3l0.1-0.1C116.4,203.8,116.9,204.8,117.3,206z
		 M118.1,212.2c-1-0.3-3.5-1.3-4.9-3.4c-1.5-2.1-1.5-4.8-1.5-5.8c1,0.3,3.5,1.3,4.9,3.4C118.1,208.5,118.2,211.2,118.1,212.2z
		 M116.5,220.8c-0.7-0.6-2.5-2.2-2.9-4.2c-0.4-1.9,0.6-3.7,1-4.4c0.7,0.6,2.5,2.2,2.9,4.2C117.9,218.4,116.9,220.2,116.5,220.8z
		 M113.3,231.3c0.2-0.6,0.3-1.2,0.3-1.6c0-0.4-0.1-0.7-0.2-1c0.5-0.4,1.1-0.7,1.8-0.9c1-0.3,2.1-0.5,3.4-0.5c1.3,0,2.5,0.2,3.1,0.3
		c-0.5,0.8-2,2.7-4.5,3.5c-0.2,0.1-0.5,0.1-0.7,0.2c-0.6-0.4-1.3-0.5-2-0.4C114.2,230.9,113.7,231.1,113.3,231.3z M108.9,235
		c0.2-0.1,0.3-0.2,0.5-0.4c0.1-0.2,0.2-0.4,0.2-0.6c0.2,0.2,0.4,0.3,0.6,0.4c0,0.1,0,0.1,0,0.2c0,0.2,0.1,0.4,0.3,0.6
		c-0.2,0-0.4,0.1-0.6,0.3c-0.2,0.1-0.3,0.3-0.4,0.4c-0.1-0.3-0.2-0.5-0.4-0.7C109.1,235.1,109,235.1,108.9,235z M106.5,235.2
		C106.5,235.2,106.5,235.2,106.5,235.2C106.5,235.2,106.5,235.2,106.5,235.2C106.5,235.2,106.5,235.2,106.5,235.2z M85,231.2
		c0.3,0.1,0.7,0.1,1-0.1c0.1,0,0.2-0.1,0.3-0.2c0,0.2,0.1,0.4,0.2,0.6c-0.3,0.2-0.5,0.4-0.6,0.6c-0.2-0.3-0.5-0.5-0.7-0.7
		c0,0,0-0.1,0-0.1C85.1,231.3,85,231.3,85,231.2z M79.2,209c0-0.1,0-0.3,0-0.4c0.3-0.2,0.5-0.6,0.7-1c0,0.1,0,0.1,0.1,0.2
		c0.2,0.3,0.5,0.5,0.8,0.6c-0.1,0.2-0.1,0.4-0.1,0.6c-0.2-0.1-0.4-0.2-0.6-0.2C79.7,208.7,79.5,208.8,79.2,209z"/>
	<path fill="#424242" d="M103.1,259.9c0.1-0.1,0.2-0.2,0.4-0.1l9.7,3l5.9-8.2c0.1-0.1,0.2-0.2,0.4-0.1c0.1,0,0.2,0.2,0.2,0.3
		l0.1,10.1l6.8,2.1v1.2l-11.1-0.4l3.7-2.4c0-0.1-0.1-0.1-0.1-0.2l-0.1-9.3l-3.6,11.8l-2-4.2c-0.1,0-0.2,0.1-0.2,0l-8.7-2.7l10.9,6.9
		l-5.5,0.7c0,0.1,0,0.2-0.1,0.2l-5.3,7.5l10.9-8.5l-1.9,5.6c0.1,0,0.1,0.1,0.2,0.1l5.5,7.5l0-0.2l-3.8-13l3.8,3.7
		c0-0.1,0.1-0.1,0.2-0.1l7.2-2.4v0.7l-6.7,2.2l0.1,10.1c0,0.2-0.1,0.3-0.2,0.3c0,0-0.1,0-0.1,0c-0.1,0-0.2-0.1-0.3-0.1l-6-8.1
		l-9.6,3.2c-0.1,0.1-0.3,0-0.4-0.1c-0.1-0.1-0.1-0.3,0-0.4l5.9-8.3l-6-8.1C103,260.2,103,260.1,103.1,259.9z"/>
</g>
</svg>
