<?xml version="1.0" encoding="utf-8"?>
<!-- Generator: Adobe Illustrator 18.0.0, SVG Export Plug-In . SVG Version: 6.00 Build 0)  -->
<!DOCTYPE svg PUBLIC "-//W3C//DTD SVG 1.1//EN" "http://www.w3.org/Graphics/SVG/1.1/DTD/svg11.dtd">
<svg version="1.1" id="content" xmlns="http://www.w3.org/2000/svg" xmlns:xlink="http://www.w3.org/1999/xlink" x="0px" y="0px"
	 width="500px" height="500px" viewBox="0 0 500 500" enable-background="new 0 0 500 500" xml:space="preserve">
<g id="bounds" display="none">
	<rect x="67.7" y="249.2" display="inline" fill="none" stroke="#000000" stroke-width="1.0717" width="68.8" height="68.8"/>
</g>
<path id="position" display="none" d="M499,1v498H1V1H499 M500,0H0v500h500V0L500,0z"/>
<g>
	<path fill="#424242" d="M107.3,197.3l1.8-2.6c-0.5-0.3-1-0.6-1.6-0.9l-2.1,3.5C106.1,197.3,106.7,197.3,107.3,197.3z"/>
	<path fill="#424242" d="M116,200.7c-0.4-0.5-0.8-0.9-1.2-1.4l-1.4,1.5c0.3,0.5,0.6,1,0.8,1.6L116,200.7z"/>
	<path fill="#424242" d="M92.9,198.5l-1.4-6.5c-0.6,0.1-1.2,0.3-1.7,0.4l1.5,5.1C91.8,197.8,92.3,198.1,92.9,198.5z"/>
	<path fill="#424242" d="M84,197.7l-1-2.2c-0.5,0.3-1,0.7-1.5,1l0.8,1.8C82.9,198.1,83.5,197.9,84,197.7z"/>
	<path fill="#424242" d="M100.6,191.7c-0.6-0.1-1.2-0.2-1.8-0.2l-0.7,11.9c0.3-1.1,0.8-2.2,1.4-3.1L100.6,191.7z"/>
	<path fill="#424242" d="M115,233.2l-7.2-6.4c-0.2,0.2-0.4,0.5-0.6,0.7l6.6,7C114.2,234.1,114.6,233.6,115,233.2z"/>
	<path fill="#424242" d="M103.1,231.5l3,8c0.6-0.2,1.1-0.5,1.7-0.8l-3.9-7.9C103.6,231,103.3,231.3,103.1,231.5z"/>
	<path fill="#424242" d="M119.8,225.4l-4.4-1.9c-0.2,0.3-0.4,0.6-0.6,0.8l4.2,2.8C119.3,226.5,119.6,225.9,119.8,225.4z"/>
	<path fill="#424242" d="M97.1,236.1l0.1,5.2c0.6,0,1.3,0,1.9-0.1l-0.6-6C97.9,235.6,97.4,235.9,97.1,236.1z"/>
	<path fill="#424242" d="M91,232.2l-2.8,7.6c0.6,0.2,1.2,0.4,1.8,0.6l2-7.3C91.7,232.8,91.4,232.5,91,232.2z"/>
	<path fill="#424242" d="M100.6,218.5c-0.1-2.9-4.9-2.8-4.8,0.1C95.8,221.4,100.7,221.3,100.6,218.5z M99.7,218.5
		c0.1,2-2.9,2.1-3,0.1C96.6,216.5,99.6,216.5,99.7,218.5z"/>
	<path fill="#424242" d="M106,220.5c-0.3-0.9-0.4-2.1-0.5-3.1c0-0.7,0.1-0.6,0.7-0.1c1,0.8,0.9,1.1,2.5,2c0.5-0.3,0.5-3.8,0.5-3.8
		s1.3,2,2.2,2.8c0.4,0.3,0.3,0.2,0.9-0.1c-0.4-1-2-3.3-3.1-3.9c-1.2-0.6-1,3.5-1,3.5s-2.6-2.1-2.8-2.1c-1-0.2-0.7,4-0.3,5
		C105.4,220.6,105.7,220.6,106,220.5z"/>
	<path fill="#424242" d="M85.4,223.4c0,0-0.1-2.2-0.1-3.1c0-0.6,0.1-0.5,0.8,0c1,0.9,0.8,1.1,2.3,2.1c0.5-0.3,0.8-3.5,0.8-3.5
		s1.1,2,1.9,2.8c0.3,0.3,0.3,0.2,0.9,0c-0.3-1-1.7-3.2-2.7-3.9c-1.2-0.7-1.3,3.2-1.3,3.2s-2.4-2.2-2.6-2.2c-1-0.2-1.2,3.9-0.9,4.8
		C84.8,223.5,85.4,223.4,85.4,223.4z"/>
	<path fill="#424242" d="M91.4,258c0.4-0.1,0.8,0,1.2-0.1c0.4-0.1,0.9-0.1,1.4-0.2c0.5,0,1,0,1.4,0c0.5,0.1,0.9,0.1,1.2,0.1
		c0.7,0.1,1.2,0.2,1.2,0.2l0-0.1c0,0-0.5-0.2-1.2-0.4c-0.4-0.1-0.8-0.2-1.2-0.3c-0.5-0.1-1-0.2-1.5-0.2c-0.5,0-1-0.1-1.5,0
		c-0.5,0.1-0.9,0.1-1.3,0.3c-0.7,0.3-1.1,0.6-1.1,0.6l0,0.1C90.1,258.1,90.6,258.1,91.4,258z"/>
	<path fill="#424242" d="M100.2,258L100.2,258c0-0.1-0.5-0.4-1.2-1c-0.7-0.6-1.7-1.4-2.6-2.3c-0.5-0.4-0.8-0.9-1.2-1.3
		c-0.2-0.2-0.4-0.4-0.6-0.6c-0.2-0.2-0.4-0.4-0.5-0.5c-0.3-0.3-0.5-0.6-0.7-0.8c-0.2-0.2-0.3-0.3-0.3-0.3l-0.1,0c0,0,0,0.1,0.2,0.4
		c0,0.1,0.1,0.3,0.2,0.5c0.1,0.2,0.2,0.4,0.3,0.6c0.3,0.4,0.6,0.9,1,1.3c0.4,0.4,0.9,0.8,1.4,1.2c1,0.8,2,1.5,2.8,2
		C99.7,257.7,100.2,258,100.2,258z"/>
	<path fill="#424242" d="M98,248L98,248c-0.1,0-0.1,0.1-0.3,0.3c-0.1,0.2-0.2,0.5-0.4,0.9c-0.1,0.4-0.1,0.9-0.1,1.4
		c0.1,0.5,0.2,1,0.4,1.5c0.7,2.1,2.1,3.7,2.1,3.7l0.1,0c0,0-0.3-0.4-0.6-1.2c-0.3-0.7-0.7-1.7-1-2.7c-0.2-1-0.3-2-0.3-2.7
		c0-0.4,0-0.7,0-0.9C98,248.1,98,248,98,248z"/>
	<path fill="#424242" d="M110.1,286.5L110.1,286.5c-0.1,0,0,0.5-0.1,1.2c0,0.4-0.1,0.8-0.2,1.2c-0.1,0.4-0.2,0.9-0.3,1.4
		c-0.2,0.5-0.3,0.9-0.5,1.3c-0.2,0.4-0.2,0.8-0.4,1.2c-0.3,0.7-0.4,1.2-0.4,1.2l0.1,0c0,0,0.4-0.3,0.8-1c0.2-0.3,0.4-0.7,0.6-1.2
		c0.2-0.4,0.2-1,0.3-1.5c0.1-0.5,0.1-1,0.2-1.5c0-0.5,0-0.9,0-1.3C110.2,287,110.1,286.5,110.1,286.5z"/>
	<path fill="#424242" d="M114.8,291.5c-0.1-0.2-0.2-0.4-0.4-0.6c-0.1-0.2-0.3-0.4-0.4-0.7c-0.3-0.5-0.7-1-1-1.5
		c-0.6-1.1-1.2-2.2-1.6-3c-0.4-0.8-0.7-1.4-0.7-1.4l-0.1,0c0,0,0.2,0.6,0.5,1.5c0.3,0.9,0.8,2,1.3,3.2c0.3,0.6,0.6,1.1,0.9,1.7
		c0.3,0.5,0.7,0.9,1,1.3c0.1,0.2,0.4,0.3,0.5,0.4c0.2,0.1,0.3,0.2,0.4,0.3c0.2,0.2,0.4,0.2,0.4,0.2l0-0.1c0,0-0.1-0.1-0.2-0.4
		C115.3,292.2,115,291.9,114.8,291.5z"/>
	<path fill="#424242" d="M119.6,288.7c-0.2,0-0.5-0.1-0.9-0.2c-0.7-0.2-1.7-0.5-2.6-1c-0.9-0.5-1.7-1.1-2.4-1.6
		c-0.6-0.5-1-0.9-1-0.9l-0.1,0c0,0,1.3,1.7,3.1,2.9c0.4,0.3,0.9,0.6,1.4,0.8c0.5,0.2,1,0.2,1.4,0.3c0.4,0,0.8,0,1-0.1
		c0.2-0.1,0.4-0.1,0.4-0.1l0-0.1C119.9,288.8,119.8,288.7,119.6,288.7z"/>
	<path fill="#424242" d="M122.1,214.3l2.4-5l-0.7,0.1c-2.9,0.6-4.2,1.1-6.1,2v-1.2l2.7-1.5c-0.2-0.6-0.4-1.2-0.6-1.7l-2.1,1.2v-1.4
		l-2.9,2.4c0-15.8-17.2-11.5-17.2-1c0-10.5-18.3-14.3-18.3,0.7c0,3.2,0.8,6.1,2,8.9l-0.3,0c-0.4,0.2-0.8,0.4-1.1,0.6
		c-0.1-0.1-0.1-0.2-0.2-0.4l-1.9,0.3v1.4l2.1-0.5c-0.3,0.2-0.6,0.4-0.9,0.6l-0.2,0.1v5.8c-0.3,0.1-0.7,0.3-1,0.4v0.8
		c0.3-0.1,0.7-0.3,1-0.4v4.1l0,1.2l0.6-1.1c0.4-0.6,1.7-2.6,4.7-4.2l0.1,5.7c-2.8,0.8-4.8,1.9-6.4,3.1v0.9c1.1-0.9,2.4-1.8,4.1-2.5
		l-1.5,1.5c0.5,0.4,0.9,0.8,1.4,1.2l2.7-3.6c0,0,0.1,0,0.1,0l0.3-0.1l0-0.4l2.6-3.4c-0.3-0.3-0.5-0.6-0.8-0.8l-1.8,1.8l0-3.8
		c0.4-0.2,0.9-0.4,1.4-0.6c4.9,5.9,10.7,9.5,10.7,9.5s7.9-4.9,13.2-12.7c1.1-0.5,2.2-1,3.1-1.6l0.3,2.7l0.5-0.7
		c0,0,3.9-3.9,11.1-3.9c0.1,0,0.1,0,0.2,0l0.8,0L122.1,214.3z M113.3,219.9l-0.1,0.1c-1,0.6-3.5,1.7-3.5,1.7c-2.8,1.2-6,2-9.9,2
		c-0.8,0-1.7,0-2.5-0.1c-1.1-0.1-2.1-0.2-3.2-0.2c-8.9,0-13.1,3.9-14.7,5.9v-9.1c4.4-2.7,9.8-5.6,17.8-5.6c11.7,0,17.8-4.5,19.6-6.1
		v0.1v1.7v7.3l-0.1,0.1C115.8,218.4,114.6,219.2,113.3,219.9z M114.1,221.8l-0.1-1.5c1.2-0.7,2.3-1.4,3.2-2.1l0.5-0.3v-5.8
		c1.9-0.9,3.1-1.4,5.6-1.9l-2,4.2l3.4,3.7C119.2,218.3,115.5,220.7,114.1,221.8z"/>
	<path fill="#424242" d="M126.1,257.5c-0.9-0.2-1.8-0.3-2.6-0.4c-0.5,0-1-0.1-1.5-0.1c-0.2,0-0.4,0-0.6,0c0.4-0.4,0.9-0.8,1.4-1.2
		c0.7,0.1,1.6,0.3,2.4,0.4c0.4,0.1,0.8,0.1,1.2,0.2v-0.4c-0.3-0.1-0.7-0.3-1.1-0.4c-0.4-0.1-0.8-0.3-1.3-0.4l-0.4-0.1
		c0.2-0.1,0.4-0.3,0.6-0.4l0.1,0c0.7,0,1.4,0,2-0.1v-0.6c-0.3,0-0.6,0-0.9,0c0.2-0.1,0.3-0.2,0.5-0.2c0.1-0.1,0.3-0.1,0.4-0.2v-0.5
		c-0.2,0.1-0.4,0.1-0.6,0.2c-0.2,0.1-0.4,0.2-0.5,0.3c0.1-0.1,0.2-0.2,0.3-0.3c0.3-0.3,0.6-0.6,0.8-0.9v-0.7c0,0-0.1,0.1-0.1,0.1
		c-0.4,0.3-0.8,0.7-1.2,1.1c-0.2,0.2-0.4,0.4-0.6,0.6c-0.2,0.2-0.3,0.4-0.5,0.7l0,0.1c-0.2,0.1-0.5,0.3-0.7,0.4
		c0.4-1.1,0.8-2.3,1-3.4c0.7-0.3,1.4-0.6,2.1-0.7V250c-2.5,0.6-5.2,2-7.7,5c-0.4,0.4-0.7,0.9-1,1.3c0.1-0.4,0.1-0.9,0.1-1.3
		c-0.1-1.6-1.1-3-2.9-4.1c-2.7-1.6-5.6,0.8-6.5,1.5c-0.7-0.6-2.8-1.8-5.3-0.2c-1.2,0.8-1.4,2.9-0.4,6.2c-0.2,0.5-0.2,0.9-0.2,1.3
		c-1.2-0.3-3-0.5-4-0.3c-4,0.7-7.2,8.3-7.4,8.6l-0.2,0.4l0.4,0.1c0.7,0.1,2.7,0.8,3.1,1.9c0.2,0.6,0.6,1.1,1,1.5
		c-1.1,0.2-2.2,0.5-3.5,0.9c-1.1,0.4-2.1,1-3,1.6c-0.1,0-0.2,0-0.3,0c0.1,0,0.1,0,0.2,0.1c-5.6,4.5-5.9,13.9-5.9,14l0,1.1l0.6-0.9
		c0,0,3-4,9.7-8.6c-0.2,0.3-0.3,0.7-0.5,1.1c-3.5,10.6,7.2,16.6,7.3,16.6l1.1,0.6l-0.6-1.1c0,0-2.9-5.1-0.9-12.1
		c0.1-0.3,0.3-0.8,0.5-1.5c0.3-1,0.7-2.1,0.8-2.7c0.2,0,0.5,0.1,0.7,0.2c0.4,0.6,2.8,3.7,4.8,3.7c0.1,0,0.3,0,0.4,0
		c1.6-0.4,2.9-1.4,3.9-2.9c0.9,0.9,2,1.5,3.2,1.8c0.3,0.1,0.7,0.1,1,0.1c0.6,0,1.1-0.2,1.5-0.5c1.1-0.9,1.3-2.8,1.3-3.8
		c0.9,0.4,2.6,1.1,4.2,0.5c1.1-0.4,2-1.4,2.4-2.9c1.1-3.4-1.9-5.5-3.5-6.5c1.9-1,3.7-2.4,4.6-4.1c1.1-2,0.9-4-0.5-6l-0.9-0.9
		c0.1,0.1,0.2,0.1,0.2,0.1c0.1,0,0.2,0,0.2-0.1c0.3-0.3,0.6-0.6,0.9-0.9c0.3-0.3,0.6-0.6,0.9-1v-1
		C126.3,257.3,126.2,257.4,126.1,257.5z M124.2,251.5c-0.7,1.3-1.3,2.5-1.8,3.9l-0.1,0.2c-0.5,0.3-0.9,0.7-1.4,1
		c0.2-1.1,0.3-2.1,0.3-3.2C122.3,252.6,123.2,251.9,124.2,251.5z M118.5,256.4c0.2-0.3,0.4-0.6,0.7-0.9c0.6-0.8,1.3-1.4,1.9-2
		c-0.2,0.5-0.3,1.1-0.4,1.6c-0.2,0.7-0.4,1.4-0.5,2.1c-0.3,0.3-0.6,0.5-0.8,0.8c-0.3,0.3-0.6,0.6-0.9,0.9c0-0.3,0.1-0.6,0.1-0.9
		C118.5,257.5,118.5,256.9,118.5,256.4z M118.3,256.5c-0.1,0.5-0.2,1-0.3,1.5c-0.1,0.6-0.3,1.3-0.4,1.9c0,0,0,0-0.1,0.1
		c0,0,0,0.1-0.1,0.1c-0.9,0.3-1.7,0.7-2.5,1.1c0.8-0.9,1.5-1.9,2-3c0.1,0,0.2-0.1,0.3-0.2C117.6,257.6,117.9,257.1,118.3,256.5z
		 M102.8,260.5l0.6,0.1l-0.2-0.5c0,0-0.3-1,0.1-1.6c0.2-0.4,0.7-0.6,1.2-0.7c1.2-0.2,2.4,0.2,3.3,0.9l0.4-0.5
		c-1.1-0.9-2.4-1.2-3.8-1.1c-0.6,0.1-1,0.3-1.4,0.6c-0.7-2.6-0.6-4.3,0.3-4.8c2.7-1.7,4.6,0.3,4.7,0.3l0.3,0.3l0.3-0.3
		c0,0,3.1-3.3,5.8-1.7c1.6,0.9,2.5,2.1,2.6,3.5c0.2,3-3,6.3-4.5,7.7c-0.3-0.3-0.7-0.5-1-0.7c-0.5-0.3-0.7-2.6-0.6-4.7l0-0.7
		l-0.6,0.4c-0.2,0.1-4.2,2.7-4.8,5.8c-1.2,0.5-2.4,1.1-3.6,2c-0.5-0.4-0.9-0.9-1.1-1.6c-0.3-1.1-0.3-1.8,0.1-2.2
		C101.6,260.2,102.8,260.5,102.8,260.5z M110.8,262.2c-0.5-0.1-1.1-0.2-1.7-0.2c-0.9,0-1.8,0.2-2.8,0.5c0.6-2,2.7-3.8,3.8-4.5
		C110.1,259.2,110.2,261.3,110.8,262.2z M109.2,262.8c1,0,1.8,0.2,2.6,0.6c0,0,0,0,0,0l0.5,0.5c0,0,0.1-0.1,0.2-0.2
		c0.8,0.5,1.5,1.3,2.1,2.2c1,1.6,1,3.5,0,5.2c-1.1,2-3.4,3.3-5.4,3.3c-2.3,0-3.8-1.6-4.4-4.7c-0.7-1.9-2-3.1-3.8-3.4
		c0.3-0.3,0.6-0.5,1-0.8c0,0,0,0,0,0l0,0C104.4,263.8,106.9,262.8,109.2,262.8z M95.1,270.2c-0.5-1.4-2.4-2-3.2-2.3
		c0.7-1.5,3.6-7.3,6.7-7.8c0.6-0.1,1.4-0.1,2.3,0c-0.1,0.1-0.3,0.2-0.4,0.3c-0.6,0.6-0.7,1.6-0.3,2.9c0.2,0.8,0.6,1.4,1.1,1.9
		c-0.5,0.4-1,0.8-1.4,1.2l-0.6,0.6l0.8,0c1.9,0.1,3.2,1,4,2.9c0.1,0.5,0.2,1,0.4,1.5c-1,1-2.2,1.6-3.5,1.8
		C99,273.6,95.9,272.3,95.1,270.2z M96,272.6C96.1,272.6,96.1,272.6,96,272.6c0.7,0.4,1.3,0.8,2,1c0,0,0,0.1-0.1,0.1
		c-0.2,0-0.4-0.1-0.7-0.1c0,0-0.1,0-0.1,0l-0.4-0.1c-1.2-0.2-2.5-0.3-3.7-0.3C94.2,272.9,95.1,272.7,96,272.6z M97.8,274
		c-0.9,1.3-1.4,2.5-1.6,3.6c0,0,0,0,0,0c-0.1,0-0.1,0-0.2,0c0,0,0,0,0,0c0,0,0,0-0.1,0l0,0c-0.3,0.1-0.8,0.2-1.4,0.9
		c0.4-0.6,0.7-1.2,1.1-1.8l1.4-2.5c0.1,0,0.3-0.1,0.4-0.1C97.5,274.1,97.7,274,97.8,274z M92.2,273.6c0.3-0.1,0.6-0.2,0.9-0.3
		c0.8,0.3,1.5,0.5,2.3,0.7c-0.2,0.1-0.4,0.1-0.6,0.2c-0.6,0.2-1.2,0.4-1.9,0.8c-0.9-0.1-1.8-0.2-2.7-0.3
		C90.7,274.2,91.4,273.8,92.2,273.6z M89.7,274.9c0.4,0.1,0.7,0.2,1.1,0.3c0.4,0.1,0.7,0.2,1.1,0.2c-0.2,0.1-0.4,0.2-0.5,0.3
		c-0.4,0.3-0.8,0.6-1.2,0.9c-0.4,0.1-0.8,0.2-1.2,0.3c-0.4,0.2-0.8,0.4-1.1,0.6c-0.4,0.3-0.9,0.5-1.3,0.8
		C87.4,277,88.4,275.8,89.7,274.9z M86.4,278.7c0.6-0.2,1.1-0.5,1.7-0.7c0.3-0.1,0.6-0.2,0.9-0.3c-0.3,0.3-0.5,0.5-0.8,0.8
		c-0.5,0.6-0.9,1.1-1.3,1.7c0,0.1-0.1,0.1-0.1,0.2c-0.3,0.1-0.5,0.2-0.7,0.3c-0.3,0.1-0.6,0.3-0.8,0.5
		C85.5,280.3,85.9,279.5,86.4,278.7z M85.1,281.4c0.1,0,0.2-0.1,0.3-0.1c0.3-0.1,0.5-0.2,0.8-0.3c0.1,0,0.1,0,0.2,0
		c-0.2,0.3-0.3,0.6-0.5,0.9c-0.3,0.6-0.6,1.2-0.8,1.7c-0.2,0.6-0.5,1.1-0.6,1.6c-0.2,0.6-0.4,1.1-0.5,1.6
		C84,285.5,84.4,283.5,85.1,281.4z M86,285.3c-1,1-1.7,1.7-2.2,2.3c0,0,0-0.1,0-0.1c0.2-0.6,0.5-1.3,0.8-2.1
		c0.5-1.3,1.3-2.9,2.3-4.4c0,0,0,0,0.1,0c0.1,0,0.2,0,0.3,0c-0.3,0.8-0.6,1.5-0.8,2.3C86.3,283.8,86.1,284.5,86,285.3z M86.4,284.9
		c0.2-0.5,0.5-1,0.7-1.6c0.4-0.9,0.7-1.8,0.9-2.7l0.1-0.3l-0.3-0.1c-0.1,0-0.2,0-0.3,0l-0.2,0c0.4-0.5,0.8-1,1.2-1.5
		c0.4-0.4,0.8-0.8,1.2-1.2c-0.2,0.8-0.4,1.6-0.5,2.4c-0.2,1-0.4,1.9-0.5,2.9C87.8,283.6,87.1,284.3,86.4,284.9z M92.3,280.1
		c-1.3,0.9-2.5,1.8-3.5,2.6c0.4-0.9,0.6-1.8,0.9-2.7c0.3-1,0.6-2,0.9-3.1l0-0.1c0.3-0.2,0.7-0.5,1-0.7c0.3-0.2,0.6-0.3,0.8-0.4
		c-0.1,0.3-0.1,0.5-0.2,0.7c-0.1,0.5-0.1,0.9-0.1,1.4C92.2,278.6,92.2,279.4,92.3,280.1z M92.4,280c0.1-0.7,0.3-1.4,0.4-2.2
		c0.1-0.4,0.2-0.9,0.2-1.3c0.1-0.4,0.2-0.9,0.4-1.2l0.1-0.1c0.5-0.2,1-0.4,1.5-0.5c0.4-0.1,0.8-0.2,1.1-0.3c-0.4,0.7-0.7,1.3-1,2
		c-0.3,0.8-0.6,1.6-0.9,2.3c-0.1,0.1-0.3,0.2-0.4,0.3C93.2,279.4,92.8,279.7,92.4,280z M93.5,281.5c0.5-1.1,0.9-1.8,1.3-2.3
		c0.5-0.3,0.9-0.6,1.3-0.9c0,0.3,0,0.7,0.1,1c-0.1,0.2-0.2,0.5-0.3,0.8c-0.1,0.2-0.1,0.4-0.2,0.6c-1,1-1.9,2-2.7,3
		C93.1,283,93.3,282.3,93.5,281.5z M98.3,290.7c-0.3-0.6-0.6-1.2-0.9-1.8c-0.5-1-1.1-1.9-1.6-2.8c0-0.2,0-0.4,0-0.6
		c0,0.1,0.1,0.1,0.1,0.2c0.3,0.3,0.6,0.6,0.9,0.9c0.5,0.4,1,0.9,1.6,1.3C98.3,288.9,98.3,289.8,98.3,290.7z M98.4,292.4
		c-0.1-0.2-0.2-0.3-0.3-0.5c-0.4-0.7-0.9-1.3-1.5-1.9l-0.3-0.3c-0.1-0.4-0.3-0.9-0.3-1.3c0-0.2-0.1-0.5-0.1-0.7c0.3,0.5,0.6,1,1,1.5
		c0.5,0.7,0.9,1.3,1.4,2C98.3,291.6,98.4,292,98.4,292.4z M93,283.9c0.5-0.4,1-0.8,1.5-1.3c0.3-0.3,0.6-0.5,0.9-0.8
		c-0.1,0.3-0.1,0.7-0.2,1.1c0,0.3-0.1,0.6-0.1,0.9c0,0.1,0,0.3,0,0.4c-0.7,0.9-1.4,1.9-2.1,2.9C92.8,286.1,92.8,285,93,283.9z
		 M93,287.3c0.7-0.6,1.4-1.3,2.1-2c0,0.3,0,0.5,0,0.8c-0.1,0.2-0.2,0.4-0.3,0.6c-0.1,0.2-0.1,0.5-0.2,0.7c-0.1,0.5-0.2,0.9-0.2,1.4
		c-0.1,0.7-0.1,1.4-0.1,2.1C93.6,289.7,93.2,288.5,93,287.3z M95.7,293.2c-0.6-0.7-1-1.4-1.4-2.1c0.2-0.7,0.4-1.5,0.5-2.2
		c0.1-0.4,0.2-0.9,0.4-1.3c0-0.1,0-0.1,0.1-0.2c0.1,0.4,0.1,0.8,0.2,1.2c0.1,0.6,0.4,1.2,0.6,1.9c0,0,0,0,0,0
		c-0.1,0.7-0.1,1.3-0.1,2c0,0.4,0.1,0.7,0.2,1.1c0,0.1,0,0.1,0,0.2C96,293.5,95.8,293.3,95.7,293.2z M99.5,296.7
		c-0.8-0.6-2-1.5-3.1-2.8c0-0.2,0-0.3,0-0.5c0-0.4,0-0.7,0-1.1c0-0.3,0.1-0.5,0.1-0.8c0.1,0.2,0.2,0.4,0.3,0.5
		c0.3,0.5,0.6,1.1,0.8,1.6c0.3,0.5,0.5,1,0.8,1.3c0.4,0.5,0.8,1,1,1.4C99.4,296.5,99.4,296.6,99.5,296.7z M99.2,295.8
		c-0.2-0.3-0.4-0.6-0.6-0.9c-0.3-0.4-0.5-0.9-0.7-1.4c-0.2-0.5-0.5-1-0.7-1.6c-0.1-0.2-0.2-0.5-0.3-0.8l0.8,1
		c0.2,0.3,0.5,0.6,0.7,0.9c0.1,0.1,0.1,0.2,0.2,0.3C98.7,294.4,98.9,295.2,99.2,295.8z M99,285.2c-0.2,0.9-0.4,1.7-0.5,2.5
		c-0.4-0.5-0.8-1-1.2-1.5c-0.3-0.3-0.6-0.6-0.9-1c-0.2-0.3-0.4-0.5-0.6-0.8c0-0.2,0-0.4,0-0.6c0-0.3,0.1-0.6,0.1-0.8
		c0.1-0.5,0.1-1.1,0.2-1.5c0,0,0-0.1,0-0.1c0.2,0.2,0.3,0.5,0.5,0.7c0.3,0.3,0.6,0.7,0.9,1c0.6,0.6,1.1,1.1,1.8,1.6
		C99.1,284.8,99,285,99,285.2z M99.5,283.7c-0.1,0.3-0.2,0.6-0.3,0.9c-0.4-0.7-0.9-1.3-1.3-1.9l-0.8-1c-0.2-0.3-0.5-0.7-0.7-1
		l-0.2-0.3c0,0,0-0.1,0-0.1c0-0.1,0-0.2,0.1-0.3c0.7,1.9,2.1,1.6,3.2,1.4c0.2,0,0.5-0.1,0.7-0.1C100.1,281.8,99.7,282.8,99.5,283.7z
		 M110.3,281.7L110.3,281.7C110.3,281.7,110.3,281.7,110.3,281.7c-0.9,1.3-2.1,2.3-3.6,2.7c-1.4,0.3-3.8-2.4-4.6-3.5l-0.1-0.1
		c-0.9-0.6-1.9-0.4-2.7-0.2c-1.2,0.2-2,0.4-2.5-1.3c-0.5-1.6,0.7-3.8,1.9-5.5c0.5,0.1,1,0.2,1.5,0.2c0.3,0,0.5,0,0.8-0.1
		c1.4-0.2,2.7-0.9,3.7-1.8c0.9,1.9,2.4,3,4.4,3c1.1,0,2.2-0.3,3.2-0.9C112.3,276.5,111.7,279.5,110.3,281.7z M123.7,277.3
		c-0.4,1.3-1.1,2.1-2,2.4c-1.8,0.7-4.1-0.7-4.2-0.8l-0.6-0.4l0.1,0.7c0.1,0.8,0,3-1,3.8c-0.5,0.4-1.1,0.5-1.9,0.2
		c-1.1-0.3-2.1-0.9-3-1.7c1.3-2.2,1.9-5.1,1.9-7.9c0.6-0.4,1.2-1,1.6-1.6l0,0.2l0.5,0c0.2,0,0.3,0,0.5,0c1.4,0,3-0.4,4.5-1l0,0
		C122.3,272.7,124.6,274.4,123.7,277.3z M124.4,261.4c1.3,1.7,1.4,3.4,0.5,5.2c-1.7,3.2-6.5,5.3-9.7,5.1l-0.2,0
		c0-0.1,0.1-0.1,0.1-0.2c1.1-1.9,1.1-4,0-5.9c-0.6-1-1.3-1.8-2.2-2.4c0,0,0,0,0,0c1-0.8,2.6-1.6,4.2-2.2c0,0,0,0.1,0,0.1
		c0,0,0,0,0.1,0c0,0,0.1,0,0.3-0.1c0.1-0.1,0.2-0.2,0.4-0.3c0.3-0.1,0.6-0.2,0.9-0.3l2.4-0.3c0.3,0,0.6-0.1,0.9-0.1
		c0.5,0.1,1,0.2,1.2,0.5L124.4,261.4z M124.1,260.1L124,260c-0.1-0.1-0.2-0.2-0.3-0.3c0.2,0,0.3-0.1,0.5-0.1c0,0,0,0,0,0
		C123.9,259.7,123.9,260,124.1,260.1z M124.9,258.7c-0.3,0.3-0.5,0.5-0.7,0.8c-0.4,0-0.7,0-1.1,0c-0.4-0.2-0.9-0.3-1.5-0.3h0
		c-0.9,0-1.9,0.2-2.9,0.5c0.3-0.3,0.6-0.7,1-1.2c0.2-0.3,0.5-0.5,0.8-0.8c0.9-0.1,1.9,0,2.9-0.1c0.8,0,1.7,0,2.6-0.1
		C125.7,257.9,125.3,258.3,124.9,258.7z"/>
	<path fill="#424242" d="M125.6,272.4L125.6,272.4c0,0.1,0.3,0.2,0.8,0.6v-0.2C125.9,272.5,125.6,272.4,125.6,272.4z"/>
	<path fill="#424242" d="M125.4,270.9c-0.9,0-1.6-0.1-1.6-0.1l0,0.1c0,0,0.6,0.1,1.5,0.3c0.3,0,0.6,0.1,1,0.1v-0.4
		C126,270.9,125.7,270.9,125.4,270.9z"/>
	<path fill="#424242" d="M125.6,269.4L125.6,269.4c0,0.1,0.3,0,0.8-0.1v-0.2C125.9,269.3,125.6,269.4,125.6,269.4z"/>
</g>
</svg>
