<?xml version="1.0" encoding="utf-8"?>
<!-- Generator: Adobe Illustrator 18.0.0, SVG Export Plug-In . SVG Version: 6.00 Build 0)  -->
<!DOCTYPE svg PUBLIC "-//W3C//DTD SVG 1.1//EN" "http://www.w3.org/Graphics/SVG/1.1/DTD/svg11.dtd">
<svg version="1.1" id="content" xmlns="http://www.w3.org/2000/svg" xmlns:xlink="http://www.w3.org/1999/xlink" x="0px" y="0px"
	 width="500px" height="500px" viewBox="0 0 500 500" enable-background="new 0 0 500 500" xml:space="preserve">
<rect id="position" display="none" fill="none" stroke="#000000" width="500" height="500"/>
<g>
	<g>
		<g>
			<path fill="#601B06" d="M102.7,462.3c2-0.5,4.5-2.6,4-4.6L71,314.4c-1.9-7.7,0.8-14.4,7.3-17.2s14.7,0.8,16.5,8.4
				c0.5,2,3.8,4.5,5.8,4s4.5-3.8,4-5.8c-2.9-11.7-14.8-18.8-26.4-16c-11.6,2.9-18.8,14.8-16,26.4L98,459.6
				C98.6,461.5,100.7,462.8,102.7,462.3z"/>
		</g>
		<g>
			<polygon fill="#C7A315" points="106,454.3 97.3,456.5 99.2,464.4 108,462.2 			"/>
		</g>
		<g>
			
				<rect x="102.9" y="454.9" transform="matrix(-0.971 0.2389 -0.2389 -0.971 315.0164 879.6611)" fill="#DDC873" width="2.6" height="8.1"/>
		</g>
		<g>
			<path fill="#843928" d="M68.6,312.2c0,0-1.4-6.2,2.5-10.3c-6.1,4.6-5,11-5,11L102,455.5l2.5-0.6L68.6,312.2z"/>
		</g>
	</g>
	<circle fill="#601B06" cx="99.8" cy="304.7" r="5"/>
	<g>
		<path fill="#843928" d="M85.6,289.5c0,0,1.4-0.1,3.5,0.5c0.5,0.1,1.1,0.3,1.7,0.5s1.2,0.5,1.8,0.8c0.6,0.3,1.2,0.6,1.8,1.1
			c0.6,0.4,1.2,0.8,1.7,1.3c0.6,0.4,1.1,1,1.6,1.5s0.9,1.1,1.4,1.6c0.4,0.5,0.8,1.1,1.1,1.6c0.4,0.5,0.6,1,0.8,1.5
			c0.2,0.5,0.5,0.9,0.6,1.3s0.3,0.8,0.4,1.1c0.2,0.6,0.3,0.9,0.3,0.9s-0.2-0.3-0.6-0.8c-0.2-0.3-0.4-0.6-0.6-0.9
			c-0.2-0.4-0.5-0.7-0.8-1.1s-0.6-0.9-1-1.3s-0.8-0.9-1.2-1.4c-0.4-0.5-0.9-0.9-1.4-1.4c-0.5-0.4-1-0.9-1.5-1.3s-1-0.9-1.6-1.2
			c-0.3-0.2-0.5-0.4-0.8-0.6s-0.6-0.3-0.8-0.5c-0.5-0.3-1.1-0.6-1.6-0.9s-1-0.5-1.5-0.7C87,290,85.6,289.5,85.6,289.5z"/>
	</g>
</g>
<g id="bounds">
    <rect x="-27.2" y="264.9" display="none" fill="none" stroke="#000000" stroke-width="1.0476" width="221.1" height="221.1"/>
</g>
</svg>
