<?xml version="1.0" encoding="utf-8"?>
<!-- Generator: Adobe Illustrator 18.0.0, SVG Export Plug-In . SVG Version: 6.00 Build 0)  -->
<!DOCTYPE svg PUBLIC "-//W3C//DTD SVG 1.1//EN" "http://www.w3.org/Graphics/SVG/1.1/DTD/svg11.dtd">
<svg version="1.1" id="content" xmlns="http://www.w3.org/2000/svg" xmlns:xlink="http://www.w3.org/1999/xlink" x="0px" y="0px"
	 width="500px" height="500px" viewBox="0 0 500 500" enable-background="new 0 0 500 500" xml:space="preserve">
<rect id="position" display="none" fill="none" stroke="#000000" width="500" height="500"/>
<g>
	<g>
		<path fill="#00AEC3" d="M101.9,307.1c-0.7,1.1-1.5,1.9-2.7,2.6c-3.4,1.8-7.5,0.5-9.2-2.9L1,138.4c-1.8-3.4-0.5-7.5,2.9-9.2
			c3.4-1.8,7.5-0.5,9.2,2.9l89,168.4C103.2,302.6,103,305.2,101.9,307.1z"/>
	</g>
	<g>
		<path fill="#66CEDB" d="M98,304.7c-0.3,0.4-0.5,0.7-1,0.8c-1.1,0.5-2.4,0.1-3.1-1L5,136.2c-0.5-1.1-0.1-2.4,1-3.1
			c1.1-0.5,2.4-0.1,3.1,1l89,168.4C98.4,303.3,98.4,304.1,98,304.7z"/>
	</g>
	<g>
		
			<rect x="84.7" y="297.2" transform="matrix(0.8841 -0.4673 0.4673 0.8841 -130.151 79.5536)" fill="#90A4AE" width="21.3" height="9.9"/>
	</g>
	<g>
		
			<rect x="97" y="304.3" transform="matrix(0.8841 -0.4673 0.4673 0.8841 -136.4318 85.1246)" fill="#6C7B83" width="12.8" height="26.6"/>
	</g>
	<g>
		
			<rect x="100.2" y="326.7" transform="matrix(0.8841 -0.4673 0.4673 0.8841 -142.1519 90.247)" fill="#90A4AE" width="21.3" height="9.9"/>
	</g>
</g>
<g id="bounds">
    <rect x="-69.4" y="103.6" display="none" fill="none" stroke="#000000" stroke-width="1.0476" width="261.5" height="261.5"/>
</g>
</svg>
