<?xml version="1.0" encoding="utf-8"?>
<!-- Generator: Adobe Illustrator 16.0.0, SVG Export Plug-In . SVG Version: 6.00 Build 0)  -->
<!DOCTYPE svg PUBLIC "-//W3C//DTD SVG 1.1//EN" "http://www.w3.org/Graphics/SVG/1.1/DTD/svg11.dtd">
<svg version="1.1" id="content" xmlns="http://www.w3.org/2000/svg" xmlns:xlink="http://www.w3.org/1999/xlink" x="0px" y="0px"
	 width="500px" height="500px" viewBox="0 0 500 500" enable-background="new 0 0 500 500" xml:space="preserve">
<g id="bounds" display="none">
	<rect x="25.7" y="230.4" display="inline" fill="none" stroke="#000000" stroke-width="1.0476" width="168.1" height="174"/>
</g>
<rect id="position" display="none" fill="none" stroke="#000000" width="500" height="500"/>
<g>
	<path fill="#5D4037" d="M157.4,294.8c0,0-0.2-0.5-0.4-1.1c-0.3-0.5-0.9-1.2-0.9-1.2l0,0c-3.1-3.7-11.2-6.4-21.4-6.8
		c-1.4-0.101-2,1-3.5,1c-1.6,0-4-1-5.6-0.8c-10.1,0.899-21.4,3.899-31.9,10c-9.9,5.8-17.8,13.6-23.4,21.5c-1.4,2-1.1,6.6-2.2,8.5
		c-1,1.8-3.6,0.899-4.4,2.6c-4.1,8.7-5.3,16.5-3.4,20.6c0,0,0.1,0.5,0.5,1.101c0.3,0.5,0.6,0.8,0.6,0.8c3.1,4.1,12.3,7.1,23.9,7.3
		c2,0,2.5-1.399,4.7-1.6c1.7-0.101,5.1,1.1,6.9,0.8c8.8-1.3,18.3-4.3,27.2-9.5c9.1-5.3,16.4-12.2,21.9-19.4
		c1.5-1.899,1.8-5.899,3-7.8c0.9-1.5,2.9-1,3.6-2.5C157.8,308.4,159.4,299.3,157.4,294.8z"/>
	<g>
		<g>
			<path fill="#D7CCC8" d="M84,308.9c-0.2,0-0.5-0.101-0.6-0.301l-2.2-3.8c-0.2-0.3-0.1-0.7,0.2-0.899c0.3-0.2,0.7-0.101,0.9,0.199
				l2.2,3.801c0.2,0.3,0.1,0.699-0.2,0.899C84.3,308.9,84.1,308.9,84,308.9z"/>
		</g>
		<g>
			<path fill="#D7CCC8" d="M109.1,294.3c-0.2,0-0.5-0.1-0.6-0.3l-2.2-3.8c-0.2-0.3-0.1-0.7,0.2-0.9s0.7-0.1,0.9,0.2l2.2,3.8
				c0.2,0.3,0.1,0.7-0.2,0.9C109.3,294.3,109.2,294.3,109.1,294.3z"/>
		</g>
	</g>
	<g>
		<g>
			<path fill="#D7CCC8" d="M77.8,312.6c-0.2,0-0.5-0.1-0.6-0.3l-1.5-2.6c-0.2-0.3-0.1-0.7,0.2-0.9c0.3-0.2,0.7-0.1,0.9,0.2l1.5,2.6
				c0.2,0.301,0.1,0.7-0.2,0.9C78,312.6,77.9,312.6,77.8,312.6z"/>
		</g>
		<g>
			<path fill="#D7CCC8" d="M102.8,298c-0.2,0-0.5-0.1-0.6-0.3l-2.6-4.4c-0.2-0.3-0.1-0.7,0.2-0.899c0.3-0.2,0.7-0.101,0.9,0.199
				l2.6,4.4c0.2,0.3,0.1,0.7-0.2,0.9C103,297.9,102.9,298,102.8,298z"/>
		</g>
	</g>
	<g>
		<g>
			<path fill="#D7CCC8" d="M90.3,305.3c-0.2,0-0.5-0.1-0.6-0.3l-2.6-4.4c-0.2-0.3-0.1-0.699,0.2-0.899c0.3-0.2,0.7-0.101,0.9,0.2
				l2.6,4.399c0.2,0.3,0.1,0.7-0.2,0.9C90.5,305.2,90.4,305.3,90.3,305.3z"/>
		</g>
		<g>
			<path fill="#D7CCC8" d="M115.3,290.6c-0.2,0-0.5-0.1-0.6-0.3l-1.5-2.6c-0.2-0.3-0.1-0.7,0.2-0.9c0.3-0.2,0.7-0.1,0.9,0.2l1.5,2.6
				c0.2,0.301,0.1,0.7-0.2,0.9C115.6,290.6,115.4,290.6,115.3,290.6z"/>
		</g>
	</g>
	<g>
		<g>
			<path fill="#D7CCC8" d="M96.5,301.6c-0.2,0-0.5-0.1-0.6-0.3l-3-5.1c-0.2-0.3-0.1-0.7,0.2-0.9c0.3-0.2,0.7-0.1,0.9,0.2l3,5.1
				c0.2,0.301,0.1,0.7-0.2,0.9C96.8,301.6,96.7,301.6,96.5,301.6z"/>
		</g>
	</g>
	<path fill="#F4D5B8" d="M134.7,285.7c-2.9-0.101-5.9-0.101-9.1,0.2c12.2,5.899,18.1,30,20.3,42.699c2.6-3.399,4.8-6.899,6.6-10.3
		C147.9,291.6,138.3,286.6,134.7,285.7z"/>
	<path fill="#F4D5B8" d="M70.2,317.3c-2.7,3.8-4.9,7.5-6.6,11.2c3.3,14.8,16.7,26.1,21.7,29.8c3.7,0,7.5-0.2,11.6-0.8
		C76.7,343.6,70.8,327.2,70.2,317.3z"/>
	<path opacity="0.2" fill="#4C231A" enable-background="new    " d="M61.3,351c0.1,0.1,0.7,0.8,0.8,0.9c0.1,0.1,0.2,0.199,0.2,0.199
		l0,0c7.9,7.4,37,10.4,61.7-4.1c25.1-14.7,36.8-42,33.8-52.2l0,0l0,0c0,0-0.3-0.899-0.4-1c-0.1-0.399-15.8,25.101-40.1,39.4
		C93,348.5,61.3,351,61.3,351z"/>
</g>
</svg>
