<?xml version="1.0" encoding="utf-8"?>
<!-- Generator: Adobe Illustrator 16.0.0, SVG Export Plug-In . SVG Version: 6.00 Build 0)  -->
<!DOCTYPE svg PUBLIC "-//W3C//DTD SVG 1.1//EN" "http://www.w3.org/Graphics/SVG/1.1/DTD/svg11.dtd">
<svg version="1.1" id="content" xmlns="http://www.w3.org/2000/svg" xmlns:xlink="http://www.w3.org/1999/xlink" x="0px" y="0px"
	 width="500px" height="500px" viewBox="0 0 500 500" enable-background="new 0 0 500 500" xml:space="preserve">
<g id="bounds">
	<rect x="-33" y="247.7" fill="none" stroke="#000000" stroke-width="1.2441" width="204.5" height="222.5"/>
</g>
<rect id="position" display="none" fill="none" stroke="#000000" width="500" height="500"/>
<path fill="#BBBBCC" d="M84.754,382.567l-1.886,3.642l-5.421-2.807l4.329-8.359l1.963,1.016c-0.184-0.714-0.392-1.404-0.614-2.08
	l-0.629-0.326l0.312-0.601c-0.24-0.654-0.503-1.286-0.779-1.9l-0.922,1.781l-5.42-2.807l2.591-5.005
	c-0.363-0.431-0.734-0.851-1.117-1.244l-2.864,5.529l-5.421-2.807l3.331-6.431l-1.39-0.72l-3.33,6.43l-5.42-2.807l2.805-5.416
	c-0.548-0.077-1.106-0.135-1.672-0.175l-2.522,4.872l-5.42-2.807l0.803-1.552c-0.666,0.138-1.337,0.297-2.016,0.489l-0.177,0.343
	l-0.352-0.182c-0.682,0.206-1.368,0.435-2.058,0.696l1.689,0.875l-4.329,8.36l-5.42-2.807l1.667-3.22
	c-0.915,0.577-1.83,1.209-2.742,1.893l-0.314,0.607l-0.284-0.146c-0.445,0.345-0.89,0.699-1.334,1.071l0.898,0.466l-4.329,8.359
	l-3.475-1.8c-0.333,0.406-0.665,0.824-0.996,1.247l3.751,1.942l-4.328,8.358l-4.749-2.459c-0.263,0.446-0.525,0.897-0.785,1.357
	l4.814,2.492l-4.329,8.359l-4.562-2.362c-0.188,0.497-0.377,0.994-0.543,1.481l4.385,2.271l-4.328,8.357l-2.046-1.059
	c-0.041,0.583-0.065,1.158-0.074,1.723l1.401,0.726l-1.288,2.486c0.082,0.929,0.197,1.836,0.357,2.713l2.32-4.479l5.42,2.807
	l-4.33,8.36l-1.717-0.89c0.569,1.384,1.224,2.673,1.937,3.868l0.451-0.87l5.42,2.808l-1.775,3.427
	c0.39,0.405,0.779,0.785,1.168,1.148l1.997-3.855l5.42,2.807l-2.42,4.672l1.391,0.721l2.42-4.673l5.421,2.807l-2.027,3.915
	c0.516,0.113,1.054,0.212,1.607,0.298l1.809-3.493l5.42,2.807l-0.512,0.988c0.611-0.042,1.229-0.102,1.858-0.184l0.044-0.085
	l0.116,0.061c0.83-0.115,1.672-0.259,2.525-0.454l-1.922-0.996l4.33-8.36l5.42,2.808l-2.457,4.743
	c0.793-0.356,1.587-0.75,2.38-1.193l1.466-2.831l1.625,0.842c0.456-0.334,0.913-0.684,1.367-1.054l-2.273-1.177l4.328-8.358
	l4.623,2.394c0.304-0.416,0.601-0.857,0.898-1.297l-4.802-2.486l4.329-8.36l5.055,2.618c0.225-0.478,0.442-0.952,0.655-1.424
	l-4.99-2.584l4.329-8.359l3.993,2.068c0.153-0.516,0.304-1.027,0.443-1.533l-3.717-1.925l4.329-8.359l1.146,0.593
	c0.048-0.577,0.082-1.145,0.107-1.707l-0.533-0.276l0.574-1.108C84.846,384.707,84.822,383.621,84.754,382.567z M28.624,407.573
	l-5.42-2.807l4.328-8.357l5.42,2.807L28.624,407.573z M33.672,397.825l-5.42-2.807l4.329-8.359l5.42,2.807L33.672,397.825z
	 M38.721,388.075l-5.42-2.807l4.329-8.358l5.42,2.807L38.721,388.075z M43.77,378.326l-5.42-2.807l4.329-8.359l5.42,2.807
	L43.77,378.326z M30.385,420.85l-5.42-2.807l4.33-8.361l5.42,2.808L30.385,420.85z M35.434,411.1l-5.42-2.807l4.328-8.357
	l5.42,2.807L35.434,411.1z M40.481,401.352l-5.42-2.807l4.329-8.359l5.42,2.807L40.481,401.352z M45.53,391.602l-5.42-2.807
	l4.329-8.359l5.42,2.808L45.53,391.602z M50.579,381.853l-5.42-2.807l4.329-8.359l5.42,2.807L50.579,381.853z M55.628,372.104
	l-5.42-2.807l4.329-8.36l5.42,2.807L55.628,372.104z M37.194,424.375l-5.42-2.807l4.33-8.359l5.42,2.807L37.194,424.375z
	 M42.243,414.626l-5.42-2.807l4.328-8.358l5.42,2.807L42.243,414.626z M47.291,404.878l-5.42-2.807l4.329-8.36l5.42,2.807
	L47.291,404.878z M52.34,395.128l-5.42-2.807l4.329-8.358l5.42,2.807L52.34,395.128z M57.389,385.379l-5.42-2.807l4.329-8.359
	l5.42,2.807L57.389,385.379z M62.438,375.629l-5.42-2.807l4.329-8.359l5.42,2.807L62.438,375.629z M44.005,427.902l-5.421-2.807
	l4.33-8.36l5.421,2.807L44.005,427.902z M49.054,418.153l-5.421-2.808l4.328-8.357l5.421,2.807L49.054,418.153z M54.103,408.405
	l-5.421-2.808l4.329-8.359l5.421,2.807L54.103,408.405z M59.151,398.655l-5.421-2.808l4.328-8.358l5.421,2.807L59.151,398.655z
	 M64.199,388.906l-5.421-2.808l4.329-8.359l5.421,2.808L64.199,388.906z M69.248,379.156l-5.421-2.807l4.329-8.36l5.421,2.808
	L69.248,379.156z M50.814,431.429l-5.42-2.807l4.33-8.36l5.42,2.807L50.814,431.429z M55.863,421.68l-5.42-2.808l4.328-8.357
	l5.42,2.807L55.863,421.68z M60.911,411.932l-5.42-2.808l4.329-8.359l5.42,2.807L60.911,411.932z M65.96,402.182l-5.42-2.808
	l4.329-8.358l5.42,2.807L65.96,402.182z M71.009,392.432l-5.42-2.807l4.329-8.359l5.42,2.807L71.009,392.432z M76.058,382.683
	l-5.42-2.807l4.329-8.36l5.42,2.807L76.058,382.683z M62.674,425.206l-5.42-2.808l4.328-8.357l5.42,2.807L62.674,425.206z
	 M67.722,415.458l-5.42-2.808l4.329-8.359l5.42,2.807L67.722,415.458z M72.771,405.708l-5.42-2.808l4.328-8.358l5.421,2.808
	L72.771,405.708z M77.819,395.959l-5.421-2.807l4.329-8.359l5.421,2.807L77.819,395.959z"/>
<path fill="#58588C" d="M84.508,374.517c-2.385-11.802,0.216-26.822,1.23-31.787c1.017-4.964,4.542-12.772,4.542-12.772l-5.309-2.75
	c0,0-4.343,7.386-7.81,11.081c-3.467,3.692-14.234,14.486-25.248,19.351c-11.014,4.863-20.954,12.459-28.145,26.346
	c-7.953,15.357-9.086,37.354,10.356,47.421l0.408,0.213c19.522,10.109,36.709-3.472,44.705-18.911
	C86.427,398.82,86.893,386.319,84.508,374.517z M77.323,342.877c2.792-3.387,4.417-4.877,5.262-4.438
	c0.843,0.436,0.565,2.624-0.593,6.856c-1.683,7.588-2.086,18.824-2.086,18.824c-1.688-2.355-3.685-4.237-5.841-5.614l-1.478-0.764
	l-1.478-0.768c-2.365-0.964-5.058-1.509-7.952-1.528C63.158,355.445,72.098,348.633,77.323,342.877z M36.491,429.834l-1.716-0.889
	c-6.698-3.467-21.304-18.073-8.824-42.174c13.408-25.896,32.035-30.857,43.326-26.255l3.186,1.649
	c10.317,6.483,16.973,24.641,3.564,50.536C63.591,436.718,43.189,433.305,36.491,429.834z"/>
<path fill="#E4E4FA" d="M102.246,293.368l5.801,3.003c0.324,0.168,0.441,0.541,0.274,0.867l-17.175,33.167
	c-0.169,0.326-0.541,0.444-0.866,0.273l-5.8-3c-0.329-0.168-0.448-0.541-0.278-0.869l17.173-33.166
	C101.546,293.317,101.919,293.197,102.246,293.368z"/>
<path fill="#E4E4FA" d="M102.819,290.658l7.109,3.682c0.653,0.337,0.888,1.085,0.551,1.735l-1.185,2.289
	c-0.34,0.651-1.085,0.89-1.737,0.551l-7.106-3.683c-0.653-0.335-0.891-1.081-0.552-1.734l1.184-2.287
	C101.378,290.641,102.165,290.32,102.819,290.658z"/>
<rect x="99.451" y="296.916" transform="matrix(0.888 0.4598 -0.4598 0.888 148.7285 -14.1215)" fill="#BBBBCC" width="7.817" height="2.809"/>
</svg>
