<?xml version="1.0" encoding="utf-8"?>
<!-- Generator: Adobe Illustrator 16.0.0, SVG Export Plug-In . SVG Version: 6.00 Build 0)  -->
<!DOCTYPE svg PUBLIC "-//W3C//DTD SVG 1.1//EN" "http://www.w3.org/Graphics/SVG/1.1/DTD/svg11.dtd">
<svg version="1.1" id="content" xmlns="http://www.w3.org/2000/svg" xmlns:xlink="http://www.w3.org/1999/xlink" x="0px" y="0px"
	 width="500px" height="500px" viewBox="0 0 500 500" enable-background="new 0 0 500 500" xml:space="preserve">
<g id="bounds">
	<rect x="-23" y="219.7" fill="none" stroke="#000000" stroke-width="1.2441" width="204.5" height="222.5"/>
</g>
<rect id="position" display="none" fill="none" stroke="#000000" width="500" height="500"/>
<g>
	<g>
		<g>
			
				<rect x="93.344" y="316.889" transform="matrix(0.887 0.4618 -0.4618 0.887 160.8398 -6.6487)" fill="#E9C527" width="1.317" height="16.739"/>
		</g>
		<g>
			
				<rect x="106.333" y="323.655" transform="matrix(0.8867 0.4624 -0.4624 0.8867 165.6587 -11.8441)" fill="#E9C527" width="1.318" height="16.739"/>
		</g>
		<g>
			<path fill="#E9C527" d="M76.565,373.579c-3.23-1.684-4.663-5.138-3.303-7.75l16.571-31.646l3.231,1.684l-16.573,31.646
				c-0.358,0.688,0.348,2.016,1.792,2.768c1.443,0.752,2.936,0.568,3.294-0.118L98.83,337.21l3.23,1.683l-17.252,32.951
				C83.448,374.456,79.831,375.191,76.565,373.579z"/>
		</g>
		<g>
			<path fill="#F6CE19" d="M40.304,401.26l-16.632-8.664c0,0,10.062,3.494,20.966-12.407c13.921-20.184,52.226-89.523,52.226-89.523
				l1.71,3.424c0,0-37.62,74.065-43.817,88.313c-8.935,20.507-0.505,26.296-0.505,26.296L40.304,401.26z"/>
		</g>
		<g>
			<path fill="#E9C527" d="M97.58,289.29c3.222-6.185,10.852-8.589,17.105-5.331c6.254,3.258,8.658,10.889,5.436,17.073
				l-12.744,24.466l-2.713-1.501l12.744-24.466c2.398-4.604,0.588-10.354-4.086-12.787c-4.673-2.435-10.455-0.729-12.889,3.944
				L97.58,289.29z"/>
		</g>
		<g>
			<path opacity="0.5" fill="#AF941D" enable-background="new    " d="M100.684,290.208l3.581-6.873l0.627-0.196
				c0,0-2.327,4.466-2.686,5.153C101.609,288.768,100.684,290.208,100.684,290.208z"/>
			<path fill="#F6CE19" d="M88.254,306.438l20.313-38.071l2.818,1.467l-20.072,38.596L88.254,306.438z"/>
			<path fill="#F6CE19" d="M58.898,371.905c0.567,1.974,2.267,3.698,5.097,5.173c4.879,2.543,8.222,1.662,10.513-2.736l19.265-37.32
				l2.817,1.468l-19.266,37.32c-3.114,5.979-8.337,7.452-14.797,4.087c-3.047-1.587-5.124-3.563-6.191-5.8L58.898,371.905z"/>
		</g>
		<g>
			<path fill="#F6CE19" d="M107.161,323.899l8.162-15.669c0.43-0.823-0.138-2.081-1.307-2.69c-1.168-0.608-2.524-0.353-2.954,0.471
				l-7.875,15.12l-3.024-1.576l7.876-15.119c1.324-2.541,4.734-3.387,7.552-1.919c2.818,1.469,4.081,4.746,2.755,7.29l-8.162,15.668
				L107.161,323.899z"/>
		</g>
		<g>
			<path fill="#F6CE19" d="M117.951,262.594l-6.804-3.544c-0.481-0.251-0.609-0.843-0.395-1.254l0.859-1.649
				c0.25-0.48,0.842-0.609,1.254-0.396l6.804,3.544c0.481,0.252,0.61,0.843,0.395,1.255l-0.859,1.649
				C118.956,262.679,118.363,262.81,117.951,262.594z"/>
		</g>
		<g>
			<path fill="#F6CE19" d="M112.683,268.85l-3.779-1.969c-0.275-0.145-0.374-0.458-0.23-0.732l0.465-0.894
				c0.143-0.275,0.457-0.373,0.732-0.23l3.779,1.97c0.275,0.143,0.374,0.456,0.23,0.731l-0.465,0.893
				C113.272,268.894,112.958,268.993,112.683,268.85z"/>
		</g>
		<g>
			<path fill="#F6CE19" d="M112.571,265.209l-0.619-0.322c-1.443-0.753-2.036-2.635-1.249-4.146l0.859-1.648
				c0.25-0.481,0.878-0.68,1.359-0.428l4.261,2.219c0.48,0.251,0.678,0.878,0.428,1.358l-0.859,1.65
				C115.964,265.403,114.118,265.927,112.571,265.209z"/>
		</g>
		<g>
			<path fill="#F6CE19" d="M111.657,270.148l-3.299-1.718c0,0-0.068-0.036-0.033-0.104l2.72-5.222c0,0,0.036-0.07,0.105-0.034
				l3.299,1.718c0,0,0.068,0.036,0.033,0.104l-2.72,5.224C111.726,270.185,111.657,270.148,111.657,270.148z"/>
		</g>
		<g>
			<path fill="#F6CE19" d="M113.567,331.259c-0.169,0-0.331-0.04-0.48-0.117l-31.203-16.341l2.474-4.747l31.201,16.34
				c0.249,0.129,0.432,0.348,0.517,0.615c0.084,0.269,0.06,0.552-0.069,0.799l-1.503,2.889
				C114.322,331.043,113.963,331.259,113.567,331.259z"/>
		</g>
		<g>
			<path fill="#F6CE19" d="M110.203,337.719c-0.169,0-0.331-0.039-0.48-0.117l-31.203-16.341l2.474-4.747l31.202,16.339
				c0.249,0.129,0.432,0.348,0.516,0.617c0.084,0.269,0.061,0.553-0.068,0.799l-1.503,2.886
				C110.958,337.503,110.599,337.719,110.203,337.719z"/>
		</g>
		<g>
			<path fill="#F6CE19" d="M106.802,344.248c-0.169,0-0.331-0.04-0.48-0.118l-31.204-16.339l2.474-4.749l31.202,16.341
				c0.249,0.129,0.431,0.347,0.516,0.614c0.085,0.269,0.061,0.553-0.068,0.801l-1.503,2.887
				C107.557,344.032,107.198,344.248,106.802,344.248z"/>
		</g>
		<g>
			
				<rect x="76.938" y="312.863" transform="matrix(0.8869 0.462 -0.462 0.8869 154.5032 -3.9452)" fill="#F6CE19" width="16.738" height="1.317"/>
		</g>
		<g>
			
				<rect x="73.609" y="319.254" transform="matrix(0.8869 0.462 -0.462 0.8869 157.0794 -1.6841)" fill="#F6CE19" width="16.738" height="1.317"/>
		</g>
		<g>
			
				<rect x="70.28" y="325.646" transform="matrix(0.8869 0.462 -0.462 0.8869 159.6558 0.5772)" fill="#F6CE19" width="16.738" height="1.317"/>
		</g>
		<g>
			<path fill="#E9C527" d="M78.969,347.327c-2.158-1.126-3.008-3.821-1.884-5.98c1.125-2.158,3.821-3.008,5.98-1.884
				c2.158,1.127,3.008,3.821,1.883,5.98C83.824,347.601,81.128,348.451,78.969,347.327z M79.552,346.039
				c1.443,0.752,3.324,0.159,4.077-1.284c0.751-1.442,0.228-3.288-1.285-4.075c-1.443-0.752-3.288-0.229-4.076,1.283
				C77.481,343.476,78.073,345.356,79.552,346.039z"/>
		</g>
		<g>
			
				<rect x="81.979" y="364.954" transform="matrix(0.4633 -0.8862 0.8862 0.4633 -275.3811 275.9771)" fill="#E9C527" width="16.35" height="0.775"/>
		</g>
		<g>
			
				<rect x="86.564" y="368.739" transform="matrix(0.4635 -0.8861 0.8861 0.4635 -280.3351 276.2312)" fill="#E9C527" width="2.787" height="1.782"/>
		</g>
		<g>
			
				<rect x="92.461" y="356.387" transform="matrix(0.8871 0.4616 -0.4616 0.8871 175.4701 -2.8239)" fill="#E9C527" width="2.092" height="1.706"/>
		</g>
		<g>
			
				<rect x="90.17" y="360.785" transform="matrix(0.8869 0.462 -0.462 0.8869 177.3918 -1.2342)" fill="#E9C527" width="2.093" height="1.705"/>
		</g>
		<g>
			<circle fill="#E9C527" cx="94.33" cy="357.757" r="1.163"/>
		</g>
		<g>
			<circle fill="#E9C527" cx="92.075" cy="362.087" r="1.163"/>
		</g>
		<g>
			
				<rect x="87.387" y="367.946" transform="matrix(0.8868 0.4621 -0.4621 0.8868 180.2637 0.7376)" fill="#E9C527" width="2.479" height="0.853"/>
		</g>
		<g>
			
				<rect x="86.134" y="370.349" transform="matrix(0.8871 0.4617 -0.4617 0.8871 181.0368 1.5387)" fill="#E9C527" width="2.479" height="0.854"/>
		</g>
		<g opacity="0.5">
			
				<rect x="77.877" y="309.106" transform="matrix(0.8874 0.461 -0.461 0.8874 151.6198 -1.1992)" fill="#AF941D" width="0.775" height="1.318"/>
		</g>
		<g opacity="0.5">
			
				<rect x="74.512" y="315.567" transform="matrix(0.8866 0.4625 -0.4625 0.8866 154.7544 1.2148)" fill="#AF941D" width="0.775" height="1.317"/>
		</g>
		<g opacity="0.5">
			
				<rect x="71.183" y="321.958" transform="matrix(0.8863 0.463 -0.463 0.8863 157.5193 3.5298)" fill="#AF941D" width="0.774" height="1.317"/>
		</g>
		<g>
			<path fill="#F6CE19" d="M76.515,311.781l-0.274-0.144c-0.275-0.143-0.373-0.456-0.23-0.731l2.004-3.849
				c0.144-0.275,0.456-0.373,0.73-0.229l0.276,0.143c0.274,0.144,0.373,0.457,0.23,0.731l-2.004,3.848
				C77.104,311.824,76.791,311.925,76.515,311.781z"/>
		</g>
		<g>
			<path fill="#F6CE19" d="M73.083,318.205l-0.275-0.144c-0.275-0.143-0.374-0.456-0.231-0.731l2.004-3.849
				c0.144-0.275,0.457-0.373,0.732-0.229l0.275,0.143c0.275,0.142,0.373,0.457,0.23,0.732l-2.004,3.848
				C73.67,318.25,73.357,318.348,73.083,318.205z"/>
		</g>
		<g>
			<path fill="#F6CE19" d="M69.753,324.596l-0.275-0.142c-0.275-0.145-0.374-0.457-0.231-0.732l2.005-3.849
				c0.143-0.274,0.456-0.374,0.732-0.23l0.275,0.143c0.274,0.144,0.372,0.457,0.229,0.731l-2.004,3.85
				C70.341,324.64,70.027,324.739,69.753,324.596z"/>
		</g>
		<path opacity="0.5" fill="#AF941D" enable-background="new    " d="M118.153,304.812c-0.371-0.63-1.357-1.754-2.388-2.292
			l0.215-0.413c0,0,1.577,0.997,2.387,2.293C118.367,304.399,118.116,304.882,118.153,304.812z"/>
		<g>
			
				<rect x="62.873" y="361.299" transform="matrix(0.8869 0.462 -0.462 0.8869 175.3321 7.7766)" fill="#F6CE19" width="17.822" height="1.317"/>
		</g>
		<g>
			
				<rect x="58.58" y="369.698" transform="matrix(0.8869 0.462 -0.462 0.8869 178.8137 10.5997)" fill="#F6CE19" width="18.366" height="1.472"/>
		</g>
		<path opacity="0.5" fill="#AF941D" enable-background="new    " d="M78.148,374.229l1.79-3.436l0.555-0.061
			c0,0-1.468,2.817-1.825,3.504C78.668,374.236,78.184,374.159,78.148,374.229z"/>
		
			<rect x="111.034" y="260.786" transform="matrix(0.8869 0.462 -0.462 0.8869 133.4877 -23.3562)" fill="#E9C527" width="6.82" height="0.31"/>
		
			<rect x="108.751" y="267.829" transform="matrix(0.8869 0.462 -0.462 0.8869 136.3371 -20.8227)" fill="#E9C527" width="3.874" height="0.31"/>
		
			<rect x="108.313" y="269.254" transform="matrix(0.8869 0.4619 -0.4619 0.8869 136.8679 -20.302)" fill="#E9C527" width="3.178" height="0.311"/>
		<g>
			<path fill="#E9C527" d="M112.887,264.937l-0.481-0.251c0.654,0.254,2.689,0.877,3.829-0.976c0.322-0.619,0.752-1.443,0.752-1.443
				c-0.071,0.136,0.206,0.107,0.206,0.107l-0.752,1.442C115.76,265.122,114.193,265.616,112.887,264.937z"/>
		</g>
		
			<rect x="87.501" y="368.75" transform="matrix(0.8868 0.4622 -0.4622 0.8868 180.5047 0.9114)" opacity="0.5" fill="#AF941D" enable-background="new    " width="1.781" height="0.311"/>
		
			<rect x="86.749" y="370.193" transform="matrix(0.887 0.4618 -0.4618 0.887 180.9464 1.3866)" opacity="0.5" fill="#AF941D" enable-background="new    " width="1.783" height="0.311"/>
		
			<rect x="86.717" y="371.137" transform="matrix(0.8869 0.462 -0.462 0.8869 181.3932 1.759)" opacity="0.5" fill="#AF941D" enable-background="new    " width="0.776" height="0.311"/>
		
			<rect x="88.507" y="367.701" transform="matrix(0.8862 0.4633 -0.4633 0.8862 180.525 0.6719)" opacity="0.5" fill="#AF941D" enable-background="new    " width="0.776" height="0.311"/>
	</g>
	<g>
		<polygon fill="#FFD826" points="113.442,328.35 83.864,312.86 84.567,311.477 114.145,326.966 		"/>
	</g>
	<g>
		<polygon fill="#FFD826" points="110.595,334.845 81.017,319.355 81.719,317.972 111.297,333.461 		"/>
	</g>
	<g>
		<polygon fill="#FFD826" points="107.416,341.4 77.838,325.911 78.541,324.527 108.119,340.017 		"/>
	</g>
	<path fill="#FFD826" d="M37.967,400.042l0.03,0.017l38.591-69.304l-1.765-0.884c-11.04,19.338-23.458,40.565-30.185,50.317
		c-8.101,11.813-15.733,12.921-19.124,12.71C28.482,394.788,32.507,397.145,37.967,400.042z"/>
	<g>
		<path fill="#E9C527" d="M53.464,410.212L23.33,394.428c-0.825-0.431-1.154-1.476-0.724-2.3l0,0
			c0.429-0.826,1.475-1.155,2.299-0.726l30.134,15.786c0.825,0.428,1.155,1.474,0.725,2.298l0,0
			C55.298,410.381,54.253,410.71,53.464,410.212z"/>
	</g>
</g>
</svg>
