<?xml version="1.0" encoding="utf-8"?>
<!-- Generator: Adobe Illustrator 18.0.0, SVG Export Plug-In . SVG Version: 6.00 Build 0)  -->
<!DOCTYPE svg PUBLIC "-//W3C//DTD SVG 1.1//EN" "http://www.w3.org/Graphics/SVG/1.1/DTD/svg11.dtd">
<svg version="1.1" id="content" xmlns="http://www.w3.org/2000/svg" xmlns:xlink="http://www.w3.org/1999/xlink" x="0px" y="0px"
	 viewBox="0 0 500 500" enable-background="new 0 0 500 500" xml:space="preserve">
<g id="bounds">
	<rect x="-26.5" y="199.4" fill="none" stroke="#000000" stroke-width="1.2441" width="267.5" height="291"/>
</g>
<rect id="position" display="none" fill="none" stroke="#000000" width="500" height="500"/>
<g>
	<g>
		<g>
			<g>
				<path fill="#91473E" d="M144.6,395c-1.7-2.2,0.5-5.9-1.6-7.7c-1.5-1.3-2.2,0.1-3.3,0.9c-6.8,4.4-11.9-11.9-12.3-16.5
					s2.8-6,2.8-6c0.8-0.3,1.8-0.4,3-0.3c2.4,0.1-2.8-2.2-2.5-7.9c0.7-10.5-3.8-34.8-33.3-26.5c-29.5,8.3-20.8,31.4-14.7,40
					c3.3,4.7,0,9.4,2,8c1-0.7,1.9-1.1,2.7-1.3c0,0,3.5-0.5,5.5,3.6c2,4.2,6.1,20.7-1.9,20.5c-1.4,0-2.8-0.9-3.3,1
					c-0.8,2.6,3,4.6,2.6,7.4c-0.9,6.9-1.3,14.8,1.7,22c5.7,13.2,20.5,16.3,37,11.6c16.5-4.6,27.5-14.9,25.6-29.1
					C153.4,406.9,149,400.4,144.6,395z"/>
			</g>
			<path fill="#823F37" d="M129,443.8c16.5-4.6,27.5-14.9,25.6-29.1c-1.1-7.7-5.6-14.2-9.9-19.7c0,0-9.5,36-52.1,38.2
				C98.5,445.5,113,448.3,129,443.8z"/>
			<g>
				<path fill="#35292D" d="M86.8,276l-6.5,0.9l-1.8,2.6l18,76.5c0.2,0.9,1.4,1.5,2.5,1.1l5.1-1.4l0,0h0l0,0l0,0l5.1-1.4
					c1.1-0.3,1.9-1.4,1.6-2.3L86.8,276z"/>
			</g>
			<g>
				<path fill="#35292D" d="M104.1,385.4C104.1,385.4,104.1,385.4,104.1,385.4c0,0-1.3-1.4-2.7-1c-1.4,0.3-4.1,2.5-1.5,11.8
					c2.6,9.2,0.5,11.1-0.8,11.4c-0.8,0.2-1.5-0.4-2.1-1.2c0.5-0.3,0.8-0.8,0.8-1.4c0-0.8-0.7-1.5-1.5-1.4c-0.8,0-1.5,0.7-1.4,1.5
					c0,0.1,0,0.3,0.1,0.4c0,0,0,0,0,0s0,0.1,0,0.1c0,0,0,0.1,0,0.1c0.3,0.8,1.7,3.4,4.2,2.6c2.3-0.7,4.9-4.6,2.7-12.7
					c-2.3-8.1-1.4-10.1-0.4-10.4c0.6-0.2,1.2-0.3,1.6-0.1c-0.4,0.2-0.8,0.6-0.8,1.2c-0.1,0.8,0.3,1.6,0.9,1.7
					c0.7,0.1,1.3-0.5,1.4-1.3C104.6,386.2,104.4,385.7,104.1,385.4z"/>
			</g>
			<g>
				<path fill="#35292D" d="M119.5,381.1C119.5,381.1,119.5,381.1,119.5,381.1c0,0,0.4-1.9,1.8-2.3s4.8,0,7.4,9.3
					c2.6,9.2,5.4,9.7,6.6,9.3c0.8-0.2,1.1-1.1,1.1-2.1c-0.6,0-1.1-0.2-1.4-0.8c-0.4-0.7-0.2-1.6,0.6-2c0.7-0.4,1.6-0.1,2,0.6
					c0.1,0.1,0.1,0.2,0.1,0.4c0,0,0,0,0,0s0,0.1,0,0.1c0,0,0,0.1,0,0.1c0.1,0.8,0.3,3.8-2.2,4.4c-2.3,0.6-6.6-1.3-8.9-9.5
					s-4-9.3-5-9.1c-0.6,0.1-1.1,0.4-1.4,0.7c0.5-0.1,1,0.1,1.3,0.6c0.5,0.6,0.6,1.5,0.1,1.9c-0.5,0.4-1.3,0.3-1.9-0.4
					C119.5,382,119.4,381.5,119.5,381.1z"/>
			</g>
			<g>
				<path fill="#35292D" d="M130.2,443.4l-2.3-36.7c-0.1-1.2-1.6-2.1-2.7-1.8l-13.3,3.7c-1.2,0.3-2.1,1.4-1.4,2.9l17.1,32.6
					c0.4-0.1,0.9-0.2,1.3-0.4C129.4,443.7,129.8,443.6,130.2,443.4z"/>
			</g>
			<g>
				
					<rect x="113.2" y="385.4" transform="matrix(-0.2694 -0.963 0.963 -0.2694 -233.7369 610.4659)" fill="#BD9589" width="3" height="17"/>
			</g>
		</g>
	</g>
	<g>
		<path fill="#854138" d="M77.4,250.2l9.7,26.8l-8.6,2.4l-5.8-27.7C71.9,249,77.3,249.7,77.4,250.2z"/>
	</g>
	<g>
		<path fill="#35292D" d="M68.4,261.1c0,0,2,6.5,1.8,6.5c-1.8,0.5-5.6,0.8-6.4-1.8C63.3,263.4,66.6,261.5,68.4,261.1z"/>
	</g>
	<g>
		
			<rect x="70.9" y="260.5" transform="matrix(-0.2696 -0.963 0.963 -0.2696 -162.3147 404.0584)" fill="#35292D" width="2.3" height="6.2"/>
	</g>
	<g>
		
			<rect x="73.3" y="259.6" transform="matrix(-0.27 -0.9629 0.9629 -0.27 -159.3477 405.2516)" fill="#35292D" width="1.2" height="6.8"/>
	</g>
	<g>
		<path fill="#35292D" d="M70.6,272.3c0,0,2,6.5,1.8,6.5c-1.8,0.5-5.6,0.8-6.4-1.8C65.4,274.6,68.8,272.7,70.6,272.3z"/>
	</g>
	<g>
		
			<rect x="73.1" y="271.7" transform="matrix(-0.2696 -0.963 0.963 -0.2696 -170.2941 420.4013)" fill="#35292D" width="2.3" height="6.2"/>
	</g>
	<g>
		
			<rect x="75.2" y="271.2" transform="matrix(-0.27 -0.9629 0.9629 -0.27 -167.8069 421.4079)" fill="#35292D" width="1.2" height="6.2"/>
	</g>
	<g>
		<path fill="#35292D" d="M92.5,257.8c0.7,2.6-2.7,4.3-4.5,4.8c-0.2,0.1-1.8-6.5-1.8-6.5C87.9,255.6,91.7,255.4,92.5,257.8z"/>
	</g>
	<g>
		
			<rect x="83.1" y="257.1" transform="matrix(-0.2696 -0.963 0.963 -0.2696 -143.6029 411.4405)" fill="#35292D" width="2.3" height="6.2"/>
	</g>
	<g>
		
			<rect x="81.8" y="257.3" transform="matrix(-0.269 -0.9631 0.9631 -0.269 -146.5043 410.1307)" fill="#35292D" width="1.2" height="6.8"/>
	</g>
	<g>
		<path fill="#35292D" d="M96.4,268.5c0.7,2.6-2.7,4.3-4.5,4.8c-0.2,0.1-1.8-6.5-1.8-6.5C91.8,266.3,95.6,266.1,96.4,268.5z"/>
	</g>
	<g>
		
			<rect x="87" y="267.8" transform="matrix(-0.2696 -0.963 0.963 -0.2696 -148.8944 428.8264)" fill="#35292D" width="2.3" height="6.2"/>
	</g>
	<g>
		
			<rect x="86" y="268.2" transform="matrix(-0.2692 -0.9631 0.9631 -0.2692 -151.3613 427.7286)" fill="#35292D" width="1.2" height="6.2"/>
	</g>
	<g>
		<path fill="#4F2722" d="M75.4,251.9c0,0-5.6,1.5-5.5,1.8c0.2,0.7,0.9,2.8,2.2,2.3l1.9-0.6l4.6-1.3l1.9-0.6
			c1.3-0.3,0.8-2.5,0.6-3.1C80.9,250.3,75.4,251.9,75.4,251.9C75,252,76,251.7,75.4,251.9z"/>
	</g>
	<g>
		<path fill="#854138" d="M72.4,250.2c-0.6,0.1-0.9,0.2-1,0.2s-0.2,0.1-0.2,0.2c0.1,0.3,1.5,5.2,0.1,5.3c0,0,0.3,0.2,0.7,0.1
			l0.3-0.1c0.2,0.6,0.9,2.8,1.9,2.4l5.4-1.5c0.8-0.2,0.5-2.3,0.3-3.1l0.6-0.1c0.4-0.1,0.6-0.4,0.6-0.4c-1.3,0.6-2.8-4.5-2.8-4.5
			c0-0.1-0.1-0.1-0.2-0.1c-0.2,0-0.6,0.1-1.1,0.2c0,0-1.1-2.7-2.3-2.3c-0.7,0.2-1.1,0.2-1.7,0.5C72,247.4,72.4,250.2,72.4,250.2z"/>
	</g>
	<g>
		
			<rect x="52.8" y="312.7" transform="matrix(-0.2923 -0.9563 0.9563 -0.2923 -175.07 496.4017)" fill="#616161" width="86.6" height="0.5"/>
	</g>
	<g>
		
			<rect x="90" y="379.5" transform="matrix(-0.2916 -0.9565 0.9565 -0.2916 -212.7398 601.979)" fill="#8F8F8F" width="53" height="0.5"/>
	</g>
	<g>
		
			<rect x="121.7" y="408.5" transform="matrix(-0.2916 -0.9565 0.9565 -0.2916 -229.0206 647.819)" fill="#616161" width="7.4" height="0.5"/>
	</g>
	<g>
		
			<rect x="117.6" y="409.8" transform="matrix(-0.276 -0.9612 0.9612 -0.276 -239.0225 639.9659)" fill="#616161" width="7.9" height="0.5"/>
	</g>
	<g>
		
			<rect x="86.6" y="380.5" transform="matrix(-0.276 -0.9612 0.9612 -0.276 -221.6082 594.5502)" fill="#8F8F8F" width="53" height="0.5"/>
	</g>
	<g>
		
			<rect x="43.4" y="307.9" transform="matrix(-0.2739 -0.9618 0.9618 -0.2739 -178.656 481.3936)" fill="#616161" width="98" height="0.5"/>
	</g>
	<g>
		<circle fill="#BD9589" cx="122.6" cy="413.7" r="0.9"/>
	</g>
	<g>
		<g>
			<circle fill="#BD9589" cx="126.5" cy="412.4" r="0.9"/>
		</g>
	</g>
	<g>
		
			<rect x="45.8" y="314.7" transform="matrix(-0.2397 -0.9708 0.9708 -0.2397 -195.3456 476.937)" fill="#616161" width="86.6" height="0.5"/>
	</g>
	<g>
		
			<rect x="79.5" y="382.5" transform="matrix(-0.2477 -0.9688 0.9688 -0.2477 -238.4888 580.2574)" fill="#8F8F8F" width="53" height="0.5"/>
	</g>
	<g>
		
			<rect x="109.8" y="411.8" transform="matrix(-0.2478 -0.9688 0.9688 -0.2478 -257.5273 624.1251)" fill="#616161" width="7.5" height="0.5"/>
	</g>
	<g>
		
			<rect x="113.5" y="410.9" transform="matrix(-0.2633 -0.9647 0.9647 -0.2633 -248.2716 632.6818)" fill="#616161" width="7.9" height="0.5"/>
	</g>
	<g>
		
			<rect x="82.9" y="381.5" transform="matrix(-0.2633 -0.9647 0.9647 -0.2633 -230.0556 587.8304)" fill="#8F8F8F" width="53" height="0.5"/>
	</g>
	<g>
		
			<rect x="40.7" y="308.6" transform="matrix(-0.259 -0.9659 0.9659 -0.259 -185.3495 475.5401)" fill="#616161" width="98" height="0.5"/>
	</g>
	<g>
		<path fill="#BD9589" d="M119.2,414.4c0.2,0.4,0.1,1-0.3,1.2c-0.4,0.2-1,0.1-1.2-0.3c-0.2-0.4-0.1-1,0.3-1.2
			C118.4,413.8,119,414,119.2,414.4z"/>
	</g>
	<g>
		<g>
			<circle fill="#BD9589" cx="114.5" cy="415.8" r="0.9"/>
		</g>
	</g>
</g>
</svg>
