<?xml version="1.0" encoding="utf-8"?>
<!-- Generator: Adobe Illustrator 18.0.0, SVG Export Plug-In . SVG Version: 6.00 Build 0)  -->
<!DOCTYPE svg PUBLIC "-//W3C//DTD SVG 1.1//EN" "http://www.w3.org/Graphics/SVG/1.1/DTD/svg11.dtd">
<svg version="1.1" id="content" xmlns="http://www.w3.org/2000/svg" xmlns:xlink="http://www.w3.org/1999/xlink" x="0px" y="0px"
	 width="500px" height="500px" viewBox="0 0 500 500" enable-background="new 0 0 500 500" xml:space="preserve">
<rect id="position" display="none" fill="none" stroke="#000000" width="500" height="500"/>
<g id="bounds" display="none">
	<rect x="21.6" y="211.6" display="inline" fill="none" stroke="#000000" stroke-width="0.7531" width="147.7" height="160.7"/>
</g>
<g>
	<path d="M67,268.6c-0.1-0.5-0.1-1,0.2-1.3c3.2-2.5,6.7-3.5,10.6-3.1c0.5,0.1,0.9,0.3,1.1,0.9C74.6,264.5,70.7,265.9,67,268.6z"/>
	<path d="M123.6,268.6c0.1-0.5,0.1-1-0.2-1.3c-3.2-2.5-6.7-3.5-10.6-3.1c-0.5,0.1-0.9,0.3-1.1,0.9
		C116.2,264.5,119.9,265.9,123.6,268.6z"/>
	<path fill="#4E4E4E" d="M98.1,304.5c14.7-0.3,16.4,7.4,21.9,11.9c1.6,1.3,6.6,5.4,11.1,3.1c3.7-1.8,3.8-10.1,3.1-17.3
		c-0.7-7.1-7-27.2-8-29.5c-1-2.2-2.4-5.9-8-7.4c-5.6-1.5-8.6,0.3-8.6,0.3c-6.2,3.7-13.9,3-13.9,3h-0.6c0,0-7.7,0.7-13.9-3
		c0,0-3-1.8-8.6-0.3c-5.6,1.5-7,5.2-8,7.4c-1,2.2-7.3,22.3-8,29.5s-0.6,15.4,3.1,17.3c4.5,2.2,9.5-1.8,11.1-3.1
		c5.4-4.5,7.1-12.2,21.9-11.9H98.1z"/>
	<g>
		<circle fill="#AFAEAE" stroke="#AFAEAE" stroke-width="0.3641" stroke-miterlimit="10" cx="106.5" cy="285.9" r="2.8"/>
		<circle fill="#AFAEAE" stroke="#AFAEAE" stroke-width="0.3641" stroke-miterlimit="10" cx="112.4" cy="280.1" r="2.8"/>
		<circle fill="#AFAEAE" stroke="#AFAEAE" stroke-width="0.3641" stroke-miterlimit="10" cx="118.4" cy="286" r="2.8"/>
		<circle fill="#AFAEAE" stroke="#AFAEAE" stroke-width="0.3641" stroke-miterlimit="10" cx="112.4" cy="292" r="2.8"/>
	</g>
	<circle fill="#3A3A3A" cx="79.5" cy="286" r="9.2"/>
	<path d="M64.7,319.9c0.6-0.6,1.4-1,2.1-1.5c1.8-1.4,3.4-3.2,5-5c2.2-2.6,4.5-5.2,7.4-7.1c2.6-1.8,5.5-2.8,8.7-3.1
		c4.2-0.4,8.3-0.2,12.6-0.2c2.9,0.1,5.8,0.2,8.5,1.4c2.1,0.9,4,2.1,5.7,3.6c2.5,2.2,4.5,4.8,6.7,7.2c1.5,1.7,3.3,3.1,5.1,4.4
		c0.2,0.2,0.5,0.2,0.6,0.5c-1.6-0.2-3.1-0.8-4.5-1.6c-1.8-1-3.1-2.4-4.4-3.8c-2.3-2.6-4.7-5-7.7-6.7c-2.6-1.6-5.5-2.4-8.6-2.6
		c-4.2-0.2-8.4-0.2-12.6,0c-4.6,0.2-8.5,2.1-12,5c-2.2,1.8-3.9,4-5.9,5.9c-1.8,1.7-3.7,3-6.1,3.5C65.1,319.9,65,320,64.7,319.9z"/>
	<g>
		
			<rect x="77.4" y="279.3" fill="#AFAEAE" stroke="#AFAEAE" stroke-width="0.3641" stroke-miterlimit="10" width="4.4" height="13.4"/>
		
			<rect x="72.9" y="283.9" fill="#AFAEAE" stroke="#AFAEAE" stroke-width="0.3641" stroke-miterlimit="10" width="13.4" height="4.4"/>
	</g>
</g>
</svg>
