<?xml version="1.0" encoding="utf-8"?>
<!-- Generator: Adobe Illustrator 18.0.0, SVG Export Plug-In . SVG Version: 6.00 Build 0)  -->
<!DOCTYPE svg PUBLIC "-//W3C//DTD SVG 1.1//EN" "http://www.w3.org/Graphics/SVG/1.1/DTD/svg11.dtd">
<svg version="1.1" id="content" xmlns="http://www.w3.org/2000/svg" xmlns:xlink="http://www.w3.org/1999/xlink" x="0px" y="0px"
	 width="500px" height="500px" viewBox="0 0 500 500" enable-background="new 0 0 500 500" xml:space="preserve">
<rect id="position" display="none" fill="none" stroke="#000000" width="500" height="500"/>
<g id="bounds" display="none">
	<rect x="0.2" y="80.2" display="inline" fill="none" stroke="#EAEAEA" stroke-miterlimit="10" width="499.5" height="499.5"/>
</g>
<g>
	<path fill="#3D82C4" d="M103.2,311.2c-1.9-2.9-2.9-6.4-4.9-9.1c-3.3,13.8,3.5,28.4,14,37.8c10.6,9.4,24.5,14.1,38.3,17
		c9.7,2.1,19.7,3.2,29.1,6.4c9.4,3.2,18.4,8.7,23.5,17.2c14.5-6.8,29.7-11.8,45.4-14.5c-14.1-16.7-34.6-27.6-56.4-30.2
		c-18.6-2.1-38,1.7-55.9-4c-8.9-2.9-16.8-7.9-24.5-13.2C108.6,316.8,105.3,314.6,103.2,311.2z"/>
	<path fill="#3D82C4" d="M401.8,312.8c1.9-2.9,2.9-6.4,4.9-9.1c3.3,13.8-3.5,28.4-14,37.8c-10.6,9.4-24.5,14.1-38.3,17
		c-9.7,2.1-19.7,3.2-29.1,6.4s-18.4,8.7-23.5,17.2c-14.5-6.8-29.7-11.8-45.4-14.5c14.1-16.7,34.6-27.6,56.4-30.2
		c18.6-2.1,38,1.7,55.9-4c8.9-2.9,16.8-7.9,24.5-13.2C396.4,318.2,399.5,316,401.8,312.8z"/>
	<path fill="#C489BC" d="M372.2,270.9c1.1-3.2,1-6.8,2.2-10c6.8,12.4,4.3,28.4-3.3,40.2c-7.8,11.9-19.9,20.2-32.4,26.7
		c-8.7,4.4-18.1,8.4-26.2,14c-8.1,5.6-15.4,13.3-18.1,22.9c-15.7-2.7-31.8-3.3-47.7-1.7c9.1-19.9,26.1-36.1,46.2-44.2
		c17.3-7,37.2-8.4,52.8-18.8c7.8-5.1,14-12.2,20-19.2C368.4,277.6,370.9,274.5,372.2,270.9z"/>
	<path fill="#C489BC" d="M129.2,270.9c-1.1-3.2-1-6.8-2.2-10c-6.8,12.4-4.3,28.4,3.3,40.2c7.6,11.8,19.9,20.2,32.4,26.7
		c8.7,4.4,18.1,8.4,26.2,14c8.1,5.6,15.4,13.3,18.1,22.9c15.7-2.7,31.8-3.3,47.7-1.7c-9.1-19.9-26.1-36.1-46.2-44.2
		c-17.3-7-37.2-8.4-52.8-18.8c-7.8-5.1-14-12.2-20-19.2C133.1,277.6,130.5,274.5,129.2,270.9z"/>
	<path fill="#FDD836" d="M185.2,214.3c1-5.9,1.6-6.4,3.7-11.8c-12.6,10.2-18.6,29.4-17.6,46.9c1,17.5,7.6,33.1,15.7,46.9
		c5.7,9.7,12.1,18.9,16.7,29.4c4.6,10.5,7.2,23,4.6,35.1c15.6,5.2,30.5,13,44,23.4c1.9-27-5.1-54-19.2-73.9
		c-12.1-17-27.8-30.2-38.1-48.9C184.9,243.6,183.6,223.9,185.2,214.3z"/>
	<path fill="#3D82C4" d="M230.9,293.3c1.3-3.5,1.7-3.8,3.7-6.8c-9.7,4.6-15.9,15.7-17,26.7c-1.1,11,1.9,21.9,6,31.8
		c2.9,7,6.4,13.7,8.4,21c2.1,7.3,2.5,15.6-0.5,22.7c10.3,5.6,19.9,12.7,28.1,21.1c4.1-16.7,2.1-34.6-5.7-49.3
		c-6.7-12.6-16.2-23-21.5-36.4C227.8,311.7,228.9,299,230.9,293.3z"/>
	<path fill="#FDD836" d="M315.8,215c-1-5.9-1.6-6.4-3.7-11.8c12.6,10.2,18.6,29.4,17.6,46.9c-1,17.3-7.6,33.1-15.7,46.9
		c-5.7,9.7-12.1,18.9-16.7,29.4c-4.6,10.6-7.2,23-4.6,35.1c-15.6,5.2-30.5,13-44,23.4c-1.9-27,5.1-54,19.2-73.9
		c12.1-17,27.8-30.2,38.1-48.9C316.1,244.2,317.4,224.3,315.8,215z"/>
	<path fill="#3D82C4" d="M270.8,293.3c-1.3-3.5-1.7-3.8-3.7-6.8c9.7,4.6,15.9,15.7,17,26.7c1.1,11-1.9,21.9-6,31.8
		c-2.9,7-6.4,13.7-8.4,21c-2.1,7.3-2.5,15.6,0.5,22.7c-10.3,5.6-19.9,12.7-28.1,21.1c-4.1-16.7-2.1-34.6,5.7-49.3
		c6.7-12.6,16.2-23,21.5-36.4C274,311.7,272.9,299,270.8,293.3z"/>
	<path fill="#125552" d="M423.4,348.6c-0.2-1.7-2.5-2.4-3.5-1c-3.7,5.2-10.8,14.3-22.1,22.6c-1.9,1.4-3.8,2.5-5.7,3.5
		c-10.3,5.4-22.9,4.3-32.6-2.4c-10-6.8-38.3-24.2-74.4-25.1c-20.2-0.5-33.4,7.5-34.8,8.4c-1.4-1-14.6-8.9-34.8-8.4
		c-36.1,1-64.4,18.1-74.4,25.1c-9.5,6.7-22.1,7.8-32.6,2.4c-1.9-1-3.8-2.1-5.7-3.5c-11.4-8.3-18.6-17.3-22.1-22.6
		c-1-1.4-3.3-0.8-3.5,1c-1,11.8-1.1,39.9,14.8,61.8c20.8,28.4,50.1,50.4,85.8,48.3c35.8-2.1,68.3-24.6,72-30.2
		c0.2-0.3,0.3-0.5,0.5-0.6c0.2,0.2,0.3,0.5,0.5,0.6c3.7,5.6,36.1,28.1,72,30.2c35.8,2.1,65.1-19.9,85.8-48.3
		C424.5,388.5,424.3,360.4,423.4,348.6z M169,420.6c-13.7,0-45.8-3.3-51.8-29.6c-0.2-0.8,16.8,8.7,33.5,4.6
		c16.8-4.3,40.4-7.2,55.5,6.5C195.3,420.6,178.5,420.3,169,420.6z M331.8,420.6c-9.7-0.3-26.4,0-37.2-18.4
		c15.1-13.7,38.6-10.8,55.5-6.5c16.8,4.3,33.7-5.4,33.5-4.6C377.6,417.2,345.4,420.6,331.8,420.6z"/>
	<polygon fill="#FDD836" points="250.3,365.9 257.5,380.4 273.4,382.8 261.9,393.9 264.6,409.8 250.3,402.3 236.2,409.8 
		238.9,393.9 227.3,382.8 243.2,380.4 	"/>
	<path fill="#B5E4FA" d="M301.2,381.3c0-8.9-4.6-13.7-13.7-13.7c8.9,0,13.7-4.6,13.7-13.7c0,8.9,4.6,13.7,13.7,13.7
		C305.8,367.7,301.2,372.3,301.2,381.3z"/>
	<path fill="#B5E4FA" d="M301.2,450.4c0-8.9-4.6-13.7-13.7-13.7c8.9,0,13.7-4.6,13.7-13.7c0,8.9,4.6,13.7,13.7,13.7
		C305.8,436.8,301.2,441.4,301.2,450.4z"/>
	<path fill="#B5E4FA" d="M336.9,385.8c0-7-3.7-10.6-10.6-10.6c7,0,10.6-3.7,10.6-10.6c0,7,3.7,10.6,10.6,10.6
		C340.6,375.1,336.9,378.8,336.9,385.8z"/>
	<path fill="#B5E4FA" d="M336.9,447c0-7-3.7-10.6-10.6-10.6c7,0,10.6-3.7,10.6-10.6c0,7,3.7,10.6,10.6,10.6
		C340.6,436.5,336.9,440,336.9,447z"/>
	<path fill="#B5E4FA" d="M370.3,393.2c0-5.6-2.9-8.6-8.6-8.6c5.6,0,8.6-2.9,8.6-8.6c0,5.6,2.9,8.6,8.6,8.6
		C373.2,384.7,370.3,387.5,370.3,393.2z"/>
	<path fill="#B5E4FA" d="M370.3,433.1c0-5.6-2.9-8.6-8.6-8.6c5.6,0,8.6-2.9,8.6-8.6c0,5.6,2.9,8.6,8.6,8.6
		C373.2,424.5,370.3,427.6,370.3,433.1z"/>
	<path fill="#B5E4FA" d="M201.1,381.3c0-8.9,4.6-13.7,13.7-13.7c-8.9,0-13.7-4.6-13.7-13.7c0,8.9-4.6,13.7-13.7,13.7
		C196.5,367.7,201.1,372.3,201.1,381.3z"/>
	<path fill="#B5E4FA" d="M201.1,450.4c0-8.9,4.6-13.7,13.7-13.7c-8.9,0-13.7-4.6-13.7-13.7c0,8.9-4.6,13.7-13.7,13.7
		C196.5,436.8,201.1,441.4,201.1,450.4z"/>
	<path fill="#B5E4FA" d="M165.3,385.8c0-7,3.7-10.6,10.6-10.6c-7,0-10.6-3.7-10.6-10.6c0,7-3.7,10.6-10.6,10.6
		C161.8,375.1,165.3,378.8,165.3,385.8z"/>
	<path fill="#B5E4FA" d="M165.3,447c0-7,3.7-10.6,10.6-10.6c-7,0-10.6-3.7-10.6-10.6c0,7-3.7,10.6-10.6,10.6
		C161.8,436.5,165.3,440,165.3,447z"/>
	<path fill="#B5E4FA" d="M131.9,393.2c0-5.6,2.9-8.6,8.6-8.6c-5.6,0-8.6-2.9-8.6-8.6c0,5.6-2.9,8.6-8.6,8.6
		C129.1,384.7,131.9,387.5,131.9,393.2z"/>
	<path fill="#B5E4FA" d="M131.9,433.1c0-5.6,2.9-8.6,8.6-8.6c-5.6,0-8.6-2.9-8.6-8.6c0,5.6-2.9,8.6-8.6,8.6
		C129.1,424.5,131.9,427.6,131.9,433.1z"/>
	<path fill="none" d="M423.2,348.6c-0.2-1.7-2.5-2.4-3.5-1c-3.7,5.2-10.8,14.3-22.1,22.6c-1.9,1.4-3.8,2.5-5.7,3.5
		c-10.3,5.4-22.9,4.3-32.6-2.4c-10-6.8-38.3-24.2-74.4-25.1c-20.2-0.5-33.4,7.5-34.8,8.4c-1.4-1-14.6-8.9-34.8-8.4
		c-36.1,1-64.4,18.1-74.4,25.1c-9.5,6.7-22.1,7.8-32.6,2.4c-1.9-1-3.8-2.1-5.7-3.5c-11.4-8.3-18.6-17.3-22.1-22.6
		c-1-1.4-3.3-0.8-3.5,1c-1,11.8-1.1,39.9,14.8,61.8c20.8,28.4,50.1,50.4,85.8,48.3c35.8-2.1,68.3-24.6,72-30.2
		c0.2-0.3,0.3-0.5,0.5-0.6c0.2,0.2,0.3,0.5,0.5,0.6c3.7,5.6,36.1,28.1,72,30.2c35.9,2.1,65.1-19.9,85.8-48.3
		C424.3,388.5,424.2,360.4,423.2,348.6z M168.8,420.6c-13.7,0-45.8-3.3-51.8-29.6c-0.2-0.8,16.8,8.7,33.5,4.6
		c16.8-4.3,40.4-7.2,55.5,6.5C195.2,420.6,178.5,420.3,168.8,420.6z M331.7,420.6c-9.7-0.3-26.4,0-37.2-18.4
		c15.1-13.7,38.6-10.8,55.5-6.5c16.8,4.3,33.7-5.4,33.5-4.6C377.5,417.2,345.4,420.6,331.7,420.6z"/>
</g>
</svg>
