<?xml version="1.0" encoding="utf-8"?>
<!-- Generator: Adobe Illustrator 18.0.0, SVG Export Plug-In . SVG Version: 6.00 Build 0)  -->
<!DOCTYPE svg PUBLIC "-//W3C//DTD SVG 1.1//EN" "http://www.w3.org/Graphics/SVG/1.1/DTD/svg11.dtd">
<svg version="1.1" id="content" xmlns="http://www.w3.org/2000/svg" xmlns:xlink="http://www.w3.org/1999/xlink" x="0px" y="0px"
	 width="500px" height="500px" viewBox="0 0 500 500" enable-background="new 0 0 500 500" xml:space="preserve">
<rect id="position" display="none" fill="none" stroke="#000000" width="500" height="500"/>
<g id="bounds" display="none">
	<rect x="0.2" y="80.2" display="inline" fill="none" stroke="#EAEAEA" stroke-miterlimit="10" width="499.5" height="499.5"/>
</g>
<g>
	<g>
		<path fill="#B4AB68" d="M185.3,437l-2.5-0.7c0.2-0.7,18.9-71.4-20.4-124.2c-17.5-22.9-34.9-26.8-44.5-23.6
			c-6.6,2.2-10.3,8.1-10.1,15.7h-2.5c-0.2-8.6,4.2-15.5,11.8-18.2c10.3-3.7,29,0.5,47.2,24.4C204.5,364.4,185.6,436.3,185.3,437
			L185.3,437z"/>
		<path fill="#B4AB68" d="M184.1,436.3c0-0.5-2.2-42.1-30-50.7c-8.9-2.7-15.5-2.5-19.9,1c-6.6,5.2-6.4,15.5-6.4,15.7h-2.5
			c0-0.5-0.2-11.8,7.4-17.7c5.2-3.9,12.8-4.4,22.4-1.5c29.5,9.3,31.7,51.2,31.7,53.1H184.1L184.1,436.3z"/>
		<path fill="#6AA345" d="M295.6,288.9c0,0-5.4-61.8-71.4-99.9c20.9,99.2-47.2,247.5-47.2,247.5l64.2,11.8L295.6,288.9z"/>
		<path fill="#83CC54" d="M339.6,339.6c0,0-3.4-79-46.7-110.5c13.5,58.1-48,183.3-112.7,207.7C259.4,433.1,339.6,339.6,339.6,339.6z
			"/>
		<path fill="#76B54C" d="M178.7,436.3l43.3,3.2l115.6-9.3c0,0,63.2-78.2,17.2-162.4C341.6,340.1,265.1,421.8,178.7,436.3z"/>
		<path opacity="0.2" fill="#2F3326" enable-background="new    " d="M177,436.5c0,0,49,36.7,113.2,34.9s86.6-36.4,86.6-36.4
			L177,436.5z"/>
		<path fill="#C5DD5E" d="M178.7,436.3c0,0,96.7,44.5,194.9,3C414.2,391,392,335.2,392,335.2S324.4,451.5,178.7,436.3z"/>
	</g>
	<circle fill="#F0F267" cx="110.5" cy="304.4" r="7.6"/>
	<circle fill="#F0F267" cx="130.7" cy="399.4" r="7.6"/>
</g>
</svg>
