<?xml version="1.0" encoding="utf-8"?>
<!-- Generator: Adobe Illustrator 18.0.0, SVG Export Plug-In . SVG Version: 6.00 Build 0)  -->
<!DOCTYPE svg PUBLIC "-//W3C//DTD SVG 1.1//EN" "http://www.w3.org/Graphics/SVG/1.1/DTD/svg11.dtd">
<svg version="1.1" id="content" xmlns="http://www.w3.org/2000/svg" xmlns:xlink="http://www.w3.org/1999/xlink" x="0px" y="0px"
	 width="500px" height="500px" viewBox="0 0 500 500" enable-background="new 0 0 500 500" xml:space="preserve">
<rect id="position" display="none" fill="none" stroke="#000000" width="500" height="500"/>
<g id="bounds" display="none">
	<rect x="84.2" y="-106.2" display="inline" fill="none" stroke="#000000" stroke-width="0.9205" width="331.6" height="349.8"/>
</g>
<g>
	<g>
		<path fill="#903F98" d="M174.1,59.2c12,20.3,24.4,24.7,33.7,19.9s12-17,0-37.4S164.8,6,164.4,5.4C164.4,5.4,162.1,38.9,174.1,59.2
			z"/>
	</g>
	<g>
		<path fill="#903F98" d="M146.4,92.2c17.8,15.5,31,15.7,38.3,8.1c7.3-7.5,6-20-11.9-35.4s-52.2-20.1-52.7-20.6
			C120.2,44.3,128.6,76.7,146.4,92.2z"/>
	</g>
	<g>
		<path fill="#903F98" d="M144.3,123.7c23.1,5.1,34.7-1,37.5-11.1s-4.3-20.4-27.3-25.5c-23.1-5.1-55.5,7.2-56.2,7
			C98.3,94.1,121.3,118.6,144.3,123.7z"/>
	</g>
	<g>
		<path fill="#903F98" d="M211.7,39.9c5.8,22.9,16.5,30.5,26.8,28.5s16.3-13,10.5-35.9s-31.4-46.3-31.5-47
			C217.4-14.5,205.8,17,211.7,39.9z"/>
	</g>
	<g>
		<path fill="#AE1E59" d="M160.3,72.6c13.5,6.4,15.4,16.8,11,26.5s-13.5,14.9-27,8.5s-21.5-31.5-21.9-31.7
			C122.4,76,146.8,66.2,160.3,72.6z"/>
	</g>
	<g>
		<path fill="#AE1E59" d="M191.1,44.6c10.6,10.6,9,21.1,1.7,28.8c-7.3,7.6-17.6,9.5-28.2-1.1s-10-37-10.3-37.3
			C154.3,34.9,180.5,33.9,191.1,44.6z"/>
	</g>
	<g>
		<path fill="#AE1E59" d="M230.7,34.2c6.6,13.6,1.7,23-7.7,27.7s-19.7,2.9-26.3-10.7s2.6-38.3,2.4-38.7
			C199.1,12.4,224.1,20.5,230.7,34.2z"/>
	</g>
	<g>
		<path fill="#903F98" d="M323.3,59.2c-12,20.3-24.4,24.7-33.7,19.9c-9.3-4.8-12-17,0-37.4c12-20.3,43-35.7,43.4-36.3
			C333,5.4,335.3,38.9,323.3,59.2z"/>
	</g>
	<g>
		<path fill="#903F98" d="M351.1,92.2c-17.8,15.5-31,15.7-38.3,8.1c-7.3-7.5-6-20,11.9-35.4c17.8-15.5,52.2-20.1,52.7-20.6
			C377.4,44.3,368.9,76.7,351.1,92.2z"/>
	</g>
	<g>
		<path fill="#903F98" d="M358.5,123.2c-23.1,5.1-34.7-1-37.5-11.1s4.3-20.4,27.3-25.5c23.1-5.1,55.5,7.2,56.2,7
			C404.5,93.6,381.5,118.1,358.5,123.2z"/>
	</g>
	<g>
		<path fill="#AE1E59" d="M336.4,72.6c-13.5,6.4-15.4,16.8-11,26.5s13.5,14.9,27,8.5s21.5-31.5,21.9-31.7
			C374.3,76,349.9,66.2,336.4,72.6z"/>
	</g>
	<g>
		<path fill="#AE1E59" d="M309.2,44.6c-10.6,10.6-9,21.1-1.7,28.8c7.3,7.6,17.6,9.5,28.2-1.1s10-37,10.3-37.3
			C346,34.9,319.9,33.9,309.2,44.6z"/>
	</g>
	<g>
		<path fill="#903F98" d="M282.5,37.7c-5.8,22.9-16.5,30.5-26.8,28.5s-16.3-13-10.5-35.9s31.4-46.3,31.5-47
			C276.8-16.7,288.4,14.8,282.5,37.7z"/>
	</g>
	<g>
		<path fill="#AE1E59" d="M268.4,36c-5.2,14.3,0.7,23,10.5,26.7s19.9,0.9,25-13.4s-6.5-37.8-6.3-38.3
			C297.5,11.1,273.5,21.7,268.4,36z"/>
	</g>
	<g>
		<path fill="#AE1E59" d="M269.4,34.2c-0.1,15.2-8.7,21.4-19.2,21.4s-18.9-6.1-18.8-21.2c0.1-15.2,19.3-33.2,19.3-33.7
			C250.7,0.7,269.5,19.1,269.4,34.2z"/>
	</g>
	<path fill="#F7E575" d="M204.1,50.8c-28.2,13.1-47.3,38-49.8,67.1l0,0c0,1.1,0,2.1,0,3c0.1,8.5,28.6,24,47.3,24
		c19.5,0,41.5-4.7,48.2-17.4c6.7,12.7,28.7,17.4,48.2,17.4c18.6,0,47.1-15.6,47.3-24c0-0.9,0-1.9,0-3h0.3
		c-2.5-29.1-22.3-54-50.4-67.1c0,0-14.9-9.9-45.5-9.9C223.9,41,204.1,50.8,204.1,50.8z M204.4,136.1c-10,0-18.1-8.2-18.1-18.3
		s8.1-18.3,18.1-18.3s18.1,8.2,18.1,18.3S214.4,136.1,204.4,136.1z M295.2,136.1c-10,0-18-8.1-18.1-18.1h0.2
		c-0.1-0.6-0.1-1.2-0.2-1.8c0.8-9.3,8.6-16.6,18-16.6c10,0,18.1,8.2,18.1,18.3S305.2,136.1,295.2,136.1z"/>
	<g>
		<path fill="#FEF5A0" d="M321.6,71.9c-7.9-8.1-17.6-14.9-28.5-20c2,1.2-14.7-9.6-45.6-9.8c-25.8-0.1-45.6,9.8-45.6,9.8
			c-9.9,4.6-17.9,10.6-25.4,17.7c24.7,9.3,72.5,27,72.5,27L321.6,71.9z"/>
	</g>
	<circle fill="#50C9ED" cx="175" cy="107.6" r="4.3"/>
	<circle fill="#50C9ED" cx="186.8" cy="94.1" r="4.3"/>
	<circle fill="#50C9ED" cx="203.5" cy="88.7" r="4.3"/>
	<circle fill="#D0D2D3" cx="146.3" cy="86.7" r="4.3"/>
	<circle fill="#D0D2D3" cx="169.7" cy="54.9" r="4.3"/>
	<circle fill="#D0D2D3" cx="144.7" cy="64.2" r="4.3"/>
	<circle fill="#D0D2D3" cx="126" cy="101.8" r="4.3"/>
	<circle fill="#D0D2D3" cx="180.1" cy="31.7" r="4.3"/>
	<circle fill="#D0D2D3" cx="224.3" cy="13.5" r="4.3"/>
	<circle fill="#D0D2D3" cx="354.7" cy="64.2" r="4.3"/>
	<circle fill="#D0D2D3" cx="372.4" cy="101.8" r="4.3"/>
	<circle fill="#D0D2D3" cx="317.7" cy="31.7" r="4.3"/>
	<circle fill="#D0D2D3" cx="268.4" cy="13.5" r="4.3"/>
	<circle fill="#D0D2D3" cx="206.9" cy="32.5" r="4.3"/>
	<circle fill="#D0D2D3" cx="250.3" cy="24.9" r="4.3"/>
	<circle fill="#D0D2D3" cx="290.7" cy="32.5" r="4.3"/>
	<circle fill="#D0D2D3" cx="326.1" cy="54.9" r="4.3"/>
	<circle fill="#D0D2D3" cx="350.4" cy="86.7" r="4.3"/>
	<circle fill="#50C9ED" cx="220.3" cy="94.9" r="4.3"/>
	<circle fill="#50C9ED" cx="324.5" cy="107.6" r="4.3"/>
	<circle fill="#50C9ED" cx="312.7" cy="94.1" r="4.3"/>
	<circle fill="#50C9ED" cx="295.9" cy="88.7" r="4.3"/>
	<circle fill="#50C9ED" cx="279.2" cy="94.9" r="4.3"/>
	<path fill="#FEF5A0" d="M239.1,137.3c2.1-2.6,7-8.8,10.2-12.8c0.8-1,2.3-1,3.1,0.1l9.3,12.7c0.6,0.8,0.5,1.8,0,2.6l-9.8,12.5
		c-0.8,1-2.3,1-3.1,0l-9.8-12.5C238.5,139.2,238.5,138.1,239.1,137.3z"/>
	<g>
		<path fill="#AC6CAD" d="M345.5,122.9c-2.6,0-4.7-1.9-4.9-4.4c-0.2-1.9,0.7-3.8,2.3-4.7c-1.5-0.4-2.9-1.6-3.4-3.2
			c-0.2-0.5-0.3-1.1-0.3-1.6c0-1.5,0.7-2.9,1.8-3.8c-1.8-0.3-3.4-1.5-4-3.3c0-0.1-0.1-0.3-0.1-0.4c-0.4-1.7,0.1-3.4,1.2-4.6
			c-1.9,0-3.6-1.1-4.4-2.9c-0.8-1.7-0.6-3.6,0.5-5.1c-1.8,0.2-3.6-0.6-4.6-2.2l0,0c-1.1-1.6-1.1-3.7-0.2-5.3c-1.8,0.4-3.8-0.3-5-1.8
			s-1.4-3.4-0.6-5.1c-1.7,0.6-3.7,0.2-5.1-1.2l0,0c-1.4-1.4-1.8-3.3-1.2-5.1c-1.5,0.7-3.3,0.6-4.8-0.4c-0.3-0.2-0.5-0.4-0.8-0.6
			c-1.2-1.2-1.7-3-1.3-4.6c-1.6,0.9-3.6,0.9-5.2-0.2c-0.3-0.2-0.5-0.4-0.8-0.6c-1.1-1.1-1.6-2.7-1.4-4.1c-1.5,1.1-3.5,1.2-5.2,0.3
			s-2.8-2.8-2.6-4.7c-1.5,1.2-3.7,1.5-5.4,0.5c-1.6-0.8-2.6-2.5-2.7-4.2c-1.3,1.2-3.1,1.7-4.9,1.2c-1.9-0.6-3.2-2.2-3.5-4
			c-1.1,1.4-2.9,2.1-4.8,1.8s-3.5-1.8-3.9-3.7c-0.9,1.3-2.4,2.2-4.1,2.2c-0.5,0-1.1-0.1-1.6-0.3c-1.5-0.5-2.7-1.7-3.1-3.1
			c-0.8,1.5-2.5,2.6-4.3,2.6c-0.5,0-1.1-0.1-1.6-0.3c-1.4-0.5-2.5-1.5-3-2.8c-0.8,1.7-2.5,2.9-4.5,2.9l0,0c-1.9,0-3.6-1.1-4.4-2.7
			c-0.6,1.7-2.2,3-4,3.2c-1.9,0.2-3.8-0.7-4.8-2.3c-0.4,1.6-1.7,3-3.4,3.5c-0.4,0.1-0.9,0.2-1.4,0.2c-1.6,0-3.1-0.8-4-2
			c-0.3,1.8-1.6,3.3-3.4,3.8c-1.9,0.6-4-0.1-5.2-1.5c-0.2,1.9-1.5,3.5-3.4,4.2c-0.1,0-0.2,0.1-0.2,0.1c-1.8,0.5-3.6,0-4.8-1.2
			c0,1.9-1.2,3.7-3,4.5c-1.7,0.7-3.7,0.4-5.1-0.7c0.1,1.7-0.7,3.5-2.2,4.5c-0.4,0.2-0.8,0.4-1.2,0.6c-1.5,0.5-3.1,0.2-4.3-0.6
			c0.3,1.8-0.4,3.7-2,4.9c-1.6,1.1-3.6,1.2-5.2,0.4c0.5,1.7,0,3.6-1.4,4.9c-1.4,1.4-3.5,1.7-5.3,1c0.6,1.6,0.4,3.5-0.8,5
			c-0.1,0.1-0.2,0.2-0.3,0.3c-1.3,1.3-3.2,1.7-4.8,1.3c0.8,1.5,0.8,3.5-0.3,5c-0.2,0.3-0.4,0.5-0.6,0.8c-1.2,1.2-2.8,1.6-4.3,1.4
			c1,1.4,1.1,3.3,0.3,5c-0.1,0.2-0.2,0.4-0.3,0.5c-1,1.5-2.6,2.3-4.3,2.2c1.2,1.4,1.5,3.4,0.8,5.2c-0.7,1.7-2.4,2.8-4.2,3
			c1.3,1.2,1.9,3.2,1.4,5s-2,3.1-3.8,3.5c1.4,1.1,2.3,2.9,2,4.7c-0.4,2.7-2.8,4.5-5.5,4.2s-4.6-2.8-4.3-5.5c0-0.1,0-0.2,0-0.2
			c0.3-2.1,2-3.7,3.9-4c-1.6-1.2-2.4-3.2-1.9-5.2c0-0.1,0.1-0.3,0.1-0.4c0.7-2,2.4-3.2,4.3-3.4c-1.4-1.3-2-3.3-1.3-5.2
			c0.1-0.2,0.2-0.5,0.3-0.7c0.9-1.8,2.7-2.9,4.6-2.7c-1.3-1.6-1.6-3.8-0.5-5.7c1-1.8,3.1-2.8,5.1-2.5c-1.2-1.8-1.1-4.1,0.2-5.8
			c1.3-1.6,3.3-2.3,5.2-1.7c-0.9-1.8-0.7-4,0.7-5.6s3.6-2.1,5.5-1.3c-0.6-1.6-0.4-3.5,0.8-5c0.2-0.3,0.5-0.5,0.7-0.7
			c1.6-1.3,3.7-1.4,5.4-0.5c-0.5-1.8,0.1-3.9,1.7-5.2c0.1-0.1,0.2-0.2,0.4-0.3c1.7-1.1,3.9-1.1,5.5,0c-0.4-2.1,0.7-4.2,2.6-5.2
			c1.8-0.9,3.9-0.7,5.4,0.5c-0.1-1.8,0.8-3.7,2.5-4.7c0.3-0.2,0.6-0.3,0.9-0.4c1.8-0.6,3.7-0.1,5,1.2c0-2.1,1.4-4,3.5-4.6
			c1.9-0.6,4,0,5.3,1.5c0.2-1.9,1.5-3.5,3.4-4.2c0.1,0,0.2-0.1,0.2-0.1c2-0.6,4.2,0.2,5.4,1.8c0.4-2,2-3.6,4-4c2-0.3,4,0.6,5.1,2.3
			c0.4-1.5,1.6-2.8,3.2-3.4c0.5-0.2,1.1-0.3,1.6-0.3c1.9,0,3.6,1.1,4.4,2.7c0.7-1.9,2.5-3.2,4.7-3.2c2.1,0,3.9,1.3,4.6,3.1
			c0.9-2,3-3.1,5.1-2.9c1.9,0.2,3.5,1.6,4.1,3.4c1-1.8,3-2.8,5-2.5c2.1,0.3,3.7,1.8,4.2,3.7c0.9-1.3,2.4-2.2,4.1-2.2
			c0.5,0,1.1,0.1,1.6,0.3c1.8,0.6,3.1,2.2,3.3,4c1.2-1.5,3.1-2.2,5.1-1.7c0.1,0,0.3,0.1,0.4,0.1c2,0.7,3.3,2.5,3.4,4.6
			c1.3-1.3,3.2-1.8,5-1.2c0.4,0.1,0.8,0.3,1.2,0.6c1.5,1,2.3,2.7,2.2,4.5c1.3-1,3-1.4,4.7-0.9c0.4,0.1,0.8,0.3,1.2,0.6
			c1.6,1.1,2.4,3,2.2,4.8c1.8-1.3,4.2-1.2,5.9,0.1c1.6,1.2,2.2,3.2,1.8,5c1.7-1,3.9-0.9,5.5,0.4c1.7,1.3,2.3,3.5,1.7,5.5
			c1.8-0.8,4-0.5,5.5,1s1.8,3.7,1,5.6c1.7-0.6,3.7-0.2,5.1,1.2c0.2,0.2,0.4,0.5,0.6,0.8c1.1,1.6,1.1,3.7,0.2,5.3
			c1.9-0.4,4,0.4,5.2,2.1c1.2,1.8,1.1,4.1-0.2,5.7c1.8-0.2,3.6,0.6,4.6,2.2c0.2,0.4,0.4,0.8,0.6,1.2c0.6,1.8,0.1,3.7-1.1,5
			c2.1,0,4,1.4,4.7,3.5c0.6,2-0.1,4-1.6,5.3c2.1,0.3,3.8,1.9,4.2,4c0.4,2-0.5,4-2.2,5.1c1.7,0.5,3.1,1.8,3.5,3.6
			c0.1,0.4,0.2,0.8,0.2,1.2C350.5,120.7,348.2,122.9,345.5,122.9z"/>
	</g>
</g>
</svg>
