<?xml version="1.0" encoding="utf-8"?>
<!-- Generator: Adobe Illustrator 18.0.0, SVG Export Plug-In . SVG Version: 6.00 Build 0)  -->
<!DOCTYPE svg PUBLIC "-//W3C//DTD SVG 1.1//EN" "http://www.w3.org/Graphics/SVG/1.1/DTD/svg11.dtd">
<svg version="1.1" id="content" xmlns="http://www.w3.org/2000/svg" xmlns:xlink="http://www.w3.org/1999/xlink" x="0px" y="0px"
	 width="500px" height="500px" viewBox="0 0 500 500" enable-background="new 0 0 500 500" xml:space="preserve">
<rect id="position" x="0" y="0" display="none" fill="none" stroke="#000000" width="500" height="500"/>
<g id="bounds" display="none">
	<rect x="138.5" y="-57.9" display="inline" fill="none" stroke="#000000" stroke-width="0.7688" width="192.3" height="202.8"/>
</g>
<g>
	<g>
		<path fill="#B4AB68" d="M207.5,85.8l-1-0.3c0.1-0.3,7.7-29-8.3-50.5c-7.1-9.3-14.2-10.9-18.1-9.6c-2.7,0.9-4.2,3.3-4.1,6.4l-1,0
			c-0.1-3.5,1.7-6.3,4.8-7.4c4.2-1.5,11.8,0.2,19.2,9.9C215.3,56.3,207.6,85.5,207.5,85.8L207.5,85.8z"/>
		<path fill="#B4AB68" d="M207,85.5c0-0.2-0.9-17.1-12.2-20.6c-3.6-1.1-6.3-1-8.1,0.4c-2.7,2.1-2.6,6.3-2.6,6.4l-1,0
			c0-0.2-0.1-4.8,3-7.2c2.1-1.6,5.2-1.8,9.1-0.6c12,3.8,12.9,20.8,12.9,21.6L207,85.5L207,85.5z"/>
		<path fill="#6AA345" d="M252.3,25.6c0,0-2.2-25.1-29-40.6c8.5,40.3-19.2,100.6-19.2,100.6l26.1,4.8L252.3,25.6z"/>
		<path fill="#83CC54" d="M270.2,46.2c0,0-1.4-32.1-19-44.9c5.5,23.6-19.5,74.5-45.8,84.4C237.6,84.2,270.2,46.2,270.2,46.2z"/>
		<path fill="#76B54C" d="M204.8,85.5l17.6,1.3l47-3.8c0,0,25.7-31.8,7-66C271,46.4,239.9,79.6,204.8,85.5z"/>
		<path opacity="0.2" fill="#2F3326" enable-background="new    " d="M204.1,85.6c0,0,19.9,14.9,46,14.2
			c26.1-0.7,35.2-14.8,35.2-14.8L204.1,85.6z"/>
		<path fill="#C5DD5E" d="M204.8,85.5c0,0,39.3,18.1,79.2,1.2c16.5-19.6,7.5-42.3,7.5-42.3S264,91.7,204.8,85.5z"/>
	</g>
	<circle fill="#F0F267" cx="177.1" cy="31.9" r="3.1"/>
	<circle fill="#F0F267" cx="185.3" cy="70.5" r="3.1"/>
</g>
</svg>
