<?xml version="1.0" encoding="utf-8"?>
<!-- Generator: Adobe Illustrator 18.0.0, SVG Export Plug-In . SVG Version: 6.00 Build 0)  -->
<!DOCTYPE svg PUBLIC "-//W3C//DTD SVG 1.1//EN" "http://www.w3.org/Graphics/SVG/1.1/DTD/svg11.dtd">
<svg version="1.1" id="content" xmlns="http://www.w3.org/2000/svg" xmlns:xlink="http://www.w3.org/1999/xlink" x="0px" y="0px"
	 width="500px" height="500px" viewBox="0 0 500 500" enable-background="new 0 0 500 500" xml:space="preserve">
<rect id="position" display="none" fill="none" stroke="#000000" width="500" height="500"/>
<g id="bounds" display="none">
	<rect x="186.7" y="-30.7" display="inline" fill="none" stroke="#000000" stroke-width="0.5436" width="126.7" height="133.7"/>
</g>
<g>
	<path fill="#5C7599" d="M268.2,38.5c-10-9.8-14-17.4-14-17.4h-4.5h-4.3c0,0-4.3,7.6-14.4,17.4c-14.3,14-20.7,31.4-22.2,43.9
		c0,0,22.9-4,40.9-4s40.7,4,40.7,4C288.9,70,282.5,52.5,268.2,38.5z"/>
	<path fill="#DFE1E5" d="M278.8,51.5l-5.3,6.2l-11.7-11l-12.1,11.5l-12.3-11.5l-11.7,11l-5.3-6.3c-7.2,9.3-9,16.6-9.9,22.4
		c7.1-1.1,25.5,0,39.2,0c13.7,0,32-1.1,39.1,0C287.8,68.1,286,60.8,278.8,51.5z"/>
	<path fill="#995C5C" d="M288,70.8l-6.9-7.7l-7.5,8.7l-11.7-11l-12.3,11.5l-12.3-11.5l-11.7,11l-7.5-8.7l-6.9,7.7
		c-1.3,4.1-2.1,8.1-2.5,11.6c0,0,22.9-4,40.9-4s40.9,4,40.9,4C290.1,78.9,289.2,74.9,288,70.8z"/>
	<path opacity="0.1" fill="#191919" enable-background="new    " d="M246.8,78.4c1,0,1.9,0,2.9,0c0.4,0,0.8,0,1.2,0
		c0.1,0,0.3,0,0.5,0c15.1,0,33.4,2.8,39,3.7c0,0,0.1,0,0.2,0c-0.3-2.7-0.9-5.7-1.8-8.9c-1-5.7-2.9-12.8-9.8-21.8l0,0
		c-2.9-4.5-6.4-8.9-10.6-13c-10-9.8-14-17.4-14-17.4h-2.9h-1.6h-0.4C249.3,21.2,271.1,51.7,246.8,78.4z"/>
	<path fill="#804D4D" d="M210.2,83.3c-0.9,0-1.7-0.6-1.9-1.5c-0.3-1.1,0.3-2.2,1.4-2.5c1.2-0.3,30.4-8.2,79.7,0
		c1.1,0.2,1.8,1.2,1.6,2.3c-0.2,1.1-1.2,1.8-2.3,1.6c-48.4-8-77.7-0.1-78,0C210.6,83.3,210.4,83.3,210.2,83.3L210.2,83.3z"/>
	<circle fill="#DFE1E5" cx="249.6" cy="7.2" r="18.4"/>
	<path fill="#C8CCCE" d="M253.6,25.2c8.2-1.5,14.6-9.8,14.4-18c0-9-6.5-16.5-15-18.1C261.8-3.3,260.8,12.2,253.6,25.2z"/>
</g>
</svg>
