<?xml version="1.0" encoding="utf-8"?>
<!-- Generator: Adobe Illustrator 18.0.0, SVG Export Plug-In . SVG Version: 6.00 Build 0)  -->
<!DOCTYPE svg PUBLIC "-//W3C//DTD SVG 1.1//EN" "http://www.w3.org/Graphics/SVG/1.1/DTD/svg11.dtd">
<svg version="1.1" id="content" xmlns="http://www.w3.org/2000/svg" xmlns:xlink="http://www.w3.org/1999/xlink" x="0px" y="0px"
	 width="500px" height="500px" viewBox="0 0 500 500" enable-background="new 0 0 500 500" xml:space="preserve">
<rect id="position" display="none" fill="none" stroke="#000000" width="500" height="500"/>
<g id="bounds" display="none">
	<rect x="0.2" y="80.2" display="inline" fill="none" stroke="#EAEAEA" stroke-miterlimit="10" width="499.5" height="499.5"/>
</g>
<g>
	<path fill="#6C6359" d="M395.6,340.8c-15.2-24.4-43.2-34.2-43.2-34.2s-5-20.7-19.5-37.3C307,236.4,250,239.5,250,239.5
		s-57-3.1-82.9,29.8c-14.5,16.6-19.5,37.3-19.5,37.3s-28.1,9.9-43.2,34.2c-15.2,24.4-17.8,47-13.7,63.2c1.5,9.8,1.5,9.8,1.5,9.8
		l21.8,4.2c0,0,23.5-5.5,42.9-61.7c6.2-18.3,3.9-27.9,3.9-27.9c1.2-5.7,1.9-9.4,1.9-9.4l8.1-7.5c0,0,22,5.8,79.2,5.8
		c57.2,0,79.2-5.8,79.2-5.8l8.1,7.5c0,0,0.7,3.7,1.9,9.4c0,0-2.4,9.6,3.9,27.9c19.5,56.2,42.9,61.7,42.9,61.7l21.8-4.2
		c0,0,0,0,1.5-9.8C413.4,387.7,410.8,365.2,395.6,340.8z"/>
	<path opacity="0.1" fill="#161E10" enable-background="new    " d="M330.2,316.5l-80.2,9.9l-80.2-9.9l-1.8,15c0,0,20,9.3,82,9.3
		c62,0,82-9.3,82-9.3L330.2,316.5z"/>
	<path fill="#918673" d="M411,392.8c-0.1,2.1-0.4,4.4-1.1,8.5c-6.3,14.8-32.8,11.8-50.5-22.1c-13.6-26.2-15.8-56.3-15.8-56.3
		s3.8-7,0.5-16.9c-13.5-43.1-94.1-39.7-94.1-39.7s-80.7-3.3-94.1,39.7c-3.3,9.9,0.5,16.9,0.5,16.9s-4.6,32.1-17.3,58.9
		c-13.8,29.2-42.2,30.8-49,19.5c-0.7-4.1-1-6.4-1.1-8.5c-3.9,0.7-7.4,5.9-7,13.3c0.4,7.4,7.6,17.7,24.8,17.7
		c17.2,0,32.6-7.4,49.6-45.5s14.8-57.2,14.8-57.2c15,10.2,78.7,9.3,78.7,9.3s63.8,0.9,78.7-9.3c0,0-2.2,19.2,14.8,57.2
		c17.1,38.1,32.5,45.5,49.6,45.5c17.2,0,24.4-10.3,24.8-17.7C418.3,398.7,414.8,393.4,411,392.8z"/>
	<path opacity="0.5" fill="#796F64" enable-background="new    " d="M395.6,340.8c-6.1-9.8-14.2-17.2-21.8-22.6
		c0.3,15.5,3.2,35.9,14.3,49.3c6.3,7.7,14.5,12.6,22.7,15.8C409.7,370.6,405.1,356,395.6,340.8z"/>
	<path opacity="0.5" fill="#796F64" enable-background="new    " d="M104.3,340.8c6.1-9.8,14.2-17.2,21.8-22.6
		c-0.3,15.5-3.2,35.9-14.3,49.3c-6.3,7.7-14.5,12.6-22.7,15.8C90.3,370.6,94.9,356,104.3,340.8z"/>
	<ellipse fill="#635B52" cx="250" cy="239.5" rx="7.3" ry="4.3"/>
	<path fill="#8A806D" d="M379.8,416.5c-28.5-10.1-44.6-74.2-45.2-96.4c-0.2-5.1-0.2-8.3-0.3-10.4c-11.7,10.2-49.9,13-84.3,13
		s-72.5-2.8-84.3-13c-0.1,2.1-0.1,5.4-0.3,10.4c-0.7,22.2-16.8,86.3-45.2,96.4c-15.1,5.3-26.5,1.1-35.4-2.5
		c3.5,5.2,10.5,9.8,21.9,9.8c17.2,0,32.6-7.4,49.6-45.5c17.1-38.1,14.9-57.2,14.9-57.2c15,10.2,78.7,9.3,78.7,9.3s63.8,0.9,78.7-9.3
		c0,0-2.2,19.2,14.8,57.2c17.1,38.1,32.5,45.5,49.6,45.5c11.4,0,18.4-4.6,22-9.8C406.2,417.6,394.9,421.8,379.8,416.5z"/>
	<path fill="#968A77" d="M344.1,305.9c-13.5-43.1-94.1-39.7-94.1-39.7s-80.7-3.3-94.1,39.7c-0.9,2.7-1.3,5.2-1.3,7.4
		c7.6-9.9,34-37,95.4-37c61.9,0,88.2,27.5,95.6,37.2C345.4,311.3,345,308.7,344.1,305.9z"/>
</g>
</svg>
