<?xml version="1.0" encoding="utf-8"?>
<!-- Generator: Adobe Illustrator 18.0.0, SVG Export Plug-In . SVG Version: 6.00 Build 0)  -->
<!DOCTYPE svg PUBLIC "-//W3C//DTD SVG 1.1//EN" "http://www.w3.org/Graphics/SVG/1.1/DTD/svg11.dtd">
<svg version="1.1" id="content" xmlns="http://www.w3.org/2000/svg" xmlns:xlink="http://www.w3.org/1999/xlink" x="0px" y="0px"
	 width="500px" height="500px" viewBox="0 0 500 500" enable-background="new 0 0 500 500" xml:space="preserve">
<rect id="position" display="none" fill="none" stroke="#000000" width="500" height="500"/>
<g id="bounds" display="none">
	<rect x="0.2" y="80.2" display="inline" fill="none" stroke="#EAEAEA" stroke-miterlimit="10" width="499.5" height="499.5"/>
</g>
<g>
	<path fill="#5C7599" d="M297.3,336.4c-25.8-25.1-35.9-44.5-35.9-44.5h-11.6h-11c0,0-11.1,19.4-36.9,44.5
		c-36.7,35.8-53.1,80.5-56.9,112.5c0,0,58.7-10.3,104.8-10.3s104.5,10.3,104.5,10.3C350.4,416.9,334,372.1,297.3,336.4z"/>
	<path fill="#EFF1F4" d="M324.6,369.6L311,385.4l-30-28.2l-31.1,29.5l-31.4-29.5l-30,28.2l-13.7-16.1c-18.4,23.9-23,42.7-25.4,57.5
		c18.2-2.9,65.4,0,100.5,0c35.1,0,82-2.9,100.2,0C347.7,412,343.1,393.5,324.6,369.6z"/>
	<path fill="#995C5C" d="M348.1,419.1l-17.7-19.8l-19.2,22.3l-30-28.2l-31.4,29.5l-31.4-29.5l-30,28.2l-19.2-22.3l-17.7,19.8
		c-3.3,10.6-5.4,20.7-6.5,29.7c0,0,58.7-10.3,104.8-10.3s104.8,10.3,104.8,10.3C353.5,439.8,351.3,429.7,348.1,419.1z"/>
	<path opacity="0.1" fill="#191919" enable-background="new    " d="M242.4,438.6c2.5-0.1,4.9-0.1,7.3-0.1c1,0,2,0,3,0
		c0.4,0,0.8,0,1.2,0c38.6,0,85.7,7.2,100.1,9.6c0.1,0,0.3,0,0.4,0c-0.9-7-2.4-14.7-4.6-22.7c-2.5-14.6-7.4-32.7-25.2-55.8l-0.1,0.1
		c-7.5-11.5-16.5-22.8-27.3-33.4c-25.8-25.1-35.9-44.5-35.9-44.5H254h-4.2h-0.9C248.8,291.8,304.7,370.2,242.4,438.6z"/>
	<path fill="#804D4D" d="M148.7,451.2c-2.2,0-4.3-1.5-4.9-3.8c-0.8-2.7,0.8-5.6,3.6-6.3c3.1-0.9,77.9-21,204.3-0.1
		c2.8,0.5,4.7,3.1,4.2,5.9c-0.5,2.8-3.1,4.7-5.9,4.2c-124.2-20.5-199.2-0.3-199.9-0.1C149.6,451.1,149.1,451.2,148.7,451.2
		L148.7,451.2z"/>
	<circle fill="#EFF1F4" cx="249.8" cy="256.1" r="47.3"/>
	<path fill="#DCDEE0" d="M260.1,302.2c21-3.9,37.3-25,36.9-46.1c0-23.1-16.6-42.3-38.6-46.4C281,229,278.3,268.7,260.1,302.2z"/>
</g>
</svg>
