<?xml version="1.0" encoding="utf-8"?>
<!-- Generator: Adobe Illustrator 18.0.0, SVG Export Plug-In . SVG Version: 6.00 Build 0)  -->
<!DOCTYPE svg PUBLIC "-//W3C//DTD SVG 1.1//EN" "http://www.w3.org/Graphics/SVG/1.1/DTD/svg11.dtd">
<svg version="1.1" id="content" xmlns="http://www.w3.org/2000/svg" xmlns:xlink="http://www.w3.org/1999/xlink" x="0px" y="0px"
	 width="500px" height="500px" viewBox="0 0 500 500" enable-background="new 0 0 500 500" xml:space="preserve">
<rect id="position" display="none" fill="none" stroke="#000000" width="500" height="500"/>
<g id="bounds" display="none">
	<rect x="101.8" y="-110.2" display="inline" fill="none" stroke="#000000" stroke-width="0.9205" width="295.5" height="311.7"/>
</g>
<g>
	<path fill="#C489BC" d="M285.6,77.4l-36-89.8l-35.2,87.9c-0.2,0.4-0.4,0.8-0.5,1.3l-0.1,0.6c-0.1,0.3-0.1,0.7-0.1,1
		c0,7.8,16.1,14.2,35.9,14.2c19.8,0,36-6.3,36-14.2C285.6,78.1,285.6,77.4,285.6,77.4z"/>
	<g>
		<polygon fill="#95C8EC" points="230.2,36.2 278.4,59.4 272.1,43.8 234.6,25.4 		"/>
		<path fill="#95C8EC" d="M222.6,55.2l60.1,28.9c1.9-1.7,3-3.6,3-5.6c0-0.3,0-0.7-0.1-1l-2.2-5.5L227,44.3L222.6,55.2z"/>
		<path fill="#95C8EC" d="M218.3,66l-3.8,9.5c-0.2,0.4-0.4,0.8-0.5,1.3l0,0.1l32.5,15.7c1,0,2.1,0.1,3.1,0.1
			c6.9,0,13.3-0.8,18.8-2.1L218.3,66z"/>
		<polygon fill="#95C8EC" points="237.8,17.2 267.1,31.3 260.8,15.6 242.1,6.4 		"/>
		<polygon fill="#95C8EC" points="249.7,-12.3 245.4,-1.8 255.9,3.3 		"/>
	</g>
	<path opacity="0.69" fill="#D5BFD9" d="M249.7-12.3l-35.2,87.9c-0.2,0.4-0.5,1.3-0.5,1.3l-0.1,0.6c-0.1,0.3-0.1,0.7-0.1,1
		C214,85.6,225.6,89,225.6,89L249.7-12.3z"/>
	<polygon fill="#FDD836" points="249.7,-28.2 254.3,-18.8 264.8,-17.2 257.2,-9.9 259,0.5 249.7,-4.4 240.3,0.5 242.1,-9.9 
		234.5,-17.2 245,-18.8 	"/>
	<polygon fill="#FFEB3B" points="249.7,-28.2 252.2,-23 247.5,-3.3 240.3,0.5 242.1,-9.9 234.5,-17.2 245,-18.8 	"/>
</g>
</svg>
