<?xml version="1.0" encoding="utf-8"?>
<!-- Generator: Adobe Illustrator 14.0.0, SVG Export Plug-In . SVG Version: 6.00 Build 43363)  -->
<!DOCTYPE svg PUBLIC "-//W3C//DTD SVG 1.1 Basic//EN" "http://www.w3.org/Graphics/SVG/1.1/DTD/svg11-basic.dtd">
<svg version="1.1" baseProfile="basic" id="content"
	 xmlns="http://www.w3.org/2000/svg" xmlns:xlink="http://www.w3.org/1999/xlink" x="0px" y="0px" width="500px" height="500px"
	 viewBox="0 0 500 500" xml:space="preserve">
<rect id="position" y="0" display="none" fill="none" stroke="#000000" width="500" height="500"/>
<g id="bounds" display="none">
	<rect x="91.494" y="-73.906" display="inline" fill="none" stroke="#000000" width="313.516" height="330.753"/>
</g>
<g>
	<path fill="#E5D5B7" d="M137.468,169.4c-14.596-11.346-12.578-32.908-12.578-32.908s-4.133,5.05-3.766,17.996
		c-4.406-8.906-3.842-18.864,1.229-29.771c-4.463,3.101-8.693,12.408-8.693,12.408c-1.516-11.787,6.088-20.547,6.027-20.438
		c-4.355,1.592-9.791,6.449-9.791,6.449s3.51-11.432,11.211-17.089c0,0-5.449,0.973-8.381-2.548
		c7.43-0.385,12.188-8.432,12.188-8.432s-4.531,2.846-8.463,0.902c6.063-1.458,13.221-12.075,13.221-12.075s-4.27,1.269-7.066-1.646
		c8.195,0.729,15.357-10.5,15.357-10.5s-6.834,3.188-11.766,0.333c10.063-2.368,19.967-11.881,19.967-11.881
		s-8.131,1.44-13.594,4.964c6.729-9.474,21.813-15,21.813-15s-9.273,1.883-13.342-1.032c11.564,0.095,19.365-5.301,22.305-7.742
		l0.619-1.064c-2.051,0.367-8.396,1.659-15.771,4.694c5.387-7.67,19.604-13.583,19.604-13.583s-5.496-0.313-15.186,3.777
		c0,0,13.461-11.915,28.803-10.182c0,0-7.906-2.02-10.188-5.542c8.016,1.762,21.229-3.051,21.229-3.051
		c0.004,0.001-5.094-1.519-12.131-0.525c10.412-6.868,23.611-6.132,23.611-6.132s-2.438-3.254-8.502-3.861
		c8.596-2.247,19.164,2.404,19.164,2.404s-0.848-3.544-6.684-5.953c8.893-0.37,16.74,4.057,16.74,4.057
		c-0.689-1.38-0.662-1.3-2.078-4.453C228.062,2.483,232.8,6.22,232.8,6.22s0.756-2.313-1.27-5.184
		c4.98,0.38,9.432,5.798,9.432,5.798c2.965-6.37,8.682-7.247,8.682-7.247s-0.977,3.759,0.738,6.733
		c3.625-1.671,3.012-4.613,3.012-4.613s2.496,0.382,5.461,5.127c0,0,4.449-5.418,9.432-5.798c-2.025,2.871-1.27,5.184-1.27,5.184
		s4.736-3.737,10.227-4.244c-1.418,3.153-1.391,3.073-2.08,4.453c0,0,7.85-4.427,16.74-4.057c-5.836,2.408-6.684,5.953-6.684,5.953
		s10.568-4.649,19.164-2.404c-6.064,0.607-8.502,3.861-8.502,3.861s13.199-0.736,23.611,6.132
		c-7.035-0.991-12.135,0.527-12.131,0.525c0,0,13.215,4.813,21.229,3.051c-2.279,3.523-10.188,5.542-10.188,5.542
		c15.342-1.731,28.803,10.182,28.803,10.182c-9.689-4.091-15.186-3.777-15.186-3.777s14.217,5.913,19.605,13.583
		c-7.375-3.036-13.723-4.327-15.773-4.694l0.619,1.064c2.938,2.441,10.74,7.837,22.305,7.742
		c-4.066,2.915-13.342,1.032-13.342,1.032s15.082,5.526,21.813,15c-5.463-3.521-13.594-4.964-13.594-4.964
		s9.902,9.513,19.965,11.881c-4.93,2.854-11.764-0.333-11.764-0.333s7.162,11.229,15.359,10.5c-2.799,2.915-7.068,1.646-7.068,1.646
		s7.158,10.617,13.221,12.075c-3.932,1.942-8.463-0.902-8.463-0.902s4.758,8.047,12.188,8.432c-2.932,3.521-8.381,2.548-8.381,2.548
		c7.701,5.657,11.211,17.089,11.211,17.089s-5.436-4.857-9.791-6.449c-0.061-0.106,7.543,8.652,6.027,20.438
		c0,0-4.23-9.309-8.693-12.408c5.07,10.905,5.639,20.863,1.23,29.771c0.367-12.946-3.768-17.996-3.768-17.996
		s2.998,23.146-11.576,34.015c0,0,4.645-23.007-21.105-29.007c0.498-61.765-63.668-72-93.641-72c-63.195,0-114.609,72-114.609,72
		S133.65,156.8,137.468,169.4z"/>
	<path opacity="0.2" fill="#0F0F0F" d="M250.551,74.789c-0.37,0.072-0.696,0.14-0.979,0.198c-8.336-1.738-54.975-6.041-72.1,21.75
		c-18.834,30.567,0.855,29.444,0.855,29.444s25.459-22.148,71.242-22.563c45.782,0.414,71.241,22.563,71.241,22.563
		s19.691,1.123,0.855-29.444C305.127,69.889,261.039,72.727,250.551,74.789"/>
	<path fill="#615A4C" d="M183.595,103.296c-3.469,6.056-7.551,14.063-8.738,14.063c-13.961,0-18.25,0-18.25,0
		s-16.832,20.062-16.832,45.278c36.342,0,110.866,0,110.866,0s73.516,0,109.857,0c0-25.218-15.824-45.278-15.824-45.278
		s-4.289,0-18.25,0c-1.189,0-5.271-8.008-8.74-14.063c0.486,3.212,0.807,7.728,0.807,14.063c0,27.939-43.326,26.201-67.85,26.201
		c-24.524,0-67.852,1.738-67.852-26.201C182.791,111.023,183.111,106.51,183.595,103.296z"/>
	<path fill="#786F5D" d="M254.947,160.637c0,1.104-0.877,2-1.959,2h-26.002c-1.084,0-1.961-0.896-1.961-2v-15.439
		c0-1.104,0.877-2,1.961-2h26.002c1.082,0,1.959,0.896,1.959,2V160.637z"/>
	<path fill="#D6C7AB" d="M254.303,90.452"/>
	<path fill="#D6C7AB" d="M361.281,105.279c0,0,0.113,9.772-3.846,14.228c0.164-9.404-6.619-31.184-15.035-44.218
		c1.875,8.452-1.438,14.488-1.438,14.488c-12.137-26.349-23.201-30.359-23.201-30.359s6.881,10.831,5.869,17.481
		c-6.514-16.546-26.67-24.358-26.67-24.358s2.551,4.596,1.955,13.335c-3.445-11.813-24.307-18.968-24.307-18.968
		s5.15,4.26,3.256,12.416c-0.76-6.901-16.402-13.896-16.402-13.896s2.527,2.981,1.01,15.152
		c0.021-8.804-11.219-16.268-12.543-16.268c-1.322,0-12.563,7.464-12.543,16.268c-1.518-12.17,1.805-14.951,1.805-14.951
		s-16.438,6.793-17.195,13.694c-1.895-8.155,7.014-13.89,7.014-13.89s-20.232,2.935-25.055,18.129c-0.596-8.739,0-11.2,0-11.2
		s-14.922,8.046-21.672,20.491c-3.377-4.49,0.178-14.446,0.178-14.446s-11.428,5.021-23.563,31.37c0,0-2.76-7.559-1.439-14.488
		c-8.414,13.035-15.197,34.813-15.033,44.218c-3.961-4.454-4.025-14.781-4.025-14.781s-16.146,32.664-2.172,55.648
		c4.121,5.251,12.354,8.508,24.393,6.561c-14.771-5.089-8.438-21.145-8.438-21.145s2.141,4.281,10.701,7.807
		c-6.043-8.185-1.844-20.628-1.844-20.628s-0.117,2.132,5.877,8.243c-2.586-13.164,4.23-21.273,4.23-21.273s0.301,3.714,4.818,8.346
		c-0.471-11.166,8.574-23.605,8.574-23.605s1.262,7.825,5.242,13.404c-1.48-12.597,6.604-22.592,6.604-22.592
		s-0.465,5.303,2.416,9.167c1.834-5.907,7.291-10.356,7.291-10.356s0.023,2.591,2.521,8.626c3.072-10.926,9.695-11.996,9.695-11.996
		s-1.807,3.907,1.777,10.195c0.832-9.465,8.256-11.627,8.256-11.627s-3.854,5.706,2.1,10.609c-1.23-3.349,2.127-10.021,7.453-10.882
		c-2.051,2.635-1.08,7.255,1.307,9.592c0.234-3.868,2.852-7.261,5.637-8.363l5.09,5.436l5.09-5.436
		c2.783,1.104,5.398,4.495,5.637,8.363c2.387-2.336,3.354-6.957,1.307-9.592c5.326,0.859,8.684,7.533,7.453,10.882
		c5.953-4.903,2.1-10.609,2.1-10.609s7.422,2.163,8.254,11.627c3.584-6.289,1.779-10.195,1.779-10.195s6.623,1.069,9.695,11.996
		c2.496-6.035,2.521-8.626,2.521-8.626s5.455,4.449,7.291,10.356c2.881-3.864,2.416-9.167,2.416-9.167s8.084,9.995,6.604,22.592
		c3.982-5.58,5.242-13.404,5.242-13.404s9.045,12.439,8.576,23.605c4.518-4.632,4.816-8.346,4.816-8.346s6.816,8.11,4.23,21.273
		c5.994-6.111,5.877-8.243,5.877-8.243s4.199,12.444-1.844,20.628c8.561-3.524,10.701-7.807,10.701-7.807s6.338,16.056-8.438,21.145
		c12.041,1.947,20.27-1.31,24.393-6.561C377.605,137.387,361.281,105.279,361.281,105.279z"/>
</g>
</svg>
