<?xml version="1.0" encoding="utf-8"?>
<!-- Generator: Adobe Illustrator 18.0.0, SVG Export Plug-In . SVG Version: 6.00 Build 0)  -->
<!DOCTYPE svg PUBLIC "-//W3C//DTD SVG 1.1//EN" "http://www.w3.org/Graphics/SVG/1.1/DTD/svg11.dtd">
<svg version="1.1" id="content" xmlns="http://www.w3.org/2000/svg" xmlns:xlink="http://www.w3.org/1999/xlink" x="0px" y="0px"
	 width="500px" height="500px" viewBox="0 0 500 500" enable-background="new 0 0 500 500" xml:space="preserve">
<rect id="position" display="none" fill="none" stroke="#000000" width="500" height="500"/>
<g id="bounds" display="none">
	<rect x="0.2" y="80.2" display="inline" fill="none" stroke="#EAEAEA" stroke-miterlimit="10" width="499.5" height="499.5"/>
</g>
<g>
	<path fill="#E5D5B7" d="M112.3,433.1c-17.8-13.9-15.4-40.2-15.4-40.2s-5.1,6.2-4.6,22c-5.4-10.9-4.7-23.1,1.5-36.4
		c-5.5,3.8-10.6,15.2-10.6,15.2c-1.9-14.4,7.4-25.1,7.4-25c-5.3,1.9-12,7.9-12,7.9s4.3-14,13.7-20.9c0,0-6.7,1.2-10.2-3.1
		c9.1-0.5,14.9-10.3,14.9-10.3s-5.5,3.5-10.3,1.1c7.4-1.8,16.2-14.8,16.2-14.8s-5.2,1.6-8.6-2c10,0.9,18.8-12.8,18.8-12.8
		s-8.4,3.9-14.4,0.4c12.3-2.9,24.4-14.5,24.4-14.5s-9.9,1.8-16.6,6.1c8.2-11.6,26.7-18.3,26.7-18.3s-11.3,2.3-16.3-1.3
		c14.1,0.1,23.7-6.5,27.3-9.5l0.8-1.3c-2.5,0.4-10.3,2-19.3,5.7c6.6-9.4,24-16.6,24-16.6s-6.7-0.4-18.6,4.6c0,0,16.5-14.6,35.2-12.4
		c0,0-9.7-2.5-12.5-6.8c9.8,2.2,26-3.7,26-3.7c0,0-6.2-1.9-14.8-0.6c12.7-8.4,28.9-7.5,28.9-7.5s-3-4-10.4-4.7
		c10.5-2.7,23.4,2.9,23.4,2.9s-1-4.3-8.2-7.3c10.9-0.5,20.5,5,20.5,5c-0.8-1.7-0.8-1.6-2.5-5.4c6.7,0.6,12.5,5.2,12.5,5.2
		s0.9-2.8-1.6-6.3c6.1,0.5,11.5,7.1,11.5,7.1c3.6-7.8,10.6-8.9,10.6-8.9s-1.2,4.6,0.9,8.2c4.4-2,3.7-5.6,3.7-5.6s3.1,0.5,6.7,6.3
		c0,0,5.4-6.6,11.5-7.1c-2.5,3.5-1.6,6.3-1.6,6.3s5.8-4.6,12.5-5.2c-1.7,3.9-1.7,3.8-2.5,5.4c0,0,9.6-5.4,20.5-5
		c-7.1,2.9-8.2,7.3-8.2,7.3s12.9-5.7,23.4-2.9C308.9,234,306,238,306,238s16.1-0.9,28.9,7.5c-8.6-1.2-14.8,0.6-14.8,0.6
		c0,0,16.2,5.9,26,3.7c-2.8,4.3-12.5,6.8-12.5,6.8c18.8-2.1,35.2,12.4,35.2,12.4c-11.8-5-18.6-4.6-18.6-4.6s17.4,7.2,24,16.6
		c-9-3.7-16.8-5.3-19.3-5.7l0.8,1.3c3.6,3,13.1,9.6,27.3,9.5c-5,3.6-16.3,1.3-16.3,1.3s18.4,6.8,26.7,18.3
		c-6.7-4.3-16.6-6.1-16.6-6.1s12.1,11.6,24.4,14.5c-6,3.5-14.4-0.4-14.4-0.4s8.8,13.7,18.8,12.8c-3.4,3.6-8.6,2-8.6,2
		s8.8,13,16.2,14.8c-4.8,2.4-10.3-1.1-10.3-1.1s5.8,9.8,14.9,10.3c-3.6,4.3-10.2,3.1-10.2,3.1c9.4,6.9,13.7,20.9,13.7,20.9
		s-6.6-5.9-12-7.9c-0.1-0.1,9.2,10.6,7.4,25c0,0-5.2-11.4-10.6-15.2c6.2,13.3,6.9,25.5,1.5,36.4c0.4-15.8-4.6-22-4.6-22
		s3.7,28.3-14.2,41.6c0,0,5.7-28.1-25.8-35.5c0.6-75.5-77.8-88-114.5-88c-77.3,0-140.1,88-140.1,88S107.6,417.7,112.3,433.1z"/>
	<path opacity="0.2" fill="#0F0F0F" enable-background="new    " d="M250.5,317.4c-0.5,0.1-0.9,0.2-1.2,0.2
		c-10.2-2.1-67.2-7.4-88.1,26.6c-23,37.4,1,36,1,36s31.1-27.1,87.1-27.6c56,0.5,87.1,27.6,87.1,27.6s24.1,1.4,1-36
		C317.3,311.4,263.4,314.9,250.5,317.4"/>
	<path fill="#615A4C" d="M168.7,352.3c-4.2,7.4-9.2,17.2-10.7,17.2c-17.1,0-22.3,0-22.3,0s-20.6,24.5-20.6,55.4
		c44.4,0,135.5,0,135.5,0s89.9,0,134.3,0c0-30.8-19.3-55.4-19.3-55.4s-5.2,0-22.3,0c-1.5,0-6.4-9.8-10.7-17.2c0.6,3.9,1,9.4,1,17.2
		c0,34.2-53,32-82.9,32s-82.9,2.1-82.9-32C167.7,361.7,168.1,356.2,168.7,352.3z"/>
	<path fill="#786F5D" d="M255.9,422.4c0,1.3-1.1,2.4-2.4,2.4h-31.8c-1.3,0-2.4-1.1-2.4-2.4v-18.9c0-1.3,1.1-2.4,2.4-2.4h31.8
		c1.3,0,2.4,1.1,2.4,2.4V422.4z"/>
	<path fill="#D6C7AB" d="M255.1,336.6"/>
	<path fill="#D6C7AB" d="M385.9,354.7c0,0,0.1,11.9-4.7,17.4c0.2-11.5-8.1-38.1-18.4-54.1c2.3,10.3-1.8,17.7-1.8,17.7
		c-14.8-32.2-28.4-37.1-28.4-37.1s8.4,13.2,7.2,21.4c-8-20.2-32.6-29.8-32.6-29.8s3.1,5.6,2.4,16.3c-4.2-14.4-29.7-23.2-29.7-23.2
		s6.3,5.2,4,15.2c-0.9-8.4-20.1-17-20.1-17s3.1,3.6,1.2,18.5c0-10.8-13.7-19.9-15.3-19.9c-1.6,0-15.4,9.1-15.3,19.9
		c-1.9-14.9,2.2-18.3,2.2-18.3s-20.1,8.3-21,16.7c-2.3-10,8.6-17,8.6-17s-24.7,3.6-30.6,22.2c-0.7-10.7,0-13.7,0-13.7
		s-18.2,9.8-26.5,25.1c-4.1-5.5,0.2-17.7,0.2-17.7s-14,6.1-28.8,38.3c0,0-3.4-9.2-1.8-17.7c-10.3,15.9-18.6,42.6-18.4,54.1
		c-4.8-5.4-4.9-18.1-4.9-18.1s-19.7,39.9-2.7,68c5,6.4,15.1,10.4,29.8,8c-18.1-6.2-10.3-25.8-10.3-25.8s2.6,5.2,13.1,9.5
		c-7.4-10-2.3-25.2-2.3-25.2s-0.1,2.6,7.2,10.1c-3.2-16.1,5.2-26,5.2-26s0.4,4.5,5.9,10.2c-0.6-13.7,10.5-28.9,10.5-28.9
		s1.5,9.6,6.4,16.4c-1.8-15.4,8.1-27.6,8.1-27.6s-0.6,6.5,3,11.2c2.2-7.2,8.9-12.7,8.9-12.7s0,3.2,3.1,10.5
		c3.8-13.4,11.9-14.7,11.9-14.7s-2.2,4.8,2.2,12.5c1-11.6,10.1-14.2,10.1-14.2s-4.7,7,2.6,13c-1.5-4.1,2.6-12.3,9.1-13.3
		c-2.5,3.2-1.3,8.9,1.6,11.7c0.3-4.7,3.5-8.9,6.9-10.2l6.2,6.6l6.2-6.6c3.4,1.3,6.6,5.5,6.9,10.2c2.9-2.9,4.1-8.5,1.6-11.7
		c6.5,1.1,10.6,9.2,9.1,13.3c7.3-6,2.6-13,2.6-13s9.1,2.6,10.1,14.2c4.4-7.7,2.2-12.5,2.2-12.5s8.1,1.3,11.9,14.7
		c3.1-7.4,3.1-10.5,3.1-10.5s6.7,5.4,8.9,12.7c3.5-4.7,3-11.2,3-11.2s9.9,12.2,8.1,27.6c4.9-6.8,6.4-16.4,6.4-16.4
		s11.1,15.2,10.5,28.9c5.5-5.7,5.9-10.2,5.9-10.2s8.3,9.9,5.2,26c7.3-7.5,7.2-10.1,7.2-10.1s5.1,15.2-2.3,25.2
		c10.5-4.3,13.1-9.5,13.1-9.5s7.7,19.6-10.3,25.8c14.7,2.4,24.8-1.6,29.8-8C405.9,394,385.9,354.7,385.9,354.7z"/>
</g>
</svg>
