<?xml version="1.0" encoding="utf-8"?>
<!-- Generator: Adobe Illustrator 18.0.0, SVG Export Plug-In . SVG Version: 6.00 Build 0)  -->
<!DOCTYPE svg PUBLIC "-//W3C//DTD SVG 1.1//EN" "http://www.w3.org/Graphics/SVG/1.1/DTD/svg11.dtd">
<svg version="1.1" id="content" xmlns="http://www.w3.org/2000/svg" xmlns:xlink="http://www.w3.org/1999/xlink" x="0px" y="0px"
	 width="500px" height="500px" viewBox="0 0 500 500" enable-background="new 0 0 500 500" xml:space="preserve">
<rect id="position" display="none" fill="none" stroke="#000000" width="500" height="500"/>
<g id="bounds" display="none">
	<rect x="0.2" y="80.2" display="inline" fill="none" stroke="#EAEAEA" stroke-miterlimit="10" width="499.5" height="499.5"/>
</g>
<g id="accessory">
	<polygon fill="#7A662E" points="56.8,382.6 57.7,382.6 249.4,382.6 249.4,371.3 63.9,377.7 	"/>
	<polygon fill="#7A662E" points="442,382.6 441.1,382.6 249.4,382.6 249.4,371.3 434.9,377.7 	"/>
	<path fill="#7A662E" d="M308.9,281.3c0,0-4.4-9.5-14.6-2.8c-10.3,6.7-44.7,22.1-44.7,22.1s-34.4-15.4-44.7-22.1
		c-10.3-6.7-14.6,2.8-14.6,2.8l-60.7,95.6l120.1,2.3l120.1-2.3L308.9,281.3z"/>
	<polygon fill="#625225" points="130.4,375.4 368,375.4 345.8,338.7 153.9,338.7 	"/>
	<polygon fill="#877035" points="244.4,304.5 199.6,283.8 244.4,330.2 	"/>
	<polygon fill="#877035" points="300.9,283.8 332.4,331.9 279,295.3 	"/>
</g>
</svg>
