<?xml version="1.0" encoding="utf-8"?>
<!-- Generator: Adobe Illustrator 18.0.0, SVG Export Plug-In . SVG Version: 6.00 Build 0)  -->
<!DOCTYPE svg PUBLIC "-//W3C//DTD SVG 1.1//EN" "http://www.w3.org/Graphics/SVG/1.1/DTD/svg11.dtd">
<svg version="1.1" id="content" xmlns="http://www.w3.org/2000/svg" xmlns:xlink="http://www.w3.org/1999/xlink" x="0px" y="0px"
	 width="500px" height="500px" viewBox="0 0 500 500" enable-background="new 0 0 500 500" xml:space="preserve">
<rect id="position" display="none" fill="none" stroke="#000000" width="500" height="500"/>
<g id="bounds" display="none">
	<rect x="0.2" y="80.2" display="inline" fill="none" stroke="#EAEAEA" stroke-miterlimit="10" width="499.5" height="499.5"/>
</g>
<g id="accessory">
	<polygon fill="#A00B0B" points="249.9,252.3 256.9,240.1 259.7,253.9 270.2,244.4 268.6,258.4 281.5,252.6 275.7,265.4 
		289.7,263.9 280.2,274.3 294,277.2 281.8,284.2 294,291.2 280.2,294 289.7,304.4 275.7,302.9 281.5,315.7 268.6,310 270.2,323.9 
		259.7,314.5 256.9,328.3 249.9,316 242.9,328.3 240,314.5 229.6,323.9 231.2,310 218.3,315.7 224.1,302.9 210.1,304.4 219.6,294 
		205.8,291.2 218,284.2 205.8,277.2 219.6,274.3 210.1,263.9 224.1,265.4 218.3,252.6 231.2,258.4 229.6,244.4 240,253.9 
		242.9,240.1 	"/>
	<path fill="#A00B0B" d="M373.9,372.3H125.8c0-44.6,55.5-80.7,124-80.7C318.4,291.6,373.9,327.8,373.9,372.3z"/>
	<path fill="#CC1B1B" d="M249.9,330c-81.6,0-147.8,19.7-147.8,43.9v36.6c0,0,44-21.7,147.8-21.7c105.3,0,147.8,21.7,147.8,21.7
		v-36.6C397.7,349.6,331.5,330,249.9,330z"/>
	<ellipse fill="#CC1B1B" cx="249.9" cy="302.6" rx="43.7" ry="8.1"/>
	<path fill="#A00B0B" d="M397.7,410.5c0,0-2.6-1.4-8-3.6V363c-1.5-1.3-3.3-2.6-5.3-3.9v45.7c-3.9-1.4-8.8-3-14.5-4.7v-48.4
		c-1.7-0.7-3.4-1.4-5.3-2v49c-6.9-1.8-14.9-3.6-24-5.3v-50.7c-1.7-0.4-3.5-0.8-5.3-1.2v50.9c-7.3-1.2-15.3-2.4-24-3.3v-51.7
		c-1.7-0.2-3.5-0.5-5.3-0.7v51.8c-7.5-0.7-15.5-1.4-24-1.8v-52.2c-1.7-0.1-3.5-0.2-5.3-0.3v52.3c-7.6-0.3-15.6-0.5-24-0.6v-52.4
		c-0.9,0-1.8,0-2.7,0c-0.9,0-1.7,0-2.6,0V386c-8.4,0-16.4,0.2-24,0.5v-52.3c-1.8,0.1-3.5,0.2-5.3,0.3v52.2c-8.5,0.4-16.5,1.1-24,1.8
		v-51.8c-1.8,0.2-3.5,0.4-5.3,0.7v51.7c-8.7,1-16.7,2.1-24,3.3v-50.9c-1.8,0.4-3.5,0.8-5.3,1.2v50.6c-9.2,1.7-17.1,3.5-24,5.3v-49
		c-1.8,0.7-3.6,1.3-5.3,2V400c-5.7,1.6-10.6,3.2-14.5,4.6V359c-1.9,1.3-3.7,2.5-5.3,3.9v43.7c-5.7,2.3-8.5,3.8-8.5,3.8s-1.2,6.2,5,9
		c0,0,39-23.4,142.8-23.4c103.8,0,142.8,23.4,142.8,23.4C398.8,416.6,397.7,410.5,397.7,410.5z"/>
</g>
</svg>
