<?xml version="1.0" encoding="utf-8"?>
<!-- Generator: Adobe Illustrator 17.1.0, SVG Export Plug-In . SVG Version: 6.00 Build 0)  -->
<!DOCTYPE svg PUBLIC "-//W3C//DTD SVG 1.1//EN" "http://www.w3.org/Graphics/SVG/1.1/DTD/svg11.dtd">
<svg version="1.1" id="content" xmlns="http://www.w3.org/2000/svg" xmlns:xlink="http://www.w3.org/1999/xlink" x="0px" y="0px"
	 width="500px" height="500px" viewBox="0 0 500 500" enable-background="new 0 0 500 500" xml:space="preserve">
<rect id="position" display="none" fill="none" stroke="#000000" width="500" height="500"/>
<g id="bounds" display="none">
	<rect x="83.7" y="-110.2" display="inline" fill="none" stroke="#000000" stroke-width="0.9205" width="331.6" height="349.8"/>
</g>
<g>
	<path fill="#23110C" d="M304.6,84.5c1.6,12.8-24.5,23.3-54.6,23.3s-54.6-10.4-54.6-23.3c0-28.1,24.5-23.3,54.6-23.3
		S301,54.6,304.6,84.5z"/>
	<path fill="#3F2812" d="M250,40.6c-24.8,0-44.9,13.3-44.9,29.7c0,5.9,2.6,11.4,7,16c1.9,2,5.1,1.7,6.7-0.6
		C224.4,77.6,236.3,72,250,72c13.7,0,25.6,5.6,31.2,13.7c1.6,2.3,4.8,2.6,6.7,0.6c4.5-4.6,7-10.1,7-16
		C294.9,53.9,274.8,40.6,250,40.6z"/>
	<ellipse fill="#23110C" cx="250" cy="41.4" rx="7.6" ry="3.3"/>
</g>
</svg>
