<?xml version="1.0" encoding="utf-8"?>
<!-- Generator: Adobe Illustrator 18.0.0, SVG Export Plug-In . SVG Version: 6.00 Build 0)  -->
<!DOCTYPE svg PUBLIC "-//W3C//DTD SVG 1.1//EN" "http://www.w3.org/Graphics/SVG/1.1/DTD/svg11.dtd">
<svg version="1.1" id="content" xmlns="http://www.w3.org/2000/svg" xmlns:xlink="http://www.w3.org/1999/xlink" x="0px" y="0px"
	 width="500px" height="500px" viewBox="0 0 500 500" enable-background="new 0 0 500 500" xml:space="preserve">
<rect id="position" display="none" fill="none" stroke="#000000" width="500" height="500"/>
<g id="bounds" display="none">
	<rect x="0.2" y="80.2" display="inline" fill="none" stroke="#EAEAEA" stroke-miterlimit="10" width="499.5" height="499.5"/>
</g>
<g id="accessory_1_">
	<path fill="#ED1C24" d="M321.8,370.3L294.5,302c-2.4-6-8.4-12.9-13.3-15.1l-62.8-29.3c-4.9-2.3-12.9-3.2-17.9-2l-67.4,25.9
		c-4.9,1.2-11.1,6.7-13.7,12.1L94.1,345c-5.3,11.6,56.2,30.8,88.6,33c37.1,2.5,134.1,2.3,134.1,2.3
		C322,380.8,324.2,376.3,321.8,370.3z"/>
	<path fill="#D61827" d="M209.5,255.2c0-0.3-4-0.9-9,0.3l-67.4,25.9c-4.9,1.2-11.1,6.7-13.7,12.1L94.1,345
		c-2.7,11.3,35.7,21.9,35.7,21.9l14.8-67.8c1.4-6.3,6.3-13.4,11-15.8l45.6-24.2C205.7,256.6,209.5,255.6,209.5,255.2z"/>
	<path fill="#FCA4AF" d="M298.6,339.9c-1.4-3.5-4.2-7.6-7.2-9.7c-1.8-1.2-3.7-2.1-5.7-2.8c0.5-2.4,1.3-4.8,1.7-6.6
		c0.4-1.9,1.5-9.7-2.5-9c-2.6,0.5-3.7,5-4.2,7.1c-0.6,2.4-0.8,4.8-0.9,7.2c-8.8-0.8-18,2.7-23.1,10c-4.7-4.4-15.7-11.8-15.4-5.3
		c0.2,3.7,4.5,5.6,7.1,7.3c1.8,1.2,3.7,2.4,5.5,3.8c-1.2,3.9-1.6,8.1-1.1,12.2c0.5,3.7,0.7,7.3,2.8,10.4c4.4-1.2,42.6-19,43.4-20
		C300,343.5,299.2,341.3,298.6,339.9z M287.2,344.9c-4.8,2.7-8.9-1.3-8.4-6.3c0.5-4.9,6.6-5.8,9.5-2.2
		C290.5,339.1,290.5,343,287.2,344.9z M266.8,350.8c-3.2,1.8-6-0.9-5.6-4.3c0.4-3.3,4.5-3.9,6.4-1.5C269,347,269,349.6,266.8,350.8z
		"/>
	
		<ellipse transform="matrix(-1 4.399913e-03 -4.399913e-03 -1 418.7195 508.7033)" fill="#B7162A" cx="208.8" cy="254.8" rx="10.4" ry="7.7"/>
	<path fill="#C61E2B" d="M294.6,366.5c-14.3,8-42.7,12.8-42.7,12.8s87.5,56.2,141.9,26.4c54.4-29.8-81-57.3-81-57.3
		S309.4,358.4,294.6,366.5z"/>
</g>
</svg>
