<?xml version="1.0" encoding="utf-8"?>
<!-- Generator: Adobe Illustrator 14.0.0, SVG Export Plug-In . SVG Version: 6.00 Build 43363)  -->
<!DOCTYPE svg PUBLIC "-//W3C//DTD SVG 1.1//EN" "http://www.w3.org/Graphics/SVG/1.1/DTD/svg11.dtd">
<svg version="1.1" id="content" xmlns="http://www.w3.org/2000/svg" xmlns:xlink="http://www.w3.org/1999/xlink" x="0px" y="0px"
	 width="500px" height="500px" viewBox="0 0 500 500" enable-background="new 0 0 500 500" xml:space="preserve">
<g id="bounds" display="none">
	<rect x="178.076" y="-8.727" fill="none" stroke="#000000" width="142.965" height="142.967"/>
</g>
<g id="accessory">
	<path fill="#2B9AC1" d="M216.03,35.2c0,0-18.896,14.005-20.129,50.191c10.441-1.866,13.592-1.831,13.592-1.831l10.281-47.187
		L216.03,35.2z"/>
	<path fill="#2B9AC1" d="M283.088,35.201c0,0,18.896,14.004,20.127,50.191c-10.438-1.864-13.592-1.831-13.592-1.831l-10.277-47.187
		L283.088,35.201z"/>
	<ellipse fill="#054D6D" cx="249.559" cy="30.62" rx="4.66" ry="3.928"/>
	<path fill="#157EAD" d="M283.088,35.201c-9.98-5.446-33.529-4.58-33.529-4.58s-23.547-0.866-33.529,4.579
		c-7.633,29.7-6.537,48.36-6.537,48.36l40.066,0.398l40.064-0.397C289.625,83.562,290.723,64.902,283.088,35.201z"/>
	<path fill="#025989" d="M291.489,74.467c-13.063-8.498-41.93-9.073-41.93-9.073s-28.861,0.576-41.932,9.073
		c-11.693,14.379-17.236,21.639-17.236,21.639s0.068,3.383,6.867,2.597c6.797-0.786,32.926-9.086,52.301-9.086
		s45.506,8.3,52.303,9.086s6.865-2.597,6.865-2.597S303.186,88.845,291.489,74.467z"/>
</g>
<rect id="position" x="0" y="0" display="none" fill="none" stroke="#000000" width="500" height="500"/>
</svg>
