<?xml version="1.0" encoding="utf-8"?>
<!-- Generator: Adobe Illustrator 18.0.0, SVG Export Plug-In . SVG Version: 6.00 Build 0)  -->
<!DOCTYPE svg PUBLIC "-//W3C//DTD SVG 1.1//EN" "http://www.w3.org/Graphics/SVG/1.1/DTD/svg11.dtd">
<svg version="1.1" id="content" xmlns="http://www.w3.org/2000/svg" xmlns:xlink="http://www.w3.org/1999/xlink" x="0px" y="0px"
	 width="500px" height="500px" viewBox="0 0 500 500" enable-background="new 0 0 500 500" xml:space="preserve">
<rect id="position" display="none" fill="none" stroke="#000000" width="500" height="500"/>
<g id="bounds" display="none">
	<rect x="0.2" y="80.2" display="inline" fill="none" stroke="#EAEAEA" stroke-miterlimit="10" width="499.5" height="499.5"/>
</g>
<g id="accessory">
	<path fill="#2B9AC1" d="M162.5,257.4c0,0-49.8,36.9-53,132.2c27.5-4.9,35.8-4.8,35.8-4.8l27.1-124.3L162.5,257.4z"/>
	<path fill="#2B9AC1" d="M339.1,257.4c0,0,49.8,36.9,53,132.2c-27.5-4.9-35.8-4.8-35.8-4.8l-27.1-124.3L339.1,257.4z"/>
	<ellipse fill="#054D6D" cx="250.8" cy="245.3" rx="12.3" ry="10.3"/>
	<path fill="#157EAD" d="M339.1,257.4c-26.3-14.3-88.3-12.1-88.3-12.1s-62-2.3-88.3,12.1c-20.1,78.2-17.2,127.4-17.2,127.4l105.5,1
		l105.5-1C356.3,384.8,359.2,335.6,339.1,257.4z"/>
	<path fill="#025989" d="M361.2,360.8c-34.4-22.4-110.4-23.9-110.4-23.9s-76,1.5-110.4,23.9c-30.8,37.9-45.4,57-45.4,57
		s0.2,8.9,18.1,6.8c17.9-2.1,86.7-23.9,137.8-23.9s119.9,21.9,137.8,23.9s18.1-6.8,18.1-6.8S392,398.7,361.2,360.8z"/>
</g>
</svg>
