<?xml version="1.0" encoding="utf-8"?>
<!-- Generator: Adobe Illustrator 18.0.0, SVG Export Plug-In . SVG Version: 6.00 Build 0)  -->
<!DOCTYPE svg PUBLIC "-//W3C//DTD SVG 1.1//EN" "http://www.w3.org/Graphics/SVG/1.1/DTD/svg11.dtd">
<svg version="1.1" id="content" xmlns="http://www.w3.org/2000/svg" xmlns:xlink="http://www.w3.org/1999/xlink" x="0px" y="0px"
	 width="500px" height="500px" viewBox="0 0 500 500" enable-background="new 0 0 500 500" xml:space="preserve">
<rect id="position" display="none" fill="none" stroke="#000000" width="500" height="500"/>
<g id="bounds" display="none">
	<rect x="0.2" y="80.2" display="inline" fill="none" stroke="#EAEAEA" stroke-miterlimit="10" width="499.5" height="499.5"/>
</g>
<g id="accessory">
	<path fill="#1E1E1E" d="M99.3,390.7c-1.2-12.2,16.7-21.5,44.4-22.6c27.8-1.9,65.4,4.2,106.6,3.8c41.2,0.4,78.8-5.7,106.6-3.8
		c27.7,1.2,45.5,10.5,44.4,22.7c-3.1,24.3-69.8,43.2-151,43.2C169.1,434,102.3,415.1,99.3,390.7z"/>
	<path fill="#0A0A0A" d="M249.7,230.2c-54.6,0-88.2,9.8-88.2,9.8l4.8,153.8c22.3,15.7,83.4,7.2,83.4,7.2s61.1,7.1,83.4-8.6
		l4.9-152.3C337.9,240.1,304.3,230.2,249.7,230.2z"/>
	<path fill="#1E1E1E" d="M337.9,240.3c0-8.2-41.9-14.9-87.5-14.9c-45.7,0-88.9,6.6-88.9,14.8c0,8.2,43.2,14.9,88.9,14.9
		C296,255.1,337.9,248.5,337.9,240.3z"/>
	<path fill="#3A3A3A" d="M166.2,393.8l0-21.2c0,8.2,38.4,14.9,84.1,14.9c45.7,0,82.7-6.6,82.7-14.8l0,21.7
		c0,8.2-37.1,14.8-82.7,14.8c-45.7,0-84.1-6.7-84.1-14.9"/>
</g>
</svg>
