<?xml version="1.0" encoding="utf-8"?>
<!-- Generator: Adobe Illustrator 18.0.0, SVG Export Plug-In . SVG Version: 6.00 Build 0)  -->
<!DOCTYPE svg PUBLIC "-//W3C//DTD SVG 1.1//EN" "http://www.w3.org/Graphics/SVG/1.1/DTD/svg11.dtd">
<svg version="1.1" id="content" xmlns="http://www.w3.org/2000/svg" xmlns:xlink="http://www.w3.org/1999/xlink" x="0px" y="0px"
	 width="500px" height="500px" viewBox="0 0 500 500" enable-background="new 0 0 500 500" xml:space="preserve">
<rect id="position" display="none" fill="none" stroke="#000000" width="500" height="500"/>
<g id="bounds" display="none">
	<rect x="0.2" y="80.2" display="inline" fill="none" stroke="#EAEAEA" stroke-miterlimit="10" width="499.5" height="499.5"/>
</g>
<g id="accessory_1_">
	<path fill="#E2E2E2" d="M333,238.6c-8.8,0-17.2,1.9-24.7,5.4c-10.3-21.8-32.5-36.9-58.2-36.9c-25.8,0-48.1,15.3-58.3,37.2
		c-7.7-3.6-16.3-5.7-25.4-5.7c-32.9,0-59.6,26.7-59.6,59.6c0,32.9,26.7,59.6,59.6,59.6c0,0,0,0,0,0v63h164.3v-14.4v-48.6
		c0.7,0,1.5,0.1,2.2,0.1c32.9,0,59.6-26.7,59.6-59.6C392.6,265.3,365.9,238.6,333,238.6z"/>
	<path fill="#CECECE" d="M273.6,211.4c0,0,44,51.4,6.1,100.7C314.9,295.9,330.6,237.4,273.6,211.4z"/>
	<path fill="#CECECE" d="M333.8,238.6c22.9,4.9,40.8,24.4,40,57.4c-1,41.3-67.2,50.8-67.2,50.8v65.9h24.1v-54.9
		c0.7,0,1.5,0.1,2.2,0.1c32.9,0,59.6-26.7,59.6-59.6C392.6,265.5,366.4,239,333.8,238.6z"/>
	<path fill="#EFEFEF" d="M166.5,441.6c22.7,7.8,52.4,12,83.4,12c31,0,58.3-4.2,80.9-12v-35.2c-22.7,7.8-50,12-80.9,12
		c-31,0-60.7-4.2-83.4-12L166.5,441.6L166.5,441.6z"/>
	<polygon fill="#D8D8D8" points="306.8,412.4 306.8,448.7 330.8,443 330.8,406.4 	"/>
	<path fill="#D8D8D8" d="M191.9,244.3c0,0,30.6,15.3,19.8,43.7C208.5,269.6,191.9,244.3,191.9,244.3z"/>
</g>
</svg>
