<?xml version="1.0" encoding="utf-8"?>
<!-- Generator: Adobe Illustrator 14.0.0, SVG Export Plug-In . SVG Version: 6.00 Build 43363)  -->
<!DOCTYPE svg PUBLIC "-//W3C//DTD SVG 1.1//EN" "http://www.w3.org/Graphics/SVG/1.1/DTD/svg11.dtd">
<svg version="1.1" id="content" xmlns="http://www.w3.org/2000/svg" xmlns:xlink="http://www.w3.org/1999/xlink" x="0px" y="0px"
	 width="500px" height="500px" viewBox="0 0 500 500" enable-background="new 0 0 500 500" xml:space="preserve">
<g id="bounds" display="none">
	<rect x="97.889" y="-94.767" fill="none" stroke="#000000" stroke-width="1.1265" width="274.846" height="274.847"/>
</g>
<g id="accessory">
	<path fill="#E5E5E5" d="M212.46,8.131c-4.299-1.49-8.749-1.457-12.79-0.22c-2.298-2.347-5.155-4.216-8.47-5.365
		c-4.476-1.552-9.111-1.563-13.334-0.324c-2.146-4.695-6.122-8.548-11.386-10.373c-10.224-3.547-21.387,1.867-24.932,12.092
		c-0.269,0.772-0.469,1.552-0.637,2.332c-5.683,1.248-10.606,5.313-12.653,11.214c-3.131,9.025,1.648,18.881,10.675,22.011
		c0.847,0.294,1.702,0.496,2.558,0.653c0.921,7.747,6.11,14.68,13.977,17.408c10.81,3.749,22.579-1.844,26.569-12.5
		c3.612,0.329,7.188-0.232,10.429-1.589c1.866,1.562,4.026,2.832,6.463,3.678c10.773,3.736,22.538-1.969,26.274-12.743
		C228.941,23.631,223.236,11.868,212.46,8.131z"/>
	<path fill="#111111" d="M342.953,63.281c-0.75-12.242-0.231-20.688-9.186-19.05c-6.121,1.404-25.201,2.376-34.806-19.34
		c-12.981-33.3-49.27-31.551-49.27-31.551s-36.289-1.749-49.271,31.551c-9.604,21.716-28.684,20.744-34.805,19.34
		c-8.952-1.638-8.434,6.808-9.183,19.05s-0.14,19.194-0.14,19.194s39.636,12.076,93.397,12.076c48.67,0,93.396-12.076,93.396-12.076
		S343.702,75.522,342.953,63.281z"/>
	<path fill="#DDDDDD" d="M259.932,70.446c0,0.552-0.446,1-1,1H240.46c-0.552,0-1-0.448-1-1v-1.779c0-0.552,0.448-1,1-1h18.472
		c0.554,0,1,0.448,1,1V70.446z"/>
	<path fill="#DDDDDD" d="M266.097,49.294c0-9.059-7.343-16.401-16.4-16.401s-16.402,7.343-16.402,16.401
		c0,4.23,1.615,8.074,4.246,10.983l-0.014,0.012c0,0,1.888,1.254,1.888,8.479c9.224,0,11.224,0,20.445,0
		c0-6.442,1.29-7.179,1.788-8.266C264.4,57.569,266.097,53.634,266.097,49.294z"/>
	<circle fill="#111111" cx="243.209" cy="47.814" r="5.329"/>
	<circle fill="#111111" cx="256.183" cy="47.814" r="5.328"/>
	<path fill="#111111" d="M248.115,62.868c-1.798,0-2.622-1.32-1.83-2.935l1.974-4.022c0.792-1.614,2.086-1.614,2.877,0l1.971,4.021
		c0.791,1.614-0.031,2.936-1.828,2.936H248.115z"/>
</g>
<rect id="position" x="0" y="0" display="none" fill="none" stroke="#000000" width="500" height="500"/>
</svg>
