<?xml version="1.0" encoding="utf-8"?>
<!-- Generator: Adobe Illustrator 18.0.0, SVG Export Plug-In . SVG Version: 6.00 Build 0)  -->
<!DOCTYPE svg PUBLIC "-//W3C//DTD SVG 1.1//EN" "http://www.w3.org/Graphics/SVG/1.1/DTD/svg11.dtd">
<svg version="1.1" id="content" xmlns="http://www.w3.org/2000/svg" xmlns:xlink="http://www.w3.org/1999/xlink" x="0px" y="0px"
	 width="500px" height="500px" viewBox="0 0 500 500" enable-background="new 0 0 500 500" xml:space="preserve">
<rect id="position" display="none" fill="none" stroke="#000000" width="500" height="500"/>
<g id="bounds" display="none">
	<rect x="0.2" y="80.2" display="inline" fill="none" stroke="#EAEAEA" stroke-miterlimit="10" width="499.5" height="499.5"/>
</g>
<g id="accessory">
	<path fill="#E5E5E5" d="M212.8,274.4c-6.9-2.4-14.1-2.4-20.7-0.4c-3.7-3.8-8.3-6.8-13.7-8.7c-7.2-2.5-14.7-2.5-21.6-0.5
		c-3.5-7.6-9.9-13.8-18.4-16.8c-16.5-5.7-34.6,3-40.3,19.5c-0.4,1.2-0.8,2.5-1,3.8c-9.2,2-17.1,8.6-20.5,18.1
		c-5.1,14.6,2.7,30.5,17.3,35.6c1.4,0.5,2.8,0.8,4.1,1.1c1.5,12.5,9.9,23.7,22.6,28.1c17.5,6.1,36.5-3,43-20.2
		c5.8,0.5,11.6-0.4,16.9-2.6c3,2.5,6.5,4.6,10.4,5.9c17.4,6,36.4-3.2,42.5-20.6C239.5,299.4,230.2,280.4,212.8,274.4z"/>
	<path fill="#111111" d="M423.8,363.5c-1.2-19.8-0.4-33.4-14.9-30.8c-9.9,2.3-40.7,3.8-56.3-31.3c-21-53.8-79.7-51-79.7-51
		s-58.7-2.8-79.7,51c-15.5,35.1-46.4,33.5-56.3,31.3c-14.5-2.6-13.6,11-14.8,30.8s-0.2,31-0.2,31s64.1,19.5,151,19.5
		c78.7,0,151-19.5,151-19.5S425,383.3,423.8,363.5z"/>
	<path fill="#DDDDDD" d="M289.6,375.1c0,0.9-0.7,1.6-1.6,1.6h-29.9c-0.9,0-1.6-0.7-1.6-1.6v-2.9c0-0.9,0.7-1.6,1.6-1.6h29.9
		c0.9,0,1.6,0.7,1.6,1.6V375.1z"/>
	<path fill="#DDDDDD" d="M299.5,340.9c0-14.6-11.9-26.5-26.5-26.5s-26.5,11.9-26.5,26.5c0,6.8,2.6,13.1,6.9,17.8l0,0
		c0,0,3.1,2,3.1,13.7c14.9,0,18.1,0,33.1,0c0-10.4,2.1-11.6,2.9-13.4C296.8,354.3,299.5,347.9,299.5,340.9z"/>
	<circle fill="#111111" cx="262.5" cy="338.5" r="8.6"/>
	<circle fill="#111111" cx="283.5" cy="338.5" r="8.6"/>
	<path fill="#111111" d="M270.4,362.9c-2.9,0-4.2-2.1-3-4.7l3.2-6.5c1.3-2.6,3.4-2.6,4.7,0l3.2,6.5c1.3,2.6-0.1,4.7-3,4.7H270.4z"/>
</g>
</svg>
