<?xml version="1.0" encoding="utf-8"?>
<!-- Generator: Adobe Illustrator 18.0.0, SVG Export Plug-In . SVG Version: 6.00 Build 0)  -->
<!DOCTYPE svg PUBLIC "-//W3C//DTD SVG 1.1//EN" "http://www.w3.org/Graphics/SVG/1.1/DTD/svg11.dtd">
<svg version="1.1" id="content" xmlns="http://www.w3.org/2000/svg" xmlns:xlink="http://www.w3.org/1999/xlink" x="0px" y="0px"
	 width="500px" height="500px" viewBox="0 0 500 500" enable-background="new 0 0 500 500" xml:space="preserve">
<rect id="position" display="none" fill="none" stroke="#000000" width="500" height="500"/>
<g id="bounds" display="none">
	<rect x="0.2" y="80.2" display="inline" fill="none" stroke="#EAEAEA" stroke-miterlimit="10" width="499.5" height="499.5"/>
</g>
<g id="accessory_1_">
	<path fill="#D6272E" d="M255.9,241.2c0-1.6-1.3-2.9-2.9-2.9h-5.1c-1.6,0-2.9,1.3-2.9,2.9v45.4c0,1.6,1.3,2.9,2.9,2.9h5.1
		c1.6,0,2.9-1.3,2.9-2.9V241.2z"/>
	<path fill="#5772B7" d="M216,274.5c0,0-97.1,27.8-100.1,108.6c26,0,58.9,0.3,58.9,0.3l50.6-106.3L216,274.5z"/>
	<path fill="#D6272E" d="M283.5,274.5c0,0,97.1,27.4,100.1,108.3c-27.8,0-58.9,0-58.9,0l-50.6-105.7L283.5,274.5z"/>
	<path fill="#FDE20F" d="M250.3,268.7c0,0-21-0.6-34.3,5.7c-45.4,34.9-41.3,108.9-41.3,108.9l74.2,0.9h2.6l74.2-0.9
		c0,0,4.1-74.1-41.3-108.9C271.2,268.1,250.3,268.7,250.3,268.7"/>
	<path fill="#289247" d="M249.7,382.1H115.9c0,0,2.9,49.8,133.9,49.8c131,0,133.9-49.8,133.9-49.8H249.7L249.7,382.1z"/>
	<path fill="#5772B7" d="M215.3,229c-14.3,0-27,3.6-35.2,9.2c8.1,5.6,20.8,9.2,35.2,9.2s27-3.6,35.2-9.2
		C242.3,232.7,229.6,229,215.3,229z"/>
	<path fill="#5772B7" d="M285.6,229c14.3,0,27,3.6,35.1,9.2c-8.1,5.6-20.8,9.2-35.1,9.2s-27-3.6-35.1-9.2
		C258.6,232.7,271.3,229,285.6,229z"/>
</g>
</svg>
