<?xml version="1.0" encoding="utf-8"?>
<!-- Generator: Adobe Illustrator 18.0.0, SVG Export Plug-In . SVG Version: 6.00 Build 0)  -->
<!DOCTYPE svg PUBLIC "-//W3C//DTD SVG 1.1//EN" "http://www.w3.org/Graphics/SVG/1.1/DTD/svg11.dtd">
<svg version="1.1" id="content" xmlns="http://www.w3.org/2000/svg" xmlns:xlink="http://www.w3.org/1999/xlink" x="0px" y="0px"
	 width="500px" height="500px" viewBox="0 0 500 500" enable-background="new 0 0 500 500" xml:space="preserve">
<rect id="position" display="none" fill="none" stroke="#000000" width="500" height="500"/>
<g id="bounds" display="none">
	<rect x="0.2" y="80.2" display="inline" fill="none" stroke="#EAEAEA" stroke-miterlimit="10" width="499.5" height="499.5"/>
</g>
<g id="accessory">
	<path fill="#1A1A1A" d="M116.1,331.8c36.1,36.1,117.5-9.4,202.1,40.6c18.2,10.9,56.3,51.5,66.9,46.5s16.4-20,5.6-43
		c-10.7-23-23.2-41.6-44.4-62.7c-21.1-21.1-81.7-62-150.7-62C126.6,251.2,80,295.7,116.1,331.8z"/>
	<path fill="#1A1A1A" d="M279.9,243.5l16.2-4.2c0,0,4.2,28.9-19.7,43C276.4,282.2,287.7,266.7,279.9,243.5z"/>
</g>
</svg>
