<?xml version="1.0" encoding="utf-8"?>
<!-- Generator: Adobe Illustrator 18.0.0, SVG Export Plug-In . SVG Version: 6.00 Build 0)  -->
<!DOCTYPE svg PUBLIC "-//W3C//DTD SVG 1.1//EN" "http://www.w3.org/Graphics/SVG/1.1/DTD/svg11.dtd">
<svg version="1.1" id="content" xmlns="http://www.w3.org/2000/svg" xmlns:xlink="http://www.w3.org/1999/xlink" x="0px" y="0px"
	 width="500px" height="500px" viewBox="0 0 500 500" enable-background="new 0 0 500 500" xml:space="preserve">
<rect id="position" display="none" fill="none" stroke="#000000" width="500" height="500"/>
<g id="bounds" display="none">
	<rect x="0.2" y="80.2" display="inline" fill="none" stroke="#EAEAEA" stroke-miterlimit="10" width="499.5" height="499.5"/>
</g>
<g id="accessory_1_">
	<path fill="#27242D" d="M249.7,251.4c0,0-88.1-4.2-88.1,48.7c0,52.9,0,101.3,0,101.3l88.1,3.6l88.1-3.6c0,0,0-48.4,0-101.3
		S249.7,251.4,249.7,251.4z"/>
	<path fill="#B27949" d="M337.8,350.7c0,0-17,10.9-88.1,10.9s-88.1-10.9-88.1-10.9s-0.7,4.1-0.7,28.8c15.1,13.1,88.8,11.2,88.8,11.2
		s73.6,1.9,88.8-11.2C338.5,354.8,337.8,350.7,337.8,350.7z"/>
	<path fill="#27242D" d="M390.5,293.8c-27.8-11-28.9,27.3-63.4,68.7c-32.4,38.9-74.9,38.3-77.4,38.1l0,7.1c10.6,0,39.4-1,87.6-5.2
		C428.3,394.5,418.4,304.8,390.5,293.8z"/>
	<path fill="#27242D" d="M172.4,362.5c-34.5-41.3-35.5-79.7-63.4-68.7c-27.8,11-37.8,100.7,53.1,108.7c48.3,4.2,77,5.2,87.6,5.2
		l0-7.1C247.2,400.8,204.8,401.4,172.4,362.5z"/>
	<path fill="#27242D" d="M249.8,400.6C249.6,400.6,249.6,400.6,249.8,400.6L249.8,400.6L249.8,400.6L249.8,400.6L249.8,400.6
		C249.9,400.6,249.9,400.6,249.8,400.6z"/>
</g>
</svg>
