<?xml version="1.0" encoding="utf-8"?>
<!-- Generator: Adobe Illustrator 14.0.0, SVG Export Plug-In . SVG Version: 6.00 Build 43363)  -->
<!DOCTYPE svg PUBLIC "-//W3C//DTD SVG 1.1//EN" "http://www.w3.org/Graphics/SVG/1.1/DTD/svg11.dtd">
<svg version="1.1" id="content" xmlns="http://www.w3.org/2000/svg" xmlns:xlink="http://www.w3.org/1999/xlink" x="0px" y="0px"
	 width="500px" height="500px" viewBox="0 0 500 500" enable-background="new 0 0 500 500" xml:space="preserve">
<g id="bounds" display="none">
	<rect x="144.494" y="-48.588" fill="none" stroke="#000000" stroke-width="1.1522" width="209.015" height="209.015"/>
</g>
<g id="accessory">
	<path fill="#27242D" d="M248.975,13.64c0,0-47.678-2.25-47.678,26.367c0,28.618,0,54.835,0,54.835l47.678,1.973l47.681-1.973
		c0,0,0-26.217,0-54.835S248.975,13.64,248.975,13.64z"/>
	<path fill="#B27949" d="M296.656,67.391c0,0-9.183,5.881-47.681,5.881s-47.678-5.881-47.678-5.881s-0.366,2.226-0.366,15.578
		c8.198,7.089,48.044,6.041,48.044,6.041s39.846,1.049,48.043-6.041C297.018,69.616,296.656,67.391,296.656,67.391z"/>
	<path fill="#27242D" d="M325.206,36.593c-15.067-5.946-15.643,14.798-34.311,37.17c-17.556,21.039-40.521,20.726-41.895,20.611
		l0.021,3.865c5.751,0,21.308-0.517,47.431-2.813C345.663,91.103,340.265,42.54,325.206,36.593z"/>
	<path fill="#27242D" d="M207.112,73.764c-18.669-22.373-19.241-43.117-34.313-37.17c-15.062,5.946-20.454,54.509,28.755,58.835
		c26.122,2.297,41.68,2.813,47.431,2.813l0.019-3.863C247.628,94.49,224.664,94.803,207.112,73.764z"/>
	<path fill="#27242D" d="M249.003,94.363c-0.093,0-0.087,0.006,0,0.016l0,0l0,0l0,0l0,0
		C249.09,94.368,249.097,94.363,249.003,94.363z"/>
</g>
<rect id="position" x="0" y="0" display="none" fill="none" stroke="#000000" width="500" height="500"/>
</svg>
