<?xml version="1.0" encoding="utf-8"?>
<!-- Generator: Adobe Illustrator 18.0.0, SVG Export Plug-In . SVG Version: 6.00 Build 0)  -->
<!DOCTYPE svg PUBLIC "-//W3C//DTD SVG 1.1//EN" "http://www.w3.org/Graphics/SVG/1.1/DTD/svg11.dtd">
<svg version="1.1" id="content" xmlns="http://www.w3.org/2000/svg" xmlns:xlink="http://www.w3.org/1999/xlink" x="0px" y="0px"
	 width="500px" height="500px" viewBox="0 0 500 500" enable-background="new 0 0 500 500" xml:space="preserve">
<rect id="position" display="none" fill="none" stroke="#000000" width="500" height="500"/>
<g id="bounds" display="none">
	<rect x="158.9" y="-22.3" display="inline" fill="none" stroke="#000000" stroke-width="0.9205" width="182.2" height="192.2"/>
</g>
<g>
	<g>
		<path fill="#DEF3FD" d="M204.2,65.4c-0.7,3.3,0.3,8.8-1.1,8.4c-1.4-0.3-1.5-5.9-1-9.1c0.5-3.2,2.9-7.7,3.9-6.6
			C207.3,59.6,204.9,61.8,204.2,65.4z"/>
	</g>
	<g>
		<g>
			<path fill="#410006" d="M249.7,34.1c-27.8,0-50.4,26.3-50.4,42.2s22.6,28.7,50.4,28.7s50.4-12.9,50.4-28.7S277.5,34.1,249.7,34.1
				z"/>
		</g>
	</g>
	<g>
		<g>
			<path fill="#B72025" d="M249.7,96.5c-22.6,0-40.3-9.8-40.3-22.3c0-12.4,18.1-31.5,40.3-31.5s40.3,19,40.3,31.5
				S272.3,96.5,249.7,96.5z M249.7,48.1c-19.8,0-35,17.4-35,26.1c0,9.2,16,16.9,35,16.9c18.9,0,35-7.7,35-16.9
				C284.6,65.5,269.5,48.1,249.7,48.1z"/>
		</g>
	</g>
	<g opacity="0.1">
		<path d="M300.1,77c0-1.7-0.2-3.5-0.6-5.4c-1.2,4.6-4.3,8.2-8.8,10.9c-1-6.4-6.7-1-15.1,5.3c-7.6,1.5-16.4,2.1-25.8,2.1
			c-9.4,0-18.3-0.6-25.8-2.1c-8.4-6.3-14.1-11.8-15.1-5.3c-4.5-2.7-7.6-6.3-8.8-10.9c-0.4,1.9-0.6,3.7-0.6,5.4
			c0,8.4,5,16.1,13.2,21.9c6.6,11,20.8,18.6,37.2,18.6s30.6-7.6,37.2-18.6C295.1,93.1,300.1,85.4,300.1,77z"/>
	</g>
	<g>
		<path fill="#B72025" d="M208.5,83.4c0-15.9,18.4,12.4,41.1,12.4s41.1-28.3,41.1-12.4s-18.4,28.7-41.1,28.7S208.5,99.3,208.5,83.4z
			"/>
	</g>
	<g>
		<path fill="#404041" d="M249.7,87.7c-25.2,0-46-3.8-49.8-16.2c-0.4,1.7-0.6,3.3-0.6,4.8c0,15.9,22.6,28.7,50.4,28.7
			s50.4-12.9,50.4-28.7c0-1.5-0.2-3.1-0.6-4.8C295.7,84,274.8,87.7,249.7,87.7z"/>
	</g>
	<g>
		<path fill="#B72025" d="M249.7,95.8c0,0,11.4-59.7,6-61.4c3.2-6.6,19-1.3,20.1,3.6C276.4,41.5,260.9,80.1,249.7,95.8z"/>
	</g>
	<g>
		<path fill="#F44336" d="M249.7,95.8C263.2,52.3,267,31.9,260,31.5c5.8-1.4,17.1,3.3,18.5,9.3S266.3,81.4,249.7,95.8z"/>
	</g>
	<g>
		<path fill="#B72025" d="M249.7,95.8c0,0,40.5-40.7,37.2-45c7.5-4,13.6,12.2,11.7,16.5C297.3,70.3,266.8,89.5,249.7,95.8z"/>
	</g>
	<g>
		<path fill="#F44336" d="M249.7,95.8c33.7-26.9,47.5-40.9,42.1-45c5.3,2,9.1,17.7,7.6,20.7C298,74.4,297.8,84.9,249.7,95.8z"/>
	</g>
	<g opacity="0.1">
		<path d="M249.7,95.8c29.6-10.3,45.2-27.2,48.4-35.2c1.5,4.6,2.1,9.4,1.3,10.9C298,74.4,297.8,84.9,249.7,95.8z"/>
	</g>
	<g>
		<path fill="#B72025" d="M249.7,95.8c0,0-11.4-59.7-6-61.4c-3.2-6.6-19-1.3-20.1,3.6C222.9,41.5,238.4,80.1,249.7,95.8z"/>
	</g>
	<g>
		<path fill="#F44336" d="M250.1,95.8c-13.5-43.6-17.3-63.9-10.3-64.3c-5.8-1.4-17.1,3.3-18.5,9.3C219.8,46.9,233.5,81.4,250.1,95.8
			z"/>
	</g>
	<g>
		<path fill="#B72025" d="M249.7,95.8c0,0-40.5-40.7-37.2-45c-7.5-4-12.7,13.3-10.8,17.6C203,71.4,232.5,89.5,249.7,95.8z"/>
	</g>
	<g>
		<path fill="#F44336" d="M250.1,95.8c-33.7-26.9-47.5-40.9-42.1-45c-5.3,2-9.1,17.7-7.6,20.7S202,84.9,250.1,95.8z"/>
	</g>
	<g>
		<path fill="#404041" d="M230.8,92.4c0-14.9,8.4-27,18.9-27c10.4,0,18.9,12.1,18.9,27S230.8,107.4,230.8,92.4z"/>
	</g>
	<g>
		<circle fill="#FFFFFF" cx="249.7" cy="92.5" r="7"/>
	</g>
	<g>
		<path fill="#FFCCCC" d="M204.2,65.4c-0.7,3.3,0.3,8.8-1.1,8.4c-1.4-0.3-1.5-5.9-1-9.1c0.5-3.2,2.9-7.7,3.9-6.6
			C207.3,59.6,204.9,61.8,204.2,65.4z"/>
	</g>
	<g>
		<path fill="#FFCCCC" d="M226.1,41.9c-0.7,3.3,2.6,13.3,1.1,12.9c-1.4-0.3-4.1-10.4-3.7-13.5c0.5-3.2,5.4-6.9,6.4-5.9
			C231.4,36.9,226.9,38.2,226.1,41.9z"/>
	</g>
	<g>
		<path fill="#FFCCCC" d="M265.7,43.8c-1.3,8.9-4.5,16.9-3,17c1.5,0.1,4.5-8.9,5.8-16.6c1.3-7.5,0-10.6-2.2-10.5
			C264.4,33.8,267,35.2,265.7,43.8z"/>
	</g>
</g>
</svg>
