<?xml version="1.0" encoding="utf-8"?>
<!-- Generator: Adobe Illustrator 18.0.0, SVG Export Plug-In . SVG Version: 6.00 Build 0)  -->
<!DOCTYPE svg PUBLIC "-//W3C//DTD SVG 1.1//EN" "http://www.w3.org/Graphics/SVG/1.1/DTD/svg11.dtd">
<svg version="1.1" id="content" xmlns="http://www.w3.org/2000/svg" xmlns:xlink="http://www.w3.org/1999/xlink" x="0px" y="0px"
	 width="500px" height="500px" viewBox="0 0 500 500" enable-background="new 0 0 500 500" xml:space="preserve">
<rect id="position" display="none" fill="none" stroke="#000000" width="500" height="500"/>
<g id="bounds" display="none">
	<rect x="0.2" y="80.2" display="inline" fill="none" stroke="#EAEAEA" stroke-miterlimit="10" width="499.5" height="499.5"/>
</g>
<g id="accessory">
	<path fill="#6D99AF" d="M123,373.7c0,0,0.7-19.4,21.4-36.4c20.7-17,81.5-60.1,36.4-88.2c3.7-23.6,3.7-23.6,3.7-23.6
		s159-7.4,199.3,138.6L345.6,417h-91.2L123,373.7z"/>
	<path fill="#45697F" d="M383.8,364.2c-35.5,34.5-129.5,34.3-129.5,34.3s-94,0.2-129.5-34.3c-6.4,29.2-6.4,61.6-6.4,61.6
		s47.2,31.8,135.9,31.8c88.7,0,135.9-31.8,135.9-31.8S390.2,393.4,383.8,364.2z"/>
	<path fill="#CDEFF7" d="M203.2,227c0-13-10.6-23.6-23.6-23.6c-5,0-9.6,1.6-13.4,4.2c-4.2-3.9-9.8-6.3-16-6.3
		c-13,0-23.6,10.6-23.6,23.6c0,0.5,0,1,0.1,1.5c-9.9,1.9-17.3,10.6-17.3,21.1c0,11.9,9.6,21.5,21.5,21.5c5.3,0,10.1-1.9,13.8-5
		c3.4,7.4,10.9,12.6,19.6,12.6c11.9,0,21.5-9.6,21.5-21.5c0-1.8-0.2-3.5-0.7-5.2C195.4,247.5,203.2,238.2,203.2,227z"/>
	<path fill="#B4E0ED" d="M272.8,349c-5.3-10.3-3.8-22.3,2.8-30.9c-4.1,0.2-8.2,1.2-12.1,3.2c-14.2,7.3-19.8,24.8-12.4,39
		c7.3,14.2,24.8,19.8,39,12.4c3.9-2,7.1-4.8,9.6-8.1C288.8,365,278.2,359.2,272.8,349z"/>
	<path fill="#B4E0ED" d="M289.2,287.7c-2.6,5-7.7,7.7-13,7.5c1.2,1.6,2.8,2.9,4.6,3.9c6.8,3.6,15.3,0.9,18.9-5.9
		c3.6-6.8,0.9-15.3-5.9-18.9c-1.9-1-3.9-1.5-5.9-1.6C291.1,276.9,291.8,282.7,289.2,287.7z"/>
	<path fill="#B4E0ED" d="M221.8,313c-1.3-4.1,0-8.4,3-11.2c-1.5-0.2-3.1-0.1-4.7,0.4c-5.7,1.8-8.8,7.9-7.1,13.5
		c1.8,5.7,7.9,8.8,13.5,7c1.6-0.5,2.9-1.3,4.1-2.4C226.7,319.9,223.1,317.1,221.8,313z"/>
	<polygon fill="#B4E0ED" points="332.1,330.9 331.8,340.4 340.8,343.6 331.7,346.2 331.4,355.7 326,347.9 316.9,350.6 322.7,343 
		317.4,335.2 326.3,338.4 	"/>
	<polygon fill="#B4E0ED" points="243.8,256.4 243.5,265.9 252.4,269.1 243.3,271.7 243.1,281.2 237.7,273.4 228.6,276.1 
		234.4,268.5 229,260.7 238,263.9 	"/>
	<polygon fill="#B4E0ED" points="191.4,330.9 199.6,346.5 216.9,343.5 204.6,356.1 212.8,371.7 197,363.9 184.7,376.5 187.2,359.1 
		171.5,351.3 188.8,348.3 	"/>
	<circle fill="#5D8CA3" cx="149.1" cy="408.8" r="11.2"/>
	<circle fill="#5D8CA3" cx="183" cy="419.8" r="11.2"/>
	<circle fill="#5D8CA3" cx="217.9" cy="425.7" r="11.2"/>
	<circle fill="#5D8CA3" cx="358.4" cy="408.8" r="11.2"/>
	<circle fill="#5D8CA3" cx="324.5" cy="419.8" r="11.2"/>
	<circle fill="#5D8CA3" cx="289.6" cy="425.7" r="11.2"/>
	<circle fill="#5D8CA3" cx="253.4" cy="428.2" r="11.2"/>
</g>
</svg>
