<?xml version="1.0" encoding="utf-8"?>
<!-- Generator: Adobe Illustrator 18.0.0, SVG Export Plug-In . SVG Version: 6.00 Build 0)  -->
<!DOCTYPE svg PUBLIC "-//W3C//DTD SVG 1.1//EN" "http://www.w3.org/Graphics/SVG/1.1/DTD/svg11.dtd">
<svg version="1.1" id="content" xmlns="http://www.w3.org/2000/svg" xmlns:xlink="http://www.w3.org/1999/xlink" x="0px" y="0px"
	 width="500px" height="500px" viewBox="0 0 500 500" enable-background="new 0 0 500 500" xml:space="preserve">
<rect id="position" display="none" fill="none" stroke="#000000" width="500" height="500"/>
<g id="bounds" display="none">
	<rect x="0.2" y="80.2" display="inline" fill="none" stroke="#EAEAEA" stroke-miterlimit="10" width="499.5" height="499.5"/>
</g>
<g>
	<path fill="#D6CE6B" d="M346.8,354.8c0,1.1-0.6,1.9-1.3,1.9H159.3c-0.7,0-1.3-0.9-1.3-1.9v-57.7c0-1.1,0.6-1.9,1.3-1.9h186.2
		c0.7,0,1.3,0.9,1.3,1.9V354.8z"/>
	<ellipse fill="#E3DB71" cx="249.8" cy="351.6" rx="182.4" ry="22.6"/>
	<ellipse fill="#B5AE5B" cx="252.4" cy="296.4" rx="94.4" ry="9.1"/>
	<path fill="#3D3D3D" d="M346.8,318.5c0,5-42.3,9.1-94.4,9.1c-52.1,0-94.4-4.1-94.4-9.1v29.3c0,5,42.3,9.1,94.4,9.1
		c52.1,0,94.4-4.1,94.4-9.1V318.5z"/>
	<path fill="#FF0000" d="M346.8,338.4c0,5-42.3,9.1-94.4,9.1c-52.1,0-94.4-4.1-94.4-9.1v-8c0,5,42.3,9.1,94.4,9.1
		c52.1,0,94.4-4.1,94.4-9.1V338.4z"/>
</g>
</svg>
