<?xml version="1.0" encoding="utf-8"?>
<!-- Generator: Adobe Illustrator 16.2.0, SVG Export Plug-In . SVG Version: 6.00 Build 0)  -->
<!DOCTYPE svg PUBLIC "-//W3C//DTD SVG 1.1//EN" "http://www.w3.org/Graphics/SVG/1.1/DTD/svg11.dtd">
<svg version="1.1" id="Layer_1" xmlns="http://www.w3.org/2000/svg" xmlns:xlink="http://www.w3.org/1999/xlink" x="0px" y="0px"
	 width="500px" height="500px" viewBox="0 0 500 500" enable-background="new 0 0 500 500" xml:space="preserve">
<rect x="0.5" y="0.5" display="none" fill="#FFFFFF" stroke="#000000" width="500.001" height="500"/>
<g id="bounds">
	<rect x="90" y="10" fill="none" stroke="#000000" stroke-width="0.993" width="320" height="159.884"/>
</g>
<g id="accessory">
	<g>
		<g>
			<path fill="#70675D" d="M354.971,153.271c-0.05-0.196-5.045-19.791-20.549-39.089c-20.71-25.776-49.353-38.845-85.134-38.845
				c-35.854,0-64.51,12.809-85.172,38.072c-15.408,18.84-20.303,37.834-20.351,38.024l-4.119-1.035
				c0.204-0.812,5.179-20.11,21.183-39.678c14.787-18.079,42.135-39.63,88.459-39.63c46.336,0,73.731,22.061,88.554,40.569
				c16.035,20.021,21.045,39.76,21.25,40.59L354.971,153.271z"/>
		</g>
		<g>
			<g>
				<g>
					<path fill="#C3996B" d="M147.115,147.967c12.709-41.48-18.121-64.444-28.616-69.9C110.814,74.069,100.364,67,100.364,67
						s0,13.834,5.194,23.949c4.915,9.574,9.252,27.408,8.33,38.452c0,0,1.959,38.947,30.782,30.371
						C144.671,159.77,145.565,153.017,147.115,147.967z"/>
				</g>
				<g>
					<g>
						<path fill="#BA8D5E" d="M137.495,112.543c-0.016-0.252-0.02-0.555-0.042-0.768c-0.025-0.212-0.031-0.398-0.074-0.634
							c-0.063-0.45-0.147-0.904-0.266-1.354c-0.226-0.9-0.544-1.795-0.934-2.675c-0.793-1.751-1.799-3.465-2.966-5.096
							c-1.167-1.632-2.479-3.194-3.872-4.693c-1.375-1.518-2.841-2.974-4.357-4.381c-1.519-1.408-3.095-2.763-4.708-4.078
							c-1.627-1.3-3.249-2.618-4.923-3.867c-1.67-1.257-3.375-2.471-5.112-3.639c-1.726-1.178-3.51-2.278-5.277-3.357l1.945-1.164
							c-0.022,1.326,0.283,2.782,0.723,4.204c0.435,1.429,1.011,2.849,1.624,4.256c1.247,2.817,2.702,5.574,4.115,8.382
							c0.702,1.406,1.409,2.819,1.992,4.337c0.303,0.752,0.507,1.625,0.677,2.354c0.192,0.751,0.342,1.545,0.508,2.321
							c0.599,3.114,0.924,6.267,1.087,9.409c0.169,3.141,0.215,6.273,0.312,9.395c0.047,1.561,0.1,3.12,0.176,4.68
							c0.072,1.556,0.166,3.104,0.357,4.635c0.37,3.069,0.97,6.118,1.979,9.045c0.496,1.466,1.088,2.901,1.783,4.29
							c0.694,1.391,1.513,2.719,2.403,4.008c-1.046-1.166-1.963-2.45-2.793-3.79c-0.841-1.339-1.514-2.775-2.113-4.239
							c-0.579-1.473-1.093-2.975-1.461-4.516c-0.375-1.537-0.686-3.091-0.892-4.657c-0.218-1.573-0.342-3.149-0.431-4.715
							c-0.091-1.566-0.158-3.133-0.22-4.697c-0.124-3.131-0.203-6.256-0.4-9.36c-0.194-3.105-0.539-6.186-1.154-9.213
							c-0.169-0.749-0.313-1.493-0.516-2.257c-0.187-0.793-0.371-1.441-0.686-2.131c-0.607-1.376-1.368-2.733-2.13-4.088
							c-1.535-2.709-3.139-5.415-4.569-8.258c-0.706-1.427-1.381-2.881-1.935-4.42c-0.554-1.536-1.013-3.158-1.079-4.968
							l-0.077-2.124l2.021,0.958c1.963,0.929,3.814,2.013,5.667,3.098c1.845,1.097,3.664,2.238,5.452,3.427
							c1.785,1.197,3.563,2.408,5.261,3.733c1.708,1.314,3.383,2.676,5.012,4.106c1.626,1.43,3.214,2.919,4.724,4.504
							c1.492,1.602,2.914,3.29,4.211,5.102c1.292,1.816,2.478,3.755,3.34,5.908c0.435,1.071,0.797,2.19,1.047,3.353
							c0.13,0.579,0.228,1.172,0.29,1.772c0.041,0.288,0.053,0.631,0.075,0.948c0.017,0.314,0.009,0.543,0.017,0.819
							c0.021,1.055-0.811,1.925-1.866,1.949c-1.034,0.023-1.893-0.776-1.946-1.799L137.495,112.543z"/>
					</g>
				</g>
				<g>
					<g>
						<path fill="#BA8D5E" d="M134.725,126.79c0,0-0.005,0.007-0.019,0.02c0.004,0.002,0.016,0.005,0.03,0.009
							c-0.008,0.029-0.036,0.077-0.083,0.14c-0.096,0.133-0.257,0.349-0.467,0.604c-0.415,0.514-1.025,1.241-1.484,1.943
							c-0.234,0.35-0.446,0.683-0.606,1.012c-0.184,0.328-0.337,0.669-0.445,1.157c-0.073,0.243-0.088,0.528-0.11,0.846
							l-0.005,0.513l0.028,0.275l0.013,0.142l0.005,0.07l0.002,0.035c0.072,0.146-0.095-0.186-0.077-0.15l0.006,0.013l0.012,0.024
							l0.173,0.379c0.039,0.092,0.032,0.067,0.034,0.071c0,0.001,0,0.004,0,0.009c-0.021-0.005,0.005,0.04,0.044,0.097
							c0.028,0.053,0.049,0.106,0.091,0.161c0.133,0.221,0.355,0.481,0.636,0.77c0.564,0.574,1.405,1.253,2.312,2.018
							c0.897,0.769,1.875,1.657,2.688,2.676c0.83,1.017,1.487,2.163,1.918,3.28c0.43,1.124,0.632,2.212,0.707,3.188
							c0.143,1.957-0.207,3.469-0.485,4.488c-0.129,0.511-0.301,0.901-0.39,1.165c-0.102,0.261-0.158,0.401-0.158,0.401
							s-0.056-0.141-0.161-0.406c-0.098-0.26-0.227-0.646-0.421-1.116c-0.166-0.474-0.414-1.035-0.691-1.643
							c-0.293-0.603-0.605-1.27-1.026-1.903c-0.406-0.641-0.876-1.263-1.425-1.805c-0.541-0.55-1.163-1.017-1.855-1.457
							c-0.72-0.425-1.497-0.843-2.442-1.299c-0.925-0.478-2.009-0.971-3.201-1.806c-0.591-0.415-1.213-0.906-1.805-1.54
							c-0.148-0.146-0.291-0.321-0.434-0.491c-0.136-0.162-0.28-0.338-0.443-0.585l-0.229-0.342l-0.179-0.285l-0.215-0.356
							l-0.015-0.022l-0.093-0.183l-0.039-0.06l-0.076-0.119l-0.148-0.237l-0.298-0.482c-0.181-0.34-0.366-0.68-0.532-1.036
							c-0.312-0.727-0.577-1.489-0.75-2.294c-0.183-0.799-0.236-1.636-0.246-2.458c0.022-0.822,0.119-1.635,0.296-2.397
							c0.361-1.534,1.001-2.844,1.704-3.894c1.425-2.105,3.01-3.22,4.145-3.898c0.574-0.335,1.062-0.543,1.415-0.69
							c0.176-0.076,0.322-0.129,0.432-0.167c0.072-0.032,0.128-0.054,0.164-0.068c0.017-0.003,0.026-0.006,0.026-0.006
							c2.455-0.542,4.885,1.008,5.427,3.463c0.347,1.57-0.161,3.13-1.215,4.192L134.725,126.79z"/>
					</g>
				</g>
			</g>
			<g>
				<g>
					<path fill="#A37646" d="M114.271,101.762c-0.081-0.614-0.183-1.2-0.337-1.777c-0.152-0.583-0.333-1.158-0.549-1.723
						c-0.422-1.131-0.943-2.227-1.51-3.302c-1.136-2.148-2.447-4.212-3.721-6.316c-1.274-2.103-2.531-4.241-3.531-6.548
						c-0.501-1.151-0.935-2.345-1.25-3.586c-0.155-0.621-0.276-1.252-0.37-1.895c-0.085-0.642-0.129-1.292-0.142-1.946l0,0
						l-0.004-1.268l1.186,0.455c4.924,1.885,9.505,4.428,13.855,7.299c4.34,2.885,8.437,6.141,12.122,9.831
						c1.846,1.841,3.571,3.803,5.148,5.883c0.777,1.047,1.54,2.111,2.22,3.224c0.371,0.571,0.658,1.124,0.989,1.687
						c0.329,0.552,0.643,1.122,0.924,1.72c0.604,1.167,1.116,2.37,1.571,3.597c0.433,1.233,0.817,2.492,1.028,3.79
						c0.246,1.29,0.328,2.618,0.216,3.933c-0.125,1.315-0.396,2.626-1.144,3.804c-0.069,0.107-0.209,0.139-0.319,0.071
						c-0.104-0.069-0.139-0.207-0.072-0.313l0.02-0.033c0.624-1.029,0.897-2.328,0.979-3.572c0.08-1.259-0.021-2.535-0.286-3.778
						c-0.229-1.25-0.628-2.468-1.071-3.663c-0.47-1.185-0.992-2.355-1.601-3.471c-0.279-0.568-0.601-1.125-0.942-1.677
						c-0.337-0.543-0.658-1.132-1.004-1.638c-0.691-1.077-1.46-2.1-2.244-3.115c-1.588-2.005-3.327-3.896-5.18-5.667
						c-3.697-3.549-7.804-6.671-12.128-9.417c-4.331-2.727-8.903-5.131-13.679-6.841l1.181-0.814c-0.015,0.573,0,1.147,0.049,1.727
						c0.059,0.577,0.143,1.153,0.261,1.729c0.236,1.148,0.591,2.284,1.018,3.401c0.856,2.235,1.993,4.392,3.166,6.537
						c1.171,2.146,2.4,4.281,3.461,6.518c0.529,1.119,1.013,2.265,1.397,3.45c0.197,0.591,0.358,1.195,0.488,1.803
						c0.135,0.616,0.215,1.244,0.266,1.846v0.006c0.012,0.128-0.083,0.238-0.208,0.25
						C114.4,101.973,114.288,101.884,114.271,101.762z"/>
				</g>
			</g>
		</g>
		<g>
			<g>
				<g>
					<path fill="#C3996B" d="M353.132,147.735c-12.706-41.48,18.12-64.445,28.616-69.902c7.686-3.997,18.135-11.066,18.135-11.066
						s0,13.833-5.192,23.949c-4.919,9.573-9.252,27.409-8.333,38.451c0,0-1.961,38.947-30.781,30.371
						C355.576,159.538,354.678,152.783,353.132,147.735z"/>
				</g>
				<g>
					<g>
						<path fill="#BA8D5E" d="M358.938,112.208c0.008-0.277-0.001-0.505,0.021-0.819c0.02-0.318,0.034-0.659,0.073-0.947
							c0.065-0.601,0.161-1.193,0.291-1.771c0.254-1.164,0.613-2.283,1.047-3.355c0.863-2.15,2.051-4.091,3.341-5.904
							c1.3-1.813,2.72-3.501,4.211-5.103c1.511-1.583,3.097-3.073,4.726-4.504c1.629-1.431,3.3-2.792,5.009-4.105
							c1.702-1.326,3.479-2.538,5.263-3.734c1.79-1.19,3.606-2.332,5.452-3.427c1.854-1.084,3.705-2.168,5.664-3.098l2.023-0.958
							l-0.076,2.123c-0.064,1.81-0.524,3.433-1.078,4.969c-0.549,1.54-1.229,2.994-1.938,4.42c-1.428,2.842-3.032,5.55-4.566,8.259
							c-0.761,1.355-1.519,2.713-2.126,4.089c-0.316,0.689-0.499,1.34-0.686,2.132c-0.207,0.763-0.351,1.506-0.518,2.257
							c-0.613,3.028-0.961,6.108-1.155,9.213c-0.194,3.104-0.272,6.23-0.401,9.36c-0.061,1.564-0.13,3.131-0.223,4.697
							c-0.086,1.568-0.209,3.142-0.426,4.715c-0.209,1.567-0.518,3.122-0.896,4.658c-0.366,1.541-0.881,3.043-1.461,4.515
							c-0.601,1.463-1.268,2.901-2.109,4.238c-0.83,1.341-1.749,2.625-2.795,3.791c0.89-1.288,1.709-2.618,2.401-4.007
							c0.696-1.388,1.289-2.826,1.783-4.29c1.014-2.926,1.613-5.976,1.983-9.044c0.193-1.53,0.286-3.081,0.36-4.636
							c0.073-1.558,0.128-3.117,0.173-4.678c0.097-3.123,0.141-6.253,0.313-9.396c0.165-3.141,0.487-6.295,1.087-9.409
							c0.166-0.778,0.317-1.571,0.507-2.321c0.175-0.729,0.374-1.599,0.679-2.353c0.584-1.52,1.287-2.93,1.992-4.339
							c1.41-2.805,2.866-5.563,4.113-8.38c0.613-1.406,1.188-2.826,1.623-4.256c0.445-1.421,0.744-2.876,0.726-4.202l1.943,1.165
							c-1.768,1.076-3.55,2.179-5.279,3.355c-1.732,1.168-3.438,2.384-5.108,3.64c-1.678,1.25-3.297,2.566-4.921,3.868
							c-1.616,1.315-3.192,2.668-4.71,4.077c-1.516,1.408-2.982,2.864-4.354,4.383c-1.396,1.501-2.708,3.059-3.875,4.692
							c-1.166,1.632-2.173,3.346-2.97,5.097c-0.386,0.879-0.705,1.774-0.931,2.675c-0.115,0.45-0.203,0.904-0.268,1.354
							c-0.039,0.235-0.045,0.422-0.073,0.634c-0.019,0.213-0.026,0.516-0.038,0.769l-0.002,0.042
							c-0.057,1.052-0.958,1.858-2.006,1.801C359.715,114.1,358.92,113.232,358.938,112.208z"/>
					</g>
				</g>
				<g>
					<g>
						<path fill="#BA8D5E" d="M369.699,118.866c0,0,0.008,0.002,0.026,0.005c0.036,0.016,0.09,0.038,0.164,0.066
							c0.108,0.042,0.255,0.095,0.435,0.169c0.352,0.145,0.838,0.355,1.411,0.689c1.134,0.677,2.72,1.792,4.146,3.899
							c0.7,1.048,1.344,2.359,1.7,3.891c0.179,0.765,0.276,1.576,0.297,2.398c-0.01,0.823-0.063,1.659-0.246,2.458
							c-0.175,0.805-0.438,1.569-0.748,2.294c-0.169,0.354-0.353,0.693-0.536,1.037l-0.296,0.481l-0.152,0.238l-0.074,0.12
							l-0.038,0.059l-0.094,0.183l-0.014,0.023l-0.216,0.357l-0.181,0.286l-0.228,0.341c-0.164,0.246-0.306,0.421-0.442,0.584
							c-0.144,0.168-0.287,0.344-0.437,0.492c-0.593,0.636-1.212,1.125-1.804,1.541c-1.193,0.834-2.274,1.328-3.2,1.803
							c-0.946,0.458-1.724,0.871-2.441,1.299c-0.693,0.44-1.314,0.906-1.856,1.457c-0.55,0.543-1.018,1.165-1.427,1.805
							c-0.416,0.634-0.732,1.298-1.022,1.903c-0.279,0.611-0.525,1.169-0.691,1.643c-0.197,0.471-0.327,0.854-0.425,1.118
							c-0.103,0.264-0.161,0.405-0.161,0.405s-0.053-0.138-0.16-0.401c-0.086-0.265-0.256-0.653-0.388-1.165
							c-0.278-1.019-0.629-2.529-0.487-4.488c0.078-0.975,0.277-2.062,0.708-3.188c0.431-1.118,1.086-2.265,1.916-3.281
							c0.813-1.02,1.793-1.907,2.69-2.674c0.902-0.764,1.747-1.442,2.31-2.017c0.282-0.291,0.501-0.551,0.638-0.771
							c0.043-0.057,0.061-0.11,0.09-0.161c0.034-0.055,0.063-0.104,0.045-0.098c-0.004-0.004-0.006-0.007-0.004-0.01
							c0.004-0.002-0.005,0.021,0.035-0.07l0.172-0.378l0.013-0.024l0.006-0.013c0.019-0.041-0.149,0.297-0.075,0.149l0.003-0.037
							l0.004-0.071l0.012-0.14l0.028-0.275l-0.002-0.514c-0.026-0.319-0.038-0.602-0.109-0.848c-0.107-0.487-0.266-0.83-0.446-1.158
							c-0.159-0.331-0.372-0.663-0.606-1.012c-0.459-0.703-1.067-1.43-1.48-1.942c-0.215-0.258-0.374-0.473-0.467-0.604
							c-0.047-0.064-0.076-0.112-0.083-0.14c0.016-0.002,0.025-0.006,0.031-0.011c-0.016-0.013-0.022-0.019-0.022-0.019
							l-0.018-0.012c-1.781-1.772-1.793-4.657-0.02-6.44C366.62,118.96,368.236,118.553,369.699,118.866z"/>
					</g>
				</g>
			</g>
			<g>
				<g>
					<path fill="#A37646" d="M364.763,121.791c0,0-0.015,0.131-0.04,0.375c-0.023,0.249-0.033,0.578,0,1.013
						c0.033,0.433,0.146,0.942,0.396,1.466c0.229,0.529,0.615,1.067,1.142,1.61c0.521,0.543,1.175,1.089,1.807,1.815
						c0.633,0.708,1.248,1.669,1.438,2.803c0.053,0.278,0.076,0.563,0.078,0.845c-0.005,0.156,0.017,0.248-0.014,0.459
						c-0.021,0.131-0.024,0.238-0.058,0.389c-0.133,0.689-0.405,1.171-0.723,1.667c-0.643,0.957-1.438,1.699-2.192,2.435
						c-1.533,1.447-2.968,2.903-3.941,4.528c-0.487,0.808-0.861,1.644-1.119,2.47c-0.256,0.832-0.387,1.645-0.487,2.403
						c-0.157,1.523-0.073,2.824,0.04,3.725c0.043,0.453,0.123,0.804,0.152,1.046c0.038,0.24,0.059,0.37,0.059,0.37
						c0.021,0.125-0.063,0.245-0.192,0.264c-0.104,0.017-0.212-0.046-0.249-0.144l-0.01-0.019c0,0-0.049-0.125-0.139-0.362
						c-0.084-0.236-0.244-0.578-0.385-1.035c-0.141-0.457-0.301-1.016-0.44-1.676c-0.131-0.663-0.216-1.426-0.265-2.278
						c-0.02-0.853,0.054-1.787,0.236-2.777c0.187-0.989,0.549-2.008,1.039-2.998c0.484-0.994,1.105-1.955,1.826-2.814
						c0.705-0.869,1.477-1.677,2.19-2.43c0.728-0.734,1.421-1.445,1.801-2.062c0.1-0.153,0.164-0.293,0.226-0.424
						c0.021-0.062,0.043-0.125,0.068-0.183c-0.003-0.021,0-0.038,0.019-0.053c0.017-0.055,0.026-0.233,0.04-0.342l0.006-0.046
						l0.002-0.025l0.003-0.012c0.01-0.118-0.015,0.148-0.013,0.119l0.002-0.062l0.008-0.121c0.008-0.16,0.003-0.312-0.02-0.458
						c-0.072-0.565-0.316-1.068-0.744-1.706c-0.443-0.603-1.02-1.277-1.523-2.018c-0.531-0.716-0.903-1.579-1.086-2.355
						c-0.156-0.79-0.117-1.479,0.005-1.997c0.125-0.509,0.279-0.913,0.411-1.137c0.125-0.229,0.19-0.351,0.19-0.351l0.026-0.053
						c0.062-0.108,0.199-0.152,0.309-0.09C364.729,121.612,364.772,121.703,364.763,121.791z"/>
				</g>
			</g>
		</g>
	</g>
	<g>
		<g>
			<path fill="#A37646" d="M135.937,121.945c0,0,0.033,0.126,0.094,0.365c0.06,0.24,0.132,0.633,0.167,1.117
				c0.028,0.487-0.002,1.107-0.224,1.781c-0.224,0.671-0.647,1.361-1.173,1.997c-0.519,0.648-1.134,1.254-1.685,1.9
				c-0.545,0.65-0.969,1.377-1.085,2.214c-0.032,0.207-0.044,0.421-0.04,0.64c0.005,0.096,0,0.253,0.012,0.294
				c0.017,0.118,0.025,0.263,0.046,0.364c0.054,0.312,0.256,0.768,0.499,1.139c0.501,0.779,1.24,1.507,1.981,2.244
				c0.746,0.735,1.512,1.49,2.21,2.292c0.706,0.8,1.324,1.672,1.817,2.582c1.007,1.811,1.425,3.74,1.504,5.362
				c0.045,1.632-0.156,2.966-0.342,3.881c-0.079,0.459-0.185,0.813-0.237,1.055c-0.057,0.243-0.09,0.374-0.09,0.374
				c-0.028,0.122-0.153,0.197-0.276,0.168c-0.107-0.025-0.179-0.124-0.173-0.227v-0.044c0,0,0.002-0.132,0.007-0.382
				c0-0.249,0.026-0.608,0.005-1.064c0-0.455-0.005-1.005-0.061-1.622c-0.036-0.619-0.123-1.305-0.258-2.029
				c-0.163-0.72-0.347-1.481-0.653-2.236c-0.318-0.749-0.692-1.503-1.186-2.228c-0.49-0.722-1.094-1.404-1.749-2.097
				c-0.665-0.688-1.404-1.35-2.203-2.062c-0.769-0.739-1.61-1.498-2.374-2.617c-0.19-0.274-0.365-0.595-0.521-0.926l-0.214-0.531
				c-0.066-0.227-0.125-0.457-0.174-0.689c-0.036-0.192-0.04-0.268-0.061-0.409l-0.004-0.048l-0.017-0.178V132.2l0.002-0.256
				c0.007-0.338,0.039-0.686,0.104-1.027c0.122-0.685,0.372-1.35,0.689-1.916c0.321-0.568,0.723-1.012,1.088-1.392
				c0.737-0.769,1.432-1.249,1.967-1.699c0.521-0.46,0.957-0.823,1.233-1.25c0.312-0.405,0.495-0.847,0.624-1.25
				c0.122-0.41,0.192-0.729,0.238-0.988c0.037-0.26,0.06-0.395,0.06-0.395l0.008-0.056c0.018-0.125,0.135-0.211,0.259-0.195
				C135.845,121.788,135.917,121.857,135.937,121.945z"/>
		</g>
	</g>
</g>
</svg>
