<?xml version="1.0" encoding="utf-8"?>
<!-- Generator: Adobe Illustrator 18.0.0, SVG Export Plug-In . SVG Version: 6.00 Build 0)  -->
<!DOCTYPE svg PUBLIC "-//W3C//DTD SVG 1.1//EN" "http://www.w3.org/Graphics/SVG/1.1/DTD/svg11.dtd">
<svg version="1.1" id="Layer_1" xmlns="http://www.w3.org/2000/svg" xmlns:xlink="http://www.w3.org/1999/xlink" x="0px" y="0px"
	 width="500px" height="500px" viewBox="0 0 500 500" enable-background="new 0 0 500 500" xml:space="preserve">
<g>
	<path opacity="0.1" d="M152,129.4c0,0,45.1-42.4,98-42.5s96.9,42.5,96.9,42.5v-13c0,0-34-48-97.5-49S152,118.9,152,118.9V129.4z"/>
	<path fill="#181819" d="M152,123.5c0,0,45.1-42.4,98-42.5s96.9,42.5,96.9,42.5v-13c0,0-34-48-97.5-49S152,113,152,113V123.5z"/>
	<path opacity="0.1" d="M249.6,162c-114.8,0-102.8,4.1-102.8,4.1c0,8.9,15.4,25.3,38.4,38c5.2,29,32.2,51.2,64.8,51.2
		c32.6,0,59.6-22.1,64.8-51.1c22.6-12.6,37.6-28.8,37.6-38.1C352.3,166.1,364.3,162,249.6,162z"/>
	<path fill="#404142" d="M190.1,194.3c0-29.5,119.8-29.5,119.8,0s-26.8,53.3-59.9,53.3S190.1,223.8,190.1,194.3z"/>
	<path fill="#333333" d="M250,227.3c-20.5,0-37.3-14-39.1-31.8c-0.1,0.5-0.2,1-0.2,1.5c0,19.3,17.6,34.9,39.2,34.9
		s39.2-15.6,39.2-34.9c0-0.5-0.1-1-0.2-1.5C287.3,213.4,270.5,227.3,250,227.3z"/>
	<path opacity="0.1" d="M190.1,194.3c0,4.6,0.7,9.1,1.9,13.4c16.9,8.3,37.1,14.3,58,14.3c21,0,41.2-6,58-14.2
		c1.3-4.3,1.9-8.8,1.9-13.4C309.9,164.9,190.1,164.9,190.1,194.3z"/>
	<path fill="#404142" d="M249.6,48.3c-109.2,0-109.2,111.3-109.2,111.3c0,15.9,52.4,55.9,109.6,55.9s108.7-39.2,108.7-55.9
		C358.7,159.6,358.7,48.3,249.6,48.3z M249.5,159.6c0,0-92.9,1.5-93.7-46.5c0,0,38.8-46.5,93.8-46.6c55-0.1,93.8,46.6,93.8,46.6
		S325.8,159.6,249.5,159.6z"/>
	<path fill="#333333" d="M249.5,182c-50.5,0-91.8-23.3-94.1-52.6c-0.1,0.9-0.1,1.7-0.1,2.6c0,30.5,42.2,55.2,94.2,55.2
		s94.2-24.7,94.2-55.2c0-0.9,0-1.7-0.1-2.6C341.2,158.7,300,182,249.5,182z"/>
	<path fill="#333333" d="M249.6,61.9c-51.1,0-90.1,43.4-90.1,43.4s37.2-46.5,90.1-46.6c52.9-0.1,90.1,46.6,90.1,46.6
		S300.7,61.9,249.6,61.9z"/>
</g>
</svg>
