<?xml version="1.0" encoding="utf-8"?>
<!-- Generator: Adobe Illustrator 18.0.0, SVG Export Plug-In . SVG Version: 6.00 Build 0)  -->
<!DOCTYPE svg PUBLIC "-//W3C//DTD SVG 1.1//EN" "http://www.w3.org/Graphics/SVG/1.1/DTD/svg11.dtd">
<svg version="1.1" id="content" xmlns="http://www.w3.org/2000/svg" xmlns:xlink="http://www.w3.org/1999/xlink" x="0px" y="0px"
	 width="500px" height="500px" viewBox="0 0 500 500" enable-background="new 0 0 500 500" xml:space="preserve">
<rect id="position" display="none" fill="none" stroke="#000000" width="500" height="500"/>
<g id="bounds" display="none">
	<rect x="0.2" y="80.2" display="inline" fill="none" stroke="#EAEAEA" stroke-miterlimit="10" width="499.5" height="499.5"/>
</g>
<g>
	<path fill="#F28CB4" d="M252.7,324.6c-6.5-3.7-15.2-0.9-31.1,4l-83.2,30.1c-15.8,5-40.4,15.5-27.6,26.4l41,39.7
		c12.1,7.8,26.7,35.4,47.2,12.4c20.2-22.7,55-77.6,55-77.6C260.4,345.8,259.2,328.7,252.7,324.6z"/>
	<path fill="#D81B60" d="M235.3,337.7l-76.1,34.2c0,0,88.2-28.3,87.3-28.3C245.5,343.9,235.3,337.7,235.3,337.7z"/>
	<path fill="#D81B60" d="M257,341.7c0,0-66.5,109.3-77.9,96.6c-24.8-20.2-24.8-15.5,0.9-36.6C206.1,379.9,257,341.7,257,341.7z"/>
	<path fill="#F28CB4" d="M252.1,327.7c-1.2-7.5,5-14.6,15.5-27.3l59.3-65.8c10.6-12.7,29.5-31.7,34.8-15.5l21.4,53.1
		c2.5,14.3,22.7,38.2-6.2,48.4c-28.6,10.2-92.5,21.7-92.5,21.7C268.5,343,253,335.2,252.1,327.7z"/>
	<path fill="#D81B60" d="M270.7,316.9l60.2-57.8c0,0-59.3,71.1-59,70.2C272.6,328.7,270.7,316.9,270.7,316.9z"/>
	<path fill="#D81B60" d="M266,338.3c0,0,126.4-20.5,118.6-36c-9.3-30.7-5-28.9-34.5-12.7C320.7,305.4,266,338.3,266,338.3z"/>
	<path fill="#D81B60" d="M251.1,302.6c-17.1,3.4-28.3,18.9-25.2,34.8c3.1,15.8,19.6,25.8,36.6,22.4c17.1-3.4,28.3-18.9,25.2-34.8
		C284.4,309.1,267.9,299.2,251.1,302.6z"/>
</g>
</svg>
