<?xml version="1.0" encoding="utf-8"?>
<!-- Generator: Adobe Illustrator 18.0.0, SVG Export Plug-In . SVG Version: 6.00 Build 0)  -->
<!DOCTYPE svg PUBLIC "-//W3C//DTD SVG 1.1//EN" "http://www.w3.org/Graphics/SVG/1.1/DTD/svg11.dtd">
<svg version="1.1" id="content" xmlns="http://www.w3.org/2000/svg" xmlns:xlink="http://www.w3.org/1999/xlink" x="0px" y="0px"
	 width="500px" height="500px" viewBox="0 0 500 500" enable-background="new 0 0 500 500" xml:space="preserve">
<rect id="position" display="none" fill="none" stroke="#000000" width="500" height="500"/>
<g id="bounds" display="none">
	<rect x="101.8" y="-110.2" display="inline" fill="none" stroke="#000000" stroke-width="0.9205" width="295.5" height="311.7"/>
</g>
<g>
	<path fill="#F28CB4" d="M199.5,76.3c-2.1-1.2-4.9-0.3-10,1.3l-26.8,9.7c-5.1,1.6-13,5-8.9,8.5l13.2,12.8c3.9,2.5,8.6,11.4,15.2,4
		c6.5-7.3,17.7-25,17.7-25C202,83.1,201.6,77.6,199.5,76.3z"/>
	<path fill="#D81B60" d="M193.9,80.5l-24.5,11c0,0,28.4-9.1,28.1-9.1C197.2,82.5,193.9,80.5,193.9,80.5z"/>
	<path fill="#D81B60" d="M200.9,81.8c0,0-21.4,35.2-25.1,31.1c-8-6.5-8-5,0.3-11.8C184.5,94.1,200.9,81.8,200.9,81.8z"/>
	<path fill="#F28CB4" d="M199.3,77.3c-0.4-2.4,1.6-4.7,5-8.8l19.1-21.2c3.4-4.1,9.5-10.2,11.2-5l6.9,17.1c0.8,4.6,7.3,12.3-2,15.6
		c-9.2,3.3-29.8,7-29.8,7C204.6,82.2,199.6,79.7,199.3,77.3z"/>
	<path fill="#D81B60" d="M205.3,73.8l19.4-18.6c0,0-19.1,22.9-19,22.6C205.9,77.6,205.3,73.8,205.3,73.8z"/>
	<path fill="#D81B60" d="M203.8,80.7c0,0,40.7-6.6,38.2-11.6c-3-9.9-1.6-9.3-11.1-4.1C221.4,70.1,203.8,80.7,203.8,80.7z"/>
	<path fill="#D81B60" d="M199,69.2c-5.5,1.1-9.1,6.1-8.1,11.2c1,5.1,6.3,8.3,11.8,7.2c5.5-1.1,9.1-6.1,8.1-11.2
		C209.7,71.3,204.4,68.1,199,69.2z"/>
</g>
</svg>
