<?xml version="1.0" encoding="utf-8"?>
<!-- Generator: Adobe Illustrator 16.0.0, SVG Export Plug-In . SVG Version: 6.00 Build 0)  -->
<!DOCTYPE svg PUBLIC "-//W3C//DTD SVG 1.1//EN" "http://www.w3.org/Graphics/SVG/1.1/DTD/svg11.dtd">
<svg version="1.1" id="content" xmlns="http://www.w3.org/2000/svg" xmlns:xlink="http://www.w3.org/1999/xlink" x="0px" y="0px"
	 width="500px" height="500px" viewBox="0 0 500 500" style="enable-background:new 0 0 500 500;" xml:space="preserve">
<g id="bounds" style="display:none;">
	<rect x="93.6" y="-47.4" style="display:inline;fill:none;stroke:#000000;stroke-width:0.9617;" width="311.6" height="311.6"/>
</g>
<path fill="#403E37" d="M195.174,85.612c0,0-15.705-14.698-51.724-10.975c-4.614,30.576,11.001,47.331,11.001,47.331
	S167.534,99.114,195.174,85.612z"/>
<path fill="#E8E3C9" d="M186.924,90.161c-4.458-3.324-15.318-7.181-28.807-4.746c3.56,3.817,6.899,7.184,6.899,7.184
	l-9.657,0.66l4.22,7.273l-6.021,0.521c0,0,1.289,7.991,6.521,12.933C165.289,107.435,174.176,98,186.924,90.161z"/>
<path fill="#403E37" d="M304.826,85.612c0,0,15.705-14.698,51.725-10.975c4.613,30.576-11.002,47.331-11.002,47.331
	S332.466,99.114,304.826,85.612z"/>
<path fill="#E8E3C9" d="M313.076,90.161c4.457-3.324,15.318-7.181,28.807-4.746c-3.56,3.817-6.899,7.184-6.899,7.184
	l9.657,0.66l-4.221,7.273l6.021,0.521c0,0-1.289,7.991-6.521,12.933C334.711,107.435,325.824,98,313.076,90.161z"/>
</svg>
