<?xml version="1.0" encoding="utf-8"?>
<!-- Generator: Adobe Illustrator 18.0.0, SVG Export Plug-In . SVG Version: 6.00 Build 0)  -->
<!DOCTYPE svg PUBLIC "-//W3C//DTD SVG 1.1//EN" "http://www.w3.org/Graphics/SVG/1.1/DTD/svg11.dtd">
<svg version="1.1" id="content" xmlns="http://www.w3.org/2000/svg" xmlns:xlink="http://www.w3.org/1999/xlink" x="0px" y="0px"
	 width="500px" height="500px" viewBox="0 0 500 500" enable-background="new 0 0 500 500" xml:space="preserve">
<rect id="position" display="none" fill="none" stroke="#000000" width="500" height="500"/>
<g id="bounds" display="none">
	<rect x="158.1" y="-46.2" display="inline" fill="none" stroke="#000000" stroke-width="0.9205" width="183.7" height="193.8"/>
</g>
<g>
	<path fill="#E5983C" d="M208.4,41.7c0.2-1.9,1.6-3.1,3.1-2.8c1.5,0.3,2.6,2.1,2.4,3.9c-0.9,9.1,4.4,17.6,11.8,19.2
		c1.5,0.3,2.6,2.1,2.4,3.9c-0.2,1.9-1.6,3.1-3.1,2.8C214.6,66.6,207.1,54.5,208.4,41.7z"/>
	<path fill="#E5983C" d="M277.2,75.1V54.9h-0.1h-54.2h-0.1V75c9.1-2.1,18.3-2.5,28.1-2.5C259.9,72.4,268.9,73.3,277.2,75.1z"/>
	<g>
		<path fill="#E08D44" d="M226,34.7c0,0-3.7-10.7-0.3-13.1c3.3-2.4,13.5,3,13.5,3l-3.9,9.8L226,34.7z"/>
		<path fill="#EDAF6B" d="M229,34.1c0,0-2.6-7.3-0.3-9c2.3-1.7,9.6,2.1,9.6,2.1l-2.7,6.7L229,34.1z"/>
		<path fill="#E5983C" d="M239.9,27.1l-4.9-8.9c-0.3-0.5-0.1-1,0.3-1.2c0.5-0.3,1-0.1,1.2,0.3l4.9,8.9c0.3,0.5,0.1,1-0.3,1.2
			c-0.1,0.1-0.3,0.1-0.4,0.1C240.4,27.5,240.1,27.4,239.9,27.1z"/>
	</g>
	<g>
		<path fill="#E08D44" d="M273.8,34.7c0,0,3.7-10.7,0.3-13.1c-3.3-2.4-13.5,3-13.5,3l3.9,9.8L273.8,34.7z"/>
		<path fill="#EDAF6B" d="M270.9,34.1c0,0,2.6-7.3,0.3-9c-2.3-1.7-9.6,2.1-9.6,2.1l2.7,6.7L270.9,34.1z"/>
		<path fill="#E5983C" d="M259.1,27.5c-0.1,0-0.3,0-0.4-0.1c-0.4-0.2-0.6-0.7-0.3-1.2l4.9-8.9c0.2-0.4,0.7-0.6,1.2-0.3
			c0.4,0.2,0.6,0.7,0.3,1.2l-4.9,8.9C259.7,27.4,259.4,27.5,259.1,27.5z"/>
	</g>
	<path fill="#E5983C" d="M250,21.9c-15.4,0-27.8,11.4-27.8,25.5v4.9h55.6v-4.9C277.8,33.3,265.4,21.9,250,21.9z"/>
	<g>
		<path fill="#FFFFFF" d="M241.3,38.4c0,1.3-1,2.3-2.3,2.3s-2.3-1-2.3-2.3s1-2.3,2.3-2.3C240.2,36.1,241.3,37.1,241.3,38.4"/>
		<path fill="#FFFFFF" d="M263,38.4c0,1.3-1,2.3-2.3,2.3c-1.3,0-2.3-1-2.3-2.3s1-2.3,2.3-2.3C261.9,36.1,263,37.1,263,38.4"/>
	</g>
	<path fill="#E5983C" d="M229.3,79.3c0,4.1,3.4,7.5,7.5,7.5s7.5-3.4,7.5-7.5H229.3z"/>
	<path fill="#E5983C" d="M256.1,79.3c0,4.1,3.4,7.5,7.5,7.5s7.5-3.4,7.5-7.5H256.1z"/>
	<path fill="#EDAF6B" d="M263.6,58.7c-4.1,0-7.5,3.4-7.5,7.5v13.1h15V66.2C271.1,62.1,267.7,58.7,263.6,58.7z"/>
	<path fill="#EDAF6B" d="M250.1,28.3c0,0,2.6-2.6,2.1-6.3c-0.7,0-1.4-0.1-2.1-0.1c-0.7,0-1.4,0-2.1,0.1
		C247.6,23.8,247.9,26.1,250.1,28.3z"/>
	<path fill="#EDAF6B" d="M245.5,28.3c0,0,1.6-2.9,0.3-6.1c-1.5,0.2-2.9,0.5-4.3,0.9C241.9,24.9,242.9,26.8,245.5,28.3z"/>
	<path fill="#EDAF6B" d="M229.3,44.7c0,0-1.8-3.7-6.1-4.1c-0.4,1.3-0.7,2.6-0.8,4C224,45.5,226.3,46,229.3,44.7z"/>
	<path fill="#EDAF6B" d="M231,39.7c0,0-1.1-3.9-5-5.1c-0.7,1.1-1.4,2.4-1.9,3.6C225.5,39.5,227.7,40.5,231,39.7z"/>
	<path fill="#EDAF6B" d="M270.8,44.7c2.9,1.3,5.2,0.9,6.8,0c-0.2-1.4-0.5-2.7-0.8-4.1C272.6,41,270.8,44.7,270.8,44.7z"/>
	<path fill="#EDAF6B" d="M269.1,39.7c3.2,0.8,5.4-0.1,6.9-1.4c-0.5-1.3-1.2-2.5-1.9-3.7C270.1,35.8,269.1,39.7,269.1,39.7z"/>
	<g>
		<path fill="#EDAF6B" d="M272.1,63.1c2,1,3.7,1.1,5.1,0.8v-4.5C273.7,60.1,272.1,63.1,272.1,63.1z"/>
		<path fill="#EDAF6B" d="M272.5,68.9c1.8,0.9,3.4,1.1,4.7,0.9v-4.5C274,66.1,272.5,68.9,272.5,68.9z"/>
	</g>
	<g>
		<path fill="#EDAF6B" d="M227.9,63.1c-2,1-3.7,1.1-5.1,0.8v-4.5C226.3,60.1,227.9,63.1,227.9,63.1z"/>
		<path fill="#EDAF6B" d="M227.5,68.9c-1.8,0.9-3.4,1.1-4.7,0.9v-4.5C226,66.1,227.5,68.9,227.5,68.9z"/>
	</g>
	<path fill="#EDAF6B" d="M254.5,28.3c2.6-1.5,3.6-3.4,3.9-5.2c-1.4-0.4-2.8-0.7-4.3-0.9C252.9,25.4,254.5,28.3,254.5,28.3z"/>
	<path fill="#EDAF6B" d="M236.8,58.7c-4.1,0-7.5,3.4-7.5,7.5v13.1h15V66.2C244.3,62.1,240.9,58.7,236.8,58.7z"/>
	<circle fill="#F7AAB7" cx="250.8" cy="51.4" r="2.3"/>
	<g>
		<ellipse fill="#F0F2F2" cx="246.6" cy="47.2" rx="5.8" ry="5.8"/>
		<ellipse fill="#F0F2F2" cx="254.9" cy="47.2" rx="5.8" ry="5.8"/>
	</g>
	<path fill="#F48FB1" d="M254.5,40.6c-0.2-0.4-0.6-0.6-1-0.6H248c-0.4,0-0.8,0.2-1,0.6c-0.2,0.4-0.1,0.8,0.1,1.2l2.7,3.4
		c0.2,0.3,0.5,0.4,0.9,0.4c0.3,0,0.6-0.2,0.9-0.4l2.7-3.4C254.6,41.4,254.7,41,254.5,40.6z"/>
</g>
</svg>
