<?xml version="1.0" encoding="utf-8"?>
<!-- Generator: Adobe Illustrator 16.0.0, SVG Export Plug-In . SVG Version: 6.00 Build 0)  -->
<!DOCTYPE svg PUBLIC "-//W3C//DTD SVG 1.1//EN" "http://www.w3.org/Graphics/SVG/1.1/DTD/svg11.dtd">
<svg version="1.1" id="content" xmlns="http://www.w3.org/2000/svg" xmlns:xlink="http://www.w3.org/1999/xlink" x="0px" y="0px"
	 width="500px" height="500px" viewBox="0 0 500 500" enable-background="new 0 0 500 500" xml:space="preserve">
<rect id="position" display="none" fill="none" stroke="#000000" width="500" height="500"/>
<g id="bounds">
	<rect x="0.2" y="80.2" fill="none" stroke="#EAEAEA" stroke-miterlimit="10" width="499.5" height="499.5"/>
</g>
<g>
	<path fill="#E5983C" d="M91.622,297.797c0.767-7.274,6.125-11.866,11.866-10.719c5.741,1.149,9.953,8.038,9.187,14.929
		c-3.445,34.832,16.842,67.368,45.168,73.491c5.742,1.147,9.951,8.038,9.187,14.931c-0.767,7.271-6.125,11.864-11.866,10.717
		C115.354,393.104,86.646,346.791,91.622,297.797z"/>
	<path fill="#E5983C" d="M354.971,425.64v-77.316h-0.385H147.124h-0.383v76.937c34.833-8.038,70.049-9.57,107.562-9.57
		C288.752,415.31,323.201,418.752,354.971,425.64z"/>
	<g>
		<path fill="#E08D44" d="M158.99,271.003c0,0-14.163-40.958-1.147-50.144c12.631-9.188,51.675,11.482,51.675,11.482l-14.93,37.511
			L158.99,271.003z"/>
		<path fill="#EDAF6B" d="M170.473,268.706c0,0-9.952-27.944-1.147-34.45c8.803-6.508,36.745,8.04,36.745,8.04l-10.334,25.643
			L170.473,268.706z"/>
		<path fill="#E5983C" d="M212.195,241.911l-18.755-34.065c-1.147-1.914-0.383-3.829,1.147-4.594
			c1.914-1.147,3.828-0.385,4.594,1.147l18.756,34.067c1.149,1.915,0.383,3.829-1.147,4.592c-0.383,0.385-1.149,0.385-1.531,0.385
			C214.109,243.443,212.961,243.059,212.195,241.911z"/>
	</g>
	<g>
		<path fill="#E08D44" d="M341.955,271.003c0,0,14.162-40.958,1.148-50.144c-12.633-9.188-51.674,11.482-51.674,11.482
			l14.928,37.511L341.955,271.003z"/>
		<path fill="#EDAF6B" d="M330.857,268.706c0,0,9.949-27.944,1.146-34.45c-8.803-6.508-36.748,8.04-36.748,8.04l10.336,25.643
			L330.857,268.706z"/>
		<path fill="#E5983C" d="M285.688,243.443c-0.383,0-1.148,0-1.529-0.385c-1.533-0.763-2.299-2.677-1.148-4.592l18.754-34.067
			c0.768-1.532,2.68-2.295,4.594-1.147c1.533,0.765,2.295,2.68,1.148,4.594l-18.754,34.065
			C287.986,243.059,286.838,243.443,285.688,243.443z"/>
	</g>
	<path fill="#E5983C" d="M250.855,222.007c-58.946,0-106.41,43.635-106.41,97.607v18.755h212.82v-18.755
		C357.266,265.642,309.805,222.007,250.855,222.007z"/>
	<g>
		<path fill="#FFFFFF" d="M217.553,285.164c0,4.978-3.827,8.805-8.803,8.805s-8.803-3.827-8.803-8.805
			c0-4.977,3.827-8.803,8.803-8.803C213.344,276.361,217.553,280.188,217.553,285.164"/>
		<path fill="#FFFFFF" d="M300.615,285.164c0,4.978-3.826,8.805-8.803,8.805c-4.975,0-8.803-3.827-8.803-8.805
			c0-4.977,3.828-8.803,8.803-8.803C296.406,276.361,300.615,280.188,300.615,285.164"/>
	</g>
	<path fill="#E5983C" d="M171.621,441.718c0,15.695,13.017,28.707,28.708,28.707c15.694,0,28.709-13.012,28.709-28.707H171.621z"/>
	<path fill="#E5983C" d="M274.203,441.718c0,15.695,13.016,28.707,28.709,28.707c15.695,0,28.707-13.012,28.707-28.707H274.203z"/>
	<path fill="#EDAF6B" d="M302.912,362.867c-15.693,0-28.709,13.012-28.709,28.709v50.142h57.416v-50.142
		C331.619,375.879,318.607,362.867,302.912,362.867z"/>
	<path fill="#EDAF6B" d="M251.238,246.502c0,0,9.953-9.949,8.039-24.112c-2.68,0-5.361-0.383-8.039-0.383
		c-2.678,0-5.357,0-8.038,0.383C241.667,229.28,242.819,238.085,251.238,246.502z"/>
	<path fill="#EDAF6B" d="M233.631,246.502c0,0,6.122-11.099,1.146-23.346c-5.74,0.765-11.099,1.914-16.458,3.444
		C219.851,233.489,223.679,240.762,233.631,246.502z"/>
	<path fill="#EDAF6B" d="M171.621,309.279c0,0-6.889-14.163-23.348-15.693c-1.532,4.975-2.68,9.952-3.062,15.311
		C151.334,312.341,160.138,314.256,171.621,309.279z"/>
	<path fill="#EDAF6B" d="M178.128,290.142c0,0-4.211-14.93-19.139-19.521c-2.68,4.209-5.357,9.186-7.271,13.778
		C157.076,289.375,165.498,293.201,178.128,290.142z"/>
	<path fill="#EDAF6B" d="M330.471,309.279c11.104,4.977,19.906,3.444,26.029,0c-0.762-5.36-1.914-10.335-3.061-15.693
		C337.361,295.116,330.471,309.279,330.471,309.279z"/>
	<path fill="#EDAF6B" d="M323.963,290.142c12.25,3.06,20.672-0.384,26.414-5.36c-1.914-4.976-4.594-9.569-7.273-14.161
		C327.791,275.212,323.963,290.142,323.963,290.142z"/>
	<g>
		<path fill="#EDAF6B" d="M335.447,379.708c7.656,3.828,14.164,4.213,19.523,3.065v-17.225
			C341.574,368.224,335.447,379.708,335.447,379.708z"/>
		<path fill="#EDAF6B" d="M336.98,401.911c6.889,3.444,13.016,4.209,17.99,3.444V388.13
			C342.721,391.191,336.98,401.911,336.98,401.911z"/>
	</g>
	<g>
		<path fill="#EDAF6B" d="M166.262,379.708c-7.655,3.828-14.161,4.213-19.521,3.065v-17.225
			C160.138,368.224,166.262,379.708,166.262,379.708z"/>
		<path fill="#EDAF6B" d="M164.732,401.911c-6.89,3.444-13.014,4.209-17.991,3.444V388.13
			C158.99,391.191,164.732,401.911,164.732,401.911z"/>
	</g>
	<path fill="#EDAF6B" d="M268.08,246.502c9.951-5.74,13.779-13.013,14.93-19.901c-5.359-1.53-10.721-2.68-16.461-3.444
		C261.957,235.403,268.08,246.502,268.08,246.502z"/>
	<path fill="#EDAF6B" d="M200.329,362.867c-15.691,0-28.708,13.012-28.708,28.709v50.142h57.417v-50.142
		C229.038,375.879,216.023,362.867,200.329,362.867z"/>
	<circle fill="#F7AAB7" cx="253.916" cy="334.926" r="8.804"/>
	<g>
		<path fill="#F0F2F2" d="M237.84,296.647c12.261,0,22.205,9.938,22.205,22.201c0,12.262-9.944,22.199-22.205,22.199
			c-12.26,0-22.2-9.938-22.2-22.199C215.64,306.586,225.581,296.647,237.84,296.647z"/>
		<ellipse fill="#F0F2F2" cx="269.613" cy="318.848" rx="22.2" ry="22.2"/>
	</g>
	<path fill="#F48FB1" d="M268.08,293.586c-0.766-1.531-2.295-2.297-3.828-2.297h-21.051c-1.533,0-3.062,0.766-3.828,2.297
		c-0.767,1.53-0.381,3.062,0.381,4.592l10.336,13.016c0.766,1.147,1.915,1.53,3.448,1.53c1.146,0,2.295-0.765,3.441-1.53
		l10.336-13.016C268.461,296.647,268.848,295.116,268.08,293.586z"/>
</g>
</svg>
