<?xml version="1.0" encoding="utf-8"?>
<!-- Generator: Adobe Illustrator 18.0.0, SVG Export Plug-In . SVG Version: 6.00 Build 0)  -->
<!DOCTYPE svg PUBLIC "-//W3C//DTD SVG 1.1//EN" "http://www.w3.org/Graphics/SVG/1.1/DTD/svg11.dtd">
<svg version="1.1" id="content" xmlns="http://www.w3.org/2000/svg" xmlns:xlink="http://www.w3.org/1999/xlink" x="0px" y="0px"
	 width="500px" height="500px" viewBox="0 0 500 500" enable-background="new 0 0 500 500" xml:space="preserve">
<rect id="position" display="none" fill="none" stroke="#000000" width="500" height="500"/>
<g id="bounds" display="none">
	<rect x="0.2" y="80.2" display="inline" fill="none" stroke="#EAEAEA" stroke-miterlimit="10" width="499.5" height="499.5"/>
</g>
<g>
	<path opacity="0.1" enable-background="new    " d="M250,359.3c-59.6,0-110.6,4.1-130.9-26.8c-2.4-3.8-7.7-12.8-8.5-8.2
		c-0.5,2.9-0.9,6-0.9,9c0,45.6,62.8,82.4,140.3,82.4s140.3-36.9,140.3-82.4c0-3.1-0.3,0.7-0.9-2.2c-0.9-4.6-6.1-2.4-8.5,1.4
		C360.4,363.4,309.5,359.3,250,359.3z"/>
	<path fill="#8B6339" d="M250,342.7c-73.7,0-136.7-6.7-161.8-40.4c-3.1-4.1-9.6-2.7-10.6,2.2c-0.7,3.2-1,6.5-1,9.9
		c0,49.7,77.6,90.1,173.4,90.1s173.4-40.3,173.4-90.1c0-3.4-0.3-6.7-1-9.9c-1-4.9-7.5-6.3-10.6-2.2
		C386.7,336.1,323.7,342.7,250,342.7z"/>
	<g>
		<g>
			<path fill="#8B6339" d="M341.1,352.3l-28.2-102.7c-3.4-7.5-10.8-7.9-38.2,6.1c-7,3.6-15.7,5.5-25.1,5.8
				c-9.4-0.3-18.1-2.2-25.1-5.8c-27.5-14.2-34.8-13.8-38.2-6.1L158,352.4c20.8,1.7,55.1,6.8,91.5,6.8
				C287.2,359.3,318.7,353.8,341.1,352.3z"/>
		</g>
	</g>
	<path fill="#B72025" d="M331.5,318c-8,4.8-36.7,12.3-82.1,12.3c-45.2,0-73.9-7.5-82.1-12.3l-6.3,23c25.6,11.6,70.8,12.8,88.4,12.8
		c26.1,0,51-2.4,69.6-6.8c3.9-0.9,11.4-2.7,18.8-6L331.5,318z"/>
	<path fill="#774817" d="M205.4,254.8c0-3.9,20,12.1,44.5,12.1c24.6,0,44.5-16,44.5-12.1c0,3.9-30,36.3-44.5,36.3
		C235.3,291.2,205.4,258.6,205.4,254.8z"/>
	<circle fill="#F9CE1E" cx="250" cy="342.7" r="16.7"/>
</g>
</svg>
