<?xml version="1.0" encoding="utf-8"?>
<!-- Generator: Adobe Illustrator 18.0.0, SVG Export Plug-In . SVG Version: 6.00 Build 0)  -->
<!DOCTYPE svg PUBLIC "-//W3C//DTD SVG 1.1//EN" "http://www.w3.org/Graphics/SVG/1.1/DTD/svg11.dtd">
<svg version="1.1" id="content" xmlns="http://www.w3.org/2000/svg" xmlns:xlink="http://www.w3.org/1999/xlink" x="0px" y="0px"
	 width="500px" height="500px" viewBox="0 0 500 500" enable-background="new 0 0 500 500" xml:space="preserve">
<rect id="position" display="none" fill="none" stroke="#000000" width="500" height="500"/>
<g id="bounds" display="none">
	<rect x="102.2" y="-84.4" display="inline" fill="none" stroke="#000000" stroke-width="0.9205" width="295.5" height="311.7"/>
</g>
<g>
	<path opacity="0.1" enable-background="new    " d="M249.9,88.4c-34.9,0-64.8,2.4-76.7-15.7c-1.4-2.2-4.5-7.5-5-4.8
		c-0.3,1.7-0.5,3.5-0.5,5.3c0,26.7,36.8,48.3,82.2,48.3s82.2-21.6,82.2-48.3c0-1.8-0.2,0.4-0.5-1.3c-0.5-2.7-3.6-1.4-5,0.8
		C314.6,90.8,284.8,88.4,249.9,88.4z"/>
	<path fill="#8B6339" d="M249.9,78.7c-43.2,0-80.1-3.9-94.8-23.7c-1.8-2.4-5.6-1.6-6.2,1.3c-0.4,1.9-0.6,3.8-0.6,5.8
		c0,29.1,45.5,52.8,101.6,52.8s101.6-23.6,101.6-52.8c0-2-0.2-3.9-0.6-5.8c-0.6-2.9-4.4-3.7-6.2-1.3C330,74.8,293.1,78.7,249.9,78.7
		z"/>
	<g>
		<g>
			<path fill="#8B6339" d="M303.3,84.3l-16.5-60.2c-2-4.4-6.3-4.6-22.4,3.6c-4.1,2.1-9.2,3.2-14.7,3.4c-5.5-0.2-10.6-1.3-14.7-3.4
				c-16.1-8.3-20.4-8.1-22.4-3.6L196,84.4c12.2,1,32.3,4,53.6,4C271.7,88.4,290.2,85.2,303.3,84.3z"/>
		</g>
	</g>
	<path fill="#B72025" d="M297.7,64.2c-4.7,2.8-21.5,7.2-48.1,7.2c-26.5,0-43.3-4.4-48.1-7.2l-3.7,13.5c15,6.8,41.5,7.5,51.8,7.5
		c15.3,0,29.9-1.4,40.8-4c2.3-0.5,6.7-1.6,11-3.5L297.7,64.2z"/>
	<path fill="#774817" d="M223.8,27.2c0-2.3,11.7,7.1,26.1,7.1s26.1-9.4,26.1-7.1s-17.6,21.3-26.1,21.3
		C241.3,48.5,223.8,29.4,223.8,27.2z"/>
	<circle fill="#F9CE1E" cx="249.9" cy="78.7" r="9.8"/>
</g>
</svg>
