<?xml version="1.0" encoding="utf-8"?>
<!-- Generator: Adobe Illustrator 18.0.0, SVG Export Plug-In . SVG Version: 6.00 Build 0)  -->
<!DOCTYPE svg PUBLIC "-//W3C//DTD SVG 1.1//EN" "http://www.w3.org/Graphics/SVG/1.1/DTD/svg11.dtd">
<svg version="1.1" id="content" xmlns="http://www.w3.org/2000/svg" xmlns:xlink="http://www.w3.org/1999/xlink" x="0px" y="0px"
	 width="500px" height="500px" viewBox="0 0 500 500" enable-background="new 0 0 500 500" xml:space="preserve">
<rect id="position" display="none" fill="none" stroke="#000000" width="500" height="500"/>
<g id="bounds" display="none">
	<rect x="158.1" y="-46.2" display="inline" fill="none" stroke="#000000" stroke-width="0.9205" width="183.7" height="193.8"/>
</g>
<g>
	<path fill="#D1AD88" d="M202.9,37.1c0.6-2.2,2.8-3.5,5-2.9s3.5,2.8,2.9,5c-2.8,10.7,3.7,21.6,14.3,24.4c2.2,0.6,3.5,2.8,2.9,5
		c-0.6,2.2-2.8,3.5-5,2.9C208,67.6,199,52.2,202.9,37.1z"/>
	<g>
		<path fill="#9D663E" d="M277.2,75.1V54.9h-0.1h-54.2h-0.1v20.1c9.1-2.1,18.3-2.5,28.1-2.5C259.9,72.4,268.9,73.3,277.2,75.1z"/>
		<path fill="#9D663E" d="M250,21.9c-15.4,0-27.8,11.4-27.8,25.5v4.9h55.6v-4.9C277.8,33.3,265.4,21.9,250,21.9z"/>
		<g>
			<path d="M241.3,38.4c0,1.3-1,2.3-2.3,2.3c-1.3,0-2.3-1-2.3-2.3c0-1.3,1-2.3,2.3-2.3C240.2,36.1,241.3,37.1,241.3,38.4"/>
			<path d="M258.4,38.4c0,1.3,1,2.3,2.3,2.3c1.3,0,2.7-1,2.7-2.3c0-1.3-1.4-2.3-2.7-2.3C259.4,36.1,258.4,37.1,258.4,38.4"/>
		</g>
		<g>
			<path fill="#9D663E" d="M237.7,26.6c-0.3,0-0.6-0.2-0.8-0.4l-4.9-8.9c-0.2-0.4-0.1-0.9,0.3-1.2c0.4-0.2,0.9-0.1,1.2,0.3l4.9,8.9
				c0.2,0.4,0.1,0.9-0.3,1.2C237.9,26.6,237.8,26.6,237.7,26.6z"/>
			<path fill="#9D663E" d="M262.3,26.6c-0.1,0-0.3,0-0.4-0.1c-0.4-0.2-0.6-0.7-0.3-1.2l4.9-8.9c0.2-0.4,0.7-0.6,1.2-0.3
				c0.4,0.2,0.6,0.7,0.3,1.2l-4.9,8.9C262.9,26.5,262.6,26.6,262.3,26.6z"/>
		</g>
		<g>
			<path fill="#D1AD88" d="M219.3,41V26.1c0-0.7,0.6-1.4,1.4-1.4h15.6c1.2,0,1.8,1.5,0.9,2.3L221.6,42
				C220.7,42.8,219.3,42.2,219.3,41z"/>
			<path fill="#D1AD88" d="M280.7,41V26.1c0-0.7-0.6-1.4-1.4-1.4h-15.6c-1.2,0-1.8,1.5-0.9,2.3L278.4,42
				C279.3,42.8,280.7,42.2,280.7,41z"/>
		</g>
		<g>
			<circle fill="#B3957D" cx="250.3" cy="52" r="5"/>
			<ellipse fill="#D1AD88" cx="244.6" cy="47.6" rx="7.2" ry="6.1"/>
			<ellipse fill="#D1AD88" cx="255.4" cy="47.6" rx="7.2" ry="6.1"/>
			<path d="M254.2,39.5h-7.6c-0.6,0-1,0.5-1,1v1.9c0,0.6,0.5,1,1,1h0.7c0.6,0,1,0.5,1,1V45c0,0.6,0.5,1,1,1h1.9c0.6,0,1-0.5,1-1
				v-0.4c0-0.6,0.5-1,1-1h0.7c0.6,0,1-0.5,1-1v-1.9C255.2,39.9,254.7,39.5,254.2,39.5z"/>
		</g>
		<path fill="#9D663E" d="M229.3,79.3c0,4.1,3.4,7.5,7.5,7.5s7.5-3.4,7.5-7.5H229.3z"/>
		<path fill="#9D663E" d="M256.1,79.3c0,4.1,3.4,7.5,7.5,7.5s7.5-3.4,7.5-7.5H256.1z"/>
		<g>
			<path fill="#D1AD88" d="M236.8,58.7c-4.1,0-7.5,3.4-7.5,7.5v13.1h15V66.2C244.3,62.1,240.9,58.7,236.8,58.7z"/>
			<path fill="#D1AD88" d="M263.6,58.7c-4.1,0-7.5,3.4-7.5,7.5v13.1h15V66.2C271.1,62.1,267.7,58.7,263.6,58.7z"/>
		</g>
	</g>
</g>
</svg>
