<?xml version="1.0" encoding="utf-8"?>
<!-- Generator: Adobe Illustrator 16.0.0, SVG Export Plug-In . SVG Version: 6.00 Build 0)  -->
<!DOCTYPE svg PUBLIC "-//W3C//DTD SVG 1.1//EN" "http://www.w3.org/Graphics/SVG/1.1/DTD/svg11.dtd">
<svg version="1.1" id="content" xmlns="http://www.w3.org/2000/svg" xmlns:xlink="http://www.w3.org/1999/xlink" x="0px" y="0px"
	 width="500px" height="500px" viewBox="0 0 500 500" enable-background="new 0 0 500 500" xml:space="preserve">
<g id="bounds">
	<rect x="0.2" y="80.2" fill="none" stroke="#EAEAEA" stroke-miterlimit="10" width="499.498" height="499.5"/>
</g>
<g>
	<path fill="#D31818" d="M367.837,392.469c-0.738-8.646-4.444-13.094-6.669-21c0-0.246-0.246-0.494-0.246-0.74
		c-1.979-7.166,0.246-14.824-2.225-21.74c-1.481-4.201-3.951-7.906-7.411-10.873c-1.979-1.975-4.695-3.951-7.909-5.436
		c-6.423-3.457-13.835-5.682-21-7.162c-15.316-3.213-31.129-3.955-46.691-3.955c-1.486,0-3.46,0-5.438,0
		c3.459,10.131,5.438,21,5.438,32.117c0,38.543-21.989,72.393-55.344,92.156c10.625,1.729,20.754,3.211,27.671,3.211
		c19.518,0,65.224-10.131,76.834-13.836C344.612,429.035,370.062,417.67,367.837,392.469z"/>
	<path fill="#B71515" d="M275.932,353.68c0-11.117-1.979-21.986-5.438-32.117c-7.904,0-18.775,0-18.775,0s-22.235,0-29.152,0
		c-15.566-0.246-31.377,0.494-46.696,3.955c-10.128,2.221-21,5.436-28.658,12.598c-3.46,2.967-5.931,6.672-7.412,10.873
		c-2.224,7.162-0.247,14.574-2.224,21.74c0,0.246-0.246,0.494-0.246,0.74c-2.225,7.66-5.931,12.107-6.671,21
		c-2.223,25.201,23.224,36.566,42.741,42.742c7.412,2.225,27.919,7.412,46.942,10.625
		C253.696,426.072,275.932,392.223,275.932,353.68z"/>
	<g>
		<path fill="#EA1515" d="M178.836,312.67c-4.694,5.436-13.341,65.965-13.341,65.965l21,19.271c18.529,6.422,63,13.834,63,13.834
			l-0.988-142.307C225.53,270.174,196.871,291.916,178.836,312.67z"/>
		<path fill="#EA1515" d="M319.906,312.67c-18.033-20.754-48.916-42.496-71.646-43.236l1.235,142.307
			c0,0,44.469-7.412,62.999-13.834l21-19.271C333.248,378.635,324.355,317.857,319.906,312.67z"/>
		<path fill="#F72020" d="M333.494,378.635c-0.246,0-9.139-60.777-13.588-65.965c-7.962-9.164-18.434-18.516-29.604-26.174
			c8.436,23.066,17.146,68.352-24.252,104.465c2.017,6.387,4.28,11.836,6.683,16.527c13.709-2.688,30.193-6.266,39.762-9.582
			L333.494,378.635z"/>
	</g>
	<rect x="227.753" y="269.434" fill="#D11919" width="42.741" height="133.908"/>
	<path fill="#B71515" d="M281.611,381.045c0,0-3.209-16.059,4.695-25.443l-10.129-10.873h-26.929h-26.93l-10.13,10.873
		c7.907,9.139,4.694,25.443,4.694,25.443c-1.729,8.402-1.976,13.838-1.976,13.838c-0.742,15.811,17.294,22.234,17.294,22.234
		c14.576,4.201,17.047,10.623,17.047,10.623s2.47-6.176,17.047-10.623c0,0,18.037-6.176,17.294-22.234
		C283.59,394.883,283.344,389.447,281.611,381.045z"/>
	<path fill="#FAD53E" d="M281.611,373.199c0,0-3.209-16.059,4.695-25.447l-10.129-10.871h-26.929h-26.93l-10.13,10.871
		c7.907,9.143,4.694,25.447,4.694,25.447c-1.729,8.4-1.976,13.834-1.976,13.834c-0.742,15.814,17.294,22.236,17.294,22.236
		c14.576,4.201,17.047,10.625,17.047,10.625s2.47-6.176,17.047-10.625c0,0,18.037-6.176,17.294-22.236
		C283.59,387.033,283.344,381.6,281.611,373.199z"/>
</g>
<path fill="#E8C63A" d="M286.307,347.752l-10.129-10.871h-15.465l-45.334,45.332c-0.381,3.035-0.472,4.82-0.472,4.82
	c-0.742,15.814,17.294,22.236,17.294,22.236c1.547,0.445,2.931,0.922,4.217,1.406l44.556-44.555
	C280.907,360.641,281.795,353.113,286.307,347.752z"/>
</svg>
