<?xml version="1.0" encoding="utf-8"?>
<!-- Generator: Adobe Illustrator 18.0.0, SVG Export Plug-In . SVG Version: 6.00 Build 0)  -->
<!DOCTYPE svg PUBLIC "-//W3C//DTD SVG 1.1//EN" "http://www.w3.org/Graphics/SVG/1.1/DTD/svg11.dtd">
<svg version="1.1" id="content" xmlns="http://www.w3.org/2000/svg" xmlns:xlink="http://www.w3.org/1999/xlink" x="0px" y="0px"
	 width="500px" height="500px" viewBox="0 0 500 500" enable-background="new 0 0 500 500" xml:space="preserve">
<rect id="position" display="none" fill="none" stroke="#000000" width="500" height="500"/>
<g id="bounds" display="none">
	<rect x="0.2" y="80.2" display="inline" fill="none" stroke="#EAEAEA" stroke-miterlimit="10" width="499.5" height="499.5"/>
</g>
<g>
	<g>
		<polygon fill="#1B1B1B" points="249.7,362.3 157.7,317.5 173.5,285.3 327.4,285.3 341.9,316.9 		"/>
	</g>
	<g>
		<path fill="#404040" d="M249.7,325.6L66.9,274.2c-2.3-0.6-2.1-3.9,0.2-4.1l182.2-25.8c0.2,0,0.4,0,0.6,0l182.6,28.9
			c2.3,0.4,2.5,3.5,0.2,4.1l-181.9,48.3C250.3,325.8,250.1,325.8,249.7,325.6z"/>
	</g>
	<g>
		<g>
			<path fill="#FFC100" d="M83.8,414.7c-2.3,0-3.9-1.9-3.9-3.9V287c0-7.8,6.2-14.6,14-15.3l156-2.3c2.3,0,3.9,1.7,4.1,3.9
				c0,2.3-1.7,3.9-3.9,4.1l-155.7,2.3c-3.5,0.2-6.4,3.5-6.4,7.2v123.6C87.7,412.8,85.9,414.7,83.8,414.7z"/>
		</g>
		<g>
			<path fill="#FFAA00" d="M68.5,414.7c-0.6,0-1.2-0.2-1.9-0.4c-2.1-1-2.7-3.5-1.7-5.4c2.9-5.6,3.1-12.6,3.1-45.8
				c0-2.3,1.9-3.9,3.9-3.9c2.3,0,3.9,1.9,3.9,3.9c0,35.3-0.2,42.3-4.1,49.5C71.4,413.9,70,414.7,68.5,414.7z"/>
		</g>
		<g>
			<path fill="#FFAA00" d="M96.4,413.9c-5.2-3.9-5.6-12.2-5.8-18.4v-1.7v-29.9c0-2.3,1.9-3.9,3.9-3.9c2.3,0,3.9,1.9,3.9,3.9v31.4
				c0.2,3.7,0.4,10.7,2.7,12.4L96.4,413.9z"/>
		</g>
		<g>
			<path fill="#FFC100" d="M73.7,414.7c-2.3,0-3.9-1.9-3.9-3.9V360c0-2.3,1.9-3.9,3.9-3.9c2.3,0,3.9,1.9,3.9,3.9v50.5
				C77.8,412.8,76,414.7,73.7,414.7z"/>
		</g>
		<g>
			<path fill="#FFC100" d="M90.8,414.7c-2.3,0-3.9-1.9-3.9-3.9V360c0-2.3,1.9-3.9,3.9-3.9c2.3,0,3.9,1.9,3.9,3.9v50.5
				C95,412.8,93.1,414.7,90.8,414.7z"/>
		</g>
		<g>
			<path fill="#FFD90A" d="M86.9,414.9c-1,0-2.1-0.8-2.1-2.1V360c0-1,0.8-2.1,2.1-2.1c1,0,2.1,0.8,2.1,2.1v52.8
				C89,414.1,87.9,414.9,86.9,414.9z"/>
		</g>
		<g>
			<path fill="#FFD90A" d="M77.8,414.9c-1,0-2.1-0.8-2.1-2.1V360c0-1,0.8-2.1,2.1-2.1s2.1,0.8,2.1,2.1v52.8
				C79.7,414.1,78.9,414.9,77.8,414.9z"/>
		</g>
		<g>
			<path fill="#FFD90A" d="M94.7,414.9c-1,0-2.1-0.8-2.1-2.1V360c0-1,0.8-2.1,2.1-2.1s2.1,0.8,2.1,2.1v52.8
				C96.6,414.1,95.8,414.9,94.7,414.9z"/>
		</g>
		<g>
			<path fill="#FFC100" d="M98.9,356.1c0,8.5-6.8,6.6-15.3,6.6s-15.3,1.7-15.3-6.6c0-8.3,6.8-15.3,15.3-15.3S98.9,347.8,98.9,356.1z
				"/>
		</g>
	</g>
</g>
</svg>
