<?xml version="1.0" encoding="utf-8"?>
<!-- Generator: Adobe Illustrator 18.0.0, SVG Export Plug-In . SVG Version: 6.00 Build 0)  -->
<!DOCTYPE svg PUBLIC "-//W3C//DTD SVG 1.1//EN" "http://www.w3.org/Graphics/SVG/1.1/DTD/svg11.dtd">
<svg version="1.1" id="content" xmlns="http://www.w3.org/2000/svg" xmlns:xlink="http://www.w3.org/1999/xlink" x="0px" y="0px"
	 width="500px" height="500px" viewBox="0 0 500 500" enable-background="new 0 0 500 500" xml:space="preserve">
<rect id="position" display="none" fill="none" stroke="#000000" width="500" height="500"/>
<g id="bounds" display="none">
	<rect x="101.8" y="-110.2" display="inline" fill="none" stroke="#000000" stroke-width="0.9205" width="295.5" height="311.7"/>
</g>
<g>
	<g>
		<polygon fill="#1B1B1B" points="250,100.2 205.4,78.5 213.1,62.9 287.7,62.9 294.7,78.2 		"/>
	</g>
	<g>
		<path fill="#404040" d="M250,82.4l-88.6-24.9c-1.1-0.3-1-1.9,0.1-2L249.8,43c0.1,0,0.2,0,0.3,0l88.5,14c1.1,0.2,1.2,1.7,0.1,2
			l-88.2,23.4C250.3,82.5,250.2,82.5,250,82.4z"/>
	</g>
	<g>
		<g>
			<path fill="#FFC100" d="M169.6,125.6c-1.1,0-1.9-0.9-1.9-1.9v-60c0-3.8,3-7.1,6.8-7.4l75.6-1.1c1.1,0,1.9,0.8,2,1.9
				c0,1.1-0.8,1.9-1.9,2l-75.5,1.1c-1.7,0.1-3.1,1.7-3.1,3.5v59.9C171.5,124.7,170.6,125.6,169.6,125.6z"/>
		</g>
		<g>
			<path fill="#FFAA00" d="M162.2,125.6c-0.3,0-0.6-0.1-0.9-0.2c-1-0.5-1.3-1.7-0.8-2.6c1.4-2.7,1.5-6.1,1.5-22.2
				c0-1.1,0.9-1.9,1.9-1.9c1.1,0,1.9,0.9,1.9,1.9c0,17.1-0.1,20.5-2,24C163.6,125.2,162.9,125.6,162.2,125.6z"/>
		</g>
		<g>
			<path fill="#FFAA00" d="M175.7,125.2c-2.5-1.9-2.7-5.9-2.8-8.9v-0.8V101c0-1.1,0.9-1.9,1.9-1.9c1.1,0,1.9,0.9,1.9,1.9v15.2
				c0.1,1.8,0.2,5.2,1.3,6L175.7,125.2z"/>
		</g>
		<g>
			<path fill="#FFC100" d="M164.7,125.6c-1.1,0-1.9-0.9-1.9-1.9V99.1c0-1.1,0.9-1.9,1.9-1.9c1.1,0,1.9,0.9,1.9,1.9v24.5
				C166.7,124.7,165.8,125.6,164.7,125.6z"/>
		</g>
		<g>
			<path fill="#FFC100" d="M173,125.6c-1.1,0-1.9-0.9-1.9-1.9V99.1c0-1.1,0.9-1.9,1.9-1.9c1.1,0,1.9,0.9,1.9,1.9v24.5
				C175,124.7,174.1,125.6,173,125.6z"/>
		</g>
		<g>
			<path fill="#FFD90A" d="M171.1,125.7c-0.5,0-1-0.4-1-1V99.1c0-0.5,0.4-1,1-1c0.5,0,1,0.4,1,1v25.6
				C172.1,125.3,171.6,125.7,171.1,125.7z"/>
		</g>
		<g>
			<path fill="#FFD90A" d="M166.7,125.7c-0.5,0-1-0.4-1-1V99.1c0-0.5,0.4-1,1-1s1,0.4,1,1v25.6C167.6,125.3,167.2,125.7,166.7,125.7
				z"/>
		</g>
		<g>
			<path fill="#FFD90A" d="M174.9,125.7c-0.5,0-1-0.4-1-1V99.1c0-0.5,0.4-1,1-1s1,0.4,1,1v25.6C175.8,125.3,175.4,125.7,174.9,125.7
				z"/>
		</g>
		<g>
			<path fill="#FFC100" d="M176.9,97.2c0,4.1-3.3,3.2-7.4,3.2s-7.4,0.8-7.4-3.2s3.3-7.4,7.4-7.4S176.9,93.2,176.9,97.2z"/>
		</g>
	</g>
</g>
</svg>
