<?xml version="1.0" encoding="utf-8"?>
<!-- Generator: Adobe Illustrator 17.1.0, SVG Export Plug-In . SVG Version: 6.00 Build 0)  -->
<!DOCTYPE svg PUBLIC "-//W3C//DTD SVG 1.1//EN" "http://www.w3.org/Graphics/SVG/1.1/DTD/svg11.dtd">
<svg version="1.1" id="Layer_1" xmlns="http://www.w3.org/2000/svg" xmlns:xlink="http://www.w3.org/1999/xlink" x="0px" y="0px"
	 width="500px" height="500px" viewBox="0 0 500 500" enable-background="new 0 0 500 500" xml:space="preserve">
<rect x="140.4" y="159.6" fill="#1B1952" width="218.3" height="20.1"/>
<path opacity="0.1" fill="#010101" d="M343.3,178.7c-4.9,1.6-11.1,1.4-18.2,0.3c-12.7-35.8-140.2-35.6-151.5,0.7
	c-5.7,0.8-10.8,0.8-15-0.6c-23.4-7.6-24.7-44.5-24.7-13.2c0,32.2,15.7,36.9,40.4,34.6c7,36.1,38,63.3,75.2,63.3s68.2-27.2,75.2-63.3
	c24.7,2.3,40.4-2.4,40.4-34.6C365.1,134.1,367.3,170.8,343.3,178.7z"/>
<path fill="#2E368F" d="M178.7,185.7c0-39.1,141.6-39.1,141.6,0s-31.7,70.8-70.8,70.8S178.7,224.8,178.7,185.7z"/>
<path fill="#2C2F7D" d="M249.5,234.3c-24.9,0-45.4-19.2-47.4-43.6c-0.1,0.6-0.2,1.2-0.2,1.8c0,26.3,21.3,47.6,47.6,47.6
	s47.6-21.3,47.6-47.6c0-0.6-0.1-1.2-0.2-1.8C294.9,215.1,274.5,234.3,249.5,234.3z"/>
<path fill="#2C2F7D" d="M249.5,213.9c-17.2,0-31.4-13.3-32.8-30.1c-0.1,0.4-0.1,0.8-0.1,1.3c0,18.2,14.7,32.9,32.9,32.9
	s32.9-14.7,32.9-32.9c0-0.4,0-0.9-0.1-1.3C280.9,200.7,266.8,213.9,249.5,213.9z"/>
<path opacity="0.1" fill="#010101" d="M319,199.7c0.9-4.5,1.4-9.2,1.4-14c0-3-0.8-5.7-2.3-8.2c-21.6-5-48.5-16.2-68.5-16.2
	c-21.2,0-47.9,12.3-69,17c-1.2,2.3-1.9,4.7-1.9,7.4c0,4.8,0.5,9.5,1.4,14c19.3-2.4,43.4-7.8,69.4-7.8S299.6,197.3,319,199.7z"/>
<path opacity="0.1" fill="#010101" d="M152.9,166.6c0-38.4,43.3-69.4,96.6-69.4s96.6,31.1,96.6,69.4h6.8c0,0-18.3-54.3-19.3-55.6
	S250,83,250,83l-85.7,24.7l-17.7,58.9H152.9z"/>
<path fill="#2E368F" d="M249.5,53.5c-68,0-123.1,47.5-123.1,106.1c0,58.6,55.1,26.1,123.1,26.1s123.2,32.5,123.2-26.1
	C372.7,101,317.6,53.5,249.5,53.5z M249.5,149c-53.4,0-96.6,48.9-96.6,10.6c0-38.4,43.3-69.4,96.6-69.4s96.6,31.1,96.6,69.4
	C346.2,198,302.9,149,249.5,149z"/>
<path fill="#2C2F7D" d="M249.6,80c54,0,98,29.4,100.8,66.3c0.1-1.2,0.1-2.4,0.1-3.7c0-38.7-45.2-70-100.9-70
	c-55.7,0-100.9,31.3-100.9,70c0,1.2,0,2.5,0.1,3.7C151.6,109.4,195.6,80,249.6,80z"/>
</svg>
