<?xml version="1.0" encoding="utf-8"?>
<!-- Generator: Adobe Illustrator 16.0.0, SVG Export Plug-In . SVG Version: 6.00 Build 0)  -->
<!DOCTYPE svg PUBLIC "-//W3C//DTD SVG 1.1//EN" "http://www.w3.org/Graphics/SVG/1.1/DTD/svg11.dtd">
<svg version="1.1" id="content" xmlns="http://www.w3.org/2000/svg" xmlns:xlink="http://www.w3.org/1999/xlink" x="0px" y="0px"
	 width="500px" height="500px" viewBox="0 0 500 500" enable-background="new 0 0 500 500" xml:space="preserve">
<g id="bounds" display="none">
	
		<rect x="149.429" y="116.105" display="inline" fill="none" stroke="#23170D" stroke-width="0.4297" width="49.456" height="49.456"/>
</g>
<rect id="position" display="none" fill="none" stroke="#000000" width="500" height="500"/>
<path opacity="0.2" fill="#212121" enable-background="new    " d="M330.987,103.044c4.366,4.154,8.312,8.645,11.781,13.421
	l-5.762-2.851c-0.352-0.172-28.787-15.777-87.028-15.777c-58.315,0-86.75,15.64-87.03,15.778l-5.582,2.743
	c3.436-4.717,7.338-9.154,11.651-13.262C176.916,100.383,240.739,73.11,330.987,103.044z"/>
<path fill="#D64351" d="M329.062,94.328c0,0-25.502-14.637-79.083-15.973c-53.58,1.336-79.083,15.973-79.083,15.973
	s-5.185,3.509-9.273,16.597c0,0,28.47-16.087,88.356-16.087s88.356,16.087,88.356,16.087
	C334.248,97.836,329.062,94.328,329.062,94.328z"/>
</svg>
