<?xml version="1.0" encoding="utf-8"?>
<!-- Generator: Adobe Illustrator 18.0.0, SVG Export Plug-In . SVG Version: 6.00 Build 0)  -->
<!DOCTYPE svg PUBLIC "-//W3C//DTD SVG 1.1//EN" "http://www.w3.org/Graphics/SVG/1.1/DTD/svg11.dtd">
<svg version="1.1" id="content" xmlns="http://www.w3.org/2000/svg" xmlns:xlink="http://www.w3.org/1999/xlink" x="0px" y="0px"
	 width="500px" height="500px" viewBox="0 0 500 500" enable-background="new 0 0 500 500" xml:space="preserve">
<rect id="position" display="none" fill="none" stroke="#000000" width="500" height="500"/>
<g id="bounds" display="none">
	<rect x="0.2" y="80.2" display="inline" fill="none" stroke="#EAEAEA" stroke-miterlimit="10" width="499.5" height="499.5"/>
</g>
<g>
	<rect x="110" y="331.3" fill="#1B1952" width="279.5" height="25.7"/>
	<path opacity="0.1" fill="#010101" enable-background="new    " d="M369.8,355.7c-6.3,2-14.2,1.8-23.3,0.4
		c-16.3-45.8-179.5-45.6-194,0.9c-7.3,1-13.8,1-19.2-0.8c-30-9.7-31.6-57-31.6-16.9c0,41.2,20.1,47.3,51.7,44.3
		c9,46.2,48.7,81.1,96.3,81.1s87.3-34.8,96.3-81.1c31.6,2.9,51.7-3.1,51.7-44.3C397.7,298.6,400.5,345.6,369.8,355.7z"/>
	<path fill="#2E368F" d="M159,364.7c0-50.1,181.3-50.1,181.3,0s-40.6,90.7-90.7,90.7S159,414.8,159,364.7z"/>
	<path fill="#2C2F7D" d="M249.7,426.9c-31.9,0-58.1-24.6-60.7-55.8c-0.1,0.8-0.3,1.5-0.3,2.3c0,33.7,27.3,61,61,61s61-27.3,61-61
		c0-0.8-0.1-1.5-0.3-2.3C307.8,402.4,281.7,426.9,249.7,426.9z"/>
	<path fill="#2C2F7D" d="M249.7,400.8c-22,0-40.2-17-42-38.5c-0.1,0.5-0.1,1-0.1,1.7c0,23.3,18.8,42.1,42.1,42.1
		s42.1-18.8,42.1-42.1c0-0.5,0-1.2-0.1-1.7C289.9,383.9,271.8,400.8,249.7,400.8z"/>
	<path opacity="0.1" fill="#010101" enable-background="new    " d="M338.7,382.6c1.2-5.8,1.8-11.8,1.8-17.9c0-3.8-1-7.3-2.9-10.5
		c-27.7-6.4-62.1-20.7-87.7-20.7c-27.1,0-61.3,15.8-88.4,21.8c-1.5,2.9-2.4,6-2.4,9.5c0,6.1,0.6,12.2,1.8,17.9
		c24.7-3.1,55.6-10,88.9-10S313.8,379.6,338.7,382.6z"/>
	<path opacity="0.1" fill="#010101" enable-background="new    " d="M126,340.3c0-49.2,55.4-88.9,123.7-88.9s123.7,39.8,123.7,88.9
		h8.7c0,0-23.4-69.5-24.7-71.2c-1.3-1.7-107.1-35.9-107.1-35.9l-109.7,31.6l-22.7,75.4H126z"/>
	<path fill="#2E368F" d="M249.7,195.4c-87.1,0-157.6,60.8-157.6,135.9s70.6,33.4,157.6,33.4s157.8,41.6,157.8-33.4
		S336.9,195.4,249.7,195.4z M249.7,317.7c-68.4,0-123.7,62.6-123.7,13.6c0-49.2,55.4-88.9,123.7-88.9s123.7,39.8,123.7,88.9
		C373.5,380.5,318.1,317.7,249.7,317.7z"/>
	<path fill="#2C2F7D" d="M249.8,229.4c69.1,0,125.5,37.6,129.1,84.9c0.1-1.5,0.1-3.1,0.1-4.7c0-49.6-57.9-89.6-129.2-89.6
		S120.6,260,120.6,309.5c0,1.5,0,3.2,0.1,4.7C124.3,267,180.7,229.4,249.8,229.4z"/>
</g>
</svg>
