<?xml version="1.0" encoding="utf-8"?>
<!-- Generator: Adobe Illustrator 18.0.0, SVG Export Plug-In . SVG Version: 6.00 Build 0)  -->
<!DOCTYPE svg PUBLIC "-//W3C//DTD SVG 1.1//EN" "http://www.w3.org/Graphics/SVG/1.1/DTD/svg11.dtd">
<svg version="1.1" id="Layer_1" xmlns="http://www.w3.org/2000/svg" xmlns:xlink="http://www.w3.org/1999/xlink" x="0px" y="0px"
	 width="500px" height="500px" viewBox="0 0 500 500" enable-background="new 0 0 500 500" xml:space="preserve">
<g>
	<g>
		<rect x="143.6" y="159.5" fill="#E2E2E2" width="11.3" height="10.3"/>
		<polygon fill="#E2E2E2" points="134.8,197.5 125.5,197.5 125.5,207.5 125.5,207.8 134.8,207.8 		"/>
		<rect x="143.6" y="140.5" fill="#E2E2E2" width="11.3" height="10.3"/>
		<polygon fill="#E2E2E2" points="134.8,216.5 125.5,216.5 125.5,226.5 125.5,226.8 134.8,226.8 		"/>
		<rect x="143.6" y="197.4" fill="#E2E2E2" width="11.3" height="10.3"/>
		<rect x="143.6" y="216.4" fill="#E2E2E2" width="11.3" height="10.3"/>
		<rect x="143.6" y="178.5" fill="#E2E2E2" width="11.3" height="10.3"/>
		<rect x="143.6" y="121.5" fill="#E2E2E2" width="11.3" height="10.3"/>
		<rect x="163.5" y="140.5" fill="#E2E2E2" width="10.3" height="10.3"/>
		<rect x="163.5" y="178.5" fill="#E2E2E2" width="10.3" height="10.3"/>
		<rect x="163.5" y="159.5" fill="#E2E2E2" width="10.3" height="10.3"/>
		<rect x="163.5" y="121.5" fill="#E2E2E2" width="10.3" height="10.3"/>
		<rect x="163.5" y="216.4" fill="#E2E2E2" width="10.3" height="10.3"/>
		<rect x="163.5" y="197.4" fill="#E2E2E2" width="10.3" height="10.3"/>
		<path fill="#E2E2E2" d="M344.8,112.8h9.5c-2.7-3.7-5.7-7.2-9.2-10.3h-0.3V112.8z"/>
		<polygon fill="#E2E2E2" points="134.8,178.5 125.5,178.5 125.5,188.5 125.5,188.8 134.8,188.8 		"/>
		<path fill="#E2E2E2" d="M364.8,169.8h9.1c-0.3-2.7-0.7-6.2-1.5-10.3h-7.6V169.8z"/>
		<rect x="344.8" y="197.4" fill="#E2E2E2" width="11.3" height="10.3"/>
		<rect x="325.8" y="121.5" fill="#E2E2E2" width="10.3" height="10.3"/>
		<rect x="325.8" y="197.4" fill="#E2E2E2" width="10.3" height="10.3"/>
		<rect x="344.8" y="216.4" fill="#E2E2E2" width="11.3" height="10.3"/>
		<rect x="325.8" y="140.5" fill="#E2E2E2" width="10.3" height="10.3"/>
		<rect x="325.8" y="178.5" fill="#E2E2E2" width="10.3" height="10.3"/>
		<rect x="325.8" y="159.5" fill="#E2E2E2" width="10.3" height="10.3"/>
		<rect x="325.8" y="102.5" fill="#E2E2E2" width="10.3" height="10.3"/>
		<rect x="344.8" y="178.5" fill="#E2E2E2" width="11.3" height="10.3"/>
		<rect x="344.8" y="121.5" fill="#E2E2E2" width="11.3" height="10.3"/>
		<rect x="344.8" y="140.5" fill="#E2E2E2" width="11.3" height="10.3"/>
		<rect x="344.8" y="159.5" fill="#E2E2E2" width="11.3" height="10.3"/>
		<rect x="285.1" y="83.5" fill="#E2E2E2" width="12" height="10.3"/>
		<rect x="223" y="64.5" fill="#E2E2E2" width="12" height="10.3"/>
		<rect x="243.7" y="83.5" fill="#E2E2E2" width="12" height="10.3"/>
		<rect x="243.7" y="64.5" fill="#E2E2E2" width="12" height="10.3"/>
		<rect x="202.3" y="83.5" fill="#E2E2E2" width="12" height="10.3"/>
		<rect x="264.4" y="64.5" fill="#E2E2E2" width="12" height="10.3"/>
		<rect x="223" y="83.5" fill="#E2E2E2" width="12" height="10.3"/>
		<rect x="264.4" y="83.5" fill="#E2E2E2" width="12" height="10.3"/>
		<rect x="163.5" y="102.5" fill="#E2E2E2" width="10.3" height="10.3"/>
		<rect x="325.8" y="216.4" fill="#E2E2E2" width="10.3" height="10.3"/>
		<rect x="305.7" y="83.5" fill="#E2E2E2" width="11.4" height="10.3"/>
		<rect x="182.5" y="83.5" fill="#E2E2E2" width="11.1" height="10.3"/>
		<polygon fill="#E2E2E2" points="364.6,216.5 364.6,226.8 373.9,226.8 374,226.7 374,216.5 		"/>
		<polygon fill="#E2E2E2" points="370.4,197.5 364.6,197.5 364.6,207.8 369.5,207.8 373.9,207.8 374,207.8 374,207.7 374,197.5 
			373.9,197.5 		"/>
		<polygon fill="#E2E2E2" points="371.1,178.5 364.6,178.5 364.6,188.8 370.4,188.8 373.9,188.8 374,188.8 374,188.7 374,178.5 
			373.9,178.5 		"/>
		<path fill="#E2E2E2" d="M374,178.5"/>
		<path fill="#E2E2E2" d="M364.8,150.8h4.2h1.6c-0.8-3.3-1.7-6.8-2.9-10.3h-2.9L364.8,150.8L364.8,150.8z"/>
		<path fill="#E2E2E2" d="M325.7,84.3C325.7,84.3,325.6,84.2,325.7,84.3l-0.1,9.5h10.3v-0.5C333.2,90.7,329.7,87.6,325.7,84.3z"/>
		<path fill="#E2E2E2" d="M305.8,70.6v2.1v2.1h6.9C310.5,73.4,308.3,72,305.8,70.6C305.9,70.7,305.8,70.7,305.8,70.6z"/>
		<path fill="#E2E2E2" d="M285.1,74.7h12v-2v-6.6c-1.2-0.5-2.4-1.1-3.5-1.6h-8.5V74.7z"/>
		<path fill="#E2E2E2" d="M206.1,64.5c-1.3,0.6-2.5,1.1-3.7,1.7h-0.1v0.1l0,0v8.6h12V64.6L206.1,64.5z"/>
		<path fill="#E2E2E2" d="M193.7,70.7c-2.3,1.3-4.5,2.6-6.6,4c-0.1,0.1-0.2,0.1-0.3,0.2h0.2h1.6h5l0.3-4.2l0,0v-0.1
			C193.8,70.6,193.8,70.7,193.7,70.7z"/>
		<path fill="#E2E2E2" d="M163.6,93.3l-0.1,0.1v0.1v0.4h10.3v-9.1v-0.4v-0.1C169.7,87.6,166.3,90.7,163.6,93.3z"/>
		<path fill="#E2E2E2" d="M145.6,112.6c-0.2,0.2-0.2,0.3-0.2,0.3h9.4v-10.3h-0.3C151.2,105.6,148.2,109,145.6,112.6z"/>
		<path fill="#E2E2E2" d="M127.3,159.6c-0.7,4-1.2,7.5-1.4,10c0,0.1,0,0.2,0,0.3h6.5l0,0h2.5v-10.3h-3.3H127.3L127.3,159.6z"/>
		<path fill="#E2E2E2" d="M132,140.6L132,140.6c-1.1,3.5-2,6.8-2.8,10c0,0.1,0,0.2-0.1,0.3h2.4l0,0h3.3v-10.3l0,0H132z"/>
	</g>
	<path fill="#D06133" d="M373.9,169.8h-9.1v-10.3h7.6c-0.5-2.7-0.9-5.9-1.8-8.7h-5.8v-10.3h2.9c-2.9-9.8-7.6-19.9-13.4-27.7h-9.5
		v-10.3h0.3c-0.5-0.4-1.2-1.2-1.7-1.6c0,0-2.4-3-7.3-7.6v0.5h-10.3v-9.6c-4.2-3.5-8-6.2-13.1-9.4h-6.9v-4.2c-3-1.8-5.6-3.1-8.7-4.5
		v8.6h-12V64.5h8.4c-12.1-5.4-27.9-9.6-43.9-9.7c-16.3-0.1-30.7,4.3-43.4,9.8h8.1v10.3h-12v-8.6c-3.1,1.3-5.8,2.8-8.4,4.4l-0.3,4.2
		H187c-4.9,3.2-9.4,6.3-13.2,9.5v9.5h-10.3v-0.4c-4.7,4.6-8.4,8.6-8.9,9.1h0.2v10.3h-9.4c-6.5,8.9-10.8,18.5-13.4,27.7h2.8v10.3
		h-5.6c-0.7,3.1-1.3,5.8-1.8,8.7h7.4v10.3h-8.9c-0.4,3-0.4,5.1-0.4,5.1v3.5h9.3v10.3h-9.3v8.7h9.3v10.3h-9.3v8.7h9.3v10.3h-9.3v8.6
		h57V101.8v-0.4l134.4-0.1v0.4v134l57-0.2v-8.7h-9.3v-10.3h9.3v-8.7h-9.3v-10.3h9.3v-8.7h-9.3v-10.3h9.3
		C374.1,174.9,374.2,172.3,373.9,169.8z M154.9,226.7h-11.3v-10.3h11.3V226.7z M154.9,207.7h-11.3v-10.3h11.3V207.7z M154.9,188.8
		h-11.3v-10.3h11.3V188.8z M154.9,169.8h-11.3v-10.3h11.3V169.8z M154.9,150.8h-11.3v-10.3h11.3V150.8z M154.9,131.8h-11.3v-10.3
		h11.3V131.8z M173.8,226.7h-10.3v-10.3h10.3V226.7z M173.8,207.7h-10.3v-10.3h10.3V207.7z M173.8,188.8h-10.3v-10.3h10.3V188.8z
		 M173.8,169.8h-10.3v-10.3h10.3V169.8z M173.8,150.8h-10.3v-10.3h10.3V150.8z M173.8,131.8h-10.3v-10.3h10.3V131.8z M173.8,112.8
		h-10.3v-10.3h10.3V112.8z M193.6,93.8h-11.1V83.5h11.1V93.8z M214.3,93.8h-12V83.5h12V93.8z M235,93.8h-12V83.5h12V93.8z M235,74.8
		h-12V64.5h12V74.8z M255.7,93.8h-12V83.5h12V93.8z M255.7,74.8h-12V64.5h12V74.8z M276.4,93.8h-12V83.5h12V93.8z M276.4,74.8h-12
		V64.5h12V74.8z M297.1,93.8h-12V83.5h12V93.8z M317.1,93.8h-11.4V83.5h11.4V93.8z M336.1,226.7h-10.3v-10.3h10.3V226.7z
		 M336.1,207.7h-10.3v-10.3h10.3V207.7z M336.1,188.8h-10.3v-10.3h10.3V188.8z M336.1,169.8h-10.3v-10.3h10.3V169.8z M336.1,150.8
		h-10.3v-10.3h10.3V150.8z M336.1,131.8h-10.3v-10.3h10.3V131.8z M336.1,112.8h-10.3v-10.3h10.3V112.8z M356.1,226.7h-11.3v-10.3
		h11.3V226.7z M356.1,207.7h-11.3v-10.3h11.3V207.7z M356.1,188.8h-11.3v-10.3h11.3V188.8z M356.1,169.8h-11.3v-10.3h11.3V169.8z
		 M356.1,150.8h-11.3v-10.3h11.3V150.8z M356.1,131.8h-11.3v-10.3h11.3V131.8z"/>
	<g>
		<path fill="#212120" d="M347.7,94.2c0,4.6-3.7,8.3-8.3,8.3H160.2c-4.6,0-8.3-3.7-8.3-8.3l0,0c0-4.6,3.7-8.3,8.3-8.3h179.1
			C343.9,85.8,347.7,89.6,347.7,94.2L347.7,94.2z"/>
		<path fill="#212120" d="M347.7,78.2c0,4.6-3.7,8.3-8.3,8.3H160.2c-4.6,0-8.3-3.7-8.3-8.3l0,0c0-4.6,3.7-8.3,8.3-8.3h179.1
			C343.9,69.9,347.7,73.6,347.7,78.2L347.7,78.2z"/>
	</g>
</g>
</svg>
