<?xml version="1.0" encoding="utf-8"?>
<!-- Generator: Adobe Illustrator 18.0.0, SVG Export Plug-In . SVG Version: 6.00 Build 0)  -->
<!DOCTYPE svg PUBLIC "-//W3C//DTD SVG 1.1//EN" "http://www.w3.org/Graphics/SVG/1.1/DTD/svg11.dtd">
<svg version="1.1" id="content" xmlns="http://www.w3.org/2000/svg" xmlns:xlink="http://www.w3.org/1999/xlink" x="0px" y="0px"
	 width="500px" height="500px" viewBox="0 0 500 500" enable-background="new 0 0 500 500" xml:space="preserve">
<rect id="position" display="none" fill="none" stroke="#000000" width="500" height="500"/>
<g id="bounds" display="none">
	<rect x="0.2" y="80.2" display="inline" fill="none" stroke="#EAEAEA" stroke-miterlimit="10" width="499.5" height="499.5"/>
</g>
<g>
	<g>
		<g>
			<path fill="#FFBC00" d="M172.6,299.5c-4.6,11-17.4,16.3-17.4,16.3s-5.1-12.6-0.5-23.8c4.6-11,17.4-16.3,17.4-16.3
				S177.2,288.5,172.6,299.5z"/>
		</g>
		<g>
			<path fill="#FFBC00" d="M148.5,318.2c-4.6,11-17.4,16.3-17.4,16.3s-5.1-12.6-0.5-23.8c4.6-11,17.4-16.3,17.4-16.3
				S153.1,307,148.5,318.2z"/>
		</g>
		<g>
			<path fill="#FFBC00" d="M124.2,336.7c-4.6,11-17.4,16.3-17.4,16.3s-5.1-12.6-0.5-23.8c4.6-11,17.4-16.3,17.4-16.3
				S128.7,325.7,124.2,336.7z"/>
		</g>
		<g>
			<path fill="#FFBC00" d="M100.1,355.5c-4.6,11-17.4,16.3-17.4,16.3s-5.1-12.6-0.5-23.8c4.6-11,17.4-16.3,17.4-16.3
				S104.6,344.2,100.1,355.5z"/>
		</g>
		<g>
			<path fill="#EF9614" d="M64.8,385.8c-1,0-1.9-0.4-2.5-1.3c-1-1.4-0.7-3.4,0.7-4.4l98.4-72.2c1.4-1,3.4-0.7,4.4,0.7
				c1,1.4,0.7,3.4-0.7,4.4l-98.4,72.2C66.2,385.6,65.5,385.8,64.8,385.8z"/>
		</g>
		<g>
			<g>
				<path fill="#FFBC00" d="M170,309c-11.8,1.6-20.1,12.6-20.1,12.6s11,8.3,22.8,6.4c11.8-1.6,20.1-12.6,20.1-12.6
					S181.7,307.4,170,309z"/>
			</g>
			<g>
				<path fill="#FFBC00" d="M145.9,327.7c-11.8,1.6-20.1,12.6-20.1,12.6s11,8.3,22.8,6.4c11.8-1.6,20.1-12.6,20.1-12.6
					S157.6,325.8,145.9,327.7z"/>
			</g>
			<g>
				<path fill="#FFBC00" d="M121.5,346.2c-11.8,1.6-20.1,12.6-20.1,12.6s11,8.3,22.8,6.4c11.8-1.6,20.1-12.6,20.1-12.6
					S133.3,344.6,121.5,346.2z"/>
			</g>
			<g>
				<path fill="#FFBC00" d="M97.4,364.9c-11.8,1.6-20.1,12.6-20.1,12.6s11,8.3,22.8,6.4c11.8-1.9,20.1-12.6,20.1-12.6
					S109.2,363,97.4,364.9z"/>
			</g>
		</g>
	</g>
	<g>
		<g>
			<path fill="#FFBC00" d="M327.4,275.7c0,0,12.9,5.4,17.4,16.3c4.6,11.2-0.5,23.8-0.5,23.8s-12.9-5.4-17.4-16.3
				C322.3,288.5,327.4,275.7,327.4,275.7z"/>
		</g>
		<g>
			<path fill="#FFBC00" d="M351.5,294.4c0,0,12.9,5.4,17.4,16.3c4.6,11.2-0.5,23.8-0.5,23.8s-12.9-5.4-17.4-16.3
				C346.4,307,351.5,294.4,351.5,294.4z"/>
		</g>
		<g>
			<path fill="#FFBC00" d="M375.9,312.9c0,0,12.9,5.4,17.4,16.3c4.6,11.2-0.5,23.8-0.5,23.8s-12.9-5.4-17.4-16.3
				S375.9,312.9,375.9,312.9z"/>
		</g>
		<g>
			<path fill="#FFBC00" d="M400,331.6c0,0,12.9,5.4,17.4,16.3c4.6,11.2-0.5,23.8-0.5,23.8s-12.9-5.4-17.4-16.3
				C394.9,344.2,400,331.6,400,331.6z"/>
		</g>
		<g>
			<path fill="#EF9614" d="M434.7,385.8c-0.6,0-1.3-0.2-1.9-0.6l-98.4-72.2c-1.4-1-1.7-3-0.7-4.4c1-1.4,3-1.7,4.4-0.7l98.4,72.2
				c1.4,1,1.7,3,0.7,4.4C436.6,385.3,435.6,385.8,434.7,385.8z"/>
		</g>
		<g>
			<g>
				<path fill="#FFBC00" d="M306.8,315.4c0,0,8.3,11,20.1,12.6c11.8,1.9,22.8-6.4,22.8-6.4s-8.3-11-20.1-12.6
					S306.8,315.4,306.8,315.4z"/>
			</g>
			<g>
				<path fill="#FFBC00" d="M330.9,334.1c0,0,8.3,11,20.1,12.6c11.8,1.9,22.8-6.4,22.8-6.4s-8.3-11-20.1-12.6
					C341.9,325.8,330.9,334.1,330.9,334.1z"/>
			</g>
			<g>
				<path fill="#FFBC00" d="M355.3,352.6c0,0,8.3,11,20.1,12.6c11.8,1.9,22.8-6.4,22.8-6.4s-8.3-11-20.1-12.6
					C366.2,344.6,355.3,352.6,355.3,352.6z"/>
			</g>
			<g>
				<path fill="#FFBC00" d="M379.4,371.3c0,0,8.3,10.7,20.1,12.6c11.8,1.9,22.8-6.4,22.8-6.4s-8.3-11-20.1-12.6
					C390.3,363,379.4,371.3,379.4,371.3z"/>
			</g>
		</g>
	</g>
</g>
</svg>
