<?xml version="1.0" encoding="utf-8"?>
<!-- Generator: Adobe Illustrator 16.0.0, SVG Export Plug-In . SVG Version: 6.00 Build 0)  -->
<!DOCTYPE svg PUBLIC "-//W3C//DTD SVG 1.1//EN" "http://www.w3.org/Graphics/SVG/1.1/DTD/svg11.dtd">
<svg version="1.1" id="content" xmlns="http://www.w3.org/2000/svg" xmlns:xlink="http://www.w3.org/1999/xlink" x="0px" y="0px"
	 width="500px" height="500px" viewBox="0 0 500 500" enable-background="new 0 0 500 500" xml:space="preserve">
<g id="bounds">
	<rect x="0.2" y="80.2" fill="none" stroke="#EAEAEA" stroke-miterlimit="10" width="499.498" height="499.5"/>
</g>
<g>
	<path fill="#303342" d="M386.097,343.815c-1.494-4.984-6.23-6.727-10.219-9.221c-4.237-2.74-8.228-5.734-11.967-8.973
		c-4.486-3.738-8.973-7.729-12.959-11.966c-4.49-4.985-7.979-10.466-11.218-16.698c-3.99-7.479-12.962-6.734-20.19-6.482
		c-9.225,0.251-18.944-0.747-27.668-2.743c-7.978-1.744-15.955-4.484-23.182-7.975c-3.738-1.745-7.477-3.739-11.216-5.985
		c-0.252-0.246-8.477-5.232-8.477-4.485c0-0.747-8.225,4.485-8.473,4.485c-3.739,2.246-7.479,4.24-11.217,5.985
		c-7.478,3.49-15.207,6.479-23.184,7.975c-8.972,1.747-18.694,2.994-27.667,2.743c-6.981-0.252-16.203-0.996-20.19,6.482
		c-3.242,5.979-6.482,11.465-11.216,16.698c-3.99,4.237-8.228,8.228-12.965,11.966c-3.739,3.238-7.975,5.98-11.962,8.973
		c-3.99,2.742-8.725,4.236-10.221,9.221c-3.739,12.215,15.207,24.679,22.933,31.409c5.983,5.235,11.963,10.221,17.944,14.955
		l95.967-4.984l95.97,4.984c6.231-4.734,12.212-9.72,17.943-14.955C370.642,368.494,389.836,356.278,386.097,343.815z"/>
	<path fill="#20232E" d="M124.37,345.314c0.747-1.994,3.488-2.243,5.484-2.992c2.741-0.998,5.234-2.741,7.727-4.236
		c4.238-2.993,8.227-6.483,11.716-10.473c3.989-4.733,8.225-9.469,11.467-14.705c1.743-2.742,3.238-5.483,4.236-8.225
		c0.998-2.74,2.74-4.489,5.734-4.489l31.655,75.778l-39.383,13.957c0,0-34.398-35.643-34.398-35.893
		C126.612,351.796,123.375,348.305,124.37,345.314z"/>
	<path fill="#20232E" d="M373.135,345.314c-0.748-1.994-3.488-2.243-5.484-2.992c-2.741-0.998-5.233-2.741-7.727-4.236
		c-4.237-2.993-8.225-6.483-11.716-10.473c-3.986-4.733-8.226-9.469-11.465-14.705c-1.745-2.742-3.24-5.483-4.238-8.225
		c-0.998-2.74-2.74-4.489-5.732-4.489l-31.657,75.778l39.384,13.957c0,0,34.397-35.643,34.397-35.893
		C370.892,351.796,374.134,348.305,373.135,345.314z"/>
	<g>
		<path fill="#1B1E26" d="M135.336,406.383c0,23.681,50.603,42.376,113.415,42.376c62.814,0,113.417-19.194,113.417-42.376H135.336z
			"/>
	</g>
	<path fill="#303342" d="M346.715,376.722c0,0-28.666-31.659-97.713-31.659c-69.046,0-98.459,31.659-98.459,31.659l-15.206,29.661
		h226.832L346.715,376.722z"/>
	<polygon fill="#2C2D2D" points="143.563,390.18 135.336,406.383 362.168,406.383 353.692,390.18 248.502,390.18 	"/>
</g>
<g>
	<path opacity="0.5" fill="#1B1E26" d="M281.609,318.892c-2.126-1.74-5.999-5.031-10.449-8.517c-0.969-0.773-2.321-0.773-3.486-0.19
		c-2.516,1.159-5.031,1.549-7.351,1.549c-5.419-0.197-9.68-3.1-11.421-4.456c-0.387-0.387-1.159-0.387-1.548,0
		c-1.742,1.356-5.998,4.259-11.611,4.456c-2.127,0-4.644-0.39-7.162-1.549c-0.968-0.39-2.516-0.39-3.485,0.19
		c-4.45,3.485-8.32,6.776-10.453,8.517c-0.773,0.777-0.773,1.744,0.195,2.323c2.132,1.55,5.418,4.258,5.418,7.548
		c0,2.71-1.158,5.419-2.512,8.904c-1.938,5.031-4.452,11.417-4.452,21.29c0,6.193,3.868,10.449,8.323,13.354
		c4.257,2.901,9.094,4.257,11.416,5.03c3.87,0.968,12.386,3.873,14.518,6.193c0.39,0.387,0.58,0.387,0.966,0
		c2.129-2.32,10.646-5.226,14.516-6.193c2.52-0.581,7.356-2.129,11.61-5.03c4.456-2.905,8.131-7.161,8.131-13.354
		c0-10.065-2.518-16.646-4.643-21.68c-1.357-3.292-2.323-5.805-2.323-8.515c0-3.29,3.291-6.192,5.42-7.548
		C282.193,320.636,282.385,319.669,281.609,318.892z"/>
	<g>
		<path fill="#C6C5C5" d="M281.609,310.648c-2.126-1.743-5.999-5.028-10.449-8.516c-0.969-0.774-2.321-0.774-3.486-0.192
			c-2.516,1.161-5.031,1.549-7.351,1.549c-5.419-0.196-9.68-3.1-11.421-4.452c-0.387-0.387-1.159-0.387-1.548,0
			c-1.742,1.353-5.998,4.256-11.611,4.452c-2.127,0-4.644-0.388-7.162-1.549c-0.968-0.387-2.516-0.387-3.485,0.192
			c-4.45,3.487-8.32,6.772-10.453,8.516c-0.773,0.772-0.773,1.742,0.195,2.324c2.132,1.547,5.418,4.257,5.418,7.549
			c0,2.707-1.158,5.418-2.512,8.899c-1.938,5.033-4.452,11.421-4.452,21.292c0,6.195,3.868,10.449,8.323,13.354
			c4.257,2.904,9.094,4.258,11.416,5.03c3.87,0.971,12.386,3.872,14.518,6.196c0.39,0.387,0.58,0.387,0.966,0
			c2.129-2.324,10.646-5.226,14.516-6.196c2.52-0.578,7.356-2.126,11.61-5.03c4.456-2.904,8.131-7.158,8.131-13.354
			c0-10.063-2.518-16.646-4.643-21.676c-1.357-3.292-2.323-5.809-2.323-8.516c0-3.292,3.291-6.195,5.42-7.549
			C282.193,312.391,282.385,311.421,281.609,310.648z"/>
	</g>
</g>
<path fill="#989899" d="M248.128,304.842c4.065,2.325,8.515,3.679,12.969,3.679c2.71,0,5.228-0.388,7.742-1.354
	c1.932,1.547,3.675,2.901,5.224,4.254c-2.707,2.905-4.258,6.004-4.258,9.101c0,3.675,1.355,6.966,2.709,10.642
	c1.938,4.84,4.258,10.839,4.258,20.131c0,3.483-1.933,6.388-5.611,8.902c-3.486,2.321-7.743,3.678-9.871,4.257
	c-0.773,0.195-8.13,2.322-13.356,5.033c-5.224-2.711-12.386-4.644-13.352-5.033c-2.129-0.579-6.39-1.936-9.871-4.257
	c-3.678-2.515-5.613-5.614-5.613-8.902c0-9.292,2.322-15.291,4.255-20.131c1.553-3.676,2.712-6.967,2.712-10.642
	c0-3.097-1.354-6.195-4.26-9.101c1.745-1.353,3.486-2.9,5.229-4.254c2.707,0.966,5.224,1.354,7.741,1.354
	C239.418,308.521,244.063,307.167,248.128,304.842L248.128,304.842z"/>
<path opacity="0.05" fill="#FFFFFF" d="M152.672,429.038c20.036,11.909,55.498,19.721,96.079,19.721
	c62.814,0,113.417-19.194,113.417-42.376H320.32C276.104,454.266,153.651,429.238,152.672,429.038z"/>
</svg>
