<?xml version="1.0" encoding="utf-8"?>
<!-- Generator: Adobe Illustrator 16.0.0, SVG Export Plug-In . SVG Version: 6.00 Build 0)  -->
<!DOCTYPE svg PUBLIC "-//W3C//DTD SVG 1.1//EN" "http://www.w3.org/Graphics/SVG/1.1/DTD/svg11.dtd">
<svg version="1.1" id="content" xmlns="http://www.w3.org/2000/svg" xmlns:xlink="http://www.w3.org/1999/xlink" x="0px" y="0px"
	 width="500px" height="500px" viewBox="0 0 500 500" enable-background="new 0 0 500 500" xml:space="preserve">
<rect id="position" display="none" fill="none" stroke="#000000" width="500" height="500"/>
<g id="bounds">
	<rect x="0.2" y="80.2" fill="none" stroke="#EAEAEA" stroke-miterlimit="10" width="499.499" height="499.5"/>
</g>
<g>
	<path fill="#2B754B" d="M248.984,223.742c0,0-84.108-3.307-147.03,74.497c0.714,21.625,21.674,32.812,21.674,32.812
		s29.084-66.408,125.356-66.408c96.272,0,125.357,66.408,125.357,66.408s20.96-11.187,21.675-32.812
		C333.092,220.438,248.984,223.742,248.984,223.742z"/>
	<path fill="#24633F" d="M364.487,296.716c-2.078,0-4.165-0.726-5.848-2.204c-3.217-2.824-6.578-5.553-9.987-8.113
		c-3.919-2.941-4.709-8.5-1.77-12.417s8.502-4.708,12.415-1.77c3.772,2.831,7.488,5.851,11.043,8.972
		c3.68,3.232,4.045,8.836,0.814,12.516C369.402,295.693,366.949,296.716,364.487,296.716z M134.959,296.425
		c-2.445,0-4.88-1.005-6.633-2.976c-3.254-3.662-2.921-9.268,0.74-12.521c3.542-3.146,7.248-6.186,11.012-9.037
		c3.903-2.954,9.468-2.188,12.423,1.718c2.956,3.905,2.187,9.468-1.718,12.423c-3.397,2.571-6.74,5.315-9.938,8.154
		C139.156,295.688,137.054,296.425,134.959,296.425z M325.077,270.588c-1.288,0-2.597-0.281-3.836-0.878
		c-3.848-1.851-7.81-3.565-11.783-5.099c-4.569-1.764-6.843-6.898-5.079-11.464c1.767-4.569,6.902-6.843,11.465-5.079
		c4.412,1.701,8.814,3.605,13.083,5.66c4.413,2.121,6.271,7.42,4.148,11.834C331.55,268.735,328.381,270.588,325.077,270.588z
		 M174.299,270.205c-3.306,0-6.477-1.854-8.002-5.035c-2.118-4.414-0.254-9.711,4.162-11.827c4.275-2.054,8.686-3.948,13.106-5.644
		c4.575-1.752,9.701,0.539,11.452,5.114c1.749,4.573-0.539,9.7-5.113,11.452c-3.972,1.52-7.934,3.225-11.776,5.068
		C176.89,269.924,175.584,270.205,174.299,270.205z M280.065,256.236c-0.501,0-1.005-0.044-1.514-0.129
		c-4.184-0.721-8.478-1.287-12.76-1.693c-4.873-0.461-8.453-4.787-7.994-9.662c0.462-4.876,4.821-8.442,9.663-7.995
		c4.729,0.447,9.468,1.077,14.092,1.868c4.826,0.83,8.068,5.416,7.238,10.242C288.051,253.186,284.304,256.236,280.065,256.236z
		 M219.361,256.029c-4.262,0-8.02-3.08-8.737-7.423c-0.8-4.832,2.47-9.396,7.3-10.196c4.629-0.766,9.375-1.363,14.111-1.779
		c4.878-0.435,9.18,3.184,9.606,8.062c0.427,4.88-3.182,9.181-8.062,9.607c-4.285,0.375-8.579,0.915-12.762,1.609
		C220.331,255.988,219.841,256.029,219.361,256.029z"/>
	<path fill="#286E46" d="M388.636,290.039c0,0-12.507,64.488-139.61,64.488c-127.103,0-139.609-64.488-139.609-64.488
		c-31.666,31.915-41.469,74.751-40.475,96.734c0,0,37.303,73.026,180.083,73.026s180.085-73.026,180.085-73.026
		C430.104,364.79,420.301,321.954,388.636,290.039z"/>
	<path fill="#215C3A" d="M103.42,320.924c0,0,48.386,81.154,229.381,45.967C241.459,410.152,121.34,381.225,103.42,320.924z"/>
	<path fill="#215C3A" d="M409.83,337.491c0,0-52.164,80.448-176.175,79.362C306.312,432.988,395.631,394.066,409.83,337.491z"/>
	<path fill="#215C3A" d="M83.383,361.811c0,0,25.868,49.147,109.573,61.602C124.031,431.112,81.305,381.401,83.383,361.811z"/>
</g>
</svg>
