<?xml version="1.0" encoding="utf-8"?>
<!-- Generator: Adobe Illustrator 18.0.0, SVG Export Plug-In . SVG Version: 6.00 Build 0)  -->
<!DOCTYPE svg PUBLIC "-//W3C//DTD SVG 1.1//EN" "http://www.w3.org/Graphics/SVG/1.1/DTD/svg11.dtd">
<svg version="1.1" id="content" xmlns="http://www.w3.org/2000/svg" xmlns:xlink="http://www.w3.org/1999/xlink" x="0px" y="0px"
	 width="500px" height="500px" viewBox="0 0 500 500" enable-background="new 0 0 500 500" xml:space="preserve">
<rect id="position" display="none" fill="none" stroke="#000000" width="500" height="500"/>
<g id="bounds" display="none">
	<rect x="0.2" y="80.2" display="inline" fill="none" stroke="#EAEAEA" stroke-miterlimit="10" width="499.5" height="499.5"/>
</g>
<g>
	<path fill="#404041" d="M385.9,348.3c0,52.1-57,10.2-131.3,10.2s-137.4,41.9-137.4-10.2s60.2-94.5,134.2-94.5
		C325.7,253.8,385.9,296.2,385.9,348.3z"/>
	<path fill="#58595B" d="M397.6,349v51.2c0,2.4-2.4,4.1-4.9,3.4c-16.1-6.1-68.7-25.6-143-24.1c-91.6,1.7-117.2,17.1-142.7,26.6
		c-2.4,1-5.1-1-5.1-3.4c0-12.9,0-52.9,0-53.6c3.4-21.2,66.3-38.7,147.9-38.7S397.6,327.8,397.6,349z"/>
	<path fill="#404041" d="M397.6,400.4L397.6,400.4c0,2.4-2.4,4.1-4.9,3.4c-16.1-6.1-68.7-25.6-143-24.1
		c-91.6,1.7-117.2,17.1-142.7,26.6c-2.4,1-5.1-1-5.1-3.4c0-12.9,0,0.7,0,0c0-8,66.3-33.9,147.9-33.9S397.6,391.2,397.6,400.4z"/>
	<path fill="#404041" d="M394,362.4"/>
	<path fill="#404041" d="M394,362.4"/>
	<path fill="#333333" d="M388.6,381.4c0,1.9-1.7,3.7-3.7,3.7l0,0c-1.9,0-3.7-1.7-3.7-3.7V351c0-1.9,1.7-3.7,3.7-3.7l0,0
		c1.9,0,3.7,1.7,3.7,3.7V381.4z"/>
	<path fill="#333333" d="M363.7,372.4c0,1.9-1.7,3.7-3.7,3.7l0,0c-1.9,0-3.7-1.7-3.7-3.7V342c0-1.9,1.7-3.7,3.7-3.7l0,0
		c1.9,0,3.7,1.7,3.7,3.7V372.4z"/>
	<path fill="#333333" d="M339.1,364.4c0,1.9-1.7,3.7-3.7,3.7l0,0c-1.9,0-3.7-1.7-3.7-3.7v-30.4c0-1.9,1.7-3.7,3.7-3.7l0,0
		c1.9,0,3.7,1.7,3.7,3.7V364.4z"/>
	<path fill="#333333" d="M314.5,360.5c0,1.9-1.7,3.7-3.7,3.7l0,0c-1.9,0-3.7-1.7-3.7-3.7v-30.7c0-1.9,1.7-3.7,3.7-3.7l0,0
		c1.9,0,3.7,1.7,3.7,3.7V360.5z"/>
	<path fill="#333333" d="M289.9,357.8c0,1.9-1.7,3.7-3.7,3.7l0,0c-1.9,0-3.7-1.7-3.7-3.7v-30.4c0-1.9,1.7-3.7,3.7-3.7l0,0
		c1.9,0,3.7,1.7,3.7,3.7V357.8z"/>
	<path fill="#333333" d="M265.3,356.8c0,1.9-1.7,3.7-3.7,3.7l0,0c-1.9,0-3.7-1.7-3.7-3.7v-30.4c0-1.9,1.7-3.7,3.7-3.7l0,0
		c1.9,0,3.7,1.7,3.7,3.7V356.8z"/>
	<path fill="#333333" d="M240.5,356.8c0,1.9-1.7,3.7-3.7,3.7l0,0c-1.9,0-3.7-1.7-3.7-3.7v-30.4c0-1.9,1.7-3.7,3.7-3.7l0,0
		c1.9,0,3.7,1.7,3.7,3.7V356.8z"/>
	<path fill="#333333" d="M215.9,357.8c0,1.9-1.7,3.7-3.7,3.7l0,0c-1.9,0-3.7-1.7-3.7-3.7v-30.4c0-1.9,1.7-3.7,3.7-3.7l0,0
		c1.9,0,3.7,1.7,3.7,3.7V357.8z"/>
	<path fill="#333333" d="M191.3,360.5c0,1.9-1.7,3.7-3.7,3.7l0,0c-1.9,0-3.7-1.7-3.7-3.7v-30.7c0-1.9,1.7-3.7,3.7-3.7l0,0
		c1.9,0,3.7,1.7,3.7,3.7V360.5z"/>
	<path fill="#333333" d="M166.7,364.4c0,1.9-1.7,3.7-3.7,3.7l0,0c-1.9,0-3.7-1.7-3.7-3.7v-30.4c0-1.9,1.7-3.7,3.7-3.7l0,0
		c1.9,0,3.7,1.7,3.7,3.7V364.4z"/>
	<path fill="#333333" d="M142.1,372.4c0,1.9-1.7,3.7-3.7,3.7l0,0c-1.9,0-3.7-1.7-3.7-3.7V342c0-1.9,1.7-3.7,3.7-3.7l0,0
		c1.9,0,3.7,1.7,3.7,3.7V372.4z"/>
	<path fill="#333333" d="M117.2,381.4c0,1.9-1.7,3.7-3.7,3.7l0,0c-1.9,0-3.7-1.7-3.7-3.7V351c0-1.9,1.7-3.7,3.7-3.7l0,0
		c1.9,0,3.7,1.7,3.7,3.7V381.4z"/>
</g>
</svg>
