<?xml version="1.0" encoding="utf-8"?>
<!-- Generator: Adobe Illustrator 18.0.0, SVG Export Plug-In . SVG Version: 6.00 Build 0)  -->
<!DOCTYPE svg PUBLIC "-//W3C//DTD SVG 1.1//EN" "http://www.w3.org/Graphics/SVG/1.1/DTD/svg11.dtd">
<svg version="1.1" id="content" xmlns="http://www.w3.org/2000/svg" xmlns:xlink="http://www.w3.org/1999/xlink" x="0px" y="0px"
	 width="500px" height="500px" viewBox="0 0 500 500" enable-background="new 0 0 500 500" xml:space="preserve">
<rect id="position" display="none" fill="none" stroke="#000000" width="500" height="500"/>
<g id="bounds" display="none">
	<rect x="83.7" y="-110.2" display="inline" fill="none" stroke="#000000" stroke-width="0.9205" width="331.6" height="349.8"/>
</g>
<g>
	<path fill="#404041" d="M304.5,66.5c0,21.4-23.4,4.2-53.9,4.2s-56.4,17.2-56.4-4.2s24.7-38.8,55.1-38.8
		C279.8,27.7,304.5,45.1,304.5,66.5z"/>
	<path fill="#58595B" d="M309.3,66.8v21c0,1-1,1.7-2,1.4c-6.6-2.5-28.2-10.5-58.7-9.9c-37.6,0.7-48.1,7-58.6,10.9
		c-1,0.4-2.1-0.4-2.1-1.4c0-5.3,0-21.7,0-22c1.4-8.7,27.2-15.9,60.7-15.9S309.3,58.1,309.3,66.8z"/>
	<path fill="#404041" d="M309.3,87.9L309.3,87.9c0,1-1,1.7-2,1.4c-6.6-2.5-28.2-10.5-58.7-9.9c-37.6,0.7-48.1,7-58.6,10.9
		c-1,0.4-2.1-0.4-2.1-1.4c0-5.3,0,0.3,0,0c0-3.3,27.2-13.9,60.7-13.9S309.3,84.1,309.3,87.9z"/>
	<path fill="#404041" d="M307.8,72.3"/>
	<path fill="#404041" d="M307.8,72.3"/>
	<path fill="#333333" d="M305.6,80.1c0,0.8-0.7,1.5-1.5,1.5l0,0c-0.8,0-1.5-0.7-1.5-1.5V67.6c0-0.8,0.7-1.5,1.5-1.5l0,0
		c0.8,0,1.5,0.7,1.5,1.5V80.1z"/>
	<path fill="#333333" d="M295.4,76.4c0,0.8-0.7,1.5-1.5,1.5l0,0c-0.8,0-1.5-0.7-1.5-1.5V63.9c0-0.8,0.7-1.5,1.5-1.5l0,0
		c0.8,0,1.5,0.7,1.5,1.5V76.4z"/>
	<path fill="#333333" d="M285.3,73.1c0,0.8-0.7,1.5-1.5,1.5l0,0c-0.8,0-1.5-0.7-1.5-1.5V60.6c0-0.8,0.7-1.5,1.5-1.5l0,0
		c0.8,0,1.5,0.7,1.5,1.5V73.1z"/>
	<path fill="#333333" d="M275.2,71.5c0,0.8-0.7,1.5-1.5,1.5l0,0c-0.8,0-1.5-0.7-1.5-1.5V58.9c0-0.8,0.7-1.5,1.5-1.5l0,0
		c0.8,0,1.5,0.7,1.5,1.5V71.5z"/>
	<path fill="#333333" d="M265.1,70.4c0,0.8-0.7,1.5-1.5,1.5l0,0c-0.8,0-1.5-0.7-1.5-1.5V57.9c0-0.8,0.7-1.5,1.5-1.5l0,0
		c0.8,0,1.5,0.7,1.5,1.5V70.4z"/>
	<path fill="#333333" d="M255,70c0,0.8-0.7,1.5-1.5,1.5l0,0c-0.8,0-1.5-0.7-1.5-1.5V57.5c0-0.8,0.7-1.5,1.5-1.5l0,0
		c0.8,0,1.5,0.7,1.5,1.5V70z"/>
	<path fill="#333333" d="M244.8,70c0,0.8-0.7,1.5-1.5,1.5l0,0c-0.8,0-1.5-0.7-1.5-1.5V57.5c0-0.8,0.7-1.5,1.5-1.5l0,0
		c0.8,0,1.5,0.7,1.5,1.5V70z"/>
	<path fill="#333333" d="M234.7,70.4c0,0.8-0.7,1.5-1.5,1.5l0,0c-0.8,0-1.5-0.7-1.5-1.5V57.9c0-0.8,0.7-1.5,1.5-1.5l0,0
		c0.8,0,1.5,0.7,1.5,1.5V70.4z"/>
	<path fill="#333333" d="M224.6,71.5c0,0.8-0.7,1.5-1.5,1.5l0,0c-0.8,0-1.5-0.7-1.5-1.5V58.9c0-0.8,0.7-1.5,1.5-1.5l0,0
		c0.8,0,1.5,0.7,1.5,1.5V71.5z"/>
	<path fill="#333333" d="M214.5,73.1c0,0.8-0.7,1.5-1.5,1.5l0,0c-0.8,0-1.5-0.7-1.5-1.5V60.6c0-0.8,0.7-1.5,1.5-1.5l0,0
		c0.8,0,1.5,0.7,1.5,1.5V73.1z"/>
	<path fill="#333333" d="M204.4,76.4c0,0.8-0.7,1.5-1.5,1.5l0,0c-0.8,0-1.5-0.7-1.5-1.5V63.9c0-0.8,0.7-1.5,1.5-1.5l0,0
		c0.8,0,1.5,0.7,1.5,1.5V76.4z"/>
	<path fill="#333333" d="M194.2,80.1c0,0.8-0.7,1.5-1.5,1.5l0,0c-0.8,0-1.5-0.7-1.5-1.5V67.6c0-0.8,0.7-1.5,1.5-1.5l0,0
		c0.8,0,1.5,0.7,1.5,1.5V80.1z"/>
</g>
</svg>
