<?xml version="1.0" encoding="utf-8"?>
<!-- Generator: Adobe Illustrator 16.0.0, SVG Export Plug-In . SVG Version: 6.00 Build 0)  -->
<!DOCTYPE svg PUBLIC "-//W3C//DTD SVG 1.1//EN" "http://www.w3.org/Graphics/SVG/1.1/DTD/svg11.dtd">
<svg version="1.1" id="content" xmlns="http://www.w3.org/2000/svg" xmlns:xlink="http://www.w3.org/1999/xlink" x="0px" y="0px"
	 width="500px" height="500px" viewBox="0 0 500 500" enable-background="new 0 0 500 500" xml:space="preserve">
<g id="bounds" display="none">
	<rect x="93.6" y="-47.4" display="inline" fill="none" stroke="#000000" stroke-width="0.9617" width="311.6" height="311.6"/>
</g>
<rect id="position" x="0" display="none" fill="none" stroke="#000000" stroke-width="0.9617" width="500" height="500"/>
<path fill="#1A1914" d="M334.79,38.257c-22.284-4.851-19.823-8.923-23.239-11.923c-3.417-3-35.083-9.333-61.5-9.333H250
	c-26.417,0-58.083,6.333-61.5,9.333s-0.956,7.073-23.24,11.923c-24.986,5.439-46.927,25.91-36.844,46.577
	s30.047,12.986,42.167,6.708l19.083-8.708V88c0,0,37.134,4.875,60.358,4.875S310.384,88,310.384,88v-5.167l19.083,8.708
	c12.12,6.278,32.084,13.958,42.167-6.708S359.777,43.696,334.79,38.257z"/>
<circle fill="#A30000" cx="185.846" cy="32.343" r="9.827"/>
<circle fill="#A30000" cx="314.154" cy="32.343" r="9.827"/>
</svg>
