<?xml version="1.0" encoding="utf-8"?>
<!-- Generator: Adobe Illustrator 18.0.0, SVG Export Plug-In . SVG Version: 6.00 Build 0)  -->
<!DOCTYPE svg PUBLIC "-//W3C//DTD SVG 1.1//EN" "http://www.w3.org/Graphics/SVG/1.1/DTD/svg11.dtd">
<svg version="1.1" id="content" xmlns="http://www.w3.org/2000/svg" xmlns:xlink="http://www.w3.org/1999/xlink" x="0px" y="0px"
	 width="500px" height="500px" viewBox="0 0 500 500" enable-background="new 0 0 500 500" xml:space="preserve">
<rect id="position" display="none" fill="none" stroke="#000000" width="500" height="500"/>
<g id="bounds" display="none">
	<rect x="0.2" y="80.2" display="inline" fill="none" stroke="#EAEAEA" stroke-miterlimit="10" width="499.5" height="499.5"/>
</g>
<g>
	<path fill="#B30007" d="M249.9,376.1c0,0,99.2,26.8,142.3,57.8c6.7-17.2,11-35.8,11-55.3c0-84.5-68.5-153.1-153.1-153.1
		S97.2,294,97.2,378.5c0,19.4,3.6,37.9,10.2,55C150.8,402.7,249.9,376.1,249.9,376.1z"/>
	<path fill="#9F0007" d="M249.9,376.1c0,0,99.2,26.8,142.3,57.8c6.7-17.2,11-35.8,11-55.3c0-84.5-97-130.3-153.1-130.3
		S249.9,376.1,249.9,376.1z"/>
	<path fill="#960007" d="M249.9,376.1c0,0,99.2,26.8,142.3,57.8c4.5-11.6,9.9-23.8,9.9-36.7c0-63.7-95.8-120.2-151.9-120.2
		S249.9,376.1,249.9,376.1z"/>
	<path fill="#7B0007" d="M249.9,376.1c0,0,99.2,26.8,142.3,57.8c2.4-6.1,7.3-12.1,7.3-18.8c0-59.6-93.1-98.7-149.3-98.7
		S249.9,376.1,249.9,376.1z"/>
	<path fill="#5D0007" d="M249.9,376.1c0,0,99.2,26.8,142.3,57.8c0-41.7-85.9-86.7-142-86.7S249.9,376.1,249.9,376.1z"/>
	<path fill="#C1272D" d="M249.9,376.1c0,0,84.8-150.6,0.3-150.6S97.2,294,97.2,378.5c0,19.4,3.6,37.9,10.2,55
		C150.8,402.7,249.9,376.1,249.9,376.1z"/>
</g>
</svg>
