<?xml version="1.0" encoding="utf-8"?>
<!-- Generator: Adobe Illustrator 16.0.0, SVG Export Plug-In . SVG Version: 6.00 Build 0)  -->
<!DOCTYPE svg PUBLIC "-//W3C//DTD SVG 1.1//EN" "http://www.w3.org/Graphics/SVG/1.1/DTD/svg11.dtd">
<svg version="1.1" id="Layer_1" xmlns="http://www.w3.org/2000/svg" xmlns:xlink="http://www.w3.org/1999/xlink" x="0px" y="0px"
	 width="500px" height="500px" viewBox="0 0 500 500" enable-background="new 0 0 500 500" xml:space="preserve">
<g>
	<path fill="#FDC979" d="M329.311,78.923c-17.253,1.901-44.132-60.491-176.6-27.271c61.403-73.376,183.703-28.733,191.71-21.798
		C352.427,36.789,342.682,77.45,329.311,78.923z"/>
	<path opacity="0.1" d="M165.772,81.015c17.175,2.521,32.967-62.593,164.151-24.617c-58.719-75.542-155.129-29.265-163.38-22.624
		C158.292,40.415,152.464,79.06,165.772,81.015z"/>
	<path fill="#FDC979" d="M166.695,86.015c17.175,2.521,39.866-60.663,171.051-22.686c-58.719-75.542-176.13-33.536-184.381-26.895
		C145.113,43.075,153.387,84.06,166.695,86.015z"/>
	<path opacity="0.1" d="M332.847,97.524c-8.983,7.199-49.755-55.424-165.38-26.318c15.197-18.224,40.756-28.577,61.749-32.937
		c0,0-20.25-3.573-53.313,4.162c27.862-12.4,47.827-10.055,63.468-5.789c48.458-4.398,97.301,14.595,101.816,18.52
		C348.175,61.235,341.828,90.325,332.847,97.524z"/>
	<path fill="#FDC979" d="M332.847,101.524c-8.983,7.199-58.627-53.336-174.252-24.23c53.601-64.273,175.604-24.205,182.592-18.131
		C348.175,65.235,341.828,94.325,332.847,101.524z"/>
	<path opacity="0.1" d="M169.764,108.024c8.516,6.343,112.905-31.61,162.992-2.8c-50.84-53.391-168.901-39.221-175.909-34.346
		C149.838,75.753,161.248,101.68,169.764,108.024z"/>
	<path opacity="0.1" d="M170.193,101.372c8.516,6.343,110.566-26.833,160.654,1.977c-44.583-57.575-165.244-44.449-172.252-39.575
		C151.586,68.649,161.677,95.028,170.193,101.372z"/>
	<path fill="#FDC979" d="M165.632,104.904c8.516,6.343,115.128-30.365,165.215-1.555c-50.124-55.761-166.992-40.033-174-35.158
		C149.838,73.065,157.116,98.56,165.632,104.904z"/>
	<path fill="#FDD28F" d="M165.632,104.904c8.516,6.343,115.128-30.365,165.215-1.555c-51.083-43.825-177.067-29.705-176.741-25.042
		C154.77,87.791,159.923,100.651,165.632,104.904z"/>
	<path fill="#FDD28F" d="M339.264,72.4c-21-16.626-54-20.376-69.25-17.126C298.264,58.524,311.514,60.774,339.264,72.4z"/>
</g>
</svg>
