<?xml version="1.0" encoding="utf-8"?>
<!-- Generator: Adobe Illustrator 18.0.0, SVG Export Plug-In . SVG Version: 6.00 Build 0)  -->
<!DOCTYPE svg PUBLIC "-//W3C//DTD SVG 1.1//EN" "http://www.w3.org/Graphics/SVG/1.1/DTD/svg11.dtd">
<svg version="1.1" id="content" xmlns="http://www.w3.org/2000/svg" xmlns:xlink="http://www.w3.org/1999/xlink" x="0px" y="0px"
	 width="500px" height="500px" viewBox="0 0 500 500" enable-background="new 0 0 500 500" xml:space="preserve">
<rect id="position" display="none" fill="none" stroke="#000000" width="500" height="500"/>
<g id="bounds" display="none">
	<rect x="0.2" y="80.2" display="inline" fill="none" stroke="#EAEAEA" stroke-miterlimit="10" width="499.5" height="499.5"/>
</g>
<g>
	<path fill="#FDC979" d="M381.5,361.4c-27.9,3.1-71.4-97.9-285.7-44.1C195.1,198.5,393,270.8,406,282
		C418.9,293.2,403.1,359,381.5,361.4z"/>
	<path opacity="0.1" enable-background="new    " d="M116.9,364.8c27.8,4.1,53.3-101.3,265.6-39.8c-95-122.2-251-47.3-264.3-36.6
		C104.8,299.1,95.4,361.6,116.9,364.8z"/>
	<path fill="#FDC979" d="M118.4,372.8c27.8,4.1,64.5-98.1,276.7-36.7c-95-122.2-285-54.3-298.3-43.5
		C83.5,303.4,96.9,369.7,118.4,372.8z"/>
	<path opacity="0.1" enable-background="new    " d="M387.2,391.5c-14.5,11.6-80.5-89.7-267.6-42.6c24.6-29.5,65.9-46.2,99.9-53.3
		c0,0-32.8-5.8-86.3,6.7c45.1-20.1,77.4-16.3,102.7-9.4c78.4-7.1,157.4,23.6,164.7,30C412,332.8,401.8,379.8,387.2,391.5z"/>
	<path fill="#FDC979" d="M387.2,397.9c-14.5,11.6-94.9-86.3-281.9-39.2c86.7-104,284.1-39.2,295.4-29.3
		C412,339.2,401.8,386.3,387.2,397.9z"/>
	<path opacity="0.1" enable-background="new    " d="M123.4,408.5c13.8,10.3,182.7-51.1,263.7-4.5c-82.3-86.4-273.3-63.5-284.6-55.6
		C91.1,356.2,109.6,398.2,123.4,408.5z"/>
	<path opacity="0.1" enable-background="new    " d="M124.1,397.7C137.9,408,303,354.3,384,400.9c-72.1-93.1-267.3-71.9-278.7-64
		C94,344.8,110.3,387.4,124.1,397.7z"/>
	<path fill="#FDC979" d="M116.7,403.4c13.8,10.3,186.3-49.1,267.3-2.5c-81.1-90.2-270.2-64.8-281.5-56.9
		C91.1,351.9,102.9,393.1,116.7,403.4z"/>
	<path fill="#FDD28F" d="M116.7,403.4c13.8,10.3,186.3-49.1,267.3-2.5C301.4,330,97.5,352.8,98.1,360.4
		C99.1,375.7,107.5,396.5,116.7,403.4z"/>
	<path fill="#FDD28F" d="M397.6,350.8c-34-26.9-87.4-33-112-27.7C331.3,328.4,352.7,332,397.6,350.8z"/>
</g>
</svg>
