<?xml version="1.0" encoding="utf-8"?>
<!-- Generator: Adobe Illustrator 18.0.0, SVG Export Plug-In . SVG Version: 6.00 Build 0)  -->
<!DOCTYPE svg PUBLIC "-//W3C//DTD SVG 1.1//EN" "http://www.w3.org/Graphics/SVG/1.1/DTD/svg11.dtd">
<svg version="1.1" id="Layer_1" xmlns="http://www.w3.org/2000/svg" xmlns:xlink="http://www.w3.org/1999/xlink" x="0px" y="0px"
	 width="500px" height="500px" viewBox="0 0 500 500" enable-background="new 0 0 500 500" xml:space="preserve">
<g>
	<path fill="#EBEBEB" d="M200.4,42.9c3.4-2.9,16.1-9.7,49.6-9.7s47,6.5,49.6,9.7c2.6,3.2,10.3,20.6,7,22.5c-3.3,1.9-10.7-7-56.6-7
		s-53.9,9.2-56.6,7C190.6,63.2,197,45.8,200.4,42.9z"/>
	<path fill="#E4E4E4" d="M299.5,42.9c2.6,3.2,10.3,20.6,7,22.5c-3.3,1.9-10.7-7-56.6-7s-53.9,9.2-56.6,7
		C190.6,63.2,222.1,21.2,299.5,42.9z"/>
	<path opacity="5.000000e-02" enable-background="new    " d="M193.6,51.4c3.9-3.6,18.2-11.9,56.3-11.9c38.1,0,53.4,8,56.3,11.9
		c2.9,3.9,11.7,25.3,8,27.7c-3.7,2.4-12.1-8.7-64.3-8.7s-61.3,11.3-64.3,8.7C182.5,76.4,189.7,55,193.6,51.4z"/>
	<path fill="#EBEBEB" d="M188.9,53.4c4.2-3.6,19.8-11.9,61-11.9c41.2,0,57.8,8,61,11.9c3.2,3.9,12.7,25.3,8.7,27.7
		s-13.1-8.7-69.6-8.7c-56.5,0-66.3,11.3-69.6,8.7C177,78.4,184.7,57,188.9,53.4z"/>
	<path fill="#E4E4E4" d="M189.7,53.4c76.4-24.2,134.9,13.7,130.8,16.1c-4,2.4-13.3,2.9-69.8,2.9s-66.3,11.3-69.6,8.7
		C177.7,78.4,185.5,57,189.7,53.4z"/>
	<path opacity="5.000000e-02" enable-background="new    " d="M183,64.1c4.6-4.1,21.7-13.8,66.9-13.8c45.2,0,63.4,9.2,66.9,13.8
		s13.9,29.3,9.5,32s-14.4-10-76.4-10c-62,0-72.7,13.1-76.4,10S178.4,68.2,183,64.1z"/>
	<path opacity="0.1" enable-background="new    " d="M179.4,72.2c4.8-4.1,22.8-13.8,70.5-13.8s66.8,9.2,70.5,13.8s9.3,24.5,4.6,27.2
		s-9.8-5.2-75.1-5.2s-72.1,9.4-75.9,6.3C170.2,97.4,174.6,76.3,179.4,72.2z"/>
	<path fill="#EBEBEB" d="M179.4,66.9c4.8-4.1,22.8-13.8,70.5-13.8s66.8,9.2,70.5,13.8s14.7,29.3,10,32s-15.2-10-80.5-10
		s-76.7,13.1-80.5,10S174.6,71,179.4,66.9z"/>
	<path fill="#E4E4E4" d="M320.4,66.9c3.7,4.6,14.7,29.3,10,32s-15.2-10-80.5-10s-76.7,13.1-80.5,10S230.1,52.2,320.4,66.9z"/>
</g>
</svg>
