<?xml version="1.0" encoding="utf-8"?>
<!-- Generator: Adobe Illustrator 18.0.0, SVG Export Plug-In . SVG Version: 6.00 Build 0)  -->
<!DOCTYPE svg PUBLIC "-//W3C//DTD SVG 1.1//EN" "http://www.w3.org/Graphics/SVG/1.1/DTD/svg11.dtd">
<svg version="1.1" id="content" xmlns="http://www.w3.org/2000/svg" xmlns:xlink="http://www.w3.org/1999/xlink" x="0px" y="0px"
	 width="500px" height="500px" viewBox="0 0 500 500" enable-background="new 0 0 500 500" xml:space="preserve">
<rect id="position" display="none" fill="none" stroke="#000000" width="500" height="500"/>
<g id="bounds" display="none">
	<rect x="0.2" y="80.2" display="inline" fill="none" stroke="#EAEAEA" stroke-miterlimit="10" width="499.5" height="499.5"/>
</g>
<g>
	<path fill="#333333" d="M416,427.5c-47-36.2-103.9-56.7-165.2-56.7c-61.3,0-113.8,11.7-145.1-19.7
		c33.5-71.3,110.7-98.8,145.1-108.7C262,265.5,367.1,293,416.4,372.8C433.2,400.2,416,427.5,416,427.5z"/>
	<path opacity="0.3" enable-background="new    " d="M250.8,370.8c-61.3,0-113.8,11.7-145.1-19.7c33.5-71.3,110.7-98.8,145.1-108.7
		C262,265.5,367.1,293,416.4,372.8c7.3,11.9,8.9,28.8,5.4,41.3C421.8,414.1,335.6,370.8,250.8,370.8z"/>
	<path fill="#333333" d="M250.8,370.8c-61.3,0-113.8,11.7-145.1-19.7c33.5-71.3,110.7-98.8,145.1-108.7
		C262,265.5,367.1,293,416.4,372.8c7.3,11.9,8.3,23.7,7,33.4C423.4,406.2,312.1,370.8,250.8,370.8z"/>
	<path opacity="0.3" enable-background="new    " d="M250.8,370.8c-61.3,0-113.8,11.7-145.1-19.7c33.5-71.3,110.7-98.8,145.1-108.7
		C262,265.5,367.1,293,416.4,372.8c2.5,4,7.3,14.3,7.3,21.6C423.6,394.5,312.1,370.8,250.8,370.8z"/>
	<path fill="#333333" d="M250.8,370.8c-61.3,0-113.8,11.7-145.1-19.7c33.5-71.3,110.7-98.8,145.1-108.7
		C262,265.5,367.1,293,416.4,372.8c2.5,4,4.3,8.1,5.4,12.1C421.8,384.9,312.1,370.8,250.8,370.8z"/>
	<path opacity="0.3" enable-background="new    " d="M250.8,370.8c-61.3,0-113.8,11.7-145.1-19.7c33.5-71.3,110.7-98.8,145.1-108.7
		c10.9,22.5,115.3,56.5,166.1,131.4C416.9,373.8,318.3,359.8,250.8,370.8z"/>
	<path fill="#333333" d="M250.8,370.8c-61.3,0-113.8,11.7-145.1-19.7c33.5-71.3,110.7-98.8,145.1-108.7
		c10.9,22.5,110.6,49.1,161.3,124C412.2,366.4,318.3,359.8,250.8,370.8z"/>
	<path opacity="0.3" enable-background="new    " d="M250.8,370.8c-61.3,0-113.8,11.7-145.1-19.7c33.5-71.3,110.7-98.8,145.1-108.7
		c9.7,20.1,96.6,50.4,149.9,108.4C400.8,350.8,322,349.3,250.8,370.8z"/>
	<path fill="#333333" d="M250.8,370.8c-61.3,0-113.8,11.7-145.1-19.7c33.5-71.3,110.7-98.8,145.1-108.7
		c9.7,20.1,90.2,43.4,143.5,101.5C394.3,343.9,322,349.3,250.8,370.8z"/>
	<path opacity="0.3" enable-background="new    " d="M83,426.6c51.8-39.9,114.3-55.8,167.8-55.8c55.5,0,106.4-7.3,134.8-35.9
		c-2.8-2.9-5.4-5.4-8-7.4c-50.9-40.3-102.5-89.5-126.8-94.6c-7.4,1.9-19,12.1-32.6,20.7c-15.8,9.9-32.5,22.3-52.7,38.8
		c-27.7,22.7-56.2,46.7-77,80.5C71.6,400.3,83,426.6,83,426.6z"/>
	<path fill="#333333" d="M83,426.6c51.8-39.9,114.3-55.8,167.8-55.8c55.5,0,98.4-14.8,126.8-43.3c-37.4-57.7-101.1-89.2-126.8-94.6
		c-16.5,4.3-44.2,30.9-83.2,63.7c-26.4,22.2-64.1,44-83.9,76.3C66.8,400.2,83,426.6,83,426.6z"/>
	<path fill="#2E2E2E" d="M83,426.6c51.8-39.9,114.3-55.8,167.8-55.8c55.5,0,98.4-14.8,126.8-43.3c-16.1-24.9-37.2-44.9-58-60.1
		c0,0-216.1,73.2-236,105.4C66.8,400.2,83,426.6,83,426.6z"/>
</g>
</svg>
