<?xml version="1.0" encoding="utf-8"?>
<!-- Generator: Adobe Illustrator 16.0.0, SVG Export Plug-In . SVG Version: 6.00 Build 0)  -->
<!DOCTYPE svg PUBLIC "-//W3C//DTD SVG 1.1//EN" "http://www.w3.org/Graphics/SVG/1.1/DTD/svg11.dtd">
<svg version="1.1" id="Layer_1" xmlns="http://www.w3.org/2000/svg" xmlns:xlink="http://www.w3.org/1999/xlink" x="0px" y="0px"
	 width="500px" height="500px" viewBox="0 0 500 500" enable-background="new 0 0 500 500" xml:space="preserve">
<g>
	<path fill="#333333" d="M343.272,117.788c-26.403-20.333-58.336-31.826-92.767-31.826c-34.435,0-63.913,6.593-81.497-11.066
		c18.807-40.061,62.15-55.496,81.497-61.045c6.268,12.972,65.31,28.424,92.965,73.255
		C352.951,102.477,343.272,117.788,343.272,117.788z"/>
	<path opacity="0.3" d="M250.506,85.962c-34.435,0-63.913,6.593-81.497-11.066c18.807-40.061,62.15-55.496,81.497-61.045
		c6.268,12.972,65.31,28.424,92.965,73.255c4.113,6.671,4.985,16.192,3.055,23.192C346.525,110.298,298.099,85.962,250.506,85.962z"
		/>
	<path fill="#333333" d="M250.506,85.962c-34.435,0-63.913,6.593-81.497-11.066c18.807-40.061,62.15-55.496,81.497-61.045
		c6.268,12.972,65.31,28.424,92.965,73.255c4.113,6.671,4.657,13.33,3.955,18.732C347.426,105.839,284.937,85.962,250.506,85.962z"
		/>
	<path opacity="0.3" d="M250.506,85.962c-34.435,0-63.913,6.593-81.497-11.066c18.807-40.061,62.15-55.496,81.497-61.045
		c6.268,12.972,65.31,28.424,92.965,73.255c1.402,2.273,4.092,8.037,4.092,12.157C347.562,99.263,284.937,85.962,250.506,85.962z"/>
	<path fill="#333333" d="M250.506,85.962c-34.435,0-63.913,6.593-81.497-11.066c18.807-40.061,62.15-55.496,81.497-61.045
		c6.268,12.972,65.31,28.424,92.965,73.255c1.402,2.273,2.391,4.547,3.055,6.768C346.525,93.874,284.937,85.962,250.506,85.962z"/>
	<path opacity="0.3" d="M250.506,85.962c-34.435,0-63.913,6.593-81.497-11.066c18.807-40.061,62.15-55.496,81.497-61.045
		c6.096,12.615,64.781,31.749,93.291,73.799C343.797,87.65,288.404,79.762,250.506,85.962z"/>
	<path fill="#333333" d="M250.506,85.962c-34.435,0-63.913,6.593-81.497-11.066c18.807-40.061,62.15-55.496,81.497-61.045
		c6.096,12.615,62.104,27.577,90.613,69.627C341.119,83.478,288.404,79.762,250.506,85.962z"/>
	<path opacity="0.3" d="M250.506,85.962c-34.435,0-63.913,6.593-81.497-11.066c18.807-40.061,62.15-55.496,81.497-61.045
		c5.441,11.261,54.278,28.304,84.202,60.903C334.708,74.754,290.488,73.91,250.506,85.962z"/>
	<path fill="#333333" d="M250.506,85.962c-34.435,0-63.913,6.593-81.497-11.066c18.807-40.061,62.15-55.496,81.497-61.045
		c5.441,11.261,50.652,24.391,80.576,56.99C331.082,70.841,290.488,73.91,250.506,85.962z"/>
	<path opacity="0.3" d="M156.26,117.3c29.112-22.419,64.169-31.337,94.246-31.337c31.155,0,59.741-4.117,75.7-20.143
		c-1.58-1.636-3.017-3.012-4.494-4.182c-28.565-22.619-57.556-50.243-71.206-53.129c-4.163,1.07-10.658,6.788-18.318,11.615
		c-8.862,5.584-18.249,12.503-29.595,21.815c-15.562,12.772-31.55,26.226-43.272,45.229C149.839,102.538,156.26,117.3,156.26,117.3z
		"/>
	<path fill="#333333" d="M156.26,117.3c29.112-22.419,64.169-31.337,94.246-31.337c31.155,0,55.247-8.299,71.206-24.325
		c-20.991-32.381-56.769-50.077-71.206-53.129c-9.287,2.389-24.823,17.342-46.734,35.77c-14.846,12.486-35.975,24.72-47.146,42.828
		C147.146,102.477,156.26,117.3,156.26,117.3z"/>
	<path fill="#2E2E2E" d="M156.26,117.3c29.112-22.419,64.169-31.337,94.246-31.337c31.155,0,55.247-8.299,71.206-24.325
		c-9.063-13.98-20.884-25.224-32.553-33.734c0,0-121.362,41.094-132.533,59.203C147.146,102.477,156.26,117.3,156.26,117.3z"/>
</g>
</svg>
