<?xml version="1.0" encoding="utf-8"?>
<!-- Generator: Adobe Illustrator 16.0.0, SVG Export Plug-In . SVG Version: 6.00 Build 0)  -->
<!DOCTYPE svg PUBLIC "-//W3C//DTD SVG 1.1//EN" "http://www.w3.org/Graphics/SVG/1.1/DTD/svg11.dtd">
<svg version="1.1" id="content" xmlns="http://www.w3.org/2000/svg" xmlns:xlink="http://www.w3.org/1999/xlink" x="0px" y="0px"
	 width="500px" height="500px" viewBox="0 0 500 500" enable-background="new 0 0 500 500" xml:space="preserve">
<rect id="position" display="none" fill="none" stroke="#000000" width="500" height="500"/>
<g id="bounds" display="none">
	<rect x="102.2" y="-84.4" display="inline" fill="none" stroke="#000000" stroke-width="0.9205" width="295.5" height="311.7"/>
</g>
<polygon fill="#B11F24" points="246.571,-18.669 192.993,3.166 246.671,24.752 "/>
<polygon fill="#CFCFCF" points="195.347,-10.702 192.311,-1.281 182.413,-1.258 190.434,4.541 187.397,13.96 195.391,8.124 
	203.413,13.923 200.331,4.517 208.326,-1.318 198.428,-1.296 "/>
<path fill="#B11F24" d="M290.853,89.747L246.563-18.93L244.955,93.81c0.037,0,1.681,0,1.717,0
	C269.879,93.81,290.853,89.747,290.853,89.747z"/>
<g>
	<path fill="#EC1E24" d="M202.777,89.951c0,0,20.623,3.846,43.786,3.858V-18.93L202.777,89.951z"/>
</g>
<polygon fill="#B0B0B0" points="262.83,45.874 258.467,52.909 250.429,50.935 255.772,57.258 251.41,64.292 259.074,61.164 
	264.418,67.488 263.811,59.232 271.475,56.104 263.436,54.129 "/>
<polygon fill="#CFCFCF" points="246.653,11.166 244.114,19.044 235.835,19.064 242.544,23.914 240.004,31.793 246.69,26.912 "/>
<polygon fill="#B0B0B0" points="246.69,26.912 253.398,31.762 250.82,23.895 257.508,19.015 249.23,19.033 246.653,11.166 "/>
<polygon fill="#CFCFCF" points="225.442,60.004 225.598,68.506 217.79,71.115 225.695,73.76 225.852,82.263 230.582,75.395 
	238.489,78.041 233.505,71.151 238.235,64.284 230.425,66.894 "/>
</svg>
