<?xml version="1.0" encoding="utf-8"?>
<!-- Generator: Adobe Illustrator 16.0.0, SVG Export Plug-In . SVG Version: 6.00 Build 0)  -->
<!DOCTYPE svg PUBLIC "-//W3C//DTD SVG 1.1//EN" "http://www.w3.org/Graphics/SVG/1.1/DTD/svg11.dtd">
<svg version="1.1" id="content" xmlns="http://www.w3.org/2000/svg" xmlns:xlink="http://www.w3.org/1999/xlink" x="0px" y="0px"
	 width="500px" height="500px" viewBox="0 0 500 500" enable-background="new 0 0 500 500" xml:space="preserve">
<rect id="position" display="none" fill="none" stroke="#000000" width="500" height="500"/>
<g id="bounds">
	<rect x="0.2" y="80.2" fill="none" stroke="#EAEAEA" stroke-miterlimit="10" width="499.5" height="499.5"/>
</g>
<path fill="#E3D100" d="M422.052,385.648l-64.92-29.162l-107.266,3.42l-107.266-3.42l-64.919,29.162c0,0-11.866,4.249-2.451,10.57
	c34.784,23.35,105.614,35.681,174.636,35.681c69.021,0,139.854-12.331,174.636-35.681
	C433.918,389.897,422.052,385.648,422.052,385.648z"/>
<path fill="#F7E300" d="M355.712,356.654c0.494-0.057,0.959-0.107,1.458-0.168c-0.069-0.29-0.151-0.557-0.224-0.844
	c0.098-0.092,0.16-0.152,0.16-0.152l-0.458-0.965C329.519,246.788,253.56,250.116,253.56,250.116h-7.346
	c0,0-75.968-3.329-103.098,104.425l-0.449,0.949c0,0,0.054,0.069,0.149,0.188c-0.068,0.277-0.147,0.531-0.215,0.809
	c0.375,0.045,0.725,0.082,1.097,0.124c4.593,4.445,26.786,20.663,106.19,20.663C323.576,377.273,349.817,361.154,355.712,356.654z"
	/>
<path fill="#E8D500" d="M256.396,250.167c-1.803-0.089-2.837-0.051-2.837-0.051h-7.346c0,0-1.035-0.038-2.837,0.051
	c-15.396,9.745-60.602,44.747-64.722,120.923c2.021,0.442,4.175,0.867,6.419,1.275c3.987-80.697,55.576-113.367,64.82-118.572
	c4.378,2.442,18.208,10.941,31.872,27.541c14.062,17.087,30.607,46.312,32.914,90.503c2.24-0.442,4.369-0.898,6.398-1.374
	C316.741,294.729,271.75,259.887,256.396,250.167z"/>
<path fill="#D6C500" d="M359.62,357.604c0,0-4.487-8.752-4.706-9.58c-4.315,4.773-25.462,21.949-106.091,21.949
	c-80.821,0-99.748-17.27-103.97-21.949c-0.218,0.828-4.756,9.587-4.756,9.587c2.785,2.718,7.88,6.502,16.952,10.204
	c20.651,8.426,51.887,12.699,92.837,12.699C326.563,380.514,351.89,365.014,359.62,357.604z"/>
<path fill="#BDAD00" d="M240.753,371.008c-1.033-4.389,1.653-6.893,5.955-5.563l21.953,6.781c4.308,1.332,5.285,5.085,2.168,8.344
	l-16.688,17.441c-3.113,3.259-6.506,2.335-7.535-2.054L240.753,371.008z"/>
<path fill="#BDAD00" d="M306.392,353.338c-1.028-4.385-4.424-5.309-7.537-2.057l-16.691,17.441c-3.116,3.26-2.142,7.012,2.164,8.342
	l21.96,6.783c4.303,1.332,6.986-1.171,5.954-5.56L306.392,353.338z"/>
<path fill="#BDAD00" d="M286.382,371.979c-1.391-5.889-6.937-9.464-12.4-7.999c-5.462,1.474-8.753,7.446-7.367,13.337
	c1.383,5.893,6.933,9.474,12.388,8C284.458,383.838,287.758,377.874,286.382,371.979z"/>
</svg>
