<?xml version="1.0" encoding="utf-8"?>
<!-- Generator: Adobe Illustrator 14.0.0, SVG Export Plug-In . SVG Version: 6.00 Build 43363)  -->
<!DOCTYPE svg PUBLIC "-//W3C//DTD SVG 1.1 Basic//EN" "http://www.w3.org/Graphics/SVG/1.1/DTD/svg11-basic.dtd">
<svg version="1.1" baseProfile="basic" id="content"
	 xmlns="http://www.w3.org/2000/svg" xmlns:xlink="http://www.w3.org/1999/xlink" x="0px" y="0px" width="500px" height="500px"
	 viewBox="0 0 500 500" xml:space="preserve">
<rect id="position" y="0" display="none" fill="none" stroke="#000000" width="500" height="500"/>
<g id="bounds" display="none">
	
		<rect id="_x3C_Path_x3E_" x="132.799" y="-11.814" display="inline" fill="none" stroke="#000000" stroke-width="1.0044" width="234.098" height="246.969"/>
</g>
<g>
	<path fill="#6E6E6E" d="M325.281,138.114h28.686c-4.746-12.945-11.68-24.686-21.912-34.557h-1.771l-1.238,34.557H325.281z"/>
	<path fill="#6E6E6E" d="M328.51,138.114h25.457c-4.746-12.945-11.68-24.686-21.912-34.557h-1.771L328.51,138.114L328.51,138.114z"
		/>
	<path fill="#545454" d="M339.301,111.503c-1.592-1.914-3.1-3.735-4.848-5.541l-1.229,2.723l-2.674,29.432h8.836
		C342.652,130.666,340.137,117.427,339.301,111.503z"/>
	<path fill="#6E6E6E" d="M169.904,138.114l-1.242-34.557h-1.771c-10.233,9.871-17.166,21.608-21.912,34.557h28.685H169.904z"/>
	<path fill="#6E6E6E" d="M170.435,138.114l-1.773-34.557h-1.771c-10.233,9.871-17.166,21.608-21.912,34.557H170.435L170.435,138.114
		z"/>
	<path fill="#545454" d="M159.556,138.114h8.836l-2.674-29.432l-1.229-2.723c-1.747,1.806-3.255,3.627-4.846,5.541
		C158.807,117.427,156.292,130.666,159.556,138.114z"/>
	<path opacity="0.76" fill="#495860" d="M310.783,148.896c-19.191,7.756-29.551,9.324-39.907-4.456
		c-10.356-13.779-19.784-14.109-21.343-14.109c-1.557,0-12.12,0.33-22.479,14.109c-10.357,13.78-20.715,12.212-39.908,4.456
		c-19.192-7.756-22.994-19.968-22.994-35.646c0-16.668,4.751-24.838,25.561-28.305c23.943-4.456,59.821-3.548,59.821-3.548
		s34.741-0.908,58.687,3.548c20.809,3.467,25.559,11.637,25.559,28.305C333.777,128.927,329.977,141.14,310.783,148.896z"/>
	<path opacity="0.12" fill="#CF6600" d="M174.262,103c-0.017,0.041-0.023,0.063-0.023,0.063
		C174.246,103.041,174.255,103.021,174.262,103z"/>
	<path opacity="0.12" fill="#CF6600" d="M325.477,103c0.008,0.021,0.018,0.042,0.021,0.063
		C325.502,103.063,325.492,103.04,325.477,103z"/>
	<path opacity="0.12" fill="#627782" d="M165.588,132.39c0,0,85.648-17.73,166.563-1.479c0-14.104-8.877-18.671-8.877-18.671
		s-28.756-16.27-116.436-7.128C177.708,108.48,167.777,114.658,165.588,132.39z"/>
	<path opacity="0.12" fill="#647A85" d="M165.639,130.883c0,0,85.647-17.729,166.56-1.479c0-14.104-8.879-18.279-8.879-18.279
		s-28.756-16.27-116.434-7.127C177.756,107.364,167.828,113.151,165.639,130.883z"/>
	<path opacity="0.12" fill="#677D89" d="M165.69,129.375c0,0,85.647-17.729,166.562-1.479c0-14.104-8.885-17.892-8.885-17.892
		s-28.756-16.27-116.432-7.127C177.804,106.247,167.88,111.643,165.69,129.375z"/>
	<path opacity="0.12" fill="#69808C" d="M165.741,127.867c0,0,85.647-17.729,166.562-1.479c0-14.104-8.887-17.498-8.887-17.498
		s-28.756-16.271-116.434-7.127C177.853,105.131,167.931,110.136,165.741,127.867z"/>
	<path opacity="0.12" fill="#6C838F" d="M165.793,126.36c0,0,85.648-17.73,166.563-1.479c0-14.104-8.891-17.104-8.891-17.104
		s-28.755-16.271-116.433-7.127C177.902,104.014,167.982,108.629,165.793,126.36z"/>
	<path opacity="0.12" fill="#6E8692" d="M165.844,124.853c0,0,85.647-17.73,166.56-1.479c0-14.104-8.891-16.716-8.891-16.716
		s-28.759-16.27-116.437-7.128C177.95,102.898,168.033,107.121,165.844,124.853z"/>
	<path opacity="0.12" fill="#718996" d="M165.895,123.345c0,0,85.647-17.731,166.562-1.479c0-14.104-8.895-16.325-8.895-16.325
		s-28.756-16.27-116.438-7.127C177.998,101.781,168.085,105.614,165.895,123.345z"/>
	<path opacity="0.12" fill="#738C99" d="M165.947,121.838c0,0,85.649-17.729,166.561-1.479c0-14.104-8.896-15.937-8.896-15.937
		s-28.754-16.27-116.43-7.127C178.047,100.665,168.136,104.106,165.947,121.838z"/>
	<path opacity="0.12" fill="#768F9C" d="M165.998,120.33c0,0,85.648-17.729,166.563-1.479c0-14.104-8.9-15.543-8.9-15.543
		s-28.756-16.271-116.43-7.127C178.095,99.548,168.187,102.599,165.998,120.33z"/>
	<path opacity="0.12" fill="#7892A0" d="M166.049,118.823c0,0,85.648-17.729,166.563-1.478c0-14.104-8.898-15.152-8.898-15.152
		s-28.758-16.271-116.436-7.127C178.144,98.432,168.239,101.091,166.049,118.823z"/>
	<path opacity="0.12" fill="#7B95A3" d="M166.1,117.315c0,0,85.647-17.73,166.562-1.479c0-14.104-8.906-14.761-8.906-14.761
		s-28.755-16.27-116.433-7.128C178.192,97.315,168.29,99.584,166.1,117.315z"/>
	<path opacity="0.12" fill="#7D99A6" d="M166.151,115.808c0,0,85.647-17.73,166.562-1.479c0-14.104-8.906-14.37-8.906-14.37
		s-28.758-16.27-116.435-7.127C178.241,96.198,168.341,98.076,166.151,115.808z"/>
	<path opacity="0.12" fill="#809CA9" d="M166.202,114.302c0,0,85.649-17.731,166.563-1.479c0-14.104-8.912-13.979-8.912-13.979
		s-28.756-16.271-116.437-7.13C178.289,95.082,168.392,96.569,166.202,114.302z"/>
	<path opacity="0.12" fill="#829FAD" d="M166.254,112.793c0,0,85.648-17.729,166.563-1.479c0-14.104-8.914-13.588-8.914-13.588
		S295.146,81.458,207.469,90.6C178.338,93.966,168.443,95.061,166.254,112.793z"/>
	<path opacity="0.12" fill="#85A2B0" d="M166.305,111.285c0,0,85.648-17.729,166.562-1.479c0-14.104-8.918-13.197-8.918-13.197
		s-28.756-16.271-116.432-7.127C178.386,92.849,168.494,93.554,166.305,111.285z"/>
	<path opacity="0.12" fill="#87A5B3" d="M166.356,109.778c0,0,85.647-17.73,166.562-1.479c0-14.104-8.92-12.806-8.92-12.806
		s-28.755-16.27-116.433-7.127C178.435,91.733,168.546,92.047,166.356,109.778z"/>
	<path opacity="0.12" fill="#8AA8B7" d="M166.407,108.27c0,0,85.649-17.73,166.563-1.479c0-14.104-8.924-12.415-8.924-12.415
		s-28.758-16.27-116.436-7.127C178.483,90.615,168.597,90.539,166.407,108.27z"/>
	<path opacity="0.12" fill="#8CABBA" d="M166.459,106.763c0,0,85.648-17.731,166.563-1.479c0-14.104-8.924-12.021-8.924-12.021
		s-28.758-16.271-116.435-7.127C178.531,89.5,168.648,89.031,166.459,106.763z"/>
	<path opacity="0.12" fill="#8FAEBD" d="M166.51,105.256c0,0,85.648-17.729,166.563-1.479c0-14.104-8.93-11.633-8.93-11.633
		s-28.754-16.271-116.434-7.127C178.58,88.385,168.699,87.524,166.51,105.256z"/>
	<path opacity="0.12" fill="#91B1C0" d="M166.561,103.748c0,0,85.647-17.729,166.562-1.479c0-14.104-8.932-11.242-8.932-11.242
		S295.438,74.757,207.757,83.9C178.629,87.267,168.751,86.017,166.561,103.748z"/>
	<path opacity="0.12" fill="#94B4C4" d="M166.613,102.24c0,0,85.649-17.729,166.563-1.478c0-14.104-8.936-10.854-8.936-10.854
		s-28.756-16.27-116.432-7.127C178.677,86.151,168.802,84.51,166.613,102.24z"/>
	<path opacity="0.12" fill="#96B7C7" d="M166.664,100.733c0,0,85.648-17.73,166.563-1.479c0-14.104-8.938-10.46-8.938-10.46
		s-28.755-16.27-116.433-7.127C178.725,85.034,168.853,83.002,166.664,100.733z"/>
	<path opacity="0.3" fill="#495860" d="M249.945,82.572c0,0-72.24-7.216-82.18,20.429c0.476-1.129,8.598-17.342,82.18-15.839
		c73.581-1.503,81.704,14.71,82.178,15.839C322.184,75.356,249.945,82.572,249.945,82.572z"/>
	<path opacity="0.2" fill="#96B7C7" d="M247.813,81.723c0,0-70.763-2.784-81.149,16.351c0,0,18.532,19.285,81.149,19.285
		c62.617,0,81.148-19.285,81.148-19.285C318.574,78.939,247.813,81.723,247.813,81.723z"/>
	<path fill="#D4D4D4" d="M328.342,86.673c-10.424-5.697-31.371-11.262-79.728-11.262c-48.354,0-68.601,5.563-79.025,11.262
		c-10.426,5.701-8.25,20.396-7.162,38.941c1.088,18.548,15.051,24.81,30.462,34.847c15.41,10.037,28.102,7.065,37.349-5.46
		c9.247-12.523,19.272-11.803,19.272-11.803s8.938-0.724,18.185,11.803c9.246,12.525,21.938,15.497,37.35,5.46
		c15.41-10.037,29.373-16.299,30.461-34.847C336.592,107.067,338.766,92.374,328.342,86.673z M307.15,147.083
		c-18.064,7.301-27.813,8.775-37.563-4.191c-9.75-12.972-16.551-13.281-20.089-13.281c-3.536,0-11.408,0.312-21.159,13.281
		c-9.749,12.97-19.495,11.494-37.563,4.191c-18.064-7.301-21.644-18.795-21.644-33.552c0-15.688,4.473-23.378,24.059-26.641
		c22.537-4.194,56.307-3.343,56.307-3.343s32.7-0.854,55.234,3.343c19.586,3.262,24.061,10.949,24.061,26.641
		C328.793,128.288,325.217,139.783,307.15,147.083z"/>
	<path opacity="0.5" fill="#E6E6E6" d="M307.307,147.083c-17.912,7.301-27.814,9.088-37.479-3.882
		c-9.298-12.473-16.634-13.55-20.315-13.591v-0.003c-0.004,0-0.007,0-0.01,0c-0.064,0-0.138,0-0.207,0c-0.07,0-0.143,0-0.209,0
		c-0.003,0-0.007,0-0.009,0v0.003c-3.716,0.039-11.355,0.803-20.734,13.278c-9.748,12.97-19.495,11.492-37.563,4.191
		c-8.374-3.385-13.63-7.67-16.864-12.765c2.961,10.675,24.307,22.476,36.749,22.476c13.494,0,16.809-5.493,22.169-13.078
		c6.366-9.956,14.324-10.764,16.243-10.81v0.004c0,0,0.078-0.006,0.218-0.006c0.139,0,0.217,0.006,0.217,0.006v-0.004
		c1.907,0.047,9.792,0.858,16.099,10.81c5.316,7.585,8.604,13.078,21.979,13.078c12.343,0,33.505-11.801,36.438-22.476
		C320.818,139.412,315.607,143.698,307.307,147.083z"/>
	<path opacity="0.7" fill="#E6E6E6" d="M328.342,86.673c-10.424-5.697-31.371-11.262-79.728-11.262
		c-48.354,0-68.601,5.563-79.025,11.262c-3.938,2.154-6.077,5.597-7.156,10.04c6.62-7.417,26.627-17.832,86.809-17.832
		c58.023,0,78.701,9.684,86.043,17.022C334.145,91.85,332.037,88.694,328.342,86.673z"/>
	<path fill="#A6A6A6" d="M248.97,138.602c-8.479,0-16.495,13.628-16.495,13.628h0.007c8.552-9.636,17.025-9.032,17.025-9.032
		s7.552-0.603,15.949,9.021C265.297,151.946,257.361,138.602,248.97,138.602z"/>
</g>
</svg>
