<?xml version="1.0" encoding="utf-8"?>
<!-- Generator: Adobe Illustrator 18.0.0, SVG Export Plug-In . SVG Version: 6.00 Build 0)  -->
<!DOCTYPE svg PUBLIC "-//W3C//DTD SVG 1.1//EN" "http://www.w3.org/Graphics/SVG/1.1/DTD/svg11.dtd">
<svg version="1.1" id="content" xmlns="http://www.w3.org/2000/svg" xmlns:xlink="http://www.w3.org/1999/xlink" x="0px" y="0px"
	 width="500px" height="500px" viewBox="0 0 500 500" enable-background="new 0 0 500 500" xml:space="preserve">
<rect id="position" display="none" fill="none" stroke="#000000" width="500" height="500"/>
<g id="bounds" display="none">
	<rect x="0.2" y="80.2" display="inline" fill="none" stroke="#EAEAEA" stroke-miterlimit="10" width="499.5" height="499.5"/>
</g>
<g id="glasses">
	<path opacity="0.4" fill="#BBEAF9" enable-background="new    " d="M439.9,324.6c-1.1,12.1-4.2,27.6-6,33.7
		c-1.9,6.4-5.3,15.9-15.7,24.8c-9.2,8-21.7,15.9-39.6,18c-16.5,2-37.3,2-49.9-1.6c-16.3-4.7-25.6-14.9-32.8-25.1
		c-4.7-6.8-10.6-16.9-15-28c-2.8-6.9-4.7-14.4-6.5-20.6l-8.4-32.1l51.9-26.6h80.2l35.2,12.2l6.4,19.6
		C439.9,298.9,440.1,323.7,439.9,324.6z"/>
	<path opacity="0.4" fill="#BBEAF9" enable-background="new    " d="M59.7,298.9l6.4-19.6l35.2-12.2h80.2l52,26.6l-8.4,32.1
		c-1.8,6.2-3.7,13.7-6.5,20.6c-4.5,11.1-10.4,21.4-15,28c-7,10.2-16.5,20.3-32.8,25.1c-12.6,3.7-33.3,3.7-49.9,1.6
		c-17.9-2.3-30.3-10-39.6-18c-10.4-8.9-13.8-18.3-15.7-24.8c-1.8-6.1-4.9-21.5-6-33.7C59.5,323.7,59.7,298.9,59.7,298.9z"/>
	<path fill="#010101" d="M50.4,289.8c-5.4,0-9.9-1.8-9.9-3.9s4.5-3.8,9.9-3.8s9.9,1.8,9.9,3.8C60.3,288.1,55.9,289.8,50.4,289.8
		 M217.9,319.1c-0.5,2.3,13.7,5.1,14.4,3.9c3.8-7,8.7-10.7,17.6-10.7c8.3,0,13.1,3.1,16.8,9.2c1.1,1.9,0.8,1.5,1.5,1.9
		c0.7,0.4,13.3-2.3,13.7-3.1c0.4-0.8,0.1-1.4-0.1-2.4c-2-8.3-3-15.4-2.2-20.1c2.2-14.1,38.7-26,78.6-26c0,0,19.6-0.5,36.3,1.8
		c16.5,2.4,28.6,8,35.2,20.2c2.7,5.1,3.4,14.2,2.8,23.8c0,0-0.5,1.4-0.1,2.8c0.3,1.5,13,2.7,14.1,3s2.2,0,2.2-0.7
		c0.1-0.5,0.3-1.4,0.4-1.8c3.1-13.7,17.9-15.6,17.9-15.6l-2.6-40c-26.6,0-75.2-8-104.5-8c-29.3,0-57.4,4.6-77.9,9.1
		c-20.5,4.6-31.8,3.8-31.8,3.8s-11.5,0.8-32-3.8c-20.5-4.6-48.6-9.1-77.9-9.1s-77.9,8-104.5,8l-2.7,40.1c0,0,14.6,1.9,17.9,15.6
		c0.1,0.8,0.3,2.3,1.2,2.4c1.1,0.3,10.7-1.5,12.5-1.8c1.8-0.3,3-0.8,3-1.8c-0.7-10.4-0.3-20.6,2.7-26.1
		c6.6-12.3,18.6-17.9,35.2-20.2c16.5-2.4,36.3-1.8,36.3-1.8c40,0,76.4,11.9,78.6,26C221.1,302.7,220.1,310.3,217.9,319.1
		 M449.3,289.8c-5.6,0-9.9-1.8-9.9-3.9s4.5-3.8,9.9-3.8s9.9,1.8,9.9,3.8C459.3,288.1,454.8,289.8,449.3,289.8"/>
	<path fill="#FFFFFF" d="M50.4,289.8c-5.4,0-9.9-1.8-9.9-3.9s4.5-3.8,9.9-3.8s9.9,1.8,9.9,3.8C60.3,288.1,55.9,289.8,50.4,289.8"/>
	<path fill="#FFFFFF" d="M449.3,289.8c-5.6,0-9.9-1.8-9.9-3.9s4.5-3.8,9.9-3.8s9.9,1.8,9.9,3.8C459.3,288.1,454.8,289.8,449.3,289.8
		"/>
</g>
</svg>
