<?xml version="1.0" encoding="utf-8"?>
<!-- Generator: Adobe Illustrator 15.0.0, SVG Export Plug-In . SVG Version: 6.00 Build 0)  -->
<!DOCTYPE svg PUBLIC "-//W3C//DTD SVG 1.1//EN" "http://www.w3.org/Graphics/SVG/1.1/DTD/svg11.dtd">
<svg version="1.1" id="content" xmlns="http://www.w3.org/2000/svg" xmlns:xlink="http://www.w3.org/1999/xlink" x="0px" y="0px"
	 width="500px" height="500px" viewBox="0 0 500 500" enable-background="new 0 0 500 500" xml:space="preserve">
<g id="bounds" display="none">
	
		<rect x="139.304" y="7.961" fill="none" stroke="#000000" stroke-width="1.1486" stroke-miterlimit="10" width="220.315" height="220.316"/>
</g>
<g id="glasses">
	<path d="M236.1,118.56c0,0-5.023-0.208-4.716-3.422c0.307-3.214,2.989-2.468,2.989-2.468l1.584-3.446c0,0,0.4-1.354,1.428-1.253
		c0.703,0.066,0.417,2.493,0.417,2.493l-0.877,6.321L236.1,118.56z"/>
	<path fill="#FEFEFE" d="M236.322,115.926c-0.045,0.472-0.464,0.815-0.936,0.771l-0.303-0.029c-0.473-0.045-0.816-0.464-0.772-0.936
		l0.079-0.821c0.045-0.471,0.462-0.816,0.935-0.771l0.304,0.028c0.473,0.045,0.816,0.465,0.772,0.936L236.322,115.926z"/>
	<path d="M261.999,116.785l-0.878-6.322c0,0-0.285-2.426,0.416-2.492c1.027-0.1,1.429,1.253,1.429,1.253l1.585,3.446
		c0,0,2.682-0.746,2.989,2.468c0.308,3.214-4.718,3.422-4.718,3.422L261.999,116.785z"/>
	<path fill="#FEFEFE" d="M262.523,115.103c-0.045-0.471,0.3-0.891,0.771-0.936l0.303-0.028c0.473-0.045,0.892,0.301,0.937,0.771
		l0.079,0.821c0.044,0.472-0.301,0.89-0.771,0.936l-0.304,0.029c-0.472,0.045-0.892-0.299-0.937-0.771L262.523,115.103z"/>
	<path opacity="0.2" fill="#FEFEFE" enable-background="new    " d="M202.694,142.588c0,0,28.008,1.248,31.558-13.331
		c4.124-16.019,11.7-27.625-9.977-32.421c-21.677-4.795-45.369-4.219-52.466,3.263c-7.386,7.673,0.481,30.979,1.344,31.939
		C176.414,138.272,182.167,141.246,202.694,142.588z"/>
	<path opacity="0.4" fill="#FEFEFE" enable-background="new    " d="M224.275,96.836c-21.677-4.795-45.369-4.219-52.466,3.263
		c-2.177,2.261-3.022,5.884-3.119,9.889c6.104,3.825,35.495,20.011,70.146,1.668C239.589,104.727,236.888,99.626,224.275,96.836z"/>
	<path opacity="0.4" fill="#FEFEFE" enable-background="new    " d="M274.648,96.836c21.679-4.795,45.369-4.219,52.467,3.263
		c2.177,2.261,3.021,5.884,3.119,9.889c-6.104,3.825-35.496,20.011-70.146,1.668C259.335,104.727,262.035,99.626,274.648,96.836z"/>
	<path fill="none" stroke="#302E18" stroke-width="2.5" stroke-miterlimit="10" d="M202.694,142.588c0,0,28.008,1.248,31.558-13.331
		c4.124-16.019,11.7-27.625-9.977-32.421c-21.677-4.795-45.369-4.219-52.466,3.263c-7.386,7.673,0.481,30.979,1.344,31.939
		C176.414,138.272,182.167,141.246,202.694,142.588z"/>
	<path fill="#302E18" d="M183.39,93.623c0,0-18.728,1.063-18.728,11.979s0,10.916,0,10.916s4.279,4.977,6.063,8.306
		c-1.412-6.697-2.484-10.916-1.92-16.866C169.435,102.007,179.929,94.093,183.39,93.623z"/>
	<path fill="#302E18" d="M315.532,93.623c0,0,18.728,1.063,18.728,11.979s0,10.916,0,10.916s-4.277,4.977-6.062,8.306
		c1.412-6.697,2.483-10.916,1.92-16.866C329.488,102.007,318.994,94.093,315.532,93.623z"/>
	<path opacity="0.2" fill="#FEFEFE" enable-background="new    " d="M296.23,142.588c0,0-28.008,1.248-31.558-13.331
		c-4.123-16.019-11.7-27.625,9.976-32.421c21.679-4.795,45.369-4.219,52.467,3.263c7.386,7.673-0.479,30.979-1.344,31.939
		C322.51,138.272,316.756,141.246,296.23,142.588z"/>
	<path fill="none" stroke="#302E18" stroke-width="2.5" stroke-miterlimit="10" d="M296.311,142.588c0,0-28.01,1.248-31.559-13.331
		c-4.123-16.019-11.701-27.625,9.977-32.421c21.678-4.795,45.368-4.219,52.466,3.263c7.386,7.673-0.48,30.979-1.345,31.939
		C322.588,138.272,316.835,141.246,296.311,142.588z"/>
	<path fill="#302E18" d="M266.188,99.787c0,0-9.587,4.627-16.685,4.627c-7.099,0-16.686-4.627-16.686-4.627
		c7.773,3.622,6.518,11.629,4.123,20.195c5.664-10.426,12.563-10.581,12.563-10.581s6.897,0.155,12.56,10.581
		C259.668,111.416,258.412,103.409,266.188,99.787z"/>
</g>
<rect id="position" display="none" fill="none" stroke="#000000" stroke-width="1.1486" stroke-miterlimit="10" width="500" height="500"/>
</svg>
