<?xml version="1.0" encoding="utf-8"?>
<!-- Generator: Adobe Illustrator 14.0.0, SVG Export Plug-In . SVG Version: 6.00 Build 43363)  -->
<!DOCTYPE svg PUBLIC "-//W3C//DTD SVG 1.1//EN" "http://www.w3.org/Graphics/SVG/1.1/DTD/svg11.dtd">
<svg version="1.1" id="content" xmlns="http://www.w3.org/2000/svg" xmlns:xlink="http://www.w3.org/1999/xlink" x="0px" y="0px"
	 width="500px" height="500px" viewBox="0 0 500 500" enable-background="new 0 0 500 500" xml:space="preserve">
<g id="bounds" display="none">
	
		<rect x="139.855" y="10.348" fill="none" stroke="#000000" stroke-width="1.1438" stroke-miterlimit="10" width="219.408" height="219.41"/>
</g>
<g id="glasses">
	<path opacity="0.95" fill="#282828" enable-background="new    " d="M337.868,97.58c-2.993-0.281-2.134-4.079-7.419-4.079
		c-5.284,0-58.428,2.957-80.892,2.957c-22.463,0-75.605-2.957-80.892-2.957s-4.425,3.798-7.419,4.079
		c-2.996,0.282-3.487,0.188-3.442,3.799c-0.045,4.267,1.565,16.79,4.144,22.74s3.267,17.22,35.667,21.907
		c32.401,4.688,41.168-20.469,43.446-27.238c2.28-6.77,8.496-6.349,8.496-6.349s6.216-0.42,8.496,6.349
		c2.28,6.77,11.045,31.927,43.446,27.238c32.401-4.688,33.09-15.958,35.668-21.907c2.577-5.95,4.188-18.475,4.143-22.74
		C341.356,97.768,340.865,97.862,337.868,97.58z"/>
	<path fill="#999999" d="M155.529,102.844l6.112,1.414c0,0,1.272,0.152,1.091,1.946c-0.181,1.794-0.546,7.442-0.546,7.442
		l-5.385-0.725c0,0-2.366-0.572-2.946-4.677C153.272,104.143,152.471,101.853,155.529,102.844z"/>
	<path fill="#999999" d="M343.59,102.844l-6.113,1.413c0,0-1.273,0.152-1.092,1.946c0.181,1.794,0.545,7.442,0.545,7.442
		l5.386-0.725c0,0,2.365-0.572,2.948-4.677C345.845,104.143,346.646,101.853,343.59,102.844z"/>
	<path opacity="0.1" fill="#FFFFFF" enable-background="new    " d="M182.318,142.71c4.104,1.29,9.122,2.423,15.298,3.316
		c2.458,0.355,4.764,0.521,6.958,0.555l14.188-50.93c-7.803-0.304-15.796-0.654-23.059-0.984L182.318,142.71z"/>
	<path opacity="0.1" fill="#FFFFFF" enable-background="new    " d="M275.299,141.96c5.515,3.199,12.71,5.163,22.08,4.497
		l14.536-52.18c-6.978,0.322-15.23,0.702-23.626,1.055L275.299,141.96z"/>
	<path fill="#B2B2B2" d="M162.341,111.332c-1.65,0-4.418-0.364-5.72-2.642c-0.838-1.467-0.873-3.696-0.646-5.744l-0.446-0.103
		c-3.058-0.991-2.256,1.298-1.674,5.401c0.581,4.104,2.946,4.677,2.946,4.677l5.385,0.725
		C162.186,113.647,162.252,112.633,162.341,111.332z"/>
	<path fill="#B2B2B2" d="M336.776,111.332c1.65,0,4.418-0.364,5.72-2.642c0.839-1.467,0.873-3.696,0.646-5.744l0.446-0.103
		c3.058-0.991,2.257,1.298,1.674,5.401c-0.58,4.104-2.946,4.677-2.946,4.677l-5.385,0.725
		C336.931,113.647,336.865,112.633,336.776,111.332z"/>
</g>
<rect id="position" x="0" y="0" display="none" fill="none" stroke="#000000" stroke-width="0.9955" width="500" height="500"/>
</svg>
