<?xml version="1.0" encoding="utf-8"?>
<!-- Generator: Adobe Illustrator 18.0.0, SVG Export Plug-In . SVG Version: 6.00 Build 0)  -->
<!DOCTYPE svg PUBLIC "-//W3C//DTD SVG 1.1//EN" "http://www.w3.org/Graphics/SVG/1.1/DTD/svg11.dtd">
<svg version="1.1" id="content" xmlns="http://www.w3.org/2000/svg" xmlns:xlink="http://www.w3.org/1999/xlink" x="0px" y="0px"
	 width="500px" height="500px" viewBox="0 0 500 500" enable-background="new 0 0 500 500" xml:space="preserve">
<g id="bounds" display="none">
	
		<rect x="134.3" y="3.3" display="inline" fill="none" stroke="#000000" stroke-width="1.2012" stroke-miterlimit="10" width="230.4" height="230.4"/>
</g>
<rect id="position" display="none" fill="none" stroke="#000000" width="500" height="500"/>
<g>
	<g>
		<rect x="222.1" y="80.9" fill="#FCD844" width="55" height="5"/>
		<g>
			<g>
				<rect x="158.3" y="103.9" fill="#FCD844" width="7" height="10"/>
				<g>
					<g>
						<path fill="#14222B" d="M191.2,150.6c-15.7,0-26.2-12.3-27.2-32.1c-0.7-12.4,1.2-19.9,6.2-25.2c6.1-6.4,16.9-9.3,34.9-9.3
							c25.5,0,35.5,5.5,35.5,19.5C240.6,131.2,220.3,150.6,191.2,150.6z"/>
						<path fill="#FCD844" d="M205.1,85.5c26.7,0,34,5.9,34,18c0,26.3-18.7,45.6-47.9,45.6c-14.8,0-24.7-11.6-25.7-30.7
							C164.3,96.2,170.7,85.5,205.1,85.5 M205.1,82.5c-18.5,0-29.6,3-36,9.8c-6.7,7-7.1,17.2-6.6,26.3c0.5,10,3.4,18.4,8.4,24.3
							c5.1,6.1,12.1,9.3,20.3,9.3c15,0,27.8-4.8,37-13.8c9-8.7,13.9-21.1,13.9-34.8C242.1,86.1,227.3,82.5,205.1,82.5L205.1,82.5z"
							/>
					</g>
				</g>
				<path fill="#565D5E" d="M165.8,121.8C165.8,121.8,165.8,121.9,165.8,121.8c0.7,6.4,2.5,11.7,5.1,16L222,86.7
					c-4.5-0.8-10.1-1.2-16.9-1.2c-34.3,0-40.8,10.7-39.6,32.9c0,0.7,0.1,1.3,0.1,2C165.7,120.8,165.7,121.3,165.8,121.8z"/>
			</g>
			<g>
				<rect x="333.8" y="103.9" fill="#FCD844" width="7" height="10"/>
				<g>
					<g>
						<path fill="#14222B" d="M308,150.6c-29.1,0-49.4-19.4-49.4-47.1c0-14,10-19.5,35.5-19.5c18.1,0,28.8,2.9,34.9,9.3
							c5,5.3,6.8,12.8,6.2,25.2C334.1,138.3,323.7,150.6,308,150.6z"/>
						<path fill="#FCD844" d="M294.1,85.5c34.3,0,40.8,10.7,39.6,32.9c-1,19.1-10.9,30.7-25.7,30.7c-29.2,0-47.9-19.3-47.9-45.6
							C260.1,91.4,267.4,85.5,294.1,85.5 M294.1,82.5c-22.2,0-37,3.6-37,21c0,13.7,4.9,26.1,13.9,34.8c9.3,9,22.1,13.8,37,13.8
							c8.2,0,15.2-3.2,20.3-9.3c5-5.9,7.9-14.3,8.4-24.3c0.5-9,0.1-19.2-6.6-26.3C323.7,85.5,312.6,82.5,294.1,82.5L294.1,82.5z"/>
					</g>
				</g>
				<path fill="#565D5E" d="M313.9,87.3c-5.3-1.2-11.8-1.8-19.8-1.8c-26.7,0-34,5.9-34,18c0,11,3.3,20.8,9.2,28.4L313.9,87.3z"/>
			</g>
		</g>
	</g>
	<path fill="none" stroke="#FCD844" stroke-width="3" stroke-miterlimit="10" d="M240.3,109.5c0-6,2.5-10.8,6.8-10.8s0.5,0,5.3,0
		s6.4,6,6.4,10.8"/>
</g>
</svg>
