<?xml version="1.0" encoding="utf-8"?>
<!-- Generator: Adobe Illustrator 14.0.0, SVG Export Plug-In . SVG Version: 6.00 Build 43363)  -->
<!DOCTYPE svg PUBLIC "-//W3C//DTD SVG 1.1//EN" "http://www.w3.org/Graphics/SVG/1.1/DTD/svg11.dtd">
<svg version="1.1" id="content" xmlns="http://www.w3.org/2000/svg" xmlns:xlink="http://www.w3.org/1999/xlink" x="0px" y="0px"
	 width="500px" height="500px" viewBox="0 0 500 500" enable-background="new 0 0 500 500" xml:space="preserve">
<g id="bounds" display="none">
	
		<rect x="124.225" y="-9.431" fill="none" stroke="#000000" stroke-width="1.3055" stroke-miterlimit="10" width="250.408" height="250.408"/>
</g>
<g id="glasses">
	<path opacity="0.5" fill="#E9FBFF" enable-background="new    " d="M153.01,100.87c0,0,38.674-19.154,84.074,10.873
		c-5.426,20.255-7.447,26.423-42.037,26.423C167.904,134.083,153.01,100.87,153.01,100.87z"/>
	<path opacity="0.5" fill="#E9FBFF" enable-background="new    " d="M345.851,100.87c0,0-38.677-19.154-84.073,10.873
		c5.427,20.255,7.446,26.423,42.036,26.423C330.959,134.083,345.851,100.87,345.851,100.87z"/>
	<path fill="#333333" d="M353.482,100.461c0,0-20.354-11.729-44.854-9.774c-35.766,2.989-51.06,20.47-51.06,20.47
		c-0.521,0-2.854,0-5.242,0l0,0c0,0-1.244,0-2.899,0s-2.898,0-2.898,0l0,0c-2.388,0-4.72,0-5.242,0c0,0-15.294-17.48-51.061-20.47
		c-24.495-1.955-44.851,9.774-44.851,9.774c-3.335,1.726-0.231,4.37,5.289,4.485c4.024,13.916,28.289,34.5,51.635,35.995
		s31.856-9.545,35.651-18.976c1.932-5.521,7.248-6.548,11.476-6.738c4.229,0.19,9.542,1.219,11.477,6.738
		c3.795,9.431,12.306,20.471,35.647,18.976c23.348-1.495,47.608-22.08,51.638-35.995
		C353.715,104.83,356.817,102.187,353.482,100.461z M190.346,132.43c-25.3-7.704-34.919-29.213-34.919-29.213
		s6.525-5.109,21.922-5.861c37.937-1.853,56.365,15.835,56.365,15.835C231.643,132.396,215.417,140.135,190.346,132.43z
		 M308.515,132.43c-25.069,7.705-41.297-0.034-43.369-19.239c0,0,18.432-17.688,56.362-15.835
		c15.396,0.751,21.927,5.861,21.927,5.861S333.815,124.726,308.515,132.43z"/>
</g>
<rect id="position" x="0" y="0" display="none" fill="none" stroke="#000000" width="500" height="500"/>
</svg>
