<?xml version="1.0" encoding="utf-8"?>
<!-- Generator: Adobe Illustrator 14.0.0, SVG Export Plug-In . SVG Version: 6.00 Build 43363)  -->
<!DOCTYPE svg PUBLIC "-//W3C//DTD SVG 1.1//EN" "http://www.w3.org/Graphics/SVG/1.1/DTD/svg11.dtd">
<svg version="1.1" id="content" xmlns="http://www.w3.org/2000/svg" xmlns:xlink="http://www.w3.org/1999/xlink" x="0px" y="0px"
	 width="500px" height="500px" viewBox="0 0 500 500" enable-background="new 0 0 500 500" xml:space="preserve">
<g id="bounds" display="none">
	
		<rect x="135.425" y="4.77" fill="none" stroke="#000000" stroke-width="1.1908" stroke-miterlimit="10" width="228.408" height="228.408"/>
</g>
<rect id="position" x="0" y="0" display="none" fill="none" stroke="#000000" width="500" height="500"/>
<g id="glasses">
	<path fill="#111111" d="M338.148,93.469c-0.896-1.493-45.826-4.479-55.713-3.286c-14.957,1.521-20.529,7.78-32.938,7.78
		c-12.412,0-14.943-6.262-32.674-7.275c-9.938-0.565-54.813,1.792-55.713,3.286c-0.896,1.494,0.299,11.955,1.197,12.653
		c0.9,0.697,5.691,0.249,5.691,3.884c0.002,9.561,3.596,21.211,5.688,24.796c2.102,3.585,3.695,7.567,14.678,10.854
		c10.021,2.999,21.27,2.291,28.758-1.294c5.924-2.835,14.977-10.157,19.471-21.211c3.576-8.801,4.543-17.563,12.898-17.563
		c8.359,0,9.596,8.26,13.172,17.058c4.49,11.058,13.547,18.376,19.471,21.212c7.488,3.587,18.732,4.295,28.754,1.296
		c10.982-3.286,12.582-7.271,14.678-10.854c2.102-3.583,5.691-15.236,5.691-24.796c0-3.635,4.791-3.188,5.689-3.884
		C337.849,105.425,339.048,94.964,338.148,93.469z M231.8,119.175c-1.498,6.573-7.488,18.224-18.271,22.407
		c-10.779,4.183-23.063,2.091-30.553-2.09c-7.486-4.186-7.787-14.938-8.086-25.099c-0.301-10.154,1.496-12.547,5.691-15.233
		c2.518-1.615,16.174-3.286,24.262-3.286s19.604,0.986,25.16,4.777C235.695,104.536,233.298,112.602,231.8,119.175z
		 M324.368,113.889c-0.301,10.158-0.604,20.913-8.088,25.096c-7.488,4.185-19.77,6.273-30.553,2.094
		c-10.781-4.186-16.77-15.834-18.27-22.406c-1.496-6.573-3.896-14.64,1.799-18.523c5.557-3.792,17.068-4.777,25.16-4.777
		c8.082,0,21.738,1.67,24.262,3.284C322.868,101.343,324.665,103.732,324.368,113.889z"/>
	<path opacity="0.2" fill="#FFFFFF" enable-background="new    " d="M178.888,103.012c0,0,24.734-8.174,49.467,0.586
		c0,10.368-10.389,19.75-25.342,19.75C188.06,123.349,178.888,115.574,178.888,103.012z"/>
	<path opacity="0.2" fill="#FFFFFF" enable-background="new    " d="M294.907,123.349c-14.953,0-25.344-9.382-25.344-19.75
		c24.732-8.76,49.469-0.586,49.469-0.586C319.032,115.574,309.861,123.349,294.907,123.349z"/>
</g>
</svg>
