<?xml version="1.0" encoding="utf-8"?>
<!-- Generator: Adobe Illustrator 18.0.0, SVG Export Plug-In . SVG Version: 6.00 Build 0)  -->
<!DOCTYPE svg PUBLIC "-//W3C//DTD SVG 1.1//EN" "http://www.w3.org/Graphics/SVG/1.1/DTD/svg11.dtd">
<svg version="1.1" id="content" xmlns="http://www.w3.org/2000/svg" xmlns:xlink="http://www.w3.org/1999/xlink" x="0px" y="0px"
	 width="500px" height="500px" viewBox="0 0 500 500" enable-background="new 0 0 500 500" xml:space="preserve">
<g id="bounds" display="none">
	<rect x="116.4" y="-23.5" display="inline" fill="none" stroke="#000000" stroke-width="1.0104" width="241.6" height="241.6"/>
</g>
<g id="accessory">
	<path opacity="0.2" fill="#314F7C" enable-background="new    " d="M168.5,102.5v30.6l34.2,20.5c0,0,17.1-3.8,27.9-25.6
		c10.8-21.8,10.5-34.8,10.5-34.8s-24-7.5-43.8-4.1C177.5,92.5,170.3,98.5,168.5,102.5z"/>
	<path opacity="0.2" fill="#314F7C" enable-background="new    " d="M301.7,89.1c-19.8-3.4-43.8,4.1-43.8,4.1s-0.3,13,10.5,34.8
		c10.8,21.8,27.9,25.6,27.9,25.6l34.2-20.5v-30.6C328.7,98.5,321.5,92.5,301.7,89.1z"/>
	<path fill="#314F7C" d="M337.3,118c0-1.2,0-2.4,0-3.6c0-9.6-0.9-18.7-12.1-24.4c-10.4-6.2-34.4-6.6-35.4-6.6h-37.3l0,0h-3h-3l0,0
		h-37.3c-1,0-25,0.5-35.4,6.6c-11.2,5.7-12.1,14.8-12.1,24.4c0,1.2,0,2.4,0,3.6c-0.1,9.3-0.2,18.8,5.6,24.6
		c5.9,5.9,23.7,14.2,24.5,14.5c3.3,1.5,7.2,3,11.2,3l0,0c4.7,0,9.3-2.1,14.6-6.7c6.8-5.8,12.2-12,16.5-18.7c1.6,0.2,5.1-0.5,7.6-8.4
		c3.2-10.3,7.7-9.4,7.7-9.4s4.4-0.9,7.7,9.4c2.5,7.9,6,8.6,7.6,8.4c4.3,6.7,9.8,12.9,16.5,18.7c5.4,4.6,9.9,6.7,14.6,6.7
		c0,0,0,0,0,0c4,0,7.9-1.5,11.2-3c0.8-0.4,18.6-8.7,24.5-14.5C337.5,136.8,337.4,127.2,337.3,118z M221.2,138.6l-0.6,0.6
		c-7.8,7.8-12.5,12.5-18.1,12.5c-3.3,0-7.3-1.5-12.8-4.7c-3.1-1.8-5.8-3.3-8.2-4.6c-11-5.9-14-7.5-14-21.8l0-2.2
		c0-18.2,0-21.4,14.9-25.6C189,90.9,197.9,90,208,90c12.6,0,24.4,1.5,29.9,2.8c3.8,1,3.4,4.4,3.2,5.4
		C241,98.5,233.9,125.8,221.2,138.6z M331.4,118.4l0,2.2c0,14.3-3,15.9-14,21.8c-2.4,1.3-5.1,2.8-8.2,4.6c-5.4,3.2-9.5,4.7-12.8,4.7
		c-5.6,0-10.3-4.7-18.1-12.5l-0.6-0.6c-12.7-12.7-19.9-40.1-19.9-40.4c-0.2-1-0.6-4.4,3.2-5.4c5.5-1.3,17.3-2.8,29.9-2.8
		c10.1,0,19,1,25.5,2.8C331.5,96.9,331.5,100.2,331.4,118.4z"/>
	<path fill="#3A3A3A" d="M334.2,114.4c0-10-1.2-17-10.5-21.8c-9.8-5.9-34-6.2-34-6.2h-40.2h-40.2c0,0-24.2,0.4-34,6.2
		c-9.4,4.8-10.5,11.8-10.5,21.8s-0.9,20.5,4.7,26.1c5.6,5.6,23.6,13.9,23.6,13.9c8.8,3.9,14,4.2,22.7-3.2s18.7-18.5,23.9-34.9
		c5.1-15.1,7.3-16.5,9.9-16.5c2.6,0,4.8,1.4,9.9,16.5c5.2,16.4,15.2,27.5,23.9,34.9s13.9,7.1,22.7,3.2c0,0,18-8.4,23.6-13.9
		C335.1,134.9,334.2,124.3,334.2,114.4z M238.3,102.4c0,0-6.2,24-17.6,35.5c-11.5,11.5-15.8,16.1-30.2,7.6
		c-14.5-8.5-20.2-8-20.2-24.9s-0.6-22.1,14.8-26.4c15.4-4.3,39.8-2.1,48.4,0C239.6,95.8,238.5,102,238.3,102.4z M328.8,120.6
		c0,16.9-5.8,16.4-20.2,24.9c-14.5,8.5-18.8,3.9-30.2-7.6c-11.5-11.5-17.6-35.5-17.6-35.5c-0.1-0.4-1.3-6.6,4.9-8.2
		c8.7-2.1,33-4.3,48.4,0C329.4,98.5,328.8,103.8,328.8,120.6z"/>
	<ellipse opacity="0.3" fill="#FFFFFF" enable-background="new    " cx="182.7" cy="118.8" rx="3.2" ry="3.1"/>
	<path fill="#FFFFFF" d="M180.5,119.7c0,0,2,2.1,4.3,0.1C181.7,120.6,180.5,119.7,180.5,119.7z"/>
	<ellipse opacity="0.3" fill="#FFFFFF" enable-background="new    " cx="198.6" cy="134.3" rx="1.8" ry="1.7"/>
	<path fill="#FFFFFF" d="M197.4,134.8c0,0,1.1,1.1,2.3,0C198.1,135.3,197.4,134.8,197.4,134.8z"/>
	<ellipse opacity="0.3" fill="#FFFFFF" enable-background="new    " cx="188.4" cy="136.4" rx="2.5" ry="2.4"/>
	<path fill="#FFFFFF" d="M186.7,137.1c0,0,1.5,1.6,3.2,0.1C187.7,137.8,186.7,137.1,186.7,137.1z"/>
	<ellipse opacity="0.3" fill="#FFFFFF" enable-background="new    " cx="314.9" cy="109.9" rx="3.2" ry="3.1"/>
	<path fill="#FFFFFF" d="M317.1,110.8c0,0-2,2.1-4.3,0.1C315.8,111.7,317.1,110.8,317.1,110.8z"/>
	<ellipse opacity="0.3" fill="#FFFFFF" enable-background="new    " cx="300.4" cy="134.3" rx="1.8" ry="1.7"/>
	<path fill="#FFFFFF" d="M301.6,134.8c0,0-1.1,1.1-2.3,0C300.9,135.3,301.6,134.8,301.6,134.8z"/>
	<ellipse opacity="0.3" fill="#FFFFFF" enable-background="new    " cx="310.6" cy="136.4" rx="2.5" ry="2.4"/>
	<path fill="#FFFFFF" d="M312.3,137.1c0,0-1.5,1.6-3.2,0.1C311.3,137.8,312.3,137.1,312.3,137.1z"/>
	<circle fill="#3A3A3A" cx="249.7" cy="148.7" r="16.4"/>
	<path fill="#314F7C" d="M242.5,173.4h-90.8c0,0-0.1,0-0.3,0c-1.4,0-5.1-0.3-8.1-3.1c-1.6-1.5-3.6-4.3-3.6-8.7V21.1l14.4,14.4v118.7
		l0,0.1c0,0-0.1,1.8,1.3,3.6c0.6,0.8,2.2,1.2,4.2,1.2c0.6,0,1.1,0,1.1,0l0.1,0h81.7L242.5,173.4L242.5,173.4z"/>
	<path fill="#567199" d="M156.3,106c0,0.6-0.5,1.1-1,1.1h-17.1c-0.6,0-1-0.5-1-1.1V56.4c0-0.6,0.5-1.1,1-1.1h17.1c0.6,0,1,0.5,1,1.1
		V106z"/>
	<path fill="#3A3A3A" d="M259.7,146.3c0-0.5-0.4-1-1-1h-18.5c-0.5,0-1,0.4-1,1v26.1c0,0.5,0.4,1,1,1h18.5c0.5,0,1-0.4,1-1V146.3z"/>
	<circle fill="#C9F70B" cx="249.5" cy="148.3" r="9.6"/>
</g>
<rect id="position" display="none" fill="none" stroke="#000000" width="500" height="500"/>
</svg>
