<?xml version="1.0" encoding="utf-8"?>
<!-- Generator: Adobe Illustrator 18.0.0, SVG Export Plug-In . SVG Version: 6.00 Build 0)  -->
<!DOCTYPE svg PUBLIC "-//W3C//DTD SVG 1.1//EN" "http://www.w3.org/Graphics/SVG/1.1/DTD/svg11.dtd">
<svg version="1.1" id="content" xmlns="http://www.w3.org/2000/svg" xmlns:xlink="http://www.w3.org/1999/xlink" x="0px" y="0px"
	 width="500px" height="500px" viewBox="0 0 500 500" enable-background="new 0 0 500 500" xml:space="preserve">
<g id="bounds" display="none">
	
		<rect x="134.3" y="3.3" display="inline" fill="none" stroke="#000000" stroke-width="1.2012" stroke-miterlimit="10" width="230.4" height="230.4"/>
</g>
<rect id="position" display="none" fill="none" stroke="#000000" width="500" height="500"/>
<g>
	<path fill="none" stroke="#616161" stroke-width="2" stroke-miterlimit="10" d="M239.2,97.3v-5.8c0-2.2,1.8-4,4-4h13.7
		c2.2,0,4,1.8,4,4v5.8"/>
	<path fill="#0D1E81" d="M230.9,151.1"/>
	<path opacity="0.5" fill="#263238" d="M234.9,111.8c0,19.9-16.2,40.9-34.8,40.9s-36-20.5-36-38.5s17.5-25.4,36-25.4
		S234.9,93.8,234.9,111.8z"/>
	<path fill="#0D1E81" d="M227.8,87.4c-7.6-2.8-13.3-4.9-24.3-4.9c-16.6,0-26.8,5.9-40,8.4c-4.9,0.9-10.3,1.6-10.3,1.6v11.8
		c0,0,4.4,3.3,5,5.5c2.3,9.1,8.1,47,41.4,47c12.4,0,24.9-6,33.3-19.7c10.9-17.9,9.2-33,9.5-43.4C242.4,91.7,233.2,89.4,227.8,87.4z
		 M200.1,151c-17.6,0-34.1-19.4-34.1-36.5c0-17,16.6-24.1,34.1-24.1s33,4.7,33,21.8C233.1,131.1,217.7,151,200.1,151z"/>
	<path opacity="0.5" fill="#263238" d="M265.2,111.8c0,19.9,16.2,40.9,34.8,40.9s36-20.5,36-38.5s-17.5-25.4-36-25.4
		S265.2,93.8,265.2,111.8z"/>
	<path opacity="0.5" fill="#CDD9DD" d="M225.7,107.4c0,10.9-12,3-25.7,3s-26.6,8.2-26.6-1.6s12.9-13.9,26.6-13.9
		S225.7,97.6,225.7,107.4z"/>
	<path opacity="0.5" fill="#CDD9DD" d="M274.4,107.4c0,10.9,12,3,25.7,3c13.7,0,26.6,8.2,26.6-1.6s-12.9-13.9-26.6-13.9
		C286.4,94.9,274.4,97.6,274.4,107.4z"/>
	<path fill="#0D1E81" d="M257.7,93.8c0.3,10.5-1.4,25.5,9.5,43.4c8.4,13.7,20.9,19.7,33.3,19.7c33.3,0,39.1-37.9,41.4-47
		c0.5-2.2,5-5.5,5-5.5V92.6c0,0-5.4-0.7-10.3-1.6c-13.2-2.6-23.4-8.4-40-8.4c-11,0-16.7,2.1-24.3,4.9
		C266.9,89.4,257.7,91.7,257.7,93.8z M267,112.2c0-17,15.4-21.8,33-21.8c17.6,0,34.1,7.1,34.1,24.1c0,17-16.6,36.5-34.1,36.5
		C282.4,151,267,131.1,267,112.2z"/>
	<circle fill="#BEBEBE" cx="341.4" cy="96.7" r="1.7"/>
	<circle fill="#BEBEBE" cx="341.4" cy="102.3" r="1.7"/>
	<circle fill="#BEBEBE" cx="158.7" cy="96.7" r="1.7"/>
	<circle fill="#BEBEBE" cx="158.7" cy="102.3" r="1.7"/>
</g>
</svg>
