<?xml version="1.0" encoding="utf-8"?>
<!-- Generator: Adobe Illustrator 14.0.0, SVG Export Plug-In . SVG Version: 6.00 Build 43363)  -->
<!DOCTYPE svg PUBLIC "-//W3C//DTD SVG 1.1//EN" "http://www.w3.org/Graphics/SVG/1.1/DTD/svg11.dtd">
<svg version="1.1" id="content" xmlns="http://www.w3.org/2000/svg" xmlns:xlink="http://www.w3.org/1999/xlink" x="0px" y="0px"
	 width="500px" height="500px" viewBox="0 0 500 500" enable-background="new 0 0 500 500" xml:space="preserve">
<g id="bounds" display="none">
	
		<rect x="138.355" y="6.865" fill="none" stroke="#000000" stroke-width="1.1595" stroke-miterlimit="10" width="222.408" height="222.409"/>
</g>
<g id="glasses">
	<ellipse opacity="0.8" fill="#2F0F49" enable-background="new    " cx="202.925" cy="118.479" rx="34.873" ry="33.14"/>
	<ellipse opacity="0.8" fill="#2F0F49" enable-background="new    " cx="296.194" cy="118.479" rx="34.873" ry="33.14"/>
	<path opacity="0.3" fill="#F9F9F9" enable-background="new    " d="M195.427,142.613c0,0-21.133-11.59-18.833-30.935
		c2.301-19.344,28.634-20.793,38.944-13.549C181.73,114.635,195.98,143.385,195.427,142.613z"/>
	<path opacity="0.3" fill="#F9F9F9" enable-background="new    " d="M287.357,145.099c0,0-23.502-6.714-18.832-30.934
		c3.688-19.128,28.633-25.524,38.942-18.281C274.73,116.994,287.909,145.872,287.357,145.099z"/>
	<path fill="#262626" d="M303.364,82.335c-23.655-0.767-41.252,15.674-41.252,15.674c-4.294-1.894-9.688-2.136-12.552-2.11
		c-2.862-0.025-8.26,0.217-12.553,2.11c0,0-17.597-16.44-41.252-15.674c-23.363,0.673-37.597,15.962-28.363,44.521
		c8.798,23.799,31.011,26.972,40.386,26.972s31.452-2.209,34.617-34.762c0-7.809,4.468-9.141,7.165-9.235
		c2.696,0.095,7.165,1.427,7.165,9.235c3.165,32.553,25.24,34.762,34.615,34.762c9.376,0,31.589-3.173,40.388-26.972
		C340.959,98.297,326.727,83.008,303.364,82.335z M205.55,147.433c-9.613-0.638-25.508-6.107-31.848-23.209
		c-7.338-18.32,7.229-34.15,22.964-34.15c26.745,0.007,36.063,15.063,37.794,23.286C239.23,138.302,219.394,148.353,205.55,147.433z
		 M325.417,124.224c-6.341,17.102-22.23,22.571-31.849,23.209c-13.843,0.92-33.679-9.131-28.909-34.073
		c1.73-8.225,11.049-23.279,37.793-23.286C318.187,90.073,332.753,105.904,325.417,124.224z"/>
</g>
<rect id="position" x="0.5" y="0.5" display="none" fill="none" stroke="#000000" width="499" height="499"/>
</svg>
