<?xml version="1.0" encoding="utf-8"?>
<!-- Generator: Adobe Illustrator 18.0.0, SVG Export Plug-In . SVG Version: 6.00 Build 0)  -->
<!DOCTYPE svg PUBLIC "-//W3C//DTD SVG 1.1//EN" "http://www.w3.org/Graphics/SVG/1.1/DTD/svg11.dtd">
<svg version="1.1" id="content" xmlns="http://www.w3.org/2000/svg" xmlns:xlink="http://www.w3.org/1999/xlink" x="0px" y="0px"
	 width="500px" height="500px" viewBox="0 0 500 500" enable-background="new 0 0 500 500" xml:space="preserve">
<g id="bounds" display="none">
	
		<rect x="134.3" y="3.3" display="inline" fill="none" stroke="#000000" stroke-width="1.2012" stroke-miterlimit="10" width="230.4" height="230.4"/>
</g>
<rect id="position" display="none" fill="none" stroke="#000000" width="500" height="500"/>
<g>
	<path fill="#42210B" d="M243.7,115.9c0,0,6-0.5,8.2-0.3l0.2-8l-7.7,0.3L243.7,115.9z"/>
	<path fill="#42210B" d="M257,110c-0.8-1.7-0.9-3.4,0.2-3.3c1.3,0.2,3.4,7.6,5,6.9c0.9-0.4-0.3-6.9-1.2-8.7c0.2-1.2,1.3-1,2.7-0.2
		v-7.2c0,0-5,0-10.7-0.1l0,0c-0.1,0.1-0.2,0.2-0.3,0.3c-0.5,0.3-0.9,0.2-1.2-0.3c-2.9,0-5.8,0-8.3,0c0.1,0.8-0.3,1.6-0.8,2.4
		c-0.5,0.9-1.1,1.7-2,2.2c-0.9,0.4-2.2,0.2-2.7-0.6c-0.6-1.1,0.4-2.6-0.4-3.6c-0.1-0.1-0.3-0.2-0.4-0.3c-0.3,0-0.5,0-0.5,0l0.1,20.7
		l2.5-0.9c0.5-0.2,1.1-0.4,1.6-0.5c-0.2-0.2-0.5-0.5-0.7-0.7c-0.6-0.8-1.3-1.6-1.5-2.5c-0.2-1,0.3-2.1,1.3-2.1
		c1.1-0.1,2.3,1.3,3.4,0.9c0.5-0.2,0.7-0.6,0.8-1.2c0.2-1.6,2-2.6,3.5-1.7c0.1,0.1,0.2,0.1,0.3,0.2c0.9,0.7,1.6,1.6,2.4,2.4
		c0.6,0.6,0.8,1.5,0.5,2.3c-0.1,0.2-0.2,0.5-0.3,0.7c-0.1,0.1-0.2,0.2-0.3,0.4c2.6,0,5.2,0.3,7.8,0.9C257,114.5,257.7,111.5,257,110
		z"/>
	<path fill="#42210B" d="M244.1,115.9c0.8-0.1,1.5-0.2,2.3-0.3l0,0C245.6,115.2,244.7,115.4,244.1,115.9z"/>
	<path fill="#42210B" d="M263.7,118.3v-2.2c-0.1,0.7-0.3,1.4-0.5,2L263.7,118.3z"/>
	<path fill="#42210B" d="M250.4,114.4c0.3-0.8,0.1-1.7-0.5-2.3c-0.8-0.8-1.5-1.7-2.4-2.4c-0.1-0.1-0.2-0.2-0.3-0.2
		c-1.4-0.9-3.2,0.1-3.5,1.7c-0.1,0.5-0.3,1-0.8,1.2c-1.1,0.4-2.2-1-3.4-0.9c-0.9,0.1-1.4,1.2-1.3,2.1c0.2,1,0.8,1.8,1.5,2.5
		c0.2,0.2,0.4,0.5,0.7,0.7c1.2-0.4,2.5-0.7,3.7-0.9c0.6-0.5,1.5-0.7,2.2-0.3l0,0c1.1-0.1,2.3-0.2,3.4-0.2c0.1-0.1,0.2-0.2,0.3-0.4
		C250.2,114.8,250.3,114.6,250.4,114.4z"/>
	<path opacity="0.2" fill="#FF5000" enable-background="new    " d="M250.4,114.5c0.3-0.8,0.1-1.7-0.5-2.3c-0.8-0.8-1.5-1.7-2.4-2.4
		c-0.1-0.1-0.2-0.2-0.3-0.2c-1.4-0.9-3.2,0.1-3.5,1.7c-0.1,0.5-0.3,1-0.8,1.2c-1.1,0.4-2.2-1-3.4-0.9c-0.9,0.1-1.4,1.2-1.3,2.1
		c0.2,1,0.8,1.8,1.5,2.5c0.2,0.2,0.4,0.5,0.7,0.7c1.2-0.4,1.9-0.7,3.8-1c0.6-0.5,1.4-0.6,2.1-0.2l0,0c0.8-0.1,2.8-0.2,3.4-0.2
		c0.1-0.1,0.2-0.2,0.3-0.4C250.2,114.9,250.3,114.7,250.4,114.5z"/>
	<path fill="#42210B" d="M260.8,104.9c0.8,1.8,2,8.3,1.2,8.7c-1.6,0.7-3.6-6.7-5-6.9c-1.1-0.1-1,1.6-0.2,3.3c0.7,1.5,0,4.5,0.6,6.2
		c1.2,0.3,2.4,0.6,3.6,1.1l2.1,0.7c0.2-0.6,0.3-1.3,0.5-2v-11.3C262.1,103.9,260.9,103.7,260.8,104.9z"/>
	<path opacity="0.2" fill="#FF5000" enable-background="new    " d="M260.9,105.1c0.8,1.8,2,8.3,1.2,8.7c-1.6,0.7-3.6-6.7-5-6.9
		c-1.1-0.1-1,1.6-0.2,3.3c0.7,1.5,0.3,4.2,0.9,5.9c1.2,0.3,2.1,0.9,3.3,1.4l2.1,0.7c0.2-0.6,0.3-1.3,0.5-2v-11.3
		C262.2,104.1,261,103.9,260.9,105.1z"/>
	<path fill="#42210B" d="M237.8,101.4c0.5,0.9,1.8,1.1,2.7,0.6c0.9-0.4,1.5-1.3,2-2.2c0.4-0.7,0.8-1.6,0.8-2.4c-3,0-5.3,0-6.3,0
		c0.2,0.1,0.3,0.2,0.4,0.3C238.1,98.7,237.2,100.3,237.8,101.4z"/>
	<path opacity="0.35" fill="#FF5000" enable-background="new    " d="M237.4,101.4c0.5,0.9,1.8,1.1,2.7,0.6c0.9-0.4,1.5-1.3,2-2.2
		c0.4-0.7,0.8-1.6,0.8-2.4c-3,0-5.3,0-6.3,0c0.2,0.1,0.3,0.2,0.4,0.3C237.7,98.7,236.8,100.3,237.4,101.4z"/>
	<path fill="#42210B" d="M252.7,97.7c0.1-0.1,0.2-0.2,0.3-0.3l0,0c-0.5,0-1,0-1.6,0C251.8,97.9,252.2,98.1,252.7,97.7z"/>
	<path opacity="0.2" fill="#FF5000" enable-background="new    " d="M252.7,97.7c0.1-0.1,0.2-0.2,0.3-0.3l0,0c-0.5,0-1,0-1.6,0
		C251.8,97.9,252.2,98.1,252.7,97.7z"/>
	<g>
		<g>
			<path opacity="0.8" fill="#1B1B1B" enable-background="new    " d="M205.3,151.1h-12.8c-12.5,0-23.3-8.6-26.2-20.7L153.6,94
				l72.3,3.9c8.2,0,14.2,7.7,12.3,15.6l-4.6,15.2C230.5,141.9,218.8,151.1,205.3,151.1z"/>
			<g>
				<path fill="#42210B" d="M205.5,155.9l-12.8,0.1c-14.8,0.1-27.6-9.9-31.1-24.2l-12.8-36.4c-0.4-1.5,0-3.1,1-4.2
					c1-1.2,2.4-1.8,4-1.8l72.2,3.4c5.3,0,10.5,2.6,13.6,6.6c3.3,4.3,4.6,9.8,3.5,14.9c0,0.1,0,0.2-0.1,0.3l-4.4,15.1
					C234.8,145.1,221.3,155.8,205.5,155.9z M165.6,103.2l5.4,26.2c2.5,10,11.3,16.9,21.6,16.8l12.8-0.1c11.3-0.1,21-7.8,23.6-18.8
					c0-0.1,0-0.2,0.1-0.3l4.4-15.1c0.5-2.3-0.1-4.7-1.5-6.6c-1.5-1.9-3.8-2.6-6.2-2.6C225.7,102.9,165.6,103.2,165.6,103.2z"/>
			</g>
			<g opacity="0.4">
				<path fill="#767676" d="M170.3,115.7l-2.7-10c12.1-0.1,57.8-0.4,57.9-0.4c2.1,0,3.7,0.6,4.6,1.9c1.1,1.4,1.5,3.2,1.2,4.9l-3.3,1
					C209.3,119,189.4,119.9,170.3,115.7L170.3,115.7z"/>
			</g>
			<g>
				<path opacity="0.35" fill="#FF5000" enable-background="new    " d="M157.1,97.9c4.2-3.9,7.2,1.7,9.4-3.1
					c0.8-1.8,0.6-3.4,0.1-4.8l16.5,0.8c0.4,0.9,0.4,1.9-0.2,2.7c-2.5,0.7-5.6,1.9-5.3,3.8c0.4,2.2,4.9,2.9,6,4.9
					c0.1,0.3,0.2,0.5,0.2,0.8c-10.2,0.1-18.3,0.1-18.3,0.1l1,4.9c-3.6,1.2-8.2,2.8-12.1,3.5l-2.9-8.2
					C154.2,101.7,156.8,99.9,157.1,97.9z"/>
				<path opacity="0.2" fill="#FF5000" enable-background="new    " d="M215.7,150.9c-0.5,0.2-0.9,0.4-1.3,0.7
					c-2.5,1.6-5.9,0.6-7.3-2c-0.3-0.5-0.6-1.1-0.8-1.6c-0.2-0.6-0.3-1.2-0.3-1.8c6.1-0.2,11.6-2.5,15.8-6.4c0,0.1,0.1,0.3,0.1,0.4
					c0.2,1.3,0.7,2.4,1.9,2.8c2.5,0.9,5.2-2.4,7.9-2.1c0.6,0.1,1.1,0.3,1.5,0.6c-3.1,4.4-7.2,8-11.9,10.5
					C219.8,150.6,217.7,150.1,215.7,150.9z"/>
				<path opacity="0.2" fill="#FF5000" enable-background="new    " d="M170.8,128.6l0.2,0.8c1.2,4.7,3.7,8.7,7.2,11.6
					c-0.2,2.8-0.1,5,0.6,5.3c1.1,0.5,2.2-0.7,3.4-2.6c2.4,1.3,5.1,2.1,7.9,2.4c0,3.2-0.1,6.4-1.5,8.2c-0.3,0.4-0.7,0.8-1,1.2
					c-4.6-0.7-8.9-2.4-12.7-4.9c-0.6-4.2-0.8-8.5,0.1-11.3c0.5-1.5-1.5-2.6-2.5-1.3c-1.4,1.8-2.9,4-4.4,6.4
					c-1.9-2.2-3.4-4.7-4.6-7.5c2.4-2.9,4.8-5.8,7.2-8.3C170.7,128.7,170.7,128.7,170.8,128.6z"/>
				<path opacity="0.35" fill="#FF5000" enable-background="new    " d="M240.7,107.2c-1.4-0.2-2.7,0-3.6,1.1
					c-1.9,2.3,0.3,5.9-1,8.6c-0.8,1.6-2.8,2.3-4.6,2l2-6.8c0.6-2.4,0-4.9-1.4-6.8c-0.7-1-1.9-1.7-3-2.1c2.1-1,3.6-2.9,3.5-5.4
					c0-0.4,0-0.8-0.1-1.2c-0.1-0.9-0.1-1.7,0.1-2.5c2.7,1.1,5.1,2.8,7.1,5.3c1.7,2.2,3,4.9,3.5,7.6
					C242.3,107.2,241.5,107.3,240.7,107.2z"/>
				<path opacity="0.2" fill="#FF5000" enable-background="new    " d="M212.7,97.7c-0.1,1.8-0.2,3.8-0.8,5.2c-1.1,0-2.2,0-3.4,0
					c-0.9-0.6-1.7-0.6-2.5,0c-2.5,0-5.1,0-7.7,0c-0.1-0.7-0.1-1.4-0.1-2.1c0.1-2.4,0.2-4.9,0.5-7.2c0-0.3,0.1-0.6,0.2-0.9
					c0.1-0.5,0.3-0.9,0.5-1.3l4.4,0.2c0.1,0.1,0.2,0.3,0.3,0.4c0.5,1,1.2,1.7,1.9,1.5c0.6-0.2,0.9-0.9,1.2-1.8l5.2,0.2
					C212.8,94,212.8,95.9,212.7,97.7z"/>
			</g>
		</g>
		<g>
			<path opacity="0.8" fill="#1B1B1B" enable-background="new    " d="M294.7,151.1h12.8c12.5,0,23.3-8.6,26.2-20.7L346.4,94
				l-72.3,3.9c-8.2,0-14.2,7.7-12.3,15.6l4.6,15.2C269.5,141.9,281.2,151.1,294.7,151.1z"/>
			<g>
				<path fill="#42210B" d="M261.6,129.7l-4.4-15.1c0-0.1,0-0.2-0.1-0.3c-1.2-5.3,0-10.7,3.4-14.9c3.3-4.2,8.3-6.6,13.7-6.6
					l72.2-3.4c1.5-0.1,3,0.6,4,1.8c1,1.2,1.3,2.8,1,4.2l-12.8,36.4c-3.5,14.4-16.3,24.3-31.1,24.2l-12.8-0.1
					C278.7,155.8,265.2,145.1,261.6,129.7z M274.2,102.9c-2.4,0-4.7,0.7-6.2,2.6s-2,4.2-1.5,6.6l4.4,15.1c0,0.1,0,0.2,0.1,0.3
					c2.6,11,12.3,18.8,23.6,18.8l12.8,0.1c10.3,0.1,19.2-6.9,21.6-16.8l5.4-26.2C334.4,103.2,274.3,102.9,274.2,102.9z"/>
			</g>
			<g opacity="0.4">
				<path fill="#767676" d="M329.7,115.7l2.7-10c-12.1-0.1-57.8-0.4-57.9-0.4c-2.1,0-3.7,0.6-4.6,1.9c-1.1,1.4-1.5,3.2-1.2,4.9
					l3.3,1C290.7,119,310.6,119.9,329.7,115.7L329.7,115.7z"/>
			</g>
			<g>
				<path opacity="0.35" fill="#FF5000" enable-background="new    " d="M342.9,97.9c-4.2-3.9-7.2,1.7-9.4-3.1
					c-0.8-1.8-0.6-3.4-0.1-4.8l-16.5,0.8c-0.4,0.9-0.4,1.9,0.2,2.7c2.5,0.7,5.6,1.9,5.3,3.8c-0.4,2.2-4.9,2.9-6,4.9
					c-0.1,0.3-0.2,0.5-0.2,0.8c10.2,0.1,18.3,0.1,18.3,0.1l-1,4.9c3.6,1.2,8.2,2.8,12.1,3.5l2.9-8.2
					C345.8,101.7,343.2,99.9,342.9,97.9z"/>
				<path opacity="0.2" fill="#FF5000" enable-background="new    " d="M284.3,150.9c0.5,0.2,0.9,0.4,1.3,0.7c2.5,1.6,5.9,0.6,7.3-2
					c0.3-0.5,0.6-1.1,0.8-1.6c0.2-0.6,0.3-1.2,0.3-1.8c-6.1-0.2-11.6-2.5-15.8-6.4c0,0.1-0.1,0.3-0.1,0.4c-0.2,1.3-0.7,2.4-1.9,2.8
					c-2.5,0.9-5.2-2.4-7.9-2.1c-0.6,0.1-1.1,0.3-1.5,0.6c3.1,4.4,7.2,8,11.9,10.5C280.2,150.6,282.3,150.1,284.3,150.9z"/>
				<path opacity="0.2" fill="#FF5000" enable-background="new    " d="M329.2,128.6l-0.2,0.8c-1.2,4.7-3.7,8.7-7.2,11.6
					c0.2,2.8,0.1,5-0.6,5.3c-1.1,0.5-2.2-0.7-3.4-2.6c-2.4,1.3-5.1,2.1-7.9,2.4c0,3.2,0.1,6.4,1.5,8.2c0.3,0.4,0.7,0.8,1,1.2
					c4.6-0.7,8.9-2.4,12.7-4.9c0.6-4.2,0.8-8.5-0.1-11.3c-0.5-1.5,1.5-2.6,2.5-1.3c1.4,1.8,2.9,4,4.4,6.4c1.9-2.2,3.4-4.7,4.6-7.5
					C334.1,134,331.7,131.1,329.2,128.6C329.3,128.7,329.3,128.7,329.2,128.6z"/>
				<path opacity="0.35" fill="#FF5000" enable-background="new    " d="M259.3,107.2c1.4-0.2,2.7,0,3.6,1.1c1.9,2.3-0.3,5.9,1,8.6
					c0.8,1.6,2.8,2.3,4.6,2l-2-6.9c-0.5-2.3,0.1-4.8,1.5-6.5c0.8-1,1.9-1.7,3-2.1c-2.1-1-3.6-3.1-3.5-5.6c0-0.4,0-0.8,0.1-1.2
					c0.1-0.9,0.1-1.7-0.1-2.5c-2.7,1.1-5.2,2.9-7.1,5.3c-1.8,2.3-3,4.9-3.5,7.6C257.7,107.2,258.5,107.3,259.3,107.2z"/>
				<path opacity="0.2" fill="#FF5000" enable-background="new    " d="M287.3,97.7c0.1,1.8,0.2,3.8,0.8,5.2c1.1,0,2.2,0,3.4,0
					c0.9-0.6,1.7-0.6,2.5,0c2.5,0,5.1,0,7.7,0c0.1-0.7,0.1-1.4,0.1-2.1c-0.1-2.4-0.2-4.9-0.5-7.2c0-0.3-0.1-0.6-0.2-0.9
					c-0.1-0.5-0.3-0.9-0.5-1.3l-4.4,0.2c-0.1,0.1-0.2,0.3-0.3,0.4c-0.5,1-1.2,1.7-1.9,1.5c-0.6-0.2-0.9-0.9-1.2-1.8l-5.2,0.2
					C287.2,94,287.2,95.9,287.3,97.7z"/>
			</g>
		</g>
	</g>
</g>
</svg>
