<?xml version="1.0" encoding="utf-8"?>
<!-- Generator: Adobe Illustrator 18.0.0, SVG Export Plug-In . SVG Version: 6.00 Build 0)  -->
<!DOCTYPE svg PUBLIC "-//W3C//DTD SVG 1.1//EN" "http://www.w3.org/Graphics/SVG/1.1/DTD/svg11.dtd">
<svg version="1.1" id="content" xmlns="http://www.w3.org/2000/svg" xmlns:xlink="http://www.w3.org/1999/xlink" x="0px" y="0px"
	 width="500px" height="500px" viewBox="0 0 500 500" enable-background="new 0 0 500 500" xml:space="preserve">
<g id="bounds" display="none">
	
		<rect x="134.3" y="3.3" display="inline" fill="none" stroke="#000000" stroke-width="1.2012" stroke-miterlimit="10" width="230.4" height="230.4"/>
</g>
<rect id="position" display="none" fill="none" stroke="#000000" width="500" height="500"/>
<g>
	<g>
		<path fill="#1B1B1B" d="M263.3,119.4l-0.2-0.2c-7.7-7-19.4-7.2-27.1-0.2l-3.1-3.6c9.6-8.5,24-8.4,33.5,0.3l0.2,0.2L263.3,119.4z"
			/>
	</g>
	<g>
		<g>
			<path fill="#1B1B1B" d="M172,120h-16.4c-1.6,0-2.9-1.3-2.9-2.9s1.3-2.9,2.9-2.9H172c1.6,0,2.9,1.3,2.9,2.9S173.6,120,172,120z"/>
		</g>
		<g>
			<path fill="#1B1B1B" d="M344.4,120H328c-1.6,0-2.9-1.3-2.9-2.9s1.3-2.9,2.9-2.9h16.4c1.6,0,2.9,1.3,2.9,2.9S346,120,344.4,120z"
				/>
		</g>
	</g>
	<g>
		<g opacity="0.2">
			<path fill="#FAFAFA" d="M234.7,117.1c0,17.3-62.6,17.3-62.6,0s14-31.3,31.3-31.3S234.7,99.8,234.7,117.1z"/>
		</g>
		<g opacity="0.2">
			<path fill="#FAFAFA" d="M326.7,117.7c0,17.4-63.1,17.4-63.1,0s14.1-31.5,31.5-31.5C312.6,86.1,326.7,100.2,326.7,117.7z"/>
		</g>
		<g>
			<path fill="#1B1B1B" d="M203.5,151.3c-18.9,0-34.2-15.3-34.2-34.2s15.3-34.2,34.2-34.2s34.2,15.3,34.2,34.2
				S222.3,151.3,203.5,151.3z M203.5,88.7c-15.6,0-28.4,12.7-28.4,28.4s12.7,28.4,28.4,28.4c15.6,0,28.4-12.7,28.4-28.4
				S219.1,88.7,203.5,88.7z"/>
		</g>
		<g>
			<path fill="#1B1B1B" d="M295.2,152.1c-19,0-34.4-15.5-34.4-34.4s15.5-34.4,34.4-34.4c19,0,34.4,15.5,34.4,34.4
				S314.2,152.1,295.2,152.1z M295.2,89c-15.8,0-28.6,12.8-28.6,28.6s12.8,28.6,28.6,28.6c15.8,0,28.6-12.8,28.6-28.6
				S311,89,295.2,89z"/>
		</g>
		<g>
			<path fill="#424242" d="M234.8,118c-0.5,0-1-0.4-1-1c0-16.7-13.6-30.3-30.3-30.3s-30.3,13.6-30.3,30.3c0,0.5-0.4,1-1,1
				c-0.5,0-1-0.4-1-1c0-17.8,14.5-32.3,32.3-32.3s32.3,14.5,32.3,32.3C235.7,117.6,235.3,118,234.8,118z"/>
		</g>
		<g>
			<path fill="#424242" d="M326.7,118.6c-0.5,0-1-0.4-1-1c0-16.9-13.7-30.6-30.6-30.6s-30.6,13.7-30.6,30.6c0,0.5-0.4,1-1,1
				c-0.5,0-1-0.4-1-1c0-17.9,14.6-32.5,32.5-32.5s32.5,14.6,32.5,32.5C327.7,118.2,327.3,118.6,326.7,118.6z"/>
		</g>
	</g>
</g>
</svg>
