<?xml version="1.0" encoding="utf-8"?>
<!-- Generator: Adobe Illustrator 14.0.0, SVG Export Plug-In . SVG Version: 6.00 Build 43363)  -->
<!DOCTYPE svg PUBLIC "-//W3C//DTD SVG 1.1//EN" "http://www.w3.org/Graphics/SVG/1.1/DTD/svg11.dtd">
<svg version="1.1" id="content" xmlns="http://www.w3.org/2000/svg" xmlns:xlink="http://www.w3.org/1999/xlink" x="0px" y="0px"
	 width="500px" height="500px" viewBox="0 0 500 500" enable-background="new 0 0 500 500" xml:space="preserve">
<g id="bounds" display="none">
	
		<rect x="124.355" y="-8.332" fill="none" stroke="#000000" stroke-width="1.3055" stroke-miterlimit="10" width="250.408" height="250.408"/>
</g>
<g id="glasses">
	<rect x="175.956" y="92.373" opacity="0.2" fill="#00D2E8" enable-background="new    " width="56.707" height="49.738"/>
	<rect x="265.656" y="92.373" opacity="0.2" fill="#00D2E8" enable-background="new    " width="56.707" height="49.738"/>
	<path fill="#010101" d="M339.123,111.749c0,0,0.245-3.198-3.806-3.198h-6.146V93.674c0-3.716-3.021-6.737-6.735-6.737h-54.397
		c-3.713,0-6.732,3.021-6.732,6.737v12.101c-1.104-0.325-6.968-1.939-11.749-1.939s-10.649,1.614-11.749,1.939V93.674
		c0-3.716-3.022-6.737-6.736-6.737h-54.396c-3.715,0-6.736,3.021-6.736,6.737v14.877h-6.149c-4.048,0-3.803,3.198-3.803,3.198v3.499
		c0,0-0.245,3.195,3.803,3.195h2.471c0,0,1.932,0.005,3.68,1.269v20.357c0,3.714,3.021,6.737,6.736,6.737h54.396
		c3.714,0,6.736-3.022,6.736-6.737v-28.502c1.056-0.479,8.405-2.188,11.749-2.188c3.347,0,10.689,1.709,11.749,2.188v28.502
		c0,3.714,3.021,6.737,6.735,6.737h54.396c3.715,0,6.735-3.022,6.735-6.737v-20.357c1.748-1.264,3.681-1.269,3.681-1.269h2.473
		c4.048,0,3.803-3.195,3.803-3.195v-3.499H339.123z M164.614,115.707c-1.082,0-1.974-0.881-1.974-1.974
		c0-1.083,0.894-1.965,1.974-1.965c1.089,0,1.975,0.882,1.975,1.965C166.587,114.826,165.702,115.707,164.614,115.707z
		 M229.382,138.385h-51.028V95.357h51.028V138.385z M320.749,138.385h-51.027V95.357h51.027V138.385z M334.49,115.707
		c-1.092,0-1.977-0.881-1.977-1.974c0-1.083,0.885-1.965,1.977-1.965c1.077,0,1.974,0.882,1.974,1.965
		C336.463,114.825,335.573,115.707,334.49,115.707z"/>
</g>
<path id="position" display="none" d="M499,1v498H1V1H499 M500,0H0v500h500V0L500,0z"/>
</svg>
