<?xml version="1.0" encoding="utf-8"?>
<!-- Generator: Adobe Illustrator 18.0.0, SVG Export Plug-In . SVG Version: 6.00 Build 0)  -->
<!DOCTYPE svg PUBLIC "-//W3C//DTD SVG 1.1//EN" "http://www.w3.org/Graphics/SVG/1.1/DTD/svg11.dtd">
<svg version="1.1" id="content" xmlns="http://www.w3.org/2000/svg" xmlns:xlink="http://www.w3.org/1999/xlink" x="0px" y="0px"
	 width="500px" height="500px" viewBox="0 0 500 500" enable-background="new 0 0 500 500" xml:space="preserve">
<g id="bounds" display="none">
	
		<rect x="136.7" y="6.6" display="inline" fill="none" stroke="#000000" stroke-width="1.1726" stroke-miterlimit="10" width="224.9" height="224.9"/>
</g>
<rect id="position" display="none" fill="none" stroke="#000000" width="500" height="500"/>
<g>
	<path fill="#DDE200" d="M269.4,116.5c-0.1-0.1-7.8-6.3-19.8-6.3c-12.1,0-19.7,6.3-19.8,6.3l-2.6-3.1c0.4-0.3,8.9-7.3,22.4-7.3
		c13.5,0,22,7,22.4,7.3L269.4,116.5z"/>
	<g>
		<path fill="#2B2A29" d="M227.3,119.4c0-12.8-10.5-23.3-23.3-23.3c-12.8,0-23.3,10.5-23.3,23.3h-4c0-15.1,12.2-27.3,27.3-27.3
			c15.1,0,27.3,12.2,27.3,27.3C231.3,119.4,227.3,119.4,227.3,119.4z"/>
		<circle opacity="0.5" fill="#00C2AB" enable-background="new    " cx="204" cy="117.4" r="25.3"/>
		<path opacity="0.3" fill="#FAF9FB" enable-background="new    " d="M178.7,119.5c0,0,30.5-8.7,50.3,1.4
			c-0.3-14.2-6.2-28.5-25.8-28C183.7,93.3,178.5,109,178.7,119.5z"/>
		<path fill="#DDE200" d="M204,144.7c-15.1,0-27.3-12.2-27.3-27.3s12.2-27.3,27.3-27.3c15.1,0,27.3,12.2,27.3,27.3
			S219,144.7,204,144.7z M204,94.1c-12.8,0-23.3,10.5-23.3,23.3s10.5,23.3,23.3,23.3c12.8,0,23.3-10.5,23.3-23.3
			S216.8,94.1,204,94.1z"/>
		<path fill="#F2F200" d="M204,90.1c-15.1,0-27.3,12.2-27.3,27.3c0,1.2,0.1,2.4,0.2,3.5h4c-0.2-1.2-0.3-2.3-0.3-3.5
			c0-12.8,10.5-23.3,23.3-23.3c12.8,0,23.3,10.5,23.3,23.3c0,1.2-0.1,2.4-0.3,3.5h4c0.2-1.2,0.2-2.3,0.2-3.5
			C231.3,102.3,219,90.1,204,90.1z"/>
	</g>
	<g>
		<path fill="#2B2A29" d="M318.5,119.4c0-12.8-10.5-23.3-23.3-23.3c-12.8,0-23.3,10.5-23.3,23.3h-4c0-15.1,12.2-27.3,27.3-27.3
			c15.1,0,27.3,12.2,27.3,27.3C322.5,119.4,318.5,119.4,318.5,119.4z"/>
		<circle opacity="0.5" fill="#00C2AB" enable-background="new    " cx="295.2" cy="117.4" r="25.3"/>
		<path opacity="0.3" fill="#FAF9FB" enable-background="new    " d="M269.9,119.5c0,0,30.5-8.7,50.3,1.4
			c-0.3-14.2-6.2-28.5-25.8-28C275,93.3,269.7,109,269.9,119.5z"/>
		<path fill="#DDE200" d="M295.2,144.7c-15.1,0-27.3-12.2-27.3-27.3s12.2-27.3,27.3-27.3c15.1,0,27.3,12.2,27.3,27.3
			S310.2,144.7,295.2,144.7z M295.2,94.1c-12.8,0-23.3,10.5-23.3,23.3s10.5,23.3,23.3,23.3c12.8,0,23.3-10.5,23.3-23.3
			S308,94.1,295.2,94.1z"/>
		<path fill="#F2F200" d="M295.2,90.1c-15.1,0-27.3,12.2-27.3,27.3c0,1.2,0.1,2.4,0.2,3.5h4c-0.2-1.2-0.3-2.3-0.3-3.5
			c0-12.8,10.5-23.3,23.3-23.3c12.8,0,23.3,10.5,23.3,23.3c0,1.2-0.1,2.4-0.3,3.5h4c0.2-1.2,0.2-2.3,0.2-3.5
			C322.5,102.3,310.2,90.1,295.2,90.1z"/>
	</g>
</g>
</svg>
