<?xml version="1.0" encoding="utf-8"?>
<!-- Generator: Adobe Illustrator 14.0.0, SVG Export Plug-In . SVG Version: 6.00 Build 43363)  -->
<!DOCTYPE svg PUBLIC "-//W3C//DTD SVG 1.1//EN" "http://www.w3.org/Graphics/SVG/1.1/DTD/svg11.dtd">
<svg version="1.1" id="content" xmlns="http://www.w3.org/2000/svg" xmlns:xlink="http://www.w3.org/1999/xlink" x="0px" y="0px"
	 width="500px" height="500px" viewBox="0 0 500 500" enable-background="new 0 0 500 500" xml:space="preserve">
<g id="bounds" display="none">
	
		<rect x="139.152" y="6.879" fill="none" stroke="#000000" stroke-width="1.1512" stroke-miterlimit="10" width="220.815" height="220.817"/>
</g>
<g id="glasses">
	<path fill="#353535" d="M264.921,108.051h-15.362h-15.364c-0.45,0-0.814,0.365-0.814,0.814v0.741c0,0.45,0.365,0.814,0.814,0.814
		h15.364h15.362c0.449,0,0.813-0.365,0.813-0.814v-0.741C265.738,108.415,265.373,108.051,264.921,108.051z"/>
	<circle fill="#B2B2B2" cx="170.2" cy="106.418" r="3.207"/>
	<path fill="#C6C6C6" d="M236.542,127.156c-0.17,0.417-0.646,0.614-1.063,0.443l-2.926-1.2c-0.416-0.172-0.615-0.646-0.444-1.063
		l3.137-7.643c0.17-0.416,0.646-0.615,1.063-0.444l2.926,1.201c0.416,0.17,0.615,0.646,0.444,1.063L236.542,127.156z"/>
	<path opacity="0.2" fill="#FFFFFF" enable-background="new    " d="M163.725,117.282c0,0,0.063,18.492,14.936,21.595
		c14.289,2.845,52.307,4.268,58.062-9.828c5.754-14.095,8.082-28.061-6.272-31.811c-14.354-3.75-48.283-6.015-61.876,2.068
		C164.436,101.765,162.561,107.583,163.725,117.282z"/>
	<path fill="#353535" d="M162.063,106.439c0,1.084,0.878,1.963,1.962,1.963h4.732c1.084,0,1.963-0.879,1.963-1.963l0,0
		c0-1.084-0.879-1.962-1.963-1.962h-4.732C162.941,104.476,162.063,105.355,162.063,106.439L162.063,106.439z"/>
	<path opacity="0.2" fill="#FFFFFF" enable-background="new    " d="M230.448,97.24c-14.354-3.75-48.283-6.015-61.876,2.068
		c-4.138,2.457-6.012,8.275-4.849,17.975c0,0,0.002,0.761,0.131,2c2.123,0.294,47.202,6.389,76.438-1.381
		c0.031-0.031,0.059-0.061,0.089-0.092C242.509,108.13,240.908,99.972,230.448,97.24z"/>
	<circle fill="#B2B2B2" cx="328.916" cy="106.418" r="3.207"/>
	<path fill="#C6C6C6" d="M262.576,127.156c0.17,0.417,0.646,0.614,1.063,0.443l2.926-1.2c0.416-0.172,0.615-0.646,0.441-1.063
		l-3.137-7.643c-0.17-0.416-0.646-0.615-1.063-0.444l-2.928,1.201c-0.416,0.17-0.613,0.646-0.443,1.063L262.576,127.156z"/>
	<path opacity="0.2" fill="#FFFFFF" enable-background="new    " d="M335.393,117.282c0,0-0.063,18.492-14.938,21.595
		c-14.285,2.845-52.307,4.268-58.061-9.828c-5.755-14.095-8.082-28.061,6.271-31.811c14.354-3.75,48.281-6.015,61.877,2.068
		C334.682,101.765,336.557,107.583,335.393,117.282z"/>
	<path fill="#353535" d="M337.055,106.439c0,1.084-0.879,1.963-1.963,1.963h-4.732c-1.084,0-1.963-0.879-1.963-1.963l0,0
		c0-1.084,0.879-1.962,1.963-1.962h4.732C336.176,104.476,337.055,105.355,337.055,106.439L337.055,106.439z"/>
	<path opacity="0.2" fill="#FFFFFF" enable-background="new    " d="M268.667,97.24c14.354-3.75,48.281-6.015,61.877,2.068
		c4.138,2.457,6.013,8.275,4.849,17.975c0,0-0.002,0.761-0.131,2c-2.123,0.294-47.2,6.389-76.437-1.381
		c-0.031-0.031-0.062-0.061-0.093-0.092C256.61,108.13,258.208,99.972,268.667,97.24z"/>
</g>
<rect id="position" x="0" y="0" display="none" fill="none" stroke="#000000" width="500" height="500"/>
</svg>
