<?xml version="1.0" encoding="utf-8"?>
<!-- Generator: Adobe Illustrator 14.0.0, SVG Export Plug-In . SVG Version: 6.00 Build 43363)  -->
<!DOCTYPE svg PUBLIC "-//W3C//DTD SVG 1.1//EN" "http://www.w3.org/Graphics/SVG/1.1/DTD/svg11.dtd">
<svg version="1.1" id="content" xmlns="http://www.w3.org/2000/svg" xmlns:xlink="http://www.w3.org/1999/xlink" x="0px" y="0px"
	 width="500px" height="500px" viewBox="0 0 500 500" enable-background="new 0 0 500 500" xml:space="preserve">
<g id="bounds" display="none">
	
		<rect x="134.375" y="3.338" fill="none" stroke="#000000" stroke-width="1.1996" stroke-miterlimit="10" width="230.107" height="230.109"/>
</g>
<g id="glasses">
	<rect x="165.922" y="98.895" opacity="0.8" fill="#2A00FF" enable-background="new    " width="77.279" height="36.46"/>
	<rect x="256.389" y="98.895" opacity="0.8" fill="#FF0000" enable-background="new    " width="77.277" height="36.46"/>
	<path fill="none" stroke="#FFFFFF" stroke-width="10" d="M248.43,97.769h-82.459c-1.104,0-2,0.896-2,2v37.248c0,1.104,0.896,2,2,2
		h82.459c1.105,0,0-0.896,0-2V99.769C248.43,98.666,249.535,97.769,248.43,97.769z"/>
	<path fill="none" stroke="#FFFFFF" stroke-width="10" d="M332.887,97.769H248.43c-1.104,0,0,0.896,0,2v37.248c0,1.104-1.104,2,0,2
		h84.457c1.105,0,2-0.896,2-2V99.769C334.887,98.666,333.994,97.769,332.887,97.769z"/>
	<rect x="168.903" y="102.59" fill="#3A17BF" width="69.643" height="4.556"/>
	<rect x="259.033" y="102.59" fill="#990000" width="70.881" height="4.556"/>
	<rect x="238.545" y="98.895" fill="#FFFFFF" width="20.488" height="40.122"/>
</g>
<rect id="position" x="0.5" y="0.5" display="none" fill="none" stroke="#000000" stroke-width="1.0021" width="500.023" height="500.023"/>
</svg>
