<?xml version="1.0" encoding="utf-8"?>
<!-- Generator: Adobe Illustrator 13.0.0, SVG Export Plug-In . SVG Version: 6.00 Build 14948)  -->
<!DOCTYPE svg PUBLIC "-//W3C//DTD SVG 1.1//EN" "http://www.w3.org/Graphics/SVG/1.1/DTD/svg11.dtd">
<svg version="1.1" id="content" xmlns="http://www.w3.org/2000/svg" xmlns:xlink="http://www.w3.org/1999/xlink" x="0px" y="0px"
	 width="500px" height="500px" viewBox="0 0 500 500" enable-background="new 0 0 500 500" xml:space="preserve">
<g id="bounds" display="none">
	
		<rect x="134.343" y="3.33" display="inline" fill="none" stroke="#000000" stroke-width="1.2012" stroke-miterlimit="10" width="230.408" height="230.408"/>
</g>
<g id="glasses">
	<path opacity="0.2" fill="#FFFFFF" enable-background="new    " d="M164.237,103.172c0,0,28.476-6.712,50.987-2.238
		c22.214,4.472,23.705,6.11,23.705,6.11s-2.236,24.152-9.095,25.941c-6.857,1.789-50.093,8.39-60.827-4.377
		C166.026,119.866,164.237,103.172,164.237,103.172z"/>
	<path opacity="0.2" fill="#FFFFFF" enable-background="new    " d="M165.902,115.061c0,0,30.984,6.609,70.791,0.488
		c0-7.017,0.59-9.262,0.59-9.262s-12.506-6.799-34.862-6.799S163.045,106,163.045,106L165.902,115.061z"/>
	<path opacity="0.2" fill="#FFFFFF" enable-background="new    " d="M333.242,115.061c0,0-30.982,6.609-70.79,0.488
		c0-7.017-0.591-9.262-0.591-9.262s12.507-6.799,34.861-6.799s39.374,6.511,39.374,6.511L333.242,115.061z"/>
	<path opacity="0.2" fill="#FFFFFF" enable-background="new    " d="M334.918,103.172c0,0-28.479-6.712-50.984-2.238
		c-22.213,4.472-23.703,6.11-23.703,6.11s2.232,24.152,9.094,25.941c6.857,1.789,50.098,8.39,60.826-4.377
		C333.129,119.866,334.918,103.172,334.918,103.172z"/>
	<path fill="#664B16" d="M345.432,103.677l-0.021-0.766l-0.74-0.18c-0.194-0.047-19.77-4.744-35.771-5.229
		c-1.716-0.052-3.493-0.078-5.289-0.078c-15.635,0-29.926,1.854-36.586,3.576c-7.848,2.029-17.381,2.53-17.479,2.535v-0.002
		c-0.095-0.005-9.63-0.506-17.478-2.535c-6.66-1.721-20.95-3.575-36.586-3.575c-1.796,0-3.575,0.026-5.289,0.078
		c-16.002,0.483-35.571,5.182-35.769,5.229l-0.743,0.18l-0.021,0.765c-0.146,5.512,1.415,7.61,5.97,8.024
		c2.485,0.226,3.806,6.287,4.679,10.297c0.188,0.868,0.365,1.684,0.542,2.396l0.11,0.46c1.142,4.8,3.515,14.789,35.801,14.789
		c19.884,0,31.169-2.983,34.5-9.119c1.32-2.436,2.475-5.406,3.591-8.28c1.979-5.102,4.226-10.884,6.762-10.884h3.932v0.002h3.935
		c2.535,0,4.779,5.783,6.762,10.884c1.113,2.875,2.271,5.847,3.592,8.28c3.33,6.136,14.615,9.119,34.5,9.119
		c32.284,0,34.657-9.989,35.802-14.789l0.107-0.46c0.18-0.713,0.354-1.527,0.541-2.396c0.873-4.011,2.19-10.072,4.682-10.297
		C344.017,111.286,345.578,109.186,345.432,103.677z M235.417,115.897c-2.028,9.23-3.923,13.946-9.21,15.772
		c-5.077,1.854-13.67,2.914-23.576,2.914c-10.824,0-20.859-1.271-26.189-3.321c-9.949-3.827-7.663-22.114-7.636-22.325
		c0.021-0.166,0.563-4.063,7.801-5.291c6.92-1.251,14.379-1.888,22.17-1.888c11.843,0,22.03,1.44,28.49,2.648
		C235.16,105.885,236.259,108.727,235.417,115.897z M322.654,131.261c-5.329,2.05-15.365,3.321-26.188,3.321
		c-9.901,0-18.498-1.062-23.571-2.914c-5.287-1.828-7.185-6.542-9.209-15.772c-0.847-7.17,0.258-10.015,8.146-11.489
		c6.459-1.208,16.646-2.647,28.487-2.647c7.791,0,15.25,0.636,22.171,1.887c7.236,1.228,7.78,5.125,7.804,5.291
		C330.317,109.148,332.603,127.434,322.654,131.261z"/>
</g>
<rect id="position" display="none" fill="none" stroke="#000000" width="500" height="500"/>
</svg>
