<?xml version="1.0" encoding="utf-8"?>
<!-- Generator: Adobe Illustrator 18.0.0, SVG Export Plug-In . SVG Version: 6.00 Build 0)  -->
<!DOCTYPE svg PUBLIC "-//W3C//DTD SVG 1.1//EN" "http://www.w3.org/Graphics/SVG/1.1/DTD/svg11.dtd">
<svg version="1.1" id="E" xmlns="http://www.w3.org/2000/svg" xmlns:xlink="http://www.w3.org/1999/xlink" x="0px" y="0px"
	 width="500px" height="500px" viewBox="0 0 500 500" enable-background="new 0 0 500 500" xml:space="preserve">
<rect id="position" x="0.5" y="0.5" display="none" fill="none" stroke="#000000" width="499" height="499"/>
<g id="bounds_1_" display="none">
	<g id="bounds_2_" display="inline">
		
			<rect x="118.2" y="-19" fill="none" stroke="#000000" stroke-width="1.2012" stroke-miterlimit="10" width="269.5" height="269.5"/>
	</g>
</g>
<g>
	<g>
		<path id="SVGID_1_" fill="#231F20" d="M365.3,90.3c-2.6-5.7-42.2-12.2-67-6.2c-17.1,4.1-28.2,14-32.1,26.7
			c-3.6-2.9-8.2-4.6-13.1-4.6c0,0,0,0-0.1,0c-4.9,0-9.6,1.7-13.3,4.5c-4-12.6-15-22.5-32.1-26.6c-24.8-6-64.4,0.5-67,6.2
			s20.4,46.5,50.2,57.1c20.9,7.4,47.5-0.5,50.1-20.5c0.3-2.7,0.4-5.3,0.3-7.8c2.6-3.7,7-5.9,11.8-5.9l0,0c4.8,0,9,2.2,11.6,6.1
			c-0.1,2.5-0.1,5,0.3,7.6c2.6,20,29.3,27.9,50.1,20.5C344.9,136.8,367.9,96,365.3,90.3z M234.2,126.2c-2,16.5-23.6,22-39.8,16
			c-27.5-10.1-35.4-36.8-33.4-41.5c3-7,26.1-12.3,45.3-7.4C224.8,98.1,236.3,109.7,234.2,126.2z M311.5,142.2
			c-16.2,5.9-37.8,0.4-39.8-16c-2-16.5,9.5-28.1,27.9-32.8c19.2-4.9,42.2,0.4,45.3,7.4C346.9,105.4,339,132.2,311.5,142.2z"/>
	</g>
	<circle fill="#E1E1E1" cx="148.7" cy="92.2" r="3.6"/>
	<circle fill="#E1E1E1" cx="158.1" cy="92.7" r="3.6"/>
	<circle fill="#E1E1E1" cx="152.8" cy="100.3" r="3.6"/>
	<circle fill="#E1E1E1" cx="356.6" cy="92.7" r="3.6"/>
	<circle fill="#E1E1E1" cx="347.8" cy="92.7" r="3.6"/>
	<circle fill="#E1E1E1" cx="353.1" cy="100.3" r="3.6"/>
</g>
</svg>
