<?xml version="1.0" encoding="utf-8"?>
<!-- Generator: Adobe Illustrator 16.0.0, SVG Export Plug-In . SVG Version: 6.00 Build 0)  -->
<!DOCTYPE svg PUBLIC "-//W3C//DTD SVG 1.1//EN" "http://www.w3.org/Graphics/SVG/1.1/DTD/svg11.dtd">
<svg version="1.1" id="Layer_6" xmlns="http://www.w3.org/2000/svg" xmlns:xlink="http://www.w3.org/1999/xlink" x="0px" y="0px"
	 width="500px" height="500px" viewBox="0 0 500 500" enable-background="new 0 0 500 500" xml:space="preserve">
<g>
	<g>
		<circle opacity="0.3" fill="#EEFFF5" cx="203.72" cy="121.263" r="33.793"/>
		<circle opacity="0.3" fill="#EEFFF5" cx="294.997" cy="120.808" r="33.793"/>
		<g>
			<polygon fill="#074923" points="225.201,75.196 214.568,59.627 218.862,59.627 211.906,49.44 216.198,49.44 199.026,24.296 
				181.854,49.44 186.147,49.44 179.19,59.627 183.483,59.627 172.852,75.196 197.298,75.196 197.298,83.521 200.756,83.521 
				200.756,75.196 			"/>
			<path fill="#EC1C24" d="M237.627,125.831c0,0-0.005,0.207-0.011,0.605c-0.015,0.398,0,0.988-0.077,1.766
				c-0.115,1.559-0.393,3.846-1.235,6.695c-0.828,2.844-2.271,6.236-4.673,9.74c-2.399,3.492-5.818,7.059-10.35,9.969
				c-2.266,1.445-4.814,2.684-7.578,3.684c-2.767,0.99-5.774,1.633-8.907,1.967c-0.393,0.031-0.788,0.063-1.184,0.094l-0.596,0.043
				l-0.148,0.012c-0.251-0.002-0.108,0-0.182,0l-0.066,0.004l-0.266,0.004c-0.725,0.012-1.365,0.053-2.286,0.006
				c-0.429-0.016-0.861-0.031-1.293-0.049c-0.408-0.033-0.817-0.068-1.229-0.102c-0.826-0.053-1.646-0.191-2.478-0.299
				c-0.827-0.133-1.656-0.289-2.487-0.467c-0.824-0.199-1.658-0.395-2.475-0.656c-1.653-0.475-3.275-1.109-4.886-1.807
				c-0.791-0.377-1.6-0.736-2.375-1.166c-0.389-0.213-0.789-0.41-1.17-0.639l-1.145-0.693c-1.507-0.965-2.985-2.004-4.37-3.182
				c-2.808-2.307-5.313-5.068-7.403-8.154c-2.089-3.086-3.806-6.486-4.958-10.1c-1.14-3.611-1.823-7.396-1.924-11.191l-0.017-0.711
				l-0.007-0.357v-0.236l0.004-0.076l0.005-0.154l0.037-1.221l0.01-0.305l0.023-0.369l0.058-0.76l0.06-0.762l0.032-0.379
				l0.047-0.354c0.213-1.889,0.576-3.756,1.035-5.594c0.953-3.67,2.455-7.174,4.379-10.367c1.895-3.213,4.269-6.092,6.929-8.566
				c1.32-1.252,2.742-2.367,4.186-3.424c0.744-0.496,1.465-1.021,2.237-1.459c0.381-0.225,0.758-0.457,1.144-0.672
				c0.388-0.207,0.778-0.414,1.165-0.621c0.383-0.213,0.783-0.395,1.177-0.582c0.396-0.184,0.786-0.379,1.186-0.549
				c0.806-0.328,1.595-0.68,2.411-0.953c1.606-0.611,3.258-1.039,4.891-1.41c3.285-0.68,6.558-0.965,9.708-0.828l0.489,0.014
				l0.261,0.027l0.521,0.053c0.346,0.037,0.691,0.072,1.035,0.107c0.693,0.074,1.329,0.115,2.173,0.283
				c0.789,0.143,1.571,0.285,2.349,0.428c0.396,0.063,0.746,0.17,1.104,0.271c0.356,0.102,0.712,0.205,1.065,0.307
				c1.423,0.363,2.757,0.924,4.069,1.432c0.664,0.232,1.275,0.58,1.898,0.871c0.616,0.309,1.231,0.594,1.816,0.926
				c2.312,1.377,4.443,2.803,6.228,4.439c0.448,0.402,0.889,0.799,1.326,1.193c0.411,0.418,0.804,0.842,1.193,1.254
				c0.386,0.418,0.779,0.811,1.135,1.229c0.34,0.434,0.672,0.857,1.002,1.277c2.602,3.361,4.198,6.682,5.229,9.453
				c0.221,0.705,0.43,1.373,0.626,2.004c0.097,0.313,0.189,0.615,0.271,0.91c0.063,0.301,0.124,0.592,0.183,0.871
				c0.221,1.121,0.461,2.047,0.509,2.832c0.153,1.543,0.235,2.365,0.235,2.365s-0.311-0.76-0.896-2.184
				c-0.587-1.406-1.59-3.406-3.053-5.756c-1.553-2.303-3.621-4.936-6.439-7.396c-2.801-2.459-6.339-4.74-10.475-6.322
				c-0.518-0.191-1.061-0.34-1.59-0.525c-0.538-0.164-1.057-0.385-1.623-0.49c-1.116-0.254-2.226-0.564-3.4-0.686
				c-0.288-0.041-0.579-0.084-0.871-0.127c-0.289-0.041-0.587-0.105-0.858-0.105c-0.551-0.035-1.106-0.072-1.665-0.109l-0.418-0.031
				c-0.126-0.018-0.298-0.014-0.473-0.01c-0.343,0.004-0.688,0.01-1.034,0.014c-0.347,0.006-0.693,0.01-1.041,0.016l-0.525,0.008
				l-0.261,0.002c0.371,0.01,0.07,0.006,0.138,0.01l-0.058,0.006l-0.115,0.012c-2.451,0.189-4.926,0.615-7.345,1.375
				c-2.4,0.805-4.786,1.805-6.992,3.195c-1.117,0.67-2.159,1.467-3.205,2.26c-1.014,0.84-2.014,1.707-2.925,2.676
				c-0.912,0.963-1.788,1.971-2.563,3.061c-0.417,0.523-0.771,1.094-1.158,1.641c-0.341,0.576-0.721,1.131-1.027,1.729
				c-1.325,2.34-2.259,4.893-2.942,7.504c-0.308,1.314-0.556,2.648-0.692,4l-0.031,0.25l-0.016,0.23l-0.031,0.457l-0.035,0.457
				c-0.005,0.082-0.015,0.139-0.017,0.24l-0.006,0.305l-0.025,1.223l-0.001,0.152l-0.002,0.076c0.003-0.275,0.002-0.039,0.003-0.084
				l0.009,0.256l0.013,0.51c0.105,5.441,1.769,10.789,4.637,15.338c0.724,1.129,1.505,2.225,2.371,3.244
				c0.408,0.531,0.877,1.008,1.315,1.512c0.475,0.467,0.921,0.963,1.42,1.4c1.939,1.82,4.12,3.326,6.393,4.592
				c2.292,1.236,4.715,2.145,7.168,2.785c0.618,0.139,1.229,0.313,1.852,0.408c0.31,0.057,0.619,0.115,0.927,0.172
				c0.288,0.039,0.575,0.078,0.861,0.117c0.513,0.096,1.3,0.131,1.995,0.188l0.267,0.018l0.064,0.006
				c-0.028,0.002,0.16,0.006-0.048,0.004l0.116,0.006l0.463,0.02c0.31,0.012,0.618,0.023,0.924,0.037
				c2.457,0.033,4.861-0.221,7.155-0.697c2.297-0.479,4.47-1.215,6.502-2.098c4.053-1.801,7.46-4.279,10.121-6.896
				c2.667-2.621,4.616-5.355,5.988-7.762c1.374-2.412,2.219-4.486,2.735-5.912c0.271-0.711,0.446-1.285,0.569-1.662
				C237.564,126.028,237.627,125.831,237.627,125.831z"/>
			<path fill="#EC1C24" d="M236.283,121.351c0,0,0.047-0.125,0.145-0.344c0.102-0.213,0.237-0.545,0.44-0.926
				c0.103-0.193,0.192-0.412,0.339-0.639c0.144-0.229,0.313-0.465,0.496-0.727c0.187-0.258,0.396-0.529,0.622-0.818
				c0.108-0.141,0.266-0.201,0.438-0.244c0.168-0.047,0.317-0.137,0.479-0.211c0.634-0.334,1.359-0.604,2.122-0.898
				c0.377-0.162,0.785-0.266,1.195-0.393c0.414-0.113,0.826-0.266,1.265-0.354c0.437-0.094,0.88-0.188,1.33-0.281
				c0.447-0.105,0.912-0.131,1.376-0.199c0.927-0.15,1.881-0.139,2.83-0.189c0.462,0.02,0.927,0.039,1.388,0.057
				c0.227,0.014,0.42,0.006,0.671,0.041c0.243,0.027,0.484,0.059,0.728,0.086c0.475,0.068,0.976,0.1,1.418,0.203
				c0.449,0.096,0.893,0.189,1.331,0.281c0.436,0.088,0.85,0.24,1.263,0.355c0.412,0.125,0.819,0.23,1.196,0.391
				c0.763,0.295,1.487,0.564,2.121,0.898c0.162,0.074,0.313,0.164,0.479,0.215c0.172,0.037,0.32,0.115,0.428,0.262
				c0.214,0.283,0.414,0.549,0.596,0.805c0.178,0.258,0.346,0.488,0.487,0.717c0.145,0.223,0.256,0.457,0.364,0.648
				c0.217,0.387,0.356,0.715,0.46,0.926c0.099,0.215,0.145,0.334,0.145,0.334s-0.129-0.01-0.371-0.027
				c-0.235-0.027-0.588-0.043-1-0.098c-0.411-0.059-0.931-0.074-1.492-0.107c-0.273-0.018-0.564-0.037-0.872-0.057
				c-0.164,0.014-0.291-0.041-0.401-0.143c-0.118-0.088-0.258-0.139-0.391-0.207c-0.533-0.285-1.148-0.508-1.792-0.76
				c-0.316-0.139-0.662-0.223-1.009-0.33c-0.35-0.096-0.696-0.229-1.067-0.301c-0.368-0.078-0.742-0.156-1.122-0.236
				c-0.383-0.092-0.744-0.102-1.121-0.162l-0.563-0.074c-0.18-0.031-0.425-0.025-0.636-0.039c-0.411-0.018-0.824-0.035-1.236-0.053
				c-0.803,0.051-1.614,0.029-2.395,0.162c-0.392,0.061-0.788,0.074-1.164,0.168c-0.379,0.078-0.755,0.158-1.122,0.236
				c-0.371,0.072-0.718,0.205-1.066,0.301c-0.347,0.105-0.693,0.191-1.01,0.33c-0.644,0.25-1.258,0.475-1.791,0.76
				c-0.133,0.068-0.273,0.119-0.388,0.211c-0.112,0.096-0.233,0.168-0.393,0.158c-0.301,0.018-0.581,0.031-0.847,0.047
				c-0.547,0.021-1.075,0.037-1.508,0.107c-0.428,0.061-0.785,0.074-1.021,0.098C236.417,121.349,236.283,121.351,236.283,121.351z"
				/>
			<g>
				<polygon fill="#EC1C24" points="199.026,6.132 202.873,13.927 211.475,15.177 205.25,21.243 206.719,29.81 199.026,25.766 
					191.333,29.81 192.801,21.243 186.579,15.177 195.178,13.927 				"/>
			</g>
			<g>
				<path fill="#EC1C24" d="M234.935,138.659l-2.081-0.895c9.055-21.043-2.322-36.855-2.437-37.012l1.819-1.348
					c0.128,0.172,3.151,4.301,5.008,11.221C238.954,116.995,239.939,127.03,234.935,138.659z"/>
			</g>
			<g>
				<polygon fill="#074923" points="273.518,73.085 284.151,57.515 279.856,57.515 286.813,47.329 282.52,47.329 299.691,22.183 
					316.863,47.329 312.57,47.329 319.527,57.515 315.233,57.515 325.867,73.085 301.421,73.085 301.421,81.409 297.962,81.409 
					297.962,73.085 				"/>
				<path fill="#EC1C24" d="M261.091,123.72c0,0,0.004,0.205,0.012,0.604c0.013,0.4,0,0.99,0.076,1.768
					c0.114,1.557,0.393,3.846,1.235,6.693c0.827,2.846,2.271,6.236,4.673,9.74c2.398,3.492,5.82,7.059,10.35,9.969
					c2.266,1.445,4.814,2.686,7.578,3.684c2.767,0.99,5.773,1.633,8.908,1.969c0.394,0.031,0.786,0.063,1.183,0.092l0.596,0.043
					l0.15,0.012c0.251,0,0.105,0.002,0.179,0.002l0.066,0.002l0.268,0.006c0.724,0.012,1.364,0.051,2.285,0.006
					c0.43-0.018,0.86-0.033,1.293-0.051c0.408-0.033,0.82-0.068,1.229-0.102c0.826-0.053,1.647-0.191,2.478-0.299
					c0.827-0.133,1.659-0.287,2.487-0.467c0.826-0.199,1.658-0.393,2.478-0.654c1.653-0.475,3.272-1.111,4.885-1.809
					c0.79-0.377,1.599-0.734,2.373-1.166c0.39-0.213,0.79-0.41,1.172-0.639l1.145-0.693c1.506-0.963,2.986-2.004,4.371-3.18
					c2.808-2.309,5.313-5.07,7.402-8.156c2.089-3.086,3.806-6.484,4.959-10.098c1.139-3.611,1.821-7.396,1.923-11.193l0.017-0.711
					l0.007-0.355v-0.238l-0.002-0.076l-0.005-0.152l-0.038-1.223l-0.009-0.305l-0.025-0.367l-0.056-0.762l-0.062-0.76l-0.032-0.381
					l-0.045-0.354c-0.214-1.887-0.578-3.754-1.037-5.592c-0.951-3.67-2.454-7.174-4.379-10.367
					c-1.894-3.215-4.268-6.094-6.928-8.568c-1.318-1.252-2.742-2.367-4.184-3.422c-0.745-0.498-1.466-1.021-2.24-1.459
					c-0.38-0.227-0.757-0.459-1.141-0.674c-0.39-0.207-0.778-0.414-1.166-0.621c-0.385-0.213-0.782-0.395-1.179-0.582
					c-0.396-0.184-0.786-0.377-1.186-0.549c-0.805-0.328-1.595-0.68-2.41-0.953c-1.606-0.611-3.258-1.039-4.892-1.41
					c-3.282-0.68-6.558-0.965-9.706-0.826l-0.491,0.014l-0.261,0.025l-0.52,0.055c-0.346,0.035-0.692,0.07-1.035,0.105
					c-0.693,0.074-1.33,0.115-2.175,0.283c-0.788,0.143-1.57,0.285-2.349,0.428c-0.396,0.063-0.746,0.172-1.104,0.271
					c-0.356,0.104-0.713,0.205-1.065,0.309c-1.424,0.363-2.757,0.922-4.069,1.43c-0.661,0.232-1.274,0.58-1.897,0.873
					c-0.615,0.307-1.231,0.592-1.815,0.926c-2.313,1.377-4.442,2.801-6.229,4.438c-0.447,0.404-0.889,0.801-1.325,1.191
					c-0.411,0.42-0.804,0.846-1.193,1.258c-0.385,0.416-0.78,0.811-1.136,1.229c-0.34,0.432-0.673,0.857-1.001,1.275
					c-2.602,3.361-4.2,6.682-5.23,9.453c-0.22,0.707-0.43,1.375-0.626,2.004c-0.097,0.314-0.189,0.615-0.27,0.91
					c-0.063,0.301-0.124,0.592-0.184,0.871c-0.222,1.123-0.462,2.047-0.511,2.834c-0.152,1.541-0.234,2.363-0.234,2.363
					s0.312-0.76,0.896-2.184c0.588-1.406,1.59-3.404,3.054-5.756c1.553-2.301,3.62-4.936,6.438-7.395
					c2.802-2.461,6.34-4.742,10.476-6.322c0.518-0.195,1.06-0.342,1.589-0.527c0.538-0.164,1.06-0.383,1.624-0.49
					c1.114-0.254,2.226-0.564,3.399-0.686c0.289-0.041,0.579-0.084,0.872-0.127c0.29-0.041,0.586-0.104,0.857-0.105
					c0.551-0.035,1.106-0.072,1.667-0.109l0.416-0.031c0.126-0.016,0.297-0.014,0.473-0.01c0.345,0.006,0.689,0.01,1.034,0.016
					c0.346,0.004,0.691,0.008,1.042,0.014l0.522,0.008l0.262,0.004c-0.372,0.01-0.07,0.006-0.139,0.01l0.058,0.004l0.115,0.012
					c2.451,0.189,4.927,0.615,7.345,1.377c2.401,0.805,4.786,1.803,6.992,3.193c1.117,0.67,2.16,1.467,3.206,2.26
					c1.013,0.84,2.016,1.707,2.924,2.676c0.912,0.965,1.79,1.973,2.563,3.063c0.418,0.521,0.771,1.092,1.157,1.639
					c0.342,0.576,0.721,1.131,1.029,1.729c1.325,2.342,2.259,4.893,2.939,7.504c0.309,1.316,0.556,2.65,0.694,4l0.03,0.252
					l0.015,0.229l0.032,0.457l0.034,0.457c0.007,0.082,0.016,0.141,0.018,0.242l0.006,0.305l0.025,1.221l0.003,0.154l0.002,0.076
					c-0.005-0.277-0.003-0.041-0.005-0.086l-0.009,0.256l-0.013,0.51c-0.104,5.441-1.769,10.791-4.637,15.338
					c-0.724,1.131-1.505,2.227-2.37,3.244c-0.408,0.533-0.878,1.008-1.314,1.512c-0.476,0.467-0.922,0.965-1.422,1.402
					c-1.938,1.818-4.119,3.326-6.393,4.59c-2.291,1.236-4.715,2.145-7.167,2.787c-0.619,0.137-1.229,0.311-1.851,0.406
					c-0.312,0.059-0.619,0.115-0.93,0.172c-0.287,0.039-0.574,0.078-0.859,0.117c-0.512,0.096-1.301,0.133-1.994,0.188l-0.266,0.02
					l-0.066,0.006c0.028,0-0.159,0.004,0.049,0.002l-0.117,0.006l-0.463,0.02c-0.308,0.012-0.616,0.023-0.924,0.037
					c-2.457,0.033-4.861-0.221-7.155-0.695c-2.296-0.48-4.471-1.217-6.503-2.098c-4.05-1.801-7.459-4.281-10.12-6.898
					c-2.665-2.619-4.616-5.355-5.987-7.762c-1.374-2.412-2.22-4.486-2.736-5.912c-0.27-0.711-0.444-1.283-0.567-1.662
					S261.091,123.72,261.091,123.72z"/>
				<g>
					<polygon fill="#EC1C24" points="299.691,4.019 295.844,11.813 287.244,13.064 293.467,19.131 291.998,27.698 299.691,23.653 
						307.385,27.698 305.916,19.131 312.141,13.064 303.539,11.813 					"/>
				</g>
				<g>
					<path fill="#EC1C24" d="M263.782,136.548c-5.004-11.631-4.017-21.664-2.31-28.035c1.856-6.918,4.88-11.049,5.009-11.221
						l1.819,1.348c-0.162,0.221-11.474,16.012-2.438,37.012L263.782,136.548z M268.301,98.64l-0.911-0.674L268.301,98.64
						L268.301,98.64L268.301,98.64z"/>
				</g>
			</g>
			<path fill="#FF4A57" d="M296.863,81.409c0,0,0.277-0.008,0.801-0.018c0.261-0.006,0.582-0.014,0.962-0.023
				c0.378-0.002,0.814,0.023,1.306,0.041c0.49,0.008,1.031,0.053,1.619,0.109c0.297,0.027,0.603,0.057,0.921,0.088
				c0.316,0.047,0.643,0.096,0.982,0.145c1.356,0.186,2.871,0.523,4.501,0.982c1.624,0.479,3.354,1.109,5.117,1.936
				c1.764,0.826,3.559,1.85,5.298,3.078c1.738,1.23,3.451,2.631,5.016,4.238c1.57,1.6,3.024,3.365,4.3,5.254
				c1.261,1.9,2.343,3.916,3.224,5.977c0.893,2.059,1.531,4.18,2.003,6.256c0.241,1.039,0.411,2.072,0.558,3.086
				c0.106,1.02,0.218,2.014,0.248,2.988c0.014,0.242,0.025,0.482,0.037,0.723c0.001,0.24,0.003,0.479,0.003,0.715
				c-0.003,0.479,0.014,0.926-0.009,1.406c-0.051,0.896-0.091,1.764-0.196,2.617c-0.073,0.852-0.216,1.648-0.332,2.408
				c-0.152,0.756-0.295,1.471-0.458,2.137c-0.326,1.33-0.692,2.465-1.022,3.387c-0.175,0.457-0.33,0.865-0.465,1.221
				c-0.151,0.348-0.281,0.645-0.386,0.883c-0.212,0.479-0.323,0.734-0.323,0.734s0.08-0.268,0.229-0.768
				c0.075-0.25,0.167-0.559,0.275-0.92c0.093-0.365,0.202-0.785,0.323-1.256c0.232-0.941,0.471-2.092,0.687-3.418
				c0.2-1.326,0.375-2.84,0.433-4.473c0.049-0.809,0.032-1.682,0.021-2.582c-0.02-0.438-0.041-0.883-0.062-1.336
				c-0.012-0.227-0.024-0.457-0.036-0.688c-0.021-0.232-0.045-0.463-0.07-0.697c-0.164-1.869-0.504-3.822-1.007-5.799
				c-0.498-1.979-1.205-3.969-2.056-5.928c-0.857-1.957-1.91-3.865-3.123-5.664c-1.197-1.811-2.567-3.506-4.051-5.047
				c-1.485-1.537-3.055-2.949-4.694-4.166c-1.64-1.211-3.305-2.287-4.966-3.16c-1.667-0.865-3.295-1.588-4.838-2.158
				c-1.553-0.537-3-0.994-4.311-1.289c-0.328-0.078-0.645-0.152-0.951-0.225c-0.308-0.057-0.605-0.113-0.892-0.168
				c-0.572-0.115-1.101-0.213-1.58-0.271c-0.481-0.066-0.909-0.127-1.281-0.18c-0.378-0.039-0.697-0.07-0.958-0.098
				C297.139,81.437,296.863,81.409,296.863,81.409z"/>
			<path fill="#FF4A57" d="M201.231,83.521c0,0,0.278-0.006,0.801-0.018c0.26-0.006,0.583-0.014,0.96-0.021
				c0.38-0.002,0.816,0.021,1.307,0.039c0.491,0.01,1.032,0.053,1.62,0.111c0.295,0.027,0.601,0.057,0.919,0.086
				c0.317,0.047,0.645,0.096,0.982,0.146c1.358,0.186,2.872,0.523,4.501,0.98c1.624,0.48,3.354,1.109,5.119,1.938
				c1.763,0.826,3.556,1.85,5.296,3.078s3.453,2.631,5.018,4.238c1.568,1.6,3.023,3.365,4.298,5.254
				c1.262,1.898,2.342,3.916,3.225,5.977c0.893,2.057,1.531,4.18,2.002,6.256c0.24,1.037,0.411,2.072,0.558,3.084
				c0.104,1.02,0.218,2.016,0.249,2.988c0.012,0.244,0.024,0.486,0.036,0.725c0.002,0.24,0.002,0.479,0.004,0.715
				c-0.004,0.477,0.011,0.926-0.011,1.406c-0.05,0.896-0.09,1.762-0.195,2.617c-0.073,0.852-0.216,1.646-0.334,2.408
				c-0.149,0.756-0.293,1.471-0.458,2.135c-0.324,1.332-0.692,2.467-1.022,3.389c-0.173,0.457-0.328,0.865-0.462,1.219
				c-0.152,0.35-0.283,0.645-0.386,0.885c-0.212,0.479-0.325,0.732-0.325,0.732s0.08-0.268,0.231-0.766
				c0.075-0.25,0.167-0.559,0.274-0.92c0.093-0.365,0.201-0.785,0.323-1.256c0.233-0.941,0.47-2.092,0.688-3.418
				c0.198-1.328,0.373-2.84,0.433-4.475c0.047-0.807,0.031-1.68,0.021-2.58c-0.021-0.438-0.041-0.885-0.063-1.336
				c-0.012-0.229-0.022-0.457-0.034-0.688c-0.023-0.23-0.047-0.463-0.07-0.697c-0.165-1.869-0.504-3.822-1.007-5.799
				c-0.498-1.98-1.207-3.969-2.057-5.93c-0.857-1.955-1.909-3.865-3.123-5.664c-1.198-1.809-2.568-3.504-4.05-5.045
				c-1.485-1.537-3.056-2.949-4.695-4.166c-1.642-1.211-3.304-2.287-4.966-3.162c-1.666-0.863-3.295-1.586-4.838-2.158
				c-1.553-0.537-3-0.992-4.312-1.287c-0.326-0.078-0.644-0.152-0.949-0.225c-0.31-0.059-0.607-0.115-0.892-0.168
				c-0.573-0.115-1.101-0.213-1.58-0.271c-0.481-0.066-0.91-0.129-1.283-0.18c-0.376-0.039-0.698-0.07-0.958-0.098
				C201.508,83.548,201.231,83.521,201.231,83.521z"/>
		</g>
	</g>
	<g>
		<circle fill="#EEFFF5" cx="190.757" cy="46.785" r="1.813"/>
		<circle fill="#EEFFF5" cx="198.743" cy="38.8" r="1.813"/>
		<circle fill="#EEFFF5" cx="209.794" cy="49.852" r="1.812"/>
		<circle fill="#EEFFF5" cx="199.027" cy="49.852" r="1.812"/>
		<circle fill="#EEFFF5" cx="189.239" cy="59.639" r="1.813"/>
		<circle fill="#EEFFF5" cx="203.721" cy="59.639" r="1.812"/>
		<circle fill="#EEFFF5" cx="198.559" cy="64.802" r="1.812"/>
		<circle fill="#EEFFF5" cx="182.375" cy="67.772" r="1.812"/>
		<circle fill="#EEFFF5" cx="192.569" cy="41.218" r="0.607"/>
		<circle fill="#EEFFF5" cx="205.533" cy="54.515" r="0.606"/>
		<circle fill="#EEFFF5" cx="211.474" cy="64.38" r="0.607"/>
		<circle fill="#EEFFF5" cx="193.782" cy="57.22" r="0.607"/>
		<circle fill="#EEFFF5" cx="204.927" cy="67.772" r="0.607"/>
		<circle fill="#EEFFF5" cx="193.782" cy="70.19" r="0.607"/>
	</g>
	<g>
		<circle fill="#EEFFF5" cx="307.935" cy="43.776" r="1.813"/>
		<circle fill="#EEFFF5" cx="299.949" cy="35.79" r="1.812"/>
		<circle fill="#EEFFF5" cx="288.898" cy="46.842" r="1.812"/>
		<circle fill="#EEFFF5" cx="299.666" cy="46.842" r="1.812"/>
		<circle fill="#EEFFF5" cx="309.455" cy="56.628" r="1.812"/>
		<circle fill="#EEFFF5" cx="294.97" cy="56.628" r="1.812"/>
		<circle fill="#EEFFF5" cx="300.133" cy="61.792" r="1.812"/>
		<circle fill="#EEFFF5" cx="316.317" cy="64.763" r="1.812"/>
		<circle fill="#EEFFF5" cx="306.123" cy="38.208" r="0.606"/>
		<circle fill="#EEFFF5" cx="293.159" cy="51.505" r="0.606"/>
		<circle fill="#EEFFF5" cx="287.218" cy="61.369" r="0.607"/>
		<circle fill="#EEFFF5" cx="304.91" cy="54.21" r="0.606"/>
		<circle fill="#EEFFF5" cx="293.765" cy="64.763" r="0.607"/>
		<circle fill="#EEFFF5" cx="304.91" cy="67.181" r="0.606"/>
	</g>
</g>
</svg>
