<?xml version="1.0" encoding="utf-8"?>
<!-- Generator: Adobe Illustrator 16.0.0, SVG Export Plug-In . SVG Version: 6.00 Build 0)  -->
<!DOCTYPE svg PUBLIC "-//W3C//DTD SVG 1.1//EN" "http://www.w3.org/Graphics/SVG/1.1/DTD/svg11.dtd">
<svg version="1.1" id="B" xmlns="http://www.w3.org/2000/svg" xmlns:xlink="http://www.w3.org/1999/xlink" x="0px" y="0px"
	 width="500px" height="500px" viewBox="0 0 500 500" enable-background="new 0 0 500 500" xml:space="preserve">
<g>
	<g>
		<g>
			<path fill="#0A783D" d="M238.412,126.871c0,0,0.035-2.344-2.405-4.516c0,0-10.049-9.641-10.049-17.083l0.073-0.033
				c0.988,0.84,2.27,1.346,3.672,1.346c3.124,0,5.656-2.515,5.656-5.618c0-2.186-1.259-4.083-3.097-5.01
				c0,0-14.679-6.296-18.644-15.196l0.064-0.033c0.99,0.838,2.272,1.346,3.674,1.346c3.125,0,5.655-2.515,5.655-5.619
				c0-2.187-1.259-4.082-3.097-5.009c0,0-4.615-1.982-9.37-5.292l-9.953-0.426c-4.753,3.31-9.37,5.291-9.37,5.291
				c-1.836,0.928-3.097,2.823-3.097,5.011c0,3.102,2.532,5.617,5.657,5.617c1.4,0,2.684-0.507,3.672-1.346l0.066,0.033
				c-3.967,8.9-18.645,15.198-18.645,15.198c-1.838,0.928-3.096,2.822-3.096,5.01c0,3.103,2.531,5.618,5.654,5.618
				c1.402,0,2.684-0.506,3.674-1.346l0.072,0.032c0,7.442-26.292,14.3-26.292,14.3c2.644,4.23,31.286,43.625,80.515,11.383
				c0,0,4.296-3.659,11.235-3.659v-2.476C250.64,124.396,246.344,123.31,238.412,126.871z M203.969,135.864
				c-10.447,0-18.918-8.413-18.918-18.79c0-10.379,8.471-18.792,18.918-18.792c10.449,0,18.918,8.413,18.918,18.792
				C222.887,127.451,214.418,135.864,203.969,135.864z"/>
			<g>
				<polygon fill="#EC1C24" points="206.374,47.651 202.663,55.124 194.36,56.322 200.367,62.139 198.949,70.353 206.374,66.475 
					213.801,70.353 212.383,62.139 218.391,56.322 210.089,55.124 				"/>
			</g>
		</g>
		<g>
			<path fill="#0A783D" d="M249.358,124.396v2.476c6.939,0,11.236,3.659,11.236,3.659c49.228,32.242,77.871-7.153,80.515-11.383
				c0,0-26.293-6.858-26.293-14.3l0.072-0.032c0.988,0.84,2.272,1.346,3.673,1.346c3.124,0,5.655-2.515,5.655-5.618
				c0-2.188-1.259-4.083-3.095-5.01c0,0-14.678-6.298-18.646-15.198l0.067-0.033c0.989,0.838,2.272,1.346,3.674,1.346
				c3.122,0,5.654-2.515,5.654-5.617c0-2.188-1.258-4.083-3.096-5.011c0,0-4.618-1.98-9.372-5.291l-9.951,0.426
				c-4.754,3.31-9.371,5.292-9.371,5.292c-1.837,0.928-3.096,2.823-3.096,5.009c0,3.104,2.531,5.619,5.655,5.619
				c1.401,0,2.684-0.507,3.672-1.346l0.065,0.033c-3.965,8.9-18.643,15.196-18.643,15.196c-1.838,0.928-3.096,2.824-3.096,5.01
				c0,3.103,2.53,5.618,5.656,5.618c1.4,0,2.684-0.506,3.671-1.346l0.073,0.033c0,7.442-10.048,17.083-10.048,17.083
				c-2.443,2.171-2.405,4.516-2.405,4.516C253.654,123.31,249.358,124.396,249.358,124.396z M277.111,117.074
				c0-10.379,8.47-18.792,18.918-18.792c10.447,0,18.918,8.413,18.918,18.792c0,10.377-8.471,18.79-18.918,18.79
				C285.581,135.864,277.111,127.451,277.111,117.074z"/>
			<g>
				<polygon fill="#EC1C24" points="293.623,47.651 297.334,55.124 305.638,56.322 299.63,62.139 301.047,70.353 293.623,66.475 
					286.197,70.353 287.614,62.139 281.607,56.322 289.909,55.124 				"/>
			</g>
		</g>
	</g>
	<g>
		<path fill="#1FA358" d="M214.666,80.445c0,0,0.254-0.05,0.696-0.11c0.204-0.061,0.452-0.134,0.735-0.218
			c0.319-0.063,0.544-0.276,0.841-0.39c0.142-0.07,0.277-0.203,0.421-0.302c0.141-0.108,0.3-0.194,0.419-0.344
			c0.128-0.132,0.258-0.268,0.392-0.407c0.101-0.167,0.218-0.32,0.332-0.478c0.129-0.147,0.172-0.354,0.268-0.526
			c0.098-0.174,0.149-0.367,0.198-0.562c0.147-0.366,0.136-0.816,0.167-1.17l-0.01-0.373l-0.033-0.285
			c-0.026-0.184-0.064-0.402-0.127-0.585c-0.117-0.381-0.258-0.742-0.477-1.03c-0.085-0.153-0.254-0.281-0.324-0.389
			c-0.17-0.148-0.337-0.293-0.499-0.435c-0.328-0.24-0.592-0.452-0.899-0.657c-0.313-0.188-0.592-0.38-0.846-0.548
			c-0.262-0.152-0.486-0.301-0.673-0.421c-0.372-0.244-0.581-0.399-0.581-0.399s0.256,0.021,0.7,0.084
			c0.445,0.058,1.073,0.172,1.818,0.406c0.366,0.111,0.812,0.299,1.212,0.504c0.187,0.106,0.378,0.216,0.574,0.328
			c0.266,0.186,0.465,0.344,0.658,0.567c0.389,0.42,0.716,0.926,0.89,1.48c0.103,0.278,0.165,0.548,0.22,0.851l0.064,0.454
			l0.022,0.373c-0.046,0.634-0.083,1.196-0.304,1.748l-0.141,0.409c-0.061,0.129-0.143,0.248-0.214,0.37
			c-0.159,0.234-0.269,0.495-0.466,0.687c-0.185,0.201-0.36,0.401-0.547,0.58c-0.207,0.157-0.42,0.296-0.621,0.434
			c-0.4,0.279-0.851,0.411-1.246,0.542c-0.424,0.07-0.83,0.178-1.125,0.128c-0.32-0.024-0.545-0.039-0.828-0.089
			C214.908,80.536,214.666,80.445,214.666,80.445z"/>
	</g>
	<g>
		<path fill="#1FA358" d="M219.983,90.197c0.884,0.412,1.737,0.873,2.607,1.302c0.86,0.447,1.714,0.9,2.566,1.353l1.275,0.684
			c0.425,0.227,0.838,0.482,1.267,0.692c0.854,0.425,1.697,0.87,2.537,1.318l-0.121-0.043c0.373,0.097,0.674,0.208,0.995,0.346
			c0.317,0.13,0.622,0.294,0.915,0.478c0.293,0.184,0.581,0.383,0.843,0.621c0.135,0.113,0.266,0.231,0.384,0.368
			c0.118,0.134,0.25,0.253,0.35,0.407c0.228,0.282,0.403,0.601,0.555,0.933c0.076,0.165,0.121,0.344,0.18,0.515
			c0.064,0.171,0.095,0.349,0.119,0.528c0.021,0.178,0.066,0.356,0.063,0.533l-0.005,0.531c-0.006,0.353-0.105,0.688-0.158,1.028
			l0.009-0.051c-0.069,0.356-0.165,0.62-0.295,0.901c-0.108,0.284-0.28,0.531-0.443,0.779c-0.146,0.262-0.386,0.449-0.575,0.672
			c-0.104,0.103-0.191,0.223-0.317,0.3l-0.353,0.256l-0.356,0.244c-0.112,0.091-0.256,0.128-0.384,0.189l-0.779,0.332
			c-0.257,0.108-0.543,0.132-0.811,0.2l-0.813,0.147l0.752-0.333c0.246-0.113,0.51-0.18,0.733-0.327l0.665-0.436
			c0.106-0.077,0.229-0.128,0.314-0.231l0.276-0.274l0.28-0.262c0.102-0.079,0.161-0.196,0.238-0.295
			c0.136-0.214,0.324-0.39,0.412-0.627c0.104-0.227,0.238-0.436,0.298-0.674c0.085-0.22,0.141-0.484,0.16-0.666l0.009-0.051
			c0.014-0.287,0.066-0.574,0.055-0.853l-0.019-0.417c-0.003-0.139-0.052-0.269-0.073-0.402c-0.023-0.134-0.051-0.267-0.109-0.389
			c-0.054-0.124-0.088-0.254-0.152-0.372c-0.131-0.235-0.266-0.464-0.439-0.675c-0.072-0.114-0.182-0.204-0.273-0.305
			c-0.09-0.103-0.195-0.193-0.305-0.281c-0.209-0.184-0.447-0.342-0.69-0.489c-0.244-0.146-0.502-0.277-0.765-0.395
			c-0.256-0.118-0.55-0.228-0.787-0.294l-0.086-0.024l-0.035-0.019c-0.86-0.472-1.719-0.949-2.564-1.445
			c-0.842-0.497-1.643-1.042-2.454-1.576c-0.814-0.528-1.604-1.094-2.386-1.671C221.518,91.389,220.73,90.825,219.983,90.197z"/>
	</g>
	<g>
		<path fill="#1FA358" d="M303.697,79.985c0,0,0.254-0.05,0.696-0.111c0.204-0.061,0.452-0.134,0.736-0.219
			c0.319-0.062,0.544-0.276,0.841-0.389c0.142-0.069,0.277-0.203,0.421-0.302c0.141-0.108,0.301-0.194,0.42-0.344
			c0.127-0.132,0.258-0.268,0.392-0.407c0.101-0.167,0.218-0.32,0.332-0.478c0.13-0.147,0.173-0.354,0.268-0.526
			c0.098-0.174,0.15-0.367,0.199-0.562c0.147-0.366,0.135-0.816,0.167-1.17l-0.01-0.374l-0.033-0.285
			c-0.026-0.185-0.064-0.402-0.127-0.585c-0.117-0.381-0.258-0.743-0.478-1.031c-0.085-0.153-0.254-0.281-0.325-0.388
			c-0.17-0.148-0.337-0.294-0.499-0.435c-0.328-0.24-0.592-0.452-0.899-0.658c-0.313-0.187-0.592-0.38-0.846-0.547
			c-0.263-0.152-0.487-0.301-0.674-0.421c-0.372-0.244-0.581-0.399-0.581-0.399s0.257,0.021,0.7,0.084
			c0.445,0.058,1.073,0.172,1.818,0.406c0.367,0.112,0.812,0.299,1.212,0.504c0.188,0.106,0.379,0.216,0.575,0.328
			c0.266,0.186,0.466,0.344,0.659,0.567c0.389,0.42,0.716,0.925,0.891,1.48c0.102,0.278,0.164,0.548,0.22,0.851l0.063,0.454
			l0.023,0.373c-0.046,0.634-0.082,1.196-0.304,1.749l-0.141,0.409c-0.062,0.129-0.144,0.248-0.215,0.37
			c-0.159,0.234-0.269,0.495-0.466,0.687c-0.185,0.201-0.361,0.401-0.548,0.58c-0.208,0.156-0.42,0.296-0.621,0.434
			c-0.4,0.278-0.851,0.411-1.246,0.541c-0.425,0.07-0.83,0.178-1.125,0.128c-0.32-0.024-0.546-0.039-0.828-0.089
			C303.939,80.076,303.697,79.985,303.697,79.985z"/>
	</g>
	<g>
		<path fill="#1FA358" d="M309.018,89.735c0.884,0.412,1.736,0.873,2.606,1.302c0.859,0.446,1.713,0.9,2.566,1.353l1.275,0.684
			c0.424,0.227,0.837,0.482,1.266,0.692c0.854,0.424,1.696,0.87,2.536,1.318l-0.12-0.043c0.373,0.098,0.674,0.208,0.995,0.347
			c0.318,0.13,0.622,0.294,0.916,0.478c0.293,0.184,0.58,0.383,0.843,0.622c0.135,0.113,0.266,0.231,0.384,0.368
			c0.118,0.134,0.25,0.253,0.35,0.407c0.228,0.282,0.403,0.601,0.556,0.933c0.076,0.165,0.12,0.344,0.179,0.515
			c0.065,0.171,0.095,0.349,0.119,0.528c0.021,0.178,0.067,0.356,0.063,0.534l-0.004,0.531c-0.006,0.353-0.106,0.688-0.157,1.028
			l0.008-0.05c-0.07,0.356-0.165,0.619-0.296,0.9c-0.108,0.284-0.28,0.531-0.443,0.78c-0.145,0.261-0.386,0.449-0.575,0.671
			c-0.104,0.103-0.19,0.224-0.316,0.301l-0.353,0.256l-0.356,0.244c-0.112,0.091-0.256,0.128-0.384,0.19l-0.779,0.331
			c-0.257,0.109-0.543,0.133-0.811,0.201l-0.812,0.147l0.752-0.333c0.245-0.113,0.509-0.179,0.732-0.327l0.665-0.436
			c0.106-0.077,0.229-0.129,0.314-0.231l0.276-0.274l0.279-0.262c0.103-0.079,0.162-0.196,0.239-0.295
			c0.135-0.214,0.323-0.389,0.412-0.626c0.103-0.227,0.237-0.436,0.298-0.674c0.085-0.219,0.141-0.484,0.16-0.665l0.008-0.051
			c0.015-0.287,0.068-0.574,0.056-0.853l-0.019-0.417c-0.003-0.139-0.052-0.268-0.073-0.402c-0.024-0.134-0.052-0.267-0.11-0.389
			c-0.054-0.124-0.088-0.254-0.152-0.372c-0.131-0.235-0.267-0.465-0.439-0.676c-0.073-0.114-0.183-0.204-0.273-0.305
			c-0.091-0.103-0.196-0.194-0.306-0.281c-0.208-0.185-0.446-0.342-0.69-0.489c-0.244-0.146-0.502-0.277-0.765-0.396
			c-0.256-0.118-0.55-0.227-0.787-0.294l-0.086-0.024l-0.035-0.019c-0.86-0.472-1.719-0.948-2.564-1.445
			c-0.841-0.496-1.642-1.041-2.453-1.576c-0.814-0.528-1.604-1.094-2.386-1.671C310.551,90.927,309.764,90.363,309.018,89.735z"/>
	</g>
	<g>
		<path fill="#1FA358" d="M224.592,106.39c0.088,0.379,0.262,0.688,0.396,1.041l0.447,1.02c0.308,0.675,0.609,1.351,0.928,2.017
			c0.316,0.667,0.633,1.333,0.965,1.99c0.338,0.654,0.656,1.316,1.018,1.953c0.344,0.647,0.707,1.28,1.075,1.91
			c0.391,0.614,0.763,1.239,1.18,1.83c0.196,0.306,0.413,0.594,0.638,0.873c0.228,0.277,0.424,0.585,0.67,0.841
			c0.24,0.263,0.464,0.546,0.717,0.794c0.26,0.236,0.518,0.479,0.771,0.728l0.03,0.025c0.767,0.771,1.466,1.572,2.092,2.451
			c0.163,0.211,0.303,0.445,0.445,0.673c0.138,0.232,0.298,0.445,0.403,0.699c0.113,0.248,0.24,0.483,0.337,0.734l0.204,0.777
			l-0.384-0.688c-0.142-0.217-0.313-0.419-0.466-0.625c-0.146-0.209-0.333-0.397-0.504-0.591c-0.172-0.193-0.342-0.386-0.531-0.566
			c-0.716-0.744-1.499-1.447-2.276-2.105l0.03,0.025c-0.308-0.238-0.611-0.483-0.912-0.733c-0.294-0.255-0.551-0.542-0.828-0.813
			c-0.283-0.268-0.514-0.572-0.759-0.868c-0.247-0.295-0.481-0.597-0.694-0.913c-0.457-0.613-0.856-1.259-1.24-1.913
			c-0.363-0.664-0.748-1.316-1.059-2.004c-0.656-1.358-1.219-2.754-1.683-4.182c-0.229-0.715-0.446-1.433-0.624-2.162
			c-0.094-0.363-0.172-0.73-0.245-1.099C224.666,107.148,224.586,106.75,224.592,106.39z"/>
	</g>
	<g>
		<path fill="#1FA358" d="M315.161,108.921c0,0,0.332,0.222,0.913,0.61c0.571,0.398,1.421,0.919,2.425,1.551
			c1.005,0.632,2.194,1.337,3.473,2.075c0.646,0.356,1.313,0.723,1.991,1.097c0.69,0.347,1.373,0.739,2.09,1.059
			c0.706,0.342,1.404,0.702,2.119,0.992c0.709,0.306,1.396,0.631,2.088,0.88c0.685,0.271,1.344,0.54,1.986,0.745
			c0.64,0.212,1.236,0.453,1.808,0.601c0.567,0.16,1.086,0.326,1.548,0.474c0.47,0.112,0.879,0.21,1.216,0.292
			c0.677,0.165,1.065,0.278,1.065,0.278s-0.398,0-1.1-0.033c-0.352-0.02-0.778-0.044-1.268-0.071
			c-0.484-0.061-1.034-0.131-1.631-0.229c-0.604-0.073-1.236-0.237-1.909-0.402c-0.68-0.149-1.382-0.353-2.096-0.602
			c-1.448-0.446-2.931-1.092-4.386-1.784c-0.73-0.343-1.422-0.757-2.124-1.125c-0.688-0.393-1.346-0.812-1.98-1.217
			c-1.258-0.831-2.393-1.663-3.314-2.438c-0.935-0.758-1.651-1.465-2.156-1.949C315.419,109.23,315.161,108.921,315.161,108.921z"/>
	</g>
	<g>
		<path fill="#F76D7E" d="M206.375,49.649c0.573,1.02,1.115,1.996,1.601,2.967c0.51,0.995,0.979,2.013,1.438,3.033l-0.322-0.246
			c2.424,0.348,4.836,0.774,7.21,1.47c-2.474-0.007-4.908-0.284-7.331-0.64l-0.232-0.034l-0.092-0.212
			c-0.444-1.029-0.871-2.063-1.26-3.119C206.992,51.783,206.616,50.716,206.375,49.649z"/>
	</g>
	<g>
		<path fill="#F76D7E" d="M293.575,49.649c0.573,1.02,1.114,1.996,1.601,2.967c0.509,0.995,0.979,2.013,1.438,3.033l-0.323-0.246
			c2.425,0.348,4.839,0.773,7.213,1.47c-2.475-0.007-4.909-0.284-7.334-0.64l-0.231-0.034l-0.092-0.212
			c-0.444-1.029-0.871-2.063-1.26-3.119C294.191,51.783,293.815,50.716,293.575,49.649z"/>
	</g>
</g>
</svg>
