<?xml version="1.0" encoding="utf-8"?>
<!-- Generator: Adobe Illustrator 16.0.0, SVG Export Plug-In . SVG Version: 6.00 Build 0)  -->
<!DOCTYPE svg PUBLIC "-//W3C//DTD SVG 1.1//EN" "http://www.w3.org/Graphics/SVG/1.1/DTD/svg11.dtd">
<svg version="1.1" id="D" xmlns="http://www.w3.org/2000/svg" xmlns:xlink="http://www.w3.org/1999/xlink" x="0px" y="0px"
	 width="500px" height="500px" viewBox="0 0 500 500" enable-background="new 0 0 500 500" xml:space="preserve">
<g>
	<g>
		<circle opacity="0.3" fill="#EEFFF5" cx="205.656" cy="121.263" r="33.793"/>
		<circle opacity="0.3" fill="#EEFFF5" cx="296.932" cy="120.808" r="33.793"/>
		<g>
			<polygon fill="#074923" points="227.136,75.197 216.503,59.627 220.797,59.627 213.841,49.441 218.135,49.441 200.962,24.296 
				183.789,49.441 188.083,49.441 181.126,59.627 185.42,59.627 174.787,75.197 199.232,75.197 199.232,83.521 202.691,83.521 
				202.691,75.197 			"/>
			<path fill="#0A783D" d="M239.563,125.832c0,0-0.004,0.207-0.012,0.605c-0.013,0.398,0,0.988-0.077,1.766
				c-0.114,1.559-0.393,3.846-1.235,6.695c-0.827,2.844-2.271,6.236-4.673,9.74c-2.399,3.492-5.819,7.059-10.35,9.969
				c-2.266,1.445-4.815,2.684-7.578,3.684c-2.767,0.99-5.773,1.633-8.908,1.967c-0.393,0.031-0.787,0.063-1.182,0.094l-0.596,0.043
				l-0.149,0.012c-0.251-0.002-0.108,0-0.181,0l-0.066,0.004l-0.267,0.004c-0.723,0.012-1.365,0.053-2.285,0.006
				c-0.43-0.016-0.862-0.031-1.293-0.049c-0.409-0.033-0.819-0.068-1.229-0.102c-0.826-0.053-1.646-0.191-2.478-0.299
				c-0.826-0.133-1.656-0.289-2.486-0.467c-0.825-0.199-1.658-0.395-2.477-0.656c-1.653-0.475-3.273-1.109-4.884-1.807
				c-0.792-0.377-1.601-0.736-2.375-1.166c-0.389-0.213-0.788-0.41-1.17-0.639l-1.145-0.693c-1.506-0.965-2.986-2.004-4.371-3.182
				c-2.807-2.307-5.313-5.068-7.402-8.154c-2.09-3.086-3.805-6.486-4.959-10.1c-1.139-3.611-1.821-7.396-1.923-11.191l-0.018-0.711
				l-0.006-0.357l0-0.236l0.002-0.076l0.005-0.154l0.038-1.221l0.009-0.305l0.025-0.369l0.057-0.76l0.061-0.762l0.033-0.379
				l0.044-0.354c0.214-1.889,0.577-3.756,1.037-5.594c0.952-3.67,2.454-7.174,4.378-10.367c1.896-3.213,4.269-6.092,6.929-8.566
				c1.319-1.252,2.743-2.367,4.185-3.424c0.744-0.496,1.465-1.021,2.238-1.459c0.382-0.225,0.757-0.457,1.143-0.672
				c0.39-0.207,0.778-0.414,1.166-0.621c0.384-0.213,0.782-0.395,1.178-0.582c0.396-0.184,0.786-0.379,1.185-0.549
				c0.806-0.328,1.595-0.68,2.411-0.953c1.607-0.611,3.258-1.039,4.891-1.41c3.284-0.68,6.557-0.965,9.706-0.828l0.491,0.014
				l0.261,0.027l0.52,0.053c0.347,0.037,0.692,0.072,1.037,0.107c0.693,0.074,1.328,0.115,2.172,0.283
				c0.789,0.143,1.572,0.285,2.349,0.428c0.396,0.063,0.746,0.17,1.104,0.271c0.356,0.102,0.711,0.205,1.065,0.307
				c1.423,0.363,2.757,0.924,4.068,1.432c0.664,0.232,1.275,0.58,1.897,0.871c0.616,0.309,1.234,0.594,1.817,0.926
				c2.312,1.377,4.442,2.803,6.228,4.439c0.447,0.402,0.889,0.799,1.326,1.193c0.41,0.418,0.803,0.842,1.193,1.254
				c0.385,0.418,0.779,0.811,1.136,1.229c0.338,0.434,0.672,0.857,1,1.277c2.603,3.361,4.2,6.682,5.23,9.453
				c0.221,0.705,0.43,1.373,0.626,2.004c0.097,0.313,0.191,0.615,0.271,0.91c0.063,0.301,0.124,0.592,0.183,0.871
				c0.222,1.121,0.462,2.047,0.51,2.832c0.153,1.543,0.234,2.365,0.234,2.365s-0.311-0.76-0.895-2.184
				c-0.588-1.406-1.591-3.406-3.054-5.756c-1.553-2.303-3.621-4.936-6.438-7.396c-2.803-2.459-6.339-4.74-10.476-6.322
				c-0.519-0.191-1.061-0.34-1.59-0.525c-0.537-0.164-1.058-0.385-1.623-0.49c-1.115-0.254-2.226-0.564-3.399-0.686
				c-0.29-0.041-0.58-0.084-0.872-0.127c-0.29-0.041-0.586-0.105-0.858-0.105c-0.551-0.035-1.106-0.072-1.666-0.109l-0.417-0.031
				c-0.126-0.018-0.297-0.014-0.474-0.01c-0.343,0.004-0.688,0.01-1.033,0.014c-0.346,0.006-0.693,0.01-1.042,0.016l-0.523,0.008
				l-0.262,0.002c0.371,0.01,0.07,0.006,0.138,0.01l-0.057,0.006l-0.115,0.012c-2.451,0.189-4.926,0.615-7.346,1.375
				c-2.401,0.805-4.786,1.805-6.992,3.195c-1.117,0.67-2.16,1.467-3.206,2.26c-1.013,0.84-2.013,1.707-2.924,2.676
				c-0.912,0.963-1.789,1.971-2.565,3.061c-0.416,0.523-0.769,1.094-1.155,1.641c-0.342,0.576-0.721,1.131-1.029,1.729
				c-1.324,2.34-2.259,4.893-2.94,7.504c-0.309,1.314-0.557,2.648-0.694,4l-0.031,0.25l-0.014,0.23l-0.032,0.457l-0.036,0.457
				c-0.005,0.082-0.015,0.139-0.017,0.24l-0.006,0.305l-0.024,1.223l-0.004,0.152l-0.001,0.076c0.004-0.275,0.002-0.039,0.004-0.084
				l0.009,0.256l0.013,0.51c0.104,5.441,1.767,10.789,4.637,15.338c0.724,1.129,1.505,2.225,2.37,3.244
				c0.408,0.531,0.877,1.008,1.314,1.512c0.475,0.467,0.921,0.963,1.421,1.4c1.939,1.82,4.12,3.326,6.394,4.592
				c2.292,1.236,4.714,2.145,7.167,2.785c0.618,0.139,1.229,0.313,1.851,0.408c0.311,0.057,0.62,0.115,0.928,0.172
				c0.288,0.039,0.575,0.078,0.861,0.117c0.511,0.096,1.299,0.131,1.994,0.188l0.266,0.018l0.066,0.006
				c-0.029,0.002,0.159,0.006-0.049,0.004l0.117,0.006l0.462,0.02c0.309,0.012,0.617,0.023,0.924,0.037
				c2.458,0.033,4.861-0.221,7.156-0.697c2.296-0.479,4.47-1.215,6.502-2.098c4.052-1.801,7.459-4.279,10.12-6.896
				c2.667-2.621,4.617-5.355,5.989-7.762c1.373-2.412,2.219-4.486,2.736-5.912c0.27-0.711,0.444-1.285,0.567-1.662
				C239.499,126.029,239.563,125.832,239.563,125.832z"/>
			<g>
				<path fill="#0A783D" d="M238.22,121.351c0,0,0.191-0.492,0.583-1.27c0.179-0.395,0.456-0.852,0.841-1.356
					c0.194-0.259,0.399-0.536,0.617-0.827c0.11-0.139,0.267-0.202,0.436-0.245c0.168-0.046,0.318-0.136,0.48-0.21
					c0.633-0.333,1.358-0.604,2.121-0.899c0.765-0.288,1.599-0.52,2.46-0.747c0.872-0.189,1.772-0.392,2.706-0.48
					c0.927-0.15,1.88-0.138,2.829-0.188c1.048,0.055,1.738,0.029,2.786,0.183c0.985,0.092,1.878,0.296,2.748,0.484
					c0.861,0.227,1.696,0.459,2.46,0.747c0.764,0.295,1.489,0.565,2.121,0.898c0.163,0.074,0.313,0.165,0.479,0.215
					c0.173,0.037,0.322,0.115,0.428,0.262c0.208,0.286,0.406,0.557,0.593,0.812c0.369,0.494,0.653,0.952,0.857,1.358
					c0.42,0.79,0.604,1.26,0.604,1.26s-0.535-0.033-1.372-0.125c-0.41-0.059-0.931-0.073-1.486-0.115
					c-0.275-0.016-0.568-0.033-0.877-0.051c-0.164,0.016-0.292-0.041-0.402-0.142c-0.118-0.087-0.258-0.138-0.391-0.207
					c-0.533-0.285-1.147-0.508-1.791-0.759c-0.645-0.244-1.35-0.437-2.076-0.631c-0.738-0.157-1.504-0.333-2.243-0.399
					c-0.661-0.128-1.732-0.122-2.437-0.166c-0.803,0.05-1.612,0.029-2.394,0.162c-0.79,0.071-1.549,0.248-2.286,0.404
					c-0.726,0.195-1.431,0.387-2.076,0.631c-0.643,0.251-1.257,0.474-1.79,0.759c-0.133,0.069-0.273,0.12-0.388,0.212
					c-0.114,0.094-0.234,0.166-0.394,0.158c-0.3,0.013-0.585,0.025-0.853,0.037c-0.54,0.033-1.067,0.048-1.501,0.118
					C238.748,121.339,238.22,121.351,238.22,121.351z"/>
			</g>
			<g>
				<polygon fill="#EC1C24" points="200.962,6.132 204.809,13.927 213.41,15.177 207.186,21.244 208.655,29.81 200.962,25.766 
					193.269,29.81 194.738,21.244 188.513,15.177 197.115,13.927 				"/>
			</g>
			<path fill="none" stroke="#0A783D" stroke-width="2.2653" stroke-miterlimit="10" d="M233.263,100.08
				c0,0,12.006,16.197,2.567,38.133"/>
			<g>
				<polygon fill="#074923" points="275.453,73.085 286.086,57.515 281.792,57.515 288.748,47.33 284.455,47.33 301.627,22.183 
					318.801,47.33 314.507,47.33 321.463,57.515 317.17,57.515 327.802,73.085 303.355,73.085 303.355,81.41 299.897,81.41 
					299.897,73.085 				"/>
				<path fill="#0A783D" d="M263.027,123.72c0,0,0.004,0.205,0.012,0.604c0.012,0.4,0,0.99,0.075,1.768
					c0.114,1.557,0.394,3.846,1.235,6.693c0.827,2.846,2.271,6.236,4.674,9.74c2.398,3.492,5.818,7.059,10.35,9.969
					c2.266,1.445,4.814,2.686,7.577,3.684c2.767,0.99,5.774,1.633,8.907,1.969c0.394,0.031,0.787,0.063,1.184,0.092l0.596,0.043
					l0.148,0.012c0.252,0,0.108,0.002,0.182,0.002l0.066,0.002l0.266,0.006c0.725,0.012,1.365,0.051,2.286,0.006
					c0.43-0.018,0.86-0.033,1.294-0.051c0.408-0.033,0.818-0.068,1.229-0.102c0.826-0.053,1.646-0.191,2.479-0.299
					c0.825-0.133,1.656-0.287,2.486-0.467c0.824-0.199,1.657-0.393,2.476-0.654c1.653-0.475,3.273-1.111,4.885-1.809
					c0.792-0.377,1.601-0.734,2.376-1.166c0.388-0.213,0.787-0.41,1.17-0.639l1.145-0.693c1.506-0.963,2.985-2.004,4.371-3.18
					c2.807-2.309,5.312-5.07,7.402-8.156c2.09-3.086,3.805-6.484,4.958-10.098c1.14-3.611,1.822-7.396,1.923-11.193l0.018-0.711
					l0.006-0.355v-0.238l-0.002-0.076l-0.005-0.152l-0.037-1.223l-0.01-0.305l-0.024-0.367l-0.057-0.762l-0.061-0.76l-0.031-0.381
					l-0.047-0.354c-0.213-1.887-0.576-3.754-1.035-5.592c-0.952-3.67-2.454-7.174-4.379-10.367c-1.895-3.215-4.27-6.094-6.93-8.568
					c-1.318-1.252-2.741-2.367-4.184-3.422c-0.744-0.498-1.465-1.021-2.238-1.459c-0.381-0.227-0.758-0.459-1.143-0.674
					c-0.389-0.207-0.778-0.414-1.166-0.621c-0.384-0.213-0.782-0.395-1.177-0.582c-0.397-0.184-0.786-0.377-1.187-0.549
					c-0.805-0.328-1.594-0.68-2.41-0.953c-1.607-0.611-3.258-1.039-4.891-1.41c-3.284-0.68-6.559-0.965-9.707-0.826l-0.49,0.014
					l-0.261,0.025l-0.521,0.055c-0.347,0.035-0.692,0.07-1.035,0.105c-0.694,0.074-1.33,0.115-2.174,0.283
					c-0.789,0.143-1.572,0.285-2.349,0.428c-0.397,0.063-0.745,0.172-1.104,0.271c-0.357,0.104-0.712,0.205-1.064,0.309
					c-1.424,0.363-2.758,0.922-4.069,1.43c-0.663,0.232-1.274,0.58-1.897,0.873c-0.615,0.307-1.232,0.592-1.816,0.926
					c-2.313,1.377-4.443,2.801-6.229,4.438c-0.447,0.404-0.889,0.801-1.325,1.191c-0.411,0.42-0.804,0.846-1.194,1.258
					c-0.385,0.416-0.778,0.811-1.135,1.229c-0.339,0.432-0.672,0.857-1.002,1.275c-2.602,3.361-4.197,6.682-5.229,9.453
					c-0.221,0.707-0.43,1.375-0.626,2.004c-0.096,0.314-0.189,0.615-0.27,0.91c-0.064,0.301-0.125,0.592-0.184,0.871
					c-0.222,1.123-0.463,2.047-0.51,2.834c-0.152,1.541-0.234,2.363-0.234,2.363s0.311-0.76,0.895-2.184
					c0.588-1.406,1.591-3.404,3.054-5.756c1.554-2.301,3.621-4.936,6.438-7.395c2.803-2.461,6.339-4.742,10.477-6.322
					c0.518-0.195,1.06-0.342,1.588-0.527c0.538-0.164,1.059-0.383,1.625-0.49c1.114-0.254,2.225-0.564,3.398-0.686
					c0.289-0.041,0.58-0.084,0.871-0.127c0.29-0.041,0.588-0.104,0.859-0.105c0.55-0.035,1.105-0.072,1.664-0.109l0.418-0.031
					c0.126-0.016,0.297-0.014,0.473-0.01c0.344,0.006,0.688,0.01,1.034,0.016c0.346,0.004,0.692,0.008,1.04,0.014l0.524,0.008
					l0.263,0.004c-0.373,0.01-0.07,0.006-0.139,0.01l0.057,0.004l0.115,0.012c2.451,0.189,4.926,0.615,7.346,1.377
					c2.4,0.805,4.785,1.803,6.992,3.193c1.115,0.67,2.159,1.467,3.205,2.26c1.014,0.84,2.014,1.707,2.924,2.676
					c0.912,0.965,1.789,1.973,2.564,3.063c0.416,0.521,0.771,1.092,1.156,1.639c0.342,0.576,0.721,1.131,1.028,1.729
					c1.325,2.342,2.259,4.893,2.94,7.504c0.309,1.316,0.557,2.65,0.693,4l0.031,0.252l0.016,0.229l0.031,0.457l0.035,0.457
					c0.006,0.082,0.016,0.141,0.018,0.242l0.006,0.305l0.024,1.221l0.003,0.154l0.001,0.076c-0.004-0.277-0.003-0.041-0.004-0.086
					l-0.009,0.256l-0.014,0.51c-0.104,5.441-1.768,10.791-4.636,15.338c-0.724,1.131-1.505,2.227-2.37,3.244
					c-0.408,0.533-0.878,1.008-1.314,1.512c-0.475,0.467-0.921,0.965-1.422,1.402c-1.938,1.818-4.119,3.326-6.393,4.59
					c-2.291,1.236-4.715,2.145-7.167,2.787c-0.618,0.137-1.229,0.311-1.852,0.406c-0.31,0.059-0.619,0.115-0.927,0.172
					c-0.289,0.039-0.576,0.078-0.863,0.117c-0.51,0.096-1.299,0.133-1.993,0.188l-0.266,0.02l-0.065,0.006
					c0.029,0-0.159,0.004,0.049,0.002l-0.116,0.006l-0.464,0.02c-0.309,0.012-0.617,0.023-0.924,0.037
					c-2.457,0.033-4.86-0.221-7.155-0.695c-2.296-0.48-4.471-1.217-6.503-2.098c-4.051-1.801-7.459-4.281-10.119-6.898
					c-2.666-2.619-4.617-5.355-5.988-7.762c-1.373-2.412-2.221-4.486-2.736-5.912c-0.27-0.711-0.444-1.283-0.568-1.662
					C263.09,123.916,263.027,123.72,263.027,123.72z"/>
				<g>
					<polygon fill="#EC1C24" points="301.627,4.019 297.781,11.814 289.179,13.064 295.403,19.131 293.934,27.699 301.627,23.654 
						309.32,27.699 307.852,19.131 314.075,13.064 305.475,11.814 					"/>
				</g>
				<path fill="none" stroke="#0A783D" stroke-width="2.2653" stroke-miterlimit="10" d="M269.326,97.966
					c0,0-12.006,16.197-2.568,38.135"/>
			</g>
			<g>
				<path fill="#41AF68" d="M298.799,81.41c0,0,1.115-0.008,3.063,0.02c0.488-0.011,1.025,0.045,1.612,0.125
					c0.589,0.07,1.227,0.146,1.907,0.227c0.69,0.054,1.398,0.223,2.148,0.393c0.75,0.171,1.543,0.346,2.36,0.563
					c1.595,0.557,3.371,1.069,5.103,1.968c0.442,0.206,0.89,0.414,1.343,0.625c0.443,0.23,0.87,0.502,1.314,0.756
					c0.873,0.533,1.813,1.012,2.645,1.68c0.841,0.65,1.763,1.234,2.576,1.971c0.809,0.74,1.667,1.452,2.447,2.254
					c0.749,0.833,1.521,1.659,2.263,2.516c0.679,0.909,1.36,1.822,2.042,2.734c0.584,0.978,1.168,1.956,1.75,2.93
					c0.525,1.004,0.979,2.042,1.464,3.051c0.854,2.071,1.546,4.171,1.984,6.258c0.285,1.028,0.421,2.067,0.54,3.085
					c0.133,1.016,0.279,2.005,0.266,2.983c0.017,0.985,0.071,1.892,0.054,2.857c-0.072,0.897-0.143,1.763-0.21,2.595
					c-0.034,0.828-0.22,1.64-0.352,2.4c-0.156,0.759-0.257,1.488-0.437,2.149c-0.396,1.313-0.684,2.468-1.019,3.387
					c-0.727,1.821-1.162,2.841-1.162,2.841s0.287-1.083,0.825-2.943c0.246-0.936,0.425-2.104,0.694-3.417
					c0.115-0.66,0.146-1.374,0.229-2.115c0.061-0.747,0.205-1.506,0.181-2.352c0.012-0.834,0.024-1.703,0.038-2.603
					c-0.043-0.831-0.129-1.781-0.192-2.705c-0.029-0.939-0.218-1.886-0.392-2.854c-0.083-0.484-0.167-0.974-0.251-1.468
					c-0.069-0.497-0.247-0.976-0.366-1.471c-0.463-1.989-1.225-3.958-2.036-5.931c-0.476-0.957-0.914-1.942-1.423-2.894
					c-0.563-0.923-1.127-1.849-1.691-2.775c-0.641-0.875-1.281-1.751-1.92-2.623c-0.7-0.822-1.43-1.616-2.135-2.418
					c-0.742-0.768-1.544-1.465-2.293-2.199c-0.756-0.728-1.622-1.306-2.41-1.955c-0.775-0.669-1.671-1.136-2.479-1.696
					c-0.415-0.264-0.813-0.547-1.229-0.788c-0.427-0.223-0.848-0.443-1.263-0.661c-1.634-0.936-3.308-1.54-4.822-2.189
					c-0.776-0.266-1.539-0.471-2.253-0.707c-0.716-0.233-1.396-0.462-2.055-0.573c-0.655-0.14-1.27-0.271-1.838-0.392
					c-0.567-0.131-1.095-0.236-1.583-0.269C299.903,81.56,298.799,81.41,298.799,81.41z"/>
			</g>
			<g>
				<path fill="#41AF68" d="M203.167,83.521c0,0,1.115-0.008,3.063,0.021c0.487-0.011,1.024,0.045,1.611,0.125
					c0.589,0.07,1.227,0.146,1.907,0.228c0.691,0.054,1.399,0.222,2.149,0.392c0.75,0.171,1.542,0.347,2.36,0.563
					c1.594,0.557,3.371,1.07,5.103,1.968c0.441,0.206,0.889,0.415,1.342,0.625c0.443,0.23,0.871,0.502,1.314,0.756
					c0.873,0.533,1.813,1.012,2.644,1.68c0.841,0.65,1.763,1.234,2.576,1.971c0.809,0.74,1.667,1.452,2.448,2.254
					c0.749,0.833,1.521,1.659,2.262,2.516c0.679,0.909,1.36,1.822,2.042,2.734c0.584,0.978,1.168,1.956,1.75,2.93
					c0.525,1.004,0.978,2.042,1.464,3.051c0.854,2.071,1.546,4.171,1.984,6.258c0.286,1.028,0.422,2.068,0.541,3.085
					c0.133,1.016,0.279,2.005,0.266,2.982c0.017,0.985,0.071,1.892,0.054,2.857c-0.072,0.896-0.142,1.763-0.209,2.595
					c-0.034,0.828-0.22,1.64-0.352,2.4c-0.155,0.759-0.256,1.487-0.436,2.149c-0.396,1.313-0.684,2.467-1.018,3.387
					c-0.728,1.821-1.163,2.84-1.163,2.84s0.288-1.083,0.825-2.943c0.247-0.936,0.425-2.104,0.694-3.417
					c0.116-0.661,0.146-1.374,0.23-2.115c0.061-0.747,0.204-1.506,0.18-2.352c0.012-0.834,0.025-1.704,0.038-2.603
					c-0.043-0.831-0.128-1.78-0.192-2.704c-0.029-0.939-0.218-1.887-0.392-2.854c-0.083-0.484-0.167-0.974-0.251-1.468
					c-0.069-0.497-0.247-0.976-0.366-1.471c-0.462-1.99-1.224-3.958-2.037-5.931c-0.475-0.957-0.914-1.942-1.422-2.894
					c-0.563-0.922-1.127-1.849-1.691-2.775c-0.641-0.875-1.281-1.751-1.92-2.623c-0.7-0.822-1.429-1.616-2.134-2.419
					c-0.742-0.767-1.544-1.464-2.293-2.198c-0.756-0.728-1.622-1.307-2.409-1.955c-0.776-0.669-1.671-1.136-2.479-1.696
					c-0.415-0.264-0.813-0.547-1.229-0.788c-0.426-0.223-0.847-0.443-1.262-0.661c-1.634-0.936-3.308-1.54-4.822-2.189
					c-0.777-0.266-1.539-0.472-2.253-0.707c-0.716-0.233-1.396-0.462-2.054-0.573c-0.656-0.14-1.271-0.271-1.838-0.392
					c-0.568-0.131-1.095-0.236-1.583-0.27C204.271,83.671,203.167,83.521,203.167,83.521z"/>
			</g>
		</g>
	</g>
	<circle fill="#EEFFF5" cx="192.692" cy="46.786" r="1.812"/>
	<circle fill="#EEFFF5" cx="293.273" cy="57.533" r="1.813"/>
	<circle fill="#EEFF22" cx="210.664" cy="55.721" r="1.813"/>
	<circle fill="#EEFF22" cx="298.799" cy="37.271" r="1.813"/>
	<circle fill="#0867B2" cx="188.513" cy="62.568" r="1.812"/>
	<circle fill="#0867B2" cx="312.263" cy="62.568" r="1.812"/>
</g>
</svg>
