<?xml version="1.0" encoding="utf-8"?>
<!-- Generator: Adobe Illustrator 16.0.0, SVG Export Plug-In . SVG Version: 6.00 Build 0)  -->
<!DOCTYPE svg PUBLIC "-//W3C//DTD SVG 1.1//EN" "http://www.w3.org/Graphics/SVG/1.1/DTD/svg11.dtd">
<svg version="1.1" id="E" xmlns="http://www.w3.org/2000/svg" xmlns:xlink="http://www.w3.org/1999/xlink" x="0px" y="0px"
	 width="500px" height="500px" viewBox="0 0 500 500" enable-background="new 0 0 500 500" xml:space="preserve">
<pattern  x="-55.5" y="646.5" width="28.081" height="30.633" patternUnits="userSpaceOnUse" id="New_Pattern" viewBox="2.834 -30.633 28.081 30.633" overflow="visible">
	<g>
		<polygon fill="none" points="2.834,-30.633 30.916,-30.633 30.916,0 2.834,0 		"/>
		<g>
			<path fill="#1FAA5A" d="M26.896-10.809c0,0.828-0.671,1.5-1.5,1.5s-1.5-0.672-1.5-1.5s0.671-1.5,1.5-1.5
				S26.896-11.637,26.896-10.809z"/>
			<path fill="#1FAA5A" d="M29.03-4.529c0,1.334-1.081,2.416-2.415,2.416S24.2-3.195,24.2-4.529c0-1.332,1.081-2.414,2.415-2.414
				S29.03-5.861,29.03-4.529z"/>
			<path fill="#1FAA5A" d="M31.359-9.309c0,0.643-0.521,1.164-1.165,1.164S29.03-8.666,29.03-9.309s0.521-1.165,1.165-1.165
				S31.359-9.951,31.359-9.309z"/>
			<path fill="#1FAA5A" d="M32.308-16.973c0,1.168-0.945,2.115-2.113,2.115c-1.167,0-2.114-0.947-2.114-2.115
				c0-1.166,0.946-2.113,2.114-2.113C31.363-19.086,32.308-18.139,32.308-16.973z"/>
			<path fill="#1FAA5A" d="M33.868-23.729c0,1.483-1.204,2.688-2.689,2.688c-1.484,0-2.69-1.205-2.69-2.688s1.206-2.688,2.69-2.688
				C32.664-26.418,33.868-25.213,33.868-23.729z"/>
		</g>
		<g>
			<path fill="#1FAA5A" d="M12.855-10.809c0,0.828-0.671,1.5-1.5,1.5s-1.5-0.672-1.5-1.5s0.671-1.5,1.5-1.5
				S12.855-11.637,12.855-10.809z"/>
			<path fill="#1FAA5A" d="M14.989-4.529c0,1.334-1.081,2.416-2.415,2.416S10.16-3.195,10.16-4.529c0-1.332,1.081-2.414,2.415-2.414
				S14.989-5.861,14.989-4.529z"/>
			<path fill="#1FAA5A" d="M17.319-9.309c0,0.643-0.521,1.164-1.165,1.164s-1.165-0.521-1.165-1.164s0.521-1.165,1.165-1.165
				S17.319-9.951,17.319-9.309z"/>
			<path fill="#1FAA5A" d="M18.268-16.973c0,1.168-0.945,2.115-2.113,2.115c-1.167,0-2.114-0.947-2.114-2.115
				c0-1.166,0.946-2.113,2.114-2.113C17.322-19.086,18.268-18.139,18.268-16.973z"/>
			<path fill="#1FAA5A" d="M23.896-2.114C23.896-0.947,22.95,0,21.782,0c-1.167,0-2.114-0.947-2.114-2.114
				c0-1.166,0.946-2.113,2.114-2.113C22.95-4.228,23.896-3.28,23.896-2.114z"/>
			<path fill="#1FAA5A" d="M22.715-10.809c0,0.514-0.417,0.932-0.933,0.932s-0.933-0.418-0.933-0.932
				c0-0.516,0.418-0.934,0.933-0.934S22.715-11.324,22.715-10.809z"/>
			<path fill="#1FAA5A" d="M23.356-29.059c0,0.867-0.705,1.572-1.574,1.572c-0.869,0-1.574-0.705-1.574-1.572
				c0-0.869,0.706-1.574,1.574-1.574C22.651-30.633,23.356-29.928,23.356-29.059z"/>
			<path fill="#1FAA5A" d="M23.356-19.086c0,0.869-0.705,1.574-1.574,1.574c-0.869,0-1.574-0.705-1.574-1.574
				c0-0.867,0.706-1.572,1.574-1.572C22.651-20.658,23.356-19.953,23.356-19.086z"/>
			<path fill="#1FAA5A" d="M19.828-23.729c0,1.483-1.204,2.688-2.689,2.688c-1.484,0-2.69-1.205-2.69-2.688s1.206-2.688,2.69-2.688
				C18.624-26.418,19.828-25.213,19.828-23.729z"/>
		</g>
		<g>
			<path fill="#1FAA5A" d="M3.278-9.309c0,0.643-0.521,1.164-1.165,1.164S0.949-8.666,0.949-9.309s0.521-1.165,1.165-1.165
				S3.278-9.951,3.278-9.309z"/>
			<path fill="#1FAA5A" d="M4.227-16.973c0,1.168-0.945,2.115-2.113,2.115C0.946-14.857,0-15.805,0-16.973
				c0-1.166,0.946-2.113,2.114-2.113C3.282-19.086,4.227-18.139,4.227-16.973z"/>
			<path fill="#1FAA5A" d="M9.855-2.114C9.855-0.947,8.91,0,7.742,0C6.574,0,5.628-0.947,5.628-2.114
				c0-1.166,0.946-2.113,2.114-2.113C8.91-4.228,9.855-3.28,9.855-2.114z"/>
			<path fill="#1FAA5A" d="M8.674-10.809c0,0.514-0.417,0.932-0.933,0.932s-0.933-0.418-0.933-0.932
				c0-0.516,0.418-0.934,0.933-0.934S8.674-11.324,8.674-10.809z"/>
			<path fill="#1FAA5A" d="M9.315-29.059c0,0.867-0.705,1.572-1.574,1.572c-0.869,0-1.574-0.705-1.574-1.572
				c0-0.869,0.706-1.574,1.574-1.574C8.611-30.633,9.315-29.928,9.315-29.059z"/>
			<path fill="#1FAA5A" d="M9.315-19.086c0,0.869-0.705,1.574-1.574,1.574c-0.869,0-1.574-0.705-1.574-1.574
				c0-0.867,0.706-1.572,1.574-1.572C8.611-20.658,9.315-19.953,9.315-19.086z"/>
			<path fill="#1FAA5A" d="M5.787-23.729c0,1.483-1.204,2.688-2.689,2.688c-1.484,0-2.69-1.205-2.69-2.688s1.206-2.688,2.69-2.688
				C4.583-26.418,5.787-25.213,5.787-23.729z"/>
		</g>
	</g>
</pattern>
<g>
	<path fill="#0A783D" d="M240.037,128.465c0,0-0.004,0.197-0.012,0.581c-0.012,0.384,0,0.948-0.072,1.694
		c-0.109,1.496-0.377,3.69-1.186,6.424c-0.793,2.729-2.178,5.984-4.484,9.344c-2.301,3.351-5.582,6.774-9.931,9.565
		c-2.174,1.389-4.619,2.577-7.271,3.534c-2.654,0.952-5.539,1.567-8.547,1.889c-0.376,0.03-0.755,0.06-1.135,0.09l-0.571,0.042
		l-0.143,0.011c-0.241-0.002-0.104,0-0.175,0l-0.063,0.002l-0.255,0.005c-0.694,0.011-1.31,0.049-2.193,0.006
		c-0.412-0.015-0.826-0.03-1.241-0.047c-0.392-0.032-0.784-0.066-1.179-0.1c-0.793-0.05-1.579-0.182-2.377-0.285
		c-0.793-0.129-1.591-0.277-2.387-0.448c-0.791-0.193-1.59-0.379-2.375-0.63c-1.587-0.455-3.142-1.064-4.688-1.735
		c-0.76-0.362-1.535-0.705-2.279-1.119c-0.373-0.203-0.756-0.394-1.123-0.611l-1.099-0.666c-1.444-0.926-2.864-1.922-4.193-3.053
		c-2.693-2.215-5.097-4.863-7.103-7.826c-2.005-2.959-3.651-6.22-4.758-9.688c-1.092-3.465-1.748-7.097-1.845-10.738l-0.017-0.684
		l-0.006-0.341v-0.227l0.002-0.075l0.004-0.145l0.036-1.173l0.01-0.294l0.023-0.353l0.054-0.729l0.059-0.731l0.031-0.364
		l0.043-0.339c0.205-1.813,0.554-3.604,0.994-5.367c0.914-3.521,2.354-6.882,4.201-9.947c1.818-3.083,4.097-5.845,6.648-8.22
		c1.266-1.201,2.631-2.271,4.016-3.285c0.713-0.476,1.404-0.98,2.146-1.398c0.367-0.217,0.727-0.44,1.098-0.646
		c0.373-0.199,0.746-0.397,1.117-0.596c0.369-0.205,0.751-0.38,1.131-0.559c0.379-0.176,0.754-0.364,1.137-0.527
		c0.773-0.314,1.529-0.654,2.313-0.916c1.543-0.585,3.126-0.995,4.693-1.353c3.151-0.65,6.293-0.924,9.314-0.791l0.471,0.011
		l0.25,0.024l0.498,0.053c0.334,0.033,0.666,0.067,0.994,0.103c0.666,0.071,1.275,0.111,2.086,0.27
		c0.756,0.139,1.508,0.276,2.253,0.411c0.38,0.06,0.716,0.165,1.06,0.262c0.342,0.097,0.684,0.195,1.021,0.294
		c1.367,0.349,2.646,0.886,3.904,1.374c0.637,0.221,1.224,0.557,1.82,0.835c0.592,0.294,1.184,0.57,1.743,0.889
		c2.219,1.321,4.263,2.689,5.978,4.26c0.428,0.386,0.853,0.766,1.271,1.143c0.395,0.403,0.771,0.81,1.146,1.205
		c0.37,0.401,0.747,0.778,1.089,1.179c0.325,0.415,0.646,0.823,0.961,1.226c2.497,3.226,4.028,6.409,5.018,9.068
		c0.212,0.679,0.413,1.321,0.602,1.925c0.092,0.3,0.182,0.59,0.259,0.873c0.061,0.289,0.119,0.568,0.176,0.836
		c0.213,1.076,0.443,1.962,0.489,2.717c0.147,1.479,0.226,2.268,0.226,2.268s-0.299-0.727-0.859-2.093
		c-0.564-1.349-1.525-3.268-2.93-5.524c-1.49-2.208-3.475-4.735-6.178-7.095c-2.689-2.361-6.083-4.548-10.051-6.066
		c-0.498-0.186-1.018-0.328-1.525-0.504c-0.516-0.158-1.015-0.369-1.559-0.471c-1.068-0.244-2.135-0.542-3.261-0.658
		c-0.278-0.042-0.556-0.083-0.835-0.122c-0.279-0.04-0.564-0.102-0.825-0.102c-0.528-0.035-1.061-0.069-1.599-0.104l-0.399-0.03
		c-0.122-0.017-0.285-0.013-0.454-0.011c-0.33,0.005-0.66,0.011-0.992,0.015c-0.331,0.005-0.664,0.009-0.998,0.013l-0.502,0.01
		l-0.252,0.002c0.357,0.009,0.067,0.005,0.133,0.009l-0.055,0.005l-0.111,0.01c-2.352,0.184-4.727,0.592-7.047,1.321
		c-2.305,0.772-4.592,1.73-6.709,3.066c-1.072,0.643-2.072,1.407-3.076,2.168c-0.972,0.806-1.932,1.636-2.805,2.565
		c-0.877,0.926-1.717,1.893-2.461,2.938c-0.4,0.502-0.738,1.049-1.109,1.572c-0.328,0.553-0.691,1.087-0.987,1.66
		c-1.271,2.247-2.167,4.694-2.821,7.2c-0.296,1.261-0.534,2.541-0.666,3.838l-0.029,0.24l-0.014,0.219l-0.03,0.44l-0.034,0.438
		c-0.005,0.079-0.014,0.133-0.016,0.23l-0.007,0.292l-0.022,1.173l-0.004,0.146v0.073c0.004-0.265,0.002-0.038,0.002-0.081
		l0.01,0.246l0.012,0.489c0.1,5.221,1.697,10.352,4.449,14.715c0.694,1.087,1.443,2.136,2.273,3.113
		c0.392,0.511,0.843,0.967,1.262,1.452c0.455,0.446,0.883,0.924,1.363,1.344c1.861,1.745,3.953,3.191,6.135,4.406
		c2.197,1.185,4.523,2.058,6.877,2.672c0.593,0.133,1.18,0.298,1.775,0.392c0.298,0.054,0.596,0.109,0.891,0.163
		c0.276,0.038,0.553,0.077,0.826,0.114c0.49,0.09,1.247,0.127,1.913,0.178l0.255,0.019l0.064,0.006
		c-0.029,0.001,0.152,0.005-0.047,0.003l0.111,0.004l0.443,0.019c0.297,0.013,0.594,0.024,0.887,0.038
		c2.358,0.032,4.664-0.212,6.866-0.669c2.204-0.459,4.289-1.166,6.239-2.013c3.887-1.728,7.156-4.108,9.709-6.617
		c2.559-2.513,4.43-5.139,5.746-7.449c1.318-2.314,2.13-4.305,2.625-5.672c0.26-0.683,0.427-1.231,0.546-1.593
		C239.977,128.653,240.037,128.465,240.037,128.465z"/>
	<pattern  id="SVGID_1_" xlink:href="#New_Pattern" patternTransform="matrix(1 0 0 1 252.7295 0)">
	</pattern>
	<path fill="url(#SVGID_1_)" d="M240.037,128.465c0,0-0.004,0.197-0.012,0.581c-0.012,0.384,0,0.948-0.072,1.694
		c-0.109,1.496-0.377,3.69-1.186,6.424c-0.793,2.729-2.178,5.984-4.484,9.344c-2.301,3.351-5.582,6.774-9.931,9.565
		c-2.174,1.389-4.619,2.577-7.271,3.534c-2.654,0.952-5.539,1.567-8.547,1.889c-0.376,0.03-0.755,0.06-1.135,0.09l-0.571,0.042
		l-0.143,0.011c-0.241-0.002-0.104,0-0.175,0l-0.063,0.002l-0.255,0.005c-0.694,0.011-1.31,0.049-2.193,0.006
		c-0.412-0.015-0.826-0.03-1.241-0.047c-0.392-0.032-0.784-0.066-1.179-0.1c-0.793-0.05-1.579-0.182-2.377-0.285
		c-0.793-0.129-1.591-0.277-2.387-0.448c-0.791-0.193-1.59-0.379-2.375-0.63c-1.587-0.455-3.142-1.064-4.688-1.735
		c-0.76-0.362-1.535-0.705-2.279-1.119c-0.373-0.203-0.756-0.394-1.123-0.611l-1.099-0.666c-1.444-0.926-2.864-1.922-4.193-3.053
		c-2.693-2.215-5.097-4.863-7.103-7.826c-2.005-2.959-3.651-6.22-4.758-9.688c-1.092-3.465-1.748-7.097-1.845-10.738l-0.017-0.684
		l-0.006-0.341v-0.227l0.002-0.075l0.004-0.145l0.036-1.173l0.01-0.294l0.023-0.353l0.054-0.729l0.059-0.731l0.031-0.364
		l0.043-0.339c0.205-1.813,0.554-3.604,0.994-5.367c0.914-3.521,2.354-6.882,4.201-9.947c1.818-3.083,4.097-5.845,6.648-8.22
		c1.266-1.201,2.631-2.271,4.016-3.285c0.713-0.476,1.404-0.98,2.146-1.398c0.367-0.217,0.727-0.44,1.098-0.646
		c0.373-0.199,0.746-0.397,1.117-0.596c0.369-0.205,0.751-0.38,1.131-0.559c0.379-0.176,0.754-0.364,1.137-0.527
		c0.773-0.314,1.529-0.654,2.313-0.916c1.543-0.585,3.126-0.995,4.693-1.353c3.151-0.65,6.293-0.924,9.314-0.791l0.471,0.011
		l0.25,0.024l0.498,0.053c0.334,0.033,0.666,0.067,0.994,0.103c0.666,0.071,1.275,0.111,2.086,0.27
		c0.756,0.139,1.508,0.276,2.253,0.411c0.38,0.06,0.716,0.165,1.06,0.262c0.342,0.097,0.684,0.195,1.021,0.294
		c1.367,0.349,2.646,0.886,3.904,1.374c0.637,0.221,1.224,0.557,1.82,0.835c0.592,0.294,1.184,0.57,1.743,0.889
		c2.219,1.321,4.263,2.689,5.978,4.26c0.428,0.386,0.853,0.766,1.271,1.143c0.395,0.403,0.771,0.81,1.146,1.205
		c0.37,0.401,0.747,0.778,1.089,1.179c0.325,0.415,0.646,0.823,0.961,1.226c2.497,3.226,4.028,6.409,5.018,9.068
		c0.212,0.679,0.413,1.321,0.602,1.925c0.092,0.3,0.182,0.59,0.259,0.873c0.061,0.289,0.119,0.568,0.176,0.836
		c0.213,1.076,0.443,1.962,0.489,2.717c0.147,1.479,0.226,2.268,0.226,2.268s-0.299-0.727-0.859-2.093
		c-0.564-1.349-1.525-3.268-2.93-5.524c-1.49-2.208-3.475-4.735-6.178-7.095c-2.689-2.361-6.083-4.548-10.051-6.066
		c-0.498-0.186-1.018-0.328-1.525-0.504c-0.516-0.158-1.015-0.369-1.559-0.471c-1.068-0.244-2.135-0.542-3.261-0.658
		c-0.278-0.042-0.556-0.083-0.835-0.122c-0.279-0.04-0.564-0.102-0.825-0.102c-0.528-0.035-1.061-0.069-1.599-0.104l-0.399-0.03
		c-0.122-0.017-0.285-0.013-0.454-0.011c-0.33,0.005-0.66,0.011-0.992,0.015c-0.331,0.005-0.664,0.009-0.998,0.013l-0.502,0.01
		l-0.252,0.002c0.357,0.009,0.067,0.005,0.133,0.009l-0.055,0.005l-0.111,0.01c-2.352,0.184-4.727,0.592-7.047,1.321
		c-2.305,0.772-4.592,1.73-6.709,3.066c-1.072,0.643-2.072,1.407-3.076,2.168c-0.972,0.806-1.932,1.636-2.805,2.565
		c-0.877,0.926-1.717,1.893-2.461,2.938c-0.4,0.502-0.738,1.049-1.109,1.572c-0.328,0.553-0.691,1.087-0.987,1.66
		c-1.271,2.247-2.167,4.694-2.821,7.2c-0.296,1.261-0.534,2.541-0.666,3.838l-0.029,0.24l-0.014,0.219l-0.03,0.44l-0.034,0.438
		c-0.005,0.079-0.014,0.133-0.016,0.23l-0.007,0.292l-0.022,1.173l-0.004,0.146v0.073c0.004-0.265,0.002-0.038,0.002-0.081
		l0.01,0.246l0.012,0.489c0.1,5.221,1.697,10.352,4.449,14.715c0.694,1.087,1.443,2.136,2.273,3.113
		c0.392,0.511,0.843,0.967,1.262,1.452c0.455,0.446,0.883,0.924,1.363,1.344c1.861,1.745,3.953,3.191,6.135,4.406
		c2.197,1.185,4.523,2.058,6.877,2.672c0.593,0.133,1.18,0.298,1.775,0.392c0.298,0.054,0.596,0.109,0.891,0.163
		c0.276,0.038,0.553,0.077,0.826,0.114c0.49,0.09,1.247,0.127,1.913,0.178l0.255,0.019l0.064,0.006
		c-0.029,0.001,0.152,0.005-0.047,0.003l0.111,0.004l0.443,0.019c0.297,0.013,0.594,0.024,0.887,0.038
		c2.358,0.032,4.664-0.212,6.866-0.669c2.204-0.459,4.289-1.166,6.239-2.013c3.887-1.728,7.156-4.108,9.709-6.617
		c2.559-2.513,4.43-5.139,5.746-7.449c1.318-2.314,2.13-4.305,2.625-5.672c0.26-0.683,0.427-1.231,0.546-1.593
		C239.977,128.653,240.037,128.465,240.037,128.465z"/>
	<g>
		<path fill="#0A783D" d="M240.037,123.949c0,0,0.041-0.106,0.117-0.305c0.08-0.195,0.182-0.502,0.346-0.845
			c0.141-0.355,0.367-0.771,0.691-1.229c0.163-0.235,0.336-0.486,0.52-0.75c0.092-0.127,0.229-0.181,0.377-0.215
			c0.148-0.037,0.277-0.117,0.418-0.181c0.551-0.289,1.18-0.524,1.843-0.78c0.664-0.25,1.389-0.452,2.137-0.649
			c0.757-0.164,1.54-0.341,2.351-0.417c0.805-0.13,1.633-0.121,2.457-0.164c0.919,0.048,1.495,0.024,2.416,0.158
			c0.859,0.081,1.635,0.257,2.391,0.421c0.748,0.197,1.473,0.399,2.137,0.648c0.663,0.256,1.293,0.491,1.843,0.78
			c0.142,0.064,0.271,0.144,0.416,0.185c0.152,0.029,0.281,0.097,0.369,0.231c0.175,0.259,0.341,0.505,0.496,0.736
			c0.31,0.448,0.542,0.864,0.708,1.23c0.338,0.719,0.481,1.141,0.481,1.141s-0.476-0.012-1.22-0.052
			c-0.362-0.034-0.822-0.023-1.311-0.038c-0.241-0.002-0.498-0.004-0.769-0.006c-0.145,0.022-0.253-0.026-0.345-0.116
			c-0.1-0.077-0.219-0.119-0.333-0.178c-0.453-0.243-0.977-0.432-1.524-0.646c-0.55-0.208-1.15-0.372-1.769-0.537
			c-0.629-0.133-1.283-0.283-1.907-0.339c-0.55-0.109-1.491-0.104-2.08-0.142c-0.684,0.043-1.373,0.025-2.039,0.138
			c-0.674,0.06-1.32,0.212-1.947,0.344c-0.619,0.166-1.22,0.33-1.769,0.538c-0.548,0.214-1.071,0.404-1.524,0.647
			c-0.114,0.059-0.234,0.101-0.33,0.182c-0.096,0.084-0.197,0.146-0.338,0.132c-0.262-0.002-0.511-0.005-0.745-0.007
			c-0.472,0.005-0.938-0.004-1.325,0.04c-0.377,0.038-0.701,0.028-0.911,0.037C240.15,123.947,240.037,123.949,240.037,123.949z"/>
	</g>
	<path fill="none" stroke="#0A783D" stroke-width="2.1736" stroke-miterlimit="10" d="M233.993,103.755
		c0,0,11.52,15.543,2.464,36.59"/>
	<g>
		<path fill="#0A783D" d="M262.55,126.439c0,0,0.005,0.197,0.012,0.579c0.012,0.384,0,0.948,0.073,1.694
			c0.11,1.495,0.376,3.691,1.186,6.424c0.793,2.73,2.178,5.984,4.484,9.346c2.302,3.351,5.582,6.773,9.931,9.565
			c2.174,1.387,4.62,2.575,7.27,3.535c2.655,0.95,5.54,1.564,8.548,1.887c0.376,0.03,0.755,0.06,1.134,0.09l0.573,0.041l0.143,0.011
			c0.24-0.002,0.103,0,0.174,0l0.063,0.002l0.255,0.007c0.694,0.01,1.311,0.047,2.192,0.004c0.414-0.015,0.827-0.03,1.242-0.045
			c0.392-0.034,0.784-0.067,1.18-0.099c0.792-0.053,1.579-0.184,2.376-0.287c0.794-0.129,1.591-0.275,2.388-0.448
			c0.79-0.191,1.589-0.378,2.374-0.629c1.588-0.454,3.141-1.064,4.688-1.734c0.759-0.363,1.535-0.707,2.277-1.121
			c0.375-0.202,0.757-0.392,1.124-0.611l1.099-0.665c1.445-0.924,2.864-1.923,4.194-3.051c2.692-2.215,5.095-4.865,7.103-7.826
			c2.004-2.961,3.65-6.224,4.756-9.69c1.095-3.465,1.748-7.097,1.846-10.738l0.017-0.682l0.007-0.341l-0.001-0.229l-0.002-0.073
			l-0.004-0.148l-0.036-1.171l-0.01-0.292l-0.023-0.354l-0.054-0.729l-0.06-0.731l-0.03-0.363l-0.043-0.339
			c-0.206-1.812-0.554-3.604-0.994-5.367c-0.914-3.521-2.355-6.881-4.201-9.947c-1.818-3.083-4.097-5.845-6.648-8.219
			c-1.266-1.201-2.632-2.271-4.016-3.283c-0.713-0.478-1.404-0.98-2.146-1.402c-0.367-0.216-0.728-0.439-1.098-0.645
			c-0.373-0.198-0.745-0.397-1.117-0.596c-0.369-0.202-0.752-0.378-1.13-0.559c-0.381-0.176-0.754-0.363-1.138-0.526
			c-0.773-0.315-1.529-0.652-2.313-0.915c-1.543-0.586-3.126-0.997-4.692-1.353c-3.152-0.652-6.293-0.924-9.315-0.793l-0.47,0.012
			l-0.251,0.026l-0.498,0.051c-0.334,0.036-0.665,0.069-0.995,0.103c-0.665,0.071-1.274,0.11-2.084,0.271
			c-0.757,0.137-1.509,0.274-2.254,0.411c-0.381,0.06-0.716,0.163-1.06,0.26c-0.343,0.098-0.684,0.197-1.021,0.294
			c-1.365,0.349-2.646,0.886-3.904,1.374c-0.636,0.223-1.224,0.557-1.82,0.836c-0.592,0.296-1.184,0.569-1.743,0.89
			c-2.219,1.319-4.263,2.689-5.977,4.258c-0.429,0.386-0.853,0.766-1.271,1.143c-0.395,0.403-0.771,0.812-1.146,1.207
			c-0.369,0.399-0.747,0.775-1.089,1.177c-0.326,0.416-0.646,0.824-0.961,1.226c-2.497,3.225-4.029,6.411-5.018,9.068
			c-0.212,0.678-0.412,1.319-0.601,1.925c-0.092,0.3-0.182,0.59-0.259,0.873c-0.062,0.289-0.12,0.568-0.177,0.838
			c-0.213,1.073-0.443,1.962-0.488,2.715c-0.148,1.48-0.227,2.269-0.227,2.269s0.299-0.729,0.858-2.095
			c0.565-1.35,1.526-3.269,2.932-5.523c1.489-2.209,3.473-4.736,6.178-7.097c2.688-2.359,6.083-4.548,10.051-6.066
			c0.497-0.186,1.017-0.326,1.524-0.504c0.516-0.158,1.015-0.369,1.559-0.47c1.069-0.244,2.135-0.542,3.261-0.658
			c0.278-0.039,0.557-0.081,0.837-0.122c0.278-0.04,0.562-0.099,0.823-0.101c0.528-0.034,1.061-0.069,1.598-0.105l0.401-0.03
			c0.121-0.015,0.284-0.013,0.453-0.009c0.329,0.004,0.66,0.009,0.991,0.013c0.332,0.005,0.665,0.009,0.999,0.015l0.502,0.005
			l0.251,0.004c-0.355,0.011-0.066,0.007-0.131,0.009l0.055,0.006l0.11,0.011c2.352,0.182,4.727,0.591,7.047,1.321
			c2.305,0.771,4.593,1.73,6.708,3.064c1.072,0.643,2.073,1.407,3.077,2.17c0.972,0.804,1.933,1.636,2.806,2.565
			c0.875,0.924,1.716,1.891,2.461,2.937c0.399,0.502,0.738,1.049,1.109,1.574c0.327,0.553,0.691,1.085,0.986,1.658
			c1.271,2.247,2.167,4.695,2.821,7.2c0.296,1.263,0.534,2.541,0.665,3.838l0.03,0.242l0.013,0.219l0.031,0.438l0.035,0.438
			c0.003,0.079,0.014,0.135,0.015,0.23l0.008,0.294l0.022,1.171l0.002,0.146l0.001,0.075c-0.003-0.266-0.001-0.04-0.002-0.083
			l-0.009,0.246l-0.013,0.489c-0.1,5.221-1.696,10.352-4.449,14.717c-0.695,1.085-1.443,2.134-2.273,3.113
			c-0.392,0.51-0.842,0.967-1.262,1.45c-0.456,0.448-0.884,0.924-1.363,1.344c-1.861,1.747-3.953,3.193-6.134,4.406
			c-2.198,1.187-4.524,2.058-6.878,2.674c-0.592,0.131-1.179,0.298-1.776,0.39c-0.296,0.055-0.594,0.111-0.89,0.165
			c-0.276,0.038-0.552,0.075-0.827,0.112c-0.489,0.092-1.246,0.127-1.911,0.18l-0.256,0.019l-0.063,0.004
			c0.027,0.002-0.153,0.005,0.046,0.004l-0.111,0.005l-0.443,0.017c-0.297,0.013-0.593,0.024-0.887,0.037
			c-2.358,0.032-4.664-0.211-6.866-0.669c-2.204-0.459-4.289-1.166-6.239-2.013c-3.887-1.728-7.156-4.106-9.71-6.615
			c-2.557-2.515-4.429-5.14-5.744-7.451c-1.317-2.313-2.131-4.303-2.626-5.67c-0.259-0.684-0.427-1.233-0.545-1.595
			C262.612,126.627,262.55,126.439,262.55,126.439z"/>
		<g>
			<g>
				<polygon fill="#B2101C" points="296.874,44.797 289.549,59.641 273.168,62.021 285.021,73.574 282.224,89.889 296.874,82.187 
					311.524,89.889 308.727,73.574 320.579,62.021 304.2,59.641 				"/>
			</g>
			<g>
				<polygon fill="#EC1C24" points="296.874,7.709 289.549,22.552 273.168,24.932 285.021,36.485 282.224,52.8 296.874,45.097 
					311.524,52.8 308.727,36.485 320.579,24.932 304.2,22.552 				"/>
			</g>
		</g>
		<g>
			<g>
				<polygon fill="#B2101C" points="203.685,44.797 196.358,59.641 179.979,62.021 191.832,73.574 189.033,89.889 203.685,82.187 
					218.335,89.889 215.537,73.574 227.389,62.021 211.01,59.641 				"/>
			</g>
			<g>
				<polygon fill="#EC1C24" points="203.685,7.709 196.358,22.552 179.979,24.932 191.832,36.485 189.033,52.8 203.685,45.097 
					218.335,52.8 215.537,36.485 227.389,24.932 211.01,22.552 				"/>
			</g>
		</g>
		<path fill="none" stroke="#0A783D" stroke-width="2.1736" stroke-miterlimit="10" d="M268.596,101.729
			c0,0-11.521,15.541-2.464,36.588"/>
	</g>
	<pattern  id="SVGID_2_" xlink:href="#New_Pattern" patternTransform="matrix(1 0 0 1 252.7295 0)">
	</pattern>
	<path fill="url(#SVGID_2_)" d="M262.55,126.871c0,0,0.005,0.199,0.012,0.581c0.012,0.382,0,0.948,0.073,1.694
		c0.11,1.496,0.376,3.692,1.186,6.424c0.793,2.729,2.178,5.984,4.484,9.346c2.302,3.351,5.582,6.772,9.931,9.565
		c2.174,1.387,4.62,2.575,7.27,3.534c2.655,0.95,5.54,1.565,8.548,1.889c0.376,0.028,0.755,0.058,1.134,0.088l0.573,0.042
		l0.143,0.011c0.24-0.002,0.103,0,0.174,0.002l0.063,0.001l0.255,0.006c0.694,0.009,1.311,0.049,2.192,0.004
		c0.414-0.015,0.827-0.03,1.242-0.047c0.392-0.032,0.784-0.066,1.18-0.098c0.792-0.052,1.579-0.184,2.376-0.287
		c0.794-0.127,1.591-0.277,2.388-0.448c0.79-0.191,1.589-0.379,2.374-0.63c1.588-0.454,3.141-1.064,4.688-1.735
		c0.759-0.362,1.535-0.705,2.277-1.119c0.375-0.203,0.757-0.392,1.124-0.611l1.099-0.667c1.445-0.924,2.864-1.921,4.194-3.051
		c2.692-2.213,5.095-4.863,7.103-7.824c2.004-2.961,3.65-6.224,4.756-9.69c1.095-3.465,1.748-7.097,1.846-10.738l0.017-0.684
		l0.007-0.341l-0.001-0.227l-0.002-0.073l-0.004-0.148l-0.036-1.171l-0.01-0.292l-0.023-0.354l-0.054-0.73l-0.06-0.729l-0.03-0.364
		l-0.043-0.339c-0.206-1.812-0.554-3.604-0.994-5.367c-0.914-3.521-2.355-6.882-4.201-9.947c-1.818-3.083-4.097-5.845-6.648-8.22
		c-1.266-1.201-2.632-2.271-4.016-3.283c-0.713-0.478-1.404-0.98-2.146-1.402c-0.367-0.215-0.728-0.438-1.098-0.645
		c-0.373-0.199-0.745-0.397-1.117-0.596c-0.369-0.204-0.752-0.378-1.13-0.558c-0.381-0.176-0.754-0.364-1.138-0.527
		c-0.773-0.314-1.529-0.652-2.313-0.914c-1.543-0.587-3.126-0.997-4.692-1.354c-3.152-0.652-6.293-0.926-9.315-0.794l-0.47,0.013
		l-0.251,0.026l-0.498,0.052c-0.334,0.032-0.665,0.067-0.995,0.101c-0.665,0.071-1.274,0.111-2.084,0.272
		c-0.757,0.137-1.509,0.273-2.254,0.411c-0.381,0.06-0.716,0.163-1.06,0.26c-0.343,0.097-0.684,0.197-1.021,0.294
		c-1.365,0.348-2.646,0.886-3.904,1.374c-0.636,0.223-1.224,0.556-1.82,0.837c-0.592,0.294-1.184,0.568-1.743,0.889
		c-2.219,1.319-4.263,2.687-5.977,4.257c-0.429,0.386-0.853,0.767-1.271,1.143c-0.395,0.403-0.771,0.812-1.146,1.205
		c-0.369,0.401-0.747,0.778-1.089,1.179c-0.326,0.414-0.646,0.825-0.961,1.226c-2.497,3.226-4.029,6.411-5.018,9.068
		c-0.212,0.679-0.412,1.319-0.601,1.925c-0.092,0.3-0.182,0.59-0.259,0.873c-0.062,0.289-0.12,0.568-0.177,0.836
		c-0.213,1.076-0.443,1.964-0.488,2.717c-0.148,1.48-0.227,2.27-0.227,2.27s0.299-0.729,0.858-2.095
		c0.565-1.349,1.526-3.268,2.932-5.522c1.489-2.209,3.473-4.738,6.178-7.097c2.688-2.359,6.083-4.548,10.051-6.066
		c0.497-0.184,1.017-0.326,1.524-0.504c0.516-0.157,1.015-0.369,1.559-0.47c1.069-0.244,2.135-0.542,3.261-0.658
		c0.278-0.042,0.557-0.081,0.837-0.122c0.278-0.04,0.562-0.102,0.823-0.102c0.528-0.034,1.061-0.069,1.598-0.105l0.401-0.03
		c0.121-0.017,0.284-0.013,0.453-0.009c0.329,0.003,0.66,0.009,0.991,0.013c0.332,0.005,0.665,0.009,0.999,0.015l0.502,0.008
		l0.251,0.002c-0.355,0.011-0.066,0.005-0.131,0.009l0.055,0.006l0.11,0.011c2.352,0.182,4.727,0.59,7.047,1.319
		c2.305,0.772,4.593,1.731,6.708,3.066c1.072,0.643,2.073,1.407,3.077,2.168c0.972,0.806,1.933,1.638,2.806,2.567
		c0.875,0.924,1.716,1.893,2.461,2.937c0.399,0.502,0.738,1.049,1.109,1.574c0.327,0.553,0.691,1.085,0.986,1.659
		c1.271,2.245,2.167,4.694,2.821,7.2c0.296,1.262,0.534,2.542,0.665,3.836l0.03,0.244l0.013,0.217l0.031,0.44l0.035,0.438
		c0.003,0.079,0.014,0.135,0.015,0.23l0.008,0.294l0.022,1.173l0.002,0.145l0.001,0.073c-0.003-0.265-0.001-0.038-0.002-0.081
		l-0.009,0.246l-0.013,0.489c-0.1,5.221-1.696,10.352-4.449,14.716c-0.695,1.083-1.443,2.135-2.273,3.113
		c-0.392,0.51-0.842,0.967-1.262,1.451c-0.456,0.448-0.884,0.924-1.363,1.344c-1.861,1.747-3.953,3.191-6.134,4.406
		c-2.198,1.186-4.524,2.058-6.878,2.674c-0.592,0.131-1.179,0.298-1.776,0.39c-0.296,0.054-0.594,0.11-0.89,0.165
		c-0.276,0.037-0.552,0.075-0.827,0.112c-0.489,0.092-1.246,0.127-1.911,0.18l-0.256,0.017l-0.063,0.005
		c0.027,0.002-0.153,0.006,0.046,0.004l-0.111,0.006l-0.443,0.017c-0.297,0.013-0.593,0.024-0.887,0.038
		c-2.358,0.032-4.664-0.212-6.866-0.669c-2.204-0.459-4.289-1.166-6.239-2.013c-3.887-1.728-7.156-4.106-9.71-6.617
		c-2.557-2.515-4.429-5.139-5.744-7.449c-1.317-2.313-2.131-4.303-2.626-5.671c-0.259-0.682-0.427-1.231-0.545-1.595
		C262.612,127.06,262.55,126.871,262.55,126.871z"/>
	<g>
		<path fill="#B9FCD3" d="M296.874,85.841c0,0,1.069-0.008,2.938,0.02c0.468-0.01,0.983,0.043,1.547,0.12
			c0.565,0.067,1.177,0.14,1.83,0.218c0.662,0.052,1.342,0.213,2.062,0.376c0.72,0.164,1.479,0.333,2.265,0.541
			c1.529,0.534,3.233,1.026,4.896,1.888c0.424,0.197,0.854,0.397,1.288,0.6c0.426,0.22,0.835,0.482,1.262,0.726
			c0.837,0.511,1.738,0.971,2.536,1.612c0.808,0.624,1.692,1.184,2.472,1.891c0.776,0.709,1.601,1.393,2.349,2.163
			c0.719,0.799,1.459,1.592,2.171,2.414c0.651,0.873,1.305,1.748,1.959,2.624c0.561,0.938,1.121,1.876,1.679,2.811
			c0.505,0.963,0.939,1.959,1.405,2.927c0.819,1.987,1.483,4.002,1.903,6.004c0.274,0.987,0.404,1.984,0.52,2.96
			c0.127,0.974,0.268,1.924,0.254,2.862c0.017,0.945,0.068,1.815,0.052,2.741c-0.069,0.86-0.137,1.691-0.201,2.49
			c-0.032,0.794-0.211,1.573-0.337,2.303c-0.149,0.728-0.246,1.427-0.418,2.062c-0.38,1.26-0.656,2.368-0.978,3.25
			c-0.697,1.748-1.115,2.726-1.115,2.726s0.275-1.04,0.792-2.824c0.236-0.898,0.407-2.019,0.666-3.279
			c0.11-0.633,0.141-1.318,0.22-2.029c0.059-0.716,0.196-1.446,0.173-2.256c0.012-0.8,0.023-1.634,0.036-2.498
			c-0.041-0.797-0.123-1.708-0.185-2.594c-0.028-0.902-0.209-1.811-0.376-2.739c-0.079-0.464-0.159-0.934-0.24-1.408
			c-0.066-0.477-0.237-0.937-0.352-1.411c-0.444-1.909-1.175-3.798-1.954-5.69c-0.455-0.918-0.877-1.863-1.365-2.777
			c-0.539-0.885-1.081-1.774-1.622-2.663c-0.615-0.84-1.229-1.68-1.843-2.517c-0.672-0.789-1.371-1.55-2.048-2.321
			c-0.712-0.736-1.48-1.405-2.2-2.109c-0.726-0.698-1.557-1.253-2.312-1.875c-0.744-0.643-1.604-1.09-2.379-1.627
			c-0.397-0.253-0.78-0.525-1.179-0.756c-0.409-0.214-0.813-0.425-1.211-0.634c-1.567-0.898-3.174-1.478-4.627-2.101
			c-0.745-0.255-1.477-0.452-2.162-0.678c-0.687-0.224-1.339-0.443-1.971-0.55c-0.629-0.134-1.219-0.26-1.764-0.376
			c-0.544-0.126-1.051-0.227-1.519-0.259C297.934,85.985,296.874,85.841,296.874,85.841z"/>
	</g>
</g>
</svg>
