<?xml version="1.0" encoding="utf-8"?>
<!-- Generator: Adobe Illustrator 18.0.0, SVG Export Plug-In . SVG Version: 6.00 Build 0)  -->
<!DOCTYPE svg PUBLIC "-//W3C//DTD SVG 1.1//EN" "http://www.w3.org/Graphics/SVG/1.1/DTD/svg11.dtd">
<svg version="1.1" id="content" xmlns="http://www.w3.org/2000/svg" xmlns:xlink="http://www.w3.org/1999/xlink" x="0px" y="0px"
	 width="500px" height="500px" viewBox="0 0 500 500" enable-background="new 0 0 500 500" xml:space="preserve">
<g id="bounds" display="none">
	
		<rect x="124.4" y="-7.4" display="inline" fill="none" stroke="#000000" stroke-width="1.3055" stroke-miterlimit="10" width="250.4" height="250.4"/>
</g>
<g>
	<path fill="#010101" d="M158.3,115.9c-1.3,0-2.3-1-2.3-2.3c0-1.3,1.1-2.3,2.3-2.3c1.3,0,2.3,1,2.3,2.3
		C160.7,114.9,159.6,115.9,158.3,115.9"/>
	<path opacity="0.5" fill="#FFFFFF" enable-background="new    " d="M346.5,115.4v-4.2h0c0,0,0.3-3.8-4.5-3.8h-7.4
		c0,0-3.5,0.2-4.1-1.7l0,0.1c-5-14.6-18.7-25-34.9-25c-16,0-29.5,10.1-34.7,24.3c-0.1,0.3-0.4,1.1-0.9,1.2c-0.5,0.2-1.4-0.2-1.7-0.4
		c-2.7-1.5-5-2.4-8.5-2.4c-3.5,0-5.8,0.9-8.5,2.4c-0.3,0.2-1.2,0.6-1.7,0.4c-0.5-0.2-0.8-0.9-0.9-1.2c-5.2-14.2-18.8-24.3-34.7-24.3
		c-16.2,0-30,10.5-34.9,25l0-0.1c-0.7,1.8-4.1,1.7-4.1,1.7h-7.4c-4.8,0-4.5,3.8-4.5,3.8v4.2c0,0-0.3,3.8,4.5,3.8h2.9
		c0,0,5.7,0,7.2,5.8l0-0.1c3.3,17,18.3,29.8,36.3,29.8c20.4,0,37-16.5,37-37c0-4.2,3.4-7.7,8.9-7.7c5.5,0,8.9,3.4,8.9,7.7
		c0,20.4,16.5,37,37,37c18,0,32.9-12.8,36.3-29.8v0.1c1.6-5.8,7.2-5.8,7.2-5.8h2.9C346.8,119.1,346.5,115.4,346.5,115.4z
		 M203.8,144.9c-15,0-27.1-12.1-27.1-27.1c0-15,12.1-27.1,27.1-27.1c15,0,27.1,12.1,27.1,27.1C230.9,132.7,218.7,144.9,203.8,144.9z
		 M295.5,144.9c-15,0-27.1-12.1-27.1-27.1c0-15,12.1-27.1,27.1-27.1c15,0,27.1,12.1,27.1,27.1C322.6,132.7,310.5,144.9,295.5,144.9z
		"/>
	<path fill="#010101" d="M341,115.9c-1.3,0-2.3-1-2.3-2.3c0-1.3,1.1-2.3,2.3-2.3c1.3,0,2.3,1,2.3,2.3
		C343.3,114.9,342.3,115.9,341,115.9"/>
	<path opacity="0.5" fill="#FFFFFF" enable-background="new    " d="M158.3,115.9c-1.3,0-2.3-1-2.3-2.3c0-1.3,1.1-2.3,2.3-2.3
		c1.3,0,2.3,1,2.3,2.3C160.7,114.9,159.6,115.9,158.3,115.9"/>
	<path opacity="0.5" fill="#FFFFFF" enable-background="new    " d="M341,115.9c-1.3,0-2.3-1-2.3-2.3c0-1.3,1.1-2.3,2.3-2.3
		c1.3,0,2.3,1,2.3,2.3C343.3,114.9,342.3,115.9,341,115.9"/>
</g>
<rect id="position" display="none" fill="none" stroke="#000000" width="500" height="500"/>
</svg>
