<?xml version="1.0" encoding="utf-8"?>
<!-- Generator: Adobe Illustrator 18.0.0, SVG Export Plug-In . SVG Version: 6.00 Build 0)  -->
<!DOCTYPE svg PUBLIC "-//W3C//DTD SVG 1.1//EN" "http://www.w3.org/Graphics/SVG/1.1/DTD/svg11.dtd">
<svg version="1.1" id="content" xmlns="http://www.w3.org/2000/svg" xmlns:xlink="http://www.w3.org/1999/xlink" x="0px" y="0px"
	 width="500px" height="500px" viewBox="0 0 500 500" enable-background="new 0 0 500 500" xml:space="preserve">
<g id="bounds" display="none">
	
		<rect x="134.3" y="3.3" display="inline" fill="none" stroke="#000000" stroke-width="1.2012" stroke-miterlimit="10" width="230.4" height="230.4"/>
</g>
<rect id="position" display="none" fill="none" stroke="#000000" width="500" height="500"/>
<g>
	
		<line fill="none" stroke="#E7E8DD" stroke-width="10" stroke-linecap="round" stroke-miterlimit="10" x1="166.6" y1="98" x2="330.1" y2="98"/>
	<path opacity="0.71" fill="#80F0FF" enable-background="new    " d="M210.6,117.5h-17.7c-2.5,0-4.5-2-4.5-4.5v-3.4
		c0-2.5,2-4.5,4.5-4.5h17.7V117.5z"/>
	<path fill="#838E91" d="M193,119.6h-24.6c-2.5,0-4.5-2-4.5-4.5v-7.6c0-2.5,2-4.5,4.5-4.5H193V119.6z"/>
	<circle fill="#231F20" cx="174.7" cy="111.2" r="4.7"/>
	<polygon opacity="0.71" fill="#DCFEFF" enable-background="new    " points="199.3,117.5 193,117.5 204.4,105.1 210.6,105.1 	"/>
</g>
</svg>
