<?xml version="1.0" encoding="utf-8"?>
<!-- Generator: Adobe Illustrator 18.0.0, SVG Export Plug-In . SVG Version: 6.00 Build 0)  -->
<!DOCTYPE svg PUBLIC "-//W3C//DTD SVG 1.1//EN" "http://www.w3.org/Graphics/SVG/1.1/DTD/svg11.dtd">
<svg version="1.1" id="Layer_1" xmlns="http://www.w3.org/2000/svg" xmlns:xlink="http://www.w3.org/1999/xlink" x="0px" y="0px"
	 width="500px" height="500px" viewBox="0 0 500 500" enable-background="new 0 0 500 500" xml:space="preserve">
<rect id="position" x="0.5" y="0.5" display="none" fill="none" stroke="#000000" width="499" height="499"/>
<g id="bounds_1_" display="none">
	<g id="bounds_2_" display="inline">
		
			<rect x="134.8" y="2.8" fill="none" stroke="#000000" stroke-width="1.2012" stroke-miterlimit="10" width="230.4" height="230.4"/>
	</g>
</g>
<g id="content">
	<g id="glasses">
		<path opacity="0.2" fill="#FFFFFF" enable-background="new    " d="M164.7,102.7c0,0,28.5-6.7,51-2.2c22.2,4.5,23.7,6.1,23.7,6.1
			s-2.2,24.2-9.1,25.9c-6.9,1.8-50.1,8.4-60.8-4.4C166.5,119.4,164.7,102.7,164.7,102.7z"/>
		<path opacity="0.2" fill="#FFFFFF" enable-background="new    " d="M166.4,114.6c0,0,31,6.6,70.8,0.5c0-7,0.6-9.3,0.6-9.3
			S225.3,99,202.9,99s-39.4,6.5-39.4,6.5L166.4,114.6z"/>
		<path opacity="0.2" fill="#FFFFFF" enable-background="new    " d="M333.7,114.6c0,0-31,6.6-70.8,0.5c0-7-0.6-9.3-0.6-9.3
			s12.5-6.8,34.9-6.8s39.4,6.5,39.4,6.5L333.7,114.6z"/>
		<path opacity="0.2" fill="#FFFFFF" enable-background="new    " d="M335.4,102.7c0,0-28.5-6.7-51-2.2c-22.2,4.5-23.7,6.1-23.7,6.1
			s2.2,24.2,9.1,25.9c6.9,1.8,50.1,8.4,60.8-4.4C333.6,119.4,335.4,102.7,335.4,102.7z"/>
		<path fill="#121212" d="M345.9,103.2v-0.8l-0.7-0.2c-0.2,0-19.8-4.7-35.8-5.2c-1.7-0.1-3.5-0.1-5.3-0.1c-15.6,0-29.9,1.9-36.6,3.6
			c-7.8,2-17.4,2.5-17.5,2.5l0,0c-0.1,0-9.6-0.5-17.5-2.5c-6.7-1.7-20.9-3.6-36.6-3.6c-1.8,0-3.6,0-5.3,0.1
			c-16,0.5-35.6,5.2-35.8,5.2l-0.7,0.2v0.8c-0.1,5.5,1.4,7.6,6,8c2.5,0.2,3.8,6.3,4.7,10.3c0.2,0.9,0.4,1.7,0.5,2.4l0.1,0.5
			c1.1,4.8,3.5,14.8,35.8,14.8c19.9,0,31.2-3,34.5-9.1c1.3-2.4,2.5-5.4,3.6-8.3c2-5.1,4.2-10.9,6.8-10.9h3.9l0,0h3.9
			c2.5,0,4.8,5.8,6.8,10.9c1.1,2.9,2.3,5.8,3.6,8.3c3.3,6.1,14.6,9.1,34.5,9.1c32.3,0,34.7-10,35.8-14.8l0.1-0.5
			c0.2-0.7,0.4-1.5,0.5-2.4c0.9-4,2.2-10.1,4.7-10.3C344.5,110.8,346.1,108.7,345.9,103.2z M235.9,115.4c-2,9.2-3.9,13.9-9.2,15.8
			c-5.1,1.9-13.7,2.9-23.6,2.9c-10.8,0-20.9-1.3-26.2-3.3c-9.9-3.8-7.7-22.1-7.6-22.3c0-0.2,0.6-4.1,7.8-5.3
			c6.9-1.3,14.4-1.9,22.2-1.9c11.8,0,22,1.4,28.5,2.6C235.7,105.4,236.8,108.2,235.9,115.4z M323.2,130.8
			c-5.3,2.1-15.4,3.3-26.2,3.3c-9.9,0-18.5-1.1-23.6-2.9c-5.3-1.8-7.2-6.5-9.2-15.8c-0.8-7.2,0.3-10,8.1-11.5
			c6.5-1.2,16.6-2.6,28.5-2.6c7.8,0,15.2,0.6,22.2,1.9c7.2,1.2,7.8,5.1,7.8,5.3C330.8,108.6,333.1,126.9,323.2,130.8z"/>
	</g>
</g>
</svg>
