<?xml version="1.0" encoding="utf-8"?>
<!-- Generator: Adobe Illustrator 18.0.0, SVG Export Plug-In . SVG Version: 6.00 Build 0)  -->
<!DOCTYPE svg PUBLIC "-//W3C//DTD SVG 1.1//EN" "http://www.w3.org/Graphics/SVG/1.1/DTD/svg11.dtd">
<svg version="1.1" id="Layer_1" xmlns="http://www.w3.org/2000/svg" xmlns:xlink="http://www.w3.org/1999/xlink" x="0px" y="0px"
	 width="500px" height="500px" viewBox="0 0 500 500" enable-background="new 0 0 500 500" xml:space="preserve">
<rect id="position" x="0.5" y="0.5" display="none" fill="none" stroke="#000000" width="499" height="499"/>
<g id="bounds_1_" display="none">
	<g id="bounds_2_" display="inline">
		
			<rect x="134.3" y="3.3" fill="none" stroke="#000000" stroke-width="1.2012" stroke-miterlimit="10" width="230.4" height="230.4"/>
	</g>
</g>
<path d="M249.4,134.1c32.1-0.1,45.6,36.9,103.1,0.4c-8-19.1-22.8-35.3-41.9-46.4c-26.8-0.6-46.2,7.3-61,7.4
	c-14.8-0.1-34.1-8-60.8-7.5c-19.2,11.1-34.1,27.4-42.1,46.5C204.2,170.9,217.4,134,249.4,134.1z M295.2,93.9
	c13,0,23.5,10.5,23.5,23.5s-10.5,23.5-23.5,23.5s-23.5-10.5-23.5-23.5S282.2,93.9,295.2,93.9z M180.5,117.4
	c0-13,10.5-23.5,23.5-23.5s23.5,10.5,23.5,23.5S217,140.9,204,140.9S180.5,130.4,180.5,117.4z"/>
</svg>
