<?xml version="1.0" encoding="utf-8"?>
<!-- Generator: Adobe Illustrator 13.0.0, SVG Export Plug-In . SVG Version: 6.00 Build 14948)  -->
<!DOCTYPE svg PUBLIC "-//W3C//DTD SVG 1.1//EN" "http://www.w3.org/Graphics/SVG/1.1/DTD/svg11.dtd">
<svg version="1.1" id="Layer_1" xmlns="http://www.w3.org/2000/svg" xmlns:xlink="http://www.w3.org/1999/xlink" x="0px" y="0px"
	 width="96px" height="96px" viewBox="0 0 96 96" enable-background="new 0 0 96 96" xml:space="preserve">
<rect display="none" fill="#FFFFFF" stroke="#000000" width="96" height="96"/>
<path fill="#78C557" d="M15.854,46.873c-0.198-2.118,2.895-3.715,7.689-3.911c4.813-0.337,11.325,0.73,18.455,0.664
	c7.134,0.063,13.645-0.995,18.458-0.65c4.791,0.201,7.885,1.808,7.683,3.926c-0.529,4.213-12.089,7.479-26.144,7.479
	C27.937,54.365,16.378,51.088,15.854,46.873"/>
<path fill="#78C557" d="M41.891,19.083c-9.457-0.005-15.276,1.695-15.276,1.695l0.825,26.628c3.868,2.718,14.44,1.242,14.44,1.242
	s10.57,1.227,14.438-1.491l0.845-26.37C57.166,20.785,51.35,19.085,41.891,19.083"/>
<path fill="#90A537" d="M57.166,20.83c0-1.421-7.25-2.572-15.157-2.578C34.1,18.25,26.616,19.4,26.616,20.817
	c0,1.42,7.48,2.574,15.389,2.575C49.916,23.396,57.163,22.249,57.166,20.83"/>
<path fill="#90A537" d="M27.44,47.406l0.002-3.674c-0.002,1.419,6.644,2.57,14.556,2.576c7.91,0.002,14.32-1.145,14.32-2.565v3.751
	c0,1.421-6.414,2.57-14.323,2.566S27.44,48.904,27.44,47.483"/>
<path fill="#ACC640" d="M58.973,77.768c-1.365-1.365,2.687-7.627,9.043-13.984c6.362-6.362,12.625-10.413,13.99-9.049
	c1.361,1.365-2.688,7.625-9.047,13.99C66.598,75.083,60.336,79.132,58.973,77.768"/>
<path fill="#ACC640" d="M82.006,54.736L58.973,77.771l-5.682-5.682l23.033-23.034L82.006,54.736z"/>
<path fill="#7F8C34" d="M53.29,72.087c-1.364-1.364,2.687-7.627,9.047-13.985c6.358-6.362,12.623-10.411,13.986-9.047
	c1.362,1.361-2.687,7.623-9.046,13.988C60.916,69.4,54.654,73.451,53.29,72.087"/>
<path fill="#7F8C34" d="M62.337,58.102c3.481-3.481,9.128-3.482,12.608,0c3.484,3.479,3.484,9.125-0.002,12.607
	c-3.479,3.48-9.125,3.484-12.606,0C58.854,67.229,58.854,61.581,62.337,58.102"/>
<path fill="none" stroke="#78C557" stroke-width="2.518" d="M62.337,58.102c3.481-3.481,9.128-3.482,12.608,0
	c3.484,3.479,3.484,9.125-0.002,12.607c-3.479,3.48-9.125,3.484-12.606,0C58.854,67.229,58.854,61.581,62.337,58.102z"/>
<path fill="#78C557" d="M66.288,61.162c-0.205-0.204-0.563-0.168-0.813,0.08c-0.244,0.244-0.281,0.605-0.078,0.809l2.709,2.713
	c0.203,0.202,0.564,0.166,0.812-0.082c0.246-0.244,0.282-0.608,0.078-0.812L66.288,61.162z"/>
<path fill="#78C557" d="M64.604,68.104c-0.203,0.203-0.168,0.565,0.078,0.813c0.244,0.244,0.61,0.28,0.814,0.076l3.5-3.501
	c0.203-0.201,0.167-0.562-0.078-0.811c-0.247-0.246-0.611-0.281-0.812-0.078L64.604,68.104z"/>
<path fill="#78C557" d="M68.018,63.782c0.496-0.5,1.305-0.496,1.799,0c0.5,0.495,0.5,1.3,0,1.8c-0.494,0.498-1.303,0.498-1.799,0
	C67.52,65.086,67.52,64.277,68.018,63.782"/>
</svg>
