<?xml version="1.0" encoding="utf-8"?>
<!-- Generator: Adobe Illustrator 18.0.0, SVG Export Plug-In . SVG Version: 6.00 Build 0)  -->
<!DOCTYPE svg PUBLIC "-//W3C//DTD SVG 1.1 Basic//EN" "http://www.w3.org/Graphics/SVG/1.1/DTD/svg11-basic.dtd">
<svg version="1.1" baseProfile="basic"
	 id="Layer_1" xmlns:sodipodi="http://sodipodi.sourceforge.net/DTD/sodipodi-0.dtd" xmlns:cc="http://creativecommons.org/ns#" xmlns:dc="http://purl.org/dc/elements/1.1/" xmlns:inkscape="http://www.inkscape.org/namespaces/inkscape" xmlns:svg="http://www.w3.org/2000/svg" xmlns:rdf="http://www.w3.org/1999/02/22-rdf-syntax-ns#" sodipodi:docname="accessories_off.svg" inkscape:version="0.47 r22583"
	 xmlns="http://www.w3.org/2000/svg" xmlns:xlink="http://www.w3.org/1999/xlink" x="0px" y="0px" viewBox="0 0 96 96"
	 xml:space="preserve">
<g id="bounds" display="none">
	<rect id="rect3" fill="#FFFFFF" stroke="#000000" width="96" height="96"/>
</g>
<path fill="#B1B1B1" d="M31,31c1.8-1.4,4-1.5,6.1-1.9c6-0.9,12.1-0.6,18.2-0.4c2.4,0,4.7,0.6,7,1.1c0.9,0.2,1.8,0.7,2.7,1.1
	c0,2.4,0,4.8,0,7c0,1.4-0.2,2.8-0.3,4.2c-0.1,3.7-0.3,7.4-0.4,11.1c0,0.8,0,1.6,0,2.5c2.2,0.2,4.2,0.3,6.1,0.7
	c1.7,0.3,3.5,0.7,5,1.4c2.2,1.1,2.3,3,0.6,4.8c-1.8,1.9-4.2,2.7-6.6,3.5c-4.6,1.4-9.4,2.2-14.2,2.4c-3.4,0.1-6.8,0.5-10.2,0.3
	c-7-0.3-13.9-0.9-20.4-3.6c-1.5-0.6-3-1.5-4.3-2.6c-1.8-1.6-1.5-3.6,0.6-4.7c1.4-0.7,3-1.2,4.6-1.4c1.9-0.3,3.9-0.4,6.1-0.7
	C31.9,47.5,31.1,39.4,31,31z"/>
</svg>
