<?xml version="1.0" encoding="utf-8"?>
<!-- Generator: Adobe Illustrator 18.0.0, SVG Export Plug-In . SVG Version: 6.00 Build 0)  -->
<!DOCTYPE svg PUBLIC "-//W3C//DTD SVG 1.1 Basic//EN" "http://www.w3.org/Graphics/SVG/1.1/DTD/svg11-basic.dtd">
<svg version="1.1" baseProfile="basic" id="Layer_1" xmlns:sketch="http://www.bohemiancoding.com/sketch/ns"
	 xmlns="http://www.w3.org/2000/svg" xmlns:xlink="http://www.w3.org/1999/xlink" x="0px" y="0px" viewBox="0 0 500 500" width="500" height="500"
	 xml:space="preserve">
<title>Untitled 2</title>
<desc>Created with Sketch.</desc>
<g id="Page-1" sketch:type="MSPage">
	<g id="template" sketch:type="MSLayerGroup">
		<g id="bounds">
			<rect x="0" y="0" fill="none" stroke="#EAEAEA" stroke-miterlimit="10" width="499.5" height="499.5"/>
		</g>
		<g id="androd" sketch:type="MSShapeGroup">
			<path id="Shape" fill="#78C557" d="M301.3,83.3L321.5,54c1.2-1.7,0.9-4-0.7-5.1c-1.6-1.1-3.8-0.5-5,1.2l-21,30.4
				c-13.8-5.4-29.1-8.5-45.3-8.5s-31.5,3-45.3,8.5l-20.9-30.4c-1.2-1.7-3.4-2.3-5-1.2c-1.6,1.1-1.9,3.4-0.7,5.1l20.2,29.3
				c-32.1,14.9-54.5,43.3-57.4,76.3h218.3C355.9,126.6,333.4,98.2,301.3,83.3"/>
			<path id="Shape_1_" fill="#FFFFFF" d="M204,129.4c-6.7,0-12.1-5.4-12.1-12.1c0-6.7,5.4-12.1,12.1-12.1c6.7,0,12.1,5.4,12.1,12.1
				C216,124,210.6,129.4,204,129.4"/>
			<path id="Shape_2_" fill="#FFFFFF" d="M295.2,129.4c-6.7,0-12.1-5.4-12.1-12.1c0-6.7,5.4-12.1,12.1-12.1
				c6.7,0,12.1,5.4,12.1,12.1C307.2,124,301.8,129.4,295.2,129.4"/>
			<path id="Shape_3_" fill="#78C557" d="M126.4,297.6c0,13.5-10.9,24.4-24.4,24.4l0,0c-13.4,0-24.4-10.9-24.4-24.4v-98.5
				c0-13.4,10.9-24.4,24.4-24.4l0,0c13.5,0,24.4,10.9,24.4,24.4V297.6L126.4,297.6z"/>
			<path id="Shape_4_" fill="#78C557" d="M140.4,175.5v177.9c0,10.6,8.6,19.1,19.1,19.1h22.6v54.7c0,13.5,10.9,24.4,24.4,24.4
				c13.5,0,24.4-10.9,24.4-24.4v-54.7h37.4v54.7c0,13.5,10.9,24.4,24.4,24.4c13.5,0,24.4-10.9,24.4-24.4v-54.7h22.6
				c10.6,0,19.1-8.6,19.1-19.1V175.5H140.4L140.4,175.5z"/>
			<path id="Shape_5_" fill="#78C557" d="M372.7,297.6c0,13.5,10.9,24.4,24.4,24.4l0,0c13.4,0,24.4-10.9,24.4-24.4v-98.5
				c0-13.4-10.9-24.4-24.4-24.4l0,0c-13.5,0-24.4,10.9-24.4,24.4V297.6L372.7,297.6z"/>
		</g>
	</g>
</g>
</svg>
