<?xml version="1.0" encoding="utf-8"?>
<!-- Generator: Adobe Illustrator 18.0.0, SVG Export Plug-In . SVG Version: 6.00 Build 0)  -->
<!DOCTYPE svg PUBLIC "-//W3C//DTD SVG 1.1 Basic//EN" "http://www.w3.org/Graphics/SVG/1.1/DTD/svg11-basic.dtd">
<svg version="1.1" baseProfile="basic" id="Layer_1"
	 xmlns="http://www.w3.org/2000/svg" xmlns:xlink="http://www.w3.org/1999/xlink" x="0px" y="0px" viewBox="0 0 100 100"
	 xml:space="preserve">
<g id="bounds" display="none">
	<rect x="-0.1" fill="none" stroke="#78C557" stroke-miterlimit="10" width="100" height="100"/>
</g>
<g id="glasses_2_">
	<circle fill="#C1C1C1" cx="33.7" cy="50.1" r="11.4"/>
	<circle fill="#C1C1C1" cx="68.6" cy="50.1" r="11.4"/>
	<path fill="#A7A7A7" d="M86.7,49.2v-1.5h0c0,0,0.1-1.4-1.7-1.4h-2.7c0,0-1.3,0.1-1.5-0.6l0,0.1C79,40.3,74,36.5,68,36.5
		c-5.9,0-10.8,3.7-12.7,8.9c0,0.1-0.1,0.4-0.3,0.5c-0.2,0.1-0.5-0.1-0.6-0.2c-1-0.6-1.8-0.9-3.1-0.9c-1.3,0-2.1,0.3-3.1,0.9
		c-0.1,0.1-0.4,0.2-0.6,0.2c-0.2-0.1-0.3-0.3-0.3-0.5c-1.9-5.2-6.9-8.9-12.7-8.9c-6,0-11,3.8-12.8,9.2l0-0.1
		c-0.3,0.7-1.5,0.6-1.5,0.6h-2.7c-1.8,0-1.7,1.4-1.7,1.4v1.5c0,0-0.1,1.4,1.7,1.4h1.1c0,0,2.1,0,2.7,2.1l0,0c1.2,6.2,6.7,11,13.3,11
		c7.5,0,13.6-6.1,13.6-13.6c0-1.6,1.3-2.8,3.3-2.8c2,0,3.3,1.3,3.3,2.8c0,7.5,6.1,13.6,13.6,13.6c6.6,0,12.1-4.7,13.3-11v0
		c0.6-2.1,2.7-2.1,2.7-2.1h1.1C86.8,50.6,86.7,49.2,86.7,49.2z M34.3,60c-5.5,0-9.9-4.5-9.9-9.9c0-5.5,4.5-9.9,9.9-9.9
		c5.5,0,9.9,4.5,9.9,9.9C44.3,55.6,39.8,60,34.3,60z M68,60c-5.5,0-9.9-4.5-9.9-9.9c0-5.5,4.4-9.9,9.9-9.9c5.5,0,9.9,4.5,9.9,9.9
		C78,55.6,73.5,60,68,60z"/>
</g>
</svg>
