<?xml version="1.0" encoding="utf-8"?>
<!-- Generator: Adobe Illustrator 18.0.0, SVG Export Plug-In . SVG Version: 6.00 Build 0)  -->
<!DOCTYPE svg PUBLIC "-//W3C//DTD SVG 1.1 Basic//EN" "http://www.w3.org/Graphics/SVG/1.1/DTD/svg11-basic.dtd">
<svg version="1.1" baseProfile="basic" id="Layer_1"
	 xmlns="http://www.w3.org/2000/svg" xmlns:xlink="http://www.w3.org/1999/xlink" x="0px" y="0px" viewBox="0 0 100 100"
	 xml:space="preserve">
<g id="bounds" display="none">
	<rect x="-0.1" fill="none" stroke="#78C557" stroke-miterlimit="10" width="100" height="100"/>
</g>
<path fill="#C1C1C1" d="M58.7,25.6c-0.6,3.2-3.6,5.6-8.2,5.6c-4.6,0-7.6-2.4-8.2-5.6l-22.9,3.3V44l0,0l13,1.5v30.8h36.1V46.1
	l12.9-1.3l0,0V29.7L58.7,25.6z"/>
<path fill="#AFAFAF" d="M48.1,51.2h-8.4c-0.9,0-1.6-0.7-1.6-1.6v-9.7h11.6v9.7C49.7,50.5,49,51.2,48.1,51.2z"/>
<rect x="38.2" y="39.9" fill="#999999" width="11.6" height="3.1"/>
<path fill="none" stroke="#999999" stroke-width="4" stroke-miterlimit="10" d="M58.7,25.6c-0.6,3.2-3.6,5.6-8.2,5.6
	c-4.6,0-7.6-2.4-8.2-5.6"/>
<g>
	<polygon fill="#999999" points="77.4,45.2 81.3,44.8 77.4,45 	"/>
	<polygon fill="#999999" points="77.4,45 81.4,44.8 81.4,44.8 81.4,29.7 77.4,28.9 	"/>
	<polygon fill="#999999" points="23.3,28.3 19.4,28.9 19.4,44 19.4,44 23.3,44.5 	"/>
	
		<line fill="none" stroke="#C1C1C1" stroke-width="0" stroke-linecap="round" stroke-linejoin="round" x1="81.4" y1="44.8" x2="81.4" y2="44.8"/>
	<polygon fill="#C1C1C1" points="68.5,45.3 77.4,45 81.3,44.8 81.4,44.8 77.4,45 	"/>
</g>
</svg>
