<?xml version="1.0" encoding="utf-8"?>
<!-- Generator: Adobe Illustrator 18.0.0, SVG Export Plug-In . SVG Version: 6.00 Build 0)  -->
<!DOCTYPE svg PUBLIC "-//W3C//DTD SVG 1.1 Basic//EN" "http://www.w3.org/Graphics/SVG/1.1/DTD/svg11-basic.dtd">
<svg version="1.1" baseProfile="basic" id="Layer_1"
	 xmlns="http://www.w3.org/2000/svg" xmlns:xlink="http://www.w3.org/1999/xlink" x="0px" y="0px" viewBox="0 0 100 100"
	 xml:space="preserve">
<g id="bounds" display="none">
	<rect x="-0.1" fill="none" stroke="#78C557" stroke-miterlimit="10" width="100" height="100"/>
</g>
<g>
	<path fill="#8C8C8C" d="M33.6,62.8c0,1.6,1.3,2.9,2.9,2.9h3.4V74c0,2,1.7,3.7,3.7,3.7c2,0,3.7-1.7,3.7-3.7v-8.3H53V74
		c0,2,1.7,3.7,3.7,3.7c2,0,3.7-1.7,3.7-3.7v-8.3h3.4c1.6,0,2.9-1.3,2.9-2.9v-27H33.6V62.8z"/>
	<path fill="#C1C1C1" d="M58,24.2l3.1-4.4c0.2-0.3,0.1-0.6-0.1-0.8c-0.2-0.2-0.6-0.1-0.8,0.2L57,23.8c-2.1-0.8-4.4-1.3-6.9-1.3
		c-2.5,0-4.8,0.5-6.9,1.3l-3.2-4.6c-0.2-0.3-0.5-0.3-0.8-0.2c-0.2,0.2-0.3,0.5-0.1,0.8l3.1,4.4c-4.9,2.3-8.3,6.6-8.7,11.6h33.2
		C66.3,30.8,62.9,26.4,58,24.2z"/>
	<path fill="#A7A7A7" d="M27.7,35.6c-2,0-3.7,1.7-3.7,3.7v15c0,2,1.7,3.7,3.7,3.7c2,0,3.7-1.7,3.7-3.7v-15
		C31.4,37.3,29.8,35.6,27.7,35.6z"/>
	<path fill="#A7A7A7" d="M72.6,35.6c-2,0-3.7,1.7-3.7,3.7v15c0,2,1.7,3.7,3.7,3.7c2,0,3.7-1.7,3.7-3.7v-15
		C76.3,37.3,74.6,35.6,72.6,35.6z"/>
	<g>
		<path fill="none" d="M33.6,35.8L33.6,35.8l33.2,0c0,0,0,0,0,0L33.6,35.8C33.6,35.8,33.6,35.8,33.6,35.8z"/>
		<path fill="#AFAFAF" d="M31.4,48v-8.7c0-2-1.7-3.7-3.7-3.7c-2,0-3.7,1.7-3.7,3.7V48H31.4z"/>
		<polygon fill="#AFAFAF" points="33.6,35.8 33.6,35.8 33.6,35.8 		"/>
		<path fill="#AFAFAF" d="M72.6,35.6c-2,0-3.7,1.7-3.7,3.7V48h7.4v-8.7C76.3,37.3,74.6,35.6,72.6,35.6z"/>
		<path fill="#AFAFAF" d="M33.6,35.8L33.6,35.8L33.6,35.8C33.6,35.8,33.6,35.8,33.6,35.8z"/>
		<path fill="#AFAFAF" d="M33.6,35.8V48h33.2V35.8h0c0,0,0,0,0,0H33.6z"/>
		<path fill="#AFAFAF" d="M33.8,34c-0.1,0.6-0.2,1.2-0.3,1.8h33.2c-0.1-0.6-0.1-1.2-0.3-1.8H33.8z"/>
	</g>
	<g>
		<path fill="#999999" d="M68.9,48v6.3c0,2,1.7,3.7,3.7,3.7c2,0,3.7-1.7,3.7-3.7V48H68.9z"/>
		<path fill="#999999" d="M27.7,58c2,0,3.7-1.7,3.7-3.7V48H24v6.3C24,56.4,25.7,58,27.7,58z"/>
		<rect x="33.6" y="48" fill="#999999" width="33.2" height="13"/>
	</g>
</g>
</svg>
