<?xml version="1.0" encoding="utf-8"?>
<!-- Generator: Adobe Illustrator 18.0.0, SVG Export Plug-In . SVG Version: 6.00 Build 0)  -->
<!DOCTYPE svg PUBLIC "-//W3C//DTD SVG 1.1 Basic//EN" "http://www.w3.org/Graphics/SVG/1.1/DTD/svg11-basic.dtd">
<svg version="1.1" baseProfile="basic" id="Layer_1"
	 xmlns="http://www.w3.org/2000/svg" xmlns:xlink="http://www.w3.org/1999/xlink" x="0px" y="0px" viewBox="0 0 100 100"
	 xml:space="preserve">
<g id="bounds" display="none">
	<rect x="-0.1" fill="none" stroke="#78C557" stroke-miterlimit="10" width="100" height="100"/>
</g>
<g>
	<path fill="#C1C1C1" d="M44,73.4h20.9c6.7,0,12-5.4,12-12l0,0c0-6.2-0.1-13.5-0.1-13.5H35.6c-8.8,0-8.4-6.4-10.1-3.2
		c-3.6,7-4.2,18,1.3,23.5C30.7,72.2,35.6,73.4,44,73.4z"/>
	<path fill="#AFAFAF" d="M37.3,64.2h7.9c2.5,0,4.6-2.1,4.6-4.6l0,0c0-2.4-0.5-4.4-2.9-4.6l-12.8-0.6c-3.3,0-3.2-2.5-3.8-1.2
		c-1.4,2.6-1.6,6.8,0.5,8.9C32.3,63.8,34.1,64.2,37.3,64.2z"/>
	<circle fill="#C1C1C1" cx="64" cy="38.2" r="13"/>
	<path fill="#B1B1B1" d="M66.9,42.4l4-1.8c0,0-5.5-3-7-3c-1.4,0-7,3-7,3l4,1.8C63.6,44.1,64.4,44.1,66.9,42.4z"/>
	<path fill="#8C8C8C" d="M66,41.9l2.9-1.3l-4-1c-0.6-0.2-1.3-0.2-1.9,0l-4,1l2.9,1.3C63.6,43.1,64.2,43.1,66,41.9z"/>
	<g>
		<circle fill="#8C8C8C" cx="71.2" cy="35.9" r="2"/>
		<circle fill="#8C8C8C" cx="56.7" cy="35.9" r="2"/>
	</g>
</g>
</svg>
