<?xml version="1.0" encoding="utf-8"?>
<!-- Generator: Adobe Illustrator 18.0.0, SVG Export Plug-In . SVG Version: 6.00 Build 0)  -->
<!DOCTYPE svg PUBLIC "-//W3C//DTD SVG 1.1 Basic//EN" "http://www.w3.org/Graphics/SVG/1.1/DTD/svg11-basic.dtd">
<svg version="1.1" baseProfile="basic" id="Layer_1"
	 xmlns="http://www.w3.org/2000/svg" xmlns:xlink="http://www.w3.org/1999/xlink" x="0px" y="0px" viewBox="0 0 100 100"
	 xml:space="preserve">
<g id="bounds" display="none">
	<rect x="-0.1" fill="none" stroke="#78C557" stroke-miterlimit="10" width="100" height="100"/>
</g>
<path fill="#AFAFAF" d="M13.5,33.8c0,0,14.9-2.9,28.1,6.3C54.8,49.2,59,53.4,62.8,52.3c1.4-0.5,0.8-4.8,0.7-5.6
	c-0.8-4.2,0.1-11.1,1.7-13.2c3.2,0,19.2,0,19.2,0s3,9.6,0.9,18.3c-2.1,8.7-4.3,14.9-17.6,14.9s-22.3-9.6-27.2-15.1
	c-4.9-5.5-11.3-14.5-27.3-14.5c-2.1,0-2.1,0-2.1,0S10.5,35,13.5,33.8z"/>
<path fill="#999999" d="M13.5,33.8c0,0,14.9-2.9,28.1,6.3c1.8,1.2,5.9,4.2,5.9,4.2l-7.1,7.4c-4.9-5.5-11.3-14.5-27.3-14.5
	c-2.1,0-2.1,0-2.1,0S10.5,35,13.5,33.8z"/>
<g id="accessory_10_">
	<path fill="#8C8C8C" d="M48.5,44.9c0,0-0.1,5.7-7.4,7.4c-1.3-1.4-2.4-2.7-2.4-2.7s5.8-1.1,6.7-6.9C47.4,44.1,48.5,44.9,48.5,44.9z"
		/>
</g>
</svg>
