<?xml version="1.0" encoding="utf-8"?>
<!-- Generator: Adobe Illustrator 18.0.0, SVG Export Plug-In . SVG Version: 6.00 Build 0)  -->
<!DOCTYPE svg PUBLIC "-//W3C//DTD SVG 1.1 Basic//EN" "http://www.w3.org/Graphics/SVG/1.1/DTD/svg11-basic.dtd">
<svg version="1.1" baseProfile="basic" id="Layer_1"
	 xmlns="http://www.w3.org/2000/svg" xmlns:xlink="http://www.w3.org/1999/xlink" x="0px" y="0px" viewBox="0 0 100 100"
	 xml:space="preserve">
<g id="bounds" display="none">
	<rect x="-0.1" fill="none" stroke="#78C557" stroke-miterlimit="10" width="100" height="100"/>
</g>
<g id="accessory_11_">
	<ellipse fill="#C1C1C1" cx="51" cy="59.9" rx="33.2" ry="11.4"/>
	<path fill="#C1C1C1" d="M51,28.9c-13.2,0-24,9.9-24,22.2l24,2.1l24-2.1C75,38.8,64.3,28.9,51,28.9z"/>
	<path fill="#999999" d="M74.5,46.6c0,0-5.4,3.4-23.5,3.4c-18.1,0-23.5-3.4-23.5-3.4s-0.8,3.3-0.5,8.2c2.6,5.2,24,4.9,24,4.9
		s21.4,0.3,24-4.9C75.3,49.9,74.5,46.6,74.5,46.6z"/>
</g>
</svg>
