<?xml version="1.0" encoding="utf-8"?>
<!-- Generator: Adobe Illustrator 18.0.0, SVG Export Plug-In . SVG Version: 6.00 Build 0)  -->
<!DOCTYPE svg PUBLIC "-//W3C//DTD SVG 1.1 Basic//EN" "http://www.w3.org/Graphics/SVG/1.1/DTD/svg11-basic.dtd">
<svg version="1.1" baseProfile="basic" id="Layer_1"
	 xmlns="http://www.w3.org/2000/svg" xmlns:xlink="http://www.w3.org/1999/xlink" x="0px" y="0px" viewBox="0 0 100 100"
	 xml:space="preserve">
<g id="bounds" display="none">
	<rect x="-0.1" fill="none" stroke="#78C557" stroke-miterlimit="10" width="100" height="100"/>
</g>
<g>
	<path fill="#A7A7A7" d="M81.2,40.2v25.3H17.8c0,0-4-15.9,6.3-15.9c10.3,0,29.4,2.8,29.4-9.7c-7.1-3.8-8.6-9-8.6-9
		c35.9,0,36.3,0,36.3,0V40.2L81.2,40.2L81.2,40.2z"/>
	<rect x="17" y="59.9" fill="#C1C1C1" width="64.1" height="5.7"/>
	<g>
		<path fill="#8C8C8C" d="M60.9,43.7c0,0.6-0.6,1.2-1.3,1.2h-6.5c-0.7,0-1.3-0.5-1.3-1.2l0,0c0-0.6,0.6-1.2,1.3-1.2h6.5
			C60.4,42.5,60.9,43.1,60.9,43.7L60.9,43.7z"/>
		<path fill="#8C8C8C" d="M56.2,45.9c0,0.6-0.6,1.2-1.3,1.2h-6.5c-0.7,0-1.3-0.5-1.3-1.2l0,0c0-0.6,0.6-1.2,1.3-1.2h6.5
			C55.6,44.7,56.2,45.2,56.2,45.9L56.2,45.9z"/>
		<path fill="#8C8C8C" d="M51.4,48c0,0.6-0.6,1.2-1.3,1.2h-6.5c-0.7,0-1.3-0.5-1.3-1.2l0,0c0-0.6,0.6-1.2,1.3-1.2h6.5
			C50.8,46.8,51.4,47.4,51.4,48L51.4,48z"/>
		<path fill="#8C8C8C" d="M46.7,50.2c0,0.6-0.6,1.2-1.3,1.2h-6.5c-0.7,0-1.3-0.5-1.3-1.2l0,0c0-0.6,0.6-1.2,1.3-1.2h6.5
			C46.1,49,46.7,49.5,46.7,50.2L46.7,50.2z"/>
	</g>
	<path fill="#C1C1C1" d="M65.5,32.7H48.3c0,0,3.5,5,6.4,5.8h10.9V32.7L65.5,32.7z"/>
	<rect x="17" y="65.6" fill="#8C8C8C" width="64.2" height="2.4"/>
	<path fill="#8C8C8C" d="M72.6,42.8c-3.8,0-6.9,3-6.9,6.7c0,3.7,3.1,6.7,6.9,6.7c3.8,0,6.9-3,6.9-6.7C79.5,45.8,76.4,42.8,72.6,42.8
		z M72.6,53.1c-2,0-3.6-1.6-3.6-3.6c0-2,1.6-3.6,3.6-3.6c2,0,3.6,1.6,3.6,3.6C76.2,51.4,74.6,53.1,72.6,53.1z"/>
</g>
</svg>
