<?xml version="1.0" encoding="utf-8"?>
<!-- Generator: Adobe Illustrator 18.0.0, SVG Export Plug-In . SVG Version: 6.00 Build 0)  -->
<!DOCTYPE svg PUBLIC "-//W3C//DTD SVG 1.1//EN" "http://www.w3.org/Graphics/SVG/1.1/DTD/svg11.dtd">
<svg version="1.1" id="Layer_1" xmlns="http://www.w3.org/2000/svg" xmlns:xlink="http://www.w3.org/1999/xlink" x="0px" y="0px"
	 viewBox="0 0 960 560" enable-background="new 0 0 960 560" xml:space="preserve">
<g id="bounds" display="none">
	<rect x="200" display="inline" fill="none" stroke="#000000" width="560" height="560"/>
</g>
<path fill="#B1B1B1" d="M410.2,408.4c69.5,24.5,130.1,13,167.1-4.5c37-17.5,62-44.5,62-79.5c0-56.6-51-64.5-48.5-77.5
	c1.5-9.5,23.5-18,43.5-31c8.5-5.5,11-25-7-30c-9-2.5-13.5-1.5-29.5-11.5c-15-9.5-12.5-48.5-70-47c-49.5,1-79.1,40-80.6,65.6
	c-2.5,38.1,38.5,60,11.5,70c-45.6,16-80.1-10-101.6-11c-17-0.5-30,12-33.1,24.5C314.7,317.8,340.7,383.4,410.2,408.4z"/>
</svg>
