<?xml version="1.0" encoding="utf-8"?>
<!-- Generator: Adobe Illustrator 15.0.0, SVG Export Plug-In . SVG Version: 6.00 Build 0)  -->
<!DOCTYPE svg PUBLIC "-//W3C//DTD SVG 1.1//EN" "http://www.w3.org/Graphics/SVG/1.1/DTD/svg11.dtd">
<svg version="1.1" id="Layer_1" xmlns="http://www.w3.org/2000/svg" xmlns:xlink="http://www.w3.org/1999/xlink" x="0px" y="0px"
	 width="96px" height="96px" viewBox="0 0 96 96" enable-background="new 0 0 96 96" xml:space="preserve">
<g>
	<path fill="#A7A7A7" d="M44.393,19.102c-7.129-14.166-23.887-8.415-21.426-7.425c4.078,1.646,5.401,11.566,9.136,17.403
		C36.917,36.6,51.523,33.259,44.393,19.102z"/>
	<path fill="#A7A7A7" d="M48.285,35.333c-3.79-3.315-5.509-1.279-5.468,1.45c0.013,0.852,1.67,4.494,4.167,9.417l6.024-2.931
		C50.762,39.014,49.005,35.969,48.285,35.333z"/>
	<path fill="#A7A7A7" d="M71.777,81.377c-0.872-1.759-10.797-22.742-17.563-35.802l-6.044,2.937
		c7.063,13.621,18.979,34.34,22.188,36.641C74.997,88.467,73.018,83.872,71.777,81.377z"/>
</g>
<rect display="none" fill="none" stroke="#916F6F" stroke-miterlimit="10" width="96" height="96"/>
</svg>
