<?xml version="1.0" encoding="utf-8"?>
<!-- Generator: Adobe Illustrator 18.0.0, SVG Export Plug-In . SVG Version: 6.00 Build 0)  -->
<!DOCTYPE svg PUBLIC "-//W3C//DTD SVG 1.1 Basic//EN" "http://www.w3.org/Graphics/SVG/1.1/DTD/svg11-basic.dtd">
<svg version="1.1" baseProfile="basic" id="Layer_1"
	 xmlns="http://www.w3.org/2000/svg" xmlns:xlink="http://www.w3.org/1999/xlink" x="0px" y="0px" viewBox="0 0 100 100"
	 xml:space="preserve">
<g id="bounds" display="none">
	<rect fill="none" stroke="#A7A7A7" stroke-miterlimit="10" width="100" height="100"/>
</g>
<g id="hair_11_">
	<path fill="#B1B1B1" d="M73.3,48.8c-0.9-4.2,5.5-13.3,17.3-7.7c10,5.6,6.4,17.9,0,22.8c0.7-1.4,1.2-2.6,1.2-2.6s-1.5,1.5-2.8,2.1
		c2.1-2.5,3.6-11.6-4.1-13.9c-4.4-0.7-3.2,4.1-8.9,2.4C73.9,49.8,74.2,53.1,73.3,48.8z"/>
	<path fill="#B1B1B1" d="M70.9,50.5c0.2-0.2,0.6-0.3,0.7-0.2c0.1,0,0.3-0.1,0.3-0.3s0.2-0.6,0.5-0.7l0.4-0.3
		c0.2-0.2,0.6-0.2,0.8,0.1l2.1,2.6c0.2,0.2,0.2,0.6-0.1,0.8l-0.4,0.3c-0.2,0.2-0.7,0.4-0.8,0.3c-0.2,0-0.4,0.1-0.4,0.3
		c0,0.1-0.1,0.5-0.4,0.7c-0.2,0.2-0.6,0.2-0.7,0l-0.7-0.8c-0.2-0.2-0.6-0.7-0.7-0.9l-0.7-0.9C70.7,51.1,70.7,50.7,70.9,50.5z"/>
	<path fill="#B1B1B1" d="M26.7,48.8c0.9-4.2-5.5-13.3-17.3-7.7c-10,5.6-6.4,17.9,0,22.8c-0.7-1.4-1.2-2.6-1.2-2.6s1.5,1.5,2.8,2.1
		C8.8,60.9,7.3,51.8,15,49.6c4.4-0.7,3.2,4.1,8.9,2.4C26.1,49.8,25.7,53.1,26.7,48.8z"/>
	<path fill="#B1B1B1" d="M29,50.5c-0.2-0.2-0.6-0.3-0.7-0.2c-0.1,0-0.3-0.1-0.3-0.3s-0.2-0.6-0.5-0.7L27,48.9
		c-0.2-0.2-0.6-0.2-0.8,0.1L24,51.6c-0.2,0.2-0.2,0.6,0.1,0.8l0.4,0.3c0.2,0.2,0.7,0.4,0.8,0.3c0.2,0,0.4,0.1,0.4,0.3
		c0,0.1,0.1,0.5,0.4,0.7c0.2,0.2,0.6,0.2,0.7,0l0.7-0.8c0.2-0.2,0.6-0.7,0.7-0.9l0.7-0.9C29.2,51.1,29.2,50.7,29,50.5z"/>
	<path fill="#B1B1B1" d="M50,42.5c-6.4,0-22.5,1.1-28,21.1c28.2,0,28,0,28,0s0.4,0,28.6,0C73,43.5,56.4,42.5,50,42.5z"/>
</g>
</svg>
