<?xml version="1.0" encoding="utf-8"?>
<!-- Generator: Adobe Illustrator 15.0.0, SVG Export Plug-In . SVG Version: 6.00 Build 0)  -->
<!DOCTYPE svg PUBLIC "-//W3C//DTD SVG 1.1//EN" "http://www.w3.org/Graphics/SVG/1.1/DTD/svg11.dtd">
<svg version="1.1"
	 id="Layer_1" inkscape:version="0.47 r22583" sodipodi:docname="accessories_off.svg" xmlns:dc="http://purl.org/dc/elements/1.1/" xmlns:cc="http://creativecommons.org/ns#" xmlns:svg="http://www.w3.org/2000/svg" xmlns:sodipodi="http://sodipodi.sourceforge.net/DTD/sodipodi-0.dtd" xmlns:inkscape="http://www.inkscape.org/namespaces/inkscape" xmlns:rdf="http://www.w3.org/1999/02/22-rdf-syntax-ns#"
	 xmlns="http://www.w3.org/2000/svg" xmlns:xlink="http://www.w3.org/1999/xlink" x="0px" y="0px" width="96px" height="96px"
	 viewBox="0 0 96 96" enable-background="new 0 0 96 96" xml:space="preserve">
<rect id="rect3" display="none" fill="#FFFFFF" stroke="#000000" width="96" height="96"/>
<g>
	<path fill="#78C557" d="M63.35,41.521l6.16-8.826c0.367-0.525,0.275-1.213-0.203-1.538c-0.479-0.323-1.162-0.164-1.525,0.361
		l-6.405,9.167c-4.221-1.639-8.907-2.553-13.846-2.553s-9.626,0.914-13.846,2.553l-6.405-9.167c-0.367-0.525-1.05-0.684-1.528-0.361
		c-0.479,0.325-0.57,1.013-0.203,1.538l6.164,8.826c-9.8,4.497-16.673,13.042-17.55,23.012h66.732
		C80.021,54.563,73.149,46.018,63.35,41.521"/>
	<path fill="#FFFFFF" d="M33.59,55.431c-2.041,0-3.693-1.63-3.693-3.643c0-2.012,1.653-3.64,3.693-3.64
		c2.038,0,3.689,1.628,3.689,3.64C37.279,53.801,35.627,55.431,33.59,55.431"/>
	<path fill="#FFFFFF" d="M61.465,55.431c-2.037,0-3.688-1.63-3.688-3.643c0-2.012,1.651-3.64,3.688-3.64
		c2.044,0,3.695,1.628,3.695,3.64C65.16,53.801,63.509,55.431,61.465,55.431"/>
</g>
</svg>
