<?xml version="1.0" encoding="utf-8"?>
<!-- Generator: Adobe Illustrator 13.0.0, SVG Export Plug-In . SVG Version: 6.00 Build 14948)  -->
<!DOCTYPE svg PUBLIC "-//W3C//DTD SVG 1.1//EN" "http://www.w3.org/Graphics/SVG/1.1/DTD/svg11.dtd">
<svg version="1.1" id="Layer_1" xmlns="http://www.w3.org/2000/svg" xmlns:xlink="http://www.w3.org/1999/xlink" x="0px" y="0px"
	 width="96px" height="96px" viewBox="0 0 96 96" enable-background="new 0 0 96 96" xml:space="preserve">
<g display="none">
	<rect display="inline" fill="none" stroke="#78C557" stroke-width="1.0009" width="96.082" height="96.082"/>
</g>
<g>
	<path fill="none" stroke="#78C557" stroke-width="3.8463" d="M48.703,42.344c4.523-0.091,32.979,20.482,33.08,25.908
		c0.053,2.768-16.635,4.283-33.08,4.225c-16.445,0.062-33.133-1.457-33.08-4.225C15.726,62.826,44.18,42.253,48.703,42.344z"/>
	<path fill="none" stroke="#78C557" stroke-width="2.9548" stroke-linecap="round" d="M41.898,31.153
		c-1.51-7.248,9.659-11.248,11.989-3.161c1.928,6.694-4.601,5.969-5.047,10.152c-0.216,2.015,0.612,4.389,3.186,5.022"/>
</g>
<g id="Layer_1_2_">
	<g id="Layer_1_1_">
		<rect x="0.703" y="2.6" display="none" fill="#FFFFFF" stroke="#000000" width="96" height="96"/>
	</g>
	<g>
		<circle fill="#7F7F7F" cx="76.669" cy="30.374" r="14.056"/>
		<path fill="#FFFFFF" d="M80.145,30.373l3.207-3.207c0.848-0.845,0.848-2.22,0-3.064l-0.412-0.411
			c-0.846-0.846-2.219-0.846-3.063,0l-3.206,3.207l-3.208-3.207c-0.847-0.846-2.219-0.846-3.065,0l-0.41,0.411
			c-0.846,0.847-0.846,2.219,0,3.064l3.207,3.207l-3.207,3.208c-0.846,0.844-0.846,2.219,0,3.064l0.41,0.411
			c0.848,0.846,2.22,0.846,3.065,0l3.208-3.207l3.206,3.207c0.845,0.846,2.22,0.846,3.063,0l0.412-0.411
			c0.848-0.846,0.848-2.22,0-3.064L80.145,30.373z"/>
	</g>
</g>
</svg>
