<?xml version="1.0" encoding="utf-8"?>
<!-- Generator: Adobe Illustrator 18.0.0, SVG Export Plug-In . SVG Version: 6.00 Build 0)  -->
<!DOCTYPE svg PUBLIC "-//W3C//DTD SVG 1.1 Basic//EN" "http://www.w3.org/Graphics/SVG/1.1/DTD/svg11-basic.dtd">
<svg version="1.1" baseProfile="basic" id="Layer_1"
	 xmlns="http://www.w3.org/2000/svg" xmlns:xlink="http://www.w3.org/1999/xlink" x="0px" y="0px" viewBox="0 0 100 100"
	 xml:space="preserve">
<g id="bounds" display="none">
	<rect fill="none" stroke="#000000" width="100" height="100"/>
</g>
<g>
	<path fill="#B1B1B1" d="M69.5,34.4c-0.9-0.4-1.6-0.6-2.3-1c-1.7-0.8-3.4-1.4-4.9-2.4c-2.2-1.4-3.5-3.6-3.5-6.3
		c0-0.5-0.1-0.8-0.2-1.7c-1.7,0-3.3,0-5.2,0c0,1,0,1.9,0,2.6c-0.2,4.5,0.6,9-0.7,13.4c0.7,0.4,1.3,0.8,2,1.1c0,0-0.1,0.1-0.1,0.2
		c-1.2-0.1-2.4-0.1-3.8-0.2c0,0.8,0,1.3,0,1.8c0.5,2.6,1,5.3,1.4,8c1.2,7.2,2.2,14.5,3.3,21.8c0.2,1.5,0,3.1,1.1,4.6
		c5.1-0.7,10.2-1.4,15.5-2.1C71.9,60.7,71.1,47.5,69.5,34.4z"/>
	<path fill="#B1B1B1" d="M45.9,40.2c0.6-0.3,1.3-0.9,1.8-1.2c0-5.2,0-10.3,0-15.6c-1.9-0.3-4.5-0.3-6.7,0c-0.1,0.6-0.1,1-0.1,1.5
		c-0.1,2.4-1.1,4.5-3.2,5.8c-1.4,0.9-3,1.6-4.5,2.4c-0.7,0.4-1.4,0.7-2.2,1c-1.4,12.9-1.8,25.7-2.1,38.7c5.2,0.9,10.2,2.1,15.4,3
		c1.7-11.9,3.5-23.6,5.2-35.1c-1.3,0-2.4,0-3.4,0C46.1,40.8,45.9,40.3,45.9,40.2z"/>
	<path fill="#B1B1B1" d="M69.3,32.5c-0.4-3.2-0.7-6-1.5-8.9c-2.3-0.1-4.5-0.3-7.2-0.4c0.1,1.2,0,2.1,0.3,2.8
		C62,29.9,65.5,31,69.3,32.5z"/>
	<path fill="#B1B1B1" d="M38.7,23.5c-2,0-4,0-6.4,0c-0.5,2.9-1.1,5.4-1,8.2C36.9,30,39.8,26.9,38.7,23.5z"/>
	<path fill="#B1B1B1" d="M51.9,35.8c0-3.7,0-7.5,0-11.2c0-0.4-0.1-0.6-0.2-1.6c-0.8,0-1.4,0-2.1,0c-0.1,0.5-0.2,0.8-0.2,1
		c0,4.3,0,8.7,0,13c0,0.5,0.3,1.1,0.5,1.5C51.5,38.1,51.8,37.7,51.9,35.8z"/>
</g>
</svg>
