<?xml version="1.0" encoding="utf-8"?>
<!-- Generator: Adobe Illustrator 14.0.0, SVG Export Plug-In . SVG Version: 6.00 Build 43363)  -->
<!DOCTYPE svg PUBLIC "-//W3C//DTD SVG 1.1//EN" "http://www.w3.org/Graphics/SVG/1.1/DTD/svg11.dtd">
<svg version="1.1" id="Layer_1" xmlns="http://www.w3.org/2000/svg" xmlns:xlink="http://www.w3.org/1999/xlink" x="0px" y="0px"
	 width="100px" height="100px" viewBox="0 0 100 100" enable-background="new 0 0 100 100" xml:space="preserve">
<g>
	<g>
		<path fill="#78C557" d="M73.893,29.8c-1.102-8.735-1.957-11.407-1.957-11.407s-3.69-0.066-8.979-0.113
			c-0.037,0.368-0.138,0.725-0.138,1.099C62.818,25.517,67.377,27.39,73.893,29.8z"/>
		<path fill="#78C557" d="M25.218,29.354c5.954-2.566,10.063-4.168,10.063-9.976c0-0.314-0.094-0.611-0.115-0.921
			c-4.983,0.1-8.421,0.199-8.421,0.199S26.079,21.022,25.218,29.354z"/>
	</g>
	<g>
		<path fill="#78C557" d="M48.891,37.613c0.649,0.05,1.848-0.059,2.408-1.404c0.69-1.661,0.568-11.562,0.318-17.959
			c-0.741,0.002-1.483,0.005-2.229,0.009c-0.338,0.001-0.673,0.005-1.011,0.007c0.072,1.683,0,4.173-0.082,6.948
			c-0.124,4.247-0.332,11.355,0.416,12.289L48.891,37.613z"/>
		<path fill="#78C557" d="M76.947,64.936c-0.223-4.902-0.588-10.623-1.072-16.405c-0.477-5.77-1.074-11.508-1.695-16.473
			c-8.08-2.466-13.865-5.321-13.865-12.68c0-0.383,0.113-0.739,0.144-1.114c-2.224-0.013-4.648-0.02-7.14-0.018
			c0.143,3.7,0.543,16.227-0.45,18.616c-0.722,1.731-2.128,2.327-3.334,2.437c0.328,1.154,0.89,3.373,1.402,6.583
			c0.773,4.903,1.57,7.954,2.541,14.362c0.969,6.406,1.887,12.555,2.535,16.984c0.652,4.434,1.078,7.291,1.078,7.291l20.533-2.771
			C77.623,81.749,77.393,74.749,76.947,64.936z"/>
		<path fill="#78C557" d="M48.046,39.196l0.04-0.155c-0.189-0.05-0.401-0.155-0.601-0.361c-1.163-1.197-1.111-5.905-0.889-13.516
			c0.079-2.702,0.152-5.275,0.079-6.887c-3.167,0.028-6.253,0.075-9.016,0.128c0.025,0.326,0.125,0.646,0.125,0.972
			c0,7.04-5.282,9.688-12.813,12.366c0,0.025-0.006,0.055-0.006,0.076C24.471,36.66,24,42.267,23.625,47.916
			c-0.375,5.646-0.646,11.243-0.802,16.045c-0.312,9.615-0.446,16.473-0.446,16.473l19.791,3.396c0,0,0.409-2.826,1.049-7.211
			c0.637-4.385,1.523-10.455,2.448-16.775c0.927-6.32,1.873-12.78,2.578-17.602c0.21-1.436,0.383-2.351,0.524-2.941
			C48.501,39.281,48.25,39.249,48.046,39.196z"/>
	</g>
	<path fill="#FFFFFF" d="M42.948,39.72c0,0,1.911-1.699,6.588-1.699c4.675,0,6.589,1.911,6.589,1.911s-3.686-0.918-6.377-0.849
		C47.054,39.153,42.948,39.72,42.948,39.72z"/>
</g>
<rect display="none" fill="none" stroke="#000000" width="100" height="100"/>
</svg>
