<?xml version="1.0" encoding="utf-8"?>
<!-- Generator: Adobe Illustrator 15.0.0, SVG Export Plug-In . SVG Version: 6.00 Build 0)  -->
<!DOCTYPE svg PUBLIC "-//W3C//DTD SVG 1.1//EN" "http://www.w3.org/Graphics/SVG/1.1/DTD/svg11.dtd">
<svg version="1.1"
	 id="Layer_1" inkscape:version="0.47 r22583" sodipodi:docname="accessories_off.svg" xmlns:sodipodi="http://sodipodi.sourceforge.net/DTD/sodipodi-0.dtd" xmlns:inkscape="http://www.inkscape.org/namespaces/inkscape" xmlns:dc="http://purl.org/dc/elements/1.1/" xmlns:svg="http://www.w3.org/2000/svg" xmlns:cc="http://creativecommons.org/ns#" xmlns:rdf="http://www.w3.org/1999/02/22-rdf-syntax-ns#"
	 xmlns="http://www.w3.org/2000/svg" xmlns:xlink="http://www.w3.org/1999/xlink" x="0px" y="0px" width="96px" height="96px"
	 viewBox="0 0 96 96" enable-background="new 0 0 96 96" xml:space="preserve">
<rect id="rect3" display="none" fill="#FFFFFF" stroke="#000000" width="96" height="96"/>
<path fill="#A7A7A7" d="M21.901,69.003c-9.41,0.217-13.488-8.719-12.857-14.707c0.631-5.987,6.338-12.133,12.239-12.336
	c-1.42-6.487,8.098-13.62,15.488-8.017c4.252-10.364,18.342-11.733,24.526-9.303c6.202,2.426,12.271,8.235,11.823,16.116
	c8.71,0.391,14.215,7.974,13.622,14.792c-0.688,7.978-7.655,12.133-11.938,12.229C70.516,67.874,21.901,69.003,21.901,69.003z"/>
<path fill="#A7A7A7" stroke="#FFFFFF" stroke-width="2.0312" d="M49.848,47.245c-0.249-4.21-0.496-5.943-0.496-5.943
	c8.585-0.083,19.066,8.833,22.532,13.868c0,0-15.413,5.726-20.304,14.609l-0.99-9.658c-13.948,0.906-23.245,14.246-22.718,19.804
	C22.482,64.729,36.805,48.151,49.848,47.245z"/>
</svg>
