<?xml version="1.0" encoding="utf-8"?>
<!-- Generator: Adobe Illustrator 18.0.0, SVG Export Plug-In . SVG Version: 6.00 Build 0)  -->
<!DOCTYPE svg PUBLIC "-//W3C//DTD SVG 1.1 Basic//EN" "http://www.w3.org/Graphics/SVG/1.1/DTD/svg11-basic.dtd">
<svg version="1.1" baseProfile="basic" id="Layer_1"
	 xmlns="http://www.w3.org/2000/svg" xmlns:xlink="http://www.w3.org/1999/xlink" x="0px" y="0px" viewBox="0 0 96 96"
	 xml:space="preserve">
<g id="bounds" display="none">
	<rect fill="none" stroke="#000000" width="96" height="96"/>
</g>
<path fill="#B1B1B1" d="M49.9,23.3c4.8-1.9,20.4-1.6,23.1,0.3c-0.2,6-0.4,12.1-0.5,18.2c0,4.8,0.1,9.5,0.2,14.3c0,3.2,0,6.5,0,9.7
	c0,1.9,0,3.7,0,5.8c-4.5,2.1-9,0.9-13.4,1.3c-0.2-1-0.4-1.6-0.6-2.5c-0.6,0.1-1.1,0.1-1.5,0.3c-6,1.7-12,2.7-18.3,2.5
	c-4.5-0.1-8.9-1-13.1-2.6c-1.2-0.5-2.3-1.1-2.1-2.6c0.6-1,1.2-1.8,1.8-2.7c0.7-1.1,1.7-1.6,3-1.6c1.2,0,2.4,0,3.6,0
	c7.2,0.2,12-3.4,15.5-9.3c1.8-3.2,2.8-6.7,2.7-10.5c-0.2-5.3,0-10.6-0.1-15.9C50.2,26.5,50,24.9,49.9,23.3z"/>
</svg>
