<?xml version="1.0" encoding="utf-8"?>
<!-- Generator: Adobe Illustrator 14.0.0, SVG Export Plug-In . SVG Version: 6.00 Build 43363)  -->
<!DOCTYPE svg PUBLIC "-//W3C//DTD SVG 1.1//EN" "http://www.w3.org/Graphics/SVG/1.1/DTD/svg11.dtd">
<svg version="1.1" id="Layer_1" xmlns="http://www.w3.org/2000/svg" xmlns:xlink="http://www.w3.org/1999/xlink" x="0px" y="0px"
	 width="96px" height="96px" viewBox="0 0 96 96" enable-background="new 0 0 96 96" xml:space="preserve">
<rect x="0" y="0.193" display="none" fill="none" stroke="#000000" width="96" height="96"/>
<path fill="#78C557" d="M76.643,54.289l0.776-35.046c0,0-4.972-1.307-13.645-1.385c-8.673-0.08-13.925,1.255-13.925,1.255
	s0.641,25.281,0.221,28.601c0,0-3.356,20.992-24.106,19.244c-3.386-0.285-4.88,0.223-6.377,4.035l-0.905,0.262
	c0,0-0.536,2.361,0.652,3.01c18.929,8.629,41.397,0.168,41.397,0.168v3.178c0,0,0.146,0.004,7.842,0.072
	c7.697,0.068,8.589-1.713,8.589-1.713l0.003-6.697h-0.002C77.328,67.932,77.901,62.119,76.643,54.289z"/>
</svg>
