<?xml version="1.0" encoding="utf-8"?>
<!-- Generator: Adobe Illustrator 13.0.0, SVG Export Plug-In . SVG Version: 6.00 Build 14948)  -->
<!DOCTYPE svg PUBLIC "-//W3C//DTD SVG 1.1 Basic//EN" "http://www.w3.org/Graphics/SVG/1.1/DTD/svg11-basic.dtd">
<svg version="1.1" baseProfile="basic" id="Layer_1"
	 xmlns="http://www.w3.org/2000/svg" xmlns:xlink="http://www.w3.org/1999/xlink" x="0px" y="0px" width="96px" height="96px"
	 viewBox="0 0 96 96" xml:space="preserve">
<g id="bounds">
	<rect x="0.333" y="11" fill="#FFFFFF" stroke="#000000" width="94.417" height="69.333"/>
</g>
<path fill="#C90202" d="M95.065,39.299l0.011-0.009l-0.055-0.054C88.665,30.063,78.068,24.05,66.062,24.05
	c-19.445,0-35.21,15.765-35.21,35.211s15.765,35.212,35.21,35.212c19.446,0,35.211-15.765,35.211-35.211
	C101.273,51.849,98.979,44.973,95.065,39.299z M66.062,34.363c5.542,0,10.646,1.834,14.782,4.898L46.063,74.043
	c-3.062-4.137-4.898-9.239-4.898-14.784C41.166,45.512,52.313,34.363,66.062,34.363z M66.062,84.16
	c-4.555,0-8.809-1.245-12.479-3.378L87.584,46.78c2.134,3.673,3.378,7.93,3.378,12.481C90.962,73.013,79.814,84.16,66.062,84.16z"/>
<polygon fill="#F40C0C" points="46.063,74.043 48.322,76.815 83.455,41.68 80.845,39.261 "/>
</svg>
