<?xml version="1.0" encoding="utf-8"?>
<!-- Generator: Adobe Illustrator 18.0.0, SVG Export Plug-In . SVG Version: 6.00 Build 0)  -->
<!DOCTYPE svg PUBLIC "-//W3C//DTD SVG 1.1//EN" "http://www.w3.org/Graphics/SVG/1.1/DTD/svg11.dtd">
<svg version="1.1" id="Layer_1" xmlns="http://www.w3.org/2000/svg" xmlns:xlink="http://www.w3.org/1999/xlink" x="0px" y="0px"
	 viewBox="0 0 425.2 425.2" enable-background="new 0 0 425.2 425.2" xml:space="preserve">
<g>
	<circle fill="#ADADAD" cx="93.3" cy="249.7" r="10.4"/>
	<circle fill="#EAEAEA" cx="127.1" cy="155.2" r="10.4"/>
	<circle fill="#EAEAEA" cx="87.8" cy="212.9" r="23.8"/>
	<circle fill="#ADADAD" cx="63.3" cy="181.9" r="24.5"/>
	<circle fill="#EAEAEA" cx="108" cy="181.9" r="29.6"/>
</g>
<g>
	<circle fill="#ADADAD" cx="88.5" cy="302.7" r="16.2"/>
	<circle fill="#ADADAD" cx="183.5" cy="145" r="22.9"/>
	<circle fill="#EAEAEA" cx="160.7" cy="246.7" r="52.2"/>
	<circle fill="#EAEAEA" cx="228.6" cy="300.4" r="53.7"/>
	<circle fill="#ADADAD" cx="232.8" cy="202.4" r="64.8"/>
</g>
<g>
	<circle fill="#ADADAD" cx="379.6" cy="249.5" r="14.5"/>
	<circle fill="#EAEAEA" cx="248.6" cy="202.5" r="14.5"/>
	<circle fill="#EAEAEA" cx="328.6" cy="257" r="33"/>
	<circle fill="#ADADAD" cx="285.6" cy="291" r="34"/>
	<circle fill="#EAEAEA" cx="285.6" cy="229" r="41"/>
</g>
<g>
	<circle fill="#ADADAD" cx="273.5" cy="73.8" r="11.6"/>
	<circle fill="#EAEAEA" cx="321" cy="174.4" r="11.6"/>
	<circle fill="#EAEAEA" cx="306.6" cy="98.4" r="26.4"/>
	<circle fill="#ADADAD" cx="350.1" cy="103.5" r="27.1"/>
	<circle fill="#EAEAEA" cx="315.1" cy="138.5" r="32.7"/>
</g>
</svg>
