<?xml version="1.0" encoding="utf-8"?>
<!-- Generator: Adobe Illustrator 17.1.0, SVG Export Plug-In . SVG Version: 6.00 Build 0)  -->
<!DOCTYPE svg PUBLIC "-//W3C//DTD SVG 1.1//EN" "http://www.w3.org/Graphics/SVG/1.1/DTD/svg11.dtd">
<svg version="1.1" xmlns="http://www.w3.org/2000/svg" xmlns:xlink="http://www.w3.org/1999/xlink" x="0px" y="0px" width="200px"
	 height="200px" viewBox="0 0 200 200" enable-background="new 0 0 200 200" xml:space="preserve">
<g id="text" display="none">
	
		<text transform="matrix(1 0 0 1 32.8515 184.9069)" display="inline" fill="#707171" font-family="'AndroidDISPLAY-Black'" font-size="242.4203">5</text>
</g>
<g id="outlines">
	<g>
		<path fill="#707171" d="M38.4,163.3l-4.1-5.1l26.4-16l3.6,3.4c6.1,6.5,17.7,10.9,29.6,10.9c18.2,0,33.2-13.1,33.2-28.1
			c0-18.2-13.8-28.4-32.2-28.4c-10.2,0-21.8,4.8-28.1,11.2l-25.7-4.8l5.3-91.1h105.9v29.1H74.5L72.4,78c8-4.1,17.7-6.8,29.1-6.8
			c35.6,0,58.4,24.5,58.4,57.7c0,29.6-26.2,58.2-66.2,58.2C70.7,187.1,50.1,177.4,38.4,163.3z"/>
	</g>
</g>
</svg>
