<?xml version="1.0" encoding="utf-8"?>
<!-- Generator: Adobe Illustrator 17.1.0, SVG Export Plug-In . SVG Version: 6.00 Build 0)  -->
<!DOCTYPE svg PUBLIC "-//W3C//DTD SVG 1.1//EN" "http://www.w3.org/Graphics/SVG/1.1/DTD/svg11.dtd">
<svg version="1.1" id="hearts" xmlns="http://www.w3.org/2000/svg" xmlns:xlink="http://www.w3.org/1999/xlink" x="0px" y="0px"
	 width="400px" height="100px" viewBox="0 0 400 100" enable-background="new 0 0 400 100" xml:space="preserve">
<path fill-rule="evenodd" clip-rule="evenodd" fill="#D31C55" d="M116,27.3c-12-28-46.3-21.4-46.5,11c-0.1,17.8,16.3,24.5,27.2,31.6
	c10.6,6.9,18.2,16.4,19.3,20.4c1-3.9,9.4-13.7,19.3-20.6c10.7-7.6,27.4-13.8,27.3-31.6C162.3,5.6,127.5,0.5,116,27.3z"/>
<path fill-rule="evenodd" clip-rule="evenodd" fill="#D31C55" d="M284,27.3c-12-28-46.3-21.4-46.5,11c-0.1,17.8,16.3,24.5,27.2,31.6
	c10.6,6.9,18.2,16.4,19.3,20.4c1-3.9,9.4-13.7,19.3-20.6c10.7-7.6,27.4-13.8,27.3-31.6C330.3,5.6,295.5,0.5,284,27.3z"/>
</svg>
