<?xml version="1.0" encoding="utf-8"?>
<!-- Generator: Adobe Illustrator 18.0.0, SVG Export Plug-In . SVG Version: 6.00 Build 0)  -->
<!DOCTYPE svg PUBLIC "-//W3C//DTD SVG 1.1//EN" "http://www.w3.org/Graphics/SVG/1.1/DTD/svg11.dtd">
<svg version="1.1" id="Layer_1" xmlns="http://www.w3.org/2000/svg" xmlns:xlink="http://www.w3.org/1999/xlink" x="0px" y="0px"
	 viewBox="0 0 425.2 425.2" enable-background="new 0 0 425.2 425.2" xml:space="preserve">
<path fill="#E81F1F" d="M230.7,184.9c0.4-0.3,0.8-0.5,1.1-0.8c1.4-1.9,2.9-3.9,4.3-5.8c-9.4,2.4-19.3-2.2-23.8-10.3
	c-5,8.8-10,13-21.9,5.2c0,3.2-0.4,5.8-1.1,7.9c1.3,1.1,2.5,2.2,3.7,3.3c0.3,0.3,0.5,0.4,0.8,0.6c5.3-3.6,11.7-5.6,18.6-5.6
	C219.1,179.4,225.5,181.5,230.7,184.9z"/>
<path fill="#E81F1F" d="M184,195.4c-2.5-2.2-5.1-4.3-7.6-6.5c-0.6-0.4-1.4-0.8-2-1.3c5.3,6.6,2.7,11.1-4.2,12.1
	c5.2,3.8,7.4,8.4-2.5,12.8c5.2,2.2,7.6,5.3,7,9.2c1.7-0.8,3.4-1.5,5.1-2.4c-0.5-2.2-0.6-4.4-0.6-6.7
	C179.2,206.2,181,200.4,184,195.4z"/>
<path fill="#E81F1F" d="M186.3,233.1c-1.8,0.9-3.6,1.8-5.5,2.5c1.5,2.8,1.7,6.6,1,9.4c4.6-1.5,8.6-1.8,11.3,0.6c0,0,0.1,0,0.1-0.1
	c0.1-0.1,0.3-0.4,0.4-0.5c0.6-1.1,1.4-2.4,2-3.6C192.2,239.3,189,236.5,186.3,233.1z"/>
<path fill="#E81F1F" d="M257,209.9c-8.6-3.6-12.7-13.6-3.8-20c-0.1,0-0.3,0-0.5,0.1c-0.6,0.4-1.3,0.9-1.9,1.3
	c-2.8,2.4-5.6,4.7-8.5,7c2,4.3,3.2,9.2,3.2,14.2c0,4.8-1,9.4-2.9,13.6c1.1,0.9,2.3,1.7,3.4,2.5c1.9-1.9,4.8-2.8,8.6-2.2
	C248.5,220.1,249.5,212.6,257,209.9z"/>
<path fill="#E81F1F" d="M233,238.7c-5.6,4.4-12.8,7.1-20.6,7.1c-0.6,0-1.3,0-1.9-0.1c-0.9,1.5-1.8,3.1-2.7,4.4
	c1.8,1.1,3.4,3.3,4.7,7.1c4.6-11.7,12.7-10.3,18.8-4.2c0-5.5,2.2-9,5.1-11.1C235.1,240.9,234.1,239.8,233,238.7z"/>
</svg>
