<?xml version="1.0" encoding="utf-8"?>
<!-- Generator: Adobe Illustrator 17.1.0, SVG Export Plug-In . SVG Version: 6.00 Build 0)  -->
<!DOCTYPE svg PUBLIC "-//W3C//DTD SVG 1.1//EN" "http://www.w3.org/Graphics/SVG/1.1/DTD/svg11.dtd">
<svg version="1.1" xmlns="http://www.w3.org/2000/svg" xmlns:xlink="http://www.w3.org/1999/xlink" x="0px" y="0px" width="120px"
	 height="100px" viewBox="0 0 120 100" enable-background="new 0 0 120 100" xml:space="preserve">
<g id="live_text" display="none">
	<g display="inline">
		<text transform="matrix(1 0 0 1 7.3159 78.5308)" fill="#707171" font-family="'AndroidDISPLAY-Black'" font-size="44.5223">Z</text>
		<text transform="matrix(1 0 0 1 38.7158 66.9712)" fill="#707171" font-family="'AndroidDISPLAY-Black'" font-size="50.1324">Z</text>
		<text transform="matrix(1 0 0 1 74.0932 55.6753)" fill="#707171" font-family="'AndroidDISPLAY-Black'" font-size="54.1243">Z</text>
	</g>
</g>
<g id="outlines">
	<g>
		<g>
			<path fill="#707171" d="M9.8,75.2l17.5-20.3H10.4v-5.7h25.7v5.2L18.4,74.7h18.7v5.7H9.8V75.2z"/>
		</g>
		<g>
			<path fill="#707171" d="M41.5,62.9l19.7-22.8h-19v-6.4h29v5.9l-20,22.8h21.1v6.4H41.5V62.9z"/>
		</g>
		<g>
			<path fill="#707171" d="M77,51.2l21.3-24.6H77.8v-6.9h31.3V26L87.5,50.6h22.7v6.9H77V51.2z"/>
		</g>
	</g>
</g>
</svg>
