<?xml version="1.0" encoding="utf-8"?>
<!-- Generator: Adobe Illustrator 14.0.0, SVG Export Plug-In . SVG Version: 6.00 Build 43363)  -->
<!DOCTYPE svg PUBLIC "-//W3C//DTD SVG 1.1//EN" "http://www.w3.org/Graphics/SVG/1.1/DTD/svg11.dtd">
<svg version="1.1" id="content" xmlns="http://www.w3.org/2000/svg" xmlns:xlink="http://www.w3.org/1999/xlink" x="0px" y="0px"
	 width="500px" height="500px" viewBox="0 0 500 500" enable-background="new 0 0 500 500" xml:space="preserve">
<rect id="position" x="0" y="0.32" display="none" fill="none" stroke="#000000" width="500" height="500"/>
<g id="bounds" display="none">
	
		<rect x="103.625" y="-21.617" display="inline" fill="none" stroke="#000000" stroke-width="1.1192" stroke-miterlimit="10" width="288.751" height="288.75"/>
</g>
<g>
	<g>
		<path fill="#382800" d="M139.335,137.424c-1.181,0-2.3-0.702-2.776-1.862c-0.294-0.716-7.03-17.772,8.093-37.107
			c4.739-6.06,10.289-9.364,16.494-9.821c10.362-0.773,18.534,6.873,18.876,7.198c1.201,1.142,1.25,3.041,0.108,4.241
			c-1.14,1.199-3.033,1.25-4.236,0.114c-0.083-0.078-6.66-6.161-14.347-5.566c-4.433,0.339-8.527,2.873-12.171,7.531
			c-12.998,16.618-7.327,30.989-7.268,31.132c0.629,1.533-0.104,3.285-1.636,3.915C140.1,137.351,139.714,137.424,139.335,137.424
			L139.335,137.424z"/>
	</g>
	<g>
		<path fill="#382800" d="M124.007,146.66c-2.049,0-4.153-0.248-6.31-0.788c-1.607-0.403-2.583-2.032-2.181-3.639
			c0.403-1.607,2.037-2.581,3.639-2.181c21.294,5.338,38.273-27.293,38.442-27.623c0.755-1.474,2.563-2.057,4.036-1.305
			c1.475,0.754,2.06,2.56,1.307,4.035C162.227,116.554,146.572,146.66,124.007,146.66L124.007,146.66z"/>
	</g>
	<g>
		<path fill="#382800" d="M151.248,172.25c-0.652,0-1.309-0.211-1.86-0.648c-1.299-1.028-1.518-2.915-0.49-4.214
			c0.33-0.425,8.201-10.791,1.757-24.079c-0.021-0.043-0.041-0.086-0.06-0.13c-4.669-10.924-5.323-20.374-1.945-28.087
			c4.106-9.374,12.688-12.512,13.051-12.641c1.562-0.554,3.277,0.262,3.831,1.823c0.553,1.557-0.257,3.267-1.81,3.826
			c-0.137,0.051-6.611,2.529-9.614,9.486c-2.637,6.109-1.972,13.904,1.977,23.17c8.064,16.72-2.049,29.805-2.484,30.355
			C153.01,171.86,152.133,172.25,151.248,172.25L151.248,172.25z"/>
	</g>
	<g>
		<path fill="#382800" d="M340.716,137.001c-0.22,0-0.443-0.024-0.666-0.075c-1.616-0.366-2.629-1.973-2.263-3.589
			c3.046-13.432,1.642-23.557-4.173-30.093c-9.3-10.456-27.027-8.699-27.207-8.68c-1.63,0.179-3.125-1.017-3.301-2.665
			c-0.175-1.647,1.018-3.125,2.666-3.301c0.852-0.092,20.997-2.077,32.325,10.658c7.175,8.066,9.039,19.979,5.541,35.408
			C343.323,136.056,342.086,137.001,340.716,137.001L340.716,137.001z"/>
	</g>
	<g>
		<path fill="#382800" d="M329.31,128.608c-0.729,0-1.459-0.264-2.036-0.798c-1.217-1.125-1.29-3.023-0.165-4.24
			c0.108-0.117,11.018-12.111,10.328-24.272c-0.294-5.187-2.602-9.581-7.055-13.434c-5.388-4.661-10.683-6.68-15.736-5.992
			c-8.067,1.094-13.245,8.733-13.297,8.811c-0.917,1.375-2.777,1.754-4.155,0.841s-1.761-2.766-0.852-4.147
			c0.267-0.405,6.66-9.948,17.437-11.442c6.857-0.95,13.761,1.537,20.529,7.393c5.674,4.909,8.743,10.851,9.121,17.66
			c0.817,14.717-11.396,28.096-11.916,28.658C330.922,128.284,330.117,128.608,329.31,128.608L329.31,128.608z"/>
	</g>
	<g>
		<path fill="#382800" d="M318.33,105.949c-1.625,0-2.961-1.298-2.998-2.931c-0.004-0.151-0.518-15.695-10.251-26.009
			c-7.841-8.857-16.213-13.325-24.949-13.35c-0.024,0-0.051,0-0.075,0c-14.328,0-25.099,11.844-25.205,11.964
			c-1.107,1.234-3.003,1.337-4.236,0.233c-1.234-1.105-1.339-3.002-0.234-4.236c0.511-0.571,12.699-13.961,29.674-13.961
			c0.032,0,0.062,0,0.094,0c10.522,0.031,20.4,5.179,29.359,15.303c11.28,11.951,11.805,29.191,11.821,29.919
			c0.038,1.656-1.273,3.03-2.93,3.068C318.377,105.948,318.353,105.949,318.33,105.949L318.33,105.949z"/>
	</g>
	<g>
		<path fill="#382800" d="M181.888,111.628c-1.564,0-2.883-1.213-2.99-2.797c-0.108-1.596-2.372-39.202,21.879-50.045
			c24.417-10.919,45.304,13.817,45.512,14.068c1.057,1.276,0.88,3.167-0.396,4.225c-1.276,1.056-3.166,0.88-4.223-0.394
			c-0.242-0.29-18.245-21.452-38.444-12.421c-20.472,9.153-18.366,43.812-18.342,44.161c0.112,1.653-1.137,3.084-2.79,3.196
			C182.025,111.626,181.956,111.628,181.888,111.628L181.888,111.628z"/>
	</g>
	<g>
		<path fill="#382800" d="M353.415,169.011c-1.188,0-2.313-0.711-2.784-1.881c-0.618-1.537,0.126-3.285,1.663-3.903
			c0.363-0.155,9.513-4.208,10.466-19.376c0.935-14.861-19.479-20.827-19.686-20.886c-1.595-0.452-2.52-2.111-2.067-3.705
			s2.116-2.516,3.704-2.067c1.033,0.293,25.271,7.399,24.037,27.034c-1.201,19.116-13.684,24.353-14.214,24.567
			C354.167,168.941,353.788,169.011,353.415,169.011L353.415,169.011z"/>
	</g>
	<g>
		<path fill="#382800" d="M365.739,168.569c-0.158,0-0.318-0.013-0.479-0.039c-24.007-3.857-41.406-56.042-42.136-58.262
			c-0.517-1.574,0.34-3.269,1.914-3.786c1.575-0.519,3.27,0.341,3.786,1.914c4.654,14.155,20.441,51.488,37.387,54.21
			c1.636,0.263,2.749,1.802,2.486,3.438C368.461,167.519,367.186,168.569,365.739,168.569L365.739,168.569z"/>
	</g>
	<g>
		<path fill="#382800" d="M299.942,88.646c-1.276,0-2.459-0.821-2.861-2.103c-2.355-7.505-6.527-12.737-12.399-15.552
			c-12.136-5.814-27.722,0.16-27.878,0.221c-1.54,0.603-3.283-0.158-3.887-1.701s0.158-3.283,1.701-3.887
			c0.736-0.288,18.194-6.973,32.656-0.043c7.433,3.562,12.658,10.01,15.531,19.166c0.496,1.581-0.383,3.265-1.964,3.761
			C300.543,88.601,300.24,88.646,299.942,88.646L299.942,88.646z"/>
	</g>
	<g>
		<path fill="#382800" d="M164.689,110.452c-0.271,0-0.546-0.037-0.82-0.115c-1.594-0.453-2.52-2.111-2.067-3.705
			c5.403-19.043,29.074-22.984,37.466-23.786c0.381-11.507,5.535-30.029,23.597-33.301c24.844-4.5,30.372,17.966,30.424,18.193
			c0.376,1.614-0.628,3.227-2.242,3.602c-1.61,0.375-3.221-0.625-3.6-2.234c-0.181-0.748-4.389-17.123-23.513-13.657
			c-19.458,3.525-18.706,28.994-18.664,30.077c0.031,0.8-0.26,1.582-0.807,2.167c-0.547,0.584-1.305,0.929-2.105,0.952
			c-0.292,0.009-29.53,1.106-34.784,19.626C167.199,109.591,165.996,110.452,164.689,110.452L164.689,110.452z"/>
	</g>
	<g>
		<path fill="#382800" d="M302.131,85.118c-0.182,0-0.367-0.017-0.553-0.051c-1.629-0.304-2.703-1.87-2.399-3.499
			c0.023-0.13,2.397-13.585-4.092-21.341c-3.127-3.737-7.979-5.579-14.419-5.594c-24.215,0.094-28.026,20.547-28.177,21.418
			c-0.281,1.629-1.832,2.726-3.458,2.453c-1.63-0.276-2.73-1.813-2.459-3.444c0.043-0.263,4.705-26.312,34.071-26.426
			c0.051,0,0.103,0,0.153,0c8.249,0,14.611,2.613,18.911,7.768c8.294,9.943,5.491,25.604,5.368,26.267
			C304.808,84.11,303.548,85.118,302.131,85.118L302.131,85.118z"/>
	</g>
	<g>
		<path fill="#382800" d="M151.277,138.168c-3.993,0-7.244-1.917-7.437-2.034c-1.419-0.854-1.877-2.698-1.023-4.118
			c0.855-1.419,2.699-1.877,4.118-1.023c0.023,0.014,3.892,2.237,6.854,0.543c3.212-1.835,4.998-7.916,5.026-17.12
			c0.036-11.55,2.913-20.227,8.551-25.791c6.067-5.986,13.118-5.979,13.399-5.981c1.657,0.017,2.986,1.374,2.97,3.03
			c-0.017,1.646-1.357,2.97-3,2.97c-0.003,0-0.006,0-0.01,0c-0.702,0.006-15.831,0.453-15.911,25.791
			c-0.037,11.817-2.765,19.334-8.107,22.343C154.884,137.806,153.01,138.168,151.277,138.168L151.277,138.168z"/>
	</g>
	<g>
		<path fill="#382800" d="M296.615,84.281c-0.757,0-1.515-0.285-2.098-0.855c-17.403-17.028-39.873-8.46-40.099-8.372
			c-1.542,0.606-3.284-0.151-3.891-1.693s0.151-3.283,1.693-3.89c1.065-0.419,26.341-10.049,46.491,9.666
			c1.185,1.159,1.205,3.058,0.047,4.243C298.172,83.98,297.393,84.281,296.615,84.281L296.615,84.281z"/>
	</g>
	<g>
		<path fill="#382800" d="M189.505,86.899c-0.49,0-0.987-0.12-1.447-0.374c-1.451-0.801-1.978-2.625-1.177-4.076
			c17.152-31.074,61.276-19.63,61.72-19.511c1.6,0.43,2.549,2.076,2.119,3.676c-0.429,1.599-2.074,2.546-3.673,2.12l0,0
			c-0.399-0.107-40.039-10.332-54.913,16.615C191.587,86.339,190.562,86.899,189.505,86.899L189.505,86.899z"/>
	</g>
	<g>
		<path fill="#382800" d="M144.726,156.064c-1.298,0-2.495-0.85-2.878-2.158c-10.174-34.762,16.469-53.259,16.739-53.442
			c1.373-0.928,3.237-0.567,4.166,0.805c0.927,1.371,0.568,3.233-0.8,4.163c-0.97,0.663-23.261,16.33-14.346,46.79
			c0.465,1.59-0.447,3.256-2.037,3.722C145.289,156.025,145.005,156.064,144.726,156.064L144.726,156.064z"/>
	</g>
	<g>
		<path fill="#382800" d="M340.052,170.286c-0.167,0-0.336-0.014-0.506-0.043c-1.634-0.277-2.733-1.826-2.456-3.459
			c3.315-19.537-1.17-37.661-13.33-53.869c-9.172-12.225-19.511-18.719-19.614-18.784c-1.406-0.873-1.841-2.722-0.969-4.129
			c0.871-1.408,2.719-1.843,4.126-0.974c0.455,0.282,11.265,7.041,21.117,20.101c9.139,12.114,19.088,32.124,14.586,58.659
			C342.757,169.251,341.487,170.286,340.052,170.286L340.052,170.286z"/>
	</g>
	<g>
		<path fill="#382800" d="M343.895,137c-0.058,0-0.115-0.002-0.174-0.005c-1.653-0.094-2.918-1.511-2.824-3.165
			c0.017-0.294,1.505-29.615-12.219-41.765c-13.05-11.551-35.108,4.204-35.33,4.364c-1.342,0.975-3.218,0.674-4.19-0.667
			s-0.674-3.217,0.667-4.189c1.063-0.771,26.218-18.71,42.83-4c15.91,14.085,14.309,45.279,14.232,46.601
			C346.796,135.768,345.473,136.999,343.895,137L343.895,137z"/>
	</g>
	<g>
		<path fill="#382800" d="M152.492,133.628c-1.144,0-2.237-0.658-2.737-1.769c-0.167-0.37-16.282-37.183,17.536-52.78
			c32.312-14.904,53.576-6.67,54.466-6.312c1.537,0.618,2.282,2.366,1.664,3.903c-0.617,1.534-2.359,2.279-3.893,1.667l0,0
			c-0.195-0.076-19.931-7.55-49.724,6.19c-28.481,13.136-15.159,43.578-14.578,44.867c0.681,1.51,0.008,3.287-1.503,3.968
			C153.323,133.543,152.904,133.628,152.492,133.628L152.492,133.628z"/>
	</g>
	<g>
		<path fill="#382800" d="M344.837,142.725c-0.905,0-1.799-0.408-2.39-1.184c-1.003-1.319-0.747-3.201,0.571-4.204
			c0.891-0.682,21.783-17.038,11.039-39.104c-10.732-22.044-39.402-14.397-40.618-14.062c-1.597,0.444-3.249-0.493-3.692-2.087
			c-0.443-1.595,0.487-3.247,2.081-3.692c0.346-0.098,34.691-9.346,47.624,17.214c12.914,26.523-12.542,46.31-12.801,46.506
			C346.108,142.526,345.47,142.725,344.837,142.725L344.837,142.725z"/>
	</g>
	<g>
		<path fill="#382800" d="M372.736,157.204c-0.247,0-0.498-0.03-0.748-0.095c-0.546-0.14-13.369-3.619-14.631-19.942
			c-1.655-27.581-22.856-42.989-23.07-43.141c-1.349-0.96-1.666-2.832-0.708-4.182c0.958-1.348,2.826-1.668,4.177-0.714
			c0.97,0.686,23.759,17.146,25.587,47.626c0.931,12.039,10.046,14.518,10.138,14.541c1.605,0.413,2.572,2.047,2.159,3.652
			C375.292,156.305,374.073,157.204,372.736,157.204L372.736,157.204z"/>
	</g>
	<g>
		<path fill="#FCB1A6" d="M372.932,152.801c0.532-0.965,0.156-2.192-0.841-2.741l-3.419-1.884c-0.997-0.548-2.235-0.21-2.769,0.754
			c0,0-0.322,0.325-0.782,1.122c-0.457,0.798-1.022,2.145-1.022,2.145c-0.531,0.965-0.154,2.192,0.841,2.741l1.709,0.941l1.71,0.941
			c0.996,0.549,2.237,0.212,2.769-0.752c0,0,0.84-1.195,1.271-2.008C372.828,153.246,372.932,152.801,372.932,152.801z"/>
	</g>
	<g>
		<path fill="#FCB1A6" d="M128.201,141.02c-0.067-1.1-1.043-1.935-2.178-1.864l-3.896,0.241c-1.136,0.071-2,1.02-1.934,2.12
			c0,0-0.1,0.447-0.061,1.366c0.042,0.919,0.285,2.359,0.285,2.359c0.069,1.1,1.044,1.934,2.179,1.864l1.948-0.121l1.947-0.121
			c1.136-0.07,2.003-1.02,1.935-2.118c0,0,0.069-1.459-0.002-2.376C128.351,141.452,128.201,141.02,128.201,141.02z"/>
	</g>
	<g>
		<path fill="#382800" d="M172.498,128.607c-0.729,0-1.458-0.264-2.035-0.798c-0.304-0.281-30.038-28.5-0.957-60.988
			c8.275-9.244,17.858-14.187,28.484-14.691c19.501-0.93,35.33,13.471,35.994,14.085c1.217,1.125,1.292,3.022,0.168,4.239
			c-1.124,1.217-3.019,1.292-4.237,0.17l0,0c-0.145-0.133-14.685-13.317-31.679-12.5c-8.945,0.436-17.107,4.708-24.259,12.698
			c-25.104,28.043-0.493,51.598,0.567,52.587c1.209,1.129,1.279,3.026,0.153,4.238C174.106,128.284,173.303,128.607,172.498,128.607
			L172.498,128.607z"/>
	</g>
	<g>
		<path fill="#382800" d="M338.211,93.88c-0.06,0-0.12-0.001-0.181-0.005c-1.654-0.098-2.915-1.519-2.817-3.172
			c0.014-0.347,0.236-9.308-10.81-19.642c-22.89-22.321-55.377-3.229-55.702-3.034c-1.423,0.854-3.263,0.394-4.117-1.027
			c-0.853-1.42-0.393-3.263,1.027-4.116c0.365-0.22,36.814-21.631,62.937,3.838c13.205,12.354,12.684,23.853,12.655,24.336
			C341.108,92.651,339.786,93.88,338.211,93.88L338.211,93.88z"/>
	</g>
	<g>
		<path fill="#382800" d="M257.1,94.375c-0.029,0-0.058,0-0.087-0.001c-1.655-0.047-2.959-1.424-2.914-3.079
			c0.013-0.47,1.759-47.028,43.18-51.195c1.653-0.17,3.12,1.036,3.286,2.685c0.165,1.648-1.036,3.119-2.685,3.285
			c-36.138,3.636-37.733,43.689-37.783,45.392C260.05,93.087,258.716,94.375,257.1,94.375L257.1,94.375z"/>
	</g>
	<g>
		<path fill="#382800" d="M247.823,77.77c-1.213,0-2.354-0.741-2.807-1.941c-0.099-0.258-8.357-20.906-39.987-29.858
			c-1.594-0.451-2.521-2.109-2.07-3.704c0.452-1.594,2.111-2.52,3.704-2.07c34.765,9.84,43.61,32.56,43.97,33.522
			c0.579,1.552-0.208,3.28-1.761,3.86C248.527,77.709,248.172,77.77,247.823,77.77L247.823,77.77z"/>
	</g>
	<g>
		<path fill="#382800" d="M147.19,83.754c-0.771,0-1.541-0.295-2.127-0.885c-1.168-1.175-1.163-3.074,0.012-4.242
			c22.255-22.136,49.042-1.987,49.311-1.781c1.313,1.01,1.559,2.894,0.549,4.207c-1.009,1.312-2.89,1.558-4.203,0.552
			c-0.93-0.71-22.923-17.125-41.426,1.276C148.72,83.463,147.955,83.754,147.19,83.754L147.19,83.754z"/>
	</g>
	<g>
		<path fill="#FCB1A6" d="M295.449,41.201c-0.255-1.077-1.31-1.748-2.354-1.499l-3.582,0.853c-1.044,0.25-1.683,1.323-1.425,2.399
			c0,0-0.014,0.458,0.186,1.36c0.201,0.902,0.684,2.285,0.684,2.285c0.254,1.077,1.31,1.747,2.354,1.5l1.788-0.427l1.792-0.427
			c1.044-0.248,1.683-1.323,1.427-2.399c0,0-0.192-1.452-0.422-2.346C295.666,41.604,295.449,41.201,295.449,41.201z"/>
	</g>
	<g>
		<path fill="#E8ED00" d="M212.129,40.349c-1.174-0.435-2.49,0.196-2.94,1.408l-1.544,4.163c-0.448,1.212,0.14,2.548,1.313,2.984
			c0,0,0.419,0.308,1.394,0.689c0.974,0.38,2.582,0.787,2.582,0.787c1.175,0.434,2.49-0.196,2.941-1.408l0.771-2.081l0.771-2.081
			c0.449-1.212-0.14-2.549-1.313-2.984c0,0-1.485-0.741-2.471-1.087C212.646,40.391,212.129,40.349,212.129,40.349z"/>
	</g>
	<g>
		<path fill="#382800" d="M252.066,69.432c0,0,18.014-2.492,30.545,1.533c12.531,3.909,11.2,16.366,11.2,16.366l-46.782-8.91
			L252.066,69.432z"/>
	</g>
	<g>
		<path fill="#382800" d="M306.722,81.281c0,0,26.63-8.82,31.366,13.136c13.1,14.119,16.753,26.487,16.753,26.487l-9.328,2.778
			c0,0-41.107-34.274-40.876-34.216"/>
	</g>
	<g>
		<path fill="#382800" d="M242.033,65.455c0,0-16.156-8.414-33.755-6.528c-0.626,4.526-4.78,22.951,14.356,40.016
			C236.05,70.235,242.033,65.455,242.033,65.455z"/>
	</g>
</g>
</svg>
