<?xml version="1.0" encoding="utf-8"?>
<!-- Generator: Adobe Illustrator 14.0.0, SVG Export Plug-In . SVG Version: 6.00 Build 43363)  -->
<!DOCTYPE svg PUBLIC "-//W3C//DTD SVG 1.1//EN" "http://www.w3.org/Graphics/SVG/1.1/DTD/svg11.dtd">
<svg version="1.1" id="content" xmlns="http://www.w3.org/2000/svg" xmlns:xlink="http://www.w3.org/1999/xlink" x="0px" y="0px"
	 width="500px" height="500px" viewBox="0 0 500 500" enable-background="new 0 0 500 500" xml:space="preserve">
<rect id="position" x="0" y="0.32" display="none" fill="none" stroke="#000000" width="500" height="500"/>
<g>
	<path opacity="0.4" fill="#382800" d="M249.625,82.985c77.248,0,108.001,68.667,109.042,76.179
		c-3.029-32.876-25.446-61.021-57.353-75.865l-6.451-2.769c-13.807-5.439-29.139-8.47-45.299-8.47
		c-16.161,0-31.496,3.029-45.303,8.47l-6.448,2.769c-28.21,13.124-48.998,36.643-55.54,64.635
		c-0.762,3.728-1.398,7.615-1.873,11.704C140.4,159.637,168.654,82.985,249.625,82.985z"/>
	<path fill="#382800" d="M362.676,160.541c-0.17,0-0.341-0.014-0.514-0.044c-1.633-0.282-2.729-1.833-2.446-3.466
		c0.734-4.261,0.376-7.46-1.037-9.25c-1.013-1.284-2.328-1.466-2.341-1.467c-1.653-0.105-2.908-1.532-2.803-3.185
		c0.106-1.654,1.531-2.905,3.186-2.802c0.401,0.025,3.993,0.348,6.668,3.737c2.532,3.209,3.286,7.915,2.239,13.987
		C365.377,159.51,364.108,160.541,362.676,160.541L362.676,160.541z"/>
	<path fill="#382800" d="M362.619,148.055c-0.075,0-0.151-0.003-0.229-0.008c-1.652-0.125-2.891-1.565-2.766-3.217
		c0.232-3.081-0.326-5.215-1.659-6.343c-2.205-1.868-6.285-0.971-6.327-0.961c-1.606,0.396-3.233-0.587-3.63-2.196
		s0.587-3.234,2.196-3.63c0.715-0.176,7.123-1.612,11.637,2.208c2.885,2.441,4.151,6.268,3.766,11.374
		C365.489,146.857,364.174,148.055,362.619,148.055L362.619,148.055z"/>
	<path fill="#382800" d="M358.978,137.424c-1.483,0-2.772-1.1-2.971-2.61c-0.35-2.667-1.21-6.067-3.322-7.12
		c-2.191-1.09-5.265,0.589-5.294,0.606c-1.432,0.814-3.266,0.323-4.089-1.107c-0.823-1.429-0.347-3.249,1.076-4.082
		c0.588-0.344,5.886-3.285,10.928-0.814c3.624,1.776,5.861,5.725,6.65,11.737c0.216,1.643-0.941,3.149-2.584,3.365
		C359.24,137.415,359.108,137.424,358.978,137.424L358.978,137.424z"/>
	<path fill="#382800" d="M347.641,118.298c-1.215,0-2.357-0.744-2.81-1.948c-1.186-3.164-2.783-5.073-4.748-5.673
		c-3.192-0.973-6.921,1.543-6.957,1.569c-1.352,0.961-3.222,0.647-4.185-0.7c-0.962-1.349-0.648-3.222,0.7-4.185
		c0.246-0.175,6.1-4.282,12.193-2.422c3.842,1.173,6.74,4.304,8.615,9.306c0.581,1.552-0.205,3.281-1.757,3.862
		C348.347,118.236,347.992,118.298,347.641,118.298L347.641,118.298z"/>
	<path fill="#382800" d="M343.77,111.629c-1.439,0-2.71-1.04-2.955-2.506c-0.435-2.605-1.48-4.371-3.196-5.398
		c-4.047-2.425-10.617-0.308-10.684-0.286c-1.571,0.532-3.272-0.312-3.803-1.881c-0.531-1.569,0.312-3.272,1.881-3.803
		c0.374-0.127,9.226-3.05,15.688,0.822c3.271,1.958,5.3,5.174,6.031,9.558c0.272,1.634-0.831,3.18-2.465,3.453
		C344.101,111.615,343.934,111.629,343.77,111.629L343.77,111.629z"/>
	<path fill="#382800" d="M343.195,153.911c-2.792,0-6.402-0.666-9.537-3.375c-5.796-5.013-7.558-14.948-5.236-29.531
		c2.876-18.065-0.684-23.682-3.062-25.422c-3.747-2.744-9.541,0.037-9.598,0.066c-1.479,0.743-3.282,0.146-4.027-1.335
		c-0.743-1.481-0.145-3.284,1.336-4.027c0.369-0.185,9.103-4.472,15.832,0.455c6.275,4.592,8.056,14.8,5.444,31.207
		c-2.458,15.438,0.403,21.599,3.235,24.049c3.474,3.004,8.39,1.583,8.44,1.569c1.578-0.493,3.264,0.388,3.757,1.97
		c0.494,1.582-0.388,3.264-1.97,3.758C347.653,153.343,345.773,153.911,343.195,153.911L343.195,153.911z"/>
	<path fill="#382800" d="M311.968,140.424c-0.446,0-0.898-0.1-1.325-0.31c-1.485-0.732-2.097-2.531-1.363-4.017
		c15.311-31.048,3.226-40.196,3.102-40.285c-1.38-0.916-1.735-2.763-0.819-4.144c0.918-1.38,2.802-1.741,4.181-0.826
		c0.693,0.46,16.779,11.689-1.082,47.908C314.137,139.81,313.074,140.424,311.968,140.424L311.968,140.424z"/>
	<path fill="#382800" d="M355.995,129.325c-1.555,0-2.869-1.198-2.988-2.773c-0.229-3.022-1.168-5.056-2.792-6.045
		c-3.07-1.871-8.402-0.304-10.197,0.458c-1.521,0.646-3.284-0.062-3.934-1.583s0.052-3.279,1.571-3.933
		c0.944-0.406,9.418-3.861,15.658-0.08c3.382,2.048,5.292,5.659,5.676,10.73c0.125,1.652-1.112,3.093-2.765,3.218
		C356.147,129.322,356.071,129.325,355.995,129.325L355.995,129.325z"/>
	<path fill="#382800" d="M320.074,93.881c-1.104,0-2.168-0.613-2.69-1.67c-1.616-3.265-3.452-5.075-5.459-5.379
		c-3.266-0.49-6.71,2.941-6.744,2.977c-1.144,1.201-3.043,1.247-4.241,0.106c-1.201-1.142-1.248-3.041-0.106-4.242
		c0.562-0.589,5.652-5.736,11.991-4.773c4.058,0.615,7.401,3.525,9.937,8.65c0.735,1.485,0.127,3.285-1.358,4.02
		C320.975,93.781,320.521,93.881,320.074,93.881L320.074,93.881z"/>
	<path fill="#382800" d="M132.723,160.946c-1.416,0-2.675-1.006-2.945-2.449c-1.06-5.663-0.189-10.203,2.587-13.494
		c4.111-4.873,10.795-4.844,11.085-4.822c1.657,0.026,2.979,1.39,2.952,3.047c-0.026,1.651-1.354,2.943-3.031,2.953
		c-0.112,0-4.214,0.041-6.445,2.72c-1.54,1.848-1.96,4.706-1.252,8.493c0.305,1.628-0.769,3.196-2.397,3.5
		C133.092,160.929,132.906,160.946,132.723,160.946L132.723,160.946z"/>
	<path fill="#382800" d="M134.509,148.055c-1.554,0-2.869-1.199-2.988-2.774c-0.376-4.991,0.888-8.756,3.757-11.19
		c4.684-3.972,11.519-2.453,12.282-2.268c1.61,0.392,2.597,2.015,2.204,3.625c-0.391,1.606-2.011,2.591-3.614,2.207
		c-1.27-0.297-5-0.693-7.003,1.023c-1.313,1.124-1.866,3.193-1.642,6.152c0.125,1.652-1.114,3.092-2.766,3.217
		C134.661,148.052,134.585,148.055,134.509,148.055L134.509,148.055z"/>
	<path fill="#382800" d="M146.267,168.339c-0.578,0-1.163-0.167-1.678-0.516c-13.732-9.287-9.696-32.327-9.4-33.913
		c0.703-4.436,2.668-7.696,5.841-9.692c5.635-3.544,12.884-1.418,13.19-1.326c1.586,0.479,2.484,2.152,2.005,3.739
		c-0.478,1.583-2.141,2.481-3.728,2.009c-0.067-0.019-4.997-1.422-8.293,0.669c-1.662,1.055-2.674,2.879-3.095,5.575
		c-0.005,0.035-0.012,0.069-0.018,0.104c-0.039,0.203-3.786,20.666,6.858,27.865c1.373,0.928,1.732,2.793,0.804,4.166
		C148.176,167.877,147.23,168.339,146.267,168.339L146.267,168.339z"/>
	<path fill="#382800" d="M149.487,117.427c-0.35,0-0.706-0.062-1.052-0.192c-1.551-0.581-2.338-2.31-1.756-3.862
		c1.853-4.944,4.714-7.986,8.505-9.041c6.099-1.699,11.793,2.62,12.422,3.117c1.299,1.028,1.52,2.915,0.491,4.214
		c-1.026,1.296-2.907,1.518-4.205,0.499c-1.067-0.829-4.424-2.813-7.118-2.045c-1.833,0.519-3.339,2.323-4.478,5.361
		C151.845,116.684,150.701,117.427,149.487,117.427L149.487,117.427z"/>
	<path fill="#382800" d="M156.969,108.279c-0.431,0-0.869-0.093-1.284-0.29c-1.497-0.71-2.134-2.5-1.424-3.997
		c2.165-4.562,5.131-7.216,8.819-7.89c5.886-1.075,10.858,3.514,11.405,4.041c1.193,1.149,1.229,3.048,0.08,4.242
		c-1.146,1.191-3.04,1.23-4.233,0.087c-0.894-0.843-3.747-2.926-6.191-2.464c-1.673,0.313-3.173,1.846-4.458,4.556
		C159.168,107.646,158.091,108.279,156.969,108.279L156.969,108.279z"/>
	<path fill="none" d="M180.735,96.743"/>
	<path fill="#382800" d="M162.706,102.297c-0.317,0-0.64-0.051-0.958-0.158c-1.57-0.529-2.415-2.23-1.886-3.8
		c0.317-0.942,3.271-9.305,9.309-12.94c0.05-0.03,0.101-0.059,0.152-0.085c4.275-2.246,7.474-1.619,9.405-0.698
		c4.969,2.37,6.369,8.728,6.512,9.445c0.325,1.625-0.729,3.205-2.354,3.53c-1.621,0.322-3.198-0.725-3.528-2.344
		c-0.223-1.067-1.292-4.308-3.224-5.22c-0.991-0.468-2.317-0.28-3.942,0.558c-3.508,2.167-5.983,7.705-6.644,9.669
		C165.127,101.506,163.959,102.297,162.706,102.297L162.706,102.297z"/>
	<path fill="#382800" d="M140.602,129.325c-0.059,0-0.117-0.001-0.176-0.005c-1.654-0.096-2.917-1.514-2.822-3.168
		c0.302-5.23,2.195-8.939,5.626-11.023c6.404-3.892,15.292-0.106,16.285,0.338c1.512,0.677,2.188,2.452,1.511,3.964
		c-0.677,1.51-2.447,2.188-3.96,1.513c-1.914-0.847-7.565-2.616-10.729-0.683c-1.639,1.001-2.562,3.099-2.743,6.236
		C143.502,128.093,142.18,129.325,140.602,129.325L140.602,129.325z"/>
	<path fill="#382800" d="M199.459,90.633c-0.695,0-1.393-0.24-1.959-0.729l0,0c-1.727-1.485-7.224-5.238-11.857-4.741
		c-2.086,0.221-3.819,1.275-5.296,3.223c-1.001,1.32-2.883,1.579-4.203,0.577c-1.32-1.001-1.579-2.883-0.577-4.203
		c2.504-3.3,5.69-5.173,9.471-5.567c8.178-0.848,16.058,5.887,16.389,6.173c1.252,1.085,1.387,2.98,0.301,4.232
		C201.134,90.282,200.299,90.633,199.459,90.633L199.459,90.633z"/>
	<path fill="#382800" d="M164.475,168.08c-0.583,0-1.173-0.17-1.691-0.524c-1.368-0.936-1.718-2.802-0.782-4.17
		c10.141-14.824,8.94-37.86,7.976-56.37c-0.901-17.295-1.612-30.956,6.66-35.001c5.416-2.648,8.954-1.521,10.967-0.109
		c6.371,4.47,5.361,17.021,5.094,19.491c-0.178,1.647-1.654,2.845-3.305,2.66c-1.646-0.178-2.837-1.656-2.66-3.302l0,0
		c0.484-4.554,0-12.134-2.576-13.938c-1.005-0.703-2.648-0.505-4.884,0.588c-4.71,2.304-4.026,15.417-3.303,29.3
		c1.011,19.412,2.27,43.571-9.016,60.07C166.373,167.623,165.432,168.08,164.475,168.08L164.475,168.08z"/>
	<path fill="#382800" d="M288.352,86.115c-0.57,0-1.147-0.163-1.657-0.502c-1.377-0.917-1.754-2.771-0.841-4.15
		c0.549-0.829,5.555-8.09,12.404-8.09c0.01,0,0.019,0,0.028,0c3.806,0.011,7.153,2.185,9.949,6.461
		c0.907,1.387,0.518,3.246-0.869,4.152c-1.386,0.907-3.246,0.518-4.152-0.869c-1.619-2.476-3.279-3.735-4.936-3.745
		c-0.007,0-0.014,0-0.02,0c-3.09,0-6.466,4.003-7.407,5.409C290.273,85.646,289.321,86.115,288.352,86.115L288.352,86.115z"/>
	<path fill="#382800" d="M273.07,81.422c-0.621,0-1.247-0.191-1.784-0.589c-1.331-0.986-1.61-2.865-0.625-4.196
		c0.217-0.292,5.387-7.16,13.059-7.768c4.448-0.349,8.68,1.407,12.581,5.229c1.184,1.16,1.203,3.059,0.043,4.243
		c-1.158,1.184-3.059,1.203-4.242,0.043c-2.608-2.554-5.264-3.747-7.908-3.534c-4.9,0.388-8.674,5.308-8.711,5.357
		C274.894,81.002,273.988,81.422,273.07,81.422L273.07,81.422z"/>
	<path fill="#382800" d="M260.579,79.107c-0.323,0-0.651-0.053-0.974-0.164c-1.567-0.538-2.401-2.245-1.864-3.812
		c0.102-0.295,2.556-7.257,8.813-9.212c4.081-1.275,8.565-0.144,13.333,3.364c1.335,0.982,1.621,2.86,0.64,4.194
		c-0.984,1.337-2.861,1.62-4.194,0.639c-3.145-2.313-5.833-3.147-7.988-2.47c-3.282,1.026-4.912,5.39-4.927,5.434
		C262.989,78.324,261.825,79.107,260.579,79.107L260.579,79.107z"/>
	<path fill="#382800" d="M198.985,90.633c-0.695,0-1.393-0.24-1.959-0.729l0,0c-1.727-1.485-7.223-5.238-11.857-4.741
		c-2.086,0.221-3.819,1.275-5.296,3.223c-1.002,1.32-2.882,1.579-4.203,0.577c-1.32-1.001-1.579-2.883-0.577-4.203
		c2.504-3.3,5.69-5.173,9.471-5.567c8.183-0.848,16.058,5.887,16.389,6.173c1.252,1.085,1.387,2.98,0.301,4.232
		C200.659,90.282,199.824,90.633,198.985,90.633L198.985,90.633z"/>
	<path fill="#382800" d="M190.926,86.014c-0.563,0-1.132-0.158-1.639-0.49c-1.387-0.907-1.776-2.766-0.869-4.152
		c2.57-3.931,5.97-6.293,10.105-7.021c8.362-1.47,16.548,4.574,16.892,4.833c1.326,0.994,1.595,2.874,0.601,4.2
		c-0.992,1.324-2.868,1.594-4.194,0.605l0,0c-0.063-0.047-6.484-4.752-12.279-3.725c-2.462,0.439-4.458,1.876-6.104,4.392
		C192.864,85.536,191.905,86.014,190.926,86.014L190.926,86.014z"/>
	<path fill="#382800" d="M224.824,80.839c-0.834,0-1.663-0.345-2.256-1.021c-0.09-0.1-4.444-4.919-9.842-5.112
		c-2.882-0.097-5.544,1.102-8.174,3.678c-1.184,1.159-3.083,1.14-4.243-0.043c-1.16-1.184-1.14-3.083,0.043-4.243
		c3.83-3.752,8.09-5.565,12.64-5.386c8.031,0.314,13.846,6.875,14.09,7.154c1.089,1.249,0.96,3.144-0.288,4.233
		C226.227,80.595,225.524,80.839,224.824,80.839L224.824,80.839z"/>
	<path fill="#382800" d="M237.256,79.255c-1.215,0-2.357-0.744-2.809-1.946c-0.037-0.096-1.749-4.404-5.709-5.813
		c-2.885-1.026-6.453-0.341-10.599,2.04c-1.437,0.826-3.271,0.329-4.096-1.108c-0.825-1.437-0.328-3.271,1.108-4.096
		c5.771-3.312,11.044-4.139,15.676-2.46c6.61,2.397,9.138,9.061,9.242,9.343c0.574,1.554-0.22,3.279-1.774,3.854
		C237.952,79.195,237.601,79.255,237.256,79.255L237.256,79.255z"/>
	<path fill="#382800" d="M250.367,78.121c-0.143,0-0.287-0.01-0.431-0.031c-0.485-0.07-2.104-0.457-2.54-2.484
		c-0.001-0.006-0.002-0.011-0.004-0.017c-0.19-0.649-1.192-3.591-4.109-5.144c-2.818-1.499-6.705-1.336-11.553,0.489
		c-1.55,0.583-3.281-0.199-3.865-1.75c-0.584-1.551,0.2-3.281,1.75-3.865c11.697-4.404,17.829-0.016,20.444,2.991
		c0.033,0.039,2.408,2.963,3.08,5.612c0.05,0.135,0.091,0.275,0.122,0.42l-0.029,0.006c0.001,0.006,0.002,0.012,0.004,0.018
		l0.029-0.006l-0.029,0.007c0.144,0.804,0.104,1.564-0.236,2.189C252.469,77.53,251.453,78.121,250.367,78.121L250.367,78.121z"/>
	<path fill="#382800" d="M319.943,130.166c0.422-1.179-0.225-2.488-1.442-2.923l-4.18-1.494c-1.218-0.435-2.547,0.169-2.969,1.348
		c0,0-0.303,0.423-0.673,1.401c-0.368,0.979-0.756,2.592-0.756,2.592c-0.422,1.179,0.225,2.488,1.441,2.924l2.09,0.746l2.09,0.746
		c1.218,0.436,2.548-0.168,2.97-1.347c0,0,0.724-1.493,1.059-2.483C319.908,130.684,319.943,130.166,319.943,130.166z"/>
	<path fill="#E8ED00" d="M171.964,158.762c0.422-1.179-0.225-2.488-1.442-2.923l-4.18-1.494c-1.218-0.435-2.547,0.169-2.969,1.348
		c0,0-0.303,0.423-0.673,1.401c-0.368,0.979-0.756,2.592-0.756,2.592c-0.422,1.179,0.225,2.488,1.441,2.924l2.09,0.746l2.09,0.746
		c1.218,0.436,2.548-0.168,2.97-1.347c0,0,0.724-1.493,1.059-2.483C171.928,159.281,171.964,158.762,171.964,158.762z"/>
	<path fill="#FCB1A6" d="M343.836,148.599c0.072-1.104-0.738-2.055-1.81-2.125l-3.676-0.238c-1.07-0.068-1.996,0.771-2.066,1.875
		c0,0-0.147,0.433-0.222,1.354s-0.02,2.384-0.02,2.384c-0.073,1.104,0.739,2.055,1.81,2.125l1.836,0.118l1.838,0.118
		c1.07,0.07,1.997-0.77,2.068-1.874c0,0,0.242-1.445,0.286-2.367C343.925,149.047,343.836,148.599,343.836,148.599z"/>
	<path fill="#382800" d="M274.621,114.559c-0.322,0-0.65-0.053-0.973-0.163c-1.567-0.537-2.402-2.243-1.865-3.811
		c11.151-32.545-5.596-39.295-5.766-39.36c-0.199-0.075-0.391-0.172-0.569-0.287c-8.347-5.397-15.231,1.225-15.52,1.509
		c-1.181,1.162-3.08,1.148-4.243-0.033c-1.163-1.181-1.148-3.081,0.033-4.243c3.605-3.549,12.965-8.576,22.755-2.421
		c2.869,1.259,21.274,10.916,8.985,46.779C277.032,113.776,275.868,114.559,274.621,114.559L274.621,114.559z"/>
	<path fill="#382800" d="M312.236,113.867c-1.05,0-2.068-0.552-2.619-1.532c-4.31-7.677-5.367-14.285-3.144-19.64
		c2.727-6.565,9.363-8.482,9.645-8.56c1.598-0.445,3.25,0.487,3.695,2.084c0.443,1.59-0.48,3.237-2.065,3.69
		c-0.118,0.036-4.199,1.313-5.757,5.145c-1.427,3.511-0.438,8.472,2.858,14.344c0.811,1.445,0.297,3.273-1.147,4.084
		C313.237,113.743,312.733,113.867,312.236,113.867L312.236,113.867z"/>
	<path fill="#382800" d="M152.164,156.063c-1.557,0-2.873-1.202-2.989-2.779c-0.122-1.652,1.119-3.091,2.771-3.212
		c3.135-0.231,5.719-2.041,6.913-4.84c1.255-2.943,0.696-6.281-1.494-8.929c-0.042-0.051-0.082-0.103-0.121-0.156
		c-12.523-17.348,4.174-38.625,4.891-39.521c1.034-1.295,2.922-1.506,4.216-0.471c1.293,1.033,1.505,2.919,0.474,4.213l0,0
		c-0.146,0.185-14.513,18.559-4.768,32.194c3.592,4.399,4.46,10.008,2.321,15.024c-2.091,4.904-6.574,8.071-11.99,8.47
		C152.312,156.061,152.238,156.063,152.164,156.063L152.164,156.063z"/>
	<path fill="#382800" d="M291.594,102.106c-0.136,0-0.272-0.009-0.41-0.028c-1.642-0.224-2.79-1.737-2.566-3.378
		c2.913-21.317-8.797-25.887-9.297-26.071c-1.543-0.568-2.357-2.278-1.806-3.827c0.552-1.549,2.228-2.373,3.786-1.836
		c0.69,0.237,16.872,6.12,13.262,32.547C294.356,101.015,293.07,102.106,291.594,102.106L291.594,102.106z"/>
	<path fill="#382800" d="M230.031,112.122c-1.007,0-1.991-0.507-2.558-1.428c-8.158-13.25-10.511-24.35-6.992-32.992
		c4.009-9.845,14.09-12.473,14.518-12.58c1.604-0.4,3.237,0.573,3.639,2.181c0.401,1.603-0.569,3.228-2.168,3.636
		c-0.115,0.03-7.641,2.08-10.456,9.086c-2.681,6.672-0.409,16.189,6.569,27.522c0.869,1.411,0.429,3.259-0.982,4.127
		C231.111,111.978,230.567,112.122,230.031,112.122L230.031,112.122z"/>
	<path fill="#382800" d="M189.51,144.582c-1.12,0-2.195-0.63-2.709-1.709c-0.407-0.852-9.884-21.129-3.456-43.376
		c0.01-0.033,0.021-0.067,0.031-0.1c3.893-11.894,9.54-19.45,16.782-22.458c7.506-3.119,13.822-0.012,14.088,0.122
		c1.479,0.746,2.074,2.55,1.328,4.03c-0.743,1.472-2.533,2.069-4.009,1.338c-0.21-0.101-4.298-1.998-9.212,0.096
		c-5.419,2.309-10.003,8.771-13.258,18.689c-5.772,20.06,3.032,38.889,3.121,39.077c0.713,1.495,0.08,3.286-1.416,3.999
		C190.383,144.488,189.943,144.582,189.51,144.582L189.51,144.582z"/>
	<path fill="#382800" d="M249.524,105.471c-0.88,0-1.752-0.385-2.345-1.126c-6.248-7.811-8.397-15.235-6.388-22.064
		c3.476-11.814,18.207-16.881,18.832-17.091c1.575-0.526,3.272,0.319,3.799,1.89c0.527,1.569-0.317,3.269-1.885,3.797
		c-0.15,0.051-12.422,4.316-14.996,13.117c-1.414,4.835,0.377,10.421,5.323,16.604c1.035,1.294,0.825,3.182-0.469,4.217
		C250.843,105.256,250.181,105.471,249.524,105.471L249.524,105.471z"/>
	<path fill="#E8ED00" d="M229.855,99.17c-0.547-1.126-1.935-1.581-3.098-1.016l-3.993,1.94c-1.162,0.565-1.661,1.938-1.114,3.064
		c0,0,0.09,0.512,0.53,1.461c0.44,0.948,1.321,2.354,1.321,2.354c0.548,1.126,1.935,1.581,3.098,1.016l1.996-0.97l1.996-0.971
		c1.162-0.565,1.662-1.938,1.115-3.063c0,0-0.561-1.562-1.033-2.494C230.201,99.558,229.855,99.17,229.855,99.17z"/>
</g>
</svg>
