<?xml version="1.0" encoding="utf-8"?>
<!-- Generator: Adobe Illustrator 18.0.0, SVG Export Plug-In . SVG Version: 6.00 Build 0)  -->
<!DOCTYPE svg PUBLIC "-//W3C//DTD SVG 1.1//EN" "http://www.w3.org/Graphics/SVG/1.1/DTD/svg11.dtd">
<svg version="1.1" id="content" xmlns="http://www.w3.org/2000/svg" xmlns:xlink="http://www.w3.org/1999/xlink" x="0px" y="0px"
	 width="500px" height="500px" viewBox="0 0 500 500" enable-background="new 0 0 500 500" xml:space="preserve">
<rect id="position" display="none" fill="none" stroke="#000000" width="500" height="500"/>
<g id="bounds" display="none">
	<rect x="0.2" y="80.2" display="inline" fill="none" stroke="#EAEAEA" stroke-miterlimit="10" width="499.5" height="499.5"/>
</g>
<g>
	<path id="hair_3_" fill="#382800" d="M327.6,281c-1.7-4.2-5.6-25.4-39.6-40.6c5.3,5.5,3.8,18.1,3.8,18.1s-13.9-18-32.6-20.6
		c12.8,9.1,11.4,15.4,11.4,15.4s-45.5-7.3-65.2,9c-12.9,11-15.4,0-29.6,6.7c-14.2,6.7-16,32.4-40.9,32.3c4.8,6.9,15.4,4.4,15.4,4.4
		s-13.6,7.6-12.8,24c76.8,0,236.9,10.3,236.9,10.3s7.4-13.9-3.7-25.8c6.6,0.4,13.3,3.9,13.3,3.9s-11.8-19.9-31.2-24.6
		C333.9,288.8,331,288.7,327.6,281z"/>
	<g>
		<path fill="#C9C8CE" d="M322.7,300.8l28.3-41.1c1.7-2.4,1.3-5.7-0.9-7.2c-2.2-1.5-5.3-0.8-7,1.7l-29.4,42.7
			c-19.4-7.6-40.9-11.9-63.6-11.9c-22.7,0-44.2,4.3-63.6,11.9L157,254.2c-1.7-2.4-4.8-3.2-7-1.7c-2.2,1.5-2.6,4.7-0.9,7.2l28.3,41.1
			c-45,20.9-76.6,60.8-80.6,107.2h306.6C399.3,361.5,367.7,321.7,322.7,300.8"/>
		<g>
			<path fill="#FFFFFF" d="M186,365.6c-9.4,0-17-7.6-17-17c0-9.4,7.6-17,17-17c9.4,0,17,7.6,17,17C202.9,358,195.3,365.6,186,365.6"
				/>
			<path fill="#FFFFFF" d="M314,365.6c-9.4,0-17-7.6-17-17c0-9.4,7.6-17,17-17c9.4,0,17,7.6,17,17C331,358,323.4,365.6,314,365.6"/>
		</g>
	</g>
	<path id="hair_2_" fill="#382800" d="M374.6,340.1c0,0-36.7-0.7-48.5-31.3c-2.7-10.7-27.1-18.7-38.3-13.6
		c-11.2,5.1-16.9,26.1-50.7,31.2c24.7-11,24.4-33.6,17.4-36.2c-18.5,28.2-44.8,30.2-66.3,25c-21.5-5.2-10.7,13.2-50.6,12.1
		c9.6-16.4,39.6-42.6,82.3-47.9s85.8-3.9,118,18.5C370.1,320.4,374.6,340.1,374.6,340.1z"/>
</g>
</svg>
