<?xml version="1.0" encoding="utf-8"?>
<!-- Generator: Adobe Illustrator 18.0.0, SVG Export Plug-In . SVG Version: 6.00 Build 0)  -->
<!DOCTYPE svg PUBLIC "-//W3C//DTD SVG 1.1//EN" "http://www.w3.org/Graphics/SVG/1.1/DTD/svg11.dtd">
<svg version="1.1" id="content" xmlns="http://www.w3.org/2000/svg" xmlns:xlink="http://www.w3.org/1999/xlink" x="0px" y="0px"
	 width="500px" height="500px" viewBox="0 0 500 500" enable-background="new 0 0 500 500" xml:space="preserve">
<rect id="position" display="none" fill="none" stroke="#000000" width="500" height="500"/>
<g id="bounds" display="none">
	
		<rect x="121.7" y="-28.4" display="inline" fill="none" stroke="#000000" stroke-width="0.9871" stroke-miterlimit="10" width="254.7" height="254.7"/>
</g>
<path id="hair" fill="#382800" d="M338.3,111.3c0,0-26.1-0.5-34.5-22.3c-1.9-7.6-19.3-13.3-27.3-9.7c-8,3.6-12,18.6-36.1,22.2
	c17.6-7.8,17.4-23.9,12.4-25.8c-13.2,20.1-31.9,21.5-47.2,17.8c-15.3-3.7-7.6,9.4-36,8.6c6.8-11.7,28.2-30.3,58.6-34.1
	c30.4-3.8,61.1-2.8,84,13.2C335.1,97.3,338.3,111.3,338.3,111.3z"/>
</svg>
