<?xml version="1.0" encoding="utf-8"?>
<!-- Generator: Adobe Illustrator 18.0.0, SVG Export Plug-In . SVG Version: 6.00 Build 0)  -->
<!DOCTYPE svg PUBLIC "-//W3C//DTD SVG 1.1//EN" "http://www.w3.org/Graphics/SVG/1.1/DTD/svg11.dtd">
<svg version="1.1" id="content" xmlns="http://www.w3.org/2000/svg" xmlns:xlink="http://www.w3.org/1999/xlink" x="0px" y="0px"
	 width="500px" height="500px" viewBox="0 0 500 500" enable-background="new 0 0 500 500" xml:space="preserve">
<rect id="position" display="none" fill="none" stroke="#000000" width="500" height="500"/>
<path id="hair_1_" fill="#382800" d="M304.8,69.2c-1.2-3-4-18.1-28.2-28.9c3.8,3.9,2.7,12.9,2.7,12.9s-9.9-12.8-23.2-14.7
	c9.1,6.5,8.1,11,8.1,11s-32.4-5.2-46.4,6.4c-9.2,7.8-11,0-21.1,4.8s-11.4,23.1-29.1,23c3.4,4.9,11,3.1,11,3.1s-9.7,5.4-9.1,17.1
	c54.7,0,168.7,7.3,168.7,7.3s5.3-9.9-2.6-18.4c4.7,0.3,9.5,2.8,9.5,2.8s-8.4-14.2-22.2-17.5C309.3,74.8,307.2,74.7,304.8,69.2z"/>
<g id="bounds" display="none">
	
		<rect x="121.7" y="-28.4" display="inline" fill="none" stroke="#000000" stroke-width="0.9871" stroke-miterlimit="10" width="254.7" height="254.7"/>
</g>
</svg>
