<?xml version="1.0" encoding="utf-8"?>
<!-- Generator: Adobe Illustrator 18.0.0, SVG Export Plug-In . SVG Version: 6.00 Build 0)  -->
<!DOCTYPE svg PUBLIC "-//W3C//DTD SVG 1.1//EN" "http://www.w3.org/Graphics/SVG/1.1/DTD/svg11.dtd">
<svg version="1.1" id="content" xmlns="http://www.w3.org/2000/svg" xmlns:xlink="http://www.w3.org/1999/xlink" x="0px" y="0px"
	 width="500px" height="500px" viewBox="0 0 500 500" enable-background="new 0 0 500 500" xml:space="preserve">
<rect id="position" display="none" fill="none" stroke="#000000" width="500" height="500"/>
<g id="bounds" display="none">
	<rect x="0.2" y="80.2" display="inline" fill="none" stroke="#EAEAEA" stroke-miterlimit="10" width="499.5" height="499.5"/>
</g>
<g>
	<path id="hair_1_" fill="#382800" d="M304.2,306.8c0,0-47.9,19.9-73.1,4.4c-6.8-5.4-5.1-13.8-5.1-13.8s-66.1,2.3-114,63.7
		c3.4-25.9,24.4-45.1,24.4-45.1s-17.2-1.1-25.9,7.9c13.1-34.4,47.9-31.1,47.9-31.1s-14.5-9.2-16.2-16.2
		c14.8,3.7,43.1-14.1,43.1-14.1s-25.9-16.8-9.4-33.4c3.1,17.2,38,7.8,47.8,18.2c-8-16.5,6.1-25.2,6.1-25.2s-3.4,14.1,17.2,20.9
		c-4.7-16.2,8.2-20.2,8.2-20.2s-4.5,8.7,16.8,16.1c21.3,7.3,33,15.5,34.4,32.7c28-14.1,42.8-8.3,54,3.7c-13.1,0-14.8,8.7-14.8,8.7
		s20.9,0.3,31,14.1c-12.5-3.1-16.9,5.1-16.9,5.1s18.2,5.5,24.9,23.7c-11.8-4.5-15.5-2.7-15.5-2.7s9,9,10.7,20.9
		C343.5,308.7,310.9,324.2,304.2,306.8z"/>
	<g>
		<path fill="#C9C8CE" d="M322.9,300.4l28.4-41.2c1.7-2.5,1.3-5.7-0.9-7.2c-2.2-1.5-5.4-0.8-7,1.7l-29.5,42.9
			c-19.5-7.7-41.1-11.9-63.8-11.9c-22.8,0-44.4,4.3-63.8,11.9l-29.5-42.9c-1.7-2.5-4.8-3.2-7-1.7c-2.2,1.5-2.6,4.7-0.9,7.2
			l28.4,41.2c-45.2,21-76.9,61-80.9,107.6h307.6C399.8,361.4,368.1,321.4,322.9,300.4"/>
		<g>
			<path fill="#FFFFFF" d="M185.7,365.4c-9.4,0-17-7.6-17-17c0-9.4,7.6-17,17-17c9.4,0,17,7.6,17,17
				C202.8,357.8,195.1,365.4,185.7,365.4"/>
			<path fill="#FFFFFF" d="M314.3,365.4c-9.4,0-17-7.6-17-17c0-9.4,7.6-17,17-17c9.4,0,17,7.6,17,17
				C331.3,357.8,323.7,365.4,314.3,365.4"/>
		</g>
	</g>
	<path id="hair" fill="#382800" d="M197.2,302.1c0,0-1.7,8.3,4.9,13.7c24.9,15.4,101.3-20.4,101.3-20.4
		c-0.3,28.2,36.8,10.1,71.9,44.1c-15.6-32.7-23.4-36.9-52.1-50.7l-9-3.8c-19.3-7.6-42-6.8-64.7-6.8s-41.9,1.7-61.2,9.3l-9,3.8
		c-28.7,13.4-50.7,30.2-66.8,65.8C159.9,297.2,197.2,302.1,197.2,302.1z"/>
</g>
</svg>
