<?xml version="1.0" encoding="utf-8"?>
<!-- Generator: Adobe Illustrator 18.0.0, SVG Export Plug-In . SVG Version: 6.00 Build 0)  -->
<!DOCTYPE svg PUBLIC "-//W3C//DTD SVG 1.1//EN" "http://www.w3.org/Graphics/SVG/1.1/DTD/svg11.dtd">
<svg version="1.1" id="content" xmlns="http://www.w3.org/2000/svg" xmlns:xlink="http://www.w3.org/1999/xlink" x="0px" y="0px"
	 width="500px" height="500px" viewBox="0 0 500 500" enable-background="new 0 0 500 500" xml:space="preserve">
<rect id="position" display="none" fill="none" stroke="#000000" width="500" height="500"/>
<g id="bounds" display="none">
	<rect x="0.2" y="80.2" display="inline" fill="none" stroke="#EAEAEA" stroke-miterlimit="10" width="499.5" height="499.5"/>
</g>
<g>
	<g>
		<path fill="#C9C8CE" d="M322.3,312.9l28.4-41.2c1.7-2.4,1.3-5.7-0.9-7.2c-2.2-1.5-5.4-0.8-7,1.7L313.2,309
			c-19.4-7.7-41-11.9-63.7-11.9s-44.3,4.3-63.7,11.9l-29.5-42.8c-1.7-2.4-4.8-3.2-7-1.7c-2.2,1.5-2.6,4.7-0.9,7.2l28.4,41.2
			c-45.1,21-76.7,60.9-80.8,107.4H403C399,373.8,367.4,333.9,322.3,312.9"/>
		<g>
			<path fill="#FFFFFF" d="M185.3,377.9c-9.4,0-17-7.6-17-17c0-9.4,7.6-17,17-17c9.4,0,17,7.6,17,17
				C202.3,370.2,194.7,377.9,185.3,377.9"/>
			<path fill="#FFFFFF" d="M313.6,377.9c-9.4,0-17-7.6-17-17c0-9.4,7.6-17,17-17c9.4,0,17,7.6,17,17
				C330.6,370.2,323,377.9,313.6,377.9"/>
		</g>
	</g>
	<g id="hair_1_">
		<path fill="#382800" d="M130.9,347.1c0,0-10.1,9.6-10.1,30c0,18.9,24.6,19,24.6,19l-12.2,9.8l10,2.3c0,0-5.8,23.6-36,23.6
			s-38.7-30-26.3-49.5C92.5,363.6,114.5,349.5,130.9,347.1z"/>
		<path fill="#382800" d="M369.7,347.1c0,0,10.1,9.6,10.1,30c0,18.9-24.6,19-24.6,19l12.2,9.8l-10,2.3c0,0,5.8,23.6,36,23.6
			s38.7-30,26.3-49.5C408.2,363.6,386.3,349.5,369.7,347.1z"/>
		<path fill="#382800" d="M333.4,318.6c0,0-17.4-6-40.7,7.3c-23.2,13.4-104.8,36.6-143.2-19.7c-22.5-34.5,3.5-68.9,23.9-75.7
			c-6.3,24.3,11.3,43.3,51.4,38.4C264.9,264,322.4,269.2,333.4,318.6z"/>
	</g>
</g>
</svg>
