<?xml version="1.0" encoding="utf-8"?>
<!-- Generator: Adobe Illustrator 18.0.0, SVG Export Plug-In . SVG Version: 6.00 Build 0)  -->
<!DOCTYPE svg PUBLIC "-//W3C//DTD SVG 1.1//EN" "http://www.w3.org/Graphics/SVG/1.1/DTD/svg11.dtd">
<svg version="1.1" id="content" xmlns="http://www.w3.org/2000/svg" xmlns:xlink="http://www.w3.org/1999/xlink" x="0px" y="0px"
	 width="500px" height="500px" viewBox="0 0 500 500" enable-background="new 0 0 500 500" xml:space="preserve">
<rect id="position" display="none" fill="none" stroke="#000000" width="500" height="500"/>
<g id="hair">
	<path fill="#382800" d="M165.3,107.6c0,0-7.2,6.8-7.2,21.3c0,13.4,17.5,13.5,17.5,13.5l-8.7,7l7.1,1.6c0,0-4.1,16.8-25.6,16.8
		s-27.5-21.3-18.7-35.2C138,119.3,153.6,109.3,165.3,107.6z"/>
	<path fill="#382800" d="M335,107.6c0,0,7.2,6.8,7.2,21.3c0,13.4-17.5,13.5-17.5,13.5l8.7,7l-7.1,1.6c0,0,4.1,16.8,25.6,16.8
		s27.5-21.3,18.7-35.2C362.4,119.3,346.8,109.3,335,107.6z"/>
	<path fill="#382800" d="M309.2,87.3c0,0-12.4-4.3-28.9,5.2s-74.5,26-101.8-14c-16-24.5,2.5-49,17-53.8C191,42,203.5,55.5,232,52
		S301.4,52.2,309.2,87.3z"/>
</g>
<g id="bounds_1_" display="none">
	
		<rect x="122.7" y="-31.2" display="inline" fill="none" stroke="#000000" stroke-width="0.9871" stroke-miterlimit="10" width="254.7" height="254.7"/>
</g>
</svg>
