<?xml version="1.0" encoding="utf-8"?>
<!-- Generator: Adobe Illustrator 18.0.0, SVG Export Plug-In . SVG Version: 6.00 Build 0)  -->
<!DOCTYPE svg PUBLIC "-//W3C//DTD SVG 1.1//EN" "http://www.w3.org/Graphics/SVG/1.1/DTD/svg11.dtd">
<svg version="1.1" id="content" xmlns="http://www.w3.org/2000/svg" xmlns:xlink="http://www.w3.org/1999/xlink" x="0px" y="0px"
	 width="500px" height="500px" viewBox="0 0 500 500" enable-background="new 0 0 500 500" xml:space="preserve">
<rect id="position" display="none" fill="none" stroke="#000000" width="500" height="500"/>
<path id="hair" fill="#382800" d="M303,37.7c0-4.2-3.4-7.5-7.5-7.5c-1.6,0-3.1,0.5-4.3,1.3c-1.1-2.8-3.8-4.8-7-4.8
	c-1.8,0-3.4,0.6-4.7,1.6c-1.2-2.6-3.8-4.5-6.9-4.5c-2,0-3.8,0.8-5.1,2c-1.4-2-3.6-3.2-6.2-3.2c-2.1,0-4,0.8-5.3,2.2
	c-1.4-1.6-3.4-2.5-5.6-2.5c-2.2,0-4.2,1-5.6,2.5c-1.4-1.4-3.2-2.2-5.3-2.2c-2.6,0-4.8,1.3-6.2,3.2c-1.3-1.2-3.1-2-5.1-2
	c-3.1,0-5.7,1.8-6.9,4.5c-1.3-1-2.9-1.6-4.7-1.6c-3.2,0-5.9,2-7,4.8c-1.2-0.8-2.7-1.3-4.3-1.3c-4.2,0-7.5,3.4-7.5,7.5
	c0,3.4,2.2,6.2,5.2,7.2c-0.9,1.2-1.5,2.8-1.5,4.4c0,3.4,2.2,6.2,5.2,7.2c-0.9,1.2-1.5,2.8-1.5,4.4c0,3.4,2.2,6.2,5.2,7.2
	c-0.9,1.2-1.5,2.8-1.5,4.4c0,4.2,2.6,8,7.5,8.5c0,0,19.2,2.5,34.6,2.5c15.3,0,33-2.5,33-2.5c5.1-0.8,7.5-4.4,7.5-8.5
	c0-1.7-0.5-3.2-1.5-4.4c3-1,5.2-3.8,5.2-7.2c0-1.7-0.5-3.2-1.5-4.4c3-1,5.2-3.8,5.2-7.2c0-1.7-0.5-3.2-1.4-4.4
	C300.9,43.9,303,41,303,37.7z"/>
<g id="bounds_1_" display="none">
	
		<rect x="120.3" y="-39.2" display="inline" fill="none" stroke="#000000" stroke-width="1.0056" stroke-miterlimit="10" width="259.4" height="259.4"/>
</g>
</svg>
