<?xml version="1.0" encoding="utf-8"?>
<!-- Generator: Adobe Illustrator 18.0.0, SVG Export Plug-In . SVG Version: 6.00 Build 0)  -->
<!DOCTYPE svg PUBLIC "-//W3C//DTD SVG 1.1//EN" "http://www.w3.org/Graphics/SVG/1.1/DTD/svg11.dtd">
<svg version="1.1" id="content" xmlns="http://www.w3.org/2000/svg" xmlns:xlink="http://www.w3.org/1999/xlink" x="0px" y="0px"
	 width="500px" height="500px" viewBox="0 0 500 500" enable-background="new 0 0 500 500" xml:space="preserve">
<rect id="position" display="none" fill="none" stroke="#000000" width="500" height="500"/>
<g id="bounds" display="none">
	
		<rect x="120.7" y="-21.6" display="inline" fill="none" stroke="#000000" stroke-width="0.9871" stroke-miterlimit="10" width="254.7" height="254.7"/>
</g>
<path id="hair" fill="#382800" d="M322.3,96c0,0-34.7-21.1-50.9-1c-19.6-18.6-56-16.8-74.9,2.5c0,0-1-2.6,0.4-8.9
	c-8.9,3.2-11,10.5-11,10.5l-1.9-6.1c-6.1,3.4-10.2,10.9-10.2,10.9c0.7-5.1,1.2-10.2,4.2-14c13.9-18.4,33.4-27.9,70.1-27.9
	C274.9,61.9,307.2,61.9,322.3,96z"/>
</svg>
