<?xml version="1.0" encoding="utf-8"?>
<!-- Generator: Adobe Illustrator 18.0.0, SVG Export Plug-In . SVG Version: 6.00 Build 0)  -->
<!DOCTYPE svg PUBLIC "-//W3C//DTD SVG 1.1//EN" "http://www.w3.org/Graphics/SVG/1.1/DTD/svg11.dtd">
<svg version="1.1" id="content" xmlns="http://www.w3.org/2000/svg" xmlns:xlink="http://www.w3.org/1999/xlink" x="0px" y="0px"
	 width="500px" height="500px" viewBox="0 0 500 500" enable-background="new 0 0 500 500" xml:space="preserve">
<rect id="position" display="none" fill="none" stroke="#000000" width="500" height="500"/>
<g id="bounds" display="none">
	<rect x="0.2" y="80.2" display="inline" fill="none" stroke="#EAEAEA" stroke-miterlimit="10" width="499.5" height="499.5"/>
</g>
<g>
	<g id="hair_2_">
		<path fill="#382800" d="M167,233.7c-3.9,0-7,3.1-7,7v92.7c0,3.9,3.1,6.6,7,6.2l75.5-9.2c3.8-0.4,10.1-0.4,13.9,0l75.5,9.2
			c3.8,0.4,7-2.4,7-6.2v-92.7c0-3.9-3.1-7-7-7H167z"/>
	</g>
	<g>
		<path fill="#C9C8CE" d="M322.6,319.7l28.4-41.2c1.7-2.5,1.3-5.7-0.9-7.2c-2.2-1.5-5.4-0.8-7,1.7l-29.5,42.8
			c-19.4-7.7-41-11.9-63.8-11.9s-44.4,4.3-63.8,11.9L156.4,273c-1.7-2.5-4.8-3.2-7-1.7c-2.2,1.5-2.6,4.7-0.9,7.2l28.4,41.2
			c-45.2,21-76.8,60.9-80.9,107.5h307.5C399.5,380.6,367.8,340.7,322.6,319.7"/>
		<g>
			<path fill="#FFFFFF" d="M185.5,384.7c-9.4,0-17-7.6-17-17c0-9.4,7.6-17,17-17c9.4,0,17,7.6,17,17
				C202.5,377.1,194.9,384.7,185.5,384.7"/>
			<path fill="#FFFFFF" d="M314,384.7c-9.4,0-17-7.6-17-17c0-9.4,7.6-17,17-17c9.4,0,17,7.6,17,17C331,377.1,323.4,384.7,314,384.7"
				/>
		</g>
	</g>
	<path id="hair_1_" fill="#382800" d="M249.8,296c0,0-56.6-0.3-89.9,32.8c0,0,39.2-17.3,89.9-17.3s89.9,17.3,89.9,17.3
		C306.3,295.8,249.8,296,249.8,296z"/>
</g>
</svg>
