<?xml version="1.0" encoding="utf-8"?>
<!-- Generator: Adobe Illustrator 18.0.0, SVG Export Plug-In . SVG Version: 6.00 Build 0)  -->
<!DOCTYPE svg PUBLIC "-//W3C//DTD SVG 1.1//EN" "http://www.w3.org/Graphics/SVG/1.1/DTD/svg11.dtd">
<svg version="1.1" id="content" xmlns="http://www.w3.org/2000/svg" xmlns:xlink="http://www.w3.org/1999/xlink" x="0px" y="0px"
	 width="500px" height="500px" viewBox="0 0 500 500" enable-background="new 0 0 500 500" xml:space="preserve">
<rect id="position" display="none" fill="none" stroke="#000000" width="500" height="500"/>
<g id="bounds" display="none">
	<rect x="0.2" y="80.2" display="inline" fill="none" stroke="#EAEAEA" stroke-miterlimit="10" width="499.5" height="499.5"/>
</g>
<g>
	<g id="hair_1_">
		<path fill="#382800" d="M367.2,330.6l-1.3-20.2c-3.5-39.3-29.5-42.5-45.8-36.6c-6.6,2.4-18.9,8.1-18.9,8.1s-22.6-22.6-57.9-22.6
			s-89.2,29-109.4,72.4C223.9,331.5,367.2,330.6,367.2,330.6z"/>
	</g>
	<g>
		<path fill="#C9C8CE" d="M323.2,300.1l28.5-41.4c1.7-2.5,1.3-5.7-0.9-7.2c-2.2-1.5-5.4-0.8-7.1,1.7l-29.6,43
			c-19.5-7.7-41.2-12-64-12s-44.5,4.3-64,12l-29.6-43c-1.7-2.5-4.9-3.2-7.1-1.7c-2.2,1.5-2.6,4.8-0.9,7.2l28.5,41.4
			c-45.3,21.1-77.1,61.1-81.1,107.9h308.6C400.2,361.2,368.5,321.2,323.2,300.1"/>
		<g>
			<path fill="#FFFFFF" d="M185.5,365.3c-9.4,0-17.1-7.6-17.1-17.1c0-9.4,7.6-17.1,17.1-17.1c9.4,0,17.1,7.6,17.1,17.1
				C202.6,357.7,195,365.3,185.5,365.3"/>
			<path fill="#FFFFFF" d="M314.5,365.3c-9.4,0-17.1-7.6-17.1-17.1c0-9.4,7.6-17.1,17.1-17.1c9.4,0,17.1,7.6,17.1,17.1
				C331.5,357.7,323.9,365.3,314.5,365.3"/>
		</g>
	</g>
	<path id="hair" fill="#382800" d="M364.5,327c0,0-27.7-21.6-50.2-24.2c-21.2,29.4-70.4,21.8-103.5,6.5
		c-33.1-15.3-67.4,12.9-76,20.1c12.6-19.5,37.7-60.9,113.5-55.3C255.9,274.5,360.3,285,364.5,327z"/>
</g>
</svg>
