<?xml version="1.0" encoding="utf-8"?>
<!-- Generator: Adobe Illustrator 18.0.0, SVG Export Plug-In . SVG Version: 6.00 Build 0)  -->
<!DOCTYPE svg PUBLIC "-//W3C//DTD SVG 1.1//EN" "http://www.w3.org/Graphics/SVG/1.1/DTD/svg11.dtd">
<svg version="1.1" id="content" xmlns="http://www.w3.org/2000/svg" xmlns:xlink="http://www.w3.org/1999/xlink" x="0px" y="0px"
	 width="500px" height="500px" viewBox="0 0 500 500" enable-background="new 0 0 500 500" xml:space="preserve">
<rect id="position" display="none" fill="none" stroke="#000000" width="500" height="500"/>
<g id="hair_1_">
	<path fill="#382800" d="M317.9,90.2l6.7-11.2c4.3-6.3-1.2-12.3-5.9-15.7c-4.6-3.5-13.7-10.5-32.8-16.4c4.4-9.1,11.2-11.1,15.7-10.8
		c-7.1-5-24.3-4.6-30.6,1.1c0.1-6.8,6.1-11.5,12.7-11.4c-13.6-3.5-25.9,4.4-30.7,9.6c-2.7-8.4,4.5-14.4,7.7-15.6
		c-11.8-0.4-21.3,6.2-30.9,19.7c-1.7-9,3-18.3,3-18.3s-10.3,3.8-22.8,22.1c-5.4,6.1-31.6,20.8-31.6,20.8c-9.4,5.9-2.3,14.9,3.6,25.4
		l9.7,16.9h112.8L317.9,90.2z"/>
</g>
<g id="bounds" display="none">
	
		<rect x="120.7" y="-37.8" display="inline" fill="none" stroke="#000000" stroke-width="0.9871" stroke-miterlimit="10" width="254.7" height="254.7"/>
</g>
</svg>
