<?xml version="1.0" encoding="utf-8"?>
<!-- Generator: Adobe Illustrator 18.0.0, SVG Export Plug-In . SVG Version: 6.00 Build 0)  -->
<!DOCTYPE svg PUBLIC "-//W3C//DTD SVG 1.1//EN" "http://www.w3.org/Graphics/SVG/1.1/DTD/svg11.dtd">
<svg version="1.1" id="content" xmlns="http://www.w3.org/2000/svg" xmlns:xlink="http://www.w3.org/1999/xlink" x="0px" y="0px"
	 width="500px" height="500px" viewBox="0 0 500 500" enable-background="new 0 0 500 500" xml:space="preserve">
<rect id="position" display="none" fill="none" stroke="#000000" width="500" height="500"/>
<g id="bounds" display="none">
	<rect x="0.2" y="80.2" display="inline" fill="none" stroke="#EAEAEA" stroke-miterlimit="10" width="499.5" height="499.5"/>
</g>
<g>
	<g id="hair_3_">
		<path fill="#382800" d="M346,330.6l9.4-15.7c6-8.8-1.7-17.3-8.3-22c-6.5-4.9-19.2-14.7-46.1-23c6.2-12.8,15.7-15.6,22-15.2
			c-10-7-34.1-6.5-43,1.5c0.1-9.5,8.6-16.1,17.8-16c-19.1-4.9-36.4,6.2-43.1,13.5c-3.8-11.8,6.3-20.2,10.8-21.9
			c-16.6-0.6-29.9,8.7-43.4,27.7c-2.4-12.6,4.2-25.7,4.2-25.7s-14.5,5.3-32,31c-7.6,8.6-44.4,29.2-44.4,29.2
			c-13.2,8.3-3.2,20.9,5.1,35.7l13.6,23.7h158.4L346,330.6z"/>
	</g>
	<g>
		<path fill="#C9C8CE" d="M322.7,320.9l28.3-41.1c1.7-2.4,1.3-5.6-0.9-7.2c-2.2-1.5-5.3-0.8-7,1.7L313.6,317
			c-19.4-7.6-40.9-11.9-63.6-11.9s-44.2,4.3-63.6,11.9L157,274.3c-1.7-2.4-4.8-3.2-7-1.7c-2.2,1.5-2.6,4.7-0.9,7.2l28.3,41.1
			c-45,20.9-76.6,60.7-80.6,107.2h306.5C399.2,381.6,367.7,341.8,322.7,320.9"/>
		<g>
			<path fill="#FFFFFF" d="M186,385.7c-9.4,0-17-7.6-17-17c0-9.4,7.6-17,17-17c9.4,0,17,7.6,17,17
				C202.9,378.1,195.3,385.7,186,385.7"/>
			<path fill="#FFFFFF" d="M314,385.7c-9.4,0-17-7.6-17-17c0-9.4,7.6-17,17-17c9.4,0,17,7.6,17,17C331,378.1,323.4,385.7,314,385.7"
				/>
		</g>
	</g>
	<path id="hair_2_" fill="#382800" d="M240.8,346.6c-6,0-17.4-13.8-22.9-21.1c0,0-2.4-5.5-9-2.5c-6.6,2.9-45.5,21.1-45.5,21.1
		s-4.2-6.9-10.7-18.5c34.4-19.9,67.4-28.5,98.7-27.2c31.3,1.3,62.6,8.3,97,28.2c-6.5,11.7-9.7,17-9.7,17S300.6,325.9,294,323
		c-6.6-2.9-9,2.5-9,2.5c-5.5,7.3-16.8,21.1-22.9,21.1C257.6,346.6,245.1,346.6,240.8,346.6z"/>
</g>
</svg>
