<?xml version="1.0" encoding="utf-8"?>
<!-- Generator: Adobe Illustrator 18.0.0, SVG Export Plug-In . SVG Version: 6.00 Build 0)  -->
<!DOCTYPE svg PUBLIC "-//W3C//DTD SVG 1.1//EN" "http://www.w3.org/Graphics/SVG/1.1/DTD/svg11.dtd">
<svg version="1.1" id="content" xmlns="http://www.w3.org/2000/svg" xmlns:xlink="http://www.w3.org/1999/xlink" x="0px" y="0px"
	 width="500px" height="500px" viewBox="0 0 500 500" enable-background="new 0 0 500 500" xml:space="preserve">
<rect id="position" display="none" fill="none" stroke="#000000" width="500" height="500"/>
<polygon id="hair_1_" fill="#382800" points="344.9,110.2 336.5,108.7 336.8,93.3 323.8,94 321.8,80.7 309.1,83.7 305.1,70.8 
	293,75.8 287.2,63.8 276,70.7 268.4,59.7 258.4,68.3 249.4,58.7 240.4,68.3 230.4,59.7 222.9,70.7 211.8,63.8 206,75.8 194,70.8 
	190,83.7 177.4,80.7 175.4,94 162.5,93.3 162.7,108.6 153.8,110.6 156.1,117.7 162.7,108.6 162.8,112.2 249.3,112.2 249.4,112.2 
	336.5,112.2 336.5,109.2 343,117.5 "/>
<g id="bounds_1_" display="none">
	
		<rect x="120.3" y="-21.1" display="inline" fill="none" stroke="#000000" stroke-width="1.0056" stroke-miterlimit="10" width="259.4" height="259.4"/>
</g>
</svg>
