<?xml version="1.0" encoding="utf-8"?>
<!-- Generator: Adobe Illustrator 18.0.0, SVG Export Plug-In . SVG Version: 6.00 Build 0)  -->
<!DOCTYPE svg PUBLIC "-//W3C//DTD SVG 1.1//EN" "http://www.w3.org/Graphics/SVG/1.1/DTD/svg11.dtd">
<svg version="1.1" id="content" xmlns="http://www.w3.org/2000/svg" xmlns:xlink="http://www.w3.org/1999/xlink" x="0px" y="0px"
	 width="500px" height="500px" viewBox="0 0 500 500" enable-background="new 0 0 500 500" xml:space="preserve">
<rect id="position" display="none" fill="none" stroke="#000000" width="500" height="500"/>
<g id="bounds" display="none">
		<rect x="118.3" y="-20.4" display="inline" fill="none" stroke="#000000" stroke-width="1.0056" stroke-miterlimit="10" width="259.4" height="259.4"/>
</g>
<path id="hair" fill="#382800" d="M158.4,114.3c0,0-0.8,3-1.2,7.8c5.7-12.1,10.3-15,10.3-15l1.5,6.6c2.5-10.7,7.8-15,7.8-15
	s0.5,7.9,1.7,10.2c0.5-11.9,6.6-15.7,6.6-15.7s4.5,7.3,5.2,12c0.6-9.2,8.9-15.1,8.9-15.1s5.7,10.2,19.4,16.8
	c-3-5.4-2.6-12.3-2.6-12.3s10.5,16.1,28.8,21.5c-6.2-9.4-3.2-12.3-3.2-12.3s4.7,6.5,16.5,7.5c-4.4-6.8,1.9-14.7,1.9-14.7
	s4.2,4.9,13.3,8.1c-5.8-6.5-5.6-9.2-5.6-9.2s14.4,19.8,51.6,17.9c-8.1-7.3-9.5-14.1-9.5-14.1s19.3,9.9,23,21.5
	c2.5-6.4,0-12.6,0-12.6s9,7.2,13.7,18.5c-1.2-21.6-34.4-61-96.9-61C222,65.9,184.5,76.9,158.4,114.3z"/>
</svg>
