<?xml version="1.0" encoding="utf-8"?>
<!-- Generator: Adobe Illustrator 18.0.0, SVG Export Plug-In . SVG Version: 6.00 Build 0)  -->
<!DOCTYPE svg PUBLIC "-//W3C//DTD SVG 1.1//EN" "http://www.w3.org/Graphics/SVG/1.1/DTD/svg11.dtd">
<svg version="1.1" id="content" xmlns="http://www.w3.org/2000/svg" xmlns:xlink="http://www.w3.org/1999/xlink" x="0px" y="0px"
	 width="500px" height="500px" viewBox="0 0 500 500" enable-background="new 0 0 500 500" xml:space="preserve">
<rect id="position" display="none" fill="none" stroke="#000000" width="500" height="500"/>
<g id="bounds" display="none">
	<rect x="0.2" y="80.2" display="inline" fill="none" stroke="#EAEAEA" stroke-miterlimit="10" width="499.5" height="499.5"/>
</g>
<g>
	<path id="hair_3_" fill="#382800" d="M141.9,328.3c0,0-4.9-58.3,51.4-54.7c-9.3-7.4-20.2-8-20.2-8s18.1-7.2,34.9,0.3
		c23.7-19.4,95.7-27.5,134.9,5.6c28.7,25.2,21.1,37.7,43.4,37.7c0,0-13.8,12.4-24.5,2.1c6.2,9.1,17.6,13.6,27.7,11.7
		c-11.9,8.6-30.2,4.8-30.2,4.8L141.9,328.3z"/>
	<g>
		<path fill="#C9C8CE" d="M322.7,300.7l28.3-41.1c1.7-2.4,1.3-5.7-0.9-7.2c-2.2-1.5-5.3-0.8-7,1.7l-29.4,42.7
			c-19.4-7.6-40.9-11.9-63.7-11.9s-44.3,4.3-63.7,11.9l-29.4-42.7c-1.7-2.4-4.8-3.2-7-1.7c-2.2,1.5-2.6,4.7-0.9,7.2l28.3,41.1
			c-45.1,21-76.7,60.8-80.7,107.3h306.8C399.4,361.5,367.8,321.7,322.7,300.7"/>
		<g>
			<path fill="#FFFFFF" d="M185.9,365.6c-9.4,0-17-7.6-17-17c0-9.4,7.6-17,17-17c9.4,0,17,7.6,17,17
				C202.9,358,195.3,365.6,185.9,365.6"/>
			<path fill="#FFFFFF" d="M314.1,365.6c-9.4,0-17-7.6-17-17c0-9.4,7.6-17,17-17c9.4,0,17,7.6,17,17
				C331.1,358,323.5,365.6,314.1,365.6"/>
		</g>
	</g>
	<path id="hair_2_" fill="#382800" d="M158.2,302.8c0,0,18.4,21.2,66.3,28.8c-14.5-8-11-14.3-11-14.3s14.9,25.9,89.4,26
		c-8-5.2-13.8-14.6-13.8-14.6s33.4,19.5,70.8,10.7c-20.2-3.7-20.2-9.6-20.2-9.6s16.4,7.7,35.3,3.8c-9.8-2.1-11.4-7.7-11.4-7.7
		s-17-46.2-113.7-46.2C153.4,279.6,158.2,297.2,158.2,302.8z"/>
</g>
</svg>
