<?xml version="1.0" encoding="utf-8"?>
<!-- Generator: Adobe Illustrator 18.0.0, SVG Export Plug-In . SVG Version: 6.00 Build 0)  -->
<!DOCTYPE svg PUBLIC "-//W3C//DTD SVG 1.1//EN" "http://www.w3.org/Graphics/SVG/1.1/DTD/svg11.dtd">
<svg version="1.1" id="content" xmlns="http://www.w3.org/2000/svg" xmlns:xlink="http://www.w3.org/1999/xlink" x="0px" y="0px"
	 width="500px" height="500px" viewBox="0 0 500 500" enable-background="new 0 0 500 500" xml:space="preserve">
<rect id="position" display="none" fill="none" stroke="#000000" width="500" height="500"/>
<g id="bounds" display="none">
	<rect x="0.2" y="80.2" display="inline" fill="none" stroke="#EAEAEA" stroke-miterlimit="10" width="499.5" height="499.5"/>
</g>
<g>
	<path id="hair_2_" fill="#382800" d="M383.4,408c8.5,7.9,21.5,10,34.2,3.2c-9.7-0.7-21.2-5.2-18.8-9c8.4,2.3,19.2,1.5,28.9-7.3
		c-17.8,3.2-23.4-21.1-23.2-27.5c6.6,4,16.4-0.8,19.7-7.3c-14.5,4.7-27.8-20.5-43-42.1c-14.4-20.1-54.4-62.7-129.9-64.4
		c0,0-87.9,0.4-128.4,63.8C107,345.6,88.4,371.6,73,372.1c8.1,8.9,20.8,8.1,20.8,8.1s-1.5,10.1-21.6,11.9
		c5.9,4.9,16.8,8.5,31.1,11.2c-3.2,4.2-7.1,7.4-12.3,9.3c9,4.4,22.3,0.5,32.2-4.5L383.4,408z"/>
	<g>
		<path fill="#C9C8CE" d="M322.6,292.8l27.6-40.1c1.6-2.4,1.2-5.5-0.9-7c-2.1-1.5-5.2-0.7-6.8,1.6L313.8,289
			c-18.9-7.5-39.9-11.6-62.1-11.6s-43.1,4.1-62.1,11.6L161,247.4c-1.6-2.4-4.7-3.1-6.9-1.6c-2.1,1.5-2.5,4.6-0.9,7l27.6,40.1
			c-43.9,20.4-74.7,59.3-78.7,104.6h299.1C397.3,352.1,366.5,313.2,322.6,292.8"/>
		<g>
			<path fill="#FFFFFF" d="M189.3,356c-9.1,0-16.5-7.4-16.5-16.5c0-9.1,7.4-16.5,16.5-16.5c9.1,0,16.5,7.4,16.5,16.5
				C205.8,348.6,198.4,356,189.3,356"/>
			<path fill="#FFFFFF" d="M314.2,356c-9.1,0-16.5-7.4-16.5-16.5c0-9.1,7.4-16.5,16.5-16.5c9.1,0,16.5,7.4,16.5,16.5
				C330.7,348.6,323.3,356,314.2,356"/>
		</g>
	</g>
	<path id="hair_1_" fill="#382800" d="M141.6,399.7c-7.9-2.2-12.2-13.4-10.4-16.8c5.5,7.1,18.9,8.9,25.9,4.1
		c-27.1-21.6-4.1-71,42.6-77.9c21.5-3.3,81.4,17.1,107.7,0.7c2.2-1.4,8.1-5.1,7.8-8.5c1.8,21.9,25.6,22.6,44.9,35.3
		c19.3,12.7,16.7,34-3.3,42.1c20.5,5.8,24.2-4.4,24.2-4.4s6.7,20.1-19,26.4c0,0,13.4,3.3,41.1,0.4c0.8-31.2-26.6-84.2-65.2-110.7
		c-21.2-14.5-45.2-22.2-70.8-22.9c-14.9-0.4-29.9,1.2-44.5,3.6c-14.9,2.5-30.7,5.3-44.7,11.6c-5.9,2.7-11.6,5.8-17.3,8.9
		c-13.4,7.4-23.8,15.5-33.6,27.3c-3.4,4.2-6.7,8.6-9.7,13.2c-4,6-7.5,12.2-10.5,18.8c0,0-6.8,20.4-6.2,47.4L141.6,399.7z"/>
</g>
</svg>
