<?xml version="1.0" encoding="utf-8"?>
<!-- Generator: Adobe Illustrator 18.0.0, SVG Export Plug-In . SVG Version: 6.00 Build 0)  -->
<!DOCTYPE svg PUBLIC "-//W3C//DTD SVG 1.1//EN" "http://www.w3.org/Graphics/SVG/1.1/DTD/svg11.dtd">
<svg version="1.1" id="content" xmlns="http://www.w3.org/2000/svg" xmlns:xlink="http://www.w3.org/1999/xlink" x="0px" y="0px"
	 width="500px" height="500px" viewBox="0 0 500 500" enable-background="new 0 0 500 500" xml:space="preserve">
<rect id="position" display="none" fill="none" stroke="#000000" width="500" height="500"/>
<path id="hair" fill="#382800" d="M169.2,161.3c-5.8-1.6-8.9-9.8-7.6-12.3c4,5.2,13.8,6.5,18.9,3c-19.8-15.8-3-51.8,31.1-56.9
	c15.7-2.4,59.4,12.5,78.6,0.5c1.6-1,5.9-3.7,5.7-6.2c1.3,16,18.7,16.5,32.8,25.8c14.1,9.3,12.2,24.8-2.4,30.7
	c15,4.2,17.7-3.2,17.7-3.2s4.9,14.7-13.9,19.3c0,0,9.8,2.4,30,0.3c0.6-22.8-19.4-61.5-47.6-80.8c-15.5-10.6-33-16.2-51.7-16.7
	c-10.9-0.3-21.8,0.9-32.5,2.6c-10.9,1.8-22.4,3.9-32.6,8.5c-4.3,2-8.5,4.2-12.6,6.5c-9.8,5.4-17.4,11.3-24.5,19.9
	c-2.5,3.1-4.9,6.3-7.1,9.6c-2.9,4.4-5.5,8.9-7.7,13.7c0,0-5,14.9-4.5,34.6L169.2,161.3z"/>
<g id="bounds" display="none">
	
		<rect x="110.6" y="-19.5" display="inline" fill="none" stroke="#000000" stroke-width="1.0056" stroke-miterlimit="10" width="278.8" height="259.4"/>
</g>
</svg>
