<?xml version="1.0" encoding="utf-8"?>
<!-- Generator: Adobe Illustrator 18.0.0, SVG Export Plug-In . SVG Version: 6.00 Build 0)  -->
<!DOCTYPE svg PUBLIC "-//W3C//DTD SVG 1.1//EN" "http://www.w3.org/Graphics/SVG/1.1/DTD/svg11.dtd">
<svg version="1.1" id="content" xmlns="http://www.w3.org/2000/svg" xmlns:xlink="http://www.w3.org/1999/xlink" x="0px" y="0px"
	 width="500px" height="500px" viewBox="0 0 500 500" enable-background="new 0 0 500 500" xml:space="preserve">
<rect id="position" display="none" fill="none" stroke="#000000" width="500" height="500"/>
<g id="bounds_2_" display="none">
	
		<rect x="86.6" y="-56" display="inline" fill="none" stroke="#000000" stroke-width="1.2665" stroke-miterlimit="10" width="326.7" height="326.7"/>
</g>
<path id="hair" fill="#382800" d="M342,120.1c-4.3-44.8-86.7-57.6-122.2-51.6c-14.9,11.8-39,11.9-54.9,29.8
	c-11,12.4-39.4,41.3-8.1,50.4c-8.4-18.4,2.2-28.1,2.1-31.4c0.4,8.8,4.8,15.4,11.5,19.7c-11.7-12.5,9.3-37.5,20.8-42.1
	c1.3,2.3-0.7,8.5-3.2,10.9c17.5-8.3,14.1-20.7,32.5-30.6c9.4,18.6,29.6,22,47.8,25.7c-6.5-4.2-8.7-9-9.8-12.6
	c8.3,6.3,18.9,10.1,31.3,11.1c-4.2-1.2-10.6-13.6-6.8-12.9c6.9,1.1,21.6,9.5,32.4,21.6c-0.3-0.3-1.7-10.1-1.5-10.1
	c17,6,24.3,28.4,27.5,33.4C341.6,127.7,341.8,123.9,342,120.1"/>
</svg>
