<?xml version="1.0" encoding="utf-8"?>
<!-- Generator: Adobe Illustrator 18.0.0, SVG Export Plug-In . SVG Version: 6.00 Build 0)  -->
<!DOCTYPE svg PUBLIC "-//W3C//DTD SVG 1.1//EN" "http://www.w3.org/Graphics/SVG/1.1/DTD/svg11.dtd">
<svg version="1.1" id="content" xmlns="http://www.w3.org/2000/svg" xmlns:xlink="http://www.w3.org/1999/xlink" x="0px" y="0px"
	 width="500px" height="500px" viewBox="0 0 500 500" enable-background="new 0 0 500 500" xml:space="preserve">
<rect id="position" display="none" fill="none" stroke="#000000" width="500" height="500"/>
<path id="hair_1_" fill="#382800" d="M346.1,162.4c2.3,2.5,0.6,6.5-2.1,8.1c10.2,0.5,13.3-4.4,13.3-4.4c1.8,0.4,2.4,2.7-0.5,5.3
	c4.4-1,12-6.4,9.1-11.9c5.3,1.3,14.2-0.6,16.1-6.5c-4.4-0.2-8-0.3-11.1-3.2c3.4,0,8-2.2,8.8-5.6c-2.5,0.9-5.4,0.9-7.6-0.6
	c-5.1-3.5-3.3-10.9-3.3-16.1c0.3-6.2,0.2-9-1.9-15.3c-2.1-6.3-9-16.3-18.3-22.1c-2.2-1.4-9-5.7-12-4.7c0,0,9-3,11.4-10.2
	c-22.9,4.5-50.5-31.4-90.5-33c-53.2-0.8-64.2,30.2-64.2,30.2c-2.2-1.1-8.1-6.1-19.6-5.9c-21.1,0.8-32.4,23-38.2,33.2
	c-5.9,10.2-18.5,10.6-21.8,4.6c-0.9,4.8,0.8,13.2,8.7,15.6c-7.3,10.3-4.4,20.3,1.3,27.1c5.7,6.8,2.8,16-6.2,15.2
	c4.3,3.8,13.6,5.6,20.6,1.6c0,0,5,9.7,19.7,7.3c-6.6-2.7-5.8-5.7-5.8-5.7s-0.4-0.2,0,0c0,0,15,7.6,38.2,5.1
	c-10-2.4-10.4-5.7-10.4-5.7s16.7,7.1,40.4,4.4c-2.3-2.5-1.8-4.4-1.8-4.4s12.6,8.2,40,2c-0.9,1.7-4,3.5-4,3.5s15.2,1.7,32.7-5.7
	c-1,4.1-6,5.6-6,5.6s25.1,1.4,37.5-5.2c0.5,2.2-5.2,5.1-5.2,5.1S330.4,171.1,346.1,162.4z"/>
<g id="bounds_2_" display="none">
	
		<rect x="86.6" y="-56" display="inline" fill="none" stroke="#000000" stroke-width="1.2665" stroke-miterlimit="10" width="326.7" height="326.7"/>
</g>
</svg>
