<?xml version="1.0" encoding="utf-8"?>
<!-- Generator: Adobe Illustrator 18.0.0, SVG Export Plug-In . SVG Version: 6.00 Build 0)  -->
<!DOCTYPE svg PUBLIC "-//W3C//DTD SVG 1.1//EN" "http://www.w3.org/Graphics/SVG/1.1/DTD/svg11.dtd">
<svg version="1.1" id="Layer_1" xmlns="http://www.w3.org/2000/svg" xmlns:xlink="http://www.w3.org/1999/xlink" x="0px" y="0px"
	 width="500px" height="500px" viewBox="0 0 500 500" enable-background="new 0 0 500 500" xml:space="preserve">
<rect id="position" display="none" fill="none" stroke="#000000" width="500" height="500"/>
<g id="bounds" display="none">
	
		<rect x="108.3" y="-32.7" display="inline" fill="none" stroke="#000000" stroke-width="1.0988" stroke-miterlimit="10" width="283.5" height="283.5"/>
</g>
<path id="hair" fill="#382800" d="M287.4,68.9c-0.9,3-1.4,5.4-1.8,7.3c-26.2-10.6-36.3-5.3-36.3-5.3s-11.6-4-36.3,5.5
	c-0.3-2-0.9-4.5-1.8-7.5c-86.3,6-77,88.7-77,88.7s7.5,15.6,45.1,14.7c-11.9-53.6,12.2-76.1,25.2-84c-0.4,2.3-0.6,3.7-0.6,3.7
	s4.7,6.9,17.6,11.7c0.6-6.5,1.4-10.5,7.6-13.1c-3.7,3.7-3.8,11.3-3.7,14.4c5.9,1.8,13.2,3,22.1,3.2c0-4.3,0.2-14,1.9-16.3
	c1.7,2.3,1.8,12,1.9,16.3c8.9-0.2,16.2-1.4,22.1-3.2c0.1-3.1,0.1-10.7-3.7-14.4c6.2,2.5,6.9,6.6,7.6,13.1
	c12.9-4.8,17.6-11.7,17.6-11.7s0-1.4-0.4-3.5c13.1,8.1,36.7,30.6,24.9,83.9c37.6,0.9,45.1-14.7,45.1-14.7S373.7,74.9,287.4,68.9z"/>
</svg>
