<?xml version="1.0" encoding="utf-8"?>
<!-- Generator: Adobe Illustrator 18.0.0, SVG Export Plug-In . SVG Version: 6.00 Build 0)  -->
<!DOCTYPE svg PUBLIC "-//W3C//DTD SVG 1.1//EN" "http://www.w3.org/Graphics/SVG/1.1/DTD/svg11.dtd">
<svg version="1.1" id="content" xmlns="http://www.w3.org/2000/svg" xmlns:xlink="http://www.w3.org/1999/xlink" x="0px" y="0px"
	 width="500px" height="500px" viewBox="0 0 500 500" enable-background="new 0 0 500 500" xml:space="preserve">
<rect id="position" display="none" fill="none" stroke="#000000" width="500" height="500"/>
<path fill="#382800" d="M251.2,78c-61.5,0-92.7,43.2-93.9,44.9c0,0,0,0,0,0c15.9-18.3,44-36.5,92.7-36.5c49.8,0,78,19.1,93.7,37.7
	c-2-3.6-4.4-7.3-7-11C323.6,100,295.2,78,251.2,78z"/>
<path fill="#C4C4C4" d="M251.2,78c43.9,0,72.4,22,85.5,35.3C321.5,92.4,295.2,73,250,73c-51.7,0-78.7,27.6-92.6,49.9
	C158.6,121.2,189.7,78,251.2,78z"/>
<g id="bounds_1_" display="none">
	
		<rect x="120.3" y="-17.3" display="inline" fill="none" stroke="#000000" stroke-width="1.0056" stroke-miterlimit="10" width="259.4" height="259.4"/>
</g>
</svg>
