<?xml version="1.0" encoding="utf-8"?>
<!-- Generator: Adobe Illustrator 18.0.0, SVG Export Plug-In . SVG Version: 6.00 Build 0)  -->
<!DOCTYPE svg PUBLIC "-//W3C//DTD SVG 1.1//EN" "http://www.w3.org/Graphics/SVG/1.1/DTD/svg11.dtd">
<svg version="1.1" id="content" xmlns="http://www.w3.org/2000/svg" xmlns:xlink="http://www.w3.org/1999/xlink" x="0px" y="0px"
	 width="500px" height="500px" viewBox="0 0 500 500" enable-background="new 0 0 500 500" xml:space="preserve">
<rect id="position" display="none" fill="none" stroke="#000000" width="500" height="500"/>
<g id="bounds" display="none">
	<rect x="0.2" y="80.2" display="inline" fill="none" stroke="#EAEAEA" stroke-miterlimit="10" width="499.5" height="499.5"/>
</g>
<g>
	<path id="hair_1_" fill="#382800" d="M100.1,389.7c0,0-14.6-55.1,19.8-64.7c1.3-18.1,13.2-20.7,31.5-21.9
		c12.7-26,35.3-26,48.5-26.6c9.1-26.9,32.8-26.7,39.9-23.2c7.3,3.5,18,4.8,22.8,2c11.5-8.3,32.8-5.3,44.6,14.3
		c16.3-3.4,37.3,6.9,37.8,30.2c20.8,5.3,19.4,21.9,19.4,21.9s18.6-2.5,26.2,15.8c1.7,4.4,2.7,11.1-0.6,18.3c7.6,1.3,5.8,15.8,3,21.4
		L100.1,389.7z"/>
	<g>
		<path fill="#C9C8CE" d="M322.8,300.6l28.4-41.2c1.7-2.4,1.3-5.7-0.9-7.2c-2.2-1.5-5.4-0.8-7,1.7l-29.5,42.8
			c-19.4-7.7-41-11.9-63.7-11.9c-22.7,0-44.3,4.3-63.7,11.9l-29.5-42.8c-1.7-2.4-4.8-3.2-7-1.7c-2.2,1.5-2.6,4.7-0.9,7.2l28.4,41.2
			c-45.1,21-76.7,60.9-80.8,107.4h307.1C399.5,361.5,367.9,321.6,322.8,300.6"/>
		<g>
			<path fill="#FFFFFF" d="M185.9,365.5c-9.4,0-17-7.6-17-17c0-9.4,7.6-17,17-17c9.4,0,17,7.6,17,17
				C202.8,357.9,195.2,365.5,185.9,365.5"/>
			<path fill="#FFFFFF" d="M314.1,365.5c-9.4,0-17-7.6-17-17c0-9.4,7.6-17,17-17c9.4,0,17,7.6,17,17
				C331.1,357.9,323.5,365.5,314.1,365.5"/>
		</g>
	</g>
	<path id="hair" fill="#382800" d="M375.1,378c5.2-2.1,15.2-9.4,15.8-19c-28.6-59.6-89.3-87.5-148-87.5c-62.3,0-90.9,28.1-113.2,53
		c-6.8,8.9-24.2,26.2-30,63.4c9.1-3.1,16.3-14.3,17.9-22.4c3.9-13.8,15.9-6.9,16.9-17c1-10.1,2.8-15.8,8.6-16
		c5.6-0.3,18.3-5.3,25.7-17.9c3.1-5.8,14.9-17.9,33.6-15.3c4.8,17.6,27.4,28,27.4,28s-2.5-12,1.8-15.5c18.6,13.1,39,15.2,39,15.2
		c0,2.7-4.8-16.7-0.8-19.3c22.2,31.1,66.5,35.7,66.5,35.7s-5.5-9-0.4-19.3c1.3,10,3.1,24.3,25.2,34.7l-2.5-10.4
		C358.9,348.6,373,357.9,375.1,378z"/>
</g>
</svg>
