<?xml version="1.0" encoding="utf-8"?>
<!-- Generator: Adobe Illustrator 18.0.0, SVG Export Plug-In . SVG Version: 6.00 Build 0)  -->
<!DOCTYPE svg PUBLIC "-//W3C//DTD SVG 1.1//EN" "http://www.w3.org/Graphics/SVG/1.1/DTD/svg11.dtd">
<svg version="1.1" id="content" xmlns="http://www.w3.org/2000/svg" xmlns:xlink="http://www.w3.org/1999/xlink" x="0px" y="0px"
	 width="500px" height="500px" viewBox="0 0 500 500" enable-background="new 0 0 500 500" xml:space="preserve">
<rect id="position" display="none" fill="none" stroke="#000000" width="500" height="500"/>
<g id="bounds_1_" display="none">
	
		<rect x="120.3" y="-25.5" display="inline" fill="none" stroke="#000000" stroke-width="1.0056" stroke-miterlimit="10" width="259.4" height="259.4"/>
</g>
<path id="hair" fill="#382800" d="M338.5,138.3c3.7-1.5,10.8-6.7,11.2-13.5c-20.3-42.4-63.5-62.2-105.2-62.2
	c-44.3,0-64.6,20-80.5,37.7c-4.8,6.3-17.2,18.6-21.3,45.1c6.5-2.2,11.6-10.2,12.7-15.9c2.8-9.8,11.3-4.9,12-12.1
	c0.7-7.2,2-11.2,6.1-11.4c4-0.2,13-3.8,18.3-12.7c2.2-4.1,10.6-12.7,23.9-10.9c3.4,12.5,19.5,19.9,19.5,19.9s-1.8-8.5,1.3-11
	c13.2,9.3,27.7,10.8,27.7,10.8c0,1.9-3.4-11.9-0.6-13.7c15.8,22.1,47.3,25.4,47.3,25.4s-3.9-6.4-0.3-13.7
	c0.9,7.1,2.2,17.3,17.9,24.7l-1.8-7.4C327,117.4,337,124,338.5,138.3z"/>
</svg>
