<?xml version="1.0" encoding="utf-8"?>
<!-- Generator: Adobe Illustrator 18.0.0, SVG Export Plug-In . SVG Version: 6.00 Build 0)  -->
<!DOCTYPE svg PUBLIC "-//W3C//DTD SVG 1.1//EN" "http://www.w3.org/Graphics/SVG/1.1/DTD/svg11.dtd">
<svg version="1.1" id="content" xmlns="http://www.w3.org/2000/svg" xmlns:xlink="http://www.w3.org/1999/xlink" x="0px" y="0px"
	 width="500px" height="500px" viewBox="0 0 500 500" enable-background="new 0 0 500 500" xml:space="preserve">
<rect id="position" display="none" fill="none" stroke="#000000" width="500" height="500"/>
<path id="hair_1_" fill="#382800" d="M143,146.6c0,0-10.4-39.2,14.1-46c0.9-12.9,9.4-14.7,22.4-15.6c9-18.5,25.1-18.5,34.5-18.9
	c6.5-19.1,23.3-19,28.4-16.5c5.2,2.5,12.8,3.4,16.2,1.4c8.2-5.9,23.3-3.8,31.7,10.2c11.6-2.4,26.5,4.9,26.9,21.5
	C332,86.5,331,98.3,331,98.3s13.2-1.8,18.6,11.2c1.2,3.1,1.9,7.9-0.4,13c5.4,0.9,4.1,11.2,2.1,15.2L143,146.6z"/>
<g id="bounds_1_" display="none">
	
		<rect x="120.3" y="-25.5" display="inline" fill="none" stroke="#000000" stroke-width="1.0056" stroke-miterlimit="10" width="259.4" height="259.4"/>
</g>
</svg>
