<?xml version="1.0" encoding="utf-8"?>
<!-- Generator: Adobe Illustrator 18.0.0, SVG Export Plug-In . SVG Version: 6.00 Build 0)  -->
<!DOCTYPE svg PUBLIC "-//W3C//DTD SVG 1.1//EN" "http://www.w3.org/Graphics/SVG/1.1/DTD/svg11.dtd">
<svg version="1.1" id="content" xmlns="http://www.w3.org/2000/svg" xmlns:xlink="http://www.w3.org/1999/xlink" x="0px" y="0px"
	 width="500px" height="500px" viewBox="0 0 500 500" enable-background="new 0 0 500 500" xml:space="preserve">
<rect id="position" display="none" fill="none" stroke="#000000" width="500" height="500"/>
<g id="bounds" display="none">
	
		<rect x="108.3" y="-55.1" display="inline" fill="none" stroke="#000000" stroke-width="1.0988" stroke-miterlimit="10" width="283.5" height="283.5"/>
</g>
<path id="hair" fill="#382800" d="M143.5,136.8c0.1-1.8,0.4-3.6,0.6-5.4c0.5-5.4,2.7-10,5.4-14.5c2.2-3.7,3.7-7.7,6-11.3
	c4.7-7.7,10.7-14.5,17.6-20.3c9.8-8.3,21.4-14.4,33.5-18.7c21.3-6.9,42.8-1.1,42.8-1.1s41-10.7,63.7,11.5
	c22.7,22.2,42.6,48.1,45.7,82.6c-3.5-14.1-14.4-28.3-14.4-28.3s3.8,12.8,2.5,23c-4.3-23.2-17.8-37-17.8-37s7.2,19,2.3,35.6
	c-2.5-27.7-21.3-52.5-21.3-52.5s4.3,16.7,1,26.3c-3-23-22.3-41.7-22.3-41.7s1.2,9.3-3.8,22.2c1.2-13.2-3.8-21-3.8-21
	c0.3,0.4-0.5,2.4-0.6,2.8c-0.6,2.4-1.3,4.9-2.1,7.2c-1.2,3.3-2.6,6.4-4.3,9.4c-1.3,2.3-2.6,4.2-4.3,6.2c1-4.7,1.7-9.8,1.5-14.7
	c-0.1-2.9-0.2-6.1-1-8.9c-0.7-2.5-2.3-4.4-4.1-6.2c0,0.6-0.2,1.1-0.3,1.6c-0.6,2.9-1.3,5.8-2.1,8.7c-3,10.3-6.4,19.2-12.8,28
	c-4.5,6.2-11,12-16.9,16.7c0.6-3.6,2.3-6.9,2.8-10.5c0.4-3,0.8-6.1,0.6-9.1c-2.5,2.5-4.9,5.3-7.6,7.7c-3.8,3.2-7.6,5.9-11.7,8.5
	c-5.9,3.7-12,6.2-18.4,8.7c2.8-2.3,7.7-7.3,7.6-11.2c-2.4,0.2-4.7,2.3-6.8,3.3c-4,1.9-8.1,3.6-12.3,5.1c-3.6,1.3-7.2,2-10.9,2.8
	c-1.9,0.4-4.3,0.6-6.1,1.2c5.3-3.6,10.3-7,14.4-11.8c-1.8-0.1-4.4,1.5-6.1,2.1c-3.1,1.2-6,2.3-9.4,2.9c-3.4,0.6-6.9,1-10.3,1
	c-1.8,0-3.9,0.4-5.6-0.3c2.9-2.8,6.6-4.9,9.5-7.7c-1.7,0.3-3.6,1.8-5.1,2.5c-2.2,1-4.4,2-6.6,2.9
	C149.5,136.2,146.2,137.1,143.5,136.8z"/>
</svg>
