<?xml version="1.0" encoding="utf-8"?>
<!-- Generator: Adobe Illustrator 18.0.0, SVG Export Plug-In . SVG Version: 6.00 Build 0)  -->
<!DOCTYPE svg PUBLIC "-//W3C//DTD SVG 1.1//EN" "http://www.w3.org/Graphics/SVG/1.1/DTD/svg11.dtd">
<svg version="1.1" id="content" xmlns="http://www.w3.org/2000/svg" xmlns:xlink="http://www.w3.org/1999/xlink" x="0px" y="0px"
	 width="500px" height="500px" viewBox="0 0 500 500" enable-background="new 0 0 500 500" xml:space="preserve">
<rect id="position" display="none" fill="none" stroke="#000000" width="500" height="500"/>
<g id="bounds" display="none">
	
		<rect x="108.3" y="-55.1" display="inline" fill="none" stroke="#000000" stroke-width="1.0988" stroke-miterlimit="10" width="283.5" height="283.5"/>
</g>
<path id="hair_1_" fill="#382800" d="M370,134.2c-16.5-9.8-20.3-50.9-27.2-56.8c5.1-0.2,12.6,14.3,12.6,14.3s-6.7-45.7-70.6-47.1
	c9.4-7.6,42.2-7.5,42.2-7.5s-32.7-9.5-53.1-0.4c12.5-8.7,24.7-8.9,24.7-8.9s-26.3-6.8-49.3,16.7c0,0-0.3-0.2-0.9-0.5
	c-3.6-4.8-7.4-9-12.3-12.7c-9.2-6.9-18.7-12.8-28.7-18.4c5.7,4.6,14,19.7,14.6,21.6c-15.3-7.1-33-11.7-61.2-5.1
	c9-0.3,34.5,5.6,38.6,10.5c-21-2-45.1,7.6-59.6,23c-2.6,2.8-3.4,4.3-7.3,8.9c5.5-4.2,11.4-9.4,18.3-10.8c-1.4,0.3-9.9,9.6-11.6,12
	c-3.7,5-6.3,10.7-8.8,16.3c-3.5,7.8-5.7,16.8-6.7,25.2c0.7-4.7,4.3-10.8,7.6-14.1c-2.4,9.1-4.2,17.9-4.3,27.5
	c0,5.1,0.2,9.9,1.3,14.8c0.8,3.7,2.4,7.5,2.7,11.2c-0.5-9.2-1.7-18.3,2.4-27.1c-1.3,2.9,1,9.7,1.9,12.5c1.4,4.4,3.4,8.8,6.6,12.3
	c2.8,3,7.3,6,11.6,5.3c5.2-0.9,8.1-5.7,14.1-5.5c6.7,0.2,13.2,1.6,19.8,2.3c9.1,1,18.2,0.4,27.4,0.4c20.8,0,41.7,0,62.5,0
	c6.6,0,13.2,0,19.9,0h58.2l-7.9-26.4C347.6,127.8,356.3,133.8,370,134.2z"/>
</svg>
