<?xml version="1.0" encoding="utf-8"?>
<!-- Generator: Adobe Illustrator 18.0.0, SVG Export Plug-In . SVG Version: 6.00 Build 0)  -->
<!DOCTYPE svg PUBLIC "-//W3C//DTD SVG 1.1//EN" "http://www.w3.org/Graphics/SVG/1.1/DTD/svg11.dtd">
<svg version="1.1" id="content" xmlns="http://www.w3.org/2000/svg" xmlns:xlink="http://www.w3.org/1999/xlink" x="0px" y="0px"
	 width="500px" height="500px" viewBox="0 0 500 500" enable-background="new 0 0 500 500" xml:space="preserve">
<rect id="position" display="none" fill="none" stroke="#000000" width="500" height="500"/>
<g id="bounds" display="none">
	<rect x="0.2" y="80.2" display="inline" fill="none" stroke="#EAEAEA" stroke-miterlimit="10" width="499.5" height="499.5"/>
</g>
<g>
	<path id="hair_3_" fill="#382800" d="M408.6,363.1c-21.4-12.7-26.3-65.9-35.2-73.6c6.6-0.3,16.3,18.5,16.3,18.5s-8.7-59.2-91.4-61
		c12.2-9.8,54.7-9.7,54.7-9.7s-42.4-12.3-68.8-0.5c16.2-11.3,32-11.5,32-11.5s-34.1-8.8-63.9,21.6c0,0-0.4-0.3-1.2-0.6
		c-4.7-6.2-9.6-11.7-15.9-16.5c-11.9-8.9-24.2-16.6-37.2-23.8c7.4,6,18.1,25.5,18.9,28c-19.8-9.2-42.7-15.2-79.3-6.6
		c11.7-0.4,44.7,7.3,50,13.6c-27.2-2.6-58.4,9.8-77.2,29.8c-3.4,3.6-4.4,5.6-9.5,11.5c7.1-5.4,14.8-12.2,23.7-14
		c-1.8,0.4-12.8,12.4-15,15.5c-4.8,6.5-8.2,13.9-11.4,21.1c-4.5,10.1-7.4,21.8-8.7,32.6c0.9-6.1,5.6-14,9.8-18.3
		c-3.1,11.8-5.4,23.2-5.6,35.6c0,6.6,0.3,12.8,1.7,19.2c1,4.8,3.1,9.7,3.5,14.5c-0.6-11.9-2.2-23.7,3.1-35.1
		c-1.7,3.8,1.3,12.6,2.5,16.2c1.8,5.7,4.4,11.4,8.5,15.9c3.6,3.9,9.5,7.8,15,6.9c6.7-1.2,10.5-7.4,18.3-7.1c8.7,0.3,17.1,2.1,25.6,3
		c11.8,1.3,23.6,0.5,35.5,0.5c26.9,0,54,0,81,0c8.5,0,17.1,0,25.8,0h75.4l-10.2-34.2C379.6,354.9,390.9,362.6,408.6,363.1z"/>
	<g>
		<path fill="#C9C8CE" d="M319.7,297.2l26.1-37.9c1.6-2.3,1.2-5.2-0.9-6.6c-2-1.4-4.9-0.7-6.5,1.6l-27.1,39.4
			c-17.9-7-37.7-11-58.7-11s-40.8,3.9-58.7,11l-27.1-39.4c-1.6-2.3-4.5-2.9-6.5-1.6c-2,1.4-2.4,4.4-0.9,6.6l26.1,37.9
			c-41.5,19.3-70.7,56-74.4,98.9H394C390.3,353.2,361.2,316.5,319.7,297.2"/>
		<g>
			<path fill="#FFFFFF" d="M193.6,357c-8.6,0-15.6-7-15.6-15.6c0-8.6,7-15.6,15.6-15.6c8.6,0,15.6,7,15.6,15.6
				C209.2,350,202.2,357,193.6,357"/>
			<path fill="#FFFFFF" d="M311.7,357c-8.6,0-15.6-7-15.6-15.6c0-8.6,7-15.6,15.6-15.6c8.6,0,15.6,7,15.6,15.6
				C327.3,350,320.3,357,311.7,357"/>
		</g>
	</g>
	<path id="hair" fill="#382800" d="M115.2,366.5c0.1-2.3,0.5-4.7,0.8-7c0.6-7,3.5-13,7-18.8c2.8-4.8,4.8-10,7.8-14.6
		c6.1-10,13.9-18.8,22.8-26.3c12.7-10.8,27.7-18.7,43.4-24.2c27.6-8.9,55.4-1.4,55.4-1.4s53.1-13.9,82.5,14.9
		c29.4,28.8,55.2,62.3,59.2,107c-4.5-18.3-18.7-36.7-18.7-36.7s4.9,16.6,3.2,29.8c-5.6-30.1-23.1-47.9-23.1-47.9s9.3,24.6,3,46.1
		c-3.2-35.9-27.6-68-27.6-68s5.6,21.6,1.3,34.1c-3.9-29.8-28.9-54-28.9-54s1.6,12-4.9,28.8c1.6-17.1-4.9-27.2-4.9-27.2
		c0.4,0.5-0.6,3.1-0.8,3.6c-0.8,3.1-1.7,6.3-2.7,9.3c-1.6,4.3-3.4,8.3-5.6,12.2c-1.7,3-3.4,5.4-5.6,8c1.3-6.1,2.2-12.7,1.9-19
		c-0.1-3.8-0.3-7.9-1.3-11.5c-0.9-3.2-3-5.7-5.3-8c0,0.8-0.3,1.4-0.4,2.1c-0.8,3.8-1.7,7.5-2.7,11.3c-3.9,13.3-8.3,24.9-16.6,36.3
		c-5.8,8-14.2,15.5-21.9,21.6c0.8-4.7,3-8.9,3.6-13.6c0.5-3.9,1-7.9,0.8-11.8c-3.2,3.2-6.3,6.9-9.8,10c-4.9,4.1-9.8,7.6-15.2,11
		c-7.6,4.8-15.5,8-23.8,11.3c3.6-3,10-9.5,9.8-14.5c-3.1,0.3-6.1,3-8.8,4.3c-5.2,2.5-10.5,4.7-15.9,6.6c-4.7,1.7-9.3,2.6-14.1,3.6
		c-2.5,0.5-5.6,0.8-7.9,1.6c6.9-4.7,13.3-9.1,18.7-15.3c-2.3-0.1-5.7,1.9-7.9,2.7c-4,1.6-7.8,3-12.2,3.8s-8.9,1.3-13.3,1.3
		c-2.3,0-5.1,0.5-7.3-0.4c3.8-3.6,8.5-6.3,12.3-10c-2.2,0.4-4.7,2.3-6.6,3.2c-2.8,1.3-5.7,2.6-8.5,3.8
		C123,365.7,118.7,366.9,115.2,366.5z"/>
</g>
</svg>
