<?xml version="1.0" encoding="utf-8"?>
<!-- Generator: Adobe Illustrator 18.0.0, SVG Export Plug-In . SVG Version: 6.00 Build 0)  -->
<!DOCTYPE svg PUBLIC "-//W3C//DTD SVG 1.1//EN" "http://www.w3.org/Graphics/SVG/1.1/DTD/svg11.dtd">
<svg version="1.1" id="content" xmlns="http://www.w3.org/2000/svg" xmlns:xlink="http://www.w3.org/1999/xlink" x="0px" y="0px"
	 width="500px" height="500px" viewBox="0 0 500 500" enable-background="new 0 0 500 500" xml:space="preserve">
<rect id="position" display="none" fill="none" stroke="#000000" width="500" height="500"/>
<g id="bounds" display="none">
	<rect x="0.2" y="80.2" display="inline" fill="none" stroke="#EAEAEA" stroke-miterlimit="10" width="499.5" height="499.5"/>
</g>
<g>
	<g>
		<path fill="#382800" d="M331.5,228.3c-42.5,15.6-35.3,51-34.3,55.1c0.3,1.1,0.8,2.9,1.8,5.2l8.8-6.7c4.2-3.3,10.4-2.5,13.6,1.9
			c3.3,4.2,2.5,10.4-1.9,13.6l-7.7,5.8c4.4,2.7,10.1,5.2,17.5,6.6c27.1,5.5,23.2-23.6,50.7-2.6c27.5,21-5.9,56.2-5.9,56.2
			s29.5-4.4,37.5-61.4C420.1,244.6,374,212.7,331.5,228.3z"/>
		<path fill="#382800" d="M382.2,411.7c-13.7-94.4-89.6-126.6-145-126.6S107.4,317.3,93.7,411.7C123.6,409,352.5,409,382.2,411.7z"
			/>
	</g>
	<path fill="#768176" d="M319.8,297.2c4.2-3.3,5.1-9.3,1.9-13.6c-3.3-4.2-9.3-5.1-13.6-1.9l-16,12.2c-0.3,0.3-0.7,0.5-1,0.8
		c6.7,2.5,13.4,5.5,20,9L319.8,297.2z"/>
	<g>
		<path fill="#C9C8CE" d="M308.3,330.8l27.6-40.1c1.6-2.4,1.2-5.5-0.9-7c-2.1-1.5-5.2-0.7-6.8,1.6L299.4,327
			c-18.9-7.5-39.9-11.6-62.1-11.6s-43.2,4.1-62.1,11.6l-28.7-41.7c-1.6-2.4-4.7-3.1-6.9-1.6c-2.1,1.5-2.5,4.6-0.9,7l27.6,40.1
			c-43.9,20.4-74.7,59.3-78.7,104.6h299.1C383,390,352.2,351.2,308.3,330.8"/>
		<g>
			<path fill="#FFFFFF" d="M174.9,394c-9.1,0-16.6-7.4-16.6-16.5c0-9.1,7.4-16.6,16.6-16.6c9.1,0,16.5,7.4,16.5,16.6
				C191.4,386.6,184,394,174.9,394"/>
			<path fill="#FFFFFF" d="M299.8,394c-9.1,0-16.5-7.4-16.5-16.5c0-9.1,7.4-16.6,16.5-16.6c9.1,0,16.5,7.4,16.5,16.6
				C316.4,386.6,309,394,299.8,394"/>
		</g>
	</g>
	<path id="hair" fill="#382800" d="M324.8,335.1c-39.5-35.9-87.4-32.5-87.4-32.5s-48-3.4-87.4,32.5c0,0-8.2,11-0.4,24.4
		c0.7-0.3,3.3-8.5,11-10.7c-4.2,6.2-1,10.7-1,10.7s5.2-8.1,11.8-11.1c-3.6,5.5,1.1,10.3,1.1,10.3s7.3-10,10.8-10.4
		c-2.2,5.1-0.7,10.3-0.7,10.3s7.3-8.9,10.7-10.1c-1.1,6.7,1.5,10.8,1.5,10.8s5.5-9.9,8.8-11.1c-0.8,4.8,1.6,11.1,1.6,11.1
		s4.7-9.7,8.8-11c-1.4,5.1,2.5,11,2.5,11s4.4-11,7.1-11.5c-0.5,7,4.2,11.5,4.2,11.5s0.5-10.7,3.8-11.1c1.5,5.3,5.8,11.1,5.8,11.1
		s3.7-5.1,5.8-11.1c3.3,0.4,3.8,11.1,3.8,11.1s4.8-4.5,4.2-11.5c2.7,0.5,7.1,11.5,7.1,11.5s3.8-5.9,2.5-11c4.1,1.2,8.8,11,8.8,11
		s2.6-6.3,1.6-11.1c3.3,1.2,8.8,11.1,8.8,11.1s2.6-4.1,1.5-10.8c3.4,1.2,10.7,10.1,10.7,10.1s1.5-5.2-0.7-10.3
		c3.6,0.4,10.8,10.4,10.8,10.4s4.7-4.8,1.1-10.3c6.6,3,11.8,11.1,11.8,11.1s3.3-4.5-1-10.7c7.7,2.2,10.1,10.5,11,10.7
		C333.1,346.1,324.8,335.1,324.8,335.1z"/>
</g>
</svg>
