<?xml version="1.0" encoding="utf-8"?>
<!-- Generator: Adobe Illustrator 18.0.0, SVG Export Plug-In . SVG Version: 6.00 Build 0)  -->
<!DOCTYPE svg PUBLIC "-//W3C//DTD SVG 1.1//EN" "http://www.w3.org/Graphics/SVG/1.1/DTD/svg11.dtd">
<svg version="1.1" id="content" xmlns="http://www.w3.org/2000/svg" xmlns:xlink="http://www.w3.org/1999/xlink" x="0px" y="0px"
	 width="500px" height="500px" viewBox="0 0 500 500" enable-background="new 0 0 500 500" xml:space="preserve">
<rect id="position" display="none" fill="none" stroke="#000000" width="500" height="500"/>
<g id="bounds" display="none">
	
		<rect x="115.3" y="-59.4" display="inline" fill="none" stroke="#000000" stroke-width="1.0988" stroke-miterlimit="10" width="283.5" height="283.5"/>
</g>
<path id="hair" fill="#382800" d="M313.4,86.5c-28.8-26.2-63.8-23.7-63.8-23.7s-35-2.5-63.8,23.7c0,0-6,8-0.3,17.8
	c0.5-0.2,2.4-6.2,8-7.8c-3.1,4.5-0.7,7.8-0.7,7.8s3.8-5.9,8.6-8.1c-2.6,4,0.8,7.5,0.8,7.5s5.3-7.3,7.9-7.6c-1.6,3.7-0.5,7.5-0.5,7.5
	s5.3-6.5,7.8-7.4c-0.8,4.9,1.1,7.9,1.1,7.9s4-7.2,6.4-8.1c-0.6,3.5,1.2,8.1,1.2,8.1s3.4-7.1,6.4-8c-1,3.7,1.8,8,1.8,8s3.2-8,5.2-8.4
	c-0.4,5.1,3.1,8.4,3.1,8.4s0.4-7.8,2.8-8.1c1.1,3.9,4.2,8.1,4.2,8.1s2.7-3.7,4.2-8.1c2.4,0.3,2.8,8.1,2.8,8.1s3.5-3.3,3.1-8.4
	c2,0.4,5.2,8.4,5.2,8.4s2.8-4.3,1.8-8c3,0.9,6.4,8,6.4,8s1.9-4.6,1.2-8.1c2.4,0.9,6.4,8.1,6.4,8.1s1.9-3,1.1-7.9
	c2.5,0.9,7.8,7.4,7.8,7.4s1.1-3.8-0.5-7.5c2.6,0.3,7.9,7.6,7.9,7.6s3.4-3.5,0.8-7.5c4.8,2.2,8.6,8.1,8.6,8.1s2.4-3.3-0.7-7.8
	c5.6,1.6,7.4,7.7,8,7.8C319.4,94.5,313.4,86.5,313.4,86.5z"/>
</svg>
