<?xml version="1.0" encoding="utf-8"?>
<!-- Generator: Adobe Illustrator 18.0.0, SVG Export Plug-In . SVG Version: 6.00 Build 0)  -->
<!DOCTYPE svg PUBLIC "-//W3C//DTD SVG 1.1//EN" "http://www.w3.org/Graphics/SVG/1.1/DTD/svg11.dtd">
<svg version="1.1" id="content" xmlns="http://www.w3.org/2000/svg" xmlns:xlink="http://www.w3.org/1999/xlink" x="0px" y="0px"
	 width="500px" height="500px" viewBox="0 0 500 500" enable-background="new 0 0 500 500" xml:space="preserve">
<rect id="position" display="none" fill="none" stroke="#000000" width="500" height="500"/>
<g id="bounds" display="none">
	<rect x="0.2" y="80.2" display="inline" fill="none" stroke="#EAEAEA" stroke-miterlimit="10" width="499.5" height="499.5"/>
</g>
<g>
	<path id="hair" fill="#382800" d="M102.4,305.7c0,0-2.5-76.6,84-115.8c50.7-18.3,113.1-12,127.8,22.3
		c-12.3,11.9-19.9,12.5-19.9,12.5l-178.3,71.6L102.4,305.7"/>
	<g>
		<path fill="#C9C8CE" d="M323.6,227.8l26-37.8c1.5-2.2,1.2-5.2-0.9-6.6c-2-1.4-4.9-0.7-6.4,1.5l-27,39.2
			c-17.8-7-37.6-10.9-58.4-10.9c-20.8,0-40.6,3.9-58.4,10.9l-27-39.2c-1.5-2.2-4.4-2.9-6.5-1.5c-2,1.4-2.4,4.3-0.9,6.6l26,37.8
			c-41.4,19.2-70.4,55.8-74.1,98.5h281.6C394,283.6,365,247,323.6,227.8"/>
		<g>
			<path fill="#FFFFFF" d="M198.1,287.3c-8.6,0-15.6-7-15.6-15.6c0-8.6,7-15.6,15.6-15.6c8.6,0,15.6,7,15.6,15.6
				C213.6,280.3,206.7,287.3,198.1,287.3"/>
			<path fill="#FFFFFF" d="M315.7,287.3c-8.6,0-15.6-7-15.6-15.6c0-8.6,7-15.6,15.6-15.6c8.6,0,15.6,7,15.6,15.6
				C331.3,280.3,324.3,287.3,315.7,287.3"/>
		</g>
	</g>
	<path fill="#382800" d="M316.5,211.6c-6.6-0.6-10.6,0.9-12.3,4.6c-11.1-4.4-27.6-7.7-48.1-7.7c-83.9,0-144.4,58.8-150.8,80.9
		c-4.4,15.1-4.6,31.7,3.2,40.6c-3.7,11.2,3.6,22.1,14.2,25c-0.4,1.4-0.6,3-0.6,4.5c0,8.1,6.2,14.8,14.1,15.6c-1,1.8-1.5,4-1.5,6.2
		c0,6.8,5.2,12.5,11.7,13.3c-2.3,2.1-3.9,5-3.9,8.4c0,4.6,2.8,8.5,6.8,10.2c-2.8,1.4-4.9,4.5-4.9,8c0,2.7,1.3,5.2,3.2,6.8
		c-1.4,1.7-16.3,19.6,5.8,39.9c4.8,4.1,2.2,12.3,2.2,12.3s4.4-2.6,5.9-8.4c2.8,4,3.5,8.4,3.5,8.4s13.7-19.6-1.8-34.3
		c-11.2-11.5-4.1-17.9-4.1-17.9l0,0c1.8-1.7,3.1-4,3.1-6.7c0-3.4-1.9-6.3-4.6-7.9c4.1-1.5,7.1-5.7,7.1-10.3c0-5.4-3.9-9.9-8.9-10.8
		c3.2-2.5,5.4-6.3,5.4-10.7c0-6.3-4.5-11.7-10.4-13c1.7-2.5,2.7-5.5,2.7-8.8c0-5.2-2.6-9.8-6.5-12.6c10.4-10.4,1.7-22.8-1.3-26.4
		c0-1.7-0.1-3.1-0.1-4.3c0-60.6,49.4-76.9,107.6-77.5c28.3-0.3,44.5-5.2,52.1-8.4c3.2,7.7,12,20.5,36.2,25.7
		c41.7,10.3,50.6,42.4,52.4,49.5C394.6,303.7,409.3,218.9,316.5,211.6z"/>
	<path fill="#F7ADE6" d="M162.9,431.7c0,0.8-0.5,1.3-1.3,1.3h-18.8c-0.8,0-1.3-0.5-1.3-1.3v-3c0-0.8,0.5-1.3,1.3-1.3h18.8
		c0.8,0,1.3,0.5,1.3,1.3V431.7z"/>
</g>
</svg>
