<?xml version="1.0" encoding="utf-8"?>
<!-- Generator: Adobe Illustrator 18.0.0, SVG Export Plug-In . SVG Version: 6.00 Build 0)  -->
<!DOCTYPE svg PUBLIC "-//W3C//DTD SVG 1.1//EN" "http://www.w3.org/Graphics/SVG/1.1/DTD/svg11.dtd">
<svg version="1.1" id="content" xmlns="http://www.w3.org/2000/svg" xmlns:xlink="http://www.w3.org/1999/xlink" x="0px" y="0px"
	 width="500px" height="500px" viewBox="0 0 500 500" enable-background="new 0 0 500 500" xml:space="preserve">
<rect id="position" display="none" fill="none" stroke="#000000" width="500" height="500"/>
<g id="bounds_2_" display="none">
	
		<rect x="98.1" y="11" display="inline" fill="none" stroke="#000000" stroke-width="1.1773" stroke-miterlimit="10" width="303.7" height="303.7"/>
</g>
<path fill="#382800" d="M295.8,70.8c-5.1-0.5-8.2,0.7-9.5,3.6c-8.6-3.4-21.4-6-37.3-6c-65,0-111.9,45.6-116.9,62.7
	c-3.4,11.7-3.6,24.6,2.5,31.5c-2.9,8.7,2.8,17.1,11,19.4c-0.3,1.1-0.5,2.3-0.5,3.5c0,6.3,4.8,11.5,10.9,12.1
	c-0.8,1.4-1.2,3.1-1.2,4.8c0,5.3,4,9.7,9.1,10.3c-1.8,1.6-3,3.9-3,6.5c0,3.6,2.2,6.6,5.3,7.9c-2.2,1.1-3.8,3.5-3.8,6.2
	c0,2.1,1,4,2.5,5.3c-1.1,1.3-12.6,15.2,4.5,30.9c3.7,3.2,1.7,9.5,1.7,9.5s3.4-2,4.6-6.5c2.2,3.1,2.7,6.5,2.7,6.5s10.6-15.2-1.4-26.6
	c-8.7-8.9-3.2-13.9-3.2-13.9h0c1.4-1.3,2.4-3.1,2.4-5.2c0-2.6-1.5-4.9-3.6-6.1c3.2-1.2,5.5-4.4,5.5-8c0-4.2-3-7.7-6.9-8.4
	c2.5-1.9,4.2-4.9,4.2-8.3c0-4.9-3.5-9.1-8.1-10.1c1.3-1.9,2.1-4.3,2.1-6.8c0-4-2-7.6-5-9.8c8.1-8.1,1.3-17.7-1-20.5
	c0-1.3-0.1-2.4-0.1-3.3c0-47,38.3-59.6,83.4-60.1c21.9-0.2,34.5-4,40.4-6.5c2.5,6,9.3,15.9,28.1,19.9c32.3,8,39.2,32.9,40.6,38.4
	C356.3,142.2,367.7,76.4,295.8,70.8z"/>
</svg>
