<?xml version="1.0" encoding="utf-8"?>
<!-- Generator: Adobe Illustrator 16.0.0, SVG Export Plug-In . SVG Version: 6.00 Build 0)  -->
<!DOCTYPE svg PUBLIC "-//W3C//DTD SVG 1.1//EN" "http://www.w3.org/Graphics/SVG/1.1/DTD/svg11.dtd">
<svg version="1.1" id="content" xmlns="http://www.w3.org/2000/svg" xmlns:xlink="http://www.w3.org/1999/xlink" x="0px" y="0px"
	 width="500px" height="500px" viewBox="0 0 500 500" enable-background="new 0 0 500 500" xml:space="preserve">
<path fill="#382800" d="M173.79,95.642l-0.152-0.032c-9.511-1.095-15.436,12.549-13.747,20.228c1.658-2.111,3.044-4.193,4.971-6.124
	c-0.026,1.695-0.069,3.425,0.042,5.101c2.289-2.994,5.976-5.715,9.214-7.626c0.946,1.296,0.568,3.057,0.674,4.599
	c4.643-3.109,10.577-7.144,10.644-13.35H173.79V95.642z"/>
<path fill="#382800" d="M325.334,95.589v2.849h-12.109c0.067,6.206,6.001,10.241,10.645,13.35c0.104-1.542-0.271-3.303,0.675-4.599
	c3.236,1.911,6.924,4.632,9.213,7.626c0.11-1.676,0.067-3.406,0.042-5.101c1.928,1.931,3.313,4.013,4.974,6.124
	C340.441,108.243,334.664,94.822,325.334,95.589z"/>
<path fill="#382800" d="M249.098,71.34c-8.358,0-11.95,5.319-14.338,12.406c-2.234-2.514-2.926-5.841-2.771-9.086
	c-4.313,3.47-6.389,6.549-7.923,11.88c-3.381-3.62-3.593-7.475-5.321-11.694c-5.1,1.151-8.872,4.913-12.4,8.507
	c-0.224-3.292,0.218-6.687,1.948-9.484c-5.856,0.419-10.775,3.96-13.563,9.189c-1.752-1.947-1.953-6.504-1.191-8.906
	c-4.938,1.679-8.692,4.116-11.591,8.733c-1.531-1.443-1.765-4.693-1.366-6.651c-5.174,0.059-8.067,5.174-11.499,8.248
	c-0.1-0.25,0.229-0.134,0.165-0.051c-5.229-5.263,0.187-15.536,3.678-20.27c4.233-5.741,12.272-10.105,18.797-12.545
	c14.479-5.412,29.286-4.517,43.727,0.926c8.321,3.137,14.061,10.045,14.113,18.566"/>
<path fill="#382800" d="M250.024,71.34c8.359,0,11.951,5.319,14.337,12.406c2.234-2.514,2.929-5.841,2.771-9.086
	c4.313,3.47,6.39,6.549,7.925,11.88c3.381-3.62,3.594-7.475,5.321-11.694c5.101,1.151,8.871,4.913,12.396,8.507
	c0.229-3.292-0.217-6.687-1.943-9.484c5.854,0.419,10.771,3.96,13.562,9.189c1.752-1.947,1.951-6.504,1.189-8.906
	c4.938,1.679,8.691,4.116,11.591,8.733c1.531-1.443,1.769-4.693,1.366-6.651c5.174,0.059,8.066,5.174,11.499,8.248
	c0.1-0.25-0.229-0.134-0.165-0.051c5.229-5.263-0.188-15.536-3.678-20.27c-4.234-5.741-12.272-10.105-18.802-12.545
	c-14.479-5.412-29.284-4.517-43.727,0.926c-8.319,3.137-14.061,10.045-14.113,18.566"/>
<g id="bounds_1_" display="none">
	
		<rect x="120.281" y="-17.281" display="inline" fill="none" stroke="#000000" stroke-width="1.0056" stroke-miterlimit="10" width="259.438" height="259.438"/>
</g>
<rect id="position" display="none" fill="none" stroke="#000000" width="500" height="500"/>
</svg>
