<?xml version="1.0" encoding="utf-8"?>
<!-- Generator: Adobe Illustrator 18.0.0, SVG Export Plug-In . SVG Version: 6.00 Build 0)  -->
<!DOCTYPE svg PUBLIC "-//W3C//DTD SVG 1.1//EN" "http://www.w3.org/Graphics/SVG/1.1/DTD/svg11.dtd">
<svg version="1.1" id="content" xmlns="http://www.w3.org/2000/svg" xmlns:xlink="http://www.w3.org/1999/xlink" x="0px" y="0px"
	 width="500px" height="500px" viewBox="0 0 500 500" enable-background="new 0 0 500 500" xml:space="preserve">
<rect id="position" display="none" fill="none" stroke="#000000" width="500" height="500"/>
<g id="bounds" display="none">
	<rect x="0.2" y="80.2" display="inline" fill="none" stroke="#EAEAEA" stroke-miterlimit="10" width="499.5" height="499.5"/>
</g>
<g>
	<path id="hair_1_" fill="#382800" d="M367.4,316.3c0.3-1,0.4-2.1,0.4-3.2c-0.1-5.9-4.8-10.4-10.4-10.2c-1.5,0-2.9,0.4-4.2,1.1
		c2.5-9.1-4.2-17.7-12.6-17c-1.1,0.1-2.5,0.6-3.9,1.1c0-0.3,0-0.6,0-0.8c0-7.4-6-13.5-13.5-13.5c-4.6,0-8.7,2.4-11.2,5.9
		c-1.5-1.5-3.6-2.4-5.9-2.4c-2.1,0-3.9,1-5.3,2.4c0-0.3,0-0.6,0-0.8c-0.1-6-5.1-10.9-10.9-10.8c-2.4,0-4.6,1-6.3,2.5
		c-1.8-4.9-6.6-8.4-12.2-8.4c-3.6,0-6.9,1.4-9.3,3.8c-2.5-4.1-7-6.7-12.2-6.7c-5.1,0-9.5,2.7-12.1,6.7c-2.4-2.4-5.6-3.8-9.3-3.8
		c-5.6,0-10.4,3.5-12.2,8.4c-1.7-1.4-3.9-2.4-6.3-2.5c-5.9-0.1-10.7,4.6-10.9,10.8c0,0.3,0,0.6,0,0.8c-1.4-1.4-3.2-2.2-5.3-2.4
		c-2.2,0-4.3,0.8-5.8,2.2c-2.4-3.6-6.5-5.9-11.2-5.9c-7.4,0-13.5,6-13.5,13.5c0,0.3,0,0.6,0,0.8c-1.5-0.6-2.9-1-3.9-1.1
		c-8.4-0.7-15.2,7.9-12.6,17c-1.3-0.7-2.7-1-4.2-1.1c-5.6-0.1-10.2,4.5-10.4,10.2c0,1.1,0.1,2.2,0.4,3.2c-2.9,1.5-4.9,4.6-4.9,8.1
		c0,5.1,4.2,9.3,9.3,9.3c4.5,0,8.1-3.1,9-7.3c29.6,5.3,104-30.3,104-30.3s74.5,35.6,104,30.3c1,4.2,4.6,7.3,9,7.3
		c5.1,0,9.3-4.2,9.3-9.3C372.3,321.1,370.3,318,367.4,316.3z"/>
	<g>
		<path fill="#C9C8CE" d="M322.6,300.9l28.3-41.1c1.7-2.4,1.3-5.6-0.9-7.2c-2.2-1.5-5.3-0.8-7,1.7L313.6,297
			c-19.4-7.6-40.9-11.9-63.6-11.9c-22.7,0-44.2,4.2-63.6,11.9L157,254.3c-1.7-2.4-4.8-3.2-7-1.7c-2.2,1.5-2.6,4.7-0.9,7.2l28.3,41.1
			c-45,20.9-76.5,60.7-80.6,107.1h306.3C399.2,361.6,367.6,321.8,322.6,300.9"/>
		<g>
			<path fill="#FFFFFF" d="M186,365.6c-9.4,0-17-7.6-17-16.9c0-9.4,7.6-17,17-17c9.4,0,16.9,7.6,16.9,17
				C203,358,195.4,365.6,186,365.6"/>
			<path fill="#FFFFFF" d="M314,365.6c-9.4,0-16.9-7.6-16.9-16.9c0-9.4,7.6-17,16.9-17c9.4,0,16.9,7.6,16.9,17
				C330.9,358,323.4,365.6,314,365.6"/>
		</g>
	</g>
	<path id="hair" fill="#382800" d="M339.2,293.4c-3.5,0-6.6,1.4-8.8,3.8c-0.1-9.4-7.7-16.8-17.1-16.8c-5.6,0-10.7,2.8-13.8,6.9
		c-1.8-8-9-14-17.7-14c-6.5,0-12.1,3.4-15.3,8.3c-3.8-5.1-9.8-8.3-16.6-8.3s-12.8,3.2-16.6,8.3c-3.2-5.1-8.8-8.4-15.3-8.4
		c-8.6,0-15.9,6-17.7,14c-3.1-4.2-8.1-6.9-13.8-6.9c-9.4,0-17,7.6-17.1,16.8c-2.2-2.4-5.3-3.8-8.8-3.8c-6.7,0-12.2,5.5-12.2,12.2
		c0,6.7,5.5,12.2,12.2,12.2c6.2,0,11.2-4.5,12.1-10.4c3.1,4.3,8.1,7.2,13.9,7.2c8,0,14.7-5.5,16.6-12.9c3.2,4.6,8.7,7.7,14.7,7.7
		c5.2,0,9.8-2.2,13.2-5.8c3.5,6.9,10.5,11.5,18.7,11.5c8.1,0,15.2-4.6,18.7-11.5c3.4,3.5,8,5.8,13.2,5.8c6.2,0,11.5-3.1,14.7-7.7
		c2,7.4,8.6,12.9,16.6,12.9c5.8,0,10.8-2.8,13.9-7.2c0.8,5.9,5.9,10.4,12.1,10.4c6.7,0,12.2-5.5,12.2-12.2
		C351.5,298.9,346,293.4,339.2,293.4z"/>
</g>
</svg>
