<?xml version="1.0" encoding="utf-8"?>
<!-- Generator: Adobe Illustrator 18.0.0, SVG Export Plug-In . SVG Version: 6.00 Build 0)  -->
<!DOCTYPE svg PUBLIC "-//W3C//DTD SVG 1.1//EN" "http://www.w3.org/Graphics/SVG/1.1/DTD/svg11.dtd">
<svg version="1.1" id="content" xmlns="http://www.w3.org/2000/svg" xmlns:xlink="http://www.w3.org/1999/xlink" x="0px" y="0px"
	 width="500px" height="500px" viewBox="0 0 500 500" enable-background="new 0 0 500 500" xml:space="preserve">
<rect id="position" display="none" fill="none" stroke="#000000" width="500" height="500"/>
<g id="bounds" display="none">
	
		<rect x="118.3" y="-25.5" display="inline" fill="none" stroke="#000000" stroke-width="1.0056" stroke-miterlimit="10" width="259.4" height="259.4"/>
</g>
<path id="hair" fill="#382800" d="M313.1,78c-2.5,0-4.7,1-6.3,2.7c-0.1-6.7-5.5-12-12.2-12c-4,0-7.6,2-9.8,4.9
	c-1.3-5.7-6.4-10-12.6-10c-4.6,0-8.6,2.4-10.9,5.9c-2.7-3.6-7-5.9-11.8-5.9c-4.8,0-9.1,2.3-11.8,5.9c-2.3-3.6-6.3-6-10.9-6
	c-6.1,0-11.3,4.3-12.6,10c-2.2-3-5.8-4.9-9.8-4.9c-6.7,0-12.1,5.4-12.2,12c-1.6-1.7-3.8-2.7-6.3-2.7c-4.8,0-8.7,3.9-8.7,8.7
	c0,4.8,3.9,8.7,8.7,8.7c4.4,0,8-3.2,8.6-7.4c2.2,3.1,5.8,5.1,9.9,5.1c5.7,0,10.5-3.9,11.8-9.2c2.3,3.3,6.2,5.5,10.5,5.5
	c3.7,0,7-1.6,9.4-4.1c2.5,4.9,7.5,8.2,13.3,8.2c5.8,0,10.8-3.3,13.3-8.2c2.4,2.5,5.7,4.1,9.4,4.1c4.4,0,8.2-2.2,10.5-5.5
	c1.4,5.3,6.1,9.2,11.8,9.2c4.1,0,7.7-2,9.9-5.1c0.6,4.2,4.2,7.4,8.6,7.4c4.8,0,8.7-3.9,8.7-8.7C321.9,81.9,318,78,313.1,78z"/>
</svg>
