<?xml version="1.0" encoding="utf-8"?>
<!-- Generator: Adobe Illustrator 18.0.0, SVG Export Plug-In . SVG Version: 6.00 Build 0)  -->
<!DOCTYPE svg PUBLIC "-//W3C//DTD SVG 1.1//EN" "http://www.w3.org/Graphics/SVG/1.1/DTD/svg11.dtd">
<svg version="1.1" id="content" xmlns="http://www.w3.org/2000/svg" xmlns:xlink="http://www.w3.org/1999/xlink" x="0px" y="0px"
	 width="500px" height="500px" viewBox="0 0 500 500" enable-background="new 0 0 500 500" xml:space="preserve">
<rect id="position" display="none" fill="none" stroke="#000000" width="500" height="500"/>
<g id="bounds" display="none">
	
		<rect x="108.3" y="-45.2" display="inline" fill="none" stroke="#000000" stroke-width="1.0988" stroke-miterlimit="10" width="283.5" height="283.5"/>
</g>
<path id="hair" fill="#382800" d="M249.1,58.5c-51.4,0-78.9,38.6-86.9,51.2c4.8-0.5,9.6-8.2,9.6-8.2s15.6-0.6,16.2-10.7
	c0,0,14.9,3.4,18.5-7.7c7.2,1.9,25.3,4.4,42.6,4.3c17.3,0.1,35.4-2.3,42.6-4.3c3.6,11.1,18.5,7.7,18.5,7.7
	c0.6,10.1,16.2,10.7,16.2,10.7s6.7,8.8,11.5,9.3C328.1,91.5,300.5,58.5,249.1,58.5z"/>
</svg>
