<?xml version="1.0" encoding="utf-8"?>
<!-- Generator: Adobe Illustrator 18.0.0, SVG Export Plug-In . SVG Version: 6.00 Build 0)  -->
<!DOCTYPE svg PUBLIC "-//W3C//DTD SVG 1.1//EN" "http://www.w3.org/Graphics/SVG/1.1/DTD/svg11.dtd">
<svg version="1.1" id="content" xmlns="http://www.w3.org/2000/svg" xmlns:xlink="http://www.w3.org/1999/xlink" x="0px" y="0px"
	 width="500px" height="500px" viewBox="0 0 500 500" enable-background="new 0 0 500 500" xml:space="preserve">
<rect id="position" display="none" fill="none" stroke="#000000" width="500" height="500"/>
<g id="bounds" display="none">
	<rect x="0.2" y="80.2" display="inline" fill="none" stroke="#EAEAEA" stroke-miterlimit="10" width="499.5" height="499.5"/>
</g>
<g>
	<path id="hair_3_" fill="#382800" d="M374.2,339.4c0,0-1.1-25.9-15.3-25.9c9.6-14.1-9.7-22.1-9.7-22.1c9.1-3.5,12.1-13.6,3.5-21.8
		c-7.2-6.7-18.1-5.6-26.7,1c3.5-5.3-3.9-10.4-8.3-6.5c2.1-6.7,0.7-17.1-6.9-20.2c-7.6-3.1-17.6-1.8-22.5,6.2
		c2.5-11.5-5.6-19.5-17.1-20.5c-11.5-1-25.3,11-26.4,20.9c-4.6-12.1-17.3-17-25.9-13.5c-8.6,3.5-12.9,12.8-14.5,23.1
		c-2.5-11.4-18.6-17.6-28-11s-10.7,19.3-9.7,29.2c-12.8-1.1-19.4,3.5-21.1,10.4c-1.7,7,3.1,13.8,7.4,17
		c-12.9,1.8-15.7,7.3-17.3,18.1c-8.3,1.4-9.8,13.2-8,16.4C153.2,340.6,374.2,339.4,374.2,339.4z"/>
	<g>
		<path fill="#C9C8CE" d="M322.7,300.7l28.3-41.1c1.7-2.4,1.3-5.7-0.9-7.2c-2.2-1.5-5.3-0.8-7,1.7l-29.4,42.7
			c-19.4-7.6-41-11.9-63.7-11.9s-44.3,4.3-63.7,11.9l-29.4-42.7c-1.7-2.4-4.8-3.2-7-1.7c-2.2,1.5-2.6,4.7-0.9,7.2l28.3,41.1
			c-45.1,21-76.7,60.8-80.7,107.3h306.9C399.4,361.5,367.8,321.7,322.7,300.7"/>
		<g>
			<path fill="#FFFFFF" d="M185.9,365.6c-9.4,0-17-7.6-17-17c0-9.4,7.6-17,17-17c9.4,0,17,7.6,17,17
				C202.9,358,195.3,365.6,185.9,365.6"/>
			<path fill="#FFFFFF" d="M314.1,365.6c-9.4,0-17-7.6-17-17c0-9.4,7.6-17,17-17c9.4,0,17,7.6,17,17
				C331.1,358,323.5,365.6,314.1,365.6"/>
		</g>
	</g>
	<path id="hair_2_" fill="#382800" d="M249.4,265.8c-72.2,0-110.9,54.3-122.1,72c6.7-0.7,13.5-11.5,13.5-11.5s21.9-0.8,22.8-15
		c0,0,20.9,4.8,26-10.8c10.1,2.7,35.6,6.2,59.9,6c24.3,0.1,49.8-3.2,59.9-6c5.1,15.6,26,10.8,26,10.8c0.8,14.2,22.8,15,22.8,15
		s9.4,12.4,16.2,13.1C360.4,312.2,321.6,265.8,249.4,265.8z"/>
</g>
</svg>
