<?xml version="1.0" encoding="utf-8"?>
<!-- Generator: Adobe Illustrator 14.0.0, SVG Export Plug-In . SVG Version: 6.00 Build 43363)  -->
<!DOCTYPE svg PUBLIC "-//W3C//DTD SVG 1.1//EN" "http://www.w3.org/Graphics/SVG/1.1/DTD/svg11.dtd">
<svg version="1.1" id="content" xmlns="http://www.w3.org/2000/svg" xmlns:xlink="http://www.w3.org/1999/xlink" x="0px" y="0px"
	 width="500px" height="500px" viewBox="0 0 500 500" enable-background="new 0 0 500 500" xml:space="preserve">
<path id="hair" fill="#382800" d="M248.376,82.157c-0.597-0.499-1.03-1.128-1.193-1.883c0.211,2.142-2.965,3.175-4.592,3.164
	c-1.073-0.007-2.14-0.31-3.084-0.812c-0.387-0.206-2.706-1.675-2.505-2.22c-1.56,4.231-6.087,3.695-9.09,1.509
	c0.701,5.285-6.68,5.972-9.116,2.332c-0.675,4.818-4.927,2.727-7.84,2.185c0.271,3.758-3.737,3.873-6.304,2.817
	c-0.09,1.468-1.212,2.494-2.501,3.024c-1.526,0.629-2.832,0.218-4.345,0.331c0.585,1.375-0.487,2.7-1.697,3.293
	c-1.543,0.756-3.189,1.233-4.838,0.447c-1.014-0.484-1.473-1.468-2.349-2.079c0.053,2.559-2.153,4.056-4.228,5.211
	c-2.871,1.599-4.73,0.162-7.331-0.935c-0.646,1.648-2.263,2.88-3.896,3.502c-1.617,0.615-3.32,0.163-4.791-0.631
	c-0.077-0.88,1.065-2.046,1.558-2.722c1.145-1.569,2.559-2.897,3.887-4.302c1.852-1.958,3.903-3.711,6.022-5.373
	c1.818-1.425,3.274-3.045,5.229-4.213c-0.2-1.021-0.459-1.905,0.145-2.866c0.482-0.77,1.401-1.522,2.309-1.537
	c-1.667-2.306,0.39-5.097,2.991-5.248c0.782-2.252,4.127-3.691,6.018-2.103c1.084-1.474,2.017-2.354,3.829-2.631
	c1.815-0.272,3.107,0.438,3.921,2.045c1.524-2.14,4.485-2.111,5.771,0.275c1.438-1.216,3.504-1.78,5.313-2.305
	c2.027-0.59,4.106-1.294,6.161-1.771c2.586-0.6,5.207-1.005,7.813-1.504c6.314-1.207,12.782-1.828,19.21-1.829
	c3.493,0,7.07,0.021,10.543,0.396c3.287,0.354,6.582,0.396,9.834,1.016c5.071,0.969,10.146,2.2,15.104,3.588
	c1.852,0.521,4.02,2.015,6.003,1.666c1.414-0.246,0.806-1.527,1.563-2.353c0.619-0.674,1.936-0.736,2.688-0.292
	c0.765,0.449,0.979,1.177,1.252,1.949c-0.211-1.438,1.529-2.593,2.827-2.389c1.574,0.247,1.819,1.695,1.938,2.993
	c0.729-1.486,3.221-1.146,4.396-0.39c1.655,1.063,1.536,2.896,0.907,4.448c1.156-1.157,3.365-0.752,4.199,0.595
	c0.869,1.401,0.06,2.728-0.743,3.858c1.532-0.313,3.519-0.021,4.471,1.408c0.948,1.421,0.405,2.481,0.052,3.912
	c-0.297,1.201,0.655,1.041,1.669,1.375c2.813,0.928,5.015,3.585,6.904,5.74c0.685,0.777,1.229,1.647,1.603,2.613
	c0.306,0.789,0.7,1.693,0.07,2.255c-1.028,0.917-3.063,0.672-4.239,0.396c-1.025-0.24-2.771-1.417-3.747-1.167
	c-0.411,0.105-0.844,0.732-1.229,0.949c-0.432,0.243-0.811,0.331-1.296,0.373c-2.394,0.205-5.866-1.289-6.094-4.007
	c-1.122,0.999-3.649,0.56-4.7-0.397c-1.188-1.083-1.387-3.037-0.424-4.335c-1.507,1.354-3.997,1.945-5.938,1.287
	c-1.769-0.6-3.329-3.181-2.08-4.993c-2.66,3.858-9.855,2.503-10.658-2.184c-1.879,4.171-9.27,1.039-9.562-2.608
	c-0.497,4.357-6.887,2.294-8.045-0.64c0.226,0.569-1.363,1.83-1.736,2.076c-0.844,0.556-1.854,0.878-2.858,0.943
	c-0.926,0.062-1.899-0.088-2.713-0.555c-0.959-0.551-1.119-1.52-1.803-2.16c-0.521,0.645-0.818,1.453-1.533,2.002
	C253.789,83.995,250.267,83.739,248.376,82.157z"/>
<rect id="position" x="0" y="0" display="none" fill="none" stroke="#000000" width="500" height="500"/>
</svg>
