<?xml version="1.0" encoding="utf-8"?>
<!-- Generator: Adobe Illustrator 13.0.0, SVG Export Plug-In . SVG Version: 6.00 Build 14948)  -->
<!DOCTYPE svg PUBLIC "-//W3C//DTD SVG 1.1//EN" "http://www.w3.org/Graphics/SVG/1.1/DTD/svg11.dtd">
<svg version="1.1" id="content" xmlns="http://www.w3.org/2000/svg" xmlns:xlink="http://www.w3.org/1999/xlink" x="0px" y="0px"
	 width="500px" height="500px" viewBox="0 0 500 500" enable-background="new 0 0 500 500" xml:space="preserve">
<path id="hair" fill="#382800" d="M324.953,80.019c1.784-1.334,3.096-3.739,2.635-6.014c-0.438-2.172-3.134-3.719-5.251-3.142
	c2.538-2.862,2.409-6.22,0.357-9.311c-0.96-1.447-2.02-2.006-3.744-2.252c-0.424-0.062-4.853-0.223-4.857-0.139
	c0.247-2.566-1.62-5.234-3.788-6.407c-2.938-1.588-5.332,0.099-8.228,0.146c3.175-5.041-2.048-11.096-7.248-10.001
	c0.931-2.706-0.453-6.347-3.024-7.697c-2.855-1.501-6.218,0.21-8.949,0.961c-2.338-7.076-11.256-6.188-15.299-1.063
	c-1.494-3.254-5.062-5.548-8.604-4.027c-2.348,1.006-2.488,2.812-4.862,0.917c-1.739-1.392-3.153-1.652-5.396-1.546
	c-1.851,0.088-3.245,0.966-4.811,1.791c-2.125,1.121-2.79-0.755-4.826-1.387c-1.589-0.493-3.284-0.268-4.729,0.542
	c-0.521,0.291-3.826,3.011-3.274,3.71c-4.043-5.125-12.961-6.014-15.299,1.063c-2.732-0.751-6.091-2.462-8.949-0.961
	c-2.572,1.353-3.956,4.991-3.024,7.697c-5.201-1.095-10.424,4.96-7.25,10.001c-2.894-0.047-5.286-1.731-8.227-0.146
	c-2.167,1.173-4.035,3.84-3.788,6.407c-3.513,0.178-6.838-0.616-9.146,2.606c-0.987,1.377-1.229,3.16-0.799,4.783
	c0.229,0.862,0.755,1.467,1.108,2.249c0.504,1.114-0.497,0.744-1.264,1.182c-1.178,0.671-2.494,1.38-3.16,2.621
	c-0.659,1.227-0.478,2.765,0.224,3.931s2.038,1.736,3.13,2.395c-0.836-0.293-2.09,0.362-2.834,0.743
	c-1.55,0.795-3.082,1.667-3.701,3.397c-0.912,2.543,0.519,5.337,2.92,6.457c-0.734-0.472-2.201,0.17-2.909,0.452
	c-1.978,0.789-3.698,1.484-4.653,3.523c-1.272,2.719-1.023,5.693,1.408,7.612c-0.512-0.485-1.259,0.873-1.533,1.242
	c-0.852,1.147-1.228,2.421-1.306,3.846c-0.074,1.341,0.135,2.578,0.722,3.79c0.125-0.976,2.276-1.989,2.998-2.401
	c2.149-1.231,4.302-2.526,6.614-3.433c1.676-0.656,3.451-0.612,5.166-1.121c5.044-1.496,10.115-2.74,15.313-3.579
	c2.38-0.384,4.77-0.711,7.162-0.999c10.442-1.256,20.914-0.734,31.402-0.734c7.198,0,14.393,0.008,21.589-0.126
	c6.563-0.122,13.123-0.312,19.688-0.277c6.601,0.034,13.204,0.266,19.784,0.78c6.514,0.509,13.022,1.31,19.374,2.883
	c3.48,0.863,7.454,1.623,10.206,4.021c2.832,2.47,6.884,2.965,10.44,3.641c0.896,0.17,1.674,0.383,2.521,0.718
	c0.493,0.195,1.015,0.504,1.553,0.273c1.263-0.542,1.417-3.125,1.021-4.209c-0.368-1.018-1.429-2.302-2.628-2.114
	c0.91-0.949,1.962-1.892,2.521-3.082c0.81-1.719,0.758-3.757,0.017-5.5c-0.463-1.089-1.218-2.06-2.193-2.733
	c-0.686-0.472-2.48-0.683-2.773-1.333c-0.173-0.382,0.198-1.375,0.233-1.799c0.05-0.61,0.054-1.225-0.011-1.833
	c-0.134-1.311-0.56-2.583-1.323-3.662c-1.429-2.011-4.233-3.835-6.751-3.135C324.75,80.167,324.854,80.094,324.953,80.019z"/>
<g id="bounds_1_" display="none">
	
		<rect x="120.281" y="-17.281" display="inline" fill="none" stroke="#000000" stroke-width="1.0056" stroke-miterlimit="10" width="259.438" height="259.438"/>
</g>
<rect id="position" display="none" fill="none" stroke="#000000" width="500" height="500"/>
</svg>
