<?xml version="1.0" encoding="utf-8"?>
<!-- Generator: Adobe Illustrator 18.0.0, SVG Export Plug-In . SVG Version: 6.00 Build 0)  -->
<!DOCTYPE svg PUBLIC "-//W3C//DTD SVG 1.1//EN" "http://www.w3.org/Graphics/SVG/1.1/DTD/svg11.dtd">
<svg version="1.1" id="content" xmlns="http://www.w3.org/2000/svg" xmlns:xlink="http://www.w3.org/1999/xlink" x="0px" y="0px"
	 width="500px" height="500px" viewBox="0 0 500 500" enable-background="new 0 0 500 500" xml:space="preserve">
<rect id="position" display="none" fill="none" stroke="#000000" width="500" height="500"/>
<g id="bounds_1_" display="none">
	
		<rect x="120.3" y="-39.2" display="inline" fill="none" stroke="#000000" stroke-width="1.0056" stroke-miterlimit="10" width="259.4" height="259.4"/>
</g>
<path id="hair" fill="#382800" d="M302.3,98.2c1.5-1,3-2.4,2.4-2.8c2.5,1.6,3.4,5,6.3,6.3c2.7,1.2,7.1-0.2,7.6-2.8
	c0.5,3.5,6.3,12,10.4,6.8c8,12.7,13.8-10.8,2.6-7.8c0.8-2.2-1.2-7.4-4.4-6c0.7-4.6-2-4.9-4.9-6.5c-2-1.1-0.9,0-2.1-1.9
	c-0.9-1.3-0.5-2.9-2-4.1c-2.4-1.9-5.4-0.6-7.8,0.3c-0.2-1,0.6-1.9,0.6-3c0-1.6-0.8-3.2-2.1-4.1c-2.1-1.4-7.2-1.5-7.1,2.1
	c-0.7-3.5-2.4-6-6.3-6.6c-2.9-0.5-5.4,1.7-5.3,4.6c-4.1-3.9-8.5-3.8-12.6-0.1c-1.2-0.2-2.4-0.9-3.7-1.2c-2.8-0.6-5.5-1.2-8.3-1.4
	c-3.6-0.3-7-0.9-10.6-0.9c-1.8,0-3.7-0.4-5.4,0.1c-1.7-0.5-3.7-0.1-5.4-0.1c-3.6,0-7.1,0.6-10.6,0.9c-2.8,0.2-5.6,0.8-8.3,1.4
	c-1.3,0.3-2.4,0.9-3.7,1.2c-4.2-3.7-8.6-3.7-12.6,0.1c0.1-2.9-2.4-5-5.3-4.6c-3.9,0.6-5.6,3.1-6.3,6.6c0.1-3.6-5-3.5-7.1-2.1
	c-1.3,0.9-2.1,2.5-2.1,4.1c0,1.2,0.8,2.2,0.8,3.4c-0.4-3.3-6.2-1.4-7.7-0.2c-1.6,1.2-1.5,2.8-0.8,4.5c-3.3-3.9-13.1,1.9-8.4,6.5
	c-2.4-2.4-6.1-0.8-5.6,2.7c-4.6-1.2-9.9,4.9-5.8,8.7c-13.3-3.9-0.2,19.6,4.2,7.7c4.3,1.4,8.6-2.4,8.2-6.9c5.2,6.7,14-3.8,17-8
	c2.5,2.9,4.8,5.5,9,5.1c2.7-0.3,5.5-1.7,7.2-3.8c0.3-0.4,0.6-1.5,1.1-1.5c0.5-0.1,1.3,0.9,1.7,1.1c1.1,0.6,2.6,0.8,3.8,0.4
	c1.6-0.5,2.7-2.3,3.1-3.6c1,3.4,4.2,4.5,7.6,4.3c1.9-0.1,4-0.8,5.3-2.2c0.9-0.9,1.1-2.7,2-3.5c1-0.8,0.8,0.8,1.4,1.8
	c0.9,1.4,2.7,2.4,4.4,2.4c1.2,0,3.1-0.2,4-1.1c0.7-0.7,0.1-2.3,1.3-1.9c0.5,0.2,1.5,1.7,2.1,2.1c1.7,1.1,3.9,1.9,5.9,1.9
	c1.7,0,4.2-0.5,5.5-1.8c0.9-0.9,0.9-2.2,1.7-3.1c0.9-1,1.1-0.2,1.9,0.7c1,1.2,2.2,2,3.8,2.1c1.5,0.1,5.7-0.5,5.6-2.6
	c1.3,0.7,2,2.7,3.3,3.6c1.3,1,2.9,1.5,4.6,1.6c3.4,0.2,6.6-0.8,7.6-4.3c0.4,1.2,1.5,3.1,3.1,3.6c1.8,0.5,4.9-0.2,5.4-2.1
	c0,0.1,0.9,2.3,1.1,2.7c0.4,0.7,1.1,1.2,1.8,1.6c1.5,0.8,3.5,1.1,5.2,1C300.2,99.5,301.2,98.9,302.3,98.2z"/>
</svg>
