<?xml version="1.0" encoding="utf-8"?>
<!-- Generator: Adobe Illustrator 18.0.0, SVG Export Plug-In . SVG Version: 6.00 Build 0)  -->
<!DOCTYPE svg PUBLIC "-//W3C//DTD SVG 1.1//EN" "http://www.w3.org/Graphics/SVG/1.1/DTD/svg11.dtd">
<svg version="1.1" id="content" xmlns="http://www.w3.org/2000/svg" xmlns:xlink="http://www.w3.org/1999/xlink" x="0px" y="0px"
	 width="500px" height="500px" viewBox="0 0 500 500" enable-background="new 0 0 500 500" xml:space="preserve">
<rect id="position" display="none" fill="none" stroke="#000000" width="500" height="500"/>
<g id="bounds" display="none">
	<rect x="0.2" y="80.2" display="inline" fill="none" stroke="#EAEAEA" stroke-miterlimit="10" width="499.5" height="499.5"/>
</g>
<g>
	<path id="hair_3_" fill="#382800" d="M401.5,360.6c0.1-2.9-3.5-6.7-6.3-7.1c8-6.9,2.9-15.5-5.5-18.2c4.5,1.8,5.2-7.6,3.6-10.1
		c-2.4-3.8-7.4-5.2-11.3-3.1c7.3-7.4-1.1-20.7-9.4-23.2c0.8,0.3-0.3-7.7-0.6-8.4c-1.1-2.5-3.1-4.6-5.6-5.7c-1.3-0.6-2.8-0.8-4.2-1
		c-1.3,0-3.8,0.8-4.5-0.6c-0.6-1.1,0.6-4.5,0.6-5.7c0-2.2-0.4-4.5-1.3-6.4c-4.1-9.1-21-17.6-28.1-7c-0.7-1.4-0.6-3.1-1-4.6
		c-0.6-1.5-1.4-3.1-2.5-4.3c-2.1-2.7-4.8-4.9-7.7-6.3c-7.7-3.9-12.7-1.3-19.9,2.4c0.4-6.4-9.4-11.8-14.3-13c-7.7-2-12-0.3-19,3.1
		c-1.7-2.5-3.6-4.3-6.4-5.7c-2.2-1.1-5.5-1.3-8.3-1.8c-2.8,0.6-5.9,0.6-8.3,1.8c-2.8,1.4-4.6,3.1-6.4,5.7c-6.9-3.4-11.3-5-19-3.1
		c-5,1.3-14.8,6.6-14.3,13c-7.1-3.6-12.2-6.2-19.9-2.4c-2.9,1.5-5.7,3.6-7.7,6.3c-1,1.3-2,2.8-2.5,4.3c-0.6,1.5-0.3,3.2-1,4.6
		c-7.3-10.6-24.1-2.1-28.1,7c-1,2-1.3,4.2-1.3,6.4c0,1.3,1.1,4.8,0.6,5.7c-0.7,1.3-3.2,0.4-4.5,0.6c-1.4,0.1-2.9,0.4-4.2,1
		c-2.5,1.1-4.5,3.2-5.6,5.7c-0.3,0.7-1.4,8.7-0.6,8.4c-8.3,2.5-16.7,15.8-9.4,23.2c-4.1-2.1-9.1-0.6-11.3,3.1
		c-1.5,2.5-0.8,11.9,3.6,10.1c-8.4,2.7-13.4,11.3-5.5,18.2c-2.8,0.4-6.4,4.2-6.3,7.1c0.3,4.3,4.8,5.6,8,6c-3.1,4.2-5.7,7.4-3.8,12.7
		c1.4,3.6,5.3,7.3,9.4,7.1c0,0,65.2-70,138.2-70s138.2,70,138.2,70c4.1,0.1,8-3.5,9.4-7.1c2.1-5.5-0.7-8.5-3.8-12.7
		C396.8,366,401.2,364.9,401.5,360.6z"/>
	<g>
		<path fill="#C9C8CE" d="M322.5,319.3l28.2-41c1.7-2.4,1.3-5.6-0.9-7.1c-2.2-1.5-5.3-0.8-7,1.7l-29.3,42.6
			c-19.3-7.6-40.8-11.9-63.4-11.9s-44.1,4.2-63.4,11.9l-29.3-42.6c-1.7-2.4-4.8-3.2-7-1.7c-2.2,1.5-2.6,4.7-0.9,7.1l28.2,41
			c-44.9,20.9-76.4,60.6-80.4,106.9h305.6C398.8,379.8,367.3,340.1,322.5,319.3"/>
		<g>
			<path fill="#FFFFFF" d="M186.2,383.8c-9.3,0-16.9-7.6-16.9-16.9c0-9.3,7.6-16.9,16.9-16.9c9.3,0,16.9,7.6,16.9,16.9
				C203.1,376.3,195.5,383.8,186.2,383.8"/>
			<path fill="#FFFFFF" d="M313.8,383.8c-9.3,0-16.9-7.6-16.9-16.9c0-9.3,7.6-16.9,16.9-16.9c9.3,0,16.9,7.6,16.9,16.9
				C330.7,376.3,323.2,383.8,313.8,383.8"/>
		</g>
	</g>
	<path id="hair_2_" fill="#382800" d="M323.8,340.1c2.1-1.4,4.2-3.4,3.4-3.9c3.5,2.2,4.8,7,8.8,8.8c3.8,1.7,9.9-0.3,10.6-3.9
		c0.7,4.9,8.8,16.8,14.6,9.5c11.2,17.8,19.3-15.1,3.6-10.9c1.1-3.1-1.7-10.4-6.2-8.4c1-6.4-2.8-6.9-6.9-9.1c-2.8-1.5-1.3,0-2.9-2.7
		c-1.3-1.8-0.7-4.1-2.8-5.7c-3.4-2.7-7.6-0.8-10.9,0.4c-0.3-1.4,0.8-2.7,0.8-4.2c0-2.2-1.1-4.5-2.9-5.7c-2.9-2-10.1-2.1-9.9,2.9
		c-1-4.9-3.4-8.4-8.8-9.2c-4.1-0.7-7.6,2.4-7.4,6.4c-5.7-5.5-11.9-5.3-17.6-0.1c-1.7-0.3-3.4-1.3-5.2-1.7c-3.9-0.8-7.7-1.7-11.6-2
		c-5-0.4-9.8-1.3-14.8-1.3c-2.5,0-5.2-0.6-7.6,0.1c-2.4-0.7-5.2-0.1-7.6-0.1c-5,0-9.9,0.8-14.8,1.3c-3.9,0.3-7.8,1.1-11.6,2
		c-1.8,0.4-3.4,1.3-5.2,1.7c-5.9-5.2-12-5.2-17.6,0.1c0.1-4.1-3.4-7-7.4-6.4c-5.5,0.8-7.8,4.3-8.8,9.2c0.1-5-7-4.9-9.9-2.9
		c-1.8,1.3-2.9,3.5-2.9,5.7c0,1.7,1.1,3.1,1.1,4.8c-0.6-4.6-8.7-2-10.8-0.3c-2.2,1.7-2.1,3.9-1.1,6.3c-4.6-5.5-18.3,2.7-11.8,9.1
		c-3.4-3.4-8.5-1.1-7.8,3.8c-6.4-1.7-13.9,6.9-8.1,12.2c-18.6-5.5-0.3,27.4,5.9,10.8c6,2,12-3.4,11.5-9.7
		c7.3,9.4,19.6-5.3,23.8-11.2c3.5,4.1,6.7,7.7,12.6,7.1c3.8-0.4,7.7-2.4,10.1-5.3c0.4-0.6,0.8-2.1,1.5-2.1c0.7-0.1,1.8,1.3,2.4,1.5
		c1.5,0.8,3.6,1.1,5.3,0.6c2.2-0.7,3.8-3.2,4.3-5c1.4,4.8,5.9,6.3,10.6,6c2.7-0.1,5.6-1.1,7.4-3.1c1.3-1.3,1.5-3.8,2.8-4.9
		c1.4-1.1,1.1,1.1,2,2.5c1.3,2,3.8,3.4,6.2,3.4c1.7,0,4.3-0.3,5.6-1.5c1-1,0.1-3.2,1.8-2.7c0.7,0.3,2.1,2.4,2.9,2.9
		c2.4,1.5,5.5,2.7,8.3,2.7c2.4,0,5.9-0.7,7.7-2.5c1.3-1.3,1.3-3.1,2.4-4.3c1.3-1.4,1.5-0.3,2.7,1c1.4,1.7,3.1,2.8,5.3,2.9
		c2.1,0.1,8-0.7,7.8-3.6c1.8,1,2.8,3.8,4.6,5c1.8,1.4,4.1,2.1,6.4,2.2c4.8,0.3,9.2-1.1,10.6-6c0.6,1.7,2.1,4.3,4.3,5
		c2.5,0.7,6.9-0.3,7.6-2.9c0,0.1,1.3,3.2,1.5,3.8c0.6,1,1.5,1.7,2.5,2.2c2.1,1.1,4.9,1.5,7.3,1.4
		C320.9,341.9,322.3,341.1,323.8,340.1z"/>
</g>
</svg>
