<?xml version="1.0" encoding="utf-8"?>
<!-- Generator: Adobe Illustrator 18.0.0, SVG Export Plug-In . SVG Version: 6.00 Build 0)  -->
<!DOCTYPE svg PUBLIC "-//W3C//DTD SVG 1.1//EN" "http://www.w3.org/Graphics/SVG/1.1/DTD/svg11.dtd">
<svg version="1.1" id="position_1_" xmlns="http://www.w3.org/2000/svg" xmlns:xlink="http://www.w3.org/1999/xlink" x="0px"
	 y="0px" width="500px" height="500px" viewBox="0 0 500 500" enable-background="new 0 0 500 500" xml:space="preserve">
<rect id="position" display="none" fill="none" stroke="#000000" width="500" height="500"/>
<path id="hair" fill="#382800" d="M356.3,144.2c-0.1-0.3-0.2-0.7-0.3-1c-0.1-0.2-0.2-0.4-0.2-0.7c0-0.2,0.1-0.4,0.1-0.6
	c0-0.4,0-0.8-0.1-1.1c-0.1-1-0.4-2-0.5-3c-1.5-8.8-4.3-18.3-8.8-26c-2.7-4.6-6.3-8.8-10.1-12.5c-3.7-3.5-7.9-7-12.4-9.3
	c-1.5-0.7-4.6-2.3-6.1-1.9c-1.3-4.2-3.3-6.8-8.1-6.6c1.1-1.9,0.3-3.6-1.4-4.8c-2.2-1.5-3.5-0.8-5.8-1.2c0.8-1.9-1.8-3.6-3.4-4
	c-2.1-0.5-4.3,0-6.1,1.3c-1.4-2.9-3.9-2.9-6.7-2.4c-1.1,0.2-2.8,1-3.8,0.8c-1.4-0.3-3.5-2.4-4.7-3.3c-4.5-3-8.8-6.6-14.1-8.1
	c-2.8-0.7-5.6-1.2-8.4-1.7c-1.3-0.2-3.6-1.2-4.8-0.6c-0.6,0.3-1,1.2-1.3,2.3c-0.2-1.2-0.7-2-1.3-2.3c-1.2-0.5-3.6,0.4-4.8,0.6
	c-2.9,0.5-5.6,0.9-8.4,1.7c-5.4,1.4-9.7,5-14.1,8.1c-1.2,0.8-3.2,3-4.7,3.3c-1,0.2-2.8-0.6-3.8-0.8c-2.8-0.5-5.3-0.4-6.7,2.4
	c-1.8-1.2-4-1.8-6.1-1.3c-1.5,0.4-4.1,2.1-3.4,4c-2.3,0.4-3.6-0.3-5.8,1.2c-1.7,1.2-2.6,2.8-1.4,4.8c-4.8-0.2-6.8,2.4-8.1,6.6
	c-1.6-0.4-4.7,1.1-6.1,1.9c-4.6,2.3-8.7,5.8-12.4,9.3c-3.9,3.7-7.4,7.9-10.1,12.5c-4.5,7.7-7.3,17.2-8.8,26c-0.2,1-0.4,2-0.5,3
	c0,0.4-0.1,0.8-0.1,1.1c0,0.2,0.1,0.4,0.1,0.6c0,0.3,0,0.5-0.2,0.7c-0.2,0.3-0.3,0.6-0.3,1c-0.1,0.4-0.2,0.8,0,1.2
	c0.2,0.3,0.4,0.4,0.7,0.6c0.7,0.3,1.4,0.1,2-0.1c0.3-0.1,0.7-0.2,1-0.3s0.5-0.3,0.7-0.5c0.4-0.4,0.7-0.9,0.9-1.4
	c0-0.1,0.1-1.8-0.2-1.7c1.4-0.5,2.7-0.4,3.4-2c0.5-1.3-0.1-2.9-0.8-4c2.1,0.2,4.8,1.3,6.8,0.1c2.3-1.4,2.3-4.2,1.4-6.3
	c1.7,0.5,4.7,0.2,6-1.3c1.8-2.1-0.2-4.2-0.7-6.1c-0.6-2.3,1.4-4.1,3.6-3.1c2.1,0.9,3.3,2,4.4-0.9c1.3,2.4,2.9,4.2,5.8,4.5
	c2.3,0.3,6.1-1.2,4.9-4c-0.7-1.6-5.5-3.9-4.2-6.1c1.1-1.8,5.3,1.2,7.1,0.6c2.2-0.7,2.7-3.7,1.3-5.3c1.9,0.1,5.2-0.2,6.4-2.2
	c1.2-2.2-2.1-4.1-3.3-5.6c-2-2.4-0.6-4.8,1.7-6.3c1.1-0.7,2.4-1.3,3.6-0.8c2.3,0.8,0.7,1.5,0.6,2.8c-0.2,2,2.4,2.3,3.9,2
	c-0.5,0.6-1.8,2.2-1.5,3.1c0.4,1.1,2.5,0.8,3.5,0.9c-0.6,1.5-0.8,2,0.9,2.8c1.1,0.5,2.4,0.6,3.7,0.7c2,0.1,5.9-0.4,5.5-3
	c-0.4-2.4-3.9-2.7-4.7-4.8c-1-2.7,2.9-5,5-5.7c2.4-0.8,5.8-1.6,8.3-1c4.6,1.1-1.4,3.5-0.4,5.8c1.1,2.5,6.2,0.8,6.8,2.5
	c0.6,1.4-3.8,4.5-4.3,5.8c-1,2.4,0.1,4.4,2,6.1c1.2,1,6.4,2.9,6.4,0c0-2.3-4.7-4.1-1.1-6.5c1.9-1.2,5.9-0.7,4.8-4.2
	c-0.5-1.6-3-2.8-2.8-4.5c0.2-1.4,2.8-2.9,4-3.2c1.7-0.5,4-0.2,5.7,0.2c1.4,0.4,2.5,1.3,3.7,2.2c-1.4,0.9-1.8,2.8-0.5,4.2
	c0.9,1.1,3.3,1.5,3.4,3c0.1,1.7-2.2,2.5-1.7,4.7c0.4,1.8,2,2.3,3.3,3c1.3-0.7,2.9-1.1,3.3-3c0.5-2.2-1.8-2.9-1.7-4.7
	c0.1-1.5,2.5-1.9,3.4-3c1.2-1.4,0.9-3.3-0.5-4.2c1.1-0.9,2.2-1.8,3.7-2.2c1.7-0.4,4-0.6,5.7-0.2c1.2,0.3,3.8,1.7,4,3.2
	c0.2,1.7-2.3,2.9-2.8,4.5c-1.1,3.5,2.9,3,4.8,4.2c3.6,2.3-1.1,4.1-1.1,6.5c0,3,5.2,1.1,6.4,0c1.9-1.6,2.9-3.6,2-6.1
	c-0.5-1.3-4.9-4.4-4.3-5.8c0.7-1.7,5.7,0,6.9-2.5c1-2.4-4.9-4.7-0.4-5.8c2.5-0.6,5.9,0.2,8.3,1c2.1,0.7,6,3,5,5.7
	c-0.8,2.2-4.3,2.4-4.7,4.8c-0.4,2.6,3.5,3.1,5.5,3c1.2-0.1,2.6-0.2,3.7-0.7c1.7-0.8,1.5-1.3,0.9-2.8c0.9-0.1,3.1,0.3,3.5-0.9
	c0.3-0.9-1-2.5-1.5-3.1c1.6,0.3,4.1,0,3.9-2c-0.1-1.3-1.7-2,0.6-2.8c1.2-0.4,2.5,0.2,3.6,0.8c2.4,1.5,3.7,3.9,1.7,6.3
	c-1.2,1.5-4.6,3.4-3.3,5.6c1.2,2.1,4.5,2.3,6.4,2.2c-1.3,1.6-0.9,4.6,1.3,5.3c1.8,0.6,6-2.4,7.1-0.6c1.4,2.2-3.5,4.5-4.2,6.1
	c-1.2,2.9,2.6,4.3,4.9,4c2.9-0.3,4.5-2.1,5.8-4.5c1.1,2.9,2.4,1.8,4.4,0.9c2.2-1,4.2,0.8,3.6,3.1c-0.5,2-2.5,4-0.7,6.1
	c1.3,1.5,4.2,1.8,6,1.3c-0.9,2.1-1,5,1.4,6.3c2.1,1.2,4.7,0.1,6.8-0.1c-0.7,1.1-1.3,2.7-0.8,4c0.7,1.6,2,1.6,3.4,2
	c-0.3-0.1-0.2,1.6-0.2,1.7c0.1,0.5,0.5,1,0.9,1.4c0.2,0.2,0.5,0.4,0.7,0.5c0.3,0.1,0.7,0.2,1,0.3c0.7,0.2,1.4,0.4,2,0.1
	c0.3-0.1,0.6-0.3,0.7-0.6C356.5,145.1,356.4,144.6,356.3,144.2z"/>
<g id="bounds">
    <rect x="72.8" y="-110.5" display="none" fill="none" stroke="#000000" stroke-width="1.2038" stroke-miterlimit="10" width="354.5" height="354.5"/>
</g>
</svg>
