<?xml version="1.0" encoding="utf-8"?>
<!-- Generator: Adobe Illustrator 18.0.0, SVG Export Plug-In . SVG Version: 6.00 Build 0)  -->
<!DOCTYPE svg PUBLIC "-//W3C//DTD SVG 1.1//EN" "http://www.w3.org/Graphics/SVG/1.1/DTD/svg11.dtd">
<svg version="1.1" id="content" xmlns="http://www.w3.org/2000/svg" xmlns:xlink="http://www.w3.org/1999/xlink" x="0px" y="0px"
	 width="500px" height="500px" viewBox="0 0 500 500" enable-background="new 0 0 500 500" xml:space="preserve">
<rect id="position" display="none" fill="none" stroke="#000000" width="500" height="500"/>
<g id="bounds" display="none">
	<rect x="0.2" y="80.2" display="inline" fill="none" stroke="#EAEAEA" stroke-miterlimit="10" width="499.5" height="499.5"/>
</g>
<g>
	<path id="hair_2_" fill="#382800" d="M391.4,368c0.7,0.3,15.2-10,12.9-26.2c-2.3-16.2-23.1-22.3-23.1-22.3s1.1-2.2,1.6-3.2
		c6.5-11,0.2-42.5-33.9-38c16.6-34.6-43.2-66.9-62.1-33.6c-2.4-19.3-21.5-26.9-37.2-26.9s-34.7,7.5-37.2,26.9
		c-18.7-33.4-78.6-1.1-62.1,33.6c-34.1-4.6-40.3,27-33.9,38c0.5,1,1.6,3.2,1.6,3.2s-20.8,6.1-23.1,22.3
		c-2.3,16.2,12.2,26.4,12.9,26.2c-4,1.5-14.7,12.2-11.1,28.9c3.2,14.8,21.4,20,21.8,19.3c-3.8,8.5,2,23.8,16.9,24.2l231.1,0.2
		c10.8-0.6,17.8-16.1,14-24.6c0.3,0.7,18.5-4.4,21.8-19.3C406.2,380.1,395.5,369.4,391.4,368z"/>
	<g>
		<path fill="#C9C8CE" d="M306,360.5l21.3-31c1.3-1.8,1-4.3-0.7-5.4c-1.7-1.1-4-0.6-5.3,1.3l-22.2,32.2c-14.6-5.8-30.9-9-48-9
			c-17.1,0-33.4,3.2-48,9L181,325.4c-1.3-1.8-3.6-2.4-5.3-1.3c-1.7,1.1-2,3.6-0.7,5.4l21.4,31c-34,15.8-57.8,45.8-60.8,80.8h231.2
			C363.8,406.3,339.9,376.3,306,360.5"/>
		<g>
			<path fill="#FFFFFF" d="M202.9,409.3c-7.1,0-12.8-5.7-12.8-12.8c0-7.1,5.7-12.8,12.8-12.8c7.1,0,12.8,5.7,12.8,12.8
				C215.7,403.6,210,409.3,202.9,409.3"/>
			<path fill="#FFFFFF" d="M299.5,409.3c-7.1,0-12.8-5.7-12.8-12.8c0-7.1,5.7-12.8,12.8-12.8c7.1,0,12.8,5.7,12.8,12.8
				C312.3,403.6,306.5,409.3,299.5,409.3"/>
		</g>
	</g>
	<path id="hair_1_" fill="#382800" d="M250.9,332.7c0,0-46.4-5.8-69.7,35.8c0,0,36.2-25.3,69.7-12c33.5-13.3,69.7,12,69.7,12
		C297.3,326.9,250.9,332.7,250.9,332.7z"/>
</g>
</svg>
