<?xml version="1.0" encoding="utf-8"?>
<!-- Generator: Adobe Illustrator 18.0.0, SVG Export Plug-In . SVG Version: 6.00 Build 0)  -->
<!DOCTYPE svg PUBLIC "-//W3C//DTD SVG 1.1//EN" "http://www.w3.org/Graphics/SVG/1.1/DTD/svg11.dtd">
<svg version="1.1" id="content" xmlns="http://www.w3.org/2000/svg" xmlns:xlink="http://www.w3.org/1999/xlink" x="0px" y="0px"
	 width="500px" height="500px" viewBox="0 0 500 500" enable-background="new 0 0 500 500" xml:space="preserve">
<rect id="position" display="none" fill="none" stroke="#000000" width="500" height="500"/>
<path id="hair_1_" fill="#382800" d="M382,90.4c0.7,0.3,14.4-9.4,12.2-24.7c-2.2-15.3-21.8-21.1-21.8-21.1s1-2.1,1.5-3
	c6.1-10.4,0.2-40.1-32-35.9C357.6-27,301.1-57.5,283.3-26C281-44.2,263-51.4,248.2-51.4s-32.8,7.1-35.1,25.4
	c-17.7-31.5-74.2-1-58.6,31.7c-32.2-4.3-38.1,25.5-32,35.9c0.5,0.9,1.5,3,1.5,3s-19.6,5.8-21.8,21.1C100,81,113.7,90.6,114.4,90.4
	c-3.8,1.4-13.9,11.5-10.5,27.3c3,14,20.2,18.9,20.6,18.2c-3.6,8,1.9,22.5,16,22.9l218.2,0.2c10.2-0.6,16.8-15.2,13.2-23.2
	c0.3,0.7,17.5-4.2,20.6-18.2C395.9,101.8,385.8,91.7,382,90.4z"/>
<g id="bounds">
    <rect x="68.5" y="-127.1" display="none" fill="none" stroke="#000000" stroke-width="1.2038" stroke-miterlimit="10" width="363" height="363"/>
</g>
</svg>
