<?xml version="1.0" encoding="utf-8"?>
<!-- Generator: Adobe Illustrator 18.0.0, SVG Export Plug-In . SVG Version: 6.00 Build 0)  -->
<!DOCTYPE svg PUBLIC "-//W3C//DTD SVG 1.1//EN" "http://www.w3.org/Graphics/SVG/1.1/DTD/svg11.dtd">
<svg version="1.1" id="content" xmlns="http://www.w3.org/2000/svg" xmlns:xlink="http://www.w3.org/1999/xlink" x="0px" y="0px"
	 width="500px" height="500px" viewBox="0 0 500 500" enable-background="new 0 0 500 500" xml:space="preserve">
<rect id="position" display="none" fill="none" stroke="#000000" width="500" height="500"/>
<path id="hair_1_" fill="#382800" d="M372,158.3c3.6-3.4,3.6-9.3,1.7-13.8c-2-4.7-5.9-9.1-10-12.2c-4.5-3.4-7-7.3-9.4-12.4
	c-2.8-5.9-6.6-8.7-12.1-11.5c-5.5-2.9-7.5-6.4-11-11.2c-3.5-4.8-8.3-7.1-13.9-8.8c-8.8-2.6-14.2-9.6-22.8-12.5
	c-4.6-1.6-87.5-1.6-92.1,0c-8.6,2.9-14,9.9-22.8,12.5c-5.6,1.7-10.4,4-13.9,8.8s-5.6,8.4-11,11.2c-5.5,2.9-9.4,5.6-12.1,11.5
	c-2.4,5.1-4.9,9-9.4,12.4c-4.1,3.1-8,7.5-10,12.2c-1.9,4.4-1.9,10.4,1.7,13.8c-2.9,0.8-5.2,4.3-5.4,7.2c-0.4,6.6,6.4,11.4,12.1,13.3
	c7.3,2.4,16.7,0.3,23.9-1.6c4.7-1.2,9-2.1,14-1.5c5.4,0.8,10.6,3,15.9,4.2c5.8,1.3,11.6,1.3,17.3,0.4c4.2-0.6,7.7-2.4,11.8-3.2
	c4.7-1,9.9-1.1,14.7-0.6c4.6,0.5,9.3,2.2,19.2,2.2c9.9,0,14.6-1.7,19.2-2.2c4.8-0.5,10.1-0.4,14.7,0.6c4,0.8,7.6,2.6,11.8,3.2
	c5.7,0.9,11.6,0.9,17.3-0.4c5.3-1.2,10.5-3.4,15.9-4.2c5-0.7,9.3,0.2,14,1.5c7.2,1.9,16.6,4,23.9,1.6c5.7-1.9,12.5-6.6,12.1-13.3
	C377.2,162.6,374.9,159.1,372,158.3z"/>
<g id="bounds_1_" display="none">
	
		<rect x="105.3" y="-31.6" display="inline" fill="none" stroke="#000000" stroke-width="1.122" stroke-miterlimit="10" width="289.4" height="289.4"/>
</g>
</svg>
