<?xml version="1.0" encoding="utf-8"?>
<!-- Generator: Adobe Illustrator 18.0.0, SVG Export Plug-In . SVG Version: 6.00 Build 0)  -->
<!DOCTYPE svg PUBLIC "-//W3C//DTD SVG 1.1//EN" "http://www.w3.org/Graphics/SVG/1.1/DTD/svg11.dtd">
<svg version="1.1" id="content" xmlns="http://www.w3.org/2000/svg" xmlns:xlink="http://www.w3.org/1999/xlink" x="0px" y="0px"
	 width="500px" height="500px" viewBox="0 0 500 500" enable-background="new 0 0 500 500" xml:space="preserve">
<rect id="position" display="none" fill="none" stroke="#000000" width="500" height="500"/>
<path fill="#382800" d="M383.5,169c0-57.9-53.4-108.1-81.5-108.1c-4.9,0-9.4,1.3-13.3,3.7c-2.2-12.2-12.9-20-25.7-21.4
	c-86.4-9.7-153.4,58.1-150,150c0.1,2.1,0,143.1,0,143.1c0,8.3,10.4,14.3,15,15c4.6,0.7,58.4,15.2,120.7,15.2S360.1,355.6,366,354
	c5.9-1.7,15-6.7,15-15C381.1,338.8,383.5,175.9,383.5,169z"/>
<g id="bounds_3_" display="none">
	
		<rect x="49" y="2" display="inline" fill="none" stroke="#000000" stroke-width="1.558" stroke-miterlimit="10" width="401.9" height="401.9"/>
</g>
</svg>
