<?xml version="1.0" encoding="utf-8"?>
<!-- Generator: Adobe Illustrator 18.0.0, SVG Export Plug-In . SVG Version: 6.00 Build 0)  -->
<!DOCTYPE svg PUBLIC "-//W3C//DTD SVG 1.1//EN" "http://www.w3.org/Graphics/SVG/1.1/DTD/svg11.dtd">
<svg version="1.1" id="content" xmlns="http://www.w3.org/2000/svg" xmlns:xlink="http://www.w3.org/1999/xlink" x="0px" y="0px"
	 width="500px" height="500px" viewBox="0 0 500 500" enable-background="new 0 0 500 500" xml:space="preserve">
<rect id="position" display="none" fill="none" stroke="#000000" width="500" height="500"/>
<g id="bounds" display="none">
	<rect x="0.2" y="80.2" display="inline" fill="none" stroke="#EAEAEA" stroke-miterlimit="10" width="499.5" height="499.5"/>
</g>
<g>
	<path fill="#382800" d="M385.6,294.3c0-57.9-53.4-108.1-81.5-108.1c-4.9,0-9.4,1.3-13.3,3.7c-2.2-12.2-12.9-20-25.7-21.4
		c-86.4-9.7-153.4,58.1-150,150c0.1,2.1,0,143.1,0,143.1c0,8.3,10.4,14.3,15,15c4.6,0.7,58.4,15.2,120.7,15.2s111.4-10.9,117.3-12.5
		c5.9-1.7,15-6.7,15-15C383.2,464.1,385.6,301.2,385.6,294.3z"/>
	<g>
		<path fill="#C9C8CE" d="M303.4,208.6l20.2-29.3c1.2-1.7,0.9-4-0.7-5.1c-1.6-1.1-3.8-0.5-5,1.2l-21,30.4
			c-13.8-5.4-29.1-8.5-45.3-8.5c-16.2,0-31.5,3-45.3,8.5l-20.9-30.4c-1.2-1.7-3.4-2.3-5-1.2c-1.6,1.1-1.9,3.4-0.7,5.1l20.2,29.3
			c-32.1,14.9-54.5,43.3-57.4,76.3h218.3C357.9,251.9,335.4,223.6,303.4,208.6"/>
		<g>
			<path fill="#FFFFFF" d="M206,254.8c-6.7,0-12.1-5.4-12.1-12.1c0-6.7,5.4-12.1,12.1-12.1c6.7,0,12.1,5.4,12.1,12.1
				C218.1,249.4,212.7,254.8,206,254.8"/>
			<path fill="#FFFFFF" d="M297.2,254.8c-6.7,0-12.1-5.4-12.1-12.1c0-6.7,5.4-12.1,12.1-12.1c6.7,0,12.1,5.4,12.1,12.1
				C309.3,249.4,303.9,254.8,297.2,254.8"/>
		</g>
	</g>
	<path fill="#382800" d="M199.4,196.5c-43.3,24.1-63.8,62.6-63.8,62.6v32.6l25.1-3.1c0,0,0.1-8.2,0.1-23.7c0-25.7,22.4-50,50-50
		c30.3,0,26.9,7.8,55.1,7.8l0,0c14.8,0.5,31.9-7.4,31.9-21.8C297.6,187.2,242.7,172.4,199.4,196.5z"/>
</g>
</svg>
