<?xml version="1.0" encoding="utf-8"?>
<!-- Generator: Adobe Illustrator 16.0.0, SVG Export Plug-In . SVG Version: 6.00 Build 0)  -->
<!DOCTYPE svg PUBLIC "-//W3C//DTD SVG 1.1//EN" "http://www.w3.org/Graphics/SVG/1.1/DTD/svg11.dtd">
<svg version="1.1" id="content" xmlns="http://www.w3.org/2000/svg" xmlns:xlink="http://www.w3.org/1999/xlink" x="0px" y="0px"
	 width="500px" height="500px" viewBox="0 0 500 500" enable-background="new 0 0 500 500" xml:space="preserve">
<path id="hair" fill="#382800" d="M249.331,218.167C239.162,231.5,209.5,234.833,209.5,234.833c15-7.667,16.667-32,16.667-32
	s-18.333,20-47,20c-72,0-82.267-64.556-74.59-85.447c0,0,4.509,12.397,18.044,12.397c5.357,0,13.314-4.257,11.654-25.51
	c0-50.274,38.226-97.853,94.86-97.853c66.686,0,70.333,34.035,70.333,34.035S339.491,40.249,361.5,83
	c8,17.5,2.916,41.274,2.916,41.274c-1.659,21.253,4.375,28.916,12.948,28.916c11.195,0,16.472-12.849,16.472-12.849
	c2.147,6.198,4.277,82.491-74.342,82.491c-28.666,0-46.999-20-46.999-20s1.667,24.333,16.667,32
	C289.162,234.833,259.5,231.5,249.331,218.167"/>
<g id="bounds_2_" display="none">
	
		<rect x="82.241" y="-38.022" display="inline" fill="none" stroke="#000000" stroke-width="1.3005" stroke-miterlimit="10" width="335.516" height="335.514"/>
</g>
<rect id="position" display="none" fill="none" stroke="#000000" width="500" height="500"/>
</svg>
