<?xml version="1.0" encoding="utf-8"?>
<!-- Generator: Adobe Illustrator 18.0.0, SVG Export Plug-In . SVG Version: 6.00 Build 0)  -->
<!DOCTYPE svg PUBLIC "-//W3C//DTD SVG 1.1//EN" "http://www.w3.org/Graphics/SVG/1.1/DTD/svg11.dtd">
<svg version="1.1" id="content" xmlns="http://www.w3.org/2000/svg" xmlns:xlink="http://www.w3.org/1999/xlink" x="0px" y="0px"
	 width="500px" height="500px" viewBox="0 0 500 500" enable-background="new 0 0 500 500" xml:space="preserve">
<rect id="position" display="none" fill="none" stroke="#000000" width="500" height="500"/>
<g id="bounds" display="none">
	<rect x="0.2" y="80.2" display="inline" fill="none" stroke="#EAEAEA" stroke-miterlimit="10" width="499.5" height="499.5"/>
</g>
<g>
	<path id="hair" fill="#382800" d="M251.2,430.7c-11.5,15.1-45.1,18.9-45.1,18.9c17-8.7,18.9-36.3,18.9-36.3S204.2,436,171.7,436
		c-81.6,0-93.2-73.1-84.5-96.8c0,0,5.1,14,20.4,14c6.1,0,15.1-4.8,13.2-28.9c0-57,43.3-110.9,107.5-110.9
		c75.6,0,79.7,38.6,79.7,38.6s45.3-22.9,70.3,25.5c9.1,19.8,3.3,46.8,3.3,46.8c-1.9,24.1,5,32.8,14.7,32.8
		c12.7,0,18.7-14.6,18.7-14.6c2.4,7,4.8,93.5-84.2,93.5c-32.5,0-53.2-22.7-53.2-22.7s1.9,27.6,18.9,36.3
		C296.3,449.6,262.7,445.8,251.2,430.7"/>
	<g>
		<path fill="#C9C8CE" d="M310.1,277.9l22.8-33.2c1.4-2,1-4.6-0.8-5.8c-1.8-1.2-4.3-0.6-5.7,1.4l-23.7,34.5
			c-15.6-6.2-33-9.6-51.3-9.6s-35.7,3.4-51.3,9.6l-23.7-34.5c-1.4-2-3.9-2.6-5.7-1.4c-1.8,1.2-2.1,3.8-0.8,5.8l22.8,33.2
			c-36.3,16.9-61.8,49-65,86.5h247.3C371.9,326.9,346.4,294.8,310.1,277.9"/>
		<g>
			<path fill="#FFFFFF" d="M199.8,330.2c-7.6,0-13.7-6.1-13.7-13.7c0-7.6,6.1-13.7,13.7-13.7c7.6,0,13.7,6.1,13.7,13.7
				C213.5,324.1,207.4,330.2,199.8,330.2"/>
			<path fill="#FFFFFF" d="M303.1,330.2c-7.6,0-13.7-6.1-13.7-13.7c0-7.6,6.1-13.7,13.7-13.7c7.6,0,13.7,6.1,13.7,13.7
				C316.8,324.1,310.7,330.2,303.1,330.2"/>
		</g>
	</g>
	<path id="hair_3_" fill="#382800" d="M305.6,279.8c0,0-20.5,14.5-63.1,14.5c-22.3,0-61.5-18-89.6,31.8
		c-14.4,24.2-7.3,41.9-7.3,41.9h-27.8c0,0,17.4-107,134.1-107c40.2,0,123.6,27.6,130.9,109.9c-13.1,0-34.3,0-34.3,0
		s9.4-18.4-5.1-46.8C332.1,299.9,304.9,302.8,305.6,279.8z"/>
</g>
</svg>
