<?xml version="1.0" encoding="utf-8"?>
<!-- Generator: Adobe Illustrator 18.0.0, SVG Export Plug-In . SVG Version: 6.00 Build 0)  -->
<!DOCTYPE svg PUBLIC "-//W3C//DTD SVG 1.1//EN" "http://www.w3.org/Graphics/SVG/1.1/DTD/svg11.dtd">
<svg version="1.1" id="content" xmlns="http://www.w3.org/2000/svg" xmlns:xlink="http://www.w3.org/1999/xlink" x="0px" y="0px"
	 width="500px" height="500px" viewBox="0 0 500 500" enable-background="new 0 0 500 500" xml:space="preserve">
<rect id="position" display="none" fill="none" stroke="#000000" width="500" height="500"/>
<path id="hair" fill="#382800" d="M319.1,74.9c-44.2-23.3-69.5-21.1-69.5-21.1s-25.2-2.3-69.5,21.1C104.7,116,137.4,175.1,140,180.8
	s8.4,13.6,2.9,18c7.1-1.3,9.8-7.7,9.8-7.7s1.4,1.1-1.2,6.9c0,0,6.3,0.3,9.4-12.2c0,0,1.3,3.2,0.3,8.8c14-16.9-1.7-23.2-5.5-42
	c-6.3-45.3,43.4-52.6,65.3-58.8s28.7-21.6,28.7-21.6s6.8,15.5,28.7,21.6s71.6,13.5,65.3,58.8c-3.8,18.8-19.4,25.2-5.5,42
	c-1-5.5,0.3-8.8,0.3-8.8c3,12.6,9.4,12.2,9.4,12.2c-2.6-5.8-1.2-6.9-1.2-6.9s2.7,6.4,9.8,7.7c-5.5-4.5,0.3-12.4,2.9-18
	C361.7,175.1,394.5,116,319.1,74.9z"/>
<g id="bounds_1_" display="none">
	
		<rect x="94.7" y="-25.6" display="inline" fill="none" stroke="#000000" stroke-width="1.2038" stroke-miterlimit="10" width="310.6" height="310.6"/>
</g>
</svg>
