<?xml version="1.0" encoding="utf-8"?>
<!-- Generator: Adobe Illustrator 18.0.0, SVG Export Plug-In . SVG Version: 6.00 Build 0)  -->
<!DOCTYPE svg PUBLIC "-//W3C//DTD SVG 1.1//EN" "http://www.w3.org/Graphics/SVG/1.1/DTD/svg11.dtd">
<svg version="1.1" id="content" xmlns="http://www.w3.org/2000/svg" xmlns:xlink="http://www.w3.org/1999/xlink" x="0px" y="0px"
	 width="500px" height="500px" viewBox="0 0 500 500" enable-background="new 0 0 500 500" xml:space="preserve">
<rect id="position" display="none" fill="none" stroke="#000000" width="500" height="500"/>
<g id="bounds" display="none">
	<rect x="0.2" y="80.2" display="inline" fill="none" stroke="#EAEAEA" stroke-miterlimit="10" width="499.5" height="499.5"/>
</g>
<g>
	<path id="hair_3_" fill="#382800" d="M250,210.9c-139.6,0-153.8,114.6-153.8,114.6c-6.3,47.6,39.6,75.7,21.2,104
		c5.5,2.1,22-10.3,22-10.3s9.4,16.2,31.2,18.7c-4.4-6.9,2-16.7,2-16.7s17.5,21.6,37.4,22.9c-8.6-10.2-4.7-21.8-4.7-21.8
		s15.4,5.1,19.9,15.4c4.7-10.8-1.3-17.5-1.3-17.5c17.5-1.2,29,11.6,28.8,23.8c10.2-5.8,7.3-22.7,7.3-22.7
		c13.7,7.4,25.9,3.1,25.9,3.1c-9.4-7.6-6.8-9.8-6.8-9.8s26.7,2.1,22.9,32.7c13.2-5.9,14.6-29.3,14.6-29.3s13.1,13.7,29.4,12.4
		c-8.8-4.6-8.2-13.3-8.2-13.3c19.6,19.7,33.3,12,33.3,12c-15.4-19.6,9.9-36.2,17.8-48.1c6.8-9.7,21.4-29.3,14.9-55.3
		C403.8,325.5,389.6,210.9,250,210.9"/>
	<g>
		<path fill="#C9C8CE" d="M317.6,268.1l26.3-38.3c1.6-2.3,1.2-5.3-0.9-6.7c-2-1.4-5-0.7-6.5,1.6l-27.4,39.7
			c-18-7.1-38.1-11.1-59.2-11.1c-21.1,0-41.2,4-59.2,11.1l-27.4-39.7c-1.6-2.3-4.5-3-6.5-1.6c-2,1.4-2.4,4.4-0.9,6.7l26.4,38.3
			c-41.9,19.5-71.3,56.5-75,99.8h285.3C388.9,324.7,359.5,287.6,317.6,268.1"/>
		<g>
			<path fill="#FFFFFF" d="M190.4,328.4c-8.7,0-15.8-7.1-15.8-15.8c0-8.7,7.1-15.8,15.8-15.8c8.7,0,15.8,7.1,15.8,15.8
				C206.1,321.4,199.1,328.4,190.4,328.4"/>
			<path fill="#FFFFFF" d="M309.6,328.4c-8.7,0-15.8-7.1-15.8-15.8c0-8.7,7.1-15.8,15.8-15.8c8.7,0,15.8,7.1,15.8,15.8
				C325.4,321.4,318.3,328.4,309.6,328.4"/>
		</g>
	</g>
	<path id="hair_1_" fill="#382800" d="M340.9,257.2c-57.8-30.5-90.8-27.6-90.8-27.6s-32.9-3-90.8,27.6
		c-98.5,53.7-55.8,131-52.4,138.4c3.4,7.4,11,17.8,3.8,23.5c9.3-1.7,12.8-10.1,12.8-10.1s1.8,1.4-1.6,9c0,0,8.2,0.4,12.3-15.9
		c0,0,1.7,4.2,0.4,11.5c18.3-22.1-2.2-30.3-7.2-54.9c-8.2-59.2,56.7-68.7,85.3-76.8s37.5-28.2,37.5-28.2s8.9,20.3,37.5,28.2
		c28.6,8,93.6,17.6,85.3,76.8c-5,24.6-25.4,32.9-7.2,54.9c-1.3-7.2,0.4-11.5,0.4-11.5c3.9,16.5,12.3,15.9,12.3,15.9
		c-3.4-7.6-1.6-9-1.6-9s3.5,8.4,12.8,10.1c-7.2-5.9,0.4-16.2,3.8-23.5C396.5,388.1,439.4,310.9,340.9,257.2z"/>
</g>
</svg>
