<?xml version="1.0" encoding="utf-8"?>
<!-- Generator: Adobe Illustrator 18.0.0, SVG Export Plug-In . SVG Version: 6.00 Build 0)  -->
<!DOCTYPE svg PUBLIC "-//W3C//DTD SVG 1.1//EN" "http://www.w3.org/Graphics/SVG/1.1/DTD/svg11.dtd">
<svg version="1.1" id="content" xmlns="http://www.w3.org/2000/svg" xmlns:xlink="http://www.w3.org/1999/xlink" x="0px" y="0px"
	 width="500px" height="500px" viewBox="0 0 500 500" enable-background="new 0 0 500 500" xml:space="preserve">
<rect id="position" display="none" fill="none" stroke="#000000" width="500" height="500"/>
<path id="hair" fill="#382800" d="M249.6,39.5c-106.8,0-117.7,87.7-117.7,87.7c-4.8,36.4,30.3,57.9,16.2,79.6
	c4.2,1.6,16.8-7.9,16.8-7.9s7.2,12.4,23.9,14.3c-3.4-5.3,1.5-12.8,1.5-12.8s13.4,16.5,28.6,17.5c-6.6-7.8-3.6-16.7-3.6-16.7
	s11.8,3.9,15.2,11.8c3.6-8.3-1-13.4-1-13.4c13.4-0.9,22.2,8.9,22,18.2c7.8-4.4,5.6-17.4,5.6-17.4c10.5,5.7,19.8,2.4,19.8,2.4
	c-7.2-5.8-5.2-7.5-5.2-7.5s20.4,1.6,17.5,25c10.1-4.5,11.2-22.4,11.2-22.4s10,10.5,22.5,9.5c-6.7-3.5-6.3-10.2-6.3-10.2
	c15,15.1,25.5,9.2,25.5,9.2c-11.8-15,7.6-27.7,13.6-36.8c5.2-7.4,16.4-22.4,11.4-42.3C367.3,127.2,356.4,39.5,249.6,39.5"/>
<g id="bounds_1_" display="none">
	
		<rect x="94.7" y="-25.6" display="inline" fill="none" stroke="#000000" stroke-width="1.2038" stroke-miterlimit="10" width="310.6" height="310.6"/>
</g>
</svg>
