<?xml version="1.0" encoding="utf-8"?>
<!-- Generator: Adobe Illustrator 18.0.0, SVG Export Plug-In . SVG Version: 6.00 Build 0)  -->
<!DOCTYPE svg PUBLIC "-//W3C//DTD SVG 1.1//EN" "http://www.w3.org/Graphics/SVG/1.1/DTD/svg11.dtd">
<svg version="1.1" id="content" xmlns="http://www.w3.org/2000/svg" xmlns:xlink="http://www.w3.org/1999/xlink" x="0px" y="0px"
	 width="500px" height="500px" viewBox="0 0 500 500" enable-background="new 0 0 500 500" xml:space="preserve">
<rect id="position" display="none" fill="none" stroke="#000000" width="500" height="500"/>
<path id="hair_3_" fill="#382800" d="M219.9,90.1c0,0-0.8,3.4-9.3,8.3c11.4,0.7,28.3-2.6,28.3-2.6s-2.5,5.6-12.8,8.3
	c14.5,0.8,31-2.9,31-2.9s-3.8,6.1-16.5,8.1c34.3,1.6,57.5-25.2,57.5-25.2s10.2,20.3,37.7,37.1c-7.2-9-7.5-10.3-7.5-10.3l26.6,20.7
	c-8.2-21.5-36.6-49.4-64.1-54.9c-30.5-6.7-65.2-14.4-108.7,13.1c-21,14.5-32.7,29.1-46.8,69.9c13.6-6.7,40.4-43.3,48.7-56.6
	c0,1.6-0.1,2.6,1.1,5.6C195.5,87.9,219.9,90.1,219.9,90.1z"/>
<g id="bounds_1_" display="none">
	
		<rect x="94.7" y="-12.8" display="inline" fill="none" stroke="#000000" stroke-width="1.2038" stroke-miterlimit="10" width="310.6" height="310.6"/>
</g>
</svg>
