<?xml version="1.0" encoding="utf-8"?>
<!-- Generator: Adobe Illustrator 18.0.0, SVG Export Plug-In . SVG Version: 6.00 Build 0)  -->
<!DOCTYPE svg PUBLIC "-//W3C//DTD SVG 1.1//EN" "http://www.w3.org/Graphics/SVG/1.1/DTD/svg11.dtd">
<svg version="1.1" id="content" xmlns="http://www.w3.org/2000/svg" xmlns:xlink="http://www.w3.org/1999/xlink" x="0px" y="0px"
	 width="500px" height="500px" viewBox="0 0 500 500" enable-background="new 0 0 500 500" xml:space="preserve">
<rect id="position" display="none" fill="none" stroke="#000000" width="500" height="500"/>
<g id="bounds" display="none">
	<rect x="0.2" y="80.2" display="inline" fill="none" stroke="#EAEAEA" stroke-miterlimit="10" width="499.5" height="499.5"/>
</g>
<g>
	<g>
		<path fill="#C9C8CE" d="M310.3,284.9l28-40.6c1.7-2.4,1.2-5.6-0.9-7.1c-2.2-1.5-5.3-0.8-6.9,1.7l-29.1,42.2
			c-19.2-7.5-40.4-11.7-62.8-11.7c-22.4,0-43.7,4.2-62.8,11.7l-29.1-42.2c-1.7-2.4-4.8-3.2-6.9-1.7c-2.2,1.5-2.6,4.7-0.9,7.1
			l28,40.6c-44.5,20.7-75.7,60-79.6,105.9h302.8C386,344.9,354.8,305.6,310.3,284.9"/>
		<g>
			<path fill="#FFFFFF" d="M175.3,348.9c-9.3,0-16.8-7.5-16.8-16.8c0-9.3,7.5-16.8,16.8-16.8c9.2,0,16.7,7.5,16.7,16.8
				C192,341.4,184.5,348.9,175.3,348.9"/>
			<path fill="#FFFFFF" d="M301.8,348.9c-9.2,0-16.7-7.5-16.7-16.8c0-9.3,7.5-16.8,16.7-16.8c9.3,0,16.8,7.5,16.8,16.8
				C318.5,341.4,311,348.9,301.8,348.9"/>
		</g>
	</g>
	<path id="hair_1_" fill="#382800" d="M413.1,368.4c5.1-65.9-55.6-136.1-145.1-136.1c-32.2,0-100.7,19.4-105.6,49.4
		c-11.9-2.6-29.8,5.7-33.3,27.9c15.7-12.2,37.3-11,37.3-11c30.1-34.4,154.2-29.5,180.7,47c2.5,7.2,9,34.4-3.3,42.3
		c-16.6,10-19.4-17.9-19.4-17.9s-20.7,50.5,31.6,58.8C408.2,436.9,413.1,368.4,413.1,368.4z"/>
</g>
</svg>
