<?xml version="1.0" encoding="utf-8"?>
<!-- Generator: Adobe Illustrator 18.0.0, SVG Export Plug-In . SVG Version: 6.00 Build 0)  -->
<!DOCTYPE svg PUBLIC "-//W3C//DTD SVG 1.1//EN" "http://www.w3.org/Graphics/SVG/1.1/DTD/svg11.dtd">
<svg version="1.1" id="content" xmlns="http://www.w3.org/2000/svg" xmlns:xlink="http://www.w3.org/1999/xlink" x="0px" y="0px"
	 width="500px" height="500px" viewBox="0 0 500 500" enable-background="new 0 0 500 500" xml:space="preserve">
<rect id="position" display="none" fill="none" stroke="#000000" width="500" height="500"/>
<path id="hair" fill="#382800" d="M139.3,211.5c0,0-0.1-0.1-0.1-0.1C139.3,211.4,139.3,211.5,139.3,211.5z M373.5,139.9
	c-0.1-0.4-0.2-0.8-0.3-1.1c-0.4-1.3-0.6-2-0.6-2c-22-59.2-69.2-61.7-69.2-61.7s-4.3-29.5-59.8-29.5c-98.8,0-122.9,102.3-122.9,102.3
	s3.3-4.8,6.4-8.9c-13.2,24.6-0.1,54.6,12.3,72.5c-0.8-1.6-6.4-21.3-6.4-21.3s4.8,22.2,25.3,27.8c0,0-13-8.1-11.2-17.5
	c6.9,14.9,25.3,18.7,25.3,18.7s-9.1-5.8-13.5-17.4c0,0,10.2,9.3,20.2,11.3c0,0-25.5-29-15-61c36.6-96.7,133.6-68.5,133.6-68.5
	c5.7,2.7,37.1,23.8,43.9,54.9c4.7,21.6,2.4,57.8-13.5,77c11.9-5.8,24.7-22.1,24.7-22.1s-2.9,5.9-7.5,14.2
	c5.6-4.5,11.8-13.3,11.8-13.3s0.4,0.9-1.8,9.1c0.3-0.5,10.3-14.4,16-31.5c0.8,4.4,1.5,10.3,0.8,16.8
	C380,168.4,375.6,147.6,373.5,139.9z"/>
<g id="bounds_1_" display="none">
	
		<rect x="95.3" y="-20.7" display="inline" fill="none" stroke="#000000" stroke-width="1.1995" stroke-miterlimit="10" width="309.4" height="309.4"/>
</g>
</svg>
