<?xml version="1.0" encoding="utf-8"?>
<!-- Generator: Adobe Illustrator 18.0.0, SVG Export Plug-In . SVG Version: 6.00 Build 0)  -->
<!DOCTYPE svg PUBLIC "-//W3C//DTD SVG 1.1//EN" "http://www.w3.org/Graphics/SVG/1.1/DTD/svg11.dtd">
<svg version="1.1" id="content" xmlns="http://www.w3.org/2000/svg" xmlns:xlink="http://www.w3.org/1999/xlink" x="0px" y="0px"
	 width="500px" height="500px" viewBox="0 0 500 500" enable-background="new 0 0 500 500" xml:space="preserve">
<rect id="position" display="none" fill="none" stroke="#000000" width="500" height="500"/>
<path id="hair_2_" fill="#382800" d="M248.8,221.5c13.7-2.7,13.4-17.6,13.4-17.6s8.7,5.7,4.8,16c15.7-4.9,23.7-21.7,23.7-21.7
	s8.8,6.3-0.7,22.4c22.7-3.9,27.6-20.7,27.6-20.7c8.3,11.6-11.9,22.4-11.9,22.4S369,220.1,369,171c0-20.2-3.1-26.8-3.1-26.8H140.4
	c0,0,1.9,51.4,58.1,74.8c-10.7-12.3-10.9-17.3-10.9-17.3s15.2,18.9,31.6,20.5c-8.6-10.9-4-17.2-4-17.2s8.2,14.7,24.2,13.7
	c-9.6-3.6-8.5-16.5-8.5-16.5C237.4,201.4,255.5,210.5,248.8,221.5z"/>
<g id="bounds_1_" display="none">
	
		<rect x="95.3" y="-20.7" display="inline" fill="none" stroke="#000000" stroke-width="1.1995" stroke-miterlimit="10" width="309.4" height="309.4"/>
</g>
</svg>
