<?xml version="1.0" encoding="utf-8"?>
<!-- Generator: Adobe Illustrator 18.0.0, SVG Export Plug-In . SVG Version: 6.00 Build 0)  -->
<!DOCTYPE svg PUBLIC "-//W3C//DTD SVG 1.1//EN" "http://www.w3.org/Graphics/SVG/1.1/DTD/svg11.dtd">
<svg version="1.1" id="content" xmlns="http://www.w3.org/2000/svg" xmlns:xlink="http://www.w3.org/1999/xlink" x="0px" y="0px"
	 width="500px" height="500px" viewBox="0 0 500 500" enable-background="new 0 0 500 500" xml:space="preserve">
<rect id="position" display="none" fill="none" stroke="#000000" width="500" height="500"/>
<g id="bounds" display="none">
	<rect x="0.2" y="80.2" display="inline" fill="none" stroke="#EAEAEA" stroke-miterlimit="10" width="499.5" height="499.5"/>
</g>
<g>
	<path id="hair_1_" fill="#382800" d="M417.6,327.9c4.3,0.3,12.5,1.3,19.8,6C425.3,315.1,405,292,405,292c3.4,0.7,7.3,0.7,11.1,0.4
		c-10.4-10-21.6-21.9-33.8-30c-21.6-14.4-46.4-26.6-70.5-35.8c-5-1.8-10.5-2.4-15.3-4.9c3.2-1.8,6.3-4.1,9.4-6.2
		c-18.9-4.1-39-1-57.4,4.1c-9.3,2.5-18.1,6-27.1,9.4c-8.4,3.1-24.8,11.6-24.8,11.6s-11.4-5.2-25.1-4.9c-13.7,0.3-18.8,3.1-28.2,6.2
		c-18.7,6.3-35.5,19.6-45.6,36.3c4.1-2.1,8.4-2.9,12.3-4.5c-14.9,17.4-31.1,30.6-39.4,53c1.3-3.4,9.8-6.6,13-7.4
		c-9.4,14.2-11.9,36.5-8.4,53c1.8-2,3.5-4.1,5.7-5.5c0.7,12.1,5.7,23.1,7.7,34.9c2.2-2.4,4.8-4.8,7-7.2c3.8,3.1,7,6.9,10.5,10.2
		c5.5,5.3,14.6,12.6,21.7,15.1c2.1-5.3-0.1-12.1,2.4-17.8c7,4.6,13.2,12.3,20.3,17.5c9.3,6.7,19.2,10,29.2,15.1
		c-0.7-3.4-2.7-9-2.1-12.3l24.3,12.5c0.4-12.3,10.4-17.2,10.4-17.2l6.3,16c15-4.2,29.7-12.2,43.3-20.1c-1,6.9-6.2,13.6-9,20.1
		c14.9-2.2,29.6-8,43.5-14.3c4.2-2,8.3-3.9,12.3-5.9c-0.6,12.2-4.6,23-9.8,34.1c14-5.9,26.5-12.3,38.4-20.1
		c12.2-7.9,30.9-18.7,37.9-31.6c2.2,6.9,3.4,16,4.2,23.8c10.5-6,18.9-17.2,24.8-27.3c3.1,3.8,4.5,8.1,6.7,12.3
		c5.3-14.4,7.4-32.1,9.1-47.3c5.9,2,17.1,0.3,20.3-2.5C429.4,346.7,422.5,337.6,417.6,327.9z"/>
	<g>
		<path fill="#C9C8CE" d="M322.7,260.9l28.3-41.1c1.7-2.4,1.3-5.6-0.9-7.2c-2.2-1.5-5.3-0.8-7,1.7L313.6,257
			c-19.4-7.6-40.9-11.9-63.5-11.9s-44.2,4.2-63.5,11.9l-29.4-42.6c-1.7-2.4-4.8-3.2-7-1.7c-2.2,1.5-2.6,4.7-0.9,7.2l28.3,41.1
			c-45,20.9-76.5,60.7-80.5,107.1h306.2C399.2,321.5,367.6,281.8,322.7,260.9"/>
		<g>
			<path fill="#FFFFFF" d="M186.1,325.6c-9.4,0-16.9-7.6-16.9-16.9c0-9.4,7.6-16.9,16.9-16.9c9.4,0,16.9,7.6,16.9,16.9
				C203.1,318,195.5,325.6,186.1,325.6"/>
			<path fill="#FFFFFF" d="M314,325.6c-9.4,0-16.9-7.6-16.9-16.9c0-9.4,7.6-16.9,16.9-16.9c9.4,0,16.9,7.6,16.9,16.9
				C331,318,323.4,325.6,314,325.6"/>
		</g>
	</g>
	<path id="hair" fill="#382800" d="M192.8,266.2c0,0,8,26.4,37.2,45.9c-2.1-9.1,0-13.7,0-13.7s12.1,32.8,48.7,41.2
		c-2.1-7.4-2.4-9.7-2.4-9.7s16.4,21.9,70.7,28.6c-4.6-6.2-7.9-12.8-7.9-12.8s15,12.5,63.2,14.7c0-16.4-25.8-94.5-91.7-113.5
		c-25.7-6.6-111.8-29.2-182.2,38.8c-3.6,3.5-23.7,28.6-26.4,57.1c18.4-12.9,43.8-40,43.8-40l4.2,5.6
		C150,308.7,174.8,299.4,192.8,266.2z"/>
</g>
</svg>
