<?xml version="1.0" encoding="utf-8"?>
<!-- Generator: Adobe Illustrator 18.0.0, SVG Export Plug-In . SVG Version: 6.00 Build 0)  -->
<!DOCTYPE svg PUBLIC "-//W3C//DTD SVG 1.1//EN" "http://www.w3.org/Graphics/SVG/1.1/DTD/svg11.dtd">
<svg version="1.1" id="content" xmlns="http://www.w3.org/2000/svg" xmlns:xlink="http://www.w3.org/1999/xlink" x="0px" y="0px"
	 width="500px" height="500px" viewBox="0 0 500 500" enable-background="new 0 0 500 500" xml:space="preserve">
<rect id="position" display="none" fill="none" stroke="#000000" width="500" height="500"/>
<path id="hair_1_" fill="#382800" d="M369,131.1c3.1,0.2,8.9,0.9,14.1,4.3c-8.6-13.4-23.1-29.9-23.1-29.9c2.4,0.5,5.2,0.5,7.9,0.3
	c-7.4-7.1-15.4-15.6-24.1-21.4c-15.4-10.3-33.1-19-50.3-25.5c-3.6-1.3-7.5-1.7-10.9-3.5c2.3-1.3,4.5-2.9,6.7-4.4
	c-13.5-2.9-27.8-0.7-40.9,2.9c-6.6,1.8-12.9,4.3-19.3,6.7c-6,2.2-17.7,8.3-17.7,8.3s-8.1-3.7-17.9-3.5s-13.4,2.2-20.1,4.4
	c-13.3,4.5-25.3,14-32.5,25.9c2.9-1.5,6-2.1,8.8-3.2c-10.6,12.4-22.2,21.8-28.1,37.8c0.9-2.4,7-4.7,9.3-5.3c-6.7,10.1-8.5,26-6,37.8
	c1.3-1.4,2.5-2.9,4.1-3.9c0.5,8.6,4.1,16.5,5.5,24.9c1.6-1.7,3.4-3.4,5-5.1c2.7,2.2,5,4.9,7.5,7.3c3.9,3.8,10.4,9,15.5,10.8
	c1.5-3.8-0.1-8.6,1.7-12.7c5,3.3,9.4,8.8,14.5,12.5c6.6,4.8,13.7,7.1,20.8,10.8c-0.5-2.4-1.9-6.4-1.5-8.8l17.3,8.9
	c0.3-8.8,7.4-12.3,7.4-12.3l4.5,11.4c10.7-3,21.2-8.7,30.9-14.3c-0.7,4.9-4.4,9.7-6.4,14.3c10.6-1.6,21.1-5.7,31-10.2
	c3-1.4,5.9-2.8,8.8-4.2c-0.4,8.7-3.3,16.4-7,24.3c10-4.2,18.9-8.8,27.4-14.3c8.7-5.6,22-13.3,27-22.5c1.6,4.9,2.4,11.4,3,17
	c7.5-4.3,13.5-12.3,17.7-19.5c2.2,2.7,3.2,5.8,4.8,8.8c3.8-10.3,5.3-22.9,6.5-33.7c4.2,1.4,12.2,0.2,14.5-1.8
	C377.4,144.5,372.5,138,369,131.1z"/>
<g id="bounds_2_" display="none">
	
		<rect x="98.1" y="-22.1" display="inline" fill="none" stroke="#000000" stroke-width="1.1773" stroke-miterlimit="10" width="303.7" height="303.7"/>
</g>
</svg>
