<?xml version="1.0" encoding="utf-8"?>
<!-- Generator: Adobe Illustrator 18.0.0, SVG Export Plug-In . SVG Version: 6.00 Build 0)  -->
<!DOCTYPE svg PUBLIC "-//W3C//DTD SVG 1.1//EN" "http://www.w3.org/Graphics/SVG/1.1/DTD/svg11.dtd">
<svg version="1.1" id="content" xmlns="http://www.w3.org/2000/svg" xmlns:xlink="http://www.w3.org/1999/xlink" x="0px" y="0px"
	 width="500px" height="500px" viewBox="0 0 500 500" enable-background="new 0 0 500 500" xml:space="preserve">
<rect id="position" display="none" fill="none" stroke="#000000" width="500" height="500"/>
<g id="bounds" display="none">
	<rect x="0.2" y="80.2" display="inline" fill="none" stroke="#EAEAEA" stroke-miterlimit="10" width="499.5" height="499.5"/>
</g>
<g>
	<g>
		<path fill="#C9C8CE" d="M322.6,300.9l28.3-41.1c1.7-2.4,1.3-5.6-0.9-7.2c-2.2-1.5-5.3-0.8-7,1.7L313.6,297
			c-19.4-7.6-40.9-11.9-63.6-11.9s-44.2,4.2-63.6,11.9L157,254.3c-1.7-2.4-4.8-3.2-7-1.7c-2.2,1.5-2.6,4.7-0.9,7.2l28.3,41.1
			c-45,20.9-76.6,60.7-80.6,107.1h306.4C399.2,361.6,367.6,321.8,322.6,300.9"/>
		<g>
			<path fill="#FFFFFF" d="M186,365.6c-9.4,0-17-7.6-17-17c0-9.4,7.6-17,17-17c9.4,0,16.9,7.6,16.9,17
				C202.9,358,195.4,365.6,186,365.6"/>
			<path fill="#FFFFFF" d="M314,365.6c-9.4,0-16.9-7.6-16.9-17c0-9.4,7.6-17,16.9-17c9.4,0,17,7.6,17,17
				C331,358,323.4,365.6,314,365.6"/>
		</g>
	</g>
	<g id="hair">
		<path fill="#382800" d="M192.7,306.2c0,0,8,26.4,37.2,45.9c-2.1-9.1,0-13.8,0-13.8s12.1,32.8,48.7,41.3c-2.1-7.4-2.4-9.7-2.4-9.7
			s16.4,21.9,70.7,28.6c-4.6-6.2-7.9-12.8-7.9-12.8s15,12.5,63.3,14.7c0-16.4-25.8-94.6-91.8-113.5c-25.7-6.6-111.9-29.2-182.3,38.9
			c-3.6,3.5-23.7,28.6-26.4,57.1c18.4-12.9,43.8-40,43.8-40l4.2,5.6C149.8,348.7,174.7,339.5,192.7,306.2z"/>
	</g>
</g>
</svg>
