<?xml version="1.0" encoding="utf-8"?>
<!-- Generator: Adobe Illustrator 18.0.0, SVG Export Plug-In . SVG Version: 6.00 Build 0)  -->
<!DOCTYPE svg PUBLIC "-//W3C//DTD SVG 1.1//EN" "http://www.w3.org/Graphics/SVG/1.1/DTD/svg11.dtd">
<svg version="1.1" id="content" xmlns="http://www.w3.org/2000/svg" xmlns:xlink="http://www.w3.org/1999/xlink" x="0px" y="0px"
	 width="500px" height="500px" viewBox="0 0 500 500" enable-background="new 0 0 500 500" xml:space="preserve">
<rect id="position" display="none" fill="none" stroke="#000000" width="500" height="500"/>
<g id="hair">
	<path fill="#382800" d="M208.7,87.1c0,0,5.7,18.8,26.5,32.7c-1.5-6.5,0-9.8,0-9.8s8.6,23.4,34.7,29.4c-1.5-5.3-1.7-6.9-1.7-6.9
		s11.7,15.6,50.4,20.4c-3.3-4.4-5.6-9.1-5.6-9.1s10.7,8.9,45.1,10.5c0-11.7-18.4-67.4-65.4-80.9c-18.3-4.7-79.7-20.8-129.9,27.7
		c-2.6,2.5-16.9,20.4-18.8,40.7c13.1-9.2,31.2-28.5,31.2-28.5l3,4C178.2,117.4,195.9,110.8,208.7,87.1z"/>
</g>
<g id="bounds" display="none">
	
		<rect x="120.7" y="-23.4" display="inline" fill="none" stroke="#000000" stroke-width="0.9871" stroke-miterlimit="10" width="254.7" height="254.7"/>
</g>
</svg>
