<?xml version="1.0" encoding="utf-8"?>
<!-- Generator: Adobe Illustrator 18.0.0, SVG Export Plug-In . SVG Version: 6.00 Build 0)  -->
<!DOCTYPE svg PUBLIC "-//W3C//DTD SVG 1.1//EN" "http://www.w3.org/Graphics/SVG/1.1/DTD/svg11.dtd">
<svg version="1.1" id="content" xmlns="http://www.w3.org/2000/svg" xmlns:xlink="http://www.w3.org/1999/xlink" x="0px" y="0px"
	 width="500px" height="500px" viewBox="0 0 500 500" enable-background="new 0 0 500 500" xml:space="preserve">
<rect id="position" display="none" fill="none" stroke="#000000" width="500" height="500"/>
<g id="bounds" display="none">
	<rect x="0.2" y="80.2" display="inline" fill="none" stroke="#EAEAEA" stroke-miterlimit="10" width="499.5" height="499.5"/>
</g>
<g>
	<g>
		<path fill="#C9C8CE" d="M326.7,292.4l28.7-41.7c1.7-2.5,1.3-5.7-0.9-7.3c-2.2-1.5-5.4-0.8-7.1,1.7l-29.8,43.3
			c-19.7-7.7-41.5-12.1-64.5-12.1c-23,0-44.8,4.3-64.5,12.1l-29.8-43.3c-1.7-2.5-4.9-3.2-7.1-1.7c-2.2,1.5-2.6,4.8-0.9,7.3
			l28.7,41.7c-45.6,21.2-77.6,61.6-81.7,108.7h310.8C404.3,354,372.3,313.7,326.7,292.4"/>
		<g>
			<path fill="#FFFFFF" d="M188.1,358.1c-9.5,0-17.2-7.7-17.2-17.2c0-9.5,7.7-17.2,17.2-17.2c9.5,0,17.2,7.7,17.2,17.2
				C205.3,350.4,197.6,358.1,188.1,358.1"/>
			<path fill="#FFFFFF" d="M317.9,358.1c-9.5,0-17.2-7.7-17.2-17.2c0-9.5,7.7-17.2,17.2-17.2c9.5,0,17.2,7.7,17.2,17.2
				C335.1,350.4,327.4,358.1,317.9,358.1"/>
		</g>
	</g>
	<path id="hair" fill="#382800" d="M432.3,379.3c-4-66.6-53-93-53-93s8.3,0.1,21.5,8.8c-28.6-33.5-78-35.2-78-35.2
		c-46.3-44.4-108.8-36.7-141.9-24.6c0,0,33.9-1.9,51.8-0.1C128.5,247.6,99.1,288.6,97.6,291c0,0,17.5-10.5,32.9-13.5
		c-71.9,40-65.9,104.6-60.1,133.2c0-7.5,5.7-14.1,11.8-15.7C81,410.9,83,423,91.8,432.7c-3.3-14.2,3.7-19.2,3.7-19.2
		s2.8,8.5,13.4,9.3c-8.5-9.1-5.6-15.5-5.6-15.5s9,5.8,16.8,5.7c-10.1-11-0.6-40.4-0.6-40.4s4.6,9.4,4.1,21.4
		c12.1-19.5,12.5-48.8,12.7-52.4c2.3,3.3,6.7,11.4,6.1,24.6c-0.1,1-0.3,2-0.4,3.1c0.1-0.1,0.1-0.3,0.3-0.4c-0.1,1.9-0.4,3.8-0.9,6
		c18.1-26.9,21.6-56.4,22.3-69.2c10.1,3.8,35,0.6,35,0.6s-11.2,4.6-24.6,7.5c-0.3,0-0.6,0.1-0.9,0.1c-0.7,0.1-1.6,0.3-2.3,0.4
		c0,0,26.3,15.7,57.5,5.6c4.6-1,9-3.1,13.1-5.6l0,0c8-4.8,14.8-11.2,19.8-16.8c0.6,3.4,1.7,19.8-20.2,36.2
		c32.7-10,45.3-36.9,45.3-36.9s10-9.1,33.2,2c23.2,11.1,37.9,63.1,37.9,63.1s6.3-12.4,2.4-27.3c7,5.3,11.4,33.2,12.7,65.8
		c11.1-10,10.5-19.6,10.5-19.6s6.5,8.3,3.3,38.6c30-9.5,28.3-38.3,28.3-38.3s4,10.4,1,20.4c19.2-12.2,7-36.3,7-36.3
		S429.3,370.2,432.3,379.3z"/>
</g>
</svg>
