<?xml version="1.0" encoding="utf-8"?>
<!-- Generator: Adobe Illustrator 18.0.0, SVG Export Plug-In . SVG Version: 6.00 Build 0)  -->
<!DOCTYPE svg PUBLIC "-//W3C//DTD SVG 1.1//EN" "http://www.w3.org/Graphics/SVG/1.1/DTD/svg11.dtd">
<svg version="1.1" id="content" xmlns="http://www.w3.org/2000/svg" xmlns:xlink="http://www.w3.org/1999/xlink" x="0px" y="0px"
	 width="500px" height="500px" viewBox="0 0 500 500" enable-background="new 0 0 500 500" xml:space="preserve">
<rect id="position" display="none" fill="none" stroke="#000000" width="500" height="500"/>
<path id="hair_1_" fill="#382800" d="M382.3,193.4c-0.8-7.2-2-14.5-3.9-21.5c-1.5-5.7-2.7-11-4.8-16.5c-1.6-4.2-4.1-16.1-8.7-18.2
	c2.9,1.3,6.2,2.2,9.2,2.6c-3.4-4.2-7.5-7.7-10.7-12.3c-4-5.8-7.9-11.6-12-17.3c-5.2-7.3-10.3-15.2-17-21.3c-4.3-3.9-8.9-7.2-13.3-11
	c-18.2-15.8-47.7-23.7-71.4-23.2c-23.8-0.5-53.2,7.4-71.4,23.2c-4.4,3.8-9,7.2-13.3,11c-6.7,6.1-11.8,14-17,21.3
	c-4,5.7-7.9,11.5-12,17.3c-3.3,4.6-7.3,8.1-10.7,12.3c3-0.4,6.2-1.4,9.2-2.6c-4.6,2.1-7.1,14-8.7,18.2c-2.1,5.5-3.3,10.8-4.8,16.5
	c-1.8,7-3.1,14.3-3.9,21.5c-1.1,10.1-1.7,20.8-0.9,31.1c2.2-3.8,2.7-8.3,4.8-12.1c0,0,2.4,24.9,15.5,38.9c-1.9-7-2.3-12.2-2.3-12.2
	c0.4,4.8,6.5,10.9,9.5,14.1c10.8,11.5,24.7,18.2,38.9,24.3c-3.9-3.1-7-7.1-9.5-11.4c5.5,4.4,12.7,8.1,19.2,10.9
	c7.2,3,15.3,3.9,22.6,5.9c-3.7-1.8-7.1-5.7-9.3-9c-0.7-1.1-1.7-2.8-2.5-3.5c2.3,0.7,4.1,2.9,5.9,4.2c6.9,4.8,12.9,9.2,21,11.7
	c-2.8-2.4-5.8-5.3-7.3-8.7c4.2,0.6,8.4,3.6,12.3,5.1c3.4,1.4,7.1,2.9,10.6,3.7c-0.9-1.5-2.1-3.6-2-5.4c2.2,0.7,4,2.6,6,3.8
	c2-1.2,3.8-3.1,6-3.8c0.1,1.8-1,3.9-2,5.4c3.5-0.8,7.2-2.3,10.6-3.7c3.9-1.6,8.2-4.5,12.3-5.1c-1.5,3.4-4.5,6.3-7.3,8.7
	c8.1-2.5,14.2-6.9,21-11.7c1.9-1.3,3.7-3.6,5.9-4.2c-0.8,0.8-1.7,2.4-2.5,3.5c-2.2,3.3-5.7,7.2-9.3,9c7.4-2,15.4-2.8,22.6-5.9
	c6.5-2.7,13.7-6.5,19.2-10.9c-2.5,4.4-5.6,8.3-9.5,11.4c14.2-6.1,28.1-12.8,38.9-24.3c2.9-3.1,9.1-9.3,9.5-14.1
	c0,0-0.4,5.3-2.3,12.2c13.1-14,15.5-38.9,15.5-38.9c2.1,3.8,2.7,8.3,4.8,12.1C383.9,214.2,383.3,203.5,382.3,193.4z"/>
<g id="bounds_3_" display="none">
	
		<rect x="66.4" y="-14.9" display="inline" fill="none" stroke="#000000" stroke-width="1.4157" stroke-miterlimit="10" width="365.2" height="365.2"/>
</g>
</svg>
