<?xml version="1.0" encoding="utf-8"?>
<!-- Generator: Adobe Illustrator 18.0.0, SVG Export Plug-In . SVG Version: 6.00 Build 0)  -->
<!DOCTYPE svg PUBLIC "-//W3C//DTD SVG 1.1//EN" "http://www.w3.org/Graphics/SVG/1.1/DTD/svg11.dtd">
<svg version="1.1" id="content" xmlns="http://www.w3.org/2000/svg" xmlns:xlink="http://www.w3.org/1999/xlink" x="0px" y="0px"
	 width="500px" height="500px" viewBox="0 0 500 500" enable-background="new 0 0 500 500" xml:space="preserve">
<rect id="position" display="none" fill="none" stroke="#000000" width="500" height="500"/>
<g id="bounds" display="none">
	<rect x="0.2" y="80.2" display="inline" fill="none" stroke="#EAEAEA" stroke-miterlimit="10" width="499.5" height="499.5"/>
</g>
<g>
	<path id="hair_2_" fill="#382800" d="M406.8,360.8c-0.9-8.5-2.4-17.1-4.6-25.4c-1.8-6.7-3.2-13-5.7-19.5c-1.9-5-4.8-19-10.3-21.5
		c3.4,1.5,7.3,2.6,10.9,3.1c-4-5-8.9-9.1-12.6-14.5c-4.7-6.9-9.3-13.7-14.2-20.4c-6.1-8.6-12.2-18-20.1-25.2
		c-5.1-4.6-10.5-8.5-15.7-13c-21.5-18.7-56.4-28-84.4-27.4c-28.1-0.6-62.9,8.7-84.4,27.4c-5.2,4.5-10.6,8.5-15.7,13
		c-7.9,7.2-13.9,16.5-20.1,25.2c-4.7,6.7-9.3,13.6-14.2,20.4c-3.9,5.4-8.6,9.6-12.6,14.5c3.5-0.5,7.3-1.7,10.9-3.1
		c-5.4,2.5-8.4,16.5-10.3,21.5c-2.5,6.5-3.9,12.8-5.7,19.5c-2.1,8.3-3.7,16.9-4.6,25.4c-1.3,11.9-2,24.6-1.1,36.8
		c2.6-4.5,3.2-9.8,5.7-14.3c0,0,2.8,29.4,18.3,46c-2.2-8.3-2.7-14.4-2.7-14.4c0.5,5.7,7.7,12.9,11.2,16.7
		c12.8,13.6,29.2,21.5,46,28.7c-4.6-3.7-8.3-8.4-11.2-13.5c6.5,5.2,15,9.6,22.7,12.9c8.5,3.5,18.1,4.6,26.7,7
		c-4.4-2.1-8.4-6.7-11-10.6c-0.8-1.3-2-3.3-3-4.1c2.7,0.8,4.8,3.4,7,5c8.2,5.7,15.2,10.9,24.8,13.8c-3.3-2.8-6.9-6.3-8.6-10.3
		c5,0.7,9.9,4.3,14.5,6c4,1.7,8.4,3.4,12.5,4.4c-1.1-1.8-2.5-4.3-2.4-6.4c2.6,0.8,4.7,3.1,7.1,4.5c2.4-1.4,4.5-3.7,7.1-4.5
		c0.1,2.1-1.2,4.6-2.4,6.4c4.1-0.9,8.5-2.7,12.5-4.4c4.6-1.9,9.7-5.3,14.5-6c-1.8,4-5.3,7.4-8.6,10.3c9.6-3,16.8-8.2,24.8-13.8
		c2.2-1.5,4.4-4.3,7-5c-0.9,0.9-2,2.8-3,4.1c-2.6,3.9-6.7,8.5-11,10.6c8.7-2.4,18.2-3.3,26.7-7c7.7-3.2,16.2-7.7,22.7-12.9
		c-3,5.2-6.6,9.8-11.2,13.5c16.8-7.2,33.2-15.1,46-28.7c3.4-3.7,10.8-11,11.2-16.7c0,0-0.5,6.3-2.7,14.4c15.5-16.5,18.3-46,18.3-46
		c2.5,4.5,3.2,9.8,5.7,14.3C408.7,385.4,408,372.7,406.8,360.8z"/>
	<g>
		<path fill="#C9C8CE" d="M311.1,230.6l23.8-34.6c1.4-2.1,1.1-4.8-0.8-6c-1.8-1.3-4.5-0.6-5.9,1.4l-24.8,35.9
			c-16.3-6.4-34.4-10-53.5-10s-37.2,3.6-53.5,10l-24.8-35.9c-1.4-2.1-4.1-2.7-5.9-1.4c-1.8,1.3-2.2,4-0.8,6l23.8,34.6
			c-37.9,17.6-64.5,51.1-67.9,90.2h258.1C375.5,281.8,349,248.3,311.1,230.6"/>
		<g>
			<path fill="#FFFFFF" d="M196,285.2c-7.9,0-14.3-6.4-14.3-14.3c0-7.9,6.4-14.3,14.3-14.3c7.9,0,14.3,6.4,14.3,14.3
				C210.3,278.8,203.9,285.2,196,285.2"/>
			<path fill="#FFFFFF" d="M303.8,285.2c-7.9,0-14.3-6.4-14.3-14.3c0-7.9,6.4-14.3,14.3-14.3c7.9,0,14.3,6.4,14.3,14.3
				C318.1,278.8,311.7,285.2,303.8,285.2"/>
		</g>
	</g>
	<path id="hair_1_" fill="#382800" d="M154.4,322.2c-10-5.9-7.9-17.1-5.6-22.5c2,2.5,9,9.6,14.5,12.3c-9-16.8-4.3-38.9,9-52
		c3.2-3.1,7-5.9,10.9-7.9c6.9-3.7,14.1-6.4,21.7-7.6c18.6-2.8,70.2,14.8,92.9,0.6c1.9-1.2,7-4.4,6.7-7.3c1.4,18,22.3,21,34.5,29.1
		c2.1,1.4,4,3.2,5.9,5c4.1,4,7.9,8.3,10,13.7c2.7,7,3.7,14.7,3.7,22.1c0,5.2-0.9,9.7-1.9,14.7c-0.1,0.5-0.4,0.9-0.6,1.3
		c3.1,0.6,6,0.8,9.1,0.8c2.6,0,5.2,0.4,7.7,0.5c1.7,0.1,3.7,0.8,5.1,0c2.5-1.3,2.8-4.7,2.8-7.1c-0.1-6-2.7-11.7-4.4-17.3
		c-2.8-9.1-7-17.8-11.7-26.2c-10.2-17.7-23.8-34.2-40.7-45.7c-18.3-12.5-39-19.1-61.1-19.7c-12.9-0.4-25.8,1.1-38.4,3.1
		c-12.9,2.1-26.5,4.6-38.5,10c-5.1,2.4-10,5-14.9,7.7c-11.6,6.4-20.6,13.4-29,23.5c-3,3.7-5.8,7.4-8.4,11.3
		c-3.4,5.2-6.5,10.5-9.1,16.2c-1.5,3.4-1.9,7.6-2.7,11.2c-0.9,4.3-1.4,8.3-1.8,12.6c-0.4,4.6-3.2,9.8-1.3,14.3
		c1.8,4.3,6.7,4,10.5,3.8C138,322.5,146.3,323.4,154.4,322.2z"/>
</g>
</svg>
