<?xml version="1.0" encoding="utf-8"?>
<!-- Generator: Adobe Illustrator 18.0.0, SVG Export Plug-In . SVG Version: 6.00 Build 0)  -->
<!DOCTYPE svg PUBLIC "-//W3C//DTD SVG 1.1//EN" "http://www.w3.org/Graphics/SVG/1.1/DTD/svg11.dtd">
<svg version="1.1" id="content" xmlns="http://www.w3.org/2000/svg" xmlns:xlink="http://www.w3.org/1999/xlink" x="0px" y="0px"
	 width="500px" height="500px" viewBox="0 0 500 500" enable-background="new 0 0 500 500" xml:space="preserve">
<rect id="position" display="none" fill="none" stroke="#000000" width="500" height="500"/>
<g id="bounds" display="none">
	<rect x="0.2" y="80.2" display="inline" fill="none" stroke="#EAEAEA" stroke-miterlimit="10" width="499.5" height="499.5"/>
</g>
<g>
	<path id="hair" fill="#382800" d="M250.8,166.6c0,0-19.9,1.7-37.2,25.4s-20.6,27.1-49.8,26.9c-29.2-0.1-55.2,20.6-62.8,40
		c-7.5,19.4-1.9,37.6,9.2,55.6c11.1,17.9,0.9,31.2-5.5,36.8c-6.4,5.5-19.2,24-6.4,47.3c6.6,13.5,13.1,8.6,15.3,20.3
		c2.2,11.6-19.7,45.4,27.9,63.3c17,6.4,33.3,12.4,51.1,4c8.1-3.8,17.3-8.1,26.2-5.2c10.5,3.4,18.7,13.8,30.9,12
		c13.7-2.2,22.5-16.3,35.8-18.8c6.9-1.3,13.7,1.7,20,4c8.3,3.1,16.9,5.1,25.6,2.2c8.6-2.8,14.7-7.4,22-12.3
		c3.2-2.1,6.5-3.8,10.1-5.2c4.5-1.9,9.4-2.9,13.4-5.6c3.7-2.4,7.1-5.4,10.1-8.6c5.6-6.1,10-13.3,12.6-21.1
		c3.9-11.6,4.5-28.1-7.2-35.5c-21.4-13.6,17.7-28,14.4-59.4c-3.3-31.4-21.1-19-12.6-60.3c7.7-34.7-18.7-52.6-56.7-51
		c-31.3,0.8-35.4-22.3-35.4-22.3C292.7,160.6,250.8,166.6,250.8,166.6z"/>
	<g>
		<path fill="#C9C8CE" d="M310,235.2l22.3-32.4c1.3-1.9,1-4.5-0.7-5.7c-1.7-1.2-4.2-0.6-5.5,1.3l-23.2,33.7
			c-15.3-6-32.3-9.4-50.1-9.4c-17.9,0-34.9,3.4-50.2,9.4l-23.2-33.7c-1.3-1.9-3.8-2.5-5.5-1.3c-1.7,1.2-2.1,3.7-0.7,5.7l22.3,32.4
			c-35.5,16.5-60.4,47.9-63.6,84.5h241.7C370.3,283.1,345.4,251.7,310,235.2"/>
		<g>
			<path fill="#FFFFFF" d="M202.2,286.3c-7.4,0-13.4-6-13.4-13.4c0-7.4,6-13.4,13.4-13.4c7.4,0,13.4,6,13.4,13.4
				C215.5,280.3,209.6,286.3,202.2,286.3"/>
			<path fill="#FFFFFF" d="M303.1,286.3c-7.4,0-13.4-6-13.4-13.4c0-7.4,6-13.4,13.4-13.4c7.4,0,13.4,6,13.4,13.4
				C316.5,280.3,310.5,286.3,303.1,286.3"/>
		</g>
	</g>
	<path id="hair_3_" fill="#382800" d="M289.1,216.1c0,0-0.4,2.3,0,5.5c-13.4-5.1-44.5-13.8-84-4.1c-83,18-84.4,107.2-84.4,107.2
		s4.4,0,19.6,0c0-8.9,8.5-83.5,68.7-82.5c53.5,2.5,74.7-6.6,82.7-12.6c2.9,5.1,8.6,10.3,19.7,13.3c26.2,7,48.9,31,47.8,84
		c19.6,0,24.6,0,24.6,0S392,224.9,289.1,216.1z"/>
</g>
</svg>
