<?xml version="1.0" encoding="utf-8"?>
<!-- Generator: Adobe Illustrator 18.0.0, SVG Export Plug-In . SVG Version: 6.00 Build 0)  -->
<!DOCTYPE svg PUBLIC "-//W3C//DTD SVG 1.1//EN" "http://www.w3.org/Graphics/SVG/1.1/DTD/svg11.dtd">
<svg version="1.1" id="content" xmlns="http://www.w3.org/2000/svg" xmlns:xlink="http://www.w3.org/1999/xlink" x="0px" y="0px"
	 width="500px" height="500px" viewBox="0 0 500 500" enable-background="new 0 0 500 500" xml:space="preserve">
<rect id="position" display="none" fill="none" stroke="#000000" width="500" height="500"/>
<path id="har" fill="#382800" d="M378.4,190.3c0-0.2,0-0.5,0-0.7l0,0C376.9,109.1,320,44.3,249.8,44.3c-70.2-0.1-127.3,64.5-129,145
	h-0.1c-0.1,58.1,19.3,109.9,49.5,143.1l5.7-5.7l6.7,6.7l6.7-6.7l6.7,6.7l6.7-6.7l6.7,6.7l6.7-6.7l6.7,6.7l6.7-6.7l6.7,6.7l6.7-6.7
	l6.7,6.7l6.7-6.7l6.7,6.7l6.7-6.7l6.7,6.7l6.7-6.7l6.7,6.7l6.7-6.7l6.7,6.7l0,0l6.7-6.7l6.7,6.7h0.1l6.7-6.7l5.2,5.2
	c29.4-32.5,48.5-82.5,49.3-138.9h0.1C378.4,192,378.4,191.1,378.4,190.3z"/>
<g id="bounds_3_" display="none">
	
		<rect x="67.4" y="6.4" display="inline" fill="none" stroke="#000000" stroke-width="1.4157" stroke-miterlimit="10" width="365.2" height="365.2"/>
</g>
</svg>
