<?xml version="1.0" encoding="utf-8"?>
<!-- Generator: Adobe Illustrator 18.0.0, SVG Export Plug-In . SVG Version: 6.00 Build 0)  -->
<!DOCTYPE svg PUBLIC "-//W3C//DTD SVG 1.1//EN" "http://www.w3.org/Graphics/SVG/1.1/DTD/svg11.dtd">
<svg version="1.1" id="content" xmlns="http://www.w3.org/2000/svg" xmlns:xlink="http://www.w3.org/1999/xlink" x="0px" y="0px"
	 width="500px" height="500px" viewBox="0 0 500 500" enable-background="new 0 0 500 500" xml:space="preserve">
<path id="hair" fill="#382800" d="M357.2,149c-6.2-30.5-18.9-54-44.3-69.3C271,52.9,235.7,60,212.1,70.7
	c-45.4,2.7-68.8,59.9-68.8,59.9s3.3,14.8,6.8,20.1c-2.1-17,13.8-31.9,13.8-31.9s-4.2,12.2-0.5,20.7c5.8-48.1,58.5-58.4,58.5-58.4
	C216.9,99.3,243,108,243,108s-9.5-10.2-6.8-24.2c6.4,18,39.5,22,39.5,22s-8.5-5.7-9.2-17.9c0,0,9.1,11,27.1,14.4
	c-5.3-9-4.3-12.2-4.3-12.2s14.7,14.4,29.3,20.8c-4.5-8.8-4.1-11.2-4.1-11.2S344.7,111.1,357.2,149z"/>
<rect id="position" display="none" fill="none" stroke="#000000" width="500" height="500"/>
<g id="bounds_3_" display="none">
	
		<rect x="49" y="-1" display="inline" fill="none" stroke="#000000" stroke-width="1.558" stroke-miterlimit="10" width="401.9" height="401.9"/>
</g>
</svg>
