<?xml version="1.0" encoding="utf-8"?>
<!-- Generator: Adobe Illustrator 18.0.0, SVG Export Plug-In . SVG Version: 6.00 Build 0)  -->
<!DOCTYPE svg PUBLIC "-//W3C//DTD SVG 1.1//EN" "http://www.w3.org/Graphics/SVG/1.1/DTD/svg11.dtd">
<svg version="1.1" id="content" xmlns="http://www.w3.org/2000/svg" xmlns:xlink="http://www.w3.org/1999/xlink" x="0px" y="0px"
	 width="500px" height="500px" viewBox="0 0 500 500" enable-background="new 0 0 500 500" xml:space="preserve">
<rect id="position" display="none" fill="none" stroke="#000000" width="500" height="500"/>
<g id="bounds" display="none">
	<rect x="0.2" y="80.2" display="inline" fill="none" stroke="#EAEAEA" stroke-miterlimit="10" width="499.5" height="499.5"/>
</g>
<g>
	<path id="hair_3_" fill="#382800" d="M353.4,223c46.6,91.9,9.9,183,11.7,205.5c2.2,28,20.8,27.1,20.8,27.1s-30.3,25-56.3,1.6
		c0,17.3,33.5,23.6,33.5,23.6c-31.3,15.5-53.5,2.6-66-13.1c0.5,22,28.4,28.6,28.4,28.6s-41.4,13.8-81.6-25.6
		c-2.8,15,28.1,28.6,28.1,28.6c-154.8-8.8-163.3-106.9-155.4-214.8s67.9-119.6,85.6-112.9c13.2,5.1,11.8,12,11.8,12
		s29.3-32.3,70.2-17.9C302.9,172.2,334.2,185.6,353.4,223z"/>
	<g>
		<path fill="#C9C8CE" d="M293.7,195.8l20.2-29.3c1.2-1.7,0.9-4-0.7-5.1c-1.6-1.1-3.8-0.5-5,1.2l-21,30.4
			c-13.8-5.4-29.1-8.5-45.3-8.5s-31.5,3-45.3,8.5l-20.9-30.4c-1.2-1.7-3.4-2.3-5-1.2c-1.6,1.1-1.9,3.4-0.7,5.1l20.2,29.3
			c-32.1,14.9-54.5,43.3-57.4,76.3h218.3C348.3,239,325.8,210.7,293.7,195.8"/>
		<g>
			<path fill="#FFFFFF" d="M196.4,241.9c-6.7,0-12.1-5.4-12.1-12.1c0-6.7,5.4-12.1,12.1-12.1c6.7,0,12.1,5.4,12.1,12.1
				C208.4,236.5,203,241.9,196.4,241.9"/>
			<path fill="#FFFFFF" d="M287.6,241.9c-6.7,0-12.1-5.4-12.1-12.1c0-6.7,5.4-12.1,12.1-12.1c6.7,0,12.1,5.4,12.1,12.1
				C299.6,236.5,294.2,241.9,287.6,241.9"/>
		</g>
	</g>
	<g id="hair_1_">
		<path fill="#382800" d="M214,187.7c0,0,18.1,20.2,73.7,23.1c23.5,1.4,50,7,62.6,54.8C348.7,224,294.1,154.3,214,187.7z"/>
		<path fill="#382800" d="M214,187.7c0,0-69.1,22.3-71.7,87c-21.4,0-20.7,0-20.7,0S140.9,180.3,214,187.7z"/>
	</g>
</g>
</svg>
