<?xml version="1.0" encoding="utf-8"?>
<!-- Generator: Adobe Illustrator 18.0.0, SVG Export Plug-In . SVG Version: 6.00 Build 0)  -->
<!DOCTYPE svg PUBLIC "-//W3C//DTD SVG 1.1//EN" "http://www.w3.org/Graphics/SVG/1.1/DTD/svg11.dtd">
<svg version="1.1" id="content" xmlns="http://www.w3.org/2000/svg" xmlns:xlink="http://www.w3.org/1999/xlink" x="0px" y="0px"
	 width="500px" height="500px" viewBox="0 0 500 500" enable-background="new 0 0 500 500" xml:space="preserve">
<path id="hair" fill="#382800" d="M361,110.5c46.6,91.9,9.9,183,11.7,205.5c2.2,28,20.8,27.1,20.8,27.1s-30.3,25-56.3,1.6
	c0,17.3,33.5,23.6,33.5,23.6c-31.3,15.5-53.5,2.6-66-13.1c0.5,22,28.4,28.6,28.4,28.6s-41.4,13.8-81.6-25.6
	c-2.8,15,28.1,28.6,28.1,28.6C124.8,378,116.3,279.9,124.2,172c7.9-107.9,67.9-119.6,85.6-112.9c13.2,5.1,11.8,12,11.8,12
	s29.3-32.3,70.2-17.9C310.5,59.7,341.8,73.1,361,110.5z"/>
<rect id="position" display="none" fill="none" stroke="#000000" width="500" height="500"/>
<g id="bounds_3_" display="none">
	
		<rect x="58.5" y="27.2" display="inline" fill="none" stroke="#000000" stroke-width="1.4848" stroke-miterlimit="10" width="383.1" height="383.1"/>
</g>
</svg>
