<?xml version="1.0" encoding="utf-8"?>
<!-- Generator: Adobe Illustrator 18.0.0, SVG Export Plug-In . SVG Version: 6.00 Build 0)  -->
<!DOCTYPE svg PUBLIC "-//W3C//DTD SVG 1.1//EN" "http://www.w3.org/Graphics/SVG/1.1/DTD/svg11.dtd">
<svg version="1.1" id="content" xmlns="http://www.w3.org/2000/svg" xmlns:xlink="http://www.w3.org/1999/xlink" x="0px" y="0px"
	 width="500px" height="500px" viewBox="0 0 500 500" enable-background="new 0 0 500 500" xml:space="preserve">
<rect id="position" display="none" fill="none" stroke="#000000" width="500" height="500"/>
<g id="bounds" display="none">
	<rect x="0.2" y="80.2" display="inline" fill="none" stroke="#EAEAEA" stroke-miterlimit="10" width="499.5" height="499.5"/>
</g>
<g>
	<path id="hair" fill="#382800" d="M250.1,484.2c3.7,10.2,30.1,13.6,41.9-2.6c14.5,17.1,44.1,21.8,57.2-3.9c4.4-8.5,10-1.8,18.3-2.9
		c5.3-0.7,10.2-3.4,13.2-7.7c3.4-4.9,3.3-8.8,3.1-14.1c0-3.7,0.8-3.3,4.4-4.8c13.1-5.5,10.3-18.3,5.4-29.3
		c-2.1-4.7-15.9-14.9-9.1-19.2c6.6-4,15.8-24.2-0.7-42.8c-5.4-5.8,4.9-10.7,4.9-10.7c19.6-8.4,11.4-27.7,1.3-37.5
		c-8.9-9.4-2.6-12.7,1.1-16.6c10.3-9.2,8.8-25.6-14.8-33.9c-13.7-6.3-12.9-9.4-12.9-9.4s10.9-0.6,12.5-11.2
		c1.7-10.7-5.5-30.3-36.1-26.3c0.1-20.9-24.9-34-37.3-32.8c-12.6,1.2-18.1,6.3-18.1,6.3s-13.1-19.5-34.8-19.5S215,184.8,215,184.8
		s-5.5-5.1-18.1-6.3c-12.5-1.2-37.5,11.9-37.3,32.8c-30.6-4.2-37.8,15.6-36.1,26.3c1.7,10.7,12.5,11.2,12.5,11.2s0.9,3-12.9,9.4
		c-23.5,8.4-25.1,24.7-14.8,33.9c3.8,3.8,10,7.2,1.1,16.6c-10.1,9.8-18.3,29.1,1.3,37.5c0,0,10.3,4.8,4.9,10.7
		c-16.5,18.5-7.3,38.7-0.7,42.8c6.8,4.3-7,14.5-9.1,19.2c-4.9,11-7.7,23.7,5.4,29.3c3.6,1.6,4.5,1,4.4,4.8c0,5.5-0.2,9.3,3.1,14.1
		c3,4.4,8.1,7.1,13.2,7.7c8.3,1.1,14.3-5.8,18.3,2.9c10.9,23.9,40.4,21,57.2,3.9C220,497.8,246.5,494.4,250.1,484.2z"/>
	<g>
		<path fill="#C9C8CE" d="M309.1,212.3l22.6-32.9c1.3-2,1-4.5-0.7-5.7c-1.8-1.2-4.3-0.6-5.6,1.3l-23.5,34.1
			c-15.5-6.1-32.7-9.5-50.8-9.5c-18.1,0-35.3,3.4-50.8,9.5L176.7,175c-1.3-2-3.9-2.6-5.6-1.3c-1.8,1.2-2.1,3.8-0.7,5.7l22.6,32.9
			c-36,16.7-61.2,48.5-64.4,85.7h245C370.3,260.8,345.1,229,309.1,212.3"/>
		<g>
			<path fill="#FFFFFF" d="M199.9,264c-7.5,0-13.6-6.1-13.6-13.6c0-7.5,6.1-13.6,13.6-13.6c7.5,0,13.5,6.1,13.5,13.6
				C213.4,258,207.4,264,199.9,264"/>
			<path fill="#FFFFFF" d="M302.2,264c-7.5,0-13.6-6.1-13.6-13.6c0-7.5,6.1-13.6,13.6-13.6c7.5,0,13.6,6.1,13.6,13.6
				C315.8,258,309.7,264,302.2,264"/>
		</g>
	</g>
	<path id="hair_2_" fill="#382800" d="M155.9,224.1c0,0,35.6,12.9,61.7-12.3c35.1,20.9,77.1,15,112.2,4.3
		c-12.2-12.1-53.4-36.9-113.1-16.4C187,209.8,156.8,221.1,155.9,224.1z"/>
</g>
</svg>
