<?xml version="1.0" encoding="utf-8"?>
<!-- Generator: Adobe Illustrator 18.0.0, SVG Export Plug-In . SVG Version: 6.00 Build 0)  -->
<!DOCTYPE svg PUBLIC "-//W3C//DTD SVG 1.1//EN" "http://www.w3.org/Graphics/SVG/1.1/DTD/svg11.dtd">
<svg version="1.1" id="content" xmlns="http://www.w3.org/2000/svg" xmlns:xlink="http://www.w3.org/1999/xlink" x="0px" y="0px"
	 width="500px" height="500px" viewBox="0 0 500 500" enable-background="new 0 0 500 500" xml:space="preserve">
<path id="hair" fill="#382800" d="M248.7,325.6c3.3,9.1,26.8,12.1,37.3-2.3c12.9,15.2,39.3,19.4,51-3.5c3.9-7.6,8.9-1.6,16.3-2.6
	c4.7-0.6,9.1-3,11.8-6.9c3-4.4,2.9-7.8,2.8-12.6c0-3.3,0.7-2.9,3.9-4.3c11.7-4.9,9.2-16.3,4.8-26.1c-1.9-4.2-14.2-13.3-8.1-17.1
	c5.9-3.6,14.1-21.6-0.6-38.1c-4.8-5.2,4.4-9.5,4.4-9.5c17.5-7.5,10.2-24.7,1.2-33.4c-7.9-8.4-2.3-11.3,1-14.8
	c9.2-8.2,7.8-22.8-13.2-30.2c-12.2-5.6-11.5-8.4-11.5-8.4s9.7-0.5,11.1-10c1.5-9.5-4.9-27-32.2-23.4c0.1-18.6-22.2-30.3-33.2-29.2
	c-11.2,1.1-16.1,5.6-16.1,5.6s-11.7-17.4-31-17.4s-31,17.4-31,17.4s-4.9-4.5-16.1-5.6c-11.1-1.1-33.4,10.6-33.2,29.2
	c-27.3-3.7-33.7,13.9-32.2,23.4c1.5,9.5,11.1,10,11.1,10s0.8,2.7-11.5,8.4c-20.9,7.5-22.4,22-13.2,30.2c3.4,3.4,8.9,6.4,1,14.8
	c-9,8.7-16.3,25.9,1.2,33.4c0,0,9.2,4.3,4.4,9.5c-14.7,16.5-6.5,34.5-0.6,38.1c6.1,3.8-6.2,12.9-8.1,17.1
	c-4.4,9.8-6.9,21.1,4.8,26.1c3.2,1.4,4,0.9,3.9,4.3c0,4.9-0.2,8.3,2.8,12.6c2.7,3.9,7.2,6.3,11.8,6.9c7.4,1,12.7-5.2,16.3,2.6
	c9.7,21.3,36,18.7,51,3.5C221.9,337.7,245.5,334.7,248.7,325.6z"/>
<rect id="position" display="none" fill="none" stroke="#000000" width="500" height="500"/>
<g id="bounds_3_" display="none">
	
		<rect x="66.4" y="5.2" display="inline" fill="none" stroke="#000000" stroke-width="1.4157" stroke-miterlimit="10" width="365.2" height="365.2"/>
</g>
</svg>
