<?xml version="1.0" encoding="utf-8"?>
<!-- Generator: Adobe Illustrator 18.0.0, SVG Export Plug-In . SVG Version: 6.00 Build 0)  -->
<!DOCTYPE svg PUBLIC "-//W3C//DTD SVG 1.1//EN" "http://www.w3.org/Graphics/SVG/1.1/DTD/svg11.dtd">
<svg version="1.1" id="content" xmlns="http://www.w3.org/2000/svg" xmlns:xlink="http://www.w3.org/1999/xlink" x="0px" y="0px"
	 width="500px" height="500px" viewBox="0 0 500 500" enable-background="new 0 0 500 500" xml:space="preserve">
<path id="hair" fill="#382800" d="M252.3,113.9h21.7c0-3.8-3.3-22.3-3.3-22.3s5.9,18.6,6.4,22.3h21.8c-0.2-6.2-8.2-22.3-8.2-22.3
	s10.6,16.4,11,22.3h19.6c0-7.5-2.7-14.6-7.4-20.9c7.4,5.8,15.3,15.2,19,30.2c8.3-8.3,3.9-29.2-0.8-32.4l-29.8-8.9
	c-13-9.3-33.9-15-52.6-15s-39.1,5.8-52,15l-29.8,8.9c-4.7,3.2-9.9,23.7-0.8,32.4c3.8-15,11.7-24.4,19.1-30.2
	c-4.8,6.1-8.3,13.6-8.4,20.9h20.6c0.4-5.9,9-22.3,9-22.3s-6,16.1-6.2,22.3H223c0.5-3.7,6.4-22.3,6.4-22.3s-3.3,18.5-3.3,22.3h22.7
	l1.5-22.3"/>
<rect id="position" display="none" fill="none" stroke="#000000" width="500" height="500"/>
<g id="bounds_3_" display="none">
	
		<rect x="67.4" y="2.8" display="inline" fill="none" stroke="#000000" stroke-width="1.4157" stroke-miterlimit="10" width="365.2" height="365.2"/>
</g>
</svg>
