<?xml version="1.0" encoding="utf-8"?>
<!-- Generator: Adobe Illustrator 18.0.0, SVG Export Plug-In . SVG Version: 6.00 Build 0)  -->
<!DOCTYPE svg PUBLIC "-//W3C//DTD SVG 1.1//EN" "http://www.w3.org/Graphics/SVG/1.1/DTD/svg11.dtd">
<svg version="1.1" id="content" xmlns="http://www.w3.org/2000/svg" xmlns:xlink="http://www.w3.org/1999/xlink" x="0px" y="0px"
	 width="500px" height="500px" viewBox="0 0 500 500" enable-background="new 0 0 500 500" xml:space="preserve">
<rect id="position" display="none" fill="none" stroke="#000000" width="500" height="500"/>
<g id="bounds" display="none">
	<rect x="0.2" y="80.2" display="inline" fill="none" stroke="#EAEAEA" stroke-miterlimit="10" width="499.5" height="499.5"/>
</g>
<g>
	<path id="hair_3_" fill="#382800" d="M249.3,186.1c-70.4,0-127.5,51.4-127.5,114.6V479l14.2-14.2l14.2,14.2l14.2-14.2l14.2,14.2
		l14.2-14.2l14.2,14.2l14.2-14.2l14.2,14.2l14.2-14.2l14.2,14.2l14.2-14.2l14.2,14.2l14.2-14.2l14.2,14.2l14.2-14.2l14.2,14.2
		l14.2-14.2l14.2,14.2V300.8C376.8,237.4,319.7,186.1,249.3,186.1z"/>
	<g>
		<path fill="#C9C8CE" d="M305.3,217.8l21.8-31.7c1.3-1.9,1-4.4-0.7-5.5c-1.7-1.2-4.1-0.6-5.4,1.3l-22.7,32.9
			c-15-5.9-31.6-9.2-49.1-9.2c-17.5,0-34.1,3.3-49.1,9.2l-22.7-32.9c-1.3-1.9-3.7-2.5-5.4-1.3c-1.7,1.2-2,3.6-0.7,5.5l21.8,31.7
			c-34.7,16.2-59.1,46.9-62.2,82.7h236.5C364.4,264.6,340,233.9,305.3,217.8"/>
		<g>
			<path fill="#FFFFFF" d="M199.8,267.8c-7.2,0-13.1-5.9-13.1-13.1c0-7.2,5.9-13.1,13.1-13.1c7.2,0,13.1,5.9,13.1,13.1
				C212.9,261.9,207.1,267.8,199.8,267.8"/>
			<path fill="#FFFFFF" d="M298.6,267.8c-7.2,0-13.1-5.9-13.1-13.1c0-7.2,5.9-13.1,13.1-13.1c7.2,0,13.1,5.9,13.1,13.1
				C311.7,261.9,305.9,267.8,298.6,267.8"/>
		</g>
	</g>
	<path id="hair_1_" fill="#382800" d="M252.2,250.9h23.5c0-4.1-3.6-24.2-3.6-24.2s6.4,20.2,6.9,24.2h23.6
		c-0.2-6.7-8.9-24.2-8.9-24.2s11.5,17.8,11.9,24.2H327c0-8.1-2.9-15.8-8-22.6c8,6.3,16.6,16.5,20.6,32.7c9-9,4.2-31.6-0.9-35.1
		l-32.3-9.6c-14.1-10.1-36.7-16.3-57-16.3s-42.4,6.3-56.3,16.3l-32.3,9.6c-5.1,3.5-10.7,25.7-0.9,35.1c4.1-16.3,12.7-26.4,20.7-32.7
		c-5.2,6.6-9,14.7-9.1,22.6h22.3c0.4-6.4,9.8-24.2,9.8-24.2s-6.5,17.4-6.7,24.2h23.6c0.5-4,6.9-24.2,6.9-24.2s-3.6,20-3.6,24.2h24.6
		l1.6-24.2"/>
</g>
</svg>
