<?xml version="1.0" encoding="utf-8"?>
<!-- Generator: Adobe Illustrator 18.0.0, SVG Export Plug-In . SVG Version: 6.00 Build 0)  -->
<!DOCTYPE svg PUBLIC "-//W3C//DTD SVG 1.1//EN" "http://www.w3.org/Graphics/SVG/1.1/DTD/svg11.dtd">
<svg version="1.1" id="content" xmlns="http://www.w3.org/2000/svg" xmlns:xlink="http://www.w3.org/1999/xlink" x="0px" y="0px"
	 width="500px" height="500px" viewBox="0 0 500 500" enable-background="new 0 0 500 500" xml:space="preserve">
<path id="hair" fill="#382800" d="M249.6,54.1c-65,0-117.7,47.4-117.7,105.8v164.5l13.1-13.1l13.1,13.1l13.1-13.1l13.1,13.1
	l13.1-13.1l13.1,13.1l13.1-13.1l13.1,13.1l13.1-13.1l13.1,13.1l13.1-13.1l13.1,13.1l13.1-13.1l13.1,13.1l13.1-13.1l13.1,13.1
	l13.1-13.1l13.1,13.1V159.9C367.3,101.4,314.6,54.1,249.6,54.1z"/>
<rect id="position" display="none" fill="none" stroke="#000000" width="500" height="500"/>
<g id="bounds_3_" display="none">
	
		<rect x="67.4" y="2.8" display="inline" fill="none" stroke="#000000" stroke-width="1.4157" stroke-miterlimit="10" width="365.2" height="365.2"/>
</g>
</svg>
