<?xml version="1.0" encoding="utf-8"?>
<!-- Generator: Adobe Illustrator 18.0.0, SVG Export Plug-In . SVG Version: 6.00 Build 0)  -->
<!DOCTYPE svg PUBLIC "-//W3C//DTD SVG 1.1//EN" "http://www.w3.org/Graphics/SVG/1.1/DTD/svg11.dtd">
<svg version="1.1" id="content" xmlns="http://www.w3.org/2000/svg" xmlns:xlink="http://www.w3.org/1999/xlink" x="0px" y="0px"
	 width="500px" height="500px" viewBox="0 0 500 500" enable-background="new 0 0 500 500" xml:space="preserve">
<rect id="position" display="none" fill="none" stroke="#000000" width="500" height="500"/>
<g id="bounds" display="none">
	<rect x="0.2" y="80.2" display="inline" fill="none" stroke="#EAEAEA" stroke-miterlimit="10" width="499.5" height="499.5"/>
</g>
<g>
	<path id="hair_2_" fill="#382800" d="M407.3,353.5c-4.5,1.9-8.6,3.4-13,0.2c-0.8-0.6-1.9-1.5-2.9-2.7c0.9-3.1,1.8-6.1,2.1-8.9
		c1.1-7.9-0.5-15.3-2.8-22.4c1.4-1.9,2.6-4,3.4-5.7c0.9-2.1,1.3-4.5,1.3-6.7c0-1.1-0.1-2.1-0.5-3.1c2.6-0.4,5.2-1.5,7.6-3.8
		c-10.3-0.5-14.2-9.3-17.4-18.5c0.1-0.1,0.1-0.2,0.1-0.2c1.5-2.3,2.5-5.6,2.8-8.4c0.2-1.6,0.2-3.3,0.2-4.9c3.6-1.5,5.6-4.5,7.7-8.2
		c-1.9,2.3-4.9,4-8,4.8c-0.4-2.1-0.9-4.1-1.8-5.9c-1.4-2.7-3.1-5.3-5-7.5c-0.2-0.2-0.5-0.6-0.8-0.9c0.6-0.5,1.1-0.9,1.5-1.5
		c3.1-3.3,6.6-9.3,5.7-14.1c-5,4.8-9,6.2-15.8,4.9c-2.2-0.5-4.2-1.5-6.1-2.8c0-0.8-0.1-1.6-0.1-2.6c0-2.3-0.2-4.6-0.7-6.8
		c0.2-0.1,0.6-0.2,0.8-0.4c2.8-1.4,6.7-4.6,7-8.2c-1.9,3.2-4.8,5.6-8.2,6.8c-0.9-4.3-3.2-8.6-6.8-11c3.9-1.4,7.7-3.8,9.9-6
		c-11.9,3.8-21.8-2.1-31.4-9.4c-5.5-4.2-10.8-8.7-16.8-12.2c-5.9-3.5-12.6-5.6-19-7.7c-13.3-4.5-28.2-6.2-41.4-0.6
		c-2.2,0.9-5.9,4-8.2,4s-6-3.1-8.2-4c-13.3-5.5-28.2-3.9-41.4,0.6c-6.5,2.2-13.1,4.2-19,7.7c-6,3.5-11.3,8.1-16.8,12.2
		c-9.6,7.3-19.6,13.1-31.4,9.4c2.1,2.2,5.9,4.6,9.9,6c-3.6,2.5-5.9,6.7-6.8,11c-3.4-1.2-6.3-3.6-8.2-6.8c0.4,3.6,4.1,6.8,7,8.2
		c0.2,0.1,0.6,0.2,0.8,0.4c-0.4,2.2-0.7,4.5-0.7,6.8c0,0.9-0.1,1.9-0.1,2.7c-1.9,1.4-3.9,2.5-6.1,2.8c-6.8,1.3-10.8-0.1-15.8-4.9
		c-0.8,4.8,2.8,10.8,5.7,14.1c0.5,0.6,1.1,1.1,1.5,1.5c-0.4,0.4-0.6,0.7-0.8,0.9c-1.9,2.2-3.6,4.8-5,7.5c-0.9,1.8-1.5,3.9-1.8,5.9
		c-3.1-0.8-6.1-2.5-8-4.8c2,3.8,4.1,6.7,7.7,8.2c0,1.6,0,3.3,0.2,4.9c0.4,2.9,1.3,6.1,2.8,8.4c0,0.1,0.1,0.2,0.2,0.2
		c-3.1,9.3-7,18-17.4,18.5c2.5,2.2,5.2,3.4,7.6,3.8c-0.4,0.9-0.5,2-0.5,3.1c0,2.2,0.5,4.7,1.3,6.7c0.8,1.8,2,3.9,3.4,5.7
		c-2.3,7.2-3.9,14.5-2.8,22.4c0.4,2.8,1.2,5.7,2.1,8.9c-1.1,1.2-2.1,2.1-2.9,2.7c-4.5,3.1-8.6,1.6-13-0.2c3.6,5,12,6.8,18,4.2
		c2.2,8.3,2.8,16.3-6.1,20.9c3.3,2.2,9.4,2.3,12.9,0.4c1.3-0.7,2.1-2,2.7-3.4c0.1,2,0.6,4,1.2,5.7c1.5,4.3,4.5,8.3,8.1,11
		c-0.8,4.5-1.9,8.9-2.5,13.5c-2.3,17.7,5.5,34,20.3,40.6c-3.2-1.4-5.4-6-6.2-10.8c0.7,0.6,1.4,1.1,2.1,1.4c2,1.3,4.9,1.9,7.3,2
		c0.9,0,6.1-1.2,8.7-2.8c2.6,2,4.5,4.3,4.5,7.7c-0.1,5.3-4.7,5.3-8.2,5.6c2.2,2.6,5.4,3.9,8.4,3.5c0.4,2.7,1.2,5.4,2,7.6
		c1.4,3.9,4.5,9.9,9.2,9.9c-6.2-4.7-7.2-12.6-5.5-19.9c1.2-1.4,2.5-3.6,4-3.6c1.2,0,0.7,1.8,0.9,2.8c0.2,1.3,0.6,2.7,1.1,3.9
		c2.1,5,6.6,8.9,11.5,9.7c-2.1-2-2-6.2-0.8-8.7c0.6,0.4,1.1,1.9,1.5,2.6c1.2,1.9,2.6,3.6,3.9,5.5c4,5.7,9.7,9.4,15.7,11.9
		c3.2,1.3,6.6,2,10,1.8c-9.5,0.7-16-18.9-5.2-21.7c1.4-0.4,2.8-0.5,4.2-0.5l-0.8,0.5c-0.6,3.1-0.2,6.8,0.8,10.2
		c-2.3,0.7-5,0.4-7.2-1.2c0.8,3.1,5.2,4.3,8.6,4.5c2.6,4.9,7,8.4,12.7,7c-3.8-0.2-7.4-3.9-9.4-7.3c2.9-0.7,7.2-2.9,8.3-6.1
		c2.3,2.9,3.8,6.1,3.5,10.8c-0.4,6.6-3.3,11.4-9.2,13.3c8.1,2.2,16.5-4.3,21.6-10.4c0.9,1.5,2.6,3.1,3.6,4.5
		c1.1-1.4,2.7-2.9,3.6-4.5c5,6,13.6,12.7,21.6,10.4c-5.7-1.9-8.7-6.7-9.2-13.3c-0.2-4.7,1.1-7.9,3.5-10.8c1.2,3.2,5.4,5.5,8.3,6.1
		c-1.9,3.4-5.6,7-9.4,7.3c5.6,1.4,10.1-2.1,12.7-7c3.4-0.1,7.7-1.4,8.6-4.5c-2.1,1.5-4.8,1.9-7.2,1.2c1.2-3.4,1.5-7.2,0.8-10.2
		l-0.8-0.5c1.4-0.1,2.8,0.1,4.2,0.5c10.7,2.8,4.2,22.4-5.2,21.7c3.4,0.2,6.8-0.5,10-1.8c6.1-2.5,11.7-6.1,15.7-11.9
		c1.3-1.9,2.7-3.5,3.9-5.5c0.4-0.7,0.8-2.2,1.5-2.6c1.2,2.5,1.3,6.7-0.8,8.7c5-0.8,9.4-4.7,11.5-9.7c0.5-1.3,0.9-2.6,1.1-3.9
		c0.1-1.1-0.2-2.8,0.9-2.8c1.5,0,2.8,2.2,4,3.6c1.6,7.4,0.7,15.3-5.5,20.1c4.7-0.1,7.7-6,9.3-9.9c0.8-2.1,1.6-4.8,2-7.6
		c3.1,0.4,6.2-0.9,8.4-3.5c-3.5-0.2-8.2-0.2-8.2-5.6c-0.1-3.4,1.9-5.7,4.5-7.7c2.6,1.6,7.6,2.8,8.7,2.8c2.3,0,5.3-0.6,7.3-2
		c0.6-0.4,1.3-0.9,2.1-1.4c-0.7,4.9-2.9,9.4-6.2,10.8c14.8-6.6,22.6-22.9,20.3-40.6c-0.6-4.5-1.6-8.9-2.5-13.5
		c3.6-2.7,6.6-6.7,8.1-11c0.7-1.8,1.1-3.8,1.2-5.7c0.7,1.4,1.5,2.6,2.7,3.4c3.5,2.1,9.6,1.9,12.9-0.4c-8.9-4.5-8.3-12.6-6.1-20.9
		C395.3,360.3,403.6,358.5,407.3,353.5z M139.9,222.5c0.8-2.5,3.1-5.4,5.7-7.4c2.7,0.8,5.4,1.1,7.5,0.4c-2.3,3.8-5,7.3-7.7,10.8
		c-2.1,0.2-4.1,0.1-6.2-0.1h-0.1C139.2,224.9,139.4,223.7,139.9,222.5z M112.1,317.2c-0.7-1.4-1.3-2.9-1.6-4.3
		c-0.7-2.3-0.8-5.9,0-8.7c3.1-0.5,6.1-2.1,8.8-4.6C116.9,305.4,114.2,311.2,112.1,317.2z M119.5,273c-0.7,1.8-1.3,3.6-1.9,5.6
		c-0.4-0.7-0.7-1.4-1.1-2.2c-0.9-2.3-1.4-4.9-1.3-7.5c1.6,0.4,3.8,0.5,5.9,0.4C120.6,270.4,120,271.7,119.5,273z M119.8,265.6
		c-1.3,0-2.7,0-4.1-0.4c0.9-3.8,3.1-7.3,5.6-10c0.9-0.9,2-1.8,3.1-2.6c2.1,1.3,4.3,2.1,6.8,2.7c-3.2,2.8-5.7,6-8,9.5
		C122.2,265.4,121,265.6,119.8,265.6z M132.1,386.8c-1.8-2.2-3.2-4.8-3.9-6.9c-0.9-2.8-1.3-6.5-1.2-9.4c0-0.2,0-0.4,0.1-0.5
		c0.2,0,0.5,0.1,0.7,0.1c3.4,1.1,4.1,6.6,4.5,9.7C132.4,382.2,132.3,384.6,132.1,386.8z M138.4,234.7c-0.1-2.1-0.1-4.3,0.2-6.6
		c1.4,0.5,2.9,0.9,4.5,1.2c-0.1,0.2-0.2,0.4-0.5,0.6C141.3,231.4,139.9,233.2,138.4,234.7z M156.8,434.5c-3.3,1.1-7.6,0.4-10.6-1.5
		c-1.1-0.7-2.5-2-3.5-3.6c0.4-3.6,1.8-6.8,4.2-8.2c1.4,3.6,2,6.3,5,9c1.5,1.3,3.6,2.5,5.7,3.8C157.5,434.2,157.2,434.4,156.8,434.5z
		 M223.6,459.5c-0.5,1.4-1.4,2.6-2.5,3.5c-0.7-2.8-1.1-6.1-0.2-8.7c0.9,0.2,2,0.6,2.9,1.1C224,456.7,224,458.1,223.6,459.5z
		 M280.7,462.9c-1.1-0.9-2-2.1-2.5-3.5c-0.5-1.4-0.5-2.8-0.1-4.2c0.9-0.5,1.9-0.8,2.9-1.1C281.8,456.8,281.4,460.1,280.7,462.9z
		 M361.9,222.5c0.4,1.1,0.7,2.3,0.9,3.5h-0.1c-2.1,0.4-4.1,0.4-6.2,0.1c-2.7-3.5-5.4-7-7.7-10.8c2.1,0.7,4.7,0.5,7.5-0.4
		C359,217.1,361.1,220.2,361.9,222.5z M355.6,433c-2.9,1.8-7.3,2.5-10.6,1.5c-0.4-0.1-0.7-0.4-1.1-0.5c2.1-1.3,4.3-2.5,5.7-3.8
		c3.1-2.7,3.8-5.4,5-9c2.6,1.4,3.9,4.6,4.2,8.2C358,431,356.7,432.4,355.6,433z M358.9,229.3c1.5-0.2,2.9-0.6,4.5-1.2
		c0.4,2.2,0.4,4.5,0.2,6.6c-1.5-1.5-3.1-3.2-4.2-4.9C359.1,229.7,359,229.5,358.9,229.3z M373.6,379.9c-0.7,2.1-2.1,4.7-3.9,6.9
		c-0.2-2.3-0.4-4.6-0.1-6.9c0.2-3.2,0.9-8.7,4.5-9.7c0.2-0.1,0.5-0.1,0.7-0.1c0,0.1,0.1,0.4,0.1,0.5
		C374.9,373.4,374.6,377.1,373.6,379.9z M378.6,265c-2.2-3.5-4.8-6.7-8-9.5c2.3-0.6,4.7-1.4,6.8-2.7c1.1,0.7,2.1,1.6,3.1,2.6
		c2.6,2.6,4.7,6.1,5.6,10c-1.4,0.2-2.8,0.4-4.1,0.4C380.8,265.6,379.6,265.4,378.6,265z M380.7,269.1c2.1,0.1,4.1,0,5.9-0.4
		c0.1,2.6-0.5,5.2-1.3,7.5c-0.4,0.8-0.6,1.5-1.1,2.2c-0.6-1.9-1.2-3.8-1.9-5.6C381.9,271.7,381.3,270.4,380.7,269.1z M382.6,299.6
		c2.8,2.5,5.7,4.1,8.8,4.6c0.9,2.8,0.8,6.3,0,8.7c-0.5,1.4-1.1,2.9-1.6,4.3C387.6,311.2,384.9,305.4,382.6,299.6z"/>
	<g>
		<path fill="#C9C8CE" d="M311.7,216.1l23.7-34.3c1.4-2,1.1-4.7-0.8-6c-1.8-1.3-4.5-0.6-5.9,1.4l-24.6,35.7
			c-16.2-6.4-34.2-9.9-53.2-9.9s-37,3.6-53.2,9.9l-24.6-35.7c-1.4-2-4-2.7-5.9-1.4c-1.8,1.3-2.2,3.9-0.8,6l23.7,34.3
			c-37.6,17.5-64,50.8-67.4,89.6h256.2C375.7,266.8,349.3,233.6,311.7,216.1"/>
		<g>
			<path fill="#FFFFFF" d="M197.5,270.2c-7.8,0-14.2-6.3-14.2-14.2c0-7.8,6.3-14.2,14.2-14.2c7.8,0,14.2,6.3,14.2,14.2
				C211.6,263.9,205.3,270.2,197.5,270.2"/>
			<path fill="#FFFFFF" d="M304.5,270.2c-7.8,0-14.2-6.3-14.2-14.2c0-7.8,6.3-14.2,14.2-14.2c7.8,0,14.2,6.3,14.2,14.2
				C318.7,263.9,312.3,270.2,304.5,270.2"/>
		</g>
	</g>
	<path id="hair_1_" fill="#382800" d="M362.4,254.8c-5.3,0.6-10-0.1-14.9-1.9c-4.3-1.5-8.4-5.3-10.7-9.6c0.7,0.1,1.4,0.4,2.1,0.5
		c4.3,1.1,9.5,1.5,13.8,0.8c1.9-0.2,3.8-1.1,5.6-1.2c-3.1-0.4-6.2-2.1-8.8-3.8c-4.1-2.8-8.6-6.2-12-9.9c4,0.7,7.5,0.6,11.5,0.4
		c-3.1-0.9-6.1-4.1-8.8-5.9c-5.5-3.9-10.6-8.3-16.1-12.3c-4.6-3.3-8.6-7.4-13.3-10.3c-2.9-1.9-6.3-3.1-9.5-4.5
		c-7.9-3.5-16.3-5.9-25-6.3c-5.5-0.4-11.1-0.9-16.7-0.7c-2.7,0.1-5.5,0.7-8.2,0.8h-1.5c-2.7-0.2-5.5-0.7-8.2-0.8
		c-5.5-0.2-11.1,0.4-16.7,0.7c-8.7,0.6-17.1,2.8-25,6.3c-3.2,1.4-6.6,2.6-9.5,4.5c-4.7,2.9-8.8,7.2-13.3,10.3
		c-5.5,4-10.6,8.3-16.1,12.3c-2.6,1.9-5.6,4.9-8.8,5.9c4,0.2,7.5,0.4,11.5-0.4c-3.3,3.6-7.9,7-12,9.9c-2.5,1.6-5.7,3.4-8.8,3.8
		c1.9,0.1,3.8,0.9,5.6,1.2c4.3,0.7,9.5,0.1,13.8-0.8h0.1c-2.2,4.2-6.2,7.7-10.4,9.2c-4.9,1.8-9.6,2.5-14.9,1.9
		c-0.6,2,5.6,2.7,6.9,2.9c2.8,0.4,5.6,0.1,8.3-0.7c5.6-1.6,10.1-4.1,14-8.6c1.5-1.8,2.9-4.1,3.8-6.7c1.1-0.4,2.2-0.7,3.3-1.1
		c4.9-1.8,9-4.1,13-7.2c0.2,3.9-2,7.9-4.7,10.6c-3.1,3.1-5.7,3.8-9.5,4.8c2.9-0.4,5.9,0,8.9-0.6c3.8-0.8,7.6-2.1,11.1-3.6
		c3.2-1.4,6.1-3.1,9-4.9c2.7-1.9,4.5-4.2,7-6.1c0,0,0,13.1,11.9,15.1c-5.7-5.9-1.9-14.7,1.4-15.8c0,6.7,3.3,15.4,12.2,18.7
		c-6.5-10.7-2.8-17.7-2.8-17.7c-0.4,0.6,0.8,2.9,1.1,3.4c2,5.6,6.2,12.2,12.3,13.7c0.8,0.2,1.8,0.4,2.6,0.6
		c-3.2-2.2-4.8-6.1-5.7-9.7c-0.1-0.4-0.1-0.7-0.2-1.1c-0.4-2.2-0.2-4.8,1.2-6.7c0.5-0.6,3.4-3.6,4.3-2.6c0.5,0.5-0.4,1.9-0.6,2.3
		c-0.2,0.8-0.5,1.6-0.6,2.6c-0.1,1.8,0.1,3.5,0.5,5.3c0.8,3.8,2.7,6.8,6.5,7.7c-0.5-1.3-1.5-2.3-1.9-3.8c-0.5-1.6-0.7-3.5-0.6-5.3
		c0.1-1.8,0.8-3.5,1.9-4.9c1.4-1.5,3.2-2.9,4.9-1.2c1.3,1.3,2,3.6,2,5.4c-0.1,4.3-0.9,8-3.1,11.9c11.6-4.1,14.2-17.7,14.2-17.7
		s3.5,7-2.8,17.7c8.9-3.3,12.2-12,12.2-18.7c3.3,1.2,7.2,10,1.4,15.8c11.9-2,11.9-15.1,11.9-15.1c2.6,2,4.2,4.3,7,6.1
		c2.8,1.9,5.9,3.5,9,4.9c3.5,1.5,7.4,2.8,11.1,3.6c3.1,0.7,6,0.2,8.9,0.6c-3.9-1.1-6.6-1.9-9.5-4.8c-2.7-2.7-4.9-6.6-4.7-10.6
		c4,3.1,8.2,5.4,13,7.2c0.5,0.1,0.8,0.2,1.3,0.5c0.9,2.8,2.3,5.5,4,7.3c4,4.3,8.3,6.9,14,8.6c2.7,0.8,5.5,0.9,8.3,0.7
		C356.7,257.5,363,256.9,362.4,254.8z"/>
</g>
</svg>
