<?xml version="1.0" encoding="utf-8"?>
<!-- Generator: Adobe Illustrator 18.0.0, SVG Export Plug-In . SVG Version: 6.00 Build 0)  -->
<!DOCTYPE svg PUBLIC "-//W3C//DTD SVG 1.1//EN" "http://www.w3.org/Graphics/SVG/1.1/DTD/svg11.dtd">
<svg version="1.1" id="content" xmlns="http://www.w3.org/2000/svg" xmlns:xlink="http://www.w3.org/1999/xlink" x="0px" y="0px"
	 width="500px" height="500px" viewBox="0 0 500 500" enable-background="new 0 0 500 500" xml:space="preserve">
<path id="hair" fill="#382800" d="M344.5,116.3c-4.5,0.5-8.5-0.1-12.7-1.6c-3.7-1.3-7.2-4.5-9.1-8.2c0.6,0.1,1.2,0.3,1.8,0.4
	c3.7,0.9,8.1,1.3,11.8,0.7c1.6-0.2,3.2-0.9,4.8-1c-2.6-0.3-5.3-1.8-7.5-3.2c-3.5-2.4-7.3-5.3-10.2-8.4c3.4,0.6,6.4,0.5,9.8,0.3
	c-2.6-0.8-5.2-3.5-7.5-5c-4.7-3.3-9-7.1-13.7-10.5c-3.9-2.8-7.3-6.3-11.3-8.8c-2.5-1.6-5.4-2.6-8.1-3.8c-6.7-3-13.9-5-21.3-5.4
	c-4.7-0.3-9.5-0.8-14.2-0.6c-2.3,0.1-4.7,0.6-7,0.7h-1.3c-2.3-0.2-4.7-0.6-7-0.7c-4.7-0.2-9.5,0.3-14.2,0.6
	c-7.4,0.5-14.6,2.4-21.3,5.4c-2.7,1.2-5.6,2.2-8.1,3.8c-4,2.5-7.5,6.1-11.3,8.8c-4.7,3.4-9,7.1-13.7,10.5c-2.2,1.6-4.8,4.2-7.5,5
	c3.4,0.2,6.4,0.3,9.8-0.3c-2.8,3.1-6.7,6-10.2,8.4c-2.1,1.4-4.9,2.9-7.5,3.2c1.6,0.1,3.2,0.8,4.8,1c3.7,0.6,8.1,0.1,11.8-0.7
	c0,0,0.1,0,0.1,0c-1.9,3.6-5.3,6.6-8.9,7.8c-4.2,1.5-8.2,2.1-12.7,1.6c-0.5,1.7,4.8,2.3,5.9,2.5c2.4,0.3,4.8,0.1,7.1-0.6
	c4.8-1.4,8.6-3.5,11.9-7.3c1.3-1.5,2.5-3.5,3.2-5.7c0.9-0.3,1.9-0.6,2.8-0.9c4.2-1.5,7.7-3.5,11.1-6.1c0.2,3.3-1.7,6.7-4,9
	c-2.6,2.6-4.9,3.2-8.1,4.1c2.5-0.3,5,0,7.6-0.5c3.2-0.7,6.5-1.8,9.5-3.1c2.7-1.2,5.2-2.6,7.7-4.2c2.3-1.6,3.8-3.6,6-5.2
	c0,0,0,11.2,10.1,12.9c-4.9-5-1.6-12.5,1.2-13.5c0,5.7,2.8,13.1,10.4,15.9c-5.5-9.1-2.4-15.1-2.4-15.1c-0.3,0.5,0.7,2.5,0.9,2.9
	c1.7,4.8,5.3,10.4,10.5,11.7c0.7,0.2,1.5,0.3,2.2,0.5c-2.7-1.9-4.1-5.2-4.9-8.3c-0.1-0.3-0.1-0.6-0.2-0.9c-0.3-1.9-0.2-4.1,1-5.7
	c0.4-0.5,2.9-3.1,3.7-2.2c0.4,0.4-0.3,1.6-0.5,2c-0.2,0.7-0.4,1.4-0.5,2.2c-0.1,1.5,0.1,3,0.4,4.5c0.7,3.2,2.3,5.8,5.5,6.6
	c-0.4-1.1-1.3-2-1.6-3.2c-0.4-1.4-0.6-3-0.5-4.5c0.1-1.5,0.7-3,1.6-4.2c1.2-1.3,2.7-2.5,4.2-1c1.1,1.1,1.7,3.1,1.7,4.6
	c-0.1,3.7-0.8,6.8-2.6,10.1c9.9-3.5,12.1-15.1,12.1-15.1s3,6-2.4,15.1c7.6-2.8,10.4-10.2,10.4-15.9c2.8,1,6.1,8.5,1.2,13.5
	c10.1-1.7,10.1-12.9,10.1-12.9c2.2,1.7,3.6,3.7,6,5.2c2.4,1.6,5,3,7.7,4.2c3,1.3,6.3,2.4,9.5,3.1c2.6,0.6,5.1,0.2,7.6,0.5
	c-3.3-0.9-5.6-1.6-8.1-4.1c-2.3-2.3-4.2-5.6-4-9c3.4,2.6,7,4.6,11.1,6.1c0.4,0.1,0.7,0.2,1.1,0.4c0.8,2.4,2,4.7,3.4,6.2
	c3.4,3.7,7.1,5.9,11.9,7.3c2.3,0.7,4.7,0.8,7.1,0.6C339.7,118.6,345,118.1,344.5,116.3z"/>
<rect id="position" display="none" fill="none" stroke="#000000" width="500" height="500"/>
<g id="bounds_3_" display="none">
	
		<rect x="67.4" y="-2" display="inline" fill="none" stroke="#000000" stroke-width="1.4157" stroke-miterlimit="10" width="365.2" height="365.2"/>
</g>
</svg>
