<?xml version="1.0" encoding="utf-8"?>
<!-- Generator: Adobe Illustrator 18.0.0, SVG Export Plug-In . SVG Version: 6.00 Build 0)  -->
<!DOCTYPE svg PUBLIC "-//W3C//DTD SVG 1.1//EN" "http://www.w3.org/Graphics/SVG/1.1/DTD/svg11.dtd">
<svg version="1.1" id="content" xmlns="http://www.w3.org/2000/svg" xmlns:xlink="http://www.w3.org/1999/xlink" x="0px" y="0px"
	 width="500px" height="500px" viewBox="0 0 500 500" enable-background="new 0 0 500 500" xml:space="preserve">
<g>
	<polyline fill="#C10606" points="319.5,102 170.8,102.2 170.8,72.1 328.7,72.1 329.4,102 319.5,102 	"/>
	<polygon fill="#EBADAD" points="184.5,87.2 178.1,82.8 184.5,78.4 190.9,82.8 	"/>
	<polygon fill="#EBADAD" points="197.4,87.2 191,82.8 197.4,78.4 203.9,82.8 	"/>
	<polygon fill="#EBADAD" points="210.4,87.2 203.9,82.8 210.4,78.4 216.8,82.8 	"/>
	<polygon fill="#EBADAD" points="223.3,87.2 216.9,82.8 223.3,78.4 229.7,82.8 	"/>
	<polygon fill="#EBADAD" points="236.2,87.2 229.8,82.8 236.2,78.4 242.6,82.8 	"/>
	<polygon fill="#EBADAD" points="249.1,87.2 242.7,82.8 249.1,78.4 255.5,82.8 	"/>
	<polygon fill="#EBADAD" points="262,87.2 255.6,82.8 262,78.4 268.4,82.8 	"/>
	<polygon fill="#EBADAD" points="274.9,87.2 268.5,82.8 274.9,78.4 281.3,82.8 	"/>
	<polygon fill="#EBADAD" points="287.8,87.2 281.4,82.8 287.8,78.4 294.2,82.8 	"/>
	<polygon fill="#EBADAD" points="300.7,87.2 294.3,82.8 300.7,78.4 307.1,82.8 	"/>
	<polygon fill="#EBADAD" points="313.6,87.2 307.2,82.8 313.6,78.4 320,82.8 	"/>
	<polygon fill="#EBADAD" points="184.5,97.1 178.1,92.7 184.5,88.3 190.9,92.7 	"/>
	<polygon fill="#EBADAD" points="197.4,97.1 191,92.7 197.4,88.3 203.9,92.7 	"/>
	<polygon fill="#EBADAD" points="210.4,97.1 203.9,92.7 210.4,88.3 216.8,92.7 	"/>
	<polygon fill="#EBADAD" points="223.3,97.1 216.9,92.7 223.3,88.3 229.7,92.7 	"/>
	<polygon fill="#EBADAD" points="236.2,97.1 229.8,92.7 236.2,88.3 242.6,92.7 	"/>
	<polygon fill="#EBADAD" points="249.1,97.1 242.7,92.7 249.1,88.3 255.5,92.7 	"/>
	<polygon fill="#EBADAD" points="262,97.1 255.6,92.7 262,88.3 268.4,92.7 	"/>
	<polygon fill="#EBADAD" points="274.9,97.1 268.5,92.7 274.9,88.3 281.3,92.7 	"/>
	<polygon fill="#EBADAD" points="287.8,97.1 281.4,92.7 287.8,88.3 294.2,92.7 	"/>
	<polygon fill="#EBADAD" points="300.7,97.1 294.3,92.7 300.7,88.3 307.1,92.7 	"/>
	<polygon fill="#EBADAD" points="313.6,97.1 307.2,92.7 313.6,88.3 320,92.7 	"/>
</g>
<rect id="position" display="none" fill="none" stroke="#000000" width="500" height="500"/>
<g id="bounds_3_" display="none">
	
		<rect x="67.4" y="-10.4" display="inline" fill="none" stroke="#000000" stroke-width="1.4157" stroke-miterlimit="10" width="365.2" height="365.2"/>
</g>
</svg>
