<?xml version="1.0" encoding="utf-8"?>
<!-- Generator: Adobe Illustrator 18.0.0, SVG Export Plug-In . SVG Version: 6.00 Build 0)  -->
<!DOCTYPE svg PUBLIC "-//W3C//DTD SVG 1.1//EN" "http://www.w3.org/Graphics/SVG/1.1/DTD/svg11.dtd">
<svg version="1.1" id="content" xmlns="http://www.w3.org/2000/svg" xmlns:xlink="http://www.w3.org/1999/xlink" x="0px" y="0px"
	 width="500px" height="500px" viewBox="0 0 500 500" enable-background="new 0 0 500 500" xml:space="preserve">
<g>
	<path fill="#382800" d="M318.3,88.7c0,0-8.5-24.4-69.3-24.4c-31.9,0-56,4.3-70.1,26.7c82.8,0,140.5-2.3,140.5-2.3"/>
	<path fill="#382800" d="M380.6,231.4c-0.5-11.2-8.2-16.4-6.8-21.6c2.4,3.5,4.1,3.1,4.1,3.1s-5.7-4.9-1.6-12.6
		c4.2-7.9,4.4-24.4-5.2-27.4c-5.6-1.8-7.7-4.5-8.2-9.9c1.6,1.6,3.5,1.7,5.6,0.9c-4.7-1-4.8-18-4.8-18l0,0c0-0.2,0-0.4,0.1-0.6
		c1.9-26.6-19.1-33.5-24.2-36c-5.6-2.8-10.1-7.2-10.1-7.2l-1.9-2.4c0,0,0,0-5.8,0c1.1,4.6-1.4,9.2-3.4,16.8c-1,3.8-1.8,8.4-2,14.2
		c-0.5,17.4,12,24.4,7.6,38.1c-3.1,4.6-5.1,9.2-6.1,13.5l0,0c0,0-4.1,8-3.4,18.6c0.5-4.1,3-8,3-8s-1.5,8.2,2.3,15.6
		c-0.9-5,0.7-7,0.7-7s1.1,12.8,16.7,13.3c-1.2,1.1-15.5,10-14,25c2-6.9,7.5-8.3,7.5-8.3c-6.2,16.6-4.1,26.2-0.2,32.4
		c-1.4-5.8,0.2-8.9,0.6-9.1c10.1-0.9,7,23,1.3,21c8.2,2.9,10.1-4.1,10.1-4.1v0c6.1,6.1,14.8,10.1,26.2,9.3c-7.2-2.2-10-8.8-9.9-10.8
		c6.2,4,11,2.1,11,2.1s-8-3.8-5.6-11.4c0.9-3.2,3.6-5.3,3.6-5.3s-2.5,7,5,7.2c-3.6-4.4-0.4-8.8-0.4-8.8s0.2,3.2,3.2,4.2
		C371.1,252.7,381.2,247.6,380.6,231.4z"/>
	<path fill="#382800" d="M118,231.4c0.5-11.2,8.2-16.4,6.8-21.6c-2.4,3.5-4.1,3.1-4.1,3.1s5.7-4.9,1.6-12.6
		c-4.2-7.9-4.4-24.4,5.2-27.4c5.6-1.8,7.7-4.5,8.2-9.9c-1.6,1.6-3.5,1.7-5.6,0.9c4.7-1,4.8-18,4.8-18l0,0c0-0.2,0-0.4-0.1-0.6
		c-1.9-26.6,19.1-33.5,24.2-36c5.6-2.8,10.1-7.2,10.1-7.2l1.9-2.4c0,0,0,0,5.8,0c-1.1,4.6,1.4,9.2,3.4,16.8c1,3.8,1.8,8.4,2,14.2
		c0.5,17.4-12,24.4-7.6,38.1c3.1,4.6,5.1,9.2,6.1,13.5l0,0c0,0,4.1,8,3.4,18.6c-0.5-4.1-3-8-3-8s1.5,8.2-2.3,15.6c0.9-5-0.7-7-0.7-7
		s-1.1,12.8-16.7,13.3c1.2,1.1,15.5,10,14,25c-2-6.9-7.5-8.3-7.5-8.3c6.2,16.6,4.1,26.2,0.2,32.4c1.4-5.8-0.2-8.9-0.6-9.1
		c-10.1-0.9-7,23-1.3,21c-8.2,2.9-10.1-4.1-10.1-4.1v0c-6.1,6.1-14.8,10.1-26.2,9.3c7.2-2.2,10-8.8,9.9-10.8c-6.2,4-11,2.1-11,2.1
		s8-3.8,5.6-11.4c-0.9-3.2-3.6-5.3-3.6-5.3s2.5,7-5,7.2c3.6-4.4,0.4-8.8,0.4-8.8s-0.2,3.2-3.2,4.2
		C127.6,252.7,117.4,247.6,118,231.4z"/>
	<path fill="#382800" d="M318.4,116.4"/>
</g>
<rect id="position" display="none" fill="none" stroke="#000000" width="500" height="500"/>
<g id="bounds_3_" display="none">
	
		<rect x="67.4" y="-10.4" display="inline" fill="none" stroke="#000000" stroke-width="1.4157" stroke-miterlimit="10" width="365.2" height="365.2"/>
</g>
</svg>
