<?xml version="1.0" encoding="utf-8"?>
<!-- Generator: Adobe Illustrator 18.0.0, SVG Export Plug-In . SVG Version: 6.00 Build 0)  -->
<!DOCTYPE svg PUBLIC "-//W3C//DTD SVG 1.1//EN" "http://www.w3.org/Graphics/SVG/1.1/DTD/svg11.dtd">
<svg version="1.1" id="content" xmlns="http://www.w3.org/2000/svg" xmlns:xlink="http://www.w3.org/1999/xlink" x="0px" y="0px"
	 width="500px" height="500px" viewBox="0 0 500 500" enable-background="new 0 0 500 500" xml:space="preserve">
<g id="hair">
	<path fill="#382800" d="M319.8,91h-70.3h-0.5h-70.3c0,0-80.6,183.6,14.6,216.3c-6.7-13.9,6.9-13.3,6.9-13.3s10.2,18.3,31.9,25.1
		c-7.4-9.9-3.1-16.4-3.1-16.4s7.9,8.7,20,13.7c0,0.1,0,0.1,0,0.2c0.1,0,0.1-0.1,0.2-0.1c0.1,0,0.1,0.1,0.2,0.1c0-0.1,0-0.1,0-0.2
		c12.1-5,20-13.7,20-13.7s4.3,6.5-3.1,16.4c21.7-6.8,31.9-25.1,31.9-25.1s13.6-0.6,6.9,13.3C400.4,274.5,319.8,91,319.8,91z"/>
	<path fill="#382800" d="M170.8,72.1c0,0-7.4-35,26.2-38c23.4-1.9,32.3,7.1,34,15.8c5.8-19.1,30.8-27.7,56.9-21.5
		c26.1,6.2,40,17.5,40.8,43.7"/>
</g>
<rect id="position" display="none" fill="none" stroke="#000000" width="500" height="500"/>
<g id="bounds_3_" display="none">
	
		<rect x="67.4" y="-10.4" display="inline" fill="none" stroke="#000000" stroke-width="1.4157" stroke-miterlimit="10" width="365.2" height="365.2"/>
</g>
</svg>
