<?xml version="1.0" encoding="utf-8"?>
<!-- Generator: Adobe Illustrator 18.0.0, SVG Export Plug-In . SVG Version: 6.00 Build 0)  -->
<!DOCTYPE svg PUBLIC "-//W3C//DTD SVG 1.1//EN" "http://www.w3.org/Graphics/SVG/1.1/DTD/svg11.dtd">
<svg version="1.1" id="content" xmlns="http://www.w3.org/2000/svg" xmlns:xlink="http://www.w3.org/1999/xlink" x="0px" y="0px"
	 width="500px" height="500px" viewBox="0 0 500 500" enable-background="new 0 0 500 500" xml:space="preserve">
<rect id="position" display="none" fill="none" stroke="#000000" width="500" height="500"/>
<g id="bounds" display="none">
	<rect x="0.2" y="80.2" display="inline" fill="none" stroke="#EAEAEA" stroke-miterlimit="10" width="499.5" height="499.5"/>
</g>
<g>
	<g id="hair">
		<path fill="#382800" d="M327.3,240h-76.9h-0.5H173c0,0-88.1,200.8,16,236.5c-7.3-15.2,7.5-14.5,7.5-14.5s11.2,20,34.9,27.4
			c-8.1-10.8-3.4-17.9-3.4-17.9s8.6,9.5,21.9,15c0,0.1,0,0.1,0,0.2c0.1,0,0.1-0.1,0.2-0.1c0.1,0,0.1,0.1,0.2,0.1c0-0.1,0-0.1,0-0.2
			c13.2-5.5,21.9-15,21.9-15s4.7,7.1-3.4,17.9c23.7-7.4,34.9-27.4,34.9-27.4s14.9-0.7,7.5,14.5C415.5,440.7,327.3,240,327.3,240z"/>
		<path fill="#382800" d="M164.4,219.3c0,0-8.1-38.3,28.7-41.6c25.6-2.1,35.3,7.8,37.2,17.3c6.3-20.9,33.7-30.3,62.2-23.5
			c28.5,6.8,43.7,19.1,44.6,47.8"/>
	</g>
	<g>
		<path fill="#C9C8CE" d="M307.1,231.6l22-32c1.3-1.9,1-4.4-0.7-5.6c-1.7-1.2-4.2-0.6-5.5,1.3l-22.9,33.3
			c-15.1-5.9-31.9-9.3-49.5-9.3s-34.4,3.3-49.5,9.3l-22.9-33.3c-1.3-1.9-3.8-2.5-5.5-1.3c-1.7,1.2-2,3.7-0.7,5.6l22.1,32
			c-35.1,16.3-59.7,47.3-62.8,83.5h238.7C366.8,278.9,342.2,247.9,307.1,231.6"/>
		<g>
			<path fill="#FFFFFF" d="M200.7,282c-7.3,0-13.2-5.9-13.2-13.2c0-7.3,5.9-13.2,13.2-13.2c7.3,0,13.2,5.9,13.2,13.2
				C213.9,276.1,208,282,200.7,282"/>
			<path fill="#FFFFFF" d="M300.4,282c-7.3,0-13.2-5.9-13.2-13.2c0-7.3,5.9-13.2,13.2-13.2c7.3,0,13.2,5.9,13.2,13.2
				C313.6,276.1,307.7,282,300.4,282"/>
		</g>
	</g>
	<g>
		<path fill="#382800" d="M325.7,237.5c0,0-9.3-26.7-75.8-26.7c-34.9,0-61.2,4.7-76.7,29.2c90.5,0,153.7-2.5,153.7-2.5"/>
		<path fill="#382800" d="M393.8,393.5c-0.5-12.2-9-17.9-7.4-23.6c2.6,3.8,4.5,3.4,4.5,3.4s-6.2-5.4-1.7-13.8
			c4.6-8.6,4.8-26.7-5.7-30c-6.1-2-8.4-4.9-9-10.8c1.7,1.7,3.8,1.9,6.1,1c-5.1-1.1-5.2-19.7-5.2-19.7l0,0c0-0.2,0-0.4,0.1-0.7
			c2.1-29.1-20.9-36.6-26.5-39.4c-6.1-3.1-11-7.9-11-7.9l-2.1-2.6c0,0,0,0-6.3,0c1.2,5-1.5,10.1-3.7,18.4c-1.1,4.2-2,9.2-2.2,15.5
			c-0.5,19,13.1,26.7,8.3,41.7c-3.4,5-5.6,10.1-6.7,14.8l0,0c0,0-4.5,8.7-3.7,20.3c0.5-4.5,3.3-8.7,3.3-8.7s-1.6,9,2.5,17.1
			c-1-5.5,0.8-7.7,0.8-7.7s1.2,14,18.3,14.5c-1.3,1.2-17,10.9-15.3,27.3c2.2-7.5,8.2-9.1,8.2-9.1c-6.8,18.2-4.5,28.7-0.2,35.4
			c-1.5-6.3,0.2-9.7,0.7-10c11-1,7.7,25.2,1.4,23c9,3.2,11-4.5,11-4.5l0,0c6.7,6.7,16.2,11,28.7,10.2c-7.9-2.4-10.9-9.6-10.8-11.8
			c6.8,4.4,12,2.3,12,2.3s-8.7-4.2-6.1-12.5c1-3.5,3.9-5.8,3.9-5.8s-2.7,7.7,5.5,7.9c-3.9-4.8-0.4-9.6-0.4-9.6s0.2,3.5,3.5,4.6
			C383.4,416.8,394.5,411.3,393.8,393.5z"/>
		<path fill="#382800" d="M106.7,393.5c0.5-12.2,9-17.9,7.4-23.6c-2.6,3.8-4.5,3.4-4.5,3.4s6.2-5.4,1.7-13.8
			c-4.6-8.6-4.8-26.7,5.7-30c6.1-2,8.4-4.9,9-10.8c-1.7,1.7-3.8,1.9-6.1,1c5.1-1.1,5.2-19.7,5.2-19.7l0,0c0-0.2,0-0.4-0.1-0.7
			c-2.1-29.1,20.9-36.6,26.5-39.4c6.1-3.1,11-7.9,11-7.9l2.1-2.6c0,0,0,0,6.3,0c-1.2,5,1.5,10.1,3.7,18.4c1.1,4.2,2,9.2,2.2,15.5
			c0.5,19-13.1,26.7-8.3,41.7c3.4,5,5.6,10.1,6.7,14.8l0,0c0,0,4.5,8.7,3.7,20.3c-0.5-4.5-3.3-8.7-3.3-8.7s1.6,9-2.5,17.1
			c1-5.5-0.8-7.7-0.8-7.7s-1.2,14-18.3,14.5c1.3,1.2,17,10.9,15.3,27.3c-2.2-7.5-8.2-9.1-8.2-9.1c6.8,18.2,4.5,28.7,0.2,35.4
			c1.5-6.3-0.2-9.7-0.7-10c-11-1-7.7,25.2-1.4,23c-9,3.2-11-4.5-11-4.5l0,0c-6.7,6.7-16.2,11-28.7,10.2c7.9-2.4,10.9-9.6,10.8-11.8
			c-6.8,4.4-12,2.3-12,2.3s8.7-4.2,6.1-12.5c-1-3.5-3.9-5.8-3.9-5.8s2.7,7.7-5.5,7.9c3.9-4.8,0.4-9.6,0.4-9.6s-0.2,3.5-3.5,4.6
			C117.2,416.8,106,411.3,106.7,393.5z"/>
		<path fill="#382800" d="M325.8,267.8"/>
	</g>
	<g>
		<polyline fill="#C10606" points="327,252 164.4,252.2 164.4,219.3 337.1,219.3 337.8,252 327,252 		"/>
		<polygon fill="#EBADAD" points="179.4,235.8 172.4,231 179.4,226.2 186.4,231 		"/>
		<polygon fill="#EBADAD" points="193.5,235.8 186.5,231 193.5,226.2 200.6,231 		"/>
		<polygon fill="#EBADAD" points="207.7,235.8 200.6,231 207.7,226.2 214.7,231 		"/>
		<polygon fill="#EBADAD" points="221.8,235.8 214.8,231 221.8,226.2 228.8,231 		"/>
		<polygon fill="#EBADAD" points="235.9,235.8 228.9,231 235.9,226.2 242.9,231 		"/>
		<polygon fill="#EBADAD" points="250,235.8 243,231 250,226.2 257,231 		"/>
		<polygon fill="#EBADAD" points="264.1,235.8 257.1,231 264.1,226.2 271.1,231 		"/>
		<polygon fill="#EBADAD" points="278.2,235.8 271.2,231 278.2,226.2 285.2,231 		"/>
		<polygon fill="#EBADAD" points="292.4,235.8 285.4,231 292.4,226.2 299.4,231 		"/>
		<polygon fill="#EBADAD" points="306.5,235.8 299.5,231 306.5,226.2 313.5,231 		"/>
		<polygon fill="#EBADAD" points="320.6,235.8 313.6,231 320.6,226.2 327.6,231 		"/>
		<polygon fill="#EBADAD" points="179.4,246.7 172.4,241.9 179.4,237 186.4,241.9 		"/>
		<polygon fill="#EBADAD" points="193.5,246.7 186.5,241.9 193.5,237 200.6,241.9 		"/>
		<polygon fill="#EBADAD" points="207.7,246.7 200.6,241.9 207.7,237 214.7,241.9 		"/>
		<polygon fill="#EBADAD" points="221.8,246.7 214.8,241.9 221.8,237 228.8,241.9 		"/>
		<polygon fill="#EBADAD" points="235.9,246.7 228.9,241.9 235.9,237 242.9,241.9 		"/>
		<polygon fill="#EBADAD" points="250,246.7 243,241.9 250,237 257,241.9 		"/>
		<polygon fill="#EBADAD" points="264.1,246.7 257.1,241.9 264.1,237 271.1,241.9 		"/>
		<polygon fill="#EBADAD" points="278.2,246.7 271.2,241.9 278.2,237 285.2,241.9 		"/>
		<polygon fill="#EBADAD" points="292.4,246.7 285.4,241.9 292.4,237 299.4,241.9 		"/>
		<polygon fill="#EBADAD" points="306.5,246.7 299.5,241.9 306.5,237 313.5,241.9 		"/>
		<polygon fill="#EBADAD" points="320.6,246.7 313.6,241.9 320.6,237 327.6,241.9 		"/>
	</g>
</g>
</svg>
