<?xml version="1.0" encoding="utf-8"?>
<!-- Generator: Adobe Illustrator 18.0.0, SVG Export Plug-In . SVG Version: 6.00 Build 0)  -->
<!DOCTYPE svg PUBLIC "-//W3C//DTD SVG 1.1//EN" "http://www.w3.org/Graphics/SVG/1.1/DTD/svg11.dtd">
<svg version="1.1" id="content" xmlns="http://www.w3.org/2000/svg" xmlns:xlink="http://www.w3.org/1999/xlink" x="0px" y="0px"
	 width="500px" height="500px" viewBox="0 0 500 500" enable-background="new 0 0 500 500" xml:space="preserve">
<rect id="position" display="none" fill="none" stroke="#000000" width="500" height="500"/>
<g id="bounds" display="none">
	<rect x="0.2" y="80.2" display="inline" fill="none" stroke="#EAEAEA" stroke-miterlimit="10" width="499.5" height="499.5"/>
</g>
<g>
	<path id="hair" fill="#382800" d="M331.2,320.1c-27-19.7-24.4-28.4-25.3-38.4c-0.4-23.9-21.5-48.9-55.9-47.8
		c-34.4-1-55.5,23.9-55.9,47.8c-0.9,10.1,1.7,18.7-25.3,38.4c-36.9,26.2-35.6,51.4-35.6,51.4h116.3h0.5h0.5h116.3
		C366.9,371.5,368.1,346.3,331.2,320.1z"/>
	<g>
		<path fill="#C9C8CE" d="M315.9,330.1l25.7-37.3c1.5-2.2,1.1-5.1-0.8-6.5c-2-1.4-4.8-0.7-6.4,1.5l-26.7,38.7
			c-17.6-6.9-37.1-10.8-57.6-10.8c-20.6,0-40.1,3.9-57.6,10.8l-26.7-38.7c-1.5-2.2-4.4-2.9-6.4-1.5c-2,1.4-2.4,4.3-0.8,6.5
			l25.7,37.3c-40.8,19-69.4,55.1-73.1,97.1h277.8C385.3,385.2,356.7,349.1,315.9,330.1"/>
		<g>
			<path fill="#FFFFFF" d="M192,388.8c-8.5,0-15.4-6.9-15.4-15.4c0-8.5,6.9-15.4,15.4-15.4c8.5,0,15.4,6.9,15.4,15.4
				C207.3,381.9,200.5,388.8,192,388.8"/>
			<path fill="#FFFFFF" d="M308,388.8c-8.5,0-15.4-6.9-15.4-15.4c0-8.5,6.9-15.4,15.4-15.4c8.5,0,15.4,6.9,15.4,15.4
				C323.4,381.9,316.5,388.8,308,388.8"/>
		</g>
	</g>
	<path id="hair_3_" fill="#382800" d="M248.7,336.3c0.1-0.1,0.4-0.1,0.5-0.3c0.3,0,0.5,0,0.8,0c30.8,0,44.5-16.3,44.5-16.3
		c-22-9.4-44.5-10.9-44.5-10.9s-22.5,1.5-44.5,10.9c0,0,8,9.4,25.5,14c-0.3,0.5-0.6,0.9-0.9,1.4c-6,9.7-5.2,23.7,1.8,31.9
		c2,2.3,4.8,4.5,7.5,5.7c4.5,2,9,3.2,13.6,2.9c3.4-0.1,6.9-1.1,10.2-2.9c6.9-3.8,11.7-10.3,10.9-18.5c-0.5-5.9-7.5-10.2-13.1-7.8
		c-2.3,0.9-5.7,3.2-5.3,6c2.7-1,4.3-2.5,7.4-1.1c7,3.3,1.1,11.2-3.1,13.6c-4.6,2.5-11.2,3.4-16,1.1c-3.9-1.9-7.5-5.1-8.3-9.5
		C233.8,347.2,241,340.3,248.7,336.3z"/>
</g>
</svg>
