<?xml version="1.0" encoding="utf-8"?>
<!-- Generator: Adobe Illustrator 18.0.0, SVG Export Plug-In . SVG Version: 6.00 Build 0)  -->
<!DOCTYPE svg PUBLIC "-//W3C//DTD SVG 1.1//EN" "http://www.w3.org/Graphics/SVG/1.1/DTD/svg11.dtd">
<svg version="1.1" id="content" xmlns="http://www.w3.org/2000/svg" xmlns:xlink="http://www.w3.org/1999/xlink" x="0px" y="0px"
	 width="500px" height="500px" viewBox="0 0 500 500" enable-background="new 0 0 500 500" xml:space="preserve">
<path id="hair" fill="#382800" d="M248.5,88.2c0.1-0.1,0.3-0.1,0.4-0.2c0.2,0,0.4,0,0.6,0c24.2,0,35-12.8,35-12.8
	c-17.3-7.4-35-8.6-35-8.6s-17.7,1.2-35,8.6c0,0,6.3,7.4,20,11c-0.2,0.4-0.5,0.7-0.7,1.1c-4.7,7.6-4.1,18.6,1.4,25.1
	c1.6,1.8,3.8,3.5,5.9,4.5c3.5,1.6,7.1,2.5,10.7,2.3c2.7-0.1,5.4-0.9,8-2.3c5.4-3,9.2-8.1,8.6-14.5c-0.4-4.6-5.9-8-10.3-6.1
	c-1.8,0.7-4.5,2.5-4.2,4.7c2.1-0.8,3.4-2,5.8-0.9c5.5,2.6,0.9,8.8-2.4,10.7c-3.6,2-8.8,2.7-12.6,0.9c-3.1-1.5-5.9-4-6.5-7.5
	C236.8,96.7,242.5,91.3,248.5,88.2z"/>
<rect id="position" display="none" fill="none" stroke="#000000" width="500" height="500"/>
<g id="bounds" display="none">
	
		<rect x="107.3" y="-57.6" display="inline" fill="none" stroke="#000000" stroke-width="1.0988" stroke-miterlimit="10" width="283.5" height="283.5"/>
</g>
</svg>
