<?xml version="1.0" encoding="utf-8"?>
<!-- Generator: Adobe Illustrator 18.0.0, SVG Export Plug-In . SVG Version: 6.00 Build 0)  -->
<!DOCTYPE svg PUBLIC "-//W3C//DTD SVG 1.1//EN" "http://www.w3.org/Graphics/SVG/1.1/DTD/svg11.dtd">
<svg version="1.1" id="content" xmlns="http://www.w3.org/2000/svg" xmlns:xlink="http://www.w3.org/1999/xlink" x="0px" y="0px"
	 width="500px" height="500px" viewBox="0 0 500 500" enable-background="new 0 0 500 500" xml:space="preserve">
<path id="hair" fill="#382800" d="M320.6,93.9c-24.9-26.7-71.2-24.7-71.2-24.7s-46.2-0.9-71.1,25.7c-1.7,3.3-1.7,6.6-1.7,6.6
	s9.3-1.8,15.3-12.8c-0.5,5.5,3.1,8.3,3.1,8.3s10.9-3.3,13.5-13.6c2.8,8.2,6.2,9.1,6.2,9.1s11.5-5.4,12-14.7c0.9,7.6,6.2,12,6.2,12
	s7.1-4.4,7.7-12.7c2,9.2,8.8,12.6,8.8,12.6s6.8-3.4,8.8-12.6c0.6,8.3,7.7,12.7,7.7,12.7s5.2-4.4,6.2-12c0.5,9.3,12,14.7,12,14.7
	s3.4-0.9,6.2-9.1C293,93.7,303.8,97,303.8,97s3.6-2.8,3.1-8.3c6,11,15.3,12.8,15.3,12.8S322.3,97.2,320.6,93.9z"/>
<rect id="position" display="none" fill="none" stroke="#000000" width="500" height="500"/>
<g id="bounds">
    <rect id="bounds_1_" x="92.5" y="-84.6" display="none" fill="none" stroke="#000000" stroke-width="1.0988" stroke-miterlimit="10" width="315" height="315"/>
</g>
</svg>
