<?xml version="1.0" encoding="utf-8"?>
<!-- Generator: Adobe Illustrator 18.0.0, SVG Export Plug-In . SVG Version: 6.00 Build 0)  -->
<!DOCTYPE svg PUBLIC "-//W3C//DTD SVG 1.1//EN" "http://www.w3.org/Graphics/SVG/1.1/DTD/svg11.dtd">
<svg version="1.1" id="content" xmlns="http://www.w3.org/2000/svg" xmlns:xlink="http://www.w3.org/1999/xlink" x="0px" y="0px"
	 width="500px" height="500px" viewBox="0 0 500 500" enable-background="new 0 0 500 500" xml:space="preserve">
<rect id="position" display="none" fill="none" stroke="#000000" width="500" height="500"/>
<path id="hair" fill="#382800" d="M354.7,152.8c-4.4,2.1-11,1.4-11.3-4.6c-0.3-5.5,4.6-8.9,5.8-13.8c0.2-1,0.3-2.1,0.3-3.2
	c1.5,2.6,3.1,5.4,4.7,8.4l0,0l0,0l0,0l0,0c5.7-11.5,1.7-28.6-6.7-36.8c0,0,1.7,0.4,9.7,6.4c-11-24-32.8-30.7-32.8-30.7l0,0
	c-11.3-8.8-27-11.5-40.8-13.9c-15-2.6-30.8-3.3-45.6,1.2c-1.5,0.5-3.8,1.2-5.9,2.2c-1.8-0.7-3.7-1.2-5.5-1.4
	c-5.6-0.9-11.2-0.2-16.5,1.5c-10,3.2-18.8,7.9-27.1,14c-2.8,0.3-5.4,0.8-10.8,3.5c-9.5,4.7-13.6,9.8-16.2,13
	c-3.3,4.1-6,9.2-8.1,13.9c1.8-3,4.9-4.8,8.4-6.2c-3.9,5.7-10.5,16.4-10.5,30.4c0.8-1.9,2.6-5.3,3.7-7.1c-0.3,1.6-0.3,3.2,0.1,4.7
	c1.2,4.9,6.1,8.4,5.8,13.8c-0.3,6-6.9,6.7-11.3,4.6c-1.7-0.8-2.9-1.8-3.9-3.3c3.1,4.8,7.8,7,12.9,5.2c11.7-4.3,0.4-15.6,1.7-24.6
	c0.8-5.4,6.2-8.8,10.6-11.6c8.5-4.2,42.1-20.5,56.3-31.5c3-2.3,6-4.7,8.5-7.5c0.3-0.3,0.8-0.9,1.4-1.7c3,1.8,6.1,3.3,9.2,4.7
	c1.3,3.6,2.8,6.9,6,10c3.3,3.2,7.6,5.6,11.8,7.1c8.5,3.2,21.7,5.2,30.1,0.4c-8.4,3.4-21.6,0.4-29.2-3.1c-4.4-2-7.4-4.6-9.6-8.9
	c-0.4-0.8-0.6-1.5-0.7-2.3c14.9,5.1,30,7.1,39.1,9.3c0.8,0.2,1.9,0.4,3.3,0.7c0.4,0.1,0.7,0.2,1,0.3c8.6,2.9,46.9,13.2,51.7,34.1
	c2.1,8.9-10.3,20.4,1.6,25.2c5.9,2.3,10-1,13.1-5.8C357.7,151,356.4,152,354.7,152.8z"/>
<g id="bounds">
    <rect x="80.5" y="-106.9" display="none" fill="none" stroke="#000000" stroke-width="1.0988" stroke-miterlimit="10" width="339" height="339"/>
</g>
</svg>
