<?xml version="1.0" encoding="utf-8"?>
<!-- Generator: Adobe Illustrator 18.0.0, SVG Export Plug-In . SVG Version: 6.00 Build 0)  -->
<!DOCTYPE svg PUBLIC "-//W3C//DTD SVG 1.1//EN" "http://www.w3.org/Graphics/SVG/1.1/DTD/svg11.dtd">
<svg version="1.1" id="Layer_1" xmlns="http://www.w3.org/2000/svg" xmlns:xlink="http://www.w3.org/1999/xlink" x="0px" y="0px"
	 width="500px" height="500px" viewBox="0 0 500 500" enable-background="new 0 0 500 500" xml:space="preserve">
<path id="hair" fill="#382800" d="M344.4,18.4c-1.9-4.1-15.7-9.3-25.8-5.4c-7.8-12-24.1-13.4-24.1-13.4s2.7-14.4,22.9-14.6
	c-24.9-9.5-50.5,6.8-50.5,6.8s-1.6-8.9,12-22.1c-13.2,4.1-26.6,15.5-25.8,34.2c-6.4-11.5-17.3-17.7-35.5-20.4
	c6.8,3.9,7.8,11.8,7.8,11.8s-13.6-5.6-23.5,1.6c9.9-1,14.8,7.2,14.8,7.2s-9.9-1.6-20.2,7c0,0,11.1,2.5,11.1,11.3
	c-2.9-3.7-11.3-4.7-11.3-4.7s2.1,2.7,0,12c-6.6-19.4-29.1-24.5-29.1-24.5s9.5,9.1,10.5,22.7c-5.4-5.2-17.1-2.3-17.1-2.3
	s7.8,1,11.4,8.5c-5.7,1.4-8.3,5.4-8.3,5.4s2.9-0.6,10.9,2.7c-7.4,2.5-7.8,9.5-7.8,9.5s2.3-2.5,7.4-2.5c-9.2,17.1,0.2,32.5,5.9,39.6
	c0,1,0.1,1.7,0.1,1.7c-18.8-3-17.7,19.1-17.7,19.1s114.3,0,169.1,0c3.4-7.4-1.9-20-12.2-20.7c0-1,0-1.9-0.1-2.8
	c22.6-24,7.1-45.7,7.1-45.7s10.1-6.4,14.2-1.6c-1.2-11.5-13.4-11-13.4-11S328.7,17.1,344.4,18.4z"/>
<rect id="position" display="none" fill="none" stroke="#000000" width="500" height="500"/>
<g id="bounds">
    <rect x="80.5" y="-106.9" display="none" fill="none" stroke="#000000" stroke-width="1.0988" stroke-miterlimit="10" width="339" height="339"/>
</g>
</svg>
