<?xml version="1.0" encoding="utf-8"?>
<!-- Generator: Adobe Illustrator 18.0.0, SVG Export Plug-In . SVG Version: 6.00 Build 0)  -->
<!DOCTYPE svg PUBLIC "-//W3C//DTD SVG 1.1//EN" "http://www.w3.org/Graphics/SVG/1.1/DTD/svg11.dtd">
<svg version="1.1" id="content" xmlns="http://www.w3.org/2000/svg" xmlns:xlink="http://www.w3.org/1999/xlink" x="0px" y="0px"
	 width="500px" height="500px" viewBox="0 0 500 500" enable-background="new 0 0 500 500" xml:space="preserve">
<path fill="#382800" d="M348.6,126.5c0,0-10.5-25.7-36.5-50.5c-4.7-4.4-9.7-8.1-14.8-11.2c8.2-10.4,13.2-23.5,13.2-37.8
	c0-33.7-27.3-61-61-61s-61,27.3-61,61c0,14.3,4.9,27.4,13.2,37.8c-5.2,3.1-10.4,6.7-15.2,11.2c-32,29.3-37.3,52.9-37.3,52.9
	l61.2-18.3l24.5-24.5c4.7,1.2,9.6,1.8,14.7,1.8c4.9,0,9.7-0.6,14.3-1.7l24.4,24.4L348.6,126.5z"/>
<rect id="position" display="none" fill="none" stroke="#000000" width="500" height="500"/>
<g id="bounds">
    <rect id="bounds_1_" x="77" y="-110.5" display="none" fill="none" stroke="#000000" stroke-width="1.0988" stroke-miterlimit="10" width="346" height="346"/>
</g>
</svg>
