<?xml version="1.0" encoding="utf-8"?>
<!-- Generator: Adobe Illustrator 18.0.0, SVG Export Plug-In . SVG Version: 6.00 Build 0)  -->
<!DOCTYPE svg PUBLIC "-//W3C//DTD SVG 1.1//EN" "http://www.w3.org/Graphics/SVG/1.1/DTD/svg11.dtd">
<svg version="1.1" id="content" xmlns="http://www.w3.org/2000/svg" xmlns:xlink="http://www.w3.org/1999/xlink" x="0px" y="0px"
	 width="500px" height="500px" viewBox="0 0 500 500" enable-background="new 0 0 500 500" xml:space="preserve">
<path id="hair" fill="#382800" d="M323.9,87.3c-6.3-5.8-15.1-8.5-22.8-12c-9.6-4.3-20.1-7.2-30.4-9.2c-3.8-0.7-7.4-1.7-11.2-2.3
	c-6-0.9-11.3-0.5-17.4-0.6c-15.2,0-31.2,3.7-45.3,9.3c-3.3,1.3-6.3,3.3-8.8,5.8c-2,1.9-5.4,4.4-5.8,7.2c-0.8,5.6,5.7,12.2,11.4,11
	c2.6-0.6,4.5-2.9,6.9-3.9c3-1.3,4.6-0.2,7.4,0.8c8.3,2.7,9.3-4,14.6-8.1c6-4.7,13.9-5,21-3c1.4,0.4,2.7,0.6,4.1,0.8
	c-3.3,5.7,2.8,11.2,6.6,13.9c4.3,3.1,2.8,4.8-4.4,6.3c-7.1,1.5-7.8,5.2-3.6,9c8.4,6.6,18.6,2.4,18.6,2.4s-7.3,0.7-14-2.3
	c-6.5-4.3,0.6-5.4,7.2-7.4c6.5-2,3.3-9-2.1-12.8c-4.1-3.1-1.2-7.1,0.7-9.1c1.7-0.1,3.5-0.2,5.2-0.2c3.2,0,6.1,0.3,8.9,2
	c2.2,1.4,3.7,3.7,6.1,4.9c6.5,3.3,12.9-0.9,19.7,1c6.1,1.7,6.6,9,12.6,11.5c2.7,1.2,5.4,1.1,8.2,0.6c2.3-0.4,3.9-1.8,6.1-2.4
	c2.6-0.7,5.3,0.2,6.4-2.9C331.2,93.6,326.5,89.8,323.9,87.3z"/>
<rect id="position" display="none" fill="none" stroke="#000000" width="500" height="500"/>
<g id="bounds" display="none">
	
		<rect x="108.3" y="-49.4" display="inline" fill="none" stroke="#000000" stroke-width="1.0988" stroke-miterlimit="10" width="283.5" height="283.5"/>
</g>
</svg>
