<?xml version="1.0" encoding="utf-8"?>
<!-- Generator: Adobe Illustrator 18.0.0, SVG Export Plug-In . SVG Version: 6.00 Build 0)  -->
<!DOCTYPE svg PUBLIC "-//W3C//DTD SVG 1.1//EN" "http://www.w3.org/Graphics/SVG/1.1/DTD/svg11.dtd">
<svg version="1.1" id="content" xmlns="http://www.w3.org/2000/svg" xmlns:xlink="http://www.w3.org/1999/xlink" x="0px" y="0px"
	 width="500px" height="500px" viewBox="0 0 500 500" enable-background="new 0 0 500 500" xml:space="preserve">
<path id="hair" fill="#382800" d="M249.3,158.6c5.6,0,83.9,0,97.3,0c2.9,0,5.7,0,8.5,0c2.7,0,5.8,0.2,8-1.5
	c4.5-3.6-0.4-7.1,1.2-11.6c0.6-1.5,2.1-2.5,2.8-4c2-4.6-2.8-6.5-2.4-10.5c0.4-4.2,3.7-6.2,1.9-10.7c-1.5-4.1-6.1-4.3-4.9-9.3
	c0.9-3.8,3-6.8-0.1-10.4c-2.3-2.7-6.6-2.3-6.4-6.7c0.2-2.9,2.8-5.3,1.3-8.4c-1-2-2.9-2.3-4.8-3c-5.5-2-3.6-10.4-8-13.8
	c-1.3-1-2.9-1.1-4.2-2c-2.4-1.7-1.2-6.5-2.4-9c-2.2-4.8-8.4-2.1-11-6.1c-1.9-3-2.2-6.3-6-7.7c-2-0.7-4.1-0.5-6.2-0.7
	c-1.8-0.2-3-0.8-4.2-2.3c-2.4-2.9-5.7-5.6-9.7-4.5c-5.7,1.5-6-2.2-10.1-5.2c-1.8-1.3-3.9-2.3-6.2-2c-2.1,0.2-3.7,1.9-5.8,2.3
	c-5.7,1.1-4.7-2.6-8.7-4.6c-2.1-1-4.2-0.7-6.2,0.1c-2.7,1.1-5.6,1.5-8.6,0.5c-0.4-0.1-2.6-1.7-5-1.7c-2.3,0-4.7,1.6-5,1.7
	c-2.9,1-7.4,0.2-10.1-0.9c-2-0.8-4.1-1.1-6.2-0.1c-4.1,2-1.5,6.1-7.2,5c-2-0.4-3.7-2-5.8-2.3c-2.3-0.3-4.4,0.7-6.2,2
	c-4,3-4.4,6.7-10.1,5.2c-4-1-7.2,1.6-9.7,4.5c-1.2,1.5-2.4,2.1-4.2,2.3c-2.1,0.2-4.2,0-6.2,0.7c-3.8,1.4-4.1,4.6-6,7.7
	c-2.6,4-8.8,1.3-11,6.1c-1.1,2.5,0.1,7.3-2.4,9c-1.3,0.9-2.9,1-4.2,2c-4.3,3.4-2.5,11.7-8,13.8c-1.9,0.7-3.8,1-4.8,3
	c-1.5,3,1.1,5.4,1.3,8.4c0.2,4.4-4.1,4-6.4,6.7c-3.1,3.6-1,6.7-0.1,10.4c1.2,4.9-3.4,5.2-4.9,9.3c-1.7,4.5,1.6,6.5,1.9,10.7
	c0.4,4-4.5,5.9-2.4,10.5c0.6,1.5,2.2,2.5,2.8,4c1.6,4.4-3.3,8,1.2,11.6c2.2,1.7,5.3,1.5,8,1.5c2.9,0,5.6,0,8.5,0
	C165.4,158.6,243.7,158.6,249.3,158.6"/>
<rect id="position" display="none" fill="none" stroke="#000000" width="500" height="500"/>
<g id="bounds" display="none">
	
		<rect x="108.3" y="-49.4" display="inline" fill="none" stroke="#000000" stroke-width="1.0988" stroke-miterlimit="10" width="283.5" height="283.5"/>
</g>
</svg>
