<?xml version="1.0" encoding="utf-8"?>
<!-- Generator: Adobe Illustrator 18.0.0, SVG Export Plug-In . SVG Version: 6.00 Build 0)  -->
<!DOCTYPE svg PUBLIC "-//W3C//DTD SVG 1.1//EN" "http://www.w3.org/Graphics/SVG/1.1/DTD/svg11.dtd">
<svg version="1.1" id="content" xmlns="http://www.w3.org/2000/svg" xmlns:xlink="http://www.w3.org/1999/xlink" x="0px" y="0px"
	 width="500px" height="500px" viewBox="0 0 500 500" enable-background="new 0 0 500 500" xml:space="preserve">
<rect id="position" display="none" fill="none" stroke="#000000" width="500" height="500"/>
<g id="hair">
	<path fill="#382800" d="M248.4,62c0-1.6-1.3-2.9-3-2.9c0,0-27.7,1.8-45.1,10.2c-30.8,15.2-42.4,39.3-42.4,39.3
		c-1.4,0.8-1.3,1.2,0.3,1l87.3-9.6c0.2-1.6,0.6-4.3,1.1-5.9l1.1-4.2c0.4-1.6,0.8-4.3,0.8-5.9L248.4,62L248.4,62z"/>
	<path fill="#382800" d="M250.2,62c0-1.6,1.4-2.9,3-2.9c0,0,27.7,1.8,45.1,10.2c30.8,15.2,42.4,39.3,42.4,39.3
		c1.4,0.8,1.3,1.2-0.3,1l-87.3-9.6c-0.2-1.6-0.6-4.3-1.1-5.9l-1.1-4.2c-0.4-1.6-0.8-4.3-0.8-5.9L250.2,62L250.2,62z"/>
</g>
<g id="bounds_2_" display="none">
	
		<rect x="98.1" y="-47.9" display="inline" fill="none" stroke="#000000" stroke-width="1.1773" stroke-miterlimit="10" width="303.7" height="303.7"/>
</g>
</svg>
