<?xml version="1.0" encoding="utf-8"?>
<!-- Generator: Adobe Illustrator 18.0.0, SVG Export Plug-In . SVG Version: 6.00 Build 0)  -->
<!DOCTYPE svg PUBLIC "-//W3C//DTD SVG 1.1//EN" "http://www.w3.org/Graphics/SVG/1.1/DTD/svg11.dtd">
<svg version="1.1" id="content" xmlns="http://www.w3.org/2000/svg" xmlns:xlink="http://www.w3.org/1999/xlink" x="0px" y="0px"
	 width="500px" height="500px" viewBox="0 0 500 500" enable-background="new 0 0 500 500" xml:space="preserve">
<g id="hair">
	<path fill="#382800" d="M363.1,107.3c0.4-1.5,0.6-3,0.6-4.6c0-10.1-8.2-18.3-18.3-18.3c-8.8,0-16.2,6.3-17.9,14.6
		c-7.4-6.2-18.7-15.3-26.9-20.2c-13.1-7.8-47.5-11.5-47.5-11.5c-1.6,0-3,0.6-3,1.3s0,13.9,0,13.9c0,1.6,1.7,3.3,2.7,3.7
		c1,0.4,22-1.8,43,8.5c14.8,7.3,29.2,21.2,36.1,28.4c-1.1,3.2-1.7,6.7-1.7,10.3c0,15.4,10.8,27.9,24.2,27.9s24.2-12.5,24.2-27.9
		C378.8,121.4,372.3,111.2,363.1,107.3z"/>
	<path fill="#382800" d="M245.4,67.4c0,0-34.4,3.7-47.5,11.5c-8.1,4.9-19.5,14-26.9,20.2c-1.7-8.3-9.1-14.6-17.9-14.6
		c-10.1,0-18.3,8.2-18.3,18.3c0,1.6,0.2,3.1,0.6,4.6c-9.2,4-15.7,14.2-15.7,26.1c0,15.4,10.8,27.9,24.2,27.9
		c13.4,0,24.2-12.5,24.2-27.9c0-3.6-0.6-7.1-1.7-10.3c6.9-7.2,21.2-21.1,36.1-28.4c21-10.3,42-8.1,43-8.5c1-0.4,2.7-2,2.7-3.7
		c0,0,0-13.1,0-13.9S247.1,67.4,245.4,67.4z"/>
</g>
<rect id="position" display="none" fill="none" stroke="#000000" width="500" height="500"/>
<g id="bounds_2_" display="none">
	
		<rect x="98.1" y="-47.9" display="inline" fill="none" stroke="#000000" stroke-width="1.1773" stroke-miterlimit="10" width="303.7" height="303.7"/>
</g>
</svg>
