<?xml version="1.0" encoding="utf-8"?>
<!-- Generator: Adobe Illustrator 18.0.0, SVG Export Plug-In . SVG Version: 6.00 Build 0)  -->
<!DOCTYPE svg PUBLIC "-//W3C//DTD SVG 1.1//EN" "http://www.w3.org/Graphics/SVG/1.1/DTD/svg11.dtd">
<svg version="1.1" id="content" xmlns="http://www.w3.org/2000/svg" xmlns:xlink="http://www.w3.org/1999/xlink" x="0px" y="0px"
	 width="500px" height="500px" viewBox="0 0 500 500" enable-background="new 0 0 500 500" xml:space="preserve">
<rect id="position" display="none" fill="none" stroke="#000000" width="500" height="500"/>
<g id="bounds" display="none">
	<rect x="0.2" y="80.2" display="inline" fill="none" stroke="#EAEAEA" stroke-miterlimit="10" width="499.5" height="499.5"/>
</g>
<g>
	<g>
		<path fill="#C9C8CE" d="M322.7,300.8l28.3-41.1c1.7-2.4,1.3-5.7-0.9-7.2c-2.2-1.5-5.3-0.8-7,1.7l-29.4,42.7
			c-19.4-7.6-40.9-11.9-63.6-11.9c-22.7,0-44.2,4.3-63.6,11.9L157,254.2c-1.7-2.4-4.8-3.2-7-1.7c-2.2,1.5-2.6,4.7-0.9,7.2l28.3,41.1
			c-45,20.9-76.6,60.8-80.6,107.2h306.6C399.3,361.5,367.7,321.7,322.7,300.8"/>
		<g>
			<path fill="#FFFFFF" d="M186,365.6c-9.4,0-17-7.6-17-17c0-9.4,7.6-17,17-17c9.4,0,17,7.6,17,17C202.9,358,195.3,365.6,186,365.6"
				/>
			<path fill="#FFFFFF" d="M314,365.6c-9.4,0-17-7.6-17-17c0-9.4,7.6-17,17-17c9.4,0,17,7.6,17,17C331,358,323.4,365.6,314,365.6"/>
		</g>
	</g>
	<g id="hair_2_">
		<path fill="#382800" d="M288.3,295.7c0,0,31.5,0.1,70.9,28.6c-40.2-46.9-97.9-48.3-109.2-48.2c-11.3-0.1-67.6,1.3-107.8,48.2
			c39.4-28.5,69.5-28.6,69.5-28.6l-6.6,10.2l15.7-0.6l-1.4,9.8l12.9-3.1l0.9,9.9l10.1-6l6.7,9.7l6.7-9.7l10.1,6l0.9-9.9l12.9,3.1
			l-1.4-9.8l15.7,0.6L288.3,295.7z"/>
	</g>
</g>
</svg>
