<?xml version="1.0" encoding="utf-8"?>
<!-- Generator: Adobe Illustrator 16.0.0, SVG Export Plug-In . SVG Version: 6.00 Build 0)  -->
<!DOCTYPE svg PUBLIC "-//W3C//DTD SVG 1.1//EN" "http://www.w3.org/Graphics/SVG/1.1/DTD/svg11.dtd">
<svg version="1.1" id="content" xmlns="http://www.w3.org/2000/svg" xmlns:xlink="http://www.w3.org/1999/xlink" x="0px" y="0px"
	 width="500px" height="500px" viewBox="0 0 500 500" enable-background="new 0 0 500 500" xml:space="preserve">
<g id="hair">
	<path fill="#382800" d="M276.795,79.71c0,0,22.407,0.083,50.49,20.387c-28.59-33.387-69.676-34.394-77.729-34.348
		c-8.056-0.046-48.141,0.961-76.729,34.348c28.083-20.304,49.49-20.387,49.49-20.387L217.615,87l11.146-0.456l-0.979,6.956
		l9.156-2.203l0.676,7.036l7.167-4.25l4.775,6.877l4.775-6.877l7.167,4.25l0.676-7.036l9.157,2.203l-0.979-6.956L281.5,87
		L276.795,79.71z"/>
</g>
<g id="bounds" display="none">
	
		<rect x="118.281" y="-7.281" display="inline" fill="none" stroke="#000000" stroke-width="1.0056" stroke-miterlimit="10" width="259.438" height="259.438"/>
</g>
<rect id="position" display="none" fill="none" stroke="#000000" width="500" height="500"/>
</svg>
