<?xml version="1.0" encoding="utf-8"?>
<!-- Generator: Adobe Illustrator 18.0.0, SVG Export Plug-In . SVG Version: 6.00 Build 0)  -->
<!DOCTYPE svg PUBLIC "-//W3C//DTD SVG 1.1//EN" "http://www.w3.org/Graphics/SVG/1.1/DTD/svg11.dtd">
<svg version="1.1" id="content" xmlns="http://www.w3.org/2000/svg" xmlns:xlink="http://www.w3.org/1999/xlink" x="0px" y="0px"
	 width="500px" height="500px" viewBox="0 0 500 500" enable-background="new 0 0 500 500" xml:space="preserve">
<rect id="position" display="none" fill="none" stroke="#000000" width="500" height="500"/>
<g id="bounds" display="none">
	<rect x="0.2" y="80.2" display="inline" fill="none" stroke="#EAEAEA" stroke-miterlimit="10" width="499.5" height="499.5"/>
</g>
<g>
	<g>
		<path fill="#C9C8CE" d="M322.5,301.1l28.2-41c1.7-2.4,1.3-5.6-0.9-7.1c-2.2-1.5-5.3-0.8-7,1.7l-29.3,42.6
			c-19.3-7.6-40.8-11.9-63.4-11.9s-44.1,4.2-63.5,11.9l-29.3-42.6c-1.7-2.4-4.8-3.2-7-1.7c-2.2,1.5-2.6,4.7-0.9,7.1l28.2,41
			C132.6,322,101.1,361.7,97.1,408h305.8C398.9,361.7,367.4,322,322.5,301.1"/>
		<g>
			<path fill="#FFFFFF" d="M186.1,365.7c-9.3,0-16.9-7.6-16.9-16.9c0-9.3,7.6-16.9,16.9-16.9c9.3,0,16.9,7.6,16.9,16.9
				C203,358.1,195.5,365.7,186.1,365.7"/>
			<path fill="#FFFFFF" d="M313.9,365.7c-9.3,0-16.9-7.6-16.9-16.9c0-9.3,7.6-16.9,16.9-16.9c9.3,0,16.9,7.6,16.9,16.9
				C330.8,358.1,323.2,365.7,313.9,365.7"/>
		</g>
	</g>
	<g id="hair">
		<path fill="#382800" d="M250,278.1c0,0-59.7-5-109.6,47.2c0,0,68.2-48.4,109.6,0c41.4-48.4,109.6,0,109.6,0
			C309.7,273.1,250,278.1,250,278.1z"/>
	</g>
</g>
</svg>
