<?xml version="1.0" encoding="utf-8"?>
<!-- Generator: Adobe Illustrator 14.0.0, SVG Export Plug-In . SVG Version: 6.00 Build 43363)  -->
<!DOCTYPE svg PUBLIC "-//W3C//DTD SVG 1.1//EN" "http://www.w3.org/Graphics/SVG/1.1/DTD/svg11.dtd">
<svg version="1.1" id="content" xmlns="http://www.w3.org/2000/svg" xmlns:xlink="http://www.w3.org/1999/xlink" x="0px" y="0px"
	 width="500px" height="500px" viewBox="0 0 500 500" enable-background="new 0 0 500 500" xml:space="preserve">
<g id="bounds" display="none">
	
		<rect x="118.281" y="-7.281" display="inline" fill="none" stroke="#000000" stroke-width="1.0056" stroke-miterlimit="10" width="259.438" height="259.438"/>
</g>
<rect id="position" x="0" y="0" display="none" fill="none" stroke="#000000" width="500" height="500"/>
<g id="hair">
	<path fill="#F2BC5C" d="M262.425,61.76c-0.015-0.173-11.449-38.075-11.449-38.075c-0.319-1.055-1.291-1.777-2.395-1.777
		c-1.103,0-2.073,0.723-2.394,1.777c0,0-11.432,37.902-11.447,38.075H262.425z"/>
	<polygon fill="#EAD9C3" points="238.25,61.76 247.563,26.625 244.625,61.76 	"/>
	<path fill="#382800" d="M240.246,43.407h16.676c-0.234-0.778-0.47-1.557-0.703-2.333h-15.271
		C240.715,41.85,240.48,42.629,240.246,43.407z"/>
	<path fill="#382800" d="M237.288,53.241h22.594c-0.227-0.75-0.46-1.528-0.702-2.333h-21.19
		C237.747,51.713,237.514,52.491,237.288,53.241z"/>
	<path fill="#382800" d="M243.207,33.574h10.751c-0.244-0.809-0.479-1.591-0.704-2.333h-9.344
		C243.687,31.983,243.451,32.765,243.207,33.574z"/>
	<polygon fill="#382800" points="282.835,76.51 297.325,66.85 271.418,64.519 276.688,56.75 248.584,60.831 220.479,56.75 
		225.749,64.519 199.84,66.85 214.332,76.51 202.036,90.934 221.797,90.547 220.479,105.307 239.362,97.15 248.584,107.25 
		257.805,97.15 276.688,105.307 275.37,90.547 295.13,90.934 	"/>
</g>
</svg>
