<?xml version="1.0" encoding="utf-8"?>
<!-- Generator: Adobe Illustrator 18.0.0, SVG Export Plug-In . SVG Version: 6.00 Build 0)  -->
<!DOCTYPE svg PUBLIC "-//W3C//DTD SVG 1.1//EN" "http://www.w3.org/Graphics/SVG/1.1/DTD/svg11.dtd">
<svg version="1.1" id="content" xmlns="http://www.w3.org/2000/svg" xmlns:xlink="http://www.w3.org/1999/xlink" x="0px" y="0px"
	 width="500px" height="500px" viewBox="0 0 500 500" enable-background="new 0 0 500 500" xml:space="preserve">
<path id="hair" fill="#382800" d="M250.3,66.7c-20.8,0-38,5.7-40.5,12.2l4.3,9.4l2.6-5.8l4.5,9.9l3.3-7.3l4.5,9.9l3.8-8.3l4.5,9.9
	l4.1-9.1l4.5,9.9l4.5-9.9l4.5,9.9l4.5-9.9l4.1,9.1l4.5-9.9l3.8,8.3l4.5-9.9l3.3,7.3l4.5-9.9l2.6,5.8l4.2-9.3
	C288.2,72.8,271.1,66.7,250.3,66.7z"/>
<rect id="position" display="none" fill="none" stroke="#000000" width="500" height="500"/>
<g id="bounds_1_" display="none">
	
		<rect x="120.3" y="-25.5" display="inline" fill="none" stroke="#000000" stroke-width="1.0056" stroke-miterlimit="10" width="259.4" height="259.4"/>
</g>
</svg>
