<?xml version="1.0" encoding="utf-8"?>
<!-- Generator: Adobe Illustrator 18.0.0, SVG Export Plug-In . SVG Version: 6.00 Build 0)  -->
<!DOCTYPE svg PUBLIC "-//W3C//DTD SVG 1.1//EN" "http://www.w3.org/Graphics/SVG/1.1/DTD/svg11.dtd">
<svg version="1.1" id="content" xmlns="http://www.w3.org/2000/svg" xmlns:xlink="http://www.w3.org/1999/xlink" x="0px" y="0px"
	 width="500px" height="500px" viewBox="0 0 500 500" enable-background="new 0 0 500 500" xml:space="preserve">
<path id="hair" fill="#382800" d="M256.5,104l-3-4c-1-1.3-2-2.7-3-4.1c-1.9-2.8-3.7-5.7-5.3-8.7c-1.5-3-2.9-6.2-3.8-9.6
	c-0.9-3.4-1.5-6.9-1.5-10.5c0-0.9,0-1.8,0.1-2.7c0-0.5,0.1-0.9,0.1-1.4c0.1-0.4,0.1-0.8,0.2-1.3c0.3-1.9,0.8-3.6,1.5-5.4
	c1.4-3.5,3.7-6.8,6.8-9.1c1.5-1.2,3.1-2.1,4.8-2.9c0.9-0.4,1.7-0.7,2.6-1.1c1.1-0.4,2.1-0.5,3.2-0.6c2-0.1,4,0.1,5.9,0.6
	c1.9,0.5,3.8,1.3,5.5,2.5c1.7,1.2,3.3,2.9,4.2,5.2c0.4,1.1,0.7,2.3,0.7,3.5l0,0.2l0,0.2l0,0.3c0,0.2,0,0.6-0.1,0.9
	c-0.1,0.5-0.1,1.1-0.3,1.6c-0.5,2.2-1.7,4.2-3.4,5.7c-1.6,1.5-3.7,2.5-5.9,2.9c-2.2,0.4-4.5,0.2-6.4-0.6c-2-0.8-3.8-2.1-5.2-3.8
	c-1.4-1.7-2.1-3.9-2.3-6c0-0.5-0.1-1,0-1.6l0-0.3l0-0.4c0-0.3,0.1-0.5,0.1-0.8c0.1-1,0.4-2,0.7-2.9c1.3-3.7,3.7-6.6,6.4-9
	c2.7-2.4,5.9-4.1,9.1-5.4c6.6-2.5,13.7-2.7,20.2-1c-6.7-0.2-13.3,1-19,3.9c-2.8,1.4-5.4,3.3-7.5,5.5c-2.1,2.2-3.8,4.8-4.5,7.5
	c-0.2,0.7-0.3,1.3-0.4,2c0,0.2,0,0.3,0,0.5l0,0.2v0.3c0,0.3,0,0.6,0.1,0.9c0.2,1.2,0.6,2.3,1.4,3.2c1.5,1.8,4.1,2.6,6.3,2.1
	c1.1-0.2,2.2-0.8,3-1.5c0.8-0.8,1.3-1.7,1.6-2.8c0.1-0.3,0.1-0.6,0.1-0.8l0-0.4l0-0.3l0-0.1v0c0,0,0-0.1,0,0l0-0.1
	c0-0.5-0.1-1-0.3-1.4c-0.3-0.9-1.1-1.7-2.1-2.4c-2-1.4-5-2.2-7.6-2c-0.6,0-1.3,0.1-1.7,0.3c-0.6,0.2-1.4,0.5-2,0.8
	c-1.3,0.6-2.6,1.3-3.7,2.2c-2.3,1.7-4.1,3.9-5.3,6.6c-0.6,1.3-1.1,2.8-1.4,4.2c-0.1,0.3-0.2,0.8-0.2,1.2c0,0.3-0.1,0.7-0.2,1.1
	c-0.1,0.8-0.2,1.5-0.2,2.3c-0.2,3.1,0.1,6.2,0.7,9.4c0.6,3.1,1.5,6.3,2.7,9.3c1.1,3.1,2.5,6.1,3.9,9.1
	C253.4,98,255.1,100.9,256.5,104z"/>
<rect id="position" display="none" fill="none" stroke="#000000" width="500" height="500"/>
<g id="bounds_1_" display="none">
	
		<rect x="120.3" y="-33.3" display="inline" fill="none" stroke="#000000" stroke-width="1.0056" stroke-miterlimit="10" width="259.4" height="259.4"/>
</g>
</svg>
