<?xml version="1.0" encoding="utf-8"?>
<!-- Generator: Adobe Illustrator 18.0.0, SVG Export Plug-In . SVG Version: 6.00 Build 0)  -->
<!DOCTYPE svg PUBLIC "-//W3C//DTD SVG 1.1//EN" "http://www.w3.org/Graphics/SVG/1.1/DTD/svg11.dtd">
<svg version="1.1" id="content" xmlns="http://www.w3.org/2000/svg" xmlns:xlink="http://www.w3.org/1999/xlink" x="0px" y="0px"
	 width="500px" height="500px" viewBox="0 0 500 500" enable-background="new 0 0 500 500" xml:space="preserve">
<rect id="position" display="none" fill="none" stroke="#000000" width="500" height="500"/>
<g id="bounds" display="none">
	<rect x="0.2" y="80.2" display="inline" fill="none" stroke="#EAEAEA" stroke-miterlimit="10" width="499.5" height="499.5"/>
</g>
<g>
	<path id="hair_1_" fill="#382800" d="M258.8,339.1l-3.8-5.1c-1.3-1.6-2.5-3.4-3.8-5.2c-2.4-3.5-4.7-7.2-6.7-11
		c-1.9-3.8-3.7-7.8-4.8-12.1c-1.1-4.3-1.9-8.7-1.9-13.3c0-1.1,0-2.3,0.1-3.4c0-0.6,0.1-1.1,0.1-1.8c0.1-0.5,0.1-1,0.3-1.6
		c0.4-2.4,1-4.5,1.9-6.8c1.8-4.4,4.7-8.6,8.6-11.5c1.9-1.5,3.9-2.7,6.1-3.7c1.1-0.5,2.1-0.9,3.3-1.4c1.4-0.5,2.7-0.6,4-0.8
		c2.5-0.1,5.1,0.1,7.5,0.8c2.4,0.6,4.8,1.6,7,3.2c2.1,1.5,4.2,3.7,5.3,6.6c0.5,1.4,0.9,2.9,0.9,4.4v0.3v0.3v0.4c0,0.3,0,0.8-0.1,1.1
		c-0.1,0.6-0.1,1.4-0.4,2c-0.6,2.8-2.1,5.3-4.3,7.2c-2,1.9-4.7,3.2-7.5,3.7c-2.8,0.5-5.7,0.3-8.1-0.8c-2.5-1-4.8-2.7-6.6-4.8
		c-1.8-2.1-2.7-4.9-2.9-7.6c0-0.6-0.1-1.3,0-2v-0.4v-0.5c0-0.4,0.1-0.6,0.1-1c0.1-1.3,0.5-2.5,0.9-3.7c1.6-4.7,4.7-8.3,8.1-11.4
		c3.4-3,7.5-5.2,11.5-6.8c8.3-3.2,17.3-3.4,25.5-1.3c-8.5-0.3-16.8,1.3-24,4.9c-3.5,1.8-6.8,4.2-9.5,7c-2.7,2.8-4.8,6.1-5.7,9.5
		c-0.3,0.9-0.4,1.6-0.5,2.5c0,0.3,0,0.4,0,0.6v0.3v0.4c0,0.4,0,0.8,0.1,1.1c0.3,1.5,0.8,2.9,1.8,4c1.9,2.3,5.2,3.3,8,2.7
		c1.4-0.3,2.8-1,3.8-1.9c1-1,1.6-2.1,2-3.5c0.1-0.4,0.1-0.8,0.1-1v-0.5v-0.4v-0.1l0,0c0,0,0-0.1,0,0v-0.1c0-0.6-0.1-1.3-0.4-1.8
		c-0.4-1.1-1.4-2.1-2.7-3c-2.5-1.8-6.3-2.8-9.6-2.5c-0.8,0-1.6,0.1-2.1,0.4c-0.8,0.3-1.8,0.6-2.5,1c-1.6,0.8-3.3,1.6-4.7,2.8
		c-2.9,2.1-5.2,4.9-6.7,8.3c-0.8,1.6-1.4,3.5-1.8,5.3c-0.1,0.4-0.3,1-0.3,1.5c0,0.4-0.1,0.9-0.3,1.4c-0.1,1-0.3,1.9-0.3,2.9
		c-0.3,3.9,0.1,7.8,0.9,11.9c0.8,3.9,1.9,8,3.4,11.8c1.4,3.9,3.2,7.7,4.9,11.5C254.9,331.6,257,335.2,258.8,339.1z"/>
	<g>
		<path fill="#C9C8CE" d="M315.4,313l25.5-37c1.5-2.2,1.1-5.1-0.8-6.5c-2-1.4-4.8-0.7-6.3,1.5l-26.5,38.4
			c-17.4-6.9-36.8-10.7-57.2-10.7s-39.8,3.8-57.3,10.7L166.3,271c-1.5-2.2-4.3-2.9-6.3-1.5c-2,1.4-2.4,4.2-0.8,6.5l25.5,37
			c-40.5,18.9-68.9,54.7-72.6,96.5H388C384.3,367.6,355.9,331.8,315.4,313"/>
		<g>
			<path fill="#FFFFFF" d="M192.4,371.3c-8.4,0-15.3-6.8-15.3-15.3c0-8.4,6.8-15.3,15.3-15.3c8.4,0,15.3,6.8,15.3,15.3
				C207.6,364.5,200.8,371.3,192.4,371.3"/>
			<path fill="#FFFFFF" d="M307.6,371.3c-8.4,0-15.3-6.8-15.3-15.3c0-8.4,6.8-15.3,15.3-15.3c8.4,0,15.3,6.8,15.3,15.3
				C322.9,364.5,316.1,371.3,307.6,371.3"/>
		</g>
	</g>
</g>
</svg>
