<?xml version="1.0" encoding="utf-8"?>
<!-- Generator: Adobe Illustrator 18.0.0, SVG Export Plug-In . SVG Version: 6.00 Build 0)  -->
<!DOCTYPE svg PUBLIC "-//W3C//DTD SVG 1.1//EN" "http://www.w3.org/Graphics/SVG/1.1/DTD/svg11.dtd">
<svg version="1.1" id="content" xmlns="http://www.w3.org/2000/svg" xmlns:xlink="http://www.w3.org/1999/xlink" x="0px" y="0px"
	 width="500px" height="500px" viewBox="0 0 500 500" enable-background="new 0 0 500 500" xml:space="preserve">
<rect id="position" display="none" fill="none" stroke="#000000" width="500" height="500"/>
<g id="bounds" display="none">
	<rect x="0.2" y="80.2" display="inline" fill="none" stroke="#EAEAEA" stroke-miterlimit="10" width="499.5" height="499.5"/>
</g>
<g>
	<g id="hair_2_">
		<path fill="#382800" d="M380.5,310.2l0.4,1.3c-0.3-0.4-0.6-1-0.8-1.4c4.9-2.7,12.5,0.6,12.5,0.6c-11.1-13.4-33.2-21.2-33.2-21.2
			l0.7,0.7c-0.3-0.3-0.7-0.4-1-0.7c3.8-3.4,10.8-3.5,10.8-3.5c-15-7.7-37.5-6.5-38.8-6.5c-17-1.8-33.6,3.9-44,16.9
			c-17.4,21.9-10.8,56.2,14.8,76.8c25.7,20.5,60.6,19.4,78.2-2.5c7.5-9.4,10.5-20.9,9.6-32.9c5.6-0.6,11.4,5.9,11.4,5.9
			C397,326.8,380.5,310.2,380.5,310.2z"/>
		<path fill="#382800" d="M168.4,279.6c0,0-23.3-1.5-38.8,6.3c0,0,7,0.1,10.8,3.5c-0.3,0.3-0.7,0.4-1,0.7l0.7-0.7
			c0,0-22.1,7.7-33.2,21.2c0,0,7.6-3.2,12.5-0.6c-0.3,0.4-0.6,1-1,1.4l0.4-1.4c0,0-16.4,16.6-20.5,33.6c0,0,5.6-6.5,11.4-5.9
			c-1,11.8,2.1,23.5,9.6,32.9c17.4,21.9,52.4,23.1,78.2,2.5c25.7-20.5,32.3-54.8,14.8-76.8C202,283.5,185.5,277.8,168.4,279.6z"/>
	</g>
	<g>
		<path fill="#C9C8CE" d="M322.8,300.7l28.3-41.2c1.7-2.4,1.3-5.7-0.9-7.2c-2.2-1.5-5.3-0.8-7,1.7l-29.5,42.8
			c-19.4-7.6-41-11.9-63.7-11.9s-44.3,4.3-63.7,11.9L156.9,254c-1.7-2.4-4.8-3.2-7-1.7c-2.2,1.5-2.6,4.7-0.9,7.2l28.4,41.2
			c-45.1,21-76.7,60.8-80.7,107.3h306.9C399.5,361.5,367.8,321.6,322.8,300.7"/>
		<g>
			<path fill="#FFFFFF" d="M185.9,365.5c-9.4,0-17-7.6-17-17c0-9.4,7.6-17,17-17c9.4,0,17,7.6,17,17
				C202.9,357.9,195.3,365.5,185.9,365.5"/>
			<path fill="#FFFFFF" d="M314.1,365.5c-9.4,0-17-7.6-17-17c0-9.4,7.6-17,17-17c9.4,0,17,7.6,17,17
				C331.1,357.9,323.5,365.5,314.1,365.5"/>
		</g>
	</g>
	<g id="hair_1_">
		<path fill="#382800" d="M111.9,349.7c5.9,3.2,2.2,14.3,2.2,14.3c10.8-7.3,19.5-18.8,19.5-18.8c3.4,4.9-0.4,13.2-0.4,13.2
			c13.8-10.7,22.1-32.1,22.1-32.1c4.2,4.1,2.2,13.1,2.2,13.1c11.2-13.2,15-36.3,15-36.3C151.2,288,111.9,349.7,111.9,349.7z"/>
		<path fill="#382800" d="M327.5,303.1c0,0,3.7,23.1,15,36.3c0,0-2-8.9,2.2-13.1c0,0,8.4,21.4,22.1,32.1c0,0-3.8-8.3-0.4-13.2
			c0,0,8.7,11.7,19.5,18.8c0,0-3.8-11,2.2-14.3C388.1,349.7,348.8,288,327.5,303.1z"/>
	</g>
</g>
</svg>
