<?xml version="1.0" encoding="utf-8"?>
<!-- Generator: Adobe Illustrator 18.0.0, SVG Export Plug-In . SVG Version: 6.00 Build 0)  -->
<!DOCTYPE svg PUBLIC "-//W3C//DTD SVG 1.1//EN" "http://www.w3.org/Graphics/SVG/1.1/DTD/svg11.dtd">
<svg version="1.1" id="content" xmlns="http://www.w3.org/2000/svg" xmlns:xlink="http://www.w3.org/1999/xlink" x="0px" y="0px"
	 width="500px" height="500px" viewBox="0 0 500 500" enable-background="new 0 0 500 500" xml:space="preserve">
<g id="hair">
	<path fill="#382800" d="M151.3,118.2c4.2,2.3,1.6,10.2,1.6,10.2c7.7-5.2,13.9-13.4,13.9-13.4c2.4,3.5-0.3,9.4-0.3,9.4
		c9.8-7.6,15.7-22.8,15.7-22.8c3,2.9,1.6,9.3,1.6,9.3c8-9.4,10.7-25.8,10.7-25.8C179.3,74.3,151.3,118.2,151.3,118.2z"/>
	<path fill="#382800" d="M304.7,85c0,0,2.6,16.4,10.7,25.8c0,0-1.4-6.3,1.6-9.3c0,0,6,15.2,15.7,22.8c0,0-2.7-5.9-0.3-9.4
		c0,0,6.2,8.3,13.9,13.4c0,0-2.7-7.8,1.6-10.2C347.8,118.2,319.8,74.3,304.7,85z"/>
</g>
<rect id="position" display="none" fill="none" stroke="#000000" width="500" height="500"/>
<g id="bounds_1_" display="none">
	
		<rect x="120.3" y="-25.5" display="inline" fill="none" stroke="#000000" stroke-width="1.0056" stroke-miterlimit="10" width="259.4" height="259.4"/>
</g>
</svg>
