<?xml version="1.0" encoding="utf-8"?>
<!-- Generator: Adobe Illustrator 18.0.0, SVG Export Plug-In . SVG Version: 6.00 Build 0)  -->
<!DOCTYPE svg PUBLIC "-//W3C//DTD SVG 1.1//EN" "http://www.w3.org/Graphics/SVG/1.1/DTD/svg11.dtd">
<svg version="1.1" id="content" xmlns="http://www.w3.org/2000/svg" xmlns:xlink="http://www.w3.org/1999/xlink" x="0px" y="0px"
	 width="500px" height="500px" viewBox="0 0 500 500" enable-background="new 0 0 500 500" xml:space="preserve">
<g id="hair">
	<path fill="#382800" d="M344.3,90.5c-4.2-4-11-3.4-11-3.4c2.3-3.8,7.9-4.7,7.9-4.7c-4.8-4.3-13.6-4.5-13.6-4.5
		c2.6-3.4,8.9-3.3,8.9-3.3c-26.3-19-55.2,3.8-55.2,3.8l50.1,27.7l3.5,1.5c0,0,1.3-1.9,1.2-6.1C335.9,92.8,344.3,90.5,344.3,90.5z"/>
	<path fill="#382800" d="M163,101.3c-0.1,4.3,1.2,6.1,1.2,6.1l3.5-1.5l50.1-27.7c0,0-28.9-22.8-55.2-3.8c0,0,6.3-0.1,8.9,3.3
		c0,0-8.8,0.2-13.6,4.5c0,0,5.6,0.9,7.9,4.7c0,0-6.8-0.6-11,3.4C154.8,90.5,163.2,92.8,163,101.3z"/>
</g>
<rect id="position" display="none" fill="none" stroke="#000000" width="500" height="500"/>
<g id="bounds_1_" display="none">
	
		<rect x="120.3" y="-25.4" display="inline" fill="none" stroke="#000000" stroke-width="1.0056" stroke-miterlimit="10" width="259.4" height="259.4"/>
</g>
</svg>
