<?xml version="1.0" encoding="utf-8"?>
<!-- Generator: Adobe Illustrator 18.0.0, SVG Export Plug-In . SVG Version: 6.00 Build 0)  -->
<!DOCTYPE svg PUBLIC "-//W3C//DTD SVG 1.1//EN" "http://www.w3.org/Graphics/SVG/1.1/DTD/svg11.dtd">
<svg version="1.1" id="content" xmlns="http://www.w3.org/2000/svg" xmlns:xlink="http://www.w3.org/1999/xlink" x="0px" y="0px"
	 width="500px" height="500px" viewBox="0 0 500 500" enable-background="new 0 0 500 500" xml:space="preserve">
<rect id="position" display="none" fill="none" stroke="#000000" width="500" height="500"/>
<g id="bounds" display="none">
	<rect x="0.2" y="80.2" display="inline" fill="none" stroke="#EAEAEA" stroke-miterlimit="10" width="499.5" height="499.5"/>
</g>
<g>
	<g id="hair">
		<path fill="#382800" d="M383.5,310.6c-5.9-5.6-15.5-4.8-15.5-4.8c3.2-5.4,11.1-6.6,11.1-6.6c-6.8-6.1-19.2-6.3-19.2-6.3
			c3.7-4.8,12.5-4.6,12.5-4.6c-37.1-26.8-77.8,5.4-77.8,5.4l70.6,39l4.9,2.1c0,0,1.8-2.7,1.7-8.6
			C371.6,313.8,383.5,310.6,383.5,310.6z"/>
		<path fill="#382800" d="M128,325.8c-0.1,6.1,1.7,8.6,1.7,8.6l4.9-2.1l70.6-39c0,0-40.7-32.1-77.8-5.4c0,0,8.9-0.1,12.5,4.6
			c0,0-12.4,0.3-19.2,6.3c0,0,7.9,1.3,11.1,6.6c0,0-9.6-0.8-15.5,4.8C116.5,310.6,128.3,313.8,128,325.8z"/>
	</g>
	<g>
		<path fill="#C9C8CE" d="M322.9,300.4l28.4-41.2c1.7-2.5,1.3-5.7-0.9-7.2c-2.2-1.5-5.4-0.8-7,1.7l-29.5,42.8
			c-19.5-7.7-41.1-11.9-63.8-11.9s-44.4,4.3-63.8,11.9l-29.5-42.8c-1.7-2.5-4.8-3.2-7-1.7c-2.2,1.5-2.6,4.7-0.9,7.2l28.4,41.2
			c-45.2,21-76.9,60.9-80.9,107.6h307.6C399.8,361.4,368.1,321.5,322.9,300.4"/>
		<g>
			<path fill="#FFFFFF" d="M185.8,365.5c-9.4,0-17-7.6-17-17c0-9.4,7.6-17,17-17c9.4,0,17,7.6,17,17
				C202.8,357.8,195.1,365.5,185.8,365.5"/>
			<path fill="#FFFFFF" d="M314.3,365.5c-9.4,0-17-7.6-17-17c0-9.4,7.6-17,17-17c9.4,0,17,7.6,17,17
				C331.3,357.8,323.7,365.5,314.3,365.5"/>
		</g>
	</g>
	<g id="hair_3_">
		<path fill="#382800" d="M138.9,315c7-5.6,32.4-14.2,32.4-14.2c-17.8,9.7-27.2,51.3-41.4,33.8C129.7,334.5,131,321.3,138.9,315z"/>
		<path fill="#382800" d="M370.2,334.5c-14.4,17.5-23.8-24.1-41.4-33.8c0,0,25.4,8.7,32.4,14.2C369,321.3,370.2,334.5,370.2,334.5z"
			/>
	</g>
</g>
</svg>
