<?xml version="1.0" encoding="utf-8"?>
<!-- Generator: Adobe Illustrator 18.0.0, SVG Export Plug-In . SVG Version: 6.00 Build 0)  -->
<!DOCTYPE svg PUBLIC "-//W3C//DTD SVG 1.1//EN" "http://www.w3.org/Graphics/SVG/1.1/DTD/svg11.dtd">
<svg version="1.1" id="content" xmlns="http://www.w3.org/2000/svg" xmlns:xlink="http://www.w3.org/1999/xlink" x="0px" y="0px"
	 width="500px" height="500px" viewBox="0 0 500 500" enable-background="new 0 0 500 500" xml:space="preserve">
<rect id="position" display="none" fill="none" stroke="#000000" width="500" height="500"/>
<g id="bounds" display="none">
	<rect x="0.2" y="80.2" display="inline" fill="none" stroke="#EAEAEA" stroke-miterlimit="10" width="499.5" height="499.5"/>
</g>
<g>
	<g>
		<path fill="#382800" d="M223.6,297.2c5.3-4,7.4-11.3,4.9-17.8c-0.1-0.5-0.4-0.9-0.5-1.3c-0.1-0.4-0.3-0.9-0.5-1.3
			c-2.8-6.4-9.6-9.8-16.2-8.9c2.3-6.3,0.3-13.4-5.3-17.6c-5.6-4.1-13-3.9-18.2,0.1c-0.9-6.5-6-11.8-12.8-12.9s-13.2,2.5-16.1,8.4
			c-3.7-5.3-10.5-8-17-6c-6.5,2-10.8,8-10.8,14.4c-5.6-3.2-12.9-2.7-18,1.9c-5.1,4.7-6.4,11.8-3.6,17.8c-6.5-0.5-12.9,3.3-15.4,9.7
			c-2.5,6.5-0.3,13.6,4.9,17.7c-6.1,2.7-10,9.2-8.9,16.1c0.9,6.9,6.4,12.1,13,13c-4,5.3-4.1,12.9,0.3,18.5
			c4.3,5.5,11.6,7.3,17.8,4.8c-0.8,6.5,2.8,13.2,9.2,15.8c6.4,2.7,13.4,0.8,17.7-4.1c2.1,5.9,7.8,10,14.4,10c0.3,0,0.5,0,0.8,0
			c6.8-0.4,12.4-5.2,14-11.4c4.7,4.5,11.8,5.6,17.8,2.4c6-3.2,9-10,7.7-16.2c6.1,2,13.2,0,17.3-5.6c4-5.6,3.7-13-0.3-18.2
			c6.5-0.9,12-6.1,12.9-13l0,0C233.4,306.5,229.6,300,223.6,297.2z"/>
		<path fill="#382800" d="M400.5,301.3c5.3-4,7.4-11.2,4.9-17.7l0,0c-2.5-6.4-8.8-10.2-15.3-9.7c2.8-5.9,1.5-13.2-3.6-17.8l0,0
			c-5.1-4.7-12.4-5.2-18-1.9c-0.1-6.5-4.3-12.4-10.8-14.4c-6.5-2-13.4,0.7-17,6c-2.9-5.9-9.3-9.4-16.1-8.4s-11.8,6.4-12.8,12.9
			c-5.3-4-12.6-4.3-18.2-0.1s-7.6,11.3-5.3,17.6c-6.7-0.9-13.3,2.5-16.2,8.9c-0.1,0.4-0.4,0.9-0.5,1.3c-0.3,0.4-0.4,0.8-0.5,1.3
			c-2.5,6.5-0.4,13.7,4.9,17.8c-6.1,2.7-9.8,9.2-8.9,16.1c0.9,6.9,6.4,12,12.9,13c-4,5.2-4.3,12.6-0.3,18.2c4,5.6,11,7.6,17.3,5.6
			c-1.2,6.4,1.7,13,7.7,16.2c6,3.2,13.2,2,17.8-2.4c1.6,6.3,7.2,11,14,11.4c0.3,0,0.5,0,0.8,0c6.5,0,12.1-4.1,14.4-10
			c4.3,4.9,11.3,6.8,17.7,4.1c6.4-2.8,10-9.3,9.2-15.8c6.1,2.5,13.4,0.7,17.7-4.8c4.3-5.6,4.3-13,0.3-18.5c6.7-0.9,12.1-6.1,13-13
			C410.4,310.5,406.5,304.1,400.5,301.3z"/>
	</g>
	<g>
		<path fill="#C9C8CE" d="M319.2,321l26.8-38.9c1.6-2.3,1.2-5.4-0.9-6.8c-2.1-1.4-5.1-0.7-6.6,1.6l-27.9,40.5
			c-18.4-7.2-38.8-11.3-60.3-11.3c-21.5,0-41.9,4-60.3,11.3l-27.9-40.5c-1.6-2.3-4.6-3-6.7-1.6c-2.1,1.4-2.5,4.5-0.9,6.8l26.8,38.9
			c-42.7,19.8-72.6,57.5-76.4,101.6h290.4C391.8,378.5,361.9,340.8,319.2,321"/>
		<g>
			<path fill="#FFFFFF" d="M189.7,382.4c-8.9,0-16.1-7.2-16.1-16.1c0-8.9,7.2-16.1,16.1-16.1c8.9,0,16.1,7.2,16.1,16.1
				C205.8,375.2,198.6,382.4,189.7,382.4"/>
			<path fill="#FFFFFF" d="M311.1,382.4c-8.9,0-16.1-7.2-16.1-16.1c0-8.9,7.2-16.1,16.1-16.1c8.9,0,16.1,7.2,16.1,16.1
				C327.1,375.2,319.9,382.4,311.1,382.4"/>
		</g>
	</g>
	<g>
		<path fill="#382800" d="M251.1,294.6c69.2,0,107.2,48.7,118,64.1c-6.4-0.7-14-11.4-14-11.4s-19.6-3.6-21.8-13c0,0-19-0.3-24.9-9.4
			c-16.8-0.7-34.1-2.8-57.3-2.9c-23.3,0.1-47.2,4.4-57.3,2.9c-6.8,8.6-24.9,9.4-24.9,9.4c-1.3,7.7-21.8,13-21.8,13
			s-8.5,10.5-14.9,11.2C145.4,334.8,182.1,294.6,251.1,294.6z"/>
	</g>
</g>
</svg>
