<?xml version="1.0" encoding="utf-8"?>
<!-- Generator: Adobe Illustrator 18.0.0, SVG Export Plug-In . SVG Version: 6.00 Build 0)  -->
<!DOCTYPE svg PUBLIC "-//W3C//DTD SVG 1.1//EN" "http://www.w3.org/Graphics/SVG/1.1/DTD/svg11.dtd">
<svg version="1.1" id="content" xmlns="http://www.w3.org/2000/svg" xmlns:xlink="http://www.w3.org/1999/xlink" x="0px" y="0px"
	 width="500px" height="500px" viewBox="0 0 500 500" enable-background="new 0 0 500 500" xml:space="preserve">
<rect id="position" display="none" fill="none" stroke="#000000" width="500" height="500"/>
<g>
	<path fill="#382800" d="M250.1,63.5c52,0,80.6,36.6,88.7,48.2c-4.8-0.5-10.5-8.6-10.5-8.6s-14.7-2.7-16.4-9.8
		c0,0-14.3-0.2-18.7-7.1c-12.6-0.5-25.6-2.1-43.1-2.2c-17.5,0.1-35.5,3.3-43.1,2.2c-5.1,6.5-18.7,7.1-18.7,7.1
		c-1,5.8-16.4,9.8-16.4,9.8s-6.4,7.9-11.2,8.4C170.6,93.7,198.2,63.5,250.1,63.5z"/>
</g>
<g id="bounds_1_" display="none">
	
		<rect x="105.3" y="-54.6" display="inline" fill="none" stroke="#000000" stroke-width="1.122" stroke-miterlimit="10" width="289.4" height="289.4"/>
</g>
</svg>
