<?xml version="1.0" encoding="utf-8"?>
<!-- Generator: Adobe Illustrator 16.0.0, SVG Export Plug-In . SVG Version: 6.00 Build 0)  -->
<!DOCTYPE svg PUBLIC "-//W3C//DTD SVG 1.1//EN" "http://www.w3.org/Graphics/SVG/1.1/DTD/svg11.dtd">
<svg version="1.1" id="content" xmlns="http://www.w3.org/2000/svg" xmlns:xlink="http://www.w3.org/1999/xlink" x="0px" y="0px"
	 width="500px" height="500px" viewBox="0 0 500 500" enable-background="new 0 0 500 500" xml:space="preserve">
<rect id="position" display="none" fill="none" stroke="#000000" width="500" height="500"/>
<g id="bounds" display="none">
	
		<rect x="121.7" y="-34.3" display="inline" fill="none" stroke="#000000" stroke-width="0.9871" stroke-miterlimit="10" width="254.7" height="254.7"/>
</g>
<path opacity="0.1" fill="#0F050A" d="M77.803,147.75c-9.197,66,42.447,91.417,42.447,126.264c0,3.742-0.309,7.124-0.833,10.214
	C144.083,243.344,98.5,210.721,98.5,157.833c0-62,61.13-68.907,61.13-68.907l9.533-11.076
	C145.781,69.261,86.035,88.673,77.803,147.75z"/>
<path fill="#F2F2F2" d="M176.024,76.086c-3.03-1.396-6.522-1.837-10.016-0.983c-8.241,2.014-13.291,10.327-11.276,18.568
	c1.017,4.159,3.646,7.485,7.053,9.515C164.102,93.374,169.277,83.99,176.024,76.086z"/>
<path fill="#D1D1D1" d="M164.958,93.655c-5.437-0.907-8.659-3.057-10.559-5.311c-0.191,1.736-0.106,3.531,0.333,5.326
	c1.017,4.159,3.646,7.485,7.053,9.515C162.549,99.95,163.617,96.761,164.958,93.655z"/>
<path opacity="0.1" fill="#0F050A" d="M422.25,147.75c9.197,66-42.447,91.417-42.447,126.264c0,3.742,0.309,7.124,0.834,10.214
	c-24.667-40.884,20.916-73.506,20.916-126.394c0-62-61.131-68.907-61.131-68.907l-9.532-11.076
	C354.271,69.261,414.018,88.673,422.25,147.75z"/>
<path fill="#F2F2F2" d="M324.029,76.086c3.029-1.396,6.521-1.837,10.016-0.983c8.24,2.014,13.29,10.327,11.275,18.568
	c-1.017,4.159-3.646,7.485-7.053,9.515C335.951,93.374,330.775,83.99,324.029,76.086z"/>
<path fill="#D1D1D1" d="M335.095,93.655c5.437-0.907,8.659-3.057,10.559-5.311c0.191,1.736,0.106,3.531-0.333,5.326
	c-1.017,4.159-3.646,7.485-7.053,9.515C337.504,99.95,336.436,96.761,335.095,93.655z"/>
<path opacity="0.1" fill="#0F050A" d="M298.568,57.134c-20.72-8.54-35.272-5.625-44.58,0.644l-4.033,3.202l-4.032-3.202
	c-9.308-6.269-23.861-9.184-44.581-0.644c-24.062,9.917-46.823,40.32-39.507,67.958c0,0,2.315-9.946,8.33-14.545
	c0,0,0.002,11.051,5.275,18.776c-7.036-21.795,7.69-51.147,28.51-61.486c27.556-13.684,46.005,8.077,46.005,8.077
	s18.449-21.761,46.005-8.077c20.82,10.339,35.546,39.691,28.51,61.486c5.273-7.725,5.275-18.776,5.275-18.776
	c6.014,4.6,8.33,14.545,8.33,14.545C345.392,97.454,322.63,67.052,298.568,57.134z"/>
</svg>
