<?xml version="1.0" encoding="utf-8"?>
<!-- Generator: Adobe Illustrator 18.0.0, SVG Export Plug-In . SVG Version: 6.00 Build 0)  -->
<!DOCTYPE svg PUBLIC "-//W3C//DTD SVG 1.1//EN" "http://www.w3.org/Graphics/SVG/1.1/DTD/svg11.dtd">
<svg version="1.1" id="content" xmlns="http://www.w3.org/2000/svg" xmlns:xlink="http://www.w3.org/1999/xlink" x="0px" y="0px"
	 width="500px" height="500px" viewBox="0 0 500 500" enable-background="new 0 0 500 500" xml:space="preserve">
<rect id="position" display="none" fill="none" stroke="#000000" width="500" height="500"/>
<g>
	<g>
		<path fill="#382800" d="M294.3,84.3c-0.7,0-1.3-0.3-1.8-0.8c-11.7-12.5-26.9-19.4-42.8-19.4c-12.2,0-24.1,4.1-34.4,11.8
			c-1.1,0.8-2.7,0.6-3.5-0.5c-0.8-1.1-0.6-2.7,0.5-3.5c11.2-8.4,24.1-12.8,37.4-12.8c17.3,0,33.7,7.5,46.4,21c0.9,1,0.9,2.6-0.1,3.5
			C295.5,84.1,294.9,84.3,294.3,84.3z"/>
	</g>
	<g>
		<path fill="#382800" d="M222.5,92.6c-0.6,0-1.3-0.2-1.8-0.7c-1-1-1-2.6,0-3.5c11.4-11.4,26.7-17.7,42.9-17.7c11,0,21.7,3,31.1,8.6
			c1.2,0.7,1.6,2.2,0.9,3.4c-0.7,1.2-2.2,1.6-3.4,0.9c-8.6-5.1-18.5-7.8-28.5-7.8c-14.9,0-28.8,5.8-39.3,16.3
			C223.8,92.4,223.1,92.6,222.5,92.6z"/>
	</g>
	<g>
		<path fill="#382800" d="M206.3,92.6c-0.6,0-1.3-0.2-1.8-0.7c-1-1-1-2.6,0-3.5c12.9-12.9,30.3-19.4,51.7-19.4
			c13.6,0,27,3.7,38.6,10.8c1.2,0.7,1.6,2.3,0.8,3.4c-0.7,1.2-2.3,1.6-3.4,0.8c-10.8-6.6-23.3-10-36-10c-20,0-36.2,6-48.1,18
			C207.6,92.4,206.9,92.6,206.3,92.6z"/>
	</g>
	<g>
		<path fill="#382800" d="M240.1,92.6c-0.6,0-1.2-0.2-1.6-0.6c-1-0.9-1.1-2.5-0.2-3.5c7.2-8.2,19.4-17.1,32.1-17.1
			c8.9,0,17.4,2.8,24.6,8.2c1.1,0.8,1.3,2.4,0.5,3.5c-0.8,1.1-2.4,1.3-3.5,0.5c-6.3-4.7-13.8-7.2-21.6-7.2c-11,0-21.8,7.9-28.3,15.3
			C241.5,92.3,240.8,92.6,240.1,92.6z"/>
	</g>
	<g>
		<path fill="#382800" d="M292,83.7c9.1,5.1,16.8,12.8,22.4,15.8c15.3,8.2,19,6.3,22.1,9.9c3.1,3.7,6.5,6.2,6.5,6.2
			s-0.4-18.7-20.5-29.8c-6.4-3.5-20.3-3.7-20.3-3.7s-3,1-4.9-0.4s-1.8-2.5-1.8-2.5"/>
	</g>
</g>
<g id="bounds_1_" display="none">
	
		<rect x="123.4" y="-23.6" display="inline" fill="none" stroke="#000000" stroke-width="1.122" stroke-miterlimit="10" width="253.3" height="253.3"/>
</g>
</svg>
