<?xml version="1.0" encoding="utf-8"?>
<!-- Generator: Adobe Illustrator 18.0.0, SVG Export Plug-In . SVG Version: 6.00 Build 0)  -->
<!DOCTYPE svg PUBLIC "-//W3C//DTD SVG 1.1//EN" "http://www.w3.org/Graphics/SVG/1.1/DTD/svg11.dtd">
<svg version="1.1" id="content" xmlns="http://www.w3.org/2000/svg" xmlns:xlink="http://www.w3.org/1999/xlink" x="0px" y="0px"
	 width="500px" height="500px" viewBox="0 0 500 500" enable-background="new 0 0 500 500" xml:space="preserve">
<rect id="position" display="none" fill="none" stroke="#000000" width="500" height="500"/>
<g id="bounds" display="none">
	<rect x="0.2" y="80.2" display="inline" fill="none" stroke="#EAEAEA" stroke-miterlimit="10" width="499.5" height="499.5"/>
</g>
<g>
	<g>
		<circle fill="#382800" cx="168.5" cy="352.7" r="54.8"/>
		<circle fill="#382800" cx="331.1" cy="352.7" r="54.8"/>
	</g>
	<g>
		<g>
			<path fill="#C9C8CE" d="M323.2,300.1l28.5-41.4c1.7-2.5,1.3-5.7-0.9-7.2c-2.2-1.5-5.4-0.8-7.1,1.7l-29.6,43
				c-19.5-7.7-41.2-12-64-12s-44.5,4.3-64,12l-29.6-43c-1.7-2.5-4.9-3.2-7.1-1.7c-2.2,1.5-2.6,4.8-0.9,7.2l28.5,41.4
				c-45.3,21.1-77.1,61.1-81.1,107.9h308.6C400.2,361.2,368.5,321.2,323.2,300.1"/>
			<g>
				<path fill="#FFFFFF" d="M185.5,365.3c-9.4,0-17.1-7.6-17.1-17.1c0-9.4,7.6-17.1,17.1-17.1c9.4,0,17.1,7.6,17.1,17.1
					C202.6,357.7,195,365.3,185.5,365.3"/>
				<path fill="#FFFFFF" d="M314.5,365.3c-9.4,0-17.1-7.6-17.1-17.1c0-9.4,7.6-17.1,17.1-17.1c9.4,0,17.1,7.6,17.1,17.1
					C331.5,357.7,323.9,365.3,314.5,365.3"/>
			</g>
		</g>
		<g>
			<g>
				<path fill="#382800" d="M311.4,301.5c-1,0-1.8-0.4-2.5-1.1c-16.5-17.7-38-27.4-60.5-27.4c-17.2,0-34.1,5.8-48.6,16.7
					c-1.6,1.1-3.8,0.8-4.9-0.7c-1.1-1.6-0.8-3.8,0.7-4.9c15.8-11.9,34.1-18.1,52.9-18.1c24.5,0,47.6,10.6,65.6,29.7
					c1.3,1.4,1.3,3.7-0.1,4.9C313.1,301.2,312.2,301.5,311.4,301.5z"/>
			</g>
			<g>
				<path fill="#382800" d="M209.9,313.2c-0.8,0-1.8-0.3-2.5-1c-1.4-1.4-1.4-3.7,0-4.9c16.1-16.1,37.7-25,60.6-25
					c15.5,0,30.7,4.2,44,12.2c1.7,1,2.3,3.1,1.3,4.8c-1,1.7-3.1,2.3-4.8,1.3c-12.2-7.2-26.1-11-40.3-11c-21.1,0-40.7,8.2-55.5,23
					C211.7,313,210.7,313.2,209.9,313.2z"/>
			</g>
			<g>
				<path fill="#382800" d="M187,313.2c-0.8,0-1.8-0.3-2.5-1c-1.4-1.4-1.4-3.7,0-4.9c18.2-18.2,42.8-27.4,73.1-27.4
					c19.2,0,38.2,5.2,54.6,15.3c1.7,1,2.3,3.3,1.1,4.8c-1,1.7-3.3,2.3-4.8,1.1c-15.3-9.3-32.9-14.1-50.9-14.1
					c-28.3,0-51.2,8.5-68,25.4C188.8,313,187.8,313.2,187,313.2z"/>
			</g>
			<g>
				<path fill="#382800" d="M234.8,313.2c-0.8,0-1.7-0.3-2.3-0.8c-1.4-1.3-1.6-3.5-0.3-4.9c10.2-11.6,27.4-24.2,45.4-24.2
					c12.6,0,24.6,4,34.8,11.6c1.6,1.1,1.8,3.4,0.7,4.9s-3.4,1.8-4.9,0.7c-8.9-6.6-19.5-10.2-30.5-10.2c-15.5,0-30.8,11.2-40,21.6
					C236.7,312.8,235.7,313.2,234.8,313.2z"/>
			</g>
			<g>
				<path fill="#382800" d="M308.1,300.7c12.9,7.2,23.7,18.1,31.7,22.3c21.6,11.6,26.9,8.9,31.2,14c4.4,5.2,9.2,8.8,9.2,8.8
					s-0.6-26.4-29-42.1c-9-4.9-28.7-5.2-28.7-5.2s-4.2,1.4-6.9-0.6c-2.7-2-2.5-3.5-2.5-3.5"/>
			</g>
		</g>
	</g>
</g>
</svg>
