<?xml version="1.0" encoding="utf-8"?>
<!-- Generator: Adobe Illustrator 18.0.0, SVG Export Plug-In . SVG Version: 6.00 Build 0)  -->
<!DOCTYPE svg PUBLIC "-//W3C//DTD SVG 1.1 Basic//EN" "http://www.w3.org/Graphics/SVG/1.1/DTD/svg11-basic.dtd">
<svg version="1.1" baseProfile="basic" id="Layer_2"
	 xmlns="http://www.w3.org/2000/svg" xmlns:xlink="http://www.w3.org/1999/xlink" x="0px" y="0px" viewBox="0 0 500 500"
	 xml:space="preserve">
<g id="bounds" display="none">
	<rect x="0.2" y="80.2" display="inline" fill="none" stroke="#EAEAEA" stroke-miterlimit="10" width="499.5" height="499.5"/>
</g>
<g>
	<path fill="#C9C8CE" d="M321.5,300.1l28.2-41c1.7-2.5,1.2-5.6-1-7.1c-2.2-1.5-5.3-0.7-7,1.7l-29.3,42.6
		c-19.4-7.6-40.8-11.9-63.4-11.9c-22.6,0-44.2,4.3-63.4,11.9l-29.4-42.7c-1.7-2.5-4.8-3.2-7-1.7c-2.2,1.5-2.6,4.7-1,7.1l28.2,41
		c-44.9,20.9-76.4,60.6-80.5,107h305.9C398,360.7,366.4,321.1,321.5,300.1"/>
</g>
<g>
	<g>
		<path fill="#FFFFFF" d="M185.1,364.7c-9.3,0-16.9-7.6-16.9-16.9c0-9.3,7.6-16.9,16.9-16.9c9.3,0,16.9,7.6,16.9,16.9
			C202.1,357.1,194.5,364.7,185.1,364.7"/>
	</g>
	<g>
		<path fill="#FFFFFF" d="M312.9,364.7c-9.3,0-16.9-7.6-16.9-16.9c0-9.3,7.6-16.9,16.9-16.9c9.3,0,16.9,7.6,16.9,16.9
			C329.9,357.1,322.3,364.7,312.9,364.7"/>
	</g>
</g>
<path opacity="0.1" fill="#382800" d="M321.3,300l-9-3.9c-19.3-7.6-40.8-11.9-63.4-11.9l0,0c0,0,0,0,0,0c0,0,0,0,0,0l0,0
	c-22.6,0-44.1,4.2-63.4,11.9l-9,3.9c-19.6,9.1-36.7,21.8-50,37.1l0,0c0,0,46.1-42.9,76.5-31.9c22.7,8.2,32.6,9.8,46,9.8
	c13.4,0,23.3-1.6,46-9.8c30.4-11,76.5,31.9,76.5,31.9l0,0C358,321.8,341,309.1,321.3,300z"/>
<path fill="none" stroke="#382800" stroke-width="5" stroke-linecap="round" stroke-linejoin="round" stroke-miterlimit="10" d="
	M117.4,348.7"/>
<path fill="#382800" d="M291.8,309.5c-0.2,0-0.3,0-0.5,0c-1.7-0.3-2.8-1.8-2.5-3.5c2.1-13.2,10.4-16.3,10.7-16.4
	c1.6-0.6,3.3,0.3,3.9,1.9c0.6,1.6-0.2,3.3-1.8,3.9c-0.3,0.1-5.3,2.3-6.8,11.6C294.6,308.4,293.3,309.5,291.8,309.5z"/>
<path fill="#382800" d="M279.6,311.9c-1.6,0-2.9-1.2-3.1-2.8c-1.1-14.9,9.6-23.5,10-23.8c1.3-1,3.3-0.8,4.3,0.5
	c1,1.3,0.8,3.3-0.5,4.3c-0.4,0.3-8.5,7-7.7,18.6c0.1,1.7-1.2,3.2-2.8,3.3C279.7,311.9,279.7,311.9,279.6,311.9z"/>
<path fill="#382800" d="M267.2,314.1c-1.5,0-2.9-1.1-3-2.7c-2.2-18.3,8.9-29,9.4-29.4c1.2-1.2,3.2-1.1,4.3,0.1
	c1.2,1.2,1.1,3.2-0.1,4.3c-0.4,0.4-9.3,9.1-7.5,24.2c0.2,1.7-1,3.2-2.7,3.4C267.5,314.1,267.4,314.1,267.2,314.1z"/>
<path fill="#382800" d="M255.3,315.3c-1.5,0-2.8-1.1-3-2.6c-3.1-21.3,7.8-32.1,8.3-32.5c1.2-1.2,3.2-1.1,4.3,0.1
	c1.2,1.2,1.1,3.1-0.1,4.3c-0.4,0.4-9.1,9.3-6.5,27.3c0.2,1.7-0.9,3.2-2.6,3.5C255.6,315.3,255.4,315.3,255.3,315.3z"/>
<path fill="#382800" d="M205.9,309.5c-1.5,0-2.8-1.1-3-2.6c-1.5-9.5-6.7-11.6-6.7-11.6c-1.6-0.6-2.4-2.3-1.9-3.9
	c0.6-1.6,2.3-2.4,3.9-1.9c0.4,0.1,8.6,3.2,10.7,16.4c0.3,1.7-0.9,3.2-2.5,3.5C206.2,309.5,206.1,309.5,205.9,309.5z"/>
<path fill="#382800" d="M218.2,311.9c-0.1,0-0.1,0-0.2,0c-1.7-0.1-3-1.6-2.8-3.3c0.8-11.6-7.3-18.3-7.7-18.6c-1.3-1.1-1.5-3-0.5-4.3
	c1-1.3,3-1.6,4.3-0.5c0.5,0.4,11.1,8.9,10,23.8C221.1,310.7,219.7,311.9,218.2,311.9z"/>
<path fill="#382800" d="M230.5,314.1c-0.1,0-0.2,0-0.4,0c-1.7-0.2-2.9-1.7-2.7-3.4c1.8-15.3-7.4-24.1-7.5-24.2
	c-1.2-1.2-1.3-3.1-0.1-4.3c1.2-1.2,3.1-1.3,4.3-0.1c0.5,0.4,11.6,11.1,9.4,29.4C233.4,312.9,232,314.1,230.5,314.1z"/>
<path fill="#382800" d="M242.5,315.3c-0.1,0-0.3,0-0.4,0c-1.7-0.2-2.8-1.8-2.6-3.5c2.6-18-6.1-26.9-6.5-27.3c-1.2-1.2-1.2-3.1,0-4.3
	c1.2-1.2,3.1-1.2,4.3-0.1c0.5,0.4,11.4,11.3,8.3,32.5C245.3,314.2,244,315.3,242.5,315.3z"/>
<path fill="#382800" d="M322.8,301c0.3-0.7,1-1.5,1.7-1.9c0.3-0.2,7.2-4.2,14.7,0.3c11.8,7.1,16.8,31,15,71.1
	c-0.1,1.9-1.6,3.3-3.5,3.3c-0.1,0-0.1,0-0.2,0c-1.9-0.1-3.4-1.7-3.3-3.7c2.2-48.8-6.3-61.5-11.5-64.8c-2.1-1.3-4.4-1.1-5.9-0.8
	L322.8,301z"/>
<path fill="#382800" d="M343.7,314c0.3-0.7,1.1-1.5,1.8-1.9c0.3-0.2,7.4-3.9,14.7,0.9c11.5,7.6,15.5,31.7,11.9,71.7
	c-0.2,1.9-1.8,3.3-3.6,3.2c-0.1,0-0.1,0-0.2,0c-1.9-0.2-3.4-1.9-3.2-3.8c4.3-48.7-3.6-61.7-8.7-65.2c-2-1.4-4.4-1.3-5.8-1L343.7,314
	z"/>
<path fill="#382800" d="M365,332c0.3-0.6,1-1.3,1.6-1.6c0.3-0.1,6.4-3.3,12.7,0.8c9.9,6.6,13.3,27.5,10,62.1
	c-0.1,1.6-1.5,2.8-3.2,2.7c0,0-0.1,0-0.1,0c-1.7-0.2-2.9-1.6-2.7-3.3c3.9-42.1-2.9-53.4-7.3-56.4c-1.8-1.2-3.8-1.1-5-0.9L365,332z"
	/>
<path fill="#382800" d="M400.2,409.6c-0.9-0.1-1.6-0.5-2.1-1.1c-0.5-0.6-0.7-1.3-0.6-2.1c3.8-30.5-1.3-37.9-3.7-39.6
	c-0.6-0.5-1.4-0.7-2.3-0.7c-0.3,0-0.6,0-0.8,0l-0.2,0l-5-3l0.3-0.6c0.3-0.5,0.9-1.1,1.5-1.4c0.2-0.1,1.9-0.9,4.2-0.9
	c2.1,0,4,0.6,5.7,1.8c7.2,5.1,9.3,20.2,6.2,45c-0.2,1.4-1.4,2.5-2.9,2.5C400.4,409.6,400.3,409.6,400.2,409.6z"/>
<path fill="#382800" d="M97.4,409.6c0.9-0.1,1.6-0.5,2.1-1.1c0.5-0.6,0.7-1.3,0.6-2.1c-3.8-30.5,1.3-37.9,3.7-39.6
	c0.6-0.5,1.4-0.7,2.3-0.7c0.3,0,0.6,0,0.8,0l0.2,0l5-3l-0.3-0.6c-0.3-0.5-0.9-1.1-1.5-1.4c-0.2-0.1-1.9-0.9-4.2-0.9
	c-2.1,0-4,0.6-5.7,1.8c-7.2,5.1-9.3,20.2-6.2,45c0.2,1.4,1.4,2.5,2.9,2.5C97.3,409.6,97.4,409.6,97.4,409.6z"/>
<path fill="#382800" d="M174.9,301c-0.3-0.7-1-1.5-1.7-1.9c-0.3-0.2-7.2-4.2-14.7,0.3c-11.8,7.1-16.8,31-15,71.1
	c0.1,1.9,1.6,3.3,3.5,3.3c0.1,0,0.1,0,0.2,0c1.9-0.1,3.4-1.7,3.3-3.7c-2.2-48.8,6.3-61.5,11.5-64.8c2.1-1.3,4.4-1.1,5.9-0.8
	L174.9,301z"/>
<path fill="#382800" d="M154,314c-0.3-0.7-1.1-1.5-1.8-1.9c-0.3-0.2-7.4-3.9-14.7,0.9c-11.5,7.6-15.5,31.7-11.9,71.7
	c0.2,1.9,1.8,3.3,3.6,3.2c0.1,0,0.1,0,0.2,0c1.9-0.2,3.4-1.9,3.2-3.8c-4.3-48.7,3.6-61.7,8.7-65.2c2-1.4,4.4-1.3,5.8-1L154,314z"/>
<path fill="#382800" d="M132.7,332c-0.3-0.6-1-1.3-1.6-1.6c-0.3-0.1-6.4-3.3-12.7,0.8c-9.9,6.6-13.3,27.5-10.1,62.1
	c0.1,1.6,1.5,2.8,3.2,2.7c0,0,0.1,0,0.1,0c1.7-0.2,2.9-1.6,2.7-3.3c-3.9-42.1,2.9-53.4,7.3-56.4c1.8-1.2,3.8-1.1,5-0.9L132.7,332z"
	/>
<path fill="#F2F2F2" d="M390.5,394.6c-0.3,2.4-2.4,4.1-4.8,3.9l0,0c-2.4-0.3-4.1-2.4-3.9-4.8l0.3-3c0.3-2.4,2.4-4.1,4.8-3.9l0,0
	c2.4,0.3,4.1,2.4,3.9,4.8L390.5,394.6z"/>
<path fill="#E3E3E3" d="M385.6,386.9c-1.8,0.4-3.2,1.9-3.4,3.8l-0.3,3c-0.2,2,0.9,3.7,2.7,4.5c1.8-0.4,3.2-1.9,3.4-3.8l0.3-3
	C388.5,389.4,387.3,387.6,385.6,386.9z"/>
<path fill="#F2F2F2" d="M404.2,408.5c-0.3,2.2-2.4,3.8-4.7,3.5l0,0c-2.3-0.3-3.8-2.4-3.5-4.6l0.4-2.8c0.3-2.2,2.4-3.8,4.7-3.5l0,0
	c2.3,0.3,3.8,2.4,3.5,4.6L404.2,408.5z"/>
<path fill="#E3E3E3" d="M399.8,401.2c-1.7,0.3-3.1,1.6-3.3,3.4l-0.4,2.8c-0.3,1.8,0.8,3.5,2.4,4.2c1.7-0.3,3.1-1.6,3.3-3.4l0.4-2.8
	C402.4,403.6,401.4,401.9,399.8,401.2z"/>
<path fill="#F2F2F2" d="M93.4,408.5c0.3,2.2,2.4,3.8,4.7,3.5l0,0c2.3-0.3,3.8-2.4,3.5-4.6l-0.4-2.8c-0.3-2.2-2.4-3.8-4.7-3.5l0,0
	c-2.3,0.3-3.8,2.4-3.5,4.6L93.4,408.5z"/>
<path fill="#E3E3E3" d="M97.9,401.2c1.7,0.3,3.1,1.6,3.3,3.4l0.4,2.8c0.3,1.8-0.8,3.5-2.4,4.2c-1.7-0.3-3.1-1.6-3.3-3.4l-0.4-2.8
	C95.2,403.6,96.2,401.9,97.9,401.2z"/>
<path fill="#F2F2F2" d="M372.6,386.6c-0.2,2.4-2.3,4.2-4.7,4l0,0c-2.4-0.2-4.2-2.3-4-4.7l0.3-3c0.2-2.4,2.3-4.2,4.7-4l0,0
	c2.4,0.2,4.2,2.3,4,4.7L372.6,386.6z"/>
<path fill="#E3E3E3" d="M367.5,379c-1.8,0.4-3.2,1.9-3.3,3.8l-0.3,3c-0.2,2,1,3.7,2.8,4.4c1.8-0.4,3.2-1.9,3.3-3.8l0.3-3
	C370.5,381.4,369.3,379.7,367.5,379z"/>
<path fill="#F2F2F2" d="M355.1,371.7c-0.1,2.4-2.1,4.3-4.5,4.2l0,0c-2.4-0.1-4.3-2.1-4.2-4.5l0.1-3c0.1-2.4,2.1-4.3,4.5-4.2l0,0
	c2.4,0.1,4.3,2.1,4.2,4.5L355.1,371.7z"/>
<path fill="#E3E3E3" d="M349.6,364.4c-1.8,0.5-3.1,2.1-3.1,4l-0.1,3c-0.1,2,1.2,3.7,3,4.3c1.8-0.5,3.1-2.1,3.1-4l0.1-3
	C352.7,366.7,351.4,365,349.6,364.4z"/>
<path fill="#F2F2F2" d="M107.2,394.6c0.3,2.4,2.4,4.1,4.8,3.9l0,0c2.4-0.3,4.1-2.4,3.9-4.8l-0.3-3c-0.3-2.4-2.4-4.1-4.8-3.9l0,0
	c-2.4,0.3-4.1,2.4-3.9,4.8L107.2,394.6z"/>
<path fill="#E3E3E3" d="M112.1,386.9c1.8,0.4,3.2,1.9,3.4,3.8l0.3,3c0.2,2-0.9,3.7-2.7,4.5c-1.8-0.4-3.2-1.9-3.4-3.8l-0.3-3
	C109.2,389.4,110.4,387.6,112.1,386.9z"/>
<path fill="#F2F2F2" d="M125.1,386.6c0.2,2.4,2.3,4.2,4.7,4l0,0c2.4-0.2,4.2-2.3,4-4.7l-0.3-3c-0.2-2.4-2.3-4.2-4.7-4l0,0
	c-2.4,0.2-4.2,2.3-4,4.7L125.1,386.6z"/>
<path fill="#E3E3E3" d="M130.2,379c1.8,0.4,3.2,1.9,3.3,3.8l0.3,3c0.2,2-1,3.7-2.8,4.4c-1.8-0.4-3.2-1.9-3.3-3.8l-0.3-3
	C127.2,381.4,128.4,379.7,130.2,379z"/>
<path fill="#F2F2F2" d="M142.6,371.7c0.1,2.4,2.1,4.3,4.5,4.2l0,0c2.4-0.1,4.3-2.1,4.2-4.5l-0.1-3c-0.1-2.4-2.1-4.3-4.5-4.2l0,0
	c-2.4,0.1-4.3,2.1-4.2,4.5L142.6,371.7z"/>
<path fill="#E3E3E3" d="M148,364.4c1.8,0.5,3.1,2.1,3.1,4l0.1,3c0.1,2-1.2,3.7-3,4.3c-1.8-0.5-3.1-2.1-3.1-4l-0.1-3
	C145,366.7,146.3,365,148,364.4z"/>
</svg>
