<?xml version="1.0" encoding="utf-8"?>
<!-- Generator: Adobe Illustrator 16.0.0, SVG Export Plug-In . SVG Version: 6.00 Build 0)  -->
<!DOCTYPE svg PUBLIC "-//W3C//DTD SVG 1.1//EN" "http://www.w3.org/Graphics/SVG/1.1/DTD/svg11.dtd">
<svg version="1.1" id="content" xmlns="http://www.w3.org/2000/svg" xmlns:xlink="http://www.w3.org/1999/xlink" x="0px" y="0px"
	 width="500px" height="500px" viewBox="0 0 500 500" enable-background="new 0 0 500 500" xml:space="preserve">
<rect id="position" display="none" fill="none" stroke="#000000" width="500" height="500"/>
<g id="bounds" display="none">
	
		<rect x="119.3" y="-33.2" display="inline" fill="none" stroke="#000000" stroke-width="1.0056" stroke-miterlimit="10" width="259.4" height="259.4"/>
</g>
<path opacity="0.1" fill="#382800" enable-background="new    " d="M301.745,83.297l-6.449-2.767
	c-13.8-5.44-29.127-8.467-45.279-8.47l0,0c-0.001,0-0.002,0-0.004,0s-0.002,0-0.004,0l0,0c-16.152,0.003-31.48,3.03-45.279,8.47
	l-6.449,2.767c-14.002,6.514-26.177,15.59-35.69,26.503v0.001c0,0,32.934-30.59,54.609-22.75c16.216,5.865,23.26,6.986,32.812,6.986
	s16.597-1.121,32.812-6.986c21.676-7.84,54.607,22.75,54.607,22.75l0.001-0.001C327.922,98.887,315.748,89.811,301.745,83.297z"/>
<path fill="none" stroke="#382800" stroke-width="5" stroke-linecap="round" stroke-linejoin="round" stroke-miterlimit="10" d="
	M156.148,118.061"/>
<path fill="#382800" d="M280.684,90.393c-0.132,0-0.265-0.01-0.396-0.032c-1.363-0.218-2.292-1.5-2.074-2.863
	c1.536-9.621,7.605-11.886,7.865-11.978c1.301-0.462,2.73,0.215,3.193,1.517c0.457,1.286-0.201,2.698-1.474,3.177
	c-0.224,0.094-3.62,1.625-4.649,8.072C282.952,89.516,281.891,90.393,280.684,90.393z"/>
<path fill="#382800" d="M271.936,92.125c-1.301,0-2.396-1.005-2.49-2.322c-0.772-10.825,6.934-17.011,7.262-17.269
	c1.086-0.855,2.657-0.665,3.511,0.421c0.853,1.083,0.665,2.648-0.411,3.503c-0.257,0.205-5.951,4.881-5.373,12.988
	c0.1,1.377-0.938,2.574-2.314,2.672C272.055,92.123,271.995,92.125,271.936,92.125z"/>
<path fill="#382800" d="M263.122,93.688c-1.249,0-2.329-0.935-2.479-2.206c-1.566-13.229,6.475-20.926,6.815-21.247
	c1.01-0.944,2.592-0.89,3.534,0.117c0.941,1.005,0.892,2.582-0.108,3.526c-0.284,0.271-6.534,6.393-5.276,17.015
	c0.164,1.371-0.815,2.614-2.188,2.777C263.318,93.682,263.221,93.688,263.122,93.688z"/>
<path fill="#382800" d="M254.581,94.584c-1.222,0-2.289-0.895-2.472-2.139c-2.243-15.343,5.648-23.168,5.988-23.494
	c0.989-0.958,2.574-0.932,3.532,0.062c0.956,0.989,0.935,2.564-0.05,3.524c-0.282,0.28-6.375,6.528-4.523,19.184
	c0.199,1.366-0.746,2.636-2.111,2.835C254.823,94.575,254.701,94.584,254.581,94.584z"/>
<path fill="#382800" d="M219.343,90.393c-1.207,0-2.27-0.876-2.466-2.106c-1.042-6.527-4.509-8.015-4.656-8.075
	c-1.301-0.463-1.954-1.883-1.491-3.184c0.464-1.301,1.921-1.969,3.219-1.507c0.258,0.092,6.329,2.357,7.866,11.978
	c0.218,1.363-0.711,2.645-2.075,2.863C219.606,90.382,219.474,90.393,219.343,90.393z"/>
<path fill="#382800" d="M228.09,92.125c-0.06,0-0.12-0.002-0.181-0.006c-1.377-0.098-2.414-1.294-2.315-2.672
	c0.58-8.115-5.13-12.793-5.373-12.989c-1.073-0.861-1.254-2.431-0.399-3.508c0.856-1.078,2.417-1.266,3.498-0.416
	c0.329,0.258,8.035,6.444,7.262,17.269C230.487,91.12,229.39,92.125,228.09,92.125z"/>
<path fill="#382800" d="M236.903,93.688c-0.098,0-0.197-0.005-0.297-0.018c-1.371-0.163-2.351-1.406-2.188-2.777
	c1.261-10.637-5.009-16.761-5.277-17.016c-0.995-0.95-1.04-2.53-0.095-3.53c0.945-1,2.516-1.052,3.521-0.112
	c0.343,0.321,8.384,8.019,6.816,21.247C239.232,92.753,238.153,93.688,236.903,93.688z"/>
<path fill="#382800" d="M245.444,94.584c-0.12,0-0.242-0.009-0.365-0.027c-1.366-0.2-2.312-1.469-2.112-2.835
	c1.854-12.679-4.264-18.926-4.526-19.186c-0.974-0.968-0.991-2.548-0.03-3.529c0.96-0.981,2.527-1.01,3.516-0.055
	c0.337,0.326,8.23,8.151,5.987,23.494C247.733,93.689,246.665,94.584,245.444,94.584z"/>
<path fill="#382800" d="M302.796,84.028c0.194-0.496,0.749-1.09,1.245-1.384c0.209-0.124,5.173-2.987,10.48,0.2
	c8.402,5.046,12.009,22.131,10.713,50.781c-0.062,1.341-1.166,2.387-2.495,2.387c-0.038,0-0.076-0.001-0.115-0.002
	c-1.379-0.062-2.446-1.231-2.384-2.61c1.575-34.834-4.479-43.917-8.229-46.229c-1.497-0.923-3.15-0.761-4.183-0.557L302.796,84.028z
	"/>
<path fill="#382800" d="M317.67,93.301c0.216-0.487,0.797-1.057,1.306-1.328c0.216-0.114,5.3-2.76,10.464,0.657
	c8.176,5.408,11.029,22.634,8.485,51.2c-0.118,1.336-1.269,2.333-2.596,2.275c-0.038-0.002-0.075-0.004-0.114-0.007
	c-1.377-0.123-2.393-1.338-2.27-2.713c3.094-34.732-2.562-44.069-6.203-46.543c-1.457-0.988-3.117-0.898-4.154-0.739L317.67,93.301z
	"/>
<path fill="#382800" d="M332.938,106.171c0.188-0.421,0.693-0.912,1.136-1.146c0.188-0.098,4.595-2.37,9.052,0.604
	c7.055,4.706,9.469,19.619,7.175,44.328c-0.104,1.156-1.104,2.015-2.255,1.96c-0.031-0.002-0.062-0.003-0.098-0.006
	c-1.191-0.111-2.065-1.165-1.954-2.354c2.79-30.042-2.071-38.14-5.215-40.292c-1.261-0.859-2.694-0.787-3.596-0.652L332.938,106.171
	z"/>
<path fill="#382800" d="M197.204,84.028c-0.194-0.496-0.749-1.09-1.245-1.384c-0.209-0.124-5.173-2.987-10.48,0.2
	c-8.404,5.046-12.009,22.131-10.713,50.781c0.061,1.341,1.166,2.387,2.495,2.387c0.038,0,0.076-0.001,0.115-0.002
	c1.379-0.062,2.446-1.231,2.384-2.61c-1.575-34.834,4.479-43.917,8.228-46.229c1.497-0.923,3.152-0.761,4.183-0.557L197.204,84.028z
	"/>
<path fill="#382800" d="M182.33,93.301c-0.216-0.487-0.797-1.057-1.306-1.328c-0.214-0.114-5.298-2.76-10.462,0.657
	c-8.176,5.408-11.031,22.634-8.487,51.2c0.118,1.336,1.269,2.333,2.596,2.275c0.038-0.002,0.075-0.004,0.114-0.007
	c1.377-0.123,2.393-1.338,2.27-2.713c-3.094-34.732,2.56-44.069,6.203-46.543c1.457-0.988,3.117-0.898,4.154-0.739L182.33,93.301z"
	/>
<path fill="#382800" d="M167.062,106.171c-0.188-0.421-0.693-0.912-1.134-1.146c-0.188-0.098-4.595-2.37-9.052,0.604
	c-7.055,4.706-9.469,19.619-7.175,44.328c0.106,1.156,1.105,2.015,2.255,1.96c0.031-0.002,0.063-0.003,0.098-0.006
	c1.191-0.111,2.065-1.165,1.954-2.354c-2.79-30.042,2.071-38.14,5.215-40.292c1.259-0.859,2.694-0.787,3.594-0.652L167.062,106.171z
	"/>
<g>
	<path fill="#382800" d="M358.048,161.529c-0.646-0.077-1.136-0.354-1.476-0.789c-0.333-0.427-0.479-0.958-0.411-1.494
		c2.744-21.793-0.951-27.02-2.667-28.255c-0.448-0.321-1.012-0.484-1.674-0.484c-0.205,0-0.395,0.016-0.557,0.034l-0.17,0.02
		l-3.549-2.152l0.203-0.411c0.189-0.386,0.632-0.805,1.075-1.019c0.134-0.064,1.34-0.619,2.979-0.619
		c1.467,0,2.828,0.433,4.045,1.285c5.151,3.61,6.634,14.411,4.405,32.104c-0.126,1.017-1.005,1.785-2.043,1.785
		C358.155,161.535,358.102,161.533,358.048,161.529z"/>
</g>
<g>
	<path fill="#382800" d="M141.921,161.529c0.646-0.077,1.136-0.354,1.476-0.789c0.333-0.427,0.479-0.958,0.411-1.494
		c-2.744-21.793,0.951-27.02,2.667-28.255c0.448-0.321,1.012-0.484,1.674-0.484c0.205,0,0.395,0.016,0.557,0.034l0.17,0.02
		l3.549-2.152l-0.203-0.411c-0.189-0.386-0.632-0.805-1.075-1.019c-0.134-0.064-1.34-0.619-2.979-0.619
		c-1.467,0-2.828,0.433-4.045,1.285c-5.151,3.61-6.634,14.411-4.405,32.104c0.126,1.017,1.005,1.785,2.043,1.785
		C141.813,161.535,141.867,161.533,141.921,161.529z"/>
</g>
</svg>
