<?xml version="1.0" encoding="utf-8"?>
<!-- Generator: Adobe Illustrator 16.0.0, SVG Export Plug-In . SVG Version: 6.00 Build 0)  -->
<!DOCTYPE svg PUBLIC "-//W3C//DTD SVG 1.1//EN" "http://www.w3.org/Graphics/SVG/1.1/DTD/svg11.dtd">
<svg version="1.1" id="content" xmlns="http://www.w3.org/2000/svg" xmlns:xlink="http://www.w3.org/1999/xlink" x="0px" y="0px"
	 width="500px" height="500px" viewBox="0 0 500 500" enable-background="new 0 0 500 500" xml:space="preserve">
<rect id="position" display="none" fill="none" stroke="#000000" width="500" height="500"/>
<g id="bounds" display="none">
	
		<rect x="119.3" y="-33.2" display="inline" fill="none" stroke="#000000" stroke-width="1.0056" stroke-miterlimit="10" width="259.4" height="259.4"/>
</g>
<g>
	<path fill="#F2F2F2" d="M351.136,150.863c-0.183,1.709-1.717,2.946-3.425,2.762l0,0c-1.708-0.183-2.946-1.717-2.762-3.427
		l0.23-2.156c0.184-1.708,1.719-2.946,3.426-2.762l0,0c1.709,0.183,2.946,1.717,2.763,3.426L351.136,150.863z"/>
	<path fill="#E3E3E3" d="M347.614,145.347c-1.273,0.277-2.288,1.329-2.435,2.695l-0.23,2.156c-0.151,1.404,0.663,2.676,1.899,3.191
		c1.273-0.277,2.289-1.328,2.438-2.695l0.229-2.157C349.668,147.136,348.854,145.864,347.614,145.347z"/>
	<path fill="#F2F2F2" d="M338.354,145.147c-0.146,1.713-1.654,2.98-3.366,2.832l0,0c-1.71-0.147-2.979-1.656-2.831-3.369
		l0.188-2.161c0.146-1.711,1.656-2.98,3.367-2.831l0,0c1.713,0.146,2.981,1.656,2.832,3.368L338.354,145.147z"/>
	<path fill="#E3E3E3" d="M334.723,139.705c-1.269,0.304-2.262,1.376-2.379,2.744l-0.188,2.161c-0.123,1.406,0.719,2.662,1.966,3.151
		c1.269-0.303,2.263-1.375,2.38-2.745l0.187-2.16C336.811,141.451,335.971,140.196,334.723,139.705z"/>
	<path fill="#F2F2F2" d="M325.866,134.51c-0.057,1.718-1.496,3.064-3.214,3.006l0,0c-1.715-0.058-3.062-1.497-3.004-3.215
		l0.072-2.168c0.057-1.716,1.497-3.064,3.213-3.004l0,0c1.72,0.056,3.064,1.497,3.007,3.214L325.866,134.51z"/>
	<path fill="#E3E3E3" d="M321.952,129.267c-1.25,0.37-2.187,1.494-2.23,2.866l-0.072,2.168c-0.05,1.411,0.857,2.621,2.129,3.043
		c1.251-0.369,2.188-1.492,2.23-2.867l0.072-2.167C324.13,130.9,323.225,129.691,321.952,129.267z"/>
	<path fill="#F2F2F2" d="M148.864,150.863c0.183,1.709,1.717,2.946,3.425,2.762l0,0c1.708-0.183,2.946-1.717,2.762-3.427
		l-0.231-2.156c-0.183-1.708-1.718-2.946-3.425-2.762l0,0c-1.709,0.183-2.947,1.717-2.763,3.426L148.864,150.863z"/>
	<path fill="#E3E3E3" d="M152.386,145.347c1.273,0.277,2.288,1.329,2.434,2.695l0.231,2.156c0.151,1.404-0.663,2.676-1.9,3.191
		c-1.273-0.277-2.289-1.328-2.437-2.695l-0.23-2.157C150.332,147.136,151.146,145.864,152.386,145.347z"/>
	<path fill="#F2F2F2" d="M161.646,145.147c0.146,1.713,1.655,2.98,3.367,2.832l0,0c1.71-0.147,2.979-1.656,2.831-3.369l-0.188-2.161
		c-0.146-1.711-1.656-2.98-3.367-2.831l0,0c-1.713,0.146-2.981,1.656-2.832,3.368L161.646,145.147z"/>
	<path fill="#E3E3E3" d="M165.277,139.705c1.269,0.304,2.262,1.376,2.379,2.744l0.188,2.161c0.123,1.406-0.719,2.662-1.966,3.151
		c-1.269-0.303-2.263-1.375-2.38-2.745l-0.186-2.16C163.189,141.451,164.029,140.196,165.277,139.705z"/>
	<path fill="#F2F2F2" d="M174.134,134.51c0.056,1.718,1.496,3.064,3.214,3.006l0,0c1.715-0.058,3.062-1.497,3.004-3.215
		l-0.073-2.168c-0.056-1.716-1.497-3.064-3.213-3.004l0,0c-1.719,0.056-3.064,1.497-3.006,3.214L174.134,134.51z"/>
	<path fill="#E3E3E3" d="M178.048,129.267c1.25,0.37,2.186,1.494,2.23,2.866l0.073,2.168c0.049,1.411-0.858,2.621-2.129,3.043
		c-1.251-0.369-2.188-1.492-2.231-2.867l-0.072-2.167C175.87,130.9,176.775,129.691,178.048,129.267z"/>
</g>
<path fill="#F2F2F2" d="M360.916,160.756c-0.223,1.587-1.711,2.694-3.321,2.474l0,0c-1.61-0.218-2.739-1.683-2.515-3.27l0.283-2.001
	c0.221-1.586,1.71-2.694,3.32-2.474l0,0c1.613,0.219,2.738,1.683,2.516,3.269L360.916,160.756z"/>
<path fill="#E3E3E3" d="M357.744,155.52c-1.213,0.222-2.204,1.172-2.381,2.44l-0.283,2.001c-0.184,1.303,0.551,2.511,1.707,3.026
	c1.213-0.221,2.203-1.171,2.383-2.439l0.281-2.002C359.635,157.244,358.902,156.036,357.744,155.52z"/>
<path fill="#F2F2F2" d="M139.053,160.756c0.223,1.587,1.711,2.694,3.321,2.474l0,0c1.61-0.218,2.739-1.683,2.515-3.27l-0.283-2.001
	c-0.221-1.586-1.71-2.694-3.32-2.474l0,0c-1.613,0.219-2.738,1.683-2.516,3.269L139.053,160.756z"/>
<path fill="#E3E3E3" d="M142.225,155.52c1.213,0.222,2.204,1.172,2.381,2.44l0.283,2.001c0.184,1.303-0.551,2.511-1.707,3.026
	c-1.213-0.221-2.203-1.171-2.383-2.439l-0.281-2.002C140.334,157.244,141.066,156.036,142.225,155.52z"/>
</svg>
