<?xml version="1.0" encoding="utf-8"?>
<!-- Generator: Adobe Illustrator 16.0.0, SVG Export Plug-In . SVG Version: 6.00 Build 0)  -->
<!DOCTYPE svg PUBLIC "-//W3C//DTD SVG 1.1//EN" "http://www.w3.org/Graphics/SVG/1.1/DTD/svg11.dtd">
<svg version="1.1" id="content" xmlns="http://www.w3.org/2000/svg" xmlns:xlink="http://www.w3.org/1999/xlink" x="0px" y="0px"
	 width="500px" height="500px" viewBox="0 0 500 500" enable-background="new 0 0 500 500" xml:space="preserve">
<rect id="position" display="none" fill="none" stroke="#000000" width="500" height="500"/>
<g id="bounds" display="none">
	
		<rect x="121.7" y="-28.4" display="inline" fill="none" stroke="#000000" stroke-width="0.9871" stroke-miterlimit="10" width="254.7" height="254.7"/>
</g>
<path fill="#382800" d="M282.295,75.571c1.233-2.347,6.546-14.394-9.213-22.843c7.51,7.468,4.461,15.453-2.919,18.974
	c1.192-2.171,3.17-7.493-2.792-11.968c1.614,4.962-2.448,10.244-8.077,11.62c-3.362-0.278-6.505-0.402-9.294-0.402
	c-34.673,0-52.778,12.844-52.778,12.844S202.25,95.375,224,94.875c-5.914,2.628-13.579,2.69-13.579,2.69
	c64.067,24.312,84.909-17.035,84.909-17.035C291.118,78.499,286.713,76.875,282.295,75.571z"/>
</svg>
