<?xml version="1.0" encoding="utf-8"?>
<!-- Generator: Adobe Illustrator 18.0.0, SVG Export Plug-In . SVG Version: 6.00 Build 0)  -->
<!DOCTYPE svg PUBLIC "-//W3C//DTD SVG 1.1//EN" "http://www.w3.org/Graphics/SVG/1.1/DTD/svg11.dtd">
<svg version="1.1" id="content" xmlns="http://www.w3.org/2000/svg" xmlns:xlink="http://www.w3.org/1999/xlink" x="0px" y="0px"
	 width="500px" height="500px" viewBox="0 0 500 500" enable-background="new 0 0 500 500" xml:space="preserve">
<rect id="position" display="none" fill="none" stroke="#000000" width="500" height="500"/>
<g id="bounds_1_" display="none">
	
		<rect x="105.3" y="-6.7" display="inline" fill="none" stroke="#000000" stroke-width="1.122" stroke-miterlimit="10" width="289.4" height="289.4"/>
</g>
<path fill="#382800" d="M330.2,102.3c-9.7-19.9-32.6-29-33.6-29.4c-1.2-0.5-2.5-0.3-3.5,0.3c-6.6-4.3-12.6-5.7-13.1-5.8
	c-0.9-0.2-1.9,0-2.7,0.4c-1.9-0.8-3.7-1.4-5.3-1.7c-2.7-2-9.9-5.9-12.4-2.8c-6.8-0.5-10.9-0.2-10.9-0.2s-5.7-0.4-14.7,0.7
	c0,0-1.3-1.7-4.5,1.9c-1.5,0.2-4,0.8-7.1,2.1c-0.8-0.5-1.9-0.7-2.9-0.5c-0.4,0.1-5.4,1.2-11.3,4.7c-0.8-0.3-1.7-0.4-2.6-0.2
	c-1.1,0.4-28.6,8.9-34.8,34.5c-0.6,2.1,0.8,4.3,2.9,4.8c0.4,0.1,0.7,0.1,1,0.1c1.8,0,3.5-1.3,3.8-3c2.3-9.6,8.6-16.4,14.7-20.9
	c-1.6,3-2.9,6.4-3.8,10.2c-0.5,2.2,0.8,4.3,3,4.8c0.3,0.1,0.6,0.1,0.9,0.1c1.8,0,3.5-1.3,4-3.1c1.6-6.9,5-12,8.7-15.6c0,0,0,0,0,0
	c-1.4,2.9-2.7,6.3-3.5,10.2c-0.5,2.2,0.8,4.3,3,4.8c0.3,0.1,0.6,0.1,0.9,0.1c1.9,0,3.5-1.3,4-3.1c1.5-6.8,4.3-11.5,7.3-14.8
	c0.9-0.2,1.8,0,2.4,0.6c0.3,0.4,0.6,0.6,0.9,0.8c-1.1,5-1.4,11.1-0.4,18.2c0.3,2,2.1,3.4,4,3.4c0.2,0,0.4-0.1,0.6,0
	c2.2-0.4,3.7-2.4,3.4-4.6c-1.3-8.6-0.2-15.2,1.8-20c1-0.5,2.5-0.4,3.2,0.4c0.5,0.5,1,1,1.4,1.3c0.8,0.6,2.2,0.7,3.1,0.1
	c0.8-0.4,1.7-1.1,2.5-1.9c0.9-0.9,2.8-1,3.7-0.1c1.2,1.1,2.5,1.9,3.4,2.3c0.7,0.3,1.7,0.3,2.4,0c0.9-0.4,2.2-1.2,3.4-2.3
	c1-0.9,2.8-0.8,3.7,0.1c0.8,0.8,1.8,1.4,2.5,1.9c0.9,0.6,2.3,0.5,3.1-0.1c0.2-0.1,0.3-0.2,0.5-0.4c1,3.5,1.7,7.3,1.7,11.6
	c0,2.2,1.8,4,4,4s4-1.8,4-4c0-3.2-0.3-6.3-0.9-9.1c0.6,1.7,1.3,3.6,1.9,5.7c0.5,1.8,2.1,2.9,3.8,2.9c0.4,0,0.7-0.1,1.1-0.2
	c2.2-0.6,3.4-2.8,2.8-4.9c-0.6-2.1-1.2-4-1.9-5.8c0.6,0.1,1.2,0.3,1.6,0.7c1,0.9,2.1,1.6,3.2,2.2c2.1,3,3.9,6.9,5,12
	c0.4,1.8,2.1,3.1,3.9,3.1c0.2,0,0.5-0.1,0.9,0.1c2.1-0.5,3.5-2.6,3-4.8c-0.8-3.7-2-7-3.4-9.9c3.5,3.6,6.7,8.5,8.2,15.1
	c0.4,1.8,2.1,3.1,3.9,3.1c0.3,0,0.6-0.1,0.9-0.1c2.1-0.5,3.5-2.6,3-4.8c-0.9-3.8-2.2-7.2-3.8-10.2c6.1,4.2,12.8,10.3,16.8,18.4
	c0.7,1.4,2.1,2.2,3.6,2.2c0.6,0,1.2-0.1,1.7-0.3C330.4,106.7,331.2,104.3,330.2,102.3z"/>
</svg>
