<?xml version="1.0" encoding="utf-8"?>
<!-- Generator: Adobe Illustrator 16.0.0, SVG Export Plug-In . SVG Version: 6.00 Build 0)  -->
<!DOCTYPE svg PUBLIC "-//W3C//DTD SVG 1.1//EN" "http://www.w3.org/Graphics/SVG/1.1/DTD/svg11.dtd">
<svg version="1.1" id="content" xmlns="http://www.w3.org/2000/svg" xmlns:xlink="http://www.w3.org/1999/xlink" x="0px" y="0px"
	 width="500px" height="500px" viewBox="0 0 500 500" enable-background="new 0 0 500 500" xml:space="preserve">
<rect id="position" display="none" fill="none" stroke="#000000" width="500" height="500"/>
<g id="bounds_1_" display="none">
	
		<rect x="105.3" y="-6.7" display="inline" fill="none" stroke="#000000" stroke-width="1.122" stroke-miterlimit="10" width="289.4" height="289.4"/>
</g>
<path fill="#382800" d="M373.5,151.3c-0.053,0-2.675-0.731-5.243-3.226c0.2-1.255,0.355-2.573,0.443-3.974
	c0.482-7.274-2.563-12.823-6.634-16.946c-0.352-1.617-0.758-3.185-1.215-4.702c2.791-7.492,3.53-16.719-1.451-26.953
	c-6.072-12.475-16.909-17.036-26.711-18.362c-1.788-2.679-4.15-5.535-7.289-8.438c-9.343-9.092-20.005-12.186-29.863-12.404
	c-4.086-3.26-9.445-4.896-15.938-4.896c-0.1,0-0.1,0-0.199,0c-0.92,0.003-1.815,0.032-2.688,0.084
	c4.832-2.151,10.543-3.414,17.287-3.284c1.7,0.1,3.1-1.2,3.1-2.9c0.101-1.7-1.199-3.1-2.899-3.1
	c-13.126-0.252-22.835,4.156-29.982,10.323c-0.512-0.641-1.079-1.374-2.218-1.923c-1.5-0.8-2.9-0.5-4.3,0c-1.9,0.8-3.9,1.1-6,0.3
	c-0.2-0.1-1.8-1.2-3.5-1.2c-1.6,0-3.2,1.1-3.5,1.2c-2,0.6-5.1,0.1-7.1-0.6c-0.492-0.176-0.997-0.323-1.505-0.411
	c-2.523-0.678-5.386-1.01-8.644-0.832c-5.611-3.381-12.47-6.498-20.851-8.857c-1.6-0.4-3.2,0.5-3.7,2.1c-0.4,1.6,0.5,3.2,2.1,3.7
	c4.917,1.4,9.268,3.082,13.114,4.924c-1.288,0.489-2.487,1.073-3.616,1.727c-4.665-1.535-9.883-2.505-15.398-2.25
	c-10.6,0.5-20.2,5.5-28.5,14.7c-0.976,1.094-1.88,2.182-2.726,3.265c-7.312,0.258-15.29,2.918-22.774,10.335c-1.2,1.1-1.2,3,0,4.2
	c0.6,0.6,1.3,0.9,2.1,0.9c0.8,0,1.5-0.3,2.1-0.8c4.624-4.599,9.467-7.024,14.144-8.063c-1.73,3.035-2.999,6.006-3.879,8.894
	c-2.282,1.775-4.195,3.683-5.786,5.679c-4.065,1.549-7.771,4.498-11.079,8.791c-11.646,15.345-9.856,29.136-8.417,34.66
	c-4.594,2.319-9.654,3.366-14.983,2.04c-1.6-0.4-3.2,0.6-3.6,2.2c-0.4,1.6,0.6,3.2,2.2,3.6c2.1,0.6,4.3,0.8,6.3,0.8
	c3.417,0,6.67-0.697,9.74-1.87c-0.636,3.793-0.89,7.941-0.64,12.47c0.1,1.4,1,2.5,2.3,2.8c0.3,0,0.6,0.1,1,0.1
	c1.6-0.1,2.9-1.5,2.8-3.2c-0.342-6.031,0.3-11.28,1.566-15.835c2.038-1.35,3.959-2.873,5.755-4.494
	c0.077,0.033,0.158,0.065,0.238,0.098c0.62,3.638,1.796,7.487,3.54,11.531c0.1,0,0.1,0.1,0.1,0.1c6.4,13.3-1.5,23.7-1.8,24.1
	c-1,1.3-0.8,3.2,0.5,4.2c0.6,0.4,1.2,0.6,1.9,0.6c0.9,0,1.8-0.3,2.4-1c0.5-0.6,10.6-13.7,2.5-30.4
	c-1.131-2.63-1.981-5.136-2.573-7.522c0.354-0.026,0.743-0.095,1.073-0.178c0.389-0.182,0.722-0.44,0.993-0.745
	c0.624-0.187,1.259-0.431,1.907-0.755c3.945-2.009,6.597-6.397,8.006-13.065c0.913,1.386,1.807,2.605,2.617,3.634
	c0.032,0.172,0.058,0.348,0.077,0.531c0.2,2.8-3.1,4.1-1.7,7.3c0.4,1.1,1.5,1.7,1.9,2.8c1.2,3.1-2.3,5.6,0.9,8
	c1.5,1.2,3.6,1.1,5.6,1.1s4,0,5.9,0c9.1,0.1,63.4,0.1,67.3,0.1s58.3,0,67.5,0c2,0,4,0,5.9,0s4,0.2,5.6-1.1c3.101-2.5-0.3-4.9,0.9-8
	c0.4-1.1,1.5-1.7,1.9-2.8c0.269-0.613,0.361-1.156,0.342-1.654c0.009-0.003,0.018-0.005,0.026-0.007
	c1.875,4.126,4.08,8.594,6.577,13.005c1.633,8.15,1.732,16.621,0.254,25.355c-0.199,1.7,0.9,3.2,2.5,3.5c0.2,0,0.301,0,0.5,0
	c1.4,0,2.7-1,2.9-2.5c0.898-5.311,1.211-10.354,1.076-15.129c2.849,3.828,5.931,7.275,9.209,9.995
	c-0.549,0.333-0.912,0.498-0.985,0.534c-1.6,0.6-2.3,2.4-1.7,3.9c0.5,1.2,1.601,1.9,2.801,1.9c0.399,0,0.8-0.1,1.1-0.3
	c0.176-0.07,1.835-0.775,3.964-2.482c2.179,1.181,4.427,2.006,6.736,2.382c0.2,0,0.3,0,0.5,0c1.5,0,2.8-1.1,3-2.6
	c0.2-1.6-0.9-3.1-2.5-3.4c-1.124-0.179-2.242-0.518-3.353-0.982c1.396-1.895,2.726-4.241,3.774-7.124
	c2.786,1.922,5.169,2.564,5.378,2.606c0.2,0.1,0.5,0.1,0.7,0.1c1.399,0,2.6-0.9,3-2.2C376.1,153.3,375.1,151.7,373.5,151.3z
	 M176.621,75.193c-2.692,0.976-5.477,2.111-8.35,3.431c0.766-1.406,1.64-2.828,2.645-4.267
	C172.906,74.467,174.822,74.764,176.621,75.193z M177.431,88.947c-0.11,0.051-0.211,0.11-0.331,0.153
	c-1.271,0.489-2.633,0.604-3.254,1.917c-0.308,0.201-0.61,0.414-0.912,0.624c-0.328-0.184-0.666-0.365-1.018-0.546
	c2.689-3.709,5.86-5.338,8.225-6.045c-0.44,1.497-1.001,2.875-2.267,3.667C177.726,88.791,177.579,88.871,177.431,88.947z
	 M329.407,110.182c1.489,1.244,2.946,2.46,4.338,3.623c-0.31,0.603-0.626,1.186-0.947,1.748c-1.05-1.707-2.121-3.305-3.189-4.8
	C329.54,110.561,329.473,110.368,329.407,110.182z M338.345,117.645c0.274,0.229,0.543,0.453,0.805,0.672
	c0.17,2.776,0.041,5.783-0.387,9.013c-0.832-2.059-1.73-4.024-2.674-5.893C336.832,120.292,337.6,119.021,338.345,117.645z
	 M169.262,84.896c-1.166,1.189-2.212,2.527-3.148,3.998c-0.514-0.127-1.035-0.242-1.57-0.336c0.069-0.331,0.143-0.662,0.224-0.996
	C166.122,86.619,167.618,85.728,169.262,84.896z M157.905,94.598c-0.02,3.238,0.387,6.305,1.07,9.164
	c-1.778,0.991-4.161,2.629-6.38,5.119c0.373-4.703,1.739-9.651,4.898-14.165C157.631,94.679,157.767,94.63,157.905,94.598z
	 M167.074,109.334c0.228-0.279,0.412-0.592,0.526-0.934c0.392-1.369,0.929-2.631,1.561-3.816c0.048,1.334,0.64,2.678,1.039,4.216
	c0.529,1.999-0.394,2.858-1.447,3.815C168.171,111.594,167.605,110.498,167.074,109.334z M346.775,124.277
	c1.548,0.659,3.43,1.566,5.361,2.744c-1.709,2.719-3.595,4.961-5.213,6.658C346.982,132.485,347.087,128.977,346.775,124.277z
	 M354,98.2c2.541,5.2,3.312,10.073,3.018,14.503c-4.733-9.613-11.004-16.359-15.083-20.09c-1.065-3.11-2.785-5.997-5.173-8.623
	C343.439,85.86,349.986,89.948,354,98.2z M323.247,74.929c-3.202-1.04-6.425-1.349-9.647-0.929c-0.909,0.127-1.775,0.33-2.621,0.562
	c-0.443-0.528-0.897-1.051-1.379-1.562c-0.068-0.077-0.138-0.146-0.206-0.223c-0.048-0.244-0.109-0.473-0.193-0.677
	c-0.515-1.131-1.372-1.658-2.342-1.981c-1.452-1.442-2.925-2.767-4.42-3.96c-0.428-1.172-0.945-2.328-1.56-3.45
	c6.95,1.097,14.057,4.093,20.421,10.292C321.992,73.649,322.641,74.292,323.247,74.929z M199.4,56.4
	c2.459-0.116,4.865,0.068,7.187,0.457c-1.902,0.447-3.832,1.07-5.787,1.943c-6.58,2.925-11.197,7.821-14.448,13.429
	c-0.047,0.012-0.095,0.023-0.143,0.035c-3.04-1.361-6.765-2.673-10.905-3.381C182.455,61.025,190.583,56.796,199.4,56.4z M147.6,102
	c0.046-0.06,0.094-0.111,0.141-0.17c-1.096,4.372-1.302,8.737-1.044,12.724c-2.604,2.664-5.164,5.909-7.349,9.779
	C139.386,118.607,141.019,110.637,147.6,102z M154.952,126.107c-0.246-0.728-0.509-1.571-0.77-2.508
	c2.384-2.973,4.331-5.833,5.786-8.157C159.064,121.049,157.365,124.749,154.952,126.107z M344.611,142.679
	c0.063,0.004,0.125,0.021,0.188,0.021c0.7,0,1.3-0.2,1.8-0.7c0.137-0.091,5.462-4.246,10.018-11.231
	c0.37,2.066,0.646,4.205,0.783,6.432c0.415,5.644,2.233,9.75,4.454,12.715c-0.974,3.824-2.511,6.628-4.073,8.643
	C353.066,154.881,348.6,149.129,344.611,142.679z"/>
</svg>
