<?xml version="1.0" encoding="utf-8"?>
<!-- Generator: Adobe Illustrator 18.0.0, SVG Export Plug-In . SVG Version: 6.00 Build 0)  -->
<!DOCTYPE svg PUBLIC "-//W3C//DTD SVG 1.1 Basic//EN" "http://www.w3.org/Graphics/SVG/1.1/DTD/svg11-basic.dtd">
<svg version="1.1" baseProfile="basic" id="Layer_2"
	 xmlns="http://www.w3.org/2000/svg" xmlns:xlink="http://www.w3.org/1999/xlink" x="0px" y="0px" viewBox="0 0 500 500"
	 xml:space="preserve">
<g id="bounds" display="none">
	<rect x="0.2" y="80.2" display="inline" fill="none" stroke="#EAEAEA" stroke-miterlimit="10" width="499.5" height="499.5"/>
</g>
<path fill="#382800" d="M164.1,343.9c0,23.7-19.2,42.8-42.8,42.8c-23.7,0-42.8-19.2-42.8-42.8c0-23.7,19.2-42.8,42.8-42.8
	C150,301,164.1,320.7,164.1,343.9z"/>
<g>
	<path fill="#C9C8CE" d="M323.9,316.3l28.5-41.4c1.7-2.5,1.2-5.7-1-7.2s-5.3-0.7-7.1,1.7l-29.6,43c-19.6-7.7-41.2-12-64-12
		c-22.8,0-44.6,4.3-64,12L157,269.3c-1.7-2.5-4.8-3.2-7.1-1.7s-2.6,4.7-1,7.2l28.5,41.4c-45.3,21.1-77.2,61.2-81.3,108h308.9
		C401.1,377.5,369.3,337.5,323.9,316.3"/>
	<g>
		<path fill="#FFFFFF" d="M186.2,381.5c-9.4,0-17.1-7.7-17.1-17.1c0-9.4,7.7-17.1,17.1-17.1c9.4,0,17.1,7.7,17.1,17.1
			C203.3,373.9,195.6,381.5,186.2,381.5"/>
		<path fill="#FFFFFF" d="M315.3,381.5c-9.4,0-17.1-7.7-17.1-17.1c0-9.4,7.7-17.1,17.1-17.1c9.4,0,17.1,7.7,17.1,17.1
			C332.4,373.9,324.7,381.5,315.3,381.5"/>
	</g>
</g>
<path fill="#382800" d="M305.6,310.8c0,0-16.1-4.3-43.1,7.3c-27,11.6-72.9,24.3-89.7,0c-7.9-12.7,18.6-44.6,65.4-44.6
	S302.1,296.2,305.6,310.8z"/>
<g>
	<circle fill="#382800" cx="163.6" cy="319" r="13.8"/>
	<path fill="#B50000" d="M171.8,298.9c-2.9-5.3-8.2-5.7-8.2-5.7s-5.3,0.4-8.2,5.7c-2.9,5.3,8.2,9.2,8.2,9.2S174.7,304.2,171.8,298.9
		z"/>
	<path fill="#820000" d="M183.6,310.6c1.7-5.8-1.8-9.8-1.8-9.8s-4-3.4-9.8-1.8c-5.8,1.7-0.7,12.3-0.7,12.3S182,316.4,183.6,310.6z"
		/>
	<path fill="#B50000" d="M183.7,327.2c5.3-2.9,5.7-8.2,5.7-8.2s-0.4-5.3-5.7-8.2c-5.3-2.9-9.2,8.2-9.2,8.2S178.4,330.1,183.7,327.2z
		"/>
	<path fill="#B50000" d="M172,339c5.8,1.7,9.8-1.8,9.8-1.8s3.4-4,1.8-9.8c-1.7-5.8-12.3-0.7-12.3-0.7S166.2,337.4,172,339z"/>
	<path fill="#B50000" d="M155.5,339.2c2.9,5.3,8.2,5.7,8.2,5.7s5.3-0.4,8.2-5.7c2.9-5.3-8.2-9.2-8.2-9.2S152.5,333.9,155.5,339.2z"
		/>
	<path fill="#B50000" d="M143.6,327.4c-1.7,5.8,1.8,9.8,1.8,9.8s4,3.4,9.8,1.8c5.8-1.7,0.7-12.3,0.7-12.3S145.3,321.6,143.6,327.4z"
		/>
	<path fill="#B50000" d="M143.5,310.8c-5.3,2.9-5.7,8.2-5.7,8.2s0.4,5.3,5.7,8.2c5.3,2.9,9.2-8.2,9.2-8.2S148.8,307.9,143.5,310.8z"
		/>
	<path fill="#B50000" d="M155.2,299c-5.8-1.7-9.8,1.8-9.8,1.8s-3.4,4-1.8,9.8c1.7,5.8,12.3,0.7,12.3,0.7S161,300.7,155.2,299z"/>
	<g>
		<path fill="#820000" d="M171.8,298.9c-2.9-5.3-8.2-5.7-8.2-5.7s-5.3,0.4-8.2,5.7c-2.9,5.3,8.2,9.2,8.2,9.2
			S174.7,304.2,171.8,298.9z"/>
		<path fill="#820000" d="M183.6,310.6c1.7-5.8-1.8-9.8-1.8-9.8s-4-3.4-9.8-1.8c-5.8,1.7-0.7,12.3-0.7,12.3S182,316.4,183.6,310.6z"
			/>
		<path fill="#820000" d="M183.7,327.2c5.3-2.9,5.7-8.2,5.7-8.2s-0.4-5.3-5.7-8.2c-5.3-2.9-9.2,8.2-9.2,8.2S178.4,330.1,183.7,327.2
			z"/>
		<path fill="#820000" d="M172,339c5.8,1.7,9.8-1.8,9.8-1.8s3.4-4,1.8-9.8c-1.7-5.8-12.3-0.7-12.3-0.7S166.2,337.4,172,339z"/>
		<path fill="#820000" d="M155.4,339.1c2.9,5.3,8.2,5.7,8.2,5.7s5.3-0.4,8.2-5.7c2.9-5.3-8.2-9.2-8.2-9.2S152.5,333.8,155.4,339.1z"
			/>
		<path fill="#820000" d="M143.6,327.4c-1.7,5.8,1.8,9.8,1.8,9.8s4,3.4,9.8,1.8c5.8-1.7,0.7-12.3,0.7-12.3S145.3,321.6,143.6,327.4z
			"/>
		<path fill="#820000" d="M143.5,310.8c-5.3,2.9-5.7,8.2-5.7,8.2s0.4,5.3,5.7,8.2c5.3,2.9,9.2-8.2,9.2-8.2S148.8,307.9,143.5,310.8z
			"/>
		<path fill="#820000" d="M155.2,299c-5.8-1.7-9.8,1.8-9.8,1.8s-3.4,4-1.8,9.8c1.7,5.8,12.3,0.7,12.3,0.7S161,300.7,155.2,299z"/>
	</g>
	<g>
		<path fill="#AB0000" d="M178.1,324.9c3.8-2.1,4.1-5.9,4.1-5.9s-0.3-3.8-4.1-5.9c-3.8-2.1-6.6,5.9-6.6,5.9S174.3,327,178.1,324.9z"
			/>
		<path fill="#AB0000" d="M169.7,333.5c4.2,1.2,7.1-1.3,7.1-1.3s2.5-2.9,1.3-7.1c-1.2-4.2-8.9-0.5-8.9-0.5S165.5,332.3,169.7,333.5z
			"/>
		<path fill="#AB0000" d="M157.7,333.5c2.1,3.8,5.9,4.1,5.9,4.1s3.8-0.3,5.9-4.1c2.1-3.8-5.9-6.6-5.9-6.6S155.6,329.7,157.7,333.5z"
			/>
		<path fill="#AB0000" d="M149.2,325.1c-1.2,4.2,1.3,7.1,1.3,7.1s2.9,2.5,7.1,1.3c4.2-1.2,0.5-8.9,0.5-8.9S150.4,320.9,149.2,325.1z
			"/>
		<path fill="#AB0000" d="M149.1,313.1c-3.8,2.1-4.1,5.9-4.1,5.9s0.3,3.8,4.1,5.9c3.8,2.1,6.6-5.9,6.6-5.9S152.9,311,149.1,313.1z"
			/>
		<path fill="#AB0000" d="M157.5,304.6c-4.2-1.2-7.1,1.3-7.1,1.3s-2.5,2.9-1.3,7.1c1.2,4.2,8.9,0.5,8.9,0.5S161.7,305.8,157.5,304.6
			z"/>
		<path fill="#AB0000" d="M169.5,304.5c-2.1-3.8-5.9-4.1-5.9-4.1s-3.8,0.3-5.9,4.1c-2.1,3.8,5.9,6.6,5.9,6.6
			S171.6,308.3,169.5,304.5z"/>
		<path fill="#AB0000" d="M178.1,312.9c1.2-4.2-1.3-7.1-1.3-7.1s-2.9-2.5-7.1-1.3c-4.2,1.2-0.5,8.9-0.5,8.9S176.9,317.1,178.1,312.9
			z"/>
	</g>
	<g>
		<path fill="#820000" d="M163.6,305.7c-5.8,7.6,0,13.2,0,13.2S169.4,313.3,163.6,305.7z"/>
		<path fill="#820000" d="M173,309.6c-9.4,1.3-9.4,9.4-9.4,9.4S171.7,319.1,173,309.6z"/>
		<path fill="#820000" d="M176.9,319c-7.6-5.8-13.2,0-13.2,0S169.3,324.8,176.9,319z"/>
		<path fill="#820000" d="M173,328.4c-1.3-9.4-9.4-9.4-9.4-9.4S163.5,327.1,173,328.4z"/>
		<path fill="#820000" d="M163.6,332.3c5.8-7.6,0-13.2,0-13.2S157.8,324.7,163.6,332.3z"/>
		<path fill="#820000" d="M154.2,328.4c9.4-1.3,9.4-9.4,9.4-9.4S155.5,318.9,154.2,328.4z"/>
		<path fill="#820000" d="M150.4,319c7.6,5.8,13.2,0,13.2,0S157.9,313.2,150.4,319z"/>
		<path fill="#820000" d="M154.2,309.6c1.3,9.4,9.4,9.4,9.4,9.4S163.7,310.9,154.2,309.6z"/>
	</g>
</g>
</svg>
