<?xml version="1.0" encoding="utf-8"?>
<!-- Generator: Adobe Illustrator 16.0.0, SVG Export Plug-In . SVG Version: 6.00 Build 0)  -->
<!DOCTYPE svg PUBLIC "-//W3C//DTD SVG 1.1//EN" "http://www.w3.org/Graphics/SVG/1.1/DTD/svg11.dtd">
<svg version="1.1" id="content" xmlns="http://www.w3.org/2000/svg" xmlns:xlink="http://www.w3.org/1999/xlink" x="0px" y="0px"
	 width="500px" height="500px" viewBox="0 0 500 500" enable-background="new 0 0 500 500" xml:space="preserve">
<rect id="position" display="none" fill="none" stroke="#000000" width="500" height="500"/>
<g id="bounds" display="none">
	
		<rect x="121.7" y="-28.4" display="inline" fill="none" stroke="#000000" stroke-width="0.9871" stroke-miterlimit="10" width="254.7" height="254.7"/>
</g>
<path fill="#382800" d="M250,58.006c0,0,14.688-6.953,37.765-1.143c71.69,21.575,74.128,61.444,71.368,102.773
	c0,0-0.586-22.923-16.703-39.835c2.391,8.582,2.108,29.973,2.108,29.973s-2.812-15.811-15.755-37.383c0,0,2.25,16.507-2.707,26.074
	h0.001c-2.52-26.448-17.669-44.198-48.995-54.327c0,0-13.498,19.864-54.845,19.864c15.572-5.107,17.576-10.041,17.576-10.041
	s-15.264,5.088-36.078,6.013c0,0,13.023-5.492,19.183-15.836c-31.326,10.129-46.476,27.879-48.995,54.327
	c-4.957-9.566-2.706-26.074-2.706-26.074c-12.943,21.572-16.166,37.383-16.166,37.383s0.127-21.392,2.519-29.973
	c-16.118,16.913-16.704,39.835-16.704,39.835c-2.76-41.329-0.322-81.198,71.368-102.773C235.313,51.054,250,58.006,250,58.006"/>
</svg>
