<?xml version="1.0" encoding="utf-8"?>
<!-- Generator: Adobe Illustrator 18.0.0, SVG Export Plug-In . SVG Version: 6.00 Build 0)  -->
<!DOCTYPE svg PUBLIC "-//W3C//DTD SVG 1.1//EN" "http://www.w3.org/Graphics/SVG/1.1/DTD/svg11.dtd">
<svg version="1.1" id="content" xmlns="http://www.w3.org/2000/svg" xmlns:xlink="http://www.w3.org/1999/xlink" x="0px" y="0px"
	 width="500px" height="500px" viewBox="0 0 500 500" enable-background="new 0 0 500 500" xml:space="preserve">
<rect id="position" display="none" fill="none" stroke="#000000" width="500" height="500"/>
<path fill="#382800" d="M373.9,169.8c-0.3-2.7-0.7-6.2-1.5-10.3c-0.5-2.7-1.1-5.6-1.8-8.7c-0.8-3.3-1.7-6.8-2.9-10.3
	c-3-9.3-7.3-19.1-13.4-27.7c-2.7-3.7-5.7-7.2-9.2-10.3c-0.5-0.4-1-0.9-1.5-1.3c0,0-2.6-3.1-7.4-7.8c-2.7-2.6-6.2-5.8-10.3-9.1
	c-3.8-3.1-8.3-6.3-13.2-9.5c-2.2-1.4-4.4-2.8-6.8-4.1c-2.8-1.6-5.7-3.1-8.7-4.5c-1.3-0.6-2.6-1.2-3.9-1.8
	c-12.5-5.4-27.1-9.2-43.1-9.3c-16.3-0.1-31.1,3.8-43.8,9.3c-1.4,0.6-2.7,1.2-4,1.8c-3,1.4-5.9,3-8.7,4.5c-2.3,1.3-4.5,2.6-6.6,4
	c-4.9,3.2-9.3,6.4-13.2,9.5c-4.1,3.3-7.6,6.5-10.3,9.1c-4.7,4.6-7.3,7.7-7.3,7.7c-0.5,0.4-1,0.8-1.5,1.3c-3.4,3.1-6.5,6.6-9.2,10.3
	c-6.2,8.6-10.5,18.4-13.5,27.7c-1.1,3.6-2.1,7-2.9,10.3c-0.7,3.1-1.3,6-1.8,8.7c-0.7,4.1-1.2,7.7-1.5,10.3c-0.3,3.2-0.4,5.1-0.4,5.1
	v3.5v10.3v8.7v10.3v8.7v10.3v8.6h56.9V101.6v-0.4h134.7v0.4v133.8H374v-8.7v-10.3v-8.7v-10.3v-8.7v-10.3
	C374,178.4,374.1,173.2,373.9,169.8z"/>
<g id="bounds">
    <rect x="87.7" y="-19.8" display="none" fill="none" stroke="#000000" stroke-width="1.2038" stroke-miterlimit="10" width="324.6" height="324.6"/>
</g>
</svg>
