<?xml version="1.0" encoding="utf-8"?>
<!-- Generator: Adobe Illustrator 18.0.0, SVG Export Plug-In . SVG Version: 6.00 Build 0)  -->
<!DOCTYPE svg PUBLIC "-//W3C//DTD SVG 1.1//EN" "http://www.w3.org/Graphics/SVG/1.1/DTD/svg11.dtd">
<svg version="1.1" id="content" xmlns="http://www.w3.org/2000/svg" xmlns:xlink="http://www.w3.org/1999/xlink" x="0px" y="0px"
	 width="500px" height="500px" viewBox="0 0 500 500" enable-background="new 0 0 500 500" xml:space="preserve">
<rect id="position" display="none" fill="none" stroke="#000000" width="500" height="500"/>
<path fill="#404142" d="M346.1,145c-0.2-2-0.5-4.7-1.1-8c-0.4-2.1-0.8-4.3-1.4-6.7c-0.6-2.5-1.3-5.2-2.2-8c-0.7-2.2-1.5-4.5-2.4-6.7
	c-1-2.5-2.2-5-3.5-7.4c-1.3-2.5-2.9-5-4.5-7.3c-2.1-2.9-4.5-5.6-7.2-8.1l-0.1-0.1c0,0-2.3-2.6-6.6-6.5c-2.2-2-4.9-4.3-8-6.8
	c-3.3-2.6-7-5.2-11.2-7.9c-2.6-1.6-5.4-3.3-8.3-4.8c-2.1-1.1-4.3-2.1-6.5-3.1c-1.8-0.8-3.7-1.6-5.6-2.3c-8.5-3.1-17.8-5.2-27.7-5.2
	c-9,0-17.6,1.8-25.4,4.5c-2.8,1-5.5,2-8.1,3.2c-2.2,1-4.4,2-6.4,3.1c-2.9,1.5-5.6,3.1-8.1,4.7c-4.3,2.7-7.9,5.3-10.7,7.4
	c-4.4,3.4-6.9,5.8-6.9,5.8c-0.6,0.4-1.1,0.8-1.7,1.3c-2.6,2-5,4.3-7.2,6.7c-2.3,2.5-4.3,5.2-6.1,8c-4.6,6.9-7.8,14.5-10.1,21.5H159
	c-0.9,2.8-1.6,5.4-2.3,8h0.1c-0.6,2.4-1.1,4.7-1.5,6.7c-0.6,3.3-1,6-1.3,8s-0.3,3.2-0.3,3.2v3.4v8v6.7v8v6.7v8v5.9h44.1l104.4,0.1
	h44.1v-5.9v-8v-6.7v-8v-6.7v-8v-3.4C346.3,148.2,346.3,147,346.1,145z"/>
<g id="bounds">
<rect x="87.7" y="-19.8" display="none" fill="none" stroke="#000000" stroke-width="1.2038" stroke-miterlimit="10" width="324.6" height="324.6"/>
</g>
</svg>
