<?xml version="1.0" encoding="utf-8"?>
<!-- Generator: Adobe Illustrator 18.0.0, SVG Export Plug-In . SVG Version: 6.00 Build 0)  -->
<!DOCTYPE svg PUBLIC "-//W3C//DTD SVG 1.1//EN" "http://www.w3.org/Graphics/SVG/1.1/DTD/svg11.dtd">
<svg version="1.1" id="content" xmlns="http://www.w3.org/2000/svg" xmlns:xlink="http://www.w3.org/1999/xlink" x="0px" y="0px"
	 width="500px" height="500px" viewBox="0 0 500 500" enable-background="new 0 0 500 500" xml:space="preserve">
<rect id="position" display="none" fill="none" stroke="#000000" width="500" height="500"/>
<g id="bounds" display="none">
	<rect x="0.2" y="80.2" display="inline" fill="none" stroke="#EAEAEA" stroke-miterlimit="10" width="499.5" height="499.5"/>
</g>
<g>
	<path fill="#404142" d="M362,332.6c-0.2-2.3-0.6-5.5-1.3-9.3c-0.5-2.4-0.9-5-1.6-7.8c-0.7-2.9-1.5-6-2.6-9.3
		c-0.8-2.6-1.7-5.2-2.8-7.8c-1.2-2.9-2.6-5.8-4.1-8.6c-1.5-2.9-3.4-5.8-5.2-8.5c-2.4-3.4-5.2-6.5-8.4-9.4l-0.1-0.1
		c0,0-2.7-3-7.7-7.5c-2.6-2.3-5.7-5-9.3-7.9c-3.8-3-8.1-6-13-9.2c-3-1.9-6.3-3.8-9.6-5.6c-2.4-1.3-5-2.4-7.5-3.6
		c-2.1-0.9-4.3-1.9-6.5-2.7c-9.9-3.6-20.7-6-32.1-6c-10.4,0-20.4,2.1-29.5,5.2c-3.2,1.2-6.4,2.3-9.4,3.7c-2.6,1.2-5.1,2.3-7.4,3.6
		c-3.4,1.7-6.5,3.6-9.4,5.5c-5,3.1-9.2,6.1-12.4,8.6c-5.1,3.9-8,6.7-8,6.7c-0.7,0.5-1.3,0.9-2,1.5c-3,2.3-5.8,5-8.4,7.8
		c-2.7,2.9-5,6-7.1,9.3c-5.3,8-9,16.8-11.7,24.9h-0.1c-1,3.2-1.9,6.3-2.7,9.3h0.1c-0.7,2.8-1.3,5.5-1.7,7.8c-0.7,3.8-1.2,7-1.5,9.3
		c-0.3,2.3-0.3,3.7-0.3,3.7v3.9v9.3v7.8v9.3v7.8v9.3v6.8l33.4,47l155.9,0.3l34.1-47.2v-6.8v-9.3v-7.8v-9.3v-7.8v-9.3v-3.9
		C362.2,336.3,362.2,334.9,362,332.6z"/>
	<g>
		<path fill="#C9C8CE" d="M310,261l23.4-34c1.4-2,1-4.7-0.8-5.9c-1.8-1.2-4.4-0.6-5.8,1.4l-24.3,35.3c-16-6.3-33.8-9.8-52.6-9.8
			s-36.5,3.5-52.6,9.8l-24.3-35.3c-1.4-2-4-2.6-5.8-1.4c-1.8,1.2-2.2,3.9-0.8,5.9l23.4,34c-37.2,17.3-63.3,50.2-66.6,88.6h253.3
			C373.3,311.2,347.2,278.3,310,261"/>
		<g>
			<path fill="#FFFFFF" d="M197.1,314.5c-7.7,0-14-6.3-14-14c0-7.7,6.3-14,14-14c7.7,0,14,6.3,14,14
				C211.1,308.2,204.8,314.5,197.1,314.5"/>
			<path fill="#FFFFFF" d="M302.9,314.5c-7.7,0-14-6.3-14-14c0-7.7,6.3-14,14-14c7.7,0,14,6.3,14,14
				C316.9,308.2,310.6,314.5,302.9,314.5"/>
		</g>
	</g>
	<g>
		<rect x="127.1" y="349.4" fill="#382800" width="13.1" height="11.9"/>
		<polygon fill="#382800" points="116.9,393.5 106.1,393.5 106.1,405.1 106.1,405.4 116.9,405.4 		"/>
		<rect x="127.1" y="327.3" fill="#382800" width="13.1" height="11.9"/>
		<polygon fill="#382800" points="116.9,415.5 106.1,415.5 106.1,427.1 106.1,427.5 116.9,427.5 		"/>
		<rect x="127.1" y="393.3" fill="#382800" width="13.1" height="11.9"/>
		<rect x="127.1" y="415.4" fill="#382800" width="13.1" height="11.9"/>
		<rect x="127.1" y="371.4" fill="#382800" width="13.1" height="11.9"/>
		<rect x="127.1" y="305.3" fill="#382800" width="13.1" height="11.9"/>
		<rect x="150.2" y="327.3" fill="#382800" width="11.9" height="11.9"/>
		<rect x="150.2" y="371.4" fill="#382800" width="11.9" height="11.9"/>
		<rect x="150.2" y="349.4" fill="#382800" width="11.9" height="11.9"/>
		<rect x="150.2" y="305.3" fill="#382800" width="11.9" height="11.9"/>
		<rect x="150.2" y="415.4" fill="#382800" width="11.9" height="11.9"/>
		<rect x="150.2" y="393.3" fill="#382800" width="11.9" height="11.9"/>
		<path fill="#382800" d="M360.5,295.2h11c-3.1-4.3-6.6-8.4-10.7-11.9h-0.3V295.2z"/>
		<polygon fill="#382800" points="116.9,371.4 106.1,371.4 106.1,383 106.1,383.4 116.9,383.4 		"/>
		<path fill="#382800" d="M383.7,361.3h10.6c-0.3-3.1-0.8-7.2-1.7-11.9h-8.8V361.3z"/>
		<rect x="360.5" y="393.3" fill="#382800" width="13.1" height="11.9"/>
		<rect x="338.5" y="305.3" fill="#382800" width="11.9" height="11.9"/>
		<rect x="338.5" y="393.3" fill="#382800" width="11.9" height="11.9"/>
		<rect x="360.5" y="415.4" fill="#382800" width="13.1" height="11.9"/>
		<rect x="338.5" y="327.3" fill="#382800" width="11.9" height="11.9"/>
		<rect x="338.5" y="371.4" fill="#382800" width="11.9" height="11.9"/>
		<rect x="338.5" y="349.4" fill="#382800" width="11.9" height="11.9"/>
		<rect x="338.5" y="283.2" fill="#382800" width="11.9" height="11.9"/>
		<rect x="360.5" y="371.4" fill="#382800" width="13.1" height="11.9"/>
		<rect x="360.5" y="305.3" fill="#382800" width="13.1" height="11.9"/>
		<rect x="360.5" y="327.3" fill="#382800" width="13.1" height="11.9"/>
		<rect x="360.5" y="349.4" fill="#382800" width="13.1" height="11.9"/>
		<rect x="291.2" y="261.2" fill="#382800" width="13.9" height="11.9"/>
		<rect x="219.2" y="239.2" fill="#382800" width="13.9" height="11.9"/>
		<rect x="243.2" y="261.2" fill="#382800" width="13.9" height="11.9"/>
		<rect x="243.2" y="239.2" fill="#382800" width="13.9" height="11.9"/>
		<rect x="195.2" y="261.2" fill="#382800" width="13.9" height="11.9"/>
		<rect x="267.2" y="239.2" fill="#382800" width="13.9" height="11.9"/>
		<rect x="219.2" y="261.2" fill="#382800" width="13.9" height="11.9"/>
		<rect x="267.2" y="261.2" fill="#382800" width="13.9" height="11.9"/>
		<rect x="150.2" y="283.2" fill="#382800" width="11.9" height="11.9"/>
		<rect x="338.5" y="415.4" fill="#382800" width="11.9" height="11.9"/>
		<rect x="315.1" y="261.2" fill="#382800" width="13.2" height="11.9"/>
		<rect x="172.2" y="261.2" fill="#382800" width="12.9" height="11.9"/>
		<polygon fill="#382800" points="383.5,415.5 383.5,427.5 394.3,427.5 394.4,427.3 394.4,415.5 		"/>
		<polygon fill="#382800" points="390.2,393.5 383.5,393.5 383.5,405.4 389.2,405.4 394.3,405.4 394.4,405.4 394.4,405.3 
			394.4,393.5 394.3,393.5 		"/>
		<polygon fill="#382800" points="391,371.4 383.5,371.4 383.5,383.4 390.2,383.4 394.3,383.4 394.4,383.4 394.4,383.2 394.4,371.4 
			394.3,371.4 		"/>
		<path fill="#382800" d="M394.4,371.4"/>
		<path fill="#382800" d="M383.7,339.3h4.9h1.8c-0.9-3.8-2-7.9-3.4-11.9h-3.4V339.3z"/>
		<path fill="#382800" d="M338.3,262.1c0,0-0.1-0.1-0.1-0.1v11.1h11.9v-0.6C347,269.6,343,265.9,338.3,262.1z"/>
		<path fill="#382800" d="M315.3,246.3v2.4v2.4h8c-2.6-1.6-5.1-3.2-7.9-4.8C315.3,246.3,315.3,246.3,315.3,246.3z"/>
		<path fill="#382800" d="M291.2,251h13.9v-2.3v-7.6c-1.4-0.6-2.7-1.3-4.1-1.9h-9.8V251z"/>
		<path fill="#382800" d="M199.6,239.2c-1.5,0.6-2.9,1.3-4.3,1.9c0,0-0.1,0-0.1,0.1v0.1h0v10h13.9v-11.9L199.6,239.2z"/>
		<path fill="#382800" d="M185.2,246.4c-2.7,1.5-5.2,3-7.7,4.6c-0.1,0.1-0.2,0.2-0.3,0.2h0.2h1.9h5.8l0.3-4.9c0,0,0,0,0,0v-0.1
			C185.4,246.3,185.3,246.3,185.2,246.4z"/>
		<path fill="#382800" d="M150.3,272.6c0,0-0.1,0.1-0.1,0.1v0.1v0.5h11.9v-10.5v-0.5v-0.1C157.4,265.9,153.4,269.6,150.3,272.6z"/>
		<path fill="#382800" d="M129.4,295c-0.2,0.3-0.2,0.3-0.2,0.3h10.9v-11.9h-0.4C135.9,286.9,132.4,290.8,129.4,295z"/>
		<path fill="#382800" d="M108.2,349.5c-0.8,4.6-1.3,8.7-1.7,11.6c0,0.1,0,0.2,0,0.3h7.5v0h2.9v-11.9h-3.8H108.2L108.2,349.5z"/>
		<path fill="#382800" d="M113.6,327.4C113.6,327.5,113.6,327.5,113.6,327.4c-1.2,4.1-2.4,7.9-3.3,11.6c0,0.1,0,0.2-0.1,0.3h2.8v0
			h3.8v-11.9v-0.1H113.6z"/>
	</g>
	<g>
		<path fill="#DAD9D8" d="M394.3,361.3h-10.6v-11.9h8.8c-0.6-3.1-1-6.8-2.1-10.1h-6.7v-11.9h3.4c-3.4-11.4-8.8-23.1-15.5-32.1h-11
			v-11.9h0.3c-0.6-0.5-1.4-1.4-2-1.9c0,0-2.8-3.5-8.5-8.8v0.6h-11.9V262c-4.9-4.1-9.3-7.2-15.2-10.9h-8v-4.9
			c-3.5-2.1-6.5-3.6-10.1-5.2v10h-13.9v-11.8h9.7c-14-6.3-32.4-11.1-50.9-11.3c-18.9-0.1-35.6,5-50.4,11.4h9.4v11.9h-13.9v-10
			c-3.6,1.5-6.7,3.2-9.7,5.1l-0.3,4.9h-7.7c-5.7,3.7-10.9,7.3-15.3,11v11h-11.9v-0.5c-5.5,5.3-9.7,10-10.3,10.6h0.2v11.9h-10.9
			c-7.5,10.3-12.5,21.5-15.5,32.1h3.2v11.9h-6.5c-0.8,3.6-1.5,6.7-2.1,10.1h8.6v11.9h-10.3c-0.5,3.5-0.5,5.9-0.5,5.9v4.1h10.8v11.9
			h-10.8v10.1h10.8v11.9h-10.8v10.1h10.8v11.9h-10.8v10h66.1v-155V282l155.9-0.1v0.5v155.5l66.1-0.2v-10.1h-10.8v-11.9h10.8v-10.1
			h-10.8v-11.9h10.8v-10.1h-10.8v-11.9h10.8C394.5,367.2,394.6,364.2,394.3,361.3z M140.2,427.3h-13.1v-11.9h13.1V427.3z
			 M140.2,405.3h-13.1v-11.9h13.1V405.3z M140.2,383.4h-13.1v-11.9h13.1V383.4z M140.2,361.3h-13.1v-11.9h13.1V361.3z M140.2,339.3
			h-13.1v-11.9h13.1V339.3z M140.2,317.2h-13.1v-11.9h13.1V317.2z M162.1,427.3h-11.9v-11.9h11.9V427.3z M162.1,405.3h-11.9v-11.9
			h11.9V405.3z M162.1,383.4h-11.9v-11.9h11.9V383.4z M162.1,361.3h-11.9v-11.9h11.9V361.3z M162.1,339.3h-11.9v-11.9h11.9V339.3z
			 M162.1,317.2h-11.9v-11.9h11.9V317.2z M162.1,295.2h-11.9v-11.9h11.9V295.2z M185.1,273.2h-12.9v-11.9h12.9V273.2z M209.1,273.2
			h-13.9v-11.9h13.9V273.2z M233.1,273.2h-13.9v-11.9h13.9V273.2z M233.1,251.1h-13.9v-11.9h13.9V251.1z M257.1,273.2h-13.9v-11.9
			h13.9V273.2z M257.1,251.1h-13.9v-11.9h13.9V251.1z M281.1,273.2h-13.9v-11.9h13.9V273.2z M281.1,251.1h-13.9v-11.9h13.9V251.1z
			 M305.2,273.2h-13.9v-11.9h13.9V273.2z M328.4,273.2h-13.2v-11.9h13.2V273.2z M350.4,427.3h-11.9v-11.9h11.9V427.3z M350.4,405.3
			h-11.9v-11.9h11.9V405.3z M350.4,383.4h-11.9v-11.9h11.9V383.4z M350.4,361.3h-11.9v-11.9h11.9V361.3z M350.4,339.3h-11.9v-11.9
			h11.9V339.3z M350.4,317.2h-11.9v-11.9h11.9V317.2z M350.4,295.2h-11.9v-11.9h11.9V295.2z M373.6,427.3h-13.1v-11.9h13.1V427.3z
			 M373.6,405.3h-13.1v-11.9h13.1V405.3z M373.6,383.4h-13.1v-11.9h13.1V383.4z M373.6,361.3h-13.1v-11.9h13.1V361.3z M373.6,339.3
			h-13.1v-11.9h13.1V339.3z M373.6,317.2h-13.1v-11.9h13.1V317.2z"/>
		<g>
			<path fill="#212120" d="M363.9,273.6c0,5.3-4.3,9.6-9.6,9.6H146.3c-5.3,0-9.6-4.3-9.6-9.6l0,0c0-5.3,4.3-9.6,9.6-9.6h207.8
				C359.5,263.9,363.9,268.3,363.9,273.6L363.9,273.6z"/>
			<path fill="#212120" d="M363.9,255.1c0,5.3-4.3,9.6-9.6,9.6H146.3c-5.3,0-9.6-4.3-9.6-9.6l0,0c0-5.3,4.3-9.6,9.6-9.6h207.8
				C359.5,245.4,363.9,249.7,363.9,255.1L363.9,255.1z"/>
		</g>
	</g>
</g>
</svg>
