<?xml version="1.0" encoding="utf-8"?>
<!-- Generator: Adobe Illustrator 18.0.0, SVG Export Plug-In . SVG Version: 6.00 Build 0)  -->
<!DOCTYPE svg PUBLIC "-//W3C//DTD SVG 1.1//EN" "http://www.w3.org/Graphics/SVG/1.1/DTD/svg11.dtd">
<svg version="1.1" id="content" xmlns="http://www.w3.org/2000/svg" xmlns:xlink="http://www.w3.org/1999/xlink" x="0px" y="0px"
	 width="500px" height="500px" viewBox="0 0 500 500" enable-background="new 0 0 500 500" xml:space="preserve">
<rect id="position" display="none" fill="none" stroke="#000000" width="500" height="500"/>
<g>
	<path fill="#382800" d="M253.9,101.7h-25.5c-4.1-52.2,31-92.3,31-92.3L253.9,101.7z"/>
	<path fill="#382800" d="M272.1,24.6c0,0-9.4,5.6-12.2,17.8s8.3,23.4,8.3,23.4l1.7-10.3L272.1,24.6z"/>
	<path fill="#382800" d="M284.1,40.4c0,0-11.3,3.8-12,11.4c-0.8,7.6,6,6.7,6,6.7L284.1,40.4z"/>
	<path fill="#382800" d="M294.9,80.5c0,0-33.2-6.9-41,21.2c0,0-13.2-43.1,5.5-92.3c0,0-1,41.9,7.4,49c0,0-3.8-21.8,5.3-33.8
		c0,0-2.2,19.4,5,28.7c0,0,0-6.4,7-12.9C284.1,40.4,277.2,70.4,294.9,80.5z"/>
</g>
<g id="bounds_1_" display="none">
	
		<rect x="105.3" y="-60.1" display="inline" fill="none" stroke="#000000" stroke-width="1.122" stroke-miterlimit="10" width="289.4" height="289.4"/>
</g>
</svg>
