<?xml version="1.0" encoding="utf-8"?>
<!-- Generator: Adobe Illustrator 18.0.0, SVG Export Plug-In . SVG Version: 6.00 Build 0)  -->
<!DOCTYPE svg PUBLIC "-//W3C//DTD SVG 1.1//EN" "http://www.w3.org/Graphics/SVG/1.1/DTD/svg11.dtd">
<svg version="1.1" id="content" xmlns="http://www.w3.org/2000/svg" xmlns:xlink="http://www.w3.org/1999/xlink" x="0px" y="0px"
	 width="500px" height="500px" viewBox="0 0 500 500" enable-background="new 0 0 500 500" xml:space="preserve">
<rect id="position" display="none" fill="none" stroke="#000000" width="500" height="500"/>
<g id="bounds" display="none">
	<rect x="0.2" y="80.2" display="inline" fill="none" stroke="#EAEAEA" stroke-miterlimit="10" width="499.5" height="499.5"/>
</g>
<g>
	<g>
		<path fill="#C9C8CE" d="M322.5,328.9l28.5-41.4c1.7-2.5,1.3-5.7-0.9-7.2c-2.2-1.5-5.4-0.8-7.1,1.7l-29.6,43
			c-19.5-7.7-41.2-12-64-12s-44.5,4.3-64,12l-29.6-43c-1.7-2.5-4.9-3.2-7.1-1.7c-2.2,1.5-2.6,4.7-0.9,7.2l28.5,41.4
			C131,350,99.2,390,95.2,436.7h308.4C399.5,390,367.8,350,322.5,328.9"/>
		<g>
			<path fill="#FFFFFF" d="M185,394.1c-9.4,0-17.1-7.6-17.1-17.1c0-9.4,7.6-17.1,17.1-17.1c9.4,0,17.1,7.6,17.1,17.1
				C202,386.4,194.4,394.1,185,394.1"/>
			<path fill="#FFFFFF" d="M313.8,394.1c-9.4,0-17.1-7.6-17.1-17.1c0-9.4,7.6-17.1,17.1-17.1c9.4,0,17.1,7.6,17.1,17.1
				C330.9,386.4,323.2,394.1,313.8,394.1"/>
		</g>
	</g>
	<g>
		<path fill="#382800" d="M255.5,354.9h-36c-5.8-73.7,43.8-130.4,43.8-130.4L255.5,354.9z"/>
		<path fill="#382800" d="M281.2,246c0,0-13.3,7.9-17.2,25.1s11.7,33.1,11.7,33.1l2.4-14.6L281.2,246z"/>
		<path fill="#382800" d="M298.2,268.3c0,0-16,5.4-17,16.1c-1.1,10.7,8.5,9.5,8.5,9.5L298.2,268.3z"/>
		<path fill="#382800" d="M313.4,324.9c0,0-46.9-9.7-57.9,29.9c0,0-18.6-60.9,7.8-130.4c0,0-1.4,59.2,10.5,69.2
			c0,0-5.4-30.8,7.5-47.7c0,0-3.1,27.4,7.1,40.5c0,0,0-9,9.9-18.2C298.2,268.3,288.4,310.7,313.4,324.9z"/>
	</g>
</g>
</svg>
