<?xml version="1.0" encoding="utf-8"?>
<!-- Generator: Adobe Illustrator 16.0.0, SVG Export Plug-In . SVG Version: 6.00 Build 0)  -->
<!DOCTYPE svg PUBLIC "-//W3C//DTD SVG 1.1//EN" "http://www.w3.org/Graphics/SVG/1.1/DTD/svg11.dtd">
<svg version="1.1" id="content" xmlns="http://www.w3.org/2000/svg" xmlns:xlink="http://www.w3.org/1999/xlink" x="0px" y="0px"
	 width="500px" height="500px" viewBox="0 0 500 500" enable-background="new 0 0 500 500" xml:space="preserve">
<rect id="position" x="0" display="none" fill="none" stroke="#000000" width="500" height="500"/>
<g id="bounds">
	
		<rect id="bounds_1_" x="77" y="-110.5" display="none" fill="none" stroke="#000000" stroke-width="1.0988" stroke-miterlimit="10" width="346" height="346"/>
</g>
<path fill="#382800" d="M368.262,163.262c0,0,9.688,26.913-12.271,52.652c-19.395,20.681-12.672,57.156-8.931,61.746
	c-8.321,3.936-16.416-2.97-16.416-2.97s13.332,25.239-3.572,42.382c4.524-20-8.095-33.572-8.095-33.572s6.189,33.333-25.238,54.048
	c10.715-15.952-1.666-33.571-1.666-33.571s-6.473,34.762-42.046,48.333c17.046-11.666,12.76-22.856,12.76-22.856
	s-13.095,29.047-49.523,26.666c23.81-11.429,24.048-31.904,24.048-31.904s-9.047,8.334-20,7.619
	c12.381-16.429-2.619-28.096-2.619-28.096s-12.826,15.136-5,32.619c-10.238-6.19-14.286-23.095-9.762-36.904
	C186.167,310.667,172.667,308,163,300.667c26.5-4.833,26-52.333,10.667-69.333c3-11.667,1-32.667-12.167-51.5
	s-13.875-36.708,4.75-55.333c30.75,0,182.676,0,182.676,0L368.262,163.262z"/>
</svg>
