<?xml version="1.0" encoding="utf-8"?>
<!-- Generator: Adobe Illustrator 16.0.0, SVG Export Plug-In . SVG Version: 6.00 Build 0)  -->
<!DOCTYPE svg PUBLIC "-//W3C//DTD SVG 1.1//EN" "http://www.w3.org/Graphics/SVG/1.1/DTD/svg11.dtd">
<svg version="1.1" id="content" xmlns="http://www.w3.org/2000/svg" xmlns:xlink="http://www.w3.org/1999/xlink" x="0px" y="0px"
	 width="500px" height="500px" viewBox="0 0 500 500" enable-background="new 0 0 500 500" xml:space="preserve">
<path fill="#382800" d="M368.911,289.16l-19.336-38.762c0,0-151.926,0-182.676,0c-18.625,18.625-17.917,36.5-4.75,55.334
	c13.167,18.832,15.167,39.832,12.167,51.5c15.333,17,15.833,64.5-10.667,69.333c9.667,7.333,23.167,10,36.93-1.216
	c-4.524,13.812-0.477,30.716,9.762,36.904c-7.826-17.481,5-32.619,5-32.619s15,11.667,2.619,28.098c10.953,0.715,20-7.619,20-7.619
	s-0.238,20.476-24.048,31.902c36.429,2.383,49.521-26.666,49.521-26.666s4.287,11.19-12.76,22.856
	c35.573-13.571,42.047-48.333,42.047-48.333s12.381,17.619,1.665,33.571c31.429-20.716,25.238-54.049,25.238-54.049
	s12.618,13.571,8.095,33.571c16.903-17.143,3.571-42.382,3.571-42.382S322,379,346,373
	C357.987,370.098,368.911,289.16,368.911,289.16z"/>
<rect id="position" display="none" fill="none" stroke="#000000" width="500" height="500"/>
<g id="bounds" display="none">
	<rect x="0.2" y="80.2" display="inline" fill="none" stroke="#EAEAEA" stroke-miterlimit="10" width="499.498" height="499.5"/>
</g>
<g>
	<g>
		<path fill="#C9C8CE" d="M303.4,208.6l20.199-29.3c1.2-1.7,0.9-4-0.699-5.1c-1.601-1.1-3.801-0.5-5,1.2l-21,30.4
			c-13.801-5.4-29.101-8.5-45.301-8.5c-16.2,0-31.5,3-45.3,8.5l-20.9-30.4c-1.198-1.7-3.398-2.3-5-1.2c-1.6,1.1-1.898,3.4-0.698,5.1
			l20.198,29.3c-32.1,14.9-54.5,43.3-57.398,76.3h218.3C357.9,251.9,335.4,223.6,303.4,208.6"/>
		<g>
			<path fill="#FFFFFF" d="M206,254.8c-6.7,0-12.102-5.4-12.102-12.1c0-6.7,5.4-12.1,12.102-12.1s12.1,5.4,12.1,12.1
				C218.1,249.4,212.7,254.8,206,254.8"/>
			<path fill="#FFFFFF" d="M297.2,254.8c-6.7,0-12.103-5.4-12.103-12.1c0-6.7,5.4-12.1,12.103-12.1c6.698,0,12.1,5.4,12.1,12.1
				C309.3,249.4,303.9,254.8,297.2,254.8"/>
		</g>
	</g>
</g>
<path fill="#382800" d="M281.404,170.511c5.758-2.284,12.242,0.366,12.242,0.366s-6.395-8.771-21.469-6.853
	s-21.502,7.492-21.502,7.492s-6.427-5.573-21.501-7.492c-15.074-1.919-21.47,6.853-21.47,6.853s6.485-2.65,12.241-0.366
	c-11.146,0.548-17.542,8.222-15.257,22.475c31.703,0,45.986,0,45.986,0s14.283,0,45.986,0
	C298.947,178.733,292.551,171.06,281.404,170.511z"/>
<path fill="#382800" d="M250.625,192.986l44.854,6.493c0,0-1.299,2.985,1.323,4.599c0,0,55.349,10.821,81.849,61.32
	c-7.5-10-13.5-11.5-13.5-11.5s28.219,30.527,4.25,90c-15.5,34.25-20.75,47.25-18,64.251c-20.25-22.001-17.75-60.501-17.75-60.501
	s-9.5,15.5-2.5,36.25c-29.75-52.75,4.307-72.438,6.75-91.75c6.25-54.5-45.75-67.75-67.25-72.75
	c-17.654-4.105-19.815-15.918-20.024-20.015"/>
<path fill="#382800" d="M250.625,192.986l-44.854,6.493c0,0,1.299,2.985-1.324,4.599c0,0-55.348,10.821-81.848,61.32
	c7.5-10,13.5-11.5,13.5-11.5s-28.218,30.527-4.25,90c15.5,34.25,20.75,47.25,18,64.251c20.25-22.001,17.75-60.501,17.75-60.501
	s9.5,15.5,2.5,36.25c29.75-52.75-4.307-72.438-6.75-91.75c-6.25-54.5,45.75-67.75,67.25-72.75
	c17.654-4.105,19.816-15.918,20.025-20.015"/>
<g>
	<g>
		<path fill="#D2A25A" d="M203.29,187.421l-0.707-4.108c1.696-0.557,3.221-1.007,4.977-1.466L203.29,187.421z"/>
		<path fill="#D2A25A" d="M208.126,202.031c-0.738,0.217-1.473,0.445-2.199,0.684l-0.389-2.253L208.126,202.031z"/>
		<path fill="#475C51" d="M212.824,180.511"/>
		<path fill="#475C51" d="M210.13,201.473c-0.961,0.256-1.914,0.527-2.856,0.818l-1.614-1.123l-0.558-3.239L210.13,201.473z"/>
		<path fill="#475C51" d="M212.169,180.746c-1.604,0.35-3.205,0.731-4.785,1.152l-4.202,4.893l0.459,2.664L212.169,180.746z"/>
		<path fill="#FCBE31" d="M210.056,192.41l11.238-13.209c-3.746,0.521-6.707,0.976-10.517,1.853l-7.149,8.325l1.5,8.705l4.91,3.414
			c3.565-0.957,6.104-1.512,9.727-2.08L210.056,192.41z"/>
		<path fill="#D2A25A" d="M250.675,177.305c0,0-2.06-0.066-5.402-0.023c-0.217,0.002-0.439,0.277-0.666,0.281l6.068,4.993
			l6.07-4.931c-0.228-0.004-0.45-0.341-0.667-0.344C252.736,177.239,250.675,177.305,250.675,177.305z"/>
		<path fill="#D2A25A" d="M298.06,187.421l0.707-4.108c-1.696-0.557-3.221-1.007-4.977-1.466L298.06,187.421z"/>
		<path fill="#D2A25A" d="M293.224,202.031c0.738,0.217,1.473,0.445,2.199,0.684l0.389-2.253L293.224,202.031z"/>
		<path fill="#D2A25A" d="M250.675,196.49l-0.992,0.836c0.324,0,0.701,0,0.992,0s0.668,0,0.992,0L250.675,196.49z"/>
		<path fill="#475C51" d="M288.526,180.511"/>
		<path fill="#475C51" d="M291.222,201.473c0.96,0.256,1.912,0.527,2.855,0.818l1.613-1.123l0.559-3.239L291.222,201.473z"/>
		<path fill="#475C51" d="M289.181,180.746c1.604,0.35,3.203,0.731,4.785,1.152l4.201,4.893l-0.459,2.664L289.181,180.746z"/>
		<path fill="#475C51" d="M255.944,177.281l-5.27,3.613l-5.271-3.613c-0.836,0.01-2.491,0.039-3.614,0.066l8.885,6.078l8.884-6.078
			C258.437,177.32,256.78,177.291,255.944,177.281z"/>
		<path fill="#475C51" d="M250.675,192.986l-3.809,4.353c1.124-0.009,2.137-0.011,3.02-0.011l0.789-0.838l0.789,0.838
			c0.884,0,1.896,0.002,3.021,0.011L250.675,192.986z"/>
		<path fill="#FCBE31" d="M270.106,178.048c-4.184-0.369-7.484-0.595-10.629-0.692l-8.803,6.069l-8.803-6.069
			c-3.145,0.098-6.447,0.323-10.63,0.692l14.188,10.017l-8.686,9.568l0.168-0.008c5.485-0.299,6.313-0.258,9.953-0.287l3.809-4.354
			l3.809,4.354c3.639,0.029,4.467-0.012,9.952,0.287l0.169,0.008l-8.686-9.568L270.106,178.048z"/>
		<path fill="#FCBE31" d="M291.294,192.41l-11.147-13.035c0.974,0.136,1.889,0.103,2.776,0.237c2.525,0.381,4.83,0.793,7.649,1.442
			l7.149,8.325l-1.5,8.705l-4.909,3.414c-3.565-0.957-6.104-1.512-9.728-2.08L291.294,192.41z"/>
		<path fill="#475C51" d="M284.61,199.996l9.963-6.924l-11.591-13.496c-3.659-0.478-10.569-1.348-15.753-1.805l-14.357,9.979
			l8.343,9.715C271.166,197.908,280.607,199.331,284.61,199.996z"/>
		<path fill="#587265" d="M281.11,199.448l9.839-6.839l-11.59-13.496c-2.526-0.314-5.521-0.673-8.369-0.974l-14.495,10.072
			l8.107,9.441C271.041,198.079,277.013,198.842,281.11,199.448z"/>
		<path fill="#475C51" d="M274.419,198.562l9.53-7.376l-9.527-10.007l-10.924,8.456l8.213,8.627
			C272.641,198.359,273.545,198.46,274.419,198.562z"/>
		<polygon fill="#D2A25A" points="274.231,183.688 281.171,190.976 273.214,197.133 266.275,189.846 		"/>
		<path fill="#475C51" d="M240.071,197.559l8.406-9.809l-14.357-9.979c-5.184,0.457-12.094,1.327-15.753,1.805l-11.591,13.496
			l9.963,6.924C220.742,199.331,230.12,198.002,240.071,197.559z"/>
		<path fill="#587265" d="M236.747,197.653l8.107-9.441l-14.495-10.072c-2.849,0.301-5.843,0.659-8.369,0.974l-11.59,13.496
			l9.839,6.839C224.337,198.842,230.309,198.079,236.747,197.653z"/>
		<path fill="#475C51" d="M229.639,198.263l8.213-8.627l-10.924-8.456l-9.527,10.007l9.53,7.376
			C227.805,198.46,228.709,198.359,229.639,198.263z"/>
		<polygon fill="#D2A25A" points="227.118,183.688 220.179,190.976 228.136,197.133 235.074,189.846 		"/>
	</g>
</g>
</svg>
