<?xml version="1.0" encoding="utf-8"?>
<!-- Generator: Adobe Illustrator 16.0.0, SVG Export Plug-In . SVG Version: 6.00 Build 0)  -->
<!DOCTYPE svg PUBLIC "-//W3C//DTD SVG 1.1//EN" "http://www.w3.org/Graphics/SVG/1.1/DTD/svg11.dtd">
<svg version="1.1" id="content" xmlns="http://www.w3.org/2000/svg" xmlns:xlink="http://www.w3.org/1999/xlink" x="0px" y="0px"
	 width="500px" height="500px" viewBox="0 0 500 500" enable-background="new 0 0 500 500" xml:space="preserve">
<rect id="position" display="none" fill="none" stroke="#000000" width="500" height="500"/>
<rect id="bounds" x="98.5" y="-13.3" display="none" fill="none" stroke="#000000" stroke-width="1.1773" stroke-miterlimit="10" width="303" height="303"/>
<g opacity="0.32">
	<path fill="#010101" d="M146.9,127.3c0,0,7.2,51.8,85.8,59.9c-6.1-0.7-12.1-0.3-18.2-1.3c-15.6-2.4-29.5-8.5-43.4-15.8
		c-7.7-4.1-13.9-10.5-18.2-18c-2.2-3.8-3.8-7.9-5-12.2C147,135.6,147.6,131.6,146.9,127.3"/>
	<path fill="#010101" d="M256.3,204.3c0,0,78.8-18.7,96.5-59.1C352.9,145.2,340.1,193.6,256.3,204.3"/>
	<path fill="#010101" d="M244.5,194.6c0,0,18.4,1.5,31.3-5C275.8,189.5,268.9,198.3,244.5,194.6"/>
	<path fill="#010101" d="M241.7,211.7c0,0-53.5,3-73-29.2C168.7,182.5,201.7,210.2,241.7,211.7"/>
	<path fill="#010101" d="M315.8,199.2c0,0,19.3-8.7,20.9-18.4C336.8,180.7,335.1,195.9,315.8,199.2"/>
	<path fill="#010101" d="M165.8,92.2c0,0,34-34.8,78.8-38.9C244.6,53.3,206.2,45,165.8,92.2"/>
	<path fill="#010101" d="M326.3,89.1c0,0,21.4,11.7,24.7,41.1C351,130.1,358,109.2,326.3,89.1"/>
	<path fill="#010101" d="M223.2,68.3c0,0,29.1-12,57.8-0.8C281.1,67.4,253.4,50.9,223.2,68.3"/>
	<path fill="#010101" d="M281,227c0,0,45.5-8.6,60.6-37c0,0-1.7,17.5-24.8,32.3C316.8,222.2,303.8,228.9,281,227"/>
</g>
</svg>
