<?xml version="1.0" encoding="utf-8"?>
<!-- Generator: Adobe Illustrator 18.0.0, SVG Export Plug-In . SVG Version: 6.00 Build 0)  -->
<!DOCTYPE svg PUBLIC "-//W3C//DTD SVG 1.1//EN" "http://www.w3.org/Graphics/SVG/1.1/DTD/svg11.dtd">
<svg version="1.1" id="content" xmlns="http://www.w3.org/2000/svg" xmlns:xlink="http://www.w3.org/1999/xlink" x="0px" y="0px"
	 width="500px" height="500px" viewBox="0 0 500 500" enable-background="new 0 0 500 500" xml:space="preserve">
<rect id="position" display="none" fill="none" stroke="#000000" width="500" height="500"/>
<g id="bounds" display="none">
	<rect x="0.2" y="80.2" display="inline" fill="none" stroke="#EAEAEA" stroke-miterlimit="10" width="499.5" height="499.5"/>
</g>
<g>
	<ellipse fill="#382800" cx="250.2" cy="319.5" rx="126.6" ry="99.9"/>
	<ellipse opacity="0.32" enable-background="new    " cx="250.2" cy="319.5" rx="126.6" ry="99.9"/>
	<g>
		<path fill="#C9C8CE" d="M315.6,259.8l25.6-37.2c1.5-2.2,1.1-5.1-0.8-6.5c-2-1.4-4.8-0.7-6.3,1.5l-26.6,38.7
			c-17.6-6.9-37-10.8-57.6-10.8c-20.5,0-40,3.8-57.6,10.8l-26.6-38.7c-1.5-2.2-4.4-2.9-6.4-1.5c-2,1.4-2.4,4.3-0.8,6.5l25.6,37.2
			c-40.8,19-69.3,55-73,97h277.5C385,314.8,356.4,278.8,315.6,259.8"/>
		<g>
			<path fill="#FFFFFF" d="M191.9,318.5c-8.5,0-15.4-6.9-15.4-15.4c0-8.5,6.9-15.4,15.4-15.4c8.5,0,15.3,6.9,15.3,15.4
				C207.2,311.6,200.4,318.5,191.9,318.5"/>
			<path fill="#FFFFFF" d="M307.8,318.5c-8.5,0-15.3-6.9-15.3-15.4c0-8.5,6.9-15.4,15.3-15.4c8.5,0,15.4,6.9,15.4,15.4
				C323.2,311.6,316.3,318.5,307.8,318.5"/>
		</g>
	</g>
	<g>
		<g>
			<path fill="#382800" d="M363.6,443.1h-73.7v-49.5c0,0,77.4-0.8,75.8,3.6C361,408.9,363.6,443.1,363.6,443.1z"/>
			<g>
				<path fill="#382800" d="M291.7,451.8c-1,0-1.9-0.9-1.9-1.9v-14.6c0-1,0.9-1.9,1.9-1.9s1.9,0.9,1.9,1.9v14.6
					C293.6,450.9,292.7,451.8,291.7,451.8z"/>
			</g>
			<g>
				<path fill="#382800" d="M361.6,451.8c-1,0-1.9-0.9-1.9-1.9v-14.6c0-1,0.9-1.9,1.9-1.9s1.9,8.8,1.9,9.8v6.7
					C363.6,450.9,362.7,451.8,361.6,451.8z"/>
			</g>
			<g>
				<path fill="#382800" d="M351.6,451.8c-1,0-1.9-0.9-1.9-1.9v-14.6c0-1,0.9-1.9,1.9-1.9s1.9,0.9,1.9,1.9v14.6
					C353.5,450.9,352.7,451.8,351.6,451.8z"/>
			</g>
			<g>
				<path fill="#382800" d="M341.7,451.8c-1,0-1.9-0.9-1.9-1.9v-14.6c0-1,0.9-1.9,1.9-1.9s1.9,0.9,1.9,1.9v14.6
					C343.6,450.9,342.7,451.8,341.7,451.8z"/>
			</g>
			<g>
				<path fill="#382800" d="M331.6,451.8c-1,0-1.9-0.9-1.9-1.9v-14.6c0-1,0.9-1.9,1.9-1.9s1.9,0.9,1.9,1.9v14.6
					C333.5,450.9,332.8,451.8,331.6,451.8z"/>
			</g>
			<g>
				<path fill="#382800" d="M311.7,451.8c-1,0-1.9-0.9-1.9-1.9v-14.6c0-1,0.9-1.9,1.9-1.9s1.9,0.9,1.9,1.9v14.6
					C313.6,450.9,312.7,451.8,311.7,451.8z"/>
			</g>
			<g>
				<path fill="#382800" d="M321.7,451.8c-1,0-1.9-0.9-1.9-1.9v-14.6c0-1,0.9-1.9,1.9-1.9s1.9,0.9,1.9,1.9v14.6
					C323.6,450.9,322.7,451.8,321.7,451.8z"/>
			</g>
			<g>
				<path fill="#382800" d="M301.8,451.8c-1,0-1.9-0.9-1.9-1.9v-14.6c0-1,0.9-1.9,1.9-1.9s1.9,0.9,1.9,1.9v14.6
					C303.7,450.9,302.8,451.8,301.8,451.8z"/>
			</g>
		</g>
		<path fill="#382800" d="M383.8,297.9c-24.8-90.6-125.1-90-134-89.9c-8.9-0.3-109.2-0.8-134,89.9c0,0-13.3,46.5-7.1,58.9
			c6.1,12.3,14.7,7,22.2,34.3c5.8,21.5,65,38.6,118.2,39.8l0,0c0.3,0,0.4,0,0.6,0c0.3,0,0.4,0,0.6,0l0,0
			c53.3-1.1,112.4-18.3,118.2-39.8c7.5-27.3,16.1-22,22.2-34.3C397,344.5,383.8,297.9,383.8,297.9z M249.9,356.8L249.9,356.8
			C249.9,356.8,249.8,356.8,249.9,356.8c-0.1,0-0.1,0-0.1,0l0,0c-4.2,0.1-106.5,1.9-115.9-56.8c0,0,43-55.4,115.6-53.3h1.1
			C323.1,244.5,366,300,366,300C356.3,358.8,254,356.9,249.9,356.8z"/>
	</g>
	<g opacity="0.12">
		<path d="M289.8,427.4v0.1c71.8-2.2,75.8-30.3,75.8-30.3h-0.1C355.3,410.7,324.4,421.9,289.8,427.4z"/>
		<path d="M128.7,312.8c0,0,13.1,65.2,113.4,69.5c-7.8-0.4-15.4,0.5-23.1-0.3c-20-1.9-38.1-8.5-56.3-16.8
			c-10-4.6-18.4-12.3-24.4-21.5c-3.1-4.7-5.5-9.8-7.2-15.1C129.4,323.2,129.9,318.2,128.7,312.8z"/>
		<path d="M232.6,396.1c0,0,102.3-11.4,130.9-59.7C363.6,336.3,340,395.4,232.6,396.1z"/>
		<path d="M258.7,368.4c0,0,23.3,2.8,40-5C298.7,363.4,289.6,374.2,258.7,368.4z"/>
		<path d="M250.4,419.6c0,0-68,3.8-92.8-37.1C157.6,382.5,199.6,417.7,250.4,419.6z"/>
		<path d="M330.5,387.2c0,0,25.4-8.9,28.6-21C359.1,366.2,355.3,385.3,330.5,387.2z"/>
		<path d="M143.4,271.1c0,0,43.2-44.2,100.2-49.5C243.5,221.7,194.7,211.1,143.4,271.1z"/>
		<path d="M347.4,267.2c0,0,27.2,14.9,31.4,52.2C378.8,319.3,387.7,292.7,347.4,267.2z"/>
		<path d="M216.3,240.7c0,0,37-15.3,73.5-1C289.9,239.6,254.7,218.6,216.3,240.7z"/>
	</g>
</g>
</svg>
