<?xml version="1.0" encoding="utf-8"?>
<!-- Generator: Adobe Illustrator 18.0.0, SVG Export Plug-In . SVG Version: 6.00 Build 0)  -->
<!DOCTYPE svg PUBLIC "-//W3C//DTD SVG 1.1//EN" "http://www.w3.org/Graphics/SVG/1.1/DTD/svg11.dtd">
<svg version="1.1" id="content" xmlns="http://www.w3.org/2000/svg" xmlns:xlink="http://www.w3.org/1999/xlink" x="0px" y="0px"
	 width="500px" height="500px" viewBox="0 0 500 500" enable-background="new 0 0 500 500" xml:space="preserve">
<rect id="position" display="none" fill="none" stroke="#000000" width="500" height="500"/>
<g id="bounds_2_" display="none">
	
		<rect x="108.2" y="-4" display="inline" fill="none" stroke="#000000" stroke-width="1.0056" stroke-miterlimit="10" width="283.7" height="283.7"/>
</g>
<path fill="#382800" d="M166.3,104.5c29.5-36,84.3-33.4,84.3-33.4s54.6-1.2,84.1,34.8c2,4.5,2,8.9,2,8.9s-11-2.5-18.1-17.3
	c0.5,7.4-3.7,11.2-3.7,11.2s-12.9-4.4-16-18.4c-3.3,11-7.3,12.3-7.3,12.3s-13.6-7.3-14.2-19.9c-1.1,10.3-7.3,16.2-7.3,16.2
	s-8.4-5.9-9.1-17.2c-3.6,11.2-10.5,17.1-12.6,17c-2-0.1-7-10.2-8.3-17C239.4,93,231,98.9,231,98.9s-6.2-5.9-7.3-16.2
	c-0.6,12.5-14.2,19.8-14.2,19.8s-4-1.2-7.3-12.3c-3.2,14-16,18.4-16,18.4s-4.2-3.8-3.7-11.2c-7.1,14.9-18.1,17.3-18.1,17.3
	S164.3,109,166.3,104.5z"/>
</svg>
