<?xml version="1.0" encoding="utf-8"?>
<!-- Generator: Adobe Illustrator 18.0.0, SVG Export Plug-In . SVG Version: 6.00 Build 0)  -->
<!DOCTYPE svg PUBLIC "-//W3C//DTD SVG 1.1//EN" "http://www.w3.org/Graphics/SVG/1.1/DTD/svg11.dtd">
<svg version="1.1" id="content" xmlns="http://www.w3.org/2000/svg" xmlns:xlink="http://www.w3.org/1999/xlink" x="0px" y="0px"
	 width="500px" height="500px" viewBox="0 0 500 500" enable-background="new 0 0 500 500" xml:space="preserve">
<rect id="position" display="none" fill="none" stroke="#000000" width="500" height="500"/>
<g id="bounds" display="none">
	<rect x="0.2" y="80.2" display="inline" fill="none" stroke="#EAEAEA" stroke-miterlimit="10" width="499.5" height="499.5"/>
</g>
<g>
	<path fill="#382800" d="M377.4,292.3c-1.2-2.4-2.5-4.6-4-7c3.2,1.4,6.3,3.4,8.7,6.3c-6.2-19.5-17.9-28.2-27.7-32.1
		c-9.4-3.7-17.4-2.9-17.4-2.9s13.7-10.2,15.3-18.2c-14,4.2-40.7-15.9-40.7-15.9s24.5-18.9,8.8-37.4c-2.9,19.3-35.9,8.7-45.1,20.4
		c7.6-18.5-5.7-28.3-5.7-28.3s3.1,15.9-16.3,23.5c4.5-18.2-7.7-22.5-7.7-22.5s4.2,9.7-15.8,18s-31.2,17.4-32.5,36.7
		c-26.4-15.9-40.5-9.3-50.9,4.1c12.4,0,13.9,9.8,13.9,9.8s-14.2,0.2-24.2,9.8c-1.9,1.7-3.5,3.7-5,6.1c5.3-1.5,9.1-0.5,11.6,1.1
		l4.2,4.6c0,0,0,0-0.1,0c-30.8,21-40.5,51.6-40.5,95.2c0,2.6,0,4,0,4v116.6l15.9-11.8l15.9,11.8l15.9-11.8l15.9,11.8l15.9-11.8
		l15.9,11.8l15.9-11.8l15.9,11.8l15.9-11.8l15.9,11.8l15.9-11.8l15.9,11.8l15.9-11.8l15.9,11.8l15.9-11.8l15.9,11.8l15.9-11.8
		l15.9,11.8c0-27.9,0-55.6,0-83.4c0-11.6,0-23.3,0-34.8C392.9,340.1,394,314.1,377.4,292.3z"/>
	<g>
		<path fill="#C9C8CE" d="M313.6,263.8l25.1-36.4c1.5-2.2,1.1-5-0.8-6.3c-1.9-1.3-4.7-0.7-6.2,1.5l-26,37.8
			c-17.2-6.8-36.2-10.5-56.3-10.5s-39.2,3.8-56.3,10.5l-26-37.8c-1.5-2.2-4.3-2.8-6.2-1.5c-1.9,1.3-2.3,4.2-0.8,6.3l25.1,36.4
			c-39.9,18.5-67.8,53.8-71.4,94.9H385C381.4,317.6,353.5,282.3,313.6,263.8"/>
		<g>
			<path fill="#FFFFFF" d="M192.6,321.2c-8.3,0-15-6.7-15-15c0-8.3,6.7-15,15-15c8.3,0,15,6.7,15,15
				C207.6,314.4,200.9,321.2,192.6,321.2"/>
			<path fill="#FFFFFF" d="M306,321.2c-8.3,0-15-6.7-15-15c0-8.3,6.7-15,15-15c8.3,0,15,6.7,15,15C321,314.4,314.3,321.2,306,321.2"
				/>
		</g>
	</g>
	<path fill="#382800" d="M145.7,290.2c36.7-44.8,104.8-41.5,104.8-41.5s67.9-1.5,104.6,43.3c2.5,5.6,2.5,11.1,2.5,11.1
		s-13.7-3.1-22.5-21.5c0.6,9.2-4.6,13.9-4.6,13.9s-16-5.5-19.9-22.9c-4.1,13.7-9.1,15.3-9.1,15.3s-16.9-9.1-17.7-24.7
		c-1.4,12.8-9.1,20.1-9.1,20.1s-10.4-7.3-11.3-21.4c-4.5,13.9-13.1,21.3-15.7,21.1c-2.5-0.1-8.7-12.7-10.3-21.1
		c-0.9,14.1-11.3,21.4-11.3,21.4s-7.7-7.3-9.1-20.1c-0.7,15.5-17.7,24.6-17.7,24.6s-5-1.5-9.1-15.3c-4,17.4-19.9,22.9-19.9,22.9
		s-5.2-4.7-4.6-13.9c-8.8,18.5-22.5,21.5-22.5,21.5S143.3,295.7,145.7,290.2z"/>
</g>
</svg>
