<?xml version="1.0" encoding="utf-8"?>
<!-- Generator: Adobe Illustrator 18.0.0, SVG Export Plug-In . SVG Version: 6.00 Build 0)  -->
<!DOCTYPE svg PUBLIC "-//W3C//DTD SVG 1.1//EN" "http://www.w3.org/Graphics/SVG/1.1/DTD/svg11.dtd">
<svg version="1.1" id="content" xmlns="http://www.w3.org/2000/svg" xmlns:xlink="http://www.w3.org/1999/xlink" x="0px" y="0px"
	 width="500px" height="500px" viewBox="0 0 500 500" enable-background="new 0 0 500 500" xml:space="preserve">
<rect id="position" display="none" fill="none" stroke="#000000" width="500" height="500"/>
<g id="bounds" display="none">
	<rect x="0.2" y="80.2" display="inline" fill="none" stroke="#EAEAEA" stroke-miterlimit="10" width="499.5" height="499.5"/>
</g>
<g>
	<ellipse fill="#382800" cx="250.3" cy="322.3" rx="118.8" ry="99"/>
	<g>
		<path fill="#C9C8CE" d="M317,335.5l26.2-38c1.6-2.3,1.2-5.2-0.9-6.6c-2-1.4-4.9-0.7-6.5,1.6l-27.2,39.5c-17.9-7.1-37.9-11-58.9-11
			s-40.9,3.9-58.9,11l-27.2-39.5c-1.6-2.3-4.5-3-6.5-1.6c-2,1.4-2.4,4.4-0.9,6.6l26.2,38c-41.7,19.4-70.9,56.2-74.6,99.2h283.7
			C387.9,391.7,358.7,354.8,317,335.5"/>
		<g>
			<path fill="#FFFFFF" d="M190.5,395.4c-8.7,0-15.7-7-15.7-15.7c0-8.7,7-15.7,15.7-15.7c8.7,0,15.7,7,15.7,15.7
				C206.2,388.4,199.2,395.4,190.5,395.4"/>
			<path fill="#FFFFFF" d="M309,395.4c-8.7,0-15.7-7-15.7-15.7c0-8.7,7-15.7,15.7-15.7c8.7,0,15.7,7,15.7,15.7
				C324.7,388.4,317.7,395.4,309,395.4"/>
		</g>
	</g>
	<g>
		<path fill="#382800" d="M368.8,316c0,0-63.9,11.3-116.1-21.7l-2.5-1.6c-51.2,44.2-118.7,24-118.7,24
			c-2.2,25.5,10.4,46.7,10.4,46.7c39.8,6.5,99.7-26.1,108.1-31.1c8.4,4.9,68,38.2,107.7,31.7C358.1,364.2,371.3,343,368.8,316z"/>
		<path fill="#382800" d="M195.5,234.5c0,0,42.8,53.8,63,63.2l-34.3,19.2c0,0-50-25.3-56.3-65.9C167.9,251,180.4,240.1,195.5,234.5z
			"/>
		<path fill="#382800" d="M305.2,234.5c0,0-42.8,53.8-63,63.2l34.3,19.2c0,0,50-25.3,56.3-65.9C332.6,251,320.1,240.1,305.2,234.5z"
			/>
	</g>
	<g>
		<g opacity="0.32">
			<path fill="#2D2C2B" d="M369.4,316c0,0-63.9,11.3-116.1-21.7l-2.5-1.6c-51.2,44.2-118.7,24-118.7,24
				c-2.2,25.5,10.4,46.7,10.4,46.7c39.8,6.5,99.7-26.1,108.1-31.1c8.4,4.9,68,38.2,107.7,31.7C358.6,364.2,372,343,369.4,316z"/>
			<path fill="#2D2C2B" d="M196,234.5c0,0,42.8,53.8,63,63.2l-34.3,19.2c0,0-50-25.3-56.3-65.9C168.6,251,181.1,240.1,196,234.5z"/>
			<path fill="#2D2C2B" d="M305.7,234.5c0,0-42.8,53.8-63,63.2l34.3,19.2c0,0,50-25.3,56.3-65.9C333.2,251,320.8,240.1,305.7,234.5z
				"/>
		</g>
		<g opacity="0.29">
			<g>
				<path fill="#F8F5F3" d="M132.2,328.4c0,0,50.4,12.6,85.5-6.1c0,0-30.4,21.4-85.1,9.1C132.6,331.6,132.2,330.4,132.2,328.4z"/>
				<path fill="#F8F5F3" d="M195.4,341.2c0,0,41.7-10.4,49.4-33.9l3,1.9C247.9,309.1,237.3,333.8,195.4,341.2z"/>
				<path fill="#F8F5F3" d="M138.3,354c0,0-0.3-0.4-1.2-3.4c0,0,9.6,4.4,27.2,1.7C164.2,352.4,152.9,356.8,138.3,354z"/>
			</g>
			<g>
				<path fill="#F8F5F3" d="M369.5,328c0,0-50.6,13.1-85.6-5.7c0,0,30.4,21.6,85.3,9.2C369.2,331.6,369.4,330.3,369.5,328z"/>
				<path fill="#F8F5F3" d="M306.3,341.2c0,0-41.7-10.4-49.4-33.9l-3,1.9C253.8,309.1,264.4,333.8,306.3,341.2z"/>
				<path fill="#F8F5F3" d="M363.5,353.9c0,0,0.3-0.4,1.2-3.2c0,0-9.7,4.4-27.3,1.7C337.5,352.4,349,356.6,363.5,353.9z"/>
			</g>
			<path fill="#F8F5F3" d="M185,239.7c0,0,1.7-1.3,5.6-2.9c0,0,12.5,29.6,39.2,52.4C229.8,289.2,195.4,264.8,185,239.7z"/>
			<path fill="#F8F5F3" d="M240.1,311.4c0,0-25.1-1.2-36.4-22.2c0,0,14.9,17.5,34.4,20.1L240.1,311.4z"/>
			<path fill="#F8F5F3" d="M316.9,239.7c0,0-1.7-1.3-5.6-2.9c0,0-12.5,29.6-39.2,52.4C272,289.2,306.3,264.8,316.9,239.7z"/>
			<path fill="#F8F5F3" d="M261.6,311.4c0,0,25.1-1.2,36.4-22.2c0,0-14.9,17.5-34.4,20.1L261.6,311.4z"/>
		</g>
		<g>
			<g>
				<ellipse fill="#FBD33C" cx="250.8" cy="318" rx="14.4" ry="16.8"/>
			</g>
			<g>
				<path fill="#FBD33C" d="M251,338.1v-6.5c0.3,0,0.6,0,0.9,0l0.6,6.5C252,338.1,251.5,338.1,251,338.1z M249.3,338.1
					c-0.5,0-1-0.1-1.6-0.3l1.3-6.4c0.3,0,0.6,0.1,0.9,0.1L249.3,338.1z M254.1,337.8l-1.3-6.4c0.3-0.1,0.6-0.1,0.9-0.3l1.9,6.2
					C255.1,337.5,254.6,337.7,254.1,337.8z M246.2,337.4c-0.5-0.1-1-0.4-1.6-0.5l2.6-6c0.3,0.1,0.6,0.3,0.9,0.4L246.2,337.4z
					 M257.2,336.8l-2.6-6c0.3-0.1,0.6-0.3,0.9-0.4l3.1,5.7C258.3,336.4,257.7,336.5,257.2,336.8z M243.2,336.1
					c-0.5-0.3-0.9-0.5-1.3-0.8l3.6-5.3c0.3,0.1,0.5,0.4,0.8,0.5L243.2,336.1z M260.1,335.2l-3.6-5.3c0.3-0.1,0.5-0.4,0.8-0.6
					l4.2,5.1C260.9,334.5,260.5,334.9,260.1,335.2z M240.6,334.3c-0.4-0.4-0.8-0.6-1.2-1l4.5-4.7c0.3,0.3,0.5,0.5,0.8,0.6
					L240.6,334.3z M262.4,333.2l-4.5-4.7c0.3-0.3,0.5-0.5,0.6-0.8l4.9,4.3C263.2,332.5,262.8,332.9,262.4,333.2z M238.4,332.1
					c-0.4-0.4-0.6-0.8-0.9-1.2l5.2-3.9c0.3,0.3,0.4,0.5,0.6,0.8L238.4,332.1z M264.5,330.9l-5.2-3.9c0.3-0.3,0.4-0.5,0.5-0.9
					l5.5,3.4C265.1,330,264.8,330.5,264.5,330.9z M236.4,329.6c-0.3-0.4-0.5-0.9-0.8-1.3l5.7-3c0.1,0.3,0.4,0.6,0.5,0.9L236.4,329.6
					z M266.2,328.3l-5.7-3c0.1-0.3,0.3-0.6,0.5-0.9l6,2.6C266.6,327.4,266.3,327.8,266.2,328.3z M235,326.9
					c-0.3-0.5-0.4-0.9-0.5-1.4l6.1-2.2c0.1,0.4,0.3,0.6,0.4,1L235,326.9z M267.3,325.4l-6.1-2.2c0.1-0.4,0.3-0.6,0.3-1l6.2,1.7
					C267.6,324.5,267.5,325.1,267.3,325.4z M234.1,324c-0.1-0.5-0.3-0.9-0.4-1.4l6.4-1.3c0.1,0.4,0.1,0.6,0.3,1L234.1,324z
					 M268.1,322.6l-6.4-1.3c0.1-0.4,0.1-0.6,0.1-1l6.5,0.9C268.3,321.6,268.3,322.1,268.1,322.6z M233.4,321.2
					c-0.1-0.5-0.1-1-0.1-1.6l6.5-0.4c0,0.4,0,0.8,0.1,1L233.4,321.2z M268.5,319.6l-6.5-0.4c0-0.4,0-0.6,0-1l6.5-0.1v0.1
					C268.5,318.6,268.5,319.1,268.5,319.6z M233.2,318L233.2,318c0-0.5,0-1,0-1.6l6.5,0.4c0,0.4,0,0.6,0,1L233.2,318z M262,316.9
					c0-0.4,0-0.8-0.1-1l6.5-0.9c0.1,0.5,0.1,1,0.1,1.4L262,316.9z M239.8,316l-6.5-0.9c0.1-0.5,0.1-1,0.3-1.4l6.4,1.3
					C239.9,315.2,239.9,315.6,239.8,316z M261.8,314.8c-0.1-0.4-0.1-0.6-0.3-1l6.2-1.7c0.1,0.5,0.3,0.9,0.4,1.4L261.8,314.8z
					 M240.3,313.9l-6.2-1.7c0.1-0.5,0.3-1,0.4-1.4l6.1,2.2C240.4,313.1,240.3,313.5,240.3,313.9z M261.1,312.7
					c-0.1-0.4-0.3-0.6-0.4-1l6-2.6c0.3,0.5,0.4,0.9,0.5,1.4L261.1,312.7z M241,311.8l-6-2.6c0.3-0.5,0.4-0.9,0.6-1.4l5.7,3
					C241.2,311.2,241.1,311.5,241,311.8z M260.3,310.8c-0.1-0.3-0.4-0.6-0.5-0.9l5.5-3.5c0.3,0.4,0.5,0.9,0.8,1.3L260.3,310.8z
					 M242,310l-5.5-3.4c0.3-0.4,0.5-0.9,0.9-1.3l5.2,3.9C242.3,309.5,242.1,309.7,242,310z M259.2,309.1c-0.3-0.3-0.4-0.5-0.6-0.8
					l4.9-4.3c0.4,0.4,0.6,0.8,1,1.2L259.2,309.1z M243.2,308.3l-4.9-4.3c0.4-0.4,0.6-0.8,1-1.2l4.5,4.7
					C243.6,307.8,243.4,308,243.2,308.3z M257.9,307.5c-0.3-0.3-0.5-0.5-0.8-0.6l4.2-5.1c0.4,0.4,0.8,0.6,1.2,1L257.9,307.5z
					 M244.6,306.9l-4.2-5.1c0.4-0.4,0.8-0.6,1.3-0.9l3.6,5.3C245.1,306.5,244.9,306.7,244.6,306.9z M256.3,306.2
					c-0.3-0.1-0.5-0.4-0.9-0.5l3.1-5.7c0.5,0.3,0.9,0.5,1.3,0.8L256.3,306.2z M246.3,305.8l-3.1-5.7c0.5-0.3,0.9-0.5,1.4-0.6l2.6,6
					C246.8,305.4,246.6,305.6,246.3,305.8z M254.6,305.3c-0.3-0.1-0.6-0.3-0.9-0.4l1.9-6.2c0.5,0.1,1,0.4,1.6,0.5L254.6,305.3z
					 M248,305l-1.9-6.2c0.5-0.1,1-0.3,1.6-0.4l1.3,6.4C248.6,304.8,248.4,304.9,248,305z M252.8,304.8c-0.3,0-0.6-0.1-0.9-0.1
					l0.6-6.5c0.5,0,1,0.1,1.6,0.3L252.8,304.8z M249.9,304.7l-0.6-6.5c0.5,0,1-0.1,1.6-0.1v6.5C250.6,304.5,250.2,304.5,249.9,304.7
					z"/>
			</g>
		</g>
	</g>
</g>
</svg>
