<?xml version="1.0" encoding="utf-8"?>
<!-- Generator: Adobe Illustrator 18.0.0, SVG Export Plug-In . SVG Version: 6.00 Build 0)  -->
<!DOCTYPE svg PUBLIC "-//W3C//DTD SVG 1.1//EN" "http://www.w3.org/Graphics/SVG/1.1/DTD/svg11.dtd">
<svg version="1.1" id="content" xmlns="http://www.w3.org/2000/svg" xmlns:xlink="http://www.w3.org/1999/xlink" x="0px" y="0px"
	 width="500px" height="500px" viewBox="0 0 500 500" enable-background="new 0 0 500 500" xml:space="preserve">
<rect id="position" display="none" fill="none" stroke="#000000" width="500" height="500"/>
<path opacity="0.32" fill="#2D2C2B" enable-background="new    " d="M341.6,68.3c0,0-30.1,5.3-62.4-4.5
	c11.7-7.8,31.3-23.8,34.6-45.5c0,0-9.6-8.4-21.2-12.7c0,0-25.5,32-42.2,44.6c-16.7-12.6-42.2-44.6-42.2-44.6
	c-11.5,4.3-21.1,12.7-21.2,12.7c3.7,23.8,26.9,40.8,37.7,47.5c-33.1,12.8-65.6,3.1-65.6,3.1c-1.7,19.6,8,35.9,8,35.9
	c30.6,5,76.7-20.1,83.2-23.9c6.5,3.8,52.3,29.4,82.9,24.4C333.3,105.4,343.6,89.1,341.6,68.3z"/>
<rect id="bounds" x="86.5" y="-85.6" display="none" fill="none" stroke="#000000" stroke-width="1.2038" stroke-miterlimit="10" width="327" height="327"/>
<g opacity="0.29">
	<path fill="#F8F5F3" d="M159.1,77.9c0,0,38.8,9.7,65.8-4.7c0,0-23.4,16.5-65.5,7C159.4,80.3,159.1,79.4,159.1,77.9z"/>
	<path fill="#F8F5F3" d="M207.7,87.7c0,0,32.1-8,38-26.1l2.3,1.5C248.1,63,240,82,207.7,87.7z"/>
	<path fill="#F8F5F3" d="M163.8,97.6c0,0-0.2-0.3-0.9-2.6c0,0,7.4,3.4,20.9,1.3C183.7,96.3,175,99.7,163.8,97.6z"/>
</g>
<g opacity="0.29">
	<path fill="#F8F5F3" d="M341.7,77.6c0,0-38.9,10.1-65.9-4.4c0,0,23.4,16.6,65.6,7.1C341.5,80.3,341.6,79.3,341.7,77.6z"/>
	<path fill="#F8F5F3" d="M293.1,87.7c0,0-32.1-8-38-26.1l-2.3,1.5C252.7,63,260.8,82,293.1,87.7z"/>
	<path fill="#F8F5F3" d="M337.1,97.5c0,0,0.2-0.3,0.9-2.5c0,0-7.5,3.4-21,1.3C317.1,96.3,325.9,99.6,337.1,97.5z"/>
</g>
<g opacity="0.29">
	<path fill="#F8F5F3" d="M234.2,47.7c0,0-32-23.8-34.5-38.1l4.3-2.2C204,7.4,209.4,24.6,234.2,47.7z"/>
	<path fill="#F8F5F3" d="M214.1,47.7c0,0,9,18,33.5,17.1l0.2-1.2C247.8,63.6,232.7,67.2,214.1,47.7z"/>
</g>
<g opacity="0.29">
	<path fill="#F8F5F3" d="M267.5,48.1c0,0,32-23.7,34.5-38c0,0-3.5-2-4.3-2.3C297.4,7.7,292.3,25,267.5,48.1z"/>
	<path fill="#F8F5F3" d="M287.6,48.1c0,0-9,18-33.5,17.1l-0.2-1.2C253.9,64,269,67.5,287.6,48.1z"/>
</g>
<g>
	<g>
		<ellipse fill="#FBD33C" cx="250.4" cy="69.9" rx="11.1" ry="12.9"/>
	</g>
	<g>
		<path fill="#FBD33C" d="M250.5,85.3v-5c0.2,0,0.5,0,0.7,0l0.5,5C251.3,85.3,250.9,85.3,250.5,85.3z M249.2,85.3
			c-0.4,0-0.8-0.1-1.2-0.2l1-4.9c0.2,0,0.5,0.1,0.7,0.1L249.2,85.3z M252.9,85.1l-1-4.9c0.2-0.1,0.5-0.1,0.7-0.2l1.5,4.8
			C253.7,84.9,253.3,85,252.9,85.1z M246.8,84.8c-0.4-0.1-0.8-0.3-1.2-0.4l2-4.6c0.2,0.1,0.5,0.2,0.7,0.3L246.8,84.8z M255.3,84.3
			l-2-4.6c0.2-0.1,0.5-0.2,0.7-0.3l2.4,4.4C256.1,84,255.7,84.1,255.3,84.3z M244.5,83.8c-0.4-0.2-0.7-0.4-1-0.6l2.8-4.1
			c0.2,0.1,0.4,0.3,0.6,0.4L244.5,83.8z M257.5,83.1l-2.8-4.1c0.2-0.1,0.4-0.3,0.6-0.5l3.2,3.9C258.1,82.6,257.8,82.9,257.5,83.1z
			 M242.5,82.4c-0.3-0.3-0.6-0.5-0.9-0.8l3.5-3.6c0.2,0.2,0.4,0.4,0.6,0.5L242.5,82.4z M259.3,81.6l-3.5-3.6
			c0.2-0.2,0.4-0.4,0.5-0.6l3.8,3.3C259.9,81,259.6,81.3,259.3,81.6z M240.8,80.7c-0.3-0.3-0.5-0.6-0.7-0.9l4-3
			c0.2,0.2,0.3,0.4,0.5,0.6L240.8,80.7z M260.9,79.8l-4-3c0.2-0.2,0.3-0.4,0.4-0.7l4.2,2.6C261.4,79.1,261.1,79.5,260.9,79.8z
			 M239.3,78.8c-0.2-0.3-0.4-0.7-0.6-1l4.4-2.3c0.1,0.2,0.3,0.5,0.4,0.7L239.3,78.8z M262.2,77.8l-4.4-2.3c0.1-0.2,0.2-0.5,0.4-0.7
			l4.6,2C262.5,77.1,262.3,77.4,262.2,77.8z M238.2,76.7c-0.2-0.4-0.3-0.7-0.4-1.1l4.7-1.7c0.1,0.3,0.2,0.5,0.3,0.8L238.2,76.7z
			 M263.1,75.6l-4.7-1.7c0.1-0.3,0.2-0.5,0.2-0.8l4.8,1.3C263.3,74.9,263.2,75.3,263.1,75.6z M237.5,74.5c-0.1-0.4-0.2-0.7-0.3-1.1
			l4.9-1c0.1,0.3,0.1,0.5,0.2,0.8L237.5,74.5z M263.7,73.4l-4.9-1c0.1-0.3,0.1-0.5,0.1-0.8l5,0.7C263.8,72.6,263.8,73,263.7,73.4z
			 M237,72.3c-0.1-0.4-0.1-0.8-0.1-1.2l5-0.3c0,0.3,0,0.6,0.1,0.8L237,72.3z M264,71.1l-5-0.3c0-0.3,0-0.5,0-0.8l5-0.1V70
			C264,70.3,264,70.7,264,71.1z M236.8,69.9L236.8,69.9c0-0.4,0-0.8,0-1.2l5,0.3c0,0.3,0,0.5,0,0.8L236.8,69.9z M259,69
			c0-0.3,0-0.6-0.1-0.8l5-0.7c0.1,0.4,0.1,0.8,0.1,1.1L259,69z M241.9,68.3l-5-0.7c0.1-0.4,0.1-0.8,0.2-1.1l4.9,1
			C242,67.7,242,68,241.9,68.3z M258.8,67.4c-0.1-0.3-0.1-0.5-0.2-0.8l4.8-1.3c0.1,0.4,0.2,0.7,0.3,1.1L258.8,67.4z M242.3,66.7
			l-4.8-1.3c0.1-0.4,0.2-0.8,0.3-1.1l4.7,1.7C242.4,66.1,242.3,66.4,242.3,66.7z M258.3,65.8c-0.1-0.3-0.2-0.5-0.3-0.8l4.6-2
			c0.2,0.4,0.3,0.7,0.4,1.1L258.3,65.8z M242.8,65.1l-4.6-2c0.2-0.4,0.3-0.7,0.5-1.1l4.4,2.3C243,64.6,242.9,64.9,242.8,65.1z
			 M257.7,64.3c-0.1-0.2-0.3-0.5-0.4-0.7l4.2-2.7c0.2,0.3,0.4,0.7,0.6,1L257.7,64.3z M243.6,63.7l-4.2-2.6c0.2-0.3,0.4-0.7,0.7-1
			l4,3C243.8,63.3,243.7,63.5,243.6,63.7z M256.8,63c-0.2-0.2-0.3-0.4-0.5-0.6l3.8-3.3c0.3,0.3,0.5,0.6,0.8,0.9L256.8,63z
			 M244.5,62.4l-3.8-3.3c0.3-0.3,0.5-0.6,0.8-0.9l3.5,3.6C244.8,62,244.7,62.2,244.5,62.4z M255.8,61.8c-0.2-0.2-0.4-0.4-0.6-0.5
			l3.2-3.9c0.3,0.3,0.6,0.5,0.9,0.8L255.8,61.8z M245.6,61.3l-3.2-3.9c0.3-0.3,0.6-0.5,1-0.7l2.8,4.1C246,61,245.8,61.2,245.6,61.3z
			 M254.6,60.8c-0.2-0.1-0.4-0.3-0.7-0.4l2.4-4.4c0.4,0.2,0.7,0.4,1,0.6L254.6,60.8z M246.9,60.5l-2.4-4.4c0.4-0.2,0.7-0.4,1.1-0.5
			l2,4.6C247.3,60.2,247.1,60.3,246.9,60.5z M253.3,60.1c-0.2-0.1-0.5-0.2-0.7-0.3l1.5-4.8c0.4,0.1,0.8,0.3,1.2,0.4L253.3,60.1z
			 M248.2,59.9l-1.5-4.8c0.4-0.1,0.8-0.2,1.2-0.3l1,4.9C248.7,59.7,248.5,59.8,248.2,59.9z M251.9,59.7c-0.2,0-0.5-0.1-0.7-0.1
			l0.5-5c0.4,0,0.8,0.1,1.2,0.2L251.9,59.7z M249.7,59.6l-0.5-5c0.4,0,0.8-0.1,1.2-0.1v5C250.2,59.5,249.9,59.5,249.7,59.6z"/>
	</g>
</g>
</svg>
