<?xml version="1.0" encoding="utf-8"?>
<!-- Generator: Adobe Illustrator 16.0.0, SVG Export Plug-In . SVG Version: 6.00 Build 0)  -->
<!DOCTYPE svg PUBLIC "-//W3C//DTD SVG 1.1//EN" "http://www.w3.org/Graphics/SVG/1.1/DTD/svg11.dtd">
<svg version="1.1" id="content" xmlns="http://www.w3.org/2000/svg" xmlns:xlink="http://www.w3.org/1999/xlink" x="0px" y="0px"
	 width="500px" height="500px" viewBox="0 0 500 500" enable-background="new 0 0 500 500" xml:space="preserve">
<rect id="position" display="none" fill="none" stroke="#000000" width="500" height="500"/>
<g id="bounds" display="none">
	
		<rect x="121.7" y="-28.4" display="inline" fill="none" stroke="#000000" stroke-width="0.9871" stroke-miterlimit="10" width="254.7" height="254.7"/>
</g>
<path fill="#D5D5D5" d="M345.841,105.482c3.654,2.4,7.454,4.999,11.359,7.8c-2.017-2.843-4.406-5.565-6.963-8.116
	C348.711,105.32,347.239,105.418,345.841,105.482z"/>
<path fill="#D5D5D5" d="M362.572,102.707c1.422,0.82,2.87,1.674,4.351,2.572c-0.721-1.067-1.591-2.133-2.563-3.194
	C363.77,102.305,363.173,102.512,362.572,102.707z"/>
<path fill="#D5D5D5" d="M319.667,83c0,0,17.032,8.081,34.713,10.695c-15.082-10.474-36.073-18.75-36.073-18.75
	s28.427,2.232,51.471,19.275c0.572-0.062,1.142-0.135,1.704-0.22c-14.264-19.519-37.367-32.78-37.367-32.78
	c-42.613-24.913-90.8-10.352-102.929-3.304c17.865-3.605,36.058-1.777,36.058-1.777s-11.702-0.366-31.992,9.444
	c20.979-5.736,39.368-3.543,39.368-3.543s-16.424,2.163-29.535,9.21c25.732-4.589,50.547-0.031,50.547-0.031
	s-14.293-1.147-39.533,5.081c18.385-0.426,35.291,3.094,49.894,7.539c2.552,0.777,10.312,4.178,21.141,10.249L319.667,83z"/>
</svg>
