<?xml version="1.0" encoding="utf-8"?>
<!-- Generator: Adobe Illustrator 18.0.0, SVG Export Plug-In . SVG Version: 6.00 Build 0)  -->
<!DOCTYPE svg PUBLIC "-//W3C//DTD SVG 1.1//EN" "http://www.w3.org/Graphics/SVG/1.1/DTD/svg11.dtd">
<svg version="1.1" id="content" xmlns="http://www.w3.org/2000/svg" xmlns:xlink="http://www.w3.org/1999/xlink" x="0px" y="0px"
	 width="500px" height="500px" viewBox="0 0 500 500" enable-background="new 0 0 500 500" xml:space="preserve">
<rect id="position" display="none" fill="none" stroke="#000000" width="500" height="500"/>
<g>
	<path fill="none" d="M261,50.1L261,50.1L261,50.1z"/>
	<path fill="#CECECE" d="M261,50.1L261,50.1l-27.8,22.6c0-0.2,0-0.5,0-0.8c-0.1,1-0.1,2,0,3c0-0.7,0-1.4,0-2.1L261,50.1z"/>
	<path fill="#CECECE" d="M252.9-28.7c0-0.1,0-0.3-0.1-0.4l-10.2,8.2v0.1l10.2-8.3C252.8-28.9,252.9-28.8,252.9-28.7z"/>
	<polygon fill="#CECECE" points="254.3,-15.6 253,-28.3 254,-18.3 	"/>
	<polygon fill="#CECECE" points="258.8,29.2 257.5,16.3 258.5,25.9 	"/>
	<polygon fill="#CECECE" points="262.8,68 262.8,68 261.3,53.7 261.8,58.4 	"/>
	<polygon fill="none" points="261,50.1 261,50.1 259.4,34.3 259.3,34.4 	"/>
	<path fill="none" d="M235,54.1l-1.8,17.8L235,54.1z"/>
	<path fill="#CECECE" d="M261,50.1l-1.6-15.8L235,54.1l-1.8,17.8c0,0.3,0,0.6,0,0.8L261,50.1z"/>
	<polygon fill="none" points="256.2,3.6 256.3,3.5 254.9,-10 254.8,-9.9 	"/>
	<polygon fill="none" points="240.3,1.9 240.3,1.9 238.7,17.8 238.7,17.8 	"/>
	<polygon fill="#CECECE" points="254.8,-9.9 240.3,1.9 238.7,17.8 256.2,3.6 	"/>
	<path fill="none" d="M252.9-28.7c0,0.2,0.1,0.3,0.1,0.5C253-28.4,252.9-28.6,252.9-28.7z"/>
	<polygon fill="none" points="242.6,-20.8 242.6,-20.8 241.3,-8 241.3,-8 	"/>
	<path fill="#CECECE" d="M254-18.3l-1-10c0-0.2-0.1-0.3-0.1-0.5c0-0.1-0.1-0.2-0.1-0.3l-10.2,8.3L241.3-8L254-18.3z"/>
	<polygon fill="none" points="237.7,27.6 237.7,27.6 236,44.2 236,44.2 	"/>
	<polygon fill="none" points="257.5,16.3 257.1,11.9 257.1,11.9 	"/>
	<polygon fill="#CECECE" points="237.7,27.6 236,44.2 258.5,25.9 257.5,16.3 257.1,11.9 	"/>
	<path fill="#CECECE" d="M262.8,68l-1-9.5l-13.1,10.6C252.8,68.3,257.4,67.9,262.8,68z"/>
	<polygon fill="#A5A5A5" points="241.3,-8 241.3,-8 240.3,1.9 240.3,1.9 	"/>
	<polygon fill="#A5A5A5" points="254.9,-10 254.3,-15.6 254.8,-9.9 	"/>
	<polygon fill="#A5A5A5" points="241.3,-8 240.3,1.9 254.8,-9.9 254.3,-15.6 254,-18.3 	"/>
	<polygon fill="#A5A5A5" points="257.1,11.9 257.1,11.9 256.3,3.5 256.2,3.6 	"/>
	<polygon fill="#A5A5A5" points="238.7,17.8 238.7,17.8 237.7,27.6 237.7,27.6 	"/>
	<polygon fill="#A5A5A5" points="256.2,3.6 238.7,17.8 237.7,27.6 257.1,11.9 	"/>
	<polygon fill="#A5A5A5" points="261.3,53.7 261,50.1 261,50.1 	"/>
	<path fill="#A5A5A5" d="M233.2,74.9C233.2,75,233.2,75,233.2,74.9C233.2,75,233.2,75,233.2,74.9C233.2,75,233.2,75,233.2,74.9z"/>
	<path fill="#A5A5A5" d="M248.7,69.1l13.1-10.6l-0.5-4.8l-0.4-3.5l-27.8,22.7c0,0.7,0,1.4,0,2.1c0,0,0,0,0,0.1
		C237,72.6,242,70.4,248.7,69.1z"/>
	<polygon fill="#A5A5A5" points="259.4,34.3 258.8,29.2 259.3,34.4 	"/>
	<polygon fill="#A5A5A5" points="236,44.2 236,44.2 235,54.1 235,54.1 	"/>
	<polygon fill="#A5A5A5" points="236,44.2 235,54.1 259.3,34.4 258.8,29.2 258.5,25.9 	"/>
	<path fill="#A5A5A5" d="M248.7-32.6c2,0.2,3.6,1.6,4.1,3.5l0.1-0.1C252.4-31.1,250.8-32.5,248.7-32.6c-2.7-0.4-5,1.6-5.3,4.2
		l-0.8,7.5h0.1l0.7-7.4C243.7-31,246-32.9,248.7-32.6z"/>
	<path fill="#A5A5A5" d="M248.7-32.6c-2.7-0.3-5,1.6-5.3,4.3l-0.7,7.4l10.2-8.2C252.3-30.9,250.7-32.4,248.7-32.6z"/>
</g>
<g id="bounds">
<rect x="109" y="-78.4" display="none" fill="none" stroke="#000000" stroke-width="1.0056" stroke-miterlimit="10" width="282" height="282"/>
</g>
</svg>
