<?xml version="1.0" encoding="utf-8"?>
<!-- Generator: Adobe Illustrator 18.0.0, SVG Export Plug-In . SVG Version: 6.00 Build 0)  -->
<!DOCTYPE svg PUBLIC "-//W3C//DTD SVG 1.1//EN" "http://www.w3.org/Graphics/SVG/1.1/DTD/svg11.dtd">
<svg version="1.1" id="content" xmlns="http://www.w3.org/2000/svg" xmlns:xlink="http://www.w3.org/1999/xlink" x="0px" y="0px"
	 width="500px" height="500px" viewBox="0 0 500 500" enable-background="new 0 0 500 500" xml:space="preserve">
<rect id="position" display="none" fill="none" stroke="#000000" width="500" height="500"/>
<g id="bounds" display="none">
	<rect x="0.2" y="80.2" display="inline" fill="none" stroke="#EAEAEA" stroke-miterlimit="10" width="499.5" height="499.5"/>
</g>
<g>
	<g>
		<path fill="#C9C8CE" d="M315.5,355.1l25.6-37.2c1.5-2.2,1.1-5.1-0.8-6.5c-2-1.4-4.8-0.7-6.3,1.5l-26.6,38.6
			c-17.5-6.9-37-10.8-57.5-10.8s-40,3.8-57.6,10.8L165.6,313c-1.5-2.2-4.4-2.9-6.4-1.5c-2,1.4-2.4,4.3-0.8,6.5l25.6,37.2
			c-40.7,18.9-69.3,55-72.9,97h277.4C384.8,410.1,356.2,374.1,315.5,355.1"/>
		<g>
			<path fill="#FFFFFF" d="M191.8,413.8c-8.5,0-15.3-6.9-15.3-15.3c0-8.5,6.9-15.3,15.3-15.3c8.5,0,15.3,6.9,15.3,15.3
				C207.2,406.9,200.3,413.8,191.8,413.8"/>
			<path fill="#FFFFFF" d="M307.7,413.8c-8.5,0-15.3-6.9-15.3-15.3c0-8.5,6.9-15.3,15.3-15.3c8.5,0,15.3,6.9,15.3,15.3
				C323,406.9,316.2,413.8,307.7,413.8"/>
		</g>
	</g>
	<g id="Layer_3_2_">
		<path fill="#382800" d="M307.4,351.6c-22.4,2.7-19.8,22.9-48.8,21.3c7.2-5,5.6-8.9,5.6-8.9s-9.4,14.9-47.1,14.9
			c6.5-2.4,10.2-7.5,8.9-7.9c0,0-16.9,12.1-35.8,6.6c10.2-2.3,10.2-5.8,10.2-5.8c0.5,1.5-21.6,5.6-32.3,0
			c14.4-3,18.2-17.5,24.3-20.3c7.6-4.4,20.6-19.2,53.5-19.2C285,332.5,300.4,347.6,307.4,351.6z"/>
	</g>
	<g>
		<path fill="none" d="M264.3,313L264.3,313L264.3,313z"/>
		<path fill="#CECECE" d="M264.3,313L264.3,313L229,341.7c0-0.3,0-0.6,0-1c-0.1,1.3-0.1,2.5,0,3.8c0-0.9,0-1.8,0-2.7L264.3,313z"/>
		<path fill="#CECECE" d="M254,212.9c0-0.1,0-0.4-0.1-0.5l-13,10.4v0.1l13-10.5C253.9,212.6,254,212.7,254,212.9z"/>
		<polygon fill="#CECECE" points="255.8,229.5 254.1,213.4 255.4,226.1 		"/>
		<polygon fill="#CECECE" points="261.5,286.4 259.8,270 261.1,282.2 		"/>
		<polygon fill="#CECECE" points="266.6,335.7 266.6,335.7 264.7,317.5 265.3,323.5 		"/>
		<polygon fill="none" points="264.3,313 264.3,313 262.3,292.9 262.1,293 		"/>
		<path fill="none" d="M231.3,318l-2.3,22.6L231.3,318z"/>
		<path fill="#CECECE" d="M264.3,313l-2-20.1l-31,25.2l-2.3,22.6c0,0.4,0,0.8,0,1L264.3,313z"/>
		<polygon fill="none" points="258.2,253.9 258.3,253.8 256.5,236.6 256.4,236.7 		"/>
		<polygon fill="none" points="238,251.7 238,251.7 236,271.9 236,271.9 		"/>
		<polygon fill="#CECECE" points="256.4,236.7 238,251.7 236,271.9 258.2,253.9 		"/>
		<path fill="none" d="M254,212.9c0,0.3,0.1,0.4,0.1,0.6C254.1,213.2,254,213,254,212.9z"/>
		<polygon fill="none" points="240.9,222.9 240.9,222.9 239.3,239.2 239.3,239.2 		"/>
		<path fill="#CECECE" d="M255.4,226.1l-1.3-12.7c0-0.3-0.1-0.4-0.1-0.6c0-0.1-0.1-0.3-0.1-0.4l-13,10.5l-1.7,16.3L255.4,226.1z"/>
		<polygon fill="none" points="234.7,284.4 234.7,284.4 232.5,305.5 232.5,305.5 		"/>
		<polygon fill="none" points="259.8,270 259.3,264.4 259.3,264.4 		"/>
		<polygon fill="#CECECE" points="234.7,284.4 232.5,305.5 261.1,282.2 259.8,270 259.3,264.4 		"/>
		<path fill="#CECECE" d="M266.6,335.7l-1.3-12.1l-16.6,13.5C253.9,336.1,259.7,335.6,266.6,335.7z"/>
		<polygon fill="#A5A5A5" points="239.3,239.2 239.3,239.2 238,251.7 238,251.7 		"/>
		<polygon fill="#A5A5A5" points="256.5,236.6 255.8,229.5 256.4,236.7 		"/>
		<polygon fill="#A5A5A5" points="239.3,239.2 238,251.7 256.4,236.7 255.8,229.5 255.4,226.1 		"/>
		<polygon fill="#A5A5A5" points="259.3,264.4 259.3,264.4 258.3,253.8 258.2,253.9 		"/>
		<polygon fill="#A5A5A5" points="236,271.9 236,271.9 234.7,284.4 234.7,284.4 		"/>
		<polygon fill="#A5A5A5" points="258.2,253.9 236,271.9 234.7,284.4 259.3,264.4 		"/>
		<polygon fill="#A5A5A5" points="264.7,317.5 264.3,313 264.3,313 		"/>
		<path fill="#A5A5A5" d="M229,344.5C229,344.6,229,344.6,229,344.5C229,344.6,229,344.6,229,344.5C229,344.6,229,344.6,229,344.5z"
			/>
		<path fill="#A5A5A5" d="M248.7,337.1l16.6-13.5l-0.6-6.1l-0.5-4.4l-35.3,28.8c0,0.9,0,1.8,0,2.7c0,0,0,0,0,0.1
			C233.8,341.5,240.2,338.8,248.7,337.1z"/>
		<polygon fill="#A5A5A5" points="262.3,292.9 261.5,286.4 262.1,293 		"/>
		<polygon fill="#A5A5A5" points="232.5,305.5 232.5,305.5 231.3,318 231.3,318 		"/>
		<polygon fill="#A5A5A5" points="232.5,305.5 231.3,318 262.1,293 261.5,286.4 261.1,282.2 		"/>
		<path fill="#A5A5A5" d="M248.7,207.9c2.5,0.3,4.6,2,5.2,4.4l0.1-0.1C253.4,209.8,251.3,208,248.7,207.9c-3.4-0.5-6.4,2-6.7,5.3
			l-1,9.5h0.1l0.9-9.4C242.3,209.9,245.2,207.5,248.7,207.9z"/>
		<path fill="#A5A5A5" d="M248.7,207.9c-3.4-0.4-6.4,2-6.7,5.5l-0.9,9.4l13-10.4C253.2,210.1,251.2,208.2,248.7,207.9z"/>
	</g>
</g>
</svg>
