<?xml version="1.0" encoding="utf-8"?>
<!-- Generator: Adobe Illustrator 18.0.0, SVG Export Plug-In . SVG Version: 6.00 Build 0)  -->
<!DOCTYPE svg PUBLIC "-//W3C//DTD SVG 1.1//EN" "http://www.w3.org/Graphics/SVG/1.1/DTD/svg11.dtd">
<svg version="1.1" id="content" xmlns="http://www.w3.org/2000/svg" xmlns:xlink="http://www.w3.org/1999/xlink" x="0px" y="0px"
	 width="500px" height="500px" viewBox="0 0 500 500" enable-background="new 0 0 500 500" xml:space="preserve">
<rect id="position" display="none" fill="none" stroke="#000000" width="500" height="500"/>
<g id="Layer_3_2_">
	<path fill="#382800" d="M294.9,80.5c-17.6,2.1-15.6,18-38.4,16.8c5.7-3.9,4.4-7,4.4-7s-7.4,11.7-37.1,11.7c5.1-1.9,8-5.9,7-6.2
		c0,0-13.3,9.5-28.2,5.2c8-1.8,8-4.6,8-4.6c0.4,1.2-17,4.4-25.4,0c11.3-2.4,14.3-13.8,19.1-16c6-3.5,16.2-15.1,42.1-15.1
		C277.3,65.5,289.4,77.4,294.9,80.5z"/>
</g>
<g id="bounds">
<rect x="109" y="-78.4" display="none" fill="none" stroke="#000000" stroke-width="1.0056" stroke-miterlimit="10" width="282" height="282"/>
</g>
</svg>
