<?xml version="1.0" encoding="utf-8"?>
<!-- Generator: Adobe Illustrator 14.0.0, SVG Export Plug-In . SVG Version: 6.00 Build 43363)  -->
<!DOCTYPE svg PUBLIC "-//W3C//DTD SVG 1.1//EN" "http://www.w3.org/Graphics/SVG/1.1/DTD/svg11.dtd">
<svg version="1.1" id="content" xmlns="http://www.w3.org/2000/svg" xmlns:xlink="http://www.w3.org/1999/xlink" x="0px" y="0px"
	 width="500px" height="500px" viewBox="0 0 500 500" enable-background="new 0 0 500 500" xml:space="preserve">
<rect id="position" x="-0.008" y="0.008" display="none" fill="none" stroke="#000000" width="500" height="500"/>
<g id="bounds" display="none">
	
		<rect x="59.926" y="-109.382" display="inline" fill="none" stroke="#000000" stroke-width="1.1815" width="379.266" height="400.112"/>
</g>
<path opacity="0.2" fill="#1F1C0E" enable-background="new    " d="M277.229,121.483c0-9.819,7.983-17.81,17.803-17.81
	c9.82,0,17.808,7.99,17.808,17.81h2.813V95.224h-38.737v26.952L277.229,121.483z"/>
<path opacity="0.2" fill="#1F1C0E" enable-background="new    " d="M222.086,122.176V95.224h-38.736v26.259h2.812
	c0-9.819,7.987-17.81,17.809-17.81c9.817,0,17.803,7.99,17.803,17.81L222.086,122.176z"/>
<path opacity="0.2" fill="#1F1C0E" enable-background="new    " d="M341.269,118.202c0,0-5.949-2.816-43.94,21.902
	c-29.506,0-30.254-18.31-48.019-18.31c-19.012,0-16.977,17.31-43.683,17.31s-44.78-20.488-44.78-20.488l-4.11,4.151
	c10.265,11.325,32.394,35.344,63.416,25.47c7.194-2.29,13.077-7.348,16.771-10.597c4.621,7.229,12.574,12.027,12.574,12.027
	s7.831-5.547,12.439-12.855c3.646,3.195,9.864,9.184,16.907,11.425c31.021,9.874,53.15-14.146,63.416-25.47L341.269,118.202z"/>
<path fill="#B4AB68" d="M321.94,111.519c0,0,20.262-60.18,98.596-51.235c-53.643,8.406-74.437,53.547-74.437,53.547L321.94,111.519z
	"/>
<path fill="#B4AB68" d="M316.171,102.663c0,0-10.487-62.626,62.815-91.654c-43.353,32.694-40.418,82.307-40.418,82.307
	L316.171,102.663z"/>
<path fill="#948D55" d="M327.17,64.371c0,0,7.685-25.252,33.931-41.428C339.491,47.957,334.155,74.8,334.155,74.8L327.17,64.371z"/>
<path fill="#B4AB68" d="M293.854,84.617c0,0-30.128-55.896,29.896-107.018c-30.487,44.929-11.71,90.945-11.71,90.945L293.854,84.617
	z"/>
<path fill="#948D55" d="M357.812,90.423c0,0,17.915-22.707,42.408-27.002c-39.381,4-51.045,19.634-51.045,19.634L357.812,90.423z"/>
<path fill="#B4AB68" d="M152.9,113.83c0,0-20.794-45.141-74.438-53.547c78.334-8.944,98.597,51.235,98.597,51.235L152.9,113.83z"/>
<path fill="#948D55" d="M149.823,83.055c0,0-11.664-15.634-51.044-19.634c24.493,4.295,42.408,27.002,42.408,27.002L149.823,83.055z
	"/>
<path fill="#B4AB68" d="M184.958,102.663c0,0,10.489-62.626-62.813-91.654c43.351,32.694,40.418,82.307,40.418,82.307
	L184.958,102.663z"/>
<path fill="#948D55" d="M173.959,64.371c0,0-7.683-25.252-33.929-41.428C161.639,47.957,166.975,74.8,166.975,74.8L173.959,64.371z"
	/>
<path fill="#B4AB68" d="M207.274,84.617c0,0,30.128-55.896-29.896-107.018c30.489,44.929,11.71,90.945,11.71,90.945L207.274,84.617z
	"/>
<path fill="#948D55" d="M208.848,43.011c0,0,0.418-26.392-19.615-49.825c12.914,30.427,9.772,57.616,9.772,57.616L208.848,43.011z"
	/>
<path fill="#948D55" d="M292.28,43.011c0,0-0.418-26.392,19.615-49.825c-12.914,30.427-9.774,57.616-9.774,57.616L292.28,43.011z"/>
<path fill="#663944" d="M331.934,106.324c0,0,29.984-26.264,32.257-51.13c-24.976,2.026-51.842,31.788-51.842,31.788
	L331.934,106.324z"/>
<path fill="#7D4553" d="M334.822,79.855c0,0,6.835-0.235,13.699-3.469c-7.051-0.033-10.532-1.586-10.532-1.586
	s9.687-1.068,15.572-4.357c-9.146,0.426-9.659-0.662-9.659-0.662s7.536-0.982,11.835-3.896c-4.154,0.02-6.762-1.136-6.762-1.136
	s9.286-2.656,13.001-5.73c-3.913,12.833-11.407,22.455-11.407,22.455S340.722,82.24,334.822,79.855z"/>
<path fill="#663944" d="M310.089,81.504c0,0,20.34-35.197,14.892-59.499c-23,10.543-39.32,47.974-39.32,47.974L310.089,81.504z"/>
<path fill="#7D4553" d="M304.734,55.473c0,0,6.393-2.587,11.896-8.014c-6.68,2.403-10.445,2.138-10.445,2.138
	s8.835-4.354,13.396-9.5c-8.52,3.56-9.336,2.71-9.336,2.71s6.825-3.534,10.001-7.771c-3.922,1.452-6.741,1.262-6.741,1.262
	s7.975-5.721,10.548-9.911c0.218,13.487-3.934,25.177-3.934,25.177S311.044,55.69,304.734,55.473z"/>
<path fill="#663944" d="M279.841,65.152c0,0,8.267-40.364-4.426-61.39c-18.434,18.032-22.214,59.094-22.214,59.094L279.841,65.152z"
	/>
<path fill="#7D4553" d="M266.703,42.463c0,0,5.23-4.688,8.74-11.743c-5.56,4.615-9.196,5.688-9.196,5.688s6.987-7.218,9.696-13.675
	c-6.938,6.354-7.972,5.837-7.972,5.837s5.345-5.73,7.024-10.85c-3.252,2.75-5.973,3.559-5.973,3.559s5.749-8.198,6.878-13.06
	c4.394,12.655,4.104,25.146,4.104,25.146S272.724,40.451,266.703,42.463z"/>
<path fill="#663944" d="M169.194,106.324c0,0-29.986-26.264-32.257-51.13c24.974,2.026,51.842,31.788,51.842,31.788L169.194,106.324
	z"/>
<path fill="#7D4553" d="M166.306,79.855c0,0-6.835-0.235-13.699-3.469c7.051-0.033,10.532-1.586,10.532-1.586
	s-9.688-1.068-15.572-4.357c9.145,0.426,9.659-0.662,9.659-0.662s-7.536-0.982-11.835-3.896c4.152,0.02,6.762-1.136,6.762-1.136
	s-9.286-2.656-13.001-5.73c3.913,12.833,11.407,22.455,11.407,22.455S160.406,82.24,166.306,79.855z"/>
<path fill="#663944" d="M191.04,81.504c0,0-20.338-35.197-14.89-59.499c23,10.543,39.32,47.974,39.32,47.974L191.04,81.504z"/>
<path fill="#7D4553" d="M196.394,55.473c0,0-6.395-2.587-11.898-8.014c6.68,2.403,10.447,2.138,10.447,2.138
	s-8.835-4.354-13.396-9.5c8.521,3.56,9.336,2.71,9.336,2.71s-6.823-3.534-10.001-7.771c3.924,1.452,6.741,1.262,6.741,1.262
	s-7.973-5.721-10.546-9.911c-0.218,13.487,3.932,25.177,3.932,25.177S190.085,55.69,196.394,55.473z"/>
<path fill="#663944" d="M221.288,65.152c0,0-8.265-40.364,4.426-61.39c18.436,18.032,22.216,59.094,22.216,59.094L221.288,65.152z"
	/>
<path fill="#7D4553" d="M234.426,42.463c0,0-5.229-4.688-8.738-11.743c5.558,4.615,9.194,5.688,9.194,5.688
	s-6.985-7.218-9.694-13.675c6.937,6.354,7.972,5.837,7.972,5.837s-5.345-5.73-7.026-10.85c3.252,2.75,5.975,3.559,5.975,3.559
	s-5.749-8.198-6.878-13.06c-4.396,12.655-4.106,25.146-4.106,25.146S228.404,40.451,234.426,42.463z"/>
<path fill="#AB2B4C" d="M250.981,15.948c-22.927,14.939-15.406,54.036-15.406,54.036l15.406,1.955l15.406-1.955
	C266.387,69.984,273.908,30.888,250.981,15.948z"/>
<path fill="#C23156" d="M238.772,65.767c-1.034-8.702-2.438-33.098,12.209-44.502c14.645,11.403,13.244,35.794,12.209,44.503
	l-12.209,1.549L238.772,65.767z"/>
<ellipse fill="#DBC868" cx="256.702" cy="50.099" rx="2.006" ry="2.134"/>
<ellipse fill="#DBC868" cx="247.127" cy="44.623" rx="2.006" ry="2.133"/>
<ellipse fill="#DBC868" cx="249.598" cy="50.526" rx="1.384" ry="1.472"/>
<ellipse fill="#DBC868" cx="253.795" cy="43.604" rx="1.386" ry="1.472"/>
<ellipse fill="#DBC868" cx="247.993" cy="36.418" rx="1.384" ry="1.472"/>
<ellipse fill="#DBC868" cx="253.811" cy="37.197" rx="2.006" ry="2.133"/>
<path fill="#AB2B4C" d="M297.092,24.653c-26.325,5.812-31.688,45.308-31.688,45.308l13.876,7.383l15.12,3.704
	C294.4,81.045,313.914,46.96,297.092,24.653z"/>
<path fill="#C23156" d="M269.755,67.14c1.795-8.561,8.234-32.021,25.646-37.485c10.154,15.999,1.077,38.448-2.667,46.271
	l-11.982-2.937L269.755,67.14z"/>
<path fill="#DBC868" d="M293.281,59.645c0.376-1.107-0.166-2.332-1.208-2.729c-1.043-0.399-2.191,0.177-2.567,1.286
	c-0.374,1.107,0.167,2.329,1.21,2.729C291.758,61.329,292.907,60.754,293.281,59.645z"/>
<path fill="#DBC868" d="M286.013,51.047c0.375-1.109-0.167-2.332-1.209-2.729c-1.043-0.397-2.191,0.179-2.566,1.286
	c-0.375,1.108,0.166,2.331,1.209,2.729C284.489,52.731,285.638,52.155,286.013,51.047z"/>
<path fill="#DBC868" d="M285.875,57.266c0.259-0.765-0.113-1.606-0.833-1.883c-0.72-0.275-1.513,0.122-1.771,0.887
	c-0.259,0.767,0.115,1.608,0.835,1.884C284.823,58.427,285.616,58.031,285.875,57.266z"/>
<path fill="#DBC868" d="M292.026,52.262c0.259-0.765-0.115-1.608-0.834-1.882c-0.719-0.275-1.512,0.122-1.771,0.887
	c-0.258,0.765,0.115,1.608,0.834,1.883C290.974,53.424,291.767,53.027,292.026,52.262z"/>
<path fill="#DBC868" d="M288.852,43.413c0.259-0.768-0.114-1.608-0.834-1.885c-0.721-0.273-1.513,0.122-1.771,0.889
	c-0.259,0.765,0.114,1.606,0.833,1.883C287.802,44.575,288.594,44.177,288.852,43.413z"/>
<path fill="#DBC868" d="M294.666,46.463c0.375-1.109-0.167-2.331-1.209-2.729c-1.043-0.397-2.189,0.179-2.564,1.286
	c-0.375,1.109,0.167,2.332,1.209,2.729C293.143,48.146,294.291,47.571,294.666,46.463z"/>
<path fill="#AB2B4C" d="M337.714,49.433c-26.622-4.005-44.229,31.234-44.229,31.234l10.71,11.938l13.05,8.927
	C317.242,101.531,346.448,76.478,337.714,49.433z"/>
<path fill="#C23156" d="M298.473,79.58c4.41-7.41,17.936-27.175,36.058-26.047c4.466,18.709-11.217,36.566-17.229,42.583
	l-10.345-7.073L298.473,79.58z"/>
<path fill="#DBC868" d="M323.22,81.156c0.704-0.906,0.585-2.253-0.271-3.003c-0.854-0.75-2.119-0.622-2.825,0.286
	c-0.704,0.909-0.584,2.254,0.271,3.004C321.251,82.194,322.514,82.066,323.22,81.156z"/>
<path fill="#DBC868" d="M319.116,70.45c0.705-0.908,0.584-2.255-0.271-3.005c-0.855-0.75-2.118-0.62-2.823,0.286
	c-0.706,0.908-0.585,2.254,0.27,3.004C317.145,71.488,318.41,71.359,319.116,70.45z"/>
<path fill="#DBC868" d="M317.007,76.254c0.487-0.627,0.403-1.557-0.185-2.071c-0.59-0.518-1.463-0.43-1.949,0.197
	c-0.485,0.627-0.4,1.555,0.188,2.072C315.648,76.969,316.52,76.881,317.007,76.254z"/>
<path fill="#DBC868" d="M324.386,73.758c0.485-0.626,0.401-1.554-0.187-2.072c-0.59-0.518-1.463-0.429-1.948,0.198
	c-0.485,0.626-0.401,1.554,0.188,2.071C323.028,74.472,323.9,74.385,324.386,73.758z"/>
<path fill="#DBC868" d="M324.216,64.289c0.486-0.627,0.403-1.556-0.186-2.072c-0.589-0.52-1.462-0.428-1.948,0.199
	c-0.484,0.626-0.402,1.554,0.188,2.069C322.856,65.004,323.729,64.916,324.216,64.289z"/>
<path fill="#DBC868" d="M328.717,69.251c0.704-0.909,0.586-2.254-0.27-3.004c-0.854-0.75-2.119-0.622-2.825,0.287
	c-0.704,0.907-0.584,2.253,0.271,3.004C326.746,70.287,328.01,70.159,328.717,69.251z"/>
<path fill="#AB2B4C" d="M368.057,87.368c-23.777-13.349-51.561,13.478-51.561,13.478l6.28,15.089l8.193,7.343
	C330.972,123.279,368.057,119.84,368.057,87.368z"/>
<path fill="#C23156" d="M321.542,101.619c6.509-5.388,25.521-19.117,42.217-11.538c-2.241,21.907-23.435,24.624-31.006,28.121
	l-6.233-4.625L321.542,101.619z"/>
<path fill="#DBC868" d="M343.92,100.548c0.953-0.603,1.27-1.91,0.701-2.923c-0.563-1.015-1.796-1.35-2.748-0.747
	c-0.953,0.601-1.268,1.91-0.701,2.924C341.736,100.815,342.968,101.149,343.92,100.548z"/>
<path fill="#DBC868" d="M340.09,105.25c0.657-0.415,0.874-1.318,0.484-2.018c-0.39-0.698-1.239-0.931-1.896-0.516
	c-0.657,0.415-0.874,1.319-0.483,2.018C338.583,105.434,339.431,105.664,340.09,105.25z"/>
<path fill="#DBC868" d="M347.828,105.556c0.657-0.414,0.874-1.317,0.485-2.016c-0.393-0.699-1.24-0.932-1.896-0.517
	c-0.657,0.415-0.874,1.317-0.482,2.019C346.322,105.74,347.171,105.971,347.828,105.556z"/>
<path fill="#DBC868" d="M350.679,96.584c0.655-0.415,0.874-1.317,0.482-2.018c-0.39-0.697-1.239-0.929-1.896-0.514
	c-0.658,0.414-0.874,1.317-0.484,2.016C349.172,96.768,350.022,96.999,350.679,96.584z"/>
<path fill="#DBC868" d="M353.336,102.872c0.952-0.603,1.269-1.91,0.702-2.923c-0.563-1.016-1.796-1.35-2.749-0.747
	c-0.952,0.601-1.267,1.908-0.701,2.923C351.152,103.139,352.383,103.474,353.336,102.872z"/>
<path fill="#AB2B4C" d="M168.028,123.278l8.193-7.343l6.279-15.089c0,0-27.781-26.825-51.56-13.478
	C130.942,119.84,168.027,123.279,168.028,123.278z"/>
<path fill="#C23156" d="M172.481,113.577l-6.234,4.625c-7.571-3.497-28.764-6.214-31.006-28.121
	c16.695-7.579,35.708,6.15,42.217,11.538L172.481,113.577z"/>
<path fill="#DBC868" d="M157.828,99.802c0.566-1.014,0.252-2.323-0.701-2.924c-0.952-0.603-2.185-0.268-2.748,0.747
	c-0.566,1.013-0.252,2.32,0.701,2.923C156.032,101.149,157.263,100.815,157.828,99.802z"/>
<path fill="#DBC868" d="M153.066,105.042c0.391-0.7,0.174-1.604-0.483-2.019c-0.656-0.415-1.505-0.184-1.896,0.517
	c-0.39,0.697-0.172,1.602,0.484,2.016C151.829,105.971,152.677,105.74,153.066,105.042z"/>
<path fill="#DBC868" d="M150.217,96.07c0.391-0.697,0.175-1.602-0.483-2.016c-0.656-0.415-1.506-0.185-1.896,0.514
	c-0.391,0.699-0.173,1.603,0.483,2.018C148.977,96.999,149.827,96.768,150.217,96.07z"/>
<path fill="#DBC868" d="M148.412,102.125c0.565-1.015,0.251-2.322-0.701-2.923c-0.953-0.603-2.185-0.269-2.749,0.747
	c-0.564,1.013-0.25,2.32,0.702,2.923C146.617,103.474,147.847,103.139,148.412,102.125z"/>
<path fill="#AB2B4C" d="M204.037,24.653c26.327,5.812,31.688,45.308,31.688,45.308l-13.876,7.383l-15.12,3.704
	C206.728,81.045,187.215,46.96,204.037,24.653z"/>
<path fill="#C23156" d="M231.374,67.14c-1.795-8.561-8.232-32.021-25.646-37.485c-10.154,15.999-1.077,38.448,2.667,46.271
	l11.98-2.937L231.374,67.14z"/>
<path fill="#DBC868" d="M207.847,59.645c-0.376-1.107,0.166-2.332,1.208-2.729c1.043-0.399,2.189,0.177,2.565,1.286
	c0.374,1.107-0.167,2.329-1.21,2.729C209.371,61.329,208.221,60.754,207.847,59.645z"/>
<path fill="#DBC868" d="M215.115,51.047c-0.375-1.109,0.167-2.332,1.209-2.729c1.043-0.397,2.191,0.179,2.566,1.286
	c0.375,1.108-0.166,2.331-1.209,2.729C216.639,52.731,215.49,52.155,215.115,51.047z"/>
<path fill="#DBC868" d="M215.254,57.266c-0.259-0.765,0.115-1.606,0.833-1.883c0.722-0.275,1.515,0.122,1.771,0.887
	c0.259,0.767-0.115,1.608-0.835,1.884C216.305,58.427,215.512,58.031,215.254,57.266z"/>
<path fill="#DBC868" d="M209.102,52.262c-0.261-0.765,0.113-1.608,0.834-1.882c0.719-0.275,1.512,0.122,1.771,0.887
	c0.258,0.765-0.115,1.608-0.834,1.883C210.154,53.425,209.361,53.027,209.102,52.262z"/>
<path fill="#DBC868" d="M212.276,43.413c-0.259-0.768,0.114-1.608,0.834-1.885c0.719-0.273,1.511,0.122,1.77,0.889
	c0.261,0.765-0.112,1.606-0.833,1.883C213.327,44.576,212.534,44.177,212.276,43.413z"/>
<path fill="#DBC868" d="M206.463,46.463c-0.375-1.109,0.167-2.331,1.209-2.729c1.043-0.397,2.191,0.179,2.566,1.286
	c0.375,1.109-0.167,2.332-1.209,2.729C207.986,48.147,206.838,47.571,206.463,46.463z"/>
<path fill="#AB2B4C" d="M163.415,49.433c26.622-4.005,44.231,31.234,44.231,31.234l-10.71,11.938l-13.05,8.927
	C183.886,101.531,154.68,76.478,163.415,49.433z"/>
<path fill="#C23156" d="M202.655,79.58c-4.412-7.41-17.936-27.175-36.058-26.047c-4.468,18.709,11.217,36.566,17.229,42.583
	l10.343-7.073L202.655,79.58z"/>
<path fill="#DBC868" d="M177.908,81.156c-0.706-0.906-0.585-2.253,0.271-3.003c0.854-0.75,2.117-0.622,2.823,0.286
	c0.704,0.909,0.584,2.254-0.271,3.004C179.877,82.193,178.614,82.066,177.908,81.156z"/>
<path fill="#DBC868" d="M182.012,70.45c-0.705-0.908-0.584-2.255,0.271-3.005c0.855-0.75,2.118-0.62,2.823,0.286
	c0.706,0.908,0.585,2.254-0.271,3.004C183.983,71.488,182.719,71.359,182.012,70.45z"/>
<path fill="#DBC868" d="M184.122,76.254c-0.487-0.627-0.401-1.557,0.187-2.071c0.59-0.518,1.463-0.43,1.947,0.197
	c0.487,0.627,0.402,1.555-0.187,2.072C185.48,76.969,184.608,76.881,184.122,76.254z"/>
<path fill="#DBC868" d="M176.742,73.758c-0.487-0.626-0.403-1.554,0.187-2.072c0.59-0.518,1.463-0.429,1.946,0.198
	c0.487,0.626,0.403,1.554-0.186,2.071C178.1,74.472,177.228,74.385,176.742,73.758z"/>
<path fill="#DBC868" d="M176.913,64.289c-0.484-0.627-0.403-1.556,0.188-2.072c0.589-0.52,1.462-0.428,1.946,0.199
	c0.486,0.626,0.404,1.554-0.186,2.069C178.272,65.004,177.399,64.916,176.913,64.289z"/>
<path fill="#DBC868" d="M172.412,69.251c-0.704-0.909-0.584-2.254,0.271-3.004c0.854-0.75,2.117-0.622,2.823,0.287
	c0.704,0.907,0.584,2.253-0.271,3.004C174.383,70.287,173.118,70.159,172.412,69.251z"/>
<path fill="#DBC868" d="M161.039,105.25c-0.657-0.415-0.874-1.318-0.482-2.018c0.39-0.698,1.237-0.931,1.896-0.516
	s0.874,1.319,0.483,2.018C162.546,105.434,161.697,105.664,161.039,105.25z"/>
<path fill="#EDD870" d="M300.804,78.822l-6.525-2.979c-13.633-5.712-28.862-8.946-44.779-9.101
	c-15.917,0.153-31.146,3.388-44.778,9.101l-6.525,2.979c-16.951,8.388-31.247,20.725-41.458,35.665
	c10.265,11.325,32.394,35.345,63.416,25.471c15.834-5.04,18.01-16.438,29.347-16.438s13.514,11.397,29.348,16.438
	c31.021,9.874,53.15-14.146,63.416-25.471C332.052,99.545,317.756,87.209,300.804,78.822z M203.968,135.291
	c-9.819,0-17.808-7.988-17.808-17.81c0-9.82,7.987-17.81,17.808-17.81c9.818,0,17.804,7.99,17.804,17.81
	C221.771,127.302,213.785,135.292,203.968,135.291z M277.229,117.483c0-9.819,7.983-17.81,17.803-17.81
	c9.82,0,17.808,7.99,17.808,17.81c0,9.82-7.986,17.81-17.808,17.81C285.215,135.292,277.229,127.303,277.229,117.483z"/>
<path fill="#F9E178" d="M173.471,101.562c-3.188,2.557-2.129,15.973-6.118,23.738c12.013,10.863,30.001,21.913,52.8,14.656
	c7.229-2.302,11.585-5.928,15.265-9.189c2.39-4.849,4.538-10.19,5.604-13.955C241.02,116.812,209.418,79.17,173.471,101.562z
	 M203.968,135.291c-9.819,0-17.808-7.988-17.808-17.81c0-9.82,7.987-17.81,17.808-17.81c9.818,0,17.804,7.99,17.804,17.81
	C221.771,127.302,213.785,135.292,203.968,135.291z"/>
<path fill="#FCE677" d="M250.564,72.805c-31.534,0-46.669,11.563-46.669,11.563l46.669,8.297l46.669-8.297
	C297.233,84.367,282.098,72.805,250.564,72.805z"/>
<ellipse fill="#2E5789" cx="268.068" cy="115.411" rx="3.24" ry="3.445"/>
<ellipse fill="#2E5789" cx="274.361" cy="103.579" rx="3.24" ry="3.445"/>
<ellipse fill="#2E5789" cx="285.885" cy="95.423" rx="3.239" ry="3.446"/>
<ellipse fill="#2E5789" cx="301.749" cy="95.76" rx="3.24" ry="3.446"/>
<ellipse fill="#2E5789" cx="314.01" cy="103.603" rx="3.239" ry="3.446"/>
<ellipse fill="#FCE677" cx="314.01" cy="103.508" rx="1.413" ry="1.504"/>
<ellipse fill="#FCE677" cx="301.793" cy="95.618" rx="1.414" ry="1.504"/>
<ellipse fill="#FCE677" cx="285.939" cy="95.266" rx="1.414" ry="1.504"/>
<ellipse fill="#FCE677" cx="274.315" cy="103.518" rx="1.414" ry="1.504"/>
<ellipse fill="#FCE677" cx="268.021" cy="115.386" rx="1.414" ry="1.504"/>
<ellipse fill="#2E5789" cx="230.932" cy="115.411" rx="3.238" ry="3.446"/>
<ellipse fill="#2E5789" cx="224.639" cy="103.579" rx="3.238" ry="3.446"/>
<ellipse fill="#2E5789" cx="213.115" cy="95.423" rx="3.24" ry="3.446"/>
<ellipse fill="#2E5789" cx="197.25" cy="95.76" rx="3.24" ry="3.446"/>
<ellipse fill="#2E5789" cx="184.989" cy="103.603" rx="3.24" ry="3.446"/>
<ellipse fill="#FCE677" cx="184.989" cy="103.508" rx="1.414" ry="1.504"/>
<ellipse fill="#FCE677" cx="197.207" cy="95.618" rx="1.414" ry="1.504"/>
<ellipse fill="#FCE677" cx="213.06" cy="95.266" rx="1.414" ry="1.504"/>
<ellipse fill="#FCE677" cx="224.684" cy="103.518" rx="1.414" ry="1.504"/>
<ellipse fill="#FCE677" cx="230.978" cy="115.386" rx="1.414" ry="1.504"/>
<ellipse fill="#663944" cx="250.564" cy="66.727" rx="6.988" ry="7.432"/>
<path fill="#663944" d="M271,68.399c0.44-4.078-2.31-7.764-6.145-8.23c-3.834-0.471-7.3,2.456-7.74,6.534
	c-0.441,4.075,2.31,7.763,6.146,8.23C267.093,75.402,270.558,72.477,271,68.399z"/>
<path fill="#663944" d="M284.179,71.694c0.875-3.997-1.463-7.991-5.222-8.925c-3.759-0.932-7.517,1.553-8.392,5.551
	c-0.877,3.998,1.46,7.993,5.219,8.927C279.545,78.177,283.302,75.692,284.179,71.694z"/>
<path fill="#663944" d="M296.919,76.569c1.301-3.862-0.593-8.116-4.227-9.501c-3.634-1.382-7.635,0.63-8.936,4.494
	c-1.301,3.865,0.594,8.119,4.228,9.501C291.618,82.446,295.618,80.434,296.919,76.569z"/>
<path fill="#663944" d="M309.051,82.96c1.705-3.683,0.283-8.139-3.178-9.952c-3.462-1.815-7.65-0.302-9.356,3.379
	c-1.707,3.682-0.284,8.138,3.177,9.953C303.153,88.155,307.343,86.642,309.051,82.96z"/>
<path fill="#663944" d="M320.416,90.784c2.09-3.45,1.156-8.051-2.087-10.273c-3.244-2.224-7.57-1.23-9.66,2.219
	c-2.092,3.45-1.155,8.05,2.086,10.274C313.999,95.228,318.324,94.235,320.416,90.784z"/>
<path fill="#663944" d="M330.866,99.938c2.447-3.173,2.014-7.854-0.969-10.459c-2.984-2.604-7.391-2.142-9.836,1.031
	c-2.448,3.174-2.017,7.857,0.969,10.46S328.418,103.113,330.866,99.938z"/>
<path fill="#663944" d="M340.264,110.302c2.771-2.855,2.845-7.56,0.159-10.509c-2.685-2.949-7.107-3.026-9.882-0.171
	c-2.771,2.854-2.846,7.561-0.162,10.509C333.066,113.081,337.491,113.158,340.264,110.302z"/>
<path fill="#663944" d="M348.488,121.741c3.061-2.5,3.638-7.165,1.289-10.423c-2.353-3.256-6.738-3.868-9.799-1.369
	c-3.063,2.497-3.642,7.163-1.29,10.42C341.038,123.626,345.426,124.24,348.488,121.741z"/>
<path fill="#663944" d="M230.129,68.399c-0.438-4.078,2.312-7.764,6.146-8.23c3.834-0.471,7.3,2.456,7.74,6.534
	c0.439,4.075-2.312,7.763-6.146,8.23S230.57,72.477,230.129,68.399z"/>
<path fill="#663944" d="M216.949,71.694c-0.875-3.997,1.461-7.991,5.22-8.925c3.761-0.932,7.519,1.553,8.394,5.551
	c0.877,3.998-1.46,7.993-5.221,8.927C221.584,78.177,217.826,75.692,216.949,71.694z"/>
<path fill="#663944" d="M204.21,76.569c-1.299-3.862,0.595-8.116,4.229-9.501c3.634-1.382,7.635,0.63,8.934,4.494
	c1.301,3.865-0.592,8.119-4.226,9.501C209.51,82.446,205.51,80.434,204.21,76.569z"/>
<path fill="#663944" d="M192.078,82.96c-1.705-3.683-0.283-8.139,3.178-9.952c3.462-1.815,7.652-0.302,9.358,3.379
	c1.707,3.682,0.284,8.138-3.177,9.953C197.975,88.155,193.786,86.642,192.078,82.96z"/>
<path fill="#663944" d="M180.713,90.784c-2.09-3.45-1.154-8.051,2.087-10.273c3.244-2.224,7.57-1.23,9.66,2.219
	c2.094,3.45,1.157,8.05-2.086,10.274C187.13,95.228,182.804,94.235,180.713,90.784z"/>
<path fill="#663944" d="M170.262,99.938c-2.447-3.173-2.016-7.854,0.969-10.459c2.982-2.604,7.389-2.142,9.836,1.031
	c2.448,3.174,2.015,7.857-0.969,10.46C177.114,103.573,172.711,103.113,170.262,99.938z"/>
<path fill="#663944" d="M160.864,110.302c-2.772-2.855-2.845-7.56-0.161-10.509c2.687-2.949,7.109-3.026,9.882-0.171
	c2.773,2.854,2.848,7.561,0.162,10.509C168.062,113.081,163.637,113.158,160.864,110.302z"/>
<path fill="#663944" d="M152.64,121.741c-3.063-2.5-3.64-7.165-1.289-10.423c2.351-3.256,6.736-3.868,9.799-1.369
	c3.063,2.497,3.64,7.163,1.29,10.42S155.703,124.24,152.64,121.741z"/>
<path fill="#A35A6B" d="M250.564,69.906c-1.647,0-2.988-1.426-2.988-3.178s1.341-3.178,2.988-3.178c1.646,0,2.988,1.425,2.988,3.178
	S252.212,69.906,250.564,69.906L250.564,69.906z"/>
<path fill="#A35A6B" d="M264.066,70.728c-0.116,0-0.233-0.007-0.353-0.021c-0.793-0.099-1.503-0.519-1.999-1.184
	c-0.494-0.665-0.719-1.496-0.628-2.338c0.176-1.604,1.445-2.814,2.96-2.814c0.115,0,0.232,0.007,0.352,0.021
	c1.637,0.2,2.813,1.779,2.628,3.521C266.852,69.518,265.58,70.728,264.066,70.728L264.066,70.728z"/>
<path fill="#A35A6B" d="M277.38,73.186c-0.228,0-0.458-0.026-0.685-0.084c-0.777-0.191-1.438-0.696-1.859-1.417
	c-0.421-0.72-0.554-1.572-0.372-2.397c0.317-1.448,1.513-2.459,2.903-2.459c0.229,0,0.458,0.027,0.687,0.085
	c1.604,0.396,2.604,2.108,2.23,3.815C279.967,72.175,278.772,73.186,277.38,73.186L277.38,73.186z"/>
<path fill="#A35A6B" d="M290.339,77.246c-0.341,0-0.68-0.063-1.007-0.188c-0.752-0.286-1.354-0.866-1.693-1.633
	c-0.343-0.77-0.383-1.63-0.112-2.429c0.425-1.265,1.556-2.11,2.813-2.11c0.343,0,0.681,0.063,1.008,0.187
	c1.552,0.593,2.36,2.414,1.808,4.063C292.728,76.398,291.597,77.246,290.339,77.246L290.339,77.246z"/>
<path fill="#A35A6B" d="M302.777,82.854c-0.457,0-0.9-0.108-1.317-0.329c-0.715-0.375-1.251-1.023-1.507-1.829
	c-0.257-0.804-0.204-1.666,0.149-2.428c0.507-1.094,1.536-1.771,2.686-1.771c0.456,0,0.899,0.108,1.316,0.327
	c1.477,0.774,2.087,2.686,1.356,4.258C304.955,82.174,303.926,82.854,302.777,82.854L302.777,82.854z"/>
<path fill="#A35A6B" d="M314.535,89.937c-0.57,0-1.128-0.175-1.613-0.508c-0.67-0.46-1.132-1.17-1.301-2s-0.021-1.68,0.409-2.394
	c0.554-0.913,1.494-1.457,2.519-1.457c0.57,0,1.13,0.175,1.613,0.508c1.384,0.949,1.784,2.92,0.894,4.394
	C316.501,89.392,315.559,89.937,314.535,89.937L314.535,89.937z"/>
<path fill="#A35A6B" d="M325.46,98.403c-0.484,0-1.209-0.125-1.893-0.722c-0.616-0.538-0.999-1.299-1.077-2.145
	c-0.079-0.847,0.157-1.674,0.664-2.329c0.569-0.738,1.412-1.162,2.313-1.162c0.486,0,1.209,0.125,1.895,0.722
	c1.271,1.11,1.458,3.117,0.413,4.473C327.204,97.979,326.36,98.403,325.46,98.403L325.46,98.403z"/>
<path fill="#A35A6B" d="M335.404,108.141c-0.817-0.001-1.58-0.345-2.148-0.969c-1.146-1.259-1.112-3.274,0.07-4.494
	c0.562-0.577,1.298-0.895,2.077-0.895c0.817,0,1.58,0.344,2.146,0.968c1.146,1.259,1.114,3.272-0.067,4.494
	C336.922,107.823,336.184,108.141,335.404,108.141L335.404,108.141z"/>
<path fill="#A35A6B" d="M344.238,119.024c-0.94,0-1.807-0.453-2.376-1.244c-0.486-0.673-0.696-1.507-0.593-2.349
	c0.103-0.842,0.511-1.59,1.145-2.105c0.665-0.545,1.354-0.657,1.813-0.657c0.938,0,1.807,0.453,2.377,1.244
	c1.002,1.389,0.755,3.389-0.555,4.456C345.386,118.909,344.698,119.024,344.238,119.024L344.238,119.024z"/>
<path fill="#A35A6B" d="M237.063,70.728c-1.517,0-2.787-1.21-2.961-2.814c-0.188-1.74,0.989-3.319,2.628-3.521
	c0.117-0.014,0.232-0.021,0.35-0.021c1.517,0,2.786,1.21,2.96,2.813c0.091,0.844-0.132,1.674-0.628,2.339s-1.206,1.084-1.999,1.184
	C237.296,70.721,237.178,70.728,237.063,70.728L237.063,70.728z"/>
<path fill="#A35A6B" d="M223.749,73.186c-1.393,0-2.587-1.011-2.902-2.459c-0.373-1.705,0.628-3.418,2.23-3.813
	c0.229-0.058,0.457-0.085,0.687-0.085c1.393,0,2.586,1.011,2.901,2.457c0.184,0.827,0.049,1.681-0.372,2.399
	c-0.422,0.721-1.082,1.226-1.857,1.417C224.207,73.158,223.976,73.186,223.749,73.186L223.749,73.186z"/>
<path fill="#A35A6B" d="M210.79,77.246c-1.258,0-2.39-0.85-2.813-2.11c-0.556-1.649,0.257-3.472,1.809-4.063
	c0.327-0.124,0.665-0.187,1.006-0.187c1.259,0,2.392,0.847,2.813,2.108c0.27,0.801,0.229,1.664-0.111,2.431
	c-0.342,0.767-0.943,1.347-1.695,1.633C211.469,77.183,211.131,77.246,210.79,77.246L210.79,77.246z"/>
<path fill="#A35A6B" d="M198.351,82.854c-1.148,0-2.18-0.68-2.688-1.773c-0.728-1.57-0.117-3.48,1.36-4.257
	c0.416-0.218,0.857-0.327,1.313-0.327c1.149,0,2.181,0.679,2.688,1.771c0.354,0.762,0.406,1.624,0.147,2.428
	c-0.256,0.806-0.792,1.453-1.507,1.829C199.252,82.743,198.808,82.854,198.351,82.854L198.351,82.854z"/>
<path fill="#A35A6B" d="M186.594,89.937c-1.024,0-1.968-0.544-2.521-1.458c-0.893-1.472-0.492-3.441,0.893-4.393
	c0.484-0.333,1.043-0.508,1.612-0.508c1.024,0,1.965,0.544,2.52,1.456c0.434,0.714,0.578,1.563,0.408,2.395
	c-0.169,0.83-0.631,1.54-1.301,2C187.721,89.761,187.164,89.937,186.594,89.937L186.594,89.937z"/>
<path fill="#A35A6B" d="M175.669,98.403c-0.898,0-1.744-0.424-2.313-1.163c-1.045-1.354-0.859-3.359,0.414-4.473
	c0.683-0.596,1.403-0.721,1.892-0.721c0.901,0,1.744,0.423,2.313,1.162c0.507,0.655,0.741,1.482,0.664,2.329
	c-0.078,0.845-0.461,1.605-1.077,2.145C176.878,98.278,176.155,98.403,175.669,98.403L175.669,98.403z"/>
<path fill="#A35A6B" d="M165.724,108.141c-0.779,0-1.52-0.318-2.078-0.896c-1.186-1.221-1.215-3.234-0.069-4.494
	c0.568-0.624,1.331-0.967,2.148-0.967c0.777,0,1.518,0.315,2.075,0.895c1.187,1.219,1.218,3.235,0.07,4.494
	C167.304,107.798,166.542,108.141,165.724,108.141L165.724,108.141z"/>
<path fill="#A35A6B" d="M156.89,119.024c-0.46,0-1.148-0.112-1.814-0.655c-1.307-1.067-1.554-3.066-0.551-4.457
	c0.569-0.79,1.437-1.243,2.376-1.243c0.46,0,1.146,0.112,1.813,0.654c0.637,0.521,1.041,1.269,1.146,2.108
	c0.104,0.841-0.106,1.675-0.592,2.348C158.696,118.571,157.831,119.024,156.89,119.024L156.89,119.024z"/>
<path fill="#E0CB6C" d="M249.5,112.395c0,0-9.157,4.707-14.082,18.372c7.443,11.25,14.082,14.104,14.082,14.104V112.395z"/>
<path fill="#BFAE5C" d="M249.5,112.395c0,0,9.157,4.707,14.082,18.372c-7.442,11.25-14.082,14.104-14.082,14.104V112.395z"/>
<path fill="#FCE677" d="M245.267,119.317c0,0-4.524,4.245-6.346,10.39c3.504,7.509,8.191,9.146,8.191,9.146L245.267,119.317z"/>
</svg>
