<?xml version="1.0" encoding="utf-8"?>
<!-- Generator: Adobe Illustrator 18.0.0, SVG Export Plug-In . SVG Version: 6.00 Build 0)  -->
<!DOCTYPE svg PUBLIC "-//W3C//DTD SVG 1.1//EN" "http://www.w3.org/Graphics/SVG/1.1/DTD/svg11.dtd">
<svg version="1.1" id="content" xmlns="http://www.w3.org/2000/svg" xmlns:xlink="http://www.w3.org/1999/xlink" x="0px" y="0px"
	 width="500px" height="500px" viewBox="0 0 500 500" enable-background="new 0 0 500 500" xml:space="preserve">
<rect id="position" display="none" fill="none" stroke="#000000" width="500" height="500"/>
<g id="bounds" display="none">
	<rect x="50" y="129.9" display="inline" fill="none" stroke="#EAEAEA" stroke-miterlimit="10" width="400" height="400"/>
</g>
<g>
	<path fill="#C9C8CE" d="M322.5,301l28.2-41c1.7-2.4,1.3-5.6-0.9-7.2c-2.2-1.5-5.3-0.8-7,1.7l-29.4,42.6
		c-19.3-7.6-40.8-11.9-63.5-11.9s-44.1,4.2-63.5,11.9L157,254.5c-1.7-2.4-4.8-3.2-7-1.7s-2.6,4.7-0.9,7.2l28.3,41
		C132.5,321.9,101,361.6,97,408h305.9C398.9,361.6,367.4,321.9,322.5,301"/>
	<path fill="#FFFFFF" d="M186.1,365.6c-9.3,0-16.9-7.6-16.9-16.9s7.6-16.9,16.9-16.9c9.3,0,16.9,7.6,16.9,16.9
		C203,358.1,195.4,365.6,186.1,365.6"/>
	<path fill="#FFFFFF" d="M313.9,365.6c-9.3,0-16.9-7.6-16.9-16.9s7.6-16.9,16.9-16.9c9.4,0,16.9,7.6,16.9,16.9
		C330.8,358.1,323.2,365.6,313.9,365.6"/>
</g>
<g id="accessory">
	<path fill="#DD2F30" d="M366.8,364.5c-6.7-3.3-15-4.6-19,2.6c-7.3-3.7-13.5,2.1-17.2,8.5l-5.3,6.1c0,0,6.7,2.9,14,0.4
		c2.3-0.8,4.2-1.9,5.8-3l-3.7-6.4l6.4,4.1c0.1-0.1,0.2-0.2,0.3-0.2c1.3-1.4,2-2.5,2-2.5s1.2,0.5,3.2,0.9l3.6-8.5l0.7,8.9
		c1.8,0,3.8-0.2,6-0.7c7.5-2,12.3-7.7,12.3-7.7L366.8,364.5z"/>
	<path fill="#DD2F30" d="M376,378.5c0,0-0.1-0.1-0.3-0.1c-1.8-0.8-6.2-5.1-12.8-0.5c-0.7,0.5-1.3,1-1.9,1.5l6.7,4.7l-10.1-2.6
		c-1.1,0.6-2.2,1.1-3.2,1.4l1.3,7.7l-4.8-6.6c-1.1,0.3-2,0.4-3.4,0.3l-7.9,7.6l4.6-7.8c-0.4,0-0.9-0.1-1.4-0.1
		c-8.1-0.1-11.7,6.1-12.8,7.7c-0.1,0.2-0.2,0.3-0.2,0.3s0.9,2,9.3,4.9c8.5,2.3,15.1-0.4,18-1.3c2.8-0.9,8.5-1.6,14.3-8.2
		C376.5,380.2,376,378.5,376,378.5z"/>
</g>
</svg>
