<?xml version="1.0" encoding="utf-8"?>
<!-- Generator: Adobe Illustrator 18.0.0, SVG Export Plug-In . SVG Version: 6.00 Build 0)  -->
<!DOCTYPE svg PUBLIC "-//W3C//DTD SVG 1.1//EN" "http://www.w3.org/Graphics/SVG/1.1/DTD/svg11.dtd">
<svg version="1.1" id="content" xmlns="http://www.w3.org/2000/svg" xmlns:xlink="http://www.w3.org/1999/xlink" x="0px" y="0px"
	 width="500px" height="500px" viewBox="0 0 500 500" enable-background="new 0 0 500 500" xml:space="preserve">
<rect id="position" display="none" fill="none" stroke="#000000" width="500" height="500"/>
<g id="bounds" display="none">
	<rect x="50" y="129.9" display="inline" fill="none" stroke="#EAEAEA" stroke-miterlimit="10" width="400" height="400"/>
</g>
<g>
	<path fill="#C9C8CE" d="M322.5,301l28.2-41c1.7-2.4,1.3-5.6-0.9-7.2c-2.2-1.5-5.3-0.8-7,1.7l-29.4,42.6
		c-19.3-7.6-40.8-11.9-63.5-11.9s-44.1,4.2-63.5,11.9L157,254.5c-1.7-2.4-4.8-3.2-7-1.7s-2.6,4.7-0.9,7.2l28.3,41
		C132.5,321.9,101,361.6,97,408h305.9C398.9,361.6,367.4,321.9,322.5,301"/>
	<path fill="#FFFFFF" d="M186.1,365.6c-9.3,0-16.9-7.6-16.9-16.9s7.6-16.9,16.9-16.9c9.3,0,16.9,7.6,16.9,16.9
		C203,358.1,195.4,365.6,186.1,365.6"/>
	<path fill="#FFFFFF" d="M313.9,365.6c-9.3,0-16.9-7.6-16.9-16.9s7.6-16.9,16.9-16.9c9.4,0,16.9,7.6,16.9,16.9
		C330.8,358.1,323.2,365.6,313.9,365.6"/>
</g>
<g id="accessory">
	<circle fill="#F15411" cx="250" cy="309" r="13.5"/>
	<path fill="#743C25" d="M235.2,325.3c0,0,8.1,3,11,10.5C245.2,327.4,241.7,324.2,235.2,325.3z"/>
	<path fill="#743C25" d="M264.9,325.3c0,0-8.1,3-11,10.5C254.9,327.4,258.4,324.2,264.9,325.3z"/>
	<circle fill="#FFEEE7" cx="232.1" cy="322.3" r="1.6"/>
	<circle fill="#FFEEE7" cx="267.9" cy="322.3" r="1.6"/>
	<circle fill="#FFEEE7" cx="269.5" cy="308.3" r="1.6"/>
	<circle fill="#FFEEE7" cx="266.3" cy="298.2" r="1.6"/>
	<circle fill="#FFEEE7" cx="257.8" cy="292.3" r="1.6"/>
	<circle fill="#FFEEE7" cx="230.5" cy="308.3" r="1.6"/>
	<circle fill="#FFEEE7" cx="233.7" cy="298.2" r="1.6"/>
	<circle fill="#FFEEE7" cx="242.2" cy="292.3" r="1.6"/>
	<circle fill="#4F645B" cx="250" cy="309" r="2.7"/>
	<path fill="#FFEEE7" d="M250,335c0,4,3.3,3.7,3.4,8.2c0,2.6-1.9,3.9-3.4,3.9c-1.5,0-3.4-1.3-3.4-3.9C246.7,338.7,250,339,250,335z"
		/>
</g>
</svg>
