<?xml version="1.0" encoding="utf-8"?>
<!-- Generator: Adobe Illustrator 13.0.0, SVG Export Plug-In . SVG Version: 6.00 Build 14948)  -->
<!DOCTYPE svg PUBLIC "-//W3C//DTD SVG 1.1//EN" "http://www.w3.org/Graphics/SVG/1.1/DTD/svg11.dtd">
<svg version="1.1" id="content" xmlns="http://www.w3.org/2000/svg" xmlns:xlink="http://www.w3.org/1999/xlink" x="0px" y="0px"
	 width="500px" height="500px" viewBox="0 0 500 500" enable-background="new 0 0 500 500" xml:space="preserve">
<g id="bounds" display="none">
	
		<rect x="168.36" y="66.243" display="inline" fill="none" stroke="#23170D" stroke-width="1.08" width="162.109" height="162.108"/>
</g>
<g id="accessory">
	<path fill="#282828" d="M315.664,147.297c0,3.659-2.967,6.625-6.625,6.625h-119.25c-3.659,0-6.625-2.966-6.625-6.625l0,0
		c0-3.658,2.966-6.625,6.625-6.625h119.25C312.698,140.672,315.664,143.639,315.664,147.297L315.664,147.297z"/>
	<path fill="#F9F9F9" d="M209.524,140.672l-4.418,8.741c-0.933,1.537-2.141,1.482-2.141,1.482s-1.208,0.055-2.141-1.482
		l-4.418-8.741H209.524z"/>
	<path fill="#CCCCCC" d="M199.908,140.672h-3.501l4.418,8.741c0.933,1.537,2.141,1.482,2.141,1.482s1.208,0.055,2.141-1.482l0,0
		L199.908,140.672z"/>
	<path fill="#F9F9F9" d="M301.727,140.672l-4.418,8.741c-0.934,1.537-2.141,1.482-2.141,1.482s-1.208,0.055-2.143-1.482
		l-4.418-8.741H301.727z"/>
	<path fill="#CCCCCC" d="M292.111,140.672h-3.502l4.418,8.741c0.935,1.537,2.143,1.482,2.143,1.482s1.207,0.055,2.143-1.482l0,0
		L292.111,140.672z"/>
</g>
<rect id="position" display="none" fill="none" stroke="#000000" width="500" height="500"/>
</svg>
