<?xml version="1.0" encoding="utf-8"?>
<!-- Generator: Adobe Illustrator 18.0.0, SVG Export Plug-In . SVG Version: 6.00 Build 0)  -->
<!DOCTYPE svg PUBLIC "-//W3C//DTD SVG 1.1//EN" "http://www.w3.org/Graphics/SVG/1.1/DTD/svg11.dtd">
<svg version="1.1" id="content" xmlns="http://www.w3.org/2000/svg" xmlns:xlink="http://www.w3.org/1999/xlink" x="0px" y="0px"
	 width="500px" height="500px" viewBox="0 0 500 500" enable-background="new 0 0 500 500" xml:space="preserve">
<path fill="#212121" d="M401.6,364.1l-5.6,0.2l2.8,0.4l-2.4-1.1c0.3-2.2,0.2-8.2-2.7-10.4c-2.3-1.7-6.1-0.4-9.2,1l-3.2-4.9
	c6.5-3,12.1-3.2,15.7-0.5c6.1,4.6,4.8,15.2,4.6,16.4L401.6,364.1z"/>
<rect id="position" display="none" fill="none" stroke="#000000" width="500" height="500"/>
<g id="bounds" display="none">
	<rect x="50" y="129.9" display="inline" fill="none" stroke="#EAEAEA" stroke-miterlimit="10" width="400" height="400"/>
</g>
<g>
	<path fill="#C9C8CE" d="M322.5,301l28.2-41c1.7-2.4,1.3-5.6-0.9-7.2c-2.2-1.5-5.3-0.8-7,1.7l-29.4,42.6
		c-19.3-7.6-40.8-11.9-63.5-11.9s-44.1,4.2-63.5,11.9L157,254.5c-1.7-2.4-4.8-3.2-7-1.7s-2.6,4.7-0.9,7.2l28.3,41
		C132.5,321.9,101,361.6,97,408h305.9C398.9,361.6,367.4,321.9,322.5,301"/>
	<path fill="#FFFFFF" d="M186.1,365.6c-9.3,0-16.9-7.6-16.9-16.9s7.6-16.9,16.9-16.9c9.3,0,16.9,7.6,16.9,16.9
		C203,358.1,195.4,365.6,186.1,365.6"/>
	<path fill="#FFFFFF" d="M313.9,365.6c-9.3,0-16.9-7.6-16.9-16.9s7.6-16.9,16.9-16.9c9.4,0,16.9,7.6,16.9,16.9
		C330.8,358.1,323.2,365.6,313.9,365.6"/>
</g>
<path fill="#212121" d="M386.1,401.5c-4.5,4.5-11.8,4.5-16.3,0l0,0c-4.5-4.5-4.5-11.8,0-16.3L389,366c4.5-4.5,11.8-4.5,16.3,0l0,0
	c4.5,4.5,4.5,11.8,0,16.3L386.1,401.5z"/>
<path fill="#3A3A3A" d="M393.9,393.7c-3.2,3.2-8.8,2.9-12.4-0.8l0,0c-3.7-3.7-4-9.2-0.8-12.4l13.7-13.7c3.2-3.2,8.8-2.9,12.4,0.8
	l0,0c3.7,3.7,4,9.2,0.8,12.4L393.9,393.7z"/>
<circle fill="#1071FF" cx="398.7" cy="375.4" r="2.6"/>
</svg>
