<?xml version="1.0" encoding="utf-8"?>
<!-- Generator: Adobe Illustrator 18.0.0, SVG Export Plug-In . SVG Version: 6.00 Build 0)  -->
<!DOCTYPE svg PUBLIC "-//W3C//DTD SVG 1.1//EN" "http://www.w3.org/Graphics/SVG/1.1/DTD/svg11.dtd">
<svg version="1.1" id="content" xmlns="http://www.w3.org/2000/svg" xmlns:xlink="http://www.w3.org/1999/xlink" x="0px" y="0px"
	 width="500px" height="500px" viewBox="0 0 500 500" enable-background="new 0 0 500 500" xml:space="preserve">
<rect id="position" display="none" fill="none" stroke="#000000" width="500" height="500"/>
<g id="bounds" display="none">
	<rect x="50" y="129.9" display="inline" fill="none" stroke="#EAEAEA" stroke-miterlimit="10" width="400" height="400"/>
</g>
<g>
	<path fill="#C9C8CE" d="M322.5,301l28.2-41c1.7-2.4,1.3-5.6-0.9-7.2c-2.2-1.5-5.3-0.8-7,1.7l-29.4,42.6
		c-19.3-7.6-40.8-11.9-63.5-11.9s-44.1,4.2-63.5,11.9L157,254.5c-1.7-2.4-4.8-3.2-7-1.7s-2.6,4.7-0.9,7.2l28.3,41
		C132.5,321.9,101,361.6,97,408h305.9C398.9,361.6,367.4,321.9,322.5,301"/>
	<path fill="#FFFFFF" d="M186.1,365.6c-9.3,0-16.9-7.6-16.9-16.9s7.6-16.9,16.9-16.9c9.3,0,16.9,7.6,16.9,16.9
		C203,358.1,195.4,365.6,186.1,365.6"/>
	<path fill="#FFFFFF" d="M313.9,365.6c-9.3,0-16.9-7.6-16.9-16.9s7.6-16.9,16.9-16.9c9.4,0,16.9,7.6,16.9,16.9
		C330.8,358.1,323.2,365.6,313.9,365.6"/>
</g>
<g>
	<g>
		<g>
			<path d="M321.8,372.8l81.7-22.7l-81.2,24.5c-0.5,0.1-1-0.1-1.1-0.6C321,373.5,321.3,373,321.8,372.8L321.8,372.8z"/>
		</g>
		<g>
			<path d="M323.4,381.8l87.9-14.1l-87.6,15.9c-0.5,0.1-1-0.2-1.1-0.7C322.5,382.3,322.7,381.8,323.4,381.8
				C323.2,381.8,323.4,381.8,323.4,381.8z"/>
		</g>
		<g>
			<path d="M325,390.7l83.7-1.7l-83.7,3.6c-0.5,0-1-0.4-1-0.9S324.3,390.7,325,390.7C324.8,390.7,324.8,390.7,325,390.7z"/>
		</g>
	</g>
	<g>
		<g>
			<path d="M177.8,374.6l-81.2-24.5l81.7,22.7c0.5,0.1,0.7,0.6,0.6,1.1C178.7,374.5,178.2,374.8,177.8,374.6L177.8,374.6z"/>
		</g>
		<g>
			<path d="M176.4,383.5l-87.6-15.9l87.9,14.1c0.5,0.1,0.9,0.6,0.7,1.1C177.4,383.3,176.9,383.7,176.4,383.5L176.4,383.5z"/>
		</g>
		<g>
			<path d="M175,392.6L91.4,389l83.7,1.7c0.5,0,0.9,0.5,0.9,1C176,392.2,175.5,392.6,175,392.6L175,392.6z"/>
		</g>
	</g>
</g>
</svg>
