<?xml version="1.0" encoding="utf-8"?>
<!-- Generator: Adobe Illustrator 18.0.0, SVG Export Plug-In . SVG Version: 6.00 Build 0)  -->
<!DOCTYPE svg PUBLIC "-//W3C//DTD SVG 1.1//EN" "http://www.w3.org/Graphics/SVG/1.1/DTD/svg11.dtd">
<svg version="1.1" id="content" xmlns="http://www.w3.org/2000/svg" xmlns:xlink="http://www.w3.org/1999/xlink" x="0px" y="0px"
	 width="500px" height="500px" viewBox="0 0 500 500" enable-background="new 0 0 500 500" xml:space="preserve">
<rect id="position" display="none" fill="none" stroke="#000000" width="500" height="500"/>
<g id="bounds" display="none">
	<rect x="50" y="129.9" display="inline" fill="none" stroke="#EAEAEA" stroke-miterlimit="10" width="400" height="400"/>
</g>
<g>
	<path fill="#C9C8CE" d="M322.5,301l28.2-41c1.7-2.4,1.3-5.6-0.9-7.2c-2.2-1.5-5.3-0.8-7,1.7l-29.4,42.6
		c-19.3-7.6-40.8-11.9-63.5-11.9s-44.1,4.2-63.5,11.9l-29.4-42.6c-1.7-2.4-4.8-3.2-7-1.7c-2.2,1.5-2.6,4.7-0.9,7.2l28.3,41
		c-44.9,20.9-76.4,60.6-80.4,107h305.9C398.9,361.6,367.4,321.9,322.5,301"/>
	<path fill="#FFFFFF" d="M186.1,365.6c-9.3,0-16.9-7.6-16.9-16.9c0-9.3,7.6-16.9,16.9-16.9c9.3,0,16.9,7.6,16.9,16.9
		C203,358.1,195.4,365.6,186.1,365.6"/>
	<path fill="#FFFFFF" d="M313.9,365.6c-9.3,0-16.9-7.6-16.9-16.9c0-9.3,7.6-16.9,16.9-16.9c9.4,0,16.9,7.6,16.9,16.9
		C330.8,358.1,323.2,365.6,313.9,365.6"/>
	<g id="accessory">
		<g>
			<path fill="#D6D003" d="M163.1,272.6c0,4.8-3.9,8.6-8.6,8.6c-4.8,0-8.6-3.9-8.6-8.6c0-4.8,3.9-8.6,8.6-8.6
				C159.2,264,163.1,267.8,163.1,272.6z"/>
			<ellipse fill="#E5DA0A" cx="154.8" cy="270.4" rx="5.4" ry="5.5"/>
		</g>
	</g>
	<g id="accessory_1_">
		<g>
			<path fill="#D6D003" d="M341,265.3c4.1-2.5,9.4-1.3,11.9,2.8c2.5,4,1.3,9.4-2.8,11.9c-4,2.5-9.4,1.2-11.9-2.8
				C335.7,273.1,336.9,267.8,341,265.3z"/>
			
				<ellipse transform="matrix(0.8502 -0.5264 0.5264 0.8502 -91.058 221.701)" fill="#E5DA0A" cx="344.1" cy="270.9" rx="5.4" ry="5.5"/>
		</g>
	</g>
</g>
</svg>
