<?xml version="1.0" encoding="utf-8"?>
<!-- Generator: Adobe Illustrator 18.0.0, SVG Export Plug-In . SVG Version: 6.00 Build 0)  -->
<!DOCTYPE svg PUBLIC "-//W3C//DTD SVG 1.1//EN" "http://www.w3.org/Graphics/SVG/1.1/DTD/svg11.dtd">
<svg version="1.1" id="content" xmlns="http://www.w3.org/2000/svg" xmlns:xlink="http://www.w3.org/1999/xlink" x="0px" y="0px"
	 width="500px" height="500px" viewBox="0 0 500 500" enable-background="new 0 0 500 500" xml:space="preserve">
<rect id="position" display="none" fill="none" stroke="#000000" width="500" height="500"/>
<g id="bounds" display="none">
	<rect x="124.6" y="19.8" display="inline" fill="none" stroke="#000000" stroke-width="0.7704" width="249.6" height="249.6"/>
</g>
<g id="accessory">
	<path fill="#D1D3D4" d="M358.4,156.1h-26.6c-4.2,0-7.6-3.4-7.6-7.6v-9.4c0-4.2,3.4-7.6,7.6-7.6h19.5c-0.3-0.7-0.6-1.3-0.9-2h-0.1
		c-0.3-0.7-0.6-1.3-1-2c-17.5-0.8-54.4-2.3-99.8-2.3s-82.4,1.5-99.8,2.3c-0.3,0.6-0.7,1.3-1,2h-0.1c-0.3,0.7-0.6,1.3-0.9,2H167
		c4.2,0,7.6,3.4,7.6,7.6v9.4c0,4.2-3.4,7.6-7.6,7.6h-26.6c-0.1,1.1-0.3,2.2-0.4,3.3v0.1c7.5,0.8,44.1,4.2,109.3,4.2c0,0,0,0,0,0
		s0,0,0,0c65.2,0,101.8-3.4,109.3-4.2v-0.1C358.7,158.4,358.5,157.2,358.4,156.1z"/>
	<path fill="#BCBEC0" d="M174.7,144.8l39.7-0.2c-9.6,0-32.9-2.7-39.7-3.5V144.8z"/>
	<path fill="#BCBEC0" d="M324.2,144.8l-39.7-0.2c9.6,0,32.9-2.7,39.7-3.5V144.8z"/>
	<path fill="#BCBEC0" d="M331.8,156.1c-4.2,0-7.6-3.4-7.6-7.6v-0.9c-18.8,0.9-43.6,1.6-74.6,1.6c-31.2,0-56.1-0.7-74.9-1.6v1
		c0,4.2-3.4,7.6-7.6,7.6h-26.6c-0.1,1.1-0.3,2.2-0.4,3.3v0.1c7.5,0.8,44.1,4.2,109.3,4.2c0,0,0,0,0,0s0,0,0,0
		c65.2,0,101.8-3.4,109.3-4.2v-0.1c-0.1-1.1-0.2-2.2-0.4-3.3L331.8,156.1L331.8,156.1z"/>
	<path fill="#F1F2F2" d="M249.9,131.2c-16.9,0-32.1,0.9-42.6,2.4c10.6,1.5,25.7,2.4,42.6,2.4c16.9,0,32.1-0.9,42.6-2.4
		C282,132.1,266.8,131.2,249.9,131.2z"/>
</g>
</svg>
