<?xml version="1.0" encoding="utf-8"?>
<!-- Generator: Adobe Illustrator 16.2.0, SVG Export Plug-In . SVG Version: 6.00 Build 0)  -->
<!DOCTYPE svg PUBLIC "-//W3C//DTD SVG 1.1//EN" "http://www.w3.org/Graphics/SVG/1.1/DTD/svg11.dtd">
<svg version="1.1" id="Layer_1" xmlns="http://www.w3.org/2000/svg" xmlns:xlink="http://www.w3.org/1999/xlink" x="0px" y="0px"
	 width="500px" height="500px" viewBox="0 0 500 500" enable-background="new 0 0 500 500" xml:space="preserve">
<rect x="0.5" y="0.5" display="none" fill="#FFFFFF" stroke="#000000" width="500.001" height="500"/>
<g id="bounds">
	<rect x="90" y="10" fill="none" stroke="#000000" stroke-width="0.993" width="320" height="159.884"/>
</g>
<g id="accessory">
<path fill="#FFFFFF" d="M301.314,83.299l-6.449-2.769c-13.809-5.439-29.141-8.47-45.302-8.47c-16.16,0-31.495,3.029-45.302,8.47
	l-6.448,2.769c-32.063,14.916-54.548,43.259-57.413,76.339h218.318C355.863,126.558,333.376,98.215,301.314,83.299"/>
<g>
	<g>
		<g>
			<g>
				<path fill="#FFFFFF" d="M281.892,76.761c13.83-4.368,21.523-35.863,41.371-26.045c21.885,10.829-5.6,41.429,2.432,49.266"/>
			</g>
			<g>
				<path fill="#C2BDBD" d="M313.839,66.522c3.813,1.886-3.369,14.596,1.475,25.676c-13.381-7.051-20.65-10.933-22.59-11.662
					C303.569,77.113,309.556,64.406,313.839,66.522z"/>
			</g>
		</g>
		<g>
			<g>
				<path fill="#FFFFFF" d="M211.846,79.751c-13.835-4.367-21.522-35.863-41.375-26.044c-21.884,10.828,5.602,41.427-2.429,49.264"
					/>
			</g>
			<g>
				<path fill="#C2BDBD" d="M179.897,69.514c-3.81,1.884,3.366,14.597-1.475,25.678c13.383-7.053,20.653-10.933,22.589-11.665
					C190.172,80.103,184.18,67.396,179.897,69.514z"/>
			</g>
		</g>
	</g>
	<g>
		<g>
			<g>
				<path fill="#E7DEDB" d="M249.341,114.136c22.394,0,28.503,7.484,35.753,24.191c9.592,22.096-0.941,37.317-35.104,37.317
					s-42.332-16.179-34.428-36.204C221.682,123.949,226.951,114.136,249.341,114.136z"/>
			</g>
			<g>
				<g>
					<path fill="#1D2429" d="M250.432,138.327h-0.884C232,138.327,234,145.164,234,152.397c0,2.751,2.083,6.9,5.094,9.71
						c8.53,0.243,10.896-3.958,10.896-3.958s2.367,4.2,10.895,3.958c3.01-2.81,5.098-6.959,5.098-9.71
						C265.98,145.163,267.979,138.327,250.432,138.327z"/>
				</g>
				<g>
					<ellipse cx="242.814" cy="152.397" rx="4.779" ry="4.634"/>
				</g>
				<g>
					<ellipse cx="257.165" cy="152.397" rx="4.778" ry="4.634"/>
				</g>
				<g>
					<path d="M249.99,158.15c0,0-2.364,4.2-10.896,3.958c1.522,1.423,3.375,3.034,6.588,3.034c3.219,0,4.308,3.627,4.308,3.627
						s0.709-3.186,4.308-3.627c3.6-0.444,4.671-1.24,6.588-3.034C252.354,162.351,249.99,158.15,249.99,158.15z"/>
				</g>
			</g>
			<g>
				<g>
					<path d="M232.041,170.186c0,0,0.592,0.068,1.604,0.135c1.02,0.047,2.422,0.203,4.17,0.229c0.871,0.024,1.812,0.06,2.8,0.112
						c0.497,0.021,1.004,0.045,1.526,0.07c0.521,0.001,1.055,0.004,1.6,0.006c1.087,0.003,2.207,0.001,3.347,0.033
						c1.121,0.011,2.336,0.069,3.412,0.043c2.333-0.072,4.669-0.134,6.86-0.152c1.099-0.008,2.106-0.128,3.103-0.181
						c0.983-0.06,1.913-0.113,2.774-0.165c0.867-0.03,1.648-0.148,2.352-0.202c0.703-0.07,1.316-0.129,1.818-0.178
						c1-0.119,1.57-0.189,1.57-0.189l0.266,1.028c0,0-0.143,0.044-0.412,0.13c-0.266,0.075-0.662,0.233-1.164,0.346
						c-0.502,0.12-1.113,0.265-1.813,0.433c-0.707,0.152-1.492,0.396-2.377,0.502c-0.881,0.131-1.836,0.274-2.85,0.425
						c-1.01,0.117-2.093,0.348-3.184,0.387c-2.188,0.136-4.521,0.243-6.853,0.335c-1.263,0.046-2.379-0.058-3.56-0.079
						c-1.16-0.033-2.299-0.098-3.4-0.152c-0.552-0.03-1.095-0.059-1.625-0.083c-0.531-0.066-1.047-0.13-1.553-0.193
						c-1.008-0.116-1.961-0.242-2.836-0.368c-0.438-0.061-0.854-0.119-1.256-0.173c-0.399-0.087-0.78-0.166-1.135-0.242
						c-0.709-0.153-1.328-0.286-1.839-0.396c-0.514-0.097-0.889-0.236-1.153-0.308c-0.265-0.077-0.404-0.118-0.404-0.118
						L232.041,170.186z"/>
				</g>
			</g>
			<g>
				<rect x="249.459" y="165.573" width="1.061" height="6.521"/>
			</g>
		</g>
		<g>
			<path d="M201.092,122.604c-7.089,0-12.83-5.742-12.83-12.828c0-7.086,5.737-12.831,12.83-12.831
				c7.08,0,12.819,5.743,12.819,12.831C213.913,116.856,208.173,122.604,201.092,122.604"/>
		</g>
		<g>
			<path d="M297.951,122.604c-7.08,0-12.826-5.742-12.826-12.828c0-7.086,5.742-12.831,12.826-12.831
				c7.088,0,12.828,5.745,12.828,12.831C310.781,116.856,305.037,122.604,297.951,122.604"/>
		</g>
	</g>
</g>
</g>
</svg>
