<?xml version="1.0" encoding="utf-8"?>
<!-- Generator: Adobe Illustrator 16.2.0, SVG Export Plug-In . SVG Version: 6.00 Build 0)  -->
<!DOCTYPE svg PUBLIC "-//W3C//DTD SVG 1.1//EN" "http://www.w3.org/Graphics/SVG/1.1/DTD/svg11.dtd">
<svg version="1.1" id="Layer_1" xmlns="http://www.w3.org/2000/svg" xmlns:xlink="http://www.w3.org/1999/xlink" x="0px" y="0px"
	 width="500px" height="500px" viewBox="0 0 500 500" enable-background="new 0 0 500 500" xml:space="preserve">
<rect x="0.5" y="0.5" display="none" fill="#FFFFFF" stroke="#000000" width="500.001" height="500"/>
<g id="bounds">
	<rect x="90" y="10" fill="none" stroke="#000000" stroke-width="0.993" width="320" height="159.884"/>
</g>
<g id="accessory">
	<g>
		<path d="M248.977,137.549"/>
	</g>
	<g>
		<path d="M248.977,137.549"/>
	</g>
	<g>
		<path d="M248.977,137.549"/>
	</g>
	<g>
		<path d="M240.708,155.089"/>
	</g>
	<g>
		<path d="M248.559,137.354"/>
	</g>
	<g>
		<path d="M248.559,137.354"/>
	</g>
	<g>
		<path d="M248.559,137.354"/>
	</g>
	<g>
		<path d="M240.292,154.896"/>
	</g>
	<g>
		<g>
			<path fill="#E7DEDB" d="M248.559,121.62c20.583,0,26.203,6.879,32.867,22.238c8.815,20.313-0.867,34.306-32.271,34.306
				c-31.407,0-38.918-14.875-31.65-33.283C223.129,130.637,227.973,121.62,248.559,121.62z"/>
		</g>
		<g>
			<g>
				<path fill="#1D2429" d="M249.561,143.857h-0.814c-16.132,0-14.291,6.284-14.291,12.935c0,2.531,1.915,6.343,4.681,8.927
					c7.843,0.224,10.019-3.64,10.019-3.64s2.174,3.862,10.015,3.64c2.767-2.584,4.683-6.397,4.683-8.927
					C263.853,150.142,265.693,143.857,249.561,143.857z"/>
			</g>
			<g>
				<ellipse cx="242.556" cy="156.793" rx="4.395" ry="4.26"/>
			</g>
			<g>
				<ellipse cx="255.751" cy="156.793" rx="4.394" ry="4.26"/>
			</g>
			<g>
				<path d="M249.154,162.08c0,0-2.175,3.862-10.018,3.64c1.399,1.31,3.102,2.788,6.058,2.788c2.955,0,3.96,3.334,3.96,3.334
					s0.652-2.93,3.958-3.334c3.309-0.407,4.296-1.141,6.059-2.788C251.328,165.942,249.154,162.08,249.154,162.08z"/>
			</g>
		</g>
		<g>
			<g>
				<path d="M232.652,173.146c0,0,0.542,0.062,1.471,0.124c0.938,0.045,2.229,0.188,3.836,0.212
					c0.798,0.021,1.663,0.055,2.574,0.103c0.457,0.021,0.924,0.041,1.402,0.065c0.479,0,0.972,0.003,1.472,0.004
					c0.998,0.005,2.03,0.001,3.074,0.031c1.03,0.01,2.147,0.065,3.133,0.038c2.148-0.065,4.296-0.123,6.307-0.138
					c1.01-0.007,1.94-0.12,2.853-0.167c0.904-0.054,1.763-0.104,2.551-0.151c0.796-0.028,1.518-0.135,2.162-0.186
					c0.647-0.063,1.212-0.118,1.673-0.162c0.919-0.111,1.439-0.174,1.439-0.174l0.244,0.945c0,0-0.13,0.042-0.375,0.12
					c-0.245,0.069-0.608,0.216-1.072,0.318c-0.461,0.11-1.023,0.245-1.667,0.399c-0.651,0.141-1.373,0.364-2.184,0.461
					c-0.81,0.12-1.689,0.251-2.62,0.391c-0.928,0.107-1.924,0.318-2.926,0.354c-2.011,0.128-4.156,0.224-6.3,0.31
					c-1.158,0.042-2.188-0.054-3.272-0.071c-1.065-0.031-2.114-0.09-3.128-0.14c-0.507-0.026-1.004-0.054-1.489-0.078
					c-0.49-0.06-0.968-0.118-1.432-0.174c-0.925-0.109-1.802-0.225-2.607-0.338c-0.401-0.056-0.786-0.108-1.152-0.162
					c-0.368-0.078-0.716-0.152-1.045-0.222c-0.651-0.141-1.22-0.263-1.687-0.364c-0.472-0.086-0.817-0.215-1.061-0.281
					c-0.244-0.071-0.372-0.107-0.372-0.107L232.652,173.146z"/>
			</g>
		</g>
		<g>
			<rect x="248.667" y="168.905" width="0.976" height="5.994"/>
		</g>
	</g>
	<g>
		<g>
			<g id="SVGID_1_">
				<path fill="#FFFFFF" d="M214.418,75.739c-16.936-1.205-14.134-28.145-32.713-19.821c-20.484,9.178-0.672,29.022-7.54,40.104
					c-2.082,5.514,8.262-3.861,21.511-10.671C208.925,78.542,220.248,76.478,214.418,75.739z"/>
			</g>
		</g>
		<g>
			<g>
				<g>
					<g>
						<defs>
							<path id="SVGID_2_" d="M214.418,75.739c-16.936-1.205-14.134-28.145-32.713-19.821c-20.484,9.178-0.672,29.022-7.54,40.104
								c-2.082,5.514,8.262-3.861,21.511-10.671C208.925,78.542,220.248,76.478,214.418,75.739z"/>
						</defs>
						<clipPath id="SVGID_4_">
							<use xlink:href="#SVGID_2_"  overflow="visible"/>
						</clipPath>
						<g clip-path="url(#SVGID_4_)">
							<path fill="#C2BDBD" d="M187.279,68.993c-7.719,3.87,5.242,16.271-4.784,28.313c12.542-6.007,27.813-15.017,29.613-15.62
								C195.514,82.825,194.996,65.12,187.279,68.993z"/>
						</g>
					</g>
				</g>
			</g>
		</g>
	</g>
	<g>
		<g>
			<g id="SVGID_3_">
				<path fill="#FFFFFF" d="M281.778,75.094c16.425,1.369,15.383-28.41,33.963-20.088c20.483,9.178,0.672,29.021,7.54,40.104
					c2.083,5.515-8.262-3.863-21.512-10.672C288.52,77.63,276.084,74.805,281.778,75.094z"/>
			</g>
		</g>
		<g>
			<g>
				<g>
					<g>
						<defs>
							<path id="SVGID_5_" d="M281.778,75.094c16.425,1.369,15.383-28.41,33.963-20.088c20.483,9.178,0.672,29.021,7.54,40.104
								c2.083,5.515-8.262-3.863-21.512-10.672C288.52,77.63,276.084,74.805,281.778,75.094z"/>
						</defs>
						<clipPath id="SVGID_6_">
							<use xlink:href="#SVGID_5_"  overflow="visible"/>
						</clipPath>
						<g clip-path="url(#SVGID_6_)">
							<path fill="#C2BDBD" d="M310.167,68.081c7.718,3.871-5.241,16.272,4.782,28.313c-12.543-6.006-27.813-15.017-29.615-15.62
								C301.931,81.912,302.45,64.211,310.167,68.081z"/>
						</g>
					</g>
				</g>
			</g>
		</g>
	</g>
	<g>
		<path fill="#FFFFFF" d="M150.611,128.658c0,0,29.143-55.591,98.543-55.591c69.401,0,97.971,55.591,97.971,55.591h2.88
			c0,0-26.068-57.363-100.264-57.363c-74.194,0-102.248,57.363-102.248,57.363H150.611z"/>
	</g>
	<g>
		<path fill="#FFFFFF" d="M207.43,145.592c-31.687,0-54.449-20.396-54.706-20.632l0.658-0.721
			c0.29,0.264,29.337,26.275,67.368,19.139l0.179,0.959C216.287,145.209,211.771,145.592,207.43,145.592z"/>
	</g>
	<g>
		<path fill="#FFFFFF" d="M292.095,145.592c-4.346,0-8.859-0.383-13.502-1.255l0.178-0.959
			c38.053,7.139,67.079-18.875,67.373-19.139l0.656,0.721C346.541,125.194,323.778,145.592,292.095,145.592z"/>
	</g>
</g>
</svg>
