<?xml version="1.0" encoding="utf-8"?>
<!-- Generator: Adobe Illustrator 16.0.0, SVG Export Plug-In . SVG Version: 6.00 Build 0)  -->
<!DOCTYPE svg PUBLIC "-//W3C//DTD SVG 1.1//EN" "http://www.w3.org/Graphics/SVG/1.1/DTD/svg11.dtd">
<svg version="1.1" id="Layer_1" xmlns="http://www.w3.org/2000/svg" xmlns:xlink="http://www.w3.org/1999/xlink" x="0px" y="0px"
	 width="500px" height="500px" viewBox="0 0 500 500" enable-background="new 0 0 500 500" xml:space="preserve">
<rect x="0.5" y="0.5" display="none" fill="#FFFFFF" stroke="#000000" width="500" height="500"/>
<g id="bounds" display="none">
	<rect x="90" y="10" display="inline" fill="none" stroke="#000000" stroke-width="0.993" width="320" height="159.9"/>
</g>
<g>
	<path fill="#DBDBDB" d="M145.495,168.3"/>
	<path opacity="0.9" fill="#09123B" d="M335.96,58.362C310.674,36.656,280.318,26.7,250.406,26.7
		c-29.913,0-60.268,9.957-85.554,31.662c-58.053,47.364-21.133,102.75-21.133,102.75l106.687-0.167l106.688,0.167
		C357.094,161.112,394.014,105.726,335.96,58.362z"/>
	<path fill="#DEDEDE" d="M339.975,149.727c12.169,0,17.811,1.222,17.811-26.267c0-40.342-8.04-51.59-8.04-51.59
		s25.135,13.111,25.135,51.859c0,38.748-10.568,44.571-34.905,44.571H160.839c-24.338,0-34.906-5.823-34.906-44.571
		c0-38.748,25.136-51.859,25.136-51.859s-8.04,11.248-8.04,51.59c0,27.489,5.641,26.267,17.811,26.267H339.975z"/>
	<path opacity="0.2" fill="#DEDEDE" d="M329.887,65.806l-0.185-0.154c-22.363-19.198-49.783-29.345-79.295-29.345
		s-56.931,10.147-79.295,29.345l-0.186,0.154c-8.949,7.301-17.877,14.897-17.877,24.285c0,9.387,5.021,10.541,11.709,10.541h85.648
		h85.648c6.688,0,11.709-1.153,11.709-10.541C347.765,80.703,338.837,73.107,329.887,65.806z"/>
	<path fill="#CCCCCC" d="M136.188,143.051c0,4.245-3.44,7.686-7.686,7.686h-15.878c-4.245,0-7.686-3.441-7.686-7.686v-36.809
		c0-4.245,3.44-7.686,7.686-7.686h15.878c4.245,0,7.686,3.441,7.686,7.686V143.051z"/>
	<circle fill="#E0BF63" cx="120.325" cy="115.691" r="9.851"/>
	<circle fill="#B5B5B5" cx="120.563" cy="136.691" r="7.3"/>
	<circle fill="#FFF171" cx="120.325" cy="115.691" r="5.151"/>
	<g>
		<polygon fill="#CCCCCC" points="118.825,102.801 119.347,52.809 121.304,52.809 121.825,102.801 		"/>
	</g>
	<circle fill="#CCCCCC" cx="120.325" cy="52.809" r="8.207"/>
	<ellipse opacity="0.2" fill="#FFFFFF" cx="120.563" cy="50.224" rx="4.914" ry="4.134"/>
</g>
</svg>
