<?xml version="1.0" encoding="utf-8"?>
<!-- Generator: Adobe Illustrator 16.0.0, SVG Export Plug-In . SVG Version: 6.00 Build 0)  -->
<!DOCTYPE svg PUBLIC "-//W3C//DTD SVG 1.1//EN" "http://www.w3.org/Graphics/SVG/1.1/DTD/svg11.dtd">
<svg version="1.1" id="content" xmlns="http://www.w3.org/2000/svg" xmlns:xlink="http://www.w3.org/1999/xlink" x="0px" y="0px"
	 width="500px" height="500px" viewBox="0 0 500 500" enable-background="new 0 0 500 500" xml:space="preserve">
<rect id="position" display="none" fill="none" stroke="#000000" width="500" height="500"/>
<g id="bounds" display="none">
	<rect x="50" y="129.9" display="inline" fill="none" stroke="#EAEAEA" stroke-miterlimit="10" width="400" height="400"/>
</g>
<g>
	<path fill="#6B6A6E" d="M322.5,301l28.2-41c1.7-2.4,1.3-5.6-0.9-7.2c-2.2-1.5-5.3-0.8-7,1.7L313.4,297.1
		C294.1,289.5,272.6,285.2,249.9,285.2s-44.1,4.2-63.5,11.899L157,254.5c-1.7-2.4-4.8-3.2-7-1.7s-2.6,4.7-0.9,7.2l28.3,41
		C132.5,321.9,101,361.6,97,408h305.9C398.9,361.6,367.4,321.9,322.5,301"/>
	<path fill="#FFFFFF" d="M186.1,365.6c-9.3,0-16.9-7.6-16.9-16.898s7.6-16.9,16.9-16.9c9.3,0,16.9,7.602,16.9,16.9
		C203,358.1,195.4,365.6,186.1,365.6"/>
	<path fill="#FFFFFF" d="M313.9,365.6c-9.301,0-16.9-7.6-16.9-16.898s7.6-16.9,16.9-16.9c9.398,0,16.898,7.602,16.898,16.9
		C330.8,358.1,323.2,365.6,313.9,365.6"/>
</g>
<g>
	<path fill="#DBDBDB" d="M102.586,420.173"/>
	<path opacity="0.9" fill="#09123B" d="M370.951,265.268c-35.628-30.582-78.398-44.611-120.545-44.611
		c-42.147,0-84.917,14.029-120.546,44.611c-81.796,66.736-29.776,144.775-29.776,144.775l150.322-0.234l150.323,0.234
		C400.729,410.043,452.749,332.004,370.951,265.268z"/>
	<path fill="#DEDEDE" d="M376.608,394.002c17.146,0,25.095,1.723,25.095-37.009c0-56.842-11.328-72.689-11.328-72.689
		s35.415,18.472,35.415,73.068c0,54.595-14.892,62.801-49.182,62.801H124.205c-34.292,0-49.183-8.206-49.183-62.801
		c0-54.597,35.416-73.068,35.416-73.068S99.11,300.151,99.11,356.993c0,38.731,7.947,37.009,25.095,37.009H376.608z"/>
	<path opacity="0.2" fill="#DEDEDE" d="M362.395,275.757l-0.261-0.217c-31.51-27.051-70.145-41.348-111.727-41.348
		s-80.216,14.297-111.727,41.348l-0.262,0.217c-12.609,10.288-25.188,20.991-25.188,34.217c0,13.228,7.075,14.853,16.498,14.853
		h120.679h120.679c9.423,0,16.498-1.625,16.498-14.853C387.584,296.748,375.005,286.045,362.395,275.757z"/>
	<path fill="#CCCCCC" d="M89.472,384.596c0,5.981-4.848,10.83-10.829,10.83H56.271c-5.981,0-10.829-4.849-10.829-10.83v-51.863
		c0-5.98,4.848-10.829,10.829-10.829h22.372c5.981,0,10.829,4.849,10.829,10.829V384.596z"/>
	<circle fill="#E0BF63" cx="67.122" cy="346.046" r="13.879"/>
	<circle fill="#B5B5B5" cx="67.457" cy="375.635" r="10.285"/>
	<circle fill="#FFF171" cx="67.122" cy="346.046" r="7.258"/>
	<g>
		<polygon fill="#CCCCCC" points="65.621,327.883 66.143,257.444 68.1,257.444 68.621,327.883 		"/>
	</g>
	<circle fill="#CCCCCC" cx="67.122" cy="257.444" r="11.564"/>
	<ellipse opacity="0.2" fill="#FFFFFF" cx="67.457" cy="253.802" rx="6.923" ry="5.824"/>
</g>
</svg>
