<?xml version="1.0" encoding="utf-8"?>
<!-- Generator: Adobe Illustrator 18.0.0, SVG Export Plug-In . SVG Version: 6.00 Build 0)  -->
<!DOCTYPE svg PUBLIC "-//W3C//DTD SVG 1.1//EN" "http://www.w3.org/Graphics/SVG/1.1/DTD/svg11.dtd">
<svg version="1.1" id="content" xmlns="http://www.w3.org/2000/svg" xmlns:xlink="http://www.w3.org/1999/xlink" x="0px" y="0px"
	 width="500px" height="500px" viewBox="0 0 500 500" enable-background="new 0 0 500 500" xml:space="preserve">
<rect id="position" display="none" fill="none" stroke="#000000" width="500" height="500"/>
<g id="bounds" display="none">
	<rect x="50" y="129.9" display="inline" fill="none" stroke="#EAEAEA" stroke-miterlimit="10" width="400" height="400"/>
</g>
<g>
	<path fill="#C9C8CE" d="M322.5,301l28.2-41c1.7-2.4,1.3-5.6-0.9-7.2c-2.2-1.5-5.3-0.8-7,1.7l-29.4,42.6
		c-19.3-7.6-40.8-11.9-63.5-11.9s-44.1,4.2-63.5,11.9L157,254.5c-1.7-2.4-4.8-3.2-7-1.7s-2.6,4.7-0.9,7.2l28.3,41
		C132.5,321.9,101,361.6,97,408h305.9C398.9,361.6,367.4,321.9,322.5,301"/>
	<path fill="#FFFFFF" d="M186.1,365.6c-9.3,0-16.9-7.6-16.9-16.9s7.6-16.9,16.9-16.9c9.3,0,16.9,7.6,16.9,16.9
		C203,358.1,195.4,365.6,186.1,365.6"/>
	<path fill="#FFFFFF" d="M313.9,365.6c-9.3,0-16.9-7.6-16.9-16.9s7.6-16.9,16.9-16.9c9.4,0,16.9,7.6,16.9,16.9
		C330.8,358.1,323.2,365.6,313.9,365.6"/>
</g>
<g>
	<path fill="#4F3111" d="M154.1,335.3l-3,6.1l5.5-1.6l2.5,2.5l3-2l5.5,2l6.1-3l3.8,2.5l7.5-2l5.5,2.5l2.7-2l4.1,2.7l6.1-2l2.5,2
		l5.2-1.4l8.5,1.6l5.7-1.6l8.2,0.7l5.5-2l9.3,1.1l8.2-1.1l-0.3-19.1l-19.8-4.8l-33.5,0.7l-12.3-1.6l-6.1,0.7l-6.8,0.3
		c0,0-7.1-2.5-7.1-1.4c0,1.1-5.7,2-5.7,2l-5.5-1.1l-3.4,1.1l-4.4,2.5l2.5,5.2l-3.8,1.1l3,2.7l-2.5,3.4L154.1,335.3z"/>
	<path fill="#4F3111" d="M345.9,335.3l3,6.1l-5.5-1.6l-2.5,2.5l-3-2l-5.5,2l-6.1-3l-3.8,2.5l-7.9-0.7l-11.6,1.6l-7.1-1.6l-11.6,1.6
		l-6.1-2l-2.5,2l-5.2-1.4l-2,1.4l-4.8-1.1l-4.4,0.3h-1.4l-13.9-4.4l-1.4-19.1l16.9-2.2l24.6-0.3l13.4,0.7l12.3-1.6l6.1,0.7l6.4,0.5
		c0,0,7.1-2.5,7.1-1.4c0,1.1,5.7,2,5.7,2l5.5-1.1l3.4,1.1l4.4,2.5l-2.5,5.2l3.8,1.1l-3,2.7l2.5,3.4L345.9,335.3z"/>
</g>
</svg>
