<?xml version="1.0" encoding="utf-8"?>
<!-- Generator: Adobe Illustrator 18.0.0, SVG Export Plug-In . SVG Version: 6.00 Build 0)  -->
<!DOCTYPE svg PUBLIC "-//W3C//DTD SVG 1.1//EN" "http://www.w3.org/Graphics/SVG/1.1/DTD/svg11.dtd">
<svg version="1.1" id="Layer_1" xmlns="http://www.w3.org/2000/svg" xmlns:xlink="http://www.w3.org/1999/xlink" x="0px" y="0px"
	 width="500px" height="500px" viewBox="0 0 500 500" enable-background="new 0 0 500 500" xml:space="preserve">
<rect x="0.5" y="0.5" display="none" fill="#FFFFFF" stroke="#000000" width="500" height="500"/>
<g id="bounds" display="none">
	<rect x="90" y="10" display="inline" fill="none" stroke="#000000" stroke-width="0.993" width="320" height="159.9"/>
</g>
<g>
	<circle fill="#B3957D" cx="251" cy="156.7" r="14.8"/>
	<path fill="#D1AD88" d="M265.9,125.6c-6.3,0-12,2.4-15.9,6.1c-3.9-3.8-9.6-6.1-15.9-6.1c-11.7,0-21.2,8.1-21.2,18
		c0,10,9.5,18,21.2,18c6.3,0,10.9-6.1,15.9-6.1s9.6,6.1,15.9,6.1c11.7,0,21.2-8.1,21.2-18C287.1,133.7,277.6,125.6,265.9,125.6z"/>
	<path d="M262.2,119.8h-22.4c-1.7,0-3.1,1.4-3.1,3.1v5.7c0,1.7,1.4,3.1,3.1,3.1h2.2c1.7,0,3.1,1.4,3.1,3.1v1.3
		c0,1.7,1.4,3.1,3.1,3.1h5.7c1.7,0,3.1-1.4,3.1-3.1v-1.3c0-1.7,1.4-3.1,3.1-3.1h2.2c1.7,0,3.1-1.4,3.1-3.1v-5.7
		C265.3,121.1,263.9,119.8,262.2,119.8z"/>
</g>
<path fill="#D1AD88" d="M329.2,72.5c0.2-0.1,0.8-0.3,1-0.4c-0.9-4.6-1.2-7.7,0-7.9c0,0-11.4-0.9-23.4,21.9c2.3,1.2,4.5,2.5,6.7,3.9
	C317.5,80.1,323.3,75,329.2,72.5z"/>
<path fill="#D1AD88" d="M347.7,105.2c-1.8-1.4-3.5-3.1-5.1-5.1c-0.8,1.7-1.7,3.2-2.6,4.5c-1.2,1.8-2.6,3.1-3.9,4
	c1.5,1.7,2.9,3.4,4.3,5.1C342.8,111.7,345.4,108.9,347.7,105.2z"/>
<path fill="#B3957D" d="M329.2,72.5c-5.9,2.5-11.8,7.7-15.9,17.4c8.5,5.3,16.4,11.5,22.8,18.7c1.4-0.9,2.7-1.9,3.9-3.8
	c0.9-1.4,1.9-2.9,2.5-4.6C336,92.1,331.6,80,330,72.1C329.9,72.2,329.5,72.3,329.2,72.5z"/>
<path fill="#9B7A64" d="M360.1,84.5c-2.8-5.7-25.7-21.1-29.9-20.4c-1.1,0.2-1.2,3.4-0.3,8c1.6,7.9,6,19.8,12.6,28
	c1.6,1.9,3.3,3.7,5.1,5.1c3,2.3,6.3,3.7,9.9,3.8C365,109.2,363.6,91.5,360.1,84.5z"/>
<path fill="#D1AD88" d="M159.2,104.7c-5.7-8.5-10.9-24.6-3.9-29.8c5.5-1,9.9,0.8,9.9,0.8s-6.8-8.2,4.7-3.2
	c5.9,2.5,11.7,7.7,15.8,17.4c2.2-1.4,4.4-2.7,6.7-3.9C180.3,63.2,169,64.1,169,64.1c-4,3.3-24.5,14.5-23.9,20.4
	c1.6,15.8,8,24.5,13.8,29.3c1.4-1.8,2.8-3.5,4.3-5.1C161.8,107.8,160.4,106.5,159.2,104.7z"/>
<path fill="#B3957D" d="M169.9,72.5c-11.5-4.9-4.7,3.2-4.7,3.2s-4.4-1.8-9.9-0.8c-7,5.2-1.8,21.3,3.9,29.8c1.2,1.9,2.6,3.1,4,4
	c6.4-7.2,14-13.5,22.5-18.8C181.6,80.1,175.8,75,169.9,72.5z"/>
<path fill="#9B7A64" d="M168.9,64.1c4.3,0.7-6.9,44.4-27.4,44.9c-7.4,0.2-6-17.5-2.5-24.5C141.8,78.8,164.7,63.4,168.9,64.1z"/>
</svg>
