<?xml version="1.0" encoding="utf-8"?>
<!-- Generator: Adobe Illustrator 18.0.0, SVG Export Plug-In . SVG Version: 6.00 Build 0)  -->
<!DOCTYPE svg PUBLIC "-//W3C//DTD SVG 1.1//EN" "http://www.w3.org/Graphics/SVG/1.1/DTD/svg11.dtd">
<svg version="1.1" id="content" xmlns="http://www.w3.org/2000/svg" xmlns:xlink="http://www.w3.org/1999/xlink" x="0px" y="0px"
	 width="500px" height="500px" viewBox="0 0 500 500" enable-background="new 0 0 500 500" xml:space="preserve">
<rect id="position" display="none" fill="none" stroke="#000000" width="500" height="500"/>
<g id="bounds" display="none">
	<rect x="50" y="129.9" display="inline" fill="none" stroke="#EAEAEA" stroke-miterlimit="10" width="400" height="400"/>
</g>
<g>
	<path fill="#C9C8CE" d="M322.5,301l28.2-41c1.7-2.4,1.3-5.6-0.9-7.2c-2.2-1.5-5.3-0.8-7,1.7l-29.4,42.6
		c-19.3-7.6-40.8-11.9-63.5-11.9s-44.1,4.2-63.5,11.9L157,254.5c-1.7-2.4-4.8-3.2-7-1.7s-2.6,4.7-0.9,7.2l28.3,41
		C132.5,321.9,101,361.6,97,408h305.9C398.9,361.6,367.4,321.9,322.5,301"/>
	<path fill="#FFFFFF" d="M186.1,365.6c-9.3,0-16.9-7.6-16.9-16.9s7.6-16.9,16.9-16.9c9.3,0,16.9,7.6,16.9,16.9
		C203,358.1,195.4,365.6,186.1,365.6"/>
	<path fill="#FFFFFF" d="M313.9,365.6c-9.3,0-16.9-7.6-16.9-16.9s7.6-16.9,16.9-16.9c9.4,0,16.9,7.6,16.9,16.9
		C330.8,358.1,323.2,365.6,313.9,365.6"/>
</g>
<g>
	<g>
		<circle fill="#B3957D" cx="252" cy="403.4" r="20.7"/>
		<path fill="#D1AD88" d="M272.8,359.9c-8.8,0-16.8,3.4-22.2,8.5c-5.5-5.3-13.4-8.5-22.2-8.5c-16.4,0-29.6,11.3-29.6,25.2
			c0,14,13.3,25.2,29.6,25.2c8.8,0,15.2-8.5,22.2-8.5s13.4,8.5,22.2,8.5c16.4,0,29.6-11.3,29.6-25.2
			C302.4,371.2,289.1,359.9,272.8,359.9z"/>
		<path d="M267.6,351.8h-31.3c-2.4,0-4.3,2-4.3,4.3v8c0,2.4,2,4.3,4.3,4.3h3.1c2.4,0,4.3,2,4.3,4.3v1.8c0,2.4,2,4.3,4.3,4.3h8
			c2.4,0,4.3-2,4.3-4.3v-1.8c0-2.4,2-4.3,4.3-4.3h3.1c2.4,0,4.3-2,4.3-4.3v-8C271.9,353.6,270,351.8,267.6,351.8z"/>
	</g>
	<path fill="#D1AD88" d="M361.2,285.7c0.3-0.1,1.1-0.5,1.4-0.6c-1.3-6.4-1.7-10.7,0-11c0,0-15.9-1.3-32.7,30.6
		c3.2,1.7,6.3,3.5,9.4,5.5C344.9,296.3,353,289.2,361.2,285.7z"/>
	<path fill="#D1AD88" d="M387.1,331.4c-2.5-2-4.9-4.3-7.1-7.1c-1.1,2.4-2.4,4.5-3.6,6.3c-1.7,2.5-3.6,4.3-5.5,5.6
		c2.1,2.4,4.1,4.8,6,7.1C380.3,340.5,383.9,336.6,387.1,331.4z"/>
	<path fill="#B3957D" d="M361.2,285.7c-8.2,3.5-16.4,10.8-22.2,24.3c11.9,7.4,22.9,16.1,31.8,26.1c2-1.3,3.8-2.7,5.5-5.4
		c1.3-2,2.6-4,3.5-6.4c-9.2-11.3-15.3-28.2-17.5-39.2C362.3,285.3,361.7,285.4,361.2,285.7z"/>
	<path fill="#9B7A64" d="M404.4,302.5c-3.9-8-35.9-29.5-41.8-28.5c-1.5,0.3-1.7,4.8-0.4,11.2c2.2,11,8.4,27.7,17.6,39.1
		c2.2,2.7,4.6,5.2,7.1,7.1c4.2,3.2,8.8,5.2,13.8,5.3C411.3,337,409.3,312.3,404.4,302.5z"/>
	<path fill="#D1AD88" d="M123.7,330.7c-8-11.9-15.2-34.4-5.5-41.6c7.7-1.4,13.8,1.1,13.8,1.1s-9.5-11.5,6.6-4.5
		c8.2,3.5,16.4,10.8,22.1,24.3c3.1-2,6.1-3.8,9.4-5.5c-16.9-31.9-32.7-30.6-32.7-30.6c-5.6,4.6-34.2,20.3-33.4,28.5
		c2.2,22.1,11.2,34.2,19.3,40.9c2-2.5,3.9-4.9,6-7.1C127.3,335,125.3,333.2,123.7,330.7z"/>
	<path fill="#B3957D" d="M138.6,285.7c-16.1-6.8-6.6,4.5-6.6,4.5s-6.1-2.5-13.8-1.1c-9.8,7.3-2.5,29.8,5.5,41.6
		c1.7,2.7,3.6,4.3,5.6,5.6c8.9-10.1,19.6-18.9,31.4-26.3C155,296.3,146.9,289.2,138.6,285.7z"/>
	<path fill="#9B7A64" d="M137.2,274c6,1-9.6,62.1-38.3,62.8c-10.3,0.3-8.4-24.5-3.5-34.2C99.3,294.5,131.3,273,137.2,274z"/>
</g>
</svg>
