<?xml version="1.0" encoding="utf-8"?>
<!-- Generator: Adobe Illustrator 18.0.0, SVG Export Plug-In . SVG Version: 6.00 Build 0)  -->
<!DOCTYPE svg PUBLIC "-//W3C//DTD SVG 1.1//EN" "http://www.w3.org/Graphics/SVG/1.1/DTD/svg11.dtd">
<svg version="1.1" id="Layer_1" xmlns="http://www.w3.org/2000/svg" xmlns:xlink="http://www.w3.org/1999/xlink" x="0px" y="0px"
	 width="500px" height="500px" viewBox="0 0 500 500" enable-background="new 0 0 500 500" xml:space="preserve">
<rect x="0.5" y="0.5" display="none" fill="#FFFFFF" stroke="#000000" width="500" height="500"/>
<g id="bounds" display="none">
	<rect x="90" y="10" display="inline" fill="none" stroke="#000000" stroke-width="0.993" width="320" height="159.9"/>
</g>
<g>
	<path d="M224.1,149.7h-40.2c-1.6,0-2.9-1.3-2.9-2.9v-10.9c0-1.6,1.3-2.9,2.9-2.9h40.2c1.6,0,2.9,1.3,2.9,2.9v10.9
		C227,148.4,225.7,149.7,224.1,149.7z"/>
	<path d="M315.3,149.7H275c-1.6,0-2.9-1.3-2.9-2.9v-10.9c0-1.6,1.3-2.9,2.9-2.9h40.2c1.6,0,2.9,1.3,2.9,2.9v10.9
		C318.2,148.4,316.9,149.7,315.3,149.7z"/>
</g>
</svg>
