<?xml version="1.0" encoding="utf-8"?>
<!-- Generator: Adobe Illustrator 16.0.0, SVG Export Plug-In . SVG Version: 6.00 Build 0)  -->
<!DOCTYPE svg PUBLIC "-//W3C//DTD SVG 1.1//EN" "http://www.w3.org/Graphics/SVG/1.1/DTD/svg11.dtd">
<svg version="1.1" id="content" xmlns="http://www.w3.org/2000/svg" xmlns:xlink="http://www.w3.org/1999/xlink" x="0px" y="0px"
	 width="500px" height="500px" viewBox="0 0 500 500" enable-background="new 0 0 500 500" xml:space="preserve">
<rect id="position" display="none" fill="none" stroke="#000000" width="500" height="500"/>
<g id="bounds" display="none">
	<rect x="50" y="129.9" display="inline" fill="none" stroke="#EAEAEA" stroke-miterlimit="10" width="400" height="400"/>
</g>
<g>
	<path fill="#C9C8CE" d="M322.5,301l28.2-41c1.7-2.4,1.3-5.6-0.9-7.2c-2.2-1.5-5.3-0.8-7,1.7L313.4,297.1
		C294.1,289.5,272.6,285.2,249.9,285.2s-44.1,4.2-63.5,11.899L157,254.5c-1.7-2.4-4.8-3.2-7-1.7s-2.6,4.7-0.9,7.2l28.3,41
		C132.5,321.9,101,361.6,97,408h305.9C398.9,361.6,367.4,321.9,322.5,301"/>
	<path fill="#FFFFFF" d="M186.1,365.6c-9.3,0-16.9-7.6-16.9-16.899s7.6-16.9,16.9-16.9c9.3,0,16.9,7.601,16.9,16.9
		C203,358.1,195.4,365.6,186.1,365.6"/>
	<path fill="#FFFFFF" d="M313.9,365.6c-9.301,0-16.9-7.6-16.9-16.899s7.6-16.9,16.9-16.9c9.399,0,16.899,7.601,16.899,16.9
		C330.8,358.1,323.2,365.6,313.9,365.6"/>
</g>
<g>
	<path opacity="0.6" fill="#B37917" d="M249.429,275.563c0,0-138.581,17.231-134.341,100.773c0,0,12.404,18.296,42.788,18.296
		s44.932-31.313,91.553-31.313c46.623-0.001,61.17,31.313,91.555,31.313c30.384,0,40.383-17.961,40.383-17.961
		C375.938,289.62,249.429,275.563,249.429,275.563z"/>
	<path opacity="0.1" fill="#FFFF00" d="M249.397,329.453c40.713,0,66.711-8.558,82.395-16.912
		c-38.176-46.329-82.364-46.403-82.364-46.403s-44.204,0.074-82.382,46.426C182.732,320.909,208.72,329.453,249.397,329.453z"/>
	<path fill="#912E3D" d="M249.391,266.138c-53.134,0.758-88.5,15.803-111.09,37.388c-25.644,24.506-34.816,50.409-34.817,50.409
		c0,0,2.149,1.886,9.026,17.941c53.369-90.289,136.881-82.034,136.881-82.034s83.512-8.255,136.879,82.034
		c6.879-16.056,9.027-17.941,9.027-17.941s-8.676-24.501-32.744-48.389C340.076,283.236,304.177,266.918,249.391,266.138z"/>
	<path opacity="0.2" fill="#911F2F" d="M382.842,381.644c-4.165-10.818-14.232-31.671-34.871-49.774
		c-25.338-22.225-58.505-33.491-98.58-33.491c-40.076,0-73.243,11.267-98.58,33.491c-20.641,18.104-30.708,38.956-34.871,49.774
		l-6.56-2.524c4.396-11.422,15.022-33.435,36.796-52.532c26.657-23.383,61.384-35.237,103.215-35.237s76.558,11.854,103.215,35.237
		c21.771,19.096,32.398,41.11,36.795,52.532L382.842,381.644z"/>
	<path fill="none" stroke="#BAA94E" stroke-width="5" stroke-miterlimit="10" d="M386.121,375.14
		c-8.616-22.386-41.362-85.52-136.73-85.52s-128.115,63.134-136.73,85.52"/>
	
		<ellipse transform="matrix(0.9943 0.1063 -0.1063 0.9943 39.5707 -8.6867)" fill="#CCBA55" cx="101.25" cy="366.753" rx="18.047" ry="42.449"/>
	
		<ellipse transform="matrix(0.9943 0.1063 -0.1063 0.9943 39.476 -8.1567)" fill="#912E3D" cx="96.25" cy="366.219" rx="14.234" ry="33.479"/>
	
		<ellipse transform="matrix(-0.9943 0.1063 -0.1063 -0.9943 831.8066 689.1573)" fill="#CCBA55" cx="397.532" cy="366.753" rx="18.047" ry="42.449"/>
	
		<ellipse transform="matrix(-0.9943 0.1063 -0.1063 -0.9943 841.7113 687.5726)" fill="#912E3D" cx="402.531" cy="366.219" rx="14.234" ry="33.479"/>
	<path fill="#821B2A" d="M366.298,309.406c-22.154-23.589-58.962-47.899-116.907-48.724c-57.943,0.824-94.75,25.129-116.904,48.718
		c0.212-0.17,47.292-37.62,116.902-37.62C319.093,271.78,366.211,309.335,366.298,309.406z"/>
</g>
</svg>
