<?xml version="1.0" encoding="utf-8"?>
<!-- Generator: Adobe Illustrator 16.0.0, SVG Export Plug-In . SVG Version: 6.00 Build 0)  -->
<!DOCTYPE svg PUBLIC "-//W3C//DTD SVG 1.1//EN" "http://www.w3.org/Graphics/SVG/1.1/DTD/svg11.dtd">
<svg version="1.1" id="Layer_1" xmlns="http://www.w3.org/2000/svg" xmlns:xlink="http://www.w3.org/1999/xlink" x="0px" y="0px"
	 width="500px" height="500px" viewBox="0 0 500 500" enable-background="new 0 0 500 500" xml:space="preserve">
<rect x="0.5" y="0.5" display="none" fill="#FFFFFF" stroke="#000000" width="500" height="500"/>
<g id="bounds" display="none">
	<rect x="90" y="10" display="inline" fill="none" stroke="#000000" stroke-width="0.993" width="320" height="159.9"/>
</g>
<g>
	<path opacity="0.6" fill="#B37917" d="M250.026,65.419c0,0-98.588,12.259-95.571,71.692c0,0,8.824,13.015,30.439,13.015
		s31.965-22.276,65.132-22.276c33.168,0,43.517,22.276,65.133,22.276c21.615,0,28.729-12.776,28.729-12.776
		C340.026,75.42,250.026,65.419,250.026,65.419z"/>
	<path opacity="0.1" fill="#FFFF00" d="M250.004,103.758c28.964,0,47.459-6.089,58.616-12.032
		c-27.158-32.958-58.595-33.012-58.595-33.012s-31.447,0.054-58.607,33.027C202.578,97.68,221.065,103.758,250.004,103.758z"/>
	<path fill="#912E3D" d="M249.999,58.714c-37.8,0.539-62.96,11.242-79.03,26.599c-18.243,17.434-24.769,35.861-24.77,35.861
		c0,0,1.529,1.342,6.422,12.763c37.967-64.231,97.378-58.358,97.378-58.358s59.411-5.873,97.377,58.358
		c4.894-11.421,6.422-12.763,6.422-12.763s-6.172-17.431-23.294-34.425C314.514,70.878,288.975,59.269,249.999,58.714z"/>
	<path opacity="0.2" fill="#911F2F" d="M344.938,140.887c-2.963-7.696-10.125-22.531-24.808-35.41
		c-18.025-15.811-41.621-23.827-70.131-23.827c-28.51,0-52.105,8.017-70.131,23.827c-14.684,12.879-21.846,27.713-24.808,35.41
		l-4.666-1.796c3.127-8.126,10.687-23.786,26.176-37.373c18.964-16.634,43.669-25.068,73.428-25.068s54.464,8.434,73.428,25.068
		c15.488,13.585,23.049,29.246,26.177,37.373L344.938,140.887z"/>
	<path fill="none" stroke="#BAA94E" stroke-width="5" stroke-miterlimit="10" d="M347.271,136.259
		c-6.13-15.925-29.426-60.839-97.271-60.839s-91.143,44.914-97.271,60.839"/>
	
		<ellipse transform="matrix(0.9943 0.1063 -0.1063 0.9943 14.6692 -14.6335)" fill="#CCBA55" cx="144.61" cy="130.293" rx="12.839" ry="30.199"/>
	
		<ellipse transform="matrix(0.9943 0.1063 -0.1063 0.9943 14.6082 -14.2573)" fill="#912E3D" cx="141.054" cy="129.913" rx="10.127" ry="23.818"/>
	
		<ellipse transform="matrix(-0.9943 0.1063 -0.1063 -0.9943 722.6128 222.0706)" fill="#CCBA55" cx="355.388" cy="130.293" rx="12.839" ry="30.199"/>
	
		<ellipse transform="matrix(-0.9943 0.1063 -0.1063 -0.9943 729.6642 220.9367)" fill="#912E3D" cx="358.944" cy="129.913" rx="10.127" ry="23.818"/>
	<path fill="#821B2A" d="M333.168,89.496c-15.761-16.781-41.946-34.075-83.169-34.662c-41.222,0.587-67.406,17.878-83.167,34.658
		c0.151-0.12,33.645-26.764,83.166-26.764C299.586,62.728,333.106,89.446,333.168,89.496z"/>
</g>
</svg>
