<?xml version="1.0" encoding="utf-8"?>
<!-- Generator: Adobe Illustrator 14.0.0, SVG Export Plug-In . SVG Version: 6.00 Build 43363)  -->
<!DOCTYPE svg PUBLIC "-//W3C//DTD SVG 1.1//EN" "http://www.w3.org/Graphics/SVG/1.1/DTD/svg11.dtd">
<svg version="1.1" id="content" xmlns="http://www.w3.org/2000/svg" xmlns:xlink="http://www.w3.org/1999/xlink" x="0px" y="0px"
	 width="500px" height="500px" viewBox="0 0 500 500" enable-background="new 0 0 500 500" xml:space="preserve">
<rect id="position" x="0" y="0" display="none" fill="none" stroke="#000000" width="500" height="500"/>
<g>
	<path fill="#A87900" d="M199.596,414.073c0,0,3.547-17.07,19.386-24.851c-4.249,7.849-0.94,25.53-0.94,25.53L199.596,414.073z"/>
	<path fill="#C99000" d="M213.847,423.756c0,0-1.313-30.525,28.638-38.003c-9.178,9.975-10.729,23.941-10.357,32.648
		C214.56,426.331,213.847,423.756,213.847,423.756z"/>
	<path fill="#C2A100" d="M215.257,408.573c0,0-3.802-13.401-17.939-22.399c5.631,7.881,9.904,22.802,9.685,22.794
		c-0.219-0.008-20.286-24.646-44.272-30.136c19.327,18.909,23.114,31.485,23.114,31.485l19.141,17.721l12.83-7.054
		C217.812,420.985,217.708,416.954,215.257,408.573z"/>
	<path fill="#D9B400" d="M208.529,429.587c0,0-2.525-16.437-20.066-31.108c5.838,11.458,7.141,22.286,7.141,22.286L208.529,429.587z
		"/>
	<path fill="#6E2900" d="M226.052,443.763c0,0,3.456,18.372-0.438,33.775c-7.29,0.271-7.29,0.271-7.29,0.271l-5.525-25.64
		L226.052,443.763z"/>
	<path fill="#A87900" d="M211.094,425.698c-0.275-0.255,4.752-16.833,15.978-21.897c-3.271,6.667-5.077,17.966-5.077,17.966
		L211.094,425.698z"/>
	<path fill="#6E2900" d="M234.217,411.466l-28.13,13.974l-22.792-17.025c0,0,21.852,37.673,22.04,37.429
		S228.981,433.62,234.217,411.466z"/>
	<path fill="#D1D1D1" d="M235.168,403.745c0,0-8.738,30.073-29.709,39.058c-13.748-17.27-22.505-40.982-22.505-40.982
		s-1.197-2.989-4.791,0.618s-4.051,4.146,0.343,14.453c4.395,10.307,3.084,21.904,3.084,21.904c-0.124,1.685,0.022,2.814,2.14,4.77
		c2.117,1.954-5.563,28.751-30.997,26.501c-6.593-0.994-9.302,4.598-4.328,10.535c-0.935,3.28-0.935,3.28-0.935,3.28
		s18.588,9.815,44.205,0.315c8.236-2.886,13.221-12.521,21.991-11.26c0.708,12.087,0.009,13.821,0.009,13.821
		s7.991,0.67,12.955-1.648c0.24-11.625,0.636-19.678,0.636-19.678s-1.152,10.902-3.214,10.827
		c-2.062-0.076-7.264-9.962-9.232-19.291c-1.27-6.301,15.518-8.686,17.417-17.809c-0.29-9.08,2.463-22.675,5.557-30.253
		C239.415,405.591,237.828,404.531,235.168,403.745z"/>
	<path fill="#6E2900" d="M156.665,470.178c16.606-0.469,25.689-14.883,26.647-22.188c3.523,3.369,10.773,8.166,21.519,11.521
		C204.831,459.512,179.466,485.331,156.665,470.178z"/>
	<circle fill="#943800" cx="184.861" cy="468.187" r="1.48"/>
	<circle fill="#943800" cx="185.921" cy="457.247" r="1.48"/>
	<circle fill="#943800" cx="178.007" cy="463.5" r="1.48"/>
	<circle fill="#943800" cx="190.75" cy="460.04" r="1.48"/>
	<path fill="#943800" d="M174.691,470.776c0.376-0.726,1.271-1.009,1.995-0.634c0.729,0.378,1.01,1.271,0.634,1.996
		c-0.377,0.728-1.27,1.01-1.996,0.633C174.599,472.394,174.315,471.503,174.691,470.776z"/>
	<circle fill="#A33F00" cx="186.415" cy="462.523" r="1.48"/>
	<path fill="#A33F00" d="M178.095,467.989c0.376-0.727,1.27-1.011,1.995-0.634c0.728,0.375,1.009,1.271,0.633,1.998
		c-0.376,0.724-1.27,1.009-1.996,0.631C178.001,469.609,177.719,468.715,178.095,467.989z"/>
	<circle fill="#A33F00" cx="181.699" cy="463.834" r="1.022"/>
	<circle fill="#A33F00" cx="191.421" cy="464.427" r="1.023"/>
	<circle fill="#A33F00" cx="171.686" cy="469.668" r="1.022"/>
	<path fill="#C74C00" d="M180.823,459.309c0.273-0.528,0.928-0.737,1.46-0.461c0.528,0.274,0.737,0.927,0.462,1.458
		c-0.275,0.532-0.928,0.734-1.459,0.459C180.757,460.491,180.548,459.84,180.823,459.309z"/>
	<circle fill="#C74C00" cx="175.26" cy="467.394" r="1.083"/>
	<path fill="#6E2900" d="M204.48,454.475c0,0-9.325-19.528-21.008-33.133c1.256,10.587,1.418,19.564,1.418,19.564
		s2.988,1.594,2.085,6.005C194.364,451.961,204.48,454.475,204.48,454.475z"/>
	<path fill="#BFBFBF" d="M191.675,484.198c-25.617,9.5-44.205-0.315-44.205-0.315s0.002-0.007,0.895-3.142
		c26.486,10.265,43.993,1.097,49.224-3.937c7.063-6.796,15.862-6.621,15.862-6.621l0.217,2.755
		C204.894,471.677,199.911,481.313,191.675,484.198z"/>
	<path fill="#BFBFBF" d="M213.675,486.76c0,0,0.668-1.662,0.037-13.019c2.068,1.765,2.261,7.451,3.702,9.356
		c3.29,1.8,7.165,0.176,9.285-1.03c-0.025,0.987-0.048,1.994-0.069,3.043C221.666,487.43,213.675,486.76,213.675,486.76z"/>
</g>
</svg>
