<?xml version="1.0" encoding="utf-8"?>
<!-- Generator: Adobe Illustrator 14.0.0, SVG Export Plug-In . SVG Version: 6.00 Build 43363)  -->
<!DOCTYPE svg PUBLIC "-//W3C//DTD SVG 1.1//EN" "http://www.w3.org/Graphics/SVG/1.1/DTD/svg11.dtd">
<svg version="1.1" id="content" xmlns="http://www.w3.org/2000/svg" xmlns:xlink="http://www.w3.org/1999/xlink" x="0px" y="0px"
	 width="500px" height="500px" viewBox="0 0 500 500" enable-background="new 0 0 500 500" xml:space="preserve">
<rect id="position" x="0" y="0" display="none" fill="none" stroke="#000000" width="500" height="500"/>
<g>
	<path fill="#8A6E53" d="M183.2,438.216l-0.888-17.227l0,0c-17.701,9.263-9.729,38.649-9.729,38.649h34.257v-21.423H183.2z"/>
	<path fill="#8A6E53" d="M229.848,438.216l0.888-17.227l0,0c17.701,9.263,9.729,38.649,9.729,38.649h-34.257v-21.423H229.848z"/>
	<path fill="#69543F" d="M179.108,436.079c0,0-5.194,2.093-5.194,16.42c9.826,0,10.102,0,10.102,0v-15.815L179.108,436.079z"/>
	<path fill="#69543F" d="M234.204,436.079c0,0,5.194,2.093,5.194,16.42c-9.825,0-10.102,0-10.102,0v-15.815L234.204,436.079z"/>
	<path fill="#917456" d="M241.4,466.55c-1.479,11.849-19.99,14.156-34.884,14.156c-14.608,0-32.668-2.875-34.747-14.156v-6.911
		H241.4V466.55z"/>
	<path fill="#A88663" d="M237.437,447.13c-13.782-23.396-30.92-23.025-30.92-23.025s-17.138-0.37-30.92,23.025
		c-13.781,23.395,11.598,27.867,30.92,27.867C225.841,474.997,251.218,470.525,237.437,447.13z"/>
	<path fill="#BA946E" d="M207.239,447.466c18.419,0,27.118,6.148,34.161,10.255c-0.26-3.008-1.557-6.505-3.963-10.591
		c-3.984-6.765-8.248-11.533-12.3-14.907l-18.186-1.379c0-0.044,0-0.066,0-0.066l-0.435,0.033l-0.435-0.033c0,0,0,0.022,0,0.066
		l-18.187,1.379c-4.051,3.374-8.314,8.143-12.299,14.907c-2.406,4.086-3.597,7.583-3.856,10.591
		C178.784,453.615,191.585,447.466,207.239,447.466z"/>
	<path fill="#F4E2D3" d="M206.517,419.803c-6.834,0-21.605,2.562-27.409,16.276c0,3.627,0,5.674,0,5.674
		c0.001-0.001,7.594-10.942,27.409-10.942s27.409,10.942,27.409,10.942s0-2.047,0-5.674
		C228.123,422.365,213.351,419.803,206.517,419.803z"/>
	<path fill="#FFF4EB" d="M206.517,419.803c-6.834,0-21.605,2.562-27.409,16.276c0,0.995,0,1.858,0,2.605
		c3.351-4.152,12.555-13.515,27.461-13.515c14.76,0,23.926,9.179,27.357,13.389c0-0.718,0-1.543,0-2.479
		C228.123,422.365,213.351,419.803,206.517,419.803z"/>
</g>
</svg>
