<?xml version="1.0" encoding="utf-8"?>
<!-- Generator: Adobe Illustrator 14.0.0, SVG Export Plug-In . SVG Version: 6.00 Build 43363)  -->
<!DOCTYPE svg PUBLIC "-//W3C//DTD SVG 1.1//EN" "http://www.w3.org/Graphics/SVG/1.1/DTD/svg11.dtd">
<svg version="1.1" id="content" xmlns="http://www.w3.org/2000/svg" xmlns:xlink="http://www.w3.org/1999/xlink" x="0px" y="0px"
	 width="500px" height="500px" viewBox="0 0 500 500" enable-background="new 0 0 500 500" xml:space="preserve">
<g id="shoes">
	<path fill="#CC3030" d="M123.25,466.743h109.527v-31.729c0,0-6.729,0-58.135,0C123.25,435.013,123.25,442.356,123.25,466.743z"/>
	<path fill="#C10606" d="M125.961,445.99c-2.71,4.859-3.756,11.104-3.171,20.753h68.015c0-31.548,41.974-23.774,41.974-23.774
		V424.22h-52.587C173.332,453.666,127.464,456.228,125.961,445.99z"/>
	<path fill="#FFFFFF" d="M220.683,454.663c0-2.451-1.978-4.435-4.413-4.435c-2.457,0-4.441,1.98-4.441,4.435
		c0,2.446,1.985,4.433,4.441,4.433C218.706,459.095,220.683,457.109,220.683,454.663z"/>
	<path fill="#FFFFFF" d="M172.211,435.018l4.591,7.074c0.292,0.45,0.782,0.694,1.281,0.694c0.285,0,0.572-0.078,0.829-0.246
		c0.707-0.457,0.908-1.402,0.449-2.108l-3.709-5.717C174.6,434.429,173.198,434.683,172.211,435.018z"/>
	<path fill="#FFFFFF" d="M168.071,442.31c0.148,0.723,0.784,1.219,1.493,1.219c0.103,0,0.205-0.011,0.31-0.031
		c0.825-0.17,1.356-0.978,1.187-1.802l-1.369-6.653c-1.155-0.699-2.076-0.59-3.104,0.044L168.071,442.31z"/>
	<path fill="#FFFFFF" d="M162.163,443.629c0.842,0,1.524-0.684,1.524-1.525v-6.953c-0.917-0.677-2.429-0.589-3.051,0.098v6.855
		C160.638,442.945,161.321,443.629,162.163,443.629z"/>
	<path fill="#FFFFFF" d="M185.69,434.317l-7.222-4.858c-0.779,0.317-1.563,1.66-1.391,2.74l6.91,4.648
		c0.261,0.177,0.557,0.261,0.85,0.261c0.491,0,0.973-0.236,1.267-0.675C186.574,435.735,186.389,434.788,185.69,434.317z"/>
	<path fill="#FFFFFF" d="M155.677,443.629c0.842,0,1.525-0.684,1.525-1.525v-6.697c-0.808-0.56-2.429-0.473-3.052,0.186v6.514
		C154.152,442.945,154.834,443.629,155.677,443.629z"/>
	<rect x="122.79" y="466.743" fill="#FFFFFF" width="109.988" height="6.591"/>
	<rect x="122.79" y="473.334" fill="#C10606" width="109.988" height="2.413"/>
</g>
<rect id="position" x="0" y="0" display="none" fill="none" stroke="#000000" width="500" height="500"/>
</svg>
