<?xml version="1.0" encoding="utf-8"?>
<!-- Generator: Adobe Illustrator 18.0.0, SVG Export Plug-In . SVG Version: 6.00 Build 0)  -->
<!DOCTYPE svg PUBLIC "-//W3C//DTD SVG 1.1//EN" "http://www.w3.org/Graphics/SVG/1.1/DTD/svg11.dtd">
<svg version="1.1" id="content" xmlns="http://www.w3.org/2000/svg" xmlns:xlink="http://www.w3.org/1999/xlink" x="0px" y="0px"
	 width="500px" height="500px" viewBox="0 0 500 500" enable-background="new 0 0 500 500" xml:space="preserve">
<rect id="position" display="none" fill="none" stroke="#000000" width="500" height="500"/>
<g id="bounds" display="none">
	<rect x="0.2" y="80.2" display="inline" fill="none" stroke="#EAEAEA" stroke-miterlimit="10" width="499.5" height="499.5"/>
</g>
<g id="shoes">
	<path fill="#D9D9D9" d="M266.9,302.3h109.3v177.9H119.1v-34.3c0,0,17.6-47.3,96.4-47.3c37.1,0,51.4-38,51.4-76.9
		C266.9,313.9,266.9,302.3,266.9,302.3z"/>
	<polygon fill="#AFADAB" points="325.2,458.9 325.2,328.7 376.2,328.7 376.2,460.9 	"/>
	<path fill="#C10606" d="M380.9,334.6c0,1.1-0.9,2-2.1,2H261.1c-1.2,0-2.1-0.9-2.1-2v-30.3c0-1.1,0.9-2,2.1-2h117.7
		c1.2,0,2.1,0.9,2.1,2V334.6z"/>
	<path fill="#C10606" d="M376.2,466.9v-31.3c-62,4.2-101-34.6-120.5-61.9c-7.1,13-17.8,22.2-32.9,24.4
		c-16.8,30.5-63.4,32.9-92.4,31.1c-8.4,9.1-11.3,16.7-11.3,16.7v34.3H171c0,0,43.5-18.2,98.2-47.3
		C300,467.9,347.5,466.8,376.2,466.9z"/>
	<path fill="#8D1010" d="M376.2,478.2c0,1.1-0.9,2-2,2H121.1c-1.1,0-2-0.9-2-2v-17.3c0-1.1,0.9-2,2-2h253.1c1.1,0,2,0.9,2,2
		L376.2,478.2L376.2,478.2z"/>
	<path fill="#332D27" d="M233.8,417.5c0.4,0.9-0.1,2-1.1,2.4l-7,3.1c-1,0.4-2.2,0.1-2.6-0.8l-9.3-21.4c-0.4-0.9,0.1-2,1.1-2.4l7-3.1
		c1-0.4,2.2-0.1,2.5,0.8L233.8,417.5z"/>
	<path fill="#332D27" d="M207.4,420.5c0.1,0.9-0.6,1.7-1.7,1.9l-7.6,1.1c-1.1,0.2-2.1-0.4-2.2-1.3l-3.2-21.1
		c-0.1-0.9,0.6-1.7,1.7-1.9l7.6-1.1c1.1-0.2,2.1,0.4,2.2,1.3L207.4,420.5z"/>
	<path fill="#332D27" d="M255,400.9c0.6,0.6,0.4,1.7-0.4,2.5l-5.5,5.3c-0.8,0.8-1.9,0.9-2.5,0.3L233,394.8c-0.6-0.6-0.4-1.7,0.4-2.5
		l5.5-5.3c0.8-0.8,1.9-0.9,2.5-0.3L255,400.9z"/>
	<path fill="#332D27" d="M273.3,380.1c0.8,0.5,1,1.7,0.4,2.6l-4,6.6c-0.6,0.9-1.7,1.3-2.5,0.8l-18.9-11.6c-0.8-0.5-1-1.7-0.4-2.6
		l4-6.6c0.6-0.9,1.7-1.3,2.5-0.8L273.3,380.1z"/>
	<path fill="#332D27" d="M281,354.8c0.9,0.3,1.3,1.3,0.9,2.4l-2.3,7.3c-0.3,1.1-1.3,1.7-2.2,1.4l-20.2-6.4c-0.9-0.3-1.3-1.3-0.9-2.4
		l2.3-7.3c0.3-1.1,1.3-1.7,2.2-1.4L281,354.8z"/>
	<path fill="#332D27" d="M281.8,330.1c0.8,0.1,1.5,1,1.4,2.1l-0.5,7.7c-0.1,1.1-0.8,2-1.7,1.9l-19.9-1.3c-0.8-0.1-1.5-1-1.4-2.1
		l0.5-7.7c0.1-1.1,0.8-2,1.7-1.9L281.8,330.1z"/>
	<circle fill="#332D27" cx="330.9" cy="379.3" r="30.9"/>
	<circle fill="#F5F5F5" cx="330.9" cy="379.3" r="15.1"/>
</g>
</svg>
