<?xml version="1.0" encoding="utf-8"?>
<!-- Generator: Adobe Illustrator 18.0.0, SVG Export Plug-In . SVG Version: 6.00 Build 0)  -->
<!DOCTYPE svg PUBLIC "-//W3C//DTD SVG 1.1//EN" "http://www.w3.org/Graphics/SVG/1.1/DTD/svg11.dtd">
<svg version="1.1" id="content" xmlns="http://www.w3.org/2000/svg" xmlns:xlink="http://www.w3.org/1999/xlink" x="0px" y="0px"
	 width="500px" height="500px" viewBox="0 0 500 500" enable-background="new 0 0 500 500" xml:space="preserve">
<rect id="position" display="none" fill="none" stroke="#000000" width="500" height="500"/>
<g id="bounds" display="none">
	<rect x="0.2" y="80.2" display="inline" fill="none" stroke="#EAEAEA" stroke-miterlimit="10" width="499.5" height="499.5"/>
</g>
<g id="chooser">
	<path fill="#5B9D5F" d="M382.1,375.9v94.9H121.8c0,0-15-59.4,23.5-59.4c38.4,0,116,12,110-36.4c-15.2-16.4-11.4-33.5-11.4-33.5
		c134.6,0,138.3,0,138.3,0V375.9L382.1,375.9L382.1,375.9z"/>
	<path fill="#ACD37F" d="M382.1,449.6v-73.5c0,0-70-21.4-70,32.4c0,37.7-99,29.3-135,29.3c-36,0-51.9-1.4-51.9,16.7
		c174.5,0,256.7,0,256.7,0L382.1,449.6z"/>
	<rect x="118.9" y="449.6" fill="#DEFFFF" width="263.2" height="21.4"/>
	<path fill="#387239" d="M283.4,388.9c0,2.4-2.2,4.4-4.9,4.4h-24.3c-2.7,0-4.9-2-4.9-4.4l0,0c0-2.4,2.2-4.4,4.9-4.4h24.3
		C281.2,384.5,283.4,386.5,283.4,388.9L283.4,388.9z"/>
	<path fill="#387239" d="M265.6,397c0,2.4-2.2,4.4-4.9,4.4h-24.3c-2.7,0-4.9-2-4.9-4.4l0,0c0-2.4,2.2-4.4,4.9-4.4h24.3
		C263.4,392.6,265.6,394.6,265.6,397L265.6,397z"/>
	<path fill="#387239" d="M247.8,405.1c0,2.4-2.2,4.4-4.9,4.4h-24.3c-2.7,0-4.9-2-4.9-4.4l0,0c0-2.4,2.2-4.4,4.9-4.4h24.3
		C245.6,400.7,247.8,402.7,247.8,405.1L247.8,405.1z"/>
	<path fill="#387239" d="M229.9,413.2c0,2.4-2.2,4.4-4.9,4.4h-24.3c-2.7,0-4.9-2-4.9-4.4l0,0c0-2.4,2.2-4.4,4.9-4.4h24.3
		C227.8,408.8,229.9,410.7,229.9,413.2L229.9,413.2z"/>
	<path fill="#ACD37F" d="M295,347.7h-45.6c0,0,1.3,18.9,12.3,21.8H295L295,347.7L295,347.7z"/>
	<rect x="118.9" y="471" fill="#5B9D5F" width="263.3" height="9.2"/>
	<path fill="#FFFFFF" d="M347.8,385.5c-14.3,0-25.9,11.2-25.9,25c0,13.8,11.6,25,25.9,25c14.3,0,25.9-11.2,25.9-25
		C373.7,396.7,362.1,385.5,347.8,385.5z M347.8,424c-7.4,0-13.5-6-13.5-13.5c0-7.4,6-13.5,13.5-13.5c7.4,0,13.5,6,13.5,13.5
		C361.2,417.9,355.2,424,347.8,424z"/>
</g>
</svg>
