<?xml version="1.0" encoding="utf-8"?>
<!-- Generator: Adobe Illustrator 14.0.0, SVG Export Plug-In . SVG Version: 6.00 Build 43363)  -->
<!DOCTYPE svg PUBLIC "-//W3C//DTD SVG 1.1//EN" "http://www.w3.org/Graphics/SVG/1.1/DTD/svg11.dtd">
<svg version="1.1" id="content" xmlns="http://www.w3.org/2000/svg" xmlns:xlink="http://www.w3.org/1999/xlink" x="0px" y="0px"
	 width="500px" height="500px" viewBox="0 0 500 500" enable-background="new 0 0 500 500" xml:space="preserve">
<g id="chooser">
	<path fill="#5B9D5F" d="M232.823,441.822v41.465H119.084c0,0-6.534-25.968,10.263-25.968c16.798,0,50.702,5.257,48.058-15.921
		c-6.639-7.154-4.993-14.654-4.993-14.654c58.79,0,60.411,0,60.411,0L232.823,441.822L232.823,441.822L232.823,441.822z"/>
	<path fill="#ACD37F" d="M232.823,474.009v-32.101c0,0-30.593-9.369-30.593,14.16c0,16.488-43.241,12.813-58.983,12.813
		c-15.744,0-22.697-0.591-22.697,7.302c76.224,0,112.15,0,112.15,0L232.823,474.009z"/>
	<rect x="117.833" y="474.009" fill="#DEFFFF" width="114.988" height="9.348"/>
	<path fill="#387239" d="M189.71,447.495c0,1.056-0.953,1.907-2.125,1.907h-10.617c-1.172,0-2.123-0.854-2.123-1.907l0,0
		c0-1.053,0.951-1.904,2.123-1.904h10.617C188.757,445.591,189.71,446.442,189.71,447.495L189.71,447.495z"/>
	<path fill="#387239" d="M181.923,451.025c0,1.054-0.952,1.906-2.125,1.906H169.18c-1.172,0-2.123-0.854-2.123-1.906l0,0
		c0-1.054,0.951-1.906,2.123-1.906h10.618C180.971,449.119,181.923,449.973,181.923,451.025L181.923,451.025z"/>
	<path fill="#387239" d="M174.135,454.556c0,1.054-0.951,1.908-2.123,1.908h-10.618c-1.172,0-2.123-0.854-2.123-1.908l0,0
		c0-1.052,0.951-1.904,2.123-1.904h10.618C173.185,452.65,174.135,453.506,174.135,454.556L174.135,454.556z"/>
	<path fill="#387239" d="M166.348,458.088c0,1.053-0.95,1.906-2.122,1.906h-10.618c-1.172,0-2.123-0.854-2.123-1.906l0,0
		c0-1.054,0.951-1.905,2.123-1.905h10.618C165.398,456.181,166.348,457.034,166.348,458.088L166.348,458.088z"/>
	<path fill="#ACD37F" d="M194.775,429.471h-19.93c0,0,0.553,8.248,5.355,9.546h14.574V429.471L194.775,429.471z"/>
	<rect x="117.833" y="483.354" fill="#5B9D5F" width="115.039" height="4.015"/>
	<path fill="#FFFFFF" d="M217.822,446.013c-6.255,0-11.325,4.891-11.325,10.922c0,6.032,5.07,10.924,11.325,10.924
		c6.257,0,11.327-4.892,11.327-10.924S224.077,446.013,217.822,446.013z M217.822,462.814c-3.246,0-5.878-2.633-5.878-5.88
		c0-3.245,2.633-5.878,5.878-5.878c3.246,0,5.879,2.633,5.879,5.878C223.7,460.182,221.069,462.814,217.822,462.814z"/>
</g>
<rect id="position" x="0" y="0" display="none" fill="none" stroke="#000000" width="500" height="500"/>
</svg>
