<?xml version="1.0" encoding="utf-8"?>
<!-- Generator: Adobe Illustrator 18.0.0, SVG Export Plug-In . SVG Version: 6.00 Build 0)  -->
<!DOCTYPE svg PUBLIC "-//W3C//DTD SVG 1.1//EN" "http://www.w3.org/Graphics/SVG/1.1/DTD/svg11.dtd">
<svg version="1.1" id="content" xmlns="http://www.w3.org/2000/svg" xmlns:xlink="http://www.w3.org/1999/xlink" x="0px" y="0px"
	 width="500px" height="500px" viewBox="0 0 500 500" enable-background="new 0 0 500 500" xml:space="preserve">
<rect id="position" display="none" fill="none" stroke="#000000" width="500" height="500"/>
<g id="bounds" display="none">
	<rect x="0.2" y="80.2" display="inline" fill="none" stroke="#EAEAEA" stroke-miterlimit="10" width="499.5" height="499.5"/>
</g>
<g id="shoes">
	<path fill="#212121" d="M378.9,309.6c0,0-6.5,48-0.2,79c6.3,31,2.8,67.6,2.8,67.6h-264c0,0-2.8-42.8,30.8-42.8s80.5,0,103-57.6
		c5-18.1,2.2-46.5,2.2-46.5s-0.7-8.7,12.9-11.6c19-4.1,99.3-2.2,110.4,5.2C380,305.2,378.9,309.6,378.9,309.6z"/>
	<ellipse fill="#DBDBDB" cx="336.6" cy="393.3" rx="17.7" ry="17.2"/>
	<path fill="#EDEDED" d="M276.6,351c0,1.1-0.9,2-2,2h-22.9c-1.1,0-2-0.9-2-2v-5.9c0-1.1,0.9-2,2-2h22.9c1.1,0,2,0.9,2,2V351z"/>
	<path fill="#EDEDED" d="M269.4,373.1c-0.2,1.1-1.3,1.7-2.4,1.3l-22-5.9c-1.1-0.2-1.7-1.3-1.3-2.4l1.5-5.7c0.2-1.1,1.3-1.7,2.4-1.3
		l22,5.9c1.1,0.2,1.7,1.3,1.3,2.4L269.4,373.1z"/>
	<path fill="#EDEDED" d="M256.7,395.5c-0.7,0.9-1.7,1.3-2.8,0.7l-19.6-11.3c-0.9-0.7-1.3-1.7-0.7-2.6l3.1-5c0.7-0.9,1.7-1.3,2.8-0.7
		l19.6,11.3c0.9,0.7,1.3,1.7,0.7,2.6L256.7,395.5z"/>
	<path fill="#EDEDED" d="M238.2,414.1c-0.9,0.7-2.2,0.7-2.8,0l-15.9-16.1c-0.9-0.9-0.7-2,0-2.8l4.4-4.1c0.9-0.7,2.2-0.7,2.8,0
		l15.9,16.1c0.9,0.9,0.7,2,0,2.8L238.2,414.1z"/>
	<path fill="#EDEDED" d="M215.3,426.9c-1.1,0.4-2.2,0.2-2.8-0.9l-10.9-19.6c-0.4-0.9-0.2-2.2,0.9-2.6l5.2-2.8
		c1.1-0.4,2.2-0.2,2.8,0.9l10.9,19.6c0.4,0.9,0.2,2.2-0.9,2.6L215.3,426.9z"/>
	<path fill="#EDEDED" d="M189.6,433.5c-1.1,0.2-2.2-0.4-2.4-1.5l-5-21.6c-0.2-1.1,0.4-2.2,1.5-2.4l5.9-1.3c1.1-0.2,2.2,0.4,2.4,1.5
		l5,21.6c0.2,1.1-0.4,2.2-1.5,2.4L189.6,433.5z"/>
	<path fill="#EDEDED" d="M163.2,433.3c-1.1,0-2-0.9-2-2l1.1-22.3c0-1.1,1.1-2,2.2-2l6.1,0.2c1.1,0,2,0.9,2,2l-1.1,22.3
		c0,1.1-1.1,2-2.2,2L163.2,433.3z"/>
	<path fill="#EDEDED" d="M338.6,420.4l-0.2-3.5c1.5,0,3.1-0.4,4.4-0.7l0.9,3.5C341.8,420,340.3,420.2,338.6,420.4z M333.3,420.2
		c-1.7-0.2-3.5-0.4-5-1.1l1.1-3.3c1.5,0.4,2.8,0.7,4.4,0.9L333.3,420.2z M348.4,418l-1.5-3.3c1.3-0.7,2.6-1.3,3.9-2.2l2.2,2.8
		C351.4,416.3,349.9,417.1,348.4,418z M323.5,417.3c-1.5-0.9-3.1-1.7-4.4-2.6l2.2-2.8c1.1,0.9,2.4,1.7,3.7,2.4L323.5,417.3z
		 M356.7,412.1l-2.6-2.4c1.1-1.1,2-2.2,2.8-3.5l3.1,2C359.1,409.7,358,411,356.7,412.1z M315.7,411.2c-1.1-1.3-2.2-2.6-3.1-3.9
		l3.1-1.7c0.7,1.3,1.7,2.4,2.6,3.5L315.7,411.2z M362.3,403.8l-3.3-1.3c0.7-1.3,1.1-2.6,1.3-4.1l3.5,0.7
		C363.6,400.8,363,402.3,362.3,403.8z M310.4,402.7c-0.7-1.5-1.1-3.3-1.3-4.8l3.5-0.7c0.2,1.5,0.7,2.8,1.1,4.1L310.4,402.7z
		 M364.5,394.2l-3.7-0.2c0-0.2,0-0.4,0-0.7c0-1.5-0.2-2.8-0.4-4.4l3.5-0.7c0.2,1.5,0.4,3.3,0.4,5
		C364.5,393.6,364.5,393.8,364.5,394.2z M312.4,392.9h-3.7c0-1.7,0.2-3.3,0.7-5l3.5,0.7C312.4,390.1,312.4,391.4,312.4,392.9z
		 M359.3,384.8c-0.4-1.3-1.3-2.6-2-3.9l3.1-1.7c0.9,1.3,1.7,2.8,2.2,4.4L359.3,384.8z M314.1,384.4l-3.3-1.3
		c0.7-1.5,1.5-3.1,2.4-4.4l3.1,2C315.2,381.8,314.6,383.1,314.1,384.4z M354.7,377.4c-1.1-1.1-2.2-2-3.3-2.8l2.2-2.8
		c1.3,1.1,2.6,2.2,3.7,3.3L354.7,377.4z M318.9,377.2l-2.6-2.4c1.1-1.3,2.4-2.4,3.9-3.3l2.2,2.8C320.9,375,319.8,376.1,318.9,377.2z
		 M347.5,372.2c-1.3-0.7-2.6-1.1-4.1-1.5l1.1-3.3c1.7,0.4,3.3,1.1,4.8,1.7L347.5,372.2z M325.9,372l-1.5-3.1
		c1.5-0.7,3.1-1.3,4.8-1.7l0.9,3.3C328.7,370.9,327.4,371.3,325.9,372z M339,369.8c-1.5-0.2-3.1-0.2-4.4,0l-0.2-3.5
		c1.7-0.2,3.5-0.2,5.2,0L339,369.8z"/>
	<path fill="#727272" d="M257.2,430.4c-4.1,0-7.4,3.3-7.4,7.2s3.3,7.2,7.4,7.2c4.1,0,7.4-3.3,7.4-7.2
		C264.6,433.7,261.3,430.4,257.2,430.4z M257.2,441.3c-2.2,0-3.9-1.7-3.9-3.7c0-2.2,1.7-3.7,3.9-3.7s3.9,1.7,3.9,3.7
		S259.4,441.3,257.2,441.3z"/>
	<path fill="#727272" d="M287.7,430.4c-4.1,0-7.4,3.3-7.4,7.2s3.3,7.2,7.4,7.2c4.1,0,7.4-3.3,7.4-7.2
		C295.1,433.7,291.9,430.4,287.7,430.4z M287.7,441.3c-2.2,0-3.9-1.7-3.9-3.7c0-2.2,1.7-3.7,3.9-3.7s3.9,1.7,3.9,3.7
		S289.9,441.3,287.7,441.3z"/>
	<path fill="#EDEDED" d="M279.9,340.1h-3.1v-3.9h3.1V340.1z M279.9,332.3h-3.1v-3.9h3.1V332.3z M279.9,324.4h-3.1v-3.7l3.1-0.4v0.7
		V324.4L279.9,324.4z M279.4,316.6h-3.1c0-1.5,0.2-2.8,0.4-4.1l3.1,0.7C279.7,314.2,279.4,315.2,279.4,316.6z M374.3,313.1
		c-1.3-0.2-2.6-0.4-3.9-0.9l0.7-2.8c1.3,0.2,2.6,0.4,3.9,0.9L374.3,313.1z M366.5,311.5c-1.3-0.2-2.6-0.4-3.9-0.7l0.4-2.8
		c1.3,0.2,2.6,0.4,3.9,0.7L366.5,311.5z M358.4,310.2c-1.3-0.2-2.6-0.4-3.9-0.7l0.4-2.8c1.3,0.2,2.6,0.4,3.9,0.7L358.4,310.2z
		 M281.2,309.8l-2.6-1.5c0.9-1.5,2-2.6,3.5-3.3l1.5,2.6C282.5,308,281.6,308.7,281.2,309.8z M350.3,309.1c-1.3-0.2-2.6-0.2-3.9-0.4
		l0.4-2.8c1.3,0.2,2.6,0.2,4.1,0.4L350.3,309.1z M342.5,308.3c-1.3-0.2-2.6-0.2-3.9-0.4l0.2-2.8c1.3,0,2.6,0.2,4.1,0.4L342.5,308.3z
		 M334.4,307.6c-1.3,0-2.6-0.2-3.9-0.2l0.2-3.1c1.3,0,2.6,0.2,4.1,0.2L334.4,307.6z M326.3,307c-1.3,0-2.6-0.2-3.9-0.2l0.2-3.1
		c1.3,0,2.6,0,4.1,0.2L326.3,307z M317.6,307c-1.7,0-3.5,0-5,0.2v-3.1c1.7,0,3.5,0,5.2-0.2L317.6,307z M306.7,307.2
		c-1.3,0-2.8-0.2-3.9-0.2v-3.1c1.3,0,2.6,0,4.1,0.2L306.7,307.2z M298.6,307c-1.3,0-2.8,0-4.1,0v-3.1c1.3,0,2.6,0,4.1,0V307z
		 M286.6,306.7l-0.2-3.1c0.2,0,0.4,0,0.7,0h3.5v3.1h-3.5C286.9,306.7,286.6,306.7,286.6,306.7z"/>
	<path fill="#727272" d="M271.6,333.8c0,1.1-0.9,2-2,2l-9.8,0.2c-1.1,0-2-0.9-2.2-2l-0.7-21.6c0-1.1,0.9-2,2-2l9.8-0.2
		c1.1,0,2,0.9,2.2,2L271.6,333.8z"/>
	<path fill="#DBDBDB" d="M381.3,478.2c0,1.1-0.9,2-2,2H119.5c-1.1,0-2-0.9-2-2v-20.1c0-1.1,0.9-2,2-2h259.8c1.1,0,2,0.9,2,2
		L381.3,478.2L381.3,478.2z"/>
</g>
</svg>
