<?xml version="1.0" encoding="utf-8"?>
<!-- Generator: Adobe Illustrator 18.0.0, SVG Export Plug-In . SVG Version: 6.00 Build 0)  -->
<!DOCTYPE svg PUBLIC "-//W3C//DTD SVG 1.1//EN" "http://www.w3.org/Graphics/SVG/1.1/DTD/svg11.dtd">
<svg version="1.1" id="content" xmlns="http://www.w3.org/2000/svg" xmlns:xlink="http://www.w3.org/1999/xlink" x="0px" y="0px"
	 width="500px" height="500px" viewBox="0 0 500 500" enable-background="new 0 0 500 500" xml:space="preserve">
<g id="shoes">
	<path fill="#212121" d="M234,410.6c0,0-3,22-0.1,36.2s1.3,31,1.3,31h-121c0,0-1.3-19.6,14.1-19.6c15.4,0,36.9,0,47.2-26.4
		c2.3-8.3,1-21.3,1-21.3s-0.3-4,5.9-5.3c8.7-1.9,45.5-1,50.6,2.4C234.5,408.6,234,410.6,234,410.6z"/>
	<ellipse fill="#DBDBDB" cx="214.6" cy="449" rx="8.1" ry="7.9"/>
	<path fill="#EDEDED" d="M187.1,429.6c0,0.5-0.4,0.9-0.9,0.9h-10.5c-0.5,0-0.9-0.4-0.9-0.9v-2.7c0-0.5,0.4-0.9,0.9-0.9h10.5
		c0.5,0,0.9,0.4,0.9,0.9V429.6z"/>
	<path fill="#EDEDED" d="M183.8,439.7c-0.1,0.5-0.6,0.8-1.1,0.6l-10.1-2.7c-0.5-0.1-0.8-0.6-0.6-1.1l0.7-2.6
		c0.1-0.5,0.6-0.8,1.1-0.6l10.1,2.7c0.5,0.1,0.8,0.6,0.6,1.1L183.8,439.7z"/>
	<path fill="#EDEDED" d="M178,450c-0.3,0.4-0.8,0.6-1.3,0.3l-9-5.2c-0.4-0.3-0.6-0.8-0.3-1.2l1.4-2.3c0.3-0.4,0.8-0.6,1.3-0.3l9,5.2
		c0.4,0.3,0.6,0.8,0.3,1.2L178,450z"/>
	<path fill="#EDEDED" d="M169.5,458.5c-0.4,0.3-1,0.3-1.3,0l-7.3-7.4c-0.4-0.4-0.3-0.9,0-1.3l2-1.9c0.4-0.3,1-0.3,1.3,0l7.3,7.4
		c0.4,0.4,0.3,0.9,0,1.3L169.5,458.5z"/>
	<path fill="#EDEDED" d="M159,464.4c-0.5,0.2-1,0.1-1.3-0.4l-5-9c-0.2-0.4-0.1-1,0.4-1.2l2.4-1.3c0.5-0.2,1-0.1,1.3,0.4l5,9
		c0.2,0.4,0.1,1-0.4,1.2L159,464.4z"/>
	<path fill="#EDEDED" d="M147.2,467.4c-0.5,0.1-1-0.2-1.1-0.7l-2.3-9.9c-0.1-0.5,0.2-1,0.7-1.1l2.7-0.6c0.5-0.1,1,0.2,1.1,0.7
		l2.3,9.9c0.1,0.5-0.2,1-0.7,1.1L147.2,467.4z"/>
	<path fill="#EDEDED" d="M135.1,467.3c-0.5,0-0.9-0.4-0.9-0.9l0.5-10.2c0-0.5,0.5-0.9,1-0.9l2.8,0.1c0.5,0,0.9,0.4,0.9,0.9
		l-0.5,10.2c0,0.5-0.5,0.9-1,0.9L135.1,467.3z"/>
	<path fill="#EDEDED" d="M215.5,461.4l-0.1-1.6c0.7,0,1.4-0.2,2-0.3l0.4,1.6C217,461.2,216.3,461.3,215.5,461.4z M213.1,461.3
		c-0.8-0.1-1.6-0.2-2.3-0.5l0.5-1.5c0.7,0.2,1.3,0.3,2,0.4L213.1,461.3z M220,460.3l-0.7-1.5c0.6-0.3,1.2-0.6,1.8-1l1,1.3
		C221.4,459.5,220.7,459.9,220,460.3z M208.6,460c-0.7-0.4-1.4-0.8-2-1.2l1-1.3c0.5,0.4,1.1,0.8,1.7,1.1L208.6,460z M223.8,457.6
		l-1.2-1.1c0.5-0.5,0.9-1,1.3-1.6l1.4,0.9C224.9,456.5,224.4,457.1,223.8,457.6z M205,457.2c-0.5-0.6-1-1.2-1.4-1.8l1.4-0.8
		c0.3,0.6,0.8,1.1,1.2,1.6L205,457.2z M226.4,453.8l-1.5-0.6c0.3-0.6,0.5-1.2,0.6-1.9l1.6,0.3C227,452.4,226.7,453.1,226.4,453.8z
		 M202.6,453.3c-0.3-0.7-0.5-1.5-0.6-2.2l1.6-0.3c0.1,0.7,0.3,1.3,0.5,1.9L202.6,453.3z M227.4,449.4l-1.7-0.1c0-0.1,0-0.2,0-0.3
		c0-0.7-0.1-1.3-0.2-2l1.6-0.3c0.1,0.7,0.2,1.5,0.2,2.3C227.4,449.1,227.4,449.2,227.4,449.4z M203.5,448.8l-1.7,0
		c0-0.8,0.1-1.5,0.3-2.3l1.6,0.3C203.5,447.5,203.5,448.1,203.5,448.8z M225,445.1c-0.2-0.6-0.6-1.2-0.9-1.8l1.4-0.8
		c0.4,0.6,0.8,1.3,1,2L225,445.1z M204.3,444.9l-1.5-0.6c0.3-0.7,0.7-1.4,1.1-2l1.4,0.9C204.8,443.7,204.5,444.3,204.3,444.9z
		 M222.9,441.7c-0.5-0.5-1-0.9-1.5-1.3l1-1.3c0.6,0.5,1.2,1,1.7,1.5L222.9,441.7z M206.5,441.6l-1.2-1.1c0.5-0.6,1.1-1.1,1.8-1.5
		l1,1.3C207.4,440.6,206.9,441.1,206.5,441.6z M219.6,439.3c-0.6-0.3-1.2-0.5-1.9-0.7l0.5-1.5c0.8,0.2,1.5,0.5,2.2,0.8L219.6,439.3z
		 M209.7,439.2l-0.7-1.4c0.7-0.3,1.4-0.6,2.2-0.8l0.4,1.5C211,438.7,210.4,438.9,209.7,439.2z M215.7,438.2c-0.7-0.1-1.4-0.1-2,0
		l-0.1-1.6c0.8-0.1,1.6-0.1,2.4,0L215.7,438.2z"/>
	<path fill="#727272" d="M178.2,466c-1.9,0-3.4,1.5-3.4,3.3c0,1.8,1.5,3.3,3.4,3.3s3.4-1.5,3.4-3.3C181.6,467.5,180.1,466,178.2,466
		z M178.2,471c-1,0-1.8-0.8-1.8-1.7c0-1,0.8-1.7,1.8-1.7s1.8,0.8,1.8,1.7S179.2,471,178.2,471z"/>
	<path fill="#727272" d="M192.2,466c-1.9,0-3.4,1.5-3.4,3.3c0,1.8,1.5,3.3,3.4,3.3c1.9,0,3.4-1.5,3.4-3.3
		C195.6,467.5,194.1,466,192.2,466z M192.2,471c-1,0-1.8-0.8-1.8-1.7c0-1,0.8-1.7,1.8-1.7c1,0,1.8,0.8,1.8,1.7S193.2,471,192.2,471z
		"/>
	<path fill="#EDEDED" d="M188.6,424.6h-1.4v-1.8h1.4V424.6z M188.6,421h-1.4v-1.8h1.4V421z M188.6,417.4h-1.4l0-1.7l1.4-0.2l0,0.3
		L188.6,417.4L188.6,417.4z M188.4,413.8l-1.4,0c0-0.7,0.1-1.3,0.2-1.9l1.4,0.3C188.5,412.7,188.4,413.2,188.4,413.8z M231.9,412.2
		c-0.6-0.1-1.2-0.2-1.8-0.4l0.3-1.3c0.6,0.1,1.2,0.2,1.8,0.4L231.9,412.2z M228.3,411.5c-0.6-0.1-1.2-0.2-1.8-0.3l0.2-1.3
		c0.6,0.1,1.2,0.2,1.8,0.3L228.3,411.5z M224.6,410.9c-0.6-0.1-1.2-0.2-1.8-0.3l0.2-1.3c0.6,0.1,1.2,0.2,1.8,0.3L224.6,410.9z
		 M189.2,410.7L188,410c0.4-0.7,0.9-1.2,1.6-1.5l0.7,1.2C189.8,409.9,189.4,410.2,189.2,410.7z M220.9,410.4
		c-0.6-0.1-1.2-0.1-1.8-0.2l0.2-1.3c0.6,0.1,1.2,0.1,1.9,0.2L220.9,410.4z M217.3,410c-0.6-0.1-1.2-0.1-1.8-0.2l0.1-1.3
		c0.6,0,1.2,0.1,1.9,0.2L217.3,410z M213.6,409.7c-0.6,0-1.2-0.1-1.8-0.1l0.1-1.4c0.6,0,1.2,0.1,1.9,0.1L213.6,409.7z M209.9,409.4
		c-0.6,0-1.2-0.1-1.8-0.1l0.1-1.4c0.6,0,1.2,0,1.9,0.1L209.9,409.4z M205.9,409.4c-0.8,0-1.6,0-2.3,0.1l0-1.4c0.8,0,1.6,0,2.4-0.1
		L205.9,409.4z M200.9,409.5c-0.6,0-1.3-0.1-1.8-0.1l0-1.4c0.6,0,1.2,0,1.9,0.1L200.9,409.5z M197.2,409.4c-0.6,0-1.3,0-1.9,0l0-1.4
		c0.6,0,1.2,0,1.9,0L197.2,409.4z M191.7,409.3l-0.1-1.4c0.1,0,0.2,0,0.3,0l1.6,0l0,1.4l-1.6,0C191.8,409.3,191.7,409.3,191.7,409.3
		z"/>
	<path fill="#727272" d="M184.8,421.7c0,0.5-0.4,0.9-0.9,0.9l-4.5,0.1c-0.5,0-0.9-0.4-1-0.9l-0.3-9.9c0-0.5,0.4-0.9,0.9-0.9l4.5-0.1
		c0.5,0,0.9,0.4,1,0.9L184.8,421.7z"/>
	<path fill="#DBDBDB" d="M235.1,487.9c0,0.5-0.4,0.9-0.9,0.9H115.1c-0.5,0-0.9-0.4-0.9-0.9v-9.2c0-0.5,0.4-0.9,0.9-0.9h119.1
		c0.5,0,0.9,0.4,0.9,0.9L235.1,487.9L235.1,487.9z"/>
</g>
<rect id="position" display="none" fill="none" stroke="#000000" width="500" height="500"/>
</svg>
