<?xml version="1.0" encoding="utf-8"?>
<!-- Generator: Adobe Illustrator 14.0.0, SVG Export Plug-In . SVG Version: 6.00 Build 43363)  -->
<!DOCTYPE svg PUBLIC "-//W3C//DTD SVG 1.1//EN" "http://www.w3.org/Graphics/SVG/1.1/DTD/svg11.dtd">
<svg version="1.1" id="content" xmlns="http://www.w3.org/2000/svg" xmlns:xlink="http://www.w3.org/1999/xlink" x="0px" y="0px"
	 width="500px" height="500px" viewBox="0 0 500 500" enable-background="new 0 0 500 500" xml:space="preserve">
<rect id="position" x="0" y="0" display="none" fill="none" stroke="#000000" width="500" height="500"/>
<g id="shoes">
	<path fill="#58595B" d="M231.72,448.182v-21.695h-38.134c0,0,0.735-5.406-13.27-5.81c-0.542-0.019-1.694,0.546-1.694,1.476
		c0,1.775,0,4.863,0,7.813c0,4.488-3.391,12.901-11.053,18.813c-5.999,4.628-33.184,8.036-37.848,13.044
		c-1.854,1.99-2.285,5.452-2.755,8.487c4.85,0.799,32.271-0.002,40.036-0.002c10.605,0,67.271,0,67.271,0c0-2.462,0-5.566,0-8.902
		C234.275,452.153,231.72,448.182,231.72,448.182z"/>
	<path fill="#4D4D4F" d="M234.275,470.305c0-2.462,0-5.566,0-8.902c0-9.25-2.556-13.221-2.556-13.221v-17.863h-20.274
		c-2.334,6.783-6.375,25.209-20.174,30.335c-12.953,4.813-54.125,2.831-61.625,1.264c-1.8,2.01-2.215,5.4-2.679,8.391
		c4.85,0.799,32.271-0.002,40.036-0.002C177.609,470.305,234.275,470.305,234.275,470.305z"/>
	<path fill="#333132" d="M212.445,470.225h21.83c0-1.785,0-6.764,0-8.822c0-9.25-2.556-13.221-2.556-13.221
		S212.445,451.273,212.445,470.225z"/>
	<path fill="#333132" d="M231.72,426.469h-38.134c0,0-1.464,0-2.892,0c-1.061,0-3.058,0-3.458,0c-0.938,0-1.601,0.675-1.865,1.744
		c-1.154,4.651-3.973,17.717-13.038,23.271c-2.091,1.281-4.063,2.137-6.708,3.334c-2.14,0.968-6.604,2.117-7.875,3.281
		c-1.845,1.688-0.045,10.061,0.754,12.124h11.673c-1.302-4.787-1.386-8.301,6.81-13.237c9.979-6.604,13.929-18.756,15.656-25.702
		c0.083-0.335,0.344-0.967,1.344-0.967s37.733,0,37.733,0V426.469L231.72,426.469z"/>
	<circle fill="#D1D3D4" cx="187.935" cy="433.919" r="2.464"/>
	<path fill="#231F20" d="M188.292,432.74l-9.243-2.438c-0.656-0.195-1.339,0.173-1.538,0.822s0.169,1.341,0.822,1.535l9.243,2.438
		c0.119,0.036,0.24,0.053,0.357,0.053c0.529,0,1.019-0.34,1.179-0.874C189.311,433.629,188.944,432.937,188.292,432.74z"/>
	<circle fill="#D1D3D4" cx="184.868" cy="441.877" r="2.464"/>
	<path fill="#231F20" d="M185.525,440.836l-8.264-4.806c-0.581-0.362-1.337-0.188-1.701,0.386s-0.192,1.338,0.384,1.698l8.265,4.806
		c0.104,0.065,0.218,0.113,0.331,0.146c0.51,0.141,1.071-0.057,1.368-0.529C186.272,441.962,186.102,441.198,185.525,440.836z"/>
	<circle fill="#D1D3D4" cx="180.119" cy="448.959" r="2.464"/>
	<path fill="#231F20" d="M180.96,448.058l-6.693-5.852c-0.503-0.464-1.278-0.436-1.743,0.061c-0.465,0.497-0.439,1.278,0.061,1.741
		l6.693,5.851c0.092,0.085,0.192,0.154,0.299,0.204c0.475,0.234,1.063,0.146,1.443-0.263
		C181.482,449.304,181.458,448.523,180.96,448.058z"/>
	<circle fill="#D1D3D4" cx="172.697" cy="454.646" r="2.465"/>
	<path fill="#231F20" d="M173.742,453.994l-4.315-6.338c-0.366-0.579-1.122-0.753-1.699-0.395c-0.578,0.358-0.755,1.121-0.394,1.697
		l4.316,6.339c0.066,0.105,0.146,0.196,0.235,0.272c0.398,0.351,0.991,0.416,1.463,0.12
		C173.924,455.332,174.104,454.571,173.742,453.994z"/>
	<circle fill="#D1D3D4" cx="164.881" cy="459.031" r="2.465"/>
	<path fill="#231F20" d="M165.968,458.453l-4.218-7.279c-0.325-0.604-1.068-0.828-1.668-0.511c-0.602,0.318-0.831,1.066-0.51,1.666
		l4.22,7.281c0.059,0.11,0.132,0.208,0.215,0.29c0.373,0.375,0.959,0.482,1.451,0.22
		C166.058,459.802,166.289,459.054,165.968,458.453z"/>
	<rect x="126.967" y="470.307" fill="#D1D3D4" width="107.308" height="8.692"/>
	<rect x="126.967" y="471.906" fill="#4D4D4F" width="107.308" height="1.928"/>
</g>
</svg>
