<?xml version="1.0" encoding="utf-8"?>
<!-- Generator: Adobe Illustrator 14.0.0, SVG Export Plug-In . SVG Version: 6.00 Build 43363)  -->
<!DOCTYPE svg PUBLIC "-//W3C//DTD SVG 1.1//EN" "http://www.w3.org/Graphics/SVG/1.1/DTD/svg11.dtd">
<svg version="1.1" id="content" xmlns="http://www.w3.org/2000/svg" xmlns:xlink="http://www.w3.org/1999/xlink" x="0px" y="0px"
	 width="500px" height="500px" viewBox="0 0 500 500" enable-background="new 0 0 500 500" xml:space="preserve">
<g id="shoes">
	<path fill="#D7D8E0" d="M236.611,468.39v6.359c0,0-78.464,3.5-123.206,1c0-6.662,0-8.068,0-8.068l123.206-0.43V468.39z"/>
	<path fill="#1E2033" d="M179.174,424.138c0,0-12.917,16.751-37.486,20.241c-24.567,3.488-28.283,10.188-28.283,24.708
		c35.6,4.981,123.206-0.697,123.206-0.697s9.061-23.593-2.729-45.788C214.414,437.4,190.277,431.956,179.174,424.138z"/>
	<path fill="#EBEBEF" d="M191.198,430.142c0,0,5.589-11.705,2.339-19.27c-17.313,0-19.955,0.375-19.955,0.375
		s1.427,8.67,3.707,15.482C183.632,430.857,191.198,430.142,191.198,430.142z"/>
	<path fill="#4D516D" d="M188.592,427.173c0,0,3.813-6.285,1.646-14.377c-14.104,0-13.901,0-13.901,0l2.837,12.717
		C179.174,425.51,183.88,427.449,188.592,427.173z"/>
	<path fill="#D7D8E0" d="M142.22,442.753c10.857,4.967,10.366,22.983,10.366,24.501c-25.506,0-39.184-1.521-39.184-1.521
		C113.63,467.307,110.453,442.753,142.22,442.753z"/>
	<path fill="#7880B5" d="M189.884,449.014c0.423,0.354,0.478,0.985,0.122,1.409c-0.429,0.51-0.864,1.021-1.308,1.532
		c-0.197,0.229-0.478,0.349-0.758,0.349c-0.23,0-0.465-0.08-0.651-0.243c-0.418-0.361-0.466-0.992-0.104-1.41
		c0.438-0.506,0.866-1.011,1.289-1.515C188.829,448.718,189.459,448.659,189.884,449.014z"/>
	<path fill="#7880B5" d="M193.646,444.328c0.437,0.344,0.512,0.972,0.17,1.404c-0.408,0.521-0.826,1.047-1.253,1.577
		c-0.195,0.246-0.485,0.374-0.778,0.374c-0.222,0-0.44-0.072-0.625-0.221c-0.433-0.348-0.499-0.978-0.153-1.405
		c0.421-0.524,0.834-1.045,1.237-1.562C192.584,444.063,193.212,443.987,193.646,444.328z"/>
	<path fill="#7880B5" d="M185.961,453.565c0.408,0.372,0.438,1.004,0.065,1.413c-0.449,0.495-0.904,0.99-1.365,1.483
		c-0.197,0.21-0.466,0.314-0.73,0.314c-0.245,0-0.49-0.09-0.684-0.27c-0.403-0.378-0.426-1.013-0.047-1.414
		c0.453-0.485,0.902-0.975,1.348-1.462C184.919,453.224,185.553,453.195,185.961,453.565z"/>
	<path fill="#7880B5" d="M177.463,463.548c-0.504,0.45-1.012,0.896-1.523,1.335c-0.188,0.16-0.419,0.238-0.647,0.238
		c-0.282,0-0.563-0.117-0.762-0.351c-0.357-0.419-0.31-1.051,0.11-1.409c0.498-0.427,0.994-0.861,1.486-1.304
		c0.409-0.37,1.044-0.336,1.412,0.076C177.908,462.547,177.874,463.177,177.463,463.548z"/>
	<path fill="#7880B5" d="M181.859,457.949c0.393,0.392,0.395,1.023,0.003,1.415c-0.477,0.479-0.956,0.951-1.438,1.42
		c-0.194,0.188-0.445,0.282-0.696,0.282c-0.261,0-0.521-0.102-0.718-0.304c-0.385-0.396-0.375-1.03,0.021-1.414
		c0.478-0.461,0.947-0.927,1.414-1.396C180.835,457.56,181.467,457.558,181.859,457.949z"/>
	<path fill="#7880B5" d="M200.728,434.614c0.454,0.314,0.568,0.938,0.255,1.394c-0.357,0.521-0.745,1.07-1.153,1.65
		c-0.195,0.275-0.504,0.424-0.817,0.424c-0.199,0-0.401-0.061-0.576-0.185c-0.451-0.319-0.559-0.943-0.239-1.394
		c0.406-0.574,0.786-1.12,1.144-1.637C199.651,434.413,200.273,434.302,200.728,434.614z"/>
	<path fill="#7880B5" d="M197.26,439.526c0.445,0.327,0.54,0.953,0.212,1.397c-0.387,0.524-0.788,1.063-1.201,1.613
		c-0.194,0.264-0.497,0.399-0.801,0.399c-0.209,0-0.419-0.065-0.6-0.2c-0.441-0.331-0.53-0.958-0.199-1.398
		c0.409-0.547,0.807-1.079,1.189-1.602C196.189,439.295,196.819,439.199,197.26,439.526z"/>
	<path fill="#7880B5" d="M170.586,468.852c-0.311,0-0.613-0.144-0.812-0.411c-0.323-0.446-0.227-1.072,0.222-1.396
		c0.526-0.387,1.056-0.779,1.578-1.187c0.438-0.337,1.064-0.255,1.402,0.181c0.337,0.438,0.256,1.065-0.181,1.403
		c-0.539,0.415-1.08,0.821-1.624,1.218C170.996,468.791,170.79,468.852,170.586,468.852z"/>
	<path fill="#D7D8E0" d="M203.74,431.799c-0.145,0.222-0.311,0.478-0.503,0.771c-0.189,0.292-0.511,0.451-0.837,0.451
		c-0.188,0-0.379-0.053-0.548-0.164c-0.357-0.235-0.509-0.661-0.419-1.057C202.197,431.82,202.964,431.823,203.74,431.799z"/>
	<path fill="#7880B5" d="M226.24,466.512c-0.096,0-0.189-0.016-0.285-0.042c-0.529-0.158-0.83-0.715-0.673-1.244
		c0.189-0.64,0.37-1.272,0.543-1.899c0.145-0.531,0.692-0.85,1.228-0.7c0.533,0.146,0.848,0.692,0.702,1.228
		c-0.175,0.644-0.359,1.291-0.557,1.946C227.069,466.232,226.67,466.512,226.24,466.512L226.24,466.512z M227.742,460.705
		c-0.07,0-0.144-0.007-0.216-0.021c-0.539-0.118-0.882-0.65-0.765-1.19c0.142-0.649,0.274-1.296,0.396-1.934
		c0.104-0.542,0.618-0.895,1.17-0.795c0.542,0.104,0.896,0.627,0.795,1.17c-0.125,0.653-0.262,1.314-0.405,1.984
		C228.615,460.385,228.202,460.705,227.742,460.705L227.742,460.705z M228.781,454.801c-0.045,0-0.09-0.003-0.135-0.011
		c-0.547-0.071-0.932-0.574-0.856-1.124c0.089-0.66,0.166-1.313,0.231-1.957c0.06-0.55,0.525-0.949,1.101-0.891
		c0.549,0.059,0.945,0.549,0.89,1.1c-0.069,0.66-0.148,1.332-0.239,2.016C229.705,454.433,229.277,454.801,228.781,454.801
		L228.781,454.801z M229.315,448.824c-0.015,0-0.027,0-0.044-0.001c-0.552-0.021-0.979-0.489-0.956-1.042
		c0.028-0.668,0.046-1.324,0.056-1.968c0.007-0.553,0.492-0.965,1.012-0.988c0.553,0.007,0.995,0.46,0.988,1.014
		c-0.01,0.665-0.025,1.341-0.058,2.028C230.289,448.404,229.847,448.824,229.315,448.824L229.315,448.824z M229.281,442.827
		c-0.526,0-0.97-0.413-0.996-0.943c-0.037-0.67-0.084-1.324-0.143-1.961c-0.049-0.553,0.357-1.036,0.907-1.085
		c0.553-0.052,1.036,0.356,1.085,0.905c0.059,0.66,0.107,1.336,0.145,2.029c0.03,0.552-0.393,1.023-0.941,1.053
		C229.32,442.827,229.301,442.827,229.281,442.827L229.281,442.827z M228.644,436.863c-0.48,0-0.906-0.349-0.984-0.84
		c-0.108-0.668-0.228-1.312-0.353-1.931c-0.106-0.541,0.242-1.068,0.783-1.18c0.542-0.108,1.067,0.242,1.178,0.783
		c0.129,0.645,0.252,1.313,0.364,2.005c0.088,0.545-0.282,1.061-0.827,1.147C228.75,436.859,228.697,436.863,228.644,436.863
		L228.644,436.863z M227.46,431.366c-0.437,0-0.834-0.284-0.961-0.722c-0.192-0.667-0.391-1.29-0.583-1.868
		c-0.179-0.521,0.104-1.091,0.628-1.267c0.521-0.181,1.09,0.104,1.267,0.628c0.204,0.604,0.408,1.254,0.61,1.95
		c0.153,0.529-0.152,1.085-0.685,1.237C227.646,431.353,227.552,431.366,227.46,431.366L227.46,431.366z"/>
	<path fill="#7880B5" d="M193.567,466.272c-0.419,0-0.81-0.266-0.947-0.685c-0.2-0.605-0.432-1.206-0.683-1.784
		c-0.22-0.507,0.015-1.097,0.521-1.315c0.51-0.223,1.097,0.012,1.313,0.521c0.275,0.634,0.525,1.29,0.745,1.948
		c0.174,0.524-0.11,1.093-0.634,1.267C193.777,466.258,193.671,466.272,193.567,466.272L193.567,466.272z M190.947,460.896
		c-0.321,0-0.64-0.156-0.833-0.444c-0.354-0.528-0.732-1.05-1.13-1.543c-0.347-0.431-0.275-1.06,0.153-1.403
		c0.432-0.35,1.062-0.278,1.405,0.151c0.434,0.538,0.849,1.105,1.233,1.686c0.309,0.46,0.185,1.081-0.274,1.388
		C191.33,460.844,191.137,460.896,190.947,460.896L190.947,460.896z M186.98,456.412c-0.229,0-0.46-0.078-0.646-0.236
		c-0.866-0.737-1.462-1.104-1.474-1.107c-0.473-0.284-0.626-0.896-0.342-1.37c0.283-0.475,0.899-0.628,1.371-0.344
		c0.03,0.018,0.731,0.44,1.739,1.298c0.42,0.358,0.471,0.989,0.112,1.41C187.543,456.295,187.262,456.412,186.98,456.412
		L186.98,456.412z"/>
	<circle fill="#141623" cx="183.329" cy="434.37" r="2.89"/>
	<circle fill="#141623" cx="178.94" cy="438.317" r="2.89"/>
	<circle fill="#141623" cx="173.93" cy="442.668" r="2.89"/>
	<circle fill="#141623" cx="168.853" cy="446.428" r="2.89"/>
	<circle fill="#141623" cx="162.925" cy="449.18" r="2.89"/>
	<path fill="#D7D8E0" d="M182.864,435.313c0.323,0,0.649-0.104,0.926-0.318c0.65-0.511,0.767-1.452,0.257-2.104
		c-0.168-0.213-4.188-5.244-10.031-5.009c-0.828,0.028-1.475,0.726-1.444,1.554c0.031,0.828,0.746,1.479,1.556,1.444
		c4.317-0.155,7.525,3.817,7.559,3.858C181.977,435.116,182.418,435.313,182.864,435.313L182.864,435.313z"/>
	<path fill="#D7D8E0" d="M178.208,438.88c0.344,0,0.688-0.117,0.971-0.357c0.631-0.537,0.708-1.483,0.171-2.114
		c-0.203-0.235-5.033-5.801-10.517-5.354c-0.825,0.066-1.439,0.794-1.371,1.619c0.067,0.824,0.804,1.427,1.619,1.369
		c3.318-0.265,6.885,3.019,7.981,4.31C177.362,438.698,177.783,438.88,178.208,438.88L178.208,438.88z"/>
	<path fill="#D7D8E0" d="M173.481,442.944c0.29,0,0.583-0.084,0.842-0.259c0.688-0.466,0.863-1.398,0.398-2.084
		c-0.184-0.271-4.542-6.587-10.572-6.216c-0.826,0.051-1.455,0.763-1.402,1.59c0.051,0.825,0.729,1.446,1.59,1.404
		c4.268-0.261,7.869,4.854,7.902,4.905C172.529,442.716,173.001,442.944,173.481,442.944L173.481,442.944z"/>
	<path fill="#D7D8E0" d="M167.906,445.719c0.261,0,0.521-0.067,0.762-0.208c0.711-0.421,0.95-1.334,0.53-2.047
		c-0.138-0.235-3.448-5.77-10-6.161c-0.815-0.057-1.535,0.58-1.587,1.406c-0.05,0.826,0.58,1.536,1.407,1.588
		c4.922,0.297,7.568,4.644,7.595,4.688C166.893,445.454,167.393,445.719,167.906,445.719L167.906,445.719z"/>
	<path fill="#D7D8E0" d="M162.519,448.637c0.33,0,0.662-0.108,0.938-0.331c0.645-0.521,0.748-1.461,0.229-2.106
		c-0.197-0.246-4.906-6.03-10.765-6.124c-0.802,0.021-1.511,0.648-1.523,1.479c-0.012,0.829,0.648,1.51,1.479,1.521
		c4.438,0.069,8.434,4.954,8.473,5.003C161.646,448.446,162.08,448.637,162.519,448.637L162.519,448.637z"/>
	<path fill="none" stroke="#D7D8E0" stroke-width="3" d="M191.2,430.141c0,0,22.49,6.895,42.681-7.539"/>
</g>
<rect id="position" x="0" y="0" display="none" fill="none" stroke="#000000" width="500" height="500"/>
</svg>
