<?xml version="1.0" encoding="utf-8"?>
<!-- Generator: Adobe Illustrator 18.0.0, SVG Export Plug-In . SVG Version: 6.00 Build 0)  -->
<!DOCTYPE svg PUBLIC "-//W3C//DTD SVG 1.1//EN" "http://www.w3.org/Graphics/SVG/1.1/DTD/svg11.dtd">
<svg version="1.1" id="content" xmlns="http://www.w3.org/2000/svg" xmlns:xlink="http://www.w3.org/1999/xlink" x="0px" y="0px"
	 width="500px" height="500px" viewBox="0 0 500 500" enable-background="new 0 0 500 500" xml:space="preserve">
<rect id="position" display="none" fill="none" stroke="#000000" width="500" height="500"/>
<g id="bounds" display="none">
	<rect x="0.2" y="80.2" display="inline" fill="none" stroke="#EAEAEA" stroke-miterlimit="10" width="499.5" height="499.5"/>
</g>
<g id="shoes">
	<g>
		<path fill="#D7D8E0" d="M375.4,462.7V476c0,0-163.7,7.3-257.1,2.1c0-13.9,0-16.8,0-16.8l257.1-0.9V462.7z"/>
	</g>
	<g>
		<path fill="#1E2033" d="M255.6,370.4c0,0-27,35-78.2,42.2c-51.3,7.3-59,21.3-59,51.6c74.3,10.4,257.1-1.5,257.1-1.5
			s18.9-49.2-5.7-95.5C329.1,398.1,278.8,386.7,255.6,370.4z"/>
	</g>
	<g>
		<path fill="#EBEBEF" d="M280.7,382.9c0,0,11.7-24.4,4.9-40.2c-36.1,0-41.6,0.8-41.6,0.8s3,18.1,7.7,32.3
			C264.9,384.4,280.7,382.9,280.7,382.9z"/>
	</g>
	<g>
		<path fill="#4D516D" d="M275.2,376.7c0,0,8-13.1,3.4-30c-29.4,0-29,0-29,0l5.9,26.5C255.6,373.3,265.4,377.3,275.2,376.7z"/>
	</g>
	<g>
		<path fill="#D7D8E0" d="M178.5,409.2c22.7,10.4,21.6,48,21.6,51.1c-53.2,0-81.8-3.2-81.8-3.2C118.8,460.5,112.2,409.2,178.5,409.2
			z"/>
	</g>
	<g>
		<path fill="#7880B5" d="M277.9,422.3c0.9,0.7,1,2.1,0.3,2.9c-0.9,1.1-1.8,2.1-2.7,3.2c-0.4,0.5-1,0.7-1.6,0.7
			c-0.5,0-1-0.2-1.4-0.5c-0.9-0.8-1-2.1-0.2-2.9c0.9-1.1,1.8-2.1,2.7-3.2C275.7,421.7,277,421.6,277.9,422.3z"/>
	</g>
	<g>
		<path fill="#7880B5" d="M285.8,412.5c0.9,0.7,1.1,2,0.4,2.9c-0.9,1.1-1.7,2.2-2.6,3.3c-0.4,0.5-1,0.8-1.6,0.8
			c-0.5,0-0.9-0.2-1.3-0.5c-0.9-0.7-1-2-0.3-2.9c0.9-1.1,1.7-2.2,2.6-3.3C283.6,412,284.9,411.8,285.8,412.5z"/>
	</g>
	<g>
		<path fill="#7880B5" d="M269.7,431.8c0.9,0.8,0.9,2.1,0.1,2.9c-0.9,1-1.9,2.1-2.8,3.1c-0.4,0.4-1,0.7-1.5,0.7
			c-0.5,0-1-0.2-1.4-0.6c-0.8-0.8-0.9-2.1-0.1-3c0.9-1,1.9-2,2.8-3.1C267.6,431.1,268.9,431,269.7,431.8z"/>
	</g>
	<g>
		<path fill="#7880B5" d="M252,452.6c-1.1,0.9-2.1,1.9-3.2,2.8c-0.4,0.3-0.9,0.5-1.4,0.5c-0.6,0-1.2-0.2-1.6-0.7
			c-0.7-0.9-0.6-2.2,0.2-2.9c1-0.9,2.1-1.8,3.1-2.7c0.9-0.8,2.2-0.7,2.9,0.2C252.9,450.6,252.9,451.9,252,452.6z"/>
	</g>
	<g>
		<path fill="#7880B5" d="M261.2,441c0.8,0.8,0.8,2.1,0,3c-1,1-2,2-3,3c-0.4,0.4-0.9,0.6-1.5,0.6c-0.5,0-1.1-0.2-1.5-0.6
			c-0.8-0.8-0.8-2.1,0-3c1-1,2-1.9,3-2.9C259.1,440.1,260.4,440.1,261.2,441z"/>
	</g>
	<g>
		<path fill="#7880B5" d="M300.6,392.3c0.9,0.7,1.2,2,0.5,2.9c-0.7,1.1-1.6,2.2-2.4,3.4c-0.4,0.6-1.1,0.9-1.7,0.9
			c-0.4,0-0.8-0.1-1.2-0.4c-0.9-0.7-1.2-2-0.5-2.9c0.8-1.2,1.6-2.3,2.4-3.4C298.3,391.8,299.6,391.6,300.6,392.3z"/>
	</g>
	<g>
		<path fill="#7880B5" d="M293.3,402.5c0.9,0.7,1.1,2,0.4,2.9c-0.8,1.1-1.6,2.2-2.5,3.4c-0.4,0.6-1,0.8-1.7,0.8
			c-0.4,0-0.9-0.1-1.3-0.4c-0.9-0.7-1.1-2-0.4-2.9c0.9-1.1,1.7-2.3,2.5-3.3C291.1,402,292.4,401.8,293.3,402.5z"/>
	</g>
	<g>
		<path fill="#7880B5" d="M237.7,463.7c-0.6,0-1.3-0.3-1.7-0.9c-0.7-0.9-0.5-2.2,0.5-2.9c1.1-0.8,2.2-1.6,3.3-2.5
			c0.9-0.7,2.2-0.5,2.9,0.4c0.7,0.9,0.5,2.2-0.4,2.9c-1.1,0.9-2.3,1.7-3.4,2.5C238.5,463.6,238.1,463.7,237.7,463.7z"/>
	</g>
	<g>
		<path fill="#D7D8E0" d="M306.8,386.4c-0.3,0.5-0.6,1-1,1.6c-0.4,0.6-1.1,0.9-1.7,0.9c-0.4,0-0.8-0.1-1.1-0.3
			c-0.7-0.5-1.1-1.4-0.9-2.2C303.6,386.4,305.2,386.4,306.8,386.4z"/>
	</g>
	<g>
		<path fill="#7880B5" d="M353.8,458.8c-0.2,0-0.4,0-0.6-0.1c-1.1-0.3-1.7-1.5-1.4-2.6c0.4-1.3,0.8-2.7,1.1-4
			c0.3-1.1,1.4-1.8,2.6-1.5c1.1,0.3,1.8,1.4,1.5,2.6c-0.4,1.3-0.7,2.7-1.2,4.1C355.5,458.2,354.7,458.8,353.8,458.8L353.8,458.8z
			 M356.9,446.7c-0.1,0-0.3,0-0.5,0c-1.1-0.2-1.8-1.4-1.6-2.5c0.3-1.4,0.6-2.7,0.8-4c0.2-1.1,1.3-1.9,2.4-1.7
			c1.1,0.2,1.9,1.3,1.7,2.4c-0.3,1.4-0.5,2.7-0.8,4.1C358.8,446,357.9,446.7,356.9,446.7L356.9,446.7z M359.1,434.4
			c-0.1,0-0.2,0-0.3,0c-1.1-0.1-1.9-1.2-1.8-2.3c0.2-1.4,0.3-2.7,0.5-4.1c0.1-1.1,1.1-2,2.3-1.9c1.1,0.1,2,1.1,1.9,2.3
			c-0.1,1.4-0.3,2.8-0.5,4.2C361,433.6,360.1,434.4,359.1,434.4L359.1,434.4z M360.2,421.9C360.2,421.9,360.2,421.9,360.2,421.9
			c-1.2,0-2.1-1-2.1-2.2c0.1-1.4,0.1-2.8,0.1-4.1c0-1.2,1-2,2.1-2.1c1.2,0,2.1,1,2.1,2.1c0,1.4-0.1,2.8-0.1,4.2
			C362.3,421,361.3,421.9,360.2,421.9L360.2,421.9z M360.1,409.4c-1.1,0-2-0.9-2.1-2c-0.1-1.4-0.2-2.8-0.3-4.1
			c-0.1-1.2,0.7-2.2,1.9-2.3c1.2-0.1,2.2,0.7,2.3,1.9c0.1,1.4,0.2,2.8,0.3,4.2c0.1,1.2-0.8,2.1-2,2.2
			C360.2,409.4,360.2,409.4,360.1,409.4L360.1,409.4z M358.8,397c-1,0-1.9-0.7-2.1-1.8c-0.2-1.4-0.5-2.7-0.7-4
			c-0.2-1.1,0.5-2.2,1.6-2.5c1.1-0.2,2.2,0.5,2.5,1.6c0.3,1.3,0.5,2.7,0.8,4.2c0.2,1.1-0.6,2.2-1.7,2.4
			C359,396.9,358.9,397,358.8,397L358.8,397z M356.3,385.5c-0.9,0-1.7-0.6-2-1.5c-0.4-1.4-0.8-2.7-1.2-3.9c-0.4-1.1,0.2-2.3,1.3-2.6
			c1.1-0.4,2.3,0.2,2.6,1.3c0.4,1.3,0.9,2.6,1.3,4.1c0.3,1.1-0.3,2.3-1.4,2.6C356.7,385.5,356.5,385.5,356.3,385.5L356.3,385.5z"/>
	</g>
	<g>
		<path fill="#7880B5" d="M285.6,458.3c-0.9,0-1.7-0.6-2-1.4c-0.4-1.3-0.9-2.5-1.4-3.7c-0.5-1.1,0-2.3,1.1-2.7
			c1.1-0.5,2.3,0,2.7,1.1c0.6,1.3,1.1,2.7,1.6,4.1c0.4,1.1-0.2,2.3-1.3,2.6C286.1,458.3,285.8,458.3,285.6,458.3L285.6,458.3z
			 M280.2,447.1c-0.7,0-1.3-0.3-1.7-0.9c-0.7-1.1-1.5-2.2-2.4-3.2c-0.7-0.9-0.6-2.2,0.3-2.9c0.9-0.7,2.2-0.6,2.9,0.3
			c0.9,1.1,1.8,2.3,2.6,3.5c0.6,1,0.4,2.3-0.6,2.9C281,447,280.5,447.1,280.2,447.1L280.2,447.1z M271.9,437.8c-0.5,0-1-0.2-1.3-0.5
			c-1.8-1.5-3.1-2.3-3.1-2.3c-1-0.6-1.3-1.9-0.7-2.9c0.6-1,1.9-1.3,2.9-0.7c0.1,0,1.5,0.9,3.6,2.7c0.9,0.7,1,2.1,0.2,2.9
			C273,437.5,272.5,437.8,271.9,437.8L271.9,437.8z"/>
	</g>
	<g>
		<circle fill="#141623" cx="264.3" cy="391.8" r="6"/>
	</g>
	<g>
		<circle fill="#141623" cx="255.1" cy="400" r="6"/>
	</g>
	<g>
		<circle fill="#141623" cx="244.6" cy="409.1" r="6"/>
	</g>
	<g>
		<circle fill="#141623" cx="234" cy="416.9" r="6"/>
	</g>
	<g>
		<circle fill="#141623" cx="221.7" cy="422.7" r="6"/>
	</g>
	<g>
		<path fill="#D7D8E0" d="M263.3,393.7c0.7,0,1.4-0.2,1.9-0.7c1.4-1.1,1.6-3,0.5-4.4c-0.4-0.4-8.7-10.9-20.9-10.5
			c-1.7,0.1-3.1,1.5-3,3.2c0.1,1.7,1.6,3.1,3.2,3c9-0.3,15.7,8,15.8,8.1C261.4,393.3,262.4,393.7,263.3,393.7L263.3,393.7z"/>
	</g>
	<g>
		<path fill="#D7D8E0" d="M253.6,401.2c0.7,0,1.4-0.2,2-0.7c1.3-1.1,1.5-3.1,0.4-4.4c-0.4-0.5-10.5-12.1-21.9-11.2
			c-1.7,0.1-3,1.7-2.9,3.4c0.1,1.7,1.7,3,3.4,2.9c6.9-0.6,14.4,6.3,16.7,9C251.8,400.8,252.7,401.2,253.6,401.2L253.6,401.2z"/>
	</g>
	<g>
		<path fill="#D7D8E0" d="M243.7,409.6c0.6,0,1.2-0.2,1.8-0.5c1.4-1,1.8-2.9,0.8-4.3c-0.4-0.6-9.5-13.7-22.1-13
			c-1.7,0.1-3,1.6-2.9,3.3c0.1,1.7,1.5,3,3.3,2.9c8.9-0.5,16.4,10.1,16.5,10.2C241.7,409.2,242.7,409.6,243.7,409.6L243.7,409.6z"/>
	</g>
	<g>
		<path fill="#D7D8E0" d="M232.1,415.4c0.5,0,1.1-0.1,1.6-0.4c1.5-0.9,2-2.8,1.1-4.3c-0.3-0.5-7.2-12-20.9-12.9
			c-1.7-0.1-3.2,1.2-3.3,2.9c-0.1,1.7,1.2,3.2,2.9,3.3c10.3,0.6,15.8,9.7,15.8,9.8C230,414.9,231,415.4,232.1,415.4L232.1,415.4z"/>
	</g>
	<g>
		<path fill="#D7D8E0" d="M220.8,421.5c0.7,0,1.4-0.2,2-0.7c1.3-1.1,1.6-3,0.5-4.4c-0.4-0.5-10.2-12.6-22.5-12.8
			c-1.7,0-3.2,1.4-3.2,3.1c0,1.7,1.4,3.2,3.1,3.2c9.3,0.1,17.6,10.3,17.7,10.4C219,421.1,219.9,421.5,220.8,421.5L220.8,421.5z"/>
	</g>
	<g>
		<path fill="#D7D8E0" d="M308.4,389.6c-16.3,0-27.6-3.4-28.6-3.7l1.8-6c0.5,0.1,46,13.5,86.3-15.3l3.6,5.1
			C349.3,385.7,326,389.6,308.4,389.6z"/>
	</g>
</g>
</svg>
