<?xml version="1.0" encoding="utf-8"?>
<!-- Generator: Adobe Illustrator 18.0.0, SVG Export Plug-In . SVG Version: 6.00 Build 0)  -->
<!DOCTYPE svg PUBLIC "-//W3C//DTD SVG 1.1//EN" "http://www.w3.org/Graphics/SVG/1.1/DTD/svg11.dtd">
<svg version="1.1" id="content" xmlns="http://www.w3.org/2000/svg" xmlns:xlink="http://www.w3.org/1999/xlink" x="0px" y="0px"
	 width="500px" height="500px" viewBox="0 0 500 500" enable-background="new 0 0 500 500" xml:space="preserve">
<rect id="position" display="none" fill="none" stroke="#000000" width="500" height="500"/>
<g id="bounds" display="none">
	<rect x="0.2" y="80.2" display="inline" fill="none" stroke="#EAEAEA" stroke-miterlimit="10" width="499.5" height="499.5"/>
</g>
<g id="shoes">
	<g>
		<path fill="#E5E5E5" d="M381.8,437c0-8.6-1.7-21.1-2.7-27.7c-0.4-2.8-1.8-3.1-4-1.2c-5.6,5.1-30.6,14.1-50.1,14
			c-34.2,0-48.2-19-48.2-19s13.6-12.9-0.5-30.7c0,0-39.6,26.8-64.5,40.4c-24.8,13.6-67.7,27.4-67.7,27.4
			c-16.6,2.1-23.5,9.5-25.9,18.6v11.6c0,0,76,8.1,129.6,5.9s132.6-4.5,132.6-4.5S381.7,449.2,381.8,437z"/>
	</g>
	<g>
		<circle fill="#CECECE" cx="255.9" cy="405.2" r="4.3"/>
	</g>
	<g>
		<circle fill="#CECECE" cx="236.4" cy="415.9" r="4.3"/>
	</g>
	<g>
		<circle fill="#CECECE" cx="220.4" cy="424.4" r="4.3"/>
	</g>
	<g>
		<circle fill="#CECECE" cx="203.4" cy="433.4" r="4.3"/>
	</g>
	<g>
		<circle fill="#CECECE" cx="184.9" cy="437.9" r="3.1"/>
	</g>
	<g>
		<path fill="#F9F9F9" d="M255.9,407.1c-0.7,0-1.3-0.3-1.7-0.9l-8.6-13.7c-0.6-0.9-0.3-2.1,0.6-2.7c0.9-0.6,2.1-0.3,2.7,0.6
			l8.6,13.7c0.6,0.9,0.3,2.1-0.6,2.7C256.6,407,256.2,407.1,255.9,407.1z"/>
	</g>
	<g>
		<path fill="#F9F9F9" d="M236.4,417.3c-0.7,0-1.3-0.4-1.7-1l-7.5-13.1c-0.5-0.9-0.2-2.1,0.7-2.7c0.9-0.5,2.1-0.2,2.7,0.7l7.5,13.1
			c0.5,0.9,0.2,2.1-0.7,2.7C237,417.2,236.7,417.3,236.4,417.3z"/>
	</g>
	<g>
		<path fill="#F9F9F9" d="M220.4,425.4c-0.7,0-1.4-0.4-1.7-1l-6.6-11.9c-0.5-0.9-0.2-2.1,0.8-2.7c0.9-0.5,2.1-0.2,2.7,0.8l6.6,11.9
			c0.5,0.9,0.2,2.1-0.8,2.7C221.1,425.3,220.7,425.4,220.4,425.4z"/>
	</g>
	<g>
		<path fill="#F9F9F9" d="M202.8,434.8c-0.8,0-1.5-0.4-1.8-1.2l-5.8-13.2c-0.4-1,0-2.1,1-2.6c1-0.4,2.1,0,2.6,1l5.8,13.2
			c0.4,1,0,2.1-1,2.6C203.4,434.8,203.1,434.8,202.8,434.8z"/>
	</g>
	<g>
		<path fill="#F9F9F9" d="M184.3,437.9c-0.6,0-1.2-0.4-1.4-1.1l-2.5-9.5c-0.2-0.8,0.3-1.5,1-1.7c0.8-0.2,1.5,0.3,1.7,1l2.5,9.5
			c0.2,0.8-0.3,1.5-1,1.7C184.5,437.9,184.4,437.9,184.3,437.9z"/>
	</g>
	<g>
		<path fill="#8E8E8E" d="M260.1,386.9l8.8,14.4c0,0,13.2-10.4,4.7-22.4C263.5,384.1,260.1,386.9,260.1,386.9z"/>
	</g>
	<g>
		<rect x="118.2" y="462.8" fill="#E5E5E5" width="262.3" height="17.4"/>
	</g>
	<g>
		<rect x="118.2" y="464.9" fill="#ADADAD" width="262.3" height="5.4"/>
	</g>
</g>
</svg>
