<?xml version="1.0" encoding="utf-8"?>
<!-- Generator: Adobe Illustrator 14.0.0, SVG Export Plug-In . SVG Version: 6.00 Build 43363)  -->
<!DOCTYPE svg PUBLIC "-//W3C//DTD SVG 1.1//EN" "http://www.w3.org/Graphics/SVG/1.1/DTD/svg11.dtd">
<svg version="1.1" id="content" xmlns="http://www.w3.org/2000/svg" xmlns:xlink="http://www.w3.org/1999/xlink" x="0px" y="0px"
	 width="500px" height="500px" viewBox="0 0 500 500" enable-background="new 0 0 500 500" xml:space="preserve">
<g id="shoes">
	<polygon fill="#332D27" points="109.321,470.736 111.672,479.13 116.467,479.674 121.398,472.105 	"/>
	<polygon fill="#332D27" points="125.322,473.75 128.549,481.847 133.375,481.881 137.477,473.834 	"/>
	<polygon fill="#332D27" points="142.359,474.384 147.104,482.149 151.918,481.819 154.485,473.551 	"/>
	<polygon fill="#332D27" points="158.086,472.637 164.155,479.42 168.831,478.226 169.863,469.63 	"/>
	<polygon fill="#332D27" points="177.027,468.096 181.231,476.168 186.058,476.166 189.182,468.093 	"/>
	<polygon fill="#332D27" points="195.118,468.096 199.322,476.168 204.148,476.166 207.273,468.093 	"/>
	<polygon fill="#332D27" points="213.209,468.096 218.298,476.168 223.125,476.166 226.25,468.093 	"/>
	<path fill="#F5F5F5" d="M231.769,417.047c0,0-24.823,7.238-49.768-0.519c0,13.104,0,14.479,0,14.479s21.276,8.966,42.308,8.966
		c4.999-4.999,7.412-12.709,7.412-16.816C231.721,419.379,231.769,417.047,231.769,417.047z"/>
	<path fill="#C02026" d="M239.91,443.459c0,0,5.079,24.99-16.109,24.99c-21.191,0-49.719,0-49.719,0s24.451-21.771,25.318-21.916
		c0.871-0.146,37.607-2.899,37.607-2.899L239.91,443.459z"/>
	<path fill="#F74350" d="M183.299,462.842h30.013c0,0,23.823,1.585,21.448-18.206c-2.205-18.374-34,0-34,0l-18.135,18.206"/>
	<path fill="#3F3B3B" d="M231.721,416.792c0,0-1.489,16.441-26.37,11.494c-16.006-4.801-23.279-13.677-23.279-13.677
		s-2.766-0.582-8.587,5.676c-5.816,6.258-18.333,23.689-43.213,31.198c-24.882,7.506-27.645,13.181-27.209,17.545
		c-0.01-0.186,13.663,7.877,40.887,6.981c26.629-0.873,38.268-11.933,45.396-17.313c0,0,5.676-4.653,19.209-4.653
		c13.529,0,17.617,0.092,19.073-8.687c11.349,0,13.238,0,13.238,0S242.218,424.066,231.721,416.792z"/>
	<path fill="#332D27" d="M164.426,457.338c-10.298,10.399-31.395,12.729-42.108,17.271c-12.901-1.388-16.949-3.271-19.255-5.581
		c-0.436-4.364,2.327-10.039,27.209-17.545c24.88-7.509,37.396-24.938,43.213-31.198c5.821-6.258,8.587-5.676,8.587-5.676
		s5.896,7.153,18.688,12.093C196.426,428.385,183.062,438.635,164.426,457.338z"/>
	<path fill="#9FBF3B" d="M187.854,447.23c0,0-4.551-8.146-15.65-9.813c-4.887,4.771-5.22,4.903-5.22,4.903
		s11.104,1.199,14.896,9.523C187.076,448.409,187.854,447.23,187.854,447.23z"/>
	<path fill="#9FBF3B" d="M198.698,439.218c0,0-4.933-8.828-16.964-10.634c-5.294,5.175-5.653,5.315-5.653,5.315
		s12.03,1.3,16.144,10.321C197.855,440.493,198.698,439.218,198.698,439.218z"/>
	<path fill="#9FBF3B" d="M176.636,455.371c0,0-3.478-6.859-12.567-8.604c-4.184,3.771-4.462,3.867-4.462,3.867
		s9.105,1.355,11.953,8.343C175.956,456.316,176.636,455.371,176.636,455.371z"/>
	<path fill="#9FBF3B" d="M166.811,462.481c0,0-2.375-6.406-10.387-8.823c-4.199,2.937-4.46,2.997-4.46,2.997
		s8.069,2.079,9.859,8.533C166.09,463.252,166.811,462.481,166.811,462.481z"/>
	<path fill="#9FBF3B" d="M156.115,467.256c0,0-2.011-5.681-8.895-7.947c-3.63,2.509-3.854,2.555-3.854,2.555
		s6.935,1.976,8.441,7.685C155.49,467.921,156.115,467.256,156.115,467.256z"/>
</g>
<rect id="position" x="0" y="0" display="none" fill="none" stroke="#000000" width="500" height="500"/>
</svg>
