<?xml version="1.0" encoding="utf-8"?>
<!-- Generator: Adobe Illustrator 18.0.0, SVG Export Plug-In . SVG Version: 6.00 Build 0)  -->
<!DOCTYPE svg PUBLIC "-//W3C//DTD SVG 1.1//EN" "http://www.w3.org/Graphics/SVG/1.1/DTD/svg11.dtd">
<svg version="1.1" id="content" xmlns="http://www.w3.org/2000/svg" xmlns:xlink="http://www.w3.org/1999/xlink" x="0px" y="0px"
	 width="500px" height="500px" viewBox="0 0 500 500" enable-background="new 0 0 500 500" xml:space="preserve">
<rect id="position" display="none" fill="none" stroke="#000000" width="500" height="500"/>
<g id="bounds" display="none">
	<rect x="0.2" y="80.2" display="inline" fill="none" stroke="#EAEAEA" stroke-miterlimit="10" width="499.5" height="499.5"/>
</g>
<g id="shoes">
	<polygon fill="#332D27" points="130.6,458.8 135.1,474.9 144.3,475.9 153.7,461.5 	"/>
	<polygon fill="#332D27" points="161.2,464.6 167.4,480.1 176.6,480.2 184.5,464.8 	"/>
	<polygon fill="#332D27" points="193.8,465.8 202.9,480.7 212.1,480 217,464.2 	"/>
	<polygon fill="#332D27" points="223.9,462.5 235.5,475.4 244.4,473.2 246.4,456.7 	"/>
	<polygon fill="#332D27" points="260.1,453.8 268.2,469.2 277.4,469.2 283.4,453.8 	"/>
	<polygon fill="#332D27" points="294.7,453.8 302.8,469.2 312,469.2 318,453.8 	"/>
	<polygon fill="#332D27" points="329.3,453.8 339.1,469.2 348.3,469.2 354.3,453.8 	"/>
	<path fill="#F5F5F5" d="M364.8,356.2c0,0-47.5,13.8-95.2-1c0,25.1,0,27.7,0,27.7s40.7,17.1,80.9,17.1c9.6-9.6,14.2-24.3,14.2-32.2
		C364.7,360.6,364.8,356.2,364.8,356.2z"/>
	<path fill="#C02026" d="M380.4,406.7c0,0,9.7,47.8-30.8,47.8c-40.5,0-95.1,0-95.1,0s46.8-41.6,48.4-41.9c1.7-0.3,71.9-5.5,71.9-5.5
		L380.4,406.7z"/>
	<path fill="#F74350" d="M272.1,443.7h57.4c0,0,45.6,3,41-34.8c-4.2-35.1-65,0-65,0l-34.7,34.8"/>
	<path fill="#3F3B3B" d="M364.7,355.7c0,0-2.8,31.4-50.4,22c-30.6-9.2-44.5-26.2-44.5-26.2s-5.3-1.1-16.4,10.9
		c-11.1,12-35.1,45.3-82.6,59.7c-47.6,14.4-52.9,25.2-52,33.6c0-0.4,26.1,15.1,78.2,13.4c50.9-1.7,73.2-22.8,86.8-33.1
		c0,0,10.9-8.9,36.7-8.9c25.9,0,33.7,0.2,36.5-16.6c21.7,0,24,0,24,0S384.8,369.6,364.7,355.7z"/>
	<path fill="#332D27" d="M236,433.2c-19.7,19.9-60,24.3-80.5,33c-24.7-2.7-32.4-6.3-36.8-10.7c-0.8-8.3,4.5-19.2,52-33.6
		c47.6-14.4,71.5-47.7,82.6-59.7c11.1-12,16.4-10.9,16.4-10.9s11.3,13.7,35.7,23.1C297.2,377.8,271.7,397.4,236,433.2z"/>
	<path fill="#9FBF3B" d="M280.8,413.9c0,0-8.7-15.6-29.9-18.8c-9.3,9.1-10,9.4-10,9.4s21.2,2.3,28.5,18.2
		C279.3,416.1,280.8,413.9,280.8,413.9z"/>
	<path fill="#9FBF3B" d="M301.6,398.6c0,0-9.4-16.9-32.4-20.3c-10.1,9.9-10.8,10.2-10.8,10.2s23,2.5,30.9,19.7
		C300,401,301.6,398.6,301.6,398.6z"/>
	<path fill="#9FBF3B" d="M259.4,429.5c0,0-6.7-13.1-24-16.5c-8,7.2-8.5,7.4-8.5,7.4s17.4,2.6,22.9,16
		C258.1,431.3,259.4,429.5,259.4,429.5z"/>
	<path fill="#9FBF3B" d="M240.6,443.1c0,0-4.5-12.3-19.9-16.9c-8,5.6-8.5,5.7-8.5,5.7s15.4,4,18.9,16.3
		C239.2,444.5,240.6,443.1,240.6,443.1z"/>
	<path fill="#9FBF3B" d="M220.1,452.2c0,0-3.8-10.9-17-15.2c-6.9,4.8-7.4,4.9-7.4,4.9s13.3,3.8,16.1,14.7
		C218.9,453.5,220.1,452.2,220.1,452.2z"/>
</g>
</svg>
