<?xml version="1.0" encoding="utf-8"?>
<!-- Generator: Adobe Illustrator 14.0.0, SVG Export Plug-In . SVG Version: 6.00 Build 43363)  -->
<!DOCTYPE svg PUBLIC "-//W3C//DTD SVG 1.1//EN" "http://www.w3.org/Graphics/SVG/1.1/DTD/svg11.dtd">
<svg version="1.1" id="content" xmlns="http://www.w3.org/2000/svg" xmlns:xlink="http://www.w3.org/1999/xlink" x="0px" y="0px"
	 width="500px" height="500px" viewBox="0 0 500 500" enable-background="new 0 0 500 500" xml:space="preserve">
<g id="shoes">
	<path fill="#D10505" d="M233.276,443.926c0,0,1.358,18.455-23.257,18.455c-23.997,0-63.008,2.634-79.573-2.785
		c-8.052-3.406-8.563-9.135-8.563-9.135L233.276,443.926z"/>
	<path fill="#F90000" d="M231.121,426.57c0,0-14.19,5.669-46.176,3.654c-7.817,0-9.477,0-9.477,0v24.782
		c0,0,51.294,8.769,56.979-8.527C237.187,433.686,231.121,426.57,231.121,426.57z"/>
	<polygon fill="#D10505" points="193.51,451.312 198.166,448.763 194.882,446.177 189.344,448.744 	"/>
	<path fill="#D10505" d="M185.863,430.281c0,0,4.982,21.959,16.961,26.937c-10.719,0.229-10.488,0.267-10.488,0.267
		s-10.305-19.244-10.835-27.258C184.947,430.225,185.863,430.281,185.863,430.281z"/>
	<path fill="#F90000" d="M182.341,423.237c0,0-1.303,25.195,15.282,33.992c-33.763,1.688-58.875,0.76-74.867-5.992
		c-2.844-1.896,2.014-4.639,3.672-5.705C145.856,435.7,182.341,423.237,182.341,423.237z"/>
	<path fill="#D8D8D8" d="M189.275,450.318l8.35-3.908l-5.327-6.782l-6.983,4.023C185.313,443.651,187.204,448.01,189.275,450.318z"
		/>
</g>
<rect id="position" x="0" y="0" display="none" fill="none" stroke="#000000" width="500" height="500"/>
</svg>
