<?xml version="1.0" encoding="utf-8"?>
<!-- Generator: Adobe Illustrator 14.0.0, SVG Export Plug-In . SVG Version: 6.00 Build 43363)  -->
<!DOCTYPE svg PUBLIC "-//W3C//DTD SVG 1.1//EN" "http://www.w3.org/Graphics/SVG/1.1/DTD/svg11.dtd">
<svg version="1.1" id="content" xmlns="http://www.w3.org/2000/svg" xmlns:xlink="http://www.w3.org/1999/xlink" x="0px" y="0px"
	 width="500px" height="500px" viewBox="0 0 500 500" enable-background="new 0 0 500 500" xml:space="preserve">
<g id="shoes">
	<path fill="#E8E8EA" d="M171.594,418.937c-3.814-2.709-12.744-9.049-8.757-16.439c0.615-1.141,2.206-3.057,5.957-3.088
		c4.268-0.037,13.487,2.449,24.525,7.777c-2.347-3.127-6.154-6.912-4.971-10.319c0.439-1.271,3.99-4.231,8.813-4.271
		c1.374-0.013,2.888,0.216,4.687,0.708c9.405,2.577,21.291,5.015,32.146,10.251l2.624,1.266c0,0-0.271,21.859-0.896,25.699
		c-41.21-2.832-57.869-3.946-57.869-3.946S177.227,422.523,171.594,418.937z"/>
	<path fill="#C5C5D7" d="M232.193,407.457c0,0,1.45,51.714,0.584,64.112c-0.489,6.508-9.678,6.56-18.904,6.327
		c-9.226-0.23-87.688,0.72-87.688,0.72s-5.479-12.316,5.712-17.922c9.462-4.739,21.11-3.391,30.563-7.935
		c10.255-4.932,21.402-17.168,17.427-29.65c-0.296-0.933-0.702-2.287-1.094-3.152c-0.768-1.693-1.719-2.317-3.448-3.605
		c-3.068-2.29-10.962-7.062-8.493-11.64c2.291-4.25,26.917,7.48,30.053,9.053c5.352,2.598,9.597,0.227,4.423-4.281
		c-8.142-7.245-9.865-14.547-0.51-11.98C210.175,400.064,221.718,402.404,232.193,407.457z"/>
	<path fill="#ACACBC" d="M131.897,460.694c9.462-4.739,21.11-3.391,30.563-7.935c9.438-4.538,19.62-15.26,18.087-26.673
		c2.445,0.045,5.071,0.45,7.283,0.54c3.502,0.143,8.953,0.437,12.456,0.407c0,0-3.441,3.062-3.441,3.063
		c-1.024,4.604-8.436,14.935-10.362,17.501c-3.81,5.074-8.737,9.503-14.321,12.627c-3.178,1.777-6.802,3.051-10.437,3.754
		c-6.981,1.35-14.145,0.969-21.243,1.533c-2.697,0.216-5.357,0.592-7.936,1.313c-2.759,0.772-4.928,2.205-7.446,3.408
		c0.042-0.675,0.069-1.496,0.261-2.152c0.28-0.949,0.687-1.881,1.199-2.717C127.818,463.314,129.751,461.768,131.897,460.694z"/>
	<path fill="#A7A7B9" d="M231.748,474.173c0,0,0.774,8.079-11.782,8.187c-12.558,0.104-90.953,0-90.953,0s-3.03-1.355-3.869-7.332
		C132.355,474.966,231.748,474.173,231.748,474.173z"/>
	<path fill="#E8E8EA" d="M239.48,425.97c0,0-48.841-5.846-65.562-1.43c0.518,7.286,0.518,7.286,0.518,7.286
		s50.547,1.773,64.419,5.321C238.505,432.195,239.48,425.97,239.48,425.97z"/>
	<path fill="#E8E8EA" d="M233.052,448.116c0,0,9.778,10.431,3.476,25.435c-1.362,3.912-23.146,2.613-35.052-6.589
		c-0.892-6.901,21.165-7.859,25.606-11.056C231.526,452.715,233.052,448.116,233.052,448.116z"/>
	<path fill="#9595A0" d="M232.829,435.98l0.054,3.219c0,0-37.338-4.765-52.779-6.153c0.227-0.954,0.227-0.954,0.227-0.954
		S223.888,434.223,232.829,435.98z"/>
	<path fill="#9595A0" d="M232.309,477.05c0,0-16.242,2.961-28.923-6.666c-2.526-2.495-1.909-3.422-1.909-3.422
		s17.328,9.688,30.666,8.556C232.485,476.26,232.309,477.05,232.309,477.05z"/>
	<path fill="#A7A7B9" d="M223.015,410.864l3.644,9.038c0.184,2.596-6.743,1.707-7.979,0.043c-1.236-1.665-12.43-14.217-12.43-14.217
		s-1.288-2.419,9.381,1.512C222.461,409.108,223.015,410.864,223.015,410.864z"/>
	<path fill="#C2C2CE" d="M215.99,462.118c-14.848,1.524-4.311,6.892,3.646,9.147c3.996,1.134,12.286,1.584,17.217,1.451
		c3.134-8.143,1.58-14.872-0.409-19.224C233.687,457.045,225.453,461.326,215.99,462.118z"/>
	<path fill="#868693" d="M189.058,439.365c-0.097,0.4-0.5,0.646-0.899,0.55l-9.606-2.323c-0.4-0.098-0.646-0.499-0.549-0.898
		l0.215-0.896c0.097-0.398,0.5-0.646,0.899-0.55l9.606,2.324c0.4,0.096,0.646,0.499,0.549,0.898L189.058,439.365z"/>
	<path fill="#868693" d="M184.666,446.266c-0.143,0.386-0.57,0.584-0.957,0.442l-9.277-3.408c-0.386-0.143-0.584-0.569-0.442-0.956
		l0.316-0.866c0.143-0.384,0.571-0.582,0.957-0.441l9.277,3.409c0.387,0.143,0.584,0.569,0.441,0.956L184.666,446.266z"/>
	<path fill="#868693" d="M179.792,452.236c-0.169,0.375-0.61,0.542-0.986,0.373l-9.009-4.064c-0.375-0.17-0.542-0.611-0.373-0.984
		l0.378-0.841c0.169-0.375,0.611-0.542,0.985-0.373l9.009,4.065c0.376,0.169,0.542,0.609,0.373,0.985L179.792,452.236z"/>
	<path fill="#868693" d="M173.059,457.223c-0.195,0.362-0.646,0.499-1.009,0.304l-8.711-4.669c-0.363-0.193-0.5-0.646-0.305-1.008
		l0.435-0.813c0.194-0.361,0.646-0.499,1.008-0.306l8.711,4.671c0.364,0.194,0.5,0.646,0.306,1.009L173.059,457.223z"/>
	<path fill="#868693" d="M163.965,461.332c-0.217,0.351-0.676,0.459-1.026,0.24l-8.397-5.211c-0.352-0.216-0.458-0.675-0.241-1.023
		l0.485-0.784c0.217-0.35,0.676-0.457,1.024-0.239l8.399,5.21c0.351,0.217,0.458,0.677,0.241,1.026L163.965,461.332z"/>
</g>
<rect id="position" x="0" y="0" display="none" fill="none" stroke="#000000" width="500" height="500"/>
</svg>
