<?xml version="1.0" encoding="utf-8"?>
<!-- Generator: Adobe Illustrator 18.0.0, SVG Export Plug-In . SVG Version: 6.00 Build 0)  -->
<!DOCTYPE svg PUBLIC "-//W3C//DTD SVG 1.1//EN" "http://www.w3.org/Graphics/SVG/1.1/DTD/svg11.dtd">
<svg version="1.1" id="content" xmlns="http://www.w3.org/2000/svg" xmlns:xlink="http://www.w3.org/1999/xlink" x="0px" y="0px"
	 width="500px" height="500px" viewBox="0 0 500 500" enable-background="new 0 0 500 500" xml:space="preserve">
<rect id="position" display="none" fill="none" stroke="#000000" width="500" height="500"/>
<g id="bounds" display="none">
	<rect x="0.2" y="80.2" display="inline" fill="none" stroke="#EAEAEA" stroke-miterlimit="10" width="499.5" height="499.5"/>
</g>
<g id="shoes">
	<path fill="#343531" d="M262.1,378.7c0,0-12-3.3-34.7,10.4c-34.4,20.8-70.8,33.9-79.7,36.2c-34.9,9.1-31.9,37.1-26,48.9
		c25.9,3.1,74.9,4.9,131.4,4.9c69.1,0,127.8-5,128.3-6.2c0-48.7-0.9-88.9-13.1-88.9c-12.2,0-24.9,20.9-59,19.9
		C280,404,262.1,378.7,262.1,378.7z"/>
	<g>
		<path fill="#DDDDDD" d="M242.2,399.1c-1.5,0-2.9-0.6-4-1.8l-9.4-10.7c-1.9-2.2-1.7-5.5,0.5-7.5c2.2-1.9,5.5-1.7,7.5,0.5l9.4,10.7
			c1.9,2.2,1.7,5.5-0.5,7.5C244.7,398.6,243.5,399.1,242.2,399.1z"/>
	</g>
	<g>
		<path fill="#DDDDDD" d="M228.7,408.5c-1.6,0-3.2-0.7-4.2-2.1l-9.1-12.2c-1.7-2.3-1.3-5.7,1.1-7.4c2.3-1.7,5.7-1.3,7.4,1.1
			l9.1,12.2c1.7,2.3,1.3,5.7-1.1,7.4C230.9,408.1,229.8,408.5,228.7,408.5z"/>
	</g>
	<g>
		<path fill="#DDDDDD" d="M213.6,414.1c-1.6,0-3.2-0.7-4.2-2.1l-8.8-11.8c-1.7-2.3-1.3-5.6,1.1-7.4c2.3-1.7,5.6-1.3,7.4,1.1
			l8.8,11.8c1.7,2.3,1.3,5.6-1.1,7.4C215.9,413.8,214.7,414.1,213.6,414.1z"/>
	</g>
	<g>
		<path fill="#DDDDDD" d="M200.8,422.9c-1.9,0-3.7-1-4.7-2.8l-7.5-14.4c-1.4-2.6-0.3-5.8,2.2-7.1c2.6-1.3,5.8-0.3,7.1,2.2l7.5,14.4
			c1.4,2.6,0.3,5.8-2.2,7.1C202.4,422.7,201.6,422.9,200.8,422.9z"/>
	</g>
	<g>
		<path fill="#DDDDDD" d="M186,427.6c-2.1,0-4.2-1.3-4.9-3.4l-5.1-13.5c-1-2.7,0.4-5.8,3.1-6.8c2.7-1,5.8,0.4,6.8,3.1l5.1,13.5
			c1,2.7-0.4,5.8-3.1,6.8C187.3,427.5,186.6,427.6,186,427.6z"/>
	</g>
	<g>
		<path fill="#DDDDDD" d="M172.2,434.1c-2.3,0-4.5-1.5-5.1-3.9l-3.8-13.9c-0.8-2.8,0.9-5.7,3.7-6.5c2.8-0.8,5.7,0.9,6.5,3.7
			l3.8,13.9c0.8,2.8-0.9,5.7-3.7,6.5C173.1,434,172.7,434.1,172.2,434.1z"/>
	</g>
	<g>
		<path fill="#DDDDDD" d="M155.6,434.7c-2.4,0-4.5-1.6-5.1-4l-2.5-9.9c-0.7-2.8,1-5.7,3.8-6.4c2.8-0.7,5.7,1,6.4,3.8l2.5,9.9
			c0.7,2.8-1,5.7-3.8,6.4C156.4,434.7,156,434.7,155.6,434.7z"/>
	</g>
	<path fill="#282828" d="M188.1,453.1c-41.3,1.2-49.4-14.4-49.4-24.7c-25.4,11.2-22.4,35.2-17.1,45.9c59.2,10.1,134.1,4.9,135.5,4.9
		C250.3,469.2,232,451.8,188.1,453.1z"/>
	<path fill="#798255" d="M378.9,391"/>
	<path fill="#50514E" d="M283.7,479.1c0,0,20.7-18.2,59.2-19.9c33.5-1.8,39.1-5.3,39.1-5.3v19.9C382,473.7,339.4,482,283.7,479.1z"
		/>
	<path fill="#E80707" d="M363.2,433c-1.8-3-4.8-5.8-6.2-7.6c-7.2-9.2-37.7-1.5-46.6,0.9c-7.9,2.2-15.2,5.3-22.8,8.3
		c-19.8,7.1-29.6-5.3-35.7-10.6c-2.5-2.2-4.3-5.1-7.1-6.8c-3.4-2.1-7.2-0.8-10.8,0.1c-0.8,0.2-10.3,3-9.6,4.4
		c2.1,4.7,7.3,7.7,11.1,10.8c6.5,5.4,12.1,11.8,18.6,17.3c7.3,7.6,30.1-3,34-4.4c6.6-2.5,13.2-5.1,19.7-8c1.8-0.8,25-8.9,26.8-0.8
		c0.6,3.1,1.1,5.8,3.9,7.9c2.4,1.8,5.2,0.8,7.9,0.4c2.5-0.4,4.9-0.8,7.4-1.3c3-0.6,9-1.1,10.5-4.2
		C365.2,437.4,364.5,435.1,363.2,433z"/>
</g>
</svg>
