<?xml version="1.0" encoding="utf-8"?>
<!-- Generator: Adobe Illustrator 18.0.0, SVG Export Plug-In . SVG Version: 6.00 Build 0)  -->
<!DOCTYPE svg PUBLIC "-//W3C//DTD SVG 1.1//EN" "http://www.w3.org/Graphics/SVG/1.1/DTD/svg11.dtd">
<svg version="1.1" id="content" xmlns="http://www.w3.org/2000/svg" xmlns:xlink="http://www.w3.org/1999/xlink" x="0px" y="0px"
	 width="500px" height="500px" viewBox="0 0 500 500" enable-background="new 0 0 500 500" xml:space="preserve">
<rect id="position" display="none" fill="none" stroke="#000000" width="500" height="500"/>
<path fill="#231F20" d="M230.9,423.9c0,0,0,4.5,0,4.5c-0.6,11-10.9,20.5-24.4,20.5c-13.4-0.1-23.8-9.5-24.3-20.5c0,0,0-4.5,0-4.5
	c-2.8,5-2.6,11.2-1.9,16.7c0.6,4.7,2.3,9.3,4.9,13.2c4.8,7.1,12.6,11.7,21.3,11.7c0,0,0,0,0,0s0,0,0,0c8.7,0,16.5-4.6,21.3-11.7
	c2.6-3.9,4.3-8.5,4.9-13.2C233.5,435,233.6,428.9,230.9,423.9z"/>
<path fill="#808285" d="M218.8,457.4c-0.1,0-13.3-0.4-13.3-3.3s13.2-3.3,13.3-3.3c2.1,0,3.8,1.5,3.8,3.3
	C222.7,456,220.9,457.4,218.8,457.4z M210.4,454.2c2.9,0.5,7.3,0.9,8.4,0.9c0.6,0,1.1-0.4,1.1-0.9c0-0.5-0.5-0.9-1.1-0.9
	C217.7,453.2,213.3,453.7,210.4,454.2z"/>
<path fill="#808285" d="M192.6,457.4c-2.1,0-3.8-1.5-3.8-3.3c0-1.8,1.7-3.3,3.8-3.3c0.1,0,13.3,0.4,13.3,3.3
	S192.7,457.4,192.6,457.4z M192.6,453.2c-0.6,0-1.1,0.4-1.1,0.9c0,0.5,0.5,0.9,1.1,0.9c1.2,0,5.6-0.4,8.5-0.9
	C198.2,453.7,193.7,453.2,192.6,453.2z"/>
<path fill="#231F20" d="M202.8,454.2c0,1.5,1.4,2.7,3.2,2.7l0,0c1.8,0,3.2-1.2,3.2-2.7l0,0c0-1.5-1.4-2.7-3.2-2.7l0,0
	C204.2,451.5,202.8,452.7,202.8,454.2L202.8,454.2z"/>
<path fill="#808285" d="M203.6,453.7c0,1.2,1.1,2.1,2.5,2.1l0,0c1.4,0,2.5-1,2.5-2.1l0,0c0-1.2-1.1-2.1-2.5-2.1l0,0
	C204.7,451.6,203.6,452.6,203.6,453.7L203.6,453.7z"/>
</svg>
