<?xml version="1.0" encoding="utf-8"?>
<!-- Generator: Adobe Illustrator 18.0.0, SVG Export Plug-In . SVG Version: 6.00 Build 0)  -->
<!DOCTYPE svg PUBLIC "-//W3C//DTD SVG 1.1//EN" "http://www.w3.org/Graphics/SVG/1.1/DTD/svg11.dtd">
<svg version="1.1" id="content" xmlns="http://www.w3.org/2000/svg" xmlns:xlink="http://www.w3.org/1999/xlink" x="0px" y="0px"
	 width="500px" height="500px" viewBox="0 0 500 500" enable-background="new 0 0 500 500" xml:space="preserve">
<rect id="position" display="none" fill="none" stroke="#000000" width="500" height="500"/>
<g>
	<path fill="#E5DF00" d="M230.9,423.9l-0.1,4.6c-0.6,11-10.8,20.4-24.2,20.4c-13.4-0.1-23.8-9.5-24.3-20.5v-4.5
		c-2.8,5-2.6,11.2-1.9,16.7c0.6,4.7,2.3,9.3,4.9,13.2c4.8,7.1,12.6,11.7,21.3,11.7l0,0l0,0c8.7,0,16.5-4.6,21.3-11.7
		c2.6-3.9,4.3-8.5,4.9-13.2C233.5,435,233.6,428.9,230.9,423.9z"/>
	<path fill="#FFFF00" d="M208,428.5h-4l2.6,23.9h2.9l2.6-23.9H208z"/>
	<path fill="#FFFF00" d="M206.6,428.4c-9.6,0-18.5-2-26-5.4l0,5.6c7.6,7.6,16.4,9.7,26,9.7c9.5,0,18.3-2.1,26-9.7l0-5.6
		C225,426.4,216.1,428.4,206.6,428.4z"/>
	<path fill="#E5DF00" d="M232.5,428.6l0-1.4c-0.8,0.7-10,8.6-26,8.6c-16,0-25.2-7.9-26-8.6l0,1.4c7.6,7.8,16.4,9.9,26,9.9
		C216.1,438.5,224.9,436.4,232.5,428.6z"/>
</g>
</svg>
