<?xml version="1.0" encoding="utf-8"?>
<!-- Generator: Adobe Illustrator 14.0.0, SVG Export Plug-In . SVG Version: 6.00 Build 43363)  -->
<!DOCTYPE svg PUBLIC "-//W3C//DTD SVG 1.1//EN" "http://www.w3.org/Graphics/SVG/1.1/DTD/svg11.dtd">
<svg version="1.1" id="content" xmlns="http://www.w3.org/2000/svg" xmlns:xlink="http://www.w3.org/1999/xlink" x="0px" y="0px"
	 width="500px" height="500px" viewBox="0 0 500 500" enable-background="new 0 0 500 500" xml:space="preserve">
<rect id="position" x="0" y="0" display="none" fill="none" stroke="#000000" width="500" height="500"/>
<g id="shoes">
	<path fill="#6D4E24" d="M167.018,457.964c-15,0-35.851-1.552-40.351-4.488v5.5c4.5,2.938,25.351,4.488,40.351,4.488
		s55.607,0,64.857,0l-0.137-6.02C222.256,457.444,181.948,457.964,167.018,457.964z"/>
	<path fill="#D8AE45" d="M191.47,435.093c-1.008,0.016-3.78-0.927-4.973-2.27c-1.916-2.157-2.439-4.448-4.167-7.247
		c-2.18,2.017-14.769,4.799-23.081,6.174c-8.313,1.375-24.252,2.25-28.251,1.375s-7.553,5.047-7.769,8.798
		c-0.267,4.645,2.468,10.92,3.437,11.553c4.5,2.938,25.208,4.488,40.208,4.488s53.875,0,63.125,0c7.125,0,4.467-21.119,2.256-28.423
		C222.948,432.826,206.823,434.852,191.47,435.093z"/>
	<path fill="#7A1016" d="M233.935,437.743l-1.021,0.183l-2.793,1.378c0,0-3.026,2.171-2.815,5.053
		c0.164,2.218,2.147,2.012,2.147,2.012s-0.659-0.456-0.411-1.605c0.251-1.171,0.922-1.493,1.734-1.565
		c0.971-0.081,1.998,0.338,2.104,2.024c0.174,2.823-2.555,3.717-3.828,3.789c-1.276,0.071-3.586-0.157-3.931-4.427
		c-0.282-3.53-2.358-3.603-3.292-3.55c-1.388,0.078-2.632,1.302-2.503,3.011c0.125,1.709,1.498,1.771,1.498,1.771
		s-0.529-0.726-0.481-1.507c0.044-0.752,0.673-1.229,1.32-1.268c0.473-0.024,1.417,0.015,1.527,1.532
		c0.135,1.816-2.521,4.013-4.271,5.399c-1.75,1.385-4.761,4.378-4.564,7.045c0.028,0.373,0.081,0.676,0.145,0.946
		c6.943,0,12.642,0,15.502,0C235.211,457.964,235.188,446.67,233.935,437.743z"/>
	<path fill="#7A1016" d="M191.445,435.093c-1.027,0-3.765-0.938-4.947-2.27c-1.916-2.157-2.439-4.448-4.167-7.247
		c-0.464,0.43-1.403,0.895-2.668,1.371l0.053,0.104l0.063,0.101c0.604,0.979,1.06,1.926,1.5,2.842
		c0.759,1.577,1.543,3.208,2.978,4.822c1.804,2.03,5.404,3.276,7.19,3.276h0.022h0.047c16.331-0.255,32.177-2.412,41.483-5.638
		c-0.244-1.107-0.495-2.101-0.741-2.914c-9.307,3.285-25.432,5.313-40.786,5.552C191.461,435.093,191.453,435.093,191.445,435.093z"
		/>
	<path fill="#7A1016" d="M157.019,456.808c0.438-2.993-2.93-6.704-4.913-8.454c-1.984-1.756-4.983-4.529-4.687-6.563
		c0.247-1.701,1.379-1.646,1.937-1.563c0.771,0.113,1.484,0.719,1.482,1.575c-0.004,0.886-0.689,1.648-0.689,1.648
		s1.645,0.078,1.923-1.833c0.279-1.917-1.113-3.436-2.762-3.678c-1.106-0.163-3.592-0.308-4.198,3.649
		c-0.729,4.779-3.507,4.784-5.022,4.561c-1.515-0.222-4.703-1.528-4.282-4.696c0.251-1.893,1.511-2.256,2.662-2.053
		c0.965,0.166,1.744,0.605,1.953,1.953c0.211,1.332-0.608,1.771-0.608,1.771s2.35,0.451,2.712-2.034
		c0.473-3.23-2.975-6.016-2.975-6.016s-1.633-1.609-3.002-1.604c-2.473-0.003-4.458-0.11-5.549-0.351
		c-3.999-0.875-7.553,5.047-7.769,8.797c-0.267,4.646,2.469,10.921,3.437,11.554c3.549,2.315,17.179,3.771,30.14,4.281
		C156.889,457.482,156.964,457.18,157.019,456.808z"/>
</g>
</svg>
