<?xml version="1.0" encoding="utf-8"?>
<!-- Generator: Adobe Illustrator 14.0.0, SVG Export Plug-In . SVG Version: 6.00 Build 43363)  -->
<!DOCTYPE svg PUBLIC "-//W3C//DTD SVG 1.1//EN" "http://www.w3.org/Graphics/SVG/1.1/DTD/svg11.dtd">
<svg version="1.1" id="content" xmlns="http://www.w3.org/2000/svg" xmlns:xlink="http://www.w3.org/1999/xlink" x="0px" y="0px"
	 width="500px" height="500px" viewBox="0 0 500 500" enable-background="new 0 0 500 500" xml:space="preserve">
<g id="shoes">
	<path fill="#4F4624" d="M126.661,464.732c0,0,10.365,8.343,35.291,7.72c19.264-0.479,37.229-10.129,37.229-10.129l8.156,6.829
		c0,0,1.376-0.034,12.083-0.302c7.505-0.188,11.759-0.294,11.759-0.294s4.941-0.755,5.115-5.658
		c0.301-8.447,0.781-13.087,0.781-13.087l-8.67-5.298l-102.089,12.654L126.661,464.732z"/>
	<path fill="#695E30" d="M126.243,457.689c0,0,0.405-10.085,20.545-10.588c10.135-0.254,13.826-2.716,24.717-14.909
		c7.381-7.692,9.294-9.254,9.294-9.254s5.211,4.677,10.266,9.292c8.104-2.441,38.847-10.851,38.847-10.851
		c3.136-1.014,7.363,2.188,7.574,10.612c0.211,8.423,0.837,17.692-0.938,17.737c-8.292,0.207-20.864,0.456-44.09,9.202
		C169.231,467.68,134.402,467.959,126.243,457.689z"/>
	<path fill="#584F28" d="M178.19,425.392l2.609-2.453c0,0,12.532,6.527,26.794,31.002c-2.316,0.663-9.039,2.868-9.039,2.868
		c-5.509-13.827-21.53-30.416-21.53-30.416L178.19,425.392z"/>
	<path fill="#8C7D40" d="M170.072,433.786c0,0,13.804,8.503,22.385,25.146c6.404-2.293,12.172-4.135,12.172-4.135
		s-12.801-21.566-26.438-29.406C172.539,431.119,170.072,433.786,170.072,433.786z"/>
	<path fill="#584F28" d="M192.224,436.813c-0.249,0.005-0.475-0.167-0.528-0.419c-0.06-0.284,0.122-0.564,0.407-0.624l0.507-0.108
		c0.29-0.057,0.564,0.12,0.626,0.402c0.063,0.284-0.118,0.566-0.402,0.628l-0.513,0.107
		C192.288,436.807,192.256,436.812,192.224,436.813z"/>
	<path fill="#584F28" d="M194.89,436.229c-0.252,0.006-0.501-0.156-0.557-0.405c-0.063-0.283,0.081-0.558,0.363-0.62l1.047-0.232
		c0.28-0.065,0.564,0.114,0.63,0.396c0.063,0.284-0.114,0.567-0.398,0.631l-0.979,0.22
		C194.961,436.225,194.926,436.229,194.89,436.229z M197.965,435.536c-0.245,0.007-0.468-0.159-0.525-0.406
		c-0.064-0.284,0.111-0.566,0.396-0.634l1.044-0.239c0.281-0.063,0.566,0.111,0.632,0.395c0.065,0.284-0.111,0.566-0.396,0.633
		l-1.046,0.241C198.035,435.531,198,435.536,197.965,435.536z M201.101,434.81c-0.244,0.005-0.467-0.159-0.524-0.405
		c-0.067-0.283,0.108-0.565,0.392-0.635l1.042-0.245c0.281-0.071,0.568,0.106,0.634,0.391c0.067,0.283-0.107,0.566-0.392,0.636
		l-1.044,0.246C201.173,434.806,201.137,434.809,201.101,434.81z M204.232,434.063c-0.243,0.006-0.466-0.157-0.524-0.403
		c-0.067-0.281,0.105-0.564,0.389-0.635l1.041-0.253c0.282-0.069,0.567,0.103,0.636,0.386c0.07,0.282-0.104,0.567-0.386,0.639
		l-1.043,0.253C204.306,434.059,204.269,434.063,204.232,434.063z M207.357,433.298c-0.241,0.006-0.462-0.154-0.522-0.399
		c-0.071-0.281,0.101-0.566,0.382-0.639l1.042-0.26c0.278-0.064,0.567,0.101,0.639,0.385c0.07,0.281-0.103,0.566-0.384,0.64
		l-1.041,0.258C207.434,433.293,207.396,433.298,207.357,433.298z M210.478,432.51c-0.24,0.008-0.46-0.152-0.522-0.396
		c-0.072-0.28,0.097-0.568,0.379-0.643l1.038-0.269c0.278-0.069,0.568,0.099,0.642,0.379c0.073,0.282-0.096,0.569-0.377,0.644
		l-1.038,0.268C210.557,432.504,210.518,432.51,210.478,432.51z M213.592,431.697c-0.238,0.007-0.458-0.149-0.522-0.392
		c-0.074-0.281,0.093-0.569,0.375-0.645l1.031-0.275c0.278-0.072,0.569,0.09,0.646,0.372c0.076,0.281-0.091,0.568-0.371,0.646
		l-1.037,0.276C213.672,431.691,213.632,431.695,213.592,431.697z M216.696,430.859c-0.235,0.005-0.456-0.15-0.521-0.389
		c-0.077-0.28,0.088-0.568,0.368-0.647l1.035-0.285c0.28-0.079,0.569,0.085,0.647,0.365s-0.086,0.57-0.366,0.647l-1.037,0.288
		C216.78,430.851,216.738,430.857,216.696,430.859z M219.795,429.986c-0.233,0.005-0.451-0.146-0.52-0.381
		c-0.081-0.279,0.081-0.572,0.361-0.651l1.028-0.298c0.28-0.084,0.571,0.078,0.652,0.357s-0.081,0.57-0.358,0.652l-1.032,0.299
		C219.884,429.979,219.839,429.985,219.795,429.986z M222.881,429.074c-0.231,0.007-0.446-0.142-0.517-0.372
		c-0.084-0.278,0.073-0.572,0.352-0.657l1.021-0.313c0.275-0.085,0.574,0.068,0.659,0.349c0.086,0.276-0.068,0.572-0.347,0.659
		l-1.029,0.313C222.975,429.067,222.928,429.074,222.881,429.074z M225.953,428.114c-0.228,0.005-0.44-0.139-0.515-0.364
		c-0.089-0.276,0.063-0.574,0.339-0.664l1.016-0.332c0.277-0.094,0.574,0.059,0.667,0.334c0.091,0.275-0.06,0.574-0.335,0.665
		l-1.021,0.336C226.052,428.104,226.002,428.111,225.953,428.114z M229.003,427.088c-0.223,0.006-0.434-0.131-0.51-0.353
		c-0.098-0.273,0.047-0.575,0.321-0.671l1.006-0.361c0.272-0.1,0.575,0.045,0.676,0.318c0.098,0.272-0.044,0.576-0.318,0.675
		l-1.014,0.36C229.111,427.077,229.057,427.088,229.003,427.088z M232.02,425.969c-0.215,0.007-0.42-0.122-0.503-0.333
		c-0.105-0.271,0.027-0.576,0.297-0.684c0.337-0.134,0.666-0.264,0.984-0.396c0.266-0.113,0.578,0.014,0.688,0.283
		c0.113,0.267-0.014,0.575-0.282,0.687c-0.325,0.137-0.66,0.273-1.005,0.407C232.14,425.955,232.08,425.967,232.02,425.969z"/>
	<path fill="#584F28" d="M235.636,424.434l-0.482,0.231c-0.066,0.032-0.14,0.047-0.209,0.051c-0.202,0.004-0.398-0.107-0.49-0.305
		c-0.124-0.262-0.012-0.576,0.252-0.699l0.391-0.188C235.097,423.524,235.527,423.943,235.636,424.434z"/>
	<path fill="#8C7D40" d="M157.01,465.976L157.01,465.976l-1.059,0.021c-0.292,0.003-0.531-0.23-0.535-0.521
		c-0.003-0.288,0.226-0.525,0.515-0.531c0.002,0,0.004,0,0.006,0l1.048-0.021c0.291-0.006,0.532,0.225,0.538,0.514
		C157.53,465.727,157.3,465.969,157.01,465.976z M159.115,465.909c-0.286,0.009-0.527-0.218-0.538-0.505
		c-0.014-0.291,0.214-0.536,0.505-0.547l1.054-0.048c0.002,0,0.004,0,0.006,0c0.288-0.008,0.528,0.219,0.539,0.508
		c0.011,0.29-0.215,0.534-0.506,0.545l-1.05,0.047C159.122,465.909,159.118,465.909,159.115,465.909z M153.852,466.006
		c-0.005,0-0.01,0-0.016,0c-0.357-0.002-0.711-0.006-1.061-0.011c-0.291-0.007-0.521-0.248-0.517-0.538
		c0.005-0.291,0.246-0.505,0.535-0.518c0.344,0.006,0.692,0.01,1.046,0.012c0.291,0,0.524,0.238,0.523,0.529
		C154.363,465.764,154.135,465.997,153.852,466.006z M162.27,465.744c-0.281,0.008-0.52-0.21-0.538-0.492
		c-0.019-0.288,0.2-0.541,0.49-0.562l1.046-0.071c0.275-0.049,0.542,0.195,0.564,0.484c0.021,0.291-0.195,0.543-0.485,0.564
		l-1.055,0.075C162.284,465.744,162.276,465.744,162.27,465.744z M150.694,465.938c-0.011,0-0.021,0.001-0.031,0
		c-0.358-0.012-0.711-0.028-1.061-0.045c-0.29-0.014-0.514-0.262-0.5-0.552c0.015-0.291,0.252-0.523,0.553-0.502
		c0.344,0.019,0.691,0.033,1.044,0.046c0.291,0.011,0.518,0.255,0.508,0.546C151.196,465.713,150.97,465.932,150.694,465.938z
		 M165.418,465.496c-0.275,0.007-0.513-0.199-0.538-0.477c-0.026-0.292,0.186-0.548,0.476-0.575l1.043-0.1
		c0.294-0.054,0.548,0.181,0.578,0.47s-0.181,0.547-0.47,0.577l-1.054,0.103C165.442,465.495,165.43,465.496,165.418,465.496z
		 M147.542,465.766c-0.018,0-0.035-0.001-0.053-0.001c-0.358-0.026-0.711-0.054-1.058-0.086c-0.289-0.026-0.503-0.282-0.478-0.57
		c0.025-0.289,0.274-0.501,0.57-0.479c0.342,0.029,0.688,0.059,1.042,0.084c0.29,0.021,0.509,0.273,0.487,0.563
		C148.033,465.551,147.809,465.76,147.542,465.766z M168.558,465.161c-0.268,0.007-0.503-0.191-0.536-0.463
		c-0.036-0.29,0.171-0.551,0.458-0.588c0.35-0.042,0.697-0.085,1.04-0.13c0.292-0.036,0.554,0.165,0.591,0.452
		c0.038,0.289-0.165,0.554-0.451,0.592c-0.35,0.046-0.698,0.09-1.052,0.134C168.592,465.159,168.575,465.16,168.558,465.161z
		 M144.397,465.469c-0.023,0-0.05-0.001-0.075-0.005c-0.355-0.042-0.708-0.085-1.053-0.13c-0.288-0.041-0.491-0.307-0.452-0.595
		s0.304-0.487,0.593-0.452c0.338,0.047,0.685,0.09,1.035,0.131c0.289,0.035,0.496,0.296,0.461,0.585
		C144.876,465.267,144.655,465.461,144.397,465.469z M171.687,464.734c-0.262,0.005-0.493-0.183-0.534-0.449
		c-0.043-0.287,0.154-0.555,0.443-0.599c0.347-0.054,0.692-0.106,1.034-0.162c0.285-0.044,0.558,0.147,0.604,0.435
		c0.047,0.288-0.147,0.559-0.435,0.605c-0.346,0.055-0.694,0.11-1.046,0.163C171.731,464.731,171.708,464.732,171.687,464.734z
		 M174.802,464.217c-0.255,0.007-0.483-0.172-0.53-0.434c-0.052-0.285,0.139-0.562,0.423-0.611c0.347-0.064,0.689-0.126,1.03-0.192
		c0.284-0.059,0.563,0.131,0.617,0.417s-0.132,0.561-0.417,0.617c-0.344,0.063-0.69,0.131-1.041,0.195
		C174.856,464.214,174.829,464.216,174.802,464.217z M141.272,465.021c-0.034,0.001-0.066,0-0.102-0.008
		c-0.357-0.061-0.705-0.123-1.046-0.188c-0.286-0.056-0.474-0.329-0.419-0.614c0.054-0.286,0.327-0.47,0.613-0.421
		c0.335,0.063,0.678,0.125,1.027,0.186c0.288,0.048,0.48,0.32,0.432,0.605C141.734,464.837,141.519,465.016,141.272,465.021z
		 M177.9,463.604c-0.249,0.006-0.474-0.165-0.527-0.419c-0.061-0.285,0.121-0.563,0.405-0.623c0.345-0.074,0.685-0.148,1.022-0.224
		c0.285-0.068,0.565,0.112,0.63,0.397s-0.114,0.565-0.399,0.629c-0.341,0.078-0.686,0.153-1.033,0.227
		C177.964,463.598,177.932,463.602,177.9,463.604z M138.177,464.398c-0.044,0.001-0.089-0.003-0.134-0.012
		c-0.354-0.084-0.7-0.17-1.035-0.257c-0.282-0.072-0.451-0.361-0.377-0.644c0.073-0.279,0.359-0.45,0.642-0.377
		c0.327,0.086,0.663,0.17,1.009,0.25c0.283,0.066,0.458,0.35,0.394,0.632C138.62,464.23,138.411,464.394,138.177,464.398z
		 M180.979,462.899c-0.242,0.007-0.464-0.157-0.523-0.402c-0.069-0.279,0.104-0.566,0.387-0.637l1.017-0.251
		c0.286-0.076,0.569,0.1,0.642,0.381c0.07,0.28-0.101,0.568-0.381,0.641l-1.026,0.254
		C181.053,462.893,181.015,462.898,180.979,462.899z M135.133,463.563c-0.058,0.003-0.117-0.006-0.175-0.025
		c-0.351-0.11-0.688-0.225-1.013-0.341c-0.273-0.097-0.417-0.396-0.319-0.672c0.097-0.275,0.396-0.418,0.672-0.321
		c0.315,0.112,0.643,0.223,0.981,0.331c0.277,0.092,0.43,0.388,0.342,0.664C135.551,463.418,135.35,463.559,135.133,463.563z
		 M184.036,462.108c-0.237,0.007-0.455-0.147-0.521-0.388c-0.077-0.281,0.089-0.571,0.369-0.646l1.011-0.281
		c0.279-0.081,0.571,0.085,0.649,0.364c0.079,0.28-0.084,0.571-0.364,0.649l-1.019,0.283
		C184.12,462.103,184.078,462.108,184.036,462.108z M187.071,461.24c-0.23,0.005-0.446-0.145-0.517-0.377
		c-0.083-0.279,0.075-0.572,0.354-0.654l1.003-0.305c0.28-0.082,0.572,0.069,0.658,0.348c0.085,0.276-0.069,0.572-0.348,0.658
		l-1.012,0.309C187.164,461.23,187.118,461.238,187.071,461.24z M132.178,462.455c-0.074,0.002-0.151-0.012-0.224-0.044
		c-0.344-0.148-0.668-0.301-0.977-0.45c-0.261-0.131-0.369-0.443-0.241-0.705c0.128-0.264,0.445-0.367,0.706-0.242
		c0.295,0.146,0.605,0.291,0.935,0.435c0.266,0.115,0.388,0.427,0.27,0.692C132.562,462.334,132.375,462.451,132.178,462.455z
		 M190.088,460.302c-0.229,0.006-0.441-0.137-0.516-0.364c-0.089-0.276,0.063-0.574,0.34-0.663l0.999-0.324
		c0.276-0.095,0.574,0.061,0.665,0.334c0.091,0.277-0.061,0.576-0.337,0.665l-1.004,0.328
		C190.188,460.293,190.138,460.301,190.088,460.302z M129.383,460.992c-0.101,0.004-0.201-0.021-0.292-0.079
		c-0.331-0.206-0.632-0.409-0.903-0.604c-0.234-0.171-0.288-0.502-0.117-0.736c0.168-0.234,0.498-0.288,0.734-0.116
		c0.254,0.182,0.535,0.372,0.844,0.563c0.246,0.154,0.322,0.479,0.168,0.727C129.719,460.902,129.554,460.988,129.383,460.992z
		 M193.087,459.312c-0.227,0.006-0.438-0.134-0.514-0.359c-0.092-0.275,0.056-0.573,0.332-0.666l0.994-0.339
		c0.274-0.096,0.574,0.055,0.668,0.328c0.095,0.275-0.053,0.576-0.328,0.669l-1,0.339
		C193.191,459.302,193.139,459.311,193.087,459.312z M196.073,458.287c-0.223,0.006-0.434-0.133-0.511-0.354
		c-0.095-0.275,0.049-0.576,0.324-0.67l0.994-0.346c0.277-0.098,0.577,0.05,0.671,0.323c0.096,0.275-0.049,0.574-0.324,0.671
		l-0.996,0.346C196.181,458.276,196.127,458.286,196.073,458.287z M199.057,457.247c-0.223,0.007-0.434-0.131-0.511-0.353
		c-0.094-0.276,0.051-0.576,0.326-0.67l0.997-0.347c0.276-0.094,0.573,0.05,0.67,0.324c0.096,0.273-0.049,0.574-0.324,0.671
		l-0.997,0.347C199.164,457.237,199.11,457.246,199.057,457.247z M126.243,457.689c-0.015-0.559,0.071-0.521,0.071-0.521
		c0.156,0.023,0.301,0.114,0.386,0.263c0.011,0.02,0.178,0.293,0.581,0.718c0.201,0.212,0.193,0.545-0.019,0.746
		c-0.098,0.093-0.224,0.142-0.35,0.145c-0.145,0.004-0.288-0.052-0.395-0.162c-0.097-0.103-0.181-0.194-0.256-0.282
		C126.265,458.594,126.257,458.25,126.243,457.689z M202.048,456.219c-0.225,0.006-0.438-0.133-0.512-0.357
		c-0.095-0.274,0.053-0.574,0.328-0.668l1.002-0.339c0.28-0.09,0.574,0.061,0.667,0.337c0.091,0.275-0.06,0.573-0.336,0.666
		l-0.992,0.333C202.152,456.209,202.1,456.219,202.048,456.219z M205.044,455.227c-0.229,0.006-0.441-0.138-0.515-0.368
		c-0.089-0.273,0.064-0.571,0.341-0.662l1.003-0.316c0.281-0.09,0.573,0.065,0.661,0.344c0.087,0.277-0.067,0.574-0.345,0.66
		l-0.999,0.316C205.143,455.217,205.094,455.224,205.044,455.227z M208.055,454.297c-0.232,0.006-0.449-0.145-0.517-0.377
		c-0.083-0.281,0.076-0.573,0.354-0.654c0.338-0.101,0.677-0.198,1.018-0.295c0.278-0.078,0.57,0.082,0.649,0.363
		c0.078,0.28-0.083,0.57-0.363,0.65l-1.006,0.291C208.146,454.288,208.101,454.296,208.055,454.297z M211.097,453.449
		c-0.239,0.005-0.459-0.152-0.523-0.394c-0.072-0.281,0.096-0.569,0.377-0.645c0.341-0.089,0.684-0.175,1.026-0.261
		c0.278-0.071,0.567,0.102,0.638,0.384c0.069,0.281-0.102,0.568-0.384,0.64c-0.339,0.084-0.677,0.169-1.013,0.256
		C211.177,453.442,211.137,453.448,211.097,453.449z M214.166,452.705c-0.247,0.01-0.473-0.162-0.527-0.41
		c-0.063-0.286,0.117-0.566,0.4-0.63c0.344-0.075,0.688-0.149,1.034-0.223c0.288-0.05,0.564,0.123,0.624,0.407
		c0.062,0.285-0.121,0.563-0.406,0.624c-0.343,0.072-0.685,0.145-1.023,0.221C214.234,452.702,214.2,452.704,214.166,452.705z
		 M217.262,452.086c-0.256,0.006-0.485-0.176-0.532-0.436c-0.052-0.285,0.139-0.559,0.425-0.611c0.347-0.062,0.695-0.123,1.047-0.18
		c0.285-0.046,0.557,0.147,0.604,0.436c0.047,0.286-0.146,0.558-0.435,0.605c-0.346,0.056-0.688,0.112-1.028,0.176
		C217.315,452.081,217.288,452.084,217.262,452.086z M220.379,451.594c-0.266,0.007-0.498-0.189-0.534-0.456
		c-0.039-0.288,0.164-0.555,0.452-0.592l1.05-0.139c0.286-0.02,0.552,0.172,0.587,0.459c0.035,0.288-0.17,0.553-0.459,0.589
		l-1.039,0.134C220.417,451.593,220.398,451.594,220.379,451.594z M223.515,451.199c-0.268,0.008-0.501-0.19-0.535-0.463
		c-0.035-0.289,0.171-0.552,0.46-0.587l1.047-0.124c0.29-0.025,0.551,0.175,0.584,0.463c0.034,0.288-0.173,0.549-0.463,0.583
		l-1.044,0.126C223.548,451.198,223.531,451.2,223.515,451.199z M226.654,450.844c-0.271,0.006-0.506-0.194-0.535-0.472
		c-0.031-0.29,0.177-0.549,0.468-0.579l1.051-0.11c0.297-0.024,0.548,0.185,0.576,0.475c0.029,0.289-0.184,0.547-0.474,0.575
		l-1.042,0.108C226.683,450.842,226.669,450.843,226.654,450.844z M237.008,450.443c-0.091,0.002-0.183-0.02-0.265-0.063
		c-0.046-0.014-0.224-0.062-0.686-0.095c-0.29-0.02-0.509-0.271-0.488-0.563c0.021-0.288,0.271-0.497,0.562-0.488
		c0.472,0.033,0.754,0.084,0.932,0.144l-0.086,0.115L237.008,450.443z M229.8,450.536c-0.276,0.007-0.514-0.202-0.539-0.48
		c-0.025-0.289,0.191-0.544,0.479-0.57l1.056-0.084c0.283-0.041,0.543,0.193,0.565,0.482c0.022,0.29-0.194,0.544-0.484,0.564
		l-1.045,0.087C229.821,450.536,229.81,450.536,229.8,450.536z M232.951,450.314c-0.284,0.007-0.524-0.215-0.539-0.5
		c-0.016-0.291,0.208-0.538,0.5-0.554c0.391-0.021,0.77-0.08,1.064-0.043c0.291-0.009,0.532,0.222,0.54,0.512
		c0.008,0.291-0.221,0.532-0.512,0.539c-0.313,0.011-0.659,0.024-1.04,0.046C232.96,450.314,232.956,450.314,232.951,450.314z"/>
	<path fill="#776A36" d="M131.901,456.836c0,0,0.734-6.533,21.624-7.228c12.117-0.402,16.549-11.343,16.549-11.343
		s10.99,6.683,13.899,17.575C165.746,459.532,146.517,449.719,131.901,456.836z"/>
</g>
<rect id="position" x="0" y="0" display="none" fill="none" stroke="#000000" width="500" height="500"/>
</svg>
