<?xml version="1.0" encoding="utf-8"?>
<!-- Generator: Adobe Illustrator 18.0.0, SVG Export Plug-In . SVG Version: 6.00 Build 0)  -->
<!DOCTYPE svg PUBLIC "-//W3C//DTD SVG 1.1//EN" "http://www.w3.org/Graphics/SVG/1.1/DTD/svg11.dtd">
<svg version="1.1" id="content" xmlns="http://www.w3.org/2000/svg" xmlns:xlink="http://www.w3.org/1999/xlink" x="0px" y="0px"
	 width="500px" height="500px" viewBox="0 0 500 500" enable-background="new 0 0 500 500" xml:space="preserve">
<rect id="position" display="none" fill="none" stroke="#000000" width="500" height="500"/>
<g id="bounds" display="none">
	<rect x="0.2" y="80.2" display="inline" fill="none" stroke="#EAEAEA" stroke-miterlimit="10" width="499.5" height="499.5"/>
</g>
<g id="shoes">
	<path fill="#202D49" d="M290.4,407.6c-21.1-1.4-30.5-12-41.2-18.3c-4.6,5.8-30.7,18.7-49.1,25.3c-18.4,6.6-56.4,9.3-71.4,12.8
		c-8.5,9.2-5.8,44.6-5.8,44.6h254.8c0,0,0-56-7.4-75.7C344.9,403.9,311.5,409,290.4,407.6z"/>
	<rect x="118.8" y="465.5" fill="#DDB887" width="262.4" height="11"/>
	<rect x="118.8" y="473.9" fill="#202D49" width="262.4" height="5.6"/>
	<path fill="#2E3E5B" d="M251.2,401c0,0-18,10.5-21,12.8c-3,2.2,0,5.9,0,5.9l10.2,22.8c59.5,0,119.1-10.8,135.4-13.7
		c-0.9-9.9-2.5-22.8-4.4-29c-23.9,8.5-58.3,13.4-98.5,13.4c0,0-11.3-9.8-14.9-12.2C254.5,398.6,251.2,401,251.2,401z"/>
	<path fill="#D1D3D4" d="M303.1,422.1c-11.3,1.1-22.7,2-33.8,2.6c-1.5,0.1-2.7,1.4-2.6,3c0.1,1.5,1.3,2.6,2.8,2.6c0.1,0,0.1,0,0.1,0
		c11.2-0.7,22.7-1.6,34-2.7c1.5-0.2,2.7-1.5,2.5-3.1C306,423.1,304.6,421.9,303.1,422.1z"/>
	<path fill="#D1D3D4" d="M365.6,413.7c-11.3,2-23.4,3.8-35.7,5.3c-1.5,0.2-2.6,1.6-2.4,3.1c0.2,1.4,1.4,2.5,2.8,2.4
		c0.1,0,0.2,0,0.3,0c12.4-1.6,24.5-3.4,35.9-5.4c1.5-0.3,2.5-1.7,2.3-3.2C368.6,414.5,367.2,413.5,365.6,413.7z"/>
	<path fill="#D1D3D4" d="M243.1,392.9c-1.4-1.5-3.7-1.6-5.2-0.2c-1.5,1.4-1.6,3.7-0.2,5.2l10.6,11c0.6,0.7,1.5,1.1,2.4,1.2
		c1,0.1,2-0.2,2.8-1c1.5-1.4,1.6-3.7,0.2-5.2L243.1,392.9z"/>
	<path fill="#D1D3D4" d="M231.7,399.8c-1.2-1.6-3.5-2-5.1-0.8c-1.6,1.2-2,3.5-0.8,5.1l9.3,12.1c0.6,0.8,1.4,1.3,2.2,1.4
		c1,0.2,2,0,2.9-0.6c1.6-1.2,2-3.5,0.8-5.1L231.7,399.8z"/>
	<path fill="#D1D3D4" d="M169.4,436.2l-3.4,0c-1.1,0-2-0.9-1.9-2c0-1.1,0.9-1.9,2-1.9c0,0,0,0,0,0l3.4,0l2.5,0c0,0,0,0,0,0
		c1.1,0,2,0.9,2,1.9c0,1.1-0.9,2-1.9,2L169.4,436.2L169.4,436.2z M177.8,436c-1.1,0-1.9-0.8-2-1.9c0-1.1,0.8-2,1.9-2
		c1.9-0.1,3.8-0.1,5.8-0.2c1.1-0.1,2,0.8,2.1,1.9c0.1,1.1-0.8,2-1.9,2.1C181.7,435.9,179.8,436,177.8,436
		C177.8,436,177.8,436,177.8,436L177.8,436z M160.1,436C160.1,436,160.1,436,160.1,436c-2.1-0.1-4.1-0.2-6-0.3
		c-1.1-0.1-1.9-1-1.9-2.1c0.1-1.1,1-2,2.1-1.8c1.8,0.1,3.8,0.2,5.8,0.3c1.1,0,1.9,0.9,1.9,2C162.1,435.2,161.2,436,160.1,436
		L160.1,436z M189.6,435.5c-1,0-1.9-0.8-2-1.9c-0.1-1.1,0.8-2,1.8-2.1c1.9-0.1,3.9-0.3,5.8-0.4c1.1-0.2,2,0.7,2.1,1.8
		c0.1,1.1-0.7,2-1.8,2.1c-2,0.2-4,0.3-5.9,0.4C189.7,435.5,189.6,435.5,189.6,435.5L189.6,435.5z M148.4,435.3c-0.1,0-0.1,0-0.2,0
		c-2.1-0.2-4.1-0.4-5.9-0.6c-1.1-0.1-1.8-1.1-1.7-2.2c0.1-1.1,1.1-1.8,2.2-1.7c1.8,0.2,3.7,0.4,5.8,0.6c1.1,0.1,1.9,1,1.8,2.1
		C150.3,434.5,149.4,435.3,148.4,435.3L148.4,435.3z M201.3,434.6c-1,0-1.9-0.8-2-1.8c-0.1-1.1,0.7-2,1.8-2.1
		c1.9-0.2,3.9-0.4,5.8-0.6c1.1-0.1,2,0.7,2.2,1.7c0.1,1.1-0.7,2-1.7,2.2c-2,0.2-4,0.4-5.9,0.6C201.4,434.6,201.4,434.6,201.3,434.6
		L201.3,434.6z M136.7,434c-0.1,0-0.2,0-0.3,0c-2.6-0.4-4.5-0.7-5.9-1c-1.1-0.2-1.7-1.3-1.5-2.3c0.2-1.1,1.3-1.8,2.3-1.5
		c1.3,0.3,3.2,0.6,5.7,1c1.1,0.2,1.8,1.2,1.6,2.2C138.5,433.3,137.6,434,136.7,434L136.7,434z M213,433.3c-1,0-1.8-0.7-1.9-1.7
		c-0.1-1.1,0.6-2.1,1.7-2.2c1.9-0.2,3.8-0.5,5.8-0.8c1.1-0.2,2.1,0.6,2.2,1.7c0.1,1.1-0.6,2.1-1.7,2.2c-2,0.3-3.9,0.5-5.9,0.8
		C213.2,433.3,213.1,433.3,213,433.3L213,433.3z M224.7,431.7c-1,0-1.8-0.7-1.9-1.7c-0.2-1.1,0.6-2.1,1.6-2.2
		c1.9-0.3,3.8-0.6,5.8-0.9c1.1-0.2,2.1,0.5,2.3,1.6c0.2,1.1-0.5,2.1-1.6,2.3c-2,0.3-3.9,0.6-5.8,0.9
		C224.9,431.7,224.8,431.7,224.7,431.7L224.7,431.7z"/>
</g>
</svg>
