<?xml version="1.0" encoding="utf-8"?>
<!-- Generator: Adobe Illustrator 18.0.0, SVG Export Plug-In . SVG Version: 6.00 Build 0)  -->
<!DOCTYPE svg PUBLIC "-//W3C//DTD SVG 1.1//EN" "http://www.w3.org/Graphics/SVG/1.1/DTD/svg11.dtd">
<svg version="1.1" id="content" xmlns="http://www.w3.org/2000/svg" xmlns:xlink="http://www.w3.org/1999/xlink" x="0px" y="0px"
	 width="500px" height="500px" viewBox="0 0 500 500" enable-background="new 0 0 500 500" xml:space="preserve">
<rect id="position" display="none" fill="none" stroke="#000000" width="500" height="500"/>
<g id="bounds" display="none">
	<rect x="0.2" y="80.2" display="inline" fill="none" stroke="#EAEAEA" stroke-miterlimit="10" width="499.5" height="499.5"/>
</g>
<g id="shoes">
	<rect x="119" y="462.4" fill="#492E1F" width="263.2" height="17"/>
	<path fill="#613E27" d="M258.3,390.8c0,0,18-4.9,31.8,1.2c13.9,6.1,5.7,24.4,15.9,26.6c9,2,53.5,5.4,69.3-15.8
		c2-2.7,6.9-5.3,6.9-2.1c0,30.8,0,63.9,0,63.9H119c0,0-2.4-29.6,16.7-29.6C154.8,434.9,231.5,445.8,258.3,390.8z"/>
	<path fill="#492E1F" d="M303.1,417.2c0.4-7.4,0-21.6-12.3-26.9c-13.9-6.1-32.6,0.5-32.6,0.5c-1.5,3.1-3.1,5.9-4.7,8.5l0,0
		c0,0,32.6-9.5,37.7,10.8c-12.2,17.4-53.7,41.5-110.3,37.2C237.3,454.4,273.8,440.1,303.1,417.2z"/>
	<circle fill="#332015" cx="304" cy="449.9" r="5.1"/>
	<circle fill="#332015" cx="273.3" cy="449.9" r="5.1"/>
	<circle fill="#332015" cx="341.7" cy="449.9" r="5.1"/>
	<circle fill="#332015" cx="372.1" cy="449.9" r="5.1"/>
	<path fill="#492E1F" d="M305,449.9c0,1.6-1.3,2.9-2.9,2.9h-27.7c-1.6,0-2.9-1.3-2.9-2.9l0,0c0-1.6,1.3-2.9,2.9-2.9h27.7
		C303.7,447,305,448.3,305,449.9L305,449.9z"/>
	<path fill="#492E1F" d="M374,449.9c0,1.6-1.3,2.9-2.9,2.9h-27.7c-1.6,0-2.9-1.3-2.9-2.9l0,0c0-1.6,1.3-2.9,2.9-2.9h27.7
		C372.7,447,374,448.3,374,449.9L374,449.9z"/>
</g>
</svg>
