<?xml version="1.0" encoding="utf-8"?>
<!-- Generator: Adobe Illustrator 18.0.0, SVG Export Plug-In . SVG Version: 6.00 Build 0)  -->
<!DOCTYPE svg PUBLIC "-//W3C//DTD SVG 1.1//EN" "http://www.w3.org/Graphics/SVG/1.1/DTD/svg11.dtd">
<svg version="1.1" id="content" xmlns="http://www.w3.org/2000/svg" xmlns:xlink="http://www.w3.org/1999/xlink" x="0px" y="0px"
	 width="500px" height="500px" viewBox="0 0 500 500" enable-background="new 0 0 500 500" xml:space="preserve">
<rect id="position" display="none" fill="none" stroke="#000000" width="500" height="500"/>
<g id="bounds" display="none">
	<rect x="0.2" y="80.2" display="inline" fill="none" stroke="#EAEAEA" stroke-miterlimit="10" width="499.5" height="499.5"/>
</g>
<g id="shoes">
	<path fill="#595063" d="M379.4,455.8c0,0,3.7,7.5,0,13.5c-3.7,6,3.9,10.4-24.9,10.4c-28.7,0-54.6-4.3-95.8-4.3
		c-41.2,0-56.1,4.1-85.8,2.5c-29.7-1.6-54.5-9.7-54.7-18.9c-0.3-9.2,6-17.3,41.5-11.2C195.1,453.8,379.4,455.8,379.4,455.8z"/>
	<path fill="#8E4979" d="M165,436.3c20.3-5.3,66.8-27.5,80.8-40.4c0,0,37.5,27.7,75.3,26.3c35.7-2.3,53.7-13.1,53.7-13.1
		s11.2,11.1,5.4,47.1c-66.3,11.5-79.9,1.2-136.7,6.9c-27.4,2.8-53.1,2.7-73.9,0.6L165,436.3z"/>
	<path fill="#8E4979" d="M243.5,397.9l12-13.5c0,0,5.3,9.9,1.9,23.8C247,401.4,243.5,397.9,243.5,397.9z"/>
	<path fill="#595063" d="M317.4,424.2c-36.7,0-72.8-25.2-73.9-26.3l3.1-3.7c0.3,0.3,36,25.4,70.8,25.4c35.1,0,56.3-12.9,56.5-13.1
		l2,4.1C375,411.2,353.8,424.2,317.4,424.2z"/>
	<path fill="#595063" d="M379.4,455.8c0,0-0.7,1.6-16.3,5.2c10.9-22.2-1.2-46.7-1.2-46.7l13-5.6C374.9,408.7,386,427.6,379.4,455.8z
		"/>
	<circle fill="#BFBFBF" cx="201" cy="424" r="4.3"/>
	<circle fill="#BFBFBF" cx="214.1" cy="416.9" r="4.3"/>
	<circle fill="#BFBFBF" cx="226.8" cy="410.5" r="4.3"/>
	<circle fill="#BFBFBF" cx="239.8" cy="403.1" r="4.3"/>
	<path fill="#595063" d="M241.2,404.6c-1.7,1.1-3.9,0.9-4.9-0.6l-3.8-5.7c-1-1.5-0.4-3.6,1.3-4.7l0,0c1.7-1.1,3.9-0.9,4.9,0.6
		l3.8,5.7C243.5,401.3,242.9,403.4,241.2,404.6L241.2,404.6z"/>
	<path fill="#595063" d="M228.1,412.4c-1.7,1.1-3.8,0.9-4.8-0.5l-3.6-5.4c-0.9-1.4-0.3-3.5,1.4-4.6l0,0c1.7-1.1,3.8-0.9,4.8,0.5
		l3.6,5.4C230.4,409.2,229.8,411.3,228.1,412.4L228.1,412.4z"/>
	<path fill="#595063" d="M215.6,419c-1.7,1.1-3.8,1-4.6-0.3l-3.3-4.9c-0.8-1.3-0.1-3.2,1.6-4.4l0,0c1.7-1.1,3.8-1,4.6,0.3l3.3,4.9
		C218,415.9,217.3,417.9,215.6,419L215.6,419z"/>
	<path fill="#595063" d="M202.9,426.4c-1.7,1.1-3.7,1.2-4.4,0.1l-2.8-4.1c-0.7-1.1,0.1-2.9,1.8-4l0,0c1.7-1.1,3.7-1.2,4.4-0.1
		l2.8,4.1C205.4,423.5,204.6,425.3,202.9,426.4L202.9,426.4z"/>
	<path fill="#B55492" d="M235.4,437.3c-36.4,2.1-45.8-6.5-48-9c-2.8,1.2-16,5.7-19.3,6.6c-13.4,3.8-17.5,1.8-30.6,3.4
		c-8.3,1.7-15.2,5.2-15.1,11.5c14.1,12.4,63.4,18.7,120.1,13c14-1.4,34-1.9,43.4-1.9C285.7,458.8,272.5,434.9,235.4,437.3z"/>
	<path fill="#595063" d="M260.5,406.4l-3.9-2.4c5.7-9.4-3.7-16-3.4-17.1l3.9-4.3C257.5,383.2,267.7,394.4,260.5,406.4z"/>
</g>
</svg>
