<?xml version="1.0" encoding="utf-8"?>
<!-- Generator: Adobe Illustrator 18.0.0, SVG Export Plug-In . SVG Version: 6.00 Build 0)  -->
<!DOCTYPE svg PUBLIC "-//W3C//DTD SVG 1.1//EN" "http://www.w3.org/Graphics/SVG/1.1/DTD/svg11.dtd">
<svg version="1.1" id="content" xmlns="http://www.w3.org/2000/svg" xmlns:xlink="http://www.w3.org/1999/xlink" x="0px" y="0px"
	 width="500px" height="500px" viewBox="0 0 500 500" enable-background="new 0 0 500 500" xml:space="preserve">
<rect id="position" display="none" fill="none" stroke="#000000" width="500" height="500"/>
<g id="bounds" display="none">
	<rect x="0.2" y="80.2" display="inline" fill="none" stroke="#EAEAEA" stroke-miterlimit="10" width="499.5" height="499.5"/>
</g>
<g id="shoes">
	<path fill="#26222D" d="M370.3,394.7c0,0-46.5,27.9-104.6,12.3c12.2-14.6-3.5-21.8-20.4-23c-16.9-1.2-18.5,65.6-113.8,70.1
		c-19.7,2.3-11.5,20.5-11.5,20.5s125.7,19.4,181.6-14.2c21.4-1.3,26.9-1.6,26.9-1.6l0.8,13.1h45.5
		C374.8,472,393.1,436.9,370.3,394.7z"/>
	<path fill="#393444" d="M124.2,456.2c1.8-1,4.2-1.7,7.2-2c82.5-3.9,94.8-54.4,107.5-67.2l23.1,10.2c0,0-10.1,52.6-111,63.2
		C138.1,460.9,129.7,459.1,124.2,456.2z"/>
</g>
</svg>
