<?xml version="1.0" encoding="utf-8"?>
<!-- Generator: Adobe Illustrator 14.0.0, SVG Export Plug-In . SVG Version: 6.00 Build 43363)  -->
<!DOCTYPE svg PUBLIC "-//W3C//DTD SVG 1.1//EN" "http://www.w3.org/Graphics/SVG/1.1/DTD/svg11.dtd">
<svg version="1.1" id="content" xmlns="http://www.w3.org/2000/svg" xmlns:xlink="http://www.w3.org/1999/xlink" x="0px" y="0px"
	 width="500px" height="500px" viewBox="0 0 500 500" enable-background="new 0 0 500 500" xml:space="preserve">
<g id="shoes">
	<path fill="#191919" d="M237.162,458.814v5.543l-27.694,0.166v-2.364c0,0-14.923-2.047-23.369,2.341
		c-18.471,0-76.073,0.097-76.073,0.097s-0.61-6.301,5.036-6.301c5.647,0,1.968-2.722,1.968-2.722l120.322-3.938L237.162,458.814z"/>
	<path fill="#0C0C0C" d="M232.894,419.079c0,0-21.135,13.918-52.545,1.918c-23.693,12.417-35.161,19.284-58.387,23.739
		c-11.128,2.506-9.9,14.723-9.9,14.723s124.187,0.347,125.101,0.19c0,0,1.679-4.794,1.256-19.639
		C237.995,425.168,232.894,419.079,232.894,419.079z"/>
	<path fill="#111111" d="M160.989,446.836c-12.303,4.832-21.271,5.521-24.381-4.489l0,0c14.78-4.415,25.691-10.028,44.005-19.627
		c31.41,12,51.771-1.666,51.771-1.666s3.771,3.89,4.195,18.731c0.423,14.842-2.19,18.906-2.19,18.906
		c-0.207,0.035-13.417,0-13.417,0S200.774,434.2,160.989,446.836z"/>
	
		<line fill="none" stroke="#282828" stroke-width="2" stroke-linecap="round" stroke-linejoin="round" x1="174.668" y1="422.719" x2="184.394" y2="429.134"/>
	
		<line fill="none" stroke="#282828" stroke-width="2" stroke-linecap="round" stroke-linejoin="round" x1="169.415" y1="425.927" x2="177.469" y2="432.701"/>
	
		<line fill="none" stroke="#282828" stroke-width="2" stroke-linecap="round" stroke-linejoin="round" x1="163.349" y1="429.016" x2="170.722" y2="435.599"/>
	
		<line fill="none" stroke="#282828" stroke-width="2" stroke-linecap="round" stroke-linejoin="round" x1="157.629" y1="431.675" x2="164.349" y2="438.525"/>
	
		<line fill="none" stroke="#282828" stroke-width="2" stroke-linecap="round" stroke-linejoin="round" x1="151.642" y1="435.022" x2="157.446" y2="441.893"/>
	
		<line fill="none" stroke="#282828" stroke-width="2" stroke-linecap="round" stroke-linejoin="round" x1="144.868" y1="437.947" x2="150.189" y2="444.635"/>
</g>
<rect id="position" x="0" y="0" display="none" fill="none" stroke="#000000" width="500" height="500"/>
</svg>
