<?xml version="1.0" encoding="utf-8"?>
<!-- Generator: Adobe Illustrator 18.0.0, SVG Export Plug-In . SVG Version: 6.00 Build 0)  -->
<!DOCTYPE svg PUBLIC "-//W3C//DTD SVG 1.1//EN" "http://www.w3.org/Graphics/SVG/1.1/DTD/svg11.dtd">
<svg version="1.1" id="content" xmlns="http://www.w3.org/2000/svg" xmlns:xlink="http://www.w3.org/1999/xlink" x="0px" y="0px"
	 width="500px" height="500px" viewBox="0 0 500 500" enable-background="new 0 0 500 500" xml:space="preserve">
<rect id="position" display="none" fill="none" stroke="#000000" width="500" height="500"/>
<g id="bounds" display="none">
	<rect x="0.2" y="80.2" display="inline" fill="none" stroke="#EAEAEA" stroke-miterlimit="10" width="499.5" height="499.5"/>
</g>
<g id="shoes">
	<path fill="#23170C" d="M376.3,424.4v46.7h-75.1l-5.5-10v-4l44.5,2C340.2,459.1,371.3,443.1,376.3,424.4z"/>
	<path fill="#23170C" d="M120.6,445.2c2.4,17.6,44.6,59.1,145.4,16c20.6-7.2,92.4,20.2,108.6-21.6c4.3-11,0-30.6,0-30.6L120,438.7
		L120.6,445.2z"/>
	<path fill="#352311" d="M363,385.5c-7.6,9.7-43.7,36.1-105.4-3.2c-56.7,46.3-102,51.2-135.8,49.7c-1.1,0-3.5,2.8-2.9,4.6
		c5.7,18,54.1,52.8,145.8,13.6c25.7-9,91,14.2,106.1-22c7.4-17.7,1.5-33.3-2.6-40.9L363,385.5z"/>
	<path fill="#47301A" d="M257.6,382.4c59.7,33.4,97.9,9.9,105.6,2.2c1.3-1.3,2.7-1.2,3.9,0.5c4.1,6.1,13.3,21.1,14.5,33.2
		c0.7,7-0.3,25.8-5.3,33.5c-35.3,0-39.3,0-39.3,0h-22.8c0,0-25.1-48-89.1-17.1c-7.6-12.5-4.6-26.6-2.7-27.7c0,0,0,0,0,0
		C233.5,400.5,245.3,392.4,257.6,382.4z"/>
	<path fill="#895C33" d="M253.1,408.8c-0.5,0-1-0.2-1.3-0.5l-12.5-11.6c-0.8-0.7-0.9-2-0.1-2.8c0.7-0.8,2-0.9,2.8-0.1l12.5,11.6
		c0.8,0.7,0.9,2,0.1,2.8C254.1,408.6,253.6,408.8,253.1,408.8L253.1,408.8z"/>
	<path fill="#895C33" d="M243.1,415.4c-0.5,0-1.1-0.2-1.5-0.7l-11.1-12.3c-0.7-0.8-0.7-2.1,0.1-2.8c0.8-0.7,2.1-0.7,2.8,0.1
		l11.1,12.3c0.7,0.8,0.7,2.1-0.1,2.8C244.1,415.2,243.6,415.4,243.1,415.4L243.1,415.4z"/>
	<path fill="#895C33" d="M232,420.3c-0.7,0-1.3-0.3-1.7-0.9l-7.7-12.5c-0.6-0.9-0.3-2.2,0.6-2.7c0.9-0.6,2.2-0.3,2.7,0.6l7.7,12.5
		c0.6,0.9,0.3,2.2-0.6,2.7C232.8,420.2,232.4,420.3,232,420.3L232,420.3z"/>
	<path fill="#895C33" d="M221.5,425.9c-0.8,0-1.5-0.5-1.8-1.2l-5.4-13.4c-0.4-1,0.1-2.2,1.1-2.6c1-0.4,2.2,0.1,2.6,1.1l5.4,13.4
		c0.4,1-0.1,2.2-1.1,2.6C221.9,425.8,221.7,425.9,221.5,425.9L221.5,425.9z"/>
	<path fill="#895C33" d="M211,429.5c-0.8,0-1.5-0.5-1.9-1.3l-4.7-12.2c-0.4-1,0.1-2.2,1.1-2.6c1-0.4,2.2,0.1,2.6,1.1l4.7,12.2
		c0.4,1-0.1,2.2-1.1,2.6C211.5,429.5,211.2,429.5,211,429.5L211,429.5z"/>
	<path fill="#895C33" d="M264.5,401.7c-0.4,0-0.8-0.1-1.2-0.4l-15-10.9c-0.9-0.6-1.1-1.9-0.4-2.8c0.6-0.9,1.9-1.1,2.8-0.4l15,10.9
		c0.9,0.6,1.1,1.9,0.4,2.8C265.7,401.5,265.1,401.7,264.5,401.7L264.5,401.7z"/>
	<path fill="#895C33" d="M276.6,447.9c0.1,0.7,0.6,1.2,1.3,1.1l9.2-0.4c0.7,0,1.2-0.6,1.1-1.3l0,0c-0.1-0.7-0.6-1.2-1.3-1.1
		l-9.2,0.4C277,446.7,276.5,447.2,276.6,447.9L276.6,447.9z"/>
	<path fill="#895C33" d="M295.9,450.6c0,0.7,0.6,1.2,1.2,1.2l5.2,0c0.7,0,1.2-0.5,1.2-1.2l0,0c0-0.7-0.6-1.2-1.2-1.2l-5.2,0
		C296.4,449.4,295.9,450,295.9,450.6L295.9,450.6z"/>
	<path fill="#895C33" d="M262.4,451.1c0.2,0.6,0.9,1,1.5,0.7l4.9-1.7c0.6-0.2,1-0.9,0.7-1.5l0,0c-0.2-0.6-0.9-1-1.5-0.7l-4.9,1.7
		C262.5,449.8,262.2,450.5,262.4,451.1L262.4,451.1z"/>
	<path fill="#895C33" d="M249.2,456.4c0.2,0.6,0.9,0.9,1.5,0.7l4.9-1.8c0.6-0.2,0.9-0.9,0.7-1.5l0,0c-0.2-0.6-0.9-0.9-1.5-0.7
		l-4.9,1.8C249.3,455.1,249,455.8,249.2,456.4L249.2,456.4z"/>
	<path fill="#895C33" d="M235.8,460.8c0.2,0.6,0.9,1,1.5,0.8l5-1.6c0.6-0.2,1-0.9,0.8-1.5l0,0c-0.2-0.6-0.9-1-1.5-0.8l-5,1.6
		C236,459.5,235.6,460.2,235.8,460.8L235.8,460.8z"/>
	<path fill="#895C33" d="M218.9,464.9c0.1,0.7,0.8,1.1,1.4,0.9l5.1-1.1c0.7-0.1,1.1-0.8,0.9-1.4l0,0c-0.1-0.7-0.8-1.1-1.4-0.9
		l-5.1,1.1C219.2,463.6,218.8,464.2,218.9,464.9L218.9,464.9z"/>
	<path fill="#895C33" d="M201.8,467.4c0.1,0.7,0.7,1.1,1.3,1.1l5.2-0.6c0.7-0.1,1.1-0.7,1.1-1.3l0,0c-0.1-0.7-0.7-1.1-1.3-1.1
		l-5.2,0.6C202.2,466.2,201.7,466.8,201.8,467.4L201.8,467.4z"/>
	<path fill="#895C33" d="M183.3,468.1c0,0.7,0.5,1.2,1.2,1.2l5.2,0.1c0.7,0,1.2-0.5,1.2-1.2l0,0c0-0.7-0.5-1.2-1.2-1.2l-5.2-0.1
		C183.9,466.9,183.3,467.4,183.3,468.1L183.3,468.1z"/>
	<path fill="#895C33" d="M162.8,465.6c-0.1,0.7,0.3,1.3,0.9,1.4l5.1,1.1c0.7,0.1,1.3-0.3,1.4-0.9l0,0c0.1-0.6-0.3-1.3-0.9-1.4
		l-5.1-1.1C163.5,464.5,162.9,464.9,162.8,465.6L162.8,465.6z"/>
	<path fill="#895C33" d="M146,460.3c-0.2,0.6,0.1,1.3,0.7,1.5l4.9,1.8c0.6,0.2,1.3-0.1,1.6-0.7l0,0c0.2-0.6-0.1-1.3-0.7-1.5
		l-4.9-1.8C146.9,459.4,146.2,459.7,146,460.3L146,460.3z"/>
	<path fill="#895C33" d="M130.4,451.4c-0.4,0.6-0.2,1.3,0.4,1.7l4.4,2.8c0.6,0.4,1.3,0.2,1.7-0.4l0,0c0.4-0.6,0.2-1.3-0.4-1.7
		l-4.4-2.8C131.5,450.7,130.8,450.9,130.4,451.4L130.4,451.4z"/>
</g>
</svg>
