<?xml version="1.0" encoding="utf-8"?>
<!-- Generator: Adobe Illustrator 14.0.0, SVG Export Plug-In . SVG Version: 6.00 Build 43363)  -->
<!DOCTYPE svg PUBLIC "-//W3C//DTD SVG 1.1//EN" "http://www.w3.org/Graphics/SVG/1.1/DTD/svg11.dtd">
<svg version="1.1" id="content" xmlns="http://www.w3.org/2000/svg" xmlns:xlink="http://www.w3.org/1999/xlink" x="0px" y="0px"
	 width="500px" height="500px" viewBox="0 0 500 500" enable-background="new 0 0 500 500" xml:space="preserve">
<g id="shoes">
	<path fill="#49261A" d="M182.135,414.504c0.12,2.679,0,5.347,0,5.347l0.027,1.509c0,0,11.138,12.749,40.025,9.118
		c-2.68,12.163-34.766,11.937-40.009-2.34c-3.07,29.403-31.236,52.585-31.236,52.585s17.134,5.489,36.028,3.645
		c6.416-0.626,14.108-0.42,19.952-6.142c0.016-2.333,16.635-34.653,16.635-34.653l5.65-20.6
		C229.209,422.97,198.371,428.5,182.135,414.504z"/>
	<path fill="#683925" d="M210.003,468.368c0.623-10.046,4.135-16.021,11.808-29.491c9.534-17.05,8.848-27.283,9.108-34.612
		c0,0,8.22,7.687,11.594,15.694c1.788,4.259,1.729,8.104-1.27,14.128c-2.998,6.024-7.143,28.675-5.924,47.286
		c-3.076,0.089-3.724,0.38-3.724,0.38l-1.559-37.467c0,0,0-3.688-4.282,0.813c-4.283,4.498-9.404,14.803-10.499,26.956
		c-0.737,8.278-14.728,15.957-33.188,15.73c-21.401-0.228-30.962-2.489-30.962-2.489l-0.165-4.574
		C150.943,480.722,208.595,491.084,210.003,468.368z"/>
</g>
<rect id="position" x="0" y="0" display="none" fill="none" stroke="#000000" width="500" height="500"/>
</svg>
