<?xml version="1.0" encoding="utf-8"?>
<!-- Generator: Adobe Illustrator 18.0.0, SVG Export Plug-In . SVG Version: 6.00 Build 0)  -->
<!DOCTYPE svg PUBLIC "-//W3C//DTD SVG 1.1//EN" "http://www.w3.org/Graphics/SVG/1.1/DTD/svg11.dtd">
<svg version="1.1" id="content" xmlns="http://www.w3.org/2000/svg" xmlns:xlink="http://www.w3.org/1999/xlink" x="0px" y="0px"
	 width="500px" height="500px" viewBox="0 0 500 500" enable-background="new 0 0 500 500" xml:space="preserve">
<rect id="position" display="none" fill="none" stroke="#000000" width="500" height="500"/>
<path id="shoes_1_" fill="#22150E" d="M182.2,428.3c0,0,12.4,7.9,29,0.3c16.6-7.6,19.7-18.4,19.7-18.4s14.3,11.8,3.5,29.3
	c-7.4,12.5-5.9,31.9-5.9,31.9h-3.8v-16.1c0,0-0.5-8.5-8.4-3.5c-7.9,5-11.8,18.7-18.7,18.7c-6.9,0-44.4,0-44.4,0s0.1-9.2,6.3-10.2
	C165.7,459.4,181.5,452.7,182.2,428.3z"/>
</svg>
