<?xml version="1.0" encoding="utf-8"?>
<!-- Generator: Adobe Illustrator 14.0.0, SVG Export Plug-In . SVG Version: 6.00 Build 43363)  -->
<!DOCTYPE svg PUBLIC "-//W3C//DTD SVG 1.1//EN" "http://www.w3.org/Graphics/SVG/1.1/DTD/svg11.dtd">
<svg version="1.1" id="content" xmlns="http://www.w3.org/2000/svg" xmlns:xlink="http://www.w3.org/1999/xlink" x="0px" y="0px"
	 width="500px" height="500px" viewBox="0 0 500 500" enable-background="new 0 0 500 500" xml:space="preserve">
<g id="shoes">
	<path fill="#22150E" d="M180.85,428.884c0,0,12.943,8.245,30.159,0.372c17.216-7.874,20.615-19.379,20.615-19.379
		s14.509,12.571,3.349,30.64c-7.613,12.963-6.143,33.032-6.143,33.032h-3.894V456.94c0,0-0.519-8.823-8.649-3.634
		c-8.133,5.189-12.198,19.336-19.335,19.336c-7.138,0-45.895,0-45.895,0s0.086-9.473,6.488-10.511
		C163.947,461.093,180.19,454.117,180.85,428.884z"/>
	<path fill="#22150E" d="M206.77,432.802c0,0-7.821-13.756-26.014-13.756c0-8.132,0-12.466,0-12.466s30.167,0.614,39.769,20.34
		C212.999,430.467,206.77,432.802,206.77,432.802z"/>
	<path fill="#B2871B" d="M207.412,431.6c-0.96,0-1.855-0.381-2.521-1.071l-4.86-5.055c-1.338-1.391-1.295-3.611,0.097-4.949
		l6.118-5.885c1.34-1.287,3.662-1.242,4.948,0.098l4.86,5.052c1.338,1.39,1.295,3.609-0.095,4.948l-6.118,5.886
		C209.182,431.255,208.32,431.6,207.412,431.6z M208.669,416.662c-0.092,0-0.227,0.024-0.347,0.141l-6.116,5.885
		c-0.199,0.191-0.205,0.509-0.015,0.707l4.86,5.054c0.127,0.133,0.28,0.152,0.36,0.152c0.092,0,0.228-0.024,0.349-0.142l6.116-5.883
		c0.199-0.19,0.205-0.509,0.014-0.706l-4.861-5.054C208.902,416.683,208.749,416.662,208.669,416.662z"/>
	<path fill="#B2871B" d="M207.772,422.946c-0.241,0-0.482-0.087-0.675-0.263l-3.557-3.256c-0.407-0.373-0.436-1.006-0.063-1.412
		c0.373-0.408,1.006-0.437,1.413-0.063l3.557,3.256c0.407,0.374,0.436,1.006,0.063,1.412
		C208.313,422.838,208.043,422.946,207.772,422.946z"/>
</g>
<rect id="position" x="0" y="0" display="none" fill="none" stroke="#000000" width="500" height="500"/>
</svg>
