<?xml version="1.0" encoding="utf-8"?>
<!-- Generator: Adobe Illustrator 14.0.0, SVG Export Plug-In . SVG Version: 6.00 Build 43363)  -->
<!DOCTYPE svg PUBLIC "-//W3C//DTD SVG 1.1//EN" "http://www.w3.org/Graphics/SVG/1.1/DTD/svg11.dtd">
<svg version="1.1" id="content" xmlns="http://www.w3.org/2000/svg" xmlns:xlink="http://www.w3.org/1999/xlink" x="0px" y="0px"
	 width="500px" height="500px" viewBox="0 0 500 500" enable-background="new 0 0 500 500" xml:space="preserve">
<g id="shoes">
	<path fill="#1E1E1E" d="M231.987,415.044c0,0-23.1,20.706-50.727,1.956c-6.126,46.789-30.701,48.12-42.496,53.595
		c-10.631,4.631-12.791,7.857-12.791,12.63c15.616,0,52.993,0,52.993,0s8.971,0.845,12.626-4.911
		c3.654-5.755,14.926-16.979,25.101-16.416c6.147,4.069,6.479,16.738,6.479,21.37c4.983,0,5.979,0,5.979,0
		s-1.23-15.214,5.446-25.375c10.309-12.421,6.527-24.422,4.027-30.61C236.125,421.09,231.987,415.044,231.987,415.044z"/>
	<path fill="#353535" d="M208.524,459.934c0,0-8.253,2.521-18.489,16.132c-5.745,6.777-27.3,3.848-27.3,3.848
		c14.644,0.124,21.964-1.354,29.533-10.667C199.837,459.933,208.524,459.934,208.524,459.934z"/>
	<path fill="#161616" d="M202.359,424.748c-7.247-0.753-14.259-2.151-21.1-8.266c-6.933,36.108-20.551,44.201-34.958,51.256
		C187.01,472.288,202.125,426.128,202.359,424.748z"/>
</g>
<rect id="position" x="0" y="0" display="none" fill="none" stroke="#000000" width="500" height="500"/>
</svg>
