<?xml version="1.0" encoding="utf-8"?>
<!-- Generator: Adobe Illustrator 18.0.0, SVG Export Plug-In . SVG Version: 6.00 Build 0)  -->
<!DOCTYPE svg PUBLIC "-//W3C//DTD SVG 1.1//EN" "http://www.w3.org/Graphics/SVG/1.1/DTD/svg11.dtd">
<svg version="1.1" id="content" xmlns="http://www.w3.org/2000/svg" xmlns:xlink="http://www.w3.org/1999/xlink" x="0px" y="0px"
	 width="500px" height="500px" viewBox="0 0 500 500" enable-background="new 0 0 500 500" xml:space="preserve">
<rect id="position" display="none" fill="none" stroke="#000000" width="500" height="500"/>
<g id="bounds" display="none">
	<rect x="0.2" y="80.2" display="inline" fill="none" stroke="#EAEAEA" stroke-miterlimit="10" width="499.5" height="499.5"/>
</g>
<g id="shoes">
	<path fill="#A33419" d="M212.4,390.2c0,0,20.8,20.1,78.8,10.5c48-7.6,64.8-27.4,64.8-27.4s24.7,19.3,7.1,54.6
		c-14.7,22.8-20.1,21.8-20.1,49.9c-5.6,0-7.8,0-7.8,0s3.9-23-17.1-23c-21,0-33,3.2-67.8,15.7c-20.6,7.8-86.4,21-86.4-9.3
		S186.9,401.2,212.4,390.2z"/>
	<path fill="#B53921" d="M285.5,423.9c36.3-1.8,65.6-16.6,83.2-28c-2.7-14.8-12.7-22.6-12.7-22.6s-16.9,19.8-64.8,27.4
		c-58,9.5-78.8-10.5-78.8-10.5c-25.4,11-48.5,40.6-48.5,71c0,13.8,13.6,18.6,30.4,19C194.4,480,225.3,427,285.5,423.9z"/>
	<path fill="#842714" d="M189.2,410.3c2.3-2.3,6.1-1.7,12.8-1l46,5.3c6.8,0.8,8.2,5.2,3.2,9.8L232.4,451c-5.5,4-13.2,2.6-17-3
		l-23.6-23.3C188.1,419,186.9,412.6,189.2,410.3z"/>
	<path fill="#661A12" d="M197.1,414.5l33.5,8.3c0,0-37.8-4.7-37.4-4.7C193.5,418.1,197.1,414.5,197.1,414.5z"/>
	<path fill="#661A12" d="M188.7,418.1c0,0,12.1,35.2,37,36.5c9.6,0.1,8.7-11.4-3.4-18.4C210.1,429.1,188.7,418.1,188.7,418.1z"/>
	<path fill="#842714" d="M189.2,410.3c0.4-3.2-1.2-1.9-5.9-6.8l-28.8-19.3c-4.9-3.7-7.6-1.9-9.7,3.4L131.1,414
		c-2.9,7.9,5.9,12,12.7,11.7l32.3-8.8C183,416.5,188.8,413.6,189.2,410.3z"/>
	<path fill="#661A12" d="M183.3,415.4c0,0-34.8,25.1-50.9,6.1c-5.9-7.5,3.7-13.9,16.7-8.5C162.1,418.4,183.3,415.4,183.3,415.4z"/>
	<polygon fill="#661A12" points="181.1,408.2 152,401 176.2,411.7 	"/>
	<circle fill="#E2472D" cx="188" cy="413.4" r="12.9"/>
</g>
</svg>
