<?xml version="1.0" encoding="utf-8"?>
<!-- Generator: Adobe Illustrator 18.0.0, SVG Export Plug-In . SVG Version: 6.00 Build 0)  -->
<!DOCTYPE svg PUBLIC "-//W3C//DTD SVG 1.1//EN" "http://www.w3.org/Graphics/SVG/1.1/DTD/svg11.dtd">
<svg version="1.1" id="content" xmlns="http://www.w3.org/2000/svg" xmlns:xlink="http://www.w3.org/1999/xlink" x="0px" y="0px"
	 width="500px" height="500px" viewBox="0 0 500 500" enable-background="new 0 0 500 500" xml:space="preserve">
<rect id="position" display="none" fill="none" stroke="#000000" width="500" height="500"/>
<g id="bounds" display="none">
	<rect x="0.2" y="80.2" display="inline" fill="none" stroke="#EAEAEA" stroke-miterlimit="10" width="499.5" height="499.5"/>
</g>
<g id="shoes">
	<path fill="#333231" d="M368.4,371.3c0,0-5.1,47-4.6,84.1c0,18.7,0,20.4,0,20.4s-2.5,2.4-6.8,2.4s-6.7-2.7-6.7-2.7
		s2.8-79.1-18.6-104C358.7,371.6,368.4,371.3,368.4,371.3z"/>
	<path fill="#333231" d="M357.3,269.3c0,0-14.4,16.8-20,45.4c-3,15.4-17.8,40.8-66.2,40.8c-25.8,0-51.7-12-53.8-29.2
		c-5.8,32.7-13.6,105.2-52.4,115.3c-22.6,6-44.1,4.6-44.1,4.6s-5.6,18.4,2.1,26.2c5.7,5.7,28.7,4.7,43.4,4.7c14.7,0,73,0,73,0
		s28.2,0.2,39.3-17.3c13.3-21.2,33.6-74.7,56.7-74.4c64.7,0.8,44.5-78.2,36.8-93.4C364.3,276.8,359.6,271.3,357.3,269.3z"/>
	<path fill="#434140" d="M194.1,450.1c0,0,40.8-21.6,36.7-83.7c11.9,18.7,39.1,10.8,39.1,10.8S236.8,455.4,194.1,450.1z"/>
	<path fill="#F30202" d="M154.5,480.3c-16.2,0-29.2-0.3-33.6-5.6c-1.7-2.1-1.7-3.9-1.2-8c0,0,2.4,2.8,3.5,3.9
		c4.2,4.2,24.7,4.2,37.2,4.1c2,0,4,0,5.8,0h73c0.3,0,26.9,0,37-16c3.2-5,6.9-12.2,10.8-19.7c12.9-25,29-56,48.1-56
		c0.1,0,0.2,0,0.2,0c1.4,0,2.7,0,4-0.1c0.1,0,0.2,0,0.3,0c0.1,0,14.5,0.8,25.7-9.6c1.1-1,7.5-8.1,8.5-7c1,1.1-0.7,7.2-4.8,11.1
		c-12.3,11.6-27.8,11.1-29.7,11c-1.4,0.1-2.8,0.1-4.2,0.1c-0.1,0-0.1,0-0.2,0c-15.7,0-31.6,30.6-43.2,53c-4,7.7-7.7,14.9-11,20.1
		c-11.7,18.6-40.5,18.6-41.7,18.6h-73c-1.8,0-3.8,0-5.8,0C158.4,480.3,156.4,480.3,154.5,480.3z"/>
</g>
</svg>
