<?xml version="1.0" encoding="utf-8"?>
<!-- Generator: Adobe Illustrator 14.0.0, SVG Export Plug-In . SVG Version: 6.00 Build 43363)  -->
<!DOCTYPE svg PUBLIC "-//W3C//DTD SVG 1.1//EN" "http://www.w3.org/Graphics/SVG/1.1/DTD/svg11.dtd">
<svg version="1.1" id="content" xmlns="http://www.w3.org/2000/svg" xmlns:xlink="http://www.w3.org/1999/xlink" x="0px" y="0px"
	 width="500px" height="500px" viewBox="0 0 500 500" enable-background="new 0 0 500 500" xml:space="preserve">
<path id="shoes" d="M132.876,464.847c0,4.539,1.873,10.094,5.749,13.692c17.789,16.521,48.525,5.856,57.816-6.93
	c24.195-33.302,25.229,14.294,25.229,14.294l2.813-0.177C224.421,462.894,238,460.75,238,450.25s-5.875-11.875-5.875-23.005
	c0-10,0.066-34.91,0.066-34.91h-51.389c0,0,0,31.915,0,47.915s-15.365,39.302-32.309,36.113c-3.037-0.57-5.495-2.029-6.828-3.529
	c-1.931-2.172-3-5.108-3-7.918c0-2.808,0.958-6.082,3.292-7.873c2.284-1.754,3.417-1.252,4.64-1.245
	c-1.061,0.35-2.031,0.944-2.844,1.757c-3.289,3.29-3.289,8.643,0.002,11.932c1.51,1.51,3.416,2.475,5.52,2.792
	c0.679,0.145,1.373,0.217,2.068,0.217c2.533,0,4.92-0.941,6.723-2.651c2.814-2.669,3.978-6.597,3.06-10.287
	c-0.353-2.563-1.504-4.886-3.342-6.723c-2.66-2.662-6.201-4.13-9.966-4.13c-3.766,0-7.305,1.468-9.967,4.13
	C134.644,456.043,132.876,460.308,132.876,464.847z"/>
<rect id="position" x="0" y="0" display="none" fill="none" stroke="#000000" width="500" height="500"/>
</svg>
