<?xml version="1.0" encoding="utf-8"?>
<!-- Generator: Adobe Illustrator 14.0.0, SVG Export Plug-In . SVG Version: 6.00 Build 43363)  -->
<!DOCTYPE svg PUBLIC "-//W3C//DTD SVG 1.1//EN" "http://www.w3.org/Graphics/SVG/1.1/DTD/svg11.dtd">
<svg version="1.1" id="content" xmlns="http://www.w3.org/2000/svg" xmlns:xlink="http://www.w3.org/1999/xlink" x="0px" y="0px"
	 width="500px" height="500px" viewBox="0 0 500 500" enable-background="new 0 0 500 500" xml:space="preserve">
<rect id="position" x="0" y="0" display="none" fill="none" stroke="#000000" width="500" height="500"/>
<g id="shoes">
	<path fill="#7A6922" d="M127.946,475.747c0,0,46.502,0,57.364,0s25.808-14.508,30.106-14.508v14.508h8.5c0,0,0-11.999,6.258-17.613
		c3.225-2.896,1.536-17.272,1.536-17.272v-60.944h-53.099c0,0,0,47.476,0,51.967c0,4.488-2.59,10.538-9.152,17.1
		c-5.358,5.356-34.432,11.055-39.096,16.063C126.831,468.838,127.946,475.747,127.946,475.747z"/>
	<path fill="#C18E44" d="M159.281,469.375c4.664-5.008,16.887-10.703,22.244-16.063c6.564-6.563,9.154-12.608,9.154-17.1
		c0-3.859,0-44.84,0-56.3h-7.667c0,0,0,47.476,0,51.967c0,4.488-2.59,10.536-9.153,17.1c-5.357,5.354-34.431,11.055-39.095,16.063
		c-3.533,3.797-2.417,10.707-2.417,10.707s3.072,0,7.59,0C140.142,473.632,157.622,471.159,159.281,469.375z"/>
	<path fill="#7A6922" d="M130.364,465.041c-1.941,2.084-2.471,5.1-2.561,7.399c0.989,0,2.117,0,3.358,0
		c0.204-2.12,4.428-3.281,6.089-5.065c6.28-3.484,32.642-11.11,38-16.468c6.563-6.563,8.831-12.407,8.831-18.157
		c0-3.551,0-38.345,0-52.838h-5.47c0,0,0,47.476,0,51.967c0,4.488-2.59,10.535-9.152,17.1
		C164.101,454.337,135.027,460.032,130.364,465.041z"/>
	<path fill="#C18E44" d="M231.71,440.858v-4.623c-0.997-0.165-2.15-0.051-3.545,0.315c-14.479,3.801-15.229,23.051-15.229,23.051
		l18.407-3.551C232.915,451.121,231.71,440.858,231.71,440.858z"/>
	<path fill="#C18E44" d="M165.563,451.43c-7.75,4.069-31.362,9.491-35.198,13.608c-3.532,3.798-2.418,10.707-2.418,10.707
		s46.504,0,57.365,0c2.674,0,5.597-0.882,8.545-2.208L165.563,451.43z"/>
	<path fill="#49280F" d="M215.417,456.073c-6.333,0-19.245,16.675-30.106,16.675c-10.86,0-57.364,0-57.364,0v2.999
		c0,0,46.502,0,57.364,0s25.808-14.508,30.106-14.508v14.508h8.5c0,0,0-11.999,6.258-17.613c0.5-0.448,0.881-1.177,1.169-2.078
		C223.711,456.057,215.417,456.073,215.417,456.073z"/>
	<path fill="#49280F" d="M187.141,389.512l-4.402-1.528l4.404-1.528c0.785-0.273,1.2-1.131,0.927-1.917
		c-0.271-0.781-1.129-1.199-1.911-0.923l-8.497,2.947c-0.006,0.002-0.006,0.005-0.01,0.007c-0.415,0.146-0.764,0.471-0.919,0.919
		c-0.272,0.785,0.145,1.641,0.928,1.912l8.496,2.949c0.164,0.053,0.328,0.083,0.492,0.083c0.625,0,1.206-0.39,1.42-1.009
		C188.342,390.639,187.924,389.78,187.141,389.512z"/>
	<path fill="#49280F" d="M187.141,404.755l-4.402-1.527l4.404-1.528c0.785-0.274,1.2-1.131,0.927-1.917
		c-0.271-0.781-1.129-1.199-1.911-0.923l-8.497,2.947c-0.006,0.002-0.006,0.005-0.01,0.007c-0.415,0.146-0.764,0.471-0.919,0.919
		c-0.272,0.785,0.145,1.641,0.928,1.912l8.496,2.948c0.164,0.054,0.328,0.083,0.492,0.083c0.625,0,1.206-0.389,1.42-1.008
		C188.342,405.882,187.924,405.022,187.141,404.755z"/>
	<path fill="#49280F" d="M187.141,419.998l-4.402-1.527l4.404-1.528c0.785-0.274,1.2-1.131,0.927-1.917
		c-0.271-0.781-1.129-1.199-1.911-0.923l-8.497,2.946c-0.006,0.002-0.006,0.006-0.01,0.008c-0.415,0.146-0.764,0.471-0.919,0.919
		c-0.272,0.784,0.145,1.641,0.928,1.912l8.496,2.948c0.164,0.054,0.328,0.084,0.492,0.084c0.625,0,1.206-0.39,1.42-1.009
		C188.342,421.125,187.924,420.265,187.141,419.998z"/>
	<path fill="#49280F" d="M187.141,435.24l-4.402-1.527l4.404-1.528c0.785-0.274,1.2-1.131,0.927-1.917
		c-0.271-0.781-1.129-1.199-1.911-0.923l-8.497,2.946c-0.006,0.002-0.006,0.006-0.01,0.008c-0.415,0.146-0.764,0.471-0.919,0.919
		c-0.272,0.784,0.145,1.641,0.928,1.911l8.496,2.949c0.164,0.054,0.328,0.083,0.492,0.083c0.625,0,1.206-0.389,1.42-1.008
		C188.342,436.367,187.924,435.509,187.141,435.24z"/>
	<path fill="#49280F" d="M179.399,450.904l-2.399-3.994l4.359,1.648c0.778,0.293,1.646-0.1,1.939-0.877
		c0.292-0.773-0.1-1.646-0.876-1.935l-8.411-3.183c-0.005-0.001-0.007,0.002-0.011,0c-0.414-0.153-0.89-0.129-1.295,0.116
		c-0.712,0.428-0.941,1.351-0.515,2.063l4.633,7.709c0.093,0.145,0.199,0.272,0.325,0.378c0.479,0.399,1.174,0.476,1.736,0.138
		C179.599,452.541,179.829,451.612,179.399,450.904z"/>
</g>
</svg>
