<?xml version="1.0" encoding="utf-8"?>
<!-- Generator: Adobe Illustrator 18.0.0, SVG Export Plug-In . SVG Version: 6.00 Build 0)  -->
<!DOCTYPE svg PUBLIC "-//W3C//DTD SVG 1.1//EN" "http://www.w3.org/Graphics/SVG/1.1/DTD/svg11.dtd">
<svg version="1.1" id="content" xmlns="http://www.w3.org/2000/svg" xmlns:xlink="http://www.w3.org/1999/xlink" x="0px" y="0px"
	 width="500px" height="500px" viewBox="0 0 500 500" enable-background="new 0 0 500 500" xml:space="preserve">
<rect id="position" display="none" fill="none" stroke="#000000" width="500" height="500"/>
<g id="bounds" display="none">
	<rect x="0.2" y="80.2" display="inline" fill="none" stroke="#EAEAEA" stroke-miterlimit="10" width="499.5" height="499.5"/>
</g>
<g id="shoes">
	<path fill="#212121" d="M230.2,223.5h152v255.9h-44.4l0.8-57.9c0,0-2.5-4.5-10.7,6.6c-8.2,11.1-36.6,46-36.6,46s-3.7,5.3-16,5.3
		c-147.1,0-154.1,0-154.1,0S111,436,133.6,436.4c22.6,0.4,90.5-22.6,96.6-78.1C230.2,329.1,230.2,223.5,230.2,223.5z"/>
	<path fill="#2C2C2C" d="M163.6,450.4c0,0,87-27.3,87-98.1c0-72.7,0-107.2,0-107.2h88.7C339.2,245.1,329.7,450.4,163.6,450.4z"/>
</g>
</svg>
