<?xml version="1.0" encoding="utf-8"?>
<!-- Generator: Adobe Illustrator 14.0.0, SVG Export Plug-In . SVG Version: 6.00 Build 43363)  -->
<!DOCTYPE svg PUBLIC "-//W3C//DTD SVG 1.1//EN" "http://www.w3.org/Graphics/SVG/1.1/DTD/svg11.dtd">
<svg version="1.1" id="content" xmlns="http://www.w3.org/2000/svg" xmlns:xlink="http://www.w3.org/1999/xlink" x="0px" y="0px"
	 width="500px" height="500px" viewBox="0 0 500 500" enable-background="new 0 0 500 500" xml:space="preserve">
<g id="shoes">
	<path fill="#212121" d="M181.015,392.537h52.231V480.5h-15.252l0.281-19.894c0,0-0.848-1.555-3.672,2.26
		c-2.824,3.813-12.566,15.816-12.566,15.816s-1.271,1.836-5.51,1.836c-50.556,0-52.957,0-52.957,0s-3.528-14.969,4.237-14.827
		c7.769,0.141,31.088-7.769,33.207-26.832C181.015,428.815,181.015,392.537,181.015,392.537z"/>
	<path fill="#2C2C2C" d="M158.121,470.5c0,0,29.887-9.371,29.887-33.722c0-25.001,0-36.837,0-36.837H218.5
		C218.5,399.941,215.231,470.5,158.121,470.5z"/>
</g>
<rect id="position" x="0" y="0" display="none" fill="none" stroke="#000000" width="500" height="500"/>
</svg>
