<?xml version="1.0" encoding="utf-8"?>
<!-- Generator: Adobe Illustrator 18.0.0, SVG Export Plug-In . SVG Version: 6.00 Build 0)  -->
<!DOCTYPE svg PUBLIC "-//W3C//DTD SVG 1.1//EN" "http://www.w3.org/Graphics/SVG/1.1/DTD/svg11.dtd">
<svg version="1.1" id="content" xmlns="http://www.w3.org/2000/svg" xmlns:xlink="http://www.w3.org/1999/xlink" x="0px" y="0px"
	 width="500px" height="500px" viewBox="0 0 500 500" enable-background="new 0 0 500 500" xml:space="preserve">
<rect id="position" display="none" fill="none" stroke="#000000" width="500" height="500"/>
<g id="bounds" display="none">
	<rect x="0.2" y="80.2" display="inline" fill="none" stroke="#EAEAEA" stroke-miterlimit="10" width="499.5" height="499.5"/>
</g>
<g id="shoes">
	<path fill="#191919" d="M373.9,448.7l-1.1,28.1c0,0-25.7,0.3-51.1,0.5c0.5-13.8-36.4-15.1-37,0c0,0-123.5,7.4-165.7-2.3
		c-0.4-16.8,0-24.9,0-24.9l5.7-8.1l246.6-7.5L373.9,448.7z"/>
	<path fill="#232323" d="M377.2,245.5l-3.3,203.2c0,0-91.9,7.6-176.1,4.4c-72.8-2.8-78.7-3-78.7-3s-9.3-57.4,66.7-54.5
		c57.4,2.2,74.7-29,74.7-54.3c0-51,2.3-95.8,2.3-95.8L377.2,245.5L377.2,245.5z"/>
	<path fill="#191919" d="M277.4,254.5c17.8,0,36.6,35.1,46.6,35.1h54.5V305h-54.5c-10,0-28.9,35.1-46.6,35.1
		c-17.4,0-23.8-7.4-23.8-7.4v-70.8C253.7,261.9,260,254.5,277.4,254.5z"/>
	<path fill="#8E8E8E" d="M353.7,312.2h-15.9c-3.1,0-5.7-2.6-5.7-5.7v-17.2c0-3.1,2.6-5.7,5.7-5.7h15.9c3.1,0,5.7,2.6,5.7,5.7v17.2
		C359.4,309.7,356.9,312.2,353.7,312.2L353.7,312.2z M337.8,285.2c-2.2,0-4.1,1.8-4.1,4.1v17.2c0,2.2,1.8,4.1,4.1,4.1h15.9
		c2.2,0,4.1-1.8,4.1-4.1v-17.2c0-2.2-1.8-4.1-4.1-4.1H337.8L337.8,285.2z"/>
	<path fill="#8E8E8E" d="M345.8,298.2h-12.8c-0.4,0-0.8-0.4-0.8-0.8c0-0.4,0.4-0.8,0.8-0.8h12.8c0.4,0,0.8,0.4,0.8,0.8
		C346.6,297.9,346.2,298.2,345.8,298.2L345.8,298.2z"/>
	<path fill="#B7B7B7" d="M329.5,304.4c0,1.8,1.5,3.3,3.3,3.3l0,0c1.8,0,3.3-1.5,3.3-3.3v-13.1c0-1.8-1.5-3.3-3.3-3.3l0,0
		c-1.8,0-3.3,1.5-3.3,3.3V304.4z"/>
	<path fill="#191919" d="M381.2,345.1c0,0-72.6,8.2-122.8,4.6c-6.2,10.8-11.6,22.8-11.6,22.8s92.4,4.1,133.7,0.2
		c-2.1-8.8-1.9-11.7-1.9-11.7S382.1,347.1,381.2,345.1z"/>
	<path fill="#191919" d="M225,385.9c0,0,76.1,53.3,153.6,45.1c0.1-12.8,0-14,0-14l2.7-9.8c0,0-74.4,6.3-137.1-32.8
		C230.2,382.2,225,385.9,225,385.9z"/>
	<path fill="#8E8E8E" d="M341.6,376.9h-17.1c-3.4,0-6.1-2.7-6.1-6.1v-18.5c0-3.4,2.7-6.1,6.1-6.1h17.1c3.4,0,6.1,2.7,6.1,6.1v18.5
		C347.7,374.1,345,376.9,341.6,376.9L341.6,376.9z M324.5,347.9c-2.4,0-4.4,2-4.4,4.4v18.5c0,2.4,2,4.4,4.4,4.4h17.1
		c2.4,0,4.4-2,4.4-4.4v-18.5c0-2.4-2-4.4-4.4-4.4H324.5L324.5,347.9z"/>
	<path fill="#8E8E8E" d="M333.1,361.8h-13.8c-0.5,0-0.9-0.4-0.9-0.9c0-0.5,0.4-0.9,0.9-0.9h13.8c0.5,0,0.9,0.4,0.9,0.9
		C333.9,361.4,333.5,361.8,333.1,361.8L333.1,361.8z"/>
	<path fill="#B7B7B7" d="M315.6,368.5c0,2,1.6,3.6,3.6,3.6l0,0c2,0,3.6-1.6,3.6-3.6v-14.1c0-2-1.6-3.6-3.6-3.6l0,0
		c-2,0-3.6,1.6-3.6,3.6V368.5z"/>
	<path fill="#8E8E8E" d="M285.8,423.5C285.8,423.5,285.8,423.5,285.8,423.5c-0.9,0-1.8-0.2-2.6-0.6l-15.5-7.2
		c-3.1-1.4-4.4-5.1-3-8.1l7.8-16.8c1-2.1,3.2-3.5,5.5-3.5c0.9,0,1.8,0.2,2.6,0.6l17.7,7.2c3.1,1.4,13,5.1,11.6,8.1L291.3,420
		C290.3,422.1,288.1,423.5,285.8,423.5L285.8,423.5z M278.1,389c-1.7,0-3.2,1-4,2.5l-7.8,16.8c-1,2.2-0.1,4.8,2.1,5.8l15.5,7.2
		c2.1,1,4.8,0,5.8-2.1l18.6-16.8c1-2.2-8.6-4.8-10.8-5.8l-17.7-7.2C279.4,389.1,278.7,389,278.1,389L278.1,389z"/>
	<path fill="#8E8E8E" d="M282.2,405.8c-0.1,0-0.2,0-0.4-0.1l-12.5-5.8c-0.4-0.2-0.6-0.7-0.4-1.2c0.2-0.4,0.7-0.6,1.2-0.4l12.5,5.8
		c0.4,0.2,0.6,0.7,0.4,1.2C282.8,405.6,282.5,405.8,282.2,405.8L282.2,405.8z"/>
	<path fill="#B7B7B7" d="M263.1,404.3c-0.8,1.8-0.1,3.9,1.7,4.7l0,0c1.8,0.8,3.9,0.1,4.7-1.7l5.9-12.8c0.8-1.8,0.1-3.9-1.7-4.7l0,0
		c-1.8-0.8-3.9-0.1-4.7,1.7L263.1,404.3z"/>
</g>
</svg>
