<?xml version="1.0" encoding="utf-8"?>
<!-- Generator: Adobe Illustrator 14.0.0, SVG Export Plug-In . SVG Version: 6.00 Build 43363)  -->
<!DOCTYPE svg PUBLIC "-//W3C//DTD SVG 1.1//EN" "http://www.w3.org/Graphics/SVG/1.1/DTD/svg11.dtd">
<svg version="1.1" id="content" xmlns="http://www.w3.org/2000/svg" xmlns:xlink="http://www.w3.org/1999/xlink" x="0px" y="0px"
	 width="500px" height="500px" viewBox="0 0 500 500" enable-background="new 0 0 500 500" xml:space="preserve">
<g id="shoes">
	<path fill="#191919" d="M231.816,473.974l-0.501,13.003c0,0-11.91,0.128-23.653,0.224c0.248-6.41-16.868-6.996-17.138-0.016
		c0,0-57.164,3.421-76.693-1.059c-0.166-7.765-0.014-11.527-0.014-11.527l2.619-3.732l114.184-3.469L231.816,473.974z"/>
	<path fill="#232323" d="M233.361,379.892l-1.545,94.083c0,0-42.538,3.541-81.55,2.035c-33.702-1.298-36.449-1.406-36.449-1.406
		s-4.294-26.579,30.872-25.222c26.559,1.027,34.565-13.435,34.565-25.15c0-23.624,1.055-44.339,1.055-44.339L233.361,379.892
		L233.361,379.892z"/>
	<path fill="#191919" d="M187.161,384.066c8.218,0,16.938,16.238,21.589,16.238h25.255v7.133H208.75
		c-4.65,0-13.371,16.239-21.589,16.239c-8.062,0-11.006-3.411-11.006-3.411v-32.789C176.156,387.476,179.1,384.066,187.161,384.066z
		"/>
	<path fill="#8E8E8E" d="M222.475,410.791h-7.373c-1.451,0-2.631-1.182-2.631-2.631v-7.986c0-1.454,1.181-2.632,2.631-2.632h7.373
		c1.452,0,2.634,1.181,2.634,2.632v7.986C225.109,409.61,223.927,410.791,222.475,410.791L222.475,410.791z M215.102,398.293
		c-1.036,0-1.879,0.844-1.879,1.879v7.986c0,1.035,0.844,1.881,1.879,1.881h7.373c1.037,0,1.881-0.845,1.881-1.881v-7.986
		c0-1.035-0.844-1.879-1.881-1.879H215.102L215.102,398.293z"/>
	<path fill="#8E8E8E" d="M218.79,404.303h-5.944c-0.207,0-0.375-0.168-0.375-0.376c0-0.207,0.168-0.373,0.375-0.373h5.944
		c0.207,0,0.375,0.168,0.375,0.373C219.165,404.136,218.997,404.303,218.79,404.303L218.79,404.303z"/>
	<path fill="#B7B7B7" d="M211.253,407.169c0,0.846,0.687,1.53,1.532,1.53l0,0c0.844,0,1.531-0.685,1.531-1.53v-6.066
		c0-0.845-0.688-1.53-1.531-1.53l0,0c-0.846,0-1.532,0.686-1.532,1.53V407.169z"/>
	<path fill="#191919" d="M235.176,426.007c0,0-33.622,3.811-56.837,2.131c-2.859,4.993-5.348,10.534-5.348,10.534
		s42.762,1.919,61.916,0.112c-0.975-4.07-0.902-5.427-0.902-5.427S235.627,426.91,235.176,426.007z"/>
	<path fill="#191919" d="M162.877,444.881c0,0,35.249,24.687,71.128,20.878c0.052-5.925,0-6.491,0-6.491l1.251-4.514
		c0,0-34.435,2.896-63.492-15.197C165.276,443.189,162.877,444.881,162.877,444.881z"/>
	<path fill="#8E8E8E" d="M216.867,440.709h-7.922c-1.561,0-2.829-1.268-2.829-2.828v-8.583c0-1.56,1.269-2.829,2.829-2.829h7.922
		c1.562,0,2.831,1.27,2.831,2.829v8.583C219.698,439.441,218.429,440.709,216.867,440.709L216.867,440.709z M208.946,427.278
		c-1.114,0-2.021,0.907-2.021,2.021v8.584c0,1.111,0.907,2.021,2.021,2.021h7.922c1.116,0,2.022-0.909,2.022-2.021v-8.584
		c0-1.113-0.906-2.021-2.022-2.021H208.946L208.946,427.278z"/>
	<path fill="#8E8E8E" d="M212.907,433.738h-6.387c-0.224,0-0.404-0.182-0.404-0.407s0.18-0.404,0.404-0.404h6.387
		c0.224,0,0.404,0.179,0.404,0.404S213.131,433.738,212.907,433.738L212.907,433.738z"/>
	<path fill="#B7B7B7" d="M204.809,436.816c0,0.91,0.738,1.646,1.646,1.646l0,0c0.909,0,1.646-0.736,1.646-1.646v-6.52
		c0-0.91-0.737-1.647-1.646-1.647l0,0c-0.908,0-1.646,0.737-1.646,1.647V436.816z"/>
	<path fill="#8E8E8E" d="M191.017,462.308C191.016,462.308,191.016,462.308,191.017,462.308c-0.415,0-0.817-0.091-1.196-0.266
		l-7.181-3.346c-1.414-0.658-2.027-2.346-1.369-3.76l3.624-7.778c0.462-0.991,1.469-1.633,2.563-1.633
		c0.415,0,0.817,0.089,1.196,0.267l8.18,3.344c1.415,0.658,6.03,2.346,5.371,3.76l-8.625,7.779
		C193.118,461.667,192.112,462.308,191.017,462.308L191.017,462.308z M187.459,446.334c-0.782,0-1.501,0.455-1.831,1.167
		l-3.623,7.776c-0.472,1.01-0.032,2.216,0.978,2.688l7.181,3.345c0.987,0.46,2.23,0,2.685-0.977l8.626-7.779
		c0.47-1.01-3.97-2.215-4.979-2.686l-8.181-3.347C188.042,446.397,187.755,446.334,187.459,446.334L187.459,446.334z"/>
	<path fill="#8E8E8E" d="M189.346,454.09c-0.057,0-0.115-0.015-0.17-0.039l-5.789-2.697c-0.202-0.094-0.29-0.334-0.195-0.537
		c0.095-0.201,0.334-0.291,0.537-0.195l5.789,2.698c0.203,0.093,0.291,0.332,0.195,0.536
		C189.645,454.002,189.499,454.09,189.346,454.09L189.346,454.09z"/>
	<path fill="#B7B7B7" d="M180.534,453.421c-0.384,0.825-0.027,1.802,0.796,2.188l0,0c0.824,0.383,1.804,0.027,2.189-0.796
		l2.753-5.91c0.382-0.823,0.024-1.803-0.798-2.187l0,0c-0.823-0.381-1.803-0.026-2.188,0.794L180.534,453.421z"/>
</g>
<rect id="position" x="0" y="0" display="none" fill="none" stroke="#000000" width="500" height="500"/>
</svg>
