<?xml version="1.0" encoding="utf-8"?>
<!-- Generator: Adobe Illustrator 14.0.0, SVG Export Plug-In . SVG Version: 6.00 Build 43363)  -->
<!DOCTYPE svg PUBLIC "-//W3C//DTD SVG 1.1//EN" "http://www.w3.org/Graphics/SVG/1.1/DTD/svg11.dtd">
<svg version="1.1" id="content" xmlns="http://www.w3.org/2000/svg" xmlns:xlink="http://www.w3.org/1999/xlink" x="0px" y="0px"
	 width="500px" height="500px" viewBox="0 0 500 500" enable-background="new 0 0 500 500" xml:space="preserve">
<rect id="position" x="0" y="0" display="none" fill="none" stroke="#000000" width="500" height="500"/>
<g id="shoes">
	<path fill="#EA4E8D" d="M128.719,471.426c0,0,39.239,3.095,49.572,3.095c10.333-0.001,22.102-3.058,26.167-3.059
		c4.063,0,10.5,3.057,10.5,3.057l19.313-0.001c0,0-0.001-10.254-0.001-18.023c0-7.563-2.557-18.742-2.557-18.742l-0.003-49.125
		l-35.09,0.002c0,0-2.25-5.833-18.009-5.832c0,0,0.002,41.485,0.002,45.979c0,4.491-6.446,11.662-13.446,15.527
		s-26.143,5.436-32.545,11.201C129.2,458.584,128.719,471.426,128.719,471.426z"/>
	<path fill="#EE2971" d="M231.712,437.75l-0.003-41.07l-47.693,0.002c0,0,0.002,30.175,0.002,34.666s-7.66,11.469-15.32,17.381
		c0,0-2.83,1.511,0,6.679c0,0,23.553-2.66,27.554,10.59l19.68-0.456C216.478,443.24,231.712,437.75,231.712,437.75z"/>
	<path fill="#231F20" d="M203.089,465.157c-4.616,0-17.981,3.433-29.715,3.434c-8.563,0-37.35-1.845-44.874-2.828
		c-0.477,3.186-0.526,5.815-0.526,5.815s34.286,2.824,45.604,2.899c11.685-0.04,24.922-3.429,29.513-3.429
		c4.615,0,11.924,3.43,11.924,3.43l19.748-0.001c0,0,0-4.132,0-9.245C227.905,465.216,206.939,465.157,203.089,465.157z"/>
	<path fill="#3A280F" d="M202.823,467.389c-4.562,0-17.768,3.431-29.364,3.432c-9.442,0-40.631-2.296-46.77-3.132
		c-0.179,1.627-0.412,5.984-0.412,5.984s35.584,3.039,47.184,3.039c11.596-0.001,24.803-3.434,29.364-3.434
		c4.563,0,11.783,3.432,11.783,3.432l21.674-0.002c0,0,0-2.033,0-5.03c-0.001-1.258-0.001-2.688-0.001-4.208
		C236.28,467.471,207.386,467.389,202.823,467.389z"/>
	<path fill="#231F20" d="M231.709,388.625L186,388.627c-1.097,0-1.984,0.892-1.984,1.984v6.067l47.693-0.005
		c1.096,0,1.474-0.889,1.474-1.981v-4.083C233.183,389.513,232.805,388.625,231.709,388.625z"/>
	<path fill="#231F20" d="M188.246,398.625c-1.413,0-2.625,0.813-3.231,1.986l-6.43-0.022c-0.932,0.008-1.681,0.768-1.673,1.696
		c0.007,0.926,0.76,1.673,1.685,1.673c0.003,0,0.009,0,0.012,0l6.432,0.022c0.613,1.149,1.812,1.94,3.207,1.94
		c2.015,0,3.648-1.633,3.648-3.646C191.895,400.26,190.261,398.625,188.246,398.625z"/>
	<path fill="#231F20" d="M188.246,409.687c-1.413,0-2.625,0.812-3.231,1.985l-6.43-0.021c-0.932,0.007-1.681,0.767-1.673,1.696
		c0.007,0.926,0.76,1.673,1.685,1.673c0.003,0,0.009,0,0.012,0l6.432,0.021c0.613,1.15,1.812,1.941,3.207,1.941
		c2.015,0,3.648-1.633,3.648-3.647C191.895,411.321,190.261,409.687,188.246,409.687z"/>
	<path fill="#231F20" d="M188.246,420.34c-1.413,0-2.625,0.813-3.231,1.986l-6.43-0.021c-0.932,0.007-1.681,0.767-1.673,1.695
		c0.007,0.927,0.76,1.674,1.685,1.674c0.003,0,0.009,0,0.012,0l6.432,0.021c0.613,1.15,1.812,1.941,3.207,1.941
		c2.015,0,3.648-1.633,3.648-3.647C191.895,421.973,190.261,420.34,188.246,420.34z"/>
	<path fill="#231F20" d="M186.97,435.157c-1.227-0.7-2.682-0.596-3.791,0.124l-5.574-3.205c-0.812-0.456-1.839-0.167-2.294,0.645
		c-0.453,0.808-0.168,1.83,0.634,2.288c0.003,0.002,0.009,0.004,0.012,0.006l5.573,3.206c-0.035,1.304,0.612,2.584,1.823,3.274
		c1.75,0.998,3.979,0.391,4.978-1.359C189.33,438.385,188.72,436.155,186.97,435.157z"/>
	<path fill="#231F20" d="M179.467,446.022c-0.854-1.125-2.234-1.599-3.536-1.371l-3.872-5.133c-0.567-0.737-1.626-0.874-2.363-0.307
		c-0.732,0.564-0.872,1.617-0.313,2.354c0.002,0.003,0.006,0.007,0.008,0.01l3.872,5.134c-0.544,1.187-0.449,2.617,0.394,3.729
		c1.221,1.604,3.509,1.918,5.112,0.699C180.374,449.916,180.687,447.628,179.467,446.022z"/>
</g>
</svg>
