<?xml version="1.0" encoding="utf-8"?>
<!-- Generator: Adobe Illustrator 18.0.0, SVG Export Plug-In . SVG Version: 6.00 Build 0)  -->
<!DOCTYPE svg PUBLIC "-//W3C//DTD SVG 1.1//EN" "http://www.w3.org/Graphics/SVG/1.1/DTD/svg11.dtd">
<svg version="1.1" id="content" xmlns="http://www.w3.org/2000/svg" xmlns:xlink="http://www.w3.org/1999/xlink" x="0px" y="0px"
	 width="500px" height="500px" viewBox="0 0 500 500" enable-background="new 0 0 500 500" xml:space="preserve">
<rect id="position" display="none" fill="none" stroke="#000000" width="500" height="500"/>
<g id="bounds" display="none">
	<rect x="0.2" y="80.2" display="inline" fill="none" stroke="#EAEAEA" stroke-miterlimit="10" width="499.5" height="499.5"/>
</g>
<g id="shoes">
	<path fill="#4D260C" d="M259.2,341.5c0,0-15.2,94.4-108.4,86.5c-15.4-1.4-22.1,0.9-28.8,18.4c29.7,14,85.8,28.3,162.7,9.7
		c52-11.3,87.5-6.7,96.4-16.3c0,0,4.4-28.5-2.1-68.8l3.5-133.3c0,0-22.3-6-61.5-6.2c-39.1-0.5-62.6,5.8-62.6,5.8
		S261,326.6,259.2,341.5z"/>
	<path fill="#301809" d="M380.9,438.6v30.2c0,0-3.9,8.1-38.7,7.6c-34.5-0.2-35.2-0.2-35.2-0.2v-7.4c0,0-124.5,29.7-186.2-7.6
		c-5.3-3-3-13.6-3-13.6l5.3-1.6c15.9,4.8,35.4,16.3,94.1,17c58.7,0.7,75-14.3,125.9-17C372.4,442.1,380.9,438.6,380.9,438.6z"/>
	<path fill="#261308" d="M243.1,380.4l63.5,32.2c0,0,11.3,5.8,15.4-3.7c4.1-9.4-13.6-15.7-13.6-15.7l-59.4-29.2L243.1,380.4z"/>
	<path fill="#AA9C90" d="M284.7,407.6l-15.2-7.4c-3-1.4-4.1-4.8-2.8-7.8l7.1-15.2c1.4-2.8,4.8-4.1,7.6-2.5l15.2,7.4
		c3,1.4,4.1,4.8,2.8,7.8l-7.1,15.2C291.2,407.8,287.7,409,284.7,407.6z M279.9,378.3c-0.7-0.5-1.6,0-2.1,0.7l-7.1,15.2
		c-0.5,0.7,0,1.6,0.7,2.1l15.2,7.4c0.7,0.5,1.6,0,2.1-0.7l7.1-15.2c0.5-0.7,0-1.6-0.7-2.1L279.9,378.3z"/>
	<path fill="#AA9C90" d="M281.1,391c-0.2,0-0.5,0-0.7-0.2l-8.7-4.1c-0.9-0.5-1.4-1.6-0.9-2.5c0.5-0.9,1.6-1.4,2.5-0.9l8.7,4.1
		c0.9,0.5,1.4,1.6,0.9,2.5C282.4,390.5,281.7,391,281.1,391z"/>
	<path fill="#5B2E10" d="M140.7,442.8c0,0-3-10.6,31.1-8.7c34.1,1.8,76.4-35.9,76.4-35.9l28.5,15c0,0-52.5,28.8-105,27.4
		C147.6,439.6,140.7,442.8,140.7,442.8z"/>
	<path fill="#5B2E10" d="M266.1,354.2l40.3,14V239.6c0,0-19.3-0.5-40.3,7.4C272.1,305.2,266.1,354.2,266.1,354.2z"/>
</g>
</svg>
