<?xml version="1.0" encoding="utf-8"?>
<!-- Generator: Adobe Illustrator 18.0.0, SVG Export Plug-In . SVG Version: 6.00 Build 0)  -->
<!DOCTYPE svg PUBLIC "-//W3C//DTD SVG 1.1//EN" "http://www.w3.org/Graphics/SVG/1.1/DTD/svg11.dtd">
<svg version="1.1" id="content" xmlns="http://www.w3.org/2000/svg" xmlns:xlink="http://www.w3.org/1999/xlink" x="0px" y="0px"
	 width="500px" height="500px" viewBox="0 0 500 500" enable-background="new 0 0 500 500" xml:space="preserve">
<rect id="position" display="none" fill="none" stroke="#000000" width="500" height="500"/>
<g id="shoes">
	<path fill="#4D260C" d="M180.5,433.4c0,0-6.6,41-47.1,37.6c-6.7-0.6-9.6,0.4-12.5,8c12.9,6.1,37.3,12.3,70.7,4.2
		c22.6-4.9,38-2.9,41.9-7.1c0,0,1.9-12.4-0.9-29.9l1.5-57.9c0,0-9.7-2.6-26.7-2.7c-17-0.2-27.2,2.5-27.2,2.5
		S181.3,426.9,180.5,433.4z"/>
	<path fill="#301809" d="M233.4,475.6l0,13.1c0,0-1.7,3.5-16.8,3.3c-15-0.1-15.3-0.1-15.3-0.1v-3.2c0,0-54.1,12.9-80.9-3.3
		c-2.3-1.3-1.3-5.9-1.3-5.9l2.3-0.7c6.9,2.1,15.4,7.1,40.9,7.4s32.6-6.2,54.7-7.4C229.7,477.1,233.4,475.6,233.4,475.6z"/>
	<path fill="#261308" d="M173.5,450.3l27.6,14c0,0,4.9,2.5,6.7-1.6c1.8-4.1-5.9-6.8-5.9-6.8l-25.8-12.7L173.5,450.3z"/>
	<path fill="#AA9C90" d="M191.6,462.1l-6.6-3.2c-1.3-0.6-1.8-2.1-1.2-3.4l3.1-6.6c0.6-1.2,2.1-1.8,3.3-1.1l6.6,3.2
		c1.3,0.6,1.8,2.1,1.2,3.4l-3.1,6.6C194.4,462.2,192.9,462.7,191.6,462.1z M189.5,449.4c-0.3-0.2-0.7,0-0.9,0.3l-3.1,6.6
		c-0.2,0.3,0,0.7,0.3,0.9l6.6,3.2c0.3,0.2,0.7,0,0.9-0.3l3.1-6.6c0.2-0.3,0-0.7-0.3-0.9L189.5,449.4z"/>
	<path fill="#AA9C90" d="M190,454.9c-0.1,0-0.2,0-0.3-0.1l-3.8-1.8c-0.4-0.2-0.6-0.7-0.4-1.1c0.2-0.4,0.7-0.6,1.1-0.4l3.8,1.8
		c0.4,0.2,0.6,0.7,0.4,1.1C190.6,454.7,190.3,454.9,190,454.9z"/>
	<path fill="#5B2E10" d="M129,477.4c0,0-1.3-4.6,13.5-3.8s33.2-15.6,33.2-15.6l12.4,6.5c0,0-22.8,12.5-45.6,11.9
		C132,476,129,477.4,129,477.4z"/>
	<path fill="#5B2E10" d="M183.5,438.9L201,445v-55.9c0,0-8.4-0.2-17.5,3.2C186.1,417.6,183.5,438.9,183.5,438.9z"/>
</g>
</svg>
