<?xml version="1.0" encoding="utf-8"?>
<!-- Generator: Adobe Illustrator 18.0.0, SVG Export Plug-In . SVG Version: 6.00 Build 0)  -->
<!DOCTYPE svg PUBLIC "-//W3C//DTD SVG 1.1//EN" "http://www.w3.org/Graphics/SVG/1.1/DTD/svg11.dtd">
<svg version="1.1" id="content" xmlns="http://www.w3.org/2000/svg" xmlns:xlink="http://www.w3.org/1999/xlink" x="0px" y="0px"
	 width="500px" height="500px" viewBox="0 0 500 500" enable-background="new 0 0 500 500" xml:space="preserve">
<rect id="position" display="none" fill="none" stroke="#000000" width="500" height="500"/>
<g id="bounds" display="none">
	<rect x="0.2" y="80.2" display="inline" fill="none" stroke="#EAEAEA" stroke-miterlimit="10" width="499.5" height="499.5"/>
</g>
<g>
	<polygon fill="#210C0A" points="280.4,459.9 295.3,477.6 306,469.9 301.7,455.6 	"/>
	<g>
		<g>
			<g>
				<path fill="#4F221B" d="M135,410.8c12.3,0.3,58.6,22.3,77.1,19.7c16.6-2.3,35.6-30.5,35.1-53l11.3,3.1l2.3,14.9
					c1.8,10.2,9.2,16.9,19.2,19.2c9.2,2.3,39.2,1.8,49.2,1c35.8-1.5,48.9-82.4,44.6-25.9c-4.1,56.6-23.6,65.3-59.7,66.3
					c-36.1,1-85.5,27.4-109.1,23c-35.3-6.7-86.3-63.8-86.3-63.8C117.6,409.7,121.9,410.5,135,410.8z"/>
			</g>
		</g>
		<g>
			<path fill="#4F221B" d="M295.3,477.6H336c6.9-0.5,10.2,0,16.9-11.3c6.9-11.8,15.4-33,16.9-35.3c1.5-2.6,0-5.9,0-5.9l-73,28.2
				L295.3,477.6z"/>
			<g>
				<g>
					<path fill="#7A3026" d="M312.7,437.7c-4.9-29.7-19.2-22.3-33.3-25.9c-9.7-2.6-17.7-10.5-19.5-20.2l-2.6-14.1l-9.7-0.5
						c0-2.3,0-4.6-0.3-7.2c-2-18.7-3.3-66.8-3.3-66.8l30.2-18.4c24.3-15.9,55.8-15.6,80.1,0.5l26.9,17.9l-5.1,97
						C360,397.2,310.9,452.2,312.7,437.7z"/>
					<g>
						<g>
							<path fill="#915227" d="M140.9,405.9c10.5,5.4,46.3,23.6,64.8,21c16.6-2,42-30.5,41.5-53.3l11.3,3.1l2.3,14.6
								c1.8,10,9.2,16.6,19.2,19.2c9,2.3,39.2,1.8,49.2,1c35.8-1.5,53-77.8,48.9-21.3S346,451,309.9,452c-36.1,1-80.7,26.6-104.2,22
								c-32.5-6.4-83.5-60.4-83.5-60.4C126.5,400.8,130.4,400.3,140.9,405.9z"/>
						</g>
					</g>
					<g>
						<path fill="#A56032" d="M152.9,424.1c10.5,5.4,46.3,23.6,64.8,21c16.6-2,32.8-29.2,35.8-52.5l1-16.9l-7.4-2
							c0.5,22.5-24.8,51-41.5,53.3c-18.4,2.3-54.3-15.6-64.8-21c-10.8-5.6-14.3-5.1-18.9,7.4c0,0,5.4,5.6,13.8,13.6
							C139.6,419,143.7,419.2,152.9,424.1z"/>
					</g>
					<path fill="#913F36" d="M254.6,296.3l-10.5,6.4c0,0,1,45.6,3.1,64.3c0.3,2.6,0,4.4,0,6.7l7.4,2L254.6,296.3L254.6,296.3z"/>
					<g display="none">
						<path display="inline" fill="#7C451F" d="M361.6,389c0,0.3,0,0.3,0,0.5c-2.6,36.6-14.3,53.5-31.5,61.2
							c25.9-3.3,44.6-14.8,47.9-60.2C380.5,355.2,374.6,371.3,361.6,389z"/>
					</g>
					<g display="none">
						<path display="inline" fill="#6D2A23" d="M364.4,291.5l-2.8,97.5c6.9-8.4,11.3-12.5,16.4-18.4l3.6-67.8L364.4,291.5z"/>
					</g>
				</g>
				<path fill="none" stroke="#4F221B" stroke-miterlimit="10" d="M311.1,318.1c0,0-5.4,75,0,95.5c5.4,20.5-0.3,39.2-0.3,39.2"/>
				<path fill="#6D4C41" d="M311.4,464"/>
				<g>
					<g>
						<path fill="#630F08" d="M335.2,286.9l5.9,5.6l2.8,2.8l1.5,1.5c0.5,0.5,1,1,1.5,1.5c0.8,1.3,1.5,2.6,1.5,4.1s-0.5,3.1-1.3,4.1
							l-5.1,6.4l-0.5,0.8l-0.5-0.8l-7.7-11.8l-1.8-3.1c-0.8-1-1.3-2-1.3-3.3c-0.3-2.6,0.8-4.9,2.6-6.4l0,0L335.2,286.9z
							 M335.2,286.9l-2.3,1.8l0,0c-1.8,1.5-2.6,3.8-2,6.1c0.3,1,0.8,2,1.3,3.1l2,2.8l7.7,11.8h-1l5.1-6.4c0.8-1,1.3-2.3,1.3-3.6
							c0-1.3-0.5-2.6-1-3.6c-0.3-0.5-0.8-1-1.3-1.5l-1.3-1.5l-2.8-3.1L335.2,286.9z"/>
					</g>
					<g>
						<path fill="#630F08" d="M348.3,339.1l-5.9-5.6l-2.8-2.8l-1.5-1.5c-0.5-0.5-1-1-1.5-1.5c-0.8-1.3-1.5-2.6-1.5-4.1
							s0.5-3.1,1.3-4.1l5.1-6.4l0.5-0.8l0.5,0.8l7.7,11.8l1.8,3.1c0.8,1,1.3,2,1.3,3.3c0.3,2.6-0.8,4.9-2.6,6.4l0,0L348.3,339.1z
							 M348.3,339.1l2.3-1.8l0,0c1.8-1.5,2.6-3.8,2-6.1c-0.3-1-0.8-2-1.3-3.1l-2-2.8l-7.7-11.8h1l-5.1,6.4c-0.8,1-1.3,2.3-1.3,3.6
							c0,1.3,0.5,2.6,1,3.6c0.3,0.5,0.8,1,1.3,1.5l1.3,1.5l2.8,3.1L348.3,339.1z"/>
					</g>
					<g>
						<path fill="#630F08" d="M348.3,343.2l-5.4,6.1l-2.8,3.1l-1.3,1.5c-0.5,0.5-1,1-1.3,1.5c-0.8,1-1,2.3-1,3.6s0.5,2.6,1.3,3.6
							l5.1,6.4h-1l7.7-11.8l2-2.8c0.8-1,1.3-1.8,1.3-3.1c0.5-2.3-0.5-4.6-2-6.1l0,0L348.3,343.2z M348.3,343.2l2.3,1.8l0,0
							c1.8,1.5,3.1,3.8,2.6,6.4c-0.3,1.3-0.8,2.3-1.3,3.3l-1.8,3.1l-7.7,11.8l-0.5,0.8l-0.5-0.8l-5.1-6.4c-0.8-1.3-1.3-2.6-1.3-4.1
							s0.5-2.8,1.5-4.1c0.5-0.5,1-1,1.5-1.5l1.5-1.5l2.8-2.8L348.3,343.2z"/>
					</g>
					<g>
						<path fill="#630F08" d="M335.2,395.2l5.4-6.1l2.8-3.1l1.3-1.5c0.5-0.5,1-1,1.3-1.5c0.8-1,1-2.3,1-3.6s-0.5-2.6-1.3-3.6
							l-5.1-6.4h1l-7.7,11.8l-2,2.8c-0.8,1-1.3,1.8-1.3,3.1c-0.5,2.3,0.5,4.6,2,6.1l0,0L335.2,395.2z M335.2,395.2l-2.3-1.8l0,0
							c-1.8-1.5-3.1-3.8-2.6-6.4c0.3-1.3,0.8-2.3,1.3-3.3l1.8-3.1l7.7-11.8l0.5-0.8l0.5,0.8l5.1,6.4c0.8,1.3,1.3,2.6,1.3,4.1
							s-0.5,2.8-1.5,4.1c-0.5,0.5-1,1-1.5,1.5l-1.5,1.5l-2.8,2.8L335.2,395.2z"/>
					</g>
					<g>
						<path fill="#630F08" d="M286,395.2l-5.9-5.6l-2.8-2.8l-1.5-1.5c-0.5-0.5-1-1-1.5-1.5c-0.8-1.3-1.5-2.6-1.5-4.1
							s0.5-3.1,1.3-4.1l5.1-6.4l0.5-0.8l0.5,0.8l7.7,11.8l1.8,3.1c0.8,1,1.3,2,1.3,3.3c0.3,2.6-0.8,4.9-2.6,6.4l0,0L286,395.2z
							 M286,395.2l2.3-1.8l0,0c1.8-1.5,2.6-3.8,2-6.1c-0.3-1-0.8-2-1.3-3.1l-2-2.8l-7.7-11.8h1l-5.1,6.4c-0.8,1-1.3,2.3-1.3,3.6
							s0.5,2.6,1,3.6c0.3,0.5,0.8,1,1.3,1.5l1.3,1.5l2.8,3.1L286,395.2z"/>
					</g>
					<g>
						<path fill="#630F08" d="M273,343.2l5.9,5.6l2.8,2.8l1.5,1.5c0.5,0.5,1,1,1.5,1.5c0.8,1.3,1.5,2.6,1.5,4.1s-0.5,3.1-1.3,4.1
							l-5.1,6.4l-0.5,0.8l-0.5-0.8l-7.7-11.8l-1.8-3.1c-0.8-1-1.3-2-1.3-3.3c-0.3-2.6,0.8-4.9,2.6-6.4l0,0L273,343.2z M273,343.2
							l-2.3,1.8l0,0c-1.8,1.5-2.6,3.8-2,6.1c0.3,1,0.8,2,1.3,3.1l2,2.8l7.7,11.8h-1l5.1-6.4c0.8-1,1.3-2.3,1.3-3.6
							c0-1.3-0.5-2.6-1-3.6c-0.3-0.5-0.8-1-1.3-1.5l-1.3-1.5l-2.8-3.1L273,343.2z"/>
					</g>
					<g>
						<path fill="#630F08" d="M273,339.1l5.4-6.1l2.8-3.1l1.3-1.5c0.5-0.5,1-1,1.3-1.5c0.8-1,1-2.3,1-3.6c0-1.3-0.5-2.6-1.3-3.6
							l-5.1-6.4h1l-7.7,11.8l-2,2.8c-0.8,1-1.3,1.8-1.3,3.1c-0.5,2.3,0.5,4.6,2,6.1l0,0L273,339.1z M273,339.1l-2.3-1.8l0,0
							c-1.8-1.5-3.1-3.8-2.6-6.4c0.3-1.3,0.8-2.3,1.3-3.3l1.8-3.1l7.7-11.8l0.5-0.8l0.5,0.8l5.1,6.4c0.8,1.3,1.3,2.6,1.3,4.1
							s-0.5,2.8-1.5,4.1c-0.5,0.5-1,1-1.5,1.5l-1.5,1.5l-2.8,2.8L273,339.1z"/>
					</g>
					<g>
						<path fill="#630F08" d="M286,286.9l-5.4,6.1l-2.8,3.1l-1.3,1.5c-0.5,0.5-1,1-1.3,1.5c-0.8,1-1,2.3-1,3.6
							c0,1.3,0.5,2.6,1.3,3.6l5.1,6.4h-1l7.7-11.8l2-2.8c0.8-1,1.3-1.8,1.3-3.1c0.5-2.3-0.5-4.6-2-6.1l0,0L286,286.9z M286,286.9
							l2.3,1.8l0,0c1.8,1.5,3.1,3.8,2.6,6.4c-0.3,1.3-0.8,2.3-1.3,3.3l-1.8,3.1l-7.7,11.8l-0.5,0.8l-0.5-0.8l-5.1-6.4
							c-0.8-1.3-1.3-2.6-1.3-4.1s0.5-2.8,1.5-4.1c0.5-0.5,1-1,1.5-1.5l1.5-1.5l2.8-2.8L286,286.9z"/>
					</g>
				</g>
				<ellipse fill="#630F08" cx="266.8" cy="341.1" rx="7.2" ry="8.4"/>
				<ellipse fill="#630F08" cx="355.4" cy="341.1" rx="7.2" ry="8.4"/>
				<g>
					<path fill="#630F08" d="M257.9,327c0,0-0.5,0-1.5,0.3c-1,0.3-2,1-3.1,2.3c-2,2.6-3.6,6.9-3.6,11.3c0,2.3,0.3,4.4,1,6.4
						c0.5,2,1.5,3.6,2.6,4.9s2.3,2,3.1,2.3c1,0.3,1.5,0.3,1.5,0.3s-0.5,0-1.5,0c-1-0.3-2.3-0.8-3.6-2c-1.3-1.3-2.3-3.1-3.1-5.1
						c-0.3-1-0.8-2-0.8-3.3c-0.3-1-0.3-2.3-0.3-3.6c0-1.3,0-2.3,0.3-3.6c0.3-1,0.5-2.3,0.8-3.3c0.8-2,1.8-3.8,3.1-5.1
						c1.3-1.3,2.6-1.8,3.6-2C257.1,327,257.9,327.3,257.9,327z"/>
				</g>
				<g>
					<path fill="#630F08" d="M364.9,355.2c0,0,0.5,0,1.5-0.3c1-0.3,2-1,3.1-2.3c2-2.6,3.6-6.9,3.6-11.3c0-2.3-0.3-4.4-1-6.4
						c-0.5-2-1.5-3.6-2.6-4.9c-1-1.3-2.3-2-3.1-2.3c-1-0.3-1.5-0.3-1.5-0.3s0.5,0,1.5,0c1,0.3,2.3,0.8,3.6,2
						c1.3,1.3,2.3,3.1,3.1,5.1c0.3,1,0.8,2,0.8,3.3c0.3,1,0.3,2.3,0.3,3.3c0,1.3,0,2.3-0.3,3.6c-0.3,1-0.5,2.3-0.8,3.3
						c-0.8,2-1.8,3.8-3.1,5.1c-1.3,1.3-2.6,1.8-3.6,2C365.4,355.2,364.9,355.2,364.9,355.2z"/>
				</g>
				<rect x="304.2" y="263.6" fill="#4F221B" width="14.3" height="54.5"/>
			</g>
		</g>
	</g>
</g>
</svg>
