<?xml version="1.0" encoding="utf-8"?>
<!-- Generator: Adobe Illustrator 18.0.0, SVG Export Plug-In . SVG Version: 6.00 Build 0)  -->
<!DOCTYPE svg PUBLIC "-//W3C//DTD SVG 1.1//EN" "http://www.w3.org/Graphics/SVG/1.1/DTD/svg11.dtd">
<svg version="1.1" id="content" xmlns="http://www.w3.org/2000/svg" xmlns:xlink="http://www.w3.org/1999/xlink" x="0px" y="0px"
	 width="500px" height="500px" viewBox="0 0 500 500" enable-background="new 0 0 500 500" xml:space="preserve">
<rect id="position" display="none" fill="none" stroke="#000000" width="500" height="500"/>
<g id="bounds" display="none">
	<rect x="0.2" y="80.2" display="inline" fill="none" stroke="#EAEAEA" stroke-miterlimit="10" width="499.5" height="499.5"/>
</g>
<g>
	<g>
		<path fill="#EAA65E" d="M248,298.9c0,0-0.7,13.1-0.7,37.8c0,24.7-25.6,62.8-79.8,62.8c-39.7,0-39.7,47.4-39.7,64.4h242.7V298.6
			H248V298.9z"/>
		<g>
			<circle fill="#FADD60" cx="263.6" cy="317.7" r="8.8"/>
			<path fill="#DE3300" d="M263.1,324.5H240v-13.1h23.1c3.6,0,6.6,2.9,6.6,6.6v0.2C269.7,321.5,266.8,324.5,263.1,324.5z"/>
		</g>
		<g>
			<circle fill="#FADD60" cx="265" cy="343.3" r="8.8"/>
			<path fill="#DE3300" d="M263.1,349.9l-22.7-4.1l2.3-12.9l22.7,4.1c3.6,0.7,5.9,4.1,5.2,7.7v0.2
				C270.2,348,266.8,350.3,263.1,349.9z"/>
		</g>
		<g>
			<circle fill="#FADD60" cx="253.9" cy="370.3" r="8.8"/>
			<path fill="#DE3300" d="M250,375.7l-19.5-12.5l7-11.1l19.5,12.5c2.9,2,3.9,5.9,2,9.1l0,0C257,376.6,253.2,377.5,250,375.7z"/>
		</g>
		<g>
			<circle fill="#FADD60" cx="235.3" cy="391.8" r="8.8"/>
			<path fill="#DE3300" d="M229.6,395.4L216,376.8l10.7-7.7l13.6,18.6c2,2.9,1.6,7-1.4,9.1l0,0C235.9,399,231.9,398.4,229.6,395.4z"
				/>
		</g>
		<path fill="#3D3F3A" d="M377.1,347.4h-51c-14.5,0-26.3-11.8-26.3-26.3v-22.2h77.3V347.4z"/>
		<path fill="#E6C28B" d="M323,437.3c-22.4,0-37.8,15.2-77.5,15.2H118.8v11.3v5.4c0,5.7,4.3,10,9.5,10s9.5-4.5,9.5-10
			c0,5.7,4.3,10,9.5,10s9.5-4.5,9.5-10c0,5.7,4.3,10,9.5,10s9.5-4.5,9.5-10c0,5.7,4.3,10,9.5,10s9.5-4.5,9.5-10c0,5.7,4.3,10,9.5,10
			s9.5-4.5,9.5-10c0,5.7,4.3,10,9.5,10s9.5-4.5,9.5-10v-5.4h53v5.4c0,5.7,4.3,10,9.5,10c5.2,0,9.5-4.5,9.5-10c0,5.7,4.3,10,9.5,10
			s9.5-4.5,9.5-10c0,5.7,4.3,10,9.5,10c5.2,0,9.5-4.5,9.5-10c0,5.7,4.3,10,9.5,10c5.2,0,9.5-4.5,9.5-10c0,5.7,4.3,10,9.5,10
			c5.2,0,9.5-4.5,9.5-10v-5.4v-11.3v-15.2C379.6,437.3,345.2,437.3,323,437.3z"/>
	</g>
</g>
</svg>
