<?xml version="1.0" encoding="utf-8"?>
<!-- Generator: Adobe Illustrator 18.0.0, SVG Export Plug-In . SVG Version: 6.00 Build 0)  -->
<!DOCTYPE svg PUBLIC "-//W3C//DTD SVG 1.1//EN" "http://www.w3.org/Graphics/SVG/1.1/DTD/svg11.dtd">
<svg version="1.1" id="content" xmlns="http://www.w3.org/2000/svg" xmlns:xlink="http://www.w3.org/1999/xlink" x="0px" y="0px"
	 width="500px" height="500px" viewBox="0 0 500 500" enable-background="new 0 0 500 500" xml:space="preserve">
<rect id="position" display="none" fill="none" stroke="#000000" width="500" height="500"/>
<g id="bounds" display="none">
	<rect x="0.2" y="80.2" display="inline" fill="none" stroke="#EAEAEA" stroke-miterlimit="10" width="499.5" height="499.5"/>
</g>
<g id="shoes">
	<path fill="#604925" d="M310.8,272c0,0-30.9-20.7-56.4,1c0,24.3,0,102.8,0,102.8s-33.2,7.2-57.3,8.2s-75.3,9.3-75.3,55.9
		c22,22,34.2,23.7,88.7,16.9s123.5,18.3,165.4-8.5c4.2-3.6,4.2-3.6,4.2-3.6V271.7L310.8,272z"/>
	<circle fill="#AF8648" cx="277.5" cy="295.2" r="8.6"/>
	<circle fill="#AF8648" cx="277.5" cy="332.1" r="8.6"/>
	<circle fill="#AF8648" cx="277.5" cy="377" r="8.6"/>
	<circle fill="#AF8648" cx="243.5" cy="401.7" r="8.6"/>
	<circle fill="#AF8648" cx="196.5" cy="409.2" r="8.6"/>
	<path fill="#44341A" d="M196.2,411.5C196.2,411.5,196.1,411.5,196.2,411.5c-1.5,0-2.8-0.7-3.7-1.8c-8.2-10.1-18.1-19.3-21-19.7
		c-2.6,0-4.7-2.1-4.7-4.8c0-2.6,2.2-4.8,4.8-4.8c6.9,0,17.3,10.3,24.6,18.8c4.3-5.5,10-13.8,11.5-19.6c0.3-1.3,1.3-2.4,2.5-3.1
		c1.2-0.6,2.7-0.7,3.9-0.2c6.2,2.5,16.5,9.6,23.7,14.8l-1.3-18.3c-0.1-1.4,0.4-2.8,1.5-3.8c1-1,2.5-1.4,3.9-1.3l20.5,2.7l-17.4-15.1
		c-1.1-1-1.7-2.4-1.6-3.8c0.1-1.5,0.8-2.8,2-3.7l23.1-16.4l-19.2-21.9c-1-1.1-1.4-2.6-1.1-4.1c0.3-1.4,1.2-2.7,2.5-3.3l22.7-11.3
		c2.4-1.2,5.2-0.2,6.4,2.1c1.2,2.4,0.2,5.2-2.1,6.4l-17.1,8.6l18.6,21.2c0.9,1,1.3,2.4,1.1,3.7c-0.2,1.3-0.9,2.6-2,3.3l-22.5,16
		l24.8,21.5c1.6,1.4,2.1,3.6,1.2,5.6c-0.9,1.9-2.9,3-5,2.8l-30.4-4l1.7,22.9c0.1,1.9-0.8,3.7-2.5,4.5c-1.7,0.9-3.7,0.7-5.2-0.4
		c-4.8-3.7-17.2-12.9-25.5-17.6c-4.6,10.1-13.9,20.9-15.1,22.3C198.9,410.9,197.6,411.5,196.2,411.5z"/>
	<path fill="#74572C" d="M199.8,462.7c-0.4,0-0.9-0.1-1.3-0.2c-2.5-0.7-4-3.3-3.2-5.9c0.4-1.2,9.2-30.3,55.8-30.3
		c47.3,0,53.4-21.8,53.4-40.8V274.5c-6-3.7-25.7-13.5-47.1,2.3c-2.1,1.6-5.1,1.1-6.7-1c-1.6-2.1-1.1-5.1,1-6.7
		c31.1-22.9,60.1-1.2,60.4-0.9c1.2,0.9,1.9,2.3,1.9,3.8v113.6c0,33.9-20.6,50.3-62.9,50.3c-39.1,0-46.3,22.4-46.6,23.4
		C203.7,461.3,201.8,462.7,199.8,462.7z"/>
	<path fill="#43331A" d="M380.1,440v1.3c-5.8,3.6-24.2,13.5-53.9,13.5c-36.4,0-41.6-8.8-77.2-8.8S146.5,469.6,121.8,436
		c-2.6,0-3.9,0-3.9,0v22.4c0,0,18.2,30.1,75.1,19.4c65.9-12.4,75.9-7.5,92.9-2.5c33.8,12.1,96,2.6,96-14.9c0-12.4,0-20.3,0-20.3
		L380.1,440L380.1,440z"/>
	<path fill="#AF8648" d="M367,323c0,5-4,9-9,9h-28.7c-5,0-9-4-9-9l0,0c0-5,4-9,9-9h28.7C362.9,314,367,318.1,367,323L367,323z"/>
	<path fill="#74572C" d="M340.8,386.1c-20.6,0-31.4-0.8-32.1-0.9l0.7-9.5c0.2,0,24.8,1.8,70.4,0l0.4,9.5
		C364.6,385.9,351.4,386.1,340.8,386.1z"/>
</g>
</svg>
