<?xml version="1.0" encoding="utf-8"?>
<!-- Generator: Adobe Illustrator 14.0.0, SVG Export Plug-In . SVG Version: 6.00 Build 43363)  -->
<!DOCTYPE svg PUBLIC "-//W3C//DTD SVG 1.1//EN" "http://www.w3.org/Graphics/SVG/1.1/DTD/svg11.dtd">
<svg version="1.1" id="content" xmlns="http://www.w3.org/2000/svg" xmlns:xlink="http://www.w3.org/1999/xlink" x="0px" y="0px"
	 width="500px" height="500px" viewBox="0 0 500 500" enable-background="new 0 0 500 500" xml:space="preserve">
<g id="shoes">
	<path fill="#897849" d="M212.811,388.645c0,0,6.938-6.981,16.238-7.509c-5.723,3.648-6.653,8.227-6.653,8.227
		s11.75-5.65,19.181-1.359c-6.661,0.143-8.737,3.433-8.737,3.433s11.732-1.073,14.735,10.874
		c-8.011-3.936-11.588-3.862-11.588-3.862s10.301,5.937,9.156,15.665c-5.365-6.795-9.657-7.155-9.657-7.155
		s8.512,7.796,7.653,17.312c-1.704-5.762-4.862-4.865-4.862-4.865h-60.159c0,0-5.469-6.367-9.076,2.244
		c0.116-8.146,6.167-11.287,6.167-11.287s-5.119-4.073-8.61,0.814c1.047-5.469,5.19-8.476,9.057-8.858
		c-6.507-2.029-9.225-0.612-10.487,1.952c1.723-7.311,5.817-11.443,12.096-9.414c-1.646-4.133-8.153-4.096-8.153-4.096
		s14.127-8.324,25.646,0.055c-4.421-6.168-5.934-6.4-5.934-6.4s7.214-0.582,11.52,4.422c2.56-5.12-2.327-7.941-2.677-7.984
		C206.859,381.153,211.78,385.2,212.811,388.645z"/>
	<path fill="#2D2615" d="M233.769,490.01v9.25l-17.652,1.248c0,0-2.508-7.521-9.188-7.521c-6.679,0-8.911,7.521-8.911,7.521
		s-41.903,3.982-61.38-1.064c-1.611-4.695-2.236-7.84-2.236-7.84s55.157-9.547,73.724-9.547
		C226.694,482.056,233.769,490.01,233.769,490.01z"/>
	<path fill="#514629" d="M233.769,463.357v26.652l-15.789,0.725c0,0-4.718-5.648-11.051-5.648c-6.332,0-10.096,6.52-10.096,6.52
		c-23.757,6.373-62.432,0-62.432,0s-0.724-20.135,18.686-20.135c18.397,2.751,26.219-0.58,26.798-18.107c34.764,0,52.292,0,52.292,0
		L233.769,463.357z"/>
	<path fill="#897849" d="M238.277,429.371c0,0,7.272,5.571,9.297,15.604c-5.998-6.691-8.425-5.571-8.425-5.571
		s7.236,11.982,8.425,19.506c-9.26-7.107-10.933-7.386-10.933-7.386s7.386,8.639,8.918,24.802
		c-8.499-9.613-10.868-11.565-10.868-11.565s-0.695,2.648-3.622,9.476c-2.091-7.663-6.549-9.893-6.549-9.893
		s-0.837,3.624-3.623,9.334c-4.597-11.424-11.007-13.933-11.007-13.933s-7.939,4.597-9.333,13.793
		c-6.131-7.662-5.435-11.982-5.435-11.982s-11.007,3.483-15.187,10.311c-0.976-6.965,3.066-12.121,3.066-12.121
		s-10.31-1.255-14.351,6.269c-0.279-9.056,7.522-14.489,7.522-14.489s-4.597-2.646-9.892,4.18
		c0.835-10.031,6.826-14.629,9.753-15.884c-7.245,0.138-9.753,1.393-9.753,1.393c2.369-8.081,11.486-10.955,11.486-10.955
		s5.234-2.786,11.781-1.394c8.916-1.724,15.487-2.086,20.282,0.395c7.443-1.979,15.805-1.422,17.895-0.586
		C233.16,427.281,238.277,429.371,238.277,429.371z"/>
	<rect x="177.769" y="418.506" fill="#514629" width="60.508" height="11.752"/>
	<path fill="#897849" d="M183.416,412.844c17.749,0,52.182,0,52.182,0l3.681,6.055c-1.675,0.845-2.607,2.713-3.8,4.092
		c-1.374,1.587-2.924,3.085-4.808,4.053c1.153-1.629,0.714-4.188,0.752-6.082c-2.521,2.041-4.292,5.131-7.171,6.801
		c-0.045,0.041-0.046,0.046-0.002,0.011c2.166-1.72,0.534-7.077-2.138-7.44c-2.96-0.404-4.75,5.217-5.655,7.257
		c-1.001-2.024-3.477-4.052-3.834-6.272c-2.603,0.596-3.836,4.743-5.111,6.651c-0.907-1.454-1.447-3.403-2.047-4.979
		c-1.355,0.823-2.501,1.766-3.627,2.837c0.178-0.171-0.479-2.95-0.609-3.266c-0.811-1.954-3.308-1.313-4.617-0.257
		c-1.594,1.287-2.229,3.398-3.712,4.781c-1.076-1.316-2.11-3.74-2.577-5.385c-2.916-0.242-5.197,2.342-6.184,4.881
		c-0.751-0.874-0.92-2.471-1.12-3.62c-0.098-0.556-3.818-0.089-4.291-0.018c-1.453,0.216-2.609,0.95-3.773,1.842
		c-0.281-1.706,0.795-3.126,1.613-4.495c0.878-1.473,1.824-2.871,2.742-4.311C179.992,414.902,182.027,412.844,183.416,412.844z"/>
	<path fill="#75653C" d="M179.164,451.033c0.032,0.014,0.066,0.025,0.104,0.035c0.9,0.249,2.033-1.694,2.804-1.968
		c-0.255,0.708-1.898,2.793-0.92,3.427c1.018,0.658,2.816-1.731,3.841-1.677c-0.526,0.896-3.912,4.636-2.679,5.47
		c0.911-1.021,2.104-1.825,3.208-2.65c0.858-0.643,2.367-1.976,3.554-1.824c-0.61,1.436-2.509,3.172-2.308,4.813
		c1.186-0.664,2.158-1.836,3.171-2.743c0.727-0.651,2.147-2.111,3.221-1.981c-0.831,1.436-3.574,4.197-2.642,6.031
		c1.51-0.58,3.018-2.058,4.302-3.048c0.826-0.637,2.012-1.741,3.088-1.82c-0.146,0.733-3.155,6.774-1.824,7.165
		c0.637,0.188,2.691-3.34,3.001-3.74c0.568-0.738,1.446-2.376,2.487-2.511c0.075,0.943,0.325,2.062,0.576,2.993
		c0.23,0.857,0.441,2.496,1.043,3.134c0.493-0.833,0.583-2.183,0.748-3.138c0.172-0.992,0.275-3.201,1.15-3.846
		c1.049,1.369,1.59,3.321,2.914,4.566c0.327-1.219,0.068-3.438,1.102-4.355c1.093,1.461,1.531,3.374,2.486,4.943
		c0.176-1.092,0.155-3.497,1.162-4.234c0.618,0.452,1.251,1.096,1.748,1.69c0.69,0.824,1.849,1.907,2.1,2.979
		c0.922-0.673,1.327-2.322,1.495-3.381c0.23-1.45,0.665-1.706,2.038-0.871c0.755,0.459,1.392,1.095,1.916,1.801
		c0.2,0.271,1.369,1.861,1.179,2.182c0.665-1.117,0.123-3.434-0.299-4.551c1.285,0.648,1.855,1.895,2.743,2.968
		c-0.134-0.702-0.077-1.435-0.274-2.142c-0.211-0.753-0.858-1.511-0.719-2.322c2.939,0.408,5.664,3.057,7.471,5.214
		c0.751-2.485-0.498-4.396-1.559-6.624c0.687,0.006,1.626,0.777,2.238,1.146c1.29,0.774,1.785,2.132,2.824,2.997
		c-0.848-4.529-4.862-9.146-9.207-10.668c0.422,0.515,3.039,3.648,1.201,3.693c-0.471,0.011-1.55-0.971-1.981-1.264
		c-0.837-0.57-1.684-0.889-2.633-1.264c0.785,0.311,2.282,2.715,1.82,3.553c-0.899,1.633-3.14-0.899-4-1.377
		c-0.441-0.246-1.63-1.089-2.187-0.838c-0.569,0.256-0.155,0.646-0.021,1.105c0.481,1.655-1.073,1.236-2.127,0.755
		c-1.346-0.614-2.355-2.016-3.925-2.009c0.242,0.935,1.646,3.624-0.529,2.923c-0.935-0.302-1.543-1.025-2.046-1.833
		c-0.449-0.723-1.024-1.701-1.436-0.438c-0.232,0.716,0.254,1.464-0.75,1.502c-0.876,0.033-1.052-0.904-1.564-1.418
		c-0.71-0.712-0.988-0.266-1.332,0.666c-0.272,0.74-0.391,1.376-1.105,1.836c-2.165,1.39-1.7-1.775-2.517-2.672
		c-0.667-0.732-2.366,1.416-2.795,1.78c-0.88,0.75-2.25,1.575-1.485-0.326c2.009-4.991-4.089,1.211-5.369-0.117
		c0.461-0.632,0.918-1.601,1.165-2.317c0.099-0.286-1.614-0.051-1.786,0.023c-0.51,0.221-0.923,0.582-1.468,0.781
		c-0.673,0.246-2.628,1.075-3.225,0.328c-0.72-0.902,1.634-2.305,0.817-2.734c-0.523-0.275-2.107,0.789-2.603,0.98
		c-0.967,0.374-2.34,0.993-3.387,0.842c-0.107-0.959,1.046-1.816,1.495-2.57c0,0-0.11-0.148-0.113-0.154
		c-1.805,0.35-3.737,1.06-5.229,2.148c-0.564,0.414-3.502,3.125-1.916,3.065c1.33-0.051,2.854-1.912,4.239-0.894
		C179.466,448.696,178.162,450.615,179.164,451.033z"/>
	<path fill="#75653C" d="M178.517,437.565c1.42,0.22,2.734-1.701,4.123-1.774c-0.357,0.559-2.959,4.311-1.797,4.742
		c0.425,0.158,2.077-1.725,2.46-2.073c0.735-0.672,1.41-1.519,2.303-1.948c-0.498,0.783-0.665,1.391-0.526,2.348
		c0.065,0.451,0.06,2.85,0.721,2.872c0.497,0.017,1.425-2.181,1.712-2.599c0.608-0.886,1.486-1.476,2.238-2.178
		c-0.333,0.761-0.385,4.807,0.9,4.664c0.342-1.54,1.056-2.981,2.065-4.188c0.279,0.842,0.971,1.641,1.369,2.491
		c0.339,0.722,0.929,2.043,1.711,2.333c0.384-0.505,0.213-1.604,0.273-2.246c0.069-0.741,0.097-1.501,0.271-2.218
		c1.067,1.221,1.279,3.831,2.813,4.564c1.615,0.773,1.141-3.11,1.783-4.023c0.225,0.893,0.7,1.688,1.012,2.561
		c0.295,0.825,0.266,2.193,1.148,2.641c0.584-0.544,0.421-1.257,0.445-1.969c0.031-0.911,0.318-1.595,0.566-2.447
		c0.662,0.58,0.994,1.578,1.621,2.245c0.372,0.396,1.467,1.764,2.052,1.783c1.858,0.062,0.783-3.414,1.621-3.999
		c1.435,0.938,1.763,3.335,3.243,4.297c1.108-1.055,0.57-2.857,0.646-4.216c0.607,0.637,1.255,1.349,1.785,2.065
		c0.477,0.643,0.78,1.867,1.698,1.949c0.134-1.414,0.71-2.994-0.333-4.215c0.392,0.793,1.831,1.957,2.574,2.495
		c0.772,0.559,2.101,1.148,3,1.452c0.47-1.068-0.815-3.344-1.347-4.285c0.971,0.579,1.725,1.518,2.535,2.293
		c0.591,0.564,1.301,1.54,2.232,1.371c2.848-0.518-1.384-3.566-1.88-4.128c1.335,0.36,2.626,1.13,3.682,2.078
		c0.861,0.774,1.523,1.425,2.616,1.678c0.646-1.81-1.405-3.981-2.859-4.771c1.114,0.618,2.37,0.931,3.508,1.54
		c0.518,0.277,2.194,1.322,2.79,0.838c1.117-0.91-2.693-3.262-3.325-3.885c0.65-0.105,1.185,0.215,1.793,0.412
		c0.58,0.188,2.03,0.875,2.594,0.813c0.778-0.085,0.489-0.445,0.181-0.965c-0.523-0.885-1.313-1.096-2.274-1.381
		c-1.656-0.492-3.338-0.928-5.024-1.268c-1.31-0.264-2.951-1.04-4.22-0.271c0.449,0.661,2.066,0.743,1.809,1.866
		c-0.081,0.354-2.056-0.791-2.237-0.838c-1.454-0.373-0.585,0.803-1.55,1.045c-1.973,0.494-3.355-2.465-5.28-2.155
		c-0.93,0.149-0.297,0.741-0.079,1.308c0.592,1.537-1.156,1.422-1.992,0.8c-0.917-0.683-1.581-2.382-2.812-2.489
		c-0.395,0.855,0.705,1.727,0.511,2.668c-0.229,1.113-0.989,0.212-1.289-0.457c-0.251-0.559-0.396-1.527-1.095-1.709
		c-0.935-0.244-0.956,0.898-1.475,1.359c-1.018,0.906-1.852-0.17-2.278-1.086c-0.281-0.604-0.077-1.365-0.865-1.438
		c-0.956-0.089-3.016,3.233-3.704,1.892c-0.255-0.496,0.29-0.906,0.262-1.365c-0.05-0.813-0.735-0.631-1.256-0.396
		c-0.697,0.315-1.303,0.778-1.901,1.248c-0.438,0.343-1.33,1.65-1.876,0.841c-0.337-0.501,0.199-1.364,0.267-1.881
		c0.143-1.094-1.607-0.16-2.095,0.232c-0.454,0.365-1.545,1.65-2.231,1.339c-0.794-0.36,0.176-1.137,0.267-1.634
		c0.059-0.317-2.561,0.961-2.922,1.126c-0.543,0.248-2.362,1.228-2.835,0.44c-0.452-0.754,1.527-1.344,0.918-2.021
		c-0.486-0.541-2.185,0.805-2.661,1.029c-0.337,0.159-0.86,0.378-0.851-0.199c0.006-0.304,0.594-0.67,0.764-0.917
		c-0.831-0.228-1.813,0.833-2.331,1.334c-0.796,0.771-1.647,1.473-2.418,2.247C179.68,435.332,178.011,437.487,178.517,437.565z"/>
	<path fill="none" stroke="#BAA46E" stroke-width="1.8618" stroke-linecap="round" stroke-linejoin="round" d="M215.12,419.403
		c0,0,6.689,14.362-6.051,19.116c-13.827-4.295-9.774-20.014-9.774-20.014"/>
	
		<line fill="none" stroke="#BAA46E" stroke-width="1.8618" stroke-linecap="round" stroke-linejoin="round" x1="212.095" y1="440.197" x2="206.371" y2="440.197"/>
	
		<line fill="none" stroke="#BAA46E" stroke-width="1.8618" stroke-linecap="round" stroke-linejoin="round" x1="212.095" y1="442.941" x2="206.371" y2="442.941"/>
	<path fill="none" stroke="#BAA46E" stroke-width="1.8618" stroke-linecap="round" stroke-linejoin="round" d="M196.736,480.41
		c19.781-1.164,12.498-35.84,12.498-35.84s9.378,37.003,17.756,35.84"/>
	<path fill="#75653C" d="M184.684,401.474c0.958-1.473,2.923-2.33,4.41-3.183c-0.525,1.152-0.235,2.864-0.235,4.128
		c0,1.241-0.02,2.447,0.456,3.557c-0.179-2.393,2.179-5.379,3.91-6.814c0.534,2.483,1.456,5.566,3.18,7.489
		c-0.038-3.054,1.64-4.797,2.943-7.354c1.081,1.082,1.709,2.673,2.366,4.018c0.571,1.17,1.383,2.057,2.12,3.111
		c-0.61-2.066,0.554-4.349,0.909-6.357c2.093-0.072,3.7,4.365,4.376,5.91c0.468-1.953,0.583-3.745,0.689-5.804
		c2.741,1.056,4.156,3.745,5.529,6.17c1.157-1.723,0.108-4.555,0.21-6.502c1.809-0.294,4.059,2.385,5.025,3.612
		c0.722,0.917,1.702,2.955,2.813,3.334c0.664-1.85-0.218-5.404-1.086-7.059c2.479,0.866,5.127,1.688,7.053,3.657
		c-0.432-1.571-0.458-3.25-1.555-4.6c-1.104-1.358-2.691-2.433-4.246-3.214c-2.938-1.477-5.961-2.008-8.992-2.96
		c1.282,0.767,1.864,2.414,2.869,3.196c-1.937-1.035-4.63-1.381-6.718-2.276c0.276,1.144,0.722,2.075,0.798,3.351
		c0.044,0.039,0.046,0.037,0.006-0.006c-1.296-1.248-2.193-2.961-3.496-4.126c-0.73,1.116-0.364,2.933-1.579,3.798
		c-0.274-0.76-0.804-1.281-0.929-2.125c-0.121-0.822,0.161-1.674-0.135-2.467c-1.476,0.965-2.21,2.768-3.666,3.691
		c-0.267-1.41,1.375-2.745,1.65-4.021c-1.262,0.026-2.749,1.384-3.814,2.006c-1.496,0.875-2.939,1.978-4.476,2.69
		c0.102-1.055,1.422-1.784,1.65-2.786c-1.836-0.286-2.579,1.538-4.068,1.913c-1.931,0.486,0.689-2.139,1.032-2.808
		c-2.355-0.221-4.564,1.401-6.075,3.046C186.026,397.418,185.928,399.562,184.684,401.474z"/>
	<path fill="#75653C" d="M181.642,411.332c-0.51,1.665-1.245,3.615-1.058,5.38c0.554-1.178,1.533-2.325,2.446-3.437
		c0.042,1.284,0.31,3.08,0.966,4.121c-0.085-1.284,1.7-3.588,2.395-4.405c-0.075,1.956,0.262,3.913,1.071,5.716
		c0.587,0.065,0.589-0.587,0.794-1.014c0.453-0.944,1.048-1.729,1.764-2.487c1.061-1.124,2.697-3.003,4.277-3.335
		c-0.699,1.861-1.601,3.476-1.377,5.613c1.131-1.797,2.581-3.987,4.626-4.999c0.325,1.022,0.97,2.907,1.761,3.591
		c-0.033-0.836,0.252-1.574,0.565-2.346c0.458-1.127,0.662-1.059,1.469-0.203c0.728,0.771,1.51,1.689,2.03,2.619
		c0.376,0.672,0.487,1.516,0.858,2.129c-0.041-1.349,0.155-4.043,1.075-5.084c1.612,1.055,2.466,3.506,3.766,4.908
		c-0.066-0.863-0.243-4.917,0.721-4.945c0.481-0.014,1.98,1.111,2.355,1.429c0.548,0.465,1.025,1.021,1.59,1.468
		c-0.313-1.278-0.771-2.521-1.45-3.737c1.466-0.14,3.164,1.175,4.257,2.01c0.954,0.729,2.053,1.775,2.329,2.985
		c0.528-1.379-1.036-4.072-1.614-5.418c1.78,1.32,4.372,1.925,6.348,2.959c1.064,0.557,1.903,0.991,2.637,1.939
		c0.324,0.421,0.758,1.013,1.084,1.307c-0.534-0.843-0.62-1.895-1.08-2.78c-0.572-1.103-1.691-1.938-2.189-3.007
		c1.909,0.726,3.889,1.644,5.724,2.627c1.386,0.742,2.047,2.174,3.306,2.898c0.074-1.009-0.912-2.372-1.39-3.229
		c-0.496-0.889-1.104-1.663-1.55-2.575c1.283-0.052,3.369,1.522,4.387,2.228c0.536,0.371,1.258,0.768,1.718,1.205
		c0.37,0.352,0.595,0.912,1.064,1.049c-0.978-2.656-2.515-4.762-4.937-6.322c-1.895-1.221-3.979-2.613-6.057-3.309
		c0.547,1.242,1.592,2.207,1.932,3.561c-2.671-1.164-5.61-2.02-8.314-2.969c0.727,0.998,1.72,2.084,1.908,3.389
		c-0.808-0.979-2.269-1.324-3.418-1.706c-1.086-0.36-2.291-1.063-3.435-0.977c-0.105,0.793,0.433,2.141,0.606,2.947
		c-0.49-0.583-1.033-1.097-1.583-1.641c-0.485-0.479-1.146-1.36-1.767-1.649c-1.583-0.738-1.374,2.678-2.285,3.397
		c-0.671-0.839-1.07-2.415-2.089-2.913c-1.321-0.646-2.116,2.658-3.255,3.351c-0.422-0.654,0.214-2.827-0.655-3.136
		c-0.66-0.234-2.596,2.148-3.396,2.438c-0.027-0.807,1.396-2.746,0.244-2.984c-0.639-0.133-2.019,0.781-2.545,1.077
		c-0.896,0.504-1.847,1.078-2.806,1.374c0.389-0.407,0.769-0.885,1.149-1.304c0.685-0.755,1.108-1.313-0.258-1.038
		c-2.238,0.449-4.029,1.771-5.84,3.028c0.326-1.224,2.045-1.925,2.195-3.211c-2.679-0.222-4.136,2.666-6.395,3.318
		c-0.074-0.674,1.632-2.223,0.778-2.63c-0.835-0.398-2.565,1.521-3.15,1.929c0.181-0.126,0.642-1.484,0.795-1.81
		c0.205-0.436,0.645-1.33,0.316-1.791C183.669,404.979,181.81,410.784,181.642,411.332z"/>
</g>
<rect id="position" x="0" y="0" display="none" fill="none" stroke="#000000" width="500" height="500"/>
</svg>
