<?xml version="1.0" encoding="utf-8"?>
<!-- Generator: Adobe Illustrator 18.0.0, SVG Export Plug-In . SVG Version: 6.00 Build 0)  -->
<!DOCTYPE svg PUBLIC "-//W3C//DTD SVG 1.1//EN" "http://www.w3.org/Graphics/SVG/1.1/DTD/svg11.dtd">
<svg version="1.1" id="content" xmlns="http://www.w3.org/2000/svg" xmlns:xlink="http://www.w3.org/1999/xlink" x="0px" y="0px"
	 width="500px" height="500px" viewBox="0 0 500 500" enable-background="new 0 0 500 500" xml:space="preserve">
<rect id="position" display="none" fill="none" stroke="#000000" width="500" height="500"/>
<g id="bounds" display="none">
	<rect x="0.2" y="80.2" display="inline" fill="none" stroke="#EAEAEA" stroke-miterlimit="10" width="499.5" height="499.5"/>
</g>
<g id="shoes">
	<g>
		<path fill="#897849" d="M300.4,218c0,0,16-16.1,37.5-17.3c-13.2,8.4-15.4,19-15.4,19s27.1-13.1,44.3-3.1
			c-15.4,0.3-20.2,7.9-20.2,7.9s27.1-2.5,34,25.1c-18.5-9.1-26.8-8.9-26.8-8.9s23.8,13.7,21.2,36.2c-12.4-15.7-22.3-16.5-22.3-16.5
			s19.7,18,17.7,40c-3.9-13.3-11.2-11.2-11.2-11.2h-139c0,0-12.6-14.7-21,5.2c0.3-18.8,14.2-26.1,14.2-26.1s-11.8-9.4-19.9,1.9
			c2.4-12.6,12-19.6,20.9-20.5c-15-4.7-21.3-1.4-24.2,4.5c4-16.9,13.4-26.4,27.9-21.8c-3.8-9.5-18.8-9.5-18.8-9.5
			s32.6-19.2,59.3,0.1c-10.2-14.3-13.7-14.8-13.7-14.8s16.7-1.3,26.6,10.2c5.9-11.8-5.4-18.3-6.2-18.4
			C286.7,200.7,298,210.1,300.4,218z"/>
	</g>
	<g>
		<path fill="#2D2615" d="M348.9,452.2v21.4l-40.8,2.9c0,0-5.8-17.4-21.2-17.4c-15.4,0-20.6,17.4-20.6,17.4s-96.8,9.2-141.8-2.5
			c-3.7-10.8-5.2-18.1-5.2-18.1s127.4-22.1,170.3-22.1C332.5,433.9,348.9,452.2,348.9,452.2z"/>
	</g>
	<g>
		<path fill="#514629" d="M348.9,390.6v61.6l-36.5,1.7c0,0-10.9-13.1-25.5-13.1c-14.6,0-23.3,15.1-23.3,15.1
			c-54.9,14.7-144.3,0-144.3,0s-1.7-46.5,43.2-46.5c42.5,6.4,60.6-1.3,61.9-41.8c80.3,0,120.8,0,120.8,0L348.9,390.6z"/>
	</g>
	<g>
		<path fill="#897849" d="M359.3,312.1c0,0,16.8,12.9,21.5,36.1c-13.9-15.5-19.5-12.9-19.5-12.9s16.7,27.7,19.5,45.1
			c-21.4-16.4-25.3-17.1-25.3-17.1s17.1,20,20.6,57.3c-19.6-22.2-25.1-26.7-25.1-26.7s-1.6,6.1-8.4,21.9
			c-4.8-17.7-15.1-22.9-15.1-22.9s-1.9,8.4-8.4,21.6c-10.6-26.4-25.4-32.2-25.4-32.2s-18.3,10.6-21.6,31.9
			c-14.2-17.7-12.6-27.7-12.6-27.7s-25.4,8-35.1,23.8c-2.3-16.1,7.1-28,7.1-28s-23.8-2.9-33.2,14.5c-0.6-20.9,17.4-33.5,17.4-33.5
			s-10.6-6.1-22.9,9.7c1.9-23.2,15.8-33.8,22.5-36.7c-16.7,0.3-22.5,3.2-22.5,3.2c5.5-18.7,26.5-25.3,26.5-25.3s12.1-6.4,27.2-3.2
			c20.6-4,35.8-4.8,46.9,0.9c17.2-4.6,36.5-3.3,41.3-1.4C347.4,307.3,359.3,312.1,359.3,312.1z"/>
	</g>
	<g>
		<rect x="219.5" y="287" fill="#514629" width="139.8" height="27.2"/>
	</g>
	<g>
		<path fill="#897849" d="M232.5,273.9c41,0,120.6,0,120.6,0l8.5,14c-3.9,2-6,6.3-8.8,9.5c-3.2,3.7-6.8,7.1-11.1,9.4
			c2.7-3.8,1.6-9.7,1.7-14.1c-5.8,4.7-9.9,11.9-16.6,15.7c-0.1,0.1-0.1,0.1,0,0c5-4,1.2-16.4-4.9-17.2c-6.8-0.9-11,12.1-13.1,16.8
			c-2.3-4.7-8-9.4-8.9-14.5c-6,1.4-8.9,11-11.8,15.4c-2.1-3.4-3.3-7.9-4.7-11.5c-3.1,1.9-5.8,4.1-8.4,6.6c0.4-0.4-1.1-6.8-1.4-7.5
			c-1.9-4.5-7.6-3-10.7-0.6c-3.7,3-5.2,7.9-8.6,11c-2.5-3-4.9-8.6-6-12.4c-6.7-0.6-12,5.4-14.3,11.3c-1.7-2-2.1-5.7-2.6-8.4
			c-0.2-1.3-8.8-0.2-9.9,0c-3.4,0.5-6,2.2-8.7,4.3c-0.6-3.9,1.8-7.2,3.7-10.4c2-3.4,4.2-6.6,6.3-10
			C224.6,278.7,229.3,273.9,232.5,273.9z"/>
	</g>
	<g>
		<path fill="#75653C" d="M222.7,362.2c0.1,0,0.2,0.1,0.2,0.1c2.1,0.6,4.7-3.9,6.5-4.5c-0.6,1.6-4.4,6.5-2.1,7.9
			c2.4,1.5,6.5-4,8.9-3.9c-1.2,2.1-9,10.7-6.2,12.6c2.1-2.4,4.9-4.2,7.4-6.1c2-1.5,5.5-4.6,8.2-4.2c-1.4,3.3-5.8,7.3-5.3,11.1
			c2.7-1.5,5-4.2,7.3-6.3c1.7-1.5,5-4.9,7.4-4.6c-1.9,3.3-8.3,9.7-6.1,13.9c3.5-1.3,7-4.8,9.9-7c1.9-1.5,4.6-4,7.1-4.2
			c-0.3,1.7-7.3,15.7-4.2,16.6c1.5,0.4,6.2-7.7,6.9-8.6c1.3-1.7,3.3-5.5,5.7-5.8c0.2,2.2,0.8,4.8,1.3,6.9c0.5,2,1,5.8,2.4,7.2
			c1.1-1.9,1.3-5,1.7-7.3c0.4-2.3,0.6-7.4,2.7-8.9c2.4,3.2,3.7,7.7,6.7,10.6c0.8-2.8,0.2-7.9,2.5-10.1c2.5,3.4,3.5,7.8,5.7,11.4
			c0.4-2.5,0.4-8.1,2.7-9.8c1.4,1,2.9,2.5,4,3.9c1.6,1.9,4.3,4.4,4.9,6.9c2.1-1.6,3.1-5.4,3.5-7.8c0.5-3.4,1.5-3.9,4.7-2
			c1.7,1.1,3.2,2.5,4.4,4.2c0.5,0.6,3.2,4.3,2.7,5c1.5-2.6,0.3-7.9-0.7-10.5c3,1.5,4.3,4.4,6.3,6.9c-0.3-1.6-0.2-3.3-0.6-4.9
			c-0.5-1.7-2-3.5-1.7-5.4c6.8,0.9,13.1,7.1,17.3,12c1.7-5.7-1.2-10.2-3.6-15.3c1.6,0,3.8,1.8,5.2,2.6c3,1.8,4.1,4.9,6.5,6.9
			c-2-10.5-11.2-21.1-21.3-24.6c1,1.2,7,8.4,2.8,8.5c-1.1,0-3.6-2.2-4.6-2.9c-1.9-1.3-3.9-2.1-6.1-2.9c1.8,0.7,5.3,6.3,4.2,8.2
			c-2.1,3.8-7.3-2.1-9.2-3.2c-1-0.6-3.8-2.5-5.1-1.9c-1.3,0.6-0.4,1.5,0,2.6c1.1,3.8-2.5,2.9-4.9,1.7c-3.1-1.4-5.4-4.7-9.1-4.6
			c0.6,2.2,3.8,8.4-1.2,6.8c-2.2-0.7-3.6-2.4-4.7-4.2c-1-1.7-2.4-3.9-3.3-1c-0.5,1.7,0.6,3.4-1.7,3.5c-2,0.1-2.4-2.1-3.6-3.3
			c-1.6-1.6-2.3-0.6-3.1,1.5c-0.6,1.7-0.9,3.2-2.6,4.2c-5,3.2-3.9-4.1-5.8-6.2c-1.5-1.7-5.5,3.3-6.5,4.1c-2,1.7-5.2,3.6-3.4-0.8
			c4.6-11.5-9.4,2.8-12.4-0.3c1.1-1.5,2.1-3.7,2.7-5.4c0.2-0.7-3.7-0.1-4.1,0.1c-1.2,0.5-2.1,1.3-3.4,1.8c-1.6,0.6-6.1,2.5-7.5,0.8
			c-1.7-2.1,3.8-5.3,1.9-6.3c-1.2-0.6-4.9,1.8-6,2.3c-2.2,0.9-5.4,2.3-7.8,1.9c-0.2-2.2,2.4-4.2,3.5-5.9c0,0-0.3-0.3-0.3-0.4
			c-4.2,0.8-8.6,2.4-12.1,5c-1.3,1-8.1,7.2-4.4,7.1c3.1-0.1,6.6-4.4,9.8-2.1C223.4,356.8,220.4,361.2,222.7,362.2z"/>
	</g>
	<g>
		<path fill="#75653C" d="M221.2,331.1c3.3,0.5,6.3-3.9,9.5-4.1c-0.8,1.3-6.8,10-4.2,11c1,0.4,4.8-4,5.7-4.8
			c1.7-1.6,3.3-3.5,5.3-4.5c-1.2,1.8-1.5,3.2-1.2,5.4c0.2,1,0.1,6.6,1.7,6.6c1.1,0,3.3-5,4-6c1.4-2,3.4-3.4,5.2-5
			c-0.8,1.8-0.9,11.1,2.1,10.8c0.8-3.6,2.4-6.9,4.8-9.7c0.6,1.9,2.2,3.8,3.2,5.8c0.8,1.7,2.1,4.7,4,5.4c0.9-1.2,0.5-3.7,0.6-5.2
			c0.2-1.7,0.2-3.5,0.6-5.1c2.5,2.8,3,8.9,6.5,10.5c3.7,1.8,2.6-7.2,4.1-9.3c0.5,2.1,1.6,3.9,2.3,5.9c0.7,1.9,0.6,5.1,2.7,6.1
			c1.3-1.3,1-2.9,1-4.5c0.1-2.1,0.7-3.7,1.3-5.7c1.5,1.3,2.3,3.6,3.7,5.2c0.9,0.9,3.4,4.1,4.7,4.1c4.3,0.1,1.8-7.9,3.7-9.2
			c3.3,2.2,4.1,7.7,7.5,9.9c2.6-2.4,1.3-6.6,1.5-9.7c1.4,1.5,2.9,3.1,4.1,4.8c1.1,1.5,1.8,4.3,3.9,4.5c0.3-3.3,1.6-6.9-0.8-9.7
			c0.9,1.8,4.2,4.5,5.9,5.8c1.8,1.3,4.9,2.7,6.9,3.4c1.1-2.5-1.9-7.7-3.1-9.9c2.2,1.3,4,3.5,5.9,5.3c1.4,1.3,3,3.6,5.2,3.2
			c6.6-1.2-3.2-8.2-4.3-9.5c3.1,0.8,6.1,2.6,8.5,4.8c2,1.8,3.5,3.3,6,3.9c1.5-4.2-3.2-9.2-6.6-11c2.6,1.4,5.5,2.2,8.1,3.6
			c1.2,0.6,5.1,3.1,6.4,1.9c2.6-2.1-6.2-7.5-7.7-9c1.5-0.2,2.7,0.5,4.1,1c1.3,0.4,4.7,2,6,1.9c1.8-0.2,1.1-1,0.4-2.2
			c-1.2-2-3-2.5-5.3-3.2c-3.8-1.1-7.7-2.1-11.6-2.9c-3-0.6-6.8-2.4-9.8-0.6c1,1.5,4.8,1.7,4.2,4.3c-0.2,0.8-4.8-1.8-5.2-1.9
			c-3.4-0.9-1.4,1.9-3.6,2.4c-4.6,1.1-7.8-5.7-12.2-5c-2.1,0.3-0.7,1.7-0.2,3c1.4,3.6-2.7,3.3-4.6,1.8c-2.1-1.6-3.7-5.5-6.5-5.8
			c-0.9,2,1.6,4,1.2,6.2c-0.5,2.6-2.3,0.5-3-1.1c-0.6-1.3-0.9-3.5-2.5-3.9c-2.2-0.6-2.2,2.1-3.4,3.1c-2.4,2.1-4.3-0.4-5.3-2.5
			c-0.6-1.4-0.2-3.2-2-3.3c-2.2-0.2-7,7.5-8.6,4.4c-0.6-1.1,0.7-2.1,0.6-3.2c-0.1-1.9-1.7-1.5-2.9-0.9c-1.6,0.7-3,1.8-4.4,2.9
			c-1,0.8-3.1,3.8-4.3,1.9c-0.8-1.2,0.5-3.2,0.6-4.3c0.3-2.5-3.7-0.4-4.8,0.5c-1,0.8-3.6,3.8-5.2,3.1c-1.8-0.8,0.4-2.6,0.6-3.8
			c0.1-0.7-5.9,2.2-6.8,2.6c-1.3,0.6-5.5,2.8-6.6,1c-1-1.7,3.5-3.1,2.1-4.7c-1.1-1.2-5,1.9-6.1,2.4c-0.8,0.4-2,0.9-2-0.5
			c0-0.7,1.4-1.5,1.8-2.1c-1.9-0.5-4.2,1.9-5.4,3.1c-1.8,1.8-3.8,3.4-5.6,5.2C223.9,325.9,220,330.9,221.2,331.1z"/>
	</g>
	<g>
		<path fill="#BAA46E" d="M291.8,335.4c-0.2,0-0.4,0-0.6-0.1c-33.5-10.4-24.1-48.4-24-48.8c0.3-1.2,1.5-1.8,2.6-1.5
			c1.1,0.3,1.8,1.5,1.5,2.6c0,0.1-2.2,8.9-0.6,18.7c2,12.5,9.1,20.8,21.1,24.8c6.9-2.8,11.7-7.1,14.1-12.9c5.1-12.5-1.9-27.9-2-28.1
			c-0.5-1.1,0-2.4,1-2.9c1.1-0.5,2.4,0,2.9,1c0.3,0.7,7.9,17.3,2.1,31.5c-2.9,7.2-8.7,12.4-17.2,15.6
			C292.3,335.4,292,335.4,291.8,335.4z"/>
	</g>
	<g>
		<path fill="#BAA46E" d="M298.8,339.3h-13.2c-1.2,0-2.2-1-2.2-2.2c0-1.2,1-2.2,2.2-2.2h13.2c1.2,0,2.2,1,2.2,2.2
			C300.9,338.3,300,339.3,298.8,339.3z"/>
	</g>
	<g>
		<path fill="#BAA46E" d="M298.8,345.6h-13.2c-1.2,0-2.2-1-2.2-2.2c0-1.2,1-2.2,2.2-2.2h13.2c1.2,0,2.2,1,2.2,2.2
			C300.9,344.7,300,345.6,298.8,345.6z"/>
	</g>
	<g>
		<path fill="#BAA46E" d="M332.4,432.3c-13.7,0-27.1-34.4-35.1-59.5c0.6,15.7-1,35.1-10.4,47.4c-5.7,7.4-13.5,11.5-23.4,12.1
			c-1.1,0.1-2.2-0.8-2.3-2c-0.1-1.2,0.8-2.2,2-2.3c8.6-0.5,15.4-4,20.3-10.4c16.5-21.6,6.8-69.4,6.6-69.8c-0.2-1.1,0.5-2.3,1.6-2.5
			c1.1-0.3,2.3,0.4,2.6,1.6c8.2,32.3,26,82.9,38.6,81.2c1.2-0.2,2.3,0.7,2.4,1.8c0.2,1.2-0.7,2.3-1.8,2.4
			C333.1,432.2,332.7,432.3,332.4,432.3z"/>
	</g>
	<g>
		<path fill="#75653C" d="M235.4,247.7c2.2-3.4,6.8-5.4,10.2-7.4c-1.2,2.7-0.5,6.6-0.5,9.5c0,2.9,0,5.7,1.1,8.2
			c-0.4-5.5,5-12.4,9-15.7c1.2,5.7,3.4,12.9,7.3,17.3c-0.1-7.1,3.8-11.1,6.8-17c2.5,2.5,3.9,6.2,5.5,9.3c1.3,2.7,3.2,4.8,4.9,7.2
			c-1.4-4.8,1.3-10,2.1-14.7c4.8-0.2,8.5,10.1,10.1,13.7c1.1-4.5,1.3-8.7,1.6-13.4c6.3,2.4,9.6,8.7,12.8,14.3c2.7-4,0.2-10.5,0.5-15
			c4.2-0.7,9.4,5.5,11.6,8.3c1.7,2.1,3.9,6.8,6.5,7.7c1.5-4.3-0.5-12.5-2.5-16.3c5.7,2,11.8,3.9,16.3,8.4c-1-3.6-1.1-7.5-3.6-10.6
			c-2.6-3.1-6.2-5.6-9.8-7.4c-6.8-3.4-13.8-4.6-20.8-6.8c3,1.8,4.3,5.6,6.6,7.4c-4.5-2.4-10.7-3.2-15.5-5.3c0.6,2.6,1.7,4.8,1.8,7.7
			c0.1,0.1,0.1,0.1,0,0c-3-2.9-5.1-6.8-8.1-9.5c-1.7,2.6-0.8,6.8-3.6,8.8c-0.6-1.8-1.9-3-2.1-4.9c-0.3-1.9,0.4-3.9-0.3-5.7
			c-3.4,2.2-5.1,6.4-8.5,8.5c-0.6-3.3,3.2-6.3,3.8-9.3c-2.9,0.1-6.4,3.2-8.8,4.6c-3.5,2-6.8,4.6-10.3,6.2c0.2-2.4,3.3-4.1,3.8-6.4
			c-4.2-0.7-6,3.6-9.4,4.4c-4.5,1.1,1.6-4.9,2.4-6.5c-5.4-0.5-10.5,3.2-14,7C238.5,238.3,238.3,243.2,235.4,247.7z"/>
	</g>
	<g>
		<path fill="#75653C" d="M228.4,270.4c-1.2,3.8-2.9,8.4-2.4,12.4c1.3-2.7,3.5-5.4,5.7-7.9c0.1,3,0.7,7.1,2.2,9.5
			c-0.2-3,3.9-8.3,5.5-10.2c-0.2,4.5,0.6,9,2.5,13.2c1.4,0.2,1.4-1.4,1.8-2.3c1-2.2,2.4-4,4.1-5.7c2.5-2.6,6.2-6.9,9.9-7.7
			c-1.6,4.3-3.7,8-3.2,13c2.6-4.2,6-9.2,10.7-11.6c0.8,2.4,2.2,6.7,4.1,8.3c-0.1-1.9,0.6-3.6,1.3-5.4c1.1-2.6,1.5-2.4,3.4-0.5
			c1.7,1.8,3.5,3.9,4.7,6.1c0.9,1.6,1.1,3.5,2,4.9c-0.1-3.1,0.4-9.3,2.5-11.7c3.7,2.4,5.7,8.1,8.7,11.3c-0.2-2-0.6-11.4,1.7-11.4
			c1.1,0,4.6,2.6,5.4,3.3c1.3,1.1,2.4,2.4,3.7,3.4c-0.7-3-1.8-5.8-3.4-8.6c3.4-0.3,7.3,2.7,9.8,4.6c2.2,1.7,4.7,4.1,5.4,6.9
			c1.2-3.2-2.4-9.4-3.7-12.5c4.1,3,10.1,4.4,14.7,6.8c2.5,1.3,4.4,2.3,6.1,4.5c0.7,1,1.8,2.3,2.5,3c-1.2-1.9-1.4-4.4-2.5-6.4
			c-1.3-2.5-3.9-4.5-5.1-6.9c4.4,1.7,9,3.8,13.2,6.1c3.2,1.7,4.7,5,7.6,6.7c0.2-2.3-2.1-5.5-3.2-7.5c-1.1-2.1-2.6-3.8-3.6-5.9
			c3-0.1,7.8,3.5,10.1,5.1c1.2,0.9,2.9,1.8,4,2.8c0.9,0.8,1.4,2.1,2.5,2.4c-2.3-6.1-5.8-11-11.4-14.6c-4.4-2.8-9.2-6-14-7.6
			c1.3,2.9,3.7,5.1,4.5,8.2c-6.2-2.7-13-4.7-19.2-6.9c1.7,2.3,4,4.8,4.4,7.8c-1.9-2.3-5.2-3.1-7.9-3.9c-2.5-0.8-5.3-2.5-7.9-2.3
			c-0.2,1.8,1,4.9,1.4,6.8c-1.1-1.3-2.4-2.5-3.7-3.8c-1.1-1.1-2.6-3.1-4.1-3.8c-3.7-1.7-3.2,6.2-5.3,7.8c-1.6-1.9-2.5-5.6-4.8-6.7
			c-3.1-1.5-4.9,6.1-7.5,7.7c-1-1.5,0.5-6.5-1.5-7.2c-1.5-0.5-6,5-7.8,5.6c-0.1-1.9,3.2-6.3,0.6-6.9c-1.5-0.3-4.7,1.8-5.9,2.5
			c-2.1,1.2-4.3,2.5-6.5,3.2c0.9-0.9,1.8-2,2.7-3c1.6-1.7,2.6-3-0.6-2.4c-5.2,1-9.3,4.1-13.5,7c0.8-2.8,4.7-4.4,5.1-7.4
			c-6.2-0.5-9.6,6.2-14.8,7.7c-0.2-1.6,3.8-5.1,1.8-6.1c-1.9-0.9-5.9,3.5-7.3,4.5c0.4-0.3,1.5-3.4,1.8-4.2c0.5-1,1.5-3.1,0.7-4.1
			C233.1,255.8,228.8,269.2,228.4,270.4z"/>
	</g>
</g>
</svg>
