<?xml version="1.0" encoding="utf-8"?>
<!-- Generator: Adobe Illustrator 18.0.0, SVG Export Plug-In . SVG Version: 6.00 Build 0)  -->
<!DOCTYPE svg PUBLIC "-//W3C//DTD SVG 1.1//EN" "http://www.w3.org/Graphics/SVG/1.1/DTD/svg11.dtd">
<svg version="1.1" id="content" xmlns="http://www.w3.org/2000/svg" xmlns:xlink="http://www.w3.org/1999/xlink" x="0px" y="0px"
	 width="500px" height="500px" viewBox="0 0 500 500" enable-background="new 0 0 500 500" xml:space="preserve">
<rect id="position" display="none" fill="none" stroke="#000000" width="500" height="500"/>
<g id="bounds" display="none">
	<rect x="0.2" y="80.2" display="inline" fill="none" stroke="#EAEAEA" stroke-miterlimit="10" width="499.5" height="499.5"/>
</g>
<g>
	<g>
		<g>
			<path fill="#202864" d="M380.6,461.4l-258,5.2c0,0-17.9-71.7,28.3-71.7c76,0,78.9-24.8,78.9-24.8h150.8V461.4z"/>
		</g>
	</g>
	<g>
		<path fill="#6C511E" d="M229.8,314.6l0.3-1.2C229.8,313.8,229.8,314.4,229.8,314.6L229.8,314.6c0-0.6,0.3-1.4,0.3-2v0.9
			c1.7-11.3,3.8-13.6-8.4-20.5l-4.6-2.6L183,393.5l26.6,6.4c10.4,3.2,21.1,4.6,31.8,4l139.3-5.2v-84.1H229.8z"/>
	</g>
	<g>
		<path fill="#FAD53E" d="M217.6,384.9c-2.7,0-4.9-2.2-4.9-4.9c0-2.7,2.2-4.9,4.9-4.9c2.7,0,4.9,2.2,4.9,4.9
			C222.5,382.6,220.3,384.9,217.6,384.9z M217.6,377.9c-1.1,0-2,0.9-2,2c0,1.1,0.9,2,2,2s2-0.9,2-2
			C219.7,378.8,218.8,377.9,217.6,377.9z"/>
	</g>
	<g>
		<path fill="#FAD53E" d="M282.9,384.9c-2.7,0-4.9-2.2-4.9-4.9c0-2.7,2.2-4.9,4.9-4.9c2.7,0,4.9,2.2,4.9,4.9
			C287.8,382.6,285.6,384.9,282.9,384.9z M282.9,377.9c-1.1,0-2,0.9-2,2c0,1.1,0.9,2,2,2c1.1,0,2-0.9,2-2
			C285,378.8,284.1,377.9,282.9,377.9z"/>
	</g>
	<g>
		<path fill="#FAD53E" d="M338.7,384.9c-2.7,0-4.9-2.2-4.9-4.9c0-2.7,2.2-4.9,4.9-4.9c2.7,0,4.9,2.2,4.9,4.9
			C343.6,382.6,341.4,384.9,338.7,384.9z M338.7,377.9c-1.1,0-2,0.9-2,2c0,1.1,0.9,2,2,2c1.1,0,2-0.9,2-2
			C340.7,378.8,339.8,377.9,338.7,377.9z"/>
	</g>
	<g>
		<path fill="#AB8980" d="M217.6,381.4c-0.2,0-0.4,0-0.6-0.1L190.5,370c-0.7-0.3-1.1-1.2-0.8-1.9c0.3-0.7,1.2-1.1,1.9-0.8l26.6,11.3
			c0.7,0.3,1.1,1.2,0.8,1.9C218.7,381.1,218.2,381.4,217.6,381.4z"/>
	</g>
	<g>
		<path fill="#FAD53E" d="M224.6,363.5c-2.7,0-4.9-2.2-4.9-4.9c0-2.7,2.2-4.9,4.9-4.9s4.9,2.2,4.9,4.9
			C229.5,361.3,227.3,363.5,224.6,363.5z M224.6,356.5c-1.1,0-2,0.9-2,2c0,1.1,0.9,2,2,2s2-0.9,2-2
			C226.6,357.4,225.7,356.5,224.6,356.5z"/>
	</g>
	<g>
		<path fill="#996E62" d="M224.6,360c-0.2,0-0.4,0-0.6-0.1l-26.6-11.3c-0.7-0.3-1.1-1.2-0.8-1.9c0.3-0.7,1.2-1.1,1.9-0.8l26.6,11.3
			c0.7,0.3,1.1,1.2,0.8,1.9C225.7,359.7,225.1,360,224.6,360z"/>
	</g>
	<g>
		<path fill="#FAD53E" d="M231.2,342.1c-2.7,0-4.9-2.2-4.9-4.9c0-2.7,2.2-4.9,4.9-4.9c2.7,0,4.9,2.2,4.9,4.9
			C236.1,339.9,233.9,342.1,231.2,342.1z M231.2,335.2c-1.1,0-2,0.9-2,2c0,1.1,0.9,2,2,2s2-0.9,2-2
			C233.2,336.1,232.3,335.2,231.2,335.2z"/>
	</g>
	<g>
		<path fill="#996E62" d="M231.2,338.6c-0.2,0-0.4,0-0.6-0.1l-26.6-11.3c-0.7-0.3-1.1-1.2-0.8-1.9s1.2-1.1,1.9-0.8l26.6,11.3
			c0.7,0.3,1.1,1.2,0.8,1.9C232.3,338.3,231.8,338.6,231.2,338.6z"/>
	</g>
	<g>
		<g>
			<path fill="#AB8980" d="M234.7,371.6c-0.2,0-0.5-0.1-0.7-0.2c-16.3-8.7-23.5-31.1-26-41.1c-5.2,10.7-18.7,25.1-19.4,25.8
				c-0.5,0.6-1.5,0.6-2,0.1c-0.6-0.5-0.6-1.5-0.1-2c0.2-0.2,18.5-19.7,20.4-29.3c0.1-0.7,0.7-1.2,1.4-1.2c0.7,0,1.3,0.5,1.4,1.2
				c0.1,0.3,5.9,33.5,25.5,44c0.7,0.4,1,1.2,0.6,2C235.7,371.3,235.2,371.6,234.7,371.6z"/>
		</g>
		<g>
			<g>
				<path fill="#BCAAA4" d="M227.4,333.2c-9.6,0-20-6.6-20.4-6.9c-0.4-0.3-0.7-0.7-0.7-1.2s0.3-1,0.7-1.2c0.4-0.3,10.9-6.9,20.7-6.9
					c8.9,0,12.7,2.4,12.7,8.1C240.4,330.7,236.4,333.2,227.4,333.2z M210.7,325.1c3.4,1.9,10.4,5.2,16.8,5.2
					c10.1,0,10.1-3.4,10.1-5.2c0-2.1,0-5.2-9.8-5.2C221.2,319.9,214.1,323.3,210.7,325.1z"/>
			</g>
			<g>
				<path fill="#BCAAA4" d="M194.8,333.4c-6.7,0-10-2.5-10.4-8c0-5.6,3.1-8.2,10.1-8.5l0.5,0c7.8,0,13.9,6.6,14.2,6.8
					c0.5,0.5,0.5,1.3,0,1.9C208.9,325.9,202.9,333.1,194.8,333.4C194.8,333.4,194.8,333.4,194.8,333.4z M195,319.8l-0.4,0
					c-6.7,0.3-7.3,2.8-7.3,5.5c0.2,2.6,1,5.2,7.5,5.2c5.1-0.2,9.5-3.9,11.3-5.7C204.2,323.1,199.9,319.8,195,319.8z"/>
			</g>
		</g>
	</g>
	<g>
		<path fill="#AB8980" d="M338.7,381.4h-55.8c-0.8,0-1.4-0.6-1.4-1.4s0.6-1.4,1.4-1.4h55.8c0.8,0,1.4,0.6,1.4,1.4
			S339.5,381.4,338.7,381.4z"/>
	</g>
	<g>
		<path fill="#BCAAA4" d="M324.8,445.8c-22.8,0-38.1,15.3-78.3,15.3H118.2v8.7v-0.3c0,5.8,4.3,10.1,9.5,10.1c5.2,0,9.5-4.6,9.5-10.1
			c0,5.8,4.3,10.1,9.5,10.1c5.2,0,9.5-4.6,9.5-10.1c0,5.8,4.3,10.1,9.5,10.1c5.2,0,9.5-4.6,9.5-10.1c0,5.8,4.3,10.1,9.5,10.1
			s9.5-4.6,9.5-10.1c0,5.8,4.3,10.1,9.5,10.1s9.5-4.6,9.5-10.1c0,5.8,4.3,10.1,9.5,10.1c5.2,0,9.5-4.6,9.5-10.1v0.3l54-4.6
			c0,0,23.1,14.4,28.3,14.4c5.2,0,9.5-4.6,9.5-10.1c0,5.8,4.3,10.1,9.5,10.1s9.5-4.6,9.5-10.1c0,5.8,4.3,10.1,9.5,10.1
			c5.2,0,9.5-4.6,9.5-10.1c0,5.8,4.3,10.1,9.5,10.1s9.5-4.6,9.5-10.1v0.3v-8.7v-15.3C382,445.8,347.1,445.8,324.8,445.8z"/>
	</g>
</g>
</svg>
