<?xml version="1.0" encoding="utf-8"?>
<!-- Generator: Adobe Illustrator 18.0.0, SVG Export Plug-In . SVG Version: 6.00 Build 0)  -->
<!DOCTYPE svg PUBLIC "-//W3C//DTD SVG 1.1//EN" "http://www.w3.org/Graphics/SVG/1.1/DTD/svg11.dtd">
<svg version="1.1" id="content" xmlns="http://www.w3.org/2000/svg" xmlns:xlink="http://www.w3.org/1999/xlink" x="0px" y="0px"
	 width="500px" height="500px" viewBox="0 0 500 500" enable-background="new 0 0 500 500" xml:space="preserve">
<rect id="position" display="none" fill="none" stroke="#000000" width="500" height="500"/>
<g id="bounds" display="none">
	<rect x="0.2" y="80.2" display="inline" fill="none" stroke="#EAEAEA" stroke-miterlimit="10" width="499.5" height="499.5"/>
</g>
<g>
	<path fill="#171717" d="M228,304.1h143.9v176.1H118.7c0,0-10-94.1,109.5-94.1C228,329,228,304.1,228,304.1z"/>
	<rect x="350.4" y="317.7" fill="#2B2B2B" width="21.5" height="162.5"/>
	<path fill="#2B2B2B" d="M303.5,385.8h2.1C305.8,385.8,305,385.8,303.5,385.8z"/>
	<path fill="#E0E0E0" d="M376.8,314.3c-0.5,0.3-1,0.5-1.6,0.5c1,9.2-14.7,11.8-17.6,3.1c-3.1,3.1-7.9,5.8-12.6,5.2
		c-3.4-0.3-5.5-2.9-8.1-4.7c0.5,0.5-4.2,3.1-4.5,3.1c-4.7,1.6-9.2-0.5-12.3-3.9c1.6,1.8-5.8,6-6.8,6.3c-3.4,1-7.6,0.8-10.7-0.8
		c-1.6-0.8-3.1-2.1-4.2-3.7c-2.1,2.6-4.7,4.5-8.1,4.7c-1.6,0-3.1,0-4.7-1c-0.5-0.3-3.1-3.1-2.6-3.7c-3.1,4.7-12.3,5-14.7-0.3
		c-1.8,6.8-14.4,6.3-17,0.5c0,2.6-4.2,3.4-6.3,3.4c-3.1,0-4.7-0.8-5.8-3.7c-1.3,3.9-10.7,4.5-11.3-0.3c-5.2,3.7-12.8-3.7-7.3-7.6
		c-2.6-0.5-5-1.6-6-4.5c-0.8-2.4,0.5-5.2,2.9-5.8c-4.7,0.8-6-10.7,1.3-10c-6.6-9.4,9.7-16.2,10.7-9.7c-1.3-8.9,17.8-8.1,16.2-0.5
		c1.8-3.9,3.9-6.3,8.6-6.6c2.9,0,9.2,1.8,8.9,5.8c0.8-3.9,3.1-5.8,7.6-5.8c5.5,0,8.9,1.8,9.2,7.3c1.8-3.4,4.5-5,8.1-5
		c2.1,0,4.7,0.3,6.6,1.6c1.8,1,2.1,3.1,3.7,4.2c2.9-3.9,5.8-6.8,11-6.8c4.5,0,6.6,2.9,9.4,5.8c1.6-3.9,4.7-6.6,9.2-6.8
		c3.7-0.3,6.6,1.8,8.1,4.7c2.4-2.4,5.2-4.2,8.9-3.9c3.7,0,5.5,2.4,6.8,5.2c2.6-7.3,17.8-7.6,18.6,1c3.4-2.1,7.3-2.4,10,1.3
		c2.4,3.4,0.3,7.1-3.1,8.4c3.4,3.7,5.5,7.9,0.5,11.8c2.1,0.3,3.1,3.7,2.9,5.8C380.5,311.7,378.9,313.2,376.8,314.3z"/>
</g>
</svg>
