<?xml version="1.0" encoding="utf-8"?>
<!-- Generator: Adobe Illustrator 18.0.0, SVG Export Plug-In . SVG Version: 6.00 Build 0)  -->
<!DOCTYPE svg PUBLIC "-//W3C//DTD SVG 1.1//EN" "http://www.w3.org/Graphics/SVG/1.1/DTD/svg11.dtd">
<svg version="1.1" id="content" xmlns="http://www.w3.org/2000/svg" xmlns:xlink="http://www.w3.org/1999/xlink" x="0px" y="0px"
	 width="500px" height="500px" viewBox="0 0 500 500" enable-background="new 0 0 500 500" xml:space="preserve">
<rect id="position" display="none" fill="none" stroke="#000000" width="500" height="500"/>
<g id="bounds" display="none">
	<rect x="0.2" y="80.2" display="inline" fill="none" stroke="#EAEAEA" stroke-miterlimit="10" width="499.5" height="499.5"/>
</g>
<g>
	<path fill="#3067D6" d="M163.3,478.9l166-36.5l0.2-22.4c0,0,35.2,0.9,50.7-12c4.4-8.6,1.5-14.4,0-17.3c-12.6,12.4-61.3,13-61.3,13
		l-30.5-22.8l-7.7,3.6c-8.4,3.8-15.9,8.9-22.8,15l-0.4,0.7L136,401.9c-2.4,0-4.4,2-4.6,4.4c-0.2,5.1-6,10-10,13.3
		c-3.3,2.6-3.3,7.5-0.2,10.2c7.7,6.4,22.4,19.2,29.4,41.8C152.6,476.9,158.1,480,163.3,478.9z M370.1,404.1
		c-0.2-1.6,0.7-3.3,2.2-3.5h0.5c1.3-0.2,2.7,0.7,2.9,2.4c0.2,1.6-0.7,3.3-2.2,3.5H373c-0.2,0-0.2,0-0.5,0
		C371.3,406.5,370.2,405.4,370.1,404.1z M353.8,408.8c-0.2-1.6,0.7-3.3,2.2-3.5h0.5c1.3-0.2,2.7,0.7,2.9,2.4
		c0.2,1.6-0.7,3.3-2.2,3.5h-0.5c-0.2,0-0.2,0-0.5,0C355.1,411.2,354,410.5,353.8,408.8z M336.3,411.2c-0.2-1.6,0.7-3.3,2.2-3.5h0.5
		c1.3-0.2,2.7,0.7,2.9,2.4c0.2,1.6-0.7,3.3-2.2,3.5h-0.5c-0.2,0-0.2,0-0.5,0C337.8,413.8,336.7,412.7,336.3,411.2z"/>
	<path fill="#1A53AD" d="M128.1,427.8c6,3.5,26.6,21,28.1,30.8c1.5,9.9,10.2,6.8,16.2,4.9l99.8-27.7l-15.5-20.1l-121.3,6.8l119-13.1
		l1.1-5.8l-114,1.3c-2.9,0-5.8-1.1-6.4,3.3c-0.4,3.5-6.2,9.7-7.5,11.1C126.7,420.7,122.1,424.2,128.1,427.8z"/>
</g>
</svg>
