<?xml version="1.0" encoding="utf-8"?>
<!-- Generator: Adobe Illustrator 14.0.0, SVG Export Plug-In . SVG Version: 6.00 Build 43363)  -->
<!DOCTYPE svg PUBLIC "-//W3C//DTD SVG 1.1//EN" "http://www.w3.org/Graphics/SVG/1.1/DTD/svg11.dtd">
<svg version="1.1" id="content" xmlns="http://www.w3.org/2000/svg" xmlns:xlink="http://www.w3.org/1999/xlink" x="0px" y="0px"
	 width="500px" height="500px" viewBox="0 0 500 500" enable-background="new 0 0 500 500" xml:space="preserve">
<g id="shoes">
	<path fill="#333330" d="M219.593,428.186c0,0,11.21,15.093,11.21,25.264c4.775,4.36,9.894,6.838,10.799,14.702
		c0.904,7.865-3.286,11.764-11.005,11.555c-13.146,0-13.424-10.719-12.937-15.032c0.904-8.63-9.678-9.814-11.693-8.909
		c-8.212,3.759-6.052,22.618-16.354,26.726c-10.301,4.105-16.008-2.924-16.008-3.133s-3.051,4.398-15.866,2.375
		c-6.167-1.349-5.201-4.721-5.201-4.721s-5.3,4.528-16.476,1.06c-5.589-2.601-4.528-7.322-4.528-7.322s-7.997,2.313-12.044-1.54
		c-3.083-3.275-0.964-13.971,15.318-22.063c16.284-8.094,24.568-15.126,24.568-15.126S183.442,416.455,219.593,428.186z"/>
	<path fill="#4B4C45" d="M229.755,399.768l14.816,32.063c0,0,6.314,14.09,0.729,24.776c-1.942-12.388-6.316-16.275-6.316-16.275
		s0,6.562-3.643,16.275c-6.969-23.622-19.675-5.102-19.675-5.102s-5.586-16.518-10.688-20.403
		c-6.073,2.915-10.688,12.631-10.688,12.631l1.943-13.358c-10.932,5.345-16.273,20.89-16.273,20.89s0.484-16.244,5.101-24.275
		c-14.088,9.944-21.618,13.587-21.618,13.587l6.315-10.931c-16.76,6.802-23.804,5.102-23.804,5.102s14.814-5.829,21.616-13.115
		c-6.315,0.971-11.416,3.156-11.416,3.156s14.33-18.703,25.748-25.019c2.43,1.458,6.802,2.186,6.802,2.186l10.809-2.186
		c5.466,3.158,15.911,0,15.911,0S225.363,403.654,229.755,399.768z"/>
	<path fill="#6D6D67" d="M242.521,414.899c-5.429-3.161-6.937-3.473-6.937-3.473s3.887,4.131,3.278,12.146
		c-6.438-8.988-10.081-11.902-10.081-11.902s-1.7,3.646-1.942,11.902c-4.857-8.016-4.857-11.902-4.857-11.902
		s-5.587,4.616-5.587,11.659c-2.671-7.53-1.941-13.358-1.941-13.358s-3.786,1.264-5.487,12.437
		c-4.23-10.494-2.978-14.138-2.978-14.138s-7.325,7.046-8.539,14.575c-1.701-10.933-1.215-16.52-1.215-16.52
		s-2.159,7.097-9.461,13.022c2.416-8.163,0-13.266,0-13.266s-7.543,4.372-10.215,13.116c-2.672-7.529-1.7-10.445-1.7-10.445
		s-4.111,3.948-9.018,4.711c3.426-3.659,7.404-7.539,11.319-10.532c2.751-1.849,5.012-25.495,5.012-25.495
		c2.429,1.458,6.532,24.517,6.532,24.517l11.938-23.808c1.941,1.121,3.381,23.067,5.887,23.021
		c4.552-0.086,10.024-23.021,10.024-23.021s2.552,23.062,6.423,23.313c2.49,0.161,6.188-21.791,7.907-23.313
		C230.884,378.146,236.339,405.848,242.521,414.899z"/>
	<path fill="#4C4C4A" d="M180.838,453.041c-4.13,10.642-2.134,29.935,2.254,30.716c-3.326-0.065-5.82-1.287-7.415-2.437v-0.001
		C175.677,481.319,167.777,476.657,180.838,453.041z"/>
	<path fill="#4C4C4A" d="M159.659,453.041c-9.886,8.791-4.063,27.964-4.036,28.048c-3.798-1.557-3.086-4.077-3.086-4.077
		s-0.49,0.411-1.467,0.892C150.811,467.389,152.031,458.961,159.659,453.041z"/>
	<path fill="#4C4C4A" d="M131.457,471.711c0,0,3.161-16.869,14.498-24.85c-11.811,8.854-17.44,24.446-17.44,24.446l2.786-0.497
		L131.457,471.711z"/>
	<path fill="#4C4C4A" d="M209.019,455.59c9.634-2.361,13.557,7.031,12.867,12.467c-0.987,8.207,7.675,11.578,7.797,11.626
		c-12.238-0.491-12.499-10.798-12.021-15.009C218.325,458.34,212.802,456.018,209.019,455.59z"/>
	<path fill="#4C4C4A" d="M193.792,462.009c0,0-6.965-3.6-14.926-4.134c0.993-1.733,0.688-2.144,0.688-2.144
		S187.897,456.804,193.792,462.009z"/>
	<path fill="#4C4C4A" d="M230.803,453.449c0,0-4.029-0.04-7.441,3.157c1.572-3.446,7.303-5.224,7.303-5.224L230.803,453.449z"/>
	<path fill="#4C4C4A" d="M154.487,458.869c0,0,7.714-1.51,13.29,2.922c-4.063-4.53-12.428-4.264-12.428-4.264l-0.862,1.759"/>
	<path fill="#4C4C4A" d="M157.865,454.594c0,0,6.231-0.761,9.315,2.013c-6.646-2.526-10.411-0.875-10.411-0.875L157.865,454.594z"/>
	<path fill="#4C4C4A" d="M136.05,458.869c0,0,6.562-1.494,13.124,2.455c-1.839-4.449-11.938-4.604-11.938-4.604L136.05,458.869z"/>
	<path fill="#4C4C4A" d="M126.361,452.481c0,0,4.725,0.715,6.536,4.96c-1.17-5.576-4.83-6.271-4.83-6.271L126.361,452.481z"/>
	<path fill="#6D6D67" d="M239.31,465.521c0,0-6.421-4.768-11.534-3.513c-1.666,8.627,1.189,11.005,4.639,12.432
		c1.426-1.782,1.426-1.782,1.426-1.782l1.547,1.782C235.386,474.439,241.212,473.607,239.31,465.521z"/>
	<path fill="#6D6D67" d="M190.53,468.398c0,0-7.895-4.87-13.599-2.375c-1.936,10.136-0.458,11.664,4.635,12.733
		c0.714-2.241,1.07-2.699,1.07-2.699l0.685,2.699C183.321,478.758,189.512,478.923,190.53,468.398z"/>
	<path fill="#6D6D67" d="M164.224,468.925l-9.736-2.475c0,0-3.484,8.771,2.282,10.794
		C162.537,479.267,164.224,468.925,164.224,468.925z"/>
	<path fill="#6D6D67" d="M143.873,465.313l-7.31-2.235c0,0-5.854,8.435,0.671,11.47c6.525,3.034,9.225-8.097,9.225-8.097
		L143.873,465.313z"/>
	<path fill="#6D6D67" d="M128.515,459.657l-4.43-2.216c0,0-5.734,5.975-1.799,8.897c3.935,2.922,8.433-5.622,8.433-5.622
		L128.515,459.657z"/>
	<path fill="#999993" d="M140.948,464.418L140.948,464.418c0,0-5.482,5.948-2.515,10.541c-0.384-0.086-0.783-0.22-1.198-0.412
		c-6.524-3.035-0.671-11.47-0.671-11.47L140.948,464.418z"/>
	<path fill="#999993" d="M124.085,457.441l3.161,1.581c-0.002,0.001-3.004,1.872-4.483,7.607c-0.159-0.081-0.318-0.175-0.477-0.291
		C118.351,463.416,124.085,457.441,124.085,457.441z"/>
	<path fill="#999993" d="M154.487,466.45l4.348,1.104l0,0c0,0-2.354,4.209-2.181,9.636
		C151.064,475.084,154.487,466.45,154.487,466.45z"/>
	<path fill="#999993" d="M183.462,465.628c-0.712,1.305-3.425,6.73-3.17,12.82c-4.046-1.107-5.122-3.198-3.36-12.425
		C178.982,465.127,181.313,465.188,183.462,465.628z"/>
	<path fill="#17DEFF" d="M127.744,434.639c0,0-3.975,2.349-4.322-0.58C123.073,431.131,127.744,434.639,127.744,434.639z"/>
	<path fill="#17DEFF" d="M129.161,433.222c0,0,2.349-3.975-0.58-4.322C125.652,428.552,129.161,433.222,129.161,433.222z"/>
	<circle fill="#4C4C4A" cx="128.982" cy="434.639" r="1.736"/>
	<path fill="#17DEFF" d="M139.781,417.446c0,0-4.597-0.428-3.16-3.004C138.056,411.865,139.781,417.446,139.781,417.446z"/>
	<path fill="#17DEFF" d="M141.761,417.13c0,0,4.232-1.841,2.064-3.841C141.656,411.289,141.761,417.13,141.761,417.13z"/>
	<circle fill="#4C4C4A" cx="140.785" cy="418.173" r="1.737"/>
	<path fill="#4B4C45" d="M234.729,462.975c0,0,3.559,3.533-0.891,9.683c1.547,1.782,1.547,1.782,1.547,1.782
		s6.104-0.894,3.924-8.919C237.13,463.329,234.729,462.975,234.729,462.975z"/>
</g>
<rect id="position" x="0" y="0" display="none" fill="none" stroke="#000000" width="500" height="500"/>
</svg>
