<?xml version="1.0" encoding="utf-8"?>
<!-- Generator: Adobe Illustrator 18.0.0, SVG Export Plug-In . SVG Version: 6.00 Build 0)  -->
<!DOCTYPE svg PUBLIC "-//W3C//DTD SVG 1.1//EN" "http://www.w3.org/Graphics/SVG/1.1/DTD/svg11.dtd">
<svg version="1.1" id="content" xmlns="http://www.w3.org/2000/svg" xmlns:xlink="http://www.w3.org/1999/xlink" x="0px" y="0px"
	 width="500px" height="500px" viewBox="0 0 500 500" enable-background="new 0 0 500 500" xml:space="preserve">
<rect id="position" display="none" fill="none" stroke="#000000" width="500" height="500"/>
<g id="bounds" display="none">
	<rect x="0.2" y="80.2" display="inline" fill="none" stroke="#EAEAEA" stroke-miterlimit="10" width="499.5" height="499.5"/>
</g>
<g id="shoes">
	<path fill="#333330" d="M324.4,367.2c0,0,22.8,30.6,22.8,51.3c9.7,8.8,20.1,13.9,21.9,29.8c1.8,16-6.7,23.9-22.3,23.5
		c-26.7,0-27.2-21.8-26.3-30.5c1.8-17.5-19.6-19.9-23.7-18.1c-16.7,7.6-12.3,45.9-33.2,54.2c-20.9,8.3-32.5-5.9-32.5-6.4
		s-6.2,8.9-32.2,4.8c-12.5-2.7-10.6-9.6-10.6-9.6s-10.8,9.2-33.4,2.2c-11.3-5.3-9.2-14.9-9.2-14.9s-16.2,4.7-24.4-3.1
		c-6.3-6.6-2-28.4,31.1-44.8c33.1-16.4,49.9-30.7,49.9-30.7S251,343.4,324.4,367.2z"/>
	<path fill="#4B4C45" d="M345,309.5l30.1,65.1c0,0,12.8,28.6,1.5,50.3c-3.9-25.1-12.8-33-12.8-33s0,13.3-7.4,33
		c-14.1-47.9-39.9-10.4-39.9-10.4s-11.3-33.5-21.7-41.4c-12.3,5.9-21.7,25.6-21.7,25.6l3.9-27.1c-22.2,10.8-33,42.4-33,42.4
		s1-33,10.4-49.3c-28.6,20.2-43.9,27.6-43.9,27.6l12.8-22.2c-34,13.8-48.3,10.4-48.3,10.4s30.1-11.8,43.9-26.6
		c-12.8,2-23.2,6.4-23.2,6.4s29.1-38,52.3-50.8c4.9,3,13.8,4.4,13.8,4.4l21.9-4.4c11.1,6.4,32.3,0,32.3,0S336.1,317.4,345,309.5z"/>
	<path fill="#6D6D67" d="M370.9,340.2c-11-6.4-14.1-7-14.1-7s7.9,8.4,6.7,24.7c-13.1-18.2-20.5-24.2-20.5-24.2s-3.5,7.4-3.9,24.2
		c-9.9-16.3-9.9-24.2-9.9-24.2s-11.3,9.4-11.3,23.7c-5.4-15.3-3.9-27.1-3.9-27.1s-7.7,2.6-11.1,25.2c-8.6-21.3-6-28.7-6-28.7
		s-14.9,14.3-17.3,29.6c-3.5-22.2-2.5-33.5-2.5-33.5s-4.4,14.4-19.2,26.4c4.9-16.6,0-26.9,0-26.9s-15.3,8.9-20.7,26.6
		c-5.4-15.3-3.5-21.2-3.5-21.2s-8.3,8-18.3,9.6c7-7.4,15-15.3,23-21.4c5.6-3.8,10.2-51.7,10.2-51.7c4.9,3,13.3,49.8,13.3,49.8
		l24.2-48.3c3.9,2.3,6.9,46.8,11.9,46.7c9.2-0.2,20.3-46.7,20.3-46.7s5.2,46.8,13,47.3c5.1,0.3,12.6-44.2,16-47.3
		C347.3,265.6,358.4,321.8,370.9,340.2z"/>
	<path fill="#4C4C4A" d="M245.7,417.6c-8.4,21.6-4.3,60.8,4.6,62.3c-6.8-0.1-11.8-2.6-15.1-4.9v0C235.2,475,219.2,465.5,245.7,417.6
		z"/>
	<path fill="#4C4C4A" d="M202.7,417.6c-20.1,17.8-8.2,56.8-8.2,56.9c-7.7-3.2-6.3-8.3-6.3-8.3s-1,0.8-3,1.8
		C184.8,446.7,187.2,429.6,202.7,417.6z"/>
	<path fill="#4C4C4A" d="M145.5,455.5c0,0,6.4-34.2,29.4-50.4c-24,18-35.4,49.6-35.4,49.6l5.7-1L145.5,455.5z"/>
	<path fill="#4C4C4A" d="M302.9,422.8c19.6-4.8,27.5,14.3,26.1,25.3c-2,16.7,15.6,23.5,15.8,23.6c-24.8-1-25.4-21.9-24.4-30.5
		C321.8,428.4,310.6,423.7,302.9,422.8z"/>
	<path fill="#4C4C4A" d="M272,435.8c0,0-14.1-7.3-30.3-8.4c2-3.5,1.4-4.4,1.4-4.4S260,425.3,272,435.8z"/>
	<path fill="#4C4C4A" d="M347.1,418.4c0,0-8.2-0.1-15.1,6.4c3.2-7,14.8-10.6,14.8-10.6L347.1,418.4z"/>
	<path fill="#4C4C4A" d="M192.2,429.4c0,0,15.7-3.1,27,5.9c-8.2-9.2-25.2-8.7-25.2-8.7l-1.7,3.6"/>
	<path fill="#4C4C4A" d="M199.1,420.8c0,0,12.6-1.5,18.9,4.1c-13.5-5.1-21.1-1.8-21.1-1.8L199.1,420.8z"/>
	<path fill="#4C4C4A" d="M154.8,429.4c0,0,13.3-3,26.6,5c-3.7-9-24.2-9.3-24.2-9.3L154.8,429.4z"/>
	<path fill="#4C4C4A" d="M135.1,416.5c0,0,9.6,1.5,13.3,10.1c-2.4-11.3-9.8-12.7-9.8-12.7L135.1,416.5z"/>
	<path fill="#6D6D67" d="M364.4,442.9c0,0-13-9.7-23.4-7.1c-3.4,17.5,2.4,22.3,9.4,25.2c2.9-3.6,2.9-3.6,2.9-3.6l3.1,3.6
		C356.4,461,368.3,459.4,364.4,442.9z"/>
	<path fill="#6D6D67" d="M265.4,448.8c0,0-16-9.9-27.6-4.8c-3.9,20.6-0.9,23.7,9.4,25.8c1.4-4.5,2.2-5.5,2.2-5.5l1.4,5.5
		C250.8,469.8,263.3,470.1,265.4,448.8z"/>
	<path fill="#6D6D67" d="M212,449.9l-19.8-5c0,0-7.1,17.8,4.6,21.9C208.6,470.8,212,449.9,212,449.9z"/>
	<path fill="#6D6D67" d="M170.7,442.5l-14.8-4.5c0,0-11.9,17.1,1.4,23.3c13.2,6.2,18.7-16.4,18.7-16.4L170.7,442.5z"/>
	<path fill="#6D6D67" d="M139.5,431l-9-4.5c0,0-11.6,12.1-3.7,18.1s17.1-11.4,17.1-11.4L139.5,431z"/>
	<path fill="#999993" d="M164.7,440.7L164.7,440.7c0,0-11.1,12.1-5.1,21.4c-0.8-0.2-1.6-0.4-2.4-0.8c-13.2-6.2-1.4-23.3-1.4-23.3
		L164.7,440.7z"/>
	<path fill="#999993" d="M130.5,426.5l6.4,3.2c0,0-6.1,3.8-9.1,15.4c-0.3-0.2-0.6-0.4-1-0.6C118.9,438.7,130.5,426.5,130.5,426.5z"
		/>
	<path fill="#999993" d="M192.2,444.8l8.8,2.2l0,0c0,0-4.8,8.5-4.4,19.6C185.3,462.4,192.2,444.8,192.2,444.8z"/>
	<path fill="#999993" d="M251,443.2c-1.4,2.6-7,13.7-6.4,26c-8.2-2.2-10.4-6.5-6.8-25.2C241.9,442.1,246.7,442.3,251,443.2z"/>
	<path fill="#17DEFF" d="M137.9,380.3c0,0-8.1,4.8-8.8-1.2C128.5,373.1,137.9,380.3,137.9,380.3z"/>
	<path fill="#17DEFF" d="M140.8,377.4c0,0,4.8-8.1-1.2-8.8C133.7,367.9,140.8,377.4,140.8,377.4z"/>
	<circle fill="#4C4C4A" cx="140.5" cy="380.3" r="3.5"/>
	<path fill="#17DEFF" d="M162.4,345.4c0,0-9.3-0.9-6.4-6.1C158.9,334,162.4,345.4,162.4,345.4z"/>
	<path fill="#17DEFF" d="M166.4,344.7c0,0,8.6-3.7,4.2-7.8C166.2,332.9,166.4,344.7,166.4,344.7z"/>
	<circle fill="#4C4C4A" cx="164.4" cy="346.8" r="3.5"/>
	<path fill="#4B4C45" d="M355.1,437.8c0,0,7.2,7.2-1.8,19.7c3.1,3.6,3.1,3.6,3.1,3.6s12.4-1.8,8-18.1
		C360,438.5,355.1,437.8,355.1,437.8z"/>
</g>
</svg>
