<?xml version="1.0" encoding="utf-8"?>
<!-- Generator: Adobe Illustrator 16.0.3, SVG Export Plug-In . SVG Version: 6.00 Build 0)  -->
<!DOCTYPE svg PUBLIC "-//W3C//DTD SVG 1.1//EN" "http://www.w3.org/Graphics/SVG/1.1/DTD/svg11.dtd" [
	<!ENTITY ns_extend "http://ns.adobe.com/Extensibility/1.0/">
	<!ENTITY ns_ai "http://ns.adobe.com/AdobeIllustrator/10.0/">
	<!ENTITY ns_graphs "http://ns.adobe.com/Graphs/1.0/">
	<!ENTITY ns_vars "http://ns.adobe.com/Variables/1.0/">
	<!ENTITY ns_imrep "http://ns.adobe.com/ImageReplacement/1.0/">
	<!ENTITY ns_sfw "http://ns.adobe.com/SaveForWeb/1.0/">
	<!ENTITY ns_custom "http://ns.adobe.com/GenericCustomNamespace/1.0/">
	<!ENTITY ns_adobe_xpath "http://ns.adobe.com/XPath/1.0/">
]>
<svg version="1.1" id="content" xmlns:x="&ns_extend;" xmlns:i="&ns_ai;" xmlns:graph="&ns_graphs;"
	 xmlns="http://www.w3.org/2000/svg" xmlns:xlink="http://www.w3.org/1999/xlink" x="0px" y="0px" width="500px" height="500px"
	 viewBox="0 0 500 500" enable-background="new 0 0 500 500" xml:space="preserve">
	<g i:extraneous="self">
		<g id="shoes">
			<path fill="#212121" d="M181.015,369.167h52.231V480.5h-15.252l0.281-19.894c0,0-0.848-1.556-3.672,2.26
				c-2.824,3.812-12.566,15.815-12.566,15.815s-1.271,1.836-5.51,1.836c-50.556,0-52.957,0-52.957,0s-3.528-14.969,4.237-14.826
				c7.769,0.141,31.088-7.77,33.207-26.832C181.015,428.815,181.015,369.167,181.015,369.167z"/>
			<path fill="#2C2C2C" d="M158.121,470.5c0,0,29.887-9.371,29.887-33.722c0-25.001,0-63.945,0-63.945H218.5v27.108
				C218.5,399.941,215.231,470.5,158.121,470.5z"/>
		</g>
		<rect id="position" display="none" fill="none" stroke="#000000" width="500" height="500"/>
		<path fill="#D6D8D8" d="M177.943,363.245c0.402-1.07,1.322-2.033,2.355-2.497c0.717,0.574,1.45,1.005,2.405,0.844
			c-0.039-0.207,0.082-0.512,0.042-0.715c1.569-0.633,2.729,0.749,4.232,0.46c0.628-1.419,2.261,0.136,3.139,0.427
			c1.446,0.479,2.324-0.776,3.807-0.788c0.559-0.006,1.097,0.275,1.727,0.285c0.7,0.011,1.198,0.009,1.908-0.28
			c1.616-0.658,2.842-1.205,4.641-1.111c-0.213,1.687,1.948,1.011,2.896,1.008c-0.055,0.152-0.034,0.439-0.09,0.589
			c1.364-0.034,2.667-1.047,4.131-0.891c1.188,0.128,1.607,1.175,3.379,1.013c-0.312-0.552-0.76-1.428-1.228-1.937
			c1.883,0.301,4.176,2.034,6.15,1.597c0.396-0.088,0.629-0.5,1.132-0.639c0.607-0.166,1.044-0.156,1.641,0.083
			c1.089,0.435,1.384,0.716,2.762,0.51c2.243-0.336,4.174,0.04,6.317,0.411c1.917,0.331,4.038-0.103,6.009,0.122
			c1.77,0.201,0.699,0.585,1.635,1.509c0.385,0.38,1.163,0.104,1.607,0.41c0.563,0.388,0.445,0.564,0.752,1.135
			c0.743,1.377-0.069,2.331-0.533,3.623c-0.351,0.972-0.098,0.859,0.037,1.559c0.092,0.477,0.853,0.4,0.263,1.073
			c0.452,0.537,0.041,0.995-0.478,1.227c0.249,0.055,0.488,0.323,0.698,0.401c-0.312,0.519-1.508,1.106-1.692,1.547
			c-0.412,0.992,0.759,1.092,1.097,1.966c-0.145-0.056-0.449-0.048-0.597-0.091c-0.328,0.661-1.184,1.344-1.909,1.49
			c-0.867,0.173-1.751-0.084-2.611,0.095c-0.995,0.207-2.188,0.397-3.198,0.726c-1.078,0.352-1.88,0.922-3.078,0.958
			c0.086-0.172,0.185-0.384,0.312-0.535c-1.861,0.728-3.628,0.069-5.39,0.818c-0.448-1.193-2.588-0.464-3.651-0.575
			c-1.483-0.156-2.562,0.409-4.019,0.625c-1.396,0.206-2.518,0.125-3.805-0.349c-0.827-0.306-3.17-1.028-3.257,0.453
			c-0.968-0.007-1.934-0.343-2.874-0.642c-0.608-0.193-0.573-0.335-1.136-0.35c-0.438-0.013-1.034,0.418-1.506,0.387
			c-1.031-0.068-1.628-0.377-2.767-0.264c-1.088,0.107-2.274,0.436-3.403,0.258c-0.993-0.157-1.58-0.38-2.635-0.378
			c-1.07,0.002-2.103-0.095-3.145-0.251c-2.202-0.331-4.094,0.236-6.285,0.656c-1.857,0.354-2.276-0.092-3.78-0.877
			c-1.041-0.543-2.57-0.318-3.427-1.003c-0.472-0.377-0.493-1.009-0.968-1.387c-0.56-0.444-1.402-0.309-1.774-0.908
			c-0.71-1.146,0.425-5.764,1-6.615c-1.302-1.011,0.548-2.086,1.148-2.659c0.67-0.642,1.087-1.665,1.886-2.146"/>
	</g>
</svg>
