<?xml version="1.0" encoding="utf-8"?>
<!-- Generator: Adobe Illustrator 16.2.0, SVG Export Plug-In . SVG Version: 6.00 Build 0)  -->
<!DOCTYPE svg PUBLIC "-//W3C//DTD SVG 1.1//EN" "http://www.w3.org/Graphics/SVG/1.1/DTD/svg11.dtd">
<svg version="1.1" id="content" xmlns="http://www.w3.org/2000/svg" xmlns:xlink="http://www.w3.org/1999/xlink" x="0px" y="0px"
	 width="500px" height="500px" viewBox="0 0 500 500" enable-background="new 0 0 500 500" xml:space="preserve">
<radialGradient id="SVGID_1_" cx="-2364.8955" cy="-199.3047" r="83.5535" gradientTransform="matrix(0.8833 0.4687 -0.7191 1.3553 690.6509 1204.2561)" gradientUnits="userSpaceOnUse">
	<stop  offset="0.5852" style="stop-color:#DBD1CC"/>
	<stop  offset="1" style="stop-color:#ACA3A0"/>
</radialGradient>
<path fill="url(#SVGID_1_)" d="M-1177.904-208.81c-12.891-13.154-17.589-14.771-24.089-14.271c2.5,23.5-2.5,54.77-6,70.77
	s-45.136,53.283-62.224,58.896c-7.93,2.604,46.973,14.324,76.224-6.896C-1156.449-127.548-1164.77-195.408-1177.904-208.81z"/>
<path fill="#A9A6A4" d="M-1068.993-32.811c-7.75,0-16.501,0-20.25,0c-11.5-0.002-18.116-4.938-19.5-12.252
	c-0.858-4.535-1.75-13.25-1.75-13.25l-11.5,0.75c0,0,1.72,8.949,2.414,13.744c1.086,7.506-8.414,11.008-22.164,11.008
	c-22.85,0-64.825,0-68.788,0c-8.962,0-18.462-1.648-20.471-8.664c-1.033-3.609-1.469-4.725-2.325-8.67
	c-0.909-4.195,3.5-4.617,3.5-4.617s2-4.232-8-4.232s-8.167,4.232-8.167,4.232s3.906-0.076,5,4.117c0.671,2.57,1.069,5.012,1.7,8.049
	c1.175,5.658-4.45,9.773-14.456,9.773c-4.502,0-28.745,2.26-31.549-8.824c-2.3-9.088,2.848-14.979,3.055-15.166
	c0,0-1.584-0.109-5.218-1.623c-5.282,2.873-9.637,8.998-7.56,19.127c3.409,16.621,25.102,16.498,51.861,16.498h185.417
	C-1057.743-22.811-1061.243-32.811-1068.993-32.811z"/>
<radialGradient id="SVGID_2_" cx="-2467.3188" cy="-336.8906" r="126.2225" gradientTransform="matrix(0.0667 0.9978 -1.8564 0.1242 -1639.2917 2318.8772)" gradientUnits="userSpaceOnUse">
	<stop  offset="0.7981" style="stop-color:#DBD1CC"/>
	<stop  offset="1" style="stop-color:#ACA3A0"/>
</radialGradient>
<path fill="url(#SVGID_2_)" d="M-1285.611-60.91c0,0,54.11-0.365,82.11-0.365s50.33-15.012,73.008-15.537
	c22.678-0.523,33.998-0.332,41.998-0.332s12.669-13,12.669-28c0-17.667-6.654-31.821-8-42c-2.546-19.267-4-60.001-4-60.001
	s-64.333-13.666-78-17.666s-22.152-1.027-22.779,10.013s-3.221,56.654-3.221,56.654c0,8.7-6.17,20.93-13,26.666
	c-8.333,7-52.156,33.713-65.391,38.063c-12.983,4.266-23.609,6.605-23.609,20.271C-1293.865-61.145-1285.611-60.91-1285.611-60.91z"
	/>
<path fill="#231F20" d="M-1127.16-77.627c-23.929,0-40.435,8.346-53.697,12.332c-4.6,1.383-8.64,2.586-12.326,3.385l-16.272,1
	c0,0-58.92,0-65.372,0s-17.284-4.385-17.284-4.385l-1.453,5.631c0,0,8.404,4.902,18.071,4.902c19.989,0,58.045,0,74.333,0
	c21.775,0,39.348-11.225,53.507-11.471c14.159-0.246,13.159,13.271,13.159,13.271h46.648l5.333-24.666L-1127.16-77.627
	L-1127.16-77.627z"/>
<g>
	<polygon fill="#A9A6A4" points="-1294.424,-42.596 -1299.772,-43.799 -1295.324,-47.004 	"/>
	<polygon fill="#A9A6A4" points="-1293.847,-39.371 -1299.208,-40.039 -1295.152,-43.609 	"/>
	<polygon fill="#A9A6A4" points="-1292.652,-35.83 -1298.027,-35.965 -1294.363,-39.9 	"/>
	<polygon fill="#A9A6A4" points="-1290.708,-32.789 -1296.096,-32.389 -1292.824,-36.689 	"/>
	<polygon fill="#A9A6A4" points="-1287.881,-30.73 -1293.282,-29.793 -1290.402,-34.459 	"/>
</g>
<g>
	<circle fill="#7C777F" stroke="#000000" stroke-width="0.5" stroke-miterlimit="10" cx="-1252.384" cy="-94.162" r="3.589"/>
	<circle fill="#7C777F" stroke="#000000" stroke-width="0.5" stroke-miterlimit="10" cx="-1237.402" cy="-101.328" r="3.589"/>
	<circle fill="#7C777F" stroke="#000000" stroke-width="0.5" stroke-miterlimit="10" cx="-1223.322" cy="-108.541" r="3.589"/>
	<circle fill="#7C777F" stroke="#000000" stroke-width="0.5" stroke-miterlimit="10" cx="-1210.503" cy="-116.302" r="3.589"/>
	<circle fill="#7C777F" stroke="#000000" stroke-width="0.5" stroke-miterlimit="10" cx="-1199.308" cy="-125.099" r="3.589"/>
	<circle fill="#7C777F" stroke="#000000" stroke-width="0.5" stroke-miterlimit="10" cx="-1189.52" cy="-136.778" r="3.589"/>
	<circle fill="#7C777F" stroke="#000000" stroke-width="0.5" stroke-miterlimit="10" cx="-1183.952" cy="-149.791" r="3.589"/>
	<circle fill="#7C777F" stroke="#000000" stroke-width="0.5" stroke-miterlimit="10" cx="-1181.661" cy="-164.509" r="3.589"/>
	<circle fill="#7C777F" stroke="#000000" stroke-width="0.5" stroke-miterlimit="10" cx="-1181.493" cy="-181.492" r="3.589"/>
</g>
<path fill="#919191" d="M-1184.153-199.811v7.333c0,0,8.667,2.001,9-3.666S-1184.153-199.811-1184.153-199.811z"/>
<path fill="#919191" d="M-1184.153-212.477v7.333c0,0,8.667,2.001,9-3.666S-1184.153-212.477-1184.153-212.477z"/>
<g>
	<path fill="#A8A7A7" d="M174.648,370.408c-8.555-8.729-11.672-9.802-15.985-9.473c1.659,15.598-1.658,36.347-3.981,46.965
		c-2.323,10.615-29.951,35.354-41.291,39.082c-5.263,1.728,31.17,9.505,50.581-4.576
		C188.886,424.333,183.364,379.302,174.648,370.408z"/>
	<path fill="#A9A6A4" d="M246.921,487.199c-5.143,0-10.95,0-13.438,0c-7.632-0.001-12.021-3.277-12.939-8.13
		c-0.569-3.011-1.161-8.793-1.161-8.793l-7.631,0.499c0,0,1.141,5.938,1.602,9.117c0.721,4.98-5.584,7.307-14.708,7.307
		c-15.163,0-43.018,0-45.646,0c-5.947,0-12.252-1.094-13.585-5.749c-0.686-2.396-0.976-3.136-1.542-5.753
		c-0.604-2.784,2.321-3.063,2.321-3.063s1.328-2.81-5.308-2.81c-6.637,0-5.42,2.81-5.42,2.81s2.592-0.052,3.318,2.732
		c0.444,1.704,0.71,3.324,1.128,5.34c0.779,3.755-2.953,6.485-9.593,6.485c-2.987,0-19.074,1.5-20.936-5.855
		c-1.526-6.03,1.89-9.938,2.027-10.063c0,0-1.051-0.07-3.463-1.075c-3.505,1.904-6.396,5.97-5.017,12.689
		c2.263,11.03,16.657,10.949,34.415,10.949h123.041C254.387,493.836,252.063,487.199,246.921,487.199z"/>
	<path fill="#D3D3D3" d="M103.175,468.554c0,0,35.907-0.243,54.487-0.243c18.581,0,33.399-9.962,48.448-10.311
		c15.048-0.347,22.56-0.22,27.868-0.22s8.407-8.628,8.407-18.581c0-11.726-4.415-21.115-5.309-27.871
		c-1.689-12.785-2.653-39.815-2.653-39.815s-42.691-9.067-51.761-11.723c-9.069-2.655-14.699-0.683-15.116,6.643
		c-0.416,7.328-2.137,37.597-2.137,37.597c0,5.772-4.095,13.89-8.627,17.694c-5.53,4.646-34.61,22.373-43.393,25.261
		c-8.616,2.831-15.667,4.383-15.667,13.449C97.698,468.397,103.175,468.554,103.175,468.554z"/>
	<path fill="#231F20" d="M208.321,457.46c-15.879,0-26.831,5.538-35.632,8.183c-3.053,0.921-5.734,1.719-8.181,2.246l-10.797,0.665
		c0,0-39.1,0-43.381,0c-4.28,0-11.47-2.911-11.47-2.911l-0.964,3.736c0,0,5.577,3.255,11.992,3.255c13.265,0,38.518,0,49.326,0
		c14.45,0,26.111-7.449,35.507-7.61c9.396-0.164,8.732,8.807,8.732,8.807h30.956l3.538-16.368L208.321,457.46L208.321,457.46z"/>
	<g>
		<polygon fill="#A9A6A4" points="97.327,480.706 93.777,479.907 96.729,477.78 		"/>
		<polygon fill="#A9A6A4" points="97.71,482.846 94.152,482.402 96.844,480.033 		"/>
		<polygon fill="#A9A6A4" points="98.503,485.195 94.936,485.106 97.367,482.495 		"/>
		<polygon fill="#A9A6A4" points="99.793,487.213 96.218,487.479 98.389,484.626 		"/>
		<polygon fill="#A9A6A4" points="101.669,488.58 98.084,489.202 99.996,486.105 		"/>
	</g>
	<g>
		<circle fill="#7C777F" stroke="#000000" stroke-width="0.3318" stroke-miterlimit="10" cx="125.225" cy="446.487" r="2.382"/>
		<circle fill="#7C777F" stroke="#000000" stroke-width="0.3318" stroke-miterlimit="10" cx="135.166" cy="441.732" r="2.382"/>
		<circle fill="#7C777F" stroke="#000000" stroke-width="0.3318" stroke-miterlimit="10" cx="144.509" cy="436.944" r="2.381"/>
		<circle fill="#7C777F" stroke="#000000" stroke-width="0.3318" stroke-miterlimit="10" cx="153.015" cy="431.797" r="2.381"/>
		<circle fill="#7C777F" stroke="#000000" stroke-width="0.3318" stroke-miterlimit="10" cx="160.445" cy="425.957" r="2.382"/>
		<circle fill="#7C777F" stroke="#000000" stroke-width="0.3318" stroke-miterlimit="10" cx="166.941" cy="418.208" r="2.381"/>
		<circle fill="#7C777F" stroke="#000000" stroke-width="0.3318" stroke-miterlimit="10" cx="170.635" cy="409.572" r="2.382"/>
		<circle fill="#7C777F" stroke="#000000" stroke-width="0.3318" stroke-miterlimit="10" cx="172.155" cy="399.806" r="2.381"/>
		<circle fill="#7C777F" stroke="#000000" stroke-width="0.3318" stroke-miterlimit="10" cx="172.267" cy="388.537" r="2.382"/>
	</g>
	<path fill="#919191" d="M170.502,376.379v4.866c0,0,5.751,1.328,5.973-2.431C176.695,375.052,170.502,376.379,170.502,376.379z"/>
	<path fill="#919191" d="M170.502,367.975v4.867c0,0,5.751,1.326,5.973-2.434C176.695,366.647,170.502,367.975,170.502,367.975z"/>
</g>
</svg>
