<?xml version="1.0" encoding="utf-8"?>
<!-- Generator: Adobe Illustrator 16.0.0, SVG Export Plug-In . SVG Version: 6.00 Build 0)  -->
<!DOCTYPE svg PUBLIC "-//W3C//DTD SVG 1.1//EN" "http://www.w3.org/Graphics/SVG/1.1/DTD/svg11.dtd">
<svg version="1.1" id="content" xmlns="http://www.w3.org/2000/svg" xmlns:xlink="http://www.w3.org/1999/xlink" x="0px" y="0px"
	 width="500px" height="500px" viewBox="0 0 500 500" enable-background="new 0 0 500 500" xml:space="preserve">
<g id="bounds">
	<rect x="0.2" y="80.2" fill="none" stroke="#EAEAEA" stroke-miterlimit="10" width="499.5" height="499.5"/>
</g>
<g>
	<g>
		<path fill="#D9D9D9" d="M226.648,304.211v47.588c0,15.329-12.376,27.972-27.973,27.972h-35.769
			c-32.276,0-58.633,26.089-58.633,58.633v14.521h136.898h63.204h77.729V304.48c0-5.381-4.572-9.952-9.948-9.952H236.595
			C230.948,294.258,226.648,298.834,226.648,304.211z"/>
	</g>
	<g>
		<path fill="#72BB53" d="M104.547,474.444h119.686l30.118-3.77c6.458-0.807,12.641,0.271,18.562,2.962l1.342,0.535h108.121v-21.517
			H104.547V474.444z"/>
	</g>
</g>
<g>
	<path fill="#C0C0C0" d="M243.191,452.655c0-40.204-49.947-72.885-49.947-72.885l27.784-13.622c0,0,53.088,35.453,53.088,86.507
		H243.191z"/>
</g>
<g>
	<path fill="#C4C4C4" d="M346.011,435.222h-37.155c-8.157,0-14.796-6.639-14.796-14.799v-46.464c0-8.158,6.639-14.797,14.796-14.797
		h37.155c8.158,0,14.797,6.639,14.797,14.797v46.464C360.808,428.583,354.169,435.222,346.011,435.222z M308.855,365.08
		c-4.895,0-8.878,3.984-8.878,8.879v46.464c0,4.897,3.983,8.879,8.878,8.879h37.155c4.895,0,8.879-3.981,8.879-8.879v-46.464
		c0-4.895-3.984-8.879-8.879-8.879H308.855z"/>
</g>
<g>
	<rect x="226.648" y="323.448" fill="#C4C4C4" width="155.727" height="5.918"/>
</g>
</svg>
