<?xml version="1.0" encoding="utf-8"?>
<!-- Generator: Adobe Illustrator 16.0.0, SVG Export Plug-In . SVG Version: 6.00 Build 0)  -->
<!DOCTYPE svg PUBLIC "-//W3C//DTD SVG 1.1//EN" "http://www.w3.org/Graphics/SVG/1.1/DTD/svg11.dtd">
<svg version="1.1" id="content" xmlns="http://www.w3.org/2000/svg" xmlns:xlink="http://www.w3.org/1999/xlink" x="0px" y="0px"
	 width="500px" height="500px" viewBox="0 0 500 500" enable-background="new 0 0 500 500" xml:space="preserve">
<rect id="position" display="none" fill="none" stroke="#000000" width="500" height="500"/>
<g id="bounds" display="none">
	<rect x="0.2" y="80.2" display="inline" fill="none" stroke="#EAEAEA" stroke-miterlimit="10" width="499.5" height="499.5"/>
</g>
<g>
	<path fill="#D4D0D0" d="M381.566,446.449c0,0,7.991,12.668-3.548,20.43c-11.543,7.758-49.495,10.309-70.104,5.471
		c-20.611-4.836-38.02-2.938-49.99,0.779c-11.971,3.713-35.183,12.286-64.439,10.677c-29.257-1.602-51.155-5.215-64.47-14.6
		c-6.473-4.296-7.482-7.324-5.88-10.198c56.346,2.493,218.656-18.089,218.656-18.089L381.566,446.449z"/>
	<path fill="#2B2627" d="M285.666,335.007c37.025,13.365,70.721,23.038,82.447,25.533c10.231,27.551,19.387,47.253,10.53,82.354
		c2.923,3.555,2.923,3.555,2.923,3.555s-11.097,14.879-54.125,11.529c-38.467-3.01-45.226-6.095-45.226-6.095l-21.741,3.094
		c-17.463,11.802-37.42,19.289-66.627,19.503c-47.651,0.927-70.712-15.474-70.712-15.474c1.251-18.157,5.408-24.296,25.732-27.259
		c20.326-2.96,23.768-8.803,23.768-8.803l65.152-20.967l21.22-26.47l11.106-36.715C273.035,328.669,285.666,335.007,285.666,335.007
		z"/>
	<path fill="#453C3D" d="M376.832,384.232l-9.828-0.822c-10.438-0.294-17.785,6.867-40.135,31.132
		c-10.81,9.013-15.853,6.572-32.25-5.051c-16.396-11.628-35.611-33.98-35.611-33.98s-15.04,14.017-43.052,28.877
		c-28.012,14.866-43.32,18.56-43.32,18.56s-2.267,4.55,6.782,12.135c9.046,7.59,35.652,24.043,35.652,24.043
		s73.764-3.822,111.916-18.048c20.631-18.127,37.483-39.261,37.483-39.261c5.771-6.405,16.59-1.022,16.59-1.022
		C379.779,389.52,376.832,384.232,376.832,384.232z M251.346,407.036c0,0,11.064-5.775,15.859-8.365
		c4.791-2.679,7.053-2.907,5.268,2.095c0,0-1.254,4.479-2.838,8.896c-1.582,4.418-2.721,6.938-7.209,5.526
		c0,0-1.242-0.329-13.057-4.197C247.51,410.384,247.275,409.195,251.346,407.036z M212.429,423.843
		c7.985-2.403,6.318,3.244,6.299,6.666s0.312,6.005-3.145,5.419l-21.541-3.146C186.165,430.61,204.444,426.233,212.429,423.843z
		 M234.177,450.015c-5.109,0.331-19.214,1.261-19.214,1.261c-5.994,0.477-8.261-1.734-10.33-4.775
		c-2.072-3.043-1.244-4.314,0.793-4.038c24.642,3.265,30.171,4.366,30.171,4.366C238.827,447.674,239.284,449.68,234.177,450.015z
		 M281.35,434.3c-11.301,2.774-30.586,5.423-41.673,5.257c-11.084-0.169-13.102-2.396-13.03-7.529l1.021-10.491
		c0.819-2.413,4.33-5.983,14.062-4.08c0,0,29.81,9.996,36.245,12.18C284.408,431.816,284.307,433.452,281.35,434.3z M296.92,426.824
		c0,0-9.293-2.936-14.9-4.644c-5.608-1.711-6.992-4.182-5.647-7.909l2.846-6.867c1.183-2.845,1.648-1.874,5.812,2.001
		c0,0,14.399,11.881,18.562,15.818C307.762,429.166,303.799,429.242,296.92,426.824z"/>
	<path fill="#423D3D" d="M301.451,340.559l0.023,37.424c0.846,21.446,3.305,24.653,11.854,26.527
		c8.557,1.883,21.586-13.82,38.506-31.425c6.514-8.733,3.068-16.563,3.068-16.563S333.162,341.064,301.451,340.559z"/>
	<path fill="#D4D0D0" d="M381.66,405.731c0,0-10.295-5.512-18.59,11.967c-8.304,17.48-11.064,24.989-11.064,24.989l26.639,0.207
		C378.645,442.896,386.631,431.788,381.66,405.731z"/>
	<path opacity="0.5" fill="#2B2627" d="M314.76,392.754c-0.483-1.545-1.205-5.42-1.59-15.016l-0.014-24.485
		c14.098,2.13,25.014,7.16,30.686,10.25c-0.199,0.619-0.524,1.329-1.039,2.097c-2.319,2.414-4.563,4.801-6.737,7.1
		C328.852,380.34,319.119,390.652,314.76,392.754z"/>
	<g>
		<path fill="#D64351" d="M178.628,432.888c-0.533,0-1.074-0.146-1.558-0.452c-7.002-4.42-7.711-9.553-7.769-10.123
			c-0.162-1.606,1.008-3.044,2.616-3.204c1.571-0.186,2.997,0.974,3.196,2.543c0.039,0.227,0.626,3.028,5.079,5.838
			c1.365,0.861,1.773,2.668,0.912,4.035C180.548,432.405,179.599,432.888,178.628,432.888z"/>
	</g>
	<g>
		<path fill="#D64351" d="M192.033,427.637c-0.534,0-1.074-0.146-1.561-0.453c-6.998-4.424-7.707-9.556-7.764-10.125
			c-0.163-1.606,1.008-3.043,2.616-3.205c1.57-0.188,2.996,0.975,3.196,2.544c0.039,0.227,0.625,3.026,5.078,5.844
			c1.365,0.861,1.771,2.669,0.909,4.035C193.952,427.155,193.003,427.637,192.033,427.637z"/>
	</g>
	<g>
		<path fill="#D64351" d="M205.014,420.586c-0.533,0-1.074-0.146-1.561-0.453c-7.001-4.428-7.706-9.559-7.763-10.129
			c-0.161-1.607,1.012-3.042,2.618-3.202c1.569-0.185,2.998,0.977,3.195,2.545c0.04,0.229,0.624,3.025,5.077,5.843
			c1.365,0.862,1.771,2.67,0.907,4.034C206.933,420.104,205.985,420.586,205.014,420.586z"/>
	</g>
	<g>
		<path fill="#D64351" d="M217.5,413.989c-0.534,0-1.074-0.146-1.561-0.452c-7-4.423-7.707-9.554-7.766-10.124
			c-0.161-1.608,1.01-3.042,2.618-3.203c1.591-0.193,2.997,0.973,3.194,2.542c0.042,0.23,0.627,3.027,5.078,5.838
			c1.365,0.865,1.773,2.67,0.91,4.035C219.418,413.507,218.469,413.989,217.5,413.989z"/>
	</g>
	<g>
		<path fill="#D64351" d="M229.886,407.21c-0.535,0-1.076-0.146-1.562-0.453c-6.992-4.432-7.706-9.56-7.764-10.131
			c-0.163-1.608,1.006-3.043,2.612-3.207c1.573-0.153,2.999,0.97,3.199,2.54c0.041,0.229,0.631,3.035,5.083,5.854
			c1.364,0.865,1.771,2.674,0.905,4.038C231.803,406.729,230.856,407.21,229.886,407.21z"/>
	</g>
	<g>
		<path fill="#D64351" d="M241.695,399.63c-0.533,0-1.074-0.146-1.562-0.453c-7-4.428-7.703-9.554-7.762-10.122
			c-0.161-1.609,1.011-3.043,2.619-3.203c1.562-0.179,2.996,0.974,3.192,2.545c0.042,0.227,0.627,3.022,5.077,5.838
			c1.367,0.863,1.773,2.671,0.91,4.035C243.614,399.148,242.664,399.63,241.695,399.63z"/>
	</g>
	<g>
		<path fill="#D64351" d="M252.527,391.889c-0.533,0-1.076-0.146-1.562-0.453c-6.997-4.422-7.707-9.552-7.764-10.123
			c-0.163-1.604,1.006-3.041,2.613-3.203c1.592-0.151,3.001,0.971,3.197,2.539c0.042,0.23,0.631,3.029,5.079,5.844
			c1.367,0.861,1.772,2.67,0.91,4.035C254.445,391.404,253.498,391.889,252.527,391.889z"/>
	</g>
</g>
</svg>
