<?xml version="1.0" encoding="utf-8"?>
<!-- Generator: Adobe Illustrator 16.0.0, SVG Export Plug-In . SVG Version: 6.00 Build 0)  -->
<!DOCTYPE svg PUBLIC "-//W3C//DTD SVG 1.1//EN" "http://www.w3.org/Graphics/SVG/1.1/DTD/svg11.dtd">
<svg version="1.1" id="content" xmlns="http://www.w3.org/2000/svg" xmlns:xlink="http://www.w3.org/1999/xlink" x="0px" y="0px"
	 width="500px" height="500px" viewBox="0 0 500 500" enable-background="new 0 0 500 500" xml:space="preserve">
<rect id="position" display="none" fill="none" stroke="#000000" width="500" height="500"/>
<g>
	<path fill="#D4D0D0" d="M238.901,472.648c0,0,4.1,6.495-1.818,10.477c-5.92,3.979-25.383,5.286-35.953,2.806
		c-10.57-2.479-19.498-1.507-25.636,0.399c-6.139,1.904-18.042,6.301-33.045,5.476c-15.004-0.82-26.233-2.675-33.062-7.486
		c-3.319-2.203-3.837-3.757-3.016-5.229c28.896,1.278,112.132-9.275,112.132-9.275L238.901,472.648z"/>
	<path fill="#2B2627" d="M189.72,415.498c18.988,6.854,36.268,11.813,42.282,13.094c5.247,14.129,9.94,24.232,5.399,42.234
		c1.499,1.822,1.499,1.822,1.499,1.822s-5.69,7.63-27.756,5.912c-19.728-1.544-23.192-3.126-23.192-3.126l-11.15,1.587
		c-8.954,6.053-19.189,9.893-34.168,10.002c-24.437,0.476-36.263-7.936-36.263-7.936c0.642-9.312,2.773-12.46,13.196-13.979
		c10.424-1.519,12.188-4.515,12.188-4.515l33.411-10.752l10.883-13.574l5.696-18.827C183.244,412.248,189.72,415.498,189.72,415.498
		z"/>
	<path fill="#453C3D" d="M236.473,440.742l-5.039-0.422c-5.354-0.15-9.122,3.521-20.582,15.965c-5.543,4.622-8.13,3.371-16.539-2.59
		c-8.408-5.963-18.263-17.427-18.263-17.427s-7.712,7.188-22.078,14.81c-14.365,7.624-22.216,9.518-22.216,9.518
		s-1.162,2.333,3.479,6.224c4.639,3.893,18.283,12.33,18.283,12.33s37.828-1.96,57.392-9.257
		c10.581-9.296,19.224-20.134,19.224-20.134c2.958-3.284,8.507-0.523,8.507-0.523C237.984,443.453,236.473,440.742,236.473,440.742z
		 M172.121,452.438c0,0,5.674-2.963,8.133-4.29c2.458-1.374,3.617-1.491,2.701,1.073c0,0-0.642,2.297-1.454,4.562
		c-0.811,2.266-1.395,3.559-3.697,2.834c0,0-0.637-0.169-6.696-2.152C170.154,454.153,170.033,453.544,172.121,452.438z
		 M152.164,461.056c4.096-1.232,3.24,1.663,3.23,3.418c-0.01,1.755,0.16,3.079-1.612,2.779l-11.047-1.614
		C138.695,464.525,148.069,462.281,152.164,461.056z M163.317,474.477c-2.62,0.171-9.854,0.646-9.854,0.646
		c-3.074,0.244-4.236-0.89-5.298-2.449c-1.062-1.561-0.638-2.213,0.407-2.071c12.637,1.676,15.472,2.239,15.472,2.239
		C165.701,473.276,165.935,474.305,163.317,474.477z M187.507,466.418c-5.794,1.423-15.685,2.781-21.37,2.695
		c-5.685-0.086-6.719-1.229-6.683-3.861l0.523-5.38c0.42-1.237,2.221-3.068,7.211-2.093c0,0,15.287,5.126,18.587,6.246
		C189.077,465.145,189.024,465.983,187.507,466.418z M195.493,462.584c0,0-4.766-1.505-7.641-2.381
		c-2.877-0.877-3.587-2.146-2.897-4.057l1.46-3.521c0.605-1.458,0.846-0.961,2.98,1.026c0,0,7.384,6.093,9.52,8.111
		C201.052,463.785,199.019,463.824,195.493,462.584z"/>
	<path fill="#423D3D" d="M197.816,418.346l0.012,19.19c0.435,10.999,1.695,12.644,6.079,13.604
		c4.388,0.967,11.07-7.088,19.747-16.114c3.34-4.479,1.572-8.494,1.572-8.494S214.078,418.604,197.816,418.346z"/>
	<path fill="#D4D0D0" d="M238.95,451.768c0,0-5.279-2.825-9.534,6.138c-4.257,8.965-5.673,12.813-5.673,12.813l13.659,0.107
		C237.402,470.826,241.498,465.13,238.95,451.768z"/>
	<path opacity="0.5" fill="#2B2627" d="M204.641,445.112c-0.248-0.792-0.617-2.779-0.814-7.7l-0.009-12.557
		c7.23,1.092,12.828,3.672,15.737,5.256c-0.103,0.317-0.27,0.682-0.533,1.074c-1.189,1.237-2.341,2.463-3.455,3.642
		C211.868,438.746,206.877,444.034,204.641,445.112z"/>
	<path fill="#D64351" d="M134.83,465.693c-0.273,0-0.551-0.074-0.799-0.231c-3.59-2.267-3.954-4.898-3.983-5.19
		c-0.083-0.824,0.517-1.562,1.341-1.645c0.806-0.095,1.538,0.499,1.639,1.304c0.021,0.116,0.321,1.555,2.604,2.994
		c0.7,0.442,0.91,1.368,0.468,2.069C135.815,465.446,135.328,465.693,134.83,465.693z"/>
	<path fill="#D64351" d="M141.704,463.001c-0.274,0-0.551-0.075-0.8-0.232c-3.589-2.269-3.952-4.899-3.981-5.191
		c-0.083-0.824,0.517-1.562,1.341-1.645c0.806-0.097,1.537,0.499,1.639,1.305c0.021,0.115,0.321,1.553,2.604,2.997
		c0.7,0.441,0.909,1.368,0.466,2.068C142.688,462.754,142.202,463.001,141.704,463.001z"/>
	<path fill="#D64351" d="M148.361,459.385c-0.274,0-0.551-0.075-0.8-0.231c-3.59-2.271-3.952-4.901-3.981-5.194
		c-0.083-0.824,0.519-1.56,1.343-1.642c0.805-0.096,1.537,0.5,1.638,1.305c0.021,0.117,0.321,1.552,2.604,2.996
		c0.7,0.441,0.909,1.369,0.466,2.069C149.345,459.138,148.859,459.385,148.361,459.385z"/>
	<path fill="#D64351" d="M154.764,456.002c-0.274,0-0.551-0.075-0.8-0.23c-3.59-2.27-3.953-4.899-3.982-5.192
		c-0.083-0.824,0.518-1.56,1.342-1.644c0.816-0.099,1.537,0.499,1.639,1.305c0.021,0.118,0.321,1.553,2.604,2.994
		c0.7,0.442,0.909,1.368,0.467,2.068C155.748,455.755,155.261,456.002,154.764,456.002z"/>
	<path fill="#D64351" d="M161.116,452.525c-0.274,0-0.552-0.075-0.801-0.232c-3.586-2.271-3.952-4.902-3.981-5.195
		c-0.084-0.823,0.516-1.561,1.34-1.645c0.807-0.079,1.538,0.497,1.64,1.303c0.021,0.117,0.324,1.558,2.607,3.002
		c0.7,0.443,0.908,1.37,0.464,2.07C162.099,452.279,161.613,452.525,161.116,452.525z"/>
	<path fill="#D64351" d="M167.172,448.639c-0.274,0-0.551-0.074-0.8-0.231c-3.59-2.271-3.951-4.899-3.981-5.191
		c-0.083-0.825,0.519-1.561,1.343-1.643c0.801-0.092,1.537,0.499,1.638,1.305c0.021,0.116,0.321,1.551,2.604,2.994
		c0.7,0.442,0.909,1.369,0.466,2.069C168.156,448.392,167.669,448.639,167.172,448.639z"/>
	<path fill="#D64351" d="M172.727,444.668c-0.274,0-0.551-0.075-0.8-0.232c-3.588-2.268-3.952-4.896-3.982-5.189
		c-0.084-0.823,0.516-1.561,1.34-1.645c0.816-0.076,1.539,0.498,1.64,1.304c0.021,0.118,0.323,1.554,2.604,2.996
		c0.701,0.441,0.909,1.368,0.467,2.068C173.71,444.421,173.224,444.668,172.727,444.668z"/>
</g>
</svg>
