<?xml version="1.0" encoding="utf-8"?>
<!-- Generator: Adobe Illustrator 18.0.0, SVG Export Plug-In . SVG Version: 6.00 Build 0)  -->
<!DOCTYPE svg PUBLIC "-//W3C//DTD SVG 1.1//EN" "http://www.w3.org/Graphics/SVG/1.1/DTD/svg11.dtd">
<svg version="1.1" id="content" xmlns="http://www.w3.org/2000/svg" xmlns:xlink="http://www.w3.org/1999/xlink" x="0px" y="0px"
	 width="500px" height="500px" viewBox="0 0 500 500" enable-background="new 0 0 500 500" xml:space="preserve">
<rect id="position" display="none" fill="none" stroke="#000000" width="500" height="500"/>
<g>
	<g>
		<path fill="#282830" d="M230.3,397.7c-2.6,0.1-14.5,2.2-23.9-1.9c-9.6-4.1-20.9-1.7-23-1c-2.2,0.7-2.8,1.4-2.8,2.8
			c0,3.3-0.5,13,0.7,22.7c1.1,9.1-17.4,0.7-28.8,6c-10.4,4.8-2.9,26.2,0.3,27.6c3.2,1.4,9.2,3.6,19.1,3.7c7.9,0,22.4-2.7,27-2.7
			c12.9,0,14,1.9,21.9,1.9c10.6,0,13.2-13.2,11.5-25.2c-2.2-16.3,1.6-26,1.6-30.4C233.8,399.7,232.9,397.6,230.3,397.7z"/>
	</g>
	<g>
		<path fill="#8F9F68" d="M209.9,455.6c5.7,0.9,8,1.2,10.8,1.2c10,0,12.8-10.5,11.9-20C221.3,436.7,210.3,445.1,209.9,455.6z"/>
	</g>
	<g>
		<path fill="#8F9F68" d="M151.1,427c-8.5,4.3-8.8,23,1.5,26.9C160.4,447.8,159.5,430.8,151.1,427z"/>
	</g>
	<g opacity="0.5">
		
			<rect x="198.1" y="404.1" transform="matrix(0.7071 0.7071 -0.7071 0.7071 350.2026 -24.3568)" fill="#58935C" width="12.9" height="12.9"/>
	</g>
	<g opacity="0.5">
		
			<rect x="198.1" y="426.8" transform="matrix(0.7071 0.7071 -0.7071 0.7071 366.2751 -17.6994)" fill="#58935C" width="12.9" height="12.9"/>
	</g>
	<g opacity="0.5">
		<path fill="#BFC636" d="M204.5,431.3l-9.6-9.6l9.6-9.6l9.6,9.6L204.5,431.3z M195.9,421.7l8.6,8.6l8.6-8.6l-8.6-8.6L195.9,421.7z"
			/>
	</g>
</g>
</svg>
