<?xml version="1.0" encoding="utf-8"?>
<!-- Generator: Adobe Illustrator 18.0.0, SVG Export Plug-In . SVG Version: 6.00 Build 0)  -->
<!DOCTYPE svg PUBLIC "-//W3C//DTD SVG 1.1//EN" "http://www.w3.org/Graphics/SVG/1.1/DTD/svg11.dtd">
<svg version="1.1" id="content" xmlns="http://www.w3.org/2000/svg" xmlns:xlink="http://www.w3.org/1999/xlink" x="0px" y="0px"
	 width="500px" height="500px" viewBox="0 0 500 500" enable-background="new 0 0 500 500" xml:space="preserve">
<rect id="position" display="none" fill="none" stroke="#000000" width="500" height="500"/>
<g>
	<g>
		<path fill="#1B170E" d="M180.6,384.2v41.9c0,5.7-4.6,10.4-10.4,10.4h-18.8c-12,0-21.8,9.7-21.8,21.8v5.4h50.9H204h28.9v-79.4
			c0-2-1.7-3.7-3.7-3.7h-44.9C182.2,380.5,180.6,382.2,180.6,384.2z"/>
		<path fill="#C62435" d="M129.7,471.7h44.5l11.2-1.4c2.4-0.3,4.7,0.1,6.9,1.1l0.5,0.2H233v-8H129.7V471.7z"/>
	</g>
	<rect x="219.8" y="380.5" fill="#48453D" width="7.7" height="83.1"/>
</g>
</svg>
