<?xml version="1.0" encoding="utf-8"?>
<!-- Generator: Adobe Illustrator 16.0.0, SVG Export Plug-In . SVG Version: 6.00 Build 0)  -->
<!DOCTYPE svg PUBLIC "-//W3C//DTD SVG 1.1//EN" "http://www.w3.org/Graphics/SVG/1.1/DTD/svg11.dtd">
<svg version="1.1" id="content" xmlns="http://www.w3.org/2000/svg" xmlns:xlink="http://www.w3.org/1999/xlink" x="0px" y="0px"
	 width="500px" height="500px" viewBox="0 0 500 500" enable-background="new 0 0 500 500" xml:space="preserve">
<rect id="position" display="none" fill="none" stroke="#000000" width="500" height="500"/>
<g>
	<ellipse opacity="0.2" fill="#A83647" cx="206.985" cy="481.174" rx="35.603" ry="38.722"/>
	<path fill="#FFEB6D" d="M222.291,458.218l-15.306-9.047l-15.306,9.047c0,0-16.484,25.614,15.306,48.72
		C238.775,483.832,222.291,458.218,222.291,458.218z"/>
	<path opacity="0.4" fill="#D9455C" d="M217.426,456.76l-10.44-3.812l-10.44,3.812c0,0-7.798,17.181,10.44,29.735
		C225.224,473.94,217.426,456.76,217.426,456.76z"/>
	<path fill="#BAAB4F" d="M236.551,423.123h-29.565H177.42c0,0-5.959,21.063,18.084,33.83c5.744-1.489,11.481-1.063,11.481-1.063
		s5.737-0.426,11.481,1.063C242.51,444.187,236.551,423.123,236.551,423.123z"/>
	<path fill="#968A40" d="M206.985,423.123H177.42c0,0-0.75,2.678-0.638,6.694c0.171,0.041,0.347,0.069,0.53,0.069h59.346
		c0.184,0,0.359-0.028,0.53-0.069c0.112-4.017-0.638-6.694-0.638-6.694H206.985z"/>
	<path fill="#D6C45B" d="M238.915,408.287c0-1.247-1.011-2.258-2.257-2.258h-59.346c-1.246,0-2.257,1.011-2.257,2.258v15.134
		c0,1.246,1.011,2.257,2.257,2.257h59.346c1.246,0,2.257-1.011,2.257-2.257V408.287z"/>
	<path fill="#BAAB4F" d="M199.404,425.678l0.301-0.334c0.219-0.242,0.338-0.55,0.338-0.866v-12.542c0-0.717-0.582-1.3-1.299-1.3
		h-13.302c-0.717,0-1.3,0.583-1.3,1.3v12.542c0,0.316,0.12,0.624,0.338,0.866l0.302,0.334h-1.759l-0.053-0.12
		c-0.151-0.345-0.229-0.709-0.229-1.08v-12.542c0-1.489,1.211-2.7,2.7-2.7h13.302c1.488,0,2.699,1.211,2.699,2.7v12.542
		c0,0.371-0.076,0.735-0.229,1.08l-0.053,0.12H199.404z"/>
</g>
</svg>
