<?xml version="1.0" encoding="utf-8"?>
<!-- Generator: Adobe Illustrator 16.0.0, SVG Export Plug-In . SVG Version: 6.00 Build 0)  -->
<!DOCTYPE svg PUBLIC "-//W3C//DTD SVG 1.1//EN" "http://www.w3.org/Graphics/SVG/1.1/DTD/svg11.dtd">
<svg version="1.1" id="content" xmlns="http://www.w3.org/2000/svg" xmlns:xlink="http://www.w3.org/1999/xlink" x="0px" y="0px"
	 width="500px" height="500px" viewBox="0 0 500 500" enable-background="new 0 0 500 500" xml:space="preserve">
<g id="bounds">
	<rect x="0.2" y="80.2" fill="none" stroke="#EAEAEA" stroke-miterlimit="10" width="499.5" height="499.5"/>
</g>
<g>
	<ellipse opacity="0.2" fill="#A83647" cx="250.282" cy="415.174" rx="88.388" ry="96.131"/>
	<path fill="#FFEB6D" d="M288.28,358.183l-37.998-22.46l-37.998,22.46c0,0-40.924,63.591,37.998,120.952
		C329.205,421.773,288.28,358.183,288.28,358.183z"/>
	<path opacity="0.4" fill="#D9455C" d="M276.202,354.562l-25.92-9.465l-25.919,9.465c0,0-19.359,42.653,25.919,73.822
		C295.561,397.216,276.202,354.562,276.202,354.562z"/>
	<path fill="#BAAB4F" d="M323.682,271.056h-73.399h-73.399c0,0-14.794,52.292,44.896,83.987c14.26-3.697,28.504-2.641,28.504-2.641
		s14.243-1.057,28.504,2.641C338.476,323.348,323.682,271.056,323.682,271.056z"/>
	<path fill="#968A40" d="M250.282,271.056h-73.399c0,0-1.862,6.647-1.583,16.62c0.424,0.102,0.861,0.172,1.316,0.172h147.333
		c0.456,0,0.893-0.07,1.317-0.172c0.278-9.973-1.584-16.62-1.584-16.62H250.282z"/>
	<path fill="#D6C45B" d="M329.552,234.224c0-3.096-2.51-5.605-5.604-5.605H176.616c-3.093,0-5.603,2.509-5.603,5.605v37.571
		c0,3.094,2.509,5.604,5.603,5.604h147.333c3.094,0,5.604-2.51,5.604-5.604V234.224z"/>
</g>
<path fill="#BAAB4F" d="M231.461,277.398l0.747-0.83c0.543-0.601,0.839-1.364,0.839-2.15v-31.137c0-1.779-1.445-3.227-3.225-3.227
	h-33.023c-1.78,0-3.227,1.447-3.227,3.227v31.137c0,0.786,0.298,1.55,0.839,2.15l0.749,0.83h-4.366l-0.131-0.299
	c-0.376-0.855-0.567-1.76-0.567-2.682v-31.137c0-3.697,3.006-6.703,6.704-6.703h33.023c3.695,0,6.701,3.006,6.701,6.703v31.137
	c0,0.922-0.189,1.826-0.567,2.682l-0.131,0.299H231.461z"/>
</svg>
