<?xml version="1.0" encoding="utf-8"?>
<!-- Generator: Adobe Illustrator 18.0.0, SVG Export Plug-In . SVG Version: 6.00 Build 0)  -->
<!DOCTYPE svg PUBLIC "-//W3C//DTD SVG 1.1//EN" "http://www.w3.org/Graphics/SVG/1.1/DTD/svg11.dtd">
<svg version="1.1" id="content" xmlns="http://www.w3.org/2000/svg" xmlns:xlink="http://www.w3.org/1999/xlink" x="0px" y="0px"
	 width="500px" height="500px" viewBox="0 0 500 500" enable-background="new 0 0 500 500" xml:space="preserve">
<rect id="position" display="none" fill="none" stroke="#000000" width="500" height="500"/>
<g>
	<path fill="#161615" d="M179,431l7.9-1.1c0.7-0.1,0.3-4.6,0.2-5.1c-0.6-2.5-2.5-4.2-4.9-4.9c-3.1-0.8-5.4,0.4-8,2.2
		c-3.1,2.1-5.8,4.7-8.8,6.9c-3.1,2.2-6.4,4-9.7,5.8c-8.9,4.8-17.6,10.3-27.9,11.5c-4.6,0.6-9.4,0.4-13.8,1.9
		c-4.7,1.6-7.5,5.1-7,10.2l15,8.3l61.9,2L179,431z"/>
	<path fill="#798255" d="M238.4,430.5"/>
	<g>
		<path fill="#202021" d="M168,466.5c-0.9-0.2-1.2-2.8-1.4-3.5c-1.1-4.9-4-9.8-9.6-10.2c-2.9-0.2-7.8,0.6-9.8-2.8
			c-2.2-3.6,0.1-7.2,3.3-8.8c4.3-2.3,8.8-4.2,13.2-6.4c4.7-2.3,9.4-5.4,14.7-6.6c6.2-1.4,10.7,1.3,15.7,4.6
			c4.7,3.1,9.8,4.8,15.5,4.4c5.2-0.4,11.4-0.9,15.8-4.1c2.7-2,7.7-6.4,10.4-2c1.4,2.3,1.8,5.6,2.1,8.2c1,6.5,1.2,13.2,1.3,19.8
			l-7.3,9.7C231.8,468.8,168.5,466.5,168,466.5z"/>
		<path fill="#0C0C0B" d="M232,469.3h-0.3c0,0-63.2-2.2-63.8-2.2c-1.1-0.2-1.5-1.8-1.8-3.5c0-0.2-0.1-0.3-0.1-0.4
			c-0.6-2.8-2.8-9.3-9.1-9.8c-0.6,0-1.2,0-1.9,0c-2.9,0-6.6,0-8.4-3c-0.9-1.5-1.2-3.2-0.7-4.8c0.5-1.9,2.1-3.7,4.2-4.8
			c2.6-1.3,5.2-2.6,7.8-3.8c1.8-0.9,3.6-1.7,5.4-2.6c1.2-0.6,2.4-1.2,3.6-1.9c3.5-1.9,7.2-3.9,11.2-4.7c1.1-0.2,2.2-0.4,3.3-0.4
			c4.7,0,8.6,2.3,12.8,5.1c5,3.3,9.9,4.7,15.2,4.3c5-0.4,11.3-0.9,15.5-4c0.2-0.2,0.5-0.4,0.8-0.6c1.9-1.4,4.5-3.4,6.9-3.4
			c1.4,0,2.6,0.7,3.4,2.1c1.3,2.2,1.7,5,2.1,7.5l0.1,0.8c1,6.8,1.2,13.8,1.3,19.8v0.2L232,469.3z M181.5,428.4c-1,0-2.1,0.1-3.1,0.3
			c-3.9,0.9-7.5,2.8-10.9,4.7c-1.2,0.6-2.4,1.3-3.6,1.9c-1.8,0.9-3.6,1.7-5.4,2.6c-2.6,1.2-5.2,2.5-7.7,3.8c-1.8,1-3.2,2.5-3.7,4.2
			c-0.4,1.3-0.2,2.7,0.6,4c1.5,2.5,4.8,2.5,7.5,2.5c0.7,0,1.3,0,1.9,0c4.9,0.4,8.6,4.2,10,10.6c0,0.1,0.1,0.3,0.1,0.5
			c0.4,2.3,0.8,2.6,0.9,2.6c0.5,0,59.1,2.1,63.5,2.2l7.1-9.4c-0.1-5.9-0.2-12.8-1.3-19.5l-0.1-0.8c-0.4-2.4-0.8-5.2-2-7.2
			c-0.7-1.1-1.5-1.6-2.6-1.6c-2,0-4.5,1.9-6.3,3.2c-0.3,0.2-0.5,0.4-0.8,0.6c-4.5,3.3-10.9,3.8-16,4.2c-5.4,0.4-10.6-1-15.8-4.5
			C189.5,430.5,185.9,428.4,181.5,428.4z"/>
	</g>
	<g>
		<path fill="#7C7C7B" d="M153.6,449.4c-1.5,0-2.8-1.2-2.9-2.7c-0.1-1.6,1.1-3,2.7-3.1c1.6-0.1,3,1.1,3.1,2.7
			c0.1,0.8-0.2,1.5-0.7,2.1s-1.2,0.9-2,1C153.7,449.4,153.7,449.4,153.6,449.4z M153.6,445.1c-0.9,0.1-1.4,0.7-1.4,1.5
			c0.1,0.7,0.7,1.3,1.4,1.3h0.1c0.4,0,0.7-0.2,0.9-0.5s0.4-0.6,0.3-1C154.9,445.7,154.3,445.1,153.6,445.1z"/>
	</g>
	<g>
		<path fill="#7C7C7B" d="M162.2,445.5c-1.5,0-2.8-1.2-2.9-2.7c-0.1-1.6,1.1-3,2.7-3.1c1.6-0.1,3,1.1,3.1,2.7s-1.1,3-2.7,3.1
			C162.3,445.5,162.2,445.5,162.2,445.5z M162.2,441.2c-0.9,0.1-1.4,0.7-1.4,1.5c0.1,0.7,0.7,1.3,1.4,1.3h0.1
			c0.8-0.1,1.3-0.7,1.3-1.5C163.5,441.8,162.9,441.2,162.2,441.2z"/>
	</g>
	<g>
		<path fill="#7C7C7B" d="M170.7,441.5c-1.5,0-2.8-1.2-2.9-2.7c-0.1-1.6,1.1-3,2.7-3.1c1.6-0.1,3,1.1,3.1,2.7
			c0.1,0.8-0.2,1.5-0.7,2.1s-1.2,0.9-2,1C170.9,441.5,170.8,441.5,170.7,441.5z M170.8,437.3c-0.9,0.1-1.4,0.7-1.4,1.5
			c0.1,0.7,0.7,1.3,1.4,1.3h0.1c0.4,0,0.7-0.2,0.9-0.5s0.4-0.6,0.3-1C172.1,437.8,171.5,437.3,170.8,437.3z"/>
	</g>
	<g>
		<path fill="#7C7C7B" d="M178.3,436.9c-1.5,0-2.8-1.2-2.9-2.7c-0.1-0.8,0.2-1.5,0.7-2.1s1.2-0.9,2-1c1.6-0.1,3,1.1,3.1,2.7
			s-1.1,3-2.7,3.1C178.5,436.9,178.4,436.9,178.3,436.9z M178.4,432.6c-0.5,0-0.8,0.2-1,0.5s-0.4,0.6-0.3,1c0.1,0.7,0.7,1.3,1.4,1.3
			h0.1c0.8-0.1,1.3-0.7,1.3-1.5C179.7,433.2,179.1,432.6,178.4,432.6z"/>
	</g>
	<path fill="#E8E8E6" d="M147.2,439.1c1.3,2,2.1,3.5,3.5,5.4c0.6,0.9,1.7,3.2,3.1,2.7c1.7-0.6,0-3.1-0.4-4c-0.4-0.8-0.8-1.7-1.2-2.5
		c-0.1-0.3-1.3-2.6-1.6-3.4C150.6,437.4,147.2,439.1,147.2,439.1z"/>
	<g>
		<path fill="#0C0C0B" d="M169.8,464.7c-1.3-9.7-8.5-13.4-8.6-13.4l0.4-0.9c0.3,0.2,7.8,4,9.1,14.2L169.8,464.7z"/>
	</g>
	<g>
		<path fill="#0C0C0B" d="M211.4,444.3c-11.2,0-22.4-5.2-22.6-5.2l0.4-0.9c0.1,0.1,11.9,5.5,23.4,5.1c11.4-0.4,23.2-7.4,23.3-7.4
			l0.5,0.9c-0.1,0.1-12.2,7.2-23.8,7.6C212.2,444.3,211.8,444.3,211.4,444.3z"/>
	</g>
	<path fill="#161615" d="M237.8,439.3c-0.4-2.6-0.8-5.8-2.1-8.2c-2.6-4.4-7.7,0.1-10.4,2c12.3,3.9,12.6,26.6,12.6,26.6l1.2-0.1V459
		C239,452.5,238.8,445.8,237.8,439.3z"/>
	<polygon fill="#161615" points="173.4,445.4 175.7,449.6 186.4,444.7 184.1,440.5 	"/>
	<g>
		
			<rect x="176.6" y="421.8" transform="matrix(-0.4125 -0.911 0.911 -0.4125 -154.1408 788.1909)" fill="#0C0C0B" width="1" height="44.1"/>
	</g>
	<path fill="#F1F1F1" d="M180.7,444.1l0.1-0.8c0-0.1,0-0.1-0.1-0.1c0,0-0.1,0-0.1,0.1l-0.1,0.8c-0.3,0-0.7,0.1-1,0.2
		c-0.3,0.2-0.6,0.4-0.9,0.6l-0.7-0.4h-0.1v0.1l0.7,0.4c-0.5,0.6-0.7,1.4-0.5,2.1l4.5-2C182.2,444.5,181.5,444.1,180.7,444.1z
		 M179.1,445.9c-0.1,0.1-0.3,0-0.4-0.1c-0.1-0.1,0-0.3,0.1-0.4s0.3,0,0.4,0.1C179.3,445.7,179.3,445.9,179.1,445.9z M181,445.1
		c-0.1,0.1-0.3,0-0.4-0.1c-0.1-0.1,0-0.3,0.1-0.4s0.3,0,0.4,0.1C181.2,444.9,181.1,445,181,445.1z"/>
	<path fill="#F1F1F1" d="M155.1,434.7c1.6,2.4,2.9,4,4.5,6.5c0.6,0.9,1.7,3,3.1,1.8c1.2-1-1.1-3.7-1.6-4.5c-0.9-1.6-3.1-5.3-3-5.3
		C158,433.2,155.1,434.7,155.1,434.7z"/>
	<path fill="#F1F1F1" d="M161.7,431.2c0,0,7.8,7.7,7.9,7.8c1.1,1.1,2.8-0.2,1.4-1.7l-6.5-8L161.7,431.2z"/>
	<path fill="#F1F1F1" d="M167.2,427.2c0,0,9.9,7.4,10,7.4c0.5,0.3,1.1,0.4,1.5,0c0.8-0.9-0.4-1.9-1.1-2.5c-1.6-1.3-3.2-2.6-4.8-4
		c-1.6-1.3-1.7-1.4-3.3-2.7L167.2,427.2z"/>
	<path fill="#E5E5E5" d="M239.7,470.8c0,0-18.5,3.6-56,3.5s-66.5,0.2-75.4-3.2c0,0-3.5-8-1.3-12.6c0,0,33.5,6.1,70.4,6.1
		c24.4,0,50.8-2.3,62.2-6L239.7,470.8z"/>
	<path fill="#CECECE" d="M128.3,466.1v2c0.3,0,27.8,2.7,51.7,2.7c4.7,0,9.2-0.1,13.3-0.4c24.8-1.7,34.4-2.5,46.4-5.5v-2.1
		c-12,3-21.6,3.8-46.5,5.5C168.1,470.2,128.7,466.1,128.3,466.1z"/>
</g>
</svg>
