<?xml version="1.0" encoding="utf-8"?>
<!-- Generator: Adobe Illustrator 16.0.0, SVG Export Plug-In . SVG Version: 6.00 Build 0)  -->
<!DOCTYPE svg PUBLIC "-//W3C//DTD SVG 1.1//EN" "http://www.w3.org/Graphics/SVG/1.1/DTD/svg11.dtd">
<svg version="1.1" id="content" xmlns="http://www.w3.org/2000/svg" xmlns:xlink="http://www.w3.org/1999/xlink" x="0px" y="0px"
	 width="500px" height="500px" viewBox="0 0 500 500" enable-background="new 0 0 500 500" xml:space="preserve">
<g id="bounds">
	<rect x="0.2" y="80.2" fill="none" stroke="#EAEAEA" stroke-miterlimit="10" width="499.5" height="499.5"/>
</g>
<g>
	<path fill="#161615" d="M252.514,374.615l17.955-2.498c1.589-0.228,0.68-10.455,0.452-11.592
		c-1.364-5.681-5.681-9.543-11.135-11.133c-7.047-1.82-12.273,0.907-18.18,4.997c-7.045,4.774-13.183,10.683-20,15.682
		c-7.045,5.001-14.543,9.091-22.042,13.181c-20.226,10.907-39.997,23.405-63.405,26.134c-10.452,1.366-21.361,0.909-31.359,4.319
		c-10.683,3.635-17.046,11.589-15.909,23.181l34.089,18.861l140.671,4.544L252.514,374.615z"/>
	<path fill="#798255" d="M387.503,373.48"/>
	<g>
		<path fill="#202021" d="M227.517,455.29c-2.044-0.454-2.728-6.36-3.181-7.952c-2.502-11.137-9.091-22.271-21.818-23.181
			c-6.589-0.454-17.726,1.364-22.27-6.363c-5.001-8.179,0.226-16.362,7.5-19.998c9.771-5.226,19.996-9.545,29.996-14.544
			c10.68-5.227,21.364-12.271,33.408-14.997c14.088-3.183,24.313,2.953,35.675,10.452c10.683,7.045,22.273,10.907,35.225,10
			c11.819-0.911,25.909-2.048,35.909-9.32c6.134-4.544,17.495-14.542,23.634-4.544c3.18,5.229,4.089,12.729,4.771,18.634
			c2.273,14.772,2.726,29.999,2.955,44.998l-16.591,22.044C372.504,460.519,228.651,455.29,227.517,455.29z"/>
		<path fill="#0C0C0B" d="M372.958,461.653h-0.682c0,0-143.625-4.999-144.989-4.999c-2.498-0.452-3.407-4.09-4.088-7.954
			c0-0.453-0.229-0.683-0.229-0.907c-1.364-6.363-6.363-21.135-20.681-22.271c-1.364,0-2.726,0-4.317,0
			c-6.588,0-14.999,0-19.089-6.817c-2.046-3.408-2.728-7.272-1.593-10.91c1.136-4.316,4.773-8.406,9.547-10.907
			c5.909-2.953,11.817-5.908,17.724-8.636c4.094-2.046,8.184-3.862,12.273-5.906c2.728-1.366,5.455-2.729,8.179-4.319
			c7.955-4.319,16.363-8.863,25.454-10.683c2.501-0.454,4.999-0.907,7.502-0.907c10.678,0,19.542,5.227,29.087,11.59
			c11.362,7.499,22.497,10.682,34.543,9.771c11.362-0.907,25.68-2.044,35.225-9.089c0.453-0.454,1.137-0.909,1.816-1.363
			c4.317-3.183,10.228-7.728,15.68-7.728c3.183,0,5.91,1.592,7.729,4.774c2.953,4.996,3.862,11.361,4.771,17.043l0.228,1.818
			c2.273,15.451,2.729,31.36,2.953,44.995v0.455L372.958,461.653z M258.195,368.709c-2.273,0-4.772,0.226-7.043,0.68
			c-8.866,2.046-17.048,6.363-24.772,10.683c-2.728,1.361-5.453,2.953-8.184,4.317c-4.088,2.046-8.18,3.862-12.27,5.91
			c-5.91,2.724-11.818,5.681-17.499,8.634c-4.09,2.273-7.271,5.682-8.407,9.546c-0.909,2.953-0.457,6.134,1.364,9.091
			c3.407,5.681,10.907,5.681,17.043,5.681c1.589,0,2.955,0,4.319,0c11.135,0.907,19.543,9.541,22.726,24.088
			c0,0.226,0.226,0.68,0.226,1.137c0.909,5.227,1.818,5.906,2.046,5.906c1.137,0,134.307,4.774,144.305,5.001l16.136-21.362
			c-0.229-13.407-0.455-29.089-2.953-44.313l-0.229-1.82c-0.907-5.451-1.816-11.814-4.544-16.359c-1.592-2.5-3.41-3.637-5.908-3.637
			c-4.545,0-10.226,4.317-14.317,7.272c-0.683,0.454-1.135,0.909-1.819,1.361c-10.228,7.502-24.77,8.639-36.361,9.546
			c-12.269,0.909-24.088-2.273-35.904-10.228C276.375,373.48,268.195,368.709,258.195,368.709z"/>
	</g>
	<g>
		<path fill="#7C7C7B" d="M194.793,416.433c-3.408,0-6.365-2.728-6.591-6.138c-0.228-3.638,2.499-6.817,6.134-7.045
			c3.637-0.228,6.817,2.5,7.047,6.136c0.228,1.818-0.457,3.409-1.591,4.773c-1.137,1.362-2.727,2.044-4.547,2.273
			C195.02,416.433,195.02,416.433,194.793,416.433z M194.793,406.657c-2.046,0.229-3.183,1.592-3.183,3.41
			c0.227,1.592,1.589,2.955,3.183,2.955h0.227c0.909,0,1.59-0.454,2.046-1.137c0.453-0.682,0.907-1.363,0.678-2.271
			C197.743,408.023,196.382,406.657,194.793,406.657z"/>
	</g>
	<g>
		<path fill="#7C7C7B" d="M214.336,407.569c-3.41,0-6.365-2.729-6.592-6.138c-0.226-3.636,2.5-6.818,6.138-7.043
			c3.637-0.229,6.817,2.498,7.045,6.136c0.227,3.635-2.501,6.817-6.138,7.045C214.562,407.569,214.336,407.569,214.336,407.569z
			 M214.336,397.796c-2.046,0.228-3.183,1.592-3.183,3.41c0.226,1.591,1.592,2.953,3.183,2.953h0.226
			c1.82-0.226,2.957-1.591,2.957-3.408C217.289,399.16,215.925,397.796,214.336,397.796z"/>
	</g>
	<g>
		<path fill="#7C7C7B" d="M233.652,398.479c-3.41,0-6.365-2.729-6.59-6.136c-0.228-3.636,2.498-6.818,6.135-7.045
			c3.638-0.228,6.818,2.498,7.043,6.136c0.229,1.818-0.454,3.409-1.591,4.771c-1.135,1.364-2.724,2.046-4.545,2.273
			C234.104,398.479,233.878,398.479,233.652,398.479z M233.878,388.933c-2.046,0.229-3.181,1.591-3.181,3.41
			c0.228,1.591,1.594,2.953,3.181,2.953h0.227c0.91,0,1.594-0.453,2.046-1.137c0.455-0.683,0.91-1.362,0.685-2.273
			C236.835,390.069,235.469,388.933,233.878,388.933z"/>
	</g>
	<g>
		<path fill="#7C7C7B" d="M250.923,388.025c-3.41,0-6.363-2.728-6.588-6.136c-0.229-1.818,0.452-3.41,1.587-4.773
			c1.137-1.364,2.728-2.044,4.546-2.273c3.638-0.228,6.818,2.501,7.045,6.136c0.228,3.637-2.5,6.817-6.136,7.047
			C251.377,388.025,251.152,388.025,250.923,388.025z M251.152,378.253c-1.137,0-1.821,0.454-2.273,1.134
			c-0.455,0.685-0.909,1.366-0.685,2.273c0.229,1.592,1.592,2.955,3.183,2.955h0.228c1.818-0.227,2.955-1.591,2.955-3.407
			C254.105,379.616,252.739,378.253,251.152,378.253z"/>
	</g>
	<path fill="#E8E8E6" d="M180.248,393.022c2.953,4.547,4.771,7.954,7.954,12.273c1.362,2.046,3.86,7.272,7.043,6.136
		c3.864-1.364,0-7.045-0.909-9.089c-0.907-1.818-1.816-3.864-2.726-5.684c-0.226-0.68-2.956-5.908-3.636-7.727
		C187.975,389.162,180.248,393.022,180.248,393.022z"/>
	<g>
		<path fill="#0C0C0B" d="M231.606,451.2c-2.955-22.044-19.316-30.453-19.544-30.453l0.91-2.043
			c0.68,0.452,17.725,9.091,20.68,32.27L231.606,451.2z"/>
	</g>
	<g>
		<path fill="#0C0C0B" d="M326.144,404.841c-25.451,0-50.903-11.818-51.36-11.818l0.911-2.044
			c0.226,0.228,27.042,12.499,53.176,11.59c25.908-0.907,52.725-16.816,52.951-16.816l1.137,2.044
			c-0.229,0.229-27.725,16.363-54.088,17.272C327.963,404.841,327.054,404.841,326.144,404.841z"/>
	</g>
	<path fill="#161615" d="M386.139,393.477c-0.907-5.905-1.818-13.178-4.771-18.634c-5.911-9.998-17.5,0.229-23.636,4.544
		c27.952,8.864,28.635,60.452,28.635,60.452l2.726-0.229v-1.362C388.866,423.476,388.412,408.249,386.139,393.477z"/>
	<polygon fill="#161615" points="239.786,407.342 245.015,416.885 269.332,405.75 264.104,396.205 	"/>
	<g>
		
			<rect x="247.179" y="353.511" transform="matrix(0.4131 0.9107 -0.9107 0.4131 513.329 10.7612)" fill="#0C0C0B" width="2.274" height="100.225"/>
	</g>
	<path fill="#F1F1F1" d="M256.379,404.387l0.225-1.818c0-0.226,0-0.226-0.225-0.226c0,0-0.229,0-0.229,0.226l-0.228,1.818
		c-0.68,0-1.592,0.228-2.271,0.454c-0.682,0.455-1.363,0.909-2.046,1.364l-1.589-0.909h-0.229v0.225l1.591,0.912
		c-1.136,1.361-1.591,3.183-1.136,4.771l10.228-4.547C259.786,405.296,258.195,404.387,256.379,404.387z M252.739,408.479
		c-0.226,0.225-0.68,0-0.907-0.229c-0.228-0.226,0-0.68,0.228-0.907c0.228-0.229,0.68,0,0.909,0.228
		C253.196,408.023,253.196,408.479,252.739,408.479z M257.059,406.657c-0.226,0.229-0.68,0-0.909-0.225
		c-0.228-0.228,0-0.683,0.229-0.912c0.225-0.225,0.68,0,0.907,0.229C257.513,406.205,257.286,406.433,257.059,406.657z"/>
	<path fill="#F1F1F1" d="M198.202,383.024c3.636,5.453,6.589,9.091,10.226,14.771c1.362,2.044,3.862,6.818,7.045,4.09
		c2.724-2.271-2.5-8.409-3.635-10.226c-2.048-3.635-7.047-12.044-6.817-12.044C204.791,379.616,198.202,383.024,198.202,383.024z"/>
	<path fill="#F1F1F1" d="M213.199,375.072c0,0,17.726,17.498,17.955,17.725c2.498,2.499,6.36-0.454,3.18-3.864l-14.771-18.18
		L213.199,375.072z"/>
	<path fill="#F1F1F1" d="M225.698,365.981c0,0,22.496,16.815,22.726,16.815c1.137,0.685,2.499,0.909,3.408,0
		c1.818-2.044-0.909-4.317-2.501-5.681c-3.635-2.955-7.27-5.908-10.907-9.091c-3.635-2.953-3.862-3.181-7.499-6.134L225.698,365.981
		z"/>
	<path fill="#E5E5E5" d="M390.458,465.063c0,0-42.043,8.182-127.262,7.954c-85.222-0.228-151.125,0.454-171.351-7.272
		c0,0-7.954-18.182-2.955-28.635c0,0,76.131,13.863,159.988,13.863c55.448,0,115.445-5.227,141.35-13.636L390.458,465.063z"/>
	<path fill="#CECECE" d="M137.296,454.381v4.547c0.685,0,63.178,6.136,117.491,6.136c10.681,0,20.907-0.228,30.224-0.907
		c56.357-3.865,78.177-5.684,105.447-12.501v-4.771c-27.271,6.817-49.09,8.634-105.675,12.498
		C227.744,463.699,138.206,454.381,137.296,454.381z"/>
</g>
</svg>
