<?xml version="1.0" encoding="utf-8"?>
<!-- Generator: Adobe Illustrator 18.0.0, SVG Export Plug-In . SVG Version: 6.00 Build 0)  -->
<!DOCTYPE svg PUBLIC "-//W3C//DTD SVG 1.1//EN" "http://www.w3.org/Graphics/SVG/1.1/DTD/svg11.dtd">
<svg version="1.1" id="content" xmlns="http://www.w3.org/2000/svg" xmlns:xlink="http://www.w3.org/1999/xlink" x="0px" y="0px"
	 width="500px" height="500px" viewBox="0 0 500 500" enable-background="new 0 0 500 500" xml:space="preserve">
<rect id="position" display="none" fill="none" stroke="#000000" width="500" height="500"/>
<g>
	<path fill="#F05229" d="M184,416.2c-1.8,0-8.3,9-20.3,13c-10.7,3.6-19.8,4.3-23.1,5.2c-7.1,2-7.7,15.3-5.8,18.9
		c4.4,8.2,21.2,9.1,32.4,9.1s18.9-6.4,25.1-6.1c6.2,0.3,9.7,3.9,22.3,3.9s17.5-4.1,19-7.3c1.5-3.2,3-10.6,0.3-13.5
		s-15.6-0.5-15.6-0.5s12.9-9.1,13.9-10.8c1.1-1.7,1.1-9.8-0.6-11.1c-1.7-1.2-22.4,16.8-28.8,15.8C196.5,432,187.5,416.2,184,416.2z"
		/>
	<circle fill="#BD202E" cx="202" cy="440.6" r="3.6"/>
	<path fill="#F7A7A1" d="M171.8,433.3c0.2,0.6,1.4,0.8,2.8,0.4c1.3-0.4,2.2-1.2,2-1.9c-0.2-0.6-1.4-0.8-2.7-0.4
		C172.5,431.9,171.6,432.7,171.8,433.3z"/>
	<path fill="#F7A7A1" d="M168.2,441.5c0.3,1,2,1.3,3.7,0.8c1.8-0.5,2.9-1.8,2.6-2.7c-0.3-1-2-1.3-3.7-0.8S167.9,440.5,168.2,441.5z"
		/>
	<path fill="#F7A7A1" d="M156.1,443c0.1,1,1.7,1.7,3.5,1.5s3.2-1.2,3.1-2.2c-0.1-1-1.7-1.7-3.5-1.5C157.4,441.1,156,442,156.1,443z"
		/>
	<path fill="#F7A7A1" d="M143.8,441.7c-0.2,1,1.2,2.1,3,2.4s3.4-0.3,3.6-1.3c0.2-1-1.2-2.1-3-2.4C145.6,440.1,144,440.7,143.8,441.7
		z"/>
	<path fill="#F7A7A1" d="M161.3,436.4c0.1,0.7,1.3,1,2.7,0.7s2.4-1,2.2-1.7c-0.1-0.7-1.3-1-2.7-0.7
		C162.2,435,161.2,435.8,161.3,436.4z"/>
	<path fill="#F7A7A1" d="M150.7,437.5c0,0.7,1.2,1.2,2.5,1.1c1.4-0.1,2.5-0.6,2.5-1.3c0-0.7-1.2-1.2-2.5-1.1
		C151.8,436.2,150.7,436.8,150.7,437.5z"/>
	<path fill="#F7A7A1" d="M141.1,436.7c-0.1,0.7,1,1.3,2.4,1.4s2.6-0.3,2.6-1c0.1-0.7-1-1.3-2.4-1.4
		C142.3,435.6,141.1,436,141.1,436.7z"/>
	<path fill="none" stroke="#BD202E" stroke-width="1.8573" stroke-linecap="round" d="M228.2,452.4c0,0-3.2,3.5-12.6,3.5
		c-9.8,0-17.6-4.2-23.7-4.2c-6.5,0-19.9,6.4-29.1,6.4c-14.5,0-23.3-5-23.3-5"/>
</g>
</svg>
