<?xml version="1.0" encoding="utf-8"?>
<!-- Generator: Adobe Illustrator 18.0.0, SVG Export Plug-In . SVG Version: 6.00 Build 0)  -->
<!DOCTYPE svg PUBLIC "-//W3C//DTD SVG 1.1//EN" "http://www.w3.org/Graphics/SVG/1.1/DTD/svg11.dtd">
<svg version="1.1" id="content" xmlns="http://www.w3.org/2000/svg" xmlns:xlink="http://www.w3.org/1999/xlink" x="0px" y="0px"
	 width="500px" height="500px" viewBox="0 0 500 500" enable-background="new 0 0 500 500" xml:space="preserve">
<rect id="position" display="none" fill="none" stroke="#000000" width="500" height="500"/>
<g id="bounds" display="none">
	<rect x="0.2" y="80.2" display="inline" fill="none" stroke="#EAEAEA" stroke-miterlimit="10" width="499.5" height="499.5"/>
</g>
<g>
	<path fill="#C497A8" d="M173.7,430.5c0,0,7.4,0.5,33.3,0.5c28,0,57.7,5.2,157.6-33.8l-17.2,45.9l-82.1,30.5l-97-7.3v-19.7
		L173.7,430.5z"/>
	<path fill="#F8BBD0" d="M371,477c0-2,0-4.8,0-6.7c0,0,11.6-9,11.3-35.1c-0.4-26.1-11-31.8-17.6-38c0,0-79,52.5-146.6,52.5
		c0,0-39.8-0.7-44.3-19.2c0,0-10,0.5-17.9,0.7c-7.9,0.4-37.3-1.1-37,22.9c0.2,14,25.1,19.3,35.2,21.8c22.2,4.3,65.1,4.3,79.1,4.5
		c19.5-0.7,43.4-2.7,62.9-4.1v3.4h12.7h31h16.7C356.6,479.7,369.1,479.7,371,477z"/>
</g>
</svg>
