<?xml version="1.0" encoding="utf-8"?>
<!-- Generator: Adobe Illustrator 18.0.0, SVG Export Plug-In . SVG Version: 6.00 Build 0)  -->
<!DOCTYPE svg PUBLIC "-//W3C//DTD SVG 1.1//EN" "http://www.w3.org/Graphics/SVG/1.1/DTD/svg11.dtd">
<svg version="1.1" id="content" xmlns="http://www.w3.org/2000/svg" xmlns:xlink="http://www.w3.org/1999/xlink" x="0px" y="0px"
	 width="500px" height="500px" viewBox="0 0 500 500" enable-background="new 0 0 500 500" xml:space="preserve">
<rect id="position" display="none" fill="none" stroke="#000000" width="500" height="500"/>
<path fill="#F8BBD0" d="M230.9,423.9v4.5c-0.6,11-10.9,20.5-24.4,20.5c-13.4-0.1-23.8-9.5-24.3-20.5v-4.5c-2.8,5-2.6,11.2-1.9,16.7
	c0.6,4.7,2.3,9.3,4.9,13.2c4.8,7.1,12.6,11.7,21.3,11.7l0,0l0,0c8.7,0,16.5-4.6,21.3-11.7c2.6-3.9,4.3-8.5,4.9-13.2
	C233.5,435,233.6,428.9,230.9,423.9z"/>
</svg>
