<?xml version="1.0" encoding="utf-8"?>
<!-- Generator: Adobe Illustrator 18.0.0, SVG Export Plug-In . SVG Version: 6.00 Build 0)  -->
<!DOCTYPE svg PUBLIC "-//W3C//DTD SVG 1.1//EN" "http://www.w3.org/Graphics/SVG/1.1/DTD/svg11.dtd">
<svg version="1.1" id="content" xmlns="http://www.w3.org/2000/svg" xmlns:xlink="http://www.w3.org/1999/xlink" x="0px" y="0px"
	 width="500px" height="500px" viewBox="0 0 500 500" enable-background="new 0 0 500 500" xml:space="preserve">
<rect id="position" display="none" fill="none" stroke="#000000" width="500" height="500"/>
<g>
	<g>
		<circle fill="#6D4C41" cx="149.6" cy="444.6" r="7.3"/>
	</g>
	<g>
		<circle fill="#6D4C41" cx="227" cy="444.6" r="7.3"/>
	</g>
	<g>
		<path fill="#6D4C41" d="M142.3,444.4c0-12.6,10.2-22.9,22.9-22.9s22.9,10.2,22.9,22.9"/>
	</g>
	<g>
		<polygon fill="#6D4C41" points="234.3,439.6 149.6,439.6 149.6,451.9 227,451.9 234.3,444.6 		"/>
	</g>
	<g>
		<polygon fill="#6D4C41" points="184.5,421.5 165.5,421.5 165.5,446.1 208.7,446.1 		"/>
	</g>
	<g>
		<path fill="#EFEBE9" d="M224.9,441.8c-0.8,1.7-2.5,2.8-4.5,2.8l0,0c-2,0-3.7-1.1-4.5-2.8l0,0c-0.8,1.7-2.5,2.8-4.5,2.8l0,0
			c-2,0-3.7-1.1-4.5-2.8l0,0c-0.8,1.7-2.5,2.8-4.5,2.8l0,0c-2.8,0-5-2.2-5-5l0,0c0-0.4,0-0.8,0.1-1.1l0,0c-1.7,0.7-3.8,0.4-5.3-1
			l0,0c-1.4-1.4-1.9-3.4-1.4-5.1l0,0c-1.7,0.7-3.8,0.3-5.2-1l0,0c-1.4-1.3-1.9-3.4-1.4-5.1l0,0c-1.7,0.7-3.8,0.3-5.2-1l0,0
			c-2-1.9-2.1-5.1-0.2-7.1l0,0c1.9-2,5.1-2.1,7.1-0.2l0,0c1.4,1.4,1.9,3.4,1.4,5.1l0,0c1.7-0.7,3.8-0.3,5.2,1l0,0
			c1.5,1.3,1.9,3.4,1.4,5.1l0,0c1.7-0.7,3.8-0.3,5.2,1l0,0c1.4,1.3,1.8,3.1,1.4,4.8l0,0c0.6-0.2,1.2-0.4,1.8-0.4l0,0
			c2,0,3.7,1.2,4.5,2.8l0,0c0.8-1.7,2.5-2.8,4.5-2.8l0,0c2,0,3.7,1.2,4.5,2.8l0,0c0.8-1.7,2.5-2.8,4.5-2.8l0,0c2,0,3.7,1.2,4.5,2.8
			l0,0c0.8-1.7,2.5-2.8,4.5-2.8l0,0c2.8,0,5,2.2,5,5l0,0c0,2.8-2.2,5-5,5l0,0C227.5,444.6,225.8,443.5,224.9,441.8z"/>
	</g>
</g>
</svg>
