<?xml version="1.0" encoding="utf-8"?>
<!-- Generator: Adobe Illustrator 18.0.0, SVG Export Plug-In . SVG Version: 6.00 Build 0)  -->
<!DOCTYPE svg PUBLIC "-//W3C//DTD SVG 1.1//EN" "http://www.w3.org/Graphics/SVG/1.1/DTD/svg11.dtd">
<svg version="1.1" id="content" xmlns="http://www.w3.org/2000/svg" xmlns:xlink="http://www.w3.org/1999/xlink" x="0px" y="0px"
	 width="500px" height="500px" viewBox="0 0 500 500" enable-background="new 0 0 500 500" xml:space="preserve">
<rect id="position" display="none" fill="none" stroke="#000000" width="500" height="500"/>
<g id="bounds" display="none">
	<rect x="0.2" y="80.2" display="inline" fill="none" stroke="#EAEAEA" stroke-miterlimit="10" width="499.5" height="499.5"/>
</g>
<g>
	<g>
		<circle fill="#6D4C41" cx="138.6" cy="459.3" r="21"/>
	</g>
	<g>
		<circle fill="#6D4C41" cx="361.4" cy="459.3" r="21"/>
	</g>
	<g>
		<path fill="#6D4C41" d="M117.6,458.7c0-36.3,29.4-65.9,65.9-65.9s65.9,29.4,65.9,65.9"/>
	</g>
	<g>
		<polygon fill="#6D4C41" points="382.4,444.9 138.6,444.9 138.6,480.3 361.4,480.3 382.4,459.3 		"/>
	</g>
	<g>
		<polygon fill="#6D4C41" points="239.1,392.8 184.4,392.8 184.4,463.6 308.7,463.6 		"/>
	</g>
	<g>
		<path fill="#EFEBE9" d="M355.3,451.2c-2.3,4.9-7.2,8.1-13,8.1l0,0c-5.8,0-10.6-3.2-13-8.1l0,0c-2.3,4.9-7.2,8.1-13,8.1l0,0
			c-5.8,0-10.6-3.2-13-8.1l0,0c-2.3,4.9-7.2,8.1-13,8.1l0,0c-8.1,0-14.4-6.3-14.4-14.4l0,0c0-1.2,0-2.3,0.3-3.2l0,0
			c-4.9,2-10.9,1.2-15.3-2.9l0,0c-4-4-5.5-9.8-4-14.7l0,0c-4.9,2-10.9,0.9-15-2.9l0,0c-4-3.7-5.5-9.8-4-14.7l0,0
			c-4.9,2-10.9,0.9-15-2.9l0,0c-5.8-5.5-6-14.7-0.6-20.4l0,0c5.5-5.8,14.7-6,20.4-0.6l0,0c4,4,5.5,9.8,4,14.7l0,0
			c4.9-2,10.9-0.9,15,2.9l0,0c4.3,3.7,5.5,9.8,4,14.7l0,0c4.9-2,10.9-0.9,15,2.9l0,0c4,3.7,5.2,8.9,4,13.8l0,0
			c1.7-0.6,3.5-1.2,5.2-1.2l0,0c5.8,0,10.6,3.5,13,8.1l0,0c2.3-4.9,7.2-8.1,13-8.1l0,0c5.8,0,10.6,3.5,13,8.1l0,0
			c2.3-4.9,7.2-8.1,13-8.1l0,0c5.8,0,10.6,3.5,13,8.1l0,0c2.3-4.9,7.2-8.1,13-8.1l0,0c8.1,0,14.4,6.3,14.4,14.4l0,0
			c0,8.1-6.3,14.4-14.4,14.4l0,0C362.8,459.3,357.9,456.1,355.3,451.2z"/>
	</g>
</g>
</svg>
