<?xml version="1.0" encoding="utf-8"?>
<!-- Generator: Adobe Illustrator 18.0.0, SVG Export Plug-In . SVG Version: 6.00 Build 0)  -->
<!DOCTYPE svg PUBLIC "-//W3C//DTD SVG 1.1//EN" "http://www.w3.org/Graphics/SVG/1.1/DTD/svg11.dtd">
<svg version="1.1" id="content" xmlns="http://www.w3.org/2000/svg" xmlns:xlink="http://www.w3.org/1999/xlink" x="0px" y="0px"
	 width="500px" height="500px" viewBox="0 0 500 500" enable-background="new 0 0 500 500" xml:space="preserve">
<rect id="position" display="none" fill="none" stroke="#000000" width="500" height="500"/>
<g>
	<path fill="#CE342E" d="M237.3,482.2v5.8l-29.1,0.2v-2.4c0,0-11.5-2.1-20.4,2.4c-19.5,0-65.1,0.1-65.1,0.1s-0.6-6.6,5.3-6.6
		s2.1-2.9,2.1-2.9l107.4-4.1L237.3,482.2z"/>
	<path fill="#E53935" d="M238.6,462.4c-0.4-15.8-5.9-22.2-5.9-22.2v-64.6h-39.2h-4.7h-8.1v58.1c0,0,1.3,8.3-8.8,15.2
		c-16.6,11.3-25.8,15.7-36.9,18.4c-10.7,2.7-10.6,13.4-10.5,15.3c0,0.2,0,0.3,0,0.3s108.9,0.4,112.7,0.2c0.1,0,0.1,0,0.1,0
		C237.3,483.2,239.1,478.1,238.6,462.4z"/>
	<path fill="#CE342E" d="M188.8,439.8c0,1.3,1.1,2.3,2.3,2.3c1.3,0,2.3-1.1,2.3-2.3v-64.1h-4.7L188.8,439.8L188.8,439.8z"/>
</g>
</svg>
