<?xml version="1.0" encoding="utf-8"?>
<!-- Generator: Adobe Illustrator 18.0.0, SVG Export Plug-In . SVG Version: 6.00 Build 0)  -->
<!DOCTYPE svg PUBLIC "-//W3C//DTD SVG 1.1//EN" "http://www.w3.org/Graphics/SVG/1.1/DTD/svg11.dtd">
<svg version="1.1" id="content" xmlns="http://www.w3.org/2000/svg" xmlns:xlink="http://www.w3.org/1999/xlink" x="0px" y="0px"
	 width="500px" height="500px" viewBox="0 0 500 500" enable-background="new 0 0 500 500" xml:space="preserve">
<rect id="position" display="none" fill="none" stroke="#000000" width="500" height="500"/>
<g>
	<g>
		<path fill="#E6E6E7" d="M232.6,393.2c-2.8,0.1-9.5,2.2-20.6,3.3c-14.4,1.4-30.9,1.1-30.9,1.1c-1.7,0-3,1.5-3,3
			c0,3.4,2.6,9.9,2.5,19.7c-0.1,9.7-18.5,0.1-29.7,6.9c-10.4,6.3-0.1,27.9,3.4,29s10.1,2.1,20.5,1.7c5.9-0.3,19.5-3.8,24.4-3.8
			c13.7,0,14.8,2,23.2,2c11.3,0,14-14.1,12.2-26.7c-2.4-17.3,1.8-27.8,1.8-32.4C236.4,395.4,235.5,393.1,232.6,393.2z"/>
	</g>
	<g>
		<path fill="#CECECE" d="M211.1,454.8c6,0.9,8.4,1.3,11.4,1.3c10.6,0,13.6-11.2,12.6-21.2C223.1,434.8,211.5,443.8,211.1,454.8z"/>
	</g>
	<g>
		<path fill="#CCCCCC" d="M149.6,428c-8.4,5.5-6.7,25.2,4.7,28.2C161.7,448.9,158.8,431.1,149.6,428z"/>
	</g>
</g>
</svg>
