<?xml version="1.0" encoding="utf-8"?>
<!-- Generator: Adobe Illustrator 16.0.0, SVG Export Plug-In . SVG Version: 6.00 Build 0)  -->
<!DOCTYPE svg PUBLIC "-//W3C//DTD SVG 1.1//EN" "http://www.w3.org/Graphics/SVG/1.1/DTD/svg11.dtd">
<svg version="1.1" id="content" xmlns="http://www.w3.org/2000/svg" xmlns:xlink="http://www.w3.org/1999/xlink" x="0px" y="0px"
	 width="500px" height="500px" viewBox="0 0 500 500" enable-background="new 0 0 500 500" xml:space="preserve">
<g id="beard">
	<path fill="#382800" d="M249.566,132.269c0,0,4.958,6.498,12.139,6.498s9.501-3.055,11.255-5.833
		c1.754-2.78,0.481-3.265-0.271-2.841c-5.41,3.174-7.742-0.768-13.047-4.165c-5.308-3.396-10.077,0-10.077,0s-4.77-3.396-10.076,0
		c-5.304,3.396-7.634,7.339-13.044,4.166c-0.756-0.424-2.025,0.06-0.271,2.84c1.754,2.779,4.073,5.833,11.254,5.833
		C244.61,138.767,249.566,132.269,249.566,132.269z"/>
</g>
<g id="bounds" display="none">
	
		<rect x="120.287" y="-7.281" display="inline" fill="none" stroke="#000000" stroke-width="1.0056" stroke-miterlimit="10" width="259.438" height="259.438"/>
</g>
<path id="position" display="none" d="M499.007,1v498h-498V1H499.007 M500.007,0h-500v500h500V0L500.007,0z"/>
</svg>
