<?xml version="1.0" encoding="utf-8"?>
<!-- Generator: Adobe Illustrator 16.0.0, SVG Export Plug-In . SVG Version: 6.00 Build 0)  -->
<!DOCTYPE svg PUBLIC "-//W3C//DTD SVG 1.1//EN" "http://www.w3.org/Graphics/SVG/1.1/DTD/svg11.dtd">
<svg version="1.1" id="content" xmlns="http://www.w3.org/2000/svg" xmlns:xlink="http://www.w3.org/1999/xlink" x="0px" y="0px"
	 width="500px" height="500px" viewBox="0 0 500 500" enable-background="new 0 0 500 500" xml:space="preserve">
<g id="beard">
	<g>
		<path fill="#382800" d="M237.633,133.934c-6.885,9.001-9.263,19.155-19.271,19.155c-6.82,0-8.381-4.155-8.381-8.038
			c0-5.162,5.374-6.763,6.719-3.766c0.664,1.755,0.093,3.901-2.358,4.437c2.838,2.282,7.64-0.518,7.617-4.784
			c-0.021-4.078-2.834-6.505-7.925-6.505c-5.091,0-8.823,4.251-8.823,11.099c0,6.847,5.42,12.466,14.232,12.466
			s16.403-5.232,22.579-14c2.362-3.542,4.605-7.084,6.807-8.245C249.782,131.77,243.826,125.836,237.633,133.934z"/>
		<path fill="#382800" d="M285.078,134.433c-5.09,0-7.9,2.428-7.924,6.505c-0.022,4.267,4.777,7.065,7.617,4.784
			c-2.451-0.534-3.023-2.682-2.359-4.437c1.347-2.997,6.72-1.396,6.72,3.766c0,3.882-1.562,8.038-8.382,8.038
			c-10.01,0-12.387-10.154-19.271-19.155c-6.191-8.099-12.148-2.164-11.194,1.818c2.202,1.161,4.444,4.703,6.806,8.245
			c6.178,8.768,13.77,14,22.579,14c8.813,0,14.231-5.619,14.231-12.466C293.902,138.685,290.169,134.433,285.078,134.433z"/>
	</g>
</g>
<g id="bounds" display="none">
	
		<rect x="120.505" y="-7.281" display="inline" fill="none" stroke="#000000" stroke-width="1.0056" stroke-miterlimit="10" width="259.438" height="259.438"/>
</g>
<path id="position" display="none" d="M499.225,1v498h-498V1H499.225 M500.225,0h-500v500h500V0L500.225,0z"/>
</svg>
