<?xml version="1.0" encoding="utf-8"?>
<!-- Generator: Adobe Illustrator 16.0.0, SVG Export Plug-In . SVG Version: 6.00 Build 0)  -->
<!DOCTYPE svg PUBLIC "-//W3C//DTD SVG 1.1//EN" "http://www.w3.org/Graphics/SVG/1.1/DTD/svg11.dtd">
<svg version="1.1" id="content" xmlns="http://www.w3.org/2000/svg" xmlns:xlink="http://www.w3.org/1999/xlink" x="0px" y="0px"
	 width="500px" height="500px" viewBox="0 0 500 500" enable-background="new 0 0 500 500" xml:space="preserve">
<g id="bounds" display="none">
	
		<rect x="117.305" y="-2.726" display="inline" fill="none" stroke="#000000" stroke-width="1.0228" stroke-miterlimit="10" width="263.891" height="263.891"/>
</g>
<g id="beard">
	<path fill="#382800" d="M275.129,206.5c0.844-0.375,0.762-1.543,0.219-2.813c-0.031-0.07-3.812-5.75-3.812-17.688
		c0-4.402,0.846-8.134,1.604-11.75c1.062-5.063,2.959-12.375,3.188-20.75c0.188-6.594-1.861-11.646-5.539-15.01
		c-5.146-4.712-11.896-4.17-12.184-4.146c-1.375,0.123-2.391,1.336-2.27,2.711c0.123,1.372,1.33,2.382,2.699,2.27
		c0.115-0.008,4.941-0.321,8.412,2.889c2.572,2.381,4.188,6.178,4.188,11.287c0,9.937-1.344,15.37-2.256,20.165
		c-0.713,3.75-1.389,7.293-1.389,12.168c0,11.054,4.697,18.819,4.885,19.137C273.408,205.875,274.27,206.881,275.129,206.5z"/>
	<path fill="#382800" d="M223.373,206.5c-0.846-0.375-0.764-1.543-0.221-2.813c0.029-0.07,3.813-5.75,3.813-17.688
		c0-4.402-0.846-8.134-1.604-11.75c-1.063-5.063-2.959-12.375-3.188-20.75c-0.186-6.594,1.861-11.646,5.539-15.01
		c5.146-4.712,11.895-4.17,12.182-4.146c1.375,0.123,2.391,1.336,2.27,2.711c-0.121,1.372-1.328,2.382-2.699,2.27
		c-0.117-0.008-4.943-0.321-8.414,2.889c-2.572,2.381-4.188,6.178-4.188,11.287c0,9.937,1.346,15.37,2.256,20.165
		c0.715,3.75,1.389,7.293,1.389,12.168c0,11.054-4.697,18.819-4.883,19.137C225.092,205.875,224.229,206.881,223.373,206.5z"/>
</g>
<rect display="none" fill="none" stroke="#000000" width="500" height="500"/>
</svg>
