<?xml version="1.0" encoding="utf-8"?>
<!-- Generator: Adobe Illustrator 13.0.0, SVG Export Plug-In . SVG Version: 6.00 Build 14948)  -->
<!DOCTYPE svg PUBLIC "-//W3C//DTD SVG 1.1//EN" "http://www.w3.org/Graphics/SVG/1.1/DTD/svg11.dtd">
<svg version="1.1" id="content" xmlns="http://www.w3.org/2000/svg" xmlns:xlink="http://www.w3.org/1999/xlink" x="0px" y="0px"
	 width="500px" height="500px" viewBox="0 0 500 500" enable-background="new 0 0 500 500" xml:space="preserve">
<g id="bounds" display="none">
	
		<rect x="117.055" y="-2.726" display="inline" fill="none" stroke="#000000" stroke-width="1.0228" stroke-miterlimit="10" width="263.89" height="263.891"/>
</g>
<g id="beard">
	<path fill="#382800" d="M231.938,140.339c-0.005,0-0.011,0.001-0.016,0.001l-0.005-0.008c0,0-19.333-1.125-19.333,15.667
		c0,7.788,3.393,13.876,3.393,22.333c0,11.625-5.559,16.964-5.559,16.964s11.713-5.797,11.713-16.964c0-9-1.963-14.667-1.963-21.667
		c0-7.083,7.417-9.167,11.75-9.167c0.004,0,0.006-0.001,0.01-0.001c0.004,0,0.007,0.001,0.011,0.001c1.979,0,3.58-1.603,3.58-3.58
		S233.915,140.339,231.938,140.339z"/>
	<circle fill="#382800" cx="227.197" cy="133.166" r="4.229"/>
</g>
<rect id="position" display="none" fill="none" stroke="#000000" width="500" height="500"/>
</svg>
