<?xml version="1.0" encoding="utf-8"?>
<!-- Generator: Adobe Illustrator 16.0.0, SVG Export Plug-In . SVG Version: 6.00 Build 0)  -->
<!DOCTYPE svg PUBLIC "-//W3C//DTD SVG 1.1//EN" "http://www.w3.org/Graphics/SVG/1.1/DTD/svg11.dtd">
<svg version="1.1" id="content" xmlns="http://www.w3.org/2000/svg" xmlns:xlink="http://www.w3.org/1999/xlink" x="0px" y="0px"
	 width="500px" height="500px" viewBox="0 0 500 500" enable-background="new 0 0 500 500" xml:space="preserve">
<g id="bounds" display="none">
	
		<rect x="119.657" y="-7.281" display="inline" fill="none" stroke="#000000" stroke-width="1.0056" stroke-miterlimit="10" width="259.438" height="259.438"/>
</g>
<path id="position" display="none" d="M499,1v498H1V1H499 M500,0H0v500h500V0L500,0z"/>
<g id="beard">
	<circle opacity="0.5" fill="#382800" enable-background="new    " cx="157.644" cy="142.026" r="0.898"/>
	<circle opacity="0.5" fill="#382800" enable-background="new    " cx="164.288" cy="142.924" r="0.898"/>
	<circle opacity="0.5" fill="#382800" enable-background="new    " cx="170.935" cy="143.351" r="0.898"/>
	<circle opacity="0.5" fill="#382800" enable-background="new    " cx="181.571" cy="142.925" r="0.898"/>
	<circle opacity="0.5" fill="#382800" enable-background="new    " cx="167.851" cy="138.551" r="0.897"/>
	<circle opacity="0.5" fill="#382800" enable-background="new    " cx="188.45" cy="143.351" r="0.898"/>
	<circle opacity="0.5" fill="#382800" enable-background="new    " cx="198.311" cy="143.822" r="0.897"/>
	<circle opacity="0.5" fill="#382800" enable-background="new    " cx="209.441" cy="144.72" r="0.898"/>
	<circle opacity="0.5" fill="#382800" enable-background="new    " cx="220.438" cy="145.147" r="0.898"/>
	<circle opacity="0.5" fill="#382800" enable-background="new    " cx="151.476" cy="139.532" r="0.633"/>
	<circle opacity="0.5" fill="#382800" enable-background="new    " cx="155.804" cy="136.054" r="0.633"/>
	<circle opacity="0.5" fill="#382800" enable-background="new    " cx="148.394" cy="134.912" r="0.633"/>
	<circle opacity="0.5" fill="#382800" enable-background="new    " cx="153.168" cy="128.804" r="0.633"/>
	<circle opacity="0.5" fill="#382800" enable-background="new    " cx="161.81" cy="136.367" r="0.633"/>
	<circle opacity="0.5" fill="#382800" enable-background="new    " cx="159.646" cy="130.726" r="0.633"/>
	<circle opacity="0.5" fill="#382800" enable-background="new    " cx="167.851" cy="133.646" r="0.633"/>
	<circle opacity="0.5" fill="#382800" enable-background="new    " cx="182.204" cy="137.53" r="0.633"/>
	<circle opacity="0.5" fill="#382800" enable-background="new    " cx="175.036" cy="135.734" r="0.633"/>
	<circle opacity="0.5" fill="#382800" enable-background="new    " cx="175.901" cy="141.062" r="0.633"/>
	<circle opacity="0.5" fill="#382800" enable-background="new    " cx="188.818" cy="138.551" r="0.633"/>
	<circle opacity="0.5" fill="#382800" enable-background="new    " cx="196.177" cy="139.184" r="0.633"/>
	<circle opacity="0.5" fill="#382800" enable-background="new    " cx="204.964" cy="140.429" r="0.633"/>
	<circle opacity="0.5" fill="#382800" enable-background="new    " cx="214.792" cy="141.062" r="0.633"/>
	<circle opacity="0.5" fill="#382800" enable-background="new    " cx="224.843" cy="141.695" r="0.633"/>
	<circle opacity="0.5" fill="#382800" enable-background="new    " cx="144.327" cy="156.746" r="1.289"/>
	<circle opacity="0.5" fill="#382800" enable-background="new    " cx="153.167" cy="156.345" r="1.352"/>
	<ellipse opacity="0.5" fill="#382800" enable-background="new    " cx="163.868" cy="156.489" rx="1.457" ry="1.496"/>
	<ellipse opacity="0.5" fill="#382800" enable-background="new    " cx="174.388" cy="156.643" rx="1.516" ry="1.435"/>
	<circle opacity="0.5" fill="#382800" enable-background="new    " cx="184.365" cy="156.345" r="1.352"/>
	<circle opacity="0.5" fill="#382800" enable-background="new    " cx="194.825" cy="156.345" r="1.352"/>
	<circle opacity="0.5" fill="#382800" enable-background="new    " cx="204.964" cy="156.345" r="1.352"/>
	<circle opacity="0.5" fill="#382800" enable-background="new    " cx="215.425" cy="156.345" r="1.352"/>
	<circle opacity="0.5" fill="#382800" enable-background="new    " cx="225.564" cy="156.345" r="1.352"/>
	<circle opacity="0.5" fill="#382800" enable-background="new    " cx="237.025" cy="156.345" r="1.352"/>
	<ellipse opacity="0.5" fill="#382800" enable-background="new    " cx="249.431" cy="156.6" rx="1.502" ry="1.606"/>
	<circle opacity="0.5" fill="#382800" enable-background="new    " cx="243.149" cy="152.243" r="1.289"/>
	<circle opacity="0.5" fill="#382800" enable-background="new    " cx="232.424" cy="151.822" r="1.289"/>
	<circle opacity="0.5" fill="#382800" enable-background="new    " cx="220.437" cy="151.361" r="1.289"/>
	<circle opacity="0.5" fill="#382800" enable-background="new    " cx="210.339" cy="151.361" r="1.289"/>
	<circle opacity="0.5" fill="#382800" enable-background="new    " cx="199.835" cy="151.361" r="1.289"/>
	<circle opacity="0.5" fill="#382800" enable-background="new    " cx="189.74" cy="151.361" r="1.289"/>
	<circle opacity="0.5" fill="#382800" enable-background="new    " cx="179.238" cy="151.361" r="1.289"/>
	<circle opacity="0.5" fill="#382800" enable-background="new    " cx="169.14" cy="151.361" r="1.289"/>
	<circle opacity="0.5" fill="#382800" enable-background="new    " cx="158.542" cy="151.361" r="1.289"/>
	<circle opacity="0.5" fill="#382800" enable-background="new    " cx="149.394" cy="151.361" r="1.289"/>
	<circle opacity="0.5" fill="#382800" enable-background="new    " cx="154.066" cy="147.019" r="0.898"/>
	<circle opacity="0.5" fill="#382800" enable-background="new    " cx="164.001" cy="148.429" r="0.898"/>
	<circle opacity="0.5" fill="#382800" enable-background="new    " cx="146.597" cy="144.72" r="0.898"/>
	<circle opacity="0.5" fill="#382800" enable-background="new    " cx="174.491" cy="147.945" r="0.898"/>
	<circle opacity="0.5" fill="#382800" enable-background="new    " cx="184.365" cy="148.429" r="0.898"/>
	<circle opacity="0.5" fill="#382800" enable-background="new    " cx="193.135" cy="146.634" r="0.897"/>
	<circle opacity="0.5" fill="#382800" enable-background="new    " cx="203.275" cy="147.047" r="0.898"/>
	<circle opacity="0.5" fill="#382800" enable-background="new    " cx="215.528" cy="147.047" r="0.897"/>
	<circle opacity="0.5" fill="#382800" enable-background="new    " cx="226.197" cy="147.531" r="0.898"/>
	<circle opacity="0.5" fill="#382800" enable-background="new    " cx="230.547" cy="144.72" r="0.897"/>
	<circle opacity="0.5" fill="#382800" enable-background="new    " cx="243.541" cy="145.618" r="0.898"/>
	<circle opacity="0.5" fill="#382800" enable-background="new    " cx="236.777" cy="142.328" r="0.633"/>
	<circle opacity="0.5" fill="#382800" enable-background="new    " cx="237.026" cy="147.047" r="0.898"/>
	<circle opacity="0.5" fill="#382800" enable-background="new    " cx="249.079" cy="148.429" r="0.898"/>
	<circle opacity="0.5" fill="#382800" enable-background="new    " cx="249.296" cy="142.328" r="0.633"/>
	<circle opacity="0.5" fill="#382800" enable-background="new    " cx="341.111" cy="142.026" r="0.898"/>
	<circle opacity="0.5" fill="#382800" enable-background="new    " cx="334.466" cy="142.924" r="0.898"/>
	<circle opacity="0.5" fill="#382800" enable-background="new    " cx="327.82" cy="143.351" r="0.898"/>
	<circle opacity="0.5" fill="#382800" enable-background="new    " cx="317.184" cy="142.925" r="0.898"/>
	<circle opacity="0.5" fill="#382800" enable-background="new    " cx="330.905" cy="138.551" r="0.898"/>
	<circle opacity="0.5" fill="#382800" enable-background="new    " cx="310.304" cy="143.351" r="0.898"/>
	<circle opacity="0.5" fill="#382800" enable-background="new    " cx="300.443" cy="143.823" r="0.898"/>
	<circle opacity="0.5" fill="#382800" enable-background="new    " cx="289.314" cy="144.72" r="0.898"/>
	<circle opacity="0.5" fill="#382800" enable-background="new    " cx="278.316" cy="145.147" r="0.898"/>
	<circle opacity="0.5" fill="#382800" enable-background="new    " cx="347.279" cy="139.532" r="0.633"/>
	<circle opacity="0.5" fill="#382800" enable-background="new    " cx="342.95" cy="136.054" r="0.633"/>
	<circle opacity="0.5" fill="#382800" enable-background="new    " cx="350.361" cy="134.912" r="0.633"/>
	<circle opacity="0.5" fill="#382800" enable-background="new    " cx="345.586" cy="128.804" r="0.633"/>
	<circle opacity="0.5" fill="#382800" enable-background="new    " cx="336.945" cy="136.367" r="0.633"/>
	<circle opacity="0.5" fill="#382800" enable-background="new    " cx="339.109" cy="130.726" r="0.633"/>
	<circle opacity="0.5" fill="#382800" enable-background="new    " cx="330.904" cy="133.646" r="0.633"/>
	<circle opacity="0.5" fill="#382800" enable-background="new    " cx="316.55" cy="137.53" r="0.633"/>
	<circle opacity="0.5" fill="#382800" enable-background="new    " cx="323.718" cy="135.734" r="0.633"/>
	<circle opacity="0.5" fill="#382800" enable-background="new    " cx="322.853" cy="141.062" r="0.634"/>
	<circle opacity="0.5" fill="#382800" enable-background="new    " cx="309.938" cy="138.551" r="0.633"/>
	<circle opacity="0.5" fill="#382800" enable-background="new    " cx="302.577" cy="139.183" r="0.633"/>
	<circle opacity="0.5" fill="#382800" enable-background="new    " cx="293.79" cy="140.429" r="0.633"/>
	<circle opacity="0.5" fill="#382800" enable-background="new    " cx="283.962" cy="141.062" r="0.633"/>
	<circle opacity="0.5" fill="#382800" enable-background="new    " cx="273.911" cy="141.695" r="0.633"/>
	<circle opacity="0.5" fill="#382800" enable-background="new    " cx="354.427" cy="156.746" r="1.289"/>
	<circle opacity="0.5" fill="#382800" enable-background="new    " cx="345.587" cy="156.345" r="1.352"/>
	<ellipse opacity="0.5" fill="#382800" enable-background="new    " cx="334.886" cy="156.489" rx="1.457" ry="1.496"/>
	<ellipse opacity="0.5" fill="#382800" enable-background="new    " cx="324.366" cy="156.643" rx="1.514" ry="1.435"/>
	<circle opacity="0.5" fill="#382800" enable-background="new    " cx="314.39" cy="156.345" r="1.352"/>
	<circle opacity="0.5" fill="#382800" enable-background="new    " cx="303.93" cy="156.345" r="1.352"/>
	<circle opacity="0.5" fill="#382800" enable-background="new    " cx="293.79" cy="156.345" r="1.352"/>
	<circle opacity="0.5" fill="#382800" enable-background="new    " cx="283.329" cy="156.345" r="1.352"/>
	<circle opacity="0.5" fill="#382800" enable-background="new    " cx="273.191" cy="156.345" r="1.352"/>
	<circle opacity="0.5" fill="#382800" enable-background="new    " cx="261.73" cy="156.345" r="1.352"/>
	<circle opacity="0.5" fill="#382800" enable-background="new    " cx="255.605" cy="152.243" r="1.289"/>
	<circle opacity="0.5" fill="#382800" enable-background="new    " cx="266.33" cy="151.822" r="1.289"/>
	<circle opacity="0.5" fill="#382800" enable-background="new    " cx="278.318" cy="151.361" r="1.289"/>
	<circle opacity="0.5" fill="#382800" enable-background="new    " cx="288.415" cy="151.361" r="1.289"/>
	<circle opacity="0.5" fill="#382800" enable-background="new    " cx="298.919" cy="151.361" r="1.289"/>
	<circle opacity="0.5" fill="#382800" enable-background="new    " cx="309.015" cy="151.361" r="1.289"/>
	<circle opacity="0.5" fill="#382800" enable-background="new    " cx="319.517" cy="151.361" r="1.289"/>
	<circle opacity="0.5" fill="#382800" enable-background="new    " cx="329.615" cy="151.361" r="1.289"/>
	<circle opacity="0.5" fill="#382800" enable-background="new    " cx="340.212" cy="151.361" r="1.289"/>
	<circle opacity="0.5" fill="#382800" enable-background="new    " cx="349.361" cy="151.361" r="1.289"/>
	<circle opacity="0.5" fill="#382800" enable-background="new    " cx="344.689" cy="147.019" r="0.898"/>
	<circle opacity="0.5" fill="#382800" enable-background="new    " cx="334.753" cy="148.429" r="0.898"/>
	<circle opacity="0.5" fill="#382800" enable-background="new    " cx="352.157" cy="144.72" r="0.898"/>
	<circle opacity="0.5" fill="#382800" enable-background="new    " cx="324.263" cy="147.945" r="0.898"/>
	<circle opacity="0.5" fill="#382800" enable-background="new    " cx="314.39" cy="148.429" r="0.898"/>
	<circle opacity="0.5" fill="#382800" enable-background="new    " cx="305.618" cy="146.633" r="0.898"/>
	<circle opacity="0.5" fill="#382800" enable-background="new    " cx="295.48" cy="147.047" r="0.898"/>
	<circle opacity="0.5" fill="#382800" enable-background="new    " cx="283.229" cy="147.047" r="0.898"/>
	<circle opacity="0.5" fill="#382800" enable-background="new    " cx="272.559" cy="147.531" r="0.898"/>
	<circle opacity="0.5" fill="#382800" enable-background="new    " cx="268.206" cy="144.72" r="0.898"/>
	<circle opacity="0.5" fill="#382800" enable-background="new    " cx="255.213" cy="145.618" r="0.898"/>
	<circle opacity="0.5" fill="#382800" enable-background="new    " cx="261.979" cy="142.328" r="0.633"/>
	<circle opacity="0.5" fill="#382800" enable-background="new    " cx="261.729" cy="147.047" r="0.898"/>
</g>
</svg>
