<?xml version="1.0" encoding="utf-8"?>
<!-- Generator: Adobe Illustrator 16.0.0, SVG Export Plug-In . SVG Version: 6.00 Build 0)  -->
<!DOCTYPE svg PUBLIC "-//W3C//DTD SVG 1.1//EN" "http://www.w3.org/Graphics/SVG/1.1/DTD/svg11.dtd">
<svg version="1.1" id="content" xmlns="http://www.w3.org/2000/svg" xmlns:xlink="http://www.w3.org/1999/xlink" x="0px" y="0px"
	 width="500px" height="500px" viewBox="0 0 500 500" enable-background="new 0 0 500 500" xml:space="preserve">
<path id="position" display="none" d="M499.124,1v498h-498V1H499.124 M500.124,0h-500v500h500V0L500.124,0z"/>
<g id="bounds" display="none">
	
		<rect x="120.405" y="-7.281" display="inline" fill="none" stroke="#000000" stroke-width="1.0056" stroke-miterlimit="10" width="259.438" height="259.438"/>
</g>
<g id="beard">
	<path fill="#382800" d="M144.916,153.493c-2.701,1.281-3.104,7.771,0.294,8.308c0.127,0.02,0.626-0.053,0.648-0.22
		c0.085-0.613-0.303-1.011-0.545-1.55c-0.338-0.755-0.479-1.625-0.556-2.441c-0.088-0.932,0.035-1.89,0.305-2.782
		c0.11-0.363,0.682-1.071,0.54-1.429C145.544,153.227,145.002,153.452,144.916,153.493L144.916,153.493z"/>
	<path fill="#382800" d="M141.57,153.493c-2.7,1.281-3.103,7.771,0.294,8.308c0.128,0.02,0.627-0.053,0.649-0.22
		c0.085-0.613-0.303-1.011-0.545-1.55c-0.338-0.755-0.479-1.625-0.556-2.441c-0.088-0.932,0.034-1.89,0.305-2.782
		c0.11-0.363,0.681-1.071,0.54-1.429C142.197,153.227,141.656,153.452,141.57,153.493L141.57,153.493z"/>
	<path fill="#382800" d="M148.66,153.493c-2.701,1.281-3.104,7.771,0.294,8.308c0.127,0.02,0.626-0.053,0.648-0.22
		c0.085-0.613-0.303-1.011-0.545-1.55c-0.338-0.755-0.479-1.625-0.556-2.441c-0.088-0.932,0.035-1.89,0.305-2.782
		c0.11-0.363,0.681-1.071,0.54-1.429C149.288,153.227,148.746,153.452,148.66,153.493L148.66,153.493z"/>
	<path fill="#382800" d="M152.404,153.493c-2.7,1.281-3.104,7.771,0.294,8.308c0.128,0.02,0.627-0.053,0.649-0.22
		c0.085-0.613-0.303-1.011-0.545-1.55c-0.338-0.755-0.479-1.625-0.556-2.441c-0.088-0.932,0.034-1.89,0.305-2.782
		c0.11-0.363,0.681-1.071,0.54-1.429C153.031,153.227,152.49,153.452,152.404,153.493L152.404,153.493z"/>
	<path fill="#382800" d="M156.147,153.493c-2.701,1.281-3.103,7.771,0.294,8.308c0.127,0.02,0.626-0.053,0.649-0.22
		c0.085-0.613-0.303-1.011-0.545-1.55c-0.338-0.755-0.479-1.625-0.557-2.441c-0.088-0.932,0.035-1.89,0.306-2.782
		c0.109-0.363,0.681-1.071,0.54-1.429C156.775,153.227,156.233,153.452,156.147,153.493L156.147,153.493z"/>
	<path fill="#382800" d="M159.891,153.493c-2.701,1.281-3.103,7.771,0.294,8.308c0.127,0.02,0.626-0.053,0.649-0.22
		c0.085-0.613-0.304-1.011-0.545-1.55c-0.338-0.755-0.479-1.625-0.557-2.441c-0.088-0.932,0.035-1.89,0.306-2.782
		c0.109-0.363,0.681-1.071,0.54-1.429C160.519,153.227,159.977,153.452,159.891,153.493L159.891,153.493z"/>
	<path fill="#382800" d="M163.635,153.493c-2.701,1.281-3.103,7.771,0.294,8.308c0.127,0.02,0.626-0.053,0.649-0.22
		c0.085-0.613-0.304-1.011-0.545-1.55c-0.339-0.755-0.479-1.625-0.557-2.441c-0.088-0.932,0.035-1.89,0.306-2.782
		c0.109-0.363,0.681-1.071,0.539-1.429C164.262,153.227,163.721,153.452,163.635,153.493L163.635,153.493z"/>
	<path fill="#382800" d="M167.378,153.493c-2.701,1.281-3.104,7.771,0.294,8.308c0.127,0.02,0.626-0.053,0.648-0.22
		c0.085-0.613-0.303-1.011-0.545-1.55c-0.338-0.755-0.479-1.625-0.556-2.441c-0.088-0.932,0.035-1.89,0.305-2.782
		c0.11-0.363,0.682-1.071,0.54-1.429C168.006,153.227,167.464,153.452,167.378,153.493L167.378,153.493z"/>
	<path fill="#382800" d="M171.122,153.493c-2.701,1.281-3.104,7.771,0.294,8.308c0.127,0.02,0.626-0.053,0.648-0.22
		c0.085-0.613-0.303-1.011-0.545-1.55c-0.338-0.755-0.479-1.625-0.556-2.441c-0.088-0.932,0.035-1.89,0.305-2.782
		c0.11-0.363,0.682-1.071,0.54-1.429C171.749,153.227,171.208,153.452,171.122,153.493L171.122,153.493z"/>
	<path fill="#382800" d="M174.866,153.493c-2.701,1.281-3.104,7.771,0.294,8.308c0.127,0.02,0.626-0.053,0.648-0.22
		c0.085-0.613-0.303-1.011-0.545-1.55c-0.338-0.755-0.479-1.625-0.556-2.441c-0.088-0.932,0.035-1.89,0.305-2.782
		c0.11-0.363,0.681-1.071,0.54-1.429C175.493,153.227,174.952,153.452,174.866,153.493L174.866,153.493z"/>
	<path fill="#382800" d="M178.609,153.493c-2.7,1.281-3.103,7.771,0.294,8.308c0.127,0.02,0.626-0.053,0.649-0.22
		c0.085-0.613-0.303-1.011-0.545-1.55c-0.338-0.755-0.479-1.625-0.556-2.441c-0.089-0.932,0.034-1.89,0.305-2.782
		c0.11-0.363,0.681-1.071,0.54-1.429C179.237,153.227,178.695,153.452,178.609,153.493L178.609,153.493z"/>
	<path fill="#382800" d="M182.353,153.493c-2.701,1.281-3.103,7.771,0.294,8.308c0.127,0.02,0.626-0.053,0.649-0.22
		c0.085-0.613-0.303-1.011-0.545-1.55c-0.338-0.755-0.479-1.625-0.557-2.441c-0.088-0.932,0.035-1.89,0.306-2.782
		c0.109-0.363,0.681-1.071,0.54-1.429C182.98,153.227,182.439,153.452,182.353,153.493L182.353,153.493z"/>
	<path fill="#382800" d="M186.097,153.493c-2.701,1.281-3.103,7.771,0.294,8.308c0.127,0.02,0.626-0.053,0.649-0.22
		c0.085-0.613-0.304-1.011-0.545-1.55c-0.338-0.755-0.479-1.625-0.557-2.441c-0.088-0.932,0.035-1.89,0.306-2.782
		c0.109-0.363,0.681-1.071,0.54-1.429C186.724,153.227,186.183,153.452,186.097,153.493L186.097,153.493z"/>
	<path fill="#382800" d="M189.84,153.493c-2.701,1.281-3.104,7.771,0.294,8.308c0.127,0.02,0.626-0.053,0.649-0.22
		c0.085-0.613-0.304-1.011-0.546-1.55c-0.338-0.755-0.479-1.625-0.556-2.441c-0.088-0.932,0.035-1.89,0.305-2.782
		c0.11-0.363,0.682-1.071,0.54-1.429C190.468,153.227,189.926,153.452,189.84,153.493L189.84,153.493z"/>
	<path fill="#382800" d="M193.584,153.493c-2.701,1.281-3.104,7.771,0.294,8.308c0.127,0.02,0.626-0.053,0.648-0.22
		c0.085-0.613-0.303-1.011-0.545-1.55c-0.338-0.755-0.479-1.625-0.556-2.441c-0.088-0.932,0.035-1.89,0.305-2.782
		c0.11-0.363,0.682-1.071,0.54-1.429C194.211,153.227,193.67,153.452,193.584,153.493L193.584,153.493z"/>
	<path fill="#382800" d="M197.328,153.493c-2.701,1.281-3.104,7.771,0.294,8.308c0.127,0.02,0.626-0.053,0.648-0.22
		c0.085-0.613-0.303-1.011-0.545-1.55c-0.338-0.755-0.479-1.625-0.556-2.441c-0.088-0.932,0.035-1.89,0.305-2.782
		c0.11-0.363,0.681-1.071,0.54-1.429C197.955,153.227,197.414,153.452,197.328,153.493L197.328,153.493z"/>
	<path fill="#382800" d="M201.071,153.493c-2.7,1.281-3.104,7.771,0.295,8.308c0.127,0.02,0.626-0.053,0.648-0.22
		c0.085-0.613-0.303-1.011-0.545-1.55c-0.338-0.755-0.479-1.625-0.556-2.441c-0.088-0.932,0.035-1.89,0.305-2.782
		c0.11-0.363,0.681-1.071,0.54-1.429C201.699,153.227,201.157,153.452,201.071,153.493L201.071,153.493z"/>
	<path fill="#382800" d="M204.815,153.493c-2.701,1.281-3.103,7.771,0.294,8.308c0.127,0.02,0.626-0.053,0.649-0.22
		c0.085-0.613-0.303-1.011-0.545-1.55c-0.338-0.755-0.479-1.625-0.556-2.441c-0.089-0.932,0.034-1.89,0.305-2.782
		c0.109-0.363,0.681-1.071,0.54-1.429C205.442,153.227,204.901,153.452,204.815,153.493L204.815,153.493z"/>
	<path fill="#382800" d="M208.559,153.493c-2.701,1.281-3.103,7.771,0.294,8.308c0.127,0.02,0.626-0.053,0.649-0.22
		c0.085-0.613-0.303-1.011-0.545-1.55c-0.338-0.755-0.479-1.625-0.557-2.441c-0.088-0.932,0.035-1.89,0.306-2.782
		c0.109-0.363,0.681-1.071,0.54-1.429C209.186,153.227,208.645,153.452,208.559,153.493L208.559,153.493z"/>
	<path fill="#382800" d="M212.302,153.493c-2.701,1.281-3.103,7.771,0.294,8.308c0.127,0.02,0.626-0.053,0.649-0.22
		c0.085-0.613-0.304-1.011-0.545-1.55c-0.339-0.755-0.479-1.625-0.557-2.441c-0.088-0.932,0.035-1.89,0.306-2.782
		c0.109-0.363,0.681-1.071,0.539-1.429C212.93,153.227,212.388,153.452,212.302,153.493L212.302,153.493z"/>
	<path fill="#382800" d="M216.046,153.493c-2.701,1.281-3.104,7.771,0.294,8.308c0.127,0.02,0.626-0.053,0.648-0.22
		c0.086-0.613-0.303-1.011-0.545-1.55c-0.338-0.755-0.479-1.625-0.556-2.441c-0.088-0.932,0.035-1.89,0.305-2.782
		c0.11-0.363,0.682-1.071,0.54-1.429C216.673,153.227,216.132,153.452,216.046,153.493L216.046,153.493z"/>
	<path fill="#382800" d="M219.79,153.493c-2.701,1.281-3.104,7.771,0.294,8.308c0.127,0.02,0.626-0.053,0.648-0.22
		c0.085-0.613-0.303-1.011-0.545-1.55c-0.338-0.755-0.479-1.625-0.556-2.441c-0.088-0.932,0.035-1.89,0.305-2.782
		c0.11-0.363,0.682-1.071,0.54-1.429C220.417,153.227,219.875,153.452,219.79,153.493L219.79,153.493z"/>
	<path fill="#382800" d="M223.533,153.493c-2.701,1.281-3.104,7.771,0.294,8.308c0.127,0.02,0.626-0.053,0.648-0.22
		c0.085-0.613-0.303-1.011-0.545-1.55c-0.338-0.755-0.479-1.625-0.556-2.441c-0.088-0.932,0.035-1.89,0.305-2.782
		c0.11-0.363,0.681-1.071,0.54-1.429C224.161,153.227,223.619,153.452,223.533,153.493L223.533,153.493z"/>
	<path fill="#382800" d="M227.277,153.493c-2.7,1.281-3.103,7.771,0.294,8.308c0.127,0.02,0.626-0.053,0.649-0.22
		c0.085-0.613-0.303-1.011-0.545-1.55c-0.338-0.755-0.479-1.625-0.556-2.441c-0.089-0.932,0.034-1.89,0.305-2.782
		c0.11-0.363,0.681-1.071,0.54-1.429C227.904,153.227,227.363,153.452,227.277,153.493L227.277,153.493z"/>
	<path fill="#382800" d="M231.02,153.493c-2.701,1.281-3.103,7.771,0.294,8.308c0.127,0.02,0.626-0.053,0.649-0.22
		c0.085-0.613-0.303-1.011-0.545-1.55c-0.338-0.755-0.479-1.625-0.557-2.441c-0.088-0.932,0.035-1.89,0.306-2.782
		c0.109-0.363,0.681-1.071,0.54-1.429C231.648,153.227,231.106,153.452,231.02,153.493L231.02,153.493z"/>
	<path fill="#382800" d="M234.764,153.493c-2.701,1.281-3.103,7.771,0.294,8.308c0.127,0.02,0.626-0.053,0.649-0.22
		c0.085-0.613-0.304-1.011-0.545-1.55c-0.338-0.755-0.479-1.625-0.557-2.441c-0.088-0.932,0.035-1.89,0.306-2.782
		c0.109-0.363,0.681-1.071,0.54-1.429C235.392,153.227,234.85,153.452,234.764,153.493L234.764,153.493z"/>
	<path fill="#382800" d="M238.569,153.493c-2.7,1.281-3.103,7.771,0.294,8.308c0.128,0.02,0.626-0.053,0.649-0.22
		c0.085-0.613-0.303-1.011-0.545-1.55c-0.338-0.755-0.479-1.625-0.556-2.441c-0.088-0.932,0.034-1.89,0.305-2.782
		c0.11-0.363,0.681-1.071,0.54-1.429C239.197,153.227,238.655,153.452,238.569,153.493L238.569,153.493z"/>
	<path fill="#382800" d="M242.374,153.493c-2.701,1.281-3.104,7.771,0.294,8.308c0.127,0.02,0.626-0.053,0.648-0.22
		c0.085-0.613-0.303-1.011-0.545-1.55c-0.338-0.755-0.479-1.625-0.556-2.441c-0.088-0.932,0.035-1.89,0.305-2.782
		c0.11-0.363,0.682-1.071,0.54-1.429C243.002,153.227,242.46,153.452,242.374,153.493L242.374,153.493z"/>
	<path fill="#382800" d="M246.18,153.493c-2.701,1.281-3.103,7.771,0.294,8.308c0.127,0.02,0.626-0.053,0.649-0.22
		c0.085-0.613-0.304-1.011-0.545-1.55c-0.338-0.755-0.479-1.625-0.557-2.441c-0.088-0.932,0.035-1.89,0.306-2.782
		c0.109-0.363,0.681-1.071,0.54-1.429C246.807,153.227,246.266,153.452,246.18,153.493L246.18,153.493z"/>
	<path fill="#382800" d="M353.992,153.493c2.701,1.281,3.104,7.771-0.294,8.308c-0.128,0.02-0.627-0.053-0.648-0.22
		c-0.086-0.613,0.303-1.011,0.545-1.55c0.338-0.755,0.479-1.625,0.56-2.441c0.089-0.932-0.033-1.89-0.308-2.782
		c-0.106-0.363-0.684-1.071-0.541-1.429C353.365,153.227,353.906,153.452,353.992,153.493L353.992,153.493z"/>
	<path fill="#382800" d="M357.34,153.493c2.7,1.281,3.104,7.771-0.294,8.308c-0.128,0.02-0.627-0.053-0.646-0.22
		c-0.089-0.613,0.304-1.011,0.545-1.55c0.339-0.755,0.479-1.625,0.558-2.441c0.088-0.932-0.034-1.89-0.306-2.782
		c-0.109-0.363-0.687-1.071-0.54-1.429C356.713,153.227,357.254,153.452,357.34,153.493L357.34,153.493z"/>
	<path fill="#382800" d="M350.249,153.493c2.701,1.281,3.104,7.771-0.295,8.308c-0.127,0.02-0.626-0.053-0.648-0.22
		c-0.084-0.613,0.308-1.011,0.545-1.55c0.343-0.755,0.479-1.625,0.562-2.441c0.089-0.932-0.034-1.89-0.31-2.782
		c-0.106-0.363-0.682-1.071-0.536-1.429C349.621,153.227,350.163,153.452,350.249,153.493L350.249,153.493z"/>
	<path fill="#382800" d="M346.506,153.493c2.7,1.281,3.104,7.771-0.294,8.308c-0.129,0.02-0.627-0.053-0.646-0.22
		c-0.089-0.613,0.304-1.011,0.545-1.55c0.339-0.755,0.479-1.625,0.558-2.441c0.088-0.932-0.034-1.89-0.306-2.782
		c-0.109-0.363-0.687-1.071-0.541-1.429C345.879,153.227,346.42,153.452,346.506,153.493L346.506,153.493z"/>
	<path fill="#382800" d="M342.763,153.493c2.701,1.281,3.104,7.771-0.295,8.308c-0.127,0.02-0.626-0.053-0.646-0.22
		c-0.084-0.613,0.305-1.011,0.546-1.55c0.339-0.755,0.479-1.625,0.558-2.441c0.088-0.932-0.034-1.89-0.307-2.782
		c-0.109-0.363-0.685-1.071-0.539-1.429C342.135,153.227,342.677,153.452,342.763,153.493L342.763,153.493z"/>
	<path fill="#382800" d="M339.019,153.493c2.701,1.281,3.104,7.771-0.293,8.308c-0.129,0.02-0.627-0.053-0.646-0.22
		c-0.086-0.613,0.304-1.011,0.545-1.55c0.339-0.755,0.479-1.625,0.557-2.441c0.09-0.932-0.031-1.89-0.305-2.782
		c-0.11-0.363-0.684-1.071-0.54-1.429C338.392,153.227,338.933,153.452,339.019,153.493L339.019,153.493z"/>
	<path fill="#382800" d="M335.274,153.493c2.698,1.281,3.104,7.771-0.296,8.308c-0.129,0.02-0.625-0.053-0.647-0.22
		c-0.085-0.613,0.304-1.011,0.546-1.55c0.338-0.755,0.479-1.625,0.557-2.441c0.093-0.932-0.03-1.89-0.306-2.782
		c-0.11-0.363-0.682-1.071-0.539-1.429C334.647,153.227,335.188,153.452,335.274,153.493L335.274,153.493z"/>
	<path fill="#382800" d="M331.531,153.493c2.7,1.281,3.104,7.771-0.294,8.308c-0.129,0.02-0.627-0.053-0.648-0.22
		c-0.086-0.613,0.304-1.011,0.545-1.55c0.339-0.755,0.479-1.625,0.561-2.441c0.088-0.932-0.034-1.89-0.31-2.782
		c-0.106-0.363-0.683-1.071-0.539-1.429C330.904,153.227,331.445,153.452,331.531,153.493L331.531,153.493z"/>
	<path fill="#382800" d="M327.787,153.493c2.701,1.281,3.104,7.771-0.295,8.308c-0.127,0.02-0.626-0.053-0.648-0.22
		c-0.085-0.613,0.307-1.011,0.546-1.55c0.338-0.755,0.479-1.625,0.561-2.441c0.088-0.932-0.034-1.89-0.311-2.782
		c-0.105-0.363-0.682-1.071-0.539-1.429C327.159,153.227,327.701,153.452,327.787,153.493L327.787,153.493z"/>
	<path fill="#382800" d="M324.044,153.493c2.7,1.281,3.104,7.771-0.295,8.308c-0.127,0.02-0.627-0.053-0.648-0.22
		c-0.086-0.613,0.308-1.011,0.55-1.55c0.338-0.755,0.479-1.625,0.557-2.441c0.088-0.932-0.034-1.89-0.307-2.782
		c-0.109-0.363-0.686-1.071-0.539-1.429C323.417,153.227,323.958,153.452,324.044,153.493L324.044,153.493z"/>
	<path fill="#382800" d="M320.301,153.493c2.701,1.281,3.104,7.771-0.295,8.308c-0.127,0.02-0.626-0.053-0.646-0.22
		c-0.086-0.613,0.303-1.011,0.545-1.55c0.338-0.755,0.479-1.625,0.558-2.441c0.088-0.932-0.035-1.89-0.307-2.782
		c-0.109-0.363-0.686-1.071-0.539-1.429C319.673,153.227,320.215,153.452,320.301,153.493L320.301,153.493z"/>
	<path fill="#382800" d="M316.558,153.493c2.7,1.281,3.104,7.771-0.295,8.308c-0.128,0.02-0.627-0.053-0.646-0.22
		c-0.086-0.613,0.304-1.011,0.545-1.55c0.338-0.755,0.479-1.625,0.557-2.441c0.088-0.932-0.033-1.89-0.306-2.782
		c-0.109-0.363-0.682-1.071-0.54-1.429C315.931,153.227,316.472,153.452,316.558,153.493L316.558,153.493z"/>
	<path fill="#382800" d="M312.812,153.493c2.697,1.281,3.104,7.771-0.299,8.308c-0.127,0.02-0.625-0.053-0.646-0.22
		c-0.085-0.613,0.304-1.011,0.545-1.55c0.339-0.755,0.479-1.625,0.559-2.441c0.088-0.932-0.032-1.89-0.308-2.782
		c-0.108-0.363-0.682-1.071-0.539-1.429C312.188,153.227,312.728,153.452,312.812,153.493L312.812,153.493z"/>
	<path fill="#382800" d="M309.069,153.493c2.7,1.281,3.104,7.771-0.295,8.308c-0.128,0.02-0.628-0.053-0.647-0.22
		c-0.086-0.613,0.303-1.011,0.545-1.55c0.338-0.755,0.479-1.625,0.557-2.441c0.091-0.932-0.03-1.89-0.306-2.782
		c-0.105-0.363-0.683-1.071-0.54-1.429C308.442,153.227,308.983,153.452,309.069,153.493L309.069,153.493z"/>
	<path fill="#382800" d="M305.325,153.493c2.7,1.281,3.104,7.771-0.296,8.308c-0.127,0.02-0.625-0.053-0.647-0.22
		c-0.085-0.613,0.304-1.011,0.545-1.55c0.339-0.755,0.479-1.625,0.562-2.441c0.088-0.932-0.035-1.89-0.309-2.782
		c-0.107-0.363-0.683-1.071-0.539-1.429C304.698,153.227,305.24,153.452,305.325,153.493L305.325,153.493z"/>
	<path fill="#382800" d="M301.581,153.493c2.701,1.281,3.104,7.771-0.294,8.308c-0.128,0.02-0.627-0.053-0.646-0.22
		c-0.086-0.613,0.305-1.011,0.545-1.55c0.34-0.755,0.479-1.625,0.559-2.441c0.088-0.932-0.033-1.89-0.309-2.782
		c-0.106-0.363-0.683-1.071-0.537-1.429C300.954,153.227,301.495,153.452,301.581,153.493L301.581,153.493z"/>
	<path fill="#382800" d="M297.839,153.493c2.701,1.281,3.104,7.771-0.295,8.308c-0.127,0.02-0.626-0.053-0.647-0.22
		c-0.086-0.613,0.307-1.011,0.545-1.55c0.341-0.755,0.479-1.625,0.561-2.441c0.088-0.932-0.035-1.89-0.311-2.782
		c-0.105-0.363-0.681-1.071-0.539-1.429C297.211,153.227,297.753,153.452,297.839,153.493L297.839,153.493z"/>
	<path fill="#382800" d="M294.096,153.493c2.7,1.281,3.104,7.771-0.295,8.308c-0.128,0.02-0.627-0.053-0.648-0.22
		c-0.086-0.613,0.308-1.011,0.55-1.55c0.338-0.755,0.479-1.625,0.556-2.441c0.09-0.932-0.029-1.89-0.305-2.782
		c-0.11-0.363-0.686-1.071-0.54-1.429C293.468,153.227,294.009,153.452,294.096,153.493L294.096,153.493z"/>
	<path fill="#382800" d="M290.354,153.493c2.701,1.281,3.104,7.771-0.295,8.308c-0.127,0.02-0.627-0.053-0.646-0.22
		c-0.085-0.613,0.303-1.011,0.545-1.55c0.338-0.755,0.479-1.625,0.561-2.441c0.088-0.932-0.035-1.89-0.31-2.782
		c-0.106-0.363-0.687-1.071-0.539-1.429C289.725,153.227,290.268,153.452,290.354,153.493L290.354,153.493z"/>
	<path fill="#382800" d="M286.605,153.493c2.701,1.281,3.104,7.771-0.293,8.308c-0.129,0.02-0.627-0.053-0.647-0.22
		c-0.086-0.613,0.303-1.011,0.545-1.55c0.338-0.755,0.479-1.625,0.556-2.441c0.088-0.932-0.033-1.89-0.305-2.782
		c-0.109-0.363-0.684-1.071-0.54-1.429C285.979,153.227,286.52,153.452,286.605,153.493L286.605,153.493z"/>
	<path fill="#382800" d="M282.864,153.493c2.7,1.281,3.104,7.771-0.296,8.308c-0.127,0.02-0.627-0.053-0.647-0.22
		c-0.085-0.613,0.304-1.011,0.545-1.55c0.339-0.755,0.479-1.625,0.558-2.441c0.092-0.932-0.03-1.89-0.307-2.782
		c-0.109-0.363-0.681-1.071-0.539-1.429C282.234,153.227,282.777,153.452,282.864,153.493L282.864,153.493z"/>
	<path fill="#382800" d="M279.12,153.493c2.7,1.281,3.104,7.771-0.294,8.308c-0.129,0.02-0.628-0.053-0.649-0.22
		c-0.086-0.613,0.304-1.011,0.546-1.55c0.338-0.755,0.479-1.625,0.561-2.441c0.088-0.932-0.034-1.89-0.309-2.782
		c-0.106-0.363-0.684-1.071-0.541-1.429C278.493,153.227,279.034,153.452,279.12,153.493L279.12,153.493z"/>
	<path fill="#382800" d="M275.377,153.493c2.701,1.281,3.104,7.771-0.295,8.308c-0.127,0.02-0.626-0.053-0.648-0.22
		c-0.084-0.613,0.303-1.011,0.545-1.55c0.338-0.755,0.479-1.625,0.562-2.441c0.088-0.932-0.035-1.89-0.31-2.782
		c-0.106-0.363-0.683-1.071-0.539-1.429C274.749,153.227,275.291,153.452,275.377,153.493L275.377,153.493z"/>
	<path fill="#382800" d="M271.633,153.493c2.701,1.281,3.104,7.771-0.294,8.308c-0.128,0.02-0.627-0.053-0.647-0.22
		c-0.086-0.613,0.307-1.011,0.545-1.55c0.342-0.755,0.479-1.625,0.56-2.441c0.088-0.932-0.032-1.89-0.31-2.782
		c-0.105-0.363-0.682-1.071-0.535-1.429C271.006,153.227,271.547,153.452,271.633,153.493L271.633,153.493z"/>
	<path fill="#382800" d="M267.891,153.493c2.7,1.281,3.104,7.771-0.295,8.308c-0.128,0.02-0.627-0.053-0.646-0.22
		c-0.09-0.613,0.304-1.011,0.546-1.55c0.338-0.755,0.479-1.625,0.557-2.441c0.091-0.932-0.032-1.89-0.306-2.782
		c-0.109-0.363-0.686-1.071-0.539-1.429C267.264,153.227,267.805,153.452,267.891,153.493L267.891,153.493z"/>
	<path fill="#382800" d="M264.145,153.493c2.701,1.281,3.104,7.771-0.295,8.308c-0.127,0.02-0.627-0.053-0.646-0.22
		c-0.087-0.613,0.303-1.011,0.545-1.55c0.338-0.755,0.479-1.625,0.557-2.441c0.088-0.932-0.035-1.89-0.306-2.782
		c-0.11-0.363-0.685-1.071-0.54-1.429C263.52,153.227,264.061,153.452,264.145,153.493L264.145,153.493z"/>
	<path fill="#382800" d="M260.341,153.493c2.701,1.281,3.104,7.771-0.295,8.308c-0.127,0.02-0.626-0.053-0.647-0.22
		c-0.086-0.613,0.308-1.011,0.545-1.55c0.343-0.755,0.479-1.625,0.561-2.441c0.088-0.932-0.033-1.89-0.311-2.782
		c-0.104-0.363-0.68-1.071-0.536-1.429C259.714,153.227,260.255,153.452,260.341,153.493L260.341,153.493z"/>
	<path fill="#382800" d="M256.536,153.493c2.7,1.281,3.103,7.771-0.296,8.308c-0.127,0.02-0.627-0.053-0.648-0.22
		c-0.085-0.613,0.305-1.011,0.547-1.55c0.338-0.755,0.479-1.625,0.555-2.441c0.093-0.932-0.029-1.89-0.305-2.782
		c-0.109-0.363-0.683-1.071-0.539-1.429C255.908,153.227,256.45,153.452,256.536,153.493L256.536,153.493z"/>
	<path fill="#382800" d="M252.729,153.493c2.701,1.281,3.104,7.771-0.293,8.308c-0.129,0.02-0.627-0.053-0.648-0.22
		c-0.085-0.613,0.303-1.011,0.545-1.55c0.338-0.755,0.479-1.625,0.557-2.441c0.088-0.932-0.035-1.89-0.305-2.782
		c-0.111-0.363-0.684-1.071-0.54-1.429C252.104,153.227,252.645,153.452,252.729,153.493L252.729,153.493z"/>
	<path fill="#382800" d="M250.893,159.825c-0.369-2.916-0.033-6.382-1.354-6.382c-1.32,0-0.984,3.466-1.354,6.382
		c-0.244,1.936,1.354,1.976,1.354,1.976S251.137,161.76,250.893,159.825z"/>
</g>
</svg>
