<?xml version="1.0" encoding="utf-8"?>
<!-- Generator: Adobe Illustrator 16.0.0, SVG Export Plug-In . SVG Version: 6.00 Build 0)  -->
<!DOCTYPE svg PUBLIC "-//W3C//DTD SVG 1.1//EN" "http://www.w3.org/Graphics/SVG/1.1/DTD/svg11.dtd">
<svg version="1.1" id="content" xmlns="http://www.w3.org/2000/svg" xmlns:xlink="http://www.w3.org/1999/xlink" x="0px" y="0px"
	 width="500px" height="500px" viewBox="0 0 500 500" enable-background="new 0 0 500 500" xml:space="preserve">
<g id="bounds" display="none">
	
		<rect x="117.621" y="-2.726" display="inline" fill="none" stroke="#000000" stroke-width="1.0228" stroke-miterlimit="10" width="263.889" height="263.891"/>
</g>
<g id="beard">
	<path fill="#382800" d="M295.461,132.77c-4.545,0.974-8.197,0.059-13.568-2.07c-0.002,0-0.004-0.001-0.008-0.002
		c-12.932-6.247-32.318-5.542-32.318-5.542s-19.389-0.705-32.32,5.542c-0.002,0.001-0.004,0.001-0.006,0.002
		c-5.371,2.129-9.025,3.044-13.57,2.07c0.967,2.101,2.748,3.733,4.654,4.982c-1.857,2.602-2.969,5.729-2.969,9.503
		c0,27.22,18.854,39.557,18.854,39.557l0.76-6.17c0,0,4.121,10.062,13.883,12.98l1.537-4.953c0,0,3.588,4.267,8.969,7.025v0.037
		c0.01-0.006,0.02-0.013,0.035-0.021c0.012,0.008,0.021,0.015,0.033,0.021v-0.037c0.051-0.025,0.096-0.052,0.145-0.078
		c0.047,0.025,0.094,0.053,0.141,0.078v0.037c0.016-0.006,0.023-0.013,0.037-0.021c0.012,0.008,0.021,0.015,0.035,0.021v-0.037
		c5.381-2.76,8.969-7.025,8.969-7.025l1.535,4.953c9.764-2.921,13.883-12.98,13.883-12.98l0.76,6.17
		c0,0,18.854-12.337,18.854-39.555c0-3.774-1.113-6.903-2.972-9.505C292.713,136.505,294.496,134.871,295.461,132.77z
		 M264.893,158.264c-15.234,0-15.328-5.109-15.328-5.109s-0.09,5.109-15.328,5.109c-20.832,0-15.328-15.875-15.328-15.875
		c16.516,0.363,30.656-6.751,30.656-6.751s14.141,7.115,30.654,6.751C280.221,142.389,285.725,158.264,264.893,158.264z"/>
</g>
<rect id="position" display="none" fill="#382800" stroke="#000000" width="500" height="500"/>
</svg>
