<?xml version="1.0" encoding="utf-8"?>
<!-- Generator: Adobe Illustrator 16.0.0, SVG Export Plug-In . SVG Version: 6.00 Build 0)  -->
<!DOCTYPE svg PUBLIC "-//W3C//DTD SVG 1.1//EN" "http://www.w3.org/Graphics/SVG/1.1/DTD/svg11.dtd">
<svg version="1.1" id="content" xmlns="http://www.w3.org/2000/svg" xmlns:xlink="http://www.w3.org/1999/xlink" x="0px" y="0px"
	 width="500px" height="500px" viewBox="0 0 500 500" enable-background="new 0 0 500 500" xml:space="preserve">
<path id="beard" opacity="0.4" fill="#382800" enable-background="new    " d="M301.54,83.297c0,0,44.008,34.016,44.008,64.151
	c0,7.062-8.713,5.651-15.305,5.651c-6.355,0-52.914,0-52.914,0s-1.993-27.076-27.631-27.076c-25.637,0-27.63,27.076-27.63,27.076
	s-46.559,0-52.915,0c-6.592,0-15.304,1.413-15.304-5.651c0-30.136,44.007-64.151,44.007-64.151
	c-32.063,14.916-54.548,43.26-57.413,76.34h218.51C356.089,126.556,333.602,98.213,301.54,83.297z M230.679,153.214
	c0-19.804,19.021-18.972,19.021-18.972s19.021-0.832,19.021,18.972C259.461,153.214,238.589,153.214,230.679,153.214z"/>
<g id="bounds" display="none">
	
		<rect x="119.979" y="-7.281" display="inline" fill="none" stroke="#000000" stroke-width="1.0056" stroke-miterlimit="10" width="259.438" height="259.438"/>
</g>
<rect id="position" display="none" fill="none" stroke="#000000" width="500" height="500"/>
</svg>
