<?xml version="1.0" encoding="utf-8"?>
<!-- Generator: Adobe Illustrator 17.1.0, SVG Export Plug-In . SVG Version: 6.00 Build 0)  -->
<!DOCTYPE svg PUBLIC "-//W3C//DTD SVG 1.1//EN" "http://www.w3.org/Graphics/SVG/1.1/DTD/svg11.dtd">
<svg version="1.1" id="content" xmlns="http://www.w3.org/2000/svg" xmlns:xlink="http://www.w3.org/1999/xlink" x="0px" y="0px"
	 width="500px" height="500px" viewBox="0 0 500 500" enable-background="new 0 0 500 500" xml:space="preserve">
<g id="bounds" display="none">
	
		<rect x="120.3" y="-7.3" display="inline" fill="none" stroke="#000000" stroke-width="1.0056" stroke-miterlimit="10" width="259.4" height="259.4"/>
</g>
<path id="position" display="none" d="M499,1v498H1V1H499 M500,0H0v500h500V0L500,0z"/>
<g id="beard_1_">
	<path fill="#382800" d="M301.4,83.3c0,0,44,34,44,64.2c0,7.1-8.7,5.7-15.3,5.7c-6.4,0-52.9,0-52.9,0s-2-27.1-27.6-27.1
		c-25.6,0-27.6,27.1-27.6,27.1s-46.6,0-52.9,0c-6.6,0-15.3,1.4-15.3-5.7c0-30.1,44-64.2,44-64.2c-32.1,14.9-55.5,44.3-58.4,77.3
		h220.5C357,127.6,333.5,98.2,301.4,83.3z M230.5,153.2c0-19.8,19-19,19-19s19-0.8,19,19C262.4,153.2,237,153.2,230.5,153.2z"/>
</g>
</svg>
