<?xml version="1.0" encoding="utf-8"?>
<!-- Generator: Adobe Illustrator 14.0.0, SVG Export Plug-In . SVG Version: 6.00 Build 43363)  -->
<!DOCTYPE svg PUBLIC "-//W3C//DTD SVG 1.1//EN" "http://www.w3.org/Graphics/SVG/1.1/DTD/svg11.dtd">
<svg version="1.1" id="content" xmlns="http://www.w3.org/2000/svg" xmlns:xlink="http://www.w3.org/1999/xlink" x="0px" y="0px"
	 width="500px" height="500px" viewBox="0 0 500 500" enable-background="new 0 0 500 500" xml:space="preserve">
<g id="bounds" display="none">
	
		<rect x="117.141" y="-2.726" display="inline" fill="none" stroke="#000000" stroke-width="1.0228" stroke-miterlimit="10" width="263.89" height="263.891"/>
</g>
<g id="beard">
	<path fill="#382800" d="M181.51,134.969c-0.063,0-0.125-0.009-0.188-0.021c-0.035-0.007-3.782-0.702-11.073-0.702
		c-7.286,0-10.938,0.694-10.975,0.701c-0.543,0.104-1.064-0.248-1.173-0.79c-0.104-0.542,0.247-1.064,0.788-1.173
		c0.154-0.03,3.847-0.738,11.357-0.738c7.508,0,11.293,0.708,11.448,0.737c0.542,0.104,0.897,0.627,0.795,1.169
		C182.401,134.636,181.981,134.969,181.51,134.969L181.51,134.969z"/>
	<path fill="#382800" d="M182.615,126.612c-0.14,0-0.278-0.029-0.412-0.09c-0.035-0.019-3.513-1.582-10.595-3.315
		c-7.075-1.729-10.787-1.925-10.821-1.927c-0.554-0.026-0.979-0.495-0.952-1.046c0.023-0.552,0.496-0.979,1.044-0.952
		c0.155,0.007,3.912,0.197,11.207,1.982c7.293,1.782,10.801,3.372,10.945,3.438c0.503,0.229,0.725,0.822,0.492,1.324
		C183.36,126.395,182.996,126.612,182.615,126.612L182.615,126.612z"/>
	<path fill="#382800" d="M161.3,149.76c-0.367,0-0.72-0.203-0.896-0.556c-0.245-0.493-0.048-1.094,0.446-1.341
		c0.142-0.07,3.508-1.741,10.745-3.752c7.234-2.01,11.07-2.342,11.229-2.354c0.556-0.051,1.032,0.361,1.077,0.911
		c0.047,0.553-0.36,1.033-0.914,1.079c-0.036,0.003-3.834,0.337-10.856,2.289c-7.021,1.951-10.354,3.6-10.384,3.613
		C161.603,149.726,161.448,149.76,161.3,149.76L161.3,149.76z"/>
	<path fill="#382800" d="M316.658,134.969c0.063,0,0.125-0.009,0.188-0.021c0.037-0.007,3.785-0.702,11.076-0.702
		c7.286,0,10.937,0.694,10.973,0.701c0.544,0.104,1.066-0.248,1.173-0.79c0.105-0.542-0.245-1.064-0.786-1.173
		c-0.152-0.03-3.85-0.738-11.355-0.738s-11.293,0.708-11.451,0.737c-0.541,0.104-0.896,0.627-0.793,1.169
		C315.771,134.636,316.19,134.969,316.658,134.969L316.658,134.969z"/>
	<path fill="#382800" d="M315.555,126.612c0.14,0,0.279-0.029,0.414-0.09c0.034-0.019,3.51-1.582,10.592-3.315
		c7.076-1.729,10.787-1.925,10.824-1.927c0.551-0.026,0.979-0.495,0.951-1.046c-0.025-0.552-0.496-0.979-1.045-0.952
		c-0.156,0.007-3.911,0.197-11.207,1.982c-7.293,1.782-10.803,3.372-10.947,3.438c-0.502,0.229-0.724,0.822-0.492,1.324
		C314.812,126.395,315.175,126.612,315.555,126.612L315.555,126.612z"/>
	<path fill="#382800" d="M336.87,149.76c0.366,0,0.722-0.203,0.896-0.556c0.247-0.493,0.049-1.094-0.445-1.341
		c-0.14-0.07-3.509-1.741-10.743-3.752c-7.232-2.01-11.068-2.342-11.229-2.354c-0.554-0.051-1.031,0.361-1.078,0.911
		c-0.045,0.553,0.363,1.033,0.914,1.079c0.037,0.003,3.834,0.337,10.859,2.289c7.021,1.951,10.352,3.6,10.384,3.613
		C336.569,149.726,336.721,149.76,336.87,149.76L336.87,149.76z"/>
</g>
<rect id="position" x="0" y="0" display="none" fill="none" stroke="#000000" width="500" height="500"/>
</svg>
