<?xml version="1.0" encoding="utf-8"?>
<!-- Generator: Adobe Illustrator 18.0.0, SVG Export Plug-In . SVG Version: 6.00 Build 0)  -->
<!DOCTYPE svg PUBLIC "-//W3C//DTD SVG 1.1//EN" "http://www.w3.org/Graphics/SVG/1.1/DTD/svg11.dtd">
<svg version="1.1" id="content" xmlns="http://www.w3.org/2000/svg" xmlns:xlink="http://www.w3.org/1999/xlink" x="0px" y="0px"
	 width="500px" height="500px" viewBox="0 0 500 500" enable-background="new 0 0 500 500" xml:space="preserve">
<g id="bounds" display="none">
		<rect x="119.9" y="-7.3" display="inline" fill="none" stroke="#000000" stroke-width="1.0056" stroke-miterlimit="10" width="259.4" height="259.4"/>
</g>
<path id="position" display="none" d="M499,1v498H1V1H499 M500,0H0v500h500V0L500,0z"/>
<path fill="#382800" d="M361.9,151.1c-1-4.6-3-9-5.3-13.2c-2.7-4.9-5.9-9.4-8.9-13.1c0,0,4.9,16.1-0.8,21.5
	c-1.1,1.1-2.7,1.7-4.8,1.7l-6.6,0l-33.4-0.1c-2.5,0-4.8-1.2-6.3-3.2c-3.6-4.9-8.3-9-13.4-12.2c-6.4-4-12.2-7.6-19.8-8.7
	c-4.8-0.7-10.4,0.4-13.1,4.7c-2.7-4.3-8.3-5.4-13.1-4.7c-7.6,1.1-13.4,4.7-19.8,8.7c-5.1,3.2-9.8,7.3-13.4,12.2
	c-1.5,2-3.8,3.2-6.3,3.2l-33.4,0.1l-6.6,0c-2.1,0-3.7-0.7-4.8-1.7c-5.7-5.4-0.8-21.5-0.8-21.5c-3,3.7-6.2,8.2-8.9,13.1
	c-2.3,4.1-4.2,8.5-5.3,13.2c-0.9,3.8-0.5,8.3,1.9,11.5c0.1,0.1,0.6,0.7,0.6,0.7c0.4-0.9,1-1.7,1.8-2.4c0.5-0.4,1-0.8,1.5-1
	c0.3-0.1,0.6-0.2,0.9-0.3c0.1,0,0.7-0.1,0.7,0c0,0,0-0.1,0,0c0.8,2.5,2.6,4.8,3.9,5.6c1.7-2.4,3.7-4.6,6.2-4.5
	c0.7,3,4.5,5.6,4.5,5.6s1.9-4.3,4.5-5.5c1.1,2.7,3.6,5.9,5.6,6.9c0.9-2.6,3.5-6.8,5.4-6.8c0.8,3.4,3.8,6.2,5.9,7
	c0.4-1.9,2-5.1,4.5-6.5c0.7,2.5,4.2,5.8,6.6,6.9c0.1-3.2,3.6-5.6,5.2-6.8c0.9,4.2,3,5.3,5.3,7.5c1.2-5.5,7.5-7.6,7.6-7.6
	c-0.5,0.2,0.3,2.4,0.4,2.6c1.1,2.3,4.5,5,7,5.4c-0.2,0,0.6-8,0.6-8.7c0.4-3,1.1-5.9,2.4-8.7c1.8-3.9,4.5-7.6,7.7-10.9
	c9.3-7.4,21.1-8.7,21.6-11.4c0.1,0.3,0.6,0.9,1.9,1.5l0,0c4.3,2.3,14.9,5.7,22.5,13c2,2.5,3.7,5.1,5,7.8c1.3,2.8,2.1,5.6,2.4,8.7
	c0.1,0.7,0.8,8.7,0.6,8.7c2.5-0.4,5.8-3.1,7-5.4c0.1-0.2,0.9-2.4,0.4-2.6c0,0,6.3,2.1,7.6,7.6c2.3-2.2,4.4-3.3,5.3-7.5
	c1.6,1.1,5.1,3.6,5.2,6.8c2.3-1.1,5.9-4.4,6.6-6.9c2.5,1.4,4.1,4.6,4.5,6.5c2.1-0.8,5.1-3.6,5.9-7c1.9,0,4.5,4.1,5.4,6.8
	c1.9-1,4.5-4.1,5.6-6.9c2.6,1.1,4.5,5.5,4.5,5.5s3.8-2.6,4.5-5.6c2.5-0.1,4.5,2.1,6.2,4.5c1.3-0.8,3-3.1,3.9-5.6c0-0.1,0,0,0,0
	c0,0,0.6,0,0.7,0c0.3,0,0.6,0.1,0.9,0.3c0.6,0.3,1,0.6,1.5,1c0.8,0.6,1.4,1.4,1.8,2.4c0,0,0.6-0.6,0.6-0.7
	C362.5,159.4,362.8,154.9,361.9,151.1z"/>
</svg>
