<?xml version="1.0" encoding="utf-8"?>
<!-- Generator: Adobe Illustrator 18.0.0, SVG Export Plug-In . SVG Version: 6.00 Build 0)  -->
<!DOCTYPE svg PUBLIC "-//W3C//DTD SVG 1.1//EN" "http://www.w3.org/Graphics/SVG/1.1/DTD/svg11.dtd">
<svg version="1.1" id="content" xmlns="http://www.w3.org/2000/svg" xmlns:xlink="http://www.w3.org/1999/xlink" x="0px" y="0px"
	 width="500px" height="500px" viewBox="0 0 500 500" enable-background="new 0 0 500 500" xml:space="preserve">
<g id="bounds" display="none">
	
		<rect x="120.3" y="-7.3" display="inline" fill="none" stroke="#000000" stroke-width="1.0056" stroke-miterlimit="10" width="259.4" height="259.4"/>
</g>
<path id="position" display="none" d="M499,1v498H1V1H499 M500,0H0v500h500V0L500,0z"/>
<path fill="#382800" d="M249.7,129.2c-36.4,0-46.4,7.4-46.4,16.5c0,4.7,5.7,8.6,12.7,8.6c4.9,0,9.1-1.9,11.2-4.6
	c2.1,2.7,6.4,4.6,11.2,4.6c4.9,0,9.1-1.9,11.2-4.6c2.1,2.7,6.4,4.6,11.2,4.6c4.9,0,9.1-1.9,11.2-4.6c2.1,2.7,6.4,4.6,11.2,4.6
	c7,0,12.7-3.8,12.7-8.6C296.1,136.6,286.2,129.2,249.7,129.2z"/>
</svg>
