<?xml version="1.0" encoding="utf-8"?>
<!-- Generator: Adobe Illustrator 18.0.0, SVG Export Plug-In . SVG Version: 6.00 Build 0)  -->
<!DOCTYPE svg PUBLIC "-//W3C//DTD SVG 1.1//EN" "http://www.w3.org/Graphics/SVG/1.1/DTD/svg11.dtd">
<svg version="1.1" id="content" xmlns="http://www.w3.org/2000/svg" xmlns:xlink="http://www.w3.org/1999/xlink" x="0px" y="0px"
	 width="500px" height="500px" viewBox="0 0 500 500" enable-background="new 0 0 500 500" xml:space="preserve">
<path id="position" display="none" d="M499,1v498H1V1H499 M500,0H0v500h500V0L500,0z"/>
<g>
	<path fill="#382800" d="M309.4,155c0,0-22.2,2.6-22.2-1.5c0-9.7-74.7-9.7-74.7,0c0,3.9-22.7,1.3-22.7,1.3s35.1-35.3,60.1-20.2
		C277.7,120.8,309.4,155,309.4,155z"/>
	<path fill="#382800" d="M355,233.6l-5.9-10.2c0,0-11.6,39.1-25.6,49.1l-5.5-12.8c0,0-19.4,39.9-68.4,56c-49.1-16.1-68.4-56-68.4-56
		l-5.5,12.8c-13.9-10-25.6-49.1-25.6-49.1l-5.9,10.2c-14.9-28.2-10-79.2-0.1-99.1c9.8-19.7,20.2-28,20.8-28.3
		c-0.4,0.4-3.8,6.8-6.8,19.4c-1.4,6-4.3,25.7,16.7,26.8c16.8,0.8,45.8,1.3,74.9,1.3s58.1-0.4,74.9-1.3c21-1.1,18.1-20.8,16.7-26.8
		c-3-12.5-6.3-19-6.8-19.4c0.5,0.3,11,8.6,20.8,28.3C365,154.4,369.9,205.4,355,233.6z"/>
</g>
<g id="bounds">
    <rect x="63.5" y="-3.4" display="none" fill="none" stroke="#000000" stroke-width="1.0056" stroke-miterlimit="10" width="373" height="373"/>
</g>
</svg>
