<?xml version="1.0" encoding="utf-8"?>
<!-- Generator: Adobe Illustrator 18.0.0, SVG Export Plug-In . SVG Version: 6.00 Build 0)  -->
<!DOCTYPE svg PUBLIC "-//W3C//DTD SVG 1.1//EN" "http://www.w3.org/Graphics/SVG/1.1/DTD/svg11.dtd">
<svg version="1.1" id="content" xmlns="http://www.w3.org/2000/svg" xmlns:xlink="http://www.w3.org/1999/xlink" x="0px" y="0px"
	 width="500px" height="500px" viewBox="0 0 500 500" enable-background="new 0 0 500 500" xml:space="preserve">
<path id="position" display="none" d="M499,1v498H1V1H499 M500,0H0v500h500V0L500,0z"/>
<g>
	<path fill="#382800" d="M277.2,148c3.7-3.6,4.3-8.6,4.3-8.6c-5.7,3.7-22.4-22.1-32.1-2.2c0,0.3,0,0.3,0,0
		c-9.7-19.9-26.2,5.9-31.9,2.2c0,0,0.7,5,4.3,8.6c-22.5,29.5,9.9,44,23.5,44h4h0.2h4C267.3,192,299.7,177.5,277.2,148z M249.5,159.4
		c-18.7,0-20.6-10-20.6-10c10.5,1.1,17.9-4.7,20.6-10.7c2.7,5.9,10.3,11.8,20.8,10.7c0,0-1.9,10-20.6,10H249.5z"/>
	<path fill="#382800" d="M241.9,192C241.8,192,241.8,192,241.9,192c-4.9,3.1-8.2,9.2-8.2,16.1c0,7,3.4,13.1,8.3,16.2h15.1
		c4.9-3.1,8.3-9.2,8.3-16.2c0-6.9-3.3-13-8.2-16.1l0,0H241.9z"/>
	<path fill="#382800" d="M241.9,224.3C241.8,224.3,241.8,224.3,241.9,224.3c-4.9,3.1-8.2,9.2-8.2,16.1c0,7.3,3.6,13.5,8.9,16.5h13.9
		c5.3-3,8.9-9.3,8.9-16.5c0-6.9-3.3-13-8.2-16.1l0,0L241.9,224.3L241.9,224.3z"/>
	<path fill="#382800" d="M241.9,256.9C241.8,256.9,241.8,256.9,241.9,256.9c-4.9,3.1-8.2,9.2-8.2,16.1c0,6.6,3,12.3,7.4,15.6
		c0.2-0.2,0.5-0.4,0.8-0.4h15.3c0.3,0,0.6,0.1,0.8,0.4c4.4-3.3,7.4-9,7.4-15.6c0-6.9-3.3-13-8.2-16.1l0,0H241.9z"/>
	<path fill="#382800" d="M241.9,288C241.8,288,241.8,287.9,241.9,288c-4.9,3.1-8.2,9.2-8.2,16.1c0,14.5,7.1,22.7,15.9,25
		c-6.1-6.1,0.1-14.4,5.2-14.7c7-0.5,10.7-5.6,10.7-10.3c0-6.9-3.3-13-8.2-16.1l0,0H241.9z"/>
</g>
<g id="bounds">
    <rect x="63.5" y="2.3" display="none" fill="none" stroke="#000000" stroke-width="1.0056" stroke-miterlimit="10" width="373" height="373"/>
</g>
</svg>
