<?xml version="1.0" encoding="utf-8"?>
<!-- Generator: Adobe Illustrator 16.0.0, SVG Export Plug-In . SVG Version: 6.00 Build 0)  -->
<!DOCTYPE svg PUBLIC "-//W3C//DTD SVG 1.1//EN" "http://www.w3.org/Graphics/SVG/1.1/DTD/svg11.dtd">
<svg version="1.1" id="content" xmlns="http://www.w3.org/2000/svg" xmlns:xlink="http://www.w3.org/1999/xlink" x="0px" y="0px"
	 width="500px" height="500px" viewBox="0 0 500 500" enable-background="new 0 0 500 500" xml:space="preserve">
<g id="bounds" display="none">
		<rect x="120.286" y="-7.281" display="inline" fill="none" stroke="#000000" stroke-width="1.0056" stroke-miterlimit="10" width="259.438" height="259.438"/>
</g>
<path id="position" display="none" d="M499,1v498H1V1H499 M500,0H0v500h500V0L500,0z"/>
<path fill="#382800" d="M273.489,156.732c-1.016-4.834-5.993-7.666-8.567-9.032v3.435c0,2.761-2.238,5-5,5h-10.1h-10.099
	c-2.761,0-5-2.239-5-5V147.7c-2.574,1.366-7.552,4.198-8.569,9.032c-1.257,5.978,0.801,11.865,6.479,16.435
	c-1.827-4.527,0-6.417,0-6.417s1.228,9.987,8.836,13.219c-1.193-1.83-1.793-4.289-0.401-6.834c0,0,1.75,8.074,8.754,9.532
	c7.005-1.458,8.755-9.532,8.755-9.532c1.392,2.545,0.792,5.004-0.401,6.834c7.607-3.232,8.836-13.219,8.836-13.219
	s1.827,1.89,0,6.417C272.69,168.598,274.746,162.71,273.489,156.732z"/>
</svg>
