<?xml version="1.0" encoding="utf-8"?>
<!-- Generator: Adobe Illustrator 16.0.0, SVG Export Plug-In . SVG Version: 6.00 Build 0)  -->
<!DOCTYPE svg PUBLIC "-//W3C//DTD SVG 1.1//EN" "http://www.w3.org/Graphics/SVG/1.1/DTD/svg11.dtd">
<svg version="1.1" id="content" xmlns="http://www.w3.org/2000/svg" xmlns:xlink="http://www.w3.org/1999/xlink" x="0px" y="0px"
	 width="500px" height="500px" viewBox="0 0 500 500" enable-background="new 0 0 500 500" xml:space="preserve">
<g id="bounds" display="none">
	
		<rect x="120.287" y="-7.281" display="inline" fill="none" stroke="#000000" stroke-width="1.0056" stroke-miterlimit="10" width="259.438" height="259.438"/>
</g>
<path id="position" display="none" d="M499.007,1v498h-498V1H499.007 M500.007,0h-500v500h500V0L500.007,0z"/>
<path opacity="0.2" fill="#382800" d="M349.617,127.426c-0.017,0.038-17.696,27.127-83.621,27.127
	c-3.865-5.187-8.804-7.3-16.036-7.3s-12.17,2.113-16.036,7.3c-65.925,0-83.604-27.089-83.621-27.127
	c-5.252,9.934-8.58,20.79-9.566,32.211H249.96h109.223C358.197,148.215,354.869,137.36,349.617,127.426z"/>
<path fill="#382800" d="M245.738,128.387c0,0-5.951-0.571-12.907,4.327c-3.456,2.273-5.89,7.923-5.142,8.317
	s0.695-0.282,2.349-2.501c2.009-2.698,5.532-5.369,15.7-5.369C245.738,129.971,245.738,128.387,245.738,128.387z"/>
<path fill="#382800" d="M254.262,128.387c0,0,5.951-0.571,12.907,4.327c3.456,2.273,5.89,7.923,5.142,8.317
	s-0.695-0.282-2.349-2.501c-2.009-2.698-5.532-5.369-15.7-5.369C254.262,129.971,254.262,128.387,254.262,128.387z"/>
</svg>
