<?xml version="1.0" encoding="utf-8"?>
<!-- Generator: Adobe Illustrator 16.0.0, SVG Export Plug-In . SVG Version: 6.00 Build 0)  -->
<!DOCTYPE svg PUBLIC "-//W3C//DTD SVG 1.1//EN" "http://www.w3.org/Graphics/SVG/1.1/DTD/svg11.dtd">
<svg version="1.1" id="content" xmlns="http://www.w3.org/2000/svg" xmlns:xlink="http://www.w3.org/1999/xlink" x="0px" y="0px"
	 width="500px" height="500px" viewBox="0 0 500 500" enable-background="new 0 0 500 500" xml:space="preserve">
<g id="bounds" display="none">
	
		<rect x="120.287" y="-7.281" display="inline" fill="none" stroke="#000000" stroke-width="1.0056" stroke-miterlimit="10" width="259.438" height="259.438"/>
</g>
<path id="position" display="none" d="M499.007,1v498h-498V1H499.007 M500.007,0h-500v500h500V0L500.007,0z"/>
<path fill="#382800" d="M340.271,114.237c0,0,9.735,16.515-8.515,20.265s7.077,15.912-55.294,15.912
	c-0.842-11.973-12.339-14.413-12.339-14.413c-2.758-6.877-12.213-8.35-14.124-4.934c-1.911-3.416-11.366-1.943-14.124,4.934
	c0,0-11.497,2.44-12.339,14.413c-62.371,0-37.044-12.162-55.294-15.912s-8.515-20.265-8.515-20.265
	c-8.64,0-22.225,27.43-18.912,45.399c0,0,3.084,23.281,18.02,32.463c0,0-5.784,35.954,44.996,45.178c21,21,73.589,18.747,92.336,0
	c50.78-9.224,44.996-45.178,44.996-45.178c14.936-9.182,18.02-32.463,18.02-32.463C362.496,141.667,348.911,114.237,340.271,114.237
	z M250,152.423c-5.552-2.679-12.231,0.233-14.335-0.583C238.296,140.426,250,140.66,250,140.66s11.704-0.233,14.335,11.181
	C262.231,152.656,255.552,149.745,250,152.423z"/>
</svg>
