<?xml version="1.0" encoding="utf-8"?>
<!-- Generator: Adobe Illustrator 18.0.0, SVG Export Plug-In . SVG Version: 6.00 Build 0)  -->
<!DOCTYPE svg PUBLIC "-//W3C//DTD SVG 1.1//EN" "http://www.w3.org/Graphics/SVG/1.1/DTD/svg11.dtd">
<svg version="1.1" id="content" xmlns="http://www.w3.org/2000/svg" xmlns:xlink="http://www.w3.org/1999/xlink" x="0px" y="0px"
	 width="500px" height="500px" viewBox="0 0 500 500" enable-background="new 0 0 500 500" xml:space="preserve">
<g id="bounds" display="none">
		<rect x="119.9" y="-7.3" display="inline" fill="none" stroke="#000000" stroke-width="1.0056" stroke-miterlimit="10" width="259.4" height="259.4"/>
</g>
<path id="position" display="none" d="M499,1v498H1V1H499 M500,0H0v500h500V0L500,0z"/>
<g>
	<path fill="#382800" d="M199.6,150.1c19.2-5.2,16.6-18.6,33.5-23c6.9-1.8,15.2,2.9,17,9.8c1.8,6.9-1.6,14.8-11,19.5
		C229.6,161.1,207.4,162.5,199.6,150.1z"/>
	<path fill="#382800" d="M299.8,150.1c-19.2-5.2-16.6-18.6-33.5-23c-6.9-1.8-15.2,2.9-17,9.8c-1.8,6.9,1.6,14.8,11,19.5
		S291.9,162.5,299.8,150.1z"/>
	<path fill="#382800" d="M361,157c-0.9-7.1-8.2-37-35.8-58.7c15.9,21.7,12,41.9,12.6,48.2c0,0-25.2,13-88.2,13.1
		c-63,0-88.4-13.1-88.4-13.1c0.6-6.3-3.3-26.5,12.6-48.2c-31.4,24.7-36.5,60.1-35.8,60.2c0,13.2,28.1,23.9,28.1,23.9
		s4.7-1.8,10.3-4.8c8.8,9,28.5,15.4,28.5,15.4s4.8-1.6,10.8-4.3c12.2,11.3,33.9,19.1,33.9,19.1s21.7-7.8,33.9-19.1
		c6,2.7,10.8,4.3,10.8,4.3s19.7-6.4,28.5-15.4c5.6,3,10.3,4.8,10.3,4.8s28.1-10.7,28.1-23.9C361.3,158,361.2,157.5,361,157z"/>
	<path fill="#382800" d="M344.4,138.3c0,0-1.4-4.7-6.2-6.4c-0.2,9.3-8.2,17.8-8.2,17.8s-1.6-4-5.3-5.8c-3.2,9.7-35.3,13.9-35.3,13.9
		s54-2.9,53.9-3.5C343.3,153.8,344.4,138.3,344.4,138.3z"/>
	<path fill="#382800" d="M155,138.3c0,0,1.4-4.7,6.2-6.4c0.2,9.3,8.2,17.8,8.2,17.8s1.6-4,5.3-5.8c3.2,9.7,35.3,13.9,35.3,13.9
		s-54-2.9-53.9-3.5C156.1,153.8,155,138.3,155,138.3z"/>
</g>
</svg>
