<?xml version="1.0" encoding="utf-8"?>
<!-- Generator: Adobe Illustrator 18.0.0, SVG Export Plug-In . SVG Version: 6.00 Build 0)  -->
<!DOCTYPE svg PUBLIC "-//W3C//DTD SVG 1.1//EN" "http://www.w3.org/Graphics/SVG/1.1/DTD/svg11.dtd">
<svg version="1.1" id="content" xmlns="http://www.w3.org/2000/svg" xmlns:xlink="http://www.w3.org/1999/xlink" x="0px" y="0px"
	 width="500px" height="500px" viewBox="0 0 500 500" enable-background="new 0 0 500 500" xml:space="preserve">
<g id="bounds" display="none">
	
		<rect x="120.3" y="-7.3" display="inline" fill="none" stroke="#000000" stroke-width="1.0056" stroke-miterlimit="10" width="259.4" height="259.4"/>
</g>
<path id="position" display="none" d="M499,1v498H1V1H499 M500,0H0v500h500V0L500,0z"/>
<path fill="#382800" d="M269.4,148.6c-1.5-4-3.5-6.7-6.4-8.7c-4.2-2.8-8.6-2.5-13-2.4c-4.4-0.1-8.8-0.4-13,2.4
	c-2.9,2-4.9,4.7-6.4,8.7c-0.4,1-5.8,12.4-4,18.3c0.2,0.6,0.6,1.1,1,1.6c1.5,1.9,3.5,2.7,5.5,2.8c2,0.1,5.3-0.5,6.5-2.9
	c1.4,4.5,6.8,6.7,10.4,6.7c3.6,0,9-2.2,10.4-6.7c1.3,2.4,4.6,3,6.5,2.9c1.9-0.1,4-1,5.5-2.8c0.4-0.5,0.8-1,1-1.6
	C275.2,161,269.8,149.5,269.4,148.6z M259.5,153.5c-6.3,0-8.9,0-9.5,0s-3.2,0-9.5,0l-2.7-0.1c0.5-1.2,1-2.5,1.6-3.2
	c1.9-2.4,4-3.4,6.3-4.7c1.5-0.8,4.4-2.1,4.1-5l0.2-2.4l0.2,2.4c-0.3,2.9,2.6,4.2,4.1,5c2.4,1.3,4.4,2.3,6.3,4.7
	c0.6,0.7,1.1,2,1.6,3.2L259.5,153.5z"/>
</svg>
